<?xml version="1.0" encoding="utf-8" ?>
<svg baseProfile="full" height="256" version="1.1" width="256" xmlns="http://www.w3.org/2000/svg" xmlns:ev="http://www.w3.org/2001/xml-events" xmlns:xlink="http://www.w3.org/1999/xlink"><defs /><path d="M457 855Q457 855 443.5 842.0Q430 829 413.5 814.0Q397 799 390 792Q383 785 362.0 780.5Q341 776 325 774Q321 773 319.5 777.0Q318 781 320 784Q332 796 352.0 815.5Q372 835 391.0 851.5Q410 868 420 872Q435 878 452 876Q460 875 463 871Q465 867 462.5 862.5Q460 858 457 855Z" fill="#b9e4ea" stroke="none" transform="scale(1,-1) translate(0,-256)" /><path d="M639 794Q638 792 635.5 793.5Q633 795 633 797V833Q633 841 640 845L722 897Q724 898 726.0 897.0Q728 896 728 894V849Q728 845 725 843Z" fill="#b9e4ea" stroke="none" transform="scale(1,-1) translate(0,-256)" /></svg>