<?xml version="1.0" encoding="utf-8" ?>
<svg baseProfile="full" height="256" version="1.1" width="256" xmlns="http://www.w3.org/2000/svg" xmlns:ev="http://www.w3.org/2001/xml-events" xmlns:xlink="http://www.w3.org/1999/xlink"><defs /><path d="M666 741Q666 741 654.0 757.0Q642 773 623.0 793.0Q604 813 582 826Q561 839 532.5 853.5Q504 868 459.5 879.5Q415 891 343 894Q272 898 238.5 894.5Q205 891 195.5 886.5Q186 882 186 882Q186 882 207.5 876.5Q229 871 261.5 862.0Q294 853 325 841Q356 829 388.0 815.0Q420 801 441.5 790.5Q463 780 463 780L679 619L838 739Q838 739 856.5 752.0Q875 765 905.5 783.5Q936 802 973 820Q1010 837 1045.0 853.5Q1080 870 1102.5 880.5Q1125 891 1125 891Q1125 891 1116.5 894.0Q1108 897 1082.0 899.0Q1056 901 1005 899Q927 896 872.5 888.0Q818 880 770 854Q738 838 714.5 811.0Q691 784 678.5 762.5Q666 741 666 741Z" fill="#82b032" stroke="none" transform="scale(1,-1) translate(0,-256)" /></svg>