<?xml version="1.0" encoding="utf-8" ?>
<svg baseProfile="full" height="256" version="1.1" width="256" xmlns="http://www.w3.org/2000/svg" xmlns:ev="http://www.w3.org/2001/xml-events" xmlns:xlink="http://www.w3.org/1999/xlink"><defs /><path d="M677 719 531 -100Q531 -100 541.5 -115.5Q552 -131 569.0 -151.5Q586 -172 605.5 -187.0Q625 -202 642 -202Q668 -202 711.5 -185.5Q755 -169 808.5 -139.5Q862 -110 917 -70Q995 -13 1050.0 43.5Q1105 100 1139.0 165.0Q1173 230 1189 311Q1206 401 1194.0 473.5Q1182 546 1150.0 602.0Q1118 658 1074.0 696.5Q1030 735 982.0 756.0Q934 777 892 781Q840 785 802.5 776.5Q765 768 740.5 754.5Q716 741 701.0 730.0Q686 719 677 719Z" fill="#000000" stroke="none" transform="scale(1,-1) translate(0,-256)" /><path d="M-675.4441680908203 396.74705505371094Q-675.4441680908203 396.74705505371094 -667.4388427734375 367.9114532470703Q-659.4335174560547 339.0758514404297 -646.1760025024414 291.7805480957031Q-632.9184875488281 244.48524475097656 -617.5669708251953 190.048828125Q-612.3491516113281 172.80296325683594 -600.3141860961914 141.95907592773438Q-588.2792205810547 111.11518859863281 -575.9969177246094 74.87682342529297Q-563.7146148681641 38.638458251953125 -556.8691940307617 3.9984893798828125Q-550.0237731933594 -30.6414794921875 -554.6701354980469 -56.961326599121094Q-559.3164978027344 -83.28117370605469 -581.5439147949219 -93.3453369140625Q-589.0262908935547 -96.34063720703125 -605.5775299072266 -83.04859161376953Q-622.1287689208984 -69.75654602050781 -638.1172409057617 -52.95539855957031Q-654.105712890625 -36.15425109863281 -659.1995391845703 -29.968490600585938Q-709.0257568359375 32.70256042480469 -740.6946640014648 88.831787109375Q-772.3635711669922 144.9610137939453 -789.3555297851562 193.86104583740234Q-806.3474884033203 242.76107788085938 -810.8522186279297 281.5911865234375Q-815.3569488525391 320.4212951660156 -809.7838821411133 347.4190139770508Q-804.2108154296875 374.41673278808594 -791.7451171875 388.4911346435547Q-774.8312377929688 405.81932067871094 -755.9123306274414 409.1269302368164Q-736.9934234619141 412.4345397949219 -719.9414138793945 408.18164825439453Q-702.889404296875 403.9287567138672 -690.8348541259766 399.11773681640625Q-678.7803039550781 394.3067169189453 -675.4441680908203 396.74705505371094Z" fill="#000000" stroke="none" transform="scale(1,-1) translate(0,-256)" /><path d="M671 717Q671 717 677.0 711.5Q683 706 691 703Q710 697 745.5 678.0Q781 659 826 602Q840 585 862.5 559.0Q885 533 913.5 504.5Q942 476 975.0 452.0Q1008 428 1042.0 415.0Q1076 402 1108 408Q1126 411 1146.5 426.0Q1167 441 1180.0 461.5Q1193 482 1188 503Q1173 568 1140.5 618.5Q1108 669 1065.5 704.0Q1023 739 977.5 758.0Q932 777 892 781Q840 785 802.0 776.0Q764 767 738.0 753.5Q712 740 695.5 728.5Q679 717 671 717Z" fill="#000000" stroke="none" transform="scale(1,-1) translate(0,-256)" /><path d="M866 322 864 406 795 583Q795 583 781.5 599.5Q768 616 749.0 638.5Q730 661 712.5 680.5Q695 700 687 706Q677 714 660.5 727.5Q644 741 613.5 755.0Q583 769 531 781Q479 792 421.0 787.5Q363 783 302.0 755.5Q241 728 179 671Q132 627 107.5 569.5Q83 512 77.0 448.0Q71 384 80.0 322.0Q89 260 108 209Q139 126 207.5 53.0Q276 -20 367 -82Q412 -112 458.0 -135.0Q504 -158 543.0 -173.0Q582 -188 608.5 -195.0Q635 -202 642 -202Q656 -201 669.0 -194.5Q682 -188 682 -188L756 -97L846 106Z" fill="#000000" stroke="none" transform="scale(1,-1) translate(0,-256)" /><path d="M56.276885986328125 -569.0952758789062Q64.80686950683594 -645.9566345214844 88.8211669921875 -697.5398254394531Q112.83546447753906 -749.1230163574219 144.8661880493164 -781.0611419677734Q176.89691162109375 -812.999267578125 210.64413452148438 -829.4045104980469Q244.391357421875 -845.8097534179688 273.5728530883789 -851.7941436767578Q302.7543487548828 -857.7785339355469 320.68087005615234 -857.9612274169922Q338.6073913574219 -858.1439208984375 338.6073913574219 -858.1439208984375L478.3384246826172 -786.6589050292969Q478.3384246826172 -786.6589050292969 491.23909759521484 -772.9283294677734Q504.1397705078125 -759.19775390625 521.7211380004883 -739.8834228515625Q539.3025054931641 -720.569091796875 554.5214004516602 -702.7968292236328Q569.7402954101562 -685.0245666503906 574.3767395019531 -676.9411926269531Q580.5704650878906 -666.8299255371094 590.6573944091797 -651.64892578125Q600.7443237304688 -636.4679260253906 611.3709411621094 -606.7750396728516Q621.99755859375 -577.0821533203125 630.6332397460938 -524.9208984375Q644.3300018310547 -443.6653747558594 624.3414916992188 -349.5040740966797Q604.3529815673828 -255.3427734375 537.5131072998047 -169.51217651367188Q503.28797912597656 -126.11105346679688 463.4708480834961 -104.31239318847656Q423.6537170410156 -82.51373291015625 379.69566345214844 -74.29055786132812Q342.92237854003906 -66.94033813476562 319.05870056152344 -68.86308288574219Q295.1950225830078 -70.78582763671875 273.4460983276367 -79.67225646972656Q251.69717407226562 -88.55868530273438 221.68402099609375 -103.09231567382812Q188.52090454101562 -119.68203735351562 155.4198226928711 -162.27484130859375Q122.31874084472656 -204.86764526367188 95.95124053955078 -267.8445281982422Q69.583740234375 -330.8214111328125 57.798179626464844 -407.54237365722656Q46.01261901855469 -484.2633361816406 56.276885986328125 -569.0952758789062Z" fill="#000000" stroke="none" transform="scale(1,-1) translate(0,-256)" /><path d="M674 -189Q665 -186 676.5 -173.5Q688 -161 710 -134Q720 -120 739.0 -84.5Q758 -49 778.5 4.5Q799 58 816.0 126.5Q833 195 840 274Q846 344 834.5 406.0Q823 468 801.5 519.5Q780 571 756.5 609.0Q733 647 715.0 669.5Q697 692 693 696Q683 708 691.5 709.0Q700 710 710 706Q713 704 736.0 688.5Q759 673 790.0 640.5Q821 608 850.0 557.0Q879 506 895.5 434.0Q912 362 906 267Q898 161 871.5 85.0Q845 9 809.5 -45.0Q774 -99 742 -140Q723 -163 700.0 -176.0Q677 -189 674 -189Z" fill="#000000" stroke="none" transform="scale(1,-1) translate(0,-256)" /><path d="M153.6351318359375 354.64520263671875Q157.08331298828125 371.49066162109375 172.54885864257812 397.6664123535156Q188.014404296875 423.8421630859375 224.82833862304688 455.7022705078125Q261.64227294921875 487.5623779296875 329.97705078125 523.0657958984375Q329.97705078125 523.0657958984375 336.90675354003906 527.0714874267578Q343.8364562988281 531.0771789550781 351.44769287109375 538.0438842773438Q359.0589294433594 545.0105895996094 360.9031219482422 553.2093658447266Q362.747314453125 561.4081420898438 352.8164978027344 569.3464050292969Q336.6389465332031 582.5851135253906 295.86451721191406 570.8057098388672Q255.090087890625 559.0263061523438 199.97225952148438 524.2685241699219Q138.04483032226562 485.2810974121094 98.94609069824219 444.98585510253906Q59.84735107421875 404.69061279296875 46.542205810546875 368.1385803222656Q35.24114990234375 338.42919921875 44.80879211425781 318.47254943847656Q54.376434326171875 298.5158996582031 80.970947265625 301.8236083984375Q104.68157958984375 304.16107177734375 118.86149597167969 312.6327667236328Q133.04141235351562 321.1044616699219 140.77346801757812 331.019775390625Q148.50552368164062 340.9350891113281 151.07032775878906 347.79014587402344Q153.6351318359375 354.64520263671875 153.6351318359375 354.64520263671875Z" fill="#000000" stroke="none" transform="scale(1,-1) translate(0,-256)" /><path d="M77.18984985351562 370.0756530761719 298.33702087402344 663.8898773193359Q243.58203125 651.836181640625 190.93946838378906 617.1701812744141Q138.29690551757812 582.5041809082031 103.21492004394531 534.4645538330078Q68.27818298339844 488.10350036621094 61.67616271972656 442.3728485107422Q55.07414245605469 396.64219665527344 77.18984985351562 370.0756530761719Z" fill="#000000" stroke="none" transform="scale(1,-1) translate(0,-256)" /><path d="M127.11128234863281 389.0861358642578Q129.16830444335938 407.7024230957031 142.81689453125 436.2756042480469Q156.46548461914062 464.8487854003906 191.68146514892578 498.99649810791016Q226.89744567871094 533.1442108154297 294.3830261230469 570.2397155761719Q294.3830261230469 570.2397155761719 301.1903076171875 574.4523773193359Q307.9975891113281 578.6650390625 315.24444580078125 586.1473388671875Q322.4913024902344 593.629638671875 323.66407012939453 602.6844711303711Q324.8368377685547 611.7393035888672 313.8563232421875 620.9170227050781Q295.9412841796875 636.2093200683594 254.8311996459961 624.5360794067383Q213.7211151123047 612.8628387451172 159.83648681640625 576.1335144042969Q99.28883361816406 534.9382171630859 62.465614318847656 491.4882125854492Q25.64239501953125 448.0382080078125 15.157241821289062 407.8478240966797Q6.1316680908203125 375.19825744628906 17.81304931640625 352.66526794433594Q29.494430541992188 330.1322784423828 56.699737548828125 332.8794250488281Q81.00970458984375 334.6484375 94.91448211669922 343.5745315551758Q108.81925964355469 352.50062561035156 115.92696380615234 363.25841522216797Q123.03466796875 374.0162048339844 125.0729751586914 381.5511703491211Q127.11128234863281 389.0861358642578 127.11128234863281 389.0861358642578Z" fill="#000000" stroke="none" transform="scale(1,-1) translate(0,-256)" /></svg>