<?xml version="1.0" encoding="utf-8" ?>
<svg baseProfile="full" height="256" version="1.1" width="256" xmlns="http://www.w3.org/2000/svg" xmlns:ev="http://www.w3.org/2001/xml-events" xmlns:xlink="http://www.w3.org/1999/xlink"><defs /><path d="M1178 550H186Q208 590 235.0 607.0Q262 624 292 630Q321 636 356.5 638.0Q392 640 408 640Q419 640 424.5 631.0Q430 622 435.0 613.5Q440 605 447 605Q450 605 484.5 605.0Q519 605 574.5 605.0Q630 605 696.0 605.0Q762 605 828.5 605.0Q895 605 952.0 605.0Q1009 605 1047.0 605.0Q1085 605 1093 605Q1130 605 1149.5 588.0Q1169 571 1178 550Z" fill="#bdbdbd" stroke="none" transform="scale(1,-1) translate(0,-256)" /></svg>