<?xml version="1.0" encoding="utf-8" ?>
<svg baseProfile="full" height="256" version="1.1" width="256" xmlns="http://www.w3.org/2000/svg" xmlns:ev="http://www.w3.org/2001/xml-events" xmlns:xlink="http://www.w3.org/1999/xlink"><defs /><path d="M346 -107Q346 -64 315.5 -33.0Q285 -2 242 -2Q199 -2 169.0 -33.0Q139 -64 139 -107Q139 -151 169.0 -181.5Q199 -212 242 -212Q285 -212 315.5 -181.5Q346 -151 346 -107Z" fill="#5d4037" stroke="none" transform="scale(1,-1) translate(0,-256)" /><path d="M1076.875 -107.0Q1076.875 -64.0 1046.375 -33.0Q1015.875 -2.0 972.875 -2.0Q929.875 -2.0 899.875 -33.0Q869.875 -64.0 869.875 -107.0Q869.875 -151.0 899.875 -181.5Q929.875 -212.0 972.875 -212.0Q1015.875 -212.0 1046.375 -181.5Q1076.875 -151.0 1076.875 -107.0Z" fill="#5d4037" stroke="none" transform="scale(1,-1) translate(0,-256)" /></svg>