<?xml version="1.0" encoding="utf-8" ?>
<svg baseProfile="full" height="256" version="1.1" width="256" xmlns="http://www.w3.org/2000/svg" xmlns:ev="http://www.w3.org/2001/xml-events" xmlns:xlink="http://www.w3.org/1999/xlink"><defs /><path d="M126 188H1193L1197 -86Q1197 -99 1193.0 -114.0Q1189 -129 1161 -129Q1153 -129 1105.5 -129.0Q1058 -129 984.0 -129.0Q910 -129 820.5 -129.0Q731 -129 636.0 -129.0Q541 -129 452.0 -129.0Q363 -129 290.5 -129.0Q218 -129 173.5 -129.0Q129 -129 124 -129Q106 -129 98.0 -118.5Q90 -108 87.5 -94.5Q85 -81 85.5 -71.0Q86 -61 86 -61L108 109Q114 147 126 188Z" fill="#88b151" stroke="none" transform="scale(1,-1) translate(0,-256)" /></svg>