<?xml version="1.0" encoding="utf-8" ?>
<svg baseProfile="full" height="256" version="1.1" width="256" xmlns="http://www.w3.org/2000/svg" xmlns:ev="http://www.w3.org/2001/xml-events" xmlns:xlink="http://www.w3.org/1999/xlink"><defs /><path d="M761 715 778 693Q885 777 995 836Q1050 865 1083 878L1074 904Q1038 891 982 861Q869 801 761 715Z" fill="#82aec0" stroke="none" transform="scale(1,-1) translate(0,-256)" /><path d="M851 587Q858 587 862.5 592.5Q867 598 865 605L854 661Q852 673 840 673H560Q548 673 546 661L535 605Q533 598 537.5 592.5Q542 587 549 587H585Z" fill="#82aec0" stroke="none" transform="scale(1,-1) translate(0,-256)" /></svg>