<?xml version="1.0" encoding="utf-8" ?>
<svg baseProfile="full" height="256" version="1.1" width="256" xmlns="http://www.w3.org/2000/svg" xmlns:ev="http://www.w3.org/2001/xml-events" xmlns:xlink="http://www.w3.org/1999/xlink"><defs /><path d="M243 56H489Q523 32 562 19H70V747H556Q557 728 561 709H243V570H590L594 546Q590 543 585.5 539.5Q581 536 577 532H243V392H446Q433 373 424 355H243V209H394Q396 190 403 171H243Z" fill="#546e7a" stroke="none" transform="scale(1,-1) translate(0,-256)" /><path d="M803 19Q802 23 801.5 26.5Q801 30 801 33Q817 42 833 56H1205V19Z" fill="#546e7a" stroke="none" transform="scale(1,-1) translate(0,-256)" /><path d="M862 709Q864 728 862 747H1205V709Z" fill="#546e7a" stroke="none" transform="scale(1,-1) translate(0,-256)" /><path d="M864 355Q845 378 821 392H1205V355Z" fill="#546e7a" stroke="none" transform="scale(1,-1) translate(0,-256)" /><path d="M1205 532H780Q795 550 808 570H1205Z" fill="#546e7a" stroke="none" transform="scale(1,-1) translate(0,-256)" /><path d="M1205 171H905Q909 190 911 209H1205Z" fill="#546e7a" stroke="none" transform="scale(1,-1) translate(0,-256)" /><path d="M855 320Q882 271 883.0 226.5Q884 182 867.0 146.0Q850 110 823.0 85.0Q796 60 769 49Q769 49 773.0 28.5Q777 8 779.0 -24.0Q781 -56 774.5 -90.0Q768 -124 747 -152Q731 -172 703.0 -191.0Q675 -210 643 -210Q565 -210 526.5 -177.0Q488 -144 488 -89Q490 -59 505.5 -40.5Q521 -22 543.0 -16.0Q565 -10 587.5 -16.0Q610 -22 625.5 -40.5Q641 -59 642 -89Q642 -111 630.5 -129.5Q619 -148 599 -158Q628 -168 658.5 -159.5Q689 -151 709 -124Q726 -102 730.5 -74.5Q735 -47 733.0 -22.0Q731 3 727.5 19.0Q724 35 724 35Q716 35 698.5 33.5Q681 32 671 32Q608 28 552.5 52.5Q497 77 461.0 121.0Q425 165 421 221Q418 264 433.0 305.0Q448 346 473.5 382.5Q499 419 528.5 449.5Q558 480 584.0 501.5Q610 523 626 534L591 699Q579 760 583.5 799.0Q588 838 602.5 861.0Q617 884 635.5 894.0Q654 904 671.0 907.0Q688 910 697 910Q712 910 734.5 905.0Q757 900 781.0 876.0Q805 852 824 796Q841 747 833.5 701.5Q826 656 802.5 615.0Q779 574 747.5 538.5Q716 503 685 474L703 386Q726 388 753.5 385.5Q781 383 807.5 368.5Q834 354 855 320ZM707 830Q672 815 654.0 776.5Q636 738 646 672L667 565Q694 592 720.0 622.0Q746 652 765.5 684.0Q785 716 791 748Q798 782 784.0 803.5Q770 825 748.0 831.5Q726 838 707 830ZM657 375 645 444Q605 409 574.0 376.0Q543 343 525.5 304.5Q508 266 511 215Q513 163 543.5 129.5Q574 96 620.5 83.0Q667 70 715 81L672 298Q639 283 626.5 258.5Q614 234 618.5 207.5Q623 181 641 163Q646 158 651.0 153.0Q656 148 661 145Q666 142 671.0 138.5Q676 135 675 130Q674 119 662.5 120.5Q651 122 650 122Q626 130 601.0 150.5Q576 171 567 225Q559 278 583.0 318.5Q607 359 657 375ZM819 169Q827 197 821.0 230.0Q815 263 790.5 286.0Q766 309 721 307L760 97Q786 112 800.0 131.5Q814 151 819 169Z" fill="#546e7a" stroke="none" transform="scale(1,-1) translate(0,-256)" /></svg>