<?xml version="1.0" encoding="utf-8" ?>
<svg baseProfile="full" height="256" version="1.1" width="256" xmlns="http://www.w3.org/2000/svg" xmlns:ev="http://www.w3.org/2001/xml-events" xmlns:xlink="http://www.w3.org/1999/xlink"><defs /><path d="M617 59Q615 89 583 89Q569 89 558.0 78.5Q547 68 548 51Q548 34 561.5 25.0Q575 16 591 20Q608 24 613.0 36.0Q618 48 617 59Z" fill="#2e2c33" stroke="none" transform="scale(1,-1) translate(0,-256)" /><path d="M291 -59Q292 -46 279 -42Q273 -40 267.5 -43.0Q262 -46 260 -52Q258 -59 262.0 -65.0Q266 -71 273 -72Q279 -73 284.5 -70.0Q290 -67 291 -59Z" fill="#2e2c33" stroke="none" transform="scale(1,-1) translate(0,-256)" /><path d="M214 -38Q209 -26 195 -29Q189 -31 186.0 -36.0Q183 -41 185 -48Q186 -55 192.5 -57.5Q199 -60 205 -57Q209 -56 213.0 -50.0Q217 -44 214 -38Z" fill="#2e2c33" stroke="none" transform="scale(1,-1) translate(0,-256)" /></svg>