<?xml version="1.0" encoding="utf-8" ?>
<svg baseProfile="full" height="256" version="1.1" width="256" xmlns="http://www.w3.org/2000/svg" xmlns:ev="http://www.w3.org/2001/xml-events" xmlns:xlink="http://www.w3.org/1999/xlink"><defs /><path d="M571 427Q571 427 553.5 417.0Q536 407 506.5 396.0Q477 385 442 382Q401 378 372.0 385.0Q343 392 327.0 400.0Q311 408 311 408Q311 408 297.0 401.0Q283 394 258.5 386.5Q234 379 203 379Q171 379 144.0 384.5Q117 390 100.5 395.0Q84 400 84 400Q84 400 82.5 381.5Q81 363 88 340Q98 309 123.5 290.5Q149 272 185 268Q196 267 236.5 266.0Q277 265 335.5 265.0Q394 265 459.0 264.5Q524 264 585.5 264.5Q647 265 695.0 265.0Q743 265 765 265Q794 265 837.0 266.5Q880 268 927.0 269.0Q974 270 1016.5 272.0Q1059 274 1089.5 275.0Q1120 276 1128 277Q1157 281 1179.5 297.0Q1202 313 1207 357Q1209 379 1206.5 397.5Q1204 416 1204 416Q1204 416 1190.5 408.0Q1177 400 1153.5 391.0Q1130 382 1099 379Q1059 376 1027.0 381.0Q995 386 976.5 392.0Q958 398 958 398Q958 398 969.5 403.5Q981 409 995.5 419.5Q1010 430 1019 445Q1026 457 1029.0 472.5Q1032 488 1032.5 500.0Q1033 512 1033 512Q1033 512 1015.0 500.5Q997 489 966.0 472.5Q935 456 896.0 439.0Q857 422 815.0 410.5Q773 399 732 399Q668 399 634.5 406.5Q601 414 588.0 421.0Q575 428 571 427Z" fill="#b9ced2" stroke="none" transform="scale(1,-1) translate(0,-256)" /></svg>