<?xml version="1.0" encoding="utf-8" ?>
<svg baseProfile="full" height="256" version="1.1" width="256" xmlns="http://www.w3.org/2000/svg" xmlns:ev="http://www.w3.org/2001/xml-events" xmlns:xlink="http://www.w3.org/1999/xlink"><defs /><path d="M1153 -76Q1159 -92 1161.0 -110.0Q1163 -128 1157 -144Q1150 -161 1133.0 -170.5Q1116 -180 1100 -186Q1019 -214 933.5 -212.0Q848 -210 764 -202Q721 -197 675.5 -189.5Q630 -182 587.0 -166.0Q544 -150 510 -121Q479 -95 458.5 -47.0Q438 1 421.5 59.0Q405 117 387.5 174.5Q370 232 344 276Q330 302 311 325Q299 293 292.5 246.0Q286 199 283.0 148.0Q280 97 279.5 52.5Q279 8 279.0 -20.0Q279 -48 279 -48Q279 -48 271.0 -56.5Q263 -65 242 -65Q220 -65 214.0 -56.0Q208 -47 208 -47Q208 -47 208.0 -18.5Q208 10 207.5 57.5Q207 105 204.0 163.0Q201 221 194.0 281.0Q187 341 175.0 395.5Q163 450 144 489Q144 489 144.0 489.5Q144 490 144 490Q135 505 129 521Q112 565 113.5 603.5Q115 642 134 701Q145 733 165.5 766.0Q186 799 209.5 828.0Q233 857 253.0 878.0Q273 899 283 906Q307 925 358.0 895.0Q409 865 474.5 791.0Q540 717 608 600Q642 542 668.0 489.5Q694 437 719.5 388.5Q745 340 781 291Q837 212 893.5 159.0Q950 106 995.5 72.5Q1041 39 1067 20Q1078 12 1095.0 -3.5Q1112 -19 1128.5 -38.0Q1145 -57 1153 -76ZM825 83Q835 86 852.0 89.5Q869 93 883.0 95.5Q897 98 897 98Q897 98 873.0 120.0Q849 142 809.0 191.0Q769 240 719.0 320.0Q669 400 616 516Q606 538 584.0 575.0Q562 612 532.5 656.0Q503 700 468.0 743.5Q433 787 396.0 822.5Q359 858 323 877Q316 881 308.5 877.5Q301 874 304 867Q331 803 362.5 741.0Q394 679 422.0 611.0Q450 543 465 461Q484 356 503.5 277.0Q523 198 553.0 146.5Q583 95 636 71Q668 56 696.5 56.0Q725 56 756.0 64.5Q787 73 825 83Z" fill="#f44336" stroke="none" transform="scale(1,-1) translate(0,-256)" /></svg>