<?xml version="1.0" encoding="utf-8" ?>
<svg baseProfile="full" height="256" version="1.1" width="256" xmlns="http://www.w3.org/2000/svg" xmlns:ev="http://www.w3.org/2001/xml-events" xmlns:xlink="http://www.w3.org/1999/xlink"><defs /><path d="M550 794Q544 803 555.5 817.0Q567 831 589.5 845.5Q612 860 637 869Q672 883 729.0 888.0Q786 893 853 870Q897 855 928.5 829.5Q960 804 977.0 783.5Q994 763 997 763Q999 763 1004.5 779.0Q1010 795 1016.5 815.0Q1023 835 1028 847Q1034 863 1044.0 868.5Q1054 874 1064 872Q1076 870 1083.0 860.5Q1090 851 1092 827Q1093 821 1094.0 799.5Q1095 778 1095.0 748.0Q1095 718 1092.5 687.5Q1090 657 1084.5 633.0Q1079 609 1068 599Q1060 591 1035.5 588.0Q1011 585 979.0 585.0Q947 585 915.5 587.5Q884 590 859.5 592.5Q835 595 827 597Q802 604 798 622Q794 643 819 656Q829 661 851.0 668.0Q873 675 891.5 681.0Q910 687 911 689Q911 690 897.0 705.5Q883 721 855.5 742.0Q828 763 790 782Q732 809 692.5 808.5Q653 808 629 805Q613 803 596.5 797.5Q580 792 567.5 789.5Q555 787 550 794Z" fill="#02ab47" stroke="none" transform="scale(1,-1) translate(0,-256)" /><path d="M434 -16Q436 -15 452.0 -14.0Q468 -13 487.5 -12.5Q507 -12 519 -11Q539 -10 545.0 1.0Q551 12 547.0 25.0Q543 38 532 44Q528 46 509.0 55.5Q490 65 463.0 77.5Q436 90 407.5 101.0Q379 112 356.0 118.0Q333 124 324 120Q314 117 302.0 93.5Q290 70 277.0 36.5Q264 3 253.0 -30.0Q242 -63 236 -86Q229 -108 239.5 -119.5Q250 -131 266.0 -131.5Q282 -132 292 -121Q296 -116 306.5 -103.0Q317 -90 326.5 -78.5Q336 -67 338 -67Q340 -66 346.5 -80.0Q353 -94 370.0 -115.0Q387 -136 418.0 -158.5Q449 -181 500 -198Q561 -219 613.5 -214.0Q666 -209 705.0 -191.5Q744 -174 764.0 -154.0Q784 -134 778 -122Q773 -114 753.0 -116.0Q733 -118 702.0 -123.0Q671 -128 636.0 -129.5Q601 -131 566 -121Q520 -107 490.0 -83.0Q460 -59 446.5 -39.0Q433 -19 434 -16Z" fill="#02ab47" stroke="none" transform="scale(1,-1) translate(0,-256)" /></svg>