<?xml version="1.0" encoding="utf-8" ?>
<svg baseProfile="full" height="256" version="1.1" width="256" xmlns="http://www.w3.org/2000/svg" xmlns:ev="http://www.w3.org/2001/xml-events" xmlns:xlink="http://www.w3.org/1999/xlink"><defs /><path d="M413 626Q406 636 399.0 650.5Q392 665 404 673Q416 682 426.0 670.5Q436 659 445 644Q455 630 461.0 616.5Q467 603 455 596Q442 588 432.5 600.0Q423 612 413 626Z" fill="#a681cb" stroke="none" transform="scale(1,-1) translate(0,-256)" /><path d="M767 462Q775 481 782.5 492.5Q790 504 803 497Q814 492 812.0 479.5Q810 467 801 450Q793 432 785.5 414.5Q778 397 762 402Q746 407 752.5 425.5Q759 444 767 462Z" fill="#a681cb" stroke="none" transform="scale(1,-1) translate(0,-256)" /></svg>