<?xml version="1.0" encoding="utf-8" ?>
<svg baseProfile="full" height="256" version="1.1" width="256" xmlns="http://www.w3.org/2000/svg" xmlns:ev="http://www.w3.org/2001/xml-events" xmlns:xlink="http://www.w3.org/1999/xlink"><defs /><path d="M972 226Q994 236 1013.5 231.5Q1033 227 1033 227Q1033 227 1037.5 241.0Q1042 255 1047 265Q1054 280 1061.0 280.0Q1068 280 1070 288Q1071 298 1064.0 301.5Q1057 305 1048 302Q1034 298 1028.0 288.0Q1022 278 1020.5 270.0Q1019 262 1019 262Q1019 262 1003.5 265.0Q988 268 959 258Q935 250 920.5 236.5Q906 223 899.5 212.0Q893 201 893 201Q893 201 872.5 210.0Q852 219 814 211Q781 203 765.0 191.5Q749 180 743.5 171.0Q738 162 738 162Q738 162 727.0 168.5Q716 175 698.0 181.0Q680 187 658 186Q636 185 617.5 175.0Q599 165 588.0 155.5Q577 146 577 146Q577 146 567.0 157.5Q557 169 538.0 181.0Q519 193 493 195Q465 197 445.0 188.0Q425 179 425 179Q425 179 416.5 190.5Q408 202 390.0 215.5Q372 229 345 235Q308 243 291.5 237.5Q275 232 275 232Q275 232 267.0 246.5Q259 261 236 271Q227 275 215.0 275.0Q203 275 201 264Q197 247 207.0 244.0Q217 241 231 233Q239 229 247.5 218.0Q256 207 261.5 198.5Q267 190 267 190Q267 190 276.5 194.5Q286 199 301.5 202.0Q317 205 336 200Q355 195 373.5 180.0Q392 165 404.5 152.0Q417 139 417 139Q417 139 429.5 143.0Q442 147 460.0 150.5Q478 154 494 152Q511 149 532.0 137.5Q553 126 568.0 115.5Q583 105 583 105Q583 105 595.5 115.0Q608 125 626.0 135.5Q644 146 661 147Q678 148 698.0 139.5Q718 131 732.0 122.0Q746 113 746 113Q746 113 754.5 126.0Q763 139 779.5 154.0Q796 169 819 175Q839 181 856.5 176.5Q874 172 884.5 166.0Q895 160 895 160Q895 160 906.5 173.0Q918 186 936.0 202.5Q954 219 972 226Z" fill="#d9eff2" stroke="none" transform="scale(1,-1) translate(0,-256)" /></svg>