<?xml version="1.0" encoding="utf-8" ?>
<svg baseProfile="full" height="256" version="1.1" width="256" xmlns="http://www.w3.org/2000/svg" xmlns:ev="http://www.w3.org/2001/xml-events" xmlns:xlink="http://www.w3.org/1999/xlink"><defs /><path d="M460 558Q468 574 476.0 584.5Q484 595 499 588Q510 583 506.5 569.0Q503 555 494 537Q484 517 476.0 507.0Q468 497 454 503Q442 509 446.5 524.5Q451 540 460 558Z" fill="#ed4889" stroke="none" transform="scale(1,-1) translate(0,-256)" /><path d="M541 648Q524 654 519.0 666.0Q514 678 515.0 689.0Q516 700 518 701Q519 702 529.5 708.0Q540 714 550.5 719.5Q561 725 562 725Q563 726 577.0 719.0Q591 712 594 693Q597 672 581.0 656.0Q565 640 541 648Z" fill="#ed4889" stroke="none" transform="scale(1,-1) translate(0,-256)" /><path d="M616 443Q602 452 599.0 464.5Q596 477 598.5 486.5Q601 496 603 497Q604 498 616.0 502.0Q628 506 640.0 509.5Q652 513 653 514Q654 514 665.0 504.5Q676 495 677 476Q677 461 667.0 450.5Q657 440 642.5 437.0Q628 434 616 443Z" fill="#ed4889" stroke="none" transform="scale(1,-1) translate(0,-256)" /><path d="M899 478Q881 482 875.5 493.0Q870 504 870.5 514.5Q871 525 872 526Q873 527 882.0 533.0Q891 539 900.0 544.5Q909 550 910 551Q911 551 923.0 545.5Q935 540 940 523Q946 503 932.0 488.5Q918 474 899 478Z" fill="#ed4889" stroke="none" transform="scale(1,-1) translate(0,-256)" /><path d="M325 475Q310 481 305.5 492.0Q301 503 302.5 513.0Q304 523 305 524Q306 525 316.0 530.5Q326 536 335.5 541.5Q345 547 346 547Q348 548 360.5 541.5Q373 535 377 517Q380 497 363.0 482.0Q346 467 325 475Z" fill="#ed4889" stroke="none" transform="scale(1,-1) translate(0,-256)" /></svg>