<?xml version="1.0" encoding="utf-8" ?>
<svg baseProfile="full" height="256" version="1.1" width="256" xmlns="http://www.w3.org/2000/svg" xmlns:ev="http://www.w3.org/2001/xml-events" xmlns:xlink="http://www.w3.org/1999/xlink"><defs /><path d="M344 213 415 160 488 168 578 130 644 160 735 152 817 186H897L966 233L1063 285L1042 206L1024 140L997 -88Q997 -88 978.0 -106.5Q959 -125 916.5 -149.5Q874 -174 802.5 -192.5Q731 -211 626 -211Q528 -211 465.5 -194.5Q403 -178 368.0 -156.5Q333 -135 319.5 -119.0Q306 -103 306 -103Q306 -103 301.5 -81.5Q297 -60 290.5 -27.5Q284 5 276.5 39.5Q269 74 263.5 102.0Q258 130 256 141Q253 155 245.5 174.0Q238 193 229.0 211.5Q220 230 213.5 242.5Q207 255 207 255L258 223Z" fill="#a9e7ff" stroke="none" transform="scale(1,-1) translate(0,-256)" /></svg>