<?xml version="1.0" encoding="utf-8" ?>
<svg baseProfile="full" height="256" version="1.1" width="256" xmlns="http://www.w3.org/2000/svg" xmlns:ev="http://www.w3.org/2001/xml-events" xmlns:xlink="http://www.w3.org/1999/xlink"><defs /><path d="M1003 542Q999 537 993.0 522.0Q987 507 970 489Q954 470 895.0 439.5Q836 409 716 382Q656 369 599.0 368.5Q542 368 494.0 375.5Q446 383 412.0 392.0Q378 401 364 406Q338 415 318.5 426.0Q299 437 288.5 443.5Q278 450 278 445Q278 437 305.0 412.5Q332 388 373 367Q400 354 446.0 338.5Q492 323 561.0 316.0Q630 309 729 319Q802 326 853.0 344.5Q904 363 935.0 384.0Q966 405 981.0 421.5Q996 438 999 442Q1003 449 1007.0 465.0Q1011 481 1011 496Q1011 511 1007.0 526.5Q1003 542 1003 542Z" fill="#ffcf86" stroke="none" transform="scale(1,-1) translate(0,-256)" /></svg>