<?xml version="1.0" encoding="utf-8" ?>
<svg baseProfile="full" height="256" version="1.1" width="256" xmlns="http://www.w3.org/2000/svg" xmlns:ev="http://www.w3.org/2001/xml-events" xmlns:xlink="http://www.w3.org/1999/xlink"><defs /><path d="M265 177Q265 177 290.5 171.0Q316 165 357.0 155.5Q398 146 444.5 136.5Q491 127 533.5 119.5Q576 112 604 110Q627 109 668.0 116.5Q709 124 758.5 138.0Q808 152 858.0 167.5Q908 183 950.0 197.5Q992 212 1017.5 221.0Q1043 230 1043 230Q1043 230 1049.0 246.5Q1055 263 1062.5 288.0Q1070 313 1072.5 339.5Q1075 366 1067 386Q1056 418 1038.0 430.0Q1020 442 1006.0 444.0Q992 446 992 446L316 448Q316 448 291.0 439.5Q266 431 243 417Q220 403 208.5 379.0Q197 355 197 332Q198 311 208.0 284.5Q218 258 231.5 233.5Q245 209 255.0 193.0Q265 177 265 177Z" fill="#fbb75a" stroke="none" transform="scale(1,-1) translate(0,-256)" /></svg>