<?xml version="1.0" encoding="utf-8" ?>
<svg baseProfile="full" height="256" version="1.1" width="256" xmlns="http://www.w3.org/2000/svg" xmlns:ev="http://www.w3.org/2001/xml-events" xmlns:xlink="http://www.w3.org/1999/xlink"><defs /><path d="M876 748Q887 731 886.0 715.5Q885 700 883 695Q887 690 891.5 675.0Q896 660 882 641Q871 627 875 620Q878 614 883.5 615.0Q889 616 889 616Q889 616 883.5 604.0Q878 592 859 588Q834 583 820.5 591.0Q807 599 802.0 608.5Q797 618 798 619Q809 625 812.0 637.0Q815 649 810.5 658.5Q806 668 796 668Q790 669 787.0 664.0Q784 659 781 653L776 641Q776 641 774.0 640.5Q772 640 768 642Q757 652 755.0 666.5Q753 681 752.0 693.5Q751 706 742 709Q742 709 741.5 709.0Q741 709 740 709Q737 706 734.0 703.5Q731 701 728 699Q719 693 709.0 691.5Q699 690 689 689Q667 685 660.5 676.5Q654 668 654.5 660.5Q655 653 655 653Q624 660 623 692Q623 703 626.0 713.5Q629 724 638 730Q626 748 630.5 759.5Q635 771 643.5 776.5Q652 782 652 782Q652 782 653.5 773.0Q655 764 664 763Q671 762 677 767Q680 769 683.0 772.0Q686 775 689 778Q696 785 704.5 792.0Q713 799 725 803Q758 816 778.5 811.0Q799 806 810.0 795.5Q821 785 824 780Q830 780 846.5 774.0Q863 768 876 748Z" fill="#543930" stroke="none" transform="scale(1,-1) translate(0,-256)" /><path d="M283 751Q272 735 272.5 719.0Q273 703 274 697Q270 692 264.5 677.5Q259 663 273 643Q283 628 279 622Q276 615 270.0 617.0Q264 619 264 619Q264 619 269.5 606.0Q275 593 294 589Q319 583 333.0 590.0Q347 597 352.5 606.5Q358 616 357 617Q346 624 343.5 636.0Q341 648 346.0 657.5Q351 667 361 667Q367 667 370.0 662.0Q373 657 376 651L380 638Q380 638 382.0 637.5Q384 637 387 640Q399 649 402.0 663.5Q405 678 406.5 691.0Q408 704 417 706Q417 706 417.5 706.0Q418 706 419 705Q422 703 425.0 700.0Q428 697 431 695Q439 689 449.5 687.0Q460 685 470 683Q492 679 498.0 669.5Q504 660 503.5 652.5Q503 645 503 645Q535 651 537 684Q537 694 534.5 705.0Q532 716 523 723Q536 740 532.0 752.0Q528 764 519.5 770.0Q511 776 511 776Q511 776 509.5 767.0Q508 758 499 757Q492 757 485 762Q482 764 479.5 767.0Q477 770 474 773Q467 780 459.0 787.5Q451 795 439 800Q406 814 384.5 810.5Q363 807 352.0 797.0Q341 787 338 782Q331 781 314.0 776.0Q297 771 283 751Z" fill="#543930" stroke="none" transform="scale(1,-1) translate(0,-256)" /></svg>