<?xml version="1.0" encoding="utf-8" ?>
<svg baseProfile="full" height="256" version="1.1" width="256" xmlns="http://www.w3.org/2000/svg" xmlns:ev="http://www.w3.org/2001/xml-events" xmlns:xlink="http://www.w3.org/1999/xlink"><defs /><path d="M483 247Q504 237 520.0 218.0Q536 199 536 153Q536 136 535.5 108.5Q535 81 534.5 54.5Q534 28 534.0 9.5Q534 -9 534 -9H475L444 145Q442 156 431 161Q416 167 391.0 176.0Q366 185 340.5 194.0Q315 203 297.5 209.0Q280 215 280 215L305 321Q305 321 321.0 314.5Q337 308 361.5 298.0Q386 288 411.5 277.5Q437 267 457.0 258.5Q477 250 483 247Z" fill="#000000" stroke="none" transform="scale(1,-1) translate(0,-256)" /><path d="M371 169Q381 144 370.5 119.0Q360 94 334 83L164 16L135 75L257 139Q270 146 262 159L223 241L325 282Z" fill="#000000" stroke="none" transform="scale(1,-1) translate(0,-256)" /><path d="M681 461Q685 471 673.5 475.0Q662 479 648 479Q637 479 627.5 477.5Q618 476 612 475Q606 474 587.5 471.0Q569 468 546.0 465.0Q523 462 503.0 459.0Q483 456 476 455L436 469L358 497V495L333 418L402 404L460 393L464 392Q467 391 468 391Q469 391 472 391Q474 391 474 391Q493 391 527.0 399.0Q561 407 595 418Q597 419 599.5 419.5Q602 420 604 421Q615 425 628 430Q629 431 630.0 431.5Q631 432 632 432Q652 440 665.5 447.5Q679 455 681 461Z" fill="#000000" stroke="none" transform="scale(1,-1) translate(0,-256)" /><path d="M628 430 574 464 541 444Q541 444 553.5 432.0Q566 420 579 413Q581 414 591.5 417.5Q602 421 613.0 425.0Q624 429 628 430Z" fill="#000000" stroke="none" transform="scale(1,-1) translate(0,-256)" /><path d="M460 393 436 469 358 497V495L402 404Z" fill="#000000" stroke="none" transform="scale(1,-1) translate(0,-256)" /><path d="M840 501Q850 491 852.0 476.5Q854 462 847 449Q839 433 823 427Q822 427 821 427Q816 425 810 424L699 404Q691 402 684 402Q666 402 649 411L573 448Q566 451 559 448Q533 435 521.5 430.5Q510 426 506.5 427.0Q503 428 501 430Q494 440 505 449L537 478Q538 479 539 479Q540 479 556.5 481.0Q573 483 581 483Q594 484 613.5 482.0Q633 480 651.0 477.0Q669 474 677 473L791 513Q793 514 793 514H794Q794 515 795 515Q822 521 840 501Z" fill="#000000" stroke="none" transform="scale(1,-1) translate(0,-256)" /><path d="M920 207 745 130 786 -9 724 -21Q724 -21 716.0 -5.0Q708 11 696.5 34.5Q685 58 674.0 81.5Q663 105 657 120Q646 148 655.0 171.5Q664 195 686 207L876 310Z" fill="#000000" stroke="none" transform="scale(1,-1) translate(0,-256)" /><path d="M976 150 1142 92 1122 43 932 70Q928 70 924 71H922V72Q909 76 900 85Q893 92 889 102V103L809 303L923 344Z" fill="#000000" stroke="none" transform="scale(1,-1) translate(0,-256)" /><path d="M951 277Q951 277 955.0 261.0Q959 245 964.5 224.5Q970 204 974 190Q919 166 861 145Q849 161 839.0 183.5Q829 206 824 223Q813 230 807.5 244.5Q802 259 801 274Q799 318 792.0 350.0Q785 382 775 429Q771 451 773.5 474.0Q776 497 790.5 514.0Q805 531 836 534Q840 534 843 534Q867 534 882.5 522.0Q898 510 907.0 495.0Q916 480 921 470Q958 389 955 304Q955 288 951 277Z" fill="#000000" stroke="none" transform="scale(1,-1) translate(0,-256)" /><path d="M375 433Q360 391 358.5 348.0Q357 305 354 266Q353 252 349 242Q355 230 359.5 219.0Q364 208 367 201Q312 173 256 150Q250 162 235.0 187.0Q220 212 207.5 241.0Q195 270 195 295Q195 337 205.5 383.5Q216 430 236 470Q250 501 270.0 519.5Q290 538 317 538Q323 538 328 537Q335 535 347.5 531.5Q360 528 374 515Q383 507 386.0 485.5Q389 464 375 433Z" fill="#000000" stroke="none" transform="scale(1,-1) translate(0,-256)" /><path d="M667 318Q669 315 668 312Q668 312 668.0 312.0Q668 312 668 312Q667 304 654 301Q657 300 658 299Q660 297 660 294Q658 284 640 282Q648 280 650 277Q652 275 651 273Q649 267 641.0 265.0Q633 263 621 263Q596 263 570 270L564 271Q558 273 552.0 274.5Q546 276 542 278Q541 278 540 278L403 317Q374 325 358 350L302 437Q298 441 296 446Q295 446 295 447Q287 463 292 480Q296 494 307.5 503.5Q319 513 333 514Q360 516 375 493Q376 492 376 492V491Q376 491 377 490L423 403Q431 387 448 381L540 350Q543 350 543 350Q548 350 559.0 351.5Q570 353 575 355Q584 359 596.5 361.5Q609 364 613 359Q614 358 615.0 355.0Q616 352 613 348Q610 344 604.5 341.5Q599 339 594 336Q594 336 593.5 336.0Q593 336 593 336Q598 335 603.0 334.5Q608 334 610 335Q613 334 617.5 334.5Q622 335 627 336Q640 338 649.5 338.0Q659 338 660 332Q662 328 660 324Q658 322 656 321Q664 320 667 318Z" fill="#000000" stroke="none" transform="scale(1,-1) translate(0,-256)" /><path d="M875 471Q876 458 871 447Q871 447 870 446Q867 440 863 435L793 339Q788 328 776 323Q776 323 775 323Q774 322 774 322L771 321Q769 321 768 320L626 277Q625 277 624 277Q619 275 613.5 273.5Q608 272 601 270L596 269Q569 262 545 262Q533 262 524.5 264.0Q516 266 515 272Q514 274 515 276Q517 279 523 281Q524 281 525 281Q525 281 524.5 281.0Q524 281 524 281Q507 284 506 293Q506 296 507 298Q508 299 509 299Q510 300 511 300Q511 300 511.0 300.0Q511 300 511 300Q499 304 497 312Q497 315 499 317Q501 319 505 319Q507 320 510 320Q507 321 506 323Q504 327 505 331Q507 337 516.5 337.0Q526 337 539 335Q544 334 548.5 334.0Q553 334 555 334Q558 334 563.0 334.0Q568 334 573 335Q573 335 572.5 335.0Q572 335 572 335Q566 338 561.0 340.5Q556 343 553 347Q550 351 551.0 354.0Q552 357 553 358Q557 363 569.5 361.0Q582 359 591 354Q596 352 607.0 350.5Q618 349 623 349Q624 349 626 349L735 386L788 488Q789 490 790 491Q790 492 791 492Q803 511 825 513Q845 514 859 502Q874 490 875 471Z" fill="#000000" stroke="none" transform="scale(1,-1) translate(0,-256)" /><path d="M714.5117950439453 589.1358947753906Q716.469482421875 583.7618865966797 717.2779846191406 568.9512252807617Q718.0864868164062 554.1405639648438 705.5019378662109 536.9023895263672Q695.7599182128906 524.2751617431641 697.4034881591797 516.9259643554688Q697.4034881591797 516.9259643554688 698.1179885864258 514.7872619628906Q698.8324890136719 512.6485595703125 700.0469207763672 511.4429473876953Q702.6328430175781 510.0193176269531 704.504264831543 510.73439025878906Q706.3756866455078 511.449462890625 706.3756866455078 511.449462890625Q706.3756866455078 511.449462890625 695.4114990234375 506.61072540283203Q684.4473114013672 501.77198791503906 675.3600921630859 515.3672637939453Q668.544677734375 525.563720703125 669.8221664428711 538.0176620483398Q671.0996551513672 550.4716033935547 675.8346252441406 560.3508071899414Q680.5695953369141 570.2300109863281 685.5268707275391 570.4545440673828Q703.1416778564453 570.6921081542969 708.9052658081055 580.4077987670898Q714.6688537597656 590.1234893798828 714.5117950439453 589.1358947753906Z" fill="#000000" stroke="none" transform="scale(1,-1) translate(0,-256)" /><path d="M413.65716552734375 932.928466796875Q427.09783935546875 920.6268920898438 432.8433837890625 901.4534912109375Q435.0166473388672 892.6838989257812 435.9032669067383 884.0011291503906Q436.7898864746094 875.318359375 433.4918212890625 867.8418579101562Q429.11949157714844 861.0537719726562 424.1976623535156 858.3062744140625Q419.2758331298828 855.5587768554688 416.1777801513672 852.3802490234375Q415.0787811279297 860.46142578125 410.2322235107422 867.2556762695312Q405.3856658935547 874.0499267578125 400.5391082763672 880.8441772460938Q394.1935272216797 887.1236572265625 387.8479461669922 893.4031372070312Q381.5023651123047 899.6826171875 374.7320251464844 904.7589111328125Q376.6310729980469 913.86962890625 375.31969451904297 921.3492126464844Q374.00831604003906 928.8287963867188 373.6835632324219 929.7745971679688Q371.6103057861328 940.6931762695312 364.29046630859375 949.81005859375Q366.53900146484375 950.5822143554688 369.48704528808594 950.5372619628906Q372.4350891113281 950.4923095703125 373.9341125488281 951.007080078125Q394.94517517089844 950.8211059570312 413.65716552734375 932.928466796875Z" fill="#000000" stroke="none" transform="scale(1,-1) translate(0,-256)" /><path d="M581.5352935791016 818.7871704101562Q581.7929840087891 818.0810852050781 581.5599899291992 805.5937347412109Q581.3269958496094 793.1063842773438 564.3432922363281 781.3058776855469Q555.9802856445312 775.0525817871094 544.2380752563477 770.7663879394531Q532.4958648681641 766.4801940917969 523.3597869873047 762.3451538085938Q514.4813995361328 757.5040283203125 511.75465393066406 753.30810546875Q509.0279083251953 749.1121826171875 503.74072265625 743.1814880371094Q496.8324737548828 735.8589172363281 487.8252410888672 731.3708343505859Q478.81800842285156 726.8827514648438 469.6819305419922 722.7477111816406Q450.04640197753906 712.3796691894531 446.13082122802734 704.1491241455078Q442.2152404785156 695.9185791015625 444.6176071166992 690.7943878173828Q447.0199737548828 685.6701965332031 447.0199737548828 685.6701965332031Q416.095458984375 679.9830322265625 406.9099884033203 702.23486328125Q404.3330841064453 709.2957153320312 404.3166198730469 718.0913391113281Q404.30015563964844 726.886962890625 411.2084045410156 734.2095336914062Q395.2974548339844 742.8043212890625 396.5612106323242 752.4673309326172Q397.82496643066406 762.1303405761719 404.39237213134766 768.9284210205078Q410.95977783203125 775.7265014648438 410.95977783203125 775.7265014648438Q410.95977783203125 775.7265014648438 414.6880569458008 769.8860778808594Q418.4163360595703 764.045654296875 427.12841796875 766.4256286621094Q433.9617462158203 768.1198120117188 438.30955505371094 773.7076110839844Q440.6123046875 776.1484680175781 442.65736389160156 779.29541015625Q444.7024230957031 782.4423522949219 446.7474822998047 785.5892944335938Q451.7769775390625 792.22607421875 457.8290023803711 800.4363250732422Q463.8810272216797 808.6465759277344 474.12278747558594 815.5856628417969Q488.5460510253906 825.6513977050781 505.40914154052734 833.4071350097656Q522.2722320556641 841.1628723144531 540.3031616210938 841.3434143066406Q556.1976470947266 841.5442504882812 568.2140121459961 836.3287353515625Q580.2303771972656 831.1132202148438 581.5352935791016 818.7871704101562Z" fill="#000000" stroke="none" transform="scale(1,-1) translate(0,-256)" /><path d="M863.7359619140625 350.2696228027344Q879.3397827148438 342.3629150390625 894.0236282348633 345.4493713378906Q908.7074737548828 348.53582763671875 908.7074737548828 348.53582763671875Q908.7074737548828 348.53582763671875 902.8071517944336 341.1222229003906Q896.9068298339844 333.7086181640625 877.7972259521484 332.14373779296875Q852.6619567871094 330.2536315917969 839.4526748657227 336.10235595703125Q826.2433929443359 341.9510803222656 821.5733032226562 348.3140411376953Q816.9032135009766 354.677001953125 817.9358215332031 355.2662048339844Q831.1557464599609 359.0738525390625 833.7309112548828 369.8822326660156Q844.5796508789062 366.7334899902344 850.2653503417969 360.63873291015625Q855.9510498046875 354.5439758300781 863.7359619140625 350.2696228027344Z" fill="#000000" stroke="none" transform="scale(1,-1) translate(0,-256)" /><path d="M-268.6087646484375 671.7616271972656Q-265.2791748046875 667.1108551025391 -259.7746276855469 652.6439819335938Q-254.27008056640625 638.1771087646484 -261.64813232421875 617.1991424560547Q-266.83673095703125 601.5052490234375 -263.39312744140625 595.8609924316406Q-263.39312744140625 595.8609924316406 -262.1302795410156 593.9927673339844Q-260.867431640625 592.1245422363281 -258.68377685546875 591.3685455322266Q-255.92425537109375 591.6851959228516 -254.65850830078125 592.8370056152344Q-253.39276123046875 593.9888153076172 -253.39276123046875 593.9888153076172Q-253.39276123046875 593.9888153076172 -257.4209289550781 589.5003204345703Q-261.4490966796875 585.0118255615234 -268.5218200683594 582.6903915405273Q-275.59454345703125 580.3689575195312 -284.0953369140625 587.446044921875Q-293.2860107421875 594.4439697265625 -296.14794921875 607.2009429931641Q-299.0098876953125 619.9579162597656 -297.1025695800781 630.745735168457Q-295.19525146484375 641.5335540771484 -290.5941162109375 644.0746612548828Q-273.68914794921875 649.0341796875 -271.1489562988281 660.3979034423828Q-268.6087646484375 671.7616271972656 -268.6087646484375 671.7616271972656Z" fill="#000000" stroke="none" transform="scale(1,-1) translate(0,-256)" /><path d="M65.72645568847656 781.0120849609375Q67.99267578125 762.9329528808594 60.68310546875 744.3166198730469Q57.75927734375 736.8700866699219 52.44316864013672 728.7514343261719Q47.12705993652344 720.6327819824219 40.13629150390625 718.0061950683594Q32.78004455566406 714.4487915039062 26.69963836669922 715.2248840332031Q20.619232177734375 716.0009765625 17.303253173828125 716.2287292480469Q20.964706420898438 723.3856201171875 21.6756591796875 731.7010803222656Q22.386611938476562 740.0165405273438 21.994461059570312 747.6908264160156Q21.23016357421875 756.5855712890625 20.09705352783203 765.6251373291016Q18.963943481445312 774.6647033691406 15.993438720703125 782.277099609375Q23.70849609375 788.9165954589844 27.369949340820312 796.073486328125Q31.031402587890625 803.2303771972656 31.031402587890625 803.2303771972656Q36.89239501953125 813.8208923339844 36.121429443359375 824.8669128417969Q38.69978332519531 824.9288024902344 41.28480529785156 822.8394165039062Q43.86982727050781 820.7500305175781 45.34507751464844 820.1707458496094Q62.33045959472656 807.0551452636719 65.72645568847656 781.0120849609375Z" fill="#000000" stroke="none" transform="scale(1,-1) translate(0,-256)" /><path d="M-89.81843566894531 655.0169525146484Q-90.10653686523438 654.3226318359375 -98.41061401367188 644.7467651367188Q-106.71469116210938 635.1708984375 -126.56817626953125 636.8993377685547Q-136.95672607421875 637.9552154541016 -148.64595794677734 642.3995056152344Q-160.33518981933594 646.8437957763672 -171.07115173339844 649.671630859375Q-179.9598846435547 651.7328338623047 -184.95079803466797 650.1416549682617Q-189.94171142578125 648.5504760742188 -197.84751892089844 647.7620849609375Q-206.9650421142578 646.6626892089844 -217.23919677734375 649.2988662719727Q-227.5133514404297 651.9350433349609 -237.32569885253906 654.3795623779297Q-258.79762268066406 660.0352325439453 -267.0762710571289 655.7390823364258Q-275.35491943359375 651.4429321289062 -277.05387115478516 646.0438690185547Q-278.75282287597656 640.6448059082031 -278.75282287597656 640.6448059082031Q-306.5798797607422 657.0768432617188 -298.9197692871094 680.7560577392578Q-296.9623718261719 688.0825805664062 -291.0224151611328 694.5701599121094Q-285.08245849609375 701.0577392578125 -274.7532196044922 702.4681396484375Q-281.86248779296875 719.2546997070312 -274.7108154296875 726.0532836914062Q-267.55914306640625 732.8518676757812 -257.9798126220703 733.7596054077148Q-248.40048217773438 734.6673431396484 -248.40048217773438 734.6673431396484Q-248.40048217773438 734.6673431396484 -249.60797119140625 727.8434829711914Q-250.81546020507812 721.0196228027344 -242.79103088378906 716.8754577636719Q-236.3257293701172 714.1922454833984 -228.419921875 714.9806365966797Q-225.0728759765625 715.2193298339844 -221.8995361328125 716.3440017700195Q-218.7261962890625 717.4686737060547 -215.09104919433594 718.4016876220703Q-206.60903930664062 720.5787200927734 -197.05936431884766 722.719596862793Q-187.5096893310547 724.8604736328125 -174.98580932617188 723.7322845458984Q-156.97955322265625 722.7704772949219 -138.71062469482422 717.223274230957Q-120.44169616699219 711.6760711669922 -106.12144470214844 699.2218170166016Q-93.99583435058594 689.30615234375 -88.21690368652344 677.1411437988281Q-82.43797302246094 664.9761352539062 -89.81843566894531 655.0169525146484Z" fill="#000000" stroke="none" transform="scale(1,-1) translate(0,-256)" /><path d="M-313.7455749511719 393.0597839355469Q-296.67921447753906 386.14984130859375 -282.2226028442383 390.78775787353516Q-267.7659912109375 395.42567443847656 -267.7659912109375 395.42567443847656Q-267.7659912109375 395.42567443847656 -273.18639373779297 387.01610565185547Q-278.60679626464844 378.6065368652344 -297.5815124511719 375.8544464111328Q-322.5437469482422 371.75958251953125 -336.58583068847656 376.12657165527344Q-350.62791442871094 380.4935607910156 -356.1856460571289 386.54852294921875Q-361.7433776855469 392.6034851074219 -360.74952697753906 393.255859375Q-346.7989959716797 398.5318908691406 -346.9088592529297 410.103515625Q-334.88499450683594 407.6461181640625 -328.33036041259766 401.9220962524414Q-321.7757263183594 396.1980743408203 -313.7455749511719 393.0597839355469Z" fill="#000000" stroke="none" transform="scale(1,-1) translate(0,-256)" /></svg>