<?xml version="1.0" encoding="utf-8" ?>
<svg baseProfile="full" height="256" version="1.1" width="256" xmlns="http://www.w3.org/2000/svg" xmlns:ev="http://www.w3.org/2001/xml-events" xmlns:xlink="http://www.w3.org/1999/xlink"><defs /><path d="M959 256Q965 256 970.0 239.0Q975 222 980.0 195.0Q985 168 991.0 136.5Q997 105 1005 76Q1014 45 1031.0 9.5Q1048 -26 1065.5 -57.5Q1083 -89 1094.5 -109.5Q1106 -130 1103 -132Q1100 -133 1084.5 -119.0Q1069 -105 1048.0 -77.5Q1027 -50 1006.0 -12.5Q985 25 973 70Q947 161 949.0 208.0Q951 255 959 256Z" fill="#ab5731" stroke="none" transform="scale(1,-1) translate(0,-256)" /><path d="M862 50Q858 54 863.0 66.5Q868 79 877.5 95.0Q887 111 897.0 125.0Q907 139 912 146Q922 158 934.0 170.5Q946 183 955.0 191.5Q964 200 964 200Q964 200 985.5 190.5Q1007 181 1032 168Q1048 159 1068.0 144.5Q1088 130 1102.0 117.0Q1116 104 1113 100Q1108 94 1081.0 106.5Q1054 119 1025 132Q1003 141 986.0 149.0Q969 157 969 157Q969 157 958.0 145.0Q947 133 932 116Q919 102 903.5 86.0Q888 70 876.0 59.5Q864 49 862 50Z" fill="#ab5731" stroke="none" transform="scale(1,-1) translate(0,-256)" /><path d="M1005 51Q1014 52 1030.5 39.5Q1047 27 1061 15Q1071 6 1083.5 -9.0Q1096 -24 1104.5 -37.5Q1113 -51 1110 -54Q1108 -57 1092.5 -47.0Q1077 -37 1058.5 -22.5Q1040 -8 1026.0 3.5Q1012 15 1012 15Q1012 15 1006.0 -4.5Q1000 -24 991.5 -49.5Q983 -75 975.5 -93.5Q968 -112 965 -111Q960 -109 960.5 -94.0Q961 -79 963 -57Q965 -43 971.0 -17.5Q977 8 985.5 29.0Q994 50 1005 51Z" fill="#ab5731" stroke="none" transform="scale(1,-1) translate(0,-256)" /></svg>