<?xml version="1.0" encoding="utf-8" ?>
<svg baseProfile="full" height="256" version="1.1" width="256" xmlns="http://www.w3.org/2000/svg" xmlns:ev="http://www.w3.org/2001/xml-events" xmlns:xlink="http://www.w3.org/1999/xlink"><defs /><path d="M605 719Q605 719 583.0 724.0Q561 729 523.5 726.0Q486 723 438 701Q391 679 364.5 646.0Q338 613 323.5 579.5Q309 546 295 521Q279 493 263.5 479.0Q248 465 238.5 458.5Q229 452 228 447Q228 442 236.5 433.0Q245 424 254.0 414.5Q263 405 263 398Q263 392 257.0 376.0Q251 360 242.0 342.5Q233 325 226 313Q211 287 194.0 270.0Q177 253 178 242Q178 236 188.0 228.0Q198 220 207.5 214.0Q217 208 217 208Q217 208 202.0 179.5Q187 151 158 118Q132 88 103.5 64.5Q75 41 69 32Q62 21 77.0 16.0Q92 11 108 8Q119 5 150.5 2.5Q182 0 227.0 2.0Q272 4 325 16Q371 27 405.5 42.5Q440 58 461.0 70.0Q482 82 486 82Q489 82 504.5 76.0Q520 70 535.0 64.0Q550 58 553 57Q560 55 568.0 63.5Q576 72 583.5 85.0Q591 98 597 109Q604 124 634.0 154.0Q664 184 706 229Q734 259 757.0 302.5Q780 346 792.0 399.0Q804 452 799 512Q793 566 772.0 601.5Q751 637 725.0 657.5Q699 678 680.5 686.5Q662 695 662 695Q662 695 666.5 709.5Q671 724 675 736Q680 747 688.5 762.0Q697 777 710 791Q719 801 735.0 812.5Q751 824 764.5 833.5Q778 843 780 848Q782 854 763.5 869.5Q745 885 723 895Q701 904 676.5 908.5Q652 913 650 908Q649 906 650.0 892.5Q651 879 653.0 862.5Q655 846 656.5 833.5Q658 821 658 821Q658 821 647.0 806.0Q636 791 627 773Q617 750 611.0 734.5Q605 719 605 719Z" fill="#c36639" stroke="none" transform="scale(1,-1) translate(0,-256)" /></svg>