<?xml version="1.0" encoding="utf-8" ?>
<svg baseProfile="full" height="256" version="1.1" width="256" xmlns="http://www.w3.org/2000/svg" xmlns:ev="http://www.w3.org/2001/xml-events" xmlns:xlink="http://www.w3.org/1999/xlink"><defs /><path d="M497 109Q497 103 506.5 103.0Q516 103 516 109V835Q516 841 506.5 841.0Q497 841 497 835ZM594 190Q594 184 585.0 183.5Q576 183 576 190V800Q576 806 585.0 806.0Q594 806 594 800ZM664 261Q664 255 655.0 255.0Q646 255 645 261V719Q645 726 654.5 726.0Q664 726 664 719ZM736 337Q736 331 726.5 331.0Q717 331 717 337V661Q717 668 726.5 668.0Q736 668 736 661ZM813 415Q813 409 803.5 408.5Q794 408 794 414V638Q794 644 803.5 644.0Q813 644 813 638ZM887 493Q887 488 877.5 488.0Q868 488 868 493V656Q868 662 877.5 662.0Q887 662 887 656Z" fill="#6ca4ae" stroke="none" transform="scale(1,-1) translate(0,-256)" /></svg>