<?xml version="1.0" encoding="utf-8" ?>
<svg baseProfile="full" height="256" version="1.1" width="256" xmlns="http://www.w3.org/2000/svg" xmlns:ev="http://www.w3.org/2001/xml-events" xmlns:xlink="http://www.w3.org/1999/xlink"><defs /><path d="M428 -4Q428 -4 448.5 18.0Q469 40 504.5 77.5Q540 115 584.0 162.0Q628 209 675.5 259.5Q723 310 768.0 358.0Q813 406 849.0 444.5Q885 483 907.5 507.0Q930 531 932 534Q940 543 929.0 544.5Q918 546 910 538Q908 536 886.0 514.0Q864 492 827.5 456.0Q791 420 746.5 375.5Q702 331 654.5 284.5Q607 238 563.0 194.0Q519 150 483.5 115.0Q448 80 427.5 59.5Q407 39 407 39Z" fill="#df7f14" stroke="none" transform="scale(1,-1) translate(0,-256)" /></svg>