<?xml version="1.0" encoding="utf-8" ?>
<svg baseProfile="full" height="256" version="1.1" width="256" xmlns="http://www.w3.org/2000/svg" xmlns:ev="http://www.w3.org/2001/xml-events" xmlns:xlink="http://www.w3.org/1999/xlink"><defs /><path d="M529.6345825195312 845.9421691894531Q529.6345825195312 850.7822570800781 527.8195495605469 855.017333984375Q526.0045166015625 859.2524108886719 522.7858581542969 862.4710693359375Q519.5671997070312 865.6897277832031 515.3321228027344 867.5047607421875Q511.0970458984375 869.3197937011719 506.20855712890625 869.3197937011719Q501.36846923828125 869.3197937011719 497.1333923339844 867.5047607421875Q492.8983154296875 865.6897277832031 489.6796569824219 862.4710693359375Q486.46099853515625 859.2524108886719 484.6459655761719 855.017333984375Q482.8309326171875 850.7822570800781 482.8309326171875 845.9421691894531Q482.8309326171875 841.0536804199219 484.6459655761719 836.818603515625Q486.46099853515625 832.5835266113281 489.6796569824219 829.3648681640625Q492.8983154296875 826.1462097167969 497.1333923339844 824.3311767578125Q501.36846923828125 822.5161437988281 506.20855712890625 822.5161437988281Q511.0970458984375 822.5161437988281 515.3321228027344 824.3311767578125Q519.5671997070312 826.1462097167969 522.7858581542969 829.3648681640625Q526.0045166015625 832.5835266113281 527.8195495605469 836.818603515625Q529.6345825195312 841.0536804199219 529.6345825195312 845.9421691894531Z" fill="#464c50" stroke="none" transform="scale(1,-1) translate(0,-256)" /><path d="M607.481201171875 806.5789794921875Q607.481201171875 811.2283325195312 605.7376937866211 815.296516418457Q603.9941864013672 819.3647003173828 600.9023666381836 822.4565200805664Q597.810546875 825.54833984375 593.7423629760742 827.2918472290039Q589.6741790771484 829.0353546142578 584.9783325195312 829.0353546142578Q580.3289794921875 829.0353546142578 576.2607955932617 827.2918472290039Q572.1926116943359 825.54833984375 569.1007919311523 822.4565200805664Q566.0089721679688 819.3647003173828 564.2654647827148 815.296516418457Q562.5219573974609 811.2283325195312 562.5219573974609 806.5789794921875Q562.5219573974609 801.8831329345703 564.2654647827148 797.8149490356445Q566.0089721679688 793.7467651367188 569.1007919311523 790.6549453735352Q572.1926116943359 787.5631256103516 576.2607955932617 785.8196182250977Q580.3289794921875 784.0761108398438 584.9783325195312 784.0761108398438Q589.6741790771484 784.0761108398438 593.7423629760742 785.8196182250977Q597.810546875 787.5631256103516 600.9023666381836 790.6549453735352Q603.9941864013672 793.7467651367188 605.7376937866211 797.8149490356445Q607.481201171875 801.8831329345703 607.481201171875 806.5789794921875Z" fill="#464c50" stroke="none" transform="scale(1,-1) translate(0,-256)" /><path d="M677.793701171875 730.6414794921875Q677.793701171875 735.2908325195312 676.0501937866211 739.359016418457Q674.3066864013672 743.4272003173828 671.2148666381836 746.5190200805664Q668.123046875 749.61083984375 664.0548629760742 751.3543472290039Q659.9866790771484 753.0978546142578 655.2908325195312 753.0978546142578Q650.6414794921875 753.0978546142578 646.5732955932617 751.3543472290039Q642.5051116943359 749.61083984375 639.4132919311523 746.5190200805664Q636.3214721679688 743.4272003173828 634.5779647827148 739.359016418457Q632.8344573974609 735.2908325195312 632.8344573974609 730.6414794921875Q632.8344573974609 725.9456329345703 634.5779647827148 721.8774490356445Q636.3214721679688 717.8092651367188 639.4132919311523 714.7174453735352Q642.5051116943359 711.6256256103516 646.5732955932617 709.8821182250977Q650.6414794921875 708.1386108398438 655.2908325195312 708.1386108398438Q659.9866790771484 708.1386108398438 664.0548629760742 709.8821182250977Q668.123046875 711.6256256103516 671.2148666381836 714.7174453735352Q674.3066864013672 717.8092651367188 676.0501937866211 721.8774490356445Q677.793701171875 725.9456329345703 677.793701171875 730.6414794921875Z" fill="#464c50" stroke="none" transform="scale(1,-1) translate(0,-256)" /><path d="M747.1518249511719 667.8206634521484Q747.1518249511719 672.0809173583984 745.5542297363281 675.8086395263672Q743.9566345214844 679.5363616943359 741.1235656738281 682.3694305419922Q738.2904968261719 685.2024993896484 734.5627746582031 686.8000946044922Q730.8350524902344 688.3976898193359 726.5321960449219 688.3976898193359Q722.2719421386719 688.3976898193359 718.5442199707031 686.8000946044922Q714.8164978027344 685.2024993896484 711.9834289550781 682.3694305419922Q709.1503601074219 679.5363616943359 707.5527648925781 675.8086395263672Q705.9551696777344 672.0809173583984 705.9551696777344 667.8206634521484Q705.9551696777344 663.5178070068359 707.5527648925781 659.7900848388672Q709.1503601074219 656.0623626708984 711.9834289550781 653.2292938232422Q714.8164978027344 650.3962249755859 718.5442199707031 648.7986297607422Q722.2719421386719 647.2010345458984 726.5321960449219 647.2010345458984Q730.8350524902344 647.2010345458984 734.5627746582031 648.7986297607422Q738.2904968261719 650.3962249755859 741.1235656738281 653.2292938232422Q743.9566345214844 656.0623626708984 745.5542297363281 659.7900848388672Q747.1518249511719 663.5178070068359 747.1518249511719 667.8206634521484Z" fill="#464c50" stroke="none" transform="scale(1,-1) translate(0,-256)" /><path d="M823.1233520507812 648.1450805664062Q823.1233520507812 652.214599609375 821.597282409668 655.7754287719727Q820.0712127685547 659.3362579345703 817.3649826049805 662.0424880981445Q814.6587524414062 664.7487182617188 811.0979232788086 666.274787902832Q807.5370941162109 667.8008575439453 803.4268798828125 667.8008575439453Q799.3573608398438 667.8008575439453 795.7965316772461 666.274787902832Q792.2357025146484 664.7487182617188 789.5294723510742 662.0424880981445Q786.8232421875 659.3362579345703 785.2971725463867 655.7754287719727Q783.7711029052734 652.214599609375 783.7711029052734 648.1450805664062Q783.7711029052734 644.0348663330078 785.2971725463867 640.4740371704102Q786.8232421875 636.9132080078125 789.5294723510742 634.2069778442383Q792.2357025146484 631.5007476806641 795.7965316772461 629.9746780395508Q799.3573608398438 628.4486083984375 803.4268798828125 628.4486083984375Q807.5370941162109 628.4486083984375 811.0979232788086 629.9746780395508Q814.6587524414062 631.5007476806641 817.3649826049805 634.2069778442383Q820.0712127685547 636.9132080078125 821.597282409668 640.4740371704102Q823.1233520507812 644.0348663330078 823.1233520507812 648.1450805664062Z" fill="#464c50" stroke="none" transform="scale(1,-1) translate(0,-256)" /><path d="M897.1858520507812 662.2075805664062Q897.1858520507812 666.277099609375 895.659782409668 669.8379287719727Q894.1337127685547 673.3987579345703 891.4274826049805 676.1049880981445Q888.7212524414062 678.8112182617188 885.1604232788086 680.337287902832Q881.5995941162109 681.8633575439453 877.4893798828125 681.8633575439453Q873.4198608398438 681.8633575439453 869.8590316772461 680.337287902832Q866.2982025146484 678.8112182617188 863.5919723510742 676.1049880981445Q860.8857421875 673.3987579345703 859.3596725463867 669.8379287719727Q857.8336029052734 666.277099609375 857.8336029052734 662.2075805664062Q857.8336029052734 658.0973663330078 859.3596725463867 654.5365371704102Q860.8857421875 650.9757080078125 863.5919723510742 648.2694778442383Q866.2982025146484 645.5632476806641 869.8590316772461 644.0371780395508Q873.4198608398438 642.5111083984375 877.4893798828125 642.5111083984375Q881.5995941162109 642.5111083984375 885.1604232788086 644.0371780395508Q888.7212524414062 645.5632476806641 891.4274826049805 648.2694778442383Q894.1337127685547 650.9757080078125 895.659782409668 654.5365371704102Q897.1858520507812 658.0973663330078 897.1858520507812 662.2075805664062Z" fill="#464c50" stroke="none" transform="scale(1,-1) translate(0,-256)" /></svg>