<?xml version="1.0" encoding="utf-8" ?>
<svg baseProfile="full" height="256" version="1.1" width="256" xmlns="http://www.w3.org/2000/svg" xmlns:ev="http://www.w3.org/2001/xml-events" xmlns:xlink="http://www.w3.org/1999/xlink"><defs /><path d="M710.0755310058594 632.9259643554688Q710.0755310058594 663.8690032958984 688.2020034790039 685.2090301513672Q666.3284759521484 706.5490570068359 636.4524383544922 706.5490570068359Q606.5764007568359 706.5490570068359 585.2363739013672 685.2090301513672Q563.8963470458984 663.8690032958984 563.8963470458984 632.9259643554688Q563.8963470458984 603.0499267578125 585.2363739013672 581.7098999023438Q606.5764007568359 560.369873046875 636.4524383544922 560.369873046875Q666.3284759521484 560.369873046875 688.2020034790039 581.7098999023438Q710.0755310058594 603.0499267578125 710.0755310058594 632.9259643554688Z" fill="#fafafa" stroke="none" transform="scale(1,-1) translate(0,-256)" /><path d="M766 334Q766 334 765.5 334.0Q765 334 765 334Q756 338 751.5 347.0Q747 356 750 365L774 446Q776 451 771 453L725 472Q723 472 722 472Q716 472 716 466V270L721 199Q722 189 728 180L821 44Q836 25 820 6Q817 2 813 -1Q803 -8 790.5 -5.5Q778 -3 771 8L668 155Q664 163 661 172Q653 211 653 251Q653 251 653.0 251.0Q653 251 653 251Q653 262 641 262H632Q626 262 623 257L562 182Q557 176 559 169L591 41Q591 40 591.0 40.0Q591 40 591 40Q594 27 587.5 16.0Q581 5 568 2Q568 2 567 2Q555 -1 544.0 5.5Q533 12 531 25L494 172Q487 189 499 203L564 283Q569 289 569 297L571 434Q571 439 568.0 439.0Q565 439 563 434L533 372Q531 366 527 363H526Q524 363 522 361Q522 361 521.0 360.5Q520 360 520 360Q520 360 518 359L407 328Q404 326 400 326Q390 327 383.0 334.0Q376 341 376 351Q377 369 395 374L485 400Q495 403 500 412Q505 422 514.5 439.0Q524 456 534.0 475.0Q544 494 552.5 508.5Q561 523 565 527Q585 549 636 549Q671 548 703.0 539.0Q735 530 759.5 517.5Q784 505 798.5 496.0Q813 487 813 487Q823 481 827.0 470.0Q831 459 827 448L797 350Q793 341 784.5 336.0Q776 331 766 334Z" fill="#fafafa" stroke="none" transform="scale(1,-1) translate(0,-256)" /></svg>