<?xml version="1.0" encoding="utf-8" ?>
<svg baseProfile="full" height="256" version="1.1" width="256" xmlns="http://www.w3.org/2000/svg" xmlns:ev="http://www.w3.org/2001/xml-events" xmlns:xlink="http://www.w3.org/1999/xlink"><defs /><path d="M693.7513122558594 350.00213623046875Q693.7513122558594 361.60284423828125 689.4010467529297 371.803466796875Q685.05078125 382.00408935546875 677.3003082275391 389.7545623779297Q669.5498352050781 397.5050354003906 659.3492126464844 401.9053039550781Q649.1485900878906 406.3055725097656 637.5478820800781 406.3055725097656Q625.84716796875 406.3055725097656 615.6465454101562 401.9053039550781Q605.4459228515625 397.5050354003906 597.6954498291016 389.7545623779297Q589.9449768066406 382.00408935546875 585.5947113037109 371.803466796875Q581.2444458007812 361.60284423828125 581.2444458007812 350.00213623046875Q581.2444458007812 338.40142822265625 585.5947113037109 328.2008056640625Q589.9449768066406 318.00018310546875 597.6954498291016 310.2497100830078Q605.4459228515625 302.4992370605469 615.6465454101562 298.1489715576172Q625.84716796875 293.7987060546875 637.5478820800781 293.7987060546875Q649.1485900878906 293.7987060546875 659.3492126464844 298.1489715576172Q669.5498352050781 302.4992370605469 677.3003082275391 310.2497100830078Q685.05078125 318.00018310546875 689.4010467529297 328.2008056640625Q693.7513122558594 338.40142822265625 693.7513122558594 350.00213623046875Z" fill="#fafafa" stroke="none" transform="scale(1,-1) translate(0,-256)" /><path d="M912 350 1042 139Q1043 137 1043 133Q1043 124 1034 125H775L646 -95Q645 -97 643 -98Q635 -103 630 -95L501 125H242Q239 125 237 126Q229 131 233 139L363 350L233 561Q232 563 232 566Q233 575 242 575H500L629 795Q630 797 632 798Q640 803 645 795L775 575H1033Q1036 575 1037 574Q1045 569 1041 561ZM950 519H809L879 404ZM847 350 743 519H532L428 350L532 181H743ZM638 701 566 575H709ZM325 519 396 404 466 519ZM325 181H466L396 296ZM638 -1 710 125H566ZM879 296 809 181H950Z" fill="#fafafa" stroke="none" transform="scale(1,-1) translate(0,-256)" /></svg>