<?xml version="1.0" encoding="utf-8" ?>
<svg baseProfile="full" height="256" version="1.1" width="256" xmlns="http://www.w3.org/2000/svg" xmlns:ev="http://www.w3.org/2001/xml-events" xmlns:xlink="http://www.w3.org/1999/xlink"><defs /><path d="M520 248Q524 243 511.5 226.5Q499 210 474.5 184.5Q450 159 419.5 128.5Q389 98 359 67Q318 24 283.0 -10.5Q248 -45 225.5 -66.5Q203 -88 199 -92Q193 -97 186.5 -89.5Q180 -82 184 -77Q186 -74 206.5 -53.0Q227 -32 261.0 2.0Q295 36 336 76Q367 106 397.5 138.0Q428 170 454.5 196.5Q481 223 498.5 238.0Q516 253 520 248Z" fill="#c7c7c7" stroke="none" transform="scale(1,-1) translate(0,-256)" /></svg>