<?xml version="1.0" encoding="utf-8" ?>
<svg baseProfile="full" height="256" version="1.1" width="256" xmlns="http://www.w3.org/2000/svg" xmlns:ev="http://www.w3.org/2001/xml-events" xmlns:xlink="http://www.w3.org/1999/xlink"><defs /><path d="M1112 841Q1160 798 1180.0 753.0Q1200 708 1201.5 665.5Q1203 623 1193.0 588.5Q1183 554 1170.5 532.0Q1158 510 1151 507Q1136 499 1097.5 493.5Q1059 488 1019 479Q988 471 953.5 452.0Q919 433 885.5 408.5Q852 384 825 361Q794 336 764.5 311.5Q735 287 710 282Q685 278 665.5 272.0Q646 266 631 257Q621 251 611.5 240.5Q602 230 593.0 222.0Q584 214 575 215Q568 216 552.0 230.5Q536 245 522.0 262.5Q508 280 508 289Q507 299 516.5 310.0Q526 321 537.0 332.0Q548 343 551 353Q557 369 558.0 383.5Q559 398 563 419Q566 445 595.5 481.5Q625 518 656 556Q677 581 699.5 613.0Q722 645 739.5 674.5Q757 704 763 722Q772 751 778.5 786.0Q785 821 788 837Q790 849 808.0 867.0Q826 885 856.5 899.5Q887 914 927.0 917.5Q967 921 1014.0 904.0Q1061 887 1112 841ZM1068 839Q1064 834 1072.5 823.0Q1081 812 1090 804Q1099 796 1109.5 789.0Q1120 782 1124 787Q1130 793 1122.0 802.0Q1114 811 1103 821Q1093 831 1083.0 837.5Q1073 844 1068 839ZM749 352Q765 365 789.0 385.0Q813 405 840.5 427.5Q868 450 896 468Q899 472 909.5 490.0Q920 508 933.0 533.0Q946 558 956.0 585.0Q966 612 967.5 635.0Q969 658 958 671Q942 689 913.5 684.5Q885 680 852.5 664.0Q820 648 790.0 628.0Q760 608 741.0 593.0Q722 578 722 578Q692 538 667.0 505.5Q642 473 635 464Q624 452 617.0 433.5Q610 415 612.0 395.0Q614 375 633 357Q663 326 690.5 327.0Q718 328 749 352ZM956 499Q983 509 1016.0 516.0Q1049 523 1077 530Q1076 542 1070.0 573.5Q1064 605 1046.5 643.5Q1029 682 992 716Q957 749 921.0 766.0Q885 783 857.0 790.0Q829 797 818 798Q812 771 804.5 734.5Q797 698 779 662Q795 673 820.5 687.5Q846 702 875.5 712.0Q905 722 933.5 719.0Q962 716 983 692Q998 675 999.5 650.0Q1001 625 994.5 597.5Q988 570 977.0 544.0Q966 518 956 499ZM1140 557Q1161 587 1164.0 621.0Q1167 655 1160.5 685.0Q1154 715 1147.0 734.0Q1140 753 1140 753Q1140 753 1131.5 752.0Q1123 751 1107.5 756.0Q1092 761 1070 781Q1052 798 1046.0 812.5Q1040 827 1040.0 836.0Q1040 845 1040 845Q1040 845 1020.0 855.0Q1000 865 968.0 872.0Q936 879 900.0 873.5Q864 868 833 838Q831 837 830 835Q845 832 875.5 823.0Q906 814 943.5 794.5Q981 775 1018 741Q1053 708 1072.0 673.0Q1091 638 1099.5 608.0Q1108 578 1110.0 559.5Q1112 541 1112 541V540Q1134 548 1140 557Z" fill="#5e6367" stroke="none" transform="scale(1,-1) translate(0,-256)" /><path d="M626 409Q624 424 635.0 437.5Q646 451 656 449Q660 448 672.5 437.5Q685 427 699.5 412.0Q714 397 724.0 384.0Q734 371 734 366Q734 356 722.5 346.5Q711 337 695 338Q681 340 665.5 351.5Q650 363 638.5 379.0Q627 395 626 409Z" fill="#5e6367" stroke="none" transform="scale(1,-1) translate(0,-256)" /></svg>