<?xml version="1.0" encoding="utf-8" ?>
<svg baseProfile="full" height="256" version="1.1" width="256" xmlns="http://www.w3.org/2000/svg" xmlns:ev="http://www.w3.org/2001/xml-events" xmlns:xlink="http://www.w3.org/1999/xlink"><defs /><path d="M76 -139Q76 -136 85.0 -127.0Q94 -118 106.5 -108.0Q119 -98 129.5 -90.0Q140 -82 143 -80Q150 -76 156.5 -74.0Q163 -72 166 -74Q169 -77 179.0 -86.5Q189 -96 198.5 -106.0Q208 -116 210 -118Q214 -123 209 -138Q207 -144 198.0 -156.0Q189 -168 177.5 -181.5Q166 -195 156.5 -204.5Q147 -214 144 -214Q142 -214 131.0 -204.5Q120 -195 107.5 -181.0Q95 -167 85.5 -155.0Q76 -143 76 -139Z" fill="#5f6367" stroke="none" transform="scale(1,-1) translate(0,-256)" /></svg>