<?xml version="1.0" encoding="utf-8" ?>
<svg baseProfile="full" height="256" version="1.1" width="256" xmlns="http://www.w3.org/2000/svg" xmlns:ev="http://www.w3.org/2001/xml-events" xmlns:xlink="http://www.w3.org/1999/xlink"><defs /><path d="M163 703Q177 707 180.5 717.0Q184 727 184.0 740.5Q184 754 187.0 769.5Q190 785 203 801Q215 816 230.5 820.0Q246 824 260.0 824.5Q274 825 282.5 829.5Q291 834 290 850Q289 862 267.0 870.5Q245 879 214.5 874.0Q184 869 158 840Q138 818 132.5 793.0Q127 768 131.5 746.5Q136 725 145.5 712.5Q155 700 163 703Z" fill="#ffaf76" stroke="none" transform="scale(1,-1) translate(0,-256)" /></svg>