<?xml version="1.0" encoding="utf-8" ?>
<svg baseProfile="full" height="256" version="1.1" width="256" xmlns="http://www.w3.org/2000/svg" xmlns:ev="http://www.w3.org/2001/xml-events" xmlns:xlink="http://www.w3.org/1999/xlink"><defs /><path d="M478 -91 630 -118 808 -89Q808 -89 815.0 -100.5Q822 -112 832.0 -126.5Q842 -141 849 -149Q876 -177 873.0 -186.5Q870 -196 854 -199Q838 -203 811.5 -201.0Q785 -199 762 -196Q747 -194 723.5 -190.0Q700 -186 676.5 -183.0Q653 -180 638 -180Q615 -180 584.0 -187.5Q553 -195 520 -202Q487 -209 456.5 -208.5Q426 -208 404 -200Q389 -195 395.5 -183.5Q402 -172 418.5 -158.5Q435 -145 449 -133Q467 -116 472.5 -103.5Q478 -91 478 -91Z" fill="#878787" stroke="none" transform="scale(1,-1) translate(0,-256)" /></svg>