<?xml version="1.0" encoding="utf-8" ?>
<svg baseProfile="full" height="256" version="1.1" width="256" xmlns="http://www.w3.org/2000/svg" xmlns:ev="http://www.w3.org/2001/xml-events" xmlns:xlink="http://www.w3.org/1999/xlink"><defs /><path d="M684.8980712890625 349.989990234375Q684.8980712890625 359.76934814453125 681.2308120727539 368.3684387207031Q677.5635528564453 376.967529296875 671.0299301147461 383.5011520385742Q664.4963073730469 390.03477478027344 655.897216796875 393.7441864013672Q647.2981262207031 397.45359802246094 637.5187683105469 397.45359802246094Q627.6551055908203 397.45359802246094 619.0560150146484 393.7441864013672Q610.4569244384766 390.03477478027344 603.9233016967773 383.5011520385742Q597.3896789550781 376.967529296875 593.7224197387695 368.3684387207031Q590.0551605224609 359.76934814453125 590.0551605224609 349.989990234375Q590.0551605224609 340.21063232421875 593.7224197387695 331.6115417480469Q597.3896789550781 323.012451171875 603.9233016967773 316.4788284301758Q610.4569244384766 309.94520568847656 619.0560150146484 306.27794647216797Q627.6551055908203 302.6106872558594 637.5187683105469 302.6106872558594Q647.2981262207031 302.6106872558594 655.897216796875 306.27794647216797Q664.4963073730469 309.94520568847656 671.0299301147461 316.4788284301758Q677.5635528564453 323.012451171875 681.2308120727539 331.6115417480469Q684.8980712890625 340.21063232421875 684.8980712890625 349.989990234375Z" fill="#563428" stroke="none" transform="scale(1,-1) translate(0,-256)" /><path d="M665.0849761962891 545.5803527832031Q665.2846527099609 557.2395629882812 656.6900024414062 566.1337280273438Q648.5950469970703 574.1617889404297 636.0697326660156 573.8617706298828Q624.9102172851562 573.1953430175781 616.8821563720703 565.1003875732422Q608.8540954589844 557.0054321289062 608.6544189453125 545.3462219238281L610.2234191894531 346.5401153564453Q610.0237426757812 334.8809051513672 618.1186981201172 326.85284423828125Q626.7133483886719 317.95867919921875 637.8728637695312 318.62510681152344Q649.5320739746094 318.42543029785156 658.4262390136719 327.02008056640625Q666.4542999267578 335.1150360107422 666.6539764404297 346.7742462158203Z" fill="#563428" stroke="none" transform="scale(1,-1) translate(0,-256)" /><path d="M619.0 387.375Q619.0 368.375 637.0 368.375Q656.0 368.375 656.0 387.375V659.375Q656.0 678.375 637.0 678.375Q619.0 678.375 619.0 659.375Z" fill="#563428" stroke="none" transform="scale(1,-1) translate(0,-256)" /></svg>