<?xml version="1.0" encoding="utf-8" ?>
<svg baseProfile="full" height="256" version="1.1" width="256" xmlns="http://www.w3.org/2000/svg" xmlns:ev="http://www.w3.org/2001/xml-events" xmlns:xlink="http://www.w3.org/1999/xlink"><defs /><path d="M785 817Q799 811 797.5 796.5Q796 782 788.0 766.0Q780 750 775 739Q770 730 762.5 714.5Q755 699 745.5 683.0Q736 667 726.5 658.0Q717 649 708 653Q695 659 696.5 675.0Q698 691 706.0 708.5Q714 726 720 739Q726 751 735.0 772.5Q744 794 756.5 809.0Q769 824 785 817Z" fill="#7fb240" stroke="none" transform="scale(1,-1) translate(0,-256)" /><path d="M819 693Q807 707 815.5 720.5Q824 734 836 746Q868 777 886 754Q892 747 888.0 734.0Q884 721 870 710Q857 699 842.0 691.5Q827 684 819 693Z" fill="#7fb240" stroke="none" transform="scale(1,-1) translate(0,-256)" /><path d="M803 613Q797 636 825.0 644.5Q853 653 908 667Q929 672 952.0 678.0Q975 684 992.5 681.5Q1010 679 1013 662Q1018 638 991.0 629.5Q964 621 922 613Q898 608 871.5 603.0Q845 598 825.5 599.0Q806 600 803 613Z" fill="#7fb240" stroke="none" transform="scale(1,-1) translate(0,-256)" /><path d="M778 521Q776 535 789.5 542.0Q803 549 825.5 551.5Q848 554 873.5 554.5Q899 555 922 556Q951 559 977.0 560.0Q1003 561 1019.0 556.5Q1035 552 1037 538Q1040 517 1011.5 511.0Q983 505 937 505Q901 504 865.5 501.5Q830 499 805.0 502.0Q780 505 778 521Z" fill="#7fb240" stroke="none" transform="scale(1,-1) translate(0,-256)" /><path d="M801 444Q809 465 835.0 456.0Q861 447 901 429Q925 417 946.5 405.0Q968 393 960 373Q954 359 941.5 359.0Q929 359 911.0 367.5Q893 376 872 385Q830 404 812.0 414.0Q794 424 801 444Z" fill="#7fb240" stroke="none" transform="scale(1,-1) translate(0,-256)" /><path d="M730 413Q738 423 759.0 412.0Q780 401 805.5 381.0Q831 361 853 345Q875 330 896.0 314.5Q917 299 927.5 285.0Q938 271 930 258Q918 240 889.5 256.0Q861 272 823 302Q797 321 770.5 340.0Q744 359 730.0 377.0Q716 395 730 413Z" fill="#7fb240" stroke="none" transform="scale(1,-1) translate(0,-256)" /><path d="M660 334Q679 348 700 327Q705 321 717.0 307.0Q729 293 742.5 276.5Q756 260 766.5 246.5Q777 233 780 228Q784 222 792.5 209.5Q801 197 804.0 183.5Q807 170 795 162Q784 153 771.5 160.5Q759 168 748.5 179.5Q738 191 734 197Q728 205 712.5 224.0Q697 243 676 270Q656 296 651.5 310.0Q647 324 660 334Z" fill="#7fb240" stroke="none" transform="scale(1,-1) translate(0,-256)" /><path d="M580 266Q588 269 597.0 254.0Q606 239 614.0 216.5Q622 194 628.0 172.0Q634 150 637 138Q639 128 643.0 111.0Q647 94 646.5 79.5Q646 65 635 62Q621 58 613.0 66.0Q605 74 600.5 85.0Q596 96 595 101Q589 118 583.5 133.5Q578 149 571 185Q562 227 564.5 244.0Q567 261 580 266Z" fill="#7fb240" stroke="none" transform="scale(1,-1) translate(0,-256)" /><path d="M508 285Q524 281 525.0 253.5Q526 226 524 191Q522 172 520.5 151.5Q519 131 512.5 117.5Q506 104 490 104Q476 104 471.5 117.5Q467 131 468.0 151.0Q469 171 471 191Q474 232 481.5 261.0Q489 290 508 285Z" fill="#7fb240" stroke="none" transform="scale(1,-1) translate(0,-256)" /><path d="M347 70Q335 74 336.5 92.0Q338 110 346.5 132.5Q355 155 365.0 176.5Q375 198 381 210Q392 234 402.5 255.0Q413 276 428 270Q443 265 446.5 251.5Q450 238 446 230Q443 220 433.0 198.0Q423 176 410 143Q403 126 394.5 106.5Q386 87 374.5 75.0Q363 63 347 70Z" fill="#7fb240" stroke="none" transform="scale(1,-1) translate(0,-256)" /><path d="M253 131Q240 140 245.5 153.5Q251 167 264.5 182.0Q278 197 289 211Q300 225 312.5 240.0Q325 255 337.5 263.5Q350 272 360 265Q372 257 366.0 242.0Q360 227 346.0 208.5Q332 190 318 173Q298 148 284.5 133.0Q271 118 253 131Z" fill="#7fb240" stroke="none" transform="scale(1,-1) translate(0,-256)" /><path d="M169 247Q163 264 177.5 274.0Q192 284 212.5 290.0Q233 296 246 299Q273 307 298.0 314.0Q323 321 341.0 322.5Q359 324 362 315Q368 301 349.5 289.5Q331 278 304.0 268.5Q277 259 256 252Q224 241 199.5 235.0Q175 229 169 247Z" fill="#7fb240" stroke="none" transform="scale(1,-1) translate(0,-256)" /><path d="M168 392Q167 412 182.5 417.5Q198 423 222.5 421.5Q247 420 273 418Q305 415 333.0 414.5Q361 414 378.5 408.5Q396 403 396 386Q395 370 371.5 366.0Q348 362 276 365Q248 366 224.0 366.5Q200 367 184.5 372.0Q169 377 168 392Z" fill="#7fb240" stroke="none" transform="scale(1,-1) translate(0,-256)" /><path d="M223 538Q228 551 243.0 549.5Q258 548 274.5 540.5Q291 533 301 529Q335 515 360.5 503.0Q386 491 378 473Q369 456 348.0 460.5Q327 465 283 481Q243 495 229.5 508.0Q216 521 223 538Z" fill="#7fb240" stroke="none" transform="scale(1,-1) translate(0,-256)" /><path d="M264 641Q271 651 286.5 647.0Q302 643 319.5 632.5Q337 622 352 613Q364 606 380.5 595.5Q397 585 412.0 573.0Q427 561 435.0 549.5Q443 538 436 529Q427 514 409.5 518.0Q392 522 370.0 535.5Q348 549 324 564Q287 586 268.5 603.5Q250 621 264 641Z" fill="#7fb240" stroke="none" transform="scale(1,-1) translate(0,-256)" /><path d="M394 754Q407 762 420.0 752.5Q433 743 445.0 725.0Q457 707 467 690Q477 673 489.0 650.0Q501 627 506.0 608.0Q511 589 499 583Q480 575 461.5 600.0Q443 625 417 664Q391 703 386.5 724.5Q382 746 394 754Z" fill="#7fb240" stroke="none" transform="scale(1,-1) translate(0,-256)" /><path d="M530 813Q543 815 551.0 804.0Q559 793 563.5 777.0Q568 761 570 746Q576 706 577.5 673.5Q579 641 561 637Q544 632 534.0 661.5Q524 691 516 730Q508 766 511.0 788.0Q514 810 530 813Z" fill="#7fb240" stroke="none" transform="scale(1,-1) translate(0,-256)" /><path d="M674 842Q688 840 690.5 827.5Q693 815 690.0 798.5Q687 782 684 768Q681 754 676.5 733.0Q672 712 666.0 692.5Q660 673 652.0 661.5Q644 650 633 654Q614 663 619.0 695.5Q624 728 631 769Q638 810 647.0 827.5Q656 845 674 842Z" fill="#7fb240" stroke="none" transform="scale(1,-1) translate(0,-256)" /></svg>