<?xml version="1.0" encoding="utf-8" ?>
<svg baseProfile="full" height="256" version="1.1" width="256" xmlns="http://www.w3.org/2000/svg" xmlns:ev="http://www.w3.org/2001/xml-events" xmlns:xlink="http://www.w3.org/1999/xlink"><defs /><path d="M405 486Q408 494 425.0 494.5Q442 495 468.0 501.5Q494 508 522 533Q544 552 555.5 572.0Q567 592 573.5 607.0Q580 622 588 626Q599 631 615.5 623.0Q632 615 660 614Q688 612 712.5 622.5Q737 633 754.0 641.5Q771 650 777 641Q783 633 776.5 618.5Q770 604 759.5 584.5Q749 565 744 544Q737 512 742.0 487.5Q747 463 741 454Q737 448 723.5 443.5Q710 439 691.0 430.5Q672 422 651 404Q630 385 623.0 364.5Q616 344 612.5 328.0Q609 312 599 306Q590 302 581.0 307.0Q572 312 554.5 316.5Q537 321 505 315Q475 310 451.0 301.0Q427 292 410.0 287.5Q393 283 385 291Q379 297 387.5 311.0Q396 325 407.5 347.5Q419 370 423 401Q425 423 419.0 437.5Q413 452 407.0 463.0Q401 474 405 486Z" fill="#e5dda0" stroke="none" transform="scale(1,-1) translate(0,-256)" /></svg>