<?xml version="1.0" encoding="utf-8" ?>
<svg baseProfile="full" height="256" version="1.1" width="256" xmlns="http://www.w3.org/2000/svg" xmlns:ev="http://www.w3.org/2001/xml-events" xmlns:xlink="http://www.w3.org/1999/xlink"><defs /><path d="M741 657 771 658 772 633Q772 619 764.5 609.5Q757 600 750.0 595.0Q743 590 743 590Q743 590 735.0 594.5Q727 599 719.0 608.5Q711 618 711 632V656Z" fill="#e59600" stroke="none" transform="scale(1,-1) translate(0,-256)" /><path d="M810.4606781005859 748.3799133300781Q822.1206970214844 748.8798217773438 830.5179443359375 740.277702331543Q838.9151916503906 731.6755828857422 839.340087890625 719.2217712402344Q839.7649841308594 706.7679595947266 831.6831970214844 697.5206604003906Q823.6014099121094 688.2733612060547 811.9788970947266 688.1703491210938L792.3059387207031 687.6267700195312L687.118896484375 684.752685546875L667.4459381103516 684.2091064453125Q655.7859191894531 683.7091979980469 647.1902236938477 692.3300704956055Q638.5945281982422 700.9509429931641 638.1696319580078 713.4047546386719Q637.7447357177734 725.8585662841797 645.8077697753906 734.9074172973633Q653.8708038330078 743.9562683105469 665.9277191162109 744.4186706542969L685.2037811279297 744.999755859375L790.7877197265625 747.8363342285156Z" fill="#e59600" stroke="none" transform="scale(1,-1) translate(0,-256)" /><path d="M748 698Q751 697 750 694Q749 692 746.0 689.0Q743 686 738 686Q732 686 729.0 689.0Q726 692 726 693Q724 696 727 697Q728 698 728 698H747Q747 698 748 698Z" fill="#e59600" stroke="none" transform="scale(1,-1) translate(0,-256)" /></svg>