<?xml version="1.0" encoding="utf-8" ?>
<svg baseProfile="full" height="256" version="1.1" width="256" xmlns="http://www.w3.org/2000/svg" xmlns:ev="http://www.w3.org/2001/xml-events" xmlns:xlink="http://www.w3.org/1999/xlink"><defs /><path d="M708 721Q708 734 695 734Q682 734 682 720Q682 707 696 707Q709 707 708 721Z" fill="#404040" stroke="none" transform="scale(1,-1) translate(0,-256)" /><path d="M795.2444305419922 723.3165130615234Q795.0831604003906 729.2380828857422 791.1059188842773 733.0044326782227Q787.1286773681641 736.7707824707031 781.6626129150391 736.6219177246094Q776.1965484619141 736.4730529785156 772.4301986694336 732.4958114624023Q768.6638488769531 728.5185699462891 768.8251190185547 722.5970001220703Q768.9739837646484 717.1309356689453 772.9512252807617 713.3645858764648Q776.928466796875 709.5982360839844 782.39453125 709.7471008300781Q787.860595703125 709.8959655761719 791.6269454956055 713.8732070922852Q795.3932952880859 717.8504486083984 795.2444305419922 723.3165130615234Z" fill="#404040" stroke="none" transform="scale(1,-1) translate(0,-256)" /></svg>