<?xml version="1.0" encoding="utf-8" ?>
<svg baseProfile="full" height="256" version="1.1" width="256" xmlns="http://www.w3.org/2000/svg" xmlns:ev="http://www.w3.org/2001/xml-events" xmlns:xlink="http://www.w3.org/1999/xlink"><defs /><path d="M714 746Q716 744 715 742Q713 739 710 740Q708 741 704.5 742.0Q701 743 695 743Q690 743 686.5 741.5Q683 740 681 740Q678 738 676 741Q674 742 676 745Q678 747 682.5 750.0Q687 753 695 753Q703 754 708.0 751.0Q713 748 714 746Z" fill="#6d4c41" stroke="none" transform="scale(1,-1) translate(0,-256)" /><path d="M801.0 748.343994140625Q803.0 746.343994140625 802.0 744.343994140625Q800.0 741.343994140625 797.0 742.343994140625Q795.0 743.343994140625 791.5 744.343994140625Q788.0 745.343994140625 782.0 745.343994140625Q777.0 745.343994140625 773.5 743.843994140625Q770.0 742.343994140625 768.0 742.343994140625Q765.0 740.343994140625 763.0 743.343994140625Q761.0 744.343994140625 763.0 747.343994140625Q765.0 749.343994140625 769.5 752.343994140625Q774.0 755.343994140625 782.0 755.343994140625Q790.0 756.343994140625 795.0 753.343994140625Q800.0 750.343994140625 801.0 748.343994140625Z" fill="#6d4c41" stroke="none" transform="scale(1,-1) translate(0,-256)" /></svg>