<?xml version="1.0" encoding="utf-8" ?>
<svg baseProfile="full" height="256" version="1.1" width="256" xmlns="http://www.w3.org/2000/svg" xmlns:ev="http://www.w3.org/2001/xml-events" xmlns:xlink="http://www.w3.org/1999/xlink"><defs /><path d="M863 649 771 593Q766 590 761 592L671 631Q670 632 657.0 635.5Q644 639 631.5 642.5Q619 646 619 646Q619 646 608.0 640.5Q597 635 582.0 628.0Q567 621 554.0 613.5Q541 606 538 602Q529 591 521.5 567.0Q514 543 494.5 511.0Q475 479 431 444Q397 416 367.0 400.5Q337 385 312.0 374.5Q287 364 268 351Q262 347 262.0 340.0Q262 333 269 330Q282 324 304.5 313.5Q327 303 350.5 286.5Q374 270 390.0 243.5Q406 217 406 178Q406 148 401.0 126.0Q396 104 393.5 85.5Q391 67 395.5 49.0Q400 31 419 10Q443 -17 468.5 -24.0Q494 -31 519.0 -25.0Q544 -19 565.5 -7.5Q587 4 604.0 14.5Q621 25 631 28Q681 39 717.0 34.5Q753 30 775.5 18.0Q798 6 810 -5Q815 -9 821.0 -7.5Q827 -6 830 0Q838 20 853.0 59.0Q868 98 884.5 147.0Q901 196 914.0 247.0Q927 298 932 342Q942 432 932.0 494.5Q922 557 905.5 594.5Q889 632 879 646Q873 656 863 649Z" fill="#000000" stroke="none" transform="scale(1,-1) translate(0,-256)" /><path d="M518.5820159912109 81.95419311523438Q491.03826904296875 33.5465087890625 462.3532257080078 -9.091873168945312Q433.6681823730469 -51.730255126953125 411.59461212158203 -81.8966293334961Q389.5210418701172 -112.06300354003906 380.60394287109375 -122.60121154785156Q373.0071563720703 -109.06741333007812 357.855712890625 -98.03805541992188Q342.7042694091797 -87.00869750976562 314.6826629638672 -88.23786926269531Q308.3140563964844 -89.05128479003906 294.4342346191406 -96.65809631347656Q280.5544128417969 -104.26490783691406 263.1170959472656 -111.07015228271484Q245.67977905273438 -117.87539672851562 229.1658935546875 -114.87980651855469Q251.3480682373047 -95.43582153320312 275.5956268310547 -66.08566284179688Q299.8431854248047 -36.735504150390625 322.44396209716797 -5.164825439453125Q345.04473876953125 26.405853271484375 363.47261810302734 54.202423095703125Q381.90049743652344 81.99899291992188 392.79478454589844 99.27200317382812Q403.68907165527344 116.54501342773438 403.68907165527344 116.54501342773438Q403.68907165527344 116.54501342773438 416.77972412109375 136.73197174072266Q429.87037658691406 156.91893005371094 448.8254623413086 186.11980438232422Q467.7805480957031 215.3206787109375 486.8455505371094 245.54844665527344Q505.9105529785156 275.7762145996094 519.3526763916016 296.89937591552734Q532.7947998046875 318.0225372314453 533.4977416992188 319.8949432373047Q533.8492126464844 320.8311462402344 543.3804016113281 324.1957473754883Q552.9115905761719 327.5603485107422 566.7690353393555 331.43699645996094Q580.6264801025391 335.3136444091797 594.0666351318359 338.81288146972656Q607.5067901611328 342.31211853027344 616.6865081787109 344.74051666259766Q625.8662261962891 347.1689147949219 625.8662261962891 347.1689147949219Q625.8662261962891 347.1689147949219 620.3736724853516 325.1974411010742Q614.8811187744141 303.22596740722656 602.3815231323242 266.2605972290039Q589.8819274902344 229.29522705078125 569.1898956298828 181.5195770263672Q548.4978637695312 133.74392700195312 518.5820159912109 81.95419311523438Z" fill="#000000" stroke="none" transform="scale(1,-1) translate(0,-256)" /><path d="M675 541Q675 541 672.5 517.0Q670 493 662.5 453.5Q655 414 641.5 365.0Q628 316 606.5 265.0Q585 214 553 169Q533 141 510.5 109.0Q488 77 466.5 48.0Q445 19 429 0Q423 6 419 10Q400 31 395.5 49.0Q391 67 394.0 85.5Q397 104 401.5 126.0Q406 148 406 178Q406 178 417.0 193.5Q428 209 445.5 232.5Q463 256 481.0 282.5Q499 309 514 331Q525 349 540.0 377.5Q555 406 570.0 438.0Q585 470 598.0 498.5Q611 527 619.0 545.0Q627 563 627 563Z" fill="#000000" stroke="none" transform="scale(1,-1) translate(0,-256)" /><path d="M1008 722Q1015 702 1012.0 690.0Q1009 678 999 664Q995 659 980.0 641.5Q965 624 945.5 601.5Q926 579 907.0 557.5Q888 536 876 522Q869 491 854.5 446.0Q840 401 814 342L719 346L641 383Q641 415 639.0 441.0Q637 467 635 489Q622 469 607.5 446.0Q593 423 585 414Q560 381 531 395Q516 402 499.0 414.5Q482 427 489 443L524 455L567 557Q582 593 608.5 608.0Q635 623 662.0 626.0Q689 629 702 628Q728 632 759.0 631.5Q790 631 824 623L920 703L899 796L952 821Q952 821 959.5 809.5Q967 798 977.0 781.0Q987 764 996.0 747.5Q1005 731 1008 722Z" fill="#000000" stroke="none" transform="scale(1,-1) translate(0,-256)" /><path d="M428 588Q422 577 424.0 558.5Q426 540 431.5 521.5Q437 503 441 493Q454 462 470.0 441.5Q486 421 497.0 411.5Q508 402 508 402Q508 402 518.5 401.0Q529 400 541.5 404.0Q554 408 560 423Q568 446 559.5 461.5Q551 477 536 489Q535 490 525.0 491.0Q515 492 504 499Q489 508 480 520L497 540Q504 547 500 556L482 600Q476 613 463 609Q454 606 443.0 601.0Q432 596 428 588Z" fill="#000000" stroke="none" transform="scale(1,-1) translate(0,-256)" /><path d="M531 173Q543 185 556.5 179.5Q570 174 577.0 160.5Q584 147 576 134Q563 115 552.0 91.5Q541 68 515 47Q507 41 496.5 48.0Q486 55 479.0 70.0Q472 85 476 103Q478 114 491.5 130.5Q505 147 518.0 160.0Q531 173 531 173Z" fill="#000000" stroke="none" transform="scale(1,-1) translate(0,-256)" /><path d="M707 324 822 316Q822 316 819.0 297.0Q816 278 809.5 251.5Q803 225 792 202Q787 191 772.0 165.5Q757 140 737.5 107.5Q718 75 697.5 41.0Q677 7 659.0 -21.5Q641 -50 630.0 -67.5Q619 -85 619 -85L568 -53L682 246Q683 250 679.5 252.0Q676 254 674 250Q659 228 643.0 204.0Q627 180 618 171Q600 150 581.5 145.5Q563 141 548 150Q530 161 528.0 178.0Q526 195 534 217Q538 227 550.0 248.5Q562 270 575.5 292.5Q589 315 599.0 331.0Q609 347 609 347Q616 360 632.5 361.0Q649 362 663.0 358.5Q677 355 677 355Q697 344 705 318Z" fill="#000000" stroke="none" transform="scale(1,-1) translate(0,-256)" /><path d="M816 304Q826 304 827 314L829 342Q830 347 826.5 350.5Q823 354 817 354Q779 352 752.0 355.0Q725 358 699.0 367.5Q673 377 640 395Q629 400 624 389L613 366Q608 356 618 351Q670 323 713.5 312.0Q757 301 816 304Z" fill="#000000" stroke="none" transform="scale(1,-1) translate(0,-256)" /><path d="M683 531 761 444 841 530Q841 530 823.0 541.5Q805 553 764 551Q724 550 703.5 540.5Q683 531 683 531Z" fill="#000000" stroke="none" transform="scale(1,-1) translate(0,-256)" /><path d="M580 35Q580 35 593.5 35.5Q607 36 625.0 31.5Q643 27 659.0 14.5Q675 2 681 -23Q681 -23 669.0 -35.0Q657 -47 639.5 -66.0Q622 -85 605.0 -106.0Q588 -127 579 -144Q579 -144 571.0 -161.0Q563 -178 551.5 -196.0Q540 -214 530 -220Q514 -228 497.5 -226.5Q481 -225 471.0 -217.5Q461 -210 464 -200Q476 -169 495.0 -151.0Q514 -133 528 -115Q546 -85 557.5 -50.0Q569 -15 574.5 10.0Q580 35 580 35Z" fill="#000000" stroke="none" transform="scale(1,-1) translate(0,-256)" /><path d="M906 716Q927 704 944.5 706.0Q962 708 975.0 716.5Q988 725 996.0 733.5Q1004 742 1004 742Q1004 742 992.5 766.0Q981 790 958.0 823.5Q935 857 902 885Q850 930 827 930Q822 930 815.5 927.0Q809 924 805 912Q801 900 799.0 890.0Q797 880 799 875Q803 863 824 864Q837 865 847.0 865.0Q857 865 857 865Q869 863 878.0 841.0Q887 819 893.0 791.5Q899 764 902.5 742.0Q906 720 906 716Z" fill="#000000" stroke="none" transform="scale(1,-1) translate(0,-256)" /><path d="M743.2046976936981 600.6325616762042 766.9657790316269 601.5816484615207Q782.8064999235794 602.214372985065 794.1240093328524 604.3712132778019Q805.4415187421255 606.5280535705388 812.2843943343032 608.9932456742972Q819.127269926481 611.4584377780557 822.3626498915255 613.2112739980221Q825.5980298565701 614.9641102179885 825.5980298565701 614.9641102179885L818.4993118923157 618.901941627264L742.7124440157786 612.9523031190038Z" fill="#000000" stroke="none" transform="scale(1,-1) translate(0,-256)" /><path d="M-958.3262939453125 61.08642578125Q-963.0439910888672 52.797454833984375 -971.4095077514648 52.64372253417969Q-979.7750244140625 52.489990234375 -979.7750244140625 52.489990234375Q-979.7750244140625 52.489990234375 -975.6756286621094 55.44720458984375Q-971.5762329101562 58.4044189453125 -970.2759552001953 62.418609619140625Q-968.7695770263672 68.21005249023438 -978.0550079345703 70.92129516601562Q-978.0550079345703 70.92129516601562 -972.318115234375 71.8026123046875Q-966.5812225341797 72.68392944335938 -961.1534805297852 70.89936828613281Q-955.7257385253906 69.11480712890625 -958.3262939453125 61.08642578125Z" fill="#000000" stroke="none" transform="scale(1,-1) translate(0,-256)" /><path d="M537.0247802734375 917.4276123046875Q537.0247802734375 917.4276123046875 537.9100189208984 917.0261993408203Q538.7952575683594 916.6247863769531 538.7952575683594 916.6247863769531Q538.7952575683594 916.6247863769531 539.4545593261719 903.6147766113281Q540.1138610839844 890.6047668457031 540.4163513183594 877.0503845214844Q540.7188415527344 863.4960021972656 540.0052185058594 862.4072570800781Q536.9219055175781 860.0391540527344 531.1256713867188 859.3720092773438Q526.87109375 859.888916015625 520.7316284179688 862.2020874023438Q511.1656188964844 865.1274719238281 499.42869567871094 872.3327178955078Q487.6917724609375 879.5379638671875 479.4385986328125 885.63427734375Q471.1854248046875 891.7305908203125 471.1854248046875 891.7305908203125Q473.55511474609375 893.0099487304688 476.8808288574219 896.9158630371094Q480.20654296875 900.82177734375 480.920166015625 901.9105224609375Q487.4571838378906 910.7157897949219 503.0317840576172 917.5414581298828Q518.6063842773438 924.3671264648438 537.0247802734375 917.4276123046875Z" fill="#000000" stroke="none" transform="scale(1,-1) translate(0,-256)" /><path d="M-608.0559997558594 644.5585174560547Q-608.0559997558594 644.5585174560547 -609.2706527709961 645.601432800293Q-610.4853057861328 646.6443481445312 -610.4853057861328 646.6443481445312Q-610.4506072998047 647.6437530517578 -610.1209716796875 657.1380996704102Q-609.7913360595703 666.6324462890625 -609.4443511962891 676.6264953613281Q-609.0973663330078 686.6205444335938 -608.9585723876953 690.6181640625Q-608.8544769287109 693.6163787841797 -609.201530456543 695.6296920776367Q-609.548583984375 697.6430053710938 -606.9804840087891 699.5547943115234Q-603.5447845458984 702.4369812011719 -598.5473785400391 702.262939453125Q-595.2157745361328 702.1469116210938 -592.7517700195312 701.0604858398438Q-590.2877655029297 699.9740600585938 -587.8237609863281 698.8876342773438Q-578.7659454345703 695.5703430175781 -567.7820205688477 687.6832122802734Q-556.798095703125 679.7960815429688 -548.6772766113281 673.5095825195312Q-540.5564575195312 667.2230834960938 -540.5564575195312 667.2230834960938Q-543.9574584960938 665.3403015136719 -547.4105072021484 661.9584121704102Q-550.8635559082031 658.5765228271484 -551.7311553955078 657.6061248779297Q-559.53955078125 648.8725433349609 -575.1737594604492 642.9130401611328Q-590.8079681396484 636.9535369873047 -608.0559997558594 644.5585174560547Z" fill="#000000" stroke="none" transform="scale(1,-1) translate(0,-256)" /><path d="M-753.7640075683594 279.59625244140625 -729.7634429931641 280.06309509277344Q-697.7692260742188 280.8491516113281 -683.986213684082 286.56116485595703Q-670.2032012939453 292.27317810058594 -670.2032012939453 292.27317810058594L-677.3741149902344 296.4110565185547L-753.2549896240234 291.9061279296875Z" fill="#000000" stroke="none" transform="scale(1,-1) translate(0,-256)" /><path d="M796.2670288085938 196.52072143554688Q787.8022155761719 194.4446258544922 781.7192993164062 200.62030029296875Q775.6363830566406 206.7959747314453 775.6363830566406 206.7959747314453Q775.6363830566406 206.7959747314453 780.5335083007812 205.54342651367188Q785.4306335449219 204.29087829589844 788.7110290527344 206.93565368652344Q793.20068359375 209.87701416015625 789.3325500488281 218.74281311035156Q789.3325500488281 218.74281311035156 794.1461181640625 214.70944213867188Q798.9596862792969 210.6760711669922 801.2110900878906 205.7075958251953Q803.4624938964844 200.73912048339844 796.2670288085938 196.52072143554688Z" fill="#000000" stroke="none" transform="scale(1,-1) translate(0,-256)" /><path d="M803.9880523681641 -592.836181640625Q817.228271484375 -583.7022399902344 830.2957992553711 -574.0990676879883Q843.3633270263672 -564.4958953857422 850.7430572509766 -535.1418762207031Q850.7430572509766 -535.1418762207031 852.9963073730469 -538.0421981811523Q855.2495574951172 -540.9425201416016 859.4216918945312 -541.5384674072266Q861.8558959960938 -541.7083435058594 864.292854309082 -540.8116607666016Q866.7298126220703 -539.9149780273438 866.7298126220703 -539.9149780273438Q867.0751953125 -540.8534393310547 867.7659606933594 -542.7303619384766Q869.4818572998047 -551.6889038085938 867.7163848876953 -561.9284210205078Q865.9509124755859 -572.1679382324219 863.5001831054688 -578.3974151611328Q861.0549621582031 -582.4937744140625 853.2094879150391 -590.1754837036133Q845.364013671875 -597.8571929931641 833.1874847412109 -599.1409301757812Q831.7949371337891 -599.6533203125 831.0986633300781 -599.9095153808594Q830.4023895263672 -600.1657104492188 828.6644592285156 -599.7396392822266Q818.5767517089844 -600.2547912597656 812.3268127441406 -596.1611938476562Q806.0768737792969 -592.0675964355469 803.9880523681641 -592.836181640625Z" fill="#000000" stroke="none" transform="scale(1,-1) translate(0,-256)" /><path d="M919.6729888916016 514.8780517578125Q918.4773559570312 514.3471527099609 916.0283660888672 512.2016372680664Q913.5793762207031 510.0561218261719 911.5096893310547 507.72633361816406Q906.1746826171875 502.5358581542969 898.9431610107422 498.2667465209961Q891.7116394042969 493.9976348876953 884.5626068115234 498.58253479003906Q873.9421234130859 503.74217224121094 874.4039154052734 512.4119110107422Q874.8657073974609 521.0816497802734 879.7183456420898 528.1741104125977Q884.5709838867188 535.2665710449219 886.9622497558594 536.328369140625Q886.9622497558594 536.328369140625 885.0986938476562 530.5631561279297Q883.2351379394531 524.7979431152344 886.4756927490234 519.8883361816406Q891.5550384521484 512.9736480712891 900.5099029541016 513.0702438354492Q909.4647674560547 513.1668395996094 911.4190063476562 513.3291931152344Q913.3732452392578 513.4915466308594 915.5459976196289 514.1036224365234Q917.71875 514.7156982421875 919.6729888916016 514.8780517578125Z" fill="#000000" stroke="none" transform="scale(1,-1) translate(0,-256)" /><path d="M-555.1871643066406 730.9724731445312Q-538.4915771484375 727.1237182617188 -527.1717376708984 721.6870727539062Q-515.8518981933594 716.2504272460938 -508.0035400390625 711.5130767822266Q-506.323974609375 710.2844848632812 -507.2104949951172 706.4164276123047Q-508.0970153808594 702.5483703613281 -528.9570617675781 703.7559051513672Q-565.4137573242188 706.0009765625 -578.2351989746094 711.6996383666992Q-591.056640625 717.3983001708984 -591.3814086914062 722.3196868896484Q-591.7061767578125 727.2410736083984 -591.319091796875 728.2961578369141Q-581.6353759765625 737.2713928222656 -555.1871643066406 730.9724731445312Z" fill="#000000" stroke="none" transform="scale(1,-1) translate(0,-256)" /><path d="M510.85369873046875 891.10205078125Q510.85369873046875 891.10205078125 510.85369873046875 891.10205078125Q510.85369873046875 891.10205078125 510.85369873046875 891.10205078125Q510.85369873046875 891.10205078125 508.4345932006836 879.9965972900391Q506.01548767089844 868.8911437988281 518.0106353759766 855.3589782714844L500.7375183105469 857.6715087890625Q495.156982421875 874.4622802734375 502.20851135253906 882.2499389648438Q509.2600402832031 890.03759765625 510.85369873046875 891.10205078125Q510.85369873046875 891.10205078125 510.85369873046875 891.10205078125Q510.85369873046875 891.10205078125 510.85369873046875 891.10205078125Q510.85369873046875 891.10205078125 510.85369873046875 891.10205078125Q510.85369873046875 891.10205078125 510.85369873046875 891.10205078125Z" fill="#000000" stroke="none" transform="scale(1,-1) translate(0,-256)" /><path d="M-477.73548889160156 909.5334320068359 -470.55491638183594 873.3614501953125Q-458.85191345214844 870.7084350585938 -455.18741607666016 866.5192489624023Q-451.5229187011719 862.3300628662109 -451.5229187011719 862.3300628662109Q-451.5229187011719 862.3300628662109 -450.7249526977539 863.588508605957Q-449.92698669433594 864.8469543457031 -448.7448425292969 865.5385284423828Q-446.73512268066406 869.8807373046875 -445.49375915527344 875.356689453125Q-444.2523956298828 880.8326416015625 -446.4982452392578 889.0182495117188Q-447.7688446044922 896.9827728271484 -452.5120391845703 900.9367141723633Q-457.25523376464844 904.8906555175781 -461.9245910644531 906.9087371826172Q-465.6186981201172 908.7057342529297 -464.64344787597656 908.4846496582031Z" fill="#000000" stroke="none" transform="scale(1,-1) translate(0,-256)" /><path d="M522.6866760253906 743.9878692626953Q522.8799743652344 745.9785003662109 523.5882873535156 745.9097595214844Q529.8346862792969 751.3317260742188 538.3344421386719 750.5068359375L532.0204772949219 692.8472747802734Q531.3121643066406 692.916015625 529.9438629150391 693.551155090332Q528.5755615234375 694.1862945556641 528.5755615234375 694.1862945556641Q528.5755615234375 694.1862945556641 522.1848602294922 698.3229370117188Q515.7941589355469 702.4595794677734 514.5390625 711.6236419677734Q511.3523254394531 722.9845581054688 515.055419921875 731.6674346923828Q518.7585144042969 740.3503112792969 522.6866760253906 743.9878692626953Z" fill="#000000" stroke="none" transform="scale(1,-1) translate(0,-256)" /></svg>