<?xml version="1.0" encoding="utf-8" ?>
<svg baseProfile="full" height="256" version="1.1" width="256" xmlns="http://www.w3.org/2000/svg" xmlns:ev="http://www.w3.org/2001/xml-events" xmlns:xlink="http://www.w3.org/1999/xlink"><defs /><path d="M746 322Q754 327 749 335L734 356Q729 364 721 359L700 345Q692 340 697 332L711 310Q717 303 724 308Z" fill="#fdd835" stroke="none" transform="scale(1,-1) translate(0,-256)" /><path d="M771 532Q767 532 765 532Q749 531 736.5 529.0Q724 527 715 524L762 473L811 525Q804 528 794.0 530.0Q784 532 771 532ZM771 551Q808 551 824.5 540.5Q841 530 841 530L761 444L683 531Q683 531 703.5 540.5Q724 550 764 551Q767 551 771 551Z" fill="#fdd835" stroke="none" transform="scale(1,-1) translate(0,-256)" /></svg>