<?xml version="1.0" encoding="utf-8" ?>
<svg baseProfile="full" height="256" version="1.1" width="256" xmlns="http://www.w3.org/2000/svg" xmlns:ev="http://www.w3.org/2001/xml-events" xmlns:xlink="http://www.w3.org/1999/xlink"><defs /><path d="M671 141Q671 141 676.5 135.0Q682 129 672 119Q671 118 672.5 123.5Q674 129 671 132Q665 137 660.5 132.0Q656 127 656 127Q656 127 658.0 131.5Q660 136 663 141Q664 143 663.5 146.5Q663 150 660 152Q654 154 649 148Q646 145 643.5 142.0Q641 139 641 139Q641 139 644.0 145.0Q647 151 649 157Q650 159 649.5 162.5Q649 166 645 168Q641 170 638.0 168.5Q635 167 633 165Q630 161 627.0 155.5Q624 150 624 150Q624 150 625.0 154.5Q626 159 628 165Q631 173 625 176Q619 179 615.0 174.0Q611 169 611 169Q612 175 618.5 181.0Q625 187 636 176Q642 180 650.5 174.5Q659 169 657 161Q657 161 666.0 157.0Q675 153 671 141Z" fill="#eda600" stroke="none" transform="scale(1,-1) translate(0,-256)" /></svg>