<?xml version="1.0" encoding="utf-8" ?>
<svg baseProfile="full" height="256" version="1.1" width="256" xmlns="http://www.w3.org/2000/svg" xmlns:ev="http://www.w3.org/2001/xml-events" xmlns:xlink="http://www.w3.org/1999/xlink"><defs /><path d="M198 -36Q206 -28 209.0 -18.0Q212 -8 213 -2Q213 0 211.0 1.5Q209 3 207 2Q197 -3 178.0 -16.5Q159 -30 148 -53Q142 -65 140 -80Q139 -84 138.0 -91.5Q137 -99 136 -107Q135 -114 138.5 -113.5Q142 -113 145 -105Q150 -94 154.0 -82.5Q158 -71 164 -65Q170 -59 181.0 -50.5Q192 -42 198 -36Z" fill="#a8e3f0" stroke="none" transform="scale(1,-1) translate(0,-256)" /></svg>