<?xml version="1.0" encoding="utf-8" ?>
<svg baseProfile="full" height="256" version="1.1" width="256" xmlns="http://www.w3.org/2000/svg" xmlns:ev="http://www.w3.org/2001/xml-events" xmlns:xlink="http://www.w3.org/1999/xlink"><defs /><path d="M723 650Q728 654 731.0 647.5Q734 641 734 634Q734 621 729.0 612.5Q724 604 718 602Q708 599 714 613Q717 621 717.0 634.0Q717 647 723 650Z" fill="#ffee58" stroke="none" transform="scale(1,-1) translate(0,-256)" /><path d="M1044 869Q1055 871 1064.5 865.0Q1074 859 1081 851Q1091 840 1092 827Q1092 823 1091 821Q1088 817 1081 820Q1069 823 1059.5 830.5Q1050 838 1041 846Q1039 849 1036.5 852.0Q1034 855 1034 859Q1034 867 1044 869Z" fill="#ffee58" stroke="none" transform="scale(1,-1) translate(0,-256)" /><path d="M307 54Q303 58 295.0 65.0Q287 72 278.5 75.0Q270 78 265 70Q258 57 271.5 45.0Q285 33 293 26Q297 23 300.5 19.5Q304 16 308 13Q315 9 319 9Q326 9 329 14Q329 17 329 20Q327 30 321.0 38.5Q315 47 307 54Z" fill="#ffee58" stroke="none" transform="scale(1,-1) translate(0,-256)" /></svg>