<?xml version="1.0" encoding="utf-8" ?>
<svg baseProfile="full" height="256" version="1.1" width="256" xmlns="http://www.w3.org/2000/svg" xmlns:ev="http://www.w3.org/2001/xml-events" xmlns:xlink="http://www.w3.org/1999/xlink"><defs /><path d="M733 443Q733 443 743.5 432.5Q754 422 768.0 408.0Q782 394 793.0 383.0Q804 372 804 372Q695 264 618.0 190.0Q541 116 490.0 69.5Q439 23 410.5 -2.0Q382 -27 370 -37Q360 -44 351 -35L251 61Q243 70 250 80Q260 92 285.5 120.5Q311 149 358.5 199.5Q406 250 480.5 327.0Q555 404 662 513Z" fill="#424242" stroke="none" transform="scale(1,-1) translate(0,-256)" /><path d="M1190 793Q1186 787 1158.5 749.0Q1131 711 1081.0 650.0Q1031 589 960.0 511.0Q889 433 799 346Q794 341 786.5 341.0Q779 341 775 346L638 483Q626 495 638 508Q724 598 801.5 669.0Q879 740 940.5 790.0Q1002 840 1039.5 867.5Q1077 895 1083 900Q1096 908 1118.5 898.0Q1141 888 1160 870Q1179 851 1189.0 828.0Q1199 805 1190 793Z" fill="#424242" stroke="none" transform="scale(1,-1) translate(0,-256)" /></svg>