<?xml version="1.0" encoding="utf-8" ?>
<svg baseProfile="full" height="256" version="1.1" width="256" xmlns="http://www.w3.org/2000/svg" xmlns:ev="http://www.w3.org/2001/xml-events" xmlns:xlink="http://www.w3.org/1999/xlink"><defs /><path d="M1023 853 1011 841Q1003 848 998.0 852.0Q993 856 993 857Q986 864 977.5 859.0Q969 854 961 847Q949 837 917.5 808.0Q886 779 851 745Q851 749 855 754Q862 762 878.0 780.0Q894 798 913.0 817.5Q932 837 947.5 852.5Q963 868 967 872Q973 877 979.0 879.5Q985 882 993 879Q1001 875 1009.5 867.0Q1018 859 1023 853Z" fill="#d89a00" stroke="none" transform="scale(1,-1) translate(0,-256)" /></svg>