<?xml version="1.0" encoding="utf-8" ?>
<svg baseProfile="full" height="256" version="1.1" width="256" xmlns="http://www.w3.org/2000/svg" xmlns:ev="http://www.w3.org/2001/xml-events" xmlns:xlink="http://www.w3.org/1999/xlink"><defs /><path d="M382 5Q348 -28 325.0 -69.0Q302 -110 279 -133Q258 -154 237.5 -159.0Q217 -164 194 -170Q178 -173 159.0 -180.0Q140 -187 123 -198Q113 -205 105.5 -211.0Q98 -217 88 -207L87 -205Q77 -195 83.0 -187.5Q89 -180 95 -170Q106 -153 113.0 -134.5Q120 -116 124 -99Q129 -76 134.5 -55.5Q140 -35 161 -14Q183 8 224.0 31.5Q265 55 299 88Q331 120 351.0 136.0Q371 152 371 152L407 116L409 114L446 77Q446 77 430.0 57.0Q414 37 382 5Z" fill="#84b0c1" stroke="none" transform="scale(1,-1) translate(0,-256)" /></svg>