<?xml version="1.0" encoding="utf-8" ?>
<svg baseProfile="full" height="256" version="1.1" width="256" xmlns="http://www.w3.org/2000/svg" xmlns:ev="http://www.w3.org/2001/xml-events" xmlns:xlink="http://www.w3.org/1999/xlink"><defs /><path d="M466 803Q462 826 444.5 839.0Q427 852 407 848Q386 844 374.5 825.5Q363 807 367 785Q371 762 388.5 749.0Q406 736 427 740Q447 744 459.0 762.5Q471 781 466 803Z" fill="#f19534" stroke="none" transform="scale(1,-1) translate(0,-256)" /><path d="M864 847Q842 852 823.5 839.0Q805 826 801 803Q797 781 809.5 762.0Q822 743 844 739Q866 735 885.0 748.0Q904 761 908 783Q912 806 899.5 824.5Q887 843 864 847Z" fill="#f19534" stroke="none" transform="scale(1,-1) translate(0,-256)" /><path d="M379 648Q400 668 404.5 693.5Q409 719 407.0 737.5Q405 756 405 756L441 769Q441 769 448.0 754.0Q455 739 474.5 719.5Q494 700 530.5 685.0Q567 670 627 670Q687 670 726.5 685.0Q766 700 789.0 719.5Q812 739 821.0 754.0Q830 769 830 769L863 756Q863 756 863.5 736.0Q864 716 870.5 690.0Q877 664 896 645L863 580H404Z" fill="#f19534" stroke="none" transform="scale(1,-1) translate(0,-256)" /><path d="M638 478Q845 478 944.0 470.0Q1043 462 1044 462L1041 444Q1040 444 942.0 451.5Q844 459 638 459Q431 459 333.0 451.5Q235 444 234 444L231 462Q232 462 331.0 470.0Q430 478 638 478Z" fill="#f19534" stroke="none" transform="scale(1,-1) translate(0,-256)" /></svg>