<?xml version="1.0" encoding="utf-8" ?>
<svg baseProfile="full" height="256" version="1.1" width="256" xmlns="http://www.w3.org/2000/svg" xmlns:ev="http://www.w3.org/2001/xml-events" xmlns:xlink="http://www.w3.org/1999/xlink"><defs /><path d="M1035 431Q1051 387 1059.0 327.5Q1067 268 1068.5 207.0Q1070 146 1067 98Q1067 98 1065.0 67.0Q1063 36 1058.5 -12.0Q1054 -60 1046.5 -113.5Q1039 -167 1028 -212H247Q236 -167 228.5 -114.0Q221 -61 216.5 -13.0Q212 35 210.0 66.0Q208 97 208 97Q208 98 208 98Q205 146 206.0 207.0Q207 268 215.5 327.5Q224 387 240 431Q240 431 248.0 454.0Q256 477 274.0 513.0Q292 549 321.5 589.5Q351 630 394.5 666.0Q438 702 497.0 725.0Q556 748 632 748H643Q719 748 778.0 725.0Q837 702 880.0 666.0Q923 630 953.0 589.5Q983 549 1001.0 513.0Q1019 477 1027.0 454.0Q1035 431 1035 431Z" fill="#543930" stroke="none" transform="scale(1,-1) translate(0,-256)" /><path d="M643 795Q741 795 809.0 775.5Q877 756 921.0 723.5Q965 691 989.5 652.0Q1014 613 1024.5 574.5Q1035 536 1037.0 503.5Q1039 471 1037.0 451.0Q1035 431 1035 431Q1051 380 1058.0 322.5Q1065 265 1067.0 213.5Q1069 162 1068.0 129.5Q1067 97 1067 97H983Q983 109 982.0 135.5Q981 162 978.0 194.0Q975 226 970.0 257.0Q965 288 957.5 311.0Q950 334 940 342Q925 353 899.0 372.0Q873 391 844.0 415.5Q815 440 790.0 468.5Q765 497 751 526Q751 526 725.5 505.5Q700 485 651.0 454.5Q602 424 531.0 393.0Q460 362 368 341Q348 337 333.0 314.0Q318 291 308.0 258.5Q298 226 291.5 192.5Q285 159 282.5 132.5Q280 106 280 97H208Q202 187 208.0 255.5Q214 324 222.0 368.5Q230 413 233 430Q233 430 233.5 434.0Q234 438 234 444Q234 449 232.5 454.5Q231 460 232 467Q232 495 240.5 536.5Q249 578 272.0 622.5Q295 667 340.0 706.5Q385 746 459.0 770.5Q533 795 643 795Z" fill="#543930" stroke="none" transform="scale(1,-1) translate(0,-256)" /></svg>