<?xml version="1.0" encoding="utf-8" ?>
<svg baseProfile="full" height="256" version="1.1" width="256" xmlns="http://www.w3.org/2000/svg" xmlns:ev="http://www.w3.org/2001/xml-events" xmlns:xlink="http://www.w3.org/1999/xlink"><defs /><path d="M615 849Q615 841 607.5 841.0Q600 841 599 850Q595 877 610.0 890.0Q625 903 637 903Q640 903 646.0 902.5Q652 902 654 896Q657 885 644 882Q641 881 629.5 876.5Q618 872 615 849Z" fill="#fff59d" stroke="none" transform="scale(1,-1) translate(0,-256)" /><path d="M254 443Q243 442 243 433Q242 423 260 425Q281 426 301.5 427.0Q322 428 342 429Q362 431 360 441Q359 445 353.0 448.0Q347 451 334 450Q319 449 299.5 448.0Q280 447 254 443Z" fill="#fff59d" stroke="none" transform="scale(1,-1) translate(0,-256)" /><path d="M215 754Q217 746 222.5 747.5Q228 749 228 754Q227 778 216.5 791.0Q206 804 193 808Q190 809 186.0 808.0Q182 807 180 803Q176 796 185 789Q187 788 198.5 781.5Q210 775 215 754Z" fill="#fff59d" stroke="none" transform="scale(1,-1) translate(0,-256)" /><path d="M240 674Q267 657 294.5 650.5Q322 644 343.5 643.5Q365 643 372 644Q383 646 383.5 651.0Q384 656 374 656Q354 657 332.5 661.0Q311 665 297 671Q261 684 249.5 694.0Q238 704 229 699Q221 694 228.0 686.0Q235 678 240 674Z" fill="#fff59d" stroke="none" transform="scale(1,-1) translate(0,-256)" /><path d="M1060.0 754.0Q1058.0 746.0 1052.5 747.5Q1047.0 749.0 1047.0 754.0Q1048.0 778.0 1058.5 791.0Q1069.0 804.0 1082.0 808.0Q1085.0 809.0 1089.0 808.0Q1093.0 807.0 1095.0 803.0Q1099.0 796.0 1090.0 789.0Q1088.0 788.0 1076.5 781.5Q1065.0 775.0 1060.0 754.0Z" fill="#fff59d" stroke="none" transform="scale(1,-1) translate(0,-256)" /><path d="M1035.0 674.0Q1008.0 657.0 980.5 650.5Q953.0 644.0 931.5 643.5Q910.0 643.0 903.0 644.0Q892.0 646.0 891.5 651.0Q891.0 656.0 901.0 656.0Q921.0 657.0 942.5 661.0Q964.0 665.0 978.0 671.0Q1014.0 684.0 1025.5 694.0Q1037.0 704.0 1046.0 699.0Q1054.0 694.0 1047.0 686.0Q1040.0 678.0 1035.0 674.0Z" fill="#fff59d" stroke="none" transform="scale(1,-1) translate(0,-256)" /></svg>