<?xml version="1.0" encoding="utf-8" ?>
<svg baseProfile="full" height="256" version="1.1" width="256" xmlns="http://www.w3.org/2000/svg" xmlns:ev="http://www.w3.org/2001/xml-events" xmlns:xlink="http://www.w3.org/1999/xlink"><defs /><path d="M128 452Q135 459 156.0 462.0Q177 465 201.0 464.0Q225 463 243.0 457.5Q261 452 260 442Q259 429 244.5 421.0Q230 413 199 401Q178 393 170.5 378.0Q163 363 157.5 350.5Q152 338 137 338Q127 338 122.5 353.0Q118 368 117.5 389.0Q117 410 120.0 428.0Q123 446 128 452Z" fill="#9a9a9a" stroke="none" transform="scale(1,-1) translate(0,-256)" /><path d="M652 865Q651 877 632.0 881.0Q613 885 583 883Q553 881 534.0 867.0Q515 853 512 829Q510 806 516.5 787.5Q523 769 534 769Q545 769 556.0 786.5Q567 804 582 818Q592 828 609.0 834.5Q626 841 639.0 848.5Q652 856 652 865Z" fill="#9a9a9a" stroke="none" transform="scale(1,-1) translate(0,-256)" /></svg>