<?xml version="1.0" encoding="utf-8" ?>
<svg baseProfile="full" height="256" version="1.1" width="256" xmlns="http://www.w3.org/2000/svg" xmlns:ev="http://www.w3.org/2001/xml-events" xmlns:xlink="http://www.w3.org/1999/xlink"><defs /><path d="M111 494Q116 495 145.0 495.0Q174 495 216.0 494.5Q258 494 304.5 494.0Q351 494 391.5 493.5Q432 493 457.5 493.0Q483 493 483 493Q483 493 483.0 519.5Q483 546 483.0 588.0Q483 630 483.5 678.0Q484 726 484.0 770.0Q484 814 484.0 844.0Q484 874 484 879Q484 916 513 915Q518 915 539.5 915.0Q561 915 591.5 915.0Q622 915 652.5 914.5Q683 914 705.5 914.0Q728 914 735 914Q757 915 764.5 907.5Q772 900 772 887Q772 882 772.0 852.0Q772 822 772.0 777.0Q772 732 772.0 683.0Q772 634 772.0 591.0Q772 548 772.0 521.0Q772 494 772 494Q772 494 797.5 493.5Q823 493 863.5 493.0Q904 493 950.5 492.5Q997 492 1040.0 492.0Q1083 492 1113.0 492.0Q1143 492 1150 492Q1191 494 1191 464Q1191 457 1191.0 436.5Q1191 416 1191.5 390.0Q1192 364 1192.0 340.5Q1192 317 1192 304Q1191 278 1184.5 266.5Q1178 255 1159 255Q1155 255 1125.5 255.0Q1096 255 1052.0 254.5Q1008 254 960.5 254.0Q913 254 871.0 253.5Q829 253 802.5 253.0Q776 253 776 253Q776 253 776.0 226.5Q776 200 776.0 158.0Q776 116 775.5 68.0Q775 20 775.0 -24.0Q775 -68 775.0 -98.5Q775 -129 774 -135Q773 -153 758.0 -161.0Q743 -169 723 -169Q712 -169 688.0 -169.5Q664 -170 634.5 -170.0Q605 -170 578.5 -169.5Q552 -169 537 -168Q507 -166 494.5 -150.0Q482 -134 482 -119Q482 -114 482.0 -85.0Q482 -56 482.0 -14.0Q482 28 482.0 74.5Q482 121 482.0 161.5Q482 202 482.0 227.5Q482 253 482 253Q482 253 455.5 253.0Q429 253 387.0 253.0Q345 253 297.0 253.0Q249 253 205.5 253.0Q162 253 132.5 253.5Q103 254 99 254Q87 254 84.5 265.0Q82 276 82 286Q82 291 82.0 314.5Q82 338 82.0 368.5Q82 399 82.0 425.5Q82 452 82 461Q83 479 88.5 486.5Q94 494 111 494Z" fill="#616266" stroke="none" transform="scale(1,-1) translate(0,-256)" /></svg>