<?xml version="1.0" encoding="utf-8" ?>
<svg baseProfile="full" height="256" version="1.1" width="256" xmlns="http://www.w3.org/2000/svg" xmlns:ev="http://www.w3.org/2001/xml-events" xmlns:xlink="http://www.w3.org/1999/xlink"><defs /><path d="M538 469Q538 430 544.5 405.5Q551 381 561.5 361.0Q572 341 586 316Q597 296 585.0 286.0Q573 276 550.5 276.0Q528 276 508 286Q478 300 455.5 325.0Q433 350 417 379Q407 397 401.0 422.0Q395 447 398.0 471.5Q401 496 420 511Q437 525 457.0 525.5Q477 526 495.5 517.5Q514 509 525.5 495.5Q537 482 538 469Z" fill="#ff7555" stroke="none" transform="scale(1,-1) translate(0,-256)" /><path d="M904 637Q838 702 812.5 753.5Q787 805 788.0 838.5Q789 872 804 885Q816 895 842.0 893.0Q868 891 897.5 878.5Q927 866 952 847Q1009 805 1043.5 773.5Q1078 742 1100.5 713.5Q1123 685 1143 650Q1151 637 1159.5 616.0Q1168 595 1173.0 573.5Q1178 552 1176 536Q1176 527 1172.5 518.5Q1169 510 1162 505Q1157 501 1141.0 497.0Q1125 493 1095.0 501.0Q1065 509 1018.0 540.0Q971 571 904 637Z" fill="#ff7555" stroke="none" transform="scale(1,-1) translate(0,-256)" /></svg>