<?xml version="1.0" encoding="utf-8" ?>
<svg baseProfile="full" height="256" version="1.1" width="256" xmlns="http://www.w3.org/2000/svg" xmlns:ev="http://www.w3.org/2001/xml-events" xmlns:xlink="http://www.w3.org/1999/xlink"><defs /><path d="M873 579Q878 554 865 532Q853 516 830.5 502.0Q808 488 782.5 476.5Q757 465 735.5 456.5Q714 448 702 443Q716 402 718.5 387.5Q721 373 720 369Q720 368 707.5 367.0Q695 366 679.0 365.0Q663 364 650.5 364.0Q638 364 638 365Q638 365 630.5 374.5Q623 384 613.0 397.0Q603 410 594.0 422.5Q585 435 582 441Q576 452 578.5 461.5Q581 471 585 478Q589 485 596.0 492.5Q603 500 609 505Q635 528 665.0 549.5Q695 571 721.5 588.0Q748 605 764.5 615.0Q781 625 781 625Q783 626 784 626Q800 637 811.0 646.5Q822 656 836 653Q853 639 862.0 618.0Q871 597 873 579Z" fill="#c8c8c8" stroke="none" transform="scale(1,-1) translate(0,-256)" /></svg>