<?xml version="1.0" encoding="utf-8" ?>
<svg baseProfile="full" height="256" version="1.1" width="256" xmlns="http://www.w3.org/2000/svg" xmlns:ev="http://www.w3.org/2001/xml-events" xmlns:xlink="http://www.w3.org/1999/xlink"><defs /><path d="M476 745Q476 745 474.0 746.5Q472 748 471 749Q466 757 464.5 766.0Q463 775 460 788Q459 789 458.0 793.0Q457 797 457 798Q455 801 448 801Q436 802 418.5 799.0Q401 796 387.5 793.0Q374 790 374 790Q374 790 369.0 798.0Q364 806 367 819Q370 829 383.0 840.0Q396 851 401 854Q424 870 455 873Q480 876 504.5 867.0Q529 858 545.0 839.0Q561 820 560 790Q560 769 556.0 759.5Q552 750 548.0 742.0Q544 734 543 715Q542 704 532 704Q529 703 526 704Q509 705 502.5 716.5Q496 728 496 728Q510 736 509.0 753.0Q508 770 494 771Q490 771 487.0 767.0Q484 763 482 758Z" fill="#543930" stroke="none" transform="scale(1,-1) translate(0,-256)" /></svg>