<?xml version="1.0" encoding="utf-8" ?>
<svg baseProfile="full" height="256" version="1.1" width="256" xmlns="http://www.w3.org/2000/svg" xmlns:ev="http://www.w3.org/2001/xml-events" xmlns:xlink="http://www.w3.org/1999/xlink"><defs /><path d="M763 346Q766 343 778.5 332.0Q791 321 795 313Q805 291 796 284L688 209Q684 206 678 207Q673 208 668.5 214.5Q664 221 664 221Q649 242 663 264L685 295L617 375Q616 376 616 378Q617 380 618 381L701 442Q703 443 705 443Q707 443 708 441Z" fill="#444444" stroke="none" transform="scale(1,-1) translate(0,-256)" /></svg>