<?xml version="1.0" encoding="utf-8" ?>
<svg baseProfile="full" height="256" version="1.1" width="256" xmlns="http://www.w3.org/2000/svg" xmlns:ev="http://www.w3.org/2001/xml-events" xmlns:xlink="http://www.w3.org/1999/xlink"><defs /><path d="M615 99 584 194 841 327 1001 231Q1001 231 984.5 216.5Q968 202 946.0 181.5Q924 161 905.0 142.5Q886 124 881 117Q870 102 863.0 81.0Q856 60 849 39Q843 17 822.0 -8.0Q801 -33 785 -53Q768 -72 756.5 -94.5Q745 -117 736 -125Q727 -133 718.5 -139.5Q710 -146 710 -146L638 -134Q638 -134 644.5 -118.5Q651 -103 662 -92Q674 -81 686.0 -76.5Q698 -72 708 -64Q718 -56 731.0 -41.5Q744 -27 757 -11Q769 6 771.5 20.5Q774 35 774 45Q775 51 775.5 70.0Q776 89 776.5 106.0Q777 123 777 123Q777 123 758.5 117.0Q740 111 716.5 105.0Q693 99 676 98Q650 97 632.5 98.0Q615 99 615 99Z" fill="#a95531" stroke="none" transform="scale(1,-1) translate(0,-256)" /><path d="M420 305 501 288 557 131Q557 131 545.5 124.0Q534 117 521.5 110.5Q509 104 504 105Q496 107 486.0 117.5Q476 128 476 128Q476 128 471.5 118.0Q467 108 463 105Q459 102 450.0 101.5Q441 101 407 101Q385 100 361.0 101.0Q337 102 320.0 102.0Q303 102 302 101Q299 100 300.5 73.5Q302 47 303 21Q304 4 301.5 -1.5Q299 -7 299 -7L295 -32L246 -59Q246 -59 239.5 -49.5Q233 -40 228 -14Q223 13 232.5 33.5Q242 54 243 68Q245 82 243.5 91.5Q242 101 239 119Q237 136 238.5 146.0Q240 156 252 165Q264 174 274.5 171.5Q285 169 296 170Q303 171 317.5 175.5Q332 180 350 183Q368 187 379.5 188.5Q391 190 391 190L393 265Z" fill="#a95531" stroke="none" transform="scale(1,-1) translate(0,-256)" /><path d="M351 366Q351 366 342.5 377.5Q334 389 323.5 401.0Q313 413 305 416Q302 417 290.0 412.5Q278 408 264.5 401.0Q251 394 240.5 389.0Q230 384 230 384L206 362Q206 362 206.0 369.0Q206 376 206 383Q206 389 209.0 397.5Q212 406 212 406Q212 406 226.5 416.5Q241 427 259.0 439.5Q277 452 288 458Q298 464 307.0 482.5Q316 501 322.0 517.5Q328 534 328 534Q328 534 332.0 520.5Q336 507 340.5 488.5Q345 470 347 455Q351 422 351.0 394.0Q351 366 351 366Z" fill="#a95531" stroke="none" transform="scale(1,-1) translate(0,-256)" /><path d="M298 621Q298 621 306.5 617.5Q315 614 329 613Q342 613 348.0 616.0Q354 619 354 619Q354 619 351.5 619.5Q349 620 345 622Q341 624 342.0 629.0Q343 634 345 638Q348 642 352.0 652.5Q356 663 356 663Q356 663 347.5 654.5Q339 646 335 643Q332 641 323.5 635.5Q315 630 306.5 625.5Q298 621 298 621Z" fill="#a95531" stroke="none" transform="scale(1,-1) translate(0,-256)" /></svg>