<?xml version="1.0" encoding="utf-8" ?>
<svg baseProfile="full" height="256" version="1.1" width="256" xmlns="http://www.w3.org/2000/svg" xmlns:ev="http://www.w3.org/2001/xml-events" xmlns:xlink="http://www.w3.org/1999/xlink"><defs /><path d="M771 -41 826 -74Q826 -74 832.0 -71.0Q838 -68 847 -60Q855 -53 858.0 -45.5Q861 -38 880 -27Q893 -19 910.0 -15.0Q927 -11 940 -6Q954 -1 959.0 6.5Q964 14 966 23Q968 31 967.5 48.0Q967 65 970 85Q974 106 989.0 128.0Q1004 150 1009 159Q1013 165 1024.0 182.5Q1035 200 1044.5 231.0Q1054 262 1054 307Q1053 352 1034.5 386.5Q1016 421 990.5 441.5Q965 462 944 465Q930 468 909.5 465.5Q889 463 873.0 460.5Q857 458 857 458L844 417L688 399L616 467L496 486L441 560Q441 560 430.5 569.0Q420 578 404 591Q388 603 370.5 611.5Q353 620 353 620L329 619L325 627Q325 627 337.0 638.5Q349 650 356 663Q363 677 360.0 683.0Q357 689 352 689Q347 689 344.0 683.5Q341 678 330 672Q320 666 303.5 658.5Q287 651 276 648Q266 646 258.0 642.5Q250 639 250 639L233 628Q233 628 222.5 625.0Q212 622 196 614Q181 606 175.0 598.0Q169 590 156 563Q149 547 141.0 528.5Q133 510 127.0 495.5Q121 481 119 477Q116 472 110.5 463.0Q105 454 97 442Q90 431 82.0 416.0Q74 401 72 389Q71 381 85.0 369.5Q99 358 119.5 348.5Q140 339 157.5 333.5Q175 328 180 331Q190 337 198.5 351.0Q207 365 207 365L218 388L308 443Q308 443 317.0 427.0Q326 411 336.0 392.0Q346 373 351 366Q357 355 361.5 346.5Q366 338 370 327Q374 316 375.5 307.0Q377 298 377 272Q377 247 377.5 223.5Q378 200 395 179Q413 158 431.0 150.5Q449 143 453 149Q457 155 445.0 171.0Q433 187 427 200Q423 209 416.5 228.0Q410 247 407.5 262.5Q405 278 414 279Q419 279 430.5 265.5Q442 252 455.5 231.5Q469 211 482.0 190.0Q495 169 503.0 154.0Q511 139 511 136Q512 130 504.5 121.5Q497 113 488 105Q478 96 466.0 81.5Q454 67 450 63Q446 59 434.0 52.5Q422 46 416 40Q411 33 411.0 20.5Q411 8 414 -18Q415 -26 422.5 -35.0Q430 -44 437 -46Q443 -49 465.0 -48.0Q487 -47 506 -52Q525 -56 534.5 -62.5Q544 -69 564 -69Q584 -68 592.5 -60.0Q601 -52 601 -52L611 -5L565 12Q565 12 554.5 10.0Q544 8 533 6Q522 4 509.0 8.0Q496 12 496 12Q496 12 505.0 18.0Q514 24 525.0 32.0Q536 40 543 43Q561 54 604 74Q626 85 627.5 97.5Q629 110 629 125Q628 136 626.0 150.0Q624 164 623.0 175.5Q622 187 624 190Q627 192 633.0 182.0Q639 172 649.0 159.5Q659 147 672 142Q692 134 716.0 135.0Q740 136 775 156Q792 167 810.0 184.5Q828 202 842.5 220.5Q857 239 866.5 252.0Q876 265 876 265Q876 265 875.5 248.0Q875 231 876.0 207.0Q877 183 879.0 160.5Q881 138 885 127Q894 105 895.0 82.0Q896 59 894 53Q891 47 879.0 38.0Q867 29 853 20Q843 14 837.0 12.0Q831 10 824.0 8.0Q817 6 804 -2Q784 -14 777.5 -27.5Q771 -41 771 -41Z" fill="#d17858" stroke="none" transform="scale(1,-1) translate(0,-256)" /></svg>