<?xml version="1.0" encoding="utf-8" ?>
<svg baseProfile="full" height="256" version="1.1" width="256" xmlns="http://www.w3.org/2000/svg" xmlns:ev="http://www.w3.org/2001/xml-events" xmlns:xlink="http://www.w3.org/1999/xlink"><defs /><path d="M-355.7154541015625 335.2215576171875Q-357.78211975097656 339.57603454589844 -365.84044647216797 348.52979278564453Q-373.8987731933594 357.4835510253906 -373.8987731933594 357.4835510253906Q-373.8987731933594 357.4835510253906 -370.38323974609375 366.34356689453125Q-366.8677062988281 375.2035827636719 -354.96141815185547 387.42322540283203Q-343.0551300048828 399.6428680419922 -317.85516357421875 410.74786376953125Q-297.9808654785156 418.7588806152344 -281.27525329589844 414.57630920410156Q-264.56964111328125 410.39373779296875 -251.72640991210938 400.6847229003906Q-238.8831787109375 390.9757080078125 -231.91358947753906 382.14695739746094Q-224.94400024414062 373.3182067871094 -224.94400024414062 373.3182067871094L-218.67417907714844 346.66004943847656Q-218.67417907714844 346.66004943847656 -213.45211029052734 337.82608795166016Q-208.23004150390625 328.99212646484375 -204.5543670654297 319.5122833251953Q-201.28094482421875 311.31378173828125 -201.1557159423828 299.7712860107422Q-201.03048706054688 288.2287902832031 -205.6070556640625 280.5198974609375Q-210.6412811279297 272.0401153564453 -215.85614013671875 273.05059814453125Q-221.0709991455078 274.0610809326172 -221.0709991455078 274.0610809326172Q-221.0709991455078 274.0610809326172 -226.59058380126953 263.78429412841797Q-232.11016845703125 253.50750732421875 -245.3412322998047 248.8509063720703Q-254.1619415283203 245.7465057373047 -265.7912063598633 243.78801727294922Q-277.42047119140625 241.82952880859375 -295.5339660644531 250.49679565429688Q-305.0483703613281 254.05953979492188 -314.9445343017578 267.7532196044922Q-324.8406982421875 281.4468994140625 -331.92830657958984 293.99466705322266Q-339.0159149169922 306.5424346923828 -339.0159149169922 306.5424346923828Z" fill="#000000" stroke="none" transform="scale(1,-1) translate(0,-256)" /><path d="M476 527 469 469Q469 466 466 465Q465 465 453.0 463.0Q441 461 427.0 460.0Q413 459 404 461Q400 462 398.0 462.0Q396 462 393 463Q389 465 385.0 468.0Q381 471 381 474Q380 478 381.0 480.5Q382 483 382 483Q382 483 379.5 485.5Q377 488 377 494Q376 500 382 505Q377 510 377 517Q378 524 384 529Q386 530 385 532Q382 536 384 541Q385 547 390 550Q396 553 411 552Q416 551 432.0 545.5Q448 540 462.0 534.5Q476 529 476 527Z" fill="#000000" stroke="none" transform="scale(1,-1) translate(0,-256)" /><path d="M475 527 469 469Q469 466 466 465Q465 465 453.5 463.0Q442 461 427.5 459.5Q413 458 404 461Q402 461 398.5 461.5Q395 462 395 463Q392 470 396.5 473.0Q401 476 401 479Q400 481 396.0 482.5Q392 484 392 490Q393 497 397.5 497.5Q402 498 402 502Q402 505 399.0 507.0Q396 509 396 515Q396 524 400.0 525.0Q404 526 404 529Q405 531 402.5 532.5Q400 534 401 542Q401 547 405.0 549.5Q409 552 422 552Q423 552 417.5 555.5Q412 559 414 567Q415 569 424.5 569.0Q434 569 440 568Q452 565 456.5 561.0Q461 557 465 549Q476 530 475 527Z" fill="#000000" stroke="none" transform="scale(1,-1) translate(0,-256)" /></svg>