<?xml version="1.0" encoding="utf-8" ?>
<svg baseProfile="full" height="256" version="1.1" width="256" xmlns="http://www.w3.org/2000/svg" xmlns:ev="http://www.w3.org/2001/xml-events" xmlns:xlink="http://www.w3.org/1999/xlink"><defs /><path d="M836 653Q836 653 820.0 645.0Q804 637 792 631Q784 627 767.0 616.0Q750 605 733.5 594.0Q717 583 711 579Q698 568 685.5 568.5Q673 569 657 571Q642 573 621.5 577.5Q601 582 601 582Q601 582 602.0 563.0Q603 544 600.0 518.5Q597 493 587 475Q582 468 566.5 464.0Q551 460 532.0 458.5Q513 457 498 457Q475 457 470.0 461.0Q465 465 465 465Q465 465 466.0 475.5Q467 486 468 499Q469 513 472.0 520.0Q475 527 475 527L510 538Q510 538 505.5 554.0Q501 570 499 591Q496 613 495.0 632.0Q494 651 494 651Q494 651 503.0 654.0Q512 657 521 671Q530 684 533.0 701.0Q536 718 542 727Q549 735 573.5 738.0Q598 741 662 735Q693 732 724.5 719.0Q756 706 781.0 691.0Q806 676 821.0 664.5Q836 653 836 653Z" fill="#ff8e00" stroke="none" transform="scale(1,-1) translate(0,-256)" /></svg>