<?xml version="1.0" encoding="utf-8" ?>
<svg baseProfile="full" height="256" version="1.1" width="256" xmlns="http://www.w3.org/2000/svg" xmlns:ev="http://www.w3.org/2001/xml-events" xmlns:xlink="http://www.w3.org/1999/xlink"><defs /><path d="M807 -118Q830 -125 845.5 -144.5Q861 -164 861 -190V-192Q861 -201 855.0 -206.5Q849 -212 841 -212H775H173H107Q99 -212 93.0 -206.5Q87 -201 87 -192V-190Q87 -164 102.0 -144.5Q117 -125 141 -118V688Q141 750 171.0 801.0Q201 852 252.0 882.5Q303 913 365 913H583Q645 913 696.0 882.5Q747 852 777.0 801.0Q807 750 807 688Z" fill="#f44336" stroke="none" transform="scale(1,-1) translate(0,-256)" /><path d="M1011 752Q999 758 993 747L974 712Q974 712 967.0 704.0Q960 696 952.0 686.5Q944 677 941 672Q939 667 932.0 656.5Q925 646 922.0 627.0Q919 608 927 575L964 432Q966 423 974.0 418.0Q982 413 991 415L1043 428Q1053 430 1054.0 437.0Q1055 444 1052 454L1022 572Q1020 583 1025.0 592.0Q1030 601 1041 604L1106 620L1103 630Q1096 658 1074 675L1053 691L1062 709Q1067 720 1056 726Z" fill="#f44336" stroke="none" transform="scale(1,-1) translate(0,-256)" /></svg>