<?xml version="1.0" encoding="utf-8" ?>
<svg baseProfile="full" height="256" version="1.1" width="256" xmlns="http://www.w3.org/2000/svg" xmlns:ev="http://www.w3.org/2001/xml-events" xmlns:xlink="http://www.w3.org/1999/xlink"><defs /><path d="M178 747Q176 738 182 730Q187 722 197 720Q207 719 215 724Q222 730 224 739Q230 772 255 796Q285 824 334 824Q343 824 350 831Q357 838 357 847Q357 857 350 864Q343 871 334 871Q267 871 223 830Q187 796 178 747Z" fill="#ff7555" stroke="none" transform="scale(1,-1) translate(0,-256)" /><path d="M1030 658Q1039 654 1045 656Q1051 658 1056 667Q1064 683 1047 692L1002 714Q993 719 987 716Q981 714 977 706Q968 689 985 681Z" fill="#ff7555" stroke="none" transform="scale(1,-1) translate(0,-256)" /></svg>