<?xml version="1.0" encoding="utf-8" ?>
<svg baseProfile="full" height="256" version="1.1" width="256" xmlns="http://www.w3.org/2000/svg" xmlns:ev="http://www.w3.org/2001/xml-events" xmlns:xlink="http://www.w3.org/1999/xlink"><defs /><path d="M795 424Q808 424 825.5 434.0Q843 444 843 458Q843 463 843.0 488.0Q843 513 843.0 547.0Q843 581 843.0 615.0Q843 649 843.0 674.5Q843 700 843 707Q843 725 825.5 733.0Q808 741 795 741Q782 741 783.5 731.0Q785 721 785 707V458Q785 444 783.5 434.0Q782 424 795 424Z" fill="#82aec0" stroke="none" transform="scale(1,-1) translate(0,-256)" /><path d="M264 509Q269 562 272.5 615.0Q276 668 278 721Q278 723 279 725Q281 731 286.0 735.5Q291 740 298 740Q299 740 324.0 740.0Q349 740 388.5 740.0Q428 740 471.5 740.0Q515 740 554.0 740.0Q593 740 618.5 740.0Q644 740 645 740Q651 740 656.5 735.5Q662 731 664 725Q665 722 665 721Q667 668 670.5 615.0Q674 562 679 509Q679 505 683.0 505.0Q687 505 687 509Q692 560 695.5 611.5Q699 663 701 714Q705 742 686.0 763.0Q667 784 638 782Q471 786 305 781Q276 783 257.0 762.5Q238 742 242 714Q244 663 247.0 611.5Q250 560 256 509Q256 506 259.5 506.0Q263 506 264 509Z" fill="#82aec0" stroke="none" transform="scale(1,-1) translate(0,-256)" /></svg>