<?xml version="1.0" encoding="utf-8" ?>
<svg baseProfile="full" height="256" version="1.1" width="256" xmlns="http://www.w3.org/2000/svg" xmlns:ev="http://www.w3.org/2001/xml-events" xmlns:xlink="http://www.w3.org/1999/xlink"><defs /><path d="M966 93Q966 93 970.5 126.5Q975 160 977.0 214.5Q979 269 970.5 334.5Q962 400 937 464Q928 485 894.0 500.0Q860 515 809.5 523.0Q759 531 700.5 532.0Q642 533 583.5 528.0Q525 523 475.0 511.0Q425 499 391.5 480.5Q358 462 350 438Q316 329 308.5 251.5Q301 174 304.5 133.5Q308 93 308 93Q308 93 324.0 79.5Q340 66 370.0 46.0Q400 26 440.5 6.5Q481 -13 531.0 -26.5Q581 -40 637 -40Q693 -40 743.0 -26.5Q793 -13 834.0 6.5Q875 26 904.5 46.0Q934 66 950.0 79.5Q966 93 966 93Z" fill="#424242" stroke="none" transform="scale(1,-1) translate(0,-256)" /><path d="M1189 462Q1200 469 1200.0 482.0Q1200 495 1189 501L657 818Q638 830 619 818L86 501Q75 495 75.0 482.0Q75 469 86 462L618 145Q637 134 656 145Z" fill="#424242" stroke="none" transform="scale(1,-1) translate(0,-256)" /><path d="M370 293 325 320 327 351Q327 351 345.5 365.0Q364 379 393.0 401.0Q422 423 455.0 447.0Q488 471 517.5 492.5Q547 514 566.0 526.5Q585 539 587 537Q590 532 606.0 522.5Q622 513 638 511Q664 508 676.0 519.5Q688 531 688 531Q688 531 692.0 522.0Q696 513 682 497Q674 488 658.0 477.5Q642 467 625 458Q619 454 591.0 438.5Q563 423 526.5 403.0Q490 383 455.0 364.0Q420 345 396.5 332.5Q373 320 373 320Z" fill="#424242" stroke="none" transform="scale(1,-1) translate(0,-256)" /></svg>