<?xml version="1.0" encoding="utf-8" ?>
<svg baseProfile="full" height="256" version="1.1" width="256" xmlns="http://www.w3.org/2000/svg" xmlns:ev="http://www.w3.org/2001/xml-events" xmlns:xlink="http://www.w3.org/1999/xlink"><defs /><path d="M688 531Q688 531 687.5 519.5Q687 508 665 494Q661 491 638.5 480.5Q616 470 583.5 454.5Q551 439 514.5 422.0Q478 405 445.0 389.5Q412 374 389.0 363.5Q366 353 362 350Q354 346 347.5 342.0Q341 338 335 332Q330 327 325.5 322.0Q321 317 315 313Q307 306 294.5 307.5Q282 309 275 318Q260 336 272.5 353.0Q285 370 301 381Q325 398 361.0 421.0Q397 444 436.5 468.0Q476 492 510.5 512.5Q545 533 566.5 546.0Q588 559 588 559Q588 551 591.0 538.5Q594 526 594 526Q594 526 581.0 518.5Q568 511 550.5 500.5Q533 490 519.0 481.0Q505 472 502 468Q499 465 510.0 468.5Q521 472 538.5 479.0Q556 486 574.0 494.0Q592 502 604.0 507.0Q616 512 616 512Q616 512 629.0 510.0Q642 508 659.0 511.0Q676 514 688 531Z" fill="#ffca28" stroke="none" transform="scale(1,-1) translate(0,-256)" /></svg>