<?xml version="1.0" encoding="utf-8" ?>
<svg baseProfile="full" height="256" version="1.1" width="256" xmlns="http://www.w3.org/2000/svg" xmlns:ev="http://www.w3.org/2001/xml-events" xmlns:xlink="http://www.w3.org/1999/xlink"><defs /><path d="M637.375 168.0V140.0Q637.375 140.0 637.375 140.0Q637.375 140.0 637.375 140.0Q648.375 140.0 656.375 145.0L1189.375 462.0Q1191.375 463.0 1193.875 466.0Q1196.375 469.0 1198.375 476.0Q1200.375 483.0 1199.375 486.5Q1198.375 490.0 1198.375 490.0L642.375 169.0Q640.375 168.0 637.375 168.0Q637.375 168.0 637.375 168.0Q637.375 168.0 637.375 168.0Z" fill="#616161" stroke="none" transform="scale(1,-1) translate(0,-256)" /><path d="M966 93Q966 93 956.5 84.5Q947 76 929 63Q937 92 942.5 129.0Q948 166 952.0 198.5Q956 231 958 246Q962 273 966.0 280.5Q970 288 973.0 284.0Q976 280 976 272Q979 226 976.5 185.0Q974 144 970.0 118.5Q966 93 966 93Z" fill="#616161" stroke="none" transform="scale(1,-1) translate(0,-256)" /><path d="M654 605Q631 612 609.5 597.0Q588 582 589 558Q590 550 593 546Q598 539 610 538Q624 538 636.5 546.0Q649 554 659 565Q663 570 666.5 577.0Q670 584 669 591Q666 601 654 605Z" fill="#616161" stroke="none" transform="scale(1,-1) translate(0,-256)" /></svg>