<?xml version="1.0" encoding="utf-8" ?>
<svg baseProfile="full" height="256" version="1.1" width="256" xmlns="http://www.w3.org/2000/svg" xmlns:ev="http://www.w3.org/2001/xml-events" xmlns:xlink="http://www.w3.org/1999/xlink"><defs /><path d="M688 531Q688 531 687.5 519.5Q687 508 665 494Q661 491 639.0 480.5Q617 470 584.0 454.5Q551 439 514.5 422.0Q478 405 445.0 389.5Q412 374 389.0 363.5Q366 353 362 350Q348 342 335.5 332.5Q323 323 318 296Q317 290 315.5 268.5Q314 247 313 228Q312 220 318 215Q335 200 335 179Q335 156 317 141Q313 138 312.5 133.0Q312 128 313 123Q316 110 325.0 86.5Q334 63 337 25Q338 11 340.0 -14.5Q342 -40 344.0 -68.5Q346 -97 347.5 -121.5Q349 -146 350 -158Q353 -183 348.5 -189.0Q344 -195 339 -195Q331 -196 327.5 -189.5Q324 -183 323.0 -176.0Q322 -169 322 -169Q322 -169 320.0 -176.5Q318 -184 311.5 -191.5Q305 -199 290 -199Q275 -199 268.5 -191.5Q262 -184 261.0 -176.5Q260 -169 260 -169Q260 -169 259.0 -177.0Q258 -185 253.5 -191.0Q249 -197 238 -191Q233 -189 233.0 -181.5Q233 -174 233 -169Q233 -145 233.5 -122.0Q234 -99 234 -76Q229 -101 222.5 -126.0Q216 -151 204 -174Q202 -179 196 -179Q194 -179 192 -178Q183 -173 188 -165Q210 -121 217.5 -71.5Q225 -22 233 26Q235 33 236.0 40.5Q237 48 239 55Q242 64 245.5 73.0Q249 82 252 90Q259 105 258 121Q257 126 257.0 132.5Q257 139 253 142Q237 157 237 179Q237 201 254 216Q260 221 260 228Q260 248 260.0 274.5Q260 301 260 311Q260 333 269.0 350.5Q278 368 308 385Q331 398 366.0 419.5Q401 441 439.5 465.0Q478 489 512.0 510.5Q546 532 567.0 545.5Q588 559 588 559Q588 551 591.0 538.5Q594 526 594 526Q594 526 577.0 517.0Q560 508 538.0 495.5Q516 483 500.0 472.5Q484 462 486 458Q488 455 502.0 459.5Q516 464 536.0 472.5Q556 481 575.5 490.0Q595 499 608.0 505.0Q621 511 621 511Q621 511 632.5 509.0Q644 507 659.5 510.0Q675 513 688 531Z" fill="#e2a610" stroke="none" transform="scale(1,-1) translate(0,-256)" /></svg>