<?xml version="1.0" encoding="utf-8" ?>
<svg baseProfile="full" height="256" version="1.1" width="256" xmlns="http://www.w3.org/2000/svg" xmlns:ev="http://www.w3.org/2001/xml-events" xmlns:xlink="http://www.w3.org/1999/xlink"><defs /><path d="M1184 889Q1184 889 1188.5 883.0Q1193 877 1193.5 862.5Q1194 848 1183 823Q1162 774 1044.5 627.5Q927 481 700 247L657 203Q657 203 642.5 208.0Q628 213 604.5 227.0Q581 241 554 268Q528 295 520.0 311.5Q512 328 513.5 335.5Q515 343 515 343Q515 343 533.0 367.0Q551 391 594 434Q719 563 826.0 657.5Q933 752 1009.5 809.5Q1086 867 1118 886Q1142 900 1156.5 899.5Q1171 899 1177.5 894.0Q1184 889 1184 889Z" fill="#1565c0" stroke="none" transform="scale(1,-1) translate(0,-256)" /></svg>