<?xml version="1.0" encoding="utf-8" ?>
<svg baseProfile="full" height="256" version="1.1" width="256" xmlns="http://www.w3.org/2000/svg" xmlns:ev="http://www.w3.org/2001/xml-events" xmlns:xlink="http://www.w3.org/1999/xlink"><defs /><path d="M554 268Q557 271 556 277Q555 280 552 286Q541 303 527 318Q521 323 514.5 327.0Q508 331 503 321Q498 310 503 296Q514 269 540 264Q550 263 554 267Q554 267 554.0 267.5Q554 268 554 268Z" fill="#eeeeee" stroke="none" transform="scale(1,-1) translate(0,-256)" /><path d="M447 229Q432 212 418.0 193.0Q404 174 393 155Q389 148 387.0 141.5Q385 135 388 128Q392 119 400.0 112.0Q408 105 417 113Q433 127 448.5 141.0Q464 155 480 169Q484 172 487.5 176.0Q491 180 494 184Q499 196 492.5 208.0Q486 220 476 229Q473 232 469.5 234.5Q466 237 462 237Q457 237 453.5 234.5Q450 232 447 229Z" fill="#eeeeee" stroke="none" transform="scale(1,-1) translate(0,-256)" /></svg>