<?xml version="1.0" encoding="utf-8" ?>
<svg baseProfile="full" height="256" version="1.1" width="256" xmlns="http://www.w3.org/2000/svg" xmlns:ev="http://www.w3.org/2001/xml-events" xmlns:xlink="http://www.w3.org/1999/xlink"><defs /><path d="M582 269Q622 230 642.5 219.5Q663 209 663 209Q663 209 656.5 200.0Q650 191 641 183Q627 172 618.0 169.0Q609 166 609 166L463 42Q463 42 454.0 39.5Q445 37 428.5 42.5Q412 48 389 70Q366 92 360.5 108.5Q355 125 356.5 134.0Q358 143 358 143L478 293Q478 293 481.0 302.0Q484 311 495 325Q502 335 511.0 341.5Q520 348 520 348Q520 348 531.0 328.0Q542 308 582 269Z" fill="#bdbdbd" stroke="none" transform="scale(1,-1) translate(0,-256)" /></svg>