<?xml version="1.0" encoding="utf-8" ?>
<svg baseProfile="full" height="256" version="1.1" width="256" xmlns="http://www.w3.org/2000/svg" xmlns:ev="http://www.w3.org/2001/xml-events" xmlns:xlink="http://www.w3.org/1999/xlink"><defs /><path d="M615 392Q612 399 622.5 415.5Q633 432 647.5 450.0Q662 468 673 478Q704 511 742.0 547.5Q780 584 811 609Q822 617 843.5 634.5Q865 652 888.0 665.5Q911 679 925 676Q933 675 925.5 662.5Q918 650 902.0 632.0Q886 614 866.5 595.0Q847 576 831.5 561.0Q816 546 810 541Q800 529 778.5 507.0Q757 485 731.0 460.5Q705 436 680.5 416.5Q656 397 638.0 388.5Q620 380 615 392Z" fill="#2196f3" stroke="none" transform="scale(1,-1) translate(0,-256)" /></svg>