<?xml version="1.0" encoding="utf-8" ?>
<svg baseProfile="full" height="256" version="1.1" width="256" xmlns="http://www.w3.org/2000/svg" xmlns:ev="http://www.w3.org/2001/xml-events" xmlns:xlink="http://www.w3.org/1999/xlink"><defs /><path d="M411 159Q434 174 448.0 170.0Q462 166 470.0 151.0Q478 136 481.5 118.0Q485 100 486.0 87.0Q487 74 487 74Q462 57 452.0 34.5Q442 12 436.5 -14.0Q431 -40 419.5 -69.0Q408 -98 380 -128Q347 -164 306.0 -176.5Q265 -189 224.5 -187.0Q184 -185 150 -178Q127 -173 104.5 -158.0Q82 -143 68.0 -129.5Q54 -116 54 -116Q54 -116 68.5 -108.0Q83 -100 100.0 -86.0Q117 -72 122 -54Q132 -19 140.5 5.0Q149 29 158 43Q185 85 217.5 102.0Q250 119 284.0 124.5Q318 130 350.5 135.5Q383 141 411 159Z" fill="#f09300" stroke="none" transform="scale(1,-1) translate(0,-256)" /></svg>