<?xml version="1.0" encoding="utf-8" ?>
<svg baseProfile="full" height="256" version="1.1" width="256" xmlns="http://www.w3.org/2000/svg" xmlns:ev="http://www.w3.org/2001/xml-events" xmlns:xlink="http://www.w3.org/1999/xlink"><defs /><path d="M422 135Q444 117 456 90Q462 79 463.5 65.5Q465 52 457 42Q450 33 438.0 30.5Q426 28 415 30Q387 34 367.0 57.0Q347 80 346 109Q346 116 348.0 123.5Q350 131 355 136Z" fill="#c67100" stroke="none" transform="scale(1,-1) translate(0,-256)" /><path d="M380 -128Q347 -164 306.0 -176.5Q265 -189 224.0 -187.0Q183 -185 150 -178Q126 -173 104.0 -157.5Q82 -142 68.0 -128.5Q54 -115 54 -115Q54 -115 68.5 -107.5Q83 -100 99.5 -86.0Q116 -72 122 -53Q132 -19 140.5 5.0Q149 29 158 43Q158 43 160.0 28.5Q162 14 161.0 -8.5Q160 -31 151.0 -56.5Q142 -82 121 -105Q161 -92 183.0 -67.0Q205 -42 230 3Q228 -47 211.5 -76.0Q195 -105 179.0 -117.0Q163 -129 163 -129Q188 -127 212.5 -114.5Q237 -102 257.0 -86.5Q277 -71 289.5 -59.5Q302 -48 302 -48Q290 -87 272.0 -110.0Q254 -133 236.0 -145.0Q218 -157 206.0 -160.5Q194 -164 194 -164Q230 -170 263.0 -165.0Q296 -160 322.5 -151.5Q349 -143 364.5 -135.5Q380 -128 380 -128Z" fill="#c67100" stroke="none" transform="scale(1,-1) translate(0,-256)" /></svg>