<?xml version="1.0" encoding="utf-8" ?>
<svg baseProfile="full" height="256" version="1.1" width="256" xmlns="http://www.w3.org/2000/svg" xmlns:ev="http://www.w3.org/2001/xml-events" xmlns:xlink="http://www.w3.org/1999/xlink"><defs /><path d="M698 280Q706 285 714.5 287.5Q723 290 731 291Q725 293 719.0 296.5Q713 300 707 306Q699 305 693 302Q675 293 663.5 280.5Q652 268 646 253Q652 251 657.0 249.5Q662 248 668 246Q678 264 698 280Z" fill="#ffb600" stroke="none" transform="scale(1,-1) translate(0,-256)" /><path d="M536 45Q530 30 531 16Q548 29 564.5 29.0Q581 29 597 23Q596 28 594.5 34.0Q593 40 592 45Q579 51 565.0 52.0Q551 53 536 45Z" fill="#ffb600" stroke="none" transform="scale(1,-1) translate(0,-256)" /></svg>