<?xml version="1.0" encoding="utf-8" ?>
<svg baseProfile="full" height="256" version="1.1" width="256" xmlns="http://www.w3.org/2000/svg" xmlns:ev="http://www.w3.org/2001/xml-events" xmlns:xlink="http://www.w3.org/1999/xlink"><defs /><path d="M644 850Q664 819 667.5 781.5Q671 744 661.5 707.0Q652 670 635 642Q634 639 633 638Q574 531 442 519Q435 519 429 519Q398 519 374.5 532.0Q351 545 342 569Q333 594 343.5 620.0Q354 646 381 666Q399 680 402.5 691.5Q406 703 404 730Q399 787 414 827Q427 859 456.0 880.0Q485 901 522 905Q559 909 591.5 894.0Q624 879 644 850Z" fill="#543930" stroke="none" transform="scale(1,-1) translate(0,-256)" /><path d="M418 692Q423 683 436.0 677.0Q449 671 458 666L449 719Q449 728 448.0 744.0Q447 760 453 766Q461 773 478.0 789.0Q495 805 502 822Q502 822 515.0 813.5Q528 805 553.0 795.0Q578 785 613 780Q623 779 627.0 769.5Q631 760 632.0 749.5Q633 739 633 735Q635 720 633.0 704.5Q631 689 629 678Q627 667 632.0 674.0Q637 681 645 702Q653 723 654.5 738.5Q656 754 656 754L653 793Q653 793 650.0 809.0Q647 825 635.0 846.0Q623 867 597.5 881.0Q572 895 527 891Q488 888 466.0 871.5Q444 855 434.0 834.0Q424 813 421.0 795.5Q418 778 417 772Q416 759 418.5 743.0Q421 727 418 692Z" fill="#543930" stroke="none" transform="scale(1,-1) translate(0,-256)" /></svg>