<?xml version="1.0" encoding="utf-8" ?>
<svg baseProfile="full" height="256" version="1.1" width="256" xmlns="http://www.w3.org/2000/svg" xmlns:ev="http://www.w3.org/2001/xml-events" xmlns:xlink="http://www.w3.org/1999/xlink"><defs /><path d="M567 763Q565 760 567 758Q569 755 573 757Q575 758 579.0 760.0Q583 762 589 762Q596 763 600.0 762.0Q604 761 606 760Q610 759 611 762Q613 764 611 767Q609 769 603.5 772.0Q598 775 588 774Q578 773 573.5 769.5Q569 766 567 763Z" fill="#6d4c41" stroke="none" transform="scale(1,-1) translate(0,-256)" /><path d="M467 754Q465 752 467 749Q469 747 473 748Q475 749 479.0 751.0Q483 753 489 754Q496 754 500.0 753.0Q504 752 506 751Q510 750 512 753Q513 756 511 758Q509 760 503.5 763.0Q498 766 488 765Q479 764 474.0 760.5Q469 757 467 754Z" fill="#6d4c41" stroke="none" transform="scale(1,-1) translate(0,-256)" /></svg>