<?xml version="1.0" encoding="utf-8" ?>
<svg baseProfile="full" height="256" version="1.1" width="256" xmlns="http://www.w3.org/2000/svg" xmlns:ev="http://www.w3.org/2001/xml-events" xmlns:xlink="http://www.w3.org/1999/xlink"><defs /><path d="M727.4596405029297 657.2824859619141Q727.4596405029297 672.7823638916016 721.6471862792969 686.3447570800781Q715.8347320556641 699.9071502685547 705.5273132324219 710.2145690917969Q695.2198944091797 720.5219879150391 681.6575012207031 726.3344421386719Q668.0951080322266 732.1468963623047 652.4402313232422 732.1468963623047Q636.9403533935547 732.1468963623047 623.3779602050781 726.3344421386719Q609.8155670166016 720.5219879150391 599.5081481933594 710.2145690917969Q589.2007293701172 699.9071502685547 583.3882751464844 686.3447570800781Q577.5758209228516 672.7823638916016 577.5758209228516 657.2824859619141Q577.5758209228516 641.6276092529297 583.3882751464844 628.0652160644531Q589.2007293701172 614.5028228759766 599.5081481933594 604.1954040527344Q609.8155670166016 593.8879852294922 623.3779602050781 588.0755310058594Q636.9403533935547 582.2630767822266 652.4402313232422 582.2630767822266Q668.0951080322266 582.2630767822266 681.6575012207031 588.0755310058594Q695.2198944091797 593.8879852294922 705.5273132324219 604.1954040527344Q715.8347320556641 614.5028228759766 721.6471862792969 628.0652160644531Q727.4596405029297 641.6276092529297 727.4596405029297 657.2824859619141Z" fill="#94d1e0" stroke="none" transform="scale(1,-1) translate(0,-256)" /></svg>