<?xml version="1.0" encoding="utf-8" ?>
<svg baseProfile="full" height="256" version="1.1" width="256" xmlns="http://www.w3.org/2000/svg" xmlns:ev="http://www.w3.org/2001/xml-events" xmlns:xlink="http://www.w3.org/1999/xlink"><defs /><path d="M473 225Q473 225 473.0 225.5Q473 226 473 226Q473 233 478.5 238.0Q484 243 491 243H643Q788 243 866 311Q946 379 946 500Q946 619 864 690Q782 763 645 763H348Q340 763 334.5 757.0Q329 751 329 744V-44Q329 -51 334.5 -56.5Q340 -62 348 -62H454Q461 -62 467.0 -56.5Q473 -51 473 -44ZM473 377V628Q473 635 478.5 640.5Q484 646 491 646H649Q721 645 761 605Q802 565 802 498Q802 430 761 394Q721 358 645 358H491Q484 358 478.5 363.5Q473 369 473 377Z" fill="#fafafa" stroke="none" transform="scale(1,-1) translate(0,-256)" /></svg>