<?xml version="1.0" encoding="utf-8" ?>
<svg baseProfile="full" height="256" version="1.1" width="256" xmlns="http://www.w3.org/2000/svg" xmlns:ev="http://www.w3.org/2001/xml-events" xmlns:xlink="http://www.w3.org/1999/xlink"><defs /><path d="M1142 192Q1142 192 1131.5 176.5Q1121 161 1102.0 138.0Q1083 115 1058 94Q1038 77 1011.0 63.5Q984 50 957.5 40.0Q931 30 913.5 24.5Q896 19 896 19Q896 19 887.0 36.0Q878 53 865.5 74.0Q853 95 841 109Q829 122 813.5 132.5Q798 143 786.5 149.0Q775 155 775 155Q775 155 794.5 153.0Q814 151 845.5 148.0Q877 145 911.5 143.0Q946 141 975 140Q1033 140 1070.0 153.0Q1107 166 1124.5 179.0Q1142 192 1142 192Z" fill="#a4ced5" stroke="none" transform="scale(1,-1) translate(0,-256)" /><path d="M126 277Q126 277 136.5 265.0Q147 253 163.0 235.5Q179 218 195 203Q215 183 247.5 160.0Q280 137 312.5 116.0Q345 95 367 82Q405 59 436.5 46.0Q468 33 487.5 27.5Q507 22 507 22Q507 22 506.5 7.5Q506 -7 508.0 -29.0Q510 -51 517.5 -73.5Q525 -96 542 -113Q560 -130 576.5 -133.0Q593 -136 605.0 -131.5Q617 -127 619 -123Q619 -122 613.0 -122.0Q607 -122 601 -121Q574 -114 561.0 -89.5Q548 -65 546 -48Q544 -37 544.0 -21.5Q544 -6 544.5 5.5Q545 17 545 17Q545 17 572.0 12.5Q599 8 629 5Q650 2 676.0 1.0Q702 0 721.0 0.0Q740 0 740 0Q740 0 748.5 -11.0Q757 -22 770.5 -37.0Q784 -52 797.5 -65.5Q811 -79 820 -86Q848 -105 871.5 -103.5Q895 -102 909.5 -94.5Q924 -87 924 -87Q924 -87 903.0 -87.0Q882 -87 854 -76Q835 -69 818.5 -49.5Q802 -30 788.5 -7.5Q775 15 767 29Q760 40 746.5 61.5Q733 83 718.0 106.0Q703 129 692.5 145.0Q682 161 682 161Q682 161 649.0 161.0Q616 161 576 163Q535 165 470.0 172.5Q405 180 330 194Q292 201 256.0 214.5Q220 228 190.5 242.5Q161 257 143.5 267.0Q126 277 126 277Z" fill="#a4ced5" stroke="none" transform="scale(1,-1) translate(0,-256)" /></svg>