<?xml version="1.0" encoding="utf-8" ?>
<svg baseProfile="full" height="256" version="1.1" width="256" xmlns="http://www.w3.org/2000/svg" xmlns:ev="http://www.w3.org/2001/xml-events" xmlns:xlink="http://www.w3.org/1999/xlink"><defs /><path d="M608 248Q605 262 566.5 265.5Q528 269 438 281Q385 289 323.5 308.5Q262 328 206 348Q151 368 119.0 390.5Q87 413 87 413Q87 413 83.5 403.0Q80 393 80 379Q81 361 88.0 341.5Q95 322 95 324Q95 324 125.0 309.5Q155 295 207.5 277.0Q260 259 326 247Q375 238 426.0 233.5Q477 229 519.0 229.0Q561 229 586.0 234.0Q611 239 608 248Z" fill="#fdeacb" stroke="none" transform="scale(1,-1) translate(0,-256)" /></svg>