<?xml version="1.0" encoding="utf-8" ?>
<svg baseProfile="full" height="256" version="1.1" width="256" xmlns="http://www.w3.org/2000/svg" xmlns:ev="http://www.w3.org/2001/xml-events" xmlns:xlink="http://www.w3.org/1999/xlink"><defs /><path d="M597 874Q607 869 611.5 858.0Q616 847 610 833Q606 824 595.5 820.5Q585 817 580 815Q563 810 551.0 792.0Q539 774 536 756Q536 751 533.0 739.5Q530 728 522.0 719.0Q514 710 496 713Q477 716 471.5 736.0Q466 756 473.0 783.0Q480 810 498 832Q525 865 552.0 874.5Q579 884 597 874Z" fill="#fdfffc" stroke="none" transform="scale(1,-1) translate(0,-256)" /></svg>