<?xml version="1.0" encoding="utf-8" ?>
<svg baseProfile="full" height="256" version="1.1" width="256" xmlns="http://www.w3.org/2000/svg" xmlns:ev="http://www.w3.org/2001/xml-events" xmlns:xlink="http://www.w3.org/1999/xlink"><defs /><path d="M669 4Q658 4 641.0 7.5Q624 11 594.5 21.5Q565 32 515.0 52.5Q465 73 388 107Q345 126 302.0 147.5Q259 169 224.5 186.5Q190 204 174 211Q148 224 137.5 231.0Q127 238 127 238Q127 238 125.0 230.5Q123 223 123 209Q123 205 123.0 181.5Q123 158 123.0 128.5Q123 99 124.5 73.5Q126 48 130 40Q132 35 139.5 27.0Q147 19 166 8Q199 -11 251.5 -37.0Q304 -63 357 -89Q409 -114 459.0 -136.5Q509 -159 544.0 -174.0Q579 -189 589 -192Q619 -202 640.0 -209.5Q661 -217 679 -217Q699 -217 716.0 -209.0Q733 -201 749 -192Q754 -190 782.0 -174.5Q810 -159 851.5 -136.0Q893 -113 939.0 -88.0Q985 -63 1026.5 -40.0Q1068 -17 1096.5 -1.0Q1125 15 1131 18Q1148 28 1149.5 39.0Q1151 50 1152 57Q1153 62 1153.0 86.0Q1153 110 1153.0 138.5Q1153 167 1152 185Q1151 215 1144.0 230.0Q1137 245 1137 245Q1137 245 1135.5 235.5Q1134 226 1123 221Q1121 220 1093.0 205.0Q1065 190 1022.0 167.0Q979 144 932 120Q842 72 779.5 38.5Q717 5 669 4Z" fill="#5e6367" stroke="none" transform="scale(1,-1) translate(0,-256)" /></svg>