<?xml version="1.0" encoding="utf-8" ?>
<svg baseProfile="full" height="256" version="1.1" width="256" xmlns="http://www.w3.org/2000/svg" xmlns:ev="http://www.w3.org/2001/xml-events" xmlns:xlink="http://www.w3.org/1999/xlink"><defs /><path d="M2368.332073757425 -248.87129314406775 2258.844268367626 -248.12011859193444Q2185.3419666399714 -247.74470315943472 2134.0434146383777 -239.84730874584056Q2082.744862636784 -231.9499143322464 2050.5875115384115 -221.60776750638615Q2018.430160440039 -211.2656206805259 2003.8827593022725 -203.5559339831816Q1989.335358164506 -195.8462472858373 1989.335358164506 -195.8462472858373L2021.4924363293685 -176.66542498208582L2369.8628501086496 -192.45796230784617Z" fill="#000000" stroke="none" transform="scale(1,-1) translate(0,-256)" /><path d="M-904.7941741943359 -465.973876953125Q-914.8466796875 -484.60186767578125 -930.835693359375 -492.9027099609375Q-946.82470703125 -501.20355224609375 -963.5176086425781 -503.28125Q-980.2105102539062 -505.35894775390625 -991.4689331054688 -504.8936767578125Q-1002.7273559570312 -504.42840576171875 -1002.7273559570312 -504.42840576171875Q-1002.7273559570312 -504.42840576171875 -992.9401168823242 -498.21051025390625Q-983.1528778076172 -491.99261474609375 -972.0633010864258 -481.4795227050781Q-960.9737243652344 -470.9664306640625 -959.0354156494141 -458.592529296875Q-955.9144592285156 -444.027099609375 -966.2412490844727 -434.93524169921875Q-976.5680389404297 -425.8433837890625 -995.8138427734375 -420.10595703125Q-995.8138427734375 -420.10595703125 -995.8138427734375 -420.10595703125Q-995.8138427734375 -420.10595703125 -995.8138427734375 -420.10595703125Q-995.8138427734375 -420.10595703125 -984.7501525878906 -417.7956237792969Q-973.6864624023438 -415.48529052734375 -957.5848846435547 -414.50335693359375Q-941.4833068847656 -413.52142333984375 -926.9797286987305 -417.382568359375Q-912.4761505126953 -421.24371337890625 -905.0050506591797 -432.49090576171875Q-897.5339508056641 -443.73809814453125 -904.7941741943359 -465.973876953125Z" fill="#000000" stroke="none" transform="scale(1,-1) translate(0,-256)" /><path d="M240.31602478027344 1178.2118072509766Q240.31602478027344 1178.2118072509766 245.94207763671875 1175.6244506835938Q251.56813049316406 1173.037094116211 251.56813049316406 1173.037094116211Q251.56813049316406 1173.037094116211 252.94297790527344 1149.073013305664Q254.3178253173828 1125.1089324951172 255.7194595336914 1089.6147689819336Q257.12109375 1054.12060546875 258.14447021484375 1018.0967407226562Q259.1678466796875 982.0728759765625 258.16124725341797 956.426399230957Q257.15464782714844 930.7799224853516 253.29747009277344 926.4801177978516Q245.4339141845703 919.8749237060547 235.2314682006836 916.6044692993164Q225.02902221679688 913.3340148925781 214.9810333251953 913.5848846435547Q202.51429748535156 912.6519622802734 189.71186065673828 916.2064743041992Q176.909423828125 919.760986328125 164.9008026123047 923.8762969970703Q140.0524444580078 932.0447235107422 109.99884796142578 948.3473434448242Q79.94525146484375 964.6499633789062 49.70515441894531 983.4456024169922Q19.465057373046875 1002.2412414550781 -5.6391448974609375 1019.4156341552734Q-30.74334716796875 1036.5900268554688 -45.76751708984375 1047.4992065429688Q-60.79168701171875 1058.4083862304688 -60.79168701171875 1058.4083862304688Q-47.03572082519531 1064.4517364501953 -32.89098358154297 1082.056266784668Q-18.746246337890625 1099.6607971191406 -14.2071533203125 1106.0172119140625Q0.9977569580078125 1126.2080535888672 27.534629821777344 1145.7427139282227Q54.071502685546875 1165.2773742675781 87.74220275878906 1178.8277435302734Q121.41290283203125 1192.3781127929688 160.58724212646484 1193.8054580688477Q199.76158142089844 1195.2328033447266 240.31602478027344 1178.2118072509766Z" fill="#000000" stroke="none" transform="scale(1,-1) translate(0,-256)" /><path d="M-756.0216909607407 113.82785443984903Q-756.0216909607407 113.82785443984903 -761.0586199123645 119.19494036806282Q-766.0955488639884 124.5620262962766 -766.1526724055875 123.79860267206095Q-765.8670546975918 127.61572079313919 -763.570257592597 145.484734955593Q-761.2734604876023 163.35374911804684 -758.0587349033449 189.21489766589366Q-754.8440093190875 215.07604621374048 -751.5435984224314 242.08233019791078Q-748.2431875257753 269.0886141820811 -745.6322109419852 291.15645827772096Q-743.0212343581952 313.22430237336084 -742.2215047758073 323.9122331123799Q-740.5570184420794 337.60623101051897 -739.8144124012906 347.5307381253224Q-739.0718063605018 357.4552452401258 -728.9566321703605 364.3750714161433Q-720.1711066917051 370.6267286434304 -709.2118338936707 371.72562296234537Q-698.2525610956363 372.82451728126034 -688.7657458630856 371.34668359090574Q-676.0976177058183 369.63071321183816 -664.3228080706904 364.52696386154275Q-652.5479984355625 359.42321451124735 -640.8588741128333 353.1743297246285Q-618.1168880523182 340.7241874891333 -590.8845984990476 319.8770784974331Q-563.6523089457769 299.0299695057329 -536.9380830805749 275.5346914981492Q-510.22385721537285 252.0394134905655 -488.1387918832479 230.8098995765904Q-466.05372655112296 209.5803856626153 -452.96992634795606 196.3178062448278Q-439.88612614478916 183.05522682704031 -439.88612614478916 183.05522682704031Q-449.6585590853356 180.71594239631668 -460.81381246529054 172.72242179058958Q-471.9690658452455 164.72890118486248 -480.9259619486984 156.18697308492847Q-489.8828580521513 147.64504498499446 -493.3497886848636 144.0660635526292Q-511.8998434767127 127.02983469050378 -540.8911073785275 111.54288052534685Q-569.8823712803423 96.05592636018991 -605.619419493014 88.75092282122932Q-641.3564677056856 81.44591928226873 -679.7075452407589 86.23593227623496Q-718.0586227758322 91.02594527020119 -756.0216909607407 113.82785443984903Z" fill="#000000" stroke="none" transform="scale(1,-1) translate(0,-256)" /><path d="M-1093.0500608179718 -248.8617869184818 -983.5622554281726 -248.1106123663485Q-910.0599537005182 -247.73519693384878 -858.7614016989246 -239.83780252025463Q-807.462849697331 -231.94040810666047 -775.3054985989584 -221.59826128080022Q-743.1481475005858 -211.25611445493996 -728.6007463628193 -203.54642775759567Q-714.0533452250529 -195.83674106025137 -714.0533452250529 -195.83674106025137L-746.2104233899154 -176.6559187564999L-1094.5808371691965 -192.44845608226024Z" fill="#000000" stroke="none" transform="scale(1,-1) translate(0,-256)" /><path d="M2180.075180053711 -465.973876953125Q2190.127685546875 -484.60186767578125 2206.11669921875 -492.9027099609375Q2222.105712890625 -501.20355224609375 2238.798614501953 -503.28125Q2255.4915161132812 -505.35894775390625 2266.7499389648438 -504.8936767578125Q2278.0083618164062 -504.42840576171875 2278.0083618164062 -504.42840576171875Q2278.0083618164062 -504.42840576171875 2268.221122741699 -498.21051025390625Q2258.433883666992 -491.99261474609375 2247.344306945801 -481.4795227050781Q2236.2547302246094 -470.9664306640625 2234.316421508789 -458.592529296875Q2231.1954650878906 -444.027099609375 2241.5222549438477 -434.93524169921875Q2251.8490447998047 -425.8433837890625 2271.0948486328125 -420.10595703125Q2271.0948486328125 -420.10595703125 2271.0948486328125 -420.10595703125Q2271.0948486328125 -420.10595703125 2271.0948486328125 -420.10595703125Q2271.0948486328125 -420.10595703125 2260.0311584472656 -417.7956237792969Q2248.9674682617188 -415.48529052734375 2232.8658905029297 -414.50335693359375Q2216.7643127441406 -413.52142333984375 2202.2607345581055 -417.382568359375Q2187.7571563720703 -421.24371337890625 2180.2860565185547 -432.49090576171875Q2172.814956665039 -443.73809814453125 2180.075180053711 -465.973876953125Z" fill="#000000" stroke="none" transform="scale(1,-1) translate(0,-256)" /><path d="M533.1150207519531 -961.6366882324219Q565.2486419677734 -942.8423156738281 597.4452590942383 -926.6549224853516Q629.6418762207031 -910.467529296875 659.8844833374023 -887.0297241210938Q690.1270904541016 -863.5919189453125 717.2130889892578 -824.3594665527344Q744.2990875244141 -785.1270141601562 766.2114715576172 -720.2425231933594Q766.2114715576172 -720.2425231933594 775.568359375 -733.5075225830078Q784.9252471923828 -746.7725219726562 802.4290466308594 -752.6748962402344Q816.1860046386719 -756.6355895996094 826.8215408325195 -752.1468200683594Q837.4570770263672 -747.6580505371094 837.4570770263672 -747.6580505371094Q839.3026885986328 -753.3670959472656 841.0574951171875 -761.2073669433594Q845.4342956542969 -789.2188415527344 841.6919937133789 -819.854736328125Q837.9496917724609 -850.4906311035156 828.6325302124023 -877.1483917236328Q819.3153686523438 -903.80615234375 809.5016174316406 -921.6914672851562Q801.9875030517578 -934.6296997070312 782.2266311645508 -953.1029815673828Q762.4657592773438 -971.5762634277344 732.5863723754883 -986.4891662597656Q702.7069854736328 -1001.4020690917969 664.6381225585938 -1004.2490234375Q653.1251831054688 -1004.8176574707031 644.436279296875 -1004.4734497070312Q612.1062927246094 -1003.3634948730469 589.7790451049805 -992.1891632080078Q567.4517974853516 -981.0148315429688 553.6142501831055 -970.7745666503906Q539.7767028808594 -960.5343017578125 533.1150207519531 -961.6366882324219Z" fill="#000000" stroke="none" transform="scale(1,-1) translate(0,-256)" /><path d="M822.326904296875 548.4952392578125Q817.7344665527344 545.2843780517578 805.9161987304688 535.7359619140625Q794.0979309082031 526.1875457763672 784.4405212402344 518.8845062255859Q766.3414916992188 504.76116943359375 744.8978118896484 492.4314193725586Q723.4541320800781 480.10166931152344 701.0949249267578 476.7732467651367Q678.7357177734375 473.44482421875 658.86962890625 486.3675537109375Q630.5570068359375 504.9544982910156 622.6445465087891 526.7856979370117Q614.7320861816406 548.6168975830078 620.2966766357422 570.5966110229492Q625.8612670898438 592.5763244628906 638.216064453125 612.0494689941406Q650.5708618164062 631.5226135253906 663.6713714599609 644.3549270629883Q676.7718811035156 657.1872406005859 682.5801086425781 660.8808441162109Q682.1075744628906 659.9995269775391 676.8432464599609 647.5038833618164Q671.5789184570312 635.0082397460938 668.6132659912109 617.8757705688477Q665.6476135253906 600.7433013916016 674.0301513671875 586.0356750488281Q683.6973876953125 568.3696899414062 700.4206390380859 559.4017562866211Q717.1438903808594 550.4338226318359 735.4521026611328 547.9916000366211Q753.7603149414062 545.5493774414062 768.2168884277344 545.7399749755859Q782.6734619140625 545.9305725097656 786.591552734375 546.0989074707031Q794.427734375 546.4355773925781 803.4797058105469 547.2549896240234Q812.5316772460938 548.0744018554688 822.326904296875 548.4952392578125Z" fill="#000000" stroke="none" transform="scale(1,-1) translate(0,-256)" /><path d="M-565.7611389160156 783.5999603271484Q-492.33668518066406 764.9148101806641 -439.5910873413086 739.3792495727539Q-386.8454895019531 713.8436889648438 -353.1907043457031 690.5448150634766Q-349.0106658935547 687.5675201416016 -345.8710708618164 680.7599945068359Q-342.7314758300781 673.9524688720703 -348.3603744506836 666.8696060180664Q-353.98927307128906 659.7867431640625 -376.46837615966797 656.43701171875Q-398.9474792480469 653.0872802734375 -445.0830383300781 656.6379089355469Q-527.9855804443359 662.8476104736328 -582.6203994750977 673.3258895874023Q-637.2552185058594 683.8041687011719 -668.9180908203125 696.2055435180664Q-700.5809631347656 708.6069183349609 -715.2749862670898 721.4930572509766Q-729.9690093994141 734.3791961669922 -733.5580978393555 745.3387069702148Q-737.1471862792969 756.2982177734375 -734.6054000854492 763.7648468017578Q-732.0636138916016 771.2314758300781 -730.0694274902344 773.4412384033203Q-713.4725036621094 792.6777954101562 -672.427375793457 796.4502792358398Q-631.3822479248047 800.2227630615234 -565.7611389160156 783.5999603271484Z" fill="#000000" stroke="none" transform="scale(1,-1) translate(0,-256)" /><path d="M343 905Q343 905 343.0 905.0Q343 905 343 905Q343 905 336.0 891.5Q329 878 325.0 854.5Q321 831 329.5 801.5Q338 772 370 740L275 755Q262 794 269.0 821.5Q276 849 291.5 867.0Q307 885 322.5 894.0Q338 903 342 905Q342 905 342.0 905.0Q342 905 342 905Q342 905 343 905Z" fill="#000000" stroke="none" transform="scale(1,-1) translate(0,-256)" /><path d="M-140.14419555664062 760.65087890625 -104.21963500976562 593.9920349121094Q-54.24810791015625 579.5789642333984 -35.442474365234375 560.9522552490234Q-16.6368408203125 542.3255462646484 -16.6368408203125 542.3255462646484Q-16.6368408203125 542.3255462646484 -13.246337890625 547.2279815673828Q-9.8558349609375 552.1304168701172 -7.18780517578125 558.1963195800781Q2.504425048828125 574.9707641601562 8.23016357421875 602.0187606811523Q13.955902099609375 629.0667572021484 6.051361083984375 665.1117858886719Q-1.3739013671875 699.0896759033203 -23.437774658203125 719.077507019043Q-45.50164794921875 739.0653381347656 -67.70489501953125 748.9151306152344Q-77.11837768554688 752.4167633056641 -81.94671630859375 753.7157440185547Z" fill="#000000" stroke="none" transform="scale(1,-1) translate(0,-256)" /><path d="M183.797119140625 531.9156188964844Q183.9333953857422 532.9062957763672 186.3209991455078 534.5966491699219Q188.70860290527344 536.2870025634766 188.70860290527344 536.2870025634766Q202.32920837402344 546.526123046875 220.9767074584961 551.5311965942383Q239.62420654296875 556.5362701416016 259.36468505859375 553.8202667236328L210.2886199951172 291.0555419921875Q206.0585174560547 291.6375427246094 200.40656280517578 294.93873596191406Q194.75460815429688 298.23992919921875 194.75460815429688 298.23992919921875Q194.75460815429688 298.23992919921875 186.90764617919922 303.86197662353516Q179.06068420410156 309.48402404785156 167.94937133789062 320.09761810302734Q156.8380584716797 330.7112121582031 147.5337905883789 346.6280288696289Q138.22952270507812 362.5448455810547 135.45118713378906 384.12506103515625Q130.35061645507812 420.15675354003906 137.9639892578125 449.3920593261719Q145.57736206054688 478.6273651123047 158.86632537841797 499.51109313964844Q172.15528869628906 520.3948211669922 183.797119140625 531.9156188964844Z" fill="#000000" stroke="none" transform="scale(1,-1) translate(0,-256)" /></svg>