<?xml version="1.0" encoding="utf-8" ?>
<svg baseProfile="full" height="256" version="1.1" width="256" xmlns="http://www.w3.org/2000/svg" xmlns:ev="http://www.w3.org/2001/xml-events" xmlns:xlink="http://www.w3.org/1999/xlink"><defs /><path d="M638 96H720V4Q720 -26 698.0 -48.0Q676 -70 645 -70H630Q599 -70 577.0 -48.0Q555 -26 555 4V96Z" fill="#e59600" stroke="none" transform="scale(1,-1) translate(0,-256)" /><path d="M887 458Q927 458 956.0 427.0Q985 396 985 353Q985 310 956.0 279.5Q927 249 887 249H388Q348 249 319.0 279.5Q290 310 290 353Q290 396 319.0 427.0Q348 458 388 458Z" fill="#e59600" stroke="none" transform="scale(1,-1) translate(0,-256)" /><path d="M673 297Q684 292 679 282Q677 277 667.0 267.0Q657 257 638 257Q618 257 608.0 267.0Q598 277 596 282Q591 292 602 297Q604 297 605 297H670Q671 297 673 297Z" fill="#e59600" stroke="none" transform="scale(1,-1) translate(0,-256)" /><path d="M639 793Q662 793 678.5 809.0Q695 825 695 848V852Q695 875 678.5 891.5Q662 908 639 908H638Q615 908 598.5 891.5Q582 875 582 852V848Q582 825 598.5 809.0Q615 793 638 793Z" fill="#e59600" stroke="none" transform="scale(1,-1) translate(0,-256)" /></svg>