<?xml version="1.0" encoding="utf-8" ?>
<svg baseProfile="full" height="256" version="1.1" width="256" xmlns="http://www.w3.org/2000/svg" xmlns:ev="http://www.w3.org/2001/xml-events" xmlns:xlink="http://www.w3.org/1999/xlink"><defs /><path d="M531.8501586914062 381.1252136230469Q531.8451232910156 399.7351379394531 518.8143997192383 413.6890563964844Q505.78367614746094 427.6429748535156 487.1737518310547 427.637939453125Q468.56382751464844 427.6329040527344 455.54065704345703 413.67193603515625Q442.5174865722656 399.7109680175781 442.52252197265625 381.1010437011719Q442.5275573730469 362.4911193847656 455.5582809448242 348.5372009277344Q468.58900451660156 334.5832824707031 487.1989288330078 334.58831787109375Q505.80885314941406 334.5933532714844 518.8320236206055 348.5543212890625Q531.8551940917969 362.5152893066406 531.8501586914062 381.1252136230469Z" fill="#404040" stroke="none" transform="scale(1,-1) translate(0,-256)" /><path d="M832.0368499755859 381.1256103515625Q832.0318145751953 399.73553466796875 819.001091003418 413.689453125Q805.9703674316406 427.64337158203125 787.3604431152344 427.6383361816406Q768.7505187988281 427.63330078125 755.7273483276367 413.6723327636719Q742.7041778564453 399.71136474609375 742.7092132568359 381.1014404296875Q742.7142486572266 362.49151611328125 755.7449722290039 348.53759765625Q768.7756958007812 334.58367919921875 787.3856201171875 334.5887145996094Q805.9955444335938 334.59375 819.0187149047852 348.5547180175781Q832.0418853759766 362.51568603515625 832.0368499755859 381.1256103515625Z" fill="#404040" stroke="none" transform="scale(1,-1) translate(0,-256)" /></svg>