<?xml version="1.0" encoding="utf-8" ?>
<svg baseProfile="full" height="256" version="1.1" width="256" xmlns="http://www.w3.org/2000/svg" xmlns:ev="http://www.w3.org/2001/xml-events" xmlns:xlink="http://www.w3.org/1999/xlink"><defs /><path d="M265 361Q272 361 274 368Q278 377 268 381Q268 381 252.0 386.0Q236 391 213 395Q192 398 176.5 398.5Q161 399 160 399Q150 399 150 389Q151 378 161 379Q161 379 175.5 378.5Q190 378 210 375Q231 372 246.0 367.0Q261 362 261 362Q263 361 265 361Z" fill="#a8a8a8" stroke="none" transform="scale(1,-1) translate(0,-256)" /><path d="M155 311Q158 311 160 312Q160 312 174.5 319.0Q189 326 207 330Q225 334 241.0 335.5Q257 337 258 337Q268 337 267 347Q267 357 257 357Q256 357 239.0 355.5Q222 354 202 350Q182 345 166.5 337.5Q151 330 150 330Q141 325 146 316Q149 311 155 311Z" fill="#a8a8a8" stroke="none" transform="scale(1,-1) translate(0,-256)" /><path d="M176 255Q180 255 183 257Q183 257 195.0 266.5Q207 276 222 286Q238 297 256.5 307.0Q275 317 275 317Q284 322 279 331Q274 340 266 335Q265 335 246.0 324.5Q227 314 211 303Q195 292 183.0 282.5Q171 273 170 272Q162 266 168 258Q171 255 176 255Z" fill="#a8a8a8" stroke="none" transform="scale(1,-1) translate(0,-256)" /><path d="M591 614Q591 646 574.5 675.0Q558 704 529.0 720.0Q500 736 461 731Q410 726 383.5 692.0Q357 658 358 610Q359 572 377.5 547.0Q396 522 425.5 510.0Q455 498 487 498Q536 498 563.5 532.0Q591 566 591 614Z" fill="#a8a8a8" stroke="none" transform="scale(1,-1) translate(0,-256)" /></svg>