<?xml version="1.0" encoding="utf-8" ?>
<svg baseProfile="full" height="256" version="1.1" width="256" xmlns="http://www.w3.org/2000/svg" xmlns:ev="http://www.w3.org/2001/xml-events" xmlns:xlink="http://www.w3.org/1999/xlink"><defs /><path d="M847 238Q840 268 835.0 320.0Q830 372 825.0 434.0Q820 496 815.5 559.0Q811 622 806.5 676.5Q802 731 797 766Q793 793 775.5 808.0Q758 823 736.0 822.5Q714 822 697.0 801.5Q680 781 677 737Q677 760 674.5 783.5Q672 807 668 830Q662 856 645.5 868.5Q629 881 609.0 881.0Q589 881 572.5 867.5Q556 854 552 827Q551 820 549.5 801.5Q548 783 545 758Q541 789 523.0 806.0Q505 823 483 822Q466 821 450.0 807.0Q434 793 427 760Q421 738 418.5 702.0Q416 666 413 625Q410 644 396.0 657.0Q382 670 364.5 671.0Q347 672 331.5 656.5Q316 641 310 604Q292 479 283.5 387.5Q275 296 275.5 228.5Q276 161 283.5 109.0Q291 57 305 12Q321 -45 352.5 -83.5Q384 -122 423.5 -144.5Q463 -167 505.0 -176.5Q547 -186 583 -186Q641 -186 687.5 -168.5Q734 -151 770.0 -123.0Q806 -95 831.5 -64.0Q857 -33 874.0 -6.0Q891 21 899 37Q933 101 965.5 142.0Q998 183 1025.5 208.0Q1053 233 1072.5 250.5Q1092 268 1101 286Q1113 312 1107.5 328.0Q1102 344 1088.0 353.0Q1074 362 1058.0 365.0Q1042 368 1033 368Q998 366 967.5 349.0Q937 332 912.0 309.5Q887 287 870.5 266.5Q854 246 847 238Z" fill="#ffca28" stroke="none" transform="scale(1,-1) translate(0,-256)" /></svg>