<?xml version="1.0" encoding="utf-8" ?>
<svg baseProfile="full" height="256" version="1.1" width="256" xmlns="http://www.w3.org/2000/svg" xmlns:ev="http://www.w3.org/2001/xml-events" xmlns:xlink="http://www.w3.org/1999/xlink"><defs /><path d="M651 787Q651 773 651.5 740.0Q652 707 652.5 664.5Q653 622 653.0 577.5Q653 533 653.0 494.5Q653 456 653.0 431.5Q653 407 653 405Q653 400 650.5 393.5Q648 387 648 382Q648 373 654.5 371.0Q661 369 669 369Q670 369 670.5 369.0Q671 369 672 369Q679 368 685.5 369.0Q692 370 692 378Q692 383 689 389Q687 392 686.0 395.0Q685 398 685 403Q686 407 685.5 430.5Q685 454 684.0 490.0Q683 526 682.0 566.5Q681 607 680 643Q679 681 678.5 708.0Q678 735 678 739Q678 740 678 745Q678 746 678.0 747.5Q678 749 678 750Q677 744 677 737Q677 760 674.5 783.5Q672 807 668 830Q663 851 650.5 863.5Q638 876 623 880Q638 864 643.5 840.5Q649 817 651 787Z" fill="#b55e19" stroke="none" transform="scale(1,-1) translate(0,-256)" /><path d="M522 756Q522 748 522.0 719.5Q522 691 521.0 651.5Q520 612 519.5 569.0Q519 526 518.0 488.5Q517 451 516.5 427.0Q516 403 516 402Q515 391 511.5 387.0Q508 383 508 374Q508 366 513.0 365.0Q518 364 526 364Q528 364 530 364Q530 364 530.5 364.0Q531 364 532 364Q539 364 545.0 365.5Q551 367 551 374Q551 384 548.0 385.5Q545 387 545 403V758Q542 782 530.0 797.5Q518 813 502 819Q513 806 517.5 792.0Q522 778 522 756Z" fill="#b55e19" stroke="none" transform="scale(1,-1) translate(0,-256)" /><path d="M391 616Q391 608 390.0 582.0Q389 556 388.0 522.5Q387 489 386.0 456.5Q385 424 384.5 401.5Q384 379 383 376Q383 370 380.5 365.5Q378 361 378 353Q378 344 384.0 343.5Q390 343 397 344Q404 346 409.5 348.0Q415 350 415 358Q416 362 415.0 364.0Q414 366 412 368Q411 370 409.5 372.0Q408 374 409 379Q409 383 409.5 404.5Q410 426 410.0 457.0Q410 488 410.5 521.5Q411 555 411.0 582.5Q411 610 412 625Q412 628 411 631Q404 662 375 670Q385 661 388.5 648.0Q392 635 391 616Z" fill="#b55e19" stroke="none" transform="scale(1,-1) translate(0,-256)" /><path d="M1107 329Q1102 311 1086 295Q1080 289 1063.5 273.5Q1047 258 1027.0 240.0Q1007 222 990.0 206.0Q973 190 965 182Q942 160 919.5 122.5Q897 85 871.0 42.0Q845 -1 812.0 -42.5Q779 -84 735.5 -114.5Q692 -145 634 -156Q632 -157 631 -157Q617 -159 590.0 -161.5Q563 -164 525.5 -158.5Q488 -153 443.5 -133.0Q399 -113 350 -70Q344 -65 338 -63Q369 -110 411.0 -136.5Q453 -163 498.5 -174.5Q544 -186 583 -186Q641 -186 687.5 -168.5Q734 -151 770.0 -123.0Q806 -95 831.5 -64.0Q857 -33 874.0 -6.0Q891 21 899 37Q933 101 965.5 142.0Q998 183 1025.5 208.0Q1053 233 1072.5 250.5Q1092 268 1101 286Q1112 311 1107 329Z" fill="#b55e19" stroke="none" transform="scale(1,-1) translate(0,-256)" /><path d="M746 822Q772 800 774 766Q775 761 777.5 732.0Q780 703 783.0 658.5Q786 614 790.0 562.0Q794 510 798.0 458.0Q802 406 805.5 361.5Q809 317 811.0 288.0Q813 259 814 253Q816 234 829.5 232.5Q843 231 846 238Q846 238 846 239Q840 270 834.5 322.0Q829 374 824.5 436.0Q820 498 815.5 560.5Q811 623 806.5 677.0Q802 731 797 766Q793 790 778.5 804.5Q764 819 746 822Z" fill="#b55e19" stroke="none" transform="scale(1,-1) translate(0,-256)" /></svg>