<?xml version="1.0" encoding="utf-8" ?>
<svg baseProfile="full" height="256" version="1.1" width="256" xmlns="http://www.w3.org/2000/svg" xmlns:ev="http://www.w3.org/2001/xml-events" xmlns:xlink="http://www.w3.org/1999/xlink"><defs /><path d="M140 364Q144 369 141.5 375.5Q139 382 128 381Q113 380 104.5 369.5Q96 359 97 347Q97 335 110.5 333.5Q124 332 127 343Q129 353 133.5 357.0Q138 361 140 364ZM361 301Q367 302 369.0 296.5Q371 291 368 287Q363 282 350.0 272.5Q337 263 337 239Q337 230 329.5 227.0Q322 224 314.0 225.5Q306 227 305 234Q302 243 306.0 258.0Q310 273 323.0 286.0Q336 299 361 301ZM498 394Q500 400 507.5 398.5Q515 397 517 391Q520 371 511.5 354.5Q503 338 494 332Q482 324 471.5 334.0Q461 344 470 356Q475 361 483.5 369.0Q492 377 498 394ZM256 751Q262 747 260.0 741.0Q258 735 253 735Q243 735 230.5 732.0Q218 729 206 711Q203 705 195.5 704.5Q188 704 182 708Q177 712 175.5 719.0Q174 726 178 733Q190 754 207.0 758.0Q224 762 238.0 758.0Q252 754 256 751ZM520 692Q522 699 528.0 697.0Q534 695 533 689Q533 684 530.5 668.5Q528 653 504 639Q494 632 486.0 638.0Q478 644 478.5 653.5Q479 663 492 668Q499 671 509.0 679.5Q519 688 520 692ZM498 863Q505 864 509.0 858.5Q513 853 508 848Q505 844 499.5 838.0Q494 832 495 818Q496 805 482.5 804.0Q469 803 468 815Q467 821 468.0 832.0Q469 843 475.5 852.5Q482 862 498 863ZM441 -7Q447 -2 452.5 -8.0Q458 -14 453 -24Q452 -25 442.5 -35.5Q433 -46 421.5 -59.5Q410 -73 400.5 -84.5Q391 -96 389 -98Q386 -103 385.5 -109.5Q385 -116 385 -124Q386 -135 373.0 -139.0Q360 -143 356 -130Q351 -117 354.0 -102.0Q357 -87 369 -75Q373 -70 387.5 -56.0Q402 -42 418.0 -27.0Q434 -12 441 -7ZM923 895Q934 902 941.5 893.5Q949 885 943 876Q940 872 929.5 857.5Q919 843 915 829Q914 825 905.5 823.5Q897 822 895 831Q893 840 896.5 858.5Q900 877 923 895Z" fill="#d8bdf4" stroke="none" transform="scale(1,-1) translate(0,-256)" /></svg>