<?xml version="1.0" encoding="utf-8" ?>
<svg baseProfile="full" height="256" version="1.1" width="256" xmlns="http://www.w3.org/2000/svg" xmlns:ev="http://www.w3.org/2001/xml-events" xmlns:xlink="http://www.w3.org/1999/xlink"><defs /><path d="M1072 302Q1082 304 1088 312Q1096 301 1091.0 288.5Q1086 276 1072 273L421 139L423 170Z" fill="#689f38" stroke="none" transform="scale(1,-1) translate(0,-256)" /><path d="M1107 160 1047 258 472 129Q449 124 435.0 105.5Q421 87 423 64Q426 36 448.5 20.5Q471 5 498 11L1095 132Q1105 134 1108.5 143.0Q1112 152 1107 160Z" fill="#689f38" stroke="none" transform="scale(1,-1) translate(0,-256)" /><path d="M1057 350 745 210 646 195 515 262 481 311 680 212 1034 375Z" fill="#689f38" stroke="none" transform="scale(1,-1) translate(0,-256)" /></svg>