<?xml version="1.0" encoding="utf-8" ?>
<svg baseProfile="full" height="256" version="1.1" width="256" xmlns="http://www.w3.org/2000/svg" xmlns:ev="http://www.w3.org/2001/xml-events" xmlns:xlink="http://www.w3.org/1999/xlink"><defs /><path d="M379.72935485839844 799.8923950195312Q379.72935485839844 807.9884643554688 376.6933288574219 815.107421875Q373.6573028564453 822.2263793945312 368.248291015625 827.6353912353516Q362.8392791748047 833.0444030761719 355.72032165527344 836.1153259277344Q348.6013641357422 839.1862487792969 340.5052947998047 839.1862487792969Q332.3394317626953 839.1862487792969 325.22047424316406 836.1153259277344Q318.1015167236328 833.0444030761719 312.6925048828125 827.6353912353516Q307.2834930419922 822.2263793945312 304.2474670410156 815.107421875Q301.21144104003906 807.9884643554688 301.21144104003906 799.8923950195312Q301.21144104003906 791.7963256835938 304.2474670410156 784.6773681640625Q307.2834930419922 777.5584106445312 312.6925048828125 772.1493988037109Q318.1015167236328 766.7403869628906 325.22047424316406 763.7043609619141Q332.3394317626953 760.6683349609375 340.5052947998047 760.6683349609375Q348.6013641357422 760.6683349609375 355.72032165527344 763.7043609619141Q362.8392791748047 766.7403869628906 368.248291015625 772.1493988037109Q373.6573028564453 777.5584106445312 376.6933288574219 784.6773681640625Q379.72935485839844 791.7963256835938 379.72935485839844 799.8923950195312Z" fill="#9e740b" stroke="none" transform="scale(1,-1) translate(0,-256)" /><path d="M379.72935485839844 646.9860992431641Q379.72935485839844 655.0821685791016 376.6933288574219 662.2011260986328Q373.6573028564453 669.3200836181641 368.248291015625 674.7290954589844Q362.8392791748047 680.1381072998047 355.72032165527344 683.2090301513672Q348.6013641357422 686.2799530029297 340.5052947998047 686.2799530029297Q332.3394317626953 686.2799530029297 325.22047424316406 683.2090301513672Q318.1015167236328 680.1381072998047 312.6925048828125 674.7290954589844Q307.2834930419922 669.3200836181641 304.2474670410156 662.2011260986328Q301.21144104003906 655.0821685791016 301.21144104003906 646.9860992431641Q301.21144104003906 638.8900299072266 304.2474670410156 631.7710723876953Q307.2834930419922 624.6521148681641 312.6925048828125 619.2431030273438Q318.1015167236328 613.8340911865234 325.22047424316406 610.7980651855469Q332.3394317626953 607.7620391845703 340.5052947998047 607.7620391845703Q348.6013641357422 607.7620391845703 355.72032165527344 610.7980651855469Q362.8392791748047 613.8340911865234 368.248291015625 619.2431030273438Q373.6573028564453 624.6521148681641 376.6933288574219 631.7710723876953Q379.72935485839844 638.8900299072266 379.72935485839844 646.9860992431641Z" fill="#9e740b" stroke="none" transform="scale(1,-1) translate(0,-256)" /><path d="M379.72935485839844 494.07989501953125Q379.72935485839844 502.17596435546875 376.6933288574219 509.294921875Q373.6573028564453 516.4138793945312 368.248291015625 521.8228912353516Q362.8392791748047 527.2319030761719 355.72032165527344 530.3028259277344Q348.6013641357422 533.3737487792969 340.5052947998047 533.3737487792969Q332.3394317626953 533.3737487792969 325.22047424316406 530.3028259277344Q318.1015167236328 527.2319030761719 312.6925048828125 521.8228912353516Q307.2834930419922 516.4138793945312 304.2474670410156 509.294921875Q301.21144104003906 502.17596435546875 301.21144104003906 494.07989501953125Q301.21144104003906 485.98382568359375 304.2474670410156 478.8648681640625Q307.2834930419922 471.74591064453125 312.6925048828125 466.33689880371094Q318.1015167236328 460.9278869628906 325.22047424316406 457.89186096191406Q332.3394317626953 454.8558349609375 340.5052947998047 454.8558349609375Q348.6013641357422 454.8558349609375 355.72032165527344 457.89186096191406Q362.8392791748047 460.9278869628906 368.248291015625 466.33689880371094Q373.6573028564453 471.74591064453125 376.6933288574219 478.8648681640625Q379.72935485839844 485.98382568359375 379.72935485839844 494.07989501953125Z" fill="#9e740b" stroke="none" transform="scale(1,-1) translate(0,-256)" /><path d="M379.72935485839844 341.17359924316406Q379.72935485839844 349.26966857910156 376.6933288574219 356.3886260986328Q373.6573028564453 363.50758361816406 368.248291015625 368.9165954589844Q362.8392791748047 374.3256072998047 355.72032165527344 377.3965301513672Q348.6013641357422 380.4674530029297 340.5052947998047 380.4674530029297Q332.3394317626953 380.4674530029297 325.22047424316406 377.3965301513672Q318.1015167236328 374.3256072998047 312.6925048828125 368.9165954589844Q307.2834930419922 363.50758361816406 304.2474670410156 356.3886260986328Q301.21144104003906 349.26966857910156 301.21144104003906 341.17359924316406Q301.21144104003906 333.07752990722656 304.2474670410156 325.9585723876953Q307.2834930419922 318.83961486816406 312.6925048828125 313.43060302734375Q318.1015167236328 308.02159118652344 325.22047424316406 304.9855651855469Q332.3394317626953 301.9495391845703 340.5052947998047 301.9495391845703Q348.6013641357422 301.9495391845703 355.72032165527344 304.9855651855469Q362.8392791748047 308.02159118652344 368.248291015625 313.43060302734375Q373.6573028564453 318.83961486816406 376.6933288574219 325.9585723876953Q379.72935485839844 333.07752990722656 379.72935485839844 341.17359924316406Z" fill="#9e740b" stroke="none" transform="scale(1,-1) translate(0,-256)" /><path d="M379.72935485839844 188.17359924316406Q379.72935485839844 196.26966857910156 376.6933288574219 203.3886260986328Q373.6573028564453 210.50758361816406 368.248291015625 215.91659545898438Q362.8392791748047 221.3256072998047 355.72032165527344 224.3965301513672Q348.6013641357422 227.4674530029297 340.5052947998047 227.4674530029297Q332.3394317626953 227.4674530029297 325.22047424316406 224.3965301513672Q318.1015167236328 221.3256072998047 312.6925048828125 215.91659545898438Q307.2834930419922 210.50758361816406 304.2474670410156 203.3886260986328Q301.21144104003906 196.26966857910156 301.21144104003906 188.17359924316406Q301.21144104003906 180.07752990722656 304.2474670410156 172.9585723876953Q307.2834930419922 165.83961486816406 312.6925048828125 160.43060302734375Q318.1015167236328 155.02159118652344 325.22047424316406 151.98556518554688Q332.3394317626953 148.9495391845703 340.5052947998047 148.9495391845703Q348.6013641357422 148.9495391845703 355.72032165527344 151.98556518554688Q362.8392791748047 155.02159118652344 368.248291015625 160.43060302734375Q373.6573028564453 165.83961486816406 376.6933288574219 172.9585723876953Q379.72935485839844 180.07752990722656 379.72935485839844 188.17359924316406Z" fill="#9e740b" stroke="none" transform="scale(1,-1) translate(0,-256)" /><path d="M379.72935485839844 35.26739501953125Q379.72935485839844 43.36346435546875 376.6933288574219 50.482421875Q373.6573028564453 57.60137939453125 368.248291015625 63.01039123535156Q362.8392791748047 68.41940307617188 355.72032165527344 71.49032592773438Q348.6013641357422 74.56124877929688 340.5052947998047 74.56124877929688Q332.3394317626953 74.56124877929688 325.22047424316406 71.49032592773438Q318.1015167236328 68.41940307617188 312.6925048828125 63.01039123535156Q307.2834930419922 57.60137939453125 304.2474670410156 50.482421875Q301.21144104003906 43.36346435546875 301.21144104003906 35.26739501953125Q301.21144104003906 27.17132568359375 304.2474670410156 20.0523681640625Q307.2834930419922 12.93341064453125 312.6925048828125 7.5243988037109375Q318.1015167236328 2.115386962890625 325.22047424316406 -0.9206390380859375Q332.3394317626953 -3.9566650390625 340.5052947998047 -3.9566650390625Q348.6013641357422 -3.9566650390625 355.72032165527344 -0.9206390380859375Q362.8392791748047 2.115386962890625 368.248291015625 7.5243988037109375Q373.6573028564453 12.93341064453125 376.6933288574219 20.0523681640625Q379.72935485839844 27.17132568359375 379.72935485839844 35.26739501953125Z" fill="#9e740b" stroke="none" transform="scale(1,-1) translate(0,-256)" /></svg>