<?xml version="1.0" encoding="utf-8" ?>
<svg baseProfile="full" height="256" version="1.1" width="256" xmlns="http://www.w3.org/2000/svg" xmlns:ev="http://www.w3.org/2001/xml-events" xmlns:xlink="http://www.w3.org/1999/xlink"><defs /><path d="M1016 97Q1042 97 1060 115Q1078 133 1078 159V541Q1078 567 1060 585Q1042 603 1016 603H259Q233 603 215 585Q197 567 197 541V159Q197 133 215 115Q233 97 259 97ZM1016 125H259Q225 125 225 159V541Q225 575 259 575H1016Q1030 575 1040 565Q1050 555 1050 541V159Q1050 145 1040 135Q1030 125 1016 125Z" fill="#bb303d" stroke="none" transform="scale(1,-1) translate(0,-256)" /><path d="M364 598V102H911V598ZM383 579H892V120H383Z" fill="#bb303d" stroke="none" transform="scale(1,-1) translate(0,-256)" /></svg>