<?xml version="1.0" encoding="utf-8" ?>
<svg baseProfile="full" height="256" version="1.1" width="256" xmlns="http://www.w3.org/2000/svg" xmlns:ev="http://www.w3.org/2001/xml-events" xmlns:xlink="http://www.w3.org/1999/xlink"><defs /><path d="M646 208Q649 208 651 207Q666 203 662 188L636 44Q635 43 635 42Q635 25 653 25H693Q707 25 710 39L739 194Q741 208 756 208H837Q837 208 837.0 208.0Q837 208 837 208Q854 209 854 225V262Q854 262 854.0 262.0Q854 262 854 262Q854 279 837 279H775Q774 279 773 279Q756 282 758 298L778 405Q781 419 795 419H870Q870 419 870.0 419.0Q870 419 870 419Q887 420 887 436V473Q887 473 887.0 473.0Q887 473 887 473Q887 490 870 490H815Q813 490 811 490Q795 493 798 509L827 657Q827 658 827 659Q827 676 810 676H770Q755 676 753 662L723 504Q720 490 706 490H639Q638 490 636 490Q619 493 623 509L651 656Q651 657 651 658Q651 675 634 675H593Q579 675 577 661L547 503Q544 489 530 489H439Q439 489 439.0 489.0Q439 489 439 489Q422 489 422 472V435Q422 435 422.0 435.0Q422 435 422 435Q422 418 439 418H510Q511 418 513 418Q529 416 527 399L507 292Q505 278 490 278H405Q405 278 405.0 278.0Q405 278 405 278Q388 278 388 261V224Q388 224 388.0 224.0Q388 224 388 224Q388 207 405 208H471Q472 208 473 207Q490 205 488 188L460 43Q460 42 460 41Q460 24 477 24H518Q532 24 534 38L563 193Q566 208 580 208ZM600 279Q599 279 597 279Q581 282 583 298L603 405Q605 419 620 419H685Q686 419 688 419Q705 416 702 400L683 293Q680 279 666 279Z" fill="#fafafa" stroke="none" transform="scale(1,-1) translate(0,-256)" /></svg>