<?xml version="1.0" encoding="utf-8" ?>
<svg baseProfile="full" height="256" version="1.1" width="256" xmlns="http://www.w3.org/2000/svg" xmlns:ev="http://www.w3.org/2001/xml-events" xmlns:xlink="http://www.w3.org/1999/xlink"><defs /><path d="M909 403Q912 469 865 514Q821 554 749 554Q676 554 633 514Q589 473 589 404Q588 365 609 332Q631 299 667 283Q626 265 600 228Q575 192 576 148Q573 81 623 36Q670 -6 749 -6Q827 -6 875 36Q925 81 923 148Q923 192 897 228Q871 264 830 282Q865 298 888 331Q910 364 909 403ZM852 149Q852 102 824 78Q798 51 748 51Q698 51 671 77Q642 108 644 150Q644 157 644 164Q647 203 677.0 229.5Q707 256 747 253Q791 255 823 224Q854 193 852 149ZM748 496Q787 497 815 470Q843 442 841 403Q843 363 816 335Q788 308 749 310Q710 308 683 335Q656 364 657 403Q655 442 683 471Q710 498 748 496Z" fill="#fafafa" stroke="none" transform="scale(1,-1) translate(0,-256)" /><path d="M498 547 500 548Q500 548 501 548Q513 548 513 537V15Q512 0 497 -1H458Q443 0 443 15V438Q442 441 441 444Q436 459 421 453L375 436Q372 435 369 435Q353 435 353 451V481Q353 493 364 496Z" fill="#fafafa" stroke="none" transform="scale(1,-1) translate(0,-256)" /><path d="M831 625Q835 625 836 620L854 585Q857 582 861 582H877V583L855 622Q853 628 858 631Q864 634 867 640Q873 648 873 658Q873 673 863 683Q849 692 833 691H803Q802 691 802.0 691.0Q802 691 802 691Q796 691 796 685V590Q796 590 796.0 590.0Q796 590 796 590Q796 583 803 583H807Q807 583 807.0 583.0Q807 583 808 583Q814 584 814 590V618Q814 618 814.0 618.0Q814 618 814 619Q814 625 820 625ZM814 647V670Q814 670 814.0 670.0Q814 670 814 670Q814 676 820 676H833Q842 677 848 672Q853 666 853 658Q854 650 848 645Q841 640 833 641H820Q820 641 820.0 641.0Q820 641 820 641Q814 641 814 647Z" fill="#fafafa" stroke="none" transform="scale(1,-1) translate(0,-256)" /><path d="M762 631Q762 631 762.5 631.0Q763 631 763 631Q766 632 766 635V643Q766 646 762 646H726Q722 646 722 650V672Q722 675 726 675H769Q772 675 773 679V687Q772 690 769 690H707Q703 690 703 687V587Q703 584 707 583H769Q772 584 773 587V595Q772 598 769 598H726Q722 599 722 602V628Q722 631 726 631Z" fill="#fafafa" stroke="none" transform="scale(1,-1) translate(0,-256)" /><path d="M605 587Q605 584 608 583H636Q649 584 661 590Q672 596 678 608Q684 620 683 634V640Q684 654 678 666Q672 678 661 684Q649 691 636 690H608Q605 690 605 687ZM623 672Q624 675 627 675H637Q649 676 658 666Q666 654 666 640V634Q667 619 658 608Q649 598 636 598H627Q624 599 623 602Z" fill="#fafafa" stroke="none" transform="scale(1,-1) translate(0,-256)" /><path d="M473 690Q473 690 468.0 690.0Q463 690 463 689Q460 689 459 686V619Q460 617 459 614Q459 606 452.5 601.0Q446 596 438 597Q429 596 422 602Q416 609 416 618V686Q416 689 413 689H401Q398 689 398 686V618Q396 602 408 591Q421 581 437 582Q453 581 466 592Q478 603 477 619V687Q477 690 473 690Z" fill="#fafafa" stroke="none" transform="scale(1,-1) translate(0,-256)" /><path d="M577 583Q577 583 578 584Q581 585 579 588V687Q579 690 576 690H565Q562 690 562 687V628Q562 625 558.5 624.5Q555 624 554 626L515 688Q515 690 512 690H500Q496 690 496 687V588Q496 585 500 584H511Q515 585 515 588V646Q515 649 518.0 649.5Q521 650 522 648L562 585Q562 583 564 583Z" fill="#fafafa" stroke="none" transform="scale(1,-1) translate(0,-256)" /></svg>