<?xml version="1.0" encoding="utf-8" ?>
<svg baseProfile="full" height="256" version="1.1" width="256" xmlns="http://www.w3.org/2000/svg" xmlns:ev="http://www.w3.org/2001/xml-events" xmlns:xlink="http://www.w3.org/1999/xlink"><defs /><path d="M1087.4203186035156 612.4864349365234Q1087.4203186035156 674.3486175537109 1064.2220001220703 728.7446746826172Q1041.023681640625 783.1407318115234 999.6933441162109 824.4710693359375Q958.3630065917969 865.8014068603516 903.9669494628906 889.2663726806641Q849.5708923339844 912.7313385009766 787.7087097167969 912.7313385009766Q725.313232421875 912.7313385009766 670.9171752929688 889.2663726806641Q616.5211181640625 865.8014068603516 575.1907806396484 824.4710693359375Q533.8604431152344 783.1407318115234 510.66212463378906 728.7446746826172Q487.46380615234375 674.3486175537109 487.46380615234375 612.4864349365234Q487.46380615234375 550.6242523193359 510.66212463378906 496.2281951904297Q533.8604431152344 441.83213806152344 575.1907806396484 400.5018005371094Q616.5211181640625 359.1714630126953 670.9171752929688 335.97314453125Q725.313232421875 312.7748260498047 787.7087097167969 312.7748260498047Q849.5708923339844 312.7748260498047 903.9669494628906 335.97314453125Q958.3630065917969 359.1714630126953 999.6933441162109 400.5018005371094Q1041.023681640625 441.83213806152344 1064.2220001220703 496.2281951904297Q1087.4203186035156 550.6242523193359 1087.4203186035156 612.4864349365234Z" fill="#504f4f" stroke="none" transform="scale(1,-1) translate(0,-256)" /><path d="M496.8910675048828 518.7614288330078Q496.8910675048828 561.2985382080078 480.9396514892578 598.7018585205078Q464.9882354736328 636.1051788330078 436.5690460205078 664.5243682861328Q408.1498565673828 692.9435577392578 370.7465362548828 709.0783233642578Q333.3432159423828 725.2130889892578 290.8061065673828 725.2130889892578Q247.9022979736328 725.2130889892578 210.4989776611328 709.0783233642578Q173.0956573486328 692.9435577392578 144.6764678955078 664.5243682861328Q116.25727844238281 636.1051788330078 100.30586242675781 598.7018585205078Q84.35444641113281 561.2985382080078 84.35444641113281 518.7614288330078Q84.35444641113281 476.2243194580078 100.30586242675781 438.8209991455078Q116.25727844238281 401.4176788330078 144.6764678955078 372.9984893798828Q173.0956573486328 344.5792999267578 210.4989776611328 328.6278839111328Q247.9022979736328 312.6764678955078 290.8061065673828 312.6764678955078Q333.3432159423828 312.6764678955078 370.7465362548828 328.6278839111328Q408.1498565673828 344.5792999267578 436.5690460205078 372.9984893798828Q464.9882354736328 401.4176788330078 480.9396514892578 438.8209991455078Q496.8910675048828 476.2243194580078 496.8910675048828 518.7614288330078Z" fill="#504f4f" stroke="none" transform="scale(1,-1) translate(0,-256)" /><path d="M188 -100Q188 -131 210.0 -153.0Q232 -175 263 -175H750Q781 -175 803.0 -153.0Q825 -131 825 -100V238Q825 268 803.0 290.5Q781 313 750 313H263Q232 313 210.0 290.5Q188 268 188 238Z" fill="#504f4f" stroke="none" transform="scale(1,-1) translate(0,-256)" /><path d="M338 -53H638Q649 -53 657.5 -45.0Q666 -37 666 -25V50Q666 62 657.5 70.0Q649 78 638 78H338Q326 78 317.5 70.0Q309 62 309 50V-25Q309 -37 317.5 -45.0Q326 -53 338 -53Z" fill="#504f4f" stroke="none" transform="scale(1,-1) translate(0,-256)" /><path d="M998.4140014648438 612.5Q998.4140014648438 656.0 982.1015014648438 694.25Q965.7890014648438 732.5 936.7265014648438 761.5625Q907.6640014648438 790.625 869.4140014648438 807.125Q831.1640014648438 823.625 787.6640014648438 823.625Q743.7890014648438 823.625 705.5390014648438 807.125Q667.2890014648438 790.625 638.2265014648438 761.5625Q609.1640014648438 732.5 592.8515014648438 694.25Q576.5390014648438 656.0 576.5390014648438 612.5Q576.5390014648438 569.0 592.8515014648438 530.75Q609.1640014648438 492.5 638.2265014648438 463.4375Q667.2890014648438 434.375 705.5390014648438 418.0625Q743.7890014648438 401.75 787.6640014648438 401.75Q831.1640014648438 401.75 869.4140014648438 418.0625Q907.6640014648438 434.375 936.7265014648438 463.4375Q965.7890014648438 492.5 982.1015014648438 530.75Q998.4140014648438 569.0 998.4140014648438 612.5Z" fill="#504f4f" stroke="none" transform="scale(1,-1) translate(0,-256)" /><path d="M407.75677490234375 518.7375030517578Q407.75677490234375 542.9000396728516 398.6958236694336 564.1464080810547Q389.63487243652344 585.3927764892578 373.4917984008789 601.5358505249023Q357.3487243652344 617.6789245605469 336.10235595703125 626.8440246582031Q314.8559875488281 636.0091247558594 290.6934509277344 636.0091247558594Q266.32261657714844 636.0091247558594 245.0762481689453 626.8440246582031Q223.8298797607422 617.6789245605469 207.68680572509766 601.5358505249023Q191.54373168945312 585.3927764892578 182.48278045654297 564.1464080810547Q173.4218292236328 542.9000396728516 173.4218292236328 518.7375030517578Q173.4218292236328 494.57496643066406 182.48278045654297 473.32859802246094Q191.54373168945312 452.0822296142578 207.68680572509766 435.9391555786133Q223.8298797607422 419.79608154296875 245.0762481689453 410.7351303100586Q266.32261657714844 401.67417907714844 290.6934509277344 401.67417907714844Q314.8559875488281 401.67417907714844 336.10235595703125 410.7351303100586Q357.3487243652344 419.79608154296875 373.4917984008789 435.9391555786133Q389.63487243652344 452.0822296142578 398.6958236694336 473.32859802246094Q407.75677490234375 494.57496643066406 407.75677490234375 518.7375030517578Z" fill="#504f4f" stroke="none" transform="scale(1,-1) translate(0,-256)" /></svg>