<?xml version="1.0" encoding="utf-8" ?>
<svg baseProfile="full" height="256" version="1.1" width="256" xmlns="http://www.w3.org/2000/svg" xmlns:ev="http://www.w3.org/2001/xml-events" xmlns:xlink="http://www.w3.org/1999/xlink"><defs /><path d="M152 565 304 562 514 757Q514 757 537.0 736.5Q560 716 595.0 684.5Q630 653 667.0 617.0Q704 581 730 551Q757 521 783.0 479.5Q809 438 830.0 392.0Q851 346 862.5 303.0Q874 260 871 227Q866 183 850.5 145.5Q835 108 816.0 79.0Q797 50 781 33Q769 21 741.5 1.5Q714 -18 675.5 -36.0Q637 -54 590.5 -62.5Q544 -71 495 -61Q445 -52 410.5 -45.0Q376 -38 347.0 -26.0Q318 -14 287.0 8.0Q256 30 214 68Q180 98 161.0 136.0Q142 174 133.0 212.0Q124 250 122.5 282.0Q121 314 122.0 334.0Q123 354 123 354Q123 354 111.5 363.5Q100 373 87.0 391.0Q74 409 68.5 435.5Q63 462 74 496Q84 527 102.5 541.5Q121 556 136.5 560.5Q152 565 152 565Z" fill="#b38a6d" stroke="none" transform="scale(1,-1) translate(0,-256)" /><path d="M490 826Q520 783 531.5 752.0Q543 721 546 693Q551 654 532.0 610.0Q513 566 463 532Q434 512 389.0 507.5Q344 503 295.5 509.0Q247 515 207.5 527.0Q168 539 151 551Q115 576 102.0 608.5Q89 641 92 677Q95 723 113.5 761.0Q132 799 151 823Q166 843 191.5 864.0Q217 885 249.0 899.5Q281 914 315 914Q363 914 407.0 897.5Q451 881 490 826Z" fill="#b38a6d" stroke="none" transform="scale(1,-1) translate(0,-256)" /></svg>