<?xml version="1.0" encoding="utf-8" ?>
<svg baseProfile="full" height="256" version="1.1" width="256" xmlns="http://www.w3.org/2000/svg" xmlns:ev="http://www.w3.org/2001/xml-events" xmlns:xlink="http://www.w3.org/1999/xlink"><defs /><path d="M805 346Q842 328 866.5 328.0Q891 328 911.0 339.5Q931 351 953.0 368.0Q975 385 1006 400Q1068 429 1110.0 436.5Q1152 444 1185 436Q1203 431 1209.0 407.5Q1215 384 1211.5 355.0Q1208 326 1197 306Q1158 235 1094.0 187.0Q1030 139 942 126Q919 122 886.0 127.5Q853 133 820.0 143.0Q787 153 764 165Z" fill="#694d42" stroke="none" transform="scale(1,-1) translate(0,-256)" /><path d="M1195 388 1139 412 1114 356 1174 329Q1168 319 1161 309L1104 334L1080 278L1121 259Q1112 250 1102 242L1070 256L1050 208Q1028 197 1008 191L958 213L943 182Q939 182 930.0 182.0Q921 182 918 182Q923 193 929.5 207.5Q936 222 936 222L880 247L857 195Q844 199 835 204L891 332Q900 334 908.0 338.0Q916 342 924 347L980 322L1005 378L984 388Q996 395 1018.0 405.0Q1040 415 1048 418L1036 390L1092 365L1117 422L1093 433Q1125 441 1151 440L1148 434L1199 412Q1198 402 1195 388ZM945 244 970 300 914 325 889 269ZM1023 209 1048 266 992 291 967 234ZM1058 287 1083 344 1026 369 1001 312Z" fill="#694d42" stroke="none" transform="scale(1,-1) translate(0,-256)" /><path d="M688 1Q701 -15 694.5 -36.5Q688 -58 672 -76Q666 -83 649.0 -100.0Q632 -117 610.0 -137.5Q588 -158 567.5 -177.0Q547 -196 533 -206Q529 -210 516.0 -214.5Q503 -219 495 -210Q489 -203 489.5 -196.0Q490 -189 480 -185Q473 -182 463.5 -185.5Q454 -189 445.0 -192.5Q436 -196 431 -192Q424 -187 425.0 -180.0Q426 -173 419 -169Q415 -166 406.5 -169.5Q398 -173 388.5 -176.5Q379 -180 374 -177Q366 -173 373.5 -162.0Q381 -151 385 -148Q427 -106 471.0 -71.0Q515 -36 576 -7Z" fill="#694d42" stroke="none" transform="scale(1,-1) translate(0,-256)" /><path d="M418 -10Q385 -36 352.5 -61.5Q320 -87 285 -110Q277 -115 268.5 -118.5Q260 -122 251 -122Q241 -123 238 -115Q236 -111 235.0 -107.0Q234 -103 231 -99Q225 -93 217.0 -93.0Q209 -93 201 -96Q197 -97 193.5 -98.0Q190 -99 186 -100Q177 -100 172 -94Q170 -91 170.5 -84.0Q171 -77 168 -74Q160 -68 150.5 -71.5Q141 -75 135 -70Q133 -68 134.5 -64.5Q136 -61 139 -59Q144 -53 151.0 -49.0Q158 -45 164 -41Q230 -3 302 20Z" fill="#694d42" stroke="none" transform="scale(1,-1) translate(0,-256)" /></svg>