<?xml version="1.0" encoding="utf-8" ?>
<svg baseProfile="full" height="256" version="1.1" width="256" xmlns="http://www.w3.org/2000/svg" xmlns:ev="http://www.w3.org/2001/xml-events" xmlns:xlink="http://www.w3.org/1999/xlink"><defs /><path d="M135 -198Q140 -193 155.5 -177.5Q171 -162 189.0 -143.0Q207 -124 220.0 -110.5Q233 -97 233 -97L225 -90Q225 -90 213.0 -102.0Q201 -114 184.5 -131.0Q168 -148 154.0 -163.5Q140 -179 135 -184Q126 -196 123.5 -200.0Q121 -204 123 -205Q124 -206 135 -198Z" fill="#000000" stroke="none" transform="scale(1,-1) translate(0,-256)" /><path d="M249.65011596679688 -85.93878173828125Q249.65011596679688 -82.74920654296875 248.4540252685547 -79.944580078125Q247.2579345703125 -77.13995361328125 245.12696838378906 -75.00898742675781Q242.99600219726562 -72.87802124023438 240.19137573242188 -71.66818237304688Q237.38674926757812 -70.45834350585938 234.19717407226562 -70.45834350585938Q230.9801025390625 -70.45834350585938 228.17547607421875 -71.66818237304688Q225.370849609375 -72.87802124023438 223.23988342285156 -75.00898742675781Q221.10891723632812 -77.13995361328125 219.91282653808594 -79.944580078125Q218.71673583984375 -82.74920654296875 218.71673583984375 -85.93878173828125Q218.71673583984375 -89.12835693359375 219.91282653808594 -91.9329833984375Q221.10891723632812 -94.73760986328125 223.23988342285156 -96.86857604980469Q225.370849609375 -98.99954223632812 228.17547607421875 -100.19563293457031Q230.9801025390625 -101.3917236328125 234.19717407226562 -101.3917236328125Q237.38674926757812 -101.3917236328125 240.19137573242188 -100.19563293457031Q242.99600219726562 -98.99954223632812 245.12696838378906 -96.86857604980469Q247.2579345703125 -94.73760986328125 248.4540252685547 -91.9329833984375Q249.65011596679688 -89.12835693359375 249.65011596679688 -85.93878173828125Z" fill="#000000" stroke="none" transform="scale(1,-1) translate(0,-256)" /></svg>