<?xml version="1.0" encoding="utf-8" ?>
<svg baseProfile="full" height="256" version="1.1" width="256" xmlns="http://www.w3.org/2000/svg" xmlns:ev="http://www.w3.org/2001/xml-events" xmlns:xlink="http://www.w3.org/1999/xlink"><defs /><path d="M806 578Q816 588 829.0 600.0Q842 612 848.5 624.0Q855 636 846 643Q839 649 827.5 643.0Q816 637 803.0 625.0Q790 613 779.0 600.5Q768 588 763 582Q754 573 741.5 557.5Q729 542 721.0 529.0Q713 516 716 512Q720 509 734.5 518.5Q749 528 768.0 544.0Q787 560 806 578Z" fill="#757575" stroke="none" transform="scale(1,-1) translate(0,-256)" /><path d="M464 257Q500 302 540 344Q546 350 559.5 365.5Q573 381 588.0 394.0Q603 407 613 406Q619 405 619 396Q620 384 613.5 373.0Q607 362 600 353Q531 267 445 198Q440 194 428.0 186.5Q416 179 412 183Q409 185 419.0 199.0Q429 213 442.0 229.5Q455 246 464 257Z" fill="#757575" stroke="none" transform="scale(1,-1) translate(0,-256)" /></svg>