<?xml version="1.0" encoding="utf-8" ?>
<svg baseProfile="full" height="256" version="1.1" width="256" xmlns="http://www.w3.org/2000/svg" xmlns:ev="http://www.w3.org/2001/xml-events" xmlns:xlink="http://www.w3.org/1999/xlink"><defs /><path d="M759 605Q759 605 758.5 620.0Q758 635 757.5 649.5Q757 664 757 664Q756 681 739 681Q658 679 605.0 655.5Q552 632 513 587Q432 491 432 324V288Q432 173 491 103Q519 68 560.0 49.5Q601 31 646 33Q738 33 796 93Q853 153 853 250Q853 345 804 404Q755 463 671 463Q614 464 567 432Q562 428 556 430Q543 434 547 446Q560 504 603 544Q656 591 746 592Q746 592 746.0 592.0Q746 592 746 592Q759 593 759 605ZM612 373Q682 388 719 340Q749 298 747 246Q747 187 720 154Q691 116 645 118Q594 117 568 160Q538 203 538 273Q537 299 550.0 322.5Q563 346 586 361Q591 364 597.5 366.5Q604 369 610 372Q610 373 612 373Z" fill="#fafafa" stroke="none" transform="scale(1,-1) translate(0,-256)" /></svg>