<?xml version="1.0" encoding="utf-8" ?>
<svg baseProfile="full" height="256" version="1.1" width="256" xmlns="http://www.w3.org/2000/svg" xmlns:ev="http://www.w3.org/2001/xml-events" xmlns:xlink="http://www.w3.org/1999/xlink"><defs /><path d="M375 -212Q430 -212 464 -170L1177 730Q1206 767 1200.5 813.5Q1195 860 1158 888Q1121 917 1074.5 911.5Q1028 906 1000 870L416 133L295 498Q280 543 238.0 563.5Q196 584 152 570Q108 555 87.0 513.0Q66 471 81 427L268 -135Q278 -165 301.5 -185.0Q325 -205 355 -210Q365 -212 375 -212Z" fill="#546d7a" stroke="none" transform="scale(1,-1) translate(0,-256)" /></svg>