<?xml version="1.0" encoding="utf-8" ?>
<svg baseProfile="full" height="256" version="1.1" width="256" xmlns="http://www.w3.org/2000/svg" xmlns:ev="http://www.w3.org/2001/xml-events" xmlns:xlink="http://www.w3.org/1999/xlink"><defs /><path d="M496 494Q496 494 494.5 480.0Q493 466 483.0 447.5Q473 429 448 413Q431 402 399.5 395.5Q368 389 334.0 388.5Q300 388 273 395Q213 412 175.0 441.5Q137 471 116.0 507.5Q95 544 86.0 580.0Q77 616 76 645Q74 683 86.5 717.0Q99 751 119.0 770.0Q139 789 159 783Q190 774 189.0 747.0Q188 720 169 669Q157 635 162.0 601.5Q167 568 184.0 545.5Q201 523 224 521Q248 520 259.5 541.5Q271 563 277.0 591.5Q283 620 288 640Q295 670 306.5 689.5Q318 709 340 701Q355 695 352.5 674.0Q350 653 341.0 628.5Q332 604 325 586Q319 569 320.5 546.0Q322 523 333.0 503.5Q344 484 366 477Q389 469 404.0 472.0Q419 475 431.0 482.0Q443 489 455 494Q474 501 485.0 497.5Q496 494 496 494Z" fill="#e69267" stroke="none" transform="scale(1,-1) translate(0,-256)" /><path d="M755 480Q755 480 766.5 471.0Q778 462 793.0 450.0Q808 438 819.5 428.5Q831 419 831 419Q831 419 855.0 411.5Q879 404 917.5 400.0Q956 396 1001.5 405.0Q1047 414 1089 447Q1148 493 1172.0 540.0Q1196 587 1197.5 633.5Q1199 680 1189 726Q1183 754 1165.5 773.5Q1148 793 1128.0 797.5Q1108 802 1094 785Q1081 768 1086.0 748.5Q1091 729 1102.0 706.0Q1113 683 1118 655Q1122 628 1114.5 600.5Q1107 573 1090.5 554.0Q1074 535 1054 533Q1039 532 1028.5 545.0Q1018 558 1010.5 578.0Q1003 598 998.0 617.0Q993 636 990 647Q985 660 977.0 679.5Q969 699 959.0 710.0Q949 721 938 712Q924 701 925.0 685.0Q926 669 933.0 651.0Q940 633 946 613Q955 584 956.5 552.0Q958 520 930 497Q911 482 891.5 482.0Q872 482 855.0 489.5Q838 497 827 505Q808 517 796.0 513.5Q784 510 784 510Z" fill="#e69267" stroke="none" transform="scale(1,-1) translate(0,-256)" /></svg>