<?xml version="1.0" encoding="utf-8" ?>
<svg baseProfile="full" height="256" version="1.1" width="256" xmlns="http://www.w3.org/2000/svg" xmlns:ev="http://www.w3.org/2001/xml-events" xmlns:xlink="http://www.w3.org/1999/xlink"><defs /><path d="M474 466Q487 496 506.0 518.5Q525 541 553 571Q556 575 568.5 580.0Q581 585 585 588Q606 621 625.0 632.5Q644 644 657.0 642.5Q670 641 671 637Q672 634 668.0 629.5Q664 625 660 619Q657 614 655.5 609.0Q654 604 654 604Q654 604 679.0 602.0Q704 600 738 574Q754 562 767.0 540.0Q780 518 787.5 501.0Q795 484 795 484Q795 484 809.5 471.0Q824 458 838.5 435.5Q853 413 854 383Q854 351 844.0 322.5Q834 294 820.5 272.0Q807 250 795.5 236.5Q784 223 782 221Q779 217 779.5 210.0Q780 203 780 194Q781 185 785.5 167.0Q790 149 794.5 134.5Q799 120 799 120L477 111Q477 111 480.0 130.0Q483 149 486 164Q489 180 490.0 191.5Q491 203 488 212Q484 221 478.0 231.0Q472 241 463 256Q454 271 439.0 294.5Q424 318 423 363Q422 393 431.0 411.0Q440 429 452.5 441.0Q465 453 474 466Z" fill="#875e51" stroke="none" transform="scale(1,-1) translate(0,-256)" /><path d="M689 561Q689 561 689.5 561.0Q690 561 689 561L726 513Q726 513 729.0 530.0Q732 547 737.0 573.0Q742 599 748.0 626.5Q754 654 760 675Q766 697 776.5 723.5Q787 750 795.5 769.0Q804 788 804 788Q804 788 800.5 794.5Q797 801 788 797Q781 795 770.0 780.5Q759 766 749 756Q739 747 716.5 724.0Q694 701 683 666Q677 647 679.0 622.5Q681 598 685.0 579.5Q689 561 689 561Z" fill="#875e51" stroke="none" transform="scale(1,-1) translate(0,-256)" /><path d="M480 799Q480 799 480.0 799.0Q480 799 480 799Q483 803 493.0 794.5Q503 786 520 769Q537 753 555.5 735.0Q574 717 586 689Q597 660 597.0 631.5Q597 603 593.0 584.0Q589 565 589 565L538 521Q538 521 538.0 538.5Q538 556 536.0 580.5Q534 605 529 626Q522 659 509.5 688.5Q497 718 490 737Q482 755 478.5 774.5Q475 794 480 799Z" fill="#875e51" stroke="none" transform="scale(1,-1) translate(0,-256)" /></svg>