<?xml version="1.0" encoding="utf-8" ?>
<svg baseProfile="full" height="256" version="1.1" width="256" xmlns="http://www.w3.org/2000/svg" xmlns:ev="http://www.w3.org/2001/xml-events" xmlns:xlink="http://www.w3.org/1999/xlink"><defs /><path d="M639 249Q681 249 713.5 231.5Q746 214 767.5 186.5Q789 159 797.5 126.5Q806 94 801 64Q792 17 767.0 -7.0Q742 -31 711.0 -40.0Q680 -49 652 -51Q631 -53 604.5 -50.0Q578 -47 551.5 -35.0Q525 -23 505.0 1.0Q485 25 477 64Q469 107 482.5 141.5Q496 176 522.0 199.5Q548 223 579.5 236.0Q611 249 639 249Z" fill="#a4725e" stroke="none" transform="scale(1,-1) translate(0,-256)" /></svg>