<?xml version="1.0" encoding="utf-8" ?>
<svg baseProfile="full" height="256" version="1.1" width="256" xmlns="http://www.w3.org/2000/svg" xmlns:ev="http://www.w3.org/2001/xml-events" xmlns:xlink="http://www.w3.org/1999/xlink"><defs /><path d="M536 587Q522 584 525 570Q528 556 542 559L628 579Q635 580 638 584Q640 589 639 595Q636 609 622 606Z" fill="#f6bf26" stroke="none" transform="scale(1,-1) translate(0,-256)" /><path d="M585 492Q574 484 582 473Q590 461 601 469L666 514Q672 518 673 522Q674 527 670 533Q662 545 650 537Z" fill="#f6bf26" stroke="none" transform="scale(1,-1) translate(0,-256)" /><path d="M648 423Q638 413 649 403Q654 398 659 398Q664 399 668 404L723 461Q733 472 722 481Q717 486 712 486Q707 486 702 481Z" fill="#f6bf26" stroke="none" transform="scale(1,-1) translate(0,-256)" /><path d="M731 370Q724 358 736 350Q742 347 747 348Q751 349 755 355L796 422Q804 434 792 441Q780 449 772 437Z" fill="#f6bf26" stroke="none" transform="scale(1,-1) translate(0,-256)" /><path d="M834 326Q829 313 842 308Q855 303 860 316L885 385Q888 392 886 396Q884 401 877 403Q864 408 859 395Z" fill="#f6bf26" stroke="none" transform="scale(1,-1) translate(0,-256)" /><path d="M633 622Q585 687 536 704Q486 721 467 686Q449 650 493 620Q527 597 586 593Q586 591 587 588Q593 576 606 581Q614 585 623 588Q654 549 700 536Q738 525 765 549Q792 574 784 604Q774 637 726 640Q688 642 633 622ZM651 599Q695 613 725 612Q752 610 757 596Q760 583 747 570Q731 556 708 563Q675 572 651 599ZM599 620Q540 622 509 643Q485 659 492 673Q499 687 527 677Q562 665 599 620Z" fill="#f6bf26" stroke="none" transform="scale(1,-1) translate(0,-256)" /><path d="M311 432Q376 419 429.5 400.5Q483 382 522.5 348.0Q562 314 587.0 257.0Q612 200 621 111H539Q516 167 485.0 196.0Q454 225 417.0 235.5Q380 246 340.0 245.0Q300 244 259.5 239.5Q219 235 180.5 234.0Q142 233 108 245Q105 271 106.0 299.5Q107 328 111 358Q115 384 120.5 421.0Q126 458 130 481Q167 464 214.5 452.5Q262 441 311 432Z" fill="#f6bf26" stroke="none" transform="scale(1,-1) translate(0,-256)" /></svg>