<?xml version="1.0" encoding="utf-8" ?>
<svg baseProfile="full" height="256" version="1.1" width="256" xmlns="http://www.w3.org/2000/svg" xmlns:ev="http://www.w3.org/2001/xml-events" xmlns:xlink="http://www.w3.org/1999/xlink"><defs /><path d="M292 381Q338 377 387.0 363.5Q436 350 479.5 321.5Q523 293 555.0 242.0Q587 191 599 111H539Q516 167 485.0 196.0Q454 225 417.0 235.5Q380 246 340.0 245.0Q300 244 259.5 239.5Q219 235 180.5 234.0Q142 233 108 245Q105 271 106.0 299.5Q107 328 111 358Q113 370 115.5 385.0Q118 400 120 415Q156 401 201.0 393.5Q246 386 292 381Z" fill="#f4511e" stroke="none" transform="scale(1,-1) translate(0,-256)" /></svg>