<?xml version="1.0" encoding="utf-8" ?>
<svg baseProfile="full" height="256" version="1.1" width="256" xmlns="http://www.w3.org/2000/svg" xmlns:ev="http://www.w3.org/2001/xml-events" xmlns:xlink="http://www.w3.org/1999/xlink"><defs /><path d="M376 820Q409 825 439 823Q455 822 470.0 818.5Q485 815 499 809Q527 796 540.5 768.5Q554 741 560 711Q563 696 565.0 680.0Q567 664 569 648Q570 640 571.0 632.0Q572 624 573 616L577 600L581 584Q603 519 651 476Q611 527 595 588L592 603L590 619Q589 626 588.0 634.0Q587 642 586 650Q585 666 583.0 682.0Q581 698 578 714Q575 730 569.5 746.0Q564 762 556 777Q537 810 505 822Q489 829 472.5 831.0Q456 833 439 832Q405 830 376 820Z" fill="#81d4fa" stroke="none" transform="scale(1,-1) translate(0,-256)" /></svg>