<?xml version="1.0" encoding="utf-8" ?>
<svg baseProfile="full" height="256" version="1.1" width="256" xmlns="http://www.w3.org/2000/svg" xmlns:ev="http://www.w3.org/2001/xml-events" xmlns:xlink="http://www.w3.org/1999/xlink"><defs /><path d="M238 314Q283 316 334.5 311.0Q386 306 433.5 286.0Q481 266 516.0 224.0Q551 182 563 111H539Q516 167 485.0 196.0Q454 225 417.0 235.5Q380 246 340.0 245.0Q300 244 259.5 239.5Q219 235 180.5 234.0Q142 233 108 244Q106 265 106.0 286.5Q106 308 108 330Q137 318 171.0 315.0Q205 312 238 314Z" fill="#9ccc65" stroke="none" transform="scale(1,-1) translate(0,-256)" /></svg>