<?xml version="1.0" encoding="utf-8" ?>
<svg baseProfile="full" height="256" version="1.1" width="256" xmlns="http://www.w3.org/2000/svg" xmlns:ev="http://www.w3.org/2001/xml-events" xmlns:xlink="http://www.w3.org/1999/xlink"><defs /><path d="M1056 -30 978 80 921 -27 863 -8 913 80H783L806 12Q809 0 803.5 -11.0Q798 -22 786 -26L725 -46Q713 -49 702.0 -43.5Q691 -38 687 -26L653 81H488L453 -26Q449 -38 438.0 -43.5Q427 -49 416 -46L354 -26Q342 -22 336.5 -11.0Q331 0 334 12L357 81H237L277 -8L226 -27L136 161Q136 161 146.0 158.5Q156 156 172 152Q172 152 190.0 149.0Q208 146 229 144Q237 143 277.5 142.5Q318 142 381.0 140.5Q444 139 520.5 138.0Q597 137 676.5 136.0Q756 135 830.5 134.0Q905 133 964.0 132.5Q1023 132 1057.5 131.5Q1092 131 1092 131L1076 81L1109 12Z" fill="#616161" stroke="none" transform="scale(1,-1) translate(0,-256)" /></svg>