<?xml version="1.0" encoding="utf-8" ?>
<svg baseProfile="full" height="256" version="1.1" width="256" xmlns="http://www.w3.org/2000/svg" xmlns:ev="http://www.w3.org/2001/xml-events" xmlns:xlink="http://www.w3.org/1999/xlink"><defs /><path d="M550.2401885986328 641.3101501464844V541.5940246582031H718.5352478027344V641.3101501464844Z" fill="#6ca4ab" stroke="none" transform="scale(1,-1) translate(0,-256)" /><path d="M549.48974609375 479.22471618652344V383.51637268066406H719.5017242431641V479.22471618652344Z" fill="#6ca4ab" stroke="none" transform="scale(1,-1) translate(0,-256)" /><path d="M547.8531341552734 317.09515380859375V214.29672241210938H719.4458618164062V317.09515380859375Z" fill="#6ca4ab" stroke="none" transform="scale(1,-1) translate(0,-256)" /><path d="M804 638Q804 639 819.0 639.5Q834 640 854.0 640.0Q874 640 889.5 640.0Q905 640 906 639Q907 638 907.0 623.0Q907 608 907.0 588.5Q907 569 906.5 554.0Q906 539 906 539H804Q804 539 803.5 553.5Q803 568 803.0 587.5Q803 607 803.0 622.0Q803 637 804 638Z" fill="#6ca4ab" stroke="none" transform="scale(1,-1) translate(0,-256)" /><path d="M805 482 905 481 903 385 806 384Z" fill="#6ca4ab" stroke="none" transform="scale(1,-1) translate(0,-256)" /><path d="M810 316H907Q907 316 907.0 301.5Q907 287 907.5 268.0Q908 249 908.0 234.5Q908 220 907 219Q905 218 890.5 217.5Q876 217 857.5 217.0Q839 217 824.5 217.5Q810 218 809 219Q809 220 809.0 235.0Q809 250 809.0 269.0Q809 288 809.5 302.0Q810 316 810 316Z" fill="#6ca4ab" stroke="none" transform="scale(1,-1) translate(0,-256)" /><path d="M810 158Q810 158 824.5 158.0Q839 158 857.5 158.5Q876 159 891.0 159.0Q906 159 907 158Q908 157 908.0 142.5Q908 128 908.0 108.5Q908 89 907.0 74.5Q906 60 905 59Q905 58 890.5 58.0Q876 58 857.5 58.5Q839 59 825.0 59.0Q811 59 811 59Z" fill="#6ca4ab" stroke="none" transform="scale(1,-1) translate(0,-256)" /><path d="M813 -3Q813 -3 827.0 -2.5Q841 -2 860.0 -2.0Q879 -2 893.0 -2.5Q907 -3 908 -4Q908 -5 908.5 -19.5Q909 -34 909.0 -52.5Q909 -71 908.5 -85.5Q908 -100 907 -100Q906 -101 892.0 -101.0Q878 -101 860.0 -101.0Q842 -101 828.0 -101.0Q814 -101 814 -101Z" fill="#6ca4ab" stroke="none" transform="scale(1,-1) translate(0,-256)" /><path d="M1017 -99Q1017 -99 1016.0 -84.5Q1015 -70 1014.5 -51.0Q1014 -32 1014.0 -17.0Q1014 -2 1015 -1Q1015 -1 1030.0 -1.0Q1045 -1 1064.0 -1.5Q1083 -2 1098.0 -2.0Q1113 -2 1114 -3Q1116 -3 1116.0 -18.0Q1116 -33 1116.0 -52.5Q1116 -72 1115.5 -86.5Q1115 -101 1115 -101Q1115 -101 1100.5 -101.0Q1086 -101 1066.5 -101.0Q1047 -101 1032.0 -100.5Q1017 -100 1017 -99Z" fill="#6ca4ab" stroke="none" transform="scale(1,-1) translate(0,-256)" /><path d="M1016 153Q1016 154 1030.5 154.5Q1045 155 1064.5 154.5Q1084 154 1098.5 153.0Q1113 152 1114 152Q1115 151 1115.5 136.0Q1116 121 1115.5 102.0Q1115 83 1114.0 68.5Q1113 54 1112 54Q1111 53 1096.5 53.0Q1082 53 1063.5 53.0Q1045 53 1030.5 53.0Q1016 53 1015 54Q1014 54 1014.0 68.5Q1014 83 1014.0 102.0Q1014 121 1014.5 136.5Q1015 152 1016 153Z" fill="#6ca4ab" stroke="none" transform="scale(1,-1) translate(0,-256)" /><path d="M1014 216Q1012 217 1012.0 231.0Q1012 245 1012.0 263.5Q1012 282 1012.5 295.5Q1013 309 1013 310Q1014 311 1028.5 311.5Q1043 312 1061.5 312.5Q1080 313 1094.5 312.5Q1109 312 1109 311Q1110 310 1110.5 295.0Q1111 280 1111.5 261.5Q1112 243 1111.5 229.0Q1111 215 1110 214Q1109 214 1094.5 213.5Q1080 213 1061.5 213.0Q1043 213 1028.5 214.0Q1014 215 1014 216Z" fill="#6ca4ab" stroke="none" transform="scale(1,-1) translate(0,-256)" /><path d="M1016 474Q1017 475 1031.5 475.5Q1046 476 1064.5 475.5Q1083 475 1097.5 474.5Q1112 474 1113 473Q1114 472 1114.0 458.0Q1114 444 1114.0 426.0Q1114 408 1113.5 393.5Q1113 379 1112 379Q1112 378 1097.5 377.5Q1083 377 1065.0 377.0Q1047 377 1032.5 377.5Q1018 378 1018 379Q1017 380 1016.5 394.0Q1016 408 1016.0 426.0Q1016 444 1016.0 458.5Q1016 473 1016 474Z" fill="#6ca4ab" stroke="none" transform="scale(1,-1) translate(0,-256)" /><path d="M1018 540Q1017 541 1016.5 556.0Q1016 571 1016.0 589.5Q1016 608 1016.5 622.5Q1017 637 1018 637Q1019 638 1033.5 638.5Q1048 639 1067.5 639.5Q1087 640 1101.0 639.5Q1115 639 1116 637Q1116 636 1116.0 621.5Q1116 607 1116.0 588.0Q1116 569 1116.0 554.5Q1116 540 1115 540Q1114 540 1099.5 539.5Q1085 539 1066.5 539.0Q1048 539 1033.5 539.0Q1019 539 1018 540Z" fill="#6ca4ab" stroke="none" transform="scale(1,-1) translate(0,-256)" /><path d="M355 642Q355 642 370.5 643.0Q386 644 405.5 644.0Q425 644 440.5 643.5Q456 643 457 642Q458 642 458.0 627.0Q458 612 458.0 592.5Q458 573 457.5 558.5Q457 544 457 544L355 543Q355 543 355.0 557.5Q355 572 354.5 591.0Q354 610 354.5 625.5Q355 641 355 642Z" fill="#6ca4ab" stroke="none" transform="scale(1,-1) translate(0,-256)" /><path d="M357 480 456 481Q456 481 456.5 466.5Q457 452 457.0 432.5Q457 413 457.0 398.0Q457 383 456 382Q455 381 440.0 381.0Q425 381 406.5 381.0Q388 381 373.5 381.5Q359 382 358 382Q357 383 356.5 398.0Q356 413 356.5 432.0Q357 451 357.0 465.5Q357 480 357 480Z" fill="#6ca4ab" stroke="none" transform="scale(1,-1) translate(0,-256)" /><path d="M359 316Q360 317 374.5 317.5Q389 318 407.5 317.5Q426 317 440.0 316.5Q454 316 455 315Q456 315 456.5 300.5Q457 286 457.5 267.5Q458 249 457.5 234.5Q457 220 455 219Q454 218 439.5 217.5Q425 217 406.0 217.0Q387 217 373.0 217.5Q359 218 358 219Q357 220 357.0 234.5Q357 249 357.0 268.0Q357 287 357.5 301.5Q358 316 359 316Z" fill="#6ca4ab" stroke="none" transform="scale(1,-1) translate(0,-256)" /><path d="M356 157Q357 158 371.5 158.0Q386 158 405.0 157.5Q424 157 438.0 157.0Q452 157 452 157L450 58Q450 58 436.5 57.5Q423 57 404.5 57.0Q386 57 371.5 57.0Q357 57 356 58Q356 59 355.0 73.5Q354 88 354.0 107.0Q354 126 354.5 141.0Q355 156 356 157Z" fill="#6ca4ab" stroke="none" transform="scale(1,-1) translate(0,-256)" /><path d="M356 0 450 -1 448 -98 356 -99Z" fill="#6ca4ab" stroke="none" transform="scale(1,-1) translate(0,-256)" /><path d="M158 -98Q158 -98 157.5 -84.0Q157 -70 156.5 -51.0Q156 -32 155.5 -17.0Q155 -2 156 0Q157 1 172.0 1.5Q187 2 206.5 1.5Q226 1 240.5 1.0Q255 1 255 1V-98Z" fill="#6ca4ab" stroke="none" transform="scale(1,-1) translate(0,-256)" /><path d="M157.06199645996094 154.031005859375Q157.06199645996094 155.031005859375 171.56199645996094 155.531005859375Q186.06199645996094 156.031005859375 205.56199645996094 155.531005859375Q225.06199645996094 155.031005859375 239.56199645996094 154.031005859375Q254.06199645996094 153.031005859375 255.06199645996094 153.031005859375Q256.06199645996094 152.031005859375 256.56199645996094 137.031005859375Q257.06199645996094 122.031005859375 256.56199645996094 103.031005859375Q256.06199645996094 84.031005859375 255.06199645996094 69.531005859375Q254.06199645996094 55.031005859375 253.06199645996094 55.031005859375Q252.06199645996094 54.031005859375 237.56199645996094 54.031005859375Q223.06199645996094 54.031005859375 204.56199645996094 54.031005859375Q186.06199645996094 54.031005859375 171.56199645996094 54.031005859375Q157.06199645996094 54.031005859375 156.06199645996094 55.031005859375Q155.06199645996094 55.031005859375 155.06199645996094 69.531005859375Q155.06199645996094 84.031005859375 155.06199645996094 103.031005859375Q155.06199645996094 122.031005859375 155.56199645996094 137.531005859375Q156.06199645996094 153.031005859375 157.06199645996094 154.031005859375Z" fill="#6ca4ab" stroke="none" transform="scale(1,-1) translate(0,-256)" /><path d="M155 217Q153 218 153.0 232.5Q153 247 153.0 265.0Q153 283 153.5 296.5Q154 310 154 311Q155 312 169.5 312.5Q184 313 202.5 313.5Q221 314 235.5 313.5Q250 313 250 312Q251 311 251.5 296.0Q252 281 252.5 262.5Q253 244 252.5 230.0Q252 216 251 215Q250 215 235.5 214.5Q221 214 202.5 214.0Q184 214 169.5 215.0Q155 216 155 217Z" fill="#6ca4ab" stroke="none" transform="scale(1,-1) translate(0,-256)" /><path d="M157 475Q158 476 172.5 476.5Q187 477 205.5 476.5Q224 476 238.5 475.5Q253 475 254 474Q254 473 254.5 459.0Q255 445 255.0 427.0Q255 409 254.5 394.5Q254 380 253 380Q253 379 238.5 378.5Q224 378 206.0 378.0Q188 378 173.5 378.5Q159 379 159 380Q158 381 157.5 395.0Q157 409 157.0 427.0Q157 445 157.0 459.5Q157 474 157 475Z" fill="#6ca4ab" stroke="none" transform="scale(1,-1) translate(0,-256)" /><path d="M159.06199645996094 541.031005859375Q158.06199645996094 542.031005859375 157.56199645996094 557.031005859375Q157.06199645996094 572.031005859375 157.06199645996094 590.531005859375Q157.06199645996094 609.031005859375 157.56199645996094 623.531005859375Q158.06199645996094 638.031005859375 159.06199645996094 638.031005859375Q160.06199645996094 639.031005859375 174.56199645996094 639.531005859375Q189.06199645996094 640.031005859375 208.56199645996094 640.531005859375Q228.06199645996094 641.031005859375 242.06199645996094 640.531005859375Q256.06199645996094 640.031005859375 257.06199645996094 638.031005859375Q257.06199645996094 637.031005859375 257.06199645996094 622.531005859375Q257.06199645996094 608.031005859375 257.06199645996094 589.031005859375Q257.06199645996094 570.031005859375 257.06199645996094 555.531005859375Q257.06199645996094 541.031005859375 256.06199645996094 541.031005859375Q255.06199645996094 541.031005859375 240.56199645996094 540.531005859375Q226.06199645996094 540.031005859375 207.56199645996094 540.031005859375Q189.06199645996094 540.031005859375 174.56199645996094 540.031005859375Q160.06199645996094 540.031005859375 159.06199645996094 541.031005859375Z" fill="#6ca4ab" stroke="none" transform="scale(1,-1) translate(0,-256)" /></svg>