<?xml version="1.0" encoding="utf-8" ?>
<svg baseProfile="full" height="256" version="1.1" width="256" xmlns="http://www.w3.org/2000/svg" xmlns:ev="http://www.w3.org/2001/xml-events" xmlns:xlink="http://www.w3.org/1999/xlink"><defs /><path d="M463 259Q479 265 493.0 247.0Q507 229 528.5 200.0Q550 171 588 143Q604 131 630.0 118.0Q656 105 684.5 97.5Q713 90 736 95Q754 99 765.0 109.5Q776 120 783.0 130.5Q790 141 796 145Q814 155 827.0 152.5Q840 150 847 155Q855 160 855.5 170.0Q856 180 867 186Q879 193 888.0 193.5Q897 194 904 197Q910 199 913.0 212.0Q916 225 922 224Q929 223 929.5 204.5Q930 186 920 177Q915 172 906.5 171.5Q898 171 892 166Q886 161 881.5 149.5Q877 138 866 130Q850 118 839.5 119.0Q829 120 820 113Q814 108 805.0 98.5Q796 89 788 80Q776 67 751.5 56.5Q727 46 678 50Q630 55 593.5 75.5Q557 96 532.0 119.5Q507 143 494 159Q481 173 471.0 195.5Q461 218 457.5 237.0Q454 256 463 259Z" fill="#026aa8" stroke="none" transform="scale(1,-1) translate(0,-256)" /></svg>