<?xml version="1.0" encoding="utf-8" ?>
<svg baseProfile="full" height="256" version="1.1" width="256" xmlns="http://www.w3.org/2000/svg" xmlns:ev="http://www.w3.org/2001/xml-events" xmlns:xlink="http://www.w3.org/1999/xlink"><defs /><path d="M927 262Q911 275 893.0 289.5Q875 304 859 320Q860 346 863.0 372.0Q866 398 869 423Q870 422 870.0 421.5Q870 421 871 421Q883 401 900.0 384.0Q917 367 936 351Q934 328 933.0 305.0Q932 282 932 258Q931 259 930.0 260.0Q929 261 927 262Z" fill="#0076c6" stroke="none" transform="scale(1,-1) translate(0,-256)" /><path d="M613 335 635 407Q635 407 645.0 407.5Q655 408 670 405Q666 385 658.5 367.0Q651 349 642 332Q630 335 621.5 335.0Q613 335 613 335Z" fill="#0076c6" stroke="none" transform="scale(1,-1) translate(0,-256)" /><path d="M861 199 876 217 924 156 874 117Q869 139 866.0 157.5Q863 176 861 199Z" fill="#0076c6" stroke="none" transform="scale(1,-1) translate(0,-256)" /></svg>