<?xml version="1.0" encoding="utf-8" ?>
<svg baseProfile="full" height="256" version="1.1" width="256" xmlns="http://www.w3.org/2000/svg" xmlns:ev="http://www.w3.org/2001/xml-events" xmlns:xlink="http://www.w3.org/1999/xlink"><defs /><path d="M609 806Q609 806 596.0 823.5Q583 841 551.5 865.0Q520 889 464 907Q422 921 373.0 914.5Q324 908 278.0 883.5Q232 859 199.5 818.0Q167 777 159 721Q151 668 159.0 626.0Q167 584 181.0 554.0Q195 524 208 506Q225 482 252 490Q281 499 332.5 521.0Q384 543 445 588Q478 613 509.5 644.5Q541 676 567.0 706.5Q593 737 608 757Q627 781 609 806Z" fill="#ffc107" stroke="none" transform="scale(1,-1) translate(0,-256)" /><path d="M827 915Q796 907 767.5 888.0Q739 869 715.5 846.5Q692 824 676 805Q663 791 664.0 772.0Q665 753 679 740Q700 721 728.5 695.5Q757 670 788.0 645.5Q819 621 845 605Q917 560 969.5 541.0Q1022 522 1050 516Q1065 513 1078.5 519.5Q1092 526 1100 538Q1110 556 1121.0 582.5Q1132 609 1137.5 642.5Q1143 676 1137 712Q1125 785 1091.0 830.5Q1057 876 1011.5 898.0Q966 920 917.5 923.0Q869 926 827 915Z" fill="#ffc107" stroke="none" transform="scale(1,-1) translate(0,-256)" /><path d="M781.4598846435547 151.1741180419922 828.3376007080078 92.73579406738281 903.8716735839844 153.29270935058594 856.9939575195312 211.7310333251953Z" fill="#ffc107" stroke="none" transform="scale(1,-1) translate(0,-256)" /></svg>