<?xml version="1.0" encoding="utf-8" ?>
<svg baseProfile="full" height="256" version="1.1" width="256" xmlns="http://www.w3.org/2000/svg" xmlns:ev="http://www.w3.org/2001/xml-events" xmlns:xlink="http://www.w3.org/1999/xlink"><defs /><path d="M1061.2628631591797 385.7873077392578 1126.4383392333984 338.65077209472656 1170.3885040283203 399.3927001953125 1105.2130279541016 446.52923583984375Z" fill="#fb8c00" stroke="none" transform="scale(1,-1) translate(0,-256)" /><path d="M702 326 735 392Q719 409 700.0 414.0Q681 419 667.5 419.0Q654 419 654 419L633 347Q633 347 645.0 346.5Q657 346 673.0 341.5Q689 337 702 326Z" fill="#fb8c00" stroke="none" transform="scale(1,-1) translate(0,-256)" /><path d="M80.9044189453125 28.34588623046875 85.47689819335938 -46.437286376953125 153.48316955566406 -42.28559875488281 148.9106903076172 32.49757385253906Z" fill="#fb8c00" stroke="none" transform="scale(1,-1) translate(0,-256)" /><path d="M442 41Q479 67 508 102L451 150Q428 123 399 103Z" fill="#fb8c00" stroke="none" transform="scale(1,-1) translate(0,-256)" /><path d="M756 -224 822 -188Q800 -148 773 -111L712 -154Q736 -188 756 -224Z" fill="#fb8c00" stroke="none" transform="scale(1,-1) translate(0,-256)" /></svg>