<?xml version="1.0" encoding="utf-8" ?>
<svg baseProfile="full" height="256" version="1.1" width="256" xmlns="http://www.w3.org/2000/svg" xmlns:ev="http://www.w3.org/2001/xml-events" xmlns:xlink="http://www.w3.org/1999/xlink"><defs /><path d="M267 518Q293 529 335.5 551.5Q378 574 430 611Q483 649 516.5 685.5Q550 722 565 744Q570 751 565.5 757.5Q561 764 553 762Q530 756 488.0 736.0Q446 716 387 668Q332 624 300.5 590.5Q269 557 253 536Q248 529 253.5 522.0Q259 515 267 518Z" fill="#000000" stroke="none" transform="scale(1,-1) translate(0,-256)" /><path d="M726 739Q743 722 776.5 693.5Q810 665 863 629Q914 595 962.0 575.5Q1010 556 1038 548Q1044 546 1047.5 551.5Q1051 557 1046 561Q1031 577 1006.5 599.0Q982 621 953.0 644.5Q924 668 894 687Q850 715 805.5 730.5Q761 746 734 753Q728 754 724.5 748.5Q721 743 726 739Z" fill="#000000" stroke="none" transform="scale(1,-1) translate(0,-256)" /></svg>