<?xml version="1.0" encoding="utf-8" ?>
<svg baseProfile="full" height="256" version="1.1" width="256" xmlns="http://www.w3.org/2000/svg" xmlns:ev="http://www.w3.org/2001/xml-events" xmlns:xlink="http://www.w3.org/1999/xlink"><defs /><path d="M322 429Q321 424 321.5 405.5Q322 387 323.5 364.5Q325 342 326.5 323.0Q328 304 328 298Q329 289 330.0 270.0Q331 251 331.0 233.5Q331 216 328 211Q326 208 306.0 208.0Q286 208 260.5 210.0Q235 212 216.0 213.5Q197 215 197 215L183 235Q183 235 187.0 248.0Q191 261 193 268Q193 271 198.0 292.5Q203 314 209.0 345.0Q215 376 221.5 406.0Q228 436 232.0 456.0Q236 476 236 476Q236 476 245.0 494.5Q254 513 268.5 541.5Q283 570 299.0 602.5Q315 635 329.5 664.0Q344 693 353.5 712.0Q363 731 363 732Q363 734 375.0 745.0Q387 756 404.5 771.0Q422 786 440.0 801.0Q458 816 471.0 826.5Q484 837 486 838Q492 839 502.0 842.0Q512 845 512 845L738 854Q738 854 750.5 852.5Q763 851 773 849Q775 848 790.0 841.0Q805 834 823.5 824.5Q842 815 856.0 808.0Q870 801 870 801L980 537L1079 298L1086 242L995 171Q995 171 985.5 172.5Q976 174 966.0 176.5Q956 179 955 181Q954 183 952.0 197.5Q950 212 947.5 231.5Q945 251 943.0 268.0Q941 285 940 292Q938 299 935.5 316.0Q933 333 929.5 352.0Q926 371 923.0 386.5Q920 402 919 407Q917 414 911.5 429.0Q906 444 898 464Q895 474 889.0 493.5Q883 513 876.5 533.0Q870 553 865.0 567.0Q860 581 858 580Q857 580 854.0 564.5Q851 549 848.5 533.5Q846 518 846 518L841 449Q841 449 845.0 444.5Q849 440 852 435Q855 430 856.5 426.5Q858 423 858 423L809 373L922 -50Q922 -50 924.0 -61.0Q926 -72 928.5 -85.5Q931 -99 931 -106Q931 -116 921.5 -128.5Q912 -141 886 -156Q861 -172 840.0 -179.0Q819 -186 819 -186L792 -163L758 -191Q758 -191 745.5 -195.5Q733 -200 700.0 -205.0Q667 -210 604 -209Q540 -209 486.0 -196.5Q432 -184 398.0 -170.0Q364 -156 362 -151Q359 -144 360.0 -133.5Q361 -123 361 -123L415 -63L422 378Q422 378 424.5 391.0Q427 404 429 409Q432 415 436.5 416.5Q441 418 441 418L436 437Q436 437 434.0 441.5Q432 446 431 449Q428 457 423.5 470.0Q419 483 416 493Q413 503 408.5 518.0Q404 533 400.0 545.0Q396 557 395 557Q393 557 388.0 549.0Q383 541 377.5 531.5Q372 522 370 517Q368 512 356.5 493.5Q345 475 334.0 455.5Q323 436 322 429Z" fill="#b7885a" stroke="none" transform="scale(1,-1) translate(0,-256)" /><path d="M447 247Q449 247 458.5 241.5Q468 236 477.0 229.0Q486 222 486 219Q486 214 473.5 199.5Q461 185 439 161Q419 137 400.5 119.5Q382 102 382 102Q382 102 383.0 111.0Q384 120 384 131Q385 138 387.5 155.0Q390 172 390 172Q390 172 394.5 178.0Q399 184 405 191Q408 195 418.0 209.0Q428 223 437.0 235.0Q446 247 447 247Z" fill="#b7885a" stroke="none" transform="scale(1,-1) translate(0,-256)" /><path d="M842 248Q843 248 850.0 240.0Q857 232 866.0 221.5Q875 211 881.5 203.5Q888 196 888 196Q888 196 889.5 183.5Q891 171 893.0 155.0Q895 139 897.0 126.5Q899 114 898 114Q898 114 886.5 125.5Q875 137 857 157Q839 177 822.5 197.5Q806 218 806 221Q806 224 815.0 230.0Q824 236 833.0 242.0Q842 248 842 248Z" fill="#b7885a" stroke="none" transform="scale(1,-1) translate(0,-256)" /><path d="M546 795 608 675 634 656 719 794Q719 794 696.0 807.0Q673 820 632 820Q590 820 568.0 807.5Q546 795 546 795Z" fill="#b7885a" stroke="none" transform="scale(1,-1) translate(0,-256)" /><path d="M798 855Q801 857 816.5 856.0Q832 855 848.5 851.5Q865 848 870 842Q878 833 876.5 822.5Q875 812 869 811Q863 811 853.0 816.5Q843 822 833 826Q823 830 808.5 836.0Q794 842 794 842Q794 842 794.0 847.0Q794 852 798 855Z" fill="#b7885a" stroke="none" transform="scale(1,-1) translate(0,-256)" /><path d="M445 839Q449 838 450.5 832.0Q452 826 452 823Q452 821 438.5 812.0Q425 803 409.5 795.0Q394 787 391 787Q385 787 381.0 796.0Q377 805 378 810Q379 820 402 828Q413 832 426.5 836.0Q440 840 445 839Z" fill="#b7885a" stroke="none" transform="scale(1,-1) translate(0,-256)" /><path d="M283 307Q282 305 259.0 300.5Q236 296 205 285Q173 273 160.0 265.0Q147 257 147 263Q146 275 158.5 290.0Q171 305 197 317Q214 325 233.5 330.5Q253 336 266.0 339.0Q279 342 279 342Q279 342 280.0 334.0Q281 326 282.0 317.5Q283 309 283 307Z" fill="#b7885a" stroke="none" transform="scale(1,-1) translate(0,-256)" /><path d="M990 291V290Q990 290 1004.5 292.0Q1019 294 1049 288Q1075 283 1096.0 276.0Q1117 269 1119 273Q1124 283 1110.0 304.0Q1096 325 1062 332Q1029 339 1006.0 336.0Q983 333 983 333Z" fill="#b7885a" stroke="none" transform="scale(1,-1) translate(0,-256)" /></svg>