<?xml version="1.0" encoding="utf-8" ?>
<svg baseProfile="full" height="256" version="1.1" width="256" xmlns="http://www.w3.org/2000/svg" xmlns:ev="http://www.w3.org/2001/xml-events" xmlns:xlink="http://www.w3.org/1999/xlink"><defs /><path d="M558 285Q569 286 577.5 278.0Q586 270 585 257Q584 244 575.5 237.5Q567 231 558 231Q549 231 540.5 238.0Q532 245 531 255Q530 264 535.5 274.5Q541 285 558 285Z" fill="#7a4e23" stroke="none" transform="scale(1,-1) translate(0,-256)" /><path d="M696 284Q707 285 715.0 277.5Q723 270 723 261Q724 237 700 235Q687 233 680.0 240.0Q673 247 671 257Q669 268 676.5 276.0Q684 284 696 284Z" fill="#7a4e23" stroke="none" transform="scale(1,-1) translate(0,-256)" /><path d="M545 866 570 892 651 902 721 876 713 788H554L535 831Z" fill="#7a4e23" stroke="none" transform="scale(1,-1) translate(0,-256)" /><path d="M231 220Q268 229 289.0 226.5Q310 224 319.0 217.5Q328 211 328 211Q328 211 320.5 199.0Q313 187 293.0 174.0Q273 161 236 161Q213 160 201.0 168.0Q189 176 184.5 184.0Q180 192 180 192Q180 192 193.0 202.5Q206 213 231 220Z" fill="#7a4e23" stroke="none" transform="scale(1,-1) translate(0,-256)" /><path d="M685 457Q696 457 703.5 450.0Q711 443 712 433Q715 409 689 407Q663 405 661 429Q660 441 667.0 448.5Q674 456 685 457Z" fill="#7a4e23" stroke="none" transform="scale(1,-1) translate(0,-256)" /><path d="M570 460Q582 460 589.5 451.5Q597 443 597 434Q597 425 591.0 416.5Q585 408 573 408Q561 408 554.0 415.5Q547 423 547 431Q546 440 551.0 450.0Q556 460 570 460Z" fill="#7a4e23" stroke="none" transform="scale(1,-1) translate(0,-256)" /><path d="M955 181Q955 181 959.0 174.0Q963 167 981 163Q996 159 1022.5 160.0Q1049 161 1068 166Q1086 170 1091.5 181.0Q1097 192 1096.5 201.0Q1096 210 1096 210Q1096 210 1073.0 215.0Q1050 220 1012 213Q981 207 968.0 194.0Q955 181 955 181Z" fill="#7a4e23" stroke="none" transform="scale(1,-1) translate(0,-256)" /></svg>