<?xml version="1.0" encoding="utf-8" ?>
<svg baseProfile="full" height="256" version="1.1" width="256" xmlns="http://www.w3.org/2000/svg" xmlns:ev="http://www.w3.org/2001/xml-events" xmlns:xlink="http://www.w3.org/1999/xlink"><defs /><path d="M1019 -18Q1025 -31 1038.0 -37.5Q1051 -44 1061.0 -46.0Q1071 -48 1071 -48Q1071 -48 1064.0 -63.0Q1057 -78 1040 -89Q1025 -99 1008.0 -102.0Q991 -105 978 -105Q978 -105 964.5 -119.0Q951 -133 922.0 -151.0Q893 -169 847.0 -182.5Q801 -196 735 -196H539Q473 -196 426.5 -182.5Q380 -169 351.5 -151.0Q323 -133 309.5 -119.0Q296 -105 296 -105Q283 -105 266.0 -102.0Q249 -99 233 -89Q217 -78 209.5 -63.0Q202 -48 202 -48Q202 -48 212.5 -46.0Q223 -44 235.5 -37.5Q248 -31 255 -18Q265 2 254.5 23.5Q244 45 222 70Q204 90 188.0 126.0Q172 162 166.5 207.5Q161 253 174.0 301.5Q187 350 228 396Q256 427 310.5 445.0Q365 463 436.5 470.5Q508 478 586.5 477.0Q665 476 741.0 468.5Q817 461 882.0 449.0Q947 437 990.5 423.5Q1034 410 1046 396Q1088 350 1101.5 301.5Q1115 253 1109.0 207.5Q1103 162 1086.5 126.0Q1070 90 1052 70Q1030 45 1019.0 23.5Q1008 2 1019 -18Z" fill="#543930" stroke="none" transform="scale(1,-1) translate(0,-256)" /><path d="M822 777Q838 772 864.5 757.5Q891 743 921.0 716.5Q951 690 977.5 648.0Q1004 606 1021.0 545.5Q1038 485 1038 403L998 421Q1008 374 1017.5 333.0Q1027 292 1032.5 265.0Q1038 238 1038 234Q1034 198 1022.0 165.0Q1010 132 1002 115Q1000 112 997.0 112.5Q994 113 994 116Q991 146 987.0 182.0Q983 218 978.0 253.5Q973 289 968 315Q959 367 934.5 394.5Q910 422 882.5 433.0Q855 444 835.5 445.5Q816 447 816 447Q816 447 805.5 458.5Q795 470 775.5 482.0Q756 494 727.0 498.0Q698 502 660.0 489.5Q622 477 576 437Q531 404 488.0 382.5Q445 361 410.0 348.0Q375 335 354.0 330.0Q333 325 333 325Q334 315 329.0 286.0Q324 257 316.5 221.0Q309 185 301.0 152.5Q293 120 289 104Q288 101 285.0 100.5Q282 100 281 103Q275 120 266.0 160.5Q257 201 261 267Q261 267 263.0 282.0Q265 297 269.5 319.0Q274 341 280.0 363.5Q286 386 294 401L243 410Q233 469 244.5 506.5Q256 544 274.5 566.5Q293 589 308.5 603.0Q324 617 322 629Q320 645 316 655Q304 692 311.5 718.0Q319 744 334.5 759.5Q350 775 363.5 782.5Q377 790 377 790Q377 790 378.5 781.5Q380 773 386.0 761.5Q392 750 407 741Q426 730 452.5 731.5Q479 733 506.5 740.5Q534 748 553 757Q567 762 590.0 772.0Q613 782 646.5 789.5Q680 797 724.0 795.5Q768 794 822 777Z" fill="#543930" stroke="none" transform="scale(1,-1) translate(0,-256)" /></svg>