<?xml version="1.0" encoding="utf-8" ?>
<svg baseProfile="full" height="256" version="1.1" width="256" xmlns="http://www.w3.org/2000/svg" xmlns:ev="http://www.w3.org/2001/xml-events" xmlns:xlink="http://www.w3.org/1999/xlink"><defs /><path d="M638 720Q709 720 775.0 683.5Q841 647 892.5 581.0Q944 515 974.0 424.0Q1004 333 1004 223Q1004 114 973.5 32.0Q943 -50 890.5 -104.0Q838 -158 772.5 -185.0Q707 -212 638 -212Q568 -212 502.5 -185.0Q437 -158 384.5 -104.0Q332 -50 301.5 32.0Q271 114 271 223Q271 333 301.0 424.0Q331 515 382.5 581.0Q434 647 500.0 683.5Q566 720 638 720Z" fill="#ffca28" stroke="none" transform="scale(1,-1) translate(0,-256)" /><path d="M1089 818Q1107 814 1117.5 795.5Q1128 777 1124 755Q1121 737 1110.5 725.0Q1100 713 1086 710L1041 444Q1043 443 1048.5 437.5Q1054 432 1051 414L1047 396Q1043 396 1008.5 399.0Q974 402 917.5 405.0Q861 408 789.0 410.5Q717 413 638 413Q558 413 486.0 410.5Q414 408 357.5 405.0Q301 402 266.5 399.0Q232 396 228 396L224 414Q221 432 226.5 437.5Q232 443 234 444L189 710Q176 713 165.0 725.0Q154 737 151 755Q147 777 157.5 795.5Q168 814 186 818Q205 821 220.5 807.5Q236 794 241 772Q245 747 233 728Q246 718 278.0 701.0Q310 684 355.5 675.5Q401 667 455 683Q511 699 542.0 720.5Q573 742 588.0 766.0Q603 790 609 814Q582 830 582 861Q582 884 598.5 900.0Q615 916 638 916Q660 916 676.5 900.0Q693 884 693 861Q693 830 667 814Q672 790 687.0 765.0Q702 740 733.5 718.5Q765 697 820 683Q874 669 919.5 677.0Q965 685 997.0 701.5Q1029 718 1043 728Q1030 748 1035 772Q1039 794 1055.0 807.5Q1071 821 1089 818Z" fill="#ffca28" stroke="none" transform="scale(1,-1) translate(0,-256)" /></svg>