<?xml version="1.0" encoding="utf-8" ?>
<svg baseProfile="full" height="256" version="1.1" width="256" xmlns="http://www.w3.org/2000/svg" xmlns:ev="http://www.w3.org/2001/xml-events" xmlns:xlink="http://www.w3.org/1999/xlink"><defs /><path d="M-256.60638427734375 272.36590576171875Q-256.60638427734375 272.36590576171875 -264.44937896728516 289.32520294189453Q-272.29237365722656 306.2845001220703 -277.9496765136719 332.5044250488281Q-282.5274658203125 355.51300048828125 -284.9653625488281 381.2109375Q-287.40325927734375 406.90887451171875 -288.163330078125 428.2863464355469Q-288.92340087890625 449.663818359375 -287.86940002441406 458.6018829345703Q-286.93251037597656 466.5468292236328 -276.16173553466797 474.41548919677734Q-265.3909606933594 482.2841491699219 -252.94873809814453 488.8696975708008Q-240.5065155029297 495.4552459716797 -234.19757080078125 499.49285888671875Q-231.81707763671875 501.131103515625 -212.65079498291016 484.3600845336914Q-193.48451232910156 467.5890655517578 -164.64087677001953 440.14002227783203Q-135.7972412109375 412.69097900390625 -103.786376953125 381.18603515625Q-71.7755126953125 349.68109130859375 -43.70585632324219 321.8514862060547Q-15.636199951171875 294.0218811035156 1.9235687255859375 275.99317932128906Q19.48333740234375 257.9644775390625 19.48333740234375 257.9644775390625Q6.852691650390625 255.96395874023438 -7.7816009521484375 243.15513610839844Q-22.4158935546875 230.3463134765625 -26.578567504882812 225.96070861816406Q-42.8779296875 211.39764404296875 -70.44840240478516 200.18021392822266Q-98.01887512207031 188.96278381347656 -130.79849243164062 189.21707153320312Q-163.57810974121094 189.4713592529297 -196.69515228271484 208.50432586669922Q-229.81219482421875 227.53729248046875 -256.60638427734375 272.36590576171875Z" fill="#000000" stroke="none" transform="scale(1,-1) translate(0,-256)" /><path d="M637 -196H539Q473 -196 427.0 -182.5Q381 -169 352.0 -151.0Q323 -133 309.5 -119.0Q296 -105 296 -105L325 -68L637 -94Z" fill="#000000" stroke="none" transform="scale(1,-1) translate(0,-256)" /><path d="M247.4809112548828 -174.53416442871094Q229.1312255859375 -179.20518493652344 214.24596405029297 -172.12808990478516Q199.36070251464844 -165.05099487304688 188.27532196044922 -154.2318115234375Q177.18994140625 -143.41262817382812 171.77094268798828 -134.5824737548828Q166.35194396972656 -125.7523193359375 166.35194396972656 -125.7523193359375Q166.35194396972656 -125.7523193359375 176.34558868408203 -129.05453491210938Q186.3392333984375 -132.35675048828125 199.51294708251953 -133.3455581665039Q212.68666076660156 -134.33436584472656 222.07191467285156 -127.75131225585938Q234.17237854003906 -119.92636108398438 234.66714477539062 -106.24411010742188Q235.1619110107422 -92.56185913085938 229.134521484375 -73.846435546875Q229.134521484375 -73.846435546875 229.134521484375 -73.846435546875Q229.134521484375 -73.846435546875 229.134521484375 -73.846435546875Q229.134521484375 -73.846435546875 240.82122802734375 -84.53372955322266Q252.5079345703125 -95.22102355957031 262.9180450439453 -111.35926055908203Q273.3281555175781 -127.49749755859375 272.48651123046875 -144.4876708984375Q271.6448669433594 -161.47784423828125 247.4809112548828 -174.53416442871094Z" fill="#000000" stroke="none" transform="scale(1,-1) translate(0,-256)" /><path d="M160.80941772460938 1084.7366638183594Q160.80941772460938 1084.7366638183594 167.9317626953125 1070.7098693847656Q175.05410766601562 1056.6830749511719 185.6758804321289 1034.6207656860352Q196.2976531982422 1012.5584564208984 206.7373809814453 988.9484710693359Q217.17710876464844 965.3384857177734 225.0021209716797 945.3529815673828Q232.82713317871094 925.3674774169922 233.88113403320312 916.4294128417969Q234.81802368164062 908.4844665527344 226.2723617553711 897.4838790893555Q217.72669982910156 886.4832916259766 207.2753677368164 876.1858291625977Q196.82403564453125 865.8883666992188 191.6862030029297 859.9947967529297Q189.77415466308594 857.6605682373047 167.44586944580078 867.703742980957Q145.11758422851562 877.7469177246094 111.00394439697266 894.9881973266602Q76.89030456542969 912.2294769287109 38.84821319580078 931.8701248168945Q0.806121826171875 951.5107727050781 -32.709205627441406 969.8611679077148Q-66.22453308105469 988.2115631103516 -87.23908233642578 999.479850769043Q-108.25363159179688 1010.7481384277344 -108.25363159179688 1010.7481384277344Q-96.67698669433594 1017.6856842041016 -85.5560302734375 1034.67041015625Q-74.43507385253906 1051.6551361083984 -71.32640075683594 1056.2075958251953Q-59.12593078613281 1076.4036712646484 -35.127349853515625 1095.4763488769531Q-11.128768920898438 1114.5490264892578 20.479736328125 1124.7344970703125Q52.08824157714844 1134.9199676513672 88.30873107910156 1127.6352996826172Q124.52922058105469 1120.3506317138672 160.80941772460938 1084.7366638183594Z" fill="#000000" stroke="none" transform="scale(1,-1) translate(0,-256)" /><path d="M637.4380035400391 -196.0H735.4380035400391Q801.4380035400391 -196.0 847.4380035400391 -182.5Q893.4380035400391 -169.0 922.4380035400391 -151.0Q951.4380035400391 -133.0 964.9380035400391 -119.0Q978.4380035400391 -105.0 978.4380035400391 -105.0L949.4380035400391 -68.0L637.4380035400391 -94.0Z" fill="#000000" stroke="none" transform="scale(1,-1) translate(0,-256)" /><path d="M1026.9570922851562 -174.53416442871094Q1045.3067779541016 -179.20518493652344 1060.192039489746 -172.12808990478516Q1075.0773010253906 -165.05099487304688 1086.1626815795898 -154.2318115234375Q1097.248062133789 -143.41262817382812 1102.6670608520508 -134.5824737548828Q1108.0860595703125 -125.7523193359375 1108.0860595703125 -125.7523193359375Q1108.0860595703125 -125.7523193359375 1098.092414855957 -129.05453491210938Q1088.0987701416016 -132.35675048828125 1074.9250564575195 -133.3455581665039Q1061.7513427734375 -134.33436584472656 1052.3660888671875 -127.75131225585938Q1040.265625 -119.92636108398438 1039.7708587646484 -106.24411010742188Q1039.2760925292969 -92.56185913085938 1045.303482055664 -73.846435546875Q1045.303482055664 -73.846435546875 1045.303482055664 -73.846435546875Q1045.303482055664 -73.846435546875 1045.303482055664 -73.846435546875Q1045.303482055664 -73.846435546875 1033.6167755126953 -84.53372955322266Q1021.9300689697266 -95.22102355957031 1011.5199584960938 -111.35926055908203Q1001.1098480224609 -127.49749755859375 1001.9514923095703 -144.4876708984375Q1002.7931365966797 -161.47784423828125 1026.9570922851562 -174.53416442871094Z" fill="#000000" stroke="none" transform="scale(1,-1) translate(0,-256)" /><path d="M778.3221435546875 445.00482177734375Q774.9454956054688 442.2767028808594 764.2076568603516 433.8509750366211Q753.4698181152344 425.4252471923828 745.0281982421875 418.6049499511719Q729.3607482910156 405.4470977783203 709.9770202636719 394.28211975097656Q690.5932922363281 383.1171417236328 670.4293975830078 380.3135452270508Q650.2655029296875 377.50994873046875 631.8859252929688 389.6355285644531Q606.0737915039062 405.7468566894531 599.3106689453125 425.2596435546875Q592.5475463867188 444.7724304199219 597.5386962890625 464.79022216796875Q602.5298461914062 484.8080139160156 613.7033081054688 502.07786560058594Q624.8767700195312 519.3477172851562 636.5252227783203 531.2566299438477Q648.1736755371094 543.1655426025391 653.5093688964844 545.9778289794922Q653.0368347167969 545.0965118408203 647.7405090332031 528.0791625976562Q642.4441833496094 511.0618133544922 652.6528625488281 490.83604431152344Q660.5628662109375 475.2471008300781 679.3805236816406 465.723388671875Q698.1981811523438 456.1996765136719 719.2431488037109 451.72249603271484Q740.2881164550781 447.2453155517578 757.3460845947266 446.04090118408203Q774.404052734375 444.83648681640625 778.3221435546875 445.00482177734375Z" fill="#000000" stroke="none" transform="scale(1,-1) translate(0,-256)" /><path d="M-576.3845977783203 718.5636444091797Q-510.76348876953125 701.9408416748047 -463.44144439697266 678.9910125732422Q-416.11940002441406 656.0411834716797 -385.9373321533203 634.8124542236328Q-381.5428161621094 632.3546447753906 -378.64964294433594 626.2604370117188Q-375.7564697265625 620.1662292480469 -381.0636520385742 613.8625946044922Q-386.37083435058594 607.5589599609375 -406.1164855957031 604.2790374755859Q-425.8621368408203 600.9991149902344 -467.6670684814453 604.5575408935547Q-557.8801116943359 611.4029541015625 -619.9007263183594 621.0243988037109Q-681.9213409423828 630.6458435058594 -720.8308258056641 641.2173233032227Q-759.7403106689453 651.7888031005859 -780.5127258300781 661.7440643310547Q-801.2851409912109 671.6993255615234 -808.1872253417969 678.5649642944336Q-815.0893096923828 685.4306030273438 -813.0951232910156 687.6403656005859Q-778.445556640625 713.9172668457031 -738.6964263916016 723.7219467163086Q-698.9472961425781 733.5266265869141 -657.2815475463867 730.9412612915039Q-615.6157989501953 728.3558959960938 -576.3845977783203 718.5636444091797Z" fill="#000000" stroke="none" transform="scale(1,-1) translate(0,-256)" /><path d="M377 790Q377 790 377.0 790.0Q377 790 377 790Q377 790 370.5 775.5Q364 761 360.5 738.0Q357 715 364.5 689.5Q372 664 401 642L322 628Q322 637 319.0 646.0Q316 655 316 655Q305 690 311.0 715.0Q317 740 331.0 755.5Q345 771 358.5 779.5Q372 788 376 789Q376 789 376.0 789.0Q376 789 376 789Q377 790 377 790Z" fill="#000000" stroke="none" transform="scale(1,-1) translate(0,-256)" /></svg>