<?xml version="1.0" encoding="utf-8" ?>
<svg baseProfile="full" height="256" version="1.1" width="256" xmlns="http://www.w3.org/2000/svg" xmlns:ev="http://www.w3.org/2001/xml-events" xmlns:xlink="http://www.w3.org/1999/xlink"><defs /><path d="M836 106Q839 107 843 106Q851 105 856.0 98.5Q861 92 860 83L859 81L857 80Q835 69 813 59Q805 56 797.5 53.5Q790 51 782 48Q774 46 766.5 43.5Q759 41 751 39Q719 31 687 28Q663 25 638 25Q519 25 415 80Q415 81 415.0 81.5Q415 82 415 82Q414 86 415 90Q417 98 424.0 103.0Q431 108 439 106Q537 89 638 90Q738 89 836 106Z" fill="#ffffff" stroke="none" transform="scale(1,-1) translate(0,-256)" /><path d="M904.990478515625 298.5413513183594Q904.990478515625 322.5180358886719 895.9992218017578 343.6009826660156Q887.0079650878906 364.6839294433594 870.9890594482422 380.7028350830078Q854.9701538085938 396.72174072265625 833.88720703125 405.81634521484375Q812.8042602539062 414.91094970703125 788.8275756835938 414.91094970703125Q764.6441955566406 414.91094970703125 743.5612487792969 405.81634521484375Q722.4783020019531 396.72174072265625 706.4593963623047 380.7028350830078Q690.4404907226562 364.6839294433594 681.4492340087891 343.6009826660156Q672.4579772949219 322.5180358886719 672.4579772949219 298.5413513183594Q672.4579772949219 274.5646667480469 681.4492340087891 253.48171997070312Q690.4404907226562 232.39877319335938 706.4593963623047 216.37986755371094Q722.4783020019531 200.3609619140625 743.5612487792969 191.3697052001953Q764.6441955566406 182.37844848632812 788.8275756835938 182.37844848632812Q812.8042602539062 182.37844848632812 833.88720703125 191.3697052001953Q854.9701538085938 200.3609619140625 870.9890594482422 216.37986755371094Q887.0079650878906 232.39877319335938 895.9992218017578 253.48171997070312Q904.990478515625 274.5646667480469 904.990478515625 298.5413513183594Z" fill="#ffffff" stroke="none" transform="scale(1,-1) translate(0,-256)" /><path d="M602.552978515625 298.5413513183594Q602.552978515625 322.5180358886719 593.5617218017578 343.6009826660156Q584.5704650878906 364.6839294433594 568.5515594482422 380.7028350830078Q552.5326538085938 396.72174072265625 531.44970703125 405.81634521484375Q510.36676025390625 414.91094970703125 486.39007568359375 414.91094970703125Q462.2066955566406 414.91094970703125 441.1237487792969 405.81634521484375Q420.0408020019531 396.72174072265625 404.0218963623047 380.7028350830078Q388.00299072265625 364.6839294433594 379.01173400878906 343.6009826660156Q370.0204772949219 322.5180358886719 370.0204772949219 298.5413513183594Q370.0204772949219 274.5646667480469 379.01173400878906 253.48171997070312Q388.00299072265625 232.39877319335938 404.0218963623047 216.37986755371094Q420.0408020019531 200.3609619140625 441.1237487792969 191.3697052001953Q462.2066955566406 182.37844848632812 486.39007568359375 182.37844848632812Q510.36676025390625 182.37844848632812 531.44970703125 191.3697052001953Q552.5326538085938 200.3609619140625 568.5515594482422 216.37986755371094Q584.5704650878906 232.39877319335938 593.5617218017578 253.48171997070312Q602.552978515625 274.5646667480469 602.552978515625 298.5413513183594Z" fill="#ffffff" stroke="none" transform="scale(1,-1) translate(0,-256)" /></svg>