<?xml version="1.0" encoding="utf-8" ?>
<svg baseProfile="full" height="256" version="1.1" width="256" xmlns="http://www.w3.org/2000/svg" xmlns:ev="http://www.w3.org/2001/xml-events" xmlns:xlink="http://www.w3.org/1999/xlink"><defs /><path d="M398 212Q398 212 462.5 220.5Q527 229 658 249Q708 257 756.0 277.0Q804 297 845.0 325.5Q886 354 913.5 389.0Q941 424 949 462Q967 515 954.5 566.0Q942 617 906.5 656.5Q871 696 819 715Q764 736 705.0 740.0Q646 744 586.0 741.0Q526 738 466.0 736.5Q406 735 349.0 743.5Q292 752 239 779Q212 793 198.0 815.5Q184 838 179.0 860.5Q174 883 173.5 898.5Q173 914 173 914Q130 887 113.5 840.5Q97 794 103.0 741.5Q109 689 131.5 641.5Q154 594 188 564Q284 475 429 467Q453 466 487.0 463.0Q521 460 556.5 453.5Q592 447 621.5 433.5Q651 420 667.0 398.0Q683 376 678 342Q675 321 650.5 303.5Q626 286 590.5 272.5Q555 259 517.0 248.0Q479 237 446.5 228.0Q414 219 398 212Z" fill="#bdbdbd" stroke="none" transform="scale(1,-1) translate(0,-256)" /><path d="M191 202Q170 176 159.0 145.5Q148 115 153 82Q181 128 217.0 153.5Q253 179 296.5 191.0Q340 203 391 211Q451 219 510.0 227.0Q569 235 629 245Q681 253 730.0 274.5Q779 296 814.5 328.0Q850 360 863.0 398.5Q876 437 858.5 478.5Q841 520 782 561Q734 592 677.5 603.5Q621 615 561.5 617.5Q502 620 444.0 624.0Q386 628 333.0 644.5Q280 661 237 701Q189 746 172.0 784.5Q155 823 156.5 852.0Q158 881 165.5 897.5Q173 914 173 914Q134 888 118.0 849.5Q102 811 102.0 769.0Q102 727 113.0 688.5Q124 650 141 624Q180 558 243.0 522.0Q306 486 382 473Q398 470 423.5 468.5Q449 467 475.5 463.0Q502 459 522.0 448.0Q542 437 547 416Q552 397 537.5 383.0Q523 369 501.5 359.5Q480 350 462 344Q414 327 364.0 311.0Q314 295 268.5 270.0Q223 245 191 202Z" fill="#bdbdbd" stroke="none" transform="scale(1,-1) translate(0,-256)" /></svg>