<?xml version="1.0" encoding="utf-8" ?>
<svg baseProfile="full" height="256" version="1.1" width="256" xmlns="http://www.w3.org/2000/svg" xmlns:ev="http://www.w3.org/2001/xml-events" xmlns:xlink="http://www.w3.org/1999/xlink"><defs /><path d="M110 -130Q108 -121 115.5 -115.0Q123 -109 120 -101Q118 -95 111.0 -92.5Q104 -90 101 -84Q95 -71 106.5 -63.0Q118 -55 128 -64Q134 -70 132.5 -78.5Q131 -87 128 -94Q124 -100 129 -108Q132 -114 137.0 -118.0Q142 -122 144 -133Q146 -145 137.5 -146.5Q129 -148 120.0 -143.0Q111 -138 110 -130Z" fill="#f44336" stroke="none" transform="scale(1,-1) translate(0,-256)" /><path d="M172 8Q168 20 157.5 23.5Q147 27 136 19Q130 14 129.5 4.5Q129 -5 124 -8Q120 -11 116.0 -9.0Q112 -7 108 -9Q102 -12 100.5 -19.0Q99 -26 102 -31Q103 -34 106.5 -36.5Q110 -39 113 -38Q122 -34 121.5 -23.5Q121 -13 125 -12Q129 -10 134.0 -13.5Q139 -17 143 -16Q149 -13 150.5 -10.0Q152 -7 156 -7Q167 -6 170 -18Q173 -25 167.5 -30.5Q162 -36 161 -44Q159 -55 171 -61Q171 -62 172.0 -63.0Q173 -64 173 -66Q168 -88 179 -96Q185 -101 193 -93Q203 -82 203.5 -69.5Q204 -57 200 -48Q195 -34 186.5 -31.0Q178 -28 175 -17Q173 -12 173.5 -4.5Q174 3 172 8Z" fill="#f44336" stroke="none" transform="scale(1,-1) translate(0,-256)" /></svg>