<?xml version="1.0" encoding="utf-8" ?>
<svg baseProfile="full" height="256" version="1.1" width="256" xmlns="http://www.w3.org/2000/svg" xmlns:ev="http://www.w3.org/2001/xml-events" xmlns:xlink="http://www.w3.org/1999/xlink"><defs /><path d="M395 764 560 781 622 412 372 409Q372 409 373.0 420.5Q374 432 375.0 447.5Q376 463 376.0 477.0Q376 491 375 495Q372 504 355.5 511.0Q339 518 300 526Q257 535 229.5 543.5Q202 552 183.0 568.0Q164 584 146 614Q133 634 133.0 658.0Q133 682 137.5 699.0Q142 716 142 716Q142 716 162.5 715.5Q183 715 212.5 714.5Q242 714 270 716Q318 718 347.0 720.0Q376 722 385 731Q394 740 394.5 752.0Q395 764 395 764Z" fill="#000000" stroke="none" transform="scale(1,-1) translate(0,-256)" /><path d="M598 727 487 721Q487 721 488.5 707.0Q490 693 492.0 673.0Q494 653 495.5 632.0Q497 611 496 598Q496 568 494.0 535.5Q492 503 490.0 480.0Q488 457 489 454Q490 447 511.5 445.5Q533 444 567.5 449.5Q602 455 640 467Q679 480 703.0 501.5Q727 523 738.5 541.0Q750 559 750 561Q752 566 736.0 576.0Q720 586 699.5 599.5Q679 613 668 628Q656 643 652.5 654.0Q649 665 646.5 675.0Q644 685 634 699Q622 716 610.0 721.5Q598 727 598 727Z" fill="#000000" stroke="none" transform="scale(1,-1) translate(0,-256)" /><path d="M1023 854Q1061 852 1081.5 842.5Q1102 833 1112.5 821.0Q1123 809 1130 799Q1136 789 1140.5 769.5Q1145 750 1143.5 726.0Q1142 702 1130.0 680.0Q1118 658 1090 643Q1047 620 1010.0 628.5Q973 637 948.0 662.0Q923 687 916 715Q912 733 915.5 757.0Q919 781 931.5 803.5Q944 826 967.0 840.5Q990 855 1023 854Z" fill="#000000" stroke="none" transform="scale(1,-1) translate(0,-256)" /><path d="M507 933Q532 933 561.0 928.0Q590 923 615.5 910.5Q641 898 656.0 876.0Q671 854 669 820Q667 774 641.0 750.0Q615 726 576.5 718.0Q538 710 496 712Q433 715 392.5 738.5Q352 762 350 820Q349 858 374.5 883.0Q400 908 437.0 920.5Q474 933 507 933Z" fill="#000000" stroke="none" transform="scale(1,-1) translate(0,-256)" /></svg>