<?xml version="1.0" encoding="utf-8" ?>
<svg baseProfile="full" height="256" version="1.1" width="256" xmlns="http://www.w3.org/2000/svg" xmlns:ev="http://www.w3.org/2001/xml-events" xmlns:xlink="http://www.w3.org/1999/xlink"><defs /><path d="M952 715Q1021 715 1077.0 681.5Q1133 648 1166.5 591.5Q1200 535 1200 467V73Q1200 54 1186.5 41.0Q1173 28 1155 28H531L530 501Q530 557 507.5 595.0Q485 633 452.0 657.0Q419 681 386.0 693.5Q353 706 331.0 710.5Q309 715 309 715Z" fill="#1976d2" stroke="none" transform="scale(1,-1) translate(0,-256)" /><path d="M282 715Q356 715 409.0 687.0Q462 659 490.0 611.0Q518 563 518 501V48Q518 40 512.5 34.0Q507 28 498 28H99Q89 28 82.0 35.0Q75 42 75 52V501Q75 563 96.0 611.0Q117 659 162.5 687.0Q208 715 282 715Z" fill="#1976d2" stroke="none" transform="scale(1,-1) translate(0,-256)" /></svg>