<?xml version="1.0" encoding="utf-8" ?>
<svg baseProfile="full" height="256" version="1.1" width="256" xmlns="http://www.w3.org/2000/svg" xmlns:ev="http://www.w3.org/2001/xml-events" xmlns:xlink="http://www.w3.org/1999/xlink"><defs /><path d="M283 715Q284 715 296.5 715.0Q309 715 325.0 715.0Q341 715 353.5 715.0Q366 715 367 715Q431 713 475.0 683.5Q519 654 542.5 606.5Q566 559 566 501V48Q566 40 560.0 34.0Q554 28 546 28H278Z" fill="#4fc3f7" stroke="none" transform="scale(1,-1) translate(0,-256)" /><path d="M361 612Q369 612 369 604V593Q369 585 361 585H347Q340 585 335.0 580.0Q330 575 330 568V561Q330 554 325.0 548.5Q320 543 312 543H208Q201 543 195.5 548.5Q190 554 190 561V589Q190 602 198.5 607.0Q207 612 214 612Z" fill="#4fc3f7" stroke="none" transform="scale(1,-1) translate(0,-256)" /></svg>