<?xml version="1.0" encoding="utf-8" ?>
<svg baseProfile="full" height="256" version="1.1" width="256" xmlns="http://www.w3.org/2000/svg" xmlns:ev="http://www.w3.org/2001/xml-events" xmlns:xlink="http://www.w3.org/1999/xlink"><defs /><path d="M685 464Q674 469 675.0 484.0Q676 499 684.0 514.0Q692 529 704 535Q711 539 719.5 539.0Q728 539 734 532Q742 522 735.5 515.0Q729 508 722 501Q715 494 710.0 484.0Q705 474 697 467Q690 461 685 464Z" fill="#ffffff" stroke="none" transform="scale(1,-1) translate(0,-256)" /><path d="M322 596Q325 600 331 605Q334 607 331 607H214Q204 607 202.0 599.0Q200 591 200 591H315Q320 591 322 596Z" fill="#ffffff" stroke="none" transform="scale(1,-1) translate(0,-256)" /></svg>