<?xml version="1.0" encoding="utf-8" ?>
<svg baseProfile="full" height="256" version="1.1" width="256" xmlns="http://www.w3.org/2000/svg" xmlns:ev="http://www.w3.org/2001/xml-events" xmlns:xlink="http://www.w3.org/1999/xlink"><defs /><path d="M254 570Q253 567 252.0 563.5Q251 560 256 558Q259 556 263.5 558.5Q268 561 272 561Q286 565 302.5 566.5Q319 568 334 564Q353 559 366.0 550.0Q379 541 392 529Q401 522 404 533Q410 558 396.5 580.5Q383 603 358 613Q354 615 349.5 616.0Q345 617 341 618Q316 621 291.0 606.5Q266 592 254 570Z" fill="#193d51" stroke="none" transform="scale(1,-1) translate(0,-256)" /><path d="M621 342Q622 343 627.0 352.0Q632 361 634.0 369.5Q636 378 629 379Q625 379 622.0 377.5Q619 376 616 374Q584 360 548.5 350.5Q513 341 477 339Q467 338 457.5 338.5Q448 339 438 340Q402 343 371 357Q324 378 291 417Q286 422 281.0 428.0Q276 434 272 440Q270 442 268.0 444.5Q266 447 264 449Q259 454 256 456Q249 459 247.5 448.5Q246 438 247.0 425.5Q248 413 248 411Q250 390 257 372Q270 331 296 300Q312 281 329 268Q353 250 383 243Q434 230 484.5 244.5Q535 259 575 292Q577 294 579.5 296.5Q582 299 585 301Q594 310 603.5 320.0Q613 330 621 342Z" fill="#193d51" stroke="none" transform="scale(1,-1) translate(0,-256)" /><path d="M671 470Q673 495 661.5 521.0Q650 547 623 559Q613 563 603 564Q572 569 545.0 553.0Q518 537 507 513Q501 501 516 503Q537 505 554.5 510.5Q572 516 593 511Q611 507 627.5 495.5Q644 484 653 472Q655 470 658.0 465.5Q661 461 664 461Q668 460 669.5 463.5Q671 467 671 470Z" fill="#193d51" stroke="none" transform="scale(1,-1) translate(0,-256)" /></svg>