<?xml version="1.0" encoding="utf-8" ?>
<svg baseProfile="full" height="256" version="1.1" width="256" xmlns="http://www.w3.org/2000/svg" xmlns:ev="http://www.w3.org/2001/xml-events" xmlns:xlink="http://www.w3.org/1999/xlink"><defs /><path d="M1071 375Q1071 375 1092.0 375.5Q1113 376 1143 364Q1167 355 1179.0 334.0Q1191 313 1195.5 290.0Q1200 267 1200.0 250.5Q1200 234 1200 234Q1200 202 1188.5 175.0Q1177 148 1162.5 128.5Q1148 109 1136.5 98.5Q1125 88 1125 88L1104 187Q1104 187 1114.0 192.5Q1124 198 1137.0 208.0Q1150 218 1159.5 231.5Q1169 245 1167 262Q1166 279 1155.0 286.0Q1144 293 1130.5 294.0Q1117 295 1106.5 293.5Q1096 292 1096 292Z" fill="#f45125" stroke="none" transform="scale(1,-1) translate(0,-256)" /><path d="M682 59 723 -27Q723 -27 706.0 -21.5Q689 -16 664.5 -11.0Q640 -6 619 -8Q597 -10 584.5 -20.5Q572 -31 562.5 -46.0Q553 -61 539.5 -76.5Q526 -92 502 -103Q483 -110 466 -112Q446 -115 423 -109Q409 -105 391 -97Q388 -95 385.5 -93.5Q383 -92 380 -90Q379 -90 377.5 -88.0Q376 -86 378 -85Q380 -84 382.0 -84.5Q384 -85 386 -85Q388 -85 391.0 -84.5Q394 -84 397 -84Q408 -84 420 -82Q426 -80 432.5 -78.5Q439 -77 445 -75Q449 -73 452 -71Q453 -70 455.5 -68.5Q458 -67 456 -66Q455 -65 452 -65Q431 -63 413 -54Q406 -51 399.5 -46.0Q393 -41 387 -36Q385 -34 383.0 -31.5Q381 -29 379 -27Q378 -26 375.5 -22.5Q373 -19 376 -18Q376 -18 377.0 -18.5Q378 -19 378 -19Q379 -19 379.5 -19.5Q380 -20 381 -20Q384 -20 386.5 -21.0Q389 -22 393 -22Q402 -24 411.0 -26.0Q420 -28 430 -29Q444 -30 456 -28Q466 -25 475 -20Q480 -17 484.0 -13.5Q488 -10 491 -6Q495 -1 499.0 4.0Q503 9 507 14Q512 21 517.0 27.5Q522 34 527 41Q546 64 572.0 70.5Q598 77 623.0 73.5Q648 70 665.0 64.5Q682 59 682 59Z" fill="#f45125" stroke="none" transform="scale(1,-1) translate(0,-256)" /><path d="M223 591 234 499Q234 499 218.5 498.5Q203 498 182.0 494.0Q161 490 144.0 479.0Q127 468 123 446Q121 428 138.0 416.5Q155 405 178.5 398.5Q202 392 220.5 389.5Q239 387 239 387L227 298Q227 298 209.0 304.0Q191 310 165.0 322.0Q139 334 115.5 354.0Q92 374 80.5 403.0Q69 432 80 471Q91 509 114.0 533.0Q137 557 162.5 569.5Q188 582 205.5 586.5Q223 591 223 591Z" fill="#f45125" stroke="none" transform="scale(1,-1) translate(0,-256)" /><path d="M232 285 271 200Q260 195 248 188Q239 182 230.5 175.0Q222 168 214 161Q199 147 187 131Q181 124 176.0 117.0Q171 110 166 102Q162 95 159.0 89.0Q156 83 152 77Q151 75 150.0 72.5Q149 70 148 68Q146 64 146 65Q145 63 144.0 64.0Q143 65 143 66Q143 68 142.5 69.0Q142 70 142 72Q142 74 141.5 77.0Q141 80 141 83Q140 94 141 106Q142 117 143.5 127.5Q145 138 148 148Q148 152 150 157Q152 162 152 163Q150 166 147.5 164.5Q145 163 143 161Q136 157 132 155Q116 142 104 126Q102 124 100.0 121.0Q98 118 97 115Q96 114 95.5 112.5Q95 111 94 110Q92 109 92.0 112.5Q92 116 92 117Q92 119 92.0 121.0Q92 123 92 125Q92 144 98 160Q108 187 124 206Q141 226 158.0 239.0Q175 252 189 261Q208 275 220.0 280.0Q232 285 232 285Z" fill="#f45125" stroke="none" transform="scale(1,-1) translate(0,-256)" /></svg>