<?xml version="1.0" encoding="utf-8" ?>
<svg baseProfile="full" height="256" version="1.1" width="256" xmlns="http://www.w3.org/2000/svg" xmlns:ev="http://www.w3.org/2001/xml-events" xmlns:xlink="http://www.w3.org/1999/xlink"><defs /><path d="M108 299 212 310 1157 344Q1157 344 1171.0 328.5Q1185 313 1186 283Q1186 274 1182.5 246.5Q1179 219 1161.0 181.0Q1143 143 1100 100Q1071 72 1046.0 60.0Q1021 48 995.0 45.0Q969 42 939.0 42.0Q909 42 870 36Q845 33 821.5 20.5Q798 8 773.5 -7.0Q749 -22 720.5 -33.5Q692 -45 656 -47Q621 -49 589.5 -39.0Q558 -29 529.5 -13.0Q501 3 473.5 19.0Q446 35 418 44Q381 56 349.5 55.5Q318 55 286.5 54.0Q255 53 219 65Q179 78 150.0 104.0Q121 130 105.5 159.5Q90 189 88 214Q84 256 96.0 277.5Q108 299 108 299Z" fill="#ffffff" stroke="none" transform="scale(1,-1) translate(0,-256)" /><path d="M635 426Q617 426 595.0 432.0Q573 438 552.5 445.5Q532 453 519.0 459.0Q506 465 506 465Q506 465 520.0 476.5Q534 488 564.0 499.0Q594 510 642 510Q689 510 719.5 499.0Q750 488 765.0 477.0Q780 466 780 466Q780 466 764.5 460.5Q749 455 727 448Q706 440 686.0 433.0Q666 426 635 426Z" fill="#ffffff" stroke="none" transform="scale(1,-1) translate(0,-256)" /></svg>