<?xml version="1.0" encoding="utf-8" ?>
<svg baseProfile="full" height="256" version="1.1" width="256" xmlns="http://www.w3.org/2000/svg" xmlns:ev="http://www.w3.org/2001/xml-events" xmlns:xlink="http://www.w3.org/1999/xlink"><defs /><path d="M388 678Q397 680 402.5 673.0Q408 666 417 656Q432 640 434.0 619.5Q436 599 411 592Q389 586 378.5 602.0Q368 618 373 642Q376 655 378.0 665.5Q380 676 388 678Z" fill="#f5e5c7" stroke="none" transform="scale(1,-1) translate(0,-256)" /><path d="M545 701Q547 708 539.5 718.0Q532 728 518 742Q505 755 487.5 753.5Q470 752 462 735Q454 718 463.5 705.0Q473 692 488 691Q508 688 525.0 691.5Q542 695 545 701Z" fill="#f5e5c7" stroke="none" transform="scale(1,-1) translate(0,-256)" /><path d="M602 716Q607 715 613.5 699.0Q620 683 620 672Q619 660 611.5 652.5Q604 645 592 646Q583 647 574.5 654.5Q566 662 570 679Q574 694 585.5 705.5Q597 717 602 716Z" fill="#f5e5c7" stroke="none" transform="scale(1,-1) translate(0,-256)" /><path d="M278 481Q275 489 281.0 496.0Q287 503 295 513Q308 530 327.5 536.0Q347 542 359 518Q369 498 355.0 485.0Q341 472 316 472Q303 473 292.0 473.0Q281 473 278 481Z" fill="#f5e5c7" stroke="none" transform="scale(1,-1) translate(0,-256)" /><path d="M163 482Q172 482 176.0 473.5Q180 465 185 453Q195 434 192.0 414.0Q189 394 163 393Q140 393 134.0 411.5Q128 430 140 452Q145 463 150.0 473.0Q155 483 163 482Z" fill="#f5e5c7" stroke="none" transform="scale(1,-1) translate(0,-256)" /><path d="M1013 505Q1005 504 999.5 512.0Q994 520 987 530Q974 548 974.0 568.5Q974 589 999 593Q1022 597 1030.5 580.0Q1039 563 1032 539Q1028 528 1025.0 517.0Q1022 506 1013 505Z" fill="#f5e5c7" stroke="none" transform="scale(1,-1) translate(0,-256)" /><path d="M397 334Q402 331 400.0 320.5Q398 310 395 298Q389 277 373.0 264.0Q357 251 338 268Q320 282 328.0 300.0Q336 318 359 327Q371 331 382.0 334.0Q393 337 397 334Z" fill="#f5e5c7" stroke="none" transform="scale(1,-1) translate(0,-256)" /><path d="M343 366Q341 362 330.0 361.5Q319 361 305 361Q296 362 288.0 363.0Q280 364 272 368Q258 377 258.0 393.5Q258 410 269.0 421.5Q280 433 301 427Q311 424 318.0 415.0Q325 406 332 396Q337 388 341.0 379.0Q345 370 343 366Z" fill="#f5e5c7" stroke="none" transform="scale(1,-1) translate(0,-256)" /><path d="M248 518Q249 524 242.5 535.5Q236 547 224.0 556.5Q212 566 197 568Q180 569 170.5 559.0Q161 549 161.5 535.5Q162 522 177 513Q188 506 205.0 506.0Q222 506 235.0 509.5Q248 513 248 518Z" fill="#f5e5c7" stroke="none" transform="scale(1,-1) translate(0,-256)" /><path d="M272 576Q265 578 261.0 600.5Q257 623 263 643Q268 658 282.0 667.0Q296 676 315 668Q331 661 330.0 642.5Q329 624 324 614Q317 601 299.0 587.5Q281 574 272 576Z" fill="#f5e5c7" stroke="none" transform="scale(1,-1) translate(0,-256)" /><path d="M460 447Q459 450 447.5 453.5Q436 457 420.5 456.5Q405 456 393 448Q378 436 378.0 423.0Q378 410 387.0 401.0Q396 392 409 393Q428 393 439.5 405.0Q451 417 456.0 430.0Q461 443 460 447Z" fill="#f5e5c7" stroke="none" transform="scale(1,-1) translate(0,-256)" /><path d="M492 376Q494 374 496.0 362.0Q498 350 498.0 336.5Q498 323 497 314Q494 302 483.0 291.0Q472 280 451 289Q430 298 430.0 312.0Q430 326 435 335Q441 345 453.0 355.5Q465 366 476.5 372.5Q488 379 492 376Z" fill="#f5e5c7" stroke="none" transform="scale(1,-1) translate(0,-256)" /><path d="M530 242Q525 251 536.0 266.0Q547 281 560 292Q574 304 594.0 305.5Q614 307 623 288Q635 264 623.0 251.5Q611 239 598 235Q593 234 578.0 232.0Q563 230 548.5 231.5Q534 233 530 242Z" fill="#f5e5c7" stroke="none" transform="scale(1,-1) translate(0,-256)" /><path d="M685 303Q689 307 701.0 302.5Q713 298 724.5 290.5Q736 283 741 278Q750 268 750.5 252.5Q751 237 737 226Q725 217 709.5 221.0Q694 225 688 238Q685 244 682.5 258.5Q680 273 680.0 286.0Q680 299 685 303Z" fill="#f5e5c7" stroke="none" transform="scale(1,-1) translate(0,-256)" /><path d="M756 331Q758 332 757.0 342.5Q756 353 752.5 364.5Q749 376 745 382Q735 396 721.5 399.0Q708 402 697 393Q687 386 686.5 369.5Q686 353 696 345Q714 330 733.5 329.0Q753 328 756 331Z" fill="#f5e5c7" stroke="none" transform="scale(1,-1) translate(0,-256)" /><path d="M805 347Q800 351 805.5 371.5Q811 392 820 404Q847 436 873 412Q886 401 880.5 387.0Q875 373 869 366Q861 357 847.0 351.5Q833 346 821.0 345.0Q809 344 805 347Z" fill="#f5e5c7" stroke="none" transform="scale(1,-1) translate(0,-256)" /><path d="M966 471Q968 477 955.5 493.5Q943 510 924 515Q905 520 897.0 514.0Q889 508 886 502Q883 495 883.0 482.0Q883 469 898 462Q907 457 922.5 457.5Q938 458 951.5 461.5Q965 465 966 471Z" fill="#f5e5c7" stroke="none" transform="scale(1,-1) translate(0,-256)" /><path d="M901 327Q907 325 908.5 314.5Q910 304 910 299Q911 294 912.5 280.0Q914 266 908.0 255.0Q902 244 879 250Q857 255 856.5 267.5Q856 280 865.0 292.5Q874 305 878 309Q883 314 888.0 321.5Q893 329 901 327Z" fill="#f5e5c7" stroke="none" transform="scale(1,-1) translate(0,-256)" /><path d="M950 353Q952 361 968.0 359.0Q984 357 997 354Q1011 350 1022.0 339.0Q1033 328 1023 310Q1013 291 999.0 295.5Q985 300 977 309Q970 318 958.5 331.5Q947 345 950 353Z" fill="#f5e5c7" stroke="none" transform="scale(1,-1) translate(0,-256)" /><path d="M1112 440Q1112 446 1102.5 452.0Q1093 458 1082.0 462.0Q1071 466 1064 468Q1046 471 1033.5 463.5Q1021 456 1021 440Q1021 424 1031.5 417.5Q1042 411 1058 412Q1079 413 1095.5 424.0Q1112 435 1112 440Z" fill="#f5e5c7" stroke="none" transform="scale(1,-1) translate(0,-256)" /><path d="M1062 502Q1060 510 1075.5 520.5Q1091 531 1097 535Q1104 538 1119.0 539.0Q1134 540 1140 521Q1146 502 1134.0 496.0Q1122 490 1108 490Q1094 490 1079.0 492.5Q1064 495 1062 502Z" fill="#f5e5c7" stroke="none" transform="scale(1,-1) translate(0,-256)" /><path d="M984 668Q989 676 1003.0 674.0Q1017 672 1026 667Q1034 661 1043.5 650.0Q1053 639 1045 626Q1037 612 1025.0 614.5Q1013 617 1003 625Q994 632 986.0 646.0Q978 660 984 668Z" fill="#f5e5c7" stroke="none" transform="scale(1,-1) translate(0,-256)" /><path d="M941 648Q945 645 944.5 628.5Q944 612 938 599Q932 585 919.0 577.5Q906 570 892 580Q878 592 880.5 606.0Q883 620 894 630Q906 641 921.5 645.5Q937 650 941 648Z" fill="#f5e5c7" stroke="none" transform="scale(1,-1) translate(0,-256)" /><path d="M736 659Q732 654 712.5 660.0Q693 666 677 677Q664 687 665.5 703.0Q667 719 677 726Q689 735 700.0 732.0Q711 729 720 719Q728 708 733.5 686.5Q739 665 736 659Z" fill="#f5e5c7" stroke="none" transform="scale(1,-1) translate(0,-256)" /><path d="M750 718Q744 722 749.0 733.5Q754 745 763 756Q772 769 784.0 771.5Q796 774 804 764Q811 756 809.0 745.0Q807 734 795 727Q783 719 769.0 716.5Q755 714 750 718Z" fill="#f5e5c7" stroke="none" transform="scale(1,-1) translate(0,-256)" /><path d="M788 663Q785 670 794.0 681.5Q803 693 816.5 703.5Q830 714 841 717Q849 720 858.5 717.5Q868 715 875 698Q882 684 876.0 674.0Q870 664 858 659Q851 656 835.0 654.5Q819 653 804.5 655.0Q790 657 788 663Z" fill="#f5e5c7" stroke="none" transform="scale(1,-1) translate(0,-256)" /></svg>