<?xml version="1.0" encoding="utf-8" ?>
<svg baseProfile="full" height="256" version="1.1" width="256" xmlns="http://www.w3.org/2000/svg" xmlns:ev="http://www.w3.org/2001/xml-events" xmlns:xlink="http://www.w3.org/1999/xlink"><defs /><path d="M86 574 122 610 500 620 436 555Q436 555 394.5 562.5Q353 570 285 569Q240 569 202.0 561.5Q164 554 138.0 547.5Q112 541 104 542Q92 545 89.0 559.5Q86 574 86 574Z" fill="#464c4f" stroke="none" transform="scale(1,-1) translate(0,-256)" /><path d="M297 284Q297 284 309.0 266.5Q321 249 337.5 225.0Q354 201 367.0 180.0Q380 159 382 153Q384 148 403.5 135.0Q423 122 451.0 106.0Q479 90 506.0 74.5Q533 59 551.5 49.5Q570 40 570 40L796 86L919 279Q919 279 928.5 282.0Q938 285 950.0 287.0Q962 289 971.5 288.5Q981 288 982 282Q983 278 983.5 255.0Q984 232 980.0 197.0Q976 162 964.0 121.0Q952 80 927 41Q901 1 860.0 -34.0Q819 -69 761.5 -90.0Q704 -111 629 -110Q548 -109 480.5 -70.5Q413 -32 371 23Q336 68 320.0 114.0Q304 160 299.5 198.5Q295 237 296.0 260.5Q297 284 297 284Z" fill="#464c4f" stroke="none" transform="scale(1,-1) translate(0,-256)" /><path d="M1193 596Q1193 596 1167.5 597.5Q1142 599 1099.5 600.0Q1057 601 1008 600Q957 599 893.0 593.0Q829 587 762.0 569.5Q695 552 634 517Q586 488 555.5 454.5Q525 421 509.0 387.5Q493 354 487.0 326.5Q481 299 480.0 282.5Q479 266 479 266Q479 266 482.0 283.0Q485 300 496.0 329.0Q507 358 531.0 393.0Q555 428 597 463Q620 482 661.5 499.5Q703 517 751.5 530.5Q800 544 844 550Q890 557 944.0 559.0Q998 561 1047.5 560.0Q1097 559 1131.0 558.0Q1165 557 1172 559Q1180 562 1184.5 571.0Q1189 580 1191.0 588.0Q1193 596 1193 596Z" fill="#464c4f" stroke="none" transform="scale(1,-1) translate(0,-256)" /></svg>