<?xml version="1.0" encoding="utf-8" ?>
<svg baseProfile="full" height="256" version="1.1" width="256" xmlns="http://www.w3.org/2000/svg" xmlns:ev="http://www.w3.org/2001/xml-events" xmlns:xlink="http://www.w3.org/1999/xlink"><defs /><path d="M430 369Q430 369 409.0 390.5Q388 412 354.5 446.0Q321 480 282.5 519.0Q244 558 209.0 593.5Q174 629 149.5 654.0Q125 679 121 683Q108 697 100.0 706.5Q92 716 97 721Q99 723 117.0 741.0Q135 759 160.5 784.5Q186 810 212.5 835.0Q239 860 258.0 878.5Q277 897 280 900Q289 907 298.5 909.0Q308 911 316 904Q318 902 337.0 882.5Q356 863 385.0 833.0Q414 803 448.0 767.5Q482 732 515.5 697.0Q549 662 577.0 633.0Q605 604 622.0 586.0Q639 568 639 568Q639 568 660.5 589.5Q682 611 716.0 645.5Q750 680 788.5 719.0Q827 758 863.0 794.0Q899 830 924.0 855.0Q949 880 955 886Q971 902 985.0 898.5Q999 895 1006 888Q1010 885 1029.0 866.5Q1048 848 1074.5 823.0Q1101 798 1127.0 773.0Q1153 748 1170.5 731.5Q1188 715 1188 715L844 362Q844 362 865.0 340.0Q886 318 919.5 283.0Q953 248 991.5 208.0Q1030 168 1064.5 131.5Q1099 95 1123.0 70.0Q1147 45 1151 41Q1163 27 1168.0 16.0Q1173 5 1166 -3Q1163 -6 1147.5 -21.5Q1132 -37 1110.0 -58.5Q1088 -80 1066.5 -101.5Q1045 -123 1028.5 -138.0Q1012 -153 1009 -156Q999 -162 985.0 -162.0Q971 -162 958 -153Q954 -149 930.0 -126.5Q906 -104 871.5 -69.5Q837 -35 799.0 2.0Q761 39 727.0 72.5Q693 106 671.0 126.5Q649 147 647 147Q644 147 620.5 125.0Q597 103 561.0 68.0Q525 33 484.0 -6.5Q443 -46 406.5 -82.0Q370 -118 345.5 -142.0Q321 -166 317 -169Q307 -179 295.0 -184.5Q283 -190 278 -185Q277 -184 259.5 -167.0Q242 -150 217.0 -125.5Q192 -101 166.5 -76.0Q141 -51 122.0 -32.5Q103 -14 99 -9Q79 13 96 31Q98 34 117.5 53.0Q137 72 167.0 102.0Q197 132 232.0 167.5Q267 203 302.0 238.0Q337 273 366.0 302.0Q395 331 412.5 349.5Q430 368 430 369Z" fill="#616266" stroke="none" transform="scale(1,-1) translate(0,-256)" /></svg>