<?xml version="1.0" encoding="utf-8" ?>
<svg baseProfile="full" height="256" version="1.1" width="256" xmlns="http://www.w3.org/2000/svg" xmlns:ev="http://www.w3.org/2001/xml-events" xmlns:xlink="http://www.w3.org/1999/xlink"><defs /><path d="M293 845Q304 844 323.0 834.0Q342 824 360.5 810.0Q379 796 389.0 781.0Q399 766 392 756Q384 744 367.0 746.0Q350 748 330.0 753.5Q310 759 291 759Q273 760 255.0 749.5Q237 739 221.0 731.5Q205 724 194 734Q184 744 194.5 762.0Q205 780 225.0 799.5Q245 819 265.0 832.0Q285 845 293 845Z" fill="#9a9a9a" stroke="none" transform="scale(1,-1) translate(0,-256)" /><path d="M987 833Q1009 837 1031.0 823.0Q1053 809 1066.5 791.0Q1080 773 1076 764Q1071 751 1050.0 756.0Q1029 761 1004 760Q980 759 949.0 738.5Q918 718 895 697Q879 684 859.5 665.5Q840 647 823.0 636.0Q806 625 798 636Q788 648 807.5 674.5Q827 701 860 735Q894 769 928.0 799.0Q962 829 987 833Z" fill="#9a9a9a" stroke="none" transform="scale(1,-1) translate(0,-256)" /><path d="M298 150Q306 144 303.5 136.0Q301 128 296 120Q291 111 277.0 86.5Q263 62 254 37Q245 12 245.5 -9.5Q246 -31 240 -43Q230 -60 215.5 -52.0Q201 -44 186 -25Q177 -14 172.0 0.0Q167 14 172.0 34.5Q177 55 200 84Q234 129 262.0 143.0Q290 157 298 150Z" fill="#9a9a9a" stroke="none" transform="scale(1,-1) translate(0,-256)" /></svg>