<?xml version="1.0" encoding="utf-8" ?>
<svg baseProfile="full" height="256" version="1.1" width="256" xmlns="http://www.w3.org/2000/svg" xmlns:ev="http://www.w3.org/2001/xml-events" xmlns:xlink="http://www.w3.org/1999/xlink"><defs /><path d="M788 -143V0H497V-143Q497 -160 513 -166Q527 -171 558.5 -177.0Q590 -183 644 -183Q697 -183 727.5 -177.5Q758 -172 772 -166Q788 -160 788 -143Z" fill="#ffca28" stroke="none" transform="scale(1,-1) translate(0,-256)" /><path d="M816 -161Q823 -149 819 -136Q816 -123 805 -115Q793 -108 780 -112Q767 -115 760 -126V-125Q755 -129 747 -133Q711 -150 644 -150Q577 -150 539 -133Q530 -129 524 -124Q516 -113 503 -111Q490 -108 478 -116Q467 -124 465 -137Q462 -151 470 -162Q508 -216 644 -216Q782 -216 816 -161Z" fill="#ffca28" stroke="none" transform="scale(1,-1) translate(0,-256)" /><path d="M1043 567Q1039 539 1051.0 513.0Q1063 487 1082.5 460.0Q1102 433 1122.0 402.0Q1142 371 1156.0 332.5Q1170 294 1170 244Q1170 190 1138.0 136.5Q1106 83 1041.0 40.0Q976 -3 875.5 -28.5Q775 -54 638 -54Q500 -54 399.5 -28.5Q299 -3 234.0 40.0Q169 83 137.0 136.5Q105 190 105 244Q105 306 123.0 356.5Q141 407 165.0 447.0Q189 487 208.5 517.0Q228 547 232 567L140 561Q136 561 133.5 564.5Q131 568 133 572L253 886Q255 892 261.5 892.0Q268 892 271 886Q282 865 298.0 826.5Q314 788 327.5 742.0Q341 696 343 652Q349 599 343.0 561.0Q337 523 326.0 492.5Q315 462 302.0 433.0Q289 404 281 369Q264 304 293.0 259.5Q322 215 380.0 189.0Q438 163 509 152Q521 150 530.0 158.0Q539 166 540 178L593 639L526 621Q521 620 518.0 623.5Q515 627 516 632L628 916Q629 917 631.0 919.5Q633 922 638 922Q642 922 644.0 919.5Q646 917 647 916L759 631Q761 627 757.5 623.5Q754 620 749 621L682 639L735 178Q736 166 745.5 158.0Q755 150 767 152Q838 163 895.5 189.0Q953 215 982.0 259.5Q1011 304 995 369Q986 404 973.5 433.5Q961 463 949.5 493.0Q938 523 932.5 561.0Q927 599 932 652Q934 696 947.5 742.0Q961 788 977.5 826.5Q994 865 1004 886Q1007 892 1013.5 891.5Q1020 891 1022 885L1142 572Q1144 568 1141.5 564.5Q1139 561 1135 561Z" fill="#ffca28" stroke="none" transform="scale(1,-1) translate(0,-256)" /></svg>