<?xml version="1.0" encoding="utf-8" ?>
<svg baseProfile="full" height="256" version="1.1" width="256" xmlns="http://www.w3.org/2000/svg" xmlns:ev="http://www.w3.org/2001/xml-events" xmlns:xlink="http://www.w3.org/1999/xlink"><defs /><path d="M530 -32 788 -27V-60Q788 -60 752.5 -66.5Q717 -73 638 -73Q558 -73 527.5 -67.0Q497 -61 497 -61V-46Z" fill="#ea9843" stroke="none" transform="scale(1,-1) translate(0,-256)" /><path d="M133 572Q133 572 132.5 569.0Q132 566 134 564Q136 562 138.5 561.5Q141 561 141 561L232 567Q232 567 238.5 579.5Q245 592 250.0 607.5Q255 623 253 632Z" fill="#ea9843" stroke="none" transform="scale(1,-1) translate(0,-256)" /><path d="M592 628 526 621Q520 620 517 624Q525 629 539.0 639.0Q553 649 567.5 658.5Q582 668 592.0 675.0Q602 682 602 681Q602 680 599.5 666.5Q597 653 594.5 640.5Q592 628 592 628Z" fill="#ea9843" stroke="none" transform="scale(1,-1) translate(0,-256)" /><path d="M1115 92Q1081 50 1013.5 17.0Q946 -16 850.5 -35.0Q755 -54 638 -54L648 693Q648 699 653.0 701.5Q658 704 663 701L759 632Q761 627 757.5 623.5Q754 620 749 621L683 639L735 178Q736 164 748 157Q728 128 710.0 102.5Q692 77 684.0 60.5Q676 44 688 44Q721 43 763.0 49.0Q805 55 849.0 67.0Q893 79 933.0 95.0Q973 111 1001 130Q1049 161 1073.0 200.0Q1097 239 1091.5 297.0Q1086 355 1045 443Q1019 497 1001.5 553.5Q984 610 999 669L1143 572Q1144 568 1141.5 564.5Q1139 561 1135 561L1044 567H1043Q1048 544 1068.0 514.0Q1088 484 1111.5 444.5Q1135 405 1152.5 355.5Q1170 306 1170 244Q1170 203 1157 165Q1142 125 1115 92Z" fill="#ea9843" stroke="none" transform="scale(1,-1) translate(0,-256)" /><path d="M683 632 749 621Q755 620 758 624Q750 629 736.0 639.0Q722 649 707.5 658.5Q693 668 683.0 675.0Q673 682 673 681Q673 680 675.5 667.5Q678 655 680.5 643.5Q683 632 683 632Z" fill="#ea9843" stroke="none" transform="scale(1,-1) translate(0,-256)" /><path d="M127 154Q123 163 132.0 168.5Q141 174 148 166Q160 150 176.5 133.0Q193 116 214 100Q249 73 292.5 57.5Q336 42 380.0 34.0Q424 26 462.5 23.5Q501 21 526 21Q550 21 571.0 9.5Q592 -2 606.5 -17.0Q621 -32 629.5 -43.0Q638 -54 638 -54Q493 -54 389.0 -26.0Q285 2 220.0 49.5Q155 97 127 154Z" fill="#ea9843" stroke="none" transform="scale(1,-1) translate(0,-256)" /><path d="M498 -115Q497 -115 497 -115V-88Q497 -88 507.5 -98.5Q518 -109 546.0 -119.5Q574 -130 628 -130Q633 -130 648.5 -129.0Q664 -128 682.0 -125.0Q700 -122 713.5 -114.0Q727 -106 727 -92Q727 -63 728.0 -45.0Q729 -27 729 -27L788 0V-108Q788 -108 771.5 -118.5Q755 -129 723.0 -139.5Q691 -150 644 -150Q581 -150 543.5 -135.0Q506 -120 498 -115Z" fill="#ea9843" stroke="none" transform="scale(1,-1) translate(0,-256)" /><path d="M735 -135 740 -124 788 -108Q788 -108 801.5 -112.0Q815 -116 820 -137Q824 -153 814.5 -164.5Q805 -176 793.5 -182.5Q782 -189 782 -189Q782 -189 787.5 -176.5Q793 -164 779 -146Q773 -136 762.5 -134.5Q752 -133 743.5 -134.0Q735 -135 735 -135Z" fill="#ea9843" stroke="none" transform="scale(1,-1) translate(0,-256)" /></svg>