<?xml version="1.0" encoding="utf-8" ?>
<svg baseProfile="full" height="256" version="1.1" width="256" xmlns="http://www.w3.org/2000/svg" xmlns:ev="http://www.w3.org/2001/xml-events" xmlns:xlink="http://www.w3.org/1999/xlink"><defs /><path d="M385 482Q385 482 408.0 493.5Q431 505 471 524Q509 542 534.5 561.0Q560 580 579.5 596.5Q599 613 618.5 624.5Q638 636 664 638Q699 641 721.5 632.0Q744 623 757.0 610.0Q770 597 775.0 586.5Q780 576 780 576Q780 576 792.0 578.0Q804 580 823.5 573.5Q843 567 866 542Q888 517 899.0 481.0Q910 445 913.5 408.0Q917 371 917.5 344.0Q918 317 919 311Q921 299 931.5 300.5Q942 302 942 302Q942 302 936.5 277.0Q931 252 915.0 214.5Q899 177 866 141Q834 104 782.0 75.0Q730 46 645 48Q572 49 520.0 74.0Q468 99 434.0 135.0Q400 171 381.0 206.5Q362 242 354.0 266.0Q346 290 346 290Q346 290 352.0 289.0Q358 288 363 295Q368 300 370.5 320.0Q373 340 375.0 366.0Q377 392 378.0 417.5Q379 443 381.0 461.0Q383 479 385 482Z" fill="#ffca26" stroke="none" transform="scale(1,-1) translate(0,-256)" /><path d="M230 907H231Q234 911 253.0 912.0Q272 913 295.5 911.5Q319 910 337.0 905.5Q355 901 357 895Q358 889 359.0 870.0Q360 851 360.0 834.0Q360 817 360 817Q360 817 368.0 804.5Q376 792 385 771Q400 734 403.5 710.0Q407 686 422 664Q438 640 451.5 633.0Q465 626 473.5 624.0Q482 622 485 613Q493 592 473.5 577.5Q454 563 428 562Q402 561 382.5 568.5Q363 576 356 576Q342 576 340 518Q339 491 345.0 453.0Q351 415 347 377Q344 338 323.5 323.5Q303 309 290 312Q281 314 276.5 335.5Q272 357 269.0 385.0Q266 413 264 434Q260 466 247.5 497.0Q235 528 224 579Q219 605 218.0 638.0Q217 671 219.0 704.5Q221 738 224.0 766.5Q227 795 229 811Q233 842 229.5 871.5Q226 901 230 907Z" fill="#ffca26" stroke="none" transform="scale(1,-1) translate(0,-256)" /><path d="M944 902Q951 906 964.0 909.5Q977 913 999 913Q1021 913 1035.5 907.5Q1050 902 1053 898Q1055 895 1055.0 883.5Q1055 872 1054.5 861.5Q1054 851 1054 851Q1054 851 1058.0 837.5Q1062 824 1065 800Q1068 784 1068.0 754.5Q1068 725 1066.5 693.5Q1065 662 1062 638Q1057 602 1048.5 571.0Q1040 540 1032 491Q1026 454 1026.0 419.5Q1026 385 1025.5 361.0Q1025 337 1019 332Q1013 326 999.0 331.5Q985 337 971.0 350.0Q957 363 950 380Q946 391 944.5 414.5Q943 438 942.5 467.0Q942 496 942.0 523.5Q942 551 940.5 570.0Q939 589 936 591Q931 596 923.0 591.0Q915 586 898.5 581.0Q882 576 851 578Q820 581 804.5 593.5Q789 606 786.0 619.5Q783 633 786 638Q792 645 807.0 647.5Q822 650 844 659Q867 669 880.0 695.5Q893 722 903 753Q910 773 919.0 793.5Q928 814 935.0 828.0Q942 842 942 842Q942 842 941.0 855.5Q940 869 940.0 884.0Q940 899 944 902Z" fill="#ffca26" stroke="none" transform="scale(1,-1) translate(0,-256)" /></svg>