<?xml version="1.0" encoding="utf-8" ?>
<svg baseProfile="full" height="256" version="1.1" width="256" xmlns="http://www.w3.org/2000/svg" xmlns:ev="http://www.w3.org/2001/xml-events" xmlns:xlink="http://www.w3.org/1999/xlink"><defs /><path d="M174 -209Q174 -209 212.5 -210.0Q251 -211 317.5 -212.0Q384 -213 468.5 -213.5Q553 -214 645 -213Q737 -212 819.5 -212.5Q902 -213 965.0 -213.5Q1028 -214 1064.5 -213.0Q1101 -212 1101 -209Q1103 -188 1092.0 -157.0Q1081 -126 1049 -95Q1023 -69 984.5 -49.5Q946 -30 905.5 -16.0Q865 -2 829.5 7.0Q794 16 772.0 20.0Q750 24 750 24Q750 24 749.0 12.0Q748 0 739.0 -15.0Q730 -30 708.0 -41.5Q686 -53 645 -53Q607 -52 584.0 -41.0Q561 -30 549.0 -15.5Q537 -1 532.5 10.0Q528 21 528 21Q528 21 501.0 14.5Q474 8 433.5 -4.5Q393 -17 354 -34Q336 -42 311.0 -55.0Q286 -68 261.0 -84.0Q236 -100 219 -117Q187 -149 179.5 -177.0Q172 -205 174 -209Z" fill="#f06e00" stroke="none" transform="scale(1,-1) translate(0,-256)" /></svg>