<?xml version="1.0" encoding="utf-8" ?>
<svg baseProfile="full" height="256" version="1.1" width="256" xmlns="http://www.w3.org/2000/svg" xmlns:ev="http://www.w3.org/2001/xml-events" xmlns:xlink="http://www.w3.org/1999/xlink"><defs /><path d="M430 466Q422 477 440.5 494.0Q459 511 496 516Q532 522 553.5 517.0Q575 512 571 493Q569 482 558.5 480.5Q548 479 533.5 480.5Q519 482 503 479Q473 476 455.0 467.0Q437 458 430 466Z" fill="#6d4c42" stroke="none" transform="scale(1,-1) translate(0,-256)" /><path d="M728 480Q723 482 718.5 488.5Q714 495 717 503Q721 515 738.0 517.5Q755 520 790 515Q828 509 846.5 493.0Q865 477 857 469Q850 462 831.0 468.0Q812 474 789 476Q764 479 752.0 478.0Q740 477 728 480Z" fill="#6d4c42" stroke="none" transform="scale(1,-1) translate(0,-256)" /></svg>