<?xml version="1.0" encoding="utf-8" ?>
<svg baseProfile="full" height="256" version="1.1" width="256" xmlns="http://www.w3.org/2000/svg" xmlns:ev="http://www.w3.org/2001/xml-events" xmlns:xlink="http://www.w3.org/1999/xlink"><defs /><path d="M435 393Q438 405 448.0 403.0Q458 401 472.5 395.0Q487 389 505 390Q525 390 539.0 394.5Q553 399 562.0 400.5Q571 402 575 394Q582 383 572.5 373.5Q563 364 544.5 358.0Q526 352 506 352Q478 352 454.5 366.0Q431 380 435 393Z" fill="#3f4040" stroke="none" transform="scale(1,-1) translate(0,-256)" /><path d="M717 391Q724 400 732.5 398.0Q741 396 753.5 390.5Q766 385 784 385Q801 385 813.5 391.0Q826 397 834.5 400.0Q843 403 850 395Q857 386 841.0 369.5Q825 353 785 352Q749 351 729.5 366.0Q710 381 717 391Z" fill="#3f4040" stroke="none" transform="scale(1,-1) translate(0,-256)" /></svg>