<?xml version="1.0" encoding="utf-8" ?>
<svg baseProfile="full" height="256" version="1.1" width="256" xmlns="http://www.w3.org/2000/svg" xmlns:ev="http://www.w3.org/2001/xml-events" xmlns:xlink="http://www.w3.org/1999/xlink"><defs /><path d="M602 477 609 443Q609 443 607.0 426.5Q605 410 601 390Q596 364 586.5 334.0Q577 304 569.5 283.0Q562 262 562 262L357 78L308 115L291 281Q291 281 309.0 300.0Q327 319 356.5 345.5Q386 372 420 394Q462 422 504.0 440.0Q546 458 574.0 467.5Q602 477 602 477Z" fill="#af0c1a" stroke="none" transform="scale(1,-1) translate(0,-256)" /><path d="M686 456 798 461Q798 461 811.5 452.0Q825 443 846.0 428.0Q867 413 889.0 396.5Q911 380 928.5 365.5Q946 351 953 342Q965 328 980.5 309.0Q996 290 1008.0 275.5Q1020 261 1020 261L943 110L740 255Q740 255 735.5 270.5Q731 286 725.0 307.5Q719 329 714 347Q711 362 704.0 388.0Q697 414 691.5 435.0Q686 456 686 456Z" fill="#af0c1a" stroke="none" transform="scale(1,-1) translate(0,-256)" /></svg>