<?xml version="1.0" encoding="utf-8" ?>
<svg baseProfile="full" height="256" version="1.1" width="256" xmlns="http://www.w3.org/2000/svg" xmlns:ev="http://www.w3.org/2001/xml-events" xmlns:xlink="http://www.w3.org/1999/xlink"><defs /><path d="M646 48Q647 45 646.5 35.5Q646 26 639.0 15.5Q632 5 612 -2Q577 -14 564.0 -7.5Q551 -1 547 6Q538 20 515.5 52.5Q493 85 463.0 126.5Q433 168 403.5 210.0Q374 252 351.0 284.5Q328 317 319 330Q305 351 296.5 373.0Q288 395 283 416Q274 454 282.5 489.5Q291 525 313.0 552.0Q335 579 367 591Q429 616 477.5 592.5Q526 569 549 522Q561 487 559.5 465.5Q558 444 550.5 431.0Q543 418 538 411Q527 394 519.5 383.0Q512 372 514 360Q514 359 514.5 358.0Q515 357 515 356Q520 341 530.5 333.0Q541 325 554.0 314.0Q567 303 582 281Q596 259 603.0 227.0Q610 195 618.5 151.0Q627 107 646 48ZM581 49 608 60Q608 60 605.5 77.0Q603 94 597.5 118.5Q592 143 585.0 167.0Q578 191 569 205Q562 216 546.5 225.5Q531 235 514.5 242.0Q498 249 485.5 253.0Q473 257 473 257Z" fill="#7497a5" stroke="none" transform="scale(1,-1) translate(0,-256)" /></svg>