<?xml version="1.0" encoding="utf-8" ?>
<svg baseProfile="full" height="256" version="1.1" width="256" xmlns="http://www.w3.org/2000/svg" xmlns:ev="http://www.w3.org/2001/xml-events" xmlns:xlink="http://www.w3.org/1999/xlink"><defs /><path d="M732 -69Q745 -68 750 -80Q755 -93 758.0 -116.0Q761 -139 755 -160Q749 -180 733.5 -185.0Q718 -190 698.5 -187.5Q679 -185 663 -183Q639 -180 623.0 -178.0Q607 -176 581 -186Q553 -196 521.5 -206.0Q490 -216 443 -211Q417 -208 407.5 -199.0Q398 -190 399.0 -180.0Q400 -170 406 -166Q413 -162 421.5 -161.0Q430 -160 439 -161Q495 -166 539 -136Q548 -130 558.0 -121.5Q568 -113 575 -104Q576 -102 578.5 -93.5Q581 -85 588 -82Z" fill="#90a4ae" stroke="none" transform="scale(1,-1) translate(0,-256)" /><path d="M706 -44Q723 -72 712.5 -104.5Q702 -137 671 -149Q637 -162 606 -142Q599 -137 592 -129Q589 -126 579.5 -119.0Q570 -112 560 -119Q549 -102 549.5 -79.5Q550 -57 563 -38Q570 -28 578.0 -23.0Q586 -18 586 -18L598 -27Q598 -27 604.0 -22.5Q610 -18 621 -15Q631 -11 638.0 -11.0Q645 -11 645 -11Q685 -11 706 -44Z" fill="#90a4ae" stroke="none" transform="scale(1,-1) translate(0,-256)" /><path d="M945 525Q945 525 920.0 515.5Q895 506 854.5 490.5Q814 475 765.0 456.5Q716 438 667.0 419.5Q618 401 577.0 385.5Q536 370 510.0 360.0Q484 350 483 350Q446 338 409.0 351.5Q372 365 352 399Q328 439 340.0 483.5Q352 528 392 551Q397 554 414.5 564.5Q432 575 452.5 588.0Q473 601 489.5 611.0Q506 621 509 623Q524 633 515.5 640.0Q507 647 490 636L438 603Q409 604 390.5 598.5Q372 593 372 593Q372 593 392.5 607.0Q413 621 445.0 642.0Q477 663 514.0 687.0Q551 711 584.5 731.5Q618 752 641 763Q655 770 669.5 775.5Q684 781 699 783Q728 786 756.5 775.5Q785 765 807 746Q829 726 843.0 699.5Q857 673 864 645Q868 628 868.5 610.5Q869 593 863 577Z" fill="#90a4ae" stroke="none" transform="scale(1,-1) translate(0,-256)" /><path d="M824 908Q896 920 947.5 899.5Q999 879 1029.0 836.0Q1059 793 1069 738Q1078 683 1059.0 633.5Q1040 584 999.5 549.5Q959 515 904 505Q822 491 760.5 544.5Q699 598 679 711Q674 733 663.0 741.0Q652 749 639.0 749.5Q626 750 617.0 747.0Q608 744 608 744Q608 744 620.0 765.5Q632 787 658.0 816.5Q684 846 725.5 872.0Q767 898 824 908Z" fill="#90a4ae" stroke="none" transform="scale(1,-1) translate(0,-256)" /></svg>