<?xml version="1.0" encoding="utf-8" ?>
<svg baseProfile="full" height="256" version="1.1" width="256" xmlns="http://www.w3.org/2000/svg" xmlns:ev="http://www.w3.org/2001/xml-events" xmlns:xlink="http://www.w3.org/1999/xlink"><defs /><path d="M683 -208Q658 -205 639.5 -199.5Q621 -194 595 -202Q566 -210 528.0 -213.0Q490 -216 443 -211Q419 -209 409.5 -200.5Q400 -192 399 -183Q400 -184 413.0 -188.5Q426 -193 448.5 -195.0Q471 -197 499 -191Q542 -181 568.5 -161.5Q595 -142 613.5 -125.0Q632 -108 650 -107Q667 -106 675.5 -111.5Q684 -117 691.0 -126.0Q698 -135 711 -145Q736 -163 745.5 -161.5Q755 -160 755 -160Q755 -160 753.0 -166.5Q751 -173 750 -175Q741 -196 723.0 -203.0Q705 -210 683 -208Z" fill="#537f94" stroke="none" transform="scale(1,-1) translate(0,-256)" /></svg>