<?xml version="1.0" encoding="utf-8" ?>
<svg baseProfile="full" height="256" version="1.1" width="256" xmlns="http://www.w3.org/2000/svg" xmlns:ev="http://www.w3.org/2001/xml-events" xmlns:xlink="http://www.w3.org/1999/xlink"><defs /><path d="M740 202Q714 151 715.0 107.0Q716 63 736.5 32.5Q757 2 789 -8Q847 -28 890.0 7.5Q933 43 947 111Q957 159 950.5 206.5Q944 254 926.5 295.5Q909 337 886.0 366.0Q863 395 839 406Q821 413 811.5 398.5Q802 384 794.0 353.5Q786 323 774.5 283.5Q763 244 740 202Z" fill="#ff6050" stroke="none" transform="scale(1,-1) translate(0,-256)" /></svg>