<?xml version="1.0" encoding="utf-8" ?>
<svg baseProfile="full" height="256" version="1.1" width="256" xmlns="http://www.w3.org/2000/svg" xmlns:ev="http://www.w3.org/2001/xml-events" xmlns:xlink="http://www.w3.org/1999/xlink"><defs /><path d="M863 535Q900 490 933.5 433.5Q967 377 988.5 313.0Q1010 249 1010 181Q1010 97 981.5 28.0Q953 -41 902.5 -90.5Q852 -140 784.5 -167.0Q717 -194 638 -194Q558 -194 490.5 -167.0Q423 -140 372.5 -90.5Q322 -41 293.5 28.0Q265 97 265 181Q265 246 286.5 310.5Q308 375 341.5 432.5Q375 490 412 535Q501 644 545.5 732.5Q590 821 612 877Q619 894 637.5 894.0Q656 894 663 877Q685 821 729.5 732.5Q774 644 863 535Z" fill="#e5322e" stroke="none" transform="scale(1,-1) translate(0,-256)" /></svg>