<?xml version="1.0" encoding="utf-8" ?>
<svg baseProfile="full" height="256" version="1.1" width="256" xmlns="http://www.w3.org/2000/svg" xmlns:ev="http://www.w3.org/2001/xml-events" xmlns:xlink="http://www.w3.org/1999/xlink"><defs /><path d="M128 -75Q122 -82 123 -92Q124 -101 131 -108Q139 -114 148 -113Q158 -112 164 -104L263 18L357 -49Q365 -54 375 -52Q385 -51 390 -43Q391 -41 392 -39L463 109L550 167L651 1Q656 -8 665 -10Q675 -12 683 -7Q690 -3 693 5L771 223L855 94Q860 86 869 84Q879 82 887 87Q892 90 895 95L1027 338Q1029 341 1029 345L1104 722Q1105 731 1100 739Q1095 747 1085 749Q1076 751 1067 746Q1059 740 1058 731L984 357L873 152L784 288Q780 295 773 297Q763 301 755 297Q746 292 743 283L665 67L577 213Q577 213 577 213Q572 221 562 223Q553 225 544 220L432 145Q427 141 424 136L362 6L272 69Q254 81 240 64Z" fill="#efebe9" stroke="none" transform="scale(1,-1) translate(0,-256)" /><path d="M424 581Q423 578 421 577Q414 574 411 581L315 789Q310 799 300 799H251Q248 799 245 797Q237 793 242 784L356 559Q357 557 357 554Q357 545 347 545H282Q282 545 281.5 545.0Q281 545 281 545Q270 545 271 534V513Q271 512 271.0 512.0Q271 512 271 512Q271 501 282 501H373Q382 501 382 492V454Q382 444 373 444H282Q282 444 281.5 444.0Q281 444 281 444Q270 444 271 433V412Q271 412 271.0 412.0Q271 412 271 412Q271 401 282 401H373Q382 401 382 392V301Q382 289 394 289H437Q449 289 450 301V392Q450 401 459 401H552Q552 401 552.0 401.0Q552 401 553 401Q563 401 563 412V433Q563 433 563.0 433.0Q563 433 563 434Q563 444 552 444H459Q450 444 450 454V492Q450 501 459 501H552Q552 501 552.0 501.0Q552 501 553 501Q563 502 563 513V534Q563 534 563.0 534.5Q563 535 563 535Q563 546 552 545H487Q485 546 484 546Q475 550 479 559L593 784Q594 786 594 788Q594 799 584 799H536Q525 799 521 789Z" fill="#efebe9" stroke="none" transform="scale(1,-1) translate(0,-256)" /></svg>