<?xml version="1.0" encoding="utf-8" ?>
<svg baseProfile="full" height="256" version="1.1" width="256" xmlns="http://www.w3.org/2000/svg" xmlns:ev="http://www.w3.org/2001/xml-events" xmlns:xlink="http://www.w3.org/1999/xlink"><defs /><path d="M1104 705Q1118 717 1130.0 719.0Q1142 721 1157 709Q1167 701 1165.0 688.5Q1163 676 1156.0 664.5Q1149 653 1146 650Q1145 649 1115.0 622.0Q1085 595 1033.5 548.0Q982 501 916.5 441.5Q851 382 778.0 315.5Q705 249 631.5 182.5Q558 116 491.5 55.5Q425 -5 372.0 -53.0Q319 -101 287.5 -129.5Q256 -158 253 -161Q244 -170 227.0 -183.0Q210 -196 188.5 -204.5Q167 -213 144.0 -209.0Q121 -205 101 -180Q78 -152 77.0 -128.0Q76 -104 86.5 -84.0Q97 -64 111.0 -50.0Q125 -36 133 -28Q137 -24 167.0 3.5Q197 31 244.5 74.5Q292 118 349.5 171.0Q407 224 468.5 279.5Q530 335 586.5 387.0Q643 439 688.5 480.5Q734 522 761.0 546.5Q788 571 788 571Q788 571 798.5 567.0Q809 563 819 553Q828 542 832.0 531.5Q836 521 836 521Q836 521 808.5 496.5Q781 472 735.0 430.0Q689 388 631.5 335.5Q574 283 512.0 227.0Q450 171 391.5 117.5Q333 64 285.0 20.5Q237 -23 207.5 -50.0Q178 -77 174 -80Q165 -88 155.0 -97.5Q145 -107 141.0 -117.0Q137 -127 145 -137Q159 -153 174.0 -142.5Q189 -132 201 -121Q204 -118 236.0 -89.0Q268 -60 321.0 -11.0Q374 38 442.0 100.0Q510 162 584.5 230.0Q659 298 733.0 366.0Q807 434 873.5 495.0Q940 556 992.0 603.5Q1044 651 1074.0 678.0Q1104 705 1104 705Z" fill="#ffa726" stroke="none" transform="scale(1,-1) translate(0,-256)" /></svg>