<?xml version="1.0" encoding="utf-8" ?>
<svg baseProfile="full" height="256" version="1.1" width="256" xmlns="http://www.w3.org/2000/svg" xmlns:ev="http://www.w3.org/2001/xml-events" xmlns:xlink="http://www.w3.org/1999/xlink"><defs /><path d="M647 333 628 325 649 451Q649 451 658.0 442.0Q667 433 681 416Q696 399 693.5 385.0Q691 371 681 362Q670 352 658.5 342.5Q647 333 647 333Z" fill="#de7f14" stroke="none" transform="scale(1,-1) translate(0,-256)" /><path d="M834 416Q867 379 850 362Q841 352 822 336Q814 329 805.5 330.0Q797 331 797 331Q797 331 791.0 343.0Q785 355 776 365Q767 375 758.5 380.0Q750 385 750 385Q750 385 749.0 391.0Q748 397 752 402Q755 407 766.5 416.5Q778 426 786 434Q803 449 834 416Z" fill="#de7f14" stroke="none" transform="scale(1,-1) translate(0,-256)" /></svg>