<?xml version="1.0" encoding="utf-8" ?>
<svg baseProfile="full" height="256" version="1.1" width="256" xmlns="http://www.w3.org/2000/svg" xmlns:ev="http://www.w3.org/2001/xml-events" xmlns:xlink="http://www.w3.org/1999/xlink"><defs /><path d="M374 571Q378 576 397.0 574.0Q416 572 446.0 570.0Q476 568 512 573Q574 582 617.5 601.0Q661 620 685.5 637.5Q710 655 714 656Q721 659 725.0 653.5Q729 648 726 642Q724 640 704.0 621.0Q684 602 650.0 577.0Q616 552 572.5 529.5Q529 507 479 496Q459 492 439.5 501.5Q420 511 407 521Q394 531 379.5 546.0Q365 561 374 571Z" fill="#fff7c3" stroke="none" transform="scale(1,-1) translate(0,-256)" /></svg>