<?xml version="1.0" encoding="utf-8" ?>
<svg baseProfile="full" height="256" version="1.1" width="256" xmlns="http://www.w3.org/2000/svg" xmlns:ev="http://www.w3.org/2001/xml-events" xmlns:xlink="http://www.w3.org/1999/xlink"><defs /><path d="M753 490Q755 491 777.0 495.5Q799 500 826.5 504.5Q854 509 875.0 512.5Q896 516 896 516L824 450Q824 450 808.5 448.0Q793 446 771.5 443.0Q750 440 732.5 437.5Q715 435 712 434Q705 432 701.0 435.5Q697 439 701 444Q703 447 714.5 457.5Q726 468 737.5 478.0Q749 488 753 490Z" fill="#ffca26" stroke="none" transform="scale(1,-1) translate(0,-256)" /><path d="M1021 620Q1017 623 1003.0 638.0Q989 653 971.0 673.0Q953 693 936.0 712.5Q919 732 907.5 745.0Q896 758 896 758L950 810Q949 810 961.0 797.0Q973 784 991.0 764.5Q1009 745 1027.0 725.0Q1045 705 1058.5 690.0Q1072 675 1075 671Q1077 668 1070.0 659.5Q1063 651 1052.5 641.0Q1042 631 1032.5 625.0Q1023 619 1021 620Z" fill="#ffca26" stroke="none" transform="scale(1,-1) translate(0,-256)" /><path d="M1133 686Q1124 697 1114.0 701.0Q1104 705 1104 705Q1104 705 1112.0 713.5Q1120 722 1126.5 736.5Q1133 751 1130.5 770.5Q1128 790 1106 813Q1081 840 1053.5 841.0Q1026 842 1006 836Q996 832 971.5 811.5Q947 791 915.0 761.5Q883 732 850.5 700.5Q818 669 792 644Q741 593 710.0 540.0Q679 487 659 430Q646 393 646.0 351.0Q646 309 650.0 269.5Q654 230 653.0 199.0Q652 168 636 153Q620 139 583.5 148.5Q547 158 490.0 201.0Q433 244 358 329Q282 414 251.5 476.0Q221 538 221.5 574.5Q222 611 241 620Q258 628 278.0 625.0Q298 622 325.0 614.5Q352 607 388.0 601.0Q424 595 473 596Q522 596 566.5 608.5Q611 621 647.5 637.5Q684 654 708.0 669.5Q732 685 741 692Q751 699 775.0 721.5Q799 744 831.0 773.5Q863 803 895.0 832.0Q927 861 952 881Q996 917 1050.5 912.0Q1105 907 1153 856Q1186 822 1194.0 791.5Q1202 761 1197.0 736.5Q1192 712 1184 699Q1174 679 1162.5 667.0Q1151 655 1151 655Q1151 655 1146.0 665.5Q1141 676 1133 686Z" fill="#ffca26" stroke="none" transform="scale(1,-1) translate(0,-256)" /></svg>