<?xml version="1.0" encoding="utf-8" ?>
<svg baseProfile="full" height="256" version="1.1" width="256" xmlns="http://www.w3.org/2000/svg" xmlns:ev="http://www.w3.org/2001/xml-events" xmlns:xlink="http://www.w3.org/1999/xlink"><defs /><path d="M261 558Q272 568 301.5 548.5Q331 529 370.0 491.5Q409 454 449 409Q479 375 507.5 338.0Q536 301 558.0 267.5Q580 234 590.0 211.0Q600 188 592 181Q584 175 562.0 186.5Q540 198 509.5 222.5Q479 247 446.0 279.5Q413 312 383 348Q343 396 311.5 441.0Q280 486 265.0 518.0Q250 550 261 558Z" fill="#dd7342" stroke="none" transform="scale(1,-1) translate(0,-256)" /></svg>