<?xml version="1.0" encoding="utf-8" ?>
<svg baseProfile="full" height="256" version="1.1" width="256" xmlns="http://www.w3.org/2000/svg" xmlns:ev="http://www.w3.org/2001/xml-events" xmlns:xlink="http://www.w3.org/1999/xlink"><defs /><path d="M961 128 1171 200Q1171 200 1183.5 192.5Q1196 185 1197 166Q1197 152 1187.0 138.0Q1177 124 1158 117Q1131 108 1103.5 105.5Q1076 103 1045 100Q1025 97 1016.0 88.0Q1007 79 1004.5 71.0Q1002 63 1002 63L992 46Z" fill="#ed9004" stroke="none" transform="scale(1,-1) translate(0,-256)" /><path d="M409 -50 720 -79 1149 -16Q1149 -16 1152.0 -25.5Q1155 -35 1154 -49Q1153 -65 1141.5 -75.5Q1130 -86 1112 -92Q1101 -97 1073.0 -97.5Q1045 -98 1012.5 -98.0Q980 -98 955 -101Q930 -103 899.0 -117.0Q868 -131 821.0 -144.0Q774 -157 702 -157Q630 -157 573.5 -146.5Q517 -136 479.0 -124.5Q441 -113 424 -111Q408 -109 377.0 -107.5Q346 -106 313.5 -104.5Q281 -103 261 -101Q231 -99 214.5 -90.5Q198 -82 195 -64Q192 -45 198.0 -35.0Q204 -25 204 -25Z" fill="#ed9004" stroke="none" transform="scale(1,-1) translate(0,-256)" /><path d="M215 213 359 88 284 0Q284 0 282.0 15.5Q280 31 270 46Q260 61 228.5 67.5Q197 74 162 83Q127 93 104.0 108.0Q81 123 77 148Q73 168 79.5 183.0Q86 198 93.5 206.0Q101 214 101 214Z" fill="#ed9004" stroke="none" transform="scale(1,-1) translate(0,-256)" /></svg>