<?xml version="1.0" encoding="utf-8" ?>
<svg baseProfile="full" height="256" version="1.1" width="256" xmlns="http://www.w3.org/2000/svg" xmlns:ev="http://www.w3.org/2001/xml-events" xmlns:xlink="http://www.w3.org/1999/xlink"><defs /><path d="M128 235Q127 233 112.0 225.5Q97 218 88 197Q79 178 104 158Q118 145 140.0 137.5Q162 130 211 115Q259 101 272.5 81.5Q286 62 284 41Q283 18 266.0 8.0Q249 -2 236 -7Q222 -11 211.5 -17.5Q201 -24 202 -34Q202 -40 210.5 -49.0Q219 -58 241 -62Q260 -66 288.0 -68.0Q316 -70 345.5 -71.0Q375 -72 399.0 -72.5Q423 -73 435 -73Q451 -74 493.0 -85.0Q535 -96 592.0 -106.0Q649 -116 712 -114Q774 -113 829.5 -100.0Q885 -87 922.0 -74.5Q959 -62 967 -61Q978 -59 995.0 -58.0Q1012 -57 1058 -59Q1103 -60 1125.5 -52.5Q1148 -45 1151 -39Q1155 -31 1149.0 -14.5Q1143 2 1108 17Q1085 26 1059.5 32.5Q1034 39 1016.5 49.5Q999 60 999 83Q999 104 1014.0 117.0Q1029 130 1051.5 137.0Q1074 144 1096.0 148.0Q1118 152 1133 156Q1161 162 1170.5 172.0Q1180 182 1180 188Q1180 195 1172.0 200.0Q1164 205 1157 209Q1151 212 1134.0 216.5Q1117 221 1109 223Q1103 225 1102.5 236.0Q1102 247 1103.5 260.5Q1105 274 1106 282Q1106 286 1107.5 315.5Q1109 345 1105.0 391.5Q1101 438 1085.5 494.0Q1070 550 1037.0 607.0Q1004 664 947.5 715.5Q891 767 804 803Q700 847 610.0 849.0Q520 851 446.5 823.0Q373 795 316.5 749.5Q260 704 223.0 652.0Q186 600 169 554Q150 499 141.0 445.0Q132 391 130.0 345.5Q128 300 128.5 270.5Q129 241 128 235Z" fill="#000000" stroke="none" transform="scale(1,-1) translate(0,-256)" /><path d="M131.5829315185547 149.67233276367188Q130.5524139404297 148.3964080810547 115.4410629272461 143.87828063964844Q100.3297119140625 139.3601531982422 91.00886535644531 125.92739868164062Q81.71881103515625 113.79426574707031 106.40402221679688 100.20562744140625Q120.20002746582031 91.42633056640625 142.0785140991211 86.03141784667969Q163.95700073242188 80.63650512695312 212.7126007080078 69.72819519042969Q260.48387145996094 59.49339294433594 273.67993927001953 46.502174377441406Q286.8760070800781 33.510955810546875 284.55323791503906 19.912322998046875Q283.19940185546875 4.9903717041015625 266.05010986328125 -1.104888916015625Q248.90081787109375 -7.2001495361328125 235.82740783691406 -10.141143798828125Q221.76966857910156 -12.40863037109375 211.17247772216797 -16.383583068847656Q200.57528686523438 -20.358535766601562 201.42105102539062 -26.880340576171875Q201.32867431640625 -30.779205322265625 209.68777465820312 -36.82892608642578Q218.046875 -42.87864685058594 239.979248046875 -45.99922180175781Q258.9124450683594 -49.0487060546875 286.87396240234375 -51.0118408203125Q314.8354797363281 -52.9749755859375 344.3119812011719 -54.32384490966797Q373.7884826660156 -55.67271423339844 397.7741928100586 -56.56634521484375Q421.75990295410156 -57.45997619628906 433.75660705566406 -57.74433898925781Q449.73681640625 -58.77330017089844 491.55592346191406 -66.91648864746094Q533.3750305175781 -75.05967712402344 590.2054138183594 -82.90850830078125Q647.0357971191406 -90.75733947753906 710.0492858886719 -90.95062255859375Q772.0476531982422 -91.77001953125 827.7325592041016 -84.63765716552734Q883.4174652099609 -77.50529479980469 920.5997543334961 -70.25944519042969Q957.7820434570312 -63.01359558105469 965.7952423095703 -62.55335998535156Q976.8230133056641 -61.514404296875 993.833740234375 -61.26744079589844Q1010.8444671630859 -61.020477294921875 1056.801040649414 -63.41015625Q1101.7732849121094 -65.12632751464844 1124.3825759887695 -60.785926818847656Q1146.9918670654297 -56.445526123046875 1150.0834197998047 -52.61775207519531Q1154.2054901123047 -47.51405334472656 1148.4611740112305 -36.649993896484375Q1142.7168579101562 -25.785934448242188 1107.9574127197266 -15.209381103515625Q1085.102294921875 -8.816055297851562 1059.709373474121 -3.9880142211914062Q1034.3164520263672 0.84002685546875 1016.9829177856445 8.077735900878906Q999.6493835449219 15.315444946289062 1000.0034942626953 30.261093139648438Q1000.3268127441406 43.90711975097656 1015.5228424072266 51.99920654296875Q1030.7188720703125 60.09129333496094 1053.3204650878906 64.1067886352539Q1075.9220581054688 68.12228393554688 1097.9776000976562 70.2001953125Q1120.0331420898438 72.27810668945312 1135.0906066894531 74.52189636230469Q1163.17529296875 77.75724792480469 1172.826644897461 84.03023529052734Q1182.4779968261719 90.30322265625 1182.5703735351562 94.20208740234375Q1182.6781463623047 98.75076293945312 1174.75732421875 102.18939208984375Q1166.8365020751953 105.62802124023438 1159.9000091552734 108.39314270019531Q1153.9478454589844 110.48475646972656 1137.0217971801758 113.81175231933594Q1120.0957489013672 117.13874816894531 1112.1287384033203 118.62794494628906Q1106.1611785888672 120.06974792480469 1105.8306732177734 127.2295150756836Q1105.5001678466797 134.3892822265625 1107.2076034545898 143.12618255615234Q1108.9150390625 151.8630828857422 1110.0379333496094 157.03787231445312Q1110.0995178222656 159.63711547851562 1112.0532913208008 178.77098846435547Q1114.007064819336 197.9048614501953 1110.7240829467773 228.21585083007812Q1107.4411010742188 258.52684020996094 1092.8075408935547 295.2835464477539Q1078.1739807128906 332.0402526855469 1046.0606231689453 369.86146545410156Q1013.947265625 407.68267822265625 958.2556838989258 442.48680877685547Q902.5641021728516 477.2909393310547 816.1422576904297 502.7457580566406Q712.8482513427734 533.8019104003906 622.9037628173828 537.2342529296875Q532.9592742919922 540.6665954589844 459.0483703613281 524.2136154174805Q385.13746643066406 507.76063537597656 327.9524612426758 479.53311920166016Q270.7674560546875 451.30560302734375 232.97702026367188 418.39222717285156Q195.18658447265625 385.4788513183594 177.4830322265625 355.9904022216797Q157.64146423339844 320.7010498046875 147.8125457763672 285.8245391845703Q137.98362731933594 250.94802856445312 135.28365325927734 221.4290313720703Q132.58367919921875 191.9100341796875 132.62935638427734 172.72876739501953Q132.67503356933594 153.54750061035156 131.5829315185547 149.67233276367188Z" fill="#000000" stroke="none" transform="scale(1,-1) translate(0,-256)" /><path d="M128 235Q128 234 161.0 233.5Q194 233 252.0 232.0Q310 231 384.0 230.0Q458 229 540.0 227.5Q622 226 704.0 225.5Q786 225 859.5 224.0Q933 223 990.0 223.0Q1047 223 1079.0 223.0Q1111 223 1109 223Q1103 225 1102.5 236.0Q1102 247 1103.5 260.5Q1105 274 1106 282Q1106 286 1107.5 315.5Q1109 345 1105.0 391.5Q1101 438 1085.5 494.0Q1070 550 1037.0 607.0Q1004 664 947.5 715.5Q891 767 804 803Q700 847 610.0 849.0Q520 851 446.5 823.0Q373 795 316.5 749.5Q260 704 223.0 652.0Q186 600 169 554Q150 499 141.0 445.0Q132 391 130.0 345.5Q128 300 128.5 270.5Q129 241 128 235Z" fill="#000000" stroke="none" transform="scale(1,-1) translate(0,-256)" /><path d="M557 231Q589 207 631.5 184.0Q674 161 725 145Q771 130 810.0 119.5Q849 109 870 98Q883 91 888.5 76.0Q894 61 887.5 45.5Q881 30 859 20Q846 14 824.0 11.5Q802 9 778 9Q742 8 710.5 8.0Q679 8 675 -4Q671 -17 683.0 -22.0Q695 -27 713.0 -27.5Q731 -28 745.5 -28.0Q760 -28 761 -31Q764 -38 748.5 -43.0Q733 -48 723 -50Q716 -51 697.5 -51.0Q679 -51 659.0 -46.5Q639 -42 627 -29Q608 -9 618.5 8.5Q629 26 651 32Q668 36 699.0 37.0Q730 38 761.0 38.0Q792 38 809 42Q828 46 827.5 55.5Q827 65 815 69Q810 70 790.0 74.5Q770 79 741.0 84.5Q712 90 681 97Q651 104 612.0 116.0Q573 128 531.0 151.5Q489 175 451 215Q416 253 397.5 292.0Q379 331 372.5 359.5Q366 388 365 396Q363 407 364.0 418.5Q365 430 372 434Q384 440 399 418Q407 407 425.0 376.5Q443 346 475.0 307.0Q507 268 557 231Z" fill="#000000" stroke="none" transform="scale(1,-1) translate(0,-256)" /></svg>