<?xml version="1.0" encoding="utf-8" ?>
<svg baseProfile="full" height="256" version="1.1" width="256" xmlns="http://www.w3.org/2000/svg" xmlns:ev="http://www.w3.org/2001/xml-events" xmlns:xlink="http://www.w3.org/1999/xlink"><defs /><path d="M822 441Q843 435 854.0 404.5Q865 374 853 327Q842 280 814.0 257.0Q786 234 762 241Q740 248 730.0 283.5Q720 319 735 365Q749 411 773.5 429.5Q798 448 822 441Z" fill="#412a0d" stroke="none" transform="scale(1,-1) translate(0,-256)" /><path d="M568 625Q595 617 600.0 581.0Q605 545 592 508Q579 470 552.0 447.5Q525 425 494 436Q474 442 466.0 463.5Q458 485 460.0 511.5Q462 538 472 562Q488 599 514.5 616.0Q541 633 568 625Z" fill="#412a0d" stroke="none" transform="scale(1,-1) translate(0,-256)" /></svg>