<?xml version="1.0" encoding="utf-8" ?>
<svg baseProfile="full" height="256" version="1.1" width="256" xmlns="http://www.w3.org/2000/svg" xmlns:ev="http://www.w3.org/2001/xml-events" xmlns:xlink="http://www.w3.org/1999/xlink"><defs /><path d="M555 600Q564 593 563.0 582.0Q562 571 554 562Q547 553 534.5 548.5Q522 544 514 552Q497 567 517 592Q524 602 535.5 603.5Q547 605 555 600Z" fill="#876022" stroke="none" transform="scale(1,-1) translate(0,-256)" /><path d="M812 411Q819 404 818.0 392.5Q817 381 812 372Q805 362 793.0 357.5Q781 353 772 360Q763 368 763.5 379.5Q764 391 772 402Q780 413 792.0 416.0Q804 419 812 411Z" fill="#876022" stroke="none" transform="scale(1,-1) translate(0,-256)" /></svg>