<?xml version="1.0" encoding="utf-8" ?>
<svg baseProfile="full" height="256" version="1.1" width="256" xmlns="http://www.w3.org/2000/svg" xmlns:ev="http://www.w3.org/2001/xml-events" xmlns:xlink="http://www.w3.org/1999/xlink"><defs /><path d="M459 -33Q500 -33 500 7V140H845V63Q845 53 841 49Q837 45 825 45Q812 44 773 45Q742 47 728 36Q710 25 719 0Q730 -32 781 -32Q855 -31 883 -19Q906 -11 916 9Q924 27 924 62V448Q924 474 908 490Q891 506 866 506H508Q521 530 532.5 552.0Q544 574 554 595H789H988Q1027 595 1027 634Q1027 673 988 673H588Q593 689 597.0 701.0Q601 713 604 721Q618 763 575 774Q535 784 523 745Q515 719 498 673H293Q255 673 255 634Q255 595 293 595H464Q384 437 270 343Q232 315 261 282Q286 250 319 276Q369 317 418 374V7Q418 -33 459 -33ZM500 357V434H822Q844 434 844 413V357H671ZM500 209V287H671H844V209Z" fill="#fafafa" stroke="none" transform="scale(1,-1) translate(0,-256)" /></svg>