<?xml version="1.0" encoding="utf-8" ?>
<svg baseProfile="full" height="256" version="1.1" width="256" xmlns="http://www.w3.org/2000/svg" xmlns:ev="http://www.w3.org/2001/xml-events" xmlns:xlink="http://www.w3.org/1999/xlink"><defs /><path d="M939 -189Q939 -192 936.5 -193.5Q934 -195 932 -194L249 157Q242 161 242 170V348L939 -10Z" fill="#874d36" stroke="none" transform="scale(1,-1) translate(0,-256)" /><path d="M1186 208Q1194 196 1193.0 184.5Q1192 173 1183 167L952 -4Q946 -8 939 -10Q943 -8 944.5 5.5Q946 19 936 26Q936 26 938 28Q947 29 954 34L1180 201Q1184 204 1186 208Z" fill="#874d36" stroke="none" transform="scale(1,-1) translate(0,-256)" /></svg>