<?xml version="1.0" encoding="utf-8" ?>
<svg baseProfile="full" height="256" version="1.1" width="256" xmlns="http://www.w3.org/2000/svg" xmlns:ev="http://www.w3.org/2001/xml-events" xmlns:xlink="http://www.w3.org/1999/xlink"><defs /><path d="M565 57Q572 57 576 64L595 92Q602 103 592 110Q582 117 574 104L555 76Q548 65 557 60Q560 57 565 57Z" fill="#e2a610" stroke="none" transform="scale(1,-1) translate(0,-256)" /><path d="M408 137Q416 137 420 144L438 172Q446 184 436 190Q426 197 417 184L399 156Q392 145 401 140Q404 137 408 137Z" fill="#e2a610" stroke="none" transform="scale(1,-1) translate(0,-256)" /><path d="M317.625 183.5Q325.625 183.5 329.625 190.5L347.625 218.5Q355.625 230.5 345.625 236.5Q335.625 243.5 326.625 230.5L308.625 202.5Q301.625 191.5 310.625 186.5Q313.625 183.5 317.625 183.5Z" fill="#e2a610" stroke="none" transform="scale(1,-1) translate(0,-256)" /><path d="M743.3119964599609 -34.031005859375Q750.3119964599609 -34.031005859375 754.3119964599609 -27.031005859375L773.3119964599609 0.968994140625Q780.3119964599609 11.968994140625 770.3119964599609 18.968994140625Q760.3119964599609 25.968994140625 752.3119964599609 12.968994140625L733.3119964599609 -15.031005859375Q726.3119964599609 -26.031005859375 735.3119964599609 -31.031005859375Q738.3119964599609 -34.031005859375 743.3119964599609 -34.031005859375Z" fill="#e2a610" stroke="none" transform="scale(1,-1) translate(0,-256)" /></svg>