<?xml version="1.0" encoding="utf-8" ?>
<svg baseProfile="full" height="256" version="1.1" width="256" xmlns="http://www.w3.org/2000/svg" xmlns:ev="http://www.w3.org/2001/xml-events" xmlns:xlink="http://www.w3.org/1999/xlink"><defs /><path d="M85 450Q81 457 81 465V632L248 338L246 159Q241 161 239 166Z" fill="#ab664b" stroke="none" transform="scale(1,-1) translate(0,-256)" /><path d="M936 100 1099 221 692 683 351 792 170 657 293 430ZM329 461 218 664 355 766 679 662 1057 234 944 150Z" fill="#ab664b" stroke="none" transform="scale(1,-1) translate(0,-256)" /><path d="M919 31Q936 22 952 32V-4Q935 -17 916 -7L234 339Q225 344 220 353L84 602Q75 619 76.5 636.0Q78 653 86 666L241 382Q246 373 255 368Z" fill="#ab664b" stroke="none" transform="scale(1,-1) translate(0,-256)" /></svg>