<?xml version="1.0" encoding="utf-8" ?>
<svg baseProfile="full" height="256" version="1.1" width="256" xmlns="http://www.w3.org/2000/svg" xmlns:ev="http://www.w3.org/2001/xml-events" xmlns:xlink="http://www.w3.org/1999/xlink"><defs /><path d="M954 724V630H990V724Z" fill="#b7885a" stroke="none" transform="scale(1,-1) translate(0,-256)" /><path d="M1016 724V630H1050V724Z" fill="#b7885a" stroke="none" transform="scale(1,-1) translate(0,-256)" /><path d="M225.39105224609375 724.2900543212891 225.195068359375 630.1574859619141 259.8311462402344 630.7035064697266 260.0263366699219 724.4549713134766Z" fill="#b7885a" stroke="none" transform="scale(1,-1) translate(0,-256)" /><path d="M287.0 724.093994140625V630.093994140625H321.0V724.093994140625Z" fill="#b7885a" stroke="none" transform="scale(1,-1) translate(0,-256)" /><path d="M486 290Q508 290 516.0 276.5Q524 263 525.0 250.0Q526 237 526 237L443 236Q443 236 444.0 249.5Q445 263 453.5 276.5Q462 290 486 290Z" fill="#b7885a" stroke="none" transform="scale(1,-1) translate(0,-256)" /><path d="M545 236 628 237Q628 237 627.0 250.5Q626 264 618.0 277.5Q610 291 588 290Q564 290 555.0 276.5Q546 263 545.5 249.5Q545 236 545 236Z" fill="#b7885a" stroke="none" transform="scale(1,-1) translate(0,-256)" /><path d="M841 238H756Q756 238 757.0 251.5Q758 265 766.5 278.5Q775 292 800 292Q825 291 833.5 278.0Q842 265 841.5 251.5Q841 238 841 238Z" fill="#b7885a" stroke="none" transform="scale(1,-1) translate(0,-256)" /><path d="M735 238 650 237Q650 237 650.5 250.5Q651 264 660.0 277.5Q669 291 693 291Q719 292 727.0 278.5Q735 265 735.0 251.5Q735 238 735 238Z" fill="#b7885a" stroke="none" transform="scale(1,-1) translate(0,-256)" /><path d="M779 -216Q779 -216 789.5 -216.0Q800 -216 814.0 -216.0Q828 -216 838.5 -216.0Q849 -216 850 -216Q850 -216 850.5 -195.5Q851 -175 851.5 -148.0Q852 -121 852.0 -100.5Q852 -80 852 -80L829 -50Q829 -50 841.5 -40.0Q854 -30 854 -12Q854 9 845.0 23.0Q836 37 826.5 44.5Q817 52 817 52Q817 52 807.5 44.0Q798 36 788.5 22.0Q779 8 779 -10Q779 -31 791.0 -40.0Q803 -49 803 -49L780 -78Z" fill="#b7885a" stroke="none" transform="scale(1,-1) translate(0,-256)" /><path d="M423 -216Q423 -216 434.0 -216.0Q445 -216 459.0 -216.0Q473 -216 484.0 -216.0Q495 -216 495 -216L496 -78L473 -50Q473 -50 484.0 -40.5Q495 -31 497 -12Q498 9 489.0 23.0Q480 37 470.5 44.5Q461 52 461 52Q461 52 451.0 46.5Q441 41 431.5 27.0Q422 13 423 -12Q424 -28 435.5 -39.0Q447 -50 447 -50L423 -76Q423 -76 423.0 -90.0Q423 -104 422.5 -125.0Q422 -146 422.0 -167.0Q422 -188 422.0 -202.0Q422 -216 423 -216Z" fill="#b7885a" stroke="none" transform="scale(1,-1) translate(0,-256)" /></svg>