<?xml version="1.0" encoding="utf-8" ?>
<svg baseProfile="full" height="256" version="1.1" width="256" xmlns="http://www.w3.org/2000/svg" xmlns:ev="http://www.w3.org/2001/xml-events" xmlns:xlink="http://www.w3.org/1999/xlink"><defs /><path d="M925 748 972 762 1077 755 1076 622 1124 621 1122 569 988 545Q988 545 972.5 548.5Q957 552 935.5 557.0Q914 562 897.5 566.0Q881 570 880 570Q879 570 879.0 583.5Q879 597 879.0 610.5Q879 624 879 624L926 625Z" fill="#fbdaa6" stroke="none" transform="scale(1,-1) translate(0,-256)" /><path d="M917 526 1084 536 1076 -214H916Z" fill="#fbdaa6" stroke="none" transform="scale(1,-1) translate(0,-256)" /><path d="M436 328Q436 328 466.5 326.5Q497 325 544.5 322.0Q592 319 645.5 315.5Q699 312 747.0 308.5Q795 305 825.5 302.5Q856 300 857 299Q858 298 858.0 269.5Q858 241 857.5 195.0Q857 149 856.0 94.5Q855 40 854.0 -14.5Q853 -69 852.0 -115.0Q851 -161 850.5 -188.5Q850 -216 850 -216H424Q424 -216 424.0 -188.5Q424 -161 423.5 -115.0Q423 -69 422.5 -14.5Q422 40 422.0 94.5Q422 149 421.5 194.5Q421 240 421.0 268.0Q421 296 421 297Q421 298 424.5 306.0Q428 314 432.0 321.0Q436 328 436 328Z" fill="#fbdaa6" stroke="none" transform="scale(1,-1) translate(0,-256)" /><path d="M199 750 259 763 349 755V621L397 620Q397 620 397.0 608.0Q397 596 396.5 583.0Q396 570 396 568Q395 566 379.5 562.0Q364 558 344.0 553.5Q324 549 309.0 546.0Q294 543 294 543Q294 543 273.5 546.0Q253 549 226.0 553.5Q199 558 177.5 562.0Q156 566 154 568Q152 570 152.0 583.5Q152 597 152.5 610.5Q153 624 153 624H199Q199 624 199.0 642.5Q199 661 199.0 685.5Q199 710 199.0 729.0Q199 748 199 750Z" fill="#fbdaa6" stroke="none" transform="scale(1,-1) translate(0,-256)" /><path d="M194 521 358 527 359 -215H199Z" fill="#fbdaa6" stroke="none" transform="scale(1,-1) translate(0,-256)" /></svg>