<?xml version="1.0" encoding="utf-8" ?>
<svg baseProfile="full" height="256" version="1.1" width="256" xmlns="http://www.w3.org/2000/svg" xmlns:ev="http://www.w3.org/2001/xml-events" xmlns:xlink="http://www.w3.org/1999/xlink"><defs /><path d="M541.0 -55.093994140625 545.0 -65.093994140625Q549.0 -74.093994140625 543.0 -83.093994140625Q537.0 -92.093994140625 527.0 -92.093994140625H415.0Q405.0 -92.093994140625 399.0 -83.593994140625Q393.0 -75.093994140625 397.0 -65.093994140625L400.0 -55.093994140625Z" fill="#9e740b" stroke="none" transform="scale(1,-1) translate(0,-256)" /><path d="M718 56 712 37Q695 46 685.0 62.5Q675 79 675 99Q675 131 699 152Q699 152 694.5 146.0Q690 140 688.5 126.5Q687 113 696 92Q699 83 704.5 77.5Q710 72 714 69Q721 64 718 56Z" fill="#9e740b" stroke="none" transform="scale(1,-1) translate(0,-256)" /><path d="M798 150Q798 150 808.5 136.0Q819 122 819 99Q819 78 808.0 60.5Q797 43 779 35L770 53Q766 62 775 66Q779 68 784.0 72.0Q789 76 795 82Q807 96 806.5 111.5Q806 127 802.0 138.5Q798 150 798 150Z" fill="#9e740b" stroke="none" transform="scale(1,-1) translate(0,-256)" /><path d="M917 760Q992 763 1050.5 731.0Q1109 699 1142.5 644.5Q1176 590 1176 524Q1176 449 1132.5 389.5Q1089 330 1022 305V234Q1022 218 1017.0 207.0Q1012 196 1001 185Q995 178 990.5 169.5Q986 161 987 152Q989 142 993.5 133.0Q998 124 1007 117Q1013 113 1018.0 106.0Q1023 99 1023 89V85Q1023 68 1006 60Q987 50 987 33Q987 20 1001 10Q1022 -5 1022 -33V-61Q1022 -85 1005 -101L963 -135Q959 -138 944.0 -138.0Q929 -138 924 -137L902 -106L875 -80Q857 -63 857 -39L858 330Q794 356 753.0 402.5Q712 449 711 522Q710 583 736.0 637.0Q762 691 808.5 725.0Q855 759 917 760ZM1007 576Q1007 602 988.5 620.5Q970 639 943 639Q917 639 898.5 620.5Q880 602 880 576Q880 550 898.5 531.5Q917 513 943 513Q970 513 988.5 531.5Q1007 550 1007 576Z" fill="#9e740b" stroke="none" transform="scale(1,-1) translate(0,-256)" /></svg>