<?xml version="1.0" encoding="utf-8" ?>
<svg baseProfile="full" height="256" version="1.1" width="256" xmlns="http://www.w3.org/2000/svg" xmlns:ev="http://www.w3.org/2001/xml-events" xmlns:xlink="http://www.w3.org/1999/xlink"><defs /><path d="M850 662Q895 715 939.5 749.0Q984 783 1016.5 800.0Q1049 817 1056 820Q1067 825 1073.0 817.0Q1079 809 1071 801Q1066 794 1045.5 776.0Q1025 758 997.0 733.0Q969 708 938.5 678.5Q908 649 882 620Q842 574 811.5 530.5Q781 487 761.0 455.5Q741 424 733 413Q727 405 719.0 406.0Q711 407 714 428Q717 441 732.5 477.0Q748 513 777.5 562.0Q807 611 850 662Z" fill="#e6dc9f" stroke="none" transform="scale(1,-1) translate(0,-256)" /><path d="M426 566Q496 541 546.5 509.0Q597 477 625.5 451.0Q654 425 659 419Q669 406 664.0 396.0Q659 386 647 393Q640 398 609.5 418.5Q579 439 530.5 465.5Q482 492 421 514Q334 545 271.0 555.0Q208 565 191 567Q174 569 173.0 580.5Q172 592 186 597Q196 600 228.5 601.0Q261 602 311.5 595.0Q362 588 426 566Z" fill="#e6dc9f" stroke="none" transform="scale(1,-1) translate(0,-256)" /></svg>