<?xml version="1.0" encoding="utf-8" ?>
<svg baseProfile="full" height="256" version="1.1" width="256" xmlns="http://www.w3.org/2000/svg" xmlns:ev="http://www.w3.org/2001/xml-events" xmlns:xlink="http://www.w3.org/1999/xlink"><defs /><path d="M670 498 750 356Q750 356 755.0 334.5Q760 313 768.0 280.0Q776 247 784.0 210.5Q792 174 798 145Q813 69 811.5 -1.5Q810 -72 802 -113Q800 -124 795.0 -142.5Q790 -161 780.5 -177.5Q771 -194 757 -199Q744 -204 721.0 -207.0Q698 -210 673.5 -209.5Q649 -209 630 -203Q612 -197 611.5 -186.5Q611 -176 618.0 -163.0Q625 -150 630 -139Q635 -127 646.5 -99.5Q658 -72 669.0 -26.5Q680 19 685 86Q690 156 683.0 209.5Q676 263 668.0 294.0Q660 325 660 325Z" fill="#99c23b" stroke="none" transform="scale(1,-1) translate(0,-256)" /><path d="M664 524 681 374Q681 374 681.0 367.5Q681 361 687.5 353.0Q694 345 712.0 340.5Q730 336 766 340Q814 345 861.0 357.5Q908 370 959.5 402.0Q1011 434 1072 496Q1130 554 1153.0 614.0Q1176 674 1179.5 730.5Q1183 787 1182 836Q1182 847 1182.5 857.5Q1183 868 1173 875Q1163 883 1135.0 883.5Q1107 884 1047 876Q993 870 927.5 842.0Q862 814 796 746Q761 710 736.0 671.5Q711 633 695.0 599.5Q679 566 671.5 545.0Q664 524 664 524Z" fill="#99c23b" stroke="none" transform="scale(1,-1) translate(0,-256)" /><path d="M65 603Q67 609 88.0 626.5Q109 644 149 665Q212 699 297.5 698.0Q383 697 464 667Q503 653 539.0 629.0Q575 605 603.0 581.0Q631 557 647.0 540.5Q663 524 663 524L708 502L693 321Q693 321 663.0 312.0Q633 303 581.0 295.5Q529 288 463.5 291.5Q398 295 327 321Q275 340 232.5 372.5Q190 405 158.5 442.5Q127 480 106.0 514.5Q85 549 74.5 573.5Q64 598 65 603Z" fill="#99c23b" stroke="none" transform="scale(1,-1) translate(0,-256)" /></svg>