<?xml version="1.0" encoding="utf-8" ?>
<svg baseProfile="full" height="256" version="1.1" width="256" xmlns="http://www.w3.org/2000/svg" xmlns:ev="http://www.w3.org/2001/xml-events" xmlns:xlink="http://www.w3.org/1999/xlink"><defs /><path d="M276 112Q268 111 265.0 121.0Q262 131 262 141Q261 145 264.0 157.0Q267 169 274.5 179.0Q282 189 298 189Q313 189 318.5 180.5Q324 172 323.5 163.5Q323 155 322 153Q317 148 314.5 150.0Q312 152 304 148Q298 145 293.5 136.5Q289 128 285.0 120.0Q281 112 276 112Z" fill="#45494f" stroke="none" transform="scale(1,-1) translate(0,-256)" /></svg>