<?xml version="1.0" encoding="utf-8" ?>
<svg baseProfile="full" height="256" version="1.1" width="256" xmlns="http://www.w3.org/2000/svg" xmlns:ev="http://www.w3.org/2001/xml-events" xmlns:xlink="http://www.w3.org/1999/xlink"><defs /><path d="M609 605Q609 605 620.0 611.0Q631 617 647.5 624.5Q664 632 682.0 637.5Q700 643 713 641Q731 639 752.0 629.0Q773 619 790.0 610.0Q807 601 814 602Q823 602 839.0 608.0Q855 614 880 630Q904 646 935.5 655.0Q967 664 983 664Q1000 663 1013.0 654.5Q1026 646 1046 631Q1067 616 1092.5 599.5Q1118 583 1136 560Q1158 532 1171.5 494.5Q1185 457 1191.0 418.5Q1197 380 1198 349Q1198 303 1193.5 255.5Q1189 208 1189 182Q1189 169 1187.5 143.5Q1186 118 1185.0 90.0Q1184 62 1183.0 40.5Q1182 19 1183 14Q1183 3 1187.5 -1.5Q1192 -6 1196 -22Q1198 -30 1197.5 -47.5Q1197 -65 1189 -79Q1183 -89 1170.5 -94.5Q1158 -100 1142 -102Q1131 -103 1109.0 -103.0Q1087 -103 1065.0 -100.5Q1043 -98 1033 -94Q1004 -81 1001 -49Q1000 -32 1005.0 -14.0Q1010 4 1015 15Q1021 27 1028.5 49.5Q1036 72 1037 88Q1038 105 1036.0 117.0Q1034 129 1033 135Q1027 158 1028.5 177.5Q1030 197 1030 197Q1030 197 1035.0 208.0Q1040 219 1045.5 231.5Q1051 244 1054 249Q1056 255 1063.5 268.0Q1071 281 1079.0 295.5Q1087 310 1092 318Q1100 332 1114.0 348.0Q1128 364 1138 369Q1148 375 1159.0 370.5Q1170 366 1173 373Q1176 379 1166.5 385.0Q1157 391 1145 391Q1133 391 1115.0 372.0Q1097 353 1085 336Q1073 319 1059.0 294.5Q1045 270 1032 245Q1023 229 1009.0 207.0Q995 185 978.0 164.5Q961 144 943 133Q926 123 905.5 121.0Q885 119 870.0 120.0Q855 121 854 119Q853 117 855.0 96.0Q857 75 857.5 48.0Q858 21 850 2Q844 -13 832.0 -27.0Q820 -41 819 -45Q818 -49 817.5 -61.0Q817 -73 817 -83Q817 -94 819.5 -111.5Q822 -129 817 -140Q816 -143 810.5 -150.0Q805 -157 795 -161Q783 -165 760.5 -168.5Q738 -172 694 -170Q651 -169 633.0 -156.0Q615 -143 612 -139Q609 -135 611.5 -117.0Q614 -99 623 -75Q633 -52 642.5 -42.0Q652 -32 652 -32Q652 -32 652.5 -26.0Q653 -20 656 -9Q658 2 663.0 15.5Q668 29 672 46Q677 63 677.5 74.5Q678 86 678 98Q678 111 671.5 118.0Q665 125 657 129Q649 133 633.0 134.5Q617 136 603 137Q588 138 577.5 143.0Q567 148 565 159Q564 166 570.5 175.5Q577 185 584.5 192.0Q592 199 592 199Q592 199 600.5 200.5Q609 202 615 203Q621 204 631.5 207.5Q642 211 656 220Q671 229 687.0 245.5Q703 262 711 274Q718 286 724.0 303.0Q730 320 732 325Q733 330 732.0 335.5Q731 341 727 341Q719 342 717 331Q716 326 710.0 311.0Q704 296 697 284Q690 272 679.0 260.5Q668 249 648 236Q629 222 614.5 220.5Q600 219 600 219Q600 219 606.0 227.5Q612 236 619 251Q626 266 629.0 277.0Q632 288 635 299Q637 310 639.5 324.5Q642 339 642 345Q644 357 635 359Q630 360 628.5 356.5Q627 353 626 350Q625 347 623.0 334.5Q621 322 617 301Q613 280 603.0 260.0Q593 240 585 227Q578 213 561.5 193.5Q545 174 537 165Q532 158 516.5 148.5Q501 139 482.0 130.0Q463 121 445 117Q420 111 401.5 111.5Q383 112 381 109Q377 104 367.0 98.0Q357 92 347.0 88.5Q337 85 335 85Q333 85 340.0 91.0Q347 97 356.0 103.5Q365 110 367 112Q370 115 378.0 122.5Q386 130 382 135Q378 139 373.0 137.5Q368 136 365 133Q362 131 353.5 122.5Q345 114 335.5 105.0Q326 96 323 93Q318 88 315.0 80.0Q312 72 309 68Q307 65 292.0 57.0Q277 49 259 49Q240 50 226.5 57.0Q213 64 205 67Q197 70 189.5 68.5Q182 67 169 73Q156 80 147.5 94.0Q139 108 135 121Q130 139 132.5 163.5Q135 188 141 206Q143 215 155.0 231.5Q167 248 183.0 266.5Q199 285 213.0 299.5Q227 314 234 320Q241 325 251.5 339.0Q262 353 272.5 368.5Q283 384 290.0 395.0Q297 406 297 406Q297 406 306.5 420.5Q316 435 328.5 454.5Q341 474 352.0 491.0Q363 508 367 513Q371 520 381.5 532.5Q392 545 401.5 555.0Q411 565 411 565Q411 565 395.0 579.5Q379 594 371 619Q364 639 368.5 662.5Q373 686 387 690Q401 694 416.5 681.5Q432 669 442 651Q448 640 451.0 624.5Q454 609 455.0 598.0Q456 587 456 587Q456 587 468.0 591.0Q480 595 494 596Q509 596 521.0 591.5Q533 587 533 587Q533 587 532.5 602.0Q532 617 537 632Q540 645 548.0 660.0Q556 675 568.0 684.0Q580 693 596 689Q607 686 611.0 673.0Q615 660 614.0 644.0Q613 628 611.0 616.5Q609 605 609 605Z" fill="#6da3af" stroke="none" transform="scale(1,-1) translate(0,-256)" /></svg>