<?xml version="1.0" encoding="utf-8" ?>
<svg baseProfile="full" height="256" version="1.1" width="256" xmlns="http://www.w3.org/2000/svg" xmlns:ev="http://www.w3.org/2001/xml-events" xmlns:xlink="http://www.w3.org/1999/xlink"><defs /><path d="M746 -114Q766 -114 774.0 -126.5Q782 -139 783.0 -151.5Q784 -164 784 -164Q784 -164 762.5 -169.0Q741 -174 699 -171Q654 -168 640.5 -160.0Q627 -152 627 -152Q627 -152 632.5 -141.0Q638 -130 648.0 -119.0Q658 -108 673 -110Q687 -112 693.5 -120.5Q700 -129 702.0 -136.5Q704 -144 705 -144Q707 -144 710.0 -136.5Q713 -129 721.5 -121.5Q730 -114 746 -114Z" fill="#a6cdd1" stroke="none" transform="scale(1,-1) translate(0,-256)" /><path d="M1176 -91Q1176 -91 1159.0 -98.5Q1142 -106 1111 -106Q1088 -106 1071.5 -105.0Q1055 -104 1037 -97Q1023 -92 1015.0 -82.0Q1007 -72 1007 -72Q1007 -72 1014.0 -61.5Q1021 -51 1032.5 -40.0Q1044 -29 1059 -30Q1079 -30 1086.5 -39.0Q1094 -48 1095.5 -57.0Q1097 -66 1098 -67Q1098 -67 1101.5 -60.5Q1105 -54 1113.0 -48.0Q1121 -42 1137 -43Q1153 -44 1161.5 -56.0Q1170 -68 1173.0 -79.5Q1176 -91 1176 -91Z" fill="#a6cdd1" stroke="none" transform="scale(1,-1) translate(0,-256)" /></svg>