<?xml version="1.0" encoding="utf-8" ?>
<svg baseProfile="full" height="256" version="1.1" width="256" xmlns="http://www.w3.org/2000/svg" xmlns:ev="http://www.w3.org/2001/xml-events" xmlns:xlink="http://www.w3.org/1999/xlink"><defs /><path d="M892 554V611Q892 673 873.0 727.5Q854 782 819.5 824.0Q785 866 738.5 890.0Q692 914 638 914Q583 914 535.0 892.5Q487 871 451.0 833.0Q415 795 394.5 745.5Q374 696 374 639V367Q374 367 384.5 359.0Q395 351 422 351Q449 351 463.0 359.0Q477 367 477 367V639Q477 686 499.0 724.5Q521 763 557.0 786.0Q593 809 637 809Q692 809 729.5 781.0Q767 753 787.0 707.5Q807 662 807 611V554Q807 554 806.5 550.0Q806 546 813.0 542.0Q820 538 843 538Q877 538 884.5 546.0Q892 554 892 554Z" fill="#84b0c1" stroke="none" transform="scale(1,-1) translate(0,-256)" /><path d="M901 552V553V611Q901 739 826 830Q750 923 638 923Q524 923 444 839Q364 756 364 639V364L366 361Q381 341 422 341Q461 341 483 360L487 362V639Q487 706 531 753Q575 800 637 800Q711 800 755 743Q798 689 798 611V556Q794 548 801 540Q810 529 843 529Q896 529 901 552ZM883 556Q882 556 880 554Q869 547 843 547Q821 547 816 551V552V611Q816 695 770 754Q720 819 637 819Q567 819 518 766Q468 713 468 639V371Q451 360 422 360Q393 360 383 370V639Q383 749 458 827Q532 904 638 904Q741 904 812 818Q883 732 883 611Z" fill="#84b0c1" stroke="none" transform="scale(1,-1) translate(0,-256)" /></svg>