<?xml version="1.0" encoding="utf-8" ?>
<svg baseProfile="full" height="256" version="1.1" width="256" xmlns="http://www.w3.org/2000/svg" xmlns:ev="http://www.w3.org/2001/xml-events" xmlns:xlink="http://www.w3.org/1999/xlink"><defs /><path d="M767 838Q729 801 705.5 749.5Q682 698 676.0 642.5Q670 587 683.5 535.5Q697 484 734 447Q771 409 822.5 395.5Q874 382 930.0 388.5Q986 395 1037.0 418.5Q1088 442 1126 479Q1175 529 1191.5 594.0Q1208 659 1191.5 724.0Q1175 789 1126 838Q1076 888 1011.0 904.5Q946 921 881.0 904.5Q816 888 767 838Z" fill="#9e9e9e" stroke="none" transform="scale(1,-1) translate(0,-256)" /><path d="M619.7445983886719 292.1471405029297Q619.7445983886719 302.21678161621094 615.9684829711914 311.0711212158203Q612.1923675537109 319.9254608154297 605.4648056030273 326.6530227661133Q598.7372436523438 333.3805847167969 589.8829040527344 337.2001037597656Q581.028564453125 341.0196228027344 570.9589233398438 341.0196228027344Q560.8024749755859 341.0196228027344 551.9481353759766 337.2001037597656Q543.0937957763672 333.3805847167969 536.3662338256836 326.6530227661133Q529.638671875 319.9254608154297 525.8625564575195 311.0711212158203Q522.0864410400391 302.21678161621094 522.0864410400391 292.1471405029297Q522.0864410400391 282.07749938964844 525.8625564575195 273.22315979003906Q529.638671875 264.3688201904297 536.3662338256836 257.6412582397461Q543.0937957763672 250.9136962890625 551.9481353759766 247.13758087158203Q560.8024749755859 243.36146545410156 570.9589233398438 243.36146545410156Q581.028564453125 243.36146545410156 589.8829040527344 247.13758087158203Q598.7372436523438 250.9136962890625 605.4648056030273 257.6412582397461Q612.1923675537109 264.3688201904297 615.9684829711914 273.22315979003906Q619.7445983886719 282.07749938964844 619.7445983886719 292.1471405029297Z" fill="#9e9e9e" stroke="none" transform="scale(1,-1) translate(0,-256)" /></svg>