<?xml version="1.0" encoding="utf-8" ?>
<svg baseProfile="full" height="256" version="1.1" width="256" xmlns="http://www.w3.org/2000/svg" xmlns:ev="http://www.w3.org/2001/xml-events" xmlns:xlink="http://www.w3.org/1999/xlink"><defs /><path d="M1083 455Q1054 475 1008.5 512.0Q963 549 900 612Q836 675 799.0 720.5Q762 766 743 796Q737 803 737.5 807.0Q738 811 742 819Q747 828 753.5 835.0Q760 842 765 846Q774 852 778.5 851.5Q783 851 787 845Q801 821 837.5 774.5Q874 728 945 657Q1016 586 1062.0 550.0Q1108 514 1132 499Q1139 495 1141.0 492.0Q1143 489 1140 482Q1138 477 1127.0 466.0Q1116 455 1108 452Q1099 448 1095.0 449.0Q1091 450 1083 455Z" fill="#94d1e0" stroke="none" transform="scale(1,-1) translate(0,-256)" /><path d="M622 526Q617 518 621 511Q629 495 638.5 482.0Q648 469 656 460Q660 456 666.5 455.5Q673 455 677 460L727 513Q736 522 728 532L684 585Q680 590 672.5 590.0Q665 590 661 584Z" fill="#94d1e0" stroke="none" transform="scale(1,-1) translate(0,-256)" /></svg>