<?xml version="1.0" encoding="utf-8" ?>
<svg baseProfile="full" height="256" version="1.1" width="256" xmlns="http://www.w3.org/2000/svg" xmlns:ev="http://www.w3.org/2001/xml-events" xmlns:xlink="http://www.w3.org/1999/xlink"><defs /><path d="M716 503Q716 503 724.0 493.5Q732 484 738 474Q743 464 745.5 447.0Q748 430 748 430Q748 430 755.5 428.5Q763 427 777 434Q792 443 798.0 460.5Q804 478 804 515Q804 551 792.5 580.0Q781 609 770 609Q760 610 752.0 599.0Q744 588 738 574Q725 548 720.5 525.5Q716 503 716 503Z" fill="#ffd2ad" stroke="none" transform="scale(1,-1) translate(0,-256)" /><path d="M576 627Q584 625 588.0 608.5Q592 592 593.0 570.5Q594 549 593.5 533.0Q593 517 593 517Q593 517 583.5 511.5Q574 506 564 491Q553 477 549.5 462.5Q546 448 546 448Q546 448 533.0 447.0Q520 446 509 461Q492 484 496.0 510.0Q500 536 512 560Q520 574 533.0 590.0Q546 606 558.5 617.0Q571 628 576 627Z" fill="#ffd2ad" stroke="none" transform="scale(1,-1) translate(0,-256)" /></svg>