<?xml version="1.0" encoding="utf-8" ?>
<svg baseProfile="full" height="256" version="1.1" width="256" xmlns="http://www.w3.org/2000/svg" xmlns:ev="http://www.w3.org/2001/xml-events" xmlns:xlink="http://www.w3.org/1999/xlink"><defs /><path d="M621 401Q621 401 621.0 392.5Q621 384 620.0 375.5Q619 367 615 367Q608 366 604.5 377.0Q601 388 599 397Q598 403 603.5 403.5Q609 404 615.0 402.5Q621 401 621 401Z" fill="#fefefe" stroke="none" transform="scale(1,-1) translate(0,-256)" /><path d="M653 402Q653 402 664.0 406.0Q675 410 677 406Q678 403 675.5 392.0Q673 381 668.5 372.0Q664 363 660 366Q656 368 654.5 377.0Q653 386 653.0 394.0Q653 402 653 402Z" fill="#fefefe" stroke="none" transform="scale(1,-1) translate(0,-256)" /></svg>