<?xml version="1.0" encoding="utf-8" ?>
<svg baseProfile="full" height="256" version="1.1" width="256" xmlns="http://www.w3.org/2000/svg" xmlns:ev="http://www.w3.org/2001/xml-events" xmlns:xlink="http://www.w3.org/1999/xlink"><defs /><path d="M638 94Q638 94 627.5 99.5Q617 105 603.0 117.0Q589 129 577.5 148.5Q566 168 564 197Q562 218 568.0 244.0Q574 270 585.0 293.5Q596 317 610.5 332.0Q625 347 641 347Q660 346 678.5 322.5Q697 299 708.5 263.5Q720 228 717 192Q715 160 699.0 138.5Q683 117 665.0 106.0Q647 95 638 94Z" fill="#b68e74" stroke="none" transform="scale(1,-1) translate(0,-256)" /><path d="M631 452Q637 450 636.5 443.0Q636 436 635 432Q633 429 628.5 424.0Q624 419 619 422Q612 427 617 440Q618 445 622.0 449.0Q626 453 631 452Z" fill="#b68e74" stroke="none" transform="scale(1,-1) translate(0,-256)" /><path d="M656 452Q661 452 662.5 447.5Q664 443 664 439Q664 434 662.0 427.5Q660 421 655 422Q646 424 646 436Q646 452 656 452Z" fill="#b68e74" stroke="none" transform="scale(1,-1) translate(0,-256)" /></svg>