<?xml version="1.0" encoding="utf-8" ?>
<svg baseProfile="full" height="256" version="1.1" width="256" xmlns="http://www.w3.org/2000/svg" xmlns:ev="http://www.w3.org/2001/xml-events" xmlns:xlink="http://www.w3.org/1999/xlink"><defs /><path d="M637 420Q641 420 643.5 417.0Q646 414 648 412Q652 408 658.0 409.0Q664 410 669 418Q674 426 679.5 421.0Q685 416 681 410Q679 407 674.5 398.5Q670 390 657 390Q648 390 643.0 394.5Q638 399 638 399Q638 399 633.0 394.5Q628 390 615 391Q603 392 599.5 397.5Q596 403 594 410Q592 417 594.0 422.5Q596 428 603 427Q611 426 608.0 419.5Q605 413 613 409Q622 404 626.0 412.0Q630 420 637 420Z" fill="#020308" stroke="none" transform="scale(1,-1) translate(0,-256)" /></svg>