<?xml version="1.0" encoding="utf-8" ?>
<svg baseProfile="full" height="256" version="1.1" width="256" xmlns="http://www.w3.org/2000/svg" xmlns:ev="http://www.w3.org/2001/xml-events" xmlns:xlink="http://www.w3.org/1999/xlink"><defs /><path d="M841 428Q835 427 830.5 401.0Q826 375 822.0 334.0Q818 293 815.0 247.5Q812 202 810.0 161.0Q808 120 807.0 94.5Q806 69 806 69Q806 69 824.5 70.5Q843 72 872.5 80.0Q902 88 935 106Q953 116 982.5 143.5Q1012 171 1037.5 215.0Q1063 259 1068 320Q1073 366 1062.5 393.0Q1052 420 1033.5 433.5Q1015 447 994 452Q981 456 959.0 453.0Q937 450 912.5 444.5Q888 439 868.5 434.0Q849 429 841 428Z" fill="#b0b0b1" stroke="none" transform="scale(1,-1) translate(0,-256)" /></svg>