<?xml version="1.0" encoding="utf-8" ?>
<svg baseProfile="full" height="256" version="1.1" width="256" xmlns="http://www.w3.org/2000/svg" xmlns:ev="http://www.w3.org/2001/xml-events" xmlns:xlink="http://www.w3.org/1999/xlink"><defs /><path d="M537 45 592 36Q592 36 593.0 22.0Q594 8 595.5 -11.5Q597 -31 597.5 -48.5Q598 -66 597 -71Q596 -83 585.0 -96.0Q574 -109 565 -116Q554 -124 533.0 -139.5Q512 -155 497 -161Q485 -166 467.5 -161.0Q450 -156 428 -137Q407 -117 402.0 -101.5Q397 -86 408 -78Q412 -75 431.5 -69.0Q451 -63 474.0 -56.5Q497 -50 515.5 -44.0Q534 -38 537 -35Q539 -32 539.5 -19.5Q540 -7 539.5 8.0Q539 23 538.0 34.0Q537 45 537 45Z" fill="#ff5d10" stroke="none" transform="scale(1,-1) translate(0,-256)" /><path d="M679 20 740 62Q740 62 739.5 41.5Q739 21 738.5 -6.5Q738 -34 737.5 -55.5Q737 -77 738 -79Q739 -81 742.5 -97.0Q746 -113 750.0 -133.5Q754 -154 756.0 -172.0Q758 -190 756 -196Q753 -205 729.5 -217.0Q706 -229 666 -228Q646 -227 628.0 -218.5Q610 -210 599.5 -198.5Q589 -187 591 -179Q593 -172 605.5 -158.5Q618 -145 634.5 -129.0Q651 -113 665.5 -98.5Q680 -84 684 -74Q686 -70 685.5 -55.0Q685 -40 683.5 -23.0Q682 -6 680.5 7.0Q679 20 679 20Z" fill="#ff5d10" stroke="none" transform="scale(1,-1) translate(0,-256)" /></svg>