<?xml version="1.0" encoding="utf-8" ?>
<svg baseProfile="full" height="256" version="1.1" width="256" xmlns="http://www.w3.org/2000/svg" xmlns:ev="http://www.w3.org/2001/xml-events" xmlns:xlink="http://www.w3.org/1999/xlink"><defs /><path d="M374 494 381 471 476 450 589 473Q589 473 596.0 499.0Q603 525 617 571Q627 601 638.0 621.5Q649 642 657.5 665.0Q666 688 669 725Q672 765 655.5 808.5Q639 852 600.5 881.5Q562 911 499 911Q450 911 415.0 895.5Q380 880 357.5 858.0Q335 836 323.5 817.5Q312 799 311 794Q311 789 313.5 770.5Q316 752 320.5 730.5Q325 709 328.0 693.0Q331 677 331 677Q331 677 344.0 667.5Q357 658 379 650Q402 642 411.5 634.0Q421 626 424 603Q426 591 418.5 573.0Q411 555 400.5 537.0Q390 519 382.0 506.5Q374 494 374 494Z" fill="#000000" stroke="none" transform="scale(1,-1) translate(0,-256)" /></svg>