<?xml version="1.0" encoding="utf-8" ?>
<svg baseProfile="full" height="256" version="1.1" width="256" xmlns="http://www.w3.org/2000/svg" xmlns:ev="http://www.w3.org/2001/xml-events" xmlns:xlink="http://www.w3.org/1999/xlink"><defs /><path d="M962 439 712 26Q712 26 734.0 26.0Q756 26 790.5 29.0Q825 32 864.0 41.5Q903 51 937 70Q1020 116 1070.0 189.5Q1120 263 1123 365Q1124 414 1112.0 447.5Q1100 481 1083.5 500.0Q1067 519 1057 527Q1037 541 1014.0 538.0Q991 535 991 518Q991 507 995.0 504.5Q999 502 1003.5 498.0Q1008 494 1008 479Q1008 463 996.5 454.5Q985 446 973.5 442.5Q962 439 962 439Z" fill="#5e6367" stroke="none" transform="scale(1,-1) translate(0,-256)" /></svg>