<?xml version="1.0" encoding="utf-8" ?>
<svg baseProfile="full" height="256" version="1.1" width="256" xmlns="http://www.w3.org/2000/svg" xmlns:ev="http://www.w3.org/2001/xml-events" xmlns:xlink="http://www.w3.org/1999/xlink"><defs /><path d="M348 466 379 503Q379 503 394.5 495.0Q410 487 435.5 479.0Q461 471 491 471Q520 471 544.0 477.5Q568 484 582.0 491.0Q596 498 596 498V439Q596 439 579.5 429.5Q563 420 534.5 409.0Q506 398 470 393Q432 387 408.0 397.5Q384 408 371.0 424.0Q358 440 353.0 453.0Q348 466 348 466Z" fill="#ffffff" stroke="none" transform="scale(1,-1) translate(0,-256)" /></svg>