<?xml version="1.0" encoding="utf-8" ?>
<svg baseProfile="full" height="256" version="1.1" width="256" xmlns="http://www.w3.org/2000/svg" xmlns:ev="http://www.w3.org/2001/xml-events" xmlns:xlink="http://www.w3.org/1999/xlink"><defs /><path d="M454 308Q454 308 444.5 292.0Q435 276 425 266Q411 253 396.0 245.5Q381 238 381 238Q381 238 392.0 220.0Q403 202 418 189Q418 187 411.5 170.0Q405 153 396.0 130.5Q387 108 380.0 89.5Q373 71 372 66Q371 60 367.5 39.5Q364 19 359.5 -6.0Q355 -31 351.0 -49.5Q347 -68 346 -69Q344 -71 330.5 -79.0Q317 -87 303 -95Q294 -100 282.0 -108.5Q270 -117 262.0 -125.5Q254 -134 259 -140Q264 -146 278.0 -145.5Q292 -145 307.0 -141.5Q322 -138 330 -136Q351 -129 368.5 -115.0Q386 -101 388 -96Q390 -94 395.0 -74.0Q400 -54 406.0 -27.0Q412 0 417.5 23.5Q423 47 426 56Q428 65 435.0 82.5Q442 100 449.5 119.0Q457 138 462.5 151.5Q468 165 469 166Q472 166 479.5 162.5Q487 159 496 157Q513 154 520.0 153.5Q527 153 530 153Q530 151 530.0 132.0Q530 113 529.5 88.5Q529 64 528.5 43.0Q528 22 528 15Q528 9 528.0 -10.5Q528 -30 528.0 -53.0Q528 -76 529.0 -94.5Q530 -113 531 -117Q532 -123 543.0 -135.0Q554 -147 565.0 -158.5Q576 -170 579 -172Q583 -176 596.0 -177.5Q609 -179 615 -174Q621 -169 620.5 -161.5Q620 -154 617 -150Q614 -147 603.5 -133.0Q593 -119 583.5 -104.5Q574 -90 574 -86Q573 -83 574.0 -68.5Q575 -54 576.5 -35.5Q578 -17 579.0 -1.5Q580 14 581 18Q582 22 582.5 42.0Q583 62 583.5 86.5Q584 111 584.5 130.5Q585 150 585 154Q590 156 595.5 157.0Q601 158 607 160Q619 164 626.0 153.0Q633 142 640 132Q644 127 651.5 114.5Q659 102 666.0 88.5Q673 75 675 69Q677 64 684.0 45.5Q691 27 698.5 7.5Q706 -12 708 -20Q710 -28 713.5 -42.0Q717 -56 720.5 -68.5Q724 -81 727 -84Q730 -88 744.0 -98.0Q758 -108 772.0 -117.5Q786 -127 789 -129Q793 -132 806.5 -139.5Q820 -147 828 -138Q836 -130 829.0 -120.0Q822 -110 816 -104Q812 -101 802.0 -91.5Q792 -82 783.0 -73.0Q774 -64 772 -62Q770 -61 767.0 -44.5Q764 -28 759 -11Q754 6 746.5 26.5Q739 47 732.5 64.0Q726 81 724 87Q720 95 711.5 110.0Q703 125 694 141Q688 152 677.0 168.5Q666 185 668 188Q671 195 691.0 172.5Q711 150 733 122Q748 103 769.0 83.5Q790 64 806.5 51.0Q823 38 823 38Q823 38 829.5 46.0Q836 54 843 62Q849 70 855.0 77.5Q861 85 861 85Q861 85 847.0 94.0Q833 103 813.0 118.0Q793 133 773 152Q745 180 732.0 197.5Q719 215 704 233Q695 244 683.5 260.0Q672 276 663.5 288.0Q655 300 653 300Q650 299 646.5 288.0Q643 277 639 268Q632 254 612.5 234.0Q593 214 553 209Q513 205 486.0 217.5Q459 230 455 237Q453 242 454.0 259.0Q455 276 456.0 291.5Q457 307 454 308Z" fill="#4d4d4d" stroke="none" transform="scale(1,-1) translate(0,-256)" /><path d="M891 67Q891 67 906.0 58.0Q921 49 952 39Q968 33 986.0 29.5Q1004 26 1016.5 24.0Q1029 22 1029 22Q1029 22 1023.5 13.5Q1018 5 1010 -4Q1004 -11 996.5 -20.0Q989 -29 989 -29Q989 -29 971.0 -26.0Q953 -23 922 -12Q909 -8 892.0 -0.5Q875 7 863.0 13.0Q851 19 851 19Q851 19 857.0 24.5Q863 30 870 39Q876 47 883.5 57.0Q891 67 891 67Z" fill="#4d4d4d" stroke="none" transform="scale(1,-1) translate(0,-256)" /><path d="M1068 17Q1068 17 1087.0 16.5Q1106 16 1129 18Q1160 22 1175.0 33.5Q1190 45 1190 45Q1190 45 1188.5 36.5Q1187 28 1185.0 18.0Q1183 8 1179 4Q1173 -4 1158.0 -11.0Q1143 -18 1129 -23Q1112 -28 1089.0 -30.0Q1066 -32 1048.5 -32.0Q1031 -32 1031 -32Q1031 -32 1037.0 -26.0Q1043 -20 1048 -13Q1054 -4 1061.0 6.5Q1068 17 1068 17Z" fill="#4d4d4d" stroke="none" transform="scale(1,-1) translate(0,-256)" /></svg>