<?xml version="1.0" encoding="utf-8" ?>
<svg baseProfile="full" height="256" version="1.1" width="256" xmlns="http://www.w3.org/2000/svg" xmlns:ev="http://www.w3.org/2001/xml-events" xmlns:xlink="http://www.w3.org/1999/xlink"><defs /><path d="M895 863Q904 859 906.0 847.5Q908 836 902 823Q898 815 889.0 807.5Q880 800 869 805Q849 814 855 841Q859 858 871.0 863.0Q883 868 895 863Z" fill="#fbe36a" stroke="none" transform="scale(1,-1) translate(0,-256)" /><path d="M804 803Q817 793 814.0 776.0Q811 759 799.0 746.0Q787 733 773 733Q758 734 754.0 748.5Q750 763 759 782Q767 800 781.5 805.0Q796 810 804 803Z" fill="#fbe36a" stroke="none" transform="scale(1,-1) translate(0,-256)" /><path d="M706 715Q718 707 717.5 696.0Q717 685 711 673Q704 660 692.5 653.5Q681 647 671 652Q662 656 659.5 669.0Q657 682 663 695Q670 711 684.0 715.5Q698 720 706 715Z" fill="#fbe36a" stroke="none" transform="scale(1,-1) translate(0,-256)" /><path d="M627 626Q638 618 638.0 604.0Q638 590 628 573Q617 555 601.0 550.0Q585 545 575 551Q565 557 564.0 573.5Q563 590 574 607Q584 623 599.5 629.0Q615 635 627 626Z" fill="#fbe36a" stroke="none" transform="scale(1,-1) translate(0,-256)" /><path d="M527 520Q534 514 536.0 501.0Q538 488 529 476Q508 449 488 464Q480 470 477.0 480.0Q474 490 482 504Q489 518 503.5 522.5Q518 527 527 520Z" fill="#fbe36a" stroke="none" transform="scale(1,-1) translate(0,-256)" /><path d="M454 430Q464 420 462.5 408.0Q461 396 454 388Q447 379 435.0 374.0Q423 369 414 375Q404 381 402.0 393.0Q400 405 409 419Q418 432 432.0 434.5Q446 437 454 430Z" fill="#fbe36a" stroke="none" transform="scale(1,-1) translate(0,-256)" /><path d="M353 323Q367 313 365.5 301.0Q364 289 359 282Q354 274 342.0 270.5Q330 267 320 275Q310 282 309.5 292.5Q309 303 314 311Q319 319 331.0 324.5Q343 330 353 323Z" fill="#fbe36a" stroke="none" transform="scale(1,-1) translate(0,-256)" /><path d="M418 227Q423 237 434.5 241.5Q446 246 457 239Q467 232 467.0 219.5Q467 207 463 200Q454 187 442.0 183.0Q430 179 422 186Q405 202 418 227Z" fill="#fbe36a" stroke="none" transform="scale(1,-1) translate(0,-256)" /><path d="M517 308Q525 320 536.0 320.5Q547 321 553 316Q570 301 558 280Q551 270 537.5 266.5Q524 263 517 270Q510 276 509.5 287.0Q509 298 517 308Z" fill="#fbe36a" stroke="none" transform="scale(1,-1) translate(0,-256)" /><path d="M593 377Q585 383 585.0 395.0Q585 407 593 416Q602 425 614.5 427.0Q627 429 635 420Q643 411 640.0 399.0Q637 387 631 381Q625 375 614.0 372.0Q603 369 593 377Z" fill="#fbe36a" stroke="none" transform="scale(1,-1) translate(0,-256)" /><path d="M669 519Q689 551 717 536Q728 529 729.0 515.5Q730 502 723 490Q716 478 701.5 466.5Q687 455 672 463Q658 471 659.5 488.5Q661 506 669 519Z" fill="#fbe36a" stroke="none" transform="scale(1,-1) translate(0,-256)" /><path d="M745 596Q753 609 767.5 615.0Q782 621 792 611Q803 602 801.5 588.0Q800 574 791 561Q781 547 766.5 540.5Q752 534 742 541Q731 550 733.5 566.0Q736 582 745 596Z" fill="#fbe36a" stroke="none" transform="scale(1,-1) translate(0,-256)" /><path d="M823 686Q830 693 840.0 696.0Q850 699 860 693Q870 686 870.5 674.0Q871 662 861 650Q852 638 841.0 636.5Q830 635 821 643Q812 651 813.5 663.5Q815 676 823 686Z" fill="#fbe36a" stroke="none" transform="scale(1,-1) translate(0,-256)" /></svg>