<?xml version="1.0" encoding="utf-8" ?>
<svg baseProfile="full" height="256" version="1.1" width="256" xmlns="http://www.w3.org/2000/svg" xmlns:ev="http://www.w3.org/2001/xml-events" xmlns:xlink="http://www.w3.org/1999/xlink"><defs /><path d="M128 -54Q137 -50 143.0 -47.0Q149 -44 149 -44Q149 -44 160.0 -56.5Q171 -69 182 -79Q193 -89 205.5 -100.5Q218 -112 217 -128Q216 -148 205.5 -161.0Q195 -174 185.0 -180.0Q175 -186 175 -186Q175 -186 160.0 -176.0Q145 -166 129 -155Q114 -145 98.5 -131.5Q83 -118 81 -98Q80 -86 89.5 -77.0Q99 -68 110.5 -62.5Q122 -57 128 -54Z" fill="#649726" stroke="none" transform="scale(1,-1) translate(0,-256)" /><path d="M423 855Q423 862 436.5 876.0Q450 890 473.5 902.0Q497 914 526.0 915.5Q555 917 586 901Q604 891 615.0 872.5Q626 854 632.0 834.5Q638 815 640.0 801.0Q642 787 642 786Q643 784 652.0 794.5Q661 805 669 815Q675 823 684.5 836.5Q694 850 703.0 862.0Q712 874 715 876Q721 880 725.0 874.0Q729 868 729 858Q730 854 726.0 825.5Q722 797 715.5 754.0Q709 711 702.0 663.5Q695 616 689.0 573.0Q683 530 679.0 502.5Q675 475 675 473Q675 471 705.5 472.0Q736 473 784.0 476.0Q832 479 886.0 483.0Q940 487 988.5 490.5Q1037 494 1067.5 496.0Q1098 498 1098 499Q1127 516 1150.5 519.5Q1174 523 1188.0 519.0Q1202 515 1203 511Q1204 503 1196.0 497.5Q1188 492 1181 486Q1176 481 1166.0 471.5Q1156 462 1147.5 453.5Q1139 445 1139 445Q1139 445 1086.0 429.5Q1033 414 953 379Q913 361 876.0 337.5Q839 314 808.5 290.0Q778 266 758.0 247.5Q738 229 731 221Q717 205 727.0 200.0Q737 195 744 202Q750 206 774.5 223.5Q799 241 834.0 264.0Q869 287 906 307Q943 326 984.0 338.0Q1025 350 1061.0 352.5Q1097 355 1119 345Q1152 331 1165.5 298.5Q1179 266 1167 235Q1156 204 1137.5 194.0Q1119 184 1113 181Q1107 179 1117.0 189.0Q1127 199 1134 213Q1138 222 1137.0 238.5Q1136 255 1122.0 267.5Q1108 280 1075 279Q1026 277 969.0 243.0Q912 209 829 141Q773 96 727.5 52.0Q682 8 635.5 -29.5Q589 -67 530 -91Q456 -121 400.5 -122.5Q345 -124 303.0 -106.0Q261 -88 229 -61Q132 21 160 210Q166 255 185.5 298.5Q205 342 230.5 380.5Q256 419 280.0 450.5Q304 482 321 502Q337 523 360.0 551.0Q383 579 408.0 610.0Q433 641 454.5 669.0Q476 697 490 718Q517 758 515.0 788.5Q513 819 496 835Q485 846 467.5 849.0Q450 852 436.5 852.5Q423 853 423 855Z" fill="#649726" stroke="none" transform="scale(1,-1) translate(0,-256)" /></svg>