<?xml version="1.0" encoding="utf-8" ?>
<svg baseProfile="full" height="256" version="1.1" width="256" xmlns="http://www.w3.org/2000/svg" xmlns:ev="http://www.w3.org/2001/xml-events" xmlns:xlink="http://www.w3.org/1999/xlink"><defs /><path d="M306 -37Q306 -37 326.5 -25.5Q347 -14 380.0 3.5Q413 21 449.5 40.5Q486 60 518.5 77.5Q551 95 572.0 106.0Q593 117 594 118Q595 118 615.5 137.5Q636 157 668.0 187.0Q700 217 734.0 249.5Q768 282 797.0 308.5Q826 335 841 348Q856 361 889.0 377.0Q922 393 963.0 410.0Q1004 427 1042.5 442.0Q1081 457 1106.5 466.0Q1132 475 1134 476Q1137 478 1137.5 470.0Q1138 462 1138.5 454.0Q1139 446 1139 446Q1139 446 1125.0 431.0Q1111 416 1099 402Q1085 383 1071.0 365.5Q1057 348 1057 348L1140 294Q1140 294 1140.5 281.0Q1141 268 1141.5 250.0Q1142 232 1142.5 218.5Q1143 205 1143 204Q1143 202 1135.0 195.5Q1127 189 1117.0 183.5Q1107 178 1102 182Q1095 187 1100.0 196.0Q1105 205 1105 219Q1105 233 1089.0 237.5Q1073 242 1051 236Q1036 232 1013.5 219.0Q991 206 969.0 190.0Q947 174 932 162Q921 154 897.0 131.5Q873 109 840.5 79.0Q808 49 771.0 17.5Q734 -14 698 -41Q625 -96 561.0 -121.0Q497 -146 440 -146Q402 -146 373.0 -140.5Q344 -135 327.0 -129.0Q310 -123 310 -123Q310 -123 301.0 -131.0Q292 -139 281 -151Q261 -176 244 -203Q237 -214 225.0 -213.0Q213 -212 208 -208Q202 -203 188.5 -194.5Q175 -186 175 -186Q175 -186 170.5 -169.5Q166 -153 159.5 -131.5Q153 -110 148.0 -93.0Q143 -76 143 -75Q142 -72 135.0 -63.5Q128 -55 128 -55Q128 -55 142.5 -48.0Q157 -41 168 -28Q178 -17 182.5 -0.5Q187 16 187 16Z" fill="#307b32" stroke="none" transform="scale(1,-1) translate(0,-256)" /><path d="M476 283 710 709Q710 709 718.0 728.5Q726 748 733 784Q740 821 734.0 843.5Q728 866 728 866Q728 866 718.5 847.5Q709 829 694 806Q683 791 671.0 775.5Q659 760 650.0 749.0Q641 738 641 738Q641 738 645.5 752.5Q650 767 650.5 792.5Q651 818 637 851Q627 876 611.0 889.0Q595 902 578.5 907.5Q562 913 550.5 914.0Q539 915 539 915Q539 915 554.5 908.5Q570 902 588 881Q607 860 612.5 824.0Q618 788 595 740Q580 708 548.5 668.5Q517 629 477.5 585.5Q438 542 398.0 497.0Q358 452 324.0 408.0Q290 364 270 324Q249 282 237.5 245.5Q226 209 221.0 186.5Q216 164 216 164Q216 164 239.5 172.5Q263 181 298.5 194.5Q334 208 371.5 224.0Q409 240 437.5 255.5Q466 271 476 283Z" fill="#307b32" stroke="none" transform="scale(1,-1) translate(0,-256)" /></svg>