<?xml version="1.0" encoding="utf-8" ?>
<svg baseProfile="full" height="256" version="1.1" width="256" xmlns="http://www.w3.org/2000/svg" xmlns:ev="http://www.w3.org/2001/xml-events" xmlns:xlink="http://www.w3.org/1999/xlink"><defs /><path d="M783 707 798 724Q793 754 784.5 771.0Q776 788 767 804Q737 854 682.5 872.0Q628 890 559 854Q533 841 519.5 824.0Q506 807 498.0 788.5Q490 770 481.5 752.5Q473 735 457.0 721.0Q441 707 411 699Q366 688 340.5 665.0Q315 642 306.0 615.0Q297 588 300 566Q305 532 286.5 510.0Q268 488 249 481Q216 470 199.5 447.0Q183 424 178.5 399.5Q174 375 176 358Q182 321 172.0 305.0Q162 289 147 277Q137 268 127.0 257.5Q117 247 110 228Q100 203 108.0 172.0Q116 141 131 106Q147 70 173.0 36.5Q199 3 228.0 -25.5Q257 -54 283.0 -76.5Q309 -99 325 -113Q362 -145 397.5 -158.5Q433 -172 461.0 -175.0Q489 -178 504 -178Q567 -178 602.0 -160.0Q637 -142 650.0 -118.5Q663 -95 661 -80Q712 -78 744.0 -47.0Q776 -16 788 38Q807 -2 829.0 -19.0Q851 -36 873.0 -38.5Q895 -41 913.0 -35.0Q931 -29 943.5 -21.5Q956 -14 958 -12Q982 13 1032 49Q1059 81 1082.5 108.5Q1106 136 1111 142Q1124 161 1117.5 173.5Q1111 186 1105 192Q1103 195 1103 194Q1100 198 1089.0 210.0Q1078 222 1066.5 234.5Q1055 247 1051 253Q1045 261 1033.5 269.0Q1022 277 999 272Q977 267 950.0 251.0Q923 235 903 220Q887 207 884.5 220.0Q882 233 892 246Q895 251 908.5 269.0Q922 287 926 304Q939 354 935.0 375.0Q931 396 921.5 396.5Q912 397 908 388Q896 360 882.5 349.0Q869 338 864 349Q861 357 861.0 365.5Q861 374 862 386Q864 403 864.0 429.5Q864 456 855.5 497.0Q847 538 823 599Q817 614 826.5 617.0Q836 620 842 610Q845 605 858.5 587.0Q872 569 889.5 546.0Q907 523 922 501Q936 479 959.5 463.5Q983 448 1008.5 436.5Q1034 425 1055 417Q1073 409 1084 412Q1064 429 1045.0 436.0Q1026 443 1014 448Q971 469 936.5 512.0Q902 555 869.5 605.5Q837 656 802 699Q801 705 800 711L794 710L695 489Q695 489 708.0 472.5Q721 456 739.5 433.0Q758 410 773.0 388.5Q788 367 792 356Q805 319 805.5 298.5Q806 278 797.0 263.0Q788 248 771 230Q770 228 768.0 226.0Q766 224 764 222Q699 144 635 185Q619 195 624.5 177.5Q630 160 643 139Q669 98 663.0 74.0Q657 50 639 30Q612 0 587.0 -8.5Q562 -17 543.0 -12.5Q524 -8 514 -1Q498 11 488.0 1.5Q478 -8 487 -18Q506 -43 500.5 -67.0Q495 -91 476.5 -106.5Q458 -122 437 -120Q396 -115 356.5 -93.5Q317 -72 281.5 -40.0Q246 -8 217.5 27.5Q189 63 169.0 95.5Q149 128 142 151Q132 180 135.5 200.5Q139 221 148.0 233.5Q157 246 162 251Q191 270 200.0 295.0Q209 320 203 355Q196 386 206.5 407.0Q217 428 232.5 439.0Q248 450 258 453Q289 463 304.5 481.0Q320 499 324.5 520.0Q329 541 327 560Q323 601 337.5 624.0Q352 647 374.5 657.5Q397 668 416 673Q457 682 475.5 698.5Q494 715 501.0 733.0Q508 751 513 764Q529 807 556.0 826.0Q583 845 608.5 850.0Q634 855 648 854Q685 852 710.0 833.5Q735 815 750.0 790.0Q765 765 773.0 741.5Q781 718 783 707Z" fill="#faa700" stroke="none" transform="scale(1,-1) translate(0,-256)" /><path d="M708 767Q723 767 723.0 778.0Q723 789 713 792Q654 806 608.5 781.0Q563 756 541 699Q536 686 545.5 683.0Q555 680 560 687Q585 724 620.0 745.5Q655 767 708 767Z" fill="#faa700" stroke="none" transform="scale(1,-1) translate(0,-256)" /></svg>