<?xml version="1.0" encoding="utf-8" ?>
<svg baseProfile="full" height="256" version="1.1" width="256" xmlns="http://www.w3.org/2000/svg" xmlns:ev="http://www.w3.org/2001/xml-events" xmlns:xlink="http://www.w3.org/1999/xlink"><defs /><path d="M135 385Q164 380 189.0 360.0Q214 340 229.0 311.0Q244 282 243 249Q242 220 222.0 196.0Q202 172 178.5 157.5Q155 143 143 143Q125 143 114.0 160.0Q103 177 98 190Q93 204 86.0 226.0Q79 248 79 287Q80 312 88.0 335.5Q96 359 109.0 373.0Q122 387 135 385Z" fill="#ffd3b0" stroke="none" transform="scale(1,-1) translate(0,-256)" /></svg>