<?xml version="1.0" encoding="utf-8" ?>
<svg baseProfile="full" height="256" version="1.1" width="256" xmlns="http://www.w3.org/2000/svg" xmlns:ev="http://www.w3.org/2001/xml-events" xmlns:xlink="http://www.w3.org/1999/xlink"><defs /><path d="M634 -74Q677 -74 677 -31V170H937Q963 170 980 187Q997 204 997 230V589Q997 615 980 632Q963 649 937 649H837H678V726Q678 769 635 769Q591 769 591 726V649H341Q315 649 298 632Q281 615 281 589V230Q281 204 298 187Q315 170 341 170H590V-31Q590 -74 634 -74ZM365 452Q365 452 365.0 466.0Q365 480 365.0 498.0Q365 516 365.0 530.0Q365 544 365 544Q365 567 387 567H591V452H477ZM387 252Q365 252 365 274V373H477H591V252ZM677 452V568H884Q907 568 907 545V452H791ZM677 252V373H792H908V274Q908 252 885 252Z" fill="#fafafa" stroke="none" transform="scale(1,-1) translate(0,-256)" /></svg>