<?xml version="1.0" encoding="utf-8" ?>
<svg baseProfile="full" height="256" version="1.1" width="256" xmlns="http://www.w3.org/2000/svg" xmlns:ev="http://www.w3.org/2001/xml-events" xmlns:xlink="http://www.w3.org/1999/xlink"><defs /><path d="M1128 174H922Q922 174 908.0 161.0Q894 148 861.0 131.0Q828 114 769.5 101.0Q711 88 622 88Q532 88 474.5 101.0Q417 114 384.5 131.0Q352 148 338.5 161.0Q325 174 325 174H118Q118 174 118.0 187.5Q118 201 118.0 219.5Q118 238 118.0 255.0Q118 272 118 280Q118 290 135.0 302.5Q152 315 171.5 324.5Q191 334 200 334H1046Q1055 334 1074.5 324.5Q1094 315 1111.0 302.5Q1128 290 1128 280Q1128 276 1128.0 259.5Q1128 243 1128.0 223.0Q1128 203 1128.0 188.5Q1128 174 1128 174Z" fill="#e0e0e0" stroke="none" transform="scale(1,-1) translate(0,-256)" /></svg>