<?xml version="1.0" encoding="utf-8" ?>
<svg baseProfile="full" height="256" version="1.1" width="256" xmlns="http://www.w3.org/2000/svg" xmlns:ev="http://www.w3.org/2001/xml-events" xmlns:xlink="http://www.w3.org/1999/xlink"><defs /><path d="M934 -10 935 -11Q935 -19 940.5 -25.0Q946 -31 954 -31H1127L1128 205H953Q946 205 940.0 199.0Q934 193 934 185Z" fill="#bae2fd" stroke="none" transform="scale(1,-1) translate(0,-256)" /><path d="M688 205Q680 205 674.5 199.5Q669 194 669 186V-12Q669 -20 674.5 -25.5Q680 -31 688 -31H779Q787 -31 792.5 -25.5Q798 -20 798 -12V186Q798 194 792.5 199.5Q787 205 779 205Z" fill="#bae2fd" stroke="none" transform="scale(1,-1) translate(0,-256)" /><path d="M311.0 -10.0 310.0 -11.0Q310.0 -19.0 304.5 -25.0Q299.0 -31.0 291.0 -31.0H118.0L117.0 205.0H292.0Q299.0 205.0 305.0 199.0Q311.0 193.0 311.0 185.0Z" fill="#bae2fd" stroke="none" transform="scale(1,-1) translate(0,-256)" /><path d="M466.75 205.0Q458.75 205.0 453.25 199.5Q447.75 194.0 447.75 186.0V-12.0Q447.75 -20.0 453.25 -25.5Q458.75 -31.0 466.75 -31.0H557.75Q565.75 -31.0 571.25 -25.5Q576.75 -20.0 576.75 -12.0V186.0Q576.75 194.0 571.25 199.5Q565.75 205.0 557.75 205.0Z" fill="#bae2fd" stroke="none" transform="scale(1,-1) translate(0,-256)" /></svg>