<?xml version="1.0" encoding="utf-8" ?>
<svg baseProfile="full" height="256" version="1.1" width="256" xmlns="http://www.w3.org/2000/svg" xmlns:ev="http://www.w3.org/2001/xml-events" xmlns:xlink="http://www.w3.org/1999/xlink"><defs /><path d="M365 836 383 831Q385 838 392 843Q399 847 406 845L411 863Q395 867 382 858Q369 850 365 836Z" fill="#94d1e0" stroke="none" transform="scale(1,-1) translate(0,-256)" /><path d="M475 819 491 809Q500 824 518 823L519 841Q491 843 475 819Z" fill="#94d1e0" stroke="none" transform="scale(1,-1) translate(0,-256)" /><path d="M711 774 729 767Q736 785 753 782L756 801Q724 805 711 774Z" fill="#94d1e0" stroke="none" transform="scale(1,-1) translate(0,-256)" /><path d="M822 752 839 743Q848 760 865 755L871 772Q838 783 822 752Z" fill="#94d1e0" stroke="none" transform="scale(1,-1) translate(0,-256)" /></svg>