<?xml version="1.0" encoding="utf-8" ?>
<svg baseProfile="full" height="256" version="1.1" width="256" xmlns="http://www.w3.org/2000/svg" xmlns:ev="http://www.w3.org/2001/xml-events" xmlns:xlink="http://www.w3.org/1999/xlink"><defs /><path d="M284 -32 290 -22Q290 -22 281.5 -11.5Q273 -1 265.5 21.5Q258 44 261 79Q264 109 283.0 139.5Q302 170 321.5 202.5Q341 235 345 272Q350 306 342.5 338.0Q335 370 323 398Q311 429 303.0 446.0Q295 463 289.5 474.0Q284 485 279 496Q275 503 277.0 493.5Q279 484 284.0 465.5Q289 447 295 425Q304 395 311.0 366.0Q318 337 313 302Q309 265 295.5 237.5Q282 210 266.5 186.0Q251 162 239.0 136.5Q227 111 225 78Q223 45 231.5 23.5Q240 2 252.5 -10.0Q265 -22 274.5 -27.0Q284 -32 284 -32Z" fill="#e9e7d7" stroke="none" transform="scale(1,-1) translate(0,-256)" /><path d="M319 -98Q334 -111 357.0 -121.0Q380 -131 400 -123Q420 -114 430.0 -89.0Q440 -64 447.5 -34.0Q455 -4 469 20Q490 56 516.5 87.0Q543 118 584 143Q624 168 679.5 186.0Q735 204 808 222Q881 239 915.0 256.5Q949 274 946 283Q945 288 926.0 284.5Q907 281 877.5 273.5Q848 266 814.5 257.5Q781 249 750 245Q710 239 672.0 231.0Q634 223 609.5 217.5Q585 212 586 214Q588 218 598.5 234.0Q609 250 627.5 269.0Q646 288 670 303Q695 318 727.5 325.0Q760 332 798.5 339.0Q837 346 881 363Q901 371 924.5 383.0Q948 395 968.5 407.0Q989 419 1001.0 429.5Q1013 440 1010 444Q1006 451 983.5 440.0Q961 429 929.0 412.5Q897 396 863 387Q822 375 783.5 369.0Q745 363 720.5 362.0Q696 361 696 366Q696 370 721.0 386.5Q746 403 782.0 428.5Q818 454 852 486Q870 503 887.5 527.5Q905 552 918.5 576.5Q932 601 938.5 618.5Q945 636 941 639Q932 645 918.5 628.0Q905 611 886 586Q852 542 817.5 512.5Q783 483 761 467Q747 457 730.5 447.5Q714 438 702.5 433.0Q691 428 690 430Q690 431 694.5 445.5Q699 460 705.5 481.5Q712 503 718.0 524.5Q724 546 727 561Q735 599 739.0 624.5Q743 650 747.0 670.0Q751 690 760 712Q775 749 792.5 770.5Q810 792 820.0 803.5Q830 815 824 821Q818 826 792.0 806.5Q766 787 739 749Q712 712 702.0 671.5Q692 631 680 575Q674 547 663.5 516.5Q653 486 641.0 459.5Q629 433 619.5 416.0Q610 399 607 398Q603 397 597.5 417.0Q592 437 586.5 468.5Q581 500 577 535Q570 587 574.5 635.5Q579 684 597 733Q609 765 627.5 793.0Q646 821 659.0 838.5Q672 856 668 858Q662 862 644.5 848.0Q627 834 607 812Q579 782 555.0 729.5Q531 677 527 618Q523 566 529.5 515.5Q536 465 541.0 416.0Q546 367 536 321Q531 295 517.0 274.0Q503 253 491.0 241.5Q479 230 479 230Q479 230 477.5 252.0Q476 274 473.5 305.0Q471 336 470 362Q468 400 469.0 438.5Q470 477 468.5 502.0Q467 527 459 524Q448 521 443.5 474.5Q439 428 438 363Q438 314 429.0 267.5Q420 221 387 172Q366 139 345.5 117.0Q325 95 308.5 72.5Q292 50 282 15Q271 -25 287.0 -54.5Q303 -84 319 -98Z" fill="#e9e7d7" stroke="none" transform="scale(1,-1) translate(0,-256)" /></svg>