<?xml version="1.0" encoding="utf-8" ?>
<svg baseProfile="full" height="256" version="1.1" width="256" xmlns="http://www.w3.org/2000/svg" xmlns:ev="http://www.w3.org/2001/xml-events" xmlns:xlink="http://www.w3.org/1999/xlink"><defs /><path d="M821 322 1046 547Q1049 549 1050 550Q1060 562 1059.0 577.5Q1058 593 1046 603L821 828Q811 837 797 837Q782 837 771.0 826.5Q760 816 759 800V669Q759 661 753.5 655.5Q748 650 741 650H422Q367 650 319.5 626.5Q272 603 236.0 562.0Q200 521 179.5 466.5Q159 412 159 350Q159 306 171 263L309 388Q312 437 330.5 461.0Q349 485 374.0 492.5Q399 500 422 500H741Q748 500 753.5 494.5Q759 489 759 481V350Q760 336 768 326Q779 314 794.0 313.0Q809 312 821 322Z" fill="#fafafa" stroke="none" transform="scale(1,-1) translate(0,-256)" /><path d="M398 378 173 153Q170 151 169 150Q159 138 160.0 122.5Q161 107 173 97L398 -128Q408 -137 422 -137Q437 -137 448.0 -126.5Q459 -116 459 -100V31Q459 39 464.5 44.5Q470 50 478 50H797Q851 50 899.0 73.5Q947 97 983.0 138.0Q1019 179 1039.0 233.5Q1059 288 1059 350Q1060 395 1048 437L909 313Q908 263 889.0 239.0Q870 215 844.5 207.5Q819 200 797 200H478Q470 200 464.5 205.5Q459 211 459 219V350Q459 364 450 374Q440 386 424.5 387.0Q409 388 398 378Z" fill="#fafafa" stroke="none" transform="scale(1,-1) translate(0,-256)" /></svg>