<?xml version="1.0" encoding="utf-8" ?>
<svg baseProfile="full" height="256" version="1.1" width="256" xmlns="http://www.w3.org/2000/svg" xmlns:ev="http://www.w3.org/2001/xml-events" xmlns:xlink="http://www.w3.org/1999/xlink"><defs /><path d="M239 635Q264 642 284.0 637.5Q304 633 316.0 626.0Q328 619 329 618Q331 616 334.0 622.0Q337 628 341 632Q344 634 356.0 646.5Q368 659 384.0 666.0Q400 673 415 662Q430 650 428.5 633.5Q427 617 418.5 601.5Q410 586 404 578Q400 572 396.0 567.0Q392 562 395 559Q397 556 407.0 546.5Q417 537 426.0 520.5Q435 504 435 480Q434 441 420.5 418.5Q407 396 385.5 384.5Q364 373 340 367Q312 361 289.5 360.5Q267 360 267 360Q267 360 256.5 355.0Q246 350 238 345Q229 341 218.0 332.5Q207 324 207 324L136 370L56 521Q56 521 57.0 526.5Q58 532 66 539Q72 543 86.5 547.0Q101 551 115.0 554.0Q129 557 134 558Q141 561 149.0 572.0Q157 583 170 596Q184 608 200.0 618.5Q216 629 239 635Z" fill="#ffba06" stroke="none" transform="scale(1,-1) translate(0,-256)" /><path d="M480 465Q480 465 503.5 452.0Q527 439 566 433Q591 429 614.5 428.5Q638 428 666.5 428.0Q695 428 734 426Q793 422 840.5 407.0Q888 392 914 375Q931 364 949.0 343.5Q967 323 978.5 290.0Q990 257 989 208Q988 159 977.5 126.0Q967 93 957.0 76.0Q947 59 947 59Q947 59 949.5 43.5Q952 28 951 15Q949 -3 948.5 -34.0Q948 -65 947 -90Q945 -114 936.5 -138.5Q928 -163 912 -173Q902 -181 883.5 -183.0Q865 -185 848.5 -183.5Q832 -182 826 -180Q817 -177 811.0 -166.5Q805 -156 805 -156L810 -113L835 -59L837 -22L830 20L789 69L741 115L670 93L611 73L585 32L568 -47L554 -106L521 -146Q521 -146 514.0 -153.5Q507 -161 499.0 -168.5Q491 -176 485 -176Q481 -176 466.0 -178.5Q451 -181 432.5 -181.0Q414 -181 399.5 -174.5Q385 -168 381 -151Q377 -132 389.0 -119.5Q401 -107 414.5 -100.5Q428 -94 428 -94Q428 -94 431.0 -92.0Q434 -90 442 -74Q447 -64 445.5 -44.5Q444 -25 440.5 -7.5Q437 10 435 14Q432 19 416.5 32.5Q401 46 381.5 63.5Q362 81 349 96Q335 112 326.0 140.5Q317 169 311.0 195.0Q305 221 302 229Q298 236 289.0 247.0Q280 258 272.5 266.5Q265 275 265 275Q265 275 282.0 283.0Q299 291 325.0 303.5Q351 316 377.5 331.5Q404 347 423 362Q448 382 460.0 406.0Q472 430 476.0 447.5Q480 465 480 465Z" fill="#ffba06" stroke="none" transform="scale(1,-1) translate(0,-256)" /></svg>