<?xml version="1.0" encoding="utf-8" ?>
<svg baseProfile="full" height="256" version="1.1" width="256" xmlns="http://www.w3.org/2000/svg" xmlns:ev="http://www.w3.org/2001/xml-events" xmlns:xlink="http://www.w3.org/1999/xlink"><defs /><path d="M440 266Q440 276 432.5 281.5Q425 287 415 287Q404 287 396.5 281.5Q389 276 389 266Q389 255 397.5 248.5Q406 242 417 242Q440 242 440 266Z" fill="#d2735b" stroke="none" transform="scale(1,-1) translate(0,-256)" /><path d="M585 268Q580 276 570.5 279.5Q561 283 552 277Q542 272 538.5 263.0Q535 254 540 246Q551 227 575 237Q585 241 587.5 250.0Q590 259 585 268Z" fill="#d2735b" stroke="none" transform="scale(1,-1) translate(0,-256)" /><path d="M679 366Q673 375 661.0 377.0Q649 379 640 373Q630 368 626.5 358.0Q623 348 628 338Q634 329 645.0 324.5Q656 320 669 327Q679 332 681.5 344.0Q684 356 679 366Z" fill="#d2735b" stroke="none" transform="scale(1,-1) translate(0,-256)" /><path d="M535 392Q530 400 519.5 401.5Q509 403 500 398Q490 392 486.5 383.0Q483 374 488 366Q493 358 503.0 354.5Q513 351 525 357Q534 362 537.0 373.0Q540 384 535 392Z" fill="#d2735b" stroke="none" transform="scale(1,-1) translate(0,-256)" /><path d="M811 374Q804 382 792.5 383.5Q781 385 770 379Q759 373 754.5 360.5Q750 348 756 339Q761 330 773.5 328.0Q786 326 800 333Q811 339 815.5 350.5Q820 362 811 374Z" fill="#d2735b" stroke="none" transform="scale(1,-1) translate(0,-256)" /><path d="M896 318Q887 322 876.5 319.0Q866 316 860 307Q854 298 856.0 286.0Q858 274 866 269Q874 263 885.5 265.5Q897 268 905 280Q912 288 910.5 299.5Q909 311 896 318Z" fill="#d2735b" stroke="none" transform="scale(1,-1) translate(0,-256)" /><path d="M965 214Q959 220 951.0 220.5Q943 221 936 217Q930 212 928.0 203.0Q926 194 931 187Q936 181 944.5 179.5Q953 178 962 184Q969 188 971.0 196.5Q973 205 965 214Z" fill="#d2735b" stroke="none" transform="scale(1,-1) translate(0,-256)" /><path d="M620 161Q613 168 602.5 168.0Q592 168 583 161Q574 155 571.0 143.5Q568 132 573 125Q578 118 589.5 117.0Q601 116 613 124Q622 130 625.5 140.5Q629 151 620 161Z" fill="#d2735b" stroke="none" transform="scale(1,-1) translate(0,-256)" /><path d="M747 201Q751 210 747.0 220.0Q743 230 734 235Q725 240 713.5 237.5Q702 235 698 227Q693 218 696.5 207.5Q700 197 711 190Q720 184 731.0 186.0Q742 188 747 201Z" fill="#d2735b" stroke="none" transform="scale(1,-1) translate(0,-256)" /><path d="M855.9836730957031 171.82626342773438Q847.9538879394531 179.376953125 835.9287643432617 179.78011322021484Q823.9036407470703 180.1832733154297 813.1463470458984 172.9050750732422Q802.3890533447266 165.6268768310547 798.9949417114258 152.29450225830078Q795.600830078125 138.96212768554688 802.6982269287109 130.28123474121094Q808.7630310058594 121.50094604492188 821.870849609375 120.68177795410156Q834.9786682128906 119.86260986328125 848.7335357666016 128.4698028564453Q859.4908294677734 135.7480010986328 862.9851455688477 148.04956817626953Q866.4794616699219 160.35113525390625 855.9836730957031 171.82626342773438Z" fill="#d2735b" stroke="none" transform="scale(1,-1) translate(0,-256)" /></svg>