<?xml version="1.0" encoding="utf-8" ?>
<svg baseProfile="full" height="256" version="1.1" width="256" xmlns="http://www.w3.org/2000/svg" xmlns:ev="http://www.w3.org/2001/xml-events" xmlns:xlink="http://www.w3.org/1999/xlink"><defs /><path d="M270 -62Q294 -47 313 -60Q325 -69 319.0 -84.0Q313 -99 306 -105Q294 -115 279.0 -115.5Q264 -116 257 -107Q246 -93 253.5 -80.5Q261 -68 270 -62Z" fill="#fd6a21" stroke="none" transform="scale(1,-1) translate(0,-256)" /><path d="M243 -92Q242 -98 236.0 -101.0Q230 -104 224 -99Q218 -94 220.0 -88.0Q222 -82 227 -80Q233 -78 238.5 -81.0Q244 -84 243 -92Z" fill="#fd6a21" stroke="none" transform="scale(1,-1) translate(0,-256)" /><path d="M475 -170Q475 -164 481.5 -161.0Q488 -158 492 -155Q498 -152 507.0 -146.5Q516 -141 522 -135Q530 -127 536.0 -117.0Q542 -107 546 -95Q548 -91 552.5 -73.0Q557 -55 561.5 -37.0Q566 -19 567 -13Q569 -4 574.5 15.0Q580 34 582 40Q585 54 593.5 65.5Q602 77 606 79Q608 81 622.0 85.5Q636 90 650.5 94.5Q665 99 670 101Q674 102 690.5 108.0Q707 114 723.0 119.5Q739 125 743 123Q752 120 805 64Q822 45 830.0 35.0Q838 25 840 20Q842 16 843.5 4.5Q845 -7 845 -16Q846 -29 846.0 -42.5Q846 -56 845 -61Q843 -66 834.0 -81.0Q825 -96 821 -104Q819 -110 815.5 -120.0Q812 -130 812 -143Q812 -156 819 -166Q823 -170 826.5 -173.0Q830 -176 829 -179Q827 -182 818.0 -179.0Q809 -176 803 -167Q793 -151 795.5 -137.5Q798 -124 801 -112Q803 -103 810.5 -90.5Q818 -78 824.0 -68.0Q830 -58 830 -57Q830 -55 830.0 -43.5Q830 -32 830 -23Q829 -14 827.5 -0.5Q826 13 826 13Q826 13 812.5 30.0Q799 47 787 61Q770 79 756.5 92.0Q743 105 740 106Q737 107 725.5 103.0Q714 99 700.0 94.0Q686 89 676 86Q666 83 652.0 78.5Q638 74 627.5 70.5Q617 67 617 67Q617 67 611.0 58.5Q605 50 602 43Q601 38 596.5 26.5Q592 15 586 -13Q580 -38 574.0 -64.5Q568 -91 565 -100Q556 -127 537 -148Q531 -155 518.0 -162.5Q505 -170 496 -173Q489 -176 481.5 -176.0Q474 -176 475 -170Z" fill="#fd6a21" stroke="none" transform="scale(1,-1) translate(0,-256)" /></svg>