<?xml version="1.0" encoding="utf-8" ?>
<svg baseProfile="full" height="256" version="1.1" width="256" xmlns="http://www.w3.org/2000/svg" xmlns:ev="http://www.w3.org/2001/xml-events" xmlns:xlink="http://www.w3.org/1999/xlink"><defs /><path d="M1173 11Q1173 30 1131.5 45.5Q1090 61 1016.0 73.0Q942 85 845.0 92.0Q748 99 637 99Q526 99 429.0 92.0Q332 85 258.0 73.0Q184 61 142.5 45.5Q101 30 101 11Q101 -7 142.5 -22.5Q184 -38 258.0 -50.0Q332 -62 429.0 -69.0Q526 -76 637 -76Q748 -76 845.0 -69.0Q942 -62 1016.0 -50.0Q1090 -38 1131.5 -22.5Q1173 -7 1173 11Z" fill="#ff5252" stroke="none" transform="scale(1,-1) translate(0,-256)" /></svg>