<?xml version="1.0" encoding="utf-8" ?>
<svg baseProfile="full" height="256" version="1.1" width="256" xmlns="http://www.w3.org/2000/svg" xmlns:ev="http://www.w3.org/2001/xml-events" xmlns:xlink="http://www.w3.org/1999/xlink"><defs /><path d="M1000 587Q1002 588 1001.5 579.0Q1001 570 999 570Q999 570 997.0 564.5Q995 559 977 559Q946 557 915.5 568.0Q885 579 858 592Q847 598 833 604Q805 593 778.0 580.0Q751 567 727 554L638 497V496V497H637L548 554Q524 567 497.0 580.5Q470 594 442 605Q430 599 417 593Q390 579 359.5 568.0Q329 557 297 559Q280 560 277.5 566.0Q275 572 275 572Q273 572 272.5 581.0Q272 590 274 589Q282 588 288.0 586.5Q294 585 297 585Q325 583 351.0 593.5Q377 604 404 618Q387 623 359.5 629.0Q332 635 309.5 639.0Q287 643 285 643Q283 643 283.0 650.0Q283 657 284.0 664.0Q285 671 286 671Q291 672 303.5 672.0Q316 672 320 672Q350 670 384.0 661.0Q418 652 452 639Q497 656 537 653Q562 651 585.0 641.5Q608 632 622.5 623.0Q637 614 637 614Q637 614 637.0 614.0Q637 614 637 614Q637 614 637.0 614.0Q637 614 637 614Q637 614 637.5 614.0Q638 614 638 614Q638 614 638.0 614.0Q638 614 638 614Q638 614 638.0 614.0Q638 614 638 614Q638 614 638.0 614.0Q638 614 638 614Q638 614 652.5 623.0Q667 632 690.0 641.5Q713 651 737 653Q778 656 823 639Q857 652 891.0 661.0Q925 670 955 672Q959 672 970.0 672.0Q981 672 985 671Q987 671 988.0 664.0Q989 657 989.0 650.0Q989 643 987 643Q984 643 962.5 639.0Q941 635 914.5 629.0Q888 623 871 617Q898 604 924.0 593.5Q950 583 978 584Q981 585 986.5 585.5Q992 586 1000 587ZM639 545Q658 558 696.5 579.5Q735 601 782 622Q759 626 740 625Q711 622 688.0 611.0Q665 600 651.5 590.0Q638 580 638 580H637Q637 580 623.5 590.0Q610 600 587.0 611.0Q564 622 535 625Q516 626 493 622Q540 601 578.5 579.5Q617 558 636 545Q638 544 637 544Q637 544 637.0 544.0Q637 544 637 544Q637 544 637.0 544.0Q637 544 637 544Q637 544 637.5 544.0Q638 544 638 544Q638 544 638.0 544.0Q638 544 638 544Q638 545 639 545Z" fill="#212121" stroke="none" transform="scale(1,-1) translate(0,-256)" /></svg>