<?xml version="1.0" encoding="utf-8" ?>
<svg baseProfile="full" height="256" version="1.1" width="256" xmlns="http://www.w3.org/2000/svg" xmlns:ev="http://www.w3.org/2001/xml-events" xmlns:xlink="http://www.w3.org/1999/xlink"><defs /><path d="M625 -129V480L1028 488L969 -121Z" fill="#000000" stroke="none" transform="scale(1,-1) translate(0,-256)" /><path d="M650 -129V480L245 488L304 -121Z" fill="#000000" stroke="none" transform="scale(1,-1) translate(0,-256)" /><path d="M639 50Q729 50 815.5 35.5Q902 21 972.0 -8.5Q1042 -38 1083.5 -82.0Q1125 -126 1125 -185V-212H1111H1097H178H164H150V-185Q150 -122 192.0 -77.5Q234 -33 304.0 -5.0Q374 23 461.0 36.5Q548 50 638 50Q638 50 638.0 50.0Q638 50 639 50Z" fill="#000000" stroke="none" transform="scale(1,-1) translate(0,-256)" /><path d="M459 -212 406 -100 250 -32Q250 -32 271.0 -20.5Q292 -9 338.0 7.0Q384 23 457.5 35.5Q531 48 638 50Q733 52 804.0 40.0Q875 28 922.5 12.0Q970 -4 993.5 -17.0Q1017 -30 1017 -30L878 -90L805 -212Z" fill="#000000" stroke="none" transform="scale(1,-1) translate(0,-256)" /><path d="M873 132Q893 94 880.0 48.0Q867 2 809 -40Q780 -61 749.5 -84.5Q719 -108 694.0 -128.0Q669 -148 653.5 -160.5Q638 -173 638 -173Q638 -173 622.0 -160.5Q606 -148 581.0 -128.0Q556 -108 526.0 -84.5Q496 -61 466 -40Q408 2 395.0 48.0Q382 94 402 132Q417 161 441.5 171.0Q466 181 493.0 179.0Q520 177 544.5 169.5Q569 162 584.0 154.5Q599 147 599 147L638 165L676 147Q676 147 691.0 154.5Q706 162 730.5 169.5Q755 177 782.0 179.0Q809 181 833.5 171.0Q858 161 873 132Z" fill="#000000" stroke="none" transform="scale(1,-1) translate(0,-256)" /><path d="M1000 565 975 547Q972 498 965.0 458.5Q958 419 951.5 396.5Q945 374 945 374Q929 410 921.0 449.5Q913 489 905.5 523.0Q898 557 884 576Q864 604 843.0 610.0Q822 616 807.5 612.5Q793 609 793 609Q793 609 786.5 619.0Q780 629 767.5 641.5Q755 654 737.0 661.5Q719 669 695 665Q671 661 638.0 642.0Q605 623 563.5 599.5Q522 576 472.0 559.0Q422 542 364 542L324 362Q324 362 319.0 386.0Q314 410 308.5 452.5Q303 495 301 548Q301 546 301.0 545.0Q301 544 301 544L275 560Q275 560 275.5 578.0Q276 596 281.0 625.5Q286 655 297.5 690.0Q309 725 330 760Q362 810 407.5 843.5Q453 877 508 894Q511 895 514.0 896.0Q517 897 520 897Q521 898 521.5 898.0Q522 898 523 898Q548 905 573 908Q575 908 576.5 908.5Q578 909 580 909Q591 910 599 911Q603 911 605 911Q621 912 633 912Q716 912 776.5 890.0Q837 868 879.0 831.5Q921 795 947.0 749.5Q973 704 985.5 656.0Q998 608 1000 565Z" fill="#000000" stroke="none" transform="scale(1,-1) translate(0,-256)" /><path d="M1000 562 975 547Q972 498 965.0 458.5Q958 419 951.5 396.5Q945 374 945 374Q929 410 921.0 449.5Q913 489 905.5 523.0Q898 557 884 576Q864 604 843.0 610.0Q822 616 807.5 612.5Q793 609 793 609Q793 609 786.5 619.0Q780 629 767.5 641.5Q755 654 737.0 661.5Q719 669 695 665Q671 661 638.0 642.0Q605 623 563.5 599.5Q522 576 472.0 559.0Q422 542 364 542L324 362Q324 362 319.0 386.0Q314 410 308.5 452.5Q303 495 301 548Q301 546 301.0 545.0Q301 544 301 544L275 560Q275 560 275.5 578.0Q276 596 281.0 625.5Q286 655 297.5 690.0Q309 725 330 760Q362 810 407.5 843.5Q453 877 508 894Q511 895 514.0 896.0Q517 897 520 897Q521 898 521.5 898.0Q522 898 523 898Q548 905 573 908Q575 908 576.5 908.5Q578 909 580 909Q591 910 599 911Q603 911 605 911Q621 912 633 912Q716 912 776.5 890.0Q837 868 879.0 830.5Q921 793 947.0 747.5Q973 702 985.5 653.5Q998 605 1000 562Z" fill="#000000" stroke="none" transform="scale(1,-1) translate(0,-256)" /><path d="M638 554Q637 554 619.0 564.0Q601 574 583 576Q573 577 559.5 571.5Q546 566 546 566L638 506L729 566Q729 566 715.5 571.5Q702 577 692 576Q675 574 656.5 564.0Q638 554 638 554Z" fill="#000000" stroke="none" transform="scale(1,-1) translate(0,-256)" /></svg>