<?xml version="1.0" encoding="utf-8" ?>
<svg baseProfile="full" height="256" version="1.1" width="256" xmlns="http://www.w3.org/2000/svg" xmlns:ev="http://www.w3.org/2001/xml-events" xmlns:xlink="http://www.w3.org/1999/xlink"><defs /><path d="M384.0 505.5Q374.0 493.5 375.0 479.0Q376.0 464.5 386.5 454.0Q397.0 443.5 413.0 443.5H544.0Q551.0 443.5 557.0 438.0Q563.0 432.5 563.0 424.5V-6.5Q563.0 -21.5 574.0 -32.5Q585.0 -43.5 600.0 -43.5H675.0Q690.0 -43.5 701.5 -32.5Q713.0 -21.5 713.0 -6.5V424.5Q713.0 432.5 718.5 438.0Q724.0 443.5 731.0 443.5H863.0Q878.0 443.5 888.5 454.0Q899.0 464.5 900.0 479.0Q901.0 493.5 891.0 505.5L666.0 730.5Q654.0 743.5 637.5 743.5Q621.0 743.5 609.0 730.5Z" fill="#fafafa" stroke="none" transform="scale(1,-1) translate(0,-256)" /></svg>