<?xml version="1.0" encoding="utf-8" ?>
<svg baseProfile="full" height="256" version="1.1" width="256" xmlns="http://www.w3.org/2000/svg" xmlns:ev="http://www.w3.org/2001/xml-events" xmlns:xlink="http://www.w3.org/1999/xlink"><defs /><path d="M765 130Q778 130 783 118L841 -49Q846 -62 859 -62H968Q972 -62 975 -60Q983 -58 986.0 -50.5Q989 -43 986 -36L688 751Q683 763 670 763H567Q554 764 549 751L252 -36Q251 -39 251 -43Q251 -51 256.5 -56.5Q262 -62 270 -62H378Q391 -62 396 -49L454 118Q459 130 472 130ZM525 245Q522 245 519 246Q512 249 508.5 256.0Q505 263 508 270L601 537Q604 546 613 549Q620 551 627.0 547.5Q634 544 637 537L729 270Q730 267 730 265Q731 257 725.5 251.0Q720 245 712 245Z" fill="#fafafa" stroke="none" transform="scale(1,-1) translate(0,-256)" /></svg>