<?xml version="1.0" encoding="utf-8" ?>
<svg baseProfile="full" height="256" version="1.1" width="256" xmlns="http://www.w3.org/2000/svg" xmlns:ev="http://www.w3.org/2001/xml-events" xmlns:xlink="http://www.w3.org/1999/xlink"><defs /><path d="M-416.49951171875 405.3453369140625Q-416.49951171875 405.3453369140625 -402.4476852416992 389.5807342529297Q-388.39585876464844 373.8161315917969 -373.1138153076172 348.6669616699219Q-357.83177185058594 323.5177917480469 -353.6605529785156 294.68243408203125Q-349.4893341064453 265.8470764160156 -355.11212158203125 244.30609130859375Q-360.7349090576172 222.76510620117188 -368.5875015258789 210.6375274658203Q-376.4400939941406 198.50994873046875 -376.4400939941406 198.50994873046875Q-376.4400939941406 198.50994873046875 -364.1471176147461 191.1434783935547Q-351.85414123535156 183.77700805664062 -338.26365661621094 169.36129760742188Q-324.6731719970703 154.94558715820312 -320.271240234375 134.1170654296875Q-315.73472595214844 117.95919799804688 -321.21331787109375 101.4224853515625Q-326.69190979003906 84.88577270507812 -333.0162811279297 73.71578979492188Q-339.3406524658203 62.545806884765625 -339.3406524658203 62.545806884765625Q-339.3406524658203 62.545806884765625 -325.86544036865234 61.48924255371094Q-312.3902282714844 60.43267822265625 -289.26512145996094 64.44003295898438Q-258.08563232421875 70.2183837890625 -241.10216522216797 86.75706481933594Q-224.1186981201172 103.29574584960938 -219.42820739746094 127.20089721679688Q-218.21713256835938 134.51165771484375 -216.92906951904297 161.8539276123047Q-215.64100646972656 189.19619750976562 -214.5162811279297 228.22952270507812Q-213.3915557861328 267.2628479003906 -212.1322479248047 310.9668273925781Q-210.87294006347656 354.6708068847656 -210.69012451171875 395.73468017578125Q-210.50730895996094 436.7985534667969 -210.11309051513672 467.83946228027344Q-209.7188720703125 498.88037109375 -210.3339385986328 512.2539367675781Q-210.77597045898438 531.6326293945312 -211.42940521240234 561.0342864990234Q-212.0828399658203 590.4359436035156 -213.64934539794922 622.8690032958984Q-215.21585083007812 655.3020629882812 -216.85926055908203 685.0661773681641Q-218.50267028808594 714.8302917480469 -219.89622497558594 735.9059143066406Q-221.28977966308594 756.9815368652344 -222.13555908203125 762.3482666015625Q-224.73057556152344 776.4467468261719 -243.31900024414062 791.0066528320312Q-261.9074249267578 805.5665588378906 -289.7997589111328 809.7102355957031Q-311.7137908935547 813.0136413574219 -330.77325439453125 811.2262573242188Q-349.8327178955078 809.4388732910156 -349.8327178955078 809.4388732910156Q-349.8327178955078 809.4388732910156 -342.09556579589844 800.2004699707031Q-334.35841369628906 790.9620666503906 -326.3233413696289 774.7032623291016Q-318.28826904296875 758.4444580078125 -314.86669921875 738.31201171875Q-311.46435546875 717.5123291015625 -314.03070068359375 697.8865356445312Q-316.5970458984375 678.2607421875 -320.4705123901367 665.3505706787109Q-324.34397888183594 652.4403991699219 -324.34397888183594 652.4403991699219Q-324.34397888183594 652.4403991699219 -340.05860900878906 662.5767517089844Q-355.7732391357422 672.7131042480469 -372.55474853515625 680.54296875Q-383.41563415527344 685.5308532714844 -399.81270599365234 689.3428802490234Q-416.20977783203125 693.1549072265625 -428.66617584228516 694.8498687744141Q-441.12257385253906 696.5448303222656 -441.12257385253906 696.5448303222656Q-441.12257385253906 696.5448303222656 -431.5208282470703 682.5780944824219Q-421.91908264160156 668.6113586425781 -409.59735107421875 644.8831787109375Q-397.27561950683594 621.1549987792969 -387.6451187133789 590.8265533447266Q-378.0146179199219 560.4981079101562 -376.93829345703125 528.4130859375Q-376.1888122558594 484.98504638671875 -386.9441223144531 458.9176025390625Q-397.6994323730469 432.85015869140625 -407.5608139038086 420.44664001464844Q-417.4221954345703 408.0431213378906 -416.49951171875 405.3453369140625Z" fill="#000000" stroke="none" transform="scale(1,-1) translate(0,-256)" /></svg>