<?xml version="1.0" encoding="utf-8" ?>
<svg baseProfile="full" height="256" version="1.1" width="256" xmlns="http://www.w3.org/2000/svg" xmlns:ev="http://www.w3.org/2001/xml-events" xmlns:xlink="http://www.w3.org/1999/xlink"><defs /><path d="M600 238Q600 238 609.0 240.0Q618 242 629.5 243.5Q641 245 649.5 243.0Q658 241 657 232Q656 223 646.0 199.0Q636 175 623.0 146.5Q610 118 600.0 95.5Q590 73 587 68Q581 56 567.0 52.0Q553 48 543.5 56.0Q534 64 540 86Q541 89 547.5 105.5Q554 122 562.5 144.0Q571 166 579.5 187.5Q588 209 594.0 223.5Q600 238 600 238Z" fill="#ffe36a" stroke="none" transform="scale(1,-1) translate(0,-256)" /><path d="M624 95Q633 89 631.0 81.0Q629 73 626 68Q622 63 615.0 56.0Q608 49 599 54Q589 60 592.0 70.0Q595 80 600 87Q604 94 611.0 97.0Q618 100 624 95Z" fill="#ffe36a" stroke="none" transform="scale(1,-1) translate(0,-256)" /><path d="M713 65Q730 62 728.5 48.0Q727 34 723 21Q721 15 712.0 -6.5Q703 -28 694.0 -50.5Q685 -73 682 -81Q675 -97 663.5 -95.0Q652 -93 655 -76Q657 -67 662.0 -45.5Q667 -24 672.5 -2.0Q678 20 680 31Q684 47 690.5 57.5Q697 68 713 65Z" fill="#ffe36a" stroke="none" transform="scale(1,-1) translate(0,-256)" /></svg>