<?xml version="1.0" encoding="utf-8" ?>
<svg baseProfile="full" height="256" version="1.1" width="256" xmlns="http://www.w3.org/2000/svg" xmlns:ev="http://www.w3.org/2001/xml-events" xmlns:xlink="http://www.w3.org/1999/xlink"><defs /><path d="M786 282 714 128Q714 128 729.5 128.5Q745 129 766.0 129.5Q787 130 805.5 130.0Q824 130 830 130Q841 129 847.5 117.5Q854 106 844 92Q842 89 828.5 71.5Q815 54 794.5 27.5Q774 1 751.0 -28.5Q728 -58 707.0 -84.5Q686 -111 671.5 -129.5Q657 -148 654 -151Q644 -161 636.0 -155.0Q628 -149 629 -140Q630 -136 633.0 -118.5Q636 -101 641.0 -78.0Q646 -55 650.5 -32.5Q655 -10 658.0 5.0Q661 20 661 20Q661 20 642.0 20.0Q623 20 596.0 20.0Q569 20 545.0 19.5Q521 19 511 19Q497 19 495.0 30.5Q493 42 496 51Q498 55 506.0 75.5Q514 96 525.0 124.5Q536 153 546.5 180.5Q557 208 564.5 226.5Q572 245 572 245Z" fill="#feca18" stroke="none" transform="scale(1,-1) translate(0,-256)" /></svg>