<?xml version="1.0" encoding="utf-8" ?>
<svg baseProfile="full" height="256" version="1.1" width="256" xmlns="http://www.w3.org/2000/svg" xmlns:ev="http://www.w3.org/2001/xml-events" xmlns:xlink="http://www.w3.org/1999/xlink"><defs /><path d="M1044 479Q1044 479 1061.5 478.5Q1079 478 1103.5 472.0Q1128 466 1149 450Q1176 430 1186.5 408.0Q1197 386 1198.0 366.0Q1199 346 1196.0 334.0Q1193 322 1193 322L189 277Q189 277 176.5 273.0Q164 269 146.5 267.0Q129 265 112.0 270.5Q95 276 85.5 296.0Q76 316 80 357Q85 397 104.5 421.0Q124 445 150.0 457.0Q176 469 201.0 472.5Q226 476 243.0 475.5Q260 475 260 475Q260 475 263.0 491.5Q266 508 278.5 536.5Q291 565 321 599Q343 626 372.0 636.5Q401 647 427.5 648.0Q454 649 472.0 646.5Q490 644 490 644Q490 644 494.5 661.0Q499 678 510.5 704.0Q522 730 543.5 758.5Q565 787 597.5 810.0Q630 833 677.0 843.5Q724 854 787 845Q854 835 899.5 804.5Q945 774 973.0 732.5Q1001 691 1016.0 647.0Q1031 603 1037.0 565.0Q1043 527 1043.5 503.0Q1044 479 1044 479Z" fill="#e4eaee" stroke="none" transform="scale(1,-1) translate(0,-256)" /></svg>