<?xml version="1.0" encoding="utf-8" ?>
<svg baseProfile="full" height="256" version="1.1" width="256" xmlns="http://www.w3.org/2000/svg" xmlns:ev="http://www.w3.org/2001/xml-events" xmlns:xlink="http://www.w3.org/1999/xlink"><defs /><path d="M1065 234Q1070 225 1064.0 216.0Q1058 207 1047 207H1028Q1028 170 1010.5 133.5Q993 97 964 77Q954 71 934.5 64.5Q915 58 890.5 57.5Q866 57 841 69Q804 87 784.5 119.0Q765 151 758.0 190.0Q751 229 750.5 267.5Q750 306 750 337Q750 341 750.0 361.5Q750 382 750.0 410.5Q750 439 750.5 466.0Q751 493 751.0 511.5Q751 530 751 530Q751 562 727.0 584.5Q703 607 670 605Q641 603 621.0 580.0Q601 557 601 527V118Q601 101 589.0 90.0Q577 79 560 80Q545 82 535.5 93.5Q526 105 526 119V530Q526 562 502.5 584.5Q479 607 446 605Q416 603 396.0 580.0Q376 557 376 527V117Q376 100 364.0 89.0Q352 78 335 79Q320 81 310.5 92.5Q301 104 301 118V525Q301 566 320.5 600.5Q340 635 372.5 656.5Q405 678 446 679Q478 680 506.5 668.5Q535 657 556 636Q564 629 571 636Q615 680 681 679Q721 678 754.0 656.5Q787 635 806.5 600.5Q826 566 826 525V321Q823 245 835.0 205.0Q847 165 865.0 149.5Q883 134 899.5 133.5Q916 133 922 136Q938 145 946.0 163.5Q954 182 954 206Q954 206 954.0 206.5Q954 207 954 207H936Q925 207 919.5 216.0Q914 225 919 234L975 309Q981 319 992.5 319.0Q1004 319 1009 309Z" fill="#fafafa" stroke="none" transform="scale(1,-1) translate(0,-256)" /></svg>