<?xml version="1.0" encoding="utf-8" ?>
<svg baseProfile="full" height="256" version="1.1" width="256" xmlns="http://www.w3.org/2000/svg" xmlns:ev="http://www.w3.org/2001/xml-events" xmlns:xlink="http://www.w3.org/1999/xlink"><defs /><path d="M757 897Q758 911 744 912Q737 913 733 909Q730 906 729 899L659 -101Q658 -115 672 -116Q686 -117 687 -103Z" fill="#82aec0" stroke="none" transform="scale(1,-1) translate(0,-256)" /><path d="M471 -56 881 -80 862 -5Q856 19 831 21Q810 23 775.5 26.5Q741 30 702.0 33.0Q663 36 626.5 39.0Q590 42 564.0 44.0Q538 46 531 46Q519 46 508.5 30.5Q498 15 489.5 -5.0Q481 -25 476.0 -40.5Q471 -56 471 -56Z" fill="#82aec0" stroke="none" transform="scale(1,-1) translate(0,-256)" /><path d="M704 104Q690 104 690 89Q690 75 704 75H1049Q1063 75 1063 89Q1063 104 1049 104Z" fill="#82aec0" stroke="none" transform="scale(1,-1) translate(0,-256)" /></svg>