<?xml version="1.0" encoding="utf-8" ?>
<svg baseProfile="full" height="256" version="1.1" width="256" xmlns="http://www.w3.org/2000/svg" xmlns:ev="http://www.w3.org/2001/xml-events" xmlns:xlink="http://www.w3.org/1999/xlink"><defs /><path d="M638 276Q638 248 639.0 224.0Q640 200 641 179Q571 197 493.5 200.5Q416 204 340.5 191.5Q265 179 200 149Q200 149 206.5 167.0Q213 185 222.5 210.0Q232 235 242 257Q301 275 369.0 283.5Q437 292 506.5 290.0Q576 288 638 276Z" fill="#ffab91" stroke="none" transform="scale(1,-1) translate(0,-256)" /><path d="M360 496Q403 505 454.5 507.0Q506 509 557.5 506.0Q609 503 654 496Q650 471 647.5 446.5Q645 422 643 399Q589 408 529.0 411.0Q469 414 409.5 408.0Q350 402 301 384Q312 409 325.0 434.0Q338 459 353 483Q354 486 356.0 489.0Q358 492 360 496Z" fill="#ffab91" stroke="none" transform="scale(1,-1) translate(0,-256)" /><path d="M530 718Q564 719 608.5 714.0Q653 709 688 704Q680 658 672 613Q620 620 557.0 623.0Q494 626 444 617Q465 643 486.5 668.5Q508 694 530 718Z" fill="#ffab91" stroke="none" transform="scale(1,-1) translate(0,-256)" /></svg>