<?xml version="1.0" encoding="utf-8" ?>
<svg baseProfile="full" height="256" version="1.1" width="256" xmlns="http://www.w3.org/2000/svg" xmlns:ev="http://www.w3.org/2001/xml-events" xmlns:xlink="http://www.w3.org/1999/xlink"><defs /><path d="M510 580Q478 552 465.5 513.5Q453 475 454 433Q455 411 459.5 384.5Q464 358 475.0 335.0Q486 312 508 300Q516 296 521 301Q526 304 525.5 310.5Q525 317 523 322Q505 380 515.0 446.5Q525 513 543 569Q545 572 545.5 576.0Q546 580 545 583Q541 593 529 591Q524 590 519.5 587.5Q515 585 512 581Q511 581 511.0 581.0Q511 581 510 580Z" fill="#a8e3f0" stroke="none" transform="scale(1,-1) translate(0,-256)" /><path d="M786 294Q807 243 784 194Q778 180 766.5 168.5Q755 157 741 157Q728 157 722 167Q719 171 718.5 182.0Q718 193 730 222Q738 241 735.5 256.5Q733 272 733 287Q732 307 740.0 314.5Q748 322 755 322Q765 323 773.5 314.0Q782 305 786 294Z" fill="#a8e3f0" stroke="none" transform="scale(1,-1) translate(0,-256)" /><path d="M499 -64Q454 -101 406.0 -104.5Q358 -108 314 -91Q305 -88 295.0 -88.5Q285 -89 280.0 -94.5Q275 -100 282 -111Q294 -131 324.5 -140.5Q355 -150 378 -151Q404 -152 430.0 -144.0Q456 -136 479 -121Q497 -109 511.5 -92.0Q526 -75 528 -53Q523 -45 513.5 -52.5Q504 -60 499 -64Z" fill="#a8e3f0" stroke="none" transform="scale(1,-1) translate(0,-256)" /></svg>