<?xml version="1.0" encoding="utf-8" ?>
<svg baseProfile="full" height="256" version="1.1" width="256" xmlns="http://www.w3.org/2000/svg" xmlns:ev="http://www.w3.org/2001/xml-events" xmlns:xlink="http://www.w3.org/1999/xlink"><defs /><path d="M1114 431Q1108 416 1093.0 410.5Q1078 405 1062 411Q1047 417 1039.5 431.5Q1032 446 1038 460L1055 506Q1083 493 1102.0 492.0Q1121 491 1130.5 494.5Q1140 498 1140 498Z" fill="#212121" stroke="none" transform="scale(1,-1) translate(0,-256)" /><path d="M209 889Q192 896 167.5 868.5Q143 841 125 796Q108 751 107.5 714.0Q107 677 125 670Q142 664 166.5 691.5Q191 719 208 764Q226 809 226.0 846.0Q226 883 209 889Z" fill="#212121" stroke="none" transform="scale(1,-1) translate(0,-256)" /><path d="M201 661Q193 665 189.5 673.5Q186 682 191 691L228 757Q237 772 254 765L415 699Q422 696 433.0 685.0Q444 674 438 658Q434 647 429.0 637.5Q424 628 412 612Q401 598 386.0 598.0Q371 598 351 605Z" fill="#212121" stroke="none" transform="scale(1,-1) translate(0,-256)" /></svg>