<?xml version="1.0" encoding="utf-8" ?>
<svg baseProfile="full" height="256" version="1.1" width="256" xmlns="http://www.w3.org/2000/svg" xmlns:ev="http://www.w3.org/2001/xml-events" xmlns:xlink="http://www.w3.org/1999/xlink"><defs /><path d="M1020.5075988769531 265.4088592529297Q1020.5075988769531 344.5989227294922 990.8113250732422 413.8902282714844Q961.1150512695312 483.18153381347656 908.4536590576172 535.8429260253906Q855.7922668457031 588.5043182373047 786.5009613037109 618.2005920410156Q717.2096557617188 647.8968658447266 637.2276916503906 647.8968658447266Q558.0376281738281 647.8968658447266 488.74632263183594 618.2005920410156Q419.45501708984375 588.5043182373047 366.7936248779297 535.8429260253906Q314.1322326660156 483.18153381347656 284.4359588623047 413.8902282714844Q254.73968505859375 344.5989227294922 254.73968505859375 265.4088592529297Q254.73968505859375 185.42689514160156 284.4359588623047 116.13558959960938Q314.1322326660156 46.84428405761719 366.7936248779297 -5.817108154296875Q419.45501708984375 -58.47850036621094 488.74632263183594 -88.17477416992188Q558.0376281738281 -117.87104797363281 637.2276916503906 -117.87104797363281Q717.2096557617188 -117.87104797363281 786.5009613037109 -88.17477416992188Q855.7922668457031 -58.47850036621094 908.4536590576172 -5.817108154296875Q961.1150512695312 46.84428405761719 990.8113250732422 116.13558959960938Q1020.5075988769531 185.42689514160156 1020.5075988769531 265.4088592529297Z" fill="#fafafa" stroke="none" transform="scale(1,-1) translate(0,-256)" /></svg>