<?xml version="1.0" encoding="utf-8" ?>
<svg baseProfile="full" height="256" version="1.1" width="256" xmlns="http://www.w3.org/2000/svg" xmlns:ev="http://www.w3.org/2001/xml-events" xmlns:xlink="http://www.w3.org/1999/xlink"><defs /><path d="M638 546Q651 546 651 560V601Q651 615 638 615Q624 615 624 601V560Q624 546 638 546Z" fill="#b2947c" stroke="none" transform="scale(1,-1) translate(0,-256)" /><path d="M637.8119964599609 -87.43800354003906Q650.8119964599609 -87.43800354003906 650.8119964599609 -73.43800354003906V-32.43800354003906Q650.8119964599609 -18.438003540039062 637.8119964599609 -18.438003540039062Q623.8119964599609 -18.438003540039062 623.8119964599609 -32.43800354003906V-73.43800354003906Q623.8119964599609 -87.43800354003906 637.8119964599609 -87.43800354003906Z" fill="#b2947c" stroke="none" transform="scale(1,-1) translate(0,-256)" /><path d="M974.7325134277344 250.3174591064453Q989.2144927978516 250.3174591064453 989.2144927978516 263.68544006347656Q989.2144927978516 277.0534210205078 974.7325134277344 277.0534210205078H933.5145721435547Q920.1465911865234 277.0534210205078 920.1465911865234 263.68544006347656Q920.1465911865234 250.3174591064453 933.5145721435547 250.3174591064453Z" fill="#b2947c" stroke="none" transform="scale(1,-1) translate(0,-256)" /><path d="M341.1715087890625 250.31846618652344Q355.6534881591797 250.31846618652344 355.6534881591797 263.6864471435547Q355.6534881591797 277.05442810058594 341.1715087890625 277.05442810058594H299.9535675048828Q286.58558654785156 277.05442810058594 286.58558654785156 263.6864471435547Q286.58558654785156 250.31846618652344 299.9535675048828 250.31846618652344Z" fill="#b2947c" stroke="none" transform="scale(1,-1) translate(0,-256)" /><path d="M477.81199645996094 513.218994140625Q484.81199645996094 501.218994140625 496.81199645996094 508.218994140625Q508.81199645996094 515.218994140625 501.81199645996094 527.218994140625L480.81199645996094 563.218994140625Q473.81199645996094 575.218994140625 461.81199645996094 568.218994140625Q449.81199645996094 561.218994140625 456.81199645996094 549.218994140625Z" fill="#b2947c" stroke="none" transform="scale(1,-1) translate(0,-256)" /><path d="M794.5343170166016 -35.28639221191406Q801.5343170166016 -47.41035461425781 813.6582794189453 -40.41035461425781Q824.9162445068359 -33.91035461425781 817.9162445068359 -21.786392211914062L797.4162445068359 13.719497680664062Q790.4162445068359 25.843460083007812 779.1582794189453 19.343460083007812Q767.0343170166016 12.343460083007812 774.0343170166016 0.2194976806640625Z" fill="#b2947c" stroke="none" transform="scale(1,-1) translate(0,-256)" /><path d="M374.28538513183594 400.16131591796875Q386.4093475341797 393.16131591796875 393.4093475341797 405.2852783203125Q399.9093475341797 416.5432434082031 387.78538513183594 423.5432434082031L352.2794952392578 444.0432434082031Q340.15553283691406 451.0432434082031 333.65553283691406 439.7852783203125Q326.65553283691406 427.66131591796875 338.7794952392578 420.66131591796875Z" fill="#b2947c" stroke="none" transform="scale(1,-1) translate(0,-256)" /><path d="M922.9293365478516 83.45704650878906Q935.4691314697266 76.21595764160156 942.1532135009766 87.79115295410156Q948.8372955322266 99.36634826660156 936.2975006103516 106.60743713378906L900.6073150634766 127.21669006347656Q889.0321197509766 133.90077209472656 882.3480377197266 122.32557678222656Q875.6639556884766 110.75038146972656 887.2391510009766 104.06629943847656Z" fill="#b2947c" stroke="none" transform="scale(1,-1) translate(0,-256)" /><path d="M778.8119964599609 508.218994140625Q790.8119964599609 501.218994140625 797.8119964599609 513.218994140625L817.8119964599609 549.218994140625Q824.8119964599609 561.218994140625 812.8119964599609 568.218994140625Q800.8119964599609 574.218994140625 793.8119964599609 563.218994140625L773.8119964599609 527.218994140625Q766.8119964599609 515.218994140625 778.8119964599609 508.218994140625Z" fill="#b2947c" stroke="none" transform="scale(1,-1) translate(0,-256)" /><path d="M462 -40Q474 -47 481 -35L501 0Q508 12 496 19Q484 26 477 14L457 -22Q450 -34 462 -40Z" fill="#b2947c" stroke="none" transform="scale(1,-1) translate(0,-256)" /><path d="M882 405Q889 393 901 400L937 420Q949 427 942 439Q935 451 923 444L887 424Q875 417 882 405Z" fill="#b2947c" stroke="none" transform="scale(1,-1) translate(0,-256)" /><path d="M333.81199645996094 88.218994140625Q339.81199645996094 76.218994140625 351.81199645996094 83.218994140625L387.81199645996094 103.218994140625Q399.81199645996094 110.218994140625 392.81199645996094 122.218994140625Q385.81199645996094 134.218994140625 373.81199645996094 127.218994140625L338.81199645996094 107.218994140625Q326.81199645996094 100.218994140625 333.81199645996094 88.218994140625Z" fill="#b2947c" stroke="none" transform="scale(1,-1) translate(0,-256)" /></svg>