<?xml version="1.0" encoding="utf-8" ?>
<svg baseProfile="full" height="256" version="1.1" width="256" xmlns="http://www.w3.org/2000/svg" xmlns:ev="http://www.w3.org/2001/xml-events" xmlns:xlink="http://www.w3.org/1999/xlink"><defs /><path d="M613 832Q614 834 614.5 845.5Q615 857 615.0 869.5Q615 882 615 887Q614 898 607.0 897.5Q600 897 600 891Q598 881 597.5 862.5Q597 844 599 835Q601 827 607.0 827.5Q613 828 613 832Z" fill="#fbe9e7" stroke="none" transform="scale(1,-1) translate(0,-256)" /><path d="M585 831Q585 839 585.0 855.0Q585 871 585 881Q584 892 575.5 891.0Q567 890 567 880Q566 871 566.0 856.5Q566 842 566 826Q567 814 575.5 819.0Q584 824 585 831Z" fill="#fbe9e7" stroke="none" transform="scale(1,-1) translate(0,-256)" /><path d="M1037 671Q1039 673 1052.5 685.5Q1066 698 1071 703Q1077 710 1072.5 713.5Q1068 717 1064 715Q1057 709 1046.0 698.5Q1035 688 1031 681Q1027 676 1031.0 673.0Q1035 670 1037 671Z" fill="#fbe9e7" stroke="none" transform="scale(1,-1) translate(0,-256)" /><path d="M1020 688Q1025 692 1034.0 702.0Q1043 712 1049 718Q1056 724 1050.0 728.5Q1044 733 1038 727Q1032 722 1023.5 714.0Q1015 706 1006 696Q999 688 1007.0 686.0Q1015 684 1020 688Z" fill="#fbe9e7" stroke="none" transform="scale(1,-1) translate(0,-256)" /></svg>