<?xml version="1.0" encoding="utf-8" ?>
<svg baseProfile="full" height="256" version="1.1" width="256" xmlns="http://www.w3.org/2000/svg" xmlns:ev="http://www.w3.org/2001/xml-events" xmlns:xlink="http://www.w3.org/1999/xlink"><defs /><path d="M677.9984283447266 789.6011962890625H596.4232025146484V686.1316680908203H677.9984283447266Z" fill="#607d8b" stroke="none" transform="scale(1,-1) translate(0,-256)" /><path d="M719 795Q719 801 695.0 805.0Q671 809 638 809Q604 809 580.0 805.0Q556 801 556 795Q556 789 580.0 784.5Q604 780 638 780Q671 780 695.0 784.5Q719 789 719 795Z" fill="#607d8b" stroke="none" transform="scale(1,-1) translate(0,-256)" /><path d="M691.593994140625 831.0Q691.593994140625 839.0 691.593994140625 855.0Q691.593994140625 871.0 691.593994140625 881.0Q692.593994140625 892.0 701.093994140625 891.0Q709.593994140625 890.0 709.593994140625 880.0Q710.593994140625 871.0 710.593994140625 856.5Q710.593994140625 842.0 710.593994140625 826.0Q709.593994140625 814.0 701.093994140625 819.0Q692.593994140625 824.0 691.593994140625 831.0Z" fill="#607d8b" stroke="none" transform="scale(1,-1) translate(0,-256)" /><path d="M1050.4435424804688 607.6998748779297 1001.9736938476562 656.1697235107422 940.5435180664062 594.7395477294922 989.0133666992188 546.2696990966797Z" fill="#607d8b" stroke="none" transform="scale(1,-1) translate(0,-256)" /><path d="M1037.7723846435547 643.5950317382812Q1024.6592559814453 656.7081604003906 1012.6256256103516 666.4482498168945Q1000.5919952392578 676.1883392333984 992.1698913574219 680.6488723754883Q983.7477874755859 685.1094055175781 981.2537384033203 683.0163726806641Q978.7636871337891 680.5023345947266 983.2432098388672 672.0612411499023Q987.7227325439453 663.6201477050781 997.4758148193359 651.3650207519531Q1007.2288970947266 639.1098937988281 1020.7610321044922 625.9947662353516Q1033.878158569336 612.4606323242188 1046.1212921142578 602.7195434570312Q1058.3644256591797 592.9784545898438 1066.7865295410156 588.5179214477539Q1075.2086334228516 584.0573883056641 1077.6986846923828 586.5714263916016Q1079.7697296142578 589.0874633789062 1075.2902069091797 597.5285568237305Q1070.8106842041016 605.9696502685547 1061.0596008300781 618.014274597168Q1051.3085174560547 630.0588989257812 1037.7723846435547 643.5950317382812Z" fill="#607d8b" stroke="none" transform="scale(1,-1) translate(0,-256)" /></svg>