<?xml version="1.0" encoding="utf-8" ?>
<svg baseProfile="full" height="256" version="1.1" width="256" xmlns="http://www.w3.org/2000/svg" xmlns:ev="http://www.w3.org/2001/xml-events" xmlns:xlink="http://www.w3.org/1999/xlink"><defs /><path d="M729.2515563964844 423.96014404296875Q729.2515563964844 442.92987060546875 722.1379089355469 459.52838134765625Q715.0242614746094 476.12689208984375 702.4093933105469 488.74176025390625Q689.7945251464844 501.35662841796875 673.1960144042969 508.47027587890625Q656.5975036621094 515.5839233398438 637.4380798339844 515.5839233398438Q618.4683532714844 515.5839233398438 601.8698425292969 508.47027587890625Q585.2713317871094 501.35662841796875 572.6564636230469 488.74176025390625Q560.0415954589844 476.12689208984375 552.9279479980469 459.52838134765625Q545.8143005371094 442.92987060546875 545.8143005371094 423.96014404296875Q545.8143005371094 404.80072021484375 552.9279479980469 388.20220947265625Q560.0415954589844 371.60369873046875 572.6564636230469 358.98883056640625Q585.2713317871094 346.37396240234375 601.8698425292969 339.26031494140625Q618.4683532714844 332.14666748046875 637.4380798339844 332.14666748046875Q656.5975036621094 332.14666748046875 673.1960144042969 339.26031494140625Q689.7945251464844 346.37396240234375 702.4093933105469 358.98883056640625Q715.0242614746094 371.60369873046875 722.1379089355469 388.20220947265625Q729.2515563964844 404.80072021484375 729.2515563964844 423.96014404296875Z" fill="#82aec0" stroke="none" transform="scale(1,-1) translate(0,-256)" /></svg>