<?xml version="1.0" encoding="utf-8" ?>
<svg baseProfile="full" height="256" version="1.1" width="256" xmlns="http://www.w3.org/2000/svg" xmlns:ev="http://www.w3.org/2001/xml-events" xmlns:xlink="http://www.w3.org/1999/xlink"><defs /><path d="M525 656Q531 657 539.5 667.0Q548 677 556.0 689.0Q564 701 568.0 710.0Q572 719 569 719Q545 715 498.0 699.5Q451 684 395.0 651.0Q339 618 288 564Q255 529 232.5 481.5Q210 434 197.5 383.5Q185 333 181.5 288.5Q178 244 184 214Q185 210 192.0 216.5Q199 223 208.0 232.5Q217 242 223.5 250.5Q230 259 230 259Q232 295 240.5 340.0Q249 385 268.5 433.0Q288 481 326 527Q364 572 400.0 597.5Q436 623 468.0 635.5Q500 648 525 656Z" fill="#eceff1" stroke="none" transform="scale(1,-1) translate(0,-256)" /></svg>