<?xml version="1.0" encoding="utf-8" ?>
<svg baseProfile="full" height="256" version="1.1" width="256" xmlns="http://www.w3.org/2000/svg" xmlns:ev="http://www.w3.org/2001/xml-events" xmlns:xlink="http://www.w3.org/1999/xlink"><defs /><path d="M460 658Q461 659 465.5 671.0Q470 683 476 700Q485 724 506.5 740.0Q528 756 561 745Q593 733 597.5 709.5Q602 686 595 664Q590 645 584.0 631.0Q578 617 577 613Q575 608 570.5 604.5Q566 601 559 603Q546 606 507 619Q492 624 484.5 627.0Q477 630 462 636Q457 638 458.0 646.0Q459 654 460 658Z" fill="#ffb803" stroke="none" transform="scale(1,-1) translate(0,-256)" /><path d="M477 304Q477 304 476.0 294.0Q475 284 470.0 271.0Q465 258 456 250Q441 238 422.5 247.0Q404 256 396 273Q390 284 387.5 300.5Q385 317 384.5 330.0Q384 343 384 343Z" fill="#ffb803" stroke="none" transform="scale(1,-1) translate(0,-256)" /></svg>