<?xml version="1.0" encoding="utf-8" ?>
<svg baseProfile="full" height="256" version="1.1" width="256" xmlns="http://www.w3.org/2000/svg" xmlns:ev="http://www.w3.org/2001/xml-events" xmlns:xlink="http://www.w3.org/1999/xlink"><defs /><path d="M540 710Q566 700 558 669Q554 656 544.5 649.0Q535 642 521 644Q510 646 500.5 655.5Q491 665 494 682Q497 698 511.5 707.0Q526 716 540 710Z" fill="#ff8e00" stroke="none" transform="scale(1,-1) translate(0,-256)" /><path d="M422 248 384 339Q384 339 384.0 347.5Q384 356 384 358Q385 363 389.5 364.5Q394 366 398 366Q399 366 415.0 360.0Q431 354 451.0 346.5Q471 339 486.0 332.5Q501 326 503 325Q505 322 504.0 301.5Q503 281 488 258Q479 243 463.0 241.5Q447 240 434.5 244.0Q422 248 422 248Z" fill="#ff8e00" stroke="none" transform="scale(1,-1) translate(0,-256)" /></svg>