<?xml version="1.0" encoding="utf-8" ?>
<svg baseProfile="full" height="256" version="1.1" width="256" xmlns="http://www.w3.org/2000/svg" xmlns:ev="http://www.w3.org/2001/xml-events" xmlns:xlink="http://www.w3.org/1999/xlink"><defs /><path d="M880 -60Q880 -60 893.5 -55.5Q907 -51 924.5 -46.5Q942 -42 957.5 -39.5Q973 -37 978 -40Q987 -47 987.0 -60.0Q987 -73 974.5 -83.5Q962 -94 933 -93Q905 -92 894.0 -84.0Q883 -76 881.5 -68.0Q880 -60 880 -60Z" fill="#ec8816" stroke="none" transform="scale(1,-1) translate(0,-256)" /><path d="M991 -13Q993 -6 1001 -2Q1005 -1 1024.5 0.0Q1044 1 1064.0 1.0Q1084 1 1088 -1Q1090 -1 1094.0 -12.0Q1098 -23 1093 -33Q1090 -41 1078.0 -46.5Q1066 -52 1047 -52Q1012 -53 1000.5 -43.0Q989 -33 990.0 -23.0Q991 -13 991 -13Z" fill="#ec8816" stroke="none" transform="scale(1,-1) translate(0,-256)" /><path d="M847 -116Q847 -116 860.5 -114.5Q874 -113 892.5 -111.5Q911 -110 926.5 -109.5Q942 -109 944 -110Q947 -112 950.5 -120.5Q954 -129 952.0 -138.5Q950 -148 937.5 -155.5Q925 -163 897 -163Q863 -162 851.0 -153.0Q839 -144 839 -133Q839 -122 843.0 -119.0Q847 -116 847 -116Z" fill="#ec8816" stroke="none" transform="scale(1,-1) translate(0,-256)" /></svg>