<?xml version="1.0" encoding="utf-8" ?>
<svg baseProfile="full" height="256" version="1.1" width="256" xmlns="http://www.w3.org/2000/svg" xmlns:ev="http://www.w3.org/2001/xml-events" xmlns:xlink="http://www.w3.org/1999/xlink"><defs /><path d="M188 172H214L218 139Q218 139 207.5 134.0Q197 129 183.5 123.0Q170 117 163 115Q153 112 150.0 116.0Q147 120 147 120Q147 120 156.0 132.5Q165 145 175.0 158.0Q185 171 188 172Z" fill="#0868d4" stroke="none" transform="scale(1,-1) translate(0,-256)" /><path d="M654 522Q654 522 664.0 518.0Q674 514 684.5 510.5Q695 507 698 507Q703 507 711 516Q715 521 721.5 528.5Q728 536 728 536Q728 536 728.0 537.5Q728 539 726 540Q720 543 702 541Q694 541 682.5 537.5Q671 534 663 531Q655 527 654.5 524.5Q654 522 654 522Z" fill="#0868d4" stroke="none" transform="scale(1,-1) translate(0,-256)" /></svg>