<?xml version="1.0" encoding="utf-8" ?>
<svg baseProfile="full" height="256" version="1.1" width="256" xmlns="http://www.w3.org/2000/svg" xmlns:ev="http://www.w3.org/2001/xml-events" xmlns:xlink="http://www.w3.org/1999/xlink"><defs /><path d="M584 334Q587 343 601.5 345.5Q616 348 633 345Q650 343 663.5 334.5Q677 326 676 316Q675 310 665.5 307.0Q656 304 644.5 304.0Q633 304 628 305Q623 306 612.0 310.0Q601 314 591.5 320.5Q582 327 584 334Z" fill="#fcc219" stroke="none" transform="scale(1,-1) translate(0,-256)" /><path d="M364 422Q362 431 348.5 435.5Q335 440 321 439Q306 438 293.5 434.5Q281 431 280 422Q279 401 323 400Q347 400 356.0 408.0Q365 416 364 422Z" fill="#fcc219" stroke="none" transform="scale(1,-1) translate(0,-256)" /><path d="M371 403Q373 414 381 416Q389 418 400.0 415.0Q411 412 417 412Q423 412 432.0 416.0Q441 420 450.0 422.0Q459 424 465 417Q473 407 465.0 392.5Q457 378 428 374Q398 371 383.5 381.5Q369 392 371 403Z" fill="#fcc219" stroke="none" transform="scale(1,-1) translate(0,-256)" /><path d="M277 496Q281 507 296.5 509.0Q312 511 330 507Q353 502 362.0 490.0Q371 478 370 470Q370 462 356.5 456.0Q343 450 315 456Q287 462 279.5 474.0Q272 486 277 496Z" fill="#fcc219" stroke="none" transform="scale(1,-1) translate(0,-256)" /><path d="M333 524Q331 533 340.5 540.0Q350 547 364 550Q379 552 391.0 550.0Q403 548 406 539Q412 520 380 511Q362 506 348.5 511.0Q335 516 333 524Z" fill="#fcc219" stroke="none" transform="scale(1,-1) translate(0,-256)" /><path d="M406 576Q407 591 419.0 597.0Q431 603 446 605Q485 611 493 593Q497 586 492.0 574.0Q487 562 459 555Q431 549 418.5 557.0Q406 565 406 576Z" fill="#fcc219" stroke="none" transform="scale(1,-1) translate(0,-256)" /><path d="M473 541Q475 549 482.5 549.0Q490 549 495 552Q500 554 502.5 559.5Q505 565 514 563Q521 561 518.5 549.0Q516 537 501 530Q485 523 478.0 529.5Q471 536 473 541Z" fill="#fcc219" stroke="none" transform="scale(1,-1) translate(0,-256)" /><path d="M609 517Q603 514 588.5 515.5Q574 517 559.0 520.0Q544 523 537 525Q527 528 526.5 534.0Q526 540 527 543Q528 547 532.0 559.0Q536 571 540 577Q549 591 566 587Q574 586 587.0 583.5Q600 581 605 581Q612 580 619.5 579.0Q627 578 631 574Q634 571 633.0 563.0Q632 555 629 547Q627 539 622.5 530.0Q618 521 609 517Z" fill="#fcc219" stroke="none" transform="scale(1,-1) translate(0,-256)" /><path d="M517 501Q519 509 526.5 510.0Q534 511 540 510Q555 509 573.0 506.5Q591 504 595 503Q609 500 609 491Q609 486 609.0 476.5Q609 467 608 457Q606 446 600.0 445.0Q594 444 588 445Q584 445 570.5 447.0Q557 449 543.0 451.5Q529 454 523 454Q507 455 509 466Q509 469 511.5 480.5Q514 492 517 501Z" fill="#fcc219" stroke="none" transform="scale(1,-1) translate(0,-256)" /><path d="M453 366Q452 372 463.0 372.0Q474 372 480 375Q486 379 488.5 387.5Q491 396 492 399Q497 405 503 399Q505 396 508.0 381.0Q511 366 496 358Q480 349 467.0 355.0Q454 361 453 366Z" fill="#fcc219" stroke="none" transform="scale(1,-1) translate(0,-256)" /><path d="M525 362Q522 365 520.5 377.0Q519 389 518.0 401.5Q517 414 518 418Q519 433 528 433Q530 433 545.0 432.0Q560 431 575.5 430.0Q591 429 595 428Q602 426 602.5 420.5Q603 415 601 409Q600 405 593.5 394.5Q587 384 580.5 374.0Q574 364 571 361Q567 357 560.5 356.5Q554 356 547 356Q539 355 534.0 357.0Q529 359 525 362Z" fill="#fcc219" stroke="none" transform="scale(1,-1) translate(0,-256)" /><path d="M658 348Q653 348 642.5 352.0Q632 356 628 367Q620 386 626.5 409.5Q633 433 657 454Q681 475 709.5 478.0Q738 481 756 470Q773 459 777.0 451.5Q781 444 780 436Q780 429 773.0 424.5Q766 420 761 420Q756 420 740.0 421.5Q724 423 710 416Q680 399 679 374Q678 362 674.5 356.0Q671 350 658 348Z" fill="#fcc219" stroke="none" transform="scale(1,-1) translate(0,-256)" /><path d="M760 363Q766 358 760.0 346.5Q754 335 751.0 315.5Q748 296 762 267Q774 242 789.5 234.0Q805 226 821 229Q841 233 855.5 252.5Q870 272 870 302Q870 329 860.5 346.0Q851 363 841.5 371.5Q832 380 833 383Q834 387 845.0 387.0Q856 387 869 374Q882 362 890.0 341.0Q898 320 897 290Q897 275 889.5 255.0Q882 235 866.5 218.5Q851 202 826 198Q798 193 772.5 210.5Q747 228 735 260Q721 298 727.0 321.5Q733 345 745.0 355.5Q757 366 760 363Z" fill="#fcc219" stroke="none" transform="scale(1,-1) translate(0,-256)" /><path d="M424 -8Q403 -7 389.5 0.5Q376 8 376 15Q376 23 390.5 28.0Q405 33 423 33Q437 33 455.5 27.5Q474 22 474 10Q474 -2 456.5 -5.5Q439 -9 424 -8Z" fill="#fcc219" stroke="none" transform="scale(1,-1) translate(0,-256)" /><path d="M447 -73Q432 -74 415.0 -65.0Q398 -56 398 -42Q398 -32 407.0 -28.5Q416 -25 427.5 -24.0Q439 -23 446 -22Q453 -21 465.5 -23.5Q478 -26 488.0 -31.0Q498 -36 498 -44Q498 -55 486.0 -63.0Q474 -71 447 -73Z" fill="#fcc219" stroke="none" transform="scale(1,-1) translate(0,-256)" /><path d="M272 0Q257 1 241.0 5.5Q225 10 226 27Q227 43 245.0 46.5Q263 50 272 50Q282 50 299.0 47.5Q316 45 320 28Q323 14 306.5 7.0Q290 0 272 0Z" fill="#fcc219" stroke="none" transform="scale(1,-1) translate(0,-256)" /><path d="M949 -69Q911 -77 895.5 -68.5Q880 -60 880 -60Q880 -60 882.5 -52.5Q885 -45 894.0 -37.0Q903 -29 923 -27Q954 -23 966.0 -31.5Q978 -40 978 -40Q978 -40 978.5 -45.5Q979 -51 973.0 -58.0Q967 -65 949 -69Z" fill="#fcc219" stroke="none" transform="scale(1,-1) translate(0,-256)" /><path d="M1043 -34Q1029 -35 1009.5 -30.0Q990 -25 992 -12Q993 1 1012.0 7.0Q1031 13 1043 13Q1056 13 1073.0 8.5Q1090 4 1092 -7Q1097 -31 1043 -34Z" fill="#fcc219" stroke="none" transform="scale(1,-1) translate(0,-256)" /><path d="M896 -141Q877 -141 859.0 -135.5Q841 -130 842 -121Q843 -111 859.0 -104.5Q875 -98 895 -98Q916 -98 932.5 -103.5Q949 -109 949 -119Q949 -141 896 -141Z" fill="#fcc219" stroke="none" transform="scale(1,-1) translate(0,-256)" /></svg>