<?xml version="1.0" encoding="utf-8" ?>
<svg baseProfile="full" height="256" version="1.1" width="256" xmlns="http://www.w3.org/2000/svg" xmlns:ev="http://www.w3.org/2001/xml-events" xmlns:xlink="http://www.w3.org/1999/xlink"><defs /><path d="M531 894 553 871 399 731 348 761 416 859 484 898Q484 898 493.0 901.0Q502 904 512.0 906.0Q522 908 525 906Q530 903 530.5 898.5Q531 894 531 894Z" fill="#464c4f" stroke="none" transform="scale(1,-1) translate(0,-256)" /><path d="M706 861 633 818 566 719 586 694Q586 694 593.5 711.0Q601 728 614.5 751.5Q628 775 645 795Q662 815 684.0 826.0Q706 837 722.5 841.5Q739 846 740 847Q741 850 734.5 853.0Q728 856 728 856Z" fill="#464c4f" stroke="none" transform="scale(1,-1) translate(0,-256)" /><path d="M689 -111 686 255 681 268Q681 268 706.0 276.5Q731 285 770.5 298.5Q810 312 854.0 327.5Q898 343 937.5 357.5Q977 372 1002.5 381.5Q1028 391 1028 393Q1028 395 1007.5 407.5Q987 420 954.5 439.0Q922 458 886.0 478.5Q850 499 818.0 517.0Q786 535 765.5 546.5Q745 558 745 558Q745 558 752.5 576.0Q760 594 769 618Q774 633 791.5 658.5Q809 684 835.5 709.5Q862 735 895.5 752.0Q929 769 967.5 768.0Q1006 767 1047 739Q1084 714 1097.5 676.0Q1111 638 1110.0 597.5Q1109 557 1100.5 521.0Q1092 485 1083.5 462.5Q1075 440 1075 440Q1075 440 1073.5 429.0Q1072 418 1066 407Q1060 396 1054.0 389.5Q1048 383 1048 383L1014 40Q1014 40 1003.0 32.5Q992 25 982 19Q960 6 950 6Q945 6 945.0 12.0Q945 18 945 18L743 -77Q743 -77 743.5 -81.5Q744 -86 743 -88Q741 -89 728.0 -94.5Q715 -100 702.0 -105.5Q689 -111 689 -111Z" fill="#464c4f" stroke="none" transform="scale(1,-1) translate(0,-256)" /></svg>