<?xml version="1.0" encoding="utf-8" ?>
<svg baseProfile="full" height="256" version="1.1" width="256" xmlns="http://www.w3.org/2000/svg" xmlns:ev="http://www.w3.org/2001/xml-events" xmlns:xlink="http://www.w3.org/1999/xlink"><defs /><path d="M929 419 938 400Q938 400 953.0 395.5Q968 391 984 395Q1001 399 1002.0 405.5Q1003 412 1003 412L985 422Q985 422 980.5 420.0Q976 418 969 418Q962 418 959.0 420.0Q956 422 943 424Q930 427 929.5 423.0Q929 419 929 419Z" fill="#ffa826" stroke="none" transform="scale(1,-1) translate(0,-256)" /><path d="M822 458Q836 454 834.0 436.0Q832 418 820 410Q808 401 793.0 402.0Q778 403 777 411Q776 419 786.5 421.0Q797 423 803 428Q810 433 813.5 446.0Q817 459 822 458Z" fill="#ffa826" stroke="none" transform="scale(1,-1) translate(0,-256)" /><path d="M715 394Q723 398 736.5 400.0Q750 402 755 393Q759 384 751.0 379.0Q743 374 732 366Q722 358 710.0 357.0Q698 356 695 362Q691 369 698.0 378.5Q705 388 715 394Z" fill="#ffa826" stroke="none" transform="scale(1,-1) translate(0,-256)" /><path d="M701 345Q706 346 712.5 350.0Q719 354 726 351Q733 347 724.5 333.5Q716 320 701 318Q686 316 680.0 328.0Q674 340 678 344Q681 349 688.5 347.0Q696 345 701 345Z" fill="#ffa826" stroke="none" transform="scale(1,-1) translate(0,-256)" /><path d="M267 412Q267 412 264.0 417.5Q261 423 262 433Q263 446 269.5 450.5Q276 455 276 455Q276 455 269.5 466.0Q263 477 275 495Q283 508 296.0 513.5Q309 519 320.0 520.5Q331 522 331 522Q331 522 331.5 525.5Q332 529 337 533Q341 537 354.5 542.5Q368 548 371 550Q375 552 385.5 552.5Q396 553 396 553Q396 553 396.0 558.5Q396 564 399 573Q403 582 410.5 588.0Q418 594 418 594Q418 594 433.5 595.0Q449 596 466.0 596.0Q483 596 488 593Q496 587 497.5 581.0Q499 575 499 575Q499 575 502.0 575.0Q505 575 514 573Q523 571 529.0 569.0Q535 567 535 567L538 527Q538 527 533.0 527.5Q528 528 524 523Q521 517 526.0 514.0Q531 511 531 511L591 463Q591 463 585.5 455.0Q580 447 572 447Q563 447 544.5 447.5Q526 448 520 448Q510 448 510 441Q510 433 516 433Q518 433 523.5 432.5Q529 432 529 432V361Q529 361 534.5 356.0Q540 351 548 347Q562 340 580 346Q589 349 598.5 365.5Q608 382 616 399Q624 416 623.0 424.0Q622 432 622 432Q622 432 627.0 440.0Q632 448 635 459Q638 470 632.5 483.0Q627 496 627 496L638 507Q638 507 641.5 497.0Q645 487 653 478Q662 468 670.0 467.0Q678 466 678 466L638 357Q638 357 634.5 358.5Q631 360 627 357Q624 353 630.5 349.0Q637 345 637 345L678 317Q678 317 678.0 311.0Q678 305 673 301Q669 297 658.0 292.5Q647 288 623 295Q600 301 589.0 312.0Q578 323 578 323Q578 323 571.5 323.5Q565 324 557 327Q548 329 542.0 335.5Q536 342 536 342Q536 342 515.5 339.5Q495 337 473 344Q452 352 444.5 361.5Q437 371 437 371Q437 371 421.0 369.5Q405 368 398 369Q394 369 381.5 373.0Q369 377 353.0 383.0Q337 389 324.0 394.5Q311 400 308 402Q300 405 283.5 408.5Q267 412 267 412Z" fill="#ffa826" stroke="none" transform="scale(1,-1) translate(0,-256)" /><path d="M655 362Q650 362 650 378Q650 384 655.0 399.5Q660 415 676 433Q694 451 714.5 453.0Q735 455 742 454Q748 453 753.0 451.0Q758 449 758 444Q758 438 752.0 438.0Q746 438 742 439Q737 439 721.5 438.5Q706 438 692 426Q676 413 670.5 396.0Q665 379 664 374Q661 362 655 362Z" fill="#ffa826" stroke="none" transform="scale(1,-1) translate(0,-256)" /><path d="M379 21 471 17Q471 17 474.0 14.5Q477 12 475 -1Q474 -10 462.5 -18.0Q451 -26 423 -25Q395 -24 385.0 -14.0Q375 -4 375 5Q375 14 377.0 17.5Q379 21 379 21Z" fill="#ffa826" stroke="none" transform="scale(1,-1) translate(0,-256)" /><path d="M401 -33 496 -36Q496 -36 500.5 -42.0Q505 -48 504 -62Q503 -93 445 -93Q423 -93 408.5 -83.0Q394 -73 393 -60Q391 -47 396.0 -40.0Q401 -33 401 -33Z" fill="#ffa826" stroke="none" transform="scale(1,-1) translate(0,-256)" /><path d="M231 37 315 35Q315 35 320.0 29.0Q325 23 324 10Q324 1 312.5 -7.5Q301 -16 275 -17Q248 -19 234.5 -8.0Q221 3 222 14Q223 26 227.0 31.5Q231 37 231 37Z" fill="#ffa826" stroke="none" transform="scale(1,-1) translate(0,-256)" /></svg>