<?xml version="1.0" encoding="utf-8" ?>
<svg baseProfile="full" height="256" version="1.1" width="256" xmlns="http://www.w3.org/2000/svg" xmlns:ev="http://www.w3.org/2001/xml-events" xmlns:xlink="http://www.w3.org/1999/xlink"><defs /><path d="M150 205 187 209Q187 209 192.0 208.0Q197 207 203 204Q213 198 219.0 189.5Q225 181 225 181L203 143Q203 143 190.0 137.0Q177 131 163.5 125.5Q150 120 147 121Q144 123 145.0 141.0Q146 159 147 177Q149 194 149.5 199.5Q150 205 150 205Z" fill="#1f87fd" stroke="none" transform="scale(1,-1) translate(0,-256)" /><path d="M654 522 728 538Q728 538 731.0 530.5Q734 523 735 516Q737 507 739.0 496.0Q741 485 741 483Q740 481 730.0 477.0Q720 473 706.5 469.0Q693 465 683.0 462.5Q673 460 673 460L655 515Z" fill="#1f87fd" stroke="none" transform="scale(1,-1) translate(0,-256)" /></svg>