<?xml version="1.0" encoding="utf-8" ?>
<svg baseProfile="full" height="256" version="1.1" width="256" xmlns="http://www.w3.org/2000/svg" xmlns:ev="http://www.w3.org/2001/xml-events" xmlns:xlink="http://www.w3.org/1999/xlink"><defs /><path d="M453 508Q453 512 461.5 523.5Q470 535 470 535Q470 535 471.0 534.5Q472 534 473 532Q475 530 476.5 517.0Q478 504 478.5 490.5Q479 477 478 475Q477 472 472.5 471.5Q468 471 468 471Q468 471 464.0 479.5Q460 488 456.5 497.0Q453 506 453 508Z" fill="#d3100a" stroke="none" transform="scale(1,-1) translate(0,-256)" /><path d="M795 475Q798 477 808.0 475.5Q818 474 818 474Q818 474 818.5 471.0Q819 468 818 466Q816 465 803.0 456.5Q790 448 788 447Q784 444 781.0 445.0Q778 446 778 446L775 444Q775 444 775.5 448.0Q776 452 777 453Q778 455 785.5 464.0Q793 473 795 475Z" fill="#d3100a" stroke="none" transform="scale(1,-1) translate(0,-256)" /></svg>