<?xml version="1.0" encoding="utf-8" ?>
<svg baseProfile="full" height="256" version="1.1" width="256" xmlns="http://www.w3.org/2000/svg" xmlns:ev="http://www.w3.org/2001/xml-events" xmlns:xlink="http://www.w3.org/1999/xlink"><defs /><path d="M868 429Q868 429 864.5 433.0Q861 437 856 438Q848 438 844.0 433.0Q840 428 840 425Q840 420 843.0 414.0Q846 408 855 408Q864 407 867.0 413.0Q870 419 870 419Q870 419 874.0 413.0Q878 407 888 407Q893 407 899.0 409.5Q905 412 908 419Q910 424 907.0 433.5Q904 443 890 445Q876 446 872.0 437.5Q868 429 868 429Z" fill="#feeac8" stroke="none" transform="scale(1,-1) translate(0,-256)" /><path d="M943 414Q949 405 946.0 397.0Q943 389 938 384Q934 380 925.5 380.0Q917 380 910 388Q905 395 906.5 404.0Q908 413 914 418Q922 424 930.5 421.5Q939 419 943 414Z" fill="#feeac8" stroke="none" transform="scale(1,-1) translate(0,-256)" /><path d="M937 385Q943 389 951.5 386.5Q960 384 964 378Q967 371 965.0 363.0Q963 355 957 352Q949 348 941.5 350.5Q934 353 931 359Q923 376 937 385Z" fill="#feeac8" stroke="none" transform="scale(1,-1) translate(0,-256)" /><path d="M947 346Q955 347 963.0 341.5Q971 336 970 327Q970 313 963.5 310.0Q957 307 957 307Q957 307 963.5 302.5Q970 298 968 286Q967 275 959.0 271.5Q951 268 951 268Q951 268 956.0 264.5Q961 261 960 249Q959 235 949.0 233.5Q939 232 939 232Q939 232 945.5 228.5Q952 225 952 211Q952 201 945.5 197.5Q939 194 933.0 194.0Q927 194 927 194Q927 194 932.0 185.5Q937 177 930 165Q922 153 910.5 155.5Q899 158 899 158Q899 158 898.5 151.5Q898 145 893.0 138.5Q888 132 876 132Q863 132 858.5 139.0Q854 146 854.0 152.5Q854 159 854 159Q854 159 846.0 155.5Q838 152 828 160Q817 170 821.0 180.5Q825 191 825 191Q825 191 817.5 190.5Q810 190 805 201Q800 212 804.5 220.5Q809 229 809 229Q809 229 802.0 231.0Q795 233 793 244Q791 257 797.5 263.0Q804 269 804 269Q804 269 796.5 272.0Q789 275 788 288Q786 301 792.5 307.0Q799 313 799 313Q799 313 791.5 316.5Q784 320 783 330Q781 342 786.5 348.5Q792 355 792 355Q792 355 784.5 358.0Q777 361 775 371Q774 391 791 394Q794 395 802.5 394.0Q811 393 816 383Q820 372 815.5 365.0Q811 358 811 358Q811 358 819.5 355.0Q828 352 832 340Q834 327 827.0 320.0Q820 313 820 313Q820 313 827.5 308.5Q835 304 835 292Q837 278 828.5 273.0Q820 268 820 268Q820 268 827.0 265.5Q834 263 837 253Q841 242 837.0 237.0Q833 232 833 232Q833 232 838.5 228.5Q844 225 846 215Q848 204 842.5 199.0Q837 194 837 194Q837 194 842.5 194.5Q848 195 855 190Q861 185 862.0 178.5Q863 172 863 172Q863 172 867.0 175.0Q871 178 878 178Q885 178 889.0 174.0Q893 170 893 170Q893 170 891.5 177.0Q890 184 895 191Q901 199 910.0 198.0Q919 197 919 197Q919 197 913.0 204.0Q907 211 912 223Q916 231 923.5 232.5Q931 234 931 234Q931 234 925.0 238.0Q919 242 921 253Q922 265 930.0 267.5Q938 270 938 270Q938 270 932.5 274.0Q927 278 928 288Q929 297 934.0 301.5Q939 306 939 306Q939 306 934.0 309.5Q929 313 928 323Q927 333 932.5 339.5Q938 346 947 346Z" fill="#feeac8" stroke="none" transform="scale(1,-1) translate(0,-256)" /></svg>