<?xml version="1.0" encoding="utf-8" ?>
<svg baseProfile="full" height="256" version="1.1" width="256" xmlns="http://www.w3.org/2000/svg" xmlns:ev="http://www.w3.org/2001/xml-events" xmlns:xlink="http://www.w3.org/1999/xlink"><defs /><path d="M400 474Q406 474 420.5 472.0Q435 470 438 455Q440 441 428.0 432.0Q416 423 407 421Q398 419 384.0 423.5Q370 428 368 443Q365 458 376.5 465.0Q388 472 400 474Z" fill="#02ab47" stroke="none" transform="scale(1,-1) translate(0,-256)" /><path d="M534 -18Q534 -18 545.0 -19.0Q556 -20 578 -26Q595 -30 609.0 -36.0Q623 -42 623 -42Q623 -42 621.0 -52.0Q619 -62 617.0 -75.5Q615 -89 612.5 -100.0Q610 -111 608 -111Q603 -113 584.5 -109.5Q566 -106 556 -104Q536 -99 526.0 -94.5Q516 -90 516 -90Z" fill="#02ab47" stroke="none" transform="scale(1,-1) translate(0,-256)" /></svg>