<?xml version="1.0" encoding="utf-8" ?>
<svg baseProfile="full" height="256" version="1.1" width="256" xmlns="http://www.w3.org/2000/svg" xmlns:ev="http://www.w3.org/2001/xml-events" xmlns:xlink="http://www.w3.org/1999/xlink"><defs /><path d="M867 294Q783 284 715.0 248.0Q647 212 608.0 146.5Q569 81 571 -16Q571 -28 583.5 -27.5Q596 -27 596 -15Q598 19 610.5 60.0Q623 101 652.0 140.5Q681 180 732.0 211.5Q783 243 863 259Q870 246 886.5 247.5Q903 249 910 258Q942 298 972.5 330.0Q1003 362 1038.0 381.0Q1073 400 1118 400Q1143 400 1157.0 379.5Q1171 359 1154 331Q1154 331 1146.5 319.5Q1139 308 1134 301Q1133 299 1139.5 300.5Q1146 302 1154 305Q1159 306 1162 307Q1178 325 1183 337Q1194 360 1183.0 386.0Q1172 412 1145 419Q1102 431 1063.5 418.5Q1025 406 992.0 380.0Q959 354 934.0 327.0Q909 300 895 283L894 282Q893 279 890.5 280.0Q888 281 887 283Q885 296 883 310Z" fill="#faa700" stroke="none" transform="scale(1,-1) translate(0,-256)" /><path d="M704 445Q716 443 727.0 446.5Q738 450 741 463Q742 468 748.5 495.5Q755 523 765.5 563.5Q776 604 787.0 649.5Q798 695 808.5 736.5Q819 778 826.5 806.5Q834 835 835 841Q841 864 856.5 874.0Q872 884 888.5 880.5Q905 877 914 861Q918 854 923.5 854.5Q929 855 934 859Q929 882 913.0 893.5Q897 905 877.0 905.0Q857 905 840.0 894.5Q823 884 817 864Q814 855 806.0 825.5Q798 796 787.5 754.5Q777 713 765.5 668.5Q754 624 744.0 584.5Q734 545 727.5 519.0Q721 493 721 490Q718 496 716 502Q710 476 707.0 460.5Q704 445 704 445Z" fill="#faa700" stroke="none" transform="scale(1,-1) translate(0,-256)" /><path d="M574 -196Q479 -183 420.0 -142.5Q361 -102 329.0 -46.5Q297 9 284 66Q270 131 264.5 185.0Q259 239 255.5 285.5Q252 332 242 373Q240 382 234.0 412.5Q228 443 220.5 483.5Q213 524 206.0 565.5Q199 607 194.0 638.5Q189 670 189 681Q189 696 202.5 705.5Q216 715 232.0 713.0Q248 711 257 691Q261 682 267.5 680.5Q274 679 279 683Q274 697 272 702Q263 722 244.5 728.5Q226 735 206.0 730.0Q186 725 172.5 710.0Q159 695 161 671Q163 653 169.0 618.0Q175 583 182.0 544.0Q189 505 195.5 472.0Q202 439 204 425Q216 367 221.5 325.5Q227 284 230.0 252.0Q233 220 235.5 191.0Q238 162 243.5 129.0Q249 96 261 53Q286 -44 336.0 -100.5Q386 -157 448.0 -181.5Q510 -206 574 -207Z" fill="#faa700" stroke="none" transform="scale(1,-1) translate(0,-256)" /><path d="M695 498 707 517Q694 537 676.5 547.5Q659 558 641 561Q613 566 588.5 556.5Q564 547 549 523Q541 537 523.0 549.0Q505 561 477 562Q439 563 409.0 539.5Q379 516 363 442Q362 445 350 481Q352 460 355.5 432.0Q359 404 360 396Q361 388 368.5 387.5Q376 387 383.0 391.0Q390 395 389 402Q389 408 389.5 424.5Q390 441 393.0 460.0Q396 479 403 492Q421 523 443.0 532.5Q465 542 485.5 538.0Q506 534 520.5 522.0Q535 510 538 498Q540 494 546.5 492.0Q553 490 559 498Q577 527 598.5 535.0Q620 543 640.0 538.0Q660 533 675.0 521.0Q690 509 695 498Z" fill="#faa700" stroke="none" transform="scale(1,-1) translate(0,-256)" /><path d="M710 359Q711 337 697.5 323.0Q684 309 664.0 303.0Q644 297 624.0 301.5Q604 306 590.0 321.5Q576 337 577 364Q577 375 566.5 374.0Q556 373 557 364Q558 333 540.0 317.5Q522 302 497.0 299.0Q472 296 451.0 302.0Q430 308 425 319Q414 344 407.5 346.0Q401 348 398 346Q397 345 397 345Q395 345 395.0 330.0Q395 315 398.5 293.0Q402 271 411.5 249.5Q421 228 438.0 213.5Q455 199 482 199Q510 199 526.0 212.5Q542 226 549.0 239.5Q556 253 556 253Q556 253 560.5 240.0Q565 227 579.0 214.5Q593 202 622 205Q655 207 675.5 224.0Q696 241 706.0 264.5Q716 288 719.5 311.5Q723 335 723 351Q723 364 720.0 365.0Q717 366 713.5 362.5Q710 359 710 359Z" fill="#faa700" stroke="none" transform="scale(1,-1) translate(0,-256)" /></svg>