<?xml version="1.0" encoding="utf-8" ?>
<svg baseProfile="full" height="256" version="1.1" width="256" xmlns="http://www.w3.org/2000/svg" xmlns:ev="http://www.w3.org/2001/xml-events" xmlns:xlink="http://www.w3.org/1999/xlink"><defs /><path d="M887 283Q877 337 881.0 407.0Q885 477 896.0 553.5Q907 630 918.5 703.5Q930 777 935 838Q937 869 922.0 885.5Q907 902 885.0 904.5Q863 907 843.5 897.0Q824 887 817 864Q814 855 806.0 825.5Q798 796 787.5 754.5Q777 713 765.5 668.5Q754 624 744.0 584.5Q734 545 727.5 519.0Q721 493 721 490Q708 523 686.5 540.0Q665 557 641 561Q613 566 588.5 556.5Q564 547 549 523Q541 537 523.0 549.0Q505 561 477 562Q439 563 409.0 539.5Q379 516 363 442Q362 445 353.5 469.5Q345 494 332.5 530.0Q320 566 307.5 602.0Q295 638 285.0 666.0Q275 694 272 702Q263 722 244.5 728.5Q226 735 206.0 730.0Q186 725 172.5 710.0Q159 695 161 671Q163 653 169.0 618.0Q175 583 182.0 544.0Q189 505 195.5 472.0Q202 439 204 425Q216 367 221.5 325.5Q227 284 230.0 252.0Q233 220 235.5 191.0Q238 162 243.5 129.0Q249 96 261 53Q283 -32 323.5 -85.5Q364 -139 416.0 -167.0Q468 -195 524.0 -202.5Q580 -210 633.5 -202.5Q687 -195 730 -178Q774 -160 810.5 -129.0Q847 -98 875.5 -61.0Q904 -24 924.5 10.0Q945 44 957.0 68.0Q969 92 972 97Q996 137 1028.0 173.0Q1060 209 1092.5 239.0Q1125 269 1150.0 294.0Q1175 319 1183 337Q1194 360 1183.0 386.0Q1172 412 1145 419Q1102 431 1063.0 418.0Q1024 405 991.0 379.0Q958 353 933.0 325.5Q908 298 894 282Q893 279 890.5 280.0Q888 281 887 283Z" fill="#ffca28" stroke="none" transform="scale(1,-1) translate(0,-256)" /></svg>