<?xml version="1.0" encoding="utf-8" ?>
<svg baseProfile="full" height="256" version="1.1" width="256" xmlns="http://www.w3.org/2000/svg" xmlns:ev="http://www.w3.org/2001/xml-events" xmlns:xlink="http://www.w3.org/1999/xlink"><defs /><path d="M582 374Q589 365 570.0 358.5Q551 352 521.0 340.0Q491 328 463 303Q432 275 414.5 247.5Q397 220 387.0 202.5Q377 185 369 187Q363 188 366.0 208.5Q369 229 386.0 258.5Q403 288 438 319Q474 349 505.5 362.5Q537 376 558.0 377.0Q579 378 582 374Z" fill="#fefffa" stroke="none" transform="scale(1,-1) translate(0,-256)" /><path d="M861.218994140625 127.375Q870.218994140625 128.375 873.218994140625 107.375Q876.218994140625 86.375 870.718994140625 52.875Q865.218994140625 19.375 847.218994140625 -15.625Q828.218994140625 -54.625 799.218994140625 -82.125Q770.218994140625 -109.625 746.718994140625 -121.125Q723.218994140625 -132.625 719.218994140625 -122.625Q716.218994140625 -115.625 729.718994140625 -104.125Q743.218994140625 -92.625 765.218994140625 -72.125Q787.218994140625 -51.625 810.218994140625 -18.625Q829.218994140625 9.375 837.218994140625 35.375Q845.218994140625 61.375 847.218994140625 81.875Q849.218994140625 102.375 851.218994140625 114.375Q853.218994140625 126.375 861.218994140625 127.375Z" fill="#fefffa" stroke="none" transform="scale(1,-1) translate(0,-256)" /></svg>