<?xml version="1.0" encoding="utf-8" ?>
<svg baseProfile="full" height="256" version="1.1" width="256" xmlns="http://www.w3.org/2000/svg" xmlns:ev="http://www.w3.org/2001/xml-events" xmlns:xlink="http://www.w3.org/1999/xlink"><defs /><path d="M642 473Q643 439 644.5 425.5Q646 412 646 412L711 326Q711 326 734.0 299.5Q757 273 794.5 229.5Q832 186 877.0 134.0Q922 82 967.0 29.5Q1012 -23 1050.0 -67.5Q1088 -112 1111.5 -139.5Q1135 -167 1136 -169Q1138 -174 1130.5 -182.5Q1123 -191 1113.0 -199.0Q1103 -207 1095 -211Q1087 -216 1063.0 -214.5Q1039 -213 1020 -192Q1010 -182 983.0 -152.5Q956 -123 921.0 -83.5Q886 -44 850.0 -3.0Q814 38 785 71Q757 104 723.0 146.5Q689 189 654.5 231.5Q620 274 590.0 306.0Q560 338 539 350Q520 361 495.0 363.5Q470 366 439.5 368.0Q409 370 374.0 378.5Q339 387 300.5 409.0Q262 431 221 475Q191 507 166.5 552.5Q142 598 126.5 649.0Q111 700 107.5 749.0Q104 798 116.5 838.0Q129 878 160 902Q188 923 230.5 924.0Q273 925 323.0 909.5Q373 894 423.0 866.5Q473 839 515.0 802.5Q557 766 584 725Q611 683 623.0 641.5Q635 600 638.0 558.5Q641 517 642 473Z" fill="#9d9d9d" stroke="none" transform="scale(1,-1) translate(0,-256)" /></svg>