<?xml version="1.0" encoding="utf-8" ?>
<svg baseProfile="full" height="256" version="1.1" width="256" xmlns="http://www.w3.org/2000/svg" xmlns:ev="http://www.w3.org/2001/xml-events" xmlns:xlink="http://www.w3.org/1999/xlink"><defs /><path d="M1098 750Q1106 750 1111.5 755.5Q1117 761 1117 769Q1117 776 1111.5 781.5Q1106 787 1098 787H169Q161 787 155.5 781.5Q150 776 150 769Q150 761 155.5 755.5Q161 750 169 750Z" fill="#c8c8c8" stroke="none" transform="scale(1,-1) translate(0,-256)" /><path d="M170 566Q170 566 170.0 566.0Q170 566 170 566L1101 568Q1109 568 1114.5 573.5Q1120 579 1120 586Q1120 594 1114.5 599.5Q1109 605 1101 605Q1101 605 1101.0 605.0Q1101 605 1101 605L170 604Q162 604 156.5 598.5Q151 593 151 585Q151 577 156.5 571.5Q162 566 170 566Z" fill="#c8c8c8" stroke="none" transform="scale(1,-1) translate(0,-256)" /><path d="M858.3329620361328 609.6827545166016 881.4620208740234 586.5536956787109 1051.5036010742188 756.5952758789062 1028.3745422363281 779.7243347167969Z" fill="#c8c8c8" stroke="none" transform="scale(1,-1) translate(0,-256)" /><path d="M227.6634063720703 751.5136108398438 397.2843475341797 581.8926696777344 420.4671936035156 605.0755157470703 250.84625244140625 774.6964569091797Z" fill="#c8c8c8" stroke="none" transform="scale(1,-1) translate(0,-256)" /></svg>