<?xml version="1.0" encoding="utf-8" ?>
<svg baseProfile="full" height="256" version="1.1" width="256" xmlns="http://www.w3.org/2000/svg" xmlns:ev="http://www.w3.org/2001/xml-events" xmlns:xlink="http://www.w3.org/1999/xlink"><defs /><path d="M692 711Q692 711 706.5 711.0Q721 711 742.0 711.0Q763 711 784.0 711.0Q805 711 819.0 710.5Q833 710 833 710V792H693Z" fill="#85d59e" stroke="none" transform="scale(1,-1) translate(0,-256)" /><path d="M460 753Q460 780 477.0 794.5Q494 809 516 809Q533 809 551.5 794.5Q570 780 570 754Q570 729 554.0 714.0Q538 699 516 699Q494 699 477.0 713.5Q460 728 460 753Z" fill="#85d59e" stroke="none" transform="scale(1,-1) translate(0,-256)" /></svg>