<?xml version="1.0" encoding="utf-8" ?>
<svg baseProfile="full" height="256" version="1.1" width="256" xmlns="http://www.w3.org/2000/svg" xmlns:ev="http://www.w3.org/2001/xml-events" xmlns:xlink="http://www.w3.org/1999/xlink"><defs /><path d="M310 -92Q310 -66 327.0 -47.5Q344 -29 371 -28Q399 -28 417.5 -45.0Q436 -62 437 -88Q438 -114 422.0 -134.0Q406 -154 374 -154Q341 -153 325.5 -132.0Q310 -111 310 -92Z" fill="#c8c8c8" stroke="none" transform="scale(1,-1) translate(0,-256)" /><path d="M975.1181640625 -93.28169250488281Q975.2351989746094 -119.28446960449219 958.3166580200195 -137.86296844482422Q941.3981170654297 -156.44146728515625 914.3997344970703 -157.5631103515625Q886.3967437744141 -157.68914794921875 867.818244934082 -140.7706069946289Q849.23974609375 -123.85206604003906 848.1226043701172 -97.85379028320312Q847.0054626464844 -71.85551452636719 862.9171447753906 -51.78135681152344Q878.8288269042969 -31.707199096679688 910.8322448730469 -31.563156127929688Q943.8402709960938 -32.41471862792969 959.4364547729492 -53.347190856933594Q975.0326385498047 -74.2796630859375 975.1181640625 -93.28169250488281Z" fill="#c8c8c8" stroke="none" transform="scale(1,-1) translate(0,-256)" /></svg>