<?xml version="1.0" encoding="utf-8" ?>
<svg baseProfile="full" height="256" version="1.1" width="256" xmlns="http://www.w3.org/2000/svg" xmlns:ev="http://www.w3.org/2001/xml-events" xmlns:xlink="http://www.w3.org/1999/xlink"><defs /><path d="M251.45941162109375 -94.80577087402344Q250.3971405029297 -45.5213623046875 283.08126068115234 -10.171348571777344Q315.765380859375 25.178665161132812 367.1925811767578 26.24053955078125Q422.9053649902344 27.301620483398438 458.25567626953125 -3.7754058837890625Q493.6059875488281 -34.85243225097656 494.6682586669922 -84.1368408203125Q496.8050994873047 -116.27911376953125 482.87149810791016 -145.73992156982422Q468.9378967285156 -175.2007293701172 441.07823181152344 -193.4093017578125Q413.21856689453125 -211.6178741455078 372.5055236816406 -211.61033630371094Q330.72108459472656 -211.60260009765625 303.93975830078125 -192.31251525878906Q277.15843200683594 -173.02243041992188 264.3067398071289 -145.69945526123047Q251.45504760742188 -118.37648010253906 251.45941162109375 -94.80577087402344Z" fill="#4e433d" stroke="none" transform="scale(1,-1) translate(0,-256)" /><path d="M1033.6546630859375 -90.20011901855469Q1034.9328308105469 -139.46649169921875 1002.4126434326172 -174.95027923583984Q969.8924560546875 -210.43406677246094 918.4838714599609 -211.7212371826172Q862.7908630371094 -213.0264129638672 827.3138275146484 -182.11288452148438Q791.8367919921875 -151.19935607910156 790.5586242675781 -101.9329833984375Q788.2813720703125 -69.80880737304688 802.0819625854492 -40.29487609863281Q815.8825531005859 -10.78094482421875 843.65478515625 7.544891357421875Q871.4270172119141 25.8707275390625 912.1290435791016 26.041778564453125Q953.9021759033203 26.217330932617188 980.7608489990234 7.049957275390625Q1007.6195220947266 -12.117416381835938 1020.5875778198242 -39.37660217285156Q1033.5556335449219 -66.63578796386719 1033.6546630859375 -90.20011901855469Z" fill="#4e433d" stroke="none" transform="scale(1,-1) translate(0,-256)" /></svg>