<?xml version="1.0" encoding="utf-8" ?>
<svg baseProfile="full" height="256" version="1.1" width="256" xmlns="http://www.w3.org/2000/svg" xmlns:ev="http://www.w3.org/2001/xml-events" xmlns:xlink="http://www.w3.org/1999/xlink"><defs /><path d="M274 458Q278 459 292.5 459.0Q307 459 321.5 459.0Q336 459 340 459Q354 459 357.0 451.5Q360 444 359 439Q359 436 359.0 415.5Q359 395 359.5 365.5Q360 336 360.0 306.5Q360 277 360.0 255.5Q360 234 360 231Q359 212 348 211Q340 210 321.5 210.0Q303 210 282 211Q270 211 267.0 216.5Q264 222 263 226Q263 228 263.0 248.5Q263 269 263.0 299.0Q263 329 263.0 359.5Q263 390 263.0 412.0Q263 434 263 438Q263 455 274 458Z" fill="#b0e2fd" stroke="none" transform="scale(1,-1) translate(0,-256)" /><path d="M192 425Q193 425 193.0 408.0Q193 391 192.0 365.0Q191 339 190 311Q189 272 189.5 241.0Q190 210 186 207Q184 206 175.0 205.5Q166 205 155 205Q144 205 134.5 205.0Q125 205 123 206Q122 207 122.5 216.5Q123 226 123 228Q123 229 129.5 249.5Q136 270 146.0 299.0Q156 328 166.0 357.0Q176 386 183.0 406.0Q190 426 192 425Z" fill="#b0e2fd" stroke="none" transform="scale(1,-1) translate(0,-256)" /></svg>