<?xml version="1.0" encoding="utf-8" ?>
<svg baseProfile="full" height="256" version="1.1" width="256" xmlns="http://www.w3.org/2000/svg" xmlns:ev="http://www.w3.org/2001/xml-events" xmlns:xlink="http://www.w3.org/1999/xlink"><defs /><path d="M680 62Q680 63 680.0 97.0Q680 131 680.5 185.0Q681 239 681.5 300.5Q682 362 682.5 419.5Q683 477 683.0 519.0Q683 561 683 574H660Q660 561 659.5 519.0Q659 477 659.0 419.5Q659 362 658.5 300.5Q658 239 657.5 185.0Q657 131 656.5 97.0Q656 63 656 62Z" fill="#b0b0b0" stroke="none" transform="scale(1,-1) translate(0,-256)" /><path d="M799.4518737792969 69.6480712890625 821.8364868164062 68.98806762695312 824.0151672363281 574.4017944335938 801.6305541992188 575.0617980957031Z" fill="#b0b0b0" stroke="none" transform="scale(1,-1) translate(0,-256)" /><path d="M937.9169616699219 574.4530334472656V66.93136596679688H961.3425445556641V574.4530334472656Z" fill="#b0b0b0" stroke="none" transform="scale(1,-1) translate(0,-256)" /><path d="M1078.030502319336 573.2386474609375 1079.2618560791016 69.16006469726562 1102.6874389648438 69.21778869628906 1101.4560852050781 573.2963714599609Z" fill="#b0b0b0" stroke="none" transform="scale(1,-1) translate(0,-256)" /></svg>