<?xml version="1.0" encoding="utf-8" ?>
<svg baseProfile="full" height="256" version="1.1" width="256" xmlns="http://www.w3.org/2000/svg" xmlns:ev="http://www.w3.org/2001/xml-events" xmlns:xlink="http://www.w3.org/1999/xlink"><defs /><path d="M559 616V563L1202 559V614Z" fill="#4f8b26" stroke="none" transform="scale(1,-1) translate(0,-256)" /><path d="M559 81 558 31 1203 33Q1203 33 1203.0 44.5Q1203 56 1203.0 67.5Q1203 79 1202 81Q1202 81 1167.0 81.5Q1132 82 1074.5 82.0Q1017 82 948.5 82.0Q880 82 811.5 81.5Q743 81 686.0 81.0Q629 81 594.0 81.0Q559 81 559 81Z" fill="#4f8b26" stroke="none" transform="scale(1,-1) translate(0,-256)" /></svg>