<?xml version="1.0" encoding="utf-8" ?>
<svg baseProfile="full" height="256" version="1.1" width="256" xmlns="http://www.w3.org/2000/svg" xmlns:ev="http://www.w3.org/2001/xml-events" xmlns:xlink="http://www.w3.org/1999/xlink"><defs /><path d="M303 -74Q326 -73 336.0 -87.0Q346 -101 347 -116Q347 -134 335.0 -147.5Q323 -161 302 -159Q284 -158 272.5 -146.0Q261 -134 261 -118Q262 -97 274.0 -85.5Q286 -74 303 -74Z" fill="#c8c8c8" stroke="none" transform="scale(1,-1) translate(0,-256)" /><path d="M727 -121Q726 -144 711.5 -153.5Q697 -163 683 -162Q665 -162 652.5 -149.0Q640 -136 643 -115Q645 -97 657.5 -86.0Q670 -75 686 -77Q707 -79 717.0 -92.0Q727 -105 727 -121Z" fill="#c8c8c8" stroke="none" transform="scale(1,-1) translate(0,-256)" /><path d="M961 -112Q965 -134 953.0 -146.5Q941 -159 927 -162Q909 -165 893.5 -155.5Q878 -146 876 -125Q875 -107 885.0 -93.5Q895 -80 911 -77Q932 -75 945.0 -85.0Q958 -95 961 -112Z" fill="#c8c8c8" stroke="none" transform="scale(1,-1) translate(0,-256)" /><path d="M1087 -160Q1065 -159 1056.5 -143.5Q1048 -128 1049 -114Q1051 -96 1064.0 -83.5Q1077 -71 1099 -74Q1117 -77 1126.5 -92.0Q1136 -107 1134 -123Q1131 -143 1117.5 -152.5Q1104 -162 1087 -160Z" fill="#c8c8c8" stroke="none" transform="scale(1,-1) translate(0,-256)" /></svg>