<?xml version="1.0" encoding="utf-8" ?>
<svg baseProfile="full" height="256" version="1.1" width="256" xmlns="http://www.w3.org/2000/svg" xmlns:ev="http://www.w3.org/2001/xml-events" xmlns:xlink="http://www.w3.org/1999/xlink"><defs /><path d="M50 -44Q48 -41 47.5 -24.0Q47 -7 47.0 14.0Q47 35 47.0 51.0Q47 67 47 67L88 98V225L124 334L185 492L414 505Q414 505 418.0 515.5Q422 526 426.5 540.5Q431 555 435.0 566.5Q439 578 440 580Q440 582 453.0 580.0Q466 578 483.0 574.5Q500 571 513.0 568.5Q526 566 526 566L523 33L397 32L206 38L166 -48Q166 -48 149.0 -48.0Q132 -48 109.5 -48.0Q87 -48 69.0 -47.0Q51 -46 50 -44Z" fill="#d70617" stroke="none" transform="scale(1,-1) translate(0,-256)" /></svg>