<?xml version="1.0" encoding="utf-8" ?>
<svg baseProfile="full" height="256" version="1.1" width="256" xmlns="http://www.w3.org/2000/svg" xmlns:ev="http://www.w3.org/2001/xml-events" xmlns:xlink="http://www.w3.org/1999/xlink"><defs /><path d="M673 198H919V-91H673Q550 -91 443.0 -56.5Q336 -22 254.5 43.0Q173 108 127.0 201.0Q81 294 81 411Q81 528 127.0 620.5Q173 713 254.5 778.5Q336 844 443.0 878.5Q550 913 673 913H919V624H673Q592 624 526.5 603.0Q461 582 422.0 535.5Q383 489 383 413Q383 337 422.0 289.5Q461 242 527.0 220.0Q593 198 673 198Z" fill="#f44336" stroke="none" transform="scale(1,-1) translate(0,-256)" /></svg>