<?xml version="1.0" encoding="utf-8" ?>
<svg baseProfile="full" height="256" version="1.1" width="256" xmlns="http://www.w3.org/2000/svg" xmlns:ev="http://www.w3.org/2001/xml-events" xmlns:xlink="http://www.w3.org/1999/xlink"><defs /><path d="M1084 -21Q1041 -71 976.0 -118.0Q911 -165 821.0 -193.5Q731 -222 615 -218Q536 -215 472.0 -195.0Q408 -175 358.5 -146.5Q309 -118 273.5 -87.5Q238 -57 217.5 -33.0Q197 -9 191 0Q187 7 170.5 29.0Q154 51 134.5 85.0Q115 119 101.5 162.0Q88 205 90 252Q92 301 118.0 351.5Q144 402 187.5 458.0Q231 514 285 578Q340 644 411.0 692.0Q482 740 556.5 770.0Q631 800 695 810Q760 820 816.5 816.0Q873 812 917.5 799.5Q962 787 992.0 773.5Q1022 760 1035 750Q1076 720 1111.0 669.0Q1146 618 1177 532Q1209 444 1212.5 363.0Q1216 282 1198.5 210.5Q1181 139 1150.5 80.5Q1120 22 1084 -21Z" fill="#403d3e" stroke="none" transform="scale(1,-1) translate(0,-256)" /></svg>