<?xml version="1.0" encoding="utf-8" ?>
<svg baseProfile="full" height="256" version="1.1" width="256" xmlns="http://www.w3.org/2000/svg" xmlns:ev="http://www.w3.org/2001/xml-events" xmlns:xlink="http://www.w3.org/1999/xlink"><defs /><path d="M517 803Q565 801 608.5 783.0Q652 765 683.5 731.5Q715 698 729.0 650.0Q743 602 732 541Q721 482 691.5 438.5Q662 395 620.0 368.0Q578 341 530.0 330.5Q482 320 436 328Q374 338 328.5 372.0Q283 406 260.5 458.0Q238 510 244 575Q249 623 273.0 665.0Q297 707 335.0 738.5Q373 770 420.0 787.5Q467 805 517 803Z" fill="#ffffff" stroke="none" transform="scale(1,-1) translate(0,-256)" /><path d="M468 668Q472 684 485.5 690.0Q499 696 513 692Q530 688 537.0 676.0Q544 664 540 649Q536 632 523.0 626.5Q510 621 493 625Q478 629 471.0 641.5Q464 654 468 668Z" fill="#ffffff" stroke="none" transform="scale(1,-1) translate(0,-256)" /><path d="M485 572Q503 566 512.0 552.0Q521 538 518 518Q514 498 498.0 488.5Q482 479 463 483Q443 486 430.5 499.0Q418 512 422 537Q426 562 446.0 570.0Q466 578 485 572Z" fill="#ffffff" stroke="none" transform="scale(1,-1) translate(0,-256)" /></svg>