<?xml version="1.0" encoding="utf-8" ?>
<svg baseProfile="full" height="256" version="1.1" width="256" xmlns="http://www.w3.org/2000/svg" xmlns:ev="http://www.w3.org/2001/xml-events" xmlns:xlink="http://www.w3.org/1999/xlink"><defs /><path d="M558 582Q558 582 565.0 573.0Q572 564 577.0 545.0Q582 526 576 497Q568 463 547.5 445.5Q527 428 500.0 424.0Q473 420 446 427Q413 434 386.0 460.5Q359 487 362 535Q365 569 380.0 586.5Q395 604 409.5 610.5Q424 617 424 617Q424 617 419.5 624.5Q415 632 412.5 647.5Q410 663 418 686Q425 712 453.5 730.0Q482 748 526 737Q566 726 583.5 698.5Q601 671 597 636Q593 613 584.0 601.5Q575 590 566.5 586.0Q558 582 558 582Z" fill="#303030" stroke="none" transform="scale(1,-1) translate(0,-256)" /></svg>