<?xml version="1.0" encoding="utf-8" ?>
<svg baseProfile="full" height="256" version="1.1" width="256" xmlns="http://www.w3.org/2000/svg" xmlns:ev="http://www.w3.org/2001/xml-events" xmlns:xlink="http://www.w3.org/1999/xlink"><defs /><path d="M194 248H1061L1109 216Q1109 216 1113.5 206.5Q1118 197 1119.0 179.0Q1120 161 1108 136Q1097 111 1064.5 85.5Q1032 60 989.5 38.0Q947 16 905 2Q841 -20 777.0 -24.0Q713 -28 662 -28Q628 -28 577.5 -24.5Q527 -21 472.5 -14.5Q418 -8 370 2Q321 12 290.0 28.5Q259 45 240.0 60.5Q221 76 209 83Q192 94 178.0 100.5Q164 107 152 127Q144 142 143.0 159.0Q142 176 147 189Q150 198 161.5 212.0Q173 226 183.5 237.0Q194 248 194 248Z" fill="#6d544d" stroke="none" transform="scale(1,-1) translate(0,-256)" /></svg>