<?xml version="1.0" encoding="utf-8" ?>
<svg baseProfile="full" height="256" version="1.1" width="256" xmlns="http://www.w3.org/2000/svg" xmlns:ev="http://www.w3.org/2001/xml-events" xmlns:xlink="http://www.w3.org/1999/xlink"><defs /><path d="M662 5Q652 4 632.0 19.0Q612 34 581.0 57.5Q550 81 508 104Q476 121 437.5 139.0Q399 157 360.5 174.5Q322 192 290.0 207.5Q258 223 238 235Q206 255 189.5 272.5Q173 290 164 302Q155 313 162.5 318.0Q170 323 170 323L504 455L1074 359Q1074 359 1085.0 351.5Q1096 344 1104.0 331.0Q1112 318 1102 300Q1095 287 1068.0 269.0Q1041 251 1003.5 230.0Q966 209 925.5 186.5Q885 164 850 142Q803 113 763.0 81.5Q723 50 696.0 28.0Q669 6 662 5Z" fill="#ffbe01" stroke="none" transform="scale(1,-1) translate(0,-256)" /></svg>