<?xml version="1.0" encoding="utf-8" ?>
<svg baseProfile="full" height="256" version="1.1" width="256" xmlns="http://www.w3.org/2000/svg" xmlns:ev="http://www.w3.org/2001/xml-events" xmlns:xlink="http://www.w3.org/1999/xlink"><defs /><path d="M210 167 1093 140Q1093 140 1101.5 131.5Q1110 123 1114 108Q1116 98 1110.0 73.5Q1104 49 1088.5 21.5Q1073 -6 1047 -27Q1028 -42 999.5 -59.5Q971 -77 926.0 -92.5Q881 -108 812.0 -117.0Q743 -126 642 -125Q535 -125 462.0 -111.0Q389 -97 342.0 -77.0Q295 -57 266.5 -35.0Q238 -13 220 5Q188 36 177.5 63.0Q167 90 167.0 107.0Q167 124 167 124Z" fill="#e78b20" stroke="none" transform="scale(1,-1) translate(0,-256)" /></svg>