<?xml version="1.0" encoding="utf-8" ?>
<svg baseProfile="full" height="256" version="1.1" width="256" xmlns="http://www.w3.org/2000/svg" xmlns:ev="http://www.w3.org/2001/xml-events" xmlns:xlink="http://www.w3.org/1999/xlink"><defs /><path d="M170 300Q170 300 173.0 288.0Q176 276 181.0 261.5Q186 247 191 238Q200 225 227.5 202.5Q255 180 288 162Q387 106 440.0 80.5Q493 55 492 49Q491 45 474.0 41.0Q457 37 432.0 36.5Q407 36 382 42Q356 47 340.0 59.5Q324 72 310.0 86.0Q296 100 278 110Q256 122 243.5 121.0Q231 120 214 123Q190 127 177.0 133.0Q164 139 153 155Q141 173 146.0 185.5Q151 198 151 198Q151 198 145.0 205.0Q139 212 134.0 224.5Q129 237 131 254Q135 278 144.5 287.5Q154 297 162.0 298.5Q170 300 170 300Z" fill="#9b7169" stroke="none" transform="scale(1,-1) translate(0,-256)" /><path d="M810 52Q810 55 827.5 68.0Q845 81 868.5 96.5Q892 112 910 125Q923 135 944.5 150.0Q966 165 987.5 181.0Q1009 197 1024.5 209.0Q1040 221 1042 223Q1044 226 1052.0 237.0Q1060 248 1070.5 260.5Q1081 273 1091.5 281.5Q1102 290 1109 288Q1124 283 1127.5 272.0Q1131 261 1129 241Q1128 227 1117.0 212.0Q1106 197 1106 197Q1106 197 1098.5 184.5Q1091 172 1076.5 155.5Q1062 139 1040 129Q1019 119 1006.0 117.0Q993 115 982.0 114.5Q971 114 957 108Q935 98 912.5 81.0Q890 64 874 56Q864 50 849.0 47.0Q834 44 822.0 44.5Q810 45 810 52Z" fill="#9b7169" stroke="none" transform="scale(1,-1) translate(0,-256)" /></svg>