<?xml version="1.0" encoding="utf-8" ?>
<svg baseProfile="full" height="256" version="1.1" width="256" xmlns="http://www.w3.org/2000/svg" xmlns:ev="http://www.w3.org/2001/xml-events" xmlns:xlink="http://www.w3.org/1999/xlink"><defs /><path d="M625 913Q767 913 871.5 871.5Q976 830 1044.0 760.0Q1112 690 1144.5 603.0Q1177 516 1174 424Q1173 361 1139.0 316.0Q1105 271 1047.5 241.0Q990 211 918.0 194.0Q846 177 768.0 170.5Q690 164 614 166Q571 166 517.5 169.5Q464 173 406.5 182.5Q349 192 295.0 209.5Q241 227 197.0 254.5Q153 282 127.0 322.0Q101 362 99 418Q97 511 127.0 599.0Q157 687 221.5 758.0Q286 829 386.5 871.0Q487 913 625 913Z" fill="#ff521a" stroke="none" transform="scale(1,-1) translate(0,-256)" /></svg>