<?xml version="1.0" encoding="utf-8" ?>
<svg baseProfile="full" height="256" version="1.1" width="256" xmlns="http://www.w3.org/2000/svg" xmlns:ev="http://www.w3.org/2001/xml-events" xmlns:xlink="http://www.w3.org/1999/xlink"><defs /><path d="M262 -14Q262 -14 281.0 -13.0Q300 -12 332.0 -5.5Q364 1 401.5 18.0Q439 35 476.0 65.0Q513 95 542 142Q570 187 576.5 229.5Q583 272 578.5 305.5Q574 339 567.0 359.0Q560 379 560 379L514 362L509 416L498 424Q498 424 482.5 425.5Q467 427 445.5 427.5Q424 428 406 425Q387 421 357.0 407.5Q327 394 297.0 365.0Q267 336 251 286Q239 251 237.0 210.5Q235 170 238.0 130.5Q241 91 247.0 58.0Q253 25 257.5 5.5Q262 -14 262 -14Z" fill="#000000" stroke="none" transform="scale(1,-1) translate(0,-256)" /></svg>