<?xml version="1.0" encoding="utf-8" ?>
<svg baseProfile="full" height="256" version="1.1" width="256" xmlns="http://www.w3.org/2000/svg" xmlns:ev="http://www.w3.org/2001/xml-events" xmlns:xlink="http://www.w3.org/1999/xlink"><defs /><path d="M1062 215Q1062 215 1069.0 236.0Q1076 257 1087.0 291.5Q1098 326 1109.5 365.5Q1121 405 1130.0 442.5Q1139 480 1142 507Q1144 522 1149.0 558.5Q1154 595 1155.5 643.5Q1157 692 1147.0 741.5Q1137 791 1109.0 832.0Q1081 873 1028 895Q972 917 924.5 918.5Q877 920 838.0 908.0Q799 896 769.5 878.0Q740 860 719.5 843.0Q699 826 689 818Q664 797 663.5 783.5Q663 770 666 764Q669 758 678.5 758.0Q688 758 699 766Q704 769 723.0 785.0Q742 801 772.0 819.5Q802 838 841.0 850.5Q880 863 925.5 861.5Q971 860 1019 834Q1055 814 1070.5 773.0Q1086 732 1085.5 677.0Q1085 622 1075.0 562.5Q1065 503 1049.5 445.5Q1034 388 1018.5 342.0Q1003 296 992.5 268.5Q982 241 982 241Z" fill="#40717b" stroke="none" transform="scale(1,-1) translate(0,-256)" /></svg>