<?xml version="1.0" encoding="utf-8" ?>
<svg baseProfile="full" height="256" version="1.1" width="256" xmlns="http://www.w3.org/2000/svg" xmlns:ev="http://www.w3.org/2001/xml-events" xmlns:xlink="http://www.w3.org/1999/xlink"><defs /><path d="M880 180Q907 169 917.5 156.5Q928 144 933 128Q938 113 934.0 94.5Q930 76 925.0 62.5Q920 49 920 49Q920 49 897.5 63.0Q875 77 841 91Q806 105 779.5 109.5Q753 114 753 114Q753 114 757.5 125.0Q762 136 768.0 148.5Q774 161 780 168Q790 177 813.5 186.5Q837 196 880 180Z" fill="#6aa5ad" stroke="none" transform="scale(1,-1) translate(0,-256)" /></svg>