<?xml version="1.0" encoding="utf-8" ?>
<svg baseProfile="full" height="256" version="1.1" width="256" xmlns="http://www.w3.org/2000/svg" xmlns:ev="http://www.w3.org/2001/xml-events" xmlns:xlink="http://www.w3.org/1999/xlink"><defs /><path d="M728 481Q762 480 789.5 458.5Q817 437 818 407Q818 378 796.0 350.5Q774 323 724 324Q682 325 657.5 343.5Q633 362 633 403Q633 442 663.0 461.5Q693 481 728 481ZM706 393Q708 397 701.5 409.0Q695 421 684.5 428.5Q674 436 665 424Q657 411 666.5 403.0Q676 395 689.0 392.0Q702 389 706 393ZM730 408Q735 408 741.0 420.5Q747 433 746.0 445.0Q745 457 729 457Q714 456 713.5 444.0Q713 432 719.0 420.0Q725 408 730 408ZM765 387Q771 383 781.5 389.5Q792 396 797.0 406.5Q802 417 792 424Q781 432 773.5 423.0Q766 414 763.5 401.5Q761 389 765 387Z" fill="#f7cf92" stroke="none" transform="scale(1,-1) translate(0,-256)" /></svg>