<?xml version="1.0" encoding="utf-8" ?>
<svg baseProfile="full" height="256" version="1.1" width="256" xmlns="http://www.w3.org/2000/svg" xmlns:ev="http://www.w3.org/2001/xml-events" xmlns:xlink="http://www.w3.org/1999/xlink"><defs /><path d="M744 271Q744 271 736.5 275.5Q729 280 718.0 280.0Q707 280 696 268Q684 252 686.5 240.0Q689 228 695.5 220.5Q702 213 702 213Q702 213 695.5 205.0Q689 197 686.5 184.5Q684 172 697 159Q710 146 722.0 146.5Q734 147 742.0 152.0Q750 157 750 157Q750 157 750.5 155.0Q751 153 751 152Q752 150 753.0 148.5Q754 147 754 147L811 148Q811 148 814.0 151.5Q817 155 819 163Q821 170 820.0 174.5Q819 179 819 179Q819 179 827.5 181.0Q836 183 844.0 191.0Q852 199 850 218Q849 236 841.0 243.0Q833 250 825.5 251.0Q818 252 818 252Q818 252 819.5 262.0Q821 272 816.0 283.5Q811 295 791 300Q772 304 761.5 296.5Q751 289 747.5 280.0Q744 271 744 271Z" fill="#e38130" stroke="none" transform="scale(1,-1) translate(0,-256)" /></svg>