<?xml version="1.0" encoding="utf-8" ?>
<svg baseProfile="full" height="256" version="1.1" width="256" xmlns="http://www.w3.org/2000/svg" xmlns:ev="http://www.w3.org/2001/xml-events" xmlns:xlink="http://www.w3.org/1999/xlink"><defs /><path d="M567 312V334Q567 334 579.5 322.0Q592 310 611.5 292.5Q631 275 650.0 257.0Q669 239 682.5 226.0Q696 213 698 212Q700 209 703.0 206.0Q706 203 705 198Q704 186 693 194Q692 195 678.5 207.5Q665 220 646.5 237.5Q628 255 609.5 272.0Q591 289 579.0 300.5Q567 312 567 312Z" fill="#e3dda6" stroke="none" transform="scale(1,-1) translate(0,-256)" /><path d="M618 404Q618 404 621.0 405.0Q624 406 627 406Q629 406 632.0 405.5Q635 405 635 405L640 146H625Z" fill="#e3dda6" stroke="none" transform="scale(1,-1) translate(0,-256)" /><path d="M693 369Q693 369 694.5 365.0Q696 361 697 359Q698 356 698.5 353.5Q699 351 699 351L566 166V191Z" fill="#e3dda6" stroke="none" transform="scale(1,-1) translate(0,-256)" /><path d="M629 260 643 262Q643 262 651.0 261.5Q659 261 667.0 261.0Q675 261 677 263Q679 265 679.0 270.5Q679 276 679 280Q678 282 677.0 287.0Q676 292 672 294Q667 295 655.0 287.5Q643 280 643 280L623 274Q623 274 613.5 273.5Q604 273 593.5 273.0Q583 273 580 272Q575 272 574.5 267.0Q574 262 574 259Q574 256 576.0 251.0Q578 246 581 245Q584 243 596.5 249.0Q609 255 609 255Z" fill="#e3dda6" stroke="none" transform="scale(1,-1) translate(0,-256)" /></svg>