<?xml version="1.0" encoding="utf-8" ?>
<svg baseProfile="full" height="256" version="1.1" width="256" xmlns="http://www.w3.org/2000/svg" xmlns:ev="http://www.w3.org/2001/xml-events" xmlns:xlink="http://www.w3.org/1999/xlink"><defs /><path d="M523 769 531 145Q531 145 507.5 145.0Q484 145 446.5 144.5Q409 144 365.5 144.0Q322 144 281.0 143.5Q240 143 210.5 143.0Q181 143 172 143Q145 143 141.5 157.5Q138 172 138 184Q138 187 138.5 216.5Q139 246 140.0 292.5Q141 339 142.5 394.5Q144 450 145.5 506.0Q147 562 148.0 610.0Q149 658 150.0 690.0Q151 722 151 728Q152 751 162.5 759.0Q173 767 185 766Q189 765 215.0 765.5Q241 766 279.5 766.0Q318 766 360.0 767.0Q402 768 439.0 768.5Q476 769 499.5 769.0Q523 769 523 769Z" fill="#a94230" stroke="none" transform="scale(1,-1) translate(0,-256)" /><path d="M567 424 566 145 834 148 828 427Z" fill="#a94230" stroke="none" transform="scale(1,-1) translate(0,-256)" /><path d="M868 425 874 147H937L1136 182L1127 428Z" fill="#a94230" stroke="none" transform="scale(1,-1) translate(0,-256)" /><path d="M867 470 1126 473Q1126 473 1125.5 499.5Q1125 526 1124.0 565.0Q1123 604 1122.5 645.0Q1122 686 1121.5 716.5Q1121 747 1121 755Q1120 773 1108.5 776.0Q1097 779 1089 779Q1087 779 1063.0 778.5Q1039 778 1006.0 777.5Q973 777 940.5 776.0Q908 775 886.0 775.0Q864 775 864 775Z" fill="#a94230" stroke="none" transform="scale(1,-1) translate(0,-256)" /><path d="M564.4178466796875 684.4697723388672V519.5781707763672H827.9575042724609V684.4697723388672Z" fill="#a94230" stroke="none" transform="scale(1,-1) translate(0,-256)" /></svg>