<?xml version="1.0" encoding="utf-8" ?>
<svg baseProfile="full" height="256" version="1.1" width="256" xmlns="http://www.w3.org/2000/svg" xmlns:ev="http://www.w3.org/2001/xml-events" xmlns:xlink="http://www.w3.org/1999/xlink"><defs /><path d="M343 509Q366 509 378.5 496.0Q391 483 395.5 466.5Q400 450 399 439Q398 422 386.5 416.0Q375 410 346 411Q317 412 303.5 415.0Q290 418 287 437Q285 445 290.5 462.5Q296 480 309.0 494.0Q322 508 343 509Z" fill="#ec5f32" stroke="none" transform="scale(1,-1) translate(0,-256)" /><path d="M905 536Q907 535 919.0 534.5Q931 534 945.5 534.5Q960 535 971.0 535.0Q982 535 982 535L1002 567L952 686L895 683Q895 683 895.5 659.5Q896 636 898 614Q899 599 900.5 580.5Q902 562 903.5 549.0Q905 536 905 536Z" fill="#ec5f32" stroke="none" transform="scale(1,-1) translate(0,-256)" /></svg>