<?xml version="1.0" encoding="utf-8" ?>
<svg baseProfile="full" height="256" version="1.1" width="256" xmlns="http://www.w3.org/2000/svg" xmlns:ev="http://www.w3.org/2001/xml-events" xmlns:xlink="http://www.w3.org/1999/xlink"><defs /><path d="M565 715 696 698 829 710Q829 710 829.0 726.5Q829 743 829.5 764.5Q830 786 830.0 802.5Q830 819 829 819Q828 819 819.0 812.0Q810 805 799.0 796.0Q788 787 780.0 780.5Q772 774 772 774Q772 774 763.0 784.5Q754 795 744.5 806.0Q735 817 733 817Q731 817 720.5 806.0Q710 795 700.5 784.0Q691 773 691 773Q691 773 682.5 784.0Q674 795 665.0 806.0Q656 817 654 817Q652 817 642.5 806.0Q633 795 624.0 783.5Q615 772 615 772Q615 772 604.5 783.0Q594 794 582.0 805.0Q570 816 567 817Q566 817 565.5 802.0Q565 787 565.0 766.5Q565 746 565.0 730.5Q565 715 565 715Z" fill="#88b050" stroke="none" transform="scale(1,-1) translate(0,-256)" /></svg>