<?xml version="1.0" encoding="utf-8" ?>
<svg baseProfile="full" height="256" version="1.1" width="256" xmlns="http://www.w3.org/2000/svg" xmlns:ev="http://www.w3.org/2001/xml-events" xmlns:xlink="http://www.w3.org/1999/xlink"><defs /><path d="M1082 -127Q1107 -127 1124 -109Q1142 -92 1142 -67V556Q1142 613 1103 653Q1065 693 1010 693H266Q210 693 172 653Q133 613 133 556V-67Q133 -92 151 -109Q168 -127 193 -127ZM1082 -98H193Q161 -98 161 -67V556Q161 601 192 633Q222 665 266 665H1010Q1053 665 1083 633Q1114 601 1114 556V-67Q1114 -80 1105 -89Q1095 -98 1082 -98Z" fill="#bdbdbd" stroke="none" transform="scale(1,-1) translate(0,-256)" /></svg>