<?xml version="1.0" encoding="utf-8" ?>
<svg baseProfile="full" height="256" version="1.1" width="256" xmlns="http://www.w3.org/2000/svg" xmlns:ev="http://www.w3.org/2001/xml-events" xmlns:xlink="http://www.w3.org/1999/xlink"><defs /><path d="M464 485Q456 497 444 488Q432 480 440 468Q458 442 571 445Q655 447 674 438Q681 435 685 436Q690 438 693 445Q699 458 686 464Q661 476 571 474Q473 471 464 485Z" fill="#c62828" stroke="none" transform="scale(1,-1) translate(0,-256)" /><path d="M507 389Q499 401 487 393Q475 385 483 373Q498 351 608 368Q700 382 723 376Q737 372 741 386Q742 393 740 398Q737 402 730 404Q702 412 603 397Q512 382 507 389Z" fill="#c62828" stroke="none" transform="scale(1,-1) translate(0,-256)" /><path d="M565 309Q555 320 544 310Q539 306 539 301Q538 296 543 290Q560 271 647 295Q740 321 773 315Q787 312 790 326Q793 340 779 343Q738 351 640 323Q570 303 565 309Z" fill="#c62828" stroke="none" transform="scale(1,-1) translate(0,-256)" /><path d="M634 239 609 226Q619 208 650 212Q664 215 701 226Q781 250 818 244Q802 236 779 222Q704 177 693 185L676 162Q695 148 732 164Q751 172 794 197Q834 221 851 229Q861 233 863 242Q865 251 857 258Q853 263 843 267Q799 286 693 253Q636 236 634 239Z" fill="#c62828" stroke="none" transform="scale(1,-1) translate(0,-256)" /></svg>