<?xml version="1.0" encoding="utf-8" ?>
<svg baseProfile="full" height="256" version="1.1" width="256" xmlns="http://www.w3.org/2000/svg" xmlns:ev="http://www.w3.org/2001/xml-events" xmlns:xlink="http://www.w3.org/1999/xlink"><defs /><path d="M654 180Q653 166 668 165Q682 164 683 178Q688 247 784 317Q796 326 787 337Q779 349 767 341Q660 262 654 180Z" fill="#f44336" stroke="none" transform="scale(1,-1) translate(0,-256)" /><path d="M588 242Q588 227 603 227Q617 227 617 242Q617 272 665 321Q706 364 733 377Q739 380 741 385Q743 390 740 396Q736 403 732 404Q727 406 720 403Q688 387 644 341Q588 283 588 242Z" fill="#f44336" stroke="none" transform="scale(1,-1) translate(0,-256)" /><path d="M521 316Q519 309 521 304Q523 300 530 297Q543 292 548 306Q573 375 687 438Q693 442 695 447Q696 451 693 458Q686 470 673 463Q550 395 521 316Z" fill="#f44336" stroke="none" transform="scale(1,-1) translate(0,-256)" /><path d="M473 409Q465 397 477 389Q489 381 497 393Q538 456 653 493Q666 497 662 511Q660 517 655 520Q651 522 644 520Q520 480 473 409Z" fill="#f44336" stroke="none" transform="scale(1,-1) translate(0,-256)" /><path d="M444 510Q434 500 445 490Q456 481 465 491Q525 559 651 544Q666 542 667 556Q668 563 665 567Q662 571 655 572Q513 589 444 510Z" fill="#f44336" stroke="none" transform="scale(1,-1) translate(0,-256)" /></svg>