<?xml version="1.0" encoding="utf-8" ?>
<svg baseProfile="full" height="256" version="1.1" width="256" xmlns="http://www.w3.org/2000/svg" xmlns:ev="http://www.w3.org/2001/xml-events" xmlns:xlink="http://www.w3.org/1999/xlink"><defs /><path d="M918 46Q900 34 878.5 23.5Q857 13 836 8Q828 5 811.5 2.0Q795 -1 779.5 1.5Q764 4 760 19Q757 33 769.0 44.0Q781 55 802 61Q824 67 845.5 75.5Q867 84 877 89Q884 94 891.5 98.5Q899 103 908 105Q916 107 925.0 105.0Q934 103 939 96Q944 90 943.5 82.0Q943 74 939 67Q936 61 930.0 56.0Q924 51 918 46Z" fill="#a06841" stroke="none" transform="scale(1,-1) translate(0,-256)" /><path d="M259 337Q247 354 221.5 360.5Q196 367 179 350Q160 331 152.5 305.0Q145 279 150 254Q151 245 155.0 236.5Q159 228 168 226Q182 223 194.5 232.5Q207 242 213 245Q222 250 232.0 254.0Q242 258 251 264Q267 277 269.0 298.5Q271 320 259 337Z" fill="#a06841" stroke="none" transform="scale(1,-1) translate(0,-256)" /><path d="M408 622Q394 652 402.5 679.5Q411 707 439 726Q473 748 516.0 754.0Q559 760 598 756Q627 754 644.5 743.0Q662 732 670 716Q670 716 659.5 721.5Q649 727 633 728Q592 731 553.0 721.0Q514 711 478 688Q467 681 464.0 672.0Q461 663 462 655Q463 613 456.5 568.5Q450 524 416 495Q418 526 417.0 558.5Q416 591 408 622Z" fill="#a06841" stroke="none" transform="scale(1,-1) translate(0,-256)" /><path d="M261 774Q277 776 286.0 779.0Q295 782 296 793Q298 805 287.0 807.5Q276 810 271 811Q252 811 229.5 806.0Q207 801 185 794Q156 784 135.0 763.0Q114 742 113.0 716.0Q112 690 140 664Q147 658 162.0 652.0Q177 646 194.5 643.0Q212 640 226.0 644.0Q240 648 243 662Q247 674 238.0 680.0Q229 686 216.0 690.5Q203 695 195 701Q187 708 181.5 717.0Q176 726 180 738Q183 748 193.0 754.0Q203 760 213 764Q236 772 261 774Z" fill="#a06841" stroke="none" transform="scale(1,-1) translate(0,-256)" /><path d="M154 580Q131 593 121.0 589.5Q111 586 115 571Q117 558 126.5 549.5Q136 541 145 538Q153 534 167.0 532.5Q181 531 192.0 535.5Q203 540 202 552Q200 564 182.5 569.0Q165 574 154 580Z" fill="#a06841" stroke="none" transform="scale(1,-1) translate(0,-256)" /></svg>