<?xml version="1.0" encoding="utf-8" ?>
<svg baseProfile="full" height="256" version="1.1" width="256" xmlns="http://www.w3.org/2000/svg" xmlns:ev="http://www.w3.org/2001/xml-events" xmlns:xlink="http://www.w3.org/1999/xlink"><defs /><path d="M452 477Q455 467 450.0 458.5Q445 450 436 448L426 445Q418 443 411.0 447.0Q404 451 402 459L394 488Q391 496 395.5 503.0Q400 510 408 512L417 515Q426 518 434.5 513.0Q443 508 446 499L468 521Q471 524 474.5 523.0Q478 522 479 518L490 476Q491 473 488.5 470.0Q486 467 482 468Z" fill="#78a3ac" stroke="none" transform="scale(1,-1) translate(0,-256)" /><path d="M635 138Q628 143 626.5 151.0Q625 159 630 166L636 174Q642 182 651.5 183.5Q661 185 669 179L672 211Q672 214 675.5 215.5Q679 217 682 215L717 189Q720 187 719.5 183.0Q719 179 716 178L687 166Q695 160 696.5 150.5Q698 141 692 133L687 125Q682 118 673.5 117.0Q665 116 659 121Z" fill="#78a3ac" stroke="none" transform="scale(1,-1) translate(0,-256)" /><path d="M562 207Q557 213 557.0 221.5Q557 230 563 235L570 242Q577 249 586.5 249.0Q596 249 603 242L611 272Q612 276 616.0 277.0Q620 278 622 275L652 244Q655 241 654.0 237.5Q653 234 649 233L619 225Q626 218 625.5 208.5Q625 199 618 192L611 186Q605 180 597.0 180.0Q589 180 583 186Z" fill="#78a3ac" stroke="none" transform="scale(1,-1) translate(0,-256)" /><path d="M495 292Q490 299 492.0 307.0Q494 315 501 320L509 325Q517 330 526.5 328.5Q536 327 541 319L555 347Q557 350 560.5 350.5Q564 351 566 348L590 311Q592 308 590.5 304.5Q589 301 585 301L554 299Q559 291 557.0 281.5Q555 272 547 267L539 262Q532 257 524.0 258.5Q516 260 511 267Z" fill="#78a3ac" stroke="none" transform="scale(1,-1) translate(0,-256)" /><path d="M436 380Q432 387 434.5 395.0Q437 403 445 407L453 411Q462 416 471.0 413.0Q480 410 485 401L502 428Q504 431 508.0 431.0Q512 431 513 427L533 389Q534 385 532.0 382.0Q530 379 526 379L495 381Q500 372 497.0 363.0Q494 354 485 349L477 345Q469 341 461.0 343.5Q453 346 449 354Z" fill="#78a3ac" stroke="none" transform="scale(1,-1) translate(0,-256)" /></svg>