<?xml version="1.0" encoding="utf-8" ?>
<svg baseProfile="full" height="256" version="1.1" width="256" xmlns="http://www.w3.org/2000/svg" xmlns:ev="http://www.w3.org/2001/xml-events" xmlns:xlink="http://www.w3.org/1999/xlink"><defs /><path d="M1197 11Q1168 -43 1115.0 -84.0Q1062 -125 998.5 -150.5Q935 -176 875 -185Q865 -187 860 -182Q856 -179 855.5 -173.0Q855 -167 854 -162Q853 -146 845 -146Q839 -147 827.0 -148.5Q815 -150 810 -152Q795 -155 797.5 -165.5Q800 -176 799 -187Q800 -194 795.0 -198.5Q790 -203 783 -203Q771 -203 756.5 -203.0Q742 -203 731 -203Q712 -202 711 -183L710 -157Q710 -151 704 -151Q694 -150 683 -149Q677 -148 675.5 -153.5Q674 -159 673 -163Q672 -172 670.0 -184.0Q668 -196 652 -193Q646 -191 635.0 -188.5Q624 -186 614 -183Q609 -181 604.5 -176.5Q600 -172 599 -166Q599 -151 600.5 -140.0Q602 -129 582 -124Q577 -122 571.5 -121.5Q566 -121 563 -127Q560 -132 559.0 -137.5Q558 -143 555 -148Q553 -152 546.5 -152.0Q540 -152 536 -150Q525 -143 510.0 -137.5Q495 -132 493 -117L492 -87Q492 -83 489 -82Q454 -63 436.0 -53.5Q418 -44 395 -30Q388 -24 379.0 -19.0Q370 -14 361 -10Q357 -7 348.5 -2.5Q340 2 335 -4Q332 -10 331.5 -17.5Q331 -25 327 -31Q324 -35 317.5 -35.5Q311 -36 307 -34Q307 -34 294.0 -29.0Q281 -24 281 -24Q268 -19 269 -6Q270 -3 272.0 11.0Q274 25 268 27Q264 28 256.5 31.5Q249 35 245 33Q240 27 239.5 18.5Q239 10 236 4Q227 -6 213.0 1.5Q199 9 190 11Q177 16 177 30Q177 30 177.0 37.5Q177 45 177.0 52.5Q177 60 177 60Q177 63 174.5 64.5Q172 66 170 67Q162 70 156.0 73.5Q150 77 147 66Q145 61 144 55Q143 48 137.0 46.5Q131 45 125 49Q115 55 102.5 63.0Q90 71 83 78Q75 85 75 95Q75 95 75.0 111.5Q75 128 75.5 144.5Q76 161 76 161Q76 175 86.0 185.5Q96 196 107 202Q107 202 108.0 196.0Q109 190 109 186Q109 184 109.5 182.5Q110 181 110 181Q113 173 119.5 168.0Q126 163 133 159Q168 133 213.0 114.5Q258 96 304.0 80.0Q350 64 387 48Q421 26 466.0 -1.0Q511 -28 561.0 -51.0Q611 -74 662 -84Q675 -86 704.5 -91.0Q734 -96 780.5 -96.0Q827 -96 889.0 -82.5Q951 -69 1028 -33Q1089 -5 1119.0 27.5Q1149 60 1148 70Q1147 77 1144.5 84.0Q1142 91 1140 98Q1140 96 1151.0 94.0Q1162 92 1164 91Q1171 88 1179.5 85.5Q1188 83 1192 76Q1197 61 1199.5 44.0Q1202 27 1197 11Z" fill="#e2a610" stroke="none" transform="scale(1,-1) translate(0,-256)" /></svg>