<?xml version="1.0" encoding="utf-8" ?>
<svg baseProfile="full" height="256" version="1.1" width="256" xmlns="http://www.w3.org/2000/svg" xmlns:ev="http://www.w3.org/2001/xml-events" xmlns:xlink="http://www.w3.org/1999/xlink"><defs /><path d="M863 666 180 168 133 -24Q133 -24 138.5 -44.5Q144 -65 159.0 -91.0Q174 -117 201 -135Q220 -148 250.5 -146.0Q281 -144 312.0 -134.0Q343 -124 366 -116Q400 -103 430.5 -103.5Q461 -104 475 -106Q496 -108 518.5 -114.0Q541 -120 581 -117Q616 -115 638.5 -103.0Q661 -91 671.0 -78.0Q681 -65 679 -59Q677 -55 671.5 -54.5Q666 -54 662 -55Q658 -55 650.5 -55.0Q643 -55 632 -56Q622 -56 610.5 -55.5Q599 -55 595 -54Q587 -53 587.0 -45.5Q587 -38 596 -38Q601 -38 610.0 -38.0Q619 -38 631 -37Q640 -37 659.5 -35.5Q679 -34 702.0 -29.0Q725 -24 742 -13Q766 2 771.5 21.0Q777 40 777 43Q777 45 761.0 45.0Q745 45 723.0 45.0Q701 45 682.0 45.0Q663 45 658 46Q649 49 649.0 55.0Q649 61 658 62Q662 62 682.5 63.0Q703 64 740 71Q786 79 811.0 97.0Q836 115 849 131Q861 146 859.5 160.0Q858 174 853 175Q849 175 837.0 167.5Q825 160 810.5 152.0Q796 144 787 143Q772 141 751.5 148.5Q731 156 724 156Q717 156 716.5 163.0Q716 170 729 172Q782 180 825.5 195.0Q869 210 903 230Q948 257 963.0 277.5Q978 298 978 313Q978 320 973.5 328.0Q969 336 962 333Q956 330 932.5 317.5Q909 305 879 295Q865 290 847.5 284.5Q830 279 815.5 275.0Q801 271 799 271Q787 271 786.5 278.0Q786 285 794 289Q800 291 817.0 296.0Q834 301 861 313Q886 325 910.0 337.0Q934 349 965.5 367.0Q997 385 1043 414Q1098 447 1123.5 474.5Q1149 502 1152 523Q1154 539 1146.0 547.5Q1138 556 1131 556Q1129 557 1111.0 547.0Q1093 537 1066.5 521.5Q1040 506 1011.5 489.0Q983 472 958.0 457.5Q933 443 920 436Q886 419 873.0 413.0Q860 407 854 419Q851 425 858.0 429.5Q865 434 872 438Q891 446 920.0 462.5Q949 479 981.0 499.0Q1013 519 1042.5 539.0Q1072 559 1091 575Q1118 598 1137.5 622.5Q1157 647 1160 671Q1163 695 1151.5 702.0Q1140 709 1140 709Q1140 709 1113.0 682.5Q1086 656 1046 625Q1026 609 999.5 594.5Q973 580 947.5 568.5Q922 557 903.0 549.0Q884 541 879 539Q869 535 865.0 543.0Q861 551 870 558Q873 560 901.0 575.5Q929 591 969.0 616.0Q1009 641 1051.0 672.5Q1093 704 1124 736Q1156 771 1165.5 796.5Q1175 822 1172.0 837.5Q1169 853 1163 859Q1155 869 1145.0 870.0Q1135 871 1135 871Q1135 871 1121.5 856.5Q1108 842 1093 828Q1068 805 1037.0 778.5Q1006 752 962 724Q918 696 890.5 681.0Q863 666 863 666Z" fill="#c7cdd0" stroke="none" transform="scale(1,-1) translate(0,-256)" /><path d="M571 517 467 421 384 301 342 17 416 -81Q416 -81 430.0 -86.5Q444 -92 457.5 -96.0Q471 -100 469 -96Q469 -94 466.5 -92.0Q464 -90 464 -88Q464 -79 479.0 -77.0Q494 -75 518 -61Q542 -46 548.0 -28.0Q554 -10 547 -2Q541 6 524.5 5.5Q508 5 497 4Q485 2 476.0 -1.0Q467 -4 458 -7Q449 -9 447.5 -2.5Q446 4 456 8Q460 10 492.5 21.0Q525 32 563 51Q600 69 620.0 87.5Q640 106 639 125Q639 135 631.0 138.0Q623 141 623 141Q623 141 607.5 131.0Q592 121 558 113Q544 110 536.5 113.0Q529 116 522 113Q506 106 500.0 104.5Q494 103 491 107Q487 117 500.5 123.0Q514 129 531 137Q549 144 592.0 161.5Q635 179 678 210Q719 240 729.5 262.5Q740 285 737 296Q735 306 727.5 311.0Q720 316 717 316Q715 316 704.0 306.5Q693 297 680.0 287.0Q667 277 659 273Q653 270 636.5 264.5Q620 259 600.5 253.0Q581 247 565.5 242.5Q550 238 547 237Q537 232 535.5 240.0Q534 248 539 251Q542 252 562.0 263.0Q582 274 609.0 288.5Q636 303 660 317Q693 337 729.5 358.0Q766 379 791 412Q811 437 812.0 456.5Q813 476 804 484Q795 491 785.0 490.0Q775 489 768 486Q766 485 754.5 471.0Q743 457 724.5 440.0Q706 423 685 414Q652 401 629.0 400.0Q606 399 598 395Q576 385 574.0 392.5Q572 400 578 403Q581 405 597.5 413.5Q614 422 636.5 434.5Q659 447 680 459Q723 484 757.0 509.5Q791 535 822 576Q842 603 846.0 626.0Q850 649 844.5 665.5Q839 682 832 688Q824 694 817.5 694.0Q811 694 810 693Q809 692 792.5 675.5Q776 659 747.5 634.5Q719 610 683 585Q664 572 637.5 556.0Q611 540 591.0 528.5Q571 517 571 517Z" fill="#c7cdd0" stroke="none" transform="scale(1,-1) translate(0,-256)" /><path d="M342 420Q284 379 249.5 349.5Q215 320 193.5 291.0Q172 262 151 225Q139 203 132.0 169.5Q125 136 122.0 96.5Q119 57 122 20Q123 -6 131.5 -30.0Q140 -54 148.0 -69.5Q156 -85 156 -85Q156 -85 168.5 -91.0Q181 -97 198 -99Q228 -103 253.0 -95.5Q278 -88 278 -88Q278 -88 294.0 -81.5Q310 -75 326.5 -62.5Q343 -50 344 -32Q345 -17 338.5 -11.0Q332 -5 324.5 -4.0Q317 -3 317 -3Q317 -3 334.0 4.0Q351 11 372.5 22.0Q394 33 408 45Q428 62 429.5 76.5Q431 91 423 95Q420 97 414.5 96.5Q409 96 405 94Q403 93 393.5 90.0Q384 87 376.0 84.0Q368 81 368 81Q368 81 361.0 80.5Q354 80 353 84Q352 91 365.0 96.0Q378 101 398.5 110.0Q419 119 439 137Q464 161 467.0 181.0Q470 201 468 212Q466 224 455 219Q446 215 441.5 212.5Q437 210 437 210L413 175Q413 175 402.0 173.5Q391 172 378.5 173.5Q366 175 361 185Q356 196 373.0 204.5Q390 213 414.5 222.0Q439 231 456 242Q497 270 508.5 296.0Q520 322 515.5 339.0Q511 356 506 357Q502 358 492.5 353.0Q483 348 477 344Q474 341 460.0 333.0Q446 325 432.5 318.0Q419 311 415 309Q410 308 399.0 305.0Q388 302 378.0 301.5Q368 301 365 307Q361 315 374.0 319.0Q387 323 403 329Q434 340 472.5 358.0Q511 376 532 402Q553 428 556.5 452.5Q560 477 559 491Q558 513 547.5 521.5Q537 530 533 527Q530 526 518.5 517.5Q507 509 491.5 498.0Q476 487 461.5 477.0Q447 467 438 462Q403 443 375.5 432.5Q348 422 342 420Z" fill="#c7cdd0" stroke="none" transform="scale(1,-1) translate(0,-256)" /></svg>