<?xml version="1.0" encoding="utf-8" ?>
<svg baseProfile="full" height="256" version="1.1" width="256" xmlns="http://www.w3.org/2000/svg" xmlns:ev="http://www.w3.org/2001/xml-events" xmlns:xlink="http://www.w3.org/1999/xlink"><defs /><path d="M607 520Q604 517 605.5 509.5Q607 502 608 501Q609 497 629.5 505.5Q650 514 678 529Q697 539 719.0 555.0Q741 571 760.0 586.5Q779 602 789 612Q806 629 815.5 645.0Q825 661 824 664Q824 667 821.0 672.5Q818 678 813 677Q809 675 787.5 650.0Q766 625 717 589Q700 577 674.5 561.5Q649 546 629.0 534.0Q609 522 607 520Z" fill="#ffffff" stroke="none" transform="scale(1,-1) translate(0,-256)" /><path d="M1141 864Q1144 868 1149.5 867.5Q1155 867 1158 863Q1164 857 1159.5 847.5Q1155 838 1148 827Q1143 819 1118.5 794.0Q1094 769 1048 733Q1002 696 963.5 676.0Q925 656 914 654Q908 653 903.0 653.0Q898 653 897 656Q896 659 896.0 663.0Q896 667 901 670Q909 676 945.0 696.5Q981 717 1024 750Q1069 784 1093.0 808.0Q1117 832 1127.0 846.0Q1137 860 1141 864Z" fill="#ffffff" stroke="none" transform="scale(1,-1) translate(0,-256)" /><path d="M524 502Q519 500 505.5 490.0Q492 480 476.5 469.0Q461 458 451 452Q436 443 391.5 424.0Q347 405 296 376Q232 339 190.5 295.5Q149 252 129 192Q110 134 113.5 74.5Q117 15 136 -27Q151 -59 169.5 -69.0Q188 -79 189 -78Q192 -76 189.5 -63.5Q187 -51 185 -43Q174 4 169.0 63.0Q164 122 191 198Q202 228 229.0 257.5Q256 287 291.0 313.0Q326 339 359.5 360.0Q393 381 418.0 394.5Q443 408 450 412Q462 418 477.0 428.5Q492 439 504.5 450.0Q517 461 521 468Q526 477 526.5 490.0Q527 503 524 502Z" fill="#ffffff" stroke="none" transform="scale(1,-1) translate(0,-256)" /></svg>