<?xml version="1.0" encoding="utf-8" ?>
<svg baseProfile="full" height="256" version="1.1" width="256" xmlns="http://www.w3.org/2000/svg" xmlns:ev="http://www.w3.org/2001/xml-events" xmlns:xlink="http://www.w3.org/1999/xlink"><defs /><path d="M341 263Q335 275 339.0 283.5Q343 292 351 295Q363 299 371.5 301.0Q380 303 391.5 305.5Q403 308 424 316Q436 320 451.0 329.0Q466 338 469 340Q471 336 468.5 327.5Q466 319 456 306Q445 293 431.0 284.0Q417 275 394 262Q370 249 357.0 253.5Q344 258 341 263Z" fill="#fffeff" stroke="none" transform="scale(1,-1) translate(0,-256)" /><path d="M428 206Q426 205 403.5 194.5Q381 184 362 180Q356 179 343.0 174.0Q330 169 335 154Q339 138 358.5 141.0Q378 144 399 158Q421 172 426.5 187.5Q432 203 428 206Z" fill="#fffeff" stroke="none" transform="scale(1,-1) translate(0,-256)" /></svg>