<?xml version="1.0" encoding="utf-8" ?>
<svg baseProfile="full" height="256" version="1.1" width="256" xmlns="http://www.w3.org/2000/svg" xmlns:ev="http://www.w3.org/2001/xml-events" xmlns:xlink="http://www.w3.org/1999/xlink"><defs /><path d="M103 448Q109 454 117.5 449.0Q126 444 131 434Q135 424 137.0 412.5Q139 401 132 396Q118 388 104 412Q90 436 103 448Z" fill="#523226" stroke="none" transform="scale(1,-1) translate(0,-256)" /><path d="M173 431Q173 431 172.0 421.0Q171 411 169 403Q167 391 159.0 380.0Q151 369 149 365Q147 362 156.5 365.0Q166 368 168 370Q172 373 177.0 377.0Q182 381 185 396Q189 416 189.0 423.0Q189 430 189 430Q189 430 192.0 434.5Q195 439 196 449Q197 460 190.0 465.5Q183 471 175 467Q167 462 167.0 454.5Q167 447 170.0 440.0Q173 433 173 431Z" fill="#523226" stroke="none" transform="scale(1,-1) translate(0,-256)" /></svg>