<?xml version="1.0" encoding="utf-8" ?>
<svg baseProfile="full" height="256" version="1.1" width="256" xmlns="http://www.w3.org/2000/svg" xmlns:ev="http://www.w3.org/2001/xml-events" xmlns:xlink="http://www.w3.org/1999/xlink"><defs /><path d="M990 422 963 259Q963 259 966.5 246.0Q970 233 979.0 215.0Q988 197 1003.0 180.0Q1018 163 1041 154Q1092 134 1127.0 147.0Q1162 160 1188 186Q1210 209 1217.5 231.0Q1225 253 1225 257Q1224 270 1210.0 271.0Q1196 272 1175 266Q1154 260 1134.5 259.0Q1115 258 1100 279Q1083 303 1077.5 324.0Q1072 345 1068.0 364.0Q1064 383 1051 400Q1038 417 1024.0 421.5Q1010 426 1000.0 424.0Q990 422 990 422Z" fill="#865b52" stroke="none" transform="scale(1,-1) translate(0,-256)" /><path d="M586 531 250 724Q250 724 240.0 703.5Q230 683 216 665Q202 648 173.5 633.5Q145 619 121 618Q97 616 81.5 620.5Q66 625 67 637Q68 650 80.5 650.5Q93 651 100 654Q109 658 126 728Q131 751 148.5 767.0Q166 783 187.5 791.0Q209 799 227 799Q254 799 283.0 792.0Q312 785 331 789Q351 793 366.0 802.5Q381 812 389 818Q397 823 413.5 832.5Q430 842 449.5 843.5Q469 845 484 827Q495 814 494.5 800.5Q494 787 488.5 775.5Q483 764 479.5 754.5Q476 745 481 739Q487 732 496.5 737.0Q506 742 519.0 749.0Q532 756 547.0 756.0Q562 756 576 740Q591 724 589.0 708.5Q587 693 578.0 679.5Q569 666 562.0 655.5Q555 645 560 639Q565 634 576.0 636.0Q587 638 601.0 640.0Q615 642 626.5 638.5Q638 635 644 618Q650 602 641.5 586.5Q633 571 620.0 558.5Q607 546 596.5 538.5Q586 531 586 531Z" fill="#865b52" stroke="none" transform="scale(1,-1) translate(0,-256)" /></svg>