<?xml version="1.0" encoding="utf-8" ?>
<svg baseProfile="full" height="256" version="1.1" width="256" xmlns="http://www.w3.org/2000/svg" xmlns:ev="http://www.w3.org/2001/xml-events" xmlns:xlink="http://www.w3.org/1999/xlink"><defs /><path d="M251 105Q251 105 227.0 102.5Q203 100 172 99Q151 99 128.5 94.0Q106 89 90.0 86.0Q74 83 71 88Q69 94 78.5 108.5Q88 123 103 139Q118 155 146.5 170.0Q175 185 198 186Q220 187 239.5 181.0Q259 175 274 163Q289 151 294.5 138.5Q300 126 300 126Q300 126 314.0 121.5Q328 117 344 109Q363 100 373.5 90.5Q384 81 384 81Q384 81 386.0 66.5Q388 52 378.5 29.0Q369 6 334 -21Q310 -39 277.5 -54.0Q245 -69 218.5 -76.0Q192 -83 187 -79Q181 -72 185.0 -43.5Q189 -15 203 23Q218 62 234.5 83.5Q251 105 251 105Z" fill="#6e9921" stroke="none" transform="scale(1,-1) translate(0,-256)" /></svg>