<?xml version="1.0" encoding="utf-8" ?>
<svg baseProfile="full" height="256" version="1.1" width="256" xmlns="http://www.w3.org/2000/svg" xmlns:ev="http://www.w3.org/2001/xml-events" xmlns:xlink="http://www.w3.org/1999/xlink"><defs /><path d="M1024 301 901 245 868 229 839 222 753 179 648 181 543 215Q543 215 531.5 216.0Q520 217 511 209Q503 201 503.5 191.5Q504 182 510 176Q516 170 530.0 160.5Q544 151 561 142Q577 133 593.0 126.5Q609 120 604 104Q599 88 579.5 92.5Q560 97 538 105Q515 113 493.0 124.5Q471 136 457 141Q443 147 435.0 143.5Q427 140 423 133Q419 127 419.5 117.5Q420 108 427 102Q435 95 454.0 84.0Q473 73 494 63Q516 52 535.5 47.0Q555 42 554 34Q552 25 532.5 27.0Q513 29 486 36Q458 43 438.5 54.5Q419 66 419 66Q419 66 412.0 59.0Q405 52 400.0 43.0Q395 34 403 28Q410 22 428.5 19.5Q447 17 463.0 16.5Q479 16 479 16Q479 16 488.0 8.5Q497 1 509 -7Q521 -15 540.5 -24.0Q560 -33 567 -36Q576 -41 594.0 -50.5Q612 -60 640.5 -64.5Q669 -69 709 -58Q733 -51 763.5 -35.5Q794 -20 820.0 -5.5Q846 9 855 14Q879 26 909.5 40.0Q940 54 971 62Q986 66 1009.0 78.0Q1032 90 1045 104Q1060 119 1066.5 135.0Q1073 151 1075.0 162.5Q1077 174 1077 174L1140 252Q1140 252 1145.5 263.0Q1151 274 1158.0 289.0Q1165 304 1168 316Q1171 327 1173.0 345.5Q1175 364 1175.5 379.0Q1176 394 1176 394Q1176 394 1183.5 411.5Q1191 429 1195 460Q1202 508 1195.0 534.5Q1188 561 1188 561Q1188 561 1180.0 539.0Q1172 517 1159.0 488.0Q1146 459 1133 436Q1119 411 1101.0 396.0Q1083 381 1063 368Q1042 355 1031.0 348.0Q1020 341 1016 328Q1011 315 1017.5 308.0Q1024 301 1024 301Z" fill="#a2764a" stroke="none" transform="scale(1,-1) translate(0,-256)" /><path d="M180 259Q180 259 185.5 247.0Q191 235 197 224Q204 214 217.5 196.5Q231 179 257 169Q277 161 298.5 162.0Q320 163 318 180Q316 195 301.0 197.0Q286 199 261 206Q244 210 230.0 221.5Q216 233 206.5 244.0Q197 255 194 259Q189 264 184.5 261.5Q180 259 180 259Z" fill="#a2764a" stroke="none" transform="scale(1,-1) translate(0,-256)" /><path d="M145 403Q156 414 165.5 405.5Q175 397 181 391Q193 381 201.5 372.5Q210 364 216 359Q222 353 223.0 346.0Q224 339 221 335Q212 321 195 331Q188 335 177.5 344.0Q167 353 156 365Q132 390 145 403Z" fill="#a2764a" stroke="none" transform="scale(1,-1) translate(0,-256)" /></svg>