<?xml version="1.0" encoding="utf-8" ?>
<svg baseProfile="full" height="256" version="1.1" width="256" xmlns="http://www.w3.org/2000/svg" xmlns:ev="http://www.w3.org/2001/xml-events" xmlns:xlink="http://www.w3.org/1999/xlink"><defs /><path d="M330 382Q330 382 351.0 377.0Q372 372 402.0 364.0Q432 356 461.5 348.5Q491 341 507 336Q521 332 517.5 328.5Q514 325 503.0 321.5Q492 318 480.5 315.0Q469 312 466.0 309.5Q463 307 477 304Q530 295 564.0 301.0Q598 307 617.5 316.0Q637 325 648 326Q664 328 699.5 324.0Q735 320 773 323Q832 327 861.5 339.0Q891 351 891 351Q891 351 903.5 358.0Q916 365 933 374Q964 392 974.5 405.0Q985 418 985 418L1002 431L1026 507L958 588L764 644L625 637L574 630H451L351 553L311 560L265 531Q265 531 257.0 506.5Q249 482 252 445Q255 416 264.0 402.5Q273 389 285 382Q297 375 313.5 378.5Q330 382 330 382Z" fill="#8c6238" stroke="none" transform="scale(1,-1) translate(0,-256)" /></svg>