<?xml version="1.0" encoding="utf-8" ?>
<svg baseProfile="full" height="256" version="1.1" width="256" xmlns="http://www.w3.org/2000/svg" xmlns:ev="http://www.w3.org/2001/xml-events" xmlns:xlink="http://www.w3.org/1999/xlink"><defs /><path d="M157 -161Q125 -130 117.0 -98.5Q109 -67 118.5 -40.0Q128 -13 147 7Q177 38 202.5 58.0Q228 78 228 78Q249 94 291.0 129.5Q333 165 389.5 215.5Q446 266 511.5 326.0Q577 386 646.0 451.0Q715 516 780 581Q754 628 752 682Q751 728 768.0 771.0Q785 814 818 847Q854 883 900.5 899.5Q947 916 996.0 912.0Q1045 908 1089 882Q1095 878 1095 871Q1095 863 1089 859L954 782Q944 731 969.5 686.0Q995 641 1044 624L1180 703Q1186 706 1193 703Q1199 699 1199 691Q1200 642 1179.5 597.0Q1159 552 1122 519Q1090 492 1052.5 478.5Q1015 465 976 465Q932 465 890 483Q831 423 770.0 357.0Q709 291 651.5 225.5Q594 160 545.0 101.5Q496 43 460.0 -2.0Q424 -47 407 -72Q407 -72 389.5 -93.0Q372 -114 339 -152Q317 -177 286.5 -190.5Q256 -204 222.0 -198.5Q188 -193 157 -161ZM203 -65Q203 -86 217.5 -100.5Q232 -115 253 -115Q273 -115 288.0 -100.5Q303 -86 303 -65Q303 -45 288.0 -30.5Q273 -16 253 -16Q232 -16 217.5 -30.5Q203 -45 203 -65Z" fill="#82aec0" stroke="none" transform="scale(1,-1) translate(0,-256)" /><path d="M706 904Q723 904 726.0 895.5Q729 887 717 883Q717 883 700.5 875.0Q684 867 659.5 853.5Q635 840 608.0 824.0Q581 808 559.0 791.0Q537 774 527.0 759.0Q517 744 527 733Q527 733 538.0 720.5Q549 708 560.0 688.5Q571 669 572.5 647.5Q574 626 554 609Q544 601 526.5 585.5Q509 570 490.0 554.0Q471 538 456.0 525.0Q441 512 437 507Q425 498 416.0 492.0Q407 486 391 490Q382 493 374.5 496.0Q367 499 359 501Q351 503 339.0 503.5Q327 504 320 498Q312 492 314.0 486.0Q316 480 316 478Q320 467 325.5 457.5Q331 448 331 437Q332 415 316 402Q316 402 307.0 394.0Q298 386 286.5 375.5Q275 365 266.0 357.5Q257 350 257 350Q257 350 243.0 351.5Q229 353 202.5 368.5Q176 384 141 424Q106 464 93.5 489.5Q81 515 80.5 527.5Q80 540 80 540Q80 540 89.5 548.5Q99 557 111.5 568.0Q124 579 133.5 587.5Q143 596 143 596Q159 610 181 608Q191 607 201.0 600.5Q211 594 220 588Q229 582 239.5 586.5Q250 591 253 602Q255 614 252.5 626.0Q250 638 248 651Q245 673 255.0 688.5Q265 704 280.5 717.0Q296 730 311 742Q331 760 351.5 777.5Q372 795 393 813Q426 842 457.0 860.5Q488 879 522.5 888.5Q557 898 601.0 901.0Q645 904 706 904Z" fill="#82aec0" stroke="none" transform="scale(1,-1) translate(0,-256)" /></svg>