<?xml version="1.0" encoding="utf-8" ?>
<svg baseProfile="full" height="256" version="1.1" width="256" xmlns="http://www.w3.org/2000/svg" xmlns:ev="http://www.w3.org/2001/xml-events" xmlns:xlink="http://www.w3.org/1999/xlink"><defs /><path d="M924 788Q936 804 927 823Q922 836 907.0 850.0Q892 864 874.0 874.0Q856 884 839 886Q820 888 808 872Q808 872 786.5 842.5Q765 813 728.0 762.0Q691 711 643.5 646.5Q596 582 544.0 510.5Q492 439 440.5 369.0Q389 299 344.0 237.5Q299 176 267 131Q273 135 278 137Q305 148 335.5 162.5Q366 177 393.0 191.5Q420 206 435 216Q452 227 468.0 228.0Q484 229 503 228Q511 228 515 227Q568 300 625.0 378.0Q682 456 735.0 529.0Q788 602 831.0 660.5Q874 719 899.0 753.5Q924 788 924 788ZM225 74Q207 49 206 48Q195 33 192 16Q192 13 188.5 -4.5Q185 -22 180.0 -44.0Q175 -66 171.5 -82.5Q168 -99 168 -100Q166 -109 175.5 -116.5Q185 -124 195 -119Q200 -116 215.0 -107.5Q230 -99 247.5 -89.0Q265 -79 279.5 -70.5Q294 -62 298 -59Q305 -53 310.5 -48.5Q316 -44 323 -35Q324 -34 328 -30Q287 -26 264.0 -10.0Q241 6 232.0 27.5Q223 49 224 68Q224 71 225 74Z" fill="#78909c" stroke="none" transform="scale(1,-1) translate(0,-256)" /></svg>