<?xml version="1.0" encoding="utf-8" ?>
<svg baseProfile="full" height="256" version="1.1" width="256" xmlns="http://www.w3.org/2000/svg" xmlns:ev="http://www.w3.org/2001/xml-events" xmlns:xlink="http://www.w3.org/1999/xlink"><defs /><path d="M230 790Q234 781 232.5 771.0Q231 761 224 757Q215 752 206.0 755.5Q197 759 192 769Q181 792 181 819Q181 857 202.0 884.5Q223 912 252 912Q281 912 301.5 884.5Q322 857 322 819H280Q280 838 271.5 851.5Q263 865 252 865Q240 865 231.5 851.5Q223 838 223 819Q223 803 230 790Z" fill="#94d1e0" stroke="none" transform="scale(1,-1) translate(0,-256)" /><path d="M384.5 790.0Q388.5 781.0 387.0 771.0Q385.5 761.0 378.5 757.0Q369.5 752.0 360.5 755.5Q351.5 759.0 346.5 769.0Q335.5 792.0 335.5 819.0Q335.5 857.0 356.5 884.5Q377.5 912.0 406.5 912.0Q435.5 912.0 456.0 884.5Q476.5 857.0 476.5 819.0H434.5Q434.5 838.0 426.0 851.5Q417.5 865.0 406.5 865.0Q394.5 865.0 386.0 851.5Q377.5 838.0 377.5 819.0Q377.5 803.0 384.5 790.0Z" fill="#94d1e0" stroke="none" transform="scale(1,-1) translate(0,-256)" /><path d="M693 790Q697 781 696.0 771.0Q695 761 687 757Q678 752 669.0 755.5Q660 759 656 769Q645 792 645 819Q645 857 665.5 884.5Q686 912 715 912Q744 912 765.0 884.5Q786 857 786 819H744Q744 838 735.5 851.5Q727 865 715 865Q703 865 695.0 851.5Q687 838 687 819Q687 803 693 790Z" fill="#94d1e0" stroke="none" transform="scale(1,-1) translate(0,-256)" /><path d="M847.906005859375 790.0Q851.906005859375 781.0 850.406005859375 771.0Q848.906005859375 761.0 841.906005859375 757.0Q832.906005859375 752.0 823.906005859375 755.5Q814.906005859375 759.0 809.906005859375 769.0Q798.906005859375 792.0 798.906005859375 819.0Q798.906005859375 857.0 819.906005859375 884.5Q840.906005859375 912.0 869.906005859375 912.0Q898.906005859375 912.0 919.406005859375 884.5Q939.906005859375 857.0 939.906005859375 819.0H897.906005859375Q897.906005859375 838.0 889.406005859375 851.5Q880.906005859375 865.0 869.906005859375 865.0Q857.906005859375 865.0 849.406005859375 851.5Q840.906005859375 838.0 840.906005859375 819.0Q840.906005859375 803.0 847.906005859375 790.0Z" fill="#94d1e0" stroke="none" transform="scale(1,-1) translate(0,-256)" /><path d="M1002.406005859375 790.0Q1006.406005859375 781.0 1004.906005859375 771.0Q1003.406005859375 761.0 996.406005859375 757.0Q987.406005859375 752.0 978.406005859375 755.5Q969.406005859375 759.0 964.406005859375 769.0Q953.406005859375 792.0 953.406005859375 819.0Q953.406005859375 857.0 974.406005859375 884.5Q995.406005859375 912.0 1024.406005859375 912.0Q1053.406005859375 912.0 1073.906005859375 884.5Q1094.406005859375 857.0 1094.406005859375 819.0H1052.406005859375Q1052.406005859375 838.0 1043.906005859375 851.5Q1035.406005859375 865.0 1024.406005859375 865.0Q1012.406005859375 865.0 1003.906005859375 851.5Q995.406005859375 838.0 995.406005859375 819.0Q995.406005859375 803.0 1002.406005859375 790.0Z" fill="#94d1e0" stroke="none" transform="scale(1,-1) translate(0,-256)" /></svg>