<?xml version="1.0" encoding="utf-8" ?>
<svg baseProfile="full" height="256" version="1.1" width="256" xmlns="http://www.w3.org/2000/svg" xmlns:ev="http://www.w3.org/2001/xml-events" xmlns:xlink="http://www.w3.org/1999/xlink"><defs /><path d="M1010 -143V-141L652 -140L294 -141V-143Q317 -146 339.0 -147.5Q361 -149 384 -151Q406 -152 428.5 -153.5Q451 -155 473 -156Q496 -157 518.0 -157.5Q540 -158 563 -158L652 -159L741 -158Q764 -158 786.5 -157.5Q809 -157 831 -156Q853 -155 875.5 -153.5Q898 -152 920 -151Q943 -149 965.0 -147.5Q987 -146 1010 -143Z" fill="#757575" stroke="none" transform="scale(1,-1) translate(0,-256)" /></svg>