<?xml version="1.0" encoding="utf-8" ?>
<svg baseProfile="full" height="256" version="1.1" width="256" xmlns="http://www.w3.org/2000/svg" xmlns:ev="http://www.w3.org/2001/xml-events" xmlns:xlink="http://www.w3.org/1999/xlink"><defs /><path d="M244.29234313964844 764.6578369140625Q244.3206787109375 777.2457733154297 236.1738739013672 786.2656860351562Q228.02706909179688 795.2855987548828 216.75352478027344 795.5595397949219Q205.21278381347656 795.4434814453125 197.03427124023438 786.4336853027344Q188.8557586669922 777.4238891601562 189.21742248535156 764.5687561035156Q188.92189025878906 751.5908203125 197.06869506835938 742.5709075927734Q205.2154998779297 733.5509948730469 216.75624084472656 733.6670532226562Q228.02978515625 733.3931121826172 236.2082977294922 742.4029083251953Q244.38681030273438 751.4127044677734 244.29234313964844 764.6578369140625Z" fill="#af1e1e" stroke="none" transform="scale(1,-1) translate(0,-256)" /><path d="M398.79234313964844 764.6578369140625Q398.8206787109375 777.2457733154297 390.6738739013672 786.2656860351562Q382.5270690917969 795.2855987548828 371.25352478027344 795.5595397949219Q359.71278381347656 795.4434814453125 351.5342712402344 786.4336853027344Q343.3557586669922 777.4238891601562 343.71742248535156 764.5687561035156Q343.42189025878906 751.5908203125 351.5686950683594 742.5709075927734Q359.7154998779297 733.5509948730469 371.25624084472656 733.6670532226562Q382.52978515625 733.3931121826172 390.7082977294922 742.4029083251953Q398.8868103027344 751.4127044677734 398.79234313964844 764.6578369140625Z" fill="#af1e1e" stroke="none" transform="scale(1,-1) translate(0,-256)" /><path d="M553.1986389160156 764.6578369140625Q553.2269744873047 777.2457733154297 545.0801696777344 786.2656860351562Q536.9333648681641 795.2855987548828 525.6598205566406 795.5595397949219Q514.1190795898438 795.4434814453125 505.94056701660156 786.4336853027344Q497.7620544433594 777.4238891601562 498.12371826171875 764.5687561035156Q497.82818603515625 751.5908203125 505.97499084472656 742.5709075927734Q514.1217956542969 733.5509948730469 525.6625366210938 733.6670532226562Q536.9360809326172 733.3931121826172 545.1145935058594 742.4029083251953Q553.2931060791016 751.4127044677734 553.1986389160156 764.6578369140625Z" fill="#af1e1e" stroke="none" transform="scale(1,-1) translate(0,-256)" /><path d="M707.6986389160156 764.6578369140625Q707.7269744873047 777.2457733154297 699.5801696777344 786.2656860351562Q691.4333648681641 795.2855987548828 680.1598205566406 795.5595397949219Q668.6190795898438 795.4434814453125 660.4405670166016 786.4336853027344Q652.2620544433594 777.4238891601562 652.6237182617188 764.5687561035156Q652.3281860351562 751.5908203125 660.4749908447266 742.5709075927734Q668.6217956542969 733.5509948730469 680.1625366210938 733.6670532226562Q691.4360809326172 733.3931121826172 699.6145935058594 742.4029083251953Q707.7931060791016 751.4127044677734 707.6986389160156 764.6578369140625Z" fill="#af1e1e" stroke="none" transform="scale(1,-1) translate(0,-256)" /><path d="M862.1978302001953 764.6590423583984Q862.2261657714844 777.2469787597656 854.0793609619141 786.2668914794922Q845.9325561523438 795.2868041992188 834.6590118408203 795.5607452392578Q823.1182708740234 795.4446868896484 814.9397583007812 786.4348907470703Q806.7612457275391 777.4250946044922 807.1229095458984 764.5699615478516Q806.8273773193359 751.5920257568359 814.9741821289062 742.5721130371094Q823.1209869384766 733.5522003173828 834.6617279052734 733.6682586669922Q845.9352722167969 733.3943176269531 854.1137847900391 742.4041137695312Q862.2922973632812 751.4139099121094 862.1978302001953 764.6590423583984Z" fill="#af1e1e" stroke="none" transform="scale(1,-1) translate(0,-256)" /><path d="M1016.6986389160156 764.6578369140625Q1016.7269744873047 777.2457733154297 1008.5801696777344 786.2656860351562Q1000.4333648681641 795.2855987548828 989.1598205566406 795.5595397949219Q977.6190795898438 795.4434814453125 969.4405670166016 786.4336853027344Q961.2620544433594 777.4238891601562 961.6237182617188 764.5687561035156Q961.3281860351562 751.5908203125 969.4749908447266 742.5709075927734Q977.6217956542969 733.5509948730469 989.1625366210938 733.6670532226562Q1000.4360809326172 733.3931121826172 1008.6145935058594 742.4029083251953Q1016.7931060791016 751.4127044677734 1016.6986389160156 764.6578369140625Z" fill="#af1e1e" stroke="none" transform="scale(1,-1) translate(0,-256)" /></svg>