<?xml version="1.0" encoding="utf-8" ?>
<svg baseProfile="full" height="256" version="1.1" width="256" xmlns="http://www.w3.org/2000/svg" xmlns:ev="http://www.w3.org/2001/xml-events" xmlns:xlink="http://www.w3.org/1999/xlink"><defs /><path d="M565.0299224853516 548.8446197509766Q565.0299224853516 556.0452423095703 562.3296890258789 562.3457870483398Q559.6294555664062 568.6463317871094 554.8410415649414 573.4347457885742Q550.0526275634766 578.2231597900391 543.752082824707 580.9233932495117Q537.4515380859375 583.6236267089844 530.1789093017578 583.6236267089844Q522.9782867431641 583.6236267089844 516.6777420043945 580.9233932495117Q510.377197265625 578.2231597900391 505.58878326416016 573.4347457885742Q500.8003692626953 568.6463317871094 498.10013580322266 562.3457870483398Q495.39990234375 556.0452423095703 495.39990234375 548.8446197509766Q495.39990234375 541.5719909667969 498.10013580322266 535.2714462280273Q500.8003692626953 528.9709014892578 505.58878326416016 524.182487487793Q510.377197265625 519.3940734863281 516.6777420043945 516.6938400268555Q522.9782867431641 513.9936065673828 530.1789093017578 513.9936065673828Q537.4515380859375 513.9936065673828 543.752082824707 516.6938400268555Q550.0526275634766 519.3940734863281 554.8410415649414 524.182487487793Q559.6294555664062 528.9709014892578 562.3296890258789 535.2714462280273Q565.0299224853516 541.5719909667969 565.0299224853516 548.8446197509766Z" fill="#fcebcd" stroke="none" transform="scale(1,-1) translate(0,-256)" /><path d="M786 691Q779 704 768.5 709.5Q758 715 750 710Q742 706 741.5 694.0Q741 682 748 669Q755 657 765.5 651.0Q776 645 784 650Q792 655 793.0 667.0Q794 679 786 691Z" fill="#fcebcd" stroke="none" transform="scale(1,-1) translate(0,-256)" /><path d="M536.30224609375 246.12527465820312Q529.0050048828125 259.9847717285156 516.8031311035156 265.5088806152344Q504.60125732421875 271.0329895019531 494.2066345214844 265.56005859375Q483.81201171875 260.0871276855469 481.54344177246094 247.16537475585938Q479.2748718261719 234.24362182617188 485.3502197265625 220.18331909179688Q492.6474609375 206.32382202148438 504.8493347167969 200.79971313476562Q517.0512084960938 195.27560424804688 527.4458312988281 200.74853515625Q537.8404541015625 206.22146606445312 540.719970703125 219.24362182617188Q543.5994873046875 232.26577758789062 536.30224609375 246.12527465820312Z" fill="#fcebcd" stroke="none" transform="scale(1,-1) translate(0,-256)" /><path d="M825.6616973876953 384.7689514160156Q825.4605712890625 399.164794921875 817.6803512573242 409.1939239501953Q809.9001312255859 419.2230529785156 799.3235931396484 419.0752868652344Q788.4532623291016 418.9234161376953 781.103157043457 408.68289947509766Q773.7530517578125 398.4423828125 773.9541778564453 384.0465393066406Q774.1553039550781 369.65069580078125 781.7906799316406 359.47261810302734Q789.4260559082031 349.29454040527344 800.29638671875 349.4464111328125Q810.8729248046875 349.59417724609375 818.3678741455078 359.983642578125Q825.8628234863281 370.37310791015625 825.6616973876953 384.7689514160156Z" fill="#fcebcd" stroke="none" transform="scale(1,-1) translate(0,-256)" /></svg>