<?xml version="1.0" encoding="utf-8" ?>
<svg baseProfile="full" height="256" version="1.1" width="256" xmlns="http://www.w3.org/2000/svg" xmlns:ev="http://www.w3.org/2001/xml-events" xmlns:xlink="http://www.w3.org/1999/xlink"><defs /><path d="M348 170Q336 177 330.0 167.5Q324 158 327 144Q330 127 340.0 101.5Q350 76 363.5 50.0Q377 24 390 6Q425 -41 466.0 -87.0Q507 -133 560 -163Q592 -181 615.5 -178.0Q639 -175 649.0 -159.5Q659 -144 652 -125Q639 -93 609.5 -56.5Q580 -20 542.5 16.0Q505 52 466.5 83.5Q428 115 396.0 138.0Q364 161 348 170Z" fill="#7cb243" stroke="none" transform="scale(1,-1) translate(0,-256)" /><path d="M654.9388122558594 223.7187042236328H611.6061401367188V-127.45042419433594H654.9388122558594Z" fill="#7cb243" stroke="none" transform="scale(1,-1) translate(0,-256)" /><path d="M949 142Q950 137 948.5 131.5Q947 126 946 124Q941 118 922.5 95.0Q904 72 877.0 39.0Q850 6 821.0 -30.0Q792 -66 765.0 -98.5Q738 -131 719.5 -153.0Q701 -175 696 -179Q679 -195 656.5 -203.5Q634 -212 610 -212Q603 -213 588.0 -211.5Q573 -210 558 -206Q559 -192 577.0 -168.0Q595 -144 622.5 -114.5Q650 -85 682.0 -54.0Q714 -23 744.0 4.0Q774 31 796.5 50.5Q819 70 828 77Q877 113 905.5 127.0Q934 141 949 142Z" fill="#7cb243" stroke="none" transform="scale(1,-1) translate(0,-256)" /></svg>