<?xml version="1.0" encoding="utf-8" ?>
<svg baseProfile="full" height="256" version="1.1" width="256" xmlns="http://www.w3.org/2000/svg" xmlns:ev="http://www.w3.org/2001/xml-events" xmlns:xlink="http://www.w3.org/1999/xlink"><defs /><path d="M810 445Q810 445 817.0 429.5Q824 414 834.0 391.5Q844 369 854.0 345.5Q864 322 870.5 305.5Q877 289 876 288Q865 269 842.0 260.5Q819 252 805 249Q826 236 833.5 217.5Q841 199 841.5 181.5Q842 164 841 156Q839 147 834.0 139.5Q829 132 819 130Q810 128 803.0 135.5Q796 143 791.5 152.5Q787 162 785 166Q778 181 764.0 189.5Q750 198 735 184Q725 175 723.5 163.0Q722 151 735 139Q743 131 755.5 121.0Q768 111 768 100Q767 93 757.5 85.5Q748 78 725 79Q692 81 674.0 94.0Q656 107 648.5 120.0Q641 133 641 133Q638 103 621.5 83.0Q605 63 585.0 56.0Q565 49 552 59Q541 67 545.0 81.0Q549 95 555.5 112.5Q562 130 558 150Q556 157 543.5 179.0Q531 201 514.0 226.5Q497 252 481.5 271.5Q466 291 459 292Q442 296 423.5 287.0Q405 278 389.5 268.5Q374 259 364 261Q354 263 352.0 271.0Q350 279 353 292Q355 304 364.5 324.5Q374 345 394 356Q377 370 368.0 398.0Q359 426 359 448Q359 457 362.5 465.5Q366 474 374 477Q383 479 391.0 473.0Q399 467 405 460Q412 452 424.5 439.5Q437 427 446.5 420.0Q456 413 454 423Q446 458 455.5 474.5Q465 491 490 515Q502 526 505.5 547.5Q509 569 508.0 592.5Q507 616 504.5 632.0Q502 648 502 648Q486 665 471.0 685.0Q456 705 450.5 724.5Q445 744 459 758Q466 766 475.5 761.5Q485 757 497.5 749.0Q510 741 525.5 735.0Q541 729 560 734Q596 742 621.0 759.0Q646 776 638 795Q634 802 627.0 821.5Q620 841 622.0 865.0Q624 889 649 911Q655 917 665.5 903.0Q676 889 684.5 869.0Q693 849 694 838Q706 846 723.0 858.5Q740 871 754.5 877.0Q769 883 772 870Q778 843 770.5 824.0Q763 805 750.0 793.0Q737 781 726.5 775.5Q716 770 716 770Q716 770 724.5 751.0Q733 732 746.0 704.5Q759 677 771.5 648.5Q784 620 793.5 601.0Q803 582 804 581Q821 563 834.5 563.5Q848 564 858.5 571.5Q869 579 877.5 584.5Q886 590 894 583Q908 570 903.5 542.0Q899 514 883 493Q870 477 853.0 466.5Q836 456 823.0 450.5Q810 445 810 445Z" fill="#7350d3" stroke="none" transform="scale(1,-1) translate(0,-256)" /></svg>