<?xml version="1.0" encoding="utf-8" ?>
<svg baseProfile="full" height="256" version="1.1" width="256" xmlns="http://www.w3.org/2000/svg" xmlns:ev="http://www.w3.org/2001/xml-events" xmlns:xlink="http://www.w3.org/1999/xlink"><defs /><path d="M892 183 825 194Q825 194 804.5 177.5Q784 161 754.5 128.0Q725 95 700 46Q676 -3 674.5 -26.0Q673 -49 673 -49L780 -95L814 -73Q814 -73 805.5 -68.5Q797 -64 789.5 -55.5Q782 -47 786 -35Q789 -26 802.5 -24.5Q816 -23 832.5 -25.5Q849 -28 861.5 -31.5Q874 -35 874 -35L997 -64Q997 -64 1002.0 -50.0Q1007 -36 1012.0 -21.0Q1017 -6 1017 -3Q1017 -1 1000.5 7.0Q984 15 962.5 24.0Q941 33 924.5 40.0Q908 47 908 47Q908 47 917.5 62.0Q927 77 945 96Q970 121 984.5 129.0Q999 137 995 146Q991 155 967.0 155.0Q943 155 908 134Q887 122 874.5 107.5Q862 93 856.0 82.0Q850 71 850 71L821 84Q821 84 824.5 97.5Q828 111 839 125Q848 139 860.5 152.0Q873 165 882.5 174.0Q892 183 892 183Z" fill="#5e6268" stroke="none" transform="scale(1,-1) translate(0,-256)" /></svg>