<?xml version="1.0" encoding="utf-8" ?>
<svg baseProfile="full" height="256" version="1.1" width="256" xmlns="http://www.w3.org/2000/svg" xmlns:ev="http://www.w3.org/2001/xml-events" xmlns:xlink="http://www.w3.org/1999/xlink"><defs /><path d="M377 408Q377 408 362.0 396.5Q347 385 326.0 365.5Q305 346 287 322Q274 305 264.0 284.0Q254 263 248.0 248.5Q242 234 242 234Q242 234 252.0 234.5Q262 235 297.0 233.5Q332 232 406 228Q462 224 502.0 210.5Q542 197 568.0 181.5Q594 166 606.5 154.5Q619 143 619 143L396 33Q396 33 381.5 50.0Q367 67 347.5 88.5Q328 110 313 123Q290 144 264.5 154.5Q239 165 226 168Q210 172 196.5 171.5Q183 171 175 176Q160 186 163.0 201.5Q166 217 167 223Q167 227 175.0 251.0Q183 275 199.5 304.5Q216 334 243 354Q270 374 301.5 386.0Q333 398 355.0 403.0Q377 408 377 408Z" fill="#fe2a22" stroke="none" transform="scale(1,-1) translate(0,-256)" /><path d="M429 313Q429 314 447.5 322.0Q466 330 491.0 340.0Q516 350 537.5 357.5Q559 365 565 366Q570 366 586.5 360.0Q603 354 625.0 345.0Q647 336 667.5 326.5Q688 317 702.0 311.0Q716 305 716 305Q716 305 691.5 294.5Q667 284 629.5 275.0Q592 266 552 269Q513 272 485.5 283.0Q458 294 443.5 303.5Q429 313 429 313Z" fill="#fe2a22" stroke="none" transform="scale(1,-1) translate(0,-256)" /></svg>