<?xml version="1.0" encoding="utf-8" ?>
<svg baseProfile="full" height="256" version="1.1" width="256" xmlns="http://www.w3.org/2000/svg" xmlns:ev="http://www.w3.org/2001/xml-events" xmlns:xlink="http://www.w3.org/1999/xlink"><defs /><path d="M1135.181396484375 647.9799194335938Q1135.181396484375 677.5300903320312 1124.100082397461 703.3864898681641Q1113.0187683105469 729.2428894042969 1093.367904663086 748.8937530517578Q1073.717041015625 768.5446166992188 1047.8606414794922 779.6259307861328Q1022.0042419433594 790.7072448730469 992.1585693359375 790.7072448730469Q962.6083984375 790.7072448730469 936.7519989013672 779.6259307861328Q910.8955993652344 768.5446166992188 891.2447357177734 748.8937530517578Q871.5938720703125 729.2428894042969 860.5125579833984 703.3864898681641Q849.4312438964844 677.5300903320312 849.4312438964844 647.9799194335938Q849.4312438964844 618.1342468261719 860.5125579833984 592.2778472900391Q871.5938720703125 566.4214477539062 891.2447357177734 546.7705841064453Q910.8955993652344 527.1197204589844 936.7519989013672 516.0384063720703Q962.6083984375 504.95709228515625 992.1585693359375 504.95709228515625Q1022.0042419433594 504.95709228515625 1047.8606414794922 516.0384063720703Q1073.717041015625 527.1197204589844 1093.367904663086 546.7705841064453Q1113.0187683105469 566.4214477539062 1124.100082397461 592.2778472900391Q1135.181396484375 618.1342468261719 1135.181396484375 647.9799194335938Z" fill="#878787" stroke="none" transform="scale(1,-1) translate(0,-256)" /></svg>