<?xml version="1.0" encoding="utf-8" ?>
<svg baseProfile="full" height="256" version="1.1" width="256" xmlns="http://www.w3.org/2000/svg" xmlns:ev="http://www.w3.org/2001/xml-events" xmlns:xlink="http://www.w3.org/1999/xlink"><defs /><path d="M298 818Q317 819 330.0 806.0Q343 793 343 774Q343 756 330.0 742.5Q317 729 299 729Q278 729 264 746L253 737Q245 730 236.0 734.5Q227 739 227 749L226 798Q226 808 235.0 812.5Q244 817 252 811L264 801Q277 818 298 818Z" fill="#616161" stroke="none" transform="scale(1,-1) translate(0,-256)" /><path d="M536 835Q541 827 535.5 818.5Q530 810 520 811L505 813Q502 792 484 781Q468 771 450.0 775.5Q432 780 423 796Q413 812 417.5 830.0Q422 848 438 858Q456 868 477 861L482 875Q485 884 495.5 885.0Q506 886 511 877Z" fill="#616161" stroke="none" transform="scale(1,-1) translate(0,-256)" /></svg>