<?xml version="1.0" encoding="utf-8" ?>
<svg baseProfile="full" height="256" version="1.1" width="256" xmlns="http://www.w3.org/2000/svg" xmlns:ev="http://www.w3.org/2001/xml-events" xmlns:xlink="http://www.w3.org/1999/xlink"><defs /><path d="M1099.7335205078125 675.3842468261719Q1099.7335205078125 693.0539245605469 1093.1073913574219 708.514892578125Q1086.4812622070312 723.9758605957031 1074.7309265136719 735.7261962890625Q1062.9805908203125 747.4765319824219 1047.5196228027344 754.1026611328125Q1032.0586547851562 760.7287902832031 1014.2122802734375 760.7287902832031Q996.5426025390625 760.7287902832031 981.0816345214844 754.1026611328125Q965.6206665039062 747.4765319824219 953.8703308105469 735.7261962890625Q942.1199951171875 723.9758605957031 935.4938659667969 708.514892578125Q928.8677368164062 693.0539245605469 928.8677368164062 675.3842468261719Q928.8677368164062 657.5378723144531 935.4938659667969 642.076904296875Q942.1199951171875 626.6159362792969 953.8703308105469 614.8656005859375Q965.6206665039062 603.1152648925781 981.0816345214844 596.4891357421875Q996.5426025390625 589.8630065917969 1014.2122802734375 589.8630065917969Q1032.0586547851562 589.8630065917969 1047.5196228027344 596.4891357421875Q1062.9805908203125 603.1152648925781 1074.7309265136719 614.8656005859375Q1086.4812622070312 626.6159362792969 1093.1073913574219 642.076904296875Q1099.7335205078125 657.5378723144531 1099.7335205078125 675.3842468261719Z" fill="#424242" stroke="none" transform="scale(1,-1) translate(0,-256)" /></svg>