<?xml version="1.0" encoding="utf-8" ?>
<svg baseProfile="full" height="256" version="1.1" width="256" xmlns="http://www.w3.org/2000/svg" xmlns:ev="http://www.w3.org/2001/xml-events" xmlns:xlink="http://www.w3.org/1999/xlink"><defs /><path d="M613 1 597 55Q517 32 446 122Q404 175 357 287Q355 292 354 295Q324 367 229 485Q173 553 155 584Q128 631 131 666Q137 720 194 738Q227 748 257 745L261 802Q220 805 178 792Q85 763 76 672Q70 618 106 556Q127 521 185 449Q275 338 302 273Q303 271 306 266Q355 147 402 87Q496 -32 613 1Z" fill="#bdbdbd" stroke="none" transform="scale(1,-1) translate(0,-256)" /><path d="M588 56 603 1Q715 31 733 169Q741 239 721 365Q719 382 718 388Q707 458 728 600Q741 691 741 732Q740 804 708 847Q652 920 558 897Q515 887 481 863L514 817Q539 835 572 842Q630 856 663 813Q684 785 684 731Q685 695 672 608Q651 458 662 380Q663 373 666 356Q685 238 677 176Q664 76 588 56Z" fill="#bdbdbd" stroke="none" transform="scale(1,-1) translate(0,-256)" /><path d="M1122.9411010742188 658.2542724609375Q1122.9411010742188 684.23388671875 1113.198745727539 706.9660491943359Q1103.4563903808594 729.6982116699219 1086.179946899414 746.9746551513672Q1068.9035034179688 764.2510986328125 1046.1713409423828 773.9934539794922Q1023.4391784667969 783.7358093261719 997.1997680664062 783.7358093261719Q971.2201538085938 783.7358093261719 948.4879913330078 773.9934539794922Q925.7558288574219 764.2510986328125 908.4793853759766 746.9746551513672Q891.2029418945312 729.6982116699219 881.4605865478516 706.9660491943359Q871.7182312011719 684.23388671875 871.7182312011719 658.2542724609375Q871.7182312011719 632.0148620605469 881.4605865478516 609.2826995849609Q891.2029418945312 586.550537109375 908.4793853759766 569.2740936279297Q925.7558288574219 551.9976501464844 948.4879913330078 542.2552947998047Q971.2201538085938 532.512939453125 997.1997680664062 532.512939453125Q1023.4391784667969 532.512939453125 1046.1713409423828 542.2552947998047Q1068.9035034179688 551.9976501464844 1086.179946899414 569.2740936279297Q1103.4563903808594 586.550537109375 1113.198745727539 609.2826995849609Q1122.9411010742188 632.0148620605469 1122.9411010742188 658.2542724609375Z" fill="#bdbdbd" stroke="none" transform="scale(1,-1) translate(0,-256)" /></svg>