<?xml version="1.0" encoding="utf-8" ?>
<svg baseProfile="full" height="256" version="1.1" width="256" xmlns="http://www.w3.org/2000/svg" xmlns:ev="http://www.w3.org/2001/xml-events" xmlns:xlink="http://www.w3.org/1999/xlink"><defs /><path d="M435 808Q439 802 441.5 806.0Q444 810 446.5 818.5Q449 827 456 832Q463 837 471.0 836.0Q479 835 483.5 835.5Q488 836 483 843Q477 852 464.5 854.5Q452 857 442 850Q432 843 430.5 830.0Q429 817 435 808Z" fill="#757575" stroke="none" transform="scale(1,-1) translate(0,-256)" /><path d="M272 788Q270 780 274.5 781.5Q279 783 287.0 786.5Q295 790 303 788Q311 786 316.0 779.5Q321 773 324.0 769.5Q327 766 330 774Q333 785 326.5 796.0Q320 807 308 810Q296 813 285.5 805.5Q275 798 272 788Z" fill="#757575" stroke="none" transform="scale(1,-1) translate(0,-256)" /></svg>