<?xml version="1.0" encoding="utf-8" ?>
<svg baseProfile="full" height="256" version="1.1" width="256" xmlns="http://www.w3.org/2000/svg" xmlns:ev="http://www.w3.org/2001/xml-events" xmlns:xlink="http://www.w3.org/1999/xlink"><defs /><path d="M638 950Q754 950 855.5 939.0Q957 928 1034.0 908.5Q1111 889 1154.5 863.5Q1198 838 1198 808Q1198 769 1140.0 732.0Q1082 695 958.5 671.5Q835 648 638 648Q481 648 373.5 661.5Q266 675 200.5 698.5Q135 722 106.0 750.5Q77 779 77 808Q77 838 120.5 863.5Q164 889 241.0 908.5Q318 928 419.5 939.0Q521 950 638 950ZM638 749Q727 749 805.5 752.5Q884 756 943.5 764.0Q1003 772 1037.0 784.0Q1071 796 1071 813Q1071 831 1037.0 847.5Q1003 864 943.5 877.5Q884 891 805.5 899.5Q727 908 638 908Q548 908 469.5 900.0Q391 892 331.5 878.5Q272 865 238.0 848.0Q204 831 204 814Q204 797 238.0 784.5Q272 772 331.5 764.0Q391 756 469.5 752.5Q548 749 638 749Z" fill="#4fc3f7" stroke="none" transform="scale(1,-1) translate(0,-256)" /></svg>