<?xml version="1.0" encoding="utf-8" ?>
<svg baseProfile="full" height="256" version="1.1" width="256" xmlns="http://www.w3.org/2000/svg" xmlns:ev="http://www.w3.org/2001/xml-events" xmlns:xlink="http://www.w3.org/1999/xlink"><defs /><path d="M460 236Q455 236 448.5 235.5Q442 235 436 235Q380 235 334.5 263.0Q289 291 261.5 338.0Q234 385 234 442Q234 481 250.5 525.5Q267 570 312.5 610.5Q358 651 444 679Q494 695 535.5 701.5Q577 708 622 708Q668 708 712.5 701.0Q757 694 798 678Q881 648 940 593Q952 583 952 568Q952 553 942.0 543.5Q932 534 918 534Q908 534 900 539Q875 556 846.5 569.5Q818 583 788 594Q710 619 623 619Q604 619 585.5 617.5Q567 616 548 614Q596 583 620.0 530.0Q644 477 638 418Q632 370 607.5 331.0Q583 292 544.5 266.5Q506 241 460 236ZM326 442Q326 394 358.5 360.5Q391 327 438 327Q484 327 516.5 360.5Q549 394 549 442Q549 490 516.5 523.5Q484 557 438 557Q391 557 358.5 523.5Q326 490 326 442Z" fill="#fafafa" stroke="none" transform="scale(1,-1) translate(0,-256)" /><path d="M838 465Q893 465 938.5 437.0Q984 409 1011.0 362.0Q1038 315 1037 257Q1037 218 1020.5 173.5Q1004 129 959.0 88.0Q914 47 827 20Q777 5 735.5 -2.0Q694 -9 650 -9Q603 -9 558.5 -2.0Q514 5 473 21Q392 50 331 107Q321 118 321 133Q321 147 330.5 156.5Q340 166 354 166Q365 166 373 161Q425 126 486 106Q564 81 652 81Q671 81 689.0 82.5Q707 84 726 86Q679 117 655.0 170.0Q631 223 638 283Q643 330 668.0 369.0Q693 408 731.0 433.5Q769 459 816 464Q821 465 827.0 465.0Q833 465 838 465ZM838 143Q884 143 916.5 176.5Q949 210 949 258Q949 306 917.0 339.5Q885 373 838 373Q792 373 759.5 339.5Q727 306 727 258Q727 210 759.5 176.5Q792 143 838 143Z" fill="#fafafa" stroke="none" transform="scale(1,-1) translate(0,-256)" /></svg>