<?xml version="1.0" encoding="utf-8" ?>
<svg baseProfile="full" height="256" version="1.1" width="256" xmlns="http://www.w3.org/2000/svg" xmlns:ev="http://www.w3.org/2001/xml-events" xmlns:xlink="http://www.w3.org/1999/xlink"><defs /><path d="M506 -11Q477 19 465.5 51.5Q454 84 453.5 115.5Q453 147 458.5 172.0Q464 197 469.5 212.0Q475 227 475 227Q475 227 481.0 209.0Q487 191 499.0 163.0Q511 135 528.5 104.5Q546 74 568.5 48.5Q591 23 619 11Q653 -5 695.0 -6.0Q737 -7 775.0 -1.0Q813 5 837.5 11.5Q862 18 862 18Q862 18 856.5 9.0Q851 0 828.5 -14.5Q806 -29 756 -45Q705 -61 654.5 -59.0Q604 -57 564.0 -43.5Q524 -30 506 -11Z" fill="#d27856" stroke="none" transform="scale(1,-1) translate(0,-256)" /><path d="M349 384Q349 384 354.0 374.5Q359 365 367.0 355.5Q375 346 383 346Q391 345 399.0 351.0Q407 357 414.5 360.5Q422 364 426 356Q431 349 426.0 337.0Q421 325 410.0 316.0Q399 307 387 307Q373 307 361.0 313.5Q349 320 349 320Q349 320 335.5 312.0Q322 304 298 309Q282 312 274.0 323.0Q266 334 265.5 345.0Q265 356 271 360Q277 364 280.5 360.5Q284 357 290.0 352.0Q296 347 308 347Q320 347 329.0 356.5Q338 366 343.5 375.0Q349 384 349 384Z" fill="#d27856" stroke="none" transform="scale(1,-1) translate(0,-256)" /><path d="M593 706Q637 719 665 714Q684 711 692.0 703.5Q700 696 703 683Q705 670 700.5 659.0Q696 648 689 644Q681 640 660.5 638.0Q640 636 623 631Q607 626 595.5 619.0Q584 612 573 604Q562 596 544.5 594.0Q527 592 516 605Q504 617 506.0 635.0Q508 653 518 662Q528 671 544.0 683.5Q560 696 593 706Z" fill="#d27856" stroke="none" transform="scale(1,-1) translate(0,-256)" /><path d="M733 681Q733 695 744.0 701.0Q755 707 769 705Q783 702 789.0 696.0Q795 690 795 679Q796 669 788.0 661.5Q780 654 760 656Q743 658 738.0 665.0Q733 672 733 681Z" fill="#d27856" stroke="none" transform="scale(1,-1) translate(0,-256)" /></svg>