<?xml version="1.0" encoding="utf-8" ?>
<svg baseProfile="full" height="256" version="1.1" width="256" xmlns="http://www.w3.org/2000/svg" xmlns:ev="http://www.w3.org/2001/xml-events" xmlns:xlink="http://www.w3.org/1999/xlink"><defs /><path d="M347 19 397 68Q397 68 402.0 58.0Q407 48 411.5 36.5Q416 25 416 23Q416 21 411.0 7.5Q406 -6 399.0 -22.5Q392 -39 386.5 -51.5Q381 -64 381 -64L401 -111Q401 -111 402.0 -127.0Q403 -143 403.0 -163.5Q403 -184 400.0 -199.5Q397 -215 389 -215Q374 -215 360.0 -212.0Q346 -209 346 -209Q346 -209 339.0 -192.5Q332 -176 322.5 -154.0Q313 -132 305.0 -115.0Q297 -98 295 -97Q292 -96 276.0 -92.0Q260 -88 239.5 -83.0Q219 -78 201.5 -72.5Q184 -67 180 -63Q177 -61 171.0 -48.0Q165 -35 160.0 -23.0Q155 -11 155 -11Z" fill="#875841" stroke="none" transform="scale(1,-1) translate(0,-256)" /></svg>