<?xml version="1.0" encoding="utf-8" ?>
<svg baseProfile="full" height="256" version="1.1" width="256" xmlns="http://www.w3.org/2000/svg" xmlns:ev="http://www.w3.org/2001/xml-events" xmlns:xlink="http://www.w3.org/1999/xlink"><defs /><path d="M493 396Q493 396 519.5 405.5Q546 415 576 433Q611 454 631.5 474.0Q652 494 673.5 507.5Q695 521 733 523Q761 524 778.5 513.0Q796 502 804.0 490.0Q812 478 812 478Q812 478 821.5 480.5Q831 483 846.0 478.5Q861 474 879 453Q896 433 904.5 400.5Q913 368 915.5 335.5Q918 303 918.0 278.5Q918 254 919 249Q921 242 923.5 240.5Q926 239 928 238Q934 236 936.5 240.5Q939 245 939 245Q939 245 935.0 223.0Q931 201 918.0 169.0Q905 137 879.5 105.0Q854 73 811.5 51.0Q769 29 705 29Q644 29 602.5 50.0Q561 71 535.0 102.0Q509 133 495.0 164.0Q481 195 476.0 216.0Q471 237 471 237Q471 237 474.5 233.5Q478 230 486 235Q491 239 491.0 262.5Q491 286 491 304Q490 316 489.5 336.5Q489 357 489.5 374.5Q490 392 493 396Z" fill="#ffca26" stroke="none" transform="scale(1,-1) translate(0,-256)" /></svg>