<?xml version="1.0" encoding="utf-8" ?>
<svg baseProfile="full" height="256" version="1.1" width="256" xmlns="http://www.w3.org/2000/svg" xmlns:ev="http://www.w3.org/2001/xml-events" xmlns:xlink="http://www.w3.org/1999/xlink"><defs /><path d="M997 87Q997 87 976.0 95.5Q955 104 931 125Q915 138 911.5 154.5Q908 171 909.5 182.5Q911 194 911 194L483 203Q483 203 484.0 190.0Q485 177 483.5 158.0Q482 139 477 124Q472 108 460.0 97.5Q448 87 437.0 81.0Q426 75 426 75Q446 63 463.0 65.5Q480 68 480 68Q480 68 493.0 51.5Q506 35 536 29Q562 24 580.5 28.5Q599 33 609.5 39.0Q620 45 620 45L705 91Q705 91 725.0 76.0Q745 61 778.5 45.5Q812 30 853 29Q893 28 913.0 33.5Q933 39 939.5 45.0Q946 51 946 53Q946 57 939.0 65.0Q932 73 932 73Q932 73 948.5 71.5Q965 70 987 81Q992 84 997 87Z" fill="#737373" stroke="none" transform="scale(1,-1) translate(0,-256)" /><path d="M819 507V508Q819 508 828.5 508.5Q838 509 853.0 505.5Q868 502 884 488Q902 471 913.0 451.5Q924 432 926.0 418.0Q928 404 918 403Q911 402 907.0 405.0Q903 408 903 408L716 380L493 396Q493 396 480.0 399.0Q467 402 455.0 408.0Q443 414 445 423Q447 430 463.5 432.5Q480 435 501.5 438.0Q523 441 542 449Q555 455 573.0 472.0Q591 489 613.0 509.0Q635 529 661.0 543.5Q687 558 716 560Q758 562 780.5 549.0Q803 536 811.0 521.5Q819 507 819 507Z" fill="#737373" stroke="none" transform="scale(1,-1) translate(0,-256)" /><path d="M525 364Q519 373 536.5 383.5Q554 394 582 395Q611 397 625.5 390.5Q640 384 635 369Q633 361 625.0 362.0Q617 363 606.0 366.5Q595 370 582 370Q558 369 543.5 363.0Q529 357 525 364Z" fill="#737373" stroke="none" transform="scale(1,-1) translate(0,-256)" /><path d="M772 365Q768 366 764.5 370.5Q761 375 763 381Q765 387 781.5 392.5Q798 398 825 396Q856 393 869.0 381.5Q882 370 877 364Q872 358 856.0 362.5Q840 367 821 369Q801 370 791.5 366.0Q782 362 772 365Z" fill="#737373" stroke="none" transform="scale(1,-1) translate(0,-256)" /></svg>