<?xml version="1.0" encoding="utf-8" ?>
<svg baseProfile="full" height="256" version="1.1" width="256" xmlns="http://www.w3.org/2000/svg" xmlns:ev="http://www.w3.org/2001/xml-events" xmlns:xlink="http://www.w3.org/1999/xlink"><defs /><path d="M886 424Q886 424 892.5 432.0Q899 440 907.0 444.0Q915 448 921 434Q929 413 933.0 397.0Q937 381 939.0 364.0Q941 347 944 321Q946 311 950.0 291.0Q954 271 957.5 254.5Q961 238 961 238L899 221L887 347Z" fill="#858585" stroke="none" transform="scale(1,-1) translate(0,-256)" /><path d="M461 415 504 414 513 230 469 224 462 277Q462 277 459.0 301.0Q456 325 456 347Q456 370 458.5 392.5Q461 415 461 415Z" fill="#858585" stroke="none" transform="scale(1,-1) translate(0,-256)" /></svg>