<?xml version="1.0" encoding="utf-8" ?>
<svg baseProfile="full" height="256" version="1.1" width="256" xmlns="http://www.w3.org/2000/svg" xmlns:ev="http://www.w3.org/2001/xml-events" xmlns:xlink="http://www.w3.org/1999/xlink"><defs /><path d="M550 620 948 616 1130 527Q1130 527 1143.0 511.5Q1156 496 1167 468Q1180 437 1176.0 414.5Q1172 392 1172 392Q1172 392 1155.5 410.0Q1139 428 1104.5 454.0Q1070 480 1015.5 504.0Q961 528 884.5 542.0Q808 556 708 549Q600 542 522.0 512.5Q444 483 391.5 443.5Q339 404 308.0 366.0Q277 328 264.0 302.5Q251 277 251 277Q251 277 242.5 293.5Q234 310 232 330Q229 353 230.5 368.0Q232 383 232 383L347 514Z" fill="#7d8a9d" stroke="none" transform="scale(1,-1) translate(0,-256)" /></svg>