<?xml version="1.0" encoding="utf-8" ?>
<svg baseProfile="full" height="256" version="1.1" width="256" xmlns="http://www.w3.org/2000/svg" xmlns:ev="http://www.w3.org/2001/xml-events" xmlns:xlink="http://www.w3.org/1999/xlink"><defs /><path d="M1002 381Q1002 411 995.0 432.5Q988 454 986 478Q985 501 997.0 518.5Q1009 536 1032 541Q1048 544 1046.0 540.0Q1044 536 1035.0 529.0Q1026 522 1021 515Q1014 503 1015.0 490.0Q1016 477 1021.0 457.5Q1026 438 1031 406Q1036 374 1031.5 347.0Q1027 320 1022.0 297.5Q1017 275 1021 256Q1027 227 1043.5 209.5Q1060 192 1077 162Q1095 133 1104.5 106.0Q1114 79 1102 60Q1093 47 1086.5 46.5Q1080 46 1086 59Q1089 68 1079.5 92.0Q1070 116 1050 149Q1036 171 1022.5 183.5Q1009 196 999.0 211.5Q989 227 984 257Q980 287 984.5 304.0Q989 321 995.0 337.5Q1001 354 1002 381Z" fill="#865b54" stroke="none" transform="scale(1,-1) translate(0,-256)" /></svg>