<?xml version="1.0" encoding="utf-8" ?>
<svg baseProfile="full" height="256" version="1.1" width="256" xmlns="http://www.w3.org/2000/svg" xmlns:ev="http://www.w3.org/2001/xml-events" xmlns:xlink="http://www.w3.org/1999/xlink"><defs /><path d="M560 411Q557 441 540.5 453.5Q524 466 502 464Q476 462 465.0 441.0Q454 420 456 394Q459 369 475.5 352.5Q492 336 513 338Q534 341 548.5 360.5Q563 380 560 411Z" fill="#393531" stroke="none" transform="scale(1,-1) translate(0,-256)" /><path d="M808 406Q809 434 797.5 449.5Q786 465 766 467Q741 469 726.0 450.5Q711 432 709 408Q707 385 719.0 365.5Q731 346 751 345Q771 343 789.0 356.5Q807 370 808 406Z" fill="#393531" stroke="none" transform="scale(1,-1) translate(0,-256)" /><path d="M638.218994140625 347.625Q611.218994140625 347.625 600.218994140625 345.625Q589.218994140625 343.625 590.218994140625 329.625Q591.218994140625 316.625 608.218994140625 305.125Q625.218994140625 293.625 640.218994140625 293.625Q657.218994140625 293.625 671.718994140625 306.625Q686.218994140625 319.625 687.218994140625 328.625Q688.218994140625 341.625 677.218994140625 344.125Q666.218994140625 346.625 638.218994140625 347.625Z" fill="#393531" stroke="none" transform="scale(1,-1) translate(0,-256)" /></svg>