<?xml version="1.0" encoding="utf-8" ?>
<svg baseProfile="full" height="256" version="1.1" width="256" xmlns="http://www.w3.org/2000/svg" xmlns:ev="http://www.w3.org/2001/xml-events" xmlns:xlink="http://www.w3.org/1999/xlink"><defs /><path d="M227 537Q226 540 236.5 540.0Q247 540 260.0 533.0Q273 526 279 510Q289 484 281.5 459.0Q274 434 275 413Q276 390 280.0 374.0Q284 358 288.0 337.5Q292 317 292 279Q293 251 278.5 224.5Q264 198 245.5 174.0Q227 150 212.0 130.5Q197 111 197 98Q196 80 202.0 73.5Q208 67 213.5 65.0Q219 63 215 60Q210 54 197.0 55.0Q184 56 176 68Q168 80 169.0 107.5Q170 135 198 167Q226 198 240.0 221.5Q254 245 257 281Q261 316 250.5 340.0Q240 364 238 393Q237 413 242.0 427.5Q247 442 252.0 456.5Q257 471 255 490Q253 505 245.0 514.0Q237 523 227 537Z" fill="#855b50" stroke="none" transform="scale(1,-1) translate(0,-256)" /></svg>