<?xml version="1.0" encoding="utf-8" ?>
<svg baseProfile="full" height="256" version="1.1" width="256" xmlns="http://www.w3.org/2000/svg" xmlns:ev="http://www.w3.org/2001/xml-events" xmlns:xlink="http://www.w3.org/1999/xlink"><defs /><path d="M635 535Q612 534 592.5 543.5Q573 553 553.5 565.0Q534 577 512.5 584.5Q491 592 465.0 588.0Q439 584 407 560Q377 539 370.0 513.0Q363 487 368.5 459.5Q374 432 382.0 406.0Q390 380 391 359Q393 337 385.5 318.0Q378 299 370.0 279.0Q362 259 359.0 236.5Q356 214 366 187Q385 129 454.5 96.5Q524 64 640 62Q730 60 799.0 92.0Q868 124 895 175Q911 206 911.5 230.5Q912 255 905.0 275.0Q898 295 890.5 314.0Q883 333 882 354Q882 379 889.0 403.5Q896 428 901.0 453.0Q906 478 899.5 504.0Q893 530 864 556Q833 585 803.0 586.0Q773 587 744.0 574.5Q715 562 688.0 548.5Q661 535 635 535Z" fill="#ffcd88" stroke="none" transform="scale(1,-1) translate(0,-256)" /></svg>