<?xml version="1.0" encoding="utf-8" ?>
<svg baseProfile="full" height="256" version="1.1" width="256" xmlns="http://www.w3.org/2000/svg" xmlns:ev="http://www.w3.org/2001/xml-events" xmlns:xlink="http://www.w3.org/1999/xlink"><defs /><path d="M1068 63Q1024 107 990.5 126.5Q957 146 935.0 149.5Q913 153 901.5 150.5Q890 148 890 148Q893 155 903.0 167.0Q913 179 930.5 187.5Q948 196 974.0 194.0Q1000 192 1034.5 172.5Q1069 153 1114 108Q1159 64 1178.5 29.0Q1198 -6 1200.0 -32.0Q1202 -58 1193.0 -75.5Q1184 -93 1172.5 -102.5Q1161 -112 1153 -115Q1153 -115 1156.0 -104.0Q1159 -93 1155.0 -70.5Q1151 -48 1132.0 -15.0Q1113 18 1068 63Z" fill="#616161" stroke="none" transform="scale(1,-1) translate(0,-256)" /><path d="M212 481Q207 495 216.5 506.5Q226 518 241 514Q269 507 308.0 510.0Q347 513 388 544Q390 546 394 548Q394 548 388.0 535.0Q382 522 382 507Q382 496 383.5 476.5Q385 457 397.0 426.5Q409 396 441.0 351.5Q473 307 534 246Q594 185 638.5 153.5Q683 122 713.5 109.5Q744 97 763.5 96.0Q783 95 795 95Q809 94 822.0 100.5Q835 107 835 107Q833 103 832 101Q801 59 798.0 20.0Q795 -19 801 -46Q805 -61 793.5 -71.0Q782 -81 768 -75Q740 -63 691.5 -37.5Q643 -12 579.5 34.5Q516 81 442 155Q368 229 322.0 292.5Q276 356 250.0 404.5Q224 453 212 481Z" fill="#616161" stroke="none" transform="scale(1,-1) translate(0,-256)" /><path d="M350.5 780.5Q394.5 736.5 414.0 703.0Q433.5 669.5 437.0 647.5Q440.5 625.5 438.0 614.0Q435.5 602.5 435.5 602.5Q442.5 605.5 454.5 615.5Q466.5 625.5 475.0 643.0Q483.5 660.5 481.5 686.5Q479.5 712.5 460.0 747.0Q440.5 781.5 395.5 826.5Q351.5 871.5 316.5 891.0Q281.5 910.5 255.5 912.5Q229.5 914.5 212.0 905.5Q194.5 896.5 185.0 885.0Q175.5 873.5 172.5 865.5Q172.5 865.5 183.5 868.5Q194.5 871.5 217.0 867.5Q239.5 863.5 272.5 844.5Q305.5 825.5 350.5 780.5Z" fill="#616161" stroke="none" transform="scale(1,-1) translate(0,-256)" /><path d="M129 623Q131 614 138.0 614.0Q145 614 148 625Q155 651 162.5 677.5Q170 704 189 725Q199 737 208.0 748.5Q217 760 219 772Q221 789 212.0 797.5Q203 806 191 807Q181 807 163.5 794.5Q146 782 134 741Q125 713 123.0 681.0Q121 649 129 623Z" fill="#616161" stroke="none" transform="scale(1,-1) translate(0,-256)" /><path d="M1022 -115Q1011 -123 999.0 -129.0Q987 -135 974 -140Q954 -148 940.0 -150.0Q926 -152 925 -160Q924 -166 938.0 -169.5Q952 -173 973.0 -173.5Q994 -174 1014 -170Q1029 -167 1051.0 -157.0Q1073 -147 1090.0 -130.5Q1107 -114 1110 -91Q1112 -81 1108.0 -72.5Q1104 -64 1099 -62Q1093 -59 1087.0 -61.5Q1081 -64 1076 -68Q1062 -79 1049.0 -91.5Q1036 -104 1022 -115Z" fill="#616161" stroke="none" transform="scale(1,-1) translate(0,-256)" /></svg>