<?xml version="1.0" encoding="utf-8" ?>
<svg baseProfile="full" height="256" version="1.1" width="256" xmlns="http://www.w3.org/2000/svg" xmlns:ev="http://www.w3.org/2001/xml-events" xmlns:xlink="http://www.w3.org/1999/xlink"><defs /><path d="M76 687Q81 733 99.0 768.5Q117 804 140.0 831.0Q163 858 185 878Q190 882 196 886Q208 895 221.0 899.0Q234 903 252.5 897.5Q271 892 299.0 871.0Q327 850 370 807Q415 762 433.5 728.0Q452 694 454.0 669.5Q456 645 449.0 628.5Q442 612 435 603Q435 603 427.0 593.0Q419 583 409.5 570.0Q400 557 394 548Q389 539 385.5 529.5Q382 520 382 507Q382 495 382.0 477.5Q382 460 392.0 432.0Q402 404 430.0 363.0Q458 322 515 263Q520 259 524.5 254.5Q529 250 533 246Q538 241 542.0 236.5Q546 232 551 228Q609 171 650.5 142.5Q692 114 719.5 104.5Q747 95 765.0 94.5Q783 94 795 95Q807 95 816.5 98.0Q826 101 835 107Q844 112 857.0 122.0Q870 132 880.0 140.0Q890 148 890 148Q900 154 916.5 161.0Q933 168 957.0 166.5Q981 165 1015.5 146.0Q1050 127 1095 82Q1137 40 1158.5 12.0Q1180 -16 1185.5 -34.5Q1191 -53 1186.5 -66.0Q1182 -79 1174 -91Q1171 -95 1169.0 -98.0Q1167 -101 1165 -102Q1145 -124 1118.0 -147.5Q1091 -171 1055.5 -188.5Q1020 -206 975 -211Q941 -215 880.5 -207.0Q820 -199 740.0 -169.5Q660 -140 566.0 -79.5Q472 -19 370 83Q268 185 207.5 279.0Q147 373 117.5 453.0Q88 533 80.5 593.0Q73 653 76 687Z" fill="#424242" stroke="none" transform="scale(1,-1) translate(0,-256)" /></svg>