<?xml version="1.0" encoding="utf-8" ?>
<svg baseProfile="full" height="256" version="1.1" width="256" xmlns="http://www.w3.org/2000/svg" xmlns:ev="http://www.w3.org/2001/xml-events" xmlns:xlink="http://www.w3.org/1999/xlink"><defs /><path d="M643 529Q632 521 623.5 525.5Q615 530 607 537Q604 539 597.0 544.5Q590 550 584 545Q582 542 583.5 538.5Q585 535 587 532Q597 524 600.5 513.0Q604 502 597 492Q588 480 574.5 479.5Q561 479 551.0 487.0Q541 495 545 509Q546 515 549.0 521.0Q552 527 553 534Q554 538 553.0 543.5Q552 549 546 548Q543 548 541.0 545.5Q539 543 537 540Q530 528 518.5 521.0Q507 514 494 522Q480 529 478.5 545.5Q477 562 488 570Q492 574 497.0 575.0Q502 576 507 576Q512 576 523.5 575.0Q535 574 532 583Q529 587 524.5 589.0Q520 591 516 592Q508 594 501.0 597.5Q494 601 491 611Q488 622 494.5 631.5Q501 641 510 647Q519 652 531.0 651.0Q543 650 547 638Q550 630 549.0 620.5Q548 611 552 605Q557 598 563.0 602.0Q569 606 568 614Q566 629 569.0 641.0Q572 653 590 654Q603 655 618.5 643.5Q634 632 631 618Q629 607 621.5 604.0Q614 601 604 597Q601 595 597.0 592.5Q593 590 592 586Q591 581 595 578Q602 573 609.5 575.5Q617 578 624 579Q641 584 648.5 575.0Q656 566 654.5 552.0Q653 538 643 529Z" fill="#ffe36c" stroke="none" transform="scale(1,-1) translate(0,-256)" /></svg>