<?xml version="1.0" encoding="utf-8" ?>
<svg baseProfile="full" height="256" version="1.1" width="256" xmlns="http://www.w3.org/2000/svg" xmlns:ev="http://www.w3.org/2001/xml-events" xmlns:xlink="http://www.w3.org/1999/xlink"><defs /><path d="M580.6295471191406 573.5077514648438Q580.6295471191406 577.2597045898438 579.2184143066406 580.5468139648438Q577.8072814941406 583.8339233398438 575.3170471191406 586.3407592773438Q572.8268127441406 588.8475952148438 569.5231018066406 590.2587280273438Q566.2193908691406 591.6698608398438 562.4674377441406 591.6698608398438Q558.7154846191406 591.6698608398438 555.4283752441406 590.2587280273438Q552.1412658691406 588.8475952148438 549.6344299316406 586.3407592773438Q547.1275939941406 583.8339233398438 545.7164611816406 580.5468139648438Q544.3053283691406 577.2597045898438 544.3053283691406 573.5077514648438Q544.3053283691406 569.7225952148438 545.7164611816406 566.4354858398438Q547.1275939941406 563.1483764648438 549.6344299316406 560.6581420898438Q552.1412658691406 558.1679077148438 555.4283752441406 556.7567749023438Q558.7154846191406 555.3456420898438 562.4674377441406 555.3456420898438Q566.2193908691406 555.3456420898438 569.5231018066406 556.7567749023438Q572.8268127441406 558.1679077148438 575.3170471191406 560.6581420898438Q577.8072814941406 563.1483764648438 579.2184143066406 566.4354858398438Q580.6295471191406 569.7225952148438 580.6295471191406 573.5077514648438Z" fill="#ff7555" stroke="none" transform="scale(1,-1) translate(0,-256)" /></svg>