<?xml version="1.0" encoding="utf-8" ?>
<svg baseProfile="full" height="256" version="1.1" width="256" xmlns="http://www.w3.org/2000/svg" xmlns:ev="http://www.w3.org/2001/xml-events" xmlns:xlink="http://www.w3.org/1999/xlink"><defs /><path d="M642.7796020507812 -155.60287475585938Q642.7796020507812 -143.8625030517578 638.3639755249023 -133.57669067382812Q633.9483489990234 -123.29087829589844 626.1560668945312 -115.44664764404297Q618.3637847900391 -107.6024169921875 608.0260238647461 -103.1867904663086Q597.6882629394531 -98.77116394042969 585.9478912353516 -98.77116394042969Q574.20751953125 -98.77116394042969 563.9217071533203 -103.1867904663086Q553.6358947753906 -107.6024169921875 545.7916641235352 -115.44664764404297Q537.9474334716797 -123.29087829589844 533.5318069458008 -133.57669067382812Q529.1161804199219 -143.8625030517578 529.1161804199219 -155.60287475585938Q529.1161804199219 -167.4471435546875 533.5318069458008 -177.7329559326172Q537.9474334716797 -188.01876831054688 545.7916641235352 -195.81105041503906Q553.6358947753906 -203.60333251953125 563.9217071533203 -208.01895904541016Q574.20751953125 -212.43458557128906 585.9478912353516 -212.43458557128906Q597.6882629394531 -212.43458557128906 608.0260238647461 -208.01895904541016Q618.3637847900391 -203.60333251953125 626.1560668945312 -195.81105041503906Q633.9483489990234 -188.01876831054688 638.3639755249023 -177.7329559326172Q642.7796020507812 -167.4471435546875 642.7796020507812 -155.60287475585938Z" fill="#616161" stroke="none" transform="scale(1,-1) translate(0,-256)" /><path d="M452 -131Q462 -137 474.0 -134.0Q486 -131 492 -121L517 -81Q523 -71 520.5 -59.0Q518 -47 507 -41L496 -34Q486 -28 474.0 -30.5Q462 -33 456 -44L431 -83Q425 -94 427.5 -106.0Q430 -118 441 -124Z" fill="#616161" stroke="none" transform="scale(1,-1) translate(0,-256)" /><path d="M363.87330627441406 15.959625244140625Q363.87330627441406 27.699996948242188 359.45767974853516 37.985809326171875Q355.04205322265625 48.27162170410156 347.24977111816406 56.11585235595703Q339.4574890136719 63.9600830078125 329.1197280883789 68.3757095336914Q318.78196716308594 72.79133605957031 307.0415954589844 72.79133605957031Q295.3012237548828 72.79133605957031 285.0154113769531 68.3757095336914Q274.72959899902344 63.9600830078125 266.88536834716797 56.11585235595703Q259.0411376953125 48.27162170410156 254.6255111694336 37.985809326171875Q250.2098846435547 27.699996948242188 250.2098846435547 15.959625244140625Q250.2098846435547 4.1153564453125 254.6255111694336 -6.1704559326171875Q259.0411376953125 -16.456268310546875 266.88536834716797 -24.248550415039062Q274.72959899902344 -32.04083251953125 285.0154113769531 -36.456459045410156Q295.3012237548828 -40.87208557128906 307.0415954589844 -40.87208557128906Q318.78196716308594 -40.87208557128906 329.1197280883789 -36.456459045410156Q339.4574890136719 -32.04083251953125 347.24977111816406 -24.248550415039062Q355.04205322265625 -16.456268310546875 359.45767974853516 -6.1704559326171875Q363.87330627441406 4.1153564453125 363.87330627441406 15.959625244140625Z" fill="#616161" stroke="none" transform="scale(1,-1) translate(0,-256)" /><path d="M173 41Q183 35 195.0 37.5Q207 40 213 51L238 91Q244 101 241.5 113.0Q239 125 228 131L217 138Q207 144 195.0 141.0Q183 138 177 128L152 88Q146 78 148.5 66.0Q151 54 162 48Z" fill="#616161" stroke="none" transform="scale(1,-1) translate(0,-256)" /><path d="M827 894Q832 901 846.0 908.0Q860 915 877 912Q887 910 895.5 907.5Q904 905 918.5 897.5Q933 890 960 874Q999 850 1012.0 838.5Q1025 827 1034 815Q1045 799 1043.5 785.5Q1042 772 1038 765L1014 726Q1008 716 1001 721Q1001 721 998.5 725.0Q996 729 984 737Q973 744 967.0 744.5Q961 745 961 745Q957 747 959.5 751.0Q962 755 965 759L970 767Q975 776 973.0 786.5Q971 797 962 802L893 844Q885 849 876.0 846.0Q867 843 862 834L851 815Q845 807 840 810Q840 810 837.0 816.0Q834 822 823 829Q812 836 806.0 835.5Q800 835 800 835Q794 839 799 847Z" fill="#616161" stroke="none" transform="scale(1,-1) translate(0,-256)" /></svg>