<?xml version="1.0" encoding="utf-8" ?>
<svg baseProfile="full" height="256" version="1.1" width="256" xmlns="http://www.w3.org/2000/svg" xmlns:ev="http://www.w3.org/2001/xml-events" xmlns:xlink="http://www.w3.org/1999/xlink"><defs /><path d="M552 -69Q569 -79 583.0 -76.0Q597 -73 607.0 -64.0Q617 -55 622.5 -46.5Q628 -38 627 -38Q634 -27 623 -20L551 24L510 -43Z" fill="#424242" stroke="none" transform="scale(1,-1) translate(0,-256)" /><path d="M723 -82 735 -89Q737 -90 736 -92Q721 -122 695.0 -131.5Q669 -141 644 -125L639 -121Q650 -122 665.5 -116.0Q681 -110 696 -89Q708 -73 723 -82Z" fill="#424242" stroke="none" transform="scale(1,-1) translate(0,-256)" /></svg>