<?xml version="1.0" encoding="utf-8" ?>
<svg baseProfile="full" height="256" version="1.1" width="256" xmlns="http://www.w3.org/2000/svg" xmlns:ev="http://www.w3.org/2001/xml-events" xmlns:xlink="http://www.w3.org/1999/xlink"><defs /><path d="M762 822V823Q773 798 772.5 769.5Q772 741 768.0 720.5Q764 700 764 700L665 637L556 691Q556 691 552.5 705.0Q549 719 546.0 741.0Q543 763 545 785Q541 789 535.0 800.5Q529 812 528 833Q526 865 539.5 880.0Q553 895 559 893Q563 893 566.5 888.5Q570 884 574 879Q579 874 587.5 873.0Q596 872 602 872Q608 872 623.5 874.5Q639 877 654 878Q735 882 762 822Z" fill="#62453b" stroke="none" transform="scale(1,-1) translate(0,-256)" /></svg>