<?xml version="1.0" encoding="utf-8" ?>
<svg baseProfile="full" height="256" version="1.1" width="256" xmlns="http://www.w3.org/2000/svg" xmlns:ev="http://www.w3.org/2001/xml-events" xmlns:xlink="http://www.w3.org/1999/xlink"><defs /><path d="M689 741Q683 743 685 748Q686 751 693.5 754.5Q701 758 713 757Q726 756 731.0 750.5Q736 745 733 742Q731 740 725.5 742.5Q720 745 712 745Q703 746 698.0 743.0Q693 740 689 741Z" fill="#785446" stroke="none" transform="scale(1,-1) translate(0,-256)" /><path d="M664 649Q677 650 684.5 653.0Q692 656 695 651Q697 646 690.5 640.0Q684 634 665 632Q649 631 640.0 637.5Q631 644 634 649Q636 654 644.0 651.0Q652 648 664 649Z" fill="#785446" stroke="none" transform="scale(1,-1) translate(0,-256)" /></svg>