<?xml version="1.0" encoding="utf-8" ?>
<svg baseProfile="full" height="256" version="1.1" width="256" xmlns="http://www.w3.org/2000/svg" xmlns:ev="http://www.w3.org/2001/xml-events" xmlns:xlink="http://www.w3.org/1999/xlink"><defs /><path d="M605 618Q605 618 598.5 601.0Q592 584 589 570Q587 560 584.0 543.5Q581 527 580.0 513.5Q579 500 585 499Q593 497 609.5 513.0Q626 529 644 544Q670 566 686.0 579.5Q702 593 706 599Q709 602 715.5 600.5Q722 599 723 597Q728 591 729.0 582.0Q730 573 731 556Q732 542 732.5 524.5Q733 507 733.0 493.5Q733 480 732 479Q730 477 720.5 486.5Q711 496 702 503Q691 512 680.5 520.0Q670 528 664 527Q657 527 647.5 513.0Q638 499 620 455Q608 426 599.0 395.5Q590 365 585.0 344.5Q580 324 580 324Q580 324 568.0 324.5Q556 325 545 326Q533 327 525.5 330.0Q518 333 518 333Q518 333 516.5 367.5Q515 402 528 453Q541 504 553.5 529.5Q566 555 566 562Q567 566 554.5 567.5Q542 569 529.0 568.5Q516 568 516 568Q516 568 524.0 577.0Q532 586 552 597Q573 609 589.0 613.5Q605 618 605 618Z" fill="#04bfa3" stroke="none" transform="scale(1,-1) translate(0,-256)" /><path d="M348 705Q348 703 358.5 698.0Q369 693 398 698Q424 703 435.5 712.5Q447 722 446 726Q445 730 439.0 744.0Q433 758 427.0 771.5Q421 785 419 785Q416 785 406.0 780.0Q396 775 384 773Q366 770 357.5 771.0Q349 772 347 771Q346 770 346.5 754.0Q347 738 347.5 721.5Q348 705 348 705Z" fill="#04bfa3" stroke="none" transform="scale(1,-1) translate(0,-256)" /></svg>