<?xml version="1.0" encoding="utf-8" ?>
<svg baseProfile="full" height="256" version="1.1" width="256" xmlns="http://www.w3.org/2000/svg" xmlns:ev="http://www.w3.org/2001/xml-events" xmlns:xlink="http://www.w3.org/1999/xlink"><defs /><path d="M728 661Q723 662 714.0 679.0Q705 696 701 705Q694 719 689.0 729.0Q684 739 682 763Q680 786 699.5 800.5Q719 815 746 813Q773 811 787.5 795.5Q802 780 802 757Q801 743 794.5 730.5Q788 718 771 697Q760 684 746.5 671.5Q733 659 728 661Z" fill="#06ac48" stroke="none" transform="scale(1,-1) translate(0,-256)" /><path d="M887 591Q885 592 885.0 609.0Q885 626 886 643Q886 650 887.0 665.0Q888 680 901 697Q913 714 938.0 716.0Q963 718 982 704Q997 693 1003.0 674.0Q1009 655 996 633Q985 612 971.0 607.0Q957 602 944 598Q932 595 911.5 591.5Q891 588 887 591Z" fill="#06ac48" stroke="none" transform="scale(1,-1) translate(0,-256)" /><path d="M767 538Q763 541 758.0 560.5Q753 580 753 600Q753 629 766.5 645.0Q780 661 799.5 663.0Q819 665 836 653Q862 635 859.0 612.5Q856 590 844 574Q835 562 817.5 553.0Q800 544 784.5 539.5Q769 535 767 538Z" fill="#06ac48" stroke="none" transform="scale(1,-1) translate(0,-256)" /><path d="M550 658Q546 656 530.5 666.0Q515 676 498.5 691.5Q482 707 475 720Q470 730 467.5 748.0Q465 766 474.0 782.0Q483 798 513 804Q543 809 558.0 798.0Q573 787 578.0 769.5Q583 752 583 739Q583 727 576.0 708.0Q569 689 561.0 674.0Q553 659 550 658Z" fill="#06ac48" stroke="none" transform="scale(1,-1) translate(0,-256)" /><path d="M388 585Q385 583 360.0 584.5Q335 586 305 604Q276 622 271.5 647.5Q267 673 291 695Q316 716 340.5 709.0Q365 702 377 686Q385 675 388.0 651.5Q391 628 391.0 607.5Q391 587 388 585Z" fill="#06ac48" stroke="none" transform="scale(1,-1) translate(0,-256)" /><path d="M442 468Q441 464 424.0 460.5Q407 457 387.0 455.0Q367 453 357 453Q346 453 329.0 458.5Q312 464 300.5 478.0Q289 492 296 518Q304 546 322.0 552.5Q340 559 359.0 552.5Q378 546 388 538Q398 529 411.5 514.5Q425 500 434.5 486.5Q444 473 442 468Z" fill="#06ac48" stroke="none" transform="scale(1,-1) translate(0,-256)" /><path d="M275 462Q273 459 251.0 457.5Q229 456 203 455Q179 453 167.0 467.0Q155 481 152.5 500.0Q150 519 156 532Q165 556 187.0 563.0Q209 570 229 556Q242 546 253.0 524.5Q264 503 270.5 483.5Q277 464 275 462Z" fill="#06ac48" stroke="none" transform="scale(1,-1) translate(0,-256)" /><path d="M530 533Q524 530 499.5 534.5Q475 539 448 556Q421 574 415.5 602.5Q410 631 431 648Q458 670 482.0 661.0Q506 652 517 634Q524 622 528.0 599.0Q532 576 532.5 556.0Q533 536 530 533Z" fill="#06ac48" stroke="none" transform="scale(1,-1) translate(0,-256)" /><path d="M637 567Q631 567 618.5 578.5Q606 590 595.0 607.5Q584 625 582 641Q578 665 595.0 682.0Q612 699 637 699Q669 698 679.5 677.5Q690 657 689 640Q687 622 674.5 605.0Q662 588 649.5 577.5Q637 567 637 567Z" fill="#06ac48" stroke="none" transform="scale(1,-1) translate(0,-256)" /><path d="M493 381Q493 381 485.0 371.0Q477 361 464.0 349.0Q451 337 435 332Q421 327 403.5 328.0Q386 329 373.5 340.5Q361 352 362 380Q362 407 377.0 418.0Q392 429 411.0 429.0Q430 429 441 424Q463 414 478.0 397.5Q493 381 493 381Z" fill="#06ac48" stroke="none" transform="scale(1,-1) translate(0,-256)" /><path d="M453 300Q454 298 449.0 286.0Q444 274 435.5 259.0Q427 244 418 233Q409 223 393.5 218.0Q378 213 362.5 218.0Q347 223 338 243Q327 266 334.5 281.0Q342 296 355.5 303.5Q369 311 378 311Q409 312 430.5 308.5Q452 305 453 300Z" fill="#06ac48" stroke="none" transform="scale(1,-1) translate(0,-256)" /><path d="M355 357Q355 353 339.0 338.5Q323 324 294 310Q262 295 238.0 312.0Q214 329 215 365Q215 383 226.0 397.0Q237 411 253.0 416.0Q269 421 286 413Q311 400 333.0 381.0Q355 362 355 357Z" fill="#06ac48" stroke="none" transform="scale(1,-1) translate(0,-256)" /><path d="M208 348Q208 343 198.0 332.0Q188 321 172.0 309.5Q156 298 139 295Q121 291 107.5 299.5Q94 308 86.5 321.0Q79 334 78 343Q77 365 91.5 383.5Q106 402 130 401Q146 400 164.0 388.0Q182 376 195.0 363.5Q208 351 208 348Z" fill="#06ac48" stroke="none" transform="scale(1,-1) translate(0,-256)" /><path d="M329 239Q329 239 322.0 225.5Q315 212 303.5 196.0Q292 180 278 171Q258 159 242.0 171.5Q226 184 220 198Q214 212 216.0 231.5Q218 251 238 257Q262 265 282.5 260.0Q303 255 316.0 247.0Q329 239 329 239Z" fill="#06ac48" stroke="none" transform="scale(1,-1) translate(0,-256)" /><path d="M214 196Q214 196 207.5 179.5Q201 163 190.0 145.0Q179 127 164 122Q143 113 129.0 124.5Q115 136 109 152Q103 167 105.5 188.5Q108 210 128 218Q142 223 162.0 217.0Q182 211 198.0 203.5Q214 196 214 196Z" fill="#06ac48" stroke="none" transform="scale(1,-1) translate(0,-256)" /><path d="M318 112Q319 110 313.0 94.0Q307 78 297.5 59.5Q288 41 277 33Q256 16 237.5 23.5Q219 31 211 43Q203 54 201.0 74.5Q199 95 222 109Q237 119 259.5 119.0Q282 119 300.0 115.5Q318 112 318 112Z" fill="#06ac48" stroke="none" transform="scale(1,-1) translate(0,-256)" /><path d="M435 176Q435 176 435.0 161.0Q435 146 431.5 126.5Q428 107 418 95Q403 78 377.5 80.5Q352 83 341 97Q332 109 333.0 130.0Q334 151 348 165Q358 174 379.0 176.0Q400 178 417.5 177.0Q435 176 435 176Z" fill="#06ac48" stroke="none" transform="scale(1,-1) translate(0,-256)" /><path d="M842 470Q844 467 863.5 463.5Q883 460 908.0 460.0Q933 460 951 466Q967 473 980.0 494.0Q993 515 976 543Q961 569 936.0 568.5Q911 568 896 560Q886 555 876.0 540.5Q866 526 858.5 509.5Q851 493 846.5 481.5Q842 470 842 470Z" fill="#06ac48" stroke="none" transform="scale(1,-1) translate(0,-256)" /><path d="M914 392Q915 388 932.0 378.5Q949 369 970.5 360.5Q992 352 1008 351Q1032 350 1046.0 365.0Q1060 380 1060 401Q1060 422 1043.0 437.5Q1026 453 1002 451Q985 450 964.0 436.5Q943 423 928.0 409.0Q913 395 914 392Z" fill="#06ac48" stroke="none" transform="scale(1,-1) translate(0,-256)" /><path d="M823 350Q821 343 834.5 320.5Q848 298 862 284Q876 271 900.5 273.5Q925 276 935 291Q946 305 939.5 326.5Q933 348 914 356Q901 361 879.5 359.0Q858 357 840.5 353.5Q823 350 823 350Z" fill="#06ac48" stroke="none" transform="scale(1,-1) translate(0,-256)" /><path d="M804 261Q802 259 805.5 242.5Q809 226 814.5 208.5Q820 191 823 185Q830 173 848.0 163.5Q866 154 884 167Q903 181 898.0 202.0Q893 223 882 231Q874 236 856.0 244.0Q838 252 822.0 257.0Q806 262 804 261Z" fill="#06ac48" stroke="none" transform="scale(1,-1) translate(0,-256)" /><path d="M944 284Q943 280 954.0 266.0Q965 252 979.0 237.0Q993 222 1000 215Q1008 209 1025.5 205.5Q1043 202 1060.0 209.5Q1077 217 1082 243Q1088 275 1073.5 288.0Q1059 301 1038.0 302.5Q1017 304 1003 301Q988 298 966.5 293.0Q945 288 944 284Z" fill="#06ac48" stroke="none" transform="scale(1,-1) translate(0,-256)" /><path d="M1046 329Q1049 324 1068.5 314.5Q1088 305 1109.5 297.0Q1131 289 1141 290Q1150 291 1163.0 297.5Q1176 304 1183.5 319.0Q1191 334 1186 360Q1181 387 1165.5 393.5Q1150 400 1132.5 395.5Q1115 391 1103 383Q1099 380 1084.5 368.0Q1070 356 1057.5 344.0Q1045 332 1046 329Z" fill="#06ac48" stroke="none" transform="scale(1,-1) translate(0,-256)" /><path d="M910 185Q909 182 913.0 167.0Q917 152 923.0 135.5Q929 119 937 110Q947 96 962.0 93.5Q977 91 990.0 96.0Q1003 101 1009 107Q1023 124 1017.5 144.5Q1012 165 996 176Q986 183 965.5 184.5Q945 186 927.5 185.5Q910 185 910 185Z" fill="#06ac48" stroke="none" transform="scale(1,-1) translate(0,-256)" /><path d="M1044 186Q1041 182 1049.5 166.0Q1058 150 1071.5 132.5Q1085 115 1098 106Q1114 95 1138.5 99.0Q1163 103 1171 128Q1178 153 1170.0 168.0Q1162 183 1138 192Q1121 199 1099.0 196.5Q1077 194 1060.5 190.0Q1044 186 1044 186Z" fill="#06ac48" stroke="none" transform="scale(1,-1) translate(0,-256)" /><path d="M1001 88Q998 85 997.0 69.5Q996 54 999.5 35.5Q1003 17 1011 6Q1025 -11 1047.5 -9.0Q1070 -7 1083 5Q1094 15 1097.0 31.5Q1100 48 1085 63Q1076 73 1057.0 80.0Q1038 87 1021.0 89.0Q1004 91 1001 88Z" fill="#06ac48" stroke="none" transform="scale(1,-1) translate(0,-256)" /><path d="M823 120Q821 118 822.0 102.5Q823 87 826.0 69.5Q829 52 832 43Q835 34 845.5 19.5Q856 5 872.5 -2.0Q889 -9 909 6Q925 18 926.0 32.0Q927 46 919.0 59.0Q911 72 900.0 81.5Q889 91 882 95Q873 100 860.0 106.5Q847 113 836.5 117.5Q826 122 823 120Z" fill="#06ac48" stroke="none" transform="scale(1,-1) translate(0,-256)" /><path d="M991 485Q992 482 1013.0 476.0Q1034 470 1060.0 466.0Q1086 462 1101 466Q1125 473 1128.5 495.5Q1132 518 1125 537Q1119 556 1099.5 565.0Q1080 574 1059 566Q1040 559 1024.5 540.0Q1009 521 1000.0 504.0Q991 487 991 485Z" fill="#06ac48" stroke="none" transform="scale(1,-1) translate(0,-256)" /></svg>