<?xml version="1.0" encoding="utf-8" ?>
<svg baseProfile="full" height="256" version="1.1" width="256" xmlns="http://www.w3.org/2000/svg" xmlns:ev="http://www.w3.org/2001/xml-events" xmlns:xlink="http://www.w3.org/1999/xlink"><defs /><path d="M537 469Q537 474 541.0 480.0Q545 486 557 486Q570 486 574.0 481.5Q578 477 578 468Q578 463 571.0 461.5Q564 460 554 461Q545 461 541.0 462.0Q537 463 537 469Z" fill="#e9dca7" stroke="none" transform="scale(1,-1) translate(0,-256)" /><path d="M722 482Q744 476 740 459Q737 451 729.5 454.0Q722 457 715 459Q708 460 701.5 461.5Q695 463 696 469Q697 475 703.0 480.0Q709 485 722 482Z" fill="#e9dca7" stroke="none" transform="scale(1,-1) translate(0,-256)" /><path d="M669 396Q669 403 675.5 409.0Q682 415 694 414Q707 413 712.5 405.0Q718 397 716 391Q713 385 706.0 385.0Q699 385 690 385Q682 386 675.5 387.5Q669 389 669 396Z" fill="#e9dca7" stroke="none" transform="scale(1,-1) translate(0,-256)" /><path d="M769 446Q770 450 775.5 454.0Q781 458 792 451Q803 444 803.0 438.0Q803 432 800 428Q796 424 791.0 425.5Q786 427 781 429Q776 432 771.5 436.0Q767 440 769 446Z" fill="#e9dca7" stroke="none" transform="scale(1,-1) translate(0,-256)" /><path d="M759 368Q761 375 769.0 375.5Q777 376 785 372Q791 368 793.5 359.5Q796 351 792 347Q788 343 780.5 344.5Q773 346 770 350Q765 353 761.0 357.5Q757 362 759 368Z" fill="#e9dca7" stroke="none" transform="scale(1,-1) translate(0,-256)" /><path d="M688 324Q688 332 698.0 335.5Q708 339 720 332Q743 319 732 303Q728 296 721.0 300.5Q714 305 709 309Q703 313 695.5 315.0Q688 317 688 324Z" fill="#e9dca7" stroke="none" transform="scale(1,-1) translate(0,-256)" /><path d="M666 269Q664 264 668.0 259.0Q672 254 677 249Q682 244 690.5 242.0Q699 240 702 245Q705 250 702.5 257.5Q700 265 692 270Q685 275 676.5 275.5Q668 276 666 269Z" fill="#e9dca7" stroke="none" transform="scale(1,-1) translate(0,-256)" /></svg>