<?xml version="1.0" encoding="utf-8" ?>
<svg baseProfile="full" height="256" version="1.1" width="256" xmlns="http://www.w3.org/2000/svg" xmlns:ev="http://www.w3.org/2001/xml-events" xmlns:xlink="http://www.w3.org/1999/xlink"><defs /><path d="M567 13Q567 13 567.5 3.0Q568 -7 572 -14Q576 -21 585.0 -36.5Q594 -52 598 -59Q606 -74 614.0 -93.0Q622 -112 622 -120Q622 -128 612.0 -132.5Q602 -137 590 -142Q563 -154 567 -169Q569 -177 584.0 -174.0Q599 -171 611 -168Q622 -165 639.5 -156.5Q657 -148 663 -139Q666 -133 662.5 -120.0Q659 -107 654.0 -93.5Q649 -80 647 -71Q645 -62 638.5 -45.0Q632 -28 626.0 -14.5Q620 -1 620 -1Z" fill="#b0b1b0" stroke="none" transform="scale(1,-1) translate(0,-256)" /><path d="M683 2 725 9Q725 9 726.0 -2.5Q727 -14 728.0 -27.0Q729 -40 729 -44Q728 -51 717.5 -55.5Q707 -60 702 -63Q690 -69 691 -83Q691 -95 689.5 -104.5Q688 -114 678 -116Q672 -116 668.0 -109.0Q664 -102 663 -96Q661 -90 656.0 -70.0Q651 -50 652 -38Q653 -30 661.0 -26.5Q669 -23 677.5 -21.0Q686 -19 687 -17Q689 -14 686.0 -6.0Q683 2 683 2Z" fill="#b0b1b0" stroke="none" transform="scale(1,-1) translate(0,-256)" /></svg>