<?xml version="1.0" encoding="utf-8" ?>
<svg baseProfile="full" height="256" version="1.1" width="256" xmlns="http://www.w3.org/2000/svg" xmlns:ev="http://www.w3.org/2001/xml-events" xmlns:xlink="http://www.w3.org/1999/xlink"><defs /><path d="M591 558Q598 557 597.0 550.0Q596 543 603 541Q610 539 614.5 545.0Q619 551 627 547Q630 546 629.5 539.0Q629 532 623 526Q617 519 602.5 519.0Q588 519 583 532Q577 545 580.0 552.0Q583 559 591 558Z" fill="#010100" stroke="none" transform="scale(1,-1) translate(0,-256)" /><path d="M632 586 659 573 708 578 707 593Q707 593 699.0 592.0Q691 591 682 589Q677 588 671.5 587.5Q666 587 666 588Q665 589 667.0 591.5Q669 594 669 594L700 630L689 640L656 600Q656 600 653.5 597.5Q651 595 650 595Q649 596 649.0 599.0Q649 602 649 602L648 653L633 652Z" fill="#010100" stroke="none" transform="scale(1,-1) translate(0,-256)" /><path d="M723 642Q723 650 717.0 656.5Q711 663 703 663Q695 663 689.0 657.5Q683 652 683 642Q683 634 690.0 629.0Q697 624 705 624Q723 624 723 642Z" fill="#010100" stroke="none" transform="scale(1,-1) translate(0,-256)" /><path d="M660 670Q657 678 649.0 681.5Q641 685 634 682Q626 679 623.0 671.5Q620 664 623 656Q626 648 634.0 646.0Q642 644 650 647Q666 653 660 670Z" fill="#010100" stroke="none" transform="scale(1,-1) translate(0,-256)" /><path d="M736 596Q733 603 725.5 606.0Q718 609 711 606Q704 604 700.5 597.0Q697 590 700 582Q703 575 711.0 572.5Q719 570 727 572Q742 579 736 596Z" fill="#010100" stroke="none" transform="scale(1,-1) translate(0,-256)" /></svg>