<?xml version="1.0" encoding="utf-8" ?>
<svg baseProfile="full" height="256" version="1.1" width="256" xmlns="http://www.w3.org/2000/svg" xmlns:ev="http://www.w3.org/2001/xml-events" xmlns:xlink="http://www.w3.org/1999/xlink"><defs /><path d="M275 365Q275 376 267.5 384.5Q260 393 251 393Q241 393 233.0 387.0Q225 381 224 367Q223 340 248 339Q261 339 268.0 347.0Q275 355 275 365Z" fill="#0847b0" stroke="none" transform="scale(1,-1) translate(0,-256)" /><path d="M417 372Q419 384 412.5 393.0Q406 402 397 403Q388 404 379.0 399.0Q370 394 367 379Q362 352 388 348Q401 346 408.5 353.5Q416 361 417 372Z" fill="#0847b0" stroke="none" transform="scale(1,-1) translate(0,-256)" /><path d="M136.781005859375 347.43800354003906Q138.781005859375 359.43800354003906 132.281005859375 368.43800354003906Q125.781005859375 377.43800354003906 116.781005859375 378.43800354003906Q107.781005859375 379.43800354003906 98.781005859375 374.43800354003906Q89.781005859375 369.43800354003906 86.781005859375 354.43800354003906Q81.781005859375 327.43800354003906 107.781005859375 323.43800354003906Q120.781005859375 321.43800354003906 128.281005859375 328.93800354003906Q135.781005859375 336.43800354003906 136.781005859375 347.43800354003906Z" fill="#0847b0" stroke="none" transform="scale(1,-1) translate(0,-256)" /><path d="M360 508Q363 519 358.0 529.0Q353 539 344 541Q335 543 325.5 539.5Q316 536 311 521Q303 495 327 488Q340 484 348.5 490.5Q357 497 360 508Z" fill="#0847b0" stroke="none" transform="scale(1,-1) translate(0,-256)" /><path d="M207 507Q213 518 210.5 528.0Q208 538 200 542Q193 546 183.5 543.5Q174 541 167 528Q153 504 174 493Q184 487 193.0 492.0Q202 497 207 507Z" fill="#0847b0" stroke="none" transform="scale(1,-1) translate(0,-256)" /><path d="M332 656Q341 664 343.0 674.5Q345 685 339 691Q333 697 323.5 698.5Q314 700 303 691Q281 674 296 656Q303 647 313.5 648.0Q324 649 332 656Z" fill="#0847b0" stroke="none" transform="scale(1,-1) translate(0,-256)" /><path d="M474 608Q482 615 483.0 624.5Q484 634 479 640Q473 646 464.5 648.0Q456 650 445 642Q426 627 440 609Q447 600 456.5 601.0Q466 602 474 608Z" fill="#0847b0" stroke="none" transform="scale(1,-1) translate(0,-256)" /><path d="M526 738Q539 740 545.5 748.5Q552 757 550 766Q548 775 540.5 782.0Q533 789 518 787Q490 782 494 757Q496 745 506.0 740.5Q516 736 526 738Z" fill="#0847b0" stroke="none" transform="scale(1,-1) translate(0,-256)" /><path d="M741 747Q754 745 763.5 752.0Q773 759 774 769Q775 779 769.5 788.5Q764 798 748 801Q719 805 715 778Q713 764 721.5 756.0Q730 748 741 747Z" fill="#0847b0" stroke="none" transform="scale(1,-1) translate(0,-256)" /><path d="M945 652Q958 645 969.5 648.0Q981 651 986 660Q991 669 989.0 680.0Q987 691 972 700Q944 716 930 692Q923 680 928.5 669.0Q934 658 945 652Z" fill="#0847b0" stroke="none" transform="scale(1,-1) translate(0,-256)" /><path d="M802 606Q812 600 821.0 602.0Q830 604 834 611Q837 618 835.5 626.5Q834 635 822 642Q801 654 790 636Q785 627 789.0 618.5Q793 610 802 606Z" fill="#0847b0" stroke="none" transform="scale(1,-1) translate(0,-256)" /><path d="M915 515Q918 504 927.0 499.5Q936 495 943 498Q951 501 956.0 508.5Q961 516 957 529Q949 553 928 546Q917 542 914.5 533.0Q912 524 915 515Z" fill="#0847b0" stroke="none" transform="scale(1,-1) translate(0,-256)" /><path d="M999 404Q999 392 1006.5 383.5Q1014 375 1023 374Q1049 371 1050 403Q1050 415 1042.5 422.5Q1035 430 1024 430Q1011 431 1005.0 422.5Q999 414 999 404Z" fill="#0847b0" stroke="none" transform="scale(1,-1) translate(0,-256)" /><path d="M896 319Q890 311 891.0 301.5Q892 292 899 288Q918 276 931 294Q936 302 934.5 311.0Q933 320 925 325Q917 331 908.5 328.5Q900 326 896 319Z" fill="#0847b0" stroke="none" transform="scale(1,-1) translate(0,-256)" /><path d="M855 206Q847 201 845.0 191.5Q843 182 848 176Q863 159 880 172Q888 178 889.0 187.0Q890 196 885 203Q878 211 870.0 211.0Q862 211 855 206Z" fill="#0847b0" stroke="none" transform="scale(1,-1) translate(0,-256)" /><path d="M977.718994140625 142.25Q969.718994140625 137.25 967.718994140625 127.75Q965.718994140625 118.25 970.718994140625 112.25Q985.718994140625 95.25 1002.718994140625 108.25Q1010.718994140625 114.25 1011.718994140625 123.25Q1012.718994140625 132.25 1007.718994140625 139.25Q1000.718994140625 147.25 992.718994140625 147.25Q984.718994140625 147.25 977.718994140625 142.25Z" fill="#0847b0" stroke="none" transform="scale(1,-1) translate(0,-256)" /><path d="M1023 259Q1020 249 1023.5 240.0Q1027 231 1034 229Q1056 222 1063 245Q1067 255 1063.0 263.5Q1059 272 1050 275Q1040 278 1033.0 273.0Q1026 268 1023 259Z" fill="#0847b0" stroke="none" transform="scale(1,-1) translate(0,-256)" /><path d="M1139 344Q1139 334 1145.0 326.0Q1151 318 1159 318Q1182 319 1182 343Q1182 353 1175.5 360.0Q1169 367 1160 367Q1150 367 1144.5 360.0Q1139 353 1139 344Z" fill="#0847b0" stroke="none" transform="scale(1,-1) translate(0,-256)" /><path d="M1125 154Q1120 144 1122.0 134.5Q1124 125 1131 122Q1151 112 1162 133Q1167 143 1164.5 151.5Q1162 160 1154 165Q1144 170 1136.5 166.0Q1129 162 1125 154Z" fill="#0847b0" stroke="none" transform="scale(1,-1) translate(0,-256)" /><path d="M886 43Q878 39 874.5 31.0Q871 23 874 17Q884 1 903 11Q921 22 913 38Q908 46 900.5 46.5Q893 47 886 43Z" fill="#0847b0" stroke="none" transform="scale(1,-1) translate(0,-256)" /><path d="M1054.468994140625 33.718994140625Q1046.468994140625 29.718994140625 1042.968994140625 21.718994140625Q1039.468994140625 13.718994140625 1042.468994140625 7.718994140625Q1052.468994140625 -8.281005859375 1071.468994140625 1.718994140625Q1089.468994140625 12.718994140625 1081.468994140625 28.718994140625Q1076.468994140625 36.718994140625 1068.968994140625 37.218994140625Q1061.468994140625 37.718994140625 1054.468994140625 33.718994140625Z" fill="#0847b0" stroke="none" transform="scale(1,-1) translate(0,-256)" /><path d="M1067 515Q1070 504 1079.5 498.5Q1089 493 1098 496Q1107 499 1113.5 507.0Q1120 515 1116 529Q1110 555 1085 548Q1072 545 1068.0 535.0Q1064 525 1067 515Z" fill="#0847b0" stroke="none" transform="scale(1,-1) translate(0,-256)" /><path d="M269 217Q267 227 259.5 234.0Q252 241 243 239Q235 238 228.5 231.0Q222 224 224 211Q227 186 249 188Q261 190 265.5 198.5Q270 207 269 217Z" fill="#0847b0" stroke="none" transform="scale(1,-1) translate(0,-256)" /><path d="M388 265Q387 275 379.0 282.5Q371 290 362 288Q353 287 346.5 280.0Q340 273 341 259Q344 233 368 236Q380 237 385.0 246.0Q390 255 388 265Z" fill="#0847b0" stroke="none" transform="scale(1,-1) translate(0,-256)" /><path d="M159 170Q157 180 148.5 186.5Q140 193 131 191Q122 189 115.5 181.5Q109 174 111 160Q116 134 140 139Q152 141 156.5 150.5Q161 160 159 170Z" fill="#0847b0" stroke="none" transform="scale(1,-1) translate(0,-256)" /><path d="M252 75Q247 82 237.5 84.5Q228 87 222 83Q216 78 214.0 70.0Q212 62 219 51Q232 32 249 43Q258 49 258.0 58.0Q258 67 252 75Z" fill="#0847b0" stroke="none" transform="scale(1,-1) translate(0,-256)" /><path d="M381 131Q376 138 367.0 140.5Q358 143 352 138Q346 134 343.5 126.0Q341 118 348 107Q360 89 377 100Q386 106 386.0 115.0Q386 124 381 131Z" fill="#0847b0" stroke="none" transform="scale(1,-1) translate(0,-256)" /></svg>