<?xml version="1.0" encoding="utf-8" ?>
<svg baseProfile="full" height="256" version="1.1" width="256" xmlns="http://www.w3.org/2000/svg" xmlns:ev="http://www.w3.org/2001/xml-events" xmlns:xlink="http://www.w3.org/1999/xlink"><defs /><path d="M562 364 1045 446Q1045 446 1058.0 440.0Q1071 434 1089.5 425.5Q1108 417 1125.0 409.0Q1142 401 1151 396Q1167 386 1178.0 377.5Q1189 369 1189 355Q1190 335 1177.5 324.0Q1165 313 1152 304Q1138 296 1103.5 278.0Q1069 260 1029 241Q1008 232 978.5 218.0Q949 204 918.0 189.5Q887 175 860.5 162.5Q834 150 820 144L483 7Q483 7 471.0 4.5Q459 2 442.5 -0.5Q426 -3 411.5 -5.0Q397 -7 391 -7Q379 -6 350.5 8.0Q322 22 291 40Q277 49 253.5 65.5Q230 82 205.5 100.0Q181 118 163.5 132.0Q146 146 143 150Q137 158 131.5 169.0Q126 180 130 186Q134 190 149.5 197.0Q165 204 179.5 210.5Q194 217 194 217Q194 217 217.5 225.5Q241 234 276.0 247.0Q311 260 348.0 274.5Q385 289 413.5 300.5Q442 312 451 316Q462 322 480.5 330.0Q499 338 517.5 345.5Q536 353 549.0 358.5Q562 364 562 364Z" fill="#a8cfd7" stroke="none" transform="scale(1,-1) translate(0,-256)" /></svg>