<?xml version="1.0" encoding="utf-8" ?>
<svg baseProfile="full" height="256" version="1.1" width="256" xmlns="http://www.w3.org/2000/svg" xmlns:ev="http://www.w3.org/2001/xml-events" xmlns:xlink="http://www.w3.org/1999/xlink"><defs /><path d="M495 328Q489 341 491.5 367.5Q494 394 495 455Q496 515 495.5 561.5Q495 608 503 617Q507 622 523.5 616.5Q540 611 562.0 601.0Q584 591 604.5 580.5Q625 570 637 565Q649 559 669.5 549.5Q690 540 712.0 530.0Q734 520 750.0 512.0Q766 504 768 501Q770 498 769.0 462.5Q768 427 768 386Q768 365 768.0 333.0Q768 301 767.0 268.5Q766 236 763.0 213.0Q760 190 754 188Q744 183 719.0 193.5Q694 204 664.0 221.0Q634 238 607 253Q584 266 559.5 279.5Q535 293 517.0 305.5Q499 318 495 328Z" fill="#ffebc9" stroke="none" transform="scale(1,-1) translate(0,-256)" /><path d="M392 313Q416 312 443.0 293.5Q470 275 495 261Q519 247 549.5 229.0Q580 211 603.0 197.0Q626 183 627 182Q629 180 609.5 174.0Q590 168 560.5 159.5Q531 151 502 143Q459 132 422.0 118.5Q385 105 372 99Q359 94 350.0 97.5Q341 101 332 108Q327 112 307.5 126.0Q288 140 262.5 157.5Q237 175 215.5 190.0Q194 205 185 212Q171 222 155.5 235.0Q140 248 146 253Q150 256 168.0 260.5Q186 265 209.0 269.0Q232 273 250 277Q267 281 296.0 289.5Q325 298 352.5 305.5Q380 313 392 313Z" fill="#ffebc9" stroke="none" transform="scale(1,-1) translate(0,-256)" /></svg>