<?xml version="1.0" encoding="utf-8" ?>
<svg baseProfile="full" height="256" version="1.1" width="256" xmlns="http://www.w3.org/2000/svg" xmlns:ev="http://www.w3.org/2001/xml-events" xmlns:xlink="http://www.w3.org/1999/xlink"><defs /><path d="M524 434 870 527 1129 405Q1129 405 1140.5 400.0Q1152 395 1166.5 386.0Q1181 377 1192.5 365.0Q1204 353 1204 340Q1205 309 1188.0 296.0Q1171 283 1161 277Q1152 271 1080.0 237.5Q1008 204 868 140Q797 108 728.0 75.5Q659 43 598.5 16.0Q538 -11 491.5 -27.0Q445 -43 420 -43Q387 -42 352.0 -25.0Q317 -8 281.5 17.0Q246 42 211 67Q158 106 122.0 140.5Q86 175 79 184Q72 192 70.5 207.0Q69 222 71 236Q73 249 80.0 257.5Q87 266 105 274Q113 278 132.5 286.5Q152 295 176.0 304.0Q200 313 222.5 321.5Q245 330 259 335Q275 341 306.0 352.5Q337 364 374.0 378.0Q411 392 445.5 404.5Q480 417 502.0 425.5Q524 434 524 434Z" fill="#6ca4ae" stroke="none" transform="scale(1,-1) translate(0,-256)" /></svg>