<?xml version="1.0" encoding="utf-8" ?>
<svg baseProfile="full" height="256" version="1.1" width="256" xmlns="http://www.w3.org/2000/svg" xmlns:ev="http://www.w3.org/2001/xml-events" xmlns:xlink="http://www.w3.org/1999/xlink"><defs /><path d="M768 500 717 197Q717 197 731.5 190.5Q746 184 763 187Q769 187 788.5 195.5Q808 204 834.0 215.5Q860 227 886.5 240.0Q913 253 933 262Q953 272 978.5 283.5Q1004 295 1028.0 307.0Q1052 319 1069.5 327.5Q1087 336 1090 340Q1098 348 1100.0 384.0Q1102 420 1103 470Q1103 539 1103.0 578.0Q1103 617 1094 622Q1088 626 1048.5 612.5Q1009 599 943 574Q873 548 823.0 528.5Q773 509 768 500Z" fill="#feb502" stroke="none" transform="scale(1,-1) translate(0,-256)" /><path d="M355 97Q355 97 354.5 85.0Q354 73 353.0 57.5Q352 42 352.0 30.0Q352 18 354 18Q358 17 380.5 25.5Q403 34 435.0 46.0Q467 58 499 69Q525 78 553.5 87.5Q582 97 602.5 104.5Q623 112 628 115Q634 120 633.0 139.5Q632 159 632 170Q632 181 624.0 184.0Q616 187 616 187L427 171Z" fill="#feb502" stroke="none" transform="scale(1,-1) translate(0,-256)" /></svg>