<?xml version="1.0" encoding="utf-8" ?>
<svg baseProfile="full" height="256" version="1.1" width="256" xmlns="http://www.w3.org/2000/svg" xmlns:ev="http://www.w3.org/2001/xml-events" xmlns:xlink="http://www.w3.org/1999/xlink"><defs /><path d="M427 119Q415 130 400 129Q384 128 374 117Q363 106 363 90Q364 75 375 64L433 10Q444 0 459 0Q474 0 485 11L548 72L612 11Q622 0 638 0Q653 0 664 11L727 72L791 11Q801 0 816 0Q831 0 842 10L901 65Q912 76 912 91Q913 107 902 118Q892 129 876 130Q861 130 849 120L817 89L753 151Q742 162 726 162Q711 162 700 151L637 90L573 151Q563 162 547 162Q532 162 521 151L458 90Z" fill="#35220b" stroke="none" transform="scale(1,-1) translate(0,-256)" /></svg>