<?xml version="1.0" encoding="utf-8" ?>
<svg baseProfile="full" height="256" version="1.1" width="256" xmlns="http://www.w3.org/2000/svg" xmlns:ev="http://www.w3.org/2001/xml-events" xmlns:xlink="http://www.w3.org/1999/xlink"><defs /><path d="M73.4794921875 585.4196472167969V434.91998291015625H1197.6514129638672V585.4196472167969Z" fill="#424242" stroke="none" transform="scale(1,-1) translate(0,-256)" /><path d="M254 293Q250 285 258 281Q262 279 265 280Q268 281 271 285Q274 291 278 304Q280 313 282 318Q289 332 298 331Q306 329 312 314Q313 313 313 311Q307 300 304 287Q301 273 306 264Q310 257 318 256Q328 253 334 260Q334 260 334 261Q339 266 339 275Q338 292 334 307Q345 321 364 328Q366 328 367 328Q368 328 371 322Q380 304 393 289Q400 279 409 276Q424 272 443 291Q451 300 456 302Q463 305 483 295Q498 287 507 285Q528 282 556 298Q572 306 580 308Q584 309 586 309Q588 308 594 300Q594 300 594 299Q614 270 638 270Q649 270 666 279Q668 280 669 280Q720 305 763 290Q772 286 775 295Q778 304 769 307Q719 325 661 297Q660 297 658 296Q644 289 638 289Q624 289 610 310Q610 310 609 311Q600 324 591 327Q585 329 576 327Q565 324 547 314Q525 301 510 304Q504 305 491 312Q464 325 449 319Q441 316 429 304Q418 293 414 294Q411 295 407 300Q396 314 388 330Q380 345 370 347Q365 348 358 345Q339 339 327 327Q317 346 301 349Q277 353 265 325Q263 320 260 309Q256 298 254 293Z" fill="#424242" stroke="none" transform="scale(1,-1) translate(0,-256)" /></svg>