<?xml version="1.0" encoding="utf-8" ?>
<svg baseProfile="full" height="256" version="1.1" width="256" xmlns="http://www.w3.org/2000/svg" xmlns:ev="http://www.w3.org/2001/xml-events" xmlns:xlink="http://www.w3.org/1999/xlink"><defs /><path d="M639 495 827 577Q827 577 848.5 586.5Q870 596 904.5 611.0Q939 626 979.0 642.5Q1019 659 1055.5 674.5Q1092 690 1118.0 700.0Q1144 710 1150 711Q1169 715 1170.5 699.0Q1172 683 1170 671Q1169 668 1161.0 633.0Q1153 598 1140.5 542.0Q1128 486 1113.0 420.0Q1098 354 1083.0 287.5Q1068 221 1055.0 164.0Q1042 107 1034.0 70.0Q1026 33 1024 28Q1020 7 1013.5 -5.5Q1007 -18 993 -27Q988 -30 960.5 -45.0Q933 -60 894.5 -81.0Q856 -102 815.0 -123.5Q774 -145 741.5 -162.0Q709 -179 695 -186Q660 -204 643.5 -211.0Q627 -218 623 -214Q621 -213 620.5 -176.0Q620 -139 620.0 -79.5Q620 -20 620.0 51.5Q620 123 620.5 194.5Q621 266 620.5 327.0Q620 388 619.5 426.0Q619 464 618 467Q617 469 602.0 477.0Q587 485 565.5 495.5Q544 506 521.5 517.0Q499 528 482.5 536.0Q466 544 463 547Q458 550 453.0 564.0Q448 578 443.5 595.5Q439 613 436.5 625.5Q434 638 434 638Q434 638 415.0 636.0Q396 634 369.5 631.5Q343 629 319.0 628.0Q295 627 286 628Q276 629 251.0 640.5Q226 652 196.5 667.5Q167 683 144.0 696.0Q121 709 116 713Q106 720 111.0 727.5Q116 735 127 731Q130 730 153.0 720.0Q176 710 206.0 697.5Q236 685 261.0 675.0Q286 665 293 665Q301 664 321.0 666.0Q341 668 365.0 671.0Q389 674 409.0 676.5Q429 679 436 681Q441 682 470.5 694.0Q500 706 543.5 724.0Q587 742 633 761Q694 785 733.0 798.0Q772 811 772 811Q772 811 788.0 821.5Q804 832 815 841Q831 853 839.5 850.5Q848 848 845 842Q842 834 831.5 825.0Q821 816 825 813Q827 812 850.5 809.5Q874 807 903.5 804.5Q933 802 953 801Q983 798 984.5 790.5Q986 783 967 783Q964 783 946.0 783.0Q928 783 903.0 783.0Q878 783 853.5 783.5Q829 784 812.5 784.0Q796 784 796 784Q796 784 773.0 775.5Q750 767 714.0 753.0Q678 739 637.5 723.0Q597 707 560.5 692.5Q524 678 500.0 667.5Q476 657 475 654Q474 652 478.0 634.5Q482 617 488.5 598.0Q495 579 502 573Q505 571 519.5 562.5Q534 554 554.0 542.5Q574 531 593.5 520.0Q613 509 626.0 502.0Q639 495 639 495Z" fill="#b0b0b0" stroke="none" transform="scale(1,-1) translate(0,-256)" /></svg>