<?xml version="1.0" encoding="utf-8" ?>
<svg baseProfile="full" height="256" version="1.1" width="256" xmlns="http://www.w3.org/2000/svg" xmlns:ev="http://www.w3.org/2001/xml-events" xmlns:xlink="http://www.w3.org/1999/xlink"><defs /><path d="M269 109Q269 109 270.0 114.0Q271 119 277 125Q283 130 292.5 131.0Q302 132 302 132V193Q302 193 293.5 192.0Q285 191 274 195Q264 199 258.5 208.0Q253 217 260 223Q267 229 270.5 223.0Q274 217 274 217Q274 217 279.5 215.0Q285 213 292 213Q299 214 306.5 217.5Q314 221 314 221V272Q314 272 309.0 272.0Q304 272 292 273Q278 275 272.5 286.0Q267 297 276 301Q285 304 287.0 298.5Q289 293 289 293Q289 293 290.0 293.0Q291 293 299 292Q307 291 317.5 299.5Q328 308 328 308V346Q328 346 314.5 345.0Q301 344 288 353Q282 357 280.5 365.0Q279 373 286 376Q295 379 297.5 373.0Q300 367 300 367Q300 367 304.0 366.0Q308 365 324 367Q334 369 348.0 378.0Q362 387 372.5 396.0Q383 405 383 405V450Q383 450 384.0 455.5Q385 461 393 459Q400 457 401.0 451.0Q402 445 402 445L403 402Q403 402 413.0 389.5Q423 377 438 357Q452 338 466.5 321.0Q481 304 491.5 293.5Q502 283 502 283Q502 283 505.5 285.0Q509 287 514 282Q519 277 517.0 270.5Q515 264 505 265Q496 266 486.0 273.0Q476 280 476 280L477 246Q477 246 482.0 236.5Q487 227 496 217Q503 209 511.0 203.5Q519 198 519 198Q519 198 523.0 200.0Q527 202 532 199Q541 193 536.5 184.5Q532 176 523 177Q514 177 502.0 186.0Q490 195 490 195L491 148Q491 148 497.5 138.5Q504 129 514 121Q523 112 532.5 105.0Q542 98 542 98Q542 98 546.0 99.0Q550 100 556 96Q562 92 559.0 83.0Q556 74 546 75Q536 76 522.0 86.0Q508 96 508 96V49Q508 49 517.5 42.5Q527 36 533 26Q538 19 541.0 4.5Q544 -10 539 -12Q537 -13 517.0 -5.0Q497 3 466.5 16.5Q436 30 402.0 45.0Q368 60 338.0 74.0Q308 88 289.0 97.5Q270 107 269 109Z" fill="#fe2a28" stroke="none" transform="scale(1,-1) translate(0,-256)" /></svg>