<?xml version="1.0" encoding="utf-8" ?>
<svg baseProfile="full" height="256" version="1.1" width="256" xmlns="http://www.w3.org/2000/svg" xmlns:ev="http://www.w3.org/2001/xml-events" xmlns:xlink="http://www.w3.org/1999/xlink"><defs /><path d="M584 -18Q557 -10 545.0 10.5Q533 31 526 49Q520 66 515.0 74.5Q510 83 502 85Q493 87 485.0 81.5Q477 76 464 64Q450 50 429.5 36.5Q409 23 379 30Q350 37 338.0 58.0Q326 79 319 98Q312 115 307.5 123.5Q303 132 294 134Q286 136 278.0 130.5Q270 125 257 113Q242 99 221.5 85.5Q201 72 172 79Q143 86 130.5 107.0Q118 128 111 147Q110 150 109.0 153.5Q108 157 107 159L117 225Q136 215 145.0 197.5Q154 180 159 164Q166 147 170.5 138.5Q175 130 184 128Q192 126 200.0 131.5Q208 137 222 149Q236 163 256.5 176.5Q277 190 306 183Q336 176 348.0 155.0Q360 134 367 115Q373 98 377.5 89.5Q382 81 391 79Q400 77 407.5 82.5Q415 88 429 101Q443 114 463.5 127.5Q484 141 513 134Q543 127 555.0 106.0Q567 85 574 66Q584 40 593 34Z" fill="#82e8b6" stroke="none" transform="scale(1,-1) translate(0,-256)" /><path d="M691.0010070800781 -17.998992919921875Q718.0010070800781 -9.998992919921875 730.0010070800781 10.501007080078125Q742.0010070800781 31.001007080078125 749.0010070800781 49.001007080078125Q755.0010070800781 66.00100708007812 760.0010070800781 74.50100708007812Q765.0010070800781 83.00100708007812 773.0010070800781 85.00100708007812Q782.0010070800781 87.00100708007812 790.0010070800781 81.50100708007812Q798.0010070800781 76.00100708007812 811.0010070800781 64.00100708007812Q825.0010070800781 50.001007080078125 845.5010070800781 36.501007080078125Q866.0010070800781 23.001007080078125 896.0010070800781 30.001007080078125Q925.0010070800781 37.001007080078125 937.0010070800781 58.001007080078125Q949.0010070800781 79.00100708007812 956.0010070800781 98.00100708007812Q963.0010070800781 115.00100708007812 967.5010070800781 123.50100708007812Q972.0010070800781 132.00100708007812 981.0010070800781 134.00100708007812Q989.0010070800781 136.00100708007812 997.0010070800781 130.50100708007812Q1005.0010070800781 125.00100708007812 1018.0010070800781 113.00100708007812Q1033.0010070800781 99.00100708007812 1053.5010070800781 85.50100708007812Q1074.0010070800781 72.00100708007812 1103.0010070800781 79.00100708007812Q1132.0010070800781 86.00100708007812 1144.5010070800781 107.00100708007812Q1157.0010070800781 128.00100708007812 1164.0010070800781 147.00100708007812Q1165.0010070800781 150.00100708007812 1166.0010070800781 153.50100708007812Q1167.0010070800781 157.00100708007812 1168.0010070800781 159.00100708007812L1158.0010070800781 225.00100708007812Q1139.0010070800781 215.00100708007812 1130.0010070800781 197.50100708007812Q1121.0010070800781 180.00100708007812 1116.0010070800781 164.00100708007812Q1109.0010070800781 147.00100708007812 1104.5010070800781 138.50100708007812Q1100.0010070800781 130.00100708007812 1091.0010070800781 128.00100708007812Q1083.0010070800781 126.00100708007812 1075.0010070800781 131.50100708007812Q1067.0010070800781 137.00100708007812 1053.0010070800781 149.00100708007812Q1039.0010070800781 163.00100708007812 1018.5010070800781 176.50100708007812Q998.0010070800781 190.00100708007812 969.0010070800781 183.00100708007812Q939.0010070800781 176.00100708007812 927.0010070800781 155.00100708007812Q915.0010070800781 134.00100708007812 908.0010070800781 115.00100708007812Q902.0010070800781 98.00100708007812 897.5010070800781 89.50100708007812Q893.0010070800781 81.00100708007812 884.0010070800781 79.00100708007812Q875.0010070800781 77.00100708007812 867.5010070800781 82.50100708007812Q860.0010070800781 88.00100708007812 846.0010070800781 101.00100708007812Q832.0010070800781 114.00100708007812 811.5010070800781 127.50100708007812Q791.0010070800781 141.00100708007812 762.0010070800781 134.00100708007812Q732.0010070800781 127.00100708007812 720.0010070800781 106.00100708007812Q708.0010070800781 85.00100708007812 701.0010070800781 66.00100708007812Q691.0010070800781 40.001007080078125 682.0010070800781 34.001007080078125Z" fill="#82e8b6" stroke="none" transform="scale(1,-1) translate(0,-256)" /></svg>