<?xml version="1.0" encoding="utf-8" ?>
<svg baseProfile="full" height="256" version="1.1" width="256" xmlns="http://www.w3.org/2000/svg" xmlns:ev="http://www.w3.org/2001/xml-events" xmlns:xlink="http://www.w3.org/1999/xlink"><defs /><path d="M171 562Q177 562 187.5 555.0Q198 548 203 540Q214 523 220.0 500.5Q226 478 231 440Q233 420 234.0 394.5Q235 369 236.0 344.5Q237 320 237.5 304.0Q238 288 238 288L190 274Q190 274 189.0 294.5Q188 315 187.0 346.5Q186 378 185 411Q185 460 182.5 491.5Q180 523 177 536Q175 547 172.5 554.5Q170 562 171 562Z" fill="#ace4fe" stroke="none" transform="scale(1,-1) translate(0,-256)" /></svg>