<?xml version="1.0" encoding="utf-8" ?>
<svg baseProfile="full" height="256" version="1.1" width="256" xmlns="http://www.w3.org/2000/svg" xmlns:ev="http://www.w3.org/2001/xml-events" xmlns:xlink="http://www.w3.org/1999/xlink"><defs /><path d="M228 799Q228 816 249.5 824.5Q271 833 301.5 835.5Q332 838 357 837Q376 836 402.0 834.0Q428 832 452.0 828.0Q476 824 492.5 816.0Q509 808 509 796Q510 772 472.0 764.5Q434 757 369 757Q303 758 266.0 766.0Q229 774 228 799Z" fill="#fffffe" stroke="none" transform="scale(1,-1) translate(0,-256)" /><path d="M435 670Q433 686 451.0 692.0Q469 698 493.0 699.0Q517 700 532 700Q547 700 572.5 699.5Q598 699 617.5 693.5Q637 688 635 672Q632 649 601.5 647.5Q571 646 528 647Q489 648 464.0 649.5Q439 651 435 670Z" fill="#fffffe" stroke="none" transform="scale(1,-1) translate(0,-256)" /></svg>