<?xml version="1.0" encoding="utf-8" ?>
<svg baseProfile="full" height="256" version="1.1" width="256" xmlns="http://www.w3.org/2000/svg" xmlns:ev="http://www.w3.org/2001/xml-events" xmlns:xlink="http://www.w3.org/1999/xlink"><defs /><path d="M511 373Q509 374 500.0 357.5Q491 341 481.0 320.0Q471 299 463.5 282.5Q456 266 456 266L489 256L526 347Q526 347 520.5 359.5Q515 372 511 373Z" fill="#02ab47" stroke="none" transform="scale(1,-1) translate(0,-256)" /><path d="M557 277Q557 277 563.0 289.0Q569 301 575.5 312.5Q582 324 584 324Q585 324 589.0 317.0Q593 310 593 310L567 259Z" fill="#02ab47" stroke="none" transform="scale(1,-1) translate(0,-256)" /><path d="M669 409Q671 409 675.0 401.0Q679 393 679 393Q679 393 671.5 374.0Q664 355 654.0 329.5Q644 304 635.0 285.0Q626 266 623 266Q623 267 616.0 276.5Q609 286 609 286Q609 286 617.0 304.5Q625 323 635.5 347.0Q646 371 655.5 390.0Q665 409 669 409Z" fill="#02ab47" stroke="none" transform="scale(1,-1) translate(0,-256)" /><path d="M894 441Q898 441 902.5 432.5Q907 424 909.5 415.0Q912 406 912 406Q912 406 901.5 384.5Q891 363 879 337Q873 324 864.5 301.0Q856 278 847.5 254.0Q839 230 833.0 213.5Q827 197 827 197Q827 197 819.0 197.5Q811 198 802.0 200.0Q793 202 792 204Q790 207 796.0 224.0Q802 241 810.5 260.5Q819 280 822 290Q825 297 835.5 321.0Q846 345 858.5 373.0Q871 401 881.5 421.0Q892 441 894 441Z" fill="#02ab47" stroke="none" transform="scale(1,-1) translate(0,-256)" /><path d="M1014 390Q1010 388 1000.5 373.0Q991 358 980.5 339.5Q970 321 962.5 307.0Q955 293 955 293Q955 293 958.5 286.0Q962 279 965.5 272.0Q969 265 972 266Q973 266 982.5 281.5Q992 297 1004.0 317.0Q1016 337 1025.0 352.0Q1034 367 1034 367Q1034 367 1030.0 373.5Q1026 380 1021.0 385.5Q1016 391 1014 390Z" fill="#02ab47" stroke="none" transform="scale(1,-1) translate(0,-256)" /><path d="M1119 363Q1130 364 1139.0 344.5Q1148 325 1157 298Q1164 280 1174.5 262.0Q1185 244 1193.0 232.5Q1201 221 1201 221V157Q1201 157 1197.5 152.0Q1194 147 1179 147Q1169 146 1164.0 151.5Q1159 157 1154.0 162.0Q1149 167 1138 167Q1128 167 1114.5 159.0Q1101 151 1087.5 143.5Q1074 136 1062 137Q1050 138 1045.0 145.0Q1040 152 1036.5 159.5Q1033 167 1026 170Q1014 175 1002.5 167.0Q991 159 976 159Q966 159 962.0 164.5Q958 170 958 170Q958 170 973.0 184.5Q988 199 1010.0 221.0Q1032 243 1051 267Q1070 290 1081.5 312.0Q1093 334 1101.0 348.5Q1109 363 1119 363Z" fill="#02ab47" stroke="none" transform="scale(1,-1) translate(0,-256)" /><path d="M1063 102Q1047 103 1034.5 110.0Q1022 117 1014.0 123.5Q1006 130 1006 130Q1006 130 1001.5 122.5Q997 115 984 102Q971 90 961.5 84.5Q952 79 942 73Q932 67 928.0 59.5Q924 52 924 52Q924 52 930.5 43.5Q937 35 952 35Q966 34 982.5 40.5Q999 47 1011 45Q1022 44 1031.0 33.5Q1040 23 1055 21Q1070 19 1080.0 27.0Q1090 35 1102 36Q1114 37 1119.5 30.0Q1125 23 1145 23Q1164 23 1173.0 38.5Q1182 54 1185 66Q1187 74 1186.0 87.5Q1185 101 1177.5 112.0Q1170 123 1152 125Q1135 127 1120.0 121.0Q1105 115 1091.0 108.5Q1077 102 1063 102Z" fill="#02ab47" stroke="none" transform="scale(1,-1) translate(0,-256)" /><path d="M1022 -69Q1012 -69 994.5 -77.5Q977 -86 958 -89Q938 -92 921.5 -86.0Q905 -80 906 -68Q907 -54 921.5 -35.5Q936 -17 955.0 -3.0Q974 11 987 11Q1000 12 1007.0 7.5Q1014 3 1022.0 -2.5Q1030 -8 1048 -12Q1060 -16 1072.5 -11.5Q1085 -7 1097.0 -2.0Q1109 3 1120.0 2.0Q1131 1 1141 -13Q1150 -27 1147.5 -46.0Q1145 -65 1134.5 -82.0Q1124 -99 1109.5 -109.5Q1095 -120 1082 -117Q1064 -114 1056.5 -102.0Q1049 -90 1043.0 -79.5Q1037 -69 1022 -69Z" fill="#02ab47" stroke="none" transform="scale(1,-1) translate(0,-256)" /></svg>