<?xml version="1.0" encoding="utf-8" ?>
<svg baseProfile="full" height="256" version="1.1" width="256" xmlns="http://www.w3.org/2000/svg" xmlns:ev="http://www.w3.org/2001/xml-events" xmlns:xlink="http://www.w3.org/1999/xlink"><defs /><path d="M1144 -116Q1175 -94 1182.0 -69.0Q1189 -44 1164.5 -21.5Q1140 1 1077 16Q1012 32 945.0 43.5Q878 55 814 76Q771 91 735.0 112.5Q699 134 662.5 159.5Q626 185 584.0 211.0Q542 237 487 259Q404 293 314.0 308.0Q224 323 138 296Q120 291 104.0 283.0Q88 275 87 256Q108 222 143.5 202.0Q179 182 217 171Q255 160 302.0 147.0Q349 134 385 118Q438 95 476.0 62.5Q514 30 546.5 -4.5Q579 -39 614.5 -69.0Q650 -99 698 -116Q779 -145 853.0 -153.0Q927 -161 987.0 -155.5Q1047 -150 1088.0 -138.0Q1129 -126 1144 -116Z" fill="#ffcc80" stroke="none" transform="scale(1,-1) translate(0,-256)" /></svg>