<?xml version="1.0" encoding="utf-8" ?>
<svg baseProfile="full" height="256" version="1.1" width="256" xmlns="http://www.w3.org/2000/svg" xmlns:ev="http://www.w3.org/2001/xml-events" xmlns:xlink="http://www.w3.org/1999/xlink"><defs /><path d="M250 294Q224 294 199 291L196 290Q152 285 133.0 277.0Q114 269 110.0 263.0Q106 257 106 256Q106 242 139.5 222.5Q173 203 222 189Q229 188 236.0 186.0Q243 184 250 182Q286 172 324.0 160.5Q362 149 393 136Q448 111 486.5 77.5Q525 44 559 10Q592 -24 625.5 -53.0Q659 -82 705 -98Q817 -139 935 -139Q1016 -139 1068.0 -124.5Q1120 -110 1133 -100Q1168 -76 1164 -55Q1162 -40 1137.5 -26.0Q1113 -12 1073 -2Q1048 4 1022.5 9.0Q997 14 972 19Q931 27 889.5 36.0Q848 45 808 58Q764 73 727.0 96.0Q690 119 653 144Q615 169 574.0 194.5Q533 220 480 242Q354 294 250 294ZM250 313Q310 313 370.5 297.5Q431 282 487 259Q542 237 584.5 211.0Q627 185 663.0 159.5Q699 134 735.5 112.5Q772 91 814 76Q878 55 945.0 43.5Q1012 32 1078 16Q1140 1 1164.5 -21.5Q1189 -44 1182.0 -69.0Q1175 -94 1144 -116Q1126 -128 1070.5 -142.5Q1015 -157 935 -157Q883 -157 823.0 -148.0Q763 -139 698 -116Q650 -99 614.5 -69.0Q579 -39 546.5 -4.5Q514 30 476.0 62.5Q438 95 385 118Q349 134 302.0 147.0Q255 160 217 171Q203 175 181.5 183.0Q160 191 138.0 202.0Q116 213 101.5 226.5Q87 240 87 256Q87 271 101.0 281.0Q115 291 134.5 297.0Q154 303 171.5 305.5Q189 308 196 309Q222 313 250 313Z" fill="#de7340" stroke="none" transform="scale(1,-1) translate(0,-256)" /><path d="M862 -157Q797 -150 756.0 -138.5Q715 -127 693.0 -114.5Q671 -102 663.0 -93.5Q655 -85 655 -85Q652 -61 656.0 -23.0Q660 15 676 43Q703 90 761.5 122.5Q820 155 889 155Q907 155 936.5 146.5Q966 138 998.5 125.0Q1031 112 1059.5 97.0Q1088 82 1103 70Q1103 70 1082.0 69.0Q1061 68 1043 62Q1003 50 963.0 26.0Q923 2 902 -25Q885 -49 876.5 -80.0Q868 -111 865.0 -134.0Q862 -157 862 -157Z" fill="#de7340" stroke="none" transform="scale(1,-1) translate(0,-256)" /></svg>