<?xml version="1.0" encoding="utf-8" ?>
<svg baseProfile="full" height="256" version="1.1" width="256" xmlns="http://www.w3.org/2000/svg" xmlns:ev="http://www.w3.org/2001/xml-events" xmlns:xlink="http://www.w3.org/1999/xlink"><defs /><path d="M1200 576Q1214 537 1209.5 498.0Q1205 459 1185.5 427.0Q1166 395 1134 377L494 71Q468 58 420.0 51.5Q372 45 312.5 51.5Q253 58 189 81Q137 101 110.0 123.0Q83 145 74.0 167.0Q65 189 65.5 208.5Q66 228 68 242Q68 242 87.5 225.5Q107 209 140.5 186.5Q174 164 217.0 143.5Q260 123 309.0 114.0Q358 105 408 117L1115 448Q1155 476 1159.5 523.5Q1164 571 1145 613Q1136 634 1121.5 652.0Q1107 670 1095.5 681.0Q1084 692 1084 692Q1096 688 1117.0 679.0Q1138 670 1161.0 647.0Q1184 624 1200 576Z" fill="#ddb98c" stroke="none" transform="scale(1,-1) translate(0,-256)" /></svg>