<?xml version="1.0" encoding="utf-8" ?>
<svg baseProfile="full" height="256" version="1.1" width="256" xmlns="http://www.w3.org/2000/svg" xmlns:ev="http://www.w3.org/2001/xml-events" xmlns:xlink="http://www.w3.org/1999/xlink"><defs /><path d="M390.1592102050781 205.8011474609375Q379.7724914550781 206.51486206054688 371.9596710205078 202.08836364746094Q364.1468505859375 197.661865234375 362.7118377685547 189.7427520751953Q362.6131286621094 182.74993896484375 369.04408264160156 176.32656860351562Q375.47503662109375 169.9031982421875 385.86175537109375 169.18948364257812Q396.04347229003906 167.34446716308594 403.9587936401367 172.33661651611328Q411.8741149902344 177.32876586914062 413.1041259765625 184.1165771484375Q413.4078369140625 192.24069213867188 406.9768829345703 198.6640625Q400.5459289550781 205.08743286132812 390.1592102050781 205.8011474609375Z" fill="#757575" stroke="none" transform="scale(1,-1) translate(0,-256)" /><path d="M303.25401306152344 257.7298583984375Q292.86729431152344 258.4435729980469 285.0544738769531 254.01707458496094Q277.2416534423828 249.590576171875 275.806640625 241.6714630126953Q275.7079315185547 234.67864990234375 282.1388854980469 228.25527954101562Q288.56983947753906 221.8319091796875 298.95655822753906 221.11819458007812Q309.1382751464844 219.27317810058594 317.05359649658203 224.26532745361328Q324.9689178466797 229.25747680664062 326.1989288330078 236.0452880859375Q326.5026397705078 244.16940307617188 320.0716857910156 250.5927734375Q313.64073181152344 257.0161437988281 303.25401306152344 257.7298583984375Z" fill="#757575" stroke="none" transform="scale(1,-1) translate(0,-256)" /><path d="M479.05381774902344 247.57725524902344Q468.66709899902344 248.2909698486328 460.8542785644531 243.86447143554688Q453.0414581298828 239.43797302246094 451.6064453125 231.51885986328125Q451.5077362060547 224.5260467529297 457.9386901855469 218.10267639160156Q464.36964416503906 211.67930603027344 474.75636291503906 210.96559143066406Q484.9380798339844 209.12057495117188 492.85340118408203 214.11272430419922Q500.7687225341797 219.10487365722656 501.9987335205078 225.89268493652344Q502.3024444580078 234.0167999267578 495.8714904785156 240.44017028808594Q489.44053649902344 246.86354064941406 479.05381774902344 247.57725524902344Z" fill="#757575" stroke="none" transform="scale(1,-1) translate(0,-256)" /><path d="M392.1376190185547 299.4099578857422Q381.7509002685547 300.12367248535156 373.9380798339844 295.6971740722656Q366.12525939941406 291.2706756591797 364.69024658203125 283.3515625Q364.59153747558594 276.35874938964844 371.0224914550781 269.9353790283203Q377.4534454345703 263.5120086669922 387.8401641845703 262.7982940673828Q398.0218811035156 260.9532775878906 405.9372024536133 265.94542694091797Q413.85252380371094 270.9375762939453 415.08253479003906 277.7253875732422Q415.38624572753906 285.84950256347656 408.9552917480469 292.2728729248047Q402.5243377685547 298.6962432861328 392.1376190185547 299.4099578857422Z" fill="#757575" stroke="none" transform="scale(1,-1) translate(0,-256)" /><path d="M872.4269104003906 441.1264190673828Q862.0422821044922 441.83758544921875 854.232177734375 437.4102478027344Q846.4220733642578 432.98291015625 844.9891967773438 425.065185546875Q844.8921203613281 418.07386779785156 851.3231582641602 411.6533737182617Q857.7541961669922 405.2328796386719 868.1388244628906 404.52171325683594Q878.3187561035156 402.679443359375 886.2312088012695 407.6723327636719Q894.1436614990234 412.66522216796875 895.3718414306641 419.45184326171875Q895.6736145019531 427.5742645263672 889.2425765991211 433.99475860595703Q882.8115386962891 440.4152526855469 872.4269104003906 441.1264190673828Z" fill="#757575" stroke="none" transform="scale(1,-1) translate(0,-256)" /><path d="M785.5294189453125 492.96734619140625Q775.1427001953125 493.6810607910156 767.3298797607422 489.2545623779297Q759.5170593261719 484.82806396484375 758.0820465087891 476.90895080566406Q757.9833374023438 469.9161376953125 764.4142913818359 463.4927673339844Q770.8452453613281 457.06939697265625 781.2319641113281 456.3556823730469Q791.4136810302734 454.5106658935547 799.3290023803711 459.50281524658203Q807.2443237304688 464.4949645996094 808.4743347167969 471.28277587890625Q808.7780456542969 479.4068908691406 802.3470916748047 485.83026123046875Q795.9161376953125 492.2536315917969 785.5294189453125 492.96734619140625Z" fill="#757575" stroke="none" transform="scale(1,-1) translate(0,-256)" /><path d="M962.7743072509766 482.1116485595703Q952.3875885009766 482.8253631591797 944.5747680664062 478.39886474609375Q936.7619476318359 473.9723663330078 935.3269348144531 466.0532531738281Q935.2282257080078 459.06044006347656 941.6591796875 452.63706970214844Q948.0901336669922 446.2136993408203 958.4768524169922 445.49998474121094Q968.6585693359375 443.65496826171875 976.5738906860352 448.6471176147461Q984.4892120361328 453.63926696777344 985.7192230224609 460.4270782470703Q986.0229339599609 468.5511932373047 979.5919799804688 474.9745635986328Q973.1610260009766 481.39793395996094 962.7743072509766 482.1116485595703Z" fill="#757575" stroke="none" transform="scale(1,-1) translate(0,-256)" /><path d="M875.8641510009766 533.9191284179688Q865.4820709228516 534.6323852539062 857.6728057861328 530.207763671875Q849.8635406494141 525.7831420898438 848.4292755126953 517.8675537109375Q848.3307037353516 510.87786865234375 854.7588653564453 504.45745849609375Q861.1870269775391 498.03704833984375 871.5691070556641 497.32379150390625Q881.7462921142578 495.479736328125 889.6580047607422 500.4697570800781Q897.5697174072266 505.45977783203125 898.7990875244141 512.2445678710938Q899.1025543212891 520.3650512695312 892.6743927001953 526.7854614257812Q886.2462310791016 533.2058715820312 875.8641510009766 533.9191284179688Z" fill="#757575" stroke="none" transform="scale(1,-1) translate(0,-256)" /></svg>