<?xml version="1.0" encoding="utf-8" ?>
<svg baseProfile="full" height="256" version="1.1" width="256" xmlns="http://www.w3.org/2000/svg" xmlns:ev="http://www.w3.org/2001/xml-events" xmlns:xlink="http://www.w3.org/1999/xlink"><defs /><path d="M433 40Q433 40 440.5 55.5Q448 71 476 86Q484 91 506.5 97.5Q529 104 542 102Q572 97 588.0 84.5Q604 72 610.0 61.0Q616 50 616 50Q616 50 609.0 58.0Q602 66 586.5 71.0Q571 76 546 67Q518 57 503.0 38.5Q488 20 488 20Q488 20 483.0 14.0Q478 8 468.5 4.0Q459 0 446 7Q433 13 433.0 26.5Q433 40 433 40Z" fill="#c62828" stroke="none" transform="scale(1,-1) translate(0,-256)" /><path d="M535 -25Q534 -26 532.0 -31.5Q530 -37 530 -37Q528 -31 528.0 -20.0Q528 -9 535 1Q546 20 565.5 21.0Q585 22 588 1Q589 -8 584.5 -20.5Q580 -33 567 -31Q563 -30 560.5 -25.5Q558 -21 556 -18Q550 -11 545.5 -14.0Q541 -17 535 -25Z" fill="#c62828" stroke="none" transform="scale(1,-1) translate(0,-256)" /><path d="M356.15899658203125 181.84100341796875Q333.15899658203125 196.84100341796875 302.15899658203125 185.34100341796875Q271.15899658203125 173.84100341796875 250.15899658203125 142.84100341796875Q229.15899658203125 110.84100341796875 231.15899658203125 77.84100341796875Q233.15899658203125 44.84100341796875 256.15899658203125 29.84100341796875Q279.15899658203125 13.84100341796875 310.15899658203125 25.84100341796875Q341.15899658203125 37.84100341796875 362.15899658203125 68.84100341796875Q383.15899658203125 100.84100341796875 381.15899658203125 133.84100341796875Q379.15899658203125 166.84100341796875 356.15899658203125 181.84100341796875Z" fill="#c62828" stroke="none" transform="scale(1,-1) translate(0,-256)" /><path d="M968 304Q968 304 973.0 316.5Q978 329 1003 349Q1010 354 1032.0 362.5Q1054 371 1081 364Q1109 356 1124.5 344.0Q1140 332 1146.0 322.5Q1152 313 1152 313Q1152 313 1145.0 321.0Q1138 329 1123.0 334.5Q1108 340 1084 333Q1066 327 1052.5 315.0Q1039 303 1031.5 293.5Q1024 284 1024 284Q1024 284 1019.0 278.0Q1014 272 1004.5 268.0Q995 264 981 271Q968 277 968.0 290.5Q968 304 968 304Z" fill="#c62828" stroke="none" transform="scale(1,-1) translate(0,-256)" /><path d="M1071 237Q1068 235 1067.0 231.0Q1066 227 1066 227Q1063 233 1063.5 244.0Q1064 255 1070 265Q1082 283 1101.0 284.0Q1120 285 1123 264Q1124 255 1119.5 243.0Q1115 231 1102 233Q1098 234 1095.0 236.5Q1092 239 1090 243Q1085 250 1079.5 246.0Q1074 242 1071 237Z" fill="#c62828" stroke="none" transform="scale(1,-1) translate(0,-256)" /></svg>