<?xml version="1.0" encoding="utf-8" ?>
<svg baseProfile="full" height="256" version="1.1" width="256" xmlns="http://www.w3.org/2000/svg" xmlns:ev="http://www.w3.org/2001/xml-events" xmlns:xlink="http://www.w3.org/1999/xlink"><defs /><path d="M524 519Q533 518 540.0 508.0Q547 498 545 480Q543 460 532.5 449.5Q522 439 507 442Q493 444 488.0 458.0Q483 472 484 485Q486 497 494.5 510.0Q503 523 524 519Z" fill="#303030" stroke="none" transform="scale(1,-1) translate(0,-256)" /><path d="M721 479Q722 495 731.0 505.5Q740 516 754 515Q767 515 776.0 506.5Q785 498 784 480Q783 460 774.0 449.5Q765 439 751 439Q739 440 729.0 450.5Q719 461 721 479Z" fill="#303030" stroke="none" transform="scale(1,-1) translate(0,-256)" /><path d="M567 383Q574 389 581.0 385.5Q588 382 596 378Q600 375 612.0 371.0Q624 367 634 366Q659 366 677 375Q684 379 691.0 381.0Q698 383 704 379Q710 373 704.5 363.5Q699 354 687 348Q663 336 635.5 337.0Q608 338 590 346Q573 354 566.0 365.0Q559 376 567 383Z" fill="#303030" stroke="none" transform="scale(1,-1) translate(0,-256)" /><path d="M594 162Q594 177 605.5 187.0Q617 197 632 196Q666 194 668 162Q668 145 658.0 135.5Q648 126 634 126Q625 126 609.5 131.5Q594 137 594 162Z" fill="#303030" stroke="none" transform="scale(1,-1) translate(0,-256)" /><path d="M600 26Q600 46 609.5 55.5Q619 65 629 67Q638 68 652.5 65.5Q667 63 673 46Q679 30 669.5 15.0Q660 0 645 -2Q633 -4 616.0 3.5Q599 11 600 26Z" fill="#303030" stroke="none" transform="scale(1,-1) translate(0,-256)" /></svg>