<?xml version="1.0" encoding="utf-8" ?>
<svg baseProfile="full" height="256" version="1.1" width="256" xmlns="http://www.w3.org/2000/svg" xmlns:ev="http://www.w3.org/2001/xml-events" xmlns:xlink="http://www.w3.org/1999/xlink"><defs /><path d="M953 665Q962 687 968.0 723.0Q974 759 973.0 795.5Q972 832 962.0 857.0Q952 882 929 882Q915 880 911.5 868.5Q908 857 909.0 840.5Q910 824 907 807Q902 768 892.0 742.5Q882 717 871 700Q865 689 857.5 677.0Q850 665 840 650Q834 640 838.0 625.5Q842 611 853 605Q876 594 896.5 604.5Q917 615 932.0 633.5Q947 652 953 665Z" fill="#ffca28" stroke="none" transform="scale(1,-1) translate(0,-256)" /><path d="M320.031005859375 665.0Q311.031005859375 687.0 305.031005859375 723.0Q299.031005859375 759.0 300.031005859375 795.5Q301.031005859375 832.0 311.031005859375 857.0Q321.031005859375 882.0 344.031005859375 882.0Q358.031005859375 880.0 361.531005859375 868.5Q365.031005859375 857.0 364.031005859375 840.5Q363.031005859375 824.0 366.031005859375 807.0Q371.031005859375 768.0 381.031005859375 742.5Q391.031005859375 717.0 402.031005859375 700.0Q408.031005859375 689.0 415.531005859375 677.0Q423.031005859375 665.0 433.031005859375 650.0Q439.031005859375 640.0 435.031005859375 625.5Q431.031005859375 611.0 420.031005859375 605.0Q397.031005859375 594.0 376.531005859375 604.5Q356.031005859375 615.0 341.031005859375 633.5Q326.031005859375 652.0 320.031005859375 665.0Z" fill="#ffca28" stroke="none" transform="scale(1,-1) translate(0,-256)" /></svg>