<?xml version="1.0" encoding="utf-8" ?>
<svg baseProfile="full" height="256" version="1.1" width="256" xmlns="http://www.w3.org/2000/svg" xmlns:ev="http://www.w3.org/2001/xml-events" xmlns:xlink="http://www.w3.org/1999/xlink"><defs /><path d="M904 115Q917 119 928.5 117.5Q940 116 940 103Q941 94 930.0 85.5Q919 77 904.5 70.5Q890 64 881 60Q856 51 795.5 35.0Q735 19 636 19Q538 19 476.5 36.5Q415 54 387 65Q386 65 372.0 71.0Q358 77 345.0 85.5Q332 94 332 103Q333 117 345.5 118.0Q358 119 369 115Q408 103 478.5 86.5Q549 70 636 70Q723 70 794.5 86.5Q866 103 904 115Z" fill="#cc2d2d" stroke="none" transform="scale(1,-1) translate(0,-256)" /><path d="M565 158Q568 156 575.0 146.5Q582 137 588.5 128.5Q595 120 595 120Q595 120 582.0 126.0Q569 132 559 142Q554 140 548.0 139.0Q542 138 537 143Q533 146 533.0 152.0Q533 158 536 162Q542 170 552 167Q559 165 565 158Z" fill="#cc2d2d" stroke="none" transform="scale(1,-1) translate(0,-256)" /><path d="M708 158Q705 156 698.0 146.5Q691 137 685.5 129.0Q680 121 680 121Q680 121 692.0 126.5Q704 132 714 142Q719 140 725.0 139.0Q731 138 736 143Q740 146 740.5 152.0Q741 158 737 162Q731 170 721 167Q715 165 708 158Z" fill="#cc2d2d" stroke="none" transform="scale(1,-1) translate(0,-256)" /></svg>