<?xml version="1.0" encoding="utf-8" ?>
<svg baseProfile="full" height="256" version="1.1" width="256" xmlns="http://www.w3.org/2000/svg" xmlns:ev="http://www.w3.org/2001/xml-events" xmlns:xlink="http://www.w3.org/1999/xlink"><defs /><path d="M837 662Q879 662 910.0 632.5Q941 603 963.5 556.5Q986 510 1000.0 457.0Q1014 404 1022.5 356.0Q1031 308 1034.0 276.0Q1037 244 1037 240Q1037 126 1003.0 40.5Q969 -45 911.5 -103.0Q854 -161 783.0 -190.0Q712 -219 637 -219Q563 -219 491.5 -190.0Q420 -161 362.5 -103.0Q305 -45 271.0 40.5Q237 126 237 240Q237 244 240.5 276.0Q244 308 252.0 356.0Q260 404 274.5 457.0Q289 510 311.0 556.5Q333 603 364.5 632.5Q396 662 438 662Q483 662 515.0 653.5Q547 645 575.5 636.5Q604 628 637 628Q671 628 699.5 636.5Q728 645 760.0 653.5Q792 662 837 662Z" fill="#f04e3e" stroke="none" transform="scale(1,-1) translate(0,-256)" /></svg>