<?xml version="1.0" encoding="utf-8" ?>
<svg baseProfile="full" height="256" version="1.1" width="256" xmlns="http://www.w3.org/2000/svg" xmlns:ev="http://www.w3.org/2001/xml-events" xmlns:xlink="http://www.w3.org/1999/xlink"><defs /><path d="M642 -181Q691 -181 741.0 -161.0Q791 -141 830 -102Q873 -60 894.0 -7.0Q915 46 914 98Q913 178 875.0 240.0Q837 302 774.5 338.0Q712 374 637 374Q637 374 636.5 374.0Q636 374 636 374Q595 374 547.5 357.5Q500 341 457.5 307.5Q415 274 388.0 222.5Q361 171 361 101Q360 -18 445 -100Q483 -137 533.0 -158.0Q583 -179 635 -181Q638 -181 642 -181ZM636 343Q636 343 636.5 343.0Q637 343 637 343Q705 343 761.0 310.0Q817 277 851.0 221.5Q885 166 886 98Q887 51 866.5 4.5Q846 -42 807 -80Q770 -116 726.0 -133.5Q682 -151 638 -149Q560 -147 504.0 -109.5Q448 -72 418.5 -16.0Q389 40 389 101Q389 161 413.0 206.5Q437 252 475.0 282.5Q513 313 556.0 328.0Q599 343 636 343Z" fill="#fa912c" stroke="none" transform="scale(1,-1) translate(0,-256)" /><path d="M561 228Q562 230 576.0 235.5Q590 241 608.5 248.0Q627 255 642.0 260.5Q657 266 661 267Q669 268 674.5 265.0Q680 262 681 256Q681 254 681.0 227.0Q681 200 681.0 162.0Q681 124 680.5 86.5Q680 49 679.5 24.0Q679 -1 679 -1Q679 -1 687.0 -1.0Q695 -1 703.5 -1.5Q712 -2 714 -4Q715 -5 715.5 -20.0Q716 -35 715.5 -51.0Q715 -67 713 -70Q711 -73 690.5 -74.0Q670 -75 643.5 -75.0Q617 -75 597.0 -74.0Q577 -73 575 -72Q572 -70 571.5 -53.0Q571 -36 571.5 -19.0Q572 -2 576 -1Q577 0 585.5 0.0Q594 0 602.0 0.0Q610 0 610 0L612 169Q612 169 601.0 164.5Q590 160 578.0 156.0Q566 152 564 155Q562 156 560.5 172.5Q559 189 559.0 206.5Q559 224 561 228Z" fill="#fa912c" stroke="none" transform="scale(1,-1) translate(0,-256)" /></svg>