<?xml version="1.0" encoding="utf-8" ?>
<svg baseProfile="full" height="256" version="1.1" width="256" xmlns="http://www.w3.org/2000/svg" xmlns:ev="http://www.w3.org/2001/xml-events" xmlns:xlink="http://www.w3.org/1999/xlink"><defs /><path d="M803 544Q809 541 810.0 524.5Q811 508 809.5 492.0Q808 476 805 474Q803 472 787.0 463.5Q771 455 751.0 445.0Q731 435 716.0 427.5Q701 420 701 420V401Q701 401 696.5 398.0Q692 395 677.5 391.5Q663 388 632 388Q600 388 585.5 392.0Q571 396 567.0 399.5Q563 403 563 403V422Q563 422 546.0 430.0Q529 438 506.5 449.0Q484 460 466.5 469.0Q449 478 447 481Q446 484 445.0 497.5Q444 511 445.0 525.0Q446 539 450 544Q452 547 477.5 548.5Q503 550 542.0 550.5Q581 551 625.0 550.5Q669 550 708.5 549.0Q748 548 774.0 547.0Q800 546 803 544ZM700 466 760 500 759 508 494 510V503L565 469Q565 469 566.5 476.5Q568 484 574 485Q577 485 595.0 485.0Q613 485 635.0 485.0Q657 485 674.0 484.5Q691 484 694 482Q698 480 699.0 473.0Q700 466 700 466Z" fill="#fcc417" stroke="none" transform="scale(1,-1) translate(0,-256)" /><path d="M309 100Q309 173 335.5 231.0Q362 289 407.5 329.5Q453 370 511.5 391.5Q570 413 635 414Q690 414 746.5 396.0Q803 378 851.0 341.0Q899 304 929.5 247.5Q960 191 964 115Q968 35 940.5 -26.5Q913 -88 865.5 -130.5Q818 -173 760.5 -195.5Q703 -218 647 -220Q597 -222 538.5 -204.0Q480 -186 427.5 -146.5Q375 -107 342.0 -46.0Q309 15 309 100Z" fill="#fcc417" stroke="none" transform="scale(1,-1) translate(0,-256)" /></svg>