<?xml version="1.0" encoding="utf-8" ?>
<svg baseProfile="full" height="256" version="1.1" width="256" xmlns="http://www.w3.org/2000/svg" xmlns:ev="http://www.w3.org/2001/xml-events" xmlns:xlink="http://www.w3.org/1999/xlink"><defs /><path d="M580 382Q586 373 568.0 365.5Q550 358 520.5 345.0Q491 332 463 307Q432 279 414.5 251.5Q397 224 387.0 206.5Q377 189 369 191Q363 193 365.0 211.5Q367 230 382.0 259.5Q397 289 430 321Q465 355 498.0 369.0Q531 383 553.5 384.5Q576 386 580 382Z" fill="#fefffa" stroke="none" transform="scale(1,-1) translate(0,-256)" /><path d="M863 139Q872 140 875.0 119.0Q878 98 872.5 64.5Q867 31 849 -4Q830 -43 801.0 -70.5Q772 -98 748.5 -109.5Q725 -121 721 -111Q718 -104 731.5 -92.5Q745 -81 767.0 -60.5Q789 -40 812 -7Q831 21 839.0 47.0Q847 73 849.0 93.5Q851 114 853.0 126.0Q855 138 863 139Z" fill="#fefffa" stroke="none" transform="scale(1,-1) translate(0,-256)" /></svg>