<?xml version="1.0" encoding="utf-8" ?>
<svg baseProfile="full" height="256" version="1.1" width="256" xmlns="http://www.w3.org/2000/svg" xmlns:ev="http://www.w3.org/2001/xml-events" xmlns:xlink="http://www.w3.org/1999/xlink"><defs /><path d="M74 -7Q74 -7 73.5 -20.0Q73 -33 78 -49Q83 -68 101.0 -74.5Q119 -81 135 -81Q140 -81 168.0 -81.0Q196 -81 237.0 -81.0Q278 -81 323.0 -81.0Q368 -81 407.5 -81.0Q447 -81 472.0 -81.0Q497 -81 497 -81Q497 -81 495.0 -67.5Q493 -54 486.5 -33.5Q480 -13 465.0 8.0Q450 29 423.0 43.0Q396 57 355 57Q319 58 294.5 48.0Q270 38 255.5 25.5Q241 13 234.0 3.0Q227 -7 227 -7Z" fill="#b10a1b" stroke="none" transform="scale(1,-1) translate(0,-256)" /></svg>