<?xml version="1.0" encoding="utf-8" ?>
<svg baseProfile="full" height="256" version="1.1" width="256" xmlns="http://www.w3.org/2000/svg" xmlns:ev="http://www.w3.org/2001/xml-events" xmlns:xlink="http://www.w3.org/1999/xlink"><defs /><path d="M288 80 481 92Q481 92 491.0 99.0Q501 106 513.5 116.5Q526 127 536.0 136.5Q546 146 546 151Q546 155 546.5 183.5Q547 212 547.0 252.5Q547 293 547.5 334.5Q548 376 548.0 408.0Q548 440 548 450Q548 475 540.5 483.0Q533 491 521 491Q516 492 496.0 492.0Q476 492 448.0 492.5Q420 493 391.5 493.0Q363 493 340.5 492.5Q318 492 310 492Q290 490 279.5 480.0Q269 470 262 461Q259 457 246.0 437.0Q233 417 216.0 389.0Q199 361 182.0 334.5Q165 308 154.0 290.0Q143 272 143 272Q143 272 133.5 266.5Q124 261 112.5 253.5Q101 246 94 242Q85 236 81.5 227.0Q78 218 77 208Q77 203 76.5 180.0Q76 157 75.5 129.0Q75 101 74.5 80.5Q74 60 74 60L145 35Z" fill="#e0e0e0" stroke="none" transform="scale(1,-1) translate(0,-256)" /></svg>