<?xml version="1.0" encoding="utf-8" ?>
<svg baseProfile="full" height="256" version="1.1" width="256" xmlns="http://www.w3.org/2000/svg" xmlns:ev="http://www.w3.org/2001/xml-events" xmlns:xlink="http://www.w3.org/1999/xlink"><defs /><path d="M571 682Q571 679 570.5 648.0Q570 617 570.0 567.0Q570 517 570.0 458.5Q570 400 569.5 341.0Q569 282 569.0 232.0Q569 182 569.0 151.0Q569 120 569 117Q569 106 577.5 99.5Q586 93 595 92Q598 92 630.0 91.5Q662 91 712.5 91.0Q763 91 823.5 91.0Q884 91 945.0 91.0Q1006 91 1057.5 91.0Q1109 91 1142.0 91.5Q1175 92 1179 92Q1193 93 1196.5 102.0Q1200 111 1200 119Q1200 122 1200.0 153.0Q1200 184 1200.0 234.0Q1200 284 1200.5 343.5Q1201 403 1201.5 462.5Q1202 522 1202.0 572.5Q1202 623 1202.5 654.0Q1203 685 1203 688Q1203 696 1197.0 706.5Q1191 717 1178 717Q1174 717 1142.0 717.0Q1110 717 1059.5 716.5Q1009 716 949.5 716.0Q890 716 830.5 715.5Q771 715 720.5 715.0Q670 715 637.5 715.0Q605 715 601 715Q571 717 571 682Z" fill="#d16e1d" stroke="none" transform="scale(1,-1) translate(0,-256)" /><path d="M735 116H764Q763 183 763.0 260.5Q763 338 763.0 413.5Q763 489 763.0 552.0Q763 615 763.0 654.5Q763 694 764 699L750 700L736 703Q735 700 735.0 668.0Q735 636 735.0 584.5Q735 533 735.0 470.0Q735 407 735.0 342.0Q735 277 735.0 218.0Q735 159 735 116Z" fill="#d16e1d" stroke="none" transform="scale(1,-1) translate(0,-256)" /><path d="M878.9039154052734 700.9236297607422V114.96394348144531H907.0332641601562V700.9236297607422Z" fill="#d16e1d" stroke="none" transform="scale(1,-1) translate(0,-256)" /><path d="M1020.8129425048828 700.5498657226562V117.41366577148438H1048.9334106445312V700.5498657226562Z" fill="#d16e1d" stroke="none" transform="scale(1,-1) translate(0,-256)" /></svg>