<?xml version="1.0" encoding="utf-8" ?>
<svg baseProfile="full" height="256" version="1.1" width="256" xmlns="http://www.w3.org/2000/svg" xmlns:ev="http://www.w3.org/2001/xml-events" xmlns:xlink="http://www.w3.org/1999/xlink"><defs /><path d="M291 -94Q291 -68 308.0 -49.5Q325 -31 352 -31Q379 -30 397.0 -47.0Q415 -64 416 -90Q417 -115 401.5 -134.5Q386 -154 354 -154Q322 -154 307.0 -133.0Q292 -112 291 -94Z" fill="#c8c8c8" stroke="none" transform="scale(1,-1) translate(0,-256)" /><path d="M909.75 -94.0Q909.75 -68.0 926.75 -49.5Q943.75 -31.0 970.75 -31.0Q997.75 -30.0 1015.75 -47.0Q1033.75 -64.0 1034.75 -90.0Q1035.75 -115.0 1020.25 -134.5Q1004.75 -154.0 972.75 -154.0Q940.75 -154.0 925.75 -133.0Q910.75 -112.0 909.75 -94.0Z" fill="#c8c8c8" stroke="none" transform="scale(1,-1) translate(0,-256)" /></svg>