<?xml version="1.0" encoding="utf-8" ?>
<svg baseProfile="full" height="256" version="1.1" width="256" xmlns="http://www.w3.org/2000/svg" xmlns:ev="http://www.w3.org/2001/xml-events" xmlns:xlink="http://www.w3.org/1999/xlink"><defs /><path d="M222 276Q222 276 230.0 290.0Q238 304 249.5 323.5Q261 343 271.5 361.0Q282 379 287 386Q295 398 304.0 408.0Q313 418 322 419Q324 419 341.5 419.0Q359 419 381.5 419.0Q404 419 422.5 419.0Q441 419 445 419Q453 420 460.5 416.0Q468 412 467 400Q467 397 467.0 381.0Q467 365 467.0 344.0Q467 323 467.0 306.5Q467 290 467 288Q467 276 458 276Q456 276 432.0 276.0Q408 276 373.0 276.0Q338 276 303.0 276.0Q268 276 244.5 276.0Q221 276 222 276Z" fill="#afe3fb" stroke="none" transform="scale(1,-1) translate(0,-256)" /></svg>