<?xml version="1.0" encoding="utf-8" ?>
<svg baseProfile="full" height="256" version="1.1" width="256" xmlns="http://www.w3.org/2000/svg" xmlns:ev="http://www.w3.org/2001/xml-events" xmlns:xlink="http://www.w3.org/1999/xlink"><defs /><path d="M970 306Q970 306 970.5 322.5Q971 339 971.0 360.5Q971 382 971.0 398.5Q971 415 971 415Q970 546 920 612Q869 677 766 677Q662 677 611 610Q561 542 561 407V298Q562 167 613 101Q664 34 766 34Q869 34 920 103Q970 171 970 306ZM865 423 864 282Q863 196 839 157Q828 137 808.0 126.5Q788 116 765 118Q741 116 720.0 127.5Q699 139 688 161Q664 204 664 291V433Q665 515 689 554Q713 594 764 594Q817 594 841 553Q865 511 865 423Z" fill="#fafafa" stroke="none" transform="scale(1,-1) translate(0,-256)" /><path d="M473 32Q473 32 473.0 32.0Q473 32 473 32Q486 33 485 46V668Q485 668 485.0 668.0Q485 668 485 669Q484 679 473 679Q473 679 471.5 678.5Q470 678 470 678L263 601Q255 598 255 590V524Q255 522 256 520Q259 509 270 513L363 544Q365 545 366 545Q378 545 378 533V43Q378 32 389 32Z" fill="#fafafa" stroke="none" transform="scale(1,-1) translate(0,-256)" /></svg>