<?xml version="1.0" encoding="utf-8" ?>
<svg baseProfile="full" height="256" version="1.1" width="256" xmlns="http://www.w3.org/2000/svg" xmlns:ev="http://www.w3.org/2001/xml-events" xmlns:xlink="http://www.w3.org/1999/xlink"><defs /><path d="M636 -47Q646 -45 664.0 -49.0Q682 -53 699.0 -59.0Q716 -65 723.5 -70.0Q731 -75 719 -77Q675 -82 639.5 -102.5Q604 -123 573.5 -152.0Q543 -181 516 -212Q511 -216 498.0 -212.0Q485 -208 470.0 -200.5Q455 -193 443.5 -186.5Q432 -180 432 -180Q426 -176 422.5 -160.0Q419 -144 417.5 -122.5Q416 -101 416.0 -81.5Q416 -62 418 -51Q425 23 450.0 86.0Q475 149 528 202L609 187Q609 187 596.0 173.0Q583 159 564.0 130.0Q545 101 526.5 55.0Q508 9 497 -56Q496 -65 495.0 -92.0Q494 -119 497 -144Q497 -144 505.5 -132.0Q514 -120 531.0 -103.0Q548 -86 574.5 -70.5Q601 -55 636 -47Z" fill="#616161" stroke="none" transform="scale(1,-1) translate(0,-256)" /><path d="M852.656005859375 -47.0Q842.656005859375 -45.0 824.656005859375 -49.0Q806.656005859375 -53.0 789.656005859375 -59.0Q772.656005859375 -65.0 765.156005859375 -70.0Q757.656005859375 -75.0 769.656005859375 -77.0Q813.656005859375 -82.0 849.156005859375 -102.5Q884.656005859375 -123.0 915.156005859375 -152.0Q945.656005859375 -181.0 972.656005859375 -212.0Q977.656005859375 -216.0 990.656005859375 -212.0Q1003.656005859375 -208.0 1018.656005859375 -200.5Q1033.656005859375 -193.0 1045.156005859375 -186.5Q1056.656005859375 -180.0 1056.656005859375 -180.0Q1062.656005859375 -176.0 1066.156005859375 -160.0Q1069.656005859375 -144.0 1071.156005859375 -122.5Q1072.656005859375 -101.0 1072.656005859375 -81.5Q1072.656005859375 -62.0 1070.656005859375 -51.0Q1063.656005859375 23.0 1038.656005859375 86.0Q1013.656005859375 149.0 960.656005859375 202.0L879.656005859375 187.0Q879.656005859375 187.0 892.656005859375 173.0Q905.656005859375 159.0 924.656005859375 130.0Q943.656005859375 101.0 962.156005859375 55.0Q980.656005859375 9.0 991.656005859375 -56.0Q992.656005859375 -65.0 993.656005859375 -92.0Q994.656005859375 -119.0 991.656005859375 -144.0Q991.656005859375 -144.0 983.156005859375 -132.0Q974.656005859375 -120.0 957.656005859375 -103.0Q940.656005859375 -86.0 914.156005859375 -70.5Q887.656005859375 -55.0 852.656005859375 -47.0Z" fill="#616161" stroke="none" transform="scale(1,-1) translate(0,-256)" /></svg>