<?xml version="1.0" encoding="utf-8" ?>
<svg baseProfile="full" height="256" version="1.1" width="256" xmlns="http://www.w3.org/2000/svg" xmlns:ev="http://www.w3.org/2001/xml-events" xmlns:xlink="http://www.w3.org/1999/xlink"><defs /><path d="M1013 745Q1005 739 1009.5 728.0Q1014 717 1023.5 709.0Q1033 701 1040 706L1187 808Q1195 813 1197.0 822.5Q1199 832 1193 840Q1188 848 1178.5 850.0Q1169 852 1161 846Z" fill="#bf855e" stroke="none" transform="scale(1,-1) translate(0,-256)" /><path d="M883 776Q876 770 883.0 760.0Q890 750 901.0 744.5Q912 739 917 745L1040 876Q1046 883 1045.5 892.5Q1045 902 1038 909Q1031 916 1021.5 915.5Q1012 915 1005 908Z" fill="#bf855e" stroke="none" transform="scale(1,-1) translate(0,-256)" /><path d="M293 706Q301 701 310.5 708.5Q320 716 324.0 727.5Q328 739 320 745L172 847Q164 852 154.5 850.5Q145 849 140 841Q134 833 135.5 823.5Q137 814 146 808Z" fill="#bf855e" stroke="none" transform="scale(1,-1) translate(0,-256)" /></svg>