<?xml version="1.0" encoding="utf-8" ?>
<svg baseProfile="full" height="256" version="1.1" width="256" xmlns="http://www.w3.org/2000/svg" xmlns:ev="http://www.w3.org/2001/xml-events" xmlns:xlink="http://www.w3.org/1999/xlink"><defs /><path d="M744 55Q695 55 666.5 48.5Q638 42 632 37Q638 32 666.5 25.5Q695 19 744 19Q794 19 822.0 25.5Q850 32 856 37Q850 42 822.0 48.5Q794 55 744 55ZM744 65Q795 65 831.0 56.5Q867 48 867 37Q867 25 831.0 17.0Q795 9 744 9Q693 9 657.0 17.0Q621 25 621 37Q621 48 657.0 56.5Q693 65 744 65Z" fill="#ffe082" stroke="none" transform="scale(1,-1) translate(0,-256)" /><path d="M857 37Q856 38 861.5 38.0Q867 38 868 37Q868 25 831.5 17.0Q795 9 744 9Q693 9 657.0 17.0Q621 25 621 37Q621 38 627.0 38.0Q633 38 632 37Q638 32 666.5 25.5Q695 19 744 19Q794 19 822.0 25.5Q850 32 857 37Z" fill="#ffe082" stroke="none" transform="scale(1,-1) translate(0,-256)" /><path d="M502 201V200Q531 190 561.0 183.5Q591 177 621 172Q680 164 743 164Q806 164 865 172Q895 177 925.0 183.5Q955 190 984 200V201Q969 198 954.0 195.0Q939 192 924 191Q909 188 893.5 186.5Q878 185 863 183Q833 181 803.0 179.5Q773 178 743 178Q713 178 683.0 179.5Q653 181 623 183Q593 186 562 191Q547 192 532.0 195.0Q517 198 502 201Z" fill="#ffe082" stroke="none" transform="scale(1,-1) translate(0,-256)" /></svg>