<?xml version="1.0" encoding="utf-8" ?>
<svg baseProfile="full" height="256" version="1.1" width="256" xmlns="http://www.w3.org/2000/svg" xmlns:ev="http://www.w3.org/2001/xml-events" xmlns:xlink="http://www.w3.org/1999/xlink"><defs /><path d="M410 829Q410 819 390.0 809.0Q370 799 340.5 785.5Q311 772 281.0 752.0Q251 732 233 702Q219 681 212.5 654.0Q206 627 198.0 606.5Q190 586 174 586Q157 586 154.0 613.0Q151 640 151 673Q152 721 157.5 759.0Q163 797 179 817Q195 837 224.5 844.5Q254 852 308 854Q352 856 373.5 854.0Q395 852 402.5 846.0Q410 840 410 829Z" fill="#fafafa" stroke="none" transform="scale(1,-1) translate(0,-256)" /><path d="M311 604V90H408V604Z" fill="#fafafa" stroke="none" transform="scale(1,-1) translate(0,-256)" /><path d="M525 604V90H699Q780 90 839 122Q899 154 931 213Q964 271 964 347Q964 423 931 481Q899 540 839 572Q780 604 699 604ZM695 182H622V512H695Q778 512 822 468Q866 424 866 347Q866 270 822 226Q778 182 695 182Z" fill="#fafafa" stroke="none" transform="scale(1,-1) translate(0,-256)" /></svg>