<?xml version="1.0" encoding="utf-8" ?>
<svg baseProfile="full" height="256" version="1.1" width="256" xmlns="http://www.w3.org/2000/svg" xmlns:ev="http://www.w3.org/2001/xml-events" xmlns:xlink="http://www.w3.org/1999/xlink"><defs /><path d="M428 467Q430 468 430 471V514Q430 516 428 518L413 533Q408 537 404 533L389 518Q387 516 387 514V471Q387 468 389 467L404 451Q408 447 413 451Z" fill="#000000" stroke="none" transform="scale(1,-1) translate(0,-256)" /><path d="M428.0 365.18800354003906Q430.0 366.18800354003906 430.0 369.18800354003906V412.18800354003906Q430.0 414.18800354003906 428.0 416.18800354003906L413.0 431.18800354003906Q408.0 435.18800354003906 404.0 431.18800354003906L389.0 416.18800354003906Q387.0 414.18800354003906 387.0 412.18800354003906V369.18800354003906Q387.0 366.18800354003906 389.0 365.18800354003906L404.0 349.18800354003906Q408.0 345.18800354003906 413.0 349.18800354003906Z" fill="#000000" stroke="none" transform="scale(1,-1) translate(0,-256)" /><path d="M506.375 467.0Q508.375 468.0 508.375 471.0V514.0Q508.375 516.0 506.375 518.0L491.375 533.0Q486.375 537.0 482.375 533.0L467.375 518.0Q465.375 516.0 465.375 514.0V471.0Q465.375 468.0 467.375 467.0L482.375 451.0Q486.375 447.0 491.375 451.0Z" fill="#000000" stroke="none" transform="scale(1,-1) translate(0,-256)" /><path d="M617.9380035400391 467.0Q619.9380035400391 468.0 619.9380035400391 471.0V514.0Q619.9380035400391 516.0 617.9380035400391 518.0L602.9380035400391 533.0Q597.9380035400391 537.0 593.9380035400391 533.0L578.9380035400391 518.0Q576.9380035400391 516.0 576.9380035400391 514.0V471.0Q576.9380035400391 468.0 578.9380035400391 467.0L593.9380035400391 451.0Q597.9380035400391 447.0 602.9380035400391 451.0Z" fill="#000000" stroke="none" transform="scale(1,-1) translate(0,-256)" /><path d="M617.9380035400391 365.18800354003906Q619.9380035400391 366.18800354003906 619.9380035400391 369.18800354003906V412.18800354003906Q619.9380035400391 414.18800354003906 617.9380035400391 416.18800354003906L602.9380035400391 431.18800354003906Q597.9380035400391 435.18800354003906 593.9380035400391 431.18800354003906L578.9380035400391 416.18800354003906Q576.9380035400391 414.18800354003906 576.9380035400391 412.18800354003906V369.18800354003906Q576.9380035400391 366.18800354003906 578.9380035400391 365.18800354003906L593.9380035400391 349.18800354003906Q597.9380035400391 345.18800354003906 602.9380035400391 349.18800354003906Z" fill="#000000" stroke="none" transform="scale(1,-1) translate(0,-256)" /><path d="M517 524Q519 522 521 522H564Q566 522 568 524L583 539Q588 543 583 547L568 563Q566 564 564 564H521Q519 564 517 563L502 547Q497 543 502 539Z" fill="#000000" stroke="none" transform="scale(1,-1) translate(0,-256)" /><path d="M517.0 422.18800354003906Q519.0 420.18800354003906 521.0 420.18800354003906H564.0Q566.0 420.18800354003906 568.0 422.18800354003906L583.0 437.18800354003906Q588.0 441.18800354003906 583.0 445.18800354003906L568.0 461.18800354003906Q566.0 462.18800354003906 564.0 462.18800354003906H521.0Q519.0 462.18800354003906 517.0 461.18800354003906L502.0 445.18800354003906Q497.0 441.18800354003906 502.0 437.18800354003906Z" fill="#000000" stroke="none" transform="scale(1,-1) translate(0,-256)" /><path d="M517.0 320.375Q519.0 318.375 521.0 318.375H564.0Q566.0 318.375 568.0 320.375L583.0 335.375Q588.0 339.375 583.0 343.375L568.0 359.375Q566.0 360.375 564.0 360.375H521.0Q519.0 360.375 517.0 359.375L502.0 343.375Q497.0 339.375 502.0 335.375Z" fill="#000000" stroke="none" transform="scale(1,-1) translate(0,-256)" /><path d="M696.3119964599609 467.0Q698.3119964599609 468.0 698.3119964599609 471.0V514.0Q698.3119964599609 516.0 696.3119964599609 518.0L681.3119964599609 533.0Q676.3119964599609 537.0 672.3119964599609 533.0L657.3119964599609 518.0Q655.3119964599609 516.0 655.3119964599609 514.0V471.0Q655.3119964599609 468.0 657.3119964599609 467.0L672.3119964599609 451.0Q676.3119964599609 447.0 681.3119964599609 451.0Z" fill="#000000" stroke="none" transform="scale(1,-1) translate(0,-256)" /><path d="M808 467Q809 468 810 471V514Q810 516 808 518L792 533Q788 537 784 533L769 518Q767 516 767 514V471Q767 468 769 467L784 451Q788 447 792 451Z" fill="#000000" stroke="none" transform="scale(1,-1) translate(0,-256)" /><path d="M808.0 365.18800354003906Q809.0 366.18800354003906 810.0 369.18800354003906V412.18800354003906Q810.0 414.18800354003906 808.0 416.18800354003906L792.0 431.18800354003906Q788.0 435.18800354003906 784.0 431.18800354003906L769.0 416.18800354003906Q767.0 414.18800354003906 767.0 412.18800354003906V369.18800354003906Q767.0 366.18800354003906 769.0 365.18800354003906L784.0 349.18800354003906Q788.0 345.18800354003906 792.0 349.18800354003906Z" fill="#000000" stroke="none" transform="scale(1,-1) translate(0,-256)" /><path d="M706.9380035400391 524.0Q708.9380035400391 522.0 710.9380035400391 522.0H753.9380035400391Q755.9380035400391 522.0 757.9380035400391 524.0L772.9380035400391 539.0Q777.9380035400391 543.0 772.9380035400391 547.0L757.9380035400391 563.0Q755.9380035400391 564.0 753.9380035400391 564.0H710.9380035400391Q708.9380035400391 564.0 706.9380035400391 563.0L691.9380035400391 547.0Q686.9380035400391 543.0 691.9380035400391 539.0Z" fill="#000000" stroke="none" transform="scale(1,-1) translate(0,-256)" /><path d="M706.9380035400391 422.18800354003906Q708.9380035400391 420.18800354003906 710.9380035400391 420.18800354003906H753.9380035400391Q755.9380035400391 420.18800354003906 757.9380035400391 422.18800354003906L772.9380035400391 437.18800354003906Q777.9380035400391 441.18800354003906 772.9380035400391 445.18800354003906L757.9380035400391 461.18800354003906Q755.9380035400391 462.18800354003906 753.9380035400391 462.18800354003906H710.9380035400391Q708.9380035400391 462.18800354003906 706.9380035400391 461.18800354003906L691.9380035400391 445.18800354003906Q686.9380035400391 441.18800354003906 691.9380035400391 437.18800354003906Z" fill="#000000" stroke="none" transform="scale(1,-1) translate(0,-256)" /><path d="M706.9380035400391 320.375Q708.9380035400391 318.375 710.9380035400391 318.375H753.9380035400391Q755.9380035400391 318.375 757.9380035400391 320.375L772.9380035400391 335.375Q777.9380035400391 339.375 772.9380035400391 343.375L757.9380035400391 359.375Q755.9380035400391 360.375 753.9380035400391 360.375H710.9380035400391Q708.9380035400391 360.375 706.9380035400391 359.375L691.9380035400391 343.375Q686.9380035400391 339.375 691.9380035400391 335.375Z" fill="#000000" stroke="none" transform="scale(1,-1) translate(0,-256)" /><path d="M886.375 467.0Q887.375 468.0 888.375 471.0V514.0Q888.375 516.0 886.375 518.0L870.375 533.0Q866.375 537.0 862.375 533.0L847.375 518.0Q845.375 516.0 845.375 514.0V471.0Q845.375 468.0 847.375 467.0L862.375 451.0Q866.375 447.0 870.375 451.0Z" fill="#000000" stroke="none" transform="scale(1,-1) translate(0,-256)" /><path d="M998 467Q1000 468 999 471V514Q999 516 998 518L982 533Q978 537 974 533L959 518Q957 516 957 514V471Q957 468 959 467L974 451Q978 447 982 451Z" fill="#000000" stroke="none" transform="scale(1,-1) translate(0,-256)" /><path d="M886.375 365.18800354003906Q887.375 366.18800354003906 888.375 369.18800354003906V412.18800354003906Q888.375 414.18800354003906 886.375 416.18800354003906L870.375 431.18800354003906Q866.375 435.18800354003906 862.375 431.18800354003906L847.375 416.18800354003906Q845.375 414.18800354003906 845.375 412.18800354003906V369.18800354003906Q845.375 366.18800354003906 847.375 365.18800354003906L862.375 349.18800354003906Q866.375 345.18800354003906 870.375 349.18800354003906Z" fill="#000000" stroke="none" transform="scale(1,-1) translate(0,-256)" /><path d="M998.0 365.18800354003906Q1000.0 366.18800354003906 999.0 369.18800354003906V412.18800354003906Q999.0 414.18800354003906 998.0 416.18800354003906L982.0 431.18800354003906Q978.0 435.18800354003906 974.0 431.18800354003906L959.0 416.18800354003906Q957.0 414.18800354003906 957.0 412.18800354003906V369.18800354003906Q957.0 366.18800354003906 959.0 365.18800354003906L974.0 349.18800354003906Q978.0 345.18800354003906 982.0 349.18800354003906Z" fill="#000000" stroke="none" transform="scale(1,-1) translate(0,-256)" /><path d="M897 524Q898 522 901 522H944Q946 522 948 524L963 539Q968 543 963 547L948 563Q946 564 944 564H901Q899 564 897 563L882 547Q877 543 882 539Z" fill="#000000" stroke="none" transform="scale(1,-1) translate(0,-256)" /><path d="M897.0 422.18800354003906Q898.0 420.18800354003906 901.0 420.18800354003906H944.0Q946.0 420.18800354003906 948.0 422.18800354003906L963.0 437.18800354003906Q968.0 441.18800354003906 963.0 445.18800354003906L948.0 461.18800354003906Q946.0 462.18800354003906 944.0 462.18800354003906H901.0Q899.0 462.18800354003906 897.0 461.18800354003906L882.0 445.18800354003906Q877.0 441.18800354003906 882.0 437.18800354003906Z" fill="#000000" stroke="none" transform="scale(1,-1) translate(0,-256)" /><path d="M897.0 320.375Q898.0 318.375 901.0 318.375H944.0Q946.0 318.375 948.0 320.375L963.0 335.375Q968.0 339.375 963.0 343.375L948.0 359.375Q946.0 360.375 944.0 360.375H901.0Q899.0 360.375 897.0 359.375L882.0 343.375Q877.0 339.375 882.0 335.375Z" fill="#000000" stroke="none" transform="scale(1,-1) translate(0,-256)" /><path d="M1032 63Q1059 63 1073.0 83.0Q1087 103 1087 128Q1087 155 1073.0 174.0Q1059 193 1032 193H951Q923 193 909.5 174.0Q896 155 896 128Q896 101 909.5 82.0Q923 63 951 63Z" fill="#000000" stroke="none" transform="scale(1,-1) translate(0,-256)" /><path d="M324 63Q352 63 365.5 83.0Q379 103 379 128Q379 155 365.5 174.0Q352 193 324 193H243Q216 193 202.0 174.0Q188 155 188 128Q188 101 202.0 82.0Q216 63 243 63Z" fill="#000000" stroke="none" transform="scale(1,-1) translate(0,-256)" /><path d="M795.5630035400391 63.0Q823.5630035400391 63.0 837.0630035400391 83.0Q850.5630035400391 103.0 850.5630035400391 128.0Q850.5630035400391 155.0 837.0630035400391 174.0Q823.5630035400391 193.0 795.5630035400391 193.0H714.5630035400391Q687.5630035400391 193.0 673.5630035400391 174.0Q659.5630035400391 155.0 659.5630035400391 128.0Q659.5630035400391 101.0 673.5630035400391 82.0Q687.5630035400391 63.0 714.5630035400391 63.0Z" fill="#000000" stroke="none" transform="scale(1,-1) translate(0,-256)" /><path d="M479.43800354003906 63.0Q451.43800354003906 63.0 437.93800354003906 83.0Q424.43800354003906 103.0 424.43800354003906 128.0Q424.43800354003906 155.0 437.93800354003906 174.0Q451.43800354003906 193.0 479.43800354003906 193.0H560.4380035400391Q587.4380035400391 193.0 601.4380035400391 174.0Q615.4380035400391 155.0 615.4380035400391 128.0Q615.4380035400391 101.0 601.4380035400391 82.0Q587.4380035400391 63.0 560.4380035400391 63.0Z" fill="#000000" stroke="none" transform="scale(1,-1) translate(0,-256)" /><path d="M1029 593H246Q231 593 220.5 582.5Q210 572 210 557V326Q210 311 220.5 300.5Q231 290 246 290H1029Q1044 290 1054.5 300.5Q1065 311 1065 326V557Q1065 572 1054.5 582.5Q1044 593 1029 593ZM1029 641Q1064 641 1088.5 616.5Q1113 592 1113 557V326Q1113 291 1088.5 266.0Q1064 241 1029 241H246Q211 241 186.0 266.0Q161 291 161 326V557Q161 592 186.0 616.5Q211 641 246 641Z" fill="#000000" stroke="none" transform="scale(1,-1) translate(0,-256)" /></svg>