<?xml version="1.0" encoding="utf-8" ?>
<svg baseProfile="full" height="256" version="1.1" width="256" xmlns="http://www.w3.org/2000/svg" xmlns:ev="http://www.w3.org/2001/xml-events" xmlns:xlink="http://www.w3.org/1999/xlink"><defs /><path d="M959 389Q953 390 946.5 399.5Q940 409 937 415Q935 419 930.0 431.5Q925 444 919.0 460.0Q913 476 909.5 489.5Q906 503 907 507Q908 510 918.5 513.5Q929 517 934 518Q947 522 953.0 526.0Q959 530 965 523Q968 520 969.0 504.0Q970 488 970.0 468.0Q970 448 970.0 432.5Q970 417 971 417Q972 415 985.5 419.0Q999 423 1016.5 428.5Q1034 434 1049.0 437.0Q1064 440 1070 437Q1074 435 1075.0 423.0Q1076 411 1074.5 396.5Q1073 382 1070.5 371.5Q1068 361 1064 361Q1056 361 1006 379Q997 382 983.5 384.0Q970 386 959 389Z" fill="#907afa" stroke="none" transform="scale(1,-1) translate(0,-256)" /></svg>