<?xml version="1.0" encoding="utf-8" ?>
<svg baseProfile="full" height="256" version="1.1" width="256" xmlns="http://www.w3.org/2000/svg" xmlns:ev="http://www.w3.org/2001/xml-events" xmlns:xlink="http://www.w3.org/1999/xlink"><defs /><path d="M1064 519Q1064 523 1074.0 538.5Q1084 554 1098.0 572.0Q1112 590 1124.0 603.5Q1136 617 1138 617Q1142 618 1151.0 611.0Q1160 604 1168.5 596.0Q1177 588 1177 585Q1178 583 1168.0 574.0Q1158 565 1145.0 554.0Q1132 543 1121.5 534.0Q1111 525 1111 524Q1111 522 1120.5 513.5Q1130 505 1142.0 495.0Q1154 485 1163.5 476.5Q1173 468 1174 465Q1174 462 1167.0 452.5Q1160 443 1152.0 435.0Q1144 427 1142 427Q1140 428 1128.0 441.0Q1116 454 1101.0 471.5Q1086 489 1075.0 503.0Q1064 517 1064 519Z" fill="#dcbcf6" stroke="none" transform="scale(1,-1) translate(0,-256)" /></svg>