<?xml version="1.0" encoding="utf-8" ?>
<svg baseProfile="full" height="256" version="1.1" width="256" xmlns="http://www.w3.org/2000/svg" xmlns:ev="http://www.w3.org/2001/xml-events" xmlns:xlink="http://www.w3.org/1999/xlink"><defs /><path d="M787 14Q788 19 794.5 22.0Q801 25 810 29Q819 33 826.0 37.5Q833 42 839 40Q844 38 844.0 21.5Q844 5 841.0 -15.0Q838 -35 835.0 -50.5Q832 -66 832 -66Q832 -66 848.5 -63.0Q865 -60 882.5 -58.5Q900 -57 904 -60Q908 -63 910.0 -78.5Q912 -94 911.0 -108.5Q910 -123 905 -124Q898 -126 885.0 -122.0Q872 -118 851 -112Q831 -106 816.0 -101.0Q801 -96 798 -91Q797 -87 796.0 -71.0Q795 -55 792 -42Q790 -29 787.5 -11.5Q785 6 787 14Z" fill="#7ade8d" stroke="none" transform="scale(1,-1) translate(0,-256)" /></svg>