<?xml version="1.0" encoding="utf-8" ?>
<svg baseProfile="full" height="256" version="1.1" width="256" xmlns="http://www.w3.org/2000/svg" xmlns:ev="http://www.w3.org/2001/xml-events" xmlns:xlink="http://www.w3.org/1999/xlink"><defs /><path d="M858 760Q858 765 837.0 772.0Q816 779 781.5 788.0Q747 797 706.5 806.0Q666 815 627 825Q576 838 531.0 851.0Q486 864 457.0 873.5Q428 883 423 884Q419 885 417.0 884.5Q415 884 415 884Q415 884 419.5 858.5Q424 833 430.5 794.5Q437 756 444.0 717.5Q451 679 456.0 653.0Q461 627 462 625Q462 625 518.0 636.0Q574 647 662 675Q721 693 765.0 712.5Q809 732 833.5 746.0Q858 760 858 760Z" fill="#feb804" stroke="none" transform="scale(1,-1) translate(0,-256)" /></svg>