<?xml version="1.0" encoding="utf-8" ?>
<svg baseProfile="full" height="256" version="1.1" width="256" xmlns="http://www.w3.org/2000/svg" xmlns:ev="http://www.w3.org/2001/xml-events" xmlns:xlink="http://www.w3.org/1999/xlink"><defs /><path d="M1126.0222473144531 358.9163513183594Q1126.0222473144531 467.6169128417969 1085.259536743164 562.7299041748047Q1044.496826171875 657.8428955078125 972.2109527587891 730.1287689208984Q899.9250793457031 802.4146423339844 804.8120880126953 843.1773529052734Q709.6990966796875 883.9400634765625 599.9115295410156 883.9400634765625Q491.2109680175781 883.9400634765625 396.0979766845703 843.1773529052734Q300.9849853515625 802.4146423339844 228.69911193847656 730.1287689208984Q156.41323852539062 657.8428955078125 115.65052795410156 562.7299041748047Q74.8878173828125 467.6169128417969 74.8878173828125 358.9163513183594Q74.8878173828125 249.1287841796875 115.65052795410156 154.0157928466797Q156.41323852539062 58.902801513671875 228.69911193847656 -13.383071899414062Q300.9849853515625 -85.6689453125 396.0979766845703 -126.43165588378906Q491.2109680175781 -167.19436645507812 599.9115295410156 -167.19436645507812Q709.6990966796875 -167.19436645507812 804.8120880126953 -126.43165588378906Q899.9250793457031 -85.6689453125 972.2109527587891 -13.383071899414062Q1044.496826171875 58.902801513671875 1085.259536743164 154.0157928466797Q1126.0222473144531 249.1287841796875 1126.0222473144531 358.9163513183594Z" fill="#2262dd" stroke="none" transform="scale(1,-1) translate(0,-256)" /></svg>