<?xml version="1.0" encoding="utf-8" ?>
<svg baseProfile="full" height="256" version="1.1" width="256" xmlns="http://www.w3.org/2000/svg" xmlns:ev="http://www.w3.org/2001/xml-events" xmlns:xlink="http://www.w3.org/1999/xlink"><defs /><path d="M572 666Q572 666 566.0 685.5Q560 705 552.0 734.0Q544 763 537.0 792.5Q530 822 527.5 842.5Q525 863 531 865Q541 869 559.0 870.0Q577 871 590 870Q611 867 636.0 856.0Q661 845 682.0 819.0Q703 793 714 746Q726 694 710.0 637.0Q694 580 654.5 526.5Q615 473 556 433Q468 374 379.5 348.5Q291 323 214 340Q162 352 133.0 380.0Q104 408 90 434Q80 456 76.0 476.0Q72 496 72 496Z" fill="#871e0c" stroke="none" transform="scale(1,-1) translate(0,-256)" /><path d="M849 621 763 293Q763 293 772.0 272.0Q781 251 799.5 219.0Q818 187 847.0 153.0Q876 119 915.5 92.5Q955 66 1006 56Q1058 46 1097.0 61.5Q1136 77 1160.5 107.5Q1185 138 1195.5 176.0Q1206 214 1202 250Q1198 287 1186.5 311.0Q1175 335 1158.0 354.5Q1141 374 1117.5 397.0Q1094 420 1064 457Q1050 475 1038.5 504.0Q1027 533 1014.0 564.5Q1001 596 982 623Q955 658 934.5 666.0Q914 674 893 676Q880 678 870.0 664.0Q860 650 854.5 635.5Q849 621 849 621Z" fill="#871e0c" stroke="none" transform="scale(1,-1) translate(0,-256)" /><path d="M510 54 688 193Q688 193 703.0 193.0Q718 193 740.5 187.0Q763 181 787 163Q811 144 833.0 107.0Q855 70 849 22Q841 -39 802.0 -78.5Q763 -118 705.0 -138.5Q647 -159 580.5 -162.0Q514 -165 450 -152Q363 -134 315 -112Q232 -74 196 -13Q175 24 170.0 63.0Q165 102 168 127Q169 139 171.0 146.0Q173 153 173 153Q173 153 197.5 146.0Q222 139 260.0 127.5Q298 116 341.0 103.5Q384 91 422.0 79.5Q460 68 485.0 61.0Q510 54 510 54Z" fill="#871e0c" stroke="none" transform="scale(1,-1) translate(0,-256)" /></svg>