<?xml version="1.0" encoding="utf-8" ?>
<svg baseProfile="full" height="256" version="1.1" width="256" xmlns="http://www.w3.org/2000/svg" xmlns:ev="http://www.w3.org/2001/xml-events" xmlns:xlink="http://www.w3.org/1999/xlink"><defs /><path d="M979 756Q978 705 979.0 653.0Q980 601 1002 557Q1013 535 1024.5 518.5Q1036 502 1043 493Q951 402 844.0 316.0Q737 230 627.0 154.5Q517 79 415.5 17.0Q314 -45 232 -89Q238 -26 240.0 42.0Q242 110 242 175Q329 226 429.0 292.0Q529 358 629.5 433.5Q730 509 820.0 591.0Q910 673 979 756Z" fill="#ffca28" stroke="none" transform="scale(1,-1) translate(0,-256)" /></svg>