<?xml version="1.0" encoding="utf-8" ?>
<svg baseProfile="full" height="256" version="1.1" width="256" xmlns="http://www.w3.org/2000/svg" xmlns:ev="http://www.w3.org/2001/xml-events" xmlns:xlink="http://www.w3.org/1999/xlink"><defs /><path d="M957 605Q951 637 950.5 669.0Q950 701 951 734Q951 756 951.0 778.0Q951 800 949 822Q947 843 942.5 861.5Q938 880 931 899Q933 901 943.0 899.5Q953 898 957 896Q975 862 978.0 819.5Q981 777 979.0 731.0Q977 685 980.0 640.5Q983 596 1002 557Q1017 528 1032.0 508.5Q1047 489 1049 486Q1049 486 1050.0 484.0Q1051 482 1050 474Q1048 467 1047.5 465.5Q1047 464 1047 464Q1033 465 1023.5 475.0Q1014 485 1007 494Q990 519 977 545Q963 572 957 605Z" fill="#039be5" stroke="none" transform="scale(1,-1) translate(0,-256)" /><path d="M315.656005859375 605.0Q321.656005859375 637.0 322.156005859375 669.0Q322.656005859375 701.0 321.656005859375 734.0Q321.656005859375 756.0 321.656005859375 778.0Q321.656005859375 800.0 323.656005859375 822.0Q325.656005859375 843.0 330.156005859375 861.5Q334.656005859375 880.0 341.656005859375 899.0Q339.656005859375 901.0 329.656005859375 899.5Q319.656005859375 898.0 315.656005859375 896.0Q297.656005859375 862.0 294.656005859375 819.5Q291.656005859375 777.0 293.656005859375 731.0Q295.656005859375 685.0 292.656005859375 640.5Q289.656005859375 596.0 270.656005859375 557.0Q255.656005859375 528.0 240.656005859375 508.5Q225.656005859375 489.0 223.656005859375 486.0Q223.656005859375 486.0 222.656005859375 484.0Q221.656005859375 482.0 222.656005859375 474.0Q224.656005859375 467.0 225.156005859375 465.5Q225.656005859375 464.0 225.656005859375 464.0Q239.656005859375 465.0 249.156005859375 475.0Q258.656005859375 485.0 265.656005859375 494.0Q282.656005859375 519.0 295.656005859375 545.0Q309.656005859375 572.0 315.656005859375 605.0Z" fill="#039be5" stroke="none" transform="scale(1,-1) translate(0,-256)" /><path d="M863 901Q865 861 860.5 823.0Q856 785 846 746Q846 745 845 740Q836 701 811.0 662.5Q786 624 743.0 597.5Q700 571 638 570Q575 571 532.0 597.5Q489 624 464.0 662.5Q439 701 430 740Q429 745 429 746Q419 785 414.5 823.0Q410 861 412 901Q412 905 415 908Q420 912 430.0 912.5Q440 913 442 913Q437 879 440.0 844.0Q443 809 449.0 782.5Q455 756 458 746Q461 731 472.0 706.5Q483 682 503.5 657.5Q524 633 557.0 616.0Q590 599 638 598Q685 599 718.0 616.0Q751 633 771.5 657.5Q792 682 803.0 706.5Q814 731 818 746Q820 756 826.0 782.5Q832 809 835.5 844.0Q839 879 833 913Q835 913 845.0 912.5Q855 912 860 908Q863 905 863 901Z" fill="#039be5" stroke="none" transform="scale(1,-1) translate(0,-256)" /></svg>