<?xml version="1.0" encoding="utf-8" ?>
<svg baseProfile="full" height="256" version="1.1" width="256" xmlns="http://www.w3.org/2000/svg" xmlns:ev="http://www.w3.org/2001/xml-events" xmlns:xlink="http://www.w3.org/1999/xlink"><defs /><path d="M349 822Q354 821 363.5 804.0Q373 787 382.5 763.5Q392 740 400 719Q407 698 413.0 676.0Q419 654 419.5 638.0Q420 622 411 620Q402 618 394.5 632.5Q387 647 379.0 668.5Q371 690 362 709Q350 734 341.0 753.0Q332 772 331 784Q329 796 336.0 809.0Q343 822 349 822Z" fill="#ffffff" stroke="none" transform="scale(1,-1) translate(0,-256)" /><path d="M311 621Q299 616 285.5 627.5Q272 639 260 647Q250 653 240.0 657.0Q230 661 223 664Q212 669 208.5 674.5Q205 680 204 687Q204 695 209.0 707.5Q214 720 223 732Q231 743 242.0 750.5Q253 758 269 755Q284 752 291.5 738.0Q299 724 308 696Q316 668 318.5 647.0Q321 626 311 621Z" fill="#ffffff" stroke="none" transform="scale(1,-1) translate(0,-256)" /><path d="M140 603Q154 603 176.0 595.0Q198 587 216 581Q232 575 252.0 567.0Q272 559 285.5 550.5Q299 542 297 536Q293 522 264.0 528.5Q235 535 186 545Q155 551 131.5 554.0Q108 557 104 569Q101 579 115.0 591.0Q129 603 140 603Z" fill="#ffffff" stroke="none" transform="scale(1,-1) translate(0,-256)" /><path d="M879 168Q885 179 906.5 178.5Q928 178 952.0 171.5Q976 165 991 159Q1000 155 1019.0 146.0Q1038 137 1056.0 129.0Q1074 121 1080 119Q1089 117 1104.0 114.5Q1119 112 1122 100Q1123 92 1113.0 82.5Q1103 73 1089.5 67.0Q1076 61 1068 61Q1057 61 1038.0 76.5Q1019 92 988 112Q968 125 940.5 135.0Q913 145 894.0 153.0Q875 161 879 168Z" fill="#ffffff" stroke="none" transform="scale(1,-1) translate(0,-256)" /><path d="M875 107Q878 111 891.0 106.0Q904 101 920.5 91.0Q937 81 952.5 70.5Q968 60 977 53Q1003 34 1012.0 19.0Q1021 4 1009 -9Q995 -22 977.5 -11.0Q960 0 928 33Q899 64 884.0 82.5Q869 101 875 107Z" fill="#ffffff" stroke="none" transform="scale(1,-1) translate(0,-256)" /><path d="M860 35Q866 38 880.0 21.5Q894 5 903 -7Q908 -12 918.0 -24.0Q928 -36 937.0 -49.5Q946 -63 948 -73Q950 -88 940.5 -100.5Q931 -113 919 -113Q907 -113 896.5 -93.5Q886 -74 880 -55Q876 -42 869.0 -21.5Q862 -1 858.0 16.0Q854 33 860 35Z" fill="#ffffff" stroke="none" transform="scale(1,-1) translate(0,-256)" /><path d="M560 557Q588 563 624.5 561.5Q661 560 689 545Q715 532 722.5 518.0Q730 504 727 493Q724 482 713.0 479.5Q702 477 686 482Q671 486 642.0 488.0Q613 490 577 483Q541 477 517.0 459.0Q493 441 476 435Q459 430 446.5 441.5Q434 453 444 478Q454 502 487.5 525.5Q521 549 560 557Z" fill="#ffffff" stroke="none" transform="scale(1,-1) translate(0,-256)" /><path d="M889 366Q894 318 885.0 281.0Q876 244 860.5 216.0Q845 188 830 168Q815 146 786.5 121.5Q758 97 714.5 79.5Q671 62 611 61Q555 60 505.5 83.0Q456 106 418.0 144.0Q380 182 356.5 227.0Q333 272 330 314Q325 380 341.5 431.0Q358 482 404 530Q427 554 454.0 574.0Q481 594 519.0 606.0Q557 618 615 618Q668 617 716.0 594.0Q764 571 801.0 534.0Q838 497 861.0 453.0Q884 409 889 366ZM799 191Q818 217 837.0 259.0Q856 301 850 363Q846 400 826.0 438.0Q806 476 773.5 508.5Q741 541 700.0 560.5Q659 580 612 580Q563 581 530.0 570.5Q497 560 473.5 542.5Q450 525 430 505Q391 464 376.5 419.5Q362 375 366 318Q369 281 389.0 242.5Q409 204 442.5 171.0Q476 138 518.5 118.0Q561 98 609 99Q661 100 698.5 115.0Q736 130 761.0 151.0Q786 172 799 191Z" fill="#ffffff" stroke="none" transform="scale(1,-1) translate(0,-256)" /></svg>