<?xml version="1.0" encoding="utf-8" ?>
<svg baseProfile="full" height="256" version="1.1" width="256" xmlns="http://www.w3.org/2000/svg" xmlns:ev="http://www.w3.org/2001/xml-events" xmlns:xlink="http://www.w3.org/1999/xlink"><defs /><path d="M404 530Q427 554 454.0 574.0Q481 594 519.0 606.0Q557 618 614 618Q668 617 716.0 594.0Q764 571 801.0 534.0Q838 497 861.0 453.0Q884 409 889 366Q894 318 885.0 281.0Q876 244 860.5 216.0Q845 188 830 168Q815 146 786.5 121.5Q758 97 714.5 80.0Q671 63 611 61Q555 60 505.5 83.0Q456 106 418.0 144.0Q380 182 356.5 227.0Q333 272 330 314Q325 380 341.5 431.5Q358 483 404 530Z" fill="#ff5960" stroke="none" transform="scale(1,-1) translate(0,-256)" /></svg>