<?xml version="1.0" encoding="utf-8" ?>
<svg baseProfile="full" height="256" version="1.1" width="256" xmlns="http://www.w3.org/2000/svg" xmlns:ev="http://www.w3.org/2001/xml-events" xmlns:xlink="http://www.w3.org/1999/xlink"><defs /><path d="M226 707 267 682 527 609 861 637 1061 688 963 -13 950 -30 682 -104 425 -76 312 -8Z" fill="#ffffff" stroke="none" transform="scale(1,-1) translate(0,-256)" /><path d="M335 581Q335 581 353.5 574.5Q372 568 399 564Q428 560 447.0 558.5Q466 557 466 557Q466 557 465.5 540.0Q465 523 464.5 497.0Q464 471 463.0 444.5Q462 418 461 398Q458 363 440.5 348.0Q423 333 408 333Q388 334 374.5 350.5Q361 367 353 395Q348 414 344.5 445.0Q341 476 338.5 507.0Q336 538 335.5 559.5Q335 581 335 581Z" fill="#ffffff" stroke="none" transform="scale(1,-1) translate(0,-256)" /><path d="M642 619Q526 620 448.0 631.0Q370 642 323.5 659.0Q277 676 254.0 694.5Q231 713 225.0 730.0Q219 747 221 757Q226 777 239.0 786.5Q252 796 255 791Q258 786 253.0 778.5Q248 771 251 757Q253 745 275.0 727.5Q297 710 343.0 693.0Q389 676 462.5 664.5Q536 653 640 654Q746 655 818.5 666.5Q891 678 936.0 695.5Q981 713 1003.0 730.0Q1025 747 1030 759Q1033 768 1031.5 778.0Q1030 788 1030 788Q1030 788 1038.0 785.5Q1046 783 1054.0 774.5Q1062 766 1062 749Q1061 737 1041.5 715.0Q1022 693 975.5 670.5Q929 648 847.5 632.5Q766 617 642 619Z" fill="#ffffff" stroke="none" transform="scale(1,-1) translate(0,-256)" /></svg>