<?xml version="1.0" encoding="utf-8" ?>
<svg baseProfile="full" height="256" version="1.1" width="256" xmlns="http://www.w3.org/2000/svg" xmlns:ev="http://www.w3.org/2001/xml-events" xmlns:xlink="http://www.w3.org/1999/xlink"><defs /><path d="M400 106Q405 118 422.0 115.5Q439 113 467.5 105.0Q496 97 534 91Q592 83 652.5 84.0Q713 85 772 91Q791 94 813.5 101.0Q836 108 853.0 109.5Q870 111 873 94Q879 68 857.5 50.5Q836 33 800 19Q763 4 711.0 -1.0Q659 -6 603.0 -1.5Q547 3 499 19Q468 30 443.0 43.5Q418 57 405.5 73.0Q393 89 400 106Z" fill="#cf701e" stroke="none" transform="scale(1,-1) translate(0,-256)" /></svg>