<?xml version="1.0" encoding="utf-8" ?>
<svg baseProfile="full" height="256" version="1.1" width="256" xmlns="http://www.w3.org/2000/svg" xmlns:ev="http://www.w3.org/2001/xml-events" xmlns:xlink="http://www.w3.org/1999/xlink"><defs /><path d="M375 280 400 247 472 220 565 210Q565 210 568.0 221.5Q571 233 576 243Q580 253 590.5 263.0Q601 273 611 283Q621 294 621.5 313.0Q622 332 596 342Q579 348 550.5 348.5Q522 349 491.0 344.0Q460 339 436 328Q405 315 390.0 297.5Q375 280 375 280Z" fill="#f6af3b" stroke="none" transform="scale(1,-1) translate(0,-256)" /><path d="M833 337Q833 348 843.5 354.0Q854 360 870 359Q888 358 904.5 349.0Q921 340 925 318Q932 282 901 260Q887 250 875.5 252.0Q864 254 860 260Q853 271 867 282Q872 286 874.0 291.5Q876 297 876 302Q876 307 870.5 310.5Q865 314 858 316Q851 318 842.0 322.0Q833 326 833 337Z" fill="#f6af3b" stroke="none" transform="scale(1,-1) translate(0,-256)" /><path d="M341 318 307 313Q307 313 301.5 318.5Q296 324 296.5 334.5Q297 345 312.0 360.5Q327 376 368 397Q408 417 457.0 426.5Q506 436 556.0 438.5Q606 441 649.0 439.5Q692 438 722 436Q780 433 816.5 422.5Q853 412 851 402Q850 394 827.5 395.5Q805 397 775.5 401.0Q746 405 722 405Q689 405 622.0 406.0Q555 407 468 392Q414 383 386.5 365.0Q359 347 350.0 332.5Q341 318 341 318Z" fill="#f6af3b" stroke="none" transform="scale(1,-1) translate(0,-256)" /></svg>