<?xml version="1.0" encoding="utf-8" ?>
<svg baseProfile="full" height="256" version="1.1" width="256" xmlns="http://www.w3.org/2000/svg" xmlns:ev="http://www.w3.org/2001/xml-events" xmlns:xlink="http://www.w3.org/1999/xlink"><defs /><path d="M643 -121Q643 -121 618.5 -103.5Q594 -86 553.5 -54.0Q513 -22 462.5 20.5Q412 63 359.5 114.0Q307 165 259.0 220.5Q211 276 174.5 334.0Q138 392 121 448Q94 537 102.5 616.0Q111 695 151.5 754.5Q192 814 260 843Q321 869 372.0 869.5Q423 870 464.0 854.0Q505 838 536.0 813.0Q567 788 588.5 763.0Q610 738 622.0 721.0Q634 704 638 704Q641 704 653.5 721.0Q666 738 688.5 762.5Q711 787 744.0 810.5Q777 834 820.0 848.5Q863 863 916.0 859.0Q969 855 1033 824Q1083 799 1122.5 755.0Q1162 711 1178.5 639.5Q1195 568 1175 463Q1166 416 1132.5 361.5Q1099 307 1051.0 251.0Q1003 195 948.0 141.0Q893 87 839.0 39.5Q785 -8 740.5 -44.0Q696 -80 669.5 -100.5Q643 -121 643 -121Z" fill="#ff262e" stroke="none" transform="scale(1,-1) translate(0,-256)" /></svg>