<?xml version="1.0" encoding="utf-8" ?>
<svg baseProfile="full" height="256" version="1.1" width="256" xmlns="http://www.w3.org/2000/svg" xmlns:ev="http://www.w3.org/2001/xml-events" xmlns:xlink="http://www.w3.org/1999/xlink"><defs /><path d="M636 913Q720 913 794.0 901.0Q868 889 924.0 868.0Q980 847 1011.5 819.5Q1043 792 1043 761Q1043 730 1011.5 702.5Q980 675 924.0 654.0Q868 633 794.0 621.5Q720 610 636 610Q551 610 477.0 621.5Q403 633 347.0 654.0Q291 675 259.5 702.5Q228 730 228 761Q228 792 259.5 819.5Q291 847 347.0 868.0Q403 889 477.0 901.0Q551 913 636 913ZM636 849Q572 849 519.5 840.5Q467 832 436.0 818.0Q405 804 405 787Q405 770 436.0 756.5Q467 743 519.5 734.5Q572 726 636 726Q699 726 751.5 734.5Q804 743 835.0 756.5Q866 770 866 787Q866 804 835.0 818.0Q804 832 751.5 840.5Q699 849 636 849Z" fill="#40bfe6" stroke="none" transform="scale(1,-1) translate(0,-256)" /></svg>