<?xml version="1.0" encoding="utf-8" ?>
<svg baseProfile="full" height="256" version="1.1" width="256" xmlns="http://www.w3.org/2000/svg" xmlns:ev="http://www.w3.org/2001/xml-events" xmlns:xlink="http://www.w3.org/1999/xlink"><defs /><path d="M342 0Q338 -2 317.5 -7.5Q297 -13 268.5 -19.0Q240 -25 211 -26Q206 -29 199.5 -34.0Q193 -39 190 -45Q233 -46 274 -32Q280 -30 294.5 -24.0Q309 -18 323.0 -11.5Q337 -5 342 0Z" fill="#bdbdbd" stroke="none" transform="scale(1,-1) translate(0,-256)" /><path d="M426 -67Q413 -72 399.0 -77.5Q385 -83 373 -88Q349 -97 324 -99Q322 -100 316.5 -105.0Q311 -110 307 -116Q317 -115 332.5 -112.5Q348 -110 368 -102Q382 -97 400.0 -84.5Q418 -72 426 -67Z" fill="#bdbdbd" stroke="none" transform="scale(1,-1) translate(0,-256)" /><path d="M502 -138Q485 -144 470.5 -148.5Q456 -153 438 -156Q438 -156 433.5 -160.5Q429 -165 426 -172Q436 -170 445.0 -167.5Q454 -165 460 -163Q470 -159 482.5 -151.0Q495 -143 502 -138Z" fill="#bdbdbd" stroke="none" transform="scale(1,-1) translate(0,-256)" /><path d="M930.9380035400391 0.0Q934.9380035400391 -2.0 955.4380035400391 -7.5Q975.9380035400391 -13.0 1004.4380035400391 -19.0Q1032.938003540039 -25.0 1061.938003540039 -26.0Q1066.938003540039 -29.0 1073.438003540039 -34.0Q1079.938003540039 -39.0 1082.938003540039 -45.0Q1039.938003540039 -46.0 998.9380035400391 -32.0Q992.9380035400391 -30.0 978.4380035400391 -24.0Q963.9380035400391 -18.0 949.9380035400391 -11.5Q935.9380035400391 -5.0 930.9380035400391 0.0Z" fill="#bdbdbd" stroke="none" transform="scale(1,-1) translate(0,-256)" /><path d="M846.9380035400391 -67.0Q859.9380035400391 -72.0 873.9380035400391 -77.5Q887.9380035400391 -83.0 899.9380035400391 -88.0Q923.9380035400391 -97.0 948.9380035400391 -99.0Q950.9380035400391 -100.0 956.4380035400391 -105.0Q961.9380035400391 -110.0 965.9380035400391 -116.0Q955.9380035400391 -115.0 940.4380035400391 -112.5Q924.9380035400391 -110.0 904.9380035400391 -102.0Q890.9380035400391 -97.0 872.9380035400391 -84.5Q854.9380035400391 -72.0 846.9380035400391 -67.0Z" fill="#bdbdbd" stroke="none" transform="scale(1,-1) translate(0,-256)" /><path d="M770.9369964599609 -138.00100708007812Q787.9369964599609 -144.00100708007812 802.4369964599609 -148.50100708007812Q816.9369964599609 -153.00100708007812 834.9369964599609 -156.00100708007812Q834.9369964599609 -156.00100708007812 839.4369964599609 -160.50100708007812Q843.9369964599609 -165.00100708007812 846.9369964599609 -172.00100708007812Q836.9369964599609 -170.00100708007812 827.9369964599609 -167.50100708007812Q818.9369964599609 -165.00100708007812 812.9369964599609 -163.00100708007812Q802.9369964599609 -159.00100708007812 790.4369964599609 -151.00100708007812Q777.9369964599609 -143.00100708007812 770.9369964599609 -138.00100708007812Z" fill="#bdbdbd" stroke="none" transform="scale(1,-1) translate(0,-256)" /></svg>