<?xml version="1.0" encoding="utf-8" ?>
<svg baseProfile="full" height="256" version="1.1" width="256" xmlns="http://www.w3.org/2000/svg" xmlns:ev="http://www.w3.org/2001/xml-events" xmlns:xlink="http://www.w3.org/1999/xlink"><defs /><path d="M640 806Q747 806 823.0 781.5Q899 757 948.5 715.5Q998 674 1026.5 622.0Q1055 570 1067.5 515.0Q1080 460 1081.5 407.5Q1083 355 1079 314Q1074 264 1060.5 232.0Q1047 200 1031.0 182.0Q1015 164 1003.5 156.5Q992 149 992 149Q992 149 994.5 169.0Q997 189 998.0 220.0Q999 251 995.5 284.5Q992 318 980 345Q964 382 947.0 403.5Q930 425 918.5 434.5Q907 444 907 444L931 353Q931 353 898.5 352.0Q866 351 817 362Q798 366 775.0 377.0Q752 388 731.0 400.5Q710 413 697.0 422.0Q684 431 684 431L734 345Q734 345 708.5 343.5Q683 342 646.0 343.5Q609 345 574 356Q502 377 452.0 402.0Q402 427 376.5 445.5Q351 464 351 464Q351 464 339.5 449.0Q328 434 313.5 407.5Q299 381 290 348Q282 317 279.5 282.5Q277 248 277.5 217.5Q278 187 280.0 168.0Q282 149 282 149Q282 149 271.0 156.5Q260 164 244.5 182.0Q229 200 215.0 232.0Q201 264 195 314Q191 351 192.5 401.5Q194 452 207.0 507.5Q220 563 249.0 616.0Q278 669 328.5 711.5Q379 754 455.5 780.0Q532 806 640 806Z" fill="#543930" stroke="none" transform="scale(1,-1) translate(0,-256)" /></svg>