<?xml version="1.0" encoding="utf-8" ?>
<svg baseProfile="full" height="256" version="1.1" width="256" xmlns="http://www.w3.org/2000/svg" xmlns:ev="http://www.w3.org/2001/xml-events" xmlns:xlink="http://www.w3.org/1999/xlink"><defs /><path d="M263 324Q268 329 263 335L252 345Q247 350 242 345L175 276Q170 270 175 265L186 255Q191 250 196 255Z" fill="#6d4238" stroke="none" transform="scale(1,-1) translate(0,-256)" /><path d="M292 296Q297 301 292 307L281 317Q276 322 270 317L204 248Q199 242 204 237L215 227Q220 221 225 227Z" fill="#6d4238" stroke="none" transform="scale(1,-1) translate(0,-256)" /><path d="M350 240Q355 245 350 250L339 261Q334 266 328 260L262 192Q256 186 262 181L273 171Q278 165 283 171Z" fill="#6d4238" stroke="none" transform="scale(1,-1) translate(0,-256)" /><path d="M379 212Q384 217 379 222L368 233Q363 238 357 232L291 164Q286 158 291 153L302 143Q307 137 312 143Z" fill="#6d4238" stroke="none" transform="scale(1,-1) translate(0,-256)" /><path d="M407.93800354003906 183.56300354003906Q412.93800354003906 188.56300354003906 407.93800354003906 194.56300354003906L396.93800354003906 204.56300354003906Q391.93800354003906 209.56300354003906 386.93800354003906 204.56300354003906L319.93800354003906 135.56300354003906Q314.93800354003906 129.56300354003906 319.93800354003906 124.56300354003906L330.93800354003906 114.56300354003906Q335.93800354003906 109.56300354003906 340.93800354003906 114.56300354003906Z" fill="#6d4238" stroke="none" transform="scale(1,-1) translate(0,-256)" /><path d="M466 127Q471 133 466 138L455 148Q450 154 444 148L378 79Q373 74 378 69L389 58Q394 53 399 58Z" fill="#6d4238" stroke="none" transform="scale(1,-1) translate(0,-256)" /><path d="M494.968994140625 99.68699645996094Q499.968994140625 104.68699645996094 494.968994140625 109.68699645996094L483.968994140625 120.68699645996094Q478.968994140625 125.68699645996094 472.968994140625 119.68699645996094L406.968994140625 51.68699645996094Q401.968994140625 45.68699645996094 406.968994140625 40.68699645996094L417.968994140625 30.686996459960938Q422.968994140625 24.686996459960938 427.968994140625 30.686996459960938Z" fill="#6d4238" stroke="none" transform="scale(1,-1) translate(0,-256)" /><path d="M552.968994140625 43.406005859375Q557.968994140625 48.406005859375 552.968994140625 53.406005859375L541.968994140625 64.406005859375Q536.968994140625 69.406005859375 530.968994140625 63.406005859375L464.968994140625 -4.593994140625Q458.968994140625 -10.593994140625 464.968994140625 -15.593994140625L475.968994140625 -25.593994140625Q480.968994140625 -31.593994140625 485.968994140625 -25.593994140625Z" fill="#6d4238" stroke="none" transform="scale(1,-1) translate(0,-256)" /><path d="M581.9380035400391 15.093994140625Q586.9380035400391 20.093994140625 581.9380035400391 26.093994140625L570.9380035400391 36.093994140625Q565.9380035400391 41.093994140625 560.9380035400391 36.093994140625L493.93800354003906 -32.906005859375Q488.93800354003906 -38.906005859375 493.93800354003906 -43.906005859375L504.93800354003906 -53.906005859375Q509.93800354003906 -58.906005859375 514.9380035400391 -53.906005859375Z" fill="#6d4238" stroke="none" transform="scale(1,-1) translate(0,-256)" /><path d="M610.9380035400391 -12.906005859375Q615.9380035400391 -7.906005859375 610.9380035400391 -1.906005859375L599.9380035400391 8.093994140625Q594.9380035400391 13.093994140625 588.9380035400391 8.093994140625L522.9380035400391 -60.906005859375Q517.9380035400391 -66.906005859375 522.9380035400391 -71.906005859375L533.9380035400391 -81.906005859375Q538.9380035400391 -87.906005859375 543.9380035400391 -81.906005859375Z" fill="#6d4238" stroke="none" transform="scale(1,-1) translate(0,-256)" /><path d="M1034.5791625976562 531.7854461669922Q1034.5791625976562 536.0060272216797 1032.9964447021484 539.6990356445312Q1031.4137268066406 543.3920440673828 1028.6070404052734 546.19873046875Q1025.8003540039062 549.0054168701172 1022.1073455810547 550.588134765625Q1018.4143371582031 552.1708526611328 1014.1515502929688 552.1708526611328Q1009.9309692382812 552.1708526611328 1006.2379608154297 550.588134765625Q1002.5449523925781 549.0054168701172 999.7382659912109 546.19873046875Q996.9315795898438 543.3920440673828 995.3488616943359 539.6990356445312Q993.7661437988281 536.0060272216797 993.7661437988281 531.7854461669922Q993.7661437988281 527.5226593017578 995.3488616943359 523.8296508789062Q996.9315795898438 520.1366424560547 999.7382659912109 517.3299560546875Q1002.5449523925781 514.5232696533203 1006.2379608154297 512.9405517578125Q1009.9309692382812 511.3578338623047 1014.1515502929688 511.3578338623047Q1018.4143371582031 511.3578338623047 1022.1073455810547 512.9405517578125Q1025.8003540039062 514.5232696533203 1028.6070404052734 517.3299560546875Q1031.4137268066406 520.1366424560547 1032.9964447021484 523.8296508789062Q1034.5791625976562 527.5226593017578 1034.5791625976562 531.7854461669922Z" fill="#6d4238" stroke="none" transform="scale(1,-1) translate(0,-256)" /><path d="M1032.422866821289 444.4104461669922Q1032.422866821289 448.6310272216797 1030.8401489257812 452.32403564453125Q1029.2574310302734 456.0170440673828 1026.4507446289062 458.82373046875Q1023.6440582275391 461.6304168701172 1019.9510498046875 463.213134765625Q1016.2580413818359 464.7958526611328 1011.9952545166016 464.7958526611328Q1007.7746734619141 464.7958526611328 1004.0816650390625 463.213134765625Q1000.3886566162109 461.6304168701172 997.5819702148438 458.82373046875Q994.7752838134766 456.0170440673828 993.1925659179688 452.32403564453125Q991.6098480224609 448.6310272216797 991.6098480224609 444.4104461669922Q991.6098480224609 440.1476593017578 993.1925659179688 436.45465087890625Q994.7752838134766 432.7616424560547 997.5819702148438 429.9549560546875Q1000.3886566162109 427.1482696533203 1004.0816650390625 425.5655517578125Q1007.7746734619141 423.9828338623047 1011.9952545166016 423.9828338623047Q1016.2580413818359 423.9828338623047 1019.9510498046875 425.5655517578125Q1023.6440582275391 427.1482696533203 1026.4507446289062 429.9549560546875Q1029.2574310302734 432.7616424560547 1030.8401489257812 436.45465087890625Q1032.422866821289 440.1476593017578 1032.422866821289 444.4104461669922Z" fill="#6d4238" stroke="none" transform="scale(1,-1) translate(0,-256)" /><path d="M1030.2666625976562 357.0354461669922Q1030.2666625976562 361.2560272216797 1028.6839447021484 364.94903564453125Q1027.1012268066406 368.6420440673828 1024.2945404052734 371.44873046875Q1021.4878540039062 374.2554168701172 1017.7948455810547 375.838134765625Q1014.1018371582031 377.4208526611328 1009.8390502929688 377.4208526611328Q1005.6184692382812 377.4208526611328 1001.9254608154297 375.838134765625Q998.2324523925781 374.2554168701172 995.4257659912109 371.44873046875Q992.6190795898438 368.6420440673828 991.0363616943359 364.94903564453125Q989.4536437988281 361.2560272216797 989.4536437988281 357.0354461669922Q989.4536437988281 352.7726593017578 991.0363616943359 349.07965087890625Q992.6190795898438 345.3866424560547 995.4257659912109 342.5799560546875Q998.2324523925781 339.7732696533203 1001.9254608154297 338.1905517578125Q1005.6184692382812 336.6078338623047 1009.8390502929688 336.6078338623047Q1014.1018371582031 336.6078338623047 1017.7948455810547 338.1905517578125Q1021.4878540039062 339.7732696533203 1024.2945404052734 342.5799560546875Q1027.1012268066406 345.3866424560547 1028.6839447021484 349.07965087890625Q1030.2666625976562 352.7726593017578 1030.2666625976562 357.0354461669922Z" fill="#6d4238" stroke="none" transform="scale(1,-1) translate(0,-256)" /><path d="M1028.110366821289 269.75413513183594Q1028.110366821289 273.97471618652344 1026.5276489257812 277.667724609375Q1024.9449310302734 281.36073303222656 1022.1382446289062 284.16741943359375Q1019.3315582275391 286.97410583496094 1015.6385498046875 288.55682373046875Q1011.9455413818359 290.13954162597656 1007.6827545166016 290.13954162597656Q1003.4621734619141 290.13954162597656 999.7691650390625 288.55682373046875Q996.0761566162109 286.97410583496094 993.2694702148438 284.16741943359375Q990.4627838134766 281.36073303222656 988.8800659179688 277.667724609375Q987.2973480224609 273.97471618652344 987.2973480224609 269.75413513183594Q987.2973480224609 265.49134826660156 988.8800659179688 261.79833984375Q990.4627838134766 258.10533142089844 993.2694702148438 255.29864501953125Q996.0761566162109 252.49195861816406 999.7691650390625 250.90924072265625Q1003.4621734619141 249.32652282714844 1007.6827545166016 249.32652282714844Q1011.9455413818359 249.32652282714844 1015.6385498046875 250.90924072265625Q1019.3315582275391 252.49195861816406 1022.1382446289062 255.29864501953125Q1024.9449310302734 258.10533142089844 1026.5276489257812 261.79833984375Q1028.110366821289 265.49134826660156 1028.110366821289 269.75413513183594Z" fill="#6d4238" stroke="none" transform="scale(1,-1) translate(0,-256)" /><path d="M1130.2041625976562 620.1916351318359Q1130.2041625976562 624.4122161865234 1128.6214447021484 628.105224609375Q1127.0387268066406 631.7982330322266 1124.2320404052734 634.6049194335938Q1121.4253540039062 637.4116058349609 1117.7323455810547 638.9943237304688Q1114.0393371582031 640.5770416259766 1109.7765502929688 640.5770416259766Q1105.5559692382812 640.5770416259766 1101.8629608154297 638.9943237304688Q1098.1699523925781 637.4116058349609 1095.363265991211 634.6049194335938Q1092.5565795898438 631.7982330322266 1090.973861694336 628.105224609375Q1089.3911437988281 624.4122161865234 1089.3911437988281 620.1916351318359Q1089.3911437988281 615.9288482666016 1090.973861694336 612.23583984375Q1092.5565795898438 608.5428314208984 1095.363265991211 605.7361450195312Q1098.1699523925781 602.9294586181641 1101.8629608154297 601.3467407226562Q1105.5559692382812 599.7640228271484 1109.7765502929688 599.7640228271484Q1114.0393371582031 599.7640228271484 1117.7323455810547 601.3467407226562Q1121.4253540039062 602.9294586181641 1124.2320404052734 605.7361450195312Q1127.0387268066406 608.5428314208984 1128.6214447021484 612.23583984375Q1130.2041625976562 615.9288482666016 1130.2041625976562 620.1916351318359Z" fill="#6d4238" stroke="none" transform="scale(1,-1) translate(0,-256)" /><path d="M1128.047866821289 532.8166351318359Q1128.047866821289 537.0372161865234 1126.4651489257812 540.730224609375Q1124.8824310302734 544.4232330322266 1122.0757446289062 547.2299194335938Q1119.269058227539 550.0366058349609 1115.5760498046875 551.6193237304688Q1111.883041381836 553.2020416259766 1107.6202545166016 553.2020416259766Q1103.399673461914 553.2020416259766 1099.7066650390625 551.6193237304688Q1096.013656616211 550.0366058349609 1093.2069702148438 547.2299194335938Q1090.4002838134766 544.4232330322266 1088.8175659179688 540.730224609375Q1087.234848022461 537.0372161865234 1087.234848022461 532.8166351318359Q1087.234848022461 528.5538482666016 1088.8175659179688 524.86083984375Q1090.4002838134766 521.1678314208984 1093.2069702148438 518.3611450195312Q1096.013656616211 515.5544586181641 1099.7066650390625 513.9717407226562Q1103.399673461914 512.3890228271484 1107.6202545166016 512.3890228271484Q1111.883041381836 512.3890228271484 1115.5760498046875 513.9717407226562Q1119.269058227539 515.5544586181641 1122.0757446289062 518.3611450195312Q1124.8824310302734 521.1678314208984 1126.4651489257812 524.86083984375Q1128.047866821289 528.5538482666016 1128.047866821289 532.8166351318359Z" fill="#6d4238" stroke="none" transform="scale(1,-1) translate(0,-256)" /><path d="M1125.8916625976562 445.5354461669922Q1125.8916625976562 449.7560272216797 1124.3089447021484 453.44903564453125Q1122.7262268066406 457.1420440673828 1119.9195404052734 459.94873046875Q1117.1128540039062 462.7554168701172 1113.4198455810547 464.338134765625Q1109.7268371582031 465.9208526611328 1105.4640502929688 465.9208526611328Q1101.2434692382812 465.9208526611328 1097.5504608154297 464.338134765625Q1093.8574523925781 462.7554168701172 1091.050765991211 459.94873046875Q1088.2440795898438 457.1420440673828 1086.661361694336 453.44903564453125Q1085.0786437988281 449.7560272216797 1085.0786437988281 445.5354461669922Q1085.0786437988281 441.2726593017578 1086.661361694336 437.57965087890625Q1088.2440795898438 433.8866424560547 1091.050765991211 431.0799560546875Q1093.8574523925781 428.2732696533203 1097.5504608154297 426.6905517578125Q1101.2434692382812 425.1078338623047 1105.4640502929688 425.1078338623047Q1109.7268371582031 425.1078338623047 1113.4198455810547 426.6905517578125Q1117.1128540039062 428.2732696533203 1119.9195404052734 431.0799560546875Q1122.7262268066406 433.8866424560547 1124.3089447021484 437.57965087890625Q1125.8916625976562 441.2726593017578 1125.8916625976562 445.5354461669922Z" fill="#6d4238" stroke="none" transform="scale(1,-1) translate(0,-256)" /><path d="M1123.6416625976562 358.1604461669922Q1123.6416625976562 362.3810272216797 1122.0589447021484 366.07403564453125Q1120.4762268066406 369.7670440673828 1117.6695404052734 372.57373046875Q1114.8628540039062 375.3804168701172 1111.1698455810547 376.963134765625Q1107.4768371582031 378.5458526611328 1103.2140502929688 378.5458526611328Q1098.9934692382812 378.5458526611328 1095.3004608154297 376.963134765625Q1091.6074523925781 375.3804168701172 1088.800765991211 372.57373046875Q1085.9940795898438 369.7670440673828 1084.411361694336 366.07403564453125Q1082.8286437988281 362.3810272216797 1082.8286437988281 358.1604461669922Q1082.8286437988281 353.8976593017578 1084.411361694336 350.20465087890625Q1085.9940795898438 346.5116424560547 1088.800765991211 343.7049560546875Q1091.6074523925781 340.8982696533203 1095.3004608154297 339.3155517578125Q1098.9934692382812 337.7328338623047 1103.2140502929688 337.7328338623047Q1107.4768371582031 337.7328338623047 1111.1698455810547 339.3155517578125Q1114.8628540039062 340.8982696533203 1117.6695404052734 343.7049560546875Q1120.4762268066406 346.5116424560547 1122.0589447021484 350.20465087890625Q1123.6416625976562 353.8976593017578 1123.6416625976562 358.1604461669922Z" fill="#6d4238" stroke="none" transform="scale(1,-1) translate(0,-256)" /><path d="M1082.3916625976562 575.9416351318359Q1082.3916625976562 580.1622161865234 1080.8089447021484 583.855224609375Q1079.2262268066406 587.5482330322266 1076.4195404052734 590.3549194335938Q1073.6128540039062 593.1616058349609 1069.9198455810547 594.7443237304688Q1066.2268371582031 596.3270416259766 1061.9640502929688 596.3270416259766Q1057.7434692382812 596.3270416259766 1054.0504608154297 594.7443237304688Q1050.3574523925781 593.1616058349609 1047.550765991211 590.3549194335938Q1044.7440795898438 587.5482330322266 1043.161361694336 583.855224609375Q1041.5786437988281 580.1622161865234 1041.5786437988281 575.9416351318359Q1041.5786437988281 571.6788482666016 1043.161361694336 567.98583984375Q1044.7440795898438 564.2928314208984 1047.550765991211 561.4861450195312Q1050.3574523925781 558.6794586181641 1054.0504608154297 557.0967407226562Q1057.7434692382812 555.5140228271484 1061.9640502929688 555.5140228271484Q1066.2268371582031 555.5140228271484 1069.9198455810547 557.0967407226562Q1073.6128540039062 558.6794586181641 1076.4195404052734 561.4861450195312Q1079.2262268066406 564.2928314208984 1080.8089447021484 567.98583984375Q1082.3916625976562 571.6788482666016 1082.3916625976562 575.9416351318359Z" fill="#6d4238" stroke="none" transform="scale(1,-1) translate(0,-256)" /><path d="M1080.235366821289 488.6604461669922Q1080.235366821289 492.8810272216797 1078.6526489257812 496.57403564453125Q1077.0699310302734 500.2670440673828 1074.2632446289062 503.07373046875Q1071.456558227539 505.8804168701172 1067.7635498046875 507.463134765625Q1064.070541381836 509.0458526611328 1059.8077545166016 509.0458526611328Q1055.587173461914 509.0458526611328 1051.8941650390625 507.463134765625Q1048.201156616211 505.8804168701172 1045.3944702148438 503.07373046875Q1042.5877838134766 500.2670440673828 1041.0050659179688 496.57403564453125Q1039.422348022461 492.8810272216797 1039.422348022461 488.6604461669922Q1039.422348022461 484.3976593017578 1041.0050659179688 480.70465087890625Q1042.5877838134766 477.0116424560547 1045.3944702148438 474.2049560546875Q1048.201156616211 471.3982696533203 1051.8941650390625 469.8155517578125Q1055.587173461914 468.2328338623047 1059.8077545166016 468.2328338623047Q1064.070541381836 468.2328338623047 1067.7635498046875 469.8155517578125Q1071.456558227539 471.3982696533203 1074.2632446289062 474.2049560546875Q1077.0699310302734 477.0116424560547 1078.6526489257812 480.70465087890625Q1080.235366821289 484.3976593017578 1080.235366821289 488.6604461669922Z" fill="#6d4238" stroke="none" transform="scale(1,-1) translate(0,-256)" /><path d="M1078.0791625976562 401.2854461669922Q1078.0791625976562 405.5060272216797 1076.4964447021484 409.19903564453125Q1074.9137268066406 412.8920440673828 1072.1070404052734 415.69873046875Q1069.3003540039062 418.5054168701172 1065.6073455810547 420.088134765625Q1061.9143371582031 421.6708526611328 1057.6515502929688 421.6708526611328Q1053.4309692382812 421.6708526611328 1049.7379608154297 420.088134765625Q1046.0449523925781 418.5054168701172 1043.238265991211 415.69873046875Q1040.4315795898438 412.8920440673828 1038.848861694336 409.19903564453125Q1037.2661437988281 405.5060272216797 1037.2661437988281 401.2854461669922Q1037.2661437988281 397.0226593017578 1038.848861694336 393.32965087890625Q1040.4315795898438 389.6366424560547 1043.238265991211 386.8299560546875Q1046.0449523925781 384.0232696533203 1049.7379608154297 382.4405517578125Q1053.4309692382812 380.8578338623047 1057.6515502929688 380.8578338623047Q1061.9143371582031 380.8578338623047 1065.6073455810547 382.4405517578125Q1069.3003540039062 384.0232696533203 1072.1070404052734 386.8299560546875Q1074.9137268066406 389.6366424560547 1076.4964447021484 393.32965087890625Q1078.0791625976562 397.0226593017578 1078.0791625976562 401.2854461669922Z" fill="#6d4238" stroke="none" transform="scale(1,-1) translate(0,-256)" /><path d="M1075.922866821289 313.9104461669922Q1075.922866821289 318.1310272216797 1074.3401489257812 321.82403564453125Q1072.7574310302734 325.5170440673828 1069.9507446289062 328.32373046875Q1067.144058227539 331.1304168701172 1063.4510498046875 332.713134765625Q1059.758041381836 334.2958526611328 1055.4952545166016 334.2958526611328Q1051.274673461914 334.2958526611328 1047.5816650390625 332.713134765625Q1043.888656616211 331.1304168701172 1041.0819702148438 328.32373046875Q1038.2752838134766 325.5170440673828 1036.6925659179688 321.82403564453125Q1035.109848022461 318.1310272216797 1035.109848022461 313.9104461669922Q1035.109848022461 309.6476593017578 1036.6925659179688 305.95465087890625Q1038.2752838134766 302.2616424560547 1041.0819702148438 299.4549560546875Q1043.888656616211 296.6482696533203 1047.5816650390625 295.0655517578125Q1051.274673461914 293.4828338623047 1055.4952545166016 293.4828338623047Q1059.758041381836 293.4828338623047 1063.4510498046875 295.0655517578125Q1067.144058227539 296.6482696533203 1069.9507446289062 299.4549560546875Q1072.7574310302734 302.2616424560547 1074.3401489257812 305.95465087890625Q1075.922866821289 309.6476593017578 1075.922866821289 313.9104461669922Z" fill="#6d4238" stroke="none" transform="scale(1,-1) translate(0,-256)" /></svg>