<?xml version="1.0" encoding="utf-8" ?>
<svg baseProfile="full" height="256" version="1.1" width="256" xmlns="http://www.w3.org/2000/svg" xmlns:ev="http://www.w3.org/2001/xml-events" xmlns:xlink="http://www.w3.org/1999/xlink"><defs /><path d="M942 131 959 765Q959 775 966.5 782.0Q974 789 984 789L1126 783Q1158 783 1180.5 759.0Q1203 735 1202 703L1189 178Q1188 146 1164.0 123.5Q1140 101 1108 102L964 107Q954 108 948.0 115.0Q942 122 942 131Z" fill="#cf381a" stroke="none" transform="scale(1,-1) translate(0,-256)" /><path d="M665 -77Q677 -65 676.5 -48.0Q676 -31 664 -19L234 397Q222 409 205.0 409.0Q188 409 176 396L84 302Q72 290 72.5 273.0Q73 256 85 244L515 -172Q527 -184 544.0 -184.0Q561 -184 573 -172Z" fill="#cf381a" stroke="none" transform="scale(1,-1) translate(0,-256)" /><path d="M736 -4Q744 4 743.5 16.0Q743 28 735 36L287 470Q278 478 266.5 478.0Q255 478 247 470L169 390Q161 381 161.5 369.5Q162 358 170 350L619 -84Q627 -93 638.5 -92.5Q650 -92 658 -84Z" fill="#cf381a" stroke="none" transform="scale(1,-1) translate(0,-256)" /></svg>