<?xml version="1.0" encoding="utf-8" ?>
<svg baseProfile="full" height="256" version="1.1" width="256" xmlns="http://www.w3.org/2000/svg" xmlns:ev="http://www.w3.org/2001/xml-events" xmlns:xlink="http://www.w3.org/1999/xlink"><defs /><path d="M694 12Q702 20 701.5 32.0Q701 44 693 52L285 447Q277 455 265.0 455.0Q253 455 245 446L193 393Q185 384 185.5 372.5Q186 361 194 353L602 -42Q610 -50 622.0 -50.0Q634 -50 642 -41Z" fill="#ff5722" stroke="none" transform="scale(1,-1) translate(0,-256)" /><path d="M1081 136Q1104 135 1121.5 151.5Q1139 168 1140 192L1151 718Q1152 742 1135.5 759.5Q1119 777 1095 777L1031 779Q1007 779 990.0 762.5Q973 746 972 722L960 196Q960 172 976.5 155.0Q993 138 1017 137Z" fill="#ff5722" stroke="none" transform="scale(1,-1) translate(0,-256)" /></svg>