<?xml version="1.0" encoding="utf-8" ?>
<svg baseProfile="full" height="256" version="1.1" width="256" xmlns="http://www.w3.org/2000/svg" xmlns:ev="http://www.w3.org/2001/xml-events" xmlns:xlink="http://www.w3.org/1999/xlink"><defs /><path d="M634 -220Q730 -220 817.0 -188.5Q904 -157 971 -99Q1117 31 1117 246Q1117 462 971 592Q904 650 817.5 681.0Q731 712 634 712Q547 712 461.0 684.0Q375 656 304.5 599.0Q234 542 192.0 454.0Q150 366 150 246Q150 126 192.0 38.0Q234 -50 304.5 -107.0Q375 -164 461.0 -192.0Q547 -220 634 -220Z" fill="#000000" stroke="none" transform="scale(1,-1) translate(0,-256)" /></svg>