<?xml version="1.0" encoding="utf-8" ?>
<svg baseProfile="full" height="256" version="1.1" width="256" xmlns="http://www.w3.org/2000/svg" xmlns:ev="http://www.w3.org/2001/xml-events" xmlns:xlink="http://www.w3.org/1999/xlink"><defs /><path d="M359 636Q281 589 225.5 510.0Q170 431 156 319Q101 398 69.5 502.5Q38 607 38 736Q38 769 61.0 768.5Q84 768 126.5 747.0Q169 726 228.0 695.5Q287 665 359 636Z" fill="#4a251a" stroke="none" transform="scale(1,-1) translate(0,-256)" /><path d="M1113 310Q1093 482 970 591Q942 615 911 635Q984 664 1043.5 695.5Q1103 727 1146.5 748.5Q1190 770 1214.0 770.0Q1238 770 1238 736Q1238 603 1204.0 496.5Q1170 390 1113 310Z" fill="#4a251a" stroke="none" transform="scale(1,-1) translate(0,-256)" /></svg>