<?xml version="1.0" encoding="utf-8" ?>
<svg baseProfile="full" height="256" version="1.1" width="256" xmlns="http://www.w3.org/2000/svg" xmlns:ev="http://www.w3.org/2001/xml-events" xmlns:xlink="http://www.w3.org/1999/xlink"><defs /><path d="M724.9380035400391 391.875Q724.9380035400391 380.875 737.9380035400391 368.875Q750.9380035400391 356.875 750.9380035400391 331.875Q750.9380035400391 314.875 743.9380035400391 304.375Q736.9380035400391 293.875 729.4380035400391 284.375Q721.9380035400391 274.875 721.9380035400391 261.875Q721.9380035400391 253.875 723.9380035400391 247.375Q725.9380035400391 240.875 728.9380035400391 233.875Q731.9380035400391 225.875 734.9380035400391 215.375Q737.9380035400391 204.875 735.9380035400391 189.875Q732.9380035400391 168.875 723.4380035400391 159.875Q713.9380035400391 150.875 705.4380035400391 144.375Q696.9380035400391 137.875 696.9380035400391 122.875Q696.9380035400391 110.875 700.9380035400391 102.875Q704.9380035400391 94.875 708.9380035400391 85.875Q712.9380035400391 76.875 712.9380035400391 60.875Q712.9380035400391 39.875 696.4380035400391 21.875Q679.9380035400391 3.875 661.9380035400391 -4.125Q651.9380035400391 -9.125 649.9380035400391 -16.125Q647.9380035400391 -23.125 649.9380035400391 -28.125Q668.9380035400391 -25.125 682.9380035400391 -20.125Q730.9380035400391 -5.125 748.4380035400391 22.375Q765.9380035400391 49.875 761.4380035400391 75.375Q756.9380035400391 100.875 738.9380035400391 112.875Q775.9380035400391 118.875 793.4380035400391 137.375Q810.9380035400391 155.875 812.9380035400391 178.875Q814.9380035400391 201.875 805.4380035400391 221.875Q795.9380035400391 241.875 777.9380035400391 250.875Q814.9380035400391 260.875 831.4380035400391 281.375Q847.9380035400391 301.875 847.9380035400391 324.375Q847.9380035400391 346.875 836.9380035400391 364.875Q825.9380035400391 382.875 806.9380035400391 389.875Q820.9380035400391 390.875 844.9380035400391 391.875Q809.9380035400391 395.875 786.9380035400391 398.875Q763.9380035400391 401.875 751.9380035400391 403.875Q750.9380035400391 403.875 749.9380035400391 403.875Q743.9380035400391 404.875 734.4380035400391 404.375Q724.9380035400391 403.875 724.9380035400391 391.875Z" fill="#faa700" stroke="none" transform="scale(1,-1) translate(0,-256)" /><path d="M600.9380035400391 564.875Q601.9380035400391 554.875 609.9380035400391 554.875Q612.9380035400391 554.875 643.4380035400391 553.375Q673.9380035400391 551.875 722.4380035400391 549.375Q770.9380035400391 546.875 827.4380035400391 544.375Q883.9380035400391 541.875 937.9380035400391 539.375Q991.9380035400391 536.875 1033.438003540039 534.875Q1074.938003540039 532.875 1093.938003540039 532.875Q1125.938003540039 531.875 1142.938003540039 520.875Q1159.938003540039 509.875 1163.938003540039 493.875Q1167.938003540039 477.875 1163.438003540039 462.375Q1158.938003540039 446.875 1148.938003540039 437.875Q1140.938003540039 430.875 1142.938003540039 423.375Q1144.938003540039 415.875 1150.938003540039 411.875Q1176.938003540039 424.875 1186.938003540039 448.875Q1196.938003540039 472.875 1190.938003540039 498.375Q1184.938003540039 523.875 1162.938003540039 541.875Q1140.938003540039 559.875 1102.938003540039 560.875Q1098.938003540039 560.875 1068.938003540039 560.875Q1038.938003540039 560.875 992.4380035400391 561.375Q945.9380035400391 561.875 890.9380035400391 562.375Q835.9380035400391 562.875 780.4380035400391 563.375Q724.9380035400391 563.875 677.9380035400391 563.875Q630.9380035400391 563.875 600.9380035400391 564.875Z" fill="#faa700" stroke="none" transform="scale(1,-1) translate(0,-256)" /><path d="M628 799Q623 808 618 817Q603 841 578.0 845.5Q553 850 532.0 836.5Q511 823 507 793Q499 727 473.5 684.5Q448 642 410 622Q335 584 274.0 540.0Q213 496 190 451Q185 439 171.5 426.5Q158 414 143 411Q140 410 133.0 407.0Q126 404 123 393Q121 384 119 372Q162 372 189.0 384.0Q216 396 233.5 415.5Q251 435 266.0 458.5Q281 482 300.5 505.5Q320 529 351 549Q405 584 436.5 607.5Q468 631 485.0 653.0Q502 675 512.5 705.0Q523 735 535 785Q541 808 554.5 815.5Q568 823 583.0 819.0Q598 815 608 805Q616 795 628 799Z" fill="#faa700" stroke="none" transform="scale(1,-1) translate(0,-256)" /></svg>