<?xml version="1.0" encoding="utf-8" ?>
<svg baseProfile="full" height="256" version="1.1" width="256" xmlns="http://www.w3.org/2000/svg" xmlns:ev="http://www.w3.org/2001/xml-events" xmlns:xlink="http://www.w3.org/1999/xlink"><defs /><path d="M252 448Q267 448 282 442Q298 436 314 428L332 479Q292 500 252 500Q212 500 183 482Q153 463 138 428Q122 394 122 347Q122 274 154 235Q186 195 246 195Q288 195 322 211V263Q281 248 252 248Q182 248 182 347Q182 395 200 421Q219 448 252 448Z" fill="#fafafa" stroke="none" transform="scale(1,-1) translate(0,-256)" /><path d="M615 348Q615 422 583 461Q550 501 488 501Q426 501 393 462Q360 423 360 349Q360 274 393 235Q426 195 488 195Q549 195 582 235Q615 274 615 348ZM420 348Q420 398 437 423Q454 448 488 448Q556 448 556 348Q556 248 488 248Q454 248 437 273Q420 298 420 348Z" fill="#fafafa" stroke="none" transform="scale(1,-1) translate(0,-256)" /><path d="M891.093994140625 348.0Q891.093994140625 422.0 859.093994140625 461.0Q826.093994140625 501.0 764.093994140625 501.0Q702.093994140625 501.0 669.093994140625 462.0Q636.093994140625 423.0 636.093994140625 349.0Q636.093994140625 274.0 669.093994140625 235.0Q702.093994140625 195.0 764.093994140625 195.0Q825.093994140625 195.0 858.093994140625 235.0Q891.093994140625 274.0 891.093994140625 348.0ZM696.093994140625 348.0Q696.093994140625 398.0 713.093994140625 423.0Q730.093994140625 448.0 764.093994140625 448.0Q832.093994140625 448.0 832.093994140625 348.0Q832.093994140625 248.0 764.093994140625 248.0Q730.093994140625 248.0 713.093994140625 273.0Q696.093994140625 298.0 696.093994140625 348.0Z" fill="#fafafa" stroke="none" transform="scale(1,-1) translate(0,-256)" /><path d="M925 199H1099V251H988V496H925Z" fill="#fafafa" stroke="none" transform="scale(1,-1) translate(0,-256)" /></svg>