<?xml version="1.0" encoding="utf-8" ?>
<svg baseProfile="full" height="256" version="1.1" width="256" xmlns="http://www.w3.org/2000/svg" xmlns:ev="http://www.w3.org/2001/xml-events" xmlns:xlink="http://www.w3.org/1999/xlink"><defs /><path d="M962 276Q943 282 908.5 294.0Q874 306 832.0 318.0Q790 330 747.5 339.0Q705 348 669 348Q632 348 590.0 338.0Q548 328 507.0 313.5Q466 299 432.5 286.0Q399 273 381 267Q392 273 391.0 276.0Q390 279 402 287Q439 306 488.0 327.5Q537 349 586.0 364.5Q635 380 671 380Q701 380 737.0 370.5Q773 361 809.5 347.5Q846 334 878.5 319.5Q911 305 932 295Q949 284 962 276Q962 276 962.0 276.0Q962 276 962 276Z" fill="#bdbdbd" stroke="none" transform="scale(1,-1) translate(0,-256)" /></svg>