<?xml version="1.0" encoding="utf-8" ?>
<svg baseProfile="full" height="256" version="1.1" width="256" xmlns="http://www.w3.org/2000/svg" xmlns:ev="http://www.w3.org/2001/xml-events" xmlns:xlink="http://www.w3.org/1999/xlink"><defs /><path d="M558.6189117431641 407.8667755126953Q558.6189117431641 429.1347961425781 544.7128982543945 443.04080963134766Q530.806884765625 456.9468231201172 511.17486572265625 456.9468231201172Q491.5428466796875 456.9468231201172 477.63683319091797 443.04080963134766Q463.73081970214844 429.1347961425781 463.73081970214844 407.8667755126953Q463.73081970214844 388.23475646972656 477.63683319091797 374.32874298095703Q491.5428466796875 360.4227294921875 511.17486572265625 360.4227294921875Q530.806884765625 360.4227294921875 544.7128982543945 374.32874298095703Q558.6189117431641 388.23475646972656 558.6189117431641 407.8667755126953Z" fill="#404040" stroke="none" transform="scale(1,-1) translate(0,-256)" /><path d="M870.9939117431641 407.8667755126953Q870.9939117431641 429.1347961425781 857.0878982543945 443.04080963134766Q843.181884765625 456.9468231201172 823.5498657226562 456.9468231201172Q803.9178466796875 456.9468231201172 790.011833190918 443.04080963134766Q776.1058197021484 429.1347961425781 776.1058197021484 407.8667755126953Q776.1058197021484 388.23475646972656 790.011833190918 374.32874298095703Q803.9178466796875 360.4227294921875 823.5498657226562 360.4227294921875Q843.181884765625 360.4227294921875 857.0878982543945 374.32874298095703Q870.9939117431641 388.23475646972656 870.9939117431641 407.8667755126953Z" fill="#404040" stroke="none" transform="scale(1,-1) translate(0,-256)" /></svg>