<?xml version="1.0" encoding="utf-8" ?>
<svg baseProfile="full" height="256" version="1.1" width="256" xmlns="http://www.w3.org/2000/svg" xmlns:ev="http://www.w3.org/2001/xml-events" xmlns:xlink="http://www.w3.org/1999/xlink"><defs /><path d="M668 862Q730 862 787.0 830.5Q844 799 889.0 741.5Q934 684 960.0 605.0Q986 526 986 431Q986 336 959.0 266.5Q932 197 887.0 152.0Q842 107 785.0 85.0Q728 63 668 63Q607 63 550.0 85.0Q493 107 448.0 152.0Q403 197 376.0 266.5Q349 336 349 431Q349 526 375.0 605.0Q401 684 446.0 741.5Q491 799 548.0 830.5Q605 862 668 862Z" fill="#ffca28" stroke="none" transform="scale(1,-1) translate(0,-256)" /></svg>