<?xml version="1.0" encoding="utf-8" ?>
<svg baseProfile="full" height="256" version="1.1" width="256" xmlns="http://www.w3.org/2000/svg" xmlns:ev="http://www.w3.org/2001/xml-events" xmlns:xlink="http://www.w3.org/1999/xlink"><defs /><path d="M581.8168029785156 494.16766357421875Q586.9822387695312 486.9464416503906 581.8273315429688 478.68609619140625Q576.6717224121094 471.4578552246094 564.2836608886719 475.5778503417969Q558.0896301269531 477.6378479003906 545.7012176513672 482.2738952636719Q533.3128051757812 486.9099426269531 513.7028198242188 486.8966064453125Q493.06072998046875 486.882568359375 480.6786346435547 482.22967529296875Q468.2965393066406 477.5767822265625 462.1053161621094 475.50836181640625Q449.7228698730469 471.37152099609375 444.55743408203125 478.5927429199219Q438.3598937988281 485.8132629394531 444.5469055175781 494.0743103027344Q450.7339172363281 502.3353576660156 467.2409210205078 512.1515808105469Q483.7479248046875 521.9678039550781 512.6468505859375 521.9874572753906Q542.577880859375 522.0078125 559.0982208251953 512.2140502929688Q575.6185607910156 502.4202880859375 581.8168029785156 494.16766357421875Z" fill="#6d4c41" stroke="none" transform="scale(1,-1) translate(0,-256)" /><path d="M890.6293029785156 494.16766357421875Q895.7947387695312 486.9464416503906 890.6398315429688 478.68609619140625Q885.4842224121094 471.4578552246094 873.0961608886719 475.5778503417969Q866.9021301269531 477.6378479003906 854.5137176513672 482.2738952636719Q842.1253051757812 486.9099426269531 822.5153198242188 486.8966064453125Q801.8732299804688 486.882568359375 789.4911346435547 482.22967529296875Q777.1090393066406 477.5767822265625 770.9178161621094 475.50836181640625Q758.5353698730469 471.37152099609375 753.3699340820312 478.5927429199219Q747.1723937988281 485.8132629394531 753.3594055175781 494.0743103027344Q759.5464172363281 502.3353576660156 776.0534210205078 512.1515808105469Q792.5604248046875 521.9678039550781 821.4593505859375 521.9874572753906Q851.390380859375 522.0078125 867.9107208251953 512.2140502929688Q884.4310607910156 502.4202880859375 890.6293029785156 494.16766357421875Z" fill="#6d4c41" stroke="none" transform="scale(1,-1) translate(0,-256)" /></svg>