<?xml version="1.0" encoding="utf-8" ?>
<svg baseProfile="full" height="256" version="1.1" width="256" xmlns="http://www.w3.org/2000/svg" xmlns:ev="http://www.w3.org/2001/xml-events" xmlns:xlink="http://www.w3.org/1999/xlink"><defs /><path d="M101 521H1174V-162Q1174 -179 1162.0 -195.5Q1150 -212 1133 -212L256 -207Q244 -207 216.0 -192.0Q188 -177 161 -157Q137 -141 119.0 -124.5Q101 -108 101 -86Z" fill="#bdbdbd" stroke="none" transform="scale(1,-1) translate(0,-256)" /><path d="M1042 -28Q1012 -64 975.5 -82.0Q939 -100 905.5 -106.0Q872 -112 851.0 -112.5Q830 -113 830 -113Q830 -113 844.0 -100.5Q858 -88 875.0 -66.5Q892 -45 900 -17Q908 8 911.0 28.5Q914 49 915 64Q915 75 924.5 81.5Q934 88 945 85Q964 78 986.5 73.0Q1009 68 1026 70Q1059 73 1078.0 82.0Q1097 91 1105.0 98.5Q1113 106 1113 106Q1113 106 1110.5 90.0Q1108 74 1093.0 44.5Q1078 15 1042 -28Z" fill="#bdbdbd" stroke="none" transform="scale(1,-1) translate(0,-256)" /></svg>