<?xml version="1.0" encoding="utf-8" ?>
<svg baseProfile="full" height="256" version="1.1" width="256" xmlns="http://www.w3.org/2000/svg" xmlns:ev="http://www.w3.org/2001/xml-events" xmlns:xlink="http://www.w3.org/1999/xlink"><defs /><path d="M1010 -163V-161L652 -160L294 -161V-163Q317 -166 339.0 -167.5Q361 -169 384 -171Q406 -172 428.5 -173.5Q451 -175 473 -176Q496 -177 518.0 -177.5Q540 -178 563 -178L652 -179L741 -178Q764 -178 786.5 -177.5Q809 -177 831 -176Q853 -175 875.5 -173.5Q898 -172 920 -171Q943 -169 965.0 -167.5Q987 -166 1010 -163Z" fill="#757575" stroke="none" transform="scale(1,-1) translate(0,-256)" /><path d="M830 -113Q830 -113 852.0 -103.0Q874 -93 909.0 -73.5Q944 -54 983 -25Q1022 5 1051.5 35.0Q1081 65 1097.0 85.5Q1113 106 1113 106V-67Q1113 -86 1099.5 -99.5Q1086 -113 1067 -113Z" fill="#757575" stroke="none" transform="scale(1,-1) translate(0,-256)" /></svg>