<?xml version="1.0" encoding="utf-8" ?>
<svg baseProfile="full" height="256" version="1.1" width="256" xmlns="http://www.w3.org/2000/svg" xmlns:ev="http://www.w3.org/2001/xml-events" xmlns:xlink="http://www.w3.org/1999/xlink"><defs /><path d="M459 299 339 437 251 349Q251 349 236.0 364.0Q221 379 199.0 405.0Q177 431 155.0 464.5Q133 498 117.5 535.0Q102 572 100 609Q99 646 118.0 685.0Q137 724 167.5 761.5Q198 799 230.0 830.0Q262 861 288.0 882.0Q314 903 323 908Q341 919 349.5 916.0Q358 913 358.5 903.0Q359 893 355 885Q352 878 342.5 861.0Q333 844 322.0 824.0Q311 804 304.0 787.0Q297 770 300 763Q301 758 310.5 762.5Q320 767 331.5 775.5Q343 784 351.5 790.5Q360 797 360 797Q360 797 369.5 804.0Q379 811 392.0 820.0Q405 829 415.5 835.0Q426 841 429 840Q434 837 437.0 814.0Q440 791 445.0 756.5Q450 722 461 684Q469 656 481.5 637.5Q494 619 508.0 598.5Q522 578 534.5 545.0Q547 512 553 456Q559 399 546.0 367.0Q533 335 512.5 320.5Q492 306 475.5 302.5Q459 299 459 299Z" fill="#4f3b37" stroke="none" transform="scale(1,-1) translate(0,-256)" /></svg>