<?xml version="1.0" encoding="utf-8" ?>
<svg baseProfile="full" height="256" version="1.1" width="256" xmlns="http://www.w3.org/2000/svg" xmlns:ev="http://www.w3.org/2001/xml-events" xmlns:xlink="http://www.w3.org/1999/xlink"><defs /><path d="M785 515Q777 524 785.0 543.0Q793 562 804 574Q811 582 825.0 593.5Q839 605 851.5 613.0Q864 621 866 619Q869 616 866.0 604.5Q863 593 856.0 578.0Q849 563 843 551Q829 528 811.5 516.0Q794 504 785 515Z" fill="#fca2c8" stroke="none" transform="scale(1,-1) translate(0,-256)" /><path d="M857 225Q859 239 884.5 243.0Q910 247 938 241Q959 237 981.0 225.5Q1003 214 1018.0 202.5Q1033 191 1033 186Q1033 181 1015.0 180.5Q997 180 974.5 181.0Q952 182 938 184Q923 186 903.5 191.5Q884 197 869.5 205.5Q855 214 857 225Z" fill="#fca2c8" stroke="none" transform="scale(1,-1) translate(0,-256)" /><path d="M649 84Q662 83 667.5 63.5Q673 44 671 22Q669 -12 660.5 -42.0Q652 -72 646 -71Q640 -71 635.0 -44.5Q630 -18 627 7Q624 33 629.5 59.0Q635 85 649 84Z" fill="#fca2c8" stroke="none" transform="scale(1,-1) translate(0,-256)" /><path d="M259 183Q259 186 272.5 195.5Q286 205 305.5 216.0Q325 227 341 233Q353 238 369.5 240.0Q386 242 398.5 240.5Q411 239 413 231Q416 220 401.5 207.0Q387 194 360 186Q343 181 319.5 179.5Q296 178 278.0 178.5Q260 179 259 183Z" fill="#fca2c8" stroke="none" transform="scale(1,-1) translate(0,-256)" /><path d="M406 626Q410 628 421.5 622.0Q433 616 446.0 607.0Q459 598 465 591Q486 572 493.5 548.0Q501 524 492 520Q482 516 466.5 528.5Q451 541 439 556Q431 565 422.0 580.5Q413 596 408.0 609.5Q403 623 406 626Z" fill="#fca2c8" stroke="none" transform="scale(1,-1) translate(0,-256)" /></svg>