<?xml version="1.0" encoding="utf-8" ?>
<svg baseProfile="full" height="256" version="1.1" width="256" xmlns="http://www.w3.org/2000/svg" xmlns:ev="http://www.w3.org/2001/xml-events" xmlns:xlink="http://www.w3.org/1999/xlink"><defs /><path d="M773 519Q779 515 776.0 504.0Q773 493 766.5 474.0Q760 455 757.5 428.5Q755 402 762 369Q768 340 784.0 319.0Q800 298 817.0 284.0Q834 270 845.0 259.5Q856 249 854 240Q852 233 840.0 233.0Q828 233 809.5 233.5Q791 234 769.0 230.5Q747 227 725 213Q701 198 689.5 177.5Q678 157 672.5 137.5Q667 118 662.5 105.0Q658 92 648 93Q639 93 634.5 107.5Q630 122 624.0 144.0Q618 166 605.0 187.5Q592 209 565 222Q542 234 518.0 236.0Q494 238 473.5 235.5Q453 233 439.0 232.0Q425 231 422 237Q419 243 429.0 254.0Q439 265 455.5 281.0Q472 297 488.0 317.0Q504 337 512 362Q521 389 519.0 415.0Q517 441 511.0 462.5Q505 484 501.0 498.5Q497 513 501 517Q506 520 519.0 512.0Q532 504 551.5 492.0Q571 480 593.5 469.5Q616 459 639 458Q663 457 684.0 467.0Q705 477 723.0 490.5Q741 504 753.5 513.0Q766 522 773 519Z" fill="#bf0477" stroke="none" transform="scale(1,-1) translate(0,-256)" /></svg>