<?xml version="1.0" encoding="utf-8" ?>
<svg baseProfile="full" height="256" version="1.1" width="256" xmlns="http://www.w3.org/2000/svg" xmlns:ev="http://www.w3.org/2001/xml-events" xmlns:xlink="http://www.w3.org/1999/xlink"><defs /><path d="M668 441 690 376 717 344Q717 344 711.5 333.0Q706 322 701.0 306.0Q696 290 697.0 273.5Q698 257 711 247Q743 222 767.0 235.0Q791 248 806 278Q810 286 809.5 296.0Q809 306 808.5 313.0Q808 320 813 318Q831 321 847.5 302.0Q864 283 867 261Q869 240 858.0 209.5Q847 179 811 147Q787 124 764.0 113.5Q741 103 720.5 96.0Q700 89 684.5 78.0Q669 67 659 42Q651 21 647.0 -5.5Q643 -32 633.5 -62.0Q624 -92 600.0 -124.5Q576 -157 527 -189Q483 -218 433.0 -211.5Q383 -205 340 -184Q311 -169 278.5 -144.5Q246 -120 217.5 -93.5Q189 -67 173 -47Q150 -19 131.5 7.0Q113 33 103.5 63.0Q94 93 97 132Q101 183 128.0 214.5Q155 246 193.0 266.5Q231 287 269.0 303.5Q307 320 333 340Q360 360 370.5 381.0Q381 402 387.0 426.0Q393 450 403.5 480.0Q414 510 439 547Q472 597 504.0 622.5Q536 648 556 649Q576 649 589.5 640.0Q603 631 606 615Q608 596 602.0 585.0Q596 574 581 558Q550 525 544.0 494.5Q538 464 577 431Q592 416 603.5 419.0Q615 422 624.0 432.0Q633 442 641.5 448.5Q650 455 660 447Q669 439 668.5 440.0Q668 441 668 441Z" fill="#c62828" stroke="none" transform="scale(1,-1) translate(0,-256)" /></svg>