<?xml version="1.0" encoding="utf-8" ?>
<svg baseProfile="full" height="256" version="1.1" width="256" xmlns="http://www.w3.org/2000/svg" xmlns:ev="http://www.w3.org/2001/xml-events" xmlns:xlink="http://www.w3.org/1999/xlink"><defs /><path d="M1001 710 619 289Q613 282 604 289L540 350Q532 358 539 365L941 775Z" fill="#f7cf92" stroke="none" transform="scale(1,-1) translate(0,-256)" /><path d="M928 764 997 706 1044 702Q1057 702 1064 713Q1072 729 1089.5 756.5Q1107 784 1120 799Q1136 818 1146.5 821.0Q1157 824 1171 828Q1179 830 1184.5 834.0Q1190 838 1189 846Q1187 872 1166.0 876.5Q1145 881 1128 877Q1118 874 1092.5 865.0Q1067 856 1036.5 844.0Q1006 832 979.0 821.5Q952 811 937 806Q933 804 926.5 798.0Q920 792 925 775Z" fill="#f7cf92" stroke="none" transform="scale(1,-1) translate(0,-256)" /></svg>