<?xml version="1.0" encoding="utf-8" ?>
<svg baseProfile="full" height="256" version="1.1" width="256" xmlns="http://www.w3.org/2000/svg" xmlns:ev="http://www.w3.org/2001/xml-events" xmlns:xlink="http://www.w3.org/1999/xlink"><defs /><path d="M868 258Q789 249 725.0 215.0Q661 181 625.0 119.5Q589 58 592 -32Q592 -43 603.0 -43.0Q614 -43 615 -31Q617 1 628.5 39.0Q640 77 667.0 114.0Q694 151 742.0 180.5Q790 210 864 225Q872 213 887.0 214.5Q902 216 909 224Q939 261 968.0 291.0Q997 321 1029.5 339.0Q1062 357 1103 357Q1127 357 1140.5 338.0Q1154 319 1138 292Q1138 292 1143.0 288.0Q1148 284 1153 280Q1162 291 1166 299Q1176 321 1165.5 345.0Q1155 369 1130 376Q1091 388 1055.0 376.5Q1019 365 988.5 341.5Q958 318 935.0 293.0Q912 268 898 251Q897 250 895 248Q890 242 888 250Q886 261 885 275Z" fill="#faa700" stroke="none" transform="scale(1,-1) translate(0,-256)" /><path d="M749 716Q754 715 757.5 714.5Q761 714 765 714Q768 726 771.0 743.0Q774 760 778 778Q784 799 798.5 809.0Q813 819 829.0 817.0Q845 815 854 801Q858 794 864.0 794.5Q870 795 875 799Q866 824 844.5 832.0Q823 840 803.0 833.5Q783 827 776 809Q776 814 776.0 820.0Q776 826 776 831Q776 832 776.0 832.5Q776 833 776 834Q764 821 760 798Q753 758 751.0 737.0Q749 716 749 716Z" fill="#faa700" stroke="none" transform="scale(1,-1) translate(0,-256)" /><path d="M566 383Q577 383 590.0 389.5Q603 396 607 420Q607 425 611.5 454.0Q616 483 622.5 526.5Q629 570 636.5 619.5Q644 669 651.0 715.5Q658 762 663.5 796.5Q669 831 671 844Q675 868 694.0 878.5Q713 889 732.0 882.5Q751 876 755 850Q756 842 762.5 843.0Q769 844 776 849Q775 851 775 853Q773 881 757.5 894.5Q742 908 721.5 909.0Q701 910 682.5 898.5Q664 887 656 865Q649 845 641.5 806.5Q634 768 626.0 719.0Q618 670 611.0 619.5Q604 569 598.0 525.5Q592 482 588.5 453.5Q585 425 584 421Q581 406 569.0 403.0Q557 400 553 411Q551 417 549 423Q548 419 548 416Q547 404 551.5 394.0Q556 384 566 383Z" fill="#faa700" stroke="none" transform="scale(1,-1) translate(0,-256)" /><path d="M615 -201Q526 -190 470.0 -154.0Q414 -118 383.0 -71.5Q352 -25 338 17Q319 75 314.5 112.5Q310 150 308 183Q308 202 306.5 221.5Q305 241 301 265Q300 271 296.0 297.0Q292 323 287.0 360.0Q282 397 276.5 438.0Q271 479 266.5 516.5Q262 554 259.0 581.5Q256 609 256 617Q256 631 268.5 640.0Q281 649 296.0 647.0Q311 645 319 627Q319 625 328.0 603.5Q337 582 349.5 553.0Q362 524 373.0 498.0Q384 472 390 460Q389 469 383.0 501.5Q377 534 368.5 576.5Q360 619 352.0 661.0Q344 703 338.0 733.0Q332 763 332 768Q330 790 343.0 800.5Q356 811 372.5 808.5Q389 806 396 790Q398 783 401.0 775.5Q404 768 407 762Q411 752 418.5 756.5Q426 761 430 770Q421 792 413 805Q402 823 384.0 829.0Q366 835 348.5 829.0Q331 823 320.0 806.5Q309 790 312 764Q314 743 320.0 714.0Q326 685 332 657Q322 673 299.0 675.0Q276 677 256.0 663.5Q236 650 234 620Q233 606 237.0 569.0Q241 532 247.0 485.0Q253 438 259.0 393.0Q265 348 269 318Q271 307 272.0 299.0Q273 291 274 286Q280 236 283.0 194.0Q286 152 291.5 110.5Q297 69 311 22Q339 -70 387.5 -121.0Q436 -172 495.5 -192.0Q555 -212 615 -210Z" fill="#faa700" stroke="none" transform="scale(1,-1) translate(0,-256)" /></svg>