<?xml version="1.0" encoding="utf-8" ?>
<svg baseProfile="full" height="256" version="1.1" width="256" xmlns="http://www.w3.org/2000/svg" xmlns:ev="http://www.w3.org/2001/xml-events" xmlns:xlink="http://www.w3.org/1999/xlink"><defs /><path d="M888 250Q880 296 879.0 364.0Q878 432 879.5 507.5Q881 583 881.5 654.0Q882 725 878 778Q877 805 863.0 819.0Q849 833 831.0 835.5Q813 838 797.5 831.0Q782 824 776 809Q776 819 776.0 831.0Q776 843 775 853Q773 881 757.5 894.5Q742 908 721.5 909.0Q701 910 682.5 898.5Q664 887 656 865Q649 845 641.5 806.5Q634 768 626.0 719.0Q618 670 611.0 619.5Q604 569 598.0 525.5Q592 482 588.5 453.5Q585 425 584 421Q581 406 569.0 403.0Q557 400 553 411Q522 493 497.0 572.5Q472 652 451.5 714.0Q431 776 413 805Q402 823 384.0 829.0Q366 835 348.5 829.0Q331 823 320.0 806.5Q309 790 312 764Q314 743 320.0 714.0Q326 685 332 657Q322 673 299.0 675.0Q276 677 256.0 663.5Q236 650 234 620Q234 607 237.0 572.5Q240 538 245.5 494.0Q251 450 257.0 406.5Q263 363 267.5 330.0Q272 297 274 286Q280 236 283.0 194.0Q286 152 291.5 110.5Q297 69 311 22Q334 -54 372.0 -102.0Q410 -150 456.5 -175.0Q503 -200 553.5 -206.5Q604 -213 653.0 -206.0Q702 -199 743 -182Q783 -166 817.0 -137.0Q851 -108 878.0 -73.5Q905 -39 924.0 -7.0Q943 25 954.5 47.5Q966 70 968 74Q991 112 1021.5 145.5Q1052 179 1082.0 207.5Q1112 236 1135.0 259.0Q1158 282 1166 299Q1176 321 1165.5 345.0Q1155 369 1130 376Q1090 388 1053.0 376.0Q1016 364 985.5 339.5Q955 315 931.5 289.5Q908 264 895 248Q890 242 888 250Z" fill="#ffca28" stroke="none" transform="scale(1,-1) translate(0,-256)" /></svg>