<?xml version="1.0" encoding="utf-8" ?>
<svg baseProfile="full" height="256" version="1.1" width="256" xmlns="http://www.w3.org/2000/svg" xmlns:ev="http://www.w3.org/2001/xml-events" xmlns:xlink="http://www.w3.org/1999/xlink"><defs /><path d="M350 451 885 476Q885 476 900.0 463.5Q915 451 938.0 422.5Q961 394 984.0 347.0Q1007 300 1023 230Q1036 175 1029.5 113.5Q1023 52 996.0 -6.0Q969 -64 921.5 -111.0Q874 -158 804.5 -185.0Q735 -212 643 -210Q551 -207 484.0 -183.0Q417 -159 371.5 -120.0Q326 -81 298.5 -33.5Q271 14 258.5 64.5Q246 115 244 161Q242 218 257.5 270.0Q273 322 295.0 363.0Q317 404 333.5 427.5Q350 451 350 451Z" fill="#865c52" stroke="none" transform="scale(1,-1) translate(0,-256)" /></svg>