<?xml version="1.0" encoding="utf-8" ?>
<svg baseProfile="full" height="256" version="1.1" width="256" xmlns="http://www.w3.org/2000/svg" xmlns:ev="http://www.w3.org/2001/xml-events" xmlns:xlink="http://www.w3.org/1999/xlink"><defs /><path d="M343 441Q343 441 348.0 424.5Q353 408 370.0 382.5Q387 357 423 331Q457 306 507.0 291.0Q557 276 613.0 273.0Q669 270 721.5 280.0Q774 290 815 316Q868 349 889.0 377.0Q910 405 913.0 421.0Q916 437 916 437Q916 437 915.5 448.0Q915 459 912 471Q906 491 897.5 504.0Q889 517 889 517Q889 517 885.0 504.5Q881 492 875.0 479.0Q869 466 864 464Q861 463 845.0 454.5Q829 446 806.5 434.5Q784 423 762.0 411.0Q740 399 723.5 390.5Q707 382 703 380Q700 378 680.5 380.5Q661 383 634.5 387.5Q608 392 582.0 397.0Q556 402 537.5 405.5Q519 409 518 410Q516 411 500.0 421.5Q484 432 462.0 447.0Q440 462 417.5 476.5Q395 491 380.5 501.0Q366 511 366 511Q366 511 360.0 500.0Q354 489 350 476Q345 462 344.0 451.5Q343 441 343 441Z" fill="#b0b0b0" stroke="none" transform="scale(1,-1) translate(0,-256)" /><path d="M747 432Q747 432 754.0 434.5Q761 437 771 442Q777 444 782.5 448.0Q788 452 788 452Q788 452 798.0 471.5Q808 491 823.0 520.0Q838 549 853.0 578.5Q868 608 879.5 629.5Q891 651 894 655Q896 657 912.0 675.0Q928 693 952.5 720.5Q977 748 1004.0 778.5Q1031 809 1055.0 835.5Q1079 862 1094.0 879.0Q1109 896 1109 896L1094 910Q1094 910 1078.0 893.5Q1062 877 1037.5 850.5Q1013 824 984.5 793.5Q956 763 931.0 736.0Q906 709 889.0 690.5Q872 672 870 669Q868 666 855.0 641.0Q842 616 824.0 581.0Q806 546 788.5 512.0Q771 478 759.0 455.0Q747 432 747 432Z" fill="#b0b0b0" stroke="none" transform="scale(1,-1) translate(0,-256)" /><path d="M923 794Q925 794 934.5 786.0Q944 778 954.5 767.5Q965 757 972.5 749.0Q980 741 980 740Q979 738 972.5 729.5Q966 721 958.0 713.5Q950 706 946 707Q942 708 928.5 720.0Q915 732 903.0 744.0Q891 756 890 759Q889 761 896.5 770.0Q904 779 912.0 787.0Q920 795 923 794Z" fill="#b0b0b0" stroke="none" transform="scale(1,-1) translate(0,-256)" /></svg>