<?xml version="1.0" encoding="utf-8" ?>
<svg baseProfile="full" height="256" version="1.1" width="256" xmlns="http://www.w3.org/2000/svg" xmlns:ev="http://www.w3.org/2001/xml-events" xmlns:xlink="http://www.w3.org/1999/xlink"><defs /><path d="M631 639Q716 638 775.0 615.0Q834 592 865.0 557.0Q896 522 896 485Q896 449 860.5 415.0Q825 381 763.5 359.0Q702 337 623 338Q578 338 532.0 350.0Q486 362 447.0 382.5Q408 403 384.5 430.0Q361 457 361 487Q362 533 400.5 567.5Q439 602 500.0 621.0Q561 640 631 639Z" fill="#e0e0e0" stroke="none" transform="scale(1,-1) translate(0,-256)" /><path d="M689 409Q689 409 700.5 408.5Q712 408 727.0 407.5Q742 407 753.5 406.5Q765 406 767 406Q768 406 773.0 421.5Q778 437 782.5 453.0Q787 469 789 472Q790 474 799.0 492.0Q808 510 820.5 536.0Q833 562 845.5 588.0Q858 614 867.0 632.5Q876 651 877 654Q878 656 894.0 675.0Q910 694 934.0 720.5Q958 747 981.0 773.0Q1004 799 1020.0 817.0Q1036 835 1036 835L1099 905L1067 933Q1067 933 1052.0 916.5Q1037 900 1012.5 874.0Q988 848 960.0 818.5Q932 789 906.5 762.0Q881 735 863.5 716.0Q846 697 843 694Q839 691 827.0 669.0Q815 647 797.5 614.5Q780 582 761.0 546.5Q742 511 726.0 480.0Q710 449 699.5 429.0Q689 409 689 409Z" fill="#e0e0e0" stroke="none" transform="scale(1,-1) translate(0,-256)" /></svg>