<?xml version="1.0" encoding="utf-8" ?>
<svg baseProfile="full" height="256" version="1.1" width="256" xmlns="http://www.w3.org/2000/svg" xmlns:ev="http://www.w3.org/2001/xml-events" xmlns:xlink="http://www.w3.org/1999/xlink"><defs /><path d="M450 481Q447 459 423 466Q411 470 400.5 481.5Q390 493 389 506Q389 511 388.0 533.0Q387 555 386.5 585.0Q386 615 385.0 645.0Q384 675 383.5 697.0Q383 719 383 724Q383 737 391.0 751.0Q399 765 419 763Q433 761 438.5 752.5Q444 744 444.5 735.5Q445 727 445 727Q445 727 446.0 704.0Q447 681 448.0 646.0Q449 611 449.5 575.0Q450 539 450.5 513.0Q451 487 450 481Z" fill="#ffffff" stroke="none" transform="scale(1,-1) translate(0,-256)" /><path d="M439.73583984375 824.4260559082031Q439.73583984375 830.8255920410156 437.3360137939453 836.4251861572266Q434.9361877441406 842.0247802734375 430.6804962158203 846.2804718017578Q426.4248046875 850.5361633300781 420.82521057128906 852.9359893798828Q415.2256164550781 855.3358154296875 408.7620849609375 855.3358154296875Q402.362548828125 855.3358154296875 396.76295471191406 852.9359893798828Q391.1633605957031 850.5361633300781 386.9076690673828 846.2804718017578Q382.6519775390625 842.0247802734375 380.2521514892578 836.4251861572266Q377.8523254394531 830.8255920410156 377.8523254394531 824.4260559082031Q377.8523254394531 817.9625244140625 380.2521514892578 812.3629302978516Q382.6519775390625 806.7633361816406 386.9076690673828 802.5076446533203Q391.1633605957031 798.251953125 396.76295471191406 795.8521270751953Q402.362548828125 793.4523010253906 408.7620849609375 793.4523010253906Q415.2256164550781 793.4523010253906 420.82521057128906 795.8521270751953Q426.4248046875 798.251953125 430.6804962158203 802.5076446533203Q434.9361877441406 806.7633361816406 437.3360137939453 812.3629302978516Q439.73583984375 817.9625244140625 439.73583984375 824.4260559082031Z" fill="#ffffff" stroke="none" transform="scale(1,-1) translate(0,-256)" /><path d="M380 -66Q369 -82 367.0 -94.0Q365 -106 372 -111Q379 -115 385.0 -104.5Q391 -94 395 -89Q416 -58 453 -47Q456 -47 459.0 -46.0Q462 -45 463 -42Q467 -37 458 -32Q451 -30 441 -32Q399 -38 380 -66Z" fill="#ffffff" stroke="none" transform="scale(1,-1) translate(0,-256)" /><path d="M814.73583984375 824.4260559082031Q814.73583984375 830.8255920410156 812.3360137939453 836.4251861572266Q809.9361877441406 842.0247802734375 805.6804962158203 846.2804718017578Q801.4248046875 850.5361633300781 795.8252105712891 852.9359893798828Q790.2256164550781 855.3358154296875 783.7620849609375 855.3358154296875Q777.362548828125 855.3358154296875 771.7629547119141 852.9359893798828Q766.1633605957031 850.5361633300781 761.9076690673828 846.2804718017578Q757.6519775390625 842.0247802734375 755.2521514892578 836.4251861572266Q752.8523254394531 830.8255920410156 752.8523254394531 824.4260559082031Q752.8523254394531 817.9625244140625 755.2521514892578 812.3629302978516Q757.6519775390625 806.7633361816406 761.9076690673828 802.5076446533203Q766.1633605957031 798.251953125 771.7629547119141 795.8521270751953Q777.362548828125 793.4523010253906 783.7620849609375 793.4523010253906Q790.2256164550781 793.4523010253906 795.8252105712891 795.8521270751953Q801.4248046875 798.251953125 805.6804962158203 802.5076446533203Q809.9361877441406 806.7633361816406 812.3360137939453 812.3629302978516Q814.73583984375 817.9625244140625 814.73583984375 824.4260559082031Z" fill="#ffffff" stroke="none" transform="scale(1,-1) translate(0,-256)" /></svg>