<?xml version="1.0" encoding="utf-8" ?>
<svg baseProfile="full" height="256" version="1.1" width="256" xmlns="http://www.w3.org/2000/svg" xmlns:ev="http://www.w3.org/2001/xml-events" xmlns:xlink="http://www.w3.org/1999/xlink"><defs /><path d="M504 124Q504 109 492.5 98.5Q481 88 466 88H391Q375 88 364.5 98.5Q354 109 353 124L337 874Q336 890 347.0 901.5Q358 913 374 913H484Q499 913 510.5 901.5Q522 890 521 874Z" fill="#f44336" stroke="none" transform="scale(1,-1) translate(0,-256)" /><path d="M531.5545501708984 -99.901611328125Q531.5545501708984 -79.94158935546875 524.0695419311523 -62.47657012939453Q516.5845336914062 -45.01155090332031 503.31111907958984 -31.738136291503906Q490.03770446777344 -18.4647216796875 472.5726852416992 -10.979713439941406Q455.107666015625 -3.4947052001953125 434.9480438232422 -3.4947052001953125Q414.98802185058594 -3.4947052001953125 397.5230026245117 -10.979713439941406Q380.0579833984375 -18.4647216796875 366.7845687866211 -31.738136291503906Q353.5111541748047 -45.01155090332031 346.0261459350586 -62.47657012939453Q338.5411376953125 -79.94158935546875 338.5411376953125 -99.901611328125Q338.5411376953125 -120.06123352050781 346.0261459350586 -137.52625274658203Q353.5111541748047 -154.99127197265625 366.7845687866211 -168.26468658447266Q380.0579833984375 -181.53810119628906 397.5230026245117 -189.02310943603516Q414.98802185058594 -196.50811767578125 434.9480438232422 -196.50811767578125Q455.107666015625 -196.50811767578125 472.5726852416992 -189.02310943603516Q490.03770446777344 -181.53810119628906 503.31111907958984 -168.26468658447266Q516.5845336914062 -154.99127197265625 524.0695419311523 -137.52625274658203Q531.5545501708984 -120.06123352050781 531.5545501708984 -99.901611328125Z" fill="#f44336" stroke="none" transform="scale(1,-1) translate(0,-256)" /><path d="M906.5545501708984 -99.901611328125Q906.5545501708984 -79.94158935546875 899.0695419311523 -62.47657012939453Q891.5845336914062 -45.01155090332031 878.3111190795898 -31.738136291503906Q865.0377044677734 -18.4647216796875 847.5726852416992 -10.979713439941406Q830.107666015625 -3.4947052001953125 809.9480438232422 -3.4947052001953125Q789.9880218505859 -3.4947052001953125 772.5230026245117 -10.979713439941406Q755.0579833984375 -18.4647216796875 741.7845687866211 -31.738136291503906Q728.5111541748047 -45.01155090332031 721.0261459350586 -62.47657012939453Q713.5411376953125 -79.94158935546875 713.5411376953125 -99.901611328125Q713.5411376953125 -120.06123352050781 721.0261459350586 -137.52625274658203Q728.5111541748047 -154.99127197265625 741.7845687866211 -168.26468658447266Q755.0579833984375 -181.53810119628906 772.5230026245117 -189.02310943603516Q789.9880218505859 -196.50811767578125 809.9480438232422 -196.50811767578125Q830.107666015625 -196.50811767578125 847.5726852416992 -189.02310943603516Q865.0377044677734 -181.53810119628906 878.3111190795898 -168.26468658447266Q891.5845336914062 -154.99127197265625 899.0695419311523 -137.52625274658203Q906.5545501708984 -120.06123352050781 906.5545501708984 -99.901611328125Z" fill="#f44336" stroke="none" transform="scale(1,-1) translate(0,-256)" /></svg>