<?xml version="1.0" encoding="utf-8" ?>
<svg baseProfile="full" height="256" version="1.1" width="256" xmlns="http://www.w3.org/2000/svg" xmlns:ev="http://www.w3.org/2001/xml-events" xmlns:xlink="http://www.w3.org/1999/xlink"><defs /><path d="M883 -113 858 -121 857 -100 807 -92Q644 -47 589 119Q581 142 564.5 188.5Q548 235 527.0 292.0Q506 349 484.5 405.0Q463 461 446 503Q427 552 388 567Q376 571 351.0 577.5Q326 584 297.5 590.5Q269 597 249 601L246 683L277 687Q282 686 299.0 682.5Q316 679 339.0 673.5Q362 668 384.0 662.0Q406 656 420 651Q496 622 530 537Q547 494 568.5 437.5Q590 381 611.5 323.0Q633 265 650.0 218.0Q667 171 674 147Q695 87 733.5 53.5Q772 20 831 4L852 -1Q879 -7 880 -34Z" fill="#b0f2f7" stroke="none" transform="scale(1,-1) translate(0,-256)" /></svg>