<?xml version="1.0" encoding="utf-8" ?>
<svg baseProfile="full" height="256" version="1.1" width="256" xmlns="http://www.w3.org/2000/svg" xmlns:ev="http://www.w3.org/2001/xml-events" xmlns:xlink="http://www.w3.org/1999/xlink"><defs /><path d="M295 589Q331 670 365.5 718.0Q400 766 423.5 786.5Q447 807 452 806Q460 805 469.5 798.5Q479 792 482 786Q482 786 469.5 772.0Q457 758 440.5 737.0Q424 716 413 695Q387 647 359.5 574.5Q332 502 311 398Q300 348 295.5 298.5Q291 249 288.5 207.0Q286 165 284.0 138.5Q282 112 278 108Q276 105 269.0 119.5Q262 134 254.5 155.5Q247 177 240.5 195.0Q234 213 233 218Q230 230 227.0 249.5Q224 269 225 281Q235 382 252.0 456.5Q269 531 295 589Z" fill="#b0b0b0" stroke="none" transform="scale(1,-1) translate(0,-256)" /><path d="M194 755Q214 786 230.0 807.5Q246 829 254 835Q258 839 267.0 838.0Q276 837 279 835Q282 834 289.0 833.0Q296 832 296 831Q298 828 288.5 818.0Q279 808 262.0 785.0Q245 762 222 719Q211 699 197.5 668.5Q184 638 171.5 607.5Q159 577 150.0 556.5Q141 536 139 535Q136 535 135.5 550.0Q135 565 135.0 581.0Q135 597 135 600Q134 604 132.0 612.0Q130 620 130 624Q130 627 139.0 649.5Q148 672 162.5 701.5Q177 731 194 755Z" fill="#b0b0b0" stroke="none" transform="scale(1,-1) translate(0,-256)" /><path d="M570 424Q567 469 577.0 520.0Q587 571 601.5 616.0Q616 661 628.0 690.5Q640 720 641 723Q643 729 651.5 722.0Q660 715 670 699Q681 683 683.0 668.0Q685 653 685 653Q685 653 681.5 641.0Q678 629 676 615Q674 605 666.5 577.0Q659 549 654.5 509.0Q650 469 659 425Q669 376 684.0 344.5Q699 313 720.0 289.5Q741 266 768 241Q789 221 823.5 195.5Q858 170 895.0 144.0Q932 118 960.0 98.5Q988 79 997 73Q1021 54 1031.5 32.5Q1042 11 1035 -1Q1030 -10 1020.5 -6.0Q1011 -2 1000.5 6.5Q990 15 983 20Q976 24 952.0 38.5Q928 53 895.0 73.0Q862 93 829.5 113.0Q797 133 773 148Q748 164 715.5 188.5Q683 213 651.0 247.0Q619 281 596.5 325.0Q574 369 570 424Z" fill="#b0b0b0" stroke="none" transform="scale(1,-1) translate(0,-256)" /></svg>