<?xml version="1.0" encoding="utf-8" ?>
<svg baseProfile="full" height="256" version="1.1" width="256" xmlns="http://www.w3.org/2000/svg" xmlns:ev="http://www.w3.org/2001/xml-events" xmlns:xlink="http://www.w3.org/1999/xlink"><defs /><path d="M118 832Q125 843 150.5 846.0Q176 849 198 847Q237 842 260.0 835.0Q283 828 283 828Q283 828 308.0 833.5Q333 839 381 832Q411 827 432.5 816.0Q454 805 465.5 795.5Q477 786 477 786Q477 786 496.5 784.5Q516 783 543.5 778.0Q571 773 595 762Q621 750 638.5 732.0Q656 714 666.0 695.5Q676 677 680.0 664.0Q684 651 684 651Q684 651 705.0 662.0Q726 673 763.0 682.0Q800 691 848.0 687.5Q896 684 950.5 656.5Q1005 629 1061 566Q1096 526 1110.0 473.5Q1124 421 1123.0 364.0Q1122 307 1112.5 251.0Q1103 195 1091.0 147.5Q1079 100 1070.5 66.5Q1062 33 1065 21Q1069 2 1075.0 -24.0Q1081 -50 1083 -76Q1083 -91 1079.0 -110.5Q1075 -130 1059.5 -144.5Q1044 -159 1010 -159Q984 -159 963.0 -148.5Q942 -138 921.0 -123.5Q900 -109 874.0 -96.0Q848 -83 813 -78Q792 -75 760.5 -83.0Q729 -91 690.5 -101.5Q652 -112 609.5 -118.5Q567 -125 522.0 -120.5Q477 -116 433 -93Q386 -68 352.5 -26.5Q319 15 297.0 61.5Q275 108 262.5 149.5Q250 191 244.5 217.5Q239 244 239 244Q239 244 221.0 265.5Q203 287 181.5 325.0Q160 363 150 411Q141 455 139.5 499.0Q138 543 140.0 572.0Q142 601 142 601Q142 601 136.0 616.0Q130 631 122.5 651.5Q115 672 112 687Q108 703 106.5 733.0Q105 763 107.5 791.5Q110 820 118 832Z" fill="#e0e0e0" stroke="none" transform="scale(1,-1) translate(0,-256)" /></svg>