<?xml version="1.0" encoding="utf-8" ?>
<svg baseProfile="full" height="256" version="1.1" width="256" xmlns="http://www.w3.org/2000/svg" xmlns:ev="http://www.w3.org/2001/xml-events" xmlns:xlink="http://www.w3.org/1999/xlink"><defs /><path d="M652 -212Q688 -212 709.0 -206.0Q730 -200 746.5 -191.0Q763 -182 787 -175Q818 -171 842.5 -174.0Q867 -177 895.5 -172.5Q924 -168 966 -143L956 -94Q918 -120 890.0 -125.5Q862 -131 835.0 -129.0Q808 -127 776 -132Q749 -135 733.0 -144.5Q717 -154 699.0 -162.0Q681 -170 651 -169Q620 -169 597.0 -162.5Q574 -156 553.0 -146.5Q532 -137 506 -131Q479 -126 449.0 -127.5Q419 -129 390.0 -126.0Q361 -123 335 -105L328 -152Q354 -170 383.0 -172.5Q412 -175 440.5 -172.5Q469 -170 495 -173Q521 -181 543.5 -190.0Q566 -199 591.0 -205.5Q616 -212 652 -212Z" fill="#ffca28" stroke="none" transform="scale(1,-1) translate(0,-256)" /><path d="M396.65087890625 153.174072265625 419.45416259765625 180.76651000976562 396.746337890625 208.43756103515625 374.75575256347656 180.84371948242188Z" fill="#ffca28" stroke="none" transform="scale(1,-1) translate(0,-256)" /><path d="M430 -66 462 -27 430 13 397 -27Z" fill="#ffca28" stroke="none" transform="scale(1,-1) translate(0,-256)" /><path d="M854 -66 887 -27 854 13 821 -27Z" fill="#ffca28" stroke="none" transform="scale(1,-1) translate(0,-256)" /><path d="M515 698Q516 690 516.5 681.0Q517 672 518 664Q493 644 469.0 627.0Q445 610 422 596Q420 609 419.5 616.5Q419 624 427 632Q427 632 452.5 650.5Q478 669 515 698Z" fill="#ffca28" stroke="none" transform="scale(1,-1) translate(0,-256)" /><path d="M426 143V107Q398 92 377.5 82.5Q357 73 357 73Q357 81 358.0 90.0Q359 99 360 108Q370 113 389.0 123.0Q408 133 426 143Z" fill="#ffca28" stroke="none" transform="scale(1,-1) translate(0,-256)" /><path d="M379 257Q387 263 403.0 275.0Q419 287 429 296L428 259Q416 250 399.0 237.5Q382 225 373 219Q376 240 378 253Q378 254 378.5 255.0Q379 256 379 257Z" fill="#ffca28" stroke="none" transform="scale(1,-1) translate(0,-256)" /><path d="M705 859Q709 863 721.0 874.5Q733 886 745.0 897.0Q757 908 761 913L781 906Q781 906 772.5 897.0Q764 888 752.0 876.0Q740 864 733 856Q733 856 721.5 857.0Q710 858 705 859Z" fill="#ffca28" stroke="none" transform="scale(1,-1) translate(0,-256)" /><path d="M806 805Q806 805 810.0 815.5Q814 826 819.5 840.5Q825 855 829.5 867.5Q834 880 835 884L849 878Q847 873 841.5 856.5Q836 840 830.5 823.5Q825 807 822 800Z" fill="#ffca28" stroke="none" transform="scale(1,-1) translate(0,-256)" /><path d="M877 764Q886 801 889.0 828.0Q892 855 892 855Q897 853 904.0 847.5Q911 842 911 842Q911 842 908.0 814.0Q905 786 896 754Z" fill="#ffca28" stroke="none" transform="scale(1,-1) translate(0,-256)" /></svg>