<?xml version="1.0" encoding="utf-8" ?>
<svg baseProfile="full" height="256" version="1.1" width="256" xmlns="http://www.w3.org/2000/svg" xmlns:ev="http://www.w3.org/2001/xml-events" xmlns:xlink="http://www.w3.org/1999/xlink"><defs /><path d="M769 909Q795 903 824.5 889.5Q854 876 874.5 864.5Q895 853 895 853Q887 805 878.0 758.5Q869 712 852.0 660.0Q835 608 803.5 545.0Q772 482 720 400Q682 339 634.0 289.5Q586 240 538.0 203.0Q490 166 449.5 140.5Q409 115 384.0 102.5Q359 90 359 90L390 312L416 368L415 476L439 526L421 607Q421 607 445.0 626.0Q469 645 508.5 677.5Q548 710 594.5 749.5Q641 789 687.0 830.5Q733 872 769 909Z" fill="#80ddd2" stroke="none" transform="scale(1,-1) translate(0,-256)" /></svg>