<?xml version="1.0" encoding="utf-8" ?>
<svg baseProfile="full" height="256" version="1.1" width="256" xmlns="http://www.w3.org/2000/svg" xmlns:ev="http://www.w3.org/2001/xml-events" xmlns:xlink="http://www.w3.org/1999/xlink"><defs /><path d="M682 275 942 335 682 395 622 655 562 395 302 335 562 275 622 15Z" fill="#e0c3ab" stroke="none" transform="scale(1,-1) translate(0,-256)" /><path d="M995 335Q995 321 1004.5 311.5Q1014 302 1027 302H1074V367H1027Q1014 367 1004.5 357.5Q995 348 995 335Z" fill="#e0c3ab" stroke="none" transform="scale(1,-1) translate(0,-256)" /><path d="M249.53199768066406 334.43699645996094Q249.53199768066406 348.43699645996094 240.03199768066406 357.93699645996094Q230.53199768066406 367.43699645996094 217.53199768066406 367.43699645996094H170.53199768066406V302.43699645996094H217.53199768066406Q230.53199768066406 302.43699645996094 240.03199768066406 311.93699645996094Q249.53199768066406 321.43699645996094 249.53199768066406 334.43699645996094Z" fill="#e0c3ab" stroke="none" transform="scale(1,-1) translate(0,-256)" /><path d="M622.5 -38.25Q608.5 -38.25 599.0 -47.75Q589.5 -57.25 589.5 -70.25V-117.25H654.5V-70.25Q654.5 -57.25 645.0 -47.75Q635.5 -38.25 622.5 -38.25Z" fill="#e0c3ab" stroke="none" transform="scale(1,-1) translate(0,-256)" /><path d="M621.9380035400391 707.6880035400391Q635.9380035400391 707.6880035400391 645.4380035400391 717.1880035400391Q654.9380035400391 726.6880035400391 654.9380035400391 739.6880035400391V786.6880035400391H589.9380035400391V739.6880035400391Q589.9380035400391 726.6880035400391 599.4380035400391 717.1880035400391Q608.9380035400391 707.6880035400391 621.9380035400391 707.6880035400391Z" fill="#e0c3ab" stroke="none" transform="scale(1,-1) translate(0,-256)" /></svg>