<?xml version="1.0" encoding="utf-8" ?>
<svg baseProfile="full" height="256" version="1.1" width="256" xmlns="http://www.w3.org/2000/svg" xmlns:ev="http://www.w3.org/2001/xml-events" xmlns:xlink="http://www.w3.org/1999/xlink"><defs /><path d="M689.8468017578125 331.4070129394531Q689.8468017578125 346.05101013183594 684.3391036987305 358.8807067871094Q678.8314056396484 371.7104034423828 669.1119384765625 381.49466705322266Q659.3924713134766 391.2789306640625 646.4979782104492 396.78662872314453Q633.6034851074219 402.29432678222656 618.9594879150391 402.29432678222656Q604.3154907226562 402.29432678222656 591.4857940673828 396.78662872314453Q578.6560974121094 391.2789306640625 568.8718338012695 381.49466705322266Q559.0875701904297 371.7104034423828 553.5798721313477 358.8807067871094Q548.0721740722656 346.05101013183594 548.0721740722656 331.4070129394531Q548.0721740722656 316.6334228515625 553.5798721313477 303.80372619628906Q559.0875701904297 290.9740295410156 568.8718338012695 281.2545623779297Q578.6560974121094 271.53509521484375 591.4857940673828 266.0273971557617Q604.3154907226562 260.5196990966797 618.9594879150391 260.5196990966797Q633.6034851074219 260.5196990966797 646.4979782104492 266.0273971557617Q659.3924713134766 271.53509521484375 669.1119384765625 281.2545623779297Q678.8314056396484 290.9740295410156 684.3391036987305 303.80372619628906Q689.8468017578125 316.6334228515625 689.8468017578125 331.4070129394531Z" fill="#94d1e0" stroke="none" transform="scale(1,-1) translate(0,-256)" /></svg>