<?xml version="1.0" encoding="utf-8" ?>
<svg baseProfile="full" height="256" version="1.1" width="256" xmlns="http://www.w3.org/2000/svg" xmlns:ev="http://www.w3.org/2001/xml-events" xmlns:xlink="http://www.w3.org/1999/xlink"><defs /><path d="M1065.4911651611328 334.9671173095703Q1065.4911651611328 426.57615661621094 1031.0364379882812 506.8354034423828Q996.5817108154297 587.0946502685547 935.7792510986328 648.3024597167969Q874.9767913818359 709.5102691650391 794.3121948242188 743.9649963378906Q713.6475982666016 778.4197235107422 622.0385589599609 778.4197235107422Q530.4295196533203 778.4197235107422 450.17027282714844 743.9649963378906Q369.91102600097656 709.5102691650391 308.7032165527344 648.3024597167969Q247.4954071044922 587.0946502685547 213.04067993164062 506.8354034423828Q178.58595275878906 426.57615661621094 178.58595275878906 334.9671173095703Q178.58595275878906 242.54737854003906 213.04067993164062 162.2881317138672Q247.4954071044922 82.02888488769531 308.7032165527344 21.226425170898438Q369.91102600097656 -39.57603454589844 450.17027282714844 -74.03076171875Q530.4295196533203 -108.48548889160156 622.0385589599609 -108.48548889160156Q713.6475982666016 -108.48548889160156 794.3121948242188 -74.03076171875Q874.9767913818359 -39.57603454589844 935.7792510986328 21.226425170898438Q996.5817108154297 82.02888488769531 1031.0364379882812 162.2881317138672Q1065.4911651611328 242.54737854003906 1065.4911651611328 334.9671173095703Z" fill="#ffffff" stroke="none" transform="scale(1,-1) translate(0,-256)" /></svg>