<?xml version="1.0" encoding="utf-8" ?>
<svg baseProfile="full" height="256" version="1.1" width="256" xmlns="http://www.w3.org/2000/svg" xmlns:ev="http://www.w3.org/2001/xml-events" xmlns:xlink="http://www.w3.org/1999/xlink"><defs /><path d="M1027 660 1083 717Q1093 726 1093.0 739.5Q1093 753 1083 762L1049 796Q1040 805 1026.5 805.0Q1013 805 1004 796L947 739Z" fill="#ffca28" stroke="none" transform="scale(1,-1) translate(0,-256)" /><path d="M1169 335Q1169 448 1126.5 547.0Q1084 646 1009.0 721.5Q934 797 834.5 839.5Q735 882 622 882Q509 882 410.0 839.5Q311 797 235.5 721.5Q160 646 117.5 547.0Q75 448 75 335Q75 221 117.5 122.0Q160 23 235.5 -52.0Q311 -127 410.0 -169.5Q509 -212 622 -212Q735 -212 834.5 -169.5Q934 -127 1009.0 -52.0Q1084 23 1126.5 122.0Q1169 221 1169 335Z" fill="#ffca28" stroke="none" transform="scale(1,-1) translate(0,-256)" /></svg>