<?xml version="1.0" encoding="utf-8" ?>
<svg baseProfile="full" height="256" version="1.1" width="256" xmlns="http://www.w3.org/2000/svg" xmlns:ev="http://www.w3.org/2001/xml-events" xmlns:xlink="http://www.w3.org/1999/xlink"><defs /><path d="M430 587Q501 609 578.5 605.0Q656 601 728 566Q755 553 781 536Q800 521 803 511Q806 503 803 495Q800 489 793.5 486.0Q787 483 780 483Q761 481 742.5 488.0Q724 495 707 505Q687 518 667.0 529.5Q647 541 625 550Q558 577 507.0 581.5Q456 586 430 587Z" fill="#000000" stroke="none" transform="scale(1,-1) translate(0,-256)" /><path d="M995 503Q993 505 983.5 511.5Q974 518 961.5 520.0Q949 522 940 510Q932 500 932.5 478.0Q933 456 938.5 432.5Q944 409 949.0 392.0Q954 375 954 374Q942 389 932 406Q908 448 905.0 485.0Q902 522 922 534Q934 541 951.0 534.5Q968 528 986 512Q986 512 987 511Q991 507 993 505Q993 505 994 505Q994 505 994.5 504.5Q995 504 995 503Z" fill="#000000" stroke="none" transform="scale(1,-1) translate(0,-256)" /></svg>