<?xml version="1.0" encoding="utf-8" ?>
<svg baseProfile="full" height="256" version="1.1" width="256" xmlns="http://www.w3.org/2000/svg" xmlns:ev="http://www.w3.org/2001/xml-events" xmlns:xlink="http://www.w3.org/1999/xlink"><defs /><path d="M1015.7806243896484 444.77088928222656Q1009.2999420166016 456.00596618652344 998.821891784668 461.19193267822266Q988.3438415527344 466.3778991699219 980.3187866210938 461.74884033203125Q973.0962371826172 457.5826873779297 972.3392105102539 445.9160385131836Q971.5821838378906 434.2493896484375 978.0628662109375 423.0143127441406Q985.0064544677734 410.9767303466797 995.484504699707 405.79076385498047Q1005.9625549316406 400.60479736328125 1013.1851043701172 404.7709503173828Q1021.2101593017578 409.40000915527344 1021.9671859741211 421.06665802001953Q1022.7242126464844 432.7333068847656 1015.7806243896484 444.77088928222656Z" fill="#212121" stroke="none" transform="scale(1,-1) translate(0,-256)" /><path d="M864 251Q871 247 884.5 242.0Q898 237 912.5 236.0Q927 235 934 242Q945 253 941.0 261.0Q937 269 928.0 274.5Q919 280 915 282Q897 292 881.0 307.0Q865 322 854 339Q844 356 835.0 370.5Q826 385 815 381Q806 379 804.0 369.5Q802 360 803.0 350.5Q804 341 805 337Q816 299 831.5 280.5Q847 262 864 251Z" fill="#212121" stroke="none" transform="scale(1,-1) translate(0,-256)" /></svg>