<?xml version="1.0" encoding="utf-8" ?>
<svg baseProfile="full" height="256" version="1.1" width="256" xmlns="http://www.w3.org/2000/svg" xmlns:ev="http://www.w3.org/2001/xml-events" xmlns:xlink="http://www.w3.org/1999/xlink"><defs /><path d="M824 -137 1179 224Q1179 224 1186.0 219.5Q1193 215 1199.5 208.0Q1206 201 1206 196Q1206 194 1187.0 173.5Q1168 153 1139.5 123.5Q1111 94 1082.0 65.0Q1053 36 1035 17Q1019 2 993.0 -25.5Q967 -53 936.0 -85.0Q905 -117 876.5 -146.5Q848 -176 828.0 -194.5Q808 -213 804 -212Q796 -211 786.0 -202.0Q776 -193 768.0 -184.0Q760 -175 760 -175L797 -140Z" fill="#b0b3af" stroke="none" transform="scale(1,-1) translate(0,-256)" /></svg>