<?xml version="1.0" encoding="utf-8" ?>
<svg baseProfile="full" height="256" version="1.1" width="256" xmlns="http://www.w3.org/2000/svg" xmlns:ev="http://www.w3.org/2001/xml-events" xmlns:xlink="http://www.w3.org/1999/xlink"><defs /><path d="M787 598 677 327 420 226Q420 226 399.5 246.0Q379 266 347.0 297.5Q315 329 278.5 365.0Q242 401 208.5 433.5Q175 466 152.5 488.0Q130 510 127 513Q113 527 101.0 523.5Q89 520 89 520Q89 520 107.5 539.5Q126 559 154.0 589.0Q182 619 212.5 651.5Q243 684 268.0 710.0Q293 736 304 748Q317 762 339.0 785.5Q361 809 384.0 834.0Q407 859 424.5 877.5Q442 896 448 902Q458 912 473.0 910.5Q488 909 495 905Q499 903 514.5 886.0Q530 869 551.5 845.5Q573 822 595.5 798.0Q618 774 634 757Q656 734 682.0 707.0Q708 680 732.0 655.0Q756 630 771.5 614.0Q787 598 787 598Z" fill="#865c50" stroke="none" transform="scale(1,-1) translate(0,-256)" /></svg>