<?xml version="1.0" encoding="utf-8" ?>
<svg baseProfile="full" height="256" version="1.1" width="256" xmlns="http://www.w3.org/2000/svg" xmlns:ev="http://www.w3.org/2001/xml-events" xmlns:xlink="http://www.w3.org/1999/xlink"><defs /><path d="M123 544 353 352 443 236 391 183Q391 183 373.5 198.5Q356 214 329.5 237.5Q303 261 275.5 286.0Q248 311 228 331Q198 361 162.5 392.0Q127 423 101.5 448.0Q76 473 74 486Q73 496 77.5 504.0Q82 512 89 520Q96 528 109.5 536.0Q123 544 123 544Z" fill="#50352f" stroke="none" transform="scale(1,-1) translate(0,-256)" /><path d="M475 259 491 276 228 528 478 790 729 535 745 552 486 815Q483 818 478 818Q473 818 469 815L203 535Q195 527 204 519Z" fill="#50352f" stroke="none" transform="scale(1,-1) translate(0,-256)" /><path d="M347.26385498046875 658.1866302490234 587.5111694335938 418.91969299316406 604.0394744873047 435.5160827636719 363.7921600341797 674.7830200195312Z" fill="#50352f" stroke="none" transform="scale(1,-1) translate(0,-256)" /><path d="M301.9193420410156 440.44647216796875 318.93084716796875 424.4075012207031 580.6470184326172 701.7505950927734 563.6355133056641 717.7895660400391Z" fill="#50352f" stroke="none" transform="scale(1,-1) translate(0,-256)" /><path d="M401.6727752685547 344.48101806640625 418.88819885253906 328.5989074707031 670.030517578125 600.9362945556641 652.8150939941406 616.8184051513672Z" fill="#50352f" stroke="none" transform="scale(1,-1) translate(0,-256)" /></svg>