<?xml version="1.0" encoding="utf-8" ?>
<svg baseProfile="full" height="256" version="1.1" width="256" xmlns="http://www.w3.org/2000/svg" xmlns:ev="http://www.w3.org/2001/xml-events" xmlns:xlink="http://www.w3.org/1999/xlink"><defs /><path d="M666 283Q664 283 663 285Q645 299 630.5 333.5Q616 368 610.0 412.5Q604 457 613 502Q615 513 624.5 508.0Q634 503 644.0 492.5Q654 482 657 475Q659 468 659.5 460.0Q660 452 659 445Q658 426 657.5 407.5Q657 389 659 372Q660 358 663.5 345.0Q667 332 673 322Q677 315 683.5 309.0Q690 303 682 291Q675 279 666 283Z" fill="#69937d" stroke="none" transform="scale(1,-1) translate(0,-256)" /></svg>