<?xml version="1.0" encoding="utf-8" ?>
<svg baseProfile="full" height="256" version="1.1" width="256" xmlns="http://www.w3.org/2000/svg" xmlns:ev="http://www.w3.org/2001/xml-events" xmlns:xlink="http://www.w3.org/1999/xlink"><defs /><path d="M380 109Q362 102 357.0 84.0Q352 66 360 50Q370 31 382.5 25.0Q395 19 405.5 20.0Q416 21 419 22Q435 30 438.0 47.5Q441 65 432 83Q420 105 406.0 109.0Q392 113 380 109Z" fill="#ffffff" stroke="none" transform="scale(1,-1) translate(0,-256)" /><path d="M756 538Q744 524 746.5 508.0Q749 492 758 481Q774 463 792.5 462.5Q811 462 821 470Q834 481 832.0 501.0Q830 521 814 535Q796 551 780.5 549.5Q765 548 756 538Z" fill="#ffffff" stroke="none" transform="scale(1,-1) translate(0,-256)" /><path d="M565 338Q550 330 549.0 310.5Q548 291 555 277Q569 251 590.0 248.0Q611 245 622 252Q639 262 638.0 284.5Q637 307 623 325Q607 344 591.5 345.0Q576 346 565 338Z" fill="#ffffff" stroke="none" transform="scale(1,-1) translate(0,-256)" /></svg>