<?xml version="1.0" encoding="utf-8" ?>
<svg baseProfile="full" height="256" version="1.1" width="256" xmlns="http://www.w3.org/2000/svg" xmlns:ev="http://www.w3.org/2001/xml-events" xmlns:xlink="http://www.w3.org/1999/xlink"><defs /><path d="M1084 617Q1084 526 1074.0 445.5Q1064 365 1037.0 290.5Q1010 216 958.5 141.0Q907 66 824 -14Q739 -95 643.0 -141.5Q547 -188 452.0 -203.5Q357 -219 276.0 -208.0Q195 -197 141 -165Q135 -162 125.5 -151.5Q116 -141 111.5 -126.5Q107 -112 117 -96Q117 -96 143.0 -101.0Q169 -106 216.5 -105.5Q264 -105 330.0 -89.0Q396 -73 476.0 -33.0Q556 7 647 83Q737 158 793.0 236.0Q849 314 879.5 385.0Q910 456 922.0 512.0Q934 568 936.0 600.5Q938 633 938 633Q977 649 1010.0 654.5Q1043 660 1063.5 651.0Q1084 642 1084 617Z" fill="#9ccc65" stroke="none" transform="scale(1,-1) translate(0,-256)" /><path d="M600.1540985107422 -13.6903076171875Q600.1540985107422 18.98028564453125 587.9026260375977 47.567054748535156Q575.6511535644531 76.15382385253906 553.9252090454102 97.87976837158203Q532.1992645263672 119.605712890625 503.6124954223633 131.85718536376953Q475.0257263183594 144.10865783691406 442.02842712402344 144.10865783691406Q409.3578338623047 144.10865783691406 380.7710647583008 131.85718536376953Q352.1842956542969 119.605712890625 330.4583511352539 97.87976837158203Q308.73240661621094 76.15382385253906 296.4809341430664 47.567054748535156Q284.2294616699219 18.98028564453125 284.2294616699219 -13.6903076171875Q284.2294616699219 -46.68760681152344 296.4809341430664 -75.27437591552734Q308.73240661621094 -103.86114501953125 330.4583511352539 -125.58708953857422Q352.1842956542969 -147.3130340576172 380.7710647583008 -159.56450653076172Q409.3578338623047 -171.81597900390625 442.02842712402344 -171.81597900390625Q475.0257263183594 -171.81597900390625 503.6124954223633 -159.56450653076172Q532.1992645263672 -147.3130340576172 553.9252090454102 -125.58708953857422Q575.6511535644531 -103.86114501953125 587.9026260375977 -75.27437591552734Q600.1540985107422 -46.68760681152344 600.1540985107422 -13.6903076171875Z" fill="#9ccc65" stroke="none" transform="scale(1,-1) translate(0,-256)" /><path d="M820.6696929931641 221.08326721191406Q820.6696929931641 257.24354553222656 807.1095886230469 288.8837890625Q793.5494842529297 320.52403259277344 769.5028991699219 344.57061767578125Q745.4563140869141 368.61720275878906 713.8160705566406 382.17730712890625Q682.1758270263672 395.73741149902344 645.6539459228516 395.73741149902344Q609.4936676025391 395.73741149902344 577.8534240722656 382.17730712890625Q546.2131805419922 368.61720275878906 522.1665954589844 344.57061767578125Q498.12001037597656 320.52403259277344 484.5599060058594 288.8837890625Q470.9998016357422 257.24354553222656 470.9998016357422 221.08326721191406Q470.9998016357422 184.56138610839844 484.5599060058594 152.921142578125Q498.12001037597656 121.28089904785156 522.1665954589844 97.23431396484375Q546.2131805419922 73.18772888183594 577.8534240722656 59.62762451171875Q609.4936676025391 46.06752014160156 645.6539459228516 46.06752014160156Q682.1758270263672 46.06752014160156 713.8160705566406 59.62762451171875Q745.4563140869141 73.18772888183594 769.5028991699219 97.23431396484375Q793.5494842529297 121.28089904785156 807.1095886230469 152.921142578125Q820.6696929931641 184.56138610839844 820.6696929931641 221.08326721191406Z" fill="#9ccc65" stroke="none" transform="scale(1,-1) translate(0,-256)" /><path d="M998.591796875 443.62208557128906Q998.591796875 476.2926788330078 986.3403244018555 504.8794479370117Q974.0888519287109 533.4662170410156 952.362907409668 555.1921615600586Q930.636962890625 576.9181060791016 902.0501937866211 589.1695785522461Q873.4634246826172 601.4210510253906 840.4661254882812 601.4210510253906Q807.7955322265625 601.4210510253906 779.2087631225586 589.1695785522461Q750.6219940185547 576.9181060791016 728.8960494995117 555.1921615600586Q707.1701049804688 533.4662170410156 694.9186325073242 504.8794479370117Q682.6671600341797 476.2926788330078 682.6671600341797 443.62208557128906Q682.6671600341797 410.6247863769531 694.9186325073242 382.0380172729492Q707.1701049804688 353.4512481689453 728.8960494995117 331.72530364990234Q750.6219940185547 309.9993591308594 779.2087631225586 297.74788665771484Q807.7955322265625 285.4964141845703 840.4661254882812 285.4964141845703Q873.4634246826172 285.4964141845703 902.0501937866211 297.74788665771484Q930.636962890625 309.9993591308594 952.362907409668 331.72530364990234Q974.0888519287109 353.4512481689453 986.3403244018555 382.0380172729492Q998.591796875 410.6247863769531 998.591796875 443.62208557128906Z" fill="#9ccc65" stroke="none" transform="scale(1,-1) translate(0,-256)" /><path d="M998 796Q943 756 904.0 739.5Q865 723 838.0 723.0Q811 723 795.0 733.5Q779 744 771 759Q763 773 766.0 790.5Q769 808 778.5 820.0Q788 832 799 831Q811 831 810.5 824.5Q810 818 805.5 809.0Q801 800 802 792Q803 772 816.5 766.5Q830 761 849.5 765.5Q869 770 890.0 779.0Q911 788 927.5 797.5Q944 807 950 812Q976 830 1000.5 849.5Q1025 869 1048 890Q1054 895 1063.0 901.0Q1072 907 1079.5 908.5Q1087 910 1089 901Q1091 894 1081.5 880.0Q1072 866 1056.5 849.5Q1041 833 1025.5 818.5Q1010 804 998 796Z" fill="#9ccc65" stroke="none" transform="scale(1,-1) translate(0,-256)" /></svg>