<?xml version="1.0" encoding="utf-8" ?>
<svg baseProfile="full" height="256" version="1.1" width="256" xmlns="http://www.w3.org/2000/svg" xmlns:ev="http://www.w3.org/2001/xml-events" xmlns:xlink="http://www.w3.org/1999/xlink"><defs /><path d="M174 -93Q174 -93 188.0 -57.0Q202 -21 235.5 42.5Q269 106 327.0 190.5Q385 275 473 374Q573 486 651.0 548.5Q729 611 776 639Q804 656 833.5 667.0Q863 678 883.0 683.5Q903 689 903 689Q903 689 908.5 668.5Q914 648 916.5 611.0Q919 574 912.0 522.0Q905 470 881.0 406.5Q857 343 808 270Q749 182 679.5 121.0Q610 60 539.0 20.0Q468 -20 402.5 -43.0Q337 -66 285.5 -76.5Q234 -87 204.0 -90.0Q174 -93 174 -93Z" fill="#33691e" stroke="none" transform="scale(1,-1) translate(0,-256)" /><path d="M548 8 608 61Q596 66 578.0 79.0Q560 92 542.0 107.0Q524 122 510.5 133.0Q497 144 495 144Q485 145 480.5 132.0Q476 119 480 101Q487 65 504.0 44.0Q521 23 548 8Z" fill="#33691e" stroke="none" transform="scale(1,-1) translate(0,-256)" /><path d="M781 235 840 314Q825 317 801.0 329.5Q777 342 752.0 357.0Q727 372 708.5 382.5Q690 393 687 393Q676 393 674.5 376.0Q673 359 679 336Q690 296 717.5 271.5Q745 247 781 235Z" fill="#33691e" stroke="none" transform="scale(1,-1) translate(0,-256)" /></svg>