<?xml version="1.0" encoding="utf-8" ?>
<svg baseProfile="full" height="256" version="1.1" width="256" xmlns="http://www.w3.org/2000/svg" xmlns:ev="http://www.w3.org/2001/xml-events" xmlns:xlink="http://www.w3.org/1999/xlink"><defs /><path d="M74 181Q80 110 114.0 56.0Q148 2 196.5 -36.5Q245 -75 298.0 -99.0Q351 -123 398.0 -134.0Q445 -145 474 -143Q495 -142 540.5 -120.5Q586 -99 647.0 -62.0Q708 -25 775.5 23.5Q843 72 908.5 127.0Q974 182 1028.5 239.0Q1083 296 1117.5 351.0Q1152 406 1158 454Q1168 538 1157.0 601.5Q1146 665 1121.0 712.0Q1096 759 1062.5 790.5Q1029 822 993 841Q942 869 873.5 874.5Q805 880 733.0 861.5Q661 843 599 801Q545 763 505.0 720.5Q465 678 430.0 640.5Q395 603 354 580Q341 573 311.5 561.5Q282 550 224 512Q186 487 148.5 439.0Q111 391 88.5 325.0Q66 259 74 181Z" fill="#b8885a" stroke="none" transform="scale(1,-1) translate(0,-256)" /></svg>