<?xml version="1.0" encoding="utf-8" ?>
<svg baseProfile="full" height="256" version="1.1" width="256" xmlns="http://www.w3.org/2000/svg" xmlns:ev="http://www.w3.org/2001/xml-events" xmlns:xlink="http://www.w3.org/1999/xlink"><defs /><path d="M594 -22 660 -36Q660 -36 655.5 -52.0Q651 -68 645.5 -90.0Q640 -112 636.0 -130.5Q632 -149 632 -154Q632 -165 638.0 -170.0Q644 -175 643 -187Q642 -199 635.0 -202.5Q628 -206 618 -208Q609 -211 586.0 -212.5Q563 -214 536.0 -215.0Q509 -216 489 -215Q474 -214 460.5 -212.0Q447 -210 446 -203Q445 -194 452.0 -184.0Q459 -174 469 -169Q476 -165 488.0 -164.5Q500 -164 512 -161Q528 -158 542.5 -151.0Q557 -144 563 -137Q566 -133 571.0 -118.0Q576 -103 580.5 -83.5Q585 -64 588.5 -47.0Q592 -30 594 -22Z" fill="#fd774d" stroke="none" transform="scale(1,-1) translate(0,-256)" /><path d="M806 -7 858 20Q858 20 864.0 7.0Q870 -6 879.0 -24.0Q888 -42 897.0 -56.5Q906 -71 913 -74Q919 -78 929.0 -84.5Q939 -91 940 -107Q941 -112 935.5 -125.5Q930 -139 919 -152Q907 -166 891.5 -176.5Q876 -187 871 -188Q863 -191 844.5 -192.5Q826 -194 808.0 -194.0Q790 -194 783 -194Q775 -194 768.5 -193.0Q762 -192 762 -183Q761 -168 778 -165Q784 -164 796.5 -160.0Q809 -156 822 -148Q848 -134 848 -112Q849 -103 847.0 -95.0Q845 -87 842 -81Q837 -68 828.5 -50.5Q820 -33 813.0 -20.0Q806 -7 806 -7Z" fill="#fd774d" stroke="none" transform="scale(1,-1) translate(0,-256)" /></svg>