<?xml version="1.0" encoding="utf-8" ?>
<svg baseProfile="full" height="256" version="1.1" width="256" xmlns="http://www.w3.org/2000/svg" xmlns:ev="http://www.w3.org/2001/xml-events" xmlns:xlink="http://www.w3.org/1999/xlink"><defs /><path d="M322 886 326 867Q326 867 337.0 874.5Q348 882 370.0 888.5Q392 895 424 892Q482 887 517.5 848.0Q553 809 564 757Q572 718 567.5 685.5Q563 653 555.5 620.0Q548 587 547 546Q546 513 553.0 494.0Q560 475 567 463Q575 451 582.5 443.5Q590 436 589 435Q585 433 573.0 427.5Q561 422 551 413Q547 409 543.5 404.0Q540 399 542 397Q544 396 553.5 401.5Q563 407 577 413Q609 426 633.0 429.0Q657 432 692 431Q704 431 720.5 427.0Q737 423 750.0 420.0Q763 417 763 417Q764 419 752.5 425.0Q741 431 725.0 438.0Q709 445 696 446Q661 451 641.5 448.0Q622 445 622 445Q622 445 609.5 454.0Q597 463 584.5 484.0Q572 505 571 542Q570 582 575.5 610.5Q581 639 586.0 664.5Q591 690 590 722Q586 784 561.5 826.5Q537 869 498 889Q458 908 425.5 910.5Q393 913 370.0 907.0Q347 901 334.5 893.5Q322 886 322 886Z" fill="#b4b5b7" stroke="none" transform="scale(1,-1) translate(0,-256)" /><path d="M853 371Q853 371 869.5 364.5Q886 358 908.5 349.5Q931 341 951.0 335.0Q971 329 978 329Q1010 331 1038.5 336.0Q1067 341 1073 342Q1082 344 1093.0 343.0Q1104 342 1098 323Q1096 314 1082.0 290.5Q1068 267 1052.0 240.5Q1036 214 1024.0 195.0Q1012 176 1012 176Q1012 176 1001.5 151.5Q991 127 972.0 94.5Q953 62 926 38Q883 1 845.5 -10.5Q808 -22 787 -24Q774 -26 756.0 -25.5Q738 -25 724.5 -24.0Q711 -23 711 -23Q711 -23 705.0 -31.5Q699 -40 689.5 -50.0Q680 -60 668 -64Q651 -70 623.0 -66.5Q595 -63 568 -38Q558 -29 549.5 -13.5Q541 2 534.0 15.5Q527 29 524 34Q520 39 510.5 46.5Q501 54 482.5 73.5Q464 93 433 132Q387 191 364.0 243.5Q341 296 341 348Q340 389 358.0 427.5Q376 466 406 525Q440 591 448.0 627.0Q456 663 444 688Q436 709 412.0 713.0Q388 717 365 723Q352 726 334.0 731.5Q316 737 316 737L324 763Q324 763 337.0 754.0Q350 745 368 741Q380 737 399.0 734.5Q418 732 436.5 723.0Q455 714 464 694Q477 665 470.5 632.5Q464 600 449.0 567.0Q434 534 420 506Q399 467 381.0 429.5Q363 392 363 351Q363 309 381.5 267.0Q400 225 428 183Q469 125 509.0 89.5Q549 54 570 41Q584 32 609.0 27.5Q634 23 658.0 24.0Q682 25 692 33Q708 46 702.5 56.0Q697 66 688 70Q679 74 659.5 83.5Q640 93 607 113Q572 134 543.5 157.0Q515 180 496 209Q483 231 477.0 257.5Q471 284 475 313Q479 347 495.5 363.0Q512 379 518 381Q528 384 521 371Q519 367 511.0 349.0Q503 331 503 308Q503 295 506.5 268.5Q510 242 531 214Q554 184 586.5 165.0Q619 146 653 134Q686 123 725.0 119.0Q764 115 800 117Q827 119 855.5 128.5Q884 138 904 147Q925 156 943.0 170.0Q961 184 964 188Q967 192 964.5 195.0Q962 198 958 198Q955 199 944.0 202.5Q933 206 933 207Q934 209 953.0 217.0Q972 225 993 244Q1010 259 1020.5 276.0Q1031 293 1032 296Q1035 305 1026 307Q1022 308 1004.5 308.5Q987 309 973 309Q961 309 942.0 317.5Q923 326 905.0 335.5Q887 345 878 351Q851 368 853 371Z" fill="#b4b5b7" stroke="none" transform="scale(1,-1) translate(0,-256)" /></svg>