<?xml version="1.0" encoding="utf-8" ?>
<svg baseProfile="full" height="256" version="1.1" width="256" xmlns="http://www.w3.org/2000/svg" xmlns:ev="http://www.w3.org/2001/xml-events" xmlns:xlink="http://www.w3.org/1999/xlink"><defs /><path d="M623 -32Q623 -32 642.0 -41.5Q661 -51 693.0 -64.0Q725 -77 767.5 -88.0Q810 -99 857.5 -102.5Q905 -106 954 -96Q1011 -84 1052.5 -62.0Q1094 -40 1121.0 -16.5Q1148 7 1162.0 26.0Q1176 45 1179 53Q1184 67 1184.5 87.5Q1185 108 1173.5 136.0Q1162 164 1130 201Q1104 232 1075.5 246.5Q1047 261 1022.5 263.5Q998 266 986 258Q968 248 956.5 230.0Q945 212 932 195Q912 167 883 148Q872 140 853.0 132.0Q834 124 814.5 120.0Q795 116 781 121Q781 121 793.0 133.0Q805 145 823.5 164.0Q842 183 862.0 204.5Q882 226 898.0 245.0Q914 264 921 276Q933 297 949.5 323.0Q966 349 981.0 369.5Q996 390 1006 393Q1033 401 1063.5 411.5Q1094 422 1116.0 434.5Q1138 447 1139 460Q1141 473 1141.0 496.5Q1141 520 1139.0 542.5Q1137 565 1132 575Q1126 587 1110.5 596.5Q1095 606 1081.5 611.5Q1068 617 1068 617Q1068 617 1068.5 637.0Q1069 657 1069.5 685.5Q1070 714 1070.0 740.0Q1070 766 1068 778Q1063 807 1054.0 829.0Q1045 851 1021.5 866.5Q998 882 953.0 892.0Q908 902 832 908Q727 917 660.0 908.0Q593 899 555.5 879.0Q518 859 501.5 833.0Q485 807 482.5 781.0Q480 755 482 734Q485 702 488.5 663.5Q492 625 493.0 587.0Q494 549 488 518Q478 469 463.0 433.0Q448 397 436.5 377.5Q425 358 425 358Q425 358 414.5 365.0Q404 372 391.0 384.5Q378 397 367.5 414.0Q357 431 357 452Q357 486 368.5 525.5Q380 565 394.0 602.0Q408 639 416 666Q430 710 394.0 736.5Q358 763 286 779Q250 786 217.0 787.0Q184 788 160.5 782.0Q137 776 130 765Q103 721 92.0 668.0Q81 615 82.0 561.5Q83 508 93.0 462.5Q103 417 118 389Q150 331 192.5 289.0Q235 247 277 212Q281 209 280.5 207.5Q280 206 280 206Q272 196 253.0 180.0Q234 164 211.5 147.0Q189 130 170.5 116.0Q152 102 145 96Q137 88 151.5 64.0Q166 40 193.5 6.5Q221 -27 254.0 -62.0Q287 -97 318.5 -127.0Q350 -157 371.0 -174.5Q392 -192 395 -191Q416 -179 445.5 -159.5Q475 -140 506.0 -118.0Q537 -96 563.5 -76.5Q590 -57 606.5 -44.5Q623 -32 623 -32Z" fill="#e5b27f" stroke="none" transform="scale(1,-1) translate(0,-256)" /><path d="M1122 94Q1094 102 1066.0 128.0Q1038 154 1026 179Q1017 198 1014.5 216.5Q1012 235 1022.5 242.5Q1033 250 1061 238Q1097 222 1121.0 191.5Q1145 161 1154 133Q1161 113 1155.5 99.5Q1150 86 1122 94Z" fill="#e5b27f" stroke="none" transform="scale(1,-1) translate(0,-256)" /></svg>