<?xml version="1.0" encoding="utf-8" ?>
<svg baseProfile="full" height="256" version="1.1" width="256" xmlns="http://www.w3.org/2000/svg" xmlns:ev="http://www.w3.org/2001/xml-events" xmlns:xlink="http://www.w3.org/1999/xlink"><defs /><path d="M493 542Q491 540 492 545Q492 552 492.5 561.0Q493 570 493 577Q493 580 494.5 582.0Q496 584 496 584Q499 589 520.5 610.0Q542 631 581 651Q630 675 682.0 681.0Q734 687 787.5 690.5Q841 694 892 709Q941 724 961.5 739.0Q982 754 986.0 768.0Q990 782 990 793Q990 816 978.0 830.5Q966 845 950.0 853.0Q934 861 923 864Q911 868 883.0 873.0Q855 878 823.0 883.0Q791 888 764.5 892.0Q738 896 729 898Q712 902 715.0 907.0Q718 912 723 912Q739 913 785.0 911.5Q831 910 883 905Q930 900 970.5 892.5Q1011 885 1022 879Q1054 863 1064.5 835.5Q1075 808 1076 770Q1077 758 1076.0 734.5Q1075 711 1074.0 685.0Q1073 659 1072.5 639.5Q1072 620 1073 615Q1057 617 1041.0 616.0Q1025 615 1010 608Q1006 607 1000.5 611.0Q995 615 1005 625Q1014 635 1020.0 646.5Q1026 658 1025 682Q1024 695 1014.0 692.0Q1004 689 987.5 679.0Q971 669 950 661Q881 636 827.5 636.5Q774 637 736 636Q648 634 586 605Q565 594 543.5 579.5Q522 565 507.5 553.5Q493 542 493 542Z" fill="#bc8346" stroke="none" transform="scale(1,-1) translate(0,-256)" /><path d="M1147 198Q1216 108 1183 49Q1169 24 1141.0 -6.5Q1113 -37 1078 -57Q1019 -90 964.0 -102.0Q909 -114 851 -111Q816 -109 774.5 -99.0Q733 -89 696.5 -77.0Q660 -65 639 -57Q625 -52 617.0 -58.0Q609 -64 595 -71Q572 -84 542.0 -103.5Q512 -123 482.0 -144.0Q452 -165 425.5 -181.5Q399 -198 382 -204Q332 -221 278.0 -205.0Q224 -189 175 -140Q138 -103 120.0 -60.5Q102 -18 105.0 20.5Q108 59 133 84Q163 115 202.5 120.5Q242 126 282.5 110.5Q323 95 354 65Q400 21 418.0 -17.0Q436 -55 440 -76Q442 -84 448.5 -87.0Q455 -90 461 -85Q471 -79 482.0 -72.0Q493 -65 500 -59Q519 -45 536.5 -32.0Q554 -19 549 0Q543 24 533.0 52.0Q523 80 523 109Q521 137 524.0 166.0Q527 195 517 221Q505 253 477.5 265.5Q450 278 422 276Q399 275 377.5 268.0Q356 261 339 250Q320 238 301.5 223.5Q283 209 283 209Q279 206 280 215Q280 219 296.5 252.5Q313 286 362 328Q381 344 375 352Q366 365 361.0 373.0Q356 381 349 392Q343 401 337.0 402.5Q331 404 328 404Q277 395 246.0 367.0Q215 339 188 308Q184 302 180.5 305.0Q177 308 170 316Q163 323 162.0 326.5Q161 330 164 334Q181 364 207.0 388.5Q233 413 267 427Q297 439 309.5 444.0Q322 449 321 457Q320 464 311.5 463.0Q303 462 295 461Q241 454 185.5 463.0Q130 472 85 506Q85 506 84.0 515.0Q83 524 83 530Q82 537 82.0 543.5Q82 550 82 550Q122 519 175.5 506.5Q229 494 291 503Q309 505 314.5 509.0Q320 513 323 521Q333 547 341.5 576.5Q350 606 352 614Q355 627 344 627Q315 629 282.5 635.5Q250 642 216 655Q195 663 172.0 678.5Q149 694 134.0 713.0Q119 732 122 751Q126 771 147.0 779.0Q168 787 195.5 787.5Q223 788 247 785Q255 784 254.0 780.5Q253 777 240 776Q218 774 199.0 771.0Q180 768 174 762Q163 752 168.0 742.0Q173 732 183 722Q195 710 218.5 700.5Q242 691 270.0 686.0Q298 681 321 682Q359 683 368.5 694.0Q378 705 376 716Q374 729 359.5 738.5Q345 748 330 756Q318 763 329.5 764.0Q341 765 360 757Q373 752 390.0 739.5Q407 727 416.5 708.0Q426 689 419 663Q415 650 405.5 623.0Q396 596 384.5 562.5Q373 529 365 495Q363 485 361.0 469.0Q359 453 361 443Q366 419 381.5 400.5Q397 382 411.0 371.0Q425 360 425 360Q425 360 432.5 377.5Q440 395 458.5 418.0Q477 441 510 457Q531 467 563.0 473.0Q595 479 640.5 472.0Q686 465 747 437Q770 427 800.5 415.5Q831 404 862.0 399.0Q893 394 920 402Q942 409 944.0 420.5Q946 432 945 436Q937 469 940.0 504.0Q943 539 967 563Q979 575 988.0 569.0Q997 563 992 545Q988 533 987.0 513.5Q986 494 991.0 476.0Q996 458 1010 450Q1024 441 1044.0 443.5Q1064 446 1080 451Q1090 454 1100.5 460.0Q1111 466 1106 479Q1092 516 1096.5 548.0Q1101 580 1114 587Q1124 591 1137.0 570.0Q1150 549 1154 519Q1158 490 1152.0 469.0Q1146 448 1135 440Q1114 423 1088.0 414.5Q1062 406 1039.0 400.0Q1016 394 1004 383Q991 373 974.5 348.0Q958 323 944 301Q912 249 871.0 205.0Q830 161 782 121Q782 121 769.5 124.0Q757 127 738.0 127.0Q719 127 698 116Q675 104 656.5 79.5Q638 55 630.0 30.5Q622 6 632 -6Q644 -21 663.5 -29.5Q683 -38 697 -40Q711 -43 714.0 -36.0Q717 -29 717 -29Q721 -7 727.0 16.5Q733 40 745 65Q750 76 760.0 89.5Q770 103 782 111Q790 117 798.5 117.5Q807 118 807 118Q807 118 795.5 99.0Q784 80 772.0 46.5Q760 13 756 -28Q756 -36 757.5 -44.0Q759 -52 772 -56Q787 -61 823.5 -66.0Q860 -71 898 -63Q912 -60 914.0 -56.0Q916 -52 913 -45Q892 -6 878.0 42.0Q864 90 865 121Q865 124 866.5 131.0Q868 138 872 140Q875 143 879.0 145.5Q883 148 886 150Q894 155 894 148Q894 97 916.0 49.5Q938 2 965 -30Q969 -36 978.5 -40.0Q988 -44 998 -41Q1036 -30 1060.0 -13.5Q1084 3 1090 13Q1099 28 1090.5 37.0Q1082 46 1078 50Q1060 64 1039.0 86.0Q1018 108 1001.5 130.5Q985 153 979 170Q971 191 967.5 214.5Q964 238 981 255Q995 268 1014 269Q1046 270 1072.0 259.0Q1098 248 1116.5 231.0Q1135 214 1147 198ZM607 116Q610 117 625.0 127.5Q640 138 648 145Q672 163 701.0 167.5Q730 172 761 178Q776 180 792.0 194.0Q808 208 823.0 226.0Q838 244 850 259Q861 271 870.5 285.5Q880 300 880.5 312.0Q881 324 863 328Q835 334 798.5 352.0Q762 370 718.5 391.5Q675 413 627 428Q586 441 542.5 426.0Q499 411 469 388Q453 375 441.5 360.0Q430 345 426.5 332.5Q423 320 432 316Q446 311 477.0 308.0Q508 305 541 286Q564 272 580.5 245.5Q597 219 596 180Q596 176 595.0 165.0Q594 154 594.0 141.0Q594 128 596.5 120.5Q599 113 607 116Z" fill="#bc8346" stroke="none" transform="scale(1,-1) translate(0,-256)" /></svg>