<?xml version="1.0" encoding="utf-8" ?>
<svg baseProfile="full" height="256" version="1.1" width="256" xmlns="http://www.w3.org/2000/svg" xmlns:ev="http://www.w3.org/2001/xml-events" xmlns:xlink="http://www.w3.org/1999/xlink"><defs /><path d="M948 548Q951 534 948.5 499.5Q946 465 940.0 420.0Q934 375 927.0 327.5Q920 280 913.0 239.5Q906 199 901.5 174.0Q897 149 897 149Q928 137 968.5 130.5Q1009 124 1044.0 122.0Q1079 120 1095 121Q1097 121 1115.5 121.5Q1134 122 1151.5 123.5Q1169 125 1169 128Q1169 128 1173.0 150.0Q1177 172 1182.5 206.5Q1188 241 1192.5 282.0Q1197 323 1199.0 362.0Q1201 401 1198 430Q1193 480 1161.5 523.0Q1130 566 1097 601Q1063 637 1025.5 662.0Q988 687 955.0 702.0Q922 717 902.0 723.5Q882 730 882 730Q882 730 888.5 713.0Q895 696 904.5 670.5Q914 645 923.5 618.5Q933 592 940.0 572.0Q947 552 948 548Z" fill="#1e88e5" stroke="none" transform="scale(1,-1) translate(0,-256)" /></svg>