<?xml version="1.0" encoding="utf-8" ?>
<svg baseProfile="full" height="256" version="1.1" width="256" xmlns="http://www.w3.org/2000/svg" xmlns:ev="http://www.w3.org/2001/xml-events" xmlns:xlink="http://www.w3.org/1999/xlink"><defs /><path d="M733 31Q732 53 706.5 69.5Q681 86 645 86Q609 86 583.5 69.5Q558 53 557 31Q557 13 562.5 -2.5Q568 -18 586.5 -28.5Q605 -39 643 -39Q701 -40 717.5 -19.5Q734 1 733 31Z" fill="#2a2a2a" stroke="none" transform="scale(1,-1) translate(0,-256)" /><path d="M644 -86Q639 -86 630.5 -92.0Q622 -98 609.0 -103.5Q596 -109 577 -106Q547 -102 533.5 -89.0Q520 -76 519.0 -64.5Q518 -53 525 -54Q532 -55 538.5 -61.5Q545 -68 554.5 -74.0Q564 -80 580 -79Q593 -78 612.5 -68.0Q632 -58 632 -45Q632 -38 630.0 -27.0Q628 -16 628 -16L661 -17Q661 -17 660.5 -22.0Q660 -27 662 -45Q664 -62 677.5 -70.0Q691 -78 708 -78Q719 -78 732.0 -71.0Q745 -64 755.5 -59.5Q766 -55 770 -62Q774 -69 764.5 -79.5Q755 -90 738.0 -98.0Q721 -106 702 -106Q682 -106 665.5 -96.0Q649 -86 644 -86Z" fill="#2a2a2a" stroke="none" transform="scale(1,-1) translate(0,-256)" /></svg>