<?xml version="1.0" encoding="utf-8" ?>
<svg baseProfile="full" height="256" version="1.1" width="256" xmlns="http://www.w3.org/2000/svg" xmlns:ev="http://www.w3.org/2001/xml-events" xmlns:xlink="http://www.w3.org/1999/xlink"><defs /><path d="M250 516Q245 529 226.0 560.5Q207 592 185.5 631.5Q164 671 153 709Q145 736 138.5 770.0Q132 804 133.5 833.5Q135 863 152 879Q170 896 206.5 896.0Q243 896 282.5 885.5Q322 875 350 861Q368 852 393.5 840.0Q419 828 443.5 816.5Q468 805 485.0 797.5Q502 790 502 790Q502 790 524.0 797.0Q546 804 579.5 810.5Q613 817 648 817Q682 817 717.0 810.5Q752 804 775.5 797.0Q799 790 799 790Q799 790 823.0 805.0Q847 820 882.0 838.5Q917 857 950 870Q990 885 1029.0 892.5Q1068 900 1097.5 898.5Q1127 897 1139 884Q1150 871 1152.0 844.0Q1154 817 1150.0 785.0Q1146 753 1139 722Q1133 699 1116.0 666.5Q1099 634 1079.5 600.5Q1060 567 1046.0 540.5Q1032 514 1032 503Q1032 481 1043.0 456.5Q1054 432 1087 385Q1104 361 1127.5 334.0Q1151 307 1171.5 281.5Q1192 256 1201.5 235.0Q1211 214 1201 202Q1185 185 1171.0 186.5Q1157 188 1145.5 196.5Q1134 205 1124.5 211.5Q1115 218 1109 212Q1101 203 1106.5 191.0Q1112 179 1122.0 165.5Q1132 152 1136.5 139.0Q1141 126 1131 116Q1118 103 1105.5 106.0Q1093 109 1081.0 117.0Q1069 125 1058.5 130.5Q1048 136 1041 130Q1034 124 1038.0 114.0Q1042 104 1049.0 92.5Q1056 81 1058.5 70.0Q1061 59 1050 50Q1035 36 1021.0 39.0Q1007 42 993.5 52.0Q980 62 966 69Q944 81 918.5 74.5Q893 68 885 41Q880 25 871.0 -5.0Q862 -35 845.5 -69.5Q829 -104 803.0 -135.5Q777 -167 738.5 -187.0Q700 -207 647 -206Q585 -204 543.0 -182.5Q501 -161 474.0 -128.0Q447 -95 432.0 -60.5Q417 -26 409.5 2.0Q402 30 398 41Q387 69 369.0 74.5Q351 80 326 71Q302 63 279.5 49.0Q257 35 236.5 26.5Q216 18 197 27Q183 33 184.5 45.5Q186 58 193.0 73.0Q200 88 204.5 101.5Q209 115 201 123Q196 129 186.0 125.0Q176 121 163.5 115.0Q151 109 138.5 108.0Q126 107 116 118Q106 129 114.0 144.0Q122 159 136.5 174.5Q151 190 161.5 202.0Q172 214 167 220Q163 226 152.5 221.5Q142 217 129.5 210.0Q117 203 105.0 201.0Q93 199 84 210Q75 223 81.5 242.0Q88 261 104.5 282.5Q121 304 141.5 325.0Q162 346 179 363Q203 386 221.0 415.5Q239 445 247.0 472.0Q255 499 250 516Z" fill="#b0b0b0" stroke="none" transform="scale(1,-1) translate(0,-256)" /></svg>