<?xml version="1.0" encoding="utf-8" ?>
<svg baseProfile="full" height="256" version="1.1" width="256" xmlns="http://www.w3.org/2000/svg" xmlns:ev="http://www.w3.org/2001/xml-events" xmlns:xlink="http://www.w3.org/1999/xlink"><defs /><path d="M354 245Q360 247 374.0 241.5Q388 236 417.0 227.5Q446 219 497 212Q526 208 571.0 205.5Q616 203 665.5 203.5Q715 204 756 209Q798 213 835.5 222.5Q873 232 898.0 240.5Q923 249 927 250Q937 253 940.0 239.5Q943 226 943 207Q943 193 942.0 179.0Q941 165 936 158Q933 155 900.5 144.5Q868 134 804.5 124.0Q741 114 644 113Q547 112 483.5 123.0Q420 134 388.0 146.5Q356 159 353 163Q345 173 346 201Q347 215 345.5 228.0Q344 241 354 245Z" fill="#434343" stroke="none" transform="scale(1,-1) translate(0,-256)" /><path d="M677 204Q677 204 695.5 180.0Q714 156 740.5 115.0Q767 74 791 23Q810 -16 827.0 -55.5Q844 -95 857.0 -129.0Q870 -163 876.5 -185.0Q883 -207 881 -211Q878 -217 860.5 -223.0Q843 -229 825 -232Q805 -235 787.0 -233.5Q769 -232 763 -228Q761 -226 757.0 -205.5Q753 -185 747.5 -152.5Q742 -120 733.0 -82.0Q724 -44 710 -7Q697 29 685.5 52.0Q674 75 665 88Q664 90 657.5 87.0Q651 84 648 84Q640 86 635.0 88.5Q630 91 627 88Q616 71 600.0 38.5Q584 6 569 -49Q563 -70 555.5 -99.0Q548 -128 541.0 -156.0Q534 -184 527.0 -204.5Q520 -225 514 -228Q509 -232 493.0 -231.5Q477 -231 458.0 -227.5Q439 -224 424.5 -219.0Q410 -214 407 -209Q402 -198 413.5 -178.0Q425 -158 439 -127Q454 -97 471.0 -49.5Q488 -2 507 44Q519 74 538.0 102.5Q557 131 575.5 154.0Q594 177 606.5 190.5Q619 204 619 204Q619 204 627.0 211.5Q635 219 647 219Q661 219 669.0 211.5Q677 204 677 204Z" fill="#434343" stroke="none" transform="scale(1,-1) translate(0,-256)" /></svg>