<?xml version="1.0" encoding="utf-8" ?>
<svg baseProfile="full" height="256" version="1.1" width="256" xmlns="http://www.w3.org/2000/svg" xmlns:ev="http://www.w3.org/2001/xml-events" xmlns:xlink="http://www.w3.org/1999/xlink"><defs /><path d="M635 922Q649 923 671.0 895.5Q693 868 729 834Q750 813 778.5 785.5Q807 758 828.0 723.5Q849 689 848 647Q848 626 834.0 598.5Q820 571 794.0 545.0Q768 519 730.5 502.0Q693 485 645 485Q582 485 536.0 509.0Q490 533 463.5 569.5Q437 606 432 643Q428 679 442.0 710.5Q456 742 479.0 768.0Q502 794 524 815Q546 836 568.5 861.0Q591 886 609.0 904.0Q627 922 635 922Z" fill="#000000" stroke="none" transform="scale(1,-1) translate(0,-256)" /><path d="M766 346Q768 418 797.0 463.5Q826 509 867.5 529.0Q909 549 949 545Q1006 539 1045.0 508.5Q1084 478 1120 445Q1154 412 1178.5 386.5Q1203 361 1202 357Q1202 352 1185.5 330.5Q1169 309 1141.0 279.5Q1113 250 1077.5 219.5Q1042 189 1002 167Q963 145 921.0 148.0Q879 151 843.0 175.5Q807 200 785.5 243.5Q764 287 766 346Z" fill="#000000" stroke="none" transform="scale(1,-1) translate(0,-256)" /><path d="M70 346Q72 354 88.0 373.5Q104 393 128.0 418.5Q152 444 178 469Q214 504 249.0 531.0Q284 558 325 564Q347 567 375.5 559.5Q404 552 430.5 529.0Q457 506 475.0 464.0Q493 422 494 356Q494 298 479.0 258.5Q464 219 440.0 194.5Q416 170 390.5 159.0Q365 148 344 147Q302 146 263.0 173.0Q224 200 185 233Q135 277 101.5 307.0Q68 337 70 346Z" fill="#000000" stroke="none" transform="scale(1,-1) translate(0,-256)" /><path d="M636 214Q690 213 728.0 195.5Q766 178 789.5 150.0Q813 122 823.5 89.0Q834 56 834 26Q834 1 813.5 -31.5Q793 -64 767 -97Q742 -129 716.0 -156.5Q690 -184 671.5 -201.0Q653 -218 648 -217Q644 -217 625.0 -202.5Q606 -188 580.0 -165.5Q554 -143 527 -116Q496 -85 469.5 -52.0Q443 -19 439 20Q432 81 460.5 124.5Q489 168 537.0 191.0Q585 214 636 214Z" fill="#000000" stroke="none" transform="scale(1,-1) translate(0,-256)" /></svg>