<?xml version="1.0" encoding="utf-8" ?>
<svg baseProfile="full" height="256" version="1.1" width="256" xmlns="http://www.w3.org/2000/svg" xmlns:ev="http://www.w3.org/2001/xml-events" xmlns:xlink="http://www.w3.org/1999/xlink"><defs /><path d="M754 -48Q741 -57 736.0 -83.0Q731 -109 730.5 -141.5Q730 -174 731 -203H375Q377 -184 378.5 -158.0Q380 -132 380 -101Q380 -67 375 -47Q369 -21 347.0 8.0Q325 37 295.0 69.5Q265 102 232.0 140.5Q199 179 170 225Q129 288 106.5 369.0Q84 450 100 553Q103 570 109.0 599.0Q115 628 128.0 663.5Q141 699 163.5 735.0Q186 771 220 803Q249 829 291.0 855.0Q333 881 377 892Q470 915 566.5 907.0Q663 899 745 850Q805 813 839.5 762.5Q874 712 888.5 661.5Q903 611 903 572Q903 563 901.5 543.5Q900 524 900.0 504.5Q900 485 905 474Q914 458 929.5 444.5Q945 431 961.0 419.0Q977 407 987.0 394.0Q997 381 995 365Q993 346 980.0 335.0Q967 324 960 317Q956 313 954.0 307.5Q952 302 955 291Q958 280 963.0 273.0Q968 266 967 256Q965 241 955.5 234.5Q946 228 928 222Q903 213 879.5 208.0Q856 203 850 196Q845 187 855.5 181.0Q866 175 883 176Q920 177 931.5 178.5Q943 180 952 177Q963 172 962.5 161.5Q962 151 957.5 140.0Q953 129 951 126Q944 115 946.0 99.5Q948 84 950 67Q952 50 948.5 31.5Q945 13 927 -6Q917 -17 898.0 -20.5Q879 -24 866 -25Q852 -27 829.5 -29.0Q807 -31 785.5 -35.5Q764 -40 754 -48Z" fill="#1976d2" stroke="none" transform="scale(1,-1) translate(0,-256)" /></svg>