<?xml version="1.0" encoding="utf-8" ?>
<svg baseProfile="full" height="256" version="1.1" width="256" xmlns="http://www.w3.org/2000/svg" xmlns:ev="http://www.w3.org/2001/xml-events" xmlns:xlink="http://www.w3.org/1999/xlink"><defs /><path d="M783 699Q804 712 838.5 719.0Q873 726 909.0 729.0Q945 732 969.5 732.5Q994 733 994 733L904 809Q904 809 883.0 810.0Q862 811 829.5 806.0Q797 801 763 784Q738 772 726.5 761.0Q715 750 710.5 740.0Q706 730 702.0 719.5Q698 709 686 697Q670 681 656.0 668.5Q642 656 620.0 648.0Q598 640 560 639Q505 636 475.5 644.0Q446 652 435.0 661.0Q424 670 424 670Q424 670 423.5 661.0Q423 652 429.5 637.0Q436 622 456.5 604.0Q477 586 518 568Q569 547 609.0 557.5Q649 568 683 598Q709 619 720.0 636.0Q731 653 743.0 667.5Q755 682 783 699Z" fill="#039be5" stroke="none" transform="scale(1,-1) translate(0,-256)" /></svg>