<?xml version="1.0" encoding="utf-8" ?>
<svg baseProfile="full" height="256" version="1.1" width="256" xmlns="http://www.w3.org/2000/svg" xmlns:ev="http://www.w3.org/2001/xml-events" xmlns:xlink="http://www.w3.org/1999/xlink"><defs /><path d="M970 588Q994 578 1003.0 556.5Q1012 535 1007 515V513Q1007 513 1007.0 512.5Q1007 512 1007 512Q1002 501 995.5 497.5Q989 494 982 494Q977 494 971.5 495.0Q966 496 960 498Q958 499 955.0 499.5Q952 500 949 501Q945 501 929.5 501.0Q914 501 906 505Q898 509 889.0 521.0Q880 533 884 554L885 556Q885 556 885 557Q894 576 908.0 583.5Q922 591 936.0 591.5Q950 592 960.0 590.0Q970 588 970 588Z" fill="#26a69a" stroke="none" transform="scale(1,-1) translate(0,-256)" /><path d="M354 366Q356 365 356 363Q357 351 356.5 331.5Q356 312 345.0 295.0Q334 278 303 274Q298 274 293 274Q262 274 245 293Q230 310 236 335Q240 352 252.5 357.5Q265 363 274 363Q279 365 293.0 371.5Q307 378 322.0 380.5Q337 383 347 374Z" fill="#26a69a" stroke="none" transform="scale(1,-1) translate(0,-256)" /></svg>