<?xml version="1.0" encoding="utf-8" ?>
<svg baseProfile="full" height="256" version="1.1" width="256" xmlns="http://www.w3.org/2000/svg" xmlns:ev="http://www.w3.org/2001/xml-events" xmlns:xlink="http://www.w3.org/1999/xlink"><defs /><path d="M468 642Q474 632 485 631Q500 630 523.5 629.5Q547 629 554 631Q564 635 567.5 640.5Q571 646 573 649Q575 654 576.5 673.0Q578 692 577.5 713.0Q577 734 572 742Q563 759 551.0 762.0Q539 765 528 765L414 768Q406 768 405.0 764.0Q404 760 404 757Q405 753 407.5 752.0Q410 751 410 751Q411 751 414.0 739.5Q417 728 417 727Q420 718 423 708Q424 704 426.0 699.0Q428 694 426 690Q425 686 423.0 682.0Q421 678 419 674Q417 670 416 667Q412 657 418 649Q421 643 425.5 638.5Q430 634 432 635Q435 637 439.0 646.5Q443 656 444 660L457 659Q460 654 463.0 649.5Q466 645 468 642Z" fill="#e3f2fd" stroke="none" transform="scale(1,-1) translate(0,-256)" /></svg>