<?xml version="1.0" encoding="utf-8" ?>
<svg baseProfile="full" height="256" version="1.1" width="256" xmlns="http://www.w3.org/2000/svg" xmlns:ev="http://www.w3.org/2001/xml-events" xmlns:xlink="http://www.w3.org/1999/xlink"><defs /><path d="M694 323Q694 323 712.5 304.5Q731 286 761.0 257.5Q791 229 825.0 196.5Q859 164 891.0 135.0Q923 106 945.5 87.0Q968 68 974 67Q983 65 997.5 61.5Q1012 58 1026.0 55.0Q1040 52 1047.5 53.0Q1055 54 1048 62Q1043 69 1019.5 91.0Q996 113 962.0 142.5Q928 172 892.0 202.5Q856 233 826.0 258.5Q796 284 781 296Q755 317 735.5 322.0Q716 327 705.0 325.0Q694 323 694 323Z" fill="#b9e4ea" stroke="none" transform="scale(1,-1) translate(0,-256)" /><path d="M444 838Q411 861 377.5 870.0Q344 879 308 890Q354 900 399.0 889.0Q444 878 482.5 851.5Q521 825 547 790Q551 784 553.5 776.0Q556 768 550 763Q544 759 537.5 762.0Q531 765 525 769Q505 787 485.0 804.5Q465 822 444 838Z" fill="#b9e4ea" stroke="none" transform="scale(1,-1) translate(0,-256)" /></svg>