<?xml version="1.0" encoding="utf-8" ?>
<svg baseProfile="full" height="256" version="1.1" width="256" xmlns="http://www.w3.org/2000/svg" xmlns:ev="http://www.w3.org/2001/xml-events" xmlns:xlink="http://www.w3.org/1999/xlink"><defs /><path d="M814 657Q814 657 820.0 660.0Q826 663 835.0 663.0Q844 663 852 653Q859 644 856.0 633.0Q853 622 847.5 614.0Q842 606 842 606Q842 606 853.0 606.5Q864 607 876.5 602.5Q889 598 891 584Q894 563 881.0 550.0Q868 537 855 533Q842 530 825.0 531.5Q808 533 799 545Q793 554 797.0 563.5Q801 573 807.5 579.5Q814 586 814 586Q814 586 804.5 584.0Q795 582 788 590Q780 599 785.0 610.5Q790 622 790 622Q790 622 780.5 617.0Q771 612 760 619Q749 627 747.5 635.5Q746 644 746 644Q746 644 739.5 635.5Q733 627 717 630Q705 632 700.0 642.5Q695 653 695 677Q697 726 726 726Q739 726 745.0 719.5Q751 713 753.0 706.5Q755 700 755 700Q755 700 762.5 707.0Q770 714 782.0 718.0Q794 722 809 712Q823 703 823.0 690.0Q823 677 818.5 667.0Q814 657 814 657Z" fill="#bdce46" stroke="none" transform="scale(1,-1) translate(0,-256)" /><path d="M827 426Q831 440 843.0 440.5Q855 441 868.5 434.5Q882 428 891.5 417.5Q901 407 902 399Q903 384 896.0 382.5Q889 381 889 381Q889 381 899.5 372.5Q910 364 905 348Q901 337 892.0 336.0Q883 335 875.0 337.5Q867 340 867 340Q867 340 870.0 332.0Q873 324 866 318Q860 312 853.0 313.0Q846 314 846 314Q846 314 849.0 307.0Q852 300 851.5 290.0Q851 280 842 271Q830 261 816.0 265.5Q802 270 792.5 278.0Q783 286 783 286Q783 286 782.5 273.0Q782 260 777.5 247.0Q773 234 761 231Q742 228 731.5 242.5Q721 257 718 274Q715 291 717.0 309.0Q719 327 731 333Q747 342 758.5 333.5Q770 325 770 325Q770 325 768.5 340.0Q767 355 779 364Q794 374 808.0 369.0Q822 364 822 364Q822 364 819.5 371.5Q817 379 821 386Q824 393 831.5 394.5Q839 396 839 396Q839 396 831.0 406.0Q823 416 827 426Z" fill="#bdce46" stroke="none" transform="scale(1,-1) translate(0,-256)" /><path d="M478 346Q478 346 486.5 347.5Q495 349 507.5 346.5Q520 344 533 331Q547 318 547.0 295.0Q547 272 539 256Q530 238 518.5 229.5Q507 221 493 226Q483 230 481.5 238.5Q480 247 481.5 254.5Q483 262 483 262Q483 262 474.0 258.0Q465 254 453.0 254.5Q441 255 432 268Q423 281 427.0 293.0Q431 305 438.0 312.5Q445 320 445 320Q445 320 432.5 319.0Q420 318 406.0 322.0Q392 326 389 341Q385 356 392.5 363.5Q400 371 400 371Q400 371 392.5 375.0Q385 379 385 392Q384 410 396.0 414.5Q408 419 421 420Q429 421 443.0 417.5Q457 414 469.5 406.0Q482 398 485 382Q489 364 483.5 355.0Q478 346 478 346Z" fill="#bdce46" stroke="none" transform="scale(1,-1) translate(0,-256)" /><path d="M466 704Q483 717 496.5 713.0Q510 709 518.0 701.5Q526 694 526 694Q526 694 532.0 707.5Q538 721 552 720Q563 720 572.5 711.5Q582 703 583 680Q585 656 577.0 643.5Q569 631 558 629Q544 626 537.0 638.0Q530 650 530 650Q530 650 532.0 642.0Q534 634 531.5 624.0Q529 614 516 607Q502 599 487.5 604.0Q473 609 473 609Q473 609 482.5 602.5Q492 596 492 580Q492 568 484.0 564.5Q476 561 476 561Q476 561 485.5 555.0Q495 549 494 536Q493 523 480.0 519.5Q467 516 441 516Q414 517 403.5 529.5Q393 542 394 553Q395 571 407.0 575.5Q419 580 419 580Q419 580 411.5 586.0Q404 592 407 606Q411 619 422.5 618.5Q434 618 434 618Q434 618 427.5 624.0Q421 630 425 642Q429 653 441.0 653.0Q453 653 453 653Q453 653 451.5 662.0Q450 671 452.0 683.5Q454 696 466 704Z" fill="#bdce46" stroke="none" transform="scale(1,-1) translate(0,-256)" /></svg>