<?xml version="1.0" encoding="utf-8" ?>
<svg baseProfile="full" height="256" version="1.1" width="256" xmlns="http://www.w3.org/2000/svg" xmlns:ev="http://www.w3.org/2001/xml-events" xmlns:xlink="http://www.w3.org/1999/xlink"><defs /><path d="M680 433Q680 433 677.5 412.0Q675 391 672.0 365.0Q669 339 666 323Q662 300 657.0 246.0Q652 192 657 130Q662 68 687.5 19.0Q713 -30 751 -71Q778 -100 802.0 -113.0Q826 -126 840.5 -134.0Q855 -142 853 -158Q850 -183 834.0 -197.5Q818 -212 805 -212Q792 -212 783.0 -198.5Q774 -185 769 -173Q765 -164 753.5 -153.0Q742 -142 729.0 -130.5Q716 -119 708 -111Q690 -91 669.0 -64.5Q648 -38 631.0 0.5Q614 39 607 91Q596 171 602.0 230.5Q608 290 614 328Q619 366 618.0 390.0Q617 414 617 414Z" fill="#65a21b" stroke="none" transform="scale(1,-1) translate(0,-256)" /><path d="M760 897 857 696Q857 696 878.0 681.5Q899 667 931.0 646.0Q963 625 996.0 605.0Q1029 585 1054.5 574.0Q1080 563 1086 570Q1097 580 1103.0 606.5Q1109 633 1103.0 664.5Q1097 696 1073 721Q1049 745 1021.0 752.0Q993 759 971.0 759.5Q949 760 943 764Q938 768 936.5 786.5Q935 805 927.5 829.5Q920 854 897 878Q874 901 846.0 906.0Q818 911 794.0 907.0Q770 903 760 897Z" fill="#65a21b" stroke="none" transform="scale(1,-1) translate(0,-256)" /><path d="M314 765Q314 765 301.0 765.5Q288 766 268.5 762.5Q249 759 228.0 747.0Q207 735 190 711Q170 682 167.5 655.0Q165 628 171.0 607.0Q177 586 184.0 573.5Q191 561 191 561L420 674Q420 674 432.5 694.0Q445 714 461.5 744.5Q478 775 490.5 806.5Q503 838 504.5 863.0Q506 888 487 896Q451 911 415.5 903.0Q380 895 356 871Q338 852 329.0 827.5Q320 803 317.0 784.0Q314 765 314 765Z" fill="#65a21b" stroke="none" transform="scale(1,-1) translate(0,-256)" /><path d="M213 397 425 295Q425 295 432.5 271.5Q440 248 450.0 213.0Q460 178 468.5 142.0Q477 106 479.5 79.5Q482 53 474 47Q462 40 434.5 35.5Q407 31 375.5 36.0Q344 41 319 63Q299 80 290.5 101.5Q282 123 280.5 143.0Q279 163 280.0 176.0Q281 189 281 189Q281 189 266.0 191.0Q251 193 229.5 205.0Q208 217 189 248Q167 283 170.5 314.5Q174 346 188.0 368.0Q202 390 213 397Z" fill="#65a21b" stroke="none" transform="scale(1,-1) translate(0,-256)" /><path d="M903 270Q903 270 915.0 283.5Q927 297 945.5 315.0Q964 333 984.0 349.5Q1004 366 1021.0 373.0Q1038 380 1046 371Q1066 346 1068.5 309.0Q1071 272 1056 238Q1045 215 1029.0 204.5Q1013 194 999.0 189.5Q985 185 980 179Q975 174 975.5 157.5Q976 141 968.5 118.5Q961 96 932 72Q914 57 887.0 52.0Q860 47 832.0 51.0Q804 55 781.0 65.5Q758 76 748 93Q740 105 753.5 126.5Q767 148 791.0 172.5Q815 197 841.0 219.5Q867 242 885.0 256.0Q903 270 903 270Z" fill="#65a21b" stroke="none" transform="scale(1,-1) translate(0,-256)" /></svg>