<?xml version="1.0" encoding="utf-8" ?>
<svg baseProfile="full" height="256" version="1.1" width="256" xmlns="http://www.w3.org/2000/svg" xmlns:ev="http://www.w3.org/2001/xml-events" xmlns:xlink="http://www.w3.org/1999/xlink"><defs /><path d="M522 268Q522 311 500.0 346.0Q478 381 440.5 402.0Q403 423 358 423Q313 423 275.5 402.0Q238 381 216.0 346.0Q194 311 194 268Q194 226 216.0 190.5Q238 155 275.5 134.5Q313 114 358 114Q403 114 440.5 134.5Q478 155 500.0 190.5Q522 226 522 268Z" fill="#000000" stroke="none" transform="scale(1,-1) translate(0,-256)" /><path d="M1088.25 268.0Q1088.25 311.0 1066.25 346.0Q1044.25 381.0 1006.75 402.0Q969.25 423.0 924.25 423.0Q879.25 423.0 841.75 402.0Q804.25 381.0 782.25 346.0Q760.25 311.0 760.25 268.0Q760.25 226.0 782.25 190.5Q804.25 155.0 841.75 134.5Q879.25 114.0 924.25 114.0Q969.25 114.0 1006.75 134.5Q1044.25 155.0 1066.25 190.5Q1088.25 226.0 1088.25 268.0Z" fill="#000000" stroke="none" transform="scale(1,-1) translate(0,-256)" /></svg>