<?xml version="1.0" encoding="utf-8" ?>
<svg baseProfile="full" height="256" version="1.1" width="256" xmlns="http://www.w3.org/2000/svg" xmlns:ev="http://www.w3.org/2001/xml-events" xmlns:xlink="http://www.w3.org/1999/xlink"><defs /><path d="M559 221Q560 207 574.0 192.0Q588 177 607.0 167.0Q626 157 641 157Q657 157 675.5 167.5Q694 178 708.0 193.5Q722 209 721 223Q721 245 695.0 255.0Q669 265 639 264Q610 264 584.5 253.5Q559 243 559 221Z" fill="#000000" stroke="none" transform="scale(1,-1) translate(0,-256)" /><path d="M459 152Q474 162 484.5 151.5Q495 141 501 131Q512 115 529.0 110.0Q546 105 563.0 107.5Q580 110 590 117Q600 124 606.0 138.0Q612 152 615.0 163.5Q618 175 618 175L662 178Q662 178 664.0 164.5Q666 151 673.0 135.0Q680 119 696 112Q720 101 742.0 108.0Q764 115 776 131Q788 148 797.0 156.0Q806 164 817 156Q829 148 825.0 132.0Q821 116 815 108Q810 102 800.5 91.0Q791 80 772.0 71.5Q753 63 721 64Q688 64 670.0 75.5Q652 87 645.0 98.0Q638 109 638 109Q638 109 632.0 99.0Q626 89 611.5 78.0Q597 67 571 65Q538 61 515.5 69.5Q493 78 480 87Q472 94 462.5 106.0Q453 118 450.0 131.0Q447 144 459 152Z" fill="#000000" stroke="none" transform="scale(1,-1) translate(0,-256)" /></svg>