<?xml version="1.0" encoding="utf-8" ?>
<svg baseProfile="full" height="256" version="1.1" width="256" xmlns="http://www.w3.org/2000/svg" xmlns:ev="http://www.w3.org/2001/xml-events" xmlns:xlink="http://www.w3.org/1999/xlink"><defs /><path d="M938 328Q940 359 924.0 382.5Q908 406 872 408Q842 410 821.5 386.5Q801 363 801 329Q801 295 820.0 271.5Q839 248 867 248Q894 248 915.0 268.5Q936 289 938 328Z" fill="#000200" stroke="none" transform="scale(1,-1) translate(0,-256)" /><path d="M469 333Q464 365 445.0 383.5Q426 402 390 397Q359 392 346.0 364.5Q333 337 340 303Q347 269 368.5 252.0Q390 235 417 241Q445 247 459.5 270.5Q474 294 469 333Z" fill="#000200" stroke="none" transform="scale(1,-1) translate(0,-256)" /></svg>