<?xml version="1.0" encoding="utf-8" ?>
<svg baseProfile="full" height="256" version="1.1" width="256" xmlns="http://www.w3.org/2000/svg" xmlns:ev="http://www.w3.org/2001/xml-events" xmlns:xlink="http://www.w3.org/1999/xlink"><defs /><path d="M383 678Q383 678 399.5 694.0Q416 710 442.5 733.5Q469 757 502.5 780.5Q536 804 570.0 820.0Q604 836 635 836Q664 836 701.0 817.5Q738 799 774.5 771.5Q811 744 842.0 717.0Q873 690 892.0 671.5Q911 653 911 653Q911 653 912.5 645.0Q914 637 914.5 629.0Q915 621 913 621Q911 620 899.0 630.5Q887 641 872.0 655.0Q857 669 844.5 679.0Q832 689 830 689Q829 689 831.5 676.5Q834 664 837.5 648.5Q841 633 843.0 621.0Q845 609 842 609Q839 609 830.0 620.5Q821 632 810.0 647.5Q799 663 790.5 675.0Q782 687 781 687Q779 687 780.5 675.0Q782 663 784.0 647.5Q786 632 786.5 620.0Q787 608 783 608Q780 608 771.0 620.5Q762 633 752.0 649.5Q742 666 734.0 678.5Q726 691 725 691Q723 690 723.5 678.0Q724 666 725.5 650.0Q727 634 727.5 621.5Q728 609 725 609Q722 609 715.0 621.5Q708 634 701.0 649.5Q694 665 688.0 677.0Q682 689 681 688Q679 688 677.5 675.0Q676 662 674.5 645.5Q673 629 670.5 617.0Q668 605 666 605Q663 605 658.5 617.0Q654 629 648.5 645.0Q643 661 639.0 673.5Q635 686 633 686Q631 686 627.0 673.0Q623 660 618.5 643.0Q614 626 609.5 613.0Q605 600 603 600Q600 600 597.0 612.5Q594 625 591.0 641.5Q588 658 585.5 670.5Q583 683 582 683Q580 683 575.0 671.5Q570 660 564.0 644.5Q558 629 552.5 617.0Q547 605 545 606Q543 606 542.0 618.0Q541 630 540.5 646.0Q540 662 539.0 674.0Q538 686 536 687Q533 687 526.0 675.0Q519 663 510.5 647.5Q502 632 494.5 620.5Q487 609 484 610Q481 611 481.5 622.5Q482 634 484.0 648.5Q486 663 487.5 674.0Q489 685 487 685Q485 686 477.0 675.0Q469 664 459.0 649.0Q449 634 440.0 623.5Q431 613 428 614Q425 614 427.0 624.5Q429 635 433.0 648.5Q437 662 440.0 672.5Q443 683 440 684Q438 684 426.5 675.0Q415 666 400.5 653.5Q386 641 375.0 632.0Q364 623 362 624Q359 626 364.5 639.5Q370 653 376.5 665.5Q383 678 383 678Z" fill="#d2a590" stroke="none" transform="scale(1,-1) translate(0,-256)" /></svg>