<?xml version="1.0" encoding="utf-8" ?>
<svg baseProfile="full" height="256" version="1.1" width="256" xmlns="http://www.w3.org/2000/svg" xmlns:ev="http://www.w3.org/2001/xml-events" xmlns:xlink="http://www.w3.org/1999/xlink"><defs /><path d="M524 -212H751Q751 -212 751.5 -192.0Q752 -172 752.0 -140.0Q752 -108 752.0 -72.0Q752 -36 752.0 -4.0Q752 28 752.0 49.0Q752 70 752 71Q751 81 743 81Q741 81 720.5 81.0Q700 81 670.5 81.0Q641 81 611.0 81.0Q581 81 560.5 81.0Q540 81 538 81Q534 81 529.5 79.0Q525 77 526 71Q526 69 526.0 48.0Q526 27 525.5 -5.0Q525 -37 525.0 -73.0Q525 -109 524.5 -140.5Q524 -172 524.0 -192.0Q524 -212 524 -212Z" fill="#51362f" stroke="none" transform="scale(1,-1) translate(0,-256)" /></svg>