<?xml version="1.0" encoding="utf-8" ?>
<svg baseProfile="full" height="256" version="1.1" width="256" xmlns="http://www.w3.org/2000/svg" xmlns:ev="http://www.w3.org/2001/xml-events" xmlns:xlink="http://www.w3.org/1999/xlink"><defs /><path d="M349 658Q349 639 341.0 626.0Q333 613 322 613Q310 613 301.5 626.0Q293 639 293 658Q293 679 302.5 697.0Q312 715 318 723Q318 724 320 725Q323 726 324 723Q330 715 339.5 697.0Q349 679 349 658Z" fill="#fafafa" stroke="none" transform="scale(1,-1) translate(0,-256)" /><path d="M455 658Q455 639 447.0 626.0Q439 613 428 613Q416 613 407.5 626.0Q399 639 399 658Q399 679 408.5 697.0Q418 715 424 723Q424 724 426 725Q429 726 430 723Q436 715 445.5 697.0Q455 679 455 658Z" fill="#fafafa" stroke="none" transform="scale(1,-1) translate(0,-256)" /><path d="M561 658Q561 639 552.5 626.0Q544 613 533 613Q521 613 513.0 626.0Q505 639 505 658Q505 679 514.5 697.0Q524 715 530 723Q530 724 532 725Q535 726 536 723Q542 715 551.5 697.0Q561 679 561 658Z" fill="#fafafa" stroke="none" transform="scale(1,-1) translate(0,-256)" /><path d="M665.9380035400391 733.0Q665.9380035400391 714.0 657.9380035400391 701.0Q649.9380035400391 688.0 638.9380035400391 688.0Q626.9380035400391 688.0 618.4380035400391 701.0Q609.9380035400391 714.0 609.9380035400391 733.0Q609.9380035400391 754.0 619.4380035400391 772.0Q628.9380035400391 790.0 634.9380035400391 798.0Q634.9380035400391 799.0 636.9380035400391 800.0Q639.9380035400391 801.0 640.9380035400391 798.0Q646.9380035400391 790.0 656.4380035400391 772.0Q665.9380035400391 754.0 665.9380035400391 733.0Z" fill="#fafafa" stroke="none" transform="scale(1,-1) translate(0,-256)" /><path d="M770.875 658.0Q770.875 639.0 762.875 626.0Q754.875 613.0 743.875 613.0Q731.875 613.0 723.375 626.0Q714.875 639.0 714.875 658.0Q714.875 679.0 724.375 697.0Q733.875 715.0 739.875 723.0Q739.875 724.0 741.875 725.0Q744.875 726.0 745.875 723.0Q751.875 715.0 761.375 697.0Q770.875 679.0 770.875 658.0Z" fill="#fafafa" stroke="none" transform="scale(1,-1) translate(0,-256)" /><path d="M876.875 658.0Q876.875 639.0 868.875 626.0Q860.875 613.0 849.875 613.0Q837.875 613.0 829.375 626.0Q820.875 639.0 820.875 658.0Q820.875 679.0 830.375 697.0Q839.875 715.0 845.875 723.0Q845.875 724.0 847.875 725.0Q850.875 726.0 851.875 723.0Q857.875 715.0 867.375 697.0Q876.875 679.0 876.875 658.0Z" fill="#fafafa" stroke="none" transform="scale(1,-1) translate(0,-256)" /><path d="M982.875 658.0Q982.875 639.0 974.375 626.0Q965.875 613.0 954.875 613.0Q942.875 613.0 934.875 626.0Q926.875 639.0 926.875 658.0Q926.875 679.0 936.375 697.0Q945.875 715.0 951.875 723.0Q951.875 724.0 953.875 725.0Q956.875 726.0 957.875 723.0Q963.875 715.0 973.375 697.0Q982.875 679.0 982.875 658.0Z" fill="#fafafa" stroke="none" transform="scale(1,-1) translate(0,-256)" /><path d="M1087.811996459961 658.0Q1087.811996459961 639.0 1079.811996459961 626.0Q1071.811996459961 613.0 1060.811996459961 613.0Q1048.811996459961 613.0 1040.311996459961 626.0Q1031.811996459961 639.0 1031.811996459961 658.0Q1031.811996459961 679.0 1041.311996459961 697.0Q1050.811996459961 715.0 1056.811996459961 723.0Q1056.811996459961 724.0 1058.811996459961 725.0Q1061.811996459961 726.0 1062.811996459961 723.0Q1068.811996459961 715.0 1078.311996459961 697.0Q1087.811996459961 679.0 1087.811996459961 658.0Z" fill="#fafafa" stroke="none" transform="scale(1,-1) translate(0,-256)" /><path d="M674 127Q674 127 674.0 127.0Q674 127 674 127Q666 126 667 118V2Q667 -6 675 -7Q724 -10 761.5 -20.0Q799 -30 815 -44Q835 -62 863 -62Q878 -62 889.0 -73.0Q900 -84 900 -100H375Q375 -84 386.0 -73.0Q397 -62 413 -62Q440 -62 460 -44Q476 -30 513.5 -20.0Q551 -10 600 -7Q609 -7 609 2V118Q609 126 601 127Q515 134 440.5 170.5Q366 207 310.0 266.5Q254 326 221.5 402.5Q189 479 188 566Q188 575 197 575H234Q244 575 244 566Q246 491 273.5 425.0Q301 359 349.0 307.0Q397 255 461.0 223.0Q525 191 599 183Q609 181 609 195V221Q609 229 601 230Q514 239 445.0 286.0Q376 333 334.5 406.0Q293 479 291 566Q291 575 300 575H338Q346 574 347 566Q350 495 383.5 435.0Q417 375 473.0 336.0Q529 297 599 287Q609 285 609 299V325Q609 333 601 334Q543 343 497.0 375.5Q451 408 423.5 457.5Q396 507 394 566Q394 575 403 575H441Q441 575 441.0 575.0Q441 575 442 575Q451 574 450 566Q454 502 495.0 453.5Q536 405 598 391Q598 391 599 391Q609 391 609 401V430Q610 437 602 439Q558 451 529.0 485.5Q500 520 497 565Q497 565 497 566Q497 575 506 575H544Q552 575 553 567Q558 524 595 502Q598 501 600 501Q610 501 609 510V641Q610 649 619 650H656Q666 650 666 641V511Q665 509 667 506Q672 498 680 503Q717 525 721 568Q723 576 734 576H769Q769 576 769.5 576.0Q770 576 770 576Q779 575 778 566Q775 521 746.0 486.0Q717 451 673 440Q666 439 666 428V402Q666 401 666 400Q668 390 677 392Q739 405 780.5 453.5Q822 502 825 566Q827 575 838 575H872Q872 575 872.5 575.0Q873 575 873 575Q882 574 881 566Q879 507 851.5 457.5Q824 408 778.0 375.0Q732 342 674 333Q666 332 666 324V296Q666 295 666 295Q667 285 676 286Q746 296 802.5 335.5Q859 375 892.5 435.0Q926 495 928 566Q928 575 938 575H975Q975 575 975.5 575.0Q976 575 976 575Q985 574 984 566Q982 479 940.5 406.0Q899 333 830.0 286.0Q761 239 674 230Q666 229 666 221V193Q666 192 666 191Q667 182 676 183Q750 191 814.0 223.0Q878 255 926.0 307.0Q974 359 1001.5 425.0Q1029 491 1031 566Q1031 575 1041 575H1078Q1078 575 1078.5 575.0Q1079 575 1079 575Q1088 574 1088 566Q1085 479 1053.0 403.0Q1021 327 965.0 267.0Q909 207 834.5 170.5Q760 134 674 127Z" fill="#fafafa" stroke="none" transform="scale(1,-1) translate(0,-256)" /><path d="M244.06199645996094 658.0Q244.06199645996094 639.0 236.06199645996094 626.0Q228.06199645996094 613.0 217.06199645996094 613.0Q205.06199645996094 613.0 196.56199645996094 626.0Q188.06199645996094 639.0 188.06199645996094 658.0Q188.06199645996094 679.0 197.56199645996094 697.0Q207.06199645996094 715.0 213.06199645996094 723.0Q213.06199645996094 724.0 215.06199645996094 725.0Q218.06199645996094 726.0 219.06199645996094 723.0Q225.06199645996094 715.0 234.56199645996094 697.0Q244.06199645996094 679.0 244.06199645996094 658.0Z" fill="#fafafa" stroke="none" transform="scale(1,-1) translate(0,-256)" /></svg>