<?xml version="1.0" encoding="utf-8" ?>
<svg baseProfile="full" height="256" version="1.1" width="256" xmlns="http://www.w3.org/2000/svg" xmlns:ev="http://www.w3.org/2001/xml-events" xmlns:xlink="http://www.w3.org/1999/xlink"><defs /><path d="M567 387V338Q567 338 567.0 338.0Q567 338 567 338Q567 321 584 321H629Q686 321 716 294Q745 268 745 217Q745 169 717 142Q689 116 640 116Q597 114 565 142Q542 164 538 195Q536 210 521 210H450Q449 210 449.0 210.0Q449 210 448 210Q441 209 436.5 203.5Q432 198 433 191Q437 123 490 80Q547 32 639 32Q734 32 792 82Q850 133 850 217Q851 267 823 308Q803 335 773 351Q770 353 768 356Q764 362 765.0 369.0Q766 376 772 380Q797 396 813 421Q840 456 841 500Q841 585 787 633Q734 680 639 680Q585 681 536 658Q491 637 464 596Q443 564 439 527Q439 526 439 524Q439 508 456 508H527Q542 508 544 523Q548 552 571 572Q600 597 640 596Q688 596 712 571Q736 546 736 500Q736 454 707 429Q674 401 631 404H584Q584 404 584.0 404.0Q584 404 584 404Q567 404 567 387Z" fill="#fafafa" stroke="none" transform="scale(1,-1) translate(0,-256)" /></svg>