<?xml version="1.0" encoding="utf-8" ?>
<svg baseProfile="full" height="256" version="1.1" width="256" xmlns="http://www.w3.org/2000/svg" xmlns:ev="http://www.w3.org/2001/xml-events" xmlns:xlink="http://www.w3.org/1999/xlink"><defs /><path d="M371 174Q380 172 387 177Q394 181 396 190Q398 198 393 205Q389 213 380 214Q325 227 276 198Q268 193 266 185Q264 177 268 169Q273 162 281 160Q289 158 297 162Q332 183 371 174Z" fill="#35220b" stroke="none" transform="scale(1,-1) translate(0,-256)" /><path d="M355 171Q356 180 351 187Q346 194 337 195Q329 196 322 191Q315 186 314 178Q304 112 359 75Q414 39 471 73Q477 77 489 86Q498 93 503 96Q544 122 615 89Q627 84 650 72Q711 40 747 34Q814 23 873 64Q933 105 947 171Q948 179 944 187Q939 194 931 196Q922 197 915 193Q908 188 906 179Q896 130 850 99Q804 67 754 75Q725 80 669 109Q645 121 633 127Q541 169 481 131Q474 128 463 119Q454 111 449 109Q415 88 382 110Q349 132 355 171Z" fill="#35220b" stroke="none" transform="scale(1,-1) translate(0,-256)" /><path d="M948 130Q952 122 960 119Q968 116 976 120Q984 124 987 132Q990 140 986 148Q975 171 947 188Q919 205 893 204Q885 204 879 197Q873 191 874 182Q874 174 880 168Q887 162 895 163Q908 163 925 153Q943 142 948 130Z" fill="#35220b" stroke="none" transform="scale(1,-1) translate(0,-256)" /></svg>