<?xml version="1.0" encoding="utf-8" ?>
<svg baseProfile="full" height="256" version="1.1" width="256" xmlns="http://www.w3.org/2000/svg" xmlns:ev="http://www.w3.org/2001/xml-events" xmlns:xlink="http://www.w3.org/1999/xlink"><defs /><path d="M778.1605072021484 482.44281005859375Q785.2972259521484 477.48365783691406 786.9387588500977 467.767333984375Q788.5802917480469 458.05101013183594 781.5690765380859 447.96116638183594Q774.557861328125 437.87132263183594 764.8790817260742 436.021240234375Q755.2003021240234 434.17115783691406 748.0635833740234 439.13031005859375Q740.9268646240234 444.08946228027344 739.2853317260742 453.8057861328125Q737.643798828125 463.52210998535156 744.6550140380859 473.61195373535156Q751.6662292480469 483.70179748535156 761.3450088500977 485.5518798828125Q771.0237884521484 487.40196228027344 778.1605072021484 482.44281005859375Z" fill="#896024" stroke="none" transform="scale(1,-1) translate(0,-256)" /><path d="M481 455Q485 449 482.0 441.0Q479 433 469 426Q458 419 449.5 419.5Q441 420 437 426Q433 432 436.0 440.5Q439 449 449 456Q459 462 468.0 461.5Q477 461 481 455Z" fill="#896024" stroke="none" transform="scale(1,-1) translate(0,-256)" /></svg>