<?xml version="1.0" encoding="utf-8" ?>
<svg baseProfile="full" height="256" version="1.1" width="256" xmlns="http://www.w3.org/2000/svg" xmlns:ev="http://www.w3.org/2001/xml-events" xmlns:xlink="http://www.w3.org/1999/xlink"><defs /><path d="M1109 89Q1116 67 1129.5 54.0Q1143 41 1153.5 35.5Q1164 30 1164 30L1162 336H1111Z" fill="#000000" stroke="none" transform="scale(1,-1) translate(0,-256)" /><path d="M1111 233H636L638 81Q638 81 649.5 90.5Q661 100 684.0 111.0Q707 122 741.0 127.5Q775 133 818 125Q952 102 1030.5 95.5Q1109 89 1109 89Z" fill="#000000" stroke="none" transform="scale(1,-1) translate(0,-256)" /><path d="M164 233H636L638 81Q638 81 626.0 90.5Q614 100 591.0 111.0Q568 122 534.0 127.5Q500 133 457 125Q323 102 244.5 95.5Q166 89 166 89Z" fill="#000000" stroke="none" transform="scale(1,-1) translate(0,-256)" /><path d="M166 89Q159 67 145.5 54.0Q132 41 121.5 35.5Q111 30 111 30L113 336H164Z" fill="#000000" stroke="none" transform="scale(1,-1) translate(0,-256)" /></svg>