<?xml version="1.0" encoding="utf-8" ?>
<svg baseProfile="full" height="256" version="1.1" width="256" xmlns="http://www.w3.org/2000/svg" xmlns:ev="http://www.w3.org/2001/xml-events" xmlns:xlink="http://www.w3.org/1999/xlink"><defs /><path d="M815 917Q821 934 841.0 928.0Q861 922 879 903Q896 886 907.0 860.0Q918 834 917.5 806.0Q917 778 899 755Q882 733 855.5 719.5Q829 706 797.5 696.0Q766 686 734.5 675.0Q703 664 675 646Q647 628 637.5 603.5Q628 579 627.0 555.0Q626 531 625.5 514.0Q625 497 615 495Q602 491 587.0 501.0Q572 511 558.5 526.0Q545 541 538 554Q532 563 521.5 583.5Q511 604 504.5 631.0Q498 658 503.5 689.0Q509 720 534 752Q557 780 591.0 794.5Q625 809 662.0 814.5Q699 820 733.0 821.5Q767 823 791.0 826.0Q815 829 822 839Q835 858 830.5 871.5Q826 885 818.5 896.0Q811 907 815 917Z" fill="#b8ced4" stroke="none" transform="scale(1,-1) translate(0,-256)" /></svg>