<?xml version="1.0" encoding="utf-8" ?>
<svg baseProfile="full" height="256" version="1.1" width="256" xmlns="http://www.w3.org/2000/svg" xmlns:ev="http://www.w3.org/2001/xml-events" xmlns:xlink="http://www.w3.org/1999/xlink"><defs /><path d="M943 102Q943 107 956.0 107.0Q969 107 986.0 101.0Q1003 95 1015.5 80.5Q1028 66 1027 42Q1025 18 1009.0 3.0Q993 -12 973.0 -19.0Q953 -26 938.0 -25.5Q923 -25 922 -18Q922 -10 932.0 -3.5Q942 3 953.5 14.0Q965 25 970 46Q974 65 967.0 75.0Q960 85 952.0 90.5Q944 96 943 102Z" fill="#ffffff" stroke="none" transform="scale(1,-1) translate(0,-256)" /><path d="M231 90Q225 95 211.5 95.0Q198 95 183.0 88.5Q168 82 157.0 66.5Q146 51 146 25Q146 0 169.5 -22.0Q193 -44 228.0 -61.0Q263 -78 298.0 -88.5Q333 -99 356.5 -101.5Q380 -104 381 -97Q382 -88 367.5 -80.0Q353 -72 332.5 -64.0Q312 -56 295 -47Q270 -35 249.5 -17.5Q229 0 219.0 17.5Q209 35 214 50Q219 64 228.5 73.5Q238 83 231 90Z" fill="#ffffff" stroke="none" transform="scale(1,-1) translate(0,-256)" /><path d="M258 360Q264 367 275.0 361.0Q286 355 297.0 344.0Q308 333 315 326Q325 315 327.5 296.0Q330 277 328 229Q328 205 333.0 177.0Q338 149 343.0 123.5Q348 98 349.0 82.0Q350 66 341 66Q324 67 306.5 92.5Q289 118 273 164Q264 190 258.5 221.5Q253 253 251.0 282.5Q249 312 251.0 333.0Q253 354 258 360Z" fill="#ffffff" stroke="none" transform="scale(1,-1) translate(0,-256)" /></svg>