<?xml version="1.0" encoding="utf-8" ?>
<svg baseProfile="full" height="256" version="1.1" width="256" xmlns="http://www.w3.org/2000/svg" xmlns:ev="http://www.w3.org/2001/xml-events" xmlns:xlink="http://www.w3.org/1999/xlink"><defs /><path d="M533.3119964599609 784.531005859375Q540.3119964599609 789.531005859375 548.8119964599609 788.031005859375Q557.3119964599609 786.531005859375 563.3119964599609 774.531005859375Q575.3119964599609 747.531005859375 557.3119964599609 723.531005859375Q554.3119964599609 720.531005859375 533.3119964599609 699.031005859375Q512.3119964599609 677.531005859375 480.31199645996094 646.031005859375Q448.31199645996094 614.531005859375 412.81199645996094 580.031005859375Q377.31199645996094 545.531005859375 345.31199645996094 514.031005859375Q313.31199645996094 482.531005859375 291.81199645996094 462.031005859375Q270.31199645996094 441.531005859375 267.31199645996094 438.531005859375Q258.31199645996094 429.531005859375 242.81199645996094 425.531005859375Q227.31199645996094 421.531005859375 215.31199645996094 437.531005859375Q206.31199645996094 448.531005859375 208.81199645996094 458.531005859375Q211.31199645996094 468.531005859375 216.81199645996094 475.031005859375Q222.31199645996094 481.531005859375 222.31199645996094 481.531005859375Q222.31199645996094 481.531005859375 243.81199645996094 502.531005859375Q265.31199645996094 523.531005859375 299.31199645996094 557.531005859375Q333.31199645996094 591.531005859375 371.81199645996094 629.531005859375Q410.31199645996094 667.531005859375 445.81199645996094 701.531005859375Q481.31199645996094 735.531005859375 505.31199645996094 758.531005859375Q529.3119964599609 781.531005859375 533.3119964599609 784.531005859375Z" fill="#90caf9" stroke="none" transform="scale(1,-1) translate(0,-256)" /><path d="M213.1752166748047 382.9974365234375Q213.1752166748047 389.3765869140625 210.7830352783203 394.98583984375Q208.39085388183594 400.5950927734375 204.12892150878906 404.8570251464844Q199.8669891357422 409.11895751953125 194.2577362060547 411.53863525390625Q188.6484832763672 413.95831298828125 182.2693328857422 413.95831298828125Q175.83518981933594 413.95831298828125 170.22593688964844 411.53863525390625Q164.61668395996094 409.11895751953125 160.35475158691406 404.8570251464844Q156.0928192138672 400.5950927734375 153.7006378173828 394.98583984375Q151.30845642089844 389.3765869140625 151.30845642089844 382.9974365234375Q151.30845642089844 376.6182861328125 153.7006378173828 371.009033203125Q156.0928192138672 365.3997802734375 160.35475158691406 361.1378479003906Q164.61668395996094 356.87591552734375 170.22593688964844 354.4837341308594Q175.83518981933594 352.091552734375 182.2693328857422 352.091552734375Q188.6484832763672 352.091552734375 194.2577362060547 354.4837341308594Q199.8669891357422 356.87591552734375 204.12892150878906 361.1378479003906Q208.39085388183594 365.3997802734375 210.7830352783203 371.009033203125Q213.1752166748047 376.6182861328125 213.1752166748047 382.9974365234375Z" fill="#90caf9" stroke="none" transform="scale(1,-1) translate(0,-256)" /></svg>