<?xml version="1.0" encoding="utf-8" ?>
<svg baseProfile="full" height="256" version="1.1" width="256" xmlns="http://www.w3.org/2000/svg" xmlns:ev="http://www.w3.org/2001/xml-events" xmlns:xlink="http://www.w3.org/1999/xlink"><defs /><path d="M768 73Q768 73 786.5 80.0Q805 87 834.0 97.5Q863 108 896.0 119.5Q929 131 960.0 140.5Q991 150 1012.0 155.0Q1033 160 1038 157Q1050 149 1048.5 135.0Q1047 121 1045 113Q1044 105 1038.5 88.0Q1033 71 1020 53Q1004 32 985.0 19.0Q966 6 963 0Q957 -11 951.5 -43.5Q946 -76 946 -111Q946 -135 934.0 -140.0Q922 -145 910.0 -143.0Q898 -141 898 -141H821Q821 -141 834.0 -138.5Q847 -136 860.5 -131.0Q874 -126 878 -118Q882 -110 883.0 -92.5Q884 -75 883.5 -58.5Q883 -42 883 -37Q880 -35 862.0 -28.0Q844 -21 821 -5Q790 17 778.5 40.0Q767 63 768 73Z" fill="#ab580f" stroke="none" transform="scale(1,-1) translate(0,-256)" /><path d="M476 901Q476 901 498.5 896.5Q521 892 554.5 885.0Q588 878 622.5 870.0Q657 862 683.0 856.5Q709 851 716 849Q723 847 742.5 842.0Q762 837 787.0 831.5Q812 826 836.0 820.5Q860 815 876.0 811.0Q892 807 893 806Q894 805 914.0 807.5Q934 810 960.5 814.0Q987 818 1009.0 819.5Q1031 821 1036 817Q1045 810 1047.0 793.0Q1049 776 1043 758Q1038 745 1019.5 728.0Q1001 711 982.5 695.0Q964 679 960 671Q951 652 958.5 636.5Q966 621 966 621Q966 621 965.5 600.0Q965 579 964.0 551.0Q963 523 962.5 501.0Q962 479 962 478Q962 477 957.0 458.0Q952 439 943.0 413.5Q934 388 921.5 367.5Q909 347 893 344Q869 339 846.5 348.5Q824 358 802.5 372.0Q781 386 759 397Q736 408 715.5 409.5Q695 411 673.0 411.5Q651 412 624 422Q584 436 562.5 459.5Q541 483 525.0 507.5Q509 532 484 550Q459 568 439.0 573.5Q419 579 393.0 579.5Q367 580 326 585Q280 590 257.0 601.5Q234 613 226.0 626.5Q218 640 218.5 652.0Q219 664 221 671Q223 678 239.0 690.0Q255 702 277.5 715.5Q300 729 321.5 741.0Q343 753 355 760Q373 770 377.5 778.0Q382 786 382.5 800.0Q383 814 387 840Q390 860 404.0 872.0Q418 884 434.5 890.5Q451 897 463.5 899.0Q476 901 476 901Z" fill="#ab580f" stroke="none" transform="scale(1,-1) translate(0,-256)" /></svg>