<?xml version="1.0" encoding="utf-8" ?>
<svg baseProfile="full" height="256" version="1.1" width="256" xmlns="http://www.w3.org/2000/svg" xmlns:ev="http://www.w3.org/2001/xml-events" xmlns:xlink="http://www.w3.org/1999/xlink"><defs /><path d="M120 298Q120 298 154.0 297.0Q188 296 247.5 294.0Q307 292 383.0 289.5Q459 287 544.0 284.0Q629 281 714.0 277.5Q799 274 876.0 271.0Q953 268 1013.5 265.0Q1074 262 1110.5 259.5Q1147 257 1149 256Q1156 251 1165.5 235.0Q1175 219 1179.0 191.0Q1183 163 1172 123Q1168 106 1149.5 73.0Q1131 40 1092.5 1.0Q1054 -38 990.5 -72.5Q927 -107 833.0 -127.0Q739 -147 610 -142Q486 -137 399.0 -114.0Q312 -91 254.0 -59.0Q196 -27 161.5 7.0Q127 41 110.5 68.0Q94 95 89 107Q70 148 77.0 183.5Q84 219 92 244Q102 276 111.0 287.0Q120 298 120 298Z" fill="#fce9c5" stroke="none" transform="scale(1,-1) translate(0,-256)" /><path d="M118 498 490 544Q490 544 525.0 542.0Q560 540 618.0 536.5Q676 533 745.5 528.5Q815 524 885.5 518.0Q956 512 1016.5 505.5Q1077 499 1116.0 491.5Q1155 484 1161 475Q1182 447 1193.0 410.5Q1204 374 1193 327Q1188 307 1168.0 271.0Q1148 235 1107.0 194.0Q1066 153 1000.5 117.0Q935 81 840.0 59.5Q745 38 617 43Q487 47 394.5 72.5Q302 98 241.0 136.5Q180 175 144.5 217.5Q109 260 94.0 298.5Q79 337 78 364Q75 408 85.5 438.0Q96 468 107.0 483.0Q118 498 118 498Z" fill="#fce9c5" stroke="none" transform="scale(1,-1) translate(0,-256)" /><path d="M285 776 1118 742Q1118 742 1129.0 731.5Q1140 721 1154.5 698.0Q1169 675 1178.0 639.5Q1187 604 1183 554Q1180 511 1149.5 463.5Q1119 416 1054.0 374.5Q989 333 882.5 307.0Q776 281 622 281Q471 282 369.5 313.0Q268 344 208.5 392.0Q149 440 123.5 495.0Q98 550 100 600Q101 645 114.0 676.0Q127 707 143.5 726.0Q160 745 172.5 754.0Q185 763 185 763Q185 763 199.5 765.0Q214 767 233.5 769.5Q253 772 268.0 774.0Q283 776 285 776Z" fill="#fce9c5" stroke="none" transform="scale(1,-1) translate(0,-256)" /><path d="M361 211Q362 216 372.0 219.0Q382 222 401 217Q434 208 429 193Q427 186 418.5 184.5Q410 183 390 187Q371 191 365.0 197.5Q359 204 361 211Z" fill="#fce9c5" stroke="none" transform="scale(1,-1) translate(0,-256)" /><path d="M533 176Q535 185 552.0 183.5Q569 182 601 180Q634 179 660.5 179.5Q687 180 687 170Q686 142 600 145Q560 147 545.0 157.0Q530 167 533 176Z" fill="#fce9c5" stroke="none" transform="scale(1,-1) translate(0,-256)" /><path d="M206 102Q211 108 218.0 105.5Q225 103 232 98Q239 92 247.5 85.5Q256 79 251 73Q246 67 235.0 69.0Q224 71 214 79Q198 93 206 102Z" fill="#fce9c5" stroke="none" transform="scale(1,-1) translate(0,-256)" /></svg>