<?xml version="1.0" encoding="utf-8" ?>
<svg baseProfile="full" height="256" version="1.1" width="256" xmlns="http://www.w3.org/2000/svg" xmlns:ev="http://www.w3.org/2001/xml-events" xmlns:xlink="http://www.w3.org/1999/xlink"><defs /><path d="M542 667Q542 667 559.5 682.5Q577 698 603.5 720.0Q630 742 658.5 765.0Q687 788 709.5 804.0Q732 820 741 822Q755 825 766.0 815.0Q777 805 786.0 789.5Q795 774 805 761Q827 729 849.0 704.0Q871 679 873 657Q875 647 853.0 639.0Q831 631 797.5 624.0Q764 617 730 610Q689 601 647.0 592.0Q605 583 583 591Q569 596 560.5 613.0Q552 630 547.5 646.5Q543 663 542 667Z" fill="#ac5813" stroke="none" transform="scale(1,-1) translate(0,-256)" /></svg>