<?xml version="1.0" encoding="utf-8" ?>
<svg baseProfile="full" height="256" version="1.1" width="256" xmlns="http://www.w3.org/2000/svg" xmlns:ev="http://www.w3.org/2001/xml-events" xmlns:xlink="http://www.w3.org/1999/xlink"><defs /><path d="M539 554Q537 564 514.5 565.0Q492 566 458.5 561.5Q425 557 391.0 548.5Q357 540 330.5 531.0Q304 522 295 516Q286 509 272.5 488.5Q259 468 248.5 443.5Q238 419 237.5 397.0Q237 375 254 365Q276 351 297.0 364.0Q318 377 340.0 401.0Q362 425 388 443Q422 469 458.5 488.0Q495 507 519.0 523.0Q543 539 539 554Z" fill="#ff5f5d" stroke="none" transform="scale(1,-1) translate(0,-256)" /><path d="M783 736Q779 744 787.5 757.0Q796 770 808.0 783.5Q820 797 828 806Q847 825 865.0 835.5Q883 846 894 829Q903 814 890.5 802.0Q878 790 863 778Q851 768 833.5 755.5Q816 743 801.0 736.0Q786 729 783 736Z" fill="#ff5f5d" stroke="none" transform="scale(1,-1) translate(0,-256)" /></svg>