<?xml version="1.0" encoding="utf-8" ?>
<svg baseProfile="full" height="256" version="1.1" width="256" xmlns="http://www.w3.org/2000/svg" xmlns:ev="http://www.w3.org/2001/xml-events" xmlns:xlink="http://www.w3.org/1999/xlink"><defs /><path d="M859 674Q889 692 919.0 690.5Q949 689 974.0 675.0Q999 661 1013 644Q1028 627 1035.0 599.5Q1042 572 1033.5 540.5Q1025 509 994 478Q967 452 935.5 446.0Q904 440 874.0 448.5Q844 457 822.0 476.5Q800 496 792 523Q782 558 789.5 587.0Q797 616 816.0 638.0Q835 660 859 674Z" fill="#ffffff" stroke="none" transform="scale(1,-1) translate(0,-256)" /></svg>