<?xml version="1.0" encoding="utf-8" ?>
<svg baseProfile="full" height="256" version="1.1" width="256" xmlns="http://www.w3.org/2000/svg" xmlns:ev="http://www.w3.org/2001/xml-events" xmlns:xlink="http://www.w3.org/1999/xlink"><defs /><path d="M498 694Q480 720 446.0 734.5Q412 749 370.5 750.5Q329 752 287.0 738.5Q245 725 210.5 695.5Q176 666 158 618Q143 580 142.5 526.5Q142 473 152.5 413.0Q163 353 182.0 293.5Q201 234 224.5 182.0Q248 130 274.0 93.0Q300 56 324 42Q370 15 405.5 15.5Q441 16 463.5 29.0Q486 42 493 51Q525 94 528.5 128.5Q532 163 520.0 194.5Q508 226 491.0 260.0Q474 294 466 337Q462 356 473.0 385.0Q484 414 499.5 449.5Q515 485 525.0 525.5Q535 566 531.0 608.5Q527 651 498 694Z" fill="#176bc6" stroke="none" transform="scale(1,-1) translate(0,-256)" /><path d="M505 722Q518 714 542.5 721.0Q567 728 591.0 745.5Q615 763 629.5 787.0Q644 811 638.5 835.5Q633 860 597 882Q561 903 537.0 895.5Q513 888 500.0 864.0Q487 840 484.0 810.5Q481 781 486.5 756.0Q492 731 505 722Z" fill="#176bc6" stroke="none" transform="scale(1,-1) translate(0,-256)" /><path d="M397 782Q408 779 422.0 789.5Q436 800 447.5 818.0Q459 836 463.0 855.0Q467 874 459.0 889.5Q451 905 425 910Q399 915 385.0 904.5Q371 894 366.5 875.0Q362 856 365.0 836.0Q368 816 376.5 800.5Q385 785 397 782Z" fill="#176bc6" stroke="none" transform="scale(1,-1) translate(0,-256)" /><path d="M308 785Q315 787 321.5 801.5Q328 816 331.0 835.0Q334 854 330.5 871.5Q327 889 314.5 897.0Q302 905 278 897Q252 889 245.0 874.5Q238 860 244.0 844.0Q250 828 262.0 814.0Q274 800 287.0 792.0Q300 784 308 785Z" fill="#176bc6" stroke="none" transform="scale(1,-1) translate(0,-256)" /><path d="M227 751Q236 757 236.5 776.5Q237 796 230.0 817.0Q223 838 208.5 848.0Q194 858 173 844Q150 829 152.0 810.5Q154 792 168.5 777.0Q183 762 200.5 754.0Q218 746 227 751Z" fill="#176bc6" stroke="none" transform="scale(1,-1) translate(0,-256)" /><path d="M168 696Q174 705 169.5 720.0Q165 735 153.5 748.0Q142 761 128.0 764.0Q114 767 102 752Q91 737 96.5 723.0Q102 709 116.5 700.0Q131 691 146.0 689.5Q161 688 168 696Z" fill="#176bc6" stroke="none" transform="scale(1,-1) translate(0,-256)" /><path d="M770 464Q787 490 822.5 504.5Q858 519 901.0 520.5Q944 522 987.0 509.0Q1030 496 1064.5 468.0Q1099 440 1116 395Q1128 362 1126.5 310.5Q1125 259 1114.0 198.0Q1103 137 1084.0 75.0Q1065 13 1041.5 -41.5Q1018 -96 993.0 -135.0Q968 -174 943 -188Q898 -215 862.5 -214.5Q827 -214 804.0 -201.0Q781 -188 774 -179Q742 -136 738.5 -101.5Q735 -67 747.5 -35.5Q760 -4 776.5 30.0Q793 64 802 107Q805 127 794.0 155.5Q783 184 768.0 219.5Q753 255 742.5 295.5Q732 336 736.5 379.0Q741 422 770 464Z" fill="#176bc6" stroke="none" transform="scale(1,-1) translate(0,-256)" /><path d="M762 493Q749 484 725.0 491.0Q701 498 676.5 516.0Q652 534 637.5 557.5Q623 581 628.5 606.0Q634 631 670 652Q707 673 730.5 665.5Q754 658 767.0 634.5Q780 611 783.0 581.0Q786 551 780.5 526.0Q775 501 762 493Z" fill="#176bc6" stroke="none" transform="scale(1,-1) translate(0,-256)" /><path d="M871 553Q859 550 845.0 560.5Q831 571 819.5 588.5Q808 606 804.0 625.0Q800 644 808.5 659.5Q817 675 843 680Q869 685 883.0 674.5Q897 664 901.5 645.0Q906 626 902.5 606.0Q899 586 890.5 570.5Q882 555 871 553Z" fill="#176bc6" stroke="none" transform="scale(1,-1) translate(0,-256)" /><path d="M958 553Q951 555 944.0 569.5Q937 584 934.0 603.0Q931 622 934.5 639.5Q938 657 950.5 665.0Q963 673 988 665Q1013 657 1020.0 642.5Q1027 628 1021.0 612.0Q1015 596 1003.0 582.0Q991 568 978.0 559.5Q965 551 958 553Z" fill="#176bc6" stroke="none" transform="scale(1,-1) translate(0,-256)" /><path d="M1041 522Q1032 527 1031.5 546.5Q1031 566 1038.0 587.0Q1045 608 1059.5 618.0Q1074 628 1095 614Q1118 599 1116.0 581.0Q1114 563 1099.0 547.5Q1084 532 1066.5 524.0Q1049 516 1041 522Z" fill="#176bc6" stroke="none" transform="scale(1,-1) translate(0,-256)" /><path d="M1103 469Q1096 478 1100.5 493.0Q1105 508 1116.5 520.5Q1128 533 1142.5 536.0Q1157 539 1169 524Q1180 509 1174.0 495.5Q1168 482 1154.0 473.0Q1140 464 1125.0 462.0Q1110 460 1103 469Z" fill="#176bc6" stroke="none" transform="scale(1,-1) translate(0,-256)" /></svg>