<?xml version="1.0" encoding="utf-8" ?>
<svg baseProfile="full" height="256" version="1.1" width="256" xmlns="http://www.w3.org/2000/svg" xmlns:ev="http://www.w3.org/2001/xml-events" xmlns:xlink="http://www.w3.org/1999/xlink"><defs /><path d="M1131 525Q1134 518 1146.5 499.0Q1159 480 1173.5 458.5Q1188 437 1199.0 421.0Q1210 405 1211 405V-6Q1211 -6 1199.5 5.5Q1188 17 1169.5 35.5Q1151 54 1130.0 73.5Q1109 93 1091.0 109.5Q1073 126 1062 133Q1035 152 1017.5 147.0Q1000 142 987 139Q951 132 921.5 134.0Q892 136 866.0 141.5Q840 147 814 148Q766 150 736.5 131.5Q707 113 694 99Q685 90 666.5 88.0Q648 86 638 108Q629 86 610.5 88.0Q592 90 583 99Q570 112 540.5 130.5Q511 149 463 148Q437 147 411.0 141.5Q385 136 355.5 134.0Q326 132 290 139Q276 142 258.5 147.0Q241 152 215 133Q201 124 176.5 101.5Q152 79 126.5 54.0Q101 29 83.5 11.5Q66 -6 66 -6V406Q66 406 76.0 421.5Q86 437 100.0 458.5Q114 480 126.5 499.0Q139 518 143 525Q150 539 165.0 561.5Q180 584 206 601Q221 611 238.5 625.0Q256 639 264 646Q269 650 286.5 664.0Q304 678 327.0 695.5Q350 713 372.0 728.0Q394 743 408 749Q461 772 496 754Q505 749 523.0 740.5Q541 732 560.0 722.5Q579 713 594.0 705.5Q609 698 613 696Q622 692 629.5 683.0Q637 674 637 660Q637 674 644.5 683.0Q652 692 660 696Q664 698 679.0 705.5Q694 713 713.5 722.5Q733 732 750.5 740.5Q768 749 777 754Q812 772 865 749Q879 744 901.0 729.0Q923 714 946.0 696.0Q969 678 987.0 664.0Q1005 650 1009 646Q1017 639 1034.0 625.0Q1051 611 1067 601Q1094 584 1108.5 561.5Q1123 539 1131 525ZM796 289Q835 305 855.5 330.0Q876 355 883.5 380.0Q891 405 891 422Q888 466 869.5 488.5Q851 511 828.0 519.5Q805 528 786.5 528.0Q768 528 765 528Q756 527 745.0 521.5Q734 516 728 506Q720 495 705.0 478.5Q690 462 680 458Q663 451 653.5 453.0Q644 455 640.5 459.5Q637 464 637 464Q637 464 633.0 459.5Q629 455 619.5 453.0Q610 451 593 458Q584 461 568.0 478.0Q552 495 546 506Q539 516 528.0 521.5Q517 527 508 528Q505 528 486.5 527.5Q468 527 445.0 519.0Q422 511 403.5 488.5Q385 466 383 422Q381 405 388.0 380.5Q395 356 415.5 331.0Q436 306 475 289Q515 272 551.5 252.0Q588 232 612.0 206.0Q636 180 636 144Q636 180 659.5 206.0Q683 232 720.0 252.0Q757 272 796 289Z" fill="#ffca28" stroke="none" transform="scale(1,-1) translate(0,-256)" /></svg>