<?xml version="1.0" encoding="utf-8" ?>
<svg baseProfile="full" height="256" version="1.1" width="256" xmlns="http://www.w3.org/2000/svg" xmlns:ev="http://www.w3.org/2001/xml-events" xmlns:xlink="http://www.w3.org/1999/xlink"><defs /><path d="M575 111Q578 138 560.5 156.0Q543 174 514.5 184.0Q486 194 454.5 197.0Q423 200 398 197Q365 194 343.0 200.0Q321 206 310 211Q284 224 257.0 222.0Q230 220 209.5 211.5Q189 203 182 199Q176 195 155.0 178.5Q134 162 109.0 142.0Q84 122 66 106V-6Q66 -6 83.5 11.5Q101 29 126.5 54.0Q152 79 176.5 101.5Q201 124 215 133Q236 148 251.5 147.0Q267 146 279 142Q286 140 290 139Q326 132 355.5 134.5Q385 137 412 141Q425 143 437.5 145.0Q450 147 463 148Q504 149 531.0 135.0Q558 121 574 108Q574 109 575 111Z" fill="#faa700" stroke="none" transform="scale(1,-1) translate(0,-256)" /><path d="M525 267 511 258Q531 250 555.5 234.5Q580 219 600.0 197.0Q620 175 625 148Q627 141 631.5 140.0Q636 139 636 139V144Q636 186 603.0 215.5Q570 245 525 267Z" fill="#faa700" stroke="none" transform="scale(1,-1) translate(0,-256)" /><path d="M66 370Q79 388 96.5 413.0Q114 438 130.5 463.5Q147 489 158.5 507.5Q170 526 172 530Q179 545 191.0 559.0Q203 573 219 585Q225 590 248.5 607.5Q272 625 303.0 648.5Q334 672 362.5 693.0Q391 714 407 725Q416 731 420.0 724.5Q424 718 417 714Q414 711 403.0 702.0Q392 693 378.5 682.0Q365 671 354.0 662.5Q343 654 341 652Q334 646 338.0 638.5Q342 631 352 637Q356 640 370.0 646.5Q384 653 401.5 660.0Q419 667 433.0 672.5Q447 678 451 679Q459 681 476.5 681.0Q494 681 508 673Q520 667 543.5 655.0Q567 643 588.0 631.5Q609 620 612 617Q617 612 621.5 600.0Q626 588 630 587Q634 586 639.5 591.5Q645 597 645 597L646 685Q637 674 637 660Q637 674 629.5 683.0Q622 692 613 696Q609 698 594.0 705.5Q579 713 560.0 722.5Q541 732 523.0 740.5Q505 749 496 754Q461 772 408 749Q394 743 372.0 728.0Q350 713 327.0 695.5Q304 678 286.5 664.0Q269 650 264 646Q256 639 238.5 625.0Q221 611 206 601Q180 584 165.0 561.5Q150 539 143 525Q139 518 126.5 499.0Q114 480 100.0 458.5Q86 437 76.0 421.5Q66 406 66 406Z" fill="#faa700" stroke="none" transform="scale(1,-1) translate(0,-256)" /><path d="M697 111Q697 108 700 105Q715 119 743.0 134.0Q771 149 814 148Q827 147 839.5 145.0Q852 143 865 141Q892 137 921.5 134.5Q951 132 987 139Q990 140 997 142Q1009 146 1024.5 147.5Q1040 149 1062 133Q1073 126 1091.0 109.5Q1109 93 1130.0 73.5Q1151 54 1169.5 35.5Q1188 17 1199.5 5.5Q1211 -6 1211 -6V100Q1194 115 1167.5 137.0Q1141 159 1118.0 177.0Q1095 195 1088 199Q1081 203 1061.0 211.5Q1041 220 1014.0 222.0Q987 224 960 211Q949 206 927.0 200.0Q905 194 872 197Q847 200 815.5 197.0Q784 194 755.5 184.0Q727 174 710.0 156.0Q693 138 697 111Z" fill="#faa700" stroke="none" transform="scale(1,-1) translate(0,-256)" /><path d="M635 150 636 139Q636 139 640.0 140.0Q644 141 645 148Q650 175 670.0 197.0Q690 219 715.0 234.5Q740 250 759 258L746 266Q701 244 668.5 215.0Q636 186 636 144Q636 147 635 150Z" fill="#faa700" stroke="none" transform="scale(1,-1) translate(0,-256)" /><path d="M1131 525Q1123 539 1108.5 561.5Q1094 584 1067 601Q1051 611 1034.0 625.0Q1017 639 1009 646Q1005 650 987.0 664.0Q969 678 946.0 696.0Q923 714 901.0 729.0Q879 744 865 749Q812 772 777 754Q768 749 750.5 740.5Q733 732 713.5 722.5Q694 713 679.0 705.5Q664 698 660 696Q652 692 644.5 683.0Q637 674 637 660Q637 676 625 688V597Q625 597 630.5 591.5Q636 586 640 587Q644 588 648.5 600.0Q653 612 658 617Q661 620 682.0 631.5Q703 643 726.5 655.0Q750 667 762 673Q776 681 794.0 681.0Q812 681 819 679Q824 678 841.0 670.5Q858 663 880.0 653.0Q902 643 919.5 634.5Q937 626 941 623Q950 617 955.0 624.5Q960 632 953 639Q950 641 939.5 650.0Q929 659 916.0 670.5Q903 682 892.0 691.5Q881 701 878 703Q873 708 876.5 713.0Q880 718 889 713Q904 702 929.0 683.0Q954 664 980.0 643.0Q1006 622 1026.0 606.0Q1046 590 1052 585Q1068 573 1080.0 559.0Q1092 545 1100 530Q1101 526 1113.5 506.0Q1126 486 1144.0 459.0Q1162 432 1180.0 406.0Q1198 380 1210 364L1211 368V405Q1210 405 1199.0 421.0Q1188 437 1173.5 458.5Q1159 480 1146.5 499.0Q1134 518 1131 525Z" fill="#faa700" stroke="none" transform="scale(1,-1) translate(0,-256)" /></svg>