<?xml version="1.0" encoding="utf-8" ?>
<svg baseProfile="full" height="256" version="1.1" width="256" xmlns="http://www.w3.org/2000/svg" xmlns:ev="http://www.w3.org/2001/xml-events" xmlns:xlink="http://www.w3.org/1999/xlink"><defs /><path d="M546 517Q546 538 522.5 549.5Q499 561 468 564V566Q481 570 492.0 580.0Q503 590 508 606Q514 608 517.0 621.5Q520 635 518 638Q519 642 519.5 657.0Q520 672 515.0 690.0Q510 708 495.5 721.0Q481 734 451 734Q421 734 406.0 721.0Q391 708 386.0 690.0Q381 672 381.5 657.0Q382 642 383 638Q381 635 384.0 621.5Q387 608 393 606Q399 589 410.0 579.5Q421 570 434 566V564Q403 562 379.0 550.5Q355 539 355 517V510H546Z" fill="#000000" stroke="none" transform="scale(1,-1) translate(0,-256)" /></svg>