<?xml version="1.0" encoding="utf-8" ?>
<svg baseProfile="full" height="256" version="1.1" width="256" xmlns="http://www.w3.org/2000/svg" xmlns:ev="http://www.w3.org/2001/xml-events" xmlns:xlink="http://www.w3.org/1999/xlink"><defs /><path d="M533 510Q547 510 547 524V750Q547 764 533 764H369Q355 764 355 750V524Q355 510 369 510Z" fill="#ffffff" stroke="none" transform="scale(1,-1) translate(0,-256)" /><path d="M1080 167Q1087 149 1077.0 138.5Q1067 128 1048.5 123.5Q1030 119 1011 119H264Q245 119 226.5 123.5Q208 128 198.0 138.5Q188 149 195 167L288 325Q310 353 346 353H637H928Q965 353 987 325Z" fill="#ffffff" stroke="none" transform="scale(1,-1) translate(0,-256)" /></svg>