<?xml version="1.0" encoding="utf-8" ?>
<svg baseProfile="full" height="256" version="1.1" width="256" xmlns="http://www.w3.org/2000/svg" xmlns:ev="http://www.w3.org/2001/xml-events" xmlns:xlink="http://www.w3.org/1999/xlink"><defs /><path d="M521 557Q517 556 517 553L500 143Q500 141 501 140L516 121Q518 120 519 120H791Q794 120 794 123V197Q794 198 794 199L780 216Q777 220 773 220H728Q727 220 727.0 219.5Q727 219 727 219L604 198Q600 198 600 202V295Q600 299 603 299H771Q775 299 775 303V376Q775 377 774 378L760 395Q758 399 753 399H747Q747 399 747.0 399.0Q747 399 747 399L604 378Q600 377 600 381V475Q600 478 603 478H791Q794 478 794 482V555Q794 556 794 557L780 575Q777 578 773 578H760Q760 578 760.0 578.0Q760 578 760 578Z" fill="#0d47a1" stroke="none" transform="scale(1,-1) translate(0,-256)" /></svg>