<?xml version="1.0" encoding="utf-8" ?>
<svg baseProfile="full" height="256" version="1.1" width="256" xmlns="http://www.w3.org/2000/svg" xmlns:ev="http://www.w3.org/2001/xml-events" xmlns:xlink="http://www.w3.org/1999/xlink"><defs /><path d="M1088 496Q1129 551 1144.5 601.5Q1160 652 1158.5 695.0Q1157 738 1146.0 769.5Q1135 801 1121 817Q1089 854 1043.0 870.5Q997 887 944.5 882.0Q892 877 838.5 852.5Q785 828 737 785Q675 727 646.0 665.0Q617 603 623 516Q626 475 643.0 447.0Q660 419 671 416Q683 413 688.0 415.0Q693 417 693 417L709 401Q746 366 796.0 357.5Q846 349 899.5 363.5Q953 378 1002.5 412.0Q1052 446 1088 496ZM1188 755Q1196 679 1177.0 615.0Q1158 551 1124.5 501.0Q1091 451 1053 419Q1009 379 949.0 352.0Q889 325 827 328Q776 330 743.0 343.0Q710 356 694.0 368.5Q678 381 678 381L335 39L329 82L643 396Q643 396 629.5 414.0Q616 432 604.5 467.0Q593 502 597 554Q600 596 610.5 636.5Q621 677 647.0 718.5Q673 760 722 806Q756 837 806.0 864.5Q856 892 914.5 905.0Q973 918 1031.5 906.0Q1090 894 1141 845Q1161 826 1173.0 801.0Q1185 776 1188 755Z" fill="#05bef2" stroke="none" transform="scale(1,-1) translate(0,-256)" /></svg>