<?xml version="1.0" encoding="utf-8" ?>
<svg baseProfile="full" height="256" version="1.1" width="256" xmlns="http://www.w3.org/2000/svg" xmlns:ev="http://www.w3.org/2001/xml-events" xmlns:xlink="http://www.w3.org/1999/xlink"><defs /><path d="M327 64Q336 59 336.5 50.0Q337 41 330 37Q323 34 322.0 25.5Q321 17 313 7Q305 -3 298.0 -2.5Q291 -2 281 -12Q270 -21 267.5 -36.0Q265 -51 255 -59Q246 -67 234.5 -69.5Q223 -72 215 -79Q208 -87 206.0 -96.0Q204 -105 196 -115Q189 -125 181.0 -128.5Q173 -132 164 -134Q156 -137 152.5 -145.5Q149 -154 137 -149Q124 -145 126.0 -132.0Q128 -119 134 -113Q141 -107 151.5 -106.5Q162 -106 168 -101Q175 -95 178.5 -81.0Q182 -67 194 -55Q202 -47 214.5 -44.5Q227 -42 235 -34Q243 -27 245.0 -13.0Q247 1 258 11Q269 22 278.5 24.0Q288 26 293 30Q298 34 298.0 41.5Q298 49 303 56Q308 62 315.5 64.0Q323 66 327 64Z" fill="#858485" stroke="none" transform="scale(1,-1) translate(0,-256)" /></svg>