<?xml version="1.0" encoding="utf-8" ?>
<svg baseProfile="full" height="256" version="1.1" width="256" xmlns="http://www.w3.org/2000/svg" xmlns:ev="http://www.w3.org/2001/xml-events" xmlns:xlink="http://www.w3.org/1999/xlink"><defs /><path d="M375 755Q375 752 353.5 735.0Q332 718 308 696Q285 674 267.5 653.0Q250 632 244 627Q241 625 232.0 638.0Q223 651 216.0 673.5Q209 696 212.0 720.5Q215 745 235 765Q261 790 286.0 794.0Q311 798 330.5 789.5Q350 781 362.0 770.0Q374 759 375 755Z" fill="#b99277" stroke="none" transform="scale(1,-1) translate(0,-256)" /><path d="M905 755Q905 761 917.5 770.0Q930 779 950.0 785.0Q970 791 993.0 787.5Q1016 784 1039 765Q1061 746 1066.0 722.5Q1071 699 1066.5 676.5Q1062 654 1054.0 639.5Q1046 625 1042 625Q1038 624 1018.0 648.0Q998 672 973 696Q949 719 926.5 734.5Q904 750 905 755Z" fill="#b99277" stroke="none" transform="scale(1,-1) translate(0,-256)" /></svg>