<?xml version="1.0" encoding="utf-8" ?>
<svg baseProfile="full" height="256" version="1.1" width="256" xmlns="http://www.w3.org/2000/svg" xmlns:ev="http://www.w3.org/2001/xml-events" xmlns:xlink="http://www.w3.org/1999/xlink"><defs /><path d="M418 572Q424 569 431.0 558.0Q438 547 438 543Q438 534 431.0 526.5Q424 519 415 520Q406 521 400.0 530.0Q394 539 394 547Q394 556 404.0 565.0Q414 574 418 572Z" fill="#e17a2c" stroke="none" transform="scale(1,-1) translate(0,-256)" /><path d="M568 772Q574 772 582.0 764.0Q590 756 595.5 747.5Q601 739 600 738Q598 736 583.0 734.5Q568 733 553.5 731.5Q539 730 538 732Q538 734 533.5 737.0Q529 740 530 742Q530 743 538.5 750.5Q547 758 556.0 765.0Q565 772 568 772Z" fill="#e17a2c" stroke="none" transform="scale(1,-1) translate(0,-256)" /><path d="M496 679Q496 686 509.5 691.5Q523 697 525 695Q527 692 527.5 682.0Q528 672 528 672Q528 672 541.5 673.5Q555 675 558 672Q561 669 556.0 660.0Q551 651 543.0 644.0Q535 637 531 637Q527 638 518.5 647.5Q510 657 503.0 666.5Q496 676 496 679Z" fill="#e17a2c" stroke="none" transform="scale(1,-1) translate(0,-256)" /><path d="M735 773Q741 777 751.0 768.5Q761 760 765 754Q770 744 770.5 731.0Q771 718 768 715Q766 713 758.0 716.0Q750 719 742.0 723.0Q734 727 733 727Q732 727 732.0 738.5Q732 750 732.5 761.0Q733 772 735 773Z" fill="#e17a2c" stroke="none" transform="scale(1,-1) translate(0,-256)" /><path d="M675 828Q675 833 683.0 836.0Q691 839 704 836Q718 833 722.0 825.0Q726 817 724 814Q723 811 710.0 804.0Q697 797 688 798Q682 799 678.5 811.5Q675 824 675 828Z" fill="#e17a2c" stroke="none" transform="scale(1,-1) translate(0,-256)" /><path d="M679 554Q671 563 677.5 577.5Q684 592 690 596Q696 600 707.0 598.5Q718 597 727 593Q737 590 744.5 585.0Q752 580 752 575Q754 568 749.0 557.5Q744 547 737.0 539.0Q730 531 725 532Q718 534 720.0 546.5Q722 559 715 562Q711 564 704.0 560.5Q697 557 689.5 554.0Q682 551 679 554Z" fill="#e17a2c" stroke="none" transform="scale(1,-1) translate(0,-256)" /><path d="M942 522 970 505 993 544Q993 544 987.0 557.5Q981 571 979 574Q977 576 966.0 576.0Q955 576 949 565Q943 554 942.5 538.0Q942 522 942 522Z" fill="#e17a2c" stroke="none" transform="scale(1,-1) translate(0,-256)" /></svg>