<?xml version="1.0" encoding="utf-8" ?>
<svg baseProfile="full" height="256" version="1.1" width="256" xmlns="http://www.w3.org/2000/svg" xmlns:ev="http://www.w3.org/2001/xml-events" xmlns:xlink="http://www.w3.org/1999/xlink"><defs /><path d="M364 496Q364 496 373.5 485.5Q383 475 395.5 461.0Q408 447 418.0 435.5Q428 424 429 423Q430 422 443.5 425.5Q457 429 474.5 433.5Q492 438 505.0 442.0Q518 446 518 446Q518 446 517.0 464.5Q516 483 507 500Q501 512 488.0 518.0Q475 524 463.5 526.0Q452 528 452 528Q452 528 469.0 536.0Q486 544 503 543Q515 542 523.0 532.5Q531 523 535.0 514.0Q539 505 539 505Q539 505 543.0 515.5Q547 526 547.0 541.0Q547 556 537.5 568.5Q528 581 501 586Q479 589 468.5 580.0Q458 571 458 571Q458 571 456.5 574.5Q455 578 451 582Q446 586 440.5 586.5Q435 587 435 587Q435 587 435.5 600.0Q436 613 432.5 630.0Q429 647 416.5 660.0Q404 673 378 672Q360 672 351.5 662.0Q343 652 341.0 639.5Q339 627 339.5 617.0Q340 607 340 607Q340 607 335.5 603.0Q331 599 336 582Q340 571 349.0 566.5Q358 562 365.5 561.5Q373 561 373 561Q373 561 371.0 553.5Q369 546 372 537Q377 524 383.5 519.0Q390 514 390 514Q390 514 384.0 513.5Q378 513 372 509Q368 507 366.0 502.0Q364 497 364 496Z" fill="#fce193" stroke="none" transform="scale(1,-1) translate(0,-256)" /><path d="M471 701Q471 701 470.5 711.5Q470 722 487 727Q498 730 507.5 725.0Q517 720 522.0 713.5Q527 707 527 707Q527 707 534.5 712.5Q542 718 554.0 722.5Q566 727 578.5 724.0Q591 721 602 704Q615 684 607.5 669.5Q600 655 588.5 647.5Q577 640 577 640Q577 640 580.0 637.5Q583 635 585 630Q587 623 587.5 616.5Q588 610 588 610Q588 610 583.5 605.5Q579 601 575 594Q570 587 567.0 575.5Q564 564 564 564Q564 564 556.5 573.5Q549 583 532 592Q516 602 502.0 602.5Q488 603 488 603Q488 603 486.5 612.0Q485 621 485 623Q485 624 476.0 624.5Q467 625 455.5 628.0Q444 631 435.0 640.5Q426 650 425 669Q425 689 436.5 695.0Q448 701 459.5 701.0Q471 701 471 701Z" fill="#fce193" stroke="none" transform="scale(1,-1) translate(0,-256)" /><path d="M586 533Q586 533 602.5 540.0Q619 547 642.5 550.0Q666 553 686 538Q701 529 703.5 521.5Q706 514 706 514Q706 514 717.0 514.5Q728 515 735 517Q743 519 750.5 523.0Q758 527 758 527Q758 527 757.5 520.0Q757 513 757 502Q757 492 760.5 479.0Q764 466 764 466L813 449L859 494Q859 494 868.5 502.5Q878 511 879 524Q880 533 873.0 541.0Q866 549 858.5 554.5Q851 560 851 560Q851 560 846.0 571.0Q841 582 821 584Q807 586 797.0 579.0Q787 572 781.0 565.0Q775 558 775 558Q775 558 778.0 573.0Q781 588 777 600Q776 602 771.0 610.5Q766 619 752.5 627.5Q739 636 714 637Q698 637 681.0 626.5Q664 616 652.5 605.0Q641 594 641 593Q640 591 628.5 596.5Q617 602 598 592Q585 585 583.5 571.0Q582 557 584.0 545.0Q586 533 586 533Z" fill="#fce193" stroke="none" transform="scale(1,-1) translate(0,-256)" /><path d="M606 470Q606 470 589.5 470.0Q573 470 564 459Q556 450 557.0 441.0Q558 432 558 432Q558 432 568.0 426.0Q578 420 591.0 412.0Q604 404 614.5 397.5Q625 391 626 391Q627 390 638.0 396.5Q649 403 663.0 413.0Q677 423 687.5 434.5Q698 446 697 455Q696 468 691.5 485.5Q687 503 674.0 515.0Q661 527 635 527Q618 526 611.5 517.5Q605 509 604.0 498.0Q603 487 604.5 478.5Q606 470 606 470Z" fill="#fce193" stroke="none" transform="scale(1,-1) translate(0,-256)" /><path d="M899 496Q899 496 914.5 493.0Q930 490 946.5 487.0Q963 484 966 483Q968 483 977.0 492.0Q986 501 996.5 513.0Q1007 525 1015.0 534.0Q1023 543 1023 543Q1023 543 1024.0 552.0Q1025 561 1024.5 571.5Q1024 582 1019 587Q1011 597 996.5 603.0Q982 609 956 609Q930 610 919.5 606.5Q909 603 904 593Q899 582 905.0 569.5Q911 557 911 557Q911 557 901.0 553.5Q891 550 888 532Q885 514 892.0 505.0Q899 496 899 496Z" fill="#fce193" stroke="none" transform="scale(1,-1) translate(0,-256)" /><path d="M755 656Q755 656 763.5 660.5Q772 665 782.0 676.0Q792 687 796 706Q803 736 797.0 750.0Q791 764 791 767Q791 769 802.0 771.0Q813 773 828.0 770.0Q843 767 855 755Q864 745 865.5 732.0Q867 719 865.0 709.0Q863 699 860 699Q860 699 844.5 696.5Q829 694 814 677Q805 666 800.5 650.5Q796 635 794.5 623.5Q793 612 793 612Q793 612 788.0 621.0Q783 630 779 636Q775 643 765.0 649.5Q755 656 755 656Z" fill="#fce193" stroke="none" transform="scale(1,-1) translate(0,-256)" /><path d="M629 648Q623 651 625.0 666.5Q627 682 646 692Q666 701 678.0 690.5Q690 680 690 676Q689 671 679.5 668.5Q670 666 660 661Q652 657 643.5 651.0Q635 645 629 648Z" fill="#fce193" stroke="none" transform="scale(1,-1) translate(0,-256)" /><path d="M242 626Q244 646 257.0 651.0Q270 656 285.0 650.0Q300 644 308 632Q313 623 315.5 606.5Q318 590 318.5 576.5Q319 563 319 562Q319 561 309.0 552.0Q299 543 295 542Q291 541 282.5 548.0Q274 555 269 563Q262 572 262.5 584.0Q263 596 263 596Q263 596 251.5 602.5Q240 609 242 626Z" fill="#fce193" stroke="none" transform="scale(1,-1) translate(0,-256)" /><path d="M324 656Q317 656 315.5 669.0Q314 682 323 692Q333 701 345.0 695.5Q357 690 357 690Q357 690 350.0 685.0Q343 680 340 676Q337 672 333.0 664.0Q329 656 324 656Z" fill="#fce193" stroke="none" transform="scale(1,-1) translate(0,-256)" /><path d="M374 697Q374 697 366.0 708.5Q358 720 355.5 735.0Q353 750 369 761Q383 772 395.0 765.0Q407 758 411 758Q414 759 422.5 771.0Q431 783 444.5 791.0Q458 799 478 786Q489 779 486.0 765.5Q483 752 483 752Q483 752 478.5 751.0Q474 750 466 745Q458 739 455.5 730.0Q453 721 453 721Q453 721 445.5 721.5Q438 722 428 716Q418 709 415.5 702.0Q413 695 413 695Q413 695 406.0 696.5Q399 698 394 698Q389 698 381.5 697.5Q374 697 374 697Z" fill="#fce193" stroke="none" transform="scale(1,-1) translate(0,-256)" /><path d="M501 756Q501 756 503.5 768.5Q506 781 514.0 793.0Q522 805 540 806Q551 806 560.0 798.5Q569 791 569 791Q569 791 574.5 802.0Q580 813 593.5 822.0Q607 831 630 823Q648 818 655.0 804.5Q662 791 663.5 779.5Q665 768 665 768Q665 768 654.0 767.0Q643 766 631 761Q617 756 608.0 746.5Q599 737 599 737L540 735Q540 735 533.0 740.0Q526 745 520 748Q514 752 507.5 754.0Q501 756 501 756Z" fill="#fce193" stroke="none" transform="scale(1,-1) translate(0,-256)" /><path d="M561 833Q550 833 547.5 851.5Q545 870 555 885Q563 899 582.5 901.5Q602 904 605 895Q609 885 598.5 878.5Q588 872 582 866Q576 860 571.0 846.5Q566 833 561 833Z" fill="#fce193" stroke="none" transform="scale(1,-1) translate(0,-256)" /><path d="M657 840Q656 846 659.5 852.5Q663 859 674 861Q686 862 696.0 855.0Q706 848 709 849Q712 849 716.5 858.5Q721 868 731.0 875.5Q741 883 760 879Q774 875 773.0 864.0Q772 853 766.5 842.5Q761 832 761 832Q761 832 764.0 827.0Q767 822 769 819Q771 816 772.0 808.0Q773 800 770 798Q766 796 759.0 802.0Q752 808 740 811Q727 815 710.5 812.0Q694 809 694 809Q694 809 687.5 815.0Q681 821 678 823Q676 825 667.0 830.0Q658 835 657 840Z" fill="#fce193" stroke="none" transform="scale(1,-1) translate(0,-256)" /><path d="M678 724Q676 729 681.0 742.5Q686 756 697.5 768.5Q709 781 728 781Q753 781 763.5 768.0Q774 755 775.0 738.5Q776 722 773 711Q770 697 760.0 685.0Q750 673 735 675Q725 676 718.5 684.5Q712 693 708.5 701.0Q705 709 705 709Q705 709 694.0 711.0Q683 713 678 724Z" fill="#fce193" stroke="none" transform="scale(1,-1) translate(0,-256)" /><path d="M877 564Q868 563 865.5 573.0Q863 583 863 583Q863 583 852.5 589.5Q842 596 831.5 608.0Q821 620 818.5 635.5Q816 651 830 669Q844 686 859.0 684.0Q874 682 887.0 671.5Q900 661 908.5 650.5Q917 640 917 640Q920 641 921.5 647.0Q923 653 928 663Q936 677 946.5 677.0Q957 677 957 677Q957 677 962.0 686.0Q967 695 981 693Q996 690 1001.5 675.0Q1007 660 1006.0 644.5Q1005 629 1002 625Q999 620 987.5 623.0Q976 626 959 628Q943 629 929.0 628.5Q915 628 899 616Q889 608 885.5 596.0Q882 584 881.0 574.0Q880 564 877 564Z" fill="#fce193" stroke="none" transform="scale(1,-1) translate(0,-256)" /></svg>