<?xml version="1.0" encoding="utf-8" ?>
<svg baseProfile="full" height="256" version="1.1" width="256" xmlns="http://www.w3.org/2000/svg" xmlns:ev="http://www.w3.org/2001/xml-events" xmlns:xlink="http://www.w3.org/1999/xlink"><defs /><path d="M893 -211 888 -15Q888 -33 875.5 -45.0Q863 -57 846 -57Q816 -57 806 -30L837 -211Z" fill="#000000" stroke="none" transform="scale(1,-1) translate(0,-256)" /><path d="M1121 -114Q1133 -107 1135.0 -93.5Q1137 -80 1127 -70L1047 35Q1047 35 1046.5 35.0Q1046 35 1046 35Q1049 29 1049 22Q1049 4 1036.0 -9.0Q1023 -22 1005 -22Q987 -22 974 -9Q975 -10 977 -12L1091 -112Q1105 -122 1121 -114Z" fill="#000000" stroke="none" transform="scale(1,-1) translate(0,-256)" /><path d="M1049 22Q1049 29 1046 35Q1043 39 1041 44L1040 47L996 176L877 251L771 175L803 -14L806 -30Q816 -57 846 -57Q863 -57 875.5 -45.0Q888 -33 888 -15Q888 -15 888.0 -15.0Q888 -15 888 -15V-14L885 121Q885 124 888 124Q890 124 895.5 123.0Q901 122 902 121L966 2Q968 -2 971 -6Q972 -7 974 -9Q987 -22 1005 -22Q1023 -22 1036.0 -9.0Q1049 4 1049 22Z" fill="#000000" stroke="none" transform="scale(1,-1) translate(0,-256)" /><path d="M1066 384Q1066 384 1055.5 374.5Q1045 365 1031.0 352.0Q1017 339 1006.5 329.5Q996 320 996 320V175L909 115Q897 109 885 109Q872 109 862 115L770 175V320L701 384Q701 384 706.5 394.5Q712 405 730.0 419.0Q748 433 783.5 443.5Q819 454 878 454Q938 454 975.0 443.5Q1012 433 1032.0 419.0Q1052 405 1059.0 394.5Q1066 384 1066 384Z" fill="#000000" stroke="none" transform="scale(1,-1) translate(0,-256)" /><path d="M1122 303Q1129 295 1129.5 283.5Q1130 272 1122 264Q1122 264 1107.5 252.0Q1093 240 1073.5 224.5Q1054 209 1039.5 197.0Q1025 185 1025 185Q1006 177 991 177Q978 177 972 183Q969 186 970.0 188.5Q971 191 971 192Q970 194 968.0 195.5Q966 197 965 200Q965 202 968 208Q969 211 966 213Q962 216 962 220Q962 224 965 227Q969 232 966 236Q961 241 967 245Q971 248 979.0 249.0Q987 250 987 250H991Q999 250 1005.5 249.0Q1012 248 1016 248L1065 289L995 354L1053 395Z" fill="#000000" stroke="none" transform="scale(1,-1) translate(0,-256)" /><path d="M808 219Q808 216 804 213Q801 211 803 208Q806 202 805 200Q805 197 802.5 195.5Q800 194 800 192Q799 191 800.5 188.5Q802 186 799 183Q792 177 780 177Q765 177 746 185Q746 185 731.0 197.0Q716 209 697.0 224.5Q678 240 663.0 252.0Q648 264 648 264Q641 272 641.0 283.5Q641 295 648 303L717 395L776 354L706 288L755 248Q758 248 764.5 249.0Q771 250 780 250H783Q783 250 791.5 249.0Q800 248 803 245Q809 240 805 235Q801 232 805 227Q809 223 808 219Z" fill="#000000" stroke="none" transform="scale(1,-1) translate(0,-256)" /><path d="M1067 384 997 320H770L701 384Q701 384 706.5 394.5Q712 405 730.0 419.0Q748 433 783.5 443.5Q819 454 879 454Q938 454 975.5 443.5Q1013 433 1032.5 419.0Q1052 405 1059.5 394.5Q1067 384 1067 384Z" fill="#000000" stroke="none" transform="scale(1,-1) translate(0,-256)" /><path d="M982.593994140625 440.0Q963.593994140625 446.0 938.093994140625 450.0Q912.593994140625 454.0 878.593994140625 454.0Q848.593994140625 454.0 825.593994140625 451.0Q802.593994140625 448.0 785.593994140625 443.0Q785.593994140625 442.0 785.593994140625 441.0Q785.593994140625 420.0 811.093994140625 396.5Q836.593994140625 373.0 883.593994140625 373.0Q930.593994140625 373.0 956.093994140625 396.0Q981.593994140625 419.0 982.593994140625 440.0Z" fill="#000000" stroke="none" transform="scale(1,-1) translate(0,-256)" /><path d="M369.406005859375 -211.0 364.406005859375 -15.0Q364.406005859375 -33.0 351.906005859375 -45.0Q339.406005859375 -57.0 322.406005859375 -57.0Q292.406005859375 -57.0 282.406005859375 -30.0L313.406005859375 -211.0Z" fill="#000000" stroke="none" transform="scale(1,-1) translate(0,-256)" /><path d="M597.406005859375 -114.0Q609.406005859375 -107.0 611.406005859375 -93.5Q613.406005859375 -80.0 603.406005859375 -70.0L523.406005859375 35.0Q523.406005859375 35.0 522.906005859375 35.0Q522.406005859375 35.0 522.406005859375 35.0Q525.406005859375 29.0 525.406005859375 22.0Q525.406005859375 4.0 512.406005859375 -9.0Q499.406005859375 -22.0 481.406005859375 -22.0Q463.406005859375 -22.0 450.406005859375 -9.0Q451.406005859375 -10.0 453.406005859375 -12.0L567.406005859375 -112.0Q581.406005859375 -122.0 597.406005859375 -114.0Z" fill="#000000" stroke="none" transform="scale(1,-1) translate(0,-256)" /><path d="M525.406005859375 22.0Q525.406005859375 29.0 522.406005859375 35.0Q519.406005859375 39.0 517.406005859375 44.0L516.406005859375 47.0L472.406005859375 176.0L353.406005859375 251.0L247.406005859375 175.0L279.406005859375 -14.0L282.406005859375 -30.0Q292.406005859375 -57.0 322.406005859375 -57.0Q339.406005859375 -57.0 351.906005859375 -45.0Q364.406005859375 -33.0 364.406005859375 -15.0Q364.406005859375 -15.0 364.406005859375 -15.0Q364.406005859375 -15.0 364.406005859375 -15.0V-14.0L361.406005859375 121.0Q361.406005859375 124.0 364.406005859375 124.0Q366.406005859375 124.0 371.906005859375 123.0Q377.406005859375 122.0 378.406005859375 121.0L442.406005859375 2.0Q444.406005859375 -2.0 447.406005859375 -6.0Q448.406005859375 -7.0 450.406005859375 -9.0Q463.406005859375 -22.0 481.406005859375 -22.0Q499.406005859375 -22.0 512.406005859375 -9.0Q525.406005859375 4.0 525.406005859375 22.0Z" fill="#000000" stroke="none" transform="scale(1,-1) translate(0,-256)" /><path d="M542.406005859375 384.0 472.406005859375 320.0V175.0L385.406005859375 115.0Q373.406005859375 109.0 361.406005859375 109.0Q348.406005859375 109.0 338.406005859375 115.0L246.406005859375 175.0V320.0L177.406005859375 384.0Q177.406005859375 384.0 182.906005859375 394.5Q188.406005859375 405.0 206.406005859375 419.0Q224.406005859375 433.0 259.906005859375 443.5Q295.406005859375 454.0 354.406005859375 454.0Q414.406005859375 454.0 451.406005859375 443.5Q488.406005859375 433.0 508.406005859375 419.0Q528.406005859375 405.0 535.406005859375 394.5Q542.406005859375 384.0 542.406005859375 384.0Z" fill="#000000" stroke="none" transform="scale(1,-1) translate(0,-256)" /><path d="M358 463H391Q422 463 440.0 471.0Q458 479 466.5 487.0Q475 495 475 495L465 507L358 498Z" fill="#000000" stroke="none" transform="scale(1,-1) translate(0,-256)" /><path d="M-590.5850982666016 141.3690185546875Q-596.4983367919922 130.411376953125 -608.5052947998047 130.11685180664062Q-620.5122528076172 129.82232666015625 -620.5122528076172 129.82232666015625Q-620.5122528076172 129.82232666015625 -614.3479995727539 134.34490966796875Q-608.1837463378906 138.86749267578125 -607.3530426025391 144.17059326171875Q-605.3396911621094 151.66522216796875 -618.4846496582031 156.162109375Q-618.4846496582031 156.162109375 -618.4846496582031 156.162109375Q-618.4846496582031 156.162109375 -618.4846496582031 156.162109375Q-618.4846496582031 156.162109375 -610.1381988525391 157.20095825195312Q-601.791748046875 158.23980712890625 -594.4519729614258 155.53134155273438Q-587.1121978759766 152.8228759765625 -590.5850982666016 141.3690185546875Z" fill="#000000" stroke="none" transform="scale(1,-1) translate(0,-256)" /><path d="M499.9200744628906 556.8558044433594Q499.9200744628906 556.8558044433594 501.6569061279297 555.9829864501953Q503.39373779296875 555.1101684570312 503.39373779296875 555.1101684570312Q503.39373779296875 555.1101684570312 503.7987823486328 544.1097869873047Q504.2038269042969 533.1094055175781 504.8699722290039 518.6187973022461Q505.53611755371094 504.12818908691406 505.14734649658203 492.56700897216797Q504.7585754394531 481.0058288574219 503.24554443359375 478.88702392578125Q499.3137664794922 475.5844268798828 491.83372497558594 475.02467346191406Q487.6781463623047 474.7136993408203 483.8262252807617 475.9296340942383Q479.97430419921875 477.14556884765625 476.5752410888672 477.8939971923828Q463.66090393066406 482.94432067871094 447.46466064453125 492.76300048828125Q431.26841735839844 502.58168029785156 418.9240951538086 511.1844253540039Q406.57977294921875 519.7871704101562 406.57977294921875 519.7871704101562Q411.4172668457031 522.1547546386719 415.6154022216797 527.4828643798828Q419.81353759765625 532.8109741210938 421.4011688232422 533.9325714111328Q430.47935485839844 546.6454010009766 452.2853775024414 556.8009262084961Q474.0914001464844 566.9564514160156 499.9200744628906 556.8558044433594Z" fill="#000000" stroke="none" transform="scale(1,-1) translate(0,-256)" /><path d="M-523.7921447753906 237.74935913085938Q-523.7921447753906 237.74935913085938 -525.3424758911133 239.36956024169922Q-526.8928070068359 240.98976135253906 -526.8928070068359 240.98976135253906Q-526.8182067871094 241.98696899414062 -525.0172882080078 254.8884735107422Q-523.2163696289062 267.78997802734375 -521.719108581543 282.21839141845703Q-520.2218475341797 296.6468048095703 -519.8488464355469 301.6328430175781Q-519.4758453369141 306.61888122558594 -519.2520446777344 309.6105041503906Q-519.0282440185547 312.6021270751953 -515.5545806884766 314.34776306152344Q-511.10060119628906 318.02561950683594 -503.6205596923828 317.4658660888672Q-499.5395812988281 316.1576843261719 -495.87416076660156 314.88059997558594Q-492.208740234375 313.603515625 -489.0334777832031 311.3603210449219Q-476.9397430419922 305.4413604736328 -462.42200469970703 292.82286834716797Q-447.9042663574219 280.2043762207031 -436.94004821777344 270.35877990722656Q-425.975830078125 260.51318359375 -425.975830078125 260.51318359375Q-431.1117248535156 258.8919372558594 -436.0558624267578 254.2479705810547Q-441.0 249.60400390625 -442.8114318847656 247.73397827148438Q-453.6800231933594 236.51382446289062 -476.7169494628906 230.21542358398438Q-499.7538757324219 223.91702270507812 -523.7921447753906 237.74935913085938Z" fill="#000000" stroke="none" transform="scale(1,-1) translate(0,-256)" /><path d="M357.68699645996094 463.0H324.68699645996094Q293.68699645996094 463.0 275.68699645996094 471.0Q257.68699645996094 479.0 249.18699645996094 487.0Q240.68699645996094 495.0 240.68699645996094 495.0L250.68699645996094 507.0L357.68699645996094 498.0Z" fill="#000000" stroke="none" transform="scale(1,-1) translate(0,-256)" /><path d="M1306.2731018066406 141.3690185546875Q1312.1863403320312 130.411376953125 1324.1932983398438 130.11685180664062Q1336.2002563476562 129.82232666015625 1336.2002563476562 129.82232666015625Q1336.2002563476562 129.82232666015625 1330.036003112793 134.34490966796875Q1323.8717498779297 138.86749267578125 1323.0410461425781 144.17059326171875Q1321.0276947021484 151.66522216796875 1334.1726531982422 156.162109375Q1334.1726531982422 156.162109375 1334.1726531982422 156.162109375Q1334.1726531982422 156.162109375 1334.1726531982422 156.162109375Q1334.1726531982422 156.162109375 1325.8262023925781 157.20095825195312Q1317.479751586914 158.23980712890625 1310.1399765014648 155.53134155273438Q1302.8002014160156 152.8228759765625 1306.2731018066406 141.3690185546875Z" fill="#000000" stroke="none" transform="scale(1,-1) translate(0,-256)" /><path d="M598.406005859375 303.0Q605.406005859375 295.0 605.906005859375 283.5Q606.406005859375 272.0 598.406005859375 264.0Q598.406005859375 264.0 583.906005859375 252.0Q569.406005859375 240.0 549.906005859375 224.5Q530.406005859375 209.0 515.906005859375 197.0Q501.406005859375 185.0 501.406005859375 185.0Q482.406005859375 177.0 467.406005859375 177.0Q454.406005859375 177.0 448.406005859375 183.0Q445.406005859375 186.0 446.406005859375 188.5Q447.406005859375 191.0 447.406005859375 192.0Q446.406005859375 194.0 444.406005859375 195.5Q442.406005859375 197.0 441.406005859375 200.0Q441.406005859375 202.0 444.406005859375 208.0Q445.406005859375 211.0 442.406005859375 213.0Q438.406005859375 216.0 438.406005859375 220.0Q438.406005859375 224.0 441.406005859375 227.0Q445.406005859375 232.0 442.406005859375 236.0Q437.406005859375 241.0 443.406005859375 245.0Q447.406005859375 248.0 455.406005859375 249.0Q463.406005859375 250.0 463.406005859375 250.0H467.406005859375Q475.406005859375 250.0 481.906005859375 249.0Q488.406005859375 248.0 492.406005859375 248.0L541.406005859375 289.0L471.406005859375 354.0L529.406005859375 395.0Z" fill="#000000" stroke="none" transform="scale(1,-1) translate(0,-256)" /><path d="M284.406005859375 219.0Q284.406005859375 216.0 280.406005859375 213.0Q277.406005859375 211.0 279.406005859375 208.0Q282.406005859375 202.0 281.406005859375 200.0Q281.406005859375 197.0 278.906005859375 195.5Q276.406005859375 194.0 276.406005859375 192.0Q275.406005859375 191.0 276.906005859375 188.5Q278.406005859375 186.0 275.406005859375 183.0Q268.406005859375 177.0 256.406005859375 177.0Q241.406005859375 177.0 222.406005859375 185.0Q222.406005859375 185.0 207.406005859375 197.0Q192.406005859375 209.0 173.406005859375 224.5Q154.406005859375 240.0 139.406005859375 252.0Q124.406005859375 264.0 124.406005859375 264.0Q117.406005859375 272.0 117.406005859375 283.5Q117.406005859375 295.0 124.406005859375 303.0L193.406005859375 395.0L252.406005859375 354.0L182.406005859375 288.0L231.406005859375 248.0Q234.406005859375 248.0 240.906005859375 249.0Q247.406005859375 250.0 256.406005859375 250.0H259.406005859375Q259.406005859375 250.0 267.906005859375 249.0Q276.406005859375 248.0 279.406005859375 245.0Q285.406005859375 240.0 281.406005859375 235.0Q277.406005859375 232.0 281.406005859375 227.0Q285.406005859375 223.0 284.406005859375 219.0Z" fill="#000000" stroke="none" transform="scale(1,-1) translate(0,-256)" /><path d="M543.406005859375 384.0 473.406005859375 320.0H246.406005859375L177.406005859375 384.0Q177.406005859375 384.0 182.906005859375 394.5Q188.406005859375 405.0 206.406005859375 419.0Q224.406005859375 433.0 259.906005859375 443.5Q295.406005859375 454.0 355.406005859375 454.0Q414.406005859375 454.0 451.906005859375 443.5Q489.406005859375 433.0 508.906005859375 419.0Q528.406005859375 405.0 535.906005859375 394.5Q543.406005859375 384.0 543.406005859375 384.0Z" fill="#000000" stroke="none" transform="scale(1,-1) translate(0,-256)" /><path d="M459 440Q440 446 414.5 450.0Q389 454 355 454Q325 454 302.0 451.0Q279 448 262 443Q262 442 262 441Q262 420 287.5 396.5Q313 373 360 373Q407 373 432.5 396.0Q458 419 459 440Z" fill="#000000" stroke="none" transform="scale(1,-1) translate(0,-256)" /><path d="M585.44482421875 -329.92352294921875Q598.6421966552734 -322.5047912597656 611.9933700561523 -315.5618133544922Q625.3445434570312 -308.61883544921875 637.0493087768555 -295.376953125Q648.7540740966797 -282.13507080078125 657.21142578125 -255.22976684570312Q657.21142578125 -255.22976684570312 660.1614532470703 -259.5308837890625Q663.1114807128906 -263.8320007324219 668.9763488769531 -265.08905029296875Q672.4155883789062 -266.0792236328125 675.9456329345703 -264.93817138671875Q679.4756774902344 -263.797119140625 679.4756774902344 -263.797119140625Q679.7832794189453 -264.7486267089844 680.7060852050781 -267.6031494140625Q682.5868835449219 -280.6573791503906 679.0188140869141 -294.9474334716797Q675.4507446289062 -309.23748779296875 670.2362670898438 -317.2286376953125Q667.5382232666016 -323.3554382324219 655.6620635986328 -332.448974609375Q643.7859039306641 -341.5425109863281 626.3172912597656 -342.9853210449219Q621.7736358642578 -343.403076171875 620.0540161132812 -342.9079895019531Q605.1018371582031 -342.4864501953125 597.0383529663086 -335.63446044921875Q588.9748687744141 -328.782470703125 585.44482421875 -329.92352294921875Z" fill="#000000" stroke="none" transform="scale(1,-1) translate(0,-256)" /><path d="M621.6822814941406 568.7188568115234Q621.2097473144531 567.8375396728516 617.2252044677734 564.868049621582Q613.2406616210938 561.8985595703125 610.3365478515625 560.0517578125Q602.63818359375 552.8328857421875 592.0677032470703 548.2889175415039Q581.4972229003906 543.7449493408203 571.0916442871094 549.3249969482422Q557.1716003417969 559.0591278076172 558.8894653320312 571.1871490478516Q560.6073303222656 583.3151702880859 568.271240234375 592.2545928955078Q575.9351501464844 601.1940155029297 578.8392639160156 603.0408172607422Q578.8392639160156 603.0408172607422 575.9376068115234 594.9517593383789Q573.0359497070312 586.8627014160156 576.3486022949219 580.5474090576172Q581.9599304199219 569.5952911376953 595.3360748291016 568.663200378418Q608.7122192382812 567.7311096191406 610.6712646484375 567.8152770996094Q616.5484008789062 568.0677795410156 621.6822814941406 568.7188568115234Z" fill="#000000" stroke="none" transform="scale(1,-1) translate(0,-256)" /><path d="M-210.5354766845703 577.5082397460938Q-187.832763671875 572.2283477783203 -171.66934204101562 564.2114105224609Q-155.50592041015625 556.1944732666016 -144.5949249267578 548.5574035644531Q-142.04400634765625 546.8749237060547 -143.1597442626953 541.5521469116211Q-144.27548217773438 536.2293701171875 -172.59568786621094 538.3845520019531Q-211.42074584960938 541.2994689941406 -230.71463012695312 546.9748229980469Q-250.00851440429688 552.6501770019531 -256.2032775878906 558.6086654663086Q-262.3980407714844 564.5671539306641 -262.17215728759766 569.044792175293Q-261.94627380371094 573.5224304199219 -260.59552001953125 574.1737365722656Q-254.8274383544922 580.2835388183594 -242.43563842773438 581.4738235473633Q-230.04383850097656 582.6641082763672 -210.5354766845703 577.5082397460938Z" fill="#000000" stroke="none" transform="scale(1,-1) translate(0,-256)" /><path d="M267 805Q267 805 267.0 805.0Q267 805 267 805Q267 805 263.5 798.0Q260 791 261.0 779.5Q262 768 275 754L246 759Q241 775 246.0 785.0Q251 795 258.0 800.0Q265 805 267 805Q267 805 267.0 805.0Q267 805 267 805Q267 805 267.0 805.0Q267 805 267 805Z" fill="#000000" stroke="none" transform="scale(1,-1) translate(0,-256)" /><path d="M-71.0811767578125 751.7616577148438 -59.821685791015625 701.2466583251953Q-44.61419677734375 696.1862487792969 -38.94889831542969 690.301155090332Q-33.283599853515625 684.4160614013672 -33.283599853515625 684.4160614013672Q-33.283599853515625 684.4160614013672 -31.83154296875 685.9636077880859Q-30.379486083984375 687.5111541748047 -29.893096923828125 689.3184967041016Q-27.225067138671875 695.3843994140625 -25.519149780273438 703.6473388671875Q-23.813232421875 711.9102783203125 -25.9664306640625 723.1496429443359Q-28.362823486328125 733.4853363037109 -34.99378967285156 739.6302261352539Q-41.624755859375 745.7751159667969 -49.106903076171875 748.7571563720703Q-51.038238525390625 749.2767486572266 -52.969573974609375 749.7963409423828Z" fill="#000000" stroke="none" transform="scale(1,-1) translate(0,-256)" /><path d="M242.33311462402344 670.228759765625Q242.33311462402344 670.228759765625 243.10626983642578 670.6270980834961Q243.87942504882812 671.0254364013672 243.17440795898438 671.1224365234375Q252.72482299804688 677.8838500976562 265.4151306152344 676.1378479003906L250.0103759765625 595.4843444824219Q249.30535888671875 595.5813446044922 247.3265838623047 596.8630218505859Q245.34780883789062 598.1446990966797 245.34780883789062 598.1446990966797Q245.34780883789062 598.1446990966797 237.28461456298828 604.8059234619141Q229.22142028808594 611.4671478271484 227.33164978027344 623.8402709960938Q224.71322631835938 641.3607788085938 230.64678192138672 653.162239074707Q236.58033752441406 664.9636993408203 242.33311462402344 670.228759765625Z" fill="#000000" stroke="none" transform="scale(1,-1) translate(0,-256)" /><path d="M885.343994140625 463.0H918.343994140625Q949.343994140625 463.0 967.343994140625 471.0Q985.343994140625 479.0 993.843994140625 487.0Q1002.343994140625 495.0 1002.343994140625 495.0L992.343994140625 507.0L885.343994140625 498.0Z" fill="#000000" stroke="none" transform="scale(1,-1) translate(0,-256)" /><path d="M-1067.9134826660156 -81.9884033203125Q-1073.8267211914062 -92.946044921875 -1085.8336791992188 -93.24057006835938Q-1097.8406372070312 -93.53509521484375 -1097.8406372070312 -93.53509521484375Q-1097.8406372070312 -93.53509521484375 -1092.1292572021484 -89.22442626953125Q-1086.4178771972656 -84.91375732421875 -1084.6814270019531 -79.18682861328125Q-1083.5738220214844 -72.11602783203125 -1096.7187805175781 -67.619140625Q-1096.7187805175781 -67.619140625 -1096.7187805175781 -67.619140625Q-1096.7187805175781 -67.619140625 -1096.7187805175781 -67.619140625Q-1096.7187805175781 -67.619140625 -1087.9194564819336 -66.36837768554688Q-1079.120132446289 -65.11761474609375 -1071.7803573608398 -67.82608032226562Q-1064.4405822753906 -70.5345458984375 -1067.9134826660156 -81.9884033203125Z" fill="#000000" stroke="none" transform="scale(1,-1) translate(0,-256)" /><path d="M1027.1700744628906 556.8558044433594Q1027.1700744628906 556.8558044433594 1028.9069061279297 555.9829864501953Q1030.6437377929688 555.1101684570312 1030.6437377929688 555.1101684570312Q1030.6437377929688 555.1101684570312 1031.0487823486328 544.1097869873047Q1031.4538269042969 533.1094055175781 1032.119972229004 518.6187973022461Q1032.786117553711 504.12818908691406 1032.397346496582 492.56700897216797Q1032.0085754394531 481.0058288574219 1030.4955444335938 478.88702392578125Q1026.5637664794922 475.5844268798828 1019.0837249755859 475.02467346191406Q1014.9281463623047 474.7136993408203 1011.0762252807617 475.9296340942383Q1007.2243041992188 477.14556884765625 1003.8252410888672 477.8939971923828Q990.9109039306641 482.94432067871094 974.7146606445312 492.76300048828125Q958.5184173583984 502.58168029785156 946.1740951538086 511.1844253540039Q933.8297729492188 519.7871704101562 933.8297729492188 519.7871704101562Q938.6672668457031 522.1547546386719 942.8654022216797 527.4828643798828Q947.0635375976562 532.8109741210938 948.6511688232422 533.9325714111328Q957.7293548583984 546.6454010009766 979.5353775024414 556.8009262084961Q1001.3414001464844 566.9564514160156 1027.1700744628906 556.8558044433594Z" fill="#000000" stroke="none" transform="scale(1,-1) translate(0,-256)" /><path d="M-484.4778289794922 763.2777862548828Q-484.4778289794922 763.2777862548828 -486.02816009521484 764.8979873657227Q-487.5784912109375 766.5181884765625 -487.5784912109375 766.5181884765625Q-487.4292907714844 768.5126037597656 -485.6283721923828 781.4141082763672Q-483.82745361328125 794.3156127929688 -482.36749267578125 808.2454223632812Q-480.90753173828125 822.1752319335938 -480.4599304199219 828.1584777832031Q-480.1615295410156 832.1473083496094 -479.93772888183594 835.1389312744141Q-479.71392822265625 838.1305541992188 -476.16566467285156 840.8733978271484Q-471.7862854003906 843.5540466308594 -464.3062438964844 842.9942932128906Q-460.1506652832031 842.6833190917969 -456.52254486083984 840.9076309204102Q-452.89442443847656 839.1319427490234 -449.7191619873047 836.8887481689453Q-437.62542724609375 830.9697875976562 -423.0703887939453 818.8498992919922Q-408.5153503417969 806.7300109863281 -397.5884323120117 796.3858108520508Q-386.66151428222656 786.0416107177734 -386.66151428222656 786.0416107177734Q-391.7974090576172 784.4203643798828 -396.7415466308594 779.7763977050781Q-401.68568420410156 775.1324310302734 -403.4971160888672 773.2624053955078Q-414.2911071777344 763.0394592285156 -437.3653335571289 756.2424545288086Q-460.43955993652344 749.4454498291016 -484.4778289794922 763.2777862548828Z" fill="#000000" stroke="none" transform="scale(1,-1) translate(0,-256)" /><path d="M884.9380035400391 463.0H851.9380035400391Q820.9380035400391 463.0 802.9380035400391 471.0Q784.9380035400391 479.0 776.4380035400391 487.0Q767.9380035400391 495.0 767.9380035400391 495.0L777.9380035400391 507.0L884.9380035400391 498.0Z" fill="#000000" stroke="none" transform="scale(1,-1) translate(0,-256)" /><path d="M2838.1944885253906 -81.9884033203125Q2844.1077270507812 -92.946044921875 2856.1146850585938 -93.24057006835938Q2868.1216430664062 -93.53509521484375 2868.1216430664062 -93.53509521484375Q2868.1216430664062 -93.53509521484375 2862.4102630615234 -89.22442626953125Q2856.6988830566406 -84.91375732421875 2854.962432861328 -79.18682861328125Q2853.8548278808594 -72.11602783203125 2866.999786376953 -67.619140625Q2866.999786376953 -67.619140625 2866.999786376953 -67.619140625Q2866.999786376953 -67.619140625 2866.999786376953 -67.619140625Q2866.999786376953 -67.619140625 2858.2004623413086 -66.36837768554688Q2849.401138305664 -65.11761474609375 2842.061363220215 -67.82608032226562Q2834.7215881347656 -70.5345458984375 2838.1944885253906 -81.9884033203125Z" fill="#000000" stroke="none" transform="scale(1,-1) translate(0,-256)" /><path d="M505.625 900.0Q508.625 883.0 508.125 857.0Q507.625 831.0 494.625 808.0Q484.625 791.0 466.625 775.0Q448.625 759.0 430.625 747.0Q426.625 744.0 426.625 739.0Q426.625 734.0 430.625 731.0Q443.625 721.0 452.625 707.0Q456.625 701.0 451.625 695.5Q446.625 690.0 440.625 694.0Q427.625 702.0 408.125 708.0Q388.625 714.0 359.625 714.0Q330.625 714.0 311.125 708.0Q291.625 702.0 278.625 694.0Q272.625 690.0 267.625 695.5Q262.625 701.0 266.625 707.0Q275.625 722.0 288.625 731.0Q292.625 734.0 292.625 739.0Q292.625 744.0 288.625 746.0Q270.625 759.0 252.625 774.5Q234.625 790.0 224.625 808.0Q211.625 831.0 211.125 857.5Q210.625 884.0 213.625 900.0Q214.625 907.0 220.625 910.5Q226.625 914.0 233.625 912.0Q248.625 906.0 271.625 892.5Q294.625 879.0 307.625 856.0Q317.625 839.0 322.125 815.0Q326.625 791.0 328.625 770.0Q329.625 762.0 335.125 757.0Q340.625 752.0 348.625 753.0Q351.625 753.0 359.625 753.0Q367.625 753.0 370.625 753.0Q378.625 752.0 384.125 757.0Q389.625 762.0 390.625 770.0Q392.625 791.0 397.125 815.0Q401.625 839.0 411.625 856.0Q425.625 879.0 447.625 892.5Q469.625 906.0 485.625 912.0Q492.625 914.0 498.625 910.5Q504.625 907.0 505.625 900.0Z" fill="#000000" stroke="none" transform="scale(1,-1) translate(0,-256)" /><path d="M747.5510406494141 -831.3680114746094Q760.7484130859375 -823.9492797851562 774.0995864868164 -817.0063018798828Q787.4507598876953 -810.0633239746094 799.1555252075195 -796.8214416503906Q810.8602905273438 -783.5795593261719 819.3176422119141 -756.6742553710938Q819.3176422119141 -756.6742553710938 822.2676696777344 -760.9753723144531Q825.2176971435547 -765.2764892578125 831.0825653076172 -766.5335388183594Q834.8294067382812 -768.4752197265625 838.2056503295898 -766.8584136962891Q841.5818939208984 -765.2416076660156 841.5818939208984 -765.2416076660156Q842.1970977783203 -767.1446228027344 843.1199035644531 -769.9991455078125Q845.0007019042969 -783.0533752441406 841.2788314819336 -796.86767578125Q837.5569610595703 -810.6819763183594 832.6500854492188 -819.6246337890625Q829.6444396972656 -824.7999267578125 817.7682800292969 -833.8934631347656Q805.8921203613281 -842.9869995117188 788.4235076904297 -844.4298095703125Q783.8798522949219 -844.8475646972656 782.1602325439453 -844.3524780273438Q767.2080535888672 -843.9309387207031 759.2983703613281 -837.5547027587891Q751.3886871337891 -831.178466796875 747.5510406494141 -831.3680114746094Z" fill="#000000" stroke="none" transform="scale(1,-1) translate(0,-256)" /><path d="M1014.1212463378906 358.27134704589844Q1012.9054565429688 357.7886047363281 1008.9209136962891 354.8191146850586Q1004.9363708496094 351.84962463378906 1002.7755126953125 349.604248046875Q994.3338928222656 342.78395080566406 983.7634124755859 338.23998260498047Q973.1929321289062 333.6960144042969 963.5306091308594 338.8774871826172Q948.8673095703125 349.01019287109375 950.9568023681641 360.93892669677734Q953.0462951660156 372.86766052246094 960.3385772705078 382.0063705444336Q967.630859375 391.14508056640625 970.5349731445312 392.99188232421875Q970.5349731445312 392.99188232421875 967.6333160400391 384.90282440185547Q964.7316589355469 376.8137664794922 968.0443115234375 370.49847412109375Q974.3988952636719 359.1477813720703 987.4034118652344 358.41497802734375Q1000.4079284667969 357.6821746826172 1003.1102294921875 357.3677673339844Q1008.2441101074219 358.0188446044922 1014.1212463378906 358.27134704589844Z" fill="#000000" stroke="none" transform="scale(1,-1) translate(0,-256)" /><path d="M316.8085174560547 577.5082397460938Q339.51123046875 572.2283477783203 355.6746520996094 564.2114105224609Q371.83807373046875 556.1944732666016 382.7490692138672 548.5574035644531Q385.29998779296875 546.8749237060547 384.1842498779297 541.5521469116211Q383.0685119628906 536.2293701171875 354.74830627441406 538.3845520019531Q315.9232482910156 541.2994689941406 296.6293640136719 546.9748229980469Q277.3354797363281 552.6501770019531 271.1407165527344 558.6086654663086Q264.9459533691406 564.5671539306641 265.17183685302734 569.044792175293Q265.39772033691406 573.5224304199219 266.74847412109375 574.1737365722656Q272.5165557861328 580.2835388183594 284.9083557128906 581.4738235473633Q297.30015563964844 582.6641082763672 316.8085174560547 577.5082397460938Z" fill="#000000" stroke="none" transform="scale(1,-1) translate(0,-256)" /><path d="M794.25 805.0Q794.25 805.0 794.25 805.0Q794.25 805.0 794.25 805.0Q794.25 805.0 790.75 798.0Q787.25 791.0 788.25 779.5Q789.25 768.0 802.25 754.0L773.25 759.0Q768.25 775.0 773.25 785.0Q778.25 795.0 785.25 800.0Q792.25 805.0 794.25 805.0Q794.25 805.0 794.25 805.0Q794.25 805.0 794.25 805.0Q794.25 805.0 794.25 805.0Q794.25 805.0 794.25 805.0Z" fill="#000000" stroke="none" transform="scale(1,-1) translate(0,-256)" /><path d="M-579.9880676269531 888.6742248535156 -568.7285766601562 838.1592254638672Q-553.5210876464844 833.0988159179688 -547.8557891845703 827.2137222290039Q-542.1904907226562 821.3286285400391 -542.1904907226562 821.3286285400391Q-542.1904907226562 821.3286285400391 -541.2212677001953 823.0060729980469Q-540.2520446777344 824.6835174560547 -538.7999877929688 826.2310638427734Q-536.1319580078125 832.2969665527344 -534.4260406494141 840.5599060058594Q-532.7201232910156 848.8228454589844 -534.8733215332031 860.0622100830078Q-537.2697143554688 870.3979034423828 -543.9006805419922 876.5427932739258Q-550.5316467285156 882.6876831054688 -558.0137939453125 885.6697235107422Q-559.9451293945312 886.1893157958984 -561.87646484375 886.7089080810547Z" fill="#000000" stroke="none" transform="scale(1,-1) translate(0,-256)" /><path d="M613.8771209716797 619.1096954345703Q614.1496734619141 621.0910491943359 615.4234313964844 619.9063720703125Q624.9738464355469 626.6677856445312 636.9591369628906 625.0187835693359L622.2593994140625 544.2682800292969Q620.849365234375 544.4622802734375 618.8705902099609 545.7439575195312Q616.8918151855469 547.025634765625 616.8918151855469 547.025634765625Q616.8918151855469 547.025634765625 608.8286209106445 553.6868591308594Q600.7654266357422 560.3480834960938 598.8756561279297 572.7212066650391Q596.2572326660156 590.2417144775391 602.190788269043 602.0431747436523Q608.1243438720703 613.8446350097656 613.8771209716797 619.1096954345703Z" fill="#000000" stroke="none" transform="scale(1,-1) translate(0,-256)" /><path d="M1031 900Q1034 883 1033.5 857.0Q1033 831 1020 808Q1010 791 992.0 775.0Q974 759 956 747Q952 744 952.0 739.0Q952 734 956 731Q969 721 978 707Q982 701 977.0 695.5Q972 690 966 694Q953 702 933.5 708.0Q914 714 885 714Q856 714 836.5 708.0Q817 702 804 694Q798 690 793.0 695.5Q788 701 792 707Q801 722 814 731Q818 734 818.0 739.0Q818 744 814 746Q796 759 778.0 774.5Q760 790 750 808Q737 831 736.5 857.5Q736 884 739 900Q740 907 746.0 910.5Q752 914 759 912Q774 906 797.0 892.5Q820 879 833 856Q843 839 847.5 815.0Q852 791 854 770Q855 762 860.5 757.0Q866 752 874 753Q877 753 885.0 753.0Q893 753 896 753Q904 752 909.5 757.0Q915 762 916 770Q918 791 922.5 815.0Q927 839 937 856Q951 879 973.0 892.5Q995 906 1011 912Q1018 914 1024.0 910.5Q1030 907 1031 900Z" fill="#000000" stroke="none" transform="scale(1,-1) translate(0,-256)" /></svg>