<?xml version="1.0" encoding="utf-8" ?>
<svg baseProfile="full" height="256" version="1.1" width="256" xmlns="http://www.w3.org/2000/svg" xmlns:ev="http://www.w3.org/2001/xml-events" xmlns:xlink="http://www.w3.org/1999/xlink"><defs /><path d="M359.4512481689453 776.3035125732422Q383.28529357910156 776.3035125732422 405.4600067138672 764.0847930908203Q427.6347198486328 751.8660736083984 444.98228454589844 729.6913604736328Q462.32984924316406 707.5166473388672 472.4366912841797 676.8944244384766Q482.5435333251953 646.2722015380859 482.5435333251953 609.1634979248047Q482.5435333251953 572.3564910888672 472.2858428955078 544.9020843505859Q462.0281524658203 517.4476776123047 444.37889099121094 499.1950225830078Q426.72962951660156 480.94236755371094 404.7057647705078 471.89146423339844Q382.68190002441406 462.84056091308594 359.4512481689453 462.84056091308594Q335.9188995361328 462.84056091308594 313.89503479003906 471.89146423339844Q291.8711700439453 480.94236755371094 274.22190856933594 499.1950225830078Q256.57264709472656 517.4476776123047 246.31495666503906 544.9020843505859Q236.05726623535156 572.3564910888672 236.05726623535156 609.1634979248047Q236.05726623535156 646.2722015380859 246.1641082763672 676.8944244384766Q256.2709503173828 707.5166473388672 273.61851501464844 729.6913604736328Q290.96607971191406 751.8660736083984 313.1407928466797 764.0847930908203Q335.3155059814453 776.3035125732422 359.4512481689453 776.3035125732422Z" fill="#ffca28" stroke="none" transform="scale(1,-1) translate(0,-256)" /><path d="M884.7324371337891 776.3035125732422Q908.5664825439453 776.3035125732422 930.7411956787109 764.0847930908203Q952.9159088134766 751.8660736083984 970.2634735107422 729.6913604736328Q987.6110382080078 707.5166473388672 997.7178802490234 676.8944244384766Q1007.8247222900391 646.2722015380859 1007.8247222900391 609.1634979248047Q1007.8247222900391 572.3564910888672 997.5670318603516 544.9020843505859Q987.3093414306641 517.4476776123047 969.6600799560547 499.1950225830078Q952.0108184814453 480.94236755371094 929.9869537353516 471.89146423339844Q907.9630889892578 462.84056091308594 884.7324371337891 462.84056091308594Q861.2000885009766 462.84056091308594 839.1762237548828 471.89146423339844Q817.1523590087891 480.94236755371094 799.5030975341797 499.1950225830078Q781.8538360595703 517.4476776123047 771.5961456298828 544.9020843505859Q761.3384552001953 572.3564910888672 761.3384552001953 609.1634979248047Q761.3384552001953 646.2722015380859 771.4452972412109 676.8944244384766Q781.5521392822266 707.5166473388672 798.8997039794922 729.6913604736328Q816.2472686767578 751.8660736083984 838.4219818115234 764.0847930908203Q860.5966949462891 776.3035125732422 884.7324371337891 776.3035125732422Z" fill="#ffca28" stroke="none" transform="scale(1,-1) translate(0,-256)" /></svg>