<?xml version="1.0" encoding="utf-8" ?>
<svg baseProfile="full" height="256" version="1.1" width="256" xmlns="http://www.w3.org/2000/svg" xmlns:ev="http://www.w3.org/2001/xml-events" xmlns:xlink="http://www.w3.org/1999/xlink"><defs /><path d="M630 -170Q664 -183 695.0 -180.0Q726 -177 749.0 -167.0Q772 -157 785.5 -147.0Q799 -137 799 -137Q799 -137 786.0 -137.5Q773 -138 756.5 -135.0Q740 -132 729 -122Q683 -83 656.0 -45.5Q629 -8 607 34L517 -28Q517 -28 526.0 -45.0Q535 -62 551.0 -86.5Q567 -111 587.0 -134.5Q607 -158 630 -170Z" fill="#8d6e63" stroke="none" transform="scale(1,-1) translate(0,-256)" /><path d="M583 74 498 31Q490 27 483.0 36.0Q476 45 471 58Q456 96 438.5 126.5Q421 157 409.0 181.5Q397 206 400 225L510 212Q509 203 520.5 180.0Q532 157 549.5 128.5Q567 100 583 74Z" fill="#8d6e63" stroke="none" transform="scale(1,-1) translate(0,-256)" /><path d="M536 -62 621 -15 590 62Q590 62 575.5 54.0Q561 46 543.0 35.5Q525 25 511.0 17.0Q497 9 497 8Q497 8 503.0 -2.5Q509 -13 516.5 -27.0Q524 -41 530.0 -51.5Q536 -62 536 -62Z" fill="#8d6e63" stroke="none" transform="scale(1,-1) translate(0,-256)" /><path d="M635 -39 543 -90 560 -137 655 -102Z" fill="#8d6e63" stroke="none" transform="scale(1,-1) translate(0,-256)" /></svg>