<?xml version="1.0" encoding="utf-8" ?>
<svg baseProfile="full" height="256" version="1.1" width="256" xmlns="http://www.w3.org/2000/svg" xmlns:ev="http://www.w3.org/2001/xml-events" xmlns:xlink="http://www.w3.org/1999/xlink"><defs /><path d="M798 269 781 260Q814 190 827 63Q842 -83 796 -118Q770 -138 729 -108Q674 -67 605 53L589 44Q660 -80 718 -123Q771 -161 807 -133Q862 -91 846 65Q833 195 798 269Z" fill="#bcaaa4" stroke="none" transform="scale(1,-1) translate(0,-256)" /><path d="M553 96Q557 87 567.5 84.5Q578 82 578 82Q566 107 555.0 136.0Q544 165 537.0 188.5Q530 212 531 219L513 222Q511 209 522.0 173.5Q533 138 553 96Z" fill="#bcaaa4" stroke="none" transform="scale(1,-1) translate(0,-256)" /><path d="M613 -20 630 -10 590 62Q590 62 584.5 56.0Q579 50 582 43Q584 37 591.5 22.0Q599 7 606.0 -6.5Q613 -20 613 -20Z" fill="#bcaaa4" stroke="none" transform="scale(1,-1) translate(0,-256)" /><path d="M582 -145 666 -108 643 -35 626 -44 644 -97 560 -137Z" fill="#bcaaa4" stroke="none" transform="scale(1,-1) translate(0,-256)" /></svg>