<?xml version="1.0" encoding="utf-8" ?>
<svg baseProfile="full" height="256" version="1.1" width="256" xmlns="http://www.w3.org/2000/svg" xmlns:ev="http://www.w3.org/2001/xml-events" xmlns:xlink="http://www.w3.org/1999/xlink"><defs /><path d="M810 -120 695 -152Q719 -102 725.5 -52.0Q732 -2 728.5 44.5Q725 91 716.0 128.5Q707 166 697.5 191.0Q688 216 685 223L789 265Q797 247 808.0 213.0Q819 179 828.0 135.0Q837 91 840.5 44.0Q844 -3 837.5 -46.0Q831 -89 810 -120Z" fill="#784d30" stroke="none" transform="scale(1,-1) translate(0,-256)" /><path d="M613 -158 590 -135 655 -102 634 -46 643 -35 704 -113Z" fill="#784d30" stroke="none" transform="scale(1,-1) translate(0,-256)" /><path d="M460 82 447 108 527 157 541 123Z" fill="#784d30" stroke="none" transform="scale(1,-1) translate(0,-256)" /><path d="M480 40Q480 40 482.0 37.0Q484 34 486 33Q491 29 494.5 30.0Q498 31 498 31L583 74L578 83L568 84Z" fill="#784d30" stroke="none" transform="scale(1,-1) translate(0,-256)" /></svg>