<?xml version="1.0" encoding="utf-8" ?>
<svg baseProfile="full" height="256" version="1.1" width="256" xmlns="http://www.w3.org/2000/svg" xmlns:ev="http://www.w3.org/2001/xml-events" xmlns:xlink="http://www.w3.org/1999/xlink"><defs /><path d="M168 457Q164 459 157.5 468.0Q151 477 148.5 496.5Q146 516 153.0 549.5Q160 583 183 632Q197 662 219.0 687.5Q241 713 267 734Q279 742 296.5 750.5Q314 759 332.5 761.0Q351 763 365 753Q382 740 381.5 727.5Q381 715 370.0 703.5Q359 692 346 682Q292 643 264.0 606.0Q236 569 225.0 538.5Q214 508 208 488Q206 482 202.5 472.0Q199 462 190.5 456.5Q182 451 168 457Z" fill="#757f40" stroke="none" transform="scale(1,-1) translate(0,-256)" /></svg>