<?xml version="1.0" encoding="utf-8" ?>
<svg baseProfile="full" height="256" version="1.1" width="256" xmlns="http://www.w3.org/2000/svg" xmlns:ev="http://www.w3.org/2001/xml-events" xmlns:xlink="http://www.w3.org/1999/xlink"><defs /><path d="M1158 217Q1166 211 1161.5 202.5Q1157 194 1152 188Q1144 178 1136.5 165.5Q1129 153 1122 156Q1117 158 1119.0 171.5Q1121 185 1129 198Q1136 208 1144.0 214.5Q1152 221 1158 217Z" fill="#ec9c2a" stroke="none" transform="scale(1,-1) translate(0,-256)" /><path d="M1043 117Q1038 124 1025.5 122.0Q1013 120 1007 118Q1001 115 988.5 106.5Q976 98 975 91Q975 84 984.0 71.0Q993 58 1005 60Q1011 61 1012.5 70.5Q1014 80 1020 88Q1026 96 1036.5 102.5Q1047 109 1043 117Z" fill="#ec9c2a" stroke="none" transform="scale(1,-1) translate(0,-256)" /><path d="M876 77Q873 84 862.0 85.5Q851 87 839 85Q825 83 815.5 73.5Q806 64 801 52Q796 40 798.5 23.5Q801 7 812 6Q821 5 829.0 16.5Q837 28 844 36Q851 44 865.0 57.5Q879 71 876 77Z" fill="#ec9c2a" stroke="none" transform="scale(1,-1) translate(0,-256)" /><path d="M577 -9Q566 1 570.5 16.0Q575 31 586.5 44.5Q598 58 611 65Q631 76 653.5 76.0Q676 76 676 67Q676 60 660.5 51.5Q645 43 629 21Q625 17 616.0 6.0Q607 -5 596.0 -11.0Q585 -17 577 -9Z" fill="#ec9c2a" stroke="none" transform="scale(1,-1) translate(0,-256)" /><path d="M413 82Q413 89 401.0 91.0Q389 93 373.0 89.5Q357 86 347 76Q335 64 331.5 46.0Q328 28 343 20Q354 15 361.0 21.0Q368 27 373.5 36.5Q379 46 383 51Q393 63 403.0 68.5Q413 74 413 82Z" fill="#ec9c2a" stroke="none" transform="scale(1,-1) translate(0,-256)" /><path d="M183 97Q176 101 172.5 113.5Q169 126 171.5 139.5Q174 153 185 160Q194 166 210.0 164.0Q226 162 227 152Q227 143 219.5 139.5Q212 136 205 128Q198 120 195.0 106.0Q192 92 183 97Z" fill="#ec9c2a" stroke="none" transform="scale(1,-1) translate(0,-256)" /><path d="M110 170Q94 173 92.5 192.0Q91 211 96 223Q102 240 117.0 242.5Q132 245 138 235Q144 225 138.0 220.0Q132 215 127 206Q123 201 122.0 191.5Q121 182 119.0 175.5Q117 169 110 170Z" fill="#ec9c2a" stroke="none" transform="scale(1,-1) translate(0,-256)" /></svg>