<?xml version="1.0" encoding="utf-8" ?>
<svg baseProfile="full" height="256" version="1.1" width="256" xmlns="http://www.w3.org/2000/svg" xmlns:ev="http://www.w3.org/2001/xml-events" xmlns:xlink="http://www.w3.org/1999/xlink"><defs /><path d="M703 877Q709 880 730.5 866.5Q752 853 778.5 827.0Q805 801 827 765Q848 730 846.5 697.0Q845 664 830.0 638.0Q815 612 798 598Q772 577 740.0 551.5Q708 526 687 495Q673 474 670.5 451.0Q668 428 668.0 411.5Q668 395 660 394Q648 393 625.0 408.5Q602 424 583 444Q561 465 541.0 497.0Q521 529 516 585Q513 617 524.5 642.5Q536 668 553.5 687.0Q571 706 589.0 718.5Q607 731 617 738Q637 752 658.5 770.0Q680 788 690 809Q697 823 697.0 837.5Q697 852 697.0 862.5Q697 873 703 877Z" fill="#eaeaea" stroke="none" transform="scale(1,-1) translate(0,-256)" /></svg>