<?xml version="1.0" encoding="utf-8" ?>
<svg baseProfile="full" height="256" version="1.1" width="256" xmlns="http://www.w3.org/2000/svg" xmlns:ev="http://www.w3.org/2001/xml-events" xmlns:xlink="http://www.w3.org/1999/xlink"><defs /><path d="M192 49Q192 49 206.0 41.0Q220 33 240.0 23.0Q260 13 277 6Q294 0 316.5 -7.0Q339 -14 355.5 -19.0Q372 -24 372 -24Q372 -24 383.5 -27.0Q395 -30 410.0 -34.5Q425 -39 436.5 -43.5Q448 -48 449 -51Q449 -53 440.0 -69.0Q431 -85 419.5 -104.5Q408 -124 399.0 -138.5Q390 -153 390 -153Q390 -153 375.0 -149.0Q360 -145 338.5 -137.5Q317 -130 297 -121Q267 -108 248.5 -96.0Q230 -84 230 -84Z" fill="#e0e0e0" stroke="none" transform="scale(1,-1) translate(0,-256)" /></svg>