<?xml version="1.0" encoding="utf-8" ?>
<svg baseProfile="full" height="256" version="1.1" width="256" xmlns="http://www.w3.org/2000/svg" xmlns:ev="http://www.w3.org/2001/xml-events" xmlns:xlink="http://www.w3.org/1999/xlink"><defs /><path d="M543 451Q542 456 520.0 455.5Q498 455 470 448Q433 440 409.5 423.5Q386 407 395 388Q400 376 413.5 382.5Q427 389 444.5 401.5Q462 414 479 422Q513 438 528.5 441.0Q544 444 543 451Z" fill="#ce701d" stroke="none" transform="scale(1,-1) translate(0,-256)" /><path d="M589 411Q594 409 586.5 390.0Q579 371 570 344Q567 335 563.0 319.5Q559 304 550.5 293.5Q542 283 528 288Q515 292 516.5 304.5Q518 317 527.0 333.0Q536 349 545 364Q558 385 570.5 399.5Q583 414 589 411Z" fill="#ce701d" stroke="none" transform="scale(1,-1) translate(0,-256)" /><path d="M685 416Q690 419 703.5 403.0Q717 387 726 376Q729 372 736.0 361.0Q743 350 749.5 337.0Q756 324 756.5 313.5Q757 303 746 299Q731 294 722.0 304.5Q713 315 707.5 332.5Q702 350 698 364Q690 384 685.5 399.0Q681 414 685 416Z" fill="#ce701d" stroke="none" transform="scale(1,-1) translate(0,-256)" /><path d="M734 445Q734 452 763.5 448.0Q793 444 830 431Q866 418 880.5 408.5Q895 399 890 384Q886 374 874.0 376.5Q862 379 845.5 387.5Q829 396 814 405Q784 420 758.5 428.5Q733 437 734 445Z" fill="#ce701d" stroke="none" transform="scale(1,-1) translate(0,-256)" /></svg>