<?xml version="1.0" encoding="utf-8" ?>
<svg baseProfile="full" height="256" version="1.1" width="256" xmlns="http://www.w3.org/2000/svg" xmlns:ev="http://www.w3.org/2001/xml-events" xmlns:xlink="http://www.w3.org/1999/xlink"><defs /><path d="M274 579Q280 565 277.0 554.0Q274 543 264 530Q248 508 238.0 488.5Q228 469 223 456Q222 453 224.5 451.0Q227 449 230 452Q243 467 267.0 491.0Q291 515 314 533Q334 548 333.0 562.0Q332 576 323 586Q320 590 313.0 605.0Q306 620 298.0 639.0Q290 658 283.5 675.5Q277 693 275 703Q260 765 261.5 804.0Q263 843 267 861Q268 864 265.5 865.0Q263 866 262 864Q256 853 249.0 835.5Q242 818 238 792Q230 749 240.0 695.0Q250 641 274 579Z" fill="#ef6c00" stroke="none" transform="scale(1,-1) translate(0,-256)" /><path d="M1001.0 579.0Q995.0 565.0 998.0 554.0Q1001.0 543.0 1011.0 530.0Q1027.0 508.0 1037.0 488.5Q1047.0 469.0 1052.0 456.0Q1053.0 453.0 1050.5 451.0Q1048.0 449.0 1045.0 452.0Q1032.0 467.0 1008.0 491.0Q984.0 515.0 961.0 533.0Q941.0 548.0 942.0 562.0Q943.0 576.0 952.0 586.0Q955.0 590.0 962.0 605.0Q969.0 620.0 977.0 639.0Q985.0 658.0 991.5 675.5Q998.0 693.0 1000.0 703.0Q1015.0 765.0 1013.5 804.0Q1012.0 843.0 1008.0 861.0Q1007.0 864.0 1009.5 865.0Q1012.0 866.0 1013.0 864.0Q1019.0 853.0 1026.0 835.5Q1033.0 818.0 1037.0 792.0Q1045.0 749.0 1035.0 695.0Q1025.0 641.0 1001.0 579.0Z" fill="#ef6c00" stroke="none" transform="scale(1,-1) translate(0,-256)" /></svg>