<?xml version="1.0" encoding="utf-8" ?>
<svg baseProfile="full" height="256" version="1.1" width="256" xmlns="http://www.w3.org/2000/svg" xmlns:ev="http://www.w3.org/2001/xml-events" xmlns:xlink="http://www.w3.org/1999/xlink"><defs /><path d="M507 200Q582 200 643.5 189.0Q705 178 741.5 158.5Q778 139 778 116Q778 102 763.5 89.0Q749 76 724 66Q711 60 694.0 35.0Q677 10 657.0 -25.0Q637 -60 615.0 -97.0Q593 -134 569.5 -165.0Q546 -196 522 -212H466Q453 -196 441.0 -166.0Q429 -136 417.5 -100.5Q406 -65 395.5 -32.5Q385 0 374.0 22.5Q363 45 351 47Q299 58 267.0 76.0Q235 94 235 116Q235 139 272.0 158.0Q309 177 370.5 188.5Q432 200 507 200Z" fill="#404042" stroke="none" transform="scale(1,-1) translate(0,-256)" /><path d="M1117.583480834961 -121.9627685546875Q1117.4437713623047 -90.99029541015625 1093.5980834960938 -68.90046691894531Q1069.7523956298828 -46.810638427734375 1035.6873321533203 -47.996734619140625Q1002.6453704833984 -47.11334228515625 978.2244567871094 -69.16278076171875Q953.8035430908203 -91.21221923828125 953.9432525634766 -122.1846923828125Q954.0829620361328 -153.15716552734375 977.9286499023438 -175.2469940185547Q1001.7743377685547 -197.33682250976562 1036.3625946044922 -197.697021484375Q1068.881362915039 -197.03411865234375 1093.3022766113281 -174.98468017578125Q1117.7231903076172 -152.93524169921875 1117.583480834961 -121.9627685546875Z" fill="#404042" stroke="none" transform="scale(1,-1) translate(0,-256)" /><path d="M807 730Q814 715 821.5 699.0Q829 683 836 668Q836 643 801.0 625.5Q766 608 707.5 597.5Q649 587 579.0 583.5Q509 580 439.0 583.5Q369 587 310.5 597.5Q252 608 216.5 625.5Q181 643 181 668Q188 684 195.0 700.0Q202 716 209 731Q236 715 282.5 704.0Q329 693 387.5 687.5Q446 682 508.0 682.0Q570 682 628.0 687.5Q686 693 733.0 703.5Q780 714 807 730Z" fill="#404042" stroke="none" transform="scale(1,-1) translate(0,-256)" /></svg>