<?xml version="1.0" encoding="utf-8" ?>
<svg baseProfile="full" height="256" version="1.1" width="256" xmlns="http://www.w3.org/2000/svg" xmlns:ev="http://www.w3.org/2001/xml-events" xmlns:xlink="http://www.w3.org/1999/xlink"><defs /><path d="M173 -39Q173 -27 165 -18Q156 -9 143 -9Q113 -9 113 -39Q113 -51 122 -60Q131 -69 143 -69Q156 -69 165 -60Q173 -51 173 -39ZM164 -39Q164 -48 158 -54Q152 -60 143 -60Q123 -60 123 -39Q123 -18 143 -18Q164 -18 164 -39Z" fill="#9e9e9e" stroke="none" transform="scale(1,-1) translate(0,-256)" /><path d="M880 -39Q880 -9 850 -9Q820 -9 820 -39Q820 -51 829 -60Q838 -69 850 -69Q880 -69 880 -39ZM871 -39Q871 -48 865 -54Q859 -60 850 -60Q842 -60 836 -54Q830 -48 830 -39Q830 -18 850 -18Q871 -18 871 -39Z" fill="#9e9e9e" stroke="none" transform="scale(1,-1) translate(0,-256)" /></svg>