<?xml version="1.0" encoding="utf-8" ?>
<svg baseProfile="full" height="256" version="1.1" width="256" xmlns="http://www.w3.org/2000/svg" xmlns:ev="http://www.w3.org/2001/xml-events" xmlns:xlink="http://www.w3.org/1999/xlink"><defs /><path d="M506.8972930908203 847.0460815429688Q567.6167297363281 847.0460815429688 624.1088638305664 815.9177627563477Q680.6009979248047 784.7894439697266 724.795524597168 728.2973098754883Q768.9900512695312 671.80517578125 794.738166809082 593.7922286987305Q820.4862823486328 515.7792816162109 820.4862823486328 421.2414245605469Q820.4862823486328 327.47216796875 794.3538665771484 257.52952575683594Q768.2214508056641 187.58688354492188 723.2583236694336 141.08655548095703Q678.2951965332031 94.58622741699219 622.1873626708984 71.52821350097656Q566.0795288085938 48.47019958496094 506.8972930908203 48.47019958496094Q446.9464569091797 48.47019958496094 390.838623046875 71.52821350097656Q334.7307891845703 94.58622741699219 289.76766204833984 141.08655548095703Q244.80453491210938 187.58688354492188 218.672119140625 257.52952575683594Q192.53970336914062 327.47216796875 192.53970336914062 421.2414245605469Q192.53970336914062 515.7792816162109 218.2878189086914 593.7922286987305Q244.0359344482422 671.80517578125 288.23046112060547 728.2973098754883Q332.42498779296875 784.7894439697266 388.91712188720703 815.9177627563477Q445.4092559814453 847.0460815429688 506.8972930908203 847.0460815429688Z" fill="#ffca28" stroke="none" transform="scale(1,-1) translate(0,-256)" /></svg>