<?xml version="1.0" encoding="utf-8" ?>
<svg baseProfile="full" height="256" version="1.1" width="256" xmlns="http://www.w3.org/2000/svg" xmlns:ev="http://www.w3.org/2001/xml-events" xmlns:xlink="http://www.w3.org/1999/xlink"><defs /><path d="M168.74481201171875 -39.06263732910156Q168.74481201171875 -33.84284973144531 166.78739166259766 -29.253036499023438Q164.82997131347656 -24.663223266601562 161.34261322021484 -21.175865173339844Q157.85525512695312 -17.688507080078125 153.26544189453125 -15.708587646484375Q148.67562866210938 -13.728668212890625 143.45584106445312 -13.728668212890625Q138.19105529785156 -13.728668212890625 133.6012420654297 -15.708587646484375Q129.0114288330078 -17.688507080078125 125.5240707397461 -21.175865173339844Q122.03671264648438 -24.663223266601562 120.07929229736328 -29.253036499023438Q118.12187194824219 -33.84284973144531 118.12187194824219 -39.06263732910156Q118.12187194824219 -44.28242492675781 120.07929229736328 -48.87223815917969Q122.03671264648438 -53.46205139160156 125.5240707397461 -56.94940948486328Q129.0114288330078 -60.436767578125 133.6012420654297 -62.394187927246094Q138.19105529785156 -64.35160827636719 143.45584106445312 -64.35160827636719Q148.67562866210938 -64.35160827636719 153.26544189453125 -62.394187927246094Q157.85525512695312 -60.436767578125 161.34261322021484 -56.94940948486328Q164.82997131347656 -53.46205139160156 166.78739166259766 -48.87223815917969Q168.74481201171875 -44.28242492675781 168.74481201171875 -39.06263732910156Z" fill="#757575" stroke="none" transform="scale(1,-1) translate(0,-256)" /><path d="M875.6198120117188 -39.06263732910156Q875.6198120117188 -33.84284973144531 873.6623916625977 -29.253036499023438Q871.7049713134766 -24.663223266601562 868.2176132202148 -21.175865173339844Q864.7302551269531 -17.688507080078125 860.1404418945312 -15.708587646484375Q855.5506286621094 -13.728668212890625 850.3308410644531 -13.728668212890625Q845.0660552978516 -13.728668212890625 840.4762420654297 -15.708587646484375Q835.8864288330078 -17.688507080078125 832.3990707397461 -21.175865173339844Q828.9117126464844 -24.663223266601562 826.9542922973633 -29.253036499023438Q824.9968719482422 -33.84284973144531 824.9968719482422 -39.06263732910156Q824.9968719482422 -44.28242492675781 826.9542922973633 -48.87223815917969Q828.9117126464844 -53.46205139160156 832.3990707397461 -56.94940948486328Q835.8864288330078 -60.436767578125 840.4762420654297 -62.394187927246094Q845.0660552978516 -64.35160827636719 850.3308410644531 -64.35160827636719Q855.5506286621094 -64.35160827636719 860.1404418945312 -62.394187927246094Q864.7302551269531 -60.436767578125 868.2176132202148 -56.94940948486328Q871.7049713134766 -53.46205139160156 873.6623916625977 -48.87223815917969Q875.6198120117188 -44.28242492675781 875.6198120117188 -39.06263732910156Z" fill="#757575" stroke="none" transform="scale(1,-1) translate(0,-256)" /></svg>