<?xml version="1.0" encoding="utf-8" ?>
<svg baseProfile="full" height="256" version="1.1" width="256" xmlns="http://www.w3.org/2000/svg" xmlns:ev="http://www.w3.org/2001/xml-events" xmlns:xlink="http://www.w3.org/1999/xlink"><defs /><path d="M594.75 74.68800354003906V-19.311996459960938Q594.75 -51.31199645996094 571.75 -73.81199645996094Q548.75 -96.31199645996094 516.75 -96.31199645996094H501.75Q469.75 -96.31199645996094 446.75 -73.81199645996094Q423.75 -51.31199645996094 423.75 -19.311996459960938V74.68800354003906Z" fill="#e59600" stroke="none" transform="scale(1,-1) translate(0,-256)" /><path d="M763 478Q804 478 833.5 446.5Q863 415 863 371Q863 327 833.5 295.5Q804 264 763 264H250Q209 264 179.5 295.5Q150 327 150 371Q150 415 179.5 446.5Q209 478 250 478Z" fill="#e59600" stroke="none" transform="scale(1,-1) translate(0,-256)" /><path d="M543 314Q554 310 549 299Q547 294 537.0 284.0Q527 274 507 274Q487 274 476.5 284.0Q466 294 464 299Q459 310 470 314Q472 315 473 315H540Q541 315 543 314Z" fill="#e59600" stroke="none" transform="scale(1,-1) translate(0,-256)" /></svg>