<?xml version="1.0" encoding="utf-8" ?>
<svg baseProfile="full" height="256" version="1.1" width="256" xmlns="http://www.w3.org/2000/svg" xmlns:ev="http://www.w3.org/2001/xml-events" xmlns:xlink="http://www.w3.org/1999/xlink"><defs /><path d="M401 853Q396 857 395.0 851.5Q394 846 397 842Q410 818 436.0 803.0Q462 788 501 788Q528 788 551.5 800.5Q575 813 590.0 827.5Q605 842 608 848Q609 852 606.0 855.5Q603 859 599 857Q577 846 553.0 837.5Q529 829 504 826Q477 822 450.5 829.5Q424 837 401 853Z" fill="#eeeeee" stroke="none" transform="scale(1,-1) translate(0,-256)" /></svg>