<?xml version="1.0" encoding="utf-8" ?>
<svg baseProfile="full" height="256" version="1.1" width="256" xmlns="http://www.w3.org/2000/svg" xmlns:ev="http://www.w3.org/2001/xml-events" xmlns:xlink="http://www.w3.org/1999/xlink"><defs /><path d="M143 890Q174 899 195.0 890.0Q216 881 224 878Q234 874 253.0 866.0Q272 858 288.0 851.5Q304 845 304 845Q304 845 324.5 842.0Q345 839 377.0 835.0Q409 831 442.0 827.0Q475 823 499 821Q531 819 570.5 814.5Q610 810 648.0 804.5Q686 799 713 792Q733 787 760.0 781.5Q787 776 813.0 770.5Q839 765 855.5 761.5Q872 758 872 758Q872 758 891.0 760.0Q910 762 944 761Q961 760 990.0 756.5Q1019 753 1050.0 748.0Q1081 743 1103.5 737.5Q1126 732 1128 728Q1131 723 1133.0 708.5Q1135 694 1135.5 677.0Q1136 660 1135.5 647.0Q1135 634 1132 631Q1127 626 1091.0 632.5Q1055 639 985 648Q914 657 880.0 667.0Q846 677 831 681Q826 683 800.0 687.5Q774 692 737.5 697.5Q701 703 661.0 709.0Q621 715 586.0 719.5Q551 724 529 726Q493 730 455.0 736.0Q417 742 385.5 749.0Q354 756 338 761Q326 764 296.0 770.0Q266 776 232.0 782.0Q198 788 170.5 792.5Q143 797 136 798Q121 799 114.0 802.5Q107 806 106 819Q105 827 105.0 841.5Q105 856 112.5 870.0Q120 884 143 890Z" fill="#727f39" stroke="none" transform="scale(1,-1) translate(0,-256)" /></svg>