<?xml version="1.0" encoding="utf-8" ?>
<svg baseProfile="full" height="256" version="1.1" width="256" xmlns="http://www.w3.org/2000/svg" xmlns:ev="http://www.w3.org/2001/xml-events" xmlns:xlink="http://www.w3.org/1999/xlink"><defs /><path d="M938 449 929 213 1086 233Q1086 233 1095.0 246.0Q1104 259 1107.0 291.0Q1110 323 1094 380Q1089 397 1081.5 430.0Q1074 463 1066.5 501.5Q1059 540 1052.0 575.0Q1045 610 1040.5 632.5Q1036 655 1036 655L1064 688Q1064 688 1065.5 705.0Q1067 722 1064.0 744.5Q1061 767 1048.5 784.5Q1036 802 1007 803Q977 804 960.5 788.0Q944 772 937.0 747.5Q930 723 929.5 695.5Q929 668 930.5 643.5Q932 619 932 606Q932 589 933.0 563.0Q934 537 935.0 511.0Q936 485 937.0 467.0Q938 449 938 449Z" fill="#865b52" stroke="none" transform="scale(1,-1) translate(0,-256)" /><path d="M665 790 725 761 903 310 817 227Q817 227 811.5 251.5Q806 276 798.5 310.5Q791 345 783.0 377.5Q775 410 769 427Q764 443 752.5 473.5Q741 504 728.5 536.0Q716 568 707.0 590.5Q698 613 698 613Q698 613 698.5 592.5Q699 572 699.5 543.0Q700 514 700.0 486.0Q700 458 699 442Q697 377 683.0 337.0Q669 297 659 284Q651 276 632.5 274.5Q614 273 597.5 274.5Q581 276 581 276Z" fill="#865b52" stroke="none" transform="scale(1,-1) translate(0,-256)" /></svg>