<?xml version="1.0" encoding="utf-8" ?>
<svg baseProfile="full" height="256" version="1.1" width="256" xmlns="http://www.w3.org/2000/svg" xmlns:ev="http://www.w3.org/2001/xml-events" xmlns:xlink="http://www.w3.org/1999/xlink"><defs /><path d="M1121 331Q1154 336 1168.0 326.0Q1182 316 1184.0 301.0Q1186 286 1183 276Q1180 260 1162.5 231.0Q1145 202 1128 167Q1111 132 1082.5 79.5Q1054 27 1008 -43Q977 -90 934.5 -117.5Q892 -145 849.0 -157.5Q806 -170 775 -173Q733 -176 712.0 -171.5Q691 -167 683.5 -163.0Q676 -159 674 -163Q672 -168 678.5 -173.5Q685 -179 692.5 -185.0Q700 -191 700 -197Q701 -203 679.5 -204.5Q658 -206 630.0 -204.0Q602 -202 583 -197Q560 -191 538.5 -182.0Q517 -173 503.0 -166.0Q489 -159 489 -159Q489 -159 493.0 -166.0Q497 -173 499.0 -180.5Q501 -188 494 -191Q488 -193 468.0 -182.0Q448 -171 423.5 -154.5Q399 -138 378 -123Q347 -100 332.0 -83.5Q317 -67 317 -67Q317 -67 314.5 -77.5Q312 -88 305 -91Q301 -93 285.0 -77.5Q269 -62 249.0 -37.0Q229 -12 215 13Q204 31 178.0 76.5Q152 122 133 186Q120 230 109.5 283.5Q99 337 99 382Q99 408 101.0 440.0Q103 472 112 506Q126 557 162.0 590.0Q198 623 245.0 638.5Q292 654 341.0 652.0Q390 650 430 631Q484 606 503.5 577.5Q523 549 522.5 522.5Q522 496 517 475L483 491L424 299Q424 299 413.5 285.5Q403 272 389.0 251.5Q375 231 365 210Q350 178 359.5 159.0Q369 140 388 138Q401 138 403.5 148.5Q406 159 405.5 175.5Q405 192 407 207Q410 222 424.5 246.5Q439 271 458.0 299.5Q477 328 494 358Q510 387 521.0 422.5Q532 458 537.0 490.0Q542 522 543 541Q543 561 544.5 599.0Q546 637 550.5 678.5Q555 720 564 749Q581 802 611.0 820.0Q641 838 673 838Q705 838 718.5 828.0Q732 818 732 818Q732 818 740.5 823.0Q749 828 763.5 831.0Q778 834 795 827Q815 818 822.0 804.0Q829 790 829.5 779.0Q830 768 830 768Q830 768 832.0 765.0Q834 762 825 761Q815 760 814.0 740.0Q813 720 822 692Q826 678 843.0 645.0Q860 612 883.0 571.5Q906 531 928.5 493.5Q951 456 966 433Q981 410 996.5 382.5Q1012 355 1025.0 329.0Q1038 303 1046.0 286.5Q1054 270 1054 270Q1054 270 1064.5 284.5Q1075 299 1090.5 314.0Q1106 329 1121 331ZM816 290Q820 304 814.0 338.5Q808 373 794 421Q784 453 769.5 486.0Q755 519 742.0 545.5Q729 572 724 585Q715 610 708.5 631.0Q702 652 699 670Q697 684 696.0 705.0Q695 726 694.0 742.5Q693 759 693 759Q693 759 688.5 740.0Q684 721 678.5 691.0Q673 661 673 628Q673 595 673.5 552.0Q674 509 673.0 468.0Q672 427 668 398Q661 355 649.0 331.0Q637 307 645 293Q653 279 677.5 271.0Q702 263 732 263Q762 264 787.5 272.5Q813 281 816 290Z" fill="#ae9580" stroke="none" transform="scale(1,-1) translate(0,-256)" /></svg>