<?xml version="1.0" encoding="utf-8" ?>
<svg baseProfile="full" height="256" version="1.1" width="256" xmlns="http://www.w3.org/2000/svg" xmlns:ev="http://www.w3.org/2001/xml-events" xmlns:xlink="http://www.w3.org/1999/xlink"><defs /><path d="M377 604 235 140 393 94 550 472Q550 472 547.5 501.0Q545 530 538.5 577.0Q532 624 519.5 678.5Q507 733 488 782Q476 812 459.0 841.0Q442 870 418.0 890.5Q394 911 362 915Q337 918 321.0 909.0Q305 900 295.0 886.5Q285 873 281.0 862.5Q277 852 277 852Q277 852 288.5 850.0Q300 848 316.0 842.5Q332 837 346.0 825.5Q360 814 366 796Q371 778 373.5 746.0Q376 714 377.0 681.5Q378 649 377.5 626.5Q377 604 377 604Z" fill="#855c54" stroke="none" transform="scale(1,-1) translate(0,-256)" /></svg>