<?xml version="1.0" encoding="utf-8" ?>
<svg baseProfile="full" height="256" version="1.1" width="256" xmlns="http://www.w3.org/2000/svg" xmlns:ev="http://www.w3.org/2001/xml-events" xmlns:xlink="http://www.w3.org/1999/xlink"><defs /><path d="M366 -3Q368 1 360.0 13.5Q352 26 341.0 40.5Q330 55 323 64Q317 73 308.0 87.0Q299 101 289.5 109.0Q280 117 272 111Q264 104 267.0 93.0Q270 82 278.5 70.5Q287 59 294 49Q302 40 317.0 25.0Q332 10 346.5 0.5Q361 -9 366 -3Z" fill="#cdac93" stroke="none" transform="scale(1,-1) translate(0,-256)" /><path d="M416 8Q423 15 433.0 7.0Q443 -1 457.0 -16.5Q471 -32 489 -47Q515 -68 540.0 -82.5Q565 -97 561 -103Q559 -107 543.0 -104.0Q527 -101 506.5 -93.0Q486 -85 469 -73Q452 -61 436.0 -46.0Q420 -31 413.0 -17.0Q406 -3 416 8Z" fill="#cdac93" stroke="none" transform="scale(1,-1) translate(0,-256)" /><path d="M526 -23Q530 -12 541.0 -16.0Q552 -20 570.5 -29.0Q589 -38 617 -44Q672 -56 696.0 -54.0Q720 -52 721 -61Q722 -68 705.5 -74.0Q689 -80 663.5 -82.0Q638 -84 611 -80Q570 -73 545.0 -54.0Q520 -35 526 -23Z" fill="#cdac93" stroke="none" transform="scale(1,-1) translate(0,-256)" /><path d="M608 28Q610 42 621.5 41.5Q633 41 649.0 36.0Q665 31 681 31Q698 31 715.0 34.0Q732 37 744.5 37.5Q757 38 758 34Q759 27 738.0 15.0Q717 3 682 2Q648 0 627.0 9.0Q606 18 608 28Z" fill="#cdac93" stroke="none" transform="scale(1,-1) translate(0,-256)" /><path d="M651 -122Q651 -110 669.5 -106.5Q688 -103 710.5 -102.0Q733 -101 745 -98Q773 -91 791.5 -79.5Q810 -68 821.0 -60.0Q832 -52 836 -56Q840 -60 832.5 -73.0Q825 -86 807.0 -101.0Q789 -116 763 -126Q741 -134 715.0 -137.0Q689 -140 670.0 -136.5Q651 -133 651 -122Z" fill="#cdac93" stroke="none" transform="scale(1,-1) translate(0,-256)" /></svg>