<?xml version="1.0" encoding="utf-8" ?>
<svg baseProfile="full" height="256" version="1.1" width="256" xmlns="http://www.w3.org/2000/svg" xmlns:ev="http://www.w3.org/2001/xml-events" xmlns:xlink="http://www.w3.org/1999/xlink"><defs /><path d="M308 193H638H970Q1007 193 1007 229Q1007 266 970 266H903V395H983Q1019 395 1019 432Q1019 468 983 468H903V598H952Q987 598 987 633Q987 669 952 669H461Q465 674 470.0 682.0Q475 690 482 702Q502 740 459 753Q424 763 408 732Q360 643 284 578Q263 562 263 548Q263 535 281 516Q311 494 338 519Q345 524 354.0 534.0Q363 544 375 556V468H294Q258 468 258 432Q258 395 294 395H375V267H308Q272 267 272 230Q272 193 308 193ZM299 -17Q327 -30 347 -9Q357 3 367.0 17.5Q377 32 386 50Q394 63 400.5 77.5Q407 92 413 107Q426 146 388 156Q352 166 338 129Q317 79 284 38Q267 19 271 6Q276 -8 299 -17ZM447 468V598H527V533V468ZM447 266V395H527V330V266ZM517 18Q518 -22 560 -14Q579 -11 586 -4Q595 6 593 22Q591 46 588.0 69.5Q585 93 580 116Q575 149 540 145Q501 141 507 103Q510 89 513 60Q514 58 514 56Q515 41 517 18ZM593 468V533V598H676V468ZM593 266V395H676V330V266ZM760 -14Q780 -9 787 -2Q795 7 790 27Q784 49 776.0 73.5Q768 98 758 123Q746 151 715 146Q673 139 687 100Q691 87 695.0 76.0Q699 65 702 55Q706 41 708.5 31.0Q711 21 713 14Q718 -5 728 -12Q740 -18 760 -14ZM743 468V533V598H828V468ZM743 266V330V395H828V266ZM955 -19Q966 -22 988 -17Q1009 -10 1015 0Q1022 11 1012 30Q998 55 979.0 83.5Q960 112 936 144Q917 168 888 158Q844 144 869 106Q881 88 890.0 74.5Q899 61 904 53Q913 38 920.5 25.5Q928 13 934 2Q944 -16 955 -19Z" fill="#fafafa" stroke="none" transform="scale(1,-1) translate(0,-256)" /></svg>