<?xml version="1.0" encoding="utf-8" ?>
<svg baseProfile="full" height="256" version="1.1" width="256" xmlns="http://www.w3.org/2000/svg" xmlns:ev="http://www.w3.org/2001/xml-events" xmlns:xlink="http://www.w3.org/1999/xlink"><defs /><path d="M-522.5769958496094 -374.2116394042969Q-522.5769958496094 -374.2116394042969 -548.1543426513672 -377.4500961303711Q-573.731689453125 -380.6885528564453 -615.714241027832 -386.22633361816406Q-657.6967926025391 -391.7641143798828 -708.1013565063477 -398.5713882446289Q-758.5059204101562 -405.378662109375 -808.9104843139648 -412.1859359741211Q-859.3150482177734 -418.9932098388672 -901.1419448852539 -424.81600189208984Q-942.9688415527344 -430.6387939453125 -968.5180435180664 -434.9719467163086Q-994.0672454833984 -439.3050994873047 -993.7559356689453 -439.8751220703125Q-990.9012908935547 -470.1379852294922 -968.3991165161133 -491.5204315185547Q-945.8969421386719 -512.9028778076172 -903.4060668945312 -515.5979919433594Q-866.8599395751953 -517.8396148681641 -831.7279205322266 -511.23297119140625Q-796.5959014892578 -504.62632751464844 -769.970329284668 -496.00508880615234Q-743.3447570800781 -487.38385009765625 -731.0015106201172 -482.8627014160156Q-715.4027252197266 -478.0436248779297 -683.4963836669922 -461.35797119140625Q-651.5900421142578 -444.6723175048828 -609.4633331298828 -421.6647491455078Q-567.3366241455078 -398.6571807861328 -522.5769958496094 -374.2116394042969Z" fill="#000000" stroke="none" transform="scale(1,-1) translate(0,-256)" /><path d="M522.5769958496094 -374.2116394042969 209.82489013671875 -8.02972412109375 208.6359405517578 -8.12042236328125Q208.01332092285156 -9.260467529296875 206.55613708496094 -14.014961242675781Q205.0989532470703 -18.769454956054688 203.8537139892578 -21.049545288085938Q195.75965881347656 -35.87013244628906 188.95391845703125 -52.50440216064453Q182.14817810058594 -69.138671875 183.36870574951172 -90.89654541015625Q184.5892333984375 -112.6544189453125 200.44647216796875 -142.0361328125Q216.3037109375 -171.4178466796875 238.3027114868164 -192.68319702148438Q260.3017120361328 -213.94854736328125 280.84181213378906 -228.49675750732422Q301.3819122314453 -243.0449676513672 311.8572998046875 -250.9862518310547Q324.3429870605469 -261.50555419921875 357.0706787109375 -280.85992431640625Q389.7983703613281 -300.21429443359375 433.3690490722656 -324.7505340576172Q476.9397277832031 -349.2867736816406 522.5769958496094 -374.2116394042969Z" fill="#000000" stroke="none" transform="scale(1,-1) translate(0,-256)" /><path d="M-145.35812377929688 157.28494262695312Q-157.9635467529297 145.1919708251953 -187.5642852783203 129.3568572998047Q-217.16502380371094 113.52174377441406 -261.7311019897461 104.3218765258789Q-306.29718017578125 95.12200927734375 -365.00799560546875 103.52667236328125Q-415.4822540283203 110.31217956542969 -467.4532699584961 141.7780532836914Q-519.4242858886719 173.24392700195312 -564.5914154052734 239.79969787597656Q-577.0791778564453 262.7955780029297 -567.2334594726562 277.10064697265625Q-557.3877410888672 291.4057159423828 -536.6949615478516 299.88511657714844Q-516.0021820068359 308.36451721191406 -496.2897186279297 314.9116973876953Q-489.49159240722656 316.40855407714844 -469.12925720214844 314.88478088378906Q-448.7669219970703 313.3610076904297 -421.9048614501953 309.3452606201172Q-395.0428009033203 305.3295135498047 -368.6708984375 300.34765625Q-342.2989959716797 295.3657989501953 -323.36983489990234 291.44229888916016Q-304.440673828125 287.518798828125 -301.2654113769531 285.2756042480469Q-278.74017333984375 273.56207275390625 -251.89964294433594 252.50050354003906Q-225.05911254882812 231.43893432617188 -200.78652954101562 209.56674194335938Q-176.51394653320312 187.69454956054688 -160.93603515625 172.48974609375Q-145.35812377929688 157.28494262695312 -145.35812377929688 157.28494262695312Z" fill="#000000" stroke="none" transform="scale(1,-1) translate(0,-256)" /><path d="M-544.7742462158203 774.1641845703125Q-484.2549743652344 760.9063415527344 -431.03707122802734 739.1351013183594Q-377.8191680908203 717.3638610839844 -335.1494674682617 693.6270065307617Q-292.4797668457031 669.8901519775391 -264.63414001464844 650.8633880615234Q-258.6105041503906 647.1107635498047 -254.97806549072266 638.8766021728516Q-251.3456268310547 630.6424407958984 -258.53975677490234 622.388786315918Q-265.73388671875 614.1351318359375 -292.5116729736328 609.5447998046875Q-319.2894592285156 604.9544677734375 -376.85166931152344 609.6524963378906Q-477.78404235839844 616.7381591796875 -545.4746322631836 629.6586532592773Q-613.1652221679688 642.5791473388672 -652.770622253418 658.0159301757812Q-692.3760223388672 673.4527130126953 -711.7109832763672 689.5099792480469Q-731.0459442138672 705.5672454833984 -736.1888580322266 719.3141174316406Q-741.3317718505859 733.0609893798828 -739.0683517456055 742.4737396240234Q-736.804931640625 751.8864898681641 -734.8107452392578 754.0962524414062Q-710.8166198730469 778.1477966308594 -662.5248794555664 783.7501754760742Q-614.2331390380859 789.3525543212891 -544.7742462158203 774.1641845703125Z" fill="#000000" stroke="none" transform="scale(1,-1) translate(0,-256)" /><path d="M720.8469390869141 -879.8254547119141Q723.0578155517578 -840.9084320068359 741.6548919677734 -809.5281448364258Q760.2519683837891 -778.1478576660156 786.6766586303711 -749.5868148803711Q813.1013488769531 -721.0257720947266 837.9011993408203 -690.5288848876953Q862.7010498046875 -660.0319976806641 876.7939605712891 -622.0297546386719Q890.8868713378906 -584.0275115966797 884.5043334960938 -533.9590301513672Q884.5043334960938 -533.9590301513672 892.9000244140625 -540.5371704101562Q901.2957153320312 -547.1153106689453 915.8496170043945 -551.6699752807617Q930.4035186767578 -556.2246398925781 947.5596313476562 -551.5512542724609Q957.4562072753906 -547.8175201416016 965.3130264282227 -540.0554885864258Q973.1698455810547 -532.29345703125 977.9747085571289 -525.2330551147461Q982.7795715332031 -518.1726531982422 982.7795715332031 -518.1726531982422Q983.8265991210938 -519.8766937255859 994.341438293457 -539.823974609375Q1004.8562774658203 -559.7712554931641 1014.5469055175781 -592.5488739013672Q1024.237533569336 -625.3264923095703 1023.9675521850586 -665.9851531982422Q1023.6975708007812 -706.6438140869141 1002.6514434814453 -748.9185943603516Q977.1610717773438 -800.9664459228516 940.9038391113281 -829.1139144897461Q904.6466064453125 -857.2613830566406 866.487419128418 -869.5588455200195Q828.3282318115234 -881.8563079833984 795.2996978759766 -883.3720703125Q762.2711639404297 -884.8878326416016 741.5590515136719 -882.3566436767578Q720.8469390869141 -879.8254547119141 720.8469390869141 -879.8254547119141Z" fill="#000000" stroke="none" transform="scale(1,-1) translate(0,-256)" /><path d="M310.4909210205078 784.7715606689453Q310.3318634033203 782.7779083251953 297.40956115722656 769.2636566162109Q284.4872589111328 755.7494049072266 267.7024917602539 741.5403823852539Q250.917724609375 727.3313598632812 239.5915985107422 723.2198333740234Q219.620361328125 716.7890625 208.78849029541016 724.1745986938477Q197.9566192626953 731.5601348876953 193.52625274658203 744.9551773071289Q189.09588623046875 758.3502197265625 188.82901763916016 770.9112319946289Q188.56214904785156 783.4722442626953 189.72091674804688 787.3924255371094Q189.72091674804688 787.3924255371094 202.27385711669922 780.3710556030273Q214.82679748535156 773.3496856689453 241.34711456298828 771.7337112426758Q267.867431640625 770.1177368164062 310.4909210205078 784.7715606689453Z" fill="#000000" stroke="none" transform="scale(1,-1) translate(0,-256)" /><path d="M-568.2968139648438 570.9365844726562Q-568.2968139648438 570.9365844726562 -568.2968139648438 570.9365844726562Q-568.2968139648438 570.9365844726562 -568.2968139648438 570.9365844726562Q-568.2968139648438 570.9365844726562 -557.7185592651367 567.379508972168Q-547.1403045654297 563.8224334716797 -530.8829956054688 561.7966003417969Q-514.6256866455078 559.7707672119141 -497.00091552734375 564.3009643554688Q-479.3761444091797 568.8311614990234 -465.674560546875 584.51171875L-469.17063903808594 530.1860809326172Q-478.5680236816406 523.1574401855469 -493.6514205932617 527.4697494506836Q-508.7348175048828 531.7820587158203 -524.6041564941406 540.7379760742188Q-540.4734954833984 549.6938934326172 -552.4257354736328 558.7626190185547Q-564.3779754638672 567.8313446044922 -568.2968139648438 570.9365844726562Q-568.2968139648438 570.9365844726562 -568.2968139648438 570.9365844726562Q-568.2968139648438 570.9365844726562 -568.2968139648438 570.9365844726562Q-568.2968139648438 570.9365844726562 -568.2968139648438 570.9365844726562Q-568.2968139648438 570.9365844726562 -568.2968139648438 570.9365844726562Z" fill="#000000" stroke="none" transform="scale(1,-1) translate(0,-256)" /></svg>