<?xml version="1.0" encoding="utf-8" ?>
<svg baseProfile="full" height="256" version="1.1" width="256" xmlns="http://www.w3.org/2000/svg" xmlns:ev="http://www.w3.org/2001/xml-events" xmlns:xlink="http://www.w3.org/1999/xlink"><defs /><path d="M635 864Q719 864 796.5 822.0Q874 780 934.5 703.5Q995 627 1030.5 522.0Q1066 417 1066 290Q1066 164 1030.0 70.0Q994 -24 932.5 -87.0Q871 -150 794.0 -181.0Q717 -212 635 -212Q554 -212 477.0 -181.0Q400 -150 338.5 -87.0Q277 -24 240.5 70.0Q204 164 204 290Q204 417 239.5 522.0Q275 627 336.0 703.5Q397 780 474.0 822.0Q551 864 635 864Z" fill="#ffca28" stroke="none" transform="scale(1,-1) translate(0,-256)" /></svg>