<?xml version="1.0" encoding="utf-8" ?>
<svg baseProfile="full" height="256" version="1.1" width="256" xmlns="http://www.w3.org/2000/svg" xmlns:ev="http://www.w3.org/2001/xml-events" xmlns:xlink="http://www.w3.org/1999/xlink"><defs /><path d="M300 809Q314 815 337.5 831.0Q361 847 402.5 866.0Q444 885 510.5 899.0Q577 913 675 913Q743 913 791.0 897.5Q839 882 871.0 859.5Q903 837 922.0 815.0Q941 793 948.5 777.5Q956 762 956 762Q956 762 972.5 761.0Q989 760 1015.0 753.0Q1041 746 1071.0 728.5Q1101 711 1128.5 678.0Q1156 645 1175.5 592.5Q1195 540 1200 462Q1204 399 1188.0 343.5Q1172 288 1149.0 245.5Q1126 203 1107.5 177.0Q1089 151 1087 148Q1086 144 1088.5 126.5Q1091 109 1090.0 83.0Q1089 57 1079.5 28.5Q1070 0 1043 -27Q1002 -68 950.0 -89.5Q898 -111 836 -115Q816 -116 770.5 -117.5Q725 -119 668.0 -119.5Q611 -120 554.5 -119.5Q498 -119 454.5 -116.5Q411 -114 394 -109Q381 -106 356.0 -101.5Q331 -97 301.5 -84.5Q272 -72 244 -44Q216 -16 204.5 12.5Q193 41 191.0 68.5Q189 96 189 122Q189 127 188.0 135.0Q187 143 187 143Q187 143 182.0 150.0Q177 157 173 160Q173 160 158.5 174.0Q144 188 124.5 219.0Q105 250 90.0 300.5Q75 351 75 425Q75 489 93.5 539.0Q112 589 136.0 624.5Q160 660 178.5 678.5Q197 697 197 697Q197 697 190.0 699.0Q183 701 173.5 710.0Q164 719 157.0 740.0Q150 761 150 800Q150 800 165.5 794.0Q181 788 214.0 789.0Q247 790 300 809Z" fill="#543930" stroke="none" transform="scale(1,-1) translate(0,-256)" /><path d="M638 884Q702 884 763.5 866.0Q825 848 877 809Q951 754 1000.0 673.0Q1049 592 1065 503Q1077 435 1076.5 372.0Q1076 309 1069.5 260.0Q1063 211 1056.5 182.0Q1050 153 1050 153Q1036 195 1030.0 231.5Q1024 268 1023.0 290.5Q1022 313 1022 313Q983 348 960.5 388.0Q938 428 927.5 464.0Q917 500 914.0 522.5Q911 545 911 545Q911 545 891.0 530.0Q871 515 829.0 492.5Q787 470 722.0 445.5Q657 421 568 402Q557 400 551.0 408.5Q545 417 549 427Q549 427 557.0 442.0Q565 457 575.0 477.0Q585 497 592.5 512.5Q600 528 600 528Q599 527 572.5 516.0Q546 505 504.5 486.5Q463 468 417.0 442.5Q371 417 329.5 386.5Q288 356 263 322Q263 322 264.5 307.5Q266 293 264.0 269.0Q262 245 251.0 215.0Q240 185 216 153Q216 153 210.0 186.5Q204 220 198.0 275.0Q192 330 192 393Q192 449 206.5 503.0Q221 557 241 608Q292 736 395.0 810.0Q498 884 638 884Z" fill="#543930" stroke="none" transform="scale(1,-1) translate(0,-256)" /></svg>