<?xml version="1.0" encoding="utf-8" ?>
<svg baseProfile="full" height="256" version="1.1" width="256" xmlns="http://www.w3.org/2000/svg" xmlns:ev="http://www.w3.org/2001/xml-events" xmlns:xlink="http://www.w3.org/1999/xlink"><defs /><path d="M634.25 -163.68800354003906Q742.25 -163.68800354003906 840.25 -128.68800354003906Q938.25 -93.68800354003906 1012.25 -27.688003540039062Q1093.25 44.31199645996094 1135.25 142.81199645996094Q1177.25 241.31199645996094 1177.25 360.31199645996094Q1177.25 479.31199645996094 1135.25 578.3119964599609Q1093.25 677.3119964599609 1012.25 749.3119964599609Q938.25 814.3119964599609 840.25 849.3119964599609Q742.25 884.3119964599609 634.25 884.3119964599609Q555.25 884.3119964599609 477.25 864.3119964599609Q399.25 844.3119964599609 329.75 803.3119964599609Q260.25 762.3119964599609 206.25 700.3119964599609Q152.25 638.3119964599609 121.25 553.3119964599609Q90.25 468.31199645996094 90.25 360.31199645996094Q90.25 252.31199645996094 121.25 167.31199645996094Q152.25 82.31199645996094 206.25 20.311996459960938Q260.25 -41.68800354003906 329.75 -82.68800354003906Q399.25 -123.68800354003906 477.25 -143.68800354003906Q555.25 -163.68800354003906 634.25 -163.68800354003906Z" fill="#000000" stroke="none" transform="scale(1,-1) translate(0,-256)" /></svg>