<?xml version="1.0" encoding="utf-8" ?>
<svg baseProfile="full" height="256" version="1.1" width="256" xmlns="http://www.w3.org/2000/svg" xmlns:ev="http://www.w3.org/2001/xml-events" xmlns:xlink="http://www.w3.org/1999/xlink"><defs /><path d="M634 -164Q742 -164 840.0 -128.5Q938 -93 1013 -28Q1093 44 1135.5 142.5Q1178 241 1178 360Q1178 479 1135.5 578.5Q1093 678 1013 749Q938 815 840.5 849.5Q743 884 634 884Q555 884 477.0 864.0Q399 844 329.5 803.5Q260 763 206.0 700.5Q152 638 121.0 553.0Q90 468 90 360Q90 252 121.0 167.5Q152 83 206.0 20.5Q260 -42 329.5 -83.0Q399 -124 477.0 -144.0Q555 -164 634 -164Z" fill="#000000" stroke="none" transform="scale(1,-1) translate(0,-256)" /><path d="M120.12600708007812 -896.3932800292969Q113.24618530273438 -900.9393310546875 105.3382568359375 -901.5531463623047Q88.88079833984375 -903.8335876464844 74.371337890625 -893.9267120361328Q58.346771240234375 -883.1344299316406 50.894927978515625 -861.6466369628906Q46.0635986328125 -845.9734954833984 44.749481201171875 -829.0243377685547Q42.515472412109375 -828.1947326660156 30.421676635742188 -826.1244277954102Q18.327880859375 -824.0541229248047 1.6887664794921875 -819.3275985717773Q-14.950347900390625 -814.60107421875 -31.179763793945312 -805.8307113647461Q-47.4091796875 -797.0603485107422 -57.75982666015625 -784.8246459960938Q-78.53842163085938 -759.3562316894531 -86.86763000488281 -721.8883895874023Q-95.19683837890625 -684.4205474853516 -96.00076293945312 -655.3956756591797Q-97.34579467773438 -619.3917388916016 -92.63040161132812 -586.9294281005859Q-87.91500854492188 -554.4671173095703 -70.35986328125 -529.0322570800781Q-50.00640869140625 -502.37718200683594 -17.505050659179688 -487.8183059692383Q14.996307373046875 -473.2594299316406 56.42596435546875 -480.5752487182617Q97.85562133789062 -487.8910675048828 144.87802124023438 -525.3645629882812Q145.67422485351562 -526.3057708740234 154.8808135986328 -533.1137237548828Q164.08740234375 -539.9216766357422 178.4809112548828 -548.3330383300781Q192.87442016601562 -556.7444000244141 209.0767822265625 -560.5018157958984Q259.9178771972656 -572.6036682128906 285.91432189941406 -572.09033203125Q311.9107666015625 -571.5769958496094 322.61700439453125 -569.7429656982422Q345.5445861816406 -566.9603118896484 358.70513916015625 -573.4613571166992Q371.8656921386719 -579.96240234375 371.07720947265625 -607.1048583984375Q370.5670166015625 -619.1805725097656 365.0631561279297 -632.1454010009766Q359.5592956542969 -645.1102294921875 339.68898010253906 -654.676643371582Q319.81866455078125 -664.2430572509766 275.8883056640625 -666.6499328613281Q241.94528198242188 -667.2785797119141 226.14102172851562 -663.9917678833008Q210.33676147460938 -660.7049560546875 210.33676147460938 -660.7049560546875Q210.56866455078125 -663.6959838867188 213.76893615722656 -676.9882049560547Q216.96920776367188 -690.2804260253906 219.96463012695312 -705.5945663452148Q222.96005249023438 -720.9087066650391 223.09146118164062 -731.9316101074219Q225.7738037109375 -775.8558197021484 199.35992431640625 -798.9692687988281Q173.99734497070312 -816.9860687255859 144.5455322265625 -810.2450408935547Q143.18502807617188 -811.3536529541016 142.46612548828125 -811.4094543457031Q148.3255615234375 -831.0148315429688 145.16006469726562 -850.819221496582Q141.99456787109375 -870.6236114501953 132.29324340820312 -885.4187622070312Q127.0831298828125 -892.84423828125 120.12600708007812 -896.3932800292969Z" fill="#000000" stroke="none" transform="scale(1,-1) translate(0,-256)" /></svg>