<?xml version="1.0" encoding="utf-8" ?>
<svg baseProfile="full" height="256" version="1.1" width="256" xmlns="http://www.w3.org/2000/svg" xmlns:ev="http://www.w3.org/2001/xml-events" xmlns:xlink="http://www.w3.org/1999/xlink"><defs /><path d="M785 310Q796 312 801.0 300.0Q806 288 789 274Q756 247 717.0 237.0Q678 227 638 227Q597 227 558.0 237.0Q519 247 486 274Q469 288 474.0 300.0Q479 312 490 310Q533 299 558.5 295.5Q584 292 601.0 291.5Q618 291 636 291H639Q657 291 674.0 291.5Q691 292 717.0 295.5Q743 299 785 310Z" fill="#422b0d" stroke="none" transform="scale(1,-1) translate(0,-256)" /><path d="M447 433Q437 433 428.0 432.5Q419 432 411 432Q396 429 390 443Q381 463 382 485Q382 526 404.5 549.5Q427 573 457 573Q486 573 509.0 549.5Q532 526 532 485Q532 460 521 438Q514 424 499 428Q473 434 447 433Z" fill="#422b0d" stroke="none" transform="scale(1,-1) translate(0,-256)" /><path d="M828 433Q838 433 847.0 432.5Q856 432 864 432Q879 429 885 443Q894 463 893 485Q893 526 870.5 549.5Q848 573 818 573Q789 573 766.0 549.5Q743 526 743 485Q743 460 754 438Q761 424 776 428Q802 434 828 433Z" fill="#422b0d" stroke="none" transform="scale(1,-1) translate(0,-256)" /><path d="M682 294Q679 265 681 237Q676 236 670.5 235.5Q665 235 660 235Q659 264 664 293Q668 294 672.5 294.0Q677 294 682 294Z" fill="#422b0d" stroke="none" transform="scale(1,-1) translate(0,-256)" /></svg>