<?xml version="1.0" encoding="utf-8" ?>
<svg baseProfile="full" height="256" version="1.1" width="256" xmlns="http://www.w3.org/2000/svg" xmlns:ev="http://www.w3.org/2001/xml-events" xmlns:xlink="http://www.w3.org/1999/xlink"><defs /><path d="M1083 672Q1178 541 1178 360Q1178 241 1135.5 142.5Q1093 44 1013 -28Q938 -93 840.0 -128.5Q742 -164 634 -164Q544 -164 455.0 -137.5Q366 -111 290.0 -57.0Q214 -3 163 79Q216 6 289.0 -41.5Q362 -89 446.0 -112.5Q530 -136 615 -136Q723 -136 821.0 -100.5Q919 -65 994 0Q1075 72 1117.0 171.0Q1159 270 1159 388Q1159 549 1083 672Z" fill="#eb8f00" stroke="none" transform="scale(1,-1) translate(0,-256)" /><path d="M870 -1 882 -28Q876 -32 868.0 -34.5Q860 -37 853 -38Q846 -40 839.0 -46.0Q832 -52 828 -67Q824 -81 819.0 -96.0Q814 -111 810 -125Q799 -159 764.5 -184.0Q730 -209 675 -208Q614 -207 578.5 -192.0Q543 -177 525.0 -158.5Q507 -140 501.5 -126.0Q496 -112 496 -112Q520 -148 556.0 -165.0Q592 -182 630.5 -185.5Q669 -189 701.0 -182.0Q733 -175 747 -163Q772 -143 778.0 -125.5Q784 -108 779 -110Q770 -114 757.5 -115.0Q745 -116 725 -102Q711 -88 710.5 -67.0Q710 -46 723 -38Q731 -33 740.5 -33.5Q750 -34 752 -37Q754 -40 749.5 -42.0Q745 -44 738 -50Q731 -57 733.5 -68.5Q736 -80 743 -87Q746 -90 761.0 -91.5Q776 -93 788 -73Q805 -46 805.5 -31.0Q806 -16 792 0Q788 7 771.0 17.5Q754 28 725.0 27.0Q696 26 654 -2Q654 -2 655.5 5.5Q657 13 670 25Q679 32 699.5 41.0Q720 50 745.5 51.5Q771 53 793 38Q804 60 802.5 84.0Q801 108 776 119Q754 127 728.5 120.5Q703 114 678.0 102.0Q653 90 636 81Q636 81 640.0 89.5Q644 98 656 109Q662 114 677.5 124.0Q693 134 714.0 142.0Q735 150 757.5 150.5Q780 151 801 138Q801 176 780.5 196.0Q760 216 719 211Q678 205 651.5 190.0Q625 175 612.5 165.0Q600 155 603 164Q605 172 617.0 183.0Q629 194 641.5 204.0Q654 214 660 221Q669 231 671.5 252.0Q674 273 675 302Q678 368 667.5 402.5Q657 437 625 436Q616 435 611.5 428.0Q607 421 605 388Q604 370 603.5 332.5Q603 295 590.0 244.5Q577 194 541 136Q521 104 507.5 69.0Q494 34 487.0 9.0Q480 -16 480 -16Q478 12 485.5 42.5Q493 73 504.0 99.0Q515 125 525 141Q559 201 571.0 249.5Q583 298 584.0 333.5Q585 369 586 391Q588 424 593.5 442.0Q599 460 625 460Q669 460 684.0 413.5Q699 367 696 294Q695 260 693.0 246.0Q691 232 691 232Q698 234 710.0 235.5Q722 237 741 236Q791 234 810.0 200.0Q829 166 829 121Q843 124 863.0 119.5Q883 115 899.0 100.0Q915 85 918 55Q919 44 917.5 27.5Q916 11 907.5 -5.0Q899 -21 879 -30Q878 -29 865.5 -25.5Q853 -22 844.0 -18.0Q835 -14 846 -11Q871 -5 883.5 15.5Q896 36 890 64Q886 79 871.0 90.5Q856 102 828 99Q835 76 827.5 53.0Q820 30 815 18Q824 7 828 -12Q851 -13 860.5 -7.0Q870 -1 870 -1Z" fill="#eb8f00" stroke="none" transform="scale(1,-1) translate(0,-256)" /></svg>