<?xml version="1.0" encoding="utf-8" ?>
<svg baseProfile="full" height="256" version="1.1" width="256" xmlns="http://www.w3.org/2000/svg" xmlns:ev="http://www.w3.org/2001/xml-events" xmlns:xlink="http://www.w3.org/1999/xlink"><defs /><path d="M899 -57 850 246V711L277 625V160L325 -144Z" fill="#61de9f" stroke="none" transform="scale(1,-1) translate(0,-256)" /><path d="M436 588 463 591Q462 600 456 627Q435 721 439 768Q446 847 512 859Q569 870 613 766Q645 692 654 616L682 619Q672 699 639 777Q586 901 507 887Q419 870 411 771Q407 719 429 621Q435 595 436 588Z" fill="#61de9f" stroke="none" transform="scale(1,-1) translate(0,-256)" /></svg>