<?xml version="1.0" encoding="utf-8" ?>
<svg baseProfile="full" height="256" version="1.1" width="256" xmlns="http://www.w3.org/2000/svg" xmlns:ev="http://www.w3.org/2001/xml-events" xmlns:xlink="http://www.w3.org/1999/xlink"><defs /><path d="M276 578 304 582Q285 725 293 777Q306 862 356 884Q379 894 405 884Q432 874 449 848Q465 824 479 773Q499 698 509 612L537 616Q527 703 506 781Q491 836 473 864Q450 898 415 911Q378 924 345 910Q281 882 265 781Q257 726 276 578Z" fill="#00796b" stroke="none" transform="scale(1,-1) translate(0,-256)" /><path d="M99 -49 238 138 276 625 306 174 325 -144 235 55Q235 55 221.5 44.5Q208 34 188.0 18.5Q168 3 148.0 -12.5Q128 -28 114.0 -38.5Q100 -49 99 -49Z" fill="#00796b" stroke="none" transform="scale(1,-1) translate(0,-256)" /></svg>