<?xml version="1.0" encoding="utf-8" ?>
<svg baseProfile="full" height="256" version="1.1" width="256" xmlns="http://www.w3.org/2000/svg" xmlns:ev="http://www.w3.org/2001/xml-events" xmlns:xlink="http://www.w3.org/1999/xlink"><defs /><path d="M648 712Q656 717 663.0 712.0Q670 707 673 701Q677 695 684.0 679.5Q691 664 692 639Q693 627 691.0 607.0Q689 587 686 576Q683 567 678.5 560.0Q674 553 662 556Q653 558 654.5 568.5Q656 579 657 586Q658 593 660.0 609.5Q662 626 662 637Q661 650 658.5 659.0Q656 668 651 677Q646 687 643.5 696.5Q641 706 648 712Z" fill="#606568" stroke="none" transform="scale(1,-1) translate(0,-256)" /><path d="M725 691Q732 696 738.0 692.0Q744 688 748 682Q760 665 761 644Q762 636 761.5 621.5Q761 607 760 601Q759 594 756.0 582.0Q753 570 741 572Q733 574 731.5 580.5Q730 587 731 597Q731 605 732.0 615.5Q733 626 733 632Q733 650 729 661Q726 666 723.0 676.0Q720 686 725 691Z" fill="#606568" stroke="none" transform="scale(1,-1) translate(0,-256)" /><path d="M578 718Q589 724 599.0 711.5Q609 699 615.0 678.5Q621 658 622 638Q623 615 621.0 599.0Q619 583 613 566Q609 554 599.5 548.0Q590 542 582 550Q578 555 581.5 565.0Q585 575 587 582Q590 590 591.0 603.5Q592 617 593 632Q593 646 589.5 658.5Q586 671 583 678Q580 684 573.5 698.5Q567 713 578 718Z" fill="#606568" stroke="none" transform="scale(1,-1) translate(0,-256)" /></svg>