<?xml version="1.0" encoding="utf-8" ?>
<svg baseProfile="full" height="256" version="1.1" width="256" xmlns="http://www.w3.org/2000/svg" xmlns:ev="http://www.w3.org/2001/xml-events" xmlns:xlink="http://www.w3.org/1999/xlink"><defs /><path d="M363 605Q320 586 279.0 555.5Q238 525 211 505Q190 488 170.0 470.0Q150 452 152 449Q154 446 177.0 437.5Q200 429 221 427Q235 425 253.0 427.0Q271 429 284.0 431.5Q297 434 297 434L296 386Q296 386 309.5 378.5Q323 371 344 364Q374 355 410.0 350.5Q446 346 481.5 344.0Q517 342 545 341Q562 341 595.0 341.0Q628 341 667.0 341.5Q706 342 743.5 342.0Q781 342 807.5 341.5Q834 341 842 340Q872 334 889.5 319.5Q907 305 915 266Q919 248 911.5 227.0Q904 206 892.5 188.0Q881 170 871.5 158.5Q862 147 862 147Q862 147 881.0 147.0Q900 147 937.0 158.0Q974 169 1027 200Q1072 226 1092.5 267.5Q1113 309 1114.5 355.5Q1116 402 1103.5 445.0Q1091 488 1070 518Q1050 547 1024.0 564.5Q998 582 974.0 591.0Q950 600 934.5 602.5Q919 605 919 605Q919 605 924.5 590.5Q930 576 937.0 558.5Q944 541 948 531Q955 511 959.0 485.0Q963 459 963.5 438.0Q964 417 960 411Q955 403 930.5 416.5Q906 430 874.5 457.5Q843 485 816 520Q800 540 784.0 568.5Q768 597 757.0 619.0Q746 641 746 641Q746 641 719.0 644.0Q692 647 647.0 648.5Q602 650 549 647Q505 644 452.0 632.5Q399 621 363 605Z" fill="#e0e0e0" stroke="none" transform="scale(1,-1) translate(0,-256)" /></svg>