<?xml version="1.0" encoding="utf-8" ?>
<svg baseProfile="full" height="256" version="1.1" width="256" xmlns="http://www.w3.org/2000/svg" xmlns:ev="http://www.w3.org/2001/xml-events" xmlns:xlink="http://www.w3.org/1999/xlink"><defs /><path d="M643 592Q649 601 660.0 604.0Q671 607 680 601Q690 595 695.0 581.5Q700 568 689 556Q681 545 668.5 545.0Q656 545 648 552Q638 560 637.5 571.0Q637 582 643 592Z" fill="#c9e3e6" stroke="none" transform="scale(1,-1) translate(0,-256)" /><path d="M773 488H774Q778 501 790.0 506.0Q802 511 815 506Q827 500 831.0 489.5Q835 479 832 467Q828 454 815.0 450.0Q802 446 793 449Q781 452 775.5 464.0Q770 476 773 488Z" fill="#c9e3e6" stroke="none" transform="scale(1,-1) translate(0,-256)" /><path d="M944 496Q946 507 954.5 513.5Q963 520 975 519Q990 517 995.5 508.0Q1001 499 999 488Q998 476 990.5 468.0Q983 460 969 462Q955 463 948.5 473.5Q942 484 944 496Z" fill="#c9e3e6" stroke="none" transform="scale(1,-1) translate(0,-256)" /><path d="M260 -70Q268 -62 268.0 -50.5Q268 -39 256 -27Q245 -14 231.0 -15.0Q217 -16 209 -26Q200 -35 202.0 -48.5Q204 -62 216 -71Q242 -90 260 -70ZM941 404 948 355Q948 355 939.5 361.5Q931 368 914 364Q900 360 897.0 349.0Q894 338 894.5 327.5Q895 317 890 314Q885 310 878.5 314.0Q872 318 863.5 320.0Q855 322 843 313Q833 305 833.0 294.0Q833 283 834.5 274.0Q836 265 830 263Q825 261 819.5 265.5Q814 270 805.5 273.0Q797 276 785 268Q771 259 770.5 248.0Q770 237 773.5 229.0Q777 221 774 219Q769 216 761.5 219.0Q754 222 745.0 223.5Q736 225 726 219Q713 210 712.0 199.0Q711 188 714.0 179.5Q717 171 714 169Q712 166 705.5 172.0Q699 178 689.5 181.0Q680 184 669 175Q658 167 658.5 155.5Q659 144 662.0 134.5Q665 125 661 123Q657 120 649.5 125.5Q642 131 632.0 134.0Q622 137 610 129Q599 120 599.5 109.5Q600 99 603.5 91.0Q607 83 604 82Q599 80 587.5 87.5Q576 95 560 84Q548 76 548.5 64.5Q549 53 552.5 43.5Q556 34 555 32Q553 30 544.0 35.5Q535 41 523.5 44.5Q512 48 503 39Q494 31 494.0 22.0Q494 13 496.5 6.0Q499 -1 495 -5Q492 -9 486.0 -6.0Q480 -3 472.0 -0.5Q464 2 454 -4Q444 -10 443.0 -17.5Q442 -25 443.5 -32.5Q445 -40 441 -45Q438 -50 430.0 -47.0Q422 -44 412.0 -42.0Q402 -40 392 -48Q382 -57 384.0 -66.5Q386 -76 389.5 -85.0Q393 -94 388 -99Q383 -104 373.5 -99.0Q364 -94 353.0 -90.0Q342 -86 333 -93Q323 -100 324.5 -110.0Q326 -120 329.0 -128.0Q332 -136 330 -138Q325 -141 308.5 -134.0Q292 -127 279 -131Q270 -134 267.0 -146.5Q264 -159 263.0 -171.0Q262 -183 260 -185Q258 -186 241.0 -172.0Q224 -158 199.5 -136.5Q175 -115 151.0 -93.5Q127 -72 111.0 -57.5Q95 -43 95 -43L556 521Q556 521 575.5 507.0Q595 493 624.0 472.0Q653 451 683.5 430.0Q714 409 737.5 394.0Q761 379 768 378Q775 377 794.5 379.0Q814 381 839.0 385.0Q864 389 887.0 393.5Q910 398 925.5 401.0Q941 404 941 404Z" fill="#c9e3e6" stroke="none" transform="scale(1,-1) translate(0,-256)" /></svg>