<?xml version="1.0" encoding="utf-8" ?>
<svg baseProfile="full" height="256" version="1.1" width="256" xmlns="http://www.w3.org/2000/svg" xmlns:ev="http://www.w3.org/2001/xml-events" xmlns:xlink="http://www.w3.org/1999/xlink"><defs /><path d="M1150 691Q1155 660 1142.0 628.0Q1129 596 1104 561Q1078 526 1055.0 497.5Q1032 469 1023 463Q1017 458 993.5 450.5Q970 443 941.0 436.0Q912 429 890 426Q856 421 820.5 416.5Q785 412 768 416Q762 418 740.0 431.5Q718 445 690.0 463.5Q662 482 635.5 501.0Q609 520 591.5 534.0Q574 548 574 550Q574 553 585.0 570.5Q596 588 611.0 609.0Q626 630 637.0 646.0Q648 662 648 662Q648 662 645.0 677.5Q642 693 645 704Q645 708 658.5 727.5Q672 747 691.5 774.0Q711 801 730.5 827.5Q750 854 764.0 872.5Q778 891 781 894Q794 908 805.5 909.0Q817 910 817 910Q817 910 825.0 904.5Q833 899 836 890Q838 882 837.0 873.0Q836 864 836 864Q836 864 858.5 856.5Q881 849 917.0 836.0Q953 823 994 805Q1055 778 1099.5 750.0Q1144 722 1150 691ZM1011 541Q1028 544 1042.0 564.5Q1056 585 1059.5 611.0Q1063 637 1050 656Q1038 675 1010.5 683.0Q983 691 950.0 695.5Q917 700 888 710Q868 717 847.5 728.0Q827 739 807.5 746.0Q788 753 771.0 750.0Q754 747 740 727Q714 691 721.0 666.5Q728 642 746 628Q755 621 792.0 607.0Q829 593 873 578Q918 562 958.5 550.5Q999 539 1011 541Z" fill="#d68b52" stroke="none" transform="scale(1,-1) translate(0,-256)" /></svg>