<?xml version="1.0" encoding="utf-8" ?>
<svg baseProfile="full" height="256" version="1.1" width="256" xmlns="http://www.w3.org/2000/svg" xmlns:ev="http://www.w3.org/2001/xml-events" xmlns:xlink="http://www.w3.org/1999/xlink"><defs /><path d="M928 836Q917 826 926.5 815.0Q936 804 946 788Q953 778 958.5 765.5Q964 753 971.0 745.5Q978 738 990 744Q1008 752 1005.5 773.0Q1003 794 991 810Q977 831 959.0 839.0Q941 847 928 836Z" fill="#ff8a80" stroke="none" transform="scale(1,-1) translate(0,-256)" /><path d="M646 843Q657 837 650.5 826.0Q644 815 638 800Q632 785 628.0 768.0Q624 751 607 756Q591 760 590.0 778.0Q589 796 596 812Q605 831 619.0 841.0Q633 851 646 843Z" fill="#ff8a80" stroke="none" transform="scale(1,-1) translate(0,-256)" /><path d="M344 -38Q353 -42 356.5 -50.5Q360 -59 356 -68Q351 -83 335 -83Q330 -83 326 -81Q324 -81 302.5 -68.5Q281 -56 250.0 -26.0Q219 4 187.0 56.5Q155 109 132 190Q115 251 113.5 308.5Q112 366 120.5 416.0Q129 466 141.0 508.0Q153 550 162 581Q162 581 183.5 640.0Q205 699 264 800Q276 821 296.0 827.5Q316 834 328 823Q339 812 328.5 801.5Q318 791 308 776Q305 771 295.5 754.5Q286 738 274.0 717.0Q262 696 251.5 676.5Q241 657 238 647L234 639Q231 630 228.0 623.0Q225 616 222 609Q218 599 214.0 589.0Q210 579 204 564L201 557Q189 523 175.0 468.5Q161 414 158.5 345.5Q156 277 177 203Q199 127 228.5 80.5Q258 34 282 9Q307 -17 325.5 -27.5Q344 -38 344 -38Z" fill="#ff8a80" stroke="none" transform="scale(1,-1) translate(0,-256)" /></svg>