<?xml version="1.0" encoding="utf-8" ?>
<svg baseProfile="full" height="256" version="1.1" width="256" xmlns="http://www.w3.org/2000/svg" xmlns:ev="http://www.w3.org/2001/xml-events" xmlns:xlink="http://www.w3.org/1999/xlink"><defs /><path d="M649 876Q641 890 625.0 893.0Q609 896 599 879Q600 882 601.5 885.5Q603 889 605 892Q615 912 638.0 912.0Q661 912 671 892Q683 870 697.0 834.0Q711 798 727.0 759.0Q743 720 761 689Q768 679 779.0 676.5Q790 674 799 680Q787 670 771.0 670.5Q755 671 742.0 677.0Q729 683 725 691Q707 722 694.0 756.5Q681 791 670.5 822.5Q660 854 649 876Z" fill="#cc3332" stroke="none" transform="scale(1,-1) translate(0,-256)" /><path d="M336 880Q326 899 311.0 899.0Q296 899 288 881Q279 869 267 855Q276 867 284.0 877.5Q292 888 299 898Q312 914 333.0 912.0Q354 910 363 891Q396 824 422.5 772.5Q449 721 466 690Q471 680 481.5 677.0Q492 674 501 678Q481 664 459.5 670.0Q438 676 431 688Q415 720 391.5 766.5Q368 813 336 880Z" fill="#cc3332" stroke="none" transform="scale(1,-1) translate(0,-256)" /><path d="M1200 275Q1200 275 1198.0 249.0Q1196 223 1187.0 179.5Q1178 136 1156.5 84.5Q1135 33 1096.5 -19.0Q1058 -71 997.0 -114.5Q936 -158 847.5 -184.5Q759 -211 638 -212Q547 -212 475.5 -196.0Q404 -180 348 -154Q398 -172 458.0 -182.0Q518 -192 590 -193Q711 -192 799.5 -165.0Q888 -138 949.0 -94.5Q1010 -51 1048.5 1.0Q1087 53 1108.5 104.5Q1130 156 1139.5 199.0Q1149 242 1150.5 268.5Q1152 295 1152 295Q1152 420 1132.0 514.5Q1112 609 1081.0 678.5Q1050 748 1016.5 797.5Q983 847 956 883Q949 894 932.5 895.5Q916 897 907 879Q881 825 860.5 786.0Q840 747 825 718Q841 750 863.5 793.5Q886 837 912 891Q921 910 942.0 912.0Q963 914 976 898Q1003 861 1041.0 806.5Q1079 752 1115.5 676.0Q1152 600 1176.0 500.5Q1200 401 1200 275Z" fill="#cc3332" stroke="none" transform="scale(1,-1) translate(0,-256)" /></svg>