<?xml version="1.0" encoding="utf-8" ?>
<svg baseProfile="full" height="256" version="1.1" width="256" xmlns="http://www.w3.org/2000/svg" xmlns:ev="http://www.w3.org/2001/xml-events" xmlns:xlink="http://www.w3.org/1999/xlink"><defs /><path d="M211 501Q211 501 203.5 491.5Q196 482 188 466Q182 455 180.5 436.0Q179 417 180.0 402.0Q181 387 181 387Q181 387 202.5 371.5Q224 356 272.5 335.0Q321 314 399.0 297.5Q477 281 591 279Q716 278 805.0 289.5Q894 301 952.5 319.5Q1011 338 1044.0 356.5Q1077 375 1090.5 387.5Q1104 400 1104 400Q1104 400 1104.5 420.5Q1105 441 1090 481Q1079 512 1063.5 526.5Q1048 541 1044 552Q1042 559 1043.5 567.0Q1045 575 1044.5 588.5Q1044 602 1035 625Q1025 652 1013.0 664.5Q1001 677 991.0 682.5Q981 688 976 693Q969 700 964.0 717.0Q959 734 933 754Q914 768 896.5 772.5Q879 777 865.5 778.0Q852 779 845 784Q838 788 833.0 797.5Q828 807 817.5 817.0Q807 827 785 834Q751 844 735.0 840.0Q719 836 703 837Q688 839 679.0 844.5Q670 850 657.0 854.5Q644 859 618 857Q588 855 571.0 842.0Q554 829 545 825Q535 821 514.0 823.5Q493 826 465 813Q438 801 426.5 785.5Q415 770 404 759Q397 752 387.5 750.0Q378 748 363.5 742.5Q349 737 327 720Q309 706 300.0 687.5Q291 669 288.5 655.0Q286 641 286 641Q286 641 274.0 638.0Q262 635 247.0 624.5Q232 614 221 591Q213 575 211.0 554.0Q209 533 210.0 517.0Q211 501 211 501Z" fill="#ffffff" stroke="none" transform="scale(1,-1) translate(0,-256)" /></svg>