<?xml version="1.0" encoding="utf-8" ?>
<svg baseProfile="full" height="256" version="1.1" width="256" xmlns="http://www.w3.org/2000/svg" xmlns:ev="http://www.w3.org/2001/xml-events" xmlns:xlink="http://www.w3.org/1999/xlink"><defs /><path d="M270 580Q289 575 309 574L347 571L353 646L315 649Q274 652 237.5 672.5Q201 693 176 726L167 740Q162 747 153.0 748.5Q144 750 137 745L110 725Q103 720 101.5 711.5Q100 703 105 696L115 682Q143 643 183.5 616.5Q224 590 270 580Z" fill="#874d36" stroke="none" transform="scale(1,-1) translate(0,-256)" /><path d="M336 532 411 541 406 578Q394 676 343.5 760.0Q293 844 213 900L201 909Q193 914 184.0 912.5Q175 911 170 904L152 879Q147 871 148.5 862.0Q150 853 157 847L170 839Q237 791 279.0 720.5Q321 650 331 569Z" fill="#874d36" stroke="none" transform="scale(1,-1) translate(0,-256)" /><path d="M409 536Q413 537 419 540Q436 548 450 561Q466 577 462.0 595.0Q458 613 447 630Q430 655 403 668Q395 672 388.5 673.5Q382 675 374 673Q366 671 359.0 667.0Q352 663 346 658Q338 652 331.5 643.5Q325 635 322 625Q321 621 321.5 617.0Q322 613 321 609Q329 612 337 610Q346 607 353.5 601.5Q361 596 367 589Q380 577 387 562Q390 556 391.5 547.5Q393 539 401 537Q404 536 409 536Z" fill="#874d36" stroke="none" transform="scale(1,-1) translate(0,-256)" /></svg>