<?xml version="1.0" encoding="utf-8" ?>
<svg baseProfile="full" height="256" version="1.1" width="256" xmlns="http://www.w3.org/2000/svg" xmlns:ev="http://www.w3.org/2001/xml-events" xmlns:xlink="http://www.w3.org/1999/xlink"><defs /><path d="M621 470Q758 472 859.0 444.0Q960 416 1025.5 367.5Q1091 319 1122.5 257.5Q1154 196 1152 131Q1151 76 1115.0 22.0Q1079 -32 1013.0 -76.0Q947 -120 854.0 -146.5Q761 -173 646 -174Q546 -175 453.0 -154.0Q360 -133 285.0 -92.0Q210 -51 165.5 8.0Q121 67 118 141Q115 235 175.0 308.5Q235 382 349.0 425.0Q463 468 621 470Z" fill="#f6f6f6" stroke="none" transform="scale(1,-1) translate(0,-256)" /><path d="M765 -12Q765 -12 786.0 -11.5Q807 -11 830 -5Q846 -1 855.0 9.5Q864 20 857 26Q851 32 839.5 24.5Q828 17 814 9Q800 2 782.5 -5.0Q765 -12 765 -12Z" fill="#f6f6f6" stroke="none" transform="scale(1,-1) translate(0,-256)" /><path d="M339 65Q339 65 344.5 61.0Q350 57 359 54Q367 51 372.5 50.5Q378 50 378 50Q378 50 380.5 46.0Q383 42 387 38Q392 32 395.0 30.0Q398 28 397 25Q395 22 385.5 25.5Q376 29 365 36Q352 45 345.5 54.5Q339 64 339 65Z" fill="#f6f6f6" stroke="none" transform="scale(1,-1) translate(0,-256)" /></svg>