<?xml version="1.0" encoding="utf-8" ?>
<svg baseProfile="full" height="256" version="1.1" width="256" xmlns="http://www.w3.org/2000/svg" xmlns:ev="http://www.w3.org/2001/xml-events" xmlns:xlink="http://www.w3.org/1999/xlink"><defs /><path d="M439 658Q439 658 440.0 658.5Q441 659 444 660Q445 661 457.0 663.5Q469 666 482.0 669.0Q495 672 499 673Q502 674 524.5 680.0Q547 686 575.0 693.0Q603 700 623.5 705.5Q644 711 644 711L652 691Q652 691 633.5 686.5Q615 682 586.5 675.5Q558 669 529.0 662.0Q500 655 479.5 650.5Q459 646 455 645Q447 644 443.0 649.0Q439 654 439 658Z" fill="#adadad" stroke="none" transform="scale(1,-1) translate(0,-256)" /><path d="M443 629 663 674 672 666 674 650Q674 650 653.0 646.5Q632 643 601.0 638.0Q570 633 538.0 628.5Q506 624 484.0 620.5Q462 617 460 616Q453 615 450.0 617.5Q447 620 446 622Q443 626 443.0 627.5Q443 629 443 629Z" fill="#adadad" stroke="none" transform="scale(1,-1) translate(0,-256)" /><path d="M453 596Q453 596 471.0 598.5Q489 601 515.0 604.5Q541 608 567.5 611.5Q594 615 612.0 617.0Q630 619 630 619Q631 619 641.5 622.5Q652 626 665.5 630.0Q679 634 689.5 637.0Q700 640 700 640L819 754L906 840Q906 840 920.5 844.5Q935 849 956.0 855.5Q977 862 998.5 868.5Q1020 875 1035.0 880.0Q1050 885 1051 885Q1052 886 1071.5 889.5Q1091 893 1115.5 897.0Q1140 901 1158.5 904.0Q1177 907 1177 907Q1177 907 1176.5 897.5Q1176 888 1170 881Q1159 868 1105 857Q1086 854 1054.0 846.5Q1022 839 990.0 831.0Q958 823 938 817Q909 809 888.5 785.5Q868 762 862 748Q858 738 851.0 718.5Q844 699 831.5 678.0Q819 657 797 643Q766 623 732.0 614.0Q698 605 676 602Q667 601 643.5 598.5Q620 596 590.5 593.5Q561 591 532.5 589.0Q504 587 484.0 586.0Q464 585 461 586Q455 588 454.0 592.0Q453 596 453 596Z" fill="#adadad" stroke="none" transform="scale(1,-1) translate(0,-256)" /></svg>