<?xml version="1.0" encoding="utf-8" ?>
<svg baseProfile="full" height="256" version="1.1" width="256" xmlns="http://www.w3.org/2000/svg" xmlns:ev="http://www.w3.org/2001/xml-events" xmlns:xlink="http://www.w3.org/1999/xlink"><defs /><path d="M402 365 916 373Q916 373 929.0 367.5Q942 362 954.5 351.5Q967 341 965 325Q964 313 954.0 304.0Q944 295 934.5 290.5Q925 286 925 286Q925 286 923.0 274.0Q921 262 914 247Q904 230 887.5 216.5Q871 203 844 197Q817 191 787.0 197.0Q757 203 737 206Q718 209 695.5 203.0Q673 197 657 193Q640 188 609.5 179.0Q579 170 539 179Q513 186 493.5 200.5Q474 215 457.0 230.5Q440 246 422 256Q404 265 383.0 273.0Q362 281 347.0 289.5Q332 298 333 308Q333 321 343.5 331.5Q354 342 368.0 349.5Q382 357 392.0 361.0Q402 365 402 365Z" fill="#bc2a16" stroke="none" transform="scale(1,-1) translate(0,-256)" /><path d="M744 341Q745 352 753.0 359.0Q761 366 772 366Q803 367 808 343Q810 333 802.5 321.5Q795 310 777 310Q760 310 751.5 319.5Q743 329 744 341Z" fill="#bc2a16" stroke="none" transform="scale(1,-1) translate(0,-256)" /><path d="M708 310Q716 314 724.5 311.5Q733 309 735 299Q738 291 731.5 284.0Q725 277 720 277Q703 274 697 286Q695 290 697.0 298.0Q699 306 708 310Z" fill="#bc2a16" stroke="none" transform="scale(1,-1) translate(0,-256)" /><path d="M473 360Q470 379 477.5 387.0Q485 395 496 400Q506 404 518.5 403.5Q531 403 539 393Q546 383 546.0 367.5Q546 352 522 342Q501 332 487.5 339.0Q474 346 473 360Z" fill="#bc2a16" stroke="none" transform="scale(1,-1) translate(0,-256)" /></svg>