<?xml version="1.0" encoding="utf-8" ?>
<svg baseProfile="full" height="256" version="1.1" width="256" xmlns="http://www.w3.org/2000/svg" xmlns:ev="http://www.w3.org/2001/xml-events" xmlns:xlink="http://www.w3.org/1999/xlink"><defs /><path d="M812 737Q812 700 822.0 636.5Q832 573 856.5 492.0Q881 411 922.5 322.0Q964 233 1025.0 143.0Q1086 53 1171 -28Q1182 -39 1182.0 -54.5Q1182 -70 1172 -81L1057 -200Q1045 -212 1029.5 -212.0Q1014 -212 1003 -201Q926 -125 862.5 -31.5Q799 62 751.5 161.0Q704 260 674.0 352.0Q644 444 636 516Q634 522 628.5 524.0Q623 526 619 521L533 420Q517 402 493.0 394.5Q469 387 445 392Q421 398 403.0 415.5Q385 433 380 458L340 623Q338 633 327.5 636.5Q317 640 309 632L183 523Q171 511 154.5 512.0Q138 513 128 526L65 608Q56 619 57.0 633.5Q58 648 68 658L313 878Q335 899 362.5 907.5Q390 916 411 909Q432 900 445.0 884.0Q458 868 467 838L503 701Q506 690 517.0 687.5Q528 685 535 693L650 819Q707 882 760 861Q794 848 802.5 820.0Q811 792 812 765Q812 759 812.0 752.0Q812 745 812 737Z" fill="#ffcc32" stroke="none" transform="scale(1,-1) translate(0,-256)" /></svg>