<?xml version="1.0" encoding="utf-8" ?>
<svg baseProfile="full" height="256" version="1.1" width="256" xmlns="http://www.w3.org/2000/svg" xmlns:ev="http://www.w3.org/2001/xml-events" xmlns:xlink="http://www.w3.org/1999/xlink"><defs /><path d="M859 737Q858 700 868.5 636.5Q879 573 903.0 492.0Q927 411 968.5 322.0Q1010 233 1071.5 143.0Q1133 53 1218 -28Q1229 -39 1229.0 -54.5Q1229 -70 1219 -81L1103 -200Q1092 -212 1075 -212Q1071 -212 1059.5 -212.0Q1048 -212 1038.0 -212.0Q1028 -212 1028 -212Q1028 -212 1010.5 -182.0Q993 -152 964.0 -101.0Q935 -50 899.5 15.0Q864 80 828.0 150.5Q792 221 760.5 289.5Q729 358 708.0 416.5Q687 475 683 516Q681 522 675.5 524.0Q670 526 666 521L580 420Q554 389 513 389Q509 389 497.5 389.0Q486 389 475.5 389.0Q465 389 465 389Q465 389 456.5 402.0Q448 415 438.5 431.5Q429 448 427 458L387 623Q385 633 374.5 636.5Q364 640 356 632L231 523Q219 512 202 512Q194 512 188.0 512.5Q182 513 154 512L112 608Q102 619 103.5 633.5Q105 648 115 658L360 878Q372 890 382.0 901.5Q392 913 392 913Q392 913 401.5 913.0Q411 913 421.5 913.0Q432 913 436 913Q449 913 457 909Q478 900 491.0 884.0Q504 868 513 838L549 701Q552 690 563.0 687.5Q574 685 581 693L696 819Q707 831 720.0 848.5Q733 866 733 866Q733 866 751.5 866.0Q770 866 780 866Q792 866 807 861Q841 848 849.5 820.0Q858 792 859 765Q859 759 859.0 752.0Q859 745 859 737Z" fill="#f2a600" stroke="none" transform="scale(1,-1) translate(0,-256)" /></svg>