<?xml version="1.0" encoding="utf-8" ?>
<svg baseProfile="full" height="256" version="1.1" width="256" xmlns="http://www.w3.org/2000/svg" xmlns:ev="http://www.w3.org/2001/xml-events" xmlns:xlink="http://www.w3.org/1999/xlink"><defs /><path d="M702 828Q702 828 730.0 818.5Q758 809 803.0 788.0Q848 767 899.0 734.0Q950 701 995 655Q1056 593 1089.0 535.0Q1122 477 1135.5 431.0Q1149 385 1149.5 358.5Q1150 332 1146 333Q1136 335 1122.0 341.0Q1108 347 1071 342Q1046 340 1031.5 327.0Q1017 314 1009.0 303.5Q1001 293 996 295Q991 297 979.5 304.5Q968 312 944.5 320.5Q921 329 878 333Q836 337 805.0 327.5Q774 318 756.0 308.0Q738 298 733 300Q727 301 710.0 315.0Q693 329 665.5 347.0Q638 365 602 378Q562 391 528.0 387.5Q494 384 471.5 377.0Q449 370 443 373Q436 375 426.0 392.0Q416 409 398.0 430.5Q380 452 352 469Q323 485 297.0 488.0Q271 491 253.0 488.5Q235 486 229 489Q223 491 215.0 505.0Q207 519 195.5 537.0Q184 555 169 570Q147 591 124.0 594.5Q101 598 92 603Q89 604 99.0 623.5Q109 643 133.0 672.0Q157 701 197.5 733.5Q238 766 296 795Q353 823 411.0 834.5Q469 846 521.0 847.0Q573 848 614.0 843.5Q655 839 678.5 833.5Q702 828 702 828Z" fill="#ee5948" stroke="none" transform="scale(1,-1) translate(0,-256)" /></svg>