<?xml version="1.0" encoding="utf-8" ?>
<svg baseProfile="full" height="256" version="1.1" width="256" xmlns="http://www.w3.org/2000/svg" xmlns:ev="http://www.w3.org/2001/xml-events" xmlns:xlink="http://www.w3.org/1999/xlink"><defs /><path d="M705 806Q705 806 724.5 797.0Q744 788 775.5 768.0Q807 748 842.5 713.0Q878 678 910 626Q938 580 955.5 529.0Q973 478 982.0 433.5Q991 389 993.5 361.0Q996 333 992 332Q988 332 971.0 339.0Q954 346 928.0 353.5Q902 361 869 362Q834 364 808.0 356.5Q782 349 768.0 342.0Q754 335 754 338Q753 344 756.0 367.5Q759 391 763.5 425.5Q768 460 771.0 499.5Q774 539 773 576Q771 644 760.0 687.5Q749 731 735.5 755.0Q722 779 712.0 788.5Q702 798 702 798Q702 798 689.0 793.5Q676 789 653.0 773.5Q630 758 599.5 725.0Q569 692 533 634Q515 603 499.5 568.0Q484 533 473.0 502.0Q462 471 455.0 449.5Q448 428 445 424Q441 420 430.0 434.0Q419 448 400.5 468.5Q382 489 355 502Q329 516 304.5 520.5Q280 525 263.5 526.5Q247 528 245 532Q244 535 260.5 565.5Q277 596 314.0 639.5Q351 683 414 728Q470 768 522.5 786.0Q575 804 616.0 807.5Q657 811 681.0 808.5Q705 806 705 806Z" fill="#fefefe" stroke="none" transform="scale(1,-1) translate(0,-256)" /></svg>