<?xml version="1.0" encoding="utf-8" ?>
<svg baseProfile="full" height="256" version="1.1" width="256" xmlns="http://www.w3.org/2000/svg" xmlns:ev="http://www.w3.org/2001/xml-events" xmlns:xlink="http://www.w3.org/1999/xlink"><defs /><path d="M706 493Q712 471 720.5 436.5Q729 402 738.0 364.0Q747 326 754.0 293.0Q761 260 766.0 239.0Q771 218 771 218Q771 218 760.0 211.0Q749 204 724.5 196.5Q700 189 660 189H654Q595 189 560.0 199.5Q525 210 525 210Q525 210 525.5 231.0Q526 252 527.0 284.0Q528 316 529.5 349.0Q531 382 532 407Q536 455 542.0 491.5Q548 528 583 551Q583 551 597.5 559.5Q612 568 633 568Q652 568 672.5 553.0Q693 538 706 493Z" fill="#000000" stroke="none" transform="scale(1,-1) translate(0,-256)" /><path d="M707 323Q709 310 710.0 287.5Q711 265 702.0 244.5Q693 224 663 218Q648 214 626.5 210.5Q605 207 583 203Q553 198 526.5 193.0Q500 188 494 185Q494 185 479.0 180.0Q464 175 447 174Q432 173 422.0 174.0Q412 175 409 175L375 155Q371 153 366 153Q359 153 354 159Q347 168 353 177Q363 191 380.0 210.0Q397 229 415 232Q439 235 458.0 238.0Q477 241 489 243Q497 245 514.5 253.5Q532 262 551.5 272.5Q571 283 587.0 292.5Q603 302 609 306L576 448Q575 450 577 452Q578 454 580 454L676 463Q680 463 681 459Q681 459 684.5 442.0Q688 425 692.5 401.5Q697 378 701.0 356.0Q705 334 707 323Z" fill="#000000" stroke="none" transform="scale(1,-1) translate(0,-256)" /><path d="M743.4969482421875 489.4984130859375Q742.4930725097656 483.4221496582031 736.7832412719727 466.84705352783203Q731.0734100341797 450.27195739746094 712.1332244873047 440.77610778808594Q697.9280853271484 433.6542205810547 696.1616058349609 425.7290496826172Q696.1616058349609 425.7290496826172 695.65966796875 422.69091796875Q695.1577301025391 419.6527862548828 696.7023315429688 417.93402099609375Q698.5075988769531 415.0260314941406 700.3031692504883 414.82633209228516Q702.0987396240234 414.6266326904297 702.0987396240234 414.6266326904297Q702.0987396240234 414.6266326904297 696.2003936767578 414.89588928222656Q690.3020477294922 415.16514587402344 683.8123550415039 419.4643020629883Q677.3226623535156 423.7634582519531 675.0973052978516 436.5801544189453Q673.2532501220703 450.32130432128906 679.7450790405273 463.32872772216797Q686.2369079589844 476.3361511230469 694.9950180053711 483.0002975463867Q703.7531280517578 489.66444396972656 708.8888702392578 487.54627990722656Q724.6967926025391 476.6996612548828 734.2875213623047 483.56126403808594Q743.8782501220703 490.42286682128906 743.4969482421875 489.4984130859375Z" fill="#000000" stroke="none" transform="scale(1,-1) translate(0,-256)" /><path d="M496.19017028808594 847.1821746826172Q503.65452575683594 827.8154296875 500.9621887207031 806.4530639648438Q500.25904846191406 797.3417358398438 496.7952575683594 787.9610824584961Q493.3314666748047 778.5804290771484 486.52410888671875 774.9020690917969Q479.81390380859375 770.2284393310547 473.4552688598633 770.1104736328125Q467.0966339111328 769.9925079345703 462.3640899658203 769.5308074951172Q465.53065490722656 777.8777160644531 463.47314453125 786.7197189331055Q461.41563415527344 795.5617218017578 458.9637451171875 804.3652496337891Q456.4147033691406 814.1640472412109 453.076904296875 823.8858947753906Q449.7391052246094 833.6077423095703 444.13218688964844 842.1034698486328Q449.7621765136719 849.6859588623047 452.1399841308594 857.9559173583984Q454.5177917480469 866.2258758544922 454.5177917480469 866.2258758544922Q457.2957458496094 878.5538635253906 453.66648864746094 891.2615203857422Q456.1299133300781 890.4971008300781 459.479248046875 888.8143615722656Q462.8285827636719 887.1316223144531 464.5032501220703 886.2902526855469Q485.5823211669922 874.2802276611328 496.19017028808594 847.1821746826172Z" fill="#000000" stroke="none" transform="scale(1,-1) translate(0,-256)" /><path d="M600.9182739257812 689.3935394287109Q600.9182739257812 689.3935394287109 597.6445922851562 682.9558563232422Q594.3709106445312 676.5181732177734 586.131103515625 669.49951171875Q577.8912963867188 662.4808502197266 563.167724609375 659.2446899414062Q551.33642578125 657.1037292480469 537.6656799316406 657.7749252319336Q523.9949340820312 658.4461212158203 512.9820556640625 657.9145812988281Q502.96240234375 657.4992370605469 497.8055725097656 654.2470169067383Q492.64874267578125 650.9947967529297 484.059326171875 646.9625854492188Q473.48345947265625 642.6979827880859 462.4705810546875 642.1664428710938Q451.45770263671875 641.6349029541016 440.44482421875 641.1033630371094Q416.4326171875 639.8078918457031 407.6524963378906 633.1044387817383Q398.87237548828125 626.4009857177734 398.0817565917969 620.253791809082Q397.2911376953125 614.1065979003906 397.2911376953125 614.1065979003906Q382.774169921875 617.7061462402344 375.1382751464844 627.030143737793Q367.50238037109375 636.3541412353516 369.0836181640625 648.6485290527344Q370.108642578125 657.0936584472656 375.6468811035156 665.688362121582Q381.18511962890625 674.2830657958984 391.673583984375 679.2942810058594Q380.81170654296875 694.6739959716797 387.79608154296875 703.8162994384766Q394.78045654296875 712.9586029052734 404.9034118652344 716.7918014526367Q415.0263671875 720.625 415.0263671875 720.625Q415.0263671875 720.625 414.86346435546875 713.4159851074219Q414.7005615234375 706.2069702148438 424.982421875 704.3824768066406Q429.042724609375 704.1006469726562 433.4685363769531 704.9968338012695Q437.89434814453125 705.8930206298828 439.79339599609375 706.8720245361328Q443.59149169921875 708.8300323486328 446.8929748535156 710.7299423217773Q450.1944580078125 712.6298522949219 453.9925537109375 714.5878601074219Q463.400390625 720.2294921875 473.3485412597656 725.5559158325195Q483.29669189453125 730.8823394775391 497.02703857421875 734.0023040771484Q516.7167358398438 737.8194427490234 537.3400573730469 737.9616165161133Q557.96337890625 738.1037902832031 574.9912109375 730.2569580078125Q589.8577880859375 723.6709594726562 598.1213989257812 713.2851409912109Q606.385009765625 702.8993225097656 600.9182739257812 689.3935394287109Z" fill="#000000" stroke="none" transform="scale(1,-1) translate(0,-256)" /><path d="M752.1959533691406 221.4698486328125Q759.7911529541016 211.86146545410156 770.0707778930664 207.82909393310547Q780.3504028320312 203.79672241210938 788.3877868652344 202.77020263671875Q796.4251708984375 201.74368286132812 796.4251708984375 201.74368286132812Q796.4251708984375 201.74368286132812 785.7033615112305 197.1941909790039Q774.9815521240234 192.6446990966797 755.0183868408203 199.19358825683594Q728.3403015136719 207.71987915039062 718.4377136230469 218.3428192138672Q708.5351257324219 228.96575927734375 707.7456436157227 236.90508270263672Q706.9561614990234 244.8444061279297 708.0970306396484 245.17860412597656Q725.3126678466797 243.4597625732422 734.1554260253906 252.24847412109375Q743.436279296875 244.8243408203125 745.1850357055664 236.60253143310547Q746.9337921142578 228.38072204589844 752.1959533691406 221.4698486328125Z" fill="#000000" stroke="none" transform="scale(1,-1) translate(0,-256)" /></svg>