<?xml version="1.0" encoding="utf-8" ?>
<svg baseProfile="full" height="256" version="1.1" width="256" xmlns="http://www.w3.org/2000/svg" xmlns:ev="http://www.w3.org/2001/xml-events" xmlns:xlink="http://www.w3.org/1999/xlink"><defs /><path d="M837 -96Q845 -101 848.5 -118.5Q852 -136 849.5 -152.5Q847 -169 836 -171Q793 -176 744.0 -185.0Q695 -194 658 -194Q640 -194 628 -191Q600 -185 583.0 -162.0Q566 -139 569 -80Q570 -58 571.5 -26.5Q573 5 575.0 35.0Q577 65 578.0 85.0Q579 105 579 105Q601 105 631.5 110.5Q662 116 690.5 123.0Q719 130 738.0 135.0Q757 140 757 140Q751 114 741.0 77.0Q731 40 720.0 4.5Q709 -31 701.5 -54.5Q694 -78 695 -78Z" fill="#616161" stroke="none" transform="scale(1,-1) translate(0,-256)" /></svg>