<?xml version="1.0" encoding="utf-8" ?>
<svg baseProfile="full" height="256" version="1.1" width="256" xmlns="http://www.w3.org/2000/svg" xmlns:ev="http://www.w3.org/2001/xml-events" xmlns:xlink="http://www.w3.org/1999/xlink"><defs /><path d="M727 795Q734 775 729.0 758.5Q724 742 721 736Q723 730 724.5 713.0Q726 696 706 679Q691 667 692 659Q694 651 700.5 651.0Q707 651 707 651Q707 651 698.0 639.5Q689 628 667 629Q640 630 627.5 641.5Q615 653 612.0 664.5Q609 676 610 677Q624 681 630.0 692.5Q636 704 634.0 716.0Q632 728 620 731Q615 732 610.0 728.0Q605 724 601 718L592 706Q592 706 590.0 706.0Q588 706 585 709Q575 722 576.5 738.5Q578 755 580.0 768.5Q582 782 573 788Q573 788 572.5 788.0Q572 788 571 788Q567 786 563.5 784.0Q560 782 556 780Q545 776 534.0 777.0Q523 778 512 779Q488 781 478.5 773.5Q469 766 467.5 758.0Q466 750 466 750Q452 757 445.5 770.5Q439 784 442 800Q444 811 450.5 821.5Q457 832 468 837Q459 859 467.0 870.0Q475 881 485.5 884.5Q496 888 496 888Q496 888 495.0 878.5Q494 869 504 865Q508 864 512.5 864.5Q517 865 519 866Q523 868 526.5 870.0Q530 872 534 874Q544 880 554.5 885.5Q565 891 579 892Q618 897 639.0 887.0Q660 877 669.0 863.0Q678 849 679 843Q686 841 702.0 830.5Q718 820 727 795Z" fill="#543930" stroke="none" transform="scale(1,-1) translate(0,-256)" /></svg>