<?xml version="1.0" encoding="utf-8" ?>
<svg baseProfile="full" height="256" version="1.1" width="256" xmlns="http://www.w3.org/2000/svg" xmlns:ev="http://www.w3.org/2001/xml-events" xmlns:xlink="http://www.w3.org/1999/xlink"><defs /><path d="M763 223Q773 144 737 105Q710 75 667.5 69.0Q625 63 579 65Q556 66 531.5 65.0Q507 64 497 64L473 -130Q473 -133 471 -134Q471 -134 460.0 -139.0Q449 -144 427 -144Q405 -144 393.0 -139.0Q381 -134 380 -134Q378 -133 378 -131Q378 -130 375.5 -109.5Q373 -89 370.0 -58.5Q367 -28 364.0 3.0Q361 34 360 55Q359 88 363.0 119.5Q367 151 383.0 172.5Q399 194 434 197Q456 199 482.5 202.0Q509 205 533.0 208.0Q557 211 573.0 213.0Q589 215 589 215L758 227Q763 227 763 223Z" fill="#7c7c7c" stroke="none" transform="scale(1,-1) translate(0,-256)" /></svg>