<?xml version="1.0" encoding="utf-8" ?>
<svg baseProfile="full" height="256" version="1.1" width="256" xmlns="http://www.w3.org/2000/svg" xmlns:ev="http://www.w3.org/2001/xml-events" xmlns:xlink="http://www.w3.org/1999/xlink"><defs /><path d="M1000 -143Q1018 -150 1015.0 -158.0Q1012 -166 1012 -166Q1006 -180 990.0 -185.5Q974 -191 961 -191Q956 -191 951 -190Q951 -190 936.5 -188.5Q922 -187 900.0 -183.5Q878 -180 856 -176Q835 -171 832.5 -162.5Q830 -154 834.5 -147.0Q839 -140 839 -140Q839 -140 836.0 -127.0Q833 -114 841 -101L865 -71Q872 -63 880 -63Q888 -63 899 -72Q907 -79 918.5 -91.0Q930 -103 943 -114Q953 -121 966.0 -127.5Q979 -134 989.5 -138.5Q1000 -143 1000 -143Z" fill="#4568ac" stroke="none" transform="scale(1,-1) translate(0,-256)" /><path d="M479 -171V-200Q479 -212 467 -212H308Q298 -212 298 -202V-189Q298 -162 323 -151L388 -130H459Q459 -130 469.0 -143.5Q479 -157 479 -171Z" fill="#4568ac" stroke="none" transform="scale(1,-1) translate(0,-256)" /></svg>