<?xml version="1.0" encoding="utf-8" ?>
<svg baseProfile="full" height="256" version="1.1" width="256" xmlns="http://www.w3.org/2000/svg" xmlns:ev="http://www.w3.org/2001/xml-events" xmlns:xlink="http://www.w3.org/1999/xlink"><defs /><path d="M687 364Q706 382 718.0 395.0Q730 408 741 420Q747 428 743.5 458.5Q740 489 728.5 533.5Q717 578 698.5 627.5Q680 677 655 723Q631 767 632.5 796.0Q634 825 650.5 837.5Q667 850 690.0 844.5Q713 839 732 815Q730 823 729.0 830.0Q728 837 727 844Q703 866 678.0 868.5Q653 871 634 855Q606 833 610.5 787.5Q615 742 666 657Q660 634 649.0 594.5Q638 555 627.0 514.5Q616 474 609 447Q590 493 569.0 512.0Q548 531 527.5 532.5Q507 534 489 528Q460 519 444.0 490.5Q428 462 434 427Q399 458 366.0 453.5Q333 449 312.0 420.5Q291 392 291 350Q290 328 289.5 309.0Q289 290 288 273Q286 240 286.0 211.0Q286 182 291.0 146.5Q296 111 310 60Q337 -37 386.5 -93.0Q436 -149 497.5 -173.5Q559 -198 622 -198V-188Q551 -179 500.0 -153.5Q449 -128 415.0 -91.0Q381 -54 361.0 -12.5Q341 29 330 70Q317 120 312.0 147.5Q307 175 306.5 192.5Q306 210 308 230Q308 239 308.5 249.5Q309 260 309 273Q309 275 309.0 276.5Q309 278 309 280Q309 302 310.5 331.5Q312 361 319 388Q323 402 339.0 416.0Q355 430 377.5 431.5Q400 433 423 411Q427 407 436.0 400.5Q445 394 452.0 388.5Q459 383 458 385Q446 428 456.0 457.5Q466 487 487.0 501.0Q508 515 532.0 512.5Q556 510 573 490Q582 462 589.0 438.0Q596 414 603 395Q602 371 581.5 355.0Q561 339 533.0 334.5Q505 330 483 342Q471 349 473 322Q473 304 463.0 295.0Q453 286 441 281Q419 271 392.5 277.5Q366 284 350 310Q345 322 339.0 323.5Q333 325 333 314Q331 251 351.5 213.5Q372 176 405.0 152.5Q438 129 474 110Q509 91 541.5 69.5Q574 48 595 13Q598 30 607.0 55.5Q616 81 628.0 106.5Q640 132 654.0 150.0Q668 168 682 172Q695 175 702.0 173.5Q709 172 715 163Q719 158 737.5 145.5Q756 133 775.5 121.5Q795 110 802 108Q825 102 838.5 109.5Q852 117 856.0 129.5Q860 142 854 150Q851 156 839.0 169.5Q827 183 812.5 198.5Q798 214 787.0 226.0Q776 238 773 240Q773 240 773 241Q770 244 760.5 251.0Q751 258 737.5 261.0Q724 264 707 254Q696 249 674.5 239.0Q653 229 626.0 220.0Q599 211 571 208Q565 208 563.5 202.5Q562 197 570 193Q578 188 576.0 182.5Q574 177 571 178Q531 189 518.0 212.5Q505 236 511.0 261.0Q517 286 534 300Q551 314 595.0 329.0Q639 344 687 364Z" fill="#faa700" stroke="none" transform="scale(1,-1) translate(0,-256)" /><path d="M741 812 757 798Q757 798 761.5 808.5Q766 819 773.5 833.0Q781 847 791 858Q806 875 826.0 874.0Q846 873 860.5 859.5Q875 846 873 826Q872 819 871.0 810.5Q870 802 866 798Q846 776 816.5 772.5Q787 769 766 780Q771 771 782.0 748.0Q793 725 805.5 699.5Q818 674 826.5 656.0Q835 638 835 638L843 652Q840 658 837 664Q841 685 859.0 723.0Q877 761 891 802Q901 833 890.0 855.5Q879 878 857.0 888.5Q835 899 811.5 894.5Q788 890 773 868Q769 862 762.5 850.0Q756 838 747 821Q745 823 743 826Z" fill="#faa700" stroke="none" transform="scale(1,-1) translate(0,-256)" /></svg>