<?xml version="1.0" encoding="utf-8" ?>
<svg baseProfile="full" height="256" version="1.1" width="256" xmlns="http://www.w3.org/2000/svg" xmlns:ev="http://www.w3.org/2001/xml-events" xmlns:xlink="http://www.w3.org/1999/xlink"><defs /><path d="M930 253Q928 289 922.5 339.0Q917 389 907.0 445.5Q897 502 880.0 558.0Q863 614 837 664Q841 685 859.0 723.0Q877 761 891 802Q901 833 890.0 855.5Q879 878 857.0 888.5Q835 899 811.5 894.5Q788 890 773 868Q769 862 762.5 850.0Q756 838 747 821Q720 858 689.0 866.5Q658 875 634 855Q606 833 610.5 787.5Q615 742 666 657Q660 634 649.0 594.5Q638 555 627.0 514.5Q616 474 609 447Q590 493 569.0 512.0Q548 531 527.5 532.5Q507 534 489 528Q460 519 444.0 490.5Q428 462 434 427Q399 458 366.0 453.5Q333 449 312.0 420.5Q291 392 291 350Q290 306 288.0 273.5Q286 241 286.0 211.5Q286 182 291.0 146.5Q296 111 310 60Q333 -25 374.5 -78.5Q416 -132 467.5 -159.5Q519 -187 575.0 -194.0Q631 -201 684.0 -192.5Q737 -184 779 -165Q827 -144 861.5 -105.5Q896 -67 919.0 -25.0Q942 17 954.0 50.0Q966 83 968 95Q980 151 965.5 190.0Q951 229 930 253Z" fill="#ffca28" stroke="none" transform="scale(1,-1) translate(0,-256)" /></svg>