<?xml version="1.0" encoding="utf-8" ?>
<svg baseProfile="full" height="256" version="1.1" width="256" xmlns="http://www.w3.org/2000/svg" xmlns:ev="http://www.w3.org/2001/xml-events" xmlns:xlink="http://www.w3.org/1999/xlink"><defs /><path d="M995 846V847Q1000 829 998.5 810.5Q997 792 999 774Q1000 767 1000.5 759.5Q1001 752 1005 747Q1009 741 1020.5 733.0Q1032 725 1039 720Q1044 718 1039.5 716.0Q1035 714 1013 716Q992 718 979.5 721.0Q967 724 953 731Q938 738 927.5 761.5Q917 785 923 826Q926 848 939 862Q944 867 956.0 868.5Q968 870 979.5 865.0Q991 860 995 846Z" fill="#debca8" stroke="none" transform="scale(1,-1) translate(0,-256)" /><path d="M76 77 74 73Q83 30 107.5 14.5Q132 -1 173 -3Q179 -4 196.0 -3.0Q213 -2 232.5 -4.5Q252 -7 263 -18Q276 -30 281.0 -53.5Q286 -77 287.0 -98.5Q288 -120 289 -125Q292 -167 311.0 -187.0Q330 -207 373 -215Q420 -224 451.0 -214.5Q482 -205 488 -201Q512 -188 523.0 -165.5Q534 -143 537.0 -118.0Q540 -93 538.5 -72.0Q537 -51 536 -41V-37Q534 -3 546.5 30.0Q559 63 583 88L907 417Q916 426 918.5 428.0Q921 430 935 445Q944 455 960.0 457.0Q976 459 988.5 458.5Q1001 458 1001 458Q1001 458 1015.5 457.0Q1030 456 1051.0 455.0Q1072 454 1092.0 454.5Q1112 455 1123 458Q1138 462 1157.0 478.0Q1176 494 1190.0 523.0Q1204 552 1204 595Q1204 653 1173.5 683.0Q1143 713 1103 716Q1098 716 1092.0 716.0Q1086 716 1072 716Q1072 716 1085.5 712.0Q1099 708 1115.0 698.0Q1131 688 1137 670Q1146 643 1140.0 608.0Q1134 573 1113 554Q1092 536 1063.5 532.0Q1035 528 1004 532Q989 534 979.0 542.5Q969 551 957.5 556.5Q946 562 927.0 554.5Q908 547 874 516Q851 496 818.0 462.5Q785 429 747.5 390.0Q710 351 673.5 312.0Q637 273 607.5 240.5Q578 208 560.0 188.5Q542 169 542 169Q542 169 533.0 158.5Q524 148 511.5 131.5Q499 115 488.0 96.0Q477 77 473 59Q469 33 467.5 -1.5Q466 -36 463 -69Q461 -91 452.5 -111.0Q444 -131 412 -147Q391 -157 368.0 -158.5Q345 -160 312 -138Q296 -128 291.5 -102.5Q287 -77 285.0 -46.0Q283 -15 275.0 13.5Q267 42 243 58Q225 71 202.5 73.0Q180 75 157.5 76.5Q135 78 115 88Q113 90 114.0 88.5Q115 87 105 95Q95 103 84.5 96.0Q74 89 76 77Z" fill="#debca8" stroke="none" transform="scale(1,-1) translate(0,-256)" /></svg>