<?xml version="1.0" encoding="utf-8" ?>
<svg baseProfile="full" height="256" version="1.1" width="256" xmlns="http://www.w3.org/2000/svg" xmlns:ev="http://www.w3.org/2001/xml-events" xmlns:xlink="http://www.w3.org/1999/xlink"><defs /><path d="M141 761Q141 761 131.5 753.0Q122 745 110.0 728.5Q98 712 92 687Q86 668 85.5 640.0Q85 612 86.0 587.0Q87 562 87 552Q87 537 75.0 525.5Q63 514 65 513Q69 508 85.5 509.0Q102 510 121 527Q138 542 145.0 559.0Q152 576 156.0 592.5Q160 609 169 622Q177 635 184.0 631.5Q191 628 196.0 618.0Q201 608 204 601Q207 594 216.5 579.5Q226 565 234.0 552.0Q242 539 243 539Q248 539 264.0 551.5Q280 564 288 589Q295 610 295.5 634.5Q296 659 297.0 677.5Q298 696 305 701Q313 706 325.0 701.5Q337 697 354.0 691.5Q371 686 393 688Q415 689 437.5 697.5Q460 706 474.0 717.0Q488 728 487 735Q486 742 474.5 742.5Q463 743 446.5 742.5Q430 742 414 747Q390 754 368.0 769.0Q346 784 307 798Q267 811 242.5 807.5Q218 804 218 804Q218 804 208.0 822.5Q198 841 190 857Q182 872 179.0 884.0Q176 896 164 902Q154 907 141.5 902.5Q129 898 122 889Q117 883 111.0 871.0Q105 859 107 840Q109 826 117.0 807.0Q125 788 133.0 774.5Q141 761 141 761Z" fill="#6f9823" stroke="none" transform="scale(1,-1) translate(0,-256)" /></svg>