<?xml version="1.0" encoding="utf-8" ?>
<svg baseProfile="full" height="256" version="1.1" width="256" xmlns="http://www.w3.org/2000/svg" xmlns:ev="http://www.w3.org/2001/xml-events" xmlns:xlink="http://www.w3.org/1999/xlink"><defs /><path d="M962 748Q1001 748 999 711V77Q999 38 991 20Q982 1 960 -9Q936 -21 865 -24Q816 -25 803 10Q788 59 858 58Q878 58 889.5 58.0Q901 58 906 58Q923 58 923 77V413V711Q923 748 962 748ZM603 238Q627 238 643 222Q659 206 659 181V72Q659 47 643 31Q627 15 603 15H365Q340 15 324 31Q308 47 308 72V181Q308 206 324 222Q340 238 365 238H484ZM583 98V157Q583 178 563 178H401Q381 178 381 157V98Q381 77 401 77H482H563Q583 77 583 98ZM825 235Q825 198 788 198Q750 198 750 236V435V636Q750 673 788 673Q825 673 825 636ZM666 340Q696 340 696 310Q696 279 666 279H477H289Q259 279 259 310Q259 340 289 340H442V389H337Q309 389 309 418Q309 445 337 445H443V492H344Q315 492 315 522Q315 551 344 551H442V566Q442 603 479 603Q517 603 517 566V551H630Q659 551 659 522Q659 492 630 492H517V445H621Q648 445 648 418Q648 389 621 389H517V340ZM648 687Q674 687 688 672Q704 656 704 631V583Q704 546 668 546Q630 546 630 583V603Q630 624 609 624H479H349Q328 624 328 603V581Q328 546 293 546Q258 546 258 581V630Q258 655 274 671Q290 687 314 687H441V723Q441 761 479 761Q517 761 517 723V687Z" fill="#fafafa" stroke="none" transform="scale(1,-1) translate(0,-256)" /></svg>