<?xml version="1.0" encoding="utf-8" ?>
<svg baseProfile="full" height="256" version="1.1" width="256" xmlns="http://www.w3.org/2000/svg" xmlns:ev="http://www.w3.org/2001/xml-events" xmlns:xlink="http://www.w3.org/1999/xlink"><defs /><path d="M768 19Q701 -14 631 2Q599 10 571.0 26.5Q543 43 519 66Q482 104 472.5 153.0Q463 202 474.5 253.5Q486 305 511 350Q531 385 559.0 416.5Q587 448 614.0 472.0Q641 496 659.0 509.5Q677 523 677 523Q677 523 662.0 507.0Q647 491 625.0 465.0Q603 439 580.5 408.0Q558 377 543 348Q526 315 529.5 270.5Q533 226 555.0 185.0Q577 144 617.0 119.0Q657 94 712 100Q765 105 796.0 123.0Q827 141 842.0 166.0Q857 191 862.0 219.0Q867 247 867 273Q867 273 867.0 273.0Q867 273 867 273Q876 216 873.0 168.5Q870 121 846.0 83.5Q822 46 768 19Z" fill="#e2a610" stroke="none" transform="scale(1,-1) translate(0,-256)" /><path d="M601 741Q601 716 613.5 696.5Q626 677 645 669Q635 665 624 665Q597 665 578.0 687.5Q559 710 559 741Q559 773 578.0 795.5Q597 818 624 818Q634 818 645 814Q626 806 613.5 786.5Q601 767 601 741Z" fill="#e2a610" stroke="none" transform="scale(1,-1) translate(0,-256)" /></svg>