<?xml version="1.0" encoding="utf-8" ?>
<svg baseProfile="full" height="256" version="1.1" width="256" xmlns="http://www.w3.org/2000/svg" xmlns:ev="http://www.w3.org/2001/xml-events" xmlns:xlink="http://www.w3.org/1999/xlink"><defs /><path d="M178 611Q178 611 185.5 597.0Q193 583 203 574Q213 565 226.5 557.5Q240 550 253 549L409 534L407 529Q398 511 386 502L238 515Q210 518 191.0 539.5Q172 561 174 589Q174 601 178 611Z" fill="#e2a610" stroke="none" transform="scale(1,-1) translate(0,-256)" /><path d="M1090 -125Q1094 -137 1101.5 -148.0Q1109 -159 1119 -169Q1135 -184 1151.0 -188.0Q1167 -192 1167 -192Q1155 -200 1143 -203Q1115 -210 1089.5 -196.0Q1064 -182 1056 -154L1013 -14Q1023 1 1041 14L1044 16Z" fill="#e2a610" stroke="none" transform="scale(1,-1) translate(0,-256)" /></svg>