<?xml version="1.0" encoding="utf-8" ?>
<svg baseProfile="full" height="256" version="1.1" width="256" xmlns="http://www.w3.org/2000/svg" xmlns:ev="http://www.w3.org/2001/xml-events" xmlns:xlink="http://www.w3.org/1999/xlink"><defs /><path d="M1195 -118Q1200 -140 1192.0 -160.0Q1184 -180 1167 -192Q1136 -196 1114.0 -174.0Q1092 -152 1084 -126L946 326Q924 398 865.0 446.0Q806 494 731 500L252 544Q225 546 203.0 565.0Q181 584 178 611Q186 631 204.5 644.0Q223 657 246 657L896 646Q954 645 998.5 608.5Q1043 572 1055 516Z" fill="#a65f3e" stroke="none" transform="scale(1,-1) translate(0,-256)" /></svg>