<?xml version="1.0" encoding="utf-8" ?>
<svg baseProfile="full" height="256" version="1.1" width="256" xmlns="http://www.w3.org/2000/svg" xmlns:ev="http://www.w3.org/2001/xml-events" xmlns:xlink="http://www.w3.org/1999/xlink"><defs /><path d="M299 -200H486Q486 -200 486.0 -183.0Q486 -166 486.0 -142.0Q486 -118 486.0 -96.5Q486 -75 486 -67Q486 -51 478.0 -31.5Q470 -12 450.0 3.0Q430 18 396 18Q346 18 323.5 -9.0Q301 -36 301 -64Q301 -74 301.0 -95.5Q301 -117 300.5 -141.0Q300 -165 299.5 -182.0Q299 -199 299 -200Z" fill="#d27856" stroke="none" transform="scale(1,-1) translate(0,-256)" /></svg>