<?xml version="1.0" encoding="utf-8" ?>
<svg baseProfile="full" height="256" version="1.1" width="256" xmlns="http://www.w3.org/2000/svg" xmlns:ev="http://www.w3.org/2001/xml-events" xmlns:xlink="http://www.w3.org/1999/xlink"><defs /><path d="M412 539Q422 537 422.0 530.0Q422 523 422 523Q422 523 433.5 518.0Q445 513 452 496Q458 481 455.5 458.0Q453 435 455 426Q456 417 465.0 408.0Q474 399 473 396Q472 393 455.0 389.5Q438 386 392 390Q346 393 331.5 400.5Q317 408 316 410Q316 413 326.0 421.0Q336 429 340 437Q345 446 346.5 468.5Q348 491 359 507Q371 522 383.5 523.5Q396 525 396 525Q396 525 398.0 533.0Q400 541 412 539Z" fill="#feb804" stroke="none" transform="scale(1,-1) translate(0,-256)" /></svg>