<?xml version="1.0" encoding="utf-8" ?>
<svg baseProfile="full" height="256" version="1.1" width="256" xmlns="http://www.w3.org/2000/svg" xmlns:ev="http://www.w3.org/2001/xml-events" xmlns:xlink="http://www.w3.org/1999/xlink"><defs /><path d="M539 34Q540 14 529.0 5.0Q518 -4 518 -4Q518 -4 516.0 -4.5Q514 -5 514 -4Q513 -2 514.5 -1.0Q516 0 516 0Q516 1 523.0 9.5Q530 18 529 33Q528 48 517 55Q506 62 493 58Q479 53 476 37Q474 24 482 18Q492 11 500 16Q508 21 507 30Q506 36 503 37Q500 38 498 37Q496 36 496.0 33.5Q496 31 497 31Q497 31 497.0 28.0Q497 25 493 25Q489 24 488.0 26.5Q487 29 487 29Q487 32 487.5 36.5Q488 41 493 45Q499 49 507 46Q509 45 512.0 41.5Q515 38 516 31Q519 15 505 8Q491 0 477 10Q464 20 467 38Q468 44 471 50Q467 49 466 49Q455 49 444 56Q436 61 432 71Q428 68 420.5 64.0Q413 60 401 60Q397 60 393 61Q377 63 368 74Q368 70 367 68Q363 58 352 53Q345 50 338 50Q330 50 323 54Q326 43 322.0 34.0Q318 25 317 25Q317 25 316.0 23.5Q315 22 313 23Q311 24 311.5 25.5Q312 27 312 27Q312 27 315.0 39.5Q318 52 310 62Q304 69 295.0 70.5Q286 72 280 68Q270 63 267 52Q265 41 272 32Q276 28 282.5 28.0Q289 28 292 31Q295 33 296.0 36.5Q297 40 297 41Q296 45 294 47Q292 48 290 47Q288 46 287.0 44.5Q286 43 286 43Q285 42 283.5 40.5Q282 39 279 40Q276 42 277.0 45.5Q278 49 278 49Q279 50 281.0 53.0Q283 56 288 57Q293 58 299 55Q305 51 306 41Q306 30 297 23Q291 18 282 18Q271 18 265 26Q254 38 258 54Q262 71 276 78Q289 83 304 77Q302 83 304.5 96.0Q307 109 326 115Q341 119 350.5 114.5Q360 110 362 104Q363 108 364 110Q370 126 385 130Q403 136 416 126Q425 120 426.0 108.5Q427 97 423 90Q419 81 411.0 78.5Q403 76 396 78Q383 81 383 94Q383 99 385.0 102.0Q387 105 389 106Q394 109 398.0 108.5Q402 108 403 108Q408 106 407 102Q406 97 401 99Q398 100 395 98Q393 96 393 93Q393 90 395.0 88.5Q397 87 399 87Q410 84 415 94Q418 98 417.0 106.5Q416 115 411 119Q402 125 387 121Q384 120 379.5 116.0Q375 112 373 107Q367 93 374 82Q380 72 395 70Q411 68 420.5 75.0Q430 82 430 82Q428 97 438 108Q446 117 461.0 117.5Q476 118 486 110Q498 100 499 84Q500 76 496 68Q511 70 523 63Q537 53 539 34ZM357 73Q362 85 356 96Q352 103 345.0 106.5Q338 110 329 106Q314 100 313.0 90.0Q312 80 315 75Q319 67 327.5 62.5Q336 58 348 63Q355 66 357 73ZM484 66Q490 72 490 83Q489 95 480 103Q473 109 462.0 108.5Q451 108 445 101Q438 93 440 79Q441 69 449 64Q461 56 470.5 59.0Q480 62 484 66Z" fill="#bf077c" stroke="none" transform="scale(1,-1) translate(0,-256)" /></svg>