<?xml version="1.0" encoding="utf-8" ?>
<svg baseProfile="full" height="256" version="1.1" width="256" xmlns="http://www.w3.org/2000/svg" xmlns:ev="http://www.w3.org/2001/xml-events" xmlns:xlink="http://www.w3.org/1999/xlink"><defs /><path d="M572 550V520L533 306H284L221 518Q221 518 221.0 525.5Q221 533 221.0 540.5Q221 548 222 549Q222 549 247.5 549.5Q273 550 313.0 550.0Q353 550 397.5 550.0Q442 550 482.0 550.0Q522 550 547.0 550.0Q572 550 572 550ZM483 332Q483 332 483.5 349.0Q484 366 484.0 390.5Q484 415 483.5 437.0Q483 459 482 467Q480 478 472.0 493.5Q464 509 447.0 521.0Q430 533 402 532Q360 532 340.5 510.5Q321 489 318 468Q316 454 314.5 431.0Q313 408 313.0 385.5Q313 363 313.0 347.5Q313 332 313 332Z" fill="#bfb5b3" stroke="none" transform="scale(1,-1) translate(0,-256)" /></svg>