<?xml version="1.0" encoding="utf-8" ?>
<svg baseProfile="full" height="256" version="1.1" width="256" xmlns="http://www.w3.org/2000/svg" xmlns:ev="http://www.w3.org/2001/xml-events" xmlns:xlink="http://www.w3.org/1999/xlink"><defs /><path d="M410 -76Q412 -74 419.5 -74.5Q427 -75 428 -76Q428 -77 428.5 -88.0Q429 -99 428.5 -110.5Q428 -122 427 -123Q426 -125 419.0 -125.0Q412 -125 411 -123Q410 -123 409.5 -111.5Q409 -100 409.5 -88.5Q410 -77 410 -76Z" fill="#fac010" stroke="none" transform="scale(1,-1) translate(0,-256)" /><path d="M362.468994140625 -75.25Q364.468994140625 -73.25 371.968994140625 -73.75Q379.468994140625 -74.25 380.468994140625 -75.25Q380.468994140625 -76.25 380.968994140625 -87.25Q381.468994140625 -98.25 380.968994140625 -109.75Q380.468994140625 -121.25 379.468994140625 -122.25Q378.468994140625 -124.25 371.468994140625 -124.25Q364.468994140625 -124.25 363.468994140625 -122.25Q362.468994140625 -122.25 361.968994140625 -110.75Q361.468994140625 -99.25 361.968994140625 -87.75Q362.468994140625 -76.25 362.468994140625 -75.25Z" fill="#fac010" stroke="none" transform="scale(1,-1) translate(0,-256)" /></svg>