<?xml version="1.0" encoding="utf-8" ?>
<svg baseProfile="full" height="256" version="1.1" width="256" xmlns="http://www.w3.org/2000/svg" xmlns:ev="http://www.w3.org/2001/xml-events" xmlns:xlink="http://www.w3.org/1999/xlink"><defs /><path d="M245 286 549 278V520L482 519Q482 519 492.0 506.0Q502 493 503 476Q504 469 504.5 444.0Q505 419 505.0 389.0Q505 359 505.5 337.0Q506 315 506 315L294 314Q294 314 294.5 333.0Q295 352 295.0 379.0Q295 406 295.5 430.0Q296 454 296 465Q297 487 305.5 502.5Q314 518 314 518H245Z" fill="#ebe7e6" stroke="none" transform="scale(1,-1) translate(0,-256)" /><path d="M142 76Q142 76 142.0 51.5Q142 27 142.0 -9.0Q142 -45 142.5 -81.5Q143 -118 143.0 -142.5Q143 -167 143 -167L186 -175L188 76Z" fill="#ebe7e6" stroke="none" transform="scale(1,-1) translate(0,-256)" /><path d="M210 -158 223 -166H586V31L396 195L210 23Z" fill="#ebe7e6" stroke="none" transform="scale(1,-1) translate(0,-256)" /><path d="M609 -162Q609 -162 637.5 -162.5Q666 -163 713.0 -163.0Q760 -163 816.0 -162.5Q872 -162 928.5 -162.0Q985 -162 1032.0 -162.0Q1079 -162 1107.5 -162.0Q1136 -162 1136 -162V84H609Z" fill="#ebe7e6" stroke="none" transform="scale(1,-1) translate(0,-256)" /></svg>