<?xml version="1.0" encoding="utf-8" ?>
<svg baseProfile="full" height="256" version="1.1" width="256" xmlns="http://www.w3.org/2000/svg" xmlns:ev="http://www.w3.org/2001/xml-events" xmlns:xlink="http://www.w3.org/1999/xlink"><defs /><path d="M221 287 263 281 245 518H221Z" fill="#5f4d4e" stroke="none" transform="scale(1,-1) translate(0,-256)" /><path d="M572 293 529 283 550 520H572Z" fill="#5f4d4e" stroke="none" transform="scale(1,-1) translate(0,-256)" /><path d="M117 76H142L174 -11L210 23L586 31L611 8L644 -196L452 -76L226 -144L206 -193Q206 -193 192.5 -195.0Q179 -197 161.0 -199.0Q143 -201 129.5 -202.0Q116 -203 116 -201Q116 -200 116.0 -179.5Q116 -159 116.0 -127.5Q116 -96 116.5 -61.0Q117 -26 117.0 5.5Q117 37 117.0 56.5Q117 76 117 76Z" fill="#5f4d4e" stroke="none" transform="scale(1,-1) translate(0,-256)" /><path d="M1163 83 1164 -162H1134L1092 -110L1130 83Z" fill="#5f4d4e" stroke="none" transform="scale(1,-1) translate(0,-256)" /></svg>