<?xml version="1.0" encoding="utf-8" ?>
<svg baseProfile="full" height="256" version="1.1" width="256" xmlns="http://www.w3.org/2000/svg" xmlns:ev="http://www.w3.org/2001/xml-events" xmlns:xlink="http://www.w3.org/1999/xlink"><defs /><path d="M636 912Q708 912 767.0 891.5Q826 871 861.0 837.0Q896 803 896 761Q896 720 861.0 692.5Q826 665 767.0 652.0Q708 639 636 639Q564 639 505.0 652.0Q446 665 411.0 692.5Q376 720 376 761Q376 803 411.0 837.0Q446 871 505.0 891.5Q564 912 636 912Z" fill="#9e9e9e" stroke="none" transform="scale(1,-1) translate(0,-256)" /><path d="M934.7588043212891 337.94422912597656Q942.9524688720703 327.6940155029297 935.7759704589844 318.4744567871094Q932.7006683349609 315.4015350341797 926.0392990112305 313.3547058105469Q919.3779296875 311.30787658691406 912.2057952880859 313.3600616455078Q904.0093536376953 316.4373474121094 887.6164703369141 322.5919189453125Q871.2235870361328 328.7464904785156 844.5812835693359 328.7568054199219Q818.9636840820312 328.7667236328125 802.5660400390625 322.6248474121094Q786.1683959960938 316.48297119140625 777.9695739746094 313.4120330810547Q769.7711486816406 311.3657989501953 763.1113662719727 313.41778564453125Q756.4515838623047 315.4697723388672 754.4033660888672 318.544677734375Q747.2340087890625 327.76979064941406 754.4109039306641 338.01405334472656Q763.6376037597656 349.2822265625 784.6491928100586 362.5952453613281Q805.6607818603516 375.90826416015625 844.5995330810547 375.8931884765625Q883.5382843017578 375.87811279296875 905.0519104003906 362.5486297607422Q926.5655364990234 349.2191467285156 934.7588043212891 337.94422912597656Z" fill="#9e9e9e" stroke="none" transform="scale(1,-1) translate(0,-256)" /><path d="M523.5713043212891 337.94422912597656Q531.7649688720703 327.6940155029297 524.5884704589844 318.4744567871094Q521.5131683349609 315.4015350341797 514.8517990112305 313.3547058105469Q508.1904296875 311.30787658691406 501.01829528808594 313.3600616455078Q492.8218536376953 316.4373474121094 476.42897033691406 322.5919189453125Q460.0360870361328 328.7464904785156 433.39378356933594 328.7568054199219Q407.77618408203125 328.7667236328125 391.3785400390625 322.6248474121094Q374.98089599609375 316.48297119140625 366.7820739746094 313.4120330810547Q358.5836486816406 311.3657989501953 351.92386627197266 313.41778564453125Q345.2640838623047 315.4697723388672 343.2158660888672 318.544677734375Q336.0465087890625 327.76979064941406 343.22340393066406 338.01405334472656Q352.4501037597656 349.2822265625 373.4616928100586 362.5952453613281Q394.47328186035156 375.90826416015625 433.4120330810547 375.8931884765625Q472.3507843017578 375.87811279296875 493.8644104003906 362.5486297607422Q515.3780364990234 349.2191467285156 523.5713043212891 337.94422912597656Z" fill="#9e9e9e" stroke="none" transform="scale(1,-1) translate(0,-256)" /></svg>