<?xml version="1.0" encoding="utf-8" ?>
<svg baseProfile="full" height="256" version="1.1" width="256" xmlns="http://www.w3.org/2000/svg" xmlns:ev="http://www.w3.org/2001/xml-events" xmlns:xlink="http://www.w3.org/1999/xlink"><defs /><path d="M918 866Q981 866 1039.5 842.5Q1098 819 1139.5 769.5Q1181 720 1195.5 644.0Q1210 568 1185 463Q1170 396 1126.5 325.0Q1083 254 1024.0 186.0Q965 118 901.5 57.5Q838 -3 782.0 -51.0Q726 -99 688 -128Q682 -132 675.5 -130.0Q669 -128 667 -121L608 89Q605 102 611 112L718 297Q723 306 716 314L588 462Q574 479 582 500Q592 524 611.0 567.5Q630 611 654.5 659.0Q679 707 705 743Q740 792 794.0 829.0Q848 866 918 866Z" fill="#f44336" stroke="none" transform="scale(1,-1) translate(0,-256)" /><path d="M633 309Q643 298 636 286L534 110L591 -54L585 -121Q585 -124 582.0 -125.5Q579 -127 577 -125Q536 -93 479.5 -44.0Q423 5 361.5 65.5Q300 126 243.5 193.0Q187 260 145.5 329.0Q104 398 89 463Q64 568 80.5 644.0Q97 720 140.0 769.5Q183 819 240.5 842.5Q298 866 356 866Q417 866 462.5 845.5Q508 825 541.0 794.5Q574 764 595 735Q611 712 599 686L496 468Z" fill="#f44336" stroke="none" transform="scale(1,-1) translate(0,-256)" /></svg>