<?xml version="1.0" encoding="utf-8" ?>
<svg baseProfile="full" height="256" version="1.1" width="256" xmlns="http://www.w3.org/2000/svg" xmlns:ev="http://www.w3.org/2001/xml-events" xmlns:xlink="http://www.w3.org/1999/xlink"><defs /><path d="M410 829Q410 819 390.0 809.0Q370 799 340.5 785.5Q311 772 281.5 752.5Q252 733 233 703Q224 688 217.5 671.5Q211 655 203 641Q197 630 188 624Q171 613 163.0 620.0Q155 627 152.5 643.0Q150 659 150.5 679.0Q151 699 152.5 715.5Q154 732 155 738Q157 758 161.5 779.5Q166 801 179 817Q195 837 224.5 844.5Q254 852 308 854Q352 856 373.5 854.0Q395 852 402.5 846.0Q410 840 410 829Z" fill="#68abe6" stroke="none" transform="scale(1,-1) translate(0,-256)" /></svg>