<?xml version="1.0" encoding="utf-8" ?>
<svg baseProfile="full" height="256" version="1.1" width="256" xmlns="http://www.w3.org/2000/svg" xmlns:ev="http://www.w3.org/2001/xml-events" xmlns:xlink="http://www.w3.org/1999/xlink"><defs /><path d="M676 741Q699 750 727.5 747.5Q756 745 777 736Q781 735 791.0 729.0Q801 723 801 714Q801 705 790.5 703.5Q780 702 777 703Q769 704 748.0 704.0Q727 704 700 699Q683 696 670.5 703.5Q658 711 658 720Q659 727 664.0 733.0Q669 739 676 741Z" fill="#dfecf5" stroke="none" transform="scale(1,-1) translate(0,-256)" /><path d="M496 701Q499 711 513.5 710.5Q528 710 550 698Q579 682 583.0 674.0Q587 666 583 663Q580 661 569.5 663.5Q559 666 547.0 669.5Q535 673 528 675Q523 677 508.5 683.5Q494 690 496 701Z" fill="#dfecf5" stroke="none" transform="scale(1,-1) translate(0,-256)" /></svg>