<?xml version="1.0" encoding="utf-8" ?>
<svg baseProfile="full" height="256" version="1.1" width="256" xmlns="http://www.w3.org/2000/svg" xmlns:ev="http://www.w3.org/2001/xml-events" xmlns:xlink="http://www.w3.org/1999/xlink"><defs /><path d="M823 558Q889 498 928.5 449.0Q968 400 987.5 365.0Q1007 330 1013.5 311.5Q1020 293 1020 293Q1013 272 1006 258Q1006 258 983.5 294.5Q961 331 911.0 391.5Q861 452 781 526Q701 599 641.5 640.5Q582 682 549.5 699.0Q517 716 517 716Q528 722 543 729Q543 729 581.5 714.5Q620 700 684.0 663.0Q748 626 823 558Z" fill="#9e9e9e" stroke="none" transform="scale(1,-1) translate(0,-256)" /></svg>