<?xml version="1.0" encoding="utf-8" ?>
<svg baseProfile="full" height="256" version="1.1" width="256" xmlns="http://www.w3.org/2000/svg" xmlns:ev="http://www.w3.org/2001/xml-events" xmlns:xlink="http://www.w3.org/1999/xlink"><defs /><path d="M366 911Q373 912 382 912Q375 911 366.0 906.5Q357 902 349 884Q343 870 343.0 853.0Q343 836 341 816Q341 812 335.5 803.0Q330 794 306 783Q283 773 257.0 755.5Q231 738 223 726Q222 763 227.0 797.5Q232 832 240 847Q255 874 291.0 888.0Q327 902 366 911Z" fill="#ff7555" stroke="none" transform="scale(1,-1) translate(0,-256)" /><path d="M409 908Q405 909 401.0 910.0Q397 911 394 912Q401 911 409 908Z" fill="#ff7555" stroke="none" transform="scale(1,-1) translate(0,-256)" /><path d="M681 -210Q638 -213 587.0 -187.0Q536 -161 481.5 -113.5Q427 -66 374.0 -4.0Q321 58 275.5 126.5Q230 195 196.5 262.5Q163 330 146.0 390.0Q129 450 135 493Q139 521 153.0 563.5Q167 606 198.5 652.5Q230 699 288 738Q319 760 356.0 772.0Q393 784 429.5 788.5Q466 793 494 793Q530 793 568.0 786.0Q606 779 630 772Q716 748 776.5 687.0Q837 626 876.0 541.0Q915 456 935.0 358.5Q955 261 958.0 162.5Q961 64 950 -24Q945 -66 911.0 -106.5Q877 -147 818.5 -175.5Q760 -204 681 -210Z" fill="#ff7555" stroke="none" transform="scale(1,-1) translate(0,-256)" /><path d="M853 884Q888 885 938.5 865.5Q989 846 1035 816Q1035 816 1025.0 820.5Q1015 825 997.0 825.5Q979 826 955.0 816.0Q931 806 903 777Q894 767 885.0 758.5Q876 750 866 740Q856 729 843.0 727.0Q830 725 823 730Q791 755 757.0 771.0Q723 787 707 786Q728 808 755.5 830.5Q783 853 809.5 868.0Q836 883 853 884Z" fill="#ff7555" stroke="none" transform="scale(1,-1) translate(0,-256)" /><path d="M688 -121Q688 -121 678.5 -118.5Q669 -116 656.0 -100.5Q643 -85 632.0 -48.0Q621 -11 618 58Q617 95 625.0 128.5Q633 162 646.5 182.5Q660 203 676 203Q684 203 658.5 202.5Q633 202 587.5 201.5Q542 201 488.0 200.5Q434 200 382.5 199.0Q331 198 293.5 197.5Q256 197 246 197Q207 196 187.0 157.0Q167 118 167 63Q167 9 172.5 -20.0Q178 -49 186.0 -63.0Q194 -77 202 -88Q212 -100 257.5 -109.5Q303 -119 369 -122Q433 -126 490.0 -126.0Q547 -126 591.5 -125.0Q636 -124 662.0 -122.5Q688 -121 688 -121Z" fill="#ff7555" stroke="none" transform="scale(1,-1) translate(0,-256)" /><path d="M541 63Q540 63 517.0 63.5Q494 64 458.0 64.5Q422 65 381.0 66.5Q340 68 301.5 69.0Q263 70 236.0 71.5Q209 73 201 74Q189 76 181.5 83.5Q174 91 169 100Q167 145 189.0 178.0Q211 211 243 212Q271 212 319.5 211.0Q368 210 424.5 208.5Q481 207 534.0 205.5Q587 204 625.0 203.0Q663 202 674 203Q673 203 672 202Q653 199 638.5 168.5Q624 138 619 96Q615 91 609.5 87.0Q604 83 598 78Q580 66 561.5 65.0Q543 64 541 63Z" fill="#ff7555" stroke="none" transform="scale(1,-1) translate(0,-256)" /></svg>