<?xml version="1.0" encoding="utf-8" ?>
<svg baseProfile="full" height="256" version="1.1" width="256" xmlns="http://www.w3.org/2000/svg" xmlns:ev="http://www.w3.org/2001/xml-events" xmlns:xlink="http://www.w3.org/1999/xlink"><defs /><path d="M332 702 504 742 413 899 333 875Z" fill="#c62828" stroke="none" transform="scale(1,-1) translate(0,-256)" /><path d="M1017 248Q1008 308 994.5 379.0Q981 450 965.0 519.0Q949 588 931.0 643.0Q913 698 894 725Q881 744 876.5 767.0Q872 790 886 814Q896 831 916.0 834.5Q936 838 958.5 833.0Q981 828 1000.0 819.0Q1019 810 1028 801Q1050 779 1059.0 757.5Q1068 736 1073.5 713.0Q1079 690 1089 661Q1107 607 1124.5 541.0Q1142 475 1151.0 407.5Q1160 340 1153 284Q1147 238 1141.0 216.0Q1135 194 1122.0 186.5Q1109 179 1082 178Q1056 177 1040.5 187.5Q1025 198 1017 248Z" fill="#c62828" stroke="none" transform="scale(1,-1) translate(0,-256)" /><path d="M950 -24Q945 -66 911.0 -106.5Q877 -147 818.5 -175.5Q760 -204 681 -210Q678 -210 670 -210Q670 -210 684.0 -206.5Q698 -203 719.0 -190.0Q740 -177 760.5 -149.5Q781 -122 794 -74Q810 -16 812.0 51.0Q814 118 808.0 183.5Q802 249 793.0 303.5Q784 358 777.0 390.5Q770 423 770 423Q762 454 778.5 481.5Q795 509 819 517Q838 523 860.5 511.0Q883 499 905 471Q932 393 945.0 307.5Q958 222 959.0 137.0Q960 52 950 -24Z" fill="#c62828" stroke="none" transform="scale(1,-1) translate(0,-256)" /><path d="M735 109Q740 38 740.0 -12.5Q740 -63 736 -87Q733 -105 716.0 -113.0Q699 -121 679 -122Q669 -123 657.5 -119.0Q646 -115 635.5 -100.0Q625 -85 618.0 -54.0Q611 -23 611 31Q611 52 612 69Q602 62 587.0 55.5Q572 49 552 49L217 60Q201 60 187.0 67.5Q173 75 169 88Q165 99 167.0 112.0Q169 125 169 125Q170 124 175.0 115.5Q180 107 190.0 98.0Q200 89 217 88L552 77Q578 77 594.0 88.5Q610 100 616 114Q621 151 630.0 170.0Q639 189 648.0 195.5Q657 202 664 202Q680 203 691.5 201.5Q703 200 710 192Q718 184 725.5 165.0Q733 146 735 109Z" fill="#c62828" stroke="none" transform="scale(1,-1) translate(0,-256)" /></svg>