<?xml version="1.0" encoding="utf-8" ?>
<svg baseProfile="full" height="256" version="1.1" width="256" xmlns="http://www.w3.org/2000/svg" xmlns:ev="http://www.w3.org/2001/xml-events" xmlns:xlink="http://www.w3.org/1999/xlink"><defs /><path d="M1162 86Q1177 88 1175 102L1169 177Q1168 191 1153 190L1065 182Q1051 181 1052 166L1059 92Q1060 77 1074 79Z" fill="#546e7a" stroke="none" transform="scale(1,-1) translate(0,-256)" /><path d="M846 517Q840 518 834.0 518.5Q828 519 823 518Q794 585 755.5 627.0Q717 669 673.0 693.0Q629 717 585.0 727.5Q541 738 501 741Q432 748 375.0 734.0Q318 720 277.5 698.5Q237 677 215.0 660.0Q193 643 193 643Q193 643 194.5 649.0Q196 655 202 664Q207 671 214.0 676.0Q221 681 227 685Q247 697 284.5 717.5Q322 738 377.0 753.0Q432 768 503 762Q605 752 672.5 716.0Q740 680 781.5 627.0Q823 574 846 517Z" fill="#546e7a" stroke="none" transform="scale(1,-1) translate(0,-256)" /></svg>