<?xml version="1.0" encoding="utf-8" ?>
<svg baseProfile="full" height="256" version="1.1" width="256" xmlns="http://www.w3.org/2000/svg" xmlns:ev="http://www.w3.org/2001/xml-events" xmlns:xlink="http://www.w3.org/1999/xlink"><defs /><path d="M329 269Q337 260 328 248Q323 242 316.5 238.5Q310 235 304 230Q300 227 307 224Q312 221 316.5 217.5Q321 214 324 209Q330 201 326 197Q324 194 319 194Q316 195 311 197Q307 199 300.0 202.0Q293 205 287 206Q276 206 268 202Q261 199 258.0 198.0Q255 197 252 199Q247 203 250.0 209.0Q253 215 256 218Q258 220 261.5 224.0Q265 228 262 230Q255 236 249.5 239.5Q244 243 242 247Q239 251 238.0 256.5Q237 262 240 266Q247 275 255.5 270.5Q264 266 281 266Q298 266 309.5 271.0Q321 276 329 269Z" fill="#212121" stroke="none" transform="scale(1,-1) translate(0,-256)" /></svg>