<?xml version="1.0" encoding="utf-8" ?>
<svg baseProfile="full" height="256" version="1.1" width="256" xmlns="http://www.w3.org/2000/svg" xmlns:ev="http://www.w3.org/2001/xml-events" xmlns:xlink="http://www.w3.org/1999/xlink"><defs /><path d="M170 557Q166 557 148.5 559.5Q131 562 112.0 576.0Q93 590 82 626Q69 669 79.0 705.0Q89 741 113 766Q137 791 146.0 791.5Q155 792 158 784Q161 780 155.5 765.0Q150 750 144.5 731.5Q139 713 141 697Q144 677 153.0 667.5Q162 658 170.0 655.0Q178 652 178 652Q178 652 180.0 642.5Q182 633 182 606Q182 572 180.5 565.0Q179 558 170 557Z" fill="#f7cc93" stroke="none" transform="scale(1,-1) translate(0,-256)" /></svg>