<?xml version="1.0" encoding="utf-8" ?>
<svg baseProfile="full" height="256" version="1.1" width="256" xmlns="http://www.w3.org/2000/svg" xmlns:ev="http://www.w3.org/2001/xml-events" xmlns:xlink="http://www.w3.org/1999/xlink"><defs /><path d="M819 499Q818 489 823.0 481.0Q828 473 832 463Q839 447 835.0 431.0Q831 415 816 405Q804 398 798.5 384.0Q793 370 794 361Q797 344 789.5 328.0Q782 312 762 307Q748 303 737.0 289.5Q726 276 729 264Q736 239 724.5 220.5Q713 202 695 200Q661 195 652.5 184.5Q644 174 643 169Q632 139 610.5 130.5Q589 122 556 131Q533 137 522.5 127.5Q512 118 507 115Q488 102 461.0 104.0Q434 106 418 124Q403 141 380.5 157.0Q358 173 344 192Q332 207 317.5 227.0Q303 247 292.0 268.5Q281 290 280 309Q280 314 282.5 341.5Q285 369 290.5 411.0Q296 453 302.5 501.5Q309 550 316.5 597.0Q324 644 332.0 682.5Q340 721 347 742Q357 770 375.0 800.5Q393 831 426 837Q443 841 453.0 838.0Q463 835 471.5 832.0Q480 829 493 831Q506 833 513.5 838.5Q521 844 529.0 849.5Q537 855 552 857Q575 860 587.5 849.0Q600 838 609 834Q625 825 634.5 826.0Q644 827 652.5 829.0Q661 831 675 825Q688 819 692.0 811.0Q696 803 698.0 796.0Q700 789 707 785Q719 778 733.0 780.0Q747 782 762 767Q773 757 773.5 747.0Q774 737 775.0 728.0Q776 719 786 710Q796 702 809.0 700.0Q822 698 831 677Q840 658 831.5 644.0Q823 630 823 615Q824 603 829.5 596.0Q835 589 840.0 581.5Q845 574 843 557Q842 541 837.0 535.0Q832 529 826.5 522.5Q821 516 819 499Z" fill="#6a463e" stroke="none" transform="scale(1,-1) translate(0,-256)" /><path d="M461 784 464 774 563 556Q563 556 562.0 542.0Q561 528 555.0 507.5Q549 487 535.5 468.5Q522 450 497 441Q473 432 453.5 440.0Q434 448 422.5 459.0Q411 470 411 470Q411 470 405.5 459.5Q400 449 384.0 438.5Q368 428 337 426Q305 424 282.0 432.0Q259 440 246.0 449.0Q233 458 233 458Q233 458 225.0 449.0Q217 440 201.5 434.0Q186 428 163 438Q137 450 133.5 474.5Q130 499 137 516Q143 532 139.0 560.5Q135 589 137 612Q138 627 142.0 653.0Q146 679 164.5 710.5Q183 742 228 774Q262 798 302.0 803.0Q342 808 378.5 803.0Q415 798 438.0 791.0Q461 784 461 784Z" fill="#6a463e" stroke="none" transform="scale(1,-1) translate(0,-256)" /></svg>