<?xml version="1.0" encoding="utf-8" ?>
<svg baseProfile="full" height="256" version="1.1" width="256" xmlns="http://www.w3.org/2000/svg" xmlns:ev="http://www.w3.org/2001/xml-events" xmlns:xlink="http://www.w3.org/1999/xlink"><defs /><path d="M822 615H824Q824 626 829.0 635.5Q834 645 836 656Q837 668 832 678Q827 689 819 696Q814 699 809.0 701.0Q804 703 799 705Q793 707 789 709Q784 713 782 716Q775 725 775.5 736.0Q776 747 771 757Q760 780 735 781Q730 782 724.5 782.0Q719 782 714 784Q709 785 705 788Q702 791 700 797Q698 802 695.5 807.0Q693 812 689 816Q682 824 670 828Q660 832 648 830Q643 829 637.5 828.5Q632 828 627 829Q618 830 608 836Q604 839 599.5 842.5Q595 846 591 849Q571 862 548 858Q536 856 527 850Q522 847 518.0 844.0Q514 841 509 838Q490 827 469 835Q449 844 426.0 838.5Q403 833 388 818Q380 810 374.0 801.0Q368 792 363 782Q358 772 354.0 762.0Q350 752 346 742L348 741Q350 746 352.5 751.0Q355 756 358 761Q363 771 368 779Q374 788 380.5 796.0Q387 804 395 811Q409 824 428 826Q439 827 446 826Q451 826 455.0 824.5Q459 823 464 821Q470 818 477.0 817.0Q484 816 491 816Q506 817 518 824Q524 827 528.0 830.5Q532 834 536 836Q543 840 551 841Q568 843 581 834Q584 832 588.0 828.5Q592 825 598 821L601 819L604 817Q608 815 610 815Q618 811 624 811Q632 809 639.5 810.0Q647 811 651 812Q658 813 664 811Q672 809 676 804Q678 802 684 790Q685 787 687.5 783.0Q690 779 694 776Q700 770 709 768Q717 765 723.0 765.0Q729 765 734 765Q742 765 747 761Q755 756 758 751Q760 747 762 735Q763 730 764.5 722.5Q766 715 772 709Q776 704 783 699Q788 696 795 694Q801 693 805.0 691.5Q809 690 813 688Q820 684 825 675Q830 667 829 657Q829 648 825.0 637.5Q821 627 822 615Z" fill="#af7464" stroke="none" transform="scale(1,-1) translate(0,-256)" /><path d="M488 755 489 756Q483 765 474.5 772.5Q466 780 457 786Q440 797 418 805Q376 820 332 818Q285 816 248 795Q229 784 212 769Q197 755 184 736L185 735Q194 742 202.0 749.0Q210 756 219 762Q235 773 255 782Q293 798 333 800Q352 801 373 798Q383 797 393.0 795.0Q403 793 413 791Q423 788 433.0 785.0Q443 782 452 778Q462 773 471.0 768.0Q480 763 488 755Z" fill="#af7464" stroke="none" transform="scale(1,-1) translate(0,-256)" /><path d="M155 690H153Q143 674 139.0 655.0Q135 636 134 616Q134 607 134.5 597.5Q135 588 136 578L139 559Q139 554 139.5 549.5Q140 545 139 541Q137 531 134.0 522.0Q131 513 129 504Q125 483 131 465Q138 446 157 437Q176 428 195 432V433Q175 435 161 445Q148 455 145 470Q142 486 146 500Q147 504 148.5 508.5Q150 513 151 517Q152 522 154.0 526.5Q156 531 157 536Q158 541 158 544Q158 546 158 551Q158 556 157 561L154 580Q153 589 151.5 598.0Q150 607 150 616Q148 634 149.0 652.5Q150 671 155 690Z" fill="#af7464" stroke="none" transform="scale(1,-1) translate(0,-256)" /><path d="M223 545 221 546Q212 524 215 501Q218 479 234 460Q241 451 250.5 444.5Q260 438 271 434Q292 425 315 425V427Q304 432 294.5 437.0Q285 442 276 447Q272 450 268.0 453.0Q264 456 261 459L254 465Q252 467 250.5 468.5Q249 470 248 472Q243 477 237 487Q235 490 233.0 494.5Q231 499 230 503Q224 521 223 545Z" fill="#af7464" stroke="none" transform="scale(1,-1) translate(0,-256)" /></svg>