<?xml version="1.0" encoding="utf-8" ?>
<svg baseProfile="full" height="256" version="1.1" width="256" xmlns="http://www.w3.org/2000/svg" xmlns:ev="http://www.w3.org/2001/xml-events" xmlns:xlink="http://www.w3.org/1999/xlink"><defs /><path d="M715 736 433 552 472 112Q473 126 487.5 137.5Q502 149 521.5 154.0Q541 159 557.5 154.5Q574 150 580 134Q585 122 588.5 91.5Q592 61 594.0 21.0Q596 -19 598.0 -60.0Q600 -101 600.5 -134.5Q601 -168 602 -185Q602 -202 618 -208Q624 -211 634.0 -212.5Q644 -214 660 -214Q673 -214 683.0 -212.5Q693 -211 699 -209Q715 -203 716 -186Q716 -171 718.5 -139.5Q721 -108 724.5 -69.0Q728 -30 734.0 7.0Q740 44 748 71Q759 108 775.5 121.5Q792 135 813 143Q888 173 919.5 183.5Q951 194 951 194Q955 166 969.5 139.0Q984 112 998.0 89.0Q1012 66 1015 50Q1017 37 1012.5 9.0Q1008 -19 1002.0 -48.5Q996 -78 991 -97Q989 -108 994.5 -118.5Q1000 -129 1012 -132Q1020 -135 1031 -136Q1047 -138 1058.0 -136.0Q1069 -134 1076 -130Q1087 -125 1091 -112Q1094 -97 1101.5 -67.0Q1109 -37 1114 -7Q1119 21 1117.5 55.5Q1116 90 1118 119Q1119 135 1125.5 168.5Q1132 202 1143 242Q1150 269 1154.0 308.0Q1158 347 1158.5 387.0Q1159 427 1155 458Q1149 504 1117.5 541.5Q1086 579 1032 593Q1019 596 992.5 602.0Q966 608 936.5 618.0Q907 628 886 643Q829 685 791.0 704.5Q753 724 734.0 730.0Q715 736 715 736Z" fill="#8c685c" stroke="none" transform="scale(1,-1) translate(0,-256)" /><path d="M184 555 299 622Q299 622 319.0 620.5Q339 619 370.5 616.0Q402 613 437.5 609.5Q473 606 505.0 601.5Q537 597 558.0 592.5Q579 588 580 582Q584 572 602.5 557.5Q621 543 643.0 527.5Q665 512 677 499Q694 479 685.5 466.0Q677 453 663 449Q654 446 635.0 446.5Q616 447 600.0 448.0Q584 449 584 449Q584 449 575.0 423.5Q566 398 547.0 359.5Q528 321 498.5 281.0Q469 241 427 212Q421 208 422.5 198.0Q424 188 421.0 170.5Q418 153 398 127Q389 115 383.0 95.0Q377 75 384 62Q366 76 350.5 89.0Q335 102 327 116Q323 123 319.0 136.0Q315 149 313.0 160.0Q311 171 311 171Q311 171 292.5 171.0Q274 171 263 175Q248 180 235.0 188.0Q222 196 213 208Q192 236 195.0 265.5Q198 295 201 321Q204 348 192.0 382.0Q180 416 177 456Q173 506 178.5 530.5Q184 555 184 555Z" fill="#8c685c" stroke="none" transform="scale(1,-1) translate(0,-256)" /><path d="M1104 338Q1108 331 1116.5 308.5Q1125 286 1139.0 258.0Q1153 230 1174 206Q1177 203 1187.5 196.5Q1198 190 1206 197Q1212 202 1210.0 210.0Q1208 218 1205 224Q1181 277 1171.5 334.5Q1162 392 1155 449Z" fill="#8c685c" stroke="none" transform="scale(1,-1) translate(0,-256)" /></svg>