<?xml version="1.0" encoding="utf-8" ?>
<svg baseProfile="full" height="256" version="1.1" width="256" xmlns="http://www.w3.org/2000/svg" xmlns:ev="http://www.w3.org/2001/xml-events" xmlns:xlink="http://www.w3.org/1999/xlink"><defs /><path d="M569 542Q575 541 586.5 545.0Q598 549 611.0 564.5Q624 580 635 615Q649 662 633.5 700.0Q618 738 592 764Q566 790 554.0 791.0Q542 792 539 783Q536 775 546.5 750.5Q557 726 563 699Q568 681 563.0 668.0Q558 655 552.0 648.0Q546 641 546 641Q546 641 536.5 629.5Q527 618 529 594Q531 570 539.0 559.0Q547 548 555.5 545.0Q564 542 569 542Z" fill="#fadcb2" stroke="none" transform="scale(1,-1) translate(0,-256)" /></svg>