<?xml version="1.0" encoding="utf-8" ?>
<svg baseProfile="full" height="256" version="1.1" width="256" xmlns="http://www.w3.org/2000/svg" xmlns:ev="http://www.w3.org/2001/xml-events" xmlns:xlink="http://www.w3.org/1999/xlink"><defs /><path d="M847 294Q842 293 837 290Q820 281 809.5 264.0Q799 247 796 228Q791 198 803.0 175.0Q815 152 820 125Q823 109 821.5 86.0Q820 63 815 39Q810 20 803.0 -5.5Q796 -31 792 -46Q788 -60 801 -67Q805 -69 811.0 -71.5Q817 -74 825 -75Q839 -77 851.5 -73.5Q864 -70 872 -67Q879 -64 882 -56Q885 -46 893.0 -26.0Q901 -6 908.5 16.0Q916 38 919 54Q923 74 925.5 94.5Q928 115 933 134Q935 139 936.5 154.0Q938 169 939.5 184.0Q941 199 940 207Q939 229 933.0 250.5Q927 272 909 286Q897 296 880.0 298.0Q863 300 847 294Z" fill="#000000" stroke="none" transform="scale(1,-1) translate(0,-256)" /><path d="M715 736 433 553 275 201Q275 201 284.5 174.5Q294 148 308.0 108.0Q322 68 336.5 25.0Q351 -18 361.5 -51.5Q372 -85 374 -96Q378 -120 368.0 -145.0Q358 -170 351 -182Q347 -189 354 -195Q358 -199 367.5 -204.0Q377 -209 393 -211Q422 -214 439.5 -204.5Q457 -195 463 -190Q465 -188 466 -185Q468 -178 472.0 -153.5Q476 -129 480 -98Q482 -74 479.5 -39.5Q477 -5 473.0 25.5Q469 56 468 68Q467 81 467.0 89.5Q467 98 472 112Q477 126 492.0 137.0Q507 148 525.0 153.5Q543 159 558.5 154.5Q574 150 580 134Q585 122 588.5 91.5Q592 61 594.0 21.0Q596 -19 598.0 -60.0Q600 -101 600.5 -134.5Q601 -168 602 -185Q602 -202 618 -208Q624 -211 634.0 -212.5Q644 -214 660 -214Q673 -214 683.0 -212.5Q693 -211 699 -209Q715 -203 716 -186Q716 -171 718.5 -139.5Q721 -108 724.5 -69.0Q728 -30 734.0 7.0Q740 44 748 71Q759 108 775.5 121.5Q792 135 813 143Q888 173 919.5 183.5Q951 194 951 194Q955 166 969.5 139.0Q984 112 998.0 89.0Q1012 66 1015 50Q1017 37 1012.5 9.0Q1008 -19 1002.0 -48.5Q996 -78 991 -97Q989 -108 994.5 -118.5Q1000 -129 1012 -132Q1020 -135 1031 -136Q1047 -138 1058.0 -136.0Q1069 -134 1076 -130Q1087 -125 1091 -112Q1094 -97 1101.5 -67.0Q1109 -37 1114 -7Q1119 21 1117.5 55.5Q1116 90 1118 119Q1119 135 1125.5 168.5Q1132 202 1143 242Q1150 269 1154.0 308.0Q1158 347 1158.5 387.0Q1159 427 1155 458Q1149 504 1117.5 541.5Q1086 579 1032 593Q1019 596 992.5 602.0Q966 608 936.5 618.0Q907 628 886 643Q829 685 791.0 704.5Q753 724 734.0 730.0Q715 736 715 736Z" fill="#000000" stroke="none" transform="scale(1,-1) translate(0,-256)" /><path d="M259 442Q259 455 251.5 464.0Q244 473 233 473Q223 473 215.5 464.0Q208 455 208 442Q208 429 215.5 420.0Q223 411 233 411Q244 411 251.5 420.0Q259 429 259 442Z" fill="#000000" stroke="none" transform="scale(1,-1) translate(0,-256)" /><path d="M442.93800354003906 442.0Q442.93800354003906 455.0 435.43800354003906 464.0Q427.93800354003906 473.0 416.93800354003906 473.0Q406.93800354003906 473.0 399.43800354003906 464.0Q391.93800354003906 455.0 391.93800354003906 442.0Q391.93800354003906 429.0 399.43800354003906 420.0Q406.93800354003906 411.0 416.93800354003906 411.0Q427.93800354003906 411.0 435.43800354003906 420.0Q442.93800354003906 429.0 442.93800354003906 442.0Z" fill="#000000" stroke="none" transform="scale(1,-1) translate(0,-256)" /><path d="M245 298Q255 307 275.0 309.5Q295 312 315.5 308.5Q336 305 345 294Q350 289 359.0 275.5Q368 262 373.5 244.5Q379 227 376.5 209.5Q374 192 355 180Q323 168 298.0 169.0Q273 170 250 179Q235 188 228.5 200.0Q222 212 222 230Q221 253 228.5 271.5Q236 290 245 298Z" fill="#000000" stroke="none" transform="scale(1,-1) translate(0,-256)" /></svg>