<?xml version="1.0" encoding="utf-8" ?>
<svg baseProfile="full" height="256" version="1.1" width="256" xmlns="http://www.w3.org/2000/svg" xmlns:ev="http://www.w3.org/2001/xml-events" xmlns:xlink="http://www.w3.org/1999/xlink"><defs /><path d="M139 556Q126 557 122.0 576.5Q118 596 123.0 619.5Q128 643 141 657Q151 667 175.5 671.5Q200 676 227.0 675.0Q254 674 273.5 668.5Q293 663 292 653Q292 640 279.5 634.5Q267 629 248.5 624.5Q230 620 213 609Q186 592 171.0 573.0Q156 554 139 556Z" fill="#9a9a9a" stroke="none" transform="scale(1,-1) translate(0,-256)" /><path d="M139 121Q126 122 122.0 141.5Q118 161 123.0 185.0Q128 209 141 222Q151 233 175.5 237.5Q200 242 227.0 241.0Q254 240 273.5 234.0Q293 228 292 218Q292 205 279.5 200.0Q267 195 248.5 190.0Q230 185 213 174Q186 157 171.0 138.0Q156 119 139 121Z" fill="#9a9a9a" stroke="none" transform="scale(1,-1) translate(0,-256)" /></svg>