<?xml version="1.0" encoding="utf-8" ?>
<svg baseProfile="full" height="256" version="1.1" width="256" xmlns="http://www.w3.org/2000/svg" xmlns:ev="http://www.w3.org/2001/xml-events" xmlns:xlink="http://www.w3.org/1999/xlink"><defs /><path d="M75 511 206 533 944 572 1199 516Q1199 516 1199.0 497.5Q1199 479 1199 466Q1198 452 1192.5 438.5Q1187 425 1170 425Q1168 424 1131.0 424.0Q1094 424 1032.5 424.5Q971 425 892.5 425.0Q814 425 727.0 425.0Q640 425 553.0 425.0Q466 425 387.5 425.5Q309 426 246.5 426.0Q184 426 146.0 426.0Q108 426 104 426Q86 426 81.0 435.0Q76 444 76 451Q76 456 76.0 470.5Q76 485 75.5 498.0Q75 511 75 511Z" fill="#464c4f" stroke="none" transform="scale(1,-1) translate(0,-256)" /><path d="M75.0 76.281005859375 206.0 98.281005859375 944.0 137.281005859375 1199.0 81.281005859375Q1199.0 81.281005859375 1199.0 62.781005859375Q1199.0 44.281005859375 1199.0 31.281005859375Q1198.0 17.281005859375 1192.5 3.781005859375Q1187.0 -9.718994140625 1170.0 -9.718994140625Q1168.0 -10.718994140625 1131.0 -10.718994140625Q1094.0 -10.718994140625 1032.5 -10.218994140625Q971.0 -9.718994140625 892.5 -9.718994140625Q814.0 -9.718994140625 727.0 -9.718994140625Q640.0 -9.718994140625 553.0 -9.718994140625Q466.0 -9.718994140625 387.5 -9.218994140625Q309.0 -8.718994140625 246.5 -8.718994140625Q184.0 -8.718994140625 146.0 -8.718994140625Q108.0 -8.718994140625 104.0 -8.718994140625Q86.0 -8.718994140625 81.0 0.281005859375Q76.0 9.281005859375 76.0 16.281005859375Q76.0 21.281005859375 76.0 35.781005859375Q76.0 50.281005859375 75.5 63.281005859375Q75.0 76.281005859375 75.0 76.281005859375Z" fill="#464c4f" stroke="none" transform="scale(1,-1) translate(0,-256)" /></svg>