<?xml version="1.0" encoding="utf-8" ?>
<svg baseProfile="full" height="256" version="1.1" width="256" xmlns="http://www.w3.org/2000/svg" xmlns:ev="http://www.w3.org/2001/xml-events" xmlns:xlink="http://www.w3.org/1999/xlink"><defs /><path d="M324 350Q324 240 346.5 155.5Q369 71 405.0 8.5Q441 -54 481.0 -96.5Q521 -139 556.5 -164.5Q592 -190 615.0 -201.0Q638 -212 638 -212Q521 -212 419.0 -168.5Q317 -125 239.5 -47.5Q162 30 118.5 131.5Q75 233 75 350Q75 467 118.5 568.5Q162 670 239.5 747.5Q317 825 419.0 869.0Q521 913 638 913Q638 913 615.0 901.5Q592 890 556.5 864.5Q521 839 481.0 796.5Q441 754 405.0 691.5Q369 629 346.5 544.5Q324 460 324 350Z" fill="#fce5ac" stroke="none" transform="scale(1,-1) translate(0,-256)" /></svg>