<?xml version="1.0" encoding="utf-8" ?>
<svg baseProfile="full" height="256" version="1.1" width="256" xmlns="http://www.w3.org/2000/svg" xmlns:ev="http://www.w3.org/2001/xml-events" xmlns:xlink="http://www.w3.org/1999/xlink"><defs /><path d="M709 123Q709 123 707.0 130.0Q705 137 704 143Q704 149 709.5 153.0Q715 157 719 169Q724 181 722.5 194.5Q721 208 733 220Q745 232 760.0 228.5Q775 225 783 227Q790 228 793.5 233.0Q797 238 809 243Q821 248 827.5 242.5Q834 237 834 237Q834 237 837.0 244.0Q840 251 838 257Q837 263 834.0 265.5Q831 268 828 275Q827 278 829.0 286.5Q831 295 829.5 304.5Q828 314 818 320Q803 329 791.0 324.0Q779 319 771 318Q763 317 757.0 319.5Q751 322 741 319Q730 315 727.0 307.0Q724 299 717 293Q711 287 704.0 287.5Q697 288 688 282Q680 276 679.5 267.5Q679 259 673 250Q667 240 659.5 239.5Q652 239 646 231Q639 223 640.5 215.0Q642 207 640 198Q638 189 630.5 189.0Q623 189 620 172Q617 160 624.0 154.5Q631 149 639.0 147.5Q647 146 647 146Q647 146 648.5 132.5Q650 119 667 112Q686 105 697.5 114.0Q709 123 709 123Z" fill="#ffcabe" stroke="none" transform="scale(1,-1) translate(0,-256)" /></svg>