<?xml version="1.0" encoding="utf-8" ?>
<svg baseProfile="full" height="256" version="1.1" width="256" xmlns="http://www.w3.org/2000/svg" xmlns:ev="http://www.w3.org/2001/xml-events" xmlns:xlink="http://www.w3.org/1999/xlink"><defs /><path d="M1050 303Q1058 315 1073.0 314.5Q1088 314 1102.0 300.5Q1116 287 1122.5 261.5Q1129 236 1121 199Q1108 144 1085.0 112.0Q1062 80 1040.5 66.5Q1019 53 1010 55Q1006 55 991.5 62.5Q977 70 962 91Q948 112 947.5 132.0Q947 152 949 155Q950 160 967.5 166.0Q985 172 1005.5 183.5Q1026 195 1038 217Q1047 233 1047.5 251.0Q1048 269 1047.0 283.0Q1046 297 1050 303Z" fill="#ff82a7" stroke="none" transform="scale(1,-1) translate(0,-256)" /></svg>