<?xml version="1.0" encoding="utf-8" ?>
<svg baseProfile="full" height="256" version="1.1" width="256" xmlns="http://www.w3.org/2000/svg" xmlns:ev="http://www.w3.org/2001/xml-events" xmlns:xlink="http://www.w3.org/1999/xlink"><defs /><path d="M608 793Q595 801 594.0 819.0Q593 837 603.5 857.5Q614 878 635.5 893.5Q657 909 691 911Q745 915 778.0 903.5Q811 892 826.5 878.5Q842 865 844 863Q846 861 847.5 841.0Q849 821 840 802Q829 779 813.5 768.5Q798 758 796 758Q792 758 779.5 769.5Q767 781 741.0 793.0Q715 805 672 808Q656 809 643.5 803.5Q631 798 622.5 793.5Q614 789 608 793Z" fill="#fe82a5" stroke="none" transform="scale(1,-1) translate(0,-256)" /></svg>