<?xml version="1.0" encoding="utf-8" ?>
<svg baseProfile="full" height="256" version="1.1" width="256" xmlns="http://www.w3.org/2000/svg" xmlns:ev="http://www.w3.org/2001/xml-events" xmlns:xlink="http://www.w3.org/1999/xlink"><defs /><path d="M533 503 461 386 412 365Q412 365 400.5 365.0Q389 365 377.0 372.5Q365 380 364 402Q362 427 371.5 436.0Q381 445 391.5 447.5Q402 450 405 455Q407 458 402.0 469.0Q397 480 405 493Q410 503 417.0 504.0Q424 505 429.5 503.5Q435 502 436 505Q438 511 436.5 519.0Q435 527 443 536Q450 546 460.0 545.5Q470 545 470 545Q470 545 473.0 551.5Q476 558 483 563Q493 570 506.5 567.0Q520 564 530 552Q536 544 536.5 532.5Q537 521 535.0 512.0Q533 503 533 503Z" fill="#b1de7d" stroke="none" transform="scale(1,-1) translate(0,-256)" /></svg>