<?xml version="1.0" encoding="utf-8" ?>
<svg baseProfile="full" height="256" version="1.1" width="256" xmlns="http://www.w3.org/2000/svg" xmlns:ev="http://www.w3.org/2001/xml-events" xmlns:xlink="http://www.w3.org/1999/xlink"><defs /><path d="M694 579Q706 579 710.0 568.5Q714 558 714 542Q715 525 722.5 517.0Q730 509 738 501Q745 493 746.0 483.5Q747 474 753 468Q762 459 774.0 458.5Q786 458 796 455Q806 452 813.5 445.0Q821 438 821 438Q821 438 829.0 437.5Q837 437 845.5 432.0Q854 427 854 412Q855 397 847.0 390.5Q839 384 830.5 383.0Q822 382 822 382Q822 382 816.5 374.5Q811 367 797 364Q783 360 772.0 367.5Q761 375 761 375Q761 375 749.0 372.5Q737 370 719 379Q700 388 693.5 404.5Q687 421 687 421Q687 421 678.0 423.5Q669 426 656 441Q643 455 644.5 473.0Q646 491 646 491Q646 491 640.5 496.0Q635 501 630.5 511.5Q626 522 630 540Q634 557 645.0 562.0Q656 567 665.5 566.0Q675 565 675 565Q675 565 678.5 572.0Q682 579 694 579Z" fill="#fff6e2" stroke="none" transform="scale(1,-1) translate(0,-256)" /></svg>