<?xml version="1.0" encoding="utf-8" ?>
<svg baseProfile="full" height="256" version="1.1" width="256" xmlns="http://www.w3.org/2000/svg" xmlns:ev="http://www.w3.org/2001/xml-events" xmlns:xlink="http://www.w3.org/1999/xlink"><defs /><path d="M546 455 569 471Q568 471 556.5 484.5Q545 498 529.5 523.5Q514 549 500.0 585.5Q486 622 482 667Q478 708 481.5 746.5Q485 785 492.0 816.0Q499 847 505.0 865.0Q511 883 511 884L485 894Q484 892 477.5 872.5Q471 853 464.0 821.0Q457 789 453.0 748.5Q449 708 454 665Q459 615 473.0 576.5Q487 538 503.5 511.5Q520 485 532.5 470.5Q545 456 546 455Z" fill="#c8c7cc" stroke="none" transform="scale(1,-1) translate(0,-256)" /></svg>