<?xml version="1.0" encoding="utf-8" ?>
<svg baseProfile="full" height="256" version="1.1" width="256" xmlns="http://www.w3.org/2000/svg" xmlns:ev="http://www.w3.org/2001/xml-events" xmlns:xlink="http://www.w3.org/1999/xlink"><defs /><path d="M687 139 725 245 824 260Q824 260 832.5 241.5Q841 223 853.5 194.0Q866 165 880.0 132.0Q894 99 906.0 69.5Q918 40 924.0 20.0Q930 0 927 -1Q924 -3 905.5 6.0Q887 15 859.5 31.0Q832 47 802.5 65.0Q773 83 746.5 100.0Q720 117 703.5 127.5Q687 138 687 139Z" fill="#ff8e00" stroke="none" transform="scale(1,-1) translate(0,-256)" /></svg>