<?xml version="1.0" encoding="utf-8" ?>
<svg baseProfile="full" height="256" version="1.1" width="256" xmlns="http://www.w3.org/2000/svg" xmlns:ev="http://www.w3.org/2001/xml-events" xmlns:xlink="http://www.w3.org/1999/xlink"><defs /><path d="M656 545Q661 544 676.0 527.0Q691 510 707.5 490.5Q724 471 735 464Q752 453 763.0 451.0Q774 449 780.5 442.5Q787 436 792 411Q794 398 796.0 383.0Q798 368 797 348Q796 310 779 278Q772 268 767.0 263.5Q762 259 754.0 255.5Q746 252 731 243Q727 241 715.5 228.0Q704 215 690.5 198.5Q677 182 666.5 170.0Q656 158 654 157Q646 155 614.5 157.0Q583 159 548 174Q524 183 513.5 209.0Q503 235 488 263Q482 274 471.0 282.0Q460 290 450.5 297.5Q441 305 439 318Q431 369 446.5 416.5Q462 464 497 498Q520 521 547.5 531.5Q575 542 599.5 544.5Q624 547 640.0 546.0Q656 545 656 545Z" fill="#0386d9" stroke="none" transform="scale(1,-1) translate(0,-256)" /></svg>