<?xml version="1.0" encoding="utf-8" ?>
<svg baseProfile="full" height="256" version="1.1" width="256" xmlns="http://www.w3.org/2000/svg" xmlns:ev="http://www.w3.org/2001/xml-events" xmlns:xlink="http://www.w3.org/1999/xlink"><defs /><path d="M524 198Q524 198 542.0 193.5Q560 189 584.5 183.0Q609 177 629.0 172.0Q649 167 653 166Q658 165 667.0 153.0Q676 141 683.5 129.5Q691 118 691 118Q692 117 684.0 105.5Q676 94 663 91Q651 88 642.0 94.5Q633 101 624 103Q614 105 604.5 98.0Q595 91 578 94Q560 97 553.5 110.0Q547 123 537 130Q527 137 513.5 136.5Q500 136 492 144Q483 152 483.0 160.5Q483 169 487 174Q489 177 498.5 183.0Q508 189 516.0 193.5Q524 198 524 198Z" fill="#4cc1f7" stroke="none" transform="scale(1,-1) translate(0,-256)" /><path d="M613 411Q613 411 614.5 401.0Q616 391 617 384Q620 370 623.0 360.0Q626 350 626 350L657 353L644 409Z" fill="#4cc1f7" stroke="none" transform="scale(1,-1) translate(0,-256)" /><path d="M467 413 498 396Q498 396 502.0 405.0Q506 414 511 419Q516 426 522.5 433.5Q529 441 529 441L504 462Q504 462 496.5 455.5Q489 449 484 443Q476 432 471.5 422.5Q467 413 467 413Z" fill="#4cc1f7" stroke="none" transform="scale(1,-1) translate(0,-256)" /><path d="M608 266Q608 266 615.5 265.5Q623 265 631.0 264.5Q639 264 639 263Q641 259 631 233Q625 220 620.0 213.0Q615 206 615 206L589 214Q589 214 592.5 221.5Q596 229 600 237Q604 246 606.0 255.5Q608 265 608 266Z" fill="#4cc1f7" stroke="none" transform="scale(1,-1) translate(0,-256)" /></svg>