<?xml version="1.0" encoding="utf-8" ?>
<svg baseProfile="full" height="256" version="1.1" width="256" xmlns="http://www.w3.org/2000/svg" xmlns:ev="http://www.w3.org/2001/xml-events" xmlns:xlink="http://www.w3.org/1999/xlink"><defs /><path d="M921 6Q942 18 955.0 1.0Q968 -16 965.0 -49.5Q962 -83 936 -121Q916 -149 890.5 -167.5Q865 -186 840.0 -196.0Q815 -206 798.0 -210.0Q781 -214 779 -214Q775 -213 759.0 -200.0Q743 -187 738 -165Q731 -139 736.5 -118.0Q742 -97 748 -97Q754 -96 774.0 -95.5Q794 -95 828 -80Q856 -67 874.0 -48.5Q892 -30 903.0 -14.0Q914 2 921 6Z" fill="#fda4c6" stroke="none" transform="scale(1,-1) translate(0,-256)" /></svg>