<?xml version="1.0" encoding="utf-8" ?>
<svg baseProfile="full" height="256" version="1.1" width="256" xmlns="http://www.w3.org/2000/svg" xmlns:ev="http://www.w3.org/2001/xml-events" xmlns:xlink="http://www.w3.org/1999/xlink"><defs /><path d="M989 50Q993 50 996 53Q997 54 1014.5 75.0Q1032 96 1051.0 129.5Q1070 163 1078 201Q1083 231 1080.0 251.5Q1077 272 1071.5 283.0Q1066 294 1066 294Q1060 302 1053 297Q1045 291 1050 284Q1050 284 1058.5 263.5Q1067 243 1059 205Q1053 169 1034.0 137.5Q1015 106 999.0 86.0Q983 66 982 66Q976 59 983 52Q985 50 989 50Z" fill="#50c4fa" stroke="none" transform="scale(1,-1) translate(0,-256)" /><path d="M607 803Q608 803 610 803Q616 805 616 812Q616 814 622.0 829.0Q628 844 647.0 858.0Q666 872 706 872Q706 872 706.0 872.0Q706 872 707 872Q749 871 780.0 858.0Q811 845 828.0 831.0Q845 817 845 817Q851 810 858 817Q865 823 859 830Q857 831 839.0 846.0Q821 861 787.5 875.5Q754 890 707 890Q706 890 706.0 890.0Q706 890 706 890Q666 890 644.5 877.0Q623 864 612 850Q604 838 600.0 825.5Q596 813 598 809Q600 803 607 803Z" fill="#50c4fa" stroke="none" transform="scale(1,-1) translate(0,-256)" /><path d="M246 572Q256 572 256 582Q256 582 257.5 594.5Q259 607 267.5 625.5Q276 644 295 662Q320 686 347.5 690.0Q375 694 394.0 690.0Q413 686 413 686Q422 683 425 692Q428 700 420 704Q418 704 405.0 707.0Q392 710 371.5 710.5Q351 711 327.5 704.0Q304 697 282 676Q260 655 250.5 633.5Q241 612 239.0 597.5Q237 583 237 582Q237 573 246 572Q246 572 246.0 572.0Q246 572 246 572Z" fill="#50c4fa" stroke="none" transform="scale(1,-1) translate(0,-256)" /><path d="M446 -159Q447 -159 448.0 -159.0Q449 -159 450 -159Q492 -158 516.5 -143.0Q541 -128 551.5 -113.0Q562 -98 562 -96Q566 -88 557 -84Q549 -80 545 -89Q544 -90 535.5 -102.5Q527 -115 506.5 -127.5Q486 -140 450 -140Q413 -141 383.5 -134.5Q354 -128 337.0 -121.5Q320 -115 320 -115Q311 -111 307 -119Q303 -128 312 -132Q313 -133 330.5 -139.5Q348 -146 377.5 -152.5Q407 -159 446 -159Z" fill="#50c4fa" stroke="none" transform="scale(1,-1) translate(0,-256)" /></svg>