<?xml version="1.0" encoding="utf-8" ?>
<svg baseProfile="full" height="256" version="1.1" width="256" xmlns="http://www.w3.org/2000/svg" xmlns:ev="http://www.w3.org/2001/xml-events" xmlns:xlink="http://www.w3.org/1999/xlink"><defs /><path d="M382 290Q382 290 395.0 299.0Q408 308 428 304Q443 301 448.0 289.5Q453 278 458 269Q464 260 471.0 261.0Q478 262 485 254Q492 247 488.5 237.5Q485 228 484 218Q483 208 487.5 201.5Q492 195 496 191Q499 188 502.5 177.0Q506 166 515.5 158.0Q525 150 546 154Q568 158 572.0 170.0Q576 182 573.0 194.0Q570 206 570 210Q571 215 575.5 224.5Q580 234 580 249Q581 263 572.0 267.5Q563 272 557 280Q551 288 552.0 298.5Q553 309 547 315Q541 322 530.0 324.5Q519 327 512 334Q505 341 503.5 349.5Q502 358 491 365Q482 371 472.0 369.5Q462 368 454 370Q448 372 445.0 377.5Q442 383 435.0 386.5Q428 390 412 386Q396 382 393.5 370.5Q391 359 394.5 348.5Q398 338 398 338Q398 338 390.5 336.0Q383 334 377 322Q372 311 377.0 300.5Q382 290 382 290Z" fill="#fd7ba6" stroke="none" transform="scale(1,-1) translate(0,-256)" /></svg>