<?xml version="1.0" encoding="utf-8" ?>
<svg baseProfile="full" height="256" version="1.1" width="256" xmlns="http://www.w3.org/2000/svg" xmlns:ev="http://www.w3.org/2001/xml-events" xmlns:xlink="http://www.w3.org/1999/xlink"><defs /><path d="M308 -17Q308 -32 352.0 -47.5Q396 -63 470.5 -74.0Q545 -85 636 -85Q728 -85 803.0 -74.0Q878 -63 922.5 -47.5Q967 -32 967 -17Q967 -10 953.0 5.0Q939 20 920.0 36.5Q901 53 886.5 65.0Q872 77 872 77Q859 82 823.5 86.5Q788 91 740.0 93.0Q692 95 639.5 95.5Q587 96 538.5 94.5Q490 93 453.5 88.5Q417 84 403 77Q403 77 388.5 64.5Q374 52 355.0 35.5Q336 19 322.0 4.0Q308 -11 308 -17Z" fill="#f7cf92" stroke="none" transform="scale(1,-1) translate(0,-256)" /><path d="M967 837Q967 855 922.5 870.0Q878 885 803.5 894.0Q729 903 638 903Q546 903 471.5 894.0Q397 885 352.5 870.0Q308 855 308 837Q308 819 352.5 804.0Q397 789 471.5 780.5Q546 772 638 772Q729 772 803.5 780.5Q878 789 922.5 804.0Q967 819 967 837Z" fill="#f7cf92" stroke="none" transform="scale(1,-1) translate(0,-256)" /></svg>