<?xml version="1.0" encoding="utf-8" ?>
<svg baseProfile="full" height="256" version="1.1" width="256" xmlns="http://www.w3.org/2000/svg" xmlns:ev="http://www.w3.org/2001/xml-events" xmlns:xlink="http://www.w3.org/1999/xlink"><defs /><path d="M743 825Q703 815 675 785Q690 806 711.5 819.5Q733 833 756 839Q812 853 853.5 833.5Q895 814 916 779L911 744Q910 740 906.0 739.0Q902 738 900 741Q892 753 877.5 769.5Q863 786 842.5 801.5Q822 817 797.0 824.5Q772 832 743 825Z" fill="#da2e75" stroke="none" transform="scale(1,-1) translate(0,-256)" /><path d="M1024 907Q1064 917 1104.0 905.5Q1144 894 1171.5 855.5Q1199 817 1200 747Q1201 704 1182.5 654.5Q1164 605 1136.0 557.0Q1108 509 1080.5 469.0Q1053 429 1034.0 405.0Q1015 381 1015 381L997 388Q997 388 1012.0 412.5Q1027 437 1049.5 476.5Q1072 516 1095.0 563.0Q1118 610 1133.5 656.0Q1149 702 1150 739Q1153 806 1131.5 842.5Q1110 879 1076.0 890.0Q1042 901 1005 891Q995 889 984.5 885.0Q974 881 966 875Q987 897 1024 907Z" fill="#da2e75" stroke="none" transform="scale(1,-1) translate(0,-256)" /><path d="M412 625Q384 641 351.5 649.5Q319 658 285 656Q327 663 368.0 654.5Q409 646 442 626Q497 594 524.5 549.5Q552 505 557.5 456.5Q563 408 553 364L514 335Q508 331 502.5 334.5Q497 338 498 344Q503 367 505.0 403.5Q507 440 501.0 482.0Q495 524 474.5 562.0Q454 600 412 625Z" fill="#da2e75" stroke="none" transform="scale(1,-1) translate(0,-256)" /><path d="M836 395Q880 369 911.0 328.5Q942 288 951.0 236.5Q960 185 938.5 126.0Q917 67 857 4Q817 -39 754.5 -71.5Q692 -104 619.5 -127.5Q547 -151 476.0 -167.5Q405 -184 346.0 -193.5Q287 -203 251.5 -207.5Q216 -212 216 -212Q216 -212 219.5 -208.0Q223 -204 229 -203Q261 -192 316.5 -177.0Q372 -162 438.5 -142.0Q505 -122 573.0 -96.0Q641 -70 700.0 -36.5Q759 -3 798 39Q855 99 877.5 154.0Q900 209 894.5 256.0Q889 303 862.5 339.0Q836 375 796 399Q780 408 763.5 415.5Q747 423 732 426Q782 427 836 395Z" fill="#da2e75" stroke="none" transform="scale(1,-1) translate(0,-256)" /></svg>