<?xml version="1.0" encoding="utf-8" ?>
<svg baseProfile="full" height="256" version="1.1" width="256" xmlns="http://www.w3.org/2000/svg" xmlns:ev="http://www.w3.org/2001/xml-events" xmlns:xlink="http://www.w3.org/1999/xlink"><defs /><path d="M410 534Q423 541 438.0 563.5Q453 586 483.0 617.0Q513 648 569 680Q626 712 673.5 724.0Q721 736 751.5 737.5Q782 739 786 740Q793 741 817.0 757.5Q841 774 875 781Q907 787 926.5 782.5Q946 778 956 769Q966 761 962.5 748.0Q959 735 959 735Q959 735 938.0 742.5Q917 750 883 743Q862 739 849.5 731.5Q837 724 826.0 715.5Q815 707 798 701Q785 696 758.0 695.5Q731 695 690.5 686.0Q650 677 594 647Q546 622 519.0 596.0Q492 570 477.0 549.0Q462 528 451 518Q434 502 410.0 492.0Q386 482 356 453Q343 440 333.5 419.0Q324 398 316.0 381.0Q308 364 298 366Q284 369 288.5 396.5Q293 424 313 457Q336 496 362.0 509.0Q388 522 410 534Z" fill="#cb6c22" stroke="none" transform="scale(1,-1) translate(0,-256)" /></svg>