<?xml version="1.0" encoding="utf-8" ?>
<svg baseProfile="full" height="256" version="1.1" width="256" xmlns="http://www.w3.org/2000/svg" xmlns:ev="http://www.w3.org/2001/xml-events" xmlns:xlink="http://www.w3.org/1999/xlink"><defs /><path d="M433 479Q441 485 458.0 490.0Q475 495 494.0 497.0Q513 499 526 495Q539 491 553.5 480.5Q568 470 579.5 458.5Q591 447 597 441Q602 435 602.5 415.5Q603 396 600.5 376.5Q598 357 595 351Q592 345 578.5 334.0Q565 323 550.5 313.0Q536 303 531 302Q525 300 510.0 299.5Q495 299 480.0 300.5Q465 302 458 304Q450 307 434.0 322.5Q418 338 403.5 358.0Q389 378 388 393Q387 408 395.0 425.5Q403 443 414.0 458.0Q425 473 433 479Z" fill="#ed6d30" stroke="none" transform="scale(1,-1) translate(0,-256)" /><path d="M756 407Q770 412 789.5 411.0Q809 410 825 405Q836 402 852.0 388.0Q868 374 880.5 358.0Q893 342 894 332Q896 317 894.5 293.0Q893 269 888 258Q885 252 872.0 242.5Q859 233 841.0 226.0Q823 219 808 218Q792 217 774.5 223.0Q757 229 742.5 237.0Q728 245 721 250Q712 257 698.0 283.0Q684 309 685 335Q685 352 698.5 367.0Q712 382 729.0 392.5Q746 403 756 407Z" fill="#ed6d30" stroke="none" transform="scale(1,-1) translate(0,-256)" /><path d="M762 142Q781 128 789.5 111.5Q798 95 800 76Q803 53 796.5 34.0Q790 15 782.5 4.5Q775 -6 772 -6Q767 -5 753.0 0.5Q739 6 726 16Q720 21 708.5 30.0Q697 39 688.0 46.0Q679 53 679 53Q679 53 666.5 62.5Q654 72 648 76Q643 80 632.5 93.0Q622 106 624 114Q628 134 664 151Q682 159 710.5 158.5Q739 158 762 142Z" fill="#ed6d30" stroke="none" transform="scale(1,-1) translate(0,-256)" /><path d="M1020 268Q1020 268 1022.5 254.0Q1025 240 1028.5 221.5Q1032 203 1035 190Q1039 169 1042.5 146.5Q1046 124 1048.0 109.5Q1050 95 1050 95Q1050 95 1038.0 94.5Q1026 94 1010 95Q995 96 976.5 105.0Q958 114 945 129Q932 143 924.5 167.5Q917 192 934 222Q949 248 969.0 257.5Q989 267 1004.5 267.5Q1020 268 1020 268Z" fill="#ed6d30" stroke="none" transform="scale(1,-1) translate(0,-256)" /><path d="M856 685Q873 682 892.5 674.0Q912 666 926 640Q941 614 940.5 593.0Q940 572 937 559Q934 551 923.0 539.0Q912 527 898.5 517.5Q885 508 878 505Q871 503 855.0 501.0Q839 499 822.5 499.5Q806 500 797 504Q791 507 777.0 521.0Q763 535 759 542Q756 547 751.0 562.0Q746 577 742.0 593.0Q738 609 739 618Q740 631 755.5 645.5Q771 660 783 669Q795 677 816.5 682.5Q838 688 856 685Z" fill="#ed6d30" stroke="none" transform="scale(1,-1) translate(0,-256)" /><path d="M989 15Q1022 10 1034.0 -10.0Q1046 -30 1048 -50Q1050 -70 1044.0 -83.5Q1038 -97 1027 -105Q1020 -110 1006.0 -112.5Q992 -115 977.0 -114.0Q962 -113 954 -109Q946 -105 932.0 -94.5Q918 -84 912 -57Q904 -26 922 -8Q932 2 951.0 10.0Q970 18 989 15Z" fill="#ed6d30" stroke="none" transform="scale(1,-1) translate(0,-256)" /></svg>