<?xml version="1.0" encoding="utf-8" ?>
<svg baseProfile="full" height="256" version="1.1" width="256" xmlns="http://www.w3.org/2000/svg" xmlns:ev="http://www.w3.org/2001/xml-events" xmlns:xlink="http://www.w3.org/1999/xlink"><defs /><path d="M1183 899Q1183 899 1176.5 903.5Q1170 908 1160 910Q1138 913 1125 903Q1113 894 1106.0 877.5Q1099 861 1095 845Q1093 834 1091.0 819.0Q1089 804 1088.0 792.5Q1087 781 1087 781L1131 776Q1131 776 1131.0 795.5Q1131 815 1134 832Q1138 848 1141.5 860.5Q1145 873 1154 884Q1163 896 1173.0 897.5Q1183 899 1183 899Z" fill="#fdc318" stroke="none" transform="scale(1,-1) translate(0,-256)" /><path d="M879 742 842 721Q842 721 841.5 740.0Q841 759 840.5 781.5Q840 804 841 816Q841 831 847.0 847.0Q853 863 870 869Q888 875 897.5 870.5Q907 866 907 866Q907 866 901.5 865.5Q896 865 891 861Q888 858 884.0 852.0Q880 846 879 838Q878 833 878.0 818.0Q878 803 878.0 785.0Q878 767 878.5 754.5Q879 742 879 742Z" fill="#fdc318" stroke="none" transform="scale(1,-1) translate(0,-256)" /><path d="M639 627 603 608Q603 608 600.0 622.5Q597 637 593.0 657.0Q589 677 587 694Q582 746 615 762Q628 768 637.5 766.0Q647 764 647 764Q647 764 641.5 759.0Q636 754 632 746Q629 742 626.0 732.0Q623 722 626 696Q629 674 634.0 650.5Q639 627 639 627Z" fill="#fdc318" stroke="none" transform="scale(1,-1) translate(0,-256)" /><path d="M443 625Q443 625 431.0 630.5Q419 636 404 626Q396 622 390.0 612.5Q384 603 384 583Q384 573 388.0 554.0Q392 535 397.0 514.5Q402 494 406.0 480.0Q410 466 410 466L444 495Q444 495 438.5 514.5Q433 534 428.0 558.0Q423 582 423 595Q422 614 432.5 619.5Q443 625 443 625Z" fill="#fdc318" stroke="none" transform="scale(1,-1) translate(0,-256)" /></svg>