<?xml version="1.0" encoding="utf-8" ?>
<svg baseProfile="full" height="256" version="1.1" width="256" xmlns="http://www.w3.org/2000/svg" xmlns:ev="http://www.w3.org/2001/xml-events" xmlns:xlink="http://www.w3.org/1999/xlink"><defs /><path d="M488 532 441 477 399 536 409 616Q409 616 416.0 619.5Q423 623 431.0 625.5Q439 628 443 625Q446 623 453.0 609.0Q460 595 468.0 577.5Q476 560 482.0 546.5Q488 533 488 532Z" fill="#1b2a89" stroke="none" transform="scale(1,-1) translate(0,-256)" /><path d="M694 664 629 614 605 665 615 734Q615 734 621.0 741.5Q627 749 634.0 756.5Q641 764 645 764Q651 763 655.5 755.5Q660 748 663 741Q665 738 670.0 726.0Q675 714 680.5 699.5Q686 685 690.0 674.5Q694 664 694 664Z" fill="#1b2a89" stroke="none" transform="scale(1,-1) translate(0,-256)" /><path d="M944 761 861 734V816L871 853Q871 853 881.0 861.0Q891 869 897 869Q904 869 911.5 861.0Q919 853 924 836Q927 823 932.0 805.0Q937 787 940.5 774.0Q944 761 944 761Z" fill="#1b2a89" stroke="none" transform="scale(1,-1) translate(0,-256)" /><path d="M1124 777 1113 820 1138 883Q1138 883 1152.5 892.5Q1167 902 1176 901Q1186 900 1188.0 891.5Q1190 883 1190 872Q1190 865 1190.5 844.0Q1191 823 1191.5 804.5Q1192 786 1192 786Z" fill="#1b2a89" stroke="none" transform="scale(1,-1) translate(0,-256)" /></svg>