<?xml version="1.0" encoding="utf-8" ?>
<svg baseProfile="full" height="256" version="1.1" width="256" xmlns="http://www.w3.org/2000/svg" xmlns:ev="http://www.w3.org/2001/xml-events" xmlns:xlink="http://www.w3.org/1999/xlink"><defs /><path d="M1152 532Q1142 514 1131.0 508.0Q1120 502 1112 501Q1091 498 1076 514Q1075 514 1074.5 514.5Q1074 515 1074 515Q1044 548 1050 657Q1051 668 1052.0 678.5Q1053 689 1054 700Q1063 709 1073.0 719.0Q1083 729 1091 737Q1085 692 1083.0 651.0Q1081 610 1084.5 579.5Q1088 549 1098 538Q1102 533 1109 534Q1110 534 1114.0 536.5Q1118 539 1124 549Q1138 572 1145.5 621.0Q1153 670 1147.5 731.0Q1142 792 1118 852Q1111 867 1127 873Q1142 880 1148 864Q1173 804 1179.5 739.0Q1186 674 1178.5 618.5Q1171 563 1152 532Z" fill="#90a4ae" stroke="none" transform="scale(1,-1) translate(0,-256)" /></svg>