<?xml version="1.0" encoding="utf-8" ?>
<svg baseProfile="full" height="256" version="1.1" width="256" xmlns="http://www.w3.org/2000/svg" xmlns:ev="http://www.w3.org/2001/xml-events" xmlns:xlink="http://www.w3.org/1999/xlink"><defs /><path d="M1151.8849487304688 727.4875793457031Q1151.8849487304688 777.8694152832031 1116.2702026367188 812.6155090332031Q1080.6554565429688 847.3616027832031 1032.0109252929688 847.3616027832031Q983.3663940429688 847.3616027832031 948.6203002929688 812.6155090332031Q913.8742065429688 777.8694152832031 913.8742065429688 727.4875793457031Q913.8742065429688 678.8430480957031 948.6203002929688 644.0969543457031Q983.3663940429688 609.3508605957031 1032.0109252929688 609.3508605957031Q1080.6554565429688 609.3508605957031 1116.2702026367188 644.0969543457031Q1151.8849487304688 678.8430480957031 1151.8849487304688 727.4875793457031Z" fill="#ffca28" stroke="none" transform="scale(1,-1) translate(0,-256)" /><path d="M1115 606Q1115 606 1113.5 612.5Q1112 619 1102.5 625.5Q1093 632 1068 632H998Q975 632 965.0 625.5Q955 619 953.0 612.5Q951 606 951 606Z" fill="#ffca28" stroke="none" transform="scale(1,-1) translate(0,-256)" /><path d="M362.50994873046875 727.4875793457031Q362.50994873046875 777.8694152832031 326.89520263671875 812.6155090332031Q291.28045654296875 847.3616027832031 242.63592529296875 847.3616027832031Q193.99139404296875 847.3616027832031 159.24530029296875 812.6155090332031Q124.49920654296875 777.8694152832031 124.49920654296875 727.4875793457031Q124.49920654296875 678.8430480957031 159.24530029296875 644.0969543457031Q193.99139404296875 609.3508605957031 242.63592529296875 609.3508605957031Q291.28045654296875 609.3508605957031 326.89520263671875 644.0969543457031Q362.50994873046875 678.8430480957031 362.50994873046875 727.4875793457031Z" fill="#ffca28" stroke="none" transform="scale(1,-1) translate(0,-256)" /><path d="M325 606H324Q324 606 323.0 612.5Q322 619 312.0 625.5Q302 632 278 632H208Q184 632 174.0 625.5Q164 619 162.0 612.5Q160 606 160 606Z" fill="#ffca28" stroke="none" transform="scale(1,-1) translate(0,-256)" /></svg>