<?xml version="1.0" encoding="utf-8" ?>
<svg baseProfile="full" height="256" version="1.1" width="256" xmlns="http://www.w3.org/2000/svg" xmlns:ev="http://www.w3.org/2001/xml-events" xmlns:xlink="http://www.w3.org/1999/xlink"><defs /><path d="M1009 362V-104Q1012 -124 989.0 -145.0Q966 -166 913 -181Q860 -196 790.0 -205.0Q720 -214 637 -214Q555 -214 485.0 -205.0Q415 -196 362 -181Q311 -166 288.0 -146.5Q265 -127 266 -107V359Q266 359 266.0 359.0Q266 359 266 359V362Q268 400 333 419Q401 440 476.5 451.0Q552 462 638 463Q723 462 798.5 451.0Q874 440 942 419Q1007 400 1009 362Z" fill="#e2a610" stroke="none" transform="scale(1,-1) translate(0,-256)" /></svg>