<?xml version="1.0" encoding="utf-8" ?>
<svg baseProfile="full" height="256" version="1.1" width="256" xmlns="http://www.w3.org/2000/svg" xmlns:ev="http://www.w3.org/2001/xml-events" xmlns:xlink="http://www.w3.org/1999/xlink"><defs /><path d="M387.82618713378906 557.2563323974609Q434.75596618652344 615.9442291259766 495.7726135253906 645.2945251464844Q556.7892608642578 674.6448211669922 622.5045394897461 676.4163284301758Q688.2198181152344 678.1878356933594 749.8320388793945 655.3130645751953Q811.4442596435547 632.4382934570312 858.3916931152344 586.6758575439453Q904.1656341552734 540.9132232666016 928.819091796875 481.06382751464844Q953.4725494384766 421.2144317626953 953.4834594726562 356.6664733886719Q953.4943695068359 292.11851501464844 928.2746963500977 230.5002899169922Q903.0550231933594 168.88206481933594 850.2559967041016 120.75556945800781Q791.5904998779297 66.76008605957031 715.3164672851562 49.14320373535156Q639.0424346923828 31.526321411132812 559.8284225463867 50.8773193359375Q480.6144104003906 70.22831726074219 414.888916015625 128.8971710205078Q371.46315002441406 167.6186065673828 349.1575698852539 222.18720245361328Q326.85198974609375 276.75579833984375 323.90804290771484 337.19566345214844Q320.96409606933594 397.6355285644531 337.3832702636719 455.14466857910156Q353.8024444580078 512.65380859375 387.82618713378906 557.2563323974609Z" fill="#fcc11a" stroke="none" transform="scale(1,-1) translate(0,-256)" /></svg>