<?xml version="1.0" encoding="utf-8" ?>
<svg baseProfile="full" height="256" version="1.1" width="256" xmlns="http://www.w3.org/2000/svg" xmlns:ev="http://www.w3.org/2001/xml-events" xmlns:xlink="http://www.w3.org/1999/xlink"><defs /><path d="M793 603Q781 614 766.5 612.5Q752 611 741.5 601.0Q731 591 731 575V444Q731 436 725.5 430.5Q720 425 713 425H281Q266 425 255.0 414.0Q244 403 244 388V313Q244 297 255.0 286.0Q266 275 281 275H713Q720 275 725.5 269.5Q731 264 731 256V125Q731 109 741.5 99.0Q752 89 766.5 87.5Q781 86 793 97L1018 322Q1031 333 1031.0 350.0Q1031 367 1018 378Z" fill="#fafafa" stroke="none" transform="scale(1,-1) translate(0,-256)" /></svg>