<?xml version="1.0" encoding="utf-8" ?>
<svg baseProfile="full" height="256" version="1.1" width="256" xmlns="http://www.w3.org/2000/svg" xmlns:ev="http://www.w3.org/2001/xml-events" xmlns:xlink="http://www.w3.org/1999/xlink"><defs /><path d="M552 70H723V-23Q723 -55 697.0 -77.5Q671 -100 638 -100Q604 -100 578.0 -77.5Q552 -55 552 -23Z" fill="#e59600" stroke="none" transform="scale(1,-1) translate(0,-256)" /><path d="M894 477Q935 477 964.5 445.5Q994 414 994 370Q994 326 964.5 294.5Q935 263 894 263H381Q340 263 310.5 294.5Q281 326 281 370Q281 414 310.5 445.5Q340 477 381 477Z" fill="#e59600" stroke="none" transform="scale(1,-1) translate(0,-256)" /><path d="M673.0 218.25Q684.0 214.25 680.0 203.25Q677.0 198.25 667.0 188.25Q657.0 178.25 637.0 178.25Q618.0 178.25 607.5 188.25Q597.0 198.25 595.0 203.25Q591.0 213.25 602.0 218.25Q603.0 219.25 605.0 219.25H670.0Q671.0 219.25 673.0 218.25Z" fill="#e59600" stroke="none" transform="scale(1,-1) translate(0,-256)" /></svg>