<?xml version="1.0" encoding="utf-8" ?>
<svg baseProfile="full" height="256" version="1.1" width="256" xmlns="http://www.w3.org/2000/svg" xmlns:ev="http://www.w3.org/2001/xml-events" xmlns:xlink="http://www.w3.org/1999/xlink"><defs /><path d="M966 140Q971 130 982.0 125.0Q993 120 1002.0 118.5Q1011 117 1011 117Q1011 117 1005.0 105.5Q999 94 984 85Q971 77 956.5 74.5Q942 72 931 72Q931 72 919.5 60.0Q908 48 883.5 32.5Q859 17 819.0 5.5Q779 -6 723 -6H639H555Q498 -6 458.5 5.5Q419 17 394.0 32.5Q369 48 357.5 60.0Q346 72 346 72Q335 72 320.5 74.5Q306 77 293 85Q279 94 272.5 105.5Q266 117 266 117Q266 117 275.0 118.5Q284 120 295.0 125.0Q306 130 312 140Q320 156 311.0 172.5Q302 189 283 209Q263 230 245.0 267.0Q227 304 223.0 350.0Q219 396 239 446Q239 446 245.5 450.5Q252 455 258.0 459.5Q264 464 264 464Q266 464 298.5 464.5Q331 465 384.0 465.0Q437 465 503.0 465.0Q569 465 639 465Q708 465 774.0 465.0Q840 465 893.5 465.0Q947 465 979.0 464.5Q1011 464 1013 464L1030 463Q1030 463 1034.0 454.5Q1038 446 1038 446Q1058 397 1054.0 350.5Q1050 304 1032.5 267.0Q1015 230 995 209Q975 189 966.0 172.5Q957 156 966 140Z" fill="#543930" stroke="none" transform="scale(1,-1) translate(0,-256)" /><path d="M1014 644Q1023 631 1032.0 603.0Q1041 575 1044.0 537.5Q1047 500 1036 459Q1027 428 1014.0 410.0Q1001 392 990.0 382.0Q979 372 978 365Q975 334 964.5 306.5Q954 279 947 264Q946 262 943.5 262.5Q941 263 941 265Q936 303 931.0 351.0Q926 399 918 433Q908 478 889.0 500.5Q870 523 850.5 530.0Q831 537 817.0 537.0Q803 537 803 537Q803 537 796.5 549.0Q790 561 773.5 573.0Q757 585 727.0 588.0Q697 591 649 572Q615 559 582 535Q532 498 484.0 477.5Q436 457 405.0 449.0Q374 441 374 441Q376 433 371.5 408.5Q367 384 360.0 353.5Q353 323 346.5 296.0Q340 269 337 255Q336 253 333.5 252.5Q331 252 330 255Q324 269 317.0 303.0Q310 337 313 392Q313 392 297.0 398.5Q281 405 262.5 418.0Q244 431 236 452Q226 479 230.0 501.5Q234 524 245.5 541.0Q257 558 269 568Q264 581 262.0 608.0Q260 635 277 668Q292 697 315.5 707.5Q339 718 360 719Q350 750 356.0 771.5Q362 793 375.5 806.5Q389 820 400.5 826.0Q412 832 412 832Q412 832 413.0 821.5Q414 811 419.5 798.5Q425 786 437 779Q458 768 481.5 771.0Q505 774 523.0 782.0Q541 790 545 793Q567 804 601.5 818.0Q636 832 683.5 836.0Q731 840 794 821Q828 810 858.5 784.5Q889 759 894 726Q917 725 940.5 711.5Q964 698 983.5 679.5Q1003 661 1014 644Z" fill="#543930" stroke="none" transform="scale(1,-1) translate(0,-256)" /></svg>