<?xml version="1.0" encoding="utf-8" ?>
<svg baseProfile="full" height="256" version="1.1" width="256" xmlns="http://www.w3.org/2000/svg" xmlns:ev="http://www.w3.org/2001/xml-events" xmlns:xlink="http://www.w3.org/1999/xlink"><defs /><path d="M794 120Q879 104 945.0 69.5Q1011 35 1049.5 -20.5Q1088 -76 1088 -155V-212H1073H1059H216H202H188V-155Q188 -76 226.0 -20.5Q264 35 330.0 69.5Q396 104 481 120Q489 122 520.5 123.0Q552 124 595.0 124.0Q638 124 680.5 124.0Q723 124 754.5 123.0Q786 122 794 120Z" fill="#000000" stroke="none" transform="scale(1,-1) translate(0,-256)" /><path d="M639 -6H722Q779 -6 818.5 5.5Q858 17 883.0 32.5Q908 48 919.5 60.0Q931 72 931 72L906 101L639 81Z" fill="#000000" stroke="none" transform="scale(1,-1) translate(0,-256)" /><path d="M-879.9288940429688 -315.2032470703125Q-890.0158996582031 -333.53656005859375 -908.3881530761719 -339.14781188964844Q-926.7604064941406 -344.7590637207031 -941.2570495605469 -344.56101989746094Q-955.7536926269531 -344.36297607421875 -955.7536926269531 -344.36297607421875Q-955.7536926269531 -344.36297607421875 -948.0473327636719 -339.6167449951172Q-940.3409729003906 -334.8705139160156 -931.921142578125 -326.9754943847656Q-923.5013122558594 -319.0804748535156 -922.1119995117188 -310.38189697265625Q-919.5359802246094 -299.5264587402344 -927.7271575927734 -292.80690002441406Q-935.9183349609375 -286.08734130859375 -950.3324890136719 -281.4179382324219Q-950.3324890136719 -281.4179382324219 -950.3324890136719 -281.4179382324219Q-950.3324890136719 -281.4179382324219 -950.3324890136719 -281.4179382324219Q-950.3324890136719 -281.4179382324219 -937.5522308349609 -279.1794128417969Q-924.77197265625 -276.9408874511719 -909.0509948730469 -277.38307189941406Q-893.3300170898438 -277.82525634765625 -883.2835235595703 -286.1115264892578Q-873.2370300292969 -294.3977966308594 -879.9288940429688 -315.2032470703125Z" fill="#000000" stroke="none" transform="scale(1,-1) translate(0,-256)" /><path d="M298.9312438964844 1062.7227478027344Q298.9312438964844 1062.7227478027344 303.3575897216797 1060.5408935546875Q307.783935546875 1058.3590393066406 307.783935546875 1058.3590393066406Q307.783935546875 1058.3590393066406 308.72920989990234 1040.3801345825195Q309.6744842529297 1022.4012298583984 310.9186096191406 994.9187774658203Q312.16273498535156 967.4363250732422 312.5596160888672 939.8916931152344Q312.9564971923828 912.3470611572266 312.35938262939453 892.2495956420898Q311.76226806640625 872.1521301269531 308.6014404296875 868.912109375Q303.0509796142578 863.4913482666016 295.1162338256836 861.4049911499023Q287.1814880371094 859.3186340332031 279.55628967285156 858.7590179443359Q269.3133087158203 859.0099639892578 259.7654724121094 861.3172912597656Q250.21763610839844 863.6246185302734 240.59375 866.9290466308594Q216.95765686035156 875.2212066650391 187.55364990234375 892.1141967773438Q158.14964294433594 909.0071868896484 130.36407470703125 927.0216369628906Q102.57850646972656 945.0360870361328 84.99254608154297 957.7829971313477Q67.40658569335938 970.5299072265625 67.40658569335938 970.5299072265625Q78.11656188964844 975.3266448974609 88.98933410644531 989.1594696044922Q99.86210632324219 1002.9922943115234 102.94688415527344 1007.2294158935547Q119.2940673828125 1027.4801025390625 149.34925842285156 1046.731460571289Q179.40444946289062 1065.9828186035156 218.073486328125 1072.8314819335938Q256.7425231933594 1079.6801452636719 298.9312438964844 1062.7227478027344Z" fill="#000000" stroke="none" transform="scale(1,-1) translate(0,-256)" /><path d="M-359.6950378417969 266.0391845703125Q-359.6950378417969 266.0391845703125 -363.6650848388672 269.8399353027344Q-367.6351318359375 273.64068603515625 -367.6351318359375 273.64068603515625Q-367.3309326171875 277.62908935546875 -364.9626922607422 297.50892639160156Q-362.5944519042969 317.3887634277344 -359.2702407836914 344.2172164916992Q-355.94602966308594 371.04566955566406 -353.3116149902344 394.4153594970703Q-350.6772003173828 417.78504943847656 -349.9167022705078 427.7560577392578Q-349.1562042236328 437.72706604003906 -348.5478057861328 445.70387268066406Q-347.9394073486328 453.68067932128906 -339.85791015625 459.1036682128906Q-333.5469512939453 463.65391540527344 -325.34603118896484 465.05741119384766Q-317.1451110839844 466.4609069824219 -309.59596252441406 464.90419006347656Q-299.4290313720703 464.1580352783203 -290.3755187988281 459.9842071533203Q-281.32200622558594 455.8103790283203 -272.3065185546875 451.13800048828125Q-250.19142150878906 439.48814392089844 -223.67730712890625 418.4913024902344Q-197.16319274902344 397.4944610595703 -172.41961669921875 375.6248779296875Q-147.67604064941406 353.7552947998047 -132.21947479248047 338.58338165283203Q-116.76290893554688 323.4114685058594 -116.76290893554688 323.4114685058594Q-128.08128356933594 320.2313995361328 -140.89332580566406 308.6381530761719Q-153.7053680419922 297.04490661621094 -157.39854431152344 293.3052215576172Q-176.711669921875 274.6689758300781 -209.35255432128906 260.01890563964844Q-241.99343872070312 245.36883544921875 -281.2708740234375 244.24069213867188Q-320.5483093261719 243.112548828125 -359.6950378417969 266.0391845703125Z" fill="#000000" stroke="none" transform="scale(1,-1) translate(0,-256)" /><path d="M638.4369964599609 -6.0H555.4369964599609Q498.43699645996094 -6.0 458.93699645996094 5.5Q419.43699645996094 17.0 394.43699645996094 32.5Q369.43699645996094 48.0 357.93699645996094 60.0Q346.43699645996094 72.0 346.43699645996094 72.0L371.43699645996094 101.0L638.4369964599609 81.0Z" fill="#000000" stroke="none" transform="scale(1,-1) translate(0,-256)" /><path d="M2157.3658905029297 -315.2032470703125Q2167.452896118164 -333.53656005859375 2185.825149536133 -339.14781188964844Q2204.1974029541016 -344.7590637207031 2218.694046020508 -344.56101989746094Q2233.190689086914 -344.36297607421875 2233.190689086914 -344.36297607421875Q2233.190689086914 -344.36297607421875 2225.484329223633 -339.6167449951172Q2217.7779693603516 -334.8705139160156 2209.358139038086 -326.9754943847656Q2200.9383087158203 -319.0804748535156 2199.5489959716797 -310.38189697265625Q2196.9729766845703 -299.5264587402344 2205.1641540527344 -292.80690002441406Q2213.3553314208984 -286.08734130859375 2227.769485473633 -281.4179382324219Q2227.769485473633 -281.4179382324219 2227.769485473633 -281.4179382324219Q2227.769485473633 -281.4179382324219 2227.769485473633 -281.4179382324219Q2227.769485473633 -281.4179382324219 2214.989227294922 -279.1794128417969Q2202.208969116211 -276.9408874511719 2186.487991333008 -277.38307189941406Q2170.7670135498047 -277.82525634765625 2160.7205200195312 -286.1115264892578Q2150.674026489258 -294.3977966308594 2157.3658905029297 -315.2032470703125Z" fill="#000000" stroke="none" transform="scale(1,-1) translate(0,-256)" /><path d="M567.6463012695312 -845.9618225097656Q592.3506469726562 -831.8370208740234 617.1652984619141 -819.2507171630859Q641.9799499511719 -806.6644134521484 665.072998046875 -788.8544692993164Q688.1660461425781 -771.0445251464844 708.9397583007812 -741.3820724487305Q729.7134704589844 -711.7196197509766 746.0229187011719 -662.4927673339844Q746.0229187011719 -662.4927673339844 753.3713684082031 -672.7511138916016Q760.7198181152344 -683.0094604492188 774.0006408691406 -687.1914215087891Q784.5000915527344 -690.1570892333984 792.9649200439453 -686.9493637084961Q801.4297485351562 -683.7416381835938 801.4297485351562 -683.7416381835938Q802.3688049316406 -686.5908966064453 804.1545104980469 -694.4166564941406Q809.1419982910156 -726.4029083251953 800.3687286376953 -761.1776733398438Q791.595458984375 -795.9524383544922 780.0795288085938 -816.3864440917969Q773.9623413085938 -826.7173156738281 759.0211029052734 -840.3697814941406Q744.0798645019531 -854.0222473144531 721.2640380859375 -865.4504623413086Q698.4482116699219 -876.8786773681641 668.9561767578125 -878.8844299316406Q659.7088012695312 -879.7177734375 654.0536499023438 -879.4124298095703Q628.9646911621094 -877.9245147705078 611.9634399414062 -869.677001953125Q594.9621887207031 -861.4294891357422 583.9753112792969 -853.3734512329102Q572.9884338378906 -845.3174133300781 567.6463012695312 -845.9618225097656Z" fill="#000000" stroke="none" transform="scale(1,-1) translate(0,-256)" /><path d="M819.4395446777344 480.7173156738281Q816.0117797851562 478.0011901855469 806.8252716064453 470.97056579589844Q797.6387634277344 463.93994140625 790.0287322998047 458.9045104980469Q769.4621429443359 442.6077575683594 742.824577331543 431.19854736328125Q716.18701171875 419.7893371582031 692.2478485107422 434.6392822265625Q665.015869140625 452.35076904296875 661.4758377075195 473.41798400878906Q657.9358062744141 494.4851989746094 667.9743423461914 514.6244506835938Q678.0128784179688 534.7637023925781 691.0369110107422 548.8138580322266Q704.0609436035156 562.864013671875 709.9570922851562 566.5413818359375Q709.4774017333984 565.6639404296875 705.1951522827148 556.0539855957031Q700.9129028320312 546.4440307617188 699.3063735961914 533.7322235107422Q697.6998443603516 521.0204162597656 703.3960266113281 510.1164855957031Q713.9639587402344 492.13140869140625 733.1338119506836 485.43846130371094Q752.3036651611328 478.7455139160156 769.7222137451172 478.6222839355469Q787.1407623291016 478.4990539550781 791.5978393554688 479.5440979003906Q797.5639190673828 479.7955017089844 804.5243453979492 480.08880615234375Q811.4847717285156 480.3821105957031 819.4395446777344 480.7173156738281Z" fill="#000000" stroke="none" transform="scale(1,-1) translate(0,-256)" /><path d="M-544.7659454345703 718.7992095947266Q-487.7062225341797 704.8585052490234 -447.0736999511719 685.4007568359375Q-406.44117736816406 665.9430084228516 -380.1490783691406 648.5024719238281Q-375.9569854736328 645.5741119384766 -374.2704544067383 637.9826126098633Q-372.58392333984375 630.39111328125 -387.87158203125 625.0036926269531Q-403.15924072265625 619.6162719726562 -450.35194396972656 623.4907989501953Q-528.0102996826172 629.7373504638672 -573.0841751098633 639.9336318969727Q-618.1580505371094 650.1299133300781 -640.4090423583984 661.7061614990234Q-662.6600341796875 673.2824096679688 -669.0008850097656 683.992919921875Q-675.3417358398438 694.7034301757812 -673.7171859741211 702.428337097168Q-672.0926361083984 710.1532440185547 -670.3078308105469 711.8156433105469Q-655.5992126464844 726.1366882324219 -625.1542205810547 728.8701324462891Q-594.709228515625 731.6035766601562 -544.7659454345703 718.7992095947266Z" fill="#000000" stroke="none" transform="scale(1,-1) translate(0,-256)" /><path d="M412 832Q412 832 412.0 832.0Q412 832 412 832Q412 832 406.5 821.5Q401 811 398.0 793.5Q395 776 402.0 753.5Q409 731 433 707L360 719Q350 748 355.5 769.0Q361 790 373.0 803.0Q385 816 396.5 823.0Q408 830 411 831Q412 831 412.0 831.0Q412 831 412 831Q412 832 412 832Z" fill="#000000" stroke="none" transform="scale(1,-1) translate(0,-256)" /><path d="M-218.21798706054688 735.1852722167969 -189.91165161132812 611.6105651855469Q-151.4796142578125 600.5144348144531 -136.6323699951172 586.6029052734375Q-121.78512573242188 572.6913757324219 -121.78512573242188 572.6913757324219Q-121.78512573242188 572.6913757324219 -119.23904418945312 576.3018035888672Q-116.69296264648438 579.9122314453125 -114.50857543945312 584.0939636230469Q-106.988525390625 596.3839416503906 -102.96011352539062 616.7330474853516Q-98.93170166015625 637.0821533203125 -105.17025756835938 663.4721374511719Q-110.6854248046875 688.7195129394531 -127.82814025878906 703.7127838134766Q-144.97085571289062 718.7060546875 -162.61123657226562 726.2173767089844Q-170.10284423828125 729.1465148925781 -173.00350952148438 729.9121704101562Z" fill="#000000" stroke="none" transform="scale(1,-1) translate(0,-256)" /><path d="M270.4584045410156 534.6249542236328Q270.4584045410156 534.6249542236328 272.46307373046875 535.8679962158203Q274.4677429199219 537.1110382080078 273.74920654296875 537.2080078125Q285.0586853027344 544.7632293701172 299.544189453125 548.8626708984375Q314.0296936035156 552.9621124267578 329.8374938964844 550.8287811279297L291.7231140136719 352.1436004638672Q288.13043212890625 352.6284484863281 283.7377166748047 355.23937225341797Q279.3450012207031 357.8502960205078 279.3450012207031 357.8502960205078Q279.3450012207031 357.8502960205078 269.04100036621094 365.2951889038086Q258.73699951171875 372.7400817871094 247.2495880126953 387.4080581665039Q235.76217651367188 402.07603454589844 232.79159545898438 422.6580047607422Q228.63760375976562 450.4630584716797 234.6366729736328 472.35717010498047Q240.6357421875 494.25128173828125 250.90069580078125 510.0198974609375Q261.1656494140625 525.7885131835938 270.4584045410156 534.6249542236328Z" fill="#000000" stroke="none" transform="scale(1,-1) translate(0,-256)" /></svg>