<?xml version="1.0" encoding="utf-8" ?>
<svg baseProfile="full" height="256" version="1.1" width="256" xmlns="http://www.w3.org/2000/svg" xmlns:ev="http://www.w3.org/2001/xml-events" xmlns:xlink="http://www.w3.org/1999/xlink"><defs /><path d="M444 310Q443 289 455.0 273.5Q467 258 485 258Q502 258 515.0 273.0Q528 288 528 310Q529 336 512 351Q505 345 496.0 339.5Q487 334 475 330Q461 326 446 324Q444 316 444 310Z" fill="#404040" stroke="none" transform="scale(1,-1) translate(0,-256)" /><path d="M831 310Q832 289 820.0 273.5Q808 258 790 258Q773 258 760.0 273.0Q747 288 747 310Q746 336 763 351Q770 345 779.0 339.5Q788 334 800 330Q814 326 829 324Q831 316 831 310Z" fill="#404040" stroke="none" transform="scale(1,-1) translate(0,-256)" /></svg>