<?xml version="1.0" encoding="utf-8" ?>
<svg baseProfile="full" height="256" version="1.1" width="256" xmlns="http://www.w3.org/2000/svg" xmlns:ev="http://www.w3.org/2001/xml-events" xmlns:xlink="http://www.w3.org/1999/xlink"><defs /><path d="M983.781005859375 123.0 1007.781005859375 62.0Q1007.781005859375 62.0 990.781005859375 53.5Q973.781005859375 45.0 932.781005859375 33.5Q891.781005859375 22.0 819.781005859375 13.5Q747.781005859375 5.0 636.781005859375 5.0Q525.781005859375 5.0 453.781005859375 13.5Q381.781005859375 22.0 341.281005859375 33.5Q300.781005859375 45.0 284.281005859375 53.5Q267.781005859375 62.0 267.781005859375 62.0L291.781005859375 123.0V565.0Q291.781005859375 584.0 305.281005859375 597.5Q318.781005859375 611.0 338.781005859375 611.0H936.781005859375Q955.781005859375 611.0 969.781005859375 597.5Q983.781005859375 584.0 983.781005859375 565.0Z" fill="#ffca28" stroke="none" transform="scale(1,-1) translate(0,-256)" /><path d="M615.6880035400391 741.0Q601.6880035400391 741.0 591.1880035400391 731.5Q580.6880035400391 722.0 580.6880035400391 708.0Q580.6880035400391 694.0 591.1880035400391 684.5Q601.6880035400391 675.0 615.6880035400391 675.0H658.6880035400391Q673.6880035400391 675.0 684.1880035400391 684.5Q694.6880035400391 694.0 694.6880035400391 708.0Q694.6880035400391 722.0 684.1880035400391 731.5Q673.6880035400391 741.0 658.6880035400391 741.0Z" fill="#ffca28" stroke="none" transform="scale(1,-1) translate(0,-256)" /></svg>