<?xml version="1.0" encoding="utf-8" ?>
<svg baseProfile="full" height="256" version="1.1" width="256" xmlns="http://www.w3.org/2000/svg" xmlns:ev="http://www.w3.org/2001/xml-events" xmlns:xlink="http://www.w3.org/1999/xlink"><defs /><path d="M267.68800354003906 658.0Q273.68800354003906 682.0 297.68800354003906 707.0Q321.68800354003906 732.0 365.18800354003906 749.0Q408.68800354003906 766.0 473.68800354003906 766.0Q521.6880035400391 766.0 553.6880035400391 766.0Q585.6880035400391 766.0 614.6880035400391 766.0Q643.6880035400391 766.0 681.1880035400391 766.0Q718.6880035400391 766.0 778.6880035400391 766.0Q859.6880035400391 766.0 907.1880035400391 752.0Q954.6880035400391 738.0 977.6880035400391 714.0Q1000.6880035400391 690.0 1007.6880035400391 661.0L983.6880035400391 636.0Q983.6880035400391 636.0 942.6880035400391 645.5Q901.6880035400391 655.0 824.1880035400391 665.0Q746.6880035400391 675.0 636.6880035400391 675.0Q526.6880035400391 675.0 449.68800354003906 664.5Q372.68800354003906 654.0 332.18800354003906 643.5Q291.68800354003906 633.0 291.68800354003906 633.0Z" fill="#9e9e9e" stroke="none" transform="scale(1,-1) translate(0,-256)" /></svg>