<?xml version="1.0" encoding="utf-8" ?>
<svg baseProfile="full" height="256" version="1.1" width="256" xmlns="http://www.w3.org/2000/svg" xmlns:ev="http://www.w3.org/2001/xml-events" xmlns:xlink="http://www.w3.org/1999/xlink"><defs /><path d="M352.68800354003906 4.0 916.6880035400391 15.0Q916.6880035400391 15.0 928.6880035400391 6.5Q940.6880035400391 -2.0 955.1880035400391 -15.0Q969.6880035400391 -28.0 978.6880035400391 -43.5Q987.6880035400391 -59.0 982.6880035400391 -73.0Q974.6880035400391 -91.0 928.6880035400391 -110.5Q882.6880035400391 -130.0 802.1880035400391 -143.0Q721.6880035400391 -156.0 610.6880035400391 -156.0Q521.6880035400391 -156.0 453.18800354003906 -143.5Q384.68800354003906 -131.0 344.18800354003906 -113.5Q303.68800354003906 -96.0 298.68800354003906 -79.0Q294.68800354003906 -67.0 302.18800354003906 -52.5Q309.68800354003906 -38.0 321.68800354003906 -25.5Q333.68800354003906 -13.0 343.18800354003906 -4.5Q352.68800354003906 4.0 352.68800354003906 4.0Z" fill="#212121" stroke="none" transform="scale(1,-1) translate(0,-256)" /></svg>