<?xml version="1.0" encoding="utf-8" ?>
<svg baseProfile="full" height="256" version="1.1" width="256" xmlns="http://www.w3.org/2000/svg" xmlns:ev="http://www.w3.org/2001/xml-events" xmlns:xlink="http://www.w3.org/1999/xlink"><defs /><path d="M590 213Q595 219 603.0 219.0Q611 219 616 213L651 178Q646 183 638.0 183.0Q630 183 624 178L266 -180Q244 -202 214.0 -209.0Q184 -216 156 -208Q182 -201 203 -180Z" fill="#cc3333" stroke="none" transform="scale(1,-1) translate(0,-256)" /><path d="M809 337Q809 337 828.5 317.5Q848 298 880.0 266.0Q912 234 950.0 196.0Q988 158 1026.5 119.5Q1065 81 1096.5 49.0Q1128 17 1147.5 -2.5Q1167 -22 1167 -22Q1200 -55 1200.0 -101.5Q1200 -148 1167 -181Q1134 -214 1087.5 -214.0Q1041 -214 1008 -181L976 -149Q1009 -181 1047.5 -186.5Q1086 -192 1119 -159Q1152 -126 1144.0 -90.0Q1136 -54 1103 -21Q1103 -21 1083.5 -1.5Q1064 18 1032.5 49.5Q1001 81 963.0 119.5Q925 158 887.0 196.0Q849 234 817.0 266.0Q785 298 765.5 317.5Q746 337 746 337Q733 350 746 363L1115 731Q1148 764 1151.5 798.0Q1155 832 1122 865Q1058 929 990 861L622 493Q608 480 595 493L243 854Q210 887 173.5 897.0Q137 907 104 875Q100 871 98 868Q101 871 103.0 874.0Q105 877 108 880Q141 913 187.5 913.0Q234 913 267 880L624 523Q638 509 651 523L1009 880Q1042 913 1088.0 913.0Q1134 913 1167 880Q1200 847 1200.0 800.0Q1200 753 1167 720L809 363Q796 350 809 337Z" fill="#cc3333" stroke="none" transform="scale(1,-1) translate(0,-256)" /></svg>