<?xml version="1.0" encoding="utf-8" ?>
<svg baseProfile="full" height="256" version="1.1" width="256" xmlns="http://www.w3.org/2000/svg" xmlns:ev="http://www.w3.org/2001/xml-events" xmlns:xlink="http://www.w3.org/1999/xlink"><defs /><path d="M553 421Q559 414 557.0 405.5Q555 397 544 391Q533 386 517.0 387.0Q501 388 492 397Q489 400 468.0 421.0Q447 442 415.5 474.0Q384 506 349.0 541.5Q314 577 283.0 609.0Q252 641 231.0 662.5Q210 684 207 687Q199 696 195.0 711.5Q191 727 206 739Q218 748 228.0 745.0Q238 742 244.0 737.0Q250 732 250 732Q250 732 271.5 710.5Q293 689 326.5 655.0Q360 621 398.0 582.0Q436 543 470.5 508.0Q505 473 528.0 449.0Q551 425 553 421Z" fill="#ffffff" stroke="none" transform="scale(1,-1) translate(0,-256)" /><path d="M182.86083984375 771.9260559082031Q182.86083984375 778.3255920410156 180.4610137939453 783.9251861572266Q178.06118774414062 789.5247802734375 173.8054962158203 793.7804718017578Q169.5498046875 798.0361633300781 163.95021057128906 800.4359893798828Q158.35061645507812 802.8358154296875 151.8870849609375 802.8358154296875Q145.487548828125 802.8358154296875 139.88795471191406 800.4359893798828Q134.28836059570312 798.0361633300781 130.0326690673828 793.7804718017578Q125.7769775390625 789.5247802734375 123.37715148925781 783.9251861572266Q120.97732543945312 778.3255920410156 120.97732543945312 771.9260559082031Q120.97732543945312 765.4625244140625 123.37715148925781 759.8629302978516Q125.7769775390625 754.2633361816406 130.0326690673828 750.0076446533203Q134.28836059570312 745.751953125 139.88795471191406 743.3521270751953Q145.487548828125 740.9523010253906 151.8870849609375 740.9523010253906Q158.35061645507812 740.9523010253906 163.95021057128906 743.3521270751953Q169.5498046875 745.751953125 173.8054962158203 750.0076446533203Q178.06118774414062 754.2633361816406 180.4610137939453 759.8629302978516Q182.86083984375 765.4625244140625 182.86083984375 771.9260559082031Z" fill="#ffffff" stroke="none" transform="scale(1,-1) translate(0,-256)" /><path d="M713 183Q708 191 710.0 199.5Q712 208 723 214Q734 220 749.5 219.0Q765 218 774 209Q778 207 799.0 186.0Q820 165 852.0 133.5Q884 102 919.5 67.0Q955 32 986.5 0.5Q1018 -31 1039.0 -52.5Q1060 -74 1063 -77Q1072 -86 1076.0 -101.5Q1080 -117 1065 -129Q1054 -138 1044.0 -135.5Q1034 -133 1027.5 -127.5Q1021 -122 1021 -122Q1021 -122 999.5 -101.0Q978 -80 944.0 -46.5Q910 -13 871.0 25.0Q832 63 797.0 97.5Q762 132 739.0 155.5Q716 179 713 183Z" fill="#ffffff" stroke="none" transform="scale(1,-1) translate(0,-256)" /></svg>