<?xml version="1.0" encoding="utf-8" ?>
<svg baseProfile="full" height="256" version="1.1" width="256" xmlns="http://www.w3.org/2000/svg" xmlns:ev="http://www.w3.org/2001/xml-events" xmlns:xlink="http://www.w3.org/1999/xlink"><defs /><path d="M264 409 249 384Q244 377 238.0 367.0Q232 357 240 350Q249 342 259.0 353.0Q269 364 275 371Q282 377 292.5 387.0Q303 397 303 397Q303 397 317.5 398.0Q332 399 351.5 400.0Q371 401 387.0 402.0Q403 403 406 402Q409 402 418.0 394.0Q427 386 437.5 375.5Q448 365 456.0 357.5Q464 350 464 350L392 283Q392 283 379.5 280.5Q367 278 348.5 274.0Q330 270 313.0 266.5Q296 263 287 261Q275 258 258.0 254.0Q241 250 228.0 244.5Q215 239 216 233Q216 224 226.0 223.0Q236 222 245 223Q255 223 270.0 222.5Q285 222 285 222Q285 222 276.5 211.5Q268 201 260.5 188.5Q253 176 257 169Q261 163 268.0 167.0Q275 171 282.0 178.5Q289 186 294 191Q298 196 308.0 205.5Q318 215 326.5 223.5Q335 232 335 232L390 234Q390 234 388.5 223.5Q387 213 383 195Q379 176 378.0 168.0Q377 160 377 160Q377 160 364.0 152.0Q351 144 333.0 133.0Q315 122 300.0 112.0Q285 102 280 99Q273 94 261.5 86.0Q250 78 242.0 69.0Q234 60 238 53Q242 46 252.5 48.5Q263 51 274.0 57.0Q285 63 290 67Q296 71 313.5 81.0Q331 91 346.5 99.0Q362 107 363 105Q363 102 358.5 85.5Q354 69 348 46Q341 24 337.5 4.5Q334 -15 348 -23Q356 -29 364.0 -15.5Q372 -2 378.5 17.5Q385 37 388 46Q392 56 397.0 78.0Q402 100 406.5 118.5Q411 137 411 137Q411 137 415.5 129.0Q420 121 426.0 111.0Q432 101 436 95Q439 90 445.5 78.0Q452 66 459.5 57.0Q467 48 474 50Q481 53 479.5 64.0Q478 75 473.0 87.0Q468 99 465 104Q463 109 454.5 128.5Q446 148 439.0 167.0Q432 186 431 191Q430 199 434.0 216.0Q438 233 441 240Q443 244 455.5 255.0Q468 266 483.0 279.0Q498 292 509 300Q518 307 538.5 325.0Q559 343 582.0 363.5Q605 384 621.5 398.5Q638 413 638 413Q638 413 653.5 398.5Q669 384 691.0 363.5Q713 343 731.5 326.0Q750 309 757 304Q763 299 773.0 285.0Q783 271 794.0 254.0Q805 237 814.0 223.0Q823 209 827 205Q835 197 831.5 176.5Q828 156 830 120Q831 84 833.5 64.0Q836 44 845 42Q850 40 853.5 51.0Q857 62 859.0 77.0Q861 92 863.0 104.0Q865 116 867 116Q869 116 876.5 104.5Q884 93 894.0 78.5Q904 64 913.0 54.0Q922 44 928 47Q937 51 934.5 62.5Q932 74 925.0 86.0Q918 98 915 103Q912 109 904.0 123.0Q896 137 889.0 150.0Q882 163 884 165Q886 167 897.5 159.5Q909 152 922.5 142.0Q936 132 944 126Q950 121 964.0 108.0Q978 95 995.0 81.0Q1012 67 1026.5 58.5Q1041 50 1047 55Q1055 61 1045.0 75.0Q1035 89 1019.5 103.5Q1004 118 998 126Q993 131 981.0 142.5Q969 154 956.0 166.0Q943 178 933.5 186.5Q924 195 924 195Q924 195 942.0 195.0Q960 195 974 195Q988 195 1004.0 196.0Q1020 197 1021 205Q1023 213 1009.0 218.5Q995 224 977 226Q966 228 944.5 232.0Q923 236 903.5 240.0Q884 244 877 246Q872 247 858.5 262.5Q845 278 829.5 297.5Q814 317 802.5 332.5Q791 348 792 350Q792 352 809.5 353.0Q827 354 849.5 355.0Q872 356 889.5 356.0Q907 356 907 356Q907 356 913.0 350.5Q919 345 929 335Q935 328 943.5 318.5Q952 309 960.5 302.5Q969 296 976 301Q983 305 977.5 315.5Q972 326 964.0 336.0Q956 346 955 350Q955 355 965.0 354.0Q975 353 987.5 351.5Q1000 350 1008 350Q1020 351 1033.0 352.5Q1046 354 1047 365Q1047 373 1029.5 377.0Q1012 381 989.5 384.0Q967 387 953 390Q938 392 919.5 395.0Q901 398 887.5 401.5Q874 405 874 409Q874 413 878.5 422.0Q883 431 887.5 439.0Q892 447 892 447Q892 447 911.0 446.5Q930 446 947 447Q965 448 983.0 451.5Q1001 455 1001 463Q1001 471 992.5 474.0Q984 477 969 478Q955 478 938.0 478.0Q921 478 918 488Q916 499 927.5 505.0Q939 511 949 518Q959 525 975.0 534.5Q991 544 990 551Q988 557 979.0 557.5Q970 558 962 556Q953 553 942.0 550.5Q931 548 931 548Q931 548 927.5 557.5Q924 567 921 579Q918 590 912.0 601.0Q906 612 897 607Q890 603 892.0 588.5Q894 574 896.5 558.0Q899 542 897 534Q895 527 884.5 509.0Q874 491 861.0 470.0Q848 449 837.5 432.5Q827 416 823 413Q817 408 806.0 409.5Q795 411 781 413Q774 414 757.5 430.0Q741 446 723.0 466.5Q705 487 691.5 502.0Q678 517 678 517L675 844Q675 844 662.5 848.0Q650 852 633 851Q617 851 606.5 847.5Q596 844 596 844L597 519Q597 519 583.5 504.0Q570 489 551.0 469.5Q532 450 515.0 433.5Q498 417 492 413Q479 406 468.5 415.0Q458 424 458 424Q458 424 450.5 440.5Q443 457 433.0 479.5Q423 502 414.5 522.0Q406 542 403 549Q397 563 389.0 581.5Q381 600 369 595Q362 592 362.5 581.5Q363 571 367.0 559.0Q371 547 374 539Q377 530 382.0 513.0Q387 496 391.5 481.5Q396 467 396 467Q396 467 384.0 476.0Q372 485 356.0 497.0Q340 509 326.0 520.0Q312 531 308 535Q299 543 285.5 553.0Q272 563 264 554Q258 548 263.0 539.5Q268 531 276.5 523.0Q285 515 291 510Q296 506 308.5 495.0Q321 484 335.0 472.0Q349 460 359.0 451.0Q369 442 369 442L289 432Q289 432 278.5 440.5Q268 449 260 455Q252 461 239.5 467.5Q227 474 221 467Q215 459 222.0 450.0Q229 441 237 436Z" fill="#fee5c3" stroke="none" transform="scale(1,-1) translate(0,-256)" /></svg>