<?xml version="1.0" encoding="utf-8" ?>
<svg baseProfile="full" height="256" version="1.1" width="256" xmlns="http://www.w3.org/2000/svg" xmlns:ev="http://www.w3.org/2001/xml-events" xmlns:xlink="http://www.w3.org/1999/xlink"><defs /><path d="M442 651 228 602Q228 602 225.0 582.0Q222 562 222 537Q222 507 232.5 489.0Q243 471 243 468Q242 466 231.5 455.0Q221 444 209.0 423.0Q197 402 191.5 370.5Q186 339 196 298Q203 270 219.5 253.5Q236 237 250.5 229.5Q265 222 265 222Q265 222 266.5 203.5Q268 185 277.5 158.5Q287 132 310 109Q325 93 346.5 85.0Q368 77 388.5 74.0Q409 71 423.0 70.5Q437 70 437 70Q437 70 449.0 60.0Q461 50 486.5 40.0Q512 30 553 32Q596 34 622.0 50.0Q648 66 661.5 86.0Q675 106 680.0 121.0Q685 136 685 136L534 227L375 410L475 493Q475 493 492.5 496.5Q510 500 524 516Q534 526 536.5 549.5Q539 573 537.5 593.5Q536 614 533 619Q531 622 517.0 627.5Q503 633 485.5 638.5Q468 644 455.0 647.5Q442 651 442 651Z" fill="#d27856" stroke="none" transform="scale(1,-1) translate(0,-256)" /><path d="M521 807Q521 807 505.5 790.0Q490 773 468 764Q462 762 451.0 749.5Q440 737 424.0 722.5Q408 708 388.5 699.5Q369 691 346 696Q320 702 311.5 714.5Q303 727 303.0 738.0Q303 749 303 749Q303 749 290.5 746.5Q278 744 262.5 749.0Q247 754 238 776Q220 815 250.0 847.0Q280 879 356 883Q403 886 435.0 875.0Q467 864 485.5 848.0Q504 832 512.0 819.5Q520 807 521 807Z" fill="#d27856" stroke="none" transform="scale(1,-1) translate(0,-256)" /></svg>