<?xml version="1.0" encoding="utf-8" ?>
<svg baseProfile="full" height="256" version="1.1" width="256" xmlns="http://www.w3.org/2000/svg" xmlns:ev="http://www.w3.org/2001/xml-events" xmlns:xlink="http://www.w3.org/1999/xlink"><defs /><path d="M631 155Q631 155 632.5 135.0Q634 115 636.0 87.0Q638 59 639.5 33.0Q641 7 640 -5Q639 -17 633.0 -36.0Q627 -55 620.0 -74.5Q613 -94 607.5 -106.5Q602 -119 602 -119Q602 -119 600.5 -132.5Q599 -146 596 -153Q592 -159 575.5 -164.5Q559 -170 540 -169Q521 -169 505.0 -164.5Q489 -160 485 -148Q481 -139 489.0 -126.5Q497 -114 506.5 -104.5Q516 -95 517 -92Q518 -90 522.5 -76.5Q527 -63 532.0 -45.5Q537 -28 541.0 -13.5Q545 1 546 5Q546 8 545.0 30.0Q544 52 542.0 79.0Q540 106 538.5 126.0Q537 146 537 146Z" fill="#df9047" stroke="none" transform="scale(1,-1) translate(0,-256)" /><path d="M864 129 948 181Q948 181 952.0 158.5Q956 136 961.0 105.5Q966 75 970.0 49.5Q974 24 974 17Q974 10 970.0 -7.0Q966 -24 961.5 -43.5Q957 -63 953.0 -76.5Q949 -90 949 -90Q949 -90 950.0 -102.5Q951 -115 947 -123Q942 -133 929.5 -139.0Q917 -145 896 -145Q881 -144 861.5 -142.5Q842 -141 837 -127Q833 -116 838.5 -104.0Q844 -92 850.5 -84.5Q857 -77 857 -77Q857 -77 860.0 -66.0Q863 -55 867.5 -39.5Q872 -24 876.0 -10.5Q880 3 881 8Q882 13 879.5 32.0Q877 51 873.5 73.5Q870 96 867.0 112.5Q864 129 864 129Z" fill="#df9047" stroke="none" transform="scale(1,-1) translate(0,-256)" /><path d="M746 836Q775 837 794.0 820.0Q813 803 824.0 779.5Q835 756 840.0 738.0Q845 720 845 720Q845 720 849.5 737.0Q854 754 864.0 776.5Q874 799 891.5 816.0Q909 833 936 834Q965 835 985.5 814.5Q1006 794 1020.0 764.0Q1034 734 1041.5 703.0Q1049 672 1051.5 651.0Q1054 630 1052 629Q1044 625 1038.5 633.0Q1033 641 1027.0 652.5Q1021 664 1014.5 672.0Q1008 680 999 676Q990 672 989.5 660.0Q989 648 990.0 633.0Q991 618 988.0 605.5Q985 593 972 588Q962 585 954.0 594.0Q946 603 938.5 615.5Q931 628 922.0 637.5Q913 647 901 644Q889 641 886.0 626.0Q883 611 882.0 592.5Q881 574 876.0 560.5Q871 547 855 546Q835 545 826.5 559.5Q818 574 814.0 593.5Q810 613 804.5 628.0Q799 643 786 644Q777 644 772.5 634.5Q768 625 764.0 613.0Q760 601 753.5 592.5Q747 584 736 586Q723 589 717.5 599.0Q712 609 708.5 621.5Q705 634 700.5 644.0Q696 654 686 656Q676 659 670.5 652.0Q665 645 659 638Q651 630 644.5 624.0Q638 618 637 620Q637 622 639.0 644.0Q641 666 647.0 697.5Q653 729 665.0 760.5Q677 792 697.0 813.5Q717 835 746 836Z" fill="#df9047" stroke="none" transform="scale(1,-1) translate(0,-256)" /></svg>