<?xml version="1.0" encoding="utf-8" ?>
<svg baseProfile="full" height="256" version="1.1" width="256" xmlns="http://www.w3.org/2000/svg" xmlns:ev="http://www.w3.org/2001/xml-events" xmlns:xlink="http://www.w3.org/1999/xlink"><defs /><path d="M369 808 437 764Q437 764 455.0 775.0Q473 786 498.0 798.0Q523 810 546.0 813.5Q569 817 580 803Q594 785 587.0 769.5Q580 754 565.0 742.5Q550 731 536.5 724.5Q523 718 523 718Q523 718 522.0 697.5Q521 677 517.5 649.0Q514 621 507 599Q500 579 484.5 561.0Q469 543 453.0 531.5Q437 520 428 518Q420 517 400.0 517.0Q380 517 344 525Q327 529 305.0 537.5Q283 546 263.0 555.0Q243 564 230.5 570.5Q218 577 218 577Q218 577 201.5 567.5Q185 558 160.5 551.5Q136 545 113 554Q84 566 79.5 605.5Q75 645 93 688Q105 717 129.0 730.5Q153 744 176.0 748.0Q199 752 207 753Q220 753 228.5 757.5Q237 762 247 768Q253 771 272.0 777.5Q291 784 313.5 791.0Q336 798 352.5 803.0Q369 808 369 808Z" fill="#f6b03e" stroke="none" transform="scale(1,-1) translate(0,-256)" /><path d="M391 435Q344 436 320.0 448.0Q296 460 296 460Q296 460 295.0 442.0Q294 424 296.0 393.5Q298 363 307.5 325.5Q317 288 339 250Q369 200 407.0 172.5Q445 145 485.0 134.5Q525 124 560 123Q612 122 639.0 122.5Q666 123 666 123Q666 123 669.0 107.0Q672 91 675.0 69.0Q678 47 680.5 28.5Q683 10 682 5Q681 -5 679.0 -18.5Q677 -32 673 -46Q670 -56 665.5 -72.0Q661 -88 657.5 -101.0Q654 -114 654 -114Q654 -114 642.5 -125.0Q631 -136 622.5 -150.5Q614 -165 624 -175Q632 -184 654.0 -186.5Q676 -189 699.0 -187.5Q722 -186 732 -185Q746 -182 752.0 -165.5Q758 -149 760.5 -129.0Q763 -109 765 -95Q768 -75 776.0 -50.5Q784 -26 785 -7Q786 2 785.5 21.0Q785 40 784.0 59.5Q783 79 782.0 93.0Q781 107 781 107Q781 107 807.5 107.5Q834 108 878 111Q923 114 950.0 127.0Q977 140 977 140Q977 140 983.0 122.5Q989 105 997.5 80.5Q1006 56 1012.5 36.0Q1019 16 1019 12Q1019 8 1015.5 -7.5Q1012 -23 1008.0 -41.0Q1004 -59 1000.5 -72.0Q997 -85 996 -85Q995 -85 986.0 -95.0Q977 -105 967.5 -119.0Q958 -133 957 -146Q956 -164 972.5 -169.5Q989 -175 1010 -175Q1041 -174 1055.0 -170.5Q1069 -167 1077 -158Q1085 -149 1087.0 -136.5Q1089 -124 1088.0 -115.0Q1087 -106 1087 -106Q1087 -106 1091.0 -90.5Q1095 -75 1100.5 -53.5Q1106 -32 1110.0 -13.0Q1114 6 1115 14Q1115 22 1110.5 41.0Q1106 60 1100.5 81.5Q1095 103 1091.0 118.5Q1087 134 1087 134Q1087 134 1089.5 143.5Q1092 153 1095.5 165.5Q1099 178 1101 187Q1106 207 1107.0 227.0Q1108 247 1107.5 261.0Q1107 275 1107 275Q1107 275 1113.0 255.5Q1119 236 1127.5 213.0Q1136 190 1142 179Q1150 162 1167.5 147.0Q1185 132 1195 139Q1202 144 1199.0 153.0Q1196 162 1189.5 171.5Q1183 181 1180 187Q1175 197 1170.5 228.0Q1166 259 1164 284Q1163 298 1159.0 323.5Q1155 349 1148.5 378.5Q1142 408 1133 433Q1123 458 1106.5 476.5Q1090 495 1076.0 505.0Q1062 515 1062 515Q1062 515 1062.0 526.5Q1062 538 1061.0 552.5Q1060 567 1059 574Q1055 599 1054.0 616.5Q1053 634 1048 657Q1045 669 1032.0 683.0Q1019 697 1003.0 710.0Q987 723 975.5 731.5Q964 740 964 740L872 685L763 733Q763 733 745.5 721.5Q728 710 704.0 693.0Q680 676 661.0 659.5Q642 643 639 634Q636 625 635.5 605.5Q635 586 635.0 564.0Q635 542 636.0 526.5Q637 511 637 511Q637 511 625.5 503.5Q614 496 598 472Q587 456 583.0 439.0Q579 422 578.0 410.0Q577 398 577 398Q577 398 564.5 394.5Q552 391 535.5 392.5Q519 394 508 408Q500 419 496.5 439.0Q493 459 492.5 475.5Q492 492 492 492Q492 492 476.5 477.5Q461 463 437.5 449.0Q414 435 391 435Z" fill="#f6b03e" stroke="none" transform="scale(1,-1) translate(0,-256)" /></svg>