<?xml version="1.0" encoding="utf-8" ?>
<svg baseProfile="full" height="256" version="1.1" width="256" xmlns="http://www.w3.org/2000/svg" xmlns:ev="http://www.w3.org/2001/xml-events" xmlns:xlink="http://www.w3.org/1999/xlink"><defs /><path d="M207 609 445 715 588 787Q588 787 591.0 778.0Q594 769 591 750Q589 738 578.5 726.5Q568 715 558.5 708.0Q549 701 549 701Q549 701 550.0 685.0Q551 669 544 639Q538 610 521.5 584.0Q505 558 499 548Q495 540 493.5 523.5Q492 507 491.5 492.5Q491 478 491 478L444 404L381 387Q381 387 368.5 394.5Q356 402 339.0 412.0Q322 422 309.0 431.5Q296 441 296 446Q295 452 296.0 469.0Q297 486 298.0 501.5Q299 517 299 517Q299 517 285.5 523.0Q272 529 260 536Q248 542 233.0 552.0Q218 562 218 562Q218 562 210.5 558.0Q203 554 197 553Q175 548 159.5 549.5Q144 551 144 551Z" fill="#e09147" stroke="none" transform="scale(1,-1) translate(0,-256)" /></svg>