<?xml version="1.0" encoding="utf-8" ?>
<svg baseProfile="full" height="256" version="1.1" width="256" xmlns="http://www.w3.org/2000/svg" xmlns:ev="http://www.w3.org/2001/xml-events" xmlns:xlink="http://www.w3.org/1999/xlink"><defs /><path d="M509.0 -50.125 755.0 -54.125Q755.0 -54.125 754.5 -29.125Q754.0 -4.125 754.0 33.875Q754.0 71.875 754.0 113.875Q754.0 155.875 753.0 190.875Q752.0 225.875 752.0 242.875Q749.0 285.875 719.0 315.375Q689.0 344.875 629.0 346.875Q598.0 347.875 571.0 333.375Q544.0 318.875 527.0 293.875Q510.0 268.875 509.0 239.875Q509.0 221.875 509.0 187.375Q509.0 152.875 509.0 112.375Q509.0 71.875 509.0 34.375Q509.0 -3.125 509.0 -26.625Q509.0 -50.125 509.0 -50.125Z" fill="#d27857" stroke="none" transform="scale(1,-1) translate(0,-256)" /><path d="M694.0 137.875 569.0 138.875Q568.0 168.875 568.0 192.875Q568.0 216.875 569.0 224.875Q569.0 247.875 587.0 264.375Q605.0 280.875 629.0 279.875Q660.0 278.875 675.5 263.375Q691.0 247.875 693.0 225.875Q693.0 217.875 693.5 193.375Q694.0 168.875 694.0 137.875Z" fill="#d27857" stroke="none" transform="scale(1,-1) translate(0,-256)" /><path d="M569.0 92.875 694.0 91.875Q694.0 50.875 694.0 19.375Q694.0 -12.125 694.0 -12.125H570.0Q570.0 -12.125 569.5 19.875Q569.0 51.875 569.0 92.875Z" fill="#d27857" stroke="none" transform="scale(1,-1) translate(0,-256)" /></svg>