<?xml version="1.0" encoding="utf-8" ?>
<svg baseProfile="full" height="256" version="1.1" width="256" xmlns="http://www.w3.org/2000/svg" xmlns:ev="http://www.w3.org/2001/xml-events" xmlns:xlink="http://www.w3.org/1999/xlink"><defs /><path d="M638 206Q587 206 547.5 191.5Q508 177 481.5 156.5Q455 136 444 119Q431 102 440 83Q446 70 460 71Q465 71 470 73Q552 97 638 97Q724 97 806 73Q811 72 816 72Q830 71 836 84Q845 103 832 120Q821 137 794.5 157.0Q768 177 728.0 191.5Q688 206 638 206Z" fill="#422b0d" stroke="none" transform="scale(1,-1) translate(0,-256)" /><path d="M319 512Q365 583 446 610H447Q454 612 458.0 618.0Q462 624 461 631Q459 637 453.5 641.0Q448 645 441 644Q413 641 388 629Q317 598 287 527Q283 517 289.0 510.5Q295 504 304.0 504.0Q313 504 319 512Z" fill="#422b0d" stroke="none" transform="scale(1,-1) translate(0,-256)" /><path d="M950 512Q903 584 822 610H821Q814 612 810.0 618.0Q806 624 807 631Q809 637 814.5 641.0Q820 645 827 644Q855 641 880 629Q951 598 981 527Q985 517 979.5 510.5Q974 504 964.5 504.0Q955 504 950 512Z" fill="#422b0d" stroke="none" transform="scale(1,-1) translate(0,-256)" /><path d="M456.281005859375 510.125Q485.281005859375 510.125 508.281005859375 486.625Q531.281005859375 463.125 531.281005859375 422.125Q531.281005859375 380.125 508.281005859375 356.625Q485.281005859375 333.125 456.281005859375 333.125Q427.281005859375 333.125 404.281005859375 356.625Q381.281005859375 380.125 381.281005859375 422.125Q381.281005859375 463.125 404.281005859375 486.625Q427.281005859375 510.125 456.281005859375 510.125Z" fill="#422b0d" stroke="none" transform="scale(1,-1) translate(0,-256)" /><path d="M816 510Q845 510 868.0 486.5Q891 463 891 422Q891 380 868.0 356.5Q845 333 816 333Q786 333 763.5 356.5Q741 380 741 422Q741 463 763.5 486.5Q786 510 816 510Z" fill="#422b0d" stroke="none" transform="scale(1,-1) translate(0,-256)" /></svg>