<?xml version="1.0" encoding="utf-8" ?>
<svg baseProfile="full" height="256" version="1.1" width="256" xmlns="http://www.w3.org/2000/svg" xmlns:ev="http://www.w3.org/2001/xml-events" xmlns:xlink="http://www.w3.org/1999/xlink"><defs /><path d="M452.906005859375 472.75Q466.906005859375 459.75 457.906005859375 441.75Q452.906005859375 431.75 442.906005859375 428.25Q432.906005859375 424.75 422.906005859375 429.75Q408.906005859375 442.75 416.906005859375 460.75Q421.906005859375 470.75 432.406005859375 474.25Q442.906005859375 477.75 452.906005859375 472.75Z" fill="#896024" stroke="none" transform="scale(1,-1) translate(0,-256)" /><path d="M812.4380035400391 472.75Q826.4380035400391 459.75 817.4380035400391 441.75Q812.4380035400391 431.75 802.4380035400391 428.25Q792.4380035400391 424.75 782.4380035400391 429.75Q768.4380035400391 442.75 776.4380035400391 460.75Q781.4380035400391 470.75 791.9380035400391 474.25Q802.4380035400391 477.75 812.4380035400391 472.75Z" fill="#896024" stroke="none" transform="scale(1,-1) translate(0,-256)" /></svg>