<?xml version="1.0" encoding="utf-8" ?>
<svg baseProfile="full" height="256" version="1.1" width="256" xmlns="http://www.w3.org/2000/svg" xmlns:ev="http://www.w3.org/2001/xml-events" xmlns:xlink="http://www.w3.org/1999/xlink"><defs /><path d="M600 236Q655 213 688 163L885 -106Q907 -141 907.5 -164.5Q908 -188 901.0 -200.0Q894 -212 894 -212L572 248Z" fill="#b9e4ea" stroke="none" transform="scale(1,-1) translate(0,-256)" /><path d="M680.17822265625 360.64683532714844Q680.17822265625 369.46641540527344 676.8708801269531 377.1835479736328Q673.5635375976562 384.9006805419922 667.6985168457031 390.7657012939453Q661.83349609375 396.63072204589844 654.1163635253906 399.9380645751953Q646.3992309570312 403.2454071044922 637.491455078125 403.2454071044922Q628.671875 403.2454071044922 620.9547424316406 399.9380645751953Q613.2376098632812 396.63072204589844 607.3725891113281 390.7657012939453Q601.507568359375 384.9006805419922 598.2002258300781 377.1835479736328Q594.8928833007812 369.46641540527344 594.8928833007812 360.64683532714844Q594.8928833007812 351.7390594482422 598.2002258300781 344.0219268798828Q601.507568359375 336.30479431152344 607.3725891113281 330.4397735595703Q613.2376098632812 324.5747528076172 620.9547424316406 321.2674102783203Q628.671875 317.96006774902344 637.491455078125 317.96006774902344Q646.3992309570312 317.96006774902344 654.1163635253906 321.2674102783203Q661.83349609375 324.5747528076172 667.6985168457031 330.4397735595703Q673.5635375976562 336.30479431152344 676.8708801269531 344.0219268798828Q680.17822265625 351.7390594482422 680.17822265625 360.64683532714844Z" fill="#b9e4ea" stroke="none" transform="scale(1,-1) translate(0,-256)" /></svg>