<?xml version="1.0" encoding="utf-8" ?>
<svg baseProfile="full" height="256" version="1.1" width="256" xmlns="http://www.w3.org/2000/svg" xmlns:ev="http://www.w3.org/2001/xml-events" xmlns:xlink="http://www.w3.org/1999/xlink"><defs /><path d="M381 -212Q381 -212 369.0 -205.5Q357 -199 344.5 -189.0Q332 -179 329 -170Q324 -154 326.5 -128.0Q329 -102 350 -49Q356 -32 371.5 8.0Q387 48 407.5 101.0Q428 154 449.0 209.5Q470 265 488.5 312.5Q507 360 518.0 389.5Q529 419 529 419Q533 428 542 434Q549 439 575.0 456.5Q601 474 635.5 497.5Q670 521 704.0 544.5Q738 568 761 584L836 438Z" fill="#82aec0" stroke="none" transform="scale(1,-1) translate(0,-256)" /><path d="M894 -212Q894 -212 906.0 -205.5Q918 -199 930.5 -189.0Q943 -179 946 -170Q951 -154 948.5 -128.0Q946 -102 925 -49Q919 -32 903.5 8.0Q888 48 867.5 101.0Q847 154 826.0 209.5Q805 265 786.5 313.0Q768 361 757.0 390.0Q746 419 746 419Q742 429 733 434Q726 439 699.5 457.0Q673 475 638.0 499.0Q603 523 568.5 546.5Q534 570 511 586L439 438Z" fill="#82aec0" stroke="none" transform="scale(1,-1) translate(0,-256)" /></svg>