<?xml version="1.0" encoding="utf-8" ?>
<svg baseProfile="full" height="256" version="1.1" width="256" xmlns="http://www.w3.org/2000/svg" xmlns:ev="http://www.w3.org/2001/xml-events" xmlns:xlink="http://www.w3.org/1999/xlink"><defs /><path d="M124 311Q123 362 138.0 399.0Q153 436 173.0 459.5Q193 483 208.5 494.5Q224 506 224 506Q224 506 230.0 523.0Q236 540 255.5 566.0Q275 592 314.5 619.5Q354 647 420.0 669.0Q486 691 586 699Q675 706 744.0 694.5Q813 683 863.5 661.5Q914 640 947.0 617.5Q980 595 996.0 579.0Q1012 563 1012 563Q1012 563 1027.5 558.0Q1043 553 1066.5 540.0Q1090 527 1114.0 503.5Q1138 480 1155.0 443.5Q1172 407 1174 354Q1176 285 1139.5 217.5Q1103 150 1033.5 94.5Q964 39 866.5 5.5Q769 -28 651 -28Q533 -28 436.5 0.5Q340 29 270.5 77.0Q201 125 163.0 185.5Q125 246 124 311Z" fill="#f4b54c" stroke="none" transform="scale(1,-1) translate(0,-256)" /></svg>