<?xml version="1.0" encoding="utf-8" ?>
<svg baseProfile="full" height="256" version="1.1" width="256" xmlns="http://www.w3.org/2000/svg" xmlns:ev="http://www.w3.org/2001/xml-events" xmlns:xlink="http://www.w3.org/1999/xlink"><defs /><path d="M642 -121Q491 -121 381.0 -87.5Q271 -54 200.5 3.5Q130 61 99.5 135.0Q69 209 77 290Q84 366 123.5 420.0Q163 474 224.5 510.0Q286 546 359.0 567.0Q432 588 508.0 596.5Q584 605 653 605Q721 605 796.5 594.5Q872 584 943.5 561.5Q1015 539 1073.0 503.0Q1131 467 1167.0 416.0Q1203 365 1206 297Q1210 178 1147.5 83.5Q1085 -11 957.5 -66.0Q830 -121 642 -121Z" fill="#d4d4d4" stroke="none" transform="scale(1,-1) translate(0,-256)" /></svg>