<?xml version="1.0" encoding="utf-8" ?>
<svg baseProfile="full" height="256" version="1.1" width="256" xmlns="http://www.w3.org/2000/svg" xmlns:ev="http://www.w3.org/2001/xml-events" xmlns:xlink="http://www.w3.org/1999/xlink"><defs /><path d="M704 350 631 378 508 448 338 515 182 540H110L84 514L115 427L236 230L315 144L412 147L487 175L397 60L389 -10L421 -63L473 -103L560 -126L627 -125L674 -97L693 -60L699 -34L703 3L685 120L735 147L787 120L812 33L849 -25L866 -45L942 -63L991 -45L1070 19L1097 93V149L1066 192L1014 233L942 266L1012 276L1081 314L1110 362L1156 559L1185 692L1168 718L1100 717L973 658L846 565L748 439Z" fill="#41484a" stroke="none" transform="scale(1,-1) translate(0,-256)" /><path d="M716 400Q711 392 696.0 388.0Q681 384 681 384Q681 384 670.5 382.0Q660 380 645.0 382.0Q630 384 615.5 393.0Q601 402 594 425Q583 458 589.5 479.0Q596 500 612.0 511.0Q628 522 642 525Q670 531 698.0 518.5Q726 506 730 466Q733 430 727.5 418.5Q722 407 716 400Z" fill="#41484a" stroke="none" transform="scale(1,-1) translate(0,-256)" /><path d="M726 176Q712 174 702.5 175.5Q693 177 693 177L705 128Q705 128 714.5 127.0Q724 126 738 129Q751 132 757.5 136.5Q764 141 764 141L753 191Q753 191 746.0 185.0Q739 179 726 176Z" fill="#41484a" stroke="none" transform="scale(1,-1) translate(0,-256)" /><path d="M673 266 681 229Q681 229 692.0 229.5Q703 230 712 232Q722 234 731.0 238.5Q740 243 740 243L732 282Z" fill="#41484a" stroke="none" transform="scale(1,-1) translate(0,-256)" /><path d="M715 83 727 40Q726 40 736.5 39.5Q747 39 757 41Q767 43 776.0 48.0Q785 53 785 53L775 97Q775 97 767.0 92.0Q759 87 747 84Q736 82 725.5 82.5Q715 83 715 83Z" fill="#41484a" stroke="none" transform="scale(1,-1) translate(0,-256)" /></svg>