<?xml version="1.0" encoding="utf-8" ?>
<svg baseProfile="full" height="256" version="1.1" width="256" xmlns="http://www.w3.org/2000/svg" xmlns:ev="http://www.w3.org/2001/xml-events" xmlns:xlink="http://www.w3.org/1999/xlink"><defs /><path d="M666 516 688 508Q688 508 691.5 533.5Q695 559 700.0 594.5Q705 630 712 660Q718 685 728.5 701.5Q739 718 748.0 726.5Q757 735 757 735Q757 735 773.0 733.0Q789 731 807 740Q820 747 824.5 757.5Q829 768 823.0 775.5Q817 783 796 780Q766 777 734.0 745.0Q702 713 690 668Q685 652 680.5 627.0Q676 602 673.0 576.5Q670 551 668.0 533.5Q666 516 666 516Z" fill="#676f72" stroke="none" transform="scale(1,-1) translate(0,-256)" /><path d="M630 509 610 481 606 495Q606 495 597.0 512.5Q588 530 574.5 555.0Q561 580 546.0 604.0Q531 628 520 641Q500 665 477.5 676.5Q455 688 455 688Q455 688 447.0 681.5Q439 675 424 672Q410 669 392.0 673.5Q374 678 374 695Q374 704 383.0 709.0Q392 714 403.0 716.0Q414 718 418 718Q423 717 442.0 714.0Q461 711 486.5 698.5Q512 686 537 658Q561 629 582.0 594.0Q603 559 616.5 534.0Q630 509 630 509Z" fill="#676f72" stroke="none" transform="scale(1,-1) translate(0,-256)" /><path d="M637 384Q637 384 639.5 378.5Q642 373 642.5 367.5Q643 362 638 362Q633 362 614.0 372.5Q595 383 567.5 399.5Q540 416 507.0 433.0Q474 450 442 464Q378 490 328.0 506.0Q278 522 227 528Q175 534 143.5 529.0Q112 524 110 505Q108 494 115.5 472.0Q123 450 135.5 424.5Q148 399 162.0 375.0Q176 351 187 336Q198 321 216.0 292.5Q234 264 255.0 234.0Q276 204 296.0 182.0Q316 160 331 156Q358 150 387.5 154.5Q417 159 444.5 169.0Q472 179 492.5 189.0Q513 199 521 205Q530 210 553.5 223.0Q577 236 604.5 250.5Q632 265 653.0 275.5Q674 286 678 287Q684 287 684.0 281.5Q684 276 683.0 269.5Q682 263 682 263Q682 263 660.5 253.0Q639 243 609.5 228.5Q580 214 554.0 200.0Q528 186 517 179Q497 164 473.0 136.5Q449 109 434 88Q419 66 408.5 45.5Q398 25 405 0Q409 -13 421.5 -19.5Q434 -26 441 -37Q445 -44 443.0 -50.0Q441 -56 440.5 -62.5Q440 -69 451 -79Q458 -84 465.0 -82.0Q472 -80 480.5 -78.5Q489 -77 500 -83Q511 -89 515.0 -95.5Q519 -102 522.5 -107.0Q526 -112 537 -112Q551 -112 557.0 -107.0Q563 -102 568.5 -97.5Q574 -93 587 -95Q600 -96 606.0 -100.5Q612 -105 618.0 -108.5Q624 -112 639 -109Q657 -106 670.5 -87.5Q684 -69 691.5 -51.5Q699 -34 699 -34Q699 -34 699.0 -48.5Q699 -63 692 -80Q679 -110 655.0 -122.5Q631 -135 601.5 -136.0Q572 -137 541.0 -130.5Q510 -124 483 -114Q375 -77 381 22Q383 46 394.0 68.5Q405 91 418.5 108.5Q432 126 442.5 136.5Q453 147 453 147Q453 147 433.0 140.0Q413 133 383.0 128.5Q353 124 325 131Q286 140 268.0 165.0Q250 190 232 215Q222 230 204.0 258.5Q186 287 166.0 319.0Q146 351 129.0 378.5Q112 406 104 420Q96 435 88.5 454.5Q81 474 77.0 491.0Q73 508 75 516Q77 524 85.0 532.5Q93 541 114.5 547.0Q136 553 179 553Q245 554 318.5 534.0Q392 514 474 479Q556 445 596.5 414.5Q637 384 637 384Z" fill="#676f72" stroke="none" transform="scale(1,-1) translate(0,-256)" /><path d="M718 369Q718 369 731.5 385.5Q745 402 758 428Q766 445 787.0 475.5Q808 506 839.0 541.0Q870 576 910 607Q939 629 977.5 650.0Q1016 671 1053.5 686.5Q1091 702 1120.0 709.0Q1149 716 1160 710Q1171 705 1169.0 679.5Q1167 654 1159.5 621.0Q1152 588 1144.0 559.0Q1136 530 1134 518Q1132 505 1128.5 478.5Q1125 452 1117.5 420.0Q1110 388 1097.0 359.0Q1084 330 1062 313Q1041 296 1008.5 290.0Q976 284 938.5 283.5Q901 283 864.0 285.5Q827 288 797 289Q767 290 747.5 291.5Q728 293 720 295Q716 295 720.0 284.5Q724 274 724 274Q724 274 741.0 273.0Q758 272 782.5 269.5Q807 267 831.5 264.5Q856 262 871 259Q902 253 937.5 244.0Q973 235 1008 218Q1031 207 1050.0 190.0Q1069 173 1080.5 156.5Q1092 140 1093 130Q1094 115 1088.0 109.5Q1082 104 1078 94Q1074 84 1077.5 70.5Q1081 57 1073 47Q1068 39 1061.0 39.5Q1054 40 1046.5 40.0Q1039 40 1033 32Q1027 24 1027.0 16.5Q1027 9 1026.5 1.5Q1026 -6 1017 -14Q1009 -22 1000.0 -17.5Q991 -13 981.0 -7.5Q971 -2 959 -9Q948 -16 946.5 -24.5Q945 -33 943.5 -40.5Q942 -48 930 -51Q918 -54 898.5 -47.5Q879 -41 863.5 -33.0Q848 -25 848 -25Q848 -25 855.0 -37.0Q862 -49 879.0 -61.5Q896 -74 928 -75Q958 -76 991.5 -58.5Q1025 -41 1053.5 -12.0Q1082 17 1098.5 52.5Q1115 88 1112 123Q1110 152 1091.0 176.5Q1072 201 1047.5 219.0Q1023 237 1004.5 247.5Q986 258 986 258Q986 258 1006.0 263.0Q1026 268 1052.0 280.0Q1078 292 1095 312Q1112 331 1123.5 361.5Q1135 392 1142.0 424.5Q1149 457 1153.5 484.5Q1158 512 1161 527Q1165 544 1174.0 573.0Q1183 602 1190.0 634.5Q1197 667 1195.0 694.5Q1193 722 1176 734Q1162 744 1132.0 738.5Q1102 733 1064.0 717.0Q1026 701 987.0 680.5Q948 660 915.5 638.5Q883 617 864 601Q834 574 806.0 539.0Q778 504 756.5 473.0Q735 442 726 426Q712 402 715.0 385.5Q718 369 718 369Z" fill="#676f72" stroke="none" transform="scale(1,-1) translate(0,-256)" /><path d="M732 282Q732 282 735.0 268.5Q738 255 742.0 235.5Q746 216 750.5 198.0Q755 180 757 171Q759 164 766.0 135.5Q773 107 781.0 70.0Q789 33 794.5 -3.5Q800 -40 799.5 -65.0Q799 -90 788 -91Q777 -93 765.5 -71.5Q754 -50 743.0 -15.5Q732 19 722.5 55.0Q713 91 706.5 119.5Q700 148 698 157Q695 168 691.0 186.0Q687 204 683.0 222.5Q679 241 676.0 253.5Q673 266 673 266Z" fill="#676f72" stroke="none" transform="scale(1,-1) translate(0,-256)" /></svg>