<?xml version="1.0" encoding="utf-8" ?>
<svg baseProfile="full" height="256" version="1.1" width="256" xmlns="http://www.w3.org/2000/svg" xmlns:ev="http://www.w3.org/2001/xml-events" xmlns:xlink="http://www.w3.org/1999/xlink"><defs /><path d="M552 72Q560 68 559.0 54.0Q558 40 551.5 23.5Q545 7 536.0 -6.5Q527 -20 519 -22Q502 -27 494.0 -13.5Q486 0 486 11Q486 22 499.0 38.0Q512 54 527.5 65.0Q543 76 552 72Z" fill="#ff8b03" stroke="none" transform="scale(1,-1) translate(0,-256)" /><path d="M463 72Q453 81 455.0 96.0Q457 111 464.5 126.5Q472 142 479.0 152.5Q486 163 486 163Q486 163 496.0 170.0Q506 177 519.5 186.5Q533 196 544.0 204.0Q555 212 557 213Q560 214 558.0 195.0Q556 176 550.0 152.0Q544 128 534 114Q527 102 514.0 88.5Q501 75 487.5 68.5Q474 62 463 72Z" fill="#ff8b03" stroke="none" transform="scale(1,-1) translate(0,-256)" /><path d="M564 -18Q564 11 577.5 29.5Q591 48 610 45Q629 42 637.5 21.0Q646 0 648 -18Q650 -34 637.0 -43.0Q624 -52 614 -54Q595 -57 579.5 -46.0Q564 -35 564 -18Z" fill="#ff8b03" stroke="none" transform="scale(1,-1) translate(0,-256)" /><path d="M703 163Q703 163 704.0 152.0Q705 141 706.0 125.5Q707 110 707 98Q707 87 706.0 64.0Q705 41 704.0 22.0Q703 3 703 3Q703 3 701.0 -5.5Q699 -14 693.5 -21.0Q688 -28 678 -25Q664 -20 659.0 -1.0Q654 18 655.0 39.0Q656 60 661 73Q664 80 670.5 94.5Q677 109 684.5 125.0Q692 141 697.5 152.0Q703 163 703 163Z" fill="#ff8b03" stroke="none" transform="scale(1,-1) translate(0,-256)" /><path d="M730 246 722 279Q722 279 736.5 278.5Q751 278 770.5 277.0Q790 276 807.0 274.5Q824 273 828 270Q831 267 844.5 255.0Q858 243 875.5 225.5Q893 208 906.5 189.5Q920 171 924.0 155.0Q928 139 915 130Q892 115 873.5 119.0Q855 123 840.5 135.0Q826 147 816 155Q808 160 794.0 174.5Q780 189 765.5 205.5Q751 222 740.5 234.0Q730 246 730 246Z" fill="#ff8b03" stroke="none" transform="scale(1,-1) translate(0,-256)" /><path d="M754 172Q754 172 757.5 161.0Q761 150 765.5 137.0Q770 124 773 118Q780 102 789.5 81.5Q799 61 807.0 45.0Q815 29 818 25Q823 20 834.5 10.0Q846 0 857 6Q869 13 866.5 28.0Q864 43 860 54Q853 75 838.5 90.5Q824 106 809 120Q804 125 790.5 137.5Q777 150 765.5 161.0Q754 172 754 172Z" fill="#ff8b03" stroke="none" transform="scale(1,-1) translate(0,-256)" /><path d="M888 93Q897 104 909.5 101.0Q922 98 934.5 87.0Q947 76 955.0 64.5Q963 53 963 48Q963 41 954.0 31.0Q945 21 932.0 16.5Q919 12 905 20Q898 25 892.0 39.5Q886 54 884.5 70.0Q883 86 888 93Z" fill="#ff8b03" stroke="none" transform="scale(1,-1) translate(0,-256)" /><path d="M871 275 957 252Q957 252 970.5 244.0Q984 236 1000.0 223.0Q1016 210 1025.5 194.5Q1035 179 1027 165Q1020 153 1002.5 152.0Q985 151 961 165Q949 172 933.5 189.5Q918 207 904.0 227.0Q890 247 880.5 261.0Q871 275 871 275Z" fill="#ff8b03" stroke="none" transform="scale(1,-1) translate(0,-256)" /><path d="M944 132Q949 143 961.0 143.5Q973 144 986.0 137.5Q999 131 1009.0 122.5Q1019 114 1020 107Q1021 99 1014.5 82.0Q1008 65 991 65Q980 65 967.5 78.5Q955 92 947.5 108.0Q940 124 944 132Z" fill="#ff8b03" stroke="none" transform="scale(1,-1) translate(0,-256)" /><path d="M615 243 692 269 702 233Q702 233 694.5 204.0Q687 175 661 127Q635 78 609.5 71.5Q584 65 573 94Q566 112 571.5 137.5Q577 163 587.0 187.0Q597 211 606.0 227.0Q615 243 615 243Z" fill="#ff8b03" stroke="none" transform="scale(1,-1) translate(0,-256)" /><path d="M930 542Q944 537 943.0 523.5Q942 510 933.0 494.5Q924 479 912.0 465.5Q900 452 891 445Q885 440 870.0 427.0Q855 414 836.5 399.5Q818 385 803.0 377.0Q788 369 781 374Q769 385 782.0 413.0Q795 441 824 482Q881 563 930 542Z" fill="#ff8b03" stroke="none" transform="scale(1,-1) translate(0,-256)" /><path d="M864 388Q835 371 819.5 352.5Q804 334 805 329Q807 320 823.0 319.5Q839 319 859 320Q881 320 909.5 321.0Q938 322 963.5 325.0Q989 328 1004 333Q1026 341 1034.0 352.5Q1042 364 1041 382Q1040 391 1020.5 394.0Q1001 397 984 396Q966 395 942.5 395.5Q919 396 897.0 395.0Q875 394 864 388Z" fill="#ff8b03" stroke="none" transform="scale(1,-1) translate(0,-256)" /><path d="M968 491Q959 493 961.5 505.0Q964 517 971.5 530.0Q979 543 985 548Q994 555 1011.5 558.0Q1029 561 1046.0 560.5Q1063 560 1072 556Q1080 552 1082.0 541.0Q1084 530 1080.5 519.0Q1077 508 1072 504Q1062 497 1041.5 493.5Q1021 490 999.5 490.0Q978 490 968 491Z" fill="#ff8b03" stroke="none" transform="scale(1,-1) translate(0,-256)" /><path d="M1064 657Q1066 670 1081.5 678.0Q1097 686 1113.0 687.0Q1129 688 1134 681Q1141 672 1130.5 658.0Q1120 644 1109 641Q1101 639 1090.0 638.5Q1079 638 1070.5 642.0Q1062 646 1064 657Z" fill="#ff8b03" stroke="none" transform="scale(1,-1) translate(0,-256)" /><path d="M1040 606Q1040 622 1065 627Q1079 629 1089.0 624.5Q1099 620 1099 608Q1099 599 1091.0 592.0Q1083 585 1070 585Q1057 585 1048.5 589.5Q1040 594 1040 606Z" fill="#ff8b03" stroke="none" transform="scale(1,-1) translate(0,-256)" /><path d="M922 424Q922 430 928.5 441.5Q935 453 941 457Q949 463 966.5 466.0Q984 469 1004.0 470.0Q1024 471 1037 470Q1058 470 1061.5 461.5Q1065 453 1061 440Q1057 427 1045.5 421.5Q1034 416 1000 416Q965 416 943.5 415.5Q922 415 922 424Z" fill="#ff8b03" stroke="none" transform="scale(1,-1) translate(0,-256)" /><path d="M311 241Q311 249 325.5 258.5Q340 268 365 282Q395 298 423.5 305.0Q452 312 488 308Q523 305 546.5 300.0Q570 295 570 283Q570 272 552.0 263.0Q534 254 511 243Q503 239 481.5 229.5Q460 220 433.0 211.0Q406 202 379 200Q340 197 324.5 211.5Q309 226 311 241Z" fill="#ff8b03" stroke="none" transform="scale(1,-1) translate(0,-256)" /><path d="M259 311Q259 316 270.5 323.5Q282 331 297.5 338.0Q313 345 326.5 349.5Q340 354 345 352Q355 350 365.5 338.0Q376 326 375 317Q374 312 363.0 304.0Q352 296 337.0 288.0Q322 280 308.5 274.0Q295 268 290 269Q280 269 268.5 285.5Q257 302 259 311Z" fill="#ff8b03" stroke="none" transform="scale(1,-1) translate(0,-256)" /><path d="M345 446Q353 454 375.5 450.0Q398 446 424.5 436.0Q451 426 471 416Q503 401 534.0 385.0Q565 369 583.0 355.0Q601 341 597 332Q593 325 578.5 325.0Q564 325 542 328Q528 331 501.5 334.0Q475 337 446.0 343.5Q417 350 394 362Q360 379 344.5 404.5Q329 430 345 446Z" fill="#ff8b03" stroke="none" transform="scale(1,-1) translate(0,-256)" /><path d="M138 489Q137 499 148.0 504.5Q159 510 174.0 511.0Q189 512 200.5 508.0Q212 504 212 495Q212 485 201.0 479.0Q190 473 175.5 472.0Q161 471 150.0 475.0Q139 479 138 489Z" fill="#ff8b03" stroke="none" transform="scale(1,-1) translate(0,-256)" /><path d="M184 427Q176 440 184.0 449.0Q192 458 205.0 459.0Q218 460 225 449Q233 437 224.0 429.0Q215 421 202.0 419.5Q189 418 184 427Z" fill="#ff8b03" stroke="none" transform="scale(1,-1) translate(0,-256)" /><path d="M233 354Q222 373 231.5 384.5Q241 396 253 403Q271 411 292.5 408.5Q314 406 318 392Q321 379 309.5 368.5Q298 358 287 353Q270 345 254.5 345.0Q239 345 233 354Z" fill="#ff8b03" stroke="none" transform="scale(1,-1) translate(0,-256)" /></svg>