<?xml version="1.0" encoding="utf-8" ?>
<svg baseProfile="full" height="256" version="1.1" width="256" xmlns="http://www.w3.org/2000/svg" xmlns:ev="http://www.w3.org/2001/xml-events" xmlns:xlink="http://www.w3.org/1999/xlink"><defs /><path d="M469 422Q475 426 498.0 409.0Q521 392 551 374Q565 366 584.0 356.0Q603 346 618.5 336.5Q634 327 636 322Q641 308 641.0 292.0Q641 276 636 277Q631 277 601.5 294.0Q572 311 538 333Q529 339 513.0 348.0Q497 357 483.5 366.5Q470 376 467 383Q465 389 462.5 403.0Q460 417 469 422Z" fill="#ffebc9" stroke="none" transform="scale(1,-1) translate(0,-256)" /></svg>