<?xml version="1.0" encoding="utf-8" ?>
<svg baseProfile="full" height="256" version="1.1" width="256" xmlns="http://www.w3.org/2000/svg" xmlns:ev="http://www.w3.org/2001/xml-events" xmlns:xlink="http://www.w3.org/1999/xlink"><defs /><path d="M1115 432 1159 484Q1159 484 1176.0 472.5Q1193 461 1201 437Q1202 430 1201.0 413.0Q1200 396 1197.0 375.5Q1194 355 1189.5 337.0Q1185 319 1181 311Q1168 290 1135.5 265.0Q1103 240 1076 218Q1065 209 1042.5 190.5Q1020 172 992.0 148.5Q964 125 934.5 101.5Q905 78 880.5 58.0Q856 38 842 26Q825 11 800.5 -9.5Q776 -30 752.0 -50.0Q728 -70 709.5 -85.0Q691 -100 684 -103Q667 -111 657.0 -108.5Q647 -106 647 -106L643 65Z" fill="#cf7120" stroke="none" transform="scale(1,-1) translate(0,-256)" /></svg>