<?xml version="1.0" encoding="utf-8" ?>
<svg baseProfile="full" height="256" version="1.1" width="256" xmlns="http://www.w3.org/2000/svg" xmlns:ev="http://www.w3.org/2001/xml-events" xmlns:xlink="http://www.w3.org/1999/xlink"><defs /><path d="M60 359Q61 373 69.5 376.5Q78 380 78 380Q78 380 90.5 366.0Q103 352 122.5 333.0Q142 314 163 299Q188 281 223.5 256.5Q259 232 294.0 209.5Q329 187 350 172Q361 165 386.5 149.0Q412 133 446.0 112.0Q480 91 516.0 69.5Q552 48 584.0 29.5Q616 11 637.0 -0.5Q658 -12 662 -12Q669 -12 690.5 4.0Q712 20 739.5 42.5Q767 65 791.5 85.5Q816 106 829 116Q839 124 862.5 142.5Q886 161 917.0 185.5Q948 210 979.5 235.0Q1011 260 1037.5 281.0Q1064 302 1078 312Q1095 326 1116.0 342.5Q1137 359 1155.5 374.0Q1174 389 1186.5 398.5Q1199 408 1199 408Q1199 408 1203.0 406.5Q1207 405 1210 398Q1212 391 1209.5 380.0Q1207 369 1199 361Q1195 358 1177.5 344.0Q1160 330 1134.5 310.0Q1109 290 1081.0 267.5Q1053 245 1027.0 224.5Q1001 204 984 190Q970 178 942.5 155.0Q915 132 880.0 103.5Q845 75 809.0 46.0Q773 17 741.5 -8.0Q710 -33 689.5 -48.5Q669 -64 665 -65Q658 -67 644.5 -59.0Q631 -51 615.5 -40.0Q600 -29 588 -21Q578 -15 549.5 3.0Q521 21 481.5 46.0Q442 71 400.0 97.5Q358 124 322 148Q274 180 228.5 209.5Q183 239 148.0 263.5Q113 288 95 304Q78 320 68.0 333.0Q58 346 60 359Z" fill="#e08016" stroke="none" transform="scale(1,-1) translate(0,-256)" /></svg>