<?xml version="1.0" encoding="utf-8" ?>
<svg baseProfile="full" height="256" version="1.1" width="256" xmlns="http://www.w3.org/2000/svg" xmlns:ev="http://www.w3.org/2001/xml-events" xmlns:xlink="http://www.w3.org/1999/xlink"><defs /><path d="M179 839Q178 841 170.0 842.5Q162 844 159 843Q151 841 146 830Q144 825 143.0 819.5Q142 814 144 810Q147 805 156.0 803.0Q165 801 172 803Q177 805 178.5 810.5Q180 816 181 822Q184 835 179 839Z" fill="#a65f3e" stroke="none" transform="scale(1,-1) translate(0,-256)" /><path d="M1007 780Q1002 785 997.0 785.0Q992 785 989 784Q981 781 973 773Q968 769 969.0 763.5Q970 758 972 756Q975 752 978.5 748.5Q982 745 987 744Q993 743 998.0 746.5Q1003 750 1007 753Q1010 756 1012.5 760.0Q1015 764 1014 768Q1013 773 1010.5 776.0Q1008 779 1007 780Z" fill="#a65f3e" stroke="none" transform="scale(1,-1) translate(0,-256)" /></svg>