<?xml version="1.0" encoding="utf-8" ?>
<svg baseProfile="full" height="256" version="1.1" width="256" xmlns="http://www.w3.org/2000/svg" xmlns:ev="http://www.w3.org/2001/xml-events" xmlns:xlink="http://www.w3.org/1999/xlink"><defs /><path d="M498 428Q491 427 472.0 419.5Q453 412 431.0 401.5Q409 391 391.0 381.0Q373 371 368 365Q382 355 397.0 338.5Q412 322 424 298Q447 302 470 312Q493 323 511 337Q502 361 499.5 385.5Q497 410 498 428Z" fill="#784d30" stroke="none" transform="scale(1,-1) translate(0,-256)" /><path d="M327 905Q266 924 208 896Q149 870 122 814Q132 795 168.0 795.0Q204 795 245 813Q286 832 310.0 858.5Q334 885 327 905Z" fill="#784d30" stroke="none" transform="scale(1,-1) translate(0,-256)" /><path d="M977 247Q971 251 952.0 258.5Q933 266 909.5 272.5Q886 279 866.0 283.5Q846 288 838 288Q841 271 841.5 248.5Q842 226 835 200Q855 188 879 180Q903 172 926 171Q935 195 950.0 214.5Q965 234 977 247Z" fill="#784d30" stroke="none" transform="scale(1,-1) translate(0,-256)" /><path d="M1169 716Q1154 742 1130.0 761.0Q1106 780 1075 789Q1013 809 956 786Q951 765 977.5 741.0Q1004 717 1047 703Q1090 689 1125.5 693.0Q1161 697 1169 716Z" fill="#784d30" stroke="none" transform="scale(1,-1) translate(0,-256)" /></svg>