<?xml version="1.0" encoding="utf-8" ?>
<svg baseProfile="full" height="256" version="1.1" width="256" xmlns="http://www.w3.org/2000/svg" xmlns:ev="http://www.w3.org/2001/xml-events" xmlns:xlink="http://www.w3.org/1999/xlink"><defs /><path d="M843 253 947 212Q940 202 933.5 189.0Q927 176 922 161Q915 138 911.0 118.5Q907 99 904.0 75.5Q901 52 896 16Q892 -23 887.0 -65.0Q882 -107 872 -136Q857 -183 826.0 -201.5Q795 -220 756 -208Q718 -195 703.5 -162.0Q689 -129 704 -82Q714 -52 734.0 -15.0Q754 22 773 56Q790 87 800.5 108.5Q811 130 818.0 148.5Q825 167 832 190Q838 208 840.5 223.5Q843 239 843 253Z" fill="#e6a467" stroke="none" transform="scale(1,-1) translate(0,-256)" /><path d="M677 73Q697 28 686.5 -6.5Q676 -41 638 -58Q601 -74 568.5 -59.0Q536 -44 516 0Q503 29 493.0 70.0Q483 111 474 150Q466 184 459.5 206.5Q453 229 446.0 247.5Q439 266 429 288Q418 312 404 330L501 371Q505 349 515 327Q525 305 535.0 288.0Q545 271 558.5 251.5Q572 232 593 203Q615 170 639.5 135.5Q664 101 677 73Z" fill="#e6a467" stroke="none" transform="scale(1,-1) translate(0,-256)" /></svg>