<?xml version="1.0" encoding="utf-8" ?>
<svg baseProfile="full" height="256" version="1.1" width="256" xmlns="http://www.w3.org/2000/svg" xmlns:ev="http://www.w3.org/2001/xml-events" xmlns:xlink="http://www.w3.org/1999/xlink"><defs /><path d="M349 134 433 149 505 203 571 310 659 309 724 206 854 127Q854 127 837.0 121.5Q820 116 793.0 113.5Q766 111 736 119Q707 127 689.0 144.5Q671 162 663.5 176.5Q656 191 656 191L587 218Q587 218 582.0 203.5Q577 189 564.5 169.5Q552 150 531.0 133.5Q510 117 477 114Q434 109 405.5 114.5Q377 120 363.0 127.0Q349 134 349 134Z" fill="#000202" stroke="none" transform="scale(1,-1) translate(0,-256)" /></svg>