<?xml version="1.0" encoding="utf-8" ?>
<svg baseProfile="full" height="256" version="1.1" width="256" xmlns="http://www.w3.org/2000/svg" xmlns:ev="http://www.w3.org/2001/xml-events" xmlns:xlink="http://www.w3.org/1999/xlink"><defs /><path d="M947 875Q947 879 962.5 887.0Q978 895 998.0 903.0Q1018 911 1035.5 916.0Q1053 921 1058 920Q1063 919 1073.0 898.0Q1083 877 1093.0 849.0Q1103 821 1111.0 796.0Q1119 771 1121 762Q1122 758 1123.5 744.5Q1125 731 1119.0 715.5Q1113 700 1092 691Q1068 680 1050.0 684.5Q1032 689 1021.5 699.0Q1011 709 1009 714Q1008 717 1001.0 732.0Q994 747 985.0 769.0Q976 791 966.5 813.5Q957 836 951.5 853.0Q946 870 947 875Z" fill="#7fdafb" stroke="none" transform="scale(1,-1) translate(0,-256)" /></svg>