<?xml version="1.0" encoding="utf-8" ?>
<svg baseProfile="full" height="256" version="1.1" width="256" xmlns="http://www.w3.org/2000/svg" xmlns:ev="http://www.w3.org/2001/xml-events" xmlns:xlink="http://www.w3.org/1999/xlink"><defs /><path d="M664 -86 653 -173Q653 -173 678.5 -168.5Q704 -164 745.5 -151.0Q787 -138 835.0 -112.5Q883 -87 928 -46Q979 0 1017.0 64.5Q1055 129 1080.5 200.0Q1106 271 1121.0 338.5Q1136 406 1140 457Q1148 544 1142.5 606.0Q1137 668 1128.5 700.5Q1120 733 1120 733L1043 707Q1043 707 1051.0 676.5Q1059 646 1065.0 595.5Q1071 545 1063 484Q1059 446 1047.0 387.5Q1035 329 1012.5 261.5Q990 194 953.5 128.5Q917 63 863 12Q827 -22 792.0 -41.5Q757 -61 728.0 -70.5Q699 -80 681.5 -83.0Q664 -86 664 -86Z" fill="#4485f6" stroke="none" transform="scale(1,-1) translate(0,-256)" /></svg>