<?xml version="1.0" encoding="utf-8" ?>
<svg baseProfile="full" height="256" version="1.1" width="256" xmlns="http://www.w3.org/2000/svg" xmlns:ev="http://www.w3.org/2001/xml-events" xmlns:xlink="http://www.w3.org/1999/xlink"><defs /><path d="M178 433 305 520 803 513 965 497Q965 497 978.0 482.0Q991 467 1008.0 449.0Q1025 431 1038.0 419.0Q1051 407 1051 412Q1051 420 1047.5 438.0Q1044 456 1037.0 476.5Q1030 497 1018 511Q1003 530 974.0 546.5Q945 563 910 563Q901 564 866.0 564.0Q831 564 779.0 564.0Q727 564 666.5 564.0Q606 564 546.0 564.0Q486 564 434.5 563.5Q383 563 349.0 562.5Q315 562 307 562Q281 560 259.0 552.5Q237 545 219 528Q203 514 194.0 491.5Q185 469 181.5 451.0Q178 433 178 433Z" fill="#4383f4" stroke="none" transform="scale(1,-1) translate(0,-256)" /></svg>