<?xml version="1.0" encoding="utf-8" ?>
<svg baseProfile="full" height="256" version="1.1" width="256" xmlns="http://www.w3.org/2000/svg" xmlns:ev="http://www.w3.org/2001/xml-events" xmlns:xlink="http://www.w3.org/1999/xlink"><defs /><path d="M927 550Q930 547 946.0 552.5Q962 558 985.5 564.5Q1009 571 1034.5 570.5Q1060 570 1083 554Q1107 538 1117.0 519.5Q1127 501 1130.5 486.5Q1134 472 1136 466Q1138 462 1150.0 452.5Q1162 443 1176.5 426.5Q1191 410 1201.0 386.5Q1211 363 1208 332Q1205 292 1189.0 264.0Q1173 236 1153.0 218.5Q1133 201 1118.5 193.5Q1104 186 1104 186Q1104 186 1100.5 169.5Q1097 153 1083.5 133.5Q1070 114 1040 104Q996 88 963.0 94.0Q930 100 906.5 114.0Q883 128 870.0 140.0Q857 152 853 149Q850 147 857.5 133.0Q865 119 875.5 97.0Q886 75 891.5 47.0Q897 19 890 -11Q882 -48 866.0 -68.5Q850 -89 832.5 -99.0Q815 -109 799.0 -113.0Q783 -117 773 -119Q764 -122 756.0 -132.0Q748 -142 735.5 -153.0Q723 -164 701.0 -171.0Q679 -178 642 -174Q593 -168 570.0 -155.0Q547 -142 538.0 -129.5Q529 -117 523 -115Q516 -113 503.5 -113.0Q491 -113 474.0 -105.0Q457 -97 436 -73Q407 -38 402.5 -3.5Q398 31 405.5 60.0Q413 89 421.0 107.0Q429 125 426 126Q418 127 403.0 114.5Q388 102 369 85Q356 74 335.5 62.0Q315 50 290.0 45.0Q265 40 237 48Q210 56 197.0 71.5Q184 87 178.5 101.5Q173 116 167 123Q161 129 145.0 134.0Q129 139 111.0 152.5Q93 166 81 200Q70 232 71.0 256.0Q72 280 80.0 297.5Q88 315 95.0 326.0Q102 337 103 344Q103 353 98.5 367.5Q94 382 95.0 402.0Q96 422 113 446Q130 469 154.5 477.0Q179 485 205.5 484.0Q232 483 255.5 478.5Q279 474 293.5 471.5Q308 469 308 473Q308 479 290.0 487.5Q272 496 247.5 508.5Q223 521 203.5 541.0Q184 561 180 591Q176 621 185.0 638.5Q194 656 204.5 665.0Q215 674 215 680Q216 684 210.5 702.0Q205 720 202.5 745.0Q200 770 208.5 796.5Q217 823 246 844Q279 868 312.0 867.5Q345 867 372.0 854.5Q399 842 415.0 829.5Q431 817 431 817Q431 817 435.5 823.5Q440 830 450.5 835.5Q461 841 480.0 838.5Q499 836 529 818Q542 811 553.0 786.5Q564 762 572.5 733.5Q581 705 587.0 684.5Q593 664 595 665Q598 666 598.5 676.5Q599 687 598.0 699.5Q597 712 597 720Q596 725 594.0 744.0Q592 763 593.0 788.0Q594 813 603.0 837.5Q612 862 633 878Q661 900 684.5 901.0Q708 902 729.5 895.0Q751 888 774 885Q784 884 798.5 890.0Q813 896 832.5 898.5Q852 901 878 887Q907 871 918.0 856.0Q929 841 934.0 827.5Q939 814 951 801Q964 787 979.5 780.0Q995 773 1008.5 758.0Q1022 743 1029 706Q1034 678 1018.5 651.5Q1003 625 980.5 603.5Q958 582 941.0 568.0Q924 554 927 550Z" fill="#ea4b8d" stroke="none" transform="scale(1,-1) translate(0,-256)" /></svg>