<?xml version="1.0" encoding="utf-8" ?>
<svg baseProfile="full" height="256" version="1.1" width="256" xmlns="http://www.w3.org/2000/svg" xmlns:ev="http://www.w3.org/2001/xml-events" xmlns:xlink="http://www.w3.org/1999/xlink"><defs /><path d="M396 716Q404 728 415.5 729.0Q427 730 436 725Q445 721 450.5 709.5Q456 698 451 687Q447 677 438.0 670.0Q429 663 412 668Q396 673 391.5 687.5Q387 702 396 716Z" fill="#fee165" stroke="none" transform="scale(1,-1) translate(0,-256)" /><path d="M367 748Q377 741 380.0 729.5Q383 718 375 707Q369 697 357.5 697.0Q346 697 338 701Q330 706 325.5 718.5Q321 731 328 742Q335 753 346.0 754.0Q357 755 367 748Z" fill="#fee165" stroke="none" transform="scale(1,-1) translate(0,-256)" /><path d="M330 824Q347 832 357.5 822.0Q368 812 367 798Q365 781 351.5 776.5Q338 772 327 778Q315 784 314.5 800.5Q314 817 330 824Z" fill="#fee165" stroke="none" transform="scale(1,-1) translate(0,-256)" /><path d="M397 800Q411 807 424.5 798.5Q438 790 437 769Q436 754 426.5 748.5Q417 743 405.5 744.5Q394 746 388 753Q380 762 381.5 777.5Q383 793 397 800Z" fill="#fee165" stroke="none" transform="scale(1,-1) translate(0,-256)" /></svg>