<?xml version="1.0" encoding="utf-8" ?>
<svg baseProfile="full" height="256" version="1.1" width="256" xmlns="http://www.w3.org/2000/svg" xmlns:ev="http://www.w3.org/2001/xml-events" xmlns:xlink="http://www.w3.org/1999/xlink"><defs /><path d="M497 -97 536 163 426 233Q426 233 407.0 215.5Q388 198 359.5 171.5Q331 145 301.0 117.5Q271 90 248.0 70.0Q225 50 219 46Q203 35 192.0 21.0Q181 7 173 -6Q165 -20 155.5 -33.0Q146 -46 148 -56Q149 -63 157.0 -65.0Q165 -67 172.5 -66.5Q180 -66 180 -66Q180 -66 173.0 -78.0Q166 -90 156.5 -104.5Q147 -119 141 -127Q132 -139 122.5 -149.5Q113 -160 116 -168Q117 -174 124.0 -181.0Q131 -188 152.0 -192.0Q173 -196 218 -192Q262 -188 284.5 -178.0Q307 -168 315.0 -159.0Q323 -150 323 -150Q323 -150 324.0 -163.5Q325 -177 331 -182Q337 -187 357.5 -185.5Q378 -184 409 -171Q430 -161 450.5 -143.5Q471 -126 484.0 -111.5Q497 -97 497 -97Z" fill="#2e7e31" stroke="none" transform="scale(1,-1) translate(0,-256)" /><path d="M827 -74 794 166 918 214Q918 214 937.5 208.5Q957 203 985.5 194.0Q1014 185 1041.5 173.0Q1069 161 1085 148Q1110 126 1130.5 100.0Q1151 74 1162.5 52.5Q1174 31 1172 23Q1170 15 1161.0 12.0Q1152 9 1143.5 8.5Q1135 8 1135 8Q1135 8 1148.0 -9.0Q1161 -26 1172 -52Q1180 -69 1185.0 -91.5Q1190 -114 1192.5 -131.5Q1195 -149 1193 -151Q1191 -155 1158.5 -152.0Q1126 -149 1089 -141Q1051 -132 1031.5 -117.0Q1012 -102 1012 -102Q1012 -102 1013.0 -117.5Q1014 -133 1001 -142Q991 -150 965.0 -141.0Q939 -132 909 -120Q889 -111 870.0 -100.5Q851 -90 839.0 -82.0Q827 -74 827 -74Z" fill="#2e7e31" stroke="none" transform="scale(1,-1) translate(0,-256)" /></svg>