<?xml version="1.0" encoding="utf-8" ?>
<svg baseProfile="full" height="256" version="1.1" width="256" xmlns="http://www.w3.org/2000/svg" xmlns:ev="http://www.w3.org/2001/xml-events" xmlns:xlink="http://www.w3.org/1999/xlink"><defs /><path d="M923 504Q923 504 944.5 515.0Q966 526 998.0 542.5Q1030 559 1061.5 575.0Q1093 591 1114.5 600.0Q1136 609 1136 606Q1136 602 1113.5 587.5Q1091 573 1056.5 553.5Q1022 534 986.0 514.0Q950 494 922.5 479.0Q895 464 886 460Q879 456 853.0 443.5Q827 431 792.5 415.0Q758 399 725.5 384.0Q693 369 672.0 361.0Q651 353 653 356Q654 359 674.0 371.0Q694 383 724.5 399.5Q755 416 789.5 434.0Q824 452 854.5 468.0Q885 484 904.0 494.0Q923 504 923 504Z" fill="#212121" stroke="none" transform="scale(1,-1) translate(0,-256)" /></svg>