<?xml version="1.0" encoding="utf-8" ?>
<svg baseProfile="full" height="256" version="1.1" width="256" xmlns="http://www.w3.org/2000/svg" xmlns:ev="http://www.w3.org/2001/xml-events" xmlns:xlink="http://www.w3.org/1999/xlink"><defs /><path d="M305 33 308 -45Q308 -45 300.0 -56.5Q292 -68 284.0 -80.0Q276 -92 276 -95Q276 -96 295.0 -87.0Q314 -78 340.0 -65.0Q366 -52 388.5 -41.5Q411 -31 418 -29Q427 -26 445.5 -18.0Q464 -10 479.5 -2.5Q495 5 495 5L487 23L446 22Q446 22 436.0 28.5Q426 35 412.0 43.5Q398 52 386.5 60.0Q375 68 372 70Q369 73 357.5 80.0Q346 87 332.0 95.5Q318 104 307.5 110.5Q297 117 297 117Q297 117 296.5 103.0Q296 89 296.5 73.5Q297 58 298 53Q300 47 302.5 40.0Q305 33 305 33Z" fill="#717a7c" stroke="none" transform="scale(1,-1) translate(0,-256)" /><path d="M628 691Q632 695 639.0 693.5Q646 692 651 687Q654 683 664.0 669.0Q674 655 683.5 639.5Q693 624 697 617Q699 612 710.0 595.5Q721 579 734.5 557.5Q748 536 760.5 516.0Q773 496 779 484Q785 471 799.5 446.5Q814 422 830.0 395.5Q846 369 857.0 350.0Q868 331 868 331Q868 331 865.5 319.0Q863 307 860.5 294.0Q858 281 858 280Q859 278 845.0 276.0Q831 274 822 274Q821 274 806.5 284.0Q792 294 777.5 304.5Q763 315 762 318Q759 322 760.0 333.5Q761 345 760 351Q759 354 754.0 368.0Q749 382 742.5 399.0Q736 416 731.0 428.5Q726 441 726 441L619 507Z" fill="#717a7c" stroke="none" transform="scale(1,-1) translate(0,-256)" /></svg>