<?xml version="1.0" encoding="utf-8" ?>
<svg baseProfile="full" height="256" version="1.1" width="256" xmlns="http://www.w3.org/2000/svg" xmlns:ev="http://www.w3.org/2001/xml-events" xmlns:xlink="http://www.w3.org/1999/xlink"><defs /><path d="M307 -8Q307 -8 306.0 3.0Q305 14 304.0 29.5Q303 45 302 58Q300 71 296.5 87.0Q293 103 290.0 115.0Q287 127 287 127Q287 127 298.5 125.0Q310 123 323 113Q332 106 348.5 94.5Q365 83 378.5 73.5Q392 64 392 64Q392 64 400.0 58.5Q408 53 441 45Q474 37 487.5 33.0Q501 29 503 27Q511 18 501.5 12.0Q492 6 492 6Q492 6 475.0 -6.0Q458 -18 440 -22Q428 -24 409.0 -21.0Q390 -18 375.0 -13.5Q360 -9 360 -9Z" fill="#8cc2ea" stroke="none" transform="scale(1,-1) translate(0,-256)" /><path d="M587 133Q588 139 596.0 160.5Q604 182 616.0 210.5Q628 239 639.5 265.5Q651 292 659 308Q669 328 683.0 355.0Q697 382 708.5 403.5Q720 425 722 432Q724 435 714.5 457.5Q705 480 690.0 510.5Q675 541 660.0 571.0Q645 601 635.0 621.0Q625 641 625 641Q625 641 624.0 652.5Q623 664 623.5 677.0Q624 690 630 693Q643 701 660 677Q666 668 681.0 645.0Q696 622 713.0 595.0Q730 568 744.0 546.0Q758 524 763 515Q768 506 782.5 481.0Q797 456 813.5 428.0Q830 400 841.5 379.5Q853 359 853 359Q853 359 859.0 364.5Q865 370 873 366Q880 362 888.5 352.0Q897 342 908 326Q923 306 937.5 283.0Q952 260 967 238Q978 223 991.5 202.5Q1005 182 1015.0 166.0Q1025 150 1024 147Q1021 143 1008.0 136.5Q995 130 980.5 123.0Q966 116 958 111Q945 104 933.0 114.0Q921 124 919 132Q918 135 913.5 153.0Q909 171 903.0 194.5Q897 218 892.0 237.5Q887 257 885 263Q883 271 877.0 288.5Q871 306 864.5 321.5Q858 337 856 340Q854 342 843.0 333.5Q832 325 831 323Q830 319 826.5 302.5Q823 286 819.5 270.0Q816 254 814 250Q812 248 801.5 238.5Q791 229 778.5 218.5Q766 208 759 203Q751 199 732.0 186.5Q713 174 694.0 162.0Q675 150 670 146Q665 143 651.5 132.0Q638 121 625.5 111.5Q613 102 609 101Q604 100 595.0 114.0Q586 128 587 133Z" fill="#8cc2ea" stroke="none" transform="scale(1,-1) translate(0,-256)" /></svg>