<?xml version="1.0" encoding="utf-8" ?>
<svg baseProfile="full" height="256" version="1.1" width="256" xmlns="http://www.w3.org/2000/svg" xmlns:ev="http://www.w3.org/2001/xml-events" xmlns:xlink="http://www.w3.org/1999/xlink"><defs /><path d="M621 555 734 484 993 141 874 -37 656 -26 542 -2 424 -7 277 -95Q277 -95 268.0 -97.5Q259 -100 255 -100Q252 -100 229.0 -99.5Q206 -99 184 -101Q162 -103 145.5 -106.5Q129 -110 125 -110Q120 -111 109.5 -109.0Q99 -107 90.0 -105.5Q81 -104 81 -104L96 -81Q96 -81 108.0 -66.5Q120 -52 139.5 -29.0Q159 -6 181.0 20.5Q203 47 223.0 70.5Q243 94 256.5 109.0Q270 124 271 125Q275 129 286.0 123.0Q297 117 297 117L408 230Q408 230 412.0 252.5Q416 275 422.0 308.0Q428 341 435.0 376.0Q442 411 448.5 437.5Q455 464 458 472Q465 485 475.0 495.0Q485 505 498 519Q505 526 518.0 540.0Q531 554 545.5 569.0Q560 584 570.5 595.0Q581 606 581 606Z" fill="#9ea2a3" stroke="none" transform="scale(1,-1) translate(0,-256)" /><path d="M474 290 515 102Q515 102 512.0 97.5Q509 93 494 100Q480 108 456.0 122.0Q432 136 425 152Q421 160 404.5 170.5Q388 181 380 190Q370 200 359.5 211.5Q349 223 349 223L358 243Z" fill="#9ea2a3" stroke="none" transform="scale(1,-1) translate(0,-256)" /><path d="M524 17 715 -3 794 -20Q794 -20 791.5 -25.0Q789 -30 783 -39Q776 -48 770.5 -58.5Q765 -69 765 -69Q765 -69 754.0 -64.0Q743 -59 728.5 -53.5Q714 -48 704 -47Q689 -46 667.5 -47.0Q646 -48 623 -43Q599 -39 578.5 -32.5Q558 -26 544 -21Q530 -17 515.5 -8.0Q501 1 501 1Z" fill="#9ea2a3" stroke="none" transform="scale(1,-1) translate(0,-256)" /></svg>