<?xml version="1.0" encoding="utf-8" ?>
<svg baseProfile="full" height="256" version="1.1" width="256" xmlns="http://www.w3.org/2000/svg" xmlns:ev="http://www.w3.org/2001/xml-events" xmlns:xlink="http://www.w3.org/1999/xlink"><defs /><path d="M92 -71Q92 -71 102.0 -54.0Q112 -37 129 -14Q139 1 148.0 5.5Q157 10 157 10Q157 10 165.0 21.0Q173 32 184.0 47.0Q195 62 204 73Q212 84 225.0 98.5Q238 113 250.5 123.5Q263 134 272 133Q279 133 288.0 129.0Q297 125 297 125Q297 125 283.5 118.0Q270 111 265 106Q263 103 254.5 88.0Q246 73 235.5 55.0Q225 37 217.5 24.0Q210 11 210 11L203 -46Q203 -46 185.5 -51.0Q168 -56 151 -61Q142 -63 126.5 -67.0Q111 -71 99.5 -73.0Q88 -75 92 -71Z" fill="#c6e4f7" stroke="none" transform="scale(1,-1) translate(0,-256)" /><path d="M477 466Q475 462 466.0 441.5Q457 421 445.5 393.5Q434 366 423.5 339.0Q413 312 407 295Q394 261 384.5 242.0Q375 223 375 223Q375 223 366.5 232.0Q358 241 358 243Q359 255 372.0 284.0Q385 313 401 350Q407 365 416.0 388.0Q425 411 434.0 434.5Q443 458 449.5 475.5Q456 493 458 496Q461 502 474.0 510.5Q487 519 498 526Q505 531 521.0 546.0Q537 561 550.5 574.5Q564 588 564 588Q564 588 570.0 600.0Q576 612 585.0 628.5Q594 645 602.5 659.5Q611 674 615 679Q622 690 628.5 692.5Q635 695 635 695Q635 695 637.0 688.5Q639 682 636 669Q636 665 630.5 653.0Q625 641 625 641Q625 641 614.5 624.5Q604 608 598 594Q595 585 593.0 559.5Q591 534 590.5 506.5Q590 479 591 467Q592 457 590.5 435.0Q589 413 585.5 388.5Q582 364 577.0 346.5Q572 329 566 330Q561 331 551.5 346.0Q542 361 530.0 382.0Q518 403 507.0 424.0Q496 445 488.0 457.5Q480 470 477 466Z" fill="#c6e4f7" stroke="none" transform="scale(1,-1) translate(0,-256)" /><path d="M544 30Q544 30 559.5 23.5Q575 17 582 15Q585 14 601.5 14.5Q618 15 637.0 16.5Q656 18 670.5 19.0Q685 20 685 20Q685 20 699.0 27.0Q713 34 730.5 43.0Q748 52 758 58Q767 63 788.5 71.0Q810 79 830.5 87.0Q851 95 860 99Q869 104 883.0 111.5Q897 119 908.0 125.5Q919 132 919 132Q919 132 921.5 126.0Q924 120 930 116Q937 113 946.5 111.5Q956 110 956 110L897 57Q897 57 884.5 52.0Q872 47 858.5 41.0Q845 35 840 31Q836 28 824.5 15.5Q813 3 803.5 -8.5Q794 -20 794 -20Q794 -20 779.5 -21.0Q765 -22 746.0 -23.5Q727 -25 716 -26Q705 -27 683.0 -25.5Q661 -24 641.0 -22.0Q621 -20 615 -19Q609 -18 589.5 -12.5Q570 -7 552.0 -0.5Q534 6 532 10Q531 12 537.5 21.0Q544 30 544 30Z" fill="#c6e4f7" stroke="none" transform="scale(1,-1) translate(0,-256)" /></svg>