<?xml version="1.0" encoding="utf-8" ?>
<svg baseProfile="full" height="256" version="1.1" width="256" xmlns="http://www.w3.org/2000/svg" xmlns:ev="http://www.w3.org/2001/xml-events" xmlns:xlink="http://www.w3.org/1999/xlink"><defs /><path d="M812.5634765625 791.8170776367188Q812.5634765625 800.9536437988281 798.8586273193359 808.8443145751953Q785.1537780761719 816.7349853515625 761.0664672851562 822.9644622802734Q736.9791564941406 829.1939392089844 705.4164733886719 832.5163269042969Q673.8537902832031 835.8387145996094 637.7228240966797 835.8387145996094Q601.1765594482422 835.8387145996094 569.6138763427734 832.5163269042969Q538.0511932373047 829.1939392089844 513.9638824462891 822.9644622802734Q489.87657165527344 816.7349853515625 476.1717224121094 808.8443145751953Q462.4668731689453 800.9536437988281 462.4668731689453 791.8170776367188Q462.4668731689453 782.6805114746094 476.1717224121094 774.5821914672852Q489.87657165527344 766.4838714599609 513.9638824462891 760.25439453125Q538.0511932373047 754.0249176025391 569.6138763427734 750.7025299072266Q601.1765594482422 747.3801422119141 637.7228240966797 747.3801422119141Q673.8537902832031 747.3801422119141 705.4164733886719 750.7025299072266Q736.9791564941406 754.0249176025391 761.0664672851562 760.25439453125Q785.1537780761719 766.4838714599609 798.8586273193359 774.5821914672852Q812.5634765625 782.6805114746094 812.5634765625 791.8170776367188Z" fill="#82aec0" stroke="none" transform="scale(1,-1) translate(0,-256)" /></svg>