<?xml version="1.0" encoding="utf-8" ?>
<svg baseProfile="full" height="256" version="1.1" width="256" xmlns="http://www.w3.org/2000/svg" xmlns:ev="http://www.w3.org/2001/xml-events" xmlns:xlink="http://www.w3.org/1999/xlink"><defs /><path d="M826 576Q827 543 822.0 521.0Q817 499 811.5 481.0Q806 463 802.5 441.5Q799 420 802 387Q807 344 815.0 316.5Q823 289 830.0 264.5Q837 240 837 204Q837 178 832.5 162.5Q828 147 822.5 134.5Q817 122 813.5 106.0Q810 90 812 63Q813 50 819.5 24.0Q826 -2 834.0 -35.0Q842 -68 848.0 -101.5Q854 -135 854.5 -163.5Q855 -192 846 -210Q846 -210 824.0 -199.0Q802 -188 770.5 -176.5Q739 -165 711 -162Q685 -159 641.0 -155.5Q597 -152 545.0 -147.0Q493 -142 440.5 -133.0Q388 -124 342.5 -110.0Q297 -96 266.0 -74.5Q235 -53 228 -23V767Q228 767 237.0 755.0Q246 743 272.0 725.0Q298 707 349.0 688.5Q400 670 485 658Q598 641 674.0 622.0Q750 603 788.0 589.5Q826 576 826 576Z" fill="#ffffff" stroke="none" transform="scale(1,-1) translate(0,-256)" /></svg>