<?xml version="1.0" encoding="utf-8" ?>
<svg baseProfile="full" height="256" version="1.1" width="256" xmlns="http://www.w3.org/2000/svg" xmlns:ev="http://www.w3.org/2001/xml-events" xmlns:xlink="http://www.w3.org/1999/xlink"><defs /><path d="M1059 792Q1059 814 1026.0 833.0Q993 852 935.0 867.0Q877 882 801.0 890.0Q725 898 638 898Q550 898 474.0 890.0Q398 882 340.0 867.0Q282 852 249.0 833.0Q216 814 216 792Q216 770 249.0 750.5Q282 731 340.0 716.0Q398 701 474.0 693.0Q550 685 638 685Q725 685 801.0 693.0Q877 701 935.0 716.0Q993 731 1026.0 750.5Q1059 770 1059 792Z" fill="#e0e0e0" stroke="none" transform="scale(1,-1) translate(0,-256)" /></svg>