<?xml version="1.0" encoding="utf-8" ?>
<svg baseProfile="full" height="256" version="1.1" width="256" xmlns="http://www.w3.org/2000/svg" xmlns:ev="http://www.w3.org/2001/xml-events" xmlns:xlink="http://www.w3.org/1999/xlink"><defs /><path d="M263 664 300 672Q300 672 278.5 645.0Q257 618 231 562Q214 528 205.5 481.5Q197 435 193.5 385.0Q190 335 191 289Q191 257 194.0 219.5Q197 182 202.0 147.0Q207 112 211.5 86.5Q216 61 219 52Q223 40 226.0 21.0Q229 2 229.5 -12.0Q230 -26 227 -22Q222 -16 216.0 -4.0Q210 8 204 16Q200 21 189.5 37.0Q179 53 167.5 71.0Q156 89 149 101Q142 113 124.0 139.5Q106 166 91.0 208.5Q76 251 76 311Q76 363 95.0 414.0Q114 465 141.5 510.0Q169 555 197.0 590.0Q225 625 244.0 644.5Q263 664 263 664Z" fill="#94a61d" stroke="none" transform="scale(1,-1) translate(0,-256)" /></svg>