<?xml version="1.0" encoding="utf-8" ?>
<svg baseProfile="full" height="256" version="1.1" width="256" xmlns="http://www.w3.org/2000/svg" xmlns:ev="http://www.w3.org/2001/xml-events" xmlns:xlink="http://www.w3.org/1999/xlink"><defs /><path d="M168 224Q194 266 220 249Q231 242 227.5 225.0Q224 208 216 193Q207 178 192.0 166.5Q177 155 163 163Q138 177 168 224Z" fill="#f7c875" stroke="none" transform="scale(1,-1) translate(0,-256)" /><path d="M275 298Q265 314 280.5 327.0Q296 340 312 351Q327 362 347.0 366.5Q367 371 375 359Q382 346 372.0 331.0Q362 316 343 303Q324 290 304.5 285.5Q285 281 275 298Z" fill="#f7c875" stroke="none" transform="scale(1,-1) translate(0,-256)" /><path d="M537 469Q525 477 526.0 491.0Q527 505 544 536Q574 591 601 576Q616 567 611.0 547.0Q606 527 594 506Q581 485 566.5 472.5Q552 460 537 469Z" fill="#f7c875" stroke="none" transform="scale(1,-1) translate(0,-256)" /></svg>