<?xml version="1.0" encoding="utf-8" ?>
<svg baseProfile="full" height="256" version="1.1" width="256" xmlns="http://www.w3.org/2000/svg" xmlns:ev="http://www.w3.org/2001/xml-events" xmlns:xlink="http://www.w3.org/1999/xlink"><defs /><path d="M1066 913Q1066 913 1067.0 913.0Q1068 913 1068 913Q1096 912 1116.0 891.5Q1136 871 1135 842V-76Q1135 -76 1135.0 -76.0Q1135 -76 1135 -76Q1135 -105 1114.5 -125.5Q1094 -146 1065 -146H145Q145 -146 145.0 -146.0Q145 -146 145 -146Q116 -146 95.5 -125.5Q75 -105 75 -76V842Q75 871 95.5 891.5Q116 912 145 913Z" fill="#1976d2" stroke="none" transform="scale(1,-1) translate(0,-256)" /></svg>