<?xml version="1.0" encoding="utf-8" ?>
<svg baseProfile="full" height="256" version="1.1" width="256" xmlns="http://www.w3.org/2000/svg" xmlns:ev="http://www.w3.org/2001/xml-events" xmlns:xlink="http://www.w3.org/1999/xlink"><defs /><path d="M1025 870Q1025 870 1038.0 855.5Q1051 841 1068.5 821.0Q1086 801 1100.0 785.0Q1114 769 1117 766Q1123 760 1123.0 752.0Q1123 744 1117 738Q1105 726 1090 738Q1084 742 1069.0 755.5Q1054 769 1037.0 784.0Q1020 799 1007.5 810.0Q995 821 995 821Z" fill="#a5ceda" stroke="none" transform="scale(1,-1) translate(0,-256)" /><path d="M995 828Q995 828 1007.0 814.0Q1019 800 1035.5 781.5Q1052 763 1065.0 748.0Q1078 733 1081 730Q1087 724 1087.0 716.0Q1087 708 1081 703Q1069 690 1054 703Q1048 707 1032.5 720.5Q1017 734 999.5 749.5Q982 765 969.0 776.5Q956 788 956 788Z" fill="#a5ceda" stroke="none" transform="scale(1,-1) translate(0,-256)" /><path d="M959 792Q959 792 971.0 778.5Q983 765 999.5 746.0Q1016 727 1029.5 712.0Q1043 697 1045 694Q1051 688 1051.0 680.0Q1051 672 1045 667Q1033 655 1018 667Q1013 671 997.0 684.5Q981 698 963.5 714.0Q946 730 933.0 741.5Q920 753 920 753Z" fill="#a5ceda" stroke="none" transform="scale(1,-1) translate(0,-256)" /><path d="M919 761Q919 761 931.5 746.5Q944 732 961.0 712.5Q978 693 992.5 677.0Q1007 661 1010 658Q1015 653 1015.0 644.5Q1015 636 1010 631Q997 619 982 631Q977 635 960.5 649.0Q944 663 925.5 680.0Q907 697 893.0 709.5Q879 722 879 722Z" fill="#a5ceda" stroke="none" transform="scale(1,-1) translate(0,-256)" /><path d="M883.1880035400391 725.093994140625Q883.1880035400391 725.093994140625 895.6880035400391 710.593994140625Q908.1880035400391 696.093994140625 925.1880035400391 676.593994140625Q942.1880035400391 657.093994140625 956.6880035400391 641.093994140625Q971.1880035400391 625.093994140625 974.1880035400391 622.093994140625Q979.1880035400391 617.093994140625 979.1880035400391 608.593994140625Q979.1880035400391 600.093994140625 974.1880035400391 595.093994140625Q961.1880035400391 583.093994140625 946.1880035400391 595.093994140625Q941.1880035400391 599.093994140625 924.6880035400391 613.093994140625Q908.1880035400391 627.093994140625 889.6880035400391 644.093994140625Q871.1880035400391 661.093994140625 857.1880035400391 673.593994140625Q843.1880035400391 686.093994140625 843.1880035400391 686.093994140625Z" fill="#a5ceda" stroke="none" transform="scale(1,-1) translate(0,-256)" /><path d="M855 681Q855 681 866.5 667.5Q878 654 893.5 636.5Q909 619 922.0 604.0Q935 589 938 587Q943 581 943.0 573.0Q943 565 938 559Q926 547 910 559Q905 563 888.0 578.0Q871 593 851.0 610.0Q831 627 817.0 639.5Q803 652 803 652Z" fill="#a5ceda" stroke="none" transform="scale(1,-1) translate(0,-256)" /></svg>