<?xml version="1.0" encoding="utf-8" ?>
<svg baseProfile="full" height="256" version="1.1" width="256" xmlns="http://www.w3.org/2000/svg" xmlns:ev="http://www.w3.org/2001/xml-events" xmlns:xlink="http://www.w3.org/1999/xlink"><defs /><path d="M128 874Q128 874 134.0 876.0Q140 878 140 873Q141 868 136.5 859.5Q132 851 129 842Q127 837 123.5 821.0Q120 805 121 781Q121 764 123.5 743.5Q126 723 133 700Q142 672 157.5 651.0Q173 630 186.0 618.5Q199 607 199 607L181 584Q181 584 165.5 597.5Q150 611 132.0 638.5Q114 666 105 706Q96 745 97.0 775.5Q98 806 103.0 826.0Q108 846 108 851Q110 864 112.5 869.5Q115 875 115 875Z" fill="#868686" stroke="none" transform="scale(1,-1) translate(0,-256)" /><path d="M301 454Q299 455 288.5 465.0Q278 475 267.5 486.0Q257 497 256 499Q253 502 254.0 509.5Q255 517 260 521Q265 526 272.5 526.0Q280 526 283 523Q285 520 295.5 509.0Q306 498 315.5 487.5Q325 477 325 475Q326 469 317.0 461.0Q308 453 301 454Z" fill="#868686" stroke="none" transform="scale(1,-1) translate(0,-256)" /><path d="M493 851Q493 851 498.5 820.0Q504 789 505 741Q506 692 499.0 660.0Q492 628 486 615Q481 602 471.5 599.0Q462 596 459 595Q452 594 454 585Q456 577 463.5 571.5Q471 566 486 567Q510 567 528.5 602.5Q547 638 551 703Q554 747 549.0 783.5Q544 820 538.5 842.5Q533 865 533 865Q533 865 527.0 866.5Q521 868 512 865Q498 861 495.5 856.0Q493 851 493 851Z" fill="#868686" stroke="none" transform="scale(1,-1) translate(0,-256)" /><path d="M442 546Q445 545 455.0 532.0Q465 519 477.5 505.5Q490 492 500 492Q515 491 542.0 509.5Q569 528 594 551Q618 575 629.5 592.5Q641 610 644 613Q647 616 652.5 614.5Q658 613 660 609Q666 597 651 569Q646 560 632.5 541.5Q619 523 599.5 503.0Q580 483 558.0 468.5Q536 454 515 453Q490 452 471.5 471.5Q453 491 444 511Q438 526 438.5 536.0Q439 546 442 546Z" fill="#868686" stroke="none" transform="scale(1,-1) translate(0,-256)" /><path d="M707 517H706Q707 541 714.0 555.0Q721 569 726.0 576.5Q731 584 726 589Q718 597 700.5 583.0Q683 569 679 527Q675 482 691.0 459.0Q707 436 723 433Q733 431 736.5 436.5Q740 442 739.0 449.0Q738 456 736 457Q733 460 719.5 476.5Q706 493 707 517Z" fill="#868686" stroke="none" transform="scale(1,-1) translate(0,-256)" /></svg>