<?xml version="1.0" encoding="utf-8" ?>
<svg baseProfile="full" height="256" version="1.1" width="256" xmlns="http://www.w3.org/2000/svg" xmlns:ev="http://www.w3.org/2001/xml-events" xmlns:xlink="http://www.w3.org/1999/xlink"><defs /><path d="M226 28 273 -42 241 -80Q241 -80 232.0 -71.5Q223 -63 210.0 -53.5Q197 -44 183 -40Q163 -33 149.0 -28.0Q135 -23 122 -11Q108 2 103.0 14.0Q98 26 98 26Q98 26 100.5 27.0Q103 28 109 28Q116 28 123.5 26.5Q131 25 135 22Q138 21 146.5 15.0Q155 9 162.5 4.0Q170 -1 170 -1L184 18Z" fill="#cecece" stroke="none" transform="scale(1,-1) translate(0,-256)" /><path d="M276 178H275L312 144L382 97Q382 97 395.5 110.0Q409 123 425.5 139.0Q442 155 451 165Q461 175 476.5 192.0Q492 209 504.0 223.0Q516 237 516 237L571 168Q571 168 586.0 161.0Q601 154 622 153Q643 151 649.5 154.0Q656 157 656 157L676 204L738 292Q738 292 735.5 277.5Q733 263 729.5 244.5Q726 226 724 214Q722 202 717.0 180.0Q712 158 708.0 140.5Q704 123 704 123Q704 123 715.0 115.0Q726 107 740.0 97.0Q754 87 763 81Q770 76 783.0 66.0Q796 56 810.0 45.5Q824 35 833.5 27.5Q843 20 843 20L916 70L949 124Q949 124 928.0 153.5Q907 183 873 217Q851 240 828.0 261.5Q805 283 789.5 297.0Q774 311 774 311L761 321Q761 321 757.5 340.5Q754 360 752 375Q750 384 746.5 402.5Q743 421 740.0 435.5Q737 450 737 450L707 468L694 524Q694 524 705.0 517.0Q716 510 723 505Q726 502 741.0 490.5Q756 479 777.0 463.5Q798 448 819.0 432.5Q840 417 854 405Q882 381 911.0 356.0Q940 331 951 321Q962 311 971.0 294.0Q980 277 986 269Q991 261 998.0 253.5Q1005 246 1007 253Q1009 259 1007.5 271.5Q1006 284 1011 287Q1014 288 1024.0 275.5Q1034 263 1044.0 250.0Q1054 237 1058 239Q1062 241 1057.5 250.5Q1053 260 1050 267Q1046 275 1037.5 286.5Q1029 298 1031 303Q1033 307 1039.0 299.0Q1045 291 1050 284Q1056 274 1061.5 261.5Q1067 249 1069 253Q1070 254 1068.5 267.0Q1067 280 1062.0 297.0Q1057 314 1047 328Q1037 342 1022.0 356.5Q1007 371 995.5 381.0Q984 391 984 391Q984 391 970.5 403.0Q957 415 937.5 432.5Q918 450 899.5 466.0Q881 482 869 491Q858 499 839.5 511.5Q821 524 802.0 537.0Q783 550 768.0 559.5Q753 569 750 572Q743 579 722.5 594.0Q702 609 680 614Q665 617 656.0 616.5Q647 616 644 618Q638 620 638 627Q638 632 645.0 638.0Q652 644 665 665Q673 679 675.0 696.0Q677 713 676.5 725.5Q676 738 676 738L540 739L521 636L474 591Q474 591 461.0 583.5Q448 576 430.5 565.0Q413 554 399 543Q379 525 361.5 508.0Q344 491 344 491Q344 491 338.0 496.0Q332 501 326 505Q320 510 311.0 517.5Q302 525 302 525Q302 525 302.0 533.0Q302 541 300 552Q297 562 284.0 576.5Q271 591 261 593Q251 596 245.5 590.0Q240 584 240 584L209 560Q209 560 204.5 551.5Q200 543 199 537Q198 532 197.0 523.5Q196 515 197 509Q199 504 212.0 494.5Q225 485 228 482Q230 480 237.0 472.0Q244 464 268 432Q292 400 312.5 384.0Q333 368 333 368Q333 368 345.5 385.5Q358 403 366 417Q371 424 379.0 438.0Q387 452 396.0 467.0Q405 482 411.5 492.5Q418 503 418 503Q418 503 422.5 487.0Q427 471 433.5 449.5Q440 428 445 413Q449 402 456.5 384.5Q464 367 472.0 350.0Q480 333 486.0 321.5Q492 310 492 310L478 302Q478 302 465.5 297.5Q453 293 429 283Q405 272 388.0 263.0Q371 254 357 248Q343 241 323.0 232.5Q303 224 292 211Q282 198 279.0 188.0Q276 178 276 178Z" fill="#cecece" stroke="none" transform="scale(1,-1) translate(0,-256)" /><path d="M1018 -122 1023 -127Q1023 -127 1048.0 -136.5Q1073 -146 1113 -148Q1129 -149 1147.0 -147.0Q1165 -145 1177.5 -142.0Q1190 -139 1190 -139Q1189 -136 1181.0 -126.5Q1173 -117 1158 -110Q1137 -102 1129 -92Q1125 -88 1117.5 -78.0Q1110 -68 1103.5 -59.5Q1097 -51 1097 -51Q1097 -51 1087.5 -62.0Q1078 -73 1066 -83Q1059 -90 1047.0 -99.0Q1035 -108 1026.5 -115.0Q1018 -122 1018 -122Z" fill="#cecece" stroke="none" transform="scale(1,-1) translate(0,-256)" /></svg>