<?xml version="1.0" encoding="utf-8" ?>
<svg baseProfile="full" height="256" version="1.1" width="256" xmlns="http://www.w3.org/2000/svg" xmlns:ev="http://www.w3.org/2001/xml-events" xmlns:xlink="http://www.w3.org/1999/xlink"><defs /><path d="M120 22 211 -31 241 -79 226 -97Q226 -97 212.5 -83.5Q199 -70 185 -59Q171 -48 151.5 -41.0Q132 -34 113 -16Q94 1 92.0 12.5Q90 24 90 24L98 26Z" fill="#9a9a9a" stroke="none" transform="scale(1,-1) translate(0,-256)" /><path d="M200 541Q200 541 208.5 553.0Q217 565 232 569Q242 571 247.5 566.0Q253 561 253 558Q253 555 244.5 555.5Q236 556 227 547Q219 539 219.5 531.0Q220 523 221 521Q222 520 228.0 532.0Q234 544 251 546Q259 547 263.0 543.5Q267 540 267 538Q265 535 261.0 535.0Q257 535 252 529Q245 523 243.0 513.0Q241 503 248 498Q261 489 274 507Q281 517 281.5 526.5Q282 536 279 544Q276 552 271.5 555.0Q267 558 267 558Q267 558 262.0 570.0Q257 582 241 584Q223 585 211 569Q202 558 201.0 549.5Q200 541 200 541Z" fill="#9a9a9a" stroke="none" transform="scale(1,-1) translate(0,-256)" /><path d="M548 765 536 716H676Q676 716 676.0 723.0Q676 730 676 738Q676 747 674.5 756.5Q673 766 673 766Z" fill="#9a9a9a" stroke="none" transform="scale(1,-1) translate(0,-256)" /><path d="M929 319Q929 319 930.0 317.0Q931 315 933 312Q936 310 939.0 309.0Q942 308 942 308Q942 308 951.5 323.0Q961 338 970 349Q978 361 988.0 370.0Q998 379 998 379Q998 379 997.0 382.0Q996 385 993 387Q990 390 987.0 390.5Q984 391 984 391Q984 391 976.0 383.5Q968 376 960 366Q951 356 941.0 339.0Q931 322 929 319Z" fill="#9a9a9a" stroke="none" transform="scale(1,-1) translate(0,-256)" /><path d="M1023 -127 1163 -130Q1163 -130 1174.0 -131.5Q1185 -133 1188 -136Q1192 -140 1193.5 -145.5Q1195 -151 1195 -151L1165 -171L1040 -165Q1040 -165 1037.5 -160.0Q1035 -155 1033 -150Q1031 -145 1027.0 -136.0Q1023 -127 1023 -127Z" fill="#9a9a9a" stroke="none" transform="scale(1,-1) translate(0,-256)" /></svg>