<?xml version="1.0" encoding="utf-8" ?>
<svg baseProfile="full" height="256" version="1.1" width="256" xmlns="http://www.w3.org/2000/svg" xmlns:ev="http://www.w3.org/2001/xml-events" xmlns:xlink="http://www.w3.org/1999/xlink"><defs /><path d="M471 493 493 422Q493 422 500.5 401.5Q508 381 518.0 352.0Q528 323 538.0 296.5Q548 270 552 258Q561 235 576.0 209.0Q591 183 603 170Q612 159 623.0 160.0Q634 161 635 163Q637 165 635.5 191.0Q634 217 655 262Q669 293 687.5 306.5Q706 320 720.5 324.5Q735 329 736 332Q738 335 736.5 345.0Q735 355 734 367Q733 375 730.0 393.0Q727 411 724.0 425.5Q721 440 721 440L697 496L713 584Q713 584 702.0 591.0Q691 598 680 602Q669 605 657.0 604.5Q645 604 645 604Q645 604 645.0 611.5Q645 619 642 622Q638 626 632.5 624.0Q627 622 622 619Q617 615 605.5 607.0Q594 599 594 599L512 552Q512 552 500.5 555.5Q489 559 477 561Q465 563 456.5 566.5Q448 570 444 567Q440 565 441.0 557.0Q442 549 442 546Q442 544 449.5 531.0Q457 518 464.0 505.5Q471 493 471 493Z" fill="#e0e0e0" stroke="none" transform="scale(1,-1) translate(0,-256)" /></svg>