<?xml version="1.0" encoding="utf-8" ?>
<svg baseProfile="full" height="256" version="1.1" width="256" xmlns="http://www.w3.org/2000/svg" xmlns:ev="http://www.w3.org/2001/xml-events" xmlns:xlink="http://www.w3.org/1999/xlink"><defs /><path d="M440 520Q440 520 442.5 523.0Q445 526 445 526L515 462Q515 462 517.5 442.0Q520 422 524.0 397.0Q528 372 530 359Q532 349 537.0 331.0Q542 313 547.0 294.0Q552 275 555.0 261.5Q558 248 556 248Q553 248 544.0 264.5Q535 281 525.5 300.5Q516 320 512 329Q507 338 502.5 350.5Q498 363 494.5 372.5Q491 382 491 382Q491 382 479.5 398.5Q468 415 460 431Q456 441 451.0 462.5Q446 484 443.0 502.0Q440 520 440 520Z" fill="#ffffff" stroke="none" transform="scale(1,-1) translate(0,-256)" /><path d="M455 557Q456 563 469.5 561.5Q483 560 500 562Q518 565 541.5 575.5Q565 586 583.0 594.0Q601 602 605 598Q609 593 597.5 580.0Q586 567 576 556Q569 549 555.5 537.0Q542 525 527.0 515.0Q512 505 502 505Q492 505 481.0 516.0Q470 527 462.5 539.5Q455 552 455 557Z" fill="#ffffff" stroke="none" transform="scale(1,-1) translate(0,-256)" /></svg>