<?xml version="1.0" encoding="utf-8" ?>
<svg baseProfile="full" height="256" version="1.1" width="256" xmlns="http://www.w3.org/2000/svg" xmlns:ev="http://www.w3.org/2001/xml-events" xmlns:xlink="http://www.w3.org/1999/xlink"><defs /><path d="M573 276 567 157Q567 157 566.5 141.0Q566 125 565.5 101.5Q565 78 564.5 56.5Q564 35 563 25Q562 17 561.0 -4.0Q560 -25 559.5 -51.0Q559 -77 558.5 -102.5Q558 -128 557.5 -144.5Q557 -161 557 -162Q555 -168 547.5 -171.0Q540 -174 515 -174Q497 -174 489.0 -172.0Q481 -170 480 -166Q478 -163 484.0 -149.0Q490 -135 492 -129Q494 -123 498.0 -94.5Q502 -66 502 -33Q503 -3 500.5 33.0Q498 69 498 118Q497 138 497.0 163.5Q497 189 497.0 213.0Q497 237 497.5 252.5Q498 268 498 268Q498 268 514.5 269.5Q531 271 549.0 273.0Q567 275 573 276Z" fill="#fa821b" stroke="none" transform="scale(1,-1) translate(0,-256)" /><path d="M903 194Q903 194 903.5 182.5Q904 171 904.5 155.5Q905 140 905.0 127.0Q905 114 905 109Q905 100 909.5 87.5Q914 75 918 65Q925 51 935.5 37.5Q946 24 946 16Q946 9 944.0 -17.5Q942 -44 941 -66Q940 -83 939.5 -105.0Q939 -127 938.0 -144.5Q937 -162 934 -163Q930 -165 924.0 -167.5Q918 -170 907 -170Q900 -170 888.0 -170.0Q876 -170 873 -167Q870 -163 871.5 -154.5Q873 -146 875 -136Q877 -126 882.5 -104.5Q888 -83 889 -74Q889 -71 890.0 -57.5Q891 -44 891.5 -29.0Q892 -14 892 -6Q892 3 886.0 16.0Q880 29 873.5 38.5Q867 48 867 48L850 132Z" fill="#fa821b" stroke="none" transform="scale(1,-1) translate(0,-256)" /><path d="M366 841 402 847 394 887 364 886Z" fill="#fa821b" stroke="none" transform="scale(1,-1) translate(0,-256)" /></svg>