<?xml version="1.0" encoding="utf-8" ?>
<svg baseProfile="full" height="256" version="1.1" width="256" xmlns="http://www.w3.org/2000/svg" xmlns:ev="http://www.w3.org/2001/xml-events" xmlns:xlink="http://www.w3.org/1999/xlink"><defs /><path d="M379 912Q386 911 393.0 908.0Q400 905 400 895Q400 875 377 875Q365 875 360.0 881.0Q355 887 355 895Q355 902 360.0 907.5Q365 913 379 912Z" fill="#4d4d4d" stroke="none" transform="scale(1,-1) translate(0,-256)" /><path d="M437 899Q443 914 455.0 913.5Q467 913 474 910Q481 906 486.0 900.0Q491 894 488 881Q486 868 476.5 865.0Q467 862 454 867Q442 871 437.0 879.5Q432 888 437 899Z" fill="#4d4d4d" stroke="none" transform="scale(1,-1) translate(0,-256)" /></svg>