<?xml version="1.0" encoding="utf-8" ?>
<svg baseProfile="full" height="256" version="1.1" width="256" xmlns="http://www.w3.org/2000/svg" xmlns:ev="http://www.w3.org/2001/xml-events" xmlns:xlink="http://www.w3.org/1999/xlink"><defs /><path d="M1104 -150Q1136 -150 1159.0 -128.0Q1182 -106 1182 -74Q1182 -74 1191.0 0.0Q1200 74 1200 215Q1200 356 1191.0 432.0Q1182 508 1182 508Q1178 544 1157.0 563.5Q1136 583 1104 583H343Q311 583 290.0 559.0Q269 535 266 508Q266 508 255.5 433.0Q245 358 245 208Q245 58 255.5 -8.0Q266 -74 266 -74Q273 -106 292.0 -128.0Q311 -150 343 -150Z" fill="#546e7a" stroke="none" transform="scale(1,-1) translate(0,-256)" /></svg>