<?xml version="1.0" encoding="utf-8" ?>
<svg baseProfile="full" height="256" version="1.1" width="256" xmlns="http://www.w3.org/2000/svg" xmlns:ev="http://www.w3.org/2001/xml-events" xmlns:xlink="http://www.w3.org/1999/xlink"><defs /><path d="M318.843994140625 757.0Q388.843994140625 757.0 445.843994140625 723.0Q502.843994140625 689.0 536.843994140625 631.5Q570.843994140625 574.0 570.843994140625 505.0Q570.843994140625 435.0 536.843994140625 378.0Q502.843994140625 321.0 445.843994140625 287.0Q388.843994140625 253.0 318.843994140625 253.0Q249.843994140625 253.0 192.343994140625 287.0Q134.843994140625 321.0 100.843994140625 378.0Q66.843994140625 435.0 66.843994140625 505.0Q66.843994140625 574.0 100.843994140625 631.5Q134.843994140625 689.0 192.343994140625 723.0Q249.843994140625 757.0 318.843994140625 757.0ZM388.843994140625 693.0Q391.843994140625 698.0 389.343994140625 703.5Q386.843994140625 709.0 381.843994140625 711.0Q344.843994140625 722.0 304.843994140625 719.5Q264.843994140625 717.0 228.843994140625 700.0Q222.843994140625 698.0 221.343994140625 692.0Q219.843994140625 686.0 223.843994140625 681.0L297.843994140625 590.0Q303.843994140625 583.0 313.343994140625 583.5Q322.843994140625 584.0 327.843994140625 592.0ZM423.843994140625 675.0 382.843994140625 565.0Q378.843994140625 557.0 384.343994140625 549.0Q389.843994140625 541.0 398.843994140625 541.0L516.843994140625 539.0Q522.843994140625 539.0 526.343994140625 543.5Q529.843994140625 548.0 528.843994140625 554.0Q519.843994140625 593.0 497.843994140625 625.0Q475.843994140625 658.0 442.843994140625 681.0Q437.843994140625 684.0 432.343994140625 682.5Q426.843994140625 681.0 423.843994140625 675.0ZM247.843994140625 556.0 190.843994140625 659.0Q187.843994140625 664.0 182.343994140625 665.0Q176.843994140625 666.0 171.843994140625 662.0Q142.843994140625 634.0 125.343994140625 598.5Q107.843994140625 563.0 104.843994140625 524.0Q103.843994140625 518.0 108.343994140625 514.0Q112.843994140625 510.0 118.843994140625 511.0L234.843994140625 530.0Q243.843994140625 531.0 247.843994140625 539.5Q251.843994140625 548.0 247.843994140625 556.0ZM121.843994140625 471.0Q115.843994140625 471.0 111.843994140625 466.5Q107.843994140625 462.0 109.843994140625 456.0Q118.843994140625 417.0 140.843994140625 384.0Q162.843994140625 352.0 195.843994140625 329.0Q199.843994140625 325.0 205.843994140625 327.0Q211.843994140625 329.0 213.843994140625 334.0L255.843994140625 444.0Q258.843994140625 453.0 253.343994140625 460.5Q247.843994140625 468.0 238.843994140625 469.0ZM249.843994140625 317.0Q246.843994140625 312.0 248.843994140625 306.5Q250.843994140625 301.0 256.843994140625 299.0Q293.843994140625 288.0 333.343994140625 290.5Q372.843994140625 293.0 409.843994140625 310.0Q414.843994140625 312.0 416.343994140625 318.0Q417.843994140625 324.0 413.843994140625 328.0L339.843994140625 419.0Q333.843994140625 427.0 324.343994140625 426.0Q314.843994140625 425.0 310.843994140625 417.0ZM390.843994140625 454.0 446.843994140625 351.0Q449.843994140625 345.0 455.843994140625 344.5Q461.843994140625 344.0 465.843994140625 348.0Q495.843994140625 375.0 512.843994140625 411.0Q529.843994140625 447.0 532.843994140625 486.0Q533.843994140625 492.0 529.343994140625 496.0Q524.843994140625 500.0 518.843994140625 499.0L402.843994140625 480.0Q393.843994140625 479.0 389.843994140625 470.5Q385.843994140625 462.0 390.843994140625 454.0Z" fill="#757575" stroke="none" transform="scale(1,-1) translate(0,-256)" /><path d="M922.093994140625 886.0Q992.093994140625 886.0 1049.093994140625 852.0Q1106.093994140625 818.0 1140.093994140625 760.5Q1174.093994140625 703.0 1174.093994140625 634.0Q1174.093994140625 564.0 1140.093994140625 507.0Q1106.093994140625 450.0 1049.093994140625 416.0Q992.093994140625 382.0 922.093994140625 382.0Q853.093994140625 382.0 795.593994140625 416.0Q738.093994140625 450.0 704.093994140625 507.0Q670.093994140625 564.0 670.093994140625 634.0Q670.093994140625 703.0 704.093994140625 760.5Q738.093994140625 818.0 795.593994140625 852.0Q853.093994140625 886.0 922.093994140625 886.0ZM992.093994140625 822.0Q995.093994140625 827.0 993.093994140625 832.5Q991.093994140625 838.0 985.093994140625 840.0Q948.093994140625 851.0 908.593994140625 848.5Q869.093994140625 846.0 832.093994140625 829.0Q826.093994140625 827.0 825.093994140625 821.0Q824.093994140625 815.0 827.093994140625 810.0L902.093994140625 719.0Q908.093994140625 712.0 917.093994140625 712.5Q926.093994140625 713.0 931.093994140625 721.0ZM1028.093994140625 804.0 986.093994140625 694.0Q983.093994140625 686.0 988.093994140625 678.0Q993.093994140625 670.0 1002.093994140625 670.0L1120.093994140625 668.0Q1126.093994140625 668.0 1129.593994140625 672.5Q1133.093994140625 677.0 1132.093994140625 683.0Q1123.093994140625 722.0 1101.093994140625 754.0Q1079.093994140625 787.0 1046.093994140625 810.0Q1041.093994140625 813.0 1035.593994140625 811.5Q1030.093994140625 810.0 1028.093994140625 804.0ZM851.093994140625 685.0 794.093994140625 788.0Q791.093994140625 793.0 785.593994140625 794.0Q780.093994140625 795.0 775.093994140625 791.0Q746.093994140625 763.0 729.093994140625 727.5Q712.093994140625 692.0 708.093994140625 653.0Q708.093994140625 647.0 712.093994140625 643.0Q716.093994140625 639.0 722.093994140625 640.0L838.093994140625 659.0Q847.093994140625 660.0 851.593994140625 668.5Q856.093994140625 677.0 851.093994140625 685.0ZM725.093994140625 600.0Q719.093994140625 600.0 715.593994140625 595.5Q712.093994140625 591.0 713.093994140625 585.0Q722.093994140625 546.0 744.093994140625 513.0Q766.093994140625 481.0 799.093994140625 458.0Q804.093994140625 454.0 809.593994140625 456.0Q815.093994140625 458.0 817.093994140625 463.0L859.093994140625 573.0Q862.093994140625 582.0 857.093994140625 589.5Q852.093994140625 597.0 842.093994140625 598.0ZM853.093994140625 446.0Q850.093994140625 441.0 852.093994140625 435.5Q854.093994140625 430.0 860.093994140625 428.0Q897.093994140625 417.0 936.593994140625 419.5Q976.093994140625 422.0 1013.093994140625 439.0Q1018.093994140625 441.0 1019.593994140625 447.0Q1021.093994140625 453.0 1018.093994140625 457.0L943.093994140625 548.0Q937.093994140625 556.0 928.093994140625 555.0Q919.093994140625 554.0 914.093994140625 546.0ZM994.093994140625 583.0 1050.093994140625 480.0Q1053.093994140625 474.0 1059.093994140625 473.5Q1065.093994140625 473.0 1069.093994140625 477.0Q1099.093994140625 504.0 1116.093994140625 540.0Q1133.093994140625 576.0 1137.093994140625 615.0Q1137.093994140625 621.0 1133.093994140625 625.0Q1129.093994140625 629.0 1123.093994140625 628.0L1007.093994140625 609.0Q998.093994140625 608.0 993.593994140625 599.5Q989.093994140625 591.0 994.093994140625 583.0Z" fill="#757575" stroke="none" transform="scale(1,-1) translate(0,-256)" /></svg>