<?xml version="1.0" encoding="utf-8" ?>
<svg baseProfile="full" height="256" version="1.1" width="256" xmlns="http://www.w3.org/2000/svg" xmlns:ev="http://www.w3.org/2001/xml-events" xmlns:xlink="http://www.w3.org/1999/xlink"><defs /><path d="M945 671Q958 665 967.5 652.0Q977 639 969 602L904 367L763 386L784 435L892 433L953 618Q958 638 955.0 650.5Q952 663 945 671Z" fill="#37474f" stroke="none" transform="scale(1,-1) translate(0,-256)" /><path d="M294 529Q305 538 323.5 541.0Q342 544 372 520Q372 520 398.5 498.0Q425 476 467.0 441.5Q509 407 556 368L481 247L383 352Q383 352 392.5 365.5Q402 379 419.5 393.5Q437 408 461 412L350 518Q333 531 318.5 531.5Q304 532 294 529Z" fill="#37474f" stroke="none" transform="scale(1,-1) translate(0,-256)" /><path d="M823.8643188476562 102.70213317871094V0.8291778564453125H1002.5867004394531V102.70213317871094Z" fill="#37474f" stroke="none" transform="scale(1,-1) translate(0,-256)" /><path d="M511 332Q480 332 458.5 310.5Q437 289 437 258V-55Q437 -86 458.5 -107.5Q480 -129 511 -129H812Q843 -129 864.5 -107.5Q886 -86 886 -55V258Q886 289 864.5 310.5Q843 332 812 332Z" fill="#37474f" stroke="none" transform="scale(1,-1) translate(0,-256)" /></svg>