<?xml version="1.0" encoding="utf-8" ?>
<svg baseProfile="full" height="256" version="1.1" width="256" xmlns="http://www.w3.org/2000/svg" xmlns:ev="http://www.w3.org/2001/xml-events" xmlns:xlink="http://www.w3.org/1999/xlink"><defs /><path d="M468.0266876220703 494.8559875488281Q468.0266876220703 523.1833801269531 457.40391540527344 548.0919494628906Q446.78114318847656 573.0005187988281 427.8555145263672 591.9261474609375Q408.9298858642578 610.8517761230469 384.0213165283203 621.5966491699219Q359.1127471923828 632.3415222167969 330.7853546142578 632.3415222167969Q302.21376037597656 632.3415222167969 277.30519104003906 621.5966491699219Q252.39662170410156 610.8517761230469 233.4709930419922 591.9261474609375Q214.5453643798828 573.0005187988281 203.92259216308594 548.0919494628906Q193.29981994628906 523.1833801269531 193.29981994628906 494.8559875488281Q193.29981994628906 466.5285949707031 203.92259216308594 441.6200256347656Q214.5453643798828 416.7114562988281 233.4709930419922 397.78582763671875Q252.39662170410156 378.8601989746094 277.30519104003906 368.2374267578125Q302.21376037597656 357.6146545410156 330.7853546142578 357.6146545410156Q359.1127471923828 357.6146545410156 384.0213165283203 368.2374267578125Q408.9298858642578 378.8601989746094 427.8555145263672 397.78582763671875Q446.78114318847656 416.7114562988281 457.40391540527344 441.6200256347656Q468.0266876220703 466.5285949707031 468.0266876220703 494.8559875488281Z" fill="#b2947c" stroke="none" transform="scale(1,-1) translate(0,-256)" /><path d="M1099.050064086914 623.8545684814453Q1099.050064086914 657.8654937744141 1086.2959671020508 687.7716522216797Q1073.5418701171875 717.6778106689453 1050.8190536499023 740.4006271362305Q1028.0962371826172 763.1234436035156 998.1900787353516 776.0241394042969Q968.2839202880859 788.9248352050781 934.2729949951172 788.9248352050781Q899.9688720703125 788.9248352050781 870.0627136230469 776.0241394042969Q840.1565551757812 763.1234436035156 817.4337387084961 740.4006271362305Q794.7109222412109 717.6778106689453 781.9568252563477 687.7716522216797Q769.2027282714844 657.8654937744141 769.2027282714844 623.8545684814453Q769.2027282714844 589.8436431884766 781.9568252563477 559.9374847412109Q794.7109222412109 530.0313262939453 817.4337387084961 507.30850982666016Q840.1565551757812 484.585693359375 870.0627136230469 471.8315963745117Q899.9688720703125 459.07749938964844 934.2729949951172 459.07749938964844Q968.2839202880859 459.07749938964844 998.1900787353516 471.8315963745117Q1028.0962371826172 484.585693359375 1050.8190536499023 507.30850982666016Q1073.5418701171875 530.0313262939453 1086.2959671020508 559.9374847412109Q1099.050064086914 589.8436431884766 1099.050064086914 623.8545684814453Z" fill="#b2947c" stroke="none" transform="scale(1,-1) translate(0,-256)" /></svg>