<?xml version="1.0" encoding="utf-8" ?>
<svg baseProfile="full" height="256" version="1.1" width="256" xmlns="http://www.w3.org/2000/svg" xmlns:ev="http://www.w3.org/2001/xml-events" xmlns:xlink="http://www.w3.org/1999/xlink"><defs /><path d="M937.6226043701172 630.3216552734375Q937.6226043701172 634.7520141601562 935.9612197875977 638.6476745605469Q934.2998352050781 642.5433349609375 931.3398971557617 645.5032730102539Q928.3799591064453 648.4632110595703 924.4842987060547 650.1436920166016Q920.5886383056641 651.8241729736328 916.1582794189453 651.8241729736328Q911.6897277832031 651.8241729736328 907.7940673828125 650.1436920166016Q903.8984069824219 648.4632110595703 900.9384689331055 645.5032730102539Q897.9785308837891 642.5433349609375 896.3171463012695 638.6476745605469Q894.65576171875 634.7520141601562 894.65576171875 630.3216552734375Q894.65576171875 625.8912963867188 896.3171463012695 621.9956359863281Q897.9785308837891 618.0999755859375 900.9384689331055 615.1400375366211Q903.8984069824219 612.1800994873047 907.7940673828125 610.5187149047852Q911.6897277832031 608.8573303222656 916.1582794189453 608.8573303222656Q920.5886383056641 608.8573303222656 924.4842987060547 610.5187149047852Q928.3799591064453 612.1800994873047 931.3398971557617 615.1400375366211Q934.2998352050781 618.0999755859375 935.9612197875977 621.9956359863281Q937.6226043701172 625.8912963867188 937.6226043701172 630.3216552734375Z" fill="#b9e4ea" stroke="none" transform="scale(1,-1) translate(0,-256)" /><path d="M340.9039001464844 488.1966552734375Q340.9039001464844 492.62701416015625 339.24251556396484 496.5226745605469Q337.5811309814453 500.4183349609375 334.6211929321289 503.3782730102539Q331.6612548828125 506.3382110595703 327.7655944824219 508.01869201660156Q323.86993408203125 509.6991729736328 319.4395751953125 509.6991729736328Q314.9710235595703 509.6991729736328 311.0753631591797 508.01869201660156Q307.17970275878906 506.3382110595703 304.21976470947266 503.3782730102539Q301.25982666015625 500.4183349609375 299.5984420776367 496.5226745605469Q297.9370574951172 492.62701416015625 297.9370574951172 488.1966552734375Q297.9370574951172 483.76629638671875 299.5984420776367 479.8706359863281Q301.25982666015625 475.9749755859375 304.21976470947266 473.0150375366211Q307.17970275878906 470.0550994873047 311.0753631591797 468.39371490478516Q314.9710235595703 466.7323303222656 319.4395751953125 466.7323303222656Q323.86993408203125 466.7323303222656 327.7655944824219 468.39371490478516Q331.6612548828125 470.0550994873047 334.6211929321289 473.0150375366211Q337.5811309814453 475.9749755859375 339.24251556396484 479.8706359863281Q340.9039001464844 483.76629638671875 340.9039001464844 488.1966552734375Z" fill="#b9e4ea" stroke="none" transform="scale(1,-1) translate(0,-256)" /><path d="M780 334Q780 334 775.5 325.5Q771 317 753.5 309.0Q736 301 699 301Q676 301 637.0 301.0Q598 301 557.5 302.0Q517 303 487.0 303.5Q457 304 452 304Q474 334 511 334Z" fill="#b9e4ea" stroke="none" transform="scale(1,-1) translate(0,-256)" /></svg>