<?xml version="1.0" encoding="utf-8" ?>
<svg baseProfile="full" height="256" version="1.1" width="256" xmlns="http://www.w3.org/2000/svg" xmlns:ev="http://www.w3.org/2001/xml-events" xmlns:xlink="http://www.w3.org/1999/xlink"><defs /><path d="M192 -211Q192 -211 208.0 -210.0Q224 -209 248.0 -204.0Q272 -199 298.0 -188.0Q324 -177 345 -157Q387 -116 408.0 -75.5Q429 -35 436.0 -8.0Q443 19 443 19Q443 19 427.5 26.5Q412 34 385.5 43.0Q359 52 325.0 56.0Q291 60 254.0 53.5Q217 47 180 24Q138 -3 116.5 -37.0Q95 -71 87.0 -102.0Q79 -133 78.5 -153.0Q78 -173 78 -173L207 -141Z" fill="#543930" stroke="none" transform="scale(1,-1) translate(0,-256)" /><path d="M1083.0 -211.0Q1083.0 -211.0 1067.0 -210.0Q1051.0 -209.0 1027.0 -204.0Q1003.0 -199.0 977.0 -188.0Q951.0 -177.0 930.0 -157.0Q888.0 -116.0 867.0 -75.5Q846.0 -35.0 839.0 -8.0Q832.0 19.0 832.0 19.0Q832.0 19.0 847.5 26.5Q863.0 34.0 889.5 43.0Q916.0 52.0 950.0 56.0Q984.0 60.0 1021.0 53.5Q1058.0 47.0 1095.0 24.0Q1137.0 -3.0 1158.5 -37.0Q1180.0 -71.0 1188.0 -102.0Q1196.0 -133.0 1196.5 -153.0Q1197.0 -173.0 1197.0 -173.0L1068.0 -141.0Z" fill="#543930" stroke="none" transform="scale(1,-1) translate(0,-256)" /><path d="M1011 777Q1065 715 1092.5 653.5Q1120 592 1126.5 519.0Q1133 446 1125 351Q1120 294 1105.0 257.5Q1090 221 1073.5 200.5Q1057 180 1044.5 171.5Q1032 163 1032 163V309Q1032 309 1005.0 315.5Q978 322 936.5 336.5Q895 351 849.5 373.0Q804 395 767 427Q692 489 664.0 522.0Q636 555 636 555Q636 555 604.0 516.5Q572 478 505 425Q471 399 426.5 378.0Q382 357 340.5 342.0Q299 327 271.5 319.0Q244 311 244 311L257 163Q257 163 243.0 171.5Q229 180 209.5 200.5Q190 221 173.0 258.0Q156 295 149 351Q145 394 146.5 451.5Q148 509 162.0 572.5Q176 636 208.5 696.0Q241 756 296.5 805.0Q352 854 436.5 883.5Q521 913 640 913Q721 913 784.5 898.0Q848 883 897 860Q901 860 935.0 840.0Q969 820 1011 777Z" fill="#543930" stroke="none" transform="scale(1,-1) translate(0,-256)" /></svg>