<?xml version="1.0" encoding="utf-8" ?>
<svg baseProfile="full" height="256" version="1.1" width="256" xmlns="http://www.w3.org/2000/svg" xmlns:ev="http://www.w3.org/2001/xml-events" xmlns:xlink="http://www.w3.org/1999/xlink"><defs /><path d="M226.99851989746094 -22.178131103515625Q226.99851989746094 -22.178131103515625 240.97744750976562 -14.37225341796875Q254.9563751220703 -6.566375732421875 274.99481201171875 6.960693359375Q295.0332489013672 20.487762451171875 315.258056640625 38.042633056640625Q335.4828643798828 55.597503662109375 348.8649139404297 75.55088806152344Q375.3633117675781 115.97715759277344 383.2984848022461 146.58030700683594Q391.23365783691406 177.18345642089844 390.291748046875 194.39776611328125Q389.34983825683594 211.61207580566406 389.34983825683594 211.61207580566406Q389.34983825683594 211.61207580566406 373.5575942993164 208.44965362548828Q357.7653503417969 205.2872314453125 331.7813720703125 197.8946762084961Q305.7973937988281 190.5021209716797 274.4647521972656 177.09657287597656Q243.13211059570312 163.69102478027344 211.91846466064453 143.4645233154297Q180.70481872558594 123.23802185058594 153.875244140625 94.43975830078125Q123.65702819824219 61.2864990234375 113.54965209960938 33.83240509033203Q103.44227600097656 6.3783111572265625 104.55670166015625 -13.369400024414062Q105.67112731933594 -33.11711120605469 110.54000854492188 -43.734825134277344Q115.40888977050781 -54.3525390625 115.40888977050781 -54.3525390625L221.75376892089844 21.017898559570312Z" fill="#000000" stroke="none" transform="scale(1,-1) translate(0,-256)" /><path d="M219.2464599609375 15.1429443359375Q219.2464599609375 15.1429443359375 232.37890625 24.296875Q245.5113525390625 33.4508056640625 264.2423095703125 48.6680908203125Q282.9732666015625 63.8853759765625 301.7214050292969 82.74191284179688Q320.46954345703125 101.59844970703125 332.5389862060547 121.54924011230469Q346.5782165527344 145.80575561523438 339.2684326171875 160.6990966796875Q331.9586486816406 175.59243774414062 310.2593307495117 180.51348114013672Q288.5600128173828 185.4345245361328 259.01161193847656 179.50135803222656Q229.4632110595703 173.5681915283203 199.1634521484375 155.9593505859375Q168.8636932373047 138.3505096435547 144.21478271484375 108.39642333984375Q116.48153686523438 74.01571655273438 107.8639144897461 47.846580505371094Q99.24629211425781 21.677444458007812 101.11299133300781 4.1476593017578125Q102.97969055175781 -13.382125854492188 108.09044647216797 -22.14856719970703Q113.20120239257812 -30.915008544921875 113.20120239257812 -30.915008544921875L212.4630889892578 53.05439758300781Z" fill="#000000" stroke="none" transform="scale(1,-1) translate(0,-256)" /><path d="M1048.001480102539 -22.178131103515625Q1048.001480102539 -22.178131103515625 1034.0225524902344 -14.37225341796875Q1020.0436248779297 -6.566375732421875 1000.0051879882812 6.960693359375Q979.9667510986328 20.487762451171875 959.741943359375 38.042633056640625Q939.5171356201172 55.597503662109375 926.1350860595703 75.55088806152344Q899.6366882324219 115.97715759277344 891.7015151977539 146.58030700683594Q883.7663421630859 177.18345642089844 884.708251953125 194.39776611328125Q885.6501617431641 211.61207580566406 885.6501617431641 211.61207580566406Q885.6501617431641 211.61207580566406 901.4424057006836 208.44965362548828Q917.2346496582031 205.2872314453125 943.2186279296875 197.8946762084961Q969.2026062011719 190.5021209716797 1000.5352478027344 177.09657287597656Q1031.8678894042969 163.69102478027344 1063.0815353393555 143.4645233154297Q1094.295181274414 123.23802185058594 1121.124755859375 94.43975830078125Q1151.3429718017578 61.2864990234375 1161.4503479003906 33.83240509033203Q1171.5577239990234 6.3783111572265625 1170.4432983398438 -13.369400024414062Q1169.328872680664 -33.11711120605469 1164.4599914550781 -43.734825134277344Q1159.5911102294922 -54.3525390625 1159.5911102294922 -54.3525390625L1053.2462310791016 21.017898559570312Z" fill="#000000" stroke="none" transform="scale(1,-1) translate(0,-256)" /><path d="M1055.7535400390625 15.1429443359375Q1055.7535400390625 15.1429443359375 1042.62109375 24.296875Q1029.4886474609375 33.4508056640625 1010.7576904296875 48.6680908203125Q992.0267333984375 63.8853759765625 973.2785949707031 82.74191284179688Q954.5304565429688 101.59844970703125 942.4610137939453 121.54924011230469Q928.4217834472656 145.80575561523438 935.7315673828125 160.6990966796875Q943.0413513183594 175.59243774414062 964.7406692504883 180.51348114013672Q986.4399871826172 185.4345245361328 1015.9883880615234 179.50135803222656Q1045.5367889404297 173.5681915283203 1075.8365478515625 155.9593505859375Q1106.1363067626953 138.3505096435547 1130.7852172851562 108.39642333984375Q1158.5184631347656 74.01571655273438 1167.136085510254 47.846580505371094Q1175.7537078857422 21.677444458007812 1173.8870086669922 4.1476593017578125Q1172.0203094482422 -13.382125854492188 1166.909553527832 -22.14856719970703Q1161.7987976074219 -30.915008544921875 1161.7987976074219 -30.915008544921875L1062.5369110107422 53.05439758300781Z" fill="#000000" stroke="none" transform="scale(1,-1) translate(0,-256)" /><path d="M1025.575698852539 736.7026062011719Q1078.3879852294922 675.2919006347656 1104.7146224975586 614.8847198486328Q1131.041259765625 554.4775390625 1136.1532745361328 483.2845001220703Q1141.2652893066406 412.0914611816406 1131.4620208740234 319.7639465332031Q1125.3800964355469 264.371337890625 1109.6894454956055 229.13070678710938Q1093.998794555664 193.89007568359375 1077.1123733520508 174.25486755371094Q1060.2259521484375 154.61965942382812 1047.566764831543 146.5885772705078Q1034.9075775146484 138.5574951171875 1034.9075775146484 138.5574951171875L1037.681167602539 280.6900634765625Q1037.681167602539 280.6900634765625 1010.8095932006836 287.5444030761719Q983.9380187988281 294.39874267578125 942.721076965332 309.3239288330078Q901.5041351318359 324.2491149902344 856.4304046630859 346.5536346435547Q811.3566741943359 368.858154296875 774.9713592529297 400.7320251464844Q701.1629180908203 462.55224609375 673.7949523925781 495.22412109375Q646.4269866943359 527.89599609375 646.4269866943359 527.89599609375Q646.4269866943359 527.89599609375 613.7014541625977 491.03985595703125Q580.9759216308594 454.1837158203125 512.9813385009766 403.8941955566406Q478.49363708496094 379.2459411621094 433.60284423828125 359.6699981689453Q388.71205139160156 340.09405517578125 346.9346923828125 326.30067443847656Q305.15733337402344 312.5072937011719 277.51039123535156 305.25547790527344Q249.8634490966797 298.003662109375 249.8634490966797 298.003662109375L260.0494842529297 153.67056274414062Q260.0494842529297 153.67056274414062 246.2135238647461 162.21841430664062Q232.3775634765625 170.76626586914062 213.27057647705078 191.10350036621094Q194.16358947753906 211.44073486328125 177.86959838867188 247.79214477539062Q161.5756072998047 284.1435546875 155.64073181152344 338.7966613769531Q152.45834350585938 380.7356262207031 155.05040740966797 436.68324279785156Q157.64247131347656 492.630859375 172.84622955322266 554.17578125Q188.04998779296875 615.720703125 221.68386840820312 673.4975738525391Q255.3177490234375 731.2744445800781 311.7384490966797 777.8941802978516Q368.1591491699219 824.513916015625 453.20409393310547 851.5846710205078Q538.2490386962891 878.6554260253906 657.2272491455078 876.3348388671875Q738.2124176025391 874.7552795410156 801.4158325195312 858.9143218994141Q864.6192474365234 843.0733642578125 913.17333984375 819.7270812988281Q917.172607421875 819.6490783691406 950.7864379882812 799.5158386230469Q984.4002685546875 779.3825988769531 1025.575698852539 736.7026062011719Z" fill="#000000" stroke="none" transform="scale(1,-1) translate(0,-256)" /></svg>