<?xml version="1.0" encoding="utf-8" ?>
<svg baseProfile="full" height="256" version="1.1" width="256" xmlns="http://www.w3.org/2000/svg" xmlns:ev="http://www.w3.org/2001/xml-events" xmlns:xlink="http://www.w3.org/1999/xlink"><defs /><path d="M342 309Q334 297 342.5 286.0Q351 275 365 279Q369 280 373.5 282.5Q378 285 383 287Q389 289 395.5 290.5Q402 292 408 293Q432 298 455.0 293.5Q478 289 501 281Q509 277 517.5 278.5Q526 280 530 289Q535 299 528.5 308.0Q522 317 515 323Q491 344 457.5 350.0Q424 356 392.5 346.0Q361 336 342 309Z" fill="#6d4c41" stroke="none" transform="scale(1,-1) translate(0,-256)" /><path d="M909 279Q922 274 931.5 284.5Q941 295 935 307Q930 317 920.0 325.0Q910 333 900 338Q850 365 797 345Q789 342 772.5 332.0Q756 322 746.5 309.5Q737 297 749 284Q755 277 763.0 278.0Q771 279 779 283Q803 292 825 295Q847 297 868.0 292.5Q889 288 909 279Z" fill="#6d4c41" stroke="none" transform="scale(1,-1) translate(0,-256)" /></svg>