<?xml version="1.0" encoding="utf-8" ?>
<svg baseProfile="full" height="256" version="1.1" width="256" xmlns="http://www.w3.org/2000/svg" xmlns:ev="http://www.w3.org/2001/xml-events" xmlns:xlink="http://www.w3.org/1999/xlink"><defs /><path d="M207 770Q207 770 210.5 772.5Q214 775 221 778Q229 783 233.5 785.5Q238 788 238 788L843 569Q843 569 864.5 556.5Q886 544 919.5 524.0Q953 504 991.0 482.0Q1029 460 1063.5 440.5Q1098 421 1121.0 408.5Q1144 396 1146 396Q1146 396 1147.5 388.0Q1149 380 1149.5 371.0Q1150 362 1149 360Q1148 357 1119.0 360.0Q1090 363 1043.0 364.0Q996 365 943 355Q890 346 847.5 329.0Q805 312 767.0 291.5Q729 271 688.5 250.5Q648 230 600 213Q527 189 471.0 190.0Q415 191 379 192Q343 193 322.0 185.0Q301 177 292.0 169.0Q283 161 283 161Z" fill="#2f2f2f" stroke="none" transform="scale(1,-1) translate(0,-256)" /></svg>