<?xml version="1.0" encoding="utf-8" ?>
<svg baseProfile="full" height="256" version="1.1" width="256" xmlns="http://www.w3.org/2000/svg" xmlns:ev="http://www.w3.org/2001/xml-events" xmlns:xlink="http://www.w3.org/1999/xlink"><defs /><path d="M238 788 244 742 1114 401 1146 396Q1146 396 1141.5 419.5Q1137 443 1130.0 481.5Q1123 520 1115.0 565.5Q1107 611 1099 655Q1087 718 1073.5 772.5Q1060 827 1050.5 860.5Q1041 894 1041 894Q1041 894 1016.5 903.0Q992 912 947.0 918.0Q902 924 841 916Q787 909 743.5 887.5Q700 866 657.0 843.0Q614 820 563 809Q528 801 500.0 801.5Q472 802 445.5 805.5Q419 809 389.0 811.5Q359 814 320 812Q276 809 257.0 798.5Q238 788 238 788Z" fill="#434343" stroke="none" transform="scale(1,-1) translate(0,-256)" /><path d="M1017 871Q1017 871 1032.0 825.0Q1047 779 1066 679Q1076 629 1085.0 580.0Q1094 531 1102.0 491.0Q1110 451 1114.5 426.5Q1119 402 1120 400Q1120 398 1088.0 402.0Q1056 406 1001.5 404.0Q947 402 881 381Q826 364 772.0 337.5Q718 311 668.0 286.0Q618 261 578 250Q538 238 506.5 234.5Q475 231 445.0 231.5Q415 232 381 232Q348 233 327.0 228.5Q306 224 306 224L243 747Q243 747 251.5 754.0Q260 761 282.5 768.5Q305 776 349 780Q375 782 408.0 776.5Q441 771 481.0 768.5Q521 766 568 777Q615 788 650.5 807.5Q686 827 721.5 848.0Q757 869 805 882Q853 896 900.0 893.5Q947 891 979.5 883.0Q1012 875 1017 871Z" fill="#434343" stroke="none" transform="scale(1,-1) translate(0,-256)" /></svg>