<?xml version="1.0" encoding="utf-8" ?>
<svg baseProfile="full" height="256" version="1.1" width="256" xmlns="http://www.w3.org/2000/svg" xmlns:ev="http://www.w3.org/2001/xml-events" xmlns:xlink="http://www.w3.org/1999/xlink"><defs /><path d="M586 914Q586 914 599.5 914.0Q613 914 632.0 914.0Q651 914 667.5 914.0Q684 914 689 913Q700 913 704.0 907.0Q708 901 709 892Q710 887 713.0 868.0Q716 849 718.5 831.5Q721 814 721 814L663 787L552 810Q552 810 555.0 827.5Q558 845 562.0 863.5Q566 882 567 888Q568 896 571.5 905.0Q575 914 586 914Z" fill="#fc2b26" stroke="none" transform="scale(1,-1) translate(0,-256)" /></svg>