<?xml version="1.0" encoding="utf-8" ?>
<svg baseProfile="full" height="256" version="1.1" width="256" xmlns="http://www.w3.org/2000/svg" xmlns:ev="http://www.w3.org/2001/xml-events" xmlns:xlink="http://www.w3.org/1999/xlink"><defs /><path d="M142.56199645996094 446.43800354003906Q142.56199645996094 446.43800354003906 156.56199645996094 446.43800354003906Q170.56199645996094 446.43800354003906 189.56199645996094 446.43800354003906Q208.56199645996094 446.43800354003906 225.06199645996094 445.93800354003906Q241.56199645996094 445.43800354003906 247.56199645996094 445.43800354003906Q257.56199645996094 445.43800354003906 261.56199645996094 439.43800354003906Q265.56199645996094 433.43800354003906 267.56199645996094 424.43800354003906Q268.56199645996094 419.43800354003906 271.06199645996094 399.93800354003906Q273.56199645996094 380.43800354003906 276.06199645996094 363.43800354003906Q278.56199645996094 346.43800354003906 278.56199645996094 346.43800354003906L220.56199645996094 319.43800354003906L108.56199645996094 342.43800354003906Q108.56199645996094 342.43800354003906 112.06199645996094 359.93800354003906Q115.56199645996094 377.43800354003906 119.06199645996094 395.93800354003906Q122.56199645996094 414.43800354003906 123.56199645996094 420.43800354003906Q125.56199645996094 428.43800354003906 128.56199645996094 437.43800354003906Q131.56199645996094 446.43800354003906 142.56199645996094 446.43800354003906Z" fill="#a47ecc" stroke="none" transform="scale(1,-1) translate(0,-256)" /></svg>