<?xml version="1.0" encoding="utf-8" ?>
<svg baseProfile="full" height="256" version="1.1" width="256" xmlns="http://www.w3.org/2000/svg" xmlns:ev="http://www.w3.org/2001/xml-events" xmlns:xlink="http://www.w3.org/1999/xlink"><defs /><path d="M260.5 766.218994140625Q260.5 766.218994140625 274.5 766.218994140625Q288.5 766.218994140625 307.5 766.218994140625Q326.5 766.218994140625 343.0 765.718994140625Q359.5 765.218994140625 365.5 765.218994140625Q375.5 765.218994140625 379.5 759.218994140625Q383.5 753.218994140625 385.5 744.218994140625Q386.5 739.218994140625 389.0 719.718994140625Q391.5 700.218994140625 394.0 683.218994140625Q396.5 666.218994140625 396.5 666.218994140625L338.5 639.218994140625L226.5 662.218994140625Q226.5 662.218994140625 230.0 679.718994140625Q233.5 697.218994140625 237.0 715.718994140625Q240.5 734.218994140625 241.5 740.218994140625Q243.5 748.218994140625 246.5 757.218994140625Q249.5 766.218994140625 260.5 766.218994140625Z" fill="#f47daa" stroke="none" transform="scale(1,-1) translate(0,-256)" /></svg>