<?xml version="1.0" encoding="utf-8" ?>
<svg baseProfile="full" height="256" version="1.1" width="256" xmlns="http://www.w3.org/2000/svg" xmlns:ev="http://www.w3.org/2001/xml-events" xmlns:xlink="http://www.w3.org/1999/xlink"><defs /><path d="M784 18 802 -17Q766 -29 724.5 -36.0Q683 -43 645 -43Q637 -43 626 -43Q591 -41 554.5 -35.0Q518 -29 479 -15L500 24Q535 12 570.0 5.5Q605 -1 636 -3Q709 -7 784 18Z" fill="#9b9b9b" stroke="none" transform="scale(1,-1) translate(0,-256)" /><path d="M637 -43 744 118 720 133 638 10 563 136 539 121Z" fill="#9b9b9b" stroke="none" transform="scale(1,-1) translate(0,-256)" /><path d="M622.2599945068359 301.1231994628906V14.978546142578125H651.5926666259766V301.1231994628906Z" fill="#9b9b9b" stroke="none" transform="scale(1,-1) translate(0,-256)" /><path d="M650 146Q698 146 746.0 164.5Q794 183 830 216Q908 287 913 404Q917 523 841 601Q795 649 739.0 668.0Q683 687 641 686Q588 686 535.5 663.0Q483 640 446 601Q369 521 373 400Q375 334 401.5 286.5Q428 239 468.5 208.5Q509 178 554.0 163.0Q599 148 638 146Q644 146 650 146ZM641 658Q642 658 642 658Q678 658 728.5 641.0Q779 624 821 581Q888 512 884 405Q880 301 811 237Q776 205 730.5 188.5Q685 172 639 175Q604 176 564.0 189.5Q524 203 487.5 230.0Q451 257 427.0 299.5Q403 342 401 401Q398 510 466 581Q507 623 555.5 640.5Q604 658 641 658Z" fill="#9b9b9b" stroke="none" transform="scale(1,-1) translate(0,-256)" /><path d="M653 -11Q732 -11 809.5 19.0Q887 49 946 103Q1073 220 1081 408Q1088 598 966 723Q916 775 856.5 805.5Q797 836 739.5 849.0Q682 862 638 862Q594 862 539.0 848.5Q484 835 428.0 804.5Q372 774 324 724Q200 595 206 400Q209 314 237.5 247.5Q266 181 312.5 133.5Q359 86 414.5 54.5Q470 23 527.5 7.0Q585 -9 635 -11Q645 -11 653 -11ZM638 840Q680 840 735.0 827.5Q790 815 846.0 786.0Q902 757 950 707Q1065 589 1058 409Q1051 230 931 120Q871 65 793.0 36.5Q715 8 636 11Q588 14 533.5 29.0Q479 44 426.0 73.5Q373 103 329.5 148.5Q286 194 258.5 256.5Q231 319 228 400Q222 586 340 708Q386 756 439.0 785.0Q492 814 544.0 826.5Q596 839 638 840Z" fill="#9b9b9b" stroke="none" transform="scale(1,-1) translate(0,-256)" /></svg>