<?xml version="1.0" encoding="utf-8" ?>
<svg baseProfile="full" height="256" version="1.1" width="256" xmlns="http://www.w3.org/2000/svg" xmlns:ev="http://www.w3.org/2001/xml-events" xmlns:xlink="http://www.w3.org/1999/xlink"><defs /><path d="M294 122Q294 122 308.0 122.0Q322 122 341.5 122.0Q361 122 378.0 121.5Q395 121 401 121Q412 121 416.0 115.0Q420 109 421 100Q422 95 425.0 75.5Q428 56 430.5 39.0Q433 22 433 22L374 -5L259 18Q259 18 262.5 35.5Q266 53 269.5 71.5Q273 90 274 96Q276 104 279.5 113.0Q283 122 294 122Z" fill="#2584ff" stroke="none" transform="scale(1,-1) translate(0,-256)" /></svg>