<?xml version="1.0" encoding="utf-8" ?>
<svg baseProfile="full" height="256" version="1.1" width="256" xmlns="http://www.w3.org/2000/svg" xmlns:ev="http://www.w3.org/2001/xml-events" xmlns:xlink="http://www.w3.org/1999/xlink"><defs /><path d="M1033 450Q1033 450 1047.0 450.0Q1061 450 1080.0 450.0Q1099 450 1115.5 449.5Q1132 449 1138 449Q1148 449 1152.0 443.0Q1156 437 1158 428Q1159 423 1161.5 403.5Q1164 384 1166.5 367.0Q1169 350 1169 350L1111 323L999 346Q999 346 1002.5 363.5Q1006 381 1009.5 399.5Q1013 418 1014 424Q1016 432 1019.0 441.0Q1022 450 1033 450Z" fill="#ffd61c" stroke="none" transform="scale(1,-1) translate(0,-256)" /></svg>