<?xml version="1.0" encoding="utf-8" ?>
<svg baseProfile="full" height="256" version="1.1" width="256" xmlns="http://www.w3.org/2000/svg" xmlns:ev="http://www.w3.org/2001/xml-events" xmlns:xlink="http://www.w3.org/1999/xlink"><defs /><path d="M327 -140 324 -166 367 -164 572 144 609 299 582 332 517 152Q517 152 503.5 131.5Q490 111 469.0 78.5Q448 46 424.5 9.5Q401 -27 379.0 -60.5Q357 -94 342.5 -116.0Q328 -138 327 -140Z" fill="#8f7cf3" stroke="none" transform="scale(1,-1) translate(0,-256)" /><path d="M664 305 692 329 759 154 968 -163 919 -167 712 143Z" fill="#8f7cf3" stroke="none" transform="scale(1,-1) translate(0,-256)" /><path d="M263 -144Q265 -143 297.5 -142.0Q330 -141 383.5 -141.0Q437 -141 504.0 -141.5Q571 -142 642 -142Q714 -143 782.5 -143.0Q851 -143 906.0 -143.5Q961 -144 994.0 -145.0Q1027 -146 1028 -147Q1031 -149 1032.0 -165.0Q1033 -181 1032.0 -196.0Q1031 -211 1028 -213Q1027 -214 993.5 -214.0Q960 -214 904.0 -214.0Q848 -214 779.5 -213.5Q711 -213 640 -213Q569 -213 502.5 -212.5Q436 -212 382.5 -211.5Q329 -211 297.5 -210.5Q266 -210 265 -210Q261 -209 259.5 -194.5Q258 -180 258.5 -164.5Q259 -149 263 -144Z" fill="#8f7cf3" stroke="none" transform="scale(1,-1) translate(0,-256)" /></svg>