<?xml version="1.0" encoding="utf-8" ?>
<svg baseProfile="full" height="256" version="1.1" width="256" xmlns="http://www.w3.org/2000/svg" xmlns:ev="http://www.w3.org/2001/xml-events" xmlns:xlink="http://www.w3.org/1999/xlink"><defs /><path d="M588 28Q588 28 601.5 28.0Q615 28 634.5 28.0Q654 28 670.5 28.0Q687 28 692 28Q703 27 706.5 21.0Q710 15 712 7Q713 1 715.5 -18.0Q718 -37 720.5 -54.5Q723 -72 723 -72L665 -99L553 -75Q553 -75 556.5 -58.0Q560 -41 563.5 -22.0Q567 -3 568 2Q570 10 573.5 19.0Q577 28 588 28Z" fill="#69a5ad" stroke="none" transform="scale(1,-1) translate(0,-256)" /></svg>