<?xml version="1.0" encoding="utf-8" ?>
<svg baseProfile="full" height="256" version="1.1" width="256" xmlns="http://www.w3.org/2000/svg" xmlns:ev="http://www.w3.org/2001/xml-events" xmlns:xlink="http://www.w3.org/1999/xlink"><defs /><path d="M988 743Q1118 610 1110 407Q1102 206 966 81Q901 21 820 -11L804 25Q882 55 941 109Q1065 223 1073 408Q1080 595 961 717Q912 768 853.5 798.5Q795 829 738.5 842.0Q682 855 638 854Q595 854 541.0 840.5Q487 827 432.0 797.5Q377 768 329 718Q208 592 214 399Q217 300 255.5 227.5Q294 155 353.5 106.5Q413 58 479 32L456 -6Q385 23 322.5 77.0Q260 131 220.0 211.0Q180 291 176 398Q170 606 302 744Q367 812 457.0 851.5Q547 891 638 892Q685 892 746.5 878.0Q808 864 871.0 831.5Q934 799 988 743Z" fill="#c9c9c9" stroke="none" transform="scale(1,-1) translate(0,-256)" /></svg>