<?xml version="1.0" encoding="utf-8" ?>
<svg baseProfile="full" height="256" version="1.1" width="256" xmlns="http://www.w3.org/2000/svg" xmlns:ev="http://www.w3.org/2001/xml-events" xmlns:xlink="http://www.w3.org/1999/xlink"><defs /><path d="M913.3889007568359 541.4546508789062Q913.3966369628906 549.5044708251953 907.8291397094727 555.1859817504883Q902.2616424560547 560.8674926757812 894.4182281494141 560.8750305175781Q886.5748138427734 560.882568359375 880.9964065551758 555.2117691040039Q875.4179992675781 549.5409698486328 875.4102630615234 541.4911499023438Q875.4025268554688 533.4413299560547 880.9700241088867 527.7598190307617Q886.5375213623047 522.0783081054688 894.3809356689453 522.0707702636719Q902.2243499755859 522.063232421875 907.8027572631836 527.7340316772461Q913.3811645507812 533.4048309326172 913.3889007568359 541.4546508789062Z" fill="#d47858" stroke="none" transform="scale(1,-1) translate(0,-256)" /><path d="M905 87Q897 90 889.0 87.0Q881 84 878 76Q875 68 878.0 60.0Q881 52 889 49Q897 46 904.5 49.5Q912 53 916 60Q919 68 915.5 76.0Q912 84 905 87Z" fill="#d47858" stroke="none" transform="scale(1,-1) translate(0,-256)" /><path d="M353.33099365234375 3.2682037353515625Q345.84912109375 6.34228515625 338.51615142822266 3.173431396484375Q331.1831817626953 0.00457763671875 328.21510314941406 -7.21929931640625Q325.2470245361328 -14.44317626953125 328.28688049316406 -21.72314453125Q331.3267364501953 -29.00311279296875 338.80860900878906 -32.07719421386719Q346.03248596191406 -35.04527282714844 353.3124542236328 -32.00541687011719Q360.59242248535156 -28.965560913085938 363.5605010986328 -21.741683959960938Q366.52857971191406 -14.517807006835938 363.5417251586914 -7.1088409423828125Q360.55487060546875 0.3001251220703125 353.33099365234375 3.2682037353515625Z" fill="#d47858" stroke="none" transform="scale(1,-1) translate(0,-256)" /><path d="M979 377Q974 386 963.0 388.5Q952 391 941 386Q931 380 927.0 369.5Q923 359 927 350Q932 341 943.0 338.0Q954 335 965 341Q975 346 979.0 356.5Q983 367 979 377Z" fill="#d47858" stroke="none" transform="scale(1,-1) translate(0,-256)" /><path d="M705.906005859375 125.35600280761719Q700.906005859375 134.3560028076172 689.906005859375 136.8560028076172Q678.906005859375 139.3560028076172 667.906005859375 134.3560028076172Q657.906005859375 128.3560028076172 653.906005859375 117.85600280761719Q649.906005859375 107.35600280761719 653.906005859375 98.35600280761719Q658.906005859375 89.35600280761719 669.906005859375 86.35600280761719Q680.906005859375 83.35600280761719 691.906005859375 89.35600280761719Q701.906005859375 94.35600280761719 705.906005859375 104.85600280761719Q709.906005859375 115.35600280761719 705.906005859375 125.35600280761719Z" fill="#d47858" stroke="none" transform="scale(1,-1) translate(0,-256)" /><path d="M664 -4Q656 2 644.5 0.0Q633 -2 625 -12Q617 -22 617.5 -33.5Q618 -45 626 -52Q634 -58 645.5 -56.0Q657 -54 665 -44Q673 -34 672.5 -22.5Q672 -11 664 -4Z" fill="#d47858" stroke="none" transform="scale(1,-1) translate(0,-256)" /><path d="M551.1361999511719 -29.43743896484375Q527.0072631835938 -7.9473876953125 505.5172119140625 -32.076324462890625Q482.4921569824219 -57.92875671386719 506.62109375 -79.41880798339844Q530.7500305175781 -100.90885925292969 553.7750854492188 -75.05642700195312Q575.26513671875 -50.927490234375 551.1361999511719 -29.43743896484375Z" fill="#d47858" stroke="none" transform="scale(1,-1) translate(0,-256)" /></svg>