<?xml version="1.0" encoding="utf-8" ?>
<svg baseProfile="full" height="256" version="1.1" width="256" xmlns="http://www.w3.org/2000/svg" xmlns:ev="http://www.w3.org/2001/xml-events" xmlns:xlink="http://www.w3.org/1999/xlink"><defs /><path d="M701 686Q759 718 820.0 740.5Q881 763 938.0 776.5Q995 790 1040.5 797.5Q1086 805 1112.5 807.5Q1139 810 1139 810V698L729 314L369 -215H248Q248 -215 247.0 -193.0Q246 -171 245.5 -135.0Q245 -99 247.0 -54.5Q249 -10 254.0 35.0Q259 80 269 119Q323 325 435.0 462.0Q547 599 701 686Z" fill="#ff8e00" stroke="none" transform="scale(1,-1) translate(0,-256)" /></svg>