<?xml version="1.0" encoding="utf-8" ?>
<svg baseProfile="full" height="256" version="1.1" width="256" xmlns="http://www.w3.org/2000/svg" xmlns:ev="http://www.w3.org/2001/xml-events" xmlns:xlink="http://www.w3.org/1999/xlink"><defs /><path d="M304 -106 1139 757Q1139 757 1139.0 771.5Q1139 786 1139.0 808.5Q1139 831 1138.5 854.0Q1138 877 1136.0 894.0Q1134 911 1131 914Q1129 917 1095.5 917.5Q1062 918 1005.0 910.0Q948 902 874.0 880.5Q800 859 716.0 820.0Q632 781 545.0 718.5Q458 656 376 565Q298 479 249.0 388.5Q200 298 174.0 211.0Q148 124 138.0 48.0Q128 -28 128.0 -86.5Q128 -145 132.5 -178.5Q137 -212 138 -213Q141 -215 158.0 -215.5Q175 -216 196.0 -216.0Q217 -216 233.0 -215.5Q249 -215 249 -215Z" fill="#ff5117" stroke="none" transform="scale(1,-1) translate(0,-256)" /></svg>