<?xml version="1.0" encoding="utf-8" ?>
<svg baseProfile="full" height="256" version="1.1" width="256" xmlns="http://www.w3.org/2000/svg" xmlns:ev="http://www.w3.org/2001/xml-events" xmlns:xlink="http://www.w3.org/1999/xlink"><defs /><path d="M747 -119Q742 -119 738 -119Q711 -118 675.5 -114.5Q640 -111 597.0 -95.5Q554 -80 505.0 -46.0Q456 -12 400 49Q390 60 368.0 87.5Q346 115 319.0 154.5Q292 194 265.0 242.0Q238 290 218 343Q215 351 217.0 366.0Q219 381 233 386Q248 391 258.0 381.0Q268 371 276 359Q279 354 292.0 334.0Q305 314 320.0 291.0Q335 268 347 254Q353 247 357.0 249.0Q361 251 362 253Q363 253 363 253Q343 288 321.0 325.0Q299 362 280.5 397.0Q262 432 250.0 460.0Q238 488 238 505Q238 523 253.5 531.0Q269 539 283 521Q289 514 302.0 497.0Q315 480 330.5 461.0Q346 442 358.0 426.5Q370 411 373 407Q379 401 383.0 402.5Q387 404 390 406Q391 407 391 407Q377 426 356.0 456.5Q335 487 315.5 520.5Q296 554 284.0 583.0Q272 612 275 628Q278 646 297.5 655.0Q317 664 334 647Q340 641 357.5 622.0Q375 603 395.0 581.0Q415 559 429.0 543.0Q443 527 443 527Q443 527 449.0 523.0Q455 519 460 526Q443 547 425.0 572.5Q407 598 394.0 623.0Q381 648 378.5 668.5Q376 689 390 701Q401 710 418.0 709.0Q435 708 465 675Q475 665 510.0 633.0Q545 601 596.0 558.0Q647 515 706.0 469.0Q765 423 823 385Q834 378 841.0 386.0Q848 394 848 404Q841 474 844.0 528.5Q847 583 862.5 614.0Q878 645 908 645Q928 645 937.0 631.5Q946 618 948 597Q949 576 956.0 525.0Q963 474 978 416Q979 413 979.5 410.0Q980 407 981 404Q991 365 1001.0 319.5Q1011 274 1016.5 229.0Q1022 184 1018 145Q1014 103 995.0 60.0Q976 17 949.5 -18.5Q923 -54 895 -71Q853 -96 826.0 -105.0Q799 -114 794 -115Q785 -117 787 -128Q796 -126 806 -123Q876 -119 927.0 -91.5Q978 -64 1013.0 -22.0Q1048 20 1067.0 70.5Q1086 121 1089 174Q1092 208 1090.0 243.5Q1088 279 1086 316Q1082 368 1080.0 425.5Q1078 483 1088 548Q1089 559 1083.0 574.5Q1077 590 1057 594Q1027 601 1003.0 582.0Q979 563 966 531Q966 531 963.5 555.0Q961 579 958 604Q957 631 944.5 643.0Q932 655 917 658Q889 663 867.5 644.5Q846 626 834.5 592.5Q823 559 824 520Q765 618 726.0 669.5Q687 721 670 740Q654 759 634.0 765.0Q614 771 596.0 764.5Q578 758 569.5 740.0Q561 722 568 694Q554 710 535.0 727.0Q516 744 492 743Q473 742 461.5 726.5Q450 711 452 703Q432 725 411.5 725.0Q391 725 379 716Q356 697 360.0 673.0Q364 649 372 633Q351 660 332.5 668.0Q314 676 300.0 673.5Q286 671 279 666Q257 650 256.0 627.0Q255 604 265.0 580.5Q275 557 286 539Q273 552 258.0 550.0Q243 548 232.5 536.5Q222 525 222 509Q223 481 233.0 454.0Q243 427 264 393Q254 403 239.0 402.0Q224 401 212.5 390.0Q201 379 201 358Q201 333 213.5 301.5Q226 270 243.0 239.0Q260 208 275 184Q310 127 339.5 90.0Q369 53 397.0 25.5Q425 -2 454 -30Q523 -97 603.0 -119.5Q683 -142 762 -132Q762 -119 747 -119Z" fill="#faa700" stroke="none" transform="scale(1,-1) translate(0,-256)" /></svg>