<?xml version="1.0" encoding="utf-8" ?>
<svg baseProfile="full" height="256" version="1.1" width="256" xmlns="http://www.w3.org/2000/svg" xmlns:ev="http://www.w3.org/2001/xml-events" xmlns:xlink="http://www.w3.org/1999/xlink"><defs /><path d="M966 531Q966 531 963.5 555.0Q961 579 958 604Q957 623 950.5 634.0Q944 645 935 651Q936 649 938 646Q941 641 943.5 632.0Q946 623 945 605Q944 534 954.0 480.5Q964 427 976 377Q987 329 996.5 278.5Q1006 228 1005 163Q1003 67 956.5 0.0Q910 -67 826.0 -98.0Q742 -129 626 -115Q613 -113 610 -121Q657 -135 705.0 -135.0Q753 -135 800 -125Q804 -123 805.5 -122.5Q807 -122 807 -122Q865 -109 917.0 -70.0Q969 -31 1001.5 29.0Q1034 89 1034 164Q1034 225 1020.0 290.0Q1006 355 990.0 417.5Q974 480 967 532Q967 532 966 533Q966 532 966 531Z" fill="#b55e19" stroke="none" transform="scale(1,-1) translate(0,-256)" /><path d="M265 394Q263 397 261 398Q263 395 264 393Q261 396 257 398Q252 396 256 388Q259 383 276.5 349.5Q294 316 327.0 265.0Q360 214 412 157Q415 153 418.0 147.5Q421 142 422 139Q424 129 432.5 130.0Q441 131 443 139Q444 143 445.0 146.5Q446 150 447 153Q448 155 448.0 159.5Q448 164 443 168Q398 214 353.5 268.0Q309 322 265 394Z" fill="#b55e19" stroke="none" transform="scale(1,-1) translate(0,-256)" /><path d="M286 540Q285 542 283 543Q285 541 286 539Q281 545 274 547Q272 544 276 535Q291 501 319.0 462.5Q347 424 378.0 387.5Q409 351 435.5 323.5Q462 296 473 284Q479 279 480.5 275.0Q482 271 484 266Q489 247 498.0 247.0Q507 247 511 254Q514 260 516.5 264.5Q519 269 519 272Q520 275 520.0 278.5Q520 282 516 285Q477 320 436.0 363.5Q395 407 356.0 453.0Q317 499 286 540Z" fill="#b55e19" stroke="none" transform="scale(1,-1) translate(0,-256)" /><path d="M373 635Q371 638 367 645Q369 639 372 633Q364 644 355 652Q352 647 356 638Q373 606 401.0 568.0Q429 530 460.5 493.0Q492 456 520.0 426.5Q548 397 565 383Q569 380 573.5 373.5Q578 367 580 360Q585 347 593.5 346.5Q602 346 608 353Q610 356 612.5 360.0Q615 364 617 368Q622 376 610 386Q560 429 517.0 473.0Q474 517 441.5 553.5Q409 590 391.0 612.5Q373 635 373 635Z" fill="#b55e19" stroke="none" transform="scale(1,-1) translate(0,-256)" /><path d="M582 756Q565 741 565 715Q567 705 569 697Q572 681 588.0 655.0Q604 629 625.5 598.0Q647 567 668.0 534.0Q689 501 701 472Q713 463 722.0 456.0Q731 449 741 442Q718 498 689.5 540.5Q661 583 634.0 619.5Q607 656 590 692Q579 714 579.0 729.5Q579 745 582 756Z" fill="#b55e19" stroke="none" transform="scale(1,-1) translate(0,-256)" /></svg>