<?xml version="1.0" encoding="utf-8" ?>
<svg baseProfile="full" height="256" version="1.1" width="256" xmlns="http://www.w3.org/2000/svg" xmlns:ev="http://www.w3.org/2001/xml-events" xmlns:xlink="http://www.w3.org/1999/xlink"><defs /><path d="M966 531Q966 531 963.5 555.0Q961 579 958 604Q957 631 944.5 643.0Q932 655 917 658Q889 663 867.5 644.5Q846 626 834.5 592.5Q823 559 824 520Q765 618 726.0 669.5Q687 721 670 740Q654 759 634.0 765.0Q614 771 596.0 764.5Q578 758 569.5 740.0Q561 722 568 694Q554 710 535.0 727.0Q516 744 492 743Q473 742 461.5 726.5Q450 711 452 703Q432 725 411.5 725.0Q391 725 379 716Q356 697 360.0 673.0Q364 649 372 633Q351 660 332.5 668.0Q314 676 300.0 673.5Q286 671 279 666Q257 650 256.0 627.0Q255 604 265.0 580.5Q275 557 286 539Q273 552 258.0 550.0Q243 548 232.5 536.5Q222 525 222 509Q223 481 233.0 454.0Q243 427 264 393Q254 403 239.0 402.0Q224 401 212.5 390.0Q201 379 201 358Q201 333 213.5 301.5Q226 270 243.0 239.0Q260 208 275 184Q310 127 339.5 90.0Q369 53 397.0 25.5Q425 -2 454 -30Q533 -106 625.5 -125.5Q718 -145 806 -123Q876 -119 927.0 -91.5Q978 -64 1013.0 -22.0Q1048 20 1067.0 70.5Q1086 121 1089 174Q1094 229 1088.5 287.0Q1083 345 1080.0 409.0Q1077 473 1088 548Q1089 559 1083.0 574.5Q1077 590 1057 594Q1027 601 1003.0 582.0Q979 563 966 531Z" fill="#ffca28" stroke="none" transform="scale(1,-1) translate(0,-256)" /></svg>