<?xml version="1.0" encoding="utf-8" ?>
<svg baseProfile="full" height="256" version="1.1" width="256" xmlns="http://www.w3.org/2000/svg" xmlns:ev="http://www.w3.org/2001/xml-events" xmlns:xlink="http://www.w3.org/1999/xlink"><defs /><path d="M222 151Q235 152 240.0 142.0Q245 132 241.0 121.0Q237 110 224 109Q224 109 209.0 108.5Q194 108 173.0 107.0Q152 106 134.0 105.0Q116 104 112 103Q99 103 94.5 113.0Q90 123 94.0 134.0Q98 145 110 146Q115 146 131.0 147.0Q147 148 166.5 148.5Q186 149 202.0 150.0Q218 151 222 151Z" fill="#bdccd4" stroke="none" transform="scale(1,-1) translate(0,-256)" /><path d="M309 11Q313 22 324.0 23.0Q335 24 344.0 16.5Q353 9 349 -2Q349 -2 344.0 -16.5Q339 -31 332.5 -51.0Q326 -71 320.0 -87.5Q314 -104 312 -109Q308 -121 297.0 -121.5Q286 -122 277.5 -115.0Q269 -108 273 -96Q275 -91 280.0 -76.0Q285 -61 291.5 -42.5Q298 -24 303.0 -9.0Q308 6 309 11Z" fill="#bdccd4" stroke="none" transform="scale(1,-1) translate(0,-256)" /><path d="M1082 778Q1091 786 1101.0 781.0Q1111 776 1114.5 765.0Q1118 754 1108 746Q1108 746 1096.5 736.0Q1085 726 1069.0 712.5Q1053 699 1039.5 688.0Q1026 677 1022 673Q1013 665 1003.0 670.5Q993 676 989.5 686.5Q986 697 996 705Q999 709 1011.5 719.5Q1024 730 1039.0 742.5Q1054 755 1066.5 765.0Q1079 775 1082 778Z" fill="#bdccd4" stroke="none" transform="scale(1,-1) translate(0,-256)" /><path d="M797 836Q793 848 802.0 855.0Q811 862 822.0 860.5Q833 859 837 847Q837 847 841.5 832.5Q846 818 851.5 798.0Q857 778 862.0 761.0Q867 744 868 739Q871 727 862.0 720.5Q853 714 842.0 715.0Q831 716 828 728Q826 732 822.0 747.5Q818 763 812.5 782.0Q807 801 802.5 816.0Q798 831 797 836Z" fill="#bdccd4" stroke="none" transform="scale(1,-1) translate(0,-256)" /><path d="M254 77Q264 85 273.5 79.5Q283 74 286.0 62.5Q289 51 278 43Q278 43 265.0 34.0Q252 25 232.0 11.0Q212 -3 191.0 -18.0Q170 -33 154.5 -43.5Q139 -54 136 -57Q126 -64 116.5 -58.0Q107 -52 104.5 -41.0Q102 -30 112 -23Q116 -20 137.0 -5.0Q158 10 183.5 28.0Q209 46 230.0 60.5Q251 75 254 77Z" fill="#bdccd4" stroke="none" transform="scale(1,-1) translate(0,-256)" /><path d="M971 896Q975 907 986.0 908.0Q997 909 1005.5 901.5Q1014 894 1011 882Q1011 882 1005.5 866.5Q1000 851 991.5 827.5Q983 804 974.5 780.0Q966 756 960.0 738.5Q954 721 953 717Q949 705 938.0 704.5Q927 704 918.0 711.5Q909 719 913 731Q915 736 923.5 760.0Q932 784 942.5 814.0Q953 844 961.5 867.5Q970 891 971 896Z" fill="#bdccd4" stroke="none" transform="scale(1,-1) translate(0,-256)" /></svg>