<?xml version="1.0" encoding="utf-8" ?>
<svg baseProfile="full" height="256" version="1.1" width="256" xmlns="http://www.w3.org/2000/svg" xmlns:ev="http://www.w3.org/2001/xml-events" xmlns:xlink="http://www.w3.org/1999/xlink"><defs /><path d="M1174 460H1185Q1185 395 1179.0 344.0Q1173 293 1147.0 255.0Q1121 217 1063.0 191.5Q1005 166 902.0 153.0Q799 140 639 140Q487 140 387.0 154.0Q287 168 228.0 195.0Q169 222 140.0 260.5Q111 299 102.0 349.0Q93 399 92 460H103Q104 393 118.0 351.0Q132 309 178 271Q231 228 343.0 207.0Q455 186 635 186Q826 186 938.5 205.0Q1051 224 1101 265Q1130 288 1146.0 314.5Q1162 341 1168.0 375.5Q1174 410 1174 460Z" fill="#3e2723" stroke="none" transform="scale(1,-1) translate(0,-256)" /><path d="M694 59Q708 59 708 72V145Q708 158 694 158H581Q567 158 567 145V72Q567 59 581 59Z" fill="#3e2723" stroke="none" transform="scale(1,-1) translate(0,-256)" /></svg>