<?xml version="1.0" encoding="utf-8" ?>
<svg baseProfile="full" height="256" version="1.1" width="256" xmlns="http://www.w3.org/2000/svg" xmlns:ev="http://www.w3.org/2001/xml-events" xmlns:xlink="http://www.w3.org/1999/xlink"><defs /><path d="M1181 576Q1181 575 1181 574Q1181 571 1181 567Q1181 567 1181.0 566.5Q1181 566 1181 565Q1181 564 1181.5 562.5Q1182 561 1182 559Q1182 558 1182.0 557.5Q1182 557 1182 557Q1182 554 1182 553Q1182 552 1182.5 550.5Q1183 549 1183 548Q1183 547 1183.0 546.5Q1183 546 1183 545Q1183 544 1183.0 542.5Q1183 541 1183 540Q1183 537 1184 536Q1184 534 1184.0 532.5Q1184 531 1184 529Q1184 528 1184.0 527.5Q1184 527 1184 526Q1184 524 1184.5 522.0Q1185 520 1185 518Q1185 517 1185.0 516.0Q1185 515 1185 514Q1185 514 1185.0 513.0Q1185 512 1185 512H1166Q1166 512 1166.0 512.5Q1166 513 1166 513V520V563Q1166 581 1159 616Q1159 616 1159.0 616.0Q1159 616 1159 616Q1161 614 1164 611Q1164 611 1164.0 611.0Q1164 611 1164 611Q1166 609 1168 606Q1168 606 1168 606Q1170 604 1172 601Q1172 601 1172.0 600.5Q1172 600 1172 600Q1174 598 1175 595Q1175 595 1175 594Q1177 591 1177 589Q1177 589 1177.5 588.5Q1178 588 1178 588Q1179 585 1179 583Q1179 582 1179.5 581.5Q1180 581 1180 581Q1180 578 1181 576Z" fill="#a06841" stroke="none" transform="scale(1,-1) translate(0,-256)" /><path d="M93 562Q93 562 93.0 562.5Q93 563 93 563Q93 565 93.0 566.0Q93 567 93 567Q93 570 94 574Q94 575 94.0 575.5Q94 576 94 577Q95 579 95 582Q95 582 96 584Q96 585 96.5 586.0Q97 587 97 589Q97 589 98 591Q99 593 100 595Q100 596 101 597Q102 599 104 602Q104 602 104.0 602.5Q104 603 104 603Q110 612 119 619Q115 602 113.0 587.5Q111 573 111 563V520Q111 518 111.0 516.0Q111 514 111 512H92Q92 514 92.0 516.0Q92 518 92 520V551Q92 551 92.0 551.0Q92 551 92 552Q92 553 92 556Q92 557 93 558Q93 560 93 562Z" fill="#a06841" stroke="none" transform="scale(1,-1) translate(0,-256)" /><path d="M1184 514Q1184 459 1181.0 412.5Q1178 366 1163.5 329.0Q1149 292 1116.0 264.5Q1083 237 1023.0 218.5Q963 200 868.5 190.5Q774 181 638 181Q481 181 379.5 196.0Q278 211 219.5 239.5Q161 268 133.5 309.0Q106 350 98.5 403.0Q91 456 91 520V551Q92 559 92.0 563.0Q92 567 92 567Q92 599 118 619Q114 602 112.0 587.5Q110 573 110 563V520Q110 470 114.0 426.5Q118 383 133.0 348.0Q148 313 180 286Q234 242 345.5 221.5Q457 201 638 201Q829 201 941.0 219.5Q1053 238 1104 279Q1134 304 1147.0 338.0Q1160 372 1162.5 416.0Q1165 460 1165 514V520V563Q1165 581 1158 616Q1180 596 1180 567Q1180 567 1181.0 553.0Q1182 539 1184 514Z" fill="#a06841" stroke="none" transform="scale(1,-1) translate(0,-256)" /></svg>