<?xml version="1.0" encoding="utf-8" ?>
<svg baseProfile="full" height="256" version="1.1" width="256" xmlns="http://www.w3.org/2000/svg" xmlns:ev="http://www.w3.org/2001/xml-events" xmlns:xlink="http://www.w3.org/1999/xlink"><defs /><path d="M414.31199645996094 827.6880035400391Q414.31199645996094 817.6880035400391 394.31199645996094 807.6880035400391Q374.31199645996094 797.6880035400391 344.81199645996094 784.1880035400391Q315.31199645996094 770.6880035400391 285.31199645996094 750.6880035400391Q255.31199645996094 730.6880035400391 237.31199645996094 700.6880035400391Q223.31199645996094 679.6880035400391 216.81199645996094 652.6880035400391Q210.31199645996094 625.6880035400391 202.31199645996094 605.1880035400391Q194.31199645996094 584.6880035400391 178.31199645996094 584.6880035400391Q161.31199645996094 584.6880035400391 158.31199645996094 611.6880035400391Q155.31199645996094 638.6880035400391 155.31199645996094 671.6880035400391Q156.31199645996094 719.6880035400391 161.81199645996094 757.6880035400391Q167.31199645996094 795.6880035400391 183.31199645996094 815.6880035400391Q199.31199645996094 835.6880035400391 228.81199645996094 843.1880035400391Q258.31199645996094 850.6880035400391 312.31199645996094 852.6880035400391Q356.31199645996094 854.6880035400391 377.81199645996094 852.6880035400391Q399.31199645996094 850.6880035400391 406.81199645996094 844.6880035400391Q414.31199645996094 838.6880035400391 414.31199645996094 827.6880035400391Z" fill="#ffbd52" stroke="none" transform="scale(1,-1) translate(0,-256)" /></svg>