<?xml version="1.0" encoding="utf-8" ?>
<svg baseProfile="full" height="256" version="1.1" width="256" xmlns="http://www.w3.org/2000/svg" xmlns:ev="http://www.w3.org/2001/xml-events" xmlns:xlink="http://www.w3.org/1999/xlink"><defs /><path d="M1045 367Q1048 365 1051 362Q1056 354 1054.5 344.5Q1053 335 1045 330L671 90Q665 87 659 87Q651 88 646.0 94.5Q641 101 642 109V318L295 89Q286 83 276.5 89.0Q267 95 267 108V590Q267 602 276.0 608.5Q285 615 295 608L642 381V590Q641 596 644 602Q649 609 656.5 610.5Q664 612 671 608Z" fill="#fafafa" stroke="none" transform="scale(1,-1) translate(0,-256)" /></svg>