<?xml version="1.0" encoding="utf-8" ?>
<svg baseProfile="full" height="256" version="1.1" width="256" xmlns="http://www.w3.org/2000/svg" xmlns:ev="http://www.w3.org/2001/xml-events" xmlns:xlink="http://www.w3.org/1999/xlink"><defs /><path d="M665 868Q656 877 631.5 881.0Q607 885 574.5 879.0Q542 873 509.0 851.5Q476 830 450 787Q436 765 431.0 739.0Q426 713 433 687Q437 670 452.5 658.0Q468 646 489.5 642.0Q511 638 531.5 645.0Q552 652 567 673Q593 711 613.5 731.0Q634 751 648.5 763.5Q663 776 670 790Q680 809 682.0 829.0Q684 849 665 868Z" fill="#ff7555" stroke="none" transform="scale(1,-1) translate(0,-256)" /></svg>