<?xml version="1.0" encoding="utf-8" ?>
<svg baseProfile="full" height="256" version="1.1" width="256" xmlns="http://www.w3.org/2000/svg" xmlns:ev="http://www.w3.org/2001/xml-events" xmlns:xlink="http://www.w3.org/1999/xlink"><defs /><path d="M372 647Q372 720 408.0 780.5Q444 841 504.5 877.0Q565 913 638 913Q693 913 741.0 892.0Q789 871 825.5 834.5Q862 798 882.5 750.0Q903 702 903 647Q903 645 903.0 641.0Q903 637 903 633Q899 566 866.0 511.5Q833 457 779.0 422.5Q725 388 660 382Q655 381 649.5 381.0Q644 381 638 381Q632 381 627.0 381.0Q622 381 616 382Q550 388 496.0 423.0Q442 458 409.0 513.0Q376 568 372 633Q372 635 372.0 639.0Q372 643 372 647Z" fill="#f44336" stroke="none" transform="scale(1,-1) translate(0,-256)" /></svg>