<?xml version="1.0" encoding="utf-8" ?>
<svg baseProfile="full" height="256" version="1.1" width="256" xmlns="http://www.w3.org/2000/svg" xmlns:ev="http://www.w3.org/2001/xml-events" xmlns:xlink="http://www.w3.org/1999/xlink"><defs /><path d="M643 478Q645 480 663.5 505.5Q682 531 711.5 570.5Q741 610 775.0 656.5Q809 703 842.5 749.5Q876 796 903.5 834.5Q931 873 946.5 896.5Q962 920 959 920Q956 920 934.0 903.0Q912 886 876.5 857.0Q841 828 798.0 792.5Q755 757 710.5 720.0Q666 683 625.5 649.0Q585 615 554.5 590.0Q524 565 510 554Q491 538 455.5 509.0Q420 480 379.5 446.0Q339 412 302.0 381.0Q265 350 241.5 330.0Q218 310 218 310Q218 310 242.0 310.5Q266 311 304.0 312.0Q342 313 385.5 314.0Q429 315 469.5 316.0Q510 317 538.5 318.0Q567 319 575 319Q589 319 591.5 310.0Q594 301 590.5 291.0Q587 281 585 277Q577 266 565 246Q563 242 546.0 213.5Q529 185 502.5 141.5Q476 98 446.5 48.5Q417 -1 390.0 -46.5Q363 -92 343.5 -125.0Q324 -158 318 -167Q300 -197 297.5 -205.0Q295 -213 296 -213Q301 -215 311.5 -206.0Q322 -197 335 -184Q340 -180 362.0 -160.0Q384 -140 418.0 -110.0Q452 -80 491.5 -45.0Q531 -10 570.0 25.0Q609 60 641.5 89.0Q674 118 694 136Q714 154 746.5 183.5Q779 213 817.5 248.5Q856 284 894.0 319.0Q932 354 964.0 383.0Q996 412 1015.5 430.0Q1035 448 1035 448Q1035 448 1008.0 448.0Q981 448 939.0 447.5Q897 447 849.0 446.5Q801 446 757.5 446.0Q714 446 684.5 446.0Q655 446 651 446Q637 447 637.0 458.0Q637 469 643 478Z" fill="#ffc927" stroke="none" transform="scale(1,-1) translate(0,-256)" /></svg>