<?xml version="1.0" encoding="utf-8" ?>
<svg baseProfile="full" height="256" version="1.1" width="256" xmlns="http://www.w3.org/2000/svg" xmlns:ev="http://www.w3.org/2001/xml-events" xmlns:xlink="http://www.w3.org/1999/xlink"><defs /><path d="M632 287Q628 280 612.5 257.0Q597 234 575.0 200.5Q553 167 529.5 130.5Q506 94 484.5 61.5Q463 29 448.5 6.5Q434 -16 431 -21Q421 -40 431.5 -44.5Q442 -49 452 -36Q454 -34 469.0 -14.0Q484 6 507.0 36.5Q530 67 556.0 102.0Q582 137 606.5 169.5Q631 202 649.0 226.5Q667 251 674 259Q686 276 686.0 288.5Q686 301 676 307Q668 311 656.5 308.0Q645 305 632 287Z" fill="#ffe567" stroke="none" transform="scale(1,-1) translate(0,-256)" /><path d="M364 336Q376 344 402.0 368.0Q428 392 459.0 422.5Q490 453 518.0 480.5Q546 508 561 522Q580 540 609.0 568.0Q638 596 667.0 625.0Q696 654 717.5 676.0Q739 698 743 703Q751 714 745.0 721.0Q739 728 726 718Q722 715 702.0 698.0Q682 681 654.5 657.0Q627 633 598.5 608.0Q570 583 547.0 563.5Q524 544 516 537Q507 530 487.0 513.0Q467 496 442.0 474.5Q417 453 392.0 432.0Q367 411 348.5 394.5Q330 378 323 370Q312 359 316.5 346.5Q321 334 334.5 329.5Q348 325 364 336Z" fill="#ffe567" stroke="none" transform="scale(1,-1) translate(0,-256)" /></svg>