<?xml version="1.0" encoding="utf-8" ?>
<svg baseProfile="full" height="256" version="1.1" width="256" xmlns="http://www.w3.org/2000/svg" xmlns:ev="http://www.w3.org/2001/xml-events" xmlns:xlink="http://www.w3.org/1999/xlink"><defs /><path d="M919 847V843Q919 843 935.5 844.0Q952 845 979.0 843.5Q1006 842 1037.5 835.5Q1069 829 1098 814Q1138 793 1164.5 762.5Q1191 732 1205.0 704.0Q1219 676 1221 663L1225 665Q1226 682 1219.0 716.0Q1212 750 1190.5 786.5Q1169 823 1127 848Q1085 874 1042.5 875.5Q1000 877 967.0 866.5Q934 856 919 847Z" fill="#f48fb1" stroke="none" transform="scale(1,-1) translate(0,-256)" /><path d="M356.0 847.0V843.0Q356.0 843.0 339.5 844.0Q323.0 845.0 296.0 843.5Q269.0 842.0 237.5 835.5Q206.0 829.0 177.0 814.0Q137.0 793.0 110.5 762.5Q84.0 732.0 70.0 704.0Q56.0 676.0 54.0 663.0L50.0 665.0Q49.0 682.0 56.0 716.0Q63.0 750.0 84.5 786.5Q106.0 823.0 148.0 848.0Q190.0 874.0 232.5 875.5Q275.0 877.0 308.0 866.5Q341.0 856.0 356.0 847.0Z" fill="#f48fb1" stroke="none" transform="scale(1,-1) translate(0,-256)" /><path d="M302 -163 304 -160Q296 -154 287.5 -148.0Q279 -142 271 -135Q262 -129 254.0 -122.5Q246 -116 238 -110Q221 -97 206.0 -82.5Q191 -68 177 -53Q149 -23 128 14Q118 32 108.5 50.5Q99 69 90 88L87 86Q86 63 90.0 41.5Q94 20 102 -1Q118 -44 149 -78Q164 -95 182.0 -108.5Q200 -122 219 -133Q238 -144 258.5 -151.5Q279 -159 302 -163Z" fill="#f48fb1" stroke="none" transform="scale(1,-1) translate(0,-256)" /><path d="M1188 87 1185 88Q1180 79 1175.5 69.5Q1171 60 1167 50Q1158 33 1147 14Q1125 -24 1098 -53Q1084 -68 1069.0 -82.0Q1054 -96 1038 -110Q1029 -116 1021.0 -122.5Q1013 -129 1005 -135Q996 -141 988.0 -147.5Q980 -154 971 -160L973 -163Q996 -159 1016.5 -151.5Q1037 -144 1056 -133Q1096 -111 1126 -78Q1157 -44 1173 -1Q1181 20 1185.0 41.5Q1189 63 1188 87Z" fill="#f48fb1" stroke="none" transform="scale(1,-1) translate(0,-256)" /></svg>