<?xml version="1.0" encoding="utf-8" ?>
<svg baseProfile="full" height="256" version="1.1" width="256" xmlns="http://www.w3.org/2000/svg" xmlns:ev="http://www.w3.org/2001/xml-events" xmlns:xlink="http://www.w3.org/1999/xlink"><defs /><path d="M636 65Q669 65 709 78Q750 93 792.0 123.0Q834 153 869.0 198.5Q904 244 925.5 305.5Q947 367 947 446Q947 550 919.0 622.0Q891 694 845.5 738.5Q800 783 745.0 803.0Q690 823 636 823Q582 823 527.0 803.0Q472 783 426.0 738.5Q380 694 352.5 622.0Q325 550 325 446Q325 367 346.0 305.5Q367 244 402.0 198.5Q437 153 479.0 123.0Q521 93 563 78Q602 65 636 65Z" fill="#ffca28" stroke="none" transform="scale(1,-1) translate(0,-256)" /></svg>