<?xml version="1.0" encoding="utf-8" ?>
<svg baseProfile="full" height="256" version="1.1" width="256" xmlns="http://www.w3.org/2000/svg" xmlns:ev="http://www.w3.org/2001/xml-events" xmlns:xlink="http://www.w3.org/1999/xlink"><defs /><path d="M639 65Q729 65 815.0 49.5Q901 34 970.0 4.5Q1039 -25 1079.5 -70.0Q1120 -115 1120 -174V-212H1106H1092H183H169H155V-174Q155 -111 196.0 -66.0Q237 -21 306.0 8.0Q375 37 461.0 50.5Q547 64 638 65Z" fill="#000000" stroke="none" transform="scale(1,-1) translate(0,-256)" /><path d="M267 -67Q262 -29 286.5 7.0Q311 43 356 62Q307 133 280.0 243.0Q253 353 253 508Q253 590 276.0 663.5Q299 737 346.5 793.0Q394 849 466.5 880.5Q539 912 638 913Q736 912 806.5 880.5Q877 849 923.0 793.0Q969 737 993.0 663.0Q1017 589 1024 505Q1025 495 1027.0 458.5Q1029 422 1028.5 368.0Q1028 314 1022.5 249.5Q1017 185 1003.5 117.0Q990 49 964.0 -14.5Q938 -78 898.0 -129.5Q858 -181 799 -212H395Q281 -165 267 -67ZM638 606Q638 606 612.5 592.5Q587 579 549.0 553.5Q511 528 470.5 492.0Q430 456 399.0 411.0Q368 366 358 313Q358 313 368.0 290.0Q378 267 399.5 233.0Q421 199 454.0 165.0Q487 131 533.0 107.5Q579 84 638 84Q697 84 742.5 107.5Q788 131 821.5 165.0Q855 199 876.0 233.0Q897 267 907.5 290.0Q918 313 918 313Q906 365 874.5 410.5Q843 456 803.0 492.0Q763 528 725.0 553.5Q687 579 662.5 592.5Q638 606 638 606Z" fill="#000000" stroke="none" transform="scale(1,-1) translate(0,-256)" /></svg>