<?xml version="1.0" encoding="utf-8" ?>
<svg baseProfile="full" height="256" version="1.1" width="256" xmlns="http://www.w3.org/2000/svg" xmlns:ev="http://www.w3.org/2001/xml-events" xmlns:xlink="http://www.w3.org/1999/xlink"><defs /><path d="M712.656005859375 236.0Q725.656005859375 244.0 735.656005859375 235.5Q745.656005859375 227.0 739.656005859375 215.0Q736.656005859375 208.0 720.156005859375 196.0Q703.656005859375 184.0 680.656005859375 174.5Q657.656005859375 165.0 635.656005859375 165.0Q612.656005859375 165.0 589.656005859375 174.5Q566.656005859375 184.0 550.156005859375 196.0Q533.656005859375 208.0 529.656005859375 215.0Q524.656005859375 227.0 534.656005859375 235.5Q544.656005859375 244.0 557.656005859375 236.0Q568.656005859375 230.0 589.656005859375 226.5Q610.656005859375 223.0 635.156005859375 223.0Q659.656005859375 223.0 680.656005859375 226.5Q701.656005859375 230.0 712.656005859375 236.0Z" fill="#795548" stroke="none" transform="scale(1,-1) translate(0,-256)" /></svg>