<?xml version="1.0" encoding="utf-8" ?>
<svg baseProfile="full" height="256" version="1.1" width="256" xmlns="http://www.w3.org/2000/svg" xmlns:ev="http://www.w3.org/2001/xml-events" xmlns:xlink="http://www.w3.org/1999/xlink"><defs /><path d="M529.9322662353516 398.12364196777344Q529.9322662353516 416.9996795654297 516.7190399169922 431.1567077636719Q503.5058135986328 445.31373596191406 484.62977600097656 445.31373596191406Q465.7537384033203 445.31373596191406 452.54051208496094 431.1567077636719Q439.32728576660156 416.9996795654297 439.32728576660156 398.12364196777344Q439.32728576660156 379.2476043701172 452.54051208496094 365.090576171875Q465.7537384033203 350.9335479736328 484.62977600097656 350.9335479736328Q503.5058135986328 350.9335479736328 516.7190399169922 365.090576171875Q529.9322662353516 379.2476043701172 529.9322662353516 398.12364196777344Z" fill="#404040" stroke="none" transform="scale(1,-1) translate(0,-256)" /><path d="M837.9947662353516 398.12364196777344Q837.9947662353516 416.9996795654297 824.7815399169922 431.1567077636719Q811.5683135986328 445.31373596191406 792.6922760009766 445.31373596191406Q773.8162384033203 445.31373596191406 760.6030120849609 431.1567077636719Q747.3897857666016 416.9996795654297 747.3897857666016 398.12364196777344Q747.3897857666016 379.2476043701172 760.6030120849609 365.090576171875Q773.8162384033203 350.9335479736328 792.6922760009766 350.9335479736328Q811.5683135986328 350.9335479736328 824.7815399169922 365.090576171875Q837.9947662353516 379.2476043701172 837.9947662353516 398.12364196777344Z" fill="#404040" stroke="none" transform="scale(1,-1) translate(0,-256)" /></svg>