<?xml version="1.0" encoding="utf-8" ?>
<svg baseProfile="full" height="256" version="1.1" width="256" xmlns="http://www.w3.org/2000/svg" xmlns:ev="http://www.w3.org/2001/xml-events" xmlns:xlink="http://www.w3.org/1999/xlink"><defs /><path d="M652 796Q652 796 627.5 789.0Q603 782 558.5 755.5Q514 729 453 672Q412 632 386.0 587.0Q360 542 345.5 498.5Q331 455 325.0 419.0Q319 383 318.0 361.5Q317 340 317 340Q317 340 314.0 365.5Q311 391 311.0 432.5Q311 474 318.0 523.0Q325 572 343.5 620.0Q362 668 397 706Q443 755 488.0 776.0Q533 797 570.5 800.5Q608 804 630.0 800.0Q652 796 652 796Z" fill="#a23dc9" stroke="none" transform="scale(1,-1) translate(0,-256)" /></svg>