<?xml version="1.0" encoding="utf-8" ?>
<svg baseProfile="full" height="256" version="1.1" width="256" xmlns="http://www.w3.org/2000/svg" xmlns:ev="http://www.w3.org/2001/xml-events" xmlns:xlink="http://www.w3.org/1999/xlink"><defs /><path d="M346 100Q346 100 358.0 92.5Q370 85 385.0 75.0Q400 65 412.0 57.0Q424 49 425 48Q425 47 416.0 32.5Q407 18 394.5 -0.5Q382 -19 372.0 -33.0Q362 -47 362 -47Q362 -47 342.0 -46.5Q322 -46 301 -43Q277 -40 255.5 -35.5Q234 -31 223 -29Q218 -29 229.0 -15.5Q240 -2 259.0 17.0Q278 36 298.0 55.5Q318 75 332.0 87.5Q346 100 346 100Z" fill="#0a1237" stroke="none" transform="scale(1,-1) translate(0,-256)" /><path d="M460 -50 429 8 500 23 513 -45Q513 -45 504.5 -47.5Q496 -50 487 -50Q478 -50 469.0 -50.0Q460 -50 460 -50Z" fill="#0a1237" stroke="none" transform="scale(1,-1) translate(0,-256)" /></svg>