<?xml version="1.0" encoding="utf-8" ?>
<svg baseProfile="full" height="256" version="1.1" width="256" xmlns="http://www.w3.org/2000/svg" xmlns:ev="http://www.w3.org/2001/xml-events" xmlns:xlink="http://www.w3.org/1999/xlink"><defs /><path d="M119 -153Q119 -150 119.0 -135.5Q119 -121 119.0 -107.0Q119 -93 119 -89Q119 -83 121.0 -81.5Q123 -80 126 -80Q127 -80 138.5 -80.0Q150 -80 164.5 -80.0Q179 -80 189.5 -80.0Q200 -80 200 -80V-165Q200 -165 189.0 -165.0Q178 -165 163.0 -165.0Q148 -165 136.5 -165.0Q125 -165 124 -165Q120 -165 119.5 -160.5Q119 -156 119 -153Z" fill="#db0d2a" stroke="none" transform="scale(1,-1) translate(0,-256)" /><path d="M335.83380126953125 -79.89411926269531V-164.1908721923828H424.2980499267578V-79.89411926269531Z" fill="#db0d2a" stroke="none" transform="scale(1,-1) translate(0,-256)" /><path d="M627 -80Q630 -80 630 -83V-156Q630 -164 623 -164H548V-80Z" fill="#db0d2a" stroke="none" transform="scale(1,-1) translate(0,-256)" /><path d="M743 -163Q743 -163 727.0 -163.0Q711 -163 693.5 -163.0Q676 -163 672 -163Q663 -162 663 -155Q663 -153 663.0 -136.5Q663 -120 663.0 -103.5Q663 -87 663 -85Q662 -82 666 -82Q667 -82 678.5 -82.0Q690 -82 705.0 -82.0Q720 -82 731.5 -82.0Q743 -82 743 -82Z" fill="#db0d2a" stroke="none" transform="scale(1,-1) translate(0,-256)" /><path d="M1166 -82Q1169 -82 1169 -85V-148Q1169 -163 1155 -163H1088V-82Z" fill="#db0d2a" stroke="none" transform="scale(1,-1) translate(0,-256)" /><path d="M776 100 1020 150 1106 -26Q1106 -26 1081.5 -33.5Q1057 -41 1012.5 -48.5Q968 -56 907 -55Q839 -54 800.5 -48.5Q762 -43 746.0 -38.5Q730 -34 730 -34Z" fill="#db0d2a" stroke="none" transform="scale(1,-1) translate(0,-256)" /><path d="M294 130 336 168Q336 168 331.5 155.0Q327 142 324 133Q320 112 307.0 85.0Q294 58 281 44Q260 20 235.0 3.5Q210 -13 167 -15Q125 -18 102.0 1.0Q79 20 83 37Q86 49 99.5 52.0Q113 55 133.5 55.0Q154 55 179.5 58.5Q205 62 232 76Q265 93 279.5 111.5Q294 130 294 130Z" fill="#db0d2a" stroke="none" transform="scale(1,-1) translate(0,-256)" /><path d="M438 99 464 101Q464 101 477.5 90.0Q491 79 506 70Q521 61 538.5 54.5Q556 48 578 44Q600 40 612.0 31.0Q624 22 626 11Q629 0 621.5 -14.0Q614 -28 585 -29Q555 -29 531.0 -19.5Q507 -10 483 13Q466 28 456.0 48.5Q446 69 442.0 84.0Q438 99 438 99Z" fill="#db0d2a" stroke="none" transform="scale(1,-1) translate(0,-256)" /><path d="M995 387Q995 387 1001.0 383.0Q1007 379 1013 374Q1018 370 1024.0 363.5Q1030 357 1030 357Q1030 357 1026.0 351.5Q1022 346 1016 334Q1010 322 1007.5 306.5Q1005 291 1005 291Q1005 291 1005.0 278.0Q1005 265 1006.5 247.0Q1008 229 1011.5 214.0Q1015 199 1022 194Q1036 187 1050.0 185.5Q1064 184 1075.0 182.0Q1086 180 1091 172Q1100 157 1086.5 153.0Q1073 149 1049 157Q1023 164 1010.0 176.5Q997 189 997 189Q997 189 990.0 205.0Q983 221 975.5 247.0Q968 273 966 300Q964 328 971.5 347.5Q979 367 987.0 377.0Q995 387 995 387Z" fill="#db0d2a" stroke="none" transform="scale(1,-1) translate(0,-256)" /><path d="M810 391Q810 391 804.0 387.5Q798 384 794 380Q788 377 782.5 371.5Q777 366 777 366Q777 366 783.5 359.0Q790 352 796 337Q803 320 804.5 303.0Q806 286 806 286Q806 286 804.5 268.0Q803 250 800.0 231.0Q797 212 792 208Q785 201 773.0 194.0Q761 187 741 182Q721 177 716.0 167.5Q711 158 716 152Q720 145 728.5 145.0Q737 145 756 156Q775 167 790.5 181.5Q806 196 806 196L843 280Q843 280 844.5 295.5Q846 311 838 343Q830 370 820.0 380.5Q810 391 810 391Z" fill="#db0d2a" stroke="none" transform="scale(1,-1) translate(0,-256)" /><path d="M405 473Q429 473 436.5 470.5Q444 468 444 462Q445 455 437.0 446.0Q429 437 404 437Q383 437 374.0 445.0Q365 453 366 462Q366 467 374.5 470.0Q383 473 405 473Z" fill="#db0d2a" stroke="none" transform="scale(1,-1) translate(0,-256)" /><path d="M902 477Q925 477 931.5 474.5Q938 472 939 466Q941 458 934.0 449.0Q927 440 902 440Q882 441 872.5 448.5Q863 456 865 466Q866 471 873.5 474.5Q881 478 902 477Z" fill="#db0d2a" stroke="none" transform="scale(1,-1) translate(0,-256)" /></svg>