<?xml version="1.0" encoding="utf-8" ?>
<svg baseProfile="full" height="256" version="1.1" width="256" xmlns="http://www.w3.org/2000/svg" xmlns:ev="http://www.w3.org/2001/xml-events" xmlns:xlink="http://www.w3.org/1999/xlink"><defs /><path d="M294 130Q294 130 312.0 132.0Q330 134 349 148Q368 162 370.5 182.5Q373 203 362 212Q353 219 341.5 220.0Q330 221 321.0 219.5Q312 218 312 218Q312 218 311.5 207.0Q311 196 309 177Q308 158 301.0 144.0Q294 130 294 130Z" fill="#d9cbc7" stroke="none" transform="scale(1,-1) translate(0,-256)" /><path d="M471 96Q471 96 456.5 93.5Q442 91 424 90Q406 89 391.5 90.5Q377 92 371 102Q368 109 370.5 120.0Q373 131 388 141Q403 152 423.0 153.5Q443 155 443 155Q443 155 441.5 146.0Q440 137 448 124Q457 108 464.0 102.0Q471 96 471 96Z" fill="#d9cbc7" stroke="none" transform="scale(1,-1) translate(0,-256)" /></svg>