<?xml version="1.0" encoding="utf-8" ?>
<svg baseProfile="full" height="256" version="1.1" width="256" xmlns="http://www.w3.org/2000/svg" xmlns:ev="http://www.w3.org/2001/xml-events" xmlns:xlink="http://www.w3.org/1999/xlink"><defs /><path d="M262 579 270 482Q270 482 259.0 484.5Q248 487 236.5 497.0Q225 507 224 530Q223 556 232.5 566.0Q242 576 252.0 577.5Q262 579 262 579Z" fill="#d7ccc7" stroke="none" transform="scale(1,-1) translate(0,-256)" /><path d="M543 573 535 535 540 479Q540 479 550.5 482.0Q561 485 572.0 496.0Q583 507 583 532Q583 556 573.0 564.5Q563 573 553.0 573.0Q543 573 543 573Z" fill="#d7ccc7" stroke="none" transform="scale(1,-1) translate(0,-256)" /></svg>