<?xml version="1.0" encoding="utf-8" ?>
<svg baseProfile="full" height="256" version="1.1" width="256" xmlns="http://www.w3.org/2000/svg" xmlns:ev="http://www.w3.org/2001/xml-events" xmlns:xlink="http://www.w3.org/1999/xlink"><defs /><path d="M809 733Q810 734 813.0 745.5Q816 757 825.0 771.0Q834 785 852.5 795.0Q871 805 902 804Q935 803 952.5 793.0Q970 783 977.0 769.5Q984 756 986.5 744.5Q989 733 992 730Q997 725 1014.5 717.5Q1032 710 1059 685Q1101 648 1120.0 603.5Q1139 559 1137 518Q1135 482 1124.0 465.0Q1113 448 1087 426Q1067 409 1047.0 395.0Q1027 381 1013.0 372.0Q999 363 999 363L841 345Q841 345 820.5 358.5Q800 372 780 385Q769 392 750.0 403.5Q731 415 712.0 431.0Q693 447 679.5 467.5Q666 488 665 514Q664 569 686.0 610.5Q708 652 732 676Q763 709 783.5 718.0Q804 727 809 733Z" fill="#2f2f2f" stroke="none" transform="scale(1,-1) translate(0,-256)" /><path d="M411 358Q368 358 340.0 372.5Q312 387 295.0 408.5Q278 430 270.0 451.5Q262 473 260 486Q256 506 255.0 540.0Q254 574 254.0 607.5Q254 641 255 656Q255 683 265.5 697.5Q276 712 289 719Q305 727 325.5 727.5Q346 728 346 728Q346 728 346.0 745.5Q346 763 345.5 783.5Q345 804 346 812Q346 827 358.5 847.5Q371 868 406 868Q441 868 452.5 851.0Q464 834 466 817Q468 805 468.0 784.0Q468 763 467.5 745.5Q467 728 467 728Q467 728 480.5 727.5Q494 727 512 721Q530 715 541.0 698.0Q552 681 552 658Q552 645 552.5 605.0Q553 565 550 510Q548 474 535.5 439.0Q523 404 493.0 381.0Q463 358 411 358Z" fill="#2f2f2f" stroke="none" transform="scale(1,-1) translate(0,-256)" /><path d="M472 551Q482 551 491.0 555.5Q500 560 509 551Q517 542 506.0 529.5Q495 517 472 517Q449 517 439.0 528.0Q429 539 435 549Q440 557 451.0 553.5Q462 550 472 551Z" fill="#2f2f2f" stroke="none" transform="scale(1,-1) translate(0,-256)" /><path d="M339 551Q349 551 360.0 555.0Q371 559 377 549Q384 539 373.0 528.5Q362 518 338 517Q313 516 303.5 529.5Q294 543 300 551Q307 561 318.5 556.0Q330 551 339 551Z" fill="#2f2f2f" stroke="none" transform="scale(1,-1) translate(0,-256)" /><path d="M969 556Q979 557 988.5 560.0Q998 563 1006 555Q1015 546 1004.0 533.0Q993 520 969 521Q947 521 936.5 532.0Q926 543 932 553Q937 561 948.0 558.5Q959 556 969 556Z" fill="#2f2f2f" stroke="none" transform="scale(1,-1) translate(0,-256)" /><path d="M836 557Q846 557 857.5 559.5Q869 562 876 552Q882 542 871.5 531.0Q861 520 836 520Q812 520 802.5 533.0Q793 546 798 554Q805 564 816.5 560.5Q828 557 836 557Z" fill="#2f2f2f" stroke="none" transform="scale(1,-1) translate(0,-256)" /></svg>