<?xml version="1.0" encoding="utf-8" ?>
<svg baseProfile="full" height="256" version="1.1" width="256" xmlns="http://www.w3.org/2000/svg" xmlns:ev="http://www.w3.org/2001/xml-events" xmlns:xlink="http://www.w3.org/1999/xlink"><defs /><path d="M312 218 358 205V338H312Z" fill="#f9df96" stroke="none" transform="scale(1,-1) translate(0,-256)" /><path d="M907 125Q904 125 888.5 135.0Q873 145 850.5 160.0Q828 175 806.5 190.5Q785 206 770.5 217.0Q756 228 756 229Q756 231 764.5 245.0Q773 259 791.5 277.0Q810 295 838.5 308.5Q867 322 906 323Q947 324 976.5 310.5Q1006 297 1025.5 278.0Q1045 259 1054.0 244.0Q1063 229 1062 226Q1062 224 1046.5 213.5Q1031 203 1009.0 188.0Q987 173 964.0 158.5Q941 144 925.0 134.5Q909 125 907 125Z" fill="#f9df96" stroke="none" transform="scale(1,-1) translate(0,-256)" /></svg>