<?xml version="1.0" encoding="utf-8" ?>
<svg baseProfile="full" height="256" version="1.1" width="256" xmlns="http://www.w3.org/2000/svg" xmlns:ev="http://www.w3.org/2001/xml-events" xmlns:xlink="http://www.w3.org/1999/xlink"><defs /><path d="M164 507Q165 510 171.0 517.0Q177 524 184.0 531.0Q191 538 194 538Q195 538 203.5 530.5Q212 523 220.5 515.0Q229 507 229 504Q229 501 222.5 493.5Q216 486 209.5 479.5Q203 473 201 473Q199 472 190.0 479.5Q181 487 172.5 495.5Q164 504 164 507Z" fill="#ff7879" stroke="none" transform="scale(1,-1) translate(0,-256)" /><path d="M314 458Q314 461 321.5 467.0Q329 473 337.5 477.5Q346 482 349 482Q353 481 359.5 472.0Q366 463 372.0 452.5Q378 442 379 440Q379 438 372.0 431.5Q365 425 356.5 420.0Q348 415 343 414Q339 414 332.0 424.0Q325 434 319.5 445.0Q314 456 314 458Z" fill="#ff7879" stroke="none" transform="scale(1,-1) translate(0,-256)" /><path d="M212 613Q212 616 218.5 622.0Q225 628 233.0 633.0Q241 638 244 637Q247 636 253.5 628.0Q260 620 265.5 611.0Q271 602 270 599Q270 596 263.5 590.5Q257 585 249.5 580.5Q242 576 240 575Q238 575 231.0 583.5Q224 592 218.0 601.5Q212 611 212 613Z" fill="#ff7879" stroke="none" transform="scale(1,-1) translate(0,-256)" /><path d="M389 588Q390 590 399.0 594.5Q408 599 417.5 602.5Q427 606 429 606Q430 606 435.5 594.0Q441 582 445.5 570.0Q450 558 450 555Q449 551 434.5 546.0Q420 541 414 540Q411 540 405.0 551.5Q399 563 394.0 575.0Q389 587 389 588Z" fill="#ff7879" stroke="none" transform="scale(1,-1) translate(0,-256)" /><path d="M458 660Q459 663 467.5 667.0Q476 671 484.5 673.5Q493 676 496 674Q498 673 502.5 663.5Q507 654 511.0 643.5Q515 633 514 630Q514 625 504.0 621.0Q494 617 488 615Q475 612 470 623Q468 627 462.5 641.5Q457 656 458 660Z" fill="#ff7879" stroke="none" transform="scale(1,-1) translate(0,-256)" /><path d="M545 628Q542 630 540.0 640.5Q538 651 537.5 663.0Q537 675 540 680Q541 682 550.5 683.0Q560 684 570.0 684.5Q580 685 582 683Q584 682 585.5 670.5Q587 659 588.0 647.0Q589 635 587 632Q587 630 577.0 629.0Q567 628 557.0 627.5Q547 627 545 628Z" fill="#ff7879" stroke="none" transform="scale(1,-1) translate(0,-256)" /><path d="M498 512Q502 516 516.0 520.5Q530 525 536 523Q539 522 543.5 511.0Q548 500 551.5 488.5Q555 477 554 475Q553 473 544.5 469.5Q536 466 526.5 463.5Q517 461 514 463Q511 464 506.0 475.5Q501 487 498.5 498.5Q496 510 498 512Z" fill="#ff7879" stroke="none" transform="scale(1,-1) translate(0,-256)" /><path d="M695 649Q698 651 708.0 651.0Q718 651 727.5 649.5Q737 648 738 645Q740 643 739.5 629.0Q739 615 737.5 601.5Q736 588 734 587Q732 585 722.0 584.5Q712 584 702.0 585.0Q692 586 690 589Q688 593 687.5 606.0Q687 619 689.0 632.0Q691 645 695 649Z" fill="#ff7879" stroke="none" transform="scale(1,-1) translate(0,-256)" /><path d="M782 695Q785 697 796.0 697.0Q807 697 818.0 695.0Q829 693 830 689Q831 685 829.0 671.0Q827 657 823.5 644.0Q820 631 817 629Q813 627 795.5 629.0Q778 631 774 636Q773 638 774.0 651.5Q775 665 777.5 678.5Q780 692 782 695Z" fill="#ff7879" stroke="none" transform="scale(1,-1) translate(0,-256)" /><path d="M790 507Q794 508 804.0 504.5Q814 501 823.0 496.0Q832 491 833 489Q833 487 828.5 473.5Q824 460 819.0 446.5Q814 433 812 432Q809 430 798.5 432.0Q788 434 778.5 438.5Q769 443 768 449Q767 451 771.5 464.5Q776 478 781.5 491.5Q787 505 790 507Z" fill="#ff7879" stroke="none" transform="scale(1,-1) translate(0,-256)" /><path d="M1028 593Q1034 594 1047.5 584.0Q1061 574 1061 571Q1061 569 1053.0 557.0Q1045 545 1036.5 532.5Q1028 520 1025 520Q1022 520 1014.5 524.5Q1007 529 1000.0 535.0Q993 541 993 544Q993 547 999.5 558.5Q1006 570 1014.5 581.0Q1023 592 1028 593Z" fill="#ff7879" stroke="none" transform="scale(1,-1) translate(0,-256)" /><path d="M1029 440Q1035 440 1047.0 429.5Q1059 419 1059 414Q1059 411 1049.0 399.5Q1039 388 1027.5 378.0Q1016 368 1013 369Q1007 369 995.5 380.5Q984 392 984 396Q984 399 993.5 409.5Q1003 420 1014.0 430.0Q1025 440 1029 440Z" fill="#ff7879" stroke="none" transform="scale(1,-1) translate(0,-256)" /></svg>