<?xml version="1.0" encoding="utf-8" ?>
<svg baseProfile="full" height="256" version="1.1" width="256" xmlns="http://www.w3.org/2000/svg" xmlns:ev="http://www.w3.org/2001/xml-events" xmlns:xlink="http://www.w3.org/1999/xlink"><defs /><path d="M275 216 443 162 619 106 965 194Q965 194 973.0 196.0Q981 198 989.0 210.0Q997 222 996 252Q996 274 979.0 303.5Q962 333 922.0 361.0Q882 389 813.5 408.0Q745 427 643 429Q540 430 471.5 412.0Q403 394 362.0 366.5Q321 339 302.0 311.5Q283 284 279 268Q274 250 274.5 233.0Q275 216 275 216Z" fill="#b7d016" stroke="none" transform="scale(1,-1) translate(0,-256)" /></svg>