<?xml version="1.0" encoding="utf-8" ?>
<svg baseProfile="full" height="256" version="1.1" width="256" xmlns="http://www.w3.org/2000/svg" xmlns:ev="http://www.w3.org/2001/xml-events" xmlns:xlink="http://www.w3.org/1999/xlink"><defs /><path d="M311 -146Q314 -150 328.0 -156.5Q342 -163 350 -166Q362 -172 377.0 -176.5Q392 -181 395 -182Q402 -184 402.0 -177.5Q402 -171 402 -168Q402 -166 402.0 -144.5Q402 -123 402.0 -91.5Q402 -60 401.5 -28.0Q401 4 401.0 28.0Q401 52 401 58Q401 71 393.0 90.5Q385 110 360 118Q334 127 324.0 114.0Q314 101 314 90Q314 87 313.5 63.0Q313 39 312.0 4.5Q311 -30 310.5 -64.0Q310 -98 310.0 -121.5Q310 -145 311 -146Z" fill="#2f2f2f" stroke="none" transform="scale(1,-1) translate(0,-256)" /><path d="M136 -13Q136 -13 145.5 -24.5Q155 -36 164 -46Q170 -52 180.5 -60.5Q191 -69 199.5 -75.5Q208 -82 209 -82Q213 -85 215.0 -83.5Q217 -82 217 -78Q217 -77 216.5 -58.0Q216 -39 216.0 -11.0Q216 17 216.0 47.0Q216 77 216.0 101.0Q216 125 216 136Q215 188 179 209Q161 219 148.0 209.5Q135 200 135 182Q135 179 135.0 158.5Q135 138 135.0 110.0Q135 82 135.0 54.5Q135 27 135.5 7.5Q136 -12 136 -13Z" fill="#2f2f2f" stroke="none" transform="scale(1,-1) translate(0,-256)" /><path d="M871 -189Q872 -190 887.5 -185.0Q903 -180 916 -174Q932 -168 945.5 -161.5Q959 -155 959 -153Q960 -152 960.0 -132.0Q960 -112 959.5 -82.5Q959 -53 959.0 -23.0Q959 7 958.5 29.0Q958 51 958 55Q957 63 956.5 78.5Q956 94 947.0 105.5Q938 117 915 113Q893 109 883.0 95.0Q873 81 870.0 66.0Q867 51 867 44Q867 40 867.0 15.5Q867 -9 867.0 -42.5Q867 -76 867.0 -109.5Q867 -143 868.0 -165.5Q869 -188 871 -189Z" fill="#2f2f2f" stroke="none" transform="scale(1,-1) translate(0,-256)" /><path d="M1055 -91Q1056 -91 1073.0 -77.0Q1090 -63 1103 -49Q1116 -36 1124.5 -27.0Q1133 -18 1133 -16Q1133 -14 1133.5 3.5Q1134 21 1134.5 47.0Q1135 73 1135.0 99.5Q1135 126 1135.5 146.0Q1136 166 1136 172Q1136 193 1127.5 204.0Q1119 215 1097 207Q1074 199 1065.0 175.0Q1056 151 1055 135Q1055 129 1054.5 104.0Q1054 79 1053.5 46.5Q1053 14 1053.0 -17.5Q1053 -49 1053.5 -70.0Q1054 -91 1055 -91Z" fill="#2f2f2f" stroke="none" transform="scale(1,-1) translate(0,-256)" /><path d="M520 -213Q523 -216 553.0 -220.0Q583 -224 635 -224Q690 -225 723.0 -220.5Q756 -216 757 -215Q759 -213 759.5 -189.0Q760 -165 760.0 -132.5Q760 -100 759.5 -72.0Q759 -44 759 -33Q759 -23 753.0 -4.0Q747 15 733.5 34.5Q720 54 696.5 67.5Q673 81 637 80Q602 80 579.5 67.0Q557 54 544.0 35.5Q531 17 526.0 -1.5Q521 -20 521 -32Q521 -41 520.0 -69.5Q519 -98 518.5 -130.5Q518 -163 518.0 -187.5Q518 -212 520 -213Z" fill="#2f2f2f" stroke="none" transform="scale(1,-1) translate(0,-256)" /></svg>