<?xml version="1.0" encoding="utf-8" ?>
<svg baseProfile="full" height="256" version="1.1" width="256" xmlns="http://www.w3.org/2000/svg" xmlns:ev="http://www.w3.org/2001/xml-events" xmlns:xlink="http://www.w3.org/1999/xlink"><defs /><path d="M618 486 655 460Q655 460 655.0 444.5Q655 429 656.0 407.5Q657 386 659.5 366.0Q662 346 665 336Q673 313 686.0 298.0Q699 283 697 272Q696 266 675.0 266.5Q654 267 631 275Q611 282 592.0 298.5Q573 315 560 336Q546 356 539.0 379.5Q532 403 530.0 419.5Q528 436 528 436Z" fill="#006da6" stroke="none" transform="scale(1,-1) translate(0,-256)" /><path d="M124 359Q124 354 130.0 345.0Q136 336 149 335Q169 333 186.0 338.5Q203 344 213 349Q235 361 263.5 385.0Q292 409 312 427Q324 439 343.0 456.5Q362 474 377.0 488.5Q392 503 393 506Q394 512 390.0 523.0Q386 534 380 536Q375 538 364.5 527.5Q354 517 342 505Q330 493 313.0 474.0Q296 455 282 442Q272 432 253.5 416.0Q235 400 213.5 385.0Q192 370 172 363Q160 359 142.0 359.0Q124 359 124 359Z" fill="#006da6" stroke="none" transform="scale(1,-1) translate(0,-256)" /><path d="M606 668Q601 677 611.5 687.0Q622 697 626 701Q638 709 660.0 723.5Q682 738 716.0 750.0Q750 762 798 763Q853 764 897.5 750.5Q942 737 969.0 720.0Q996 703 1000 694Q1002 689 992.0 681.0Q982 673 966.5 664.0Q951 655 936.5 646.5Q922 638 915 633Q907 628 888.5 617.0Q870 606 846.0 594.5Q822 583 797.5 574.5Q773 566 753 566Q727 566 717.0 568.5Q707 571 705.5 575.0Q704 579 705 586Q705 592 717.0 593.5Q729 595 744.0 595.0Q759 595 770 597Q790 601 817.0 614.0Q844 627 863 639Q876 647 896.0 658.0Q916 669 932.0 677.5Q948 686 948 689Q948 694 934.5 700.5Q921 707 913 710Q905 714 872.5 724.5Q840 735 793 731Q761 729 731.0 717.5Q701 706 679.0 694.5Q657 683 649 678Q639 672 625.0 666.5Q611 661 606 668Z" fill="#006da6" stroke="none" transform="scale(1,-1) translate(0,-256)" /></svg>