<?xml version="1.0" encoding="utf-8" ?>
<svg baseProfile="full" height="256" version="1.1" width="256" xmlns="http://www.w3.org/2000/svg" xmlns:ev="http://www.w3.org/2001/xml-events" xmlns:xlink="http://www.w3.org/1999/xlink"><defs /><path d="M183 489Q188 501 180.5 515.0Q173 529 163.5 547.5Q154 566 153 590Q152 622 166.5 663.0Q181 704 215.0 747.0Q249 790 306.5 827.5Q364 865 449 889Q520 908 587.0 906.0Q654 904 711.0 889.5Q768 875 811.0 856.0Q854 837 878.5 823.0Q903 809 903 809Q903 809 922.5 813.0Q942 817 972.5 818.5Q1003 820 1036 812Q1083 801 1106.5 785.5Q1130 770 1139.0 755.5Q1148 741 1150 733Q1153 718 1140.5 712.0Q1128 706 1114 702Q1104 699 1086.5 690.0Q1069 681 1052 653Q1040 635 1042.0 609.5Q1044 584 1050.5 553.5Q1057 523 1059 490Q1060 465 1058.5 426.0Q1057 387 1048.0 339.5Q1039 292 1018.5 241.0Q998 190 961 143Q924 95 882.0 65.5Q840 36 802.0 19.0Q764 2 738.5 -5.5Q713 -13 709 -17Q701 -24 691.5 -46.5Q682 -69 664 -104Q655 -121 637.0 -139.5Q619 -158 598.5 -173.0Q578 -188 561.0 -195.5Q544 -203 539 -199Q531 -193 535.5 -181.5Q540 -170 548.5 -158.5Q557 -147 560 -141Q564 -132 561.5 -109.0Q559 -86 561 -60Q562 -43 571.0 -25.0Q580 -7 589.0 5.0Q598 17 598 17Q598 17 588.5 23.5Q579 30 567.5 39.0Q556 48 548 56Q540 64 532.5 80.0Q525 96 518.5 111.0Q512 126 507 132Q502 138 489.0 143.5Q476 149 465.5 156.0Q455 163 457 175Q458 186 481.0 189.0Q504 192 536.0 186.5Q568 181 595 168Q618 157 632.5 138.5Q647 120 659.0 104.5Q671 89 686 85Q701 81 721.0 92.0Q741 103 758.0 120.5Q775 138 784 153Q797 176 803.0 195.5Q809 215 809 215L822 337L672 483L454 428Q454 428 441.5 422.0Q429 416 410.5 407.0Q392 398 373.0 388.5Q354 379 342 373Q327 364 298.5 349.5Q270 335 239.5 322.5Q209 310 190 309Q171 308 154.0 320.0Q137 332 127.5 350.5Q118 369 123 390Q127 407 138.0 421.5Q149 436 162.0 451.5Q175 467 183 489Z" fill="#36b4e1" stroke="none" transform="scale(1,-1) translate(0,-256)" /></svg>