<?xml version="1.0" encoding="utf-8" ?>
<svg baseProfile="full" height="256" version="1.1" width="256" xmlns="http://www.w3.org/2000/svg" xmlns:ev="http://www.w3.org/2001/xml-events" xmlns:xlink="http://www.w3.org/1999/xlink"><defs /><path d="M923 862Q936 856 944.0 842.0Q952 828 952 813L954 586Q954 548 931.5 517.0Q909 486 873 474L640 393L397 475Q361 486 338.5 516.5Q316 547 315 586L314 814Q314 829 322.0 842.5Q330 856 343 862Q375 875 442.5 885.5Q510 896 633 896Q756 896 823.5 885.5Q891 875 923 862Z" fill="#2686c6" stroke="none" transform="scale(1,-1) translate(0,-256)" /></svg>