<?xml version="1.0" encoding="utf-8" ?>
<svg baseProfile="full" height="256" version="1.1" width="256" xmlns="http://www.w3.org/2000/svg" xmlns:ev="http://www.w3.org/2001/xml-events" xmlns:xlink="http://www.w3.org/1999/xlink"><defs /><path d="M945 875Q959 869 967.0 851.0Q975 833 975 817L995 182Q995 182 981.5 181.5Q968 181 930.5 180.5Q893 180 821.0 179.5Q749 179 631 179L378 301L280 448L291 817Q291 833 299.0 851.0Q307 869 321 875Q356 889 428.5 901.0Q501 913 633 913Q765 913 838.0 901.0Q911 889 945 875Z" fill="#2167a1" stroke="none" transform="scale(1,-1) translate(0,-256)" /></svg>