<?xml version="1.0" encoding="utf-8" ?>
<svg baseProfile="full" height="256" version="1.1" width="256" xmlns="http://www.w3.org/2000/svg" xmlns:ev="http://www.w3.org/2001/xml-events" xmlns:xlink="http://www.w3.org/1999/xlink"><defs /><path d="M882.0034637451172 323.565185546875Q882.0034637451172 331.91790771484375 878.8711929321289 339.2625427246094Q875.7389221191406 346.607177734375 870.1584396362305 352.18766021728516Q864.5779571533203 357.7681427001953 857.2333221435547 360.93641662597656Q849.8886871337891 364.1046905517578 841.5359649658203 364.1046905517578Q833.1112365722656 364.1046905517578 825.7666015625 360.93641662597656Q818.4219665527344 357.7681427001953 812.8414840698242 352.18766021728516Q807.2610015869141 346.607177734375 804.1287307739258 339.2625427246094Q800.9964599609375 331.91790771484375 800.9964599609375 323.565185546875Q800.9964599609375 315.21246337890625 804.1287307739258 307.8678283691406Q807.2610015869141 300.523193359375 812.8414840698242 294.94271087646484Q818.4219665527344 289.3622283935547 825.7666015625 286.2299575805664Q833.1112365722656 283.0976867675781 841.5359649658203 283.0976867675781Q849.8886871337891 283.0976867675781 857.2333221435547 286.2299575805664Q864.5779571533203 289.3622283935547 870.1584396362305 294.94271087646484Q875.7389221191406 300.523193359375 878.8711929321289 307.8678283691406Q882.0034637451172 315.21246337890625 882.0034637451172 323.565185546875Z" fill="#fffde7" stroke="none" transform="scale(1,-1) translate(0,-256)" /><path d="M474.0034637451172 323.5641784667969Q474.0034637451172 331.9169006347656 470.8711929321289 339.26153564453125Q467.7389221191406 346.6061706542969 462.15843963623047 352.18665313720703Q456.5779571533203 357.7671356201172 449.2333221435547 360.93540954589844Q441.88868713378906 364.1036834716797 433.5359649658203 364.1036834716797Q425.1112365722656 364.1036834716797 417.7666015625 360.93540954589844Q410.4219665527344 357.7671356201172 404.8414840698242 352.18665313720703Q399.26100158691406 346.6061706542969 396.1287307739258 339.26153564453125Q392.9964599609375 331.9169006347656 392.9964599609375 323.5641784667969Q392.9964599609375 315.2114562988281 396.1287307739258 307.8668212890625Q399.26100158691406 300.5221862792969 404.8414840698242 294.9417037963867Q410.4219665527344 289.36122131347656 417.7666015625 286.2289505004883Q425.1112365722656 283.0966796875 433.5359649658203 283.0966796875Q441.88868713378906 283.0966796875 449.2333221435547 286.2289505004883Q456.5779571533203 289.36122131347656 462.15843963623047 294.9417037963867Q467.7389221191406 300.5221862792969 470.8711929321289 307.8668212890625Q474.0034637451172 315.2114562988281 474.0034637451172 323.5641784667969Z" fill="#fffde7" stroke="none" transform="scale(1,-1) translate(0,-256)" /></svg>