<?xml version="1.0" encoding="utf-8" ?>
<svg baseProfile="full" height="256" version="1.1" width="256" xmlns="http://www.w3.org/2000/svg" xmlns:ev="http://www.w3.org/2001/xml-events" xmlns:xlink="http://www.w3.org/1999/xlink"><defs /><path d="M536.5128021240234 533.5087738037109 401.7274169921875 253.62924194335938Q401.7274169921875 253.62924194335938 388.79454803466797 265.1714553833008Q375.86167907714844 276.7136688232422 355.0773239135742 292.41039276123047Q334.29296875 308.10711669921875 309.35311126708984 320.57035064697266Q284.4132537841797 333.03358459472656 261.3228759765625 334.8758239746094Q237.30889892578125 336.7178649902344 212.83560180664062 327.0148162841797Q188.3623046875 317.311767578125 167.58429718017578 303.4533157348633Q146.80628967285156 289.59486389160156 134.34008026123047 278.50899505615234Q121.87387084960938 267.4231262207031 121.87387084960938 267.4231262207031Q121.87387084960938 267.4231262207031 120.48440551757812 286.3566131591797Q119.09494018554688 305.29010009765625 123.70599365234375 337.6170654296875Q128.31704711914062 369.94403076171875 144.47100830078125 411.9712677001953Q160.62496948242188 453.9985046386719 195.7116241455078 501.10960388183594Q230.79827880859375 548.220703125 290.8223114013672 594.4135589599609Q337.9179382324219 631.3676452636719 385.94053649902344 652.6207427978516Q433.963134765625 673.8738403320312 477.3702163696289 683.5809555053711Q520.7772979736328 693.2880706787109 554.4881744384766 695.6043090820312Q588.1990509033203 697.9205474853516 607.5949325561523 696.5393142700195Q626.9908142089844 695.1580810546875 626.9908142089844 695.1580810546875Z" fill="#937ef3" stroke="none" transform="scale(1,-1) translate(0,-256)" /></svg>