<?xml version="1.0" encoding="utf-8" ?>
<svg baseProfile="full" height="256" version="1.1" width="256" xmlns="http://www.w3.org/2000/svg" xmlns:ev="http://www.w3.org/2001/xml-events" xmlns:xlink="http://www.w3.org/1999/xlink"><defs /><path d="M793 818Q808 819 807.5 804.0Q807 789 810 774Q812 759 815.0 746.5Q818 734 809 729Q802 726 789.0 733.5Q776 741 772 764Q769 788 776.0 802.5Q783 817 793 818Z" fill="#ace8fe" stroke="none" transform="scale(1,-1) translate(0,-256)" /><path d="M962 589Q971 586 970.0 575.5Q969 565 969 553Q969 541 974.5 525.5Q980 510 972 503Q962 496 949.0 507.5Q936 519 935 542Q934 565 943.5 578.5Q953 592 962 589Z" fill="#ace8fe" stroke="none" transform="scale(1,-1) translate(0,-256)" /><path d="M210 560Q222 560 223.0 546.5Q224 533 226 522Q228 510 231.5 494.5Q235 479 223 477Q211 474 204.5 483.0Q198 492 194 504Q191 513 191.5 526.0Q192 539 196.5 549.5Q201 560 210 560Z" fill="#ace8fe" stroke="none" transform="scale(1,-1) translate(0,-256)" /><path d="M399 812Q408 809 408.0 797.5Q408 786 409 773Q409 763 413.0 752.5Q417 742 416.5 733.5Q416 725 404 722Q395 719 386.0 730.0Q377 741 375 762Q373 783 380.5 799.0Q388 815 399 812Z" fill="#ace8fe" stroke="none" transform="scale(1,-1) translate(0,-256)" /><path d="M586 500Q600 499 601.0 487.0Q602 475 605 463Q607 451 612.0 439.5Q617 428 605 423Q596 420 586.0 427.0Q576 434 571 453Q566 471 571.0 485.5Q576 500 586 500Z" fill="#ace8fe" stroke="none" transform="scale(1,-1) translate(0,-256)" /></svg>