<?xml version="1.0" encoding="utf-8" ?>
<svg baseProfile="full" height="256" version="1.1" width="256" xmlns="http://www.w3.org/2000/svg" xmlns:ev="http://www.w3.org/2001/xml-events" xmlns:xlink="http://www.w3.org/1999/xlink"><defs /><path d="M632 367 1012 152Q1012 152 1013.0 130.5Q1014 109 1015.5 78.0Q1017 47 1017.0 18.5Q1017 -10 1014 -25Q1012 -36 992.5 -58.5Q973 -81 943.0 -107.0Q913 -133 877.5 -157.0Q842 -181 807.5 -196.5Q773 -212 745 -213Q710 -214 664.0 -201.5Q618 -189 568.5 -168.5Q519 -148 473.0 -125.5Q427 -103 392 -85Q358 -67 320.0 -45.0Q282 -23 247.0 -0.5Q212 22 185.5 42.5Q159 63 147 77Q134 92 126.5 120.5Q119 149 115.0 181.5Q111 214 108.5 242.0Q106 270 106 283Q105 291 133.5 299.0Q162 307 208.5 315.5Q255 324 311.5 331.5Q368 339 424.0 345.5Q480 352 527.5 356.5Q575 361 603.5 364.0Q632 367 632 367Z" fill="#c9cabb" stroke="none" transform="scale(1,-1) translate(0,-256)" /><path d="M456 674 807 695Q807 695 824.0 678.0Q841 661 869.0 632.0Q897 603 929.5 568.0Q962 533 994.0 497.5Q1026 462 1051.0 430.5Q1076 399 1088.5 378.0Q1101 357 1095 352Q1084 342 1065.0 327.0Q1046 312 1025.0 296.0Q1004 280 986.0 268.0Q968 256 958 254Q952 252 915.5 258.0Q879 264 824.5 275.0Q770 286 708.0 300.0Q646 314 587.5 328.5Q529 343 483.5 355.5Q438 368 418 377Q379 393 356.0 424.5Q333 456 321.5 488.0Q310 520 305 539Q301 555 298.5 573.5Q296 592 294.5 605.5Q293 619 293 619Z" fill="#c9cabb" stroke="none" transform="scale(1,-1) translate(0,-256)" /></svg>