<?xml version="1.0" encoding="utf-8" ?>
<svg baseProfile="full" height="256" version="1.1" width="256" xmlns="http://www.w3.org/2000/svg" xmlns:ev="http://www.w3.org/2001/xml-events" xmlns:xlink="http://www.w3.org/1999/xlink"><defs /><path d="M269 579Q240 593 238.0 628.0Q236 663 257.0 707.0Q278 751 318.0 793.0Q358 835 413 861Q467 887 536.0 900.5Q605 914 682.0 911.0Q759 908 836.0 886.0Q913 864 983 820Q1053 775 1095.5 721.5Q1138 668 1160.5 615.0Q1183 562 1191.0 518.0Q1199 474 1199 449Q1200 414 1186.0 388.0Q1172 362 1150.0 349.5Q1128 337 1102 344Q1087 349 1059.5 366.0Q1032 383 998.0 406.5Q964 430 927.5 455.5Q891 481 858.0 502.5Q825 524 801 537Q760 557 708.0 583.0Q656 609 596.0 627.5Q536 646 471 646Q422 645 390.0 632.5Q358 620 337.0 604.5Q316 589 300.5 580.5Q285 572 269 579Z" fill="#ff6110" stroke="none" transform="scale(1,-1) translate(0,-256)" /></svg>