<?xml version="1.0" encoding="utf-8" ?>
<svg baseProfile="full" height="256" version="1.1" width="256" xmlns="http://www.w3.org/2000/svg" xmlns:ev="http://www.w3.org/2001/xml-events" xmlns:xlink="http://www.w3.org/1999/xlink"><defs /><path d="M332 601Q339 606 348.0 611.5Q357 617 366 622Q364 638 364.0 659.0Q364 680 368 703Q377 751 417.0 796.5Q457 842 525 874Q558 889 588.0 897.5Q618 906 633 911Q617 911 597 909Q571 907 539.0 901.5Q507 896 478 886Q414 851 376.5 804.5Q339 758 329 706Q323 674 325.5 647.5Q328 621 332 601Z" fill="#fe8e6e" stroke="none" transform="scale(1,-1) translate(0,-256)" /><path d="M540 640Q558 637 579 632Q578 652 583.5 680.0Q589 708 610 732Q635 761 685.5 787.5Q736 814 800 832Q833 841 870.0 843.5Q907 846 938 845Q914 858 895.0 865.5Q876 873 865 877Q841 874 817.0 870.5Q793 867 771 861Q744 854 709.5 840.5Q675 827 640.5 806.0Q606 785 579 754Q555 726 547.5 695.0Q540 664 540 640Z" fill="#fe8e6e" stroke="none" transform="scale(1,-1) translate(0,-256)" /><path d="M724 575Q735 570 742.5 566.0Q750 562 759 558Q766 576 779.0 598.5Q792 621 815 640Q853 671 896.5 687.5Q940 704 974.5 710.5Q1009 717 1019 718Q1041 720 1061.0 720.5Q1081 721 1096 720Q1090 728 1080.5 738.5Q1071 749 1062 757Q1034 757 1007 754Q992 752 957.0 746.5Q922 741 877.5 723.0Q833 705 787 668Q761 646 746.5 621.5Q732 597 724 575Z" fill="#fe8e6e" stroke="none" transform="scale(1,-1) translate(0,-256)" /><path d="M891 481Q899 475 922 459Q931 472 947.5 490.0Q964 508 987 523Q1029 551 1069.0 562.0Q1109 573 1156 573Q1167 573 1177 572Q1175 579 1171.0 589.0Q1167 599 1162 611Q1160 611 1156 611Q1103 611 1058.5 599.0Q1014 587 967 557Q939 539 920.0 518.0Q901 497 891 481Z" fill="#fe8e6e" stroke="none" transform="scale(1,-1) translate(0,-256)" /></svg>