<?xml version="1.0" encoding="utf-8" ?>
<svg baseProfile="full" height="256" version="1.1" width="256" xmlns="http://www.w3.org/2000/svg" xmlns:ev="http://www.w3.org/2001/xml-events" xmlns:xlink="http://www.w3.org/1999/xlink"><defs /><path d="M1158 515Q1164 502 1172.0 499.0Q1180 496 1180 517Q1180 565 1151.0 601.0Q1122 637 1079 649Q1049 657 1041 638Q1038 629 1045.5 619.0Q1053 609 1068 604Q1109 587 1126.5 569.0Q1144 551 1158 515Z" fill="#f44336" stroke="none" transform="scale(1,-1) translate(0,-256)" /><path d="M135 610Q132 619 148.0 627.5Q164 636 175 639Q206 648 230.5 644.0Q255 640 270.5 631.0Q286 622 291 616Q311 591 301 577Q295 570 282.0 570.5Q269 571 258 583Q245 596 232.0 604.0Q219 612 190 610Q169 608 153.5 604.5Q138 601 135 610Z" fill="#f44336" stroke="none" transform="scale(1,-1) translate(0,-256)" /></svg>