<?xml version="1.0" encoding="utf-8" ?>
<svg baseProfile="full" height="256" version="1.1" width="256" xmlns="http://www.w3.org/2000/svg" xmlns:ev="http://www.w3.org/2001/xml-events" xmlns:xlink="http://www.w3.org/1999/xlink"><defs /><path d="M301 41Q344 40 372.5 18.5Q401 -3 414.0 -34.0Q427 -65 427 -93Q426 -121 410.5 -149.0Q395 -177 365.0 -195.0Q335 -213 292 -211Q233 -209 201.5 -172.5Q170 -136 170 -88Q170 -30 207.0 6.0Q244 42 301 41Z" fill="#4c443f" stroke="none" transform="scale(1,-1) translate(0,-256)" /><path d="M995 25Q1032 1 1044.0 -31.5Q1056 -64 1051.0 -97.0Q1046 -130 1031 -153Q1016 -177 986.5 -192.0Q957 -207 922.5 -207.0Q888 -207 856 -186Q807 -154 799.0 -106.0Q791 -58 816 -17Q846 32 896.5 43.5Q947 55 995 25Z" fill="#4c443f" stroke="none" transform="scale(1,-1) translate(0,-256)" /></svg>