<?xml version="1.0" encoding="utf-8" ?>
<svg baseProfile="full" height="256" version="1.1" width="256" xmlns="http://www.w3.org/2000/svg" xmlns:ev="http://www.w3.org/2001/xml-events" xmlns:xlink="http://www.w3.org/1999/xlink"><defs /><path d="M586 77 729 115 1029 140 1113 7Q1113 7 1117.5 1.5Q1122 -4 1137 -7Q1138 -7 1141.0 -7.0Q1144 -7 1146 -7Q1165 -9 1165.5 -22.5Q1166 -36 1165 -53Q1164 -82 1162.5 -89.5Q1161 -97 1157 -100Q1155 -101 1132.5 -102.0Q1110 -103 1078.5 -103.5Q1047 -104 1015.5 -104.5Q984 -105 963.0 -105.0Q942 -105 942 -105Q942 -105 905.0 -105.0Q868 -105 805.0 -104.5Q742 -104 664.0 -103.5Q586 -103 502.5 -102.5Q419 -102 340.0 -101.5Q261 -101 198.0 -100.5Q135 -100 97.0 -99.0Q59 -98 58 -98Q56 -96 55.5 -83.0Q55 -70 55.5 -54.0Q56 -38 56 -25Q56 -13 62.0 -8.5Q68 -4 74.5 -3.5Q81 -3 81 -3L266 148Z" fill="#506d71" stroke="none" transform="scale(1,-1) translate(0,-256)" /></svg>