<?xml version="1.0" encoding="utf-8" ?>
<svg baseProfile="full" height="256" version="1.1" width="256" xmlns="http://www.w3.org/2000/svg" xmlns:ev="http://www.w3.org/2001/xml-events" xmlns:xlink="http://www.w3.org/1999/xlink"><defs /><path d="M1166 181Q1174 142 1152 109Q1127 71 1085.5 48.0Q1044 25 979.0 20.5Q914 16 819 34Q839 51 847.0 76.0Q855 101 848 127Q836 170 834.0 220.0Q832 270 857 308Q888 352 942 349Q981 347 1007.5 317.0Q1034 287 1031 248Q1042 253 1053 255Q1092 263 1125.0 241.0Q1158 219 1166 181Z" fill="#e53935" stroke="none" transform="scale(1,-1) translate(0,-256)" /></svg>