<?xml version="1.0" encoding="utf-8" ?>
<svg baseProfile="full" height="256" version="1.1" width="256" xmlns="http://www.w3.org/2000/svg" xmlns:ev="http://www.w3.org/2001/xml-events" xmlns:xlink="http://www.w3.org/1999/xlink"><defs /><path d="M957 5Q1100 5 1154 88Q1175 121 1177.0 157.5Q1179 194 1156 222Q1138 240 1114 248Q1146 216 1153 171Q1154 154 1146.5 136.0Q1139 118 1130 104Q1114 79 1089.5 64.0Q1065 49 1036 42Q997 33 955 34Q894 35 856.5 35.5Q819 36 818 34Q832 27 853.5 21.5Q875 16 897.5 12.5Q920 9 936.5 7.0Q953 5 957 5Z" fill="#c62828" stroke="none" transform="scale(1,-1) translate(0,-256)" /><path d="M1019 208 1021 209Q1036 224 1035 245Q1036 269 1027 291Q1014 318 989 333Q994 321 1001.5 304.0Q1009 287 1011 274Q1012 257 1008 241Q1006 233 1001 226Q995 221 998 214Q1000 207 1007 206Q1014 205 1019 208Z" fill="#c62828" stroke="none" transform="scale(1,-1) translate(0,-256)" /></svg>