<?xml version="1.0" encoding="utf-8" ?>
<svg baseProfile="full" height="256" version="1.1" width="256" xmlns="http://www.w3.org/2000/svg" xmlns:ev="http://www.w3.org/2001/xml-events" xmlns:xlink="http://www.w3.org/1999/xlink"><defs /><path d="M609 36 690 153 815 242 884 329 931 448 938 583 910 682 849 784 755 852Q755 852 733.0 863.5Q711 875 672.5 888.5Q634 902 583.0 909.5Q532 917 472.5 910.5Q413 904 349 873Q270 835 215.5 777.0Q161 719 131.0 649.5Q101 580 94.0 506.0Q87 432 103 361Q119 289 154.0 234.0Q189 179 234.5 139.5Q280 100 328.5 75.5Q377 51 421 40Q479 27 521.0 27.0Q563 27 586.0 31.5Q609 36 609 36Z" fill="#4bddff" stroke="none" transform="scale(1,-1) translate(0,-256)" /></svg>