<?xml version="1.0" encoding="utf-8" ?>
<svg baseProfile="full" height="256" version="1.1" width="256" xmlns="http://www.w3.org/2000/svg" xmlns:ev="http://www.w3.org/2001/xml-events" xmlns:xlink="http://www.w3.org/1999/xlink"><defs /><path d="M692 819Q690 837 689.0 852.5Q688 868 688 868Q688 868 697.5 865.5Q707 863 718.0 859.5Q729 856 734 855Q773 844 791 861Q801 871 803.5 883.5Q806 896 806.0 906.0Q806 916 808 916Q822 919 836.0 905.0Q850 891 850 872Q850 847 841.5 836.0Q833 825 833 825Q833 825 845.0 820.5Q857 816 866 818Q894 821 906.0 829.5Q918 838 922 831Q933 811 918.0 789.5Q903 768 871 762Q845 758 827.5 764.0Q810 770 810 770Q810 770 814.5 761.0Q819 752 824 735Q830 718 829.5 695.5Q829 673 819 661Q814 655 803.5 665.5Q793 676 783.0 691.5Q773 707 767 715Q758 728 752.5 732.5Q747 737 747 737Q747 737 743.5 728.0Q740 719 727.5 706.0Q715 693 688 681Q676 675 660.5 673.0Q645 671 632.5 674.5Q620 678 617 689Q616 693 625.5 696.5Q635 700 644 706Q653 712 659.0 722.5Q665 733 665 733Q665 733 653.0 732.5Q641 732 630 735Q614 739 608.0 751.0Q602 763 608 768Q611 770 626.5 768.5Q642 767 659 774Q676 780 682.5 790.5Q689 801 690.5 810.0Q692 819 692 819Z" fill="#738136" stroke="none" transform="scale(1,-1) translate(0,-256)" /></svg>