<?xml version="1.0" encoding="utf-8" ?>
<svg baseProfile="full" height="256" version="1.1" width="256" xmlns="http://www.w3.org/2000/svg" xmlns:ev="http://www.w3.org/2001/xml-events" xmlns:xlink="http://www.w3.org/1999/xlink"><defs /><path d="M1021 466Q1025 470 1025.5 448.5Q1026 427 1017 398Q1011 380 995.5 363.0Q980 346 950 338Q919 329 898.5 336.0Q878 343 878 343Q878 343 879.5 353.5Q881 364 882 369Q882 374 897.5 370.5Q913 367 931 370Q948 373 957.0 386.0Q966 399 966 401Q966 403 953.0 398.0Q940 393 924 393Q906 394 894.0 403.0Q882 412 882 412L883 444Q883 444 903.0 446.0Q923 448 949.5 452.0Q976 456 997.5 459.5Q1019 463 1021 466Z" fill="#f7153a" stroke="none" transform="scale(1,-1) translate(0,-256)" /></svg>