<?xml version="1.0" encoding="utf-8" ?>
<svg baseProfile="full" height="256" version="1.1" width="256" xmlns="http://www.w3.org/2000/svg" xmlns:ev="http://www.w3.org/2001/xml-events" xmlns:xlink="http://www.w3.org/1999/xlink"><defs /><path d="M410 829Q410 820 397.5 811.0Q385 802 367.5 794.5Q350 787 334.5 781.0Q319 775 313 771Q294 761 276.5 748.0Q259 735 245 719Q231 703 221.5 683.5Q212 664 190 658Q182 655 172.5 656.0Q163 657 156 662Q146 670 145.5 691.5Q145 713 150.5 738.5Q156 764 164.0 786.0Q172 808 179 817Q195 837 224.5 844.5Q254 852 308 854Q352 856 373.5 854.0Q395 852 402.5 846.0Q410 840 410 829Z" fill="#68abe6" stroke="none" transform="scale(1,-1) translate(0,-256)" /></svg>