<?xml version="1.0" encoding="utf-8" ?>
<svg baseProfile="full" height="256" version="1.1" width="256" xmlns="http://www.w3.org/2000/svg" xmlns:ev="http://www.w3.org/2001/xml-events" xmlns:xlink="http://www.w3.org/1999/xlink"><defs /><path d="M984 594H234Q223 594 214.5 585.5Q206 577 206 566V3Q206 -8 214.5 -16.5Q223 -25 234 -25H984Q996 -25 1004.5 -16.5Q1013 -8 1013 3V566Q1013 577 1004.5 585.5Q996 594 984 594ZM984 641Q1015 641 1037.0 619.0Q1059 597 1059 566V3Q1059 -28 1037.0 -50.0Q1015 -72 984 -72H234Q203 -72 181.0 -50.0Q159 -28 159 3V566Q159 597 181.0 619.0Q203 641 234 641Z" fill="#fafafa" stroke="none" transform="scale(1,-1) translate(0,-256)" /><path d="M750 453Q759 453 759 444V50Q759 41 750 41H469Q459 41 459 50V444Q459 453 469 453H497V528Q497 544 508.0 555.0Q519 566 534 566H684Q700 566 711.0 555.0Q722 544 722 528V453ZM544 528Q534 528 534 519V463Q534 453 544 453H675Q684 453 684 463V519Q684 528 675 528Z" fill="#fafafa" stroke="none" transform="scale(1,-1) translate(0,-256)" /><path d="M413 453Q422 453 422 444V50Q422 41 413 41H347Q316 41 294.0 63.0Q272 85 272 116V378Q272 409 294.0 431.0Q316 453 347 453Z" fill="#fafafa" stroke="none" transform="scale(1,-1) translate(0,-256)" /><path d="M872 453Q903 453 925.0 431.0Q947 409 947 378V116Q947 85 925.0 63.0Q903 41 872 41H806Q797 41 797 50V444Q797 453 806 453Z" fill="#fafafa" stroke="none" transform="scale(1,-1) translate(0,-256)" /><path d="M778 772Q786 772 791.5 766.5Q797 761 797 753Q797 745 791.5 739.5Q786 734 778 734H741V697Q741 689 735.5 683.5Q730 678 722 678Q714 678 708.5 683.5Q703 689 703 697V734H666V697Q666 689 660.5 683.5Q655 678 647 678Q639 678 633.5 683.5Q628 689 628 697V734H569Q563 710 543.0 694.0Q523 678 497 678Q466 678 444.0 700.0Q422 722 422 753Q422 784 444.0 806.0Q466 828 497 828Q523 828 543.0 812.0Q563 796 569 772ZM497 716Q512 716 523.0 727.0Q534 738 534 753Q534 769 523.0 780.0Q512 791 497 791Q481 791 470.0 780.0Q459 769 459 753Q459 738 470.0 727.0Q481 716 497 716Z" fill="#fafafa" stroke="none" transform="scale(1,-1) translate(0,-256)" /></svg>