<?xml version="1.0" encoding="utf-8" ?>
<svg baseProfile="full" height="256" version="1.1" width="256" xmlns="http://www.w3.org/2000/svg" xmlns:ev="http://www.w3.org/2001/xml-events" xmlns:xlink="http://www.w3.org/1999/xlink"><defs /><path d="M879 307Q923 208 963.5 147.0Q1004 86 1036.0 54.0Q1068 22 1086.5 10.5Q1105 -1 1105 -1Q1105 -1 1101.0 -17.0Q1097 -33 1082.5 -56.0Q1068 -79 1037.5 -101.0Q1007 -123 954 -133Q921 -140 897.0 -141.0Q873 -142 850.0 -144.5Q827 -147 798 -161Q764 -176 741.0 -188.0Q718 -200 692.5 -206.5Q667 -213 626 -213Q584 -213 556.0 -205.5Q528 -198 505.5 -186.0Q483 -174 458 -161Q430 -146 410.5 -141.5Q391 -137 370.0 -136.0Q349 -135 315 -129Q265 -119 242.0 -105.0Q219 -91 213.0 -80.0Q207 -69 207 -69Q207 -69 216.0 -46.0Q225 -23 240.0 15.0Q255 53 273.0 98.5Q291 144 310.5 190.0Q330 236 347.5 275.0Q365 314 378 338Q411 398 433.5 440.5Q456 483 469 510H770Q770 510 770.0 510.0Q770 510 770 510Q770 510 785.5 485.0Q801 460 826.0 414.5Q851 369 879 307Z" fill="#1565c0" stroke="none" transform="scale(1,-1) translate(0,-256)" /><path d="M811 886Q811 864 808.0 810.5Q805 757 799 697Q795 656 788.5 616.5Q782 577 777.0 546.5Q772 516 774 501Q774 501 752.0 498.5Q730 496 696.0 493.0Q662 490 626 490Q625 490 624.5 490.0Q624 490 623 490Q622 490 621.5 490.0Q621 490 621 490Q584 490 550.0 493.0Q516 496 494.0 498.5Q472 501 472 501Q474 516 469.0 546.5Q464 577 457.5 616.5Q451 656 447 697Q440 757 437.5 810.5Q435 864 434 886Q434 899 446 903L479 912Q486 914 492.0 910.0Q498 906 500 899L516 800Q516 800 548.0 790.0Q580 780 622 746H625Q667 780 698.5 790.0Q730 800 730 800L746 899Q747 906 753.5 910.0Q760 914 767 912L799 903Q812 899 811 886Z" fill="#1565c0" stroke="none" transform="scale(1,-1) translate(0,-256)" /></svg>