<?xml version="1.0" encoding="utf-8" ?>
<svg baseProfile="full" height="256" version="1.1" width="256" xmlns="http://www.w3.org/2000/svg" xmlns:ev="http://www.w3.org/2001/xml-events" xmlns:xlink="http://www.w3.org/1999/xlink"><defs /><path d="M669.9668731689453 350.4451446533203Q669.9668731689453 362.0753936767578 665.6055297851562 372.2518615722656Q661.2441864013672 382.42832946777344 653.5100708007812 390.1624450683594Q645.7759552001953 397.8965606689453 635.5994873046875 402.2579040527344Q625.4230194091797 406.61924743652344 613.6764678955078 406.61924743652344Q602.0462188720703 406.61924743652344 591.8697509765625 402.2579040527344Q581.6932830810547 397.8965606689453 573.9591674804688 390.1624450683594Q566.2250518798828 382.42832946777344 561.8637084960938 372.2518615722656Q557.5023651123047 362.0753936767578 557.5023651123047 350.4451446533203Q557.5023651123047 338.69859313964844 561.8637084960938 328.5221252441406Q566.2250518798828 318.3456573486328 573.9591674804688 310.6115417480469Q581.6932830810547 302.87742614746094 591.8697509765625 298.5160827636719Q602.0462188720703 294.1547393798828 613.6764678955078 294.1547393798828Q625.4230194091797 294.1547393798828 635.5994873046875 298.5160827636719Q645.7759552001953 302.87742614746094 653.5100708007812 310.6115417480469Q661.2441864013672 318.3456573486328 665.6055297851562 328.5221252441406Q669.9668731689453 338.69859313964844 669.9668731689453 350.4451446533203Z" fill="#fafafa" stroke="none" transform="scale(1,-1) translate(0,-256)" /><path d="M1004 575Q1027 535 1003.0 475.0Q979 415 917 350Q978 286 1002.0 226.0Q1026 166 1003 125Q980 85 916.0 76.0Q852 67 766 87Q740 2 700.5 -49.0Q661 -100 614 -100Q567 -100 527.0 -49.0Q487 2 461 87Q375 67 311.5 76.0Q248 85 224 125Q200 166 224.5 226.0Q249 286 309 350Q249 415 224.5 475.0Q200 535 224 575Q248 616 311.5 625.0Q375 634 462 614Q487 698 527.0 749.0Q567 800 614 800Q661 800 700.5 749.5Q740 699 767 614Q852 634 916.0 625.0Q980 616 1004 575ZM955 547Q945 564 901.5 570.0Q858 576 790 561Q790 561 790.0 561.0Q790 561 790 561Q780 559 782 550Q793 505 797 459Q797 455 800 453Q837 426 872 395Q878 390 885 396Q932 449 948.5 489.5Q965 530 955 547ZM679 237Q710 255 738 273Q742 277 742 281Q743 297 743.5 314.5Q744 332 744 350Q744 369 744.0 386.0Q744 403 742 420Q742 424 738 427Q724 436 709.5 445.5Q695 455 679 464Q663 473 647.5 481.5Q632 490 617 497Q613 498 609 497Q578 482 547 464Q516 446 488 427Q485 424 484 420Q484 404 483.0 386.5Q482 369 482 350Q482 332 483.0 314.5Q484 297 484 281Q484 276 488 273Q502 264 516.5 255.0Q531 246 547 237Q563 228 578.5 220.0Q594 212 609 204Q613 203 617 204Q649 219 679 237ZM735 204Q728 200 721.0 195.5Q714 191 707 187Q701 184 694.0 180.0Q687 176 680 172Q692 168 703.5 164.0Q715 160 726 156Q730 179 735 204ZM547 173Q541 177 534.0 181.5Q527 186 520 189Q513 193 506.5 197.0Q500 201 493 205Q494 192 496.5 180.5Q499 169 501 157Q512 161 523.5 164.5Q535 168 547 173ZM426 319V382Q405 365 389 350Q406 334 426 319ZM493 497Q500 501 507.0 505.5Q514 510 520 514Q526 517 533.0 521.0Q540 525 547 529Q535 533 523.5 537.0Q512 541 501 544Q497 522 493 497ZM680 528Q687 524 693.5 519.5Q700 515 707 512Q722 504 735 496Q733 508 730.5 520.0Q728 532 726 544Q715 540 703.5 536.0Q692 532 680 528ZM800 382Q801 374 801.0 366.5Q801 359 801 350Q801 342 800.5 334.0Q800 326 800 319Q810 327 819.0 335.0Q828 343 837 350Q819 368 800 382ZM614 744Q594 744 567.0 709.5Q540 675 519 607Q519 607 519.0 607.0Q519 607 519 607Q516 598 525 595Q568 581 610 562Q614 561 617 562Q639 571 660.5 579.5Q682 588 703 595Q703 595 703.0 595.0Q703 595 703 595Q712 599 708 607Q687 675 660.0 709.5Q633 744 614 744ZM272 547Q263 530 279.5 489.5Q296 449 344 396Q350 389 357 395Q391 426 428 453Q431 455 432 459Q438 509 446 550Q446 550 446 550Q448 560 438 561Q369 576 325.5 570.0Q282 564 272 547ZM272 154Q282 137 325.5 131.0Q369 125 437 139Q438 139 438.0 139.5Q438 140 438 140Q447 142 445 151Q435 196 431 242Q430 246 427 248Q390 275 356 305Q349 311 343 304Q296 252 279.5 211.0Q263 170 272 154ZM614 -43Q633 -43 660.0 -8.5Q687 26 708 94Q708 94 708.0 94.0Q708 94 708 94Q712 103 703 106Q682 113 660.5 121.5Q639 130 617 139Q614 141 610 139Q568 120 525 106Q525 106 525.0 106.0Q525 106 524 106Q516 102 519 94Q541 26 567.5 -8.5Q594 -43 614 -43ZM955 154Q964 170 947.5 211.0Q931 252 884 304Q878 311 871 305Q837 275 799 248Q796 246 796 242Q790 195 782 151Q781 151 781 150Q780 141 789 139Q858 125 901.5 131.0Q945 137 955 154Z" fill="#fafafa" stroke="none" transform="scale(1,-1) translate(0,-256)" /></svg>