<?xml version="1.0" encoding="utf-8" ?>
<svg baseProfile="full" height="256" version="1.1" width="256" xmlns="http://www.w3.org/2000/svg" xmlns:ev="http://www.w3.org/2001/xml-events" xmlns:xlink="http://www.w3.org/1999/xlink"><defs /><path d="M847 496Q862 485 865.5 470.5Q869 456 867.5 445.0Q866 434 866 434Q867 444 864.5 450.5Q862 457 860 461Q849 477 834.0 477.0Q819 477 807.5 472.0Q796 467 796 467Q791 464 756.0 444.5Q721 425 665.0 397.5Q609 370 541.0 343.5Q473 317 401.5 299.0Q330 281 264 281Q226 281 192.0 289.0Q158 297 131 315Q55 365 72 451Q81 498 112.5 545.0Q144 592 190 639L204 631L206 612Q165 569 137.5 527.0Q110 485 102 445Q90 379 148 341Q202 305 300.5 314.0Q399 323 534 376Q603 403 654.0 428.5Q705 454 734.0 471.0Q763 488 769 490Q789 500 811.0 503.5Q833 507 847 496Z" fill="#e0e0e0" stroke="none" transform="scale(1,-1) translate(0,-256)" /></svg>