<?xml version="1.0" encoding="utf-8" ?>
<svg baseProfile="full" height="256" version="1.1" width="256" xmlns="http://www.w3.org/2000/svg" xmlns:ev="http://www.w3.org/2001/xml-events" xmlns:xlink="http://www.w3.org/1999/xlink"><defs /><path d="M1120 708 1118 620Q1118 620 1100.5 609.0Q1083 598 1041.5 582.5Q1000 567 930.5 553.0Q861 539 757 534L731 403H711L699 532Q690 531 680.5 531.0Q671 531 662 531Q530 531 441.5 543.0Q353 555 301.5 571.0Q250 587 228.0 599.0Q206 611 206 611L193 738Q217 771 284.5 797.0Q352 823 448.5 837.5Q545 852 658 852Q756 852 840.0 841.5Q924 831 987.0 811.5Q1050 792 1085.0 765.5Q1120 739 1120 708Z" fill="#1f6abf" stroke="none" transform="scale(1,-1) translate(0,-256)" /><path d="M1106 806Q1106 821 1071.0 834.5Q1036 848 975.0 858.0Q914 868 833.0 873.5Q752 879 659 879Q567 879 486.0 873.5Q405 868 343.5 858.0Q282 848 247.5 834.5Q213 821 213 806Q213 790 247.5 777.0Q282 764 343.5 753.5Q405 743 486.0 737.5Q567 732 659 732Q752 732 833.0 737.5Q914 743 975.0 753.5Q1036 764 1071.0 777.0Q1106 790 1106 806Z" fill="#1f6abf" stroke="none" transform="scale(1,-1) translate(0,-256)" /><path d="M815 446 858 418Q777 324 694.0 265.0Q611 206 535.5 174.0Q460 142 400.0 128.5Q340 115 303.0 113.5Q266 112 262 112L248 240Q295 236 356.0 250.0Q417 264 482.5 288.5Q548 313 611.5 342.0Q675 371 728.0 399.0Q781 427 815 446Z" fill="#1f6abf" stroke="none" transform="scale(1,-1) translate(0,-256)" /></svg>