<?xml version="1.0" encoding="utf-8" ?>
<svg baseProfile="full" height="256" version="1.1" width="256" xmlns="http://www.w3.org/2000/svg" xmlns:ev="http://www.w3.org/2001/xml-events" xmlns:xlink="http://www.w3.org/1999/xlink"><defs /><path d="M338.48480224609375 737.4800720214844Q338.48480224609375 750.5299835205078 329.2598648071289 759.5299224853516Q320.03492736816406 768.5298614501953 307.4350128173828 768.5298614501953Q294.83509826660156 768.5298614501953 285.8351593017578 759.5299224853516Q276.83522033691406 750.5299835205078 276.83522033691406 737.4800720214844Q276.83522033691406 724.8801574707031 285.8351593017578 715.8802185058594Q294.83509826660156 706.8802795410156 307.4350128173828 706.8802795410156Q320.03492736816406 706.8802795410156 329.2598648071289 715.8802185058594Q338.48480224609375 724.8801574707031 338.48480224609375 737.4800720214844Z" fill="#212121" stroke="none" transform="scale(1,-1) translate(0,-256)" /><path d="M537.9848022460938 692.4800720214844Q537.9848022460938 705.5299835205078 528.7598648071289 714.5299224853516Q519.5349273681641 723.5298614501953 506.9350128173828 723.5298614501953Q494.33509826660156 723.5298614501953 485.3351593017578 714.5299224853516Q476.33522033691406 705.5299835205078 476.33522033691406 692.4800720214844Q476.33522033691406 679.8801574707031 485.3351593017578 670.8802185058594Q494.33509826660156 661.8802795410156 506.9350128173828 661.8802795410156Q519.5349273681641 661.8802795410156 528.7598648071289 670.8802185058594Q537.9848022460938 679.8801574707031 537.9848022460938 692.4800720214844Z" fill="#212121" stroke="none" transform="scale(1,-1) translate(0,-256)" /><path d="M431 653Q433 661 423.5 668.0Q414 675 399 679Q384 682 372.5 679.5Q361 677 359 669Q357 661 368.0 650.0Q379 639 390 636Q400 634 414.5 639.5Q429 645 431 653Z" fill="#212121" stroke="none" transform="scale(1,-1) translate(0,-256)" /><path d="M462 584Q464 585 467.0 583.5Q470 582 466 577Q461 572 450.0 567.0Q439 562 419 566Q401 570 392.0 581.0Q383 592 380 595Q377 593 364.0 587.0Q351 581 333 585Q313 590 305.0 599.5Q297 609 295 616Q293 622 296.5 622.0Q300 622 302 620Q303 619 311.0 611.0Q319 603 335 602Q351 600 358.5 605.0Q366 610 371 615Q377 621 381.0 637.5Q385 654 385 654L393 652L401 650Q401 650 397.5 633.5Q394 617 398 609Q400 603 404.5 595.0Q409 587 424 582Q439 577 449.5 580.0Q460 583 462 584Z" fill="#212121" stroke="none" transform="scale(1,-1) translate(0,-256)" /><path d="M180 671Q193 680 208.0 683.0Q223 686 238 685Q246 685 253.5 684.0Q261 683 269 682Q276 680 283.5 678.5Q291 677 299 674Q293 679 285.5 683.0Q278 687 270 689Q255 694 239 695Q220 695 206 690Q189 684 180 671Z" fill="#212121" stroke="none" transform="scale(1,-1) translate(0,-256)" /><path d="M163 612Q176 625 190.5 635.0Q205 645 222 651Q239 656 256.5 656.0Q274 656 292 652Q275 662 257 664Q238 666 219 659Q181 647 163 612Z" fill="#212121" stroke="none" transform="scale(1,-1) translate(0,-256)" /><path d="M196 583Q204 594 213.0 603.5Q222 613 233 620Q244 626 257 630Q263 632 269.5 632.5Q276 633 283 634Q268 639 255 637Q252 637 248.5 636.0Q245 635 241 634Q238 632 234.5 630.5Q231 629 228 628Q216 620 208 608Q198 596 196 583Z" fill="#212121" stroke="none" transform="scale(1,-1) translate(0,-256)" /><path d="M594 578Q591 593 578 606Q568 617 551 624Q536 631 520 633Q512 634 503.5 634.0Q495 634 488 631Q496 631 503.5 629.5Q511 628 518 626Q526 624 533.0 621.5Q540 619 547 616Q561 609 573.5 600.5Q586 592 594 578Z" fill="#212121" stroke="none" transform="scale(1,-1) translate(0,-256)" /><path d="M582 515Q583 554 556 584Q542 598 525 605Q507 613 488 612Q506 607 521.5 598.5Q537 590 549 577Q561 564 569.0 548.5Q577 533 582 515Z" fill="#212121" stroke="none" transform="scale(1,-1) translate(0,-256)" /><path d="M537 507Q540 520 537 535Q535 549 527 561Q525 564 522.5 567.0Q520 570 518 572Q515 575 512.0 577.0Q509 579 506 581Q496 588 480 591Q486 587 491.5 583.5Q497 580 502 575Q512 567 519 556Q526 545 530.5 533.0Q535 521 537 507Z" fill="#212121" stroke="none" transform="scale(1,-1) translate(0,-256)" /></svg>