<?xml version="1.0" encoding="utf-8" ?>
<svg baseProfile="full" height="256" version="1.1" width="256" xmlns="http://www.w3.org/2000/svg" xmlns:ev="http://www.w3.org/2001/xml-events" xmlns:xlink="http://www.w3.org/1999/xlink"><defs /><path d="M340 787Q343 798 355.5 804.0Q368 810 378 800Q388 790 377.5 779.5Q367 769 357 767Q347 766 341 773Q337 779 340 787Z" fill="#a8bac1" stroke="none" transform="scale(1,-1) translate(0,-256)" /><path d="M499 751Q501 763 492.0 773.5Q483 784 470 779Q457 775 461.5 760.5Q466 746 475 741Q484 735 492 740Q498 743 499 751Z" fill="#a8bac1" stroke="none" transform="scale(1,-1) translate(0,-256)" /></svg>