<?xml version="1.0" encoding="utf-8" ?>
<svg baseProfile="full" height="256" version="1.1" width="256" xmlns="http://www.w3.org/2000/svg" xmlns:ev="http://www.w3.org/2001/xml-events" xmlns:xlink="http://www.w3.org/1999/xlink"><defs /><path d="M347.4505157470703 769.4289245605469Q347.43365478515625 785.0457458496094 337.21163177490234 795.245719909668Q326.98960876464844 805.4456939697266 312.57408142089844 805.4301300048828Q298.15855407714844 805.4145660400391 287.95858001708984 795.1925430297852Q277.75860595703125 784.9705200195312 277.7754669189453 769.3536987304688Q277.79103088378906 754.9381713867188 288.01305389404297 744.7381973266602Q298.2350769042969 734.5382232666016 312.6506042480469 734.5537872314453Q327.0661315917969 734.5693511962891 337.26610565185547 744.791374206543Q347.46607971191406 755.0133972167969 347.4505157470703 769.4289245605469Z" fill="#000306" stroke="none" transform="scale(1,-1) translate(0,-256)" /><path d="M447 413Q445 420 458.0 418.5Q471 417 492.5 411.0Q514 405 538.5 397.5Q563 390 585 384Q611 377 640.5 371.5Q670 366 696.5 362.0Q723 358 738.5 356.0Q754 354 751 355Q751 355 739.5 353.0Q728 351 715.5 349.0Q703 347 699 345Q688 341 674.5 335.5Q661 330 651.0 326.0Q641 322 641 322Q641 322 624.0 326.0Q607 330 586.0 335.5Q565 341 550 346Q495 365 472.0 384.5Q449 404 447 413Z" fill="#000306" stroke="none" transform="scale(1,-1) translate(0,-256)" /></svg>