<?xml version="1.0" encoding="utf-8" ?>
<svg baseProfile="full" height="256" version="1.1" width="256" xmlns="http://www.w3.org/2000/svg" xmlns:ev="http://www.w3.org/2001/xml-events" xmlns:xlink="http://www.w3.org/1999/xlink"><defs /><path d="M304 661Q290 678 273.5 691.5Q257 705 257 705Q257 705 253.0 692.5Q249 680 244.0 664.0Q239 648 235 638Q227 620 213.0 603.5Q199 587 185.0 573.5Q171 560 166 553Q162 547 149.5 534.5Q137 522 126.0 505.0Q115 488 113.0 470.0Q111 452 126 436Q144 417 168.0 414.5Q192 412 214.5 419.5Q237 427 252 439Q294 475 308.5 513.5Q323 552 326 572Q329 592 325.5 615.0Q322 638 304 661Z" fill="#ff2219" stroke="none" transform="scale(1,-1) translate(0,-256)" /></svg>