<?xml version="1.0" encoding="utf-8" ?>
<svg baseProfile="full" height="256" version="1.1" width="256" xmlns="http://www.w3.org/2000/svg" xmlns:ev="http://www.w3.org/2001/xml-events" xmlns:xlink="http://www.w3.org/1999/xlink"><defs /><path d="M956 205Q956 205 952.0 188.0Q948 171 941.5 146.0Q935 121 927.5 95.0Q920 69 912.0 50.5Q904 32 897 29Q886 25 853.5 11.0Q821 -3 762.0 -16.0Q703 -29 614 -30Q544 -31 488.5 -19.5Q433 -8 385.0 16.0Q337 40 288 76Q243 108 213.0 155.5Q183 203 167.0 253.5Q151 304 149 345Q147 390 156.0 433.0Q165 476 179 503Q185 514 204.5 527.5Q224 541 249.5 555.5Q275 570 299.0 582.0Q323 594 339.0 601.0Q355 608 355 608Q355 608 350.0 592.0Q345 576 339.5 553.5Q334 531 330.5 511.0Q327 491 331 485Q339 471 341.0 460.0Q343 449 343 449L472 551Q472 551 469.0 568.5Q466 586 467.5 609.5Q469 633 483 651Q501 674 520.0 683.0Q539 692 552.0 693.5Q565 695 565 695Q565 695 566.0 707.5Q567 720 575.0 736.5Q583 753 603 764Q623 776 642.0 774.0Q661 772 673.0 766.5Q685 761 685 761Q685 761 691.5 772.5Q698 784 712.5 795.5Q727 807 752 807Q777 807 793.0 796.0Q809 785 816.0 774.0Q823 763 823 763Q823 763 834.5 768.5Q846 774 864.5 776.0Q883 778 905 766Q930 752 937.0 735.5Q944 719 942.5 707.0Q941 695 941 695Q941 695 955.5 693.5Q970 692 988.5 684.0Q1007 676 1018 655Q1025 640 1022.0 622.0Q1019 604 1013.5 591.0Q1008 578 1008 578Q1008 578 1019.0 573.5Q1030 569 1044.0 557.0Q1058 545 1068 522Q1077 499 1069.5 477.5Q1062 456 1051.0 442.0Q1040 428 1040 428Q1040 428 1046.5 418.0Q1053 408 1057.5 390.5Q1062 373 1057 351Q1052 330 1038.0 317.0Q1024 304 1011.5 298.5Q999 293 999 293Q999 293 1005.0 278.5Q1011 264 1003 241Q998 225 986.5 217.0Q975 209 965.5 207.0Q956 205 956 205Z" fill="#845b52" stroke="none" transform="scale(1,-1) translate(0,-256)" /></svg>