<?xml version="1.0" encoding="utf-8" ?>
<svg baseProfile="full" height="256" version="1.1" width="256" xmlns="http://www.w3.org/2000/svg" xmlns:ev="http://www.w3.org/2001/xml-events" xmlns:xlink="http://www.w3.org/1999/xlink"><defs /><path d="M801 314 500 564 495 655Q495 655 491.5 665.0Q488 675 487.5 691.0Q487 707 496 724Q503 737 515.5 744.0Q528 751 538.0 753.5Q548 756 548 756Q548 756 548.0 766.0Q548 776 553.5 790.0Q559 804 575 814Q588 821 600.5 820.5Q613 820 622.0 817.0Q631 814 631 814Q631 814 633.0 822.5Q635 831 643.0 841.5Q651 852 670 856Q688 860 700.5 855.5Q713 851 719.5 845.5Q726 840 726 840Q726 840 736.5 852.0Q747 864 772 866Q789 868 800.5 861.0Q812 854 818.5 846.5Q825 839 825 839Q825 839 837.5 846.0Q850 853 875 847Q891 842 898.0 830.0Q905 818 906.0 808.0Q907 798 907 798Q907 798 916.5 801.0Q926 804 940.5 804.0Q955 804 969 792Q983 781 987.0 767.0Q991 753 990.5 742.5Q990 732 990 732Q990 732 1000.5 735.0Q1011 738 1025.5 736.0Q1040 734 1053 718Q1069 701 1069.0 683.0Q1069 665 1064.5 653.0Q1060 641 1060 641Q1060 641 1071.0 639.5Q1082 638 1095.0 630.0Q1108 622 1114 602Q1121 580 1113.5 566.5Q1106 553 1096.0 547.5Q1086 542 1086 542Q1086 542 1097.0 537.0Q1108 532 1119.0 519.5Q1130 507 1130 482Q1130 455 1120.5 441.0Q1111 427 1101.0 421.5Q1091 416 1091 416Q1091 416 1097.0 407.5Q1103 399 1107.0 381.5Q1111 364 1103 337Q1096 310 1081.0 297.0Q1066 284 1053.5 280.0Q1041 276 1041 276Q1041 276 1043.5 265.5Q1046 255 1045.5 240.0Q1045 225 1036 211Q1023 192 1008.0 184.0Q993 176 982.0 174.0Q971 172 971 172L936 202Z" fill="#4d4d4d" stroke="none" transform="scale(1,-1) translate(0,-256)" /><path d="M527 563Q469 563 421.0 544.0Q373 525 337 493Q321 479 306.0 452.0Q291 425 283.5 391.0Q276 357 282.5 320.0Q289 283 316 249Q343 214 373.0 205.0Q403 196 430.5 201.0Q458 206 477.5 215.5Q497 225 502 228Q508 232 526.0 244.5Q544 257 567.0 273.0Q590 289 610.5 303.0Q631 317 640 322Q660 332 692.5 343.5Q725 355 765 354Q792 354 818.0 342.0Q844 330 863.0 318.0Q882 306 887 303Q895 302 903.5 297.5Q912 293 912 293Q912 293 920.0 301.5Q928 310 936.0 327.5Q944 345 945 372Q945 401 933.0 417.0Q921 433 909.0 439.0Q897 445 897 445Q897 445 904.5 460.5Q912 476 914.0 500.0Q916 524 899 550Q881 576 859.5 583.0Q838 590 822.0 588.0Q806 586 806 586Q806 586 803.5 596.0Q801 606 793.0 619.0Q785 632 770.5 642.5Q756 653 731 655Q702 657 683.5 645.5Q665 634 656.5 622.0Q648 610 648 610Q648 610 639.5 616.5Q631 623 613.5 626.5Q596 630 571 622Q551 615 541.5 601.0Q532 587 529.5 575.0Q527 563 527 563Z" fill="#4d4d4d" stroke="none" transform="scale(1,-1) translate(0,-256)" /></svg>