<?xml version="1.0" encoding="utf-8" ?>
<svg baseProfile="full" height="256" version="1.1" width="256" xmlns="http://www.w3.org/2000/svg" xmlns:ev="http://www.w3.org/2001/xml-events" xmlns:xlink="http://www.w3.org/1999/xlink"><defs /><path d="M463 21 675 28V-103Q675 -103 678.0 -103.5Q681 -104 700 -110Q718 -116 730.0 -127.5Q742 -139 737 -151Q733 -159 716.0 -160.5Q699 -162 677.5 -161.5Q656 -161 640 -163Q624 -165 606.0 -171.5Q588 -178 572.0 -184.0Q556 -190 549 -192Q542 -194 530.0 -199.5Q518 -205 506.0 -207.0Q494 -209 487 -202Q476 -191 485.5 -174.5Q495 -158 510 -146Q519 -138 540.0 -129.0Q561 -120 578.0 -113.5Q595 -107 595 -107L598 4L537 10V-55Q537 -55 549.0 -57.5Q561 -60 573.0 -66.0Q585 -72 585 -83Q585 -94 570.0 -98.0Q555 -102 534.0 -103.5Q513 -105 495 -108Q468 -113 443.5 -127.5Q419 -142 397 -143Q376 -145 372.5 -129.0Q369 -113 388 -95Q411 -73 435.0 -66.5Q459 -60 463 -54Q466 -50 465.5 -31.5Q465 -13 464.0 4.0Q463 21 463 21Z" fill="#858585" stroke="none" transform="scale(1,-1) translate(0,-256)" /></svg>