<?xml version="1.0" encoding="utf-8" ?>
<svg baseProfile="full" height="256" version="1.1" width="256" xmlns="http://www.w3.org/2000/svg" xmlns:ev="http://www.w3.org/2001/xml-events" xmlns:xlink="http://www.w3.org/1999/xlink"><defs /><path d="M714.9752349853516 535.0547943115234Q718.1812286376953 546.2688446044922 712.1751861572266 557.0838775634766Q706.4281463623047 566.9329071044922 694.2480926513672 569.8798980712891Q683.2930450439453 572.1198883056641 673.4440155029297 566.3728485107422Q663.5949859619141 560.6258087158203 660.3889923095703 549.4117584228516L610.5281219482422 356.91090393066406Q607.3221282958984 345.6968536376953 613.0691680908203 335.8478240966797Q619.0752105712891 325.0327911376953 630.0302581787109 322.7928009033203Q641.2443084716797 319.58680725097656 652.0593414306641 325.5928497314453Q661.9083709716797 331.3398895263672 665.1143646240234 342.55393981933594Z" fill="#563428" stroke="none" transform="scale(1,-1) translate(0,-256)" /><path d="M656.0 350.125Q656.0 369.125 638.0 369.125Q619.0 369.125 619.0 350.125V78.125Q619.0 59.125 638.0 59.125Q656.0 59.125 656.0 78.125Z" fill="#563428" stroke="none" transform="scale(1,-1) translate(0,-256)" /></svg>