<?xml version="1.0" encoding="utf-8" ?>
<svg baseProfile="full" height="256" version="1.1" width="256" xmlns="http://www.w3.org/2000/svg" xmlns:ev="http://www.w3.org/2001/xml-events" xmlns:xlink="http://www.w3.org/1999/xlink"><defs /><path d="M896 568H943V519Q943 502 930.5 490.0Q918 478 900 478H891Q874 478 861.5 490.0Q849 502 849 519V568Z" fill="#e59600" stroke="none" transform="scale(1,-1) translate(0,-256)" /><path d="M880 646Q875 644 877 640Q878 637 882.5 632.5Q887 628 896 628Q904 628 908.5 632.5Q913 637 914 640Q916 644 912 646Q911 646 910 647H881Q880 646 880 646Z" fill="#e59600" stroke="none" transform="scale(1,-1) translate(0,-256)" /></svg>