<?xml version="1.0" encoding="utf-8" ?>
<svg baseProfile="full" height="256" version="1.1" width="256" xmlns="http://www.w3.org/2000/svg" xmlns:ev="http://www.w3.org/2001/xml-events" xmlns:xlink="http://www.w3.org/1999/xlink"><defs /><path d="M896.0164947509766 871.0808563232422Q860.2307281494141 871.0774993896484 828.8520355224609 853.2684783935547Q797.4733428955078 835.4594573974609 777.8857727050781 798.624755859375Q758.2982025146484 761.7900543212891 758.2709503173828 705.2902069091797Q758.3728485107422 660.0751495361328 774.4079284667969 627.0307006835938Q790.4430084228516 593.9862518310547 814.5661773681641 573.1333770751953Q838.6893463134766 552.2805023193359 863.4406585693359 544.2207183837891Q880.8458709716797 537.6902008056641 895.9175567626953 537.7241668701172Q910.9892425537109 537.7581329345703 928.7512969970703 544.3679046630859Q953.0019378662109 552.6927032470703 977.2242736816406 573.5772399902344Q1001.4466094970703 594.4617767333984 1017.7196502685547 627.3085174560547Q1033.992691040039 660.1552581787109 1033.8907928466797 705.3703155517578Q1033.9180450439453 761.8701629638672 1014.2422027587891 798.5004425048828Q994.5663604736328 835.1307220458984 963.1843109130859 853.1074676513672Q931.8022613525391 871.0842132568359 896.0164947509766 871.0808563232422Z" fill="#ffca28" stroke="none" transform="scale(1,-1) translate(0,-256)" /></svg>