<?xml version="1.0" encoding="utf-8" ?>
<svg baseProfile="full" height="256" version="1.1" width="256" xmlns="http://www.w3.org/2000/svg" xmlns:ev="http://www.w3.org/2001/xml-events" xmlns:xlink="http://www.w3.org/1999/xlink"><defs /><path d="M983.6359252929688 684.2568054199219Q983.6359252929688 693.2008972167969 977.5986633300781 699.2381591796875Q971.5614013671875 705.2754211425781 963.51171875 705.2754211425781Q955.0148315429688 705.2754211425781 948.9775695800781 699.2381591796875Q942.9403076171875 693.2008972167969 942.9403076171875 684.2568054199219Q942.9403076171875 675.7599182128906 948.9775695800781 669.4990539550781Q955.0148315429688 663.2381896972656 963.51171875 663.2381896972656Q971.5614013671875 663.2381896972656 977.5986633300781 669.4990539550781Q983.6359252929688 675.7599182128906 983.6359252929688 684.2568054199219Z" fill="#404040" stroke="none" transform="scale(1,-1) translate(0,-256)" /><path d="M848.4490356445312 684.2567138671875Q848.4490356445312 693.2008056640625 842.4117736816406 699.2380676269531Q836.37451171875 705.2753295898438 828.3248291015625 705.2753295898438Q819.8279418945312 705.2753295898438 813.7906799316406 699.2380676269531Q807.75341796875 693.2008056640625 807.75341796875 684.2567138671875Q807.75341796875 675.7598266601562 813.7906799316406 669.4989624023438Q819.8279418945312 663.2380981445312 828.3248291015625 663.2380981445312Q836.37451171875 663.2380981445312 842.4117736816406 669.4989624023438Q848.4490356445312 675.7598266601562 848.4490356445312 684.2567138671875Z" fill="#404040" stroke="none" transform="scale(1,-1) translate(0,-256)" /></svg>