<?xml version="1.0" encoding="utf-8" ?>
<svg baseProfile="full" height="256" version="1.1" width="256" xmlns="http://www.w3.org/2000/svg" xmlns:ev="http://www.w3.org/2001/xml-events" xmlns:xlink="http://www.w3.org/1999/xlink"><defs /><path d="M805.3669738769531 534.9586181640625Q805.3669738769531 543.2299194335938 802.2652359008789 550.5029602050781Q799.1634979248047 557.7760009765625 793.6374130249023 563.3020858764648Q788.111328125 568.8281707763672 780.8382873535156 571.9655609130859Q773.5652465820312 575.1029510498047 765.2939453125 575.1029510498047Q756.9513397216797 575.1029510498047 749.6782989501953 571.9655609130859Q742.4052581787109 568.8281707763672 736.8791732788086 563.3020858764648Q731.3530883789062 557.7760009765625 728.251350402832 550.5029602050781Q725.1496124267578 543.2299194335938 725.1496124267578 534.9586181640625Q725.1496124267578 526.6873168945312 728.251350402832 519.4142761230469Q731.3530883789062 512.1412353515625 736.8791732788086 506.61515045166016Q742.4052581787109 501.0890655517578 749.6782989501953 497.9873275756836Q756.9513397216797 494.8855895996094 765.2939453125 494.8855895996094Q773.5652465820312 494.8855895996094 780.8382873535156 497.9873275756836Q788.111328125 501.0890655517578 793.6374130249023 506.61515045166016Q799.1634979248047 512.1412353515625 802.2652359008789 519.4142761230469Q805.3669738769531 526.6873168945312 805.3669738769531 534.9586181640625Z" fill="#fff891" stroke="none" transform="scale(1,-1) translate(0,-256)" /><path d="M816.395751953125 253.68882751464844 881.3673095703125 188.71726989746094 946.3674926757812 253.72633361816406 881.3959350585938 318.69789123535156Z" fill="#fff891" stroke="none" transform="scale(1,-1) translate(0,-256)" /></svg>