<?xml version="1.0" encoding="utf-8" ?>
<svg baseProfile="full" height="256" version="1.1" width="256" xmlns="http://www.w3.org/2000/svg" xmlns:ev="http://www.w3.org/2001/xml-events" xmlns:xlink="http://www.w3.org/1999/xlink"><defs /><path d="M765.2750701904297 120.4051513671875Q765.2750701904297 127.3648681640625 762.6651763916016 133.484619140625Q760.0552825927734 139.6043701171875 755.4054718017578 144.25418090820312Q750.7556610107422 148.90399169921875 744.6359100341797 151.54388427734375Q738.5161590576172 154.18377685546875 731.5564422607422 154.18377685546875Q724.5367279052734 154.18377685546875 718.4169769287109 151.54388427734375Q712.2972259521484 148.90399169921875 707.6474151611328 144.25418090820312Q702.9976043701172 139.6043701171875 700.3877105712891 133.484619140625Q697.7778167724609 127.3648681640625 697.7778167724609 120.4051513671875Q697.7778167724609 113.4454345703125 700.3877105712891 107.32568359375Q702.9976043701172 101.2059326171875 707.6474151611328 96.55612182617188Q712.2972259521484 91.90631103515625 718.4169769287109 89.29641723632812Q724.5367279052734 86.6865234375 731.5564422607422 86.6865234375Q738.5161590576172 86.6865234375 744.6359100341797 89.29641723632812Q750.7556610107422 91.90631103515625 755.4054718017578 96.55612182617188Q760.0552825927734 101.2059326171875 762.6651763916016 107.32568359375Q765.2750701904297 113.4454345703125 765.2750701904297 120.4051513671875Z" fill="#fdd835" stroke="none" transform="scale(1,-1) translate(0,-256)" /><path d="M651 248Q659 245 659.0 237.0Q659 229 651 226L578 201Q543 189 521.5 162.5Q500 136 491 100L459 -55Q457 -60 449 -60Q442 -60 440 -55L408 100Q398 136 377.0 162.5Q356 189 321 201L247 226Q240 229 240.0 237.0Q240 245 248 248L321 271Q356 283 377.0 310.0Q398 337 408 372L440 529Q441 535 449 535Q457 535 458 529L491 373Q500 337 521.5 310.0Q543 283 578 272Z" fill="#fdd835" stroke="none" transform="scale(1,-1) translate(0,-256)" /><path d="M1065 714 1119 697Q1125 695 1125.0 688.5Q1125 682 1119 680L1060 660Q1024 652 1009.5 631.5Q995 611 988 585L969 482Q968 478 960.5 478.0Q953 478 952 482L935 585Q928 611 912.5 631.5Q897 652 870 660L807 680Q802 682 802.0 688.0Q802 694 807 696L870 721Q896 729 912.0 749.5Q928 770 935 796L952 902Q953 907 960.5 907.0Q968 907 969 902L993 790Q997 772 1003.0 758.5Q1009 745 1022.5 734.0Q1036 723 1065 714Z" fill="#fdd835" stroke="none" transform="scale(1,-1) translate(0,-256)" /></svg>