<?xml version="1.0" encoding="utf-8" ?>
<svg baseProfile="full" height="256" version="1.1" width="256" xmlns="http://www.w3.org/2000/svg" xmlns:ev="http://www.w3.org/2001/xml-events" xmlns:xlink="http://www.w3.org/1999/xlink"><defs /><path d="M412 110 476 80Q476 80 449.0 67.0Q422 54 391 42Q359 31 325.0 24.5Q291 18 266 17Q250 16 229.5 17.5Q209 19 208 37Q206 58 215.0 64.0Q224 70 233 71Q242 71 266.5 73.0Q291 75 323 81Q344 86 364.5 92.5Q385 99 398.5 104.5Q412 110 412 110Z" fill="#5a6066" stroke="none" transform="scale(1,-1) translate(0,-256)" /></svg>