<?xml version="1.0" encoding="utf-8" ?>
<svg baseProfile="full" height="256" version="1.1" width="256" xmlns="http://www.w3.org/2000/svg" xmlns:ev="http://www.w3.org/2001/xml-events" xmlns:xlink="http://www.w3.org/1999/xlink"><defs /><path d="M659 338 682 268Q682 268 722.5 274.5Q763 281 837 300Q873 309 913.0 328.5Q953 348 990.0 372.5Q1027 397 1057.0 422.5Q1087 448 1103 469Q1128 500 1129.0 544.5Q1130 589 1114 635Q1098 682 1068.5 710.5Q1039 739 1004 738Q981 737 960.0 719.0Q939 701 921.0 676.5Q903 652 890 634Q883 625 863.5 599.5Q844 574 817.5 540.5Q791 507 763.5 472.0Q736 437 712.0 406.5Q688 376 673.5 357.0Q659 338 659 338Z" fill="#6da3af" stroke="none" transform="scale(1,-1) translate(0,-256)" /></svg>