<?xml version="1.0" encoding="utf-8" ?>
<svg baseProfile="full" height="256" version="1.1" width="256" xmlns="http://www.w3.org/2000/svg" xmlns:ev="http://www.w3.org/2001/xml-events" xmlns:xlink="http://www.w3.org/1999/xlink"><defs /><path d="M185 542Q237 597 307.5 610.0Q378 623 451 598Q511 576 546.0 527.0Q581 478 589.5 417.0Q598 356 581 299Q555 210 488.5 161.0Q422 112 339 115Q255 119 206.5 159.5Q158 200 135 264Q124 296 123.5 336.0Q123 376 131.0 416.5Q139 457 153.0 490.5Q167 524 185 542Z" fill="#febb00" stroke="none" transform="scale(1,-1) translate(0,-256)" /></svg>