<?xml version="1.0" encoding="utf-8" ?>
<svg baseProfile="full" height="256" version="1.1" width="256" xmlns="http://www.w3.org/2000/svg" xmlns:ev="http://www.w3.org/2001/xml-events" xmlns:xlink="http://www.w3.org/1999/xlink"><defs /><path d="M327 598 282 584Q282 584 277.5 600.0Q273 616 267.5 636.5Q262 657 257 669Q253 681 243.5 699.0Q234 717 222.5 732.5Q211 748 201 751Q192 753 170.5 755.5Q149 758 127 761Q111 762 93.0 767.0Q75 772 75 790Q75 805 91.5 807.0Q108 809 129 809Q159 808 186.0 804.5Q213 801 224 795Q235 789 255.0 766.5Q275 744 292 710Q303 687 311.0 661.0Q319 635 323.0 616.5Q327 598 327 598Z" fill="#848484" stroke="none" transform="scale(1,-1) translate(0,-256)" /><path d="M501 64Q516 53 510.0 38.0Q504 23 498 17Q493 13 479.0 0.5Q465 -12 449.5 -26.0Q434 -40 424 -47Q413 -56 387.0 -69.0Q361 -82 336 -89Q311 -96 292.0 -95.5Q273 -95 269 -81Q265 -69 269.0 -57.5Q273 -46 307 -37Q345 -27 368.0 -14.0Q391 -1 404.5 12.0Q418 25 430 34Q438 40 449.5 50.5Q461 61 474.5 67.0Q488 73 501 64Z" fill="#848484" stroke="none" transform="scale(1,-1) translate(0,-256)" /><path d="M572 43Q590 36 588.5 19.0Q587 2 585 -5Q581 -16 570 -52Q566 -64 558.0 -85.0Q550 -106 541.5 -126.5Q533 -147 529 -156Q522 -170 510.5 -184.0Q499 -198 476 -186Q462 -179 463.0 -165.0Q464 -151 471.0 -135.0Q478 -119 483 -108Q488 -97 496.0 -76.0Q504 -55 512.0 -33.0Q520 -11 525 5Q534 29 545.0 39.5Q556 50 572 43Z" fill="#848484" stroke="none" transform="scale(1,-1) translate(0,-256)" /><path d="M645 47Q665 49 672.5 36.0Q680 23 681.0 6.5Q682 -10 682 -17Q683 -23 683.5 -42.0Q684 -61 685.5 -83.5Q687 -106 687.5 -123.5Q688 -141 688 -145Q687 -151 686.0 -161.5Q685 -172 679.0 -181.0Q673 -190 658 -190Q635 -191 631.0 -174.5Q627 -158 628 -145Q628 -136 627.5 -110.5Q627 -85 625.5 -58.5Q624 -32 623 -19Q622 -6 621.5 8.5Q621 23 625.5 34.0Q630 45 645 47Z" fill="#848484" stroke="none" transform="scale(1,-1) translate(0,-256)" /><path d="M293 830Q295 845 307.0 847.0Q319 849 339 847Q362 845 388.0 839.0Q414 833 427 823Q438 815 448.5 801.5Q459 788 466 764Q482 709 487 660Q491 624 490.0 604.0Q489 584 487 557Q485 534 476.5 525.5Q468 517 457 518Q444 520 439.5 530.5Q435 541 436 557Q437 576 437.5 600.0Q438 624 436 650Q432 700 420.0 736.0Q408 772 401 776Q396 780 381.5 784.5Q367 789 351.0 793.0Q335 797 324 800Q306 805 298.5 811.0Q291 817 293 830Z" fill="#848484" stroke="none" transform="scale(1,-1) translate(0,-256)" /></svg>