<?xml version="1.0" encoding="utf-8" ?>
<svg baseProfile="full" height="256" version="1.1" width="256" xmlns="http://www.w3.org/2000/svg" xmlns:ev="http://www.w3.org/2001/xml-events" xmlns:xlink="http://www.w3.org/1999/xlink"><defs /><path d="M966 234Q949 279 925.0 309.0Q901 339 877.0 357.5Q853 376 837.0 384.0Q821 392 821 392Q821 392 843.0 399.0Q865 406 888 409Q911 411 928.0 408.5Q945 406 945 406Q945 406 966.0 394.0Q987 382 1014.5 355.0Q1042 328 1061 284Q1075 251 1081.5 217.0Q1088 183 1089.5 154.5Q1091 126 1090.0 108.5Q1089 91 1089 91Q1089 91 1079.5 78.5Q1070 66 1055 51Q1043 40 1029.0 29.5Q1015 19 1005.0 12.5Q995 6 995 6Q995 6 996.5 16.5Q998 27 999 54Q999 81 993.0 130.5Q987 180 966 234Z" fill="#414340" stroke="none" transform="scale(1,-1) translate(0,-256)" /><path d="M739 351 694 315 688 254Q688 254 698.5 241.0Q709 228 722.5 209.0Q736 190 743 172Q757 141 762.5 105.5Q768 70 769.5 38.5Q771 7 770.0 -13.5Q769 -34 769 -34Q769 -34 788.5 -37.5Q808 -41 823 -41Q845 -42 862.5 -40.0Q880 -38 880 -38Q880 -38 880.5 -13.0Q881 12 879.0 52.0Q877 92 869.0 136.0Q861 180 845 219Q824 268 799.5 297.0Q775 326 757.0 338.5Q739 351 739 351Z" fill="#414340" stroke="none" transform="scale(1,-1) translate(0,-256)" /></svg>