<?xml version="1.0" encoding="utf-8" ?>
<svg baseProfile="full" height="256" version="1.1" width="256" xmlns="http://www.w3.org/2000/svg" xmlns:ev="http://www.w3.org/2001/xml-events" xmlns:xlink="http://www.w3.org/1999/xlink"><defs /><path d="M1083 765Q1089 765 1094.0 760.0Q1099 755 1099 748V747Q1099 660 1089.5 559.5Q1080 459 1056.0 354.0Q1032 249 988.0 149.0Q944 49 874 -36Q817 -105 766.0 -142.5Q715 -180 681.0 -195.0Q647 -210 645 -211Q645 -212 639 -212V913Q639 913 639.5 913.0Q640 913 640 913Q647 913 651 908Q699 868 756.5 841.5Q814 815 871.0 799.5Q928 784 975.5 776.5Q1023 769 1052.5 767.0Q1082 765 1083 765Z" fill="#84b0c1" stroke="none" transform="scale(1,-1) translate(0,-256)" /></svg>