<?xml version="1.0" encoding="utf-8" ?>
<svg baseProfile="full" height="256" version="1.1" width="256" xmlns="http://www.w3.org/2000/svg" xmlns:ev="http://www.w3.org/2001/xml-events" xmlns:xlink="http://www.w3.org/1999/xlink"><defs /><path d="M717.8429718017578 814.5758056640625Q717.8429718017578 822.2320251464844 712.4308166503906 827.5121765136719Q707.0186614990234 832.7923278808594 699.6264495849609 832.7923278808594Q692.2342376708984 832.7923278808594 686.9540863037109 827.5121765136719Q681.6739349365234 822.2320251464844 681.6739349365234 814.5758056640625Q681.6739349365234 807.18359375 686.9540863037109 801.9034423828125Q692.2342376708984 796.623291015625 699.6264495849609 796.623291015625Q707.0186614990234 796.623291015625 712.4308166503906 801.9034423828125Q717.8429718017578 807.18359375 717.8429718017578 814.5758056640625Z" fill="#37474f" stroke="none" transform="scale(1,-1) translate(0,-256)" /><path d="M826.4059753417969 765.5448150634766Q826.4059753417969 773.2010345458984 820.9938201904297 778.4811859130859Q815.5816650390625 783.7613372802734 808.189453125 783.7613372802734Q800.7972412109375 783.7613372802734 795.51708984375 778.4811859130859Q790.2369384765625 773.2010345458984 790.2369384765625 765.5448150634766Q790.2369384765625 758.1526031494141 795.51708984375 752.8724517822266Q800.7972412109375 747.5923004150391 808.189453125 747.5923004150391Q815.5816650390625 747.5923004150391 820.9938201904297 752.8724517822266Q826.4059753417969 758.1526031494141 826.4059753417969 765.5448150634766Z" fill="#37474f" stroke="none" transform="scale(1,-1) translate(0,-256)" /><path d="M946.4059753417969 732.3568115234375Q946.4059753417969 740.0130310058594 940.9938201904297 745.2931823730469Q935.5816650390625 750.5733337402344 928.189453125 750.5733337402344Q920.7972412109375 750.5733337402344 915.51708984375 745.2931823730469Q910.2369384765625 740.0130310058594 910.2369384765625 732.3568115234375Q910.2369384765625 724.964599609375 915.51708984375 719.6844482421875Q920.7972412109375 714.404296875 928.189453125 714.404296875Q935.5816650390625 714.404296875 940.9938201904297 719.6844482421875Q946.4059753417969 724.964599609375 946.4059753417969 732.3568115234375Z" fill="#37474f" stroke="none" transform="scale(1,-1) translate(0,-256)" /><path d="M1069.5929718017578 714.2638092041016Q1069.5929718017578 721.9200286865234 1064.1808166503906 727.2001800537109Q1058.7686614990234 732.4803314208984 1051.376449584961 732.4803314208984Q1043.9842376708984 732.4803314208984 1038.704086303711 727.2001800537109Q1033.4239349365234 721.9200286865234 1033.4239349365234 714.2638092041016Q1033.4239349365234 706.8715972900391 1038.704086303711 701.5914459228516Q1043.9842376708984 696.3112945556641 1051.376449584961 696.3112945556641Q1058.7686614990234 696.3112945556641 1064.1808166503906 701.5914459228516Q1069.5929718017578 706.8715972900391 1069.5929718017578 714.2638092041016Z" fill="#37474f" stroke="none" transform="scale(1,-1) translate(0,-256)" /><path d="M1073.5309753417969 603.6388092041016Q1073.5309753417969 611.2950286865234 1068.1188201904297 616.5751800537109Q1062.7066650390625 621.8553314208984 1055.314453125 621.8553314208984Q1047.9222412109375 621.8553314208984 1042.64208984375 616.5751800537109Q1037.3619384765625 611.2950286865234 1037.3619384765625 603.6388092041016Q1037.3619384765625 596.2465972900391 1042.64208984375 590.9664459228516Q1047.9222412109375 585.6862945556641 1055.314453125 585.6862945556641Q1062.7066650390625 585.6862945556641 1068.1188201904297 590.9664459228516Q1073.5309753417969 596.2465972900391 1073.5309753417969 603.6388092041016Z" fill="#37474f" stroke="none" transform="scale(1,-1) translate(0,-256)" /><path d="M1058.9999694824219 474.0758056640625Q1058.9999694824219 481.7320251464844 1053.5878143310547 487.0121765136719Q1048.1756591796875 492.2923278808594 1040.783447265625 492.2923278808594Q1033.3912353515625 492.2923278808594 1028.111083984375 487.0121765136719Q1022.8309326171875 481.7320251464844 1022.8309326171875 474.0758056640625Q1022.8309326171875 466.68359375 1028.111083984375 461.4034423828125Q1033.3912353515625 456.123291015625 1040.783447265625 456.123291015625Q1048.1756591796875 456.123291015625 1053.5878143310547 461.4034423828125Q1058.9999694824219 466.68359375 1058.9999694824219 474.0758056640625Z" fill="#37474f" stroke="none" transform="scale(1,-1) translate(0,-256)" /><path d="M656.4369812011719 -157.33018493652344Q656.4369812011719 -149.67396545410156 651.0248260498047 -144.39381408691406Q645.6126708984375 -139.11366271972656 638.220458984375 -139.11366271972656Q630.8282470703125 -139.11366271972656 625.548095703125 -144.39381408691406Q620.2679443359375 -149.67396545410156 620.2679443359375 -157.33018493652344Q620.2679443359375 -164.72239685058594 625.548095703125 -170.00254821777344Q630.8282470703125 -175.28269958496094 638.220458984375 -175.28269958496094Q645.6126708984375 -175.28269958496094 651.0248260498047 -170.00254821777344Q656.4369812011719 -164.72239685058594 656.4369812011719 -157.33018493652344Z" fill="#37474f" stroke="none" transform="scale(1,-1) translate(0,-256)" /><path d="M762.5619812011719 -106.70518493652344Q762.5619812011719 -99.04896545410156 757.1498260498047 -93.76881408691406Q751.7376708984375 -88.48866271972656 744.345458984375 -88.48866271972656Q736.9532470703125 -88.48866271972656 731.673095703125 -93.76881408691406Q726.3929443359375 -99.04896545410156 726.3929443359375 -106.70518493652344Q726.3929443359375 -114.09739685058594 731.673095703125 -119.37754821777344Q736.9532470703125 -124.65769958496094 744.345458984375 -124.65769958496094Q751.7376708984375 -124.65769958496094 757.1498260498047 -119.37754821777344Q762.5619812011719 -114.09739685058594 762.5619812011719 -106.70518493652344Z" fill="#37474f" stroke="none" transform="scale(1,-1) translate(0,-256)" /><path d="M859.4999694824219 -12.955184936523438Q859.4999694824219 -5.2989654541015625 854.0878143310547 -0.0188140869140625Q848.6756591796875 5.2613372802734375 841.283447265625 5.2613372802734375Q833.8912353515625 5.2613372802734375 828.611083984375 -0.0188140869140625Q823.3309326171875 -5.2989654541015625 823.3309326171875 -12.955184936523438Q823.3309326171875 -20.347396850585938 828.611083984375 -25.627548217773438Q833.8912353515625 -30.907699584960938 841.283447265625 -30.907699584960938Q848.6756591796875 -30.907699584960938 854.0878143310547 -25.627548217773438Q859.4999694824219 -20.347396850585938 859.4999694824219 -12.955184936523438Z" fill="#37474f" stroke="none" transform="scale(1,-1) translate(0,-256)" /><path d="M935.1559753417969 94.29481506347656Q935.1559753417969 101.95103454589844 929.7438201904297 107.23118591308594Q924.3316650390625 112.51133728027344 916.939453125 112.51133728027344Q909.5472412109375 112.51133728027344 904.26708984375 107.23118591308594Q898.9869384765625 101.95103454589844 898.9869384765625 94.29481506347656Q898.9869384765625 86.90260314941406 904.26708984375 81.62245178222656Q909.5472412109375 76.34230041503906 916.939453125 76.34230041503906Q924.3316650390625 76.34230041503906 929.7438201904297 81.62245178222656Q935.1559753417969 86.90260314941406 935.1559753417969 94.29481506347656Z" fill="#37474f" stroke="none" transform="scale(1,-1) translate(0,-256)" /><path d="M990.0929718017578 209.3258056640625Q990.0929718017578 216.98202514648438 984.6808166503906 222.26217651367188Q979.2686614990234 227.54232788085938 971.8764495849609 227.54232788085938Q964.4842376708984 227.54232788085938 959.2040863037109 222.26217651367188Q953.9239349365234 216.98202514648438 953.9239349365234 209.3258056640625Q953.9239349365234 201.93359375 959.2040863037109 196.6534423828125Q964.4842376708984 191.373291015625 971.8764495849609 191.373291015625Q979.2686614990234 191.373291015625 984.6808166503906 196.6534423828125Q990.0929718017578 201.93359375 990.0929718017578 209.3258056640625Z" fill="#37474f" stroke="none" transform="scale(1,-1) translate(0,-256)" /><path d="M1033.2179718017578 343.8568115234375Q1033.2179718017578 351.5130310058594 1027.8058166503906 356.7931823730469Q1022.3936614990234 362.0733337402344 1015.0014495849609 362.0733337402344Q1007.6092376708984 362.0733337402344 1002.3290863037109 356.7931823730469Q997.0489349365234 351.5130310058594 997.0489349365234 343.8568115234375Q997.0489349365234 336.464599609375 1002.3290863037109 331.1844482421875Q1007.6092376708984 325.904296875 1015.0014495849609 325.904296875Q1022.3936614990234 325.904296875 1027.8058166503906 331.1844482421875Q1033.2179718017578 336.464599609375 1033.2179718017578 343.8568115234375Z" fill="#37474f" stroke="none" transform="scale(1,-1) translate(0,-256)" /></svg>