<?xml version="1.0" encoding="utf-8" ?>
<svg baseProfile="full" height="256" version="1.1" width="256" xmlns="http://www.w3.org/2000/svg" xmlns:ev="http://www.w3.org/2001/xml-events" xmlns:xlink="http://www.w3.org/1999/xlink"><defs /><path d="M651.9369812011719 -151.33018493652344Q651.9369812011719 -143.67396545410156 646.5248260498047 -138.39381408691406Q641.1126708984375 -133.11366271972656 633.720458984375 -133.11366271972656Q626.3282470703125 -133.11366271972656 621.048095703125 -138.39381408691406Q615.7679443359375 -143.67396545410156 615.7679443359375 -151.33018493652344Q615.7679443359375 -158.72239685058594 621.048095703125 -164.00254821777344Q626.3282470703125 -169.28269958496094 633.720458984375 -169.28269958496094Q641.1126708984375 -169.28269958496094 646.5248260498047 -164.00254821777344Q651.9369812011719 -158.72239685058594 651.9369812011719 -151.33018493652344Z" fill="#eeeeee" stroke="none" transform="scale(1,-1) translate(0,-256)" /><path d="M595.1249694824219 820.5758056640625Q595.1249694824219 828.2320251464844 589.7128143310547 833.5121765136719Q584.3006591796875 838.7923278808594 576.908447265625 838.7923278808594Q569.5162353515625 838.7923278808594 564.236083984375 833.5121765136719Q558.9559326171875 828.2320251464844 558.9559326171875 820.5758056640625Q558.9559326171875 813.18359375 564.236083984375 807.9034423828125Q569.5162353515625 802.623291015625 576.908447265625 802.623291015625Q584.3006591796875 802.623291015625 589.7128143310547 807.9034423828125Q595.1249694824219 813.18359375 595.1249694824219 820.5758056640625Z" fill="#eeeeee" stroke="none" transform="scale(1,-1) translate(0,-256)" /><path d="M486.4679718017578 771.5448150634766Q486.4679718017578 779.2010345458984 481.0558166503906 784.4811859130859Q475.64366149902344 789.7613372802734 468.25144958496094 789.7613372802734Q460.85923767089844 789.7613372802734 455.57908630371094 784.4811859130859Q450.29893493652344 779.2010345458984 450.29893493652344 771.5448150634766Q450.29893493652344 764.1526031494141 455.57908630371094 758.8724517822266Q460.85923767089844 753.5923004150391 468.25144958496094 753.5923004150391Q475.64366149902344 753.5923004150391 481.0558166503906 758.8724517822266Q486.4679718017578 764.1526031494141 486.4679718017578 771.5448150634766Z" fill="#eeeeee" stroke="none" transform="scale(1,-1) translate(0,-256)" /><path d="M366.5619812011719 738.3568115234375Q366.5619812011719 746.0130310058594 361.1498260498047 751.2931823730469Q355.7376708984375 756.5733337402344 348.345458984375 756.5733337402344Q340.9532470703125 756.5733337402344 335.673095703125 751.2931823730469Q330.3929443359375 746.0130310058594 330.3929443359375 738.3568115234375Q330.3929443359375 730.964599609375 335.673095703125 725.6844482421875Q340.9532470703125 720.404296875 348.345458984375 720.404296875Q355.7376708984375 720.404296875 361.1498260498047 725.6844482421875Q366.5619812011719 730.964599609375 366.5619812011719 738.3568115234375Z" fill="#eeeeee" stroke="none" transform="scale(1,-1) translate(0,-256)" /><path d="M243.37496948242188 720.2638092041016Q243.37496948242188 727.9200286865234 237.9628143310547 733.2001800537109Q232.5506591796875 738.4803314208984 225.158447265625 738.4803314208984Q217.7662353515625 738.4803314208984 212.486083984375 733.2001800537109Q207.2059326171875 727.9200286865234 207.2059326171875 720.2638092041016Q207.2059326171875 712.8715972900391 212.486083984375 707.5914459228516Q217.7662353515625 702.3112945556641 225.158447265625 702.3112945556641Q232.5506591796875 702.3112945556641 237.9628143310547 707.5914459228516Q243.37496948242188 712.8715972900391 243.37496948242188 720.2638092041016Z" fill="#eeeeee" stroke="none" transform="scale(1,-1) translate(0,-256)" /><path d="M239.3429718017578 609.6388092041016Q239.3429718017578 617.2950286865234 233.93081665039062 622.5751800537109Q228.51866149902344 627.8553314208984 221.12644958496094 627.8553314208984Q213.73423767089844 627.8553314208984 208.45408630371094 622.5751800537109Q203.17393493652344 617.2950286865234 203.17393493652344 609.6388092041016Q203.17393493652344 602.2465972900391 208.45408630371094 596.9664459228516Q213.73423767089844 591.6862945556641 221.12644958496094 591.6862945556641Q228.51866149902344 591.6862945556641 233.93081665039062 596.9664459228516Q239.3429718017578 602.2465972900391 239.3429718017578 609.6388092041016Z" fill="#eeeeee" stroke="none" transform="scale(1,-1) translate(0,-256)" /><path d="M253.9679718017578 480.0758056640625Q253.9679718017578 487.7320251464844 248.55581665039062 493.0121765136719Q243.14366149902344 498.2923278808594 235.75144958496094 498.2923278808594Q228.35923767089844 498.2923278808594 223.07908630371094 493.0121765136719Q217.79893493652344 487.7320251464844 217.79893493652344 480.0758056640625Q217.79893493652344 472.68359375 223.07908630371094 467.4034423828125Q228.35923767089844 462.123291015625 235.75144958496094 462.123291015625Q243.14366149902344 462.123291015625 248.55581665039062 467.4034423828125Q253.9679718017578 472.68359375 253.9679718017578 480.0758056640625Z" fill="#eeeeee" stroke="none" transform="scale(1,-1) translate(0,-256)" /><path d="M550.3119812011719 -100.70518493652344Q550.3119812011719 -93.04896545410156 544.8998260498047 -87.76881408691406Q539.4876708984375 -82.48866271972656 532.095458984375 -82.48866271972656Q524.7032470703125 -82.48866271972656 519.423095703125 -87.76881408691406Q514.1429443359375 -93.04896545410156 514.1429443359375 -100.70518493652344Q514.1429443359375 -108.09739685058594 519.423095703125 -113.37754821777344Q524.7032470703125 -118.65769958496094 532.095458984375 -118.65769958496094Q539.4876708984375 -118.65769958496094 544.8998260498047 -113.37754821777344Q550.3119812011719 -108.09739685058594 550.3119812011719 -100.70518493652344Z" fill="#eeeeee" stroke="none" transform="scale(1,-1) translate(0,-256)" /><path d="M453.3749694824219 -6.9551849365234375Q453.3749694824219 0.7010345458984375 447.9628143310547 5.9811859130859375Q442.5506591796875 11.261337280273438 435.158447265625 11.261337280273438Q427.7662353515625 11.261337280273438 422.486083984375 5.9811859130859375Q417.2059326171875 0.7010345458984375 417.2059326171875 -6.9551849365234375Q417.2059326171875 -14.347396850585938 422.486083984375 -19.627548217773438Q427.7662353515625 -24.907699584960938 435.158447265625 -24.907699584960938Q442.5506591796875 -24.907699584960938 447.9628143310547 -19.627548217773438Q453.3749694824219 -14.347396850585938 453.3749694824219 -6.9551849365234375Z" fill="#eeeeee" stroke="none" transform="scale(1,-1) translate(0,-256)" /><path d="M377.8119812011719 100.29481506347656Q377.8119812011719 107.95103454589844 372.3998260498047 113.23118591308594Q366.9876708984375 118.51133728027344 359.595458984375 118.51133728027344Q352.2032470703125 118.51133728027344 346.923095703125 113.23118591308594Q341.6429443359375 107.95103454589844 341.6429443359375 100.29481506347656Q341.6429443359375 92.90260314941406 346.923095703125 87.62245178222656Q352.2032470703125 82.34230041503906 359.595458984375 82.34230041503906Q366.9876708984375 82.34230041503906 372.3998260498047 87.62245178222656Q377.8119812011719 92.90260314941406 377.8119812011719 100.29481506347656Z" fill="#eeeeee" stroke="none" transform="scale(1,-1) translate(0,-256)" /><path d="M322.7809753417969 215.3258056640625Q322.7809753417969 222.98202514648438 317.3688201904297 228.26217651367188Q311.9566650390625 233.54232788085938 304.564453125 233.54232788085938Q297.1722412109375 233.54232788085938 291.89208984375 228.26217651367188Q286.6119384765625 222.98202514648438 286.6119384765625 215.3258056640625Q286.6119384765625 207.93359375 291.89208984375 202.6534423828125Q297.1722412109375 197.373291015625 304.564453125 197.373291015625Q311.9566650390625 197.373291015625 317.3688201904297 202.6534423828125Q322.7809753417969 207.93359375 322.7809753417969 215.3258056640625Z" fill="#eeeeee" stroke="none" transform="scale(1,-1) translate(0,-256)" /><path d="M279.6559753417969 349.8568115234375Q279.6559753417969 357.5130310058594 274.2438201904297 362.7931823730469Q268.8316650390625 368.0733337402344 261.439453125 368.0733337402344Q254.0472412109375 368.0733337402344 248.76708984375 362.7931823730469Q243.4869384765625 357.5130310058594 243.4869384765625 349.8568115234375Q243.4869384765625 342.464599609375 248.76708984375 337.1844482421875Q254.0472412109375 331.904296875 261.439453125 331.904296875Q268.8316650390625 331.904296875 274.2438201904297 337.1844482421875Q279.6559753417969 342.464599609375 279.6559753417969 349.8568115234375Z" fill="#eeeeee" stroke="none" transform="scale(1,-1) translate(0,-256)" /></svg>