<?xml version="1.0" encoding="utf-8" ?>
<svg baseProfile="full" height="256" version="1.1" width="256" xmlns="http://www.w3.org/2000/svg" xmlns:ev="http://www.w3.org/2001/xml-events" xmlns:xlink="http://www.w3.org/1999/xlink"><defs /><path d="M444 336H535L510 -132Q509 -141 503.5 -146.5Q498 -152 489 -152Q481 -152 475.0 -146.5Q469 -141 469 -132Z" fill="#2f7889" stroke="none" transform="scale(1,-1) translate(0,-256)" /><path d="M761 270 774 230Q774 230 774.0 230.0Q774 230 774 230Q771 240 759.5 245.5Q748 251 733 248Q718 245 708.5 235.5Q699 226 701 216Q701 216 701.5 216.0Q702 216 702 216Q701 216 701.0 216.0Q701 216 701 216L685 256Q685 256 631.0 250.0Q577 244 489 244Q401 244 349.0 250.5Q297 257 297 257L281 217Q281 217 281.0 217.0Q281 217 281 217Q283 227 273.5 236.0Q264 245 249 248Q235 251 223.5 246.5Q212 242 209 232Q210 232 209 233L221 272Q177 283 156.5 293.0Q136 303 135 304Q115 315 105 332Q101 340 100.0 344.0Q99 348 99 348Q119 344 166.5 326.0Q214 308 294.0 292.0Q374 276 489 276Q577 276 650.0 287.0Q723 298 775.5 313.0Q828 328 857.0 339.5Q886 351 887 351Q887 351 886.5 345.5Q886 340 882 329Q872 309 851 299Q849 298 827.5 289.0Q806 280 761 270Z" fill="#2f7889" stroke="none" transform="scale(1,-1) translate(0,-256)" /></svg>