<?xml version="1.0" encoding="utf-8" ?>
<svg baseProfile="full" height="256" version="1.1" width="256" xmlns="http://www.w3.org/2000/svg" xmlns:ev="http://www.w3.org/2001/xml-events" xmlns:xlink="http://www.w3.org/1999/xlink"><defs /><path d="M1178 656Q1195 649 1199.0 618.5Q1203 588 1194 556Q1185 523 1165.5 501.5Q1146 480 1127 484L892 539Q893 527 893 515Q893 433 861.5 360.0Q830 287 775.0 232.0Q720 177 647.5 146.0Q575 115 492 115Q409 115 336.5 146.0Q264 177 209.0 232.0Q154 287 122.5 359.5Q91 432 91 515Q91 598 122.5 671.0Q154 744 209.0 799.0Q264 854 336.5 885.0Q409 916 492 916Q563 916 632.0 899.0Q701 882 764.5 855.5Q828 829 884 800Q940 772 992.5 746.0Q1045 720 1086.5 699.5Q1128 679 1153.0 667.5Q1178 656 1178 656Z" fill="#81d4fa" stroke="none" transform="scale(1,-1) translate(0,-256)" /></svg>