<?xml version="1.0" encoding="utf-8" ?>
<svg baseProfile="full" height="256" version="1.1" width="256" xmlns="http://www.w3.org/2000/svg" xmlns:ev="http://www.w3.org/2001/xml-events" xmlns:xlink="http://www.w3.org/1999/xlink"><defs /><path d="M727 830Q734 811 729.5 796.0Q725 781 723 776Q725 770 726.5 754.5Q728 739 710 723Q696 711 698 704Q700 697 706.0 697.0Q712 697 712 697Q712 697 703.5 686.0Q695 675 675 676Q650 676 638.0 686.5Q626 697 623.5 708.0Q621 719 622 719Q634 723 639.5 734.0Q645 745 643.0 755.5Q641 766 630 769Q625 770 621.0 766.0Q617 762 612 757L605 746Q605 746 602.5 745.5Q600 745 598 749Q589 761 590.0 776.0Q591 791 592.5 803.5Q594 816 586 821Q586 821 585.5 821.0Q585 821 584 821Q580 819 576.5 817.0Q573 815 570 813Q560 810 549.5 810.5Q539 811 529 812Q507 813 498.5 806.0Q490 799 489.0 791.5Q488 784 488 784Q474 790 468.0 802.5Q462 815 465 829Q467 840 472.5 850.0Q478 860 488 864Q480 884 486.5 894.5Q493 905 503.0 908.5Q513 912 513 912Q513 912 512.5 903.0Q512 894 520 891Q527 889 535 892Q538 894 541.5 896.0Q545 898 548 900Q557 905 566.5 910.5Q576 916 589 917Q625 923 644.5 913.5Q664 904 672.5 891.5Q681 879 682 873Q689 872 704.0 862.5Q719 853 727 830Z" fill="#543930" stroke="none" transform="scale(1,-1) translate(0,-256)" /></svg>