<?xml version="1.0" encoding="utf-8" ?>
<svg baseProfile="full" height="256" version="1.1" width="256" xmlns="http://www.w3.org/2000/svg" xmlns:ev="http://www.w3.org/2001/xml-events" xmlns:xlink="http://www.w3.org/1999/xlink"><defs /><path d="M509 529Q509 529 517.5 535.5Q526 542 546 571Q568 603 583.5 609.5Q599 616 615 607L623 602Q639 593 643.5 574.5Q648 556 639 540L592 459Q592 459 576.0 462.5Q560 466 540.5 480.5Q521 495 509 529Z" fill="#ed6d23" stroke="none" transform="scale(1,-1) translate(0,-256)" /><path d="M731 462Q731 462 716.5 472.0Q702 482 685.0 495.5Q668 509 659 519Q641 540 639.0 558.0Q637 576 646 591Q656 607 677.5 607.0Q699 607 719 592Q749 569 767.5 565.5Q786 562 786 562Q786 546 778.0 528.5Q770 511 759.0 496.0Q748 481 739.5 471.5Q731 462 731 462Z" fill="#ed6d23" stroke="none" transform="scale(1,-1) translate(0,-256)" /></svg>