<?xml version="1.0" encoding="utf-8" ?>
<svg baseProfile="full" height="256" version="1.1" width="256" xmlns="http://www.w3.org/2000/svg" xmlns:ev="http://www.w3.org/2001/xml-events" xmlns:xlink="http://www.w3.org/1999/xlink"><defs /><path d="M820 631Q841 632 853.5 646.5Q866 661 866.0 680.0Q866 699 851 713L850 715H558Q558 715 569.0 707.0Q580 699 595.0 683.5Q610 668 621.5 646.0Q633 624 633 596Q633 578 633.0 554.5Q633 531 633.0 509.0Q633 487 633.0 472.5Q633 458 633 458L744 629Z" fill="#0d47a1" stroke="none" transform="scale(1,-1) translate(0,-256)" /><path d="M809.6199035644531 442.90264892578125Q809.6199035644531 478.57470703125 787.3248672485352 504.05474853515625Q765.0298309326172 529.5347900390625 733.1797790527344 529.5347900390625Q701.3297271728516 529.5347900390625 679.0346908569336 504.05474853515625Q656.7396545410156 478.57470703125 656.7396545410156 442.90264892578125Q656.7396545410156 407.2305908203125 679.0346908569336 382.3875503540039Q701.3297271728516 357.5445098876953 733.1797790527344 357.5445098876953Q765.0298309326172 357.5445098876953 787.3248672485352 382.3875503540039Q809.6199035644531 407.2305908203125 809.6199035644531 442.90264892578125Z" fill="#0d47a1" stroke="none" transform="scale(1,-1) translate(0,-256)" /></svg>