<?xml version="1.0" encoding="utf-8" ?>
<svg baseProfile="full" height="256" version="1.1" width="256" xmlns="http://www.w3.org/2000/svg" xmlns:ev="http://www.w3.org/2001/xml-events" xmlns:xlink="http://www.w3.org/1999/xlink"><defs /><path d="M1154 878Q1158 883 1166 884Q1173 885 1179.0 880.0Q1185 875 1186 867Q1189 805 1177.0 739.0Q1165 673 1141.5 615.0Q1118 557 1087 520Q1083 515 1076 514Q1028 507 980.0 532.5Q932 558 892.0 602.5Q852 647 828 695Q826 700 826 704Q826 712 832.0 717.0Q838 722 845 722Q899 721 954.0 742.0Q1009 763 1060.0 799.0Q1111 835 1154 878Z" fill="#792d85" stroke="none" transform="scale(1,-1) translate(0,-256)" /><path d="M121 881Q116 886 109 886Q101 887 95.0 882.0Q89 877 89 869Q85 807 97.0 741.0Q109 675 132.5 617.5Q156 560 188 522Q192 517 199 516Q247 509 295.0 535.0Q343 561 383.0 605.0Q423 649 447 698Q448 702 448 706Q448 714 442.5 719.5Q437 725 429 725Q375 723 320.5 744.0Q266 765 215.0 801.0Q164 837 121 881Z" fill="#792d85" stroke="none" transform="scale(1,-1) translate(0,-256)" /><path d="M1043 591Q1128 472 1128 309Q1128 91 979 -41Q912 -100 823.5 -132.0Q735 -164 637 -164Q556 -164 475.5 -140.0Q395 -116 326.5 -67.5Q258 -19 213 56Q260 -10 326.0 -53.0Q392 -96 468.0 -117.0Q544 -138 620 -138Q718 -138 806.5 -106.5Q895 -75 962 -16Q1111 117 1111 335Q1114 473 1043 591Z" fill="#792d85" stroke="none" transform="scale(1,-1) translate(0,-256)" /></svg>