<?xml version="1.0" encoding="utf-8" ?>
<svg baseProfile="full" height="256" version="1.1" width="256" xmlns="http://www.w3.org/2000/svg" xmlns:ev="http://www.w3.org/2001/xml-events" xmlns:xlink="http://www.w3.org/1999/xlink"><defs /><path d="M420 152 421 151Q424 168 440.0 182.0Q456 196 459 201Q463 206 478.0 230.0Q493 254 512 278Q531 303 546.5 317.0Q562 331 564 335Q565 339 561.0 341.5Q557 344 550 347Q544 351 531.5 371.5Q519 392 514 404Q509 417 506.0 430.5Q503 444 503 444L464 470L425 402Q425 402 417.0 396.5Q409 391 401 389Q393 386 384.5 386.0Q376 386 376 386Q376 386 362.5 379.5Q349 373 332.0 369.0Q315 365 306 372Q297 378 292.0 390.0Q287 402 284.5 411.5Q282 421 282 421L376 476L411 526Q411 526 413.5 535.0Q416 544 424 559Q431 573 441.5 586.5Q452 600 452 600V624L475 699L426 820Q426 820 426.5 833.0Q427 846 430 856Q436 873 442.5 882.5Q449 892 460 901Q475 913 500.0 914.0Q525 915 548 901Q563 892 578.5 876.0Q594 860 604.0 847.5Q614 835 614 835L642 795L758 676L888 574Q888 574 898.5 562.0Q909 550 919 533Q928 517 941.0 489.5Q954 462 966 433Q978 400 974.0 375.5Q970 351 946 342Q922 332 910.5 337.5Q899 343 892 355Q885 367 877.0 384.0Q869 401 863 409Q858 417 850.5 423.0Q843 429 834 443Q824 458 817.0 470.5Q810 483 810 483L801 484Q797 484 790.5 485.5Q784 487 784 487L771 474L789 458Q789 458 800.5 447.0Q812 436 825.0 423.0Q838 410 842 404Q849 393 857.5 367.5Q866 342 860 323Q856 311 830.0 292.0Q804 273 769.5 253.0Q735 233 706 218Q684 208 655.0 195.0Q626 182 597.5 170.5Q569 159 548.5 150.5Q528 142 524 141Q506 134 498 113Q495 103 496.0 97.0Q497 91 497 83Q497 75 489.5 62.5Q482 50 478 36Q474 22 464.0 -1.0Q454 -24 443 -35Q432 -46 421.0 -43.5Q410 -41 410 -41Q410 -41 409.5 -29.0Q409 -17 410 -1Q411 16 414.5 41.5Q418 67 418 82Q418 96 417.5 115.0Q417 134 420 152Z" fill="#6d4c40" stroke="none" transform="scale(1,-1) translate(0,-256)" /></svg>