<?xml version="1.0" encoding="utf-8" ?>
<svg baseProfile="full" height="256" version="1.1" width="256" xmlns="http://www.w3.org/2000/svg" xmlns:ev="http://www.w3.org/2001/xml-events" xmlns:xlink="http://www.w3.org/1999/xlink"><defs /><path d="M504 776Q512 778 522.0 772.0Q532 766 533 762Q533 757 528.0 752.0Q523 747 513 744Q505 741 497.0 743.0Q489 745 487 748Q486 751 490.0 762.0Q494 773 504 776Z" fill="#b6895a" stroke="none" transform="scale(1,-1) translate(0,-256)" /><path d="M477 850Q487 853 495.0 845.0Q503 837 509 834Q519 829 530.0 828.5Q541 828 542 815Q543 803 533.5 797.0Q524 791 500 783Q453 768 448 786Q444 795 451.0 802.0Q458 809 461 815Q464 820 466.0 834.0Q468 848 477 850Z" fill="#b6895a" stroke="none" transform="scale(1,-1) translate(0,-256)" /></svg>