<?xml version="1.0" encoding="utf-8" ?>
<svg baseProfile="full" height="256" version="1.1" width="256" xmlns="http://www.w3.org/2000/svg" xmlns:ev="http://www.w3.org/2001/xml-events" xmlns:xlink="http://www.w3.org/1999/xlink"><defs /><path d="M515 762H514Q537 770 551.0 765.5Q565 761 571.0 752.5Q577 744 577 739Q577 733 573.5 730.0Q570 727 570 727Q570 727 574.5 712.0Q579 697 571 687Q566 682 560.0 682.0Q554 682 554 682Q554 682 554.0 671.5Q554 661 549.0 650.5Q544 640 529 640Q519 640 514.5 647.5Q510 655 509.0 662.5Q508 670 508 670Q508 670 502.5 668.0Q497 666 490 673Q483 680 482.5 693.0Q482 706 482 706Q482 706 477.5 706.0Q473 706 471 714Q468 722 475.5 736.5Q483 751 515 762Z" fill="#b99277" stroke="none" transform="scale(1,-1) translate(0,-256)" /></svg>