<?xml version="1.0" encoding="utf-8" ?>
<svg baseProfile="full" height="256" version="1.1" width="256" xmlns="http://www.w3.org/2000/svg" xmlns:ev="http://www.w3.org/2001/xml-events" xmlns:xlink="http://www.w3.org/1999/xlink"><defs /><path d="M611 421Q623 422 635.0 435.0Q647 448 671 448Q689 448 699.5 440.5Q710 433 719.0 426.0Q728 419 742 418Q750 418 756.5 420.0Q763 422 769 425Q778 429 788.0 431.5Q798 434 814 433Q835 430 844.0 420.5Q853 411 859.5 402.5Q866 394 880 393Q893 393 901.0 397.5Q909 402 917.5 406.0Q926 410 942 410Q964 410 981.5 393.0Q999 376 1008 358Q1013 348 1020.0 346.0Q1027 344 1032 347Q1029 365 1025 379Q1009 427 982.0 444.5Q955 462 929.0 457.5Q903 453 892 435Q885 473 866.5 490.5Q848 508 825.5 510.0Q803 512 783.0 502.0Q763 492 754 475Q743 512 723.0 528.5Q703 545 680.5 545.0Q658 545 639.5 533.5Q621 522 614 504Q614 519 613 546Q607 510 604.0 485.5Q601 461 600 448Q600 448 600 447Q599 441 599.0 431.0Q599 421 611 421Z" fill="#faa700" stroke="none" transform="scale(1,-1) translate(0,-256)" /><path d="M592 849Q579 874 555.0 883.5Q531 893 505.5 887.0Q480 881 461.5 859.0Q443 837 443 799Q443 795 442.5 765.5Q442 736 441.5 689.5Q441 643 441.0 587.5Q441 532 440.5 477.0Q440 422 439.5 374.5Q439 327 439 298Q449 298 449 307Q449 309 450.5 340.0Q452 371 454.5 419.5Q457 468 459.5 524.0Q462 580 464.5 634.0Q467 688 468.5 730.0Q470 772 471 791Q471 823 482.5 839.5Q494 856 510.0 860.5Q526 865 541.5 860.5Q557 856 565 846Q573 838 580.5 840.0Q588 842 592 849Z" fill="#faa700" stroke="none" transform="scale(1,-1) translate(0,-256)" /><path d="M632 -184Q631 -141 619.0 -114.5Q607 -88 587.5 -70.5Q568 -53 545.0 -37.5Q522 -22 498.5 -3.0Q475 16 455 47Q419 101 396.0 132.5Q373 164 351.0 181.0Q329 198 298.5 208.5Q268 219 218 231Q195 237 187.5 250.5Q180 264 184.0 279.0Q188 294 199 303Q209 312 204 324Q196 320 188 314Q163 299 158.5 274.5Q154 250 167.5 229.0Q181 208 211 204Q278 195 320.5 170.0Q363 145 383 106Q420 32 464.0 -29.5Q508 -91 553 -113Q566 -119 578.5 -132.0Q591 -145 593 -160Q594 -164 597.0 -171.0Q600 -178 611 -181Q620 -183 632 -184Z" fill="#faa700" stroke="none" transform="scale(1,-1) translate(0,-256)" /></svg>