<?xml version="1.0" encoding="utf-8" ?>
<svg baseProfile="full" height="256" version="1.1" width="256" xmlns="http://www.w3.org/2000/svg" xmlns:ev="http://www.w3.org/2001/xml-events" xmlns:xlink="http://www.w3.org/1999/xlink"><defs /><path d="M439 284Q394 315 361.0 329.0Q328 343 285 342Q261 342 237.0 336.0Q213 330 188 314Q170 304 162 286Q165 284 170 287Q203 308 233.0 313.5Q263 319 286 319Q319 319 349.5 306.5Q380 294 401.0 281.0Q422 268 427 265Q433 260 436.0 262.0Q439 264 439 267Z" fill="#b55e19" stroke="none" transform="scale(1,-1) translate(0,-256)" /><path d="M614 515Q613 538 611.5 573.0Q610 608 608.5 646.5Q607 685 605.5 720.0Q604 755 603.0 778.5Q602 802 602 806Q601 848 576.0 869.5Q551 891 521 889Q522 883 531 879Q541 874 557.0 855.5Q573 837 575 800Q575 788 577.0 757.0Q579 726 582.0 685.5Q585 645 587.5 602.0Q590 559 592.5 522.0Q595 485 596.5 461.0Q598 437 598 435Q598 428 607.0 427.5Q616 427 615 436Q615 444 614.5 460.5Q614 477 613.5 490.5Q613 504 613 504Q613 504 613.0 506.5Q613 509 614 515Z" fill="#b55e19" stroke="none" transform="scale(1,-1) translate(0,-256)" /><path d="M695 543Q695 539 698 537Q713 526 722.0 502.5Q731 479 729 437Q729 427 742.0 426.5Q755 426 755 438Q755 443 754.5 457.0Q754 471 754 475Q745 506 729.0 522.0Q713 538 695 543Z" fill="#b55e19" stroke="none" transform="scale(1,-1) translate(0,-256)" /><path d="M837 508Q838 505 841 502Q855 491 861.5 473.0Q868 455 869 411Q870 400 881.5 401.0Q893 402 893 413Q893 421 893.0 428.0Q893 435 893 435L892 437Q892 436 892 435Q886 468 871.0 485.0Q856 502 837 508Z" fill="#b55e19" stroke="none" transform="scale(1,-1) translate(0,-256)" /><path d="M956 457Q956 453 960 450Q968 445 979.5 428.5Q991 412 1001 380Q1005 367 1008.0 333.0Q1011 299 1011.0 254.0Q1011 209 1007.5 162.0Q1004 115 995 75Q992 65 984.5 41.0Q977 17 966.5 -9.0Q956 -35 945 -52Q929 -78 929.5 -100.5Q930 -123 932 -130Q932 -135 934.0 -149.0Q936 -163 937 -175Q951 -169 951 -155Q950 -119 956.0 -102.0Q962 -85 972 -65Q979 -54 986.5 -38.5Q994 -23 1003 1Q1018 44 1027.0 96.5Q1036 149 1038.5 203.0Q1041 257 1037.5 303.5Q1034 350 1025 379Q1013 415 994.0 433.5Q975 452 956 457Z" fill="#b55e19" stroke="none" transform="scale(1,-1) translate(0,-256)" /></svg>