<?xml version="1.0" encoding="utf-8" ?>
<svg baseProfile="full" height="256" version="1.1" width="256" xmlns="http://www.w3.org/2000/svg" xmlns:ev="http://www.w3.org/2001/xml-events" xmlns:xlink="http://www.w3.org/1999/xlink"><defs /><path d="M175 -135 147 -51 127 185 312 649 678 749 870 541Q870 541 847.5 545.0Q825 549 792.5 549.0Q760 549 727.0 539.0Q694 529 673 501Q646 464 646.5 421.5Q647 379 666.5 335.5Q686 292 715 251Q759 187 810.5 143.5Q862 100 917.5 68.5Q973 37 1028 9Q1073 -15 1112.0 -30.0Q1151 -45 1176.0 -54.0Q1201 -63 1203 -68Q1206 -74 1188.0 -92.0Q1170 -110 1132.0 -131.0Q1094 -152 1037.5 -167.0Q981 -182 905 -182Q820 -182 746.0 -164.0Q672 -146 606.0 -123.5Q540 -101 480.0 -85.0Q420 -69 364 -72Q312 -76 277.5 -87.0Q243 -98 222.0 -110.5Q201 -123 190.5 -131.0Q180 -139 175 -135Z" fill="#000000" stroke="none" transform="scale(1,-1) translate(0,-256)" /></svg>