<?xml version="1.0" encoding="utf-8" ?>
<svg baseProfile="full" height="256" version="1.1" width="256" xmlns="http://www.w3.org/2000/svg" xmlns:ev="http://www.w3.org/2001/xml-events" xmlns:xlink="http://www.w3.org/1999/xlink"><defs /><path d="M267.0 -79.718994140625Q267.0 -51.718994140625 286.0 -31.218994140625Q305.0 -10.718994140625 335.0 -10.718994140625Q365.0 -9.718994140625 386.0 -28.718994140625Q407.0 -47.718994140625 408.0 -75.718994140625Q409.0 -103.718994140625 391.5 -125.218994140625Q374.0 -146.718994140625 338.0 -146.718994140625Q302.0 -146.718994140625 284.5 -123.718994140625Q267.0 -100.718994140625 267.0 -79.718994140625Z" fill="#c8c8c8" stroke="none" transform="scale(1,-1) translate(0,-256)" /><path d="M926.156005859375 -84.31199645996094Q926.156005859375 -56.31199645996094 945.156005859375 -35.81199645996094Q964.156005859375 -15.311996459960938 994.156005859375 -15.311996459960938Q1024.156005859375 -14.311996459960938 1045.156005859375 -33.31199645996094Q1066.156005859375 -52.31199645996094 1067.156005859375 -80.31199645996094Q1068.156005859375 -108.31199645996094 1050.656005859375 -129.81199645996094Q1033.156005859375 -151.31199645996094 997.156005859375 -151.31199645996094Q961.156005859375 -151.31199645996094 943.656005859375 -128.31199645996094Q926.156005859375 -105.31199645996094 926.156005859375 -84.31199645996094Z" fill="#c8c8c8" stroke="none" transform="scale(1,-1) translate(0,-256)" /></svg>