<?xml version="1.0" encoding="utf-8" ?>
<svg baseProfile="full" height="256" version="1.1" width="256" xmlns="http://www.w3.org/2000/svg" xmlns:ev="http://www.w3.org/2001/xml-events" xmlns:xlink="http://www.w3.org/1999/xlink"><defs /><path d="M320 266Q324 270 341.0 291.0Q358 312 382.5 340.5Q407 369 433.5 396.0Q460 423 482 438Q527 468 587.5 479.0Q648 490 733 490Q793 491 832.5 487.5Q872 484 900.0 476.5Q928 469 955 456Q986 440 1015.5 415.0Q1045 390 1066.0 366.5Q1087 343 1094 334Q1103 323 1113.5 306.0Q1124 289 1133.5 274.5Q1143 260 1149 257Q1155 253 1168.5 245.0Q1182 237 1193.0 227.5Q1204 218 1204 208Q1205 202 1205.0 176.0Q1205 150 1205.0 114.5Q1205 79 1205.5 43.0Q1206 7 1206.0 -20.0Q1206 -47 1206 -54Q1207 -67 1198.5 -80.5Q1190 -94 1178.5 -103.5Q1167 -113 1159 -113Q1156 -113 1120.0 -113.5Q1084 -114 1023.0 -114.0Q962 -114 885.0 -114.0Q808 -114 722.5 -114.0Q637 -114 551.5 -114.0Q466 -114 388.0 -114.0Q310 -114 249.0 -113.5Q188 -113 150.5 -112.5Q113 -112 109 -111Q98 -109 89.5 -98.5Q81 -88 76.5 -76.5Q72 -65 71 -60Q69 -47 68.0 -8.0Q67 31 69 90Q71 149 78.0 174.0Q85 199 100 211Q111 219 135.5 226.5Q160 234 190.5 240.0Q221 246 249.5 251.0Q278 256 298.0 260.0Q318 264 320 266Z" fill="#ffd61c" stroke="none" transform="scale(1,-1) translate(0,-256)" /><path d="M441 183Q413 182 405.5 190.5Q398 199 398 199Q398 199 403.0 214.0Q408 229 427 250Q442 266 463.0 275.0Q484 284 495 270Q502 260 495.5 239.5Q489 219 474.0 201.5Q459 184 441 183Z" fill="#ffd61c" stroke="none" transform="scale(1,-1) translate(0,-256)" /></svg>