<?xml version="1.0" encoding="utf-8" ?>
<svg baseProfile="full" height="256" version="1.1" width="256" xmlns="http://www.w3.org/2000/svg" xmlns:ev="http://www.w3.org/2001/xml-events" xmlns:xlink="http://www.w3.org/1999/xlink"><defs /><path d="M394 173Q392 180 395.0 189.0Q398 198 398 198Q398 198 407.0 207.5Q416 217 428.5 229.5Q441 242 450.5 251.5Q460 261 461 262Q461 263 468.5 265.5Q476 268 483.5 270.5Q491 273 491 273Q491 273 503.0 258.5Q515 244 513 217Q511 198 502.0 177.0Q493 156 465 154Q431 152 413.5 160.0Q396 168 394 173Z" fill="#dd801b" stroke="none" transform="scale(1,-1) translate(0,-256)" /></svg>