<?xml version="1.0" encoding="utf-8" ?>
<svg baseProfile="full" height="256" version="1.1" width="256" xmlns="http://www.w3.org/2000/svg" xmlns:ev="http://www.w3.org/2001/xml-events" xmlns:xlink="http://www.w3.org/1999/xlink"><defs /><path d="M878 -104Q878 -59 906.5 -26.5Q935 6 981 8Q1035 10 1065.0 -19.5Q1095 -49 1097 -94Q1098 -123 1086.0 -150.0Q1074 -177 1049.0 -193.5Q1024 -210 987 -210Q950 -210 926.0 -193.0Q902 -176 890.5 -151.5Q879 -127 878 -104Z" fill="#4e433d" stroke="none" transform="scale(1,-1) translate(0,-256)" /><path d="M146.281005859375 -105.875Q146.281005859375 -60.875 174.781005859375 -28.375Q203.281005859375 4.125 249.281005859375 6.125Q303.281005859375 8.125 333.281005859375 -21.375Q363.281005859375 -50.875 365.281005859375 -95.875Q366.281005859375 -124.875 354.281005859375 -151.875Q342.281005859375 -178.875 317.281005859375 -195.375Q292.281005859375 -211.875 255.281005859375 -211.875Q218.281005859375 -211.875 194.281005859375 -194.875Q170.281005859375 -177.875 158.781005859375 -153.375Q147.281005859375 -128.875 146.281005859375 -105.875Z" fill="#4e433d" stroke="none" transform="scale(1,-1) translate(0,-256)" /></svg>