<?xml version="1.0" encoding="utf-8" ?>
<svg baseProfile="full" height="256" version="1.1" width="256" xmlns="http://www.w3.org/2000/svg" xmlns:ev="http://www.w3.org/2001/xml-events" xmlns:xlink="http://www.w3.org/1999/xlink"><defs /><path d="M933 -102Q932 -78 947.5 -61.0Q963 -44 988 -43Q1012 -43 1029.0 -59.0Q1046 -75 1047 -98Q1047 -122 1033.0 -140.0Q1019 -158 990 -158Q961 -158 947.0 -138.5Q933 -119 933 -102Z" fill="#c8c8c8" stroke="none" transform="scale(1,-1) translate(0,-256)" /><path d="M201.281005859375 -103.781005859375Q200.281005859375 -79.781005859375 215.781005859375 -62.781005859375Q231.281005859375 -45.781005859375 256.281005859375 -44.781005859375Q280.281005859375 -44.781005859375 297.281005859375 -60.781005859375Q314.281005859375 -76.781005859375 315.281005859375 -99.781005859375Q315.281005859375 -123.781005859375 301.281005859375 -141.781005859375Q287.281005859375 -159.781005859375 258.281005859375 -159.781005859375Q229.281005859375 -159.781005859375 215.281005859375 -140.281005859375Q201.281005859375 -120.781005859375 201.281005859375 -103.781005859375Z" fill="#c8c8c8" stroke="none" transform="scale(1,-1) translate(0,-256)" /></svg>