<?xml version="1.0" encoding="utf-8" ?>
<svg baseProfile="full" height="256" version="1.1" width="256" xmlns="http://www.w3.org/2000/svg" xmlns:ev="http://www.w3.org/2001/xml-events" xmlns:xlink="http://www.w3.org/1999/xlink"><defs /><path d="M938 21V22Q942 21 945.0 21.5Q948 22 952 22Q973 26 1005.5 39.5Q1038 53 1072.5 76.0Q1107 99 1136.5 129.5Q1166 160 1182 198Q1199 238 1200.5 282.0Q1202 326 1190.0 365.5Q1178 405 1153 433Q1103 489 1028 465Q999 456 974.5 430.0Q950 404 932.0 371.5Q914 339 901.5 308.0Q889 277 882.5 256.0Q876 235 876 235V229Q873 200 872.5 161.5Q872 123 879.0 87.5Q886 52 906 35Q921 21 938 21ZM954 202V201Q960 222 971.5 249.5Q983 277 998.0 304.0Q1013 331 1029.0 352.0Q1045 373 1060 381Q1081 392 1092.0 389.5Q1103 387 1103 387Q1127 361 1129.5 320.0Q1132 279 1110 234Q1097 206 1071.5 181.5Q1046 157 1015.0 140.0Q984 123 953 118Q947 134 949.0 148.5Q951 163 954 202Z" fill="#ee5a46" stroke="none" transform="scale(1,-1) translate(0,-256)" /><path d="M805 517Q851 475 895.0 420.5Q939 366 967.0 306.5Q995 247 992 189Q989 127 963.0 71.5Q937 16 892.0 -27.0Q847 -70 788 -94Q747 -111 699.0 -114.0Q651 -117 603 -115Q555 -112 507.5 -104.0Q460 -96 421 -76Q364 -46 324.0 1.5Q284 49 263.5 107.0Q243 165 247 226Q249 284 282.5 341.0Q316 398 365.5 447.5Q415 497 465 534Q465 534 484.5 539.0Q504 544 532.5 550.5Q561 557 590.0 561.5Q619 566 638 565Q656 564 684.0 556.5Q712 549 740.0 540.0Q768 531 786.5 524.0Q805 517 805 517Z" fill="#ee5a46" stroke="none" transform="scale(1,-1) translate(0,-256)" /><path d="M92 499Q92 499 106.5 474.0Q121 449 132 410Q140 384 139.5 351.5Q139 319 144.0 278.0Q149 237 173 184Q192 145 212.5 124.0Q233 103 251.0 95.0Q269 87 280.5 86.5Q292 86 292 86Q292 86 300.5 89.5Q309 93 321.0 105.0Q333 117 342.0 141.0Q351 165 353 205Q354 244 346.5 268.0Q339 292 329.0 304.0Q319 316 311.0 320.0Q303 324 303 324L280 328Q263 333 252.5 364.5Q242 396 230 433Q217 473 200.0 493.5Q183 514 183 514L94 512Z" fill="#ee5a46" stroke="none" transform="scale(1,-1) translate(0,-256)" /><path d="M139.91156005859375 531.7477264404297Q119.15328979492188 532.5014190673828 104.3206787109375 525.6423187255859Q89.48806762695312 518.7832183837891 89.04092407226562 507.83998107910156Q88.42437744140625 497.3761444091797 102.48716735839844 488.8638916015625Q116.54995727539062 480.3516387939453 137.47763061523438 479.11854553222656Q157.75650024414062 478.19544982910156 172.589111328125 485.05455017089844Q187.42172241210938 491.9136505126953 188.3482666015625 503.0262908935547Q188.79541015625 513.9695281982422 174.492919921875 522.3970794677734Q160.1904296875 530.8246307373047 139.91156005859375 531.7477264404297Z" fill="#ee5a46" stroke="none" transform="scale(1,-1) translate(0,-256)" /><path d="M438 516V517Q437 499 463.5 483.0Q490 467 535.5 456.0Q581 445 637 442Q692 439 738.5 445.5Q785 452 813.0 465.0Q841 478 842 496Q842 496 829.0 509.0Q816 522 790.5 539.0Q765 556 728.5 570.0Q692 584 644 586Q596 588 558.0 578.0Q520 568 493.0 553.5Q466 539 452.0 527.5Q438 516 438 516Z" fill="#ee5a46" stroke="none" transform="scale(1,-1) translate(0,-256)" /><path d="M714.3014526367188 622.8566436767578Q714.3014526367188 636.9969635009766 708.9988327026367 649.369743347168Q703.6962127685547 661.7425231933594 694.2929000854492 671.1458358764648Q684.8895874023438 680.5491485595703 672.5168075561523 685.8517684936523Q660.1440277099609 691.1543884277344 645.8623046875 691.1543884277344Q631.7219848632812 691.1543884277344 619.3492050170898 685.8517684936523Q606.9764251708984 680.5491485595703 597.573112487793 671.1458358764648Q588.1697998046875 661.7425231933594 582.8671798706055 649.369743347168Q577.5645599365234 636.9969635009766 577.5645599365234 622.8566436767578Q577.5645599365234 608.5749206542969 582.8671798706055 596.2021408081055Q588.1697998046875 583.8293609619141 597.573112487793 574.4260482788086Q606.9764251708984 565.0227355957031 619.3492050170898 559.7201156616211Q631.7219848632812 554.4174957275391 645.8623046875 554.4174957275391Q660.1440277099609 554.4174957275391 672.5168075561523 559.7201156616211Q684.8895874023438 565.0227355957031 694.2929000854492 574.4260482788086Q703.6962127685547 583.8293609619141 708.9988327026367 596.2021408081055Q714.3014526367188 608.5749206542969 714.3014526367188 622.8566436767578Z" fill="#ee5a46" stroke="none" transform="scale(1,-1) translate(0,-256)" /></svg>