<?xml version="1.0" encoding="utf-8" ?>
<svg baseProfile="full" height="256" version="1.1" width="256" xmlns="http://www.w3.org/2000/svg" xmlns:ev="http://www.w3.org/2001/xml-events" xmlns:xlink="http://www.w3.org/1999/xlink"><defs /><path d="M227 113Q267 88 321 88Q374 88 414 114Q455 140 476 187Q498 235 498 296V595H412V291Q412 239 389 208Q365 176 321 176Q276 176 253 208Q229 239 229 291V595H143V296Q143 232 165 185Q187 137 227 113Z" fill="#fafafa" stroke="none" transform="scale(1,-1) translate(0,-256)" /><path d="M594 595V99H681V281H755Q798 281 834 301Q870 320 891 356Q911 393 911 438Q911 484 891 520Q870 555 834 575Q799 595 755 595ZM758 370H681V506H758Q790 506 808 486Q826 467 826 438Q826 410 808 390Q790 370 758 370Z" fill="#fafafa" stroke="none" transform="scale(1,-1) translate(0,-256)" /><path d="M983 116Q1000 99 1023 99Q1046 99 1062 116Q1078 134 1078 159Q1078 184 1062 201Q1046 219 1023 219Q1000 219 983 201Q967 184 967 159Q967 134 983 116ZM980 452 987 269H1058L1065 452V595H980Z" fill="#fafafa" stroke="none" transform="scale(1,-1) translate(0,-256)" /></svg>