<?xml version="1.0" encoding="utf-8" ?>
<svg baseProfile="full" height="256" version="1.1" width="256" xmlns="http://www.w3.org/2000/svg" xmlns:ev="http://www.w3.org/2001/xml-events" xmlns:xlink="http://www.w3.org/1999/xlink"><defs /><path d="M609 713Q621 713 621 725L620 772Q620 785 607 785Q594 785 572.5 784.5Q551 784 534 783Q521 782 522 769L526 722Q527 710 540 710Q555 711 575.5 711.5Q596 712 609 713Z" fill="#9e9e9e" stroke="none" transform="scale(1,-1) translate(0,-256)" /><path d="M374 22Q375 19 377 19Q401 11 418.5 15.5Q436 20 441 23Q443 24 443 26L438 94Q438 98 434 97Q428 95 412.5 93.0Q397 91 374 93Q370 94 370 89Z" fill="#9e9e9e" stroke="none" transform="scale(1,-1) translate(0,-256)" /></svg>