<?xml version="1.0" encoding="utf-8" ?>
<svg baseProfile="full" height="256" version="1.1" width="256" xmlns="http://www.w3.org/2000/svg" xmlns:ev="http://www.w3.org/2001/xml-events" xmlns:xlink="http://www.w3.org/1999/xlink"><defs /><path d="M532 435Q532 445 542 444Q596 436 656.5 436.5Q717 437 772 444Q781 445 781 436V172Q781 165 774 163Q715 152 657.5 152.5Q600 153 539 163Q532 165 532 172Z" fill="#fafafa" stroke="none" transform="scale(1,-1) translate(0,-256)" /><path d="M717.6139831542969 688.9756317138672Q717.6139831542969 701.5419158935547 712.8877258300781 712.5513153076172Q708.1614685058594 723.5607147216797 699.8210144042969 731.9567718505859Q691.4805603027344 740.3528289794922 680.4155578613281 745.0790863037109Q669.3505554199219 749.8053436279297 656.7842712402344 749.8053436279297Q644.2179870605469 749.8053436279297 633.2085876464844 745.0790863037109Q622.1991882324219 740.3528289794922 613.8031311035156 731.9567718505859Q605.4070739746094 723.5607147216797 600.6808166503906 712.5513153076172Q595.9545593261719 701.5419158935547 595.9545593261719 688.9756317138672Q595.9545593261719 676.2981414794922 600.6808166503906 665.2887420654297Q605.4070739746094 654.2793426513672 613.8031311035156 645.9388885498047Q622.1991882324219 637.5984344482422 633.2085876464844 632.8721771240234Q644.2179870605469 628.1459197998047 656.7842712402344 628.1459197998047Q669.3505554199219 628.1459197998047 680.4155578613281 632.8721771240234Q691.4805603027344 637.5984344482422 699.8210144042969 645.9388885498047Q708.1614685058594 654.2793426513672 712.8877258300781 665.2887420654297Q717.6139831542969 676.2981414794922 717.6139831542969 688.9756317138672Z" fill="#fafafa" stroke="none" transform="scale(1,-1) translate(0,-256)" /></svg>