<?xml version="1.0" encoding="utf-8" ?>
<svg baseProfile="full" height="256" version="1.1" width="256" xmlns="http://www.w3.org/2000/svg" xmlns:ev="http://www.w3.org/2001/xml-events" xmlns:xlink="http://www.w3.org/1999/xlink"><defs /><path d="M113 732Q113 732 112.5 743.5Q112 755 116.0 772.0Q120 789 132.0 805.5Q144 822 168.5 833.0Q193 844 235 842Q279 841 303.5 828.5Q328 816 339.5 799.0Q351 782 354.0 765.5Q357 749 356.0 737.5Q355 726 355 726Q355 726 352.0 739.0Q349 752 336 768Q323 785 298.0 799.0Q273 813 237 815Q200 818 176.5 806.0Q153 794 139 778Q123 761 118.0 746.5Q113 732 113 732Z" fill="#add4c1" stroke="none" transform="scale(1,-1) translate(0,-256)" /><path d="M244 649Q244 649 239.0 660.0Q234 671 223 681Q208 694 204.5 702.5Q201 711 205 715Q207 716 216.5 713.5Q226 711 235.0 707.0Q244 703 247 700Q255 693 264.0 679.5Q273 666 276 660Q277 657 278.5 644.0Q280 631 280.5 615.5Q281 600 278.5 588.5Q276 577 268 577Q252 576 247 605Q245 617 245.0 630.5Q245 644 244 649Z" fill="#add4c1" stroke="none" transform="scale(1,-1) translate(0,-256)" /><path d="M211 674Q210 683 193.5 685.5Q177 688 167 679Q163 676 159.5 662.5Q156 649 154 638Q151 621 155.5 613.0Q160 605 160 605Q160 605 164.0 610.5Q168 616 172 619Q178 623 184.0 624.5Q190 626 192 632Q193 636 190.5 638.5Q188 641 188 641Q188 641 195.0 643.0Q202 645 204 650Q205 655 203.0 659.0Q201 663 201 663Q201 663 206.0 664.5Q211 666 211 674Z" fill="#add4c1" stroke="none" transform="scale(1,-1) translate(0,-256)" /><path d="M177 581Q177 581 176.5 570.0Q176 559 176 541Q176 523 178.0 499.5Q180 476 189 473Q195 470 200.5 476.5Q206 483 210.0 491.0Q214 499 214 502Q215 504 215.5 520.0Q216 536 216.5 556.0Q217 576 217.0 591.0Q217 606 216 607Q215 608 209.5 612.0Q204 616 192 609Q182 604 179.5 592.5Q177 581 177 581Z" fill="#add4c1" stroke="none" transform="scale(1,-1) translate(0,-256)" /><path d="M1051 -211Q1050 -209 1047.0 -195.0Q1044 -181 1041 -170Q1039 -158 1029.5 -128.5Q1020 -99 1007 -70Q993 -38 976.0 -22.0Q959 -6 959 -2Q959 -1 972.0 -5.5Q985 -10 1001.5 -17.5Q1018 -25 1028 -35Q1047 -50 1057.5 -63.0Q1068 -76 1068 -76Q1068 -76 1070.0 -83.5Q1072 -91 1073 -119Q1073 -139 1071.0 -160.0Q1069 -181 1065.5 -195.5Q1062 -210 1061 -211Q1054 -213 1051 -211Z" fill="#add4c1" stroke="none" transform="scale(1,-1) translate(0,-256)" /><path d="M882 144Q882 144 875.0 146.0Q868 148 858.0 147.0Q848 146 840.0 136.5Q832 127 831 103Q830 83 836.5 64.5Q843 46 853.0 34.5Q863 23 870 24Q874 24 873.0 38.0Q872 52 876 63Q881 74 884.5 77.0Q888 80 888 81Q889 82 884.5 92.5Q880 103 879 115Q878 126 880.0 134.5Q882 143 882 144Z" fill="#add4c1" stroke="none" transform="scale(1,-1) translate(0,-256)" /><path d="M859 229Q849 226 842.5 232.5Q836 239 832 247Q830 250 821.0 264.5Q812 279 795.5 296.5Q779 314 756.0 328.0Q733 342 703.5 344.5Q674 347 640 330Q604 313 591.5 281.0Q579 249 579 215Q579 180 585.0 154.0Q591 128 594 119Q597 111 600.5 104.5Q604 98 606 102Q607 104 604.0 120.0Q601 136 597.5 160.0Q594 184 594 209Q595 240 605.0 266.0Q615 292 643 308Q676 326 703.0 323.0Q730 320 751.0 305.5Q772 291 787.5 271.5Q803 252 812.5 236.0Q822 220 825 216Q831 209 841.0 206.5Q851 204 857 208Q863 212 862.5 221.0Q862 230 859 229Z" fill="#add4c1" stroke="none" transform="scale(1,-1) translate(0,-256)" /><path d="M277 532Q284 535 290.5 523.5Q297 512 307 495Q319 476 328.0 455.5Q337 435 341 424Q342 418 342.5 397.5Q343 377 343.0 352.0Q343 327 342.5 308.0Q342 289 342 286Q342 283 356.5 267.0Q371 251 390 235Q403 224 420.5 211.5Q438 199 451.0 189.5Q464 180 463 177Q462 172 449.0 170.5Q436 169 428 157Q424 152 414.5 131.0Q405 110 394.0 84.5Q383 59 374.5 37.5Q366 16 363 9Q351 -21 344 -64Q341 -77 345.0 -95.5Q349 -114 354.5 -130.0Q360 -146 362 -153Q364 -162 352.0 -165.5Q340 -169 331 -167Q317 -163 305.5 -156.0Q294 -149 291 -134Q289 -124 292.0 -110.5Q295 -97 299.0 -86.5Q303 -76 303 -76Q303 -76 300.0 -72.0Q297 -68 295 -61Q291 -48 293.5 -36.5Q296 -25 300 -14Q302 -7 310.0 11.0Q318 29 325.0 46.5Q332 64 333 69Q333 73 326.5 94.5Q320 116 310.5 144.5Q301 173 292.5 200.0Q284 227 279 243Q272 270 268.5 288.0Q265 306 265 306Q266 334 267.0 371.5Q268 409 268.5 445.5Q269 482 271.0 506.5Q273 531 277 532Z" fill="#add4c1" stroke="none" transform="scale(1,-1) translate(0,-256)" /><path d="M446 88Q449 86 447.0 73.0Q445 60 445 47Q444 39 455.5 38.5Q467 38 468 32Q468 26 460.0 14.0Q452 2 443 -11Q436 -21 428.5 -35.5Q421 -50 414.5 -61.0Q408 -72 404 -73Q395 -73 394.5 -53.5Q394 -34 399.5 -8.0Q405 18 411 37Q421 72 432.0 81.0Q443 90 446 88Z" fill="#add4c1" stroke="none" transform="scale(1,-1) translate(0,-256)" /><path d="M837 -140Q850 -150 866.0 -167.0Q882 -184 893.0 -197.5Q904 -211 904 -211H837Q837 -211 825.5 -200.5Q814 -190 798.0 -179.0Q782 -168 769 -167Q750 -165 739.5 -172.5Q729 -180 724 -177Q721 -174 729.5 -162.5Q738 -151 750.5 -136.5Q763 -122 772 -110Q779 -101 792.0 -85.0Q805 -69 818.5 -52.0Q832 -35 841.5 -23.0Q851 -11 850 -10Q847 -7 835.5 -12.0Q824 -17 809 -22Q795 -27 775.5 -32.5Q756 -38 754 -40Q751 -42 744.0 -65.0Q737 -88 727 -116Q720 -134 712.0 -156.5Q704 -179 698.5 -195.0Q693 -211 693 -211L640 -212Q640 -212 647.0 -199.0Q654 -186 664 -162Q671 -147 677.0 -128.5Q683 -110 686.0 -96.5Q689 -83 687 -83Q685 -83 672.0 -101.0Q659 -119 647 -139Q639 -152 630.5 -169.0Q622 -186 615.5 -199.0Q609 -212 609 -212H519Q519 -212 533.0 -197.0Q547 -182 567.5 -160.5Q588 -139 607.5 -119.5Q627 -100 639 -90Q654 -77 677.0 -61.5Q700 -46 718.5 -33.5Q737 -21 737 -19Q737 -16 723.5 -19.5Q710 -23 692 -31Q675 -39 641.5 -61.0Q608 -83 575 -113Q553 -133 531.5 -156.0Q510 -179 495.0 -195.5Q480 -212 480 -212H414Q414 -212 420.0 -199.0Q426 -186 434.0 -169.0Q442 -152 446 -140Q451 -128 456.5 -105.5Q462 -83 466.0 -64.5Q470 -46 469 -45Q467 -44 453.0 -66.5Q439 -89 423 -127Q407 -165 402.5 -188.5Q398 -212 398 -212H368Q368 -212 370.0 -204.5Q372 -197 382 -171Q391 -145 409.5 -105.0Q428 -65 450 -31Q471 4 478.5 12.5Q486 21 489 24Q491 28 495.0 38.5Q499 49 505 60Q512 72 520.0 81.5Q528 91 529 90Q532 87 533.5 80.5Q535 74 535 74Q535 74 546.0 71.5Q557 69 574 61Q597 49 605.0 41.5Q613 34 613 34Q613 34 619.5 33.0Q626 32 640 30Q654 28 668.5 18.0Q683 8 690 6Q697 5 728.5 6.5Q760 8 808 9Q855 10 878.0 6.5Q901 3 903 -1Q903 -3 891.5 -16.0Q880 -29 865.5 -44.5Q851 -60 842 -71Q828 -88 816.5 -104.5Q805 -121 805 -121Q805 -121 813.0 -124.5Q821 -128 837 -140ZM547 12Q530 -10 518.5 -30.0Q507 -50 509 -53Q511 -56 530.5 -39.0Q550 -22 568 -3Q588 19 589.5 32.5Q591 46 591 46Q591 46 580.5 43.0Q570 40 547 12ZM570 -94Q575 -90 592.5 -79.5Q610 -69 630.5 -58.0Q651 -47 665.5 -38.0Q680 -29 679 -28Q678 -26 663.0 -29.0Q648 -32 626.5 -37.5Q605 -43 585.5 -50.0Q566 -57 556 -63Q543 -71 526.0 -89.0Q509 -107 497.0 -122.5Q485 -138 487 -140Q488 -143 499.0 -137.5Q510 -132 525.0 -123.0Q540 -114 552.5 -106.0Q565 -98 570 -94Z" fill="#add4c1" stroke="none" transform="scale(1,-1) translate(0,-256)" /><path d="M735 239Q750 240 761.5 234.0Q773 228 774 215Q775 204 765.0 193.5Q755 183 743 171Q736 164 729.0 151.5Q722 139 712 132Q704 127 695.0 127.5Q686 128 670 122Q658 117 652.5 110.0Q647 103 642 105Q636 106 634.0 113.5Q632 121 629 129Q626 136 623.5 141.0Q621 146 619 160Q618 168 622.5 176.0Q627 184 629 188Q632 196 632.0 201.5Q632 207 637 216Q640 221 642.5 223.5Q645 226 646 228Q648 234 646.5 240.0Q645 246 643 247Q638 249 633.5 247.0Q629 245 624 233Q621 228 619.5 218.5Q618 209 613 208Q608 206 608.0 216.0Q608 226 612 235Q617 246 621.5 252.0Q626 258 631 265Q637 272 642.0 276.0Q647 280 651 289Q664 287 673.0 289.0Q682 291 696 290Q723 289 734 277Q737 274 736.5 269.0Q736 264 731 266Q726 270 720.0 272.5Q714 275 703 275Q671 275 669 260Q667 252 679.0 239.0Q691 226 696 226Q703 225 711.0 231.5Q719 238 735 239ZM676 151Q687 156 693.5 160.5Q700 165 699 174Q698 183 690.5 185.0Q683 187 683 187Q683 187 685.0 191.0Q687 195 684 202Q682 207 669.5 209.5Q657 212 653 211Q648 210 646.5 202.0Q645 194 645 186Q645 182 645.5 176.0Q646 170 646 170Q646 170 645.0 161.5Q644 153 648 146Q652 140 660.0 143.0Q668 146 676 151Z" fill="#add4c1" stroke="none" transform="scale(1,-1) translate(0,-256)" /><path d="M681 179Q685 178 684.5 172.0Q684 166 675 161Q666 156 661.0 158.5Q656 161 658 165Q659 169 668 174Q677 180 681 179Z" fill="#add4c1" stroke="none" transform="scale(1,-1) translate(0,-256)" /></svg>