<?xml version="1.0" encoding="utf-8" ?>
<svg baseProfile="full" height="256" version="1.1" width="256" xmlns="http://www.w3.org/2000/svg" xmlns:ev="http://www.w3.org/2001/xml-events" xmlns:xlink="http://www.w3.org/1999/xlink"><defs /><path d="M845 258 865 266Q869 256 871.5 246.5Q874 237 872 234Q869 231 861.0 237.0Q853 243 848 254Q847 255 845 258Z" fill="#484a4e" stroke="none" transform="scale(1,-1) translate(0,-256)" /><path d="M828 328 806 304Q786 324 758.5 339.5Q731 355 701 354Q667 353 646.5 343.5Q626 334 615.0 321.5Q604 309 599.0 300.0Q594 291 592 292Q588 293 591.5 307.0Q595 321 607.0 339.0Q619 357 642.0 371.0Q665 385 700 387Q744 389 776.5 369.5Q809 350 828 328Z" fill="#484a4e" stroke="none" transform="scale(1,-1) translate(0,-256)" /><path d="M850 299Q853 295 858 283L837 270Q828 281 817 293L840 313Q843 309 845.5 305.0Q848 301 850 299Z" fill="#484a4e" stroke="none" transform="scale(1,-1) translate(0,-256)" /></svg>