<?xml version="1.0" encoding="utf-8" ?>
<svg baseProfile="full" height="256" version="1.1" width="256" xmlns="http://www.w3.org/2000/svg" xmlns:ev="http://www.w3.org/2001/xml-events" xmlns:xlink="http://www.w3.org/1999/xlink"><defs /><path d="M372.0146179199219 398.7010192871094Q372.0185852050781 417.80609130859375 358.64801025390625 432.1376724243164Q345.2774353027344 446.46925354003906 326.17236328125 446.4732208251953Q307.0672912597656 446.47718811035156 293.6907653808594 432.15116119384766Q280.3142395019531 417.82513427734375 280.3102722167969 398.7200622558594Q280.3063049316406 379.614990234375 293.6768798828125 365.28340911865234Q307.0474548339844 350.9518280029297 326.15252685546875 350.94786071777344Q345.2575988769531 350.9438934326172 358.6341247558594 365.2699203491211Q372.0106506347656 379.595947265625 372.0146179199219 398.7010192871094Z" fill="#404040" stroke="none" transform="scale(1,-1) translate(0,-256)" /><path d="M680.2654113769531 398.7005157470703Q680.2693786621094 417.8055877685547 666.8988037109375 432.13716888427734Q653.5282287597656 446.46875 634.4231567382812 446.47271728515625Q615.3180847167969 446.4766845703125 601.9415588378906 432.1506576538086Q588.5650329589844 417.8246307373047 588.5610656738281 398.7195587158203Q588.5570983886719 379.61448669433594 601.9276733398438 365.2829055786133Q615.2982482910156 350.9513244628906 634.4033203125 350.9473571777344Q653.5083923339844 350.9433898925781 666.8849182128906 365.26941680908203Q680.2614440917969 379.59544372558594 680.2654113769531 398.7005157470703Z" fill="#404040" stroke="none" transform="scale(1,-1) translate(0,-256)" /></svg>