<?xml version="1.0" encoding="utf-8" ?>
<svg baseProfile="full" height="256" version="1.1" width="256" xmlns="http://www.w3.org/2000/svg" xmlns:ev="http://www.w3.org/2001/xml-events" xmlns:xlink="http://www.w3.org/1999/xlink"><defs /><path d="M979.924560546875 562.7064819335938Q979.924560546875 566.6270751953125 978.4543380737305 570.0744934082031Q976.9841156005859 573.5219116210938 974.3647537231445 576.1412734985352Q971.7453918457031 578.7606353759766 968.2979736328125 580.2477569580078Q964.8505554199219 581.7348785400391 960.9299621582031 581.7348785400391Q956.9755706787109 581.7348785400391 953.5281524658203 580.2477569580078Q950.0807342529297 578.7606353759766 947.4613723754883 576.1412734985352Q944.8420104980469 573.5219116210938 943.3717880249023 570.0744934082031Q941.9015655517578 566.6270751953125 941.9015655517578 562.7064819335938Q941.9015655517578 558.785888671875 943.3717880249023 555.3384704589844Q944.8420104980469 551.8910522460938 947.4613723754883 549.2716903686523Q950.0807342529297 546.6523284912109 953.5281524658203 545.1821060180664Q956.9755706787109 543.7118835449219 960.9299621582031 543.7118835449219Q964.8505554199219 543.7118835449219 968.2979736328125 545.1821060180664Q971.7453918457031 546.6523284912109 974.3647537231445 549.2716903686523Q976.9841156005859 551.8910522460938 978.4543380737305 555.3384704589844Q979.924560546875 558.785888671875 979.924560546875 562.7064819335938Z" fill="#b9e4ea" stroke="none" transform="scale(1,-1) translate(0,-256)" /><path d="M979.924560546875 562.8939819335938Q979.924560546875 566.8145751953125 978.4543380737305 570.2619934082031Q976.9841156005859 573.7094116210938 974.3647537231445 576.3287734985352Q971.7453918457031 578.9481353759766 968.2979736328125 580.4352569580078Q964.8505554199219 581.9223785400391 960.9299621582031 581.9223785400391Q956.9755706787109 581.9223785400391 953.5281524658203 580.4352569580078Q950.0807342529297 578.9481353759766 947.4613723754883 576.3287734985352Q944.8420104980469 573.7094116210938 943.3717880249023 570.2619934082031Q941.9015655517578 566.8145751953125 941.9015655517578 562.8939819335938Q941.9015655517578 558.973388671875 943.3717880249023 555.5259704589844Q944.8420104980469 552.0785522460938 947.4613723754883 549.4591903686523Q950.0807342529297 546.8398284912109 953.5281524658203 545.3696060180664Q956.9755706787109 543.8993835449219 960.9299621582031 543.8993835449219Q964.8505554199219 543.8993835449219 968.2979736328125 545.3696060180664Q971.7453918457031 546.8398284912109 974.3647537231445 549.4591903686523Q976.9841156005859 552.0785522460938 978.4543380737305 555.5259704589844Q979.924560546875 558.973388671875 979.924560546875 562.8939819335938Z" fill="#b9e4ea" stroke="none" transform="scale(1,-1) translate(0,-256)" /></svg>