<?xml version="1.0" encoding="utf-8" ?>
<svg baseProfile="full" height="256" version="1.1" width="256" xmlns="http://www.w3.org/2000/svg" xmlns:ev="http://www.w3.org/2001/xml-events" xmlns:xlink="http://www.w3.org/1999/xlink"><defs /><path d="M1184 783Q1215 766 1222.5 729.0Q1230 692 1210 657Q1194 627 1165.0 613.0Q1136 599 1109 606Q1103 607 1091.0 606.5Q1079 606 1063 596L1056 590Q1053 588 1051 591L1022 655Q1021 657 1022 659Q1027 662 1037.5 672.0Q1048 682 1049 690Q1049 697 1051.5 711.5Q1054 726 1062 740Q1082 775 1117.5 787.5Q1153 800 1184 783ZM1108 647Q1126 637 1147.5 644.5Q1169 652 1181 673Q1193 694 1188.0 716.5Q1183 739 1165 749Q1146 760 1124.5 752.0Q1103 744 1092 723Q1080 702 1084.5 680.0Q1089 658 1108 647Z" fill="#de3e31" stroke="none" transform="scale(1,-1) translate(0,-256)" /><path d="M789 767Q789 807 814.0 835.5Q839 864 874 864Q909 864 934.0 835.5Q959 807 959 767Q959 751 954.0 737.0Q949 723 947 717Q943 709 947.5 695.5Q952 682 954 676Q955 674 953 673L896 632Q893 630 892 633L888 642Q880 658 869.0 664.5Q858 671 853 672Q826 680 807.5 706.5Q789 733 789 767ZM823 767Q823 742 838.0 725.0Q853 708 874 708Q896 708 910.5 725.5Q925 743 925 767Q925 791 910.0 808.0Q895 825 874 825Q853 825 838.0 808.0Q823 791 823 767Z" fill="#de3e31" stroke="none" transform="scale(1,-1) translate(0,-256)" /></svg>