<?xml version="1.0" encoding="utf-8" ?>
<svg baseProfile="full" height="256" version="1.1" width="256" xmlns="http://www.w3.org/2000/svg" xmlns:ev="http://www.w3.org/2001/xml-events" xmlns:xlink="http://www.w3.org/1999/xlink"><defs /><path d="M394 106H564V12Q564 -20 540.5 -42.5Q517 -65 479 -65Q442 -65 418.0 -42.5Q394 -20 394 12Z" fill="#e59600" stroke="none" transform="scale(1,-1) translate(0,-256)" /><path d="M737 477Q778 477 807.5 445.5Q837 414 837 370Q837 326 807.5 294.5Q778 263 737 263H224Q183 263 153.5 294.5Q124 326 124 370Q124 414 153.5 445.5Q183 477 224 477Z" fill="#e59600" stroke="none" transform="scale(1,-1) translate(0,-256)" /><path d="M516.968994140625 312.0Q527.968994140625 307.0 522.968994140625 297.0Q520.968994140625 292.0 510.468994140625 281.5Q499.968994140625 271.0 480.968994140625 271.0Q460.968994140625 271.0 450.468994140625 281.5Q439.968994140625 292.0 437.968994140625 297.0Q432.968994140625 307.0 443.968994140625 312.0Q445.968994140625 313.0 446.968994140625 313.0H513.968994140625Q514.968994140625 313.0 516.968994140625 312.0Z" fill="#e59600" stroke="none" transform="scale(1,-1) translate(0,-256)" /></svg>