<?xml version="1.0" encoding="utf-8" ?>
<svg baseProfile="full" height="256" version="1.1" width="256" xmlns="http://www.w3.org/2000/svg" xmlns:ev="http://www.w3.org/2001/xml-events" xmlns:xlink="http://www.w3.org/1999/xlink"><defs /><path d="M1019 414Q1033 429 1038.0 447.0Q1043 465 1044.0 478.0Q1045 491 1045 491Q1045 491 1029.0 480.0Q1013 469 972 469Q945 468 923.5 483.5Q902 499 890.0 515.0Q878 531 878 531L837 488L879 361Q901 358 929.5 366.5Q958 375 983.0 389.0Q1008 403 1019 414Z" fill="#543930" stroke="none" transform="scale(1,-1) translate(0,-256)" /><path d="M808 197Q813 187 824.0 182.0Q835 177 844.0 175.5Q853 174 853 174Q853 174 846.5 162.0Q840 150 826 141Q813 133 798.5 130.5Q784 128 773 128Q773 128 761.5 116.0Q750 104 725.0 88.0Q700 72 660.5 60.0Q621 48 564 48H481H397Q340 48 300.5 60.0Q261 72 236.0 88.0Q211 104 199.5 116.0Q188 128 188 128Q177 128 162.5 130.5Q148 133 135 141Q121 150 114.5 162.0Q108 174 108 174Q108 174 117.0 175.5Q126 177 137.0 182.0Q148 187 153 197Q162 213 153.0 230.0Q144 247 125 267Q104 288 86.5 326.0Q69 364 65.0 411.5Q61 459 81 509Q81 509 87.0 513.5Q93 518 99.5 522.5Q106 527 106 527Q108 528 140.5 528.0Q173 528 226.0 528.0Q279 528 345.0 528.5Q411 529 481 529Q550 529 616.0 528.5Q682 528 735.5 528.0Q789 528 821.0 528.0Q853 528 855 527H872Q872 526 876.0 517.5Q880 509 880 509Q900 459 896.0 411.5Q892 364 874.5 326.0Q857 288 836 267Q817 247 808.0 230.0Q799 213 808 197Z" fill="#543930" stroke="none" transform="scale(1,-1) translate(0,-256)" /><path d="M856 710Q864 698 873.5 669.5Q883 641 886.0 602.5Q889 564 878 522Q869 491 856.0 472.5Q843 454 832.0 443.5Q821 433 820 426Q817 395 806.5 367.0Q796 339 789 324Q788 321 785.5 321.5Q783 322 783 325Q778 363 773.0 412.0Q768 461 760 496Q750 542 731.0 564.5Q712 587 692.5 594.5Q673 602 659.0 601.5Q645 601 645 601Q645 601 638.5 613.5Q632 626 615.5 638.5Q599 651 569.0 653.5Q539 656 491 637Q457 623 424 599Q373 562 325.5 541.0Q278 520 247.0 512.0Q216 504 216 504Q218 495 213.5 470.0Q209 445 202.0 414.0Q195 383 188.5 355.5Q182 328 179 314Q178 312 175.5 311.5Q173 311 172 314Q166 328 159.0 363.0Q152 398 155 454Q155 454 139.0 460.5Q123 467 104.5 480.5Q86 494 78 515Q68 543 72.0 566.0Q76 589 87.5 606.0Q99 623 111 633Q106 647 104.0 674.0Q102 701 119 736Q134 764 157.5 775.0Q181 786 202 787Q192 819 198.0 841.0Q204 863 217.5 876.5Q231 890 242.5 896.0Q254 902 254 902Q254 902 255.0 891.5Q256 881 261.5 868.5Q267 856 279 848Q300 837 323.5 840.5Q347 844 365.0 852.0Q383 860 387 862Q409 874 443.5 888.5Q478 903 525.5 906.5Q573 910 635 891Q670 880 700.0 854.0Q730 828 736 795Q759 793 782.5 779.5Q806 766 825.5 747.0Q845 728 856 710Z" fill="#543930" stroke="none" transform="scale(1,-1) translate(0,-256)" /></svg>