<?xml version="1.0" encoding="utf-8" ?>
<svg baseProfile="full" height="256" version="1.1" width="256" xmlns="http://www.w3.org/2000/svg" xmlns:ev="http://www.w3.org/2001/xml-events" xmlns:xlink="http://www.w3.org/1999/xlink"><defs /><path d="M1114 878Q1119 878 1133.5 870.5Q1148 863 1165.0 852.0Q1182 841 1194.5 831.0Q1207 821 1207 818Q1208 812 1201.0 799.0Q1194 786 1185.0 774.5Q1176 763 1173 761Q1168 757 1160.5 761.0Q1153 765 1153 765L1110 703L1045 747L1089 810Q1089 810 1080.0 815.5Q1071 821 1073 828Q1073 830 1079.5 842.0Q1086 854 1095.5 865.5Q1105 877 1114 878Z" fill="#5e6367" stroke="none" transform="scale(1,-1) translate(0,-256)" /><path d="M956 33Q1025 32 1061.5 16.0Q1098 0 1111.5 -17.5Q1125 -35 1125 -41Q1125 -45 1118.0 -58.5Q1111 -72 1093.5 -87.5Q1076 -103 1044.5 -113.5Q1013 -124 963 -123Q902 -122 866.0 -106.5Q830 -91 814.0 -72.5Q798 -54 797 -43Q797 -29 813.5 -11.0Q830 7 865.0 20.0Q900 33 956 33Z" fill="#5e6367" stroke="none" transform="scale(1,-1) translate(0,-256)" /></svg>