<?xml version="1.0" encoding="utf-8" ?>
<svg baseProfile="full" height="256" version="1.1" width="256" xmlns="http://www.w3.org/2000/svg" xmlns:ev="http://www.w3.org/2001/xml-events" xmlns:xlink="http://www.w3.org/1999/xlink"><defs /><path d="M379 605Q393 596 404.5 607.5Q416 619 408 633L325 768Q320 777 310.0 778.0Q300 779 293 772L243 722Q236 715 237.0 705.0Q238 695 247 690Z" fill="#ffc107" stroke="none" transform="scale(1,-1) translate(0,-256)" /><path d="M263 196Q280 197 284.0 181.0Q288 165 274 158L138 86Q129 81 119.5 85.0Q110 89 108 99L90 167Q87 177 93.0 185.0Q99 193 110 193Z" fill="#ffc107" stroke="none" transform="scale(1,-1) translate(0,-256)" /><path d="M621 -65Q625 -49 641.0 -49.0Q657 -49 661 -65L698 -215Q700 -224 694.0 -232.5Q688 -241 678 -241H607Q597 -241 591.0 -233.0Q585 -225 587 -215Z" fill="#ffc107" stroke="none" transform="scale(1,-1) translate(0,-256)" /><path d="M896.0 605.0Q882.0 596.0 870.5 607.5Q859.0 619.0 867.0 633.0L950.0 768.0Q955.0 777.0 965.0 778.0Q975.0 779.0 982.0 772.0L1032.0 722.0Q1039.0 715.0 1038.0 705.0Q1037.0 695.0 1028.0 690.0Z" fill="#ffc107" stroke="none" transform="scale(1,-1) translate(0,-256)" /><path d="M1012.0 196.0Q995.0 197.0 991.0 181.0Q987.0 165.0 1001.0 158.0L1137.0 86.0Q1146.0 81.0 1155.5 85.0Q1165.0 89.0 1167.0 99.0L1185.0 167.0Q1188.0 177.0 1182.0 185.0Q1176.0 193.0 1165.0 193.0Z" fill="#ffc107" stroke="none" transform="scale(1,-1) translate(0,-256)" /></svg>