<?xml version="1.0" encoding="utf-8" ?>
<svg baseProfile="full" height="256" version="1.1" width="256" xmlns="http://www.w3.org/2000/svg" xmlns:ev="http://www.w3.org/2001/xml-events" xmlns:xlink="http://www.w3.org/1999/xlink"><defs /><path d="M684 292Q684 292 701.5 279.5Q719 267 743.0 240.5Q767 214 785 173Q800 137 809.0 97.0Q818 57 821.5 29.0Q825 1 825 1Q825 1 850.0 -0.5Q875 -2 912 13Q945 26 963.5 56.5Q982 87 990.5 127.5Q999 168 999.5 211.0Q1000 254 996.0 293.0Q992 332 987 358Q980 390 961.5 441.0Q943 492 921.5 550.0Q900 608 887 660Q865 744 881.5 793.0Q898 842 942 876Q970 897 1009.5 904.0Q1049 911 1089.0 898.5Q1129 886 1159 847Q1186 813 1191.0 783.5Q1196 754 1184 733Q1174 717 1154.5 711.5Q1135 706 1117 713Q1092 723 1085.5 740.0Q1079 757 1072 773Q1066 784 1053.0 790.5Q1040 797 1020 790Q982 775 985.0 728.5Q988 682 1012 614Q1021 588 1034.5 552.5Q1048 517 1060 485Q1082 427 1095.5 363.5Q1109 300 1112.0 240.0Q1115 180 1108 132Q1094 33 1049.5 -28.0Q1005 -89 937 -109Q903 -118 873.0 -121.5Q843 -125 824.5 -125.0Q806 -125 806 -125Q806 -125 799.5 -138.0Q793 -151 773.0 -165.5Q753 -180 713 -184Q682 -187 659.0 -174.5Q636 -162 621.5 -144.5Q607 -127 599.5 -113.5Q592 -100 592 -100Q592 -100 585.5 -109.5Q579 -119 575 -125Q573 -129 566.5 -142.0Q560 -155 550.5 -166.5Q541 -178 530 -179Q524 -180 509.0 -173.5Q494 -167 477.0 -157.5Q460 -148 447.0 -139.0Q434 -130 432 -125Q425 -113 430.5 -104.0Q436 -95 439 -82Q441 -73 448.5 -50.0Q456 -27 467.0 3.0Q478 33 491 61Q506 94 527.5 104.5Q549 115 582 111Q615 107 645.5 81.5Q676 56 706 25Q727 3 742.0 -0.5Q757 -4 764.0 2.5Q771 9 771 16Q769 31 752.5 42.0Q736 53 726 59Q719 64 700.5 76.0Q682 88 658.5 102.0Q635 116 613 124Q581 137 561.5 136.0Q542 135 530 137Q523 138 517.0 150.5Q511 163 509.5 176.5Q508 190 513 193Q523 199 540.0 200.5Q557 202 583 197Q599 194 616.0 187.5Q633 181 644.0 175.5Q655 170 655 170Q655 170 649.0 177.5Q643 185 635.0 194.5Q627 204 624 211Q615 229 615.0 240.5Q615 252 615 252Q615 252 600.0 243.5Q585 235 559.5 225.5Q534 216 502 213Q455 209 415.0 212.5Q375 216 334 233Q308 244 285.5 260.5Q263 277 249.5 290.5Q236 304 236 304Q236 304 217.5 303.0Q199 302 174.0 306.5Q149 311 128 328Q106 344 96.5 370.5Q87 397 88.0 425.0Q89 453 100 475Q111 496 127.5 504.0Q144 512 157.0 512.5Q170 513 170 513Q170 513 169.5 531.0Q169 549 172.0 577.5Q175 606 186.5 639.5Q198 673 221 704Q247 740 296.0 771.5Q345 803 408.5 817.5Q472 832 545 817Q599 805 636.5 782.0Q674 759 697.5 734.0Q721 709 732.0 691.5Q743 674 743 674Q743 674 755.0 675.5Q767 677 784.5 672.5Q802 668 818.0 651.0Q834 634 842 597Q850 554 841.0 526.5Q832 499 815.5 484.0Q799 469 785.5 463.0Q772 457 772 457Q772 457 770.0 432.0Q768 407 753 376Q743 355 727.0 336.0Q711 317 697.5 304.5Q684 292 684 292Z" fill="#b5885d" stroke="none" transform="scale(1,-1) translate(0,-256)" /></svg>