<?xml version="1.0" encoding="utf-8" ?>
<svg baseProfile="full" height="256" version="1.1" width="256" xmlns="http://www.w3.org/2000/svg" xmlns:ev="http://www.w3.org/2001/xml-events" xmlns:xlink="http://www.w3.org/1999/xlink"><defs /><path d="M571 541Q566 571 554.0 582.0Q542 593 523 590Q492 584 501 528Q505 503 517.5 491.0Q530 479 550 483Q567 487 571.0 502.5Q575 518 571 541Z" fill="#000504" stroke="none" transform="scale(1,-1) translate(0,-256)" /><path d="M393 510Q386 546 371.5 553.0Q357 560 340 555Q310 547 325 489Q338 437 375 447Q394 452 395.5 470.0Q397 488 393 510Z" fill="#000504" stroke="none" transform="scale(1,-1) translate(0,-256)" /><path d="M424 458Q424 464 439.5 469.5Q455 475 472.0 476.0Q489 477 492 471Q495 466 491.5 456.0Q488 446 481.0 437.0Q474 428 466 426Q454 425 439.5 435.5Q425 446 424 458Z" fill="#000504" stroke="none" transform="scale(1,-1) translate(0,-256)" /></svg>