<?xml version="1.0" encoding="utf-8" ?>
<svg baseProfile="full" height="256" version="1.1" width="256" xmlns="http://www.w3.org/2000/svg" xmlns:ev="http://www.w3.org/2001/xml-events" xmlns:xlink="http://www.w3.org/1999/xlink"><defs /><path d="M707 157 773 116 817 -82Q817 -82 805.0 -95.0Q793 -108 767.0 -125.5Q741 -143 698.5 -157.0Q656 -171 596 -172Q549 -173 503.5 -165.5Q458 -158 421.0 -147.0Q384 -136 362.5 -127.5Q341 -119 341 -119L348 -63Q348 -63 339.0 -40.5Q330 -18 319 25Q312 53 317.0 76.0Q322 99 332.0 115.5Q342 132 350.5 140.5Q359 149 359 149L399 155Q399 155 396.5 171.5Q394 188 394 196Q392 214 397.0 223.5Q402 233 402 233L619 316Z" fill="#845a54" stroke="none" transform="scale(1,-1) translate(0,-256)" /></svg>