<?xml version="1.0" encoding="utf-8" ?>
<svg baseProfile="full" height="256" version="1.1" width="256" xmlns="http://www.w3.org/2000/svg" xmlns:ev="http://www.w3.org/2001/xml-events" xmlns:xlink="http://www.w3.org/1999/xlink"><defs /><path d="M536 637Q629 726 678.0 760.0Q727 794 735 800Q743 806 758.5 813.0Q774 820 784 811Q797 799 787.5 791.5Q778 784 772 778Q764 770 703.0 724.5Q642 679 547 588Q505 548 466.5 502.5Q428 457 396.0 416.5Q364 376 343.5 347.5Q323 319 319 314Q311 304 301.5 295.0Q292 286 280 294Q257 309 277 338Q279 342 303.0 373.0Q327 404 364.5 450.0Q402 496 446.5 545.5Q491 595 536 637Z" fill="#fdffff" stroke="none" transform="scale(1,-1) translate(0,-256)" /><path d="M658 822Q677 837 706 826Q726 818 740.0 805.5Q754 793 774 774Q793 754 790.5 735.5Q788 717 777 708Q755 691 726 718Q715 728 694.5 744.5Q674 761 663 770Q648 782 646.5 797.5Q645 813 658 822Z" fill="#fdffff" stroke="none" transform="scale(1,-1) translate(0,-256)" /><path d="M636 758Q657 750 675.5 732.5Q694 715 704 703Q713 692 719.0 674.5Q725 657 713 644Q700 629 682.5 632.0Q665 635 654 643Q635 657 616.0 674.5Q597 692 583 702Q569 712 564.0 727.5Q559 743 574 757Q590 771 607.5 767.0Q625 763 636 758Z" fill="#fdffff" stroke="none" transform="scale(1,-1) translate(0,-256)" /><path d="M565 681Q571 678 586.0 667.5Q601 657 614 646Q628 634 640.0 613.0Q652 592 639 571Q631 558 612.5 554.5Q594 551 578 563Q571 567 557.0 578.5Q543 590 527.5 602.0Q512 614 502 621Q483 632 476.0 646.5Q469 661 488 680Q505 698 527.5 694.0Q550 690 565 681Z" fill="#fdffff" stroke="none" transform="scale(1,-1) translate(0,-256)" /><path d="M410 603Q423 619 452 613Q478 607 498.5 591.5Q519 576 530 566Q549 549 555.0 527.5Q561 506 553 494Q546 483 535.0 477.0Q524 471 503 478Q486 484 459.5 503.0Q433 522 416 541Q398 561 398.0 575.5Q398 590 410 603Z" fill="#fdffff" stroke="none" transform="scale(1,-1) translate(0,-256)" /><path d="M372 528Q391 522 408.5 509.0Q426 496 439.0 482.5Q452 469 459 462Q474 446 475.5 430.0Q477 414 472 406Q467 398 456.5 392.5Q446 387 433 388Q415 390 399.5 403.5Q384 417 369 430Q354 443 346.5 449.0Q339 455 330 465Q321 475 323.0 490.0Q325 505 333 514Q340 523 351.0 527.0Q362 531 372 528Z" fill="#fdffff" stroke="none" transform="scale(1,-1) translate(0,-256)" /><path d="M263 426Q277 443 297.0 439.0Q317 435 353 410Q391 384 405.0 362.5Q419 341 403 320Q385 298 359.0 306.5Q333 315 303 334Q267 357 258.0 382.0Q249 407 263 426Z" fill="#fdffff" stroke="none" transform="scale(1,-1) translate(0,-256)" /></svg>