<?xml version="1.0" encoding="utf-8" ?>
<svg baseProfile="full" height="256" version="1.1" width="256" xmlns="http://www.w3.org/2000/svg" xmlns:ev="http://www.w3.org/2001/xml-events" xmlns:xlink="http://www.w3.org/1999/xlink"><defs /><path d="M777 273 1101 855Q1101 855 1116.0 851.0Q1131 847 1142 832Q1148 825 1158.5 811.0Q1169 797 1178.0 764.5Q1187 732 1190.5 670.0Q1194 608 1185 505Q1175 386 1130.5 281.0Q1086 176 1015.0 89.5Q944 3 854.0 -60.5Q764 -124 663 -160Q565 -195 487.0 -206.5Q409 -218 354.0 -216.0Q299 -214 270.0 -207.5Q241 -201 241 -201Z" fill="#6d2a19" stroke="none" transform="scale(1,-1) translate(0,-256)" /></svg>