<?xml version="1.0" encoding="utf-8" ?>
<svg baseProfile="full" height="256" version="1.1" width="256" xmlns="http://www.w3.org/2000/svg" xmlns:ev="http://www.w3.org/2001/xml-events" xmlns:xlink="http://www.w3.org/1999/xlink"><defs /><path d="M298 643Q377 730 455.5 782.0Q534 834 605.5 861.0Q677 888 737.0 898.0Q797 908 840 911Q897 914 952.5 906.0Q1008 898 1054.5 881.5Q1101 865 1130 844Q1147 832 1154.5 782.5Q1162 733 1155.5 660.0Q1149 587 1126.5 502.0Q1104 417 1062.0 331.0Q1020 245 956 172Q854 57 750.0 -18.0Q646 -93 551.0 -135.0Q456 -177 383 -192Q312 -207 264.0 -203.5Q216 -200 186.0 -185.5Q156 -171 139 -153Q112 -124 101.0 -91.5Q90 -59 88 -4Q86 29 86.5 81.5Q87 134 95.0 200.5Q103 267 125.5 341.0Q148 415 189.5 492.5Q231 570 298 643Z" fill="#9c3c25" stroke="none" transform="scale(1,-1) translate(0,-256)" /><path d="M287 292Q265 305 258.0 333.0Q251 361 258 390Q269 437 316.0 500.0Q363 563 430 632Q474 678 522.0 717.0Q570 756 612.0 780.5Q654 805 683 807Q711 809 736.0 802.0Q761 795 775.0 778.0Q789 761 786 731Q784 709 756.0 676.5Q728 644 687.0 604.0Q646 564 605 518Q523 428 481.0 375.0Q439 322 411 300Q393 286 368.5 282.0Q344 278 321.5 281.5Q299 285 287 292Z" fill="#9c3c25" stroke="none" transform="scale(1,-1) translate(0,-256)" /></svg>