<?xml version="1.0" encoding="utf-8" ?>
<svg baseProfile="full" height="256" version="1.1" width="256" xmlns="http://www.w3.org/2000/svg" xmlns:ev="http://www.w3.org/2001/xml-events" xmlns:xlink="http://www.w3.org/1999/xlink"><defs /><path d="M293 607 287 622 430 882 517 893 692 791Q692 791 686.0 777.0Q680 763 670.5 750.5Q661 738 653 741Q640 747 635.5 740.0Q631 733 627 727Q626 725 615.0 705.0Q604 685 588.5 656.0Q573 627 557.5 598.0Q542 569 531.0 547.5Q520 526 518 522Q513 510 503.5 505.5Q494 501 486 505Q483 506 462.5 517.0Q442 528 414.0 543.0Q386 558 358.5 572.5Q331 587 312.0 597.0Q293 607 293 607Z" fill="#34700d" stroke="none" transform="scale(1,-1) translate(0,-256)" /><path d="M285 159 202 65 263 -76 341 -109 486 -115 584 -114Q584 -114 584.5 -91.0Q585 -68 585.5 -33.5Q586 1 586.5 37.0Q587 73 587.0 100.0Q587 127 586 133Q585 148 575.5 152.5Q566 157 555 157Q550 157 521.5 157.0Q493 157 453.5 157.5Q414 158 375.5 158.5Q337 159 311.0 159.0Q285 159 285 159Z" fill="#34700d" stroke="none" transform="scale(1,-1) translate(0,-256)" /><path d="M1047 539 1083 511Q1083 511 1091.5 493.5Q1100 476 1113.0 449.5Q1126 423 1139.0 397.0Q1152 371 1161.0 352.5Q1170 334 1171 333Q1172 332 1173.5 317.5Q1175 303 1177.0 284.5Q1179 266 1180.5 251.5Q1182 237 1182 237L1134 158L1070 118L976 107Q976 107 968.5 116.0Q961 125 955.5 135.5Q950 146 956 151Q966 158 962.5 169.0Q959 180 953 190Q951 194 940.0 214.0Q929 234 913.5 262.0Q898 290 882.5 318.0Q867 346 856.0 366.5Q845 387 842 391Q836 403 838.0 410.0Q840 417 844 419Q845 420 866.0 432.5Q887 445 917.5 462.5Q948 480 977.5 497.5Q1007 515 1027.0 527.0Q1047 539 1047 539Z" fill="#34700d" stroke="none" transform="scale(1,-1) translate(0,-256)" /></svg>