<?xml version="1.0" encoding="utf-8" ?>
<svg baseProfile="full" height="256" version="1.1" width="256" xmlns="http://www.w3.org/2000/svg" xmlns:ev="http://www.w3.org/2001/xml-events" xmlns:xlink="http://www.w3.org/1999/xlink"><defs /><path d="M354 427 431 426Q431 426 431.5 413.0Q432 400 435 390Q437 381 442.5 372.0Q448 363 448 363L449 -6Q449 -6 442.5 -13.0Q436 -20 430 -30Q424 -40 423.5 -56.0Q423 -72 423 -72H361Q361 -72 361.0 -59.0Q361 -46 358 -38Q355 -29 345.0 -18.0Q335 -7 335 -7V365Q335 365 339.5 370.0Q344 375 348 384Q353 394 353.5 410.5Q354 427 354 427Z" fill="#54636e" stroke="none" transform="scale(1,-1) translate(0,-256)" /><path d="M597 427H677Q677 427 677.5 414.0Q678 401 681 388Q684 375 691.0 368.0Q698 361 698 361L700 -3Q700 -3 691.0 -10.5Q682 -18 678 -28Q674 -37 674.0 -54.5Q674 -72 674 -72H606Q606 -72 605.5 -54.5Q605 -37 601 -28Q597 -18 586.0 -7.5Q575 3 575 3L579 363Q579 363 583.5 369.0Q588 375 592 385Q596 395 596.5 411.0Q597 427 597 427Z" fill="#54636e" stroke="none" transform="scale(1,-1) translate(0,-256)" /><path d="M846 427Q846 427 846.0 413.0Q846 399 844 389Q842 380 834.5 369.5Q827 359 827 359L826 -2Q826 -2 835.0 -10.0Q844 -18 847 -24Q852 -36 851.5 -54.0Q851 -72 851 -72H916Q916 -72 916.5 -54.0Q917 -36 923 -25Q929 -14 936.0 -9.0Q943 -4 943 -4L944 359Q944 359 936.5 366.5Q929 374 925 388Q920 401 920.0 414.0Q920 427 920 427Z" fill="#54636e" stroke="none" transform="scale(1,-1) translate(0,-256)" /></svg>