<?xml version="1.0" encoding="utf-8" ?>
<svg baseProfile="full" height="256" version="1.1" width="256" xmlns="http://www.w3.org/2000/svg" xmlns:ev="http://www.w3.org/2001/xml-events" xmlns:xlink="http://www.w3.org/1999/xlink"><defs /><path d="M111 587Q110 589 137.5 606.0Q165 623 211.0 650.0Q257 677 312.0 709.0Q367 741 423.0 772.5Q479 804 526.0 830.0Q573 856 603.0 872.0Q633 888 635 889Q637 889 660.0 877.0Q683 865 720.0 844.0Q757 823 803.0 796.0Q849 769 896 741Q944 713 988.5 686.0Q1033 659 1067.5 636.5Q1102 614 1121.5 600.0Q1141 586 1140 583Q1139 582 1097.0 581.5Q1055 581 983.5 581.5Q912 582 822.5 582.5Q733 583 636 583Q538 583 444.5 582.5Q351 582 276.0 582.5Q201 583 156.0 584.0Q111 585 111 587Z" fill="#cddfee" stroke="none" transform="scale(1,-1) translate(0,-256)" /><path d="M151 491 1111 490V448L1091 438Q1091 438 1091.5 422.0Q1092 406 1090 394Q1088 383 1077.5 374.0Q1067 365 1067 365V-21Q1067 -21 1077.5 -25.5Q1088 -30 1092 -40Q1095 -50 1094.5 -61.0Q1094 -72 1094 -72H169Q169 -72 169.0 -61.0Q169 -50 175 -40Q181 -29 194.0 -16.0Q207 -3 207 -3L208 356Q208 356 207.5 359.0Q207 362 203 365Q200 368 195.0 372.5Q190 377 185 389Q180 401 181.0 415.0Q182 429 182 429L152 447Z" fill="#cddfee" stroke="none" transform="scale(1,-1) translate(0,-256)" /></svg>