<?xml version="1.0" encoding="utf-8" ?>
<svg baseProfile="full" height="256" version="1.1" width="256" xmlns="http://www.w3.org/2000/svg" xmlns:ev="http://www.w3.org/2001/xml-events" xmlns:xlink="http://www.w3.org/1999/xlink"><defs /><path d="M220 306Q204 320 185.5 334.5Q167 349 154.5 359.0Q142 369 142 369Q142 369 162.5 363.0Q183 357 213.5 350.5Q244 344 275.5 340.0Q307 336 328 340Q356 344 395.5 356.5Q435 369 474.5 380.5Q514 392 541 394Q557 395 584.5 386.5Q612 378 643.5 365.0Q675 352 703.0 338.5Q731 325 749.0 316.0Q767 307 767 307Q767 306 759.5 294.0Q752 282 735 267Q724 257 700.5 236.5Q677 216 639.5 195.5Q602 175 549 164Q495 153 456.0 157.5Q417 162 390.0 174.0Q363 186 347 196Q335 204 316.5 219.5Q298 235 278.5 252.5Q259 270 243.0 285.0Q227 300 220 306Z" fill="#000000" stroke="none" transform="scale(1,-1) translate(0,-256)" /><path d="M629 481Q629 481 636.5 467.0Q644 453 659.0 432.5Q674 412 697 395Q731 368 761.5 352.0Q792 336 792 336Q792 336 804.5 360.5Q817 385 829 432Q836 458 838.0 488.0Q840 518 838.5 545.0Q837 572 833 589Q827 610 806.5 636.0Q786 662 761 697Q748 714 725.5 741.5Q703 769 679.5 797.0Q656 825 640.0 844.5Q624 864 624 864L648 805L629 697Z" fill="#000000" stroke="none" transform="scale(1,-1) translate(0,-256)" /><path d="M399 252Q406 273 440 270Q458 268 471.0 257.0Q484 246 480 235Q474 212 436 217Q416 219 406.0 230.0Q396 241 399 252Z" fill="#000000" stroke="none" transform="scale(1,-1) translate(0,-256)" /><path d="M57.80796813964844 313.32525634765625Q57.80796813964844 313.32525634765625 60.11676788330078 321.74090576171875Q62.425567626953125 330.15655517578125 67.286865234375 338.9779357910156Q72.14816284179688 347.79931640625 79.66791534423828 358.02794647216797Q87.18766784667969 368.25657653808594 87.18766784667969 368.25657653808594Q87.18766784667969 368.25657653808594 92.16869354248047 366.8649215698242Q97.14971923828125 365.4732666015625 97.429443359375 359.8665466308594Q97.70916748046875 354.25982666015625 92.46218872070312 350.0436477661133Q87.2152099609375 345.8274688720703 87.2152099609375 345.8274688720703Q87.2152099609375 345.8274688720703 92.37212371826172 344.03565216064453Q97.52903747558594 342.24383544921875 93.58320617675781 333.82484436035156Q90.5888671875 328.21144104003906 81.78598022460938 323.38722229003906Q72.98309326171875 318.56300354003906 65.3955307006836 315.94412994384766Q57.80796813964844 313.32525634765625 57.80796813964844 313.32525634765625Z" fill="#000000" stroke="none" transform="scale(1,-1) translate(0,-256)" /><path d="M817 391Q817 391 814.0 383.5Q811 376 807 367Q804 360 799.5 350.5Q795 341 795 341Q795 341 788.5 347.0Q782 353 777.5 363.0Q773 373 777 384Q782 394 791.5 395.5Q801 397 809.0 394.0Q817 391 817 391Z" fill="#000000" stroke="none" transform="scale(1,-1) translate(0,-256)" /><path d="M672 689Q685 689 691.0 678.5Q697 668 697 658Q698 645 695.0 632.0Q692 619 676 618Q665 617 658.0 627.5Q651 638 650 651Q650 664 656.0 676.5Q662 689 672 689Z" fill="#000000" stroke="none" transform="scale(1,-1) translate(0,-256)" /><path d="M770 603Q780 595 783.0 577.5Q786 560 785 546Q784 528 776.5 521.5Q769 515 759 518Q747 522 741.0 533.5Q735 545 733 557Q732 564 732.5 573.5Q733 583 736 591Q729 596 726 603Q723 611 724.5 625.5Q726 640 739 644Q750 648 759.0 640.5Q768 633 770 622Q772 612 770 603Z" fill="#000000" stroke="none" transform="scale(1,-1) translate(0,-256)" /></svg>