<?xml version="1.0" encoding="utf-8" ?>
<svg baseProfile="full" height="256" version="1.1" width="256" xmlns="http://www.w3.org/2000/svg" xmlns:ev="http://www.w3.org/2001/xml-events" xmlns:xlink="http://www.w3.org/1999/xlink"><defs /><path d="M823 364Q823 364 828.0 384.0Q833 404 840.5 431.0Q848 458 855.0 479.0Q862 500 866 502Q873 507 889.0 490.5Q905 474 929 446Q939 435 958.0 411.0Q977 387 1000.5 356.0Q1024 325 1048.5 292.5Q1073 260 1093.5 231.5Q1114 203 1127 185Q1153 148 1164.0 113.0Q1175 78 1161 29Q1136 -53 1107 -53Q1099 -53 1090.0 -39.0Q1081 -25 1072.0 -6.5Q1063 12 1056.5 27.5Q1050 43 1047 46Q1044 50 1032.0 50.0Q1020 50 1007.0 50.0Q994 50 988 54Q980 60 971.0 81.0Q962 102 953.5 127.0Q945 152 939.5 170.0Q934 188 934 188Q934 188 917.5 186.0Q901 184 885 190Q874 194 865.0 210.5Q856 227 849.5 248.5Q843 270 839 287Q833 318 828.0 341.0Q823 364 823 364Z" fill="#e0e0e0" stroke="none" transform="scale(1,-1) translate(0,-256)" /></svg>