<?xml version="1.0" encoding="utf-8" ?>
<svg baseProfile="full" height="256" version="1.1" width="256" xmlns="http://www.w3.org/2000/svg" xmlns:ev="http://www.w3.org/2001/xml-events" xmlns:xlink="http://www.w3.org/1999/xlink"><defs /><path d="M351 336 542 387Q542 387 555.0 411.5Q568 436 589.0 474.5Q610 513 634.0 556.5Q658 600 680.5 638.0Q703 676 719.0 699.5Q735 723 741 722Q756 718 784.5 692.0Q813 666 840 626Q867 586 872.5 529.5Q878 473 859 408Q850 376 830.5 337.5Q811 299 780.5 262.0Q750 225 708.5 195.0Q667 165 615 150Q519 123 450.5 135.0Q382 147 318 197Q293 217 288.5 237.0Q284 257 292.5 274.5Q301 292 315.0 306.0Q329 320 340.0 328.0Q351 336 351 336Z" fill="#807f7d" stroke="none" transform="scale(1,-1) translate(0,-256)" /></svg>