<?xml version="1.0" encoding="utf-8" ?>
<svg baseProfile="full" height="256" version="1.1" width="256" xmlns="http://www.w3.org/2000/svg" xmlns:ev="http://www.w3.org/2001/xml-events" xmlns:xlink="http://www.w3.org/1999/xlink"><defs /><path d="M1117 57Q1128 57 1133.0 45.0Q1138 33 1138 21Q1139 9 1138.0 -7.0Q1137 -23 1122 -25Q1109 -26 1104.5 -16.5Q1100 -7 1098 11Q1096 29 1101.0 43.0Q1106 57 1117 57Z" fill="#ffffff" stroke="none" transform="scale(1,-1) translate(0,-256)" /><path d="M950 224Q938 236 936.5 248.5Q935 261 931 275Q927 289 921.0 295.5Q915 302 915 323Q915 343 928.5 347.0Q942 351 956 339Q966 330 969.0 316.0Q972 302 974.0 288.0Q976 274 982 266Q988 258 1003.0 251.0Q1018 244 1034.5 236.0Q1051 228 1061 218Q1076 203 1078.0 189.5Q1080 176 1084 167Q1088 158 1097.0 151.5Q1106 145 1118 136Q1130 127 1137.5 111.0Q1145 95 1141 83Q1137 72 1125.5 71.0Q1114 70 1098 77Q1083 85 1065.5 111.5Q1048 138 1028 158Q1009 179 987.5 192.5Q966 206 950 224Z" fill="#ffffff" stroke="none" transform="scale(1,-1) translate(0,-256)" /><path d="M877 314Q861 317 857.5 330.5Q854 344 854 357Q855 371 857.5 395.0Q860 419 867.0 437.5Q874 456 888 453Q910 449 912.0 424.5Q914 400 912 374Q911 348 902.5 330.0Q894 312 877 314Z" fill="#ffffff" stroke="none" transform="scale(1,-1) translate(0,-256)" /></svg>