<?xml version="1.0" encoding="utf-8" ?>
<svg baseProfile="full" height="256" version="1.1" width="256" xmlns="http://www.w3.org/2000/svg" xmlns:ev="http://www.w3.org/2001/xml-events" xmlns:xlink="http://www.w3.org/1999/xlink"><defs /><path d="M645 680Q806 677 922.0 635.5Q1038 594 1103.5 516.5Q1169 439 1176 328Q1181 254 1150.0 193.0Q1119 132 1068 82Q999 15 890.0 -23.0Q781 -61 645 -62Q472 -62 356.5 -13.5Q241 35 167 124Q134 164 116.0 213.5Q98 263 99 325Q100 422 146.5 490.5Q193 559 270.5 601.0Q348 643 445.0 662.0Q542 681 645 680Z" fill="#f6f6f6" stroke="none" transform="scale(1,-1) translate(0,-256)" /></svg>