<?xml version="1.0" encoding="utf-8" ?>
<svg baseProfile="full" height="256" version="1.1" width="256" xmlns="http://www.w3.org/2000/svg" xmlns:ev="http://www.w3.org/2001/xml-events" xmlns:xlink="http://www.w3.org/1999/xlink"><defs /><path d="M645 686Q751 687 849.5 658.0Q948 629 1027.0 577.5Q1106 526 1153.5 456.5Q1201 387 1204 306Q1205 264 1194.0 211.5Q1183 159 1144 104Q1106 50 1038.5 2.0Q971 -46 869.0 -75.5Q767 -105 626 -104Q486 -103 388.0 -73.0Q290 -43 216 16Q138 78 104.0 148.5Q70 219 71 295Q72 376 106.0 439.5Q140 503 197.5 549.0Q255 595 328.5 625.5Q402 656 483.5 670.5Q565 685 645 686Z" fill="#d4d4d4" stroke="none" transform="scale(1,-1) translate(0,-256)" /></svg>