<?xml version="1.0" encoding="utf-8" ?>
<svg baseProfile="full" height="256" version="1.1" width="256" xmlns="http://www.w3.org/2000/svg" xmlns:ev="http://www.w3.org/2001/xml-events" xmlns:xlink="http://www.w3.org/1999/xlink"><defs /><path d="M831 731Q836 736 849.5 734.5Q863 733 878.0 724.0Q893 715 902.5 697.5Q912 680 909 653Q905 621 884.0 597.5Q863 574 837.5 560.5Q812 547 792.5 545.0Q773 543 771 554Q771 562 781.0 571.0Q791 580 805.5 591.5Q820 603 831.5 619.0Q843 635 845 657Q848 681 840.0 693.0Q832 705 826.5 713.0Q821 721 831 731Z" fill="#ffffff" stroke="none" transform="scale(1,-1) translate(0,-256)" /></svg>