<?xml version="1.0" encoding="utf-8" ?>
<svg baseProfile="full" height="256" version="1.1" width="256" xmlns="http://www.w3.org/2000/svg" xmlns:ev="http://www.w3.org/2001/xml-events" xmlns:xlink="http://www.w3.org/1999/xlink"><defs /><path d="M1053 491Q1032 485 1023.0 469.0Q1014 453 1012.0 438.5Q1010 424 1010 424Q1010 424 1023.5 410.0Q1037 396 1056.5 377.5Q1076 359 1093.5 345.0Q1111 331 1119 331Q1133 330 1156.5 334.0Q1180 338 1191 359Q1198 372 1194.0 380.0Q1190 388 1182.0 391.0Q1174 394 1170 395Q1161 397 1149.0 405.0Q1137 413 1120 427Q1107 437 1094.0 453.0Q1081 469 1070.0 481.0Q1059 493 1053 491Z" fill="#929394" stroke="none" transform="scale(1,-1) translate(0,-256)" /></svg>