<?xml version="1.0" encoding="utf-8" ?>
<svg baseProfile="full" height="256" version="1.1" width="256" xmlns="http://www.w3.org/2000/svg" xmlns:ev="http://www.w3.org/2001/xml-events" xmlns:xlink="http://www.w3.org/1999/xlink"><defs /><path d="M601 592Q601 625 608.5 657.0Q616 689 628 709Q652 751 707 763Q745 771 785.5 759.5Q826 748 861.5 718.0Q897 688 920.0 640.0Q943 592 945 529Q947 457 930.5 406.5Q914 356 884.5 323.5Q855 291 820 273Q768 246 719.5 253.0Q671 260 639 301Q606 343 610.0 396.5Q614 450 656 490Q674 508 695.0 513.5Q716 519 734.5 515.5Q753 512 764.5 505.5Q776 499 776 494Q776 489 767.0 483.0Q758 477 748.0 469.5Q738 462 732.0 451.0Q726 440 731 424Q738 404 761.5 401.0Q785 398 805 413Q826 428 835.5 461.0Q845 494 834 532Q822 574 800.0 588.5Q778 603 756 600Q734 598 716.0 583.5Q698 569 694 553Q689 530 677.5 518.0Q666 506 654.5 501.0Q643 496 638 494Q633 492 624.0 505.0Q615 518 608.0 541.0Q601 564 601 592Z" fill="#b68859" stroke="none" transform="scale(1,-1) translate(0,-256)" /></svg>