<?xml version="1.0" encoding="utf-8" ?>
<svg baseProfile="full" height="256" version="1.1" width="256" xmlns="http://www.w3.org/2000/svg" xmlns:ev="http://www.w3.org/2001/xml-events" xmlns:xlink="http://www.w3.org/1999/xlink"><defs /><path d="M236 665 255 642 230 534Q230 534 225.0 545.0Q220 556 208.5 566.5Q197 577 178 578Q160 578 146.0 569.5Q132 561 131 556Q130 551 144.0 550.0Q158 549 180 527Q194 512 200.0 493.0Q206 474 207.0 459.5Q208 445 208 445Q208 445 194.0 449.5Q180 454 177 470Q173 485 168.0 496.5Q163 508 149 522Q140 531 130.0 534.0Q120 537 113.5 540.0Q107 543 108 553Q108 569 122.0 578.0Q136 587 150.0 590.5Q164 594 164 594Q164 594 170.0 606.5Q176 619 189 636Q205 658 220.5 661.5Q236 665 236 665Z" fill="#6f4b41" stroke="none" transform="scale(1,-1) translate(0,-256)" /><path d="M638 494Q638 494 628.5 485.0Q619 476 607.5 459.0Q596 442 589.5 417.0Q583 392 590 359Q600 316 621.0 289.0Q642 262 685 249Q711 242 732.5 244.5Q754 247 766.5 252.0Q779 257 779 257L836 322L847 373L883 543L827 657L626 617Z" fill="#6f4b41" stroke="none" transform="scale(1,-1) translate(0,-256)" /></svg>