<?xml version="1.0" encoding="utf-8" ?>
<svg baseProfile="full" height="256" version="1.1" width="256" xmlns="http://www.w3.org/2000/svg" xmlns:ev="http://www.w3.org/2001/xml-events" xmlns:xlink="http://www.w3.org/1999/xlink"><defs /><path d="M630 22 785 -67Q785 -67 772.0 -80.5Q759 -94 743.5 -114.0Q728 -134 720 -153Q712 -174 711.5 -186.0Q711 -198 706 -206Q702 -215 694.0 -213.5Q686 -212 680 -206Q677 -203 670.5 -192.5Q664 -182 659.0 -173.0Q654 -164 654 -164Q654 -164 653.5 -175.0Q653 -186 652 -193Q651 -201 648.0 -211.0Q645 -221 635 -221Q627 -221 622.0 -210.0Q617 -199 610 -186Q598 -167 591.5 -161.0Q585 -155 585 -155Q585 -155 584.0 -161.0Q583 -167 578 -177Q574 -185 563.0 -189.0Q552 -193 547 -191Q540 -189 542.5 -172.0Q545 -155 531 -127Q518 -105 498.5 -92.0Q479 -79 479 -79Z" fill="#bb9176" stroke="none" transform="scale(1,-1) translate(0,-256)" /></svg>