<?xml version="1.0" encoding="utf-8" ?>
<svg baseProfile="full" height="256" version="1.1" width="256" xmlns="http://www.w3.org/2000/svg" xmlns:ev="http://www.w3.org/2001/xml-events" xmlns:xlink="http://www.w3.org/1999/xlink"><defs /><path d="M294 44Q294 44 281.0 49.5Q268 55 247.5 72.5Q227 90 205 125Q183 160 181.0 205.0Q179 250 193.5 296.0Q208 342 236 383Q265 423 307.0 453.5Q349 484 396.5 515.5Q444 547 489 590Q518 617 531.5 657.5Q545 698 549 742Q554 786 550.0 818.0Q546 850 549 857Q550 862 562.5 869.5Q575 877 589.5 884.5Q604 892 614 896Q628 903 650.5 913.0Q673 923 687 915Q701 907 700.5 880.5Q700 854 702 802Q703 781 707.0 749.5Q711 718 718.0 687.0Q725 656 733 636Q742 617 766.0 595.5Q790 574 814.5 556.5Q839 539 851 530Q859 524 886.0 505.0Q913 486 947.0 460.5Q981 435 1012.0 406.5Q1043 378 1061 351Q1093 300 1096.0 247.0Q1099 194 1083 145Q1072 113 1052.0 93.0Q1032 73 1015.5 63.5Q999 54 999 54Q999 54 995.0 40.0Q991 26 976.0 5.5Q961 -15 929 -32Q892 -52 863.5 -55.5Q835 -59 819.0 -56.0Q803 -53 803 -53Q803 -53 790.5 -62.5Q778 -72 756.5 -85.0Q735 -98 707.5 -108.0Q680 -118 650 -118Q610 -118 581.5 -108.5Q553 -99 537.5 -89.0Q522 -79 522 -79Q522 -79 503.0 -80.5Q484 -82 452.0 -77.5Q420 -73 382 -54Q354 -40 334.5 -17.0Q315 6 304.5 25.0Q294 44 294 44Z" fill="#000000" stroke="none" transform="scale(1,-1) translate(0,-256)" /><path d="M42.513092041015625 149.61798095703125Q42.513092041015625 149.61798095703125 48.07849884033203 143.0762939453125Q53.64390563964844 136.53460693359375 71.24664306640625 126.30668640136719Q88.84938049316406 116.07876586914062 123.95889282226562 105.26382446289062Q159.0684051513672 94.44888305664062 203.57646942138672 93.87677001953125Q248.08453369140625 93.30465698242188 294.50917053222656 101.12480163574219Q340.9338073730469 108.9449462890625 380.7905578613281 123.550537109375Q421.6422119140625 138.67349243164062 451.9286880493164 160.28839111328125Q482.2151641845703 181.90328979492188 513.4738159179688 206.3189239501953Q544.7324676513672 230.73455810546875 587.5032196044922 253.99606323242188Q614.3555145263672 268.979736328125 654.7854766845703 276.23277282714844Q695.2154388427734 283.4858093261719 739.1932220458984 285.9532165527344Q756.1823425292969 287.1371765136719 771.6033477783203 295.1563262939453Q787.0243530273438 303.17547607421875 797.4127578735352 314.4430847167969Q807.8011627197266 325.710693359375 811.6898651123047 336.91363525390625Q815.5785675048828 348.1165771484375 810.5030364990234 355.6780700683594Q805.4275054931641 363.23956298828125 788.4232330322266 363.5778503417969Q767.4191436767578 363.8763427734375 738.3977432250977 365.87120056152344Q709.3763427734375 367.8660583496094 680.8422927856445 371.1344299316406Q652.3082427978516 374.4028015136719 632.2687530517578 378.2631530761719Q613.2241668701172 382.640869140625 591.6064605712891 394.3512420654297Q569.9887542724609 406.0616149902344 551.8633117675781 418.56793212890625Q533.7378692626953 431.0742492675781 525.6776275634766 437.0836486816406Q486.386474609375 466.1257629394531 442.59300231933594 495.37681579589844Q398.7995300292969 524.6278686523438 345.62518310546875 541.8601379394531Q294.4658966064453 557.5900573730469 241.4531707763672 558.5850219726562Q188.44044494628906 559.5799865722656 139.52349853515625 550.9738464355469Q107.58052062988281 545.0739135742188 87.68244934082031 534.7266235351562Q67.78437805175781 524.3793334960938 58.36814880371094 515.9124603271484Q48.95191955566406 507.4455871582031 48.95191955566406 507.4455871582031Q48.95191955566406 507.4455871582031 34.97276306152344 505.2766418457031Q20.993606567382812 503.1076965332031 0.5703048706054688 495.2925109863281Q-19.852996826171875 487.4773254394531 -36.69059753417969 471.0708923339844Q-56.5028076171875 452.0975341796875 -59.85870361328125 437.6013641357422Q-63.214599609375 423.1051940917969 -60.13392639160156 415.0163879394531Q-57.053253173828125 406.9275817871094 -57.053253173828125 406.9275817871094Q-57.053253173828125 406.9275817871094 -66.48968505859375 400.49037170410156Q-75.92611694335938 394.05316162109375 -88.81693267822266 383.01438903808594Q-101.70774841308594 371.9756164550781 -111.56839752197266 357.9221954345703Q-121.42904663085938 343.8687744140625 -121.27752685546875 328.64630126953125Q-121.07550048828125 308.34967041015625 -111.43199157714844 293.9828338623047Q-101.78848266601562 279.6159973144531 -91.71065521240234 271.8505401611328Q-81.63282775878906 264.0850830078125 -81.63282775878906 264.0850830078125Q-81.63282775878906 264.0850830078125 -83.03679656982422 254.42926025390625Q-84.44076538085938 244.7734375 -79.77935028076172 228.58090209960938Q-75.11793518066406 212.38836669921875 -55.9268798828125 193.29559326171875Q-41.786102294921875 179.22723388671875 -18.68866729736328 169.5614471435547Q4.4087677001953125 159.89566040039062 23.46092987060547 154.75682067871094Q42.513092041015625 149.61798095703125 42.513092041015625 149.61798095703125Z" fill="#000000" stroke="none" transform="scale(1,-1) translate(0,-256)" /><path d="M416 349Q416 349 399.5 325.5Q383 302 362.0 256.5Q341 211 328 143Q318 94 319.0 60.5Q320 27 324.0 9.0Q328 -9 328 -9Q328 -9 320.0 2.0Q312 13 307 20Q303 26 298.5 35.0Q294 44 294 44Q294 44 287.5 46.0Q281 48 274 52Q266 55 258.0 63.0Q250 71 250 71Q250 71 247.0 92.0Q244 113 246.5 146.0Q249 179 265 216Q280 252 305.0 277.5Q330 303 355.5 318.5Q381 334 398.5 341.5Q416 349 416 349Z" fill="#000000" stroke="none" transform="scale(1,-1) translate(0,-256)" /><path d="M859 421Q859 421 885.5 406.5Q912 392 948 354Q975 325 987.5 304.5Q1000 284 1000 284L985 345Q985 345 1002.5 329.5Q1020 314 1040.5 287.0Q1061 260 1068 227Q1079 173 1074.0 141.5Q1069 110 1052 90Q1035 70 1017.0 62.5Q999 55 999 55Q999 55 1003.0 75.0Q1007 95 1004.0 136.5Q1001 178 978 241Q968 268 948.5 299.5Q929 331 908.5 358.5Q888 386 873.5 403.5Q859 421 859 421Z" fill="#000000" stroke="none" transform="scale(1,-1) translate(0,-256)" /><path d="M453 398Q453 398 465.0 411.5Q477 425 492.5 443.0Q508 461 518 474Q533 494 549.0 517.5Q565 541 576.0 558.0Q587 575 587 575Q587 575 584.0 549.0Q581 523 562 474Q554 455 543.0 436.0Q532 417 517.0 390.0Q502 363 482.0 322.5Q462 282 437 220Q413 162 416.5 101.0Q420 40 447.5 -11.5Q475 -63 524.0 -93.5Q573 -124 639 -122Q710 -120 753.5 -95.5Q797 -71 820.0 -34.5Q843 2 851.0 42.5Q859 83 859 119Q860 168 844.0 216.5Q828 265 808.0 305.5Q788 346 775 372Q765 391 751.0 416.0Q737 441 723.0 465.0Q709 489 700.0 504.5Q691 520 691 520Q691 520 689.0 498.0Q687 476 688 425Q688 392 703.0 347.0Q718 302 739.0 253.5Q760 205 779 161Q798 117 803.0 70.0Q808 23 793.5 -16.0Q779 -55 741.5 -76.0Q704 -97 639 -89Q580 -81 546.5 -56.5Q513 -32 499.0 2.5Q485 37 484.5 74.0Q484 111 491.0 144.0Q498 177 506 198Q521 234 539.0 269.0Q557 304 576.5 345.5Q596 387 615 442Q637 509 645.0 555.5Q653 602 651.0 641.0Q649 680 644 725Q638 770 628.0 808.0Q618 846 610.0 868.5Q602 891 602 891L575 877Q575 877 578.0 859.5Q581 842 584.5 817.0Q588 792 589 767Q590 719 585.5 690.0Q581 661 572.0 637.0Q563 613 550 582Q541 559 525.0 528.0Q509 497 492.5 467.0Q476 437 464.5 417.5Q453 398 453 398Z" fill="#000000" stroke="none" transform="scale(1,-1) translate(0,-256)" /><path d="M669 616Q669 616 664.0 600.0Q659 584 651.5 559.0Q644 534 635.5 506.5Q627 479 621 456Q610 421 589.0 375.0Q568 329 545.5 282.0Q523 235 506.0 195.5Q489 156 487 135Q485 120 485.0 93.0Q485 66 491.0 35.5Q497 5 514.0 -22.5Q531 -50 565.0 -68.5Q599 -87 654 -89Q711 -92 744.0 -73.5Q777 -55 790.5 -23.0Q804 9 803 48Q801 105 781.5 154.5Q762 204 741.5 244.0Q721 284 715 312Q703 365 695.5 405.5Q688 446 686 500Q684 554 676.5 585.0Q669 616 669 616Z" fill="#000000" stroke="none" transform="scale(1,-1) translate(0,-256)" /><path d="M779 161Q760 205 739.0 253.5Q718 302 703.5 347.0Q689 392 688 425Q687 476 689.0 498.0Q691 520 691 520Q691 520 700.5 504.5Q710 489 723.5 465.0Q737 441 751.0 416.0Q765 391 775 372Q788 346 808.0 305.5Q828 265 844.0 216.5Q860 168 859 119Q859 83 850.5 42.5Q842 2 818.5 -34.0Q795 -70 750 -93Q750 -93 763.5 -75.5Q777 -58 790.5 -25.0Q804 8 804.5 55.0Q805 102 779 161Z" fill="#000000" stroke="none" transform="scale(1,-1) translate(0,-256)" /></svg>