<?xml version="1.0" encoding="utf-8" ?>
<svg baseProfile="full" height="256" version="1.1" width="256" xmlns="http://www.w3.org/2000/svg" xmlns:ev="http://www.w3.org/2001/xml-events" xmlns:xlink="http://www.w3.org/1999/xlink"><defs /><path d="M720 865Q720 865 720 865Q709 874 693 875Q664 876 651.0 861.5Q638 847 638 824V96Q638 96 641.0 96.0Q644 96 644 102Q644 104 644.0 127.5Q644 151 644.5 185.5Q645 220 645.5 255.0Q646 290 646.0 316.0Q646 342 646 348Q646 364 647.0 386.0Q648 408 653 420Q659 441 660.5 469.0Q662 497 660.5 521.5Q659 546 656 558Q651 588 651.5 610.0Q652 632 654 651Q656 667 669.0 673.5Q682 680 696.0 675.0Q710 670 713 652Q716 640 720.0 612.5Q724 585 727 560Q729 535 734.5 512.0Q740 489 743 477Q747 465 754.5 438.5Q762 412 763 393Q764 385 772.5 384.0Q781 383 781 395Q780 410 774.0 434.0Q768 458 764 470Q761 481 755.5 500.5Q750 520 748 534Q747 543 743.5 566.0Q740 589 736.0 616.5Q732 644 728 668Q728 673 723.0 680.5Q718 688 711 693Q702 699 684.5 698.0Q667 697 655 681Q655 696 655.5 721.0Q656 746 656 773Q657 785 669.5 793.0Q682 801 696.5 798.5Q711 796 717 779Q720 774 721.5 760.0Q723 746 726 734Q726 730 730.5 708.5Q735 687 741.5 657.5Q748 628 754.0 598.5Q760 569 765.0 547.0Q770 525 771 520Q773 511 780.5 509.5Q788 508 794 510Q786 527 780.5 554.0Q775 581 769 615Q757 679 748.5 713.0Q740 747 738 763Q737 770 736 783Q731 804 716.0 813.5Q701 823 684.5 821.5Q668 820 659 808Q659 839 669.0 852.0Q679 865 693.5 866.5Q708 868 720 865Z" fill="#b55e19" stroke="none" transform="scale(1,-1) translate(0,-256)" /><path d="M555 865Q567 868 581.5 866.5Q596 865 606.0 852.0Q616 839 616 808Q607 820 590.5 821.5Q574 823 559.0 813.5Q544 804 539 783Q538 770 537 763Q535 747 526.5 713.0Q518 679 506 615Q500 581 494.5 554.0Q489 527 481 510Q487 508 494.5 509.5Q502 511 504 520Q506 525 510.5 547.0Q515 569 521.0 598.5Q527 628 533.5 657.5Q540 687 544.5 708.5Q549 730 549 734Q552 746 553.5 760.0Q555 774 558 779Q564 796 578.5 798.5Q593 801 605.5 793.0Q618 785 619 773Q619 746 619.5 721.0Q620 696 620 681Q608 697 590.5 698.0Q573 699 564 693Q557 688 552.0 680.5Q547 673 547 668Q543 644 539.0 616.5Q535 589 531.5 566.0Q528 543 527 534Q525 520 519.5 500.5Q514 481 511 470Q507 459 501.0 434.5Q495 410 494 395Q494 383 502.5 384.0Q511 385 512 393Q513 412 520.5 438.5Q528 465 532 477Q535 489 540.5 512.0Q546 535 548 560Q551 585 555.0 612.5Q559 640 562 652Q565 670 579.0 675.0Q593 680 606.0 673.5Q619 667 621 651Q623 632 623.5 610.0Q624 588 619 558Q616 546 614.5 521.5Q613 497 614.5 469.0Q616 441 623 420Q627 408 628.0 386.0Q629 364 629 348Q629 342 629.0 316.0Q629 290 629.5 255.0Q630 220 630.5 185.5Q631 151 631.0 127.5Q631 104 631 102Q631 97 634.5 96.0Q638 95 638 95V824Q638 847 624.5 861.5Q611 876 582 875Q566 874 555 865Q555 865 555 865Z" fill="#b55e19" stroke="none" transform="scale(1,-1) translate(0,-256)" /></svg>