<?xml version="1.0" encoding="utf-8" ?>
<svg baseProfile="full" height="256" version="1.1" width="256" xmlns="http://www.w3.org/2000/svg" xmlns:ev="http://www.w3.org/2001/xml-events" xmlns:xlink="http://www.w3.org/1999/xlink"><defs /><path d="M765 493Q776 533 790.0 568.5Q804 604 812.5 640.5Q821 677 815.5 719.5Q810 762 782 817Q766 847 740.5 861.0Q715 875 688.5 875.0Q662 875 644.0 862.5Q626 850 626 828Q626 823 625.5 802.5Q625 782 624.0 756.5Q623 731 622 710Q619 664 603.0 632.0Q587 600 564.0 576.5Q541 553 517.0 533.5Q493 514 476 493Q440 450 421.5 415.0Q403 380 391.0 354.0Q379 328 363.0 313.0Q347 298 315 294Q307 293 286.0 290.5Q265 288 245.0 286.0Q225 284 218 283Q209 283 200.0 276.0Q191 269 188 256Q178 212 177.0 157.0Q176 102 180.5 50.0Q185 -2 190.5 -39.5Q196 -77 200 -87Q207 -107 219.0 -112.5Q231 -118 239 -118Q243 -118 265.0 -119.0Q287 -120 320.5 -122.0Q354 -124 393.5 -125.5Q433 -127 472 -127Q525 -153 585.5 -165.0Q646 -177 705.0 -178.0Q764 -179 813 -170Q870 -189 908.5 -189.5Q947 -190 967.5 -183.5Q988 -177 993 -175Q1018 -162 1026.5 -145.5Q1035 -129 1036 -110Q1037 -95 1033.5 -79.5Q1030 -64 1021 -54Q1069 -40 1086.0 -20.5Q1103 -1 1105 30Q1109 63 1103.5 83.5Q1098 104 1077 126Q1127 151 1130 209Q1131 241 1121.5 261.5Q1112 282 1083 298Q1093 308 1100.0 325.5Q1107 343 1106 371Q1106 401 1094.5 425.5Q1083 450 1050 464Q1021 478 987.0 484.5Q953 491 926 494Q902 498 858.0 500.0Q814 502 765 493Z" fill="#ffca28" stroke="none" transform="scale(1,-1) translate(0,-256)" /></svg>