<?xml version="1.0" encoding="utf-8" ?>
<svg baseProfile="full" height="256" version="1.1" width="256" xmlns="http://www.w3.org/2000/svg" xmlns:ev="http://www.w3.org/2001/xml-events" xmlns:xlink="http://www.w3.org/1999/xlink"><defs /><path d="M768 157H495Q495 157 503.5 136.5Q512 116 512 92Q512 69 503.5 48.0Q495 27 495 27H768Q768 27 759.0 49.5Q750 72 750 97Q750 122 759.0 139.5Q768 157 768 157ZM776 195Q788 195 796.5 186.0Q805 177 806 165V19Q806 7 797.0 -2.0Q788 -11 776 -11H487Q475 -11 466.5 -2.0Q458 7 458 19V165Q458 177 466.5 186.0Q475 195 487 195Z" fill="#9e9e9e" stroke="none" transform="scale(1,-1) translate(0,-256)" /></svg>