<?xml version="1.0" encoding="utf-8" ?>
<svg baseProfile="full" height="256" version="1.1" width="256" xmlns="http://www.w3.org/2000/svg" xmlns:ev="http://www.w3.org/2001/xml-events" xmlns:xlink="http://www.w3.org/1999/xlink"><defs /><path d="M544 283Q529 284 517.5 273.0Q506 262 504 245Q502 227 511.0 214.0Q520 201 535 199Q549 198 560.5 209.0Q572 220 574 237Q576 255 567.0 268.0Q558 281 544 283Z" fill="#050402" stroke="none" transform="scale(1,-1) translate(0,-256)" /><path d="M694.3035125732422 226.016357421875Q694.5823516845703 243.80654907226562 683.9024047851562 255.93092346191406Q673.2224578857422 268.0552978515625 658.8106842041016 268.1201477050781Q644.3989105224609 268.18499755859375 634.279052734375 255.68209838867188Q624.1591949462891 243.17919921875 623.9338531494141 226.23361206054688Q624.4996185302734 208.38992309570312 634.7572631835938 196.29229736328125Q645.0149078369141 184.19467163085938 659.4266815185547 184.12982177734375Q673.8384552001953 184.06497192382812 683.9583129882812 196.56787109375Q694.0781707763672 209.07077026367188 694.3035125732422 226.016357421875Z" fill="#050402" stroke="none" transform="scale(1,-1) translate(0,-256)" /><path d="M751 247Q750 260 742.0 268.5Q734 277 725 276Q715 275 709.0 265.0Q703 255 705 242Q706 229 714.0 220.5Q722 212 731 213Q741 214 747.0 223.5Q753 233 751 247Z" fill="#050402" stroke="none" transform="scale(1,-1) translate(0,-256)" /><path d="M482 307Q473 309 464.5 301.5Q456 294 453 281Q450 268 455.0 257.5Q460 247 470 245Q479 243 487.5 250.5Q496 258 499 271Q502 284 497.0 294.5Q492 305 482 307Z" fill="#050402" stroke="none" transform="scale(1,-1) translate(0,-256)" /></svg>