<?xml version="1.0" encoding="utf-8" ?>
<svg baseProfile="full" height="256" version="1.1" width="256" xmlns="http://www.w3.org/2000/svg" xmlns:ev="http://www.w3.org/2001/xml-events" xmlns:xlink="http://www.w3.org/1999/xlink"><defs /><path d="M875 632Q873 624 866.0 610.5Q859 597 855 586Q843 547 844.5 502.5Q846 458 854.0 418.5Q862 379 870.0 354.0Q878 329 878 329L864 332L681 311Q681 311 686.0 320.0Q691 329 696.0 341.0Q701 353 699 361Q699 366 696.0 381.5Q693 397 689 400Q685 403 669.5 398.5Q654 394 635 391Q599 386 579.0 393.0Q559 400 549.0 415.5Q539 431 530 452Q528 457 525.5 462.0Q523 467 520 469Q518 470 507.5 472.0Q497 474 487.0 478.5Q477 483 477 492Q476 505 484.5 518.0Q493 531 500.5 543.5Q508 556 504 568Q492 593 484.0 614.5Q476 636 474 669Q469 732 497.5 785.0Q526 838 591 860Q633 876 680.0 878.0Q727 880 769 862Q807 846 835.0 809.5Q863 773 874.5 726.0Q886 679 875 632Z" fill="#ffca28" stroke="none" transform="scale(1,-1) translate(0,-256)" /></svg>