<?xml version="1.0" encoding="utf-8" ?>
<svg baseProfile="full" height="256" version="1.1" width="256" xmlns="http://www.w3.org/2000/svg" xmlns:ev="http://www.w3.org/2001/xml-events" xmlns:xlink="http://www.w3.org/1999/xlink"><defs /><path d="M193 634Q193 634 193.0 634.0Q193 634 193 634L189 576Q189 576 180.5 580.0Q172 584 162 580Q150 576 149.0 565.0Q148 554 148 544Q148 540 148.0 523.0Q148 506 147.5 484.0Q147 462 147.0 443.5Q147 425 146 420Q146 409 138.0 400.5Q130 392 102 392Q77 392 67.0 402.0Q57 412 57 426Q56 437 56.0 459.0Q56 481 56.5 502.0Q57 523 57 531Q56 549 65.5 555.5Q75 562 85.0 562.5Q95 563 95 563Q95 563 94.5 574.5Q94 586 99.5 601.0Q105 616 122 627Q138 638 154.5 639.0Q171 640 182.0 637.0Q193 634 193 634Z" fill="#464c50" stroke="none" transform="scale(1,-1) translate(0,-256)" /><path d="M1085 258Q1085 258 1084.5 258.0Q1084 258 1084 258Q1085 259 1086.0 244.5Q1087 230 1088.5 215.5Q1090 201 1090 201Q1090 201 1102.5 200.5Q1115 200 1131.5 203.0Q1148 206 1160 216Q1173 226 1178.5 240.5Q1184 255 1185.0 266.0Q1186 277 1186 277Q1186 277 1191.0 277.5Q1196 278 1204 280Q1212 281 1215.5 288.5Q1219 296 1219 301Q1220 303 1219.5 320.5Q1219 338 1219.0 362.0Q1219 386 1219 407Q1220 424 1216.0 434.0Q1212 444 1200 445Q1191 445 1176.5 445.0Q1162 445 1152 444Q1131 441 1131 413Q1131 410 1132.0 380.5Q1133 351 1133 322Q1133 314 1134.5 299.5Q1136 285 1133.5 271.5Q1131 258 1121 255Q1109 252 1097.0 255.0Q1085 258 1085 258Z" fill="#464c50" stroke="none" transform="scale(1,-1) translate(0,-256)" /></svg>