<?xml version="1.0" encoding="utf-8" ?>
<svg baseProfile="full" height="256" version="1.1" width="256" xmlns="http://www.w3.org/2000/svg" xmlns:ev="http://www.w3.org/2001/xml-events" xmlns:xlink="http://www.w3.org/1999/xlink"><defs /><path d="M197 83Q197 83 197.0 83.0Q197 83 197 83Q201 110 221.5 117.0Q242 124 265 123Q282 122 304.0 120.5Q326 119 335 119Q356 118 436.0 112.0Q516 106 653 106Q698 106 749.5 107.0Q801 108 850.0 110.0Q899 112 937.0 114.0Q975 116 993 118Q1015 120 1037.0 119.0Q1059 118 1074.5 110.5Q1090 103 1092 87Q1095 63 1075.5 39.5Q1056 16 1014 12Q977 9 882.5 8.0Q788 7 649 10Q556 11 492.5 11.5Q429 12 382.5 13.0Q336 14 295 16Q232 20 213.0 39.0Q194 58 197 83Z" fill="#84765f" stroke="none" transform="scale(1,-1) translate(0,-256)" /></svg>