<?xml version="1.0" encoding="utf-8" ?>
<svg baseProfile="full" height="256" version="1.1" width="256" xmlns="http://www.w3.org/2000/svg" xmlns:ev="http://www.w3.org/2001/xml-events" xmlns:xlink="http://www.w3.org/1999/xlink"><defs /><path d="M272 324Q272 324 272.0 324.0Q272 324 272 324L269 558Q269 558 299.5 559.5Q330 561 372 562Q425 563 458.5 563.5Q492 564 492 564L491 325Z" fill="#afe3fb" stroke="none" transform="scale(1,-1) translate(0,-256)" /><path d="M521 564Q521 564 554.5 564.5Q588 565 633 566Q659 566 684.5 566.0Q710 566 726.0 566.0Q742 566 742 566L741 324H521Z" fill="#afe3fb" stroke="none" transform="scale(1,-1) translate(0,-256)" /><path d="M777 567Q777 567 777.0 567.0Q777 567 777 567Q777 567 794.0 567.0Q811 567 834.5 567.5Q858 568 878 568Q898 568 922.5 568.0Q947 568 965.0 568.5Q983 569 983 569L984 381L932 380Q932 380 931.0 393.5Q930 407 929.5 421.5Q929 436 928 441Q927 448 923.0 455.0Q919 462 912 462Q905 463 885.0 463.0Q865 463 857 462Q849 462 842.5 456.0Q836 450 836 440Q836 433 836.0 418.5Q836 404 835.5 392.0Q835 380 835 380Q835 380 822.5 380.0Q810 380 798 377Q791 376 784.5 373.0Q778 370 778 370Z" fill="#afe3fb" stroke="none" transform="scale(1,-1) translate(0,-256)" /></svg>