<?xml version="1.0" encoding="utf-8" ?>
<svg baseProfile="full" height="256" version="1.1" width="256" xmlns="http://www.w3.org/2000/svg" xmlns:ev="http://www.w3.org/2001/xml-events" xmlns:xlink="http://www.w3.org/1999/xlink"><defs /><path d="M866 28Q866 28 866.0 28.0Q866 28 866 28Q866 34 865.5 48.5Q865 63 864.5 77.5Q864 92 866 99Q867 108 882.0 111.0Q897 114 916.5 114.5Q936 115 951 116Q966 117 985.5 118.5Q1005 120 1022.0 120.5Q1039 121 1046 119Q1060 115 1057.0 100.5Q1054 86 1050 70Q1046 54 1038.0 39.5Q1030 25 1019 16Q1011 10 987.5 8.0Q964 6 938.0 6.0Q912 6 897 6Q875 7 870.5 13.5Q866 20 866 28Z" fill="#f1edec" stroke="none" transform="scale(1,-1) translate(0,-256)" /><path d="M232 120Q232 120 232.0 120.0Q232 120 232 120Q241 127 267.5 125.5Q294 124 333 122Q366 120 386.0 117.5Q406 115 412 110Q419 102 420.0 87.5Q421 73 419 51Q418 36 415.0 26.5Q412 17 401 13Q395 11 377.0 11.0Q359 11 337.5 12.5Q316 14 297.5 15.5Q279 17 271 18Q257 18 250.0 31.0Q243 44 237 59Q231 76 227.0 94.5Q223 113 232 120Z" fill="#f1edec" stroke="none" transform="scale(1,-1) translate(0,-256)" /></svg>