<?xml version="1.0" encoding="utf-8" ?>
<svg baseProfile="full" height="256" version="1.1" width="256" xmlns="http://www.w3.org/2000/svg" xmlns:ev="http://www.w3.org/2001/xml-events" xmlns:xlink="http://www.w3.org/1999/xlink"><defs /><path d="M533 836Q533 836 542.5 845.0Q552 854 568.0 859.5Q584 865 603 855Q631 839 655.5 811.0Q680 783 696 750Q708 725 717.5 692.5Q727 660 729.5 626.0Q732 592 722.5 564.5Q713 537 687 523Q646 500 610.0 512.0Q574 524 545.0 558.5Q516 593 494 639Q473 685 470.5 721.5Q468 758 473.0 779.0Q478 800 478 800Z" fill="#feb804" stroke="none" transform="scale(1,-1) translate(0,-256)" /></svg>