<?xml version="1.0" encoding="utf-8" ?>
<svg baseProfile="full" height="256" version="1.1" width="256" xmlns="http://www.w3.org/2000/svg" xmlns:ev="http://www.w3.org/2001/xml-events" xmlns:xlink="http://www.w3.org/1999/xlink"><defs /><path d="M733 853 853 872Q853 872 854.5 871.5Q856 871 862.5 864.5Q869 858 883 837Q904 807 913.5 768.0Q923 729 924.5 691.5Q926 654 922 628Q918 604 908.0 577.0Q898 550 879.5 529.5Q861 509 831 505Q801 500 777.0 513.5Q753 527 736.0 550.0Q719 573 711 597Q703 621 698.5 654.0Q694 687 694.5 722.5Q695 758 703 788Q710 820 721.5 836.5Q733 853 733 853Z" fill="#fe6656" stroke="none" transform="scale(1,-1) translate(0,-256)" /></svg>