<?xml version="1.0" encoding="utf-8" ?>
<svg baseProfile="full" height="256" version="1.1" width="256" xmlns="http://www.w3.org/2000/svg" xmlns:ev="http://www.w3.org/2001/xml-events" xmlns:xlink="http://www.w3.org/1999/xlink"><defs /><path d="M296 920Q314 931 335.5 929.0Q357 927 373.0 922.0Q389 917 389 917Q389 917 382.5 904.0Q376 891 377 870Q377 848 388.0 825.5Q399 803 408.5 786.5Q418 770 415 767Q411 764 397.0 776.0Q383 788 365.0 803.5Q347 819 330 825Q305 835 288.0 828.0Q271 821 271 821Q271 821 270.0 833.0Q269 845 270.0 862.0Q271 879 277.0 895.0Q283 911 296 920Z" fill="#7e43a4" stroke="none" transform="scale(1,-1) translate(0,-256)" /></svg>