<?xml version="1.0" encoding="utf-8" ?>
<svg baseProfile="full" height="256" version="1.1" width="256" xmlns="http://www.w3.org/2000/svg" xmlns:ev="http://www.w3.org/2001/xml-events" xmlns:xlink="http://www.w3.org/1999/xlink"><defs /><path d="M158 84Q170 104 193.5 114.0Q217 124 241.0 127.0Q265 130 277 131Q286 132 311.5 132.0Q337 132 366.5 132.0Q396 132 419.0 131.5Q442 131 445 131Q452 131 483.0 127.5Q514 124 567 111Q608 101 632.0 95.0Q656 89 670.0 85.0Q684 81 696 79Q717 74 732.5 71.0Q748 68 748 76Q748 80 733.5 85.0Q719 90 696.0 96.5Q673 103 648 113Q618 126 590.5 146.5Q563 167 539.5 187.0Q516 207 501 219Q499 220 484.0 234.5Q469 249 447.0 270.0Q425 291 403.0 312.5Q381 334 363.5 350.0Q346 366 341 370Q332 377 314.5 394.5Q297 412 280.0 429.5Q263 447 258 452Q253 457 238.5 471.5Q224 486 211.0 500.0Q198 514 198 516Q198 520 213.0 517.0Q228 514 239 513Q250 511 269.0 508.5Q288 506 288 506L384 541Q384 541 398.5 532.0Q413 523 433.0 511.5Q453 500 470.5 491.0Q488 482 494 481Q503 480 534.0 470.0Q565 460 604.0 444.5Q643 429 676 409Q709 389 741.0 356.5Q773 324 796.5 294.5Q820 265 828 252Q836 239 849.0 219.0Q862 199 875.0 184.5Q888 170 895 173Q905 177 897.5 209.5Q890 242 888 287Q888 299 889.0 309.5Q890 320 893.0 339.0Q896 358 901 396Q907 445 921.0 482.5Q935 520 949.0 545.0Q963 570 968 581Q977 598 996.5 618.0Q1016 638 1040 659Q1056 674 1072.0 692.0Q1088 710 1100.0 722.5Q1112 735 1115 733Q1118 731 1111.5 707.0Q1105 683 1093.0 646.5Q1081 610 1067 571Q1057 543 1044.0 497.5Q1031 452 1018.5 404.0Q1006 356 997.5 318.0Q989 280 987 266Q980 207 977.5 172.5Q975 138 976 128Q977 121 982.5 102.5Q988 84 993.0 67.5Q998 51 998 51Q998 51 1008.0 38.5Q1018 26 1030.0 11.0Q1042 -4 1049 -11Q1056 -18 1069.5 -30.0Q1083 -42 1094.0 -53.0Q1105 -64 1105 -67Q1105 -71 1096.5 -85.5Q1088 -100 1077.5 -112.5Q1067 -125 1063 -125Q1056 -123 1042.0 -111.5Q1028 -100 1012 -82Q1002 -73 986.5 -56.5Q971 -40 958.0 -26.5Q945 -13 945 -13Q945 -13 948.5 -23.5Q952 -34 956.5 -47.0Q961 -60 963 -68Q965 -73 972.0 -92.0Q979 -111 987.5 -134.0Q996 -157 1001.5 -174.5Q1007 -192 1007 -194Q1005 -197 994.0 -207.0Q983 -217 970.5 -226.0Q958 -235 954 -234Q949 -233 942.0 -213.0Q935 -193 927.0 -166.5Q919 -140 912 -120Q905 -103 897.5 -83.5Q890 -64 885.0 -50.0Q880 -36 880 -36L821 29Q821 29 814.0 31.5Q807 34 786 29Q772 26 747.0 15.5Q722 5 682 11Q654 15 613.0 22.0Q572 29 528.5 36.0Q485 43 451 49Q417 54 374.0 60.5Q331 67 293.0 72.0Q255 77 236 79Q207 81 181.0 79.5Q155 78 158 84Z" fill="#96a51d" stroke="none" transform="scale(1,-1) translate(0,-256)" /></svg>