<?xml version="1.0" encoding="utf-8" ?>
<svg baseProfile="full" height="256" version="1.1" width="256" xmlns="http://www.w3.org/2000/svg" xmlns:ev="http://www.w3.org/2001/xml-events" xmlns:xlink="http://www.w3.org/1999/xlink"><defs /><path d="M196 724Q206 737 224.5 742.5Q243 748 258.0 748.5Q273 749 273 749Q273 749 273.5 735.0Q274 721 281 701Q287 681 301.0 662.0Q315 643 326.0 629.5Q337 616 335 612Q333 609 316.0 617.0Q299 625 278.0 635.0Q257 645 242 648Q223 652 206.0 647.0Q189 642 189 642Q189 642 186.0 656.0Q183 670 183.5 689.0Q184 708 196 724Z" fill="#e658a4" stroke="none" transform="scale(1,-1) translate(0,-256)" /></svg>