<?xml version="1.0" encoding="utf-8" ?>
<svg baseProfile="full" height="256" version="1.1" width="256" xmlns="http://www.w3.org/2000/svg" xmlns:ev="http://www.w3.org/2001/xml-events" xmlns:xlink="http://www.w3.org/1999/xlink"><defs /><path d="M381 919Q381 919 398.0 912.5Q415 906 439 889Q467 869 484.0 846.5Q501 824 501 824Q501 824 506.0 801.5Q511 779 516.5 745.5Q522 712 525.5 676.0Q529 640 526.5 612.5Q524 585 511 576Q498 567 476.5 575.0Q455 583 430.5 599.5Q406 616 384.0 635.0Q362 654 348.0 667.0Q334 680 334 680Q334 680 325.0 692.5Q316 705 304.5 724.0Q293 743 285 764Q279 781 275.0 802.0Q271 823 271 823Z" fill="#a099f7" stroke="none" transform="scale(1,-1) translate(0,-256)" /></svg>