<?xml version="1.0" encoding="utf-8" ?>
<svg baseProfile="full" height="256" version="1.1" width="256" xmlns="http://www.w3.org/2000/svg" xmlns:ev="http://www.w3.org/2001/xml-events" xmlns:xlink="http://www.w3.org/1999/xlink"><defs /><path d="M531 613Q531 613 544.5 597.5Q558 582 576.5 560.0Q595 538 612.5 517.5Q630 497 637 486Q644 475 658.0 453.5Q672 432 687.0 409.0Q702 386 712.0 369.5Q722 353 722 353L797 287Q797 287 788.5 302.0Q780 317 767.5 338.5Q755 360 743.5 379.5Q732 399 727 409Q721 418 709.0 437.0Q697 456 684.0 476.0Q671 496 662.0 510.5Q653 525 653 525L688 543Q688 543 698.5 526.5Q709 510 724.0 486.5Q739 463 753.5 440.5Q768 418 775 406Q783 394 795.0 372.5Q807 351 819.0 329.0Q831 307 839.0 292.0Q847 277 847 277Q847 277 842.5 295.5Q838 314 832.0 345.0Q826 376 820 410Q816 436 811.5 466.0Q807 496 804.5 517.0Q802 538 802 538L841 543Q841 543 842.5 528.5Q844 514 846.5 493.0Q849 472 852.0 450.0Q855 428 858 413Q864 381 871.0 349.5Q878 318 884.0 297.5Q890 277 890 277L915 117L1065 -93Q1065 -93 1073.5 -101.0Q1082 -109 1090.5 -118.5Q1099 -128 1099 -131Q1099 -135 1091.0 -142.0Q1083 -149 1074 -155Q1066 -162 1051.5 -171.5Q1037 -181 1034 -181Q1030 -180 1020.5 -168.0Q1011 -156 1002 -144Q996 -136 986.5 -123.0Q977 -110 969.5 -99.0Q962 -88 962 -88L819 51L682 52Q682 52 667.0 59.5Q652 67 629.0 79.0Q606 91 581.5 104.0Q557 117 537.5 127.0Q518 137 509 140Q496 146 480.5 157.0Q465 168 454.0 177.0Q443 186 443 186L448 226Q448 226 459.5 220.0Q471 214 487.0 206.0Q503 198 517.5 190.5Q532 183 538 180Q544 177 562.0 168.5Q580 160 600.5 151.0Q621 142 636.0 135.0Q651 128 651 128L546 424L461 496L477 540Q477 540 498.5 525.0Q520 510 539 492Q549 483 565.5 467.5Q582 452 599.5 436.0Q617 420 629.0 408.5Q641 397 641 397Q641 397 633.0 410.5Q625 424 614.5 441.5Q604 459 595 472Q588 482 572.0 499.5Q556 517 537.5 535.5Q519 554 506.5 567.0Q494 580 494 580Z" fill="#737f39" stroke="none" transform="scale(1,-1) translate(0,-256)" /></svg>