<?xml version="1.0" encoding="utf-8" ?>
<svg baseProfile="full" height="256" version="1.1" width="256" xmlns="http://www.w3.org/2000/svg" xmlns:ev="http://www.w3.org/2001/xml-events" xmlns:xlink="http://www.w3.org/1999/xlink"><defs /><path d="M861 906Q885 899 897.0 883.0Q909 867 905 851Q904 848 896.5 822.5Q889 797 879.0 761.5Q869 726 859.0 690.5Q849 655 842.5 631.0Q836 607 836 607Q836 607 819.0 596.5Q802 586 770 586Q731 586 715.5 590.5Q700 595 700 595Q700 595 706.0 616.0Q712 637 722.0 669.5Q732 702 743.0 738.5Q754 775 763.5 807.5Q773 840 779.0 860.5Q785 881 785 881Q791 899 812.0 906.0Q833 913 861 906Z" fill="#b39ddb" stroke="none" transform="scale(1,-1) translate(0,-256)" /></svg>