<?xml version="1.0" encoding="utf-8" ?>
<svg baseProfile="full" height="256" version="1.1" width="256" xmlns="http://www.w3.org/2000/svg" xmlns:ev="http://www.w3.org/2001/xml-events" xmlns:xlink="http://www.w3.org/1999/xlink"><defs /><path d="M322 347Q322 347 358.5 357.5Q395 368 454.5 381.5Q514 395 583 404Q625 409 674.0 403.5Q723 398 772.0 387.0Q821 376 861.5 364.5Q902 353 926.5 344.5Q951 336 951 336Q942 270 932.5 202.5Q923 135 914.5 75.0Q906 15 900.0 -27.0Q894 -69 892 -83Q887 -115 852.5 -144.0Q818 -173 762.0 -191.5Q706 -210 637 -210Q568 -210 512.0 -191.5Q456 -173 421.5 -144.0Q387 -115 382 -83Q380 -69 373.5 -25.0Q367 19 358.5 80.5Q350 142 340.5 211.5Q331 281 322 347Z" fill="#000000" stroke="none" transform="scale(1,-1) translate(0,-256)" /><path d="M976.2961883544922 -76.46282958984375Q972.6020355224609 -56.248138427734375 931.5130920410156 -29.52721405029297Q890.4241485595703 -2.8062896728515625 820.9355239868164 27.364852905273438Q751.4468994140625 57.53599548339844 659.6020965576172 88.73951721191406Q579.1195373535156 116.08280944824219 524.5177764892578 124.78888702392578Q469.916015625 133.49496459960938 435.8703842163086 131.20657348632812Q401.8247528076172 128.91818237304688 381.9526824951172 123.27287292480469Q381.9526824951172 123.27287292480469 397.18414306640625 119.92115020751953Q412.4156036376953 116.56942749023438 445.2515869140625 102.86141204833984Q478.0875701904297 89.15339660644531 530.7608489990234 59.22600555419922Q583.4341278076172 29.298614501953125 658.3177642822266 -23.85272216796875Q722.4469451904297 -68.24580383300781 773.6647720336914 -90.02194213867188Q824.8825988769531 -111.79808044433594 863.4170913696289 -116.50386810302734Q901.9515838623047 -121.20965576171875 927.8086700439453 -115.04544830322266Q953.6657562255859 -108.88124084472656 965.9045104980469 -97.7257080078125Q978.1432647705078 -86.57017517089844 976.2961883544922 -76.46282958984375Z" fill="#000000" stroke="none" transform="scale(1,-1) translate(0,-256)" /><path d="M878 136Q878 153 865.0 166.0Q852 179 834 179Q815 179 802.0 166.0Q789 153 789 136Q789 118 802.0 105.0Q815 92 834 92Q852 92 865.0 105.0Q878 118 878 136Z" fill="#000000" stroke="none" transform="scale(1,-1) translate(0,-256)" /><path d="M730.25 148.18800354003906Q730.25 165.18800354003906 717.25 178.18800354003906Q704.25 191.18800354003906 686.25 191.18800354003906Q667.25 191.18800354003906 654.25 178.18800354003906Q641.25 165.18800354003906 641.25 148.18800354003906Q641.25 130.18800354003906 654.25 117.18800354003906Q667.25 104.18800354003906 686.25 104.18800354003906Q704.25 104.18800354003906 717.25 117.18800354003906Q730.25 130.18800354003906 730.25 148.18800354003906Z" fill="#000000" stroke="none" transform="scale(1,-1) translate(0,-256)" /><path d="M641.0 -42.875Q641.0 -25.875 628.0 -12.875Q615.0 0.125 597.0 0.125Q578.0 0.125 565.0 -12.875Q552.0 -25.875 552.0 -42.875Q552.0 -60.875 565.0 -73.875Q578.0 -86.875 597.0 -86.875Q615.0 -86.875 628.0 -73.875Q641.0 -60.875 641.0 -42.875Z" fill="#000000" stroke="none" transform="scale(1,-1) translate(0,-256)" /><path d="M768.968994140625 -36.68800354003906Q768.968994140625 -19.688003540039062 755.968994140625 -6.6880035400390625Q742.968994140625 6.3119964599609375 724.968994140625 6.3119964599609375Q705.968994140625 6.3119964599609375 692.968994140625 -6.6880035400390625Q679.968994140625 -19.688003540039062 679.968994140625 -36.68800354003906Q679.968994140625 -54.68800354003906 692.968994140625 -67.68800354003906Q705.968994140625 -80.68800354003906 724.968994140625 -80.68800354003906Q742.968994140625 -80.68800354003906 755.968994140625 -67.68800354003906Q768.968994140625 -54.68800354003906 768.968994140625 -36.68800354003906Z" fill="#000000" stroke="none" transform="scale(1,-1) translate(0,-256)" /><path d="M483.8213359285146 -41.26205493696034Q483.82130442583 -26.07631714665331 471.8482006690465 -14.463705172296613Q459.87509691226296 -2.8510931979399174 443.2969866048079 -2.8511084865313023Q425.7978701691609 -2.8511246244888753 413.82481459295377 -14.46375868236646Q401.85175901674666 -26.076392740244046 401.85179051943123 -41.262130530551076Q401.8518238752149 -57.34114701440558 413.82492763199843 -68.95375898876227Q425.79803138878196 -80.56637096311897 443.297147824429 -80.5663548251614Q459.87525813188404 -80.56633953657001 471.84831370809115 -68.95370547869243Q483.82136928429827 -57.34107142081484 483.8213359285146 -41.26205493696034Z" fill="#000000" stroke="none" transform="scale(1,-1) translate(0,-256)" /><path d="M483.8219690695405 -47.775654304772615Q483.82201670948416 -33.40411643544212 471.848973473534 -22.41412793006748Q459.8759302375838 -11.42413942469284 443.29781993012875 -11.424154713284224Q425.79870349448174 -11.424170851241797 413.82558739744127 -22.414181440137327Q401.8524713004008 -33.404192029032856 401.85242366045713 -47.77572989836335Q401.85237321816385 -62.9926523482427 413.825416454114 -73.98264085361734Q425.7984596900642 -84.97262935899198 443.2975761257112 -84.97261322103441Q459.87568643316627 -84.97259793244302 471.84880253020674 -73.9825873435475Q483.8219186272472 -62.992576754651964 483.8219690695405 -47.775654304772615Z" fill="#000000" stroke="none" transform="scale(1,-1) translate(0,-256)" /><path d="M851.2272349763662 -99.29304553754628Q851.2272034736816 -84.10730774723925 839.254099716898 -72.49469577288255Q827.2809959601145 -60.882083798525855 810.7028856526595 -60.88209908711724Q793.2037692170125 -60.88211522507481 781.2307136408053 -72.4947492829524Q769.2576580645982 -84.10738334082998 769.2576895672828 -99.29312113113701Q769.2577229230665 -115.37213761499152 781.23082667985 -126.98474958934821Q793.2039304366335 -138.5973615637049 810.7030468722805 -138.59734542574733Q827.2811571797356 -138.59733013715595 839.2542127559427 -126.98469607927836Q851.2272683321498 -115.37206202140078 851.2272349763662 -99.29304553754628Z" fill="#000000" stroke="none" transform="scale(1,-1) translate(0,-256)" /><path d="M851.2278681173921 -105.80664490535855Q851.2279157573357 -91.43510703602806 839.2548725213856 -80.44511853065342Q827.2818292854354 -69.45513002527878 810.7037189779803 -69.45514531387016Q793.2046025423333 -69.45516145182773 781.2314864452928 -80.44517204072326Q769.2583703482524 -91.4351826296188 769.2583227083087 -105.80672049894929Q769.2582722660154 -121.02364294882864 781.2313155019656 -132.01363145420328Q793.2043587379158 -143.00361995957792 810.7034751735628 -143.00360382162035Q827.2815854810178 -143.00358853302896 839.2547015780583 -132.01357794413343Q851.2278176750988 -121.0235673552379 851.2278681173921 -105.80664490535855Z" fill="#000000" stroke="none" transform="scale(1,-1) translate(0,-256)" /><path d="M552 -43Q552 -61 565.0 -73.5Q578 -86 596 -87Q619 -88 630.5 -73.5Q642 -59 642 -41Q642 -23 627.5 -11.0Q613 1 594 0Q576 -1 564.0 -13.0Q552 -25 552 -43Z" fill="#000000" stroke="none" transform="scale(1,-1) translate(0,-256)" /><path d="M698.0 -147.593994140625Q698.0 -130.593994140625 685.0 -117.593994140625Q672.0 -104.593994140625 654.0 -104.593994140625Q635.0 -104.593994140625 622.0 -117.593994140625Q609.0 -130.593994140625 609.0 -147.593994140625Q609.0 -165.593994140625 622.0 -178.593994140625Q635.0 -191.593994140625 654.0 -191.593994140625Q672.0 -191.593994140625 685.0 -178.593994140625Q698.0 -165.593994140625 698.0 -147.593994140625Z" fill="#000000" stroke="none" transform="scale(1,-1) translate(0,-256)" /><path d="M609.0 -147.718994140625Q609.0 -165.718994140625 622.0 -178.218994140625Q635.0 -190.718994140625 653.0 -191.718994140625Q676.0 -192.718994140625 687.5 -178.218994140625Q699.0 -163.718994140625 699.0 -145.718994140625Q699.0 -127.718994140625 684.5 -115.718994140625Q670.0 -103.718994140625 651.0 -104.718994140625Q633.0 -105.718994140625 621.0 -117.718994140625Q609.0 -129.718994140625 609.0 -147.718994140625Z" fill="#000000" stroke="none" transform="scale(1,-1) translate(0,-256)" /><path d="M571.906005859375 37.75Q571.906005859375 54.75 558.906005859375 67.75Q545.906005859375 80.75 527.906005859375 80.75Q508.906005859375 80.75 495.906005859375 67.75Q482.906005859375 54.75 482.906005859375 37.75Q482.906005859375 19.75 495.906005859375 6.75Q508.906005859375 -6.25 527.906005859375 -6.25Q545.906005859375 -6.25 558.906005859375 6.75Q571.906005859375 19.75 571.906005859375 37.75Z" fill="#000000" stroke="none" transform="scale(1,-1) translate(0,-256)" /><path d="M482.906005859375 37.625Q482.906005859375 19.625 495.906005859375 7.125Q508.906005859375 -5.375 526.906005859375 -6.375Q549.906005859375 -7.375 561.406005859375 7.125Q572.906005859375 21.625 572.906005859375 39.625Q572.906005859375 57.625 558.406005859375 69.625Q543.906005859375 81.625 524.906005859375 80.625Q506.906005859375 79.625 494.906005859375 67.625Q482.906005859375 55.625 482.906005859375 37.625Z" fill="#000000" stroke="none" transform="scale(1,-1) translate(0,-256)" /><path d="M685.625 53.68699645996094Q685.625 70.68699645996094 672.625 83.68699645996094Q659.625 96.68699645996094 641.625 96.68699645996094Q622.625 96.68699645996094 609.625 83.68699645996094Q596.625 70.68699645996094 596.625 53.68699645996094Q596.625 35.68699645996094 609.625 22.686996459960938Q622.625 9.686996459960938 641.625 9.686996459960938Q659.625 9.686996459960938 672.625 22.686996459960938Q685.625 35.68699645996094 685.625 53.68699645996094Z" fill="#000000" stroke="none" transform="scale(1,-1) translate(0,-256)" /><path d="M596.625 53.56199645996094Q596.625 35.56199645996094 609.625 23.061996459960938Q622.625 10.561996459960938 640.625 9.561996459960938Q663.625 8.561996459960938 675.125 23.061996459960938Q686.625 37.56199645996094 686.625 55.56199645996094Q686.625 73.56199645996094 672.125 85.56199645996094Q657.625 97.56199645996094 638.625 96.56199645996094Q620.625 95.56199645996094 608.625 83.56199645996094Q596.625 71.56199645996094 596.625 53.56199645996094Z" fill="#000000" stroke="none" transform="scale(1,-1) translate(0,-256)" /><path d="M822.125 17.781005859375Q822.125 34.781005859375 809.125 47.781005859375Q796.125 60.781005859375 778.125 60.781005859375Q759.125 60.781005859375 746.125 47.781005859375Q733.125 34.781005859375 733.125 17.781005859375Q733.125 -0.218994140625 746.125 -13.218994140625Q759.125 -26.218994140625 778.125 -26.218994140625Q796.125 -26.218994140625 809.125 -13.218994140625Q822.125 -0.218994140625 822.125 17.781005859375Z" fill="#000000" stroke="none" transform="scale(1,-1) translate(0,-256)" /><path d="M733.125 17.656005859375Q733.125 -0.343994140625 746.125 -12.843994140625Q759.125 -25.343994140625 777.125 -26.343994140625Q800.125 -27.343994140625 811.625 -12.843994140625Q823.125 1.656005859375 823.125 19.656005859375Q823.125 37.656005859375 808.625 49.656005859375Q794.125 61.656005859375 775.125 60.656005859375Q757.125 59.656005859375 745.125 47.656005859375Q733.125 35.656005859375 733.125 17.656005859375Z" fill="#000000" stroke="none" transform="scale(1,-1) translate(0,-256)" /><path d="M483.31300354003906 113.218994140625Q483.31300354003906 130.218994140625 470.31300354003906 143.218994140625Q457.31300354003906 156.218994140625 439.31300354003906 156.218994140625Q420.31300354003906 156.218994140625 407.31300354003906 143.218994140625Q394.31300354003906 130.218994140625 394.31300354003906 113.218994140625Q394.31300354003906 95.218994140625 407.31300354003906 82.218994140625Q420.31300354003906 69.218994140625 439.31300354003906 69.218994140625Q457.31300354003906 69.218994140625 470.31300354003906 82.218994140625Q483.31300354003906 95.218994140625 483.31300354003906 113.218994140625Z" fill="#000000" stroke="none" transform="scale(1,-1) translate(0,-256)" /><path d="M394.31199645996094 113.093994140625Q394.31199645996094 95.093994140625 407.31199645996094 82.593994140625Q420.31199645996094 70.093994140625 438.31199645996094 69.093994140625Q461.31199645996094 68.093994140625 472.81199645996094 82.593994140625Q484.31199645996094 97.093994140625 484.31199645996094 115.093994140625Q484.31199645996094 133.093994140625 469.81199645996094 145.093994140625Q455.31199645996094 157.093994140625 436.31199645996094 156.093994140625Q418.31199645996094 155.093994140625 406.31199645996094 143.093994140625Q394.31199645996094 131.093994140625 394.31199645996094 113.093994140625Z" fill="#000000" stroke="none" transform="scale(1,-1) translate(0,-256)" /><path d="M565.8119964599609 -119.75Q565.8119964599609 -102.75 552.8119964599609 -89.75Q539.8119964599609 -76.75 521.8119964599609 -76.75Q502.81199645996094 -76.75 489.81199645996094 -89.75Q476.81199645996094 -102.75 476.81199645996094 -119.75Q476.81199645996094 -137.75 489.81199645996094 -150.75Q502.81199645996094 -163.75 521.8119964599609 -163.75Q539.8119964599609 -163.75 552.8119964599609 -150.75Q565.8119964599609 -137.75 565.8119964599609 -119.75Z" fill="#000000" stroke="none" transform="scale(1,-1) translate(0,-256)" /><path d="M476.81199645996094 -119.968994140625Q476.81199645996094 -137.968994140625 489.81199645996094 -150.468994140625Q502.81199645996094 -162.968994140625 520.8119964599609 -163.968994140625Q543.8119964599609 -164.968994140625 555.3119964599609 -150.468994140625Q566.8119964599609 -135.968994140625 566.8119964599609 -117.968994140625Q566.8119964599609 -99.968994140625 552.3119964599609 -87.968994140625Q537.8119964599609 -75.968994140625 518.8119964599609 -76.968994140625Q500.81199645996094 -77.968994140625 488.81199645996094 -89.968994140625Q476.81199645996094 -101.968994140625 476.81199645996094 -119.968994140625Z" fill="#000000" stroke="none" transform="scale(1,-1) translate(0,-256)" /></svg>