<?xml version="1.0" encoding="utf-8" ?>
<svg baseProfile="full" height="256" version="1.1" width="256" xmlns="http://www.w3.org/2000/svg" xmlns:ev="http://www.w3.org/2001/xml-events" xmlns:xlink="http://www.w3.org/1999/xlink"><defs /><path d="M637 713Q733 712 797.0 702.0Q861 692 900.5 678.5Q940 665 960.0 651.0Q980 637 986.5 628.0Q993 619 993 619Q993 619 988.0 584.0Q983 549 975.0 491.0Q967 433 956.5 362.5Q946 292 935.5 219.5Q925 147 916.0 83.0Q907 19 900.5 -25.5Q894 -70 892 -83Q887 -115 852.5 -144.0Q818 -173 762.0 -191.5Q706 -210 637 -210Q568 -210 512.0 -191.5Q456 -173 421.0 -144.0Q386 -115 382 -83Q380 -70 373.5 -25.0Q367 20 358.0 84.0Q349 148 338.5 221.0Q328 294 318.0 365.0Q308 436 299.5 494.5Q291 553 286.0 588.0Q281 623 281 623Q281 623 288.0 632.0Q295 641 314.5 654.0Q334 667 373.0 680.0Q412 693 476.5 702.5Q541 712 637 713Z" fill="#bae2fd" stroke="none" transform="scale(1,-1) translate(0,-256)" /></svg>