<?xml version="1.0" encoding="utf-8" ?>
<svg baseProfile="full" height="256" version="1.1" width="256" xmlns="http://www.w3.org/2000/svg" xmlns:ev="http://www.w3.org/2001/xml-events" xmlns:xlink="http://www.w3.org/1999/xlink"><defs /><path d="M678 778V640Q678 640 670.0 634.0Q662 628 638 628Q613 628 605.0 634.0Q597 640 597 640V778Z" fill="#9e740b" stroke="none" transform="scale(1,-1) translate(0,-256)" /><path d="M759 774 755 728Q737 703 637 703Q587 703 556.5 710.0Q526 717 519 728L516 774Q527 776 547.5 778.0Q568 780 591.0 781.0Q614 782 631 782Q631 782 647.5 782.0Q664 782 687.5 781.0Q711 780 731.0 778.5Q751 777 759 774Z" fill="#9e740b" stroke="none" transform="scale(1,-1) translate(0,-256)" /></svg>