<?xml version="1.0" encoding="utf-8" ?>
<svg baseProfile="full" height="256" version="1.1" width="256" xmlns="http://www.w3.org/2000/svg" xmlns:ev="http://www.w3.org/2001/xml-events" xmlns:xlink="http://www.w3.org/1999/xlink"><defs /><path d="M1158 106Q1158 126 1117.5 144.0Q1077 162 1005.5 175.5Q934 189 839.5 196.5Q745 204 638 204Q530 204 435.5 196.5Q341 189 269.5 175.5Q198 162 157.5 144.0Q117 126 117 106Q117 85 157.5 67.5Q198 50 269.5 36.5Q341 23 435.5 15.0Q530 7 638 7Q745 7 839.5 15.0Q934 23 1005.5 36.5Q1077 50 1117.5 67.5Q1158 85 1158 106Z" fill="#cc8552" stroke="none" transform="scale(1,-1) translate(0,-256)" /></svg>