<?xml version="1.0" encoding="utf-8" ?>
<svg baseProfile="full" height="256" version="1.1" width="256" xmlns="http://www.w3.org/2000/svg" xmlns:ev="http://www.w3.org/2001/xml-events" xmlns:xlink="http://www.w3.org/1999/xlink"><defs /><path d="M128 126Q136 133 181.5 138.5Q227 144 299.0 147.5Q371 151 458.5 152.5Q546 154 639.0 154.0Q732 154 819.5 152.5Q907 151 978.5 147.5Q1050 144 1095.0 138.5Q1140 133 1147 126Q1163 109 1175.0 79.0Q1187 49 1194.0 15.5Q1201 -18 1203 -44Q1194 -61 1144.0 -78.5Q1094 -96 1015.0 -110.5Q936 -125 839.0 -133.5Q742 -142 640 -142Q538 -142 440.5 -133.5Q343 -125 263.5 -110.5Q184 -96 132.5 -78.5Q81 -61 72 -44Q74 -18 80.0 15.5Q86 49 98.0 79.0Q110 109 128 126Z" fill="#8b5738" stroke="none" transform="scale(1,-1) translate(0,-256)" /></svg>