<?xml version="1.0" encoding="utf-8" ?>
<svg baseProfile="full" height="256" version="1.1" width="256" xmlns="http://www.w3.org/2000/svg" xmlns:ev="http://www.w3.org/2001/xml-events" xmlns:xlink="http://www.w3.org/1999/xlink"><defs /><path d="M113 919Q131 924 145.5 910.5Q160 897 162 886Q163 884 168.0 847.0Q173 810 181.0 748.5Q189 687 199.0 608.5Q209 530 220.0 443.0Q231 356 242.0 269.5Q253 183 263.0 104.0Q273 25 281.0 -37.0Q289 -99 294.0 -136.5Q299 -174 299 -177Q300 -192 288.5 -203.5Q277 -215 259 -216Q242 -218 229.0 -211.5Q216 -205 213 -190Q213 -187 208.0 -150.5Q203 -114 195.5 -53.0Q188 8 178.5 85.0Q169 162 158.0 247.5Q147 333 136.5 418.5Q126 504 116.5 581.5Q107 659 99.5 720.5Q92 782 87.0 819.5Q82 857 82 861Q79 881 86.5 897.5Q94 914 113 919Z" fill="#b0b0b0" stroke="none" transform="scale(1,-1) translate(0,-256)" /></svg>