<?xml version="1.0" encoding="utf-8" ?>
<svg baseProfile="full" height="256" version="1.1" width="256" xmlns="http://www.w3.org/2000/svg" xmlns:ev="http://www.w3.org/2001/xml-events" xmlns:xlink="http://www.w3.org/1999/xlink"><defs /><path d="M277 452Q271 452 267.0 471.5Q263 491 259.5 518.5Q256 546 252 571Q250 585 247.0 615.0Q244 645 240.5 681.5Q237 718 234.0 752.0Q231 786 229.5 809.0Q228 832 230 835Q232 841 249.0 845.0Q266 849 316 849Q366 849 413.0 838.5Q460 828 489 813Q508 802 507.5 792.0Q507 782 496.5 772.5Q486 763 474 755Q462 747 439.5 726.5Q417 706 392.0 676.5Q367 647 347 613Q326 579 313.5 542.0Q301 505 292.5 479.0Q284 453 277 452Z" fill="#ff5f5f" stroke="none" transform="scale(1,-1) translate(0,-256)" /><path d="M599 458Q598 462 610.5 479.5Q623 497 637.5 517.5Q652 538 660 550Q671 568 693.0 607.0Q715 646 765 706Q791 736 823.0 755.0Q855 774 885.0 784.0Q915 794 935.0 797.5Q955 801 955 801Q955 801 942.5 788.5Q930 776 911.0 757.0Q892 738 871 716Q850 695 835.0 669.0Q820 643 804.5 615.5Q789 588 767 563Q746 539 718.0 519.0Q690 499 663.0 484.0Q636 469 617.5 462.0Q599 455 599 458Z" fill="#ff5f5f" stroke="none" transform="scale(1,-1) translate(0,-256)" /></svg>