<?xml version="1.0" encoding="utf-8" ?>
<svg baseProfile="full" height="256" version="1.1" width="256" xmlns="http://www.w3.org/2000/svg" xmlns:ev="http://www.w3.org/2001/xml-events" xmlns:xlink="http://www.w3.org/1999/xlink"><defs /><path d="M156 876Q156 876 182.5 883.0Q209 890 254.5 896.5Q300 903 359.0 903.0Q418 903 482 888Q523 879 550.0 862.5Q577 846 599.5 826.5Q622 807 649.0 791.0Q676 775 717 768Q739 764 775.0 775.5Q811 787 855.0 805.0Q899 823 945.5 838.5Q992 854 1035 859Q1084 864 1118.0 855.5Q1152 847 1170.0 837.5Q1188 828 1188 828Q1188 828 1167.5 827.0Q1147 826 1118.0 819.0Q1089 812 1061 792Q1012 757 975.0 711.0Q938 665 892 611Q861 575 822.0 540.0Q783 505 742.5 476.0Q702 447 668 429Q633 412 580.5 398.0Q528 384 470.0 369.5Q412 355 361 338Q318 322 290.0 304.0Q262 286 248.0 273.0Q234 260 234 260Z" fill="#fe2c23" stroke="none" transform="scale(1,-1) translate(0,-256)" /></svg>