<?xml version="1.0" encoding="utf-8" ?>
<svg baseProfile="full" height="256" version="1.1" width="256" xmlns="http://www.w3.org/2000/svg" xmlns:ev="http://www.w3.org/2001/xml-events" xmlns:xlink="http://www.w3.org/1999/xlink"><defs /><path d="M466 672Q467 679 483.5 686.5Q500 694 513 697Q527 700 547.0 700.0Q567 700 574 694Q581 688 579.0 680.5Q577 673 572 671Q567 669 560.5 671.0Q554 673 535 670Q516 667 504.5 659.5Q493 652 486 652Q479 652 472.5 657.5Q466 663 466 672Z" fill="#fdfffe" stroke="none" transform="scale(1,-1) translate(0,-256)" /><path d="M719 687Q719 695 729.0 697.0Q739 699 752.5 698.0Q766 697 775 696Q790 693 804.5 685.5Q819 678 819 668Q820 659 809.0 657.0Q798 655 792 656Q786 656 783.0 660.0Q780 664 774 668Q768 671 759.0 672.0Q750 673 739 673Q719 673 719 687Z" fill="#fdfffe" stroke="none" transform="scale(1,-1) translate(0,-256)" /><path d="M344 475Q353 467 346.5 461.5Q340 456 331.0 446.5Q322 437 322 419Q323 391 345.0 377.0Q367 363 423 357Q453 354 480.0 359.5Q507 365 528.5 372.0Q550 379 563.5 381.5Q577 384 580 375Q584 360 568.0 346.0Q552 332 523.0 322.5Q494 313 461 310Q436 308 405.5 309.0Q375 310 346.5 320.0Q318 330 300 355Q281 380 282.5 401.5Q284 423 292.5 437.0Q301 451 305 455Q310 461 322.5 471.0Q335 481 344 475Z" fill="#fdfffe" stroke="none" transform="scale(1,-1) translate(0,-256)" /><path d="M704 373Q712 387 729.5 379.0Q747 371 785 365Q824 359 868.5 357.5Q913 356 944 378Q963 391 962.5 406.5Q962 422 954.5 437.0Q947 452 943.5 463.0Q940 474 953 477Q963 480 976.5 467.5Q990 455 998.0 433.0Q1006 411 1003.0 385.0Q1000 359 978 336Q955 313 922.0 306.0Q889 299 853.5 302.5Q818 306 786.5 314.5Q755 323 737 330Q711 341 704.0 352.5Q697 364 704 373Z" fill="#fdfffe" stroke="none" transform="scale(1,-1) translate(0,-256)" /><path d="M700 311Q708 320 721.5 314.5Q735 309 750.0 298.0Q765 287 778 281Q791 274 815.5 264.5Q840 255 872.0 249.5Q904 244 938 250Q964 255 973.0 267.0Q982 279 982.5 291.5Q983 304 983.5 313.0Q984 322 995 320Q1009 319 1014.5 302.0Q1020 285 1016.0 262.5Q1012 240 996.5 221.0Q981 202 952 195Q897 183 850.0 196.0Q803 209 761 233Q719 257 706.0 280.0Q693 303 700 311Z" fill="#fdfffe" stroke="none" transform="scale(1,-1) translate(0,-256)" /><path d="M697 255Q705 261 719.5 244.5Q734 228 756 208Q777 187 801.5 166.0Q826 145 850 130Q870 118 880.5 113.5Q891 109 896 101Q901 92 902.0 78.5Q903 65 897 63Q890 61 869.5 68.5Q849 76 826 92Q803 109 783.5 126.5Q764 144 764 144Q764 144 773.0 125.5Q782 107 798.0 79.5Q814 52 833 27Q859 -9 873.0 -22.5Q887 -36 892.5 -42.5Q898 -49 898 -63Q898 -76 873.5 -71.5Q849 -67 807 -20Q783 7 763.5 40.5Q744 74 730.0 107.0Q716 140 707.5 165.0Q699 190 696 199Q688 224 688.0 236.0Q688 248 697 255Z" fill="#fdfffe" stroke="none" transform="scale(1,-1) translate(0,-256)" /><path d="M909 64Q902 68 900.5 84.0Q899 100 908 104Q915 108 925.0 107.5Q935 107 947.0 111.0Q959 115 972 129Q984 143 989.5 161.0Q995 179 998.0 193.0Q1001 207 1005 209Q1011 211 1016.5 200.5Q1022 190 1022 173Q1022 148 1016.0 125.5Q1010 103 980 80Q961 65 937.5 62.5Q914 60 909 64Z" fill="#fdfffe" stroke="none" transform="scale(1,-1) translate(0,-256)" /><path d="M906 -48Q911 -42 918.5 -42.5Q926 -43 936.5 -42.0Q947 -41 961 -31Q972 -24 976.5 -9.0Q981 6 983.5 21.5Q986 37 988.5 48.5Q991 60 998 61Q1005 61 1008.5 48.0Q1012 35 1012.0 15.5Q1012 -4 1007.5 -24.0Q1003 -44 994 -58Q982 -75 963.5 -80.5Q945 -86 929.0 -85.0Q913 -84 910 -80Q906 -74 904.5 -63.0Q903 -52 906 -48Z" fill="#fdfffe" stroke="none" transform="scale(1,-1) translate(0,-256)" /><path d="M279 342Q291 344 296.0 327.5Q301 311 307 291Q314 270 331.5 258.5Q349 247 382 245Q405 244 436.0 254.5Q467 265 494.5 278.5Q522 292 533 298Q550 307 563.0 310.0Q576 313 581 306Q587 298 577.5 285.0Q568 272 558 264Q552 258 528.0 240.5Q504 223 467.5 207.0Q431 191 387 189Q332 186 303.5 209.0Q275 232 269 259Q266 274 265.5 293.0Q265 312 268.0 326.5Q271 341 279 342Z" fill="#fdfffe" stroke="none" transform="scale(1,-1) translate(0,-256)" /><path d="M582 250Q590 246 588.5 227.5Q587 209 580.5 185.0Q574 161 566 140Q555 108 537.0 71.0Q519 34 490 -5Q462 -45 435.0 -63.0Q408 -81 394 -86Q385 -89 381.5 -84.0Q378 -79 378.0 -73.5Q378 -68 378 -68Q378 -68 379.5 -59.0Q381 -50 390 -38Q396 -30 402.0 -26.0Q408 -22 419.5 -12.5Q431 -3 454 23Q478 52 493.0 80.5Q508 109 514.5 128.5Q521 148 521 148Q521 148 508.0 134.5Q495 121 482 111Q473 105 458.0 94.0Q443 83 428.5 75.5Q414 68 407 70Q401 72 399.0 84.5Q397 97 400 105Q403 114 414.0 118.5Q425 123 437 132Q454 144 475.5 163.0Q497 182 515.5 199.5Q534 217 542 226Q554 238 563.5 245.5Q573 253 582 250Z" fill="#fdfffe" stroke="none" transform="scale(1,-1) translate(0,-256)" /><path d="M282 211Q290 207 288.0 194.0Q286 181 294 151Q301 127 320.0 118.0Q339 109 350 106Q360 104 373.0 101.5Q386 99 387 81Q387 63 372.5 61.0Q358 59 330 66Q307 73 286.5 89.5Q266 106 259 142Q251 177 261.0 196.5Q271 216 282 211Z" fill="#fdfffe" stroke="none" transform="scale(1,-1) translate(0,-256)" /></svg>