<?xml version="1.0" encoding="utf-8" ?>
<svg baseProfile="full" height="256" version="1.1" width="256" xmlns="http://www.w3.org/2000/svg" xmlns:ev="http://www.w3.org/2001/xml-events" xmlns:xlink="http://www.w3.org/1999/xlink"><defs /><path d="M477 411 478 450 569 447Q569 447 574.5 432.0Q580 417 587.5 395.0Q595 373 602.5 351.5Q610 330 614 318Q614 318 621.5 301.0Q629 284 639.5 262.0Q650 240 658 226Q658 226 672.5 216.5Q687 207 699.5 192.5Q712 178 708 162Q708 149 700.0 133.0Q692 117 675 124Q669 124 661.5 135.0Q654 146 647.0 157.0Q640 168 634 167Q631 166 627.5 158.5Q624 151 619.0 145.0Q614 139 606 145Q598 161 604.0 176.0Q610 191 610 191Z" fill="#000000" stroke="none" transform="scale(1,-1) translate(0,-256)" /><path d="M299.843994140625 443.0 296.843994140625 405.0 154.843994140625 206.0 148.843994140625 166.0Q148.843994140625 166.0 141.343994140625 154.0Q133.843994140625 142.0 131.843994140625 141.0Q126.843994140625 138.0 121.843994140625 140.0Q116.843994140625 142.0 117.843994140625 151.0Q117.843994140625 159.0 120.843994140625 166.5Q123.843994140625 174.0 119.843994140625 175.0Q113.843994140625 176.0 111.343994140625 166.5Q108.843994140625 157.0 106.343994140625 145.5Q103.843994140625 134.0 97.843994140625 128.0Q89.843994140625 121.0 79.343994140625 129.0Q68.843994140625 137.0 65.843994140625 141.0Q63.843994140625 146.0 62.343994140625 157.5Q60.843994140625 169.0 66.843994140625 189.0Q70.843994140625 207.0 76.343994140625 215.5Q81.843994140625 224.0 94.843994140625 238.0Q103.843994140625 251.0 117.343994140625 271.5Q130.843994140625 292.0 141.843994140625 307.5Q152.843994140625 323.0 152.843994140625 323.0Q157.843994140625 335.0 167.343994140625 355.5Q176.843994140625 376.0 186.343994140625 397.5Q195.843994140625 419.0 202.343994140625 433.5Q208.843994140625 448.0 208.843994140625 448.0Z" fill="#000000" stroke="none" transform="scale(1,-1) translate(0,-256)" /></svg>