<?xml version="1.0" encoding="utf-8" ?>
<svg baseProfile="full" height="256" version="1.1" width="256" xmlns="http://www.w3.org/2000/svg" xmlns:ev="http://www.w3.org/2001/xml-events" xmlns:xlink="http://www.w3.org/1999/xlink"><defs /><path d="M525 379Q525 379 522.0 388.5Q519 398 515.5 408.5Q512 419 510 424L631 550Q634 550 639.5 550.0Q645 550 648 550L796 393L763 345Q763 345 756.0 363.0Q749 381 734.5 405.0Q720 429 698.0 447.5Q676 466 646 468Q623 470 601.0 456.5Q579 443 562.0 425.0Q545 407 535.0 393.0Q525 379 525 379Z" fill="#874d36" stroke="none" transform="scale(1,-1) translate(0,-256)" /><path d="M708 269Q708 269 690.0 278.5Q672 288 629 288Q613 288 595.5 284.5Q578 281 566 271L561 262Q578 252 596.5 246.5Q615 241 634 242Q653 242 670.5 246.0Q688 250 708 261Z" fill="#874d36" stroke="none" transform="scale(1,-1) translate(0,-256)" /></svg>