<?xml version="1.0" encoding="utf-8" ?>
<svg baseProfile="full" height="256" version="1.1" width="256" xmlns="http://www.w3.org/2000/svg" xmlns:ev="http://www.w3.org/2001/xml-events" xmlns:xlink="http://www.w3.org/1999/xlink"><defs /><path d="M638 771Q760 771 857.0 755.5Q954 740 1024.0 718.0Q1094 696 1135 678Q1161 666 1176.5 642.5Q1192 619 1192 590V-134Q1192 -162 1172.5 -181.5Q1153 -201 1125 -201H638H150Q122 -201 102.5 -181.5Q83 -162 83 -134V590Q83 619 98.5 642.5Q114 666 140 678Q181 696 251.0 718.0Q321 740 418.0 755.5Q515 771 638 771Z" fill="#bae2fd" stroke="none" transform="scale(1,-1) translate(0,-256)" /><path d="M946 830Q977 801 993.0 772.0Q1009 743 1017 720Q999 746 976.5 772.0Q954 798 927 814Q923 816 913.5 822.0Q904 828 893.0 827.5Q882 827 874 810Q864 790 856.5 773.5Q849 757 836 738Q816 708 787.0 678.5Q758 649 728.5 623.0Q699 597 675.5 579.0Q652 561 642 554Q637 551 633 554Q623 561 600.0 578.5Q577 596 548.0 621.5Q519 647 490.0 677.0Q461 707 439 738Q425 758 418.0 774.0Q411 790 401 810Q393 827 382.0 827.5Q371 828 361.5 822.0Q352 816 348 814Q321 798 298.5 772.0Q276 746 258 720Q266 743 282.0 772.0Q298 801 329 830Q351 852 373.0 869.0Q395 886 425 894Q453 901 481.0 904.5Q509 908 537 909Q562 911 587.0 912.0Q612 913 638 913Q663 913 688.0 912.0Q713 911 738 910Q766 908 794.0 904.5Q822 901 850 894Q880 886 902.0 869.0Q924 852 946 830ZM813 736Q822 752 811.0 758.5Q800 765 792 766Q792 766 749.5 771.0Q707 776 638 777Q568 776 525.5 771.0Q483 766 483 766Q475 765 464.0 758.5Q453 752 463 736Q467 728 485.0 709.0Q503 690 528.0 665.5Q553 641 581.5 617.5Q610 594 635 577Q637 576 640 577Q665 594 693.5 617.5Q722 641 747.0 665.5Q772 690 790.0 709.0Q808 728 813 736Z" fill="#bae2fd" stroke="none" transform="scale(1,-1) translate(0,-256)" /></svg>