<?xml version="1.0" encoding="utf-8" ?>
<svg baseProfile="full" height="256" version="1.1" width="256" xmlns="http://www.w3.org/2000/svg" xmlns:ev="http://www.w3.org/2001/xml-events" xmlns:xlink="http://www.w3.org/1999/xlink"><defs /><path d="M1001 756Q1021 730 1026.0 697.5Q1031 665 1021 634L899 363Q893 343 871.0 338.5Q849 334 833 350L639 550L445 350Q429 334 407.0 338.5Q385 343 379 363L257 634Q247 665 252.0 697.5Q257 730 277 756Q277 756 291.5 772.5Q306 789 327.5 807.5Q349 826 372 833Q390 838 397.5 829.5Q405 821 413.5 798.0Q422 775 445 738Q459 715 485.5 688.0Q512 661 542.5 635.5Q573 610 599.5 589.5Q626 569 639 558Q652 569 678.5 589.5Q705 610 735.5 635.5Q766 661 792.5 688.0Q819 715 833 738Q856 775 864.5 798.0Q873 821 880.5 829.5Q888 838 906 833Q929 826 950.5 807.5Q972 789 986.5 772.5Q1001 756 1001 756Z" fill="#e8f6ff" stroke="none" transform="scale(1,-1) translate(0,-256)" /></svg>