<?xml version="1.0" encoding="utf-8" ?>
<svg baseProfile="full" height="256" version="1.1" width="256" xmlns="http://www.w3.org/2000/svg" xmlns:ev="http://www.w3.org/2001/xml-events" xmlns:xlink="http://www.w3.org/1999/xlink"><defs /><path d="M567 268Q567 268 559.5 287.0Q552 306 542.0 333.0Q532 360 522.5 386.5Q513 413 510 429L639 558L800 400Q790 383 774.5 361.5Q759 340 743.5 319.5Q728 299 718.0 284.0Q708 269 708 265Q708 259 719.5 239.5Q731 220 747.0 191.0Q763 162 777.0 126.5Q791 91 794 53Q797 25 799.0 -15.5Q801 -56 803.0 -96.0Q805 -136 805.5 -163.0Q806 -190 806 -190Q806 -190 805.0 -195.5Q804 -201 795.0 -206.5Q786 -212 761 -212Q745 -212 710.5 -212.0Q676 -212 637.0 -212.0Q598 -212 564.5 -212.0Q531 -212 516 -212Q491 -212 482.0 -206.5Q473 -201 472.5 -195.5Q472 -190 472 -190Q472 -190 473.0 -170.0Q474 -150 475.0 -118.5Q476 -87 478.0 -51.5Q480 -16 482.0 15.5Q484 47 486 65Q490 107 502.5 144.0Q515 181 530.0 209.0Q545 237 556.0 252.5Q567 268 567 268Z" fill="#de7340" stroke="none" transform="scale(1,-1) translate(0,-256)" /></svg>