<?xml version="1.0" encoding="utf-8" ?>
<svg baseProfile="full" height="256" version="1.1" width="256" xmlns="http://www.w3.org/2000/svg" xmlns:ev="http://www.w3.org/2001/xml-events" xmlns:xlink="http://www.w3.org/1999/xlink"><defs /><path d="M401 351 622 564 663 563Q663 563 680.5 549.5Q698 536 725.5 513.5Q753 491 783.0 465.5Q813 440 838.5 415.0Q864 390 878.0 371.5Q892 353 886 345Q871 326 845.5 329.5Q820 333 789.5 349.5Q759 366 730.0 386.0Q701 406 680.5 421.0Q660 436 653 436Q647 436 627.5 426.5Q608 417 582.0 403.0Q556 389 529.0 375.0Q502 361 479.0 350.5Q456 340 445 338Q418 333 409.5 337.0Q401 341 401.0 346.0Q401 351 401 351Z" fill="#77abc0" stroke="none" transform="scale(1,-1) translate(0,-256)" /><path d="M825 740Q835 757 823.0 764.0Q811 771 803 772Q803 772 757.5 777.5Q712 783 638 784Q563 783 517.5 777.5Q472 772 472 772Q464 771 452.0 764.0Q440 757 450 740Q455 732 474.0 711.5Q493 691 520.0 665.0Q547 639 577.5 613.5Q608 588 635 570Q638 568 640 570Q668 588 698.0 613.5Q728 639 755.0 665.0Q782 691 801.0 711.5Q820 732 825 740Z" fill="#77abc0" stroke="none" transform="scale(1,-1) translate(0,-256)" /></svg>