<?xml version="1.0" encoding="utf-8" ?>
<svg baseProfile="full" height="256" version="1.1" width="256" xmlns="http://www.w3.org/2000/svg" xmlns:ev="http://www.w3.org/2001/xml-events" xmlns:xlink="http://www.w3.org/1999/xlink"><defs /><path d="M630 54Q612 68 608.5 90.5Q605 113 615.0 135.5Q625 158 647 173L514 166Q547 159 556.0 151.0Q565 143 566 130Q568 118 565.5 100.0Q563 82 553 73Q543 64 526.5 56.0Q510 48 510 48Q510 48 522.0 50.0Q534 52 550.5 54.0Q567 56 582 57Q604 57 617.0 55.5Q630 54 630 54Z" fill="#f07371" stroke="none" transform="scale(1,-1) translate(0,-256)" /><path d="M1035 336Q1062 340 1087 356Q1113 372 1133.0 397.5Q1153 423 1150 456Q1149 470 1144.5 483.0Q1140 496 1133 508Q1135 469 1118.5 434.0Q1102 399 1069 378Q1055 370 1032.5 364.5Q1010 359 986 375Q976 381 967 374Q962 369 962.5 361.0Q963 353 969 349Q1000 331 1035 336Z" fill="#f07371" stroke="none" transform="scale(1,-1) translate(0,-256)" /><path d="M1136 292Q1145 292 1154 295Q1167 297 1164.5 310.0Q1162 323 1149 322Q1145 322 1142.0 319.5Q1139 317 1134 317Q1128 316 1121.5 320.5Q1115 325 1112 329Q1100 345 1107 363Q1109 367 1111.5 372.0Q1114 377 1113 382Q1106 384 1098.5 382.5Q1091 381 1084 379Q1053 366 1037 337Q1043 336 1048.5 338.0Q1054 340 1060 341Q1075 342 1082 327Q1086 319 1091.0 312.5Q1096 306 1104 301Q1112 296 1120.0 294.0Q1128 292 1136 292Z" fill="#f07371" stroke="none" transform="scale(1,-1) translate(0,-256)" /><path d="M971 640Q1013 645 1034.5 639.5Q1056 634 1067.0 624.0Q1078 614 1088 605Q1088 605 1084.0 615.5Q1080 626 1074 633Q1068 640 1058.5 649.0Q1049 658 1034 664Q997 679 961 666Q955 664 952.5 658.0Q950 652 953 646Q958 638 971 640Z" fill="#f07371" stroke="none" transform="scale(1,-1) translate(0,-256)" /><path d="M881 658Q891 658 896.0 650.0Q901 642 898.0 635.5Q895 629 881 630Q867 631 868.0 631.0Q869 631 874.5 630.5Q880 630 880 630Q856 630 834 638Q825 641 816.0 644.5Q807 648 798 639Q796 636 793.5 632.5Q791 629 788 626Q780 618 774 624Q770 627 770.5 632.5Q771 638 773 643Q779 664 768 684Q758 705 732.5 715.0Q707 725 686 728Q674 730 674 743Q675 756 685.5 756.0Q696 756 708.5 751.0Q721 746 727 744Q736 741 746.5 740.0Q757 739 767 743Q780 748 789.0 756.5Q798 765 812 769Q824 773 837.5 773.5Q851 774 864 773Q883 772 897.5 764.0Q912 756 921.0 748.5Q930 741 930 741Q916 743 894.0 747.0Q872 751 850.0 750.5Q828 750 814.5 740.5Q801 731 805 706Q808 678 832.0 668.0Q856 658 880 658Q880 658 876.0 658.0Q872 658 871.5 658.0Q871 658 881 658Z" fill="#f07371" stroke="none" transform="scale(1,-1) translate(0,-256)" /><path d="M430 689Q441 679 452.5 674.5Q464 670 475.0 660.5Q486 651 495 626Q498 617 490 612Q480 605 473 616Q458 643 442.5 652.5Q427 662 407 667Q388 672 365.5 668.5Q343 665 326 658Q315 652 308 663Q305 668 306.5 674.0Q308 680 314 683Q344 697 380 695Q385 695 388.0 698.5Q391 702 391 707Q387 725 390.5 742.0Q394 759 407 769Q423 781 437.5 783.5Q452 786 452 786Q430 771 423.0 751.0Q416 731 419.0 713.5Q422 696 430 689Z" fill="#f07371" stroke="none" transform="scale(1,-1) translate(0,-256)" /><path d="M488 520Q492 507 479 502Q470 499 461.5 496.5Q453 494 444 494Q436 494 429.0 494.0Q422 494 415 487Q408 482 407.5 475.5Q407 469 404 461Q402 455 397.5 448.5Q393 442 389 436Q384 432 377.5 432.0Q371 432 367 438Q360 447 368 456Q382 470 382.5 489.0Q383 508 377 523Q371 541 359.5 555.5Q348 570 335 574Q327 576 326 585Q325 593 330.5 597.5Q336 602 344 600Q361 594 374.0 583.5Q387 573 401 539Q412 528 433.0 526.0Q454 524 471 529Q484 533 488 520Z" fill="#f07371" stroke="none" transform="scale(1,-1) translate(0,-256)" /><path d="M201 393Q228 393 250.5 405.5Q273 418 281 439Q287 453 284.5 468.0Q282 483 274 497Q268 507 254.5 519.5Q241 532 231.5 546.0Q222 560 229 575Q230 578 232.0 581.0Q234 584 234 587Q236 598 227.0 596.5Q218 595 213 592Q204 585 202 571Q199 559 202.5 545.5Q206 532 214 524Q223 515 235.0 503.0Q247 491 254.0 477.0Q261 463 255 449Q250 435 232.0 427.0Q214 419 194 421Q186 422 169.5 429.0Q153 436 136.5 459.5Q120 483 113 534Q113 534 110.0 511.0Q107 488 115 462Q122 436 140.5 416.0Q159 396 191 393Q196 393 201 393Z" fill="#f07371" stroke="none" transform="scale(1,-1) translate(0,-256)" /><path d="M215 398Q215 398 207.5 402.0Q200 406 192.0 410.0Q184 414 183 415Q179 416 174.0 415.0Q169 414 165 413Q162 412 161 411Q160 408 163 404Q174 391 174.5 377.0Q175 363 175 347Q175 314 188 285Q190 279 196.5 277.0Q203 275 208 279Q218 285 213 296Q197 338 203.0 359.0Q209 380 223.0 388.5Q237 397 247 403Q247 404 243.5 405.0Q240 406 240 407Q241 413 233 413Q227 412 222.5 409.0Q218 406 213 404Q202 399 191 400Z" fill="#f07371" stroke="none" transform="scale(1,-1) translate(0,-256)" /><path d="M1027 265Q1071 259 1090.0 230.0Q1109 201 1108 173Q1108 169 1103.5 164.0Q1099 159 1092.5 159.5Q1086 160 1080 174Q1074 188 1068.5 205.5Q1063 223 1048.5 232.5Q1034 242 1002 231Q989 227 976.0 220.0Q963 213 954 203Q942 190 934.5 174.5Q927 159 913 148Q897 136 883 142Q881 143 880 144Q877 148 883 153Q893 164 901.5 177.5Q910 191 908 205Q907 210 905 212Q900 219 885.0 227.0Q870 235 861 236Q847 236 833.5 230.5Q820 225 807 221Q793 217 777.5 210.5Q762 204 759 188Q757 179 759.5 169.5Q762 160 766 152Q770 144 775.5 137.0Q781 130 786 122Q789 117 789 113Q789 106 781 104Q775 103 767 106Q757 111 750.0 119.5Q743 128 739 137Q734 147 731.5 157.5Q729 168 726 179Q724 184 722.0 189.0Q720 194 716 197Q710 202 702.0 201.5Q694 201 687 198Q673 193 659.5 183.5Q646 174 630 159Q619 148 606.0 151.5Q593 155 577 155Q565 155 557.5 156.5Q550 158 535 161Q532 162 522.0 165.5Q512 169 502.0 171.5Q492 174 488 173Q484 172 479.5 170.0Q475 168 471 168Q466 167 461.0 167.0Q456 167 456 171Q456 173 457.0 174.5Q458 176 458 177Q460 183 462.0 189.0Q464 195 452 207Q447 211 443.0 216.0Q439 221 438 228Q437 235 443.0 240.0Q449 245 456 244Q460 243 462 241Q464 239 464.5 236.5Q465 234 467 232Q498 206 529.5 197.5Q561 189 586.5 192.0Q612 195 624 202Q649 215 663.0 240.0Q677 265 673 289Q671 297 665.5 304.0Q660 311 660 319Q660 326 665 331Q670 334 678 333Q693 332 698.5 318.0Q704 304 707 292Q724 258 755 250Q776 245 798.5 252.5Q821 260 837 278Q846 287 851.5 298.0Q857 309 861 321Q865 334 863.0 348.0Q861 362 858 375Q857 379 856.5 383.5Q856 388 859 392Q864 400 874 397Q882 394 886 385Q893 370 893.5 353.5Q894 337 891 321Q887 305 887.0 290.5Q887 276 897 263Q908 248 924 245Q938 242 948.0 248.0Q958 254 969 259Q983 264 998.0 265.0Q1013 266 1027 265Z" fill="#f07371" stroke="none" transform="scale(1,-1) translate(0,-256)" /><path d="M434 117Q443 116 447 125Q454 141 471 152Q483 161 500.5 164.5Q518 168 530 164L525 188Q488 199 455 175Q431 159 422 136Q419 129 422.5 123.0Q426 117 434 117Z" fill="#f07371" stroke="none" transform="scale(1,-1) translate(0,-256)" /><path d="M533 529Q528 529 527 532Q527 533 528 536Q531 544 537.0 549.5Q543 555 548 562Q560 577 568 596Q576 613 579.5 632.5Q583 652 580 672Q575 705 547 724Q537 730 542 742Q545 747 551.0 749.0Q557 751 562 747Q577 738 591.5 720.5Q606 703 608 685Q608 683 608.0 680.5Q608 678 609 675Q611 670 617.0 667.5Q623 665 629 665Q656 664 683.5 647.5Q711 631 714 601Q715 592 711.5 579.5Q708 567 694 555Q689 551 682.5 552.0Q676 553 672 558Q666 568 675 576Q680 581 683.5 586.5Q687 592 686 598Q685 608 674.5 619.5Q664 631 648 634Q623 639 609.5 624.0Q596 609 591.5 584.0Q587 559 590.5 534.5Q594 510 602 496Q607 488 620.5 482.0Q634 476 644 474Q644 474 631.5 472.5Q619 471 604 466Q589 462 580.0 458.0Q571 454 571 454Q577 466 573.5 476.5Q570 487 566 494Q561 503 555.5 513.0Q550 523 553 533Q543 529 533 529Z" fill="#f07371" stroke="none" transform="scale(1,-1) translate(0,-256)" /></svg>