<?xml version="1.0" encoding="utf-8" ?>
<svg baseProfile="full" height="256" version="1.1" width="256" xmlns="http://www.w3.org/2000/svg" xmlns:ev="http://www.w3.org/2001/xml-events" xmlns:xlink="http://www.w3.org/1999/xlink"><defs /><path d="M1072 62Q1072 62 1056.5 63.0Q1041 64 1017 70Q994 75 978.0 82.0Q962 89 946 84Q931 79 936.5 70.0Q942 61 945 59Q957 52 970.5 47.5Q984 43 998 40Q1030 33 1042.5 30.5Q1055 28 1055 28Q1055 28 1050.0 21.5Q1045 15 1042 11Q1013 14 984.0 21.0Q955 28 930 41Q901 55 874.5 71.0Q848 87 826 84Q813 82 818.5 71.0Q824 60 836 51Q855 38 876.0 26.0Q897 14 918 5Q940 -4 962.0 -12.0Q984 -20 1007 -26Q998 -33 989 -40Q989 -40 972.0 -34.0Q955 -28 928.5 -18.0Q902 -8 875 4Q852 15 828.5 30.5Q805 46 786.0 56.5Q767 67 757 63Q747 58 749.5 52.0Q752 46 753 41Q757 31 777.5 17.5Q798 4 820.5 -7.5Q843 -19 853 -24Q901 -46 929.5 -52.0Q958 -58 958 -58Q958 -58 940.0 -62.0Q922 -66 909 -67Q899 -67 872.0 -56.5Q845 -46 816 -31Q772 -8 751.0 11.0Q730 30 716 36Q710 38 704.0 38.5Q698 39 692 37Q680 31 682.5 20.5Q685 10 685 10Q671 22 653.5 42.5Q636 63 627 80Q626 80 622.5 87.5Q619 95 616.0 102.0Q613 109 614 109Q614 109 633.0 116.0Q652 123 677.0 132.5Q702 142 721.5 149.0Q741 156 742 156Q743 156 764.0 161.0Q785 166 816.0 173.5Q847 181 877.5 188.5Q908 196 928.5 201.0Q949 206 949 206L1056 168Q1057 146 1044 130Q1038 123 1030.0 117.5Q1022 112 1014 108Q1012 107 1008 105Q1025 98 1043.5 91.5Q1062 85 1078 80Q1077 77 1075.5 72.5Q1074 68 1072 62Z" fill="#b05353" stroke="none" transform="scale(1,-1) translate(0,-256)" /></svg>