<?xml version="1.0" encoding="utf-8" ?>
<svg baseProfile="full" height="256" version="1.1" width="256" xmlns="http://www.w3.org/2000/svg" xmlns:ev="http://www.w3.org/2001/xml-events" xmlns:xlink="http://www.w3.org/1999/xlink"><defs /><path d="M624 602Q618 602 617 598Q616 595 615.0 592.5Q614 590 614 590Q620 585 627.0 582.5Q634 580 634 580L632 596Q631 602 624 602Z" fill="#fff8e1" stroke="none" transform="scale(1,-1) translate(0,-256)" /><path d="M682.9709930419922 601.9929962158203Q688.9709930419922 601.9929962158203 689.9709930419922 597.9929962158203Q690.9709930419922 594.9929962158203 691.9709930419922 592.4929962158203Q692.9709930419922 589.9929962158203 692.9709930419922 589.9929962158203Q686.9709930419922 584.9929962158203 679.9709930419922 582.4929962158203Q672.9709930419922 579.9929962158203 672.9709930419922 579.9929962158203L674.9709930419922 595.9929962158203Q675.9709930419922 601.9929962158203 682.9709930419922 601.9929962158203Z" fill="#fff8e1" stroke="none" transform="scale(1,-1) translate(0,-256)" /></svg>