<?xml version="1.0" encoding="utf-8" ?>
<svg baseProfile="full" height="256" version="1.1" width="256" xmlns="http://www.w3.org/2000/svg" xmlns:ev="http://www.w3.org/2001/xml-events" xmlns:xlink="http://www.w3.org/1999/xlink"><defs /><path d="M412 323Q412 323 406.5 309.0Q401 295 391.0 275.0Q381 255 367.0 235.0Q353 215 336 203Q336 203 332.5 222.0Q329 241 328.5 272.0Q328 303 336.0 339.5Q344 376 366 411L331 385Q331 385 329.5 411.0Q328 437 336.5 480.0Q345 523 373 574Q385 595 396.5 606.5Q408 618 425 635Q443 654 466.5 668.0Q490 682 517 685Q541 688 565.5 678.5Q590 669 606 650Q620 631 618.0 607.0Q616 583 616 562Q616 516 603.5 477.0Q591 438 574.5 409.0Q558 380 545.5 364.5Q533 349 533 349Q533 349 532.0 358.0Q531 367 527.0 378.0Q523 389 515 396Q508 354 489.5 319.0Q471 284 423 248Q421 260 418.5 278.0Q416 296 414.0 309.5Q412 323 412 323Z" fill="#757575" stroke="none" transform="scale(1,-1) translate(0,-256)" /><path d="M412 323Q412 323 406.5 309.0Q401 295 391.0 275.0Q381 255 367.0 235.0Q353 215 336 203Q336 203 332.5 222.0Q329 241 328.5 272.0Q328 303 336.0 339.5Q344 376 366 411L331 385Q331 385 329.5 411.0Q328 437 336.5 480.0Q345 523 373 574Q385 595 396.5 606.5Q408 618 425 635Q443 654 466.5 670.0Q490 686 517 685Q545 685 564.0 670.0Q583 655 594.5 634.0Q606 613 611.0 593.0Q616 573 616 562Q616 516 603.5 477.0Q591 438 574.5 409.0Q558 380 545.5 364.5Q533 349 533 349Q533 349 532.0 358.0Q531 367 527.0 378.0Q523 389 515 396Q508 354 489.5 319.0Q471 284 423 248Q421 260 418.5 278.0Q416 296 414.0 309.5Q412 323 412 323Z" fill="#757575" stroke="none" transform="scale(1,-1) translate(0,-256)" /><path d="M840 347Q817 366 804.5 389.5Q792 413 786.5 431.0Q781 449 782 449Q774 434 767.0 419.5Q760 405 753 390Q731 419 724.0 455.0Q717 491 715 526Q714 532 714.5 561.0Q715 590 716.0 628.5Q717 667 718.0 704.0Q719 741 719.5 766.0Q720 791 720 791Q799 792 850.0 776.5Q901 761 926.0 746.0Q951 731 951 731L927 714Q960 710 985.5 702.0Q1011 694 1032 656H991Q1011 647 1029.5 636.0Q1048 625 1061.0 604.0Q1074 583 1079 544Q1069 548 1054.0 555.5Q1039 563 1039 563Q1046 541 1047.0 517.5Q1048 494 1047.0 478.0Q1046 462 1046 462L1004 501Q1004 501 1009.5 479.5Q1015 458 1018.0 423.0Q1021 388 1012 348Q1012 348 1002.5 355.5Q993 363 981.5 375.5Q970 388 964 404Q967 393 968.5 370.0Q970 347 970.5 320.5Q971 294 970.5 270.0Q970 246 968 232Q884 288 855 385Q851 376 847.5 366.5Q844 357 840 347Z" fill="#757575" stroke="none" transform="scale(1,-1) translate(0,-256)" /></svg>