<?xml version="1.0" encoding="utf-8" ?>
<svg baseProfile="full" height="256" version="1.1" width="256" xmlns="http://www.w3.org/2000/svg" xmlns:ev="http://www.w3.org/2001/xml-events" xmlns:xlink="http://www.w3.org/1999/xlink"><defs /><path d="M117 392Q126 385 136 392L470 632L738 719Q749 728 760.0 737.0Q771 746 782 754Q787 758 801.5 767.0Q816 776 833.0 787.0Q850 798 863.0 806.5Q876 815 877 818Q880 823 880.0 839.0Q880 855 879 860Q879 863 874.5 868.0Q870 873 870 876Q870 877 873.5 883.0Q877 889 873 893Q870 898 865.0 899.0Q860 900 857 900Q840 901 828.0 900.0Q816 899 798 900Q785 901 777.5 905.0Q770 909 756 909Q741 909 725.5 904.5Q710 900 708 900Q703 900 696.5 904.5Q690 909 679 909Q664 909 653 903Q644 898 622.0 881.5Q600 865 572.5 843.0Q545 821 519.5 800.0Q494 779 477.0 765.0Q460 751 460 751Q460 751 441.5 744.5Q423 738 401.5 729.0Q380 720 371 711Q366 707 345.0 684.5Q324 662 294.0 629.0Q264 596 231.5 560.5Q199 525 170.5 493.5Q142 462 124.0 442.5Q106 423 106 423Q101 418 101.5 411.5Q102 405 107 401Z" fill="#b7855f" stroke="none" transform="scale(1,-1) translate(0,-256)" /></svg>