<?xml version="1.0" encoding="utf-8" ?>
<svg baseProfile="full" height="256" version="1.1" width="256" xmlns="http://www.w3.org/2000/svg" xmlns:ev="http://www.w3.org/2001/xml-events" xmlns:xlink="http://www.w3.org/1999/xlink"><defs /><path d="M654 775Q755 769 825.0 739.0Q895 709 939.5 663.0Q984 617 1008.0 562.0Q1032 507 1041.0 450.5Q1050 394 1049.5 342.0Q1049 290 1044.5 250.0Q1040 210 1038 190L344 198Q344 210 341.5 248.5Q339 287 339.0 341.0Q339 395 346.0 456.0Q353 517 371.5 575.5Q390 634 425.0 681.0Q460 728 516.0 754.0Q572 780 654 775Z" fill="#a0c787" stroke="none" transform="scale(1,-1) translate(0,-256)" /><path d="M191 503 391 611Q391 611 393.5 591.5Q396 572 400.0 541.5Q404 511 408.0 476.5Q412 442 416.0 411.0Q420 380 422.5 360.5Q425 341 425 340Q425 339 415.0 327.5Q405 316 391.5 301.5Q378 287 368.0 275.5Q358 264 358 264Q358 264 348.0 256.5Q338 249 319.0 242.0Q300 235 271 239Q243 243 224.0 261.5Q205 280 195.0 302.5Q185 325 182 343Q180 356 181.0 382.0Q182 408 184.5 436.0Q187 464 189.0 483.5Q191 503 191 503Z" fill="#a0c787" stroke="none" transform="scale(1,-1) translate(0,-256)" /><path d="M951 600Q951 600 964.0 605.0Q977 610 999.5 609.0Q1022 608 1049 591Q1090 565 1115.5 493.5Q1141 422 1135 308Q1134 291 1130.0 262.5Q1126 234 1121.0 203.5Q1116 173 1113.0 148.5Q1110 124 1111 113Q1118 50 1109.0 16.5Q1100 -17 1091 -29Q1086 -36 1071.0 -46.0Q1056 -56 1037.5 -66.0Q1019 -76 1003.0 -83.0Q987 -90 981 -90Q971 -90 967.0 -81.0Q963 -72 963.0 -61.5Q963 -51 966 -49Q969 -46 979.0 -37.0Q989 -28 999 -16Q1006 -7 1006.0 9.5Q1006 26 1003.5 40.0Q1001 54 999 55Q994 55 986.0 45.0Q978 35 968.5 24.0Q959 13 951 12Q939 10 930.0 21.0Q921 32 926 41Q930 47 939.0 64.0Q948 81 956.0 96.0Q964 111 964 111L971 268Q971 268 957.5 318.5Q944 369 931 447Q922 499 928.0 533.0Q934 567 942.5 583.5Q951 600 951 600Z" fill="#a0c787" stroke="none" transform="scale(1,-1) translate(0,-256)" /><path d="M527 689Q539 668 539.5 655.5Q540 643 536.5 637.5Q533 632 533 632Q533 632 518.5 627.5Q504 623 489 632Q471 643 466.0 659.0Q461 675 453 688Q450 694 449.0 698.5Q448 703 455 706Q470 713 492.5 712.5Q515 712 527 689Z" fill="#a0c787" stroke="none" transform="scale(1,-1) translate(0,-256)" /><path d="M779.5 688.9989929199219Q767.5 667.9989929199219 767.0 655.4989929199219Q766.5 642.9989929199219 770.0 637.4989929199219Q773.5 631.9989929199219 773.5 631.9989929199219Q773.5 631.9989929199219 788.0 627.4989929199219Q802.5 622.9989929199219 817.5 631.9989929199219Q835.5 642.9989929199219 840.5 658.9989929199219Q845.5 674.9989929199219 853.5 687.9989929199219Q856.5 693.9989929199219 857.5 698.4989929199219Q858.5 702.9989929199219 851.5 705.9989929199219Q836.5 712.9989929199219 814.0 712.4989929199219Q791.5 711.9989929199219 779.5 688.9989929199219Z" fill="#a0c787" stroke="none" transform="scale(1,-1) translate(0,-256)" /><path d="M653 503Q718 503 753.0 538.5Q788 574 788 657Q788 701 769.5 738.5Q751 776 720.5 798.5Q690 821 653 821Q616 821 585.5 798.5Q555 776 537.0 738.5Q519 701 519 657Q519 574 554.0 538.5Q589 503 653 503Z" fill="#a0c787" stroke="none" transform="scale(1,-1) translate(0,-256)" /></svg>