<?xml version="1.0" encoding="utf-8" ?>
<svg baseProfile="full" height="256" version="1.1" width="256" xmlns="http://www.w3.org/2000/svg" xmlns:ev="http://www.w3.org/2001/xml-events" xmlns:xlink="http://www.w3.org/1999/xlink"><defs /><path d="M928 408 921 387 688 158 529 18Q529 18 539.5 7.0Q550 -4 564.0 -15.0Q578 -26 589 -25Q598 -25 615.0 -23.0Q632 -21 636 -19Q639 -17 651.0 -5.5Q663 6 679 22Q693 35 704.5 47.5Q716 60 720 66Q729 77 725.0 89.5Q721 102 715.0 112.5Q709 123 710 127Q711 131 730.5 151.0Q750 171 780.5 201.0Q811 231 845.0 264.5Q879 298 909.5 327.5Q940 357 959.0 376.0Q978 395 979 397Q982 406 968 419Q959 426 951.5 425.0Q944 424 944 424Z" fill="#eb892e" stroke="none" transform="scale(1,-1) translate(0,-256)" /></svg>