<?xml version="1.0" encoding="utf-8" ?>
<svg baseProfile="full" height="256" version="1.1" width="256" xmlns="http://www.w3.org/2000/svg" xmlns:ev="http://www.w3.org/2001/xml-events" xmlns:xlink="http://www.w3.org/1999/xlink"><defs /><path d="M590 531Q590 531 603.5 540.5Q617 550 635.5 562.0Q654 574 668.0 583.5Q682 593 682 593L771 560L794 475L775 333Q775 333 769.5 327.0Q764 321 752 317Q739 313 725.5 310.5Q712 308 712 308Q712 308 703.0 315.5Q694 323 695 340Q697 358 706.5 381.0Q716 404 725.0 422.0Q734 440 734 440Q734 440 737.0 455.5Q740 471 747 499Q753 519 747.5 531.5Q742 544 734.5 549.5Q727 555 727 555Q727 555 718.5 557.5Q710 560 696.0 558.5Q682 557 665 545Q639 527 630.0 505.0Q621 483 621 483Q621 483 629.5 473.0Q638 463 642 451Q647 439 643.0 426.0Q639 413 630 400Q620 387 602.5 366.0Q585 345 566 337Q548 329 531.0 339.0Q514 349 501 357Q488 366 483.0 372.5Q478 379 478 383Q477 386 477.5 390.0Q478 394 478 394Z" fill="#ee3e23" stroke="none" transform="scale(1,-1) translate(0,-256)" /></svg>