<?xml version="1.0" encoding="utf-8" ?>
<svg baseProfile="full" height="256" version="1.1" width="256" xmlns="http://www.w3.org/2000/svg" xmlns:ev="http://www.w3.org/2001/xml-events" xmlns:xlink="http://www.w3.org/1999/xlink"><defs /><path d="M1020 464Q1024 469 1031.5 460.5Q1039 452 1041 445Q1045 433 1045 426Q1045 420 1041.5 419.0Q1038 418 1036 422Q1035 426 1034.0 430.5Q1033 435 1031 440Q1029 447 1022.5 453.5Q1016 460 1020 464Z" fill="#e59502" stroke="none" transform="scale(1,-1) translate(0,-256)" /><path d="M1041 482Q1044 485 1051.5 479.0Q1059 473 1062 467Q1063 464 1065.0 450.5Q1067 437 1062 437Q1057 436 1056.5 445.0Q1056 454 1053 460Q1048 467 1042.0 472.0Q1036 477 1041 482Z" fill="#e59502" stroke="none" transform="scale(1,-1) translate(0,-256)" /><path d="M998 443Q1001 445 1008.0 438.5Q1015 432 1017 426Q1018 422 1019.0 413.5Q1020 405 1016 403Q1012 402 1010.5 410.0Q1009 418 1006 423Q1003 427 998.5 433.5Q994 440 998 443Z" fill="#e59502" stroke="none" transform="scale(1,-1) translate(0,-256)" /></svg>