<?xml version="1.0" encoding="utf-8" ?>
<svg baseProfile="full" height="256" version="1.1" width="256" xmlns="http://www.w3.org/2000/svg" xmlns:ev="http://www.w3.org/2001/xml-events" xmlns:xlink="http://www.w3.org/1999/xlink"><defs /><path d="M608 371Q608 371 612.5 377.0Q617 383 621.0 389.0Q625 395 625 395Q625 395 648.5 387.0Q672 379 701 375Q719 372 741.0 370.5Q763 369 779.0 368.5Q795 368 795 368Q795 368 792.5 363.0Q790 358 788 354Q786 350 783.5 346.0Q781 342 781 342Q781 342 752.0 342.5Q723 343 687 348Q651 354 629.5 362.5Q608 371 608 371Z" fill="#464c4f" stroke="none" transform="scale(1,-1) translate(0,-256)" /><path d="M636 411Q636 411 638.5 416.0Q641 421 642 426Q644 431 644.0 434.5Q644 438 644 438Q644 438 669.0 431.5Q694 425 719 420Q735 417 756.0 415.5Q777 414 793.0 413.5Q809 413 809 413Q809 413 808.0 407.0Q807 401 805 396Q804 391 802.5 386.0Q801 381 801 381Q801 381 776.5 382.5Q752 384 718 390Q676 397 656.0 404.0Q636 411 636 411Z" fill="#464c4f" stroke="none" transform="scale(1,-1) translate(0,-256)" /></svg>