<?xml version="1.0" encoding="utf-8" ?>
<svg baseProfile="full" height="256" version="1.1" width="256" xmlns="http://www.w3.org/2000/svg" xmlns:ev="http://www.w3.org/2001/xml-events" xmlns:xlink="http://www.w3.org/1999/xlink"><defs /><path d="M690 604 764 576Q764 576 777.0 575.0Q790 574 808.0 573.5Q826 573 841.5 573.5Q857 574 862 576Q863 577 872.0 590.5Q881 604 883 616Q884 618 894.0 622.5Q904 627 905 637Q905 640 902.0 644.5Q899 649 896 654Q893 659 890.0 665.0Q887 671 887 678Q887 683 893.5 696.5Q900 710 899 730Q899 741 894.5 755.0Q890 769 880 781Q865 798 838.0 807.5Q811 817 780.0 814.5Q749 812 722 792Q699 776 691.5 750.5Q684 725 685.5 700.0Q687 675 691.0 657.0Q695 639 696 636Q697 626 693.5 615.0Q690 604 690 604Z" fill="#fec925" stroke="none" transform="scale(1,-1) translate(0,-256)" /><path d="M735 478H736Q736 478 753.5 474.5Q771 471 794.5 466.5Q818 462 835 458Q842 457 853.5 454.0Q865 451 879 450Q901 447 922.5 446.5Q944 446 949 444Q955 440 968.0 433.0Q981 426 987 422Q992 419 1000.5 421.0Q1009 423 1017 425Q1022 427 1033.0 436.0Q1044 445 1053.5 454.0Q1063 463 1065 466Q1071 475 1066 485Q1064 489 1059.0 496.0Q1054 503 1045 508Q1036 512 1026.0 516.0Q1016 520 1004 518Q995 517 984.5 508.0Q974 499 968 497Q965 496 950.0 499.5Q935 503 917.0 507.5Q899 512 887 514Q869 517 855.0 518.0Q841 519 833 520Q828 521 812.0 524.0Q796 527 781.5 530.0Q767 533 767 533Q767 533 760.5 526.0Q754 519 748 508Q743 499 739.0 488.5Q735 478 735 478Z" fill="#fec925" stroke="none" transform="scale(1,-1) translate(0,-256)" /></svg>