<?xml version="1.0" encoding="utf-8" ?>
<svg baseProfile="full" height="256" version="1.1" width="256" xmlns="http://www.w3.org/2000/svg" xmlns:ev="http://www.w3.org/2001/xml-events" xmlns:xlink="http://www.w3.org/1999/xlink"><defs /><path d="M573 345 572 475 662 585 758 572 772 488 712 308Q712 308 705.5 307.0Q699 306 690.5 310.0Q682 314 677 329Q673 341 677.0 360.5Q681 380 686.5 395.0Q692 410 692 410L665 421Q665 421 656.5 405.0Q648 389 627 367Q607 346 590.0 345.5Q573 345 573 345Z" fill="#ad3900" stroke="none" transform="scale(1,-1) translate(0,-256)" /></svg>