<?xml version="1.0" encoding="utf-8" ?>
<svg baseProfile="full" height="256" version="1.1" width="256" xmlns="http://www.w3.org/2000/svg" xmlns:ev="http://www.w3.org/2001/xml-events" xmlns:xlink="http://www.w3.org/1999/xlink"><defs /><path d="M111 265 175 301 612 275 1117 304 1156 269Q1156 269 1148.0 244.0Q1140 219 1123 180Q1117 165 1105.5 141.5Q1094 118 1080.5 97.5Q1067 77 1054 70Q1045 65 1013.0 59.0Q981 53 934.0 47.0Q887 41 832.0 35.5Q777 30 721.5 26.0Q666 22 618 21Q497 19 427.5 32.0Q358 45 313 71Q282 89 251.5 115.5Q221 142 196.5 166.5Q172 191 160 204Q151 213 140.0 227.5Q129 242 120.0 253.5Q111 265 111 265Z" fill="#cc4337" stroke="none" transform="scale(1,-1) translate(0,-256)" /></svg>