<?xml version="1.0" encoding="utf-8" ?>
<svg baseProfile="full" height="256" version="1.1" width="256" xmlns="http://www.w3.org/2000/svg" xmlns:ev="http://www.w3.org/2001/xml-events" xmlns:xlink="http://www.w3.org/1999/xlink"><defs /><path d="M835 505Q835 585 782 632Q730 679 642 679Q555 679 502 632Q451 586 451 504Q450 459 474 422Q499 384 539 364Q492 345 464 303Q436 261 437 212Q437 130 493 80Q548 32 643 32Q737 32 793 80Q849 130 849 213Q850 262 823 303Q794 345 747 365Q787 385 812 423Q836 460 835 505ZM743 218Q743 170 718 143Q687 114 644 116Q595 116 569 144Q540 175 542 218Q542 267 569 294Q599 324 642 322Q685 325 715 294Q745 262 743 218ZM730 501Q732 462 706 432Q679 405 642 407Q605 405 579 432Q553 461 556 500Q553 540 579 570Q605 597 643 595Q681 597 707 569Q732 540 730 501Z" fill="#fafafa" stroke="none" transform="scale(1,-1) translate(0,-256)" /></svg>