<?xml version="1.0" encoding="utf-8" ?>
<svg baseProfile="full" height="256" version="1.1" width="256" xmlns="http://www.w3.org/2000/svg" xmlns:ev="http://www.w3.org/2001/xml-events" xmlns:xlink="http://www.w3.org/1999/xlink"><defs /><path d="M426 134Q427 154 440.5 166.0Q454 178 473 177Q493 177 506.0 164.0Q519 151 518 128Q517 103 500.0 94.0Q483 85 467 86Q452 88 438.5 99.5Q425 111 426 134Z" fill="#191919" stroke="none" transform="scale(1,-1) translate(0,-256)" /><path d="M337 254Q358 255 371.5 244.5Q385 234 388 213Q390 194 379.0 179.0Q368 164 345 164Q319 163 307.5 178.0Q296 193 297 210Q298 227 307.5 239.5Q317 252 337 254Z" fill="#191919" stroke="none" transform="scale(1,-1) translate(0,-256)" /><path d="M308 67Q329 68 339.5 55.0Q350 42 350 26Q349 10 339.5 -2.0Q330 -14 309 -14Q289 -14 278.0 -1.5Q267 11 268 26Q268 41 277.5 53.5Q287 66 308 67Z" fill="#191919" stroke="none" transform="scale(1,-1) translate(0,-256)" /></svg>