<?xml version="1.0" encoding="utf-8" ?>
<svg baseProfile="full" height="256" version="1.1" width="256" xmlns="http://www.w3.org/2000/svg" xmlns:ev="http://www.w3.org/2001/xml-events" xmlns:xlink="http://www.w3.org/1999/xlink"><defs /><path d="M894 670Q894 670 895.5 662.0Q897 654 897 647Q899 637 899.5 629.0Q900 621 900 621H1031Q1031 621 1031.5 630.5Q1032 640 1033 646Q1033 654 1034.5 662.0Q1036 670 1036 670Z" fill="#fc5027" stroke="none" transform="scale(1,-1) translate(0,-256)" /><path d="M900 567Q900 567 899.5 559.5Q899 552 899 544Q898 536 897.0 528.0Q896 520 896 520H1039Q1039 520 1037.0 528.5Q1035 537 1034 544Q1033 551 1032.0 559.0Q1031 567 1031 567Z" fill="#fc5027" stroke="none" transform="scale(1,-1) translate(0,-256)" /><path d="M640 645Q640 645 641.5 636.0Q643 627 644 618Q644 609 645.0 601.0Q646 593 646 593H777Q777 593 777.5 601.0Q778 609 779 618Q780 627 781.0 635.5Q782 644 782 644Z" fill="#fc5027" stroke="none" transform="scale(1,-1) translate(0,-256)" /><path d="M646 536Q646 536 645.5 526.5Q645 517 644 510Q643 504 641.5 495.0Q640 486 640 486H788Q788 486 785.5 494.0Q783 502 782 508Q780 518 778.5 527.0Q777 536 777 536Z" fill="#fc5027" stroke="none" transform="scale(1,-1) translate(0,-256)" /><path d="M381 678Q381 678 382.5 669.0Q384 660 385 651Q386 644 387.0 635.0Q388 626 388 626H527Q527 626 528.5 634.5Q530 643 531 650Q532 656 534.5 667.0Q537 678 537 678Z" fill="#fc5027" stroke="none" transform="scale(1,-1) translate(0,-256)" /><path d="M389 576Q389 576 388.5 567.5Q388 559 388 552Q387 545 386.0 534.0Q385 523 385 523H528Q528 523 526.5 534.5Q525 546 525 551Q524 556 524.0 565.5Q524 575 524 575Z" fill="#fc5027" stroke="none" transform="scale(1,-1) translate(0,-256)" /></svg>