<?xml version="1.0" encoding="utf-8" ?>
<svg baseProfile="full" height="256" version="1.1" width="256" xmlns="http://www.w3.org/2000/svg" xmlns:ev="http://www.w3.org/2001/xml-events" xmlns:xlink="http://www.w3.org/1999/xlink"><defs /><path d="M713 871Q740 869 752.5 851.0Q765 833 768.5 807.0Q772 781 772 755Q772 716 759.5 660.0Q747 604 747 542Q747 516 752.5 490.5Q758 465 768 442Q776 422 793.5 388.5Q811 355 827.5 308.0Q844 261 848 202Q853 142 843.0 101.0Q833 60 821.0 39.0Q809 18 809 18Q809 18 807.5 44.0Q806 70 802.0 106.0Q798 142 790 173Q782 204 764.0 232.5Q746 261 725.5 283.5Q705 306 690 317Q675 329 657.5 331.0Q640 333 628.0 331.0Q616 329 616 329Q616 329 621.0 341.5Q626 354 633.0 372.0Q640 390 647.0 407.5Q654 425 657 434Q664 453 672.5 484.0Q681 515 682 546Q683 577 676.0 624.0Q669 671 659 741Q648 811 665.5 842.0Q683 873 713 871Z" fill="#f1edec" stroke="none" transform="scale(1,-1) translate(0,-256)" /></svg>