<?xml version="1.0" encoding="utf-8" ?>
<svg baseProfile="full" height="256" version="1.1" width="256" xmlns="http://www.w3.org/2000/svg" xmlns:ev="http://www.w3.org/2001/xml-events" xmlns:xlink="http://www.w3.org/1999/xlink"><defs /><path d="M954 872Q963 867 964.0 858.0Q965 849 961 832Q958 816 948.0 803.5Q938 791 925 794Q913 798 911.5 815.5Q910 833 917 849Q924 864 935.0 870.5Q946 877 954 872Z" fill="#ffffff" stroke="none" transform="scale(1,-1) translate(0,-256)" /><path d="M700 868Q713 864 714.0 852.0Q715 840 711 823Q706 807 694.5 795.0Q683 783 671 789Q662 793 660.0 807.5Q658 822 664 839Q670 857 681.5 863.5Q693 870 700 868Z" fill="#ffffff" stroke="none" transform="scale(1,-1) translate(0,-256)" /><path d="M452 862Q432 881 408 852Q398 839 396.0 823.5Q394 808 403 803Q411 797 423.0 800.5Q435 804 444 814Q454 825 457.0 839.5Q460 854 452 862Z" fill="#ffffff" stroke="none" transform="scale(1,-1) translate(0,-256)" /><path d="M431 473Q439 468 439.0 459.5Q439 451 435 440Q431 429 423.0 413.5Q415 398 415 398L383 415Q383 415 388.5 427.5Q394 440 401 455Q409 471 417.5 473.5Q426 476 431 473Z" fill="#ffffff" stroke="none" transform="scale(1,-1) translate(0,-256)" /><path d="M637 352 670 333Q670 333 675.0 346.0Q680 359 685.5 375.5Q691 392 694 401Q699 414 703.5 435.0Q708 456 697 462Q685 468 675.5 451.5Q666 435 661 421Q658 411 652.0 394.5Q646 378 641.5 365.0Q637 352 637 352Z" fill="#ffffff" stroke="none" transform="scale(1,-1) translate(0,-256)" /><path d="M951 488Q963 483 960.5 467.5Q958 452 952 435Q945 419 938.5 402.0Q932 385 925 372Q921 364 914.0 353.5Q907 343 895 347Q884 352 884.0 364.0Q884 376 887 383Q889 390 892.5 399.0Q896 408 908 437Q933 495 951 488Z" fill="#ffffff" stroke="none" transform="scale(1,-1) translate(0,-256)" /></svg>