<?xml version="1.0" encoding="utf-8" ?>
<svg baseProfile="full" height="256" version="1.1" width="256" xmlns="http://www.w3.org/2000/svg" xmlns:ev="http://www.w3.org/2001/xml-events" xmlns:xlink="http://www.w3.org/1999/xlink"><defs /><path d="M968 884Q993 884 1005.0 868.5Q1017 853 1020.0 829.5Q1023 806 1022 782Q1021 753 1014.0 720.5Q1007 688 1001.5 647.5Q996 607 999 554Q1002 506 1019.0 471.5Q1036 437 1056 396Q1068 373 1081.0 335.5Q1094 298 1101.5 254.5Q1109 211 1105.0 167.0Q1101 123 1078 86Q1048 36 1010.5 10.0Q973 -16 943.0 -25.0Q913 -34 903 -34Q893 -33 885.0 -21.5Q877 -10 872.5 1.5Q868 13 868 13L846 298Q846 298 854.0 326.0Q862 354 878 391Q888 416 901.5 440.5Q915 465 924.5 495.0Q934 525 932 565Q930 624 921.5 677.0Q913 730 908 776Q903 822 919.5 853.0Q936 884 968 884Z" fill="#f1eded" stroke="none" transform="scale(1,-1) translate(0,-256)" /></svg>