<?xml version="1.0" encoding="utf-8" ?>
<svg baseProfile="full" height="256" version="1.1" width="256" xmlns="http://www.w3.org/2000/svg" xmlns:ev="http://www.w3.org/2001/xml-events" xmlns:xlink="http://www.w3.org/1999/xlink"><defs /><path d="M555 472Q579 487 613.0 502.5Q647 518 687.0 527.0Q727 536 771.5 532.5Q816 529 863 506Q904 486 939.0 460.5Q974 435 999.0 411.5Q1024 388 1037.5 373.0Q1051 358 1051 358Q1051 358 1026.5 325.0Q1002 292 946.0 237.5Q890 183 795 117Q724 68 656.5 36.0Q589 4 534.5 -13.5Q480 -31 448.0 -38.0Q416 -45 416 -45Q416 -45 409.0 -23.5Q402 -2 394.0 36.5Q386 75 383 125Q381 162 385.5 207.0Q390 252 407.0 299.5Q424 347 459.5 391.5Q495 436 555 472Z" fill="#face90" stroke="none" transform="scale(1,-1) translate(0,-256)" /><path d="M926 782Q926 782 943.0 767.5Q960 753 986.5 733.5Q1013 714 1042 700Q1058 692 1078.5 687.0Q1099 682 1114.0 680.0Q1129 678 1129 678Q1129 678 1123.5 663.5Q1118 649 1106.5 630.0Q1095 611 1076.5 595.0Q1058 579 1031.0 574.0Q1004 569 968 585Q940 597 928.0 620.5Q916 644 913.5 671.5Q911 699 914.5 724.0Q918 749 922.0 765.5Q926 782 926 782Z" fill="#face90" stroke="none" transform="scale(1,-1) translate(0,-256)" /><path d="M591 809Q591 809 605.0 807.5Q619 806 644 796Q663 788 683.0 776.0Q703 764 744 764Q793 764 820.0 773.5Q847 783 847 783Q847 783 845.5 767.5Q844 752 837.5 730.0Q831 708 817.0 686.5Q803 665 779.0 652.5Q755 640 718 646Q681 651 657.0 669.0Q633 687 619.5 710.5Q606 734 600.0 756.5Q594 779 592.5 794.0Q591 809 591 809Z" fill="#face90" stroke="none" transform="scale(1,-1) translate(0,-256)" /><path d="M254 629Q254 629 277.0 636.0Q300 643 333.5 655.0Q367 667 399 685Q412 691 428.5 707.5Q445 724 461.0 742.0Q477 760 487.0 773.0Q497 786 497 786Q497 786 504.0 771.5Q511 757 518.0 733.5Q525 710 525.5 682.5Q526 655 515.0 628.5Q504 602 474 581Q438 557 405.5 554.5Q373 552 345.0 562.5Q317 573 296.5 589.0Q276 605 265.0 617.0Q254 629 254 629Z" fill="#face90" stroke="none" transform="scale(1,-1) translate(0,-256)" /><path d="M200 537Q194 516 196.0 491.0Q198 466 200.0 442.0Q202 418 195 401Q190 388 176.5 374.0Q163 360 148.0 347.5Q133 335 122.0 327.5Q111 320 111 320Q111 320 124.5 314.0Q138 308 159.5 303.0Q181 298 206.0 298.0Q231 298 254.0 309.5Q277 321 293 349Q309 378 304.5 405.0Q300 432 283.5 456.0Q267 480 247.5 498.5Q228 517 214.0 527.0Q200 537 200 537Z" fill="#face90" stroke="none" transform="scale(1,-1) translate(0,-256)" /><path d="M224 124Q222 153 204.0 170.0Q186 187 161.5 195.5Q137 204 114.0 207.0Q91 210 78 211Q76 194 85.5 178.0Q95 162 106.0 145.0Q117 128 119 108Q123 78 115.0 48.0Q107 18 111 -10Q121 -4 140.0 9.0Q159 22 178.5 40.5Q198 59 211.5 80.0Q225 101 224 124Z" fill="#face90" stroke="none" transform="scale(1,-1) translate(0,-256)" /></svg>