<?xml version="1.0" encoding="utf-8" ?>
<svg baseProfile="full" height="256" version="1.1" width="256" xmlns="http://www.w3.org/2000/svg" xmlns:ev="http://www.w3.org/2001/xml-events" xmlns:xlink="http://www.w3.org/1999/xlink"><defs /><path d="M610 560Q605 574 621.5 583.5Q638 593 651 596Q665 599 681.5 595.0Q698 591 698 577Q698 566 688.0 562.0Q678 558 660 553Q641 548 627.5 548.5Q614 549 610 560Z" fill="#ffffff" stroke="none" transform="scale(1,-1) translate(0,-256)" /><path d="M575 541Q572 553 554.5 552.5Q537 552 512.5 541.5Q488 531 463 514Q432 492 395.5 449.5Q359 407 335 353Q319 316 315.0 277.0Q311 238 316.5 212.0Q322 186 333 188Q343 190 346.5 207.0Q350 224 355.5 253.5Q361 283 377.0 322.0Q393 361 428 407Q450 437 476.0 458.5Q502 480 525.5 495.0Q549 510 563.0 521.0Q577 532 575 541Z" fill="#ffffff" stroke="none" transform="scale(1,-1) translate(0,-256)" /></svg>