<?xml version="1.0" encoding="utf-8" ?>
<svg baseProfile="full" height="256" version="1.1" width="256" xmlns="http://www.w3.org/2000/svg" xmlns:ev="http://www.w3.org/2001/xml-events" xmlns:xlink="http://www.w3.org/1999/xlink"><defs /><path d="M624 430Q643 356 626.0 301.5Q609 247 573 205Q573 205 572.5 221.5Q572 238 570.5 262.0Q569 286 567.0 310.0Q565 334 562 348Q557 369 543.5 369.5Q530 370 516.0 364.0Q502 358 497 358Q492 358 484.0 367.5Q476 377 465.5 389.0Q455 401 443.0 409.5Q431 418 419 417Q388 413 353.0 393.0Q318 373 276.5 348.5Q235 324 185.5 305.0Q136 286 75 284V645Q99 663 139.5 672.0Q180 681 219 662Q220 698 234.5 716.5Q249 735 268.0 742.5Q287 750 301.5 751.0Q316 752 316 752Q304 734 305.0 711.0Q306 688 323 677Q332 672 348.5 676.0Q365 680 389.0 683.5Q413 687 445.0 679.0Q477 671 516 642Q553 614 574.0 574.0Q595 534 606.0 495.0Q617 456 624 430Z" fill="#543930" stroke="none" transform="scale(1,-1) translate(0,-256)" /><path d="M1200 689V322Q1194 330 1188.5 339.5Q1183 349 1176 360Q1168 374 1156.0 375.5Q1144 377 1131.5 372.5Q1119 368 1109.0 363.0Q1099 358 1095 358Q1089 358 1081.0 372.0Q1073 386 1062.5 400.5Q1052 415 1039 416Q1013 418 990.0 408.5Q967 399 943.5 383.5Q920 368 891.0 351.0Q862 334 823 321Q810 317 782.5 312.0Q755 307 719 316Q716 316 713.5 297.5Q711 279 709.0 251.0Q707 223 706.0 195.0Q705 167 704.5 148.0Q704 129 704 129Q683 138 669.0 162.5Q655 187 653 217Q649 261 656.5 279.5Q664 298 664 298Q641 354 642.0 394.0Q643 434 657.0 460.5Q671 487 689.5 502.0Q708 517 722.0 523.5Q736 530 736 530Q736 530 736.5 549.0Q737 568 747.0 594.5Q757 621 786 644Q810 663 851.0 672.0Q892 681 931 662Q932 698 946.5 716.5Q961 735 980.0 742.5Q999 750 1013.0 751.0Q1027 752 1027 752Q1016 734 1016.5 711.0Q1017 688 1035 677Q1047 670 1059.5 673.5Q1072 677 1085.5 684.5Q1099 692 1112 695Q1157 705 1178.5 697.0Q1200 689 1200 689Z" fill="#543930" stroke="none" transform="scale(1,-1) translate(0,-256)" /></svg>