<?xml version="1.0" encoding="utf-8" ?>
<svg baseProfile="full" height="256" version="1.1" width="256" xmlns="http://www.w3.org/2000/svg" xmlns:ev="http://www.w3.org/2001/xml-events" xmlns:xlink="http://www.w3.org/1999/xlink"><defs /><path d="M454 631Q454 631 445.0 622.5Q436 614 427.0 605.0Q418 596 419 593Q420 590 432.0 589.0Q444 588 455.0 588.0Q466 588 466 588Q466 588 472.0 576.5Q478 565 485.0 554.0Q492 543 495 544Q497 544 501.5 556.0Q506 568 509.5 579.5Q513 591 513 591Q513 591 524.5 593.5Q536 596 548.0 599.5Q560 603 560 607Q560 611 550.5 618.5Q541 626 531.0 632.5Q521 639 521 639Q521 639 523.5 650.0Q526 661 527.0 672.5Q528 684 524 687Q521 688 512.0 681.0Q503 674 495.0 666.0Q487 658 487 658Q487 658 476.5 664.0Q466 670 454.5 675.5Q443 681 440 678Q438 675 441.5 663.5Q445 652 449.5 641.5Q454 631 454 631Z" fill="#ffc6b2" stroke="none" transform="scale(1,-1) translate(0,-256)" /><path d="M397 215Q397 228 406.0 237.0Q415 246 430 247Q446 248 455.0 237.5Q464 227 464 215Q464 202 456.5 190.0Q449 178 430 178Q413 179 405.0 189.5Q397 200 397 215Z" fill="#ffc6b2" stroke="none" transform="scale(1,-1) translate(0,-256)" /><path d="M851 575Q873 575 872 552Q871 541 865.0 536.5Q859 532 852 532Q845 532 837.5 536.5Q830 541 830 552Q829 564 835.5 569.5Q842 575 851 575Z" fill="#ffc6b2" stroke="none" transform="scale(1,-1) translate(0,-256)" /></svg>