<?xml version="1.0" encoding="utf-8" ?>
<svg baseProfile="full" height="256" version="1.1" width="256" xmlns="http://www.w3.org/2000/svg" xmlns:ev="http://www.w3.org/2001/xml-events" xmlns:xlink="http://www.w3.org/1999/xlink"><defs /><path d="M622 531Q622 531 615.0 524.0Q608 517 601.5 509.0Q595 501 597 497Q597 494 607.0 494.5Q617 495 626.5 496.0Q636 497 636 497Q636 497 640.0 489.0Q644 481 649.0 473.0Q654 465 657 466Q660 466 664.0 474.5Q668 483 670.5 491.5Q673 500 673 500Q673 500 681.0 502.0Q689 504 697.5 506.5Q706 509 707 512Q707 515 700.5 520.5Q694 526 687.5 531.0Q681 536 681 536Q681 536 683.5 544.5Q686 553 687.5 562.0Q689 571 686 572Q683 574 675.0 570.0Q667 566 660.0 561.5Q653 557 653 557Q653 557 644.0 561.5Q635 566 625.5 570.5Q616 575 614 574Q611 572 613.5 561.5Q616 551 619.0 541.0Q622 531 622 531Z" fill="#ffd717" stroke="none" transform="scale(1,-1) translate(0,-256)" /></svg>