<?xml version="1.0" encoding="utf-8" ?>
<svg baseProfile="full" height="256" version="1.1" width="256" xmlns="http://www.w3.org/2000/svg" xmlns:ev="http://www.w3.org/2001/xml-events" xmlns:xlink="http://www.w3.org/1999/xlink"><defs /><path d="M555 479Q558 484 564.0 486.0Q570 488 576 484Q583 479 583.0 472.5Q583 466 581 461Q578 457 571.0 455.5Q564 454 559 458Q548 467 555 479Z" fill="#ffffff" stroke="none" transform="scale(1,-1) translate(0,-256)" /><path d="M627 452Q630 459 638 456Q642 455 643.5 450.5Q645 446 643 443Q639 435 631 439Q622 444 627 452Z" fill="#ffffff" stroke="none" transform="scale(1,-1) translate(0,-256)" /><path d="M628 412Q635 411 637.0 406.0Q639 401 639 398Q637 388 627 388Q616 388 616 401Q617 412 628 412Z" fill="#ffffff" stroke="none" transform="scale(1,-1) translate(0,-256)" /><path d="M726 374Q729 385 740 386Q756 386 756 372Q756 355 740 355Q732 356 728.0 362.0Q724 368 726 374Z" fill="#ffffff" stroke="none" transform="scale(1,-1) translate(0,-256)" /><path d="M739 516Q731 523 724 515Q718 508 725 500Q732 494 739 501Q742 503 742.5 508.0Q743 513 739 516Z" fill="#ffffff" stroke="none" transform="scale(1,-1) translate(0,-256)" /><path d="M707 219Q711 224 716.5 224.5Q722 225 725 223Q729 220 730.5 214.0Q732 208 729 203Q722 193 711 199Q705 202 704.0 208.0Q703 214 707 219Z" fill="#ffffff" stroke="none" transform="scale(1,-1) translate(0,-256)" /><path d="M597 191Q598 197 604 197Q612 197 612 189Q611 182 604 182Q597 182 597 191Z" fill="#ffffff" stroke="none" transform="scale(1,-1) translate(0,-256)" /><path d="M551 250Q552 261 563 261Q567 261 571.0 258.0Q575 255 575 249Q574 238 562 238Q550 237 551 250Z" fill="#ffffff" stroke="none" transform="scale(1,-1) translate(0,-256)" /><path d="M572 555Q572 561 576.0 563.5Q580 566 584 566Q595 566 595 554Q595 542 583 542Q579 543 575.0 546.0Q571 549 572 555Z" fill="#ffffff" stroke="none" transform="scale(1,-1) translate(0,-256)" /><path d="M205 251Q207 259 216 260Q229 260 229 249Q229 235 216 236Q209 236 206.0 241.0Q203 246 205 251Z" fill="#ffffff" stroke="none" transform="scale(1,-1) translate(0,-256)" /><path d="M320 158Q323 167 331 167Q342 167 342 157Q342 144 330 145Q324 145 321.5 149.5Q319 154 320 158Z" fill="#ffffff" stroke="none" transform="scale(1,-1) translate(0,-256)" /><path d="M428 94Q430 100 436 100Q446 101 446 92Q446 83 436 83Q425 84 428 94Z" fill="#ffffff" stroke="none" transform="scale(1,-1) translate(0,-256)" /><path d="M115 61Q118 69 126 70Q138 70 138 59Q138 47 126 47Q119 47 116.5 51.5Q114 56 115 61Z" fill="#ffffff" stroke="none" transform="scale(1,-1) translate(0,-256)" /><path d="M804 641Q798 647 793 641Q787 635 794 629Q799 624 805 629Q811 635 804 641Z" fill="#ffffff" stroke="none" transform="scale(1,-1) translate(0,-256)" /><path d="M950 709Q940 718 931 708Q928 705 928.0 699.0Q928 693 932 689Q941 681 950 690Q954 693 954.5 699.0Q955 705 950 709Z" fill="#ffffff" stroke="none" transform="scale(1,-1) translate(0,-256)" /><path d="M891 792Q882 799 874 791Q867 782 876 774Q883 767 891 774Q895 777 895.5 782.5Q896 788 891 792Z" fill="#ffffff" stroke="none" transform="scale(1,-1) translate(0,-256)" /><path d="M1137 788Q1130 794 1123 787Q1116 779 1124 772Q1130 765 1138 772Q1140 775 1140.5 779.5Q1141 784 1137 788Z" fill="#ffffff" stroke="none" transform="scale(1,-1) translate(0,-256)" /><path d="M1172 819Q1167 823 1162 818Q1158 813 1163 808Q1167 804 1172 808Q1178 814 1172 819Z" fill="#ffffff" stroke="none" transform="scale(1,-1) translate(0,-256)" /><path d="M1097 528Q1089 534 1081 526Q1074 519 1082 511Q1089 504 1097 511Q1100 514 1100.5 519.0Q1101 524 1097 528Z" fill="#ffffff" stroke="none" transform="scale(1,-1) translate(0,-256)" /><path d="M933 461Q927 466 922 460Q916 454 923 449Q928 444 933 449Q939 455 933 461Z" fill="#ffffff" stroke="none" transform="scale(1,-1) translate(0,-256)" /></svg>