<?xml version="1.0" encoding="utf-8" ?>
<svg baseProfile="full" height="256" version="1.1" width="256" xmlns="http://www.w3.org/2000/svg" xmlns:ev="http://www.w3.org/2001/xml-events" xmlns:xlink="http://www.w3.org/1999/xlink"><defs /><path d="M724 75 740 -65 523 -116 512 7 627 17 635 96Z" fill="#2f7889" stroke="none" transform="scale(1,-1) translate(0,-256)" /><path d="M1138 95Q1121 72 1072.0 59.5Q1023 47 954.0 46.0Q885 45 806.0 55.0Q727 65 647.5 87.0Q568 109 500 143L496 183Q586 155 661.0 147.0Q736 139 791.5 141.5Q847 144 878.0 149.5Q909 155 909 155L1146 127Q1149 110 1138 95Z" fill="#2f7889" stroke="none" transform="scale(1,-1) translate(0,-256)" /><path d="M572 -66Q572 -66 568.0 -42.0Q564 -18 557.0 18.5Q550 55 543.0 93.5Q536 132 530.5 163.0Q525 194 523 206Q518 244 501.0 262.0Q484 280 462.0 283.0Q440 286 420 277V-71Z" fill="#2f7889" stroke="none" transform="scale(1,-1) translate(0,-256)" /><path d="M455.38514709472656 216.30853271484375Q454.84922790527344 229.02374267578125 448.41400146484375 237.92564392089844Q441.97877502441406 246.82754516601562 432.1605529785156 247.5142364501953Q423.6486358642578 246.700927734375 416.7109832763672 238.03001403808594Q409.77333068847656 229.35910034179688 410.3092498779297 216.64389038085938Q409.44256591796875 204.0267791748047 416.57909393310547 195.0758285522461Q423.7156219482422 186.1248779296875 432.13124084472656 185.53628540039062Q442.04576110839844 186.25149536132812 448.98341369628906 194.9224090576172Q455.9210662841797 203.59332275390625 455.38514709472656 216.30853271484375Z" fill="#2f7889" stroke="none" transform="scale(1,-1) translate(0,-256)" /><path d="M906 755Q914 766 903 775Q897 779 893 778Q888 777 883 772L703 529Q694 517 706 509Q711 505 716 505Q721 506 725 512Z" fill="#2f7889" stroke="none" transform="scale(1,-1) translate(0,-256)" /></svg>