<?xml version="1.0" encoding="utf-8" ?>
<svg baseProfile="full" height="256" version="1.1" width="256" xmlns="http://www.w3.org/2000/svg" xmlns:ev="http://www.w3.org/2001/xml-events" xmlns:xlink="http://www.w3.org/1999/xlink"><defs /><path d="M967 827Q967 850 939.0 863.0Q911 876 870.5 881.5Q830 887 791 888Q753 889 712.5 884.0Q672 879 643.0 866.5Q614 854 613 832Q611 807 638.5 793.5Q666 780 706.5 775.0Q747 770 785 768Q815 768 846.5 770.5Q878 773 906.0 780.0Q934 787 951.0 798.5Q968 810 967 827Z" fill="#b0b0b0" stroke="none" transform="scale(1,-1) translate(0,-256)" /><path d="M248 110Q249 123 273.0 133.5Q297 144 334.5 149.5Q372 155 413 155Q461 155 501.0 148.5Q541 142 565.0 130.5Q589 119 588 105Q588 84 542.0 70.5Q496 57 413 55Q367 54 329.0 63.0Q291 72 269.0 84.5Q247 97 248 110Z" fill="#b0b0b0" stroke="none" transform="scale(1,-1) translate(0,-256)" /></svg>