<?xml version="1.0" encoding="utf-8" ?>
<svg baseProfile="full" height="256" version="1.1" width="256" xmlns="http://www.w3.org/2000/svg" xmlns:ev="http://www.w3.org/2001/xml-events" xmlns:xlink="http://www.w3.org/1999/xlink"><defs /><path d="M855 556Q855 581 859.5 595.5Q864 610 873.5 621.5Q883 633 897.0 648.5Q911 664 928.5 690.5Q946 717 968 761Q988 802 991.0 824.0Q994 846 994 846Q1000 833 1000 819Q1000 769 987.0 735.5Q974 702 956.5 677.5Q939 653 925.5 633.0Q912 613 912 592Q911 561 923.0 536.5Q935 512 953.5 484.5Q972 457 991.5 419.5Q1011 382 1026 327Q1041 275 1039.0 241.5Q1037 208 1027.0 196.0Q1017 184 1004.0 198.5Q991 213 982 256Q968 332 946.5 379.0Q925 426 904.0 455.5Q883 485 869.0 507.5Q855 530 855 556Z" fill="#c8c8c8" stroke="none" transform="scale(1,-1) translate(0,-256)" /></svg>