<?xml version="1.0" encoding="utf-8" ?>
<svg baseProfile="full" height="256" version="1.1" width="256" xmlns="http://www.w3.org/2000/svg" xmlns:ev="http://www.w3.org/2001/xml-events" xmlns:xlink="http://www.w3.org/1999/xlink"><defs /><path d="M672 581Q672 607 658.0 628.5Q644 650 625.5 674.5Q607 699 593.5 735.0Q580 771 581 826Q582 853 603.0 870.0Q624 887 657.0 897.0Q690 907 727.5 910.5Q765 914 798 913Q845 911 891.5 902.5Q938 894 969.0 874.0Q1000 854 1000 819Q1000 769 987.0 735.5Q974 702 956.5 677.5Q939 653 926.0 633.0Q913 613 912 592Q912 561 923.5 536.5Q935 512 953.5 484.5Q972 457 991.5 419.5Q1011 382 1026 327Q1045 258 1055.5 180.5Q1066 103 1060.0 29.5Q1054 -44 1024 -101Q991 -165 929.0 -187.5Q867 -210 784 -209Q718 -208 668.0 -188.5Q618 -169 587 -135Q557 -101 541.5 -54.0Q526 -7 522.0 45.5Q518 98 522.5 150.5Q527 203 537.0 249.5Q547 296 558 330Q578 389 598.5 426.5Q619 464 635.5 488.5Q652 513 662.0 534.0Q672 555 672 581Z" fill="#e0e0e0" stroke="none" transform="scale(1,-1) translate(0,-256)" /><path d="M216 111Q219 139 271.5 156.5Q324 174 409 175Q468 176 515.0 167.5Q562 159 590.0 142.5Q618 126 619 103Q621 78 569.5 56.0Q518 34 410 35Q319 35 266.0 58.5Q213 82 216 111Z" fill="#e0e0e0" stroke="none" transform="scale(1,-1) translate(0,-256)" /></svg>