<?xml version="1.0" encoding="utf-8" ?>
<svg baseProfile="full" height="256" version="1.1" width="256" xmlns="http://www.w3.org/2000/svg" xmlns:ev="http://www.w3.org/2001/xml-events" xmlns:xlink="http://www.w3.org/1999/xlink"><defs /><path d="M521 135Q522 139 543.0 137.5Q564 136 594.5 130.0Q625 124 656.0 114.0Q687 104 709.0 92.0Q731 80 733 67Q741 10 732.0 -37.0Q723 -84 705.5 -117.0Q688 -150 669.5 -166.0Q651 -182 640 -176Q609 -159 587 -135Q544 -86 530.5 -13.0Q517 60 521 135Z" fill="#6ca4ae" stroke="none" transform="scale(1,-1) translate(0,-256)" /><path d="M862 -205Q886 -184 905 -162Q975 -79 985.5 32.0Q996 143 973 282Q1002 301 1026 327Q1045 258 1055.5 180.5Q1066 103 1060.0 29.5Q1054 -44 1024 -101Q999 -149 958.0 -173.0Q917 -197 862 -205Z" fill="#6ca4ae" stroke="none" transform="scale(1,-1) translate(0,-256)" /><path d="M514 -132V-191Q514 -191 507.5 -195.5Q501 -200 482.0 -205.5Q463 -211 428 -211Q374 -212 353.0 -201.0Q332 -190 332 -190V-134Z" fill="#6ca4ae" stroke="none" transform="scale(1,-1) translate(0,-256)" /></svg>