<?xml version="1.0" encoding="utf-8" ?>
<svg baseProfile="full" height="256" version="1.1" width="256" xmlns="http://www.w3.org/2000/svg" xmlns:ev="http://www.w3.org/2001/xml-events" xmlns:xlink="http://www.w3.org/1999/xlink"><defs /><path d="M101 355Q88 361 82 349Q79 342 80 338Q82 333 88 330L230 260Q243 254 249 266Q252 273 250 277Q249 282 242 285Z" fill="#9e9e9e" stroke="none" transform="scale(1,-1) translate(0,-256)" /><path d="M77 242Q63 244 61 230Q60 223 63 219Q66 215 73 214L243 184Q257 182 259 196Q260 203 257 207Q254 211 247 212Z" fill="#9e9e9e" stroke="none" transform="scale(1,-1) translate(0,-256)" /><path d="M1187 330Q1199 336 1193 349Q1190 355 1185 356Q1181 358 1174 355L1033 285Q1020 279 1026 266Q1032 254 1045 260Z" fill="#9e9e9e" stroke="none" transform="scale(1,-1) translate(0,-256)" /><path d="M1202 214Q1216 216 1214 230Q1212 244 1198 242L1028 212Q1014 210 1016 196Q1018 182 1032 184Z" fill="#9e9e9e" stroke="none" transform="scale(1,-1) translate(0,-256)" /></svg>