<?xml version="1.0" encoding="utf-8" ?>
<svg baseProfile="full" height="256" version="1.1" width="256" xmlns="http://www.w3.org/2000/svg" xmlns:ev="http://www.w3.org/2001/xml-events" xmlns:xlink="http://www.w3.org/1999/xlink"><defs /><path d="M966 246Q970 236 978.0 214.5Q986 193 994 158Q1000 137 1004.0 109.0Q1008 81 1014 50Q1020 24 1042.5 4.0Q1065 -16 1096.0 -19.0Q1127 -22 1156 0Q1181 18 1187.0 47.5Q1193 77 1185.0 107.5Q1177 138 1161 160Q1132 198 1095.0 218.0Q1058 238 1024.5 246.5Q991 255 973 257Q969 257 966.5 253.5Q964 250 966 246Z" fill="#28b3f2" stroke="none" transform="scale(1,-1) translate(0,-256)" /><path d="M309.0 246.0Q305.0 236.0 297.0 214.5Q289.0 193.0 281.0 158.0Q275.0 137.0 271.0 109.0Q267.0 81.0 261.0 50.0Q255.0 24.0 232.5 4.0Q210.0 -16.0 179.0 -19.0Q148.0 -22.0 119.0 0.0Q94.0 18.0 88.0 47.5Q82.0 77.0 90.0 107.5Q98.0 138.0 114.0 160.0Q143.0 198.0 180.0 218.0Q217.0 238.0 250.5 246.5Q284.0 255.0 302.0 257.0Q306.0 257.0 308.5 253.5Q311.0 250.0 309.0 246.0Z" fill="#28b3f2" stroke="none" transform="scale(1,-1) translate(0,-256)" /></svg>