<?xml version="1.0" encoding="utf-8" ?>
<svg baseProfile="full" height="256" version="1.1" width="256" xmlns="http://www.w3.org/2000/svg" xmlns:ev="http://www.w3.org/2001/xml-events" xmlns:xlink="http://www.w3.org/1999/xlink"><defs /><path d="M748 539Q717 533 665.0 528.0Q613 523 551.0 518.0Q489 513 425.5 508.5Q362 504 308.0 499.0Q254 494 218 489Q192 485 177.0 467.0Q162 449 162.5 427.5Q163 406 183.5 389.0Q204 372 248 369Q224 369 201.0 366.5Q178 364 155 359Q129 354 116.0 337.5Q103 321 103.5 301.0Q104 281 118.0 265.0Q132 249 158 245Q165 244 184.0 242.0Q203 240 228 238Q197 234 180.0 215.5Q163 197 164 176Q165 159 178.5 143.0Q192 127 226 119Q248 114 283.5 111.5Q319 109 361 105Q341 103 328.0 89.0Q315 75 314.0 57.5Q313 40 328.5 24.5Q344 9 382 3Q506 -16 598.0 -24.0Q690 -32 757.5 -31.5Q825 -31 877.0 -23.5Q929 -16 974 -2Q1031 14 1069.0 45.5Q1107 77 1129.5 116.5Q1152 156 1162.0 197.5Q1172 239 1172 276Q1172 334 1154.0 380.5Q1136 427 1108.5 463.0Q1081 499 1050.0 524.5Q1019 550 992.0 566.5Q965 583 949 592Q884 626 843.5 658.5Q803 691 777.5 718.0Q752 745 734.5 765.0Q717 785 699 793Q674 806 657.5 800.5Q641 795 632.5 780.5Q624 766 620.5 750.5Q617 735 618 726Q620 691 636.5 660.5Q653 630 676.0 605.0Q699 580 719.0 563.0Q739 546 748 539Z" fill="#ffca28" stroke="none" transform="scale(1,-1) translate(0,-256)" /></svg>