<?xml version="1.0" encoding="utf-8" ?>
<svg baseProfile="full" height="256" version="1.1" width="256" xmlns="http://www.w3.org/2000/svg" xmlns:ev="http://www.w3.org/2001/xml-events" xmlns:xlink="http://www.w3.org/1999/xlink"><defs /><path d="M748 539Q752 536 756.0 533.0Q760 530 763 527Q773 519 782.0 529.5Q791 540 781 549Q775 554 754.0 571.5Q733 589 706.0 616.5Q679 644 656.5 677.5Q634 711 625 748Q624 752 621 753Q617 738 618 726Q620 691 636.5 660.5Q653 630 676.0 605.0Q699 580 719.0 563.0Q739 546 748 539Z" fill="#b55e19" stroke="none" transform="scale(1,-1) translate(0,-256)" /><path d="M248 370Q255 369 281.0 369.0Q307 369 344.5 368.5Q382 368 422.0 368.0Q462 368 497.5 367.5Q533 367 556.0 367.0Q579 367 581 367Q587 367 593.5 364.0Q600 361 605 361Q614 361 615.5 367.5Q617 374 618 383Q618 383 618.0 384.0Q618 385 618 385Q619 393 618.0 399.0Q617 405 608 405Q604 405 598 402Q595 401 591.5 399.5Q588 398 583 399Q580 399 553.5 398.5Q527 398 487.5 397.5Q448 397 404.0 396.0Q360 395 321 394Q283 393 256.5 392.5Q230 392 227 392Q216 392 198.5 396.0Q181 400 171 415Q168 418 164 417Q169 402 184.0 389.0Q199 376 227 371Q236 370 242.0 370.0Q248 370 248 370Z" fill="#b55e19" stroke="none" transform="scale(1,-1) translate(0,-256)" /><path d="M227 237Q234 237 261.5 236.5Q289 236 329.0 235.5Q369 235 412.0 234.0Q455 233 493.0 232.0Q531 231 555.5 230.5Q580 230 581 230Q592 229 596.0 226.0Q600 223 608 223Q616 223 617.5 228.0Q619 233 619 240Q619 243 619 244Q619 245 619.0 245.5Q619 246 619 246Q619 254 617.5 260.0Q616 266 608 266Q599 266 597.5 262.5Q596 259 580 259Q577 259 548.0 259.0Q519 259 475.0 259.0Q431 259 382.0 259.5Q333 260 288.0 260.5Q243 261 211.5 261.5Q180 262 173 263Q137 268 125.0 277.5Q113 287 111 290Q108 293 105 293Q108 276 121.5 262.0Q135 248 158 245Q165 244 184.0 242.0Q203 240 228 238Q223 237 219 236Q223 236 225.0 236.5Q227 237 227 237Z" fill="#b55e19" stroke="none" transform="scale(1,-1) translate(0,-256)" /><path d="M360 104Q367 104 393.0 103.5Q419 103 454.0 102.5Q489 102 523.0 101.0Q557 100 580.5 99.5Q604 99 607 99Q613 98 617.5 95.5Q622 93 630 93Q639 93 639.5 99.0Q640 105 638 112Q637 119 635.0 124.5Q633 130 625 131Q621 131 619.0 130.0Q617 129 615 127Q613 126 611.0 125.0Q609 124 604 124Q600 124 574.0 124.5Q548 125 508.5 126.0Q469 127 424.5 128.0Q380 129 339.0 130.5Q298 132 268.0 133.5Q238 135 230 136Q216 138 195.5 145.5Q175 153 167 170Q166 172 164 172Q166 156 180.0 141.5Q194 127 226 119Q248 114 283.5 111.5Q319 109 361 105Q358 105 356 104Q358 104 359.0 104.0Q360 104 360 104Z" fill="#b55e19" stroke="none" transform="scale(1,-1) translate(0,-256)" /><path d="M1167 284Q1166 279 1165.0 274.0Q1164 269 1163 263Q1156 234 1145.0 197.5Q1134 161 1110.0 124.5Q1086 88 1042.0 58.0Q998 28 926.0 10.0Q854 -8 747 -6Q688 -6 624.0 -1.5Q560 3 503.5 8.5Q447 14 408.0 19.0Q369 24 359 27Q349 29 337.5 34.0Q326 39 321 47Q318 52 315 48Q318 33 333.5 20.5Q349 8 382 3Q506 -16 598.0 -24.0Q690 -32 757.5 -31.5Q825 -31 877.0 -23.5Q929 -16 974 -2Q1031 14 1069.0 45.5Q1107 77 1129.5 116.5Q1152 156 1162.0 197.5Q1172 239 1172 276Q1172 283 1172 289Q1168 289 1167 284Z" fill="#b55e19" stroke="none" transform="scale(1,-1) translate(0,-256)" /></svg>