<?xml version="1.0" encoding="utf-8" ?>
<svg baseProfile="full" height="256" version="1.1" width="256" xmlns="http://www.w3.org/2000/svg" xmlns:ev="http://www.w3.org/2001/xml-events" xmlns:xlink="http://www.w3.org/1999/xlink"><defs /><path d="M353.843994140625 659.968994140625Q437.843994140625 674.968994140625 494.843994140625 737.968994140625V738.968994140625Q499.843994140625 744.968994140625 506.843994140625 745.968994140625Q513.843994140625 746.968994140625 518.843994140625 742.968994140625Q524.843994140625 738.968994140625 526.343994140625 731.968994140625Q527.843994140625 724.968994140625 523.843994140625 718.968994140625Q509.843994140625 694.968994140625 488.843994140625 676.968994140625Q431.843994140625 624.968994140625 354.843994140625 625.968994140625Q343.843994140625 625.968994140625 339.843994140625 633.968994140625Q335.843994140625 641.968994140625 339.843994140625 649.968994140625Q343.843994140625 657.968994140625 353.843994140625 659.968994140625Z" fill="#422b0d" stroke="none" transform="scale(1,-1) translate(0,-256)" /><path d="M773.3119964599609 738.968994140625Q829.3119964599609 673.968994140625 914.3119964599609 659.968994140625Q924.3119964599609 657.968994140625 928.3119964599609 649.968994140625Q932.3119964599609 641.968994140625 928.8119964599609 633.968994140625Q925.3119964599609 625.968994140625 913.3119964599609 625.968994140625Q836.3119964599609 624.968994140625 779.3119964599609 676.968994140625Q758.3119964599609 694.968994140625 744.3119964599609 718.968994140625Q740.3119964599609 724.968994140625 741.8119964599609 731.968994140625Q743.3119964599609 738.968994140625 749.3119964599609 742.968994140625Q754.3119964599609 746.968994140625 761.3119964599609 745.968994140625Q768.3119964599609 744.968994140625 773.3119964599609 738.968994140625Z" fill="#422b0d" stroke="none" transform="scale(1,-1) translate(0,-256)" /><path d="M361 564Q327 564 316 533Q307 511 325 496Q338 484 355 482L463 457Q434 456 409.5 444.0Q385 432 370.5 421.0Q356 410 356 410Q356 410 346.5 400.5Q337 391 331.0 377.5Q325 364 337 350Q352 332 367.0 333.5Q382 335 392.5 342.5Q403 350 403 350Q454 388 491.5 403.5Q529 419 553 421Q561 422 567 428Q574 435 574.5 445.0Q575 455 568 462Q536 495 500.0 515.5Q464 536 432.5 546.0Q401 556 381.0 560.0Q361 564 361 564Z" fill="#422b0d" stroke="none" transform="scale(1,-1) translate(0,-256)" /><path d="M919 564Q952 564 963 533Q971 511 953 496Q941 484 924 482L816 457Q846 456 870.5 444.0Q895 432 909.5 421.0Q924 410 924 410Q924 410 933.5 400.5Q943 391 948.5 377.5Q954 364 943 350Q928 332 913.0 333.5Q898 335 887.5 342.5Q877 350 877 350Q825 388 788.0 403.5Q751 419 727 421Q718 422 712 428Q705 435 705.0 445.0Q705 455 712 462Q744 495 780.0 515.5Q816 536 847.5 546.0Q879 556 899.0 560.0Q919 564 919 564Z" fill="#422b0d" stroke="none" transform="scale(1,-1) translate(0,-256)" /></svg>