<?xml version="1.0" encoding="utf-8" ?>
<svg baseProfile="full" height="256" version="1.1" width="256" xmlns="http://www.w3.org/2000/svg" xmlns:ev="http://www.w3.org/2001/xml-events" xmlns:xlink="http://www.w3.org/1999/xlink"><defs /><path d="M1055 642 1098 669 962 -85Q955 -121 911.0 -150.0Q867 -179 796.5 -195.5Q726 -212 638 -212Q550 -212 478.5 -195.5Q407 -179 363.5 -150.0Q320 -121 315 -85L179 669L222 644L243 529L302 589L276 615L364 596L356 589L432 513L495 576L579 571L637 513L691 566L781 574L842 513L918 589L912 594L1004 621L972 589L1034 527ZM826 -86Q852 -79 874 -71L918 -27L842 49L766 -27ZM405 -76Q426 -83 447 -88L508 -27L432 49L356 -27ZM713 -27 637 49 561 -27 637 -103ZM664 76 740 0 815 76 740 151ZM534 0 610 76 534 151 458 76ZM534 -54 490 -98Q542 -108 592 -111ZM682 -111Q707 -109 732.5 -105.5Q758 -102 783 -97L740 -54ZM938 6 962 135 945 151 869 76ZM981 242 993 308 945 357 869 281 945 205ZM918 178 842 254 766 178 842 102ZM740 205 815 281 740 357 664 281ZM713 178 637 254 561 178 637 102ZM534 205 610 281 534 357 458 281ZM507 178 432 254 356 178 432 102ZM329 205 405 281 329 357 282 309 294 240ZM329 151 313 135 336 7 405 76ZM1002 353 1015 427 972 383ZM945 562 869 486 945 410 1021 486ZM842 459 766 383 842 308 918 383ZM740 562 664 486 740 410 815 486ZM713 383 637 459 561 383 637 308ZM534 562 458 486 534 410 610 486ZM507 383 432 459 356 383 432 308ZM329 562 253 486 329 410 405 486ZM302 383 261 425 274 355Z" fill="#000000" stroke="none" transform="scale(1,-1) translate(0,-256)" /><path d="M1045 721Q1043 711 1031.0 702.0Q1019 693 1019 693L943 769L867 693L909 652Q909 652 895.5 646.5Q882 641 863 643L840 667L787 614L691 611L635 667L577 609L485 612L430 667L408 645Q394 641 378.5 647.5Q363 654 363 654L403 694L327 769L259 701Q242 710 237.0 719.0Q232 728 232 728L300 796L278 819Q290 828 303.0 831.0Q316 834 316 834L327 823L345 841Q352 844 368.5 847.5Q385 851 399.0 853.0Q413 855 413 855L354 796L430 720L505 796L441 861L488 867L532 823L577 868L633 870L559 796L635 720L711 796L637 870L689 871L737 823L779 865Q779 865 793.5 864.5Q808 864 827 859L764 796L840 720L916 796L857 855Q857 855 875.0 854.0Q893 853 923 842L943 823L955 835Q955 835 969.0 829.5Q983 824 991 818L969 796ZM532 618 608 693 532 769 456 693ZM737 618 813 693 737 769 662 693Z" fill="#000000" stroke="none" transform="scale(1,-1) translate(0,-256)" /></svg>