<?xml version="1.0" encoding="utf-8" ?>
<svg baseProfile="full" height="256" version="1.1" width="256" xmlns="http://www.w3.org/2000/svg" xmlns:ev="http://www.w3.org/2001/xml-events" xmlns:xlink="http://www.w3.org/1999/xlink"><defs /><path d="M240.6348419189453 474.94000244140625Q213.1549835205078 474.94000244140625 186.01862335205078 467.38304138183594Q158.88226318359375 459.8260803222656 134.150390625 443.3381652832031Q161.6302490234375 466.696044921875 195.29307556152344 478.03148651123047Q228.95590209960938 489.36692810058594 262.6187286376953 489.36692810058594Q316.20445251464844 489.36692810058594 355.0197525024414 468.41353607177734Q393.8350524902344 447.46014404296875 418.9104232788086 414.48431396484375Q443.9857940673828 381.50848388671875 455.66473388671875 345.09767150878906L439.17681884765625 307.3128662109375Q437.11582946777344 302.50389099121094 431.61985778808594 302.50389099121094Q426.12388610839844 302.50389099121094 424.0628967285156 307.3128662109375Q417.19293212890625 325.8617706298828 403.4530029296875 353.6851272583008Q389.71307373046875 381.50848388671875 367.3856887817383 409.3318405151367Q345.0583038330078 437.1551971435547 313.4564666748047 456.04759979248047Q281.85462951660156 474.94000244140625 240.6348419189453 474.94000244140625Z" fill="#da2e75" stroke="none" transform="scale(1,-1) translate(0,-256)" /><path d="M649 489Q689 489 728.5 473.0Q768 457 797.5 423.0Q827 389 838.0 336.5Q849 284 832 212Q821 164 789.5 113.5Q758 63 715.0 15.0Q672 -33 627.0 -75.5Q582 -118 543.0 -150.5Q504 -183 480.0 -201.5Q456 -220 456 -220Q456 -220 457.5 -215.5Q459 -211 462 -208Q481 -186 515.0 -151.5Q549 -117 589.0 -73.5Q629 -30 667.0 18.0Q705 66 734.0 116.0Q763 166 774 213Q795 304 776.0 362.0Q757 420 713.5 447.5Q670 475 618 475Q589 475 562 464Q580 476 601.5 482.5Q623 489 649 489Z" fill="#da2e75" stroke="none" transform="scale(1,-1) translate(0,-256)" /><path d="M757 890Q737 890 716.5 884.5Q696 879 678 867Q698 884 723.0 892.5Q748 901 773 901Q833 901 868.5 867.5Q904 834 917 793L905 765Q903 761 899.0 761.5Q895 762 894 765Q889 779 878.5 800.0Q868 821 851.5 841.5Q835 862 811.5 876.0Q788 890 757 890Z" fill="#da2e75" stroke="none" transform="scale(1,-1) translate(0,-256)" /><path d="M1061 901Q1091 901 1120.5 889.0Q1150 877 1172.0 851.5Q1194 826 1202.5 787.0Q1211 748 1198 694Q1188 651 1157.0 606.0Q1126 561 1085.5 519.0Q1045 477 1006.5 444.0Q968 411 943.0 391.5Q918 372 918 372Q918 372 918.5 375.0Q919 378 922 381Q940 401 974.0 436.0Q1008 471 1046.0 514.0Q1084 557 1114.5 604.0Q1145 651 1155 695Q1170 763 1156.0 806.0Q1142 849 1110.0 869.5Q1078 890 1039 890Q1016 890 996 883Q1010 891 1026.0 896.0Q1042 901 1061 901Z" fill="#da2e75" stroke="none" transform="scale(1,-1) translate(0,-256)" /></svg>