<?xml version="1.0" encoding="utf-8" ?>
<svg baseProfile="full" height="256" version="1.1" width="256" xmlns="http://www.w3.org/2000/svg" xmlns:ev="http://www.w3.org/2001/xml-events" xmlns:xlink="http://www.w3.org/1999/xlink"><defs /><path d="M152.9731903076172 386.9361877441406Q135.11708068847656 364.9459533691406 130.9999237060547 337.4581604003906Q126.88276672363281 309.9703674316406 133.06934356689453 281.4517822265625Q139.25592041015625 252.93319702148438 152.31085205078125 228.88137817382812Q155.74623107910156 223.38381958007812 161.5847625732422 224.41461181640625Q167.4232940673828 225.44540405273438 168.10923767089844 231.63015747070312Q170.85450744628906 246.74844360351562 174.9735870361328 261.8667297363281Q179.09266662597656 276.9850158691406 186.646484375 290.7289123535156Q198.32034301757812 313.4063415527344 214.46068572998047 325.7758483886719Q230.6010284423828 338.1453552246094 250.51902770996094 352.5764465332031Q258.7608184814453 359.4483947753906 263.9108428955078 370.787109375Q269.0608673095703 382.1258239746094 267.68524169921875 393.8081359863281Q266.3096160888672 405.4904479980469 256.69166564941406 413.7367858886719Q238.1429901123047 428.1678771972656 218.90991973876953 426.44989013671875Q199.67684936523438 424.7319030761719 182.16253662109375 413.3931884765625Q164.64822387695312 402.0544738769531 152.9731903076172 386.9361877441406Z" fill="#f386ab" stroke="none" transform="scale(1,-1) translate(0,-256)" /><path d="M540 324Q552 324 579.0 332.0Q606 340 631 364Q642 375 642.5 394.0Q643 413 627 424Q611 436 589.5 427.5Q568 419 555 400Q537 376 525 345Q522 337 527.0 330.5Q532 324 540 324Z" fill="#f386ab" stroke="none" transform="scale(1,-1) translate(0,-256)" /><path d="M691.5659027099609 824.7099609375Q678.2428131103516 808.2841796875 675.1782073974609 787.751953125Q672.1136016845703 767.2197265625 676.7414855957031 745.9175415039062Q681.3693695068359 724.6153564453125 691.123291015625 706.649658203125Q693.6897430419922 702.543212890625 698.0481033325195 703.3131713867188Q702.4064636230469 704.0831298828125 702.9165191650391 708.702880859375Q704.9610137939453 719.99560546875 708.0311126708984 731.288330078125Q711.1012115478516 742.5810546875 716.7359313964844 752.84716796875Q725.4434967041016 769.7862548828125 737.4888534545898 779.0257568359375Q749.5342102050781 788.2652587890625 764.3990631103516 799.044677734375Q770.5496368408203 804.177734375 774.3906173706055 812.6472778320312Q778.2315979003906 821.1168212890625 777.2008056640625 829.843017578125Q776.1700134277344 838.5692138671875 768.9871215820312 844.7288818359375Q755.1350555419922 855.50830078125 740.7773590087891 854.2250366210938Q726.4196624755859 852.9417724609375 713.3482437133789 844.4722290039062Q700.2768249511719 836.002685546875 691.5659027099609 824.7099609375Z" fill="#f386ab" stroke="none" transform="scale(1,-1) translate(0,-256)" /><path d="M980 778Q990 778 1010.0 784.0Q1030 790 1048 807Q1057 816 1057.0 830.0Q1057 844 1045 853Q1033 861 1017.0 854.5Q1001 848 991 835Q978 816 969 794Q967 788 970.5 783.0Q974 778 980 778Z" fill="#f386ab" stroke="none" transform="scale(1,-1) translate(0,-256)" /></svg>