<?xml version="1.0" encoding="utf-8" ?>
<svg baseProfile="full" height="256" version="1.1" width="256" xmlns="http://www.w3.org/2000/svg" xmlns:ev="http://www.w3.org/2001/xml-events" xmlns:xlink="http://www.w3.org/1999/xlink"><defs /><path d="M1144 509Q1147 520 1158.5 518.5Q1170 517 1171 505Q1174 461 1172.0 400.5Q1170 340 1154.5 272.0Q1139 204 1101.0 138.5Q1063 73 996.0 18.0Q929 -37 823.5 -72.5Q718 -108 567 -114L797 175Q886 193 945.0 224.5Q1004 256 1039.5 293.5Q1075 331 1094.5 370.5Q1114 410 1124.5 446.0Q1135 482 1144 509Z" fill="#000000" stroke="none" transform="scale(1,-1) translate(0,-256)" /><path d="M760 836V642Q760 642 738.5 653.0Q717 664 675.5 675.0Q634 686 573.0 687.5Q512 689 433 670Q355 654 305.0 627.5Q255 601 221.5 569.0Q188 537 161 501Q153 491 147.0 492.5Q141 494 142 501Q150 555 176.5 611.0Q203 667 252.0 716.5Q301 766 375 799Q464 838 535.0 849.0Q606 860 656.0 856.5Q706 853 733.0 844.5Q760 836 760 836Z" fill="#000000" stroke="none" transform="scale(1,-1) translate(0,-256)" /></svg>