<?xml version="1.0" encoding="utf-8" ?>
<svg baseProfile="full" height="256" version="1.1" width="256" xmlns="http://www.w3.org/2000/svg" xmlns:ev="http://www.w3.org/2001/xml-events" xmlns:xlink="http://www.w3.org/1999/xlink"><defs /><path d="M769 668Q774 660 765.5 651.0Q757 642 749 626Q743 614 743.0 597.0Q743 580 743.0 570.0Q743 560 736 567Q726 578 725.5 600.0Q725 622 733 640Q739 656 751.5 666.0Q764 676 769 668Z" fill="#a62616" stroke="none" transform="scale(1,-1) translate(0,-256)" /><path d="M487 680Q493 686 502.0 679.0Q511 672 520 656Q527 644 529.0 623.5Q531 603 529.0 583.5Q527 564 522 557Q516 550 514.5 560.0Q513 570 512.5 584.5Q512 599 511 607Q508 621 504.5 631.5Q501 642 496 653Q492 665 486.5 669.5Q481 674 487 680Z" fill="#a62616" stroke="none" transform="scale(1,-1) translate(0,-256)" /><path d="M808 354Q805 365 821.0 366.0Q837 367 857.5 362.5Q878 358 887 352Q901 343 909.5 329.5Q918 316 920 309Q922 301 926.0 286.0Q930 271 930 271Q930 271 935.5 271.5Q941 272 947 273Q953 274 963.0 282.0Q973 290 981 295Q988 300 1002.0 308.5Q1016 317 1028.5 322.5Q1041 328 1042 324Q1043 321 1034.0 313.0Q1025 305 1013.5 296.5Q1002 288 995 283Q986 277 975.5 267.0Q965 257 958 254Q950 251 940.5 251.5Q931 252 931 252Q931 252 931.5 244.5Q932 237 931 229Q930 221 929.5 209.0Q929 197 929 197Q929 197 950.0 201.5Q971 206 988 210Q1008 215 1030.0 218.5Q1052 222 1052 218Q1052 215 1039.5 209.5Q1027 204 1011.5 198.5Q996 193 989 191Q982 189 967.0 185.0Q952 181 940.0 178.0Q928 175 928 175Q928 175 927.5 166.5Q927 158 925 149Q924 140 922.0 129.5Q920 119 920 119Q920 119 932.0 118.5Q944 118 958 120Q969 121 985.0 121.5Q1001 122 1011.5 120.5Q1022 119 1019 114Q1016 109 993.5 107.0Q971 105 951 103Q934 101 925.5 101.0Q917 101 917 101Q917 101 914.0 90.0Q911 79 906 65Q902 51 897.5 41.0Q893 31 893 31Q893 31 901.5 30.0Q910 29 919.0 26.0Q928 23 927 19Q926 14 915.5 13.0Q905 12 894.0 12.0Q883 12 883 12Q883 12 875.5 3.0Q868 -6 850 -18Q839 -26 838.0 -25.0Q837 -24 840.0 -20.0Q843 -16 846 -12Q848 -9 856.5 5.0Q865 19 874.0 36.5Q883 54 887 68Q889 73 894.5 97.0Q900 121 905.5 154.0Q911 187 912 221Q913 272 901.0 298.5Q889 325 871 334Q859 341 844.5 343.0Q830 345 819.5 346.5Q809 348 808 354Z" fill="#a62616" stroke="none" transform="scale(1,-1) translate(0,-256)" /></svg>