<?xml version="1.0" encoding="utf-8" ?>
<svg baseProfile="full" height="256" version="1.1" width="256" xmlns="http://www.w3.org/2000/svg" xmlns:ev="http://www.w3.org/2001/xml-events" xmlns:xlink="http://www.w3.org/1999/xlink"><defs /><path d="M437 700 323 517Q323 517 310.0 507.5Q297 498 285.0 480.5Q273 463 276 440Q279 417 289.0 405.0Q299 393 308.0 389.0Q317 385 317 385Q317 385 318.0 377.0Q319 369 324 355Q329 341 339.0 328.0Q349 315 347 311Q344 308 338.5 311.5Q333 315 333 315Q333 315 329.0 312.5Q325 310 321 303Q316 296 316.0 283.5Q316 271 316 271Q316 271 305.5 280.0Q295 289 279.5 300.5Q264 312 251.0 321.5Q238 331 234 332Q225 335 216.5 330.5Q208 326 208 326Q208 326 215.0 319.0Q222 312 230 304Q234 300 247.5 289.5Q261 279 277.0 266.5Q293 254 304.5 245.0Q316 236 316 236L157 255L123 210Q123 210 136.0 210.0Q149 210 162 207Q179 202 194.0 197.5Q209 193 231 186Q247 181 265.5 176.5Q284 172 297.5 167.5Q311 163 311 161Q310 158 297.5 151.5Q285 145 270.0 138.5Q255 132 248 129Q238 124 236.0 112.0Q234 100 237 96Q239 93 249.0 93.0Q259 93 271.0 94.0Q283 95 290 95Q301 93 316.0 91.5Q331 90 332 84Q332 80 322.0 70.0Q312 60 301.5 52.0Q291 44 291 44Q291 44 292.0 35.0Q293 26 294.5 18.0Q296 10 300 11Q305 13 321.0 12.0Q337 11 348 10Q356 10 375.5 5.0Q395 0 412.5 -4.5Q430 -9 430 -9L471 17L401 289L364 368L371 418Q371 418 377.5 423.5Q384 429 390 445Q393 453 393.5 461.0Q394 469 394 469Q394 469 411.0 479.5Q428 490 450.5 504.5Q473 519 492.5 531.5Q512 544 518 549Q529 557 530.5 576.5Q532 596 532 606Q532 612 525.5 627.0Q519 642 513.0 654.5Q507 667 507 667Q507 667 520.5 677.0Q534 687 551.0 701.0Q568 715 579.5 728.5Q591 742 587 748Q584 755 566.5 753.0Q549 751 525.0 742.5Q501 734 477.0 722.5Q453 711 437 700Z" fill="#fa1c1f" stroke="none" transform="scale(1,-1) translate(0,-256)" /><path d="M692 746Q694 754 706.5 753.0Q719 752 734.5 747.0Q750 742 761.0 737.5Q772 733 772 733L980 521Q980 521 986.5 511.0Q993 501 999.0 485.0Q1005 469 1004 453Q1003 428 992.5 418.5Q982 409 982 409Q982 409 985.0 401.5Q988 394 980 377Q973 362 960.0 351.0Q947 340 936.0 332.5Q925 325 925 320Q925 315 930.5 316.5Q936 318 941.5 321.5Q947 325 947 325L1044 359L1079 349Q1079 349 1067.0 340.5Q1055 332 1038.5 320.0Q1022 308 1009 299Q989 285 973.5 269.5Q958 254 958 254L1079 265Q1079 265 1093.5 264.5Q1108 264 1124.0 260.0Q1140 256 1145 247Q1151 238 1144.5 236.0Q1138 234 1128.5 234.5Q1119 235 1114 234Q1109 232 1087.5 226.5Q1066 221 1043.0 214.5Q1020 208 1008 203Q992 197 972.5 186.0Q953 175 953 175L1015 150Q1015 150 1022.5 138.0Q1030 126 1032 118Q1035 110 1018.0 114.5Q1001 119 980 118Q959 117 947.0 108.0Q935 99 935 99Q935 99 944.5 90.5Q954 82 964.0 71.5Q974 61 975 56Q978 48 982.5 36.0Q987 24 987 24L876 13L854 128L881 338Q881 338 888.5 348.0Q896 358 905.5 372.0Q915 386 921.0 397.5Q927 409 923 413Q919 417 911.5 426.5Q904 436 898.0 443.5Q892 451 892 451L818 525Q818 525 802.0 530.0Q786 535 767.0 543.5Q748 552 740 562Q732 572 734.0 589.5Q736 607 741.0 621.5Q746 636 746 636L747 659Q747 659 738.0 668.5Q729 678 717.0 692.0Q705 706 697.5 721.0Q690 736 692 746Z" fill="#fa1c1f" stroke="none" transform="scale(1,-1) translate(0,-256)" /></svg>