<?xml version="1.0" encoding="utf-8" ?>
<svg baseProfile="full" height="256" version="1.1" width="256" xmlns="http://www.w3.org/2000/svg" xmlns:ev="http://www.w3.org/2001/xml-events" xmlns:xlink="http://www.w3.org/1999/xlink"><defs /><path d="M931 373Q961 329 978.5 277.0Q996 225 996 167Q996 93 968.0 28.0Q940 -37 891.0 -86.5Q842 -136 777.0 -163.5Q712 -191 638 -191Q563 -191 498.0 -163.5Q433 -136 384.0 -86.5Q335 -37 307.0 28.0Q279 93 279 167Q279 225 296.5 277.0Q314 329 345 373Q329 341 321.0 306.0Q313 271 313 233Q313 166 338.0 107.0Q363 48 408.0 3.5Q453 -41 511.5 -66.0Q570 -91 638 -91Q705 -91 764.0 -66.0Q823 -41 867.5 3.5Q912 48 937.0 107.0Q962 166 962 233Q962 271 954.0 306.0Q946 341 931 373Z" fill="#4b8a99" stroke="none" transform="scale(1,-1) translate(0,-256)" /></svg>