<?xml version="1.0" encoding="utf-8" ?>
<svg baseProfile="full" height="256" version="1.1" width="256" xmlns="http://www.w3.org/2000/svg" xmlns:ev="http://www.w3.org/2001/xml-events" xmlns:xlink="http://www.w3.org/1999/xlink"><defs /><path d="M457 552Q457 552 469.5 550.0Q482 548 510.0 550.5Q538 553 584.5 566.5Q631 580 699 611Q778 646 830.0 677.5Q882 709 913.5 738.0Q945 767 961.5 795.0Q978 823 987 852Q987 852 943.5 839.5Q900 827 829.0 797.0Q758 767 674 715Q639 693 601.0 665.0Q563 637 530.5 611.0Q498 585 477.5 568.5Q457 552 457 552Z" fill="#bae2fd" stroke="none" transform="scale(1,-1) translate(0,-256)" /></svg>