<?xml version="1.0" encoding="utf-8" ?>
<svg baseProfile="full" height="256" version="1.1" width="256" xmlns="http://www.w3.org/2000/svg" xmlns:ev="http://www.w3.org/2001/xml-events" xmlns:xlink="http://www.w3.org/1999/xlink"><defs /><path d="M1093.2642669677734 64.54548645019531Q1093.2642669677734 70.71754455566406 1090.9497451782227 76.14469909667969Q1088.6352233886719 81.57185363769531 1084.5116500854492 85.69542694091797Q1080.3880767822266 89.81900024414062 1074.960922241211 92.16012573242188Q1069.5337677001953 94.50125122070312 1063.3617095947266 94.50125122070312Q1057.1364440917969 94.50125122070312 1051.7092895507812 92.16012573242188Q1046.2821350097656 89.81900024414062 1042.158561706543 85.69542694091797Q1038.0349884033203 81.57185363769531 1035.7204666137695 76.14469909667969Q1033.4059448242188 70.71754455566406 1033.4059448242188 64.54548645019531Q1033.4059448242188 58.37342834472656 1035.7204666137695 52.94627380371094Q1038.0349884033203 47.51911926269531 1042.158561706543 43.395545959472656Q1046.2821350097656 39.27197265625 1051.7092895507812 36.95745086669922Q1057.1364440917969 34.64292907714844 1063.3617095947266 34.64292907714844Q1069.5337677001953 34.64292907714844 1074.960922241211 36.95745086669922Q1080.3880767822266 39.27197265625 1084.5116500854492 43.395545959472656Q1088.6352233886719 47.51911926269531 1090.9497451782227 52.94627380371094Q1093.2642669677734 58.37342834472656 1093.2642669677734 64.54548645019531Z" fill="#7986cb" stroke="none" transform="scale(1,-1) translate(0,-256)" /></svg>