<?xml version="1.0" encoding="utf-8" ?>
<svg baseProfile="full" height="256" version="1.1" width="256" xmlns="http://www.w3.org/2000/svg" xmlns:ev="http://www.w3.org/2001/xml-events" xmlns:xlink="http://www.w3.org/1999/xlink"><defs /><path d="M1145 352Q1098 368 1084 416Q1083 419 1080.0 419.0Q1077 419 1076 416Q1061 369 1013 355Q1010 354 1010.0 351.5Q1010 349 1013 348Q1060 332 1073 284Q1074 281 1077.0 281.0Q1080 281 1081 284Q1097 331 1144 345Q1147 346 1147.0 348.5Q1147 351 1145 352Z" fill="#fff176" stroke="none" transform="scale(1,-1) translate(0,-256)" /><path d="M987.3269805908203 195.13902282714844Q987.3269805908203 199.8030242919922 985.5779800415039 203.9041290283203Q983.8289794921875 208.00523376464844 980.7129440307617 211.12126922607422Q977.5969085693359 214.2373046875 973.4958038330078 216.00640869140625Q969.3946990966797 217.7755126953125 964.7306976318359 217.7755126953125Q960.0264892578125 217.7755126953125 955.9253845214844 216.00640869140625Q951.8242797851562 214.2373046875 948.7082443237305 211.12126922607422Q945.5922088623047 208.00523376464844 943.8432083129883 203.9041290283203Q942.0942077636719 199.8030242919922 942.0942077636719 195.13902282714844Q942.0942077636719 190.4750213623047 943.8432083129883 186.37391662597656Q945.5922088623047 182.27281188964844 948.7082443237305 179.15677642822266Q951.8242797851562 176.04074096679688 955.9253845214844 174.29174041748047Q960.0264892578125 172.54273986816406 964.7306976318359 172.54273986816406Q969.3946990966797 172.54273986816406 973.4958038330078 174.29174041748047Q977.5969085693359 176.04074096679688 980.7129440307617 179.15677642822266Q983.8289794921875 182.27281188964844 985.5779800415039 186.37391662597656Q987.3269805908203 190.4750213623047 987.3269805908203 195.13902282714844Z" fill="#fff176" stroke="none" transform="scale(1,-1) translate(0,-256)" /><path d="M244.54579162597656 786.1391143798828Q244.54579162597656 790.8031158447266 242.79679107666016 794.9042205810547Q241.04779052734375 799.0053253173828 237.93175506591797 802.1213607788086Q234.8157196044922 805.2373962402344 230.71461486816406 807.0065002441406Q226.61351013183594 808.7756042480469 221.9495086669922 808.7756042480469Q217.24530029296875 808.7756042480469 213.14419555664062 807.0065002441406Q209.0430908203125 805.2373962402344 205.92705535888672 802.1213607788086Q202.81101989746094 799.0053253173828 201.06201934814453 794.9042205810547Q199.31301879882812 790.8031158447266 199.31301879882812 786.1391143798828Q199.31301879882812 781.4751129150391 201.06201934814453 777.3740081787109Q202.81101989746094 773.2729034423828 205.92705535888672 770.156867980957Q209.0430908203125 767.0408325195312 213.14419555664062 765.2918319702148Q217.24530029296875 763.5428314208984 221.9495086669922 763.5428314208984Q226.61351013183594 763.5428314208984 230.71461486816406 765.2918319702148Q234.8157196044922 767.0408325195312 237.93175506591797 770.156867980957Q241.04779052734375 773.2729034423828 242.79679107666016 777.3740081787109Q244.54579162597656 781.4751129150391 244.54579162597656 786.1391143798828Z" fill="#fff176" stroke="none" transform="scale(1,-1) translate(0,-256)" /></svg>