<?xml version="1.0" encoding="utf-8" ?>
<svg baseProfile="full" height="256" version="1.1" width="256" xmlns="http://www.w3.org/2000/svg" xmlns:ev="http://www.w3.org/2001/xml-events" xmlns:xlink="http://www.w3.org/1999/xlink"><defs /><path d="M543 887 499 -27Q499 -27 525.0 -32.0Q551 -37 593.5 -40.0Q636 -43 687.0 -39.0Q738 -35 790.5 -17.5Q843 0 887 38Q953 94 991.5 162.0Q1030 230 1046.0 302.5Q1062 375 1059.5 447.0Q1057 519 1041 583Q1023 656 991.0 708.5Q959 761 921.0 797.0Q883 833 847.5 855.0Q812 877 787 888Q762 898 729.5 902.5Q697 907 667.0 907.0Q637 907 617.0 906.0Q597 905 597 905Q597 905 583.5 901.5Q570 898 556.5 893.5Q543 889 543 887Z" fill="#871e0e" stroke="none" transform="scale(1,-1) translate(0,-256)" /></svg>