<?xml version="1.0" encoding="utf-8" ?>
<svg baseProfile="full" height="256" version="1.1" width="256" xmlns="http://www.w3.org/2000/svg" xmlns:ev="http://www.w3.org/2001/xml-events" xmlns:xlink="http://www.w3.org/1999/xlink"><defs /><path d="M963 468Q963 468 961.5 481.5Q960 495 958.0 514.0Q956 533 955.5 551.0Q955 569 956.5 579.0Q958 589 965 583Q975 573 983.0 551.0Q991 529 998.0 503.5Q1005 478 1012 460Q1020 435 1031.0 406.0Q1042 377 1059 335Q1070 308 1083.5 279.5Q1097 251 1110.0 226.5Q1123 202 1131.0 187.0Q1139 172 1139 172L1125 117Q1125 117 1117.0 130.5Q1109 144 1098.5 162.0Q1088 180 1081 193Q1070 211 1053.0 244.0Q1036 277 1019 318Q1012 337 1002.5 361.5Q993 386 984.5 409.5Q976 433 970.0 449.5Q964 466 963 468Z" fill="#c0b3ae" stroke="none" transform="scale(1,-1) translate(0,-256)" /><path d="M656 -98Q656 -98 662.5 -90.5Q669 -83 679.5 -76.0Q690 -69 703 -70Q717 -71 734.0 -74.5Q751 -78 764.0 -81.0Q777 -84 777 -84L807 -94L820 -92Q820 -92 832.5 -90.0Q845 -88 852 -87Q858 -86 866.5 -83.0Q875 -80 875 -80Q875 -80 885.0 -80.0Q895 -80 898 -86Q900 -89 896.5 -98.5Q893 -108 887 -111Q886 -111 880.0 -113.0Q874 -115 874 -115Q874 -115 887.5 -118.5Q901 -122 918 -125Q935 -127 935.0 -134.0Q935 -141 935 -141Q935 -141 923.0 -148.5Q911 -156 890 -152Q869 -149 854.0 -144.5Q839 -140 839 -140Q839 -140 833.0 -148.5Q827 -157 812 -157Q800 -157 795.0 -150.5Q790 -144 789.0 -137.5Q788 -131 788 -131L728 -118Q728 -118 725.0 -116.0Q722 -114 711 -107Q708 -104 694.5 -102.0Q681 -100 668.5 -99.0Q656 -98 656 -98Z" fill="#c0b3ae" stroke="none" transform="scale(1,-1) translate(0,-256)" /></svg>