<?xml version="1.0" encoding="utf-8" ?>
<svg baseProfile="full" height="256" version="1.1" width="256" xmlns="http://www.w3.org/2000/svg" xmlns:ev="http://www.w3.org/2001/xml-events" xmlns:xlink="http://www.w3.org/1999/xlink"><defs /><path d="M735 900Q735 900 724.0 875.5Q713 851 695.5 810.5Q678 770 657.0 721.0Q636 672 614.5 623.0Q593 574 574.5 532.0Q556 490 544.5 463.0Q533 436 531 433Q530 429 536.0 402.0Q542 375 554.0 333.0Q566 291 583.0 242.0Q600 193 620.0 144.0Q640 95 661.5 55.5Q683 16 705.0 -7.5Q727 -31 747 -29Q795 -25 841.5 -10.5Q888 4 935.5 35.0Q983 66 1033 121Q1066 157 1090.5 209.0Q1115 261 1128.0 323.0Q1141 385 1139.5 451.5Q1138 518 1118.5 582.0Q1099 646 1059 702Q1014 764 967.5 802.5Q921 841 879.5 861.5Q838 882 805.0 890.0Q772 898 753.5 899.0Q735 900 735 900Z" fill="#db0d2a" stroke="none" transform="scale(1,-1) translate(0,-256)" /><path d="M554 909Q639 912 718.0 882.5Q797 853 860.0 793.5Q923 734 960.5 646.0Q998 558 999 443Q1001 324 964.0 233.0Q927 142 861.0 81.0Q795 20 708.5 -9.5Q622 -39 525 -34Q437 -30 363.0 10.0Q289 50 235.0 114.5Q181 179 151.5 259.5Q122 340 122 426Q122 517 151.0 602.5Q180 688 236.0 755.5Q292 823 372.5 864.5Q453 906 554 909Z" fill="#db0d2a" stroke="none" transform="scale(1,-1) translate(0,-256)" /></svg>