<?xml version="1.0" encoding="utf-8" ?>
<svg baseProfile="full" height="256" version="1.1" width="256" xmlns="http://www.w3.org/2000/svg" xmlns:ev="http://www.w3.org/2001/xml-events" xmlns:xlink="http://www.w3.org/1999/xlink"><defs /><path d="M875 -80Q875 -80 883.0 -76.0Q891 -72 900 -66Q910 -60 914.5 -54.5Q919 -49 923 -47Q932 -44 938.0 -50.0Q944 -56 944 -64Q944 -72 935.5 -80.0Q927 -88 917 -94Q904 -103 895.5 -106.5Q887 -110 887 -110Q887 -110 886.5 -104.0Q886 -98 884 -94Q882 -89 878.5 -84.5Q875 -80 875 -80Z" fill="#d8ccc7" stroke="none" transform="scale(1,-1) translate(0,-256)" /><path d="M918 -125Q918 -125 935.0 -126.0Q952 -127 978.5 -125.5Q1005 -124 1036.0 -116.5Q1067 -109 1096.5 -92.0Q1126 -75 1147 -45Q1164 -20 1161.0 11.5Q1158 43 1146.0 72.5Q1134 102 1123.0 121.0Q1112 140 1112 140Q1112 140 1115.0 148.0Q1118 156 1124 163Q1130 170 1133.0 173.5Q1136 177 1136 177Q1136 177 1148.5 157.5Q1161 138 1175.5 111.5Q1190 85 1195 64Q1205 28 1200.0 -8.0Q1195 -44 1181 -66Q1164 -94 1138.5 -111.0Q1113 -128 1088.5 -137.5Q1064 -147 1049 -150Q1008 -160 970.5 -159.5Q933 -159 908.5 -155.5Q884 -152 884 -152Q884 -152 892.5 -145.0Q901 -138 909.5 -131.0Q918 -124 918 -125Z" fill="#d8ccc7" stroke="none" transform="scale(1,-1) translate(0,-256)" /><path d="M801 -92Q801 -92 779.0 -92.5Q757 -93 723 -102Q698 -109 665.5 -126.0Q633 -143 600.0 -159.5Q567 -176 542 -181Q530 -184 520.0 -177.0Q510 -170 511.0 -156.5Q512 -143 531 -127Q545 -115 566.0 -109.0Q587 -103 607.5 -100.5Q628 -98 642.0 -98.0Q656 -98 657 -98Q658 -98 671.0 -91.0Q684 -84 697.0 -77.0Q710 -70 710 -70Q710 -70 678.0 -67.0Q646 -64 603 -67Q581 -69 556.0 -77.5Q531 -86 509.5 -100.5Q488 -115 478.0 -135.5Q468 -156 477 -183Q486 -209 505.5 -215.5Q525 -222 551.0 -217.0Q577 -212 603.5 -200.5Q630 -189 652.0 -176.5Q674 -164 687 -158Q708 -147 731.0 -141.5Q754 -136 770.5 -133.5Q787 -131 787 -131Q787 -131 800.0 -130.0Q813 -129 824 -120Q831 -114 835.0 -106.0Q839 -98 843 -88Q844 -88 841.5 -83.0Q839 -78 832 -76Q816 -73 808.5 -82.5Q801 -92 801 -92Z" fill="#d8ccc7" stroke="none" transform="scale(1,-1) translate(0,-256)" /></svg>