<?xml version="1.0" encoding="utf-8" ?>
<svg baseProfile="full" height="256" version="1.1" width="256" xmlns="http://www.w3.org/2000/svg" xmlns:ev="http://www.w3.org/2001/xml-events" xmlns:xlink="http://www.w3.org/1999/xlink"><defs /><path d="M551 439 545 343Q545 343 534.0 333.5Q523 324 508 319Q492 314 481.0 315.5Q470 317 469 307Q468 289 562 296Q608 299 628.0 311.5Q648 324 648 324Q648 324 693.0 319.5Q738 315 811 324Q852 329 877.5 340.5Q903 352 915.5 361.5Q928 371 928 371Q928 371 930.0 389.0Q932 407 933 429Q934 479 926.0 501.0Q918 523 918 523L664 424Q664 424 659.5 437.5Q655 451 650 461Q646 471 640.0 483.5Q634 496 634 496Z" fill="#08a5eb" stroke="none" transform="scale(1,-1) translate(0,-256)" /></svg>