<?xml version="1.0" encoding="utf-8" ?>
<svg baseProfile="full" height="256" version="1.1" width="256" xmlns="http://www.w3.org/2000/svg" xmlns:ev="http://www.w3.org/2001/xml-events" xmlns:xlink="http://www.w3.org/1999/xlink"><defs /><path d="M297 85Q297 85 273.0 82.5Q249 80 218 79Q198 79 175.5 74.0Q153 69 136.5 66.0Q120 63 117 69Q115 75 125.0 89.0Q135 103 150 119Q165 135 193.0 150.0Q221 165 244 166Q267 167 286.0 161.0Q305 155 320 143Q335 132 341.0 119.0Q347 106 347 106Q347 106 360.5 101.5Q374 97 391 89Q409 81 419.5 71.0Q430 61 430 61Q430 61 432.0 46.5Q434 32 424.5 9.0Q415 -14 381 -41Q357 -59 324.0 -74.0Q291 -89 264.5 -96.0Q238 -103 234 -98Q227 -92 231.0 -63.5Q235 -35 250 4Q264 42 280.5 63.5Q297 85 297 85Z" fill="#6e9921" stroke="none" transform="scale(1,-1) translate(0,-256)" /></svg>