<?xml version="1.0" encoding="utf-8" ?>
<svg baseProfile="full" height="256" version="1.1" width="256" xmlns="http://www.w3.org/2000/svg" xmlns:ev="http://www.w3.org/2001/xml-events" xmlns:xlink="http://www.w3.org/1999/xlink"><defs /><path d="M570 383Q570 389 584.0 390.5Q598 392 616 406Q632 419 634.5 432.5Q637 446 643 446Q648 446 651.5 433.5Q655 421 667 411Q679 399 698.0 396.5Q717 394 717 388Q718 382 702.0 379.0Q686 376 674 367Q663 358 657.0 340.5Q651 323 645 323Q638 323 634.0 336.0Q630 349 616 361Q606 371 588.0 373.5Q570 376 570 383Z" fill="#fffffd" stroke="none" transform="scale(1,-1) translate(0,-256)" /></svg>