<?xml version="1.0" encoding="utf-8" ?>
<svg baseProfile="full" height="256" version="1.1" width="256" xmlns="http://www.w3.org/2000/svg" xmlns:ev="http://www.w3.org/2001/xml-events" xmlns:xlink="http://www.w3.org/1999/xlink"><defs /><path d="M766 570Q768 587 785 586Q796 586 799.5 580.0Q803 574 804 568Q804 560 799.5 554.0Q795 548 784 548Q764 548 766 570Z" fill="#fffefd" stroke="none" transform="scale(1,-1) translate(0,-256)" /><path d="M874 421Q875 430 881.0 435.0Q887 440 895 439Q906 439 909.0 432.0Q912 425 912 418Q913 411 908.0 403.5Q903 396 892 396Q883 396 878.0 403.5Q873 411 874 421Z" fill="#fffefd" stroke="none" transform="scale(1,-1) translate(0,-256)" /><path d="M531 577Q534 595 551 595Q560 595 564.5 589.0Q569 583 569 577Q570 569 565.5 562.0Q561 555 549 555Q540 554 535.0 560.5Q530 567 531 577Z" fill="#fffefd" stroke="none" transform="scale(1,-1) translate(0,-256)" /><path d="M378 451Q379 472 400 471Q411 470 415.5 463.5Q420 457 420 451Q420 443 415.0 435.5Q410 428 399 428Q375 428 378 451Z" fill="#fffefd" stroke="none" transform="scale(1,-1) translate(0,-256)" /><path d="M343 329Q345 349 364 348Q375 347 379.0 340.5Q383 334 383 327Q383 319 378.5 311.5Q374 304 363 304Q341 304 343 329Z" fill="#fffefd" stroke="none" transform="scale(1,-1) translate(0,-256)" /><path d="M405 246Q415 263 430 255Q438 250 438.0 243.0Q438 236 436 230Q433 223 426.0 218.0Q419 213 410 217Q392 225 405 246Z" fill="#fffefd" stroke="none" transform="scale(1,-1) translate(0,-256)" /><path d="M466 153Q468 171 486 171Q496 171 500.0 164.0Q504 157 504 151Q504 143 499.5 136.5Q495 130 485 130Q464 130 466 153Z" fill="#fffefd" stroke="none" transform="scale(1,-1) translate(0,-256)" /><path d="M577 124Q581 143 599 141Q609 140 613.0 133.0Q617 126 616 119Q615 111 610.0 104.5Q605 98 594 99Q585 100 580.0 107.0Q575 114 577 124Z" fill="#fffefd" stroke="none" transform="scale(1,-1) translate(0,-256)" /><path d="M694 82Q696 104 715 103Q728 103 731.5 94.5Q735 86 736 80Q736 71 731.5 63.5Q727 56 715 56Q691 56 694 82Z" fill="#fffefd" stroke="none" transform="scale(1,-1) translate(0,-256)" /><path d="M821 230Q823 247 841 247Q850 247 854.0 240.5Q858 234 859 228Q859 221 854.5 215.0Q850 209 840 209Q832 209 826.0 214.0Q820 219 821 230Z" fill="#fffefd" stroke="none" transform="scale(1,-1) translate(0,-256)" /><path d="M905 270Q904 288 921 290Q930 292 935.5 286.0Q941 280 942 273Q943 264 939.0 257.0Q935 250 926 249Q905 248 905 270Z" fill="#fffefd" stroke="none" transform="scale(1,-1) translate(0,-256)" /><path d="M941 833Q943 858 968 856Q982 855 987.5 847.0Q993 839 994 831Q994 821 988.0 812.0Q982 803 967 803Q938 803 941 833Z" fill="#fffefd" stroke="none" transform="scale(1,-1) translate(0,-256)" /><path d="M1085 770Q1094 767 1098.0 758.0Q1102 749 1098 741Q1094 729 1085.0 727.0Q1076 725 1069 727Q1060 730 1054.0 737.5Q1048 745 1052 757Q1060 779 1085 770Z" fill="#fffefd" stroke="none" transform="scale(1,-1) translate(0,-256)" /><path d="M1135 499Q1138 517 1156 516Q1166 515 1170.0 509.5Q1174 504 1175 498Q1175 489 1169.5 481.5Q1164 474 1154 474Q1145 474 1139.0 480.0Q1133 486 1135 499Z" fill="#fffefd" stroke="none" transform="scale(1,-1) translate(0,-256)" /><path d="M1116 292Q1129 309 1146 297Q1155 290 1155.5 282.0Q1156 274 1152 267Q1147 259 1138.0 255.0Q1129 251 1119 258Q1111 263 1109.5 272.5Q1108 282 1116 292Z" fill="#fffefd" stroke="none" transform="scale(1,-1) translate(0,-256)" /><path d="M1120 127Q1122 148 1140 147Q1150 146 1154.5 140.0Q1159 134 1159 128Q1159 120 1154.5 112.5Q1150 105 1139 105Q1118 105 1120 127Z" fill="#fffefd" stroke="none" transform="scale(1,-1) translate(0,-256)" /><path d="M995 -119Q1016 -120 1016 -139Q1016 -150 1009.5 -154.5Q1003 -159 997 -159Q989 -160 981.0 -156.5Q973 -153 972 -142Q972 -132 977.5 -125.0Q983 -118 995 -119Z" fill="#fffefd" stroke="none" transform="scale(1,-1) translate(0,-256)" /><path d="M739 -141Q741 -120 761 -121Q772 -122 776.5 -128.5Q781 -135 781 -142Q782 -150 777.0 -158.0Q772 -166 760 -166Q737 -166 739 -141Z" fill="#fffefd" stroke="none" transform="scale(1,-1) translate(0,-256)" /><path d="M473 -137Q472 -127 477.5 -120.0Q483 -113 492 -111Q504 -109 510.0 -115.0Q516 -121 517 -128Q520 -137 517.0 -146.5Q514 -156 501 -158Q491 -161 483.0 -156.0Q475 -151 473 -137Z" fill="#fffefd" stroke="none" transform="scale(1,-1) translate(0,-256)" /><path d="M248 58Q256 73 273 65Q282 61 283.5 54.0Q285 47 283 41Q280 34 273.5 29.0Q267 24 257 28Q249 32 246.0 39.5Q243 47 248 58Z" fill="#fffefd" stroke="none" transform="scale(1,-1) translate(0,-256)" /><path d="M148 2Q146 12 151.0 21.0Q156 30 165 32Q177 35 184.5 28.5Q192 22 194 15Q197 6 194.0 -3.5Q191 -13 179 -17Q170 -20 160.5 -16.0Q151 -12 148 2Z" fill="#fffefd" stroke="none" transform="scale(1,-1) translate(0,-256)" /><path d="M156 356Q173 371 187 358Q194 351 192.5 341.5Q191 332 186 326Q180 319 170.0 316.5Q160 314 152 320Q146 326 145.5 336.5Q145 347 156 356Z" fill="#fffefd" stroke="none" transform="scale(1,-1) translate(0,-256)" /><path d="M136 595Q150 615 170 604Q181 597 182.5 588.5Q184 580 181 573Q177 564 167.0 559.0Q157 554 146 559Q136 564 132.5 574.5Q129 585 136 595Z" fill="#fffefd" stroke="none" transform="scale(1,-1) translate(0,-256)" /><path d="M270 810Q273 821 281.5 826.0Q290 831 300 829Q312 826 316.0 818.0Q320 810 319 802Q318 792 311.0 784.0Q304 776 290 778Q279 779 273.0 787.0Q267 795 270 810Z" fill="#fffefd" stroke="none" transform="scale(1,-1) translate(0,-256)" /><path d="M500 805Q500 814 508.0 820.0Q516 826 524 825Q536 824 541.0 816.5Q546 809 545 802Q545 781 522 781Q513 781 505.5 787.0Q498 793 500 805Z" fill="#fffefd" stroke="none" transform="scale(1,-1) translate(0,-256)" /><path d="M700 833Q701 843 708.5 847.5Q716 852 725 852Q737 851 741.5 844.0Q746 837 746 830Q746 821 741.0 813.5Q736 806 724 806Q713 806 705.5 813.0Q698 820 700 833Z" fill="#fffefd" stroke="none" transform="scale(1,-1) translate(0,-256)" /></svg>