<?xml version="1.0" encoding="utf-8" ?>
<svg baseProfile="full" height="256" version="1.1" width="256" xmlns="http://www.w3.org/2000/svg" xmlns:ev="http://www.w3.org/2001/xml-events" xmlns:xlink="http://www.w3.org/1999/xlink"><defs /><path d="M610 728Q623 791 640.0 827.0Q657 863 657 863L1119 -41Q1121 -45 1120.5 -60.0Q1120 -75 1099 -93Q1078 -112 1061.0 -113.5Q1044 -115 1039 -112L199 469Q199 469 237.5 480.0Q276 491 341 496L253 570Q282 584 319.0 590.5Q356 597 391.5 599.0Q427 601 452.0 602.5Q477 604 481 607Q486 611 490.5 635.5Q495 660 501.5 694.5Q508 729 519.5 764.0Q531 799 549 824Z" fill="#6e62ed" stroke="none" transform="scale(1,-1) translate(0,-256)" /></svg>