<?xml version="1.0" encoding="utf-8" ?>
<svg baseProfile="full" height="256" version="1.1" width="256" xmlns="http://www.w3.org/2000/svg" xmlns:ev="http://www.w3.org/2001/xml-events" xmlns:xlink="http://www.w3.org/1999/xlink"><defs /><path d="M341 496Q384 438 414.5 388.5Q445 339 460.5 308.5Q476 278 476 278L968 -63Z" fill="#004dae" stroke="none" transform="scale(1,-1) translate(0,-256)" /><path d="M676 826 642 680 610 728Q623 791 640.0 827.0Q657 863 657 863Z" fill="#004dae" stroke="none" transform="scale(1,-1) translate(0,-256)" /><path d="M382 459Q382 459 365.0 458.0Q348 457 323.5 454.5Q299 452 276.5 448.5Q254 445 242 439L199 469Q199 469 237.5 480.5Q276 492 341 496Z" fill="#004dae" stroke="none" transform="scale(1,-1) translate(0,-256)" /><path d="M549 824 569 793Q558 777 550.5 747.0Q543 717 537.5 687.5Q532 658 529 645Q523 617 518.5 603.0Q514 589 504 580Q494 571 479.5 568.5Q465 566 436 564Q353 560 318.5 552.0Q284 544 284 544L253 570Q275 585 310.5 591.5Q346 598 383.0 600.5Q420 603 447.5 604.0Q475 605 479 609Q483 613 487.5 638.5Q492 664 499.5 699.5Q507 735 518.5 769.5Q530 804 549 824Z" fill="#004dae" stroke="none" transform="scale(1,-1) translate(0,-256)" /></svg>