<?xml version="1.0" encoding="utf-8" ?>
<svg baseProfile="full" height="256" version="1.1" width="256" xmlns="http://www.w3.org/2000/svg" xmlns:ev="http://www.w3.org/2001/xml-events" xmlns:xlink="http://www.w3.org/1999/xlink"><defs /><path d="M932 461 1054 319 1008 189 885 183 757 173 623 -27 493 -37 429 70 454 202 636 326 762 458 755 567Q755 567 763.5 569.5Q772 572 784.0 566.5Q796 561 806 537Q821 503 815.0 454.0Q809 405 785 359Q771 333 743.5 312.0Q716 291 683.0 274.5Q650 258 619.0 245.5Q588 233 569 223Q554 215 530.0 196.0Q506 177 497 155Q487 132 489.5 105.5Q492 79 518 55Q530 44 550.0 40.5Q570 37 585 41Q604 47 617.0 65.5Q630 84 641 125Q656 180 684.5 211.5Q713 243 765 259Q799 269 832.0 266.0Q865 263 893.5 256.5Q922 250 942.5 247.0Q963 244 973 254Q982 263 977.0 277.0Q972 291 961.0 309.0Q950 327 940 350Q926 381 925.0 406.0Q924 431 928.0 446.0Q932 461 932 461Z" fill="#6d8038" stroke="none" transform="scale(1,-1) translate(0,-256)" /></svg>