<?xml version="1.0" encoding="utf-8" ?>
<svg baseProfile="full" height="256" version="1.1" width="256" xmlns="http://www.w3.org/2000/svg" xmlns:ev="http://www.w3.org/2001/xml-events" xmlns:xlink="http://www.w3.org/1999/xlink"><defs /><path d="M665 474Q665 477 662.0 485.5Q659 494 650.0 500.5Q641 507 621 506Q599 505 587.5 496.0Q576 487 571.5 478.5Q567 470 567 470Q567 470 557.5 468.5Q548 467 529 467Q493 466 472.0 477.5Q451 489 430 491Q408 493 392.5 492.0Q377 491 377 491H307Q307 491 321.0 480.0Q335 469 345 459Q356 450 370.5 434.0Q385 418 399 418Q412 418 418.0 424.0Q424 430 426.0 436.0Q428 442 431 442Q433 441 444.0 433.0Q455 425 469.0 417.5Q483 410 495 411Q507 411 513.0 418.0Q519 425 522.0 431.5Q525 438 528 437Q533 436 550.5 422.5Q568 409 600 409Q633 409 649.0 430.0Q665 451 665 474Z" fill="#bece44" stroke="none" transform="scale(1,-1) translate(0,-256)" /></svg>