<?xml version="1.0" encoding="utf-8" ?>
<svg baseProfile="full" height="256" version="1.1" width="256" xmlns="http://www.w3.org/2000/svg" xmlns:ev="http://www.w3.org/2001/xml-events" xmlns:xlink="http://www.w3.org/1999/xlink"><defs /><path d="M173 271Q172 271 171.5 257.0Q171 243 171.0 224.5Q171 206 171.0 192.0Q171 178 171 178H292V271Z" fill="#a7d0d7" stroke="none" transform="scale(1,-1) translate(0,-256)" /><path d="M167 67Q167 68 167.0 54.5Q167 41 167.0 23.0Q167 5 167.0 -9.0Q167 -23 167 -23H293V67Z" fill="#a7d0d7" stroke="none" transform="scale(1,-1) translate(0,-256)" /><path d="M996 265Q996 265 996.0 251.5Q996 238 996.0 219.5Q996 201 996.0 187.5Q996 174 996 174H1121V265Z" fill="#a7d0d7" stroke="none" transform="scale(1,-1) translate(0,-256)" /><path d="M997 58Q997 58 1014.5 58.0Q1032 58 1056.0 58.0Q1080 58 1098.0 58.0Q1116 58 1116 58V-24H997Z" fill="#a7d0d7" stroke="none" transform="scale(1,-1) translate(0,-256)" /><path d="M759 76H542V124Q542 124 563.5 124.0Q585 124 617.5 124.0Q650 124 682.5 124.0Q715 124 737.0 124.0Q759 124 759 124Z" fill="#a7d0d7" stroke="none" transform="scale(1,-1) translate(0,-256)" /><path d="M541.7068939208984 51.915740966796875V-72.37255859375H758.3850250244141V51.915740966796875Z" fill="#a7d0d7" stroke="none" transform="scale(1,-1) translate(0,-256)" /><path d="M541.7068939208984 -98.09339904785156V-163.06495666503906H758.3850250244141V-98.09339904785156Z" fill="#a7d0d7" stroke="none" transform="scale(1,-1) translate(0,-256)" /></svg>