<?xml version="1.0" encoding="utf-8" ?>
<svg baseProfile="full" height="256" version="1.1" width="256" xmlns="http://www.w3.org/2000/svg" xmlns:ev="http://www.w3.org/2001/xml-events" xmlns:xlink="http://www.w3.org/1999/xlink"><defs /><path d="M483.218994140625 385.0Q512.218994140625 385.0 531.218994140625 397.0Q540.218994140625 402.0 538.218994140625 392.0Q536.218994140625 375.0 520.218994140625 363.0Q504.218994140625 351.0 483.218994140625 351.0Q461.218994140625 351.0 445.218994140625 363.0Q429.218994140625 375.0 427.218994140625 392.0Q425.218994140625 402.0 434.218994140625 397.0Q454.218994140625 385.0 483.218994140625 385.0Z" fill="#404040" stroke="none" transform="scale(1,-1) translate(0,-256)" /><path d="M788.125 385.0Q817.125 385.0 837.125 397.0Q846.125 402.0 844.125 392.0Q842.125 375.0 826.125 363.0Q810.125 351.0 788.125 351.0Q767.125 351.0 751.125 363.0Q735.125 375.0 733.125 392.0Q731.125 402.0 740.125 397.0Q759.125 385.0 788.125 385.0Z" fill="#404040" stroke="none" transform="scale(1,-1) translate(0,-256)" /></svg>