<?xml version="1.0" encoding="utf-8" ?>
<svg baseProfile="full" height="256" version="1.1" width="256" xmlns="http://www.w3.org/2000/svg" xmlns:ev="http://www.w3.org/2001/xml-events" xmlns:xlink="http://www.w3.org/1999/xlink"><defs /><path d="M892.6880035400391 477.156005859375Q933.6880035400391 477.156005859375 963.1880035400391 445.656005859375Q992.6880035400391 414.156005859375 992.6880035400391 370.156005859375Q992.6880035400391 326.156005859375 963.1880035400391 294.656005859375Q933.6880035400391 263.156005859375 892.6880035400391 263.156005859375H379.68800354003906Q338.68800354003906 263.156005859375 309.18800354003906 294.656005859375Q279.68800354003906 326.156005859375 279.68800354003906 370.156005859375Q279.68800354003906 414.156005859375 309.18800354003906 445.656005859375Q338.68800354003906 477.156005859375 379.68800354003906 477.156005859375Z" fill="#e59600" stroke="none" transform="scale(1,-1) translate(0,-256)" /><path d="M672 312Q684 307 679 297Q677 292 666.5 281.5Q656 271 636 271Q616 271 606.0 281.5Q596 292 594 297Q589 307 600 312Q602 313 603 313H669Q671 313 672 312Z" fill="#e59600" stroke="none" transform="scale(1,-1) translate(0,-256)" /></svg>