<?xml version="1.0" encoding="utf-8" ?>
<svg baseProfile="full" height="256" version="1.1" width="256" xmlns="http://www.w3.org/2000/svg" xmlns:ev="http://www.w3.org/2001/xml-events" xmlns:xlink="http://www.w3.org/1999/xlink"><defs /><path d="M552.093994140625 473.375Q557.093994140625 466.375 552.093994140625 459.375Q546.093994140625 451.375 534.093994140625 455.375Q528.093994140625 457.375 516.093994140625 461.875Q504.093994140625 466.375 484.093994140625 466.375Q464.093994140625 466.375 452.093994140625 461.875Q440.093994140625 457.375 434.093994140625 455.375Q428.093994140625 453.375 423.093994140625 454.875Q418.093994140625 456.375 416.093994140625 459.375Q410.093994140625 466.375 416.093994140625 473.375Q423.093994140625 482.375 439.093994140625 491.875Q455.093994140625 501.375 484.093994140625 501.375Q513.093994140625 501.375 529.093994140625 491.875Q545.093994140625 482.375 552.093994140625 473.375Z" fill="#6d4c41" stroke="none" transform="scale(1,-1) translate(0,-256)" /><path d="M856.531005859375 473.625Q861.531005859375 466.625 856.531005859375 458.625Q850.531005859375 451.625 838.531005859375 455.625Q832.531005859375 457.625 820.531005859375 462.125Q808.531005859375 466.625 788.531005859375 466.625Q768.531005859375 466.625 756.531005859375 462.125Q744.531005859375 457.625 738.531005859375 455.625Q732.531005859375 453.625 727.531005859375 455.125Q722.531005859375 456.625 720.531005859375 458.625Q715.531005859375 466.625 720.531005859375 473.625Q727.531005859375 482.625 743.531005859375 492.125Q759.531005859375 501.625 788.531005859375 501.625Q817.531005859375 501.625 833.531005859375 492.125Q849.531005859375 482.625 856.531005859375 473.625Z" fill="#6d4c41" stroke="none" transform="scale(1,-1) translate(0,-256)" /></svg>