<?xml version="1.0" encoding="utf-8" ?>
<svg baseProfile="full" height="256" version="1.1" width="256" xmlns="http://www.w3.org/2000/svg" xmlns:ev="http://www.w3.org/2001/xml-events" xmlns:xlink="http://www.w3.org/1999/xlink"><defs /><path d="M488 381Q523 353 546.0 309.0Q569 265 564 190Q561 145 543.5 115.5Q526 86 499.5 64.0Q473 42 444.0 19.5Q415 -3 389.0 -32.0Q363 -61 345.5 -104.0Q328 -147 325 -212H75V-28Q94 22 122.5 48.5Q151 75 184.0 91.5Q217 108 251.0 127.5Q285 147 314 183Q337 210 340.0 235.0Q343 260 334.5 284.5Q326 309 311.0 333.0Q296 357 282 380Q268 403 272.5 416.0Q277 429 292 435Q314 445 349.5 440.5Q385 436 422.5 420.5Q460 405 488 381Z" fill="#ffffff" stroke="none" transform="scale(1,-1) translate(0,-256)" /><path d="M1200 549V131Q1200 131 1192.0 115.5Q1184 100 1165.0 77.0Q1146 54 1114.5 30.0Q1083 6 1035 -11Q954 -41 906.0 -75.5Q858 -110 834.5 -141.0Q811 -172 803.5 -192.0Q796 -212 796 -212H594Q582 -127 589.5 -65.5Q597 -4 616.0 38.5Q635 81 657.5 108.0Q680 135 697 151Q723 174 758.0 193.5Q793 213 831.5 237.5Q870 262 905.5 299.0Q941 336 967 393Q984 432 975.0 475.0Q966 518 948 556Q929 594 906.0 622.5Q883 651 862.5 671.0Q842 691 832 705Q824 716 845.0 724.0Q866 732 906.0 730.5Q946 729 997.0 712.0Q1048 695 1101.0 656.0Q1154 617 1200 549Z" fill="#ffffff" stroke="none" transform="scale(1,-1) translate(0,-256)" /></svg>