<?xml version="1.0" encoding="utf-8" ?>
<svg baseProfile="full" height="256" version="1.1" width="256" xmlns="http://www.w3.org/2000/svg" xmlns:ev="http://www.w3.org/2001/xml-events" xmlns:xlink="http://www.w3.org/1999/xlink"><defs /><path d="M1004 731Q988 772 962.0 804.0Q936 836 908.0 862.5Q880 889 858 913H1200V-83Q1152 -116 1102.0 -146.0Q1052 -176 1003 -207Q1002 -208 1001.0 -209.0Q1000 -210 999 -212H456Q456 -117 478.5 -41.0Q501 35 532.5 91.0Q564 147 593.5 183.0Q623 219 638 234Q680 276 727.5 308.0Q775 340 826.0 369.0Q877 398 929 431Q980 463 1003.0 513.5Q1026 564 1024.5 621.0Q1023 678 1004 731Z" fill="#3bbcf7" stroke="none" transform="scale(1,-1) translate(0,-256)" /></svg>