<?xml version="1.0" encoding="utf-8" ?>
<svg baseProfile="full" height="256" version="1.1" width="256" xmlns="http://www.w3.org/2000/svg" xmlns:ev="http://www.w3.org/2001/xml-events" xmlns:xlink="http://www.w3.org/1999/xlink"><defs /><path d="M450 93 643 47 843 104Q843 104 843.0 84.5Q843 65 842.0 36.5Q841 8 840.5 -20.5Q840 -49 839.5 -69.0Q839 -89 839 -90Q839 -91 818.0 -104.0Q797 -117 752.0 -128.5Q707 -140 634 -139Q574 -138 533.0 -128.5Q492 -119 470.0 -109.0Q448 -99 447 -98Q447 -97 447.0 -77.0Q447 -57 447.5 -29.0Q448 -1 448.5 27.0Q449 55 449.5 74.0Q450 93 450 93Z" fill="#ffcb80" stroke="none" transform="scale(1,-1) translate(0,-256)" /></svg>