<?xml version="1.0" encoding="utf-8" ?>
<svg baseProfile="full" height="256" version="1.1" width="256" xmlns="http://www.w3.org/2000/svg" xmlns:ev="http://www.w3.org/2001/xml-events" xmlns:xlink="http://www.w3.org/1999/xlink"><defs /><path d="M521 116Q521 116 516.0 110.0Q511 104 499.0 101.0Q487 98 468.0 105.0Q449 112 420 137Q401 153 381.5 170.5Q362 188 350.0 203.5Q338 219 341 227Q345 237 358.0 235.0Q371 233 371 234Q372 236 367.0 245.0Q362 254 357.0 266.5Q352 279 351.5 291.0Q351 303 361 310Q372 318 387.0 311.0Q402 304 413.5 295.0Q425 286 425 286Q425 286 419.0 309.0Q413 332 406 356Q392 405 416 410Q429 412 439.5 402.0Q450 392 457.5 381.0Q465 370 468 371Q471 371 471.5 387.5Q472 404 477 415Q483 429 493.0 430.0Q503 431 503 431Q503 431 528.0 427.0Q553 423 590.5 418.0Q628 413 667.0 410.0Q706 407 736.0 408.5Q766 410 774 419Q789 434 802.5 444.5Q816 455 827 450Q836 447 835.0 432.0Q834 417 830 404Q826 391 823.0 375.5Q820 360 820 360Q820 360 828.5 366.0Q837 372 849.0 376.5Q861 381 870 377Q881 372 881.5 362.0Q882 352 877.5 341.0Q873 330 870.0 321.5Q867 313 870 310Q874 307 882.5 313.0Q891 319 902.0 326.5Q913 334 924.5 335.0Q936 336 947 322Q958 307 954.5 286.0Q951 265 941.0 244.5Q931 224 922.0 210.0Q913 196 913 196Q913 196 922.0 199.0Q931 202 934 196Q936 193 926.0 182.5Q916 172 900.5 159.0Q885 146 870.0 135.0Q855 124 847 119Q821 105 803.5 104.0Q786 103 777.5 106.0Q769 109 769 109Q769 109 758.0 98.0Q747 87 721.0 75.5Q695 64 649 63Q605 63 576.5 76.0Q548 89 534.5 102.5Q521 116 521 116Z" fill="#2f7f32" stroke="none" transform="scale(1,-1) translate(0,-256)" /></svg>