<?xml version="1.0" encoding="utf-8" ?>
<svg baseProfile="full" height="256" version="1.1" width="256" xmlns="http://www.w3.org/2000/svg" xmlns:ev="http://www.w3.org/2001/xml-events" xmlns:xlink="http://www.w3.org/1999/xlink"><defs /><path d="M625 773Q660 787 703.0 810.5Q746 834 793.0 856.5Q840 879 890.0 893.5Q940 908 989.5 905.5Q1039 903 1086 875Q1130 849 1145.0 813.0Q1160 777 1154.5 735.0Q1149 693 1131.5 648.0Q1114 603 1092.0 558.5Q1070 514 1052 474Q1031 423 1012.5 361.5Q994 300 968.5 235.5Q943 171 899.5 109.0Q856 47 783 -5Q720 -50 650.0 -70.5Q580 -91 511.0 -89.5Q442 -88 379.0 -68.0Q316 -48 265.5 -12.0Q215 24 183 73Q125 160 111.5 239.5Q98 319 118.0 389.0Q138 459 181 519Q217 570 269.0 607.0Q321 644 382.0 673.0Q443 702 506.0 726.0Q569 750 625 773Z" fill="#afb42a" stroke="none" transform="scale(1,-1) translate(0,-256)" /></svg>