<?xml version="1.0" encoding="utf-8" ?>
<svg baseProfile="full" height="256" version="1.1" width="256" xmlns="http://www.w3.org/2000/svg" xmlns:ev="http://www.w3.org/2001/xml-events" xmlns:xlink="http://www.w3.org/1999/xlink"><defs /><path d="M718 256Q787 252 856.0 250.0Q925 248 994 246Q1028 245 1062.5 245.0Q1097 245 1132 244H1149Q1159 244 1169 247Q1188 251 1204 264Q1237 290 1237 333Q1238 353 1229 371Q1225 380 1218 388L1211 395Q1208 398 1204 402Q1180 421 1149 421H1132Q1097 421 1062.5 421.0Q1028 421 994 421Q925 420 856.0 418.5Q787 417 718 415Q787 410 856.0 407.0Q925 404 994 402Q1028 401 1062.5 400.0Q1097 399 1132 398H1149Q1156 398 1164 397Q1178 393 1190 384Q1192 382 1195 379L1200 373Q1205 368 1208 361Q1214 348 1214 333Q1214 302 1189 282Q1178 273 1163 269Q1156 267 1149 267H1132Q1097 267 1062.5 266.5Q1028 266 994 265Q925 264 856.0 261.5Q787 259 718 256Z" fill="#eb8f00" stroke="none" transform="scale(1,-1) translate(0,-256)" /></svg>