<?xml version="1.0" encoding="utf-8" ?>
<svg baseProfile="full" height="256" version="1.1" width="256" xmlns="http://www.w3.org/2000/svg" xmlns:ev="http://www.w3.org/2001/xml-events" xmlns:xlink="http://www.w3.org/1999/xlink"><defs /><path d="M291 29Q293 30 301.0 23.0Q309 16 309 13Q309 11 303.0 3.5Q297 -4 294 -4Q291 -4 283.5 1.5Q276 7 276 11Q276 15 282.5 22.0Q289 29 291 29Z" fill="#626168" stroke="none" transform="scale(1,-1) translate(0,-256)" /><path d="M976 35Q978 36 986.5 35.0Q995 34 996 32Q997 30 1000.0 24.5Q1003 19 1003 16Q1003 14 998.5 7.0Q994 0 992 0Q989 -1 982.0 -1.0Q975 -1 973 0Q971 0 967.5 7.5Q964 15 965 18Q965 21 969.5 27.5Q974 34 976 35Z" fill="#626168" stroke="none" transform="scale(1,-1) translate(0,-256)" /></svg>