<?xml version="1.0" encoding="utf-8" ?>
<svg baseProfile="full" height="256" version="1.1" width="256" xmlns="http://www.w3.org/2000/svg" xmlns:ev="http://www.w3.org/2001/xml-events" xmlns:xlink="http://www.w3.org/1999/xlink"><defs /><path d="M978 220Q1037 220 1083.0 192.5Q1129 165 1156.0 118.5Q1183 72 1184 17Q1186 -40 1158.5 -87.5Q1131 -135 1083.0 -162.5Q1035 -190 973 -188Q915 -186 870.0 -157.0Q825 -128 799.0 -81.5Q773 -35 775 19Q777 76 803.5 121.0Q830 166 875.0 192.5Q920 219 978 220ZM972 -171Q1029 -173 1072.0 -147.5Q1115 -122 1139.5 -79.5Q1164 -37 1165 13Q1166 63 1141.0 105.0Q1116 147 1073.0 172.5Q1030 198 975 197Q923 197 882.5 173.5Q842 150 819.0 109.5Q796 69 795 18Q793 -32 815.5 -74.5Q838 -117 879.0 -143.5Q920 -170 972 -171Z" fill="#c9c9c9" stroke="none" transform="scale(1,-1) translate(0,-256)" /><path d="M294 219Q353 220 399.0 192.0Q445 164 472.0 117.5Q499 71 501 16Q502 -41 475.0 -88.0Q448 -135 399.5 -163.0Q351 -191 290 -189Q232 -187 186.5 -158.0Q141 -129 115.5 -82.5Q90 -36 91 18Q93 75 119.5 120.0Q146 165 191.0 191.5Q236 218 294 219ZM289 -172Q345 -174 388.5 -148.5Q432 -123 456.5 -80.5Q481 -38 482 12Q482 62 457.0 104.5Q432 147 389.0 172.0Q346 197 292 197Q239 196 199.0 172.5Q159 149 136.0 108.5Q113 68 111 17Q110 -32 132.5 -74.5Q155 -117 195.5 -143.5Q236 -170 289 -172Z" fill="#c9c9c9" stroke="none" transform="scale(1,-1) translate(0,-256)" /><path d="M488 451 451 454Q451 454 456.0 465.5Q461 477 460 477Q458 478 442.0 477.5Q426 477 421 479Q417 480 407.5 497.5Q398 515 389.0 533.5Q380 552 376 558Q368 575 381 587Q388 593 395.5 591.5Q403 590 403 590L421 561L448 509Q448 509 463.0 508.5Q478 508 487 507Q497 507 500.0 501.5Q503 496 502 490Q502 487 498.5 477.5Q495 468 491.5 459.5Q488 451 488 451Z" fill="#c9c9c9" stroke="none" transform="scale(1,-1) translate(0,-256)" /><path d="M786 426Q787 427 801.0 427.0Q815 427 828.5 426.0Q842 425 843 424Q845 421 845.0 410.0Q845 399 842 398Q841 397 828.5 397.0Q816 397 803.0 397.5Q790 398 786 398Q780 398 781.5 411.0Q783 424 786 426Z" fill="#c9c9c9" stroke="none" transform="scale(1,-1) translate(0,-256)" /></svg>