<?xml version="1.0" encoding="utf-8" ?>
<svg baseProfile="full" height="256" version="1.1" width="256" xmlns="http://www.w3.org/2000/svg" xmlns:ev="http://www.w3.org/2001/xml-events" xmlns:xlink="http://www.w3.org/1999/xlink"><defs /><path d="M961 26 965 44 719 95 716 79Z" fill="#b9baba" stroke="none" transform="scale(1,-1) translate(0,-256)" /><path d="M713 -65 978 -13 974 5 710 -49Z" fill="#b9baba" stroke="none" transform="scale(1,-1) translate(0,-256)" /><path d="M985.1835174560547 45.35871887207031 994.3363189697266 43.30384826660156 1029.9253845214844 202.16029357910156 1020.7725830078125 204.2151641845703Z" fill="#b9baba" stroke="none" transform="scale(1,-1) translate(0,-256)" /><path d="M988 27 1152 101 1149 110 1019 52 1106 160 1098 166Z" fill="#b9baba" stroke="none" transform="scale(1,-1) translate(0,-256)" /><path d="M1160 -52 1164 -43 1026 10 1170 34 1169 43 990 14Z" fill="#b9baba" stroke="none" transform="scale(1,-1) translate(0,-256)" /><path d="M969 50 979 51 950 205 941 204Z" fill="#b9baba" stroke="none" transform="scale(1,-1) translate(0,-256)" /><path d="M844.9730072021484 150.88775634765625 948.5478973388672 30.866058349609375 955.64794921875 36.99664306640625 852.0730590820312 157.01834106445312Z" fill="#b9baba" stroke="none" transform="scale(1,-1) translate(0,-256)" /><path d="M836 -114Q837 -114 851.0 -100.0Q865 -86 885.0 -65.5Q905 -45 925.0 -24.5Q945 -4 959 10L952 16Q940 4 920.0 -16.0Q900 -36 880.0 -56.5Q860 -77 846.0 -91.5Q832 -106 830 -107L833 -111L830 -107Z" fill="#b9baba" stroke="none" transform="scale(1,-1) translate(0,-256)" /><path d="M959.9815673828125 -6.189361572265625 983.8490600585938 -180.14881896972656 993.1100463867188 -178.97132873535156 969.2425537109375 -5.011871337890625Z" fill="#b9baba" stroke="none" transform="scale(1,-1) translate(0,-256)" /><path d="M908 -170 989 -21 1118 -119 1124 -111 986 -7 899 -165Z" fill="#b9baba" stroke="none" transform="scale(1,-1) translate(0,-256)" /><path d="M999.1010284423828 -1.5585174560546875 1061.296157836914 -161.25804138183594 1070.0258026123047 -157.8538055419922 1007.8306732177734 1.8457183837890625Z" fill="#b9baba" stroke="none" transform="scale(1,-1) translate(0,-256)" /><path d="M261.79405212402344 -178.779296875 271.87232971191406 -180.99102783203125 312.19476318359375 3.99810791015625 302.1164855957031 6.2098388671875Z" fill="#b9baba" stroke="none" transform="scale(1,-1) translate(0,-256)" /><path d="M309.5915985107422 20.848373413085938 313.2935028076172 11.232833862304688 477.0786895751953 74.12831115722656 473.3767852783203 83.74385070800781Z" fill="#b9baba" stroke="none" transform="scale(1,-1) translate(0,-256)" /><path d="M424 -128 432 -122 310 31 266 207 256 205 300 26Z" fill="#b9baba" stroke="none" transform="scale(1,-1) translate(0,-256)" /><path d="M291 26 350 199 340 202 282 30Z" fill="#b9baba" stroke="none" transform="scale(1,-1) translate(0,-256)" /><path d="M298.0888671875 23.411605834960938 305.13189697265625 15.905838012695312 440.892822265625 143.23757934570312 433.84979248046875 150.74334716796875Z" fill="#b9baba" stroke="none" transform="scale(1,-1) translate(0,-256)" /><path d="M125 118 280 30 285 39 130 127Z" fill="#b9baba" stroke="none" transform="scale(1,-1) translate(0,-256)" /><path d="M197 -155 283 19 101 61 99 51 268 12 188 -150Z" fill="#b9baba" stroke="none" transform="scale(1,-1) translate(0,-256)" /><path d="M102 -37 297 19 194 182 186 177 281 25 99 -27Z" fill="#b9baba" stroke="none" transform="scale(1,-1) translate(0,-256)" /><path d="M139 -112 294 -11 471 -56 474 -46 292 0 133 -103Z" fill="#b9baba" stroke="none" transform="scale(1,-1) translate(0,-256)" /><path d="M278.9570770263672 -6.6313018798828125 350.91676330566406 -173.31895446777344 360.3834991455078 -169.2353515625 288.42381286621094 -2.547698974609375Z" fill="#b9baba" stroke="none" transform="scale(1,-1) translate(0,-256)" /><path d="M323.2074737548828 27.204940795898438 484.054443359375 10.59783935546875 485.1941223144531 20.79962158203125 324.34715270996094 37.40672302246094Z" fill="#b9baba" stroke="none" transform="scale(1,-1) translate(0,-256)" /></svg>