<?xml version="1.0" encoding="utf-8" ?>
<svg baseProfile="full" height="256" version="1.1" width="256" xmlns="http://www.w3.org/2000/svg" xmlns:ev="http://www.w3.org/2001/xml-events" xmlns:xlink="http://www.w3.org/1999/xlink"><defs /><path d="M755 492Q762 492 785.0 492.5Q808 493 836.0 493.5Q864 494 888.0 493.5Q912 493 920 493Q937 491 938.0 480.0Q939 469 933 465Q931 463 918.5 453.5Q906 444 891.5 435.5Q877 427 870 427Q858 427 839.5 440.0Q821 453 807 456Q803 457 790.0 454.0Q777 451 763.5 448.5Q750 446 745 449Q738 452 726.5 461.5Q715 471 717 479Q719 487 728.0 488.5Q737 490 755 492Z" fill="#5e6268" stroke="none" transform="scale(1,-1) translate(0,-256)" /><path d="M407 599Q412 599 436.0 600.5Q460 602 489.5 603.5Q519 605 542.5 606.0Q566 607 571 607Q578 606 583.5 597.5Q589 589 591 582Q594 572 593.0 563.5Q592 555 585 554Q581 553 559.5 551.5Q538 550 510.0 548.5Q482 547 459.0 546.0Q436 545 431 546Q419 546 412.0 551.5Q405 557 400 565Q397 570 397.0 584.5Q397 599 407 599Z" fill="#5e6268" stroke="none" transform="scale(1,-1) translate(0,-256)" /></svg>