<?xml version="1.0" encoding="utf-8" ?>
<svg baseProfile="full" height="256" version="1.1" width="256" xmlns="http://www.w3.org/2000/svg" xmlns:ev="http://www.w3.org/2001/xml-events" xmlns:xlink="http://www.w3.org/1999/xlink"><defs /><path d="M977 246Q1043 247 1095.0 215.5Q1147 184 1177.5 131.5Q1208 79 1210 17Q1211 -47 1180.5 -100.5Q1150 -154 1095.5 -185.5Q1041 -217 972 -215Q907 -213 855.5 -180.0Q804 -147 775.0 -94.5Q746 -42 748 19Q750 83 780.0 134.0Q810 185 861.0 215.0Q912 245 977 246ZM972 -180Q1031 -182 1078.0 -155.0Q1125 -128 1151.0 -82.5Q1177 -37 1176 18Q1175 72 1149.0 117.0Q1123 162 1078.0 188.5Q1033 215 976 215Q920 214 876.5 188.5Q833 163 807.5 119.0Q782 75 780 20Q778 -32 803.0 -77.0Q828 -122 872.0 -150.0Q916 -178 972 -180Z" fill="#484d50" stroke="none" transform="scale(1,-1) translate(0,-256)" /><path d="M293.468994140625 245.343994140625Q359.468994140625 246.343994140625 411.468994140625 214.843994140625Q463.468994140625 183.343994140625 493.968994140625 130.843994140625Q524.468994140625 78.343994140625 526.468994140625 16.343994140625Q527.468994140625 -47.656005859375 496.968994140625 -101.156005859375Q466.468994140625 -154.656005859375 411.968994140625 -186.156005859375Q357.468994140625 -217.656005859375 288.468994140625 -215.656005859375Q223.468994140625 -213.656005859375 171.968994140625 -180.656005859375Q120.468994140625 -147.656005859375 91.468994140625 -95.156005859375Q62.468994140625 -42.656005859375 64.468994140625 18.343994140625Q66.468994140625 82.343994140625 96.468994140625 133.343994140625Q126.468994140625 184.343994140625 177.468994140625 214.343994140625Q228.468994140625 244.343994140625 293.468994140625 245.343994140625ZM288.468994140625 -180.656005859375Q347.468994140625 -182.656005859375 394.468994140625 -155.656005859375Q441.468994140625 -128.656005859375 467.468994140625 -83.156005859375Q493.468994140625 -37.656005859375 492.468994140625 17.343994140625Q491.468994140625 71.343994140625 465.468994140625 116.343994140625Q439.468994140625 161.343994140625 394.468994140625 187.843994140625Q349.468994140625 214.343994140625 292.468994140625 214.343994140625Q236.468994140625 213.343994140625 192.968994140625 187.843994140625Q149.468994140625 162.343994140625 123.968994140625 118.343994140625Q98.468994140625 74.343994140625 96.468994140625 19.343994140625Q94.468994140625 -32.656005859375 119.468994140625 -77.656005859375Q144.468994140625 -122.656005859375 188.468994140625 -150.656005859375Q232.468994140625 -178.656005859375 288.468994140625 -180.656005859375Z" fill="#484d50" stroke="none" transform="scale(1,-1) translate(0,-256)" /></svg>