<?xml version="1.0" encoding="utf-8" ?>
<svg baseProfile="full" height="256" version="1.1" width="256" xmlns="http://www.w3.org/2000/svg" xmlns:ev="http://www.w3.org/2001/xml-events" xmlns:xlink="http://www.w3.org/1999/xlink"><defs /><path d="M257 745Q297 788 353.0 807.5Q409 827 469.0 820.0Q529 813 582 778Q623 752 651.5 712.5Q680 673 704.0 628.0Q728 583 753.5 538.0Q779 493 813 454Q847 416 870.5 393.0Q894 370 915.0 353.0Q936 336 961.5 318.0Q987 300 1025 271Q1063 242 1078.5 203.5Q1094 165 1091.0 123.0Q1088 81 1070.5 41.5Q1053 2 1024 -29Q987 -69 938.0 -85.5Q889 -102 839.0 -96.0Q789 -90 748 -63Q704 -34 679.0 -1.5Q654 31 638.5 63.5Q623 96 609.5 127.0Q596 158 576 183Q556 209 524.5 225.0Q493 241 453.0 256.0Q413 271 367.5 294.0Q322 317 275 358Q236 390 210.5 434.5Q185 479 178.5 531.0Q172 583 190.0 638.0Q208 693 257 745Z" fill="#02ab47" stroke="none" transform="scale(1,-1) translate(0,-256)" /></svg>