<?xml version="1.0" encoding="utf-8" ?>
<svg baseProfile="full" height="256" version="1.1" width="256" xmlns="http://www.w3.org/2000/svg" xmlns:ev="http://www.w3.org/2001/xml-events" xmlns:xlink="http://www.w3.org/1999/xlink"><defs /><path d="M299 701Q336 740 383.0 753.5Q430 767 477.5 755.0Q525 743 565 708Q606 671 635.5 629.0Q665 587 690.0 544.5Q715 502 743 461Q756 441 777.0 415.0Q798 389 836.5 354.0Q875 319 940 271Q988 236 1009.5 198.0Q1031 160 1032.0 124.0Q1033 88 1019.5 58.5Q1006 29 985 10Q957 -15 918.0 -29.0Q879 -43 836.0 -36.5Q793 -30 751 6Q723 30 706.5 64.5Q690 99 670.0 139.5Q650 180 612 220Q579 255 550.5 274.0Q522 293 493.5 305.5Q465 318 432.0 332.5Q399 347 357 373Q289 416 261.0 474.0Q233 532 243.0 591.5Q253 651 299 701Z" fill="#7cdb8d" stroke="none" transform="scale(1,-1) translate(0,-256)" /></svg>