<?xml version="1.0" encoding="utf-8" ?>
<svg baseProfile="full" height="256" version="1.1" width="256" xmlns="http://www.w3.org/2000/svg" xmlns:ev="http://www.w3.org/2001/xml-events" xmlns:xlink="http://www.w3.org/1999/xlink"><defs /><path d="M574 735Q583 735 588 743L656 861Q665 875 651 884Q637 892 628 878L560 760Q551 746 565 738Q569 735 574 735Z" fill="#01ab46" stroke="none" transform="scale(1,-1) translate(0,-256)" /><path d="M718 544Q723 544 728 547L833 624Q846 634 837 647Q827 660 814 651L708 573Q695 563 705 550Q710 544 718 544Z" fill="#01ab46" stroke="none" transform="scale(1,-1) translate(0,-256)" /><path d="M887 343Q896 343 901 351L971 471Q980 485 966 493Q951 501 943 487L873 368Q864 353 879 345Q882 343 887 343Z" fill="#01ab46" stroke="none" transform="scale(1,-1) translate(0,-256)" /><path d="M1028 206Q1033 206 1037 209L1132 274Q1145 283 1136 296Q1127 310 1113 301L1018 236Q1005 226 1014 213Q1019 206 1028 206Z" fill="#01ab46" stroke="none" transform="scale(1,-1) translate(0,-256)" /><path d="M1008 -164Q1012 -164 1016 -162Q1031 -154 1023 -140L967 -33Q959 -18 944 -26Q930 -33 938 -48L994 -155Q998 -164 1008 -164Z" fill="#01ab46" stroke="none" transform="scale(1,-1) translate(0,-256)" /><path d="M801 -208Q814 -208 817 -195L842 -72Q845 -55 829 -52Q822 -51 816.5 -54.5Q811 -58 809 -65L785 -188Q781 -204 798 -208Q799 -208 801 -208Z" fill="#01ab46" stroke="none" transform="scale(1,-1) translate(0,-256)" /><path d="M593 -76Q599 -76 603 -72L696 2Q709 12 699 25Q689 37 676 27L583 -47Q570 -57 580 -70Q585 -76 593 -76Z" fill="#01ab46" stroke="none" transform="scale(1,-1) translate(0,-256)" /><path d="M487 105Q493 105 498 109L595 192Q607 203 597 215Q586 228 573 217L477 134Q464 123 475 111Q480 105 487 105Z" fill="#01ab46" stroke="none" transform="scale(1,-1) translate(0,-256)" /><path d="M250 239Q258 239 263 246L333 341Q343 354 330 364Q317 374 307 360L237 265Q227 252 240 242Q244 239 250 239Z" fill="#01ab46" stroke="none" transform="scale(1,-1) translate(0,-256)" /><path d="M264 677Q273 677 278 685Q287 698 273 707L169 778Q156 787 147 773Q137 760 151 751L255 680Q259 677 264 677Z" fill="#01ab46" stroke="none" transform="scale(1,-1) translate(0,-256)" /><path d="M371 770Q373 770 374 771Q390 774 387 790L370 894Q367 910 351 907Q335 904 338 888L355 784Q357 770 371 770Z" fill="#01ab46" stroke="none" transform="scale(1,-1) translate(0,-256)" /><path d="M102 491Q103 491 103 491L207 500Q224 501 222 517Q222 524 216.5 528.5Q211 533 204 532L101 523Q84 522 86 506Q87 491 102 491Z" fill="#01ab46" stroke="none" transform="scale(1,-1) translate(0,-256)" /><path d="M1165 2Q1174 2 1179 10Q1187 24 1173 32L1068 95Q1054 104 1045 90Q1037 76 1051 67L1157 4Q1160 2 1165 2Z" fill="#01ab46" stroke="none" transform="scale(1,-1) translate(0,-256)" /></svg>