<?xml version="1.0" encoding="utf-8" ?>
<svg baseProfile="full" height="256" version="1.1" width="256" xmlns="http://www.w3.org/2000/svg" xmlns:ev="http://www.w3.org/2001/xml-events" xmlns:xlink="http://www.w3.org/1999/xlink"><defs /><path d="M1207 192Q1206 181 1201.5 171.0Q1197 161 1190 153Q1185 149 1188 144Q1200 125 1198 102Q1196 85 1189.5 73.0Q1183 61 1173 54Q1169 51 1171 45Q1175 37 1177.0 17.5Q1179 -2 1165 -21Q1148 -43 1124.5 -69.5Q1101 -96 1086 -111Q1083 -115 1078.0 -113.0Q1073 -111 1073 -106V-45Q1073 -41 1076 -39Q1088 -29 1107.5 -13.0Q1127 3 1131 13Q1136 26 1132.5 38.0Q1129 50 1124 58Q1122 61 1123.5 65.0Q1125 69 1129 69Q1142 72 1151.5 79.5Q1161 87 1163 102Q1165 117 1158.0 127.0Q1151 137 1144 143Q1140 145 1140.5 149.0Q1141 153 1144 156Q1154 162 1164.5 173.0Q1175 184 1175 199Q1175 213 1163.5 223.5Q1152 234 1142 239Q1139 241 1138.5 245.0Q1138 249 1141 252Q1149 258 1158.5 269.5Q1168 281 1166 296Q1165 310 1152.5 318.5Q1140 327 1130 330Q1126 332 1125.0 336.0Q1124 340 1127 343Q1134 351 1142.0 364.5Q1150 378 1147 392Q1143 406 1130.5 412.0Q1118 418 1107 420Q1103 421 1101.0 424.5Q1099 428 1101 432Q1107 441 1111.5 453.5Q1116 466 1110 478Q1105 490 1091.5 495.0Q1078 500 1068 501Q1058 502 1062 512Q1066 521 1067.5 535.0Q1069 549 1060 561Q1049 576 1033.5 577.5Q1018 579 1008 577Q1004 576 1001.0 579.0Q998 582 998 586Q1000 596 999.0 610.5Q998 625 987 635Q976 645 961.5 644.0Q947 643 937 639Q933 638 929.5 640.5Q926 643 926 647Q926 657 922.5 671.0Q919 685 905 692Q888 700 873.5 695.5Q859 691 851 684Q848 682 844.0 683.0Q840 684 839 688Q836 698 828.5 710.5Q821 723 807 727Q793 731 778.5 724.0Q764 717 755 710Q747 704 743 714Q739 724 729.5 738.0Q720 752 703 754Q686 755 673.0 745.0Q660 735 653 726Q651 723 647.0 723.0Q643 723 641 727Q635 736 622.0 746.0Q609 756 592 753Q575 749 567.0 737.0Q559 725 555 715Q554 711 550.0 710.0Q546 709 543 712Q534 719 522.0 726.5Q510 734 491 728Q472 722 466.0 708.5Q460 695 456 684Q453 675 445 680Q437 686 423.0 691.5Q409 697 396 691Q383 686 378.5 671.0Q374 656 373 645Q373 641 369.5 638.5Q366 636 363 638Q353 642 339.5 644.0Q326 646 315 637Q302 628 300.5 613.0Q299 598 301 587Q302 583 298.5 580.5Q295 578 291 579Q281 582 266.5 581.5Q252 581 242 569Q232 557 231.5 541.0Q231 525 233 514Q234 510 231.5 507.0Q229 504 225 505Q215 506 203.0 502.5Q191 499 184 482Q178 467 182.0 454.5Q186 442 192 434Q195 431 193.0 426.5Q191 422 187 422Q176 420 163.5 413.0Q151 406 147 388Q142 371 148.5 360.0Q155 349 162 343Q166 340 165.5 335.5Q165 331 160 330Q150 326 138.5 317.5Q127 309 126 294Q125 278 133.5 268.0Q142 258 151 253Q155 251 155.0 246.5Q155 242 151 239Q143 234 134.0 224.0Q125 214 125 200Q126 185 136.5 174.5Q147 164 156 159Q160 157 160.5 153.0Q161 149 158 146Q150 140 141.5 130.0Q133 120 133 108Q133 107 136.0 91.5Q139 76 162 66Q171 62 165 54Q161 48 157.5 40.0Q154 32 156 22Q161 2 173.5 -7.5Q186 -17 200.0 -25.5Q214 -34 222 -50Q223 -52 223 -54L224 -80Q224 -86 219.0 -88.0Q214 -90 211 -86Q203 -79 194.5 -70.5Q186 -62 184 -61Q165 -44 149.5 -29.5Q134 -15 128 -5Q113 22 122 47Q123 50 124 53Q111 64 104.0 78.0Q97 92 96 102Q92 124 105 144Q108 148 104 153Q88 169 87 192Q86 199 86 202Q85 226 101 243Q104 248 101 253Q87 271 89 295Q90 302 90 305Q93 328 112 344Q117 348 114 353Q109 363 106.5 378.0Q104 393 109 407Q114 421 122.5 428.5Q131 436 141 442Q146 445 144 451Q141 462 142.0 477.5Q143 493 149 505Q157 519 167.0 524.5Q177 530 189 534Q194 536 194 542Q192 553 195.5 567.5Q199 582 208 594Q215 604 229.0 609.0Q243 614 254 615Q260 616 261 622Q262 633 267.5 646.5Q273 660 287 672Q297 680 311.0 681.5Q325 683 337 682Q342 682 344 687Q348 698 355.5 708.5Q363 719 377 727Q388 733 404.0 734.0Q420 735 431 731Q437 729 440 735Q445 745 451.5 754.0Q458 763 474 768Q492 775 507.5 771.0Q523 767 533 761Q538 758 542 763Q551 774 557.5 783.0Q564 792 589 795Q609 797 621.0 791.0Q633 785 645 777Q650 773 654 777Q664 785 676.0 791.5Q688 798 714 793Q728 790 737.0 782.5Q746 775 753 764Q757 759 763 762Q773 767 786.0 771.0Q799 775 821 766Q837 760 842.5 752.5Q848 745 854 734Q857 729 863 731Q874 735 889.5 735.5Q905 736 921 726Q932 719 939.0 708.5Q946 698 950 687Q952 682 957 682Q969 683 986.5 680.0Q1004 677 1014 665Q1023 656 1027.5 644.5Q1032 633 1033 622Q1034 616 1039 615Q1051 614 1065.0 608.5Q1079 603 1088 590Q1095 580 1098.0 566.5Q1101 553 1100 542Q1100 536 1105 534Q1116 530 1127.5 523.5Q1139 517 1146 500Q1157 476 1150 451Q1148 445 1153 442Q1163 437 1172.0 427.5Q1181 418 1186 401Q1190 390 1187.5 376.5Q1185 363 1180 353Q1178 348 1182 344Q1191 337 1197.5 324.5Q1204 312 1205 295Q1206 270 1193 253Q1189 248 1193 243Q1200 235 1204.5 221.0Q1209 207 1207 192Z" fill="#3f2720" stroke="none" transform="scale(1,-1) translate(0,-256)" /></svg>