<?xml version="1.0" encoding="utf-8" ?>
<svg baseProfile="full" height="256" version="1.1" width="256" xmlns="http://www.w3.org/2000/svg" xmlns:ev="http://www.w3.org/2001/xml-events" xmlns:xlink="http://www.w3.org/1999/xlink"><defs /><path d="M421 340Q441 349 481.0 341.5Q521 334 570.5 316.5Q620 299 669.0 278.5Q718 258 757.0 240.0Q796 222 815 212Q845 197 875.0 198.5Q905 200 925.0 206.0Q945 212 945 212L1077 280Q1085 284 1084.0 293.0Q1083 302 1074 304Q1053 309 1025.0 318.0Q997 327 967 340Q926 359 876.0 380.5Q826 402 766.5 417.0Q707 432 639 432Q572 432 515.0 419.0Q458 406 409.5 387.0Q361 368 320 350Q283 334 251.0 326.0Q219 318 198.5 314.0Q178 310 177 305Q176 300 199.0 298.5Q222 297 259.5 300.5Q297 304 339.5 313.5Q382 323 421 340Z" fill="#3e2723" stroke="none" transform="scale(1,-1) translate(0,-256)" /></svg>