<?xml version="1.0" encoding="utf-8" ?>
<svg baseProfile="full" height="256" version="1.1" width="256" xmlns="http://www.w3.org/2000/svg" xmlns:ev="http://www.w3.org/2001/xml-events" xmlns:xlink="http://www.w3.org/1999/xlink"><defs /><path d="M987 332Q987 332 981.5 325.5Q976 319 957.5 309.5Q939 300 901.5 290.5Q864 281 801.5 274.5Q739 268 644 268Q550 268 488.0 275.5Q426 283 389.5 294.5Q353 306 335.0 317.5Q317 329 312.0 336.5Q307 344 307 344Q310 346 313.0 347.5Q316 349 320 350Q361 368 409.5 387.0Q458 406 515.0 419.0Q572 432 639 432Q707 432 766.5 417.0Q826 402 876.0 380.5Q926 359 967 340Q972 338 977.0 336.0Q982 334 987 332Q987 332 987.0 332.0Q987 332 987 332Z" fill="#bdbdbd" stroke="none" transform="scale(1,-1) translate(0,-256)" /></svg>