<?xml version="1.0" encoding="utf-8" ?>
<svg baseProfile="full" height="256" version="1.1" width="256" xmlns="http://www.w3.org/2000/svg" xmlns:ev="http://www.w3.org/2001/xml-events" xmlns:xlink="http://www.w3.org/1999/xlink"><defs /><path d="M805 618Q873 610 933.0 578.0Q993 546 1043.5 500.5Q1094 455 1132.5 407.0Q1171 359 1196 320Q1203 308 1198.5 291.0Q1194 274 1187.0 261.0Q1180 248 1180 248Q1171 242 1159.5 221.0Q1148 200 1129.5 171.5Q1111 143 1081.0 112.5Q1051 82 1005.0 56.0Q959 30 892 16Q834 3 767.0 12.5Q700 22 629.5 45.5Q559 69 490.0 98.5Q421 128 359.0 155.5Q297 183 246 199Q205 212 163.0 222.5Q121 233 99 248Q81 259 76.5 280.5Q72 302 83 320Q108 359 148.5 406.5Q189 454 241.0 499.0Q293 544 352.0 576.5Q411 609 474 618Q516 623 548.0 616.0Q580 609 599.5 598.0Q619 587 627 583Q635 578 639 577Q644 578 652 583Q660 587 679.5 597.5Q699 608 730.5 615.0Q762 622 805 618Z" fill="#ef4d8f" stroke="none" transform="scale(1,-1) translate(0,-256)" /></svg>