<?xml version="1.0" encoding="utf-8" ?>
<svg baseProfile="full" height="256" version="1.1" width="256" xmlns="http://www.w3.org/2000/svg" xmlns:ev="http://www.w3.org/2001/xml-events" xmlns:xlink="http://www.w3.org/1999/xlink"><defs /><path d="M346 667Q344 681 355.5 689.0Q367 697 384 697Q390 697 415.5 697.5Q441 698 477.5 698.0Q514 698 555.5 697.5Q597 697 634.5 697.0Q672 697 699.5 697.0Q727 697 735 696Q758 696 769.0 687.5Q780 679 781 669Q783 659 773.0 648.5Q763 638 746 637Q739 637 708.5 637.0Q678 637 636.0 637.0Q594 637 550.0 637.0Q506 637 470.5 636.5Q435 636 420 636Q383 636 365.0 640.0Q347 644 346 667Z" fill="#feffff" stroke="none" transform="scale(1,-1) translate(0,-256)" /></svg>