<?xml version="1.0" encoding="utf-8" ?>
<svg baseProfile="full" height="256" version="1.1" width="256" xmlns="http://www.w3.org/2000/svg" xmlns:ev="http://www.w3.org/2001/xml-events" xmlns:xlink="http://www.w3.org/1999/xlink"><defs /><path d="M978 637 957 583H921Q914 544 895.5 522.5Q877 501 861.0 492.5Q845 484 845 484Q845 484 818.5 484.0Q792 484 748.0 483.5Q704 483 651.5 483.0Q599 483 545.0 483.0Q491 483 444.0 483.0Q397 483 365.5 483.5Q334 484 327 484Q308 487 284.5 502.0Q261 517 243.5 543.0Q226 569 226 606Q227 662 258.5 696.0Q290 730 334 731Q347 731 383.5 731.0Q420 731 470.0 731.5Q520 732 573.5 732.0Q627 732 675.0 732.0Q723 732 755.0 732.0Q787 732 793 732Q817 731 844.0 724.5Q871 718 893.0 698.0Q915 678 922 637Z" fill="#fcc11a" stroke="none" transform="scale(1,-1) translate(0,-256)" /><path d="M299 500 324 504Q324 504 324.0 480.0Q324 456 324.0 420.0Q324 384 324.0 347.5Q324 311 324.0 285.5Q324 260 324 257Q324 252 321.5 247.0Q319 242 311 242Q303 242 301.0 248.0Q299 254 299 257Q299 259 299.0 284.0Q299 309 299.0 345.0Q299 381 299.0 416.5Q299 452 299.0 476.0Q299 500 299 500Z" fill="#fcc11a" stroke="none" transform="scale(1,-1) translate(0,-256)" /><path d="M343 506 368 513Q368 513 368.0 488.5Q368 464 368.0 427.5Q368 391 368.0 354.0Q368 317 368.0 290.5Q368 264 368 261Q368 254 365.5 248.5Q363 243 355 243Q347 243 345.0 248.5Q343 254 343 260Q343 263 343.0 288.5Q343 314 343.0 350.0Q343 386 343.0 422.0Q343 458 343.0 482.0Q343 506 343 506Z" fill="#fcc11a" stroke="none" transform="scale(1,-1) translate(0,-256)" /></svg>