<?xml version="1.0" encoding="utf-8" ?>
<svg baseProfile="full" height="256" version="1.1" width="256" xmlns="http://www.w3.org/2000/svg" xmlns:ev="http://www.w3.org/2001/xml-events" xmlns:xlink="http://www.w3.org/1999/xlink"><defs /><path d="M350 702Q332 702 332 684Q332 665 350 665H923Q942 665 942 684Q942 702 923 702Z" fill="#b0bec5" stroke="none" transform="scale(1,-1) translate(0,-256)" /><path d="M350.0 564.843994140625Q332.0 564.843994140625 332.0 546.843994140625Q332.0 527.843994140625 350.0 527.843994140625H923.0Q942.0 527.843994140625 942.0 546.843994140625Q942.0 564.843994140625 923.0 564.843994140625Z" fill="#b0bec5" stroke="none" transform="scale(1,-1) translate(0,-256)" /><path d="M350.0 427.68800354003906Q332.0 427.68800354003906 332.0 409.68800354003906Q332.0 390.68800354003906 350.0 390.68800354003906H923.0Q942.0 390.68800354003906 942.0 409.68800354003906Q942.0 427.68800354003906 923.0 427.68800354003906Z" fill="#b0bec5" stroke="none" transform="scale(1,-1) translate(0,-256)" /><path d="M350.0 290.625Q332.0 290.625 332.0 272.625Q332.0 253.625 350.0 253.625H923.0Q942.0 253.625 942.0 272.625Q942.0 290.625 923.0 290.625Z" fill="#b0bec5" stroke="none" transform="scale(1,-1) translate(0,-256)" /><path d="M350 153Q332 153 332 135Q332 117 350 117H595Q613 117 613 135Q613 153 595 153Z" fill="#b0bec5" stroke="none" transform="scale(1,-1) translate(0,-256)" /></svg>