<?xml version="1.0" encoding="utf-8" ?>
<svg baseProfile="full" height="256" version="1.1" width="256" xmlns="http://www.w3.org/2000/svg" xmlns:ev="http://www.w3.org/2001/xml-events" xmlns:xlink="http://www.w3.org/1999/xlink"><defs /><path d="M860 1Q888 1 904.5 -21.0Q921 -43 914 -70L903 -117Q899 -117 900 -117Q887 -116 877.0 -109.0Q867 -102 857 -96Q835 -83 809.0 -87.0Q783 -91 745.0 -101.5Q707 -112 651 -118Q617 -121 575.0 -114.0Q533 -107 491.5 -99.5Q450 -92 418.5 -94.0Q387 -96 374 -119L362 -70Q354 -44 371.0 -21.5Q388 1 416 1Z" fill="#784d30" stroke="none" transform="scale(1,-1) translate(0,-256)" /><path d="M415.656005859375 698.531005859375Q387.656005859375 698.531005859375 371.156005859375 720.531005859375Q354.656005859375 742.531005859375 361.656005859375 769.531005859375L372.656005859375 816.531005859375Q376.656005859375 816.531005859375 375.656005859375 816.531005859375Q388.656005859375 815.531005859375 398.656005859375 808.531005859375Q408.656005859375 801.531005859375 418.656005859375 795.531005859375Q440.656005859375 782.531005859375 466.656005859375 786.531005859375Q492.656005859375 790.531005859375 530.656005859375 801.031005859375Q568.656005859375 811.531005859375 624.656005859375 817.531005859375Q658.656005859375 820.531005859375 700.656005859375 813.531005859375Q742.656005859375 806.531005859375 784.156005859375 799.031005859375Q825.656005859375 791.531005859375 857.156005859375 793.531005859375Q888.656005859375 795.531005859375 901.656005859375 818.531005859375L913.656005859375 769.531005859375Q921.656005859375 743.531005859375 904.656005859375 721.031005859375Q887.656005859375 698.531005859375 859.656005859375 698.531005859375Z" fill="#784d30" stroke="none" transform="scale(1,-1) translate(0,-256)" /></svg>