<?xml version="1.0" encoding="utf-8" ?>
<svg baseProfile="full" height="256" version="1.1" width="256" xmlns="http://www.w3.org/2000/svg" xmlns:ev="http://www.w3.org/2001/xml-events" xmlns:xlink="http://www.w3.org/1999/xlink"><defs /><path d="M951 713Q956 689 960.0 665.0Q964 641 966.0 625.0Q968 609 968 609L638 621L307 609Q307 609 309.0 625.0Q311 641 315.0 665.0Q319 689 324 713Q334 756 360.0 774.0Q386 792 406 792H638H869Q889 792 915.0 774.0Q941 756 951 713Z" fill="#78909c" stroke="none" transform="scale(1,-1) translate(0,-256)" /><path d="M323.906005859375 -13.468002319335938Q318.906005859375 10.531997680664062 314.906005859375 34.53199768066406Q310.906005859375 58.53199768066406 308.906005859375 74.53199768066406Q306.906005859375 90.53199768066406 306.906005859375 90.53199768066406L636.906005859375 78.53199768066406L967.906005859375 90.53199768066406Q967.906005859375 90.53199768066406 965.906005859375 74.53199768066406Q963.906005859375 58.53199768066406 959.906005859375 34.53199768066406Q955.906005859375 10.531997680664062 950.906005859375 -13.468002319335938Q940.906005859375 -56.46800231933594 914.906005859375 -74.46800231933594Q888.906005859375 -92.46800231933594 868.906005859375 -92.46800231933594H636.906005859375H405.906005859375Q385.906005859375 -92.46800231933594 359.906005859375 -74.46800231933594Q333.906005859375 -56.46800231933594 323.906005859375 -13.468002319335938Z" fill="#78909c" stroke="none" transform="scale(1,-1) translate(0,-256)" /></svg>