<?xml version="1.0" encoding="utf-8" ?>
<svg baseProfile="full" height="256" version="1.1" width="256" xmlns="http://www.w3.org/2000/svg" xmlns:ev="http://www.w3.org/2001/xml-events" xmlns:xlink="http://www.w3.org/1999/xlink"><defs /><path d="M1082 -115Q1095 -108 1104.5 -96.0Q1114 -84 1122 -71L1102 -49Q1096 -61 1084.0 -75.5Q1072 -90 1061 -97Q1051 -103 1061 -112Q1069 -119 1074.5 -117.5Q1080 -116 1082 -115Z" fill="#a65f3e" stroke="none" transform="scale(1,-1) translate(0,-256)" /><path d="M1041 -66Q1053 -59 1063.0 -48.5Q1073 -38 1082 -25L1063 -3Q1056 -15 1042.5 -29.0Q1029 -43 1018 -49Q1013 -52 1012.5 -57.5Q1012 -63 1021 -68Q1027 -72 1033.5 -69.5Q1040 -67 1041 -66Z" fill="#a65f3e" stroke="none" transform="scale(1,-1) translate(0,-256)" /><path d="M991 -31Q1002 -23 1016.5 -8.5Q1031 6 1041 22L1022 44Q1013 30 997.5 13.5Q982 -3 969 -11Q964 -14 965.0 -19.5Q966 -25 970 -28Q977 -33 983.0 -32.5Q989 -32 991 -31Z" fill="#a65f3e" stroke="none" transform="scale(1,-1) translate(0,-256)" /><path d="M192.625 -115.0Q179.625 -108.0 170.125 -96.0Q160.625 -84.0 152.625 -71.0L172.625 -49.0Q178.625 -61.0 190.625 -75.5Q202.625 -90.0 213.625 -97.0Q223.625 -103.0 213.625 -112.0Q205.625 -119.0 200.125 -117.5Q194.625 -116.0 192.625 -115.0Z" fill="#a65f3e" stroke="none" transform="scale(1,-1) translate(0,-256)" /><path d="M233.718994140625 -66.0Q221.718994140625 -59.0 211.718994140625 -48.5Q201.718994140625 -38.0 192.718994140625 -25.0L211.718994140625 -3.0Q218.718994140625 -15.0 232.218994140625 -29.0Q245.718994140625 -43.0 256.718994140625 -49.0Q261.718994140625 -52.0 262.218994140625 -57.5Q262.718994140625 -63.0 253.718994140625 -68.0Q247.718994140625 -72.0 241.218994140625 -69.5Q234.718994140625 -67.0 233.718994140625 -66.0Z" fill="#a65f3e" stroke="none" transform="scale(1,-1) translate(0,-256)" /><path d="M283.6219940185547 -31.0Q272.6219940185547 -23.0 258.1219940185547 -8.5Q243.6219940185547 6.0 233.6219940185547 22.0L252.6219940185547 44.0Q261.6219940185547 30.0 277.1219940185547 13.5Q292.6219940185547 -3.0 305.6219940185547 -11.0Q310.6219940185547 -14.0 309.6219940185547 -19.5Q308.6219940185547 -25.0 304.6219940185547 -28.0Q297.6219940185547 -33.0 291.6219940185547 -32.5Q285.6219940185547 -32.0 283.6219940185547 -31.0Z" fill="#a65f3e" stroke="none" transform="scale(1,-1) translate(0,-256)" /></svg>