<?xml version="1.0" encoding="utf-8" ?>
<svg baseProfile="full" height="256" version="1.1" width="256" xmlns="http://www.w3.org/2000/svg" xmlns:ev="http://www.w3.org/2001/xml-events" xmlns:xlink="http://www.w3.org/1999/xlink"><defs /><path d="M195 687Q213 670 251.0 632.0Q289 594 341.5 541.5Q394 489 454.0 429.0Q514 369 575.0 307.5Q636 246 692.0 190.5Q748 135 792.0 91.0Q836 47 861.5 21.5Q887 -4 887 -4L939 48L71 917Q71 917 77.5 894.5Q84 872 98.5 836.5Q113 801 137.0 761.5Q161 722 195 687Z" fill="#82aec0" stroke="none" transform="scale(1,-1) translate(0,-256)" /><path d="M1080.0 687.0Q1062.0 670.0 1024.0 632.0Q986.0 594.0 933.5 541.5Q881.0 489.0 821.0 429.0Q761.0 369.0 700.0 307.5Q639.0 246.0 583.0 190.5Q527.0 135.0 483.0 91.0Q439.0 47.0 413.5 21.5Q388.0 -4.0 388.0 -4.0L336.0 48.0L1204.0 917.0Q1204.0 917.0 1197.5 894.5Q1191.0 872.0 1176.5 836.5Q1162.0 801.0 1138.0 761.5Q1114.0 722.0 1080.0 687.0Z" fill="#82aec0" stroke="none" transform="scale(1,-1) translate(0,-256)" /></svg>