<?xml version="1.0" encoding="utf-8" ?>
<svg baseProfile="full" height="256" version="1.1" width="256" xmlns="http://www.w3.org/2000/svg" xmlns:ev="http://www.w3.org/2001/xml-events" xmlns:xlink="http://www.w3.org/1999/xlink"><defs /><path d="M1111 604 1072 644 715 287Q686 258 642 248Q532 230 480 178L519 138Q559 177 652 193H653H654Q714 207 755 247Z" fill="#82aec0" stroke="none" transform="scale(1,-1) translate(0,-256)" /><path d="M300 -5Q316 -20 338.5 -20.0Q361 -20 377 -5L541 160L448 253L284 89Q268 73 268.0 50.5Q268 28 284 12Z" fill="#82aec0" stroke="none" transform="scale(1,-1) translate(0,-256)" /><path d="M936 789 897 829 540 472Q500 432 486 372L485 371V370Q470 276 431 237L470 197Q522 249 541 360Q551 404 580 432Z" fill="#82aec0" stroke="none" transform="scale(1,-1) translate(0,-256)" /></svg>