<?xml version="1.0" encoding="utf-8" ?>
<svg baseProfile="full" height="256" version="1.1" width="256" xmlns="http://www.w3.org/2000/svg" xmlns:ev="http://www.w3.org/2001/xml-events" xmlns:xlink="http://www.w3.org/1999/xlink"><defs /><path d="M771 341Q775 336 779 334Q786 329 794.0 331.5Q802 334 806 339L815 348Q819 352 823.5 359.5Q828 367 822 374Q819 377 815.0 379.0Q811 381 807 384Q791 393 782.5 409.5Q774 426 764 441Q747 466 721 482Q710 490 699.0 494.5Q688 499 680 512Q678 516 675.0 520.5Q672 525 669 528Q657 540 642.0 533.5Q627 527 620.0 512.5Q613 498 623 486Q627 482 631.5 478.5Q636 475 641 471Q660 454 672.0 429.5Q684 405 705 390Q712 385 720.0 381.0Q728 377 736 373Q754 363 767 346Q768 345 769.0 343.5Q770 342 771 341Z" fill="#b7855f" stroke="none" transform="scale(1,-1) translate(0,-256)" /><path d="M1071 631Q1097 610 1118.0 601.0Q1139 592 1152 593Q1168 594 1179.5 602.5Q1191 611 1193 628Q1194 635 1193.0 641.5Q1192 648 1191 654Q1189 661 1186.0 667.5Q1183 674 1178 679Q1169 689 1155.5 692.0Q1142 695 1130 698Q1120 701 1113.0 705.5Q1106 710 1098 717Q1082 732 1066.5 747.0Q1051 762 1035 777Q1022 790 1007.0 803.5Q992 817 981 833Q973 845 968.0 860.0Q963 875 956.0 888.5Q949 902 934 909Q907 920 886 902Q871 889 871.0 871.0Q871 853 880.0 835.5Q889 818 899 805Q914 787 937.5 762.0Q961 737 987.0 710.5Q1013 684 1035.5 662.5Q1058 641 1071 631Z" fill="#b7855f" stroke="none" transform="scale(1,-1) translate(0,-256)" /></svg>