<?xml version="1.0" encoding="utf-8" ?>
<svg baseProfile="full" height="256" version="1.1" width="256" xmlns="http://www.w3.org/2000/svg" xmlns:ev="http://www.w3.org/2001/xml-events" xmlns:xlink="http://www.w3.org/1999/xlink"><defs /><path d="M1170 840Q1180 844 1188.0 836.5Q1196 829 1196 818Q1172 756 1120.0 695.0Q1068 634 994.0 584.0Q920 534 829.0 504.0Q738 474 638 474Q537 474 446.0 504.0Q355 534 281.0 584.0Q207 634 155.0 695.0Q103 756 80 818Q79 829 87.0 836.5Q95 844 105 840Q132 830 184.5 814.5Q237 799 308.5 784.5Q380 770 464.0 760.0Q548 750 638 749Q727 750 811.0 760.0Q895 770 966.5 784.5Q1038 799 1090.5 814.5Q1143 830 1170 840Z" fill="#424242" stroke="none" transform="scale(1,-1) translate(0,-256)" /></svg>