<?xml version="1.0" encoding="utf-8" ?>
<svg baseProfile="full" height="256" version="1.1" width="256" xmlns="http://www.w3.org/2000/svg" xmlns:ev="http://www.w3.org/2001/xml-events" xmlns:xlink="http://www.w3.org/1999/xlink"><defs /><path d="M709 241Q720 252 735.5 248.5Q751 245 766 233Q781 221 793.5 219.0Q806 217 819 212Q839 204 851.0 188.0Q863 172 850 150Q838 128 809.5 131.5Q781 135 750 155Q719 176 709.0 204.0Q699 232 709 241Z" fill="#ff605f" stroke="none" transform="scale(1,-1) translate(0,-256)" /><path d="M875 209Q878 216 884.5 221.0Q891 226 907 221Q926 216 926.5 202.0Q927 188 913 180Q898 173 883.5 184.0Q869 195 875 209Z" fill="#ff605f" stroke="none" transform="scale(1,-1) translate(0,-256)" /><path d="M426 51Q417 73 430.0 87.0Q443 101 459 110Q480 120 500.5 118.0Q521 116 526 102Q538 74 502 53Q490 46 474.5 40.0Q459 34 445.0 35.0Q431 36 426 51Z" fill="#ff605f" stroke="none" transform="scale(1,-1) translate(0,-256)" /><path d="M326 217Q355 233 366.5 229.5Q378 226 381.0 212.0Q384 198 385 186Q386 167 391.5 151.5Q397 136 403 122Q408 108 409.5 92.0Q411 76 405.5 63.5Q400 51 384 48Q367 46 355.0 64.0Q343 82 335 95Q327 108 315.5 113.0Q304 118 293 143Q289 152 294.0 176.0Q299 200 326 217Z" fill="#ff605f" stroke="none" transform="scale(1,-1) translate(0,-256)" /></svg>