<?xml version="1.0" encoding="utf-8" ?>
<svg baseProfile="full" height="256" version="1.1" width="256" xmlns="http://www.w3.org/2000/svg" xmlns:ev="http://www.w3.org/2001/xml-events" xmlns:xlink="http://www.w3.org/1999/xlink"><defs /><path d="M779 217Q779 217 802.0 217.0Q825 217 860.5 216.0Q896 215 933.0 212.5Q970 210 999.0 205.5Q1028 201 1037 194Q1047 186 1058.0 160.5Q1069 135 1074.0 98.5Q1079 62 1072.5 21.0Q1066 -20 1043.5 -59.0Q1021 -98 976 -129Q932 -158 889.0 -165.0Q846 -172 807.5 -165.5Q769 -159 740.0 -146.5Q711 -134 694.0 -123.5Q677 -113 677 -113Q677 -113 663.5 -130.5Q650 -148 622.0 -171.0Q594 -194 550.5 -211.0Q507 -228 449 -226Q421 -226 385.0 -217.5Q349 -209 313.0 -188.5Q277 -168 249.5 -131.0Q222 -94 210 -36Q200 17 207.0 58.5Q214 100 230.5 131.0Q247 162 265.5 183.0Q284 204 297.0 214.5Q310 225 310 225L605 166Q605 166 614.5 184.5Q624 203 635 217Q646 230 650.5 234.5Q655 239 655 239Z" fill="#af0c1a" stroke="none" transform="scale(1,-1) translate(0,-256)" /></svg>