<?xml version="1.0" encoding="utf-8" ?>
<svg baseProfile="full" height="256" version="1.1" width="256" xmlns="http://www.w3.org/2000/svg" xmlns:ev="http://www.w3.org/2001/xml-events" xmlns:xlink="http://www.w3.org/1999/xlink"><defs /><path d="M194 662Q220 659 228.0 645.0Q236 631 234 624Q231 618 223.5 618.0Q216 618 204.0 616.5Q192 615 175 604Q159 593 148.0 573.5Q137 554 129.5 538.5Q122 523 115 525Q108 527 103.0 549.0Q98 571 112 605Q122 630 138.5 642.5Q155 655 170.5 659.0Q186 663 194 662Z" fill="#d26051" stroke="none" transform="scale(1,-1) translate(0,-256)" /></svg>