<?xml version="1.0" encoding="utf-8" ?>
<svg baseProfile="full" height="256" version="1.1" width="256" xmlns="http://www.w3.org/2000/svg" xmlns:ev="http://www.w3.org/2001/xml-events" xmlns:xlink="http://www.w3.org/1999/xlink"><defs /><path d="M827 580Q827 580 824.5 569.0Q822 558 819.5 543.0Q817 528 814.5 516.0Q812 504 812 502Q812 501 823.5 502.0Q835 503 850.5 505.5Q866 508 878.0 510.0Q890 512 890 512L1143 769L1081 834Q1081 834 1062.5 815.5Q1044 797 1015.0 768.5Q986 740 953.5 707.5Q921 675 892.0 646.5Q863 618 845.0 599.5Q827 581 827 580Z" fill="#474c4f" stroke="none" transform="scale(1,-1) translate(0,-256)" /></svg>