<?xml version="1.0" encoding="utf-8" ?>
<svg baseProfile="full" height="256" version="1.1" width="256" xmlns="http://www.w3.org/2000/svg" xmlns:ev="http://www.w3.org/2001/xml-events" xmlns:xlink="http://www.w3.org/1999/xlink"><defs /><path d="M712 588Q711 587 686.5 562.5Q662 538 621.5 497.0Q581 456 530.5 405.0Q480 354 426.5 299.5Q373 245 323.0 193.5Q273 142 232.5 100.5Q192 59 168.5 34.0Q145 9 144 7Q144 3 147.0 -10.0Q150 -23 154.0 -36.0Q158 -49 160 -52Q161 -55 174.0 -70.0Q187 -85 204.0 -104.0Q221 -123 234.5 -138.0Q248 -153 249 -154Q251 -156 267.0 -156.5Q283 -157 299.0 -157.5Q315 -158 318 -157Q318 -157 342.5 -133.0Q367 -109 407.5 -68.0Q448 -27 498.0 23.5Q548 74 601.5 127.5Q655 181 705.0 232.0Q755 283 795.0 324.0Q835 365 858.0 389.5Q881 414 881 415Q880 420 874.0 427.5Q868 435 864 448Q860 461 862.0 476.5Q864 492 864 492L865 517L842 554Q842 554 829.0 553.5Q816 553 798.5 552.5Q781 552 767 553Q753 553 741.0 562.5Q729 572 721.5 580.5Q714 589 712 588Z" fill="#eb8b34" stroke="none" transform="scale(1,-1) translate(0,-256)" /></svg>