<?xml version="1.0" encoding="utf-8" ?>
<svg baseProfile="full" height="256" version="1.1" width="256" xmlns="http://www.w3.org/2000/svg" xmlns:ev="http://www.w3.org/2001/xml-events" xmlns:xlink="http://www.w3.org/1999/xlink"><defs /><path d="M662 523Q662 523 648.0 498.0Q634 473 611.0 434.5Q588 396 562.0 354.0Q536 312 512.5 277.5Q489 243 473 227Q426 182 375.5 146.5Q325 111 278.0 84.5Q231 58 196.0 39.0Q161 20 144 7Q139 3 137 0Q134 -4 134.0 -19.0Q134 -34 135.0 -47.0Q136 -60 136 -60Q136 -60 146.5 -71.5Q157 -83 172.0 -100.0Q187 -117 202.5 -134.5Q218 -152 229.5 -164.5Q241 -177 243 -178Q246 -179 263.0 -181.5Q280 -184 297.0 -185.5Q314 -187 317 -185Q318 -184 343.5 -159.0Q369 -134 412.0 -91.5Q455 -49 508.0 3.5Q561 56 617.5 112.5Q674 169 727.0 222.0Q780 275 822.0 318.0Q864 361 889.0 387.0Q914 413 914 416Q914 423 903.0 433.0Q892 443 888 458Q885 470 886.5 483.5Q888 497 890.5 506.5Q893 516 893 516L898 544L868 588Q868 588 844.5 582.5Q821 577 792 574Q773 573 761.5 579.5Q750 586 742.5 593.5Q735 601 731 602Q724 602 718.0 595.0Q712 588 712 588Z" fill="#d06f1d" stroke="none" transform="scale(1,-1) translate(0,-256)" /></svg>