<?xml version="1.0" encoding="utf-8" ?>
<svg baseProfile="full" height="256" version="1.1" width="256" xmlns="http://www.w3.org/2000/svg" xmlns:ev="http://www.w3.org/2001/xml-events" xmlns:xlink="http://www.w3.org/1999/xlink"><defs /><path d="M863 398 861 397Q862 395 864.0 390.5Q866 386 862.0 383.0Q858 380 840 381Q820 382 804.0 390.0Q788 398 773 412Q768 418 753.5 432.0Q739 446 721.0 463.5Q703 481 687.5 497.0Q672 513 664 521Q655 530 643.0 530.0Q631 530 622 521Q622 521 607.0 506.5Q592 492 569.5 470.0Q547 448 523.5 425.0Q500 402 483 385Q458 361 424 368Q412 370 412.5 377.0Q413 384 418.0 390.0Q423 396 423 396Q423 396 440.5 413.5Q458 431 485.0 457.5Q512 484 540.0 512.0Q568 540 589.0 561.0Q610 582 616 587Q628 599 644.5 599.0Q661 599 673 587Q675 586 694.5 566.0Q714 546 742.0 518.0Q770 490 797.5 462.5Q825 435 844.0 416.5Q863 398 863 398Z" fill="#ffffff" stroke="none" transform="scale(1,-1) translate(0,-256)" /></svg>