<?xml version="1.0" encoding="utf-8" ?>
<svg baseProfile="full" height="256" version="1.1" width="256" xmlns="http://www.w3.org/2000/svg" xmlns:ev="http://www.w3.org/2001/xml-events" xmlns:xlink="http://www.w3.org/1999/xlink"><defs /><path d="M1109 842Q1156 795 1172.0 732.5Q1188 670 1172.0 607.5Q1156 545 1109 498L476 -135Q432 -179 374.5 -193.5Q317 -208 260.0 -193.5Q203 -179 158 -135L154 -130Q106 -83 90.5 -20.5Q75 42 90.5 104.5Q106 167 154 214L787 847Q831 891 888.0 905.5Q945 920 1002.5 905.5Q1060 891 1104 847ZM225 -1Q232 6 232.0 16.5Q232 27 225 34Q218 41 207.5 41.0Q197 41 190 34Q183 27 183.0 16.5Q183 6 190 -1Q197 -8 207.5 -8.0Q218 -8 225 -1ZM241 100Q248 107 248.0 117.0Q248 127 241 134Q234 141 223.5 141.0Q213 141 206 134Q199 127 199.0 117.0Q199 107 206 100Q213 93 223.5 93.0Q234 93 241 100ZM309 -85Q316 -78 316.0 -67.5Q316 -57 309 -50Q302 -43 292.0 -43.0Q282 -43 275 -50Q268 -57 268.0 -67.5Q268 -78 275 -85Q282 -92 292.0 -92.0Q302 -92 309 -85ZM328 13Q335 20 335.0 30.0Q335 40 328 47Q321 54 310.5 54.0Q300 54 293 47Q286 40 286.0 30.0Q286 20 293 13Q300 5 310.5 5.0Q321 5 328 13ZM341 116Q348 123 348.0 133.0Q348 143 341 150Q334 157 324.0 157.0Q314 157 307 150Q300 143 300.0 133.0Q300 123 307 116Q314 109 324.0 109.0Q334 109 341 116ZM357 216Q364 223 364.0 233.5Q364 244 357 251Q350 258 340.0 258.0Q330 258 323 251Q315 244 315.0 233.5Q315 223 323 216Q330 209 340.0 209.0Q350 209 357 216ZM410 -69Q417 -62 417.0 -51.5Q417 -41 410 -34Q403 -27 392.5 -27.0Q382 -27 375 -34Q368 -41 368.0 -51.5Q368 -62 375 -69Q382 -76 392.5 -76.0Q403 -76 410 -69ZM426 31Q433 38 433.0 48.5Q433 59 426 66Q419 73 408.5 73.0Q398 73 391 66Q384 59 384.0 48.5Q384 38 391 31Q398 24 408.5 24.0Q419 24 426 31ZM444 129Q451 136 451.0 146.0Q451 156 444 163Q437 170 427.0 170.0Q417 170 410 163Q403 156 403.0 146.0Q403 136 410 129Q417 122 427.0 122.0Q437 122 444 129ZM526 47Q533 54 533.0 64.5Q533 75 526 82Q519 89 508.5 89.0Q498 89 491 82Q484 75 484.0 64.5Q484 54 491 47Q498 40 508.5 40.0Q519 40 526 47ZM772 630Q779 637 779.0 647.5Q779 658 772 665Q765 672 754.5 672.0Q744 672 737 665Q730 658 730.0 647.5Q730 637 737 630Q744 623 754.5 623.0Q765 623 772 630ZM853 549Q860 556 860.0 566.0Q860 576 853 583Q846 590 835.5 590.0Q825 590 818 583Q811 576 811.0 566.0Q811 556 818 549Q825 542 835.5 542.0Q846 542 853 549ZM872 646Q879 653 879.0 663.5Q879 674 872 681Q865 688 854.5 688.0Q844 688 837 681Q830 674 830.0 663.5Q830 653 837 646Q844 639 854.5 639.0Q865 639 872 646ZM888 747Q895 754 895.0 764.0Q895 774 888 781Q881 788 870.5 788.0Q860 788 853 781Q846 774 846.0 764.0Q846 754 853 747Q860 740 870.5 740.0Q881 740 888 747ZM940 462Q947 469 947.0 479.0Q947 489 940 496Q933 503 923.0 503.0Q913 503 906 496Q899 489 899.0 479.0Q899 469 906 462Q913 455 923.0 455.0Q933 455 940 462ZM956 562Q963 569 963.0 579.5Q963 590 956 597Q949 604 939.0 604.0Q929 604 922 597Q915 590 915.0 579.5Q915 569 922 562Q929 555 939.0 555.0Q949 555 956 562ZM969 665Q976 672 976.0 682.5Q976 693 969 700Q962 707 952.0 707.0Q942 707 935 700Q928 693 928.0 682.5Q928 672 935 665Q942 658 952.0 658.0Q962 658 969 665ZM988 763Q995 770 995.0 780.0Q995 790 988 797Q981 804 970.5 804.0Q960 804 953 797Q946 790 946.0 780.0Q946 770 953 763Q960 755 970.5 755.0Q981 755 988 763ZM1057 578Q1064 585 1064.0 595.0Q1064 605 1057 613Q1050 620 1039.5 620.0Q1029 620 1022 613Q1015 605 1015.0 595.0Q1015 585 1022 578Q1029 571 1039.5 571.0Q1050 571 1057 578ZM1073 678Q1080 685 1080.0 695.5Q1080 706 1073 713Q1065 720 1055.0 720.0Q1045 720 1038 713Q1031 706 1031.0 695.5Q1031 685 1038 678Q1045 671 1055.0 671.0Q1065 671 1073 678Z" fill="#e0e1e0" stroke="none" transform="scale(1,-1) translate(0,-256)" /></svg>