<?xml version="1.0" encoding="utf-8" ?>
<svg baseProfile="full" height="256" version="1.1" width="256" xmlns="http://www.w3.org/2000/svg" xmlns:ev="http://www.w3.org/2001/xml-events" xmlns:xlink="http://www.w3.org/1999/xlink"><defs /><path d="M481 336Q459 346 450.0 354.0Q441 362 431.5 373.0Q422 384 399 403Q366 433 331.0 448.0Q296 463 265.0 467.5Q234 472 212.5 471.0Q191 470 184 467Q160 458 150.5 437.0Q141 416 144.5 393.5Q148 371 161 357Q171 346 206.0 318.0Q241 290 304 253Q340 230 365.0 201.0Q390 172 409.0 143.5Q428 115 446 93Q494 37 541.0 4.5Q588 -28 631.5 -44.5Q675 -61 713.0 -67.0Q751 -73 780 -76Q811 -86 825.5 -100.5Q840 -115 844 -118Q847 -121 853.0 -126.0Q859 -131 871 -128Q909 -119 954.0 -92.0Q999 -65 1041.5 -31.0Q1084 3 1117.5 36.5Q1151 70 1167 92Q1174 100 1174.0 108.5Q1174 117 1170 122Q1166 128 1157.0 146.0Q1148 164 1140 182Q1132 200 1128.5 217.0Q1125 234 1124 247Q1117 328 1112.0 383.0Q1107 438 1105 459Q1104 479 1105.0 491.0Q1106 503 1101 528Q1094 567 1075.5 585.0Q1057 603 1038.0 609.5Q1019 616 1008 619Q992 624 978.5 631.5Q965 639 951 653Q937 667 916.5 675.5Q896 684 876 685Q868 685 853.0 688.0Q838 691 819 705Q797 723 773.5 727.0Q750 731 730.5 728.0Q711 725 698.5 721.0Q686 717 686 717Q686 717 669.5 723.5Q653 730 630.0 738.5Q607 747 588.5 754.0Q570 761 567 763Q561 765 548.0 768.0Q535 771 521 769Q463 760 422.5 747.5Q382 735 353 725Q327 716 304.0 703.0Q281 690 253 676Q227 663 202.0 651.5Q177 640 161 625Q139 604 140.5 583.0Q142 562 157.5 547.0Q173 532 194 528Q233 521 270.5 528.5Q308 536 342.5 549.0Q377 562 408 573Q420 577 438.0 579.5Q456 582 472.0 579.0Q488 576 493 567Q463 548 453.0 527.5Q443 507 443.0 489.5Q443 472 445 464Q447 457 451.0 439.5Q455 422 458.5 405.0Q462 388 464 381Q470 355 481 336Z" fill="#ffca28" stroke="none" transform="scale(1,-1) translate(0,-256)" /></svg>