<?xml version="1.0" encoding="utf-8" ?>
<svg baseProfile="full" height="256" version="1.1" width="256" xmlns="http://www.w3.org/2000/svg" xmlns:ev="http://www.w3.org/2001/xml-events" xmlns:xlink="http://www.w3.org/1999/xlink"><defs /><path d="M1114 358Q1111 395 1109.0 420.5Q1107 446 1105 459Q1105 466 1105.0 471.5Q1105 477 1105 483Q1105 492 1104.5 502.0Q1104 512 1101 528Q1094 567 1075.5 585.0Q1057 603 1038.0 609.5Q1019 616 1008 619Q992 624 978.5 631.5Q965 639 951 653Q937 667 916.5 675.5Q896 684 876 685Q868 685 853.0 688.0Q838 691 819 705Q797 723 773.5 727.0Q750 731 730.5 728.0Q711 725 698.5 721.0Q686 717 686 717Q686 717 669.5 723.5Q653 730 630.0 738.5Q607 747 588.5 754.0Q570 761 567 763Q567 763 566 763Q560 765 547.5 768.0Q535 771 521 769Q463 760 422.5 747.5Q382 735 353 725Q327 716 304.0 703.0Q281 690 253 676Q227 663 202.0 651.5Q177 640 161 625Q139 604 140.5 583.0Q142 562 157.5 547.0Q173 532 194 528Q199 527 204 527Q207 532 206.0 537.5Q205 543 201 544Q191 545 181.0 554.5Q171 564 168.0 577.5Q165 591 177 606Q190 621 220.5 633.0Q251 645 275 657Q304 671 324.0 684.5Q344 698 371 705Q384 709 410.5 716.5Q437 724 462.0 730.5Q487 737 494 739Q496 739 499 740Q515 744 529.0 745.5Q543 747 563 739Q576 734 590.5 727.5Q605 721 610 718Q615 716 618.5 711.0Q622 706 617 701Q604 686 592.5 675.5Q581 665 547 665Q512 665 464.0 652.5Q416 640 363 600Q345 587 321.5 573.0Q298 559 278.5 548.0Q259 537 254 535Q248 531 247 526Q282 528 314.0 539.0Q346 550 376 561Q384 564 392.0 567.0Q400 570 408 573Q423 578 447.0 580.0Q471 582 485 574Q509 589 537.5 605.0Q566 621 592.5 636.5Q619 652 637.5 663.5Q656 675 661 678Q694 701 728.5 708.0Q763 715 796 695Q812 685 831.5 674.5Q851 664 879 663Q903 663 916.0 656.0Q929 649 937.0 639.5Q945 630 954.0 621.0Q963 612 979 607Q998 601 1018.0 595.0Q1038 589 1054.5 576.5Q1071 564 1079 539Q1086 520 1092.5 479.5Q1099 439 1104 358Z" fill="#faa700" stroke="none" transform="scale(1,-1) translate(0,-256)" /><path d="M184 358Q170 373 167.5 396.0Q165 419 181 428Q195 416 221.5 410.0Q248 404 279.0 402.5Q310 401 337.5 402.5Q365 404 381 408Q386 409 390 411Q347 446 302.5 459.0Q258 472 225.5 471.5Q193 471 184 467Q160 458 150.5 437.0Q141 416 144.5 393.5Q148 371 161 357Q165 352 171 347Q177 351 180.5 354.5Q184 358 184 358Z" fill="#faa700" stroke="none" transform="scale(1,-1) translate(0,-256)" /><path d="M955 396Q955 396 948.0 388.5Q941 381 937.0 371.5Q933 362 942 358Q955 351 957.0 335.5Q959 320 960 302Q960 297 960 293Q981 285 987.0 297.0Q993 309 993 316Q993 323 994.5 349.0Q996 375 998 393Q999 412 988.5 412.5Q978 413 974 411Q970 409 966.0 406.0Q962 403 955 396Z" fill="#faa700" stroke="none" transform="scale(1,-1) translate(0,-256)" /><path d="M863 254Q855 259 850.5 265.5Q846 272 846 286Q846 290 846.0 296.0Q846 302 846 309Q846 326 846.0 345.0Q846 364 846 372Q845 383 842.0 393.5Q839 404 826 410Q801 420 790 423Q785 425 774.5 424.0Q764 423 762 408Q760 393 749.0 396.0Q738 399 737 407Q735 416 729.0 432.0Q723 448 701 455Q679 462 666.5 465.5Q654 469 646 472Q640 474 628.5 473.5Q617 473 607.5 467.0Q598 461 598 445Q598 430 592.0 428.0Q586 426 580.0 431.0Q574 436 574 443Q573 453 567.0 471.0Q561 489 544 495Q522 503 505.5 507.5Q489 512 479 514Q469 517 455.5 512.0Q442 507 443 487Q444 476 445 464Q447 457 451.0 439.5Q455 422 458.5 405.0Q462 388 464 381Q470 355 481 336Q478 337 476 338Q482 328 489.0 319.0Q496 310 507 307Q518 304 536.0 303.5Q554 303 570.0 302.0Q586 301 594 297Q602 292 618.5 274.0Q635 256 656.5 239.0Q678 222 700 220Q734 217 762.5 225.0Q791 233 805 241Q819 249 833.0 247.5Q847 246 855 244Q857 243 858 243Q863 243 863.0 248.5Q863 254 863 254Z" fill="#faa700" stroke="none" transform="scale(1,-1) translate(0,-256)" /></svg>