<?xml version="1.0" encoding="utf-8" ?>
<svg baseProfile="full" height="256" version="1.1" width="256" xmlns="http://www.w3.org/2000/svg" xmlns:ev="http://www.w3.org/2001/xml-events" xmlns:xlink="http://www.w3.org/1999/xlink"><defs /><path d="M722 673Q722 673 720.5 691.5Q719 710 735 729Q750 745 765.5 743.0Q781 741 781 741Q781 741 796.0 758.5Q811 776 839.0 800.0Q867 824 906 844Q938 860 969.5 863.0Q1001 866 1026.5 862.5Q1052 859 1068.0 854.0Q1084 849 1084 849Q1084 849 1089.0 846.0Q1094 843 1101.0 828.0Q1108 813 1114 777Q1120 742 1110.0 701.5Q1100 661 1078.0 620.5Q1056 580 1028 544Q1013 524 981.0 490.0Q949 456 909.5 415.0Q870 374 830.5 334.0Q791 294 758.5 262.5Q726 231 710 216Q693 201 659.0 173.5Q625 146 582.0 113.5Q539 81 494.0 48.5Q449 16 410.0 -10.0Q371 -36 347 -49Q305 -70 264.5 -77.0Q224 -84 197.0 -83.5Q170 -83 170 -83Q170 -83 159.5 -71.0Q149 -59 131 -46Q113 -33 96.5 -27.5Q80 -22 80 -22Q80 -22 74.0 4.5Q68 31 78 69Q91 114 129.0 155.0Q167 196 219.5 234.0Q272 272 326 310Q366 338 407.0 369.5Q448 401 482.0 429.5Q516 458 536.5 476.0Q557 494 557 494Q557 494 557.0 511.0Q557 528 572 544Q588 562 603.5 559.5Q619 557 619 557Q619 557 628.5 566.5Q638 576 649.0 588.5Q660 601 667 609Q673 617 686.5 632.5Q700 648 711.0 660.5Q722 673 722 673Z" fill="#559833" stroke="none" transform="scale(1,-1) translate(0,-256)" /></svg>