<?xml version="1.0" encoding="utf-8" ?>
<svg baseProfile="full" height="256" version="1.1" width="256" xmlns="http://www.w3.org/2000/svg" xmlns:ev="http://www.w3.org/2001/xml-events" xmlns:xlink="http://www.w3.org/1999/xlink"><defs /><path d="M715 236Q727 244 737.0 235.5Q747 227 741 215Q738 208 722.0 196.0Q706 184 683.0 175.0Q660 166 638 166Q615 166 592.0 175.0Q569 184 552.5 196.0Q536 208 533 215Q528 227 537.5 235.5Q547 244 560 236Q571 230 592.0 226.5Q613 223 637.5 223.0Q662 223 683.0 226.5Q704 230 715 236Z" fill="#795548" stroke="none" transform="scale(1,-1) translate(0,-256)" /></svg>