<?xml version="1.0" encoding="utf-8" ?>
<svg baseProfile="full" height="256" version="1.1" width="256" xmlns="http://www.w3.org/2000/svg" xmlns:ev="http://www.w3.org/2001/xml-events" xmlns:xlink="http://www.w3.org/1999/xlink"><defs /><path d="M1056.1842651367188 351.3135681152344Q1056.1842651367188 364.3639221191406 1051.290382385254 375.8392333984375Q1046.396499633789 387.3145446777344 1037.6775131225586 396.03353118896484Q1028.9585266113281 404.7525177001953 1017.4832153320312 409.70265197753906Q1006.0079040527344 414.6527862548828 992.9575500488281 414.6527862548828Q979.7946929931641 414.6527862548828 968.3193817138672 409.70265197753906Q956.8440704345703 404.7525177001953 948.1250839233398 396.03353118896484Q939.4060974121094 387.3145446777344 934.5122146606445 375.8392333984375Q929.6183319091797 364.3639221191406 929.6183319091797 351.3135681152344Q929.6183319091797 338.2632141113281 934.5122146606445 326.78790283203125Q939.4060974121094 315.3125915527344 948.1250839233398 306.5936050415039Q956.8440704345703 297.87461853027344 968.3193817138672 292.9807357788086Q979.7946929931641 288.08685302734375 992.9575500488281 288.08685302734375Q1006.0079040527344 288.08685302734375 1017.4832153320312 292.9807357788086Q1028.9585266113281 297.87461853027344 1037.6775131225586 306.5936050415039Q1046.396499633789 315.3125915527344 1051.290382385254 326.78790283203125Q1056.1842651367188 338.2632141113281 1056.1842651367188 351.3135681152344Z" fill="#e0e0e0" stroke="none" transform="scale(1,-1) translate(0,-256)" /></svg>