<?xml version="1.0" encoding="utf-8" ?>
<svg baseProfile="full" height="256" version="1.1" width="256" xmlns="http://www.w3.org/2000/svg" xmlns:ev="http://www.w3.org/2001/xml-events" xmlns:xlink="http://www.w3.org/1999/xlink"><defs /><path d="M857 477Q860 473 860 468Q860 453 845 453Q842 453 839 455Q817 464 802.0 465.5Q787 467 787 467Q787 467 771.5 465.5Q756 464 734 455Q732 453 728 453Q714 453 714 468Q714 473 717 477Q717 477 724.0 485.5Q731 494 746.5 503.0Q762 512 787 512Q811 512 826.5 503.0Q842 494 849.5 485.5Q857 477 857 477Z" fill="#f5f5f5" stroke="none" transform="scale(1,-1) translate(0,-256)" /><path d="M558.125 477.0Q561.125 473.0 561.125 468.0Q561.125 453.0 546.125 453.0Q543.125 453.0 540.125 455.0Q518.125 464.0 503.125 465.5Q488.125 467.0 488.125 467.0Q488.125 467.0 472.625 465.5Q457.125 464.0 435.125 455.0Q433.125 453.0 429.125 453.0Q415.125 453.0 415.125 468.0Q415.125 473.0 418.125 477.0Q418.125 477.0 425.125 485.5Q432.125 494.0 447.625 503.0Q463.125 512.0 488.125 512.0Q512.125 512.0 527.625 503.0Q543.125 494.0 550.625 485.5Q558.125 477.0 558.125 477.0Z" fill="#f5f5f5" stroke="none" transform="scale(1,-1) translate(0,-256)" /><path d="M956 649Q983 628 992.5 604.5Q1002 581 998 547Q995 527 980.5 519.0Q966 511 954 515Q954 515 928.0 521.0Q902 527 857.5 534.0Q813 541 756.0 546.5Q699 552 637 552Q576 552 519.0 546.5Q462 541 417.5 534.0Q373 527 347.0 521.0Q321 515 321 515Q309 511 294.0 519.0Q279 527 277 547Q273 581 282.0 604.5Q291 628 319 649Q322 651 347.0 663.5Q372 676 414.5 691.5Q457 707 514.0 718.5Q571 730 638 730Q704 730 761.0 718.5Q818 707 860.5 692.0Q903 677 928.0 664.0Q953 651 956 649Z" fill="#f5f5f5" stroke="none" transform="scale(1,-1) translate(0,-256)" /></svg>