<?xml version="1.0" encoding="utf-8" ?>
<svg baseProfile="full" height="256" version="1.1" width="256" xmlns="http://www.w3.org/2000/svg" xmlns:ev="http://www.w3.org/2001/xml-events" xmlns:xlink="http://www.w3.org/1999/xlink"><defs /><path d="M1022 779Q987 807 944.5 825.0Q902 843 841 855Q720 876 598 861H596Q557 855 508.0 844.0Q459 833 422 804Q389 805 340.0 794.0Q291 783 244 757Q172 719 155 653Q151 638 152.5 608.5Q154 579 180 543Q194 523 213 507Q214 491 219.5 462.0Q225 433 239 408Q250 386 275.5 362.0Q301 338 341 318Q347 286 363 256Q386 215 430 198Q466 185 504 178Q506 175 506 175Q518 159 534.5 147.0Q551 135 575 121Q592 110 627.0 101.0Q662 92 693 89Q697 71 696.0 42.5Q695 14 686.0 -16.0Q677 -46 656 -70Q621 -112 606.5 -148.0Q592 -184 603.0 -204.0Q614 -224 655 -217Q660 -217 680.0 -213.0Q700 -209 730.0 -197.0Q760 -185 795.5 -160.5Q831 -136 867 -94Q887 -70 901.0 -41.5Q915 -13 922.5 10.0Q930 33 931 39Q954 62 966 92Q966 91 968 96Q981 135 963 172Q976 188 979 208Q983 236 967.5 258.0Q952 280 936 292Q942 301 944 311Q951 339 947 368Q991 389 1015 431Q1035 466 1038.5 496.5Q1042 527 1037 546Q1068 581 1081 626Q1092 666 1076.5 707.0Q1061 748 1022 779Z" fill="#e3ebee" stroke="none" transform="scale(1,-1) translate(0,-256)" /></svg>