<?xml version="1.0" encoding="utf-8" ?>
<svg baseProfile="full" height="256" version="1.1" width="256" xmlns="http://www.w3.org/2000/svg" xmlns:ev="http://www.w3.org/2001/xml-events" xmlns:xlink="http://www.w3.org/1999/xlink"><defs /><path d="M1116 174Q1116 149 1104.0 112.5Q1092 76 1066.5 41.0Q1041 6 1000.5 -18.0Q960 -42 904 -42Q847 -42 813.0 -27.5Q779 -13 760.5 8.0Q742 29 732.0 51.0Q722 73 713 89Q700 109 691.5 119.0Q683 129 672.0 132.5Q661 136 642 136Q614 136 601.5 128.0Q589 120 570 89Q561 73 551.0 51.0Q541 29 523.0 8.0Q505 -13 471.0 -27.5Q437 -42 381 -42Q325 -42 284.5 -18.5Q244 5 218.5 40.5Q193 76 181.0 112.5Q169 149 169 174V218Q169 227 170 235Q175 226 177.5 211.5Q180 197 183 189Q198 151 222 120Q252 83 287.5 55.5Q323 28 369 28Q426 28 461.0 42.5Q496 57 516.0 78.0Q536 99 547.5 121.0Q559 143 568 159Q587 190 600.5 197.5Q614 205 642 205Q670 205 683.0 196.0Q696 187 715 155Q724 140 735.0 118.5Q746 97 766.5 77.0Q787 57 821.5 43.5Q856 30 913 30Q964 30 1001.0 52.0Q1038 74 1061.5 107.5Q1085 141 1098.0 176.5Q1111 212 1114 239Q1116 228 1116 218Z" fill="#455a64" stroke="none" transform="scale(1,-1) translate(0,-256)" /></svg>