<?xml version="1.0" encoding="utf-8" ?>
<svg baseProfile="full" height="256" version="1.1" width="256" xmlns="http://www.w3.org/2000/svg" xmlns:ev="http://www.w3.org/2001/xml-events" xmlns:xlink="http://www.w3.org/1999/xlink"><defs /><path d="M969 751Q969 751 992.5 745.5Q1016 740 1049.5 726.5Q1083 713 1114.0 688.0Q1145 663 1160 624Q1179 575 1182.0 523.0Q1185 471 1179.5 427.0Q1174 383 1167.0 355.5Q1160 328 1160 327Q1160 327 1154.0 335.0Q1148 343 1140.0 354.0Q1132 365 1125.5 373.5Q1119 382 1119 382Q1119 382 1119.0 400.0Q1119 418 1117.0 446.0Q1115 474 1110.0 505.0Q1105 536 1096 561Q1082 601 1060.5 636.0Q1039 671 1018.0 696.5Q997 722 983.0 736.5Q969 751 969 751Z" fill="#2f7889" stroke="none" transform="scale(1,-1) translate(0,-256)" /><path d="M371 721Q371 721 352.5 722.0Q334 723 304.5 719.5Q275 716 241.0 705.0Q207 694 175.5 670.5Q144 647 123 608Q98 561 92.0 513.5Q86 466 90.0 426.0Q94 386 100.5 361.5Q107 337 107 337Q107 336 115.5 341.0Q124 346 132.5 351.0Q141 356 141 356Q141 356 146.0 386.5Q151 417 163.5 464.0Q176 511 198 561Q215 600 244.0 630.0Q273 660 302.0 680.5Q331 701 351.0 711.0Q371 721 371 721Z" fill="#2f7889" stroke="none" transform="scale(1,-1) translate(0,-256)" /></svg>