<?xml version="1.0" encoding="utf-8" ?>
<svg baseProfile="full" height="256" version="1.1" width="256" xmlns="http://www.w3.org/2000/svg" xmlns:ev="http://www.w3.org/2001/xml-events" xmlns:xlink="http://www.w3.org/1999/xlink"><defs /><path d="M251 374Q232 363 230 380Q227 402 227 430Q227 445 231.5 448.5Q236 452 239 454Q248 460 261.5 467.0Q275 474 299 477Q303 477 309.0 476.5Q315 476 320 464L336 417Q339 409 338.5 401.5Q338 394 329 394Q313 394 291.5 389.5Q270 385 251 374Z" fill="#ffffff" stroke="none" transform="scale(1,-1) translate(0,-256)" /><path d="M226 478Q220 471 228 465Q231 462 235 463Q238 463 241 467Q242 468 244 470Q266 485 293 488Q297 489 299 491Q301 494 301 499Q299 508 290 507Q259 502 234 485Q229 482 226 478Z" fill="#ffffff" stroke="none" transform="scale(1,-1) translate(0,-256)" /></svg>