<?xml version="1.0" encoding="utf-8" ?>
<svg baseProfile="full" height="256" version="1.1" width="256" xmlns="http://www.w3.org/2000/svg" xmlns:ev="http://www.w3.org/2001/xml-events" xmlns:xlink="http://www.w3.org/1999/xlink"><defs /><path d="M551 815Q551 815 539.0 830.5Q527 846 509.0 864.0Q491 882 473 890Q452 899 430.0 893.5Q408 888 395.5 868.0Q383 848 391 816Q399 786 417.0 747.0Q435 708 455 673Q394 592 351.5 520.0Q309 448 295 408Q282 369 280.0 325.0Q278 281 292 256Q319 206 353.0 168.5Q387 131 417.5 104.0Q448 77 466 57Q480 41 482.0 23.5Q484 6 484 -3Q483 -10 481.0 -28.0Q479 -46 477.0 -65.5Q475 -85 474 -94Q473 -114 488.0 -126.0Q503 -138 524 -151Q549 -166 584.0 -175.0Q619 -184 656.0 -188.0Q693 -192 725.5 -191.5Q758 -191 777 -188Q789 -186 808.0 -178.5Q827 -171 842.5 -160.0Q858 -149 862 -137Q867 -118 878.5 -88.5Q890 -59 901 -33Q924 -12 940.5 23.0Q957 58 961.5 98.0Q966 138 953 174Q957 179 963.5 208.5Q970 238 970 271Q986 286 989.5 301.5Q993 317 992 339Q991 361 984.5 374.5Q978 388 966 403Q956 416 939.0 423.0Q922 430 905.0 430.0Q888 430 878 420Q892 460 882.0 489.5Q872 519 848.5 533.5Q825 548 798.0 545.0Q771 542 751 519Q760 564 742.5 590.0Q725 616 698.0 625.0Q671 634 650 628Q648 633 645.0 645.0Q642 657 639 669Q645 678 658.5 705.5Q672 733 686.5 766.0Q701 799 709 824Q716 852 706.5 870.0Q697 888 678.0 894.5Q659 901 637.5 896.0Q616 891 599 871Q590 861 579.0 848.0Q568 835 559.5 825.0Q551 815 551 815Z" fill="#ffca28" stroke="none" transform="scale(1,-1) translate(0,-256)" /></svg>