<?xml version="1.0" encoding="utf-8" ?>
<svg baseProfile="full" height="256" version="1.1" width="256" xmlns="http://www.w3.org/2000/svg" xmlns:ev="http://www.w3.org/2001/xml-events" xmlns:xlink="http://www.w3.org/1999/xlink"><defs /><path d="M388 303 359 115Q359 115 387.0 119.5Q415 124 462.0 131.0Q509 138 565.0 146.5Q621 155 677.5 163.5Q734 172 781.0 179.0Q828 186 857.5 190.0Q887 194 889 194Q891 194 888.5 207.5Q886 221 881.0 238.5Q876 256 872.0 269.5Q868 283 868 283Q868 283 859.5 295.5Q851 308 831.5 324.0Q812 340 778 350Q738 360 708.5 356.0Q679 352 639 351Q607 350 579.5 357.0Q552 364 510 358Q458 350 432.0 337.0Q406 324 397.0 313.5Q388 303 388 303Z" fill="#e0e0e0" stroke="none" transform="scale(1,-1) translate(0,-256)" /><path d="M701 111Q707 111 710.5 106.0Q714 101 714 95Q714 89 710.5 82.0Q707 75 699 74Q693 73 686.5 78.0Q680 83 681 93Q684 111 701 111Z" fill="#e0e0e0" stroke="none" transform="scale(1,-1) translate(0,-256)" /><path d="M800 101Q806 113 818.0 108.5Q830 104 831 93Q831 85 825.5 79.0Q820 73 812 75Q803 76 799.5 85.0Q796 94 800 101Z" fill="#e0e0e0" stroke="none" transform="scale(1,-1) translate(0,-256)" /><path d="M828 15Q834 23 842.0 21.5Q850 20 854 14Q859 6 855.5 -3.5Q852 -13 841 -13Q830 -12 826.5 -1.5Q823 9 828 15Z" fill="#e0e0e0" stroke="none" transform="scale(1,-1) translate(0,-256)" /><path d="M673 -57Q673 -52 676.0 -46.0Q679 -40 687 -40Q696 -40 699.0 -44.0Q702 -48 703 -53Q703 -58 701.0 -65.0Q699 -72 690 -73Q673 -73 673 -57Z" fill="#e0e0e0" stroke="none" transform="scale(1,-1) translate(0,-256)" /><path d="M622 17Q630 8 624.0 -2.0Q618 -12 609 -13Q594 -13 592.5 -2.0Q591 9 595 14Q600 21 608.5 22.0Q617 23 622 17Z" fill="#e0e0e0" stroke="none" transform="scale(1,-1) translate(0,-256)" /><path d="M414 -13Q418 -9 424.5 -9.5Q431 -10 436 -13Q440 -17 441.5 -24.0Q443 -31 441 -36Q438 -41 430.5 -43.0Q423 -45 417 -40Q411 -35 410.0 -27.0Q409 -19 414 -13Z" fill="#e0e0e0" stroke="none" transform="scale(1,-1) translate(0,-256)" /><path d="M439 813Q439 821 448.5 836.0Q458 851 479.0 866.0Q500 881 537.5 891.0Q575 901 633 900Q694 900 732.5 890.0Q771 880 791.0 865.5Q811 851 818.0 836.0Q825 821 825 811Q824 803 817.0 790.5Q810 778 790.0 765.5Q770 753 733.0 745.0Q696 737 635 738Q522 740 479.5 760.5Q437 781 439 813Z" fill="#e0e0e0" stroke="none" transform="scale(1,-1) translate(0,-256)" /><path d="M453 627Q456 634 463.5 630.0Q471 626 489.0 616.5Q507 607 541.5 598.5Q576 590 632 588Q688 587 725.5 598.5Q763 610 783.5 620.5Q804 631 808 626Q814 619 796.5 601.5Q779 584 737.5 569.0Q696 554 630 554Q564 554 524.0 569.5Q484 585 467.0 603.0Q450 621 453 627Z" fill="#e0e0e0" stroke="none" transform="scale(1,-1) translate(0,-256)" /></svg>