<?xml version="1.0" encoding="utf-8" ?>
<svg baseProfile="full" height="256" version="1.1" width="256" xmlns="http://www.w3.org/2000/svg" xmlns:ev="http://www.w3.org/2001/xml-events" xmlns:xlink="http://www.w3.org/1999/xlink"><defs /><path d="M972 -79Q973 -89 970.0 -104.0Q967 -119 962 -124Q957 -128 938.5 -137.5Q920 -147 894.5 -159.0Q869 -171 842.5 -182.5Q816 -194 795.5 -202.0Q775 -210 768 -212Q762 -213 733.0 -213.5Q704 -214 664.0 -214.0Q624 -214 584.0 -213.5Q544 -213 515.0 -212.0Q486 -211 481 -209Q475 -207 450.5 -194.0Q426 -181 396.5 -164.0Q367 -147 343.0 -133.0Q319 -119 314 -115Q304 -107 299.5 -91.5Q295 -76 297 -65Q298 -59 302.0 -33.5Q306 -8 311.5 26.0Q317 60 323.0 93.0Q329 126 333 148Q338 169 342.5 201.0Q347 233 351.5 266.5Q356 300 359.0 327.0Q362 354 363 366Q364 377 365.5 399.5Q367 422 369.0 446.5Q371 471 373.0 492.0Q375 513 377 522Q380 540 383.5 549.5Q387 559 395 571Q403 583 418.0 594.5Q433 606 445.5 613.5Q458 621 458 621Q458 621 486.0 618.5Q514 616 559.0 611.5Q604 607 654.5 602.0Q705 597 750.5 592.0Q796 587 826.5 583.0Q857 579 860 576Q869 569 878.5 547.0Q888 525 891 478Q892 454 896.0 411.0Q900 368 905.5 316.0Q911 264 917.5 214.0Q924 164 929 126Q937 76 946.5 31.5Q956 -13 963.5 -43.0Q971 -73 972 -79ZM505 245Q507 277 509.5 313.0Q512 349 514.5 381.0Q517 413 517.5 435.5Q518 458 516 464Q515 470 500.0 476.0Q485 482 468 490Q451 498 436.0 505.5Q421 513 418 505Q416 500 412.0 471.0Q408 442 404.0 402.0Q400 362 396.0 319.5Q392 277 388.5 243.0Q385 209 384 194Q380 163 373.5 123.0Q367 83 360.5 45.0Q354 7 350.5 -20.5Q347 -48 351 -53Q354 -59 368.5 -69.5Q383 -80 401.5 -90.5Q420 -101 436.5 -106.5Q453 -112 459 -108Q464 -104 469.5 -75.5Q475 -47 480.5 -3.5Q486 40 491.0 87.5Q496 135 499.5 177.0Q503 219 505 245ZM726 -140Q734 -136 740.0 -131.0Q746 -126 746 -114Q746 -109 745.0 -84.0Q744 -59 742.0 -20.5Q740 18 737.5 62.0Q735 106 732.5 148.0Q730 190 728.5 223.0Q727 256 726 271Q724 302 722.0 340.0Q720 378 719.0 409.0Q718 440 717 448Q715 461 693.5 456.0Q672 451 638 451Q609 451 586.5 457.0Q564 463 562 451Q561 447 559.0 419.5Q557 392 554.0 351.5Q551 311 548.5 265.5Q546 220 543.0 179.5Q540 139 539 113Q535 57 530.5 4.5Q526 -48 526.0 -84.5Q526 -121 535 -129Q547 -140 573.0 -143.5Q599 -147 633 -147Q664 -146 690.5 -144.5Q717 -143 726 -140ZM916 -61Q917 -50 908.0 -9.0Q899 32 887.0 92.5Q875 153 868 226Q861 298 856.5 359.0Q852 420 848.5 459.0Q845 498 842 503Q839 507 827.5 499.0Q816 491 800 482Q786 474 771.5 469.5Q757 465 757 456Q757 452 758.5 426.0Q760 400 762.0 361.5Q764 323 767.0 280.5Q770 238 772.5 199.5Q775 161 777 137Q780 107 784.0 66.0Q788 25 792.5 -14.5Q797 -54 802.0 -82.0Q807 -110 812 -114Q816 -118 832.0 -113.0Q848 -108 867.0 -99.0Q886 -90 900.5 -79.5Q915 -69 916 -61Z" fill="#a6cfd6" stroke="none" transform="scale(1,-1) translate(0,-256)" /></svg>