<?xml version="1.0" encoding="utf-8" ?>
<svg baseProfile="full" height="256" version="1.1" width="256" xmlns="http://www.w3.org/2000/svg" xmlns:ev="http://www.w3.org/2001/xml-events" xmlns:xlink="http://www.w3.org/1999/xlink"><defs /><path d="M611 354Q667 399 727.5 420.5Q788 442 846.0 442.0Q904 442 952.5 422.0Q1001 402 1033 363Q1061 328 1068.5 286.0Q1076 244 1067.5 199.5Q1059 155 1040.0 113.0Q1021 71 996.5 36.0Q972 1 948 -21Q910 -56 860.0 -83.0Q810 -110 754.5 -123.5Q699 -137 644.5 -131.0Q590 -125 544 -95Q494 -63 473.0 -18.0Q452 27 455.0 77.5Q458 128 479.5 179.0Q501 230 535.5 275.5Q570 321 611 354Z" fill="#fbd5b2" stroke="none" transform="scale(1,-1) translate(0,-256)" /></svg>