<?xml version="1.0" encoding="utf-8" ?>
<svg baseProfile="full" height="256" version="1.1" width="256" xmlns="http://www.w3.org/2000/svg" xmlns:ev="http://www.w3.org/2001/xml-events" xmlns:xlink="http://www.w3.org/1999/xlink"><defs /><path d="M852 92Q852 92 869.5 83.5Q887 75 914.0 61.5Q941 48 971.5 33.0Q1002 18 1029.5 4.5Q1057 -9 1075.0 -17.5Q1093 -26 1093 -26Q1095 -26 1104.0 -31.0Q1113 -36 1122.0 -45.5Q1131 -55 1131 -67Q1132 -85 1123.0 -99.5Q1114 -114 1101 -121Q1088 -129 1065.5 -128.5Q1043 -128 1034 -132Q1024 -137 1025.5 -143.5Q1027 -150 1027 -158Q1027 -167 1022.5 -181.5Q1018 -196 1009 -206Q1002 -212 987.0 -215.5Q972 -219 957.0 -220.0Q942 -221 935 -219Q897 -212 883 -180Q880 -172 880.0 -155.5Q880 -139 881.5 -122.0Q883 -105 882 -97Q880 -86 867.0 -65.5Q854 -45 842 -32Q837 -26 823.0 -8.0Q809 10 793.5 30.0Q778 50 767.0 64.5Q756 79 756 79Q756 79 753.0 84.5Q750 90 751 106Q753 122 759.5 132.5Q766 143 771 149Q773 152 785.5 144.0Q798 136 813.5 123.5Q829 111 840.5 101.5Q852 92 852 92Z" fill="#dfbbaa" stroke="none" transform="scale(1,-1) translate(0,-256)" /></svg>