<?xml version="1.0" encoding="utf-8" ?>
<svg baseProfile="full" height="256" version="1.1" width="256" xmlns="http://www.w3.org/2000/svg" xmlns:ev="http://www.w3.org/2001/xml-events" xmlns:xlink="http://www.w3.org/1999/xlink"><defs /><path d="M351 641Q351 642 366.0 646.5Q381 651 401.0 656.5Q421 662 435.5 666.0Q450 670 450 670Q450 670 438.0 684.0Q426 698 408.5 717.5Q391 737 376.5 755.0Q362 773 357 781Q353 788 352.5 806.0Q352 824 351.5 845.0Q351 866 348 881Q347 887 336.0 902.5Q325 918 302 922Q279 926 268.5 917.5Q258 909 255 903Q253 899 253.5 884.0Q254 869 254.0 855.0Q254 841 250 837Q244 831 231.5 835.5Q219 840 198 839Q173 837 164.0 824.5Q155 812 157 786Q158 760 170.5 744.0Q183 728 198 721Q208 715 232.0 715.5Q256 716 271 709Q278 705 291.0 694.0Q304 683 318.0 671.0Q332 659 341.5 650.0Q351 641 351 641Z" fill="#ffebca" stroke="none" transform="scale(1,-1) translate(0,-256)" /><path d="M862 183Q865 180 882.5 162.0Q900 144 923.0 118.5Q946 93 968.5 68.5Q991 44 1006.0 27.5Q1021 11 1021 11Q1021 11 1037.5 12.0Q1054 13 1075.0 12.0Q1096 11 1109 4Q1126 -6 1131.0 -21.5Q1136 -37 1134.5 -51.5Q1133 -66 1131 -73Q1129 -79 1116.0 -79.5Q1103 -80 1086.5 -79.5Q1070 -79 1056.0 -81.0Q1042 -83 1038 -92Q1032 -107 1030.5 -130.0Q1029 -153 1026 -162Q1022 -172 1011.0 -182.5Q1000 -193 975 -193Q958 -193 941.5 -178.5Q925 -164 920 -151Q918 -146 918.5 -130.0Q919 -114 921.0 -98.0Q923 -82 923 -76Q923 -66 912.0 -50.0Q901 -34 893 -22Q890 -18 876.0 0.0Q862 18 843.0 41.5Q824 65 806.0 87.5Q788 110 775.5 124.5Q763 139 763 139Q763 139 773.0 151.5Q783 164 800 174Q815 184 828.5 186.0Q842 188 852 187Q856 186 862 183Z" fill="#ffebca" stroke="none" transform="scale(1,-1) translate(0,-256)" /></svg>