<?xml version="1.0" encoding="utf-8" ?>
<svg baseProfile="full" height="256" version="1.1" width="256" xmlns="http://www.w3.org/2000/svg" xmlns:ev="http://www.w3.org/2001/xml-events" xmlns:xlink="http://www.w3.org/1999/xlink"><defs /><path d="M348 578Q348 578 363.0 578.5Q378 579 400.0 580.5Q422 582 442.0 583.0Q462 584 472 584Q481 585 471.5 600.5Q462 616 442.0 640.0Q422 664 398.0 690.5Q374 717 353.5 740.0Q333 763 322 776Q308 792 302.5 815.5Q297 839 296.0 862.0Q295 885 296.0 900.5Q297 916 297 916Q297 916 286.0 920.5Q275 925 253 911Q246 907 236.0 896.5Q226 886 222 875Q220 867 219.5 853.5Q219 840 219.5 829.0Q220 818 220 818Q220 818 211.0 822.0Q202 826 191.5 830.0Q181 834 175 832Q165 830 156.0 817.0Q147 804 143 786Q138 767 144.0 742.0Q150 717 163 700Q172 688 187.0 685.0Q202 682 220.0 680.5Q238 679 257 672Q270 667 286.0 652.0Q302 637 316.5 620.0Q331 603 339.5 590.5Q348 578 348 578Z" fill="#ddbca8" stroke="none" transform="scale(1,-1) translate(0,-256)" /></svg>