<?xml version="1.0" encoding="utf-8" ?>
<svg baseProfile="full" height="256" version="1.1" width="256" xmlns="http://www.w3.org/2000/svg" xmlns:ev="http://www.w3.org/2001/xml-events" xmlns:xlink="http://www.w3.org/1999/xlink"><defs /><path d="M588 644Q596 637 594.5 629.0Q593 621 587 613Q582 606 571.5 598.5Q561 591 551 600Q543 606 544.0 617.5Q545 629 554 639Q563 649 572.5 650.0Q582 651 588 644Z" fill="#ab5931" stroke="none" transform="scale(1,-1) translate(0,-256)" /><path d="M332 534Q345 532 346.5 523.0Q348 514 348 505Q348 495 343.5 483.5Q339 472 325 473Q310 474 309.0 484.0Q308 494 308 505Q309 516 314.0 526.0Q319 536 332 534Z" fill="#ab5931" stroke="none" transform="scale(1,-1) translate(0,-256)" /><path d="M338 368Q350 368 352.5 357.5Q355 347 354 332Q353 318 348.5 309.5Q344 301 335 300Q317 299 316 334Q315 349 320.0 359.0Q325 369 338 368Z" fill="#ab5931" stroke="none" transform="scale(1,-1) translate(0,-256)" /><path d="M398 300Q405 295 405.0 287.5Q405 280 402 270Q399 260 392.5 252.5Q386 245 378 249Q372 251 367.5 258.0Q363 265 367 281Q371 297 380.5 301.5Q390 306 398 300Z" fill="#ab5931" stroke="none" transform="scale(1,-1) translate(0,-256)" /></svg>