<?xml version="1.0" encoding="utf-8" ?>
<svg baseProfile="full" height="256" version="1.1" width="256" xmlns="http://www.w3.org/2000/svg" xmlns:ev="http://www.w3.org/2001/xml-events" xmlns:xlink="http://www.w3.org/1999/xlink"><defs /><path d="M545 581Q545 584 552.5 583.5Q560 583 568 583Q575 583 584.0 583.5Q593 584 595 580Q595 579 597.0 553.0Q599 527 600.5 489.5Q602 452 604.0 415.0Q606 378 607.0 353.0Q608 328 608 328Q608 328 603.0 337.5Q598 347 591.0 359.5Q584 372 578.5 382.0Q573 392 572 393Q570 395 566.0 395.0Q562 395 559 398Q558 399 556.5 417.5Q555 436 552.5 463.0Q550 490 548.5 517.0Q547 544 546.0 562.5Q545 581 545 581Z" fill="#6e4a3a" stroke="none" transform="scale(1,-1) translate(0,-256)" /></svg>