<?xml version="1.0" encoding="utf-8" ?>
<svg baseProfile="full" height="256" version="1.1" width="256" xmlns="http://www.w3.org/2000/svg" xmlns:ev="http://www.w3.org/2001/xml-events" xmlns:xlink="http://www.w3.org/1999/xlink"><defs /><path d="M87 693Q87 693 87.0 683.5Q87 674 89 669Q91 663 98.0 655.0Q105 647 114 643Q123 639 133.5 638.5Q144 638 154 638Q165 638 164.0 630.5Q163 623 156 623Q152 623 137.5 621.5Q123 620 106 627Q90 634 82.0 646.5Q74 659 74 659Q74 659 69.5 652.0Q65 645 60 648Q54 653 56.0 658.5Q58 664 61 669Q63 673 63.5 682.5Q64 692 64 692Q64 692 53.0 698.5Q42 705 44 716Q45 726 55.5 731.5Q66 737 76 737Q85 738 99.5 733.5Q114 729 114 715Q114 700 100.5 696.5Q87 693 87 693Z" fill="#54656b" stroke="none" transform="scale(1,-1) translate(0,-256)" /></svg>