<?xml version="1.0" encoding="utf-8" ?>
<svg baseProfile="full" height="256" version="1.1" width="256" xmlns="http://www.w3.org/2000/svg" xmlns:ev="http://www.w3.org/2001/xml-events" xmlns:xlink="http://www.w3.org/1999/xlink"><defs /><path d="M452 637 419 770Q419 770 411.0 786.5Q403 803 386.5 823.5Q370 844 345 853Q319 863 289.0 862.0Q259 861 233.5 854.0Q208 847 196 838Q182 829 172.5 813.0Q163 797 156.5 782.5Q150 768 148 764Q144 758 129.5 754.5Q115 751 105 750Q94 748 74.5 742.5Q55 737 51 724Q46 711 49.5 694.0Q53 677 59.5 662.0Q66 647 70 639Q77 627 95.0 616.0Q113 605 129 602Q139 601 162.0 600.0Q185 599 204.5 598.5Q224 598 224 598Q224 598 227.5 581.0Q231 564 234 552Q237 544 243.0 522.0Q249 500 255.0 479.0Q261 458 263 453Q265 445 271.0 419.5Q277 394 284.5 364.0Q292 334 298 313Q304 293 317.0 265.5Q330 238 352.0 210.5Q374 183 406 164Q437 144 467.0 138.5Q497 133 517.0 134.0Q537 135 539 133Q541 131 543.5 119.0Q546 107 548.0 92.5Q550 78 550 70Q550 65 550.0 43.0Q550 21 550.5 -6.0Q551 -33 551.0 -54.5Q551 -76 551 -79Q551 -85 548.5 -90.0Q546 -95 535 -121Q524 -147 527.5 -160.5Q531 -174 558 -175Q584 -176 604.0 -162.5Q624 -149 632 -137Q637 -130 640.0 -109.5Q643 -89 645.0 -62.0Q647 -35 648.5 -8.0Q650 19 651 38Q652 63 652.0 90.5Q652 118 651.0 137.5Q650 157 650 157Q650 157 657.5 160.5Q665 164 674 171Q684 178 710.0 196.5Q736 215 763 233Q781 244 806.0 255.0Q831 266 850.5 273.0Q870 280 870 280Q870 280 875.0 266.5Q880 253 889.0 233.0Q898 213 909.5 192.5Q921 172 935 158Q948 144 965.5 124.5Q983 105 999.5 85.5Q1016 66 1028.0 51.0Q1040 36 1042 31Q1044 26 1044.0 10.0Q1044 -6 1043.5 -25.0Q1043 -44 1042.0 -59.5Q1041 -75 1040 -79Q1038 -87 1030.0 -95.5Q1022 -104 1022 -119Q1023 -136 1038.5 -140.0Q1054 -144 1073 -144Q1093 -144 1107.0 -133.0Q1121 -122 1128 -110Q1131 -103 1132.5 -80.0Q1134 -57 1134.0 -28.0Q1134 1 1133.0 24.5Q1132 48 1130 54Q1129 61 1123.0 78.0Q1117 95 1109.5 116.0Q1102 137 1095.0 155.5Q1088 174 1083 184Q1078 194 1077.5 203.5Q1077 213 1077.0 230.0Q1077 247 1074.0 279.5Q1071 312 1061 368Q1052 423 1037.5 455.5Q1023 488 1006.0 505.0Q989 522 971.5 531.5Q954 541 937 549Q904 567 858.0 572.0Q812 577 751 579Q720 580 682.0 579.5Q644 579 608.0 577.5Q572 576 547.5 575.5Q523 575 519 576Q514 578 503.5 587.0Q493 596 481.0 608.0Q469 620 460.5 628.5Q452 637 452 637Z" fill="#ffb903" stroke="none" transform="scale(1,-1) translate(0,-256)" /></svg>