<?xml version="1.0" encoding="utf-8" ?>
<svg baseProfile="full" height="256" version="1.1" width="256" xmlns="http://www.w3.org/2000/svg" xmlns:ev="http://www.w3.org/2001/xml-events" xmlns:xlink="http://www.w3.org/1999/xlink"><defs /><path d="M268 416Q270 417 294.0 418.5Q318 420 349.0 421.0Q380 422 402 423Q423 425 451.5 430.5Q480 436 500 440Q520 444 541.5 451.0Q563 458 563 458L562 576Q562 576 568.0 578.0Q574 580 591 581Q607 582 626.5 582.5Q646 583 646 580Q647 578 648.5 555.0Q650 532 652.0 501.5Q654 471 656 446Q657 427 657.5 392.5Q658 358 658.5 318.0Q659 278 659.0 242.0Q659 206 659.0 183.0Q659 160 659 160L650 156Q650 156 650.0 171.0Q650 186 649.0 205.0Q648 224 647 235Q646 246 637.0 267.0Q628 288 619.5 305.5Q611 323 611 323L572 399Q572 399 558.0 396.0Q544 393 523.0 388.5Q502 384 480.0 380.0Q458 376 442 374Q428 372 402.0 370.5Q376 369 348.0 368.0Q320 367 300.0 367.0Q280 367 278 368Q275 370 272.0 381.0Q269 392 267.5 403.0Q266 414 268 416Z" fill="#865953" stroke="none" transform="scale(1,-1) translate(0,-256)" /></svg>