<?xml version="1.0" encoding="utf-8" ?>
<svg baseProfile="full" height="256" version="1.1" width="256" xmlns="http://www.w3.org/2000/svg" xmlns:ev="http://www.w3.org/2001/xml-events" xmlns:xlink="http://www.w3.org/1999/xlink"><defs /><path d="M751.85595703125 412.7568054199219Q751.85595703125 420.38140869140625 748.1574554443359 426.6404113769531Q744.4589538574219 432.8994140625 738.199951171875 436.59791564941406Q731.9409484863281 440.2964172363281 724.4301452636719 440.2964172363281Q716.8055419921875 440.2964172363281 710.5465393066406 436.59791564941406Q704.2875366210938 432.8994140625 700.5890350341797 426.6404113769531Q696.8905334472656 420.38140869140625 696.8905334472656 412.7568054199219Q696.8905334472656 405.2460021972656 700.5890350341797 398.98699951171875Q704.2875366210938 392.7279968261719 710.5465393066406 389.0294952392578Q716.8055419921875 385.33099365234375 724.4301452636719 385.33099365234375Q731.9409484863281 385.33099365234375 738.199951171875 389.0294952392578Q744.4589538574219 392.7279968261719 748.1574554443359 398.98699951171875Q751.85595703125 405.2460021972656 751.85595703125 412.7568054199219Z" fill="#ffffff" stroke="none" transform="scale(1,-1) translate(0,-256)" /><path d="M922 829Q905 840 895 823Q889 815 891 808Q892 801 901 796Q944 768 978 730Q991 715 1005 728Q1013 734 1013 741Q1014 748 1007 756Q970 798 922 829Z" fill="#ffffff" stroke="none" transform="scale(1,-1) translate(0,-256)" /><path d="M147 -20Q155 -24 165.0 -19.0Q175 -14 184.0 -7.0Q193 0 195 3L801 576Q844 615 863.0 641.5Q882 668 883.0 685.0Q884 702 873 712Q858 726 833.0 710.0Q808 694 779 664L147 14Q139 7 136.5 -4.0Q134 -15 147 -20Z" fill="#ffffff" stroke="none" transform="scale(1,-1) translate(0,-256)" /></svg>