<?xml version="1.0" encoding="utf-8" ?>
<svg baseProfile="full" height="256" version="1.1" width="256" xmlns="http://www.w3.org/2000/svg" xmlns:ev="http://www.w3.org/2001/xml-events" xmlns:xlink="http://www.w3.org/1999/xlink"><defs /><path d="M75 350Q75 467 118.5 568.5Q162 670 239.5 747.5Q317 825 419.0 869.0Q521 913 638 913Q638 913 666.5 900.5Q695 888 741.0 861.5Q787 835 838.5 792.0Q890 749 935.5 686.5Q981 624 1010.0 540.5Q1039 457 1039 350Q1039 233 1010.0 145.5Q981 58 935.5 -4.0Q890 -66 838.5 -107.0Q787 -148 741.0 -171.0Q695 -194 666.5 -203.0Q638 -212 638 -212Q521 -212 419.0 -168.5Q317 -125 239.5 -47.5Q162 30 118.5 131.5Q75 233 75 350Z" fill="#22404c" stroke="none" transform="scale(1,-1) translate(0,-256)" /></svg>