<?xml version="1.0" encoding="utf-8" ?>
<svg baseProfile="full" height="256" version="1.1" width="256" xmlns="http://www.w3.org/2000/svg" xmlns:ev="http://www.w3.org/2001/xml-events" xmlns:xlink="http://www.w3.org/1999/xlink"><defs /><path d="M1152 864H1151Q1148 831 1143.5 787.0Q1139 743 1134.5 696.0Q1130 649 1126.0 606.5Q1122 564 1119.5 534.0Q1117 504 1117 495Q1117 464 1118.0 427.0Q1119 390 1134 328Q1140 307 1153.0 277.5Q1166 248 1177.0 217.5Q1188 187 1188 164Q1188 150 1185.0 129.0Q1182 108 1170.5 85.0Q1159 62 1134.5 42.0Q1110 22 1067 9Q1010 -8 955.5 -27.0Q901 -46 859.5 -61.5Q818 -77 801 -86Q783 -94 753.5 -107.5Q724 -121 692.0 -134.5Q660 -148 637 -155Q600 -167 566.5 -168.0Q533 -169 510 -169Q495 -169 476.0 -176.0Q457 -183 442.0 -190.0Q427 -197 424 -198Q419 -200 404.5 -197.5Q390 -195 382 -189Q367 -178 368.0 -164.5Q369 -151 369 -151Q369 -151 365.5 -158.5Q362 -166 352.5 -174.0Q343 -182 327 -182Q300 -183 291.5 -171.5Q283 -160 284.0 -148.5Q285 -137 285 -137Q285 -137 273.5 -147.5Q262 -158 245 -156Q227 -155 214.5 -142.0Q202 -129 206 -110Q206 -110 196.5 -116.5Q187 -123 170 -119Q154 -115 149.5 -106.0Q145 -97 146.0 -88.5Q147 -80 147 -77Q134 -75 124.0 -70.5Q114 -66 108 -61Q95 -49 91.0 -31.5Q87 -14 93.5 1.0Q100 16 120 20Q152 27 191.5 36.5Q231 46 263 62Q272 66 299.5 80.0Q327 94 365.0 113.5Q403 133 442.5 154.5Q482 176 513 195Q543 214 581.0 242.5Q619 271 654.5 303.0Q690 335 713 363Q748 405 752.5 438.5Q757 472 758 496Q758 506 756.5 534.5Q755 563 752.5 604.0Q750 645 747.0 691.0Q744 737 741.0 781.5Q738 826 736 861Q735 871 741.5 876.5Q748 882 758 879Q778 872 815.0 865.5Q852 859 909 857Q953 856 996.0 860.5Q1039 865 1074.5 871.5Q1110 878 1132 883Q1141 885 1147.0 879.0Q1153 873 1152 864Z" fill="#ffca28" stroke="none" transform="scale(1,-1) translate(0,-256)" /></svg>