<?xml version="1.0" encoding="utf-8" ?>
<svg baseProfile="full" height="256" version="1.1" width="256" xmlns="http://www.w3.org/2000/svg" xmlns:ev="http://www.w3.org/2001/xml-events" xmlns:xlink="http://www.w3.org/1999/xlink"><defs /><path d="M194 -12Q178 -13 162.0 -13.0Q146 -13 132 -13Q118 -13 120.5 -4.0Q123 5 133 7Q144 8 161.0 10.5Q178 13 199 16Q213 18 232.5 24.5Q252 31 277 43Q318 65 368.5 91.0Q419 117 468.5 144.0Q518 171 558.0 196.5Q598 222 620 243Q627 250 625.5 257.5Q624 265 619 272Q560 224 513 195Q482 176 442.5 154.5Q403 133 365.0 113.5Q327 94 299.5 80.0Q272 66 263 62Q231 46 191.5 36.5Q152 27 120 20Q100 16 93.5 1.0Q87 -14 91.0 -31.5Q95 -49 108 -61Q114 -66 124.0 -70.5Q134 -75 147 -77Q147 -78 147 -78Q146 -81 145.5 -89.5Q145 -98 150.0 -106.5Q155 -115 170 -119Q187 -123 196.5 -116.5Q206 -110 206 -110Q202 -129 214.5 -142.0Q227 -155 245 -156Q262 -158 273.5 -147.5Q285 -137 285 -137Q285 -137 284.0 -148.5Q283 -160 291.5 -171.5Q300 -183 327 -182Q343 -182 352.5 -174.0Q362 -166 365.5 -158.5Q369 -151 369 -151Q369 -151 368.0 -164.5Q367 -178 382 -189Q390 -195 404.5 -197.5Q419 -200 424 -198Q427 -197 442.0 -190.0Q457 -183 476.0 -176.0Q495 -169 510 -169Q513 -169 515 -169Q538 -169 570.0 -167.5Q602 -166 637 -155Q660 -148 692.0 -134.5Q724 -121 753.5 -107.5Q783 -94 801 -86Q818 -77 859.5 -61.5Q901 -46 955.5 -27.0Q1010 -8 1067 9Q1110 22 1134.5 42.0Q1159 62 1170.5 85.0Q1182 108 1185.0 129.0Q1188 150 1188 164Q1188 187 1177.0 217.5Q1166 248 1153.0 277.5Q1140 307 1134 328Q1121 383 1118.5 418.5Q1116 454 1116 482Q1117 490 1117 495Q1117 504 1119.5 534.0Q1122 564 1126.0 606.5Q1130 649 1134.5 696.0Q1139 743 1143.5 787.0Q1148 831 1151 864H1152Q1153 873 1147.0 879.0Q1141 885 1132 883Q1121 880 1105.5 877.0Q1090 874 1072 871Q1071 845 1069.5 798.0Q1068 751 1066.0 695.0Q1064 639 1062.5 585.0Q1061 531 1060.5 490.5Q1060 450 1060 435Q1061 426 1064.5 404.0Q1068 382 1072.0 360.0Q1076 338 1078 328Q1087 286 1081.0 268.5Q1075 251 1068 242Q1064 237 1063 235Q1061 230 1061.5 221.0Q1062 212 1063 201Q1066 183 1066.5 161.5Q1067 140 1059.5 117.5Q1052 95 1031.0 74.0Q1010 53 968 37Q955 32 941.5 27.5Q928 23 915 19Q856 0 802.5 -30.0Q749 -60 694.5 -87.5Q640 -115 578 -124Q576 -124 571 -125Q559 -125 537.5 -127.0Q516 -129 490.5 -135.5Q465 -142 443 -156Q441 -157 439 -158Q431 -163 421.5 -167.0Q412 -171 397 -168Q375 -165 372.5 -158.0Q370 -151 372 -144Q373 -139 373 -137Q373 -134 371.0 -130.0Q369 -126 360 -130Q354 -132 339.5 -132.5Q325 -133 311.0 -129.0Q297 -125 291 -112Q290 -110 289 -106Q287 -97 282 -100Q282 -100 281 -101Q275 -104 263.0 -107.5Q251 -111 236 -103Q224 -96 223.0 -91.0Q222 -86 223 -81Q223 -79 223.5 -76.0Q224 -73 221 -70Q218 -65 214 -67Q193 -79 177.0 -68.0Q161 -57 166 -42Q167 -36 180.5 -28.0Q194 -20 195 -15Z" fill="#faa700" stroke="none" transform="scale(1,-1) translate(0,-256)" /></svg>