<?xml version="1.0" encoding="utf-8" ?>
<svg baseProfile="full" height="256" version="1.1" width="256" xmlns="http://www.w3.org/2000/svg" xmlns:ev="http://www.w3.org/2001/xml-events" xmlns:xlink="http://www.w3.org/1999/xlink"><defs /><path d="M297 539Q301 539 302.5 519.0Q304 499 303.5 469.0Q303 439 302.0 409.0Q301 379 299.0 358.0Q297 337 296 336Q295 334 268.0 340.0Q241 346 202.5 365.5Q164 385 128 423Q128 423 143.0 431.0Q158 439 176.5 455.0Q195 471 206 495Q223 529 213 567Q251 544 297 539Z" fill="#cccccc" stroke="none" transform="scale(1,-1) translate(0,-256)" /><path d="M1164 499Q1219 564 1227 649Q1231 596 1217 544Q1200 489 1171.5 451.0Q1143 413 1110.0 389.5Q1077 366 1047.5 354.0Q1018 342 998.5 338.0Q979 334 978 336Q973 377 972 418Q1010 420 1047.0 432.0Q1084 444 1115.0 462.0Q1146 480 1164 499Z" fill="#cccccc" stroke="none" transform="scale(1,-1) translate(0,-256)" /><path d="M1081 -75Q1091 -96 1083 -117Q1075 -139 1046.0 -159.0Q1017 -179 974.0 -195.0Q931 -211 882.0 -222.0Q833 -233 786 -237Q678 -247 577.0 -208.0Q476 -169 402 -91Q434 -96 486.0 -85.5Q538 -75 598.0 -50.0Q658 -25 717.0 12.0Q776 49 822 97Q880 157 917.0 227.5Q954 298 974.0 373.5Q994 449 1001.5 524.0Q1009 599 1008 666Q1027 612 1034 555Q1038 520 1038 484Q1039 419 1028.5 355.5Q1018 292 1002.5 234.0Q987 176 973 128Q963 93 956.5 52.5Q950 12 962 -18Q970 -38 983.5 -46.0Q997 -54 1024 -54H1026L1036 -53Q1050 -50 1062.5 -56.5Q1075 -63 1081 -75Z" fill="#cccccc" stroke="none" transform="scale(1,-1) translate(0,-256)" /></svg>