<?xml version="1.0" encoding="utf-8" ?>
<svg baseProfile="full" height="256" version="1.1" width="256" xmlns="http://www.w3.org/2000/svg" xmlns:ev="http://www.w3.org/2001/xml-events" xmlns:xlink="http://www.w3.org/1999/xlink"><defs /><path d="M829 288Q829 288 849.0 272.0Q869 256 898.0 234.0Q927 212 953 191Q993 161 1020.0 114.0Q1047 67 1046 24Q1046 -4 1032.5 -22.5Q1019 -41 1005.5 -50.0Q992 -59 992 -59Q992 -59 969.0 -51.5Q946 -44 891 -10Q864 7 832.5 35.5Q801 64 773.0 92.5Q745 121 727.5 141.0Q710 161 710 161Q710 161 723.5 179.0Q737 197 760 223Q783 248 806.0 268.0Q829 288 829 288Z" fill="#e47d17" stroke="none" transform="scale(1,-1) translate(0,-256)" /><path d="M437 -62Q461 -34 495.5 13.0Q530 60 574 112Q607 151 635.5 180.0Q664 209 675 219Q702 245 729.0 275.0Q756 305 763 331Q772 365 762.5 398.0Q753 431 728 440Q702 449 667.5 429.0Q633 409 600 382Q584 369 552.5 338.5Q521 308 483.0 269.0Q445 230 409.5 193.0Q374 156 351 131Q321 98 297.0 61.0Q273 24 269.0 -10.5Q265 -45 295 -70Q321 -92 348.5 -95.0Q376 -98 399.5 -88.5Q423 -79 437 -62Z" fill="#e47d17" stroke="none" transform="scale(1,-1) translate(0,-256)" /></svg>