<?xml version="1.0" encoding="utf-8" ?>
<svg baseProfile="full" height="256" version="1.1" width="256" xmlns="http://www.w3.org/2000/svg" xmlns:ev="http://www.w3.org/2001/xml-events" xmlns:xlink="http://www.w3.org/1999/xlink"><defs /><path d="M266 94Q266 94 291.5 109.0Q317 124 362.5 146.5Q408 169 467.5 191.5Q527 214 595.0 229.0Q663 244 733 243Q790 243 840.0 232.0Q890 221 927.5 206.0Q965 191 986.0 180.0Q1007 169 1007 169Q1007 169 1007.5 203.0Q1008 237 1008.5 293.0Q1009 349 1010.0 417.0Q1011 485 1011.5 554.0Q1012 623 1012.5 682.5Q1013 742 1013.0 781.0Q1013 820 1013 827Q1012 852 995.5 859.0Q979 866 965 866Q961 866 925.0 866.0Q889 866 831.5 866.0Q774 866 706.5 866.0Q639 866 571.0 866.5Q503 867 445.5 867.0Q388 867 351.0 867.0Q314 867 309 866Q292 866 280.0 854.0Q268 842 268 824Q268 819 267.5 786.0Q267 753 267.0 700.0Q267 647 267.0 582.5Q267 518 266.5 450.0Q266 382 266.0 318.5Q266 255 266.0 204.0Q266 153 266.0 123.5Q266 94 266 94Z" fill="#ee534e" stroke="none" transform="scale(1,-1) translate(0,-256)" /></svg>