<?xml version="1.0" encoding="utf-8" ?>
<svg baseProfile="full" height="256" version="1.1" width="256" xmlns="http://www.w3.org/2000/svg" xmlns:ev="http://www.w3.org/2001/xml-events" xmlns:xlink="http://www.w3.org/1999/xlink"><defs /><path d="M335 307Q337 319 337.0 356.0Q337 393 336.0 445.0Q335 497 333.0 556.0Q331 615 328.5 672.0Q326 729 324.0 776.0Q322 823 321.0 851.0Q320 879 320 879L742 822Q742 822 737.0 791.0Q732 760 725.0 709.0Q718 658 712.0 597.5Q706 537 703.5 477.5Q701 418 704.5 369.5Q708 321 721 294Q748 242 778.5 195.0Q809 148 839.5 114.5Q870 81 897 67Q916 56 939.0 51.5Q962 47 986.0 39.5Q1010 32 1033 13Q1044 4 1050.0 -12.5Q1056 -29 1059.5 -46.5Q1063 -64 1064.0 -76.5Q1065 -89 1065 -89Q1065 -89 1062.5 -100.5Q1060 -112 1049.5 -129.5Q1039 -147 1015.0 -163.5Q991 -180 947 -190Q889 -202 852.0 -207.5Q815 -213 785.5 -211.0Q756 -209 720 -199Q694 -192 664.0 -174.5Q634 -157 603.5 -135.0Q573 -113 546.0 -92.5Q519 -72 500 -59Q473 -41 440.0 -25.0Q407 -9 375.0 6.5Q343 22 320.0 38.0Q297 54 290 72Q278 105 281.5 137.5Q285 170 296.5 201.0Q308 232 320.0 258.5Q332 285 335 307Z" fill="#de7340" stroke="none" transform="scale(1,-1) translate(0,-256)" /></svg>