<?xml version="1.0" encoding="utf-8" ?>
<svg baseProfile="full" height="256" version="1.1" width="256" xmlns="http://www.w3.org/2000/svg" xmlns:ev="http://www.w3.org/2001/xml-events" xmlns:xlink="http://www.w3.org/1999/xlink"><defs /><path d="M278 85 435 -5V-119Q435 -125 430.0 -129.0Q425 -133 419 -131Q402 -126 369.0 -113.0Q336 -100 300 -75Q290 -68 289 -56Z" fill="#a65f3e" stroke="none" transform="scale(1,-1) translate(0,-256)" /><path d="M1065 -89Q1065 -89 1071.0 -94.0Q1077 -99 1074 -113Q1071 -125 1060.0 -138.0Q1049 -151 1020.5 -165.0Q992 -179 938 -195Q921 -200 884.5 -206.0Q848 -212 804.0 -212.5Q760 -213 720 -199Q695 -190 665.0 -172.5Q635 -155 604.5 -133.5Q574 -112 547.0 -92.0Q520 -72 500 -59Q474 -41 439.0 -25.0Q404 -9 370.5 7.0Q337 23 312.5 39.0Q288 55 281 73Q271 100 276.0 113.5Q281 127 281 127Q282 122 289.0 110.0Q296 98 326.0 77.0Q356 56 424 25Q450 13 475.0 0.0Q500 -13 522 -28Q532 -35 544.0 -44.0Q556 -53 570 -64Q595 -82 623.5 -102.5Q652 -123 680.0 -140.0Q708 -157 730 -163Q766 -173 803.0 -172.5Q840 -172 871.0 -167.5Q902 -163 920.5 -158.0Q939 -153 939 -153Q981 -142 1009.0 -127.0Q1037 -112 1051.0 -100.5Q1065 -89 1065 -89Z" fill="#a65f3e" stroke="none" transform="scale(1,-1) translate(0,-256)" /></svg>