<?xml version="1.0" encoding="utf-8" ?>
<svg baseProfile="full" height="256" version="1.1" width="256" xmlns="http://www.w3.org/2000/svg" xmlns:ev="http://www.w3.org/2001/xml-events" xmlns:xlink="http://www.w3.org/1999/xlink"><defs /><path d="M469 205Q480 202 483 212Q488 228 496.5 257.5Q505 287 508 307Q509 318 510.5 351.5Q512 385 512.5 432.0Q513 479 513.5 531.5Q514 584 513.5 633.0Q513 682 512.0 720.0Q511 758 508 775H471Q473 767 474.5 733.5Q476 700 476.5 650.5Q477 601 477.0 546.5Q477 492 476.0 442.0Q475 392 473.5 357.0Q472 322 470 311Q466 292 458.5 265.0Q451 238 447 223Q444 213 454 210Z" fill="#874d36" stroke="none" transform="scale(1,-1) translate(0,-256)" /><path d="M502 755Q509 762 505 771Q501 781 491 780L436 775Q428 774 424.0 766.5Q420 759 424 752L438 724Q442 717 449.5 715.5Q457 714 463 720Z" fill="#874d36" stroke="none" transform="scale(1,-1) translate(0,-256)" /></svg>