<?xml version="1.0" encoding="utf-8" ?>
<svg baseProfile="full" height="256" version="1.1" width="256" xmlns="http://www.w3.org/2000/svg" xmlns:ev="http://www.w3.org/2001/xml-events" xmlns:xlink="http://www.w3.org/1999/xlink"><defs /><path d="M182 -71 921 -81 949 -139Q954 -150 947.5 -160.5Q941 -171 929 -172H928Q924 -172 889.5 -172.0Q855 -172 800.0 -172.0Q745 -172 678.0 -172.0Q611 -172 539.5 -172.0Q468 -172 400.5 -172.0Q333 -172 278.5 -172.0Q224 -172 190.0 -172.0Q156 -172 153 -172Q152 -172 152.0 -172.0Q152 -172 152 -172Q141 -171 136.0 -161.5Q131 -152 137 -142Z" fill="#b9e4ea" stroke="none" transform="scale(1,-1) translate(0,-256)" /></svg>