<?xml version="1.0" encoding="utf-8" ?>
<svg baseProfile="full" height="256" version="1.1" width="256" xmlns="http://www.w3.org/2000/svg" xmlns:ev="http://www.w3.org/2001/xml-events" xmlns:xlink="http://www.w3.org/1999/xlink"><defs /><path d="M-384.51597595214844 -556.5906677246094Q-385.3985595703125 -513.39794921875 -403.3085403442383 -480.2367248535156Q-421.21852111816406 -447.07550048828125 -444.1572036743164 -424.458251953125Q-467.09588623046875 -401.84100341796875 -484.5645751953125 -390.27613830566406Q-502.03326416015625 -378.7112731933594 -502.03326416015625 -378.7112731933594Q-502.03326416015625 -378.7112731933594 -482.0371780395508 -380.20526123046875Q-462.0410919189453 -381.6992492675781 -431.5593566894531 -388.5005340576172Q-401.07762145996094 -395.30181884765625 -368.1219787597656 -411.7076721191406Q-335.1663360595703 -428.113525390625 -309.2472229003906 -457.937255859375Q-261.3933410644531 -511.815185546875 -251.55511474609375 -571.3485717773438Q-241.71688842773438 -630.8819580078125 -260.8643112182617 -685.0578002929688Q-280.01173400878906 -739.233642578125 -320.1134948730469 -776.5563354492188Q-355.19960021972656 -808.1339416503906 -391.73743438720703 -821.9515838623047Q-428.2752685546875 -835.7692260742188 -459.7817916870117 -838.0831146240234Q-491.28831481933594 -840.3970031738281 -510.28309631347656 -838.4258422851562Q-529.2778778076172 -836.4546813964844 -529.2778778076172 -836.4546813964844Q-529.2778778076172 -836.4546813964844 -531.2491760253906 -825.8916931152344Q-533.2204742431641 -815.3287048339844 -525.6578521728516 -792.3144073486328Q-518.0952301025391 -769.3001098632812 -490.99607849121094 -732.9018859863281Q-470.92041015625 -705.1226501464844 -451.3695297241211 -686.4599456787109Q-431.8186492919922 -667.7972412109375 -416.27298736572266 -651.0432281494141Q-400.7273254394531 -634.2892150878906 -392.1673126220703 -612.2374114990234Q-383.6072998046875 -590.1856079101562 -384.51597595214844 -556.5906677246094Z" fill="#000000" stroke="none" transform="scale(1,-1) translate(0,-256)" /></svg>