<?xml version="1.0" encoding="utf-8" ?>
<svg baseProfile="full" height="256" version="1.1" width="256" xmlns="http://www.w3.org/2000/svg" xmlns:ev="http://www.w3.org/2001/xml-events" xmlns:xlink="http://www.w3.org/1999/xlink"><defs /><path d="M450 543Q450 543 465.0 533.0Q480 523 500.0 509.0Q520 495 536.5 484.0Q553 473 556 470Q558 469 584.5 452.0Q611 435 652.0 409.0Q693 383 739.0 352.5Q785 322 827.5 293.5Q870 265 899.0 242.5Q928 220 934 211Q940 201 954.0 172.0Q968 143 984.5 103.0Q1001 63 1017.0 19.0Q1033 -25 1043.0 -65.0Q1053 -105 1054.0 -133.5Q1055 -162 1041 -171Q1015 -189 979.0 -199.0Q943 -209 907.5 -213.0Q872 -217 847 -216Q809 -215 762.5 -204.0Q716 -193 680 -171Q670 -165 653.0 -149.5Q636 -134 618.0 -116.0Q600 -98 585.5 -82.0Q571 -66 566 -59Q550 -34 541.5 -17.0Q533 0 526.0 18.5Q519 37 507 67Q489 112 482.0 168.5Q475 225 464 276Q452 327 441.0 361.5Q430 396 418 418Q413 429 401.0 444.5Q389 460 376.5 474.5Q364 489 355.5 499.0Q347 509 347 509Q347 509 340.5 517.5Q334 526 341 537Q348 548 359.5 544.0Q371 540 371 540Z" fill="#ac5832" stroke="none" transform="scale(1,-1) translate(0,-256)" /><path d="M596 361Q608 372 624.5 359.0Q641 346 654 332Q661 324 670.5 310.0Q680 296 686.5 279.5Q693 263 693.0 249.0Q693 235 681 228Q665 218 653.5 230.0Q642 242 634.5 260.5Q627 279 622 290Q614 305 604.0 318.0Q594 331 590.0 341.5Q586 352 596 361Z" fill="#ac5832" stroke="none" transform="scale(1,-1) translate(0,-256)" /><path d="M630 132Q638 138 646.5 131.0Q655 124 661.5 112.5Q668 101 671 95Q674 88 678.0 75.0Q682 62 681.5 49.5Q681 37 672 31Q663 26 654.5 32.0Q646 38 639.0 48.0Q632 58 630 65Q623 82 621.0 103.0Q619 124 630 132Z" fill="#ac5832" stroke="none" transform="scale(1,-1) translate(0,-256)" /><path d="M734 1Q740 14 757.0 10.0Q774 6 796 -5Q808 -11 822.0 -21.5Q836 -32 844.0 -44.0Q852 -56 845 -67Q838 -77 826.0 -75.5Q814 -74 800.0 -65.5Q786 -57 774 -49Q749 -32 738.5 -21.0Q728 -10 734 1Z" fill="#ac5832" stroke="none" transform="scale(1,-1) translate(0,-256)" /></svg>