<?xml version="1.0" encoding="utf-8" ?>
<svg baseProfile="full" height="256" version="1.1" width="256" xmlns="http://www.w3.org/2000/svg" xmlns:ev="http://www.w3.org/2001/xml-events" xmlns:xlink="http://www.w3.org/1999/xlink"><defs /><path d="M292 879Q292 879 301.5 851.0Q311 823 326.5 779.5Q342 736 359.5 687.5Q377 639 393.5 597.0Q410 555 422 531Q433 507 431.0 497.0Q429 487 419.5 485.5Q410 484 398.5 487.0Q387 490 378.5 493.5Q370 497 370 496Q370 495 354.0 508.5Q338 522 314.0 540.5Q290 559 265 573Q228 594 202.0 605.5Q176 617 164 623Q156 626 137.0 637.5Q118 649 103.5 668.5Q89 688 93 718Q96 740 108.5 751.0Q121 762 135.5 766.5Q150 771 161.0 771.0Q172 771 172 771L216 743Q216 743 205.5 759.0Q195 775 185.5 799.5Q176 824 179 849Q183 874 199.5 888.0Q216 902 231.5 907.5Q247 913 247 913Q247 913 257.5 905.0Q268 897 279.0 889.0Q290 881 292 879Z" fill="#dfbca6" stroke="none" transform="scale(1,-1) translate(0,-256)" /></svg>