<?xml version="1.0" encoding="utf-8" ?>
<svg baseProfile="full" height="256" version="1.1" width="256" xmlns="http://www.w3.org/2000/svg" xmlns:ev="http://www.w3.org/2001/xml-events" xmlns:xlink="http://www.w3.org/1999/xlink"><defs /><path d="M298 554Q315 556 346.5 555.5Q378 555 417.0 554.5Q456 554 495 554Q519 554 556.0 554.0Q593 554 636.0 554.5Q679 555 721.0 555.0Q763 555 797.0 555.5Q831 556 849 556Q884 557 917.5 558.0Q951 559 974.5 558.0Q998 557 1004 553Q1009 548 1010.5 527.5Q1012 507 1012.0 483.5Q1012 460 1012 445Q1012 434 1013.0 398.5Q1014 363 1015.0 316.0Q1016 269 1017.0 221.5Q1018 174 1017 138Q1017 114 1017.5 76.0Q1018 38 1018.5 0.0Q1019 -38 1019.5 -64.0Q1020 -90 1020 -90Q1020 -90 998.5 -110.0Q977 -130 931.0 -155.0Q885 -180 812.0 -199.0Q739 -218 637 -217Q540 -215 472.5 -199.5Q405 -184 363.0 -164.0Q321 -144 302.0 -128.5Q283 -113 283 -113Q283 -113 283.5 -94.0Q284 -75 283.5 -45.5Q283 -16 281 14Q280 36 279.5 67.0Q279 98 279.5 131.0Q280 164 280.0 191.5Q280 219 279 235Q276 311 279.5 375.5Q283 440 284 474Q285 509 285.5 531.5Q286 554 298 554Z" fill="#3c3c3c" stroke="none" transform="scale(1,-1) translate(0,-256)" /></svg>