<?xml version="1.0" encoding="utf-8" ?>
<svg baseProfile="full" height="256" version="1.1" width="256" xmlns="http://www.w3.org/2000/svg" xmlns:ev="http://www.w3.org/2001/xml-events" xmlns:xlink="http://www.w3.org/1999/xlink"><defs /><path d="M331 -33Q331 -33 363.5 -33.5Q396 -34 450.5 -34.5Q505 -35 570.5 -35.0Q636 -35 703.0 -34.0Q770 -33 827.5 -31.5Q885 -30 923.5 -26.5Q962 -23 970 -17Q987 -6 1019.0 17.5Q1051 41 1072 83Q1080 98 1092.0 123.5Q1104 149 1108 173Q1110 190 1115.5 201.0Q1121 212 1126.5 225.5Q1132 239 1134 262Q1136 279 1131.5 300.0Q1127 321 1126 349Q1125 376 1126.0 397.5Q1127 419 1124 443Q1122 467 1109.5 490.0Q1097 513 1084 549Q1070 586 1061.5 618.0Q1053 650 1031 678Q1007 708 978.0 723.0Q949 738 926 756Q903 774 882.0 790.0Q861 806 836 820Q800 839 771.0 848.0Q742 857 713 856Q694 855 672.0 859.0Q650 863 622.5 864.5Q595 866 560 856Q531 848 504.0 833.5Q477 819 458 809Q439 799 410.5 794.5Q382 790 353 773Q324 757 309.5 739.0Q295 721 279 703Q269 690 253.5 674.0Q238 658 225.5 640.5Q213 623 210 606Q208 593 201.0 570.5Q194 548 186.0 524.0Q178 500 172.0 483.5Q166 467 166 467Q166 467 160.0 446.5Q154 426 147 396Q141 370 143.0 332.5Q145 295 151.5 256.0Q158 217 166.0 184.5Q174 152 179 137Q185 121 200.0 96.0Q215 71 233.5 45.0Q252 19 268.0 -0.5Q284 -20 292 -23Q308 -30 319.5 -31.5Q331 -33 331 -33Z" fill="#ffa726" stroke="none" transform="scale(1,-1) translate(0,-256)" /></svg>