<?xml version="1.0" encoding="utf-8" ?>
<svg baseProfile="full" height="256" version="1.1" width="256" xmlns="http://www.w3.org/2000/svg" xmlns:ev="http://www.w3.org/2001/xml-events" xmlns:xlink="http://www.w3.org/1999/xlink"><defs /><path d="M266 -195Q270 -187 282.0 -173.5Q294 -160 306 -147Q314 -138 324.5 -122.5Q335 -107 346.5 -92.5Q358 -78 368 -73Q382 -66 392.0 -73.5Q402 -81 402 -81Q402 -81 408.5 -67.5Q415 -54 427 -34Q433 -25 449.5 -0.5Q466 24 486.0 52.0Q506 80 521.5 101.5Q537 123 540 128Q546 138 554.0 160.5Q562 183 573 226Q583 270 598.5 307.5Q614 345 632 367Q644 382 663.5 398.0Q683 414 698.5 425.0Q714 436 714 436Q714 436 730.0 458.0Q746 480 783 525Q808 555 836.5 584.0Q865 613 887.0 633.0Q909 653 916 656Q926 661 935.5 658.5Q945 656 949 653Q952 650 954.5 638.5Q957 627 958.5 616.0Q960 605 960 605L950 269L974 42L671 -159Q671 -159 643.0 -164.0Q615 -169 572.0 -177.0Q529 -185 482.5 -192.5Q436 -200 397.5 -204.5Q359 -209 342 -209Q299 -207 280.0 -206.5Q261 -206 266 -195Z" fill="#9ea2a3" stroke="none" transform="scale(1,-1) translate(0,-256)" /><path d="M1076 309Q1080 316 1085.0 322.0Q1090 328 1090 328Q1090 328 1083.0 336.5Q1076 345 1059 342Q1052 340 1045.0 336.0Q1038 332 1031 321Q1024 310 1029.5 295.0Q1035 280 1051 279Q1066 277 1069.5 290.5Q1073 304 1076 309Z" fill="#9ea2a3" stroke="none" transform="scale(1,-1) translate(0,-256)" /><path d="M219 85Q219 85 233.0 81.0Q247 77 272 96Q288 108 287.5 119.0Q287 130 279 145Q274 154 264.0 172.0Q254 190 244.0 206.0Q234 222 229 224Q223 227 202.5 221.0Q182 215 161.0 205.0Q140 195 130 186Q124 180 111.0 152.0Q98 124 89 92Q79 59 78.5 35.0Q78 11 78 11Q78 11 82.0 7.0Q86 3 92 4Q95 4 113.5 15.5Q132 27 155.5 42.5Q179 58 197.5 70.5Q216 83 219 85Z" fill="#9ea2a3" stroke="none" transform="scale(1,-1) translate(0,-256)" /><path d="M187 21Q201 34 216.0 40.0Q231 46 241 35Q251 22 241.5 10.5Q232 -1 222 -8Q216 -13 206.0 -23.0Q196 -33 185.0 -38.0Q174 -43 165 -34Q156 -26 160.0 -15.0Q164 -4 172.5 6.0Q181 16 187 21Z" fill="#9ea2a3" stroke="none" transform="scale(1,-1) translate(0,-256)" /><path d="M810 714Q814 714 820.0 711.5Q826 709 828 706Q829 703 825.5 694.5Q822 686 813 680Q804 674 800.0 678.0Q796 682 796 682Q796 682 793.0 688.0Q790 694 792 700Q797 714 810 714Z" fill="#9ea2a3" stroke="none" transform="scale(1,-1) translate(0,-256)" /><path d="M723 633Q725 646 739.5 646.0Q754 646 762 644Q771 642 776.5 637.5Q782 633 782 633Q782 633 777.5 630.5Q773 628 769 627Q765 625 759.0 616.5Q753 608 749 604Q745 601 734.5 595.0Q724 589 720 590Q717 591 718.0 601.0Q719 611 720.5 621.0Q722 631 723 633Z" fill="#9ea2a3" stroke="none" transform="scale(1,-1) translate(0,-256)" /><path d="M634 570Q634 572 636.0 585.5Q638 599 633 599Q628 600 621.0 593.5Q614 587 610 582Q607 576 609.5 567.5Q612 559 612 559Q612 559 622.0 563.0Q632 567 634 570Z" fill="#9ea2a3" stroke="none" transform="scale(1,-1) translate(0,-256)" /><path d="M619 507Q626 512 636.5 511.0Q647 510 655.0 507.5Q663 505 663 505Q663 505 666.0 503.0Q669 501 665 492Q660 482 655.5 481.0Q651 480 647 476Q644 473 640.0 464.5Q636 456 633.5 448.0Q631 440 631 440Q631 440 627.0 442.5Q623 445 617 450Q611 455 609.0 460.0Q607 465 608 474Q608 483 610.0 492.5Q612 502 619 507Z" fill="#9ea2a3" stroke="none" transform="scale(1,-1) translate(0,-256)" /><path d="M459 552Q456 556 449.5 555.5Q443 555 437 555Q419 555 403 541Q397 536 395.5 527.0Q394 518 396 499Q398 480 399.5 469.5Q401 459 401 459Q401 459 410.5 459.0Q420 459 425 464Q428 468 434.0 484.5Q440 501 445.5 517.0Q451 533 451 533Q451 533 457.0 540.5Q463 548 459 552Z" fill="#9ea2a3" stroke="none" transform="scale(1,-1) translate(0,-256)" /><path d="M470 403Q460 405 447.0 399.0Q434 393 422.5 386.0Q411 379 407 379Q402 378 396.0 372.0Q390 366 380 354Q369 341 369.5 327.0Q370 313 373 302Q375 295 385.0 281.0Q395 267 404.5 255.5Q414 244 414 244Q414 244 420.5 256.5Q427 269 432 278Q437 288 439.0 296.5Q441 305 442 317Q442 329 435.5 343.5Q429 358 433 361Q437 364 446.5 353.5Q456 343 458 340Q461 337 468.0 333.5Q475 330 485 333Q495 337 495.5 348.5Q496 360 492 369Q489 378 479.5 390.5Q470 403 470 403Z" fill="#9ea2a3" stroke="none" transform="scale(1,-1) translate(0,-256)" /><path d="M226 279Q218 289 213.5 296.0Q209 303 209 314Q209 326 212.5 331.5Q216 337 225 347Q232 355 248.0 359.5Q264 364 274 364Q284 364 296.0 356.0Q308 348 308 348Q308 348 296.0 340.0Q284 332 272.0 322.5Q260 313 258 309Q255 302 256.0 286.0Q257 270 257 268Q257 265 252.5 260.0Q248 255 248 255Q248 255 239.5 263.5Q231 272 226 279Z" fill="#9ea2a3" stroke="none" transform="scale(1,-1) translate(0,-256)" /><path d="M396 126Q396 126 404.0 133.0Q412 140 421.5 147.5Q431 155 435 157Q441 160 446.5 157.5Q452 155 459 160Q467 164 470.0 172.5Q473 181 473 181Q473 181 467.5 187.5Q462 194 452 195Q442 197 436.0 194.5Q430 192 425 186Q419 181 407.0 177.5Q395 174 389 162Q383 149 389.5 137.5Q396 126 396 126Z" fill="#9ea2a3" stroke="none" transform="scale(1,-1) translate(0,-256)" /></svg>