<?xml version="1.0" encoding="utf-8" ?>
<svg baseProfile="full" height="256" version="1.1" width="256" xmlns="http://www.w3.org/2000/svg" xmlns:ev="http://www.w3.org/2001/xml-events" xmlns:xlink="http://www.w3.org/1999/xlink"><defs /><path d="M262 672Q222 610 216.0 563.0Q210 516 237 500Q250 493 262.0 501.0Q274 509 284.5 525.0Q295 541 303.5 558.5Q312 576 319 586Q399 705 535 749Q545 753 556.5 758.0Q568 763 573 773Q579 785 572.5 794.5Q566 804 554 808Q540 814 522.5 813.5Q505 813 488 810Q417 798 355.0 759.5Q293 721 262 672Z" fill="#ffbd52" stroke="none" transform="scale(1,-1) translate(0,-256)" /></svg>