<?xml version="1.0" encoding="utf-8" ?>
<svg baseProfile="full" height="256" version="1.1" width="256" xmlns="http://www.w3.org/2000/svg" xmlns:ev="http://www.w3.org/2001/xml-events" xmlns:xlink="http://www.w3.org/1999/xlink"><defs /><path d="M632 912Q663 913 674.5 890.5Q686 868 700 835Q703 828 715.5 803.5Q728 779 745.0 744.5Q762 710 780.0 674.0Q798 638 813.5 607.0Q829 576 838 559Q857 522 882.5 474.5Q908 427 932.0 370.5Q956 314 971.5 250.0Q987 186 985 116Q981 5 933.5 -67.5Q886 -140 809.5 -175.0Q733 -210 644 -211Q545 -212 468.5 -170.5Q392 -129 346.5 -57.5Q301 14 296 104Q290 195 308.5 268.5Q327 342 356.5 401.5Q386 461 414 509Q434 545 458.0 594.5Q482 644 505.0 693.5Q528 743 544.5 781.0Q561 819 567 833Q574 850 581.5 868.5Q589 887 600.5 899.0Q612 911 632 912Z" fill="#4ec1f5" stroke="none" transform="scale(1,-1) translate(0,-256)" /></svg>