<?xml version="1.0" encoding="utf-8" ?>
<svg baseProfile="full" height="256" version="1.1" width="256" xmlns="http://www.w3.org/2000/svg" xmlns:ev="http://www.w3.org/2001/xml-events" xmlns:xlink="http://www.w3.org/1999/xlink"><defs /><path d="M637 182Q751 180 828.5 172.5Q906 165 955.5 154.5Q1005 144 1032.5 132.5Q1060 121 1072.5 112.0Q1085 103 1089 98Q1101 87 1102.0 75.5Q1103 64 1103 64L1079 29Q1079 29 1062.5 22.0Q1046 15 1021.0 5.0Q996 -5 969.0 -16.0Q942 -27 920 -35Q903 -42 861.5 -48.0Q820 -54 763.0 -58.0Q706 -62 642.5 -63.5Q579 -65 517.5 -62.5Q456 -60 407 -54Q282 -36 223.5 -0.5Q165 35 179 76Q186 95 218.0 111.5Q250 128 299.0 141.5Q348 155 406.0 164.0Q464 173 524.0 177.5Q584 182 637 182Z" fill="#a2e4fd" stroke="none" transform="scale(1,-1) translate(0,-256)" /><path d="M321 419 365 408 375 125 348 123Z" fill="#a2e4fd" stroke="none" transform="scale(1,-1) translate(0,-256)" /><path d="M895 401Q895 409 905.5 414.5Q916 420 927.0 423.0Q938 426 938 426L922 148L894 153Q894 153 894.0 176.5Q894 200 894.0 235.0Q894 270 894.0 306.0Q894 342 894.5 369.0Q895 396 895 401Z" fill="#a2e4fd" stroke="none" transform="scale(1,-1) translate(0,-256)" /><path d="M359 452 395 402 647 364 863 392 934 452Q934 452 931.5 460.5Q929 469 916.0 481.5Q903 494 872.5 506.0Q842 518 785.5 526.0Q729 534 640 534Q550 533 495.5 524.5Q441 516 412.0 504.0Q383 492 372.0 480.0Q361 468 360.0 460.0Q359 452 359 452Z" fill="#a2e4fd" stroke="none" transform="scale(1,-1) translate(0,-256)" /><path d="M379 478 412 497Q412 497 407.5 506.5Q403 516 394 520Q377 526 360 519Q352 515 347.5 508.5Q343 502 343 502Q343 502 351.0 498.0Q359 494 364 492Q369 490 374.0 484.0Q379 478 379 478Z" fill="#a2e4fd" stroke="none" transform="scale(1,-1) translate(0,-256)" /><path d="M885 496 851 510Q851 510 862.0 523.5Q873 537 889 538Q905 540 914.5 533.0Q924 526 924 526Q924 526 917.0 523.0Q910 520 904 516Q898 513 891.5 504.5Q885 496 885 496Z" fill="#a2e4fd" stroke="none" transform="scale(1,-1) translate(0,-256)" /><path d="M723 398 806 413 856 428Q856 428 854.5 416.5Q853 405 850.5 390.0Q848 375 847 364Q846 356 844.5 333.0Q843 310 841.0 280.5Q839 251 837.5 223.5Q836 196 835.0 177.5Q834 159 834 159L796 140Q796 140 796.5 158.5Q797 177 797.0 205.5Q797 234 796.5 265.0Q796 296 794.5 321.5Q793 347 790 358Q786 376 769.5 385.0Q753 394 738.0 396.0Q723 398 723 398Z" fill="#a2e4fd" stroke="none" transform="scale(1,-1) translate(0,-256)" /><path d="M432 410 443 423 560 400Q560 400 544.0 395.0Q528 390 511 383Q494 376 484.0 354.5Q474 333 472 304Q471 289 470.0 265.5Q469 242 468.5 217.5Q468 193 467.5 176.5Q467 160 467 160L437 152Q437 152 436.0 168.0Q435 184 433.0 206.5Q431 229 429 249Q428 269 425.5 295.5Q423 322 422.0 346.5Q421 371 423 385Q426 399 429.0 404.5Q432 410 432 410Z" fill="#a2e4fd" stroke="none" transform="scale(1,-1) translate(0,-256)" /><path d="M640 647Q621 647 616.0 655.0Q611 663 611 674Q610 679 608.5 696.5Q607 714 600 731Q587 764 568.0 791.0Q549 818 519 818Q488 818 466.0 781.5Q444 745 432 698Q425 674 422.0 639.5Q419 605 418.0 571.0Q417 537 417.0 514.0Q417 491 417 491L381 464Q381 464 376.0 512.5Q371 561 384 664Q398 767 438.5 817.0Q479 867 521 868Q547 868 567.5 853.0Q588 838 600.0 823.0Q612 808 612 808Q612 808 612.0 826.5Q612 845 612.0 865.5Q612 886 613 893Q614 904 621.5 910.0Q629 916 636 916Q644 917 653.0 912.0Q662 907 663 893Q664 883 665.0 862.5Q666 842 666.5 825.0Q667 808 667 808Q667 808 677.5 822.0Q688 836 710.0 849.0Q732 862 767 860Q804 858 827.5 830.5Q851 803 864.0 761.5Q877 720 882.5 674.0Q888 628 888.5 587.0Q889 546 888.0 520.5Q887 495 887 495L851 487Q851 487 850.5 503.0Q850 519 850.0 541.5Q850 564 850 584Q849 597 847.0 624.5Q845 652 839.5 684.5Q834 717 824.0 746.0Q814 775 798.0 794.0Q782 813 760 812Q730 811 711.5 792.0Q693 773 683.5 747.5Q674 722 671.0 701.5Q668 681 668 677Q668 669 664.0 658.0Q660 647 640 647Z" fill="#a2e4fd" stroke="none" transform="scale(1,-1) translate(0,-256)" /></svg>