<?xml version="1.0" encoding="utf-8" ?>
<svg baseProfile="full" height="256" version="1.1" width="256" xmlns="http://www.w3.org/2000/svg" xmlns:ev="http://www.w3.org/2001/xml-events" xmlns:xlink="http://www.w3.org/1999/xlink"><defs /><path d="M638 142Q723 143 766.5 119.5Q810 96 809 70Q807 43 763.0 22.5Q719 2 641 3Q593 3 551.5 11.0Q510 19 485.0 34.0Q460 49 459 72Q459 103 505.0 122.0Q551 141 638 142Z" fill="#4fc0fa" stroke="none" transform="scale(1,-1) translate(0,-256)" /><path d="M839 144Q842 147 852.0 147.0Q862 147 878 137Q911 117 921 61Q926 37 939.5 28.0Q953 19 953 16Q953 14 945.0 8.0Q937 2 911 2Q885 2 873.0 16.0Q861 30 865 48Q871 83 849 109Q834 125 836.0 134.0Q838 143 839 144Z" fill="#4fc0fa" stroke="none" transform="scale(1,-1) translate(0,-256)" /><path d="M932 115Q932 122 945.5 124.0Q959 126 977.0 121.5Q995 117 1008.5 106.5Q1022 96 1023 80Q1023 60 1010.0 49.5Q997 39 983.0 35.5Q969 32 966 34Q961 37 964.5 47.0Q968 57 967 73Q966 84 957.0 92.5Q948 101 940.0 107.0Q932 113 932 115Z" fill="#4fc0fa" stroke="none" transform="scale(1,-1) translate(0,-256)" /><path d="M524 457Q525 475 560.5 481.0Q596 487 640 486Q689 485 719.5 479.0Q750 473 751 459Q753 444 732.0 432.0Q711 420 642 420Q575 420 549.0 431.5Q523 443 524 457Z" fill="#4fc0fa" stroke="none" transform="scale(1,-1) translate(0,-256)" /><path d="M769 488Q772 492 784.5 492.5Q797 493 812.5 489.5Q828 486 839.5 477.5Q851 469 851 456Q851 443 840.5 434.5Q830 426 816.0 422.0Q802 418 790.5 417.0Q779 416 777 418Q774 421 783.5 431.0Q793 441 793 454Q794 463 787.0 470.0Q780 477 773.5 481.0Q767 485 769 488Z" fill="#4fc0fa" stroke="none" transform="scale(1,-1) translate(0,-256)" /></svg>