<?xml version="1.0" encoding="utf-8" ?>
<svg baseProfile="full" height="256" version="1.1" width="256" xmlns="http://www.w3.org/2000/svg" xmlns:ev="http://www.w3.org/2001/xml-events" xmlns:xlink="http://www.w3.org/1999/xlink"><defs /><path d="M519 497Q515 501 501.5 500.5Q488 500 472.0 495.5Q456 491 444.0 481.5Q432 472 431 458Q430 446 442.5 437.5Q455 429 472.0 424.0Q489 419 502.5 418.0Q516 417 519 420Q521 423 514.0 429.0Q507 435 500.0 442.5Q493 450 493 459Q493 468 501.0 476.0Q509 484 515.5 489.5Q522 495 519 497Z" fill="#fffffd" stroke="none" transform="scale(1,-1) translate(0,-256)" /></svg>