<?xml version="1.0" encoding="utf-8" ?>
<svg baseProfile="full" height="256" version="1.1" width="256" xmlns="http://www.w3.org/2000/svg" xmlns:ev="http://www.w3.org/2001/xml-events" xmlns:xlink="http://www.w3.org/1999/xlink"><defs /><path d="M233 243Q229 265 269.5 282.0Q310 299 384.0 307.0Q458 315 557.0 309.0Q656 303 769 280Q888 255 956.0 209.5Q1024 164 1042.0 113.0Q1060 62 1030.0 17.5Q1000 -27 923 -51Q831 -80 760.5 -83.5Q690 -87 640.0 -76.5Q590 -66 559 -54Q515 -36 488.0 -10.0Q461 16 439.0 49.5Q417 83 387 121Q365 149 339.5 166.5Q314 184 291.0 195.5Q268 207 252.0 217.5Q236 228 233 243Z" fill="#b7d118" stroke="none" transform="scale(1,-1) translate(0,-256)" /></svg>