<?xml version="1.0" encoding="utf-8" ?>
<svg baseProfile="full" height="256" version="1.1" width="256" xmlns="http://www.w3.org/2000/svg" xmlns:ev="http://www.w3.org/2001/xml-events" xmlns:xlink="http://www.w3.org/1999/xlink"><defs /><path d="M446.7273712158203 529.4109344482422Q453.8640899658203 524.4517822265625 455.50562286376953 514.7354583740234Q457.14715576171875 505.0191345214844 450.1359405517578 494.9292907714844Q442.95372009277344 484.5933532714844 433.27494049072266 482.74327087402344Q423.5961608886719 480.8931884765625 416.4594421386719 485.8523406982422Q409.3227233886719 490.8114929199219 407.68119049072266 500.52781677246094Q406.03965759277344 510.244140625 413.2218780517578 520.580078125Q420.23309326171875 530.669921875 429.91187286376953 532.5200042724609Q439.5906524658203 534.3700866699219 446.7273712158203 529.4109344482422Z" fill="#896024" stroke="none" transform="scale(1,-1) translate(0,-256)" /><path d="M806.3523712158203 529.4109344482422Q813.4890899658203 524.4517822265625 815.1306228637695 514.7354583740234Q816.7721557617188 505.0191345214844 809.7609405517578 494.9292907714844Q802.5787200927734 484.5933532714844 792.8999404907227 482.74327087402344Q783.2211608886719 480.8931884765625 776.0844421386719 485.8523406982422Q768.9477233886719 490.8114929199219 767.3061904907227 500.52781677246094Q765.6646575927734 510.244140625 772.8468780517578 520.580078125Q779.8580932617188 530.669921875 789.5368728637695 532.5200042724609Q799.2156524658203 534.3700866699219 806.3523712158203 529.4109344482422Z" fill="#896024" stroke="none" transform="scale(1,-1) translate(0,-256)" /></svg>