<?xml version="1.0" encoding="utf-8" ?>
<svg baseProfile="full" height="256" version="1.1" width="256" xmlns="http://www.w3.org/2000/svg" xmlns:ev="http://www.w3.org/2001/xml-events" xmlns:xlink="http://www.w3.org/1999/xlink"><defs /><path d="M984 176Q986 201 975.5 226.0Q965 251 944 268Q922 286 895 291L888 292L881 293Q878 293 874.5 293.0Q871 293 868 294H843Q818 295 792.5 295.5Q767 296 742 297L642 298L541 297Q516 296 490.5 295.5Q465 295 440 294H415Q412 293 408.5 293.0Q405 293 402 293L395 292L388 291Q361 286 339 268Q318 251 307.5 226.0Q297 201 299 176Q305 230 348 257Q367 270 391 273Q402 274 414.5 273.5Q427 273 440 272Q465 271 490.0 271.0Q515 271 541 270L641 269L742 270Q768 271 793.0 271.0Q818 271 843 272Q856 273 868.5 273.5Q881 274 892 273Q915 270 935 257Q978 230 984 176Z" fill="#de7321" stroke="none" transform="scale(1,-1) translate(0,-256)" /></svg>