<?xml version="1.0" encoding="utf-8" ?>
<svg baseProfile="full" height="256" version="1.1" width="256" xmlns="http://www.w3.org/2000/svg" xmlns:ev="http://www.w3.org/2001/xml-events" xmlns:xlink="http://www.w3.org/1999/xlink"><defs /><path d="M959 366Q956 398 933.5 419.5Q911 441 877.0 450.0Q843 459 804 454Q767 449 737.0 436.5Q707 424 693.5 396.0Q680 368 693 317Q704 271 748.5 245.0Q793 219 848 229Q903 239 933.0 278.5Q963 318 959 366Z" fill="#a81919" stroke="none" transform="scale(1,-1) translate(0,-256)" /><path d="M322.468994140625 366.0Q325.468994140625 398.0 347.968994140625 419.5Q370.468994140625 441.0 404.468994140625 450.0Q438.468994140625 459.0 477.468994140625 454.0Q514.468994140625 449.0 544.468994140625 436.5Q574.468994140625 424.0 587.968994140625 396.0Q601.468994140625 368.0 588.468994140625 317.0Q577.468994140625 271.0 532.968994140625 245.0Q488.468994140625 219.0 433.468994140625 229.0Q378.468994140625 239.0 348.468994140625 278.5Q318.468994140625 318.0 322.468994140625 366.0Z" fill="#a81919" stroke="none" transform="scale(1,-1) translate(0,-256)" /></svg>