<?xml version="1.0" encoding="utf-8" ?>
<svg baseProfile="full" height="256" version="1.1" width="256" xmlns="http://www.w3.org/2000/svg" xmlns:ev="http://www.w3.org/2001/xml-events" xmlns:xlink="http://www.w3.org/1999/xlink"><defs /><path d="M1092 537Q1087 531 1082.0 525.5Q1077 520 1072 515Q1053 493 1041.5 470.5Q1030 448 1025 418Q1020 385 1022.5 359.0Q1025 333 1032 302Q1039 269 1037.5 231.5Q1036 194 1041 161Q1042 152 1047 150Q1050 148 1057 151Q1102 172 1127.0 218.5Q1152 265 1155 316Q1156 351 1150.5 386.5Q1145 422 1140.5 457.5Q1136 493 1140 529Q1141 543 1134.5 554.0Q1128 565 1113 555Q1104 549 1092 537Z" fill="#cc3333" stroke="none" transform="scale(1,-1) translate(0,-256)" /><path d="M180.93699645996094 537.0Q185.93699645996094 531.0 190.93699645996094 525.5Q195.93699645996094 520.0 200.93699645996094 515.0Q219.93699645996094 493.0 231.43699645996094 470.5Q242.93699645996094 448.0 247.93699645996094 418.0Q252.93699645996094 385.0 250.43699645996094 359.0Q247.93699645996094 333.0 240.93699645996094 302.0Q233.93699645996094 269.0 235.43699645996094 231.5Q236.93699645996094 194.0 231.93699645996094 161.0Q230.93699645996094 152.0 225.93699645996094 150.0Q222.93699645996094 148.0 215.93699645996094 151.0Q170.93699645996094 172.0 145.93699645996094 218.5Q120.93699645996094 265.0 117.93699645996094 316.0Q116.93699645996094 351.0 122.43699645996094 386.5Q127.93699645996094 422.0 132.43699645996094 457.5Q136.93699645996094 493.0 132.93699645996094 529.0Q131.93699645996094 543.0 138.43699645996094 554.0Q144.93699645996094 565.0 159.93699645996094 555.0Q168.93699645996094 549.0 180.93699645996094 537.0Z" fill="#cc3333" stroke="none" transform="scale(1,-1) translate(0,-256)" /></svg>