<?xml version="1.0" encoding="utf-8" ?>
<svg baseProfile="full" height="256" version="1.1" width="256" xmlns="http://www.w3.org/2000/svg" xmlns:ev="http://www.w3.org/2001/xml-events" xmlns:xlink="http://www.w3.org/1999/xlink"><defs /><path d="M1003 505Q1003 505 997.0 474.0Q991 443 983.0 394.0Q975 345 967.5 289.5Q960 234 957.0 184.0Q954 134 958 102Q964 62 969.0 12.0Q974 -38 978.5 -84.5Q983 -131 985.5 -161.0Q988 -191 988 -191Q988 -191 1002.5 -173.5Q1017 -156 1038.5 -126.0Q1060 -96 1081.5 -57.0Q1103 -18 1117.0 25.0Q1131 68 1131 111Q1131 170 1118.0 227.5Q1105 285 1086.0 335.0Q1067 385 1048.0 423.0Q1029 461 1016.0 483.0Q1003 505 1003 505Z" fill="#374c57" stroke="none" transform="scale(1,-1) translate(0,-256)" /><path d="M286 521Q286 521 289.0 497.5Q292 474 296.5 436.0Q301 398 305.5 351.5Q310 305 313.5 257.5Q317 210 317.5 169.0Q318 128 315 102Q309 62 304.0 12.0Q299 -38 294.5 -84.5Q290 -131 287.5 -161.0Q285 -191 285 -191Q285 -191 270.5 -173.5Q256 -156 234.5 -126.0Q213 -96 191.5 -57.0Q170 -18 155.5 25.0Q141 68 142 111Q142 170 156.5 229.0Q171 288 192.5 340.5Q214 393 235.5 433.5Q257 474 271.5 497.5Q286 521 286 521Z" fill="#374c57" stroke="none" transform="scale(1,-1) translate(0,-256)" /></svg>