<?xml version="1.0" encoding="utf-8" ?>
<svg baseProfile="full" height="256" version="1.1" width="256" xmlns="http://www.w3.org/2000/svg" xmlns:ev="http://www.w3.org/2001/xml-events" xmlns:xlink="http://www.w3.org/1999/xlink"><defs /><path d="M606 2Q606 -10 615.0 -16.0Q624 -22 636 -22Q648 -22 657.0 -16.0Q666 -10 666 2Q666 15 666.0 26.5Q666 38 666 38Q663 38 648.0 38.0Q633 38 619.5 38.0Q606 38 606 38Q606 38 606.0 24.0Q606 10 606 2Z" fill="#fff8e1" stroke="none" transform="scale(1,-1) translate(0,-256)" /><path d="M523.2679901123047 12.530014038085938Q521.1175994873047 0.7171478271484375 528.8866729736328 -6.7993316650390625Q536.6557464599609 -14.315811157226562 548.4481048583984 -16.462539672851562Q560.2404632568359 -18.609268188476562 570.1599273681641 -14.312881469726562Q580.0793914794922 -10.016494750976562 582.2297821044922 1.7963714599609375Q584.5593719482422 14.593643188476562 586.6201629638672 25.914306640625Q588.6809539794922 37.23497009277344 588.6809539794922 37.23497009277344Q585.7328643798828 37.77165222167969 570.9924163818359 40.45506286621094Q556.2519683837891 43.13847351074219 542.9855651855469 45.55354309082031Q529.7191619873047 47.96861267089844 529.7191619873047 47.96861267089844Q529.7191619873047 47.96861267089844 527.2103729248047 34.18693542480469Q524.7015838623047 20.405258178710938 523.2679901123047 12.530014038085938Z" fill="#fff8e1" stroke="none" transform="scale(1,-1) translate(0,-256)" /><path d="M749.7624969482422 12.530914306640625Q751.9128875732422 0.718048095703125 744.1438140869141 -6.798431396484375Q736.3747406005859 -14.314910888671875 724.5823822021484 -16.461639404296875Q712.7900238037109 -18.608367919921875 702.8705596923828 -14.311981201171875Q692.9510955810547 -10.015594482421875 690.8007049560547 1.797271728515625Q688.4711151123047 14.59454345703125 686.4103240966797 25.915206909179688Q684.3495330810547 37.235870361328125 684.3495330810547 37.235870361328125Q687.2976226806641 37.772552490234375 702.0380706787109 40.455963134765625Q716.7785186767578 43.139373779296875 730.044921875 45.554443359375Q743.3113250732422 47.969512939453125 743.3113250732422 47.969512939453125Q743.3113250732422 47.969512939453125 745.8201141357422 34.187835693359375Q748.3289031982422 20.406158447265625 749.7624969482422 12.530914306640625Z" fill="#fff8e1" stroke="none" transform="scale(1,-1) translate(0,-256)" /><path d="M666.468994140625 -57.625Q666.468994140625 -45.625 657.468994140625 -39.625Q648.468994140625 -33.625 636.468994140625 -33.625Q624.468994140625 -33.625 615.468994140625 -39.625Q606.468994140625 -45.625 606.468994140625 -57.625Q606.468994140625 -70.625 606.468994140625 -82.125Q606.468994140625 -93.625 606.468994140625 -93.625Q609.468994140625 -93.625 624.468994140625 -93.625Q639.468994140625 -93.625 652.968994140625 -93.625Q666.468994140625 -93.625 666.468994140625 -93.625Q666.468994140625 -93.625 666.468994140625 -79.625Q666.468994140625 -65.625 666.468994140625 -57.625Z" fill="#fff8e1" stroke="none" transform="scale(1,-1) translate(0,-256)" /><path d="M754.593994140625 -57.906005859375Q754.593994140625 -45.906005859375 745.593994140625 -39.906005859375Q736.593994140625 -33.906005859375 724.593994140625 -33.906005859375Q712.593994140625 -33.906005859375 703.593994140625 -39.906005859375Q694.593994140625 -45.906005859375 694.593994140625 -57.906005859375Q694.593994140625 -70.906005859375 694.593994140625 -82.406005859375Q694.593994140625 -93.906005859375 694.593994140625 -93.906005859375Q697.593994140625 -93.906005859375 712.593994140625 -93.906005859375Q727.593994140625 -93.906005859375 741.093994140625 -93.906005859375Q754.593994140625 -93.906005859375 754.593994140625 -93.906005859375Q754.593994140625 -93.906005859375 754.593994140625 -79.906005859375Q754.593994140625 -65.906005859375 754.593994140625 -57.906005859375Z" fill="#fff8e1" stroke="none" transform="scale(1,-1) translate(0,-256)" /><path d="M578.4380035400391 -57.625Q578.4380035400391 -45.625 569.4380035400391 -39.625Q560.4380035400391 -33.625 548.4380035400391 -33.625Q536.4380035400391 -33.625 527.4380035400391 -39.625Q518.4380035400391 -45.625 518.4380035400391 -57.625Q518.4380035400391 -70.625 518.4380035400391 -82.125Q518.4380035400391 -93.625 518.4380035400391 -93.625Q521.4380035400391 -93.625 536.4380035400391 -93.625Q551.4380035400391 -93.625 564.9380035400391 -93.625Q578.4380035400391 -93.625 578.4380035400391 -93.625Q578.4380035400391 -93.625 578.4380035400391 -79.625Q578.4380035400391 -65.625 578.4380035400391 -57.625Z" fill="#fff8e1" stroke="none" transform="scale(1,-1) translate(0,-256)" /><path d="M757 41Q762 18 778.5 0.0Q795 -18 818 -26Q825 -28 831.5 -28.0Q838 -28 842 -23Q845 -19 843.5 -13.0Q842 -7 840 -2Q830 19 829.0 33.0Q828 47 831 64Z" fill="#fff8e1" stroke="none" transform="scale(1,-1) translate(0,-256)" /><path d="M516.0469970703125 40.99699401855469Q511.0469970703125 17.996994018554688 494.5469970703125 -0.0030059814453125Q478.0469970703125 -18.003005981445312 455.0469970703125 -26.003005981445312Q448.0469970703125 -28.003005981445312 441.5469970703125 -28.003005981445312Q435.0469970703125 -28.003005981445312 431.0469970703125 -23.003005981445312Q428.0469970703125 -19.003005981445312 429.5469970703125 -13.003005981445312Q431.0469970703125 -7.0030059814453125 433.0469970703125 -2.0030059814453125Q443.0469970703125 18.996994018554688 444.0469970703125 32.99699401855469Q445.0469970703125 46.99699401855469 442.0469970703125 63.99699401855469Z" fill="#fff8e1" stroke="none" transform="scale(1,-1) translate(0,-256)" /></svg>