<?xml version="1.0" encoding="utf-8" ?>
<svg baseProfile="full" height="256" version="1.1" width="256" xmlns="http://www.w3.org/2000/svg" xmlns:ev="http://www.w3.org/2001/xml-events" xmlns:xlink="http://www.w3.org/1999/xlink"><defs /><path d="M779 194Q787 177 782.5 163.5Q778 150 765 142Q755 135 743.5 135.5Q732 136 723 140Q715 145 709.5 141.0Q704 137 697 132Q680 119 664.5 113.5Q649 108 636 108Q624 108 608.5 114.0Q593 120 576 132Q569 137 563.5 141.0Q558 145 550 140Q541 136 529.5 135.5Q518 135 507 142Q495 150 490.5 163.5Q486 177 494 194Q501 207 519.0 212.5Q537 218 555 203Q559 200 567.0 202.5Q575 205 580 213Q588 224 595.5 244.0Q603 264 612.5 280.0Q622 296 636 296Q651 296 660.5 280.0Q670 264 677.5 244.0Q685 224 693 213Q698 205 705.5 201.5Q713 198 718 203Q736 218 754.0 212.5Q772 207 779 194Z" fill="#ff8a66" stroke="none" transform="scale(1,-1) translate(0,-256)" /><path d="M865 215Q880 229 909.0 240.0Q938 251 962 246Q983 241 991.0 227.0Q999 213 995.5 196.5Q992 180 979 169Q970 161 957.5 155.0Q945 149 931 146Q917 142 901.0 141.0Q885 140 871 144Q851 150 847.5 172.0Q844 194 865 215Z" fill="#ff8a66" stroke="none" transform="scale(1,-1) translate(0,-256)" /><path d="M407.93699645996094 215.0Q392.93699645996094 229.0 363.93699645996094 240.0Q334.93699645996094 251.0 310.93699645996094 246.0Q289.93699645996094 241.0 281.93699645996094 227.0Q273.93699645996094 213.0 277.43699645996094 196.5Q280.93699645996094 180.0 293.93699645996094 169.0Q302.93699645996094 161.0 315.43699645996094 155.0Q327.93699645996094 149.0 341.93699645996094 146.0Q355.93699645996094 142.0 371.93699645996094 141.0Q387.93699645996094 140.0 401.93699645996094 144.0Q421.93699645996094 150.0 425.43699645996094 172.0Q428.93699645996094 194.0 407.93699645996094 215.0Z" fill="#ff8a66" stroke="none" transform="scale(1,-1) translate(0,-256)" /></svg>