<?xml version="1.0" encoding="utf-8" ?>
<svg baseProfile="full" height="256" version="1.1" width="256" xmlns="http://www.w3.org/2000/svg" xmlns:ev="http://www.w3.org/2001/xml-events" xmlns:xlink="http://www.w3.org/1999/xlink"><defs /><path d="M121 99Q160 8 207 -77Q221 -102 240.5 -111.0Q260 -120 283.5 -122.5Q307 -125 331 -128Q373 -135 415.0 -141.5Q457 -148 499 -154Q533 -159 579.0 -167.5Q625 -176 671.0 -184.5Q717 -193 753.0 -196.5Q789 -200 805 -196Q817 -193 843.0 -184.0Q869 -175 901.5 -163.0Q934 -151 965.5 -139.0Q997 -127 1020.5 -118.0Q1044 -109 1051 -105Q1060 -100 1074.0 -82.5Q1088 -65 1102.5 -42.0Q1117 -19 1127.5 1.5Q1138 22 1139 32Q1140 44 1141.0 65.5Q1142 87 1143.0 110.0Q1144 133 1144.0 151.5Q1144 170 1143 175Q1140 188 1135.5 200.0Q1131 212 1126 224Q1094 305 1096 393Q1096 411 1097.0 426.0Q1098 441 1089 457Q1087 460 1075.5 478.5Q1064 497 1047.5 522.5Q1031 548 1015.0 574.0Q999 600 988 617Q948 681 913.5 737.5Q879 794 834 858Q821 876 800.5 878.5Q780 881 740 872L629 845Q607 840 592 824L429 655L264 553Q230 532 213 497L155 383Q136 343 118.0 303.0Q100 263 94.5 221.0Q89 179 107 134Q110 126 113.5 117.0Q117 108 121 99Z" fill="#000000" stroke="none" transform="scale(1,-1) translate(0,-256)" /><path d="M331 -128Q307 -124 283.5 -122.0Q260 -120 240.5 -111.0Q221 -102 207 -77Q159 9 121 99Q115 115 107 134Q89 179 94.5 221.0Q100 263 118.0 303.0Q136 343 155 383L173 418Q168 378 163.5 338.5Q159 299 156 283Q155 276 154.5 269.5Q154 263 155 256Q157 249 160.5 243.0Q164 237 168 231Q202 181 238.0 139.0Q274 97 319 56Q325 51 331.5 45.5Q338 40 346 38Q350 37 370.0 40.0Q390 43 418.0 48.0Q446 53 474.0 59.0Q502 65 521 69Q515 47 512.0 23.5Q509 0 503 -23Q501 -30 499.5 -37.0Q498 -44 500 -51Q501 -57 505.0 -62.5Q509 -68 513 -73Q533 -96 559.5 -122.5Q586 -149 606 -173Q576 -167 548.5 -162.0Q521 -157 499 -154Q457 -147 415.0 -141.0Q373 -135 331 -128Z" fill="#000000" stroke="none" transform="scale(1,-1) translate(0,-256)" /><path d="M835 857Q880 793 914.0 737.0Q948 681 988 617Q1001 596 1021.5 563.5Q1042 531 1059 504Q1063 488 1056.5 470.5Q1050 453 1033 458Q1015 464 999.0 465.5Q983 467 980 467Q970 467 955.5 449.0Q941 431 925.0 407.5Q909 384 894.0 366.0Q879 348 868 348Q858 348 841.5 365.0Q825 382 804.5 409.0Q784 436 763.5 465.0Q743 494 726.0 518.0Q709 542 700 552Q694 559 694 568L685 741Q684 753 692 761L777 846Q795 862 810.5 864.5Q826 867 835 857Z" fill="#000000" stroke="none" transform="scale(1,-1) translate(0,-256)" /><path d="M440 515Q421 513 393.5 509.5Q366 506 338.5 500.5Q311 495 292.5 485.5Q274 476 275 460Q275 438 281.0 409.0Q287 380 295.5 349.5Q304 319 310 294Q314 278 321.5 269.0Q329 260 341 249Q386 204 431.0 159.0Q476 114 521 69L643 273Q651 288 658.0 320.5Q665 353 671.5 391.0Q678 429 682.5 460.0Q687 491 689 503Q692 519 692.5 545.0Q693 571 692.0 597.5Q691 624 690.0 641.5Q689 659 689 659Q678 642 663.0 618.0Q648 594 631.0 573.5Q614 553 595 545Q587 542 567.0 538.0Q547 534 521.5 529.5Q496 525 473.5 521.0Q451 517 440 515Z" fill="#000000" stroke="none" transform="scale(1,-1) translate(0,-256)" /><path d="M667 756Q637 743 596.5 725.5Q556 708 517.5 692.0Q479 676 454.0 665.5Q429 655 429 655L592 824Q607 839 629 845L701 862Q696 858 686.0 848.0Q676 838 667.0 827.0Q658 816 656 808Q653 795 655.5 780.5Q658 766 667 756Z" fill="#000000" stroke="none" transform="scale(1,-1) translate(0,-256)" /><path d="M1126 224Q1128 217 1131.0 210.5Q1134 204 1136 197Q1136 189 1134 184Q1130 177 1124.0 173.5Q1118 170 1112 167Q994 113 897 26Q892 22 886.5 18.0Q881 14 875 12Q868 9 860 13Q847 19 835.5 36.0Q824 53 817 62Q802 79 786.0 95.5Q770 112 752 127Q744 133 723.5 145.0Q703 157 683.0 169.5Q663 182 657 191Q653 197 662.5 200.0Q672 203 688.5 204.5Q705 206 722.0 206.5Q739 207 751 208Q782 211 803.5 222.5Q825 234 846 240Q862 244 885.5 247.5Q909 251 927 253Q970 259 997.5 275.0Q1025 291 1047.5 311.0Q1070 331 1097 349Q1102 284 1126 224Z" fill="#000000" stroke="none" transform="scale(1,-1) translate(0,-256)" /><path d="M1143 175Q1144 170 1144.0 151.5Q1144 133 1143.0 110.0Q1142 87 1141.0 65.5Q1140 44 1138 32Q1137 22 1127.0 1.5Q1117 -19 1102.5 -41.5Q1088 -64 1074.0 -82.0Q1060 -100 1051 -104Q1044 -108 1020.5 -117.5Q997 -127 965.5 -139.0Q934 -151 901.5 -163.0Q869 -175 842.5 -184.0Q816 -193 804 -196Q801 -197 795 -198Q800 -193 820.0 -163.5Q840 -134 856 -63Q862 -34 867.5 -18.0Q873 -2 886.0 13.0Q899 28 929 54Q974 94 1015.0 117.5Q1056 141 1085.0 154.5Q1114 168 1125 176Q1135 183 1137 193Q1141 184 1143 175Z" fill="#000000" stroke="none" transform="scale(1,-1) translate(0,-256)" /></svg>