<?xml version="1.0" encoding="utf-8" ?>
<svg baseProfile="full" height="256" version="1.1" width="256" xmlns="http://www.w3.org/2000/svg" xmlns:ev="http://www.w3.org/2001/xml-events" xmlns:xlink="http://www.w3.org/1999/xlink"><defs /><path d="M586 71 637 93Q637 93 651.0 90.5Q665 88 679.0 82.5Q693 77 693 69Q693 60 691.0 42.5Q689 25 682.0 10.0Q675 -5 662 -4Q653 -4 647.0 1.5Q641 7 641 7Q641 7 636.5 1.5Q632 -4 620 -4Q607 -3 600.0 8.5Q593 20 590.0 34.5Q587 49 586.5 60.0Q586 71 586 71Z" fill="#ffffff" stroke="none" transform="scale(1,-1) translate(0,-256)" /></svg>