<?xml version="1.0" encoding="utf-8" ?>
<svg baseProfile="full" height="256" version="1.1" width="256" xmlns="http://www.w3.org/2000/svg" xmlns:ev="http://www.w3.org/2001/xml-events" xmlns:xlink="http://www.w3.org/1999/xlink"><defs /><path d="M640 696Q560 696 514.5 705.0Q469 714 450.5 723.0Q432 732 432 732Q445 745 443.0 758.5Q441 772 441 772Q441 772 440.0 772.5Q439 773 438 774L443 813L465 826H638H843L858 792Q851 782 842.5 777.0Q834 772 834 772Q834 772 832.0 758.5Q830 745 843 732Q846 729 851 726Q824 717 771.5 706.5Q719 696 640 696Z" fill="#b24938" stroke="none" transform="scale(1,-1) translate(0,-256)" /></svg>