<?xml version="1.0" encoding="utf-8" ?>
<svg baseProfile="full" height="256" version="1.1" width="256" xmlns="http://www.w3.org/2000/svg" xmlns:ev="http://www.w3.org/2001/xml-events" xmlns:xlink="http://www.w3.org/1999/xlink"><defs /><path d="M864 847V809Q864 801 861.5 791.5Q859 782 849 778Q836 772 824.5 768.5Q813 765 806 763Q736 745 638 745Q540 745 469 763Q462 765 450.0 768.0Q438 771 426 778Q416 783 413.5 792.0Q411 801 411 809V847Q411 831 441.5 818.0Q472 805 523.5 797.0Q575 789 638 789Q700 789 751.5 797.0Q803 805 833.5 818.0Q864 831 864 847Z" fill="#e5912c" stroke="none" transform="scale(1,-1) translate(0,-256)" /></svg>