<?xml version="1.0" encoding="utf-8" ?>
<svg baseProfile="full" height="256" version="1.1" width="256" xmlns="http://www.w3.org/2000/svg" xmlns:ev="http://www.w3.org/2001/xml-events" xmlns:xlink="http://www.w3.org/1999/xlink"><defs /><path d="M360 325Q358 316 360.5 303.5Q363 291 380 286Q396 281 408.0 289.0Q420 297 423 311Q426 325 421.0 342.0Q416 359 407 362Q393 367 378.0 352.5Q363 338 360 325Z" fill="#fae9ae" stroke="none" transform="scale(1,-1) translate(0,-256)" /><path d="M73 420Q78 430 95.5 424.0Q113 418 125 414Q136 410 152.0 402.0Q168 394 168 394Q168 394 168.0 383.0Q168 372 168 365Q168 360 170.0 349.5Q172 339 174.0 330.5Q176 322 176 322Q176 322 170.0 324.0Q164 326 158 330Q151 334 132.0 347.0Q113 360 102 369Q91 378 79.5 393.0Q68 408 73 420Z" fill="#fae9ae" stroke="none" transform="scale(1,-1) translate(0,-256)" /></svg>