<?xml version="1.0" encoding="utf-8" ?>
<svg baseProfile="full" height="256" version="1.1" width="256" xmlns="http://www.w3.org/2000/svg" xmlns:ev="http://www.w3.org/2001/xml-events" xmlns:xlink="http://www.w3.org/1999/xlink"><defs /><path d="M1096 320Q1096 320 1087.0 319.5Q1078 319 1072 316Q1053 306 1049 292Q1049 288 1044.5 265.5Q1040 243 1035.0 215.0Q1030 187 1026.0 166.0Q1022 145 1022 145L948 205Q948 205 947.5 194.0Q947 183 944 171Q940 160 932.5 150.0Q925 140 925 140L1061 108Z" fill="#636866" stroke="none" transform="scale(1,-1) translate(0,-256)" /><path d="M1094 33Q1094 33 1099.5 17.0Q1105 1 1113.0 -20.5Q1121 -42 1126.5 -58.0Q1132 -74 1132 -74Q1132 -74 1144.0 -71.5Q1156 -69 1164 -48Q1167 -40 1169.0 -20.5Q1171 -1 1172.5 15.0Q1174 31 1174 31Z" fill="#636866" stroke="none" transform="scale(1,-1) translate(0,-256)" /><path d="M58 -112Q59 -111 73.5 -111.5Q88 -112 103.5 -112.0Q119 -112 123 -112Q127 -112 128.5 -122.5Q130 -133 130.5 -146.5Q131 -160 130.5 -170.0Q130 -180 130 -180Q130 -180 119.0 -180.0Q108 -180 93.5 -180.0Q79 -180 67.5 -179.5Q56 -179 56 -179Q55 -178 55.0 -162.0Q55 -146 55.5 -129.5Q56 -113 58 -112Z" fill="#636866" stroke="none" transform="scale(1,-1) translate(0,-256)" /><path d="M473 -120 490 -54Q490 -54 498.0 -62.0Q506 -70 511 -82Q516 -94 518.0 -105.5Q520 -117 520 -117H868L912 -175Q912 -175 883.0 -175.5Q854 -176 807.5 -176.0Q761 -176 708.5 -176.0Q656 -176 608.5 -176.0Q561 -176 529.5 -176.0Q498 -176 495 -175Q485 -175 483.5 -171.0Q482 -167 484 -164Q485 -162 492.0 -151.5Q499 -141 505.5 -130.5Q512 -120 512 -120Z" fill="#636866" stroke="none" transform="scale(1,-1) translate(0,-256)" /></svg>