<?xml version="1.0" encoding="utf-8" ?>
<svg baseProfile="full" height="256" version="1.1" width="256" xmlns="http://www.w3.org/2000/svg" xmlns:ev="http://www.w3.org/2001/xml-events" xmlns:xlink="http://www.w3.org/1999/xlink"><defs /><path d="M343 12Q375 12 397.5 -10.5Q420 -33 420 -64Q420 -96 397.5 -118.0Q375 -140 343 -140Q311 -140 288.0 -118.0Q265 -96 265 -64Q265 -33 288.0 -10.5Q311 12 343 12ZM342 -107Q360 -107 373.0 -94.5Q386 -82 386 -64Q386 -46 373.0 -33.5Q360 -21 342 -21Q324 -21 311.5 -33.5Q299 -46 299 -64Q299 -82 311.5 -94.5Q324 -107 342 -107Z" fill="#858583" stroke="none" transform="scale(1,-1) translate(0,-256)" /><path d="M994.375 11.625Q1026.375 11.625 1048.875 -10.875Q1071.375 -33.375 1071.375 -64.375Q1071.375 -96.375 1048.875 -118.375Q1026.375 -140.375 994.375 -140.375Q962.375 -140.375 939.375 -118.375Q916.375 -96.375 916.375 -64.375Q916.375 -33.375 939.375 -10.875Q962.375 11.625 994.375 11.625ZM993.375 -107.375Q1011.375 -107.375 1024.375 -94.875Q1037.375 -82.375 1037.375 -64.375Q1037.375 -46.375 1024.375 -33.875Q1011.375 -21.375 993.375 -21.375Q975.375 -21.375 962.875 -33.875Q950.375 -46.375 950.375 -64.375Q950.375 -82.375 962.875 -94.875Q975.375 -107.375 993.375 -107.375Z" fill="#858583" stroke="none" transform="scale(1,-1) translate(0,-256)" /></svg>