<?xml version="1.0" encoding="utf-8" ?>
<svg baseProfile="full" height="256" version="1.1" width="256" xmlns="http://www.w3.org/2000/svg" xmlns:ev="http://www.w3.org/2001/xml-events" xmlns:xlink="http://www.w3.org/1999/xlink"><defs /><path d="M344 57Q379 57 407.0 40.5Q435 24 452.0 -4.0Q469 -32 469 -66Q469 -100 452.0 -128.0Q435 -156 407.0 -172.5Q379 -189 344 -189Q310 -189 281.5 -172.5Q253 -156 236.5 -128.0Q220 -100 220 -66Q220 -32 236.5 -4.0Q253 24 281.5 40.5Q310 57 344 57ZM343 -172Q387 -172 417.5 -141.0Q448 -110 448 -66Q448 -23 417.5 8.0Q387 39 343 39Q300 39 269.5 8.0Q239 -23 239 -66Q239 -110 269.5 -141.0Q300 -172 343 -172Z" fill="#f8a128" stroke="none" transform="scale(1,-1) translate(0,-256)" /><path d="M995.375 56.625Q1030.375 56.625 1058.375 40.125Q1086.375 23.625 1103.375 -4.375Q1120.375 -32.375 1120.375 -66.375Q1120.375 -100.375 1103.375 -128.375Q1086.375 -156.375 1058.375 -172.875Q1030.375 -189.375 995.375 -189.375Q961.375 -189.375 932.875 -172.875Q904.375 -156.375 887.875 -128.375Q871.375 -100.375 871.375 -66.375Q871.375 -32.375 887.875 -4.375Q904.375 23.625 932.875 40.125Q961.375 56.625 995.375 56.625ZM994.375 -172.375Q1038.375 -172.375 1068.875 -141.375Q1099.375 -110.375 1099.375 -66.375Q1099.375 -23.375 1068.875 7.625Q1038.375 38.625 994.375 38.625Q951.375 38.625 920.875 7.625Q890.375 -23.375 890.375 -66.375Q890.375 -110.375 920.875 -141.375Q951.375 -172.375 994.375 -172.375Z" fill="#f8a128" stroke="none" transform="scale(1,-1) translate(0,-256)" /></svg>