<?xml version="1.0" encoding="utf-8" ?>
<svg baseProfile="full" height="256" version="1.1" width="256" xmlns="http://www.w3.org/2000/svg" xmlns:ev="http://www.w3.org/2001/xml-events" xmlns:xlink="http://www.w3.org/1999/xlink"><defs /><path d="M803 243H846V264Q846 264 855.0 265.0Q864 266 869 268Q878 272 876.0 284.5Q874 297 870 299Q867 300 855.5 304.0Q844 308 824 312Q812 314 800.0 315.0Q788 316 777 316Q756 317 753 298Q752 289 756.0 281.0Q760 273 765 271Q773 268 788.0 266.5Q803 265 803 265Z" fill="#b50d22" stroke="none" transform="scale(1,-1) translate(0,-256)" /><path d="M1018 0Q1018 0 1021.0 18.5Q1024 37 1036.0 66.0Q1048 95 1075 126Q1102 158 1131.0 171.5Q1160 185 1180.0 187.5Q1200 190 1200 190L1174 32Z" fill="#b50d22" stroke="none" transform="scale(1,-1) translate(0,-256)" /><path d="M549 88Q549 103 559.0 112.0Q569 121 569 121L648 105Q648 105 648.0 91.5Q648 78 648 69Q648 61 639.0 56.5Q630 52 605 53Q583 53 566.0 65.0Q549 77 549 88Z" fill="#b50d22" stroke="none" transform="scale(1,-1) translate(0,-256)" /><path d="M206 -113Q207 -113 194.5 -112.5Q182 -112 165.0 -111.5Q148 -111 135.0 -111.0Q122 -111 122 -112Q122 -112 121.5 -123.0Q121 -134 121.0 -148.5Q121 -163 121.5 -174.5Q122 -186 123 -187Q124 -187 135.5 -187.5Q147 -188 162.5 -188.0Q178 -188 190.5 -187.5Q203 -187 205 -186Q206 -185 206.5 -174.0Q207 -163 207.0 -149.0Q207 -135 206.5 -124.0Q206 -113 206 -113Z" fill="#b50d22" stroke="none" transform="scale(1,-1) translate(0,-256)" /></svg>