<?xml version="1.0" encoding="utf-8" ?>
<svg baseProfile="full" height="256" version="1.1" width="256" xmlns="http://www.w3.org/2000/svg" xmlns:ev="http://www.w3.org/2001/xml-events" xmlns:xlink="http://www.w3.org/1999/xlink"><defs /><path d="M1038 849Q1054 849 1065.0 838.0Q1076 827 1076 811V-174Q1076 -189 1065.0 -200.0Q1054 -211 1038 -211H346Q331 -211 320.0 -200.0Q309 -189 309 -174V-120H337V-174Q337 -183 346 -183H1038Q1048 -183 1048 -174V811Q1048 821 1038 821H974V849Z" fill="#6fbff0" stroke="none" transform="scale(1,-1) translate(0,-256)" /><path d="M936 884H207Q197 884 197 875V-82Q197 -92 207 -92H936Q946 -92 946 -82V875Q946 884 936 884ZM936 913Q952 913 963.0 902.0Q974 891 974 875V-82Q974 -98 963.0 -109.0Q952 -120 936 -120H207Q191 -120 180.0 -109.0Q169 -98 169 -82V875Q169 891 180.0 902.0Q191 913 207 913Z" fill="#6fbff0" stroke="none" transform="scale(1,-1) translate(0,-256)" /></svg>