<?xml version="1.0" encoding="utf-8" ?>
<svg baseProfile="full" height="256" version="1.1" width="256" xmlns="http://www.w3.org/2000/svg" xmlns:ev="http://www.w3.org/2001/xml-events" xmlns:xlink="http://www.w3.org/1999/xlink"><defs /><path d="M292 682Q274 682 274 664Q274 646 292 646H827Q845 646 845 664Q845 682 827 682Z" fill="#b0bec5" stroke="none" transform="scale(1,-1) translate(0,-256)" /><path d="M292.0 552.906005859375Q274.0 552.906005859375 274.0 534.906005859375Q274.0 516.906005859375 292.0 516.906005859375H827.0Q845.0 516.906005859375 845.0 534.906005859375Q845.0 552.906005859375 827.0 552.906005859375Z" fill="#b0bec5" stroke="none" transform="scale(1,-1) translate(0,-256)" /><path d="M292.0 423.718994140625Q274.0 423.718994140625 274.0 405.718994140625Q274.0 387.718994140625 292.0 387.718994140625H827.0Q845.0 387.718994140625 845.0 405.718994140625Q845.0 423.718994140625 827.0 423.718994140625Z" fill="#b0bec5" stroke="none" transform="scale(1,-1) translate(0,-256)" /><path d="M292.0 294.531005859375Q274.0 294.531005859375 274.0 276.531005859375Q274.0 258.531005859375 292.0 258.531005859375H827.0Q845.0 258.531005859375 845.0 276.531005859375Q845.0 294.531005859375 827.0 294.531005859375Z" fill="#b0bec5" stroke="none" transform="scale(1,-1) translate(0,-256)" /><path d="M292 166Q274 166 274 148Q274 130 292 130H521Q539 130 539 148Q539 166 521 166Z" fill="#b0bec5" stroke="none" transform="scale(1,-1) translate(0,-256)" /></svg>