<?xml version="1.0" encoding="utf-8" ?>
<svg baseProfile="full" height="256" version="1.1" width="256" xmlns="http://www.w3.org/2000/svg" xmlns:ev="http://www.w3.org/2001/xml-events" xmlns:xlink="http://www.w3.org/1999/xlink"><defs /><path d="M1120 735Q1126 731 1126 724Q1126 724 1126.0 710.5Q1126 697 1126.0 680.0Q1126 663 1126.0 649.5Q1126 636 1126 636Q1126 626 1117 624Q1107 621 1087.5 618.0Q1068 615 1042 615H928Q921 615 916 620L877 656Q871 662 871 671Q870 675 872 679Q872 680 872.0 681.0Q872 682 873 682Q873 683 873.5 684.0Q874 685 875 686Q874 679 877 673Q879 668 882.5 664.5Q886 661 889 658Q898 650 906.0 642.0Q914 634 922 627Q925 624 928 624H1042Q1068 624 1087.0 627.0Q1106 630 1115 633Q1117 633 1117 636Q1117 647 1117.0 658.0Q1117 669 1117 679Q1117 694 1117.0 708.0Q1117 722 1117 736Q1119 736 1120 735Z" fill="#c62828" stroke="none" transform="scale(1,-1) translate(0,-256)" /></svg>