<?xml version="1.0" encoding="utf-8" ?>
<svg baseProfile="full" height="256" version="1.1" width="256" xmlns="http://www.w3.org/2000/svg" xmlns:ev="http://www.w3.org/2001/xml-events" xmlns:xlink="http://www.w3.org/1999/xlink"><defs /><path d="M1038 -211Q1054 -211 1065.0 -200.0Q1076 -189 1076 -174V811Q1076 827 1065.0 838.0Q1054 849 1038 849H346Q331 849 320.0 838.0Q309 827 309 811V-174Q309 -189 320.0 -200.0Q331 -211 346 -211Z" fill="#ffffff" stroke="none" transform="scale(1,-1) translate(0,-256)" /><path d="M936 -120Q952 -120 963.0 -109.0Q974 -98 974 -82V875Q974 891 963.0 902.0Q952 913 936 913H207Q191 913 180.0 902.0Q169 891 169 875V-82Q169 -98 180.0 -109.0Q191 -120 207 -120Z" fill="#ffffff" stroke="none" transform="scale(1,-1) translate(0,-256)" /></svg>