<?xml version="1.0" encoding="utf-8" ?>
<svg baseProfile="full" height="256" version="1.1" width="256" xmlns="http://www.w3.org/2000/svg" xmlns:ev="http://www.w3.org/2001/xml-events" xmlns:xlink="http://www.w3.org/1999/xlink"><defs /><path d="M627 -97Q624 -69 649.0 -50.5Q674 -32 717.0 -15.5Q760 1 812.5 21.0Q865 41 918.5 70.5Q972 100 1016 147Q1066 198 1093.0 246.0Q1120 294 1132.0 332.5Q1144 371 1148.5 393.5Q1153 416 1158 416Q1164 416 1165.0 389.0Q1166 362 1157.5 317.5Q1149 273 1126 221Q1109 181 1085.5 140.0Q1062 99 1024.5 58.0Q987 17 926 -23Q900 -40 863.5 -59.0Q827 -78 786.5 -94.0Q746 -110 710.5 -118.5Q675 -127 652.0 -122.5Q629 -118 627 -97Z" fill="#cf701e" stroke="none" transform="scale(1,-1) translate(0,-256)" /><path d="M765 794Q783 791 778.5 756.5Q774 722 756.0 668.0Q738 614 714 553Q694 500 671.5 450.5Q649 401 629.5 363.0Q610 325 596.5 303.0Q583 281 580 283Q576 286 580.5 310.0Q585 334 596.0 373.5Q607 413 622.5 461.5Q638 510 655 560Q678 628 692.0 683.0Q706 738 721.5 768.5Q737 799 765 794Z" fill="#cf701e" stroke="none" transform="scale(1,-1) translate(0,-256)" /></svg>