<?xml version="1.0" encoding="utf-8" ?>
<svg baseProfile="full" height="256" version="1.1" width="256" xmlns="http://www.w3.org/2000/svg" xmlns:ev="http://www.w3.org/2001/xml-events" xmlns:xlink="http://www.w3.org/1999/xlink"><defs /><path d="M200 57Q177 67 152.0 102.5Q127 138 107.0 193.5Q87 249 78 320Q71 372 80.0 419.5Q89 467 105.5 505.0Q122 543 139.5 568.5Q157 594 166 603Q178 615 217.5 636.5Q257 658 309.0 684.5Q361 711 411 737Q441 752 478.0 778.5Q515 805 557.0 833.5Q599 862 642.0 886.0Q685 910 727.0 921.5Q769 933 807 925Q840 917 868.5 895.0Q897 873 919.0 844.0Q941 815 956.5 788.0Q972 761 980.0 743.0Q988 725 988 725Q988 725 1011.5 709.5Q1035 694 1068.5 663.5Q1102 633 1134.0 587.0Q1166 541 1183 481Q1195 440 1194.0 386.5Q1193 333 1179.0 273.0Q1165 213 1138.0 154.5Q1111 96 1069.5 46.0Q1028 -4 972 -38Q880 -95 807.5 -121.5Q735 -148 686.5 -151.5Q638 -155 617 -143Q584 -124 568.5 -76.0Q553 -28 546 43Q543 79 547.5 121.0Q552 163 560.0 200.5Q568 238 574.5 262.0Q581 286 581 286Q581 286 562.0 260.0Q543 234 482 187Q470 179 443.0 161.0Q416 143 381.0 122.5Q346 102 310.5 85.0Q275 68 245.0 59.0Q215 50 200 57Z" fill="#f7c876" stroke="none" transform="scale(1,-1) translate(0,-256)" /></svg>