<?xml version="1.0" encoding="utf-8" ?>
<svg baseProfile="full" height="256" version="1.1" width="256" xmlns="http://www.w3.org/2000/svg" xmlns:ev="http://www.w3.org/2001/xml-events" xmlns:xlink="http://www.w3.org/1999/xlink"><defs /><path d="M795 -34Q795 -34 815.5 -66.5Q836 -99 871 -148Q906 -196 920.5 -211.0Q935 -226 941 -228Q945 -229 948.0 -218.5Q951 -208 954.0 -195.0Q957 -182 960 -176Q963 -170 977.0 -158.0Q991 -146 1008.0 -133.0Q1025 -120 1037 -112Q1046 -106 1069.0 -90.0Q1092 -74 1117.5 -56.5Q1143 -39 1161.5 -26.0Q1180 -13 1180 -13L1018 91Q1018 91 1001.5 80.5Q985 70 961.5 55.5Q938 41 917 29Q903 21 882.5 10.5Q862 0 842.0 -10.0Q822 -20 808.5 -27.0Q795 -34 795 -34Z" fill="#e0e0e0" stroke="none" transform="scale(1,-1) translate(0,-256)" /></svg>