<?xml version="1.0" encoding="utf-8" ?>
<svg baseProfile="full" height="256" version="1.1" width="256" xmlns="http://www.w3.org/2000/svg" xmlns:ev="http://www.w3.org/2001/xml-events" xmlns:xlink="http://www.w3.org/1999/xlink"><defs /><path d="M410 337Q410 317 396 305Q381 293 357 293Q332 293 318 307Q306 319 304 340Q304 347 297 347H277Q269 347 269 339Q271 308 289 288Q309 266 344 263V236Q344 227 353 227H363Q372 227 372 236V263Q406 267 425 286Q444 306 444 337Q444 357 437 372Q429 387 413 398Q397 410 368 419Q340 428 327 440Q314 451 314 470Q314 491 326 503Q338 514 361 514Q382 514 395 499Q405 485 407 464Q408 456 415 456H434Q442 456 442 464Q440 497 424 517Q407 539 375 544V576Q375 585 366 585H356Q347 585 347 576V544Q316 540 298 520Q280 501 280 470Q280 439 298 420Q316 400 356 388Q385 378 397 366Q410 355 410 337Z" fill="#ffffff" stroke="none" transform="scale(1,-1) translate(0,-256)" /><path d="M372 255V264L375 544L347 552V543L344 263Z" fill="#ffffff" stroke="none" transform="scale(1,-1) translate(0,-256)" /></svg>