<?xml version="1.0" encoding="utf-8" ?>
<svg baseProfile="full" height="256" version="1.1" width="256" xmlns="http://www.w3.org/2000/svg" xmlns:ev="http://www.w3.org/2001/xml-events" xmlns:xlink="http://www.w3.org/1999/xlink"><defs /><path d="M308 37 394 483 313 524 280 591 562 794 651 780 734 799 973 681 1031 570 989 516 906 -35Q906 -35 903.5 -51.5Q901 -68 897.5 -85.0Q894 -102 893 -106Q891 -113 879.5 -114.0Q868 -115 868 -115Q868 -115 868.0 -83.5Q868 -52 868.0 -0.5Q868 51 868.0 113.0Q868 175 869 236Q869 300 869.5 354.5Q870 409 870.0 443.5Q870 478 869 481Q867 486 844.0 495.5Q821 505 788.5 516.5Q756 528 724.0 538.5Q692 549 670.5 556.0Q649 563 649 563Q649 563 630.0 556.5Q611 550 582.5 540.5Q554 531 525.5 520.0Q497 509 477.0 500.0Q457 491 456 487Q455 484 454.5 455.5Q454 427 454.0 380.0Q454 333 453.5 274.5Q453 216 452 152Q452 108 451.0 60.5Q450 13 449.5 -28.5Q449 -70 448.5 -96.0Q448 -122 448 -122L405 -108Z" fill="#af0f1b" stroke="none" transform="scale(1,-1) translate(0,-256)" /></svg>