<?xml version="1.0" encoding="utf-8" ?>
<svg baseProfile="full" height="256" version="1.1" width="256" xmlns="http://www.w3.org/2000/svg" xmlns:ev="http://www.w3.org/2001/xml-events" xmlns:xlink="http://www.w3.org/1999/xlink"><defs /><path d="M893 487 1015 542Q1015 542 1014.5 510.5Q1014 479 1013.5 427.0Q1013 375 1012.5 313.5Q1012 252 1011.5 189.5Q1011 127 1010.5 74.5Q1010 22 1009.5 -10.5Q1009 -43 1009 -45Q1007 -51 991.0 -59.0Q975 -67 950 -79Q925 -91 908.0 -100.0Q891 -109 891 -109Q891 -109 891.0 -77.0Q891 -45 890.5 7.0Q890 59 890.0 122.0Q890 185 890.0 248.0Q890 311 890.5 364.5Q891 418 891.5 451.5Q892 485 893 487Z" fill="#dc0d28" stroke="none" transform="scale(1,-1) translate(0,-256)" /></svg>