<?xml version="1.0" encoding="utf-8" ?>
<svg baseProfile="full" height="256" version="1.1" width="256" xmlns="http://www.w3.org/2000/svg" xmlns:ev="http://www.w3.org/2001/xml-events" xmlns:xlink="http://www.w3.org/1999/xlink"><defs /><path d="M487 346Q487 346 508.0 346.0Q529 346 557.5 345.5Q586 345 608.5 345.0Q631 345 634 345Q646 345 646 337Q646 334 646.0 312.0Q646 290 646.0 261.5Q646 233 646.0 210.5Q646 188 646 186Q646 175 636 175Q634 175 612.0 175.0Q590 175 561.0 175.0Q532 175 509.5 175.0Q487 175 484 175Q479 175 477.5 178.5Q476 182 476 186Q476 188 476.0 209.0Q476 230 476.0 257.0Q476 284 476.0 306.0Q476 328 476 332Q476 346 487 346Z" fill="#6ba5af" stroke="none" transform="scale(1,-1) translate(0,-256)" /><path d="M724 342Q725 342 746.5 342.0Q768 342 796.0 342.5Q824 343 846.0 343.0Q868 343 871 343Q883 343 883 334Q883 332 883.0 310.0Q883 288 883.0 260.0Q883 232 883.0 209.5Q883 187 883 184Q883 171 875 171Q873 171 850.5 171.0Q828 171 799.0 171.0Q770 171 747.5 171.0Q725 171 723 171Q714 171 714 182Q714 183 714.0 205.5Q714 228 714.0 256.5Q714 285 714.0 307.0Q714 329 714 332Q714 343 724 342Z" fill="#6ba5af" stroke="none" transform="scale(1,-1) translate(0,-256)" /><path d="M959 343Q962 343 984.0 343.0Q1006 343 1034.0 343.0Q1062 343 1084.0 343.0Q1106 343 1109 343Q1119 343 1119 335Q1119 333 1119.0 310.5Q1119 288 1119.0 259.0Q1119 230 1119.0 207.5Q1119 185 1119 182Q1119 171 1110 171Q1108 171 1085.0 171.0Q1062 171 1032.5 171.0Q1003 171 980.5 171.0Q958 171 957 171Q950 171 950 181Q950 183 950.0 205.0Q950 227 950.0 255.0Q950 283 950.0 305.5Q950 328 950 331Q950 343 959 343Z" fill="#6ba5af" stroke="none" transform="scale(1,-1) translate(0,-256)" /><path d="M474.05335998535156 61.50709533691406V-92.33369445800781H614.2575531005859V61.50709533691406Z" fill="#6ba5af" stroke="none" transform="scale(1,-1) translate(0,-256)" /><path d="M637.5505218505859 60.93785095214844V-93.36567687988281H780.8481292724609V60.93785095214844Z" fill="#6ba5af" stroke="none" transform="scale(1,-1) translate(0,-256)" /><path d="M804.5121917724609 61.21916198730469V-93.08436584472656H946.5887145996094V61.21916198730469Z" fill="#6ba5af" stroke="none" transform="scale(1,-1) translate(0,-256)" /><path d="M973.5519714355469 61.37493896484375V-184.629150390625H1110.0988311767578V61.37493896484375Z" fill="#6ba5af" stroke="none" transform="scale(1,-1) translate(0,-256)" /></svg>