<?xml version="1.0" encoding="utf-8" ?>
<svg baseProfile="full" height="256" version="1.1" width="256" xmlns="http://www.w3.org/2000/svg" xmlns:ev="http://www.w3.org/2001/xml-events" xmlns:xlink="http://www.w3.org/1999/xlink"><defs /><path d="M740 710Q740 725 754.0 734.5Q768 744 795 745Q823 745 837.5 736.5Q852 728 853 716Q854 704 843.0 689.5Q832 675 801 674Q773 673 756.5 683.5Q740 694 740 710Z" fill="#ff8b0d" stroke="none" transform="scale(1,-1) translate(0,-256)" /><path d="M327 398Q354 407 376.0 401.0Q398 395 400 386Q402 373 390.5 360.0Q379 347 356 339Q325 328 307.5 331.5Q290 335 282 344Q274 353 285.5 370.0Q297 387 327 398Z" fill="#ff8b0d" stroke="none" transform="scale(1,-1) translate(0,-256)" /><path d="M193 213Q201 223 214.0 225.5Q227 228 238.0 222.0Q249 216 250 202Q252 179 235.5 167.5Q219 156 207 160Q194 164 187.0 180.0Q180 196 193 213Z" fill="#ff8b0d" stroke="none" transform="scale(1,-1) translate(0,-256)" /><path d="M397 93Q421 113 444.0 114.0Q467 115 472 103Q478 89 476.0 64.5Q474 40 455 26Q438 13 421.0 12.0Q404 11 391.0 15.0Q378 19 373 23Q362 30 365.5 50.0Q369 70 397 93Z" fill="#ff8b0d" stroke="none" transform="scale(1,-1) translate(0,-256)" /><path d="M626 260Q645 279 674.5 291.0Q704 303 731.5 302.5Q759 302 774 283Q793 260 789.0 223.5Q785 187 756 151Q728 117 687.0 108.5Q646 100 613 113Q588 122 583.0 148.0Q578 174 589.5 204.5Q601 235 626 260Z" fill="#ff8b0d" stroke="none" transform="scale(1,-1) translate(0,-256)" /><path d="M855 533Q884 543 910.5 543.0Q937 543 953.0 535.0Q969 527 969 514Q968 489 945.5 466.5Q923 444 891 433Q862 423 835.5 422.5Q809 422 784 440Q767 452 772.5 469.5Q778 487 800.0 504.5Q822 522 855 533Z" fill="#ff8b0d" stroke="none" transform="scale(1,-1) translate(0,-256)" /><path d="M1031 230Q1055 249 1078.0 254.5Q1101 260 1117.5 254.0Q1134 248 1136 233Q1140 212 1133.5 188.5Q1127 165 1095 143Q1065 122 1035.5 124.5Q1006 127 992 140Q978 152 988.0 177.5Q998 203 1031 230Z" fill="#ff8b0d" stroke="none" transform="scale(1,-1) translate(0,-256)" /></svg>