<?xml version="1.0" encoding="utf-8" ?>
<svg baseProfile="full" height="256" version="1.1" width="256" xmlns="http://www.w3.org/2000/svg" xmlns:ev="http://www.w3.org/2001/xml-events" xmlns:xlink="http://www.w3.org/1999/xlink"><defs /><path d="M1156 863Q1186 827 1192.5 778.5Q1199 730 1191.0 677.5Q1183 625 1168.5 575.5Q1154 526 1140.0 487.0Q1126 448 1123 428Q1116 395 1118.5 353.5Q1121 312 1123.0 271.0Q1125 230 1119 197Q1114 173 1100.5 156.5Q1087 140 1070.5 127.0Q1054 114 1038.5 99.5Q1023 85 1015 64Q1005 36 997.5 5.0Q990 -26 971.5 -55.5Q953 -85 910 -110Q893 -120 872.5 -120.0Q852 -120 834.5 -117.5Q817 -115 809 -118Q803 -119 788.0 -133.0Q773 -147 751.5 -164.0Q730 -181 704.0 -194.5Q678 -208 651 -211Q629 -213 616.5 -207.5Q604 -202 594.0 -194.0Q584 -186 569.0 -179.0Q554 -172 526 -170Q489 -169 453.5 -172.5Q418 -176 381.5 -172.0Q345 -168 306 -142Q275 -122 256.0 -94.0Q237 -66 225.0 -36.0Q213 -6 204.5 21.0Q196 48 187 65Q177 83 159.5 96.0Q142 109 123.5 124.0Q105 139 91.0 162.5Q77 186 74 226Q70 274 84.5 308.5Q99 343 121.0 366.0Q143 389 164.0 403.5Q185 418 194 426Q205 438 210.0 453.0Q215 468 220.5 482.5Q226 497 239 509Q259 526 286.5 538.5Q314 551 333 562Q351 572 368.0 597.5Q385 623 414 646Q432 661 465.5 681.5Q499 702 539.0 723.5Q579 745 616.0 764.0Q653 783 679 796Q696 804 731.5 819.5Q767 835 812.5 852.5Q858 870 908.5 883.5Q959 897 1007.0 902.0Q1055 907 1094.0 898.5Q1133 890 1156 863Z" fill="#87716b" stroke="none" transform="scale(1,-1) translate(0,-256)" /></svg>