<?xml version="1.0" encoding="utf-8" ?>
<svg baseProfile="full" height="256" version="1.1" width="256" xmlns="http://www.w3.org/2000/svg" xmlns:ev="http://www.w3.org/2001/xml-events" xmlns:xlink="http://www.w3.org/1999/xlink"><defs /><path d="M292 465 527 545 934 382Q934 382 940.5 357.5Q947 333 955.5 295.0Q964 257 971.0 216.0Q978 175 979.5 141.5Q981 108 973 94Q965 81 963.5 61.0Q962 41 959.0 17.5Q956 -6 945.5 -28.0Q935 -50 910 -68Q887 -84 870.5 -82.0Q854 -80 835.5 -73.5Q817 -67 788 -70Q767 -72 754.5 -87.5Q742 -103 730.0 -122.0Q718 -141 701.0 -156.0Q684 -171 655 -172Q631 -173 618.0 -162.5Q605 -152 596.5 -135.5Q588 -119 579.5 -102.0Q571 -85 557.0 -73.5Q543 -62 517 -61Q497 -61 485.0 -70.0Q473 -79 464.5 -92.5Q456 -106 445.5 -118.0Q435 -130 418.5 -135.0Q402 -140 373 -132Q337 -122 315.0 -97.0Q293 -72 279.5 -40.0Q266 -8 256.0 23.0Q246 54 236 76Q225 98 206.5 114.0Q188 130 168.0 146.5Q148 163 132.5 183.5Q117 204 113 234Q106 275 122.0 304.5Q138 334 161.0 355.5Q184 377 199 393Q214 409 236.0 425.5Q258 442 275.0 453.5Q292 465 292 465Z" fill="#9ea5a6" stroke="none" transform="scale(1,-1) translate(0,-256)" /></svg>