<?xml version="1.0" encoding="utf-8" ?>
<svg baseProfile="full" height="256" version="1.1" width="256" xmlns="http://www.w3.org/2000/svg" xmlns:ev="http://www.w3.org/2001/xml-events" xmlns:xlink="http://www.w3.org/1999/xlink"><defs /><path d="M392 786Q392 803 419.5 817.5Q447 832 492.5 840.5Q538 849 594 849Q650 849 696.0 840.5Q742 832 769.0 817.5Q796 803 796 786Q796 769 769.0 754.5Q742 740 696.0 731.5Q650 723 594 723Q538 723 492.5 731.5Q447 740 419.5 754.5Q392 769 392 786ZM426 786Q426 773 448.0 762.0Q470 751 506.0 745.0Q542 739 586 739Q630 739 666.5 745.0Q703 751 724.5 762.0Q746 773 746 786Q746 799 724.5 809.5Q703 820 666.5 826.5Q630 833 586 833Q542 833 506.0 826.5Q470 820 448.0 809.5Q426 799 426 786Z" fill="#b5772c" stroke="none" transform="scale(1,-1) translate(0,-256)" /></svg>