<?xml version="1.0" encoding="utf-8" ?>
<svg baseProfile="full" height="256" version="1.1" width="256" xmlns="http://www.w3.org/2000/svg" xmlns:ev="http://www.w3.org/2001/xml-events" xmlns:xlink="http://www.w3.org/1999/xlink"><defs /><path d="M872 125Q887 125 898.0 136.0Q909 147 909 163Q909 178 898.0 189.0Q887 200 872 200H403Q388 200 377.0 189.0Q366 178 366 163Q366 147 377.0 136.0Q388 125 403 125Z" fill="#422b0d" stroke="none" transform="scale(1,-1) translate(0,-256)" /><path d="M456.281005859375 519.125Q485.281005859375 519.125 508.281005859375 495.625Q531.281005859375 472.125 531.281005859375 431.125Q531.281005859375 390.125 508.281005859375 366.625Q485.281005859375 343.125 456.281005859375 343.125Q427.281005859375 343.125 404.281005859375 366.625Q381.281005859375 390.125 381.281005859375 431.125Q381.281005859375 472.125 404.281005859375 495.625Q427.281005859375 519.125 456.281005859375 519.125Z" fill="#422b0d" stroke="none" transform="scale(1,-1) translate(0,-256)" /><path d="M816 519Q845 519 868.0 495.5Q891 472 891 431Q891 390 868.0 366.5Q845 343 816 343Q786 343 763.5 366.5Q741 390 741 431Q741 472 763.5 495.5Q786 519 816 519Z" fill="#422b0d" stroke="none" transform="scale(1,-1) translate(0,-256)" /></svg>