<?xml version="1.0" encoding="utf-8" ?>
<svg baseProfile="full" height="256" version="1.1" width="256" xmlns="http://www.w3.org/2000/svg" xmlns:ev="http://www.w3.org/2001/xml-events" xmlns:xlink="http://www.w3.org/1999/xlink"><defs /><path d="M587 352Q581 357 571.0 360.0Q561 363 556 349Q552 339 562.0 334.5Q572 330 578 326Q593 315 603.5 300.0Q614 285 625 272Q627 269 629 268Q633 267 638 271Q659 286 670 310Q672 315 673.5 320.5Q675 326 673 331Q673 333 672 335Q669 337 665.5 335.0Q662 333 659 331Q650 322 638.5 319.0Q627 316 612 327Q605 332 599.5 339.0Q594 346 587 352Z" fill="#f9c248" stroke="none" transform="scale(1,-1) translate(0,-256)" /><path d="M534 49Q511 -22 471.0 -83.5Q431 -145 382 -199Q375 -192 368.0 -185.0Q361 -178 354 -172Q345 -163 334.5 -153.0Q324 -143 331 -130Q334 -125 338.0 -121.0Q342 -117 346 -113Q372 -91 396.5 -68.0Q421 -45 443 -18Q456 -2 467.5 16.0Q479 34 489 53Q497 70 499.5 81.5Q502 93 512 105Q518 113 538.5 132.0Q559 151 578.0 182.0Q597 213 601 257Q601 260 601.0 271.0Q601 282 603 285Q610 294 615.5 285.5Q621 277 625.0 264.0Q629 251 629 247Q632 213 618.5 183.0Q605 153 583.5 126.5Q562 100 543 76Q538 69 536.5 61.5Q535 54 534 49Z" fill="#f9c248" stroke="none" transform="scale(1,-1) translate(0,-256)" /></svg>