<?xml version="1.0" encoding="utf-8" ?>
<svg baseProfile="full" height="256" version="1.1" width="256" xmlns="http://www.w3.org/2000/svg" xmlns:ev="http://www.w3.org/2001/xml-events" xmlns:xlink="http://www.w3.org/1999/xlink"><defs /><path d="M844 111Q844 111 846.0 90.5Q848 70 864 47Q876 30 892.0 20.5Q908 11 920.0 7.5Q932 4 932 4Q932 4 925.5 23.0Q919 42 903 69Q890 89 876.5 97.5Q863 106 853.5 108.5Q844 111 844 111Z" fill="#80deea" stroke="none" transform="scale(1,-1) translate(0,-256)" /><path d="M377 587 443 626Q443 626 436.5 633.0Q430 640 414 650Q400 659 386.5 661.5Q373 664 373 664Q370 636 373.5 611.5Q377 587 377 587Z" fill="#80deea" stroke="none" transform="scale(1,-1) translate(0,-256)" /></svg>