<?xml version="1.0" encoding="utf-8" ?>
<svg baseProfile="full" height="256" version="1.1" width="256" xmlns="http://www.w3.org/2000/svg" xmlns:ev="http://www.w3.org/2001/xml-events" xmlns:xlink="http://www.w3.org/1999/xlink"><defs /><path d="M578 779Q548 791 511.5 786.5Q475 782 453 757Q450 753 446.0 744.5Q442 736 445.0 727.0Q448 718 465 714Q487 709 501.5 713.0Q516 717 531.0 717.0Q546 717 571 699Q594 682 606.5 681.5Q619 681 625 685Q634 691 635.0 703.5Q636 716 633 726Q626 745 611.0 758.5Q596 772 578 779Z" fill="#ffffff" stroke="none" transform="scale(1,-1) translate(0,-256)" /><path d="M280 568Q271 574 272.0 588.5Q273 603 283 617Q293 630 305.5 634.5Q318 639 326 631Q332 625 326.5 617.5Q321 610 318 608Q305 595 303.0 584.5Q301 574 294 570Q286 565 280 568Z" fill="#ffffff" stroke="none" transform="scale(1,-1) translate(0,-256)" /><path d="M438 531Q438 548 420.5 552.0Q403 556 389 544Q376 533 370.0 513.0Q364 493 369 478Q372 469 379 467Q390 462 397.5 470.5Q405 479 408 483Q414 491 419.5 499.0Q425 507 430 515Q433 519 435.0 523.0Q437 527 438 531Z" fill="#ffffff" stroke="none" transform="scale(1,-1) translate(0,-256)" /><path d="M987 430Q974 437 958.5 428.5Q943 420 935.0 404.5Q927 389 936 376Q940 370 946 370Q953 370 958 376Q960 378 962.0 381.0Q964 384 966 387Q971 395 980 401Q984 404 989.0 407.5Q994 411 995 416Q997 426 987 430Z" fill="#ffffff" stroke="none" transform="scale(1,-1) translate(0,-256)" /><path d="M703 713Q717 722 730.0 722.5Q743 723 754 718Q770 711 771.0 696.0Q772 681 739 676Q726 674 716.5 667.0Q707 660 699.0 656.0Q691 652 683 658Q678 663 679 674Q679 686 686.0 695.5Q693 705 703 713Z" fill="#ffffff" stroke="none" transform="scale(1,-1) translate(0,-256)" /><path d="M991 224Q973 231 954.5 226.0Q936 221 922 209Q912 200 902.0 184.0Q892 168 901 154Q909 141 927 144Q935 146 941.5 149.5Q948 153 954 158Q960 162 967.5 171.0Q975 180 998 187Q1005 188 1008.0 201.5Q1011 215 991 224Z" fill="#ffffff" stroke="none" transform="scale(1,-1) translate(0,-256)" /><path d="M834 93Q824 93 809.5 87.5Q795 82 789 73Q784 64 790.5 56.0Q797 48 807 49Q812 49 816.5 50.5Q821 52 826 53Q838 56 851 55Q855 55 865.0 54.0Q875 53 878 64Q879 68 871.5 80.5Q864 93 834 93Z" fill="#ffffff" stroke="none" transform="scale(1,-1) translate(0,-256)" /></svg>