<?xml version="1.0" encoding="utf-8" ?>
<svg baseProfile="full" height="256" version="1.1" width="256" xmlns="http://www.w3.org/2000/svg" xmlns:ev="http://www.w3.org/2001/xml-events" xmlns:xlink="http://www.w3.org/1999/xlink"><defs /><path d="M149 441Q116 409 96.0 365.5Q76 322 75 288Q74 255 85.0 215.0Q96 175 117.5 137.0Q139 99 169 74Q199 49 236.0 23.5Q273 -2 308.5 -24.5Q344 -47 370.5 -63.0Q397 -79 407 -85Q470 -122 536.5 -114.0Q603 -106 678 -64Q759 -19 850.0 40.5Q941 100 1030 159Q1050 172 1079.0 194.5Q1108 217 1127 233Q1160 263 1181.0 309.5Q1202 356 1200 416Q1199 451 1177.5 494.0Q1156 537 1131 566Q1121 579 1079.0 585.5Q1037 592 973.0 593.0Q909 594 830.5 590.0Q752 586 668.0 577.0Q584 568 502.5 554.5Q421 541 349.5 524.0Q278 507 226.0 486.0Q174 465 149 441Z" fill="#f47fac" stroke="none" transform="scale(1,-1) translate(0,-256)" /><path d="M182 468Q163 455 145.0 436.5Q127 418 119.0 395.0Q111 372 120.0 346.5Q129 321 164 295Q196 273 233.0 247.5Q270 222 305.0 199.0Q340 176 366.0 159.0Q392 142 402 137Q465 99 531.5 107.0Q598 115 673 158Q753 202 844.5 261.5Q936 321 1025 380Q1045 394 1075.5 415.0Q1106 436 1122 455Q1152 492 1147.0 525.5Q1142 559 1115.5 588.0Q1089 617 1056 643Q1022 670 984.5 693.0Q947 716 920.5 729.5Q894 743 894 743Q819 780 772.5 779.5Q726 779 691 763Q675 756 632.5 733.0Q590 710 532.5 677.5Q475 645 411.5 608.0Q348 571 288.0 534.5Q228 498 182 468Z" fill="#f47fac" stroke="none" transform="scale(1,-1) translate(0,-256)" /></svg>