<?xml version="1.0" encoding="utf-8" ?>
<svg baseProfile="full" height="256" version="1.1" width="256" xmlns="http://www.w3.org/2000/svg" xmlns:ev="http://www.w3.org/2001/xml-events" xmlns:xlink="http://www.w3.org/1999/xlink"><defs /><path d="M537 815Q492 815 455.0 793.0Q418 771 396.0 733.5Q374 696 372 650Q371 610 377.5 584.5Q384 559 390.5 547.0Q397 535 397 535Q420 509 460.5 497.5Q501 486 537 486Q583 486 625.0 511.0Q667 536 694.0 576.5Q721 617 721 662Q721 708 694.0 742.5Q667 777 625.0 796.0Q583 815 537 815Z" fill="#000000" stroke="none" transform="scale(1,-1) translate(0,-256)" /><path d="M469.4209289550781 554.7778472900391Q469.4209289550781 577.6080474853516 460.85960388183594 597.58447265625Q452.29827880859375 617.5608978271484 437.11619567871094 632.7429809570312Q421.9341125488281 647.9250640869141 401.9576873779297 656.4863891601562Q381.98126220703125 665.0477142333984 358.9227600097656 665.0477142333984Q336.0925598144531 665.0477142333984 316.1161346435547 656.4863891601562Q296.13970947265625 647.9250640869141 280.95762634277344 632.7429809570312Q265.7755432128906 617.5608978271484 257.21421813964844 597.58447265625Q248.65289306640625 577.6080474853516 248.65289306640625 554.7778472900391Q248.65289306640625 531.7193450927734 257.21421813964844 511.742919921875Q265.7755432128906 491.76649475097656 280.95762634277344 476.58441162109375Q296.13970947265625 461.40232849121094 316.1161346435547 452.84100341796875Q336.0925598144531 444.27967834472656 358.9227600097656 444.27967834472656Q381.98126220703125 444.27967834472656 401.9576873779297 452.84100341796875Q421.9341125488281 461.40232849121094 437.11619567871094 476.58441162109375Q452.29827880859375 491.76649475097656 460.85960388183594 511.742919921875Q469.4209289550781 531.7193450927734 469.4209289550781 554.7778472900391Z" fill="#000000" stroke="none" transform="scale(1,-1) translate(0,-256)" /><path d="M753 57Q742 23 752.0 -3.5Q762 -30 794 -41Q826 -52 851.5 -46.5Q877 -41 895.0 -29.0Q913 -17 922.5 -6.5Q932 4 932 4Q932 4 927.0 19.5Q922 35 911.0 55.5Q900 76 883.5 92.0Q867 108 843 111Q843 111 832.5 111.5Q822 112 807.0 108.5Q792 105 777.0 93.5Q762 82 753 57Z" fill="#000000" stroke="none" transform="scale(1,-1) translate(0,-256)" /><path d="M844 111Q844 111 845.0 97.5Q846 84 853.5 65.5Q861 47 879.0 29.5Q897 12 932 5Q958 -2 991.5 4.0Q1025 10 1053.5 29.5Q1082 49 1094 85Q1107 128 1098.5 164.5Q1090 201 1068.5 224.5Q1047 248 1024 251Q957 258 907.0 221.0Q857 184 844 111Z" fill="#000000" stroke="none" transform="scale(1,-1) translate(0,-256)" /><path d="M1062.77978515625 377.61830139160156Q1062.77978515625 393.3485870361328 1056.8809280395508 407.11258697509766Q1050.9820709228516 420.8765869140625 1040.5214309692383 431.3372268676758Q1030.060791015625 441.79786682128906 1016.2967910766602 447.6967239379883Q1002.5327911376953 453.5955810546875 986.6452026367188 453.5955810546875Q970.9149169921875 453.5955810546875 957.1509170532227 447.6967239379883Q943.3869171142578 441.79786682128906 932.9262771606445 431.3372268676758Q922.4656372070312 420.8765869140625 916.566780090332 407.11258697509766Q910.6679229736328 393.3485870361328 910.6679229736328 377.61830139160156Q910.6679229736328 361.730712890625 916.566780090332 347.96671295166016Q922.4656372070312 334.2027130126953 932.9262771606445 323.74207305908203Q943.3869171142578 313.28143310546875 957.1509170532227 307.38257598876953Q970.9149169921875 301.4837188720703 986.6452026367188 301.4837188720703Q1002.5327911376953 301.4837188720703 1016.2967910766602 307.38257598876953Q1030.060791015625 313.28143310546875 1040.5214309692383 323.74207305908203Q1050.9820709228516 334.2027130126953 1056.8809280395508 347.96671295166016Q1062.77978515625 361.730712890625 1062.77978515625 377.61830139160156Z" fill="#000000" stroke="none" transform="scale(1,-1) translate(0,-256)" /><path d="M685 565Q685 565 703.0 562.0Q721 559 750.0 564.0Q779 569 810 593Q841 615 845.5 647.5Q850 680 825 708Q809 725 787.5 732.5Q766 740 745.0 741.5Q724 743 710.5 741.5Q697 740 697 740Q697 740 689.0 732.0Q681 724 672.5 707.5Q664 691 663 665Q660 630 665.5 607.5Q671 585 678.0 575.0Q685 565 685 565Z" fill="#000000" stroke="none" transform="scale(1,-1) translate(0,-256)" /><path d="M272.28350830078125 620.3905639648438Q270.19952392578125 622.0000915527344 257.03260040283203 630.8056335449219Q243.8656768798828 639.6111755371094 222.52566528320312 645.5728302001953Q201.18565368652344 651.5344848632812 174.81241607666016 645.2139587402344Q148.43917846679688 638.8934326171875 120.75454711914062 608.8444519042969Q99.70008850097656 587.3117065429688 95.46571350097656 565.6459503173828Q91.23133850097656 543.9801940917969 96.67206573486328 525.5567779541016Q102.11279296875 507.13336181640625 112.60063171386719 493.96812438964844Q123.08847045898438 480.8028869628906 132.7504425048828 476.0680236816406Q149.9904022216797 468.20782470703125 176.13362884521484 473.92674255371094Q202.27685546875 479.6456604003906 227.62123107910156 494.74815368652344Q252.96560668945312 509.85064697265625 266.74000549316406 529.9927368164062Q284.03248596191406 554.0413513183594 284.5589141845703 580.1293792724609Q285.08534240722656 606.2174072265625 272.28350830078125 620.3905639648438Z" fill="#000000" stroke="none" transform="scale(1,-1) translate(0,-256)" /><path d="M630 432Q653 456 654.5 477.0Q656 498 650.0 511.0Q644 524 644 524Q632 542 611.5 548.5Q591 555 569.5 554.5Q548 554 533.5 551.0Q519 548 519 548Q519 548 514.0 536.5Q509 525 505.0 506.5Q501 488 503.5 465.5Q506 443 520 421Q520 421 531.0 416.5Q542 412 559.0 409.0Q576 406 595.0 410.0Q614 414 630 432Z" fill="#000000" stroke="none" transform="scale(1,-1) translate(0,-256)" /></svg>