<?xml version="1.0" encoding="utf-8" ?>
<svg baseProfile="full" height="256" version="1.1" width="256" xmlns="http://www.w3.org/2000/svg" xmlns:ev="http://www.w3.org/2001/xml-events" xmlns:xlink="http://www.w3.org/1999/xlink"><defs /><path d="M1037 240Q1025 220 1006.5 205.0Q988 190 984 177Q981 170 981.5 161.5Q982 153 988 147Q994 142 1003.0 142.0Q1012 142 1020 144Q1027 146 1030 143Q1032 140 1032 135Q1030 117 1015 107Q1000 97 983 102Q985 94 990.0 77.0Q995 60 990 34Q983 4 965.5 -23.0Q948 -50 919 -59Q903 -64 888.5 -64.0Q874 -64 870 -62Q865 -88 848.5 -110.0Q832 -132 809 -145Q784 -158 758.5 -157.0Q733 -156 712 -149Q699 -144 684.5 -153.0Q670 -162 657.5 -173.0Q645 -184 638 -185Q629 -185 617.0 -173.5Q605 -162 591.0 -152.5Q577 -143 563 -149Q542 -156 516.5 -157.0Q491 -158 466 -145Q443 -132 426.5 -110.0Q410 -88 405 -62Q401 -64 386.5 -64.0Q372 -64 357 -59Q327 -50 310.0 -23.0Q293 4 286 34Q280 60 285.0 77.0Q290 94 293 102Q275 97 260 107Q246 117 244 135Q243 141 246 143Q248 146 255 144Q264 142 272.5 142.0Q281 142 287 147Q293 153 294.0 161.5Q295 170 292 177Q287 190 269.0 205.0Q251 220 238 240Q227 257 222.5 275.5Q218 294 218 314Q218 347 233.5 367.5Q249 388 268 399Q259 409 252 420Q233 455 233.5 496.5Q234 538 254 572Q260 583 268.0 591.0Q276 599 284 608Q277 611 271.0 616.5Q265 622 262 630Q256 646 265 661Q267 664 268 664Q269 664 271 662Q275 658 279.0 654.0Q283 650 288 647Q306 634 330 636Q346 636 357.5 645.5Q369 655 369 655Q369 655 361.5 668.0Q354 681 346.5 699.5Q339 718 338 735Q336 763 344.0 779.5Q352 796 361 804Q373 815 388.0 818.5Q403 822 413 820Q428 817 434.0 811.0Q440 805 440 805Q464 850 502 868Q515 874 530.0 875.5Q545 877 559 874Q573 891 593.5 901.5Q614 912 638 912Q661 912 681.5 901.5Q702 891 717 874Q730 876 745.0 875.0Q760 874 773 868Q811 850 835 805Q835 805 841.0 811.0Q847 817 862 820Q872 822 887.0 818.5Q902 815 914 804Q923 796 931.0 779.5Q939 763 937 735Q936 718 928.5 699.5Q921 681 913.5 668.0Q906 655 906 655Q906 655 918.0 645.5Q930 636 945 635Q969 634 987 647Q992 650 996.0 654.0Q1000 658 1004 662Q1006 664 1007 664Q1008 664 1010 661Q1019 646 1013 630Q1008 616 991 608Q999 599 1007.0 591.0Q1015 583 1021 572Q1041 538 1041.5 496.5Q1042 455 1023 420Q1016 408 1008 399Q1026 388 1041.5 367.5Q1057 347 1057 314Q1057 294 1052.5 275.5Q1048 257 1037 240ZM570 849Q563 834 563 817Q563 786 585.0 764.0Q607 742 637 742Q668 742 690.0 764.0Q712 786 712 817Q712 834 705 849Q704 848 704 848Q697 843 689.5 825.0Q682 807 679 789L638 790L596 789Q592 807 585.0 825.0Q578 843 571 848Q571 848 570.5 848.5Q570 849 570 849ZM638 892Q618 892 601.5 882.0Q585 872 575 857Q578 857 581 857Q595 857 606 849Q609 847 610 847Q614 847 618.5 858.0Q623 869 624 871Q626 876 628.0 880.0Q630 884 632 888Q633 892 638 892Q642 892 643 888Q645 884 647.0 880.0Q649 876 651 871Q653 868 657.0 857.5Q661 847 665 847Q666 847 669 849Q681 857 694 857Q697 858 700 857Q690 872 673.5 882.0Q657 892 638 892ZM974 215Q991 231 1005.5 247.0Q1020 263 1021 299Q1021 325 1009.0 337.0Q997 349 983.5 352.0Q970 355 968 356L964 398Q991 418 1000.5 439.5Q1010 461 1009.5 480.0Q1009 499 1005.5 511.0Q1002 523 1002 523Q996 507 985.0 491.0Q974 475 959 466L945 488Q957 495 965.5 510.5Q974 526 975 542Q977 570 955 588Q941 597 930.0 599.5Q919 602 901 601L858 658Q860 661 866 667Q876 676 887.5 688.5Q899 701 905 730Q908 742 907.0 756.0Q906 770 900 780Q891 793 879 795Q870 797 864.0 791.5Q858 786 861 777Q864 771 871.0 767.5Q878 764 884 760Q889 756 889 752Q888 749 886 747Q880 742 872.0 741.0Q864 740 857 742Q864 708 862 676L826 678Q826 693 825.5 722.5Q825 752 813.0 784.0Q801 816 769 838Q759 845 749.0 848.0Q739 851 731 851Q739 831 739 810Q739 768 709.5 738.0Q680 708 638 708Q596 708 566.0 738.0Q536 768 536 810Q536 831 545 851Q536 851 526.5 848.0Q517 845 506 838Q474 816 462.5 784.0Q451 752 450.0 722.5Q449 693 450 678L414 676Q412 709 418 742Q411 740 403.0 741.0Q395 742 389 747Q387 749 387 752Q386 756 392 760Q398 764 405.0 767.0Q412 770 414 776Q418 785 411.5 791.0Q405 797 396 795Q384 793 376 780Q369 769 368.0 755.5Q367 742 370 730Q377 701 388.0 688.5Q399 676 409 667Q412 664 414.0 662.0Q416 660 418 658L374 601Q343 602 321 588Q299 570 301 542Q302 526 310.0 510.5Q318 495 330 488L316 466Q302 475 290.5 491.0Q279 507 273 523Q273 523 269.5 511.0Q266 499 265.5 480.0Q265 461 274.5 439.5Q284 418 311 398L308 356Q305 355 292.0 352.0Q279 349 267.0 337.0Q255 325 255 299Q255 263 269.5 247.0Q284 231 301 215Q306 210 313.0 202.0Q320 194 324 190Q332 180 337.0 167.0Q342 154 337 134L365 108Q354 103 339.0 87.0Q324 71 326 30Q327 11 338.0 -7.0Q349 -25 367 -32Q367 -32 364.5 -21.5Q362 -11 367 -1Q377 21 399 20Q413 20 423 12Q438 0 437 -20Q437 -24 436 -28Q429 -80 471 -107Q497 -125 525.5 -115.0Q554 -105 574 -88H701Q721 -105 749.5 -115.0Q778 -125 804 -107Q846 -80 839 -28Q838 -24 838 -20Q837 0 852 12Q863 20 876 20Q898 21 909 -1Q913 -11 911.0 -21.5Q909 -32 909 -32Q927 -25 937.5 -7.0Q948 11 949 30Q951 71 936.0 87.0Q921 103 910 108L938 134Q933 154 938.0 167.0Q943 180 951 190Q955 194 962.0 202.0Q969 210 974 215Z" fill="#d68b52" stroke="none" transform="scale(1,-1) translate(0,-256)" /></svg>