<?xml version="1.0" encoding="utf-8" ?>
<svg baseProfile="full" height="256" version="1.1" width="256" xmlns="http://www.w3.org/2000/svg" xmlns:ev="http://www.w3.org/2001/xml-events" xmlns:xlink="http://www.w3.org/1999/xlink"><defs /><path d="M445 -14Q442 -11 439 -11Q435 -10 432 -14Q425 -20 431 -27Q447 -44 481 -61Q547 -94 638 -94Q730 -94 795 -61Q829 -44 844 -27Q850 -20 843 -13Q836 -7 830 -14Q817 -29 787 -44Q725 -75 638 -75Q552 -75 489 -44Q459 -29 445 -14Z" fill="#ffcb13" stroke="none" transform="scale(1,-1) translate(0,-256)" /><path d="M447 -17Q445 -13 442 -11Q439 -10 435 -12Q426 -15 429 -24Q445 -62 478 -99Q545 -174 638 -174Q732 -174 798 -99Q831 -61 845 -24Q849 -15 840 -12Q836 -10 833 -11Q830 -13 828 -17Q815 -52 784 -86Q723 -155 638 -155Q554 -155 492 -86Q461 -51 447 -17Z" fill="#ffcb13" stroke="none" transform="scale(1,-1) translate(0,-256)" /></svg>