<?xml version="1.0" encoding="utf-8" ?>
<svg baseProfile="full" height="256" version="1.1" width="256" xmlns="http://www.w3.org/2000/svg" xmlns:ev="http://www.w3.org/2001/xml-events" xmlns:xlink="http://www.w3.org/1999/xlink"><defs /><path d="M188 780Q188 780 202.5 763.0Q217 746 238.5 721.0Q260 696 281.5 670.5Q303 645 319.0 626.5Q335 608 337 606Q338 605 369.5 593.0Q401 581 453.5 562.0Q506 543 571.5 520.0Q637 497 706.5 472.5Q776 448 841.0 425.0Q906 402 958.0 383.5Q1010 365 1040.5 354.5Q1071 344 1071 344L1168 436L1079 804L959 847Q959 847 941.0 834.5Q923 822 888.5 808.0Q854 794 804 789Q741 782 686.0 794.5Q631 807 581.5 827.0Q532 847 486.5 864.5Q441 882 396 884Q352 886 313.5 876.0Q275 866 245.5 851.5Q216 837 199.5 825.5Q183 814 183 814Z" fill="#dacec9" stroke="none" transform="scale(1,-1) translate(0,-256)" /></svg>