<?xml version="1.0" encoding="utf-8" ?>
<svg baseProfile="full" height="256" version="1.1" width="256" xmlns="http://www.w3.org/2000/svg" xmlns:ev="http://www.w3.org/2001/xml-events" xmlns:xlink="http://www.w3.org/1999/xlink"><defs /><path d="M165 801Q165 798 170.5 755.5Q176 713 184.5 643.5Q193 574 204.0 487.5Q215 401 226.5 309.0Q238 217 248.5 131.0Q259 45 267.5 -24.5Q276 -94 281.0 -136.0Q286 -178 287 -180Q287 -192 278.0 -203.0Q269 -214 252 -216Q236 -217 223.0 -208.5Q210 -200 209 -190Q209 -188 203.5 -145.5Q198 -103 189.0 -33.0Q180 37 169.0 124.0Q158 211 146.5 303.5Q135 396 123.5 483.0Q112 570 103.5 640.5Q95 711 89.5 753.0Q84 795 83 797Q82 807 82.0 821.0Q82 835 89.5 847.0Q97 859 116 861Q138 863 148.0 850.5Q158 838 161.0 822.5Q164 807 165 801Z" fill="#b0b0b0" stroke="none" transform="scale(1,-1) translate(0,-256)" /></svg>