<?xml version="1.0" encoding="utf-8" ?>
<svg baseProfile="full" height="256" version="1.1" width="256" xmlns="http://www.w3.org/2000/svg" xmlns:ev="http://www.w3.org/2001/xml-events" xmlns:xlink="http://www.w3.org/1999/xlink"><defs /><path d="M302 873Q302 873 329.0 879.5Q356 886 393 885Q415 884 435.0 879.0Q455 874 468.0 870.0Q481 866 481 866Q481 866 482.0 854.5Q483 843 485 821Q487 798 489.5 774.5Q492 751 492 751Q492 751 517.0 748.5Q542 746 573 738Q604 729 627.5 721.0Q651 713 651 713Q651 713 649.0 722.5Q647 732 645.0 744.5Q643 757 642 766Q640 783 635.5 796.5Q631 810 631 810Q631 810 654.5 802.5Q678 795 708 791Q745 787 768.5 787.5Q792 788 792 788Q792 788 795.5 772.5Q799 757 802 741Q805 726 808.5 709.0Q812 692 812 692Q812 692 831.5 693.5Q851 695 883 702Q923 712 938.0 718.0Q953 724 953 725Q954 726 951.0 742.0Q948 758 944.0 778.0Q940 798 937.0 813.5Q934 829 934 829Q934 829 943.0 835.5Q952 842 964.0 850.5Q976 859 982 865Q992 874 1010.0 890.0Q1028 906 1036 913Q1043 921 1050.0 918.0Q1057 915 1059 907Q1060 903 1063.5 887.0Q1067 871 1070.5 851.5Q1074 832 1076.5 817.5Q1079 803 1079 803Q1079 803 1070.5 796.0Q1062 789 1050.0 779.5Q1038 770 1027 763Q997 743 977.5 733.0Q958 723 958 722Q957 721 960.5 705.0Q964 689 968.5 669.0Q973 649 977.0 633.5Q981 618 982 618Q985 617 1005.0 627.5Q1025 638 1043 648Q1066 661 1086.5 674.0Q1107 687 1107 687L1139 556Q1139 556 1118.0 542.5Q1097 529 1076 518Q1063 512 1047.0 505.0Q1031 498 1019.5 493.0Q1008 488 1008 488L1030 371Q1030 371 1054.5 380.0Q1079 389 1103 401Q1116 408 1131.0 416.0Q1146 424 1157.0 430.0Q1168 436 1168 436L1189 343Q1189 343 1171.0 330.0Q1153 317 1122 298Q1097 283 1072.5 271.5Q1048 260 1048 260L1027 368Q1027 368 1004.0 361.0Q981 354 955 350Q929 346 905.0 344.0Q881 342 881 342L896 231Q896 231 871.0 231.5Q846 232 809 237Q772 242 753.0 247.5Q734 253 734 253L714 365Q714 365 688.0 371.0Q662 377 633 383Q601 390 577.5 390.5Q554 391 554 391L570 290Q570 290 545.0 290.0Q520 290 482 284Q464 281 442.5 275.0Q421 269 405.5 263.5Q390 258 390 258L374 367Q374 367 362.0 362.5Q350 358 333.0 350.5Q316 343 302 336Q293 332 279.5 324.5Q266 317 256.0 310.5Q246 304 246 304L229 439Q229 439 246.0 449.5Q263 460 281 470Q294 476 310.0 482.5Q326 489 338.0 493.5Q350 498 350 498L331 620Q331 620 311.5 614.0Q292 608 275 601Q250 589 232.0 577.0Q214 565 214 565L199 685Q199 685 213.5 696.5Q228 708 246 717Q269 729 293.5 737.5Q318 746 318 746Z" fill="#434343" stroke="none" transform="scale(1,-1) translate(0,-256)" /></svg>