<?xml version="1.0" encoding="utf-8" ?>
<svg baseProfile="full" height="256" version="1.1" width="256" xmlns="http://www.w3.org/2000/svg" xmlns:ev="http://www.w3.org/2001/xml-events" xmlns:xlink="http://www.w3.org/1999/xlink"><defs /><path d="M1020.5503234863281 330.77012634277344 1039.1539611816406 328.76231384277344 1067.3809967041016 592.2827301025391 1048.777359008789 594.2905426025391Z" fill="#504f4f" stroke="none" transform="scale(1,-1) translate(0,-256)" /><path d="M634.47509765625 349.99945068359375Q634.47509765625 392.2232666015625 618.6411666870117 429.3511047363281Q602.8072357177734 466.47894287109375 574.5973587036133 494.6888198852539Q546.3874816894531 522.8986968994141 509.2596435546875 538.9146270751953Q472.1318054199219 554.9305572509766 429.9079895019531 554.9305572509766Q387.32017517089844 554.9305572509766 350.1923370361328 538.9146270751953Q313.0644989013672 522.8986968994141 284.85462188720703 494.6888198852539Q256.6447448730469 466.47894287109375 240.8108139038086 429.3511047363281Q224.9768829345703 392.2232666015625 224.9768829345703 349.99945068359375Q224.9768829345703 307.775634765625 240.8108139038086 270.6477966308594Q256.6447448730469 233.51995849609375 284.85462188720703 205.3100814819336Q313.0644989013672 177.10020446777344 350.1923370361328 161.26627349853516Q387.32017517089844 145.43234252929688 429.9079895019531 145.43234252929688Q472.1318054199219 145.43234252929688 509.2596435546875 161.26627349853516Q546.3874816894531 177.10020446777344 574.5973587036133 205.3100814819336Q602.8072357177734 233.51995849609375 618.6411666870117 270.6477966308594Q634.47509765625 307.775634765625 634.47509765625 349.99945068359375Z" fill="#504f4f" stroke="none" transform="scale(1,-1) translate(0,-256)" /><path d="M1040.4698486328125 349.9873962402344Q1040.4698486328125 383.1398620605469 1028.0376739501953 412.2911682128906Q1015.6054992675781 441.4424743652344 993.4562225341797 463.5917510986328Q971.3069458007812 485.74102783203125 942.1556396484375 498.31610107421875Q913.0043334960938 510.89117431640625 879.8518676757812 510.89117431640625Q846.4136047363281 510.89117431640625 817.2622985839844 498.31610107421875Q788.1109924316406 485.74102783203125 765.9617156982422 463.5917510986328Q743.8124389648438 441.4424743652344 731.3802642822266 412.2911682128906Q718.9480895996094 383.1398620605469 718.9480895996094 349.9873962402344Q718.9480895996094 316.8349304199219 731.3802642822266 287.6836242675781Q743.8124389648438 258.5323181152344 765.9617156982422 236.38304138183594Q788.1109924316406 214.2337646484375 817.2622985839844 201.8015899658203Q846.4136047363281 189.36941528320312 879.8518676757812 189.36941528320312Q913.0043334960938 189.36941528320312 942.1556396484375 201.8015899658203Q971.3069458007812 214.2337646484375 993.4562225341797 236.38304138183594Q1015.6054992675781 258.5323181152344 1028.0376739501953 287.6836242675781Q1040.4698486328125 316.8349304199219 1040.4698486328125 349.9873962402344Z" fill="#504f4f" stroke="none" transform="scale(1,-1) translate(0,-256)" /></svg>