<?xml version="1.0" encoding="utf-8" ?>
<svg baseProfile="full" height="256" version="1.1" width="256" xmlns="http://www.w3.org/2000/svg" xmlns:ev="http://www.w3.org/2001/xml-events" xmlns:xlink="http://www.w3.org/1999/xlink"><defs /><path d="M523.5322265625 350.0124969482422Q523.5322265625 369.34996032714844 516.2806777954102 386.3535919189453Q509.0291290283203 403.3572235107422 496.10970306396484 416.27664947509766Q483.1902770996094 429.1960754394531 466.1866455078125 436.5309753417969Q449.1830139160156 443.8658752441406 429.8455505371094 443.8658752441406Q410.3413848876953 443.8658752441406 393.33775329589844 436.5309753417969Q376.33412170410156 429.1960754394531 363.4146957397461 416.27664947509766Q350.4952697753906 403.3572235107422 343.2437210083008 386.3535919189453Q335.99217224121094 369.34996032714844 335.99217224121094 350.0124969482422Q335.99217224121094 330.67503356933594 343.2437210083008 313.67140197753906Q350.4952697753906 296.6677703857422 363.4146957397461 283.7483444213867Q376.33412170410156 270.82891845703125 393.33775329589844 263.5773696899414Q410.3413848876953 256.32582092285156 429.8455505371094 256.32582092285156Q449.1830139160156 256.32582092285156 466.1866455078125 263.5773696899414Q483.1902770996094 270.82891845703125 496.10970306396484 283.7483444213867Q509.0291290283203 296.6677703857422 516.2806777954102 313.67140197753906Q523.5322265625 330.67503356933594 523.5322265625 350.0124969482422Z" fill="#000000" stroke="none" transform="scale(1,-1) translate(0,-256)" /><path d="M973.5322265625 350.0124969482422Q973.5322265625 369.34996032714844 966.2806777954102 386.3535919189453Q959.0291290283203 403.3572235107422 946.1097030639648 416.27664947509766Q933.1902770996094 429.1960754394531 916.1866455078125 436.5309753417969Q899.1830139160156 443.8658752441406 879.8455505371094 443.8658752441406Q860.3413848876953 443.8658752441406 843.3377532958984 436.5309753417969Q826.3341217041016 429.1960754394531 813.4146957397461 416.27664947509766Q800.4952697753906 403.3572235107422 793.2437210083008 386.3535919189453Q785.9921722412109 369.34996032714844 785.9921722412109 350.0124969482422Q785.9921722412109 330.67503356933594 793.2437210083008 313.67140197753906Q800.4952697753906 296.6677703857422 813.4146957397461 283.7483444213867Q826.3341217041016 270.82891845703125 843.3377532958984 263.5773696899414Q860.3413848876953 256.32582092285156 879.8455505371094 256.32582092285156Q899.1830139160156 256.32582092285156 916.1866455078125 263.5773696899414Q933.1902770996094 270.82891845703125 946.1097030639648 283.7483444213867Q959.0291290283203 296.6677703857422 966.2806777954102 313.67140197753906Q973.5322265625 330.67503356933594 973.5322265625 350.0124969482422Z" fill="#000000" stroke="none" transform="scale(1,-1) translate(0,-256)" /><path d="M825 481V425H450V481Q450 489 455.5 494.5Q461 500 469 500H806Q814 500 819.5 494.5Q825 489 825 481Z" fill="#000000" stroke="none" transform="scale(1,-1) translate(0,-256)" /><path d="M450 425H825V219Q825 211 819.5 205.5Q814 200 806 200H469Q461 200 455.5 205.5Q450 211 450 219Z" fill="#000000" stroke="none" transform="scale(1,-1) translate(0,-256)" /></svg>