<?xml version="1.0" encoding="utf-8" ?>
<svg baseProfile="full" height="256" version="1.1" width="256" xmlns="http://www.w3.org/2000/svg" xmlns:ev="http://www.w3.org/2001/xml-events" xmlns:xlink="http://www.w3.org/1999/xlink"><defs /><path d="M806 500H469Q461 500 455.5 494.5Q450 489 450 481V219Q450 211 455.5 205.5Q461 200 469 200H806Q814 200 819.5 205.5Q825 211 825 219V481Q825 489 819.5 494.5Q814 500 806 500ZM806 519Q822 519 833.0 508.0Q844 497 844 481V219Q844 203 833.0 192.0Q822 181 806 181H469Q453 181 442.0 192.0Q431 203 431 219V481Q431 497 442.0 508.0Q453 519 469 519Z" fill="#424242" stroke="none" transform="scale(1,-1) translate(0,-256)" /><path d="M638 688H1164Q1179 688 1189.5 677.0Q1200 666 1200 651V536H1156V611H120L119 536H75V651Q75 666 85.5 677.0Q96 688 111 688Z" fill="#424242" stroke="none" transform="scale(1,-1) translate(0,-256)" /></svg>