<?xml version="1.0" encoding="utf-8" ?>
<svg baseProfile="full" height="256" version="1.1" width="256" xmlns="http://www.w3.org/2000/svg" xmlns:ev="http://www.w3.org/2001/xml-events" xmlns:xlink="http://www.w3.org/1999/xlink"><defs /><path d="M764 655Q764 655 764.5 644.5Q765 634 768 628Q772 618 783.5 610.5Q795 603 800 600Q803 599 815.0 596.0Q827 593 839.0 593.5Q851 594 853 602Q857 615 837.0 621.5Q817 628 799 633Q788 637 776.0 646.0Q764 655 764 655Z" fill="#b38354" stroke="none" transform="scale(1,-1) translate(0,-256)" /><path d="M788 743Q788 743 789.0 735.5Q790 728 795 724Q801 720 814.0 715.0Q827 710 843 708Q857 706 874.0 711.0Q891 716 889 729Q888 738 876.0 740.0Q864 742 850.5 740.5Q837 739 830 739Q820 739 804.0 741.0Q788 743 788 743Z" fill="#b38354" stroke="none" transform="scale(1,-1) translate(0,-256)" /><path d="M794 787Q790 786 787.0 786.5Q784 787 785 792Q786 797 794.5 809.0Q803 821 809 833Q813 841 815.0 853.0Q817 865 821.0 872.5Q825 880 834 876Q841 873 843.0 864.5Q845 856 843 848Q841 841 835.0 828.5Q829 816 820 807Q803 790 794 787Z" fill="#b38354" stroke="none" transform="scale(1,-1) translate(0,-256)" /><path d="M706 918Q692 917 693.0 898.0Q694 879 689 861Q685 842 677.0 831.0Q669 820 671 812Q672 809 677.5 811.5Q683 814 688 818Q692 821 703.0 831.0Q714 841 721 871Q726 894 722.0 907.0Q718 920 706 918Z" fill="#b38354" stroke="none" transform="scale(1,-1) translate(0,-256)" /><path d="M625 783Q618 776 611 776Q609 776 608.0 784.5Q607 793 601.5 804.0Q596 815 580 823Q566 831 546.5 830.5Q527 830 520 826Q518 824 521.0 828.5Q524 833 529 841Q534 848 550.5 856.0Q567 864 595 846Q619 831 624.0 809.0Q629 787 625 783Z" fill="#b38354" stroke="none" transform="scale(1,-1) translate(0,-256)" /></svg>