<?xml version="1.0" encoding="utf-8" ?>
<svg baseProfile="full" height="256" version="1.1" width="256" xmlns="http://www.w3.org/2000/svg" xmlns:ev="http://www.w3.org/2001/xml-events" xmlns:xlink="http://www.w3.org/1999/xlink"><defs /><path d="M322 604 129 90H236L279 213H476L519 90H626L433 604ZM445 302H310L356 431L375 493H381L399 431Z" fill="#fafafa" stroke="none" transform="scale(1,-1) translate(0,-256)" /><path d="M696 604V90H905Q951 90 990 107Q1028 125 1051 158Q1074 190 1074 233Q1074 277 1050 308Q1026 339 986 353V359Q1017 374 1036 403Q1055 431 1055 470Q1055 507 1034 538Q1013 568 977 586Q941 604 897 604ZM890 394V395H793V517H893Q923 517 942 500Q960 482 960 456Q960 430 941 412Q922 394 890 394ZM901 178H793V311H898Q936 311 956 293Q976 274 976 244Q976 215 956 197Q936 178 901 178Z" fill="#fafafa" stroke="none" transform="scale(1,-1) translate(0,-256)" /></svg>