<?xml version="1.0" encoding="utf-8" ?>
<svg baseProfile="full" height="256" version="1.1" width="256" xmlns="http://www.w3.org/2000/svg" xmlns:ev="http://www.w3.org/2001/xml-events" xmlns:xlink="http://www.w3.org/1999/xlink"><defs /><path d="M550 342 728 351Q728 351 731.5 347.0Q735 343 735 340Q736 337 734.5 328.5Q733 320 733 320Q733 320 714.5 320.0Q696 320 668.0 320.0Q640 320 612.0 320.0Q584 320 564.5 320.5Q545 321 544 321Q538 323 538 330Q538 335 538.5 338.0Q539 341 539 341Z" fill="#543529" stroke="none" transform="scale(1,-1) translate(0,-256)" /><path d="M505 289Q505 289 531.5 288.5Q558 288 597.0 287.5Q636 287 675.5 286.5Q715 286 742.0 284.5Q769 283 771 282Q775 278 774.5 270.0Q774 262 770 261Q768 261 748.0 260.5Q728 260 702.0 259.5Q676 259 657.0 259.0Q638 259 638 259Q638 259 619.0 258.5Q600 258 575.0 258.0Q550 258 530.0 258.0Q510 258 507 258Q497 258 498 275Q499 283 502.0 286.0Q505 289 505 289Z" fill="#543529" stroke="none" transform="scale(1,-1) translate(0,-256)" /><path d="M457 208 628 218Q628 218 647.0 217.5Q666 217 694.0 216.0Q722 215 750.5 213.0Q779 211 799.0 209.5Q819 208 820 206Q824 201 822.5 192.5Q821 184 819 183Q818 183 792.0 183.0Q766 183 725.0 182.5Q684 182 638.0 182.0Q592 182 551.0 182.0Q510 182 483.5 183.0Q457 184 456 186Q453 190 455.0 199.0Q457 208 457 208Z" fill="#543529" stroke="none" transform="scale(1,-1) translate(0,-256)" /><path d="M394 114 637 134Q637 134 660.5 133.0Q684 132 718.5 130.5Q753 129 788.0 127.0Q823 125 847.0 123.0Q871 121 872 120Q875 114 873.5 106.0Q872 98 868 96Q865 95 831.0 93.5Q797 92 747.0 91.0Q697 90 647 90Q610 90 570.0 90.0Q530 90 494.5 90.0Q459 90 435.0 90.0Q411 90 407 89Q394 88 392 101Q391 105 392.5 109.5Q394 114 394 114Z" fill="#543529" stroke="none" transform="scale(1,-1) translate(0,-256)" /><path d="M335 27 915 44Q915 44 924.5 30.0Q934 16 936 -2Q936 -9 932.0 -18.5Q928 -28 919 -28Q914 -28 885.0 -28.5Q856 -29 813.5 -29.5Q771 -30 726.5 -30.0Q682 -30 646 -30Q611 -30 563.5 -30.0Q516 -30 470.0 -30.0Q424 -30 391.5 -30.0Q359 -30 352 -30Q339 -30 333.0 -28.5Q327 -27 325 -15Q323 -2 329.0 12.5Q335 27 335 27Z" fill="#543529" stroke="none" transform="scale(1,-1) translate(0,-256)" /><path d="M965 -116H318Q318 -116 304.5 -119.0Q291 -122 273.5 -126.0Q256 -130 242.0 -134.5Q228 -139 227 -141Q224 -147 221.0 -154.5Q218 -162 220 -170Q221 -177 225.5 -182.5Q230 -188 235 -189Q236 -189 264.0 -189.0Q292 -189 334.5 -189.0Q377 -189 425.0 -188.5Q473 -188 515.5 -188.0Q558 -188 584.5 -187.5Q611 -187 611 -187Q611 -187 640.5 -187.0Q670 -187 716.5 -187.0Q763 -187 815.0 -187.0Q867 -187 914.0 -186.5Q961 -186 991.5 -185.5Q1022 -185 1024 -184Q1030 -182 1033.5 -173.0Q1037 -164 1036 -157Q1034 -150 1025.5 -142.0Q1017 -134 1017 -134Z" fill="#543529" stroke="none" transform="scale(1,-1) translate(0,-256)" /></svg>