<?xml version="1.0" encoding="utf-8" ?>
<svg baseProfile="full" height="256" version="1.1" width="256" xmlns="http://www.w3.org/2000/svg" xmlns:ev="http://www.w3.org/2001/xml-events" xmlns:xlink="http://www.w3.org/1999/xlink"><defs /><path d="M527 349Q527 349 518.5 345.0Q510 341 503 328Q495 314 492.5 301.5Q490 289 481 272Q471 255 456.0 245.0Q441 235 421 212Q405 192 397.0 171.5Q389 151 381 138Q371 121 359.5 113.5Q348 106 334.5 96.5Q321 87 305 64Q292 45 288.0 27.0Q284 9 281.0 -8.0Q278 -25 268 -42Q258 -59 245.0 -69.5Q232 -80 218.0 -92.0Q204 -104 192 -124Q181 -144 175.5 -165.0Q170 -186 169.0 -200.5Q168 -215 168 -215L1067 -214Q1067 -214 1068.5 -200.0Q1070 -186 1067.5 -164.0Q1065 -142 1054 -116Q1045 -98 1031.0 -85.0Q1017 -72 1002.0 -58.5Q987 -45 975 -25Q963 -5 959.0 14.0Q955 33 949.5 53.5Q944 74 929 97Q917 115 894.5 134.0Q872 153 855 180Q848 192 843.5 210.5Q839 229 828 245Q817 262 803.5 271.5Q790 281 782 290Q774 299 773.5 304.0Q773 309 769 320Q765 330 753.5 340.5Q742 351 742 351Z" fill="#dad0c5" stroke="none" transform="scale(1,-1) translate(0,-256)" /></svg>