<?xml version="1.0" encoding="utf-8" ?>
<svg baseProfile="full" height="256" version="1.1" width="256" xmlns="http://www.w3.org/2000/svg" xmlns:ev="http://www.w3.org/2001/xml-events" xmlns:xlink="http://www.w3.org/1999/xlink"><defs /><path d="M73 337 96 312 567 282 550 353Q550 353 542.0 365.5Q534 378 515 389Q501 396 481.5 398.5Q462 401 449 406Q435 411 411.0 433.0Q387 455 366 471Q356 479 338.5 498.5Q321 518 299.5 541.5Q278 565 254.5 586.5Q231 608 208 620Q178 637 147.0 642.5Q116 648 94.5 647.5Q73 647 73 647Z" fill="#a7d0d6" stroke="none" transform="scale(1,-1) translate(0,-256)" /><path d="M1202 344 849 307 720 343Q720 343 729.0 352.5Q738 362 755.0 373.0Q772 384 796 390Q813 393 841.0 396.5Q869 400 897.5 403.5Q926 407 941 412Q965 421 1004.5 458.5Q1044 496 1094 544Q1128 575 1152.0 587.0Q1176 599 1189.0 601.0Q1202 603 1202 603Z" fill="#a7d0d6" stroke="none" transform="scale(1,-1) translate(0,-256)" /></svg>