<?xml version="1.0" encoding="utf-8" ?>
<svg baseProfile="full" height="256" version="1.1" width="256" xmlns="http://www.w3.org/2000/svg" xmlns:ev="http://www.w3.org/2001/xml-events" xmlns:xlink="http://www.w3.org/1999/xlink"><defs /><path d="M539 329 733 325Q733 325 734.0 317.0Q735 309 730 307Q729 306 710.0 306.0Q691 306 664.5 306.0Q638 306 611.0 306.0Q584 306 564.5 306.5Q545 307 542 308Q536 309 537.5 319.0Q539 329 539 329Z" fill="#88857c" stroke="none" transform="scale(1,-1) translate(0,-256)" /><path d="M498 268 632 287Q632 287 646.0 285.5Q660 284 681.5 281.0Q703 278 724.0 274.5Q745 271 759.0 268.0Q773 265 773 263Q773 258 765.5 252.0Q758 246 750 246Q747 246 723.0 245.5Q699 245 665.5 245.0Q632 245 598.5 245.0Q565 245 540.5 245.0Q516 245 512 246Q500 247 498.5 253.0Q497 259 497 259Z" fill="#88857c" stroke="none" transform="scale(1,-1) translate(0,-256)" /><path d="M464 193Q464 193 488.0 199.5Q512 206 551.5 213.0Q591 220 635 220Q680 220 722.5 213.5Q765 207 793.0 200.0Q821 193 822 192Q826 186 822.5 176.5Q819 167 811 167Q809 167 783.5 167.0Q758 167 720.0 167.5Q682 168 642 168Q599 168 560.5 167.0Q522 166 496.0 166.0Q470 166 466 167Q457 170 456.5 178.0Q456 186 456 186Z" fill="#88857c" stroke="none" transform="scale(1,-1) translate(0,-256)" /><path d="M394 105 641 145 872 104Q872 104 870.5 93.0Q869 82 863 80Q859 79 828.5 78.0Q798 77 751.5 76.5Q705 76 653 77Q614 77 571.0 76.0Q528 75 489.0 74.0Q450 73 424.0 74.0Q398 75 394 80Q387 89 390.5 97.0Q394 105 394 105Z" fill="#88857c" stroke="none" transform="scale(1,-1) translate(0,-256)" /><path d="M327 -8Q326 -8 345.0 -4.5Q364 -1 390.5 4.0Q417 9 437.0 12.5Q457 16 457 17L906 8Q906 8 920.5 1.5Q935 -5 939 -13Q942 -20 936.5 -30.0Q931 -40 920 -43Q915 -44 884.0 -45.0Q853 -46 808.5 -47.5Q764 -49 718.0 -49.5Q672 -50 636 -50Q607 -50 568.5 -50.5Q530 -51 489.5 -51.0Q449 -51 414.0 -50.0Q379 -49 355.5 -47.5Q332 -46 328 -43Q322 -38 323.0 -29.5Q324 -21 326.0 -14.5Q328 -8 327 -8Z" fill="#88857c" stroke="none" transform="scale(1,-1) translate(0,-256)" /><path d="M270 -149 605 -107 1036 -158Q1036 -158 1037.0 -171.0Q1038 -184 1029 -196Q1019 -209 1002.5 -211.5Q986 -214 986 -214L235 -215Q235 -215 231.5 -213.0Q228 -211 224 -205Q219 -198 219.5 -181.5Q220 -165 220 -165Z" fill="#88857c" stroke="none" transform="scale(1,-1) translate(0,-256)" /><path d="M614 335Q617 345 614.0 350.0Q611 355 611 355L583 351L347 -193L365 -211H411Z" fill="#88857c" stroke="none" transform="scale(1,-1) translate(0,-256)" /><path d="M867 -195 865 -211 944 -212 936 -192 686 353Q686 353 674.0 354.5Q662 356 660 355Q654 350 656 338Q656 337 668.0 307.5Q680 278 698.5 230.5Q717 183 739.5 126.0Q762 69 784.5 12.5Q807 -44 825.5 -91.0Q844 -138 855.5 -166.5Q867 -195 867 -195Z" fill="#88857c" stroke="none" transform="scale(1,-1) translate(0,-256)" /></svg>