<?xml version="1.0" encoding="utf-8" ?>
<svg baseProfile="full" height="256" version="1.1" width="256" xmlns="http://www.w3.org/2000/svg" xmlns:ev="http://www.w3.org/2001/xml-events" xmlns:xlink="http://www.w3.org/1999/xlink"><defs /><path d="M153 648Q139 615 132.5 569.0Q126 523 132.0 471.5Q138 420 162 369Q180 330 205.5 293.5Q231 257 256.0 228.0Q281 199 297.5 182.0Q314 165 314 165Q314 165 319.0 146.0Q324 127 339 99Q345 88 354.5 74.0Q364 60 372.0 49.5Q380 39 380 39Q380 39 379.5 54.0Q379 69 381 84Q382 97 385.5 106.0Q389 115 388 119Q387 125 380.0 136.5Q373 148 365.0 159.5Q357 171 353 178Q346 193 328.0 225.0Q310 257 289.0 300.0Q268 343 250.5 391.5Q233 440 226 488Q218 552 222.5 585.0Q227 618 236.0 632.0Q245 646 249 652Q261 667 307 669Q329 670 353.5 671.0Q378 672 396 677Q413 682 418.5 689.0Q424 696 424 696Q424 696 413.5 695.5Q403 695 396 695Q389 695 376.5 696.0Q364 697 364 708Q364 714 375.5 718.5Q387 723 403.0 726.5Q419 730 431.0 732.0Q443 734 443 734Q443 734 445.0 739.0Q447 744 448 753Q449 761 448.0 765.5Q447 770 447 770Q447 770 428.0 768.5Q409 767 386.5 765.0Q364 763 354 762Q338 759 307.5 754.5Q277 750 259 744Q246 740 227.0 730.5Q208 721 187.5 701.5Q167 682 153 648Z" fill="#bdce46" stroke="none" transform="scale(1,-1) translate(0,-256)" /><path d="M505 -52Q505 -52 537.5 -56.0Q570 -60 620 -61Q650 -61 676.5 -59.5Q703 -58 720.0 -56.5Q737 -55 737 -55Q737 -55 733.0 -44.5Q729 -34 726 -21Q724 -11 722.5 -4.0Q721 3 721 3Q721 3 703.0 2.5Q685 2 661.0 1.5Q637 1 619 2Q605 2 582.5 3.5Q560 5 543.0 6.0Q526 7 526 7Q526 7 523.0 4.0Q520 1 515 -5Q506 -17 505.5 -34.5Q505 -52 505 -52Z" fill="#bdce46" stroke="none" transform="scale(1,-1) translate(0,-256)" /><path d="M854 -4Q854 -4 871.5 -4.5Q889 -5 917.5 -5.0Q946 -5 979.0 -1.5Q1012 2 1043 10Q1084 20 1110.5 36.5Q1137 53 1152.5 70.5Q1168 88 1178 101Q1185 111 1182.5 101.5Q1180 92 1173 78Q1168 70 1152.0 51.0Q1136 32 1108.5 12.5Q1081 -7 1043 -17Q1014 -25 982.5 -29.0Q951 -33 923.5 -34.5Q896 -36 879.0 -36.0Q862 -36 862 -36Q862 -36 860.5 -30.0Q859 -24 859 -19Q858 -13 856.0 -8.5Q854 -4 854 -4Z" fill="#bdce46" stroke="none" transform="scale(1,-1) translate(0,-256)" /></svg>