<?xml version="1.0" encoding="utf-8" ?>
<svg baseProfile="full" height="256" version="1.1" width="256" xmlns="http://www.w3.org/2000/svg" xmlns:ev="http://www.w3.org/2001/xml-events" xmlns:xlink="http://www.w3.org/1999/xlink"><defs /><path d="M366 206 738 103 798 -30Q798 -30 795.0 -43.5Q792 -57 783.0 -74.5Q774 -92 757.0 -105.5Q740 -119 713 -120Q657 -121 640.0 -116.5Q623 -112 622 -103Q621 -94 629.0 -80.0Q637 -66 639 -60Q641 -54 643.0 -42.5Q645 -31 645 -31L480 32L453 -105Q453 -105 439.0 -114.5Q425 -124 403.5 -137.0Q382 -150 359.0 -159.5Q336 -169 318 -170Q282 -171 261.0 -165.5Q240 -160 235 -145Q230 -128 234.5 -118.0Q239 -108 247.0 -101.5Q255 -95 260 -88Q267 -78 280.5 -53.5Q294 -29 305 7Q310 25 312.5 53.0Q315 81 315.0 109.5Q315 138 314.5 157.5Q314 177 314 177Z" fill="#04841f" stroke="none" transform="scale(1,-1) translate(0,-256)" /></svg>