<?xml version="1.0" encoding="utf-8" ?>
<svg baseProfile="full" height="256" version="1.1" width="256" xmlns="http://www.w3.org/2000/svg" xmlns:ev="http://www.w3.org/2001/xml-events" xmlns:xlink="http://www.w3.org/1999/xlink"><defs /><path d="M624 823Q624 823 615.0 834.5Q606 846 592.5 859.0Q579 872 564 877Q550 881 527.0 882.0Q504 883 482.5 883.5Q461 884 451 887Q438 891 422.0 903.5Q406 916 400 914Q387 910 395 871Q399 853 409.5 839.5Q420 826 420 826Q420 826 407.5 826.5Q395 827 377.0 829.0Q359 831 343 835Q320 840 303.5 851.5Q287 863 282 858Q277 852 278.0 834.0Q279 816 287 798Q293 785 302.5 773.0Q312 761 312 761Q312 761 294.5 760.0Q277 759 255 762Q232 764 215.0 773.5Q198 783 195 780Q191 776 192.0 761.5Q193 747 197.5 730.5Q202 714 209 703Q216 692 223.5 685.0Q231 678 229 671Q227 664 210.0 662.5Q193 661 179 645Q165 629 155.5 610.0Q146 591 143 577Q140 559 136.0 536.5Q132 514 130.5 496.5Q129 479 132 476Q136 473 150.0 475.5Q164 478 176.5 482.0Q189 486 189 486Q189 486 178.0 471.5Q167 457 164 445Q160 433 152.0 404.5Q144 376 141 356Q140 346 138.0 327.5Q136 309 135.0 289.5Q134 270 136.0 256.5Q138 243 144 242Q152 242 163.5 253.0Q175 264 184.0 275.5Q193 287 193 287Q193 287 189.5 260.5Q186 234 189 204Q191 188 196.0 167.5Q201 147 205.0 127.5Q209 108 208 97Q206 79 214.0 79.5Q222 80 226 82Q231 84 242.0 95.0Q253 106 253 106Q253 106 259.0 90.0Q265 74 274.0 54.5Q283 35 290 24Q299 9 317.0 -8.0Q335 -25 352.0 -38.0Q369 -51 375 -55Q380 -58 383.0 -48.5Q386 -39 387.5 -28.5Q389 -18 389 -18Q389 -18 396.0 -30.5Q403 -43 412.5 -59.0Q422 -75 429 -86Q436 -97 452.5 -110.5Q469 -124 485.0 -133.0Q501 -142 507 -138Q510 -137 510.0 -128.5Q510 -120 509.0 -112.5Q508 -105 508 -105Q508 -105 519.5 -112.0Q531 -119 534 -121Q538 -123 557.0 -132.5Q576 -142 589 -151Q597 -157 608.0 -170.0Q619 -183 628.5 -194.5Q638 -206 643 -207Q649 -208 655.0 -199.0Q661 -190 668.0 -178.5Q675 -167 683 -161Q695 -152 712.5 -138.5Q730 -125 747.0 -112.0Q764 -99 775.0 -90.5Q786 -82 786 -82Q786 -82 783.0 -96.0Q780 -110 779.0 -123.5Q778 -137 785 -136Q800 -134 823.0 -114.0Q846 -94 880 -66Q902 -47 913.5 -25.0Q925 -3 929.5 12.5Q934 28 934 28Q934 28 939.0 18.0Q944 8 947 2Q951 -5 955.0 -13.0Q959 -21 963 -27Q967 -34 973.0 -21.0Q979 -8 986 13Q991 32 999.5 49.5Q1008 67 1017 98Q1023 115 1027.5 135.5Q1032 156 1034.5 170.0Q1037 184 1037 184Q1037 184 1043.0 173.0Q1049 162 1056.5 152.0Q1064 142 1069 145Q1074 148 1078.5 167.0Q1083 186 1085.5 209.5Q1088 233 1088 251Q1088 275 1085.5 303.0Q1083 331 1080.0 351.0Q1077 371 1077 371Q1077 371 1082.0 367.0Q1087 363 1092 359Q1107 344 1119.5 344.5Q1132 345 1130 349Q1124 362 1120.0 372.0Q1116 382 1111 394Q1107 404 1100.0 426.0Q1093 448 1086 464Q1081 477 1072.5 488.0Q1064 499 1064 499Q1064 499 1067.5 499.0Q1071 499 1083 498Q1104 496 1115.0 491.0Q1126 486 1128 493Q1130 499 1126.0 529.5Q1122 560 1113 588Q1107 606 1098.0 621.5Q1089 637 1075 656Q1061 674 1041.0 681.0Q1021 688 1021 688Q1021 688 1034.0 703.5Q1047 719 1051 736Q1053 745 1053.5 758.5Q1054 772 1053.0 784.0Q1052 796 1049 797Q1044 800 1028.5 789.5Q1013 779 1004 774Q995 768 978.5 760.5Q962 753 962 753Q962 753 968.0 762.5Q974 772 979 779Q981 783 988.5 795.5Q996 808 1001.0 820.0Q1006 832 1003 836Q1000 839 987.5 836.5Q975 834 959.5 828.5Q944 823 934 819Q926 815 907.0 806.5Q888 798 871.5 790.0Q855 782 855 782Q855 782 860.5 799.0Q866 816 874 832Q879 843 889.0 854.0Q899 865 906.5 874.5Q914 884 911 890Q907 898 874.5 901.0Q842 904 807 897Q777 891 756.0 877.5Q735 864 724.0 852.0Q713 840 713 840Q713 840 717.0 853.5Q721 867 724 873Q730 887 735.0 895.5Q740 904 738 908Q734 916 714.5 906.0Q695 896 680 887Q651 868 637.5 845.5Q624 823 624 823Z" fill="#865c50" stroke="none" transform="scale(1,-1) translate(0,-256)" /></svg>