<?xml version="1.0" encoding="utf-8" ?>
<svg baseProfile="full" height="256" version="1.1" width="256" xmlns="http://www.w3.org/2000/svg" xmlns:ev="http://www.w3.org/2001/xml-events" xmlns:xlink="http://www.w3.org/1999/xlink"><defs /><path d="M640 88Q648 93 670.0 83.5Q692 74 728 71Q765 68 792.5 70.0Q820 72 831 59Q839 50 838.0 32.5Q837 15 831.0 -5.0Q825 -25 818 -42Q814 -55 807.0 -74.0Q800 -93 793.0 -111.5Q786 -130 779.0 -142.0Q772 -154 766 -153Q759 -153 749.0 -138.0Q739 -123 732 -104Q724 -78 726.0 -53.5Q728 -29 728 -29Q728 -29 712.0 -21.0Q696 -13 676 8Q663 20 652.5 37.5Q642 55 638.0 69.5Q634 84 640 88Z" fill="#cdcdce" stroke="none" transform="scale(1,-1) translate(0,-256)" /><path d="M833 100Q837 96 850.0 112.0Q863 128 874.0 159.5Q885 191 879 234Q876 262 856.0 299.0Q836 336 797 371Q770 394 735.0 413.0Q700 432 654 448Q613 462 559.5 468.0Q506 474 451.5 475.5Q397 477 353.0 475.5Q309 474 288 474Q235 472 209.5 478.0Q184 484 175.5 490.5Q167 497 167 497L132 495Q133 490 147.5 477.0Q162 464 186 457Q208 450 244.0 448.0Q280 446 320.0 446.5Q360 447 394.5 447.5Q429 448 448 448Q502 445 554.0 438.0Q606 431 653 416Q718 394 761.5 362.0Q805 330 828.0 296.0Q851 262 854 232Q858 193 851.5 165.0Q845 137 837.5 120.0Q830 103 833 100Z" fill="#cdcdce" stroke="none" transform="scale(1,-1) translate(0,-256)" /></svg>