<?xml version="1.0" encoding="utf-8" ?>
<svg baseProfile="full" height="256" version="1.1" width="256" xmlns="http://www.w3.org/2000/svg" xmlns:ev="http://www.w3.org/2001/xml-events" xmlns:xlink="http://www.w3.org/1999/xlink"><defs /><path d="M284 667Q295 675 307.0 673.0Q319 671 329 658Q339 643 335.0 628.0Q331 613 322 608Q311 602 299.5 603.0Q288 604 278 615Q269 627 270.5 642.5Q272 658 284 667Z" fill="#131314" stroke="none" transform="scale(1,-1) translate(0,-256)" /><path d="M125 512Q125 512 143.0 518.0Q161 524 177 530Q193 536 215.0 548.5Q237 561 248 567Q257 572 272.5 581.0Q288 590 293 580Q300 568 288.5 554.0Q277 540 230 515Q180 490 159.5 489.0Q139 488 133 493Q128 496 126.0 502.5Q124 509 125 512Z" fill="#131314" stroke="none" transform="scale(1,-1) translate(0,-256)" /></svg>