<?xml version="1.0" encoding="utf-8" ?>
<svg baseProfile="full" height="256" version="1.1" width="256" xmlns="http://www.w3.org/2000/svg" xmlns:ev="http://www.w3.org/2001/xml-events" xmlns:xlink="http://www.w3.org/1999/xlink"><defs /><path d="M277 728Q280 724 298.5 716.5Q317 709 339.5 701.5Q362 694 379.0 689.0Q396 684 396 684L429 597Q429 597 412.5 599.0Q396 601 371.0 601.0Q346 601 321 594Q311 591 298.5 583.5Q286 576 278.5 568.0Q271 560 273 554Q276 548 292.0 544.0Q308 540 323.5 538.5Q339 537 339 537L438 471Q438 471 417.0 471.0Q396 471 371 467Q349 464 336.0 458.0Q323 452 323 444Q323 440 337.5 435.5Q352 431 371.0 427.0Q390 423 404.5 420.5Q419 418 419 418L633 341L859 432Q859 432 871.5 438.5Q884 445 900.5 454.5Q917 464 929.5 472.5Q942 481 941 485Q940 492 923.0 495.5Q906 499 893 499Q865 499 841.0 494.0Q817 489 817 489L838 556L974 633Q974 633 972.5 638.0Q971 643 949 646Q921 649 893.0 641.5Q865 634 847.0 625.0Q829 616 829 616L847 704Q847 704 859.0 712.5Q871 721 889.0 733.5Q907 746 925.0 759.0Q943 772 955.0 781.0Q967 790 968 791Q970 799 952.5 801.5Q935 804 912.5 802.5Q890 801 878 799Q855 794 834.0 784.0Q813 774 800.5 766.0Q788 758 788 758Q788 758 790.0 783.5Q792 809 807 844Q818 867 829.0 883.5Q840 900 837 907Q834 912 814.5 912.0Q795 912 768.0 905.5Q741 899 715 886Q692 874 674.0 857.0Q656 840 645.5 827.5Q635 815 635 815Q635 815 622.0 827.5Q609 840 587.5 856.5Q566 873 539 885Q490 907 457.5 905.5Q425 904 424 896Q424 887 431.5 874.0Q439 861 456 838Q473 815 478.5 795.0Q484 775 484.0 763.0Q484 751 484 751Q484 751 467.0 755.0Q450 759 423.0 763.0Q396 767 365 766Q340 765 318.5 758.0Q297 751 285.0 742.0Q273 733 277 728Z" fill="#2f7c31" stroke="none" transform="scale(1,-1) translate(0,-256)" /><path d="M641 592Q645 592 661.5 580.5Q678 569 697 547Q709 534 718.5 516.0Q728 498 731.0 483.0Q734 468 726 463Q720 459 707.5 468.5Q695 478 680 489Q668 499 655.5 506.5Q643 514 640 514Q637 514 623.0 507.0Q609 500 591 487Q575 476 563.5 466.5Q552 457 544 464Q538 469 547.5 494.5Q557 520 583 547Q605 571 621.0 581.0Q637 591 641 592Z" fill="#2f7c31" stroke="none" transform="scale(1,-1) translate(0,-256)" /></svg>