<?xml version="1.0" encoding="utf-8" ?>
<svg baseProfile="full" height="256" version="1.1" width="256" xmlns="http://www.w3.org/2000/svg" xmlns:ev="http://www.w3.org/2001/xml-events" xmlns:xlink="http://www.w3.org/1999/xlink"><defs /><path d="M872 410 1158 17Q1161 12 1154.0 8.0Q1147 4 1143 8L833 383L718 280Q684 249 638 248Q591 249 557 280L441 384L126 8Q121 4 114.0 8.0Q107 12 111 17L400 411L118 674Q114 678 107.5 679.5Q101 681 101 681Q101 681 109.5 686.5Q118 692 131 682L579 327Q604 307 638 306Q671 307 696 327L1144 682Q1156 692 1165.0 686.5Q1174 681 1174 681Q1174 681 1167.5 679.5Q1161 678 1157 674Z" fill="#6fbff0" stroke="none" transform="scale(1,-1) translate(0,-256)" /><path d="M875 410 1158 672Q1164 677 1174 679L1178 680L1175 683Q1161 699 1142 684L695 329Q670 309 638 308Q605 309 580 329L133 684Q114 699 99 683L97 680L101 679Q111 677 116 672L396 411L109 18Q106 15 108 11Q109 8 113 6Q121 1 127 6L441 381L556 278Q590 247 638 246Q685 247 720 278L833 380L1141 7Q1147 1 1156 6Q1159 8 1160 11Q1162 15 1159 18ZM871 412 869 411 1156 15Q1157 14 1156 13Q1155 11 1153 10Q1148 7 1144 10L834 387L716 282Q683 251 638 250Q592 251 559 282L441 387L124 10Q121 7 115 10Q113 11 112 13Q112 14 112 15H113L403 412L120 676Q115 680 106 682Q116 691 130 680L577 325Q604 304 637 303H638Q671 304 698 325L1145 680Q1159 691 1169 683Q1160 680 1155 676Z" fill="#6fbff0" stroke="none" transform="scale(1,-1) translate(0,-256)" /><path d="M1140 -28Q1163 -28 1179 -12Q1195 4 1195 27V673Q1195 696 1179 712Q1163 728 1140 728H135Q112 728 96 712Q80 696 80 673V27Q80 4 93 -11Q108 -28 135 -28ZM1140 10H135Q125 10 121 14Q117 18 117 27V673Q117 690 135 690H1140Q1157 690 1157 673V27Q1157 20 1152 15Q1147 10 1140 10Z" fill="#6fbff0" stroke="none" transform="scale(1,-1) translate(0,-256)" /></svg>