<?xml version="1.0" encoding="utf-8" ?>
<svg baseProfile="full" height="256" version="1.1" width="256" xmlns="http://www.w3.org/2000/svg" xmlns:ev="http://www.w3.org/2001/xml-events" xmlns:xlink="http://www.w3.org/1999/xlink"><defs /><path d="M267 90Q267 90 259.0 78.5Q251 67 240.0 50.5Q229 34 219.5 20.5Q210 7 206 3Q203 0 191.0 7.5Q179 15 159 14Q134 13 128.0 0.0Q122 -13 123 -18Q125 -28 141.5 -30.5Q158 -33 174 -34Q186 -34 203.0 -34.0Q220 -34 227 -31Q238 -28 252.0 -14.5Q266 -1 273 11Q278 18 289.0 35.0Q300 52 309.5 66.0Q319 80 319 80Q319 80 310.0 79.0Q301 78 292 81Q283 83 275.0 86.5Q267 90 267 90Z" fill="#b99680" stroke="none" transform="scale(1,-1) translate(0,-256)" /><path d="M301 402Q314 402 340.0 397.5Q366 393 388 370Q414 342 422.0 305.5Q430 269 423.5 232.0Q417 195 399.5 163.0Q382 131 357.0 111.5Q332 92 304 92Q262 92 237.0 113.5Q212 135 199.5 162.5Q187 190 184 208Q179 235 178.5 275.0Q178 315 196 346Q211 372 232.5 384.0Q254 396 273.5 399.0Q293 402 301 402Z" fill="#b99680" stroke="none" transform="scale(1,-1) translate(0,-256)" /><path d="M456 148Q468 141 468.0 128.5Q468 116 463.0 103.0Q458 90 454 82Q442 59 420.0 20.5Q398 -18 376 -54Q366 -70 353.0 -87.5Q340 -105 329.0 -118.5Q318 -132 314 -135Q308 -140 288.5 -142.0Q269 -144 250 -144Q229 -145 211.0 -144.0Q193 -143 184 -139Q178 -137 182.0 -125.5Q186 -114 198.0 -102.5Q210 -91 229 -89Q257 -87 266.5 -96.5Q276 -106 279 -104Q283 -102 291.0 -89.5Q299 -77 307.5 -61.0Q316 -45 322 -34Q326 -25 334.5 -5.5Q343 14 353.5 37.5Q364 61 374.0 83.0Q384 105 391 120Q406 148 423.5 152.5Q441 157 456 148Z" fill="#b99680" stroke="none" transform="scale(1,-1) translate(0,-256)" /><path d="M557 75Q549 86 554.5 101.5Q560 117 572.0 132.0Q584 147 596.0 158.5Q608 170 614 174Q664 210 705.5 248.0Q747 286 777.0 317.5Q807 349 823 365Q835 377 854.0 397.0Q873 417 894.0 436.5Q915 456 932.5 469.0Q950 482 960 482Q969 481 975.0 473.5Q981 466 989 436Q992 426 1001.5 388.5Q1011 351 1023.5 299.0Q1036 247 1049.5 190.5Q1063 134 1074.5 85.5Q1086 37 1093.5 6.5Q1101 -24 1101 -24Q1101 -24 1107.0 -23.5Q1113 -23 1143 -32Q1173 -40 1185.5 -52.5Q1198 -65 1198.5 -76.0Q1199 -87 1193 -91Q1185 -96 1167.5 -90.0Q1150 -84 1135 -79Q1118 -74 1097.5 -75.0Q1077 -76 1069 -66Q1065 -62 1058.0 -42.5Q1051 -23 1043.0 3.5Q1035 30 1028.0 54.5Q1021 79 1017 93Q1015 99 1008.5 120.0Q1002 141 993.0 169.0Q984 197 974.5 225.0Q965 253 958.0 275.0Q951 297 949 305Q942 328 940.0 347.5Q938 367 934 371Q931 374 924.0 364.5Q917 355 908 343Q905 339 890.5 318.0Q876 297 853.0 266.0Q830 235 802.0 201.5Q774 168 744.0 138.5Q714 109 686 92Q642 65 616.0 59.0Q590 53 576.5 59.0Q563 65 557 75Z" fill="#b99680" stroke="none" transform="scale(1,-1) translate(0,-256)" /></svg>