<?xml version="1.0" encoding="utf-8" ?>
<svg baseProfile="full" height="256" version="1.1" width="256" xmlns="http://www.w3.org/2000/svg" xmlns:ev="http://www.w3.org/2001/xml-events" xmlns:xlink="http://www.w3.org/1999/xlink"><defs /><path d="M280 357Q282 357 283 357Q292 360 290 369Q289 371 278.5 401.0Q268 431 244.0 481.5Q220 532 179 596Q153 635 126.0 668.0Q99 701 80.5 721.0Q62 741 62 741Q55 748 48 741Q41 734 48 727Q48 726 66.0 707.0Q84 688 110.5 655.5Q137 623 162 585Q202 522 226.0 472.5Q250 423 260.0 393.5Q270 364 270 364Q272 357 280 357Z" fill="#ba967d" stroke="none" transform="scale(1,-1) translate(0,-256)" /><path d="M325 359Q326 359 326 360Q336 360 335 370Q335 371 332.5 395.0Q330 419 324.5 458.0Q319 497 311 542Q303 582 291.5 620.5Q280 659 271.5 684.0Q263 709 263 709Q259 719 250 715Q240 712 244 702Q244 702 252.5 677.5Q261 653 272.5 615.5Q284 578 291 538Q300 494 305.0 455.5Q310 417 312.5 393.0Q315 369 315 369Q316 359 325 359Z" fill="#ba967d" stroke="none" transform="scale(1,-1) translate(0,-256)" /></svg>