<?xml version="1.0" encoding="utf-8" ?>
<svg baseProfile="full" height="256" version="1.1" width="256" xmlns="http://www.w3.org/2000/svg" xmlns:ev="http://www.w3.org/2001/xml-events" xmlns:xlink="http://www.w3.org/1999/xlink"><defs /><path d="M480 258Q480 258 459.0 258.0Q438 258 406.0 256.5Q374 255 337.5 251.5Q301 248 269.5 240.5Q238 233 218.5 221.0Q199 209 201 191Q203 163 220.0 137.0Q237 111 260.5 94.5Q284 78 307 78Q338 79 359.0 92.0Q380 105 390.0 117.5Q400 130 400 130Q400 130 415.0 123.5Q430 117 451 96Q472 76 509.5 59.5Q547 43 593.0 31.0Q639 19 686.0 12.0Q733 5 774 2Q828 -1 875.0 9.5Q922 20 955.5 38.0Q989 56 1002 74Q1019 96 1021.5 112.5Q1024 129 1024 129Q1024 129 1038.5 131.5Q1053 134 1073.0 139.0Q1093 144 1109 149Q1133 158 1154.5 175.5Q1176 193 1181 205Q1182 210 1168.5 204.0Q1155 198 1145 194Q1136 189 1125.5 187.5Q1115 186 1115 186Q1115 186 1125.0 195.5Q1135 205 1141 212Q1148 218 1157.0 228.0Q1166 238 1168 246Q1169 252 1154.5 243.0Q1140 234 1118.5 220.5Q1097 207 1076 198Q1062 192 1045.5 188.0Q1029 184 1017.0 181.5Q1005 179 1005 179Q1005 179 992.0 187.5Q979 196 957.0 206.5Q935 217 908 224Q887 230 855.0 236.5Q823 243 791.0 249.0Q759 255 737.5 258.5Q716 262 716 262L729 307Q729 307 698.5 307.0Q668 307 629 302Q590 297 568.0 291.5Q546 286 546 286Z" fill="#6c4d42" stroke="none" transform="scale(1,-1) translate(0,-256)" /></svg>