<?xml version="1.0" encoding="utf-8" ?>
<svg baseProfile="full" height="256" version="1.1" width="256" xmlns="http://www.w3.org/2000/svg" xmlns:ev="http://www.w3.org/2001/xml-events" xmlns:xlink="http://www.w3.org/1999/xlink"><defs /><path d="M386 161 383 337Q383 337 404.0 340.0Q425 343 455 338Q488 332 508.5 319.5Q529 307 538.0 297.0Q547 287 547 287Q547 287 551.0 273.5Q555 260 546 212Q538 172 515.5 144.0Q493 116 468.0 105.5Q443 95 426 108Q402 126 394.0 143.5Q386 161 386 161Z" fill="#52352a" stroke="none" transform="scale(1,-1) translate(0,-256)" /><path d="M737 298Q739 305 734.5 307.5Q730 310 728 305Q723 299 717.5 288.0Q712 277 702 263Q688 242 669.5 228.5Q651 215 622 202Q602 193 578.0 189.5Q554 186 536.5 185.0Q519 184 519 184L506 181Q506 181 514.0 173.0Q522 165 553 165Q616 164 672 201Q690 213 704.0 234.0Q718 255 726.5 274.0Q735 293 737 298Z" fill="#52352a" stroke="none" transform="scale(1,-1) translate(0,-256)" /></svg>