<?xml version="1.0" encoding="utf-8" ?>
<svg baseProfile="full" height="256" version="1.1" width="256" xmlns="http://www.w3.org/2000/svg" xmlns:ev="http://www.w3.org/2001/xml-events" xmlns:xlink="http://www.w3.org/1999/xlink"><defs /><path d="M576 14 637 52 694 22Q694 22 694.5 4.5Q695 -13 693.5 -35.0Q692 -57 685.5 -73.0Q679 -89 665 -86Q650 -84 643.5 -73.0Q637 -62 637 -62Q637 -62 632.5 -70.5Q628 -79 619.5 -85.5Q611 -92 599 -86Q588 -81 582.5 -65.0Q577 -49 576.0 -31.0Q575 -13 575.5 0.5Q576 14 576 14Z" fill="#fffefd" stroke="none" transform="scale(1,-1) translate(0,-256)" /></svg>