<?xml version="1.0" encoding="utf-8" ?>
<svg baseProfile="full" height="256" version="1.1" width="256" xmlns="http://www.w3.org/2000/svg" xmlns:ev="http://www.w3.org/2001/xml-events" xmlns:xlink="http://www.w3.org/1999/xlink"><defs /><path d="M632 -103Q632 -103 615.5 -116.0Q599 -129 563.5 -143.0Q528 -157 471 -158Q400 -160 365.5 -122.0Q331 -84 329 -21Q327 29 347.0 65.5Q367 102 393.0 126.0Q419 150 434 161Q451 174 471.0 188.0Q491 202 505.0 211.5Q519 221 519 221Q519 221 520.0 238.0Q521 255 523.0 281.0Q525 307 527.5 335.0Q530 363 531.5 386.5Q533 410 533 420Q534 431 537.0 450.5Q540 470 550.0 490.0Q560 510 579.5 524.0Q599 538 632 537Q666 537 686.0 524.5Q706 512 715.5 493.0Q725 474 729.0 453.0Q733 432 735 415Q738 397 742.0 365.0Q746 333 750.0 300.5Q754 268 757.0 245.0Q760 222 760 222Q760 222 770.5 214.5Q781 207 796.0 196.5Q811 186 824.0 177.0Q837 168 842 164Q850 157 868.0 142.0Q886 127 905.5 102.0Q925 77 937.5 42.5Q950 8 948 -37Q945 -89 920.0 -117.5Q895 -146 859.5 -156.0Q824 -166 788 -163Q761 -161 733.5 -151.5Q706 -142 683.0 -131.0Q660 -120 646.0 -111.5Q632 -103 632 -103Z" fill="#ffd2b1" stroke="none" transform="scale(1,-1) translate(0,-256)" /></svg>