<?xml version="1.0" encoding="utf-8" ?>
<svg baseProfile="full" height="256" version="1.1" width="256" xmlns="http://www.w3.org/2000/svg" xmlns:ev="http://www.w3.org/2001/xml-events" xmlns:xlink="http://www.w3.org/1999/xlink"><defs /><path d="M276 -52Q280 -52 283 -50Q284 -50 297.5 -41.5Q311 -33 329.0 -22.0Q347 -11 360 -3Q374 4 391.5 13.5Q409 23 422.0 30.0Q435 37 435 37Q435 37 440.5 42.5Q446 48 440 56Q434 65 428.0 62.5Q422 60 422 60Q422 60 409.0 53.0Q396 46 378.5 36.5Q361 27 347 20Q334 12 316.0 1.0Q298 -10 284.0 -19.0Q270 -28 269 -28Q258 -35 265 -46Q269 -52 276 -52Z" fill="#5f646d" stroke="none" transform="scale(1,-1) translate(0,-256)" /><path d="M331 -118Q337 -118 341 -114Q341 -113 356.5 -96.5Q372 -80 391 -62Q412 -43 428.0 -28.5Q444 -14 444 -14Q454 -6 445 4Q436 14 427 5Q427 5 410.5 -9.5Q394 -24 374 -42Q353 -61 337.5 -78.0Q322 -95 321 -96Q312 -106 322 -115Q326 -118 331 -118Z" fill="#5f646d" stroke="none" transform="scale(1,-1) translate(0,-256)" /><path d="M999 -60Q1005 -60 1009 -56Q1018 -46 1008 -37Q1008 -37 992.0 -24.5Q976 -12 935 13Q894 38 871.0 49.5Q848 61 848 62Q836 67 830 56Q824 44 836 38Q837 38 859.0 26.5Q881 15 921 -10Q961 -34 976.0 -45.5Q991 -57 991 -57Q994 -60 999 -60Z" fill="#5f646d" stroke="none" transform="scale(1,-1) translate(0,-256)" /><path d="M940 -112Q945 -112 949 -108Q958 -99 949 -90Q948 -89 930.0 -70.0Q912 -51 890 -31Q867 -10 846.5 3.5Q826 17 825 18Q814 25 807 14Q800 3 811 -4Q811 -5 830.5 -18.0Q850 -31 872 -50Q894 -70 912.0 -89.0Q930 -108 930 -108Q934 -112 940 -112Z" fill="#5f646d" stroke="none" transform="scale(1,-1) translate(0,-256)" /></svg>