<?xml version="1.0" encoding="utf-8" ?>
<svg baseProfile="full" height="256" version="1.1" width="256" xmlns="http://www.w3.org/2000/svg" xmlns:ev="http://www.w3.org/2001/xml-events" xmlns:xlink="http://www.w3.org/1999/xlink"><defs /><path d="M619 676Q562 676 510.5 653.5Q459 631 414.0 593.5Q369 556 330.5 510.0Q292 464 262.0 416.0Q232 368 211 326Q176 255 163.5 182.5Q151 110 162.5 45.0Q174 -20 211 -67Q239 -102 276.0 -120.5Q313 -139 350.0 -147.0Q387 -155 415.5 -156.5Q444 -158 454 -158Q475 -158 499.0 -137.0Q523 -116 545.5 -85.0Q568 -54 586.5 -22.5Q605 9 616.0 30.0Q627 51 627 51Q627 51 638.5 30.0Q650 9 669.0 -23.0Q688 -55 709.5 -86.5Q731 -118 751.5 -140.0Q772 -162 787 -163Q813 -164 840.0 -165.0Q867 -166 904.5 -155.5Q942 -145 1001 -112Q1046 -88 1071.0 -39.0Q1096 10 1101.0 75.0Q1106 140 1088.5 213.5Q1071 287 1029 361Q963 478 898.0 547.0Q833 616 764.5 646.0Q696 676 619 676Z" fill="#f2a159" stroke="none" transform="scale(1,-1) translate(0,-256)" /><path d="M1137 643Q1134 707 1097.0 748.0Q1060 789 994 789Q951 789 913.5 768.5Q876 748 853.5 713.5Q831 679 831 636Q831 593 848.5 556.0Q866 519 898.0 496.5Q930 474 973 474Q1017 474 1055.0 494.0Q1093 514 1116.0 552.0Q1139 590 1137 643Z" fill="#f2a159" stroke="none" transform="scale(1,-1) translate(0,-256)" /><path d="M259 504Q296 491 334.0 497.5Q372 504 402.0 528.5Q432 553 445 595Q459 638 452.5 679.5Q446 721 421.5 752.5Q397 784 355 797Q314 810 273.0 802.0Q232 794 200.0 767.0Q168 740 155 697Q135 633 159.0 580.5Q183 528 259 504Z" fill="#f2a159" stroke="none" transform="scale(1,-1) translate(0,-256)" /></svg>