<?xml version="1.0" encoding="utf-8" ?>
<svg baseProfile="full" height="256" version="1.1" width="256" xmlns="http://www.w3.org/2000/svg" xmlns:ev="http://www.w3.org/2001/xml-events" xmlns:xlink="http://www.w3.org/1999/xlink"><defs /><path d="M383 -17Q383 -17 384.5 -8.0Q386 1 391 8Q395 14 400.5 18.5Q406 23 406 23L870 27Q870 27 876.5 23.5Q883 20 889 14Q895 6 897.0 -2.0Q899 -10 899 -10Z" fill="#e1e0e0" stroke="none" transform="scale(1,-1) translate(0,-256)" /><path d="M374 736Q374 736 376.5 746.5Q379 757 388 768Q395 776 402.0 779.5Q409 783 409 783Q409 783 428.5 785.0Q448 787 480.5 790.0Q513 793 552.0 795.5Q591 798 629 798Q661 797 700.5 796.0Q740 795 775.5 794.0Q811 793 834.0 792.5Q857 792 857 792Q857 792 863.0 788.5Q869 785 875 778Q881 772 885.0 762.0Q889 752 889 752Q889 752 855.5 754.0Q822 756 763.0 757.5Q704 759 629 758Q553 757 496.0 751.5Q439 746 406.5 741.0Q374 736 374 736Z" fill="#e1e0e0" stroke="none" transform="scale(1,-1) translate(0,-256)" /></svg>