<?xml version="1.0" encoding="utf-8" ?>
<svg baseProfile="full" height="256" version="1.1" width="256" xmlns="http://www.w3.org/2000/svg" xmlns:ev="http://www.w3.org/2001/xml-events" xmlns:xlink="http://www.w3.org/1999/xlink"><defs /><path d="M413 640Q413 640 403.0 647.5Q393 655 383.0 672.0Q373 689 373 716Q373 744 382.0 758.5Q391 773 400.0 778.0Q409 783 409 783Q409 783 415.0 808.5Q421 834 452 865Q485 897 533.0 904.5Q581 912 636 913Q685 913 724.0 906.0Q763 899 793 879Q822 860 835.5 839.5Q849 819 853.0 805.5Q857 792 857 792Q857 792 865.5 786.0Q874 780 883.0 765.5Q892 751 894 727Q895 702 886.0 683.5Q877 665 866.0 654.5Q855 644 851 642Q849 641 817.0 640.0Q785 639 736.0 638.0Q687 637 632.0 637.0Q577 637 527.5 637.0Q478 637 446.0 637.5Q414 638 413 640Z" fill="#c8c8c8" stroke="none" transform="scale(1,-1) translate(0,-256)" /><path d="M420 64Q422 66 453.5 66.5Q485 67 533.5 66.5Q582 66 635 67Q689 67 740.0 67.0Q791 67 824.0 66.5Q857 66 858 64Q862 59 866.0 43.0Q870 27 870 27Q870 27 877.5 22.0Q885 17 893.0 5.5Q901 -6 901 -24Q902 -43 895.0 -54.5Q888 -66 881.0 -72.0Q874 -78 874 -78Q874 -78 871.5 -91.5Q869 -105 858.0 -126.0Q847 -147 823 -170Q792 -200 750.5 -207.5Q709 -215 651 -215Q598 -215 557.5 -210.0Q517 -205 479 -178Q455 -161 441.5 -139.0Q428 -117 422.5 -100.0Q417 -83 417 -83Q417 -83 409.5 -78.0Q402 -73 393.5 -62.0Q385 -51 382 -32Q380 -12 387.5 1.0Q395 14 403.5 20.5Q412 27 412 27Q412 27 412.5 35.5Q413 44 415.0 53.0Q417 62 420 64Z" fill="#c8c8c8" stroke="none" transform="scale(1,-1) translate(0,-256)" /></svg>