<?xml version="1.0" encoding="utf-8" ?>
<svg baseProfile="full" height="256" version="1.1" width="256" xmlns="http://www.w3.org/2000/svg" xmlns:ev="http://www.w3.org/2001/xml-events" xmlns:xlink="http://www.w3.org/1999/xlink"><defs /><path d="M779 824Q779 824 787.5 805.5Q796 787 798.5 753.5Q801 720 783 674Q769 638 749.0 621.0Q729 604 729 604L809 562Q809 562 809.5 559.0Q810 556 810 546Q810 534 804.0 521.5Q798 509 784 501Q765 490 748.5 487.0Q732 484 732 484L731 444Q731 444 721.5 428.0Q712 412 693.0 396.0Q674 380 645 380Q615 380 595.5 394.0Q576 408 566.5 422.5Q557 437 557 437V482Q557 482 539.0 484.0Q521 486 499 497Q481 506 474.5 518.0Q468 530 467.0 538.5Q466 547 466 547L535 587L540 605Q540 605 534.5 609.0Q529 613 519 622Q514 627 508.5 634.5Q503 642 503 642Z" fill="#474c50" stroke="none" transform="scale(1,-1) translate(0,-256)" /><path d="M631 233 828 201Q828 201 832.0 200.5Q836 200 841 193Q844 189 847 177Q849 169 848.5 165.0Q848 161 848 161V142L930 70Q930 70 937.5 56.5Q945 43 946 22Q947 5 943.0 -8.0Q939 -21 939 -21L974 -59Q974 -59 974.5 -60.0Q975 -61 975 -61Q977 -66 979.0 -72.5Q981 -79 980 -86Q980 -95 972.5 -114.0Q965 -133 931 -157Q898 -180 820.5 -198.0Q743 -216 637 -216Q566 -216 518.5 -209.0Q471 -202 438.0 -190.5Q405 -179 376 -166Q335 -147 321.0 -129.5Q307 -112 306 -96Q305 -82 309.5 -73.0Q314 -64 314 -64L330 -57L356 -22Q355 -23 350.0 -13.0Q345 -3 345 14Q344 32 349.0 45.0Q354 58 354 58L433 154Q433 154 430.0 157.0Q427 160 427 170Q427 176 429.5 180.5Q432 185 432 185Z" fill="#474c50" stroke="none" transform="scale(1,-1) translate(0,-256)" /></svg>