<?xml version="1.0" encoding="utf-8" ?>
<svg baseProfile="full" height="256" version="1.1" width="256" xmlns="http://www.w3.org/2000/svg" xmlns:ev="http://www.w3.org/2001/xml-events" xmlns:xlink="http://www.w3.org/1999/xlink"><defs /><path d="M625 884Q613 891 597.5 887.0Q582 883 569 876Q556 868 534.5 847.0Q513 826 503 793Q493 760 499.5 750.0Q506 740 509 737Q513 735 517.5 737.0Q522 739 530 750Q534 757 546.0 774.5Q558 792 573.5 810.5Q589 829 603 838Q627 853 633.5 864.0Q640 875 625 884Z" fill="#fffffe" stroke="none" transform="scale(1,-1) translate(0,-256)" /></svg>