<?xml version="1.0" encoding="utf-8" ?>
<svg baseProfile="full" height="256" version="1.1" width="256" xmlns="http://www.w3.org/2000/svg" xmlns:ev="http://www.w3.org/2001/xml-events" xmlns:xlink="http://www.w3.org/1999/xlink"><defs /><path d="M512 589Q523 588 522.0 585.5Q521 583 520.5 579.0Q520 575 530 569Q540 564 557.5 563.5Q575 563 589.5 560.5Q604 558 604 548Q605 533 584.5 532.0Q564 531 548 532Q537 532 521.0 535.5Q505 539 492.0 545.5Q479 552 478 562Q476 577 488.5 583.5Q501 590 512 589Z" fill="#aeaeaf" stroke="none" transform="scale(1,-1) translate(0,-256)" /></svg>