<?xml version="1.0" encoding="utf-8" ?>
<svg baseProfile="full" height="256" version="1.1" width="256" xmlns="http://www.w3.org/2000/svg" xmlns:ev="http://www.w3.org/2001/xml-events" xmlns:xlink="http://www.w3.org/1999/xlink"><defs /><path d="M1028 452Q1028 451 1030 451Q1035 446 1043.0 445.0Q1051 444 1056 449Q1066 459 1067.0 487.0Q1068 515 1057.5 554.0Q1047 593 1025 637Q991 702 955.0 733.0Q919 764 904 763Q930 735 947.5 706.5Q965 678 980 642Q995 603 1001.0 564.0Q1007 525 1011.5 494.5Q1016 464 1028 452Z" fill="#c9e3e6" stroke="none" transform="scale(1,-1) translate(0,-256)" /><path d="M360 828Q370 833 382.5 838.0Q395 843 407 847Q426 851 432 830Q434 822 428.5 818.0Q423 814 421 813Q410 809 391.0 805.0Q372 801 364 799Q355 797 352.0 810.0Q349 823 360 828Z" fill="#c9e3e6" stroke="none" transform="scale(1,-1) translate(0,-256)" /></svg>