<?xml version="1.0" encoding="utf-8" ?>
<svg baseProfile="full" height="256" version="1.1" width="256" xmlns="http://www.w3.org/2000/svg" xmlns:ev="http://www.w3.org/2001/xml-events" xmlns:xlink="http://www.w3.org/1999/xlink"><defs /><path d="M817 844Q899 808 951.0 764.0Q1003 720 1031.0 674.5Q1059 629 1070.5 586.5Q1082 544 1085 510Q1090 430 1066.0 379.5Q1042 329 999.0 305.0Q956 281 904 281Q837 281 786.0 321.5Q735 362 719 423L444 658V714L407 708Q381 705 376 733L363 823Q361 835 366.5 844.5Q372 854 384 856Q384 856 401.0 860.0Q418 864 441.0 869.5Q464 875 484.5 879.0Q505 883 512 884Q546 890 592.5 891.0Q639 892 695.5 882.0Q752 872 817 844Z" fill="#b0bec5" stroke="none" transform="scale(1,-1) translate(0,-256)" /><path d="M528 287Q553 260 553 222Q553 212 548.5 197.0Q544 182 533.5 168.5Q523 155 504.5 150.0Q486 145 458 157Q438 165 429.5 180.0Q421 195 418.0 212.0Q415 229 413.0 243.5Q411 258 405 266Q401 271 397.5 276.5Q394 282 392 287Q388 299 394.5 307.5Q401 316 408 324Q416 332 423 342Q423 342 435.5 337.5Q448 333 466.5 325.5Q485 318 502.0 308.0Q519 298 528 287Z" fill="#b0bec5" stroke="none" transform="scale(1,-1) translate(0,-256)" /><path d="M1018 738Q1002 752 980 756Q971 757 967.0 761.5Q963 766 956 772Q962 773 969.5 772.0Q977 771 986 767Q994 764 1004.0 757.0Q1014 750 1017 742Q1020 740 1018 738Z" fill="#b0bec5" stroke="none" transform="scale(1,-1) translate(0,-256)" /><path d="M800 880Q803 884 807.5 881.5Q812 879 816 878Q821 875 827.0 872.0Q833 869 838 867Q840 866 843 863Q846 860 846 856Q846 855 845 854Q845 854 844.5 854.0Q844 854 843 854Q840 854 834 856Q827 859 819.0 862.0Q811 865 804 868Q799 869 798 872Q796 876 800 880Z" fill="#b0bec5" stroke="none" transform="scale(1,-1) translate(0,-256)" /></svg>