<?xml version="1.0" encoding="utf-8" ?>
<svg baseProfile="full" height="256" version="1.1" width="256" xmlns="http://www.w3.org/2000/svg" xmlns:ev="http://www.w3.org/2001/xml-events" xmlns:xlink="http://www.w3.org/1999/xlink"><defs /><path d="M368 289 426 346Q417 364 396.0 386.0Q375 408 351.5 434.5Q328 461 309.0 493.0Q290 525 284.5 564.5Q279 604 294 651Q304 683 330.5 712.5Q357 742 391 756L371 843Q371 843 351.5 837.5Q332 832 303.0 816.0Q274 800 245.5 768.5Q217 737 200 685Q179 622 185.0 568.0Q191 514 214.0 469.0Q237 424 267.5 389.0Q298 354 326.0 329.0Q354 304 368 289Z" fill="#b9e4ea" stroke="none" transform="scale(1,-1) translate(0,-256)" /></svg>