<?xml version="1.0" encoding="utf-8" ?>
<svg baseProfile="full" height="256" version="1.1" width="256" xmlns="http://www.w3.org/2000/svg" xmlns:ev="http://www.w3.org/2001/xml-events" xmlns:xlink="http://www.w3.org/1999/xlink"><defs /><path d="M391 292Q388 286 384 275Q383 266 385.0 256.5Q387 247 389 237Q395 217 397.0 191.5Q399 166 377 131Q366 114 364.0 94.0Q362 74 365 58Q381 52 403.5 54.5Q426 57 453 82Q470 97 476.0 120.5Q482 144 478 166Q472 204 458.5 223.0Q445 242 427.5 255.5Q410 269 391 292Z" fill="#b55e19" stroke="none" transform="scale(1,-1) translate(0,-256)" /><path d="M743 89Q806 174 843.5 247.0Q881 320 889.0 393.5Q897 467 871 554Q859 593 831.0 627.5Q803 662 766.5 688.0Q730 714 694 725Q645 740 594.0 732.0Q543 724 503 694Q486 682 463.0 652.0Q440 622 424.5 580.0Q409 538 414 490Q421 431 443.0 398.0Q465 365 484 343Q503 321 512.5 306.0Q522 291 526 284Q530 276 532 276Q533 276 535.5 283.5Q538 291 533.5 307.5Q529 324 510 354Q495 376 474.5 409.5Q454 443 448 493Q447 503 447.0 512.5Q447 522 448 531Q461 506 499.5 469.0Q538 432 608 381Q662 341 681.0 299.0Q700 257 695.0 220.5Q690 184 672.0 158.5Q654 133 635 125Q607 114 579.0 103.0Q551 92 530 71Q509 51 504 25Q525 52 550.5 63.5Q576 75 603.0 82.0Q630 89 658 103Q694 121 710.0 143.5Q726 166 731 218Q736 259 722.5 298.0Q709 337 681 367Q671 377 648.0 397.0Q625 417 598.0 440.0Q571 463 549.0 483.5Q527 504 520 515Q504 542 500.0 580.0Q496 618 526 652Q560 676 602.5 683.5Q645 691 686 678Q717 669 749.5 645.5Q782 622 807.5 590.5Q833 559 843 525Q861 465 855.5 411.5Q850 358 828.5 306.0Q807 254 778 196Q752 146 747.5 117.5Q743 89 743 89Z" fill="#b55e19" stroke="none" transform="scale(1,-1) translate(0,-256)" /><path d="M875 154Q870 157 866 153Q825 104 784.0 74.0Q743 44 704.0 18.0Q665 -8 630 -46Q622 -54 605.5 -76.0Q589 -98 562.5 -123.0Q536 -148 497.0 -166.0Q458 -184 405 -184Q398 -184 397 -191Q422 -201 452 -204Q495 -209 529.0 -191.0Q563 -173 590.0 -144.0Q617 -115 640 -87Q653 -71 664.5 -57.5Q676 -44 687 -34Q739 8 787.5 50.5Q836 93 875 154Z" fill="#b55e19" stroke="none" transform="scale(1,-1) translate(0,-256)" /></svg>