<?xml version="1.0" encoding="utf-8" ?>
<svg baseProfile="full" height="256" version="1.1" width="256" xmlns="http://www.w3.org/2000/svg" xmlns:ev="http://www.w3.org/2001/xml-events" xmlns:xlink="http://www.w3.org/1999/xlink"><defs /><path d="M703 227Q720 176 721 123Q721 56 696.0 -2.0Q671 -60 627.0 -104.0Q583 -148 525.0 -173.0Q467 -198 400 -198Q334 -198 276.0 -173.0Q218 -148 173.5 -104.0Q129 -60 104.5 -2.0Q80 56 80 123Q80 177 97 227Q100 240 108.0 256.0Q116 272 123.0 284.0Q130 296 130 296Q130 296 123.5 275.5Q117 255 110.5 222.0Q104 189 105.0 149.5Q106 110 122 71Q143 21 179.5 -21.5Q216 -64 268.0 -89.5Q320 -115 386 -113Q467 -110 522.5 -85.5Q578 -61 612.5 -23.5Q647 14 666.0 56.0Q685 98 693.0 136.0Q701 174 702.0 199.0Q703 224 703 227Z" fill="#5366cf" stroke="none" transform="scale(1,-1) translate(0,-256)" /><path d="M392.245361328125 253.45285034179688Q389.6420440673828 265.2856750488281 382.7147903442383 274.7401809692383Q375.78753662109375 284.19468688964844 365.7549362182617 290.3119201660156Q355.7223358154297 296.4291534423828 343.84798431396484 298.5236511230469Q331.9736328125 300.61814880371094 319.44842529296875 297.904052734375Q306.9232177734375 295.18995666503906 297.0082778930664 288.36656188964844Q287.0933380126953 281.5431671142578 280.57452392578125 271.8013687133789Q274.0557098388672 262.0595703125 271.63233184814453 250.576416015625Q269.2089538574219 239.09326171875 271.8399658203125 227.08734130859375Q274.4709777832031 215.0814208984375 281.38438415527344 205.71346282958984Q288.29779052734375 196.3455047607422 298.3303909301758 190.228271484375Q308.3629913330078 184.1110382080078 320.2511901855469 181.92999267578125Q332.13938903808594 179.7489471435547 344.63690185546875 182.63613891601562Q357.162109375 185.35023498535156 367.0770492553711 192.1736297607422Q376.9919891357422 198.9970245361328 383.51080322265625 208.73882293701172Q390.0296173095703 218.48062133789062 392.45299530029297 229.96377563476562Q394.8763732910156 241.44692993164062 392.245361328125 253.45285034179688Z" fill="#5366cf" stroke="none" transform="scale(1,-1) translate(0,-256)" /></svg>