<?xml version="1.0" encoding="utf-8" ?>
<svg baseProfile="full" height="256" version="1.1" width="256" xmlns="http://www.w3.org/2000/svg" xmlns:ev="http://www.w3.org/2001/xml-events" xmlns:xlink="http://www.w3.org/1999/xlink"><defs /><path d="M720.3642272949219 123.0472412109375Q720.3642272949219 189.2764892578125 695.5282592773438 247.22708129882812Q670.6922912597656 305.17767333984375 626.6498413085938 349.2201232910156Q582.6073913574219 393.2625732421875 524.6567993164062 418.0985412597656Q466.7062072753906 442.93450927734375 399.8146667480469 442.93450927734375Q333.5854187011719 442.93450927734375 275.63482666015625 418.0985412597656Q217.68423461914062 393.2625732421875 173.64178466796875 349.2201232910156Q129.59933471679688 305.17767333984375 104.76336669921875 247.22708129882812Q79.92739868164062 189.2764892578125 79.92739868164062 123.0472412109375Q79.92739868164062 56.15570068359375 104.76336669921875 -1.794891357421875Q129.59933471679688 -59.7454833984375 173.64178466796875 -103.78793334960938Q217.68423461914062 -147.83038330078125 275.63482666015625 -172.66635131835938Q333.5854187011719 -197.5023193359375 399.8146667480469 -197.5023193359375Q466.7062072753906 -197.5023193359375 524.6567993164062 -172.66635131835938Q582.6073913574219 -147.83038330078125 626.6498413085938 -103.78793334960938Q670.6922912597656 -59.7454833984375 695.5282592773438 -1.794891357421875Q720.3642272949219 56.15570068359375 720.3642272949219 123.0472412109375Z" fill="#6678d9" stroke="none" transform="scale(1,-1) translate(0,-256)" /></svg>