<?xml version="1.0" encoding="utf-8" ?>
<svg baseProfile="full" height="256" version="1.1" width="256" xmlns="http://www.w3.org/2000/svg" xmlns:ev="http://www.w3.org/2001/xml-events" xmlns:xlink="http://www.w3.org/1999/xlink"><defs /><path d="M403 542 414 604H889L882 548Z" fill="#bdbdbd" stroke="none" transform="scale(1,-1) translate(0,-256)" /><path d="M557 -45 607 -27 870 -2 923 -53Q923 -53 889.0 -69.0Q855 -85 783.0 -100.5Q711 -116 597 -116Q540 -116 514.5 -111.0Q489 -106 485.0 -97.5Q481 -89 491.0 -80.0Q501 -71 516.5 -63.0Q532 -55 544.5 -50.0Q557 -45 557 -45Z" fill="#bdbdbd" stroke="none" transform="scale(1,-1) translate(0,-256)" /><path d="M914 21H381L388 47L907 49Z" fill="#bdbdbd" stroke="none" transform="scale(1,-1) translate(0,-256)" /></svg>