<?xml version="1.0" encoding="utf-8" ?>
<svg baseProfile="full" height="256" version="1.1" width="256" xmlns="http://www.w3.org/2000/svg" xmlns:ev="http://www.w3.org/2001/xml-events" xmlns:xlink="http://www.w3.org/1999/xlink"><defs /><path d="M344 710Q337 709 342.5 696.5Q348 684 366 676Q376 671 388.0 671.5Q400 672 408 677Q414 680 419.0 686.0Q424 692 424 702Q423 709 411.5 710.0Q400 711 388 711Q372 712 361.0 712.0Q350 712 344 710Z" fill="#323230" stroke="none" transform="scale(1,-1) translate(0,-256)" /><path d="M348 703 410 684Q410 684 409.0 676.5Q408 669 402 658Q397 647 386.0 639.0Q375 631 370 637Q364 644 370.0 650.0Q376 656 380 661Q384 665 387.5 671.0Q391 677 391 677L383 679Q383 679 378.0 672.5Q373 666 366 660Q359 653 348.5 650.0Q338 647 334 653Q330 659 337.0 663.0Q344 667 349 670Q355 672 360.0 676.5Q365 681 365 681L362 692Q362 692 356.0 684.5Q350 677 340 673Q330 668 320.5 668.5Q311 669 311 676Q310 684 318.5 685.5Q327 687 332 690Q342 695 345.0 699.0Q348 703 348 703Z" fill="#323230" stroke="none" transform="scale(1,-1) translate(0,-256)" /></svg>