<?xml version="1.0" encoding="utf-8" ?>
<svg baseProfile="full" height="256" version="1.1" width="256" xmlns="http://www.w3.org/2000/svg" xmlns:ev="http://www.w3.org/2001/xml-events" xmlns:xlink="http://www.w3.org/1999/xlink"><defs /><path d="M850 825Q889 825 913.5 810.5Q938 796 954 775Q972 754 981.5 730.0Q991 706 995.0 689.5Q999 673 999 673Q999 673 991.5 678.5Q984 684 974 698Q970 704 966.5 713.5Q963 723 958.0 729.5Q953 736 941 732Q928 728 929.5 714.5Q931 701 935.5 685.0Q940 669 936.5 655.5Q933 642 911 639Q888 635 882.0 646.5Q876 658 876.0 674.5Q876 691 872.5 704.5Q869 718 851 719Q839 719 834.5 709.5Q830 700 828.5 686.5Q827 673 824.0 660.5Q821 648 812.5 641.5Q804 635 785 641Q768 646 766.5 658.5Q765 671 770.0 685.5Q775 700 777.0 711.5Q779 723 769 725Q756 729 748.0 718.0Q740 707 731 696Q721 684 715.5 682.0Q710 680 710 680Q710 680 716.0 697.5Q722 715 741 752Q757 782 782.5 803.0Q808 824 850 825Z" fill="#e09147" stroke="none" transform="scale(1,-1) translate(0,-256)" /></svg>