<?xml version="1.0" encoding="utf-8" ?>
<svg baseProfile="full" height="256" version="1.1" width="256" xmlns="http://www.w3.org/2000/svg" xmlns:ev="http://www.w3.org/2001/xml-events" xmlns:xlink="http://www.w3.org/1999/xlink"><defs /><path d="M108 662Q108 662 106.0 669.5Q104 677 99.5 683.5Q95 690 89 687Q83 684 83.5 674.0Q84 664 86.5 655.5Q89 647 89 647Q89 647 88.5 631.0Q88 615 87 611Q84 608 82.5 612.0Q81 616 79.0 620.0Q77 624 71 620Q68 618 74.0 600.5Q80 583 94 575Q122 561 143.5 565.5Q165 570 175.5 581.5Q186 593 181 598Q174 606 162.5 600.5Q151 595 139 594Q126 593 119.5 597.5Q113 602 113 602L114 632Q114 632 124.5 635.5Q135 639 147.0 645.0Q159 651 166.0 658.0Q173 665 166 673Q158 681 144.0 677.5Q130 674 119.0 668.0Q108 662 108 662Z" fill="#ba8859" stroke="none" transform="scale(1,-1) translate(0,-256)" /></svg>