<?xml version="1.0" encoding="utf-8" ?>
<svg baseProfile="full" height="256" version="1.1" width="256" xmlns="http://www.w3.org/2000/svg" xmlns:ev="http://www.w3.org/2001/xml-events" xmlns:xlink="http://www.w3.org/1999/xlink"><defs /><path d="M522 717Q522 717 535.0 723.5Q548 730 563.0 741.0Q578 752 585.0 767.5Q592 783 580 801Q570 816 555.5 816.5Q541 817 530.0 812.0Q519 807 519 807Q519 807 511.5 815.0Q504 823 498 828Q488 835 480.0 837.5Q472 840 472 840Q472 840 471.5 849.0Q471 858 464.0 868.0Q457 878 440 878Q422 879 413.0 870.0Q404 861 400.5 851.5Q397 842 397 842Q397 842 378.5 839.0Q360 836 333 823Q309 811 289.0 790.0Q269 769 260 765Q251 761 225.5 758.0Q200 755 174 749Q137 741 113.5 717.5Q90 694 80.0 664.0Q70 634 73.5 607.0Q77 580 92 564Q114 544 133.5 542.0Q153 540 169.0 547.5Q185 555 197.0 564.0Q209 573 216 574Q224 575 243.5 566.0Q263 557 290.5 545.5Q318 534 349.0 526.0Q380 518 410 521Q436 523 463.0 543.5Q490 564 501 584Q508 597 512.5 619.0Q517 641 519.0 663.5Q521 686 521.5 701.5Q522 717 522 717Z" fill="#f6b03e" stroke="none" transform="scale(1,-1) translate(0,-256)" /><path d="M407 435Q443 443 461.0 457.0Q479 471 485.0 483.0Q491 495 491 495Q491 495 491.0 477.0Q491 459 495.5 437.0Q500 415 515 402Q528 391 542.0 389.5Q556 388 565.5 390.0Q575 392 575 392Q575 392 578.0 413.5Q581 435 596 470Q607 493 625.5 508.5Q644 524 660.0 533.0Q676 542 679 544Q682 546 684.5 563.0Q687 580 691.5 604.5Q696 629 702.0 654.5Q708 680 717 698Q736 734 777.0 756.0Q818 778 863 782Q893 785 918.0 772.0Q943 759 961.5 738.0Q980 717 990 697Q997 681 1005.5 652.0Q1014 623 1021.5 592.5Q1029 562 1033.5 541.0Q1038 520 1038 520Q1038 520 1055.5 511.5Q1073 503 1095.5 483.5Q1118 464 1132 430Q1147 396 1154.0 351.5Q1161 307 1164.0 267.5Q1167 228 1171 208Q1174 188 1182.5 176.5Q1191 165 1196.0 157.0Q1201 149 1193 141Q1181 130 1164.5 146.5Q1148 163 1136 184Q1127 197 1121.0 216.0Q1115 235 1112.0 249.5Q1109 264 1109 264Q1109 264 1107.5 253.0Q1106 242 1104.5 227.0Q1103 212 1101 200Q1097 183 1093.0 165.0Q1089 147 1087 136Q1086 131 1090.0 113.0Q1094 95 1099.5 73.0Q1105 51 1109.5 32.0Q1114 13 1114 5Q1114 -3 1109.0 -21.0Q1104 -39 1098.0 -60.5Q1092 -82 1087.0 -100.0Q1082 -118 1082 -125Q1082 -140 1075.0 -154.0Q1068 -168 1036 -171Q1005 -174 981.5 -172.5Q958 -171 956 -154Q954 -143 964.0 -127.5Q974 -112 984.5 -100.0Q995 -88 995 -88Q995 -88 998.0 -74.0Q1001 -60 1005.0 -40.5Q1009 -21 1012.0 -5.5Q1015 10 1015 12Q1015 17 1012.0 28.5Q1009 40 1004 57Q1000 68 992.5 87.5Q985 107 978.0 122.0Q971 137 971 137Q971 137 950.0 127.0Q929 117 889 112Q848 106 815.0 105.5Q782 105 782 105Q782 105 782.0 92.0Q782 79 782 64Q782 49 784.5 29.0Q787 9 787 1Q787 -8 782.5 -21.5Q778 -35 775 -49Q773 -58 769.0 -74.0Q765 -90 762.0 -103.0Q759 -116 759 -116Q759 -116 759.0 -131.5Q759 -147 756 -158Q750 -178 730.0 -184.5Q710 -191 692 -191Q673 -191 651.5 -187.5Q630 -184 622 -174Q614 -164 622.0 -151.0Q630 -138 640.0 -128.0Q650 -118 650 -118Q650 -118 654.5 -103.0Q659 -88 665.0 -65.5Q671 -43 676.0 -22.0Q681 -1 682 10Q683 21 680.5 39.5Q678 58 674.5 76.5Q671 95 668.0 107.5Q665 120 665 120Q665 120 660.0 121.0Q655 122 651 124Q647 126 640.5 130.0Q634 134 634 134Q634 134 625.5 132.5Q617 131 596 130Q574 128 531.0 132.0Q488 136 444 152Q401 168 369.0 200.0Q337 232 323 271Q315 293 310.5 324.0Q306 355 304.0 385.0Q302 415 301.5 435.0Q301 455 301 455Q301 455 317.5 448.0Q334 441 358.0 435.5Q382 430 407 435Z" fill="#f6b03e" stroke="none" transform="scale(1,-1) translate(0,-256)" /></svg>