<?xml version="1.0" encoding="utf-8" ?>
<svg baseProfile="full" height="256" version="1.1" width="256" xmlns="http://www.w3.org/2000/svg" xmlns:ev="http://www.w3.org/2001/xml-events" xmlns:xlink="http://www.w3.org/1999/xlink"><defs /><path d="M1188 419Q1196 402 1199.0 380.5Q1202 359 1201.0 340.5Q1200 322 1195 315Q1187 304 1174.0 299.0Q1161 294 1135 283Q1112 274 1094.0 259.5Q1076 245 1076 245Q1076 245 1072.5 223.0Q1069 201 1061.5 166.5Q1054 132 1043.5 96.0Q1033 60 1018 32Q1005 8 982.0 -21.5Q959 -51 917.0 -78.0Q875 -105 807.0 -122.0Q739 -139 636 -137Q533 -135 464.5 -118.0Q396 -101 353.5 -75.5Q311 -50 286.5 -21.0Q262 8 247 34Q232 61 222.0 99.5Q212 138 205.5 176.0Q199 214 195.5 240.5Q192 267 190 269Q187 275 174.0 283.5Q161 292 145 300Q129 309 110.5 313.5Q92 318 78 341Q71 353 73.5 376.0Q76 399 85.0 423.0Q94 447 107.5 465.0Q121 483 136 484Q157 487 176.0 479.5Q195 472 207.5 464.0Q220 456 220 456Q220 456 244.5 474.5Q269 493 320.0 517.0Q371 541 450.5 558.5Q530 576 641 574Q756 573 837.0 552.5Q918 532 969.0 506.0Q1020 480 1043.5 460.0Q1067 440 1067 440Q1067 440 1081.5 446.5Q1096 453 1112.5 459.5Q1129 466 1137 466Q1148 466 1161.5 455.5Q1175 445 1188 419ZM646 155Q791 153 884.0 181.5Q977 210 1022.5 254.0Q1068 298 1069 344Q1069 390 1015.5 434.0Q962 478 862.0 507.5Q762 537 624 538Q523 539 446.0 521.0Q369 503 317.0 474.5Q265 446 238.5 414.5Q212 383 211 357Q209 304 256.0 258.5Q303 213 400.5 184.5Q498 156 646 155Z" fill="#6a6e70" stroke="none" transform="scale(1,-1) translate(0,-256)" /></svg>