<?xml version="1.0" encoding="utf-8" ?>
<svg baseProfile="full" height="256" version="1.1" width="256" xmlns="http://www.w3.org/2000/svg" xmlns:ev="http://www.w3.org/2001/xml-events" xmlns:xlink="http://www.w3.org/1999/xlink"><defs /><path d="M630 354Q632 368 651.0 367.5Q670 367 684 357Q693 350 701.5 335.5Q710 321 714.0 307.0Q718 293 713 288Q705 280 696.0 282.0Q687 284 684 290Q684 292 678.5 305.5Q673 319 666 328Q660 336 653.5 338.5Q647 341 642 342Q637 343 633.0 345.0Q629 347 630 354Z" fill="#fbe0bc" stroke="none" transform="scale(1,-1) translate(0,-256)" /></svg>