<?xml version="1.0" encoding="utf-8" ?>
<svg baseProfile="full" height="256" version="1.1" width="256" xmlns="http://www.w3.org/2000/svg" xmlns:ev="http://www.w3.org/2001/xml-events" xmlns:xlink="http://www.w3.org/1999/xlink"><defs /><path d="M511 270Q507 271 503.0 276.5Q499 282 499 287Q499 292 506.0 301.5Q513 311 518 312Q528 314 536.0 306.0Q544 298 543 287Q543 276 530.5 271.5Q518 267 511 270Z" fill="#92a51e" stroke="none" transform="scale(1,-1) translate(0,-256)" /><path d="M558 355Q558 359 567.0 368.0Q576 377 586 377Q594 377 596.5 361.0Q599 345 593 339Q586 334 572.5 340.5Q559 347 558 355Z" fill="#92a51e" stroke="none" transform="scale(1,-1) translate(0,-256)" /><path d="M582 301Q582 306 590.0 319.0Q598 332 603 332Q611 332 624.0 319.5Q637 307 637 301Q637 295 625.5 286.5Q614 278 603 278Q592 278 587.0 288.0Q582 298 582 301Z" fill="#92a51e" stroke="none" transform="scale(1,-1) translate(0,-256)" /><path d="M625 330Q624 341 638.0 346.0Q652 351 655 350Q658 348 663.0 340.5Q668 333 669.0 324.0Q670 315 663 312Q651 306 638.5 314.5Q626 323 625 330Z" fill="#92a51e" stroke="none" transform="scale(1,-1) translate(0,-256)" /><path d="M711 353Q722 353 728.5 345.5Q735 338 735 336Q735 334 732.5 324.0Q730 314 719 315Q708 316 704.0 323.5Q700 331 699 340Q699 354 711 353Z" fill="#92a51e" stroke="none" transform="scale(1,-1) translate(0,-256)" /><path d="M716 292Q728 289 734.5 275.5Q741 262 739 256Q738 250 730.0 249.5Q722 249 709 250Q682 253 683 271Q683 279 697.0 286.0Q711 293 716 292Z" fill="#92a51e" stroke="none" transform="scale(1,-1) translate(0,-256)" /></svg>