<?xml version="1.0" encoding="utf-8" ?>
<svg baseProfile="full" height="256" version="1.1" width="256" xmlns="http://www.w3.org/2000/svg" xmlns:ev="http://www.w3.org/2001/xml-events" xmlns:xlink="http://www.w3.org/1999/xlink"><defs /><path d="M635 413Q628 413 607.5 426.0Q587 439 566.0 464.5Q545 490 534.5 525.0Q524 560 536 602Q546 638 568.0 659.0Q590 680 615.5 694.5Q641 709 660.5 723.5Q680 738 686 761Q691 783 680.5 797.5Q670 812 655.0 821.5Q640 831 630.0 837.0Q620 843 626 847Q644 862 678.5 861.0Q713 860 749.5 844.0Q786 828 812.0 800.0Q838 772 839 733Q840 697 823.0 674.0Q806 651 779.5 630.5Q753 610 725.0 583.5Q697 557 676 515Q663 491 660.0 468.0Q657 445 653.5 430.0Q650 415 635 413Z" fill="#eaeaea" stroke="none" transform="scale(1,-1) translate(0,-256)" /></svg>