<?xml version="1.0" encoding="utf-8" ?>
<svg baseProfile="full" height="256" version="1.1" width="256" xmlns="http://www.w3.org/2000/svg" xmlns:ev="http://www.w3.org/2001/xml-events" xmlns:xlink="http://www.w3.org/1999/xlink"><defs /><path d="M360.52606201171875 468.0812072753906Q376.4106903076172 462.7257385253906 386.57373046875 447.49532318115234Q396.7367706298828 432.26490783691406 412.26470947265625 410.91334533691406Q427.7926483154297 389.56178283691406 461.2938995361328 366.80918884277344Q483.9538879394531 351.30010986328125 510.43627166748047 350.20946502685547Q536.9186553955078 349.1188201904297 559.0024566650391 352.6273956298828Q581.0862579345703 356.13597106933594 591.0392303466797 353.9135284423828Q605.9909820556641 351.5796203613281 622.3309020996094 344.21349334716797Q638.6708221435547 336.8473663330078 638.6708221435547 336.8473663330078Q638.6708221435547 336.8473663330078 622.0745315551758 332.71630096435547Q605.4782409667969 328.5852355957031 577.7491607666016 296.19520568847656Q551.0421295166016 264.7826385498047 551.7280654907227 228.25811004638672Q552.4140014648438 191.73358154296875 575.7393493652344 161.20587158203125Q600.9973297119141 127.63430786132812 636.377197265625 121.84412384033203Q671.7570648193359 116.05393981933594 706.4398498535156 146.2884063720703Q723.7923889160156 161.905517578125 746.5878524780273 174.90062713623047Q769.3833160400391 187.89573669433594 792.9890441894531 192.3706283569336Q816.5947723388672 196.84552001953125 837.2998352050781 183.3805389404297Q857.0051422119141 169.93785095214844 865.0237655639648 148.25360870361328Q873.0423889160156 126.56936645507812 874.1630401611328 109.54007720947266Q875.28369140625 92.51078796386719 875.28369140625 92.51078796386719Q875.28369140625 92.51078796386719 884.8259582519531 94.29851531982422Q894.3682250976562 96.08624267578125 907.3316116333008 94.29679870605469Q920.2949981689453 92.50735473632812 929.0698699951172 82.30915832519531Q942.7320556640625 67.00071716308594 944.1408004760742 40.46260070800781Q945.5495452880859 13.924484252929688 933.9280242919922 -13.823455810546875Q926.5061645507812 -32.66276550292969 924.4714965820312 -56.62346649169922Q922.4368286132812 -80.58416748046875 931.9439392089844 -102.80172729492188Q941.4510498046875 -125.019287109375 969.1766967773438 -137.64056396484375Q992.9479064941406 -148.17315673828125 1013.0321960449219 -144.6199951171875Q1033.1164855957031 -141.06683349609375 1047.8358764648438 -131.39252471923828Q1062.5552673339844 -121.71821594238281 1071.2426834106445 -113.40978240966797Q1079.9300994873047 -105.10134887695312 1081.9296112060547 -105.14593505859375Q1084.9065856933594 -106.21257019042969 1085.5607986450195 -121.7310791015625Q1086.2150115966797 -137.2495880126953 1079.7260284423828 -159.11045837402344Q1073.237045288086 -180.97132873535156 1054.3068466186523 -200.05414581298828Q1035.3766479492188 -219.136962890625 999.2070922851562 -226.33245849609375Q973.0796813964844 -231.75137329101562 953.6847610473633 -226.81775665283203Q934.2898406982422 -221.88414001464844 923.4485778808594 -214.640625Q912.6073150634766 -207.39710998535156 912.6073150634766 -207.39710998535156Q912.6073150634766 -207.39710998535156 904.9976806640625 -212.22869110107422Q897.3880462646484 -217.06027221679688 883.3468780517578 -218.7476806640625Q869.3057098388672 -220.43508911132812 850.4886932373047 -212.0134735107422Q796.0594482421875 -185.79345703125 786.3551330566406 -127.56239318847656Q781.8690948486328 -104.45654296875 779.3491287231445 -82.89491271972656Q776.8291625976562 -61.333282470703125 767.5878524780273 -49.624305725097656Q758.3465423583984 -37.91532897949219 735.2183990478516 -43.401123046875Q721.1549377441406 -46.088287353515625 702.8249359130859 -60.683349609375Q684.4949340820312 -75.27841186523438 660.0660781860352 -94.23861694335938Q635.6372222900391 -113.19882202148438 605.2878570556641 -128.526123046875Q574.9384918212891 -143.85342407226562 536.8140106201172 -149.00482177734375Q498.6895294189453 -154.15621948242188 452.96827697753906 -141.1336669921875Q403.2702941894531 -127.02218627929688 374.2679443359375 -104.36991119384766Q345.2655944824219 -81.71763610839844 330.8265838623047 -56.38934326171875Q316.3875732421875 -31.061050415039062 311.91268157958984 -7.455322265625Q307.4377899169922 16.150405883789062 307.7944793701172 32.14649963378906Q308.1511688232422 48.14259338378906 307.2182922363281 51.164154052734375Q306.3300018310547 56.18522644042969 292.9559097290039 61.984840393066406Q279.5818176269531 67.78445434570312 263.93126678466797 83.63735961914062Q248.2807159423828 99.49026489257812 238.08595275878906 135.72669982910156Q226.95831298828125 174.9846954345703 232.07027435302734 202.3776626586914Q237.18223571777344 229.7706298828125 251.64697265625 250.45339965820312Q266.11170959472656 271.13616943359375 284.99732208251953 288.21947479248047Q303.8829345703125 305.3027801513672 321.30235290527344 323.9191589355469Q338.7217712402344 342.53553771972656 348.2546081542969 366.32904052734375Q362.0316925048828 401.0306854248047 361.15626525878906 429.05728912353516Q360.2808380126953 457.0838928222656 360.52606201171875 468.0812072753906Z" fill="#000000" stroke="none" transform="scale(1,-1) translate(0,-256)" /><path d="M-545.9524688720703 115.36476135253906Q-526.8342742919922 103.78355407714844 -516.7847366333008 92.29954528808594Q-506.7351989746094 80.81553649902344 -502.5699691772461 70.74580383300781Q-498.4047393798828 60.67607116699219 -497.01036071777344 53.15320587158203Q-495.61598205566406 45.630340576171875 -494.5997772216797 42.6990966796875Q-492.1420135498047 37.94352722167969 -475.95411682128906 24.31243133544922Q-459.76622009277344 10.68133544921875 -441.74092864990234 -5.1379241943359375Q-423.71563720703125 -20.957183837890625 -416.1415252685547 -31.913406372070312Q-408.5674133300781 -42.86962890625 -411.3498764038086 -54.292381286621094Q-414.13233947753906 -65.71513366699219 -419.43160247802734 -75.3238296508789Q-424.7308654785156 -84.93252563476562 -424.99072265625 -91.18452453613281Q-425.6168975830078 -95.6019287109375 -420.02196502685547 -104.73896026611328Q-414.4270324707031 -113.87599182128906 -406.7111358642578 -124.46324157714844Q-398.9952392578125 -135.0504913330078 -393.796142578125 -143.8236846923828Q-388.5970458984375 -152.5968780517578 -390.94834899902344 -155.9279022216797Q-396.7852325439453 -165.54173278808594 -417.8409881591797 -170.1542510986328Q-438.89674377441406 -174.7667694091797 -494.1240692138672 -167.9418487548828Q-517.5785522460938 -164.85728454589844 -559.7730560302734 -154.78313446044922Q-601.9675598144531 -144.708984375 -653.0831298828125 -127.18385314941406Q-704.1986999511719 -109.65872192382812 -754.699951171875 -84.95915985107422Q-805.2012023925781 -60.25959777832031 -846.9529342651367 -28.124099731445312Q-888.7046661376953 4.0113983154296875 -912.1006011962891 43.49076843261719Q-935.8628540039062 84.80473327636719 -933.1101531982422 111.4833755493164Q-930.3574523925781 138.16201782226562 -909.1659622192383 152.88534545898438Q-887.9744720458984 167.60867309570312 -855.4160079956055 172.88247680664062Q-822.8575439453125 178.15628051757812 -787.5458908081055 176.65543365478516Q-752.2342376708984 175.1545867919922 -722.2455596923828 169.55909729003906Q-672.1699066162109 160.47926330566406 -635.2393417358398 149.25198364257812Q-598.3087768554688 138.0247039794922 -575.6517715454102 128.6830062866211Q-552.9947662353516 119.34130859375 -545.9524688720703 115.36476135253906Z" fill="#000000" stroke="none" transform="scale(1,-1) translate(0,-256)" /><path d="M-529.0855407714844 30.205947875976562Q-529.0855407714844 30.205947875976562 -523.6483306884766 23.914390563964844Q-518.2111206054688 17.622833251953125 -511.8411636352539 9.718521118164062Q-505.47120666503906 1.814208984375 -502.91021728515625 -2.31768798828125Q-500.34922790527344 -6.4495849609375 -488.76305389404297 -21.15180206298828Q-477.1768798828125 -35.85401916503906 -464.19971466064453 -52.36901092529297Q-451.22254943847656 -68.88400268554688 -445.6260681152344 -78.56053161621094Q-441.1995849609375 -85.91793823242188 -443.5654754638672 -96.338623046875Q-445.9313659667969 -106.75930786132812 -451.0304641723633 -117.19258880615234Q-456.1295623779297 -127.62586975097656 -460.45518493652344 -136.28693389892578Q-464.7808074951172 -144.947998046875 -465.1902770996094 -148.38612365722656Q-466.9257049560547 -154.86233520507812 -465.4371643066406 -163.95140075683594Q-463.94862365722656 -173.04046630859375 -461.1341247558594 -179.09144592285156Q-459.4896240234375 -182.82330322265625 -460.70177459716797 -194.35039520263672Q-461.91392517089844 -205.8774871826172 -470.07772064208984 -217.0828857421875Q-478.24151611328125 -228.2882843017578 -497.79969787597656 -230.60186767578125Q-522.3497924804688 -234.35337829589844 -558.4860610961914 -223.40267181396484Q-594.6223297119141 -212.45196533203125 -619.2440795898438 -193.86825561523438Q-643.6448364257812 -174.7781982421875 -660.5544128417969 -162.27342987060547Q-677.4639892578125 -149.76866149902344 -709.7946014404297 -133.8481903076172Q-721.4879608154297 -128.14132690429688 -739.0279998779297 -119.5810317993164Q-756.5680389404297 -111.02073669433594 -775.0733413696289 -98.42225646972656Q-793.5786437988281 -85.82377624511719 -809.5425262451172 -67.40229797363281Q-825.5064086914062 -48.98081970214844 -833.8264617919922 -23.045242309570312Q-842.6535339355469 6.7285003662109375 -833.5440444946289 23.850608825683594Q-824.4345550537109 40.97271728515625 -807.3431243896484 48.88408660888672Q-790.2516937255859 56.79545593261719 -776.6344299316406 60.49658203125Q-754.6128082275391 65.95455932617188 -736.6991271972656 72.0Q-718.7854461669922 78.04544067382812 -703.4327545166016 88.2227783203125Q-683.3416595458984 101.75712585449219 -654.5568695068359 103.96163177490234Q-625.7720794677734 106.1661376953125 -586.1095581054688 87.04534912109375Q-559.2778778076172 73.52511596679688 -546.9344863891602 61.807830810546875Q-534.5910949707031 50.090545654296875 -531.7440795898438 41.6141357421875Q-528.8970642089844 33.137725830078125 -529.0855407714844 30.205947875976562Z" fill="#000000" stroke="none" transform="scale(1,-1) translate(0,-256)" /></svg>