<?xml version="1.0" encoding="utf-8" ?>
<svg baseProfile="full" height="256" version="1.1" width="256" xmlns="http://www.w3.org/2000/svg" xmlns:ev="http://www.w3.org/2001/xml-events" xmlns:xlink="http://www.w3.org/1999/xlink"><defs /><path d="M436 310Q455 308 453 289Q451 269 432 270Q413 272 415 291Q416 312 436 310Z" fill="#f5eceb" stroke="none" transform="scale(1,-1) translate(0,-256)" /><path d="M397 176Q418 177 418 156Q417 135 399 135Q390 135 383.5 140.0Q377 145 378 154Q378 175 397 176Z" fill="#f5eceb" stroke="none" transform="scale(1,-1) translate(0,-256)" /><path d="M297 272Q306 273 311.0 267.0Q316 261 315 252Q314 235 296 235Q287 235 283.0 240.5Q279 246 279 253Q278 260 282.5 265.5Q287 271 297 272Z" fill="#f5eceb" stroke="none" transform="scale(1,-1) translate(0,-256)" /><path d="M563 135Q582 135 580 117Q579 99 563 100Q555 100 551.0 105.5Q547 111 546 117Q546 123 550.0 129.0Q554 135 563 135Z" fill="#f5eceb" stroke="none" transform="scale(1,-1) translate(0,-256)" /><path d="M415 24Q435 22 433 2Q431 -17 412 -16Q392 -14 394 5Q395 25 415 24Z" fill="#f5eceb" stroke="none" transform="scale(1,-1) translate(0,-256)" /><path d="M539 -51Q556 -52 555 -70Q553 -87 536 -86Q519 -84 521 -67Q522 -49 539 -51Z" fill="#f5eceb" stroke="none" transform="scale(1,-1) translate(0,-256)" /><path d="M696 72Q704 74 710.5 69.5Q717 65 719 57Q723 38 706 34Q698 32 692.5 36.5Q687 41 685 48Q682 54 685.0 62.0Q688 70 696 72Z" fill="#f5eceb" stroke="none" transform="scale(1,-1) translate(0,-256)" /><path d="M789 148H790Q807 148 806 131Q805 115 789 116Q781 116 777.5 121.0Q774 126 773 132Q773 138 777.0 143.0Q781 148 789 148Z" fill="#f5eceb" stroke="none" transform="scale(1,-1) translate(0,-256)" /></svg>