<?xml version="1.0" encoding="utf-8" ?>
<svg baseProfile="full" height="256" version="1.1" width="256" xmlns="http://www.w3.org/2000/svg" xmlns:ev="http://www.w3.org/2001/xml-events" xmlns:xlink="http://www.w3.org/1999/xlink"><defs /><path d="M649 135Q681 134 714.5 146.0Q748 158 770 168Q793 178 812.5 180.0Q832 182 850 182Q867 183 885.0 184.5Q903 186 922 194Q952 207 967.5 227.0Q983 247 990.5 271.0Q998 295 1003 318Q1006 334 1009.5 351.0Q1013 368 1020 381Q1036 413 1053.0 428.0Q1070 443 1070 444Q1075 447 1078.5 452.0Q1082 457 1079 462Q1075 466 1069.5 464.0Q1064 462 1059 459Q1054 456 1033.5 438.5Q1013 421 997 390Q988 375 983.5 358.0Q979 341 976 324Q969 291 957.5 263.0Q946 235 911 220Q895 213 880.5 211.5Q866 210 849 210Q830 210 807.5 207.5Q785 205 759 193Q700 168 658.5 163.0Q617 158 599 192Q586 217 593.0 239.5Q600 262 615.5 279.5Q631 297 644.5 307.5Q658 318 658 318Q670 325 662 337Q655 349 643 341Q642 341 627.5 330.5Q613 320 595 298Q545 237 575 180Q587 155 607.0 145.5Q627 136 649 135Z" fill="#0284ff" stroke="none" transform="scale(1,-1) translate(0,-256)" /><path d="M797 -209Q803 -213 811.0 -214.5Q819 -216 821 -213Q824 -208 816.5 -200.0Q809 -192 801 -187Q796 -184 773.0 -170.5Q750 -157 715.0 -138.5Q680 -120 641 -104Q630 -100 618.5 -96.0Q607 -92 595 -87Q548 -70 493.5 -45.5Q439 -21 376 33Q320 81 295.0 124.0Q270 167 264.0 200.0Q258 233 259 249Q261 273 269.5 292.0Q278 311 290 332Q295 342 300.0 352.0Q305 362 310 373Q321 396 324.0 423.0Q327 450 326.5 469.0Q326 488 326 490Q324 503 311 502Q297 501 298 487Q298 487 298.5 469.5Q299 452 296.5 428.0Q294 404 285 384Q281 374 275.5 364.5Q270 355 265 346Q253 324 243.5 301.5Q234 279 232 251Q230 228 237.5 191.0Q245 154 272.0 108.0Q299 62 358 12Q424 -44 481.5 -70.5Q539 -97 586 -113Q598 -118 609.0 -122.0Q620 -126 631 -130Q669 -145 705.5 -162.5Q742 -180 767.0 -193.5Q792 -207 797 -209Z" fill="#0284ff" stroke="none" transform="scale(1,-1) translate(0,-256)" /><path d="M614 22Q671 21 720.0 42.0Q769 63 804 82Q813 87 821.0 91.5Q829 96 836 99Q851 106 866.0 109.0Q881 112 896 113Q918 116 943.0 121.5Q968 127 998 147Q1037 173 1049.5 199.5Q1062 226 1065 234Q1067 239 1067.0 248.5Q1067 258 1062 260Q1057 262 1053.0 256.0Q1049 250 1047 244Q1047 244 1041.0 231.0Q1035 218 1021.5 200.5Q1008 183 986 168Q960 151 937.0 147.0Q914 143 893 141Q877 139 860.0 136.0Q843 133 824 124Q817 121 808.5 116.5Q800 112 791 107Q764 92 731.0 76.5Q698 61 660.0 53.0Q622 45 582 53Q537 62 498.5 87.0Q460 112 439.5 152.5Q419 193 428 248Q434 287 449.5 321.0Q465 355 482.0 380.5Q499 406 511.0 420.5Q523 435 524 435Q533 445 523 455Q513 465 504 455Q502 453 489.0 437.5Q476 422 458.0 394.5Q440 367 424.0 331.0Q408 295 401 252Q391 198 410.5 151.0Q430 104 473.0 71.0Q516 38 576 26Q595 23 614 22Z" fill="#0284ff" stroke="none" transform="scale(1,-1) translate(0,-256)" /><path d="M368 488Q390 474 398.5 459.0Q407 444 417.5 428.5Q428 413 457 397Q486 382 508.5 382.5Q531 383 554.5 386.0Q578 389 607 380Q629 374 646.5 357.5Q664 341 683 332Q709 319 729.5 321.0Q750 323 751 318Q753 312 729.5 304.5Q706 297 674 305Q654 310 644.5 316.0Q635 322 629.5 329.0Q624 336 616.0 342.0Q608 348 590 352Q572 356 552.0 353.0Q532 350 508.0 349.5Q484 349 455 360Q423 372 408.0 387.5Q393 403 384.0 419.0Q375 435 361 448Q347 461 336.0 463.0Q325 465 310.5 468.0Q296 471 271 485Q245 498 234.0 518.5Q223 539 222.0 555.5Q221 572 226 574Q232 576 234.5 569.0Q237 562 244.5 549.5Q252 537 273 523Q288 514 302.0 511.0Q316 508 332.0 504.0Q348 500 368 488Z" fill="#0284ff" stroke="none" transform="scale(1,-1) translate(0,-256)" /><path d="M498 -185Q517 -186 526.0 -184.0Q535 -182 535 -182Q541 -181 546.5 -176.5Q552 -172 551 -167Q550 -161 540.0 -160.5Q530 -160 524 -160Q521 -161 499.0 -161.5Q477 -162 444.5 -155.0Q412 -148 377.5 -124.5Q343 -101 316 -53Q286 1 285.5 43.5Q285 86 302.5 123.0Q320 160 342 197Q356 220 369.0 243.5Q382 267 390 292Q406 338 410.0 366.5Q414 395 413.0 410.0Q412 425 411 430Q411 436 405.0 443.0Q399 450 394 448Q380 446 383 432Q383 432 384.5 397.5Q386 363 364 301Q356 278 344.0 256.0Q332 234 318 212Q295 173 275.5 131.5Q256 90 256.0 41.5Q256 -7 290 -68Q318 -118 356.5 -143.0Q395 -168 433.0 -176.5Q471 -185 498 -185Z" fill="#0284ff" stroke="none" transform="scale(1,-1) translate(0,-256)" /><path d="M736 -83Q786 -84 827.0 -70.0Q868 -56 902.5 -35.0Q937 -14 967 7Q989 23 1008.5 37.5Q1028 52 1048 58Q1082 70 1103.0 69.5Q1124 69 1136.0 63.5Q1148 58 1155 54Q1161 51 1166.5 47.0Q1172 43 1176 47Q1180 52 1176.0 58.0Q1172 64 1167 67Q1166 68 1152.5 78.0Q1139 88 1111.5 92.5Q1084 97 1042 83Q1020 75 997.5 60.5Q975 46 951 30Q920 8 886.5 -12.0Q853 -32 814.0 -43.5Q775 -55 727.0 -52.0Q679 -49 621 -25Q563 -1 530.5 41.0Q498 83 485.5 128.0Q473 173 476 205Q481 252 496.5 285.0Q512 318 526.5 336.0Q541 354 542 355Q552 364 542 374Q532 384 522 374Q521 373 505.0 353.0Q489 333 471.5 296.5Q454 260 449 208Q444 162 460.5 110.5Q477 59 514.0 14.5Q551 -30 608 -54Q644 -68 676.0 -75.0Q708 -82 736 -83Z" fill="#0284ff" stroke="none" transform="scale(1,-1) translate(0,-256)" /></svg>