<?xml version="1.0" encoding="utf-8" ?>
<svg baseProfile="full" height="256" version="1.1" width="256" xmlns="http://www.w3.org/2000/svg" xmlns:ev="http://www.w3.org/2001/xml-events" xmlns:xlink="http://www.w3.org/1999/xlink"><defs /><path d="M602 551 512 556Q512 556 502.5 579.0Q493 602 483.5 641.5Q474 681 474 731Q473 773 480.0 815.0Q487 857 505.0 885.5Q523 914 553 915Q596 917 615.5 873.5Q635 830 637 746Q639 690 630.0 646.0Q621 602 611.5 576.5Q602 551 602 551Z" fill="#a8a8a8" stroke="none" transform="scale(1,-1) translate(0,-256)" /><path d="M475 221 664 238 725 197 499 71 380 164Q380 164 381.5 176.0Q383 188 383 195Q384 201 382.5 207.0Q381 213 381 213Z" fill="#a8a8a8" stroke="none" transform="scale(1,-1) translate(0,-256)" /><path d="M796 137 838 146 865 -148Q865 -148 844.5 -156.0Q824 -164 794.5 -173.5Q765 -183 739.0 -188.5Q713 -194 701 -190Q685 -183 683.0 -167.5Q681 -152 692 -136Q699 -126 712.0 -115.5Q725 -105 736.0 -97.5Q747 -90 747 -90Q747 -90 741.5 -84.5Q736 -79 732 -74Q728 -68 723.0 -62.0Q718 -56 718 -56Q718 -56 709.0 -64.5Q700 -73 688 -85Q676 -98 669.0 -124.0Q662 -150 648 -174Q635 -198 609.5 -205.0Q584 -212 564 -208Q554 -206 551.0 -186.5Q548 -167 549.0 -143.0Q550 -119 552.0 -100.5Q554 -82 554 -82Q554 -82 548.0 -95.0Q542 -108 531.5 -125.5Q521 -143 507.5 -157.5Q494 -172 479 -176Q458 -180 437.5 -176.0Q417 -172 411 -166Q406 -160 413.0 -144.5Q420 -129 432.0 -112.5Q444 -96 454.5 -84.0Q465 -72 465 -72Z" fill="#a8a8a8" stroke="none" transform="scale(1,-1) translate(0,-256)" /></svg>