<?xml version="1.0" encoding="utf-8" ?>
<svg baseProfile="full" height="256" version="1.1" width="256" xmlns="http://www.w3.org/2000/svg" xmlns:ev="http://www.w3.org/2001/xml-events" xmlns:xlink="http://www.w3.org/1999/xlink"><defs /><path d="M220 341Q220 341 221 341Q221 341 236.5 343.0Q252 345 271 346Q293 346 302.5 346.0Q312 346 330 342Q339 341 341 350Q343 359 333 361Q314 364 303.5 364.5Q293 365 271 364Q251 364 235.0 362.0Q219 360 219 360Q209 358 211 349Q212 341 220 341Z" fill="#8e9395" stroke="none" transform="scale(1,-1) translate(0,-256)" /><path d="M210 276Q211 276 213 276Q213 276 231.5 280.5Q250 285 264 288Q278 290 298.5 292.5Q319 295 319 295Q328 296 327 306Q326 315 317 314Q315 314 295.0 311.5Q275 309 261 306Q246 303 227.5 299.0Q209 295 208 295Q199 292 201 283Q203 276 210 276Z" fill="#8e9395" stroke="none" transform="scale(1,-1) translate(0,-256)" /><path d="M567 301Q574 301 576 307Q579 316 571 319Q570 319 550.0 326.0Q530 333 513 337L462 348Q452 350 450 341Q449 331 458 329L509 319Q525 315 544.5 308.0Q564 301 564 301Q566 301 567 301Z" fill="#8e9395" stroke="none" transform="scale(1,-1) translate(0,-256)" /><path d="M557 238Q562 238 565 242Q570 250 562 255Q562 255 543.5 266.0Q525 277 505 289Q484 300 468.0 307.0Q452 314 452 314Q443 318 440 309Q436 300 445 297Q445 297 460.5 290.0Q476 283 496 272Q516 261 534.0 250.5Q552 240 552 240Q554 238 557 238Z" fill="#8e9395" stroke="none" transform="scale(1,-1) translate(0,-256)" /></svg>