<?xml version="1.0" encoding="utf-8" ?>
<svg baseProfile="full" height="256" version="1.1" width="256" xmlns="http://www.w3.org/2000/svg" xmlns:ev="http://www.w3.org/2001/xml-events" xmlns:xlink="http://www.w3.org/1999/xlink"><defs /><path d="M80 403Q80 403 91.0 380.0Q102 357 120.0 318.5Q138 280 160.0 234.0Q182 188 204.0 142.0Q226 96 244.5 57.5Q263 19 274.0 -5.0Q285 -29 286 -31Q286 -32 305.5 -41.5Q325 -51 355.5 -65.0Q386 -79 420.5 -94.5Q455 -110 485.0 -123.5Q515 -137 534.5 -145.5Q554 -154 554 -154L888 -93L1115 203Q1115 203 1121.0 220.0Q1127 237 1136.0 263.5Q1145 290 1155.5 318.0Q1166 346 1175.0 368.5Q1184 391 1190.0 401.0Q1196 411 1196 400Q1196 391 1197.0 352.0Q1198 313 1189.0 254.5Q1180 196 1153.0 127.5Q1126 59 1070 -9Q987 -111 876.0 -161.5Q765 -212 618 -209Q462 -205 350.0 -139.0Q238 -73 167 33Q124 98 104.5 163.5Q85 229 80.5 283.0Q76 337 78.0 370.0Q80 403 80 403Z" fill="#474c4f" stroke="none" transform="scale(1,-1) translate(0,-256)" /><path d="M489 390 470 381Q470 381 471.5 396.0Q473 411 475.0 433.0Q477 455 479.0 477.0Q481 499 482.0 514.5Q483 530 483 531Q483 532 500.0 541.5Q517 551 542.0 564.5Q567 578 591.5 591.5Q616 605 633.0 614.0Q650 623 650 623Q650 623 672.0 613.5Q694 604 727.0 590.0Q760 576 793.5 561.0Q827 546 850.5 535.0Q874 524 876 522Q880 517 885.0 501.0Q890 485 891.5 464.5Q893 444 885 427Q876 408 848.5 402.5Q821 397 792 405Q772 409 766.5 423.0Q761 437 758.0 456.0Q755 475 744 496Q731 520 700.0 537.0Q669 554 629.0 551.5Q589 549 548 514Q528 498 515.5 471.5Q503 445 496.5 421.5Q490 398 489 390Z" fill="#474c4f" stroke="none" transform="scale(1,-1) translate(0,-256)" /><path d="M349 249 621 115 750 94Q750 94 764.0 106.5Q778 119 799.5 136.5Q821 154 842.0 170.0Q863 186 877.5 195.0Q892 204 892 197Q892 191 885.5 171.0Q879 151 863.0 124.5Q847 98 818.5 73.0Q790 48 746.0 31.5Q702 15 639 14Q574 13 516.0 34.5Q458 56 421 100Q390 137 374.5 171.0Q359 205 354.0 227.0Q349 249 349 249Z" fill="#474c4f" stroke="none" transform="scale(1,-1) translate(0,-256)" /></svg>