<?xml version="1.0" encoding="utf-8" ?>
<svg baseProfile="full" height="256" version="1.1" width="256" xmlns="http://www.w3.org/2000/svg" xmlns:ev="http://www.w3.org/2001/xml-events" xmlns:xlink="http://www.w3.org/1999/xlink"><defs /><path d="M167 604 349 90H451L638 604H533L423 294L402 228H397L378 294L272 604Z" fill="#fafafa" stroke="none" transform="scale(1,-1) translate(0,-256)" /><path d="M743 116Q795 78 862 78Q906 78 946 95Q987 113 1013 148Q1038 182 1038 233Q1038 294 1003 332Q968 369 900 392L868 403Q824 418 804 434Q785 450 785 473Q785 497 805 512Q826 527 857 527Q888 527 908 510Q928 494 936 470L1021 506Q1006 550 966 583Q926 616 856 616Q808 616 770 597Q731 577 711 545Q690 511 690 471Q690 417 725 382Q761 346 810 329L842 317Q897 297 920 278Q942 260 942 231Q942 202 919 186Q896 170 863 170Q824 170 799 195Q773 219 762 260L671 224Q691 154 743 116Z" fill="#fafafa" stroke="none" transform="scale(1,-1) translate(0,-256)" /></svg>