<?xml version="1.0" encoding="utf-8" ?>
<svg baseProfile="full" height="256" version="1.1" width="256" xmlns="http://www.w3.org/2000/svg" xmlns:ev="http://www.w3.org/2001/xml-events" xmlns:xlink="http://www.w3.org/1999/xlink"><defs /><path d="M320 -66Q328 -65 331.5 -71.0Q335 -77 335 -82Q336 -96 320 -98Q313 -98 309.0 -93.0Q305 -88 305 -82Q304 -77 308.0 -72.0Q312 -67 320 -66Z" fill="#feb800" stroke="none" transform="scale(1,-1) translate(0,-256)" /><path d="M393 -20Q398 -20 403.0 -24.0Q408 -28 407 -34Q407 -40 404.0 -44.5Q401 -49 393 -50Q384 -50 380.5 -44.0Q377 -38 377 -34Q377 -30 381.5 -25.0Q386 -20 393 -20Z" fill="#feb800" stroke="none" transform="scale(1,-1) translate(0,-256)" /><path d="M412 -75Q413 -60 428 -61Q442 -61 443 -75Q443 -81 439.5 -86.5Q436 -92 428 -92Q419 -93 415.0 -86.5Q411 -80 412 -75Z" fill="#feb800" stroke="none" transform="scale(1,-1) translate(0,-256)" /><path d="M457 -49Q456 -36 470 -36Q482 -36 483 -48Q483 -53 481.0 -57.0Q479 -61 471 -62Q464 -63 460.5 -58.0Q457 -53 457 -49Z" fill="#feb800" stroke="none" transform="scale(1,-1) translate(0,-256)" /></svg>