<?xml version="1.0" encoding="utf-8" ?>
<svg baseProfile="full" height="256" version="1.1" width="256" xmlns="http://www.w3.org/2000/svg" xmlns:ev="http://www.w3.org/2001/xml-events" xmlns:xlink="http://www.w3.org/1999/xlink"><defs /><path d="M923 -47 925 157Q925 157 938.5 157.5Q952 158 969.0 156.0Q986 154 997 147Q1014 137 1020.5 122.5Q1027 108 1027 108Q1027 108 1040.5 110.0Q1054 112 1072.5 108.5Q1091 105 1108 87Q1126 68 1124.5 50.0Q1123 32 1123 32Q1123 32 1136.5 29.5Q1150 27 1164.0 16.5Q1178 6 1178 -18Q1177 -28 1171.0 -36.5Q1165 -45 1157 -47Q1154 -47 1129.5 -47.5Q1105 -48 1070.5 -48.0Q1036 -48 1002.0 -48.0Q968 -48 945.5 -47.5Q923 -47 923 -47Z" fill="#5a9821" stroke="none" transform="scale(1,-1) translate(0,-256)" /><path d="M280 88 260 -40Q260 -40 241.5 -40.5Q223 -41 198.5 -41.5Q174 -42 152.5 -42.5Q131 -43 125 -43Q113 -43 109.5 -32.0Q106 -21 110 -7Q117 15 133.0 23.5Q149 32 164.5 35.0Q180 38 184 43Q191 50 196.0 65.0Q201 80 228 91Q245 99 262.5 93.5Q280 88 280 88Z" fill="#5a9821" stroke="none" transform="scale(1,-1) translate(0,-256)" /></svg>