<?xml version="1.0" encoding="utf-8" ?>
<svg baseProfile="full" height="256" version="1.1" width="256" xmlns="http://www.w3.org/2000/svg" xmlns:ev="http://www.w3.org/2001/xml-events" xmlns:xlink="http://www.w3.org/1999/xlink"><defs /><path d="M191 273Q191 274 213.5 295.5Q236 317 272.0 352.5Q308 388 351.0 430.0Q394 472 437.0 514.5Q480 557 516.5 592.5Q553 628 575.5 650.0Q598 672 599 673Q612 685 622.0 694.0Q632 703 645 703Q658 704 667.5 696.0Q677 688 691 673Q692 672 714.0 650.0Q736 628 771.0 593.5Q806 559 847.5 518.0Q889 477 931.0 435.5Q973 394 1008.0 359.0Q1043 324 1065.0 302.5Q1087 281 1088 279Q1103 263 1094 260Q1090 260 1078.0 259.5Q1066 259 1055.0 259.0Q1044 259 1044 259L664 631Q664 631 658.5 635.5Q653 640 648 640Q644 640 638.5 635.5Q633 631 633 631L255 264Q255 264 241.0 263.5Q227 263 212.5 262.5Q198 262 196 262Q192 262 189.5 265.0Q187 268 191 273Z" fill="#ed6c31" stroke="none" transform="scale(1,-1) translate(0,-256)" /></svg>