<?xml version="1.0" encoding="utf-8" ?>
<svg baseProfile="full" height="256" version="1.1" width="256" xmlns="http://www.w3.org/2000/svg" xmlns:ev="http://www.w3.org/2001/xml-events" xmlns:xlink="http://www.w3.org/1999/xlink"><defs /><path d="M75 -108Q75 -81 88.5 -64.0Q102 -47 121.5 -37.0Q141 -27 161.0 -22.5Q181 -18 194 -17Q201 -17 242.5 -16.5Q284 -16 349.5 -16.0Q415 -16 494.5 -15.5Q574 -15 658.0 -15.0Q742 -15 820.0 -14.5Q898 -14 960.0 -14.0Q1022 -14 1058.5 -14.0Q1095 -14 1095 -14Q1095 -14 1111.5 -18.5Q1128 -23 1149.0 -33.5Q1170 -44 1186.0 -63.0Q1202 -82 1202 -112Q1202 -151 1182.0 -172.5Q1162 -194 1132.5 -202.0Q1103 -210 1074 -210Q1061 -211 1014.0 -211.0Q967 -211 896.5 -211.0Q826 -211 744.0 -211.0Q662 -211 578.5 -211.0Q495 -211 420.5 -210.5Q346 -210 292.0 -209.5Q238 -209 216 -208Q139 -205 106.5 -177.5Q74 -150 75 -108Z" fill="#b7d118" stroke="none" transform="scale(1,-1) translate(0,-256)" /><path d="M307 100 333 115 479 548Q479 548 478.0 566.5Q477 585 471.0 615.5Q465 646 451 683Q436 721 410.5 759.5Q385 798 353.0 824.5Q321 851 288 852Q248 853 213.5 824.5Q179 796 141 736Q122 706 106.0 658.5Q90 611 80.5 553.5Q71 496 72.0 433.5Q73 371 88 312Q108 233 143.5 186.0Q179 139 221.5 118.5Q264 98 307 100Z" fill="#b7d118" stroke="none" transform="scale(1,-1) translate(0,-256)" /></svg>