<?xml version="1.0" encoding="utf-8" ?>
<svg baseProfile="full" height="256" version="1.1" width="256" xmlns="http://www.w3.org/2000/svg" xmlns:ev="http://www.w3.org/2001/xml-events" xmlns:xlink="http://www.w3.org/1999/xlink"><defs /><path d="M823 593Q797 593 777.0 564.5Q757 536 757 485Q757 435 777.0 406.5Q797 378 823 378Q848 378 868.0 406.5Q888 435 888 485Q888 536 868.5 564.5Q849 593 823 593Z" fill="#422b0d" stroke="none" transform="scale(1,-1) translate(0,-256)" /><path d="M451.81199645996094 593.0Q477.81199645996094 593.0 497.81199645996094 564.5Q517.8119964599609 536.0 517.8119964599609 485.0Q517.8119964599609 435.0 497.81199645996094 406.5Q477.81199645996094 378.0 451.81199645996094 378.0Q426.81199645996094 378.0 406.81199645996094 406.5Q386.81199645996094 435.0 386.81199645996094 485.0Q386.81199645996094 536.0 406.31199645996094 564.5Q425.81199645996094 593.0 451.81199645996094 593.0Z" fill="#422b0d" stroke="none" transform="scale(1,-1) translate(0,-256)" /></svg>