<?xml version="1.0" encoding="utf-8" ?>
<svg baseProfile="full" height="256" version="1.1" width="256" xmlns="http://www.w3.org/2000/svg" xmlns:ev="http://www.w3.org/2001/xml-events" xmlns:xlink="http://www.w3.org/1999/xlink"><defs /><path d="M678 553Q679 577 681.5 591.0Q684 605 686.5 616.0Q689 627 691 642Q701 704 695.5 746.0Q690 788 675.5 813.0Q661 838 647.0 851.0Q633 864 626 870Q613 883 591.0 882.5Q569 882 551.0 869.0Q533 856 533 829Q533 819 534.5 801.5Q536 784 537 763Q539 716 522.5 676.0Q506 636 476 607Q465 596 432.5 574.5Q400 553 362.5 524.0Q325 495 297 461Q285 447 275.0 442.5Q265 438 251 436Q242 435 223.0 433.5Q204 432 185.5 431.0Q167 430 158 431Q143 431 140.5 424.0Q138 417 138 417Q121 341 122.5 246.0Q124 151 138 58Q139 47 145.0 44.5Q151 42 157 42Q162 42 184.0 41.5Q206 41 232 41Q272 40 303.0 27.5Q334 15 365.0 -3.0Q396 -21 434.5 -38.0Q473 -55 528 -63Q671 -85 774.5 -110.5Q878 -136 947.0 -153.0Q1016 -170 1057 -167Q1085 -164 1095.5 -148.0Q1106 -132 1104.0 -113.0Q1102 -94 1093 -82Q1074 -59 1007.5 -34.5Q941 -10 833 27Q889 31 918.5 43.0Q948 55 967 64Q988 75 995.0 98.0Q1002 121 998.0 145.5Q994 170 980 185Q1003 194 1014.5 214.0Q1026 234 1026.0 258.0Q1026 282 1012.5 303.5Q999 325 971 336Q999 354 1000.5 382.5Q1002 411 992 429Q979 452 956.0 470.0Q933 488 908.0 501.5Q883 515 862.5 523.5Q842 532 834 536Q818 543 799.5 546.5Q781 550 770 551Q762 551 743.5 551.5Q725 552 705.5 552.5Q686 553 678 553Z" fill="#ffca28" stroke="none" transform="scale(1,-1) translate(0,-256)" /></svg>