<?xml version="1.0" encoding="utf-8" ?>
<svg baseProfile="full" height="256" version="1.1" width="256" xmlns="http://www.w3.org/2000/svg" xmlns:ev="http://www.w3.org/2001/xml-events" xmlns:xlink="http://www.w3.org/1999/xlink"><defs /><path d="M122 242Q122 130 156.0 45.0Q190 -40 250.0 -97.5Q310 -155 388.5 -183.5Q467 -212 558 -212Q648 -212 727.0 -182.5Q806 -153 865.5 -95.0Q925 -37 959.0 47.5Q993 132 993 242Q993 268 994.5 315.0Q996 362 997.5 420.5Q999 479 998.0 541.0Q997 603 992.5 661.5Q988 720 978.0 767.0Q968 814 950 840Q925 877 896.0 892.0Q867 907 833.5 907.5Q800 908 762.5 901.0Q725 894 682.0 886.5Q639 879 591 879Q543 879 497.0 887.5Q451 896 407.0 904.5Q363 913 321.5 912.5Q280 912 241.5 895.5Q203 879 166 837Q149 816 138.5 771.0Q128 726 123.0 666.5Q118 607 117.5 542.5Q117 478 118.0 418.0Q119 358 120.5 311.5Q122 265 122 242Z" fill="#f44336" stroke="none" transform="scale(1,-1) translate(0,-256)" /><path d="M987 420Q1051 457 1107.0 460.0Q1163 463 1191 419Q1216 381 1209.0 346.0Q1202 311 1172.0 282.5Q1142 254 1096.5 233.5Q1051 213 998 203Q907 186 832.5 188.0Q758 190 706.0 200.5Q654 211 630 221Q602 233 584.0 256.5Q566 280 566 318Q566 343 578.0 368.5Q590 394 605.0 408.5Q620 423 630 414Q641 405 648.0 396.5Q655 388 667.5 380.0Q680 372 706 364Q755 347 799.0 350.0Q843 353 888.5 371.5Q934 390 987 420Z" fill="#f44336" stroke="none" transform="scale(1,-1) translate(0,-256)" /></svg>