<?xml version="1.0" encoding="utf-8" ?>
<svg baseProfile="full" height="256" version="1.1" width="256" xmlns="http://www.w3.org/2000/svg" xmlns:ev="http://www.w3.org/2001/xml-events" xmlns:xlink="http://www.w3.org/1999/xlink"><defs /><path d="M925 655Q954 644 969.5 617.5Q985 591 991.0 556.0Q997 521 997.5 483.5Q998 446 997 414Q997 414 979.5 397.5Q962 381 927.5 363.5Q893 346 845 343Q775 340 735.0 348.0Q695 356 675.5 369.0Q656 382 647.5 394.0Q639 406 634 411Q623 421 611.5 422.0Q600 423 583 414Q572 409 555.0 396.5Q538 384 516 375Q476 358 436.0 361.5Q396 365 354 400Q320 430 289.5 432.5Q259 435 232 421Q205 407 195.5 375.5Q186 344 190.0 307.5Q194 271 207.0 241.0Q220 211 238 200Q242 147 245.5 92.5Q249 38 267 -13Q287 -69 328.5 -103.5Q370 -138 421.5 -156.5Q473 -175 526.5 -181.5Q580 -188 626.0 -187.5Q672 -187 700.5 -184.0Q729 -181 732 -181Q683 -200 640.5 -206.0Q598 -212 558 -212Q467 -212 388.5 -186.0Q310 -160 250.0 -106.5Q190 -53 156.0 29.0Q122 111 122 223Q122 246 121.0 292.5Q120 339 119.0 399.5Q118 460 119.0 525.0Q120 590 124.0 650.5Q128 711 136.5 758.0Q145 805 160 828Q191 877 223.0 893.0Q255 909 302 911Q281 903 255.0 883.0Q229 863 218 843Q202 816 192.5 781.0Q183 746 182 711Q181 676 201.5 658.0Q222 640 264 653Q308 666 337.0 667.5Q366 669 388.0 660.0Q410 651 434 633Q447 624 461.5 612.5Q476 601 486 589Q496 577 505.0 567.5Q514 558 529 553Q548 547 568.0 555.5Q588 564 600 580Q611 595 612.5 610.0Q614 625 612 642Q611 645 611.5 649.0Q612 653 614 655Q619 660 626 657Q631 655 635 647Q643 634 642.0 617.5Q641 601 646 586Q654 562 669.0 556.0Q684 550 701.5 556.5Q719 563 735.5 575.5Q752 588 764 600Q776 612 799.5 630.5Q823 649 855.5 659.0Q888 669 925 655Z" fill="#b71c1c" stroke="none" transform="scale(1,-1) translate(0,-256)" /><path d="M1210 362Q1210 361 1210 361Q1210 323 1180.5 291.0Q1151 259 1103.0 236.5Q1055 214 998 203Q955 195 915.5 192.0Q876 189 841 189Q764 189 709.0 200.0Q654 211 630 221Q603 233 585.5 255.0Q568 277 567 313Q587 286 607.5 274.5Q628 263 645 256Q664 247 715.0 236.5Q766 226 841 226Q916 226 991 240Q1056 252 1101.5 278.0Q1147 304 1167 334Q1191 369 1191.0 394.0Q1191 419 1191 419Q1191 419 1200.5 401.0Q1210 383 1210 362Z" fill="#b71c1c" stroke="none" transform="scale(1,-1) translate(0,-256)" /></svg>