<?xml version="1.0" encoding="utf-8" ?>
<svg baseProfile="full" height="256" version="1.1" width="256" xmlns="http://www.w3.org/2000/svg" xmlns:ev="http://www.w3.org/2001/xml-events" xmlns:xlink="http://www.w3.org/1999/xlink"><defs /><path d="M758 -15Q767 -15 773.5 -9.0Q780 -3 780 6V393Q780 401 773.5 407.5Q767 414 758 414H424Q415 414 408.5 407.5Q402 401 402 393V6Q402 -3 408.5 -9.0Q415 -15 424 -15Z" fill="#f5f5f5" stroke="none" transform="scale(1,-1) translate(0,-256)" /><path d="M599.6887054443359 354.54371643066406H580.9752655029297V45.3665771484375H599.6887054443359Z" fill="#f5f5f5" stroke="none" transform="scale(1,-1) translate(0,-256)" /><path d="M458.8795928955078 111.39460754394531 458.9004669189453 101.89460754394531 723.1618194580078 101.88807678222656 723.1409454345703 111.38807678222656Z" fill="#f5f5f5" stroke="none" transform="scale(1,-1) translate(0,-256)" /><path d="M458.8795928955078 173.2696075439453 458.9004669189453 163.7696075439453 723.1618194580078 163.76307678222656 723.1409454345703 173.26307678222656Z" fill="#f5f5f5" stroke="none" transform="scale(1,-1) translate(0,-256)" /><path d="M459.0711212158203 235.1446075439453 459.0902557373047 225.6446075439453 721.3851165771484 225.63807678222656 721.3659820556641 235.13807678222656Z" fill="#f5f5f5" stroke="none" transform="scale(1,-1) translate(0,-256)" /><path d="M458.8012237548828 296.92572021484375 458.8203582763672 287.42572021484375 721.4591522216797 287.419189453125 721.4400177001953 296.919189453125Z" fill="#f5f5f5" stroke="none" transform="scale(1,-1) translate(0,-256)" /></svg>