<?xml version="1.0" encoding="utf-8" ?>
<svg baseProfile="full" height="256" version="1.1" width="256" xmlns="http://www.w3.org/2000/svg" xmlns:ev="http://www.w3.org/2001/xml-events" xmlns:xlink="http://www.w3.org/1999/xlink"><defs /><path d="M1005 825Q1012 823 1027.0 812.5Q1042 802 1042 779Q1042 770 1042.0 747.5Q1042 725 1042.0 697.5Q1042 670 1042.0 644.0Q1042 618 1042.0 601.0Q1042 584 1042 584Q1042 576 1036.0 570.5Q1030 565 1022 565H1015V543Q1015 532 1004 532H981Q969 532 969 543V565H843V543Q843 532 831 532H808Q797 532 797 543V565H790Q782 565 776.0 570.5Q770 576 770 584Q770 584 770.0 601.0Q770 618 770.0 643.5Q770 669 770.0 697.0Q770 725 770.0 747.5Q770 770 770 779Q770 803 785.5 813.0Q801 823 807 825Q818 827 841.0 829.5Q864 832 906 832Q948 832 971.5 829.5Q995 827 1005 825ZM845 809V794Q845 785 853 785H959Q967 785 967 794V809Q967 818 959 818H853Q845 818 845 809ZM847 604V614Q847 623 841.0 628.5Q835 634 827 634H804Q798 634 798 628V618Q798 610 803.5 604.0Q809 598 818 598H841Q847 598 847 604ZM1014 618V628Q1014 634 1008 634H985Q977 634 971.0 628.5Q965 623 965 614V604Q965 598 971 598H994Q1003 598 1008.5 604.0Q1014 610 1014 618ZM1019 703Q1019 709 1019.0 723.0Q1019 737 1019.0 748.5Q1019 760 1019 760Q1019 763 1017.0 768.0Q1015 773 1008 773H806Q799 773 796.0 768.0Q793 763 793 760Q793 760 793.0 748.5Q793 737 793.0 723.5Q793 710 793 703Q793 692 817.0 680.0Q841 668 906 668Q971 668 995.0 680.5Q1019 693 1019 703Z" fill="#ffffff" stroke="none" transform="scale(1,-1) translate(0,-256)" /></svg>