<?xml version="1.0" encoding="utf-8" ?>
<svg baseProfile="full" height="256" version="1.1" width="256" xmlns="http://www.w3.org/2000/svg" xmlns:ev="http://www.w3.org/2001/xml-events" xmlns:xlink="http://www.w3.org/1999/xlink"><defs /><path d="M412 811Q423 797 411.0 782.5Q399 768 377.0 752.5Q355 737 335 719Q315 701 296.0 681.5Q277 662 262.0 651.5Q247 641 238 649Q225 661 240.5 696.0Q256 731 293 763Q336 802 369.5 812.5Q403 823 412 811Z" fill="#b2b2b2" stroke="none" transform="scale(1,-1) translate(0,-256)" /><path d="M1074 159Q1085 155 1085.5 142.5Q1086 130 1081.5 117.0Q1077 104 1075 99Q1050 32 980 -31Q943 -65 901.5 -89.5Q860 -114 836 -124Q826 -128 809.0 -134.0Q792 -140 776.5 -140.0Q761 -140 757 -128Q752 -112 758.5 -105.0Q765 -98 779.0 -93.5Q793 -89 809 -81Q835 -70 871.5 -48.0Q908 -26 946.0 9.0Q984 44 1017 96Q1024 108 1031.0 125.0Q1038 142 1048.0 153.5Q1058 165 1074 159Z" fill="#b2b2b2" stroke="none" transform="scale(1,-1) translate(0,-256)" /></svg>