<?xml version="1.0" encoding="utf-8" ?>
<svg baseProfile="full" height="256" version="1.1" width="256" xmlns="http://www.w3.org/2000/svg" xmlns:ev="http://www.w3.org/2001/xml-events" xmlns:xlink="http://www.w3.org/1999/xlink"><defs /><path d="M636 912Q728 914 812.5 886.0Q897 858 968.5 805.5Q1040 753 1092.0 681.5Q1144 610 1172.0 524.5Q1200 439 1196 346Q1192 240 1154.5 141.5Q1117 43 1047.5 -35.5Q978 -114 877.5 -160.5Q777 -207 647 -209Q528 -211 427.0 -170.0Q326 -129 250.0 -55.5Q174 18 129.0 113.5Q84 209 77 316Q70 431 103.5 536.5Q137 642 209.0 725.5Q281 809 388.5 858.5Q496 908 636 912Z" fill="#868686" stroke="none" transform="scale(1,-1) translate(0,-256)" /></svg>