<?xml version="1.0" encoding="utf-8" ?>
<svg baseProfile="full" height="256" version="1.1" width="256" xmlns="http://www.w3.org/2000/svg" xmlns:ev="http://www.w3.org/2001/xml-events" xmlns:xlink="http://www.w3.org/1999/xlink"><defs /><path d="M1056 525Q1095 501 1112.0 457.0Q1129 413 1131.0 361.0Q1133 309 1125.0 261.0Q1117 213 1105 181Q1094 151 1069.5 124.5Q1045 98 1014.5 78.5Q984 59 955 50Q942 46 928.5 44.0Q915 42 903 41L904 0Q904 0 906.5 -18.0Q909 -36 912.0 -57.0Q915 -78 917 -85Q920 -95 915.0 -107.5Q910 -120 902 -128Q895 -134 873.5 -149.0Q852 -164 814.0 -180.0Q776 -196 720.5 -206.5Q665 -217 589 -215Q512 -213 455.0 -199.5Q398 -186 359.5 -169.0Q321 -152 300.0 -137.5Q279 -123 273 -118Q252 -100 258 -73Q260 -63 265.5 -43.5Q271 -24 275.5 -4.5Q280 15 281 22Q282 25 282.5 57.0Q283 89 284.0 140.0Q285 191 286.0 250.5Q287 310 288.0 369.0Q289 428 289.5 477.0Q290 526 290.5 556.0Q291 586 291 586Q291 586 280.5 591.5Q270 597 270 617Q270 630 277.0 637.0Q284 644 291.5 646.0Q299 648 299 648L859 647Q859 647 874.5 645.5Q890 644 906.0 638.0Q922 632 923 618Q925 598 914.0 590.5Q903 583 903 583V546Q919 549 945.0 550.0Q971 551 1000.5 546.0Q1030 541 1056 525ZM986 185Q1007 207 1017.5 237.0Q1028 267 1031.0 297.0Q1034 327 1033.0 350.0Q1032 373 1031 380Q1026 405 1016.0 418.0Q1006 431 989 438Q971 446 945.0 444.0Q919 442 903 439V150Q919 151 942.0 157.0Q965 163 986 185Z" fill="#e0e0e0" stroke="none" transform="scale(1,-1) translate(0,-256)" /></svg>