<?xml version="1.0" encoding="utf-8" ?>
<svg baseProfile="full" height="256" version="1.1" width="256" xmlns="http://www.w3.org/2000/svg" xmlns:ev="http://www.w3.org/2001/xml-events" xmlns:xlink="http://www.w3.org/1999/xlink"><defs /><path d="M625 370Q637 389 653 382Q661 378 662.0 369.0Q663 360 658 350Q653 339 643.5 335.0Q634 331 627 335Q622 338 620.0 348.0Q618 358 625 370Z" fill="#ffe265" stroke="none" transform="scale(1,-1) translate(0,-256)" /><path d="M547 276Q554 281 562.0 278.5Q570 276 575 270Q581 262 581.0 253.5Q581 245 576 240Q570 235 561.5 237.5Q553 240 548 247Q543 253 541.5 261.5Q540 270 547 276Z" fill="#ffe265" stroke="none" transform="scale(1,-1) translate(0,-256)" /><path d="M535 188Q548 188 552.5 181.5Q557 175 558 170Q559 165 556.0 155.0Q553 145 539 145Q526 144 521.5 150.5Q517 157 516 161Q515 167 518.0 177.0Q521 187 535 188Z" fill="#ffe265" stroke="none" transform="scale(1,-1) translate(0,-256)" /><path d="M594 174Q610 174 611 157Q612 148 607.5 142.5Q603 137 598 137Q592 136 586.5 139.0Q581 142 579 152Q577 162 582.5 168.0Q588 174 594 174Z" fill="#ffe265" stroke="none" transform="scale(1,-1) translate(0,-256)" /><path d="M633 109Q641 109 647.0 102.0Q653 95 654 87Q657 79 652.5 68.0Q648 57 640 56Q628 54 621.5 63.5Q615 73 615 83Q615 93 620.0 101.0Q625 109 633 109Z" fill="#ffe265" stroke="none" transform="scale(1,-1) translate(0,-256)" /><path d="M568 47Q577 49 581.5 44.0Q586 39 589 32Q593 24 593.5 13.0Q594 2 583 0Q573 -3 568.0 4.0Q563 11 561 16Q560 20 559.5 32.0Q559 44 568 47Z" fill="#ffe265" stroke="none" transform="scale(1,-1) translate(0,-256)" /></svg>