<?xml version="1.0" encoding="utf-8" ?>
<svg baseProfile="full" height="256" version="1.1" width="256" xmlns="http://www.w3.org/2000/svg" xmlns:ev="http://www.w3.org/2001/xml-events" xmlns:xlink="http://www.w3.org/1999/xlink"><defs /><path d="M-366.7465515136719 -583.7725830078125Q-370.7652893066406 -686.7181854248047 -382.6943130493164 -748.5217666625977Q-394.6233367919922 -810.3253479003906 -404.8267364501953 -837.1536102294922Q-415.03013610839844 -863.9818725585938 -415.03013610839844 -863.9818725585938Q-415.03013610839844 -863.9818725585938 -392.92989349365234 -864.3622360229492Q-370.82965087890625 -864.7425994873047 -335.25311279296875 -865.8549728393555Q-299.67657470703125 -866.9673461914062 -259.59647369384766 -867.6571578979492Q-219.51637268066406 -868.3469696044922 -183.18207550048828 -868.9723129272461Q-146.8477783203125 -869.59765625 -122.12547302246094 -870.0231475830078Q-97.40316772460938 -870.4486389160156 -93.65736389160156 -870.5131072998047Q-84.66743469238281 -870.6678314208984 -68.44010162353516 -863.9461135864258Q-52.2127685546875 -857.2243957519531 -32.79962921142578 -839.5559310913086Q-13.386489868164062 -821.8874664306641 5.135063171386719 -790.7017211914062Q23.6566162109375 -759.5159759521484 35.736663818359375 -710.7168579101562Q47.81671142578125 -661.9177398681641 49.76963806152344 -591.9413146972656Q51.722564697265625 -521.9648895263672 41.319190979003906 -473.2788848876953Q30.915817260742188 -424.59288024902344 14.226814270019531 -392.80113220214844Q-2.462188720703125 -361.00938415527344 -21.264846801757812 -343.18326568603516Q-40.0675048828125 -325.3571472167969 -56.05408477783203 -318.0810012817383Q-72.04066467285156 -310.8048553466797 -80.28143310546875 -310.66302490234375Q-85.52555847167969 -310.57276916503906 -110.62244415283203 -310.14083099365234Q-135.71932983398438 -309.7088928222656 -172.80278778076172 -309.0706558227539Q-209.88624572753906 -308.4324188232422 -249.97494506835938 -308.2425308227539Q-290.0636444091797 -308.0526428222656 -325.6573791503906 -307.9401168823242Q-361.25111389160156 -307.8275909423828 -383.35135650634766 -307.44722747802734Q-405.45159912109375 -307.0668640136719 -405.45159912109375 -307.0668640136719Q-405.45159912109375 -307.0668640136719 -398.6613082885742 -326.1864547729492Q-391.8710174560547 -345.30604553222656 -383.5001678466797 -381.4552764892578Q-375.1293182373047 -417.60450744628906 -369.6384811401367 -468.7063217163086Q-364.14764404296875 -519.8081359863281 -366.7465515136719 -583.7725830078125Z" fill="#000000" stroke="none" transform="scale(1,-1) translate(0,-256)" /></svg>