<?xml version="1.0" encoding="utf-8" ?>
<svg baseProfile="full" height="256" version="1.1" width="256" xmlns="http://www.w3.org/2000/svg" xmlns:ev="http://www.w3.org/2001/xml-events" xmlns:xlink="http://www.w3.org/1999/xlink"><defs /><path d="M1056 525Q1095 501 1112.0 457.0Q1129 413 1131.0 361.0Q1133 309 1125.0 261.0Q1117 213 1105 181Q1094 151 1069.5 124.5Q1045 98 1014.5 78.5Q984 59 955 50Q942 46 928.5 44.0Q915 42 903 41L904 0Q904 0 906.5 -18.0Q909 -36 912.0 -57.0Q915 -78 917 -85Q920 -95 915.0 -107.5Q910 -120 902 -128Q895 -134 873.5 -149.0Q852 -164 814.0 -180.0Q776 -196 720.5 -206.5Q665 -217 589 -215Q512 -213 455.0 -199.5Q398 -186 359.5 -169.0Q321 -152 300.0 -137.5Q279 -123 273 -118Q252 -100 258 -73Q260 -63 265.5 -43.5Q271 -24 275.5 -4.5Q280 15 281 22Q282 25 282.5 57.0Q283 89 284.0 140.0Q285 191 286.0 250.5Q287 310 288.0 369.0Q289 428 289.5 477.0Q290 526 290.5 556.0Q291 586 291 586Q291 586 280.5 591.5Q270 597 270 617Q270 630 277.0 637.0Q284 644 291.5 646.0Q299 648 299 648L859 647Q859 647 874.5 645.5Q890 644 906.0 638.0Q922 632 923 618Q925 598 914.0 590.5Q903 583 903 583V546Q919 549 945.0 550.0Q971 551 1000.5 546.0Q1030 541 1056 525ZM986 185Q1007 207 1017.5 237.0Q1028 267 1031.0 297.0Q1034 327 1033.0 350.0Q1032 373 1031 380Q1026 405 1016.0 418.0Q1006 431 989 438Q971 446 945.0 444.0Q919 442 903 439V150Q919 151 942.0 157.0Q965 163 986 185Z" fill="#ffffff" stroke="none" transform="scale(1,-1) translate(0,-256)" /><path d="M308 61 343 9 383 -25 382 -133 363 -120 304 -60Z" fill="#ffffff" stroke="none" transform="scale(1,-1) translate(0,-256)" /><path d="M897 509Q896 522 910.0 528.5Q924 535 942.5 537.0Q961 539 973 539Q991 538 1010.0 535.0Q1029 532 1041.0 525.0Q1053 518 1052 505Q1051 492 1042.0 491.5Q1033 491 1017.5 494.5Q1002 498 980 499Q960 499 941.5 496.0Q923 493 911.0 494.0Q899 495 897 509Z" fill="#ffffff" stroke="none" transform="scale(1,-1) translate(0,-256)" /><path d="M906 134Q912 139 926.0 138.0Q940 137 969 152Q989 162 1002.0 178.0Q1015 194 1022.0 206.5Q1029 219 1033 219Q1037 219 1036.5 207.0Q1036 195 1031.0 178.5Q1026 162 1016 149Q993 123 968.5 114.5Q944 106 925 106Q908 106 904.5 117.5Q901 129 906 134Z" fill="#ffffff" stroke="none" transform="scale(1,-1) translate(0,-256)" /><path d="M456 789Q461 792 471.5 807.0Q482 822 500.5 839.5Q519 857 548.0 867.5Q577 878 619 872Q660 866 686.5 848.0Q713 830 730.0 808.5Q747 787 757.5 769.5Q768 752 776 748Q785 744 800.5 744.0Q816 744 833.5 742.0Q851 740 863.5 730.5Q876 721 878 697Q880 674 863.0 658.5Q846 643 817.5 634.0Q789 625 756.0 620.5Q723 616 692.5 614.0Q662 612 641 611Q606 609 585.5 608.0Q565 607 551.5 603.0Q538 599 524 588Q511 578 503.0 562.0Q495 546 488.5 534.0Q482 522 471 524Q460 526 456.5 540.0Q453 554 449.5 570.0Q446 586 435 596Q420 609 404.0 616.5Q388 624 372 629Q361 632 345.0 636.0Q329 640 316.5 647.5Q304 655 303 671Q301 687 312.0 693.0Q323 699 336.0 702.0Q349 705 355 712Q360 718 357.5 728.5Q355 739 356.0 752.5Q357 766 371 781Q388 798 406.5 798.0Q425 798 439.0 792.5Q453 787 456 789Z" fill="#ffffff" stroke="none" transform="scale(1,-1) translate(0,-256)" /><path d="M342 550Q344 559 351.0 564.0Q358 569 371 565Q383 561 393.0 549.0Q403 537 403 524Q403 520 403.0 490.0Q403 460 402.5 415.5Q402 371 401.5 321.0Q401 271 401.0 226.5Q401 182 400.5 152.0Q400 122 400 118Q399 106 391.0 92.0Q383 78 363 80Q349 82 344.0 91.0Q339 100 338.0 108.5Q337 117 337 117Q337 117 337.0 147.0Q337 177 337.5 224.5Q338 272 338.5 326.5Q339 381 339.5 430.5Q340 480 340.5 513.0Q341 546 342 550Z" fill="#ffffff" stroke="none" transform="scale(1,-1) translate(0,-256)" /></svg>