<?xml version="1.0" encoding="utf-8" ?>
<svg baseProfile="full" height="256" version="1.1" width="256" xmlns="http://www.w3.org/2000/svg" xmlns:ev="http://www.w3.org/2001/xml-events" xmlns:xlink="http://www.w3.org/1999/xlink"><defs /><path d="M317 737Q317 737 316.0 748.5Q315 760 320.0 777.5Q325 795 342 810Q363 829 386.0 833.5Q409 838 425.0 835.5Q441 833 441 833Q441 833 449.0 847.5Q457 862 477.5 879.5Q498 897 535.0 907.5Q572 918 630 911Q676 906 709.0 885.0Q742 864 762.0 839.5Q782 815 791.5 797.5Q801 780 801 780Q801 780 818.5 779.5Q836 779 860.0 773.5Q884 768 903.0 751.5Q922 735 923 703Q926 657 886.5 625.5Q847 594 792 580Q764 573 729.0 570.0Q694 567 660.0 565.5Q626 564 600.5 563.5Q575 563 566 562Q550 560 538.5 546.5Q527 533 517 516Q510 505 501.5 491.0Q493 477 482.5 468.0Q472 459 459 463Q442 468 436.5 485.5Q431 503 420 538Q413 562 397.5 574.0Q382 586 365.0 591.5Q348 597 337 601Q326 604 308.0 612.0Q290 620 275.0 635.0Q260 650 260 676Q259 701 272.5 713.5Q286 726 300.5 730.5Q315 735 317 737Z" fill="#fadfb1" stroke="none" transform="scale(1,-1) translate(0,-256)" /></svg>