<?xml version="1.0" encoding="utf-8" ?>
<svg baseProfile="full" height="256" version="1.1" width="256" xmlns="http://www.w3.org/2000/svg" xmlns:ev="http://www.w3.org/2001/xml-events" xmlns:xlink="http://www.w3.org/1999/xlink"><defs /><path d="M1092 754Q1092 754 1096.5 762.0Q1101 770 1106.0 780.0Q1111 790 1114 794Q1118 802 1120.5 791.5Q1123 781 1122 770Q1121 759 1114.0 745.0Q1107 731 1088 710Q1085 707 1064.5 686.5Q1044 666 1012.5 635.0Q981 604 943.5 567.0Q906 530 869.0 493.5Q832 457 800.0 426.0Q768 395 747.5 374.5Q727 354 724 351Q713 341 701.5 326.0Q690 311 690 299Q690 294 690.0 269.0Q690 244 690.0 210.0Q690 176 690.0 141.5Q690 107 690.0 81.5Q690 56 690 50Q690 35 690.5 21.5Q691 8 701 -18Q707 -35 719.0 -47.5Q731 -60 741.0 -67.0Q751 -74 751 -74Q751 -74 738.5 -72.0Q726 -70 710.5 -65.5Q695 -61 685 -53Q671 -43 664.5 -29.0Q658 -15 658 -15L640 131Q640 131 643.0 151.5Q646 172 649.5 200.5Q653 229 655.5 254.0Q658 279 657 289Q656 311 663.5 326.5Q671 342 690 360Q706 374 740.0 407.0Q774 440 818.0 482.5Q862 525 907.5 568.5Q953 612 991.5 649.5Q1030 687 1054.0 710.5Q1078 734 1078 734Z" fill="#9e9e9e" stroke="none" transform="scale(1,-1) translate(0,-256)" /><path d="M509 -67Q509 -67 533.0 -63.0Q557 -59 581 -46Q599 -36 606.5 -17.0Q614 2 615.5 18.0Q617 34 617 34L618 180Q618 180 617.0 202.0Q616 224 615.5 251.0Q615 278 616 295Q618 320 604.0 332.5Q590 345 572 356Q558 364 546.5 368.0Q535 372 537 370Q546 357 562.0 340.5Q578 324 578 307Q578 299 578.0 270.0Q578 241 578.0 203.5Q578 166 578.0 133.0Q578 100 578 84Q577 52 574.0 32.5Q571 13 562 -12Q557 -28 544.0 -40.5Q531 -53 520.0 -60.0Q509 -67 509 -67Z" fill="#9e9e9e" stroke="none" transform="scale(1,-1) translate(0,-256)" /><path d="M365 -114Q365 -113 383.0 -130.5Q401 -148 453 -164Q504 -179 579.0 -183.0Q654 -187 732 -178Q784 -172 815.0 -158.0Q846 -144 861.0 -131.0Q876 -118 879 -115Q883 -110 886.0 -104.5Q889 -99 890 -98Q891 -98 892.5 -110.0Q894 -122 888 -137Q885 -143 872.0 -156.0Q859 -169 829.5 -182.5Q800 -196 750.5 -205.5Q701 -215 627 -215Q541 -215 491.5 -204.0Q442 -193 418.5 -180.5Q395 -168 387 -163Q369 -151 366.5 -133.5Q364 -116 365 -114Z" fill="#9e9e9e" stroke="none" transform="scale(1,-1) translate(0,-256)" /></svg>