<?xml version="1.0" encoding="utf-8" ?>
<svg baseProfile="full" height="256" version="1.1" width="256" xmlns="http://www.w3.org/2000/svg" xmlns:ev="http://www.w3.org/2001/xml-events" xmlns:xlink="http://www.w3.org/1999/xlink"><defs /><path d="M646 640Q722 638 786.5 644.0Q851 650 898.5 659.0Q946 668 972.5 675.0Q999 682 999 682Q999 682 979.0 663.0Q959 644 926.5 614.0Q894 584 857.5 549.5Q821 515 787.5 484.0Q754 453 731.0 432.0Q708 411 704 408Q693 400 677.5 389.0Q662 378 630 378Q608 378 590.5 389.0Q573 400 562.5 410.5Q552 421 552 421L267 703Q267 703 312.0 688.5Q357 674 441.5 658.5Q526 643 646 640Z" fill="#e5dda0" stroke="none" transform="scale(1,-1) translate(0,-256)" /></svg>