<?xml version="1.0" encoding="utf-8" ?>
<svg baseProfile="full" height="256" version="1.1" width="256" xmlns="http://www.w3.org/2000/svg" xmlns:ev="http://www.w3.org/2001/xml-events" xmlns:xlink="http://www.w3.org/1999/xlink"><defs /><path d="M235.39913940429688 527.6201782226562 102.01663208007812 172.23736572265625H175.96444702148438L205.68179321289062 257.28033447265625H341.8287048339844L371.5460510253906 172.23736572265625H445.4938659667969L312.1113586425781 527.6201782226562ZM320.4045715332031 318.81549072265625H227.10592651367188L258.8965759277344 408.00689697265625L272.0274963378906 450.87408447265625H276.1741027832031L288.6139221191406 408.00689697265625Z" fill="#fafafa" stroke="none" transform="scale(1,-1) translate(0,-256)" /><path d="M512 464V172H579V464H678V528H412V464Z" fill="#fafafa" stroke="none" transform="scale(1,-1) translate(0,-256)" /><path d="M732 528V172H798V347L794 407H798L889 172H941L1031 407H1035L1031 347V172H1098V528H1011L917 278H913L818 528Z" fill="#fafafa" stroke="none" transform="scale(1,-1) translate(0,-256)" /></svg>