<?xml version="1.0" encoding="utf-8" ?>
<svg baseProfile="full" height="256" version="1.1" width="256" xmlns="http://www.w3.org/2000/svg" xmlns:ev="http://www.w3.org/2001/xml-events" xmlns:xlink="http://www.w3.org/1999/xlink"><defs /><path d="M482 284Q492 276 506 275Q521 275 532.5 286.0Q544 297 544 313V444Q544 451 549.5 457.0Q555 463 563 463H994Q1009 463 1020.0 473.5Q1031 484 1031 500V575Q1031 591 1020.0 602.0Q1009 613 994 613H563Q555 613 549.5 618.5Q544 624 544 631V763Q544 776 535 787Q525 798 509.5 799.5Q494 801 482 791L257 566Q255 564 254 562Q243 551 244.0 535.5Q245 520 257 509Z" fill="#fafafa" stroke="none" transform="scale(1,-1) translate(0,-256)" /><path d="M425 -97V-51H330V16H418V61H330V119H425V164H274V-97Z" fill="#fafafa" stroke="none" transform="scale(1,-1) translate(0,-256)" /><path d="M731 -97V164H681V41Q681 20 684 -31H682L569 164H499V-97H549V26Q549 48 545 101H547L660 -97Z" fill="#fafafa" stroke="none" transform="scale(1,-1) translate(0,-256)" /><path d="M1013 36Q1013 97 978 130Q942 164 878 164H796V-97H870Q940 -97 976 -63Q1013 -28 1013 36ZM955 35Q955 -51 875 -51H852V119H881Q955 119 955 35Z" fill="#fafafa" stroke="none" transform="scale(1,-1) translate(0,-256)" /></svg>