<?xml version="1.0" encoding="utf-8" ?>
<svg baseProfile="full" height="256" version="1.1" width="256" xmlns="http://www.w3.org/2000/svg" xmlns:ev="http://www.w3.org/2001/xml-events" xmlns:xlink="http://www.w3.org/1999/xlink"><defs /><path d="M708 906Q725 905 728.0 897.0Q731 889 719 885Q719 885 702.5 877.0Q686 869 661.5 855.5Q637 842 610.0 826.0Q583 810 561.5 793.0Q540 776 530.0 761.5Q520 747 530 736Q530 736 541.0 723.5Q552 711 563.0 691.0Q574 671 575.0 650.0Q576 629 557 612Q547 604 529.5 589.0Q512 574 493.0 557.5Q474 541 459.5 528.0Q445 515 440 511Q429 502 419.5 496.0Q410 490 394 494Q386 496 378.0 499.0Q370 502 362 504Q354 507 342.0 507.5Q330 508 323 502Q316 496 317.5 490.0Q319 484 320 482Q324 471 329.0 461.5Q334 452 335 440Q335 419 320 406Q320 406 311.0 398.0Q302 390 290.5 380.0Q279 370 270.0 362.0Q261 354 261 354Q261 354 246.5 356.0Q232 358 206.5 373.0Q181 388 146 428Q110 467 98.0 493.0Q86 519 85.0 531.5Q84 544 84 544Q84 544 93.5 552.5Q103 561 115.5 572.0Q128 583 137.5 591.0Q147 599 147 599Q163 614 185 611Q196 610 205.5 604.0Q215 598 224 592Q233 585 243.5 589.5Q254 594 257 606Q259 618 256.5 630.0Q254 642 252 654Q249 676 259.0 691.5Q269 707 284.5 720.0Q300 733 315 745Q335 763 355.0 780.5Q375 798 396 815Q430 844 460.5 862.5Q491 881 525.0 890.5Q559 900 603.0 903.0Q647 906 708 906Z" fill="#82aec0" stroke="none" transform="scale(1,-1) translate(0,-256)" /></svg>