<?xml version="1.0" encoding="utf-8" ?>
<svg baseProfile="full" height="256" version="1.1" width="256" xmlns="http://www.w3.org/2000/svg" xmlns:ev="http://www.w3.org/2001/xml-events" xmlns:xlink="http://www.w3.org/1999/xlink"><defs /><path d="M392 740Q370 731 359.5 729.5Q349 728 336 729Q331 729 329.0 732.5Q327 736 331 739Q349 754 374.0 775.0Q399 796 412 806Q430 821 449.5 834.5Q469 848 490 857Q506 864 522.0 869.0Q538 874 555 874Q560 874 561.5 869.0Q563 864 558 861Q532 849 512 832Q478 802 450.0 777.5Q422 753 392 740Z" fill="#b9e4ea" stroke="none" transform="scale(1,-1) translate(0,-256)" /><path d="M146 577Q157 589 174.0 593.5Q191 598 211 586Q231 573 236.5 564.0Q242 555 242 541Q242 526 224.5 516.0Q207 506 188 523Q160 545 147.0 554.0Q134 563 146 577Z" fill="#b9e4ea" stroke="none" transform="scale(1,-1) translate(0,-256)" /></svg>