<?xml version="1.0" encoding="utf-8" ?>
<svg baseProfile="full" height="256" version="1.1" width="256" xmlns="http://www.w3.org/2000/svg" xmlns:ev="http://www.w3.org/2001/xml-events" xmlns:xlink="http://www.w3.org/1999/xlink"><defs /><path d="M141 284Q148 284 148 275Q149 265 141 265Q132 264 132 273Q132 284 141 284Z" fill="#f9df9b" stroke="none" transform="scale(1,-1) translate(0,-256)" /><path d="M85 290 84 253Q84 253 87.5 254.0Q91 255 92 256Q92 256 92.5 264.5Q93 273 93.0 282.0Q93 291 93 292Q92 292 88.5 291.0Q85 290 85 290Z" fill="#f9df9b" stroke="none" transform="scale(1,-1) translate(0,-256)" /><path d="M195 312Q196 313 211.5 316.5Q227 320 242.0 322.5Q257 325 258 324Q258 324 258.5 315.0Q259 306 259.0 296.5Q259 287 259 286Q258 285 243.5 282.5Q229 280 214.0 278.0Q199 276 197 276Q195 277 194.0 285.0Q193 293 193.5 301.5Q194 310 195 312Z" fill="#f9df9b" stroke="none" transform="scale(1,-1) translate(0,-256)" /><path d="M321 319Q330 319 331 310Q332 298 321 299Q319 299 315.0 301.0Q311 303 311 308Q311 318 321 319Z" fill="#f9df9b" stroke="none" transform="scale(1,-1) translate(0,-256)" /><path d="M390 347Q391 348 405.5 351.0Q420 354 438.5 358.0Q457 362 472.0 364.5Q487 367 488 366Q490 365 490.0 355.5Q490 346 489.5 336.0Q489 326 489 325Q488 324 473.5 321.0Q459 318 440.0 314.5Q421 311 406.5 308.5Q392 306 391 307Q390 309 389.5 318.0Q389 327 389.0 336.0Q389 345 390 347Z" fill="#f9df9b" stroke="none" transform="scale(1,-1) translate(0,-256)" /><path d="M562 363Q573 364 573 353Q574 342 564 341Q559 340 556.0 343.0Q553 346 553 350Q553 353 555.0 357.5Q557 362 562 363Z" fill="#f9df9b" stroke="none" transform="scale(1,-1) translate(0,-256)" /><path d="M650 395V348Q650 348 643.0 347.5Q636 347 635 347Q634 348 634.0 358.5Q634 369 634.5 380.0Q635 391 636 392Q637 394 643.5 394.5Q650 395 650 395Z" fill="#f9df9b" stroke="none" transform="scale(1,-1) translate(0,-256)" /><path d="M88 414Q88 414 99.0 417.0Q110 420 124.5 424.0Q139 428 151.0 431.0Q163 434 165 434Q168 433 180.0 427.5Q192 422 192 422Q192 422 196.5 428.0Q201 434 206.5 440.0Q212 446 214 447Q215 448 227.5 451.0Q240 454 256.0 458.0Q272 462 284.5 464.5Q297 467 298 467Q300 467 307.5 463.5Q315 460 322.5 456.5Q330 453 330 453Q330 453 335.0 459.5Q340 466 345.5 472.5Q351 479 353 480Q354 480 366.0 483.0Q378 486 394.0 490.0Q410 494 422.0 496.5Q434 499 436 500Q436 500 444.0 496.0Q452 492 460.0 488.0Q468 484 468 484Q468 484 473.5 490.5Q479 497 485.0 503.5Q491 510 493 511Q495 512 513.5 516.5Q532 521 556.0 526.5Q580 532 599.0 536.0Q618 540 620 540Q623 540 636.5 533.0Q650 526 650 526V512Q650 512 643.5 506.5Q637 501 629.5 495.0Q622 489 619 488Q616 487 598.0 483.0Q580 479 557.5 474.0Q535 469 518.0 465.0Q501 461 499 461Q497 462 490.0 465.0Q483 468 476.0 471.5Q469 475 469 475Q469 475 459.5 463.5Q450 452 446 450Q444 450 432.0 447.0Q420 444 404.5 440.5Q389 437 376.5 434.5Q364 432 361 431Q360 431 353.0 434.5Q346 438 339.0 441.5Q332 445 332 445Q332 445 321.5 435.0Q311 425 308 423Q307 422 294.0 419.0Q281 416 264.5 412.5Q248 409 234.5 406.5Q221 404 219 404Q216 403 204.5 409.0Q193 415 193 415Q193 415 183.0 405.5Q173 396 170 394Q168 393 155.0 389.5Q142 386 126.5 382.5Q111 379 99.0 376.5Q87 374 87 374Z" fill="#f9df9b" stroke="none" transform="scale(1,-1) translate(0,-256)" /></svg>