<?xml version="1.0" encoding="utf-8" ?>
<svg baseProfile="full" height="256" version="1.1" width="256" xmlns="http://www.w3.org/2000/svg" xmlns:ev="http://www.w3.org/2001/xml-events" xmlns:xlink="http://www.w3.org/1999/xlink"><defs /><path d="M649 -211 529 8 650 777Q650 777 651.5 777.5Q653 778 659 776Q661 776 692.5 766.0Q724 756 772.5 740.5Q821 725 877.0 707.0Q933 689 985.5 672.0Q1038 655 1076.5 642.5Q1115 630 1128 625Q1167 611 1180.0 604.0Q1193 597 1193 585Q1193 581 1193.0 548.0Q1193 515 1194.0 461.5Q1195 408 1195.5 341.5Q1196 275 1197.0 204.5Q1198 134 1199.0 67.5Q1200 1 1200.5 -53.5Q1201 -108 1201.5 -142.0Q1202 -176 1202 -181Q1202 -198 1197.5 -203.5Q1193 -209 1174 -209Q1168 -209 1137.0 -209.0Q1106 -209 1058.5 -209.5Q1011 -210 956.0 -210.0Q901 -210 847.0 -210.5Q793 -211 748.0 -211.0Q703 -211 676.0 -211.0Q649 -211 649 -211Z" fill="#474b4f" stroke="none" transform="scale(1,-1) translate(0,-256)" /></svg>