<?xml version="1.0" encoding="utf-8" ?>
<svg baseProfile="full" height="256" version="1.1" width="256" xmlns="http://www.w3.org/2000/svg" xmlns:ev="http://www.w3.org/2001/xml-events" xmlns:xlink="http://www.w3.org/1999/xlink"><defs /><path d="M649 -212 651 777Q651 777 624.5 768.5Q598 760 554.0 745.5Q510 731 457.0 714.0Q404 697 350.0 679.5Q296 662 249.5 646.5Q203 631 171.0 621.5Q139 612 132 610Q106 603 99.0 597.0Q92 591 91 572Q91 568 90.5 534.0Q90 500 88.5 445.5Q87 391 85.5 324.5Q84 258 82.5 188.0Q81 118 79.5 52.0Q78 -14 77.0 -67.5Q76 -121 75.5 -153.5Q75 -186 75 -189Q75 -201 77.0 -205.0Q79 -209 89 -209Q92 -209 124.0 -209.0Q156 -209 206.0 -209.5Q256 -210 315.0 -210.0Q374 -210 433.0 -210.5Q492 -211 540.5 -211.0Q589 -211 619.0 -211.5Q649 -212 649 -212Z" fill="#6d7276" stroke="none" transform="scale(1,-1) translate(0,-256)" /></svg>