<?xml version="1.0" encoding="utf-8" ?>
<svg baseProfile="full" height="256" version="1.1" width="256" xmlns="http://www.w3.org/2000/svg" xmlns:ev="http://www.w3.org/2001/xml-events" xmlns:xlink="http://www.w3.org/1999/xlink"><defs /><path d="M814 363Q815 364 829.0 361.5Q843 359 861.0 355.0Q879 351 892.5 347.5Q906 344 907 343Q908 342 908.5 332.0Q909 322 909.0 312.0Q909 302 908 301Q906 300 892.5 302.0Q879 304 861.0 307.0Q843 310 829.5 313.0Q816 316 814 317Q813 318 812.0 329.0Q811 340 811.5 351.0Q812 362 814 363Z" fill="#f9b03c" stroke="none" transform="scale(1,-1) translate(0,-256)" /><path d="M741 356Q752 356 752 344Q752 332 742 332Q732 332 731 344Q730 347 733.0 351.5Q736 356 741 356Z" fill="#f9b03c" stroke="none" transform="scale(1,-1) translate(0,-256)" /><path d="M971 315Q976 315 978.0 310.5Q980 306 980 303Q980 300 978.0 296.0Q976 292 970 292Q959 293 960 304Q961 315 971 315Z" fill="#f9b03c" stroke="none" transform="scale(1,-1) translate(0,-256)" /><path d="M1027 317Q1028 318 1043.0 315.5Q1058 313 1073.0 309.5Q1088 306 1089 305Q1090 303 1090.5 294.0Q1091 285 1090.5 276.5Q1090 268 1089 267Q1088 267 1073.5 269.5Q1059 272 1044.5 274.5Q1030 277 1028 278Q1027 278 1026.5 287.5Q1026 297 1026.5 306.5Q1027 316 1027 317Z" fill="#f9b03c" stroke="none" transform="scale(1,-1) translate(0,-256)" /><path d="M1197 244 1196 280Q1196 280 1192.0 280.5Q1188 281 1187 280Q1186 279 1186.0 271.0Q1186 263 1186.0 255.0Q1186 247 1187 245Q1187 244 1192.0 244.0Q1197 244 1197 244Z" fill="#f9b03c" stroke="none" transform="scale(1,-1) translate(0,-256)" /><path d="M1143 275Q1147 275 1149.0 271.5Q1151 268 1151 265Q1151 261 1148.5 258.0Q1146 255 1142 255Q1134 255 1134 265Q1135 275 1143 275Z" fill="#f9b03c" stroke="none" transform="scale(1,-1) translate(0,-256)" /></svg>