<?xml version="1.0" encoding="utf-8" ?>
<svg baseProfile="full" height="256" version="1.1" width="256" xmlns="http://www.w3.org/2000/svg" xmlns:ev="http://www.w3.org/2001/xml-events" xmlns:xlink="http://www.w3.org/1999/xlink"><defs /><path d="M231 22 306 23Q306 23 306.0 -2.5Q306 -28 306.0 -65.5Q306 -103 306.5 -141.0Q307 -179 306.5 -204.5Q306 -230 306 -230Q305 -231 294.0 -231.5Q283 -232 269.0 -232.0Q255 -232 244.5 -231.5Q234 -231 234 -230Q233 -229 233.0 -204.0Q233 -179 232.5 -142.0Q232 -105 232.0 -67.5Q232 -30 231.5 -4.5Q231 21 231 22Z" fill="#faddc3" stroke="none" transform="scale(1,-1) translate(0,-256)" /><path d="M972 19 1046 20Q1046 20 1046.0 -4.5Q1046 -29 1046.0 -66.0Q1046 -103 1045.5 -139.5Q1045 -176 1044.5 -201.0Q1044 -226 1044 -226Q1042 -227 1031.0 -227.5Q1020 -228 1006.0 -227.5Q992 -227 981.5 -226.5Q971 -226 971 -225Q971 -223 970.5 -198.0Q970 -173 970.5 -137.0Q971 -101 971.0 -65.0Q971 -29 971.5 -5.0Q972 19 972 19Z" fill="#faddc3" stroke="none" transform="scale(1,-1) translate(0,-256)" /></svg>