<?xml version="1.0" encoding="utf-8" ?>
<svg baseProfile="full" height="256" version="1.1" width="256" xmlns="http://www.w3.org/2000/svg" xmlns:ev="http://www.w3.org/2001/xml-events" xmlns:xlink="http://www.w3.org/1999/xlink"><defs /><path d="M130 423 129 7 229 8V423Z" fill="#e2c090" stroke="none" transform="scale(1,-1) translate(0,-256)" /><path d="M254 531 435 533Q435 533 435.5 554.5Q436 576 444.0 607.0Q452 638 473.0 669.5Q494 701 534.0 722.0Q574 743 641 742Q705 741 744.5 719.5Q784 698 804.5 666.5Q825 635 833.0 603.5Q841 572 841.5 550.5Q842 529 842 529H1023V116L254 115Z" fill="#e2c090" stroke="none" transform="scale(1,-1) translate(0,-256)" /><path d="M1146 420Q1146 420 1146.0 391.0Q1146 362 1146.0 315.0Q1146 268 1146.0 215.0Q1146 162 1145.5 115.0Q1145 68 1145.0 38.0Q1145 8 1145 8H1049V420Z" fill="#e2c090" stroke="none" transform="scale(1,-1) translate(0,-256)" /><path d="M140 -143Q141 -143 157.0 -142.5Q173 -142 189.0 -142.0Q205 -142 205 -143Q205 -145 204.5 -161.5Q204 -178 204.0 -194.5Q204 -211 204 -211H141Q141 -211 140.5 -195.0Q140 -179 140.0 -162.0Q140 -145 140 -143Z" fill="#e2c090" stroke="none" transform="scale(1,-1) translate(0,-256)" /><path d="M1070 -141 1071 -212H1135Q1135 -212 1135.0 -201.5Q1135 -191 1135.5 -177.0Q1136 -163 1136.0 -152.0Q1136 -141 1136 -140Q1136 -139 1119.5 -139.0Q1103 -139 1086.5 -139.0Q1070 -139 1070 -141Z" fill="#e2c090" stroke="none" transform="scale(1,-1) translate(0,-256)" /></svg>