<?xml version="1.0" encoding="utf-8" ?>
<svg baseProfile="full" height="256" version="1.1" width="256" xmlns="http://www.w3.org/2000/svg" xmlns:ev="http://www.w3.org/2001/xml-events" xmlns:xlink="http://www.w3.org/1999/xlink"><defs /><path d="M170 497Q171 505 166.0 528.5Q161 552 157.5 583.5Q154 615 160.0 649.5Q166 684 188.5 715.5Q211 747 257 769Q307 791 350.5 787.5Q394 784 428.5 764.5Q463 745 488.5 721.0Q514 697 528.0 678.0Q542 659 544 658Q548 654 578.5 653.0Q609 652 643 652Q676 652 708.0 654.0Q740 656 744 659Q746 660 756.0 678.5Q766 697 785.5 721.0Q805 745 835.5 764.5Q866 784 909.0 789.0Q952 794 1008 772Q1056 754 1079.5 725.0Q1103 696 1109.5 663.0Q1116 630 1113.5 598.0Q1111 566 1106.5 541.5Q1102 517 1105 506Q1108 490 1122.5 473.0Q1137 456 1153.5 430.5Q1170 405 1182.5 364.5Q1195 324 1194 262Q1194 207 1174.5 146.5Q1155 86 1113.0 28.0Q1071 -30 1004.0 -76.5Q937 -123 842.0 -150.0Q747 -177 622 -175Q496 -173 405.0 -144.0Q314 -115 251.5 -68.5Q189 -22 152.0 33.5Q115 89 98.5 144.0Q82 199 81 244Q79 301 92.0 341.5Q105 382 122.5 411.0Q140 440 154.5 460.5Q169 481 170 497Z" fill="#b7d019" stroke="none" transform="scale(1,-1) translate(0,-256)" /></svg>