<?xml version="1.0" encoding="utf-8" ?>
<svg baseProfile="full" height="256" version="1.1" width="256" xmlns="http://www.w3.org/2000/svg" xmlns:ev="http://www.w3.org/2001/xml-events" xmlns:xlink="http://www.w3.org/1999/xlink"><defs /><path d="M295 216 371 252Q371 252 393.5 246.0Q416 240 454.0 232.0Q492 224 539.5 217.5Q587 211 637 211Q704 209 758.0 219.5Q812 230 843.5 241.0Q875 252 875 252L984 199Q984 199 963.5 181.0Q943 163 900.5 140.0Q858 117 792.0 99.5Q726 82 634 84Q545 85 481.5 101.5Q418 118 377.5 138.5Q337 159 317.5 174.5Q298 190 298 190Z" fill="#ff6011" stroke="none" transform="scale(1,-1) translate(0,-256)" /></svg>