<?xml version="1.0" encoding="utf-8" ?>
<svg baseProfile="full" height="256" version="1.1" width="256" xmlns="http://www.w3.org/2000/svg" xmlns:ev="http://www.w3.org/2001/xml-events" xmlns:xlink="http://www.w3.org/1999/xlink"><defs /><path d="M1004 553Q1004 590 984.5 616.5Q965 643 929 643Q898 642 876.5 616.0Q855 590 855 553Q855 516 876.5 490.0Q898 464 929 463Q964 462 984.0 489.0Q1004 516 1004 553Z" fill="#2f2f2f" stroke="none" transform="scale(1,-1) translate(0,-256)" /><path d="M430 560Q429 597 407.0 622.5Q385 648 355 647Q315 646 299.0 620.0Q283 594 283 556Q284 511 304.5 488.5Q325 466 355 466Q390 465 411.0 488.5Q432 512 430 560Z" fill="#2f2f2f" stroke="none" transform="scale(1,-1) translate(0,-256)" /><path d="M537 355Q546 373 539.5 384.5Q533 396 522 401Q513 404 502.5 401.5Q492 399 486 387Q479 375 481.5 361.0Q484 347 494 341Q505 335 518.0 338.5Q531 342 537 355Z" fill="#2f2f2f" stroke="none" transform="scale(1,-1) translate(0,-256)" /><path d="M791 382Q783 402 770.5 404.5Q758 407 750 404Q724 393 732 363Q736 350 748.0 343.0Q760 336 772 340Q785 343 790.5 356.0Q796 369 791 382Z" fill="#2f2f2f" stroke="none" transform="scale(1,-1) translate(0,-256)" /></svg>