<?xml version="1.0" encoding="utf-8" ?>
<svg baseProfile="full" height="256" version="1.1" width="256" xmlns="http://www.w3.org/2000/svg" xmlns:ev="http://www.w3.org/2001/xml-events" xmlns:xlink="http://www.w3.org/1999/xlink"><defs /><path d="M558 415Q558 415 561.5 397.5Q565 380 575.0 357.5Q585 335 606.5 319.0Q628 303 665 304Q693 305 712.5 320.5Q732 336 743.5 355.5Q755 375 760.0 390.0Q765 405 765 405Q765 405 756.5 405.0Q748 405 736 398Q725 391 708.0 381.0Q691 371 663 371Q635 370 615.0 383.0Q595 396 586 402Q577 409 567.5 412.0Q558 415 558 415Z" fill="#ec5f32" stroke="none" transform="scale(1,-1) translate(0,-256)" /></svg>