<?xml version="1.0" encoding="utf-8" ?>
<svg baseProfile="full" height="256" version="1.1" width="256" xmlns="http://www.w3.org/2000/svg" xmlns:ev="http://www.w3.org/2001/xml-events" xmlns:xlink="http://www.w3.org/1999/xlink"><defs /><path d="M644 583Q651 582 648.0 573.5Q645 565 645 558Q644 552 649.5 546.5Q655 541 652 527Q650 517 639.5 516.5Q629 516 619.0 524.0Q609 532 609 547Q608 570 622.0 577.5Q636 585 644 583Z" fill="#ffd285" stroke="none" transform="scale(1,-1) translate(0,-256)" /><path d="M473 524Q462 527 459.5 537.5Q457 548 461.5 560.5Q466 573 476 579Q488 586 507.5 584.0Q527 582 528 573Q529 565 521.5 562.0Q514 559 506 551Q497 542 493.0 531.0Q489 520 473 524Z" fill="#ffd285" stroke="none" transform="scale(1,-1) translate(0,-256)" /><path d="M531 423Q518 419 510.5 431.5Q503 444 506 459Q511 484 529.0 490.0Q547 496 552 493Q557 489 551.0 478.5Q545 468 542 461Q540 456 542.0 448.0Q544 440 543.0 433.0Q542 426 531 423Z" fill="#ffd285" stroke="none" transform="scale(1,-1) translate(0,-256)" /><path d="M641 442Q650 440 650.0 430.5Q650 421 648 411Q645 402 638.0 392.5Q631 383 624 386Q620 388 615.5 395.0Q611 402 615 418Q620 435 628.0 439.5Q636 444 641 442Z" fill="#ffd285" stroke="none" transform="scale(1,-1) translate(0,-256)" /><path d="M705 496Q712 503 721.5 498.5Q731 494 737 486Q743 478 749.0 464.5Q755 451 748 444Q734 430 711 460Q700 474 700.0 483.0Q700 492 705 496Z" fill="#ffd285" stroke="none" transform="scale(1,-1) translate(0,-256)" /></svg>