<?xml version="1.0" encoding="utf-8" ?>
<svg baseProfile="full" height="256" version="1.1" width="256" xmlns="http://www.w3.org/2000/svg" xmlns:ev="http://www.w3.org/2001/xml-events" xmlns:xlink="http://www.w3.org/1999/xlink"><defs /><path d="M607 580Q603 574 588.0 577.0Q573 580 556.0 587.0Q539 594 529 602Q517 611 514.0 626.0Q511 641 523 654Q535 668 554.0 664.5Q573 661 585 645Q596 630 605.5 609.0Q615 588 607 580Z" fill="#e27406" stroke="none" transform="scale(1,-1) translate(0,-256)" /><path d="M602 658Q602 677 616.0 684.5Q630 692 646 692Q663 693 674.0 683.5Q685 674 685 655Q685 642 677.0 628.0Q669 614 659.5 604.5Q650 595 646 595Q635 596 624.5 607.0Q614 618 608.0 632.5Q602 647 602 658Z" fill="#e27406" stroke="none" transform="scale(1,-1) translate(0,-256)" /><path d="M708 550Q710 559 728.5 572.0Q747 585 773 594Q833 612 843 567Q848 546 834.0 532.0Q820 518 794 517Q776 516 755.5 521.0Q735 526 721.0 534.0Q707 542 708 550Z" fill="#e27406" stroke="none" transform="scale(1,-1) translate(0,-256)" /><path d="M585 547Q586 557 569.0 566.5Q552 576 531.5 582.5Q511 589 500 590Q480 592 465.0 582.0Q450 572 449 551Q444 505 496 507Q517 508 537.5 515.5Q558 523 571.5 532.5Q585 542 585 547Z" fill="#e27406" stroke="none" transform="scale(1,-1) translate(0,-256)" /><path d="M600 512Q604 509 602.0 494.5Q600 480 593.5 461.5Q587 443 578 427Q563 403 542.5 405.5Q522 408 511 416Q500 424 495.5 442.5Q491 461 503 477Q514 491 536.5 499.5Q559 508 578.5 511.0Q598 514 600 512Z" fill="#e27406" stroke="none" transform="scale(1,-1) translate(0,-256)" /><path d="M650 493Q657 493 666.0 475.5Q675 458 682.5 437.5Q690 417 690 409Q691 394 681.5 382.0Q672 370 643 371Q615 373 609.0 384.5Q603 396 604 410Q604 419 612.5 439.5Q621 460 632.0 477.0Q643 494 650 493Z" fill="#e27406" stroke="none" transform="scale(1,-1) translate(0,-256)" /><path d="M694 508Q701 514 724.5 510.5Q748 507 771 495Q794 482 802.0 465.5Q810 449 799 429Q795 421 783.0 415.0Q771 409 755.5 410.5Q740 412 724 427Q709 442 701.5 460.0Q694 478 692.5 492.0Q691 506 694 508Z" fill="#e27406" stroke="none" transform="scale(1,-1) translate(0,-256)" /></svg>