<?xml version="1.0" encoding="utf-8" ?>
<svg baseProfile="full" height="256" version="1.1" width="256" xmlns="http://www.w3.org/2000/svg" xmlns:ev="http://www.w3.org/2001/xml-events" xmlns:xlink="http://www.w3.org/1999/xlink"><defs /><path d="M685 264Q685 264 675.5 254.0Q666 244 656.5 234.5Q647 225 647 224L586 163Q572 148 551 148H357Q355 148 352 148Q333 150 320.0 165.5Q307 181 309 201Q312 220 326.5 232.5Q341 245 360 245H503Q523 245 537 258L671 388Q677 396 684 402Q714 425 751 425H907Q919 425 920.5 417.0Q922 409 919.0 400.0Q916 391 914 388L702 129Q699 125 695 125Q685 125 685 134Z" fill="#fafafa" stroke="none" transform="scale(1,-1) translate(0,-256)" /><path d="M1005 393Q1060 350 1059 281V-53Q1059 -56 1059 -58Q1057 -77 1042.0 -89.5Q1027 -102 1008 -100Q990 -98 977.5 -84.0Q965 -70 966 -51V266Q966 275 956 275Q947 275 947 266V13H695Q692 13 689 14Q682 20 687 28L986 395Q992 402 999 397Q1003 395 1005 393Z" fill="#fafafa" stroke="none" transform="scale(1,-1) translate(0,-256)" /><path d="M256 -44Q256 -67 272.5 -83.5Q289 -100 312 -100H553Q576 -100 592.5 -83.5Q609 -67 609 -44V-13Q609 -3 600 -3H264Q256 -3 256 -12Z" fill="#fafafa" stroke="none" transform="scale(1,-1) translate(0,-256)" /><path d="M248 -3Q255 -4 256 4V341Q256 350 247 350H216Q192 350 175.5 333.5Q159 317 159 294V53Q159 30 175.5 13.5Q192 -3 216 -3Z" fill="#fafafa" stroke="none" transform="scale(1,-1) translate(0,-256)" /></svg>