<?xml version="1.0" encoding="utf-8" ?>
<svg baseProfile="full" height="256" version="1.1" width="256" xmlns="http://www.w3.org/2000/svg" xmlns:ev="http://www.w3.org/2001/xml-events" xmlns:xlink="http://www.w3.org/1999/xlink"><defs /><path d="M638 891Q746 891 847.0 856.0Q948 821 1027.0 752.5Q1106 684 1152.5 583.0Q1199 482 1199 350Q1199 218 1153.0 116.5Q1107 15 1027.5 -53.5Q948 -122 847.5 -156.5Q747 -191 638 -191Q528 -191 427.5 -156.0Q327 -121 247.5 -52.0Q168 17 122.0 118.0Q76 219 76 350Q76 481 122.0 581.5Q168 682 247.5 751.0Q327 820 427.5 855.5Q528 891 638 891Z" fill="#000000" stroke="none" transform="scale(1,-1) translate(0,-256)" /><path d="M944 136Q941 113 928.5 99.5Q916 86 904.5 80.5Q893 75 893 75Q902 66 911.5 63.5Q921 61 932 61Q935 62 937.0 58.5Q939 55 937 53Q911 20 870.0 11.0Q829 2 795 23Q799 10 807 -1Q812 -6 805 -9Q761 -27 717.5 -18.5Q674 -10 637 25Q601 -10 557.5 -18.5Q514 -27 470 -9Q463 -6 468 -1Q476 10 480 23Q446 2 404.5 11.0Q363 20 338 53Q336 55 337.5 58.5Q339 62 343 61Q354 61 363.0 63.5Q372 66 382 75Q382 75 370.5 80.5Q359 86 346.5 99.5Q334 113 331 136Q328 154 334.0 172.5Q340 191 350 206Q352 208 354.0 207.0Q356 206 356 204Q357 192 364.0 172.0Q371 152 397 143Q422 135 442.0 147.0Q462 159 482.5 178.0Q503 197 528.5 211.5Q554 226 590 223Q619 220 637 198Q637 198 637.0 198.0Q637 198 637 198Q637 198 637.0 198.0Q637 198 637 198Q656 220 685 223Q720 226 745.5 211.5Q771 197 792.0 178.0Q813 159 833.0 147.0Q853 135 877 143Q903 152 910.5 172.0Q918 192 918 204Q918 206 920.5 207.0Q923 208 924 206Q935 191 940.5 172.5Q946 154 944 136Z" fill="#000000" stroke="none" transform="scale(1,-1) translate(0,-256)" /><path d="M298.2437438964844 516.3019561767578Q295.248046875 516.9998168945312 295.7608108520508 519.0339660644531Q296.27357482910156 521.068115234375 298.2778015136719 521.7346954345703Q310.30316162109375 525.7341766357422 324.81571197509766 527.6807403564453Q339.32826232910156 529.6273040771484 351.3280792236328 529.5522308349609Q380.33189392089844 530.0498962402344 404.7719192504883 520.3893280029297Q429.2119445800781 510.728759765625 446.10951232910156 494.3241882324219L438.3267517089844 529.0079498291016Q438.3395233154297 531.0452270507812 440.8458709716797 532.048225402832Q443.3522186279297 533.0512237548828 446.3436584472656 531.6742706298828Q489.2238006591797 512.3906707763672 507.0234375 480.3607177734375Q526.7932434082031 443.5646057128906 507.5636444091797 407.0124816894531Q476.64500427246094 420.1091766357422 434.18609619140625 426.8264389038086Q391.72718811035156 433.543701171875 355.7234802246094 433.08982849121094Q328.7196350097656 432.57965087890625 302.1859817504883 427.3126983642578Q275.65232849121094 422.0457458496094 249.69529724121094 428.99932861328125Q233.71682739257812 432.49488830566406 219.75535583496094 438.6943054199219Q205.79388427734375 444.8937225341797 193.8408966064453 452.4388122558594Q191.8494415283203 453.80950927734375 192.36007690429688 455.50411224365234Q192.87071228027344 457.19871520996094 195.8749237060547 457.8590393066406Q217.9086456298828 463.1541442871094 225.45110321044922 469.8981475830078Q232.99356079101562 476.64215087890625 252.04861450195312 485.3514862060547Q276.1163635253906 496.0668182373047 293.120361328125 496.6395568847656Q310.1243591308594 497.21229553222656 319.10719299316406 494.4396209716797Q328.09002685546875 491.6669464111328 328.09002685546875 491.6669464111328Q328.09002685546875 491.6669464111328 320.6476135253906 500.8816146850586Q313.2052001953125 510.0962829589844 298.2437438964844 516.3019561767578Z" fill="#000000" stroke="none" transform="scale(1,-1) translate(0,-256)" /><path d="M977.524658203125 394.3006591796875Q980.5213623046875 394.838623046875 980.0116195678711 396.39308166503906Q979.5018768310547 397.9475402832031 977.4986572265625 398.4542236328125Q965.4793395996094 401.49432373046875 950.9698104858398 402.96119689941406Q936.4602813720703 404.4280700683594 924.4604644775391 404.3529968261719Q895.4576568603516 404.6907653808594 871.003532409668 397.2687530517578Q846.5494079589844 389.84674072265625 829.6276702880859 377.2796936035156L837.4617919921875 403.8087158203125Q837.4520416259766 405.3663024902344 834.9472045898438 406.12945556640625Q832.4423675537109 406.8926086425781 829.4489135742188 405.83544921875Q786.5405731201172 391.0289611816406 768.693603515625 366.51416015625Q748.8694152832031 338.35247802734375 768.0446319580078 310.4347839355469Q798.9824066162109 320.4934387207031 841.4508819580078 325.6916809082031Q883.9193572998047 330.8899230957031 919.9220581054688 330.595947265625Q946.9248962402344 330.24566650390625 973.4504928588867 326.2578887939453Q999.9760894775391 322.2701110839844 1025.9431915283203 327.6247253417969Q1041.9266967773438 330.32080078125 1055.897232055664 335.0811462402344Q1069.8677673339844 339.84149169921875 1081.8318328857422 345.6277160644531Q1083.8253021240234 346.6786193847656 1083.3171844482422 347.9734802246094Q1082.809066772461 349.2683410644531 1079.8058624267578 349.7687683105469Q1057.7801971435547 353.7846984863281 1050.2478103637695 358.9297332763672Q1042.7154235839844 364.07476806640625 1023.6734619140625 370.7054443359375Q999.621826171875 378.8624267578125 982.6188354492188 379.2752685546875Q965.6158447265625 379.6881103515625 956.6289825439453 377.5550231933594Q947.6421203613281 375.42193603515625 947.6421203613281 375.42193603515625Q947.6421203613281 375.42193603515625 955.0981292724609 382.4779968261719Q962.5541381835938 389.5340576171875 977.524658203125 394.3006591796875Z" fill="#000000" stroke="none" transform="scale(1,-1) translate(0,-256)" /><path d="M1117 393Q1113 382 1111.0 395.5Q1109 409 1108.0 434.5Q1107 460 1108.0 485.5Q1109 511 1111.5 525.0Q1114 539 1118 529Q1126 510 1149.5 504.5Q1173 499 1189 498Q1203 497 1203 483V453Q1203 442 1191 439Q1181 436 1165.5 430.5Q1150 425 1136.0 415.5Q1122 406 1117 393Z" fill="#000000" stroke="none" transform="scale(1,-1) translate(0,-256)" /><path d="M158.0 393.0Q162.0 382.0 164.0 395.5Q166.0 409.0 167.0 434.5Q168.0 460.0 167.0 485.5Q166.0 511.0 163.5 525.0Q161.0 539.0 157.0 529.0Q149.0 510.0 125.5 504.5Q102.0 499.0 86.0 498.0Q72.0 497.0 72.0 483.0V453.0Q72.0 442.0 84.0 439.0Q94.0 436.0 109.5 430.5Q125.0 425.0 139.0 415.5Q153.0 406.0 158.0 393.0Z" fill="#000000" stroke="none" transform="scale(1,-1) translate(0,-256)" /><path d="M718 373Q728 340 745.5 311.5Q763 283 779.0 257.5Q795 232 799.5 209.0Q804 186 788 163Q776 148 761.5 145.0Q747 142 737 139Q731 138 719.0 122.0Q707 106 687.5 90.5Q668 75 638 75Q638 75 637.5 75.0Q637 75 637 75Q637 75 637.0 75.0Q637 75 637 75Q607 75 587.5 90.5Q568 106 556.0 122.0Q544 138 538 139Q528 142 513.5 145.0Q499 148 487 163Q470 186 475.0 209.0Q480 232 495.5 257.5Q511 283 529.0 311.5Q547 340 557 373Q573 427 587.5 457.5Q602 488 637 489Q637 489 637.0 489.0Q637 489 637 489Q637 489 637.5 489.0Q638 489 638 489Q673 488 687.5 457.5Q702 427 718 373Z" fill="#000000" stroke="none" transform="scale(1,-1) translate(0,-256)" /><path d="M548.2686767578125 164.98129272460938Q531.4820861816406 142.7099609375 515.3647613525391 118.17081451416016Q499.2474365234375 93.63166809082031 489.1984558105469 67.37579345703125Q482.4084014892578 49.55113220214844 481.0174255371094 32.277557373046875Q479.62644958496094 15.003982543945312 480.8138961791992 3.7560348510742188Q482.0013427734375 -7.491912841796875 482.0013427734375 -7.491912841796875Q479.5889892578125 -0.5740203857421875 477.5774459838867 4.671623229980469Q475.56590270996094 9.917266845703125 473.13856506347656 10.603958129882812Q465.8640441894531 15.779632568359375 454.9485168457031 21.98534393310547Q444.0329895019531 28.191055297851562 438.6788635253906 46.33357238769531Q431.9862060546875 69.01171875 441.3471908569336 89.74640655517578Q450.7081756591797 110.48109436035156 468.56858825683594 130.3701629638672Q486.4290008544922 150.2592315673828 505.09852600097656 169.91940307617188Q511.5939025878906 177.43502807617188 521.4693222045898 187.63178253173828Q531.3447418212891 197.8285369873047 537.2957153320312 203.41969299316406Q565.16015625 230.87103271484375 578.2757720947266 241.70999908447266Q591.3913879394531 252.54896545410156 591.3913879394531 252.54896545410156Q591.3913879394531 252.54896545410156 585.2818374633789 237.12989044189453Q579.1722869873047 221.7108154296875 569.2706451416016 200.60945892333984Q559.3690032958984 179.5081024169922 548.2686767578125 164.98129272460938Z" fill="#000000" stroke="none" transform="scale(1,-1) translate(0,-256)" /><path d="M727.0113220214844 164.98129272460938Q743.7979125976562 142.7099609375 759.9152374267578 118.17081451416016Q776.0325622558594 93.63166809082031 786.08154296875 67.37579345703125Q792.8715972900391 49.55113220214844 794.2625732421875 32.277557373046875Q795.6535491943359 15.003982543945312 794.4661026000977 3.7560348510742188Q793.2786560058594 -7.491912841796875 793.2786560058594 -7.491912841796875Q795.6910095214844 -0.5740203857421875 797.7025527954102 4.671623229980469Q799.7140960693359 9.917266845703125 802.1414337158203 10.603958129882812Q809.4159545898438 15.779632568359375 820.3314819335938 21.98534393310547Q831.2470092773438 28.191055297851562 836.6011352539062 46.33357238769531Q843.2937927246094 69.01171875 833.9328079223633 89.74640655517578Q824.5718231201172 110.48109436035156 806.7114105224609 130.3701629638672Q788.8509979248047 150.2592315673828 770.1814727783203 169.91940307617188Q763.6860961914062 177.43502807617188 753.810676574707 187.63178253173828Q743.9352569580078 197.8285369873047 737.9842834472656 203.41969299316406Q710.1198425292969 230.87103271484375 697.0042266845703 241.70999908447266Q683.8886108398438 252.54896545410156 683.8886108398438 252.54896545410156Q683.8886108398438 252.54896545410156 689.998161315918 237.12989044189453Q696.1077117919922 221.7108154296875 706.0093536376953 200.60945892333984Q715.9109954833984 179.5081024169922 727.0113220214844 164.98129272460938Z" fill="#000000" stroke="none" transform="scale(1,-1) translate(0,-256)" /></svg>