<?xml version="1.0" encoding="utf-8" ?>
<svg baseProfile="full" height="256" version="1.1" width="256" xmlns="http://www.w3.org/2000/svg" xmlns:ev="http://www.w3.org/2001/xml-events" xmlns:xlink="http://www.w3.org/1999/xlink"><defs /><path d="M293 15H632H972Q1009 15 1009 52Q1009 88 972 88H671V245H900Q936 245 936 282Q936 317 900 317H382Q346 317 346 282Q346 245 382 245H590V88H293Q256 88 256 52Q256 15 293 15ZM285 373Q301 347 357 362Q473 397 523 466Q566 526 578 636H684V477Q684 422 705 403Q726 383 788 383H904Q941 383 959 395Q980 407 988 440Q990 449 989.5 458.0Q989 467 987 476Q983 495 968 501Q947 510 932 494Q919 481 913 455Q907 450 895 450H799Q777 450 771 455Q764 459 764 476V634H895Q916 634 916 613V583Q916 542 957 542Q998 542 998 583V651Q998 676 983 692Q967 708 941 708H834H673V752Q673 793 632 793Q591 793 591 752V708H327Q302 708 286 692Q270 676 270 651V564Q270 524 309 524Q349 524 349 564V613Q349 634 369 634H494Q486 554 458 512Q421 462 341 435Q309 428 293 413Q272 395 285 373Z" fill="#fafafa" stroke="none" transform="scale(1,-1) translate(0,-256)" /></svg>