<?xml version="1.0" encoding="utf-8" ?>
<svg baseProfile="full" height="256" version="1.1" width="256" xmlns="http://www.w3.org/2000/svg" xmlns:ev="http://www.w3.org/2001/xml-events" xmlns:xlink="http://www.w3.org/1999/xlink"><defs /><path d="M787 393 773 384 849 304Q849 304 849.5 321.5Q850 339 852.0 358.5Q854 378 860 382Q863 385 875.0 386.5Q887 388 895 388Q914 389 917.0 398.0Q920 407 919 418Q918 426 917.5 433.0Q917 440 908.5 445.0Q900 450 875 452Q869 453 855.0 454.5Q841 456 825.5 455.0Q810 454 800 446Q789 437 787.0 424.5Q785 412 786.0 402.5Q787 393 787 393Z" fill="#00821d" stroke="none" transform="scale(1,-1) translate(0,-256)" /><path d="M569 537 602 488Q602 488 613.0 493.0Q624 498 638.5 504.0Q653 510 661 515Q674 522 684.0 529.5Q694 537 696 545Q697 550 695.0 564.0Q693 578 680 598Q664 623 651.0 618.5Q638 614 638 605Q638 596 634.0 582.0Q630 568 618 560Q594 546 569 537Z" fill="#00821d" stroke="none" transform="scale(1,-1) translate(0,-256)" /><path d="M418 399 472 341 446 312Q446 312 438.0 303.5Q430 295 418.0 284.5Q406 274 394.0 266.0Q382 258 373 259Q356 261 355.0 276.5Q354 292 355 304Q360 328 376 347Q380 351 390.0 363.5Q400 376 409.0 387.5Q418 399 418 399Z" fill="#00821d" stroke="none" transform="scale(1,-1) translate(0,-256)" /><path d="M608 235 613 238Q613 238 628.0 229.5Q643 221 662.0 209.5Q681 198 695.5 189.0Q710 180 709 178Q694 169 677 168Q664 167 652.5 166.0Q641 165 638 163Q637 161 640.5 154.0Q644 147 642.0 139.5Q640 132 624 127Q600 120 590.5 130.0Q581 140 576 145Q570 149 559.5 162.0Q549 175 549 183Q549 191 556.0 199.0Q563 207 573 212Q583 218 595.5 226.5Q608 235 608 235Z" fill="#00821d" stroke="none" transform="scale(1,-1) translate(0,-256)" /></svg>