<?xml version="1.0" encoding="utf-8" ?>
<svg baseProfile="full" height="256" version="1.1" width="256" xmlns="http://www.w3.org/2000/svg" xmlns:ev="http://www.w3.org/2001/xml-events" xmlns:xlink="http://www.w3.org/1999/xlink"><defs /><path d="M654 -42Q650 -21 635.5 -8.0Q621 5 605 2Q589 -1 580.5 -18.0Q572 -35 576 -57Q580 -78 594.0 -91.0Q608 -104 625 -101Q641 -98 649.5 -81.0Q658 -64 654 -42Z" fill="#2f7889" stroke="none" transform="scale(1,-1) translate(0,-256)" /><path d="M573 771Q580 773 599.5 775.0Q619 777 640.5 778.0Q662 779 677.5 779.5Q693 780 693 780L704 740Q704 740 683.0 739.5Q662 739 635.5 737.0Q609 735 592 731Q575 728 553.5 717.5Q532 707 512.0 695.0Q492 683 479.0 674.0Q466 665 466 665Q461 662 455 662Q443 662 437 672Q433 680 435.0 688.0Q437 696 444 701Q444 701 458.0 709.5Q472 718 493.0 730.0Q514 742 535.5 753.5Q557 765 573 771Z" fill="#2f7889" stroke="none" transform="scale(1,-1) translate(0,-256)" /><path d="M603 668Q611 670 630.0 672.0Q649 674 670.5 675.0Q692 676 707.5 676.5Q723 677 723 677L734 637Q734 637 712.5 636.0Q691 635 664.5 633.0Q638 631 621 628Q605 625 583.0 614.5Q561 604 540.5 592.5Q520 581 507.0 572.5Q494 564 494 564Q489 562 483 562Q472 562 466 572Q461 579 463.5 587.5Q466 596 473 600Q473 600 487.0 608.5Q501 617 522.0 629.0Q543 641 565.0 652.0Q587 663 603 668Z" fill="#2f7889" stroke="none" transform="scale(1,-1) translate(0,-256)" /><path d="M633 565Q641 567 660.0 568.5Q679 570 700.5 571.0Q722 572 737.5 572.5Q753 573 753 573L763 533Q763 533 742.0 532.0Q721 531 694.5 529.5Q668 528 651 525Q634 522 612.0 512.0Q590 502 569.5 491.0Q549 480 535.5 471.5Q522 463 522 463Q517 461 511 461Q500 461 494 472Q490 479 492.5 487.0Q495 495 502 499Q502 499 516.0 507.5Q530 516 551.5 527.5Q573 539 595.0 549.5Q617 560 633 565Z" fill="#2f7889" stroke="none" transform="scale(1,-1) translate(0,-256)" /><path d="M663 462Q671 464 690.0 465.5Q709 467 731.0 468.0Q753 469 768.5 469.5Q784 470 784 470L793 429Q793 429 771.5 428.5Q750 428 723.5 426.0Q697 424 680 421Q663 419 641.0 409.5Q619 400 598.0 389.0Q577 378 563.5 370.0Q550 362 550 362Q545 360 540 360Q528 361 522 371Q518 379 520.5 387.0Q523 395 531 399Q531 399 545.5 407.0Q560 415 581.5 426.0Q603 437 625.0 447.0Q647 457 663 462Z" fill="#2f7889" stroke="none" transform="scale(1,-1) translate(0,-256)" /><path d="M693 359Q701 361 720.5 362.5Q740 364 761.5 365.0Q783 366 798.5 366.0Q814 366 814 366L822 326Q822 326 801.0 325.0Q780 324 753.0 322.0Q726 320 709 318Q692 315 670.0 306.5Q648 298 627.0 287.5Q606 277 592.0 269.0Q578 261 578 261Q573 259 568 259Q556 260 551 270Q547 278 549.5 286.0Q552 294 560 298Q560 298 574.5 305.5Q589 313 610.5 324.0Q632 335 654.5 344.5Q677 354 693 359Z" fill="#2f7889" stroke="none" transform="scale(1,-1) translate(0,-256)" /><path d="M859 780Q861 777 866.0 763.0Q871 749 874 740H805L794 780Z" fill="#2f7889" stroke="none" transform="scale(1,-1) translate(0,-256)" /><path d="M835 637 824 677 895 675Q898 665 901.0 655.5Q904 646 907 635Z" fill="#2f7889" stroke="none" transform="scale(1,-1) translate(0,-256)" /><path d="M865 533 854 573H925Q928 563 931.0 553.5Q934 544 936 534Z" fill="#2f7889" stroke="none" transform="scale(1,-1) translate(0,-256)" /><path d="M894 430 883 470H954Q957 460 959.5 449.5Q962 439 965 430Z" fill="#2f7889" stroke="none" transform="scale(1,-1) translate(0,-256)" /><path d="M924 326 913 366H981Q984 356 986.5 345.5Q989 335 991 326Z" fill="#2f7889" stroke="none" transform="scale(1,-1) translate(0,-256)" /><path d="M608 823Q615 815 622.0 815.5Q629 816 631 817Q647 825 640 845Q634 860 619.0 877.0Q604 894 580 902Q561 908 534.5 903.5Q508 899 488.0 892.5Q468 886 468 886Q468 886 481.0 888.5Q494 891 513.5 890.0Q533 889 553 879Q580 866 587.5 851.0Q595 836 608 823Z" fill="#2f7889" stroke="none" transform="scale(1,-1) translate(0,-256)" /><path d="M673 864Q677 854 684.5 840.0Q692 826 704 828Q718 830 719.0 840.0Q720 850 717 858Q704 893 673 907Q663 912 646.5 912.5Q630 913 617.5 911.5Q605 910 605 910Q605 910 617.5 908.5Q630 907 646.0 897.5Q662 888 673 864Z" fill="#2f7889" stroke="none" transform="scale(1,-1) translate(0,-256)" /><path d="M747 867Q752 857 759.5 843.5Q767 830 780 832Q789 832 790.0 840.0Q791 848 788 856Q779 878 762.0 889.5Q745 901 727.5 905.5Q710 910 697.5 910.5Q685 911 685 911Q685 911 696.5 909.0Q708 907 722.5 897.5Q737 888 747 867Z" fill="#2f7889" stroke="none" transform="scale(1,-1) translate(0,-256)" /><path d="M663 40Q666 41 691.0 44.0Q716 47 742 69Q761 86 775.5 104.5Q790 123 799 147Q809 174 811.0 193.5Q813 213 810 238Q807 260 798.5 268.0Q790 276 781 275Q768 273 764.5 263.0Q761 253 763 235Q765 219 763.5 196.0Q762 173 757 157Q751 136 742.0 122.0Q733 108 720 91Q709 75 695.0 61.5Q681 48 663 40Z" fill="#2f7889" stroke="none" transform="scale(1,-1) translate(0,-256)" /><path d="M773 48Q773 48 794.5 52.0Q816 56 838 70Q849 77 865.5 95.0Q882 113 895.0 145.0Q908 177 906 226Q905 261 894.5 272.5Q884 284 876 283Q863 281 860.0 270.5Q857 260 859.0 246.0Q861 232 862 222Q867 179 854.5 146.5Q842 114 823.0 92.0Q804 70 788.5 59.0Q773 48 773 48Z" fill="#2f7889" stroke="none" transform="scale(1,-1) translate(0,-256)" /><path d="M867 61Q867 61 882.0 66.0Q897 71 916.5 84.5Q936 98 951 121Q968 147 977.5 174.0Q987 201 985 230Q984 244 977.5 263.5Q971 283 955 283Q942 283 940.5 272.5Q939 262 942.0 248.5Q945 235 945 225Q946 196 943.0 177.5Q940 159 933 140Q924 115 908.0 97.5Q892 80 879.5 70.5Q867 61 867 61Z" fill="#2f7889" stroke="none" transform="scale(1,-1) translate(0,-256)" /><path d="M663 40Q664 40 664 40Q664 40 665 40Q664 40 663 40Z" fill="#2f7889" stroke="none" transform="scale(1,-1) translate(0,-256)" /><path d="M867 61Q867 61 867.5 61.5Q868 62 869 62Q873 63 876.5 64.5Q880 66 884 67Q876 64 871.5 62.5Q867 61 867 61Z" fill="#2f7889" stroke="none" transform="scale(1,-1) translate(0,-256)" /></svg>