<?xml version="1.0" encoding="utf-8" ?>
<svg baseProfile="full" height="256" version="1.1" width="256" xmlns="http://www.w3.org/2000/svg" xmlns:ev="http://www.w3.org/2001/xml-events" xmlns:xlink="http://www.w3.org/1999/xlink"><defs /><path d="M873 157Q922 162 950.5 174.5Q979 187 991.5 197.5Q1004 208 1004 208Q1000 170 978.5 135.0Q957 100 908.0 76.0Q859 52 773 48Q758 47 728.5 44.5Q699 42 664 40Q671 18 677.5 -5.0Q684 -28 689 -49Q696 -78 687.0 -96.5Q678 -115 661.0 -124.5Q644 -134 625 -134Q597 -134 580.0 -118.0Q563 -102 548 -64Q537 -38 526.0 -8.5Q515 21 506 44Q478 49 464 59Q464 59 464.0 59.0Q464 59 464 59Q440 68 422.0 91.5Q404 115 393 158L275 609Q261 672 283.0 721.0Q305 770 355 799Q403 827 454.5 829.0Q506 831 547.0 799.0Q588 767 605 695L694 353Q704 318 706.5 295.0Q709 272 707.5 254.0Q706 236 704 214Q701 195 718 180Q738 163 772.5 156.5Q807 150 873 157Z" fill="#82aec0" stroke="none" transform="scale(1,-1) translate(0,-256)" /><path d="M685 -212H842L818 -116Q818 -116 827.5 -104.0Q837 -92 839 -77Q841 -67 838.5 -53.0Q836 -39 833.0 -27.5Q830 -16 830 -16L752 -26Q752 -26 757.0 -43.5Q762 -61 763 -77Q764 -93 754.0 -108.0Q744 -123 744 -123L669 -130Z" fill="#82aec0" stroke="none" transform="scale(1,-1) translate(0,-256)" /></svg>