<?xml version="1.0" encoding="utf-8" ?>
<svg baseProfile="full" height="256" version="1.1" width="256" xmlns="http://www.w3.org/2000/svg" xmlns:ev="http://www.w3.org/2001/xml-events" xmlns:xlink="http://www.w3.org/1999/xlink"><defs /><path d="M880.4972381591797 404.8281555175781Q880.4972381591797 420.4089050292969 874.6544570922852 434.0420608520508Q868.8116760253906 447.6752166748047 858.4504776000977 458.03641510009766Q848.0892791748047 468.3976135253906 834.4561233520508 474.24039459228516Q820.8229675292969 480.0831756591797 805.0864105224609 480.0831756591797Q789.5056610107422 480.0831756591797 775.8725051879883 474.24039459228516Q762.2393493652344 468.3976135253906 751.8781509399414 458.03641510009766Q741.5169525146484 447.6752166748047 735.6741714477539 434.0420608520508Q729.8313903808594 420.4089050292969 729.8313903808594 404.8281555175781Q729.8313903808594 389.0915985107422 735.6741714477539 375.4584426879883Q741.5169525146484 361.8252868652344 751.8781509399414 351.4640884399414Q762.2393493652344 341.10289001464844 775.8725051879883 335.2601089477539Q789.5056610107422 329.4173278808594 805.0864105224609 329.4173278808594Q820.8229675292969 329.4173278808594 834.4561233520508 335.2601089477539Q848.0892791748047 341.10289001464844 858.4504776000977 351.4640884399414Q868.8116760253906 361.8252868652344 874.6544570922852 375.4584426879883Q880.4972381591797 389.0915985107422 880.4972381591797 404.8281555175781Z" fill="#422b0d" stroke="none" transform="scale(1,-1) translate(0,-256)" /><path d="M694 84Q718 84 728 62Q734 48 728.5 33.5Q723 19 709 12Q676 -3 645.5 -5.5Q615 -8 590.5 -3.5Q566 1 551.5 6.5Q537 12 536 13Q522 20 517.5 34.5Q513 49 520 63Q527 77 541.5 81.5Q556 86 570 80Q571 79 586.5 74.0Q602 69 626.0 68.5Q650 68 678 80Q686 84 694 84Z" fill="#422b0d" stroke="none" transform="scale(1,-1) translate(0,-256)" /></svg>