<?xml version="1.0" encoding="utf-8" ?>
<svg baseProfile="full" height="256" version="1.1" width="256" xmlns="http://www.w3.org/2000/svg" xmlns:ev="http://www.w3.org/2001/xml-events" xmlns:xlink="http://www.w3.org/1999/xlink"><defs /><path d="M1200 622H1088V62H1200V-98H75V62H187V622H75V779H1200ZM1100 706V668Q1100 653 1116 653H1136Q1152 653 1152 668V706Q1152 722 1136 722H1116Q1100 722 1100 706ZM175 668V706Q175 722 159 722H139Q123 722 123 706V668Q123 653 139 653H159Q175 653 175 668ZM175 -21V16Q175 32 159 32H139Q123 32 123 16V-21Q123 -37 139 -37H159Q175 -37 175 -21ZM1100 16V-21Q1100 -37 1116 -37H1136Q1152 -37 1152 -21V16Q1152 32 1136 32H1116Q1100 32 1100 16ZM992 706V668Q992 653 1007 653H1028Q1043 653 1043 668V706Q1043 722 1028 722H1007Q992 722 992 706ZM883 706V668Q883 653 899 653H919Q935 653 935 668V706Q935 722 919 722H899Q883 722 883 706ZM775 706V668Q775 653 790 653H810Q826 653 826 668V706Q826 722 810 722H790Q775 722 775 706ZM666 706V668Q666 653 682 653H702Q717 653 717 668V706Q717 722 702 722H682Q666 722 666 706ZM558 706V668Q558 653 573 653H593Q609 653 609 668V706Q609 722 593 722H573Q558 722 558 706ZM449 706V668Q449 653 465 653H485Q500 653 500 668V706Q500 722 485 722H465Q449 722 449 706ZM341 706V668Q341 653 356 653H376Q392 653 392 668V706Q392 722 376 722H356Q341 722 341 706ZM232 706V668Q232 653 248 653H268Q283 653 283 668V706Q283 722 268 722H248Q232 722 232 706ZM283 -21V16Q283 32 268 32H248Q232 32 232 16V-21Q232 -37 248 -37H268Q283 -37 283 -21ZM392 -21V16Q392 32 376 32H356Q341 32 341 16V-21Q341 -37 356 -37H376Q392 -37 392 -21ZM500 -21V16Q500 32 485 32H465Q449 32 449 16V-21Q449 -37 465 -37H485Q500 -37 500 -21ZM609 -21V16Q609 32 593 32H573Q558 32 558 16V-21Q558 -37 573 -37H593Q609 -37 609 -21ZM717 -21V16Q717 32 702 32H682Q666 32 666 16V-21Q666 -37 682 -37H702Q717 -37 717 -21ZM826 -21V16Q826 32 810 32H790Q775 32 775 16V-21Q775 -37 790 -37H810Q826 -37 826 -21ZM935 -21V16Q935 32 919 32H899Q883 32 883 16V-21Q883 -37 899 -37H919Q935 -37 935 -21ZM1043 -21V16Q1043 32 1028 32H1007Q992 32 992 16V-21Q992 -37 1007 -37H1028Q1043 -37 1043 -21ZM1050 62V622H225V62Z" fill="#000000" stroke="none" transform="scale(1,-1) translate(0,-256)" /><path d="M226.37550354003906 620.0870361328125V60.95831298828125H1051.8553314208984V620.0870361328125Z" fill="#000000" stroke="none" transform="scale(1,-1) translate(0,-256)" /></svg>