<?xml version="1.0" encoding="utf-8" ?>
<svg baseProfile="full" height="256" version="1.1" width="256" xmlns="http://www.w3.org/2000/svg" xmlns:ev="http://www.w3.org/2001/xml-events" xmlns:xlink="http://www.w3.org/1999/xlink"><defs /><path d="M643 349Q643 349 661.0 354.0Q679 359 706.0 366.0Q733 373 761.5 378.5Q790 384 810 384Q838 385 868.0 370.5Q898 356 920.0 327.5Q942 299 946 259Q950 219 933.0 190.5Q916 162 892.0 146.5Q868 131 852 129Q835 127 815.5 125.5Q796 124 782.0 123.0Q768 122 768 122L747 56Q747 56 736.5 52.0Q726 48 714.5 45.5Q703 43 701 47Q698 50 699.5 68.5Q701 87 703.5 104.5Q706 122 706 122L632 189L541 138Q541 138 543.5 127.0Q546 116 548.5 103.0Q551 90 552 83Q553 74 546.5 58.5Q540 43 540 43Q540 43 527.0 53.5Q514 64 494.0 79.5Q474 95 451.5 109.5Q429 124 410 131Q392 138 372.0 159.5Q352 181 340.0 211.5Q328 242 331.0 278.0Q334 314 360 351Q382 381 416.5 389.5Q451 398 490.0 393.5Q529 389 564.0 378.0Q599 367 621.0 358.0Q643 349 643 349Z" fill="#ffffff" stroke="none" transform="scale(1,-1) translate(0,-256)" /></svg>