<?xml version="1.0" encoding="utf-8" ?>
<svg baseProfile="full" height="256" version="1.1" width="256" xmlns="http://www.w3.org/2000/svg" xmlns:ev="http://www.w3.org/2001/xml-events" xmlns:xlink="http://www.w3.org/1999/xlink"><defs /><path d="M648 852Q648 852 648.0 852.0Q648 852 648 852Q628 873 599.0 873.0Q570 873 550 852L94 399Q94 398 94.0 398.0Q94 398 94 398Q74 378 75.0 350.0Q76 322 96 302L549 -153Q549 -153 549.0 -153.0Q549 -153 549 -153Q569 -173 598.0 -173.0Q627 -173 647 -153L1101 302Q1101 302 1101.0 302.0Q1101 302 1101 302Q1122 322 1122.0 350.0Q1122 378 1103 399Z" fill="#ff9800" stroke="none" transform="scale(1,-1) translate(0,-256)" /></svg>