<?xml version="1.0" encoding="utf-8" ?>
<svg baseProfile="full" height="256" version="1.1" width="256" xmlns="http://www.w3.org/2000/svg" xmlns:ev="http://www.w3.org/2001/xml-events" xmlns:xlink="http://www.w3.org/1999/xlink"><defs /><path d="M800 355Q804 366 817.5 374.0Q831 382 846 372Q857 363 850.5 350.0Q844 337 839 330Q835 325 834.0 318.0Q833 311 830.0 305.5Q827 300 815 299Q801 299 796.5 318.0Q792 337 800 355Z" fill="#e0e0e0" stroke="none" transform="scale(1,-1) translate(0,-256)" /><path d="M386 360Q394 373 409.5 380.5Q425 388 435 381Q448 371 441.5 358.0Q435 345 426 329Q418 313 406.0 303.5Q394 294 383 303Q376 309 375.0 325.0Q374 341 386 360Z" fill="#e0e0e0" stroke="none" transform="scale(1,-1) translate(0,-256)" /></svg>