<?xml version="1.0" encoding="utf-8" ?>
<svg baseProfile="full" height="256" version="1.1" width="256" xmlns="http://www.w3.org/2000/svg" xmlns:ev="http://www.w3.org/2001/xml-events" xmlns:xlink="http://www.w3.org/1999/xlink"><defs /><path d="M915 322Q912 362 889.0 379.5Q866 397 836 395Q803 394 787.5 369.0Q772 344 777 309Q782 274 806.0 251.0Q830 228 860 231Q891 234 904.0 260.0Q917 286 915 322Z" fill="#040301" stroke="none" transform="scale(1,-1) translate(0,-256)" /><path d="M479 264Q502 299 498.0 332.5Q494 366 473 381Q446 400 415.0 395.5Q384 391 366 360Q349 331 352.0 297.5Q355 264 374 250Q400 231 431.0 235.5Q462 240 479 264Z" fill="#040301" stroke="none" transform="scale(1,-1) translate(0,-256)" /></svg>