<?xml version="1.0" encoding="utf-8" ?>
<svg baseProfile="full" height="256" version="1.1" width="256" xmlns="http://www.w3.org/2000/svg" xmlns:ev="http://www.w3.org/2001/xml-events" xmlns:xlink="http://www.w3.org/1999/xlink"><defs /><path d="M788 328Q788 328 799.0 337.0Q810 346 824.0 357.0Q838 368 849.5 377.0Q861 386 863 388Q868 392 867.5 399.0Q867 406 861 409Q834 420 806.0 448.0Q778 476 768 500Q764 508 757.0 509.0Q750 510 744 503Q740 498 723.0 481.5Q706 465 680 439V438Q680 438 676.5 428.5Q673 419 675.5 403.0Q678 387 696 366Q704 356 714.5 348.5Q725 341 736.5 329.0Q748 317 759 294Q801 205 790.0 125.0Q779 45 716 -12Q659 -64 609.5 -75.0Q560 -86 522 -81Q506 -79 483.5 -67.5Q461 -56 437.5 -38.5Q414 -21 396 -2Q383 10 368.0 6.5Q353 3 345.5 -9.5Q338 -22 347 -36Q355 -50 372.5 -65.0Q390 -80 401 -89Q360 -89 325.5 -97.0Q291 -105 251 -127Q197 -158 163.0 -163.5Q129 -169 113 -167Q103 -165 96.5 -154.5Q90 -144 93 -132Q76 -136 71.0 -152.0Q66 -168 72.5 -184.0Q79 -200 97 -204Q130 -212 181.0 -198.5Q232 -185 278 -158Q325 -131 365.5 -130.5Q406 -130 455 -148Q475 -155 507.0 -164.5Q539 -174 579.0 -178.5Q619 -183 663.5 -176.5Q708 -170 752.5 -147.5Q797 -125 839 -78Q875 -39 886.5 14.0Q898 67 889.5 125.0Q881 183 855.0 236.0Q829 289 788 328ZM283 176Q293 158 310.5 134.5Q328 111 349.0 88.0Q370 65 392 50Q406 40 420.5 46.0Q435 52 439.0 66.0Q443 80 427 94Q398 118 371.0 150.0Q344 182 329 202Q318 216 304.0 214.0Q290 212 283.0 200.5Q276 189 283 176ZM645 8Q658 -1 670.0 6.0Q682 13 686.0 26.0Q690 39 679 49Q657 67 632.5 90.5Q608 114 591 131Q581 140 568.0 136.0Q555 132 548.0 120.0Q541 108 551 95Q560 83 578.5 65.0Q597 47 616.0 31.0Q635 15 645 8Z" fill="#891e0e" stroke="none" transform="scale(1,-1) translate(0,-256)" /></svg>