<?xml version="1.0" encoding="utf-8" ?>
<svg baseProfile="full" height="256" version="1.1" width="256" xmlns="http://www.w3.org/2000/svg" xmlns:ev="http://www.w3.org/2001/xml-events" xmlns:xlink="http://www.w3.org/1999/xlink"><defs /><path d="M263 117Q274 127 285.0 134.5Q296 142 303 134Q310 125 300.0 116.0Q290 107 278 97Q267 88 254.0 80.0Q241 72 234 83Q226 94 238.5 100.5Q251 107 263 117Z" fill="#028b2b" stroke="none" transform="scale(1,-1) translate(0,-256)" /><path d="M445 59Q435 66 442.0 78.5Q449 91 456 108Q463 125 469.5 136.5Q476 148 488 141Q496 135 490.0 122.0Q484 109 480 98Q477 91 472.0 79.0Q467 67 460.0 59.5Q453 52 445 59Z" fill="#028b2b" stroke="none" transform="scale(1,-1) translate(0,-256)" /><path d="M498 318Q504 313 501.0 304.0Q498 295 493 287Q488 280 477.0 267.0Q466 254 458 259Q450 264 454.5 274.5Q459 285 468 299Q478 314 484.5 318.5Q491 323 498 318Z" fill="#028b2b" stroke="none" transform="scale(1,-1) translate(0,-256)" /><path d="M630 301Q643 304 646.5 293.0Q650 282 651 275Q653 268 657.5 250.0Q662 232 664 217Q665 211 666.0 200.5Q667 190 657 188Q648 185 644.0 193.0Q640 201 638 209Q636 215 632.0 232.5Q628 250 625 264Q623 276 620.0 287.0Q617 298 630 301Z" fill="#028b2b" stroke="none" transform="scale(1,-1) translate(0,-256)" /><path d="M767 118Q776 127 787.5 113.0Q799 99 808 89Q818 78 825.0 67.0Q832 56 822 50Q813 44 804.5 54.5Q796 65 785 78Q773 90 766.0 100.5Q759 111 767 118Z" fill="#028b2b" stroke="none" transform="scale(1,-1) translate(0,-256)" /><path d="M748 319Q756 325 762.0 320.5Q768 316 773.0 307.5Q778 299 782 295Q789 288 798.0 275.5Q807 263 811 259Q814 255 818.5 246.5Q823 238 815 233Q808 229 802.0 234.0Q796 239 792 243Q788 247 777.5 259.5Q767 272 760 282Q754 292 747.0 301.5Q740 311 748 319Z" fill="#028b2b" stroke="none" transform="scale(1,-1) translate(0,-256)" /><path d="M751 522Q758 533 771.5 524.0Q785 515 797 508Q809 501 819.5 493.0Q830 485 824 475Q819 466 806.0 471.5Q793 477 779 485Q765 493 754.5 503.0Q744 513 751 522Z" fill="#028b2b" stroke="none" transform="scale(1,-1) translate(0,-256)" /><path d="M597 503Q606 502 607.5 489.0Q609 476 609 468Q609 461 607.5 450.0Q606 439 597 439Q587 439 584.0 446.5Q581 454 580 468Q580 482 581.0 493.0Q582 504 597 503Z" fill="#028b2b" stroke="none" transform="scale(1,-1) translate(0,-256)" /><path d="M493 501Q487 511 494.5 517.5Q502 524 508 530Q515 536 526.0 543.0Q537 550 543 542Q550 534 543.5 526.5Q537 519 531 514Q524 508 512.0 499.0Q500 490 493 501Z" fill="#028b2b" stroke="none" transform="scale(1,-1) translate(0,-256)" /><path d="M619 698Q617 715 616.0 724.5Q615 734 628 736Q640 737 642.5 725.5Q645 714 647 698Q649 682 652.5 667.5Q656 653 646 650Q627 643 619 698Z" fill="#028b2b" stroke="none" transform="scale(1,-1) translate(0,-256)" /><path d="M694 711Q685 725 680.5 733.5Q676 742 683 749Q691 755 698.0 750.0Q705 745 710.5 736.5Q716 728 719 724Q725 717 731.5 706.0Q738 695 731 691Q721 685 712.0 691.0Q703 697 694 711Z" fill="#028b2b" stroke="none" transform="scale(1,-1) translate(0,-256)" /><path d="M568 753Q560 761 551.5 752.5Q543 744 538 738Q533 732 524.5 721.5Q516 711 524 704Q532 696 541.5 706.0Q551 716 558 724Q566 731 569.5 739.5Q573 748 568 753Z" fill="#028b2b" stroke="none" transform="scale(1,-1) translate(0,-256)" /></svg>