<?xml version="1.0" encoding="utf-8" ?>
<svg baseProfile="full" height="256" version="1.1" width="256" xmlns="http://www.w3.org/2000/svg" xmlns:ev="http://www.w3.org/2001/xml-events" xmlns:xlink="http://www.w3.org/1999/xlink"><defs /><path d="M452.906005859375 397.75Q466.906005859375 384.75 457.906005859375 366.75Q452.906005859375 356.75 442.906005859375 353.25Q432.906005859375 349.75 422.906005859375 354.75Q408.906005859375 367.75 416.906005859375 385.75Q421.906005859375 395.75 432.406005859375 399.25Q442.906005859375 402.75 452.906005859375 397.75Z" fill="#896024" stroke="none" transform="scale(1,-1) translate(0,-256)" /><path d="M812.4380035400391 397.75Q826.4380035400391 384.75 817.4380035400391 366.75Q812.4380035400391 356.75 802.4380035400391 353.25Q792.4380035400391 349.75 782.4380035400391 354.75Q768.4380035400391 367.75 776.4380035400391 385.75Q781.4380035400391 395.75 791.9380035400391 399.25Q802.4380035400391 402.75 812.4380035400391 397.75Z" fill="#896024" stroke="none" transform="scale(1,-1) translate(0,-256)" /></svg>