<?xml version="1.0" encoding="utf-8" ?>
<svg baseProfile="full" height="256" version="1.1" width="256" xmlns="http://www.w3.org/2000/svg" xmlns:ev="http://www.w3.org/2001/xml-events" xmlns:xlink="http://www.w3.org/1999/xlink"><defs /><path d="M638 133Q587 133 548.5 113.0Q510 93 486.0 67.5Q462 42 453 25Q443 4 452 -5Q462 -11 472 -5Q476 -3 480 0Q527 34 582.5 45.0Q638 56 693.0 45.0Q748 34 795 0Q799 -2 804 -5Q813 -11 823 -5Q832 4 822 25Q813 42 789.0 67.5Q765 93 726.5 113.0Q688 133 638 133Z" fill="#422b0d" stroke="none" transform="scale(1,-1) translate(0,-256)" /><path d="M294 577Q378 591 435 655L436 656Q440 661 447.0 662.5Q454 664 460 660Q474 650 464 636Q451 612 429 594Q372 541 295 542Q284 543 280.5 551.0Q277 559 280.5 567.0Q284 575 294 577Z" fill="#422b0d" stroke="none" transform="scale(1,-1) translate(0,-256)" /><path d="M845 655Q902 591 986 577Q996 576 999.5 567.5Q1003 559 999.5 551.0Q996 543 985 543Q908 541 851 594Q830 612 816 636Q812 641 813.0 648.5Q814 656 820 660Q826 664 833.0 662.5Q840 661 844 655Z" fill="#422b0d" stroke="none" transform="scale(1,-1) translate(0,-256)" /><path d="M456 435Q486 435 508.5 411.5Q531 388 531 347Q531 305 508.5 281.5Q486 258 456 258Q427 258 404.0 281.5Q381 305 381 347Q381 388 404.0 411.5Q427 435 456 435Z" fill="#422b0d" stroke="none" transform="scale(1,-1) translate(0,-256)" /><path d="M816 435Q845 435 868.0 411.5Q891 388 891 347Q891 305 868.0 281.5Q845 258 816 258Q786 258 763.5 281.5Q741 305 741 347Q741 388 763.5 411.5Q786 435 816 435Z" fill="#422b0d" stroke="none" transform="scale(1,-1) translate(0,-256)" /></svg>