<?xml version="1.0" encoding="utf-8" ?>
<svg baseProfile="full" height="256" version="1.1" width="256" xmlns="http://www.w3.org/2000/svg" xmlns:ev="http://www.w3.org/2001/xml-events" xmlns:xlink="http://www.w3.org/1999/xlink"><defs /><path d="M1035 640H240Q236 599 208.0 570.0Q180 541 141 535V267Q177 261 204.0 235.5Q231 210 238 175H1035Q1042 212 1069.0 239.5Q1096 267 1134 273V541Q1096 547 1069.0 574.5Q1042 602 1035 640ZM1053 658Q1053 617 1082.5 587.5Q1112 558 1153 558V256Q1112 256 1082.5 226.5Q1053 197 1053 156H222Q220 195 191.0 222.5Q162 250 122 250V552Q164 552 193.0 581.5Q222 611 222 652Q222 654 222 658Z" fill="#5e35b1" stroke="none" transform="scale(1,-1) translate(0,-256)" /></svg>