<?xml version="1.0" encoding="utf-8" ?>
<svg baseProfile="full" height="256" version="1.1" width="256" xmlns="http://www.w3.org/2000/svg" xmlns:ev="http://www.w3.org/2001/xml-events" xmlns:xlink="http://www.w3.org/1999/xlink"><defs /><path d="M766 574Q778 574 778 586Q778 598 766 598L717 599Q717 599 717.0 599.0Q717 599 717 599Q705 599 705 587Q705 575 717 575L766 574Q766 574 766.0 574.0Q766 574 766 574Z" fill="#fa8960" stroke="none" transform="scale(1,-1) translate(0,-256)" /><path d="M566 578Q579 578 579 590Q579 603 566 603H515Q503 603 503 590Q503 578 515 578Z" fill="#fa8960" stroke="none" transform="scale(1,-1) translate(0,-256)" /><path d="M502 513Q514 513 515 524L516 534L577 533Q589 533 589 545Q590 557 577 558L505 559Q494 559 492 548L491 537L453 538Q440 538 440 526Q440 513 452 513H502Q502 513 502.0 513.0Q502 513 502 513Z" fill="#fa8960" stroke="none" transform="scale(1,-1) translate(0,-256)" /><path d="M830 511Q842 511 842 523Q842 536 830 536H785L784 545Q783 556 772 556L699 558Q687 558 687 546Q686 533 699 533L761 532L762 523Q763 512 774 512L830 511Q830 511 830.0 511.0Q830 511 830 511Z" fill="#fa8960" stroke="none" transform="scale(1,-1) translate(0,-256)" /><path d="M690 550Q703 550 703 562Q703 574 691 574L588 575Q576 575 576 563Q576 551 588 551L690 550Q690 550 690.0 550.0Q690 550 690 550Z" fill="#fa8960" stroke="none" transform="scale(1,-1) translate(0,-256)" /><path d="M468 443Q480 443 480 455L481 464L544 463Q556 463 556 475Q557 487 544 487L469 489Q457 490 456 478V468L417 469Q405 469 404 457Q404 445 416 444L468 443Q468 443 468.0 443.0Q468 443 468 443Z" fill="#fa8960" stroke="none" transform="scale(1,-1) translate(0,-256)" /><path d="M443 364Q455 364 456 376V383L518 381Q530 381 530 393Q531 405 518 405L444 408Q432 408 432 396V389L391 390Q379 390 378 378Q378 366 390 365L443 364Q443 364 443.0 364.0Q443 364 443 364Z" fill="#fa8960" stroke="none" transform="scale(1,-1) translate(0,-256)" /><path d="M430 280Q442 280 442 293V303H507Q520 303 520 315Q520 327 507 327H430Q418 327 418 315V305H382Q370 305 370 293Q370 280 382 280Z" fill="#fa8960" stroke="none" transform="scale(1,-1) translate(0,-256)" /><path d="M431 196Q435 196 439 200Q443 203 443 209V218L542 217Q542 217 542.0 217.0Q542 217 542 217Q554 217 554 229Q554 241 542 241L431 243Q425 242 422 239Q418 236 418 230V221L378 222Q365 222 365 209Q365 197 377 197L430 196Q430 196 430.5 196.0Q431 196 431 196Z" fill="#fa8960" stroke="none" transform="scale(1,-1) translate(0,-256)" /><path d="M815 438Q815 438 815 438H867Q879 439 879 451Q879 463 867 463Q867 463 867.0 463.0Q867 463 867 463H827V472Q827 484 815 484L735 486Q735 486 735.0 486.0Q735 486 735 486Q723 486 722 473Q722 461 735 461L803 460V450Q803 438 815 438Z" fill="#fa8960" stroke="none" transform="scale(1,-1) translate(0,-256)" /><path d="M883 360Q895 360 896 372Q896 384 884 384L843 385V392Q843 404 831 404L757 405Q757 405 757.0 405.0Q757 405 757 405Q744 405 744 393Q744 380 756 380H818V373Q818 361 830 360H883Q883 360 883.0 360.0Q883 360 883 360Z" fill="#fa8960" stroke="none" transform="scale(1,-1) translate(0,-256)" /><path d="M885 276Q897 276 898 288Q898 300 886 301L850 302L851 312Q851 324 839 324L761 327Q761 327 761.0 327.0Q761 327 761 327Q749 327 748 315Q748 302 760 302L826 300L825 290Q825 278 837 277L885 276Q885 276 885.0 276.0Q885 276 885 276Z" fill="#fa8960" stroke="none" transform="scale(1,-1) translate(0,-256)" /><path d="M890 191Q902 191 902 203Q902 215 890 215L850 216V226Q850 231 847 235Q843 239 838 239H727Q727 239 727.0 239.0Q727 239 727 239Q714 239 714 226Q714 214 727 214H826L825 205Q825 192 837 192L890 191Q890 191 890.0 191.0Q890 191 890 191Z" fill="#fa8960" stroke="none" transform="scale(1,-1) translate(0,-256)" /><path d="M727 480Q739 480 739 492Q740 505 727 505L553 508Q540 509 540 496Q540 484 552 484L727 480Q727 480 727.0 480.0Q727 480 727 480Z" fill="#fa8960" stroke="none" transform="scale(1,-1) translate(0,-256)" /><path d="M758 316Q770 316 770 328Q770 341 758 341L510 345Q510 345 510.0 345.0Q510 345 510 345Q498 345 498 333Q498 321 510 320L758 316Q758 316 758.0 316.0Q758 316 758 316Z" fill="#fa8960" stroke="none" transform="scale(1,-1) translate(0,-256)" /><path d="M885 -26Q898 -26 898 -14Q898 -2 886 -2L380 5Q367 6 367 -7Q367 -19 379 -20L885 -26Q885 -26 885.0 -26.0Q885 -26 885 -26Z" fill="#fa8960" stroke="none" transform="scale(1,-1) translate(0,-256)" /><path d="M882 -132Q894 -132 894 -119Q894 -107 882 -107L372 -104Q372 -104 372.0 -104.0Q372 -104 372 -104Q359 -104 359 -116Q359 -128 371 -128L882 -132Q882 -132 882.0 -132.0Q882 -132 882 -132Z" fill="#fa8960" stroke="none" transform="scale(1,-1) translate(0,-256)" /><path d="M523 -136Q523 -136 554.5 -136.0Q586 -136 625 -137Q664 -138 696.0 -138.0Q728 -138 734 -138Q735 -138 735.0 -147.0Q735 -156 735.0 -165.5Q735 -175 735 -175Q735 -175 739.0 -175.0Q743 -175 744 -176Q745 -177 745.0 -187.0Q745 -197 745.0 -206.5Q745 -216 745 -216L512 -205Q512 -205 511.5 -190.5Q511 -176 512 -174Q512 -172 517.5 -172.5Q523 -173 523 -173Q523 -173 523.0 -157.0Q523 -141 523 -136Z" fill="#fa8960" stroke="none" transform="scale(1,-1) translate(0,-256)" /><path d="M754 399Q766 399 766 411Q767 423 754 423L517 428Q505 428 505 416Q504 403 517 403L754 399Q754 399 754.0 399.0Q754 399 754 399Z" fill="#fa8960" stroke="none" transform="scale(1,-1) translate(0,-256)" /></svg>