<?xml version="1.0" encoding="utf-8" ?>
<svg baseProfile="full" height="256" version="1.1" width="256" xmlns="http://www.w3.org/2000/svg" xmlns:ev="http://www.w3.org/2001/xml-events" xmlns:xlink="http://www.w3.org/1999/xlink"><defs /><path d="M920 302Q927 289 943.0 285.5Q959 282 959 282Q959 282 953.5 271.5Q948 261 936 254Q925 247 912.0 245.0Q899 243 890 242Q890 242 880.0 232.0Q870 222 849.0 208.0Q828 194 793.5 184.0Q759 174 711 174H639H566Q518 174 483.5 184.0Q449 194 428.0 208.0Q407 222 397.0 232.0Q387 242 387 242Q378 243 365.0 245.0Q352 247 341 254Q329 261 323.5 271.5Q318 282 318 282Q318 282 334.0 285.5Q350 289 357 302Q365 316 357.0 330.5Q349 345 332 362Q315 381 300.0 413.5Q285 446 281.0 486.5Q277 527 295 570Q295 570 305.5 578.0Q316 586 316 586Q318 587 346.0 587.0Q374 587 419.5 587.0Q465 587 522.0 587.0Q579 587 639 587Q698 587 755.0 587.0Q812 587 858.0 587.0Q904 587 931.5 587.0Q959 587 961 586H975Q975 585 978.5 577.5Q982 570 982 570Q1000 527 996.5 486.5Q993 446 977.5 413.5Q962 381 945 362Q928 345 920.5 330.5Q913 316 920 302Z" fill="#543930" stroke="none" transform="scale(1,-1) translate(0,-256)" /><path d="M962 744Q969 733 977.0 708.5Q985 684 987.5 651.0Q990 618 980 582Q973 555 961.5 539.0Q950 523 941.0 514.0Q932 505 931 499Q928 472 919.0 448.0Q910 424 904 411Q903 409 901.0 409.5Q899 410 898 412Q895 445 890.5 487.0Q886 529 879 559Q871 599 854.5 618.5Q838 638 821.0 644.5Q804 651 792.0 650.5Q780 650 780 650Q780 650 774.5 660.5Q769 671 755.0 682.0Q741 693 715.0 695.0Q689 697 648 681Q618 669 590 648Q547 616 505.5 598.0Q464 580 437.5 573.0Q411 566 411 566Q412 559 408.5 537.5Q405 516 399.0 489.5Q393 463 387.5 439.0Q382 415 379 403Q378 401 376.0 401.0Q374 401 373 403Q368 415 362.0 445.0Q356 475 358 523Q358 523 344.5 528.5Q331 534 315.0 546.0Q299 558 293 576Q279 611 292.5 637.5Q306 664 321 677Q317 689 315.0 712.5Q313 736 328 766Q340 790 360.5 799.5Q381 809 399 810Q390 837 395.5 856.0Q401 875 412.5 886.5Q424 898 434.0 903.5Q444 909 444 909Q444 909 445.0 900.0Q446 891 450.5 880.0Q455 869 466 862Q483 853 503.0 855.5Q523 858 539.0 865.0Q555 872 558 875Q577 885 606.5 897.0Q636 909 677.5 912.5Q719 916 772 899Q802 890 828.0 867.5Q854 845 858 816Q878 815 898.0 803.0Q918 791 935.0 775.0Q952 759 962 744Z" fill="#543930" stroke="none" transform="scale(1,-1) translate(0,-256)" /></svg>