<?xml version="1.0" encoding="utf-8" ?>
<svg baseProfile="full" height="256" version="1.1" width="256" xmlns="http://www.w3.org/2000/svg" xmlns:ev="http://www.w3.org/2001/xml-events" xmlns:xlink="http://www.w3.org/1999/xlink"><defs /><path d="M487 -212H629Q629 -212 648.0 -202.5Q667 -193 697.5 -176.0Q728 -159 762 -136Q779 -126 802.5 -114.0Q826 -102 850.0 -91.5Q874 -81 891.0 -73.5Q908 -66 910 -65Q916 -60 918.0 -56.5Q920 -53 915 -47Q913 -44 894.0 -49.5Q875 -55 851.0 -64.0Q827 -73 809.0 -80.0Q791 -87 791 -87Q791 -87 792.5 -94.5Q794 -102 790 -106Q788 -107 766.5 -117.0Q745 -127 711.0 -141.5Q677 -156 637.0 -170.5Q597 -185 558.0 -196.5Q519 -208 487 -212Z" fill="#a53e11" stroke="none" transform="scale(1,-1) translate(0,-256)" /></svg>