<?xml version="1.0" encoding="utf-8" ?>
<svg baseProfile="full" height="256" version="1.1" width="256" xmlns="http://www.w3.org/2000/svg" xmlns:ev="http://www.w3.org/2001/xml-events" xmlns:xlink="http://www.w3.org/1999/xlink"><defs /><path d="M565 552Q570 545 565 539Q560 533 549 536Q544 538 533.5 542.0Q523 546 506 546Q489 546 478.5 542.0Q468 538 463 536Q453 533 448 539Q443 545 448 552Q454 559 467.5 567.5Q481 576 506 576Q532 576 545.5 567.5Q559 559 565 552Z" fill="#6d4c41" stroke="none" transform="scale(1,-1) translate(0,-256)" /><path d="M827.125 552.0Q832.125 545.0 827.125 539.0Q822.125 533.0 811.125 536.0Q806.125 538.0 795.625 542.0Q785.125 546.0 768.125 546.0Q751.125 546.0 740.625 542.0Q730.125 538.0 725.125 536.0Q715.125 533.0 710.125 539.0Q705.125 545.0 710.125 552.0Q716.125 559.0 729.625 567.5Q743.125 576.0 768.125 576.0Q794.125 576.0 807.625 567.5Q821.125 559.0 827.125 552.0Z" fill="#6d4c41" stroke="none" transform="scale(1,-1) translate(0,-256)" /></svg>