<?xml version="1.0" encoding="utf-8" ?>
<svg baseProfile="full" height="256" version="1.1" width="256" xmlns="http://www.w3.org/2000/svg" xmlns:ev="http://www.w3.org/2001/xml-events" xmlns:xlink="http://www.w3.org/1999/xlink"><defs /><path d="M977 47 976 -158Q972 -173 925.5 -185.5Q879 -198 803.5 -205.0Q728 -212 638 -212Q547 -212 471.5 -205.0Q396 -198 349.5 -185.5Q303 -173 299 -158L298 47Q298 47 336.5 36.0Q375 25 451.0 14.5Q527 4 640 4Q753 4 828.0 15.0Q903 26 940.0 36.5Q977 47 977 47Z" fill="#424242" stroke="none" transform="scale(1,-1) translate(0,-256)" /></svg>