<?xml version="1.0" encoding="utf-8" ?>
<svg baseProfile="full" height="256" version="1.1" width="256" xmlns="http://www.w3.org/2000/svg" xmlns:ev="http://www.w3.org/2001/xml-events" xmlns:xlink="http://www.w3.org/1999/xlink"><defs /><path d="M678 605Q647 626 605.5 662.0Q564 698 534 765Q524 785 516.5 814.5Q509 844 514 879Q515 887 513.0 889.0Q511 891 507 886Q499 873 494.0 855.5Q489 838 488 826Q485 789 498.0 753.0Q511 717 535 689Q575 641 611.0 623.5Q647 606 671 598Q677 595 680.0 598.0Q683 601 678 605Z" fill="#ff8383" stroke="none" transform="scale(1,-1) translate(0,-256)" /></svg>