<?xml version="1.0" encoding="utf-8" ?>
<svg baseProfile="full" height="256" version="1.1" width="256" xmlns="http://www.w3.org/2000/svg" xmlns:ev="http://www.w3.org/2001/xml-events" xmlns:xlink="http://www.w3.org/1999/xlink"><defs /><path d="M172 305Q172 305 164.5 317.5Q157 330 152 335Q150 338 155.0 353.0Q160 368 168.5 389.0Q177 410 186.0 429.5Q195 449 200 461Q206 472 212.5 492.5Q219 513 226.0 535.5Q233 558 239.0 574.5Q245 591 249 595Q254 600 269.0 600.0Q284 600 297.5 598.5Q311 597 311 597Q311 597 314.0 607.5Q317 618 321 624Q323 629 339.0 644.5Q355 660 374.5 677.5Q394 695 407 706Q420 717 444.0 728.5Q468 740 493.0 751.0Q518 762 535 770Q554 780 577.0 792.0Q600 804 620.0 812.5Q640 821 649 822Q659 822 663.0 820.0Q667 818 672.0 816.0Q677 814 691 814Q715 815 736.0 819.5Q757 824 797 824Q824 824 851.5 817.5Q879 811 898.0 804.0Q917 797 917 797Q917 797 918.5 798.0Q920 799 932 803Q937 806 950.5 798.0Q964 790 980.5 776.5Q997 763 1012.0 748.5Q1027 734 1036 724Q1046 714 1059.5 695.5Q1073 677 1086.5 657.0Q1100 637 1109.5 621.5Q1119 606 1120 602Q1121 594 1117.0 582.0Q1113 570 1113 549Q1113 535 1117.0 512.5Q1121 490 1125.0 470.5Q1129 451 1129 447Q1128 440 1122.0 417.5Q1116 395 1104 377Q1099 368 1087.5 345.5Q1076 323 1059.5 294.0Q1043 265 1023.5 236.0Q1004 207 982 185Q945 149 907.5 119.0Q870 89 839.0 67.5Q808 46 788.5 34.5Q769 23 769 23Q769 23 745.0 19.0Q721 15 684.5 9.5Q648 4 611 -2Q573 -7 551.5 -11.5Q530 -16 510.5 -18.0Q491 -20 460 -18Q437 -17 425.5 -15.0Q414 -13 407.5 -10.0Q401 -7 393.0 -4.5Q385 -2 369 1Q337 6 315.5 5.5Q294 5 294 5Q294 5 279.0 16.5Q264 28 247 43Q236 53 224.0 67.5Q212 82 204.0 93.5Q196 105 196 105Q196 105 191.5 123.5Q187 142 180 152Q176 159 167.0 175.0Q158 191 150.0 206.5Q142 222 142 228Q141 234 148.5 249.0Q156 264 164.0 280.0Q172 296 172 305Z" fill="#532d1d" stroke="none" transform="scale(1,-1) translate(0,-256)" /><path d="M908 4Q918 9 925.5 1.5Q933 -6 938.5 -18.5Q944 -31 948 -41Q953 -51 959.5 -66.5Q966 -82 968.0 -96.0Q970 -110 961 -115Q947 -124 938.5 -106.5Q930 -89 921 -66Q911 -43 903.0 -23.5Q895 -4 908 4Z" fill="#532d1d" stroke="none" transform="scale(1,-1) translate(0,-256)" /><path d="M1041 167Q1055 167 1053.0 147.5Q1051 128 1047 104Q1042 71 1039.0 49.0Q1036 27 1024 28Q1006 31 1007.0 47.0Q1008 63 1013 96Q1019 130 1021.5 148.5Q1024 167 1041 167Z" fill="#532d1d" stroke="none" transform="scale(1,-1) translate(0,-256)" /><path d="M1124 271Q1143 272 1144.0 254.5Q1145 237 1145 200Q1144 183 1144.0 161.5Q1144 140 1141.0 124.5Q1138 109 1129 108Q1119 107 1115.5 119.5Q1112 132 1112.5 150.5Q1113 169 1113 186Q1113 222 1113.0 246.0Q1113 270 1124 271Z" fill="#532d1d" stroke="none" transform="scale(1,-1) translate(0,-256)" /><path d="M698 -74Q709 -60 725.0 -71.0Q741 -82 763 -100Q785 -118 799.5 -131.5Q814 -145 802 -159Q793 -168 775.5 -156.5Q758 -145 735 -129Q685 -92 698 -74Z" fill="#532d1d" stroke="none" transform="scale(1,-1) translate(0,-256)" /><path d="M468 -78Q477 -64 488.5 -68.5Q500 -73 513.5 -85.5Q527 -98 541 -109Q567 -131 582.5 -149.0Q598 -167 590 -176Q579 -189 559.0 -174.0Q539 -159 518 -142Q494 -121 477.5 -106.0Q461 -91 468 -78Z" fill="#532d1d" stroke="none" transform="scale(1,-1) translate(0,-256)" /></svg>