<?xml version="1.0" encoding="utf-8" ?>
<svg baseProfile="full" height="256" version="1.1" width="256" xmlns="http://www.w3.org/2000/svg" xmlns:ev="http://www.w3.org/2001/xml-events" xmlns:xlink="http://www.w3.org/1999/xlink"><defs /><path d="M1045 594 363 203 294 4Q294 4 304.0 -6.5Q314 -17 327 -34Q339 -51 346.0 -69.5Q353 -88 357 -95Q360 -102 387.0 -108.5Q414 -115 451 -131Q475 -142 499.0 -156.5Q523 -171 540.0 -183.0Q557 -195 560 -197Q564 -201 580.0 -197.5Q596 -194 610 -196Q617 -197 633.0 -200.0Q649 -203 667.0 -206.5Q685 -210 697.0 -213.0Q709 -216 709 -216Q709 -216 725.0 -212.0Q741 -208 765.0 -202.5Q789 -197 813.0 -192.0Q837 -187 853 -183Q875 -179 902.5 -172.0Q930 -165 952.0 -159.0Q974 -153 978 -152Q983 -152 992.0 -140.5Q1001 -129 1013 -105Q1026 -80 1051.0 -52.5Q1076 -25 1091 -3Q1098 9 1114.0 29.5Q1130 50 1146.5 88.5Q1163 127 1172 191Q1181 255 1186.5 312.0Q1192 369 1194.5 405.5Q1197 442 1197 442Q1197 442 1181.5 462.5Q1166 483 1154 508Q1146 525 1138.0 547.0Q1130 569 1125.0 585.5Q1120 602 1120 602Z" fill="#8e4d2f" stroke="none" transform="scale(1,-1) translate(0,-256)" /><path d="M234 462 218 388Q218 388 209.5 403.0Q201 418 187.5 440.0Q174 462 158 482Q142 502 128.0 508.5Q114 515 106.0 517.5Q98 520 98 528Q98 540 122.5 542.5Q147 545 178 528Q211 511 222.0 496.0Q233 481 233.5 471.5Q234 462 234 462Z" fill="#8e4d2f" stroke="none" transform="scale(1,-1) translate(0,-256)" /><path d="M293 590 303 567 348 606Q348 606 347.5 616.0Q347 626 340 647Q337 658 327.5 669.0Q318 680 308.5 685.5Q299 691 296 686Q290 678 297.5 666.0Q305 654 305 637Q306 621 299.5 605.5Q293 590 293 590Z" fill="#8e4d2f" stroke="none" transform="scale(1,-1) translate(0,-256)" /><path d="M784 802 847 791Q847 791 838.5 800.5Q830 810 820.0 825.0Q810 840 804 856Q796 880 792.5 893.5Q789 907 782 908Q774 908 770.0 894.0Q766 880 766 859Q765 826 774.5 814.0Q784 802 784 802Z" fill="#8e4d2f" stroke="none" transform="scale(1,-1) translate(0,-256)" /><path d="M1027 707 1078 644Q1078 644 1076.0 659.5Q1074 675 1071.0 696.5Q1068 718 1065.5 738.5Q1063 759 1062 769Q1058 807 1060.5 818.0Q1063 829 1059 831Q1053 836 1043.5 827.0Q1034 818 1030 799Q1027 783 1026.5 761.5Q1026 740 1026.5 723.5Q1027 707 1027 707Z" fill="#8e4d2f" stroke="none" transform="scale(1,-1) translate(0,-256)" /><path d="M206 152Q206 152 211.0 139.5Q216 127 223.0 110.5Q230 94 235.5 81.0Q241 68 241 67Q241 66 228.0 78.0Q215 90 193.5 106.5Q172 123 146 137Q106 157 91.0 162.0Q76 167 76 176Q75 182 89.0 183.0Q103 184 120.5 181.5Q138 179 149 176Q181 166 193.5 159.0Q206 152 206 152Z" fill="#8e4d2f" stroke="none" transform="scale(1,-1) translate(0,-256)" /></svg>