<?xml version="1.0" encoding="utf-8" ?>
<svg baseProfile="full" height="256" version="1.1" width="256" xmlns="http://www.w3.org/2000/svg" xmlns:ev="http://www.w3.org/2001/xml-events" xmlns:xlink="http://www.w3.org/1999/xlink"><defs /><path d="M1060.6836242675781 525.2153167724609Q1052.8482971191406 527.0291748046875 1045.929313659668 521.6996231079102Q1039.0103302001953 516.3700714111328 1037.1964721679688 508.5347442626953Q1036.5420227050781 499.6522216796875 1041.319923400879 492.70518493652344Q1046.0978240966797 485.7581481933594 1053.9331512451172 483.9442901611328Q1061.7123718261719 483.2337341308594 1068.659408569336 488.01163482666016Q1075.6064453125 492.78953552246094 1076.2608947753906 501.67205810546875Q1078.0186462402344 510.6106872558594 1073.2407455444336 517.5577239990234Q1068.4628448486328 524.5047607421875 1060.6836242675781 525.2153167724609Z" fill="#fcd4b0" stroke="none" transform="scale(1,-1) translate(0,-256)" /><path d="M1082 655Q1075 657 1068.5 653.5Q1062 650 1059 642Q1056 634 1058.5 627.0Q1061 620 1068 617Q1075 614 1082.0 618.0Q1089 622 1092 630Q1095 638 1092.0 645.0Q1089 652 1082 655Z" fill="#fcd4b0" stroke="none" transform="scale(1,-1) translate(0,-256)" /><path d="M1081 358Q1081 368 1074.0 375.5Q1067 383 1057 383Q1047 383 1040.0 375.5Q1033 368 1033 358Q1033 348 1040.0 340.5Q1047 333 1057 333Q1067 333 1074.0 340.5Q1081 348 1081 358Z" fill="#fcd4b0" stroke="none" transform="scale(1,-1) translate(0,-256)" /><path d="M1045 234Q1035 238 1025.5 234.0Q1016 230 1012 220Q1007 210 1010.5 200.0Q1014 190 1024 186Q1033 182 1042.5 186.0Q1052 190 1057 200Q1061 210 1057.5 220.0Q1054 230 1045 234Z" fill="#fcd4b0" stroke="none" transform="scale(1,-1) translate(0,-256)" /><path d="M1086.9265747070312 -12.024887084960938Q1084.167739868164 -5.46148681640625 1076.9302139282227 -2.8005142211914062Q1069.6926879882812 -0.1395416259765625 1062.1458892822266 -3.668182373046875Q1054.5990905761719 -7.1968231201171875 1051.1149139404297 -13.889251708984375Q1047.6307373046875 -20.581680297851562 1050.2827758789062 -28.021682739257812Q1053.0416107177734 -34.5850830078125 1060.7708358764648 -36.86115264892578Q1068.5000610351562 -39.13722229003906 1075.9400634765625 -36.48518371582031Q1083.4868621826172 -32.95654296875 1086.5861358642578 -25.772415161132812Q1089.6854095458984 -18.588287353515625 1086.9265747070312 -12.024887084960938Z" fill="#fcd4b0" stroke="none" transform="scale(1,-1) translate(0,-256)" /><path d="M974.877685546875 -50.399017333984375Q974.5387268066406 -41.15155029296875 968.0897598266602 -35.081626892089844Q961.6407928466797 -29.011703491210938 952.3933258056641 -29.350662231445312Q942.7977600097656 -28.90411376953125 936.1610336303711 -35.134376525878906Q929.5243072509766 -41.36463928222656 929.8632659912109 -50.61210632324219Q929.8541259765625 -59.074066162109375 936.303092956543 -65.14398956298828Q942.7520599365234 -71.21391296386719 952.3476257324219 -71.66046142578125Q961.5950927734375 -71.32150268554688 968.231819152832 -65.09123992919922Q974.8685455322266 -58.86097717285156 974.877685546875 -50.399017333984375Z" fill="#fcd4b0" stroke="none" transform="scale(1,-1) translate(0,-256)" /><path d="M853.5948944091797 -27.58477783203125Q853.5869598388672 -18.05291748046875 847.1475982666016 -11.624267578125Q840.7082366943359 -5.19561767578125 832.1295623779297 -5.2027587890625Q823.0742950439453 -5.210296630859375 816.6456451416016 -11.649658203125Q810.2169952392578 -18.089019775390625 810.2249298095703 -27.620880126953125Q810.2324676513672 -36.6761474609375 816.6720275878906 -43.34309387207031Q823.1115875244141 -50.010040283203125 832.1668548583984 -50.00250244140625Q840.7455291748047 -49.995361328125 847.1739807128906 -43.31770324707031Q853.6024322509766 -36.640045166015625 853.5948944091797 -27.58477783203125Z" fill="#fcd4b0" stroke="none" transform="scale(1,-1) translate(0,-256)" /><path d="M631.7725524902344 -182.949951171875Q631.8150939941406 -159.60374450683594 608.4688873291016 -159.5612030029297Q585.1226806640625 -159.51866149902344 585.0801391601562 -182.8648681640625Q585.0401000976562 -204.8377685546875 608.3863067626953 -204.88031005859375Q631.7325134277344 -204.9228515625 631.7725524902344 -182.949951171875Z" fill="#fcd4b0" stroke="none" transform="scale(1,-1) translate(0,-256)" /><path d="M556 -50Q555 -41 550.0 -35.0Q545 -29 538 -29Q532 -30 527.5 -36.5Q523 -43 524 -52Q524 -61 529.5 -67.0Q535 -73 541 -73Q548 -72 552.5 -65.5Q557 -59 556 -50Z" fill="#fcd4b0" stroke="none" transform="scale(1,-1) translate(0,-256)" /><path d="M436 5Q430 11 420.5 11.0Q411 11 404 4Q396 -3 395.5 -12.0Q395 -21 401 -28Q407 -35 416.5 -34.5Q426 -34 433 -27Q440 -21 441.0 -11.5Q442 -2 436 5Z" fill="#fcd4b0" stroke="none" transform="scale(1,-1) translate(0,-256)" /><path d="M327.6024169921875 -64.59561157226562Q327.81085205078125 -42.769317626953125 302.7876739501953 -42.34217834472656Q278.31639099121094 -43.23753356933594 279.4304504394531 -64.51193237304688Q279.2220153808594 -86.33822631835938 302.9226989746094 -87.3172607421875Q327.39398193359375 -86.42190551757812 327.6024169921875 -64.59561157226562Z" fill="#fcd4b0" stroke="none" transform="scale(1,-1) translate(0,-256)" /><path d="M299.9365997314453 177.27847290039062Q299.969482421875 185.03871154785156 293.8452682495117 190.79540252685547Q287.72105407714844 196.55209350585938 278.6460266113281 196.2323760986328Q269.5709991455078 195.91265869140625 263.2211608886719 190.68638610839844Q256.87132263183594 185.46011352539062 256.3573455810547 176.86618041992188Q256.324462890625 169.10594177246094 263.10607147216797 163.52555084228516Q269.88768005371094 157.94515991210938 278.4816131591797 157.43118286132812Q287.556640625 157.7509002685547 293.7301788330078 163.6345672607422Q299.9037170410156 169.5182342529297 299.9365997314453 177.27847290039062Z" fill="#fcd4b0" stroke="none" transform="scale(1,-1) translate(0,-256)" /><path d="M178 226Q171 231 162.5 229.0Q154 227 150 219Q146 212 148.0 204.0Q150 196 158 191Q165 187 173.5 189.0Q182 191 186 198Q190 206 188.0 214.0Q186 222 178 226Z" fill="#fcd4b0" stroke="none" transform="scale(1,-1) translate(0,-256)" /><path d="M119.29862976074219 296.90126037597656Q111.48971557617188 315.5943603515625 95.42543029785156 309.39125061035156Q79.36114501953125 303.1881408691406 85.85565185546875 283.692138671875Q93.66456604003906 264.99903869628906 109.72885131835938 271.2021484375Q125.79313659667969 277.40525817871094 119.29862976074219 296.90126037597656Z" fill="#fcd4b0" stroke="none" transform="scale(1,-1) translate(0,-256)" /><path d="M294.5306701660156 467.0780334472656Q294.5148010253906 476.2439880371094 288.3170700073242 482.42029571533203Q282.1193389892578 488.5966033935547 273.86997985839844 488.5823211669922Q265.1623229980469 488.56724548339844 258.9860153198242 482.36951446533203Q252.80970764160156 476.1717834472656 252.82557678222656 467.0058288574219Q252.8406524658203 458.2981719970703 259.03878021240234 451.89271545410156Q265.2369079589844 445.4872589111328 273.94456481933594 445.50233459472656Q282.1939239501953 445.51661682128906 288.36983489990234 451.94349670410156Q294.5457458496094 458.37037658691406 294.5306701660156 467.0780334472656Z" fill="#fcd4b0" stroke="none" transform="scale(1,-1) translate(0,-256)" /><path d="M282.0543975830078 590.657470703125Q282.88438415527344 599.2194519042969 276.9023895263672 605.5804290771484Q270.92039489746094 611.94140625 261.99241638183594 611.4053955078125Q253.93043518066406 611.369384765625 248.00245666503906 605.6373901367188Q242.07447814941406 599.9053955078125 241.74449157714844 590.4774169921875Q241.78050231933594 582.4154357910156 247.7624969482422 576.0544586181641Q253.74449157714844 569.6934814453125 261.8064727783203 569.7294921875Q270.7344512939453 570.2655029296875 276.6624298095703 575.9974975585938Q282.5904083251953 581.7294921875 282.0543975830078 590.657470703125Z" fill="#fcd4b0" stroke="none" transform="scale(1,-1) translate(0,-256)" /><path d="M262 707Q259 715 252.0 718.5Q245 722 238 719Q231 716 228.5 709.0Q226 702 229 694Q232 686 239.0 682.5Q246 679 252 682Q259 685 262.0 692.5Q265 700 262 707Z" fill="#fcd4b0" stroke="none" transform="scale(1,-1) translate(0,-256)" /></svg>