<?xml version="1.0" encoding="utf-8" ?>
<svg baseProfile="full" height="256" version="1.1" width="256" xmlns="http://www.w3.org/2000/svg" xmlns:ev="http://www.w3.org/2001/xml-events" xmlns:xlink="http://www.w3.org/1999/xlink"><defs /><path d="M648 287Q648 287 661.0 274.0Q674 261 694.5 242.0Q715 223 738.0 204.0Q761 185 782.5 171.0Q804 157 818 155Q836 152 859.0 159.5Q882 167 905.5 180.0Q929 193 948.5 207.0Q968 221 978 231Q985 238 990.5 267.5Q996 297 1000.5 340.0Q1005 383 1009.0 431.0Q1013 479 1015.5 523.5Q1018 568 1019.5 601.0Q1021 634 1022 646Q1022 670 1036.5 686.5Q1051 703 1066.0 712.5Q1081 722 1084 724Q1086 726 1096.5 731.5Q1107 737 1117.5 740.0Q1128 743 1132 736Q1136 730 1128.5 717.0Q1121 704 1110.5 687.0Q1100 670 1095 650Q1093 638 1091.5 605.0Q1090 572 1089.5 527.5Q1089 483 1088.5 435.0Q1088 387 1087.5 344.5Q1087 302 1086 275Q1084 216 1063.5 180.0Q1043 144 1019.0 124.5Q995 105 982 95Q969 85 944.5 76.0Q920 67 900.0 61.5Q880 56 880 56Q880 56 882.0 47.5Q884 39 888.5 31.0Q893 23 903 23Q910 23 934.0 21.5Q958 20 986.5 19.0Q1015 18 1038.0 18.5Q1061 19 1066 23Q1071 27 1083.5 40.5Q1096 54 1110.5 69.0Q1125 84 1137.0 94.5Q1149 105 1152 102Q1159 96 1153.5 68.0Q1148 40 1126 7Q1104 -26 1063.0 -49.0Q1022 -72 957 -77Q894 -82 848.0 -64.5Q802 -47 762 -8Q737 16 720.5 45.5Q704 75 694 89Q688 98 675.5 109.0Q663 120 652.0 122.0Q641 124 640 106Q639 95 636.5 70.0Q634 45 631.5 14.0Q629 -17 627.5 -47.0Q626 -77 627.0 -99.0Q628 -121 634 -128Q643 -139 658.5 -135.5Q674 -132 687.0 -125.0Q700 -118 700 -118Q700 -118 704.5 -103.0Q709 -88 714.5 -74.0Q720 -60 722 -62Q724 -64 731.0 -73.5Q738 -83 742.0 -101.0Q746 -119 740 -144Q733 -169 709.0 -186.0Q685 -203 654.0 -208.0Q623 -213 594 -200Q565 -188 550.5 -162.5Q536 -137 531.5 -111.0Q527 -85 526 -69Q525 -41 526.5 -9.0Q528 23 531.0 51.0Q534 79 536.5 96.5Q539 114 539 114Q539 114 528.0 99.0Q517 84 503.0 65.5Q489 47 480 35Q473 24 454.0 0.5Q435 -23 406.0 -45.5Q377 -68 338 -76Q304 -83 280.5 -75.0Q257 -67 243.0 -51.5Q229 -36 222.0 -19.5Q215 -3 214 7Q212 35 216.0 33.5Q220 32 224 23Q228 17 234.0 8.5Q240 0 257.0 -6.0Q274 -12 309 -13Q337 -13 354.5 6.0Q372 25 382.0 54.0Q392 83 396.5 112.0Q401 141 402.0 160.5Q403 180 403 180Q403 180 373.0 171.5Q343 163 307 160Q284 158 251.5 161.5Q219 165 187.5 176.5Q156 188 135 211Q110 239 97.0 275.5Q84 312 90 357Q94 386 110.5 409.5Q127 433 143.5 445.5Q160 458 165 456Q170 453 163.5 437.5Q157 422 149.0 404.0Q141 386 139 376Q136 362 138.5 333.5Q141 305 174 270Q188 255 212.5 250.0Q237 245 265.5 245.5Q294 246 320.0 249.5Q346 253 362.5 256.5Q379 260 379 260Q379 260 367.5 268.5Q356 277 340.0 291.0Q324 305 311 320Q294 340 283.0 356.5Q272 373 264.0 393.0Q256 413 248 444Q242 467 240.0 500.0Q238 533 237.0 570.0Q236 607 233.5 639.5Q231 672 224 693Q221 705 209.0 722.5Q197 740 187.0 756.0Q177 772 179 779Q181 790 195.5 788.0Q210 786 227 775Q238 768 255.0 746.5Q272 725 288.0 690.5Q304 656 311 607Q319 559 337.5 507.0Q356 455 381.0 409.5Q406 364 432 337Q447 321 473.5 311.0Q500 301 530.0 296.0Q560 291 587.0 289.0Q614 287 631.0 287.0Q648 287 648 287Z" fill="#ffa8a8" stroke="none" transform="scale(1,-1) translate(0,-256)" /></svg>