<?xml version="1.0" encoding="utf-8" ?>
<svg baseProfile="full" height="256" version="1.1" width="256" xmlns="http://www.w3.org/2000/svg" xmlns:ev="http://www.w3.org/2001/xml-events" xmlns:xlink="http://www.w3.org/1999/xlink"><defs /><path d="M111 -7Q109 -3 124.5 4.5Q140 12 164.5 20.0Q189 28 215.5 34.5Q242 41 262.0 44.0Q282 47 287 44Q301 37 311.5 22.5Q322 8 323 -3Q324 -12 318.5 -28.5Q313 -45 298 -54Q282 -64 259.0 -68.5Q236 -73 201 -68Q160 -61 138.5 -43.0Q117 -25 111 -7Z" fill="#37b5e1" stroke="none" transform="scale(1,-1) translate(0,-256)" /><path d="M307 -160Q307 -160 324.0 -158.5Q341 -157 366.5 -155.0Q392 -153 418.5 -151.5Q445 -150 463.5 -149.5Q482 -149 484 -152Q490 -157 488.5 -170.5Q487 -184 476 -195Q465 -205 433.0 -217.0Q401 -229 350 -216Q318 -208 309.0 -192.0Q300 -176 307 -160Z" fill="#37b5e1" stroke="none" transform="scale(1,-1) translate(0,-256)" /></svg>