<?xml version="1.0" encoding="utf-8" ?>
<svg baseProfile="full" height="256" version="1.1" width="256" xmlns="http://www.w3.org/2000/svg" xmlns:ev="http://www.w3.org/2001/xml-events" xmlns:xlink="http://www.w3.org/1999/xlink"><defs /><path d="M-531.4142303466797 433.14320373535156 -519.7107696533203 467.3416748046875 -462.6705322265625 413.25389099121094 -155.6781463623047 -24.334335327148438 -172.21371459960938 -98.73417663574219 -274.53501892089844 -379.4619140625 -310.4953308105469 -394.7613830566406 -661.4767913818359 59.75431823730469Z" fill="#000000" stroke="none" transform="scale(1,-1) translate(0,-256)" /><path d="M709.4473876953125 76.94302368164062 1144.8015441894531 68.75227355957031 1196.4879150390625 51.57658386230469 849.0690307617188 -428.02569580078125 822.3716125488281 -471.5532989501953 755.5767822265625 -477.9666442871094 379.28887939453125 -419.30946350097656Z" fill="#000000" stroke="none" transform="scale(1,-1) translate(0,-256)" /><path d="M657.818359375 92.08734130859375 680.880859375 60.89991760253906 709.8828125 59.981842041015625 743.8369140625 82.98683166503906 892.3896484375 306.7986755371094 714.9033203125 549.4797515869141 703.9140625 544.0895233154297 463.3818359375 309.84532165527344 545.5810546875 210.45277404785156Z" fill="#000000" stroke="none" transform="scale(1,-1) translate(0,-256)" /></svg>