<?xml version="1.0" encoding="utf-8" ?>
<svg baseProfile="full" height="256" version="1.1" width="256" xmlns="http://www.w3.org/2000/svg" xmlns:ev="http://www.w3.org/2001/xml-events" xmlns:xlink="http://www.w3.org/1999/xlink"><defs /><path d="M601 411Q591 403 580.5 412.5Q570 422 558.0 439.0Q546 456 533 471Q520 486 501.5 513.0Q483 540 459.0 569.5Q435 599 406 620Q376 642 343.0 649.5Q310 657 284.5 657.0Q259 657 252 654Q245 652 233.5 640.5Q222 629 211.5 606.5Q201 584 199 546Q197 512 205.0 487.5Q213 463 225.0 445.5Q237 428 246.5 416.5Q256 405 256 398Q256 391 241.0 382.5Q226 374 206.0 360.0Q186 346 169.5 322.5Q153 299 150 260Q149 236 155.0 207.0Q161 178 174.0 154.0Q187 130 206 122Q236 111 290.0 123.5Q344 136 411 173Q456 198 489.5 226.0Q523 254 548.0 279.0Q573 304 592.5 319.0Q612 334 629 333Q645 332 658.0 316.5Q671 301 684.5 277.0Q698 253 714 228Q729 202 756.5 167.5Q784 133 816.5 101.0Q849 69 882 52Q911 37 945.0 33.5Q979 30 1006.0 34.0Q1033 38 1043 44Q1058 54 1075.5 80.0Q1093 106 1098 147Q1102 189 1090.5 218.0Q1079 247 1066.0 264.0Q1053 281 1053 286Q1054 291 1069.5 302.5Q1085 314 1103.5 331.0Q1122 348 1133 369Q1144 391 1146.5 417.0Q1149 443 1145.0 465.5Q1141 488 1133 497Q1121 511 1090.0 524.5Q1059 538 1007 536Q971 535 930.0 517.0Q889 499 846.0 471.5Q803 444 762 414Q747 402 731.5 393.5Q716 385 711 397Q706 408 713.5 417.0Q721 426 748 439Q765 448 802.5 472.5Q840 497 882.5 534.0Q925 571 957 617Q985 657 988.0 701.0Q991 745 973.0 777.0Q955 809 920 815Q881 821 849.5 811.0Q818 801 794.0 785.5Q770 770 754.0 757.5Q738 745 731 747Q722 748 712.0 767.5Q702 787 685.5 812.5Q669 838 642.0 858.5Q615 879 573 883Q556 885 533.5 882.0Q511 879 496 860Q480 840 468.0 808.5Q456 777 456 735Q457 675 477.5 623.5Q498 572 523.5 534.5Q549 497 563 478Q585 451 600.5 437.0Q616 423 601 411Z" fill="#8bc02b" stroke="none" transform="scale(1,-1) translate(0,-256)" /></svg>