<?xml version="1.0" encoding="utf-8" ?>
<svg baseProfile="full" height="256" version="1.1" width="256" xmlns="http://www.w3.org/2000/svg" xmlns:ev="http://www.w3.org/2001/xml-events" xmlns:xlink="http://www.w3.org/1999/xlink"><defs /><path d="M594 593Q594 593 595.5 608.5Q597 624 610 633Q624 642 637.0 633.5Q650 625 650 625Q650 625 657.5 638.5Q665 652 686 652Q700 652 707.5 645.0Q715 638 718.0 630.5Q721 623 721 623Q721 623 731.5 632.5Q742 642 759 635Q774 629 776.0 614.0Q778 599 775.5 586.0Q773 573 773 573Q773 573 788.0 579.0Q803 585 817 575Q832 566 827.0 549.5Q822 533 809 516Q781 480 764 496Q755 504 758.5 514.5Q762 525 762 525Q762 525 747.5 521.5Q733 518 718 528Q702 537 699.5 548.0Q697 559 697 559Q697 559 687.0 546.5Q677 534 653 533Q638 533 628.0 541.0Q618 549 618 549Q618 549 619.0 539.5Q620 530 618.5 519.5Q617 509 608 505Q593 498 580.0 507.0Q567 516 557 530Q546 545 541.5 565.5Q537 586 550 597Q560 605 570.5 603.0Q581 601 587.5 597.0Q594 593 594 593Z" fill="#bbd046" stroke="none" transform="scale(1,-1) translate(0,-256)" /><path d="M791 368Q789 377 797.0 392.0Q805 407 818.0 419.5Q831 432 846.5 436.5Q862 441 874 430Q885 421 879.5 408.5Q874 396 874 396Q874 396 886.0 395.5Q898 395 910.0 387.5Q922 380 921 360Q920 337 907.0 328.5Q894 320 881.0 319.0Q868 318 868 318Q868 318 875.5 315.0Q883 312 889.0 305.0Q895 298 892 285Q889 273 883.5 271.5Q878 270 878 270Q878 270 881.5 261.0Q885 252 879 240Q874 230 864.5 228.0Q855 226 848.0 227.5Q841 229 841 229Q841 229 846.5 222.0Q852 215 855.0 203.5Q858 192 851 180Q840 160 817.5 168.5Q795 177 775 193Q757 207 746.0 229.0Q735 251 743 263Q750 274 758.5 275.0Q767 276 767 276Q767 276 764.0 284.0Q761 292 767 302Q774 315 786.5 314.5Q799 314 799 314Q799 314 796.5 318.5Q794 323 797 333Q799 343 806.0 345.5Q813 348 813 348Q813 348 803.5 350.5Q794 353 791 368Z" fill="#bbd046" stroke="none" transform="scale(1,-1) translate(0,-256)" /><path d="M513 426Q509 418 500.0 416.5Q491 415 483.5 416.0Q476 417 476 417Q476 417 480.0 410.5Q484 404 483 398Q483 391 477.0 387.0Q471 383 471 383Q471 383 483.5 375.0Q496 367 496 355Q497 342 489.5 332.5Q482 323 482 323Q482 323 495.0 324.5Q508 326 517 309Q525 294 514.5 277.5Q504 261 484.0 248.0Q464 235 444.5 231.0Q425 227 416 237Q406 248 409.5 260.5Q413 273 423.0 284.5Q433 296 441.5 303.5Q450 311 450 311Q450 311 436.0 310.5Q422 310 406.5 314.0Q391 318 385 331Q379 344 385.5 352.5Q392 361 400.5 366.0Q409 371 409 371Q409 371 400.5 377.0Q392 383 392 400Q392 416 403.5 421.5Q415 427 415 427Q415 427 407.5 432.0Q400 437 401 450Q402 463 412.0 466.5Q422 470 422 470Q422 470 420.5 478.0Q419 486 426 494Q433 501 447.0 499.5Q461 498 484 481Q506 464 512.0 450.5Q518 437 513 426Z" fill="#bbd046" stroke="none" transform="scale(1,-1) translate(0,-256)" /></svg>