<?xml version="1.0" encoding="utf-8" ?>
<svg baseProfile="full" height="256" version="1.1" width="256" xmlns="http://www.w3.org/2000/svg" xmlns:ev="http://www.w3.org/2001/xml-events" xmlns:xlink="http://www.w3.org/1999/xlink"><defs /><path d="M697 346Q697 346 686.5 332.5Q676 319 665.5 296.5Q655 274 654 247Q654 229 653.0 193.5Q652 158 653.5 114.0Q655 70 660 27Q668 -29 686.0 -61.0Q704 -93 720.0 -106.0Q736 -119 736 -119Q736 -119 747.5 -118.0Q759 -117 774.0 -118.0Q789 -119 798.5 -125.0Q808 -131 804 -145Q795 -173 775.0 -191.5Q755 -210 744 -210Q737 -210 720.5 -200.0Q704 -190 686.0 -174.0Q668 -158 655 -142Q637 -118 618.0 -73.5Q599 -29 592 34Q587 69 586.5 110.0Q586 151 587.5 189.5Q589 228 590.5 255.5Q592 283 592 291Q592 307 583.5 317.0Q575 327 575 327L639 369Z" fill="#65a21b" stroke="none" transform="scale(1,-1) translate(0,-256)" /><path d="M309 626Q309 626 309.5 600.0Q310 574 311.0 531.5Q312 489 311.0 437.0Q310 385 306.5 332.5Q303 280 296.0 235.0Q289 190 277.5 159.5Q266 129 248 123Q231 117 207.0 121.0Q183 125 159.5 139.5Q136 154 119.5 179.5Q103 205 100 242Q97 281 107.0 308.0Q117 335 132.0 353.5Q147 372 159.0 384.5Q171 397 171 407Q172 416 162.0 432.5Q152 449 143.0 475.0Q134 501 138 539Q144 584 167.0 608.5Q190 633 216.0 643.0Q242 653 256 655Q289 660 299.5 652.0Q310 644 309.5 635.0Q309 626 309 626Z" fill="#65a21b" stroke="none" transform="scale(1,-1) translate(0,-256)" /><path d="M551 704Q551 704 574.5 705.5Q598 707 637.0 710.5Q676 714 722.0 718.5Q768 723 814.0 727.5Q860 732 898.5 737.0Q937 742 960.0 747.0Q983 752 982 756Q980 765 973.0 786.5Q966 808 946.5 829.0Q927 850 888 860Q849 869 819.0 861.0Q789 853 770.5 842.5Q752 832 748 832Q741 833 731.5 845.0Q722 857 707.0 872.5Q692 888 670.0 900.0Q648 912 616 913Q570 915 541.5 899.0Q513 883 495 859Q487 848 490.0 829.0Q493 810 502.5 788.5Q512 767 523.5 747.5Q535 728 543.0 716.0Q551 704 551 704Z" fill="#65a21b" stroke="none" transform="scale(1,-1) translate(0,-256)" /><path d="M979 400Q973 390 966.0 358.5Q959 327 953.5 285.0Q948 243 946.0 199.0Q944 155 948.5 117.0Q953 79 965.0 56.0Q977 33 999 35Q1044 38 1079.0 61.5Q1114 85 1134.5 118.5Q1155 152 1155 186Q1156 225 1148.5 243.0Q1141 261 1133.5 268.5Q1126 276 1125 281Q1125 286 1136.0 294.5Q1147 303 1159.5 323.5Q1172 344 1176 385Q1179 415 1166.5 446.5Q1154 478 1133 497Q1124 504 1106.0 496.5Q1088 489 1066.5 473.5Q1045 458 1025.0 441.0Q1005 424 992.0 412.0Q979 400 979 400Z" fill="#65a21b" stroke="none" transform="scale(1,-1) translate(0,-256)" /></svg>