<?xml version="1.0" encoding="utf-8" ?>
<svg baseProfile="full" height="256" version="1.1" width="256" xmlns="http://www.w3.org/2000/svg" xmlns:ev="http://www.w3.org/2001/xml-events" xmlns:xlink="http://www.w3.org/1999/xlink"><defs /><path d="M510 121Q511 115 511.5 109.5Q512 104 513 98L399 76Q391 74 384.0 78.5Q377 83 375 91Q374 99 378.5 106.0Q383 113 391 115L506 137Q508 129 510 121Z" fill="#ffffff" stroke="none" transform="scale(1,-1) translate(0,-256)" /><path d="M474 702Q481 694 488 683L402 605Q396 599 388.0 599.5Q380 600 374 606Q369 612 369.0 620.5Q369 629 375 634L462 713Q468 707 474 702Z" fill="#ffffff" stroke="none" transform="scale(1,-1) translate(0,-256)" /><path d="M1031 181Q1038 171 1043 161L950 92Q943 87 935.0 88.0Q927 89 922 96Q917 103 918.5 111.0Q920 119 926 124L1020 194Q1026 188 1031 181Z" fill="#ffffff" stroke="none" transform="scale(1,-1) translate(0,-256)" /><path d="M792 691Q799 699 808 708L901 638Q907 633 908.0 625.0Q909 617 904 610Q899 604 891.0 603.0Q883 602 876 607L783 677Q788 685 792 691Z" fill="#ffffff" stroke="none" transform="scale(1,-1) translate(0,-256)" /></svg>