<?xml version="1.0" encoding="utf-8" ?>
<svg baseProfile="full" height="256" version="1.1" width="256" xmlns="http://www.w3.org/2000/svg" xmlns:ev="http://www.w3.org/2001/xml-events" xmlns:xlink="http://www.w3.org/1999/xlink"><defs /><path d="M989 511Q975 459 943.5 423.5Q912 388 867 365Q868 362 873.5 358.0Q879 354 881 351Q901 305 905.0 255.5Q909 206 910 157Q910 123 909.5 104.5Q909 86 908.5 72.0Q908 58 907.5 39.5Q907 21 908 -12Q857 -20 812.0 -24.0Q767 -28 718.5 -27.0Q670 -26 610 -19Q619 49 622.5 116.0Q626 183 626.5 237.5Q627 292 626.0 325.0Q625 358 625 358Q653 389 687.5 433.0Q722 477 754.0 522.0Q786 567 807.5 602.5Q829 638 830 654Q832 682 805.5 699.0Q779 716 737.5 722.5Q696 729 649.5 727.0Q603 725 564.0 715.5Q525 706 506 691Q480 671 466.5 642.5Q453 614 448 584Q492 541 535.0 498.5Q578 456 622 413Q607 407 584.0 391.5Q561 376 535.5 360.5Q510 345 486.0 339.0Q462 333 445 345Q405 373 373.0 409.5Q341 446 322.0 485.5Q303 525 305 563Q306 591 313.0 632.5Q320 674 335.5 719.0Q351 764 379.5 804.5Q408 845 452 872Q488 893 545.0 903.5Q602 914 666.0 913.5Q730 913 790.0 900.5Q850 888 894.5 863.5Q939 839 954 801Q960 786 962.0 765.5Q964 745 963.5 730.0Q963 715 963 715Q963 715 975.5 703.5Q988 692 999 649Q1007 619 1002.5 580.0Q998 541 989 511Z" fill="#f44336" stroke="none" transform="scale(1,-1) translate(0,-256)" /><path d="M517 149Q579 137 607.5 126.5Q636 116 636 116Q633 93 625.0 62.5Q617 32 607.5 2.5Q598 -27 591.0 -47.0Q584 -67 583 -68Q567 -104 546 -98Q530 -93 542 -68Q542 -68 552.0 -51.0Q562 -34 567 -14Q570 -2 570.5 6.0Q571 14 560 14Q553 14 548.5 5.0Q544 -4 539 -15Q526 -46 520.0 -53.5Q514 -61 510 -66Q506 -71 497.0 -72.5Q488 -74 483 -70Q477 -66 477.0 -58.0Q477 -50 485 -42Q486 -41 494.5 -28.5Q503 -16 512 -1Q517 8 517.5 17.0Q518 26 510 27Q497 29 487 13Q473 -9 466.0 -22.5Q459 -36 453 -42Q443 -52 435.0 -52.5Q427 -53 424 -49Q419 -44 417.0 -37.5Q415 -31 424 -20Q431 -9 439.0 -1.0Q447 7 456 27Q465 45 449 47Q441 47 436.5 42.0Q432 37 429 34Q402 -12 385.0 -21.0Q368 -30 358 -25Q349 -19 351.5 -10.5Q354 -2 359 2Q359 3 372.0 15.5Q385 28 399 47Q402 51 403.0 58.0Q404 65 398 67Q390 70 385.5 67.5Q381 65 378 61Q357 34 335.0 15.0Q313 -4 293 7Q282 13 285.5 20.5Q289 28 295 32Q295 32 311.5 44.5Q328 57 345 76Q349 81 350.0 85.5Q351 90 346 92Q339 94 332.5 91.5Q326 89 323 86Q309 73 293.5 60.0Q278 47 259 44Q254 43 245.5 45.5Q237 48 234 57Q232 67 238.5 71.0Q245 75 248 77Q293 101 321.0 130.0Q349 159 362.5 179.5Q376 200 376 200Q410 179 443.0 168.0Q476 157 517 149Z" fill="#f44336" stroke="none" transform="scale(1,-1) translate(0,-256)" /></svg>