<?xml version="1.0" encoding="utf-8" ?>
<svg baseProfile="full" height="256" version="1.1" width="256" xmlns="http://www.w3.org/2000/svg" xmlns:ev="http://www.w3.org/2001/xml-events" xmlns:xlink="http://www.w3.org/1999/xlink"><defs /><path d="M446 671Q443 613 446 556Q464 638 505.5 673.5Q547 709 631 718Q728 726 813 682Q823 678 826.5 666.0Q830 654 830 654Q830 654 840.5 672.0Q851 690 860.5 714.5Q870 739 869 758Q865 798 839.0 822.5Q813 847 775.5 858.5Q738 870 698.0 872.0Q658 874 626 871Q603 868 572.0 861.5Q541 855 513.5 842.0Q486 829 474 808Q456 777 452.5 741.0Q449 705 446 671Z" fill="#823b1f" stroke="none" transform="scale(1,-1) translate(0,-256)" /><path d="M926 577Q930 574 935.0 576.5Q940 579 942 581Q960 602 970.5 630.0Q981 658 981 685Q980 722 975.0 740.5Q970 759 965.0 766.0Q960 773 960 776Q962 689 928 610Q924 603 919.5 591.5Q915 580 926 577Z" fill="#823b1f" stroke="none" transform="scale(1,-1) translate(0,-256)" /><path d="M504 497Q514 492 521.0 501.0Q528 510 520 516Q484 549 448.5 586.0Q413 623 387.0 666.5Q361 710 353 760Q340 727 347.0 694.5Q354 662 372.5 632.0Q391 602 412 577Q422 565 440.5 547.5Q459 530 477.5 515.0Q496 500 504 497Z" fill="#823b1f" stroke="none" transform="scale(1,-1) translate(0,-256)" /><path d="M560 368Q571 370 577.0 388.5Q583 407 587 418Q594 438 603.0 456.5Q612 475 625 492Q639 508 654.5 522.0Q670 536 688 546Q639 546 601 504Q581 482 563.0 451.0Q545 420 544 385Q544 379 548.0 372.5Q552 366 560 368Z" fill="#823b1f" stroke="none" transform="scale(1,-1) translate(0,-256)" /><path d="M764 342Q796 345 828.5 355.0Q861 365 891 379Q870 354 843.5 336.0Q817 318 792.0 306.0Q767 294 750.0 288.0Q733 282 732 281Q730 279 729 274Q712 231 698.5 193.0Q685 155 668.5 118.5Q652 82 626 43Q623 38 618.5 35.5Q614 33 614 35Q625 68 645.5 142.5Q666 217 689 319Q708 422 753 517Q757 525 762.5 534.0Q768 543 774 549Q774 549 767.0 527.0Q760 505 753.0 473.5Q746 442 745 412Q745 393 748.5 374.0Q752 355 764 342Z" fill="#823b1f" stroke="none" transform="scale(1,-1) translate(0,-256)" /></svg>