<?xml version="1.0" encoding="utf-8" ?>
<svg baseProfile="full" height="256" version="1.1" width="256" xmlns="http://www.w3.org/2000/svg" xmlns:ev="http://www.w3.org/2001/xml-events" xmlns:xlink="http://www.w3.org/1999/xlink"><defs /><path d="M1191 -59Q1183 -115 1153 -145Q1139 -158 1111.0 -175.5Q1083 -193 1039.0 -204.5Q995 -216 934.5 -212.0Q874 -208 794 -178Q772 -170 736.5 -151.0Q701 -132 660.0 -107.5Q619 -83 581.0 -58.0Q543 -33 515.0 -13.0Q487 7 477 16Q470 23 479.0 48.5Q488 74 506.5 107.0Q525 140 546.0 170.5Q567 201 585.0 218.5Q603 236 610 230Q702 150 788.0 99.5Q874 49 939.0 35.0Q1004 21 1034 51Q1046 63 1051 82Q1090 43 1126.0 6.5Q1162 -30 1191 -59Z" fill="#000000" stroke="none" transform="scale(1,-1) translate(0,-256)" /><path d="M272 690Q276 679 266.0 673.0Q256 667 248 676Q206 718 190.5 751.5Q175 785 171 800Q161 838 176.0 861.5Q191 885 220.5 896.5Q250 908 283.0 911.0Q316 914 343 911Q425 901 498.5 864.0Q572 827 639 782Q676 758 713.5 726.0Q751 694 785.5 662.0Q820 630 847.0 603.0Q874 576 888 562Q976 471 1039.5 376.5Q1103 282 1140.5 193.5Q1178 105 1189.0 30.5Q1200 -44 1183 -94Q1156 -68 1115.5 -30.0Q1075 8 1032 49Q1033 50 1033.5 50.5Q1034 51 1034 51Q1060 77 1053.0 129.5Q1046 182 1011.0 252.0Q976 322 916.0 401.0Q856 480 777 560Q698 639 619.0 698.5Q540 758 470.0 793.0Q400 828 347.5 835.5Q295 843 269 817Q257 806 256.0 784.5Q255 763 260.0 738.0Q265 713 272 690Z" fill="#000000" stroke="none" transform="scale(1,-1) translate(0,-256)" /></svg>