<?xml version="1.0" encoding="utf-8" ?>
<svg baseProfile="full" height="256" version="1.1" width="256" xmlns="http://www.w3.org/2000/svg" xmlns:ev="http://www.w3.org/2001/xml-events" xmlns:xlink="http://www.w3.org/1999/xlink"><defs /><path d="M694 185Q702 182 706.0 157.0Q710 132 709.0 101.0Q708 70 702 48Q692 15 664.5 6.5Q637 -2 613 10Q593 20 584.0 43.5Q575 67 595 101Q608 123 628.0 143.5Q648 164 667.0 176.0Q686 188 694 185Z" fill="#4fc4f8" stroke="none" transform="scale(1,-1) translate(0,-256)" /><path d="M391 208Q400 204 402.5 171.0Q405 138 404 100Q401 59 376.5 35.5Q352 12 311 30Q284 42 279.5 63.5Q275 85 284.0 107.0Q293 129 308 145Q318 157 335.0 172.5Q352 188 367.5 199.0Q383 210 391 208Z" fill="#4fc4f8" stroke="none" transform="scale(1,-1) translate(0,-256)" /><path d="M505 -3Q512 -7 515.0 -26.5Q518 -46 517.5 -71.5Q517 -97 514 -118Q508 -163 483.0 -180.0Q458 -197 427 -183Q395 -170 391.5 -141.0Q388 -112 404 -87Q414 -69 435.5 -48.0Q457 -27 477.0 -13.0Q497 1 505 -3Z" fill="#4fc4f8" stroke="none" transform="scale(1,-1) translate(0,-256)" /><path d="M819 -8Q826 -12 829.5 -37.0Q833 -62 832.0 -93.5Q831 -125 823 -148Q813 -179 790.5 -188.0Q768 -197 745.5 -189.0Q723 -181 712.0 -159.0Q701 -137 713 -105Q720 -88 735.5 -70.5Q751 -53 768.5 -38.0Q786 -23 800.5 -14.5Q815 -6 819 -8Z" fill="#4fc4f8" stroke="none" transform="scale(1,-1) translate(0,-256)" /><path d="M1011 178Q1019 173 1023.5 152.5Q1028 132 1027.5 102.0Q1027 72 1017 39Q1007 5 982.0 -5.0Q957 -15 934 -6Q912 3 901.0 30.0Q890 57 910 95Q921 114 942.0 135.5Q963 157 983.5 169.5Q1004 182 1011 178Z" fill="#4fc4f8" stroke="none" transform="scale(1,-1) translate(0,-256)" /></svg>