<?xml version="1.0" encoding="utf-8" ?>
<svg baseProfile="full" height="256" version="1.1" width="256" xmlns="http://www.w3.org/2000/svg" xmlns:ev="http://www.w3.org/2001/xml-events" xmlns:xlink="http://www.w3.org/1999/xlink"><defs /><path d="M941 96Q953 98 958.0 86.5Q963 75 963 65Q963 55 960.0 42.0Q957 29 946 25Q934 20 924.5 28.5Q915 37 917 56Q918 74 926.0 84.5Q934 95 941 96Z" fill="#aee6fd" stroke="none" transform="scale(1,-1) translate(0,-256)" /><path d="M628 104Q639 101 641.5 90.0Q644 79 644 72Q645 59 638.5 43.5Q632 28 615 29Q590 31 594 64Q597 84 608.5 95.0Q620 106 628 104Z" fill="#aee6fd" stroke="none" transform="scale(1,-1) translate(0,-256)" /><path d="M435 -79Q447 -80 451.5 -90.0Q456 -100 456 -109Q457 -118 453.5 -135.0Q450 -152 438 -155Q426 -158 417.5 -149.5Q409 -141 409 -121Q409 -102 418.5 -90.5Q428 -79 435 -79Z" fill="#aee6fd" stroke="none" transform="scale(1,-1) translate(0,-256)" /><path d="M327 121Q345 116 343 88Q342 73 334.0 62.5Q326 52 316 53Q305 55 299.0 64.5Q293 74 295 89Q296 103 306.5 113.5Q317 124 327 121Z" fill="#aee6fd" stroke="none" transform="scale(1,-1) translate(0,-256)" /><path d="M754 -90Q765 -91 769.0 -101.5Q773 -112 773 -128Q772 -147 765.5 -158.0Q759 -169 748 -168Q741 -168 732.5 -162.0Q724 -156 724 -135Q724 -115 734.0 -102.5Q744 -90 754 -90Z" fill="#aee6fd" stroke="none" transform="scale(1,-1) translate(0,-256)" /></svg>