<?xml version="1.0" encoding="utf-8" ?>
<svg baseProfile="full" height="256" version="1.1" width="256" xmlns="http://www.w3.org/2000/svg" xmlns:ev="http://www.w3.org/2001/xml-events" xmlns:xlink="http://www.w3.org/1999/xlink"><defs /><path d="M384 249Q374 264 356.5 271.5Q339 279 321 279Q300 278 274.5 269.0Q249 260 234 245Q209 220 205.5 190.5Q202 161 229 143Q241 135 256.0 135.0Q271 135 284 139Q298 144 310.5 151.0Q323 158 337 164Q348 168 359.0 172.0Q370 176 378 184Q391 196 392.0 215.0Q393 234 384 249Z" fill="#ff9f9f" stroke="none" transform="scale(1,-1) translate(0,-256)" /></svg>