<?xml version="1.0" encoding="utf-8" ?>
<svg baseProfile="full" height="256" version="1.1" width="256" xmlns="http://www.w3.org/2000/svg" xmlns:ev="http://www.w3.org/2001/xml-events" xmlns:xlink="http://www.w3.org/1999/xlink"><defs /><path d="M881.1897583007812 -99.90457153320312Q881.1897583007812 -76.65475463867188 872.471076965332 -56.31116485595703Q863.7523956298828 -35.96757507324219 848.2912673950195 -20.506446838378906Q832.8301391601562 -5.045318603515625 812.4865493774414 3.6733627319335938Q792.1429595947266 12.392044067382812 768.66064453125 12.392044067382812Q745.4108276367188 12.392044067382812 725.0672378540039 3.6733627319335938Q704.7236480712891 -5.045318603515625 689.2625198364258 -20.506446838378906Q673.8013916015625 -35.96757507324219 665.0827102661133 -56.31116485595703Q656.3640289306641 -76.65475463867188 656.3640289306641 -99.90457153320312Q656.3640289306641 -123.38688659667969 665.0827102661133 -143.73047637939453Q673.8013916015625 -164.07406616210938 689.2625198364258 -179.53519439697266Q704.7236480712891 -194.99632263183594 725.0672378540039 -203.71500396728516Q745.4108276367188 -212.43368530273438 768.66064453125 -212.43368530273438Q792.1429595947266 -212.43368530273438 812.4865493774414 -203.71500396728516Q832.8301391601562 -194.99632263183594 848.2912673950195 -179.53519439697266Q863.7523956298828 -164.07406616210938 872.471076965332 -143.73047637939453Q881.1897583007812 -123.38688659667969 881.1897583007812 -99.90457153320312Z" fill="#cc3333" stroke="none" transform="scale(1,-1) translate(0,-256)" /><path d="M395.56475830078125 -99.90457153320312Q395.56475830078125 -76.65475463867188 386.84607696533203 -56.31116485595703Q378.1273956298828 -35.96757507324219 362.66626739501953 -20.506446838378906Q347.20513916015625 -5.045318603515625 326.8615493774414 3.6733627319335938Q306.51795959472656 12.392044067382812 283.03564453125 12.392044067382812Q259.78582763671875 12.392044067382812 239.4422378540039 3.6733627319335938Q219.09864807128906 -5.045318603515625 203.63751983642578 -20.506446838378906Q188.1763916015625 -35.96757507324219 179.45771026611328 -56.31116485595703Q170.73902893066406 -76.65475463867188 170.73902893066406 -99.90457153320312Q170.73902893066406 -123.38688659667969 179.45771026611328 -143.73047637939453Q188.1763916015625 -164.07406616210938 203.63751983642578 -179.53519439697266Q219.09864807128906 -194.99632263183594 239.4422378540039 -203.71500396728516Q259.78582763671875 -212.43368530273438 283.03564453125 -212.43368530273438Q306.51795959472656 -212.43368530273438 326.8615493774414 -203.71500396728516Q347.20513916015625 -194.99632263183594 362.66626739501953 -179.53519439697266Q378.1273956298828 -164.07406616210938 386.84607696533203 -143.73047637939453Q395.56475830078125 -123.38688659667969 395.56475830078125 -99.90457153320312Z" fill="#cc3333" stroke="none" transform="scale(1,-1) translate(0,-256)" /><path d="M615 722Q654 757 720 759Q737 759 753 756Q709 749 680 722Q649 693 642 653Q640 639 629.5 631.0Q619 623 606 623H541Q554 623 564.5 631.0Q575 639 578 653Q586 694 615 722Z" fill="#cc3333" stroke="none" transform="scale(1,-1) translate(0,-256)" /><path d="M1021 836Q1106 759 1106 620Q1106 497 992 377L900 287Q899 286 898.5 285.5Q898 285 897 284Q855 235 848 154Q847 140 836.0 130.0Q825 120 811 120H746Q761 120 771.5 130.0Q782 140 784 154Q792 237 833 284Q833 285 834.0 285.5Q835 286 835 287L927 377Q1042 497 1042 620Q1042 759 956 836Q880 905 752 912Q760 912 767.5 912.5Q775 913 784 913Q937 913 1021 836Z" fill="#cc3333" stroke="none" transform="scale(1,-1) translate(0,-256)" /><path d="M356.18800354003906 913.0Q372.18800354003906 913.0 383.18800354003906 901.5Q394.18800354003906 890.0 394.18800354003906 874.0L377.18800354003906 124.0Q377.18800354003906 109.0 366.18800354003906 98.5Q355.18800354003906 88.0 339.18800354003906 88.0H299.18800354003906Q314.18800354003906 88.0 325.18800354003906 98.5Q336.18800354003906 109.0 336.18800354003906 124.0L353.18800354003906 874.0Q354.18800354003906 890.0 343.18800354003906 901.5Q332.18800354003906 913.0 316.18800354003906 913.0Z" fill="#cc3333" stroke="none" transform="scale(1,-1) translate(0,-256)" /></svg>