<?xml version="1.0" encoding="utf-8" ?>
<svg baseProfile="full" height="256" version="1.1" width="256" xmlns="http://www.w3.org/2000/svg" xmlns:ev="http://www.w3.org/2001/xml-events" xmlns:xlink="http://www.w3.org/1999/xlink"><defs /><path d="M282.18800354003906 481.0Q279.18800354003906 459.0 255.18800354003906 466.0Q243.18800354003906 470.0 232.68800354003906 481.5Q222.18800354003906 493.0 221.18800354003906 506.0Q221.18800354003906 511.0 220.18800354003906 533.0Q219.18800354003906 555.0 218.68800354003906 585.0Q218.18800354003906 615.0 217.18800354003906 645.0Q216.18800354003906 675.0 215.68800354003906 697.0Q215.18800354003906 719.0 215.18800354003906 724.0Q215.18800354003906 737.0 223.18800354003906 751.0Q231.18800354003906 765.0 251.18800354003906 763.0Q265.18800354003906 761.0 270.68800354003906 752.5Q276.18800354003906 744.0 276.68800354003906 735.5Q277.18800354003906 727.0 277.18800354003906 727.0Q277.18800354003906 727.0 278.18800354003906 704.0Q279.18800354003906 681.0 280.18800354003906 646.0Q281.18800354003906 611.0 281.68800354003906 575.0Q282.18800354003906 539.0 282.68800354003906 513.0Q283.18800354003906 487.0 282.18800354003906 481.0Z" fill="#ffffff" stroke="none" transform="scale(1,-1) translate(0,-256)" /><path d="M271.92384338378906 824.4260559082031Q271.92384338378906 830.8255920410156 269.5240173339844 836.4251861572266Q267.1241912841797 842.0247802734375 262.8684997558594 846.2804718017578Q258.61280822753906 850.5361633300781 253.01321411132812 852.9359893798828Q247.4136199951172 855.3358154296875 240.95008850097656 855.3358154296875Q234.55055236816406 855.3358154296875 228.95095825195312 852.9359893798828Q223.3513641357422 850.5361633300781 219.09567260742188 846.2804718017578Q214.83998107910156 842.0247802734375 212.44015502929688 836.4251861572266Q210.0403289794922 830.8255920410156 210.0403289794922 824.4260559082031Q210.0403289794922 817.9625244140625 212.44015502929688 812.3629302978516Q214.83998107910156 806.7633361816406 219.09567260742188 802.5076446533203Q223.3513641357422 798.251953125 228.95095825195312 795.8521270751953Q234.55055236816406 793.4523010253906 240.95008850097656 793.4523010253906Q247.4136199951172 793.4523010253906 253.01321411132812 795.8521270751953Q258.61280822753906 798.251953125 262.8684997558594 802.5076446533203Q267.1241912841797 806.7633361816406 269.5240173339844 812.3629302978516Q271.92384338378906 817.9625244140625 271.92384338378906 824.4260559082031Z" fill="#ffffff" stroke="none" transform="scale(1,-1) translate(0,-256)" /><path d="M212.18800354003906 -66.0Q201.18800354003906 -82.0 199.18800354003906 -94.0Q197.18800354003906 -106.0 204.18800354003906 -111.0Q211.18800354003906 -115.0 217.18800354003906 -104.5Q223.18800354003906 -94.0 227.18800354003906 -89.0Q248.18800354003906 -58.0 285.18800354003906 -47.0Q288.18800354003906 -47.0 291.18800354003906 -46.0Q294.18800354003906 -45.0 295.18800354003906 -42.0Q299.18800354003906 -37.0 290.18800354003906 -32.0Q283.18800354003906 -30.0 273.18800354003906 -32.0Q231.18800354003906 -38.0 212.18800354003906 -66.0Z" fill="#ffffff" stroke="none" transform="scale(1,-1) translate(0,-256)" /><path d="M698.75 -66.0Q687.75 -82.0 685.75 -94.0Q683.75 -106.0 690.75 -111.0Q697.75 -115.0 703.75 -104.5Q709.75 -94.0 713.75 -89.0Q734.75 -58.0 771.75 -47.0Q774.75 -47.0 777.75 -46.0Q780.75 -45.0 781.75 -42.0Q785.75 -37.0 776.75 -32.0Q769.75 -30.0 759.75 -32.0Q717.75 -38.0 698.75 -66.0Z" fill="#ffffff" stroke="none" transform="scale(1,-1) translate(0,-256)" /><path d="M554 801Q524 765 516.5 735.5Q509 706 526 693Q536 686 547.0 695.0Q558 704 567.5 718.5Q577 733 584 742Q611 774 650.5 797.5Q690 821 733 829Q740 830 747.5 833.0Q755 836 759 841Q764 848 760.5 855.0Q757 862 750 866Q741 871 730.0 872.0Q719 873 708 872Q662 869 620.0 849.5Q578 830 554 801Z" fill="#ffffff" stroke="none" transform="scale(1,-1) translate(0,-256)" /></svg>