<?xml version="1.0" encoding="utf-8" ?>
<svg baseProfile="full" height="256" version="1.1" width="256" xmlns="http://www.w3.org/2000/svg" xmlns:ev="http://www.w3.org/2001/xml-events" xmlns:xlink="http://www.w3.org/1999/xlink"><defs /><path d="M866 665Q866 665 884.5 667.0Q903 669 930.0 671.5Q957 674 982.5 675.5Q1008 677 1023 677Q1041 678 1048.5 665.0Q1056 652 1050.0 635.0Q1044 618 1022 607Q1013 602 997.5 597.5Q982 593 970.0 589.5Q958 586 958 586Q958 586 976.0 586.5Q994 587 1020.0 587.0Q1046 587 1072.5 587.5Q1099 588 1117 587Q1132 587 1140.5 576.0Q1149 565 1147.5 549.5Q1146 534 1131.5 520.5Q1117 507 1087 501Q1082 500 1056.5 497.5Q1031 495 996.5 491.5Q962 488 928.5 485.0Q895 482 872.0 480.0Q849 478 849 478Q849 478 870.5 475.0Q892 472 925.5 467.5Q959 463 997.0 458.5Q1035 454 1069.5 449.5Q1104 445 1127.5 442.0Q1151 439 1155 438Q1185 433 1191.0 413.0Q1197 393 1182.5 373.0Q1168 353 1136 349Q1120 347 1081.5 346.0Q1043 345 990.0 345.0Q937 345 877.5 345.0Q818 345 760.5 344.0Q703 343 653.5 340.0Q604 337 573 331Q506 319 483.5 306.0Q461 293 460 268Q460 242 477.5 211.5Q495 181 514.5 147.0Q534 113 539 77Q545 36 539.0 15.0Q533 -6 523.5 -14.5Q514 -23 509 -26Q501 -32 481.0 -33.0Q461 -34 446 -20Q415 8 394.5 43.5Q374 79 364 102Q348 134 323.5 163.0Q299 192 284 205Q269 217 229.5 245.5Q190 274 148 316Q136 328 129.0 341.0Q122 354 98 373Q87 383 83.0 410.0Q79 437 80.5 470.5Q82 504 86.5 536.0Q91 568 96 587Q102 615 114.0 628.5Q126 642 139.0 646.5Q152 651 160 651Q163 651 188.5 651.0Q214 651 252.5 651.5Q291 652 335.0 652.0Q379 652 419.0 652.5Q459 653 487.5 653.0Q516 653 522 653Q542 654 553.5 656.0Q565 658 575 660Q645 675 704.0 689.0Q763 703 804.0 713.0Q845 723 861 725Q880 728 887.0 716.5Q894 705 889.0 689.5Q884 674 866 665Z" fill="#ffca28" stroke="none" transform="scale(1,-1) translate(0,-256)" /></svg>