<?xml version="1.0" encoding="utf-8" ?>
<svg baseProfile="full" height="256" version="1.1" width="256" xmlns="http://www.w3.org/2000/svg" xmlns:ev="http://www.w3.org/2001/xml-events" xmlns:xlink="http://www.w3.org/1999/xlink"><defs /><path d="M907 505Q902 515 911.5 524.5Q921 534 927 539Q932 543 948.5 549.0Q965 555 985 545Q1004 534 1017.5 514.0Q1031 494 1026 485Q1021 475 1001.5 477.0Q982 479 965 483Q948 488 929.0 493.5Q910 499 907 505Z" fill="#ff5119" stroke="none" transform="scale(1,-1) translate(0,-256)" /><path d="M905 173Q905 178 909.0 189.5Q913 201 918.5 212.0Q924 223 930 227Q938 233 963.0 233.0Q988 233 1003 232Q1018 231 1024.5 223.0Q1031 215 1036 205Q1040 195 1034.5 180.5Q1029 166 1022 156Q1010 141 991.5 134.5Q973 128 963 129Q956 129 942.0 134.5Q928 140 916.5 150.0Q905 160 905 173Z" fill="#ff5119" stroke="none" transform="scale(1,-1) translate(0,-256)" /></svg>