<?xml version="1.0" encoding="utf-8" ?>
<svg baseProfile="full" height="256" version="1.1" width="256" xmlns="http://www.w3.org/2000/svg" xmlns:ev="http://www.w3.org/2001/xml-events" xmlns:xlink="http://www.w3.org/1999/xlink"><defs /><path d="M336 277Q322 295 324.5 303.5Q327 312 324 321Q321 329 320.0 336.5Q319 344 319 344Q319 344 332.0 338.5Q345 333 363.0 325.0Q381 317 394 312Q407 306 429.5 299.0Q452 292 476.5 286.0Q501 280 519 278Q547 275 576.5 267.5Q606 260 641 252Q665 246 691.5 242.0Q718 238 736.5 236.0Q755 234 755 234Q755 234 776.0 236.0Q797 238 830 231Q852 227 872.0 210.5Q892 194 905.0 179.0Q918 164 918 164L489 161Q489 161 473.5 171.5Q458 182 439.0 195.5Q420 209 411 218Q397 230 376.5 240.5Q356 251 336 277Z" fill="#c76831" stroke="none" transform="scale(1,-1) translate(0,-256)" /></svg>