<?xml version="1.0" encoding="utf-8" ?>
<svg baseProfile="full" height="256" version="1.1" width="256" xmlns="http://www.w3.org/2000/svg" xmlns:ev="http://www.w3.org/2001/xml-events" xmlns:xlink="http://www.w3.org/1999/xlink"><defs /><path d="M854 167 849 195 1201 191V161Z" fill="#ef8848" stroke="none" transform="scale(1,-1) translate(0,-256)" /><path d="M73 109V47Q73 47 90.0 46.0Q107 45 133.0 44.5Q159 44 186.5 43.5Q214 43 235 44Q257 44 287.0 45.5Q317 47 348.5 48.0Q380 49 407.0 50.5Q434 52 449 53Q479 55 515.5 60.5Q552 66 575 67Q591 67 610.0 71.5Q629 76 645.0 81.5Q661 87 665 89Q669 92 662.5 95.5Q656 99 646.0 102.0Q636 105 629 105Q620 106 590.0 111.0Q560 116 521 114Q502 112 470.5 109.5Q439 107 405.5 104.0Q372 101 346.0 99.0Q320 97 311 96Q294 96 267.0 98.0Q240 100 219 103Q209 104 185.5 105.0Q162 106 136.0 107.0Q110 108 91.5 108.5Q73 109 73 109Z" fill="#ef8848" stroke="none" transform="scale(1,-1) translate(0,-256)" /><path d="M197 -35Q201 -27 221.5 -21.0Q242 -15 267.5 -11.5Q293 -8 313 -8Q327 -8 348.0 -9.5Q369 -11 390.0 -14.5Q411 -18 424.5 -22.5Q438 -27 437 -32Q435 -42 396.0 -50.0Q357 -58 305 -57Q253 -56 223.0 -49.0Q193 -42 197 -35Z" fill="#ef8848" stroke="none" transform="scale(1,-1) translate(0,-256)" /><path d="M1201 125V65Q1201 65 1183.0 66.0Q1165 67 1151 71Q1141 74 1127.5 77.5Q1114 81 1103.5 84.5Q1093 88 1092 91Q1092 94 1103.0 97.5Q1114 101 1129.0 105.0Q1144 109 1154 114Q1170 120 1185.5 122.5Q1201 125 1201 125Z" fill="#ef8848" stroke="none" transform="scale(1,-1) translate(0,-256)" /><path d="M73 236Q73 236 86.0 240.5Q99 245 113 250Q126 255 139.5 265.5Q153 276 173 285Q186 292 207.0 300.5Q228 309 247.5 317.0Q267 325 274 327Q286 330 296.0 337.5Q306 345 316 345Q320 345 334.0 335.0Q348 325 367.0 311.0Q386 297 404.0 283.0Q422 269 434.5 259.0Q447 249 448 248Q449 248 459.5 235.0Q470 222 483.5 205.0Q497 188 507.0 175.5Q517 163 517 163Q517 163 497.5 162.5Q478 162 447.5 161.0Q417 160 382.0 159.0Q347 158 314.5 157.5Q282 157 260 158Q233 158 200.5 160.0Q168 162 139.0 164.0Q110 166 91.5 167.5Q73 169 73 169Z" fill="#ef8848" stroke="none" transform="scale(1,-1) translate(0,-256)" /></svg>