<?xml version="1.0" encoding="utf-8" ?>
<svg baseProfile="full" height="256" version="1.1" width="256" xmlns="http://www.w3.org/2000/svg" xmlns:ev="http://www.w3.org/2001/xml-events" xmlns:xlink="http://www.w3.org/1999/xlink"><defs /><path d="M1201 -45Q1201 -45 1184.5 -45.0Q1168 -45 1143.0 -45.5Q1118 -46 1092.0 -47.0Q1066 -48 1049 -49Q1014 -51 985.5 -58.5Q957 -66 946 -69Q941 -70 917.5 -73.0Q894 -76 860.5 -80.0Q827 -84 793.0 -87.5Q759 -91 732.0 -94.0Q705 -97 696 -98Q686 -98 663.5 -100.5Q641 -103 613.5 -107.0Q586 -111 561.0 -116.0Q536 -121 520.0 -126.0Q504 -131 505 -137Q507 -143 526.0 -150.0Q545 -157 570.5 -162.5Q596 -168 619.0 -172.0Q642 -176 652 -178Q662 -179 681.5 -185.0Q701 -191 722.0 -198.0Q743 -205 758.0 -210.0Q773 -215 773 -215H1131Q1160 -215 1180.5 -194.5Q1201 -174 1201 -144Z" fill="#f08846" stroke="none" transform="scale(1,-1) translate(0,-256)" /></svg>