<?xml version="1.0" encoding="utf-8" ?>
<svg baseProfile="full" height="256" version="1.1" width="256" xmlns="http://www.w3.org/2000/svg" xmlns:ev="http://www.w3.org/2001/xml-events" xmlns:xlink="http://www.w3.org/1999/xlink"><defs /><path d="M908 -215Q908 -215 893.5 -209.0Q879 -203 859.5 -193.0Q840 -183 824.5 -170.5Q809 -158 807 -145Q803 -128 821.0 -118.5Q839 -109 866.5 -105.5Q894 -102 922.5 -101.5Q951 -101 970 -103Q986 -104 1013.5 -106.0Q1041 -108 1073.5 -111.0Q1106 -114 1135.0 -116.5Q1164 -119 1182.5 -120.5Q1201 -122 1201 -122V-144Q1201 -174 1180.5 -194.5Q1160 -215 1131 -215Z" fill="#c76933" stroke="none" transform="scale(1,-1) translate(0,-256)" /></svg>