<?xml version="1.0" encoding="utf-8" ?>
<svg baseProfile="full" height="256" version="1.1" width="256" xmlns="http://www.w3.org/2000/svg" xmlns:ev="http://www.w3.org/2001/xml-events" xmlns:xlink="http://www.w3.org/1999/xlink"><defs /><path d="M383 255 699 155 608 -240H341L187 -111Z" fill="#000000" stroke="none" transform="scale(1,-1) translate(0,-256)" /><path d="M448 323Q448 362 421.0 389.5Q394 417 356 417Q318 417 291.0 389.5Q264 362 264 323Q264 284 291.0 256.5Q318 229 356 229Q394 229 421.0 256.5Q448 284 448 323Z" fill="#000000" stroke="none" transform="scale(1,-1) translate(0,-256)" /><path d="M656 222Q656 263 625.5 292.5Q595 322 552 322Q509 322 479.0 292.5Q449 263 449 222Q449 181 479.0 152.0Q509 123 552 123Q595 123 625.5 152.0Q656 181 656 222Z" fill="#000000" stroke="none" transform="scale(1,-1) translate(0,-256)" /><path d="M834 162Q834 198 809.0 223.0Q784 248 748 248Q712 248 686.5 223.0Q661 198 661 162Q661 126 686.5 101.0Q712 76 748 76Q784 76 809.0 101.0Q834 126 834 162Z" fill="#000000" stroke="none" transform="scale(1,-1) translate(0,-256)" /><path d="M932.4887084960938 445.293701171875Q914.1719818115234 472.2952575683594 880.6709976196289 478.1865234375Q847.1700134277344 484.0777893066406 817.1791076660156 465.5010681152344Q787.1882019042969 446.9243469238281 778.7978973388672 415.0537414550781Q770.4075927734375 383.1831359863281 787.7645263671875 355.90087890625Q805.8170471191406 329.8026123046875 839.3180313110352 323.9113464355469Q872.8190155029297 318.02008056640625 902.8099212646484 336.5968017578125Q932.8008270263672 355.17352294921875 941.1911315917969 387.04412841796875Q949.5814361572266 418.91473388671875 932.4887084960938 445.293701171875Z" fill="#000000" stroke="none" transform="scale(1,-1) translate(0,-256)" /><path d="M324 443Q324 484 296 513Q268 542 228 542Q188 542 160 513Q131 484 131 443Q131 402 160 374Q188 345 228 345Q268 345 296 374Q324 402 324 443ZM315 443Q315 406 289 380Q264 354 228 354Q192 354 166 380Q141 406 141 443Q141 480 166 506Q192 532 228 532Q264 532 289 506Q315 480 315 443Z" fill="#000000" stroke="none" transform="scale(1,-1) translate(0,-256)" /><path d="M276.37316238088533 515.7785259410739Q243.71052102092654 537.0442048460245 205.95659396308474 529.4264651201665Q168.20266690524295 521.8087253943086 147.4820024431683 489.9833457842469Q126.76133798109367 458.1579661741853 135.07011027703993 420.5501664541662Q143.37888257298619 382.9423667341471 176.04152393294498 361.67668782919645Q208.70416529290378 340.41100892424583 246.45809235074557 348.0287486501038Q284.21201940858737 355.6464883759618 304.932683870662 387.4718679860234Q325.65334833273664 419.29724759608507 317.3445760367904 456.9050473161042Q309.03580374084413 494.5128470361233 276.37316238088533 515.7785259410739Z" fill="#000000" stroke="none" transform="scale(1,-1) translate(0,-256)" /></svg>