<?xml version="1.0" encoding="utf-8" ?>
<svg baseProfile="full" height="256" version="1.1" width="256" xmlns="http://www.w3.org/2000/svg" xmlns:ev="http://www.w3.org/2001/xml-events" xmlns:xlink="http://www.w3.org/1999/xlink"><defs /><path d="M1032 552Q1033 558 1038.5 564.0Q1044 570 1052 570Q1059 569 1065.0 563.0Q1071 557 1072 551Q1072 544 1067.0 536.5Q1062 529 1053 529Q1044 529 1038.0 536.0Q1032 543 1032 552Z" fill="#ffffff" stroke="none" transform="scale(1,-1) translate(0,-256)" /><path d="M367 908Q371 912 378.5 913.0Q386 914 391 909Q396 904 396.0 896.0Q396 888 393 884Q389 879 382.0 878.5Q375 878 369 882Q364 885 362.5 893.5Q361 902 367 908Z" fill="#ffffff" stroke="none" transform="scale(1,-1) translate(0,-256)" /><path d="M1103 57Q1103 57 1094.5 57.0Q1086 57 1077.5 56.0Q1069 55 1067 52Q1067 49 1073.0 43.0Q1079 37 1086.0 32.0Q1093 27 1093 27Q1093 27 1090.5 18.5Q1088 10 1086.0 1.0Q1084 -8 1087 -10Q1090 -13 1098.5 -9.0Q1107 -5 1114.5 -0.5Q1122 4 1122 4Q1122 4 1129.0 0.5Q1136 -3 1143.5 -6.5Q1151 -10 1153 -8Q1155 -6 1154.0 2.5Q1153 11 1151.0 18.5Q1149 26 1149 26Q1149 26 1155.0 31.5Q1161 37 1166.0 43.5Q1171 50 1170 53Q1169 55 1160.5 56.0Q1152 57 1144.0 57.5Q1136 58 1136 58Q1136 58 1133.0 65.5Q1130 73 1126.5 81.0Q1123 89 1120 89Q1117 88 1112.5 80.5Q1108 73 1105.5 65.0Q1103 57 1103 57Z" fill="#ffffff" stroke="none" transform="scale(1,-1) translate(0,-256)" /><path d="M1125 607Q1125 616 1134.0 625.5Q1143 635 1155 635Q1166 634 1174.5 627.5Q1183 621 1184 607Q1186 593 1177.0 583.5Q1168 574 1156 574Q1141 573 1132.0 583.0Q1123 593 1125 607Z" fill="#ffffff" stroke="none" transform="scale(1,-1) translate(0,-256)" /><path d="M274 798Q275 805 282.0 813.5Q289 822 299 823Q310 823 318.0 817.0Q326 811 327 798Q327 786 319.5 776.5Q312 767 300 767Q287 767 279.5 776.0Q272 785 274 798Z" fill="#ffffff" stroke="none" transform="scale(1,-1) translate(0,-256)" /><path d="M797 -73Q798 -66 806.5 -56.5Q815 -47 825 -47Q836 -48 844.0 -54.0Q852 -60 853 -74Q854 -86 846.0 -95.0Q838 -104 826 -105Q813 -106 804.5 -96.5Q796 -87 797 -73Z" fill="#ffffff" stroke="none" transform="scale(1,-1) translate(0,-256)" /></svg>