<?xml version="1.0" encoding="utf-8" ?>
<svg baseProfile="full" height="256" version="1.1" width="256" xmlns="http://www.w3.org/2000/svg" xmlns:ev="http://www.w3.org/2001/xml-events" xmlns:xlink="http://www.w3.org/1999/xlink"><defs /><path d="M682 587Q748 561 798.0 551.5Q848 542 881.0 542.5Q914 543 930.5 547.0Q947 551 947 551Q947 551 929.5 568.5Q912 586 862.5 616.0Q813 646 718 681Q629 714 571.5 724.0Q514 734 486.0 733.0Q458 732 458 732Q458 732 464.0 721.0Q470 710 491.0 690.5Q512 671 557.5 644.5Q603 618 682 587Z" fill="#53b4a0" stroke="none" transform="scale(1,-1) translate(0,-256)" /><path d="M702 678 741 662Q741 662 748.0 679.5Q755 697 765 706Q777 717 791.5 720.0Q806 723 816 746Q824 763 816.5 785.0Q809 807 782 817Q723 840 702 791Q694 774 701.0 757.0Q708 740 712 723Q714 716 711.0 705.0Q708 694 705.0 686.0Q702 678 702 678Z" fill="#53b4a0" stroke="none" transform="scale(1,-1) translate(0,-256)" /><path d="M332 349Q342 359 357.0 359.0Q372 359 384 349Q397 338 396.5 321.0Q396 304 389 295Q381 286 366.0 281.5Q351 277 337 288Q321 300 320.5 318.0Q320 336 332 349Z" fill="#53b4a0" stroke="none" transform="scale(1,-1) translate(0,-256)" /><path d="M508 231Q515 249 530.0 254.5Q545 260 561 256Q580 251 588.0 236.5Q596 222 592 207Q588 191 573.5 183.0Q559 175 541 179Q521 184 511.5 199.5Q502 215 508 231Z" fill="#53b4a0" stroke="none" transform="scale(1,-1) translate(0,-256)" /><path d="M723 190Q738 203 752.0 201.5Q766 200 776 190Q788 178 787.0 161.5Q786 145 776 134Q765 121 750.5 120.5Q736 120 724 131Q711 144 711.0 161.5Q711 179 723 190Z" fill="#53b4a0" stroke="none" transform="scale(1,-1) translate(0,-256)" /><path d="M950 192Q969 189 976.0 177.5Q983 166 982 152Q980 136 966.0 127.0Q952 118 937 119Q921 120 911.5 130.5Q902 141 904 157Q906 174 919.5 184.5Q933 195 950 192Z" fill="#53b4a0" stroke="none" transform="scale(1,-1) translate(0,-256)" /><path d="M214 475Q227 481 241.5 476.0Q256 471 264 454Q272 436 264.5 421.0Q257 406 242 401Q227 396 213.0 402.0Q199 408 193 423Q187 439 192.0 454.0Q197 469 214 475Z" fill="#53b4a0" stroke="none" transform="scale(1,-1) translate(0,-256)" /></svg>