<?xml version="1.0" encoding="utf-8" ?>
<svg baseProfile="full" height="256" version="1.1" width="256" xmlns="http://www.w3.org/2000/svg" xmlns:ev="http://www.w3.org/2001/xml-events" xmlns:xlink="http://www.w3.org/1999/xlink"><defs /><path d="M833 908Q849 908 860.5 896.0Q872 884 871 868L856 382Q856 371 851.5 354.0Q847 337 834 337Q834 337 825.5 341.5Q817 346 808.0 355.5Q799 365 799 381L780 875Q780 888 789.5 898.0Q799 908 813 908Z" fill="#ffffff" stroke="none" transform="scale(1,-1) translate(0,-256)" /><path d="M347 168Q359 154 383.0 132.0Q407 110 455 104Q461 103 463.5 108.5Q466 114 462 118Q458 122 453.5 127.0Q449 132 445 138Q435 150 425.0 167.0Q415 184 395 217Q386 231 371.5 233.5Q357 236 345.0 228.5Q333 221 331.5 205.5Q330 190 347 168Z" fill="#ffffff" stroke="none" transform="scale(1,-1) translate(0,-256)" /><path d="M444 -153Q459 -153 462 -138Q465 -125 469.5 -107.5Q474 -90 480 -74Q485 -62 497.0 -37.0Q509 -12 514 13Q516 22 511.0 28.5Q506 35 497 36L476 38Q458 40 455 23Q452 5 444.5 -15.5Q437 -36 431 -48Q422 -67 412.0 -87.0Q402 -107 397 -131Q396 -139 401.5 -146.0Q407 -153 416 -153Z" fill="#ffffff" stroke="none" transform="scale(1,-1) translate(0,-256)" /></svg>