<?xml version="1.0" encoding="utf-8" ?>
<svg baseProfile="full" height="256" version="1.1" width="256" xmlns="http://www.w3.org/2000/svg" xmlns:ev="http://www.w3.org/2001/xml-events" xmlns:xlink="http://www.w3.org/1999/xlink"><defs /><path d="M774.4293212890625 838.9805908203125V820.4240112304688H1039.1915435791016V838.9805908203125Z" fill="#69a1ba" stroke="none" transform="scale(1,-1) translate(0,-256)" /><path d="M1002 917Q1028 915 1035.0 901.5Q1042 888 1042 874L1020 381Q1019 364 1007.0 351.0Q995 338 977 337H960Q966 338 978.5 347.0Q991 356 991 366L1014 865Q1016 886 1002.5 893.0Q989 900 973 900Q962 900 933.5 900.0Q905 900 875.5 900.5Q846 901 832 902Q811 903 808.0 905.5Q805 908 805 908Q805 908 822.0 909.0Q839 910 864.5 912.0Q890 914 918.0 915.5Q946 917 969.0 917.5Q992 918 1002 917Z" fill="#69a1ba" stroke="none" transform="scale(1,-1) translate(0,-256)" /><path d="M490 63Q489 58 496.0 56.5Q503 55 505 55Q589 49 643.0 66.5Q697 84 728.5 112.0Q760 140 775.0 169.0Q790 198 795 215Q796 222 792.5 227.5Q789 233 782 235Q768 237 764 224Q760 208 746.5 182.5Q733 157 704.5 130.5Q676 104 628.5 86.0Q581 68 509 67Q506 67 498.0 67.0Q490 67 490 63Z" fill="#69a1ba" stroke="none" transform="scale(1,-1) translate(0,-256)" /><path d="M333 -185H902Q902 -195 895.0 -201.0Q888 -207 879 -207H355Q346 -207 339.5 -201.0Q333 -195 333 -185Z" fill="#69a1ba" stroke="none" transform="scale(1,-1) translate(0,-256)" /><path d="M970 316Q970 316 971.0 316.0Q972 316 980 316Q999 316 1001 297Q1002 288 1003.0 278.0Q1004 268 1004 263Q1004 254 1003.0 239.5Q1002 225 991.5 205.0Q981 185 954 159Q936 143 914.0 122.0Q892 101 877.0 76.0Q862 51 865 23Q866 14 868.0 0.0Q870 -14 872.0 -25.0Q874 -36 874 -36Q874 -36 872.5 -40.5Q871 -45 867 -36Q862 -25 854.5 -6.5Q847 12 844 27Q837 56 848.5 81.5Q860 107 878.5 127.5Q897 148 914 162Q919 166 924.5 170.5Q930 175 935 180Q957 201 965.5 216.5Q974 232 975.0 243.0Q976 254 976 263Q976 267 974.5 280.0Q973 293 971.5 304.5Q970 316 970 316Z" fill="#69a1ba" stroke="none" transform="scale(1,-1) translate(0,-256)" /></svg>