<?xml version="1.0" encoding="utf-8" ?>
<svg baseProfile="full" height="256" version="1.1" width="256" xmlns="http://www.w3.org/2000/svg" xmlns:ev="http://www.w3.org/2001/xml-events" xmlns:xlink="http://www.w3.org/1999/xlink"><defs /><path d="M809 348H1004Q997 337 984.5 329.5Q972 322 962.5 319.0Q953 316 953 316Q953 316 928.5 315.5Q904 315 872 315Q851 315 837.0 323.5Q823 332 816.0 340.0Q809 348 809 348Z" fill="#2f7889" stroke="none" transform="scale(1,-1) translate(0,-256)" /><path d="M718 359Q735 359 743.0 350.5Q751 342 754 333Q757 327 753.0 321.0Q749 315 742 315H247Q240 315 236.0 320.5Q232 326 234 333Q237 342 245.5 350.5Q254 359 270 359Z" fill="#2f7889" stroke="none" transform="scale(1,-1) translate(0,-256)" /></svg>