<?xml version="1.0" encoding="utf-8" ?>
<svg baseProfile="full" height="256" version="1.1" width="256" xmlns="http://www.w3.org/2000/svg" xmlns:ev="http://www.w3.org/2001/xml-events" xmlns:xlink="http://www.w3.org/1999/xlink"><defs /><path d="M820 382Q820 376 826.0 361.5Q832 347 852 337Q797 332 792 381L773 875Q773 888 782.5 898.0Q792 908 805 908H815Q812 905 806.5 897.5Q801 890 801 876Q801 871 802.0 842.5Q803 814 805.0 769.5Q807 725 809.0 673.5Q811 622 813.0 570.5Q815 519 816.5 476.5Q818 434 819.0 408.0Q820 382 820 382Z" fill="#b7d5e5" stroke="none" transform="scale(1,-1) translate(0,-256)" /><path d="M335 293Q285 293 260.5 303.5Q236 314 248 314H748Q748 314 721.0 303.5Q694 293 636 293Q613 293 575.5 293.0Q538 293 496.5 293.0Q455 293 418.5 293.0Q382 293 358.5 293.0Q335 293 335 293Z" fill="#b7d5e5" stroke="none" transform="scale(1,-1) translate(0,-256)" /><path d="M972 316Q984 316 991.5 305.0Q999 294 999 260Q999 246 990.0 219.5Q981 193 941 155Q923 139 904.5 119.0Q886 99 874.0 75.0Q862 51 864 23Q866 7 871.5 -23.0Q877 -53 883.0 -84.5Q889 -116 894.0 -138.0Q899 -160 899 -160Q901 -171 901.5 -177.0Q902 -183 902 -183Q901 -207 879 -207H704Q704 -207 716.0 -200.5Q728 -194 738.0 -181.5Q748 -169 744 -150Q743 -144 739.0 -123.5Q735 -103 729.5 -75.5Q724 -48 719.0 -21.5Q714 5 711.0 22.5Q708 40 708 40Q700 68 703.5 86.0Q707 104 718.5 119.5Q730 135 747 155Q773 185 779.0 214.5Q785 244 784 274Q784 291 796.0 303.5Q808 316 825 316Z" fill="#b7d5e5" stroke="none" transform="scale(1,-1) translate(0,-256)" /><path d="M349 -125Q347 -131 352.0 -129.0Q357 -127 360 -121Q368 -105 383.0 -79.0Q398 -53 412.0 -20.0Q426 13 429 50Q431 68 414 76Q394 85 356.0 111.0Q318 137 277 189Q277 189 274.5 191.5Q272 194 269 193Q266 192 267.5 188.5Q269 185 269 185Q281 165 301.0 139.0Q321 113 345.0 89.5Q369 66 393 55Q397 16 388.0 -17.5Q379 -51 366.5 -78.5Q354 -106 349 -125Z" fill="#b7d5e5" stroke="none" transform="scale(1,-1) translate(0,-256)" /></svg>