<?xml version="1.0" encoding="utf-8" ?>
<svg baseProfile="full" height="256" version="1.1" width="256" xmlns="http://www.w3.org/2000/svg" xmlns:ev="http://www.w3.org/2001/xml-events" xmlns:xlink="http://www.w3.org/1999/xlink"><defs /><path d="M333 690Q327 691 320.0 700.0Q313 709 299 715Q284 720 271.0 717.0Q258 714 258 714Q258 714 260.5 705.5Q263 697 266 690Q268 683 273.5 671.5Q279 660 279 660Q279 660 282.5 660.5Q286 661 292 659Q297 658 304.0 651.0Q311 644 311 644Q311 644 322.5 654.0Q334 664 350 659Q364 655 370.0 646.0Q376 637 377.0 629.0Q378 621 378 621Q378 621 371.5 618.0Q365 615 350 610Q336 605 331.0 610.0Q326 615 328 621Q331 627 345.0 632.5Q359 638 359 638Q359 638 353.0 644.5Q347 651 337 649Q331 648 321.0 638.0Q311 628 311 628Q311 628 304.5 636.0Q298 644 291 648Q282 652 276.5 646.5Q271 641 271 641Q271 641 280.0 634.5Q289 628 292 625Q295 622 294.5 617.5Q294 613 287 610Q279 607 269.0 617.0Q259 627 257 624Q254 621 248.0 613.0Q242 605 240 593Q232 544 272 512Q289 499 309.5 492.0Q330 485 346.5 483.5Q363 482 368 484Q373 486 380.0 501.5Q387 517 395.5 539.5Q404 562 413 584Q422 605 437.5 630.0Q453 655 465.0 673.5Q477 692 477 692Q477 692 471.5 700.5Q466 709 451.5 718.0Q437 727 408 728Q380 729 365.5 719.0Q351 709 344.5 699.0Q338 689 333 690Z" fill="#aeaeaf" stroke="none" transform="scale(1,-1) translate(0,-256)" /></svg>