<?xml version="1.0" encoding="utf-8" ?>
<svg baseProfile="full" height="256" version="1.1" width="256" xmlns="http://www.w3.org/2000/svg" xmlns:ev="http://www.w3.org/2001/xml-events" xmlns:xlink="http://www.w3.org/1999/xlink"><defs /><path d="M452 699 337 671Q337 671 324.5 672.5Q312 674 295.5 679.5Q279 685 268 696Q262 701 260.0 707.5Q258 714 258 719Q255 730 268.5 734.0Q282 738 300.5 739.0Q319 740 333 741Q346 741 369.0 742.0Q392 743 413.0 741.5Q434 740 444 735Q457 727 455.5 718.5Q454 710 452 699Z" fill="#44494e" stroke="none" transform="scale(1,-1) translate(0,-256)" /><path d="M809 520 612 323Q612 323 620.5 299.0Q629 275 642.0 240.5Q655 206 670.5 171.5Q686 137 701.0 115.0Q716 93 728 96Q738 98 745.5 120.0Q753 142 758.5 170.5Q764 199 767.5 224.0Q771 249 772 259Q772 266 782.5 281.5Q793 297 804.0 320.5Q815 344 817 376Q820 405 817.5 439.0Q815 473 812.0 496.5Q809 520 809 520Z" fill="#44494e" stroke="none" transform="scale(1,-1) translate(0,-256)" /></svg>