<?xml version="1.0" encoding="utf-8" ?>
<svg baseProfile="full" height="256" version="1.1" width="256" xmlns="http://www.w3.org/2000/svg" xmlns:ev="http://www.w3.org/2001/xml-events" xmlns:xlink="http://www.w3.org/1999/xlink"><defs /><path d="M560 679Q560 679 566.5 660.0Q573 641 575 611Q576 591 561.5 563.5Q547 536 529.0 502.0Q511 468 503 428Q497 397 494.5 362.5Q492 328 492.0 297.0Q492 266 492.5 246.5Q493 227 493 227Q493 227 485.0 203.5Q477 180 481 116Q484 73 494.5 38.5Q505 4 515.5 -25.0Q526 -54 527 -81Q527 -109 519.5 -124.0Q512 -139 505.0 -152.5Q498 -166 501 -189Q502 -202 520.5 -207.0Q539 -212 566.5 -212.0Q594 -212 624 -212Q668 -211 683.0 -198.0Q698 -185 690 -166Q685 -152 672.5 -143.0Q660 -134 650.0 -124.5Q640 -115 642 -98Q643 -86 654.5 -59.0Q666 -32 682.5 1.0Q699 34 713.5 66.0Q728 98 735 121Q744 151 746.5 185.5Q749 220 748.5 244.5Q748 269 748 269Q748 269 759.5 289.0Q771 309 784.5 346.5Q798 384 806 437Q816 515 792.5 568.5Q769 622 724 663Q694 690 667.0 698.5Q640 707 622.5 707.0Q605 707 605 707Q605 707 599.5 700.5Q594 694 586 690Q576 685 568.0 682.0Q560 679 560 679Z" fill="#5d6265" stroke="none" transform="scale(1,-1) translate(0,-256)" /><path d="M237 -130Q239 -146 254.0 -165.5Q269 -185 284 -193Q262 -192 243.0 -187.5Q224 -183 213 -173Q205 -166 201.5 -148.0Q198 -130 197.5 -109.0Q197 -88 197.5 -71.0Q198 -54 198 -48Q198 -40 188.5 -10.0Q179 20 169.5 58.5Q160 97 159 130Q157 163 166.0 188.0Q175 213 184.0 234.5Q193 256 195 277Q196 298 190.0 325.0Q184 352 178.5 389.5Q173 427 175 478Q176 507 184.0 529.0Q192 551 202 566Q193 544 191.5 516.5Q190 489 195 472Q201 445 213.5 420.5Q226 396 235 370Q262 294 247 214Q242 225 236.5 236.0Q231 247 226 258Q233 235 226.0 210.0Q219 185 212 162Q200 125 197.0 87.0Q194 49 212 13Q219 0 227.0 -12.5Q235 -25 241 -39Q248 -55 245.5 -69.5Q243 -84 239.0 -98.5Q235 -113 237 -130Z" fill="#5d6265" stroke="none" transform="scale(1,-1) translate(0,-256)" /></svg>