<?xml version="1.0" encoding="utf-8" ?>
<svg baseProfile="full" height="256" version="1.1" width="256" xmlns="http://www.w3.org/2000/svg" xmlns:ev="http://www.w3.org/2001/xml-events" xmlns:xlink="http://www.w3.org/1999/xlink"><defs /><path d="M824 -17Q836 -21 845 -13Q854 -5 850 7Q836 42 805.5 71.0Q775 100 733.5 117.0Q692 134 644 134Q597 134 555.5 117.0Q514 100 483.5 71.0Q453 42 439 6Q435 -5 444 -13Q453 -21 464 -17Q469 -15 473 -11Q474 -10 476.0 -8.0Q478 -6 479 -5Q527 41 588.0 55.5Q649 70 709.5 53.0Q770 36 816 -11Q819 -15 824 -17Z" fill="#422b0d" stroke="none" transform="scale(1,-1) translate(0,-256)" /></svg>