<?xml version="1.0" encoding="utf-8" ?>
<svg baseProfile="full" height="256" version="1.1" width="256" xmlns="http://www.w3.org/2000/svg" xmlns:ev="http://www.w3.org/2001/xml-events" xmlns:xlink="http://www.w3.org/1999/xlink"><defs /><path d="M580 -188V-133Q580 -122 574 -124Q549 -131 521.0 -135.0Q493 -139 456 -139Q425 -140 399.5 -135.5Q374 -131 361 -126Q351 -123 351 -135V-189Q351 -196 358 -198Q369 -201 397.5 -206.5Q426 -212 460 -212Q494 -212 527.0 -206.5Q560 -201 573 -197Q580 -196 580 -188Z" fill="#64b5f6" stroke="none" transform="scale(1,-1) translate(0,-256)" /><path d="M694.531005859375 -188.0V-133.0Q694.531005859375 -122.0 700.531005859375 -124.0Q725.531005859375 -131.0 753.531005859375 -135.0Q781.531005859375 -139.0 818.531005859375 -139.0Q849.531005859375 -140.0 875.031005859375 -135.5Q900.531005859375 -131.0 913.531005859375 -126.0Q923.531005859375 -123.0 923.531005859375 -135.0V-189.0Q923.531005859375 -196.0 916.531005859375 -198.0Q905.531005859375 -201.0 877.031005859375 -206.5Q848.531005859375 -212.0 814.531005859375 -212.0Q780.531005859375 -212.0 747.531005859375 -206.5Q714.531005859375 -201.0 701.531005859375 -197.0Q694.531005859375 -196.0 694.531005859375 -188.0Z" fill="#64b5f6" stroke="none" transform="scale(1,-1) translate(0,-256)" /></svg>