<?xml version="1.0" encoding="utf-8" ?>
<svg baseProfile="full" height="256" version="1.1" width="256" xmlns="http://www.w3.org/2000/svg" xmlns:ev="http://www.w3.org/2001/xml-events" xmlns:xlink="http://www.w3.org/1999/xlink"><defs /><path d="M360 -21Q360 -2 347.0 11.0Q334 24 315 24Q296 24 283.0 11.0Q270 -2 270 -21Q270 -40 283.0 -53.0Q296 -66 315 -66Q334 -66 347.0 -53.0Q360 -40 360 -21Z" fill="#fcb900" stroke="none" transform="scale(1,-1) translate(0,-256)" /><path d="M1024 13Q1024 37 1007.0 54.0Q990 71 966 71Q942 71 925.0 54.0Q908 37 908 13Q908 -12 924.0 -28.0Q940 -44 966 -46Q990 -47 1007.0 -29.5Q1024 -12 1024 13Z" fill="#fcb900" stroke="none" transform="scale(1,-1) translate(0,-256)" /></svg>