<?xml version="1.0" encoding="utf-8" ?>
<svg baseProfile="full" height="256" version="1.1" width="256" xmlns="http://www.w3.org/2000/svg" xmlns:ev="http://www.w3.org/2001/xml-events" xmlns:xlink="http://www.w3.org/1999/xlink"><defs /><path d="M433 136Q433 136 439.5 131.0Q446 126 454 119Q461 111 466.5 104.0Q472 97 472 97Q472 97 465.0 92.0Q458 87 450.5 82.0Q443 77 442 77Q442 77 438.0 82.5Q434 88 428 93Q423 98 418.0 101.5Q413 105 413 106Q413 106 418.0 114.0Q423 122 428.0 129.0Q433 136 433 136Z" fill="#8e736e" stroke="none" transform="scale(1,-1) translate(0,-256)" /><path d="M494 57Q494 57 497.5 49.0Q501 41 504 30Q507 21 507.5 11.0Q508 1 508 1Q508 1 499.5 0.5Q491 0 482.5 -0.5Q474 -1 473 0Q472 1 471.5 7.5Q471 14 469 21Q467 28 465.0 34.5Q463 41 464 42Q464 43 471.5 46.5Q479 50 486.5 53.5Q494 57 494 57Z" fill="#8e736e" stroke="none" transform="scale(1,-1) translate(0,-256)" /><path d="M508 -42Q508 -42 506.5 -51.0Q505 -60 503 -69Q500 -78 497.5 -85.0Q495 -92 495 -92Q495 -92 487.0 -88.5Q479 -85 471.5 -81.0Q464 -77 464 -76Q463 -75 465.5 -69.0Q468 -63 469 -58Q471 -54 473.0 -45.5Q475 -37 475 -36Q475 -36 483.5 -37.0Q492 -38 500.0 -40.0Q508 -42 508 -42Z" fill="#8e736e" stroke="none" transform="scale(1,-1) translate(0,-256)" /><path d="M472 -134Q472 -134 467.5 -140.5Q463 -147 456 -154Q450 -161 442.5 -167.0Q435 -173 435 -173Q435 -173 430.0 -165.5Q425 -158 419.5 -150.5Q414 -143 414 -143Q414 -142 419.5 -137.0Q425 -132 429 -128Q433 -123 438.0 -117.5Q443 -112 444 -112Q445 -112 452.0 -117.5Q459 -123 465.5 -128.5Q472 -134 472 -134Z" fill="#8e736e" stroke="none" transform="scale(1,-1) translate(0,-256)" /><path d="M397 -196Q397 -196 389.0 -199.5Q381 -203 368 -206Q355 -210 348.0 -210.5Q341 -211 341 -211Q341 -211 341.0 -202.0Q341 -193 340.5 -183.5Q340 -174 341 -173Q341 -173 346.5 -172.0Q352 -171 361 -169Q370 -166 376.0 -163.5Q382 -161 383 -161Q384 -162 387.0 -170.5Q390 -179 393.5 -187.5Q397 -196 397 -196Z" fill="#8e736e" stroke="none" transform="scale(1,-1) translate(0,-256)" /><path d="M256 -163Q257 -163 262.5 -165.0Q268 -167 276 -170Q283 -172 289.0 -172.5Q295 -173 296 -173Q297 -174 296.5 -183.5Q296 -193 295.0 -202.5Q294 -212 294 -212Q294 -212 285.5 -211.0Q277 -210 264 -206Q251 -202 244.5 -199.0Q238 -196 238 -196Q238 -196 242.0 -187.5Q246 -179 250.5 -171.0Q255 -163 256 -163Z" fill="#8e736e" stroke="none" transform="scale(1,-1) translate(0,-256)" /><path d="M191 -113Q191 -113 195.0 -118.0Q199 -123 205 -129Q209 -133 215.0 -137.5Q221 -142 221 -143Q221 -144 215.5 -151.0Q210 -158 205.0 -165.0Q200 -172 200 -172Q200 -172 192.5 -166.0Q185 -160 179 -154Q173 -148 167.0 -140.0Q161 -132 161 -132Q161 -132 168.0 -127.0Q175 -122 182.5 -117.5Q190 -113 191 -113Z" fill="#8e736e" stroke="none" transform="scale(1,-1) translate(0,-256)" /><path d="M159 -35Q159 -35 160.5 -41.5Q162 -48 164 -57Q166 -63 169.0 -69.5Q172 -76 171 -77Q171 -78 163.0 -82.0Q155 -86 147.5 -90.0Q140 -94 140 -94Q140 -94 135.5 -85.0Q131 -76 129 -65Q127 -56 125.5 -45.5Q124 -35 124 -35Q124 -35 132.5 -35.0Q141 -35 150.0 -35.0Q159 -35 159 -35Z" fill="#8e736e" stroke="none" transform="scale(1,-1) translate(0,-256)" /><path d="M124 0Q124 0 125.0 8.5Q126 17 128 26Q130 35 133.5 45.0Q137 55 137 55Q137 55 144.5 51.0Q152 47 160.0 43.0Q168 39 169 38Q169 37 166.5 30.0Q164 23 162 17Q161 12 160.0 4.5Q159 -3 159 -3Z" fill="#8e736e" stroke="none" transform="scale(1,-1) translate(0,-256)" /><path d="M162 101Q162 101 167.0 107.5Q172 114 180 122Q188 131 195.5 136.0Q203 141 203 141Q203 141 208.5 133.0Q214 125 219.5 117.5Q225 110 225 109Q225 108 219.0 103.5Q213 99 206 92Q200 86 195.5 80.5Q191 75 190 75Q189 75 182.0 81.5Q175 88 168.5 94.5Q162 101 162 101Z" fill="#8e736e" stroke="none" transform="scale(1,-1) translate(0,-256)" /><path d="M242 162Q242 162 249.0 165.0Q256 168 268 171Q281 174 289.5 174.5Q298 175 298 175Q298 175 298.5 166.0Q299 157 300.0 148.0Q301 139 300 139Q299 138 293.5 137.5Q288 137 277 135Q271 133 264.5 130.5Q258 128 258 128Q257 129 253.5 137.0Q250 145 246.0 153.5Q242 162 242 162Z" fill="#8e736e" stroke="none" transform="scale(1,-1) translate(0,-256)" /><path d="M341 173Q341 173 349.0 172.0Q357 171 370 168Q379 165 388.0 161.0Q397 157 397 157Q397 157 393.0 149.0Q389 141 385.0 133.5Q381 126 380 126Q378 126 372.5 128.0Q367 130 360 132Q353 135 345.5 136.0Q338 137 337 138Q337 139 338.0 147.5Q339 156 340.0 164.5Q341 173 341 173Z" fill="#8e736e" stroke="none" transform="scale(1,-1) translate(0,-256)" /><path d="M913 251Q913 251 921.5 253.5Q930 256 948 257Q967 258 976.0 257.5Q985 257 985 257Q985 257 984.0 246.0Q983 235 981.5 224.0Q980 213 980 213Q979 213 972.0 213.0Q965 213 953 212Q940 211 933.5 210.0Q927 209 926 210Q925 211 922.0 221.0Q919 231 916.0 241.0Q913 251 913 251Z" fill="#8e736e" stroke="none" transform="scale(1,-1) translate(0,-256)" /><path d="M1046 243Q1046 243 1054.5 240.0Q1063 237 1077 229Q1090 221 1097.5 215.5Q1105 210 1105 210Q1105 210 1098.5 202.5Q1092 195 1085.5 187.5Q1079 180 1079 180Q1078 180 1070.5 185.0Q1063 190 1058 194Q1052 197 1042.5 201.5Q1033 206 1033 207Q1033 208 1036.0 217.0Q1039 226 1042.5 234.5Q1046 243 1046 243Z" fill="#8e736e" stroke="none" transform="scale(1,-1) translate(0,-256)" /><path d="M1143 173Q1143 173 1150.0 166.0Q1157 159 1164 149Q1170 140 1174.5 128.5Q1179 117 1179 117Q1179 117 1170.5 114.0Q1162 111 1153.0 108.0Q1144 105 1144 105Q1143 105 1139.0 113.0Q1135 121 1132 126Q1129 131 1123.5 137.5Q1118 144 1119 145Q1119 146 1125.0 153.0Q1131 160 1137.0 166.5Q1143 173 1143 173Z" fill="#8e736e" stroke="none" transform="scale(1,-1) translate(0,-256)" /><path d="M1196 70Q1196 70 1198.0 58.5Q1200 47 1201 32Q1202 17 1201.0 7.5Q1200 -2 1200 -2Q1200 -2 1189.5 -1.0Q1179 0 1168.5 1.5Q1158 3 1158 3Q1158 4 1158.5 13.5Q1159 23 1158 31Q1158 41 1157.0 49.5Q1156 58 1156 59Q1157 60 1166.5 62.5Q1176 65 1186.0 67.5Q1196 70 1196 70Z" fill="#8e736e" stroke="none" transform="scale(1,-1) translate(0,-256)" /><path d="M1190 -52Q1190 -52 1187.0 -62.0Q1184 -72 1179 -82Q1174 -93 1168.0 -101.0Q1162 -109 1162 -109Q1162 -109 1153.5 -102.5Q1145 -96 1136.0 -89.5Q1127 -83 1127 -83Q1127 -82 1131.0 -75.0Q1135 -68 1139 -61Q1143 -54 1146.0 -46.5Q1149 -39 1150 -39Q1151 -39 1161.0 -42.5Q1171 -46 1180.5 -49.0Q1190 -52 1190 -52Z" fill="#8e736e" stroke="none" transform="scale(1,-1) translate(0,-256)" /><path d="M1126 -152Q1126 -152 1120.0 -158.5Q1114 -165 1100 -174Q1086 -184 1077.0 -188.0Q1068 -192 1068 -192Q1068 -192 1063.5 -182.5Q1059 -173 1055.0 -163.0Q1051 -153 1052 -153Q1052 -152 1060.0 -147.5Q1068 -143 1074 -138Q1081 -134 1087.0 -128.0Q1093 -122 1094 -122Q1094 -121 1102.0 -129.0Q1110 -137 1118.0 -144.5Q1126 -152 1126 -152Z" fill="#8e736e" stroke="none" transform="scale(1,-1) translate(0,-256)" /><path d="M952 -215Q952 -215 961.5 -216.0Q971 -217 985 -216Q999 -215 1011.0 -212.0Q1023 -209 1023 -209Q1023 -209 1020.0 -199.0Q1017 -189 1014.0 -179.5Q1011 -170 1010 -169Q1009 -169 1001.0 -170.5Q993 -172 986 -173Q978 -174 969.5 -173.5Q961 -173 961 -173Z" fill="#8e736e" stroke="none" transform="scale(1,-1) translate(0,-256)" /><path d="M873 -152Q874 -152 880.5 -155.5Q887 -159 895 -162Q903 -165 912.0 -167.5Q921 -170 921 -170L911 -209Q911 -209 900.5 -207.0Q890 -205 877 -199Q864 -194 857.0 -190.0Q850 -186 850 -186Q850 -186 855.5 -177.5Q861 -169 867.0 -160.5Q873 -152 873 -152Z" fill="#8e736e" stroke="none" transform="scale(1,-1) translate(0,-256)" /><path d="M798 -80Q799 -81 802.5 -87.0Q806 -93 811 -100Q817 -107 824.0 -114.0Q831 -121 831 -122Q831 -122 824.0 -129.5Q817 -137 810.5 -144.5Q804 -152 804 -152Q804 -152 796.5 -144.5Q789 -137 782 -128Q774 -118 768.0 -108.5Q762 -99 762 -99Q762 -99 771.0 -94.5Q780 -90 789.0 -85.0Q798 -80 798 -80Z" fill="#8e736e" stroke="none" transform="scale(1,-1) translate(0,-256)" /><path d="M737 -39Q737 -39 734.5 -29.0Q732 -19 731 -6Q730 3 730.0 12.5Q730 22 730 22Q730 22 740.5 21.5Q751 21 761.5 20.5Q772 20 772 20Q772 19 772.5 10.0Q773 1 773 -5Q774 -12 776.0 -21.0Q778 -30 777 -30Q777 -31 767.0 -33.0Q757 -35 747.0 -37.0Q737 -39 737 -39Z" fill="#8e736e" stroke="none" transform="scale(1,-1) translate(0,-256)" /><path d="M739 83Q739 83 741.0 91.0Q743 99 748 111Q753 124 759.0 133.5Q765 143 765 143Q765 143 774.0 136.5Q783 130 792.0 123.0Q801 116 801 116Q801 115 797.0 108.5Q793 102 789 94Q785 86 783.5 79.5Q782 73 781 73Q781 73 770.0 75.5Q759 78 749.0 80.5Q739 83 739 83Z" fill="#8e736e" stroke="none" transform="scale(1,-1) translate(0,-256)" /><path d="M805 193Q805 193 811.5 199.5Q818 206 829 214Q838 221 848.5 226.5Q859 232 859 232Q859 232 864.0 222.5Q869 213 874.5 203.0Q880 193 880 193Q880 192 873.0 188.0Q866 184 858 179Q851 173 844.5 168.5Q838 164 837 164Q836 164 828.0 171.0Q820 178 812.5 185.5Q805 193 805 193Z" fill="#8e736e" stroke="none" transform="scale(1,-1) translate(0,-256)" /></svg>