<?xml version="1.0" encoding="utf-8" ?>
<svg baseProfile="full" height="256" version="1.1" width="256" xmlns="http://www.w3.org/2000/svg" xmlns:ev="http://www.w3.org/2001/xml-events" xmlns:xlink="http://www.w3.org/1999/xlink"><defs /><path d="M1200 19Q1200 84 1168.0 138.0Q1136 192 1082.5 224.0Q1029 256 964 257Q900 257 847.0 224.5Q794 192 762.5 138.0Q731 84 730 19Q730 -46 761.5 -99.0Q793 -152 846.5 -184.0Q900 -216 965 -216Q1030 -216 1083.5 -184.0Q1137 -152 1168.5 -99.0Q1200 -46 1200 19Z" fill="#302f2f" stroke="none" transform="scale(1,-1) translate(0,-256)" /><path d="M509 -20Q509 34 484.5 77.5Q460 121 416.5 147.0Q373 173 317 175Q263 177 219.5 151.5Q176 126 150.0 82.0Q124 38 124 -16Q124 -70 150.0 -114.5Q176 -159 219.5 -186.0Q263 -213 317 -213Q371 -213 414.5 -187.0Q458 -161 483.5 -117.0Q509 -73 509 -20Z" fill="#302f2f" stroke="none" transform="scale(1,-1) translate(0,-256)" /></svg>