<?xml version="1.0" encoding="utf-8" ?>
<svg baseProfile="full" height="256" version="1.1" width="256" xmlns="http://www.w3.org/2000/svg" xmlns:ev="http://www.w3.org/2001/xml-events" xmlns:xlink="http://www.w3.org/1999/xlink"><defs /><path d="M488 386 427 375Q427 375 427.0 396.5Q427 418 427.0 450.0Q427 482 427.0 515.0Q427 548 427.0 571.5Q427 595 427 598Q428 606 434.5 607.5Q441 609 441 609Q441 609 441.5 620.0Q442 631 439 647Q436 663 427.0 672.0Q418 681 415 687Q412 694 424.0 705.0Q436 716 442 717Q453 720 469 699Q477 689 482.5 669.0Q488 649 488 622Q488 611 488.0 584.0Q488 557 488.0 523.5Q488 490 488.0 458.5Q488 427 488.0 406.5Q488 386 488 386Z" fill="#5e6268" stroke="none" transform="scale(1,-1) translate(0,-256)" /><path d="M676 668 1065 654Q1065 654 1066.5 632.5Q1068 611 1070.5 575.5Q1073 540 1077 497Q1079 465 1081.0 431.0Q1083 397 1084.5 368.0Q1086 339 1087.0 321.0Q1088 303 1088 303L1172 256L1193 206H1111L806 -56Q806 -56 788.5 -56.5Q771 -57 744.5 -57.5Q718 -58 689.5 -58.5Q661 -59 638 -59Q610 -59 577.5 -60.0Q545 -61 522.5 -61.5Q500 -62 500 -62Q500 -62 473.5 -61.5Q447 -61 406.0 -60.0Q365 -59 318.0 -58.0Q271 -57 229.5 -55.5Q188 -54 160.5 -53.0Q133 -52 132 -51Q129 -50 117.5 -44.0Q106 -38 91.5 -30.5Q77 -23 66.5 -17.0Q56 -11 56 -9Q56 -8 55.5 4.5Q55 17 54.0 33.5Q53 50 53.0 63.5Q53 77 53 81Q53 85 65.5 93.0Q78 101 95.5 109.0Q113 117 127.5 122.0Q142 127 144 125Q147 123 147.5 111.5Q148 100 147.5 88.5Q147 77 147 77L263 130L273 221Q273 221 288.5 223.5Q304 226 326.5 230.5Q349 235 372.0 239.0Q395 243 411.0 246.0Q427 249 428 250Q429 250 443.0 256.5Q457 263 477.0 272.0Q497 281 517.0 290.0Q537 299 550.5 305.5Q564 312 564 312Z" fill="#5e6268" stroke="none" transform="scale(1,-1) translate(0,-256)" /></svg>