<?xml version="1.0" encoding="utf-8" ?>
<svg baseProfile="full" height="256" version="1.1" width="256" xmlns="http://www.w3.org/2000/svg" xmlns:ev="http://www.w3.org/2001/xml-events" xmlns:xlink="http://www.w3.org/1999/xlink"><defs /><path d="M425 721Q493 759 568.0 773.0Q643 787 718.0 773.0Q793 759 861.0 713.0Q929 667 983 585Q989 576 998.0 559.5Q1007 543 1021.5 533.5Q1036 524 1058 535Q1068 540 1077.5 559.5Q1087 579 1069 620Q1044 678 994.0 729.0Q944 780 876.0 816.0Q808 852 729.0 868.0Q650 884 566.0 873.5Q482 863 400 820Q314 774 256.0 711.5Q198 649 164.0 576.0Q130 503 119.0 427.0Q108 351 116.5 277.5Q125 204 151 141Q156 130 167.5 114.5Q179 99 194.5 90.5Q210 82 227 90Q251 103 251.0 129.0Q251 155 239 191Q213 265 212.0 341.0Q211 417 234.0 488.5Q257 560 304.5 620.0Q352 680 425 721Z" fill="#707070" stroke="none" transform="scale(1,-1) translate(0,-256)" /><path d="M1061 494Q1083 501 1102.5 486.0Q1122 471 1126 441Q1134 383 1096 369Q1078 363 1058.5 369.0Q1039 375 1028 403Q1018 431 1026.0 458.5Q1034 486 1061 494Z" fill="#707070" stroke="none" transform="scale(1,-1) translate(0,-256)" /></svg>