<?xml version="1.0" encoding="utf-8" ?>
<svg baseProfile="full" height="256" version="1.1" width="256" xmlns="http://www.w3.org/2000/svg" xmlns:ev="http://www.w3.org/2001/xml-events" xmlns:xlink="http://www.w3.org/1999/xlink"><defs /><path d="M631 -5Q688 -5 740.0 12.0Q792 29 833.5 57.5Q875 86 903 118Q923 143 941.5 182.5Q960 222 971.0 271.0Q982 320 980.0 373.5Q978 427 958.0 481.0Q938 535 895 584Q798 694 665 700Q611 703 563.0 690.0Q515 677 477.5 656.5Q440 636 417 614Q356 558 325.5 485.0Q295 412 297 331Q300 254 333.0 185.0Q366 116 422 71Q473 30 526.5 12.5Q580 -5 631 -5ZM647 611Q653 611 659 611Q757 606 829 525Q869 479 883.0 428.0Q897 377 892.0 328.0Q887 279 870.5 239.0Q854 199 835 176Q814 151 775.0 127.0Q736 103 687.0 91.5Q638 80 583.5 89.5Q529 99 477 141Q436 174 411.5 225.5Q387 277 385 335Q381 460 475 547Q501 572 547.5 591.5Q594 611 647 611Z" fill="#676c70" stroke="none" transform="scale(1,-1) translate(0,-256)" /></svg>