<?xml version="1.0" encoding="utf-8" ?>
<svg baseProfile="full" height="256" version="1.1" width="256" xmlns="http://www.w3.org/2000/svg" xmlns:ev="http://www.w3.org/2001/xml-events" xmlns:xlink="http://www.w3.org/1999/xlink"><defs /><path d="M263 213 565 -100 874 -9 1006 416 1099 668Q1099 668 1112.0 650.0Q1125 632 1143.0 596.0Q1161 560 1176.0 507.0Q1191 454 1196.0 383.5Q1201 313 1187 226Q1176 155 1140.5 79.0Q1105 3 1039.5 -62.5Q974 -128 874 -168Q771 -209 671.0 -212.5Q571 -216 485.0 -193.5Q399 -171 337 -133Q275 -96 232.5 -47.5Q190 1 163.5 47.0Q137 93 125.5 123.0Q114 153 114 153Z" fill="#5e5e5e" stroke="none" transform="scale(1,-1) translate(0,-256)" /></svg>