<?xml version="1.0" encoding="utf-8" ?>
<svg baseProfile="full" height="256" version="1.1" width="256" xmlns="http://www.w3.org/2000/svg" xmlns:ev="http://www.w3.org/2001/xml-events" xmlns:xlink="http://www.w3.org/1999/xlink"><defs /><path d="M341 218 313 285 529 324 544 276Z" fill="#858585" stroke="none" transform="scale(1,-1) translate(0,-256)" /><path d="M674 226H630L613 19L671 16Z" fill="#858585" stroke="none" transform="scale(1,-1) translate(0,-256)" /><path d="M728 256 739 299 914 160 888 126Z" fill="#858585" stroke="none" transform="scale(1,-1) translate(0,-256)" /><path d="M723 403 890 554 927 488 757 380Z" fill="#858585" stroke="none" transform="scale(1,-1) translate(0,-256)" /><path d="M508 646 601 478 544 440 428 601Z" fill="#858585" stroke="none" transform="scale(1,-1) translate(0,-256)" /></svg>