<?xml version="1.0" encoding="utf-8" ?>
<svg baseProfile="full" height="256" version="1.1" width="256" xmlns="http://www.w3.org/2000/svg" xmlns:ev="http://www.w3.org/2001/xml-events" xmlns:xlink="http://www.w3.org/1999/xlink"><defs /><path d="M636 -182Q728 -182 807.5 -158.0Q887 -134 951.0 -92.0Q1015 -50 1059 2Q1092 42 1119.5 104.0Q1147 166 1163.5 241.0Q1180 316 1179.0 395.5Q1178 475 1155.5 551.5Q1133 628 1083 692Q1029 761 975.0 803.0Q921 845 867.5 867.5Q814 890 761.0 899.0Q708 908 655 911Q568 915 492.5 894.0Q417 873 358.0 838.5Q299 804 261 769Q163 679 118.5 566.5Q74 454 78 324Q82 199 135.5 105.0Q189 11 279 -62Q334 -106 395.5 -132.5Q457 -159 518.5 -170.5Q580 -182 636 -182ZM649 682Q658 682 665 681Q788 675 880 572Q931 514 948.0 449.0Q965 384 959.0 322.0Q953 260 932.5 210.0Q912 160 887 131Q866 105 830.0 80.0Q794 55 747.5 37.5Q701 20 649.0 16.0Q597 12 542.0 27.5Q487 43 434 86Q382 128 351.0 193.0Q320 258 317 332Q315 408 344.0 477.5Q373 547 431 601Q465 632 523.5 657.0Q582 682 649 682Z" fill="#464646" stroke="none" transform="scale(1,-1) translate(0,-256)" /></svg>