<?xml version="1.0" encoding="utf-8" ?>
<svg baseProfile="full" height="256" version="1.1" width="256" xmlns="http://www.w3.org/2000/svg" xmlns:ev="http://www.w3.org/2001/xml-events" xmlns:xlink="http://www.w3.org/1999/xlink"><defs /><path d="M656 446Q667 446 674.0 437.5Q681 429 681 420Q681 410 672.5 403.0Q664 396 655 396Q647 396 639.0 403.0Q631 410 630 421Q630 431 637.5 438.5Q645 446 656 446Z" fill="#5e6367" stroke="none" transform="scale(1,-1) translate(0,-256)" /><path d="M714 375Q725 375 732.5 368.0Q740 361 740 352Q739 343 733.0 334.5Q727 326 715 326Q704 325 697.5 333.5Q691 342 690 350Q690 358 696.0 366.5Q702 375 714 375Z" fill="#5e6367" stroke="none" transform="scale(1,-1) translate(0,-256)" /><path d="M679 294Q691 293 697.5 285.0Q704 277 704 266Q704 255 696.0 249.0Q688 243 679 243Q671 243 661.5 249.5Q652 256 653 269Q653 279 660.0 286.5Q667 294 679 294Z" fill="#5e6367" stroke="none" transform="scale(1,-1) translate(0,-256)" /><path d="M578 311Q589 312 596.5 304.5Q604 297 604 287Q604 276 597.5 268.5Q591 261 580 261Q568 261 562.0 269.0Q556 277 555 285Q555 295 561.0 303.0Q567 311 578 311Z" fill="#5e6367" stroke="none" transform="scale(1,-1) translate(0,-256)" /><path d="M567 411Q581 412 587.0 403.5Q593 395 593 384Q593 374 585.5 366.5Q578 359 568 359Q558 359 549.5 366.5Q541 374 542 386Q542 395 548.5 403.0Q555 411 567 411Z" fill="#5e6367" stroke="none" transform="scale(1,-1) translate(0,-256)" /></svg>