<?xml version="1.0" encoding="utf-8" ?>
<svg baseProfile="full" height="256" version="1.1" width="256" xmlns="http://www.w3.org/2000/svg" xmlns:ev="http://www.w3.org/2001/xml-events" xmlns:xlink="http://www.w3.org/1999/xlink"><defs /><path d="M631 -35Q634 -35 647.0 -35.0Q660 -35 677.5 -32.0Q695 -29 710 -18Q719 -12 723.0 -1.0Q727 10 727 22Q727 32 721.5 43.5Q716 55 700 66Q700 66 709.0 71.0Q718 76 727.5 86.5Q737 97 737 115Q737 141 715 153Q705 159 690.0 168.0Q675 177 665 183Q660 186 644.0 186.5Q628 187 613.0 186.0Q598 185 593 186Q613 173 636.5 161.5Q660 150 677 140Q699 127 696.0 112.5Q693 98 681 95Q675 93 668.5 91.0Q662 89 655 87Q636 84 636 69Q635 54 653 49Q670 44 680.0 37.5Q690 31 690 22Q690 14 679.5 8.5Q669 3 636 3Q617 3 615 -14Q614 -21 618.5 -27.5Q623 -34 631 -35Z" fill="#000000" stroke="none" transform="scale(1,-1) translate(0,-256)" /><path d="M554.6706085205078 98.08427429199219Q554.6706085205078 127.64183044433594 543.5865249633789 153.63209533691406Q532.50244140625 179.6223602294922 512.7549362182617 199.36986541748047Q493.00743103027344 219.11737060546875 467.0171661376953 230.328857421875Q441.0269012451172 241.54034423828125 411.46934509277344 241.54034423828125Q381.656982421875 241.54034423828125 355.6667175292969 230.328857421875Q329.67645263671875 219.11737060546875 309.92894744873047 199.36986541748047Q290.1814422607422 179.6223602294922 279.0973587036133 153.63209533691406Q268.0132751464844 127.64183044433594 268.0132751464844 98.08427429199219Q268.0132751464844 68.52671813964844 279.0973587036133 42.53645324707031Q290.1814422607422 16.546188354492188 309.92894744873047 -3.2013168334960938Q329.67645263671875 -22.948822021484375 355.6667175292969 -34.03290557861328Q381.656982421875 -45.11698913574219 411.46934509277344 -45.11698913574219Q441.0269012451172 -45.11698913574219 467.0171661376953 -34.03290557861328Q493.00743103027344 -22.948822021484375 512.7549362182617 -3.2013168334960938Q532.50244140625 16.546188354492188 543.5865249633789 42.53645324707031Q554.6706085205078 68.52671813964844 554.6706085205078 98.08427429199219Z" fill="#000000" stroke="none" transform="scale(1,-1) translate(0,-256)" /><path d="M1016.2956085205078 98.08427429199219Q1016.2956085205078 127.64183044433594 1005.2115249633789 153.63209533691406Q994.12744140625 179.6223602294922 974.3799362182617 199.36986541748047Q954.6324310302734 219.11737060546875 928.6421661376953 230.328857421875Q902.6519012451172 241.54034423828125 873.0943450927734 241.54034423828125Q843.281982421875 241.54034423828125 817.2917175292969 230.328857421875Q791.3014526367188 219.11737060546875 771.5539474487305 199.36986541748047Q751.8064422607422 179.6223602294922 740.7223587036133 153.63209533691406Q729.6382751464844 127.64183044433594 729.6382751464844 98.08427429199219Q729.6382751464844 68.52671813964844 740.7223587036133 42.53645324707031Q751.8064422607422 16.546188354492188 771.5539474487305 -3.2013168334960938Q791.3014526367188 -22.948822021484375 817.2917175292969 -34.03290557861328Q843.281982421875 -45.11698913574219 873.0943450927734 -45.11698913574219Q902.6519012451172 -45.11698913574219 928.6421661376953 -34.03290557861328Q954.6324310302734 -22.948822021484375 974.3799362182617 -3.2013168334960938Q994.12744140625 16.546188354492188 1005.2115249633789 42.53645324707031Q1016.2956085205078 68.52671813964844 1016.2956085205078 98.08427429199219Z" fill="#000000" stroke="none" transform="scale(1,-1) translate(0,-256)" /></svg>