<?xml version="1.0" encoding="utf-8" ?>
<svg baseProfile="full" height="256" version="1.1" width="256" xmlns="http://www.w3.org/2000/svg" xmlns:ev="http://www.w3.org/2001/xml-events" xmlns:xlink="http://www.w3.org/1999/xlink"><defs /><path d="M719 279 717 63 543 48Q543 48 543.0 67.5Q543 87 542.5 113.0Q542 139 542.0 160.0Q542 181 542 185Q542 191 546.5 203.5Q551 216 551 216Q551 216 540.0 216.0Q529 216 521 216Q518 216 512.0 223.0Q506 230 506 246Q506 275 511 279Q512 280 533.0 280.0Q554 280 585.0 280.0Q616 280 646.5 280.0Q677 280 698.0 279.5Q719 279 719 279Z" fill="#2f7c31" stroke="none" transform="scale(1,-1) translate(0,-256)" /><path d="M947 278 993 134 875 49 845 61Q845 61 845.0 77.0Q845 93 845.0 114.5Q845 136 845.5 154.0Q846 172 846 175Q846 188 846.5 199.0Q847 210 847 210L814 211Q814 211 808.5 220.5Q803 230 803 244Q802 258 807.0 266.5Q812 275 812 275Z" fill="#2f7c31" stroke="none" transform="scale(1,-1) translate(0,-256)" /><path d="M819 -57Q819 -57 846.0 -57.5Q873 -58 916.0 -58.5Q959 -59 1007.0 -60.0Q1055 -61 1098.0 -61.5Q1141 -62 1169.0 -62.0Q1197 -62 1198 -61Q1199 -60 1199.0 -37.0Q1199 -14 1192.0 19.0Q1185 52 1165.0 84.5Q1145 117 1107.5 138.5Q1070 160 1008 158Q946 157 908.5 135.0Q871 113 852.0 81.0Q833 49 826.0 17.5Q819 -14 819.0 -35.5Q819 -57 819 -57Z" fill="#2f7c31" stroke="none" transform="scale(1,-1) translate(0,-256)" /><path d="M369 -37Q369 -37 354.5 -20.0Q340 -3 311.0 17.5Q282 38 239 48Q208 55 177.5 51.5Q147 48 121.0 40.5Q95 33 78.5 26.0Q62 19 61 20Q60 21 59.0 47.0Q58 73 71 101Q84 129 119.5 149.0Q155 169 214 161Q248 156 278.5 135.0Q309 114 334.0 85.5Q359 57 377.5 29.5Q396 2 405.0 -17.0Q414 -36 413 -37Q411 -38 400.0 -38.0Q389 -38 379.0 -37.5Q369 -37 369 -37Z" fill="#2f7c31" stroke="none" transform="scale(1,-1) translate(0,-256)" /></svg>