<?xml version="1.0" encoding="utf-8" ?>
<svg baseProfile="full" height="256" version="1.1" width="256" xmlns="http://www.w3.org/2000/svg" xmlns:ev="http://www.w3.org/2001/xml-events" xmlns:xlink="http://www.w3.org/1999/xlink"><defs /><path d="M252 -122Q225 -134 201.0 -123.0Q177 -112 167 -87Q157 -60 169.0 -37.0Q181 -14 205 -4Q229 6 252.0 -5.0Q275 -16 284 -37Q295 -61 286.0 -85.5Q277 -110 252 -122Z" fill="#1c1d1e" stroke="none" transform="scale(1,-1) translate(0,-256)" /><path d="M1039 -3Q1065 -19 1070.0 -47.0Q1075 -75 1059 -98Q1041 -123 1013.0 -126.5Q985 -130 963 -115Q939 -99 935.5 -72.0Q932 -45 944 -25Q960 -1 987.0 6.0Q1014 13 1039 -3Z" fill="#1c1d1e" stroke="none" transform="scale(1,-1) translate(0,-256)" /></svg>