<?xml version="1.0" encoding="utf-8" ?>
<svg baseProfile="full" height="256" version="1.1" width="256" xmlns="http://www.w3.org/2000/svg" xmlns:ev="http://www.w3.org/2001/xml-events" xmlns:xlink="http://www.w3.org/1999/xlink"><defs /><path d="M372 821Q372 821 358.0 816.5Q344 812 323.5 802.5Q303 793 282.0 779.0Q261 765 248 747Q231 724 237.0 712.5Q243 701 251 698Q261 696 273.5 699.5Q286 703 295.5 707.5Q305 712 305 712Q305 712 300.5 702.5Q296 693 294.5 681.5Q293 670 300 664Q313 653 333.0 657.5Q353 662 366 668Q366 668 365.5 659.0Q365 650 371 643Q380 633 398 637Q415 641 428.0 650.0Q441 659 449.0 667.5Q457 676 457 676Q457 676 446.0 670.0Q435 664 421.0 660.0Q407 656 398 660Q387 666 394.5 680.5Q402 695 417 711Q432 727 442.0 743.0Q452 759 452 759Q450 759 439.0 748.5Q428 738 411.5 723.0Q395 708 376 697Q349 682 339.0 687.5Q329 693 334 706Q343 729 361.0 748.0Q379 767 393.0 779.0Q407 791 404 792Q401 793 384.0 781.0Q367 769 345.5 753.5Q324 738 308 728Q302 725 295.0 724.0Q288 723 285 725Q273 733 280.0 743.5Q287 754 290 757Q301 771 320.5 786.0Q340 801 356.0 811.0Q372 821 372 821Z" fill="#bdbdbd" stroke="none" transform="scale(1,-1) translate(0,-256)" /><path d="M444 480Q450 504 456.5 527.0Q463 550 473 572Q479 587 489 601Q486 600 484 599Q460 587 449.5 589.0Q439 591 436.5 600.5Q434 610 437 621Q440 633 450.5 644.5Q461 656 471.5 663.0Q482 670 484 670Q484 670 476.5 659.5Q469 649 463.0 637.0Q457 625 463 619Q471 611 481.5 615.5Q492 620 502.5 628.0Q513 636 520 641Q536 650 546.5 650.5Q557 651 558 647L561 632Q532 594 503.0 556.0Q474 518 444 480Z" fill="#bdbdbd" stroke="none" transform="scale(1,-1) translate(0,-256)" /><path d="M1147 207Q1147 207 1151.5 185.5Q1156 164 1160.0 132.5Q1164 101 1161 70Q1158 41 1140.5 38.0Q1123 35 1113 43Q1093 57 1090.5 74.0Q1088 91 1088 91Q1088 91 1085.0 83.5Q1082 76 1075.0 68.5Q1068 61 1055 60Q1041 60 1034.0 73.5Q1027 87 1024.5 101.5Q1022 116 1022 116Q1022 116 1013.5 108.0Q1005 100 989 108Q975 114 972.0 134.5Q969 155 974 170Q982 194 996.5 209.0Q1011 224 1011 224Q1011 224 1006.0 213.5Q1001 203 996.0 187.5Q991 172 991.0 158.0Q991 144 999 138Q1009 130 1014.5 141.0Q1020 152 1029 178Q1037 203 1048.5 219.0Q1060 235 1060 235Q1061 233 1056.0 217.0Q1051 201 1046.0 178.5Q1041 156 1043 134Q1045 103 1055.5 101.0Q1066 99 1073 110Q1087 131 1093.0 156.0Q1099 181 1101.5 198.0Q1104 215 1106 213Q1109 212 1108.5 197.0Q1108 182 1106.5 161.5Q1105 141 1106 122Q1108 95 1114.0 86.0Q1120 77 1124 76Q1139 74 1142.5 86.0Q1146 98 1147 114Q1149 132 1149.0 153.5Q1149 175 1148.0 191.0Q1147 207 1147 207Z" fill="#bdbdbd" stroke="none" transform="scale(1,-1) translate(0,-256)" /><path d="M929 227Q932 226 929.0 212.0Q926 198 925.5 182.5Q925 167 933 162Q944 155 950.5 160.0Q957 165 961.0 172.0Q965 179 966 178Q968 177 965.5 165.5Q963 154 955.5 143.0Q948 132 934 134Q922 136 917.5 146.0Q913 156 913.0 165.0Q913 174 913 174Q913 174 909.5 167.0Q906 160 898.0 153.0Q890 146 878 148Q873 149 868.5 154.0Q864 159 863 163Q860 181 865.5 194.5Q871 208 873 209Q875 211 873.5 201.5Q872 192 872.5 182.5Q873 173 879 173Q889 172 895.5 178.0Q902 184 905 188Q912 199 918.0 213.5Q924 228 929 227Z" fill="#bdbdbd" stroke="none" transform="scale(1,-1) translate(0,-256)" /></svg>