<?xml version="1.0" encoding="utf-8" ?>
<svg baseProfile="full" height="256" version="1.1" width="256" xmlns="http://www.w3.org/2000/svg" xmlns:ev="http://www.w3.org/2001/xml-events" xmlns:xlink="http://www.w3.org/1999/xlink"><defs /><path d="M647 496Q647 496 654.5 480.0Q662 464 684 433Q705 402 724.5 391.0Q744 380 744 380L696 471Q696 471 684.5 477.0Q673 483 661.0 489.0Q649 495 647 496Z" fill="#b9e4ea" stroke="none" transform="scale(1,-1) translate(0,-256)" /><path d="M919 818Q928 820 932 829Q934 836 931.5 842.5Q929 849 922 852Q860 876 801 845Q795 841 792.5 834.5Q790 828 794 821Q802 806 817 814Q862 838 909 819Q914 817 919 818Z" fill="#b9e4ea" stroke="none" transform="scale(1,-1) translate(0,-256)" /><path d="M121 -47Q123 -56 130.5 -56.0Q138 -56 142 -53L472 239Q475 242 485.5 252.0Q496 262 495 267Q492 280 479 270L138 -17Q135 -20 127.0 -28.0Q119 -36 121 -47Z" fill="#b9e4ea" stroke="none" transform="scale(1,-1) translate(0,-256)" /></svg>