<?xml version="1.0" encoding="utf-8" ?>
<svg baseProfile="full" height="256" version="1.1" width="256" xmlns="http://www.w3.org/2000/svg" xmlns:ev="http://www.w3.org/2001/xml-events" xmlns:xlink="http://www.w3.org/1999/xlink"><defs /><path d="M1156 644Q1189 604 1197.0 555.0Q1205 506 1189.0 459.0Q1173 412 1133 379Q1093 346 1044.0 337.5Q995 329 948.0 345.5Q901 362 868 402L753 539Q719 579 711.0 628.0Q703 677 719.5 724.0Q736 771 776 804Q815 838 864.5 846.0Q914 854 960.5 837.5Q1007 821 1041 781ZM931 440Q952 415 982.5 405.5Q1013 396 1045.0 404.0Q1077 412 1101 438Q1128 465 1132.5 504.0Q1137 543 1118 575Q1104 597 1084.0 609.0Q1064 621 1042 626Q987 637 983 686Q981 711 980.5 727.0Q980 743 966 756Q938 780 899.0 782.5Q860 785 828 763Q799 743 785.5 713.0Q772 683 775.5 651.5Q779 620 801 595Q811 584 822.5 584.0Q834 584 853 580Q879 576 892.0 555.0Q905 534 905 512Q906 493 912.0 474.5Q918 456 931 440Z" fill="#2f7889" stroke="none" transform="scale(1,-1) translate(0,-256)" /><path d="M247 -21 442 143 564 -2Q569 -7 568.5 -14.5Q568 -22 562 -27L515 -66Q510 -71 504 -71Q495 -71 490 -64L441 -6Q433 3 424 -5L395 -29Q386 -37 394 -46L442 -104Q447 -110 447 -118Q446 -125 440 -130L395 -169Q389 -173 383 -173Q374 -173 369 -167Z" fill="#2f7889" stroke="none" transform="scale(1,-1) translate(0,-256)" /><path d="M628 421Q628 421 636.0 409.5Q644 398 658 380Q672 362 679.5 355.5Q687 349 687 349L629 301Q629 301 634.0 321.0Q639 341 636 360Q632 379 618.5 390.5Q605 402 605 402Z" fill="#2f7889" stroke="none" transform="scale(1,-1) translate(0,-256)" /><path d="M759 531 819 460 759 409Q759 409 765.0 429.0Q771 449 769 469Q767 488 754.0 502.0Q741 516 741 516Z" fill="#2f7889" stroke="none" transform="scale(1,-1) translate(0,-256)" /><path d="M265 -30Q270 -36 274.5 -39.0Q279 -42 284 -37L440 102Q449 111 449.5 116.5Q450 122 446 127Q437 137 423 125L262 -10Q256 -15 258.5 -20.0Q261 -25 265 -30Z" fill="#2f7889" stroke="none" transform="scale(1,-1) translate(0,-256)" /></svg>