<?xml version="1.0" encoding="utf-8" ?>
<svg baseProfile="full" height="256" version="1.1" width="256" xmlns="http://www.w3.org/2000/svg" xmlns:ev="http://www.w3.org/2001/xml-events" xmlns:xlink="http://www.w3.org/1999/xlink"><defs /><path d="M644 911Q751 911 828.5 886.0Q906 861 958.5 820.0Q1011 779 1043.5 729.5Q1076 680 1093.5 630.0Q1111 580 1117.5 538.0Q1124 496 1125.0 470.0Q1126 444 1126 442Q1126 372 1124.0 294.0Q1122 216 1117 136Q1117 135 1116 134H1026Q1027 148 1025.0 177.0Q1023 206 1019.0 242.0Q1015 278 1009.0 312.5Q1003 347 994.5 373.0Q986 399 975 407Q958 419 929.0 440.0Q900 461 868.0 488.5Q836 516 808.0 547.5Q780 579 765 612Q765 612 736.5 589.0Q708 566 653.5 532.0Q599 498 520.0 463.5Q441 429 339 406Q316 401 299.5 375.5Q283 350 271.5 314.0Q260 278 253.0 240.5Q246 203 243.0 174.0Q240 145 240 134H158Q153 214 151.0 292.5Q149 371 149 442Q149 444 150.5 470.0Q152 496 160.0 538.0Q168 580 187.0 630.0Q206 680 240.0 729.5Q274 779 327.5 820.0Q381 861 459.0 886.0Q537 911 644 911Z" fill="#000000" stroke="none" transform="scale(1,-1) translate(0,-256)" /><path d="M1074 -212H201Q180 -113 168.5 0.0Q157 113 152.5 226.5Q148 340 148 440Q148 442 149.5 468.0Q151 494 159.0 536.0Q167 578 186.0 628.0Q205 678 239.0 727.5Q273 777 327.0 818.5Q381 860 459.0 885.0Q537 910 644 910Q752 910 829.0 885.0Q906 860 959.0 818.5Q1012 777 1044.5 727.5Q1077 678 1094.5 628.0Q1112 578 1118.5 536.0Q1125 494 1126.0 468.0Q1127 442 1127 440Q1127 340 1122.5 226.5Q1118 113 1106.5 0.0Q1095 -113 1074 -212Z" fill="#000000" stroke="none" transform="scale(1,-1) translate(0,-256)" /></svg>