<?xml version="1.0" encoding="utf-8" ?>
<svg baseProfile="full" height="256" version="1.1" width="256" xmlns="http://www.w3.org/2000/svg" xmlns:ev="http://www.w3.org/2001/xml-events" xmlns:xlink="http://www.w3.org/1999/xlink"><defs /><path d="M499.2354278564453 244.11920166015625Q499.24732971191406 270.27734375 481.59861755371094 287.94212341308594Q463.9499053955078 305.6069030761719 440.40757751464844 305.61761474609375Q415.5573425292969 305.62892150878906 397.89256286621094 287.98020935058594Q380.227783203125 270.3314971923828 380.21588134765625 244.17335510253906Q380.20457458496094 219.3231201171875 397.85298919677734 201.00438690185547Q415.50140380859375 182.68565368652344 440.3516387939453 182.67434692382812Q463.8939666748047 182.66363525390625 481.55904388427734 200.96630096435547Q499.22412109375 219.2689666748047 499.2354278564453 244.11920166015625Z" fill="#404040" stroke="none" transform="scale(1,-1) translate(0,-256)" /><path d="M894.8604278564453 244.11920166015625Q894.8723297119141 270.27734375 877.2236175537109 287.94212341308594Q859.5749053955078 305.6069030761719 836.0325775146484 305.61761474609375Q811.1823425292969 305.62892150878906 793.5175628662109 287.98020935058594Q775.852783203125 270.3314971923828 775.8408813476562 244.17335510253906Q775.8295745849609 219.3231201171875 793.4779891967773 201.00438690185547Q811.1264038085938 182.68565368652344 835.9766387939453 182.67434692382812Q859.5189666748047 182.66363525390625 877.1840438842773 200.96630096435547Q894.84912109375 219.2689666748047 894.8604278564453 244.11920166015625Z" fill="#404040" stroke="none" transform="scale(1,-1) translate(0,-256)" /></svg>