<?xml version="1.0" encoding="utf-8" ?>
<svg baseProfile="full" height="256" version="1.1" width="256" xmlns="http://www.w3.org/2000/svg" xmlns:ev="http://www.w3.org/2001/xml-events" xmlns:xlink="http://www.w3.org/1999/xlink"><defs /><path d="M644 911Q751 911 828.5 886.0Q906 861 958.5 820.0Q1011 779 1043.5 729.5Q1076 680 1093.5 630.0Q1111 580 1117.5 538.0Q1124 496 1125.0 470.0Q1126 444 1126 442Q1126 342 1121.5 227.5Q1117 113 1105.5 -0.5Q1094 -114 1073 -212H1058H1043H232H217H203Q181 -114 169.5 -0.5Q158 113 153.5 227.5Q149 342 149 442Q149 444 150.5 470.0Q152 496 160.0 538.0Q168 580 187.0 630.0Q206 680 240.0 729.5Q274 779 327.5 820.0Q381 861 459.0 886.0Q537 911 644 911Z" fill="#543930" stroke="none" transform="scale(1,-1) translate(0,-256)" /><path d="M215 -184Q208 -168 202.0 -127.0Q196 -86 192.0 -28.5Q188 29 185.0 93.0Q182 157 180.5 219.0Q179 281 178.0 331.5Q177 382 176.5 412.0Q176 442 176 442Q176 442 177.0 465.5Q178 489 185.0 527.5Q192 566 209.0 612.5Q226 659 258.0 705.0Q290 751 340.0 789.5Q390 828 463.5 851.5Q537 875 638 875Q740 875 813.0 851.5Q886 828 936.5 789.5Q987 751 1018.5 705.0Q1050 659 1066.5 612.5Q1083 566 1090.0 527.5Q1097 489 1098.0 465.5Q1099 442 1099 442Q1099 442 1098.5 412.0Q1098 382 1097.5 331.5Q1097 281 1095.5 219.0Q1094 157 1091.5 93.0Q1089 29 1085.0 -28.0Q1081 -85 1075.0 -126.5Q1069 -168 1062 -184Q1054 -199 1043 -212H972L1006 223Q1006 241 1006.0 267.5Q1006 294 1004.0 322.5Q1002 351 995.0 373.5Q988 396 975 406Q958 419 929.0 440.0Q900 461 867.5 488.5Q835 516 807.0 547.5Q779 579 764 612Q764 612 736.0 589.0Q708 566 653.5 532.0Q599 498 519.5 463.5Q440 429 338 406Q310 400 296.5 376.0Q283 352 278.5 321.5Q274 291 274.5 263.5Q275 236 275 222Q276 178 279.0 117.5Q282 57 286.0 -6.0Q290 -69 293.5 -123.5Q297 -178 300 -212H233Q223 -199 215 -184Z" fill="#543930" stroke="none" transform="scale(1,-1) translate(0,-256)" /></svg>