<?xml version="1.0" encoding="utf-8" ?>
<svg baseProfile="full" height="256" version="1.1" width="256" xmlns="http://www.w3.org/2000/svg" xmlns:ev="http://www.w3.org/2001/xml-events" xmlns:xlink="http://www.w3.org/1999/xlink"><defs /><path d="M124 -18Q124 -18 115.0 -27.0Q106 -36 97.5 -45.5Q89 -55 89 -55Q89 -55 95.0 -70.0Q101 -85 110 -101Q120 -118 136.5 -134.0Q153 -150 163 -155Q173 -161 181.5 -158.5Q190 -156 196 -150Q202 -144 201.5 -136.0Q201 -128 198 -123Q195 -117 181.5 -104.0Q168 -91 153 -71Q138 -51 131.0 -34.5Q124 -18 124 -18Z" fill="#b0b0b0" stroke="none" transform="scale(1,-1) translate(0,-256)" /><path d="M548 355Q541 366 536.0 373.5Q531 381 531 381L562 410Q562 410 569.0 399.5Q576 389 582 381Q590 370 600.0 360.0Q610 350 615 344Q623 336 627.5 326.0Q632 316 625 308Q618 299 607.5 302.5Q597 306 586 315Q575 324 564.0 336.0Q553 348 548 355Z" fill="#b0b0b0" stroke="none" transform="scale(1,-1) translate(0,-256)" /><path d="M809 568 824 525Q824 525 840.0 508.5Q856 492 880.0 468.0Q904 444 929.0 419.0Q954 394 973.5 376.5Q993 359 998 357Q1016 350 1025.5 359.5Q1035 369 1035 369Q1035 369 1027.0 372.0Q1019 375 1013 381Q1012 382 992.5 401.5Q973 421 946.0 449.0Q919 477 891.5 504.5Q864 532 846.0 550.5Q828 569 828 569Z" fill="#b0b0b0" stroke="none" transform="scale(1,-1) translate(0,-256)" /><path d="M815 643 839 639 1074 405Q1074 405 1064.0 396.0Q1054 387 1044 386Q1034 386 1022.5 395.0Q1011 404 1004 411Q1002 414 983.5 432.5Q965 451 939.5 477.0Q914 503 889.0 528.5Q864 554 847.5 571.0Q831 588 831 588Z" fill="#b0b0b0" stroke="none" transform="scale(1,-1) translate(0,-256)" /><path d="M641 488Q640 464 640.0 441.5Q640 419 624 419Q609 420 605.5 441.5Q602 463 605 493Q608 513 616.0 532.0Q624 551 635.5 560.0Q647 569 657 561Q666 553 661.5 544.5Q657 536 649.5 522.5Q642 509 641 488Z" fill="#b0b0b0" stroke="none" transform="scale(1,-1) translate(0,-256)" /></svg>