<?xml version="1.0" encoding="utf-8" ?>
<svg baseProfile="full" height="256" version="1.1" width="256" xmlns="http://www.w3.org/2000/svg" xmlns:ev="http://www.w3.org/2001/xml-events" xmlns:xlink="http://www.w3.org/1999/xlink"><defs /><path d="M647 318Q649 319 653.5 314.5Q658 310 665 307Q674 302 680.0 300.0Q686 298 686 298L658 266Q658 266 652.5 268.5Q647 271 641 275Q637 277 629.5 283.0Q622 289 622 290Q623 292 628.5 298.5Q634 305 640.0 311.5Q646 318 647 318Z" fill="#858585" stroke="none" transform="scale(1,-1) translate(0,-256)" /><path d="M652 596 699 547Q699 547 693.0 543.5Q687 540 681.0 528.0Q675 516 674 491Q673 465 681.5 450.0Q690 435 702.0 426.0Q714 417 723.0 411.0Q732 405 732 395Q732 383 714.5 378.5Q697 374 675.0 376.0Q653 378 639 387Q616 401 601.5 427.5Q587 454 599 505Q606 539 619.0 559.0Q632 579 642.0 587.5Q652 596 652 596Z" fill="#858585" stroke="none" transform="scale(1,-1) translate(0,-256)" /><path d="M710 904Q735 921 755.0 909.0Q775 897 794 878Q798 873 824.0 847.5Q850 822 889.0 784.0Q928 746 971.5 704.0Q1015 662 1055.5 623.0Q1096 584 1124.5 556.5Q1153 529 1161 521Q1186 499 1188.0 485.0Q1190 471 1181 460Q1176 455 1157.0 435.5Q1138 416 1114.0 391.5Q1090 367 1068.5 345.0Q1047 323 1035 313Q1006 286 980.5 289.0Q955 292 944 301Q941 303 919.5 324.0Q898 345 864.5 377.5Q831 410 791.5 449.0Q752 488 712.5 527.0Q673 566 639.0 599.5Q605 633 583.5 655.0Q562 677 558 681Q546 697 548.5 719.5Q551 742 566 757Q570 761 583.5 775.5Q597 790 616.0 810.0Q635 830 654.0 850.0Q673 870 688.5 884.5Q704 899 710 904Z" fill="#858585" stroke="none" transform="scale(1,-1) translate(0,-256)" /><path d="M226 -144Q229 -145 237.0 -148.5Q245 -152 252 -154Q259 -156 271.0 -159.0Q283 -162 283 -162L252 -194Q252 -194 245.0 -192.5Q238 -191 229 -189Q215 -185 205.0 -180.5Q195 -176 195 -176Q195 -176 202.5 -167.5Q210 -159 217.5 -151.0Q225 -143 226 -144Z" fill="#858585" stroke="none" transform="scale(1,-1) translate(0,-256)" /></svg>