<?xml version="1.0" encoding="utf-8" ?>
<svg baseProfile="full" height="256" version="1.1" width="256" xmlns="http://www.w3.org/2000/svg" xmlns:ev="http://www.w3.org/2001/xml-events" xmlns:xlink="http://www.w3.org/1999/xlink"><defs /><path d="M734 769 1091 408Q1091 408 1085.5 398.5Q1080 389 1071 381Q1062 373 1054.0 370.0Q1046 367 1046 367Q1046 367 1043.0 359.5Q1040 352 1029 345Q1018 338 1004.5 336.0Q991 334 977 346Q973 350 948.0 375.0Q923 400 885.5 437.0Q848 474 807.0 515.0Q766 556 729.0 593.0Q692 630 666.5 656.0Q641 682 637 687Q624 704 625.0 717.5Q626 731 632 741Q639 752 647.5 754.5Q656 757 656 757Q656 757 657.0 762.0Q658 767 662 771Q670 781 683.5 792.0Q697 803 697 803Z" fill="#464c4f" stroke="none" transform="scale(1,-1) translate(0,-256)" /></svg>