<?xml version="1.0" encoding="utf-8" ?>
<svg baseProfile="full" height="256" version="1.1" width="256" xmlns="http://www.w3.org/2000/svg" xmlns:ev="http://www.w3.org/2001/xml-events" xmlns:xlink="http://www.w3.org/1999/xlink"><defs /><path d="M107 -206Q99 -197 101.0 -176.5Q103 -156 111.0 -129.5Q119 -103 128.5 -76.0Q138 -49 146 -28Q157 2 174.0 50.0Q191 98 212.0 154.5Q233 211 254.0 265.0Q275 319 294 359Q302 379 320.5 410.5Q339 442 363 458Q383 473 418.5 484.5Q454 496 500.0 494.0Q546 492 597.5 468.5Q649 445 702 389Q754 334 771.5 281.0Q789 228 785.0 183.5Q781 139 768.0 107.5Q755 76 745 63Q724 34 696.5 20.0Q669 6 648 -3Q617 -16 576.0 -33.5Q535 -51 491.0 -69.0Q447 -87 406.0 -104.5Q365 -122 333.0 -135.5Q301 -149 285 -156Q251 -172 213.5 -188.0Q176 -204 147.0 -210.5Q118 -217 107 -206Z" fill="#ffc107" stroke="none" transform="scale(1,-1) translate(0,-256)" /><path d="M333 494 360 561 284 611 236 542Z" fill="#ffc107" stroke="none" transform="scale(1,-1) translate(0,-256)" /><path d="M904 783Q927 805 939.0 827.5Q951 850 955.5 866.0Q960 882 960 885L886 897Q886 897 879.5 877.0Q873 857 853 838Z" fill="#ffc107" stroke="none" transform="scale(1,-1) translate(0,-256)" /></svg>