<?xml version="1.0" encoding="utf-8" ?>
<svg baseProfile="full" height="256" version="1.1" width="256" xmlns="http://www.w3.org/2000/svg" xmlns:ev="http://www.w3.org/2001/xml-events" xmlns:xlink="http://www.w3.org/1999/xlink"><defs /><path d="M463 259Q508 302 527.5 339.5Q547 377 550.0 408.0Q553 439 547.0 464.0Q541 489 535 508Q533 513 531.5 518.0Q530 523 529 527Q529 527 529.0 527.5Q529 528 529 529Q550 522 581.0 522.0Q612 522 650 543Q695 567 705 612Q715 660 683 700Q655 736 612 740Q593 742 565.0 734.5Q537 727 503 697Q492 687 483 675Q482 677 477.5 689.0Q473 701 474.5 721.5Q476 742 494 770Q504 786 524.0 795.5Q544 805 567.5 809.0Q591 813 611.0 814.0Q631 815 641 814L605 913Q605 913 587.0 911.0Q569 909 542.0 900.5Q515 892 485.5 871.5Q456 851 434 815Q411 778 403.0 740.0Q395 702 408 662Q408 660 418.0 636.5Q428 613 450 586Q449 570 450.0 551.0Q451 532 456 510Q457 504 459.0 497.5Q461 491 463 485Q470 462 475.0 434.0Q480 406 470.0 371.5Q460 337 422 295ZM532 611Q539 628 553 641Q583 667 605 665Q616 664 624 654Q634 641 631 628Q631 626 628.0 620.5Q625 615 615 609Q578 589 549 601Q541 605 532 611Z" fill="#f44336" stroke="none" transform="scale(1,-1) translate(0,-256)" /><path d="M952 -110Q956 -80 947.5 -53.5Q939 -27 928.5 -10.0Q918 7 915 10L855 -35Q860 -40 870.0 -60.5Q880 -81 878 -101Z" fill="#f44336" stroke="none" transform="scale(1,-1) translate(0,-256)" /><path d="M910.1909790039062 356.3210144042969 848.3017272949219 302.19635009765625 902.4764404296875 240.25257873535156 964.3656921386719 294.3772430419922Z" fill="#f44336" stroke="none" transform="scale(1,-1) translate(0,-256)" /></svg>