<?xml version="1.0" encoding="utf-8" ?>
<svg baseProfile="full" height="256" version="1.1" width="256" xmlns="http://www.w3.org/2000/svg" xmlns:ev="http://www.w3.org/2001/xml-events" xmlns:xlink="http://www.w3.org/1999/xlink"><defs /><path d="M67.0 664.125Q67.0 672.125 72.5 677.625Q78.0 683.125 86.0 683.125H1173.0Q1181.0 683.125 1186.5 677.625Q1192.0 672.125 1192.0 664.125V52.125Q1192.0 44.125 1186.5 38.625Q1181.0 33.125 1173.0 33.125H86.0Q78.0 33.125 72.5 39.125Q67.0 45.125 67.0 52.125ZM845.0 75.125Q851.0 79.125 854.0 84.125Q871.0 110.125 862.0 133.625Q853.0 157.125 829.5 166.125Q806.0 175.125 780.0 158.125Q775.0 155.125 771.0 150.125Q754.0 123.125 763.5 100.125Q773.0 77.125 796.0 68.125Q819.0 59.125 845.0 75.125ZM845.0 233.125Q850.0 236.125 854.0 242.125Q871.0 268.125 862.0 291.625Q853.0 315.125 829.5 324.125Q806.0 333.125 780.0 316.125Q775.0 313.125 771.0 307.125Q754.0 281.125 763.5 258.125Q773.0 235.125 796.0 225.625Q819.0 216.125 845.0 233.125ZM845.0 400.125Q850.0 404.125 854.0 409.125Q871.0 435.125 862.0 458.625Q853.0 482.125 829.5 491.125Q806.0 500.125 780.0 483.125Q775.0 480.125 771.0 474.125Q754.0 448.125 763.5 425.125Q773.0 402.125 796.0 393.125Q819.0 384.125 845.0 400.125ZM845.0 558.125Q850.0 561.125 854.0 567.125Q871.0 593.125 862.0 616.625Q853.0 640.125 829.5 649.125Q806.0 658.125 780.0 641.125Q775.0 638.125 771.0 632.125Q754.0 606.125 763.5 582.625Q773.0 559.125 796.0 550.125Q819.0 541.125 845.0 558.125Z" fill="#ffd54f" stroke="none" transform="scale(1,-1) translate(0,-256)" /></svg>