<?xml version="1.0" encoding="utf-8" ?>
<svg baseProfile="full" height="256" version="1.1" width="256" xmlns="http://www.w3.org/2000/svg" xmlns:ev="http://www.w3.org/2001/xml-events" xmlns:xlink="http://www.w3.org/1999/xlink"><defs /><path d="M1157 392Q1157 383 1159.5 373.5Q1162 364 1163 355Q1165 346 1165.5 334.5Q1166 323 1160 316Q1154 310 1145.0 312.0Q1136 314 1129 332Q1125 343 1128.5 356.0Q1132 369 1123 387Q1114 405 1095.0 418.5Q1076 432 1064 453Q1052 475 1052.5 494.5Q1053 514 1052.0 527.5Q1051 541 1034 547Q1014 554 993.0 542.5Q972 531 959.5 511.5Q947 492 951 474Q955 459 965.5 448.0Q976 437 986.5 422.5Q997 408 998 381Q999 372 997.5 362.5Q996 353 988 350Q982 347 972 350Q941 357 933.5 380.0Q926 403 926 435Q926 448 926.0 456.5Q926 465 921 473Q914 483 898.5 484.0Q883 485 871 484Q844 482 821.0 503.0Q798 524 795 551Q791 577 797.5 593.5Q804 610 812.5 620.5Q821 631 824.5 639.0Q828 647 816 658Q807 667 795.5 667.5Q784 668 770.0 667.5Q756 667 739.0 672.0Q722 677 702 695Q692 703 689.0 716.5Q686 730 687 743Q688 773 715.5 790.5Q743 808 773 804Q802 800 825.5 780.5Q849 761 864 735Q870 727 876.0 718.0Q882 709 892 705Q904 700 916.5 704.5Q929 709 942 713Q967 720 993.0 711.5Q1019 703 1037.5 683.5Q1056 664 1061 638Q1063 625 1064.0 611.5Q1065 598 1074 589Q1079 583 1085.5 580.0Q1092 577 1098 574Q1136 554 1150.0 527.5Q1164 501 1163.5 469.5Q1163 438 1157 404Q1156 399 1157 392Z" fill="#1b2e35" stroke="none" transform="scale(1,-1) translate(0,-256)" /><path d="M1015 45Q1025 56 1032.5 50.0Q1040 44 1039 35Q1036 6 1019.5 -13.5Q1003 -33 983.5 -41.5Q964 -50 954 -44Q952 -43 951.5 -36.0Q951 -29 959 -20Q964 -13 975.0 -0.5Q986 12 997.5 25.0Q1009 38 1015 45Z" fill="#1b2e35" stroke="none" transform="scale(1,-1) translate(0,-256)" /><path d="M1084 151Q1088 162 1095.5 159.0Q1103 156 1105 149Q1110 126 1102.0 106.5Q1094 87 1081.5 76.0Q1069 65 1059 67Q1058 67 1055.5 72.5Q1053 78 1057 87Q1061 96 1070.5 118.0Q1080 140 1084 151Z" fill="#1b2e35" stroke="none" transform="scale(1,-1) translate(0,-256)" /></svg>