<?xml version="1.0" encoding="utf-8" ?>
<svg baseProfile="full" height="256" version="1.1" width="256" xmlns="http://www.w3.org/2000/svg" xmlns:ev="http://www.w3.org/2001/xml-events" xmlns:xlink="http://www.w3.org/1999/xlink"><defs /><path d="M634 -164Q742 -164 840.0 -128.5Q938 -93 1013 -28Q1093 44 1135.5 142.5Q1178 241 1178 360Q1178 479 1135.5 578.5Q1093 678 1013 749Q938 815 840.5 849.5Q743 884 634 884Q555 884 477.0 864.0Q399 844 329.5 803.5Q260 763 206.0 700.5Q152 638 121.0 553.0Q90 468 90 360Q90 252 121.0 167.5Q152 83 206.0 20.5Q260 -42 329.5 -83.0Q399 -124 477.0 -144.0Q555 -164 634 -164Z" fill="#000000" stroke="none" transform="scale(1,-1) translate(0,-256)" /><path d="M384 -30Q414 -30 438.5 -13.0Q463 4 477.5 29.0Q492 54 491 79Q491 106 480.5 139.0Q470 172 441 238Q429 266 417.0 292.0Q405 318 395 340Q393 344 388 346Q376 351 370 340Q345 292 325 240Q323 233 320.0 226.5Q317 220 315 214Q298 171 287.5 139.0Q277 107 277 80Q277 55 291.0 29.5Q305 4 329.5 -13.0Q354 -30 384 -30Z" fill="#000000" stroke="none" transform="scale(1,-1) translate(0,-256)" /></svg>