<?xml version="1.0" encoding="utf-8" ?>
<svg baseProfile="full" height="256" version="1.1" width="256" xmlns="http://www.w3.org/2000/svg" xmlns:ev="http://www.w3.org/2001/xml-events" xmlns:xlink="http://www.w3.org/1999/xlink"><defs /><path d="M634 902Q339 901 184 756Q44 626 41 404Q40 289 109 189Q175 95 289 34Q318 11 289 -62Q258 -141 210 -171Q200 -178 197 -189Q194 -200 201 -210Q209 -224 226 -223Q289 -219 360 -193Q492 -144 542 -44Q588 -49 635 -49Q884 -49 1051 71Q1227 199 1227 404Q1227 626 1087 758Q932 904 634 902ZM634 846Q910 848 1049 717Q1171 602 1171 404Q1171 228 1018 117Q866 7 635 7Q581 7 529 14Q507 18 498 -3Q462 -95 340 -140Q323 -147 307 -151Q326 -122 342 -82Q387 33 321 80Q319 81 318 82Q214 138 156 221Q96 306 97 404Q100 601 222 715Q361 845 634 846Z" fill="#000000" stroke="none" transform="scale(1,-1) translate(0,-256)" /></svg>