<?xml version="1.0" encoding="utf-8" ?>
<svg baseProfile="full" height="256" version="1.1" width="256" xmlns="http://www.w3.org/2000/svg" xmlns:ev="http://www.w3.org/2001/xml-events" xmlns:xlink="http://www.w3.org/1999/xlink"><defs /><path d="M634 874Q786 875 893.0 838.5Q1000 802 1068.0 737.0Q1136 672 1167.5 586.5Q1199 501 1199 404Q1199 307 1155.5 228.5Q1112 150 1034.5 94.0Q957 38 854.5 8.5Q752 -21 635 -21Q579 -21 525 -13Q505 -63 469.0 -96.0Q433 -129 391.0 -149.0Q349 -169 311.0 -179.0Q273 -189 248.5 -192.0Q224 -195 224 -195Q244 -183 264.5 -158.5Q285 -134 301.5 -103.0Q318 -72 326.0 -41.0Q334 -10 329.5 16.5Q325 43 304 57Q197 115 132.5 205.0Q68 295 69 404Q70 501 102.5 586.0Q135 671 203.0 735.5Q271 800 377.5 837.0Q484 874 634 874Z" fill="#ffffff" stroke="none" transform="scale(1,-1) translate(0,-256)" /></svg>