<?xml version="1.0" encoding="utf-8" ?>
<svg baseProfile="full" height="256" version="1.1" width="256" xmlns="http://www.w3.org/2000/svg" xmlns:ev="http://www.w3.org/2001/xml-events" xmlns:xlink="http://www.w3.org/1999/xlink"><defs /><path d="M628.9586029052734 291.7801055908203Q628.9586029052734 302.9737091064453 624.7610015869141 312.8163604736328Q620.5634002685547 322.6590118408203 613.0849151611328 330.1374969482422Q605.6064300537109 337.61598205566406 595.7637786865234 341.86183166503906Q585.9211273193359 346.10768127441406 574.7275238037109 346.10768127441406Q563.4374237060547 346.10768127441406 553.5947723388672 341.86183166503906Q543.7521209716797 337.61598205566406 536.2736358642578 330.1374969482422Q528.7951507568359 322.6590118408203 524.5975494384766 312.8163604736328Q520.3999481201172 302.9737091064453 520.3999481201172 291.7801055908203Q520.3999481201172 280.5865020751953 524.5975494384766 270.7438507080078Q528.7951507568359 260.9011993408203 536.2736358642578 253.42271423339844Q543.7521209716797 245.94422912597656 553.5947723388672 241.7466278076172Q563.4374237060547 237.5490264892578 574.7275238037109 237.5490264892578Q585.9211273193359 237.5490264892578 595.7637786865234 241.7466278076172Q605.6064300537109 245.94422912597656 613.0849151611328 253.42271423339844Q620.5634002685547 260.9011993408203 624.7610015869141 270.7438507080078Q628.9586029052734 280.5865020751953 628.9586029052734 291.7801055908203Z" fill="#fb8c00" stroke="none" transform="scale(1,-1) translate(0,-256)" /><path d="M684.7467803955078 415.5318145751953Q684.7467803955078 426.32008361816406 680.7011795043945 435.8063201904297Q676.6555786132812 445.2925567626953 669.4478988647461 452.50023651123047Q662.2402191162109 459.7079162597656 652.7539825439453 463.8000183105469Q643.2677459716797 467.8921203613281 632.4794769287109 467.8921203613281Q621.5982055664062 467.8921203613281 612.1119689941406 463.8000183105469Q602.625732421875 459.7079162597656 595.4180526733398 452.50023651123047Q588.2103729248047 445.2925567626953 584.1647720336914 435.8063201904297Q580.1191711425781 426.32008361816406 580.1191711425781 415.5318145751953Q580.1191711425781 404.74354553222656 584.1647720336914 395.25730895996094Q588.2103729248047 385.7710723876953 595.4180526733398 378.56339263916016Q602.625732421875 371.355712890625 612.1119689941406 367.3101119995117Q621.5982055664062 363.26451110839844 632.4794769287109 363.26451110839844Q643.2677459716797 363.26451110839844 652.7539825439453 367.3101119995117Q662.2402191162109 371.355712890625 669.4478988647461 378.56339263916016Q676.6555786132812 385.7710723876953 680.7011795043945 395.25730895996094Q684.7467803955078 404.74354553222656 684.7467803955078 415.5318145751953Z" fill="#fb8c00" stroke="none" transform="scale(1,-1) translate(0,-256)" /><path d="M740.5170593261719 539.2787780761719Q740.5170593261719 549.6599426269531 736.6241226196289 558.7882080078125Q732.7311859130859 567.9164733886719 725.7954940795898 574.852165222168Q718.8598022460938 581.7878570556641 709.7315368652344 585.7255401611328Q700.603271484375 589.6632232666016 690.2221069335938 589.6632232666016Q679.7514495849609 589.6632232666016 670.6231842041016 585.7255401611328Q661.4949188232422 581.7878570556641 654.5592269897461 574.852165222168Q647.62353515625 567.9164733886719 643.730598449707 558.7882080078125Q639.8376617431641 549.6599426269531 639.8376617431641 539.2787780761719Q639.8376617431641 528.8976135253906 643.730598449707 519.7693481445312Q647.62353515625 510.6410827636719 654.5592269897461 503.7053909301758Q661.4949188232422 496.7696990966797 670.6231842041016 492.8767623901367Q679.7514495849609 488.98382568359375 690.2221069335938 488.98382568359375Q700.603271484375 488.98382568359375 709.7315368652344 492.8767623901367Q718.8598022460938 496.7696990966797 725.7954940795898 503.7053909301758Q732.7311859130859 510.6410827636719 736.6241226196289 519.7693481445312Q740.5170593261719 528.8976135253906 740.5170593261719 539.2787780761719Z" fill="#fb8c00" stroke="none" transform="scale(1,-1) translate(0,-256)" /><path d="M796.3052368164062 663.0304870605469Q796.3052368164062 673.0063171386719 792.5643005371094 681.7781677246094Q788.8233642578125 690.5500183105469 782.1584777832031 697.2149047851562Q775.4935913085938 703.8797912597656 766.7217407226562 707.6637268066406Q757.9498901367188 711.4476623535156 747.9740600585938 711.4476623535156Q737.9122314453125 711.4476623535156 729.140380859375 707.6637268066406Q720.3685302734375 703.8797912597656 713.7036437988281 697.2149047851562Q707.0387573242188 690.5500183105469 703.2978210449219 681.7781677246094Q699.556884765625 673.0063171386719 699.556884765625 663.0304870605469Q699.556884765625 653.0546569824219 703.2978210449219 644.2828063964844Q707.0387573242188 635.5109558105469 713.7036437988281 628.8460693359375Q720.3685302734375 622.1811828613281 729.140380859375 618.4402465820312Q737.9122314453125 614.6993103027344 747.9740600585938 614.6993103027344Q757.9498901367188 614.6993103027344 766.7217407226562 618.4402465820312Q775.4935913085938 622.1811828613281 782.1584777832031 628.8460693359375Q788.8233642578125 635.5109558105469 792.5643005371094 644.2828063964844Q796.3052368164062 653.0546569824219 796.3052368164062 663.0304870605469Z" fill="#fb8c00" stroke="none" transform="scale(1,-1) translate(0,-256)" /></svg>