<?xml version="1.0" encoding="utf-8" ?>
<svg baseProfile="full" height="256" version="1.1" width="256" xmlns="http://www.w3.org/2000/svg" xmlns:ev="http://www.w3.org/2001/xml-events" xmlns:xlink="http://www.w3.org/1999/xlink"><defs /><path d="M1049 727Q1061 720 1056.5 706.0Q1052 692 1049 687Q1046 684 1041.0 676.0Q1036 668 1025.5 663.0Q1015 658 997 665Q970 674 950.5 697.0Q931 720 918 738Q909 749 902.0 741.5Q895 734 890.5 723.0Q886 712 886 712Q886 712 875.0 683.5Q864 655 845.0 607.0Q826 559 802.5 498.0Q779 437 753.0 371.5Q727 306 701.5 243.5Q676 181 653.5 128.0Q631 75 616 41Q579 -38 543.0 -82.0Q507 -126 470.5 -145.5Q434 -165 396 -171Q351 -178 306.0 -168.0Q261 -158 223.0 -129.0Q185 -100 164 -49Q148 -10 143.5 42.0Q139 94 141.0 147.0Q143 200 148.0 241.5Q153 283 155 301Q157 317 149.0 337.0Q141 357 129.5 376.5Q118 396 107.5 410.0Q97 424 94 428Q93 428 93.0 428.5Q93 429 93 429Q75 451 75 475Q75 507 106.0 534.0Q137 561 188.5 577.0Q240 593 303 593Q366 593 418.0 577.0Q470 561 501.0 534.0Q532 507 532 475Q532 452 516 431Q507 415 491.5 384.0Q476 353 464 293Q452 233 450.0 197.0Q448 161 448 161Q448 161 465.5 194.0Q483 227 513.0 282.0Q543 337 579.0 403.5Q615 470 651.5 537.5Q688 605 719.5 664.0Q751 723 772.5 763.0Q794 803 800 812Q819 847 838.0 862.0Q857 877 894 876Q934 876 956.0 857.0Q978 838 988 815Q994 800 1005.5 781.0Q1017 762 1029.0 747.0Q1041 732 1049 727Z" fill="#ffca28" stroke="none" transform="scale(1,-1) translate(0,-256)" /></svg>