<?xml version="1.0" encoding="utf-8" ?>
<svg baseProfile="full" height="256" version="1.1" width="256" xmlns="http://www.w3.org/2000/svg" xmlns:ev="http://www.w3.org/2001/xml-events" xmlns:xlink="http://www.w3.org/1999/xlink"><defs /><path d="M1012 689Q1012 689 1015.0 699.0Q1018 709 1029 723Q1040 736 1062.5 737.0Q1085 738 1106 729Q1128 720 1134.0 707.0Q1140 694 1156 673Q1166 659 1174.5 654.5Q1183 650 1189.0 646.5Q1195 643 1199 634Q1203 620 1195.5 612.5Q1188 605 1188 605Q1188 605 1166.0 605.0Q1144 605 1113.5 608.0Q1083 611 1057 620Q1018 633 1007.5 649.0Q997 665 997 665Z" fill="#616161" stroke="none" transform="scale(1,-1) translate(0,-256)" /></svg>