<?xml version="1.0" encoding="utf-8" ?>
<svg baseProfile="full" height="256" version="1.1" width="256" xmlns="http://www.w3.org/2000/svg" xmlns:ev="http://www.w3.org/2001/xml-events" xmlns:xlink="http://www.w3.org/1999/xlink"><defs /><path d="M826 751Q826 751 805.0 730.0Q784 709 751.5 675.5Q719 642 682.0 605.0Q645 568 612.0 534.0Q579 500 556.5 478.0Q534 456 532 454Q530 453 512.5 426.0Q495 399 466.5 355.5Q438 312 405.0 260.5Q372 209 339.5 158.0Q307 107 279.5 64.5Q252 22 235.5 -4.0Q219 -30 219 -30Q219 -30 208.0 -30.0Q197 -30 180.5 -22.5Q164 -15 146.5 7.0Q129 29 116.0 72.5Q103 116 99 189Q94 263 113.5 339.0Q133 415 170.5 486.0Q208 557 260.0 616.5Q312 676 373.5 718.5Q435 761 502 779Q586 802 647.0 801.0Q708 800 747.5 788.0Q787 776 806.5 763.5Q826 751 826 751Z" fill="#ffe265" stroke="none" transform="scale(1,-1) translate(0,-256)" /><path d="M1095 402Q1069 371 1032.0 347.0Q995 323 954.5 303.5Q914 284 875.5 266.0Q837 248 807 229Q767 204 731.0 172.5Q695 141 668.0 113.5Q641 86 630 72Q586 21 544.5 -23.5Q503 -68 447 -98Q420 -113 389.0 -118.5Q358 -124 331.0 -124.0Q304 -124 287.0 -122.0Q270 -120 270 -120Q270 -120 291.5 -120.5Q313 -121 340 -111Q362 -102 387.0 -82.5Q412 -63 436 -27Q450 -6 468.5 37.5Q487 81 510.0 138.5Q533 196 558.0 259.5Q583 323 610.5 384.5Q638 446 666 497Q712 581 764.5 631.0Q817 681 864.0 706.5Q911 732 942 741Q974 750 1014.0 747.0Q1054 744 1089.5 726.0Q1125 708 1143 672Q1160 639 1162.5 592.5Q1165 546 1149.5 496.0Q1134 446 1095 402Z" fill="#ffe265" stroke="none" transform="scale(1,-1) translate(0,-256)" /></svg>