<?xml version="1.0" encoding="utf-8" ?>
<svg baseProfile="full" height="256" version="1.1" width="256" xmlns="http://www.w3.org/2000/svg" xmlns:ev="http://www.w3.org/2001/xml-events" xmlns:xlink="http://www.w3.org/1999/xlink"><defs /><path d="M582 169Q571 170 566.0 180.5Q561 191 564 205Q569 235 591 233Q603 231 607.0 220.0Q611 209 610 199Q608 189 602.5 179.0Q597 169 582 169Z" fill="#ffb700" stroke="none" transform="scale(1,-1) translate(0,-256)" /><path d="M579 96Q586 92 587.5 82.5Q589 73 584 63Q578 51 569.0 47.5Q560 44 552 48Q545 52 544.5 62.0Q544 72 548 81Q552 90 561.0 95.0Q570 100 579 96Z" fill="#ffb700" stroke="none" transform="scale(1,-1) translate(0,-256)" /><path d="M627 118Q639 111 650.5 121.0Q662 131 668 140Q674 151 676.5 165.0Q679 179 668 186Q658 193 646.5 186.0Q635 179 627 167Q619 155 616.0 141.0Q613 127 627 118Z" fill="#ffb700" stroke="none" transform="scale(1,-1) translate(0,-256)" /></svg>