<?xml version="1.0" encoding="utf-8" ?>
<svg baseProfile="full" height="256" version="1.1" width="256" xmlns="http://www.w3.org/2000/svg" xmlns:ev="http://www.w3.org/2001/xml-events" xmlns:xlink="http://www.w3.org/1999/xlink"><defs /><path d="M939 645 528 -10Q528 -10 513.0 -26.0Q498 -42 469.0 -63.0Q440 -84 396.0 -101.0Q352 -118 294 -121Q244 -123 198.5 -97.5Q153 -72 120.0 -11.0Q87 50 74 154Q64 241 84.0 335.5Q104 430 151.5 517.5Q199 605 269.5 674.5Q340 744 431 783Q503 814 566.0 821.0Q629 828 679.5 820.0Q730 812 766.5 798.0Q803 784 822.5 772.0Q842 760 842 760Q842 760 852.5 749.0Q863 738 878.0 721.5Q893 705 908.0 688.0Q923 671 932.5 658.5Q942 646 939 645Z" fill="#ffaa00" stroke="none" transform="scale(1,-1) translate(0,-256)" /><path d="M376 -110 492 -52 1014 480 1044 743Q1044 743 1024.0 747.5Q1004 752 971.0 753.0Q938 754 897.5 743.5Q857 733 816 702Q771 669 728.5 624.0Q686 579 651.5 531.5Q617 484 596 441Q564 377 539.0 313.0Q514 249 491 188Q476 147 456.0 101.0Q436 55 414.0 14.5Q392 -26 370 -50Q347 -74 328.0 -80.0Q309 -86 309 -86Z" fill="#ffaa00" stroke="none" transform="scale(1,-1) translate(0,-256)" /></svg>