<?xml version="1.0" encoding="utf-8" ?>
<svg baseProfile="full" height="256" version="1.1" width="256" xmlns="http://www.w3.org/2000/svg" xmlns:ev="http://www.w3.org/2001/xml-events" xmlns:xlink="http://www.w3.org/1999/xlink"><defs /><path d="M1016 873Q1032 846 1030.5 824.5Q1029 803 1023.5 787.5Q1018 772 1020 762Q1025 748 1034.0 741.0Q1043 734 1053.0 728.5Q1063 723 1068.5 714.0Q1074 705 1071 687Q1068 671 1041.5 649.5Q1015 628 979.5 609.0Q944 590 914 580Q887 572 869.5 570.5Q852 569 852 569L810 605Q834 620 867.5 644.5Q901 669 934.0 702.5Q967 736 990.0 779.0Q1013 822 1016 873Z" fill="#e2a610" stroke="none" transform="scale(1,-1) translate(0,-256)" /><path d="M785 837Q785 837 771.5 799.5Q758 762 749 707Q749 703 744.5 702.5Q740 702 739 706Q729 732 725.0 763.5Q721 795 726 819Q730 847 744 872Q757 864 771.0 850.5Q785 837 785 837Z" fill="#e2a610" stroke="none" transform="scale(1,-1) translate(0,-256)" /><path d="M942 398Q930 390 933.0 369.5Q936 349 948 325Q955 313 967.5 299.0Q980 285 990.5 275.0Q1001 265 1001 265Q1001 265 999.5 284.5Q998 304 995 328Q990 361 979.5 377.0Q969 393 958.0 397.5Q947 402 942 398Z" fill="#e2a610" stroke="none" transform="scale(1,-1) translate(0,-256)" /></svg>