<?xml version="1.0" encoding="utf-8" ?>
<svg baseProfile="full" height="256" version="1.1" width="256" xmlns="http://www.w3.org/2000/svg" xmlns:ev="http://www.w3.org/2001/xml-events" xmlns:xlink="http://www.w3.org/1999/xlink"><defs /><path d="M514.348388671875 56.30259704589844Q514.348388671875 56.30259704589844 522.821044921875 71.55896759033203Q531.293701171875 86.81533813476562 542.407470703125 112.39993286132812Q553.521240234375 137.98452758789062 562.3890380859375 170.57697296142578Q571.2568359375 203.16941833496094 570.030029296875 238.29595947265625Q569.8941650390625 270.8360595703125 559.910888671875 298.83251953125Q549.9276123046875 326.8289794921875 539.8383178710938 343.53601837158203Q529.7490234375 360.24305725097656 529.7490234375 360.24305725097656Q529.7490234375 360.24305725097656 546.0741577148438 365.53810119628906Q562.3992919921875 370.83314514160156 586.5547485351562 381.126220703125Q610.710205078125 391.41929626464844 635.6544799804688 407.77649688720703Q660.5987548828125 424.1336975097656 677.8187255859375 446.78228759765625Q696.0380859375 469.4658203125 696.3416748046875 489.42327880859375Q696.645263671875 509.3807373046875 691.2088623046875 521.7886657714844Q685.7724609375 534.1965942382812 685.7724609375 534.1965942382812Q685.7724609375 534.1965942382812 698.6363525390625 538.3207855224609Q711.500244140625 542.4449768066406 728.6050415039062 554.0662841796875Q745.7098388671875 565.6875915527344 757.951171875 587.6371917724609Q769.193115234375 609.5518493652344 763.1471557617188 625.0879669189453Q757.1011962890625 640.6240844726562 747.3048706054688 648.9426956176758Q737.508544921875 657.2613067626953 737.508544921875 657.2613067626953L344.7850341796875 642.4803009033203L297.4808349609375 48.72004699707031Z" fill="#000000" stroke="none" transform="scale(1,-1) translate(0,-256)" /><path d="M-365.862060546875 267.33811950683594Q-365.862060546875 267.33811950683594 -376.5411071777344 248.0771713256836Q-387.22015380859375 228.81622314453125 -393.1541748046875 193.30810546875Q-398.573486328125 162.46011352539062 -397.3427734375 137.16708374023438Q-396.112060546875 111.87405395507812 -392.7721862792969 96.56820678710938Q-389.43231201171875 81.26235961914062 -389.43231201171875 81.26235961914062L-49.49884033203125 43.72564697265625L46.875244140625 624.8003234863281L-318.95831298828125 664.6729125976562Q-318.95831298828125 664.6729125976562 -329.0477294921875 655.3048858642578Q-339.13714599609375 645.9368591308594 -352.8157958984375 622.2901763916016Q-366.49444580078125 598.6434936523438 -377.14776611328125 556.8431091308594Q-386.80712890625 514.9329681396484 -383.2059020996094 488.32996368408203Q-379.60467529296875 461.7269592285156 -372.4714050292969 448.8848190307617Q-365.338134765625 436.0426788330078 -365.338134765625 436.0426788330078Q-365.338134765625 436.0426788330078 -372.5886535644531 425.0509033203125Q-379.83917236328125 414.0591278076172 -387.1932067871094 397.5756607055664Q-394.5472412109375 381.0921936035156 -395.4405517578125 363.8953094482422Q-396.36932373046875 337.26841735839844 -388.71734619140625 315.4591827392578Q-381.06536865234375 293.6499481201172 -373.4637145996094 280.49403381347656Q-365.862060546875 267.33811950683594 -365.862060546875 267.33811950683594Z" fill="#000000" stroke="none" transform="scale(1,-1) translate(0,-256)" /><path d="M-219.1697998046875 543.3164672851562Q-219.27688598632812 557.2898864746094 -198.85321044921875 567.3246765136719Q-178.42953491210938 577.3594665527344 -148.43045043945312 577.5892639160156L838.5394287109375 585.1495971679688Q867.5385437011719 585.3717346191406 888.1136169433594 575.6510009765625Q908.6886901855469 565.9302673339844 908.7957763671875 551.9568481445312L912.4403991699219 76.37875366210938Q912.5511779785156 61.923492431640625 892.1275024414062 51.888702392578125Q871.7038269042969 41.853912353515625 842.7047119140625 41.63177490234375L-144.26516723632812 34.071441650390625Q-174.26425170898438 33.841644287109375 -194.83932495117188 43.5623779296875Q-215.41439819335938 53.283111572265625 -215.52517700195312 67.73837280273438Z" fill="#000000" stroke="none" transform="scale(1,-1) translate(0,-256)" /><path d="M328.54454040527344 665.2606964111328 142.96707153320312 555.1036071777344Q142.96707153320312 555.1036071777344 124.07015991210938 551.1946182250977Q105.17324829101562 547.2856292724609 75.82440948486328 538.4348602294922Q46.47557067871094 529.5840911865234 14.193351745605469 515.2838287353516Q-18.0888671875 500.9835662841797 -45.905975341796875 480.00391387939453Q-73.72308349609375 459.0242614746094 -88.75015258789062 429.61024475097656Q-103.537109375 401.6405944824219 -104.47953796386719 377.6776809692383Q-105.42196655273438 353.7147674560547 -99.73827362060547 336.07176208496094Q-94.05458068847656 318.4287567138672 -87.60353088378906 308.45066833496094Q-81.15248107910156 298.4725799560547 -81.15248107910156 298.4725799560547Q-81.15248107910156 298.4725799560547 -95.73035430908203 293.1034698486328Q-110.3082275390625 287.73435974121094 -131.94542694091797 276.4884262084961Q-153.58262634277344 265.24249267578125 -175.25383758544922 247.6940155029297Q-196.925048828125 230.14553833007812 -211.23178100585938 205.0646209716797Q-230.925048828125 171.97344970703125 -232.16761779785156 146.205078125Q-233.41018676757812 120.43670654296875 -227.739501953125 105.7644271850586Q-222.06881713867188 91.09214782714844 -222.06881713867188 91.09214782714844L150.81512451171875 29.105361938476562Q180.40908813476562 24.185775756835938 203.09278106689453 35.628814697265625Q225.77647399902344 47.07185363769531 229.37815856933594 68.73735046386719Z" fill="#000000" stroke="none" transform="scale(1,-1) translate(0,-256)" /><path d="M1201 264Q1201 264 1177.0 273.5Q1153 283 1106.5 286.0Q1060 289 991 270Q940 256 898.5 225.5Q857 195 827.0 162.0Q797 129 781.5 105.5Q766 82 766 82Q766 82 749.0 85.0Q732 88 701.5 87.0Q671 86 629.5 74.0Q588 62 538 32Q481 -3 444.0 -45.0Q407 -87 386.0 -126.0Q365 -165 356.5 -190.0Q348 -215 348 -215H1131Q1160 -215 1180.5 -194.5Q1201 -174 1201 -144Z" fill="#000000" stroke="none" transform="scale(1,-1) translate(0,-256)" /></svg>