<?xml version="1.0" encoding="utf-8" ?>
<svg baseProfile="full" height="256" version="1.1" width="256" xmlns="http://www.w3.org/2000/svg" xmlns:ev="http://www.w3.org/2001/xml-events" xmlns:xlink="http://www.w3.org/1999/xlink"><defs /><path d="M768 814Q768 814 775.0 804.5Q782 795 789.5 786.5Q797 778 799 778Q801 779 816.5 786.0Q832 793 846.5 799.5Q861 806 861 806Q861 806 864.0 787.5Q867 769 870.5 745.0Q874 721 877.5 702.5Q881 684 883 682Q884 681 901.0 683.5Q918 686 939.5 689.5Q961 693 977.5 696.0Q994 699 994 699Q994 699 994.0 692.0Q994 685 994 673Q994 667 992.5 654.5Q991 642 990.0 632.0Q989 622 989 622L1034 610Q1034 610 1034.5 625.5Q1035 641 1035.5 660.0Q1036 679 1036 690Q1036 700 1036.0 714.0Q1036 728 1035.0 739.5Q1034 751 1032 752Q1029 753 1011.0 750.0Q993 747 971 744Q949 741 932.5 738.0Q916 735 916 735Q916 735 914.0 748.0Q912 761 909 783Q907 807 902.5 832.0Q898 857 893 860Q888 864 872.0 859.0Q856 854 840 848Q830 844 812.5 836.0Q795 828 781.5 821.0Q768 814 768 814Z" fill="#ff99b7" stroke="none" transform="scale(1,-1) translate(0,-256)" /><path d="M1141 351Q1141 351 1148.5 339.5Q1156 328 1164 315Q1173 303 1183.5 284.5Q1194 266 1193 262Q1192 260 1177.5 251.0Q1163 242 1144.5 231.0Q1126 220 1111.5 212.0Q1097 204 1097 204Q1097 204 1103.5 192.0Q1110 180 1118.0 163.5Q1126 147 1132.0 133.5Q1138 120 1137 117Q1134 111 1117.0 103.5Q1100 96 1092 93Q1087 90 1072.5 84.5Q1058 79 1045.5 74.5Q1033 70 1033 70L1022 110L1078 137Q1078 137 1071.5 148.0Q1065 159 1057.0 174.0Q1049 189 1043.0 201.5Q1037 214 1039 217Q1040 219 1055.5 228.5Q1071 238 1091.0 249.0Q1111 260 1126.0 268.5Q1141 277 1141 277L1111 322Z" fill="#ff99b7" stroke="none" transform="scale(1,-1) translate(0,-256)" /><path d="M481 -130 514 -108 554 -151Q554 -151 565.0 -141.0Q576 -131 590.5 -117.5Q605 -104 617.0 -93.5Q629 -83 631 -83Q632 -82 643.5 -92.5Q655 -103 670.0 -116.0Q685 -129 695.5 -139.5Q706 -150 706 -150L747 -98L784 -119Q784 -119 774.0 -130.5Q764 -142 750.5 -157.5Q737 -173 725.0 -185.0Q713 -197 710 -197Q707 -198 694.5 -188.5Q682 -179 667.5 -166.0Q653 -153 642.5 -143.5Q632 -134 632 -134Q632 -134 621.5 -144.0Q611 -154 596.5 -167.5Q582 -181 570.0 -191.5Q558 -202 556 -202Q552 -202 538.0 -189.0Q524 -176 515 -168Q510 -162 501.5 -153.0Q493 -144 487.0 -137.0Q481 -130 481 -130Z" fill="#ff99b7" stroke="none" transform="scale(1,-1) translate(0,-256)" /><path d="M138 361Q138 361 147.0 355.0Q156 349 165.0 342.5Q174 336 175 336Q175 335 169.5 326.5Q164 318 156.5 307.0Q149 296 143.0 287.5Q137 279 137 279Q137 279 149.5 270.5Q162 262 178.5 250.0Q195 238 207.5 228.5Q220 219 221 217Q221 215 215.5 202.0Q210 189 202.5 173.0Q195 157 189.0 145.0Q183 133 183 133L249 110L237 70Q237 70 221.5 75.0Q206 80 185.0 87.5Q164 95 148.0 101.5Q132 108 131 112Q130 116 136.0 130.5Q142 145 150.0 162.5Q158 180 164.0 193.0Q170 206 170 206Q170 206 156.5 215.5Q143 225 125.5 237.5Q108 250 94.0 260.5Q80 271 80 273Q80 275 89.0 288.5Q98 302 109.5 319.0Q121 336 129.5 348.5Q138 361 138 361Z" fill="#ff99b7" stroke="none" transform="scale(1,-1) translate(0,-256)" /><path d="M248 634H293L285 714Q285 714 301.0 710.5Q317 707 338.0 703.0Q359 699 375.5 696.0Q392 693 393 694Q395 694 399.0 709.5Q403 725 408.5 745.0Q414 765 417.5 780.0Q421 795 421 795L495 761L509 800Q509 800 493.5 807.5Q478 815 457.0 825.0Q436 835 418.5 842.0Q401 849 397 846Q393 844 387.0 828.0Q381 812 375.5 792.0Q370 772 366.0 757.0Q362 742 362 742Q362 742 345.5 745.5Q329 749 306.5 753.0Q284 757 265.5 758.5Q247 760 242 756Q239 754 239.5 735.5Q240 717 242.0 694.0Q244 671 246.5 653.5Q249 636 248 634Z" fill="#ff99b7" stroke="none" transform="scale(1,-1) translate(0,-256)" /><path d="M506 475Q518 475 535.0 466.5Q552 458 552 429Q551 402 535.5 393.5Q520 385 506 385Q495 385 479.0 393.5Q463 402 462 426Q461 450 475.0 462.5Q489 475 506 475Z" fill="#ff99b7" stroke="none" transform="scale(1,-1) translate(0,-256)" /><path d="M593 432Q593 448 604.0 463.0Q615 478 638 479Q661 479 674.0 462.5Q687 446 686 429Q685 412 674.5 398.5Q664 385 642 385Q619 384 606.5 397.5Q594 411 593 432Z" fill="#ff99b7" stroke="none" transform="scale(1,-1) translate(0,-256)" /><path d="M722 435Q721 452 733.0 466.5Q745 481 767 480Q788 480 800.0 465.5Q812 451 812 435Q811 420 799.5 406.0Q788 392 768 393Q749 393 736.0 404.0Q723 415 722 435Z" fill="#ff99b7" stroke="none" transform="scale(1,-1) translate(0,-256)" /><path d="M726 305Q727 328 741.0 339.5Q755 351 770 350Q788 350 800.0 338.0Q812 326 813 307Q814 288 802.5 274.5Q791 261 773 260Q754 260 740.0 271.5Q726 283 726 305Z" fill="#ff99b7" stroke="none" transform="scale(1,-1) translate(0,-256)" /><path d="M641 343Q659 342 672.0 329.5Q685 317 684 295Q683 273 670.0 263.0Q657 253 640 254Q622 254 609.5 265.0Q597 276 596 295Q595 315 607.5 329.5Q620 344 641 343Z" fill="#ff99b7" stroke="none" transform="scale(1,-1) translate(0,-256)" /><path d="M507 350Q528 350 542.0 337.0Q556 324 556 303Q556 281 543.0 268.5Q530 256 508 256Q487 257 476.0 270.5Q465 284 464 302Q463 320 476.0 335.0Q489 350 507 350Z" fill="#ff99b7" stroke="none" transform="scale(1,-1) translate(0,-256)" /><path d="M635 207Q653 206 665.5 195.0Q678 184 679 160Q679 139 665.0 129.5Q651 120 635 120Q623 120 608.0 129.0Q593 138 593 161Q592 181 605.0 194.0Q618 207 635 207Z" fill="#ff99b7" stroke="none" transform="scale(1,-1) translate(0,-256)" /><path d="M1099 491Q1099 491 1114.5 484.0Q1130 477 1150.0 466.0Q1170 455 1185.5 444.5Q1201 434 1201 427Q1201 419 1190.0 399.0Q1179 379 1159.0 354.5Q1139 330 1111 308Q1083 287 1055.0 269.0Q1027 251 1008.0 240.5Q989 230 989 230Q989 230 996.0 217.0Q1003 204 1013.5 183.0Q1024 162 1032.5 138.5Q1041 115 1044 95Q1048 67 1048.0 33.5Q1048 0 1046.0 -25.5Q1044 -51 1042 -54Q1038 -58 1017.0 -58.5Q996 -59 982 -59Q974 -58 959.0 -57.0Q944 -56 932.5 -54.5Q921 -53 921 -53Q921 -53 919.5 -64.5Q918 -76 915.5 -90.5Q913 -105 912 -113Q909 -126 901.5 -145.5Q894 -165 889 -168Q886 -169 858.5 -164.5Q831 -160 794.0 -148.5Q757 -137 726 -117Q695 -98 672.0 -77.5Q649 -57 637.0 -43.0Q625 -29 625 -29Q625 -29 611.0 -47.0Q597 -65 572.5 -89.0Q548 -113 518 -131Q471 -158 431.0 -168.0Q391 -178 384 -176Q380 -175 374.5 -161.5Q369 -148 365.0 -131.5Q361 -115 359 -105Q358 -96 357.0 -81.5Q356 -67 355.5 -56.0Q355 -45 355 -45Q355 -45 343.0 -48.5Q331 -52 315.5 -56.0Q300 -60 287 -61Q268 -64 251.0 -65.0Q234 -66 230 -63Q228 -61 224.5 -34.5Q221 -8 221.0 30.5Q221 69 230 106Q238 142 255.5 170.5Q273 199 287.5 215.5Q302 232 302 232Q302 232 278.5 239.5Q255 247 220.0 265.0Q185 283 153 314Q104 360 88.5 392.5Q73 425 74 431Q74 434 84.0 442.0Q94 450 106.5 458.5Q119 467 126 472Q138 479 154.5 488.0Q171 497 171 497Q171 497 165.0 507.0Q159 517 151.0 530.0Q143 543 139 552Q132 565 125.5 579.5Q119 594 120 598Q121 601 144.5 613.0Q168 625 203.0 637.5Q238 650 272 653Q307 656 342.5 653.5Q378 651 402.0 647.0Q426 643 426 643Q426 643 429.5 664.5Q433 686 441.0 717.5Q449 749 464 779Q478 809 495.5 835.5Q513 862 528.0 878.5Q543 895 549 896Q556 897 567.5 889.5Q579 882 590.5 873.0Q602 864 607 860Q614 853 628.0 840.5Q642 828 642 828Q642 828 650.0 835.5Q658 843 668.5 853.0Q679 863 686 868Q696 877 708.5 887.0Q721 897 726 897Q730 897 747.5 881.5Q765 866 786.0 838.5Q807 811 821 773Q842 716 850.5 682.5Q859 649 859 649Q859 649 884.0 652.5Q909 656 945.0 657.0Q981 658 1016 649Q1050 641 1080.5 629.0Q1111 617 1130.5 606.5Q1150 596 1151 590Q1151 586 1143.5 570.5Q1136 555 1125.5 536.5Q1115 518 1107.0 504.5Q1099 491 1099 491ZM1036 318Q1073 339 1096.5 362.0Q1120 385 1131.0 401.0Q1142 417 1142 417Q1142 417 1126.5 424.5Q1111 432 1091 441Q1071 450 1050.5 457.5Q1030 465 1030 465Q1030 465 1036.5 475.5Q1043 486 1051.0 499.5Q1059 513 1064 521Q1071 533 1080.0 551.0Q1089 569 1089 569Q1089 569 1055.5 582.5Q1022 596 970 604Q935 610 900.5 608.0Q866 606 843.5 602.0Q821 598 821 598Q821 598 816.0 627.0Q811 656 791 716Q772 777 750.5 805.0Q729 833 729 833Q729 833 717.0 823.5Q705 814 692 801Q683 792 672.0 780.5Q661 769 653.0 760.0Q645 751 645 751Q645 751 630.0 766.0Q615 781 599 795Q583 810 569.5 820.0Q556 830 556 830Q556 830 539.0 801.5Q522 773 505 730Q497 709 491.5 682.5Q486 656 483.0 631.5Q480 607 478.5 591.0Q477 575 477 575Q477 575 456.5 582.0Q436 589 401.5 597.0Q367 605 324 607Q282 609 248.5 602.0Q215 595 195.5 587.0Q176 579 176 579Q176 579 185.0 564.0Q194 549 205.5 529.5Q217 510 226.0 494.5Q235 479 234 478Q234 477 218.0 467.0Q202 457 180.5 444.5Q159 432 143.0 423.0Q127 414 127 414Q127 414 138.5 398.0Q150 382 172.5 358.5Q195 335 227 313Q260 290 297.5 275.5Q335 261 361.0 254.0Q387 247 387 247Q387 247 371.0 229.5Q355 212 334.5 186.0Q314 160 300 135Q287 109 280.0 75.5Q273 42 272.0 16.5Q271 -9 274 -11Q276 -12 294.5 -9.5Q313 -7 336.0 -3.5Q359 0 377.5 2.5Q396 5 398 4Q400 2 401.5 -16.5Q403 -35 405.0 -58.0Q407 -81 409.0 -99.0Q411 -117 413 -118Q418 -119 450.0 -105.0Q482 -91 523 -61Q551 -41 574.5 -14.5Q598 12 612.5 31.5Q627 51 627 51Q627 51 636.5 34.0Q646 17 665.5 -8.0Q685 -33 714 -56Q743 -80 775.0 -94.5Q807 -109 830.0 -115.5Q853 -122 855 -120Q859 -118 863.0 -99.0Q867 -80 869 -68Q871 -59 873.5 -42.5Q876 -26 878.5 -12.5Q881 1 881 1Q881 1 892.5 -0.5Q904 -2 918.0 -4.0Q932 -6 938 -7Q945 -9 960.5 -10.0Q976 -11 989.0 -12.0Q1002 -13 1002 -13Q1002 -13 1002.5 26.0Q1003 65 984 125Q971 164 953.0 194.0Q935 224 921.5 240.5Q908 257 908 257Q908 257 945.0 272.0Q982 287 1036 318Z" fill="#ff99b7" stroke="none" transform="scale(1,-1) translate(0,-256)" /></svg>