<?xml version="1.0" encoding="utf-8" ?>
<svg baseProfile="full" height="256" version="1.1" width="256" xmlns="http://www.w3.org/2000/svg" xmlns:ev="http://www.w3.org/2001/xml-events" xmlns:xlink="http://www.w3.org/1999/xlink"><defs /><path d="M152 349 105 419 198 487 149 596 271 642 257 739 373 721 406 821 488 788 540 857 642 797 723 867 790 797 876 832 899 709 1010 732 1003 636 1119 591 1081 480 1172 428 1122 357 1163 273 1066 211 1109 131 1021 94 1030 -31 905 -26 865 -145 753 -119 709 -171 629 -104 547 -173 499 -115 394 -145 364 -28 249 -31 250 90 163 127 193 211 111 273Z" fill="#ffffff" stroke="none" transform="scale(1,-1) translate(0,-256)" /></svg>