<?xml version="1.0" encoding="utf-8" ?>
<svg baseProfile="full" height="256" version="1.1" width="256" xmlns="http://www.w3.org/2000/svg" xmlns:ev="http://www.w3.org/2001/xml-events" xmlns:xlink="http://www.w3.org/1999/xlink"><defs /><path d="M715 -27Q788 -27 856.5 0.5Q925 28 978 79Q984 84 989.5 78.5Q995 73 991 66Q962 31 927 2Q854 -57 769.0 -81.5Q684 -106 597.0 -97.5Q510 -89 431.0 -48.0Q352 -7 293 65Q234 137 209.5 222.5Q185 308 193.5 395.0Q202 482 243.0 560.5Q284 639 356 698Q428 757 513.5 782.0Q599 807 686.0 798.0Q773 789 852.0 748.0Q931 707 990 635Q995 629 990 624Q984 617 977 623Q924 673 856.0 700.0Q788 727 715 727Q637 727 568.5 698.0Q500 669 448.5 617.0Q397 565 367.5 496.5Q338 428 338 350Q338 272 367.5 204.0Q397 136 448.5 84.0Q500 32 568.5 2.5Q637 -27 715 -27Z" fill="#fafafa" stroke="none" transform="scale(1,-1) translate(0,-256)" /></svg>