<?xml version="1.0" encoding="utf-8" ?>
<svg baseProfile="full" height="256" version="1.1" width="256" xmlns="http://www.w3.org/2000/svg" xmlns:ev="http://www.w3.org/2001/xml-events" xmlns:xlink="http://www.w3.org/1999/xlink"><defs /><path d="M947 492Q944 498 938 500Q926 503 923 491L895 402Q893 393 884 394H790Q783 395 780 389Q773 380 782 373L860 319Q868 315 865 306L835 217Q833 211 837 206Q844 197 854 204L929 259Q936 264 943 259L1018 204Q1023 200 1029 202Q1040 206 1037 217L1007 306Q1003 315 1011 319L1087 374Q1092 378 1092 383Q1092 395 1080 395L986 394Q978 395 975 403Z" fill="#ffffff" stroke="none" transform="scale(1,-1) translate(0,-256)" /></svg>