<?xml version="1.0" encoding="utf-8" ?>
<svg baseProfile="full" height="256" version="1.1" width="256" xmlns="http://www.w3.org/2000/svg" xmlns:ev="http://www.w3.org/2001/xml-events" xmlns:xlink="http://www.w3.org/1999/xlink"><defs /><path d="M1014 530Q1018 517 1017.0 503.5Q1016 490 1008 478Q1002 468 992.0 461.0Q982 454 961 452Q958 452 954 452Q934 452 922.0 460.0Q910 468 900.0 478.0Q890 488 875 496Q855 505 844.0 524.0Q833 543 838 562Q842 576 850.5 585.5Q859 595 868 600Q860 593 853.5 576.5Q847 560 851.0 543.5Q855 527 879 518Q893 513 901.0 507.0Q909 501 917 494Q943 473 964.0 479.0Q985 485 993 496Q1007 516 1004.5 534.0Q1002 552 998 559Q999 559 1005.0 549.5Q1011 540 1014 530Z" fill="#558b2f" stroke="none" transform="scale(1,-1) translate(0,-256)" /></svg>