<?xml version="1.0" encoding="utf-8" ?>
<svg baseProfile="full" height="256" version="1.1" width="256" xmlns="http://www.w3.org/2000/svg" xmlns:ev="http://www.w3.org/2001/xml-events" xmlns:xlink="http://www.w3.org/1999/xlink"><defs /><path d="M669 643Q702 639 720.5 649.5Q739 660 746.5 673.0Q754 686 753 691Q759 680 755.5 662.5Q752 645 742 636Q728 622 710.5 615.0Q693 608 670 611Q636 616 613.5 632.5Q591 649 578 666Q557 693 560.5 714.0Q564 735 567 741Q570 747 576.5 755.5Q583 764 588 766Q580 757 576 741Q572 722 578.5 708.5Q585 695 597 682Q602 677 619.5 662.0Q637 647 669 643Z" fill="#df7f14" stroke="none" transform="scale(1,-1) translate(0,-256)" /></svg>