<?xml version="1.0" encoding="utf-8" ?>
<svg baseProfile="full" height="256" version="1.1" width="256" xmlns="http://www.w3.org/2000/svg" xmlns:ev="http://www.w3.org/2001/xml-events" xmlns:xlink="http://www.w3.org/1999/xlink"><defs /><path d="M1175.0326232910156 326.29534912109375Q1175.0326232910156 437.435791015625 1133.3549575805664 534.6836776733398Q1091.6772918701172 631.9315643310547 1017.7688980102539 705.839958190918Q943.8605041503906 779.7483520507812 846.6126174926758 821.4260177612305Q749.3647308349609 863.1036834716797 637.1128845214844 863.1036834716797Q525.9724426269531 863.1036834716797 428.7245559692383 821.4260177612305Q331.47666931152344 779.7483520507812 257.56827545166016 705.839958190918Q183.65988159179688 631.9315643310547 141.98221588134766 534.6836776733398Q100.30455017089844 437.435791015625 100.30455017089844 326.29534912109375Q100.30455017089844 214.0435028076172 141.98221588134766 116.79561614990234Q183.65988159179688 19.5477294921875 257.56827545166016 -54.36066436767578Q331.47666931152344 -128.26905822753906 428.7245559692383 -169.94672393798828Q525.9724426269531 -211.6243896484375 637.1128845214844 -211.6243896484375Q749.3647308349609 -211.6243896484375 846.6126174926758 -169.94672393798828Q943.8605041503906 -128.26905822753906 1017.7688980102539 -54.36066436767578Q1091.6772918701172 19.5477294921875 1133.3549575805664 116.79561614990234Q1175.0326232910156 214.0435028076172 1175.0326232910156 326.29534912109375Z" fill="#d68f30" stroke="none" transform="scale(1,-1) translate(0,-256)" /></svg>