<?xml version="1.0" encoding="utf-8" ?>
<svg baseProfile="full" height="256" version="1.1" width="256" xmlns="http://www.w3.org/2000/svg" xmlns:ev="http://www.w3.org/2001/xml-events" xmlns:xlink="http://www.w3.org/1999/xlink"><defs /><path d="M1175.0326232910156 374.67034912109375Q1175.0326232910156 485.810791015625 1133.3549575805664 583.0586776733398Q1091.6772918701172 680.3065643310547 1017.7688980102539 754.214958190918Q943.8605041503906 828.1233520507812 846.6126174926758 869.8010177612305Q749.3647308349609 911.4786834716797 637.1128845214844 911.4786834716797Q525.9724426269531 911.4786834716797 428.7245559692383 869.8010177612305Q331.47666931152344 828.1233520507812 257.56827545166016 754.214958190918Q183.65988159179688 680.3065643310547 141.98221588134766 583.0586776733398Q100.30455017089844 485.810791015625 100.30455017089844 374.67034912109375Q100.30455017089844 262.4185028076172 141.98221588134766 165.17061614990234Q183.65988159179688 67.9227294921875 257.56827545166016 -5.985664367675781Q331.47666931152344 -79.89405822753906 428.7245559692383 -121.57172393798828Q525.9724426269531 -163.2493896484375 637.1128845214844 -163.2493896484375Q749.3647308349609 -163.2493896484375 846.6126174926758 -121.57172393798828Q943.8605041503906 -79.89405822753906 1017.7688980102539 -5.985664367675781Q1091.6772918701172 67.9227294921875 1133.3549575805664 165.17061614990234Q1175.0326232910156 262.4185028076172 1175.0326232910156 374.67034912109375Z" fill="#fff176" stroke="none" transform="scale(1,-1) translate(0,-256)" /><path d="M638 912Q749 912 846.5 870.0Q944 828 1018.0 754.0Q1092 680 1133.5 582.5Q1175 485 1175 374Q1175 263 1133.5 165.5Q1092 68 1018.0 -6.0Q944 -80 846.5 -122.0Q749 -164 638 -164Q526 -164 428.5 -122.0Q331 -80 257.0 -6.0Q183 68 141.5 165.5Q100 263 100 374Q100 485 141.5 582.5Q183 680 257.0 754.0Q331 828 428.5 870.0Q526 912 638 912ZM638 -116Q739 -116 828.0 -78.0Q917 -40 984.0 27.5Q1051 95 1089.0 184.0Q1127 273 1127 374Q1127 476 1089.0 564.5Q1051 653 984.0 720.5Q917 788 828.0 826.0Q739 864 638 864Q536 864 447.0 826.0Q358 788 291.0 720.5Q224 653 186.0 564.5Q148 476 148 374Q148 273 186.0 184.0Q224 95 291.0 27.5Q358 -40 447.0 -78.0Q536 -116 638 -116Z" fill="#fff176" stroke="none" transform="scale(1,-1) translate(0,-256)" /><path d="M876 86 864 49H825L856 26L844 -11L876 12L907 -11L895 26L926 49H888Z" fill="#fff176" stroke="none" transform="scale(1,-1) translate(0,-256)" /><path d="M1035.938003540039 292.906005859375 1023.9380035400391 255.906005859375H984.9380035400391L1015.9380035400391 232.906005859375L1003.9380035400391 195.906005859375L1035.938003540039 218.906005859375L1066.938003540039 195.906005859375L1054.938003540039 232.906005859375L1085.938003540039 255.906005859375H1047.938003540039Z" fill="#fff176" stroke="none" transform="scale(1,-1) translate(0,-256)" /><path d="M1031.531005859375 553.625 1019.531005859375 516.625H980.531005859375L1011.531005859375 493.625L999.531005859375 456.625L1031.531005859375 479.625L1062.531005859375 456.625L1050.531005859375 493.625L1081.531005859375 516.625H1043.531005859375Z" fill="#fff176" stroke="none" transform="scale(1,-1) translate(0,-256)" /><path d="M881.718994140625 765.218994140625 869.718994140625 728.218994140625H830.718994140625L861.718994140625 705.218994140625L849.718994140625 668.218994140625L881.718994140625 691.218994140625L912.718994140625 668.218994140625L900.718994140625 705.218994140625L931.718994140625 728.218994140625H893.718994140625Z" fill="#fff176" stroke="none" transform="scale(1,-1) translate(0,-256)" /><path d="M638.343994140625 9.218994140625 626.343994140625 -27.781005859375H587.343994140625L618.343994140625 -50.781005859375L606.343994140625 -87.781005859375L638.343994140625 -64.781005859375L669.343994140625 -87.781005859375L657.343994140625 -50.781005859375L688.343994140625 -27.781005859375H650.343994140625Z" fill="#fff176" stroke="none" transform="scale(1,-1) translate(0,-256)" /><path d="M638.343994140625 844.4380035400391 626.343994140625 807.4380035400391H587.343994140625L618.343994140625 784.4380035400391L606.343994140625 747.4380035400391L638.343994140625 770.4380035400391L669.343994140625 747.4380035400391L657.343994140625 784.4380035400391L688.343994140625 807.4380035400391H650.343994140625Z" fill="#fff176" stroke="none" transform="scale(1,-1) translate(0,-256)" /><path d="M399.0010070800781 86.0 411.0010070800781 49.0H450.0010070800781L419.0010070800781 26.0L431.0010070800781 -11.0L399.0010070800781 12.0L368.0010070800781 -11.0L380.0010070800781 26.0L349.0010070800781 49.0H387.0010070800781Z" fill="#fff176" stroke="none" transform="scale(1,-1) translate(0,-256)" /><path d="M239.06300354003906 292.906005859375 251.06300354003906 255.906005859375H290.06300354003906L259.06300354003906 232.906005859375L271.06300354003906 195.906005859375L239.06300354003906 218.906005859375L208.06300354003906 195.906005859375L220.06300354003906 232.906005859375L189.06300354003906 255.906005859375H227.06300354003906Z" fill="#fff176" stroke="none" transform="scale(1,-1) translate(0,-256)" /><path d="M243.468994140625 553.625 255.468994140625 516.625H294.468994140625L263.468994140625 493.625L275.468994140625 456.625L243.468994140625 479.625L212.468994140625 456.625L224.468994140625 493.625L193.468994140625 516.625H231.468994140625Z" fill="#fff176" stroke="none" transform="scale(1,-1) translate(0,-256)" /><path d="M394 765 406 728H444L413 705L425 668L394 691L362 668L374 705L343 728H382Z" fill="#fff176" stroke="none" transform="scale(1,-1) translate(0,-256)" /><path d="M934 523 935 482Q935 473 925 473H350Q340 473 340 482L341 523Q341 529 345 531L638 697L930 531Q934 529 934 523Z" fill="#fff176" stroke="none" transform="scale(1,-1) translate(0,-256)" /><path d="M778.7275390625 549.6428527832031 496.0922546386719 549.6905975341797 637.7648010253906 629.9951019287109Z" fill="#fff176" stroke="none" transform="scale(1,-1) translate(0,-256)" /><path d="M913 181Q922 181 927 175L965 132Q967 130 966.0 127.5Q965 125 962 125H313Q310 125 309.0 127.5Q308 130 310 132L348 175Q354 181 362 181Z" fill="#fff176" stroke="none" transform="scale(1,-1) translate(0,-256)" /><path d="M878 242Q888 242 888 252V402Q888 412 878 412H844Q834 412 834 402V252Q834 242 844 242Z" fill="#fff176" stroke="none" transform="scale(1,-1) translate(0,-256)" /><path d="M889 423Q896 423 898 430L903 445Q904 449 901.0 453.0Q898 457 894 457H828Q824 457 821.0 453.0Q818 449 819 445L824 430Q826 423 833 423Z" fill="#fff176" stroke="none" transform="scale(1,-1) translate(0,-256)" /><path d="M833 231Q826 231 824 224L819 209Q818 205 821.0 201.0Q824 197 828 197H894Q898 197 901.0 201.0Q904 205 903 209L898 224Q896 231 889 231Z" fill="#fff176" stroke="none" transform="scale(1,-1) translate(0,-256)" /><path d="M442 242Q452 242 452 252V402Q452 412 442 412H408Q398 412 398 402V252Q398 242 408 242Z" fill="#fff176" stroke="none" transform="scale(1,-1) translate(0,-256)" /><path d="M452.968994140625 423.0Q459.968994140625 423.0 461.968994140625 430.0L466.968994140625 445.0Q467.968994140625 449.0 464.968994140625 453.0Q461.968994140625 457.0 457.968994140625 457.0H391.968994140625Q387.968994140625 457.0 384.968994140625 453.0Q381.968994140625 449.0 382.968994140625 445.0L387.968994140625 430.0Q389.968994140625 423.0 396.968994140625 423.0Z" fill="#fff176" stroke="none" transform="scale(1,-1) translate(0,-256)" /><path d="M397.06199645996094 231.0Q390.06199645996094 231.0 388.06199645996094 224.0L383.06199645996094 209.0Q382.06199645996094 205.0 385.06199645996094 201.0Q388.06199645996094 197.0 392.06199645996094 197.0H458.06199645996094Q462.06199645996094 197.0 465.06199645996094 201.0Q468.06199645996094 205.0 467.06199645996094 209.0L462.06199645996094 224.0Q460.06199645996094 231.0 453.06199645996094 231.0Z" fill="#fff176" stroke="none" transform="scale(1,-1) translate(0,-256)" /><path d="M587.375 242.0Q597.375 242.0 597.375 252.0V402.0Q597.375 412.0 587.375 412.0H553.375Q543.375 412.0 543.375 402.0V252.0Q543.375 242.0 553.375 242.0Z" fill="#fff176" stroke="none" transform="scale(1,-1) translate(0,-256)" /><path d="M598.281005859375 423.0Q605.281005859375 423.0 607.281005859375 430.0L612.281005859375 445.0Q613.281005859375 449.0 610.281005859375 453.0Q607.281005859375 457.0 603.281005859375 457.0H537.281005859375Q533.281005859375 457.0 530.281005859375 453.0Q527.281005859375 449.0 528.281005859375 445.0L533.281005859375 430.0Q535.281005859375 423.0 542.281005859375 423.0Z" fill="#fff176" stroke="none" transform="scale(1,-1) translate(0,-256)" /><path d="M542.375 231.0Q535.375 231.0 533.375 224.0L528.375 209.0Q527.375 205.0 530.375 201.0Q533.375 197.0 537.375 197.0H603.375Q607.375 197.0 610.375 201.0Q613.375 205.0 612.375 209.0L607.375 224.0Q605.375 231.0 598.375 231.0Z" fill="#fff176" stroke="none" transform="scale(1,-1) translate(0,-256)" /><path d="M732.6880035400391 242.0Q742.6880035400391 242.0 742.6880035400391 252.0V402.0Q742.6880035400391 412.0 732.6880035400391 412.0H698.6880035400391Q688.6880035400391 412.0 688.6880035400391 402.0V252.0Q688.6880035400391 242.0 698.6880035400391 242.0Z" fill="#fff176" stroke="none" transform="scale(1,-1) translate(0,-256)" /><path d="M743.593994140625 423.0Q750.593994140625 423.0 752.593994140625 430.0L757.593994140625 445.0Q758.593994140625 449.0 755.593994140625 453.0Q752.593994140625 457.0 748.593994140625 457.0H682.593994140625Q678.593994140625 457.0 675.593994140625 453.0Q672.593994140625 449.0 673.593994140625 445.0L678.593994140625 430.0Q680.593994140625 423.0 687.593994140625 423.0Z" fill="#fff176" stroke="none" transform="scale(1,-1) translate(0,-256)" /><path d="M687.6880035400391 231.0Q680.6880035400391 231.0 678.6880035400391 224.0L673.6880035400391 209.0Q672.6880035400391 205.0 675.6880035400391 201.0Q678.6880035400391 197.0 682.6880035400391 197.0H748.6880035400391Q752.6880035400391 197.0 755.6880035400391 201.0Q758.6880035400391 205.0 757.6880035400391 209.0L752.6880035400391 224.0Q750.6880035400391 231.0 743.6880035400391 231.0Z" fill="#fff176" stroke="none" transform="scale(1,-1) translate(0,-256)" /></svg>