<?xml version="1.0" encoding="utf-8" ?>
<svg baseProfile="full" height="256" version="1.1" width="256" xmlns="http://www.w3.org/2000/svg" xmlns:ev="http://www.w3.org/2001/xml-events" xmlns:xlink="http://www.w3.org/1999/xlink"><defs /><path d="M261 632 312 677Q312 677 321.0 695.5Q330 714 343.0 741.5Q356 769 368.5 796.5Q381 824 389.0 843.0Q397 862 396 863Q395 865 383.0 867.0Q371 869 357.5 870.5Q344 872 338 872Q320 871 285 848Q274 841 262.0 828.5Q250 816 241.0 805.0Q232 794 230 790Q228 784 229.0 771.0Q230 758 230 730Q231 709 233.0 687.0Q235 665 237.0 649.5Q239 634 240 632Q240 630 250.5 631.0Q261 632 261 632Z" fill="#6d4c42" stroke="none" transform="scale(1,-1) translate(0,-256)" /><path d="M301 523Q301 524 295.5 518.0Q290 512 284.0 504.5Q278 497 276 494Q274 492 260.0 483.0Q246 474 230.0 465.0Q214 456 204 453Q197 451 186.5 430.5Q176 410 166.0 384.0Q156 358 149.0 337.5Q142 317 142 314Q142 307 132.0 308.5Q122 310 117 311Q111 312 106.0 325.5Q101 339 98 346Q95 353 87.0 375.5Q79 398 80 414Q82 425 96.5 449.0Q111 473 135.5 497.0Q160 521 192 530Q224 540 248.5 537.5Q273 535 287.0 529.0Q301 523 301 523Z" fill="#6d4c42" stroke="none" transform="scale(1,-1) translate(0,-256)" /><path d="M594 772Q600 772 615.5 761.5Q631 751 646.0 743.0Q661 735 665 739Q671 746 657.5 757.5Q644 769 637 774Q630 779 615.5 788.5Q601 798 592 800Q583 803 567.0 803.5Q551 804 547 802Q544 801 533.5 792.5Q523 784 512.5 773.5Q502 763 496 756Q482 737 470.5 716.5Q459 696 458 683Q457 676 460.0 656.5Q463 637 468.0 614.0Q473 591 477.5 574.0Q482 557 483 556Q486 552 493.5 554.0Q501 556 507 559Q510 561 509.5 576.5Q509 592 507.0 614.0Q505 636 504.0 655.5Q503 675 506 684Q509 693 521.5 707.5Q534 722 549.5 737.0Q565 752 577.5 762.5Q590 773 594 772Z" fill="#6d4c42" stroke="none" transform="scale(1,-1) translate(0,-256)" /><path d="M903 783Q903 783 898.5 763.0Q894 743 888.0 713.0Q882 683 875.5 652.0Q869 621 864.5 598.5Q860 576 860 571Q860 566 844.0 549.5Q828 533 807.5 514.0Q787 495 771.5 481.5Q756 468 756 468Q756 468 755.0 471.0Q754 474 748 489Q745 497 743.5 518.0Q742 539 741.5 564.0Q741 589 741.5 610.5Q742 632 743 640Q745 655 753.0 679.0Q761 703 771.5 725.0Q782 747 790 758Q802 774 826.5 786.0Q851 798 866 796Q881 795 892.0 789.0Q903 783 903 783Z" fill="#6d4c42" stroke="none" transform="scale(1,-1) translate(0,-256)" /></svg>