<?xml version="1.0" encoding="utf-8" ?>
<svg baseProfile="full" height="256" version="1.1" width="256" xmlns="http://www.w3.org/2000/svg" xmlns:ev="http://www.w3.org/2001/xml-events" xmlns:xlink="http://www.w3.org/1999/xlink"><defs /><path d="M249 756H281Q281 756 285.5 743.5Q290 731 296.5 715.0Q303 699 307.5 686.0Q312 673 313 671Q313 670 307.5 654.5Q302 639 294.0 617.5Q286 596 277.0 574.5Q268 553 262.0 537.5Q256 522 255 521Q254 520 241.0 515.5Q228 511 212.0 507.0Q196 503 184.0 499.5Q172 496 172 496Q172 496 164.0 508.5Q156 521 154 528Q152 533 146.0 550.5Q140 568 139.5 597.5Q139 627 155 668Q171 710 193.5 728.5Q216 747 232.5 751.5Q249 756 249 756Z" fill="#df0e28" stroke="none" transform="scale(1,-1) translate(0,-256)" /></svg>