<?xml version="1.0" encoding="utf-8" ?>
<svg baseProfile="full" height="256" version="1.1" width="256" xmlns="http://www.w3.org/2000/svg" xmlns:ev="http://www.w3.org/2001/xml-events" xmlns:xlink="http://www.w3.org/1999/xlink"><defs /><path d="M711 213Q709 221 718.5 234.0Q728 247 754 244Q780 242 794.5 229.0Q809 216 808 206Q807 196 798.5 190.0Q790 184 780 181Q771 178 758.0 176.5Q745 175 740 179Q735 183 724.5 193.0Q714 203 711 213Z" fill="#f0a25b" stroke="none" transform="scale(1,-1) translate(0,-256)" /><path d="M564 -13Q562 0 573.0 14.5Q584 29 600.0 37.5Q616 46 629 40Q635 38 650.0 29.5Q665 21 666 6Q667 -7 654.0 -22.0Q641 -37 627 -40Q600 -44 583.0 -37.5Q566 -31 564 -13Z" fill="#f0a25b" stroke="none" transform="scale(1,-1) translate(0,-256)" /><path d="M695 -60Q689 -50 694.5 -38.0Q700 -26 709.5 -17.5Q719 -9 725 -10Q733 -11 745.5 -20.5Q758 -30 756 -46Q753 -60 741.0 -67.5Q729 -75 715.0 -74.0Q701 -73 695 -60Z" fill="#f0a25b" stroke="none" transform="scale(1,-1) translate(0,-256)" /></svg>