<?xml version="1.0" encoding="utf-8" ?>
<svg baseProfile="full" height="256" version="1.1" width="256" xmlns="http://www.w3.org/2000/svg" xmlns:ev="http://www.w3.org/2001/xml-events" xmlns:xlink="http://www.w3.org/1999/xlink"><defs /><path d="M99 192Q100 205 106.0 206.5Q112 208 118.0 205.0Q124 202 127 202Q130 202 148.0 204.5Q166 207 190.0 210.5Q214 214 235.0 217.5Q256 221 265 223Q276 226 295.0 231.5Q314 237 349.0 248.5Q384 260 443 282Q487 298 537.5 328.0Q588 358 637.5 394.5Q687 431 728.5 467.0Q770 503 796 531Q862 601 893.5 653.0Q925 705 935 720Q942 730 941.0 735.0Q940 740 938.5 744.0Q937 748 941 754Q947 763 962.0 763.0Q977 763 980 742Q982 729 970.5 704.0Q959 679 939.5 647.0Q920 615 897.5 583.5Q875 552 854.5 526.5Q834 501 821 488Q808 476 780.0 452.5Q752 429 715.0 401.0Q678 373 638.5 344.5Q599 316 561.5 293.0Q524 270 496 256Q455 237 407.0 221.0Q359 205 313.0 193.5Q267 182 230.0 175.0Q193 168 175 166Q138 163 118.0 170.5Q98 178 99 192Z" fill="#feebcc" stroke="none" transform="scale(1,-1) translate(0,-256)" /></svg>