<?xml version="1.0" encoding="utf-8" ?>
<svg baseProfile="full" height="256" version="1.1" width="256" xmlns="http://www.w3.org/2000/svg" xmlns:ev="http://www.w3.org/2001/xml-events" xmlns:xlink="http://www.w3.org/1999/xlink"><defs /><path d="M617 615Q614 622 604.0 636.0Q594 650 594 650L547 683L472 693L413 685L341 598L339 481L373 410L422 385Q422 385 428.0 397.5Q434 410 434 414Q434 417 420.0 427.5Q406 438 391.5 459.5Q377 481 373 517Q367 572 396.0 612.0Q425 652 484 653Q517 654 540.5 639.0Q564 624 578.5 609.5Q593 595 598 595Q612 594 614.5 604.5Q617 615 617 615Z" fill="#fefef6" stroke="none" transform="scale(1,-1) translate(0,-256)" /><path d="M229 364Q229 364 229.5 382.0Q230 400 231.5 423.0Q233 446 237 461Q241 477 255.5 489.5Q270 502 283.5 509.5Q297 517 297 518Q298 518 310.5 519.5Q323 521 339.5 522.0Q356 523 369.0 524.0Q382 525 382 525Q383 525 393.0 517.5Q403 510 416.5 500.5Q430 491 440.0 484.0Q450 477 450 477Q450 477 444.0 463.5Q438 450 430 450Q427 450 418.5 458.0Q410 466 395.5 474.5Q381 483 361.0 485.5Q341 488 313 477Q285 466 272.0 447.5Q259 429 254.5 410.0Q250 391 250.0 377.0Q250 363 249 362Q246 361 237.5 362.5Q229 364 229 364Z" fill="#fefef6" stroke="none" transform="scale(1,-1) translate(0,-256)" /><path d="M821 767Q824 772 823.0 780.0Q822 788 822 788Q822 788 809.0 788.5Q796 789 778.0 789.5Q760 790 745.0 790.5Q730 791 726 791Q720 791 706.5 782.0Q693 773 678.0 758.5Q663 744 653 729Q643 714 639.0 689.0Q635 664 634.5 641.5Q634 619 634 613Q634 608 641.5 595.0Q649 582 658.5 567.0Q668 552 675.5 539.5Q683 527 684 524Q685 519 700.5 513.0Q716 507 731.0 501.5Q746 496 747 495Q748 494 750.5 505.0Q753 516 748 521Q744 527 733.5 532.0Q723 537 703 558Q688 574 680.5 599.0Q673 624 674.5 651.5Q676 679 687.0 703.0Q698 727 720 741Q746 757 767.5 760.5Q789 764 803.0 763.5Q817 763 821 767Z" fill="#fefef6" stroke="none" transform="scale(1,-1) translate(0,-256)" /></svg>