<?xml version="1.0" encoding="utf-8" ?>
<svg baseProfile="full" height="256" version="1.1" width="256" xmlns="http://www.w3.org/2000/svg" xmlns:ev="http://www.w3.org/2001/xml-events" xmlns:xlink="http://www.w3.org/1999/xlink"><defs /><path d="M365 664Q345 643 332.0 617.5Q319 592 316 540Q314 494 327.5 462.0Q341 430 360.5 411.0Q380 392 396.0 383.5Q412 375 414 376Q420 377 422.0 381.5Q424 386 427 392Q428 396 415.0 401.0Q402 406 375 434Q362 448 354.0 475.0Q346 502 346.0 534.0Q346 566 356.5 596.0Q367 626 391 647Q417 671 447.0 676.5Q477 682 503.5 677.5Q530 673 546 665Q563 657 578.0 644.0Q593 631 603.5 620.5Q614 610 616 609Q619 609 620.0 617.5Q621 626 623 630Q623 632 615.0 642.0Q607 652 596.0 662.5Q585 673 576 679Q550 696 513.0 705.0Q476 714 436.5 706.5Q397 699 365 664Z" fill="#d45b89" stroke="none" transform="scale(1,-1) translate(0,-256)" /><path d="M211 368Q215 367 224.5 365.0Q234 363 234 363Q234 363 233.5 379.0Q233 395 238.0 419.0Q243 443 258.0 465.5Q273 488 304 501Q334 514 359.5 510.5Q385 507 404.5 496.5Q424 486 435.5 476.5Q447 467 449 467Q452 469 454.5 480.0Q457 491 457 491Q457 491 444.0 503.5Q431 516 407.5 528.5Q384 541 352.5 544.0Q321 547 284 528Q250 512 234.5 485.0Q219 458 214.0 431.0Q209 404 210.0 386.0Q211 368 211 368Z" fill="#d45b89" stroke="none" transform="scale(1,-1) translate(0,-256)" /><path d="M626 695Q636 734 657.5 757.0Q679 780 705.5 791.5Q732 803 756.5 806.0Q781 809 798.0 808.0Q815 807 817 806Q821 802 821.5 795.0Q822 788 822 788Q822 788 806.5 787.0Q791 786 767.5 781.0Q744 776 719.5 763.0Q695 750 677.0 726.5Q659 703 655 665Q649 619 662.5 587.5Q676 556 697.0 537.5Q718 519 734.0 511.0Q750 503 750 503L748 489Q748 489 739.5 488.0Q731 487 714.0 492.5Q697 498 671 519Q634 551 624.0 598.5Q614 646 626 695Z" fill="#d45b89" stroke="none" transform="scale(1,-1) translate(0,-256)" /></svg>