<?xml version="1.0" encoding="utf-8" ?>
<svg baseProfile="full" height="256" version="1.1" width="256" xmlns="http://www.w3.org/2000/svg" xmlns:ev="http://www.w3.org/2001/xml-events" xmlns:xlink="http://www.w3.org/1999/xlink"><defs /><path d="M114 195 133 178Q133 178 155.0 182.0Q177 186 207.5 191.5Q238 197 264.0 201.5Q290 206 297 206Q303 206 326.5 214.0Q350 222 381.5 234.5Q413 247 443.5 259.0Q474 271 495.0 279.5Q516 288 517 289Q518 289 536.5 302.5Q555 316 584.0 337.0Q613 358 645.0 382.0Q677 406 705.5 427.0Q734 448 752.0 461.5Q770 475 770 475L789 696L855 793Q855 793 852.5 808.5Q850 824 839.0 842.0Q828 860 801 868Q777 876 760.0 870.0Q743 864 734.0 856.0Q725 848 725 848Q725 848 718.5 859.0Q712 870 699.0 885.5Q686 901 667.0 913.5Q648 926 624 930Q585 935 566.5 924.0Q548 913 548 913Q548 913 534.0 919.5Q520 926 502 917Q484 909 480.0 890.0Q476 871 477.5 855.0Q479 839 479 839Q479 839 464.5 841.0Q450 843 430.0 840.0Q410 837 395 821Q379 805 374.5 786.0Q370 767 371.0 753.5Q372 740 372 740Q372 740 367.0 733.0Q362 726 357 710Q353 700 352.5 686.0Q352 672 353.0 661.5Q354 651 354 651L375 443L354 400Q354 400 345.0 406.5Q336 413 321.0 421.0Q306 429 290.0 433.0Q274 437 260 431Q242 424 236.5 411.0Q231 398 231.5 387.5Q232 377 232 377Q232 377 224.0 380.0Q216 383 203.5 382.0Q191 381 177 367Q163 354 162.0 333.0Q161 312 165.0 296.0Q169 280 169 280Q169 280 161.0 280.5Q153 281 143 274Q129 263 125.0 252.0Q121 241 118 233Q114 222 114.0 208.5Q114 195 114 195Z" fill="#81c13e" stroke="none" transform="scale(1,-1) translate(0,-256)" /></svg>