<?xml version="1.0" encoding="utf-8" ?>
<svg baseProfile="full" height="256" version="1.1" width="256" xmlns="http://www.w3.org/2000/svg" xmlns:ev="http://www.w3.org/2001/xml-events" xmlns:xlink="http://www.w3.org/1999/xlink"><defs /><path d="M954 727 905 636 782 498Q782 498 783.0 514.5Q784 531 786.0 554.0Q788 577 790.5 598.0Q793 619 795 630Q799 651 801.0 664.0Q803 677 817 705Q831 733 853.0 758.5Q875 784 892 786Q901 787 911.5 778.5Q922 770 932.0 758.0Q942 746 948.0 736.5Q954 727 954 727Z" fill="#9c6c3b" stroke="none" transform="scale(1,-1) translate(0,-256)" /></svg>