<?xml version="1.0" encoding="utf-8" ?>
<svg baseProfile="full" height="256" version="1.1" width="256" xmlns="http://www.w3.org/2000/svg" xmlns:ev="http://www.w3.org/2001/xml-events" xmlns:xlink="http://www.w3.org/1999/xlink"><defs /><path d="M270 626 268 608 386 599 470 819Q470 819 456.0 833.0Q442 847 429 854Q416 862 401.5 864.5Q387 867 384 866Q383 866 371.5 859.0Q360 852 346.5 842.5Q333 833 325 826Q313 816 301.5 804.5Q290 793 282 770Q278 758 275.5 734.5Q273 711 271.5 686.0Q270 661 270.0 643.5Q270 626 270 626Z" fill="#a1713e" stroke="none" transform="scale(1,-1) translate(0,-256)" /></svg>