<?xml version="1.0" encoding="utf-8" ?>
<svg baseProfile="full" height="256" version="1.1" width="256" xmlns="http://www.w3.org/2000/svg" xmlns:ev="http://www.w3.org/2001/xml-events" xmlns:xlink="http://www.w3.org/1999/xlink"><defs /><path d="M864 716Q861 707 854.5 698.0Q848 689 836 686Q824 683 812.5 687.5Q801 692 784 708Q777 715 755.5 737.5Q734 760 706.0 789.5Q678 819 650.0 847.0Q622 875 602.0 894.0Q582 913 578 913Q569 913 547.0 895.0Q525 877 488 842Q452 807 423.5 779.0Q395 751 401 728Q409 699 429.0 691.0Q449 683 478 675Q489 672 506.5 663.5Q524 655 539.5 641.0Q555 627 561.0 606.0Q567 585 556.0 557.0Q545 529 510 493Q474 457 446.0 445.0Q418 433 397.5 437.0Q377 441 363.0 454.0Q349 467 341.0 481.0Q333 495 329 503Q321 521 316.5 547.0Q312 573 303 583Q293 593 275.5 598.0Q258 603 240 591Q233 585 216.5 569.5Q200 554 179.5 534.0Q159 514 140.0 493.5Q121 473 109.0 458.0Q97 443 98 439Q99 435 115.5 415.5Q132 396 157.0 367.0Q182 338 211 309Q235 283 258.5 260.0Q282 237 297.5 219.5Q313 202 312 193Q312 179 295.5 169.0Q279 159 255.5 150.0Q232 141 208.0 127.5Q184 114 167 93Q150 72 145.5 40.0Q141 8 151.0 -23.5Q161 -55 188.5 -76.5Q216 -98 263 -98Q310 -98 337.0 -84.0Q364 -70 378.5 -50.0Q393 -30 402.5 -10.5Q412 9 423 19Q445 40 466.0 33.0Q487 26 499 13Q504 7 523.0 -13.5Q542 -34 568.5 -61.5Q595 -89 620.5 -116.0Q646 -143 663.5 -161.0Q681 -179 683 -181Q689 -185 718.5 -158.0Q748 -131 791 -92Q833 -53 853.0 -25.5Q873 2 857 29Q847 47 827.5 52.5Q808 58 785.0 63.0Q762 68 741 83Q709 106 722.0 147.0Q735 188 774 229Q800 257 818.5 271.5Q837 286 856.0 288.0Q875 290 902 281Q928 272 936.5 249.5Q945 227 945.5 201.5Q946 176 950 158Q955 132 977.0 128.5Q999 125 1015 133Q1022 136 1039.0 153.0Q1056 170 1077.5 193.5Q1099 217 1120.0 240.5Q1141 264 1155.0 281.0Q1169 298 1171 302Q1172 305 1159.5 322.0Q1147 339 1125.5 363.5Q1104 388 1078.5 415.0Q1053 442 1029.5 467.0Q1006 492 989.0 509.5Q972 527 968 531Q953 545 952.0 563.0Q951 581 974 603Q985 614 996.5 616.5Q1008 619 1020.5 620.5Q1033 622 1048.5 629.5Q1064 637 1085 657Q1113 685 1120.5 719.5Q1128 754 1118.5 786.5Q1109 819 1086 841Q1063 863 1032.0 872.0Q1001 881 969.0 875.0Q937 869 912 848Q887 827 878.5 801.0Q870 775 868.5 752.0Q867 729 864 716Z" fill="#000000" stroke="none" transform="scale(1,-1) translate(0,-256)" /></svg>