<?xml version="1.0" encoding="utf-8" ?>
<svg baseProfile="full" height="256" version="1.1" width="256" xmlns="http://www.w3.org/2000/svg" xmlns:ev="http://www.w3.org/2001/xml-events" xmlns:xlink="http://www.w3.org/1999/xlink"><defs /><path d="M637 573Q655 573 667.5 576.0Q680 579 684 574Q688 568 677.0 557.0Q666 546 637 546Q611 546 599.0 556.0Q587 566 590 572Q594 579 607.5 576.0Q621 573 637 573Z" fill="#785446" stroke="none" transform="scale(1,-1) translate(0,-256)" /><path d="M677 707Q668 710 672 718Q673 722 683.5 725.0Q694 728 712 726Q732 723 740.0 715.5Q748 708 745 704Q741 700 731.5 703.0Q722 706 710 707Q697 709 690.0 707.0Q683 705 677 707Z" fill="#785446" stroke="none" transform="scale(1,-1) translate(0,-256)" /></svg>