<?xml version="1.0" encoding="utf-8" ?>
<svg baseProfile="full" height="256" version="1.1" width="256" xmlns="http://www.w3.org/2000/svg" xmlns:ev="http://www.w3.org/2001/xml-events" xmlns:xlink="http://www.w3.org/1999/xlink"><defs /><path d="M468.72300720214844 677.7796325683594Q468.72300720214844 677.7796325683594 469.2123107910156 670.6847305297852Q469.7016143798828 663.5898284912109 471.65882873535156 652.3358459472656Q473.1267395019531 640.5925598144531 475.81790924072266 631.2957916259766Q478.5090789794922 621.9990234375 478.5090789794922 621.9990234375L501.50634765625 593.1301116943359Q501.50634765625 593.1301116943359 494.1667938232422 592.1515045166016Q486.8272399902344 591.1728973388672 476.79651641845703 592.8854598999023Q466.7657928466797 594.5980224609375 457.4690246582031 603.1608352661133Q448.17225646972656 611.7236480712891 445.23643493652344 630.3171844482422Q442.3006134033203 646.4642028808594 445.48108673095703 655.7609710693359Q448.66156005859375 665.0577392578125 454.0438995361328 669.9507751464844Q459.4262390136719 674.8438110351562 464.07462310791016 676.3117218017578Q468.72300720214844 677.7796325683594 468.72300720214844 677.7796325683594Z" fill="#e59502" stroke="none" transform="scale(1,-1) translate(0,-256)" /><path d="M794.2161102294922 674.3315124511719Q794.2155151367188 673.8425140380859 793.7191696166992 668.2184371948242Q793.2228240966797 662.5943603515625 792.7232055664062 654.2807922363281Q792.2235870361328 645.9672241210938 791.235954284668 638.8755569458008Q790.2483215332031 631.7838897705078 789.2657470703125 628.8487091064453Q787.7918853759766 624.4459381103516 779.2202453613281 620.034538269043Q770.6486053466797 615.6231384277344 762.5682525634766 612.679328918457Q754.4878997802734 609.7355194091797 754.4878997802734 609.7355194091797Q754.4878997802734 609.7355194091797 758.8868713378906 604.3618927001953Q763.2858428955078 598.9882659912109 769.1536178588867 593.8609237670898Q775.0213928222656 588.7335815429688 778.9374084472656 588.7383422851562Q781.8744201660156 588.7419128417969 787.994384765625 589.7273483276367Q794.1143493652344 590.7127838134766 801.2174835205078 595.1223983764648Q808.3206176757812 599.5320129394531 813.7167434692383 609.0740280151367Q819.1128692626953 618.6160430908203 820.1127014160156 635.732177734375Q821.6032257080078 653.826904296875 815.9843673706055 662.3775329589844Q810.3655090332031 670.9281616210938 803.5151596069336 673.1203231811523Q796.6648101806641 675.3124847412109 794.2161102294922 674.3315124511719Z" fill="#e59502" stroke="none" transform="scale(1,-1) translate(0,-256)" /></svg>