<?xml version="1.0" encoding="utf-8" ?>
<svg baseProfile="full" height="256" version="1.1" width="256" xmlns="http://www.w3.org/2000/svg" xmlns:ev="http://www.w3.org/2001/xml-events" xmlns:xlink="http://www.w3.org/1999/xlink"><defs /><path d="M520 114H521L800 96Q800 96 800.5 87.0Q801 78 802 75Q804 70 834 57Q846 52 863.0 44.0Q880 36 893.0 29.0Q906 22 906 22L841 -84L521 -132L370 9L414 30Q414 30 424.5 34.0Q435 38 445 43Q456 48 472.0 56.0Q488 64 490 68Q492 73 492.0 84.5Q492 96 492 96Z" fill="#7c7c7c" stroke="none" transform="scale(1,-1) translate(0,-256)" /></svg>