<?xml version="1.0" encoding="utf-8" ?>
<svg baseProfile="full" height="256" version="1.1" width="256" xmlns="http://www.w3.org/2000/svg" xmlns:ev="http://www.w3.org/2001/xml-events" xmlns:xlink="http://www.w3.org/1999/xlink"><defs /><path d="M799 175Q799 175 805.5 177.5Q812 180 818 183Q825 186 831.0 190.0Q837 194 837 194Q837 194 834.0 204.5Q831 215 827.5 228.5Q824 242 823 251Q822 260 819.0 273.5Q816 287 811.5 297.0Q807 307 799 305Q792 303 791.5 290.0Q791 277 792.5 261.5Q794 246 795 238Q795 229 796.0 214.0Q797 199 798.0 187.0Q799 175 799 175Z" fill="#da4c00" stroke="none" transform="scale(1,-1) translate(0,-256)" /><path d="M453 175Q453 175 458.5 172.5Q464 170 474 168Q482 165 487.0 163.5Q492 162 492 162Q492 162 491.5 180.0Q491 198 491 208Q491 215 491.5 234.0Q492 253 492.0 271.5Q492 290 491 295Q490 302 483.5 303.0Q477 304 474 299Q471 294 468.0 274.0Q465 254 463 236Q461 218 457.0 196.5Q453 175 453 175Z" fill="#da4c00" stroke="none" transform="scale(1,-1) translate(0,-256)" /><path d="M637 391Q672 392 692.0 403.0Q712 414 722 421Q729 426 742.0 436.0Q755 446 765.5 454.5Q776 463 776 463Q776 463 762.0 467.5Q748 472 735 475Q723 478 709.5 481.5Q696 485 696 485Q696 485 691.5 475.0Q687 465 674.5 454.5Q662 444 639 444Q616 443 602.5 453.0Q589 463 583.0 472.5Q577 482 577 482Q577 482 563.0 479.5Q549 477 536 474Q523 470 513.0 466.0Q503 462 503 462Q503 462 515.5 449.5Q528 437 548 424Q566 411 585.5 401.0Q605 391 637 391Z" fill="#da4c00" stroke="none" transform="scale(1,-1) translate(0,-256)" /></svg>