<?xml version="1.0" encoding="utf-8" ?>
<svg baseProfile="full" height="256" version="1.1" width="256" xmlns="http://www.w3.org/2000/svg" xmlns:ev="http://www.w3.org/2001/xml-events" xmlns:xlink="http://www.w3.org/1999/xlink"><defs /><path d="M1168 -145Q1186 -130 1187.0 -106.5Q1188 -83 1173 -66L480 657L385 569L1026 -193Q1041 -211 1064.5 -212.5Q1088 -214 1106 -199Z" fill="#a06841" stroke="none" transform="scale(1,-1) translate(0,-256)" /><path d="M394 766Q400 759 389.0 740.0Q378 721 356 700Q333 680 313.0 670.5Q293 661 287 668Q285 669 284.0 670.5Q283 672 282 673Q278 677 281 681Q290 697 313.0 723.5Q336 750 380 773Q384 776 388 772Z" fill="#a06841" stroke="none" transform="scale(1,-1) translate(0,-256)" /></svg>