<?xml version="1.0" encoding="utf-8" ?>
<svg baseProfile="full" height="256" version="1.1" width="256" xmlns="http://www.w3.org/2000/svg" xmlns:ev="http://www.w3.org/2001/xml-events" xmlns:xlink="http://www.w3.org/1999/xlink"><defs /><path d="M459 484Q468 489 474.5 483.0Q481 477 483 472Q485 467 486.5 456.5Q488 446 477 441Q465 436 459.5 443.5Q454 451 453 457Q452 462 451.0 471.0Q450 480 459 484Z" fill="#fffeff" stroke="none" transform="scale(1,-1) translate(0,-256)" /><path d="M502 501Q502 518 521 520Q529 521 536.5 515.5Q544 510 544 502Q543 495 538.0 488.5Q533 482 523 482Q512 482 506.5 487.5Q501 493 502 501Z" fill="#fffeff" stroke="none" transform="scale(1,-1) translate(0,-256)" /><path d="M420 363Q425 358 423.5 347.5Q422 337 415 331Q408 325 397.0 322.0Q386 319 380 326Q373 333 376.0 343.0Q379 353 384 358Q392 366 402.5 368.5Q413 371 420 363Z" fill="#fffeff" stroke="none" transform="scale(1,-1) translate(0,-256)" /><path d="M449 367Q441 375 447 385Q450 389 455.5 391.0Q461 393 466 390Q471 387 471.0 380.5Q471 374 468 370Q464 366 458.5 365.0Q453 364 449 367Z" fill="#fffeff" stroke="none" transform="scale(1,-1) translate(0,-256)" /><path d="M391 288Q397 290 403.5 286.0Q410 282 411 273Q412 254 395 250Q388 249 383.0 253.5Q378 258 377 264Q375 270 378.0 278.5Q381 287 391 288Z" fill="#fffeff" stroke="none" transform="scale(1,-1) translate(0,-256)" /></svg>