<?xml version="1.0" encoding="utf-8" ?>
<svg baseProfile="full" height="256" version="1.1" width="256" xmlns="http://www.w3.org/2000/svg" xmlns:ev="http://www.w3.org/2001/xml-events" xmlns:xlink="http://www.w3.org/1999/xlink"><defs /><path d="M632 800Q632 800 656.0 818.0Q680 836 747 853Q764 857 789.5 860.5Q815 864 840.5 866.5Q866 869 883.5 870.5Q901 872 901 872L921 802L966 599L982 459L975 359L957 287L950 217L968 123L1000 20Q1000 20 1012.5 22.0Q1025 24 1042.5 25.5Q1060 27 1074 26Q1098 24 1120.5 18.5Q1143 13 1146 -1Q1147 -10 1140.0 -24.5Q1133 -39 1104.5 -58.0Q1076 -77 1014 -98Q952 -120 907.5 -123.0Q863 -126 838.0 -117.5Q813 -109 812 -97Q811 -91 809.0 -81.0Q807 -71 813.5 -58.0Q820 -45 847 -29Q874 -13 898.0 -4.0Q922 5 922 5Q922 5 916.0 29.0Q910 53 901.0 88.0Q892 123 881.0 157.0Q870 191 861 211Q847 238 833.5 253.5Q820 269 803.5 288.0Q787 307 764 343Q747 370 732.5 404.5Q718 439 706.5 470.5Q695 502 689.0 522.5Q683 543 683 543L668 515L600 386L545 301L485 235L424 190L371 134L290 -44Q290 -44 302.5 -52.0Q315 -60 333.5 -75.0Q352 -90 368 -110Q385 -131 384.5 -145.0Q384 -159 378.5 -165.5Q373 -172 373 -172Q373 -172 357.0 -175.5Q341 -179 309.5 -175.0Q278 -171 229 -149Q181 -126 145.5 -96.5Q110 -67 90.5 -43.5Q71 -20 70 -16Q70 -13 72.5 -4.5Q75 4 85.5 11.5Q96 19 118 20Q144 21 167.0 14.5Q190 8 205.0 1.0Q220 -6 220 -6Q220 -6 228.5 11.5Q237 29 248.0 53.0Q259 77 269.0 98.0Q279 119 283 126Q289 140 297.5 161.0Q306 182 305 214Q304 246 299.5 291.5Q295 337 303.5 399.0Q312 461 348 542Q359 566 376.0 599.0Q393 632 412.0 666.5Q431 701 448.0 731.5Q465 762 476.0 780.5Q487 799 487 799L552 787L644 740Z" fill="#e0e0e0" stroke="none" transform="scale(1,-1) translate(0,-256)" /></svg>