<?xml version="1.0" encoding="utf-8" ?>
<svg baseProfile="full" height="256" version="1.1" width="256" xmlns="http://www.w3.org/2000/svg" xmlns:ev="http://www.w3.org/2001/xml-events" xmlns:xlink="http://www.w3.org/1999/xlink"><defs /><path d="M1021 687Q1031 687 1037 695L1105 796Q1109 803 1107.5 810.5Q1106 818 1100 822Q1093 826 1085.5 825.0Q1078 824 1074 817L1005 716Q1001 710 1002.5 702.0Q1004 694 1011 690Q1015 687 1021 687Z" fill="#ff2a23" stroke="none" transform="scale(1,-1) translate(0,-256)" /><path d="M1045 630Q1048 630 1050 630L1193 672Q1201 674 1204.5 681.0Q1208 688 1206 695Q1204 703 1197.0 706.5Q1190 710 1183 708L1040 666Q1033 664 1029.0 657.5Q1025 651 1027 643Q1031 630 1045 630Z" fill="#ff2a23" stroke="none" transform="scale(1,-1) translate(0,-256)" /><path d="M1172 521Q1184 521 1189 533Q1192 540 1189.0 547.0Q1186 554 1179 557L1068 602Q1060 605 1053.0 602.0Q1046 599 1043 592Q1040 585 1043.0 577.5Q1046 570 1054 567L1165 522Q1168 521 1172 521Z" fill="#ff2a23" stroke="none" transform="scale(1,-1) translate(0,-256)" /></svg>