<?xml version="1.0" encoding="utf-8" ?>
<svg baseProfile="full" height="256" version="1.1" width="256" xmlns="http://www.w3.org/2000/svg" xmlns:ev="http://www.w3.org/2001/xml-events" xmlns:xlink="http://www.w3.org/1999/xlink"><defs /><path d="M181 553Q182 554 201.0 567.5Q220 581 249.5 601.0Q279 621 312.5 643.5Q346 666 375.5 686.0Q405 706 423.5 718.5Q442 731 442 731L837 733Q837 733 855.5 720.5Q874 708 903.0 688.0Q932 668 965.0 645.5Q998 623 1027.0 603.0Q1056 583 1075.0 569.5Q1094 556 1094 555Q1095 554 1095.0 538.5Q1095 523 1094.5 508.0Q1094 493 1092 491Q1092 491 1053.0 490.5Q1014 490 949.0 489.5Q884 489 803.0 489.0Q722 489 636.0 489.0Q550 489 469.0 489.0Q388 489 323.0 489.0Q258 489 219.5 489.5Q181 490 180 490Q179 491 178.5 505.5Q178 520 179.0 535.0Q180 550 181 553Z" fill="#94adbc" stroke="none" transform="scale(1,-1) translate(0,-256)" /><path d="M82 -143 1203 -144Q1203 -144 1203.0 -140.0Q1203 -136 1202 -130Q1201 -119 1179 -118Q1178 -118 1141.0 -118.0Q1104 -118 1041.0 -118.0Q978 -118 897.5 -118.0Q817 -118 727.5 -118.0Q638 -118 548.5 -118.5Q459 -119 378.0 -119.0Q297 -119 233.5 -119.0Q170 -119 133.0 -119.0Q96 -119 94 -119Q82 -119 82 -128Q82 -131 81.5 -136.5Q81 -142 82 -143Z" fill="#94adbc" stroke="none" transform="scale(1,-1) translate(0,-256)" /><path d="M1151 -77Q1151 -77 1151.5 -70.5Q1152 -64 1151 -60Q1150 -56 1144.5 -53.5Q1139 -51 1133 -51Q1131 -51 1089.5 -51.0Q1048 -51 978.0 -51.0Q908 -51 821.5 -51.5Q735 -52 643.0 -52.5Q551 -53 464.0 -53.0Q377 -53 307.0 -53.5Q237 -54 195.0 -54.0Q153 -54 150 -54Q141 -54 138.5 -57.5Q136 -61 136 -64Q136 -66 136.0 -72.0Q136 -78 136 -78Z" fill="#94adbc" stroke="none" transform="scale(1,-1) translate(0,-256)" /><path d="M1052 -14 224 -16 230 8H1045Z" fill="#94adbc" stroke="none" transform="scale(1,-1) translate(0,-256)" /><path d="M220 309 230 278 1045 281 1057 306Z" fill="#94adbc" stroke="none" transform="scale(1,-1) translate(0,-256)" /><path d="M202 343 1077 348Q1077 348 1081.5 350.5Q1086 353 1088 357Q1090 361 1089.0 365.0Q1088 369 1088 369L196 367Q196 367 194.5 364.0Q193 361 194 356Q194 351 198.0 347.0Q202 343 202 343Z" fill="#94adbc" stroke="none" transform="scale(1,-1) translate(0,-256)" /><path d="M133 461Q133 461 133.5 456.0Q134 451 135 448Q136 445 141.5 441.5Q147 438 155 438Q156 438 197.5 438.0Q239 438 307.5 438.5Q376 439 461.0 439.5Q546 440 636.0 440.5Q726 441 810.5 441.0Q895 441 962.5 441.5Q1030 442 1070.0 442.0Q1110 442 1110 442Q1110 442 1111.5 442.0Q1113 442 1123 442Q1141 442 1143 450Q1143 453 1143.0 458.5Q1143 464 1143 464Z" fill="#94adbc" stroke="none" transform="scale(1,-1) translate(0,-256)" /><path d="M642 813Q693 814 740.5 788.5Q788 763 817.5 715.5Q847 668 845 604Q842 540 812.5 495.5Q783 451 736.5 428.5Q690 406 637 407Q591 407 546.5 431.0Q502 455 472.5 498.5Q443 542 441 601Q439 660 466.0 708.0Q493 756 539.0 784.5Q585 813 642 813Z" fill="#94adbc" stroke="none" transform="scale(1,-1) translate(0,-256)" /></svg>