<?xml version="1.0" encoding="utf-8" ?>
<svg baseProfile="full" height="256" version="1.1" width="256" xmlns="http://www.w3.org/2000/svg" xmlns:ev="http://www.w3.org/2001/xml-events" xmlns:xlink="http://www.w3.org/1999/xlink"><defs /><path d="M351 344 324 279 325 8 347 -53H388L411 8L413 278L386 344Z" fill="#54636e" stroke="none" transform="scale(1,-1) translate(0,-256)" /><path d="M537 345 747 346 774 281 773 8 753 -52 525 -53 505 8 502 280Z" fill="#54636e" stroke="none" transform="scale(1,-1) translate(0,-256)" /><path d="M894 347 868 281 869 8 885 -52 936 -51 952 8V281L925 347Z" fill="#54636e" stroke="none" transform="scale(1,-1) translate(0,-256)" /></svg>