<?xml version="1.0" encoding="utf-8" ?>
<svg baseProfile="full" height="256" version="1.1" width="256" xmlns="http://www.w3.org/2000/svg" xmlns:ev="http://www.w3.org/2001/xml-events" xmlns:xlink="http://www.w3.org/1999/xlink"><defs /><path d="M609 747Q609 747 597.0 745.0Q585 743 569.5 735.5Q554 728 541.5 712.5Q529 697 528 670Q526 634 544.5 614.5Q563 595 591.5 585.0Q620 575 649 566Q677 557 683.0 543.5Q689 530 678.5 520.0Q668 510 647 512Q627 513 607.5 524.5Q588 536 575.0 546.5Q562 557 561 556Q559 556 548.0 546.5Q537 537 526.5 528.0Q516 519 516 517Q517 515 528.5 502.5Q540 490 557 478Q575 466 592.5 461.0Q610 456 610 456Q610 456 609.5 442.0Q609 428 610 425Q611 424 628.0 423.5Q645 423 661.5 423.5Q678 424 679 425Q681 426 680.0 440.0Q679 454 679 454Q679 454 690.0 456.0Q701 458 716.0 465.5Q731 473 743.0 488.5Q755 504 756 531Q758 564 741.5 583.5Q725 603 701.0 613.5Q677 624 653.5 629.5Q630 635 617 639Q600 645 595.0 658.0Q590 671 600.0 681.5Q610 692 638 690Q655 689 670.0 680.0Q685 671 695.0 662.0Q705 653 707 653Q710 652 720.0 660.0Q730 668 739.5 676.5Q749 685 749 686Q750 689 741.5 700.0Q733 711 719 722Q707 731 691.0 738.0Q675 745 675 745Q675 745 675.5 755.0Q676 765 675.5 775.5Q675 786 674 787Q671 790 642 790Q612 790 610 787Q608 785 608.0 775.5Q608 766 608.5 756.5Q609 747 609 747Z" fill="#024fac" stroke="none" transform="scale(1,-1) translate(0,-256)" /></svg>