<?xml version="1.0" encoding="utf-8" ?>
<svg baseProfile="full" height="256" version="1.1" width="256" xmlns="http://www.w3.org/2000/svg" xmlns:ev="http://www.w3.org/2001/xml-events" xmlns:xlink="http://www.w3.org/1999/xlink"><defs /><path d="M765 195Q776 155 790.0 119.0Q804 83 812.0 46.5Q820 10 814.5 -32.0Q809 -74 781 -128Q765 -159 739.5 -173.0Q714 -187 687.5 -186.5Q661 -186 643.0 -174.0Q625 -162 625 -139Q625 -135 624.5 -114.5Q624 -94 623.0 -68.0Q622 -42 621 -21Q619 25 602.5 57.0Q586 89 563.0 112.5Q540 136 516.5 155.5Q493 175 475 195Q439 239 420.5 274.0Q402 309 390.0 335.0Q378 361 362.0 376.0Q346 391 314 395Q306 396 285.0 398.5Q264 401 244.0 403.0Q224 405 218 405Q208 406 199.0 413.0Q190 420 188 433Q177 478 176.5 532.5Q176 587 180.0 638.5Q184 690 190.0 727.5Q196 765 200 775Q207 794 219.0 800.0Q231 806 239 806Q243 806 265.0 807.0Q287 808 320.5 810.0Q354 812 393.5 813.5Q433 815 472 815Q525 841 585.5 853.0Q646 865 705.0 866.0Q764 867 813 858Q870 876 908.5 877.0Q947 878 967.5 871.5Q988 865 993 863Q1018 850 1026.5 833.0Q1035 816 1036 798Q1037 783 1033.5 767.5Q1030 752 1021 742Q1069 728 1086.0 708.0Q1103 688 1105 658Q1109 624 1103.5 604.0Q1098 584 1077 562Q1127 537 1130 478Q1131 447 1121.5 426.5Q1112 406 1083 389Q1093 380 1100.0 362.5Q1107 345 1106 317Q1106 287 1094.5 262.5Q1083 238 1050 223Q1021 210 987.0 203.5Q953 197 926 193Q902 190 858.0 187.5Q814 185 765 195Z" fill="#ffca28" stroke="none" transform="scale(1,-1) translate(0,-256)" /></svg>