<?xml version="1.0" encoding="utf-8" ?>
<svg baseProfile="full" height="256" version="1.1" width="256" xmlns="http://www.w3.org/2000/svg" xmlns:ev="http://www.w3.org/2001/xml-events" xmlns:xlink="http://www.w3.org/1999/xlink"><defs /><path d="M1007 830Q1012 824 1011.5 816.5Q1011 809 1008 804Q1004 800 995.5 797.0Q987 794 976 798Q965 802 943.5 809.5Q922 817 886 818Q851 817 829.5 809.5Q808 802 797 798Q786 794 777.5 797.0Q769 800 765 804Q762 809 761.5 816.0Q761 823 766 830Q777 846 805.5 863.5Q834 881 886 881Q939 881 967.5 863.5Q996 846 1007 830Z" fill="#6d4c41" stroke="none" transform="scale(1,-1) translate(0,-256)" /></svg>