<?xml version="1.0" encoding="utf-8" ?>
<svg baseProfile="full" height="256" version="1.1" width="256" xmlns="http://www.w3.org/2000/svg" xmlns:ev="http://www.w3.org/2001/xml-events" xmlns:xlink="http://www.w3.org/1999/xlink"><defs /><path d="M988.406005859375 -42.656005859375 974.406005859375 823.343994140625Q997.406005859375 807.343994140625 1014.906005859375 805.343994140625Q1032.406005859375 803.343994140625 1042.406005859375 805.343994140625Q1046.406005859375 806.343994140625 1049.906005859375 803.343994140625Q1053.406005859375 800.343994140625 1053.406005859375 796.343994140625V-134.656005859375Q1053.406005859375 -141.656005859375 1042.406005859375 -145.156005859375Q1031.406005859375 -148.656005859375 1015.906005859375 -144.656005859375Q1000.406005859375 -140.656005859375 989.406005859375 -124.656005859375Q979.406005859375 -111.656005859375 979.906005859375 -92.156005859375Q980.406005859375 -72.656005859375 984.406005859375 -57.656005859375Q988.406005859375 -42.656005859375 988.406005859375 -42.656005859375Z" fill="#f5f5f5" stroke="none" transform="scale(1,-1) translate(0,-256)" /><path d="M563 43Q560 34 570.0 32.0Q580 30 585 35Q592 41 590.0 49.5Q588 58 581 61Q578 62 574.5 62.5Q571 63 568 66Q565 70 565.0 75.0Q565 80 562 83Q559 87 554.0 86.5Q549 86 546 83Q538 73 545 62Q551 56 559.5 56.5Q568 57 563 43Z" fill="#f5f5f5" stroke="none" transform="scale(1,-1) translate(0,-256)" /><path d="M523 204Q516 206 505.5 202.5Q495 199 489 205Q486 209 487.5 212.5Q489 216 492 219Q500 225 511 221Q515 219 517.5 218.0Q520 217 525 218Q528 219 531.0 220.5Q534 222 538 221Q543 220 545.5 214.0Q548 208 551 203Q559 189 574 191Q585 194 588.5 192.0Q592 190 594 179Q596 174 600.5 169.0Q605 164 602 160Q600 154 592.0 153.5Q584 153 584 147Q583 144 586.5 141.0Q590 138 591 135Q592 131 589.5 128.0Q587 125 583 125Q574 126 570.5 134.0Q567 142 565 149Q563 156 564 159Q565 161 567.5 163.0Q570 165 570 168Q571 172 566.5 175.0Q562 178 557 177Q553 175 550.0 171.5Q547 168 545 164Q539 154 529.5 154.5Q520 155 518 168Q518 176 523.0 180.5Q528 185 531 190Q533 194 530.0 198.0Q527 202 523 204Z" fill="#f5f5f5" stroke="none" transform="scale(1,-1) translate(0,-256)" /><path d="M498 113Q494 113 487.0 118.5Q480 124 484 130Q486 133 494.5 130.5Q503 128 507 129Q511 130 514.5 131.0Q518 132 522 133Q531 133 538.0 125.5Q545 118 540 110Q535 100 525 105Q522 106 519.5 108.5Q517 111 514 112Q510 114 506.0 113.0Q502 112 498 113Z" fill="#f5f5f5" stroke="none" transform="scale(1,-1) translate(0,-256)" /><path d="M446 195Q437 199 434.0 191.0Q431 183 431.5 172.5Q432 162 434 158Q436 145 445 149Q450 150 454.5 149.0Q459 148 464 147Q475 145 478.5 151.0Q482 157 478.0 163.0Q474 169 464 169Q461 168 458.0 167.0Q455 166 452 168Q449 171 450.5 175.0Q452 179 453 182Q455 192 446 195Z" fill="#f5f5f5" stroke="none" transform="scale(1,-1) translate(0,-256)" /><path d="M698 109Q703 113 709 112Q711 112 714.0 110.0Q717 108 720 109Q725 113 722.0 121.0Q719 129 728 131Q736 133 737 125Q737 123 736.0 120.5Q735 118 735 116Q736 111 739.0 107.0Q742 103 745 98Q748 94 750 92Q754 90 758.0 90.0Q762 90 765 87Q770 79 760.5 75.0Q751 71 745 74Q740 75 737.0 79.5Q734 84 729 85Q726 86 724.5 84.0Q723 82 725 79Q727 73 724.5 68.0Q722 63 717 66Q715 68 714.5 70.5Q714 73 712 75Q710 78 706.5 78.0Q703 78 700 79Q690 82 690.0 92.5Q690 103 698 109Z" fill="#f5f5f5" stroke="none" transform="scale(1,-1) translate(0,-256)" /><path d="M637 128Q628 133 629.5 139.5Q631 146 638 148Q642 148 645.0 148.5Q648 149 651 150Q655 151 659.5 153.5Q664 156 667 150Q669 145 666.5 140.0Q664 135 665 130Q666 124 671.5 120.0Q677 116 677 110Q677 105 672.5 102.0Q668 99 665 95Q661 90 662.0 85.0Q663 80 664 75Q663 68 655 71Q650 73 649.0 78.0Q648 83 646 87Q643 89 639.0 88.5Q635 88 631 89Q627 91 626.5 95.0Q626 99 628 103Q632 108 638.5 107.5Q645 107 650 108Q658 111 655 118Q653 123 647.0 124.5Q641 126 637 128Z" fill="#f5f5f5" stroke="none" transform="scale(1,-1) translate(0,-256)" /><path d="M634 174Q630 176 629.5 180.0Q629 184 627 187Q625 191 620.5 192.0Q616 193 613 196Q609 201 616 204Q626 208 635.5 205.5Q645 203 653 197Q658 195 663.5 194.0Q669 193 672 189Q676 184 672 180Q670 178 666.5 178.5Q663 179 659 178Q653 178 646.5 173.5Q640 169 634 174Z" fill="#f5f5f5" stroke="none" transform="scale(1,-1) translate(0,-256)" /><path d="M606 239Q603 242 602.5 247.5Q602 253 606 255Q616 258 626.0 251.5Q636 245 646 252Q647 253 648.5 254.5Q650 256 651 257Q656 260 662.0 260.0Q668 260 674 259Q674 263 674.5 270.0Q675 277 683 274Q689 272 687.5 264.5Q686 257 688 253Q690 249 693.0 246.5Q696 244 696 240Q694 233 687.5 234.0Q681 235 676 234Q672 234 668.5 232.5Q665 231 661 230Q657 230 653.0 231.0Q649 232 644 232Q635 233 624.0 232.0Q613 231 606 239Z" fill="#f5f5f5" stroke="none" transform="scale(1,-1) translate(0,-256)" /><path d="M616 316Q601 315 604.0 326.0Q607 337 618 338Q623 339 627.0 339.5Q631 340 634 344Q635 345 636.0 346.5Q637 348 638 349Q642 351 647 347Q652 338 651.0 328.0Q650 318 654 309Q654 307 655.0 304.5Q656 302 655 300Q655 297 652.0 294.5Q649 292 649 289Q650 285 653.0 283.0Q656 281 655 278Q655 273 648 275Q641 276 637.0 282.0Q633 288 634 294Q635 299 636.5 303.5Q638 308 636 312Q633 317 627.0 316.5Q621 316 616 316Z" fill="#f5f5f5" stroke="none" transform="scale(1,-1) translate(0,-256)" /><path d="M602 288Q597 291 592.5 296.5Q588 302 581 302Q569 301 571 290Q573 282 583.5 273.0Q594 264 603 268Q609 272 608.5 278.5Q608 285 602 288Z" fill="#f5f5f5" stroke="none" transform="scale(1,-1) translate(0,-256)" /><path d="M505 47Q506 50 508.0 60.0Q510 70 516 68Q523 65 523.5 55.0Q524 45 523 41Q519 33 512.0 35.5Q505 38 505 47Z" fill="#f5f5f5" stroke="none" transform="scale(1,-1) translate(0,-256)" /><path d="M433 298Q439 300 443.5 296.0Q448 292 452 294Q456 296 454.5 305.5Q453 315 454 322Q454 325 453 327Q451 329 449.0 329.0Q447 329 445 330Q440 331 438.0 336.0Q436 341 440 344Q444 350 452.5 349.0Q461 348 465 342Q471 333 467.5 322.0Q464 311 467 301Q470 294 475.5 286.5Q481 279 475 272Q471 269 465.0 270.5Q459 272 453 271Q442 269 438.0 257.5Q434 246 425 240Q417 234 406.5 239.5Q396 245 407 255Q414 258 420.5 262.5Q427 267 426 276Q424 282 425.0 288.5Q426 295 433 298Z" fill="#f5f5f5" stroke="none" transform="scale(1,-1) translate(0,-256)" /><path d="M501 276Q509 282 506.5 286.5Q504 291 500.0 295.0Q496 299 499 305Q503 314 514.0 310.5Q525 307 526 297Q526 294 525.0 291.0Q524 288 523 285Q522 280 524.5 276.0Q527 272 530 268Q532 263 525 259Q519 255 509.5 256.0Q500 257 495.5 262.0Q491 267 501 276Z" fill="#f5f5f5" stroke="none" transform="scale(1,-1) translate(0,-256)" /><path d="M567 258Q563 265 555.5 265.5Q548 266 547 257Q547 248 555.0 241.0Q563 234 570 230Q574 228 576 230Q579 233 576.0 237.5Q573 242 572 246Q570 249 569.0 252.0Q568 255 567 258Z" fill="#f5f5f5" stroke="none" transform="scale(1,-1) translate(0,-256)" /><path d="M491 357Q481 359 483.0 372.0Q485 385 490 389Q498 395 501.5 386.5Q505 378 516 379Q520 380 524.0 381.0Q528 382 532 381Q545 379 547.0 366.5Q549 354 543.0 345.5Q537 337 524 347Q521 350 518.0 355.0Q515 360 510 361Q505 363 500.5 359.5Q496 356 491 357Z" fill="#f5f5f5" stroke="none" transform="scale(1,-1) translate(0,-256)" /><path d="M579 384Q576 393 573 399Q570 402 565.5 406.0Q561 410 567 413Q578 418 587.5 410.5Q597 403 597 392Q598 387 598.5 381.5Q599 376 604 374Q606 374 607.5 374.0Q609 374 611 374Q614 373 615.5 369.0Q617 365 616 362Q612 356 605.0 354.0Q598 352 593 348Q591 346 589.5 343.5Q588 341 585 339Q578 336 572 343Q567 350 570.0 356.5Q573 363 577.0 370.0Q581 377 579 384Z" fill="#f5f5f5" stroke="none" transform="scale(1,-1) translate(0,-256)" /><path d="M684 393Q687 392 692.0 392.5Q697 393 700 392Q704 390 703.5 386.5Q703 383 699 381Q693 380 690.5 373.5Q688 367 690 362Q691 357 695.0 357.5Q699 358 701 361Q702 363 703.5 365.0Q705 367 707 368Q714 370 720.5 360.0Q727 350 722 345Q720 343 718.0 342.5Q716 342 714 341Q706 338 705 330Q705 326 706.0 321.5Q707 317 706 313Q702 303 692 308Q685 312 682.0 318.5Q679 325 685 331Q690 338 692.5 343.5Q695 349 681 348Q673 350 672.0 358.0Q671 366 670 373Q665 382 669.0 387.5Q673 393 684 393Z" fill="#f5f5f5" stroke="none" transform="scale(1,-1) translate(0,-256)" /><path d="M707 285Q710 295 717.5 294.5Q725 294 731.5 293.5Q738 293 739 303Q739 310 736.0 322.5Q733 335 734.5 345.0Q736 355 748 357Q759 358 761 348Q763 344 760.5 339.0Q758 334 758 329Q759 322 764.5 316.0Q770 310 768 303Q768 300 766.0 297.0Q764 294 764 291Q763 286 767.0 281.5Q771 277 771 272Q772 268 767.5 265.5Q763 263 759 265Q756 266 754.0 269.5Q752 273 749 275Q745 278 739.0 277.5Q733 277 728 273Q721 265 713.0 270.0Q705 275 707 285Z" fill="#f5f5f5" stroke="none" transform="scale(1,-1) translate(0,-256)" /><path d="M740 234Q725 240 720.0 227.5Q715 215 718 204Q720 196 729.5 184.5Q739 173 747 172Q750 177 746.0 182.0Q742 187 743 193Q744 197 748.0 201.0Q752 205 749 209Q747 211 745.0 212.0Q743 213 742 214Q740 218 743.5 222.0Q747 226 745 230Q744 232 740 234Z" fill="#f5f5f5" stroke="none" transform="scale(1,-1) translate(0,-256)" /><path d="M766 225Q760 235 770.5 241.0Q781 247 789 243Q798 238 797 229Q796 223 791.0 222.0Q786 221 781 220Q777 220 773.0 221.0Q769 222 766 225Z" fill="#f5f5f5" stroke="none" transform="scale(1,-1) translate(0,-256)" /><path d="M780 184Q778 187 775.5 190.0Q773 193 779 196Q784 198 790 191Q792 189 792.5 186.0Q793 183 796 180Q799 176 804.0 175.5Q809 175 813 172Q820 166 815.5 158.0Q811 150 813 143Q813 140 815.5 134.5Q818 129 813 128Q807 132 804.0 138.5Q801 145 794 147Q790 149 785.5 148.5Q781 148 776 150Q769 154 770 164Q771 168 773.5 170.0Q776 172 778 175Q779 176 780.5 178.5Q782 181 780 184Z" fill="#f5f5f5" stroke="none" transform="scale(1,-1) translate(0,-256)" /><path d="M857 194Q847 189 837.5 196.0Q828 203 827.5 211.5Q827 220 843 220Q852 220 861.0 216.0Q870 212 879 211Q883 210 889.5 213.0Q896 216 901.0 216.0Q906 216 906 206Q905 203 904.0 199.5Q903 196 904 193Q905 186 910.0 179.5Q915 173 912 167Q909 162 902.0 161.0Q895 160 892 155Q890 151 889.0 147.0Q888 143 885 141Q878 137 871.0 146.0Q864 155 856 152Q854 152 852.5 150.5Q851 149 849 148Q845 147 841.0 150.0Q837 153 837 157Q836 167 845.5 169.5Q855 172 862 169Q872 164 877.0 169.0Q882 174 880 185Q875 207 857 194Z" fill="#f5f5f5" stroke="none" transform="scale(1,-1) translate(0,-256)" /><path d="M803 275Q795 277 793.0 287.0Q791 297 799 300Q809 304 813.5 292.0Q818 280 819 280Q824 281 829.5 280.5Q835 280 839 276Q843 272 844.0 267.0Q845 262 849 258Q850 257 852.0 255.0Q854 253 855 251Q858 245 851 241Q841 235 830.5 243.0Q820 251 818 261Q817 264 816.0 268.0Q815 272 812 274Q810 275 807.5 275.0Q805 275 803 275Z" fill="#f5f5f5" stroke="none" transform="scale(1,-1) translate(0,-256)" /><path d="M816 345Q810 343 804.5 339.5Q799 336 793 341Q784 349 791 358Q797 366 813.0 364.0Q829 362 837 356Q843 352 837 349Q833 346 827.0 346.0Q821 346 816 345Z" fill="#f5f5f5" stroke="none" transform="scale(1,-1) translate(0,-256)" /><path d="M760 413Q755 408 746.0 404.5Q737 401 731 410Q723 420 735 426Q740 428 745.5 428.0Q751 428 755 432Q762 437 766.5 441.0Q771 445 781 442Q778 452 787.0 456.0Q796 460 800 450Q801 446 799.5 442.0Q798 438 797 434Q796 430 795.5 425.0Q795 420 791 418Q788 415 781.5 416.5Q775 418 773 412Q775 404 782.0 403.0Q789 402 796.5 401.5Q804 401 808 395Q810 393 810.0 389.0Q810 385 807 384Q803 383 799.0 382.5Q795 382 791 382Q774 380 769.0 386.0Q764 392 764.5 400.0Q765 408 766.0 412.5Q767 417 760 413Z" fill="#f5f5f5" stroke="none" transform="scale(1,-1) translate(0,-256)" /><path d="M452 243Q441 239 440.5 231.5Q440 224 446 215Q458 201 464.5 210.0Q471 219 477 228Q486 239 473.0 243.0Q460 247 452 243Z" fill="#f5f5f5" stroke="none" transform="scale(1,-1) translate(0,-256)" /><path d="M412 326Q414 320 404.0 320.5Q394 321 391 323Q388 316 393.0 308.0Q398 300 391 295Q382 290 378.0 300.0Q374 310 368 314Q366 316 360 317Q360 317 360.0 325.5Q360 334 360.0 342.5Q360 351 360 351Q370 352 375.0 346.5Q380 341 387 337Q391 336 394.5 336.5Q398 337 401 337Q410 335 412 326Z" fill="#f5f5f5" stroke="none" transform="scale(1,-1) translate(0,-256)" /><path d="M360 256Q369 261 377.5 251.0Q386 241 376 230Q372 227 368.0 221.5Q364 216 360 214Z" fill="#f5f5f5" stroke="none" transform="scale(1,-1) translate(0,-256)" /><path d="M416 119Q430 113 431 102Q431 95 425.5 90.5Q420 86 415 89Q409 92 408 100Q408 103 410.5 106.5Q413 110 410 113Q408 116 403.0 117.0Q398 118 395 122Q391 128 390 139Q390 143 388.0 148.5Q386 154 380 153Q375 150 370.5 147.5Q366 145 360 144V187Q366 193 372 195Q376 199 384.5 198.5Q393 198 398.0 194.0Q403 190 395 183Q393 182 391.0 180.0Q389 178 388 176Q387 171 390.5 167.5Q394 164 398 161Q413 150 410 130Q408 122 416 119Z" fill="#f5f5f5" stroke="none" transform="scale(1,-1) translate(0,-256)" /><path d="M457 59Q449 64 451.0 69.0Q453 74 455 81Q457 86 457.5 90.0Q458 94 464 96Q474 99 478.0 91.5Q482 84 480.5 73.5Q479 63 473.0 57.5Q467 52 457 59Z" fill="#f5f5f5" stroke="none" transform="scale(1,-1) translate(0,-256)" /><path d="M407 55Q414 46 409.0 40.5Q404 35 396.5 36.5Q389 38 389 49Q387 53 384 52Q379 49 373.5 44.5Q368 40 360 43Q360 43 360.0 53.0Q360 63 360.0 73.5Q360 84 360 84Q366 95 378.5 93.0Q391 91 389 77Q384 66 386.5 63.5Q389 61 395.0 60.5Q401 60 407 55Z" fill="#f5f5f5" stroke="none" transform="scale(1,-1) translate(0,-256)" /><path d="M426 19Q428 23 426.5 27.0Q425 31 428 36Q432 43 440 43Q448 45 454.0 36.0Q460 27 461.0 16.0Q462 5 457 0Q451 -6 442.5 -3.5Q434 -1 427 -10Q421 -21 411 -25Q405 -28 396.5 -33.0Q388 -38 382 -32Q378 -24 386.0 -19.5Q394 -15 397 -10Q399 -3 399.5 4.5Q400 12 410 14Q414 14 419.0 14.0Q424 14 426 19Z" fill="#f5f5f5" stroke="none" transform="scale(1,-1) translate(0,-256)" /><path d="M471 -60Q472 -54 471.0 -46.0Q470 -38 466 -32Q459 -23 452 -27Q450 -28 449.0 -30.5Q448 -33 446 -34Q444 -37 440.5 -38.5Q437 -40 434 -42Q430 -45 425.5 -50.0Q421 -55 423 -60Z" fill="#f5f5f5" stroke="none" transform="scale(1,-1) translate(0,-256)" /><path d="M519 8Q528 5 534.5 4.5Q541 4 550 4Q555 4 561.0 2.0Q567 0 571 1Q577 2 579.5 7.5Q582 13 587 15Q592 17 598.0 15.0Q604 13 604 7Q604 1 599.5 -4.5Q595 -10 589 -10Q587 -10 584.5 -9.0Q582 -8 580 -9Q576 -10 574.0 -13.5Q572 -17 569 -19Q567 -20 564.0 -21.0Q561 -22 559 -24Q557 -27 557.5 -30.5Q558 -34 558 -37Q556 -47 546.0 -46.0Q536 -45 535 -35Q534 -30 535.0 -25.0Q536 -20 532 -17Q529 -15 524.5 -15.5Q520 -16 518 -19Q518 -21 519 -24Q525 -34 517 -41Q514 -44 509.0 -43.5Q504 -43 502 -39Q499 -33 502.5 -27.0Q506 -21 504 -15Q503 -11 499.5 -8.5Q496 -6 496 -2Q494 7 503.0 9.0Q512 11 519 8Z" fill="#f5f5f5" stroke="none" transform="scale(1,-1) translate(0,-256)" /><path d="M613 84Q617 78 613.5 72.0Q610 66 603 71Q601 72 599.0 73.5Q597 75 595 77Q590 81 583.5 90.0Q577 99 593 100Q600 101 605.0 95.5Q610 90 613 84Z" fill="#f5f5f5" stroke="none" transform="scale(1,-1) translate(0,-256)" /><path d="M655 -60Q656 -52 650.0 -43.5Q644 -35 644 -26Q644 -23 644.5 -19.5Q645 -16 644 -14Q640 -7 633.0 -10.5Q626 -14 626 -21Q624 -26 628.5 -33.0Q633 -40 628 -44Q625 -47 618 -43Q607 -36 592.5 -40.5Q578 -45 579 -61Z" fill="#f5f5f5" stroke="none" transform="scale(1,-1) translate(0,-256)" /><path d="M648 52Q655 53 666.0 52.5Q677 52 682 46Q686 39 683.0 29.0Q680 19 671 18Q664 18 657.5 22.5Q651 27 644 30Q635 34 637.0 41.5Q639 49 648 52Z" fill="#f5f5f5" stroke="none" transform="scale(1,-1) translate(0,-256)" /><path d="M718 32Q723 41 732.5 43.0Q742 45 749.5 40.0Q757 35 755 23Q754 17 760 16Q767 14 774.0 12.5Q781 11 787 7Q791 3 789.0 -2.5Q787 -8 783 -10Q774 -14 767.0 -7.5Q760 -1 754 4Q744 10 739 1Q737 -3 732.5 -2.0Q728 -1 727 3Q726 5 726.0 8.5Q726 12 722 10Q718 8 718.5 1.0Q719 -6 715 -10Q705 -16 715 -22Q722 -27 721 -34Q719 -44 711 -42Q707 -41 704.5 -37.0Q702 -33 699 -30Q697 -28 694.0 -26.0Q691 -24 689 -21Q685 -12 690.0 -6.0Q695 0 702.5 5.5Q710 11 714 18Q715 21 716.0 25.0Q717 29 718 32Z" fill="#f5f5f5" stroke="none" transform="scale(1,-1) translate(0,-256)" /><path d="M814 85Q813 76 806.5 74.5Q800 73 795 79Q791 83 788.0 92.5Q785 102 791 106Q794 108 798 108Q807 108 811.5 100.0Q816 92 814 85Z" fill="#f5f5f5" stroke="none" transform="scale(1,-1) translate(0,-256)" /><path d="M801 27Q788 40 795.0 45.0Q802 50 816.0 49.5Q830 49 838 45Q850 40 850.0 31.5Q850 23 841.5 17.5Q833 12 822 15Q817 17 811.5 20.5Q806 24 801 27Z" fill="#f5f5f5" stroke="none" transform="scale(1,-1) translate(0,-256)" /><path d="M846 -59Q845 -54 839.5 -47.5Q834 -41 838 -39Q842 -37 849.5 -37.0Q857 -37 860 -31Q861 -29 860.5 -26.0Q860 -23 865 -19Q871 -16 873.5 -17.0Q876 -18 879 -15Q882 -12 882.5 -8.0Q883 -4 879 -1Q874 3 866.0 1.0Q858 -1 855 -8Q853 -11 852.0 -14.5Q851 -18 849 -21Q847 -24 843.0 -25.5Q839 -27 837 -24Q835 -23 834.5 -21.0Q834 -19 833 -17Q830 -11 822.5 -10.5Q815 -10 811 -16Q808 -20 808.0 -26.0Q808 -32 805 -37Q802 -42 798.5 -48.5Q795 -55 800 -60Z" fill="#f5f5f5" stroke="none" transform="scale(1,-1) translate(0,-256)" /><path d="M874 105Q866 107 855.0 104.0Q844 101 839 94Q835 88 835.0 77.0Q835 66 847 72Q852 75 856.5 80.5Q861 86 869 80Q870 79 869 77Q865 68 866 63Q867 53 875 54Q881 55 886.0 64.0Q891 73 897 66Q898 63 897.0 59.5Q896 56 897 53Q898 47 903.0 45.5Q908 44 911 50Q916 67 904.0 85.0Q892 103 874 105Z" fill="#f5f5f5" stroke="none" transform="scale(1,-1) translate(0,-256)" /><path d="M965 94Q957 92 951.0 97.0Q945 102 939 105Q937 106 934.5 106.5Q932 107 930 107Q922 109 922.5 114.5Q923 120 929 123Q932 124 935.0 125.5Q938 127 939 130Q942 134 942.5 139.5Q943 145 947 147Q951 149 957.0 148.5Q963 148 965 144Z" fill="#f5f5f5" stroke="none" transform="scale(1,-1) translate(0,-256)" /><path d="M924 0Q914 0 911.0 -12.0Q908 -24 906 -31Q901 -46 907.0 -48.0Q913 -50 924 -43Q929 -39 933.0 -33.5Q937 -28 939 -21Q940 -15 935.5 -7.5Q931 0 924 0Z" fill="#f5f5f5" stroke="none" transform="scale(1,-1) translate(0,-256)" /><path d="M965 14Q957 20 945.5 31.5Q934 43 944 52Q950 57 953.0 55.5Q956 54 965 56Z" fill="#f5f5f5" stroke="none" transform="scale(1,-1) translate(0,-256)" /><path d="M686 166Q686 179 692.5 179.5Q699 180 705.0 176.5Q711 173 711 173Q717 161 710.0 155.5Q703 150 694.5 152.5Q686 155 686 166Z" fill="#f5f5f5" stroke="none" transform="scale(1,-1) translate(0,-256)" /><path d="M584 472Q594 473 595.0 463.5Q596 454 591 449Q586 443 576.5 444.5Q567 446 565 456Q565 457 565.0 459.0Q565 461 564 462Q563 464 560.5 465.5Q558 467 556 469Q551 473 555 479Q557 484 557 485Q556 487 554.0 487.0Q552 487 550 488Q548 490 548.5 493.0Q549 496 552 497Q559 499 567.0 492.0Q575 485 576 477Q576 474 577 473Q578 471 580.0 471.5Q582 472 584 472Z" fill="#f5f5f5" stroke="none" transform="scale(1,-1) translate(0,-256)" /><path d="M603 810Q607 816 617.0 820.0Q627 824 628 832Q628 837 624.5 838.5Q621 840 617 840Q607 841 601 831Q599 826 597.5 824.0Q596 822 591 820Q588 818 585.0 818.0Q582 818 580 815Q576 810 578.0 804.0Q580 798 581 792Q583 776 569 769Q559 764 557.5 760.0Q556 756 561 747Q563 741 562.5 734.5Q562 728 567 726Q572 723 578.5 728.0Q585 733 589 728Q591 725 590.0 721.0Q589 717 591 714Q592 710 596.0 709.0Q600 708 603 711Q610 717 608.0 725.5Q606 734 603 741Q600 747 597 749Q595 750 592.0 750.5Q589 751 587 752Q583 755 585.0 760.5Q587 766 592 767Q600 770 609.5 765.0Q619 760 627 767Q635 774 628 784Q623 791 616.5 791.5Q610 792 604 794Q600 796 600.0 801.0Q600 806 603 810Z" fill="#f5f5f5" stroke="none" transform="scale(1,-1) translate(0,-256)" /><path d="M678 753Q681 756 683.0 764.5Q685 773 679 775Q675 776 669.5 769.5Q664 763 661 761Q657 759 653.5 758.0Q650 757 647 754Q639 749 638.5 739.0Q638 729 647 725Q656 721 661 730Q663 733 663.5 736.5Q664 740 665 743Q667 747 671.0 748.5Q675 750 678 753Z" fill="#f5f5f5" stroke="none" transform="scale(1,-1) translate(0,-256)" /><path d="M668 850Q673 859 680.0 854.5Q687 850 693.0 841.0Q699 832 701 828Q707 817 697 815Q693 812 690.0 808.5Q687 805 684 801Q676 793 670.0 795.5Q664 798 663.0 805.5Q662 813 670 818Q673 820 676.0 821.0Q679 822 680 825Q681 829 677.0 831.5Q673 834 671 836Q663 842 668 850Z" fill="#f5f5f5" stroke="none" transform="scale(1,-1) translate(0,-256)" /><path d="M672 469Q666 469 662 464Q660 463 659.0 459.5Q658 456 654 455Q648 455 645.0 463.5Q642 472 634 467Q627 464 631 458Q632 455 634.5 454.0Q637 453 638 451Q640 449 640 444Q641 439 642.0 433.5Q643 428 641 423Q640 420 636.5 417.0Q633 414 632 410Q633 405 638.0 404.0Q643 403 647 405Q654 407 657 412Q660 416 660.0 424.5Q660 433 667 432Q670 430 671.0 426.0Q672 422 675 420Q682 416 684 423Q684 426 683.0 428.5Q682 431 682 433Q682 436 684.5 438.5Q687 441 689 444Q695 453 688.5 461.0Q682 469 672 469Z" fill="#f5f5f5" stroke="none" transform="scale(1,-1) translate(0,-256)" /><path d="M851 731Q855 740 850.0 744.0Q845 748 838 745Q835 743 832.5 741.5Q830 740 827 739Q823 738 818.0 737.0Q813 736 814 729Q815 724 820.5 721.5Q826 719 828 715Q831 710 829.0 703.0Q827 696 831 692Q834 688 839.5 688.0Q845 688 850 687Q856 685 858.0 681.0Q860 677 863 672Q868 667 872 675Q874 679 872.0 683.5Q870 688 870 692Q870 696 874.0 698.0Q878 700 880 703Q882 707 879.5 711.0Q877 715 874 716Q868 717 863.0 713.0Q858 709 853 706Q846 704 843 712Q842 717 845.5 721.5Q849 726 851 731Z" fill="#f5f5f5" stroke="none" transform="scale(1,-1) translate(0,-256)" /><path d="M533 718Q534 722 532.5 725.0Q531 728 530 732Q530 738 532.5 741.0Q535 744 536 748Q536 755 528 753Q518 750 512.0 742.0Q506 734 503 725Q501 720 497.5 716.0Q494 712 494 707Q494 700 499 699Q502 699 505.0 701.5Q508 704 510 706Q516 709 523.5 709.5Q531 710 533 718Z" fill="#f5f5f5" stroke="none" transform="scale(1,-1) translate(0,-256)" /><path d="M511 796Q502 798 499.5 789.0Q497 780 491 776Q487 772 481.0 772.0Q475 772 470 769Q466 766 460.5 762.5Q455 759 450 763Q447 764 446.0 766.5Q445 769 444 771Q441 773 437.5 773.0Q434 773 432 770Q429 765 435 758Q437 755 439.0 752.5Q441 750 442 747Q442 743 441.5 739.0Q441 735 444 732Q448 728 454 732Q456 734 458.0 736.0Q460 738 463 740Q466 742 469.5 742.5Q473 743 477 745Q480 748 483.0 751.0Q486 754 489 758Q496 764 505.0 770.0Q514 776 515 787Q516 794 511 796Z" fill="#f5f5f5" stroke="none" transform="scale(1,-1) translate(0,-256)" /><path d="M460 841Q472 850 463.0 856.5Q454 863 444 857Q441 855 437.0 853.0Q433 851 429 852Q427 852 425.5 852.5Q424 853 422 853Q417 853 417 846Q418 836 425.0 828.5Q432 821 435 812Q435 810 436.0 807.5Q437 805 439 804Q441 802 445.0 802.0Q449 802 450 799Q452 796 451.0 792.5Q450 789 452 787Q456 783 460 789Q464 794 463.5 801.0Q463 808 459 813Q455 816 451.0 818.5Q447 821 447 825Q446 831 451.0 834.5Q456 838 460 841Z" fill="#f5f5f5" stroke="none" transform="scale(1,-1) translate(0,-256)" /><path d="M489 828Q490 834 490.0 841.0Q490 848 496 852Q506 859 511 848Q515 841 512.0 827.5Q509 814 500 811Q492 810 488.5 815.5Q485 821 489 828Z" fill="#f5f5f5" stroke="none" transform="scale(1,-1) translate(0,-256)" /><path d="M492 597Q489 600 485.5 603.0Q482 606 477 607Q465 607 470.5 595.5Q476 584 482 582Q490 578 494.0 584.5Q498 591 492 597Z" fill="#f5f5f5" stroke="none" transform="scale(1,-1) translate(0,-256)" /><path d="M612 509Q610 512 604.0 515.5Q598 519 595 516Q590 511 593.0 504.0Q596 497 602 494Q610 490 614.0 496.5Q618 503 612 509Z" fill="#f5f5f5" stroke="none" transform="scale(1,-1) translate(0,-256)" /><path d="M542 882Q540 885 540 890H564Q564 886 566.0 883.0Q568 880 575 880Q588 879 588.0 872.5Q588 866 581.0 859.5Q574 853 567 852Q558 851 557 856Q557 861 556.5 866.0Q556 871 552 874Q550 876 547.0 877.5Q544 879 542 882Z" fill="#f5f5f5" stroke="none" transform="scale(1,-1) translate(0,-256)" /><path d="M534 825Q533 834 538.5 838.5Q544 843 550 837Q556 830 554.0 819.5Q552 809 548 801Q547 798 544 797Q539 798 539.0 803.5Q539 809 538 813Q537 816 536.0 819.0Q535 822 534 825Z" fill="#f5f5f5" stroke="none" transform="scale(1,-1) translate(0,-256)" /><path d="M405 815Q407 808 403.0 800.0Q399 792 390 796Q386 798 384.0 802.0Q382 806 379 809Q376 814 370.5 813.5Q365 813 360 811Q360 811 360.0 824.5Q360 838 360 838Q374 833 372.0 843.0Q370 853 360 854V875Q371 882 378 874Q381 867 382.5 863.0Q384 859 388 853Q392 844 387 839Q385 837 381.0 833.5Q377 830 383 827Q388 824 395.0 823.0Q402 822 405 815Z" fill="#f5f5f5" stroke="none" transform="scale(1,-1) translate(0,-256)" /><path d="M414 769Q422 763 418.5 754.0Q415 745 404 747Q399 747 393.5 744.0Q388 741 387 735Q386 732 386.5 728.0Q387 724 385 721Q383 717 378.5 716.5Q374 716 371 720Q368 725 368.0 732.5Q368 740 360 742V794Q366 787 370.0 778.0Q374 769 378 764Q384 757 389.0 761.5Q394 766 399.5 771.0Q405 776 414 769Z" fill="#f5f5f5" stroke="none" transform="scale(1,-1) translate(0,-256)" /><path d="M412 700Q420 714 432.0 707.5Q444 701 448 690Q452 683 451.5 667.5Q451 652 445 646Q440 649 440.0 655.5Q440 662 435 666Q433 667 431.0 667.5Q429 668 427 669Q421 671 421 676Q421 678 422.0 679.5Q423 681 423 683Q422 688 417.0 689.0Q412 690 411 694Q410 697 412 700Z" fill="#f5f5f5" stroke="none" transform="scale(1,-1) translate(0,-256)" /><path d="M397 677Q396 688 384.0 686.5Q372 685 368 677Q364 667 371 661Q375 657 379.5 659.0Q384 661 388 664Q392 666 394.5 669.5Q397 673 397 677Z" fill="#f5f5f5" stroke="none" transform="scale(1,-1) translate(0,-256)" /><path d="M423 639Q422 643 422.5 647.0Q423 651 417 649Q411 647 411 639Q411 636 412.5 633.0Q414 630 413 626Q413 621 409.5 617.5Q406 614 405 609Q403 600 411.5 596.5Q420 593 423 586Q424 584 425.5 578.0Q427 572 432 575Q434 582 432.5 589.0Q431 596 435 601Q437 605 441.0 607.5Q445 610 447 615Q450 623 443 629Q438 634 429 636Q424 637 423 639Z" fill="#f5f5f5" stroke="none" transform="scale(1,-1) translate(0,-256)" /><path d="M360 632Q371 638 374.5 631.0Q378 624 374.5 613.5Q371 603 360 601Z" fill="#f5f5f5" stroke="none" transform="scale(1,-1) translate(0,-256)" /><path d="M399 584Q402 580 400.5 575.5Q399 571 395 570Q393 569 391.0 569.0Q389 569 387 569Q383 567 381.5 563.0Q380 559 380 554Q376 533 360 547Q360 547 360.0 558.0Q360 569 360 569Q365 569 367.5 572.0Q370 575 372 578Q376 584 385.0 588.0Q394 592 399 584Z" fill="#f5f5f5" stroke="none" transform="scale(1,-1) translate(0,-256)" /><path d="M633 885Q645 888 650.5 882.5Q656 877 656 866Q655 848 644.5 851.0Q634 854 623 857Q609 861 617.5 871.5Q626 882 633 885Z" fill="#f5f5f5" stroke="none" transform="scale(1,-1) translate(0,-256)" /><path d="M707 881Q709 886 714 889H757Q757 889 767.0 881.5Q777 874 773 866Q769 857 761.0 858.0Q753 859 746 858Q741 855 742.5 849.0Q744 843 747 840Q753 831 753 823Q754 813 747 807Q749 805 752.0 803.0Q755 801 757 798Q761 791 758 785Q755 780 748.0 780.0Q741 780 738 785Q731 795 738 809Q743 816 736 821Q722 834 727 853Q728 858 729.0 863.0Q730 868 726 871Q722 874 713.5 872.5Q705 871 707 881Z" fill="#f5f5f5" stroke="none" transform="scale(1,-1) translate(0,-256)" /><path d="M743 736Q747 745 742.0 748.0Q737 751 731 755Q726 758 723.5 760.5Q721 763 715 761Q705 757 706.5 748.5Q708 740 715.5 733.0Q723 726 731.5 725.0Q740 724 743 736Z" fill="#f5f5f5" stroke="none" transform="scale(1,-1) translate(0,-256)" /><path d="M830 796Q833 793 831.5 788.0Q830 783 827 780Q820 775 809 776Q801 778 803 771Q810 761 805.0 755.0Q800 749 793.0 750.5Q786 752 786 764Q786 771 792 777Q800 783 792 788Q791 789 789.0 790.0Q787 791 786 792Q781 796 781.0 802.5Q781 809 785 813Q792 819 800.5 816.5Q809 814 816 810Z" fill="#f5f5f5" stroke="none" transform="scale(1,-1) translate(0,-256)" /><path d="M847 449Q847 445 843.5 441.5Q840 438 841 433Q842 425 849 421Q856 417 865.0 422.5Q874 428 879.5 438.0Q885 448 882 454Q879 462 870.5 463.5Q862 465 859 475Q858 488 851 496Q846 500 840.0 508.5Q834 517 827 514Q820 508 825.5 500.5Q831 493 831 487Q831 480 828.5 473.0Q826 466 833 461Q837 458 841.5 456.5Q846 455 847 449Z" fill="#f5f5f5" stroke="none" transform="scale(1,-1) translate(0,-256)" /><path d="M860 379Q865 371 866.5 364.5Q868 358 870 348Q870 343 873.0 338.0Q876 333 877 328Q877 323 872.0 319.5Q867 316 866 311Q865 305 868.0 299.5Q871 294 877 295Q883 296 887.0 301.5Q891 307 891 313Q891 315 889.5 317.0Q888 319 888 322Q888 325 891.0 328.0Q894 331 895 334Q897 337 897.0 340.0Q897 343 899 345Q902 347 905.0 347.0Q908 347 912 348Q921 352 918.0 362.0Q915 372 905 371Q900 370 895.0 368.5Q890 367 887 371Q885 373 884.5 377.5Q884 382 887 384Q888 385 892 384Q903 380 908 389Q911 393 909.0 398.0Q907 403 903 404Q897 405 891.5 400.5Q886 396 880 397Q876 398 873.0 400.5Q870 403 866 403Q856 403 856.0 394.0Q856 385 860 379Z" fill="#f5f5f5" stroke="none" transform="scale(1,-1) translate(0,-256)" /><path d="M714 458Q714 451 720.5 448.5Q727 446 730 454Q731 456 731.0 458.5Q731 461 732 463Q733 468 734.5 473.0Q736 478 734 482Q732 485 726.5 486.5Q721 488 718 486Q711 481 711.5 473.0Q712 465 714 458Z" fill="#f5f5f5" stroke="none" transform="scale(1,-1) translate(0,-256)" /><path d="M782 511Q775 508 767.0 501.0Q759 494 759 486Q759 477 768.0 471.0Q777 465 784 470Q790 474 792.0 482.0Q794 490 798 496Q803 505 796.5 509.5Q790 514 782 511Z" fill="#f5f5f5" stroke="none" transform="scale(1,-1) translate(0,-256)" /><path d="M908 811Q910 821 905.0 829.0Q900 837 891.5 839.0Q883 841 875 831Q872 826 866 830Q860 833 854.0 837.0Q848 841 841 842Q836 843 833.0 837.5Q830 832 832 828Q836 819 845.0 818.5Q854 818 862 817Q874 814 870 804Q869 800 873.0 797.5Q877 795 881 797Q882 798 884.5 801.5Q887 805 889 798Q890 793 884.5 789.0Q879 785 880 779Q882 768 870 771Q863 773 858.0 766.0Q853 759 860 754Q863 752 867.5 753.0Q872 754 876 754Q880 754 883.0 753.0Q886 752 890 753Q899 756 900.0 764.5Q901 773 899.5 782.0Q898 791 900 798Q902 801 904.0 804.5Q906 808 908 811Z" fill="#f5f5f5" stroke="none" transform="scale(1,-1) translate(0,-256)" /><path d="M457 533Q465 537 464.5 547.0Q464 557 459 563Q452 570 444.5 567.0Q437 564 436 554Q436 548 443.0 539.0Q450 530 457 533Z" fill="#f5f5f5" stroke="none" transform="scale(1,-1) translate(0,-256)" /><path d="M498 506Q501 517 496.0 522.0Q491 527 481 521Q467 512 459 498Q452 486 457.5 479.5Q463 473 472.5 474.0Q482 475 489 484Q493 489 495.0 495.0Q497 501 498 506Z" fill="#f5f5f5" stroke="none" transform="scale(1,-1) translate(0,-256)" /><path d="M528 446Q538 442 540.0 434.5Q542 427 540 416Q539 410 535.5 404.5Q532 399 526 399Q517 400 513.5 412.0Q510 424 500 423Q493 422 490.5 418.0Q488 414 480 417Q479 418 477.0 419.0Q475 420 473 420Q467 419 459.0 418.0Q451 417 447 424Q445 433 454.0 437.5Q463 442 470 439Q474 437 477.0 435.0Q480 433 483 432Q487 431 490.5 432.0Q494 433 495 437Q495 439 494.5 441.0Q494 443 494 445Q492 452 497.5 457.0Q503 462 510 459Q515 458 519.0 453.0Q523 448 528 446Z" fill="#f5f5f5" stroke="none" transform="scale(1,-1) translate(0,-256)" /><path d="M386 516Q392 522 402.0 526.5Q412 531 421 529Q428 527 434.0 518.0Q440 509 428 506Q422 505 415.5 505.0Q409 505 405 499Q405 498 408 497Q414 495 418.5 488.0Q423 481 416 475Q411 472 402.0 476.0Q393 480 392 471Q393 468 396.0 466.0Q399 464 400 461Q403 456 400.0 451.5Q397 447 391 450Q376 461 374.5 482.0Q373 503 386 516Z" fill="#f5f5f5" stroke="none" transform="scale(1,-1) translate(0,-256)" /><path d="M411 403Q419 409 429.0 401.5Q439 394 445 389Q458 381 454.5 375.0Q451 369 438 369Q431 369 424.5 370.5Q418 372 412 376Q408 381 407.0 389.5Q406 398 411 403Z" fill="#f5f5f5" stroke="none" transform="scale(1,-1) translate(0,-256)" /><path d="M369 429Q381 419 375.0 401.0Q369 383 360 373Q360 373 360.0 387.5Q360 402 360.0 416.5Q360 431 360 431Q365 433 369 429Z" fill="#f5f5f5" stroke="none" transform="scale(1,-1) translate(0,-256)" /><path d="M464 655Q467 642 475.0 641.0Q483 640 488.5 647.5Q494 655 488 665Q482 673 474.0 670.0Q466 667 464 658Z" fill="#f5f5f5" stroke="none" transform="scale(1,-1) translate(0,-256)" /><path d="M916 308Q919 318 930.0 316.5Q941 315 950.0 308.0Q959 301 957 295Q954 290 949.5 285.5Q945 281 943 275Q941 269 940.5 261.0Q940 253 933 251Q927 249 922.5 253.5Q918 258 913 260Q910 261 906.5 260.5Q903 260 899 260Q889 259 886.5 266.0Q884 273 891 279Q896 285 902.5 286.0Q909 287 914 292Q916 295 915.5 299.5Q915 304 916 308Z" fill="#f5f5f5" stroke="none" transform="scale(1,-1) translate(0,-256)" /><path d="M957 205Q959 197 953.5 192.0Q948 187 940 191Q934 194 931.5 202.0Q929 210 932 216Q936 222 942 223Q950 223 953.0 217.0Q956 211 957 205Z" fill="#f5f5f5" stroke="none" transform="scale(1,-1) translate(0,-256)" /><path d="M855 575Q850 589 860.0 596.0Q870 603 883.5 602.0Q897 601 904.5 594.0Q912 587 902 574Q898 568 892.0 569.0Q886 570 880 570Q877 571 877 568Q877 565 877.0 562.0Q877 559 876 556Q875 552 869 548Q865 544 860.0 542.0Q855 540 850 542Q845 543 844.0 549.5Q843 556 847 559Q850 561 853.0 562.0Q856 563 857 566Q858 568 857.0 570.5Q856 573 855 575Z" fill="#f5f5f5" stroke="none" transform="scale(1,-1) translate(0,-256)" /><path d="M871 526Q882 535 887.5 526.5Q893 518 892.0 506.0Q891 494 883 491Q878 490 874.5 493.5Q871 497 869 502Q866 507 865.5 514.5Q865 522 871 526Z" fill="#f5f5f5" stroke="none" transform="scale(1,-1) translate(0,-256)" /><path d="M928 488Q924 496 916.0 493.0Q908 490 906 483Q904 474 911.0 469.0Q918 464 925 461Q918 446 928 435Q924 436 918.0 436.0Q912 436 910 430Q910 426 913.0 423.0Q916 420 920 419Q930 417 939.5 422.5Q949 428 953 437Q956 446 953.0 456.0Q950 466 942 472Q939 474 936.5 475.5Q934 477 932 480Q931 482 930.0 484.0Q929 486 928 488Z" fill="#f5f5f5" stroke="none" transform="scale(1,-1) translate(0,-256)" /><path d="M948 397Q959 394 956.5 379.0Q954 364 942 365Q937 366 934.5 374.5Q932 383 934.5 391.0Q937 399 945 398Z" fill="#f5f5f5" stroke="none" transform="scale(1,-1) translate(0,-256)" /><path d="M909 537Q904 542 909.5 547.0Q915 552 922.5 556.0Q930 560 932 564Q936 570 935.0 577.0Q934 584 934 591Q933 598 936.0 603.0Q939 608 948 605Q959 600 959.5 589.5Q960 579 956.0 567.5Q952 556 950 548Q948 535 938 536Q931 536 922.5 534.0Q914 532 909 537Z" fill="#f5f5f5" stroke="none" transform="scale(1,-1) translate(0,-256)" /><path d="M779 711Q795 718 795.0 727.5Q795 737 784 734Q774 731 767.0 724.0Q760 717 758 712Q757 709 758 708Q763 706 768.5 707.5Q774 709 779 711Z" fill="#f5f5f5" stroke="none" transform="scale(1,-1) translate(0,-256)" /><path d="M845 639 842 635Q839 630 841.5 620.5Q844 611 854 617Q860 621 870.0 629.0Q880 637 873 646Q866 650 858.0 647.0Q850 644 845 639Z" fill="#f5f5f5" stroke="none" transform="scale(1,-1) translate(0,-256)" /><path d="M904 678Q899 689 906.5 694.0Q914 699 918 706Q921 712 919.5 721.0Q918 730 931 726Q944 723 947.5 709.0Q951 695 941 686Q937 682 937 680Q936 676 939.0 673.0Q942 670 942 666Q943 661 939.0 657.5Q935 654 936 649Q938 645 943.5 642.5Q949 640 950 635Q951 632 949.5 629.0Q948 626 945 626Q942 626 940.0 628.5Q938 631 936 632Q931 637 922.5 637.0Q914 637 911 644Q909 649 911.5 654.5Q914 660 912 665Q912 669 908.5 671.5Q905 674 904 678Z" fill="#f5f5f5" stroke="none" transform="scale(1,-1) translate(0,-256)" /><path d="M930 785Q934 787 938.5 789.5Q943 792 945 796Q947 798 947.5 803.0Q948 808 953 807Q958 807 959 800Q960 789 957.0 778.0Q954 767 949 757Q946 749 941 750Q937 751 932.5 755.0Q928 759 925 762Q918 769 920.5 775.0Q923 781 930 785Z" fill="#f5f5f5" stroke="none" transform="scale(1,-1) translate(0,-256)" /><path d="M837 876Q839 877 841.0 878.0Q843 879 846 880Q854 882 861.0 877.0Q868 872 868 864Q867 859 863.5 857.5Q860 856 855 856Q846 856 837.5 857.0Q829 858 820 860Q814 861 814 864Q812 869 818.0 871.5Q824 874 828 875Q830 875 832.5 875.0Q835 875 837 876Z" fill="#f5f5f5" stroke="none" transform="scale(1,-1) translate(0,-256)" /><path d="M923 844Q921 850 916.0 857.5Q911 865 925 857Q932 854 939.0 845.0Q946 836 941 828Q937 822 931.5 824.5Q926 827 925 833Q925 836 925.0 839.0Q925 842 923 844Z" fill="#f5f5f5" stroke="none" transform="scale(1,-1) translate(0,-256)" /><path d="M479 881Q484 882 492.5 882.5Q501 883 505 880Q511 876 507.5 870.5Q504 865 498 865Q493 865 487.0 864.5Q481 864 476 866Q468 869 470.0 874.5Q472 880 479 881Z" fill="#f5f5f5" stroke="none" transform="scale(1,-1) translate(0,-256)" /><path d="M417 880Q411 887 404.0 882.5Q397 878 394.5 868.5Q392 859 401 852Q403 850 405 852Q411 856 415.5 864.0Q420 872 417 880Z" fill="#f5f5f5" stroke="none" transform="scale(1,-1) translate(0,-256)" /><path d="M762 -61Q764 -53 764.5 -43.0Q765 -33 753 -33Q742 -34 738.5 -45.0Q735 -56 726 -60Z" fill="#f5f5f5" stroke="none" transform="scale(1,-1) translate(0,-256)" /><path d="M964 521Q956 523 947.0 520.5Q938 518 935 510Q934 507 936.5 504.0Q939 501 942 498Q956 487 965 472Z" fill="#f5f5f5" stroke="none" transform="scale(1,-1) translate(0,-256)" /><path d="M664 517H690Q686 513 680.0 509.0Q674 505 672 500Q670 497 669.0 494.0Q668 491 665 489Q659 485 654 491Q650 497 653.0 503.5Q656 510 660 513Q663 515 664 517Z" fill="#f5f5f5" stroke="none" transform="scale(1,-1) translate(0,-256)" /><path d="M704 703H673Q675 707 676 709Q682 722 691.5 717.5Q701 713 704 703Z" fill="#f5f5f5" stroke="none" transform="scale(1,-1) translate(0,-256)" /></svg>