<?xml version="1.0" encoding="utf-8" ?>
<svg baseProfile="full" height="256" version="1.1" width="256" xmlns="http://www.w3.org/2000/svg" xmlns:ev="http://www.w3.org/2001/xml-events" xmlns:xlink="http://www.w3.org/1999/xlink"><defs /><path d="M474 248Q474 248 497.5 248.0Q521 248 558.0 248.0Q595 248 637.0 248.5Q679 249 716.5 249.0Q754 249 778.5 248.5Q803 248 805 248Q810 248 816.5 243.0Q823 238 823 233Q823 231 823.0 205.0Q823 179 823.0 140.0Q823 101 823.0 57.0Q823 13 823.0 -26.5Q823 -66 823.0 -91.5Q823 -117 823 -118Q823 -123 819.0 -126.5Q815 -130 811 -130Q809 -130 784.5 -130.0Q760 -130 722.5 -130.0Q685 -130 642.5 -130.0Q600 -130 562.0 -130.0Q524 -130 498.5 -130.0Q473 -130 470 -130Q461 -130 458.5 -125.5Q456 -121 456 -117Q456 -116 456.0 -91.0Q456 -66 455.5 -27.0Q455 12 455.0 55.5Q455 99 455.0 138.0Q455 177 455.0 203.0Q455 229 456 232Q456 240 465.0 244.0Q474 248 474 248Z" fill="#00c1ec" stroke="none" transform="scale(1,-1) translate(0,-256)" /></svg>