<?xml version="1.0" encoding="utf-8" ?>
<svg baseProfile="full" height="256" version="1.1" width="256" xmlns="http://www.w3.org/2000/svg" xmlns:ev="http://www.w3.org/2001/xml-events" xmlns:xlink="http://www.w3.org/1999/xlink"><defs /><path d="M795 355Q800 360 799.5 370.5Q799 381 797.0 389.0Q795 397 794 394Q792 391 789.0 385.5Q786 380 778 379Q750 375 731.5 380.0Q713 385 696.5 396.5Q680 408 659 423Q650 429 645.0 429.0Q640 429 636 428Q632 426 632.0 419.5Q632 413 631 408Q631 404 644.0 393.5Q657 383 675.0 371.5Q693 360 707 355Q727 348 753.0 343.0Q779 338 795 355Z" fill="#1b75bc" stroke="none" transform="scale(1,-1) translate(0,-256)" /></svg>