<?xml version="1.0" encoding="utf-8" ?>
<svg baseProfile="full" height="256" version="1.1" width="256" xmlns="http://www.w3.org/2000/svg" xmlns:ev="http://www.w3.org/2001/xml-events" xmlns:xlink="http://www.w3.org/1999/xlink"><defs /><path d="M494 726 501 829Q521 825 536.0 814.5Q551 804 559.0 795.5Q567 787 567 787Z" fill="#ffa500" stroke="none" transform="scale(1,-1) translate(0,-256)" /><path d="M357 703 458 696 381 631Q381 631 370.5 652.0Q360 673 357 703Z" fill="#ffa500" stroke="none" transform="scale(1,-1) translate(0,-256)" /><path d="M473 731 407 814Q426 828 445.5 831.5Q465 835 482 832Z" fill="#ffa500" stroke="none" transform="scale(1,-1) translate(0,-256)" /><path d="M392 797 458 715 359 727Q362 767 392 797Z" fill="#ffa500" stroke="none" transform="scale(1,-1) translate(0,-256)" /></svg>