<?xml version="1.0" encoding="utf-8" ?>
<svg baseProfile="full" height="256" version="1.1" width="256" xmlns="http://www.w3.org/2000/svg" xmlns:ev="http://www.w3.org/2001/xml-events" xmlns:xlink="http://www.w3.org/1999/xlink"><defs /><path d="M448 678Q454 686 459.5 680.5Q465 675 481.0 664.5Q497 654 532.0 645.0Q567 636 631 637Q702 638 744.0 646.5Q786 655 807.0 664.5Q828 674 834.5 678.0Q841 682 841 673Q841 655 838.5 623.5Q836 592 840 532Q843 492 854.0 448.5Q865 405 874.5 359.5Q884 314 882 267Q880 205 858.5 163.5Q837 122 806.5 96.0Q776 70 746.5 56.0Q717 42 697.0 37.5Q677 33 677 33Q677 33 676.0 18.0Q675 3 675 -11Q675 -24 675.5 -37.0Q676 -50 676 -50Q676 -50 696.0 -53.5Q716 -57 742.5 -65.5Q769 -74 789.0 -88.0Q809 -102 809 -122Q808 -147 782.5 -164.0Q757 -181 717.0 -189.5Q677 -198 634 -199Q591 -200 549.0 -192.5Q507 -185 479.5 -168.0Q452 -151 453 -123Q453 -102 473.0 -88.5Q493 -75 519.0 -67.0Q545 -59 564.5 -55.5Q584 -52 584 -52V33Q584 33 564.0 38.5Q544 44 514.5 58.5Q485 73 454.5 99.5Q424 126 402.0 168.0Q380 210 376 270Q373 319 383.5 360.5Q394 402 408.0 440.5Q422 479 430 521Q442 583 440.0 624.0Q438 665 448 678Z" fill="#ffffff" stroke="none" transform="scale(1,-1) translate(0,-256)" /><path d="M460 440Q463 446 469.0 449.0Q475 452 490 450Q511 447 512.5 437.0Q514 427 507.5 402.0Q501 377 498 331Q495 281 498.5 250.5Q502 220 503.0 206.0Q504 192 494 191Q464 189 449.5 205.5Q435 222 430.5 244.0Q426 266 426 281Q425 309 428.0 330.0Q431 351 435 367Q440 390 446.5 409.5Q453 429 460 440Z" fill="#ffffff" stroke="none" transform="scale(1,-1) translate(0,-256)" /><path d="M608 25 662 35 665 8Q665 8 666.0 -3.5Q667 -15 667.5 -30.5Q668 -46 669.0 -58.0Q670 -70 670 -71Q671 -72 674.0 -80.5Q677 -89 674.5 -97.5Q672 -106 655 -107Q630 -109 622.0 -100.5Q614 -92 612 -83Q611 -81 610.5 -64.5Q610 -48 609.5 -27.0Q609 -6 608.5 9.5Q608 25 608 25Z" fill="#ffffff" stroke="none" transform="scale(1,-1) translate(0,-256)" /><path d="M481 -107Q491 -106 497.0 -112.5Q503 -119 520 -127Q536 -136 554.0 -141.0Q572 -146 583.5 -150.0Q595 -154 594 -159Q592 -164 573.5 -163.5Q555 -163 532.5 -158.0Q510 -153 495 -144Q474 -131 473.5 -120.0Q473 -109 481 -107Z" fill="#ffffff" stroke="none" transform="scale(1,-1) translate(0,-256)" /><path d="M679 -163Q675 -157 688.0 -152.0Q701 -147 719.0 -141.5Q737 -136 747 -128Q758 -120 757.0 -113.5Q756 -107 754.5 -103.0Q753 -99 762 -98Q779 -97 786.5 -110.0Q794 -123 780 -141Q770 -153 746.5 -159.0Q723 -165 702.0 -166.0Q681 -167 679 -163Z" fill="#ffffff" stroke="none" transform="scale(1,-1) translate(0,-256)" /></svg>