<?xml version="1.0" encoding="utf-8" ?>
<svg baseProfile="full" height="256" version="1.1" width="256" xmlns="http://www.w3.org/2000/svg" xmlns:ev="http://www.w3.org/2001/xml-events" xmlns:xlink="http://www.w3.org/1999/xlink"><defs /><path d="M956 781Q958 804 971 804Q977 804 978.5 795.5Q980 787 980 780Q979 773 976.0 763.0Q973 753 966 754Q959 754 957.0 763.5Q955 773 956 781Z" fill="#db0d25" stroke="none" transform="scale(1,-1) translate(0,-256)" /><path d="M827 725Q828 725 829 725Q835 726 834 733L826 780Q825 786 819 785Q813 784 814 778L822 731Q822 726 827 725Z" fill="#db0d25" stroke="none" transform="scale(1,-1) translate(0,-256)" /><path d="M817 722Q819 722 820 723Q825 725 823 731L803 775Q801 781 795 778Q790 776 792 770L812 726Q813 722 817 722Z" fill="#db0d25" stroke="none" transform="scale(1,-1) translate(0,-256)" /><path d="M806 719Q808 719 810 721Q814 725 810 729L781 762Q777 767 773 763Q768 758 772 754L801 721Q803 719 806 719Z" fill="#db0d25" stroke="none" transform="scale(1,-1) translate(0,-256)" /></svg>