<?xml version="1.0" encoding="utf-8" ?>
<svg baseProfile="full" height="256" version="1.1" width="256" xmlns="http://www.w3.org/2000/svg" xmlns:ev="http://www.w3.org/2001/xml-events" xmlns:xlink="http://www.w3.org/1999/xlink"><defs /><path d="M678 562 724 565Q724 565 731.5 579.0Q739 593 750.5 615.5Q762 638 774 662Q780 673 787.5 688.5Q795 704 801.0 716.0Q807 728 807 728L967 754Q967 754 969.0 766.5Q971 779 970 782Q970 782 972.0 793.0Q974 804 970 804Q969 804 950.5 801.0Q932 798 906.0 793.5Q880 789 853.5 784.0Q827 779 808.0 775.0Q789 771 786 768Q780 761 767.5 735.5Q755 710 732 664Q727 653 718.0 636.0Q709 619 700.0 602.0Q691 585 684.5 573.5Q678 562 678 562Z" fill="#ff2a23" stroke="none" transform="scale(1,-1) translate(0,-256)" /></svg>