<?xml version="1.0" encoding="utf-8" ?>
<svg baseProfile="full" height="256" version="1.1" width="256" xmlns="http://www.w3.org/2000/svg" xmlns:ev="http://www.w3.org/2001/xml-events" xmlns:xlink="http://www.w3.org/1999/xlink"><defs /><path d="M585 -61Q587 -62 591.0 -70.5Q595 -79 605.0 -87.5Q615 -96 635 -94Q653 -94 658.0 -85.5Q663 -77 661.5 -66.5Q660 -56 660 -50Q660 -43 660.0 -28.0Q660 -13 660.0 0.5Q660 14 660 17Q660 22 661.0 26.5Q662 31 668 34Q674 38 678.0 32.0Q682 26 682 26L681 -54Q681 -54 688.0 -64.0Q695 -74 701.5 -85.5Q708 -97 708 -100Q708 -104 691.0 -117.0Q674 -130 635 -130Q596 -130 576.5 -117.0Q557 -104 557 -101Q557 -99 562.5 -89.0Q568 -79 575.0 -70.0Q582 -61 585 -61Z" fill="#9f9f9f" stroke="none" transform="scale(1,-1) translate(0,-256)" /><path d="M600 40Q599 47 613.0 45.0Q627 43 659 45Q685 47 727.0 59.5Q769 72 817 120Q849 151 861.0 197.5Q873 244 871.0 294.0Q869 344 859 388Q849 428 840.0 472.5Q831 517 830 545Q828 578 829.0 597.0Q830 616 830 641Q831 664 836.5 664.5Q842 665 843 656Q843 654 842.5 639.5Q842 625 842.0 607.5Q842 590 842 579Q843 550 844.5 528.0Q846 506 852.5 475.5Q859 445 874 391Q896 314 886.5 237.0Q877 160 831 107Q807 79 779.5 62.5Q752 46 728.0 38.0Q704 30 689.0 28.0Q674 26 674 26Q674 26 663.5 19.5Q653 13 635 14Q617 14 608.5 24.0Q600 34 600 40Z" fill="#9f9f9f" stroke="none" transform="scale(1,-1) translate(0,-256)" /><path d="M457 -108Q462 -108 459.5 -116.5Q457 -125 467 -139Q473 -147 488.0 -157.5Q503 -168 535.5 -176.5Q568 -185 625 -186Q667 -187 691.0 -183.5Q715 -180 735 -175Q775 -166 795 -141Q799 -135 802.5 -126.0Q806 -117 809 -117Q811 -117 811.5 -127.5Q812 -138 809 -147Q807 -153 794.0 -170.0Q781 -187 742 -199Q722 -204 694.5 -208.5Q667 -213 628 -213Q576 -213 542.5 -205.5Q509 -198 488 -187Q474 -180 464.5 -172.5Q455 -165 449 -155Q441 -138 447.0 -123.0Q453 -108 457 -108Z" fill="#9f9f9f" stroke="none" transform="scale(1,-1) translate(0,-256)" /></svg>