<?xml version="1.0" encoding="utf-8" ?>
<svg baseProfile="full" height="256" version="1.1" width="256" xmlns="http://www.w3.org/2000/svg" xmlns:ev="http://www.w3.org/2001/xml-events" xmlns:xlink="http://www.w3.org/1999/xlink"><defs /><path d="M589 39Q588 28 568.5 32.0Q549 36 520 50Q457 80 425.5 114.5Q394 149 378 199Q361 251 363.5 295.5Q366 340 380.5 382.5Q395 425 411 473Q422 502 429.5 538.0Q437 574 437 601Q437 628 437.0 639.0Q437 650 444 647Q452 644 452.0 633.5Q452 623 452 599Q451 574 444.0 533.5Q437 493 426 463Q410 415 398.0 375.5Q386 336 383.5 297.5Q381 259 394 214Q407 166 434.0 136.5Q461 107 489.0 90.0Q517 73 534 66Q559 55 574.0 50.5Q589 46 589 39Z" fill="#d5d5d5" stroke="none" transform="scale(1,-1) translate(0,-256)" /></svg>