<?xml version="1.0" encoding="utf-8" ?>
<svg baseProfile="full" height="256" version="1.1" width="256" xmlns="http://www.w3.org/2000/svg" xmlns:ev="http://www.w3.org/2001/xml-events" xmlns:xlink="http://www.w3.org/1999/xlink"><defs /><path d="M90 -113H320V-146Q320 -157 312.0 -165.5Q304 -174 292 -174H119Q107 -174 98.5 -165.5Q90 -157 90 -146Z" fill="#563428" stroke="none" transform="scale(1,-1) translate(0,-256)" /><path d="M963.843994140625 -113.0H1193.843994140625V-146.0Q1193.843994140625 -157.0 1185.843994140625 -165.5Q1177.843994140625 -174.0 1165.843994140625 -174.0H992.843994140625Q980.843994140625 -174.0 972.343994140625 -165.5Q963.843994140625 -157.0 963.843994140625 -146.0Z" fill="#563428" stroke="none" transform="scale(1,-1) translate(0,-256)" /><path d="M988 399Q984 468 953.5 527.5Q923 587 872.0 630.5Q821 674 756.0 696.5Q691 719 618 715Q545 711 483.0 681.5Q421 652 375.5 603.0Q330 554 306.0 491.5Q282 429 286 359Q290 289 320.5 230.0Q351 171 402.0 127.5Q453 84 518.0 61.0Q583 38 656 43Q729 47 791.0 76.5Q853 106 898.5 155.0Q944 204 968.0 266.5Q992 329 988 399Z" fill="#563428" stroke="none" transform="scale(1,-1) translate(0,-256)" /><path d="M1089 199Q1101 180 1115 167Q1103 168 1090.5 164.5Q1078 161 1067 156Q1038 143 1015.0 122.0Q992 101 966 84Q913 50 851 28Q841 24 838 35Q836 42 843 46Q927 94 982.5 176.5Q1038 259 1049 360Q1047 345 1049.5 327.5Q1052 310 1055 295Q1057 283 1059.5 270.5Q1062 258 1066 247Q1075 221 1089 199Z" fill="#563428" stroke="none" transform="scale(1,-1) translate(0,-256)" /><path d="M206 240Q216 197 248.5 155.0Q281 113 327.0 79.5Q373 46 424 28Q434 24 437 35Q439 42 432 46Q348 94 292.5 176.5Q237 259 226 360Q225 333 220.0 305.0Q215 277 210.5 258.5Q206 240 206 240Z" fill="#563428" stroke="none" transform="scale(1,-1) translate(0,-256)" /></svg>