<?xml version="1.0" encoding="utf-8" ?>
<svg baseProfile="full" height="256" version="1.1" width="256" xmlns="http://www.w3.org/2000/svg" xmlns:ev="http://www.w3.org/2001/xml-events" xmlns:xlink="http://www.w3.org/1999/xlink"><defs /><path d="M668.4363403320312 398.1886901855469Q668.4363403320312 404.2209167480469 666.1742553710938 409.5251159667969Q663.9121704101562 414.8293151855469 659.8820190429688 418.8594665527344Q655.8518676757812 422.8896179199219 650.5476684570312 425.1777038574219Q645.2434692382812 427.4657897949219 639.2112426757812 427.4657897949219Q633.1270141601562 427.4657897949219 627.8228149414062 425.1777038574219Q622.5186157226562 422.8896179199219 618.4884643554688 418.8594665527344Q614.4583129882812 414.8293151855469 612.1962280273438 409.5251159667969Q609.9341430664062 404.2209167480469 609.9341430664062 398.1886901855469Q609.9341430664062 392.1564636230469 612.1962280273438 386.8522644042969Q614.4583129882812 381.5480651855469 618.4884643554688 377.5179138183594Q622.5186157226562 373.4877624511719 627.8228149414062 371.2256774902344Q633.1270141601562 368.9635925292969 639.2112426757812 368.9635925292969Q645.2434692382812 368.9635925292969 650.5476684570312 371.2256774902344Q655.8518676757812 373.4877624511719 659.8820190429688 377.5179138183594Q663.9121704101562 381.5480651855469 666.1742553710938 386.8522644042969Q668.4363403320312 392.1564636230469 668.4363403320312 398.1886901855469Z" fill="#3e2723" stroke="none" transform="scale(1,-1) translate(0,-256)" /><path d="M818 502Q820 499 818 497Q814 491 809 484Q805 476 801.0 467.5Q797 459 791 456Q781 451 773.0 453.0Q765 455 761 459L658 387L647 405L639 420L752 474Q751 480 753.0 487.5Q755 495 764 501Q770 505 779.5 504.5Q789 504 798 504Q805 504 813 505Q816 505 818 502Z" fill="#3e2723" stroke="none" transform="scale(1,-1) translate(0,-256)" /><path d="M563 453 641 420 632 405 622 387 554 438Q549 434 541.5 432.0Q534 430 524 435Q518 438 514.0 446.5Q510 455 505 463Q502 469 497 476Q495 478 497 481Q498 484 501 484Q510 483 517 483Q526 483 535.5 483.5Q545 484 551 480Q560 474 562.0 466.5Q564 459 563 453Z" fill="#3e2723" stroke="none" transform="scale(1,-1) translate(0,-256)" /></svg>