<?xml version="1.0" encoding="utf-8" ?>
<svg baseProfile="full" height="256" version="1.1" width="256" xmlns="http://www.w3.org/2000/svg" xmlns:ev="http://www.w3.org/2001/xml-events" xmlns:xlink="http://www.w3.org/1999/xlink"><defs /><path d="M640 -113Q546 -106 475.0 -78.0Q404 -50 353.5 -11.0Q303 28 270.0 70.5Q237 113 218.0 150.0Q199 187 191.5 210.0Q184 233 184 233L278 112L282 110Q310 74 367.5 36.5Q425 -1 527 -17Q553 -21 574.0 -36.5Q595 -52 609.5 -69.5Q624 -87 632.0 -100.0Q640 -113 640 -113Z" fill="#94d1e0" stroke="none" transform="scale(1,-1) translate(0,-256)" /><path d="M430 454Q432 481 458 485L588 507L629 465Q632 462 630.5 458.0Q629 454 625 454Z" fill="#94d1e0" stroke="none" transform="scale(1,-1) translate(0,-256)" /></svg>