<?xml version="1.0" encoding="utf-8" ?>
<svg baseProfile="full" height="256" version="1.1" width="256" xmlns="http://www.w3.org/2000/svg" xmlns:ev="http://www.w3.org/2001/xml-events" xmlns:xlink="http://www.w3.org/1999/xlink"><defs /><path d="M639 542Q639 542 629.5 553.0Q620 564 601.0 575.5Q582 587 553 588Q530 589 506.5 577.0Q483 565 467.5 542.0Q452 519 452 488Q452 449 470.0 412.5Q488 376 515.0 344.0Q542 312 569.5 288.0Q597 264 616.0 250.5Q635 237 636 237Q638 237 657.0 251.5Q676 266 703.0 290.5Q730 315 756.5 346.5Q783 378 801.5 413.0Q820 448 820 483Q821 528 800.0 556.5Q779 585 736 589Q706 591 684.0 579.5Q662 568 650.5 555.0Q639 542 639 542Z" fill="#76167b" stroke="none" transform="scale(1,-1) translate(0,-256)" /></svg>