<?xml version="1.0" encoding="utf-8" ?>
<svg baseProfile="full" height="256" version="1.1" width="256" xmlns="http://www.w3.org/2000/svg" xmlns:ev="http://www.w3.org/2001/xml-events" xmlns:xlink="http://www.w3.org/1999/xlink"><defs /><path d="M222 522Q231 522 233 531Q234 541 223 542Q223 542 213.5 543.5Q204 545 186 548Q166 552 154.0 553.5Q142 555 141 555Q131 556 130 546Q129 536 139 535Q139 535 151.0 533.5Q163 532 183 528Q200 525 210.5 523.5Q221 522 221 522Q221 522 222 522Z" fill="#888071" stroke="none" transform="scale(1,-1) translate(0,-256)" /><path d="M139 480Q139 480 139.0 480.5Q139 481 140 481Q141 481 155.5 482.5Q170 484 180 486Q190 488 207.5 490.5Q225 493 225 493L221 513Q221 513 204.0 510.5Q187 508 177 506Q167 505 152.5 503.0Q138 501 137 501Q127 500 128 490Q129 480 139 480Z" fill="#888071" stroke="none" transform="scale(1,-1) translate(0,-256)" /><path d="M155 437Q156 437 158 438L231 459Q241 462 239 472Q236 481 226 479L152 458Q142 455 145 445Q147 437 155 437Z" fill="#888071" stroke="none" transform="scale(1,-1) translate(0,-256)" /><path d="M481 477Q490 477 491 486Q492 496 482 497Q481 497 464.0 498.0Q447 499 433 499Q418 500 399.0 500.5Q380 501 380 501Q380 501 374.0 500.5Q368 500 368 491Q368 483 373.5 482.0Q379 481 379 481Q379 481 398.5 480.5Q418 480 432 480Q446 479 463.0 478.0Q480 477 481 477Q481 477 481.0 477.0Q481 477 481 477Z" fill="#888071" stroke="none" transform="scale(1,-1) translate(0,-256)" /><path d="M465 413Q471 413 473 418Q478 427 469 431Q468 432 453.5 438.5Q439 445 422 451Q405 456 390.0 461.0Q375 466 375 466Q366 469 363 460Q360 451 369 448Q369 448 384.0 443.0Q399 438 416 432Q432 427 446.0 420.5Q460 414 460 414Q462 413 465 413Z" fill="#888071" stroke="none" transform="scale(1,-1) translate(0,-256)" /><path d="M417 376Q422 376 425 381Q430 389 422 394Q422 395 412.0 401.5Q402 408 394 413Q385 418 373.5 425.5Q362 433 362 433Q362 433 357.0 435.0Q352 437 348 431Q343 424 347.0 420.0Q351 416 351 416Q351 416 363.0 408.5Q375 401 383 396Q392 391 401.5 384.5Q411 378 411 378Q414 376 417 376Z" fill="#888071" stroke="none" transform="scale(1,-1) translate(0,-256)" /></svg>