<?xml version="1.0" encoding="utf-8" ?>
<svg baseProfile="full" height="256" version="1.1" width="256" xmlns="http://www.w3.org/2000/svg" xmlns:ev="http://www.w3.org/2001/xml-events" xmlns:xlink="http://www.w3.org/1999/xlink"><defs /><path d="M725 226Q709 225 702.0 237.0Q695 249 693.0 264.5Q691 280 691 292Q691 302 691.0 318.5Q691 335 691.0 347.5Q691 360 691 360Q691 360 700.0 363.5Q709 367 721 372Q734 377 745.0 379.0Q756 381 756 381Q756 381 757.0 363.0Q758 345 758 314Q757 277 753.5 251.5Q750 226 725 226Z" fill="#ff9b31" stroke="none" transform="scale(1,-1) translate(0,-256)" /><path d="M783 387Q783 387 794.0 388.0Q805 389 816 390Q830 390 840.5 388.5Q851 387 851 387Q851 387 850.5 375.5Q850 364 850.0 349.0Q850 334 850 322Q850 287 846.0 260.5Q842 234 817 234Q799 234 792.0 245.5Q785 257 784.0 275.0Q783 293 783 311Q783 337 783.0 362.0Q783 387 783 387Z" fill="#ff9b31" stroke="none" transform="scale(1,-1) translate(0,-256)" /></svg>