<?xml version="1.0" encoding="utf-8" ?>
<svg baseProfile="full" height="256" version="1.1" width="256" xmlns="http://www.w3.org/2000/svg" xmlns:ev="http://www.w3.org/2001/xml-events" xmlns:xlink="http://www.w3.org/1999/xlink"><defs /><path d="M447.093994140625 529.0619964599609Q461.093994140625 516.0619964599609 452.093994140625 498.06199645996094Q447.093994140625 488.06199645996094 436.593994140625 484.56199645996094Q426.093994140625 481.06199645996094 416.093994140625 486.06199645996094Q402.093994140625 499.06199645996094 411.093994140625 517.0619964599609Q416.093994140625 527.0619964599609 426.593994140625 530.5619964599609Q437.093994140625 534.0619964599609 447.093994140625 529.0619964599609Z" fill="#896024" stroke="none" transform="scale(1,-1) translate(0,-256)" /><path d="M806.625 529.0619964599609Q820.625 516.0619964599609 811.625 498.06199645996094Q806.625 488.06199645996094 796.125 484.56199645996094Q785.625 481.06199645996094 775.625 486.06199645996094Q761.625 499.06199645996094 770.625 517.0619964599609Q775.625 527.0619964599609 786.125 530.5619964599609Q796.625 534.0619964599609 806.625 529.0619964599609Z" fill="#896024" stroke="none" transform="scale(1,-1) translate(0,-256)" /></svg>