<?xml version="1.0" encoding="utf-8" ?>
<svg baseProfile="full" height="256" version="1.1" width="256" xmlns="http://www.w3.org/2000/svg" xmlns:ev="http://www.w3.org/2001/xml-events" xmlns:xlink="http://www.w3.org/1999/xlink"><defs /><path d="M1131 -215Q1160 -215 1180.5 -194.5Q1201 -174 1201 -144V843Q1201 872 1180.5 892.5Q1160 913 1131 913H144Q114 913 93.5 892.5Q73 872 73 843V-144Q73 -174 93.5 -194.5Q114 -215 144 -215Z" fill="#000000" stroke="none" transform="scale(1,-1) translate(0,-256)" /><path d="M1116 487H1201V-144Q1201 -174 1180.5 -194.5Q1160 -215 1131 -215H144Q114 -215 93.5 -194.5Q73 -174 73 -144V684Q73 684 92.0 684.0Q111 684 136.0 683.5Q161 683 180.0 683.0Q199 683 199 683V314H402V-14H469V351H446V421H469V565H495L528 670H595L629 565H654V421H676V351H654V-14H701V313H751V380H800V445H876V383H919V312H967V87H1116Q1116 87 1115.5 115.0Q1115 143 1115.0 188.0Q1115 233 1114.5 284.0Q1114 335 1114.0 380.5Q1114 426 1114.5 455.5Q1115 485 1116 487Z" fill="#000000" stroke="none" transform="scale(1,-1) translate(0,-256)" /></svg>