<?xml version="1.0" encoding="utf-8" ?>
<svg baseProfile="full" height="256" version="1.1" width="256" xmlns="http://www.w3.org/2000/svg" xmlns:ev="http://www.w3.org/2001/xml-events" xmlns:xlink="http://www.w3.org/1999/xlink"><defs /><path d="M497 636Q497 629 484.0 622.5Q471 616 452.0 607.5Q433 599 414.5 586.5Q396 574 384 554Q376 541 371.5 523.5Q367 506 362.0 493.0Q357 480 347 480Q336 480 334.0 497.0Q332 514 332 536Q332 567 335.5 591.0Q339 615 350 628Q360 640 379.0 645.0Q398 650 432 652Q474 653 485.5 649.5Q497 646 497 636Z" fill="#787878" stroke="none" transform="scale(1,-1) translate(0,-256)" /></svg>