<?xml version="1.0" encoding="utf-8" ?>
<svg baseProfile="full" height="256" version="1.1" width="256" xmlns="http://www.w3.org/2000/svg" xmlns:ev="http://www.w3.org/2001/xml-events" xmlns:xlink="http://www.w3.org/1999/xlink"><defs /><path d="M1183 47 1208 -11Q1188 -11 1138.0 -7.0Q1088 -3 1019.5 3.0Q951 9 874.5 15.5Q798 22 724.5 29.5Q651 37 591.0 43.5Q531 50 496 56Q450 63 390.0 74.5Q330 86 268.0 99.5Q206 113 154.5 124.5Q103 136 74 143Q68 145 67.5 151.5Q67 158 73 160Q106 170 180.0 183.5Q254 197 373 195Q439 194 517.0 191.5Q595 189 671.0 186.5Q747 184 809.5 182.0Q872 180 909.5 178.5Q947 177 947 177Z" fill="#ffca28" stroke="none" transform="scale(1,-1) translate(0,-256)" /><path d="M454 184Q454 184 474.5 167.5Q495 151 556 122Q587 108 623.0 99.0Q659 90 692.0 84.5Q725 79 745.5 77.0Q766 75 766 75V90Q702 100 650.5 117.0Q599 134 562.5 152.0Q526 170 506.5 182.5Q487 195 487 195Q487 195 479.0 193.0Q471 191 463.0 188.5Q455 186 454 184Z" fill="#ffca28" stroke="none" transform="scale(1,-1) translate(0,-256)" /></svg>