<?xml version="1.0" encoding="utf-8" ?>
<svg baseProfile="full" height="256" version="1.1" width="256" xmlns="http://www.w3.org/2000/svg" xmlns:ev="http://www.w3.org/2001/xml-events" xmlns:xlink="http://www.w3.org/1999/xlink"><defs /><path d="M67 148Q67 148 102.0 141.5Q137 135 196.0 124.5Q255 114 329.0 101.5Q403 89 483.0 77.0Q563 65 638 55Q712 46 792.0 36.5Q872 27 946.0 18.5Q1020 10 1079.0 3.0Q1138 -4 1173.0 -7.5Q1208 -11 1208 -11Q1208 -11 1204.0 -28.0Q1200 -45 1194.0 -70.5Q1188 -96 1182.5 -121.5Q1177 -147 1173.0 -165.0Q1169 -183 1169 -185Q1165 -198 1153.5 -204.0Q1142 -210 1132.0 -211.0Q1122 -212 1122 -212Q1122 -212 1081.5 -211.5Q1041 -211 972.5 -208.0Q904 -205 818.5 -197.5Q733 -190 641.0 -176.5Q549 -163 462.0 -142.0Q375 -121 305 -90Q231 -58 184.5 -17.5Q138 23 112.5 61.0Q87 99 77.0 123.5Q67 148 67 148Z" fill="#f4511e" stroke="none" transform="scale(1,-1) translate(0,-256)" /></svg>