<?xml version="1.0" encoding="utf-8" ?>
<svg baseProfile="full" height="256" version="1.1" width="256" xmlns="http://www.w3.org/2000/svg" xmlns:ev="http://www.w3.org/2001/xml-events" xmlns:xlink="http://www.w3.org/1999/xlink"><defs /><path d="M525 903Q553 913 575.5 912.5Q598 912 603 903Q615 884 590.5 860.0Q566 836 529 818Q484 797 426.5 778.0Q369 759 311.0 743.5Q253 728 205.5 717.0Q158 706 133 701Q120 698 113.0 686.5Q106 675 107 662Q114 598 132.0 549.0Q150 500 171.0 465.5Q192 431 209.0 410.0Q226 389 232 381Q184 418 152.5 464.0Q121 510 103.5 555.0Q86 600 79.0 636.5Q72 673 72 690Q73 711 82.5 714.0Q92 717 117 725Q131 731 165.5 745.5Q200 760 244.5 779.5Q289 799 336.0 820.0Q383 841 424.5 859.0Q466 877 493.0 889.0Q520 901 525 903Z" fill="#c62828" stroke="none" transform="scale(1,-1) translate(0,-256)" /></svg>