<?xml version="1.0" encoding="utf-8" ?>
<svg baseProfile="full" height="256" version="1.1" width="256" xmlns="http://www.w3.org/2000/svg" xmlns:ev="http://www.w3.org/2001/xml-events" xmlns:xlink="http://www.w3.org/1999/xlink"><defs /><path d="M683 707Q691 691 700.0 674.0Q709 657 718 637Q718 628 708.5 609.5Q699 591 685.0 570.5Q671 550 656 536Q630 509 619.0 480.5Q608 452 606.0 432.5Q604 413 604 413Q591 437 578.0 461.5Q565 486 553 509Q531 553 514.0 587.0Q497 621 487 641L563 709L613 734L634 695Q635 695 652.0 699.5Q669 704 683 707Z" fill="#eaab57" stroke="none" transform="scale(1,-1) translate(0,-256)" /></svg>