<?xml version="1.0" encoding="utf-8" ?>
<svg baseProfile="full" height="256" version="1.1" width="256" xmlns="http://www.w3.org/2000/svg" xmlns:ev="http://www.w3.org/2001/xml-events" xmlns:xlink="http://www.w3.org/1999/xlink"><defs /><path d="M315 332Q240 366 193.0 414.5Q146 463 120.5 514.5Q95 566 85.5 608.5Q76 651 77 671Q77 693 85.5 702.5Q94 712 119 718Q148 725 192.0 735.5Q236 746 282.0 758.5Q328 771 361 783Q390 793 401.0 803.0Q412 813 417.5 822.5Q423 832 436 842Q454 855 475.0 868.0Q496 881 513.5 890.0Q531 899 538 901Q565 909 584.0 906.0Q603 903 603 903Q603 903 611.5 885.5Q620 868 633.5 841.5Q647 815 660.5 787.0Q674 759 685.0 737.5Q696 716 699 710Q708 695 708.0 686.0Q708 677 703 668Q694 652 670.0 628.5Q646 605 593 590Q580 586 567.0 583.5Q554 581 541 578Q525 574 504.5 552.0Q484 530 462.5 499.0Q441 468 420.0 434.5Q399 401 382.0 373.5Q365 346 354 333Q346 323 333.5 326.0Q321 329 315 332Z" fill="#f44336" stroke="none" transform="scale(1,-1) translate(0,-256)" /></svg>