<?xml version="1.0" encoding="utf-8" ?>
<svg baseProfile="full" height="256" version="1.1" width="256" xmlns="http://www.w3.org/2000/svg" xmlns:ev="http://www.w3.org/2001/xml-events" xmlns:xlink="http://www.w3.org/1999/xlink"><defs /><path d="M1196 27Q1187 19 1173 20Q1167 21 1161.0 22.5Q1155 24 1149 26Q1146 27 1142 27Q1127 30 1112 29Q1105 29 1098.0 27.0Q1091 25 1084 25Q1071 24 1063 35Q1063 36 1063.0 36.0Q1063 36 1063 37Q1064 41 1067 42Q1077 47 1094.0 54.5Q1111 62 1137 61Q1167 60 1182.0 52.0Q1197 44 1202 37Q1200 31 1196 27Z" fill="#546e7a" stroke="none" transform="scale(1,-1) translate(0,-256)" /></svg>