<?xml version="1.0" encoding="utf-8" ?>
<svg baseProfile="full" height="256" version="1.1" width="256" xmlns="http://www.w3.org/2000/svg" xmlns:ev="http://www.w3.org/2001/xml-events" xmlns:xlink="http://www.w3.org/1999/xlink"><defs /><path d="M567 300 499 187H577L645 300Z" fill="#82aec0" stroke="none" transform="scale(1,-1) translate(0,-256)" /><path d="M450 -121Q476 -123 530.0 -125.5Q584 -128 652.0 -130.5Q720 -133 790.0 -135.5Q860 -138 921.0 -140.5Q982 -143 1022.0 -145.5Q1062 -148 1067 -150L1059 -161L1048 -173L521 -175Q443 -175 387.0 -159.0Q331 -143 290 -106Q290 -106 327.0 -109.5Q364 -113 450 -121Z" fill="#82aec0" stroke="none" transform="scale(1,-1) translate(0,-256)" /></svg>