<?xml version="1.0" encoding="utf-8" ?>
<svg baseProfile="full" height="256" version="1.1" width="256" xmlns="http://www.w3.org/2000/svg" xmlns:ev="http://www.w3.org/2001/xml-events" xmlns:xlink="http://www.w3.org/1999/xlink"><defs /><path d="M930 620Q929 600 913.0 590.5Q897 581 880 583Q880 583 879 583Q897 556 885.0 537.5Q873 519 857 517Q836 515 823.5 530.0Q811 545 811 563Q811 564 811.0 565.0Q811 566 811 566Q811 566 810.5 565.5Q810 565 810 565Q799 548 783.0 543.5Q767 539 753.5 543.5Q740 548 735 556Q724 576 733.5 595.0Q743 614 760 621Q761 621 763 622Q742 629 733.5 643.0Q725 657 725.0 672.0Q725 687 732 694Q748 713 770.0 707.5Q792 702 804 686Q808 682 810 677Q811 707 831.0 717.5Q851 728 863 723Q884 714 886.5 691.5Q889 669 880 653Q879 651 879 651Q902 659 916.5 646.5Q931 634 930 620ZM833 607Q836 608 840.5 607.0Q845 606 848 604Q841 611 842 619Q842 627 846 632Q839 631 832 634Q825 637 820 644Q819 637 815 631Q811 625 800 621Q806 618 810 613Q816 605 817 593Q822 603 833 607Z" fill="#ffdce8" stroke="none" transform="scale(1,-1) translate(0,-256)" /><path d="M632 433Q642 426 642.5 412.5Q643 399 638 392Q633 384 619.0 378.5Q605 373 589 382Q585 384 582.0 388.0Q579 392 577 395Q577 385 573.0 375.5Q569 366 558 358Q543 348 528.0 351.5Q513 355 507 367Q503 376 502.0 389.5Q501 403 515 416Q509 416 503 419Q485 425 480.5 441.5Q476 458 483 471Q488 480 499.0 488.0Q510 496 529 490Q542 486 548 477Q549 484 552 489Q561 505 577.0 505.5Q593 506 602 500Q611 494 615.0 481.0Q619 468 612 455Q609 449 603 444Q617 445 632 433ZM576 432Q581 438 585 439Q575 438 567 442Q562 444 559.0 447.5Q556 451 554 453Q554 448 553.0 445.5Q552 443 551 439Q550 434 545 429Q554 428 560.5 424.5Q567 421 571 417Q571 426 576 432Z" fill="#ffdce8" stroke="none" transform="scale(1,-1) translate(0,-256)" /></svg>