<?xml version="1.0" encoding="utf-8" ?>
<svg baseProfile="full" height="256" version="1.1" width="256" xmlns="http://www.w3.org/2000/svg" xmlns:ev="http://www.w3.org/2001/xml-events" xmlns:xlink="http://www.w3.org/1999/xlink"><defs /><path d="M624 185 789 193Q789 193 788.0 168.5Q787 144 778.0 108.5Q769 73 744 38Q719 4 687.0 -15.0Q655 -34 619.5 -48.0Q584 -62 550 -81Q515 -100 492.0 -123.5Q469 -147 457.5 -164.5Q446 -182 446 -182Q446 -182 430.0 -175.5Q414 -169 392.0 -160.5Q370 -152 351 -146Q331 -140 305.5 -137.0Q280 -134 260.5 -132.5Q241 -131 241 -131Q241 -131 248.0 -116.5Q255 -102 273.5 -81.0Q292 -60 326 -39Q362 -18 408.0 0.5Q454 19 497.5 37.5Q541 56 568 78Q594 98 604.5 122.0Q615 146 618.0 164.5Q621 183 624 185Z" fill="#dbeff5" stroke="none" transform="scale(1,-1) translate(0,-256)" /></svg>