<?xml version="1.0" encoding="utf-8" ?>
<svg baseProfile="full" height="256" version="1.1" width="256" xmlns="http://www.w3.org/2000/svg" xmlns:ev="http://www.w3.org/2001/xml-events" xmlns:xlink="http://www.w3.org/1999/xlink"><defs /><path d="M325 -82 747 152Q747 152 753.0 161.5Q759 171 768.0 181.0Q777 191 788 193Q793 194 800 194Q816 193 815.0 178.5Q814 164 813 132Q811 101 793.5 61.0Q776 21 742 -13Q719 -35 684.5 -53.0Q650 -71 613.5 -87.0Q577 -103 548 -122Q512 -145 494.0 -166.0Q476 -187 468.0 -201.0Q460 -215 454 -217Q449 -219 417.5 -204.0Q386 -189 342 -179Q297 -168 274.5 -164.0Q252 -160 245 -158Q239 -155 240.0 -143.0Q241 -131 241 -131Z" fill="#a7d0d7" stroke="none" transform="scale(1,-1) translate(0,-256)" /><path d="M649 45Q644 47 640.0 52.5Q636 58 638 67Q640 76 647.0 80.0Q654 84 662 83Q670 81 674.5 74.5Q679 68 676 59Q674 50 666.0 46.0Q658 42 649 45Z" fill="#a7d0d7" stroke="none" transform="scale(1,-1) translate(0,-256)" /><path d="M582 24Q590 19 587.0 11.5Q584 4 578 0Q573 -3 564.0 -4.0Q555 -5 549 -1Q544 3 544.0 10.0Q544 17 551 23Q558 28 567.0 28.0Q576 28 582 24Z" fill="#a7d0d7" stroke="none" transform="scale(1,-1) translate(0,-256)" /><path d="M469 -21Q477 -21 484.0 -26.0Q491 -31 491 -38Q491 -48 483.0 -51.5Q475 -55 467 -56Q458 -57 450.5 -52.0Q443 -47 443 -39Q444 -32 450.5 -26.5Q457 -21 469 -21Z" fill="#a7d0d7" stroke="none" transform="scale(1,-1) translate(0,-256)" /></svg>