<?xml version="1.0" encoding="utf-8" ?>
<svg baseProfile="full" height="256" version="1.1" width="256" xmlns="http://www.w3.org/2000/svg" xmlns:ev="http://www.w3.org/2001/xml-events" xmlns:xlink="http://www.w3.org/1999/xlink"><defs /><path d="M645 614Q578 614 535.5 602.5Q493 591 470.0 576.5Q447 562 438.0 551.0Q429 540 429 540L462 458Q462 458 479.5 454.5Q497 451 526.0 446.5Q555 442 588.5 439.0Q622 436 653 436Q697 437 733.5 442.0Q770 447 791.5 451.5Q813 456 813 456L878 515L858 562Q858 562 836.5 575.5Q815 589 768.0 602.0Q721 615 645 614Z" fill="#ffd51d" stroke="none" transform="scale(1,-1) translate(0,-256)" /></svg>