<?xml version="1.0" encoding="utf-8" ?>
<svg baseProfile="full" height="256" version="1.1" width="256" xmlns="http://www.w3.org/2000/svg" xmlns:ev="http://www.w3.org/2001/xml-events" xmlns:xlink="http://www.w3.org/1999/xlink"><defs /><path d="M520 182 534 259 742 217Q742 217 750.5 204.5Q759 192 768.5 170.5Q778 149 781 123Q784 96 769.0 75.5Q754 55 734.5 40.0Q715 25 702 15Q689 5 677.0 -12.0Q665 -29 656.5 -42.5Q648 -56 644 -56Q638 -56 629.0 -38.0Q620 -20 609 -6Q597 9 571.5 31.0Q546 53 523 84Q509 104 509.0 127.0Q509 150 514.5 166.0Q520 182 520 182Z" fill="#000000" stroke="none" transform="scale(1,-1) translate(0,-256)" /><path d="M775 222 831 208Q831 208 845.5 208.0Q860 208 879.5 210.0Q899 212 915 217Q951 228 973.5 240.0Q996 252 996 252Q996 252 1019.0 247.5Q1042 243 1080 219Q1120 193 1141.0 167.0Q1162 141 1169.5 124.0Q1177 107 1177 107Q1177 107 1162.0 119.5Q1147 132 1117.0 144.0Q1087 156 1043 156Q1010 156 989.0 146.5Q968 137 950.0 126.5Q932 116 910.0 111.0Q888 106 852 114Q822 121 806.0 138.0Q790 155 783.5 174.5Q777 194 776.0 208.0Q775 222 775 222Z" fill="#000000" stroke="none" transform="scale(1,-1) translate(0,-256)" /><path d="M411 218Q411 218 422.5 218.0Q434 218 448.0 216.5Q462 215 471 211Q491 202 492.0 191.5Q493 181 493 181Q493 181 480.0 163.0Q467 145 436 135Q408 125 388.0 126.5Q368 128 350.0 133.0Q332 138 311.0 141.5Q290 145 259 141Q219 135 190.0 119.5Q161 104 145.5 91.5Q130 79 129 82Q128 85 131.0 91.5Q134 98 138 105Q141 112 149.0 139.0Q157 166 184 206Q202 232 221.0 244.5Q240 257 253.0 261.0Q266 265 266 265Q266 265 281.5 252.5Q297 240 324 231Q369 216 390.0 217.0Q411 218 411 218Z" fill="#000000" stroke="none" transform="scale(1,-1) translate(0,-256)" /><path d="M571 660 595 620 660 624 700 668Q700 668 689.5 689.0Q679 710 667 731Q655 751 642.5 767.5Q630 784 630 784Q630 784 617.5 766.5Q605 749 597 733Q579 698 575.0 679.0Q571 660 571 660Z" fill="#000000" stroke="none" transform="scale(1,-1) translate(0,-256)" /><path d="M384 383 462 441 500 612Q500 612 494.0 625.5Q488 639 471.5 660.5Q455 682 422 707Q390 732 364.5 742.5Q339 753 324.5 755.0Q310 757 310 757Q310 757 317.0 747.0Q324 737 326 705Q328 681 323.5 662.0Q319 643 313.5 624.0Q308 605 307 579Q305 539 313.5 514.5Q322 490 325 482Q327 477 336.0 461.5Q345 446 356.5 427.5Q368 409 376.0 396.0Q384 383 384 383Z" fill="#000000" stroke="none" transform="scale(1,-1) translate(0,-256)" /><path d="M738 581 870 423 916 450Q916 450 922.0 473.5Q928 497 932 521Q936 556 932.5 588.0Q929 620 931 664Q932 693 942.0 713.5Q952 734 961.0 745.0Q970 756 970 758Q969 759 952.0 759.0Q935 759 904.5 751.0Q874 743 836 721Q807 704 788.0 680.5Q769 657 758.0 634.0Q747 611 742.5 596.0Q738 581 738 581Z" fill="#000000" stroke="none" transform="scale(1,-1) translate(0,-256)" /><path d="M908 299 920 307 957 319 1015 389 1096 486 1155 541 1196 544Q1196 544 1194.5 549.5Q1193 555 1184 558Q1179 561 1152.0 564.5Q1125 568 1086.5 564.0Q1048 560 1007 541Q965 522 939.5 501.5Q914 481 902.5 466.5Q891 452 891 452L880 360Z" fill="#000000" stroke="none" transform="scale(1,-1) translate(0,-256)" /><path d="M383 379 388 303 341 314 304 333 200 441 113 500Q113 500 103.5 504.5Q94 509 81.5 515.5Q69 522 60.0 527.5Q51 533 51 536Q52 539 82.0 543.0Q112 547 161.5 542.0Q211 537 269 516Q303 503 325.0 481.0Q347 459 360.0 435.5Q373 412 378.0 395.5Q383 379 383 379Z" fill="#000000" stroke="none" transform="scale(1,-1) translate(0,-256)" /><path d="M545.0869750976562 347.87322998046875 541.7853240966797 579.7993469238281Q541.7853240966797 579.7993469238281 559.9813079833984 575.7870483398438Q578.1772918701172 571.7747497558594 600.4456787109375 566.2217254638672Q622.7140655517578 560.668701171875 634.9160003662109 556.3901672363281Q647.1484832763672 551.4243469238281 663.4380950927734 545.2614440917969Q679.7277069091797 539.0985412597656 692.0060119628906 533.1017913818359Q704.2843170166016 527.1050415039062 703.4075012207031 524.3115234375Q703.5907897949219 520.1878051757812 690.3332901000977 514.4341278076172Q677.0757904052734 508.6804504394531 663.4257049560547 500.49908447265625Q655.6474761962891 495.3330993652344 642.5427169799805 486.1429901123047Q629.4379577636719 476.952880859375 619.2538528442383 469.6141052246094Q609.0697479248047 462.27532958984375 609.0697479248047 462.27532958984375Q609.0697479248047 462.27532958984375 623.0298538208008 452.22142028808594Q636.9899597167969 442.1675109863281 646.3170623779297 435.0067138671875Q652.5554962158203 429.774658203125 664.8948974609375 422.40333557128906Q677.2342987060547 415.0320129394531 687.0303573608398 408.5806884765625Q696.826416015625 402.1293640136719 697.8865203857422 400.7991638183594Q698.0087127685547 398.0500183105469 678.925178527832 388.2500305175781Q659.8416442871094 378.4500427246094 644.1324462890625 371.55450439453125Q624.457763671875 363.794189453125 601.1796340942383 358.28407287597656Q577.9015045166016 352.7739562988281 561.4942398071289 350.32359313964844Q545.0869750976562 347.87322998046875 545.0869750976562 347.87322998046875Z" fill="#000000" stroke="none" transform="scale(1,-1) translate(0,-256)" /><path d="M796 350Q796 350 808.5 360.5Q821 371 827 377Q831 380 840.0 388.0Q849 396 858.0 404.0Q867 412 871 414Q877 417 880.0 415.5Q883 414 883 414L890 403Q890 403 894.5 434.5Q899 466 904 513Q908 560 903.5 576.0Q899 592 895 593Q894 593 893.5 588.0Q893 583 884 571Q878 564 860.5 548.0Q843 532 815 486Q799 459 795.5 427.0Q792 395 794.0 372.5Q796 350 796 350Z" fill="#000000" stroke="none" transform="scale(1,-1) translate(0,-256)" /><path d="M517 359Q517 359 501.0 369.0Q485 379 465 393Q445 407 434.5 416.5Q424 426 415 426Q407 426 404.0 422.0Q401 418 401 418L400 415Q400 415 397.5 426.0Q395 437 392 455Q387 484 386.5 506.0Q386 528 387 548Q388 568 390.5 587.0Q393 606 393 606Q393 606 400.0 594.0Q407 582 422 563Q434 548 447.0 535.5Q460 523 479 493Q496 467 508.0 442.5Q520 418 526.5 401.5Q533 385 533 385Z" fill="#000000" stroke="none" transform="scale(1,-1) translate(0,-256)" /><path d="M651 530Q653 530 659.5 519.5Q666 509 673.5 495.5Q681 482 688 472Q697 458 715.5 438.5Q734 419 749 397Q763 376 771.0 358.0Q779 340 779 340Q779 340 763.0 329.0Q747 318 732 305Q718 292 704.0 274.0Q690 256 681 240Q671 225 669.5 218.0Q668 211 669 207Q670 203 673.0 201.5Q676 200 676 200L675 192Q675 192 662.0 190.5Q649 189 638 189Q627 189 616.0 190.5Q605 192 605 192Q605 192 604.5 194.5Q604 197 606 198Q606 198 607.5 197.5Q609 197 609 198Q618 200 615 217Q614 228 603.5 252.0Q593 276 582 292Q568 314 553.0 328.5Q538 343 538 343Q538 343 543.5 356.0Q549 369 559 387Q570 405 583.5 422.0Q597 439 613 461Q630 483 639.0 507.0Q648 531 651 530Z" fill="#000000" stroke="none" transform="scale(1,-1) translate(0,-256)" /><path d="M883 413Q883 413 893.5 399.0Q904 385 914.5 363.5Q925 342 926 320Q927 298 911.5 272.0Q896 246 866.0 223.5Q836 201 794 192Q752 183 725.5 184.0Q699 185 686.0 189.0Q673 193 673 193L676 200Q676 200 688.0 214.5Q700 229 717.0 248.5Q734 268 750 283Q774 307 798.5 325.0Q823 343 843 362Q864 381 873.5 397.0Q883 413 883 413Z" fill="#000000" stroke="none" transform="scale(1,-1) translate(0,-256)" /><path d="M407 420Q402 421 398.0 415.5Q394 410 382 402Q365 390 353.0 370.0Q341 350 346 321Q349 302 362.0 276.5Q375 251 399.5 227.0Q424 203 460 190Q496 177 529.5 178.5Q563 180 584.5 186.0Q606 192 606 192L607 197Q607 197 600.0 212.0Q593 227 581.0 248.5Q569 270 554 289Q530 318 499.5 340.0Q469 362 451 376Q433 391 422.5 405.0Q412 419 407 420Z" fill="#000000" stroke="none" transform="scale(1,-1) translate(0,-256)" /></svg>