<?xml version="1.0" encoding="utf-8" ?>
<svg baseProfile="full" height="256" version="1.1" width="256" xmlns="http://www.w3.org/2000/svg" xmlns:ev="http://www.w3.org/2001/xml-events" xmlns:xlink="http://www.w3.org/1999/xlink"><defs /><path d="M374 308Q374 308 360.0 316.5Q346 325 319 344Q300 357 277.5 379.0Q255 401 230.0 425.0Q205 449 180 467Q139 498 103.5 515.5Q68 533 59 536Q50 539 48.5 534.5Q47 530 50 525Q52 521 69.5 511.0Q87 501 112.5 486.5Q138 472 164 454Q202 426 237.0 386.5Q272 347 311 318Q336 299 350.0 298.0Q364 297 369.0 302.5Q374 308 374 308Z" fill="#fdebc8" stroke="none" transform="scale(1,-1) translate(0,-256)" /></svg>