<?xml version="1.0" encoding="utf-8" ?>
<svg baseProfile="full" height="256" version="1.1" width="256" xmlns="http://www.w3.org/2000/svg" xmlns:ev="http://www.w3.org/2001/xml-events" xmlns:xlink="http://www.w3.org/1999/xlink"><defs /><path d="M639 -114Q630 -113 625.5 -96.5Q621 -80 614 -70Q608 -60 584.0 -38.5Q560 -17 535 11Q509 39 501.0 59.0Q493 79 493 79Q493 79 485.0 70.0Q477 61 452.5 49.5Q428 38 377 31Q336 25 295.5 36.0Q255 47 224.0 60.0Q193 73 181 75Q162 79 151.0 75.5Q140 72 134 73Q128 74 128.5 78.0Q129 82 129 82L166 125L343 210Q343 210 328.5 219.5Q314 229 296.5 241.5Q279 254 269 263Q255 276 242.0 290.5Q229 305 212 333Q201 352 186.5 375.5Q172 399 158.0 419.0Q144 439 135 449Q122 463 106.5 475.0Q91 487 74 500Q57 513 52.0 521.0Q47 529 51 535Q53 537 77.0 534.5Q101 532 135.0 526.5Q169 521 203.0 514.5Q237 508 260.0 504.0Q283 500 283 500Q283 500 276.0 518.0Q269 536 268 559Q266 589 276.5 617.0Q287 645 297 671Q305 693 306.0 711.0Q307 729 303 739Q299 752 304.5 754.5Q310 757 310 757L500 612L557 692Q557 692 566.0 709.5Q575 727 587.5 749.5Q600 772 612.0 788.5Q624 805 631 804Q638 803 649.5 788.5Q661 774 672.5 755.5Q684 737 692.0 723.0Q700 709 700 709L772 623L917 744Q917 744 929.5 748.0Q942 752 955.0 755.5Q968 759 969 758Q971 756 969.5 745.5Q968 735 966.5 721.5Q965 708 965 699Q965 685 968.5 651.0Q972 617 974 586Q975 554 974.0 538.0Q973 522 973 522Q973 522 991.0 525.5Q1009 529 1036.0 534.5Q1063 540 1091.5 545.5Q1120 551 1141.5 554.5Q1163 558 1168 558Q1182 558 1188.5 553.0Q1195 548 1195 544Q1195 541 1183.5 535.0Q1172 529 1165 524Q1158 519 1151.0 510.5Q1144 502 1128 474Q1113 446 1094.0 405.0Q1075 364 1052 321Q1030 277 1013.0 264.5Q996 252 996 252Q996 252 1013.5 240.5Q1031 229 1055.5 212.5Q1080 196 1101.5 181.5Q1123 167 1132 162Q1149 152 1163.0 133.0Q1177 114 1177 107Q1177 100 1152.0 100.5Q1127 101 1090 90Q1066 83 1037.5 69.0Q1009 55 976.5 44.0Q944 33 905 34Q860 36 837.5 49.5Q815 63 807.0 75.5Q799 88 799 88Q799 88 797.5 71.0Q796 54 781 32Q772 18 752.0 1.5Q732 -15 712.0 -30.0Q692 -45 681 -54Q671 -62 664.0 -77.0Q657 -92 651.5 -103.5Q646 -115 639 -114Z" fill="#fd7d84" stroke="none" transform="scale(1,-1) translate(0,-256)" /></svg>