<?xml version="1.0" encoding="utf-8" ?>
<svg baseProfile="full" height="256" version="1.1" width="256" xmlns="http://www.w3.org/2000/svg" xmlns:ev="http://www.w3.org/2001/xml-events" xmlns:xlink="http://www.w3.org/1999/xlink"><defs /><path d="M641 720Q725 721 776.0 687.0Q827 653 863 604Q881 579 894.0 539.0Q907 499 906.5 450.0Q906 401 886.0 351.0Q866 301 817 258Q771 218 715.0 205.0Q659 192 603.0 203.0Q547 214 499.0 245.5Q451 277 420.5 325.0Q390 373 387 435Q383 528 417.5 591.5Q452 655 511.5 687.0Q571 719 641 720Z" fill="#d05416" stroke="none" transform="scale(1,-1) translate(0,-256)" /></svg>