<?xml version="1.0" encoding="utf-8" ?>
<svg baseProfile="full" height="256" version="1.1" width="256" xmlns="http://www.w3.org/2000/svg" xmlns:ev="http://www.w3.org/2001/xml-events" xmlns:xlink="http://www.w3.org/1999/xlink"><defs /><path d="M565 157Q565 157 552.0 139.5Q539 122 515 104Q499 92 481.0 83.5Q463 75 449.0 71.0Q435 67 433 68Q429 70 423.0 92.0Q417 114 416 142Q416 160 419.0 180.0Q422 200 426.0 214.0Q430 228 430 228Q430 228 406.5 215.0Q383 202 343 197Q313 193 288.5 199.5Q264 206 262 208Q260 211 267.0 233.5Q274 256 285 278Q295 298 308.5 314.0Q322 330 332.0 339.0Q342 348 342 348Q342 348 320.5 347.0Q299 346 272 354Q244 362 224.5 379.5Q205 397 204 401Q204 404 215.0 424.0Q226 444 255 463Q279 480 304.5 488.0Q330 496 330 496Q330 496 307.5 507.5Q285 519 261 542Q237 566 225.0 591.0Q213 616 214 618Q216 621 235.0 627.5Q254 634 286 636Q325 638 352.0 631.5Q379 625 379 625Q379 625 365.0 643.0Q351 661 341 686Q326 726 325.0 756.0Q324 786 327 788Q329 790 355.5 787.5Q382 785 417 772Q436 766 452.5 756.5Q469 747 480.0 740.0Q491 733 491 733Q491 733 484.5 752.0Q478 771 481 803Q486 847 501.0 873.0Q516 899 520 899Q525 900 542.5 889.0Q560 878 578 857Q590 844 599.5 825.0Q609 806 615.0 792.0Q621 778 621 778Q621 778 624.5 792.0Q628 806 635.5 825.5Q643 845 654 861Q678 894 699.0 903.5Q720 913 720 913Q720 913 734.0 891.5Q748 870 755 842Q761 820 762.0 798.0Q763 776 762.0 761.5Q761 747 761 747Q761 747 772.0 762.0Q783 777 815 798Q836 813 857.0 818.0Q878 823 892.0 823.0Q906 823 906 823Q906 823 910.0 801.5Q914 780 910 751Q907 732 900.0 714.0Q893 696 887.0 684.5Q881 673 881 673Q881 673 894.5 675.0Q908 677 928.5 677.5Q949 678 969 673Q1000 665 1025.5 651.5Q1051 638 1051 638Q1051 638 1040.0 618.0Q1029 598 1014 582Q991 559 967.0 543.5Q943 528 943 528Q943 528 964.5 518.0Q986 508 1008 493Q1031 478 1049.0 458.5Q1067 439 1067 439Q1067 439 1054.0 427.0Q1041 415 1018 401Q1003 392 985.5 384.0Q968 376 955.5 371.5Q943 367 943 367Q943 367 960.5 352.5Q978 338 993 314Q1000 303 1007.5 285.0Q1015 267 1019.5 252.0Q1024 237 1021 233Q1017 226 995.0 224.0Q973 222 954 224Q927 226 906.5 232.0Q886 238 886 238Q886 238 886.5 227.5Q887 217 888.0 203.0Q889 189 889 179Q889 168 886.0 149.5Q883 131 879.0 115.0Q875 99 872 96Q868 93 854.0 96.5Q840 100 823.0 107.0Q806 114 794 121Q783 129 768.5 139.5Q754 150 743.5 158.5Q733 167 733 167Q733 167 731.0 156.0Q729 145 725.5 131.0Q722 117 720 110Q711 88 696.5 67.5Q682 47 669.0 33.5Q656 20 652 20Q645 20 629.0 37.0Q613 54 598 80Q580 112 572.5 134.5Q565 157 565 157Z" fill="#ffb901" stroke="none" transform="scale(1,-1) translate(0,-256)" /></svg>