<?xml version="1.0" encoding="utf-8" ?>
<svg baseProfile="full" height="256" version="1.1" width="256" xmlns="http://www.w3.org/2000/svg" xmlns:ev="http://www.w3.org/2001/xml-events" xmlns:xlink="http://www.w3.org/1999/xlink"><defs /><path d="M679 149Q679 149 678.5 132.5Q678 116 678.0 89.0Q678 62 677.5 32.0Q677 2 675 -25Q673 -79 664.5 -116.0Q656 -153 652 -170Q647 -188 634.0 -200.0Q621 -212 594 -211Q568 -210 561.5 -192.0Q555 -174 561 -160Q568 -144 578.5 -115.0Q589 -86 593 -47Q596 -21 599.0 11.5Q602 44 604.0 74.0Q606 104 607.5 123.5Q609 143 609 143Z" fill="#94a71a" stroke="none" transform="scale(1,-1) translate(0,-256)" /><path d="M649 -23 647 -50Q647 -50 659.0 -59.5Q671 -69 695.5 -78.5Q720 -88 758 -88Q784 -88 809.5 -79.0Q835 -70 856.0 -57.5Q877 -45 889.0 -33.0Q901 -21 900 -16Q899 -11 889.0 2.0Q879 15 860.5 29.0Q842 43 814.0 51.5Q786 60 750 57Q722 54 702.5 41.5Q683 29 671.5 14.0Q660 -1 654.5 -12.0Q649 -23 649 -23Z" fill="#94a71a" stroke="none" transform="scale(1,-1) translate(0,-256)" /><path d="M609 -78Q603 -105 562.0 -114.0Q521 -123 472 -109Q441 -100 414.0 -80.0Q387 -60 370.5 -40.5Q354 -21 355 -15Q356 -11 370.5 0.0Q385 11 408.0 22.0Q431 33 458.5 37.5Q486 42 513 34Q546 24 565.0 5.5Q584 -13 593.5 -32.0Q603 -51 606.0 -64.5Q609 -78 609 -78Z" fill="#94a71a" stroke="none" transform="scale(1,-1) translate(0,-256)" /></svg>