<?xml version="1.0" encoding="utf-8" ?>
<svg baseProfile="full" height="256" version="1.1" width="256" xmlns="http://www.w3.org/2000/svg" xmlns:ev="http://www.w3.org/2001/xml-events" xmlns:xlink="http://www.w3.org/1999/xlink"><defs /><path d="M916 481Q916 481 924.5 492.5Q933 504 945.5 518.5Q958 533 969.0 544.0Q980 555 985 554Q994 553 1009.0 549.5Q1024 546 1024 546Q1024 546 1019.5 535.5Q1015 525 1009.0 511.0Q1003 497 998.0 486.5Q993 476 993 475Q992 475 981.0 476.0Q970 477 955.5 478.5Q941 480 929.0 481.0Q917 482 916 481Z" fill="#1d89fe" stroke="none" transform="scale(1,-1) translate(0,-256)" /><path d="M153 443Q151 463 190.0 479.5Q229 496 300.0 508.0Q371 520 463.5 525.5Q556 531 660 530Q799 529 907.0 517.0Q1015 505 1076.0 484.0Q1137 463 1137 437Q1137 410 1077.0 389.0Q1017 368 907.0 356.0Q797 344 647 347Q497 349 387.0 361.0Q277 373 216.0 394.0Q155 415 153 443Z" fill="#1d89fe" stroke="none" transform="scale(1,-1) translate(0,-256)" /></svg>