<?xml version="1.0" encoding="utf-8" ?>
<svg baseProfile="full" height="256" version="1.1" width="256" xmlns="http://www.w3.org/2000/svg" xmlns:ev="http://www.w3.org/2001/xml-events" xmlns:xlink="http://www.w3.org/1999/xlink"><defs /><path d="M812 349Q812 349 800.5 348.5Q789 348 779 348Q769 347 753.0 347.5Q737 348 737 348L748 378L1134 808Q1134 808 1149.0 803.0Q1164 798 1179.0 788.0Q1194 778 1193 762Q1192 749 1170.5 724.5Q1149 700 1114.0 665.0Q1079 630 1038 588Q1013 563 983.0 531.0Q953 499 923.0 467.5Q893 436 868.0 409.0Q843 382 827.5 365.5Q812 349 812 349Z" fill="#9d9c9c" stroke="none" transform="scale(1,-1) translate(0,-256)" /></svg>