<?xml version="1.0" encoding="utf-8" ?>
<svg baseProfile="full" height="256" version="1.1" width="256" xmlns="http://www.w3.org/2000/svg" xmlns:ev="http://www.w3.org/2001/xml-events" xmlns:xlink="http://www.w3.org/1999/xlink"><defs /><path d="M84 461Q105 506 245.0 542.0Q385 578 644 578Q829 578 946.5 560.5Q1064 543 1123.5 512.5Q1183 482 1193 443Q1196 431 1197.0 389.5Q1198 348 1188.5 288.0Q1179 228 1150.0 160.0Q1121 92 1064 26Q1022 -22 953.0 -57.0Q884 -92 798.5 -110.0Q713 -128 622 -124Q486 -119 381.5 -79.5Q277 -40 200 48Q159 95 134.5 148.5Q110 202 97.5 254.0Q85 306 81.5 350.0Q78 394 79.5 423.5Q81 453 84 461Z" fill="#6bb8fe" stroke="none" transform="scale(1,-1) translate(0,-256)" /></svg>