<?xml version="1.0" encoding="utf-8" ?>
<svg baseProfile="full" height="256" version="1.1" width="256" xmlns="http://www.w3.org/2000/svg" xmlns:ev="http://www.w3.org/2001/xml-events" xmlns:xlink="http://www.w3.org/1999/xlink"><defs /><path d="M912 388Q888 414 862.5 458.0Q837 502 812.0 554.0Q787 606 763.5 657.5Q740 709 719.5 752.5Q699 796 684 822Q671 845 652.0 850.0Q633 855 615.5 846.5Q598 838 588.5 821.0Q579 804 585 784Q587 776 596.5 749.0Q606 722 619.5 684.0Q633 646 648.0 605.5Q663 565 676.0 528.5Q689 492 698.0 468.0Q707 444 709 441Q714 428 704.5 423.0Q695 418 689 430Q687 432 673.0 455.5Q659 479 637.0 515.0Q615 551 590.0 592.5Q565 634 541.0 673.0Q517 712 498.5 741.5Q480 771 473 783Q458 805 437.5 808.0Q417 811 399.0 801.0Q381 791 373.0 772.0Q365 753 374 732Q381 715 398.0 683.5Q415 652 437.0 612.0Q459 572 482.0 531.0Q505 490 525.0 455.0Q545 420 558.0 397.0Q571 374 573 371Q577 361 568.5 354.0Q560 347 553 355Q551 357 534.5 376.0Q518 395 493.5 423.5Q469 452 441.0 484.5Q413 517 386.5 547.5Q360 578 341.0 599.5Q322 621 315 628Q300 644 282.5 644.0Q265 644 250.5 633.0Q236 622 231.0 605.0Q226 588 236 569Q250 545 286.0 497.5Q322 450 371.5 387.0Q421 324 474 253Q481 245 473.0 237.0Q465 229 455 238Q453 239 434.0 255.5Q415 272 387.0 295.0Q359 318 331.0 341.5Q303 365 281.5 382.5Q260 400 254 404Q238 416 221.5 412.5Q205 409 193.5 396.0Q182 383 180.0 366.0Q178 349 191 332Q201 320 221.5 296.5Q242 273 266.0 247.0Q290 221 310.0 199.0Q330 177 339 168Q385 121 411.5 88.5Q438 56 457.5 30.0Q477 4 499.0 -22.0Q521 -48 558 -81Q614 -133 670.0 -153.0Q726 -173 777.5 -169.5Q829 -166 874.0 -145.0Q919 -124 955.0 -93.0Q991 -62 1015 -29Q1039 5 1051.0 45.0Q1063 85 1067.0 126.0Q1071 167 1070.0 202.0Q1069 237 1066.5 260.5Q1064 284 1064 289Q1062 331 1069.0 372.5Q1076 414 1085.5 452.0Q1095 490 1102.0 520.0Q1109 550 1106 568Q1103 589 1083.0 603.0Q1063 617 1039 610Q1001 598 978.5 570.0Q956 542 943.5 507.0Q931 472 926.0 440.0Q921 408 919 389Q919 387 916.5 386.0Q914 385 912 388Z" fill="#ffca28" stroke="none" transform="scale(1,-1) translate(0,-256)" /></svg>