<?xml version="1.0" encoding="utf-8" ?>
<svg baseProfile="full" height="256" version="1.1" width="256" xmlns="http://www.w3.org/2000/svg" xmlns:ev="http://www.w3.org/2001/xml-events" xmlns:xlink="http://www.w3.org/1999/xlink"><defs /><path d="M893 386Q834 338 801.0 279.0Q768 220 770.5 153.0Q773 86 820 15Q827 6 836.0 12.0Q845 18 839 28Q824 55 814.0 91.0Q804 127 807.0 170.0Q810 213 833.0 260.5Q856 308 907 358Q919 352 930.0 360.5Q941 369 942 380Q947 424 954.5 462.5Q962 501 979.0 531.5Q996 562 1028 583Q1047 594 1067.0 586.0Q1087 578 1088 549Q1088 549 1094.0 548.5Q1100 548 1106 547Q1107 559 1106 568Q1103 589 1083.0 603.0Q1063 617 1039 610Q1001 598 978.5 570.0Q956 542 943.5 507.0Q931 472 926.0 440.0Q921 408 919 389Q919 387 916.5 386.0Q914 385 912 388Q905 396 897 407Z" fill="#faa700" stroke="none" transform="scale(1,-1) translate(0,-256)" /><path d="M707 425Q716 430 722.0 437.5Q728 445 724 455Q722 459 713.5 482.0Q705 505 692.5 539.5Q680 574 666.0 612.5Q652 651 639.0 686.0Q626 721 617.5 745.0Q609 769 608 775Q601 794 607.5 809.5Q614 825 628.0 831.5Q642 838 656 832Q666 827 672 837Q653 856 630.0 851.0Q607 846 592.5 827.5Q578 809 585 784Q587 776 596.5 749.0Q606 722 619.5 684.0Q633 646 648.0 605.5Q663 565 676.0 528.5Q689 492 698.0 468.0Q707 444 709 441Q713 431 707 425Z" fill="#faa700" stroke="none" transform="scale(1,-1) translate(0,-256)" /><path d="M569 354Q581 362 587.5 371.0Q594 380 583 397Q581 401 567.5 424.5Q554 448 535.0 483.0Q516 518 494.0 557.5Q472 597 452.0 633.0Q432 669 417.5 695.0Q403 721 399 728Q388 748 396.5 764.0Q405 780 421.5 785.5Q438 791 452 778Q457 774 462.5 776.5Q468 779 472 784Q457 806 437.0 808.5Q417 811 399.0 800.5Q381 790 373.0 771.5Q365 753 374 732Q381 715 398.0 683.5Q415 652 437.0 612.0Q459 572 482.0 531.0Q505 490 525.0 455.0Q545 420 558.0 397.0Q571 374 573 371Q577 361 569 354Z" fill="#faa700" stroke="none" transform="scale(1,-1) translate(0,-256)" /><path d="M475 238Q476 240 477 241Q485 253 487.0 261.5Q489 270 478 285Q474 291 457.5 312.5Q441 334 417.5 365.0Q394 396 368.0 429.5Q342 463 319.0 493.5Q296 524 280.5 544.5Q265 565 263 568Q249 586 254.0 600.0Q259 614 271.5 621.0Q284 628 293 623Q301 619 306.0 622.0Q311 625 313 631Q298 645 280.5 644.0Q263 643 249.0 632.0Q235 621 230.5 604.0Q226 587 236 569Q250 545 286.0 497.5Q322 450 371.5 387.0Q421 324 474 253Q480 246 475 239Z" fill="#faa700" stroke="none" transform="scale(1,-1) translate(0,-256)" /><path d="M908 -115Q832 -151 768.5 -149.0Q705 -147 655.5 -121.0Q606 -95 569 -60Q527 -19 497.5 19.0Q468 57 443.5 89.5Q419 122 391 148Q385 153 366.5 172.5Q348 192 323.0 218.5Q298 245 273.5 272.0Q249 299 230.5 320.5Q212 342 206 350Q199 361 204.5 374.5Q210 388 223.0 394.0Q236 400 251 389Q264 381 271 391Q258 402 254 404Q238 416 221.5 412.5Q205 409 193.5 396.0Q182 383 180.0 366.0Q178 349 191 332Q201 320 221.5 296.5Q242 273 266.0 247.0Q290 221 310.0 199.0Q330 177 339 168Q385 121 411.5 88.5Q438 56 457.5 30.0Q477 4 499.0 -22.0Q521 -48 558 -81Q623 -141 686.5 -159.0Q750 -177 807.5 -165.5Q865 -154 913 -125Z" fill="#faa700" stroke="none" transform="scale(1,-1) translate(0,-256)" /></svg>