<?xml version="1.0" encoding="utf-8" ?>
<svg baseProfile="full" height="256" version="1.1" width="256" xmlns="http://www.w3.org/2000/svg" xmlns:ev="http://www.w3.org/2001/xml-events" xmlns:xlink="http://www.w3.org/1999/xlink"><defs /><path d="M577 203Q570 195 570 184Q570 176 573.0 168.0Q576 160 582 156Q589 151 597.5 146.0Q606 141 615 145Q623 148 626.0 156.5Q629 165 628 174Q627 189 619 201Q618 204 616.5 206.5Q615 209 614 211Q613 215 614.0 218.5Q615 222 615 226Q616 236 610.0 245.5Q604 255 602 265Q601 272 601.5 279.5Q602 287 601 295Q601 297 599.0 300.0Q597 303 594 302Q593 301 591 299Q585 286 585 271Q586 266 586.5 260.5Q587 255 586 250Q585 247 583.5 244.5Q582 242 581 239Q576 228 579 216Q581 211 580 208Q580 207 577 203Z" fill="#2e7d32" stroke="none" transform="scale(1,-1) translate(0,-256)" /><path d="M378 227Q387 231 393.0 238.0Q399 245 403 254Q419 285 404 320Q402 337 403.5 357.0Q405 377 391 390Q386 393 387 398Q389 419 382.5 438.0Q376 457 371 477Q370 482 366.5 480.5Q363 479 361 475Q358 466 359.0 456.0Q360 446 360 436Q359 424 356.0 411.5Q353 399 356 387Q356 384 356 383Q344 376 342 359Q338 337 343 316Q337 319 334.5 314.0Q332 309 332 305Q331 287 333.5 267.0Q336 247 352 235Q358 232 364.5 228.5Q371 225 378 227Z" fill="#2e7d32" stroke="none" transform="scale(1,-1) translate(0,-256)" /><path d="M492 284Q483 283 472.5 289.0Q462 295 457.5 303.5Q453 312 462 320Q470 325 480.5 324.0Q491 323 495 333Q483 329 474 339Q467 329 457.5 323.5Q448 318 442.0 311.0Q436 304 442 288Q443 285 443 283Q442 282 439 280Q420 268 421 246Q421 224 438.5 214.0Q456 204 475 209Q480 210 484.5 211.0Q489 212 494 210Q506 205 516.0 195.5Q526 186 541 190Q537 197 541.5 206.0Q546 215 547 224Q548 233 547.0 242.0Q546 251 536 262Q536 262 537.0 253.5Q538 245 530 238Q521 231 506.0 231.5Q491 232 489 245Q482 239 473.5 234.5Q465 230 455 231Q446 231 438.0 237.5Q430 244 430 254Q431 261 434.0 267.5Q437 274 446 277Q450 278 454.0 277.0Q458 276 462 275Q470 273 479.0 275.0Q488 277 492 284Z" fill="#2e7d32" stroke="none" transform="scale(1,-1) translate(0,-256)" /></svg>