<?xml version="1.0" encoding="utf-8" ?>
<svg baseProfile="full" height="256" version="1.1" width="256" xmlns="http://www.w3.org/2000/svg" xmlns:ev="http://www.w3.org/2001/xml-events" xmlns:xlink="http://www.w3.org/1999/xlink"><defs /><path d="M198 825Q166 809 151.5 786.0Q137 763 128 738Q124 728 139.5 691.0Q155 654 184.0 600.5Q213 547 252.0 486.0Q291 425 335.5 365.5Q380 306 425 259Q470 212 532.0 174.5Q594 137 663.0 107.5Q732 78 797.5 56.0Q863 34 916.0 18.0Q969 2 999 -9Q1049 -27 1086.5 -25.0Q1124 -23 1149.0 -10.0Q1174 3 1186 18Q1199 33 1199.5 65.5Q1200 98 1188.5 131.5Q1177 165 1151 184Q1125 202 1080.0 209.0Q1035 216 977.0 226.5Q919 237 854 266Q810 285 763.0 317.0Q716 349 673.0 385.0Q630 421 596.0 452.5Q562 484 544 503Q520 527 493.5 562.5Q467 598 442.5 636.0Q418 674 400.0 706.5Q382 739 376 757Q367 782 341.0 806.0Q315 830 277.5 838.0Q240 846 198 825Z" fill="#ec6b31" stroke="none" transform="scale(1,-1) translate(0,-256)" /></svg>