<?xml version="1.0" encoding="utf-8" ?>
<svg baseProfile="full" height="256" version="1.1" width="256" xmlns="http://www.w3.org/2000/svg" xmlns:ev="http://www.w3.org/2001/xml-events" xmlns:xlink="http://www.w3.org/1999/xlink"><defs /><path d="M329 564Q329 564 348.5 540.5Q368 517 405.0 477.5Q442 438 492.0 388.5Q542 339 603 287Q652 245 715.5 220.0Q779 195 844.0 181.5Q909 168 964.5 163.0Q1020 158 1054.5 157.5Q1089 157 1089 157Q1089 157 1090.0 172.0Q1091 187 1085.5 212.0Q1080 237 1060 266Q1045 287 1018.5 303.0Q992 319 950.5 340.0Q909 361 850.0 396.5Q791 432 710 493Q654 535 617.5 580.5Q581 626 552.5 666.0Q524 706 494.0 733.0Q464 760 420 764Q384 768 364.5 749.0Q345 730 336.5 699.5Q328 669 326.5 638.0Q325 607 327.0 585.5Q329 564 329 564Z" fill="#f8af3c" stroke="none" transform="scale(1,-1) translate(0,-256)" /></svg>