<?xml version="1.0" encoding="utf-8" ?>
<svg baseProfile="full" height="256" version="1.1" width="256" xmlns="http://www.w3.org/2000/svg" xmlns:ev="http://www.w3.org/2001/xml-events" xmlns:xlink="http://www.w3.org/1999/xlink"><defs /><path d="M595.781005859375 665.3119964599609Q579.781005859375 664.3119964599609 570.281005859375 653.3119964599609Q560.781005859375 642.3119964599609 560.781005859375 627.8119964599609Q560.781005859375 613.3119964599609 571.781005859375 602.3119964599609L664.781005859375 509.31199645996094Q669.781005859375 503.31199645996094 669.781005859375 495.81199645996094Q669.781005859375 488.31199645996094 664.781005859375 482.31199645996094L359.781005859375 177.31199645996094Q348.781005859375 166.31199645996094 348.781005859375 150.81199645996094Q348.781005859375 135.31199645996094 359.781005859375 124.31199645996094L412.781005859375 71.31199645996094Q423.781005859375 60.31199645996094 439.281005859375 60.31199645996094Q454.781005859375 60.31199645996094 465.781005859375 71.31199645996094L770.781005859375 376.31199645996094Q775.781005859375 382.31199645996094 783.781005859375 382.31199645996094Q791.781005859375 382.31199645996094 796.781005859375 376.31199645996094L889.781005859375 283.31199645996094Q900.781005859375 272.31199645996094 915.781005859375 272.81199645996094Q930.781005859375 273.31199645996094 941.781005859375 282.31199645996094Q952.781005859375 291.31199645996094 953.781005859375 307.31199645996094V626.3119964599609Q954.781005859375 643.3119964599609 942.781005859375 654.8119964599609Q930.781005859375 666.3119964599609 913.781005859375 665.3119964599609Z" fill="#fafafa" stroke="none" transform="scale(1,-1) translate(0,-256)" /></svg>