<?xml version="1.0" encoding="utf-8" ?>
<svg baseProfile="full" height="256" version="1.1" width="256" xmlns="http://www.w3.org/2000/svg" xmlns:ev="http://www.w3.org/2001/xml-events" xmlns:xlink="http://www.w3.org/1999/xlink"><defs /><path d="M494 683 503 601Q503 601 504.5 603.5Q506 606 519 608Q532 609 541.5 601.0Q551 593 561 572Q568 557 574.0 533.5Q580 510 584.0 492.5Q588 475 590 477Q593 481 596.5 497.0Q600 513 598 532Q597 552 591.5 571.5Q586 591 579 605Q570 621 557.5 636.0Q545 651 528 664Q514 675 504.0 679.0Q494 683 494 683Z" fill="#dca282" stroke="none" transform="scale(1,-1) translate(0,-256)" /><path d="M300 147 219 111 138 153Q138 153 137.0 130.5Q136 108 139.0 69.5Q142 31 153 -19Q164 -66 179.0 -103.0Q194 -140 205 -160Q217 -180 229.5 -194.5Q242 -209 257 -212Q272 -215 297.5 -214.5Q323 -214 339 -206Q356 -197 361.0 -185.0Q366 -173 367 -159Q368 -145 367.0 -110.5Q366 -76 360 -16Q356 24 348.5 62.0Q341 100 335.0 124.5Q329 149 329 149Z" fill="#dca282" stroke="none" transform="scale(1,-1) translate(0,-256)" /></svg>