<?xml version="1.0" encoding="utf-8" ?>
<svg baseProfile="full" height="256" version="1.1" width="256" xmlns="http://www.w3.org/2000/svg" xmlns:ev="http://www.w3.org/2001/xml-events" xmlns:xlink="http://www.w3.org/1999/xlink"><defs /><path d="M370 817Q417 809 446.5 812.5Q476 816 492.5 823.5Q509 831 515.5 838.0Q522 845 522 845Q522 845 519.0 815.0Q516 785 512 750Q509 718 505.0 699.0Q501 680 501 680Q501 680 481.0 666.0Q461 652 422 629Q391 611 364.5 599.5Q338 588 338 588Q338 588 351.0 564.0Q364 540 392 513Q419 485 434.0 470.0Q449 455 449 455Q449 455 444.0 438.0Q439 421 436 412Q433 403 426.5 386.5Q420 370 420 370Q420 370 403.5 385.5Q387 401 366.0 423.5Q345 446 330 465Q315 485 301.0 505.0Q287 525 278.0 539.0Q269 553 269 553Q269 553 253.0 543.0Q237 533 217 514Q197 495 189.0 481.0Q181 467 181 467Q181 467 176.0 489.5Q171 512 170 536Q170 560 171.5 567.0Q173 574 173 574Q173 574 181.0 584.5Q189 595 198 603Q208 611 218.0 618.0Q228 625 228 625Q228 625 221.0 639.0Q214 653 210 661Q206 669 203.5 678.5Q201 688 201 691Q201 693 204.0 706.0Q207 719 211.5 736.0Q216 753 220.0 768.5Q224 784 226 791Q227 797 230.0 812.5Q233 828 236.5 844.5Q240 861 242.5 873.5Q245 886 246 887Q247 890 248.0 892.0Q249 894 250 889Q250 888 252.5 879.5Q255 871 266.0 858.5Q277 846 301.5 834.5Q326 823 370 817ZM379 701Q401 711 421.0 720.0Q441 729 441 729Q441 729 421.5 728.5Q402 728 375.5 730.0Q349 732 326 738Q293 747 276.5 756.5Q260 766 260 766L299 667Q299 667 312.5 672.5Q326 678 345.0 686.0Q364 694 379 701Z" fill="#e7ac84" stroke="none" transform="scale(1,-1) translate(0,-256)" /><path d="M740 860Q740 860 768.5 870.0Q797 880 877 883Q930 885 960.0 878.5Q990 872 1002.5 864.5Q1015 857 1015 857Q1015 857 1014.5 832.0Q1014 807 1014 768Q1013 730 1018.0 702.5Q1023 675 1023 673Q1023 672 1013.0 664.5Q1003 657 993.0 650.0Q983 643 983 643Q983 643 955.5 636.5Q928 630 881 609Q834 588 802.0 566.0Q770 544 771 534Q772 524 783.0 517.5Q794 511 807 502Q816 496 830.0 489.0Q844 482 854.5 476.5Q865 471 865 471L835 389Q835 389 822.0 394.5Q809 400 785 412Q769 420 752.0 430.5Q735 441 723.5 449.0Q712 457 712 457Q712 457 708.5 475.5Q705 494 703 522Q700 551 700.5 578.0Q701 605 701 605Q701 605 718.0 617.5Q735 630 765.0 648.5Q795 667 833 684Q871 701 906.5 710.5Q942 720 965.0 725.5Q988 731 988 736Q988 744 947.0 746.0Q906 748 848 742Q790 737 750.5 726.5Q711 716 711 716Z" fill="#e7ac84" stroke="none" transform="scale(1,-1) translate(0,-256)" /></svg>