<?xml version="1.0" encoding="utf-8" ?>
<svg baseProfile="full" height="256" version="1.1" width="256" xmlns="http://www.w3.org/2000/svg" xmlns:ev="http://www.w3.org/2001/xml-events" xmlns:xlink="http://www.w3.org/1999/xlink"><defs /><path d="M1127 499Q1147 489 1147.0 472.5Q1147 456 1137.0 437.0Q1127 418 1114.5 401.5Q1102 385 1096 376Q1093 371 1083.0 353.0Q1073 335 1064 314Q1058 298 1052.0 281.0Q1046 264 1038 234Q1031 208 1035.5 172.0Q1040 136 1049.0 94.5Q1058 53 1066.5 12.0Q1075 -29 1077.5 -64.5Q1080 -100 1070.5 -125.0Q1061 -150 1034 -158Q996 -170 968.0 -147.5Q940 -125 925.5 -75.0Q911 -25 912.0 46.0Q913 117 933 201Q959 314 996.0 383.5Q1033 453 1069.0 481.5Q1105 510 1127 499Z" fill="#e4bf8c" stroke="none" transform="scale(1,-1) translate(0,-256)" /></svg>