<?xml version="1.0" encoding="utf-8" ?>
<svg baseProfile="full" height="256" version="1.1" width="256" xmlns="http://www.w3.org/2000/svg" xmlns:ev="http://www.w3.org/2001/xml-events" xmlns:xlink="http://www.w3.org/1999/xlink"><defs /><path d="M178 -2Q186 1 192.0 -16.5Q198 -34 204 -44Q214 -63 227.5 -82.0Q241 -101 263 -122Q278 -137 294.5 -142.0Q311 -147 312 -161Q313 -174 303.0 -179.0Q293 -184 278.5 -181.5Q264 -179 253 -171Q236 -160 221.5 -137.0Q207 -114 197.0 -90.0Q187 -66 182 -51Q175 -28 172.5 -16.5Q170 -5 178 -2Z" fill="#fde1cc" stroke="none" transform="scale(1,-1) translate(0,-256)" /></svg>