<?xml version="1.0" encoding="utf-8" ?>
<svg baseProfile="full" height="256" version="1.1" width="256" xmlns="http://www.w3.org/2000/svg" xmlns:ev="http://www.w3.org/2001/xml-events" xmlns:xlink="http://www.w3.org/1999/xlink"><defs /><path d="M775 718Q775 695 791.5 678.5Q808 662 831 662H1130Q1142 662 1151.0 653.0Q1160 644 1160 632V-80H115V632Q115 644 123.5 653.0Q132 662 145 662H444Q467 662 483.5 678.5Q500 695 500 718V739Q500 752 509.0 761.5Q518 771 531 771H744Q757 771 766.0 761.5Q775 752 775 739Z" fill="#ffca28" stroke="none" transform="scale(1,-1) translate(0,-256)" /></svg>