<?xml version="1.0" encoding="utf-8" ?>
<svg baseProfile="full" height="256" version="1.1" width="256" xmlns="http://www.w3.org/2000/svg" xmlns:ev="http://www.w3.org/2001/xml-events" xmlns:xlink="http://www.w3.org/1999/xlink"><defs /><path d="M410 576Q410 553 426.5 536.5Q443 520 466 520H1130Q1143 520 1151.5 511.5Q1160 503 1160 490V-186Q1160 -197 1152.5 -204.5Q1145 -212 1134 -212H142Q131 -212 123.0 -204.5Q115 -197 115 -186V500Q115 508 121.0 514.0Q127 520 135 520V598Q135 611 144.5 620.0Q154 629 167 629H379Q392 629 401.0 620.0Q410 611 410 598Z" fill="#ffe36c" stroke="none" transform="scale(1,-1) translate(0,-256)" /></svg>