<?xml version="1.0" encoding="utf-8" ?>
<svg baseProfile="full" height="256" version="1.1" width="256" xmlns="http://www.w3.org/2000/svg" xmlns:ev="http://www.w3.org/2001/xml-events" xmlns:xlink="http://www.w3.org/1999/xlink"><defs /><path d="M865 860Q865 836 848.5 820.0Q832 804 809 804H145Q132 804 123.5 795.0Q115 786 115 774V87H1160V783Q1160 792 1154.0 798.0Q1148 804 1140 804V881Q1140 894 1130.5 903.5Q1121 913 1108 913H896Q883 913 874.0 903.5Q865 894 865 881Z" fill="#f3ab47" stroke="none" transform="scale(1,-1) translate(0,-256)" /><path d="M115 484 1160 485V527Q1160 538 1152.0 546.5Q1144 555 1133 555H143Q131 555 123.0 546.5Q115 538 115 527Z" fill="#f3ab47" stroke="none" transform="scale(1,-1) translate(0,-256)" /></svg>