<?xml version="1.0" encoding="utf-8" ?>
<svg baseProfile="full" height="256" version="1.1" width="256" xmlns="http://www.w3.org/2000/svg" xmlns:ev="http://www.w3.org/2001/xml-events" xmlns:xlink="http://www.w3.org/1999/xlink"><defs /><path d="M369 752Q359 728 339.0 712.5Q319 697 267 694Q256 693 249.0 685.0Q242 677 242 665V-119H882V666Q882 677 875.5 685.0Q869 693 859 695Q828 699 812.0 714.5Q796 730 787 752Q759 824 743.0 868.5Q727 913 727 913Q727 912 707.0 912.0Q687 912 657.5 911.0Q628 910 596.5 908.5Q565 907 541.5 905.0Q518 903 512 901Q465 884 427.5 845.0Q390 806 369 752Z" fill="#000000" stroke="none" transform="scale(1,-1) translate(0,-256)" /><path d="M455 869H613V686H250Q257 693 267 694Q319 697 339.0 712.5Q359 728 369 752Q398 826 455 869Z" fill="#000000" stroke="none" transform="scale(1,-1) translate(0,-256)" /><path d="M518 752Q508 728 487.5 712.5Q467 697 416 694Q405 693 398.0 685.0Q391 677 391 665V-119H1031V666Q1031 677 1024.0 685.0Q1017 693 1008 695Q977 699 961.0 714.5Q945 730 936 752Q908 824 852.0 868.5Q796 913 727 913Q658 913 602.0 868.5Q546 824 518 752Z" fill="#000000" stroke="none" transform="scale(1,-1) translate(0,-256)" /><path d="M912 -212Q920 -212 925.5 -206.5Q931 -201 931 -193V-69Q931 -61 925.5 -55.5Q920 -50 912 -50H212Q204 -50 198.5 -55.5Q193 -61 193 -69V-193Q193 -201 198.5 -206.5Q204 -212 212 -212Z" fill="#000000" stroke="none" transform="scale(1,-1) translate(0,-256)" /><path d="M1065 -212Q1072 -212 1077.0 -207.0Q1082 -202 1082 -195V-67Q1082 -60 1077.0 -55.0Q1072 -50 1065 -50H361Q354 -50 349.0 -55.0Q344 -60 344 -67V-195Q344 -202 349.0 -207.0Q354 -212 361 -212Z" fill="#000000" stroke="none" transform="scale(1,-1) translate(0,-256)" /></svg>