<?xml version="1.0" encoding="utf-8" ?>
<svg baseProfile="full" height="256" version="1.1" width="256" xmlns="http://www.w3.org/2000/svg" xmlns:ev="http://www.w3.org/2001/xml-events" xmlns:xlink="http://www.w3.org/1999/xlink"><defs /><path d="M905 562Q916 563 923.5 567.5Q931 572 931 586Q931 602 917.5 608.5Q904 615 887.0 615.5Q870 616 859 615Q852 614 844.0 612.5Q836 611 828 612Q820 612 812.0 614.0Q804 616 795 616Q785 616 775.0 613.5Q765 611 755 611Q747 611 739.5 613.5Q732 616 725 617Q708 620 692 616Q687 615 682.0 613.0Q677 611 672 611Q663 610 655.0 611.5Q647 613 639 614Q629 615 618.5 613.5Q608 612 597 612Q590 611 582.0 611.5Q574 612 566 612Q556 612 548.5 604.5Q541 597 541 586Q541 571 554.0 564.0Q567 557 581 560Q588 561 595.0 564.0Q602 567 610 568Q624 570 638.5 565.5Q653 561 668 561Q677 562 685.5 564.5Q694 567 702 567Q711 566 720.0 563.5Q729 561 738 560Q754 559 769.5 564.5Q785 570 801 569Q813 569 825.0 565.5Q837 562 850 562Q856 563 862.5 563.5Q869 564 875 564Q881 564 889.5 563.0Q898 562 905 562Z" fill="#777777" stroke="none" transform="scale(1,-1) translate(0,-256)" /><path d="M847 442Q858 443 865.0 448.0Q872 453 872 467Q872 477 864.5 485.0Q857 493 848 494Q842 495 835.5 493.0Q829 491 824 490Q809 488 797 489Q793 489 789.0 489.5Q785 490 780 490Q767 491 753.5 487.0Q740 483 727 484Q719 485 712.0 487.0Q705 489 698 490Q684 491 670.5 487.0Q657 483 643 486Q629 488 614.0 488.0Q599 488 599 467Q599 450 611.0 444.0Q623 438 640.0 439.0Q657 440 673.5 442.5Q690 445 700 445Q716 445 731.5 442.5Q747 440 763 441Q773 442 782.5 444.5Q792 447 802 447Q811 447 823.5 444.5Q836 442 847 442Z" fill="#777777" stroke="none" transform="scale(1,-1) translate(0,-256)" /><path d="M915 371Q930 364 930 348Q930 335 919 327Q920 332 920 336Q920 351 906 359Q897 363 889.0 359.5Q881 356 872 357Q869 357 866.5 357.5Q864 358 862 359Q846 362 830 358Q824 356 818.0 354.5Q812 353 807 354Q796 356 789.0 359.5Q782 363 771 361Q766 359 762 356Q767 369 780 373Q791 375 798.0 371.5Q805 368 816 366Q822 365 827.5 366.5Q833 368 839 370Q855 374 871 371Q874 370 876.5 369.5Q879 369 881 369Q891 368 898.5 371.5Q906 375 915 371Z" fill="#777777" stroke="none" transform="scale(1,-1) translate(0,-256)" /><path d="M617 366Q626 366 641.5 369.0Q657 372 673.0 373.5Q689 375 700.0 370.0Q711 365 711 348Q711 334 700 326Q702 331 702 336Q702 353 690.5 358.0Q679 363 663.0 361.5Q647 360 631.5 357.0Q616 354 608 354Q603 354 599.0 354.5Q595 355 590 355Q582 357 570.0 359.5Q558 362 550 360Q547 359 544 357Q548 368 559 372Q567 375 579.0 372.0Q591 369 600 368Q604 367 608.5 366.5Q613 366 617 366Z" fill="#777777" stroke="none" transform="scale(1,-1) translate(0,-256)" /><path d="M848 494Q858 493 865.5 485.0Q873 477 872 467Q872 452 862 446Q863 450 863 455Q863 465 855.5 473.0Q848 481 839 482Q833 483 826.5 481.0Q820 479 815 478Q800 476 788 477Q784 477 779.5 477.5Q775 478 771 478Q758 478 744.5 474.5Q731 471 718 472Q710 473 703.0 475.0Q696 477 689 478Q675 479 661.5 475.0Q648 471 634 474Q626 475 616.5 476.5Q607 478 600 475Q603 489 617.0 488.5Q631 488 643 486Q657 483 670.5 487.0Q684 491 698 490Q705 489 712.5 487.0Q720 485 727 484Q740 483 753.5 486.5Q767 490 781 490Q785 490 789.0 489.5Q793 489 797 489Q809 488 824 490Q829 491 835.5 493.0Q842 495 848 494Z" fill="#777777" stroke="none" transform="scale(1,-1) translate(0,-256)" /><path d="M859 615Q870 616 887.0 615.5Q904 615 917.5 608.5Q931 602 931 586Q931 571 921 566Q922 570 922 574Q922 590 908.5 596.5Q895 603 878.0 603.5Q861 604 850 603Q842 602 834.5 600.5Q827 599 819 600Q811 600 802.5 602.0Q794 604 786 604Q776 604 766.0 601.5Q756 599 745 599Q738 599 730.5 601.5Q723 604 716 605Q699 608 683 604Q677 603 672.0 601.0Q667 599 662 599Q654 598 646.0 599.5Q638 601 630 602Q619 603 609.0 601.5Q599 600 588 599Q580 599 572.5 599.0Q565 599 557 599Q549 599 542 595Q548 612 566 612Q574 612 582.0 611.5Q590 611 597 612Q608 612 618.5 613.5Q629 615 639 614Q647 613 655.0 611.5Q663 610 672 611Q677 611 682.0 613.0Q687 615 692 616Q708 620 725 617Q732 616 739.5 613.5Q747 611 755 611Q765 611 775.0 613.5Q785 616 795 616Q804 616 812.0 614.0Q820 612 828 612Q836 611 844.0 612.5Q852 614 859 615Z" fill="#777777" stroke="none" transform="scale(1,-1) translate(0,-256)" /></svg>