<?xml version="1.0" encoding="utf-8" ?>
<svg baseProfile="full" height="256" version="1.1" width="256" xmlns="http://www.w3.org/2000/svg" xmlns:ev="http://www.w3.org/2001/xml-events" xmlns:xlink="http://www.w3.org/1999/xlink"><defs /><path d="M447.093994140625 528.875Q461.093994140625 515.875 452.093994140625 498.875Q447.093994140625 488.875 436.593994140625 484.875Q426.093994140625 480.875 416.093994140625 485.875Q402.093994140625 498.875 411.093994140625 516.875Q416.093994140625 526.875 426.593994140625 530.375Q437.093994140625 533.875 447.093994140625 528.875Z" fill="#896024" stroke="none" transform="scale(1,-1) translate(0,-256)" /><path d="M834.75 528.875Q848.75 515.875 839.75 498.875Q834.75 488.875 824.25 484.875Q813.75 480.875 803.75 485.875Q789.75 498.875 798.75 516.875Q803.75 526.875 814.25 530.375Q824.75 533.875 834.75 528.875Z" fill="#896024" stroke="none" transform="scale(1,-1) translate(0,-256)" /></svg>