<?xml version="1.0" encoding="utf-8" ?>
<svg baseProfile="full" height="256" version="1.1" width="256" xmlns="http://www.w3.org/2000/svg" xmlns:ev="http://www.w3.org/2001/xml-events" xmlns:xlink="http://www.w3.org/1999/xlink"><defs /><path d="M767 43Q704 50 639 50H638Q605 50 572.5 48.5Q540 47 508 43V-24Q508 -62 542.5 -89.5Q577 -117 626 -117H649Q698 -117 732.5 -90.0Q767 -63 767 -24Z" fill="#b9bbbd" stroke="none" transform="scale(1,-1) translate(0,-256)" /><path d="M616.6037750244141 -95.40362548828125V-212.44497680664062H659.1478424072266V-95.40362548828125Z" fill="#b9bbbd" stroke="none" transform="scale(1,-1) translate(0,-256)" /><path d="M1047 539 1041 507Q1015 544 967.0 572.0Q919 600 864.0 621.5Q809 643 760 661Q661 697 570.5 713.0Q480 729 409.5 732.5Q339 736 298.0 734.0Q257 732 257 732Q262 739 264.0 741.5Q266 744 266 744Q307 749 380.5 749.0Q454 749 547.0 737.5Q640 726 739 695Q833 666 893.5 638.0Q954 610 987.5 587.5Q1021 565 1034.0 552.0Q1047 539 1047 539Z" fill="#b9bbbd" stroke="none" transform="scale(1,-1) translate(0,-256)" /><path d="M227 539 233 507Q259 544 307.0 572.0Q355 600 410.0 621.5Q465 643 514 661Q613 697 703.5 713.0Q794 729 864.5 732.5Q935 736 976.0 734.0Q1017 732 1017 732Q1012 739 1010.0 741.5Q1008 744 1008 744Q967 749 893.5 749.0Q820 749 727.0 737.5Q634 726 535 695Q441 666 380.5 638.0Q320 610 287.0 587.5Q254 565 240.5 552.0Q227 539 227 539Z" fill="#b9bbbd" stroke="none" transform="scale(1,-1) translate(0,-256)" /><path d="M1048 547Q1034 560 999.5 583.5Q965 607 903.0 636.0Q841 665 742 695Q646 725 555.5 737.5Q465 750 391.0 751.0Q317 752 271 747Q265 740 261 735Q283 736 331.0 736.5Q379 737 447.0 731.0Q515 725 596.0 708.5Q677 692 764 660Q811 643 864.0 622.5Q917 602 965.0 575.5Q1013 549 1043 515Q1046 532 1048 547Z" fill="#b9bbbd" stroke="none" transform="scale(1,-1) translate(0,-256)" /><path d="M1015 735Q1010 741 1004 747Q959 752 884.5 751.0Q810 750 719.0 737.5Q628 725 532 695Q434 665 371.5 636.0Q309 607 275.0 584.0Q241 561 227 547Q229 531 231 515Q262 549 309.5 575.5Q357 602 410.0 622.5Q463 643 510 660Q598 692 679.5 708.5Q761 725 829.0 731.0Q897 737 945.5 736.5Q994 736 1015 735Z" fill="#b9bbbd" stroke="none" transform="scale(1,-1) translate(0,-256)" /><path d="M1052 605Q1054 620 1053 633Q1052 633 1050 634Q1031 635 982.5 635.0Q934 635 867.5 631.0Q801 627 726.5 619.0Q652 611 580 596Q553 591 525 583Q453 565 397.5 538.5Q342 512 304.0 486.5Q266 461 248 446Q252 430 255.5 420.0Q259 410 259 409Q290 443 336.5 471.0Q383 499 436.0 520.0Q489 541 537 554Q568 562 598.5 568.5Q629 575 660 580Q749 595 830.0 599.0Q911 603 970.0 602.0Q1029 601 1052 599Q1052 601 1052 606Q1052 606 1052.0 605.5Q1052 605 1052 605Z" fill="#b9bbbd" stroke="none" transform="scale(1,-1) translate(0,-256)" /><path d="M839 860Q826 866 813 872Q776 874 717.5 868.5Q659 863 589.0 847.5Q519 832 449 805Q352 767 301.5 732.5Q251 698 233 682Q228 665 226 647Q242 663 271.5 682.5Q301 702 336.5 722.5Q372 743 406.0 760.0Q440 777 465 787Q533 816 603.5 831.5Q674 847 736.0 853.5Q798 860 839 860Z" fill="#b9bbbd" stroke="none" transform="scale(1,-1) translate(0,-256)" /></svg>