<?xml version="1.0" encoding="utf-8" ?>
<svg baseProfile="full" height="256" version="1.1" width="256" xmlns="http://www.w3.org/2000/svg" xmlns:ev="http://www.w3.org/2001/xml-events" xmlns:xlink="http://www.w3.org/1999/xlink"><defs /><path d="M637.656005859375 52.0H721.656005859375Q777.656005859375 52.0 817.656005859375 64.0Q857.656005859375 76.0 882.156005859375 92.0Q906.656005859375 108.0 918.156005859375 120.0Q929.656005859375 132.0 929.656005859375 132.0L905.656005859375 162.0L637.656005859375 140.0Z" fill="#000000" stroke="none" transform="scale(1,-1) translate(0,-256)" /><path d="M-887.6113128662109 -277.8118896484375Q-898.8839874267578 -296.1917724609375 -916.5835647583008 -302.01678466796875Q-934.2831420898438 -307.841796875 -948.8876495361328 -307.30413818359375Q-963.4921569824219 -306.7664794921875 -963.4921569824219 -306.7664794921875Q-963.4921569824219 -306.7664794921875 -955.8120727539062 -301.9441223144531Q-948.1319885253906 -297.12176513671875 -940.1937637329102 -289.3118896484375Q-932.2555389404297 -281.50201416015625 -929.9652862548828 -272.23968505859375Q-927.7125549316406 -260.5377197265625 -935.8759078979492 -253.70977783203125Q-944.0392608642578 -246.8818359375 -958.4043884277344 -242.1368408203125Q-958.4043884277344 -242.1368408203125 -958.4043884277344 -242.1368408203125Q-958.4043884277344 -242.1368408203125 -958.4043884277344 -242.1368408203125Q-958.4043884277344 -242.1368408203125 -945.6676559448242 -239.86270141601562Q-932.9309234619141 -237.58856201171875 -917.1062469482422 -238.37432861328125Q-901.2815704345703 -239.16009521484375 -891.2692031860352 -247.58001708984375Q-881.2568359375 -255.99993896484375 -887.6113128662109 -277.8118896484375Z" fill="#000000" stroke="none" transform="scale(1,-1) translate(0,-256)" /><path d="M304.5025634765625 1036.2892150878906Q304.5025634765625 1036.2892150878906 315.1670837402344 1031.4620361328125Q325.83160400390625 1026.6348571777344 339.4933776855469 1020.9977416992188Q353.1551513671875 1015.3606262207031 363.8196716308594 1010.533447265625Q374.48419189453125 1005.7062683105469 374.48419189453125 1005.7062683105469Q374.48419189453125 1005.7062683105469 367.05963134765625 990.2044677734375Q359.63507080078125 974.7026672363281 348.8526611328125 952.9753112792969Q338.07025146484375 931.2479553222656 329.3211975097656 914.1587219238281Q320.5721435546875 897.0694885253906 317.8360900878906 894.8908233642578Q313.33404541015625 890.5955810546875 307.6007385253906 889.2268524169922Q301.867431640625 887.8581237792969 296.04705810546875 887.485595703125Q289.2566223144531 887.0509796142578 281.76348876953125 889.0758209228516Q274.2703552246094 891.1006622314453 267.2187194824219 893.6546478271484Q250.11819458007812 899.5725555419922 227.9993896484375 912.6825714111328Q205.88058471679688 925.7925872802734 185.2168731689453 938.995735168457Q164.55316162109375 952.1988830566406 151.51318359375 961.8828887939453Q138.47320556640625 971.56689453125 138.47320556640625 971.56689453125Q143.14938354492188 973.8697357177734 153.0800018310547 983.0204086303711Q163.0106201171875 992.1710815429688 171.52967834472656 1000.7305221557617Q180.04873657226562 1009.2899627685547 180.84466552734375 1011.3444519042969Q198.3304443359375 1034.5026245117188 229.2044677734375 1043.9919891357422Q260.0784912109375 1053.4813537597656 304.5025634765625 1036.2892150878906Z" fill="#000000" stroke="none" transform="scale(1,-1) translate(0,-256)" /><path d="M-369.5890197753906 283.46485900878906Q-369.5890197753906 283.46485900878906 -382.5354766845703 295.32545471191406Q-395.48193359375 307.18605041503906 -411.87379455566406 323.7786178588867Q-428.2656555175781 340.3711853027344 -440.3890686035156 356.1858673095703Q-452.5124816894531 372.00054931640625 -451.7384948730469 380.96717834472656Q-451.3945007324219 384.9523468017578 -441.51856994628906 393.3284149169922Q-431.64263916015625 401.70448303222656 -418.370361328125 410.36112213134766Q-405.09808349609375 419.01776123046875 -393.39195251464844 426.27320861816406Q-381.6858215332031 433.5286560058594 -378.55352783203125 436.33103942871094Q-373.4190368652344 440.00538635253906 -366.1042938232422 441.0335922241211Q-358.78955078125 442.0617980957031 -353.126953125 440.69252014160156Q-345.462158203125 440.19520568847656 -337.53330993652344 437.1760787963867Q-329.6044616699219 434.1569519042969 -322.2836608886719 429.6744689941406Q-304.76776123046875 420.52301025390625 -282.67030334472656 403.05931091308594Q-260.5728454589844 385.5956115722656 -240.91363525390625 367.78917694091797Q-221.25442504882812 349.9827423095703 -208.3939666748047 337.1258544921875Q-195.53350830078125 324.2689666748047 -195.53350830078125 324.2689666748047Q-205.37249755859375 321.9017333984375 -219.86087036132812 310.3183822631836Q-234.3492431640625 298.7350311279297 -237.48153686523438 295.9326477050781Q-265.50018310546875 272.7037811279297 -298.2845001220703 266.8159484863281Q-331.0688171386719 260.92811584472656 -369.5890197753906 283.46485900878906Z" fill="#000000" stroke="none" transform="scale(1,-1) translate(0,-256)" /><path d="M637.531005859375 52.0H553.531005859375Q497.531005859375 52.0 457.531005859375 64.0Q417.531005859375 76.0 393.031005859375 92.0Q368.531005859375 108.0 357.031005859375 120.0Q345.531005859375 132.0 345.531005859375 132.0L369.531005859375 162.0L637.531005859375 140.0Z" fill="#000000" stroke="none" transform="scale(1,-1) translate(0,-256)" /><path d="M2162.798324584961 -277.8128967285156Q2174.070999145508 -296.1927795410156 2191.770576477051 -302.0177917480469Q2209.4701538085938 -307.8428039550781 2224.074661254883 -307.3051452636719Q2238.679168701172 -306.7674865722656 2238.679168701172 -306.7674865722656Q2238.679168701172 -306.7674865722656 2230.9990844726562 -301.94512939453125Q2223.3190002441406 -297.1227722167969 2215.38077545166 -289.3128967285156Q2207.4425506591797 -281.5030212402344 2205.152297973633 -272.2406921386719Q2202.8995666503906 -260.5387268066406 2211.062919616699 -253.71078491210938Q2219.226272583008 -246.88284301757812 2233.5914001464844 -242.13784790039062Q2233.5914001464844 -242.13784790039062 2233.5914001464844 -242.13784790039062Q2233.5914001464844 -242.13784790039062 2233.5914001464844 -242.13784790039062Q2233.5914001464844 -242.13784790039062 2220.854667663574 -239.86370849609375Q2208.117935180664 -237.58956909179688 2192.293258666992 -238.37533569335938Q2176.4685821533203 -239.16110229492188 2166.456214904785 -247.58102416992188Q2156.44384765625 -256.0009460449219 2162.798324584961 -277.8128967285156Z" fill="#000000" stroke="none" transform="scale(1,-1) translate(0,-256)" /><path d="M1125 -184Q1125 -136 1096.5 -97.5Q1068 -59 1018.5 -30.5Q969 -2 904.0 16.0Q839 34 767 43Q704 50 639 50H638Q605 50 572.5 48.5Q540 47 508 43Q436 35 371.5 18.0Q307 1 257.0 -27.0Q207 -55 178.5 -94.0Q150 -133 150 -184V-212H1125Z" fill="#000000" stroke="none" transform="scale(1,-1) translate(0,-256)" /><path d="M605 570Q504 551 437.0 524.0Q370 497 331.0 471.0Q292 445 275.5 427.0Q259 409 259 409Q259 409 252.0 431.5Q245 454 236.5 491.0Q228 528 224.0 571.0Q220 614 226.5 656.0Q233 698 256 730Q291 781 340.5 816.0Q390 851 444.0 872.0Q498 893 548.5 903.0Q599 913 636 913Q674 913 726.5 898.5Q779 884 834.5 859.0Q890 834 938.5 801.0Q987 768 1018 730Q1032 713 1044.0 679.5Q1056 646 1052 599Q997 629 887.5 615.5Q778 602 605 570Z" fill="#000000" stroke="none" transform="scale(1,-1) translate(0,-256)" /><path d="M1052 605Q1054 620 1053 633Q1052 668 1040.5 691.5Q1029 715 1018 730Q1017 732 1015 735Q1010 741 1004 747Q995 757 989 763Q987 764 987 765Q957 793 919.0 817.0Q881 841 839 860Q826 866 813 872Q757 894 706 905Q701 906 696 907Q677 910 658 912Q655 912 652.0 912.0Q649 912 646 912Q639 913 636 913Q629 913 625 912Q622 912 619.0 912.0Q616 912 613 912Q610 912 607.5 912.0Q605 912 602 911Q565 909 528 901Q454 885 380.5 844.0Q307 803 256 730Q241 709 233 682Q228 665 226 647Q223 623 223.5 597.5Q224 572 227 547Q229 531 231 515Q235 495 239.5 477.5Q244 460 248 446Q252 430 255.5 420.0Q259 410 259 409Q259 409 259.0 409.0Q259 409 259 409Q259 409 259.0 409.0Q259 409 259 409Q259 411 263.5 421.0Q268 431 284.5 448.0Q301 465 337.0 487.5Q373 510 436.0 536.0Q499 562 598 590Q599 590 600.5 590.5Q602 591 604 591Q629 598 676.5 604.0Q724 610 780.5 614.5Q837 619 892.5 620.0Q948 621 990.5 618.0Q1033 615 1052 606Q1052 606 1052.0 605.5Q1052 605 1052 605Z" fill="#000000" stroke="none" transform="scale(1,-1) translate(0,-256)" /></svg>