<?xml version="1.0" encoding="utf-8" ?>
<svg baseProfile="full" height="256" version="1.1" width="256" xmlns="http://www.w3.org/2000/svg" xmlns:ev="http://www.w3.org/2001/xml-events" xmlns:xlink="http://www.w3.org/1999/xlink"><defs /><path d="M239 496 1098 779Q1106 782 1109.0 790.0Q1112 798 1109 805Q1107 813 1099.5 817.0Q1092 821 1084 818L219 551Z" fill="#82aec0" stroke="none" transform="scale(1,-1) translate(0,-256)" /><path d="M576.6770629882812 238.15914916992188 576.7652893066406 219.49298095703125 1120.4311981201172 218.66580200195312 1120.3429718017578 237.33197021484375Z" fill="#82aec0" stroke="none" transform="scale(1,-1) translate(0,-256)" /><path d="M612.7686004638672 281.0903778076172V257.29466247558594H664.6920776367188V281.0903778076172Z" fill="#82aec0" stroke="none" transform="scale(1,-1) translate(0,-256)" /><path d="M1018.9875030517578 281.0903778076172V257.29466247558594H1070.9109802246094V281.0903778076172Z" fill="#82aec0" stroke="none" transform="scale(1,-1) translate(0,-256)" /><path d="M917.4561004638672 281.0903778076172V257.29466247558594H969.3795776367188V281.0903778076172Z" fill="#82aec0" stroke="none" transform="scale(1,-1) translate(0,-256)" /><path d="M815.831298828125 281.0903778076172V257.29466247558594H867.7547760009766V281.0903778076172Z" fill="#82aec0" stroke="none" transform="scale(1,-1) translate(0,-256)" /><path d="M714.3000030517578 281.0903778076172V257.29466247558594H766.2234802246094V281.0903778076172Z" fill="#82aec0" stroke="none" transform="scale(1,-1) translate(0,-256)" /><path d="M664.7303771972656 199.43417358398438V175.63845825195312H697.7203826904297V199.43417358398438Z" fill="#82aec0" stroke="none" transform="scale(1,-1) translate(0,-256)" /><path d="M771.7926788330078 199.43417358398438V175.63845825195312H804.7826843261719V199.43417358398438Z" fill="#82aec0" stroke="none" transform="scale(1,-1) translate(0,-256)" /><path d="M878.9488830566406 199.43417358398438V175.63845825195312H911.9388885498047V199.43417358398438Z" fill="#82aec0" stroke="none" transform="scale(1,-1) translate(0,-256)" /><path d="M986.0113830566406 199.43417358398438V175.63845825195312H1019.0013885498047V199.43417358398438Z" fill="#82aec0" stroke="none" transform="scale(1,-1) translate(0,-256)" /></svg>