<?xml version="1.0" encoding="utf-8" ?>
<svg baseProfile="full" height="256" version="1.1" width="256" xmlns="http://www.w3.org/2000/svg" xmlns:ev="http://www.w3.org/2001/xml-events" xmlns:xlink="http://www.w3.org/1999/xlink"><defs /><path d="M750 78Q752 85 762.0 80.5Q772 76 788 74Q811 71 849.5 74.5Q888 78 939 101Q990 123 1017.5 145.0Q1045 167 1056 180Q1067 194 1071.5 204.0Q1076 214 1081 210Q1085 207 1084.0 194.5Q1083 182 1073 170Q1057 150 1026.0 126.0Q995 102 946 82Q896 62 852.5 57.0Q809 52 784 57Q765 60 756.5 66.5Q748 73 750 78Z" fill="#9e9e9e" stroke="none" transform="scale(1,-1) translate(0,-256)" /></svg>