<?xml version="1.0" encoding="utf-8" ?>
<svg baseProfile="full" height="256" version="1.1" width="256" xmlns="http://www.w3.org/2000/svg" xmlns:ev="http://www.w3.org/2001/xml-events" xmlns:xlink="http://www.w3.org/1999/xlink"><defs /><path d="M1195 476Q1212 408 1205.5 366.5Q1199 325 1157 293Q1138 279 1126.0 271.0Q1114 263 1106 258L1117 224Q1117 224 1130.0 218.5Q1143 213 1148 198Q1152 186 1150.0 164.0Q1148 142 1131.5 113.5Q1115 85 1076.5 55.5Q1038 26 969 0Q899 -26 849.5 -30.0Q800 -34 768.0 -25.0Q736 -16 719.5 -1.0Q703 14 700 26Q695 46 702.0 58.5Q709 71 709 71L668 181L628 2Q628 2 635.0 -16.0Q642 -34 635 -54Q629 -75 622.0 -84.5Q615 -94 615 -94Q615 -94 609.0 -86.0Q603 -78 582.0 -66.0Q561 -54 516.5 -39.5Q472 -25 394 -11Q350 -3 316.5 0.0Q283 3 258 3Q216 2 195.0 -4.0Q174 -10 167.0 -16.0Q160 -22 160 -22Q160 -22 155.0 -5.5Q150 11 157 31Q164 52 173.5 58.0Q183 64 183 64L196 130Q179 132 150.5 140.0Q122 148 101 170Q84 189 79.5 219.5Q75 250 82 304Q90 357 104.5 397.0Q119 437 149 460Q165 472 187.5 474.5Q210 477 231.0 475.0Q252 473 264 471L273 516L277 543L973 646Q977 647 987.5 641.5Q998 636 1001 623Q1004 609 1003.0 598.5Q1002 588 1002 588Q1002 588 1017.5 597.0Q1033 606 1058.0 612.5Q1083 619 1111 613Q1141 605 1159.5 574.0Q1178 543 1195 476ZM142 231Q147 214 160.0 206.0Q173 198 186.5 196.0Q200 194 208 194L250 403Q239 409 217.0 413.0Q195 417 172 399Q165 393 157.0 372.5Q149 352 144.0 325.0Q139 298 137.5 272.5Q136 247 142 231ZM1143 391Q1145 408 1140.5 434.0Q1136 460 1126.5 486.0Q1117 512 1106.5 529.5Q1096 547 1087 548Q1070 550 1051.0 542.0Q1032 534 1021 527L1081 336Q1089 338 1103.0 344.0Q1117 350 1129.0 361.5Q1141 373 1143 391Z" fill="#e0e0e0" stroke="none" transform="scale(1,-1) translate(0,-256)" /></svg>