<?xml version="1.0" encoding="utf-8" ?>
<svg baseProfile="full" height="256" version="1.1" width="256" xmlns="http://www.w3.org/2000/svg" xmlns:ev="http://www.w3.org/2001/xml-events" xmlns:xlink="http://www.w3.org/1999/xlink"><defs /><path d="M378 -112Q461 -125 508.5 -124.0Q556 -123 579.0 -115.5Q602 -108 608.5 -101.0Q615 -94 615 -94Q615 -94 608.5 -86.0Q602 -78 581.0 -65.5Q560 -53 515.5 -38.5Q471 -24 394 -11Q316 3 269.0 3.0Q222 3 198.5 -3.0Q175 -9 167.5 -15.5Q160 -22 160 -22Q160 -22 166.0 -31.5Q172 -41 193.0 -55.5Q214 -70 258.0 -85.5Q302 -101 378 -112Z" fill="#bcbcbc" stroke="none" transform="scale(1,-1) translate(0,-256)" /><path d="M210 -1Q210 -1 226.5 1.5Q243 4 283.0 3.0Q323 2 393 -10Q492 -26 536.0 -45.5Q580 -65 580 -65Q580 -65 564.0 -70.5Q548 -76 505.5 -77.5Q463 -79 384 -68Q325 -60 290.0 -48.5Q255 -37 237.5 -26.0Q220 -15 215.0 -8.0Q210 -1 210 -1Z" fill="#bcbcbc" stroke="none" transform="scale(1,-1) translate(0,-256)" /></svg>