<?xml version="1.0" encoding="utf-8" ?>
<svg baseProfile="full" height="256" version="1.1" width="256" xmlns="http://www.w3.org/2000/svg" xmlns:ev="http://www.w3.org/2001/xml-events" xmlns:xlink="http://www.w3.org/1999/xlink"><defs /><path d="M311 490 506 536 685 415Q685 415 679.5 389.5Q674 364 664.5 323.5Q655 283 644.5 237.0Q634 191 624.0 148.0Q614 105 607.0 75.5Q600 46 598 40Q592 22 583.0 15.5Q574 9 564 12Q555 15 518.0 29.0Q481 43 423 54Q385 61 349.0 64.5Q313 68 287.5 70.0Q262 72 252 74Q239 78 237.0 88.5Q235 99 236 111Q237 115 242.5 144.0Q248 173 256.5 216.0Q265 259 274.5 306.5Q284 354 292.0 395.5Q300 437 305.5 463.5Q311 490 311 490Z" fill="#000000" stroke="none" transform="scale(1,-1) translate(0,-256)" /><path d="M687 255Q687 255 695.5 234.5Q704 214 715.0 186.0Q726 158 736.0 134.0Q746 110 749 104Q753 95 777.5 88.5Q802 82 842.5 85.5Q883 89 936 112Q990 134 1018.5 159.0Q1047 184 1057.0 204.5Q1067 225 1064 234Q1063 238 1054.5 264.0Q1046 290 1033.5 328.5Q1021 367 1007.5 409.5Q994 452 981.5 489.5Q969 527 961.5 551.0Q954 575 954 575L723 437Z" fill="#000000" stroke="none" transform="scale(1,-1) translate(0,-256)" /></svg>