<?xml version="1.0" encoding="utf-8" ?>
<svg baseProfile="full" height="256" version="1.1" width="256" xmlns="http://www.w3.org/2000/svg" xmlns:ev="http://www.w3.org/2001/xml-events" xmlns:xlink="http://www.w3.org/1999/xlink"><defs /><path d="M860 421Q874 419 869 396Q865 376 851 377Q838 377 839 400Q839 411 845.5 417.0Q852 423 860 421Z" fill="#ffe267" stroke="none" transform="scale(1,-1) translate(0,-256)" /><path d="M842 298Q845 304 851.5 304.0Q858 304 863 300Q868 296 868.5 290.0Q869 284 867 280Q866 276 860.0 275.5Q854 275 849 278Q845 281 842.0 287.0Q839 293 842 298Z" fill="#ffe267" stroke="none" transform="scale(1,-1) translate(0,-256)" /><path d="M898 273Q907 272 909.5 266.0Q912 260 912 252Q912 245 907.5 235.0Q903 225 895 226Q880 227 880 249Q880 275 898 273Z" fill="#ffe267" stroke="none" transform="scale(1,-1) translate(0,-256)" /><path d="M916 179Q923 172 914 156Q911 151 904.5 149.0Q898 147 893 151Q888 154 888.5 161.5Q889 169 892 174Q896 181 903.5 183.0Q911 185 916 179Z" fill="#ffe267" stroke="none" transform="scale(1,-1) translate(0,-256)" /><path d="M451 368Q457 372 461.5 369.0Q466 366 468 361Q470 357 471.0 351.0Q472 345 469 341Q467 337 461.0 338.0Q455 339 451 345Q447 351 447.5 358.0Q448 365 451 368Z" fill="#ffe267" stroke="none" transform="scale(1,-1) translate(0,-256)" /><path d="M424 278Q418 284 419.5 293.0Q421 302 428 307Q434 312 441.5 312.5Q449 313 453 309Q462 300 452 285Q447 279 438.5 275.5Q430 272 424 278Z" fill="#ffe267" stroke="none" transform="scale(1,-1) translate(0,-256)" /><path d="M391 262Q399 261 403.5 253.0Q408 245 407 236Q407 226 402.5 218.0Q398 210 391 209Q383 208 377.0 217.0Q371 226 371 238Q371 249 377.0 256.0Q383 263 391 262Z" fill="#ffe267" stroke="none" transform="scale(1,-1) translate(0,-256)" /><path d="M383 146Q398 149 400 132Q401 124 398.5 117.0Q396 110 391 109Q383 108 378.5 113.0Q374 118 373 126Q370 144 383 146Z" fill="#ffe267" stroke="none" transform="scale(1,-1) translate(0,-256)" /></svg>