<?xml version="1.0" encoding="utf-8" ?>
<svg baseProfile="full" height="256" version="1.1" width="256" xmlns="http://www.w3.org/2000/svg" xmlns:ev="http://www.w3.org/2001/xml-events" xmlns:xlink="http://www.w3.org/1999/xlink"><defs /><path d="M720 319Q735 326 741.5 313.5Q748 301 752 289Q754 283 760.5 265.0Q767 247 775.0 224.5Q783 202 789.0 183.0Q795 164 797 157Q801 143 803.0 131.0Q805 119 794 116Q782 112 775.5 118.0Q769 124 765 134Q761 141 752.5 164.5Q744 188 734.5 215.0Q725 242 720 257Q711 281 710.0 298.0Q709 315 720 319Z" fill="#feffff" stroke="none" transform="scale(1,-1) translate(0,-256)" /></svg>