<?xml version="1.0" encoding="utf-8" ?>
<svg baseProfile="full" height="256" version="1.1" width="256" xmlns="http://www.w3.org/2000/svg" xmlns:ev="http://www.w3.org/2001/xml-events" xmlns:xlink="http://www.w3.org/1999/xlink"><defs /><path d="M736 530 721 447Q721 447 736.0 446.5Q751 446 779.5 451.0Q808 456 849 475Q896 496 919.5 515.5Q943 535 951.0 548.0Q959 561 959 561L937 626Z" fill="#f4d097" stroke="none" transform="scale(1,-1) translate(0,-256)" /><path d="M324 549 706 507 683 403 676 374Q676 374 655.0 384.0Q634 394 599.5 407.5Q565 421 524.0 432.0Q483 443 443 444Q390 445 358.0 439.5Q326 434 311.0 427.5Q296 421 296 421Z" fill="#f4d097" stroke="none" transform="scale(1,-1) translate(0,-256)" /></svg>