<?xml version="1.0" encoding="utf-8" ?>
<svg baseProfile="full" height="256" version="1.1" width="256" xmlns="http://www.w3.org/2000/svg" xmlns:ev="http://www.w3.org/2001/xml-events" xmlns:xlink="http://www.w3.org/1999/xlink"><defs /><path d="M1195 476Q1212 408 1205.5 366.5Q1199 325 1157 293Q1138 279 1126.0 271.0Q1114 263 1106 258L1117 224Q1117 224 1130.0 218.5Q1143 213 1148 198Q1152 186 1150.0 164.0Q1148 142 1131.5 113.5Q1115 85 1076.5 55.5Q1038 26 969 0Q899 -26 849.5 -30.0Q800 -34 768.0 -25.0Q736 -16 719.5 -1.0Q703 14 700 26Q695 46 702.0 58.5Q709 71 709 71L668 181L628 2Q628 2 635.0 -16.0Q642 -34 635 -54Q629 -75 622.0 -84.5Q615 -94 615 -94Q615 -94 609.5 -86.0Q604 -78 583.5 -66.0Q563 -54 518.0 -39.5Q473 -25 394 -11Q317 3 270.0 3.5Q223 4 199.5 -2.5Q176 -9 168.0 -15.5Q160 -22 160 -22Q160 -22 155.0 -5.5Q150 11 157 31Q164 52 173.5 58.0Q183 64 183 64L196 130Q179 132 150.5 140.0Q122 148 101 170Q84 189 79.5 219.5Q75 250 82 304Q90 357 104.5 397.0Q119 437 149 460Q165 472 187.5 474.5Q210 477 231.0 475.0Q252 473 264 471L273 516L277 543L973 646Q977 647 987.5 641.5Q998 636 1001 623Q1004 609 1003.0 598.5Q1002 588 1002 588V587Q1009 591 1027.5 598.5Q1046 606 1069.0 611.0Q1092 616 1111 613Q1142 607 1160.0 575.0Q1178 543 1195 476ZM142 231Q147 214 160.0 206.0Q173 198 186.5 196.0Q200 194 208 194L250 403Q239 409 217.0 413.0Q195 417 172 399Q165 393 157.0 372.5Q149 352 144.0 325.0Q139 298 137.5 272.5Q136 247 142 231ZM1143 391Q1145 408 1140.5 434.0Q1136 460 1126.5 486.0Q1117 512 1106.5 529.5Q1096 547 1087 548Q1070 550 1051.0 542.0Q1032 534 1021 527L1081 336Q1089 338 1103.0 344.0Q1117 350 1129.0 361.5Q1141 373 1143 391Z" fill="#ffffff" stroke="none" transform="scale(1,-1) translate(0,-256)" /><path d="M141 408Q130 416 138.0 431.5Q146 447 158 456Q170 464 184.0 464.5Q198 465 203 457Q208 448 199.5 442.5Q191 437 179 431Q167 424 158.0 412.5Q149 401 141 408Z" fill="#ffffff" stroke="none" transform="scale(1,-1) translate(0,-256)" /><path d="M307 473Q324 470 320 451Q319 443 312.0 438.0Q305 433 298 435Q291 437 288.5 444.0Q286 451 287 458Q289 466 293.5 470.5Q298 475 307 473Z" fill="#ffffff" stroke="none" transform="scale(1,-1) translate(0,-256)" /><path d="M298 421Q313 418 310 394Q309 390 305.0 366.0Q301 342 295.0 308.5Q289 275 283.5 241.5Q278 208 273.5 183.0Q269 158 268 153Q261 119 241 124Q232 126 230.5 134.5Q229 143 229 151Q229 155 233.0 180.5Q237 206 243.5 239.5Q250 273 255.5 304.0Q261 335 264 352Q271 387 277.5 405.5Q284 424 298 421Z" fill="#ffffff" stroke="none" transform="scale(1,-1) translate(0,-256)" /><path d="M409 619Q432 625 459.0 634.5Q486 644 531 635Q562 630 581.0 614.0Q600 598 610.5 583.5Q621 569 626 567Q630 564 650.5 560.0Q671 556 693.5 545.5Q716 535 728 511Q741 484 731.0 462.0Q721 440 694 440Q673 440 663.0 444.0Q653 448 643.0 451.5Q633 455 614 453Q596 451 584.5 438.5Q573 426 563 408Q558 398 550.5 376.5Q543 355 535.0 329.5Q527 304 520.5 284.0Q514 264 510 258Q504 248 497.5 250.5Q491 253 497 271Q498 275 503.5 293.0Q509 311 515.5 333.5Q522 356 527.5 376.5Q533 397 535 406Q539 425 533.5 455.0Q528 485 502 505Q484 519 457.5 520.0Q431 521 406.0 518.0Q381 515 368 514Q356 514 337.5 517.0Q319 520 305.5 532.5Q292 545 294 573Q296 598 311.0 610.5Q326 623 344 625Q363 626 381.0 621.0Q399 616 409 619Z" fill="#ffffff" stroke="none" transform="scale(1,-1) translate(0,-256)" /><path d="M587 653Q587 653 594.5 669.0Q602 685 623 700Q643 715 662.0 715.0Q681 715 704 717Q720 719 729.5 727.5Q739 736 748.5 745.5Q758 755 774 759Q798 765 811.5 762.0Q825 759 834.5 754.0Q844 749 853 748Q860 747 874.0 750.5Q888 754 904.5 754.5Q921 755 936.0 746.5Q951 738 960 713Q969 690 961.5 676.0Q954 662 938.5 653.5Q923 645 905.0 640.5Q887 636 875 634Q851 628 832.0 610.0Q813 592 794 578Q775 564 758.0 559.5Q741 555 741 555Q741 555 731.0 564.0Q721 573 701 582Q682 591 669.0 592.0Q656 593 647 595Q638 598 630.0 609.0Q622 620 616 627Q605 638 596.0 645.5Q587 653 587 653Z" fill="#ffffff" stroke="none" transform="scale(1,-1) translate(0,-256)" /><path d="M194 53Q202 51 202.5 42.5Q203 34 200 27Q198 20 191.0 13.0Q184 6 175 8Q166 9 166.5 19.5Q167 30 169 35Q171 40 177.5 47.0Q184 54 194 53Z" fill="#ffffff" stroke="none" transform="scale(1,-1) translate(0,-256)" /></svg>