<?xml version="1.0" encoding="utf-8" ?>
<svg baseProfile="full" height="256" version="1.1" width="256" xmlns="http://www.w3.org/2000/svg" xmlns:ev="http://www.w3.org/2001/xml-events" xmlns:xlink="http://www.w3.org/1999/xlink"><defs /><path d="M412 710Q412 710 402.5 705.5Q393 701 377 685Q371 679 355.0 658.5Q339 638 316.0 611.5Q293 585 265 561Q222 524 188.5 528.0Q155 532 124 552Q103 565 93.0 591.0Q83 617 84.5 645.0Q86 673 99 694Q113 716 133.0 723.0Q153 730 168.0 728.5Q183 727 182 721Q181 715 168.0 705.0Q155 695 152 678Q150 670 150.0 660.5Q150 651 160 641Q173 627 194.5 630.5Q216 634 230 651Q248 672 267.5 697.0Q287 722 321 729Q353 735 373.0 730.0Q393 725 402.5 717.5Q412 710 412 710Z" fill="#b79277" stroke="none" transform="scale(1,-1) translate(0,-256)" /><path d="M485 702Q472 692 468.0 670.0Q464 648 471.0 621.0Q478 594 499 570Q520 545 557.0 526.5Q594 508 637.0 498.0Q680 488 718 488Q756 487 785.0 508.0Q814 529 832.0 557.0Q850 585 854 604Q859 623 856.0 646.0Q853 669 847.0 687.5Q841 706 837 712Q831 722 822.0 726.5Q813 731 807 727Q798 720 802.0 710.0Q806 700 808 694Q810 686 812.5 670.5Q815 655 811 635Q808 618 798.5 604.5Q789 591 768 584Q737 575 713.0 583.5Q689 592 673.0 606.5Q657 621 650 629Q643 637 628.0 655.5Q613 674 592.5 691.0Q572 708 550 712Q521 716 503.0 709.0Q485 702 485 702Z" fill="#b79277" stroke="none" transform="scale(1,-1) translate(0,-256)" /></svg>