<?xml version="1.0" encoding="utf-8" ?>
<svg baseProfile="full" height="256" version="1.1" width="256" xmlns="http://www.w3.org/2000/svg" xmlns:ev="http://www.w3.org/2001/xml-events" xmlns:xlink="http://www.w3.org/1999/xlink"><defs /><path d="M1117 134Q1132 112 1152.0 108.0Q1172 104 1186.0 108.5Q1200 113 1198 116Q1195 122 1182.5 129.0Q1170 136 1164 160Q1160 178 1167.5 189.0Q1175 200 1177 217Q1181 245 1171.5 259.0Q1162 273 1145 273Q1121 275 1110.5 258.5Q1100 242 1095 217Q1091 194 1095.5 175.0Q1100 156 1117 134Z" fill="#5d6265" stroke="none" transform="scale(1,-1) translate(0,-256)" /></svg>