<?xml version="1.0" encoding="utf-8" ?>
<svg baseProfile="full" height="256" version="1.1" width="256" xmlns="http://www.w3.org/2000/svg" xmlns:ev="http://www.w3.org/2001/xml-events" xmlns:xlink="http://www.w3.org/1999/xlink"><defs /><path d="M300 385Q321 384 349.0 378.0Q377 372 403.0 360.5Q429 349 445.0 330.0Q461 311 458 284Q453 245 428.5 224.0Q404 203 367.0 197.5Q330 192 288 200Q253 207 229.5 226.0Q206 245 194.5 269.0Q183 293 184 313Q185 329 194.5 347.0Q204 365 229.0 376.0Q254 387 300 385Z" fill="#dfdfdf" stroke="none" transform="scale(1,-1) translate(0,-256)" /></svg>