<?xml version="1.0" encoding="utf-8" ?>
<svg baseProfile="full" height="256" version="1.1" width="256" xmlns="http://www.w3.org/2000/svg" xmlns:ev="http://www.w3.org/2001/xml-events" xmlns:xlink="http://www.w3.org/1999/xlink"><defs /><path d="M873 561Q873 561 875.5 558.0Q878 555 880 552Q882 550 885.0 547.0Q888 544 888 544Q888 544 907.5 548.5Q927 553 953.5 557.5Q980 562 1003.0 563.0Q1026 564 1033 558Q1048 544 1015.5 501.0Q983 458 899.0 396.0Q815 334 675 263Q536 192 439.5 158.5Q343 125 289.0 118.5Q235 112 225 124Q219 131 228.0 145.5Q237 160 254.5 177.5Q272 195 291.0 210.5Q310 226 323.0 236.5Q336 247 336 247Q336 247 334.5 252.5Q333 258 332 262Q331 265 330.5 267.5Q330 270 330 270Q330 270 308.5 255.0Q287 240 256.5 216.0Q226 192 197.0 165.0Q168 138 151.5 112.5Q135 87 143 71Q152 50 199.0 54.5Q246 59 321.0 84.0Q396 109 492.0 152.5Q588 196 695 253Q803 310 889.0 365.0Q975 420 1033.0 467.5Q1091 515 1117.0 550.0Q1143 585 1131 602Q1122 616 1093.0 616.0Q1064 616 1027.0 607.5Q990 599 954.5 588.0Q919 577 896.0 569.0Q873 561 873 561Z" fill="#a7ced6" stroke="none" transform="scale(1,-1) translate(0,-256)" /></svg>