<?xml version="1.0" encoding="utf-8" ?>
<svg baseProfile="full" height="256" version="1.1" width="256" xmlns="http://www.w3.org/2000/svg" xmlns:ev="http://www.w3.org/2001/xml-events" xmlns:xlink="http://www.w3.org/1999/xlink"><defs /><path d="M884 548Q884 548 886.0 545.5Q888 543 890 541Q891 539 893.0 537.0Q895 535 895 535Q895 535 911.0 540.5Q927 546 950.0 551.0Q973 556 993.0 555.5Q1013 555 1020 543Q1030 527 989.5 484.0Q949 441 865.5 383.0Q782 325 664 263Q590 224 520.0 196.0Q450 168 393.5 151.0Q337 134 301.0 130.5Q265 127 258 137Q251 148 262.0 164.5Q273 181 291.5 197.5Q310 214 324.5 225.0Q339 236 339 236Q339 236 338.0 239.5Q337 243 337 245Q335 249 334.5 252.0Q334 255 334 255Q334 255 319.0 244.0Q304 233 283.0 215.5Q262 198 242.0 178.5Q222 159 211.0 141.0Q200 123 207 111Q215 96 248.5 97.5Q282 99 332.0 112.0Q382 125 441.0 146.5Q500 168 560.0 195.0Q620 222 673 251Q727 281 785.0 315.5Q843 350 896.0 386.0Q949 422 989.5 456.0Q1030 490 1050.5 517.0Q1071 544 1062 561Q1055 576 1035.0 578.5Q1015 581 989.5 577.0Q964 573 940.0 566.0Q916 559 900.0 553.5Q884 548 884 548Z" fill="#ddecf6" stroke="none" transform="scale(1,-1) translate(0,-256)" /></svg>