<?xml version="1.0" encoding="utf-8" ?>
<svg baseProfile="full" height="256" version="1.1" width="256" xmlns="http://www.w3.org/2000/svg" xmlns:ev="http://www.w3.org/2001/xml-events" xmlns:xlink="http://www.w3.org/1999/xlink"><defs /><path d="M855 578Q855 578 857.5 576.0Q860 574 863 570Q867 567 869.0 565.0Q871 563 871 563L1113 609L1039 485Q1039 485 1012.0 466.0Q985 447 941.0 416.5Q897 386 845.5 352.0Q794 318 744.5 287.0Q695 256 658 237Q612 213 558.5 189.5Q505 166 456.5 147.5Q408 129 377.0 117.5Q346 106 346 106L180 75L197 152L331 265Q331 265 330.0 270.5Q329 276 328 280Q328 284 327.0 287.5Q326 291 326 291Q326 291 304.5 276.5Q283 262 249.5 237.5Q216 213 179.5 183.5Q143 154 112.0 124.0Q81 94 65.0 67.0Q49 40 58 22Q71 -6 127.0 -2.5Q183 1 269.5 29.5Q356 58 462.0 105.0Q568 152 680 213Q769 261 855.0 312.0Q941 363 1013.5 413.0Q1086 463 1137.5 508.0Q1189 553 1211.5 588.0Q1234 623 1219 643Q1206 661 1174.5 663.0Q1143 665 1101.5 657.5Q1060 650 1017.0 637.0Q974 624 937.5 610.5Q901 597 878.0 587.5Q855 578 855 578Z" fill="#94c7ea" stroke="none" transform="scale(1,-1) translate(0,-256)" /></svg>