<?xml version="1.0" encoding="utf-8" ?>
<svg baseProfile="full" height="256" version="1.1" width="256" xmlns="http://www.w3.org/2000/svg" xmlns:ev="http://www.w3.org/2001/xml-events" xmlns:xlink="http://www.w3.org/1999/xlink"><defs /><path d="M445 780Q447 782 443.0 734.0Q439 686 440 610Q441 572 453.0 527.5Q465 483 481.0 442.0Q497 401 511.5 371.5Q526 342 532 335Q547 316 565.0 306.5Q583 297 596.5 293.5Q610 290 610 290Q610 290 603.5 304.0Q597 318 588.0 337.0Q579 356 573 372Q568 384 561.0 410.5Q554 437 547.0 470.5Q540 504 535.5 538.0Q531 572 530 600Q529 632 528.5 668.5Q528 705 528.0 736.5Q528 768 528.0 788.0Q528 808 528 808Q528 808 515.0 806.0Q502 804 486 798Q468 791 456.5 785.5Q445 780 445 780Z" fill="#ffefab" stroke="none" transform="scale(1,-1) translate(0,-256)" /><path d="M538 22 600 13Q600 13 604.0 40.0Q608 67 610 99Q611 121 612.0 146.0Q613 171 614.0 188.5Q615 206 615 206L592 207Q592 207 589.0 182.0Q586 157 581 124Q577 102 566.5 78.5Q556 55 547.0 38.5Q538 22 538 22Z" fill="#ffefab" stroke="none" transform="scale(1,-1) translate(0,-256)" /></svg>