<?xml version="1.0" encoding="utf-8" ?>
<svg baseProfile="full" height="256" version="1.1" width="256" xmlns="http://www.w3.org/2000/svg" xmlns:ev="http://www.w3.org/2001/xml-events" xmlns:xlink="http://www.w3.org/1999/xlink"><defs /><path d="M1162 663Q1164 630 1145.0 600.0Q1126 570 1096.0 544.5Q1066 519 1035.0 498.5Q1004 478 983 464Q941 437 914.0 415.5Q887 394 881 351Q877 323 885.5 305.5Q894 288 903.5 279.5Q913 271 913 271Q913 271 896.5 275.5Q880 280 867 302Q859 315 855.5 328.5Q852 342 852 348Q833 322 807.0 299.5Q781 277 748 261Q723 249 697.0 243.0Q671 237 642 236Q638 236 634.5 236.0Q631 236 627 236Q602 236 583.0 238.5Q564 241 548 247Q505 260 472.5 285.0Q440 310 415 342Q415 336 413.5 326.5Q412 317 408 309Q398 287 382.0 281.0Q366 275 366 275Q366 275 375.0 286.0Q384 297 390.5 318.0Q397 339 388 368Q381 392 351.5 417.5Q322 443 281.0 471.0Q240 499 197 529Q133 575 115.5 622.5Q98 670 119 711Q132 739 156.5 751.0Q181 763 208.0 762.5Q235 762 258 751Q284 738 294.0 716.0Q304 694 308.0 676.0Q312 658 319 657Q324 657 327.5 669.0Q331 681 332.5 698.0Q334 715 334.0 731.0Q334 747 333 754Q331 768 324.5 777.0Q318 786 318 786Q318 786 318.5 791.0Q319 796 320 799Q320 801 322.5 805.0Q325 809 325 809Q325 809 329.0 801.0Q333 793 342 791Q350 789 355.0 792.0Q360 795 360 795L363 784L361 761L358 708L365 560L414 415L481 352Q481 352 492.5 342.5Q504 333 524.0 321.0Q544 309 570.0 300.0Q596 291 625 292Q663 292 684.5 298.5Q706 305 717.5 313.0Q729 321 739 325Q749 330 764.0 341.5Q779 353 790.0 363.0Q801 373 801 373Q801 373 808.5 386.0Q816 399 826.5 417.5Q837 436 848.0 455.5Q859 475 866.5 488.5Q874 502 875 504Q876 505 878.0 531.0Q880 557 883.0 594.0Q886 631 889.0 667.5Q892 704 894.0 729.0Q896 754 896 754L884 803Q884 803 892.0 799.5Q900 796 909 800Q917 804 917.5 816.5Q918 829 918 829Q918 829 924.5 822.0Q931 815 936 809Q941 802 943.0 792.5Q945 783 945 783Q945 783 937.5 770.5Q930 758 930 721Q929 709 929.5 689.5Q930 670 930.0 654.0Q930 638 930 638Q930 638 935.0 638.0Q940 638 946 640Q951 642 956.0 655.0Q961 668 966 688Q978 739 1032 758Q1046 763 1066.5 761.0Q1087 759 1108.0 748.0Q1129 737 1144.0 716.5Q1159 696 1162 663ZM237 539Q277 510 312.0 486.0Q347 462 354 457Q349 470 345.0 482.5Q341 495 338 507Q335 518 332 531Q332 531 331.5 531.5Q331 532 331 532Q329 543 327.0 553.0Q325 563 324 571Q323 571 323.0 571.5Q323 572 323 572Q323 573 323 574Q321 585 320.5 591.0Q320 597 320 597Q320 597 310.0 599.5Q300 602 295 613Q293 618 289.5 639.0Q286 660 276.5 683.5Q267 707 247.0 722.5Q227 738 191 732Q167 728 153.5 710.0Q140 692 138.0 667.0Q136 642 149 617Q162 590 190.0 571.0Q218 552 237 539ZM1112 606Q1130 635 1128.5 664.5Q1127 694 1104 710Q1078 728 1058.0 727.0Q1038 726 1023.5 714.0Q1009 702 1001 687Q992 673 987.0 649.5Q982 626 973 616Q964 607 953.0 608.0Q942 609 942 609Q942 609 940.0 584.5Q938 560 931 527Q929 514 925.0 502.5Q921 491 918 481Q913 465 908 452Q916 458 935.5 471.0Q955 484 978.0 500.0Q1001 516 1021 529Q1043 544 1070.0 563.0Q1097 582 1112 606Z" fill="#ffa828" stroke="none" transform="scale(1,-1) translate(0,-256)" /><path d="M605 206Q605 213 604.0 202.5Q603 192 601.0 175.5Q599 159 598.0 146.0Q597 133 597 133Q597 133 592.5 112.0Q588 91 584.0 64.0Q580 37 580 18Q580 3 596.0 0.5Q612 -2 633.5 1.5Q655 5 671.0 10.0Q687 15 687 15Q687 15 680.5 44.5Q674 74 668 106Q663 128 661.0 151.5Q659 175 658.5 191.0Q658 207 658 207Z" fill="#ffa828" stroke="none" transform="scale(1,-1) translate(0,-256)" /><path d="M516 808 507 470 598 287 651 281Q651 281 656.0 289.0Q661 297 668 313Q674 324 686.0 352.0Q698 380 710.5 422.0Q723 464 728 515Q732 554 734.5 603.0Q737 652 738.5 697.5Q740 743 740.5 772.5Q741 802 741 802Q741 802 724.5 804.5Q708 807 682.5 810.0Q657 813 630 813Q602 814 576.0 812.5Q550 811 533.0 809.5Q516 808 516 808Z" fill="#ffa828" stroke="none" transform="scale(1,-1) translate(0,-256)" /></svg>