<?xml version="1.0" encoding="utf-8" ?>
<svg baseProfile="full" height="256" version="1.1" width="256" xmlns="http://www.w3.org/2000/svg" xmlns:ev="http://www.w3.org/2001/xml-events" xmlns:xlink="http://www.w3.org/1999/xlink"><defs /><path d="M948 394Q932 381 922.0 368.0Q912 355 915 341Q918 327 926.0 326.0Q934 325 938 329Q941 331 947.5 333.5Q954 336 960.0 332.5Q966 329 968 313Q970 289 950.5 275.5Q931 262 903 276Q884 285 876.0 302.0Q868 319 867.0 333.0Q866 347 867 350Q869 353 861.0 360.5Q853 368 853 368L693 270V186Q693 186 696.5 164.5Q700 143 713 118Q725 95 740.0 74.0Q755 53 766.0 40.5Q777 28 777 28L786 -7L478 -14L479 22Q479 22 489.0 33.0Q499 44 512.5 62.0Q526 80 537 100Q553 129 557.5 156.5Q562 184 562 184L565 243L482 312L406 364L399 316Q399 316 394.5 304.0Q390 292 378.5 281.0Q367 270 344 272Q320 275 309.0 289.0Q298 303 299.0 319.0Q300 335 312 341Q324 348 330.0 338.0Q336 328 339 327Q341 326 346.5 331.5Q352 337 352 353Q352 370 331.5 388.0Q311 406 285 425Q268 438 239.5 455.0Q211 472 177.5 496.5Q144 521 112 556Q94 576 81.5 607.5Q69 639 68.0 674.5Q67 710 82.5 743.5Q98 777 136 801Q173 825 206.0 826.0Q239 827 264.0 817.5Q289 808 303.5 797.0Q318 786 318 786Q318 786 321.5 798.5Q325 811 339.0 828.0Q353 845 384 861Q436 886 495.0 895.5Q554 905 618 906Q684 907 752.0 896.0Q820 885 877 859Q907 845 921.5 827.0Q936 809 941.0 796.0Q946 783 946 783Q946 783 962.5 794.0Q979 805 1007.5 814.5Q1036 824 1072.5 820.5Q1109 817 1147 787Q1177 763 1189.0 730.0Q1201 697 1199.5 662.0Q1198 627 1186.0 596.5Q1174 566 1155 548Q1130 524 1098.0 499.5Q1066 475 1034.5 453.5Q1003 432 979.5 416.0Q956 400 948 394ZM160 567 374 434 324 617Q324 617 318.0 629.0Q312 641 304.5 657.0Q297 673 290.5 685.5Q284 698 283 700Q282 701 272.0 709.0Q262 717 249.5 726.5Q237 736 227.5 743.5Q218 751 218 751L168 736L124 678ZM881 420Q881 419 902.0 432.0Q923 445 954.5 465.0Q986 485 1017.0 505.0Q1048 525 1069.5 538.5Q1091 552 1091 552L1141 634L1120 733L1021 736Q1021 736 1012.0 721.5Q1003 707 991.0 687.5Q979 668 970.0 652.5Q961 637 961 636Q961 635 953.0 630.5Q945 626 936.5 621.5Q928 617 928 616Q928 616 923.5 596.5Q919 577 912.0 548.0Q905 519 898.0 490.0Q891 461 886.0 441.0Q881 421 881 420Z" fill="#fec417" stroke="none" transform="scale(1,-1) translate(0,-256)" /></svg>