<?xml version="1.0" encoding="utf-8" ?>
<svg baseProfile="full" height="256" version="1.1" width="256" xmlns="http://www.w3.org/2000/svg" xmlns:ev="http://www.w3.org/2001/xml-events" xmlns:xlink="http://www.w3.org/1999/xlink"><defs /><path d="M1074 642Q1076 640 1078 638Q1089 626 1088.0 609.5Q1087 593 1074 583L924 433Q914 424 901 424Q885 424 874.0 435.0Q863 446 863 462V507Q863 509 862 512Q859 520 852.5 523.5Q846 527 838 524Q751 495 699 418Q671 376 647 331Q619 281 582.0 223.0Q545 165 496.0 112.0Q447 59 381.0 21.5Q315 -16 229 -24Q227 -24 226 -24Q210 -24 199.0 -13.0Q188 -2 188 13V89Q187 104 196.5 114.5Q206 125 220 127Q277 134 320.5 161.0Q364 188 398.5 227.5Q433 267 461.5 313.5Q490 360 516 405Q543 457 577 507Q624 575 694.5 620.5Q765 666 848 682Q863 685 863 701V763Q863 776 871 786Q881 798 896.5 799.5Q912 801 924 792Z" fill="#fafafa" stroke="none" transform="scale(1,-1) translate(0,-256)" /><path d="M924 267 1074 117Q1077 115 1079 112Q1089 100 1087.5 84.5Q1086 69 1074 58L924 -92Q914 -100 901 -100Q885 -100 874.0 -89.0Q863 -78 863 -62V0Q862 16 847 19Q773 33 709.0 71.0Q645 109 597 167Q594 173 597 178Q618 209 636.5 239.5Q655 270 670 298Q671 300 673 301Q681 306 686 298Q690 294 693.0 289.5Q696 285 698 281Q751 205 838 175Q841 174 844 174Q851 174 857.0 179.5Q863 185 863 193V238Q863 251 871 261Q881 273 896.5 274.5Q912 276 924 267Z" fill="#fafafa" stroke="none" transform="scale(1,-1) translate(0,-256)" /><path d="M221 573Q207 574 197.5 584.5Q188 595 188 610V686Q188 687 188 690Q189 705 201.0 714.5Q213 724 228 722Q300 716 358.0 688.5Q416 661 461.0 620.0Q506 579 542 533Q546 528 543 523Q537 513 523.0 489.5Q509 466 494.0 440.5Q479 415 470 400Q469 398 467 397Q459 392 454 400Q412 464 356.5 513.5Q301 563 221 573Z" fill="#fafafa" stroke="none" transform="scale(1,-1) translate(0,-256)" /></svg>