<?xml version="1.0" encoding="utf-8" ?>
<svg baseProfile="full" height="256" version="1.1" width="256" xmlns="http://www.w3.org/2000/svg" xmlns:ev="http://www.w3.org/2001/xml-events" xmlns:xlink="http://www.w3.org/1999/xlink"><defs /><path d="M611 719 690 720Q690 720 690.0 683.0Q690 646 690.0 582.5Q690 519 690.0 440.0Q690 361 690.0 276.5Q690 192 690.0 112.5Q690 33 690.0 -32.0Q690 -97 690.5 -137.0Q691 -177 691 -180Q691 -192 685.0 -204.0Q679 -216 651 -216Q627 -217 619.0 -204.5Q611 -192 611 -176Q611 -172 611.0 -132.0Q611 -92 611.0 -27.5Q611 37 611.0 116.5Q611 196 611.0 279.5Q611 363 611.0 441.5Q611 520 611.0 582.5Q611 645 611.0 682.0Q611 719 611 719Z" fill="#7855bd" stroke="none" transform="scale(1,-1) translate(0,-256)" /><path d="M365 623Q395 617 429.0 614.0Q463 611 493.0 609.5Q523 608 542.0 608.0Q561 608 561 608V549Q561 549 540.0 549.0Q519 549 486.0 550.5Q453 552 417.0 554.5Q381 557 351 563Q311 569 275.0 583.0Q239 597 216.0 618.0Q193 639 192 669Q191 728 239.0 767.5Q287 807 364 810Q403 812 429.0 801.5Q455 791 470.0 776.5Q485 762 491.0 750.0Q497 738 497 736Q496 731 485.5 728.0Q475 725 458 723Q444 722 433.0 720.0Q422 718 422 711Q421 703 430.5 702.0Q440 701 454 700Q464 699 464.0 695.5Q464 692 464 692Q464 692 447.5 687.5Q431 683 403 685Q374 687 353.5 697.5Q333 708 326 711Q316 716 299.0 715.5Q282 715 275 699Q267 680 288.0 657.0Q309 634 365 623ZM366 749Q366 741 371.5 734.5Q377 728 386 727Q395 726 400.0 733.0Q405 740 405 748Q405 756 401.5 764.0Q398 772 387 772Q376 773 371.5 765.5Q367 758 366 749Z" fill="#7855bd" stroke="none" transform="scale(1,-1) translate(0,-256)" /><path d="M558 208Q558 208 539.0 210.5Q520 213 492 219Q462 225 427.0 233.5Q392 242 360.5 256.0Q329 270 309.5 291.5Q290 313 291 346Q292 362 301.0 375.0Q310 388 323 397Q350 417 395.0 425.5Q440 434 489.5 435.0Q539 436 581.0 434.0Q623 432 645 433Q716 434 778.0 436.5Q840 439 877 447Q902 451 913.5 468.5Q925 486 920.5 504.5Q916 523 893 532Q882 536 858.0 538.5Q834 541 807.0 542.5Q780 544 761.0 544.5Q742 545 742 545V607Q742 607 757.5 606.5Q773 606 797.5 605.0Q822 604 848.0 602.0Q874 600 894 598Q919 594 942.0 587.0Q965 580 981 567Q1001 553 1011.5 536.0Q1022 519 1023 494Q1024 475 1018.5 454.5Q1013 434 994.5 417.5Q976 401 940 393Q916 387 864.5 382.0Q813 377 742.0 374.5Q671 372 589 373Q541 374 497.5 373.5Q454 373 427.0 364.5Q400 356 399 330Q398 316 415.5 307.0Q433 298 458.5 292.0Q484 286 507 283Q530 280 548.0 277.5Q566 275 566 275Z" fill="#7855bd" stroke="none" transform="scale(1,-1) translate(0,-256)" /></svg>