<?xml version="1.0" encoding="utf-8" ?>
<svg baseProfile="full" height="256" version="1.1" width="256" xmlns="http://www.w3.org/2000/svg" xmlns:ev="http://www.w3.org/2001/xml-events" xmlns:xlink="http://www.w3.org/1999/xlink"><defs /><path d="M560 608Q562 608 591.5 608.0Q621 608 655 608Q689 607 715.5 607.0Q742 607 742 607Q742 607 763.5 601.0Q785 595 817.5 586.0Q850 577 882.5 568.0Q915 559 938.0 553.0Q961 547 963 546Q965 545 966.5 532.5Q968 520 969.0 504.0Q970 488 970.0 475.5Q970 463 970 461Q970 460 960.0 458.0Q950 456 937.0 453.5Q924 451 914.0 449.5Q904 448 904 448Q904 448 906.0 455.5Q908 463 907.0 473.0Q906 483 898 490Q875 509 813.0 510.0Q751 511 649 512Q551 514 458.0 517.0Q365 520 289 546Q247 560 226.5 583.0Q206 606 199.0 629.0Q192 652 192.5 667.5Q193 683 193 683L384 582Z" fill="#5731a5" stroke="none" transform="scale(1,-1) translate(0,-256)" /><path d="M278 648 365 621Q365 621 354.0 624.0Q343 627 328.5 633.5Q314 640 304 649Q297 655 295.5 665.0Q294 675 301 680Q305 685 312.5 683.0Q320 681 338.5 677.0Q357 673 395 671Q429 670 443.5 675.0Q458 680 461.0 686.0Q464 692 464 692L397 698L304 732L257 710Z" fill="#5731a5" stroke="none" transform="scale(1,-1) translate(0,-256)" /><path d="M298 370Q298 370 309.5 361.5Q321 353 339.0 339.5Q357 326 375.0 312.5Q393 299 406.0 289.0Q419 279 421 277Q423 275 445.5 274.5Q468 274 496.0 274.0Q524 274 545.0 274.5Q566 275 566 275Q566 275 589.5 272.0Q613 269 653 265Q697 260 722.5 257.0Q748 254 748 254L903 176Q903 176 903.5 164.5Q904 153 903.5 138.0Q903 123 901.5 111.0Q900 99 897 97Q894 95 884.5 97.0Q875 99 866.5 101.5Q858 104 856 106Q855 107 855.0 118.5Q855 130 841 137Q827 144 773.0 152.0Q719 160 650 167Q604 171 554.0 178.0Q504 185 458.5 193.0Q413 201 381 211Q334 225 312.0 252.5Q290 280 287 307Q284 335 291.0 352.5Q298 370 298 370Z" fill="#5731a5" stroke="none" transform="scale(1,-1) translate(0,-256)" /><path d="M558 -41 451 -34 413 66Q413 66 401.5 59.0Q390 52 379.0 36.5Q368 21 369 -4Q370 -36 391.5 -57.0Q413 -78 443 -89Q466 -98 504.5 -104.5Q543 -111 582.5 -116.0Q622 -121 648 -122Q687 -125 722.0 -128.0Q757 -131 798 -147Q824 -158 837.0 -169.5Q850 -181 856.5 -190.5Q863 -200 872 -203Q887 -209 891.0 -200.0Q895 -191 895 -191L863 -153L784 -107L739 -66Z" fill="#5731a5" stroke="none" transform="scale(1,-1) translate(0,-256)" /><path d="M611 719Q611 719 592.5 726.5Q574 734 561 762Q553 780 551.5 797.5Q550 815 551.5 827.0Q553 839 553 839L757 838Q757 838 758.0 815.0Q759 792 747 765Q739 745 725.5 734.5Q712 724 701.0 720.5Q690 717 690 717V678Q690 678 681.0 672.5Q672 667 651 667Q630 666 620.5 673.0Q611 680 611 680Z" fill="#5731a5" stroke="none" transform="scale(1,-1) translate(0,-256)" /><path d="M1021 505Q1021 505 1007.5 492.5Q994 480 975.0 463.0Q956 446 940.0 432.5Q924 419 920 418Q916 417 889.5 416.0Q863 415 825.0 414.0Q787 413 750.0 412.5Q713 412 688.5 411.5Q664 411 664 411L379 389Q379 389 377.5 373.0Q376 357 374.0 335.0Q372 313 371.0 295.5Q370 278 370 275Q370 273 384.0 272.5Q398 272 415.5 273.0Q433 274 446.5 275.0Q460 276 460 276Q460 276 449.0 280.5Q438 285 427.0 294.0Q416 303 416 316Q416 331 431.5 335.0Q447 339 456 339Q465 339 489.5 339.0Q514 339 542.5 339.5Q571 340 591.5 340.0Q612 340 612 340V305Q612 305 622.5 302.5Q633 300 648 300Q663 300 676.5 302.0Q690 304 690 304V340Q690 340 709.5 340.5Q729 341 760.5 342.5Q792 344 828.5 347.5Q865 351 899 356Q947 363 972.5 380.0Q998 397 1007.5 413.5Q1017 430 1019 438Q1026 474 1023.5 489.5Q1021 505 1021 505Z" fill="#5731a5" stroke="none" transform="scale(1,-1) translate(0,-256)" /><path d="M478 -18 436 -30 438 34 566 60 826 64 901 122Q901 122 912.0 128.5Q923 135 937.0 141.5Q951 148 962.0 148.0Q973 148 973 135Q974 117 970.5 98.5Q967 80 952.0 61.5Q937 43 904 26Q885 16 850.0 11.5Q815 7 778.0 5.5Q741 4 715.5 4.5Q690 5 690 5V-44L611 -43V6Q611 6 598.0 6.5Q585 7 566.5 7.0Q548 7 530.5 7.5Q513 8 505 8Q488 7 482.5 1.0Q477 -5 477.5 -11.5Q478 -18 478 -18Z" fill="#5731a5" stroke="none" transform="scale(1,-1) translate(0,-256)" /></svg>