<?xml version="1.0" encoding="utf-8" ?>
<svg baseProfile="full" height="256" version="1.1" width="256" xmlns="http://www.w3.org/2000/svg" xmlns:ev="http://www.w3.org/2001/xml-events" xmlns:xlink="http://www.w3.org/1999/xlink"><defs /><path d="M255 453Q254 429 237.0 403.5Q220 378 192 374Q166 371 158.0 382.0Q150 393 150 407Q150 422 155.0 427.5Q160 433 160 433Q160 433 157.5 439.0Q155 445 154 451Q153 454 152.5 467.5Q152 481 158.5 495.0Q165 509 185 512Q216 518 236.0 500.5Q256 483 255 453Z" fill="#ff6666" stroke="none" transform="scale(1,-1) translate(0,-256)" /></svg>