<?xml version="1.0" encoding="utf-8" ?>
<svg baseProfile="full" height="256" version="1.1" width="256" xmlns="http://www.w3.org/2000/svg" xmlns:ev="http://www.w3.org/2001/xml-events" xmlns:xlink="http://www.w3.org/1999/xlink"><defs /><path d="M187 319 963 248Q963 248 974.0 264.5Q985 281 992.5 319.5Q1000 358 989 423Q980 473 960.5 507.5Q941 542 919.0 563.5Q897 585 882.0 595.0Q867 605 867 605L874 674L822 633Q822 633 807.0 641.0Q792 649 778 655Q764 661 751.0 666.0Q738 671 738 671L728 738L693 683Q693 683 678.0 684.5Q663 686 642 688Q620 689 604.5 689.0Q589 689 589 689L567 758L541 691Q541 691 523.0 689.0Q505 687 479 685Q452 683 433.0 679.0Q414 675 414 675L370 731L366 656Q366 656 350.0 648.5Q334 641 317 631Q306 625 293.0 615.5Q280 606 271.0 598.0Q262 590 262 590L207 614L232 553Q232 553 223.0 539.0Q214 525 203.0 502.5Q192 480 185 455Q174 417 171.5 383.0Q169 349 171 340Q172 330 179.5 324.5Q187 319 187 319Z" fill="#f3a25c" stroke="none" transform="scale(1,-1) translate(0,-256)" /></svg>