<?xml version="1.0" encoding="utf-8" ?>
<svg baseProfile="full" height="256" version="1.1" width="256" xmlns="http://www.w3.org/2000/svg" xmlns:ev="http://www.w3.org/2001/xml-events" xmlns:xlink="http://www.w3.org/1999/xlink"><defs /><path d="M301 213Q298 215 300.5 234.5Q303 254 307.5 278.5Q312 303 316.0 321.5Q320 340 320 340Q320 340 333.5 343.5Q347 347 365 338Q383 330 388.0 316.5Q393 303 393 303Q393 303 380.5 288.5Q368 274 350.5 256.0Q333 238 318.5 224.5Q304 211 301 213Z" fill="#fbfffe" stroke="none" transform="scale(1,-1) translate(0,-256)" /><path d="M516 352Q516 352 521.5 338.5Q527 325 535.0 305.0Q543 285 552.0 265.5Q561 246 568.0 232.5Q575 219 578 219Q581 219 586.5 232.5Q592 246 598.5 266.0Q605 286 611.5 306.5Q618 327 622.0 340.5Q626 354 626 354Q626 354 613.0 363.5Q600 373 572 375Q543 377 529.5 364.5Q516 352 516 352Z" fill="#fbfffe" stroke="none" transform="scale(1,-1) translate(0,-256)" /><path d="M407 79Q405 81 405.5 101.5Q406 122 407.5 147.0Q409 172 411.0 191.0Q413 210 413 210Q413 210 423.5 212.0Q434 214 449.0 213.0Q464 212 476 204Q494 191 503.0 176.5Q512 162 512 162Q512 162 497.0 148.5Q482 135 462.5 117.5Q443 100 426.5 88.0Q410 76 407 79Z" fill="#fbfffe" stroke="none" transform="scale(1,-1) translate(0,-256)" /><path d="M639 194Q639 194 651.0 179.5Q663 165 679.0 146.5Q695 128 709.0 114.5Q723 101 727 103Q730 105 731.5 124.0Q733 143 732.5 167.0Q732 191 731.5 209.0Q731 227 731 227Q731 227 716.0 233.5Q701 240 676 232Q653 224 646.0 209.0Q639 194 639 194Z" fill="#fbfffe" stroke="none" transform="scale(1,-1) translate(0,-256)" /><path d="M740 316Q740 316 755.0 306.0Q770 296 790.5 283.5Q811 271 827.0 262.0Q843 253 846 256Q848 257 842.0 275.0Q836 293 827.0 316.0Q818 339 810.5 356.0Q803 373 803 373Q803 373 788.5 373.5Q774 374 758 361Q741 348 740.5 332.0Q740 316 740 316Z" fill="#fbfffe" stroke="none" transform="scale(1,-1) translate(0,-256)" /></svg>