<?xml version="1.0" encoding="utf-8" ?>
<svg baseProfile="full" height="256" version="1.1" width="256" xmlns="http://www.w3.org/2000/svg" xmlns:ev="http://www.w3.org/2001/xml-events" xmlns:xlink="http://www.w3.org/1999/xlink"><defs /><path d="M912 565 913 234Q913 234 928.5 224.0Q944 214 964.5 201.0Q985 188 1001.5 178.5Q1018 169 1020 170Q1022 172 1029.0 186.5Q1036 201 1042.0 221.0Q1048 241 1051 257Q1053 274 1045.5 291.0Q1038 308 1030.0 319.5Q1022 331 1022 331Q1022 331 1036.5 324.0Q1051 317 1071.0 308.0Q1091 299 1107.0 292.5Q1123 286 1125 286Q1127 287 1134.5 300.5Q1142 314 1152.5 334.5Q1163 355 1173.0 376.0Q1183 397 1189.5 412.0Q1196 427 1196 430Q1196 433 1185.5 454.0Q1175 475 1160.5 500.5Q1146 526 1134.5 545.5Q1123 565 1121 566Q1119 567 1101.0 558.0Q1083 549 1061.0 537.5Q1039 526 1023.0 517.0Q1007 508 1007 508Q1007 508 1013.0 517.0Q1019 526 1025.5 540.0Q1032 554 1032 568Q1032 579 1024.0 595.0Q1016 611 1007.5 624.0Q999 637 998 637Q997 638 984.0 627.0Q971 616 954.5 601.5Q938 587 925.0 576.0Q912 565 912 565Z" fill="#8a5a54" stroke="none" transform="scale(1,-1) translate(0,-256)" /></svg>