<?xml version="1.0" encoding="utf-8" ?>
<svg baseProfile="full" height="256" version="1.1" width="256" xmlns="http://www.w3.org/2000/svg" xmlns:ev="http://www.w3.org/2001/xml-events" xmlns:xlink="http://www.w3.org/1999/xlink"><defs /><path d="M1108 179Q1114 182 1128.0 186.0Q1142 190 1154.0 190.5Q1166 191 1165 184Q1162 123 1154.5 70.0Q1147 17 1130.0 -24.0Q1113 -65 1081.5 -88.0Q1050 -111 998 -112L377 -107Q313 -107 277.5 -80.5Q242 -54 223.0 -6.5Q204 41 191.5 104.0Q179 167 160 238Q145 287 120 333Q119 335 126.5 335.0Q134 335 145.0 328.5Q156 322 166 303Q184 268 196.0 221.0Q208 174 218.5 124.0Q229 74 242.5 31.0Q256 -12 277.0 -41.0Q298 -70 332 -74Q330 -67 334 -57Q338 -47 346.5 -41.0Q355 -35 365 -37Q382 -41 390.0 -45.5Q398 -50 411 -60Q420 -66 431.5 -72.5Q443 -79 457 -80L913 -83Q928 -82 939.0 -75.0Q950 -68 959 -62Q971 -53 980.5 -46.0Q990 -39 1011 -40Q1022 -40 1030.0 -47.5Q1038 -55 1042 -64Q1044 -70 1045 -75Q1074 -61 1082.0 -23.0Q1090 15 1085 78Q1083 93 1084.0 114.0Q1085 135 1090.5 153.0Q1096 171 1108 179Z" fill="#b7d5e5" stroke="none" transform="scale(1,-1) translate(0,-256)" /><path d="M862 190Q864 190 866 190Q945 190 1022.5 193.5Q1100 197 1179 214Q1190 216 1196.5 225.5Q1203 235 1200 247Q1198 258 1188.5 264.5Q1179 271 1167 268Q1093 253 1017.5 249.5Q942 246 865 246Q835 246 783.5 248.5Q732 251 664.5 263.5Q597 276 518 304Q479 318 429.5 336.0Q380 354 324.5 369.0Q269 384 210.5 389.5Q152 395 96 382Q85 380 78.5 370.0Q72 360 75 349Q77 338 87.0 331.5Q97 325 108 328Q158 339 211.0 334.0Q264 329 316.0 315.0Q368 301 414.5 283.5Q461 266 497 252Q578 221 649.0 208.0Q720 195 774.5 192.5Q829 190 862 190Z" fill="#b7d5e5" stroke="none" transform="scale(1,-1) translate(0,-256)" /></svg>