<?xml version="1.0" encoding="utf-8" ?>
<svg baseProfile="full" height="256" version="1.1" width="256" xmlns="http://www.w3.org/2000/svg" xmlns:ev="http://www.w3.org/2001/xml-events" xmlns:xlink="http://www.w3.org/1999/xlink"><defs /><path d="M872 826Q871 825 873.5 822.0Q876 819 888 826Q891 827 898.5 830.0Q906 833 922 832Q927 832 932.0 834.0Q937 836 937 842Q937 855 913 852Q902 851 888.5 844.0Q875 837 872 826Z" fill="#dfecf5" stroke="none" transform="scale(1,-1) translate(0,-256)" /><path d="M286 -151Q272 -155 274 -165Q275 -169 283.5 -169.0Q292 -169 298 -168Q303 -166 307.5 -163.5Q312 -161 313 -157Q315 -149 305.5 -148.0Q296 -147 286 -151Z" fill="#dfecf5" stroke="none" transform="scale(1,-1) translate(0,-256)" /><path d="M1048 -150Q1053 -146 1061.5 -146.0Q1070 -146 1071 -151Q1072 -155 1067 -159Q1063 -162 1059.5 -165.0Q1056 -168 1052 -171Q1051 -173 1046.0 -176.0Q1041 -179 1039 -177Q1035 -171 1039.0 -163.0Q1043 -155 1048 -150Z" fill="#dfecf5" stroke="none" transform="scale(1,-1) translate(0,-256)" /></svg>