<?xml version="1.0" encoding="utf-8" ?>
<svg baseProfile="full" height="256" version="1.1" width="256" xmlns="http://www.w3.org/2000/svg" xmlns:ev="http://www.w3.org/2001/xml-events" xmlns:xlink="http://www.w3.org/1999/xlink"><defs /><path d="M210.18616986088455 717.8569515396375Q202.32734509254806 738.6346198876854 182.34895404882263 747.457071584533Q162.3705630050972 756.2795232813805 142.4857662729919 748.7578016715124Q122.60096954088658 741.2360800616443 113.81742245424539 721.5339953219518Q105.0338753676042 701.8319105822593 112.89270013594069 681.0542422342114Q120.48053094674833 660.99304520851 140.1038363345433 652.0362770543434Q159.72714172233827 643.0795089001767 179.6119384544436 650.6012305100448Q199.4967351865489 658.122952119913 208.63536792912055 677.9593533169245Q217.7740006716922 697.7957545139361 210.18616986088455 717.8569515396375Z" fill="#000000" stroke="none" transform="scale(1,-1) translate(0,-256)" /><path d="M267.93616986088455 753.1069515396375Q260.07734509254806 773.8846198876854 240.09895404882263 782.707071584533Q220.1205630050972 791.5295232813805 200.2357662729919 784.0078016715124Q180.35096954088658 776.4860800616443 171.5674224542454 756.7839953219518Q162.7838753676042 737.0819105822593 170.6427001359407 716.3042422342114Q178.23053094674833 696.24304520851 197.8538363345433 687.2862770543434Q217.47714172233827 678.3295089001767 237.3619384544436 685.8512305100448Q257.2467351865489 693.372952119913 266.38536792912055 713.2093533169245Q275.5240006716922 733.0457545139361 267.93616986088455 753.1069515396375Z" fill="#000000" stroke="none" transform="scale(1,-1) translate(0,-256)" /><path d="M-385.40252685546875 180.80711364746094Q-379.34161376953125 175.58555603027344 -370.24010467529297 160.87074279785156Q-361.1385955810547 146.1559295654297 -368.0721435546875 127.38380432128906Q-374.10601806640625 114.25209045410156 -368.9515380859375 107.97843933105469Q-368.9515380859375 107.97843933105469 -366.29988861083984 105.69400787353516Q-363.6482391357422 103.40957641601562 -361.22657775878906 103.15628051757812Q-356.8364715576172 102.12364196777344 -354.94581604003906 102.78606414794922Q-353.05516052246094 103.448486328125 -353.05516052246094 103.448486328125Q-353.05516052246094 103.448486328125 -358.4227294921875 100.28247833251953Q-363.79029846191406 97.11647033691406 -373.6257629394531 96.42486572265625Q-383.4612274169922 95.73326110839844 -396.1850891113281 103.94554138183594Q-410.8773956298828 112.93716430664062 -416.49523162841797 125.56724548339844Q-422.1130676269531 138.19732666015625 -420.84134674072266 148.0997085571289Q-419.5696258544922 158.00209045410156 -413.3666534423828 159.07363891601562Q-389.6100158691406 160.6029510498047 -387.2796630859375 170.96805572509766Q-384.9493103027344 181.33316040039062 -385.40252685546875 180.80711364746094Z" fill="#000000" stroke="none" transform="scale(1,-1) translate(0,-256)" /><path d="M-264.3551788330078 392.8704071044922Q-258.2135467529297 372.7262878417969 -263.4994354248047 351.353759765625Q-266.12945556640625 342.81866455078125 -270.5992889404297 334.6405792236328Q-275.0691223144531 326.4624938964844 -283.55552673339844 324.2326354980469Q-291.3034210205078 322.2902069091797 -298.29341888427734 323.8619613647461Q-305.2834167480469 325.4337158203125 -310.06434631347656 326.79217529296875Q-305.97023010253906 333.75096130371094 -306.8319778442383 343.60972595214844Q-307.6937255859375 353.46849060058594 -309.4818420410156 362.43017578125Q-311.99554443359375 373.25559997558594 -314.5092468261719 384.0810241699219Q-317.02294921875 394.9064483642578 -322.4906921386719 404.5821533203125Q-314.7169494628906 410.82691955566406 -311.54273986816406 417.9642105102539Q-308.3685302734375 425.10150146484375 -307.63002014160156 425.38893127441406Q-303.5100555419922 436.6500549316406 -305.63511657714844 450.845947265625Q-302.3312072753906 448.9126281738281 -299.2151565551758 446.3696594238281Q-296.09910583496094 443.8266906738281 -294.635009765625 442.25038146972656Q-273.01051330566406 423.83995056152344 -264.3551788330078 392.8704071044922Z" fill="#000000" stroke="none" transform="scale(1,-1) translate(0,-256)" /><path d="M-288.43284606933594 300.8094482421875Q-289.37152099609375 300.46466064453125 -294.51663970947266 294.1709518432617Q-299.66175842285156 287.8772430419922 -310.4879913330078 281.09818267822266Q-321.31422424316406 274.3191223144531 -337.8882293701172 273.03546142578125Q-349.2504577636719 272.06475830078125 -362.50762939453125 274.8018569946289Q-375.7648010253906 277.53895568847656 -386.7067565917969 278.3240203857422Q-396.7100372314453 279.45387268066406 -403.0215606689453 276.3348693847656Q-409.3330841064453 273.2158660888672 -418.9790344238281 270.4734802246094Q-430.76153564453125 267.74700927734375 -441.83309173583984 268.8848190307617Q-452.90464782714844 270.0226287841797 -463.8466033935547 270.8076934814453Q-487.8670654296875 272.39373779296875 -498.95249938964844 266.3201675415039Q-510.0379333496094 260.24659729003906 -512.7873001098633 253.23148345947266Q-515.5366668701172 246.21636962890625 -515.5366668701172 246.21636962890625Q-529.4909057617188 252.30056762695312 -533.2983856201172 264.1135482788086Q-537.1058654785156 275.92652893066406 -531.0887298583984 288.5457763671875Q-525.9121398925781 297.6534881591797 -517.401123046875 306.38458251953125Q-508.8901062011719 315.1156768798828 -496.4281311035156 318.8924255371094Q-501.0308074951172 337.21925354003906 -491.11177825927734 346.467529296875Q-481.1927490234375 355.71580505371094 -469.5398483276367 358.7950210571289Q-457.88694763183594 361.8742370605469 -457.88694763183594 361.8742370605469Q-457.88694763183594 361.8742370605469 -460.7168502807617 353.6284942626953Q-463.5467529296875 345.38275146484375 -454.9024200439453 342.15234375Q-451.3087921142578 341.0702362060547 -446.6959533691406 341.5635452270508Q-442.08311462402344 342.0568542480469 -438.0692138671875 342.7305145263672Q-434.31451416015625 344.1096649169922 -430.22007751464844 346.01395416259766Q-426.1256408691406 347.9182434082031 -421.43226623535156 349.6421813964844Q-411.3660430908203 354.1403350830078 -399.16326904296875 358.62257385253906Q-386.9604949951172 363.1048126220703 -372.5230407714844 364.4043884277344Q-351.9351348876953 366.36170959472656 -331.66937255859375 363.3965148925781Q-311.4036102294922 360.4313201904297 -297.7715148925781 349.4246063232422Q-285.85569763183594 340.1895751953125 -281.7890167236328 327.67110443115234Q-277.7223358154297 315.1526336669922 -288.43284606933594 300.8094482421875Z" fill="#000000" stroke="none" transform="scale(1,-1) translate(0,-256)" /><path d="M-350.7730255126953 -5.1077880859375Q-341.25123596191406 -9.392364501953125 -331.2477798461914 -6.16162109375Q-321.24432373046875 -2.930877685546875 -314.17200469970703 1.956451416015625Q-307.0996856689453 6.843780517578125 -307.0996856689453 6.843780517578125Q-307.0996856689453 6.843780517578125 -314.4333953857422 -5.7930450439453125Q-321.76710510253906 -18.42987060546875 -341.1807403564453 -26.981597900390625Q-366.2863006591797 -38.239349365234375 -378.36622619628906 -34.15425109863281Q-390.44615173339844 -30.06915283203125 -393.91182708740234 -22.7359619140625Q-397.37750244140625 -15.40277099609375 -395.9207458496094 -14.03240966796875Q-381.48828125 -3.104217529296875 -377.4587097167969 13.045257568359375Q-366.6328887939453 11.7529296875 -362.2185592651367 4.8707427978515625Q-357.8042297363281 -2.011444091796875 -350.7730255126953 -5.1077880859375Z" fill="#000000" stroke="none" transform="scale(1,-1) translate(0,-256)" /><path d="M330.2298736125231 702.0419077128172Q325.02104319632053 716.7363475561142 311.0412975028157 723.1883397400379Q297.0615518093109 729.6403319239616 282.87381678819656 724.6111163496971Q268.6860817670822 719.5819007754326 262.1442821621895 705.8555074930191Q255.60248255729675 692.1291142106056 260.8113129734993 677.4346743673086Q265.8405285477638 663.2469393461943 279.5669218301773 656.7051397413015Q293.2933151125908 650.1633401364088 307.48105013370514 655.1925557106733Q321.6687851548195 660.2217712849379 328.46393717080355 674.0379719883204Q335.2590891867876 687.8541726917028 330.2298736125231 702.0419077128172Z" fill="#000000" stroke="none" transform="scale(1,-1) translate(0,-256)" /><path d="M255.79237361252308 597.7919077128172Q250.58354319632053 612.4863475561142 236.60379750281572 618.9383397400379Q222.6240518093109 625.3903319239616 208.43631678819656 620.3611163496971Q194.24858176708221 615.3319007754326 187.70678216218948 601.6055074930191Q181.16498255729675 587.8791142106056 186.3738129734993 573.1846743673086Q191.40302854776382 558.9969393461943 205.1294218301773 552.4551397413015Q218.8558151125908 545.9133401364088 233.04355013370514 550.9425557106733Q247.2312851548195 555.9717712849379 254.02643717080355 569.7879719883204Q260.8215891867876 583.6041726917028 255.79237361252308 597.7919077128172Z" fill="#000000" stroke="none" transform="scale(1,-1) translate(0,-256)" /><path d="M136.1284674690105 806.2300822143443Q117.45115613657981 824.4196750442497 91.71209132065997 823.7612948471215Q65.97302650474012 823.1029146499932 48.410661013796926 805.0696485359222Q30.848295522853732 787.0363824218512 31.184653110802174 761.6109312754124Q31.521010698750615 736.1854801289737 50.198322031181306 717.9958872990683Q68.23158814525232 700.4335218081251 93.65703929169104 700.7698793960735Q119.08249043812975 701.106236984022 136.64485592907295 719.139503098093Q154.20722142001614 737.172769212164 154.18447750154883 762.9202429677825Q154.1617335830815 788.6677167234011 136.1284674690105 806.2300822143443Z" fill="#000000" stroke="none" transform="scale(1,-1) translate(0,-256)" /><path d="M211.70544846588746 861.1790171903558Q192.48795113433152 879.8946902039461 166.00445998227224 879.2172683065291Q139.52096883021295 878.5398464091122 121.45066385157406 859.9850213993341Q103.38035887293518 841.4301963895559 103.72644460946321 815.2693892549723Q104.07253034599125 789.1085821203887 123.29002767754719 770.3929091067985Q141.84485268732533 752.3226041281596 168.00565982190892 752.6686898646876Q194.1664669564925 753.0147756012157 212.2367719351314 771.5696006109938Q230.3070769137703 790.124425620772 230.28367519471794 816.6165689162444Q230.2602734756656 843.1087122117169 211.70544846588746 861.1790171903558Z" fill="#000000" stroke="none" transform="scale(1,-1) translate(0,-256)" /><path d="M690.894946427783 247.0353282361757Q692.7330970386975 266.78614002023824 680.0390063712839 281.7067718548933Q667.3449157038704 296.6274036895484 648.2751663951203 298.4021697966382Q629.2054170863703 300.176935903728 614.3164775036275 287.8233764739707Q599.4275379208848 275.4698170442134 597.5893873099703 255.71900526015088Q595.8146212028805 236.64925595140085 608.1681806326378 221.7603163686581Q620.5217400623951 206.87137678591534 639.5914893711451 205.09661067882553Q658.6612386798952 203.3218445717357 673.8907095002942 215.6437117495807Q689.1201803206932 227.96557892742567 690.894946427783 247.0353282361757Z" fill="#000000" stroke="none" transform="scale(1,-1) translate(0,-256)" /><path d="M1090.1500241011381 104.22422447474673Q1101.9006824872922 123.35934676346369 1096.4780328598572 144.86248271830846Q1091.0553832324222 166.36561867315322 1072.5800927467644 177.7110819425434Q1054.1048022611067 189.05654521193355 1032.8042638646439 183.96381148602813Q1011.5037254681811 178.87107776012272 999.753067082027 159.73595547140576Q988.4076038126368 141.260664985748 993.5003375385422 119.96012658928521Q998.5930712644476 98.65958819282241 1017.0683617501054 87.31412492343225Q1035.5436522357631 75.96866165404208 1057.1741065337555 80.85879782156553Q1078.804560831748 85.74893398908898 1090.1500241011381 104.22422447474673Z" fill="#000000" stroke="none" transform="scale(1,-1) translate(0,-256)" /><path d="M811.9682280721609 223.88998110336252Q814.8686654684134 255.0549970518332 794.8385248125996 278.598420692957Q774.8083841567859 302.1418443340808 744.7180239306763 304.94226664770395Q714.6276637045667 307.7426889613271 691.1342476047575 288.24987616669387Q667.6408315049484 268.75706337206066 664.7403941086959 237.59204742358997Q661.9399717950728 207.50168719748035 681.432784589706 184.00827109767124Q700.9255973843392 160.51485499786213 731.0159576104488 157.714432684239Q761.1063178365584 154.91401037061587 785.1370617975481 174.35681562393438Q809.1678057585377 193.7996208772529 811.9682280721609 223.88998110336252Z" fill="#000000" stroke="none" transform="scale(1,-1) translate(0,-256)" /><path d="M936.5984640317038 245.39894148055464Q940.075888896361 282.7636511987075 916.0611284850165 310.99059616727754Q892.046368073672 339.21754113584757 855.9700966216624 342.57505479827523Q819.8938251696527 345.9325684607029 791.7268358021975 322.56202718243003Q763.5598464347422 299.19148590415716 760.082421570085 261.8267761860043Q756.7249079076573 225.7505047339946 780.0954491859302 197.58351536653936Q803.4659904642031 169.41652599908412 839.5422619162127 166.05901233665645Q875.6185333682224 162.7014986742288 904.4297418687493 186.01208435138687Q933.2409503692761 209.32267002854496 936.5984640317038 245.39894148055464Z" fill="#000000" stroke="none" transform="scale(1,-1) translate(0,-256)" /><path d="M1071.9626079481095 199.37075864337385Q1075.5432024858892 237.8440199587494 1050.8159622717649 266.9084135564044Q1026.0887220576406 295.9728071540594 988.9421249255538 299.4299329146743Q951.795527793467 302.88705867528915 922.7928685843945 278.82315055280924Q893.7902093753219 254.75924243032932 890.2096148375422 216.28598111495376Q886.7524890769273 179.139383982867 910.8163971994072 150.1367247737944Q934.8803053218871 121.13406556472182 972.0269024539739 117.67693980410695Q1009.1734995860606 114.21981404349208 1038.8394908867776 138.2219877773896Q1068.5054821874946 162.2241615112871 1071.9626079481095 199.37075864337385Z" fill="#000000" stroke="none" transform="scale(1,-1) translate(0,-256)" /><path d="M955.0640968754888 176.6532522365451Q971.2416724264622 204.28141493350267 963.0403465330601 234.6717352308333Q954.839020639658 265.0620555281639 928.3984505236149 280.5459394156933Q901.9578804075718 296.02982330322266 871.9148102402687 288.035835057497Q841.8717400729656 280.0418468117714 825.6941645219922 252.4136841148138Q810.074436403811 225.73821668326855 817.8036092594266 195.62439431250095Q825.5327821150422 165.51057194173336 851.9733522310853 150.026688054204Q878.4139223471284 134.5428041666746 908.929145552218 142.26029448583722Q939.4443687573075 149.97778480499983 955.0640968754888 176.6532522365451Z" fill="#000000" stroke="none" transform="scale(1,-1) translate(0,-256)" /><path d="M871.4530676703434 461.09646495594643Q873.66207143059 484.83207031921484 858.4069047153462 502.7629904692294Q843.1517380001023 520.693910619244 820.2346017872915 522.8267418360338Q797.3174655744806 524.9595730528235 779.4246316961944 510.1136409128085Q761.5317978179082 495.2677087727934 759.3227940576617 471.532103409525Q757.1899628408719 448.61496719671413 772.035894980887 430.72213331842795Q786.881827120902 412.82929944014177 809.7989633337129 410.696468223352Q832.7160995465238 408.5636370065622 851.0181680000387 423.3714828748489Q869.3202364535537 438.17932874313556 871.4530676703434 461.09646495594643Z" fill="#000000" stroke="none" transform="scale(1,-1) translate(0,-256)" /></svg>