<?xml version="1.0" encoding="utf-8" ?>
<svg baseProfile="full" height="256" version="1.1" width="256" xmlns="http://www.w3.org/2000/svg" xmlns:ev="http://www.w3.org/2001/xml-events" xmlns:xlink="http://www.w3.org/1999/xlink"><defs /><path d="M508 388Q511 390 531.0 388.5Q551 387 580.0 385.5Q609 384 640 383Q667 383 699.0 384.0Q731 385 755.0 385.0Q779 385 781 384Q784 382 786.5 377.0Q789 372 789 363Q789 351 785.0 345.0Q781 339 781 339Q781 339 740.0 338.0Q699 337 643 337Q590 337 551.5 339.0Q513 341 508 344Q503 347 499.0 353.5Q495 360 497 371Q498 379 500.5 382.5Q503 386 508 388Z" fill="#749b22" stroke="none" transform="scale(1,-1) translate(0,-256)" /></svg>