<?xml version="1.0" encoding="utf-8" ?>
<svg baseProfile="full" height="256" version="1.1" width="256" xmlns="http://www.w3.org/2000/svg" xmlns:ev="http://www.w3.org/2001/xml-events" xmlns:xlink="http://www.w3.org/1999/xlink"><defs /><path d="M451 463Q456 470 500.5 462.0Q545 454 633 450Q668 448 705.0 450.0Q742 452 773.0 454.5Q804 457 823.5 457.5Q843 458 843 453Q843 446 842.5 417.5Q842 389 841.5 350.0Q841 311 840 272Q840 244 839.0 202.5Q838 161 837.5 120.5Q837 80 836.5 53.0Q836 26 836 26Q836 26 811.0 16.0Q786 6 740.5 -4.5Q695 -15 633 -15Q571 -15 529.5 -0.5Q488 14 467.5 29.0Q447 44 447 44Q447 44 447.0 64.0Q447 84 447.0 112.5Q447 141 447.0 168.5Q447 196 447 212Q447 224 446.5 252.0Q446 280 446.0 314.5Q446 349 446.5 382.0Q447 415 448.0 437.5Q449 460 451 463Z" fill="#e5dda0" stroke="none" transform="scale(1,-1) translate(0,-256)" /></svg>