<?xml version="1.0" encoding="utf-8" ?>
<svg baseProfile="full" height="256" version="1.1" width="256" xmlns="http://www.w3.org/2000/svg" xmlns:ev="http://www.w3.org/2001/xml-events" xmlns:xlink="http://www.w3.org/1999/xlink"><defs /><path d="M843.3053588867188 824.2723541259766Q901.4832763671875 770.2221374511719 897.74853515625 689.3413696289062Q896.8779296875 649.8904571533203 889.9442443847656 629.6505813598633Q883.0105590820312 609.4107055664062 876.0623168945312 593.6086883544922Q870.1043701171875 580.7685241699219 864.6545104980469 565.4645233154297Q859.2046508789062 550.1605224609375 856.2919921875 523.5235290527344Q854.3340454101562 510.6964874267578 841.8502197265625 505.72452545166016Q829.3663940429688 500.7525634765625 795.3599243164062 502.6134033203125Q770.3534545898438 504.50376892089844 755.3081665039062 518.26123046875Q740.2628784179688 532.0186920166016 734.2192077636719 545.3125839233398Q728.175537109375 558.6064758300781 728.175537109375 558.6064758300781Q750.1399536132812 569.5267486572266 756.5671691894531 591.7373657226562Q762.994384765625 613.9479827880859 755.4329223632812 632.661003112793Q747.8714599609375 651.3740234375 727.8682250976562 652.2946014404297Q717.864990234375 653.2479858398438 710.8941040039062 644.3493041992188Q703.9232177734375 635.4506225585938 697.9620361328125 623.5966491699219L685.0493774414062 596.9268493652344Q685.0493774414062 596.9268493652344 680.5412902832031 599.3775634765625Q676.033203125 601.8282775878906 674.0234985351562 604.7802886962891Q662.9652709960938 622.4956359863281 660.4151306152344 637.7733917236328Q657.864990234375 653.0511474609375 651.7679443359375 682.6171875Q650.7453002929688 689.5172424316406 639.2129516601562 699.341423034668Q627.6806030273438 709.1656036376953 607.6903076171875 706.1414184570312Q538.7258911132812 695.0669555664062 505.74853515625 688.0553588867188Q472.77117919921875 681.0437622070312 461.74853515625 687.9110107421875Q457.7420654296875 689.8702697753906 449.6919250488281 705.1299819946289Q441.64178466796875 720.3896942138672 450.54473876953125 750.0049438476562Q463.40887451171875 791.4676055908203 496.8150634765625 820.1770401000977Q530.2212524414062 848.886474609375 572.1694946289062 864.8033142089844Q614.1177368164062 880.7201538085938 652.1047973632812 884.7895812988281Q704.0918579101562 888.9049377441406 756.6452331542969 872.8050231933594Q809.1986083984375 856.7051086425781 843.3053588867188 824.2723541259766Z" fill="#000000" stroke="none" transform="scale(1,-1) translate(0,-256)" /><path d="M376.281005859375 -212.0Q376.281005859375 -212.0 366.781005859375 -200.0Q357.281005859375 -188.0 346.781005859375 -164.5Q336.281005859375 -141.0 335.281005859375 -109.0Q331.281005859375 -51.0 349.781005859375 -9.5Q368.281005859375 32.0 401.781005859375 62.5Q435.281005859375 93.0 478.281005859375 120.0Q488.281005859375 126.0 494.281005859375 131.5Q500.281005859375 137.0 498.281005859375 149.0Q494.281005859375 176.0 499.281005859375 200.5Q504.281005859375 225.0 527.281005859375 251.0Q550.281005859375 277.0 599.281005859375 308.0Q635.281005859375 330.0 662.781005859375 351.5Q690.281005859375 373.0 722.281005859375 388.0Q754.281005859375 403.0 803.281005859375 405.0Q842.281005859375 406.0 873.281005859375 378.0Q904.281005859375 350.0 922.281005859375 303.5Q940.281005859375 257.0 940.281005859375 202.0Q940.281005859375 146.0 935.281005859375 108.5Q930.281005859375 71.0 923.281005859375 43.0Q916.281005859375 15.0 909.781005859375 -12.0Q903.281005859375 -39.0 900.281005859375 -75.0Q897.281005859375 -107.0 901.281005859375 -138.5Q905.281005859375 -170.0 910.281005859375 -191.0Q915.281005859375 -212.0 915.281005859375 -212.0Z" fill="#000000" stroke="none" transform="scale(1,-1) translate(0,-256)" /><path d="M865 285Q872 268 877.0 233.5Q882 199 885.0 156.0Q888 113 889.5 71.5Q891 30 891.0 -1.0Q891 -32 890 -44Q888 -66 881.0 -90.5Q874 -115 839 -128Q824 -133 787.0 -138.5Q750 -144 704.0 -149.0Q658 -154 612.5 -158.5Q567 -163 533.0 -166.0Q499 -169 489 -170Q479 -171 458.0 -170.0Q437 -169 411 -159Q400 -155 391.0 -149.5Q382 -144 382 -144Q366 -135 369 -125Q370 -122 373.0 -121.0Q376 -120 376 -120Q376 -120 371.5 -116.5Q367 -113 364 -109Q357 -100 358 -94Q359 -87 363.0 -86.5Q367 -86 367 -86Q366 -86 361.0 -81.5Q356 -77 356 -68Q357 -61 364 -60Q368 -60 370.0 -60.5Q372 -61 373 -61Q376 -63 379 -65Q379 -65 378.5 -65.0Q378 -65 378 -64Q375 -62 373.5 -58.5Q372 -55 374 -50Q376 -44 382.5 -45.0Q389 -46 394 -47Q402 -49 408.5 -50.5Q415 -52 426 -53Q453 -57 482 -53Q482 -43 471 -35Q467 -32 462.0 -29.5Q457 -27 453 -23Q443 -13 449 -4Q450 -1 452 0Q455 1 461 -2Q469 -6 477.0 -10.0Q485 -14 494 -18Q499 -20 503.5 -22.5Q508 -25 513 -29Q519 -33 523.5 -38.5Q528 -44 532 -50Q536 -54 539.5 -61.0Q543 -68 551 -71Q555 -74 576.0 -73.0Q597 -72 611 -70Q650 -65 683.0 -54.0Q716 -43 736.5 -33.0Q757 -23 757 -23Q757 -23 754.5 -2.0Q752 19 748.0 52.0Q744 85 741.0 122.0Q738 159 737.0 190.5Q736 222 738 240Q742 267 758.5 285.0Q775 303 796.0 310.0Q817 317 836.0 311.5Q855 306 865 285Z" fill="#000000" stroke="none" transform="scale(1,-1) translate(0,-256)" /></svg>