<?xml version="1.0" encoding="utf-8" ?>
<svg baseProfile="full" height="256" version="1.1" width="256" xmlns="http://www.w3.org/2000/svg" xmlns:ev="http://www.w3.org/2001/xml-events" xmlns:xlink="http://www.w3.org/1999/xlink"><defs /><path d="M884 636Q882 630 876.5 615.0Q871 600 865.0 584.0Q859 568 857 561Q841 507 845.0 467.0Q849 427 859.0 404.5Q869 382 869 382L702 361Q702 361 701.0 370.5Q700 380 697.5 390.0Q695 400 691 401Q684 402 671.5 398.0Q659 394 640 391Q603 386 583.0 393.0Q563 400 552.5 415.5Q542 431 533 453Q531 457 528.5 462.5Q526 468 523 469Q521 471 510.0 473.0Q499 475 489.0 479.5Q479 484 479 494Q478 506 486.5 519.5Q495 533 502.5 546.0Q510 559 507 571Q494 596 486.0 618.0Q478 640 475 673Q470 738 499.5 791.5Q529 845 595 868Q638 884 685.5 886.0Q733 888 776 870Q814 854 843.0 816.5Q872 779 883.5 731.0Q895 683 884 636Z" fill="#ffca28" stroke="none" transform="scale(1,-1) translate(0,-256)" /></svg>