<?xml version="1.0" encoding="utf-8" ?>
<svg baseProfile="full" height="256" version="1.1" width="256" xmlns="http://www.w3.org/2000/svg" xmlns:ev="http://www.w3.org/2001/xml-events" xmlns:xlink="http://www.w3.org/1999/xlink"><defs /><path d="M444 -80Q440 -80 431.0 -78.5Q422 -77 412 -75Q403 -73 393.5 -69.5Q384 -66 376 -62Q376 -62 375.5 -62.5Q375 -63 377 -65Q383 -70 393.0 -75.0Q403 -80 414 -83Q423 -85 435.0 -87.0Q447 -89 449 -87Q452 -83 450.0 -81.5Q448 -80 444 -80Z" fill="#eda600" stroke="none" transform="scale(1,-1) translate(0,-256)" /><path d="M446.281005859375 -117.0Q446.281005859375 -114.0 443.281005859375 -113.0Q440.281005859375 -112.0 439.281005859375 -112.0Q416.281005859375 -109.0 395.281005859375 -101.0Q386.281005859375 -98.0 374.781005859375 -91.0Q363.281005859375 -84.0 363.281005859375 -84.0Q363.281005859375 -84.0 367.781005859375 -91.5Q372.281005859375 -99.0 393.281005859375 -108.0Q402.281005859375 -113.0 413.781005859375 -116.5Q425.281005859375 -120.0 437.281005859375 -121.0Q439.281005859375 -121.0 442.281005859375 -121.0Q445.281005859375 -121.0 446.281005859375 -117.0Z" fill="#eda600" stroke="none" transform="scale(1,-1) translate(0,-256)" /><path d="M446.281005859375 -146.0Q446.281005859375 -142.0 442.781005859375 -141.0Q439.281005859375 -140.0 437.281005859375 -140.0Q427.281005859375 -138.0 416.281005859375 -135.0Q405.281005859375 -132.0 399.281005859375 -130.0Q392.281005859375 -128.0 380.781005859375 -121.5Q369.281005859375 -115.0 369.281005859375 -115.0Q369.281005859375 -115.0 376.781005859375 -123.0Q384.281005859375 -131.0 398.281005859375 -137.0Q412.281005859375 -144.0 423.781005859375 -146.5Q435.281005859375 -149.0 435.281005859375 -149.0Q439.281005859375 -149.0 442.781005859375 -149.0Q446.281005859375 -149.0 446.281005859375 -146.0Z" fill="#eda600" stroke="none" transform="scale(1,-1) translate(0,-256)" /></svg>