<?xml version="1.0" encoding="utf-8" ?>
<svg baseProfile="full" height="256" version="1.1" width="256" xmlns="http://www.w3.org/2000/svg" xmlns:ev="http://www.w3.org/2001/xml-events" xmlns:xlink="http://www.w3.org/1999/xlink"><defs /><path d="M216 604Q221 608 231.0 609.5Q241 611 248 604Q254 598 254.5 587.5Q255 577 250 572Q246 566 235.5 563.5Q225 561 217 567Q208 574 208.0 585.0Q208 596 216 604Z" fill="#ffffff" stroke="none" transform="scale(1,-1) translate(0,-256)" /><path d="M422 616Q426 620 433.5 620.5Q441 621 446 617Q451 611 451.0 603.5Q451 596 448 592Q444 587 437.0 586.5Q430 586 424 589Q419 593 417.5 601.0Q416 609 422 616Z" fill="#ffffff" stroke="none" transform="scale(1,-1) translate(0,-256)" /><path d="M558 839Q558 839 549.5 839.0Q541 839 532.0 837.5Q523 836 521 832Q521 830 527.5 823.5Q534 817 541.0 811.5Q548 806 548 806Q548 806 545.5 797.5Q543 789 541.0 779.5Q539 770 542 767Q545 765 554.0 769.0Q563 773 570.5 778.0Q578 783 578 783Q578 783 585.5 779.0Q593 775 601.5 771.5Q610 768 612 770Q614 772 612.5 781.0Q611 790 609.5 798.0Q608 806 608 806Q608 806 614.0 811.5Q620 817 625.5 823.5Q631 830 629 834Q628 836 619.0 837.0Q610 838 601.5 838.5Q593 839 593 839Q593 839 590.5 847.0Q588 855 584.0 863.5Q580 872 576 872Q573 871 569.0 863.0Q565 855 561.5 847.0Q558 839 558 839Z" fill="#ffffff" stroke="none" transform="scale(1,-1) translate(0,-256)" /><path d="M947 56Q942 59 938.5 67.5Q935 76 939 83Q943 89 951.5 92.0Q960 95 966 93Q972 90 976.5 82.0Q981 74 978 66Q974 57 964.5 54.5Q955 52 947 56Z" fill="#ffffff" stroke="none" transform="scale(1,-1) translate(0,-256)" /><path d="M1108 333Q1111 328 1110.0 320.0Q1109 312 1103 308Q1097 304 1089.0 305.5Q1081 307 1077 311Q1073 316 1072.5 324.0Q1072 332 1079 338Q1085 344 1094.0 342.0Q1103 340 1108 333Z" fill="#ffffff" stroke="none" transform="scale(1,-1) translate(0,-256)" /></svg>