<?xml version="1.0" encoding="utf-8" ?>
<svg baseProfile="full" height="256" version="1.1" width="256" xmlns="http://www.w3.org/2000/svg" xmlns:ev="http://www.w3.org/2001/xml-events" xmlns:xlink="http://www.w3.org/1999/xlink"><defs /><path d="M506 229Q506 229 490.5 216.0Q475 203 450.0 182.0Q425 161 397.0 137.0Q369 113 343.5 90.5Q318 68 301.0 52.5Q284 37 281 33Q277 25 269.0 10.0Q261 -5 256.5 -19.0Q252 -33 256 -38Q262 -45 274.0 -51.5Q286 -58 289 -58Q293 -59 313.0 -43.5Q333 -28 360.0 -5.0Q387 18 411 42Q435 65 461.5 94.5Q488 124 511.5 152.0Q535 180 548 200Q569 230 572.0 253.5Q575 277 571 282Q568 284 558.0 276.5Q548 269 536.0 258.0Q524 247 515.0 238.0Q506 229 506 229Z" fill="#a02524" stroke="none" transform="scale(1,-1) translate(0,-256)" /></svg>