<?xml version="1.0" encoding="utf-8" ?>
<svg baseProfile="full" height="256" version="1.1" width="256" xmlns="http://www.w3.org/2000/svg" xmlns:ev="http://www.w3.org/2001/xml-events" xmlns:xlink="http://www.w3.org/1999/xlink"><defs /><path d="M1014 558 1059 569 1156 756Q1156 756 1163.0 774.0Q1170 792 1178.0 817.5Q1186 843 1187.5 865.5Q1189 888 1177 896Q1161 908 1128.0 908.0Q1095 908 1055.0 899.5Q1015 891 980 877Q901 846 865.0 822.5Q829 799 829 799Q829 799 830.0 783.0Q831 767 841.5 737.5Q852 708 880 669Q908 630 939.0 605.5Q970 581 992.0 569.5Q1014 558 1014 558Z" fill="#d83f22" stroke="none" transform="scale(1,-1) translate(0,-256)" /></svg>