<?xml version="1.0" encoding="utf-8" ?>
<svg baseProfile="full" height="256" version="1.1" width="256" xmlns="http://www.w3.org/2000/svg" xmlns:ev="http://www.w3.org/2001/xml-events" xmlns:xlink="http://www.w3.org/1999/xlink"><defs /><path d="M675 197Q675 197 687.5 190.0Q700 183 715 176Q729 170 744.0 164.0Q759 158 759 158L806 198Q806 198 791.5 202.0Q777 206 764 213Q750 219 735.5 226.0Q721 233 721 233L688 237Z" fill="#3f545f" stroke="none" transform="scale(1,-1) translate(0,-256)" /><path d="M744 557Q770 584 803.5 581.5Q837 579 860 556Q880 535 880.0 501.5Q880 468 858 446Q836 424 806.0 422.5Q776 421 751 439Q733 453 726.0 475.0Q719 497 723.5 519.5Q728 542 744 557Z" fill="#3f545f" stroke="none" transform="scale(1,-1) translate(0,-256)" /></svg>