<?xml version="1.0" encoding="utf-8" ?>
<svg baseProfile="full" height="256" version="1.1" width="256" xmlns="http://www.w3.org/2000/svg" xmlns:ev="http://www.w3.org/2001/xml-events" xmlns:xlink="http://www.w3.org/1999/xlink"><defs /><path d="M334 194 487 96Q487 96 492.0 82.5Q497 69 497.5 46.0Q498 23 486.0 -8.0Q474 -39 440 -74Q409 -106 376.0 -123.5Q343 -141 314.5 -147.5Q286 -154 268.0 -153.0Q250 -152 250 -148Q250 -144 253.5 -140.5Q257 -137 259 -134Q264 -127 265.5 -123.5Q267 -120 267 -120Q267 -120 244.0 -127.0Q221 -134 190 -138Q159 -142 136.0 -141.5Q113 -141 107 -131Q101 -121 113.0 -113.0Q125 -105 132 -84Q137 -69 147.5 -32.5Q158 4 176.0 47.0Q194 90 221 124Q250 161 276.0 175.5Q302 190 318.0 192.0Q334 194 334 194Z" fill="#f7d74d" stroke="none" transform="scale(1,-1) translate(0,-256)" /></svg>