<?xml version="1.0" encoding="utf-8" ?>
<svg baseProfile="full" height="256" version="1.1" width="256" xmlns="http://www.w3.org/2000/svg" xmlns:ev="http://www.w3.org/2001/xml-events" xmlns:xlink="http://www.w3.org/1999/xlink"><defs /><path d="M197 481Q184 481 168 473Q157 467 152.5 456.0Q148 445 146 440Q146 434 147.0 416.5Q148 399 154.5 377.0Q161 355 177 337Q204 306 254 304Q263 304 274 304Q338 304 375.0 318.5Q412 333 426 342L402 424Q385 423 361.0 421.5Q337 420 325 420Q304 420 278.5 433.0Q253 446 228 468Q213 481 197 481ZM197 502Q208 502 219.0 498.0Q230 494 242 484Q289 441 325 441Q336 441 358.0 442.0Q380 443 398.5 444.5Q417 446 417 446L450 335Q450 335 432.5 322.0Q415 309 376.0 296.0Q337 283 274 283Q265 283 253 283Q211 285 185.5 302.0Q160 319 147.0 342.5Q134 366 130.0 389.0Q126 412 126.0 427.5Q126 443 126 443Q127 447 133.5 464.5Q140 482 158 491Q167 496 177.0 499.0Q187 502 197 502Z" fill="#90a4ae" stroke="none" transform="scale(1,-1) translate(0,-256)" /></svg>