<?xml version="1.0" encoding="utf-8" ?>
<svg baseProfile="full" height="256" version="1.1" width="256" xmlns="http://www.w3.org/2000/svg" xmlns:ev="http://www.w3.org/2001/xml-events" xmlns:xlink="http://www.w3.org/1999/xlink"><defs /><path d="M716 120Q732 120 747.5 127.5Q763 135 779 152Q802 178 833.0 205.5Q864 233 902 235Q893 243 880.5 244.5Q868 246 856 243Q844 240 833.5 233.5Q823 227 814 219Q795 204 777.0 186.5Q759 169 738 157Q720 147 700.0 153.5Q680 160 664 170Q652 177 625.5 194.0Q599 211 566.5 232.0Q534 253 503.5 272.5Q473 292 453.5 305.0Q434 318 433 319L420 327L412 314Q408 308 396.0 295.0Q384 282 370 276Q361 273 353.5 273.0Q346 273 337 274Q326 275 312.0 275.0Q298 275 281 266Q268 259 256.0 249.5Q244 240 228.5 232.5Q213 225 188 224Q163 223 141.5 233.5Q120 244 103 256Q104 249 114.0 233.0Q124 217 158 204Q173 198 197.5 198.0Q222 198 238 205Q253 213 266.5 222.0Q280 231 295 238Q306 244 315.0 244.0Q324 244 334 243Q344 242 356.0 242.0Q368 242 382 248Q396 254 408.5 265.0Q421 276 428 285Q444 274 475.0 254.0Q506 234 541.0 211.0Q576 188 605.5 169.0Q635 150 649 143Q665 133 682.0 126.5Q699 120 716 120Z" fill="#004a7c" stroke="none" transform="scale(1,-1) translate(0,-256)" /></svg>