<?xml version="1.0" encoding="utf-8" ?>
<svg baseProfile="full" height="256" version="1.1" width="256" xmlns="http://www.w3.org/2000/svg" xmlns:ev="http://www.w3.org/2001/xml-events" xmlns:xlink="http://www.w3.org/1999/xlink"><defs /><path d="M610 245Q606 229 621 225Q636 221 640 236Q651 274 696 336Q707 352 712 360Q721 373 708 382Q701 386 696 385Q690 384 686 377Q681 370 670 355Q622 288 610 245Z" fill="#9e9e9e" stroke="none" transform="scale(1,-1) translate(0,-256)" /><path d="M537 289Q537 282 541 278Q545 274 553 274Q569 274 569 289Q569 319 594 364Q614 401 624 410Q636 421 625 432Q620 438 614 438Q609 439 603 433Q589 420 566 380Q537 327 537 289Z" fill="#9e9e9e" stroke="none" transform="scale(1,-1) translate(0,-256)" /><path d="M691 211Q686 196 701 191Q716 186 721 201Q737 248 783 315Q792 327 779 336Q766 345 757 332Q709 263 691 211Z" fill="#9e9e9e" stroke="none" transform="scale(1,-1) translate(0,-256)" /></svg>