<?xml version="1.0" encoding="utf-8" ?>
<svg baseProfile="full" height="256" version="1.1" width="256" xmlns="http://www.w3.org/2000/svg" xmlns:ev="http://www.w3.org/2001/xml-events" xmlns:xlink="http://www.w3.org/1999/xlink"><defs /><path d="M867 -188Q850 -182 836.0 -164.5Q822 -147 822 -128Q821 -114 828.5 -106.0Q836 -98 846.0 -91.5Q856 -85 862 -75Q869 -62 865.0 -47.0Q861 -32 859 -17Q857 -1 863 10Q869 22 881.5 30.0Q894 38 900 50Q906 61 904.5 73.0Q903 85 900 96Q896 107 899.5 114.5Q903 122 907 132Q911 144 913.5 151.0Q916 158 920 169H1072L962 -150Q953 -176 928.0 -188.0Q903 -200 876 -191Q876 -191 871.5 -189.5Q867 -188 867 -188Z" fill="#f44336" stroke="none" transform="scale(1,-1) translate(0,-256)" /><path d="M916 401Q916 335 898.0 273.0Q880 211 849 154Q849 154 849.5 154.0Q850 154 851 154Q936 157 993.5 157.5Q1051 158 1066 158Q1097 158 1128.0 186.5Q1159 215 1179.5 269.0Q1200 323 1200 401Q1200 479 1177.0 537.5Q1154 596 1121.0 628.5Q1088 661 1057 661Q1053 661 1024.5 660.0Q996 659 951.0 658.0Q906 657 851 658Q878 606 897.0 537.0Q916 468 916 401Z" fill="#f44336" stroke="none" transform="scale(1,-1) translate(0,-256)" /></svg>