<?xml version="1.0" encoding="utf-8" ?>
<svg baseProfile="full" height="256" version="1.1" width="256" xmlns="http://www.w3.org/2000/svg" xmlns:ev="http://www.w3.org/2001/xml-events" xmlns:xlink="http://www.w3.org/1999/xlink"><defs /><path d="M232 764Q216 779 235 795Q245 803 260.5 805.0Q276 807 287 801Q290 799 309.0 785.5Q328 772 355.0 752.0Q382 732 412.0 710.0Q442 688 469.0 668.0Q496 648 514.5 634.0Q533 620 537 618Q547 611 554.0 596.5Q561 582 548 567Q540 556 529.5 556.5Q519 557 511.5 561.0Q504 565 504 565Q504 565 485.5 578.5Q467 592 437.0 613.5Q407 635 373.0 660.0Q339 685 308.0 707.5Q277 730 256.0 745.5Q235 761 232 764Z" fill="#ffffff" stroke="none" transform="scale(1,-1) translate(0,-256)" /><path d="M727 556Q707 546 699 569Q695 581 698.0 596.5Q701 612 711 620Q715 623 732.5 636.5Q750 650 773.5 668.5Q797 687 821.0 705.0Q845 723 863.0 736.5Q881 750 885 753Q895 760 911.0 761.5Q927 763 937 746Q944 734 940.0 724.5Q936 715 929.5 709.5Q923 704 923 704Q923 704 905.0 690.0Q887 676 859.0 654.5Q831 633 802.5 611.5Q774 590 753.0 574.5Q732 559 727 556Z" fill="#ffffff" stroke="none" transform="scale(1,-1) translate(0,-256)" /><path d="M1011.6442108154297 790.9034423828125Q1011.6442108154297 797.2825927734375 1009.2520294189453 802.891845703125Q1006.8598480224609 808.5010986328125 1002.5979156494141 812.7630310058594Q998.3359832763672 817.0249633789062 992.7267303466797 819.4446411132812Q987.1174774169922 821.8643188476562 980.7383270263672 821.8643188476562Q974.3041839599609 821.8643188476562 968.6949310302734 819.4446411132812Q963.0856781005859 817.0249633789062 958.8237457275391 812.7630310058594Q954.5618133544922 808.5010986328125 952.1696319580078 802.891845703125Q949.7774505615234 797.2825927734375 949.7774505615234 790.9034423828125Q949.7774505615234 784.5242919921875 952.1696319580078 778.9150390625Q954.5618133544922 773.3057861328125 958.8237457275391 769.0438537597656Q963.0856781005859 764.7819213867188 968.6949310302734 762.3897399902344Q974.3041839599609 759.99755859375 980.7383270263672 759.99755859375Q987.1174774169922 759.99755859375 992.7267303466797 762.3897399902344Q998.3359832763672 764.7819213867188 1002.5979156494141 769.0438537597656Q1006.8598480224609 773.3057861328125 1009.2520294189453 778.9150390625Q1011.6442108154297 784.5242919921875 1011.6442108154297 790.9034423828125Z" fill="#ffffff" stroke="none" transform="scale(1,-1) translate(0,-256)" /></svg>