<?xml version="1.0" encoding="utf-8" ?>
<svg baseProfile="full" height="256" version="1.1" width="256" xmlns="http://www.w3.org/2000/svg" xmlns:ev="http://www.w3.org/2001/xml-events" xmlns:xlink="http://www.w3.org/1999/xlink"><defs /><path d="M483 642Q483 642 483.0 646.5Q483 651 483 653Q483 667 497 668Q524 670 549.0 679.5Q574 689 596 704Q626 724 663 724Q699 724 729 704Q751 689 776.0 679.5Q801 670 828 668Q842 667 842 653Q842 650 842.0 644.5Q842 639 842 639Q837 649 827.0 650.0Q817 651 813 651Q779 655 756.0 667.0Q733 679 719 688Q693 705 663 705Q632 705 606 688Q577 669 546 659Q538 656 530.0 654.0Q522 652 514 651Q498 650 490.5 646.0Q483 642 483 642Z" fill="#ffecb3" stroke="none" transform="scale(1,-1) translate(0,-256)" /></svg>