<?xml version="1.0" encoding="utf-8" ?>
<svg baseProfile="full" height="256" version="1.1" width="256" xmlns="http://www.w3.org/2000/svg" xmlns:ev="http://www.w3.org/2001/xml-events" xmlns:xlink="http://www.w3.org/1999/xlink"><defs /><path d="M1074.0558260621037 518.1227595158853Q1067.9278502368834 612.1958193848841 1027.2620602500392 692.617243162822Q986.596270263195 773.0386669407599 919.6516127950745 831.7950808493188Q852.7069553269539 890.5514947578777 767.6631359911989 920.8459869998042Q682.619316655444 951.1404792417306 588.5462567864452 945.0125034165103Q493.66222226340324 938.8317002134863 413.26721217436716 897.7604228996206Q332.8722020853311 856.6891455857549 274.1157881767722 789.7444881176343Q215.3593742682133 722.7998306495138 185.47036935330834 637.7824250026606Q155.5813644384034 552.7650193558075 161.70934026362374 458.6919594868086Q167.8373160888441 364.6188996178098 208.50310607568827 284.1974758398719Q249.16889606253244 203.77605206193402 316.113553530653 145.01963815337513Q383.0582109987736 86.26322424481623 468.0756166456267 56.374219329911284Q553.0930222924799 26.48521441500634 647.9770568155218 32.66601761803031Q742.0501166845206 38.793993443250656 822.4715404624585 79.45978343009483Q902.8929642403964 120.125573416939 961.6493781489553 187.07023088505957Q1020.4057920575142 254.01488835318014 1050.2947969724191 339.0322940000333Q1080.183801887324 424.04969964688644 1074.0558260621037 518.1227595158853Z" fill="#000000" stroke="none" transform="scale(1,-1) translate(0,-256)" /><path d="M1094.6121368408203 455.3860321044922Q1094.6121368408203 549.6590423583984 1059.2597579956055 632.5542755126953Q1023.9073791503906 715.4495086669922 960.9232559204102 778.4336318969727Q897.9391326904297 841.4177551269531 815.0438995361328 877.1764831542969Q732.1486663818359 912.9352111816406 637.8756561279297 912.9352111816406Q542.7899475097656 912.9352111816406 459.89471435546875 877.1764831542969Q376.9994812011719 841.4177551269531 314.0153579711914 778.4336318969727Q251.03123474121094 715.4495086669922 215.6788558959961 632.5542755126953Q180.32647705078125 549.6590423583984 180.32647705078125 455.3860321044922Q180.32647705078125 361.11302185058594 215.6788558959961 278.21778869628906Q251.03123474121094 195.3225555419922 314.0153579711914 132.33843231201172Q376.9994812011719 69.35430908203125 459.89471435546875 34.001930236816406Q542.7899475097656 -1.3504486083984375 637.8756561279297 -1.3504486083984375Q732.1486663818359 -1.3504486083984375 815.0438995361328 34.001930236816406Q897.9391326904297 69.35430908203125 960.9232559204102 132.33843231201172Q1023.9073791503906 195.3225555419922 1059.2597579956055 278.21778869628906Q1094.6121368408203 361.11302185058594 1094.6121368408203 455.3860321044922Z" fill="#000000" stroke="none" transform="scale(1,-1) translate(0,-256)" /><path d="M468 740Q422 744 384.0 726.5Q346 709 317.0 680.5Q288 652 268.5 623.0Q249 594 239.0 574.0Q229 554 229 554Q229 554 230.0 571.5Q231 589 240.0 619.5Q249 650 274.0 690.5Q299 731 348 776Q455 876 600 894Q669 902 727.5 889.0Q786 876 831.5 850.0Q877 824 907.5 791.5Q938 759 951.5 727.5Q965 696 959 673Q950 639 930.0 621.0Q910 603 884.0 594.0Q858 585 829.0 580.0Q800 575 773 567Q753 562 735.0 552.0Q717 542 708 525Q684 481 707.5 441.5Q731 402 779 365Q786 359 805.0 347.0Q824 335 844.5 319.0Q865 303 876 284Q898 247 894.0 209.5Q890 172 869.0 141.0Q848 110 822 92Q781 64 737.5 52.0Q694 40 654.0 39.5Q614 39 583.0 44.0Q552 49 533.5 54.0Q515 59 515 59Q515 59 531.0 62.5Q547 66 571.0 73.0Q595 80 620.0 92.0Q645 104 662.5 121.5Q680 139 683.5 163.0Q687 187 669 218Q659 234 636.0 247.5Q613 261 587.5 271.0Q562 281 544 287Q531 291 510.5 300.0Q490 309 468.0 323.5Q446 338 429.5 359.5Q413 381 409.5 410.0Q406 439 422 476Q436 509 469.5 546.0Q503 583 534 623Q558 654 557.0 675.5Q556 697 540.5 711.0Q525 725 504.5 732.0Q484 739 468 740Z" fill="#000000" stroke="none" transform="scale(1,-1) translate(0,-256)" /><path d="M973 723Q993 694 1011.0 652.5Q1029 611 1025 569Q1021 524 1000.0 497.0Q979 470 953.0 455.5Q927 441 905.5 433.0Q884 425 877 417Q860 396 865.0 378.5Q870 361 885.5 345.5Q901 330 918.0 314.0Q935 298 943 280Q958 242 944.5 206.5Q931 171 901.0 141.5Q871 112 837.0 92.5Q803 73 778 67Q778 67 792.0 81.5Q806 96 819.5 122.0Q833 148 830 184Q829 212 810.5 238.5Q792 265 764.5 288.0Q737 311 707.5 330.5Q678 350 652.5 365.0Q627 380 613 389Q578 411 570.0 446.0Q562 481 573 516Q582 546 602.5 571.0Q623 596 648.5 617.5Q674 639 698.5 661.0Q723 683 741 708Q761 736 767.5 768.5Q774 801 754.0 834.5Q734 868 674 897Q674 897 701.5 893.5Q729 890 769.5 878.5Q810 867 848 841Q883 816 915.5 787.5Q948 759 973 723Z" fill="#000000" stroke="none" transform="scale(1,-1) translate(0,-256)" /><path d="M269 372Q269 372 276.0 397.5Q283 423 298.5 461.0Q314 499 339.5 539.0Q365 579 403 608Q441 638 470.0 657.5Q499 677 518.0 696.0Q537 715 545 745Q551 767 536.5 785.0Q522 803 492.5 807.0Q463 811 424.0 792.0Q385 773 341 722Q299 671 279.5 621.0Q260 571 255.0 526.0Q250 481 254.0 446.5Q258 412 263.5 392.0Q269 372 269 372Z" fill="#000000" stroke="none" transform="scale(1,-1) translate(0,-256)" /><path d="M909 624 954 604 908 585Q894 578 884.5 568.5Q875 559 870 544L843 455L816 544Q811 559 801.0 568.5Q791 578 778 585L731 604L776 624Q790 631 800.5 640.0Q811 649 816 664L843 754L870 664Q874 649 884.5 640.0Q895 631 909 624Z" fill="#000000" stroke="none" transform="scale(1,-1) translate(0,-256)" /><path d="M818.531005859375 299.625 863.531005859375 279.625 817.531005859375 260.625Q803.531005859375 253.625 794.031005859375 244.125Q784.531005859375 234.625 779.531005859375 219.625L752.531005859375 130.625L725.531005859375 219.625Q720.531005859375 234.625 710.531005859375 244.125Q700.531005859375 253.625 687.531005859375 260.625L640.531005859375 279.625L685.531005859375 299.625Q699.531005859375 306.625 710.031005859375 315.625Q720.531005859375 324.625 725.531005859375 339.625L752.531005859375 429.625L779.531005859375 339.625Q783.531005859375 324.625 794.031005859375 315.625Q804.531005859375 306.625 818.531005859375 299.625Z" fill="#000000" stroke="none" transform="scale(1,-1) translate(0,-256)" /></svg>