<?xml version="1.0" encoding="utf-8" ?>
<svg baseProfile="full" height="256" version="1.1" width="256" xmlns="http://www.w3.org/2000/svg" xmlns:ev="http://www.w3.org/2001/xml-events" xmlns:xlink="http://www.w3.org/1999/xlink"><defs /><path d="M77 149 98 112 494 100 445 342Q445 342 439.0 345.0Q433 348 428 351Q423 353 417.0 353.5Q411 354 411 346Q411 343 411.0 326.0Q411 309 410.5 285.5Q410 262 410.0 239.0Q410 216 409.5 200.5Q409 185 409 185L212 175L111 336Q111 336 104.0 340.0Q97 344 92 346Q86 348 81.5 346.5Q77 345 77 338Q77 335 77.0 315.0Q77 295 77.0 267.5Q77 240 77.0 212.5Q77 185 77.0 167.0Q77 149 77 149Z" fill="#848486" stroke="none" transform="scale(1,-1) translate(0,-256)" /><path d="M790 -171 776 -211Q776 -211 804.5 -211.0Q833 -211 877.5 -211.0Q922 -211 972.5 -211.0Q1023 -211 1069.0 -211.0Q1115 -211 1145.5 -211.0Q1176 -211 1180 -211Q1191 -211 1194.0 -207.5Q1197 -204 1197 -198Q1198 -193 1198.0 -181.0Q1198 -169 1198 -169H1126Q1126 -169 1126.0 -142.0Q1126 -115 1126.0 -74.5Q1126 -34 1126.0 7.5Q1126 49 1126.0 80.0Q1126 111 1126 117Q1126 133 1120.5 138.5Q1115 144 1107 144Q1104 144 1083.0 144.0Q1062 144 1032.5 144.0Q1003 144 973.5 144.0Q944 144 922.5 144.0Q901 144 896 144Q877 144 877 125Q877 122 877.0 99.5Q877 77 877.0 43.0Q877 9 877.0 -28.0Q877 -65 877.0 -97.5Q877 -130 877.0 -150.5Q877 -171 877 -171Z" fill="#848486" stroke="none" transform="scale(1,-1) translate(0,-256)" /><path d="M777 748Q778 749 812.0 749.5Q846 750 898.0 750.0Q950 750 1006 750Q1058 751 1105.0 750.5Q1152 750 1181.5 750.0Q1211 750 1212 749Q1214 747 1214.5 734.5Q1215 722 1214.5 710.0Q1214 698 1213 696Q1212 695 1180.5 694.5Q1149 694 1100.0 694.0Q1051 694 996.0 694.5Q941 695 891.5 695.5Q842 696 810.5 696.0Q779 696 778 696Q776 696 775.5 708.5Q775 721 775.0 734.0Q775 747 777 748Z" fill="#848486" stroke="none" transform="scale(1,-1) translate(0,-256)" /></svg>