<?xml version="1.0" encoding="utf-8" ?>
<svg baseProfile="full" height="256" version="1.1" width="256" xmlns="http://www.w3.org/2000/svg" xmlns:ev="http://www.w3.org/2001/xml-events" xmlns:xlink="http://www.w3.org/1999/xlink"><defs /><path d="M192 40Q192 49 196.5 52.0Q201 55 205 55Q208 56 226.5 55.5Q245 55 265.0 55.0Q285 55 291 55Q300 55 303.5 50.5Q307 46 307 40Q307 37 307.0 19.5Q307 2 307.0 -15.5Q307 -33 308 -38Q308 -44 306.5 -51.5Q305 -59 297 -59Q294 -60 275.0 -60.0Q256 -60 236.0 -60.0Q216 -60 210 -60Q193 -59 193 -44Q193 -41 193.0 -21.5Q193 -2 193.0 17.0Q193 36 192 40Z" fill="#f1ebee" stroke="none" transform="scale(1,-1) translate(0,-256)" /><path d="M569 54Q574 54 592.0 54.0Q610 54 628.5 54.0Q647 54 653 54Q670 54 669 37Q669 33 669.0 17.0Q669 1 669.0 -15.5Q669 -32 669 -37Q668 -43 667.5 -50.5Q667 -58 657 -59Q651 -59 632.5 -59.0Q614 -59 595.0 -58.5Q576 -58 570 -58Q560 -58 557.5 -51.5Q555 -45 555 -40Q555 -36 555.0 -19.0Q555 -2 555.0 15.0Q555 32 555 37Q555 43 557.5 48.5Q560 54 569 54Z" fill="#f1ebee" stroke="none" transform="scale(1,-1) translate(0,-256)" /></svg>