<?xml version="1.0" encoding="utf-8" ?>
<svg baseProfile="full" height="256" version="1.1" width="256" xmlns="http://www.w3.org/2000/svg" xmlns:ev="http://www.w3.org/2001/xml-events" xmlns:xlink="http://www.w3.org/1999/xlink"><defs /><path d="M912 648Q912 706 875.0 753.0Q838 800 775.5 828.5Q713 857 638 857Q562 857 499.5 828.5Q437 800 400.0 753.0Q363 706 363 648Q363 591 400.0 543.5Q437 496 499.5 468.0Q562 440 638 440Q713 440 775.5 468.0Q838 496 875.0 543.5Q912 591 912 648Z" fill="#212121" stroke="none" transform="scale(1,-1) translate(0,-256)" /><path d="M812 243Q812 243 824.5 261.0Q837 279 857.5 307.5Q878 336 901.0 368.0Q924 400 945.0 428.5Q966 457 980.0 475.5Q994 494 996 495Q1010 498 1021.5 486.5Q1033 475 1040 462Q1054 434 1063.5 413.5Q1073 393 1076.5 371.5Q1080 350 1077 319Q1074 282 1058.5 245.5Q1043 209 1023.5 176.5Q1004 144 986 121Q971 102 959.0 95.5Q947 89 929 94Q919 97 909.0 113.0Q899 129 877.5 161.0Q856 193 812 243Z" fill="#212121" stroke="none" transform="scale(1,-1) translate(0,-256)" /><path d="M462 242Q462 242 449.0 260.0Q436 278 416.0 306.5Q396 335 373.0 367.5Q350 400 329.0 428.5Q308 457 294.0 475.5Q280 494 278 494Q263 498 251.5 486.5Q240 475 234 462Q219 434 209.5 413.5Q200 393 196.5 371.5Q193 350 196 319Q200 282 215.0 245.0Q230 208 250.0 176.0Q270 144 288 121Q303 101 315.0 95.0Q327 89 344 94Q354 96 364.5 112.0Q375 128 396.5 160.0Q418 192 462 242Z" fill="#212121" stroke="none" transform="scale(1,-1) translate(0,-256)" /></svg>