<?xml version="1.0" encoding="utf-8" ?>
<svg baseProfile="full" height="256" version="1.1" width="256" xmlns="http://www.w3.org/2000/svg" xmlns:ev="http://www.w3.org/2001/xml-events" xmlns:xlink="http://www.w3.org/1999/xlink"><defs /><path d="M378 132Q368 120 352.5 119.5Q337 119 327 130Q304 156 272.0 202.0Q240 248 214.0 309.5Q188 371 185 443Q180 523 202.0 565.0Q224 607 249 625Q266 636 284.5 628.5Q303 621 306 602Q310 571 326.0 525.0Q342 479 377.0 422.5Q412 366 474 306Q483 297 484.0 284.5Q485 272 477 262Z" fill="#9e9e9e" stroke="none" transform="scale(1,-1) translate(0,-256)" /><path d="M983.4380035400391 605.9989929199219Q986.4380035400391 595.9989929199219 984.9380035400391 567.9989929199219Q983.4380035400391 539.9989929199219 968.4380035400391 497.4989929199219Q953.4380035400391 454.9989929199219 916.4380035400391 399.9989929199219Q885.4380035400391 353.9989929199219 854.9380035400391 334.9989929199219Q824.4380035400391 315.9989929199219 801.4380035400391 305.9989929199219Q863.4380035400391 365.9989929199219 897.9380035400391 422.4989929199219Q932.4380035400391 478.9989929199219 948.4380035400391 524.9989929199219Q964.4380035400391 570.9989929199219 968.4380035400391 601.9989929199219Q970.4380035400391 609.9989929199219 974.9380035400391 614.9989929199219Q979.4380035400391 619.9989929199219 983.4380035400391 605.9989929199219Z" fill="#9e9e9e" stroke="none" transform="scale(1,-1) translate(0,-256)" /></svg>