<?xml version="1.0" encoding="utf-8" ?>
<svg baseProfile="full" height="256" version="1.1" width="256" xmlns="http://www.w3.org/2000/svg" xmlns:ev="http://www.w3.org/2001/xml-events" xmlns:xlink="http://www.w3.org/1999/xlink"><defs /><path d="M1038 291Q1048 309 1057.0 334.0Q1066 359 1073.5 383.5Q1081 408 1085.5 424.5Q1090 441 1090 442Q1086 370 1060.0 309.0Q1034 248 1002.0 202.0Q970 156 947 130Q937 119 921.5 119.5Q906 120 897 132Q897 132 887.0 145.0Q877 158 862.0 177.5Q847 197 832.0 216.5Q817 236 807.0 249.0Q797 262 797 262Q790 270 789.5 282.5Q789 295 795.0 302.5Q801 310 812 302Q825 292 840.5 272.5Q856 253 870.5 231.0Q885 209 895.5 192.0Q906 175 909 171Q919 159 929.0 160.0Q939 161 947.0 166.0Q955 171 957 173Q977 196 998.5 228.5Q1020 261 1038 291Z" fill="#616161" stroke="none" transform="scale(1,-1) translate(0,-256)" /></svg>