<?xml version="1.0" encoding="utf-8" ?>
<svg baseProfile="full" height="256" version="1.1" width="256" xmlns="http://www.w3.org/2000/svg" xmlns:ev="http://www.w3.org/2001/xml-events" xmlns:xlink="http://www.w3.org/1999/xlink"><defs /><path d="M190 601 432 356 995 -164 1186 -162Q1186 -162 1157.0 -132.0Q1128 -102 1076.0 -50.0Q1024 2 956.5 70.5Q889 139 812.0 217.5Q735 296 654.5 377.0Q574 458 496.5 536.0Q419 614 351.5 682.0Q284 750 231.5 802.0Q179 854 149.0 882.5Q119 911 119 910Q117 908 116.5 887.5Q116 867 116.5 838.5Q117 810 117.5 782.0Q118 754 118.5 735.0Q119 716 119 716Z" fill="#c9e3e6" stroke="none" transform="scale(1,-1) translate(0,-256)" /></svg>