<?xml version="1.0" encoding="utf-8" ?>
<svg baseProfile="full" height="256" version="1.1" width="256" xmlns="http://www.w3.org/2000/svg" xmlns:ev="http://www.w3.org/2001/xml-events" xmlns:xlink="http://www.w3.org/1999/xlink"><defs /><path d="M582 374Q589 365 570.0 358.5Q551 352 521.0 340.0Q491 328 463 303Q432 275 414.5 247.5Q397 220 387.0 202.5Q377 185 369 187Q363 188 366.0 208.5Q369 229 386.0 258.5Q403 288 438 319Q474 349 505.5 362.5Q537 376 558.0 377.0Q579 378 582 374Z" fill="#fefffa" stroke="none" transform="scale(1,-1) translate(0,-256)" /><path d="M866.843994140625 128.125Q875.843994140625 129.125 878.843994140625 108.125Q881.843994140625 87.125 876.343994140625 53.625Q870.843994140625 20.125 852.843994140625 -14.875Q833.843994140625 -53.875 804.843994140625 -81.375Q775.843994140625 -108.875 752.343994140625 -120.375Q728.843994140625 -131.875 724.843994140625 -121.875Q721.843994140625 -114.875 735.343994140625 -103.375Q748.843994140625 -91.875 770.843994140625 -71.375Q792.843994140625 -50.875 815.843994140625 -17.875Q834.843994140625 10.125 842.843994140625 36.125Q850.843994140625 62.125 852.843994140625 82.625Q854.843994140625 103.125 856.843994140625 115.125Q858.843994140625 127.125 866.843994140625 128.125Z" fill="#fefffa" stroke="none" transform="scale(1,-1) translate(0,-256)" /></svg>