<?xml version="1.0" encoding="utf-8" ?>
<svg baseProfile="full" height="256" version="1.1" width="256" xmlns="http://www.w3.org/2000/svg" xmlns:ev="http://www.w3.org/2001/xml-events" xmlns:xlink="http://www.w3.org/1999/xlink"><defs /><path d="M975.0160369873047 446.1037139892578Q975.0160369873047 479.82435607910156 962.3707962036133 509.4752655029297Q949.7255554199219 539.1261749267578 927.1966781616211 561.6550521850586Q904.6678009033203 584.1839294433594 875.0168914794922 596.9745178222656Q845.3659820556641 609.7651062011719 811.6453399658203 609.7651062011719Q777.6340026855469 609.7651062011719 747.9830932617188 596.9745178222656Q718.3321838378906 584.1839294433594 695.8033065795898 561.6550521850586Q673.2744293212891 539.1261749267578 660.6291885375977 509.4752655029297Q647.9839477539062 479.82435607910156 647.9839477539062 446.1037139892578Q647.9839477539062 412.38307189941406 660.6291885375977 382.73216247558594Q673.2744293212891 353.0812530517578 695.8033065795898 330.55237579345703Q718.3321838378906 308.02349853515625 747.9830932617188 295.37825775146484Q777.6340026855469 282.73301696777344 811.6453399658203 282.73301696777344Q845.3659820556641 282.73301696777344 875.0168914794922 295.37825775146484Q904.6678009033203 308.02349853515625 927.1966781616211 330.55237579345703Q949.7255554199219 353.0812530517578 962.3707962036133 382.73216247558594Q975.0160369873047 412.38307189941406 975.0160369873047 446.1037139892578Z" fill="#ffffff" stroke="none" transform="scale(1,-1) translate(0,-256)" /></svg>