<?xml version="1.0" encoding="utf-8" ?>
<svg baseProfile="full" height="256" version="1.1" width="256" xmlns="http://www.w3.org/2000/svg" xmlns:ev="http://www.w3.org/2001/xml-events" xmlns:xlink="http://www.w3.org/1999/xlink"><defs /><path d="M986 -17Q999 9 999.5 34.5Q1000 60 993 84Q980 81 979 70Q976 37 965.0 25.0Q954 13 937.0 12.5Q920 12 899 15Q889 17 878.0 18.0Q867 19 855 19Q823 18 798.0 2.5Q773 -13 750.0 -33.0Q727 -53 700.0 -68.5Q673 -84 638 -84Q602 -84 574.5 -68.5Q547 -53 522.5 -32.5Q498 -12 472.0 3.5Q446 19 413 19Q407 19 401.0 18.0Q395 17 388 15Q370 12 352.0 11.0Q334 10 322 24Q310 37 313.0 59.5Q316 82 327.5 106.0Q339 130 354.5 148.5Q370 167 383 174Q390 159 409.0 161.0Q428 163 445.5 184.5Q463 206 468 247Q469 254 473.5 293.5Q478 333 484.5 393.5Q491 454 498.0 524.0Q505 594 511.0 662.0Q517 730 520 784Q521 792 520.5 802.5Q520 813 518 822Q507 801 503 774Q496 736 488.5 681.5Q481 627 472.0 565.0Q463 503 452.5 442.0Q442 381 430.0 330.0Q418 279 404 247Q402 242 399.5 237.0Q397 232 389 228Q386 226 369.5 212.0Q353 198 332.5 174.0Q312 150 296.0 119.5Q280 89 276.5 54.0Q273 19 291 -17Q294 -24 304.0 -36.5Q314 -49 339.0 -62.0Q364 -75 412 -85Q443 -91 459.5 -102.5Q476 -114 488.5 -127.5Q501 -141 516.5 -154.0Q532 -167 560.5 -176.5Q589 -186 638 -189Q688 -186 716.0 -176.0Q744 -166 760.0 -153.5Q776 -141 788.0 -127.5Q800 -114 817.0 -102.5Q834 -91 865 -85Q913 -75 937.5 -62.0Q962 -49 972.5 -36.5Q983 -24 986 -17Z" fill="#faa700" stroke="none" transform="scale(1,-1) translate(0,-256)" /><path d="M909 209Q900 217 894.0 222.0Q888 227 886 228Q879 232 876.0 237.0Q873 242 871 247Q857 279 845.0 330.5Q833 382 822.5 443.0Q812 504 803.0 566.0Q794 628 786.5 682.0Q779 736 773 774Q766 813 749.0 836.5Q732 860 711.5 871.0Q691 882 673.0 886.0Q655 890 645 890Q647 885 651.0 880.5Q655 876 662 874Q694 866 718.0 838.5Q742 811 753 739Q756 720 761.0 656.5Q766 593 775.5 494.0Q785 395 803 269Q811 213 826.0 188.5Q841 164 858.0 161.5Q875 159 889.0 169.0Q903 179 908 192Q909 196 909 209Z" fill="#faa700" stroke="none" transform="scale(1,-1) translate(0,-256)" /></svg>