<?xml version="1.0" encoding="utf-8" ?>
<svg baseProfile="full" height="256" version="1.1" width="256" xmlns="http://www.w3.org/2000/svg" xmlns:ev="http://www.w3.org/2001/xml-events" xmlns:xlink="http://www.w3.org/1999/xlink"><defs /><path d="M656 287 716 252Q716 252 715.5 243.5Q715 235 709.5 223.0Q704 211 689.5 200.5Q675 190 647 186Q617 182 598.5 189.0Q580 196 571.0 207.5Q562 219 559.0 227.5Q556 236 556 236Z" fill="#e59502" stroke="none" transform="scale(1,-1) translate(0,-256)" /><path d="M378 461Q378 461 380.5 449.5Q383 438 387 422Q391 407 396.5 395.0Q402 383 402 383L439 347Q439 347 430.0 344.5Q421 342 407.5 343.0Q394 344 380.0 354.0Q366 364 357 389Q345 423 351.0 438.0Q357 453 367.5 457.0Q378 461 378 461Z" fill="#e59502" stroke="none" transform="scale(1,-1) translate(0,-256)" /><path d="M840 527Q840 527 841.0 515.5Q842 504 842.5 488.5Q843 473 842.5 460.0Q842 447 840 444Q837 439 825.5 431.5Q814 424 803.5 418.0Q793 412 793 412Q793 412 806.0 404.0Q819 396 827 397Q832 398 844.0 404.0Q856 410 867.0 424.0Q878 438 879 463Q880 488 871.5 502.5Q863 517 853.5 523.0Q844 529 840 527Z" fill="#e59502" stroke="none" transform="scale(1,-1) translate(0,-256)" /></svg>