<?xml version="1.0" encoding="utf-8" ?>
<svg baseProfile="full" height="256" version="1.1" width="256" xmlns="http://www.w3.org/2000/svg" xmlns:ev="http://www.w3.org/2001/xml-events" xmlns:xlink="http://www.w3.org/1999/xlink"><defs /><path d="M445 516Q438 524 452.0 536.0Q466 548 491 554Q516 560 530.0 556.5Q544 553 543 539Q541 528 528.5 530.5Q516 533 495 529Q474 525 462.0 518.0Q450 511 445 516Z" fill="#6d4c3f" stroke="none" transform="scale(1,-1) translate(0,-256)" /><path d="M662 554H663Q654 555 656 569Q658 574 670.0 580.5Q682 587 707 588Q735 588 748.5 579.5Q762 571 758 565Q754 559 741.0 561.5Q728 564 707 563Q689 562 680.5 557.5Q672 553 662 554Z" fill="#6d4c3f" stroke="none" transform="scale(1,-1) translate(0,-256)" /></svg>