<?xml version="1.0" encoding="utf-8" ?>
<svg baseProfile="full" height="256" version="1.1" width="256" xmlns="http://www.w3.org/2000/svg" xmlns:ev="http://www.w3.org/2001/xml-events" xmlns:xlink="http://www.w3.org/1999/xlink"><defs /><path d="M1201 456V457Q1204 452 1203.0 446.0Q1202 440 1202 440Q1202 440 1204.5 430.0Q1207 420 1197 399Q1195 394 1194.5 384.5Q1194 375 1183 361Q1173 348 1153.5 333.0Q1134 318 1122 310Q1063 271 1005 296Q989 303 981.5 314.0Q974 325 971.5 333.0Q969 341 969 336Q969 336 970.5 352.5Q972 369 975 377Q977 385 990.5 400.0Q1004 415 1011 422Q1021 432 1026.5 438.0Q1032 444 1038 441Q1041 439 1041.0 428.5Q1041 418 1039.0 407.5Q1037 397 1037 397L1027 369L1040 367Q1040 367 1057.5 374.0Q1075 381 1091 394Q1106 407 1126.5 424.5Q1147 442 1156 451Q1173 470 1185 462Q1193 465 1201 456Z" fill="#ffca26" stroke="none" transform="scale(1,-1) translate(0,-256)" /><path d="M207 362Q207 362 201.5 377.5Q196 393 191.0 408.0Q186 423 186 423Q190 428 202.0 417.5Q214 407 226 398Q233 392 247.0 380.5Q261 369 272 357Q278 349 284.5 336.0Q291 323 288.5 307.0Q286 291 268 275Q250 260 225.0 262.0Q200 264 177.0 273.5Q154 283 142 290Q124 301 109.5 320.5Q95 340 90 349Q86 356 83.0 361.5Q80 367 80 367Q80 367 78.5 372.0Q77 377 77 382Q76 389 76.0 395.5Q76 402 76 402Q76 402 73.5 407.5Q71 413 70 423Q70 428 70.5 433.0Q71 438 71 438Q71 438 74.5 444.5Q78 451 87 451Q102 453 110.5 444.5Q119 436 130 425Q141 414 155.5 396.5Q170 379 182 373Q194 366 200.5 364.0Q207 362 207 362Z" fill="#ffca26" stroke="none" transform="scale(1,-1) translate(0,-256)" /><path d="M411 537Q411 537 428.0 547.0Q445 557 471 577Q494 595 508.0 613.5Q522 632 540.5 647.0Q559 662 595 668Q621 672 642.0 665.5Q663 659 675.5 650.5Q688 642 688 642Q688 642 700.0 642.0Q712 642 730.5 637.0Q749 632 768 615Q787 598 797.0 572.0Q807 546 812.0 519.0Q817 492 819.0 472.5Q821 453 822 449Q825 440 832.5 441.5Q840 443 840 443Q840 443 836.0 422.5Q832 402 821.0 371.5Q810 341 788.0 310.0Q766 279 730.5 256.0Q695 233 642 229Q589 225 549.0 239.5Q509 254 481.0 277.5Q453 301 435.5 325.0Q418 349 410.0 366.0Q402 383 402 383Q402 383 405.5 383.0Q409 383 414 388Q416 390 415.0 411.5Q414 433 412.5 461.5Q411 490 410.0 512.0Q409 534 411 537Z" fill="#ffca26" stroke="none" transform="scale(1,-1) translate(0,-256)" /></svg>