<?xml version="1.0" encoding="utf-8" ?>
<svg baseProfile="full" height="256" version="1.1" width="256" xmlns="http://www.w3.org/2000/svg" xmlns:ev="http://www.w3.org/2001/xml-events" xmlns:xlink="http://www.w3.org/1999/xlink"><defs /><path d="M1109 380Q1105 385 1117.5 394.0Q1130 403 1148 420Q1162 435 1170.5 445.5Q1179 456 1182 459Q1184 462 1187.5 462.5Q1191 463 1190 458Q1189 455 1182.0 445.0Q1175 435 1160 418Q1146 402 1129.5 388.5Q1113 375 1109 380Z" fill="#be6716" stroke="none" transform="scale(1,-1) translate(0,-256)" /><path d="M1124 364Q1120 369 1134.5 378.0Q1149 387 1167 407Q1182 424 1190.5 437.0Q1199 450 1202 450Q1207 448 1200 435Q1190 417 1174 400Q1156 381 1142.0 370.0Q1128 359 1124 364Z" fill="#be6716" stroke="none" transform="scale(1,-1) translate(0,-256)" /><path d="M1139 346Q1136 349 1146.0 355.0Q1156 361 1170 377Q1182 389 1188.5 399.0Q1195 409 1198 409Q1202 408 1197 398Q1190 384 1177 371Q1163 357 1152.5 349.5Q1142 342 1139 346Z" fill="#be6716" stroke="none" transform="scale(1,-1) translate(0,-256)" /></svg>