<?xml version="1.0" encoding="utf-8" ?>
<svg baseProfile="full" height="256" version="1.1" width="256" xmlns="http://www.w3.org/2000/svg" xmlns:ev="http://www.w3.org/2001/xml-events" xmlns:xlink="http://www.w3.org/1999/xlink"><defs /><path d="M1027 242 957 248Q957 248 957.5 236.0Q958 224 959.0 208.0Q960 192 960 179Q961 166 955.0 138.5Q949 111 943.5 77.0Q938 43 938 12Q938 -25 951.0 -49.0Q964 -73 980.5 -84.5Q997 -96 1007 -96Q1021 -96 1036.5 -84.0Q1052 -72 1065 -44Q1072 -29 1077.0 -0.5Q1082 28 1085.5 61.5Q1089 95 1091.0 124.5Q1093 154 1093 168Q1094 198 1094.5 219.0Q1095 240 1095 240Z" fill="#f06e00" stroke="none" transform="scale(1,-1) translate(0,-256)" /><path d="M288 193 323 216Q323 216 325.5 204.5Q328 193 331.0 178.0Q334 163 337 152Q341 137 352.5 100.0Q364 63 366 22Q368 -18 354.5 -45.5Q341 -73 327 -85Q313 -98 299.0 -93.0Q285 -88 269 -70Q253 -53 241.5 -23.5Q230 6 221.0 41.0Q212 76 202 108Q188 156 186.5 171.5Q185 187 185 187Z" fill="#f06e00" stroke="none" transform="scale(1,-1) translate(0,-256)" /><path d="M444 -193Q453 -203 505.5 -208.0Q558 -213 668 -213Q889 -213 889 -175Q889 -170 890.0 -138.0Q891 -106 891.5 -57.5Q892 -9 891.0 44.5Q890 98 887.0 147.0Q884 196 877.5 229.0Q871 262 860 269Q844 278 822.0 265.0Q800 252 773.0 230.5Q746 209 714.5 190.0Q683 171 648 168Q615 166 581.0 176.5Q547 187 518.5 201.5Q490 216 472 225Q464 229 455.5 228.5Q447 228 441 220Q430 207 431.0 173.5Q432 140 432 85Q432 64 432.0 30.5Q432 -3 433.0 -40.0Q434 -77 435.0 -110.5Q436 -144 438.5 -166.5Q441 -189 444 -193Z" fill="#f06e00" stroke="none" transform="scale(1,-1) translate(0,-256)" /></svg>