<?xml version="1.0" encoding="utf-8" ?>
<svg baseProfile="full" height="256" version="1.1" width="256" xmlns="http://www.w3.org/2000/svg" xmlns:ev="http://www.w3.org/2001/xml-events" xmlns:xlink="http://www.w3.org/1999/xlink"><defs /><path d="M1153 884Q1187 854 1194.0 827.5Q1201 801 1200 789Q1199 782 1194 776L253 -193L94 -34L1046 903Q1050 906 1054 908Q1062 910 1077.5 912.0Q1093 914 1113.0 908.5Q1133 903 1153 884Z" fill="#f6bc41" stroke="none" transform="scale(1,-1) translate(0,-256)" /><path d="M235 -52Q202 -19 161.0 -13.5Q120 -8 95 -33Q70 -58 76.0 -99.0Q82 -140 114 -173Q147 -206 188.0 -211.5Q229 -217 254 -192Q279 -167 273.5 -126.0Q268 -85 235 -52Z" fill="#f6bc41" stroke="none" transform="scale(1,-1) translate(0,-256)" /></svg>