<?xml version="1.0" encoding="utf-8" ?>
<svg baseProfile="full" height="256" version="1.1" width="256" xmlns="http://www.w3.org/2000/svg" xmlns:ev="http://www.w3.org/2001/xml-events" xmlns:xlink="http://www.w3.org/1999/xlink"><defs /><path d="M598 916Q611 916 637.0 915.5Q663 915 676 915Q691 914 696.5 907.5Q702 901 702 891Q702 889 702.0 852.5Q702 816 702.0 753.5Q702 691 702.0 611.5Q702 532 702.0 444.0Q702 356 702.0 268.0Q702 180 702.5 100.0Q703 20 703.0 -43.0Q703 -106 703.0 -144.0Q703 -182 704 -186Q706 -215 688 -215Q681 -215 666.0 -215.0Q651 -215 635.0 -215.0Q619 -215 609 -215Q579 -215 579 -199Q579 -197 578.5 -160.5Q578 -124 578.0 -62.0Q578 0 578.0 78.5Q578 157 577.5 244.5Q577 332 577.0 420.0Q577 508 576.5 588.0Q576 668 576.0 732.0Q576 796 575.5 835.5Q575 875 575 880Q575 905 581.0 910.0Q587 915 598 916Z" fill="#02ab47" stroke="none" transform="scale(1,-1) translate(0,-256)" /><path d="M386 194Q401 196 417.0 195.0Q433 194 446.5 182.5Q460 171 468 141Q482 95 520.0 61.0Q558 27 626 23Q670 21 715.5 32.0Q761 43 792.0 70.5Q823 98 824 145Q825 176 804.0 201.5Q783 227 748.0 248.5Q713 270 671.5 287.5Q630 305 588.0 320.5Q546 336 512 350Q427 385 376.5 442.0Q326 499 319 564Q315 598 327.5 641.0Q340 684 374.5 723.5Q409 763 472.0 789.5Q535 816 632 816Q713 817 768.5 795.0Q824 773 859.0 739.0Q894 705 912.0 668.5Q930 632 936.5 602.5Q943 573 942 561Q941 536 927.0 525.0Q913 514 900 512Q888 510 870.0 509.5Q852 509 844 511Q834 515 829.5 530.5Q825 546 821.5 567.0Q818 588 811 608Q808 617 797.0 634.0Q786 651 765.5 669.5Q745 688 714.0 701.0Q683 714 639 714Q580 715 539.5 698.0Q499 681 477.0 654.5Q455 628 452 599Q450 570 459.5 547.5Q469 525 484.5 509.0Q500 493 514 484Q526 477 561.5 462.0Q597 447 643.0 428.0Q689 409 733.5 389.0Q778 369 807 352Q884 307 919.0 257.5Q954 208 952 150Q952 131 945.5 102.0Q939 73 921.5 41.0Q904 9 870.5 -19.0Q837 -47 782.0 -65.0Q727 -83 646 -84Q560 -85 502.5 -61.5Q445 -38 409.0 -2.0Q373 34 354.0 71.5Q335 109 328.5 136.0Q322 163 322 167Q323 177 337.0 184.0Q351 191 386 194Z" fill="#02ab47" stroke="none" transform="scale(1,-1) translate(0,-256)" /></svg>