<?xml version="1.0" encoding="utf-8" ?>
<svg baseProfile="full" height="256" version="1.1" width="256" xmlns="http://www.w3.org/2000/svg" xmlns:ev="http://www.w3.org/2001/xml-events" xmlns:xlink="http://www.w3.org/1999/xlink"><defs /><path d="M463 538Q463 538 461.0 527.5Q459 517 459 515Q459 513 450.0 523.0Q441 533 432.0 543.5Q423 554 423 554L436 658Q436 658 450.5 668.0Q465 678 485.5 692.0Q506 706 523.0 717.5Q540 729 546 732Q551 735 577.5 737.0Q604 739 637.5 740.5Q671 742 699.5 742.5Q728 743 737 743Q746 742 762.5 725.0Q779 708 796.0 685.5Q813 663 825.0 646.0Q837 629 837 629Q837 629 843.5 617.0Q850 605 859.0 587.5Q868 570 875.5 552.5Q883 535 886.0 523.0Q889 511 882 511Q871 511 857.0 511.0Q843 511 824 512Q806 513 797.5 522.5Q789 532 785 551Q782 566 773.0 589.5Q764 613 753 626Q730 653 716.0 657.5Q702 662 702 662V600Q702 600 682.0 607.0Q662 614 635 615Q607 616 591.5 612.5Q576 609 576 609V667Q576 667 553.5 664.0Q531 661 502 635Q481 616 473.0 593.0Q465 570 464.0 554.0Q463 538 463 538Z" fill="#2f7c31" stroke="none" transform="scale(1,-1) translate(0,-256)" /><path d="M390 538 560 412 937 162 777 1 791 62Q791 62 796.0 80.5Q801 99 800 114Q800 129 795.5 150.0Q791 171 774 190Q762 203 745.0 215.0Q728 227 715.0 234.5Q702 242 702 242V151L577 218V287Q577 287 552.0 295.0Q527 303 497 317Q464 331 428.5 350.5Q393 370 361 408Q339 434 329.5 466.0Q320 498 318.0 527.5Q316 557 317.0 575.5Q318 594 318 594Z" fill="#2f7c31" stroke="none" transform="scale(1,-1) translate(0,-256)" /><path d="M327 178 386 136 524 -15Q524 -15 539.5 -17.5Q555 -20 577.5 -24.0Q600 -28 624.0 -31.5Q648 -35 666.0 -37.5Q684 -40 689 -40Q692 -39 711.5 -24.5Q731 -10 758.5 12.5Q786 35 816.5 60.5Q847 86 873.5 108.5Q900 131 916.5 145.5Q933 160 933 160Q933 160 942.0 158.5Q951 157 952 136Q953 96 939.0 56.5Q925 17 899.0 -16.5Q873 -50 840 -70Q809 -90 777.0 -99.5Q745 -109 724.0 -111.0Q703 -113 703 -113V-160L579 -161V-113Q579 -113 551.5 -108.0Q524 -103 485.5 -88.5Q447 -74 412 -46Q359 -3 338.0 41.5Q317 86 314 117Q309 150 318.0 164.0Q327 178 327 178Z" fill="#2f7c31" stroke="none" transform="scale(1,-1) translate(0,-256)" /></svg>