<?xml version="1.0" encoding="utf-8" ?>
<svg baseProfile="full" height="256" version="1.1" width="256" xmlns="http://www.w3.org/2000/svg" xmlns:ev="http://www.w3.org/2001/xml-events" xmlns:xlink="http://www.w3.org/1999/xlink"><defs /><path d="M429 165Q435 154 430.0 148.0Q425 142 416.0 137.5Q407 133 402 127Q397 121 399.5 110.0Q402 99 401.5 89.5Q401 80 388 77Q378 75 367.0 87.0Q356 99 349.5 117.0Q343 135 347 150Q351 165 369.0 171.0Q387 177 405.5 175.5Q424 174 429 165Z" fill="#7adc8a" stroke="none" transform="scale(1,-1) translate(0,-256)" /><path d="M634 899Q649 899 645.5 886.0Q642 873 636 863Q631 856 621.0 843.0Q611 830 603 831Q596 832 594.0 844.5Q592 857 593 875Q594 894 607.0 897.0Q620 900 634 899Z" fill="#7adc8a" stroke="none" transform="scale(1,-1) translate(0,-256)" /><path d="M491 752Q500 738 491.0 728.5Q482 719 464 706Q443 690 428.5 673.0Q414 656 403 631Q395 614 387.0 604.0Q379 594 366 596Q359 597 354.0 609.0Q349 621 354.5 644.5Q360 668 388 702Q416 736 437.5 748.0Q459 760 473.0 758.5Q487 757 491 752Z" fill="#7adc8a" stroke="none" transform="scale(1,-1) translate(0,-256)" /></svg>