<?xml version="1.0" encoding="utf-8" ?>
<svg baseProfile="full" height="256" version="1.1" width="256" xmlns="http://www.w3.org/2000/svg" xmlns:ev="http://www.w3.org/2001/xml-events" xmlns:xlink="http://www.w3.org/1999/xlink"><defs /><path d="M206 779Q207 776 212.0 734.0Q217 692 225.5 623.5Q234 555 245.0 470.0Q256 385 267.0 294.5Q278 204 288.5 119.5Q299 35 307.5 -33.5Q316 -102 321.0 -143.0Q326 -184 326 -187Q326 -199 317.0 -209.5Q308 -220 292 -222Q275 -224 262.5 -215.0Q250 -206 248 -196Q248 -194 243.0 -152.5Q238 -111 229.0 -42.0Q220 27 209.0 112.5Q198 198 186.5 289.0Q175 380 164.5 465.5Q154 551 145.0 620.0Q136 689 130.5 730.5Q125 772 125 774Q123 784 123.5 798.5Q124 813 131.0 824.5Q138 836 157 838Q180 840 190.0 827.5Q200 815 202.5 800.0Q205 785 206 779Z" fill="#b0b0b0" stroke="none" transform="scale(1,-1) translate(0,-256)" /></svg>