<?xml version="1.0" encoding="utf-8" ?>
<svg baseProfile="full" height="256" version="1.1" width="256" xmlns="http://www.w3.org/2000/svg" xmlns:ev="http://www.w3.org/2001/xml-events" xmlns:xlink="http://www.w3.org/1999/xlink"><defs /><path d="M595 221Q595 221 601.0 204.0Q607 187 635 140Q649 116 676.0 82.5Q703 49 735.5 13.0Q768 -23 797 -56Q827 -89 859.0 -122.0Q891 -155 914.0 -178.0Q937 -201 939 -202Q940 -203 958.0 -196.5Q976 -190 1002.0 -175.0Q1028 -160 1054.5 -137.0Q1081 -114 1101 -81Q1117 -54 1126.5 -31.0Q1136 -8 1135 12Q1135 32 1123.5 47.0Q1112 62 1112 62L949 245Q949 245 933.5 260.5Q918 276 893.0 298.5Q868 321 841 340Q799 368 775.0 377.5Q751 387 751 387Q751 387 759.0 370.5Q767 354 778.0 331.5Q789 309 796.5 291.5Q804 274 802 272Q800 268 781.0 267.5Q762 267 714 259Q683 253 655.5 244.0Q628 235 611.5 228.0Q595 221 595 221Z" fill="#317c31" stroke="none" transform="scale(1,-1) translate(0,-256)" /><path d="M379 598Q398 615 420.5 619.5Q443 624 460 607Q476 589 470.0 568.5Q464 548 441 527Q424 512 398.5 503.0Q373 494 356 510Q340 526 348.0 552.5Q356 579 379 598Z" fill="#317c31" stroke="none" transform="scale(1,-1) translate(0,-256)" /><path d="M384 482Q384 482 384.5 474.0Q385 466 389.0 457.5Q393 449 406 449Q435 448 459.0 463.5Q483 479 497.5 501.0Q512 523 512 540Q513 555 506.5 561.5Q500 568 494.0 568.5Q488 569 488 569Q488 569 485.5 552.5Q483 536 457 509Q440 492 423.0 486.5Q406 481 395.0 481.5Q384 482 384 482Z" fill="#317c31" stroke="none" transform="scale(1,-1) translate(0,-256)" /></svg>