<?xml version="1.0" encoding="utf-8" ?>
<svg baseProfile="full" height="256" version="1.1" width="256" xmlns="http://www.w3.org/2000/svg" xmlns:ev="http://www.w3.org/2001/xml-events" xmlns:xlink="http://www.w3.org/1999/xlink"><defs /><path d="M502 543Q502 543 526.0 520.5Q550 498 594 463Q624 440 653.0 425.0Q682 410 701.0 403.0Q720 396 720 396Q720 396 725.0 388.5Q730 381 735 371Q738 365 747.0 346.0Q756 327 763.0 309.0Q770 291 769 289Q767 286 744.0 284.0Q721 282 685 273Q666 269 643.0 261.5Q620 254 603.5 248.0Q587 242 587 242Q587 242 578.5 263.5Q570 285 557.0 315.0Q544 345 531 368Q517 392 501.0 416.0Q485 440 473.0 456.0Q461 472 461 472Z" fill="#f7c876" stroke="none" transform="scale(1,-1) translate(0,-256)" /></svg>