<?xml version="1.0" encoding="utf-8" ?>
<svg baseProfile="full" height="256" version="1.1" width="256" xmlns="http://www.w3.org/2000/svg" xmlns:ev="http://www.w3.org/2001/xml-events" xmlns:xlink="http://www.w3.org/1999/xlink"><defs /><path d="M767 84Q768 88 783.5 99.5Q799 111 822.5 134.0Q846 157 872 195Q896 231 903.5 257.0Q911 283 911 283Q911 283 920.5 274.0Q930 265 941.5 253.5Q953 242 960 235Q962 232 976.5 215.5Q991 199 1011.0 176.5Q1031 154 1050.5 132.0Q1070 110 1083.5 95.0Q1097 80 1097 79Q1098 78 1097.5 55.0Q1097 32 1074 -10Q1054 -46 1026.5 -69.5Q999 -93 976.0 -104.5Q953 -116 945 -116Q941 -116 921.5 -97.0Q902 -78 876.0 -49.5Q850 -21 824.5 8.0Q799 37 783.0 58.5Q767 80 767 84Z" fill="#f5b03e" stroke="none" transform="scale(1,-1) translate(0,-256)" /></svg>