<?xml version="1.0" encoding="utf-8" ?>
<svg baseProfile="full" height="256" version="1.1" width="256" xmlns="http://www.w3.org/2000/svg" xmlns:ev="http://www.w3.org/2001/xml-events" xmlns:xlink="http://www.w3.org/1999/xlink"><defs /><path d="M250 127 257 202 219 168Q219 168 207.5 161.5Q196 155 180.0 146.5Q164 138 150 132Q136 125 119.5 117.5Q103 110 104 105Q106 100 122.5 89.0Q139 78 180 86Q211 93 226.0 102.5Q241 112 245.5 119.5Q250 127 250 127Z" fill="#aca39b" stroke="none" transform="scale(1,-1) translate(0,-256)" /><path d="M682 617Q682 614 695.5 617.5Q709 621 727.0 627.5Q745 634 760.5 640.5Q776 647 779 649Q895 726 870 800Q860 832 837.0 843.5Q814 855 787.5 854.5Q761 854 740 847Q712 839 694.5 824.5Q677 810 668.5 799.0Q660 788 660 788L685 775Q685 775 692.5 784.5Q700 794 717.0 806.0Q734 818 763 824Q805 833 824.0 812.5Q843 792 840 768Q838 751 824.0 734.0Q810 717 791.5 702.5Q773 688 759 677Q745 667 728.0 654.5Q711 642 698.0 631.5Q685 621 682 617Z" fill="#aca39b" stroke="none" transform="scale(1,-1) translate(0,-256)" /><path d="M820 507 767 414 918 406Q918 406 922.0 408.0Q926 410 929 411Q937 414 941.5 403.0Q946 392 950 381Q954 371 960.0 355.0Q966 339 969 329Q973 315 982.5 302.0Q992 289 1008 286Q1018 284 1035.0 284.0Q1052 284 1065.0 285.0Q1078 286 1078 286Q1078 286 1083.5 292.0Q1089 298 1092.5 307.5Q1096 317 1092 327Q1086 342 1072.5 347.0Q1059 352 1059 352Q1059 352 1049.5 351.0Q1040 350 1037 353Q1033 355 1028.0 369.0Q1023 383 1017.0 402.0Q1011 421 1006.5 439.0Q1002 457 1000 467Q996 486 990.0 493.0Q984 500 976 502Q966 504 949.0 502.5Q932 501 926 501Q924 501 910.5 501.0Q897 501 878.5 502.0Q860 503 843.5 504.0Q827 505 820 507Z" fill="#aca39b" stroke="none" transform="scale(1,-1) translate(0,-256)" /><path d="M424 37Q424 39 426.0 42.0Q428 45 434 44Q441 43 446.5 36.5Q452 30 456 23Q460 15 464.0 5.0Q468 -5 468 -5Q468 -5 466.0 -7.5Q464 -10 464 -11Q462 -13 460.0 -19.0Q458 -25 458 -25Q458 -25 456.5 -18.5Q455 -12 453 -4Q450 3 445.5 10.0Q441 17 437 21Q432 27 428.0 30.0Q424 33 424 37Z" fill="#aca39b" stroke="none" transform="scale(1,-1) translate(0,-256)" /></svg>