<?xml version="1.0" encoding="utf-8" ?>
<svg baseProfile="full" height="256" version="1.1" width="256" xmlns="http://www.w3.org/2000/svg" xmlns:ev="http://www.w3.org/2001/xml-events" xmlns:xlink="http://www.w3.org/1999/xlink"><defs /><path d="M529 77Q529 77 532.5 92.0Q536 107 538.5 131.5Q541 156 538 182Q535 202 521.5 205.0Q508 208 490.5 201.5Q473 195 459.5 187.0Q446 179 444 178Q443 176 438.5 154.5Q434 133 429.0 104.5Q424 76 419.5 53.0Q415 30 414 26Q412 21 406.5 3.5Q401 -14 395.5 -30.5Q390 -47 388 -53Q387 -56 379.0 -70.0Q371 -84 364.0 -98.5Q357 -113 357 -115Q357 -118 366.0 -126.0Q375 -134 397 -135Q425 -136 439.5 -125.5Q454 -115 454 -112Q455 -109 457.0 -95.0Q459 -81 460 -78Q460 -76 467.5 -58.0Q475 -40 482.5 -20.5Q490 -1 493 5Q496 11 504.5 27.5Q513 44 520.5 59.5Q528 75 529 77Z" fill="#88847d" stroke="none" transform="scale(1,-1) translate(0,-256)" /><path d="M824 513 716 406 753 373Q753 373 780.5 369.0Q808 365 861 381Q887 389 902.5 397.5Q918 406 918 406Q918 406 921.5 418.5Q925 431 928 452Q931 471 930.0 486.0Q929 501 929 501Q929 501 923.5 501.0Q918 501 914 501Q910 501 896.0 503.0Q882 505 865.5 507.0Q849 509 836.5 511.0Q824 513 824 513Z" fill="#88847d" stroke="none" transform="scale(1,-1) translate(0,-256)" /><path d="M664 793Q664 793 654.5 785.5Q645 778 637 764Q629 750 627.5 731.5Q626 713 639 700Q657 682 685.0 693.0Q713 704 728 729Q736 743 740.0 757.5Q744 772 739 774Q733 778 723.0 770.5Q713 763 705 757Q697 751 689.5 752.0Q682 753 682 761Q681 768 684.5 773.5Q688 779 688 779Q688 779 685.5 782.5Q683 786 677 790Q672 793 668.0 793.0Q664 793 664 793Z" fill="#88847d" stroke="none" transform="scale(1,-1) translate(0,-256)" /><path d="M1102 707Q1102 707 1111.5 703.5Q1121 700 1135 686Q1145 675 1149.5 662.5Q1154 650 1154 650Q1154 650 1165.0 654.5Q1176 659 1187.5 664.5Q1199 670 1201 675Q1203 679 1196.0 691.0Q1189 703 1169 713Q1149 724 1136.5 724.0Q1124 724 1119 722Q1114 719 1108.0 713.0Q1102 707 1102 707Z" fill="#88847d" stroke="none" transform="scale(1,-1) translate(0,-256)" /><path d="M477 -97Q477 -97 489.0 -102.5Q501 -108 516 -108Q533 -108 546.5 -105.5Q560 -103 560 -103Q560 -103 558.5 -111.5Q557 -120 555.0 -129.5Q553 -139 552 -141Q549 -146 537.0 -151.5Q525 -157 506 -158Q487 -160 474.5 -157.0Q462 -154 459 -149Q456 -146 458.5 -138.0Q461 -130 465 -122Q469 -116 473.0 -106.5Q477 -97 477 -97Z" fill="#88847d" stroke="none" transform="scale(1,-1) translate(0,-256)" /><path d="M437 -4Q437 0 433.5 3.5Q430 7 426 9Q424 11 418.5 12.5Q413 14 410 11Q405 8 406.0 2.0Q407 -4 415 -8Q424 -13 430.5 -10.5Q437 -8 437 -4Z" fill="#88847d" stroke="none" transform="scale(1,-1) translate(0,-256)" /></svg>