<?xml version="1.0" encoding="utf-8" ?>
<svg baseProfile="full" height="256" version="1.1" width="256" xmlns="http://www.w3.org/2000/svg" xmlns:ev="http://www.w3.org/2001/xml-events" xmlns:xlink="http://www.w3.org/1999/xlink"><defs /><path d="M451 362Q451 362 437.5 345.5Q424 329 403.0 302.5Q382 276 358.0 246.0Q334 216 312.5 189.0Q291 162 276.5 144.5Q262 127 260 126Q256 124 240.0 122.5Q224 121 206 138Q191 154 190.5 170.5Q190 187 195.0 199.0Q200 211 200 213Q200 216 198.5 226.5Q197 237 201.5 253.0Q206 269 226 289Q242 304 258.5 310.0Q275 316 275 316Q275 316 283.0 330.0Q291 344 322 357Q350 368 379.5 372.0Q409 376 429.5 373.5Q450 371 451 362Z" fill="#706c66" stroke="none" transform="scale(1,-1) translate(0,-256)" /><path d="M1059 352Q1059 352 1063.0 343.5Q1067 335 1071 324Q1075 311 1076.5 298.5Q1078 286 1078 286Q1078 286 1087.0 286.0Q1096 286 1106.0 285.5Q1116 285 1119 285Q1130 284 1132 294Q1132 297 1129.0 308.5Q1126 320 1119 331Q1111 343 1100.0 351.5Q1089 360 1086 359Q1083 359 1071.0 355.5Q1059 352 1059 352Z" fill="#706c66" stroke="none" transform="scale(1,-1) translate(0,-256)" /></svg>