<?xml version="1.0" encoding="utf-8" ?>
<svg baseProfile="full" height="256" version="1.1" width="256" xmlns="http://www.w3.org/2000/svg" xmlns:ev="http://www.w3.org/2001/xml-events" xmlns:xlink="http://www.w3.org/1999/xlink"><defs /><path d="M1174 889Q1197 867 1200.0 829.5Q1203 792 1167 749Q1156 737 1133.0 712.5Q1110 688 1081 659Q1064 642 1022.0 603.5Q980 565 919.5 510.5Q859 456 786.5 391.5Q714 327 636.0 258.5Q558 190 481.5 122.5Q405 55 335.5 -5.5Q266 -66 211.0 -113.5Q156 -161 122 -189Q102 -206 91.5 -208.5Q81 -211 78 -208Q74 -204 76.0 -192.5Q78 -181 95 -162Q124 -129 173.0 -73.5Q222 -18 283.5 51.5Q345 121 413.5 198.0Q482 275 551.5 352.5Q621 430 686.0 502.0Q751 574 805.0 634.0Q859 694 896.5 735.0Q934 776 948 791Q983 827 1010.5 852.0Q1038 877 1062 890Q1100 912 1127.5 909.5Q1155 907 1174 889ZM945 609 1112 776Q1122 786 1125.0 796.0Q1128 806 1120 814Q1111 823 1098.0 822.0Q1085 821 1075 811L909 644Q899 634 898.0 621.0Q897 608 905 599Q914 591 925.0 595.0Q936 599 945 609Z" fill="#bdbdbd" stroke="none" transform="scale(1,-1) translate(0,-256)" /></svg>