<?xml version="1.0" encoding="utf-8" ?>
<svg baseProfile="full" height="256" version="1.1" width="256" xmlns="http://www.w3.org/2000/svg" xmlns:ev="http://www.w3.org/2001/xml-events" xmlns:xlink="http://www.w3.org/1999/xlink"><defs /><path d="M976 781Q962 765 923.0 722.5Q884 680 827.0 617.5Q770 555 701.0 479.5Q632 404 558.0 323.0Q484 242 411.5 162.0Q339 82 274.5 10.5Q210 -61 159.5 -118.0Q109 -175 79 -208Q73 -205 76.0 -193.0Q79 -181 95 -162Q124 -129 172.5 -74.0Q221 -19 282.5 50.5Q344 120 412.5 197.0Q481 274 550.5 351.5Q620 429 685.0 501.5Q750 574 804.5 634.0Q859 694 896.5 735.0Q934 776 948 791Q986 830 1014.0 855.0Q1042 880 1066 893Q1107 915 1134.0 909.0Q1161 903 1180 883Q1181 882 1172.0 887.5Q1163 893 1144.5 895.0Q1126 897 1097 884Q1073 874 1044.0 848.0Q1015 822 976 781Z" fill="#b9e4ea" stroke="none" transform="scale(1,-1) translate(0,-256)" /></svg>