<?xml version="1.0" encoding="utf-8" ?>
<svg baseProfile="full" height="256" version="1.1" width="256" xmlns="http://www.w3.org/2000/svg" xmlns:ev="http://www.w3.org/2001/xml-events" xmlns:xlink="http://www.w3.org/1999/xlink"><defs /><path d="M612 595Q526 564 446.0 538.0Q366 512 298.5 505.0Q231 498 183 524Q130 552 113 618Q101 665 114.0 713.0Q127 761 157.5 800.5Q188 840 228.5 866.0Q269 892 313 896Q369 901 405.5 890.5Q442 880 463.0 859.0Q484 838 493.5 813.0Q503 788 506 765Q509 741 503.5 734.5Q498 728 498 728Q498 728 494.0 744.0Q490 760 478.5 782.5Q467 805 445.0 825.0Q423 845 388.5 853.5Q354 862 304 850Q272 842 241.0 819.0Q210 796 187.0 763.5Q164 731 155.0 695.0Q146 659 158 625Q169 593 185.5 581.0Q202 569 218 562Q262 544 322.0 552.5Q382 561 453.0 585.0Q524 609 600 637Q671 663 742.5 687.0Q814 711 877 722Q930 732 975 730Q963 717 945.0 708.0Q927 699 912 683Q897 681 879 678Q819 667 750.0 643.5Q681 620 612 595Z" fill="#000000" stroke="none" transform="scale(1,-1) translate(0,-256)" /><path d="M1143 826Q1161 815 1156.5 794.0Q1152 773 1141 762L963 579Q953 568 931.0 563.0Q909 558 894 573Q880 588 881.0 601.5Q882 615 890.0 626.0Q898 637 906.5 643.5Q915 650 915 650L909 645Q899 635 898.0 621.5Q897 608 906 600Q914 592 925.0 595.5Q936 599 945 609L1112 776Q1122 786 1125.5 796.0Q1129 806 1120 815Q1113 823 1101.0 822.5Q1089 822 1079 814Q1077 813 1075.5 812.5Q1074 812 1074 812Q1110 847 1143 826Z" fill="#000000" stroke="none" transform="scale(1,-1) translate(0,-256)" /><path d="M1115 679Q1157 636 1170.0 582.5Q1183 529 1177 490Q1168 424 1138.5 376.0Q1109 328 1067.5 294.0Q1026 260 978.5 238.5Q931 217 885.5 205.0Q840 193 803 189Q750 183 701 183Q613 183 546.0 200.5Q479 218 429.0 247.0Q379 276 342 311Q313 337 303.0 363.0Q293 389 293.0 406.5Q293 424 293 424Q322 383 365.5 344.0Q409 305 469.0 276.5Q529 248 608.5 235.5Q688 223 790 235Q790 235 813.0 239.0Q836 243 872.0 253.5Q908 264 949.5 282.5Q991 301 1029.5 330.5Q1068 360 1095.5 402.0Q1123 444 1132 500Q1136 532 1126.0 571.5Q1116 611 1087 640Q1061 665 1029.0 676.5Q997 688 948 685L992 729Q992 729 1012.5 727.0Q1033 725 1062.0 714.5Q1091 704 1115 679Z" fill="#000000" stroke="none" transform="scale(1,-1) translate(0,-256)" /></svg>