<?xml version="1.0" encoding="utf-8" ?>
<svg baseProfile="full" height="256" version="1.1" width="256" xmlns="http://www.w3.org/2000/svg" xmlns:ev="http://www.w3.org/2001/xml-events" xmlns:xlink="http://www.w3.org/1999/xlink"><defs /><path d="M69 -10Q69 -10 75.0 -30.5Q81 -51 104 -74Q117 -86 139.5 -95.5Q162 -105 182 -106Q194 -107 233.5 -108.0Q273 -109 330.0 -109.5Q387 -110 453.5 -110.5Q520 -111 586.5 -111.5Q653 -112 711.0 -112.0Q769 -112 809.5 -112.0Q850 -112 864 -112Q884 -112 919.0 -111.5Q954 -111 994.5 -110.5Q1035 -110 1072.5 -109.0Q1110 -108 1135.0 -106.5Q1160 -105 1164 -103Q1173 -100 1187.0 -81.5Q1201 -63 1202 -50Q1202 -40 1202.5 -18.0Q1203 4 1203.0 28.0Q1203 52 1202.5 69.5Q1202 87 1202 87L1170 182Q1170 182 1166.0 188.0Q1162 194 1153.0 197.0Q1144 200 1130 191Q1108 177 1090.0 166.5Q1072 156 1058 156Q1049 155 1001.0 155.0Q953 155 874.0 155.5Q795 156 695 156Q544 157 450.5 157.5Q357 158 312 151Q261 143 224.0 126.0Q187 109 151 80Q108 46 88.5 18.0Q69 -10 69 -10Z" fill="#d70617" stroke="none" transform="scale(1,-1) translate(0,-256)" /></svg>