<?xml version="1.0" encoding="utf-8" ?>
<svg baseProfile="full" height="256" version="1.1" width="256" xmlns="http://www.w3.org/2000/svg" xmlns:ev="http://www.w3.org/2001/xml-events" xmlns:xlink="http://www.w3.org/1999/xlink"><defs /><path d="M1060 50Q1075 43 1078.0 25.5Q1081 8 1076 -16Q1072 -32 1064.5 -48.5Q1057 -65 1046.0 -75.0Q1035 -85 1021 -80Q1003 -75 1005.5 -57.0Q1008 -39 1015 -11Q1022 16 1033.5 36.5Q1045 57 1060 50Z" fill="#2e2e27" stroke="none" transform="scale(1,-1) translate(0,-256)" /><path d="M909 117Q925 113 929.5 99.0Q934 85 932.5 67.0Q931 49 927 34Q924 19 916.0 1.5Q908 -16 895.5 -27.0Q883 -38 864 -32Q850 -28 849.0 -16.0Q848 -4 854.0 12.0Q860 28 864 47Q868 64 872.0 82.0Q876 100 884.5 111.0Q893 122 909 117Z" fill="#2e2e27" stroke="none" transform="scale(1,-1) translate(0,-256)" /><path d="M739 159Q757 155 761.0 140.0Q765 125 761.0 105.5Q757 86 751 67Q742 38 727.5 20.5Q713 3 694 10Q679 15 680.0 37.0Q681 59 689 87Q694 106 699.0 124.5Q704 143 713.0 153.5Q722 164 739 159Z" fill="#2e2e27" stroke="none" transform="scale(1,-1) translate(0,-256)" /><path d="M505 81Q494 93 498.0 107.5Q502 122 513.0 136.0Q524 150 532 161Q541 173 554.0 187.5Q567 202 581.0 208.5Q595 215 607 206Q622 195 619.0 178.5Q616 162 605.0 144.5Q594 127 585 115Q575 101 561.0 88.5Q547 76 532.0 72.0Q517 68 505 81Z" fill="#2e2e27" stroke="none" transform="scale(1,-1) translate(0,-256)" /><path d="M377 259Q373 279 384.0 290.0Q395 301 413.0 307.5Q431 314 446 320Q460 326 479.5 334.5Q499 343 514.5 344.0Q530 345 534 329Q540 306 520.0 286.5Q500 267 478 255Q457 242 435.0 240.0Q413 238 396.5 243.0Q380 248 377 259Z" fill="#2e2e27" stroke="none" transform="scale(1,-1) translate(0,-256)" /><path d="M533 499Q540 475 519.5 457.5Q499 440 474 431Q460 425 436.0 421.0Q412 417 392.0 420.0Q372 423 371 439Q369 457 382.0 464.5Q395 472 414.5 475.5Q434 479 451 485Q471 491 488.5 498.5Q506 506 517.5 508.0Q529 510 533 499Z" fill="#2e2e27" stroke="none" transform="scale(1,-1) translate(0,-256)" /><path d="M345 725Q334 731 322.0 727.5Q310 724 303 712Q296 701 299.0 688.5Q302 676 313 670Q323 663 335.5 667.0Q348 671 355 682Q361 694 358.5 706.5Q356 719 345 725Z" fill="#2e2e27" stroke="none" transform="scale(1,-1) translate(0,-256)" /></svg>