<?xml version="1.0" encoding="utf-8" ?>
<svg baseProfile="full" height="256" version="1.1" width="256" xmlns="http://www.w3.org/2000/svg" xmlns:ev="http://www.w3.org/2001/xml-events" xmlns:xlink="http://www.w3.org/1999/xlink"><defs /><path d="M557 260Q544 283 540.0 322.5Q536 362 537.0 411.0Q538 460 540.0 510.5Q542 561 540.5 607.0Q539 653 529 685Q513 739 473.5 772.5Q434 806 383.5 818.0Q333 830 286 821Q240 813 205.5 782.5Q171 752 155.0 710.0Q139 668 149 625Q156 595 173.0 578.0Q190 561 210.0 552.5Q230 544 244.5 539.0Q259 534 261 528Q265 516 264.5 474.5Q264 433 265 383Q266 358 268.5 321.5Q271 285 277.0 243.5Q283 202 294.0 162.5Q305 123 322 93Q359 29 413.5 -13.0Q468 -55 516 -75Q533 -82 565.0 -88.5Q597 -95 636.0 -101.0Q675 -107 714.5 -112.5Q754 -118 785.5 -122.5Q817 -127 833 -130Q859 -136 890.0 -151.0Q921 -166 953.0 -179.0Q985 -192 1014 -194Q1038 -195 1063.0 -187.0Q1088 -179 1107.0 -157.0Q1126 -135 1132 -95Q1139 -54 1120.0 -14.5Q1101 25 1061.0 57.5Q1021 90 965 109Q901 129 838.0 142.0Q775 155 719.0 168.5Q663 182 621.0 203.0Q579 224 557 260Z" fill="#b7d019" stroke="none" transform="scale(1,-1) translate(0,-256)" /></svg>