<?xml version="1.0" encoding="utf-8" ?>
<svg baseProfile="full" height="256" version="1.1" width="256" xmlns="http://www.w3.org/2000/svg" xmlns:ev="http://www.w3.org/2001/xml-events" xmlns:xlink="http://www.w3.org/1999/xlink"><defs /><path d="M594 534Q589 540 578.5 537.0Q568 534 558 524Q548 515 544.5 504.5Q541 494 546 489Q551 484 561.5 487.0Q572 490 582 499Q592 509 595.5 519.0Q599 529 594 534Z" fill="#9e740b" stroke="none" transform="scale(1,-1) translate(0,-256)" /><path d="M602 496Q622 511 629 503Q633 499 628.0 488.5Q623 478 612 468Q601 457 590.0 452.5Q579 448 575 453Q568 460 584 479L571 493L589 510Z" fill="#9e740b" stroke="none" transform="scale(1,-1) translate(0,-256)" /><path d="M681.5619964599609 614.25Q676.5619964599609 620.25 666.0619964599609 617.25Q655.5619964599609 614.25 645.5619964599609 604.25Q635.5619964599609 595.25 632.0619964599609 584.75Q628.5619964599609 574.25 633.5619964599609 569.25Q638.5619964599609 564.25 649.0619964599609 567.25Q659.5619964599609 570.25 669.5619964599609 579.25Q679.5619964599609 589.25 683.0619964599609 599.25Q686.5619964599609 609.25 681.5619964599609 614.25Z" fill="#9e740b" stroke="none" transform="scale(1,-1) translate(0,-256)" /><path d="M689.5619964599609 576.25Q709.5619964599609 591.25 716.5619964599609 583.25Q720.5619964599609 579.25 715.5619964599609 568.75Q710.5619964599609 558.25 699.5619964599609 548.25Q688.5619964599609 537.25 677.5619964599609 532.75Q666.5619964599609 528.25 662.5619964599609 533.25Q655.5619964599609 540.25 671.5619964599609 559.25L658.5619964599609 573.25L676.5619964599609 590.25Z" fill="#9e740b" stroke="none" transform="scale(1,-1) translate(0,-256)" /><path d="M800 666Q796 670 785.5 665.5Q775 661 763 651Q752 640 747.0 629.5Q742 619 746 615Q750 610 761.0 614.5Q772 619 783 630Q794 640 799.0 650.5Q804 661 800 666Z" fill="#9e740b" stroke="none" transform="scale(1,-1) translate(0,-256)" /><path d="M765.1880035400391 696.281005859375Q760.1880035400391 702.281005859375 749.6880035400391 699.281005859375Q739.1880035400391 696.281005859375 729.1880035400391 686.281005859375Q719.1880035400391 677.281005859375 715.6880035400391 666.781005859375Q712.1880035400391 656.281005859375 717.1880035400391 651.281005859375Q722.1880035400391 646.281005859375 732.6880035400391 649.281005859375Q743.1880035400391 652.281005859375 753.1880035400391 661.281005859375Q763.1880035400391 671.281005859375 766.6880035400391 681.281005859375Q770.1880035400391 691.281005859375 765.1880035400391 696.281005859375Z" fill="#9e740b" stroke="none" transform="scale(1,-1) translate(0,-256)" /><path d="M742.4153137207031 654.9483642578125 764.2110595703125 631.764404296875 782.2239074707031 648.720458984375 760.4281616210938 671.9044189453125Z" fill="#9e740b" stroke="none" transform="scale(1,-1) translate(0,-256)" /></svg>