<?xml version="1.0" encoding="utf-8" ?>
<svg baseProfile="full" height="256" version="1.1" width="256" xmlns="http://www.w3.org/2000/svg" xmlns:ev="http://www.w3.org/2001/xml-events" xmlns:xlink="http://www.w3.org/1999/xlink"><defs /><path d="M485 385Q514 385 533 397Q542 402 540 392Q538 375 522.0 363.0Q506 351 485 351Q463 351 447.0 363.0Q431 375 429 392Q427 402 436 397Q456 385 485 385Z" fill="#404040" stroke="none" transform="scale(1,-1) translate(0,-256)" /><path d="M790 385Q819 385 839 397Q848 402 846 392Q844 375 828.0 363.0Q812 351 790 351Q769 351 753.0 363.0Q737 375 735 392Q733 402 742 397Q761 385 790 385Z" fill="#404040" stroke="none" transform="scale(1,-1) translate(0,-256)" /></svg>