<?xml version="1.0" encoding="utf-8" ?>
<svg baseProfile="full" height="256" version="1.1" width="256" xmlns="http://www.w3.org/2000/svg" xmlns:ev="http://www.w3.org/2001/xml-events" xmlns:xlink="http://www.w3.org/1999/xlink"><defs /><path d="M553.156005859375 464.25Q558.156005859375 457.25 553.156005859375 449.25Q547.156005859375 442.25 535.156005859375 446.25Q529.156005859375 448.25 517.156005859375 452.75Q505.156005859375 457.25 485.156005859375 457.25Q465.156005859375 457.25 453.156005859375 452.75Q441.156005859375 448.25 435.156005859375 446.25Q429.156005859375 444.25 424.156005859375 445.75Q419.156005859375 447.25 417.156005859375 449.25Q412.156005859375 457.25 417.156005859375 464.25Q424.156005859375 473.25 440.156005859375 482.75Q456.156005859375 492.25 485.156005859375 492.25Q514.156005859375 492.25 530.156005859375 482.75Q546.156005859375 473.25 553.156005859375 464.25Z" fill="#6d4c41" stroke="none" transform="scale(1,-1) translate(0,-256)" /><path d="M858 464Q863 457 858 450Q852 442 840 446Q834 448 822.0 452.5Q810 457 790 457Q770 457 758.0 452.5Q746 448 740 446Q734 444 729.0 445.5Q724 447 722 450Q716 457 722 464Q729 473 745.0 482.5Q761 492 790 492Q819 492 835.0 482.5Q851 473 858 464Z" fill="#6d4c41" stroke="none" transform="scale(1,-1) translate(0,-256)" /></svg>