<?xml version="1.0" encoding="utf-8" ?>
<svg baseProfile="full" height="256" version="1.1" width="256" xmlns="http://www.w3.org/2000/svg" xmlns:ev="http://www.w3.org/2001/xml-events" xmlns:xlink="http://www.w3.org/1999/xlink"><defs /><path d="M637.8978388207033 -50.585776251740754 721.5829031141475 -50.58604105282575Q777.3729459764436 -50.58621758688241 817.4721234897152 -44.59175711963326Q857.5713010029867 -38.5972966523841 881.9795530200936 -30.8900472917594Q906.3878050372005 -23.1827979311347 918.010810829699 -17.473703898489475Q929.6338166221976 -11.76460986584425 929.6338166221976 -11.76460986584425L905.225881380029 3.079207475297153L637.8984483117238 -7.196382091380656Z" fill="#000000" stroke="none" transform="scale(1,-1) translate(0,-256)" /><path d="M-887.6113128662109 -277.8118896484375Q-898.8839874267578 -296.1917724609375 -916.5835647583008 -302.01678466796875Q-934.2831420898438 -307.841796875 -948.8876495361328 -307.30413818359375Q-963.4921569824219 -306.7664794921875 -963.4921569824219 -306.7664794921875Q-963.4921569824219 -306.7664794921875 -955.8120727539062 -301.9441223144531Q-948.1319885253906 -297.12176513671875 -940.1937637329102 -289.3118896484375Q-932.2555389404297 -281.50201416015625 -929.9652862548828 -272.23968505859375Q-927.7125549316406 -260.5377197265625 -935.8759078979492 -253.70977783203125Q-944.0392608642578 -246.8818359375 -958.4043884277344 -242.1368408203125Q-958.4043884277344 -242.1368408203125 -958.4043884277344 -242.1368408203125Q-958.4043884277344 -242.1368408203125 -958.4043884277344 -242.1368408203125Q-958.4043884277344 -242.1368408203125 -945.6676559448242 -239.86270141601562Q-932.9309234619141 -237.58856201171875 -917.1062469482422 -238.37432861328125Q-901.2815704345703 -239.16009521484375 -891.2692031860352 -247.58001708984375Q-881.2568359375 -255.99993896484375 -887.6113128662109 -277.8118896484375Z" fill="#000000" stroke="none" transform="scale(1,-1) translate(0,-256)" /><path d="M352.78773498535156 1063.0186462402344Q352.78773498535156 1063.0186462402344 357.1298141479492 1060.8366012573242Q361.4718933105469 1058.654556274414 361.4718933105469 1058.654556274414Q361.4718933105469 1058.654556274414 362.43643951416016 1040.1751174926758Q363.40098571777344 1021.6956787109375 364.62137603759766 994.2102737426758Q365.8417663574219 966.7248687744141 366.23104095458984 939.1772689819336Q366.6203155517578 911.6296691894531 366.03453063964844 891.530029296875Q365.44874572753906 871.4303894042969 362.2734832763672 869.1871948242188Q356.82867431640625 863.7657928466797 348.6667175292969 861.1494293212891Q340.5047607421875 858.5330657958984 332.9501190185547 858.9705200195312Q322.9767303466797 858.2241821289062 313.57335662841797 861.0302658081055Q304.16998291015625 863.8363494873047 293.898193359375 867.0788421630859Q270.7120666503906 875.3716583251953 241.03672790527344 892.2039794921875Q211.36138916015625 909.0363006591797 184.10479736328125 927.0524139404297Q156.84820556640625 945.0685272216797 138.76593017578125 957.7544403076172Q120.68365478515625 970.4403533935547 120.68365478515625 970.4403533935547Q132.0208740234375 975.2999114990234 142.72399139404297 988.6357345581055Q153.42710876464844 1001.9715576171875 156.4531707763672 1006.2091674804688Q173.24571228027344 1027.5216064453125 203.14434814453125 1046.8064422607422Q233.04298400878906 1066.0912780761719 271.84432220458984 1072.5046615600586Q310.6456604003906 1078.9180450439453 352.78773498535156 1063.0186462402344Z" fill="#000000" stroke="none" transform="scale(1,-1) translate(0,-256)" /><path d="M-275.8713684082031 156.94747924804688Q-275.8713684082031 156.94747924804688 -280.18140411376953 160.77977752685547Q-284.49143981933594 164.61207580566406 -284.49143981933594 164.61207580566406Q-284.1930389404297 168.6009063720703 -281.8699188232422 188.4828643798828Q-279.5467987060547 208.3648223876953 -276.3232192993164 234.6975326538086Q-273.0996398925781 261.0302429199219 -270.51541900634766 284.40242767333984Q-267.9311981201172 307.7746124267578 -267.110595703125 318.743896484375Q-266.3645935058594 328.7159729003906 -265.80509185791016 336.19503021240234Q-265.24559020996094 343.67408752441406 -257.24334716796875 350.09478759765625Q-250.22142028808594 354.58326721191406 -242.21392059326172 355.4882278442383Q-234.2064208984375 356.3931884765625 -226.72637939453125 355.83343505859375Q-216.8275909423828 354.0898895263672 -207.49356079101562 350.3830261230469Q-198.15953063964844 346.67616271972656 -189.31565856933594 342.00318908691406Q-167.6215362548828 330.3518524169922 -140.781005859375 309.290283203125Q-113.94047546386719 288.2287139892578 -89.25233459472656 266.32542419433594Q-64.56419372558594 244.42213439941406 -48.98628234863281 229.2173309326172Q-33.40837097167969 214.0125274658203 -33.40837097167969 214.0125274658203Q-44.51127624511719 210.8322296142578 -57.532257080078125 198.77035522460938Q-70.55323791503906 186.70848083496094 -74.17610168457031 182.9684295654297Q-93.04693603515625 165.32757568359375 -125.89753723144531 150.7384490966797Q-158.74813842773438 136.14932250976562 -198.10897827148438 135.08364868164062Q-237.46981811523438 134.01797485351562 -275.8713684082031 156.94747924804688Z" fill="#000000" stroke="none" transform="scale(1,-1) translate(0,-256)" /><path d="M637.2899394228589 -50.61813657358289 553.6048771243077 -50.618395674973726Q497.8148355919402 -50.618568409234285 457.7158377363812 -44.62402149382979Q417.6168398808222 -38.62947457842529 393.2088182050502 -30.922115919180214Q368.80079652927816 -23.21475725993514 357.1779612060636 -17.505582705140114Q345.5551258828491 -11.796408150345087 345.5551258828491 -11.796408150345087L369.96350304293446 3.0476148277521133L637.2906233926769 -7.228136461228132Z" fill="#000000" stroke="none" transform="scale(1,-1) translate(0,-256)" /><path d="M2162.798324584961 -277.8128967285156Q2174.070999145508 -296.1927795410156 2191.770576477051 -302.0177917480469Q2209.4701538085938 -307.8428039550781 2224.074661254883 -307.3051452636719Q2238.679168701172 -306.7674865722656 2238.679168701172 -306.7674865722656Q2238.679168701172 -306.7674865722656 2230.9990844726562 -301.94512939453125Q2223.3190002441406 -297.1227722167969 2215.38077545166 -289.3128967285156Q2207.4425506591797 -281.5030212402344 2205.152297973633 -272.2406921386719Q2202.8995666503906 -260.5387268066406 2211.062919616699 -253.71078491210938Q2219.226272583008 -246.88284301757812 2233.5914001464844 -242.13784790039062Q2233.5914001464844 -242.13784790039062 2233.5914001464844 -242.13784790039062Q2233.5914001464844 -242.13784790039062 2233.5914001464844 -242.13784790039062Q2233.5914001464844 -242.13784790039062 2220.854667663574 -239.86370849609375Q2208.117935180664 -237.58956909179688 2192.293258666992 -238.37533569335938Q2176.4685821533203 -239.16110229492188 2166.456214904785 -247.58102416992188Q2156.44384765625 -256.0009460449219 2162.798324584961 -277.8128967285156Z" fill="#000000" stroke="none" transform="scale(1,-1) translate(0,-256)" /><path d="M639 50Q729 50 815.5 35.5Q902 21 972.0 -8.5Q1042 -38 1083.5 -82.0Q1125 -126 1125 -185V-212H150V-185Q150 -122 192.0 -77.5Q234 -33 304.0 -5.0Q374 23 461.0 36.5Q548 50 638 50Q638 50 638.0 50.0Q638 50 639 50Z" fill="#000000" stroke="none" transform="scale(1,-1) translate(0,-256)" /><path d="M604.1109161376953 -831.4924011230469Q628.3876342773438 -817.3395690917969 653.1257553100586 -804.6139984130859Q677.8638763427734 -791.888427734375 701.2631912231445 -773.8154602050781Q724.6625061035156 -755.7424926757812 745.4296112060547 -725.9091186523438Q766.1967163085938 -696.0757446289062 782.9298095703125 -646.527587890625Q782.9298095703125 -646.527587890625 790.5040817260742 -656.6905212402344Q798.0783538818359 -666.8534545898438 811.1293029785156 -671.0423583984375Q821.447021484375 -674.0128784179688 829.7653274536133 -670.7985992431641Q838.0836334228516 -667.5843200683594 838.0836334228516 -667.5843200683594Q839.0064392089844 -670.4388427734375 840.7612457275391 -678.2791137695312Q846.3684539794922 -710.0966186523438 837.3940811157227 -745.0510711669922Q828.4197082519531 -780.0055236816406 816.3971252441406 -800.7066955566406Q810.3858337402344 -811.0572814941406 794.9972229003906 -824.9644622802734Q779.6086120605469 -838.8716430664062 756.834716796875 -850.4368286132812Q734.0608215332031 -862.0020141601562 705.0792694091797 -864.0134582519531Q695.9919586181641 -864.8489685058594 689.7286834716797 -864.7716369628906Q665.0739898681641 -863.2825927734375 647.8601989746094 -854.6591339111328Q630.6464080810547 -846.0356750488281 620.0034942626953 -838.4410552978516Q609.3605804443359 -830.846435546875 604.1109161376953 -831.4924011230469Z" fill="#000000" stroke="none" transform="scale(1,-1) translate(0,-256)" /><path d="M879.1513061523438 612.0301513671875Q876.5179138183594 608.9034576416016 867.0967712402344 602.0410766601562Q857.6756286621094 595.1786956787109 850.4497985839844 588.8411407470703Q830.1899108886719 572.4724273681641 803.7132568359375 560.5722045898438Q777.2366027832031 548.6719818115234 753.6542358398438 563.5875854492188Q726.828125 581.3773803710938 723.5770111083984 602.9783401489258Q720.3258972167969 624.5792999267578 729.8430328369141 645.0067977905273Q739.3601684570312 665.4342956542969 752.7978515625 679.7878723144531Q766.2355346679688 694.1414489746094 772.0437622070312 697.8350524902344Q771.5712280273438 696.9537353515625 767.5891418457031 687.7419891357422Q763.6070556640625 678.5302429199219 761.7882843017578 665.3216171264648Q759.9695129394531 652.1129913330078 765.1083068847656 640.2795562744141Q775.518798828125 622.2149963378906 794.2675476074219 616.1323852539062Q813.0162963867188 610.0497741699219 830.5467987060547 609.726676940918Q848.0773010253906 609.4035797119141 851.9953918457031 609.5719146728516Q858.3450622558594 610.7057342529297 865.2017211914062 611.0003204345703Q872.0583801269531 611.2949066162109 879.1513061523438 612.0301513671875Z" fill="#000000" stroke="none" transform="scale(1,-1) translate(0,-256)" /><path d="M-518.844482421875 767.8453216552734Q-462.1629943847656 753.1530456542969 -422.1081008911133 733.5642776489258Q-382.05320739746094 713.9755096435547 -354.91490173339844 695.8558959960938Q-350.73486328125 692.8786010742188 -349.05326080322266 685.160026550293Q-347.3716583251953 677.4414520263672 -362.72279357910156 671.7037200927734Q-378.0739288330078 665.9659881591797 -426.26756286621094 669.7724609375Q-502.7814025878906 675.7341156005859 -547.8331680297852 685.8403244018555Q-592.8849334716797 695.946533203125 -614.9647521972656 707.9758377075195Q-637.0445709228516 720.0051422119141 -643.828010559082 731.0886764526367Q-650.6114501953125 742.1722106933594 -648.5305633544922 749.8326721191406Q-646.4496765136719 757.4931335449219 -644.4554901123047 759.7028961181641Q-629.5743865966797 774.7835693359375 -599.2166442871094 777.5634994506836Q-568.8589019775391 780.3434295654297 -518.844482421875 767.8453216552734Z" fill="#000000" stroke="none" transform="scale(1,-1) translate(0,-256)" /><path d="M410.56199645996094 906.0Q411.56199645996094 906.0 411.56199645996094 906.0Q411.56199645996094 906.0 411.56199645996094 906.0Q411.56199645996094 906.0 406.06199645996094 895.5Q400.56199645996094 885.0 397.56199645996094 867.0Q394.56199645996094 849.0 401.06199645996094 826.5Q407.56199645996094 804.0 431.56199645996094 779.0L358.56199645996094 791.0Q349.56199645996094 821.0 354.56199645996094 842.0Q359.56199645996094 863.0 371.56199645996094 876.5Q383.56199645996094 890.0 395.56199645996094 897.0Q407.56199645996094 904.0 410.56199645996094 906.0Q410.56199645996094 906.0 410.56199645996094 906.0Q410.56199645996094 906.0 410.56199645996094 906.0Q411.56199645996094 906.0 410.56199645996094 906.0Z" fill="#000000" stroke="none" transform="scale(1,-1) translate(0,-256)" /><path d="M-192.04054260253906 812.396728515625 -164.25660705566406 684.7537231445312Q-125.87309265136719 673.4582061767578 -111.6490478515625 658.9713897705078Q-97.42500305175781 644.4845733642578 -97.42500305175781 644.4845733642578Q-97.42500305175781 644.4845733642578 -94.27769470214844 648.4833374023438Q-91.13038635253906 652.4821014404297 -88.94874572753906 656.7406616210938Q-82.40382385253906 669.5163421630859 -77.77601623535156 690.5605773925781Q-73.14820861816406 711.6048126220703 -80.10130310058594 739.6410827636719Q-85.60945129394531 765.3504180908203 -102.24766540527344 780.4867248535156Q-118.88587951660156 795.6230316162109 -136.5039825439453 803.2701721191406Q-143.0204620361328 805.9924163818359 -146.8831329345703 807.0316009521484Z" fill="#000000" stroke="none" transform="scale(1,-1) translate(0,-256)" /><path d="M309.80335998535156 616.2489776611328Q309.80335998535156 616.2489776611328 311.41780853271484 617.5409927368164Q313.0322570800781 618.8330078125 313.0322570800781 618.8330078125Q323.56024169921875 627.4787750244141 338.0575942993164 631.0359954833984Q352.55494689941406 634.5932159423828 367.3603057861328 632.5562133789062L329.5534362792969 430.82545471191406Q326.7333679199219 431.2134552001953 322.3551712036133 433.32997131347656Q317.9769744873047 435.4464874267578 318.1132507324219 436.4371643066406Q318.1132507324219 436.4371643066406 308.0031433105469 443.88472747802734Q297.8930358886719 451.33229064941406 286.62181091308594 466.0055923461914Q275.3505859375 480.67889404296875 272.57225036621094 502.2591094970703Q268.49652099609375 530.0743865966797 274.0984344482422 552.5204544067383Q279.7003479003906 574.9665222167969 290.19287872314453 591.1878662109375Q300.68540954589844 607.4092102050781 309.80335998535156 616.2489776611328Z" fill="#000000" stroke="none" transform="scale(1,-1) translate(0,-256)" /><path d="M810 254Q810 254 823.5 228.5Q837 203 859.0 161.5Q881 120 907.5 70.5Q934 21 960.5 -29.0Q987 -79 1009.5 -120.5Q1032 -162 1045.5 -187.0Q1059 -212 1059 -212H735L595 172Q589 185 594 199Q572 216 554 243Q547 255 534.5 273.5Q522 292 512.5 306.5Q503 321 503 321L445 406Q431 426 435 448Q440 468 459 478Q462 480 467.0 481.5Q472 483 478 484Q477 485 476 487Q465 508 467.5 522.0Q470 536 478.0 544.0Q486 552 490 554Q504 563 520 560Q518 574 523 587Q531 606 551 613Q577 621 597 602Q604 615 616 621Q635 632 654 625Q676 617 685 593L686 591Q688 587 697.0 565.5Q706 544 717.0 517.5Q728 491 736 470Q736 470 741.5 485.0Q747 500 758 512Q777 531 793.5 532.0Q810 533 820.5 523.5Q831 514 832 504Q835 480 819 463Q815 457 809.5 435.0Q804 413 806 392Q807 387 808.0 374.0Q809 361 812 354Q821 325 821.5 305.0Q822 285 810 254Z" fill="#000000" stroke="none" transform="scale(1,-1) translate(0,-256)" /><path d="M804 520Q810 518 817.0 507.0Q824 496 815 483Q808 475 803.0 458.0Q798 441 795.5 422.0Q793 403 794 390Q795 374 800.5 353.5Q806 333 807.5 311.5Q809 290 798.0 270.0Q787 250 756 235Q749 232 733.5 225.5Q718 219 701.5 214.0Q685 209 674 209Q669 209 655.5 211.5Q642 214 623.0 226.0Q604 238 584 268Q577 279 564.5 297.5Q552 316 542.5 331.0Q533 346 533 346L475 431Q467 441 468.5 452.0Q470 463 481 469Q489 474 497.0 470.5Q505 467 513 458L552 410Q555 406 559 409Q564 412 561 417Q556 426 544.0 446.0Q532 466 521.0 485.0Q510 504 507 510Q502 520 501.5 529.5Q501 539 512 546Q523 552 532.5 546.5Q542 541 548 532Q550 528 559.5 513.0Q569 498 579.5 481.0Q590 464 598.0 451.5Q606 439 606 439Q609 434 614 437Q614 437 614.0 437.0Q614 437 614 437Q619 440 616 445L558 564Q552 576 554.5 587.0Q557 598 569 602Q579 605 587.0 600.0Q595 595 600 585L665 468Q666 465 668 467Q670 468 669 470L629 578Q625 588 627.0 598.0Q629 608 638 613Q649 619 659.0 613.5Q669 608 674 596Q674 596 682.0 577.5Q690 559 701.0 533.0Q712 507 722.0 482.5Q732 458 737 446Q738 442 742.0 442.0Q746 442 748 446Q752 457 752.0 473.5Q752 490 763 503Q774 516 785.0 519.5Q796 523 804 520Z" fill="#000000" stroke="none" transform="scale(1,-1) translate(0,-256)" /><path d="M775 -212H1087L808 274Q804 281 795 281Q792 281 790 280L634 212Q629 209 627 204Q624 198 627 193Q627 193 628 192Z" fill="#000000" stroke="none" transform="scale(1,-1) translate(0,-256)" /></svg>