<?xml version="1.0" encoding="utf-8" ?>
<svg baseProfile="full" height="256" version="1.1" width="256" xmlns="http://www.w3.org/2000/svg" xmlns:ev="http://www.w3.org/2001/xml-events" xmlns:xlink="http://www.w3.org/1999/xlink"><defs /><path d="M344 545 370 653 494 675Q494 675 537.5 678.5Q581 682 647 680Q676 679 708.5 676.5Q741 674 770.0 671.5Q799 669 817.0 667.0Q835 665 835 665L938 666L949 553Q949 553 960.5 554.0Q972 555 987.5 560.5Q1003 566 1015.5 579.5Q1028 593 1029 618Q1031 643 1000.0 663.0Q969 683 915.5 697.5Q862 712 795.0 720.5Q728 729 658 731Q564 734 497.0 726.0Q430 718 391.0 708.0Q352 698 342 696Q327 693 299.5 682.0Q272 671 260 648Q240 613 262 586Q273 572 292.5 563.0Q312 554 328.0 549.5Q344 545 344 545Z" fill="#e17f13" stroke="none" transform="scale(1,-1) translate(0,-256)" /></svg>