<?xml version="1.0" encoding="utf-8" ?>
<svg baseProfile="full" height="256" version="1.1" width="256" xmlns="http://www.w3.org/2000/svg" xmlns:ev="http://www.w3.org/2001/xml-events" xmlns:xlink="http://www.w3.org/1999/xlink"><defs /><path d="M915 688Q917 693 927.0 694.5Q937 696 947.0 690.5Q957 685 961 669Q964 652 957.5 642.5Q951 633 942.0 629.0Q933 625 929 626Q923 628 925.0 638.5Q927 649 926 658Q924 666 916.5 671.0Q909 676 915 688Z" fill="#ffffff" stroke="none" transform="scale(1,-1) translate(0,-256)" /><path d="M778 502Q785 504 790.0 493.0Q795 482 807 462Q815 448 823.0 439.0Q831 430 827 423Q823 415 808.0 418.0Q793 421 782 443Q772 463 771.0 481.5Q770 500 778 502Z" fill="#ffffff" stroke="none" transform="scale(1,-1) translate(0,-256)" /><path d="M411 601Q416 610 425.5 608.0Q435 606 446.5 600.0Q458 594 470 590Q487 586 508.0 582.0Q529 578 528 568Q527 556 510.5 551.5Q494 547 462 556Q430 566 417.5 579.0Q405 592 411 601Z" fill="#ffffff" stroke="none" transform="scale(1,-1) translate(0,-256)" /><path d="M377 731Q389 724 381.5 712.0Q374 700 371 689Q368 679 371.5 669.5Q375 660 377.5 652.0Q380 644 374 640Q363 634 350.0 643.0Q337 652 328.5 668.0Q320 684 321 698Q323 716 334.5 724.0Q346 732 358.5 733.0Q371 734 377 731Z" fill="#ffffff" stroke="none" transform="scale(1,-1) translate(0,-256)" /><path d="M877 32Q887 32 887.0 21.0Q887 10 887 2Q887 -5 885.5 -17.0Q884 -29 876 -29Q867 -29 865.5 -21.0Q864 -13 865 -1Q865 11 866.0 21.0Q867 31 877 32Z" fill="#ffffff" stroke="none" transform="scale(1,-1) translate(0,-256)" /></svg>