<?xml version="1.0" encoding="utf-8" ?>
<svg baseProfile="full" height="256" version="1.1" width="256" xmlns="http://www.w3.org/2000/svg" xmlns:ev="http://www.w3.org/2001/xml-events" xmlns:xlink="http://www.w3.org/1999/xlink"><defs /><path d="M301 576 976 573Q976 573 982.5 567.5Q989 562 996.0 555.5Q1003 549 1005 546Q1009 543 1013.0 537.5Q1017 532 1017 532Q1017 532 1016.5 520.0Q1016 508 1015.5 491.5Q1015 475 1014.5 462.0Q1014 449 1014 447Q1014 446 986.0 439.0Q958 432 911.5 421.0Q865 410 809.5 397.0Q754 384 698.0 371.0Q642 358 595.5 347.5Q549 337 521.0 330.5Q493 324 493 324L264 538Z" fill="#ac5811" stroke="none" transform="scale(1,-1) translate(0,-256)" /><path d="M629 -106Q534 -104 467.0 -91.0Q400 -78 364.5 -65.5Q329 -53 329 -53Q329 -53 317.0 -32.0Q305 -11 285 28Q275 46 265.5 68.0Q256 90 250.0 106.5Q244 123 244 123Q244 123 269.0 110.0Q294 97 343.0 80.5Q392 64 463.5 51.0Q535 38 628 39Q745 39 821.5 51.0Q898 63 942.5 78.5Q987 94 1006.0 106.0Q1025 118 1025 118Q1025 118 1019.5 103.5Q1014 89 1007.0 69.0Q1000 49 993 33Q986 17 978.0 -1.5Q970 -20 964.0 -33.0Q958 -46 958 -46Q958 -46 922.0 -62.0Q886 -78 813.0 -93.0Q740 -108 629 -106Z" fill="#ac5811" stroke="none" transform="scale(1,-1) translate(0,-256)" /></svg>