<?xml version="1.0" encoding="utf-8" ?>
<svg baseProfile="full" height="256" version="1.1" width="256" xmlns="http://www.w3.org/2000/svg" xmlns:ev="http://www.w3.org/2001/xml-events" xmlns:xlink="http://www.w3.org/1999/xlink"><defs /><path d="M690 593 792 584 968 760Q968 760 981.5 760.0Q995 760 1011 766Q1027 771 1040.5 786.5Q1054 802 1057 818Q1058 825 1047.5 841.0Q1037 857 1021.0 874.0Q1005 891 989.0 903.0Q973 915 964 916Q945 918 926.0 897.0Q907 876 903 856Q900 844 901.0 826.0Q902 808 902 808Q902 808 887.0 793.0Q872 778 848.0 753.5Q824 729 797.0 701.5Q770 674 746.0 649.5Q722 625 706.5 609.5Q691 594 690 593Z" fill="#ae5614" stroke="none" transform="scale(1,-1) translate(0,-256)" /></svg>