<?xml version="1.0" encoding="utf-8" ?>
<svg baseProfile="full" height="256" version="1.1" width="256" xmlns="http://www.w3.org/2000/svg" xmlns:ev="http://www.w3.org/2001/xml-events" xmlns:xlink="http://www.w3.org/1999/xlink"><defs /><path d="M734 344Q708 357 677.0 351.5Q646 346 623 330Q608 319 599.0 303.5Q590 288 585.5 276.0Q581 264 581 264Q581 264 590.5 264.0Q600 264 615 269Q629 275 642.5 290.0Q656 305 669 316Q677 323 692.5 329.5Q708 336 721.0 340.0Q734 344 734 344Z" fill="#a1d65c" stroke="none" transform="scale(1,-1) translate(0,-256)" /><path d="M1091 -44Q1087 -58 1078.0 -63.0Q1069 -68 1069 -68Q1069 -68 1063.0 -59.0Q1057 -50 1063 -30Q1064 -26 1067.5 -14.5Q1071 -3 1072 1Q1075 12 1070.0 16.0Q1065 20 1053 -4Q1046 -18 1034.5 -16.5Q1023 -15 1023 -15Q1023 -15 1022.0 -3.5Q1021 8 1028 21Q1034 33 1042.5 47.0Q1051 61 1046 66Q1038 72 1035.0 63.0Q1032 54 1020 38Q1012 28 1002.5 27.0Q993 26 993 26Q993 26 990.5 36.5Q988 47 990 56Q995 71 1000.5 83.5Q1006 96 1015 111Q1023 126 1018.0 133.5Q1013 141 1003 124Q998 116 992.0 105.5Q986 95 979 82Q971 66 956.0 64.0Q941 62 941 62Q941 62 938.0 74.0Q935 86 939 100Q943 112 950.0 126.5Q957 141 965 152Q984 184 977 189Q968 194 961.5 185.0Q955 176 949 167Q941 156 930.5 136.5Q920 117 914 107Q909 100 899.0 95.5Q889 91 880.5 89.0Q872 87 872 87Q872 87 868.5 97.0Q865 107 869 127Q872 142 881.5 161.0Q891 180 900 194Q912 211 918.5 221.5Q925 232 916 235Q907 237 898.5 229.5Q890 222 883 211Q873 197 864.5 181.5Q856 166 838 143Q829 132 814.0 125.0Q799 118 799 118Q799 118 794.0 130.5Q789 143 793 160Q798 177 813.5 200.5Q829 224 848 247Q865 266 860.0 270.5Q855 275 843 270Q837 268 829.5 261.0Q822 254 811 238Q801 225 787.5 208.0Q774 191 760 172Q751 159 734.5 154.5Q718 150 718 150Q718 150 714.5 157.5Q711 165 714 181Q717 198 727.5 218.5Q738 239 760 262Q766 269 774.5 277.0Q783 285 786.5 291.0Q790 297 780 298Q772 299 757.5 285.5Q743 272 726.0 255.5Q709 239 693 230Q676 221 661.5 222.5Q647 224 647 224Q647 224 647.5 239.0Q648 254 664 273Q680 291 697.5 304.0Q715 317 724 320Q747 327 757.5 325.0Q768 323 781 323Q793 322 801.0 328.0Q809 334 819 342Q829 350 839.0 353.0Q849 356 862 359Q882 363 902.0 359.0Q922 355 935 348Q942 345 945.5 342.5Q949 340 949 340Q949 340 943.5 338.0Q938 336 929 335Q915 334 896.5 332.0Q878 330 868 327Q855 324 845.0 318.0Q835 312 838 309Q843 305 857.5 308.5Q872 312 887 315Q913 321 933.5 323.5Q954 326 976 322Q1002 318 1017.5 306.0Q1033 294 1033 294Q1033 294 1027.0 289.5Q1021 285 1005 283Q998 282 986.0 282.0Q974 282 963 281Q942 280 926.5 277.5Q911 275 906 267Q903 261 916.5 262.5Q930 264 954.0 266.0Q978 268 1006 267Q1034 265 1048.0 254.5Q1062 244 1067.0 234.5Q1072 225 1072 225Q1072 225 1061.5 225.0Q1051 225 1031 226Q1006 228 985.0 226.5Q964 225 968 218Q972 211 990.0 212.0Q1008 213 1036 210Q1062 208 1075.5 198.0Q1089 188 1093.5 178.5Q1098 169 1098 169Q1098 169 1091.5 166.5Q1085 164 1067 167Q1058 168 1043.5 169.5Q1029 171 1018.0 170.5Q1007 170 1008 165Q1009 159 1020.5 156.0Q1032 153 1046.5 150.5Q1061 148 1072 146Q1095 143 1107.0 131.0Q1119 119 1123.5 109.0Q1128 99 1128 99Q1128 99 1119.5 96.5Q1111 94 1075 103Q1068 105 1058.5 106.0Q1049 107 1049 98Q1049 92 1065.5 88.0Q1082 84 1095 79Q1122 70 1127.5 54.5Q1133 39 1133 39Q1133 39 1127.0 35.5Q1121 32 1095 43Q1090 44 1083.0 47.0Q1076 50 1074 47Q1069 39 1078.5 34.5Q1088 30 1101 23Q1116 15 1124.5 5.5Q1133 -4 1132 -25Q1132 -25 1125.0 -24.0Q1118 -23 1113 -17Q1092 3 1092 -11Q1092 -23 1092.0 -31.0Q1092 -39 1091 -44Z" fill="#a1d65c" stroke="none" transform="scale(1,-1) translate(0,-256)" /><path d="M246 -72Q248 -76 251.5 -85.0Q255 -94 253 -111Q251 -128 241.5 -136.5Q232 -145 232 -145Q232 -145 224.0 -135.5Q216 -126 218 -105Q219 -95 224.0 -86.0Q229 -77 226 -74Q222 -71 216.5 -73.5Q211 -76 204 -78Q190 -83 182.5 -81.5Q175 -80 175 -80Q178 -58 187.0 -51.0Q196 -44 203 -40Q210 -37 222.0 -33.5Q234 -30 238 -29Q250 -26 257.0 -20.5Q264 -15 252 -13Q245 -12 231.0 -15.5Q217 -19 212 -20Q193 -21 187.5 -16.5Q182 -12 182 -12Q182 -12 186.0 -1.0Q190 10 208 19Q222 26 243.0 28.5Q264 31 278 32Q289 32 303.0 35.5Q317 39 308 47Q301 53 275.0 48.0Q249 43 224 44Q211 44 204.5 50.5Q198 57 198 57Q198 57 207.5 70.5Q217 84 240 90Q259 94 277.5 94.0Q296 94 316 93Q327 92 336.5 93.0Q346 94 350 103Q352 110 334.5 111.0Q317 112 293.5 112.0Q270 112 253 114Q241 115 235.0 124.0Q229 133 229 133Q229 133 240.5 144.0Q252 155 275 159Q308 164 323.5 163.5Q339 163 358 159Q376 156 390.5 158.0Q405 160 397 168Q392 174 377.0 176.5Q362 179 343.5 181.0Q325 183 310 189Q293 194 290.5 203.0Q288 212 288 212Q288 212 302.5 221.5Q317 231 339 230Q355 229 381.0 225.5Q407 222 426 214Q431 212 435.5 211.5Q440 211 443 215Q448 220 442.0 223.5Q436 227 427 232Q416 237 393.5 241.5Q371 246 361 251Q346 259 342.5 265.0Q339 271 339 271Q339 271 357.0 278.0Q375 285 401 284Q437 283 464 273Q478 268 490.0 261.0Q502 254 506 252Q515 248 511.5 255.0Q508 262 499 270Q486 283 460.0 290.0Q434 297 419 304Q405 310 402.5 318.0Q400 326 400 326Q409 333 427.5 337.0Q446 341 458 341Q489 341 514.0 326.0Q539 311 550 292Q558 278 558.5 269.0Q559 260 560 257Q561 252 570.0 253.5Q579 255 594.5 249.5Q610 244 631 220Q659 187 665 156Q668 142 666.0 130.5Q664 119 664 119Q664 119 655.0 119.0Q646 119 634.5 122.5Q623 126 616 136Q603 154 597.0 169.0Q591 184 580 201Q556 238 542 231Q534 228 542.5 219.0Q551 210 558 196Q564 185 572.0 169.0Q580 153 587 128Q596 96 590.5 84.0Q585 72 585 72Q585 72 567.0 77.0Q549 82 539 100Q531 115 521.0 133.0Q511 151 499 170Q481 196 470 188Q465 185 469.0 175.5Q473 166 479 157Q492 137 498.0 119.5Q504 102 509 81Q512 63 506.5 48.0Q501 33 501 33Q501 33 492.5 33.5Q484 34 472.5 38.5Q461 43 454 55Q446 68 442.0 78.0Q438 88 422 111Q416 121 409.0 127.0Q402 133 396 126Q390 120 395.0 110.5Q400 101 404 93Q412 77 416.5 66.0Q421 55 425 44Q432 21 427.0 7.0Q422 -7 422 -7Q422 -7 408.5 -5.0Q395 -3 383 13Q376 22 371.0 32.0Q366 42 361 50Q353 64 345.5 65.0Q338 66 335 57Q332 49 341.0 36.0Q350 23 357 7Q365 -16 358.5 -29.5Q352 -43 352 -43Q352 -43 338.5 -42.0Q325 -41 314 -20Q302 3 293.5 4.0Q285 5 282 1Q276 -7 285.5 -18.0Q295 -29 301 -44Q308 -60 303.5 -70.0Q299 -80 299 -80Q299 -80 290.0 -82.0Q281 -84 270 -72Q263 -64 258.5 -55.5Q254 -47 247 -51Q240 -54 242.0 -61.5Q244 -69 246 -72Z" fill="#a1d65c" stroke="none" transform="scale(1,-1) translate(0,-256)" /></svg>