<?xml version="1.0" encoding="utf-8" ?>
<svg baseProfile="full" height="256" version="1.1" width="256" xmlns="http://www.w3.org/2000/svg" xmlns:ev="http://www.w3.org/2001/xml-events" xmlns:xlink="http://www.w3.org/1999/xlink"><defs /><path d="M840 512Q837 491 823.5 467.0Q810 443 794 424Q792 422 797.0 404.5Q802 387 807.0 370.0Q812 353 811 351Q808 347 804.0 344.0Q800 341 795 339Q771 329 744.0 326.5Q717 324 690 324Q619 324 549 331Q545 331 541.5 331.5Q538 332 536 335Q533 337 532.0 340.5Q531 344 530 347Q516 408 520 471Q520 475 520.0 480.0Q520 485 519 489Q513 505 503.5 513.0Q494 521 486.0 530.0Q478 539 479 557Q479 566 477.0 579.0Q475 592 475.5 604.5Q476 617 484 623Q495 632 514.0 626.5Q533 621 553 610Q560 606 571.5 601.0Q583 596 594.0 596.0Q605 596 611 607Q613 613 604.0 618.0Q595 623 587 628Q579 633 562.5 644.5Q546 656 537 664Q524 677 525.0 694.0Q526 711 526 711Q526 711 536.5 715.0Q547 719 564 712Q577 706 589.0 698.0Q601 690 613 685Q629 677 631.5 689.0Q634 701 620 709Q613 712 597.0 722.5Q581 733 576 736Q567 742 565.0 753.5Q563 765 564.0 774.0Q565 783 565 783Q565 783 577.0 787.0Q589 791 599 786Q606 783 612.5 779.0Q619 775 623 772Q636 765 641.0 772.5Q646 780 635 789Q624 798 617.5 803.0Q611 808 605 816Q595 828 597.5 841.5Q600 855 600 855Q600 855 611.0 857.0Q622 859 632 853Q639 848 643.0 845.0Q647 842 651 845Q655 850 652.0 856.5Q649 863 644 871Q637 883 638.0 900.0Q639 917 647 929Q647 929 656.0 924.0Q665 919 671 908Q679 894 675.5 884.0Q672 874 674 868Q677 863 683.5 867.0Q690 871 696.5 876.0Q703 881 704 879Q706 876 706.5 863.5Q707 851 699 839Q693 831 688.0 828.0Q683 825 675 820Q660 809 664 803Q668 795 684 803Q689 805 693.0 808.0Q697 811 700 813Q709 820 715.5 819.5Q722 819 722 819Q722 819 724.0 809.0Q726 799 723.0 785.0Q720 771 704 760L672 739Q664 734 662.0 726.0Q660 718 665.0 715.0Q670 712 684 721Q688 724 694.5 728.0Q701 732 710 739Q721 747 732.5 745.0Q744 743 744 743Q744 743 747.0 733.5Q750 724 748.5 710.5Q747 697 735 685Q725 675 712.0 667.0Q699 659 687 650Q674 641 670.0 635.5Q666 630 668 624Q672 614 684.0 618.5Q696 623 708.5 632.5Q721 642 726 645Q735 651 743.0 652.0Q751 653 751 653Q760 656 770.5 653.5Q781 651 783 645Q792 621 785.0 606.0Q778 591 771 568L783 535Q783 535 794.0 535.0Q805 535 821 532Q837 529 838.5 521.5Q840 514 840 512Z" fill="#000000" stroke="none" transform="scale(1,-1) translate(0,-256)" /><path d="M1172 580Q1192 577 1196.0 572.5Q1200 568 1200 568Q1200 568 1195.5 562.5Q1191 557 1183 554Q1171 549 1163.0 549.5Q1155 550 1143 552Q1135 553 1125.0 556.0Q1115 559 1112 553Q1109 548 1112.5 543.5Q1116 539 1121 538Q1121 538 1129.0 534.0Q1137 530 1145 525Q1156 518 1158.0 506.0Q1160 494 1160 494Q1160 494 1144.5 490.0Q1129 486 1117 490Q1106 494 1095.5 498.5Q1085 503 1073 509Q1061 515 1056.0 515.0Q1051 515 1047 511Q1040 504 1053 494Q1053 494 1063.0 489.0Q1073 484 1085.5 476.5Q1098 469 1104 462Q1111 453 1109.0 440.5Q1107 428 1107 428Q1107 428 1090.5 427.5Q1074 427 1060 435Q1060 435 1051.0 439.0Q1042 443 1031.5 448.5Q1021 454 1015 457Q1006 462 996.5 466.0Q987 470 980 465Q969 459 983 447Q983 447 993.0 441.0Q1003 435 1016.5 425.5Q1030 416 1038 409Q1053 395 1055.0 378.5Q1057 362 1057 362Q1057 362 1048.0 359.5Q1039 357 1026.5 356.5Q1014 356 1002 362Q984 372 976.0 377.0Q968 382 964.0 385.0Q960 388 952 392Q937 400 923.0 404.0Q909 408 905 402Q899 393 907.0 388.5Q915 384 920 381Q920 381 934.5 373.0Q949 365 966.0 354.5Q983 344 990 335Q1008 312 1007.0 301.5Q1006 291 1006 291Q1006 291 989.5 289.0Q973 287 945 302Q921 315 907.0 310.5Q893 306 884 305Q884 305 895.5 300.5Q907 296 922.5 288.0Q938 280 952.0 269.5Q966 259 971 248Q971 247 963.0 240.5Q955 234 946.5 227.5Q938 221 936 221Q928 217 920.0 207.0Q912 197 906.5 188.0Q901 179 901 179L812 182H799Q800 167 798 154Q763 154 728.5 154.0Q694 154 659 154Q635 154 611.0 154.0Q587 154 564 154Q553 154 532.5 153.5Q512 153 504 159Q493 167 494.5 186.0Q496 205 505.0 227.5Q514 250 524.5 269.0Q535 288 540 297Q562 328 593.5 351.0Q625 374 662 384Q673 388 684.5 391.0Q696 394 705 401Q719 411 724 429Q731 454 744.0 459.0Q757 464 772.0 458.5Q787 453 801.0 445.0Q815 437 825 436Q837 436 842.0 454.0Q847 472 848.5 493.5Q850 515 852 523Q854 537 862.5 543.5Q871 550 878.5 552.0Q886 554 886 554Q886 554 895.5 547.5Q905 541 906 524Q907 505 907.0 498.5Q907 492 907 477Q908 466 913.5 462.0Q919 458 925 461Q935 464 935.5 473.5Q936 483 936 483Q935 489 935.5 509.0Q936 529 936 543Q937 564 950.5 573.5Q964 583 964 583Q964 583 973.0 580.5Q982 578 983 565Q983 553 982.5 546.0Q982 539 982 531Q982 520 987.5 516.0Q993 512 999 517Q1005 522 1006.0 529.5Q1007 537 1008 543Q1010 557 1011.0 563.5Q1012 570 1015 580Q1019 598 1030.5 602.0Q1042 606 1042 606Q1042 606 1052.5 602.0Q1063 598 1061 582Q1061 582 1060.5 575.0Q1060 568 1059 558Q1058 542 1070 545Q1077 547 1077.5 551.5Q1078 556 1079 565Q1081 575 1082.5 582.0Q1084 589 1086 599Q1090 611 1099.5 616.0Q1109 621 1109 621Q1109 621 1116.0 616.5Q1123 612 1122 599Q1121 592 1120.0 588.0Q1119 584 1122 582Q1130 576 1134.5 587.0Q1139 598 1143 604Q1149 617 1159.0 620.0Q1169 623 1169 623Q1169 623 1171.0 617.0Q1173 611 1171 601Q1169 594 1165 585Q1163 581 1165.5 580.5Q1168 580 1172 580Z" fill="#000000" stroke="none" transform="scale(1,-1) translate(0,-256)" /><path d="M813 368Q816 366 818 364Q832 350 833.5 333.5Q835 317 842 300Q849 284 861.5 282.0Q874 280 886 273Q901 265 914.0 252.0Q927 239 938 226Q941 223 936 221Q928 217 920.0 207.0Q912 197 906.5 188.0Q901 179 901 179L812 182H799Q800 167 798 154H535Q535 154 522.5 158.5Q510 163 492.5 168.0Q475 173 459.0 176.0Q443 179 437 177Q448 211 461 235L440 250Q437 246 434.0 242.5Q431 239 428 235Q408 211 387.5 205.5Q367 200 367 200Q367 200 362.5 219.5Q358 239 366 260Q370 270 381.0 287.0Q392 304 402.0 317.0Q412 330 412 330Q415 335 420.5 342.0Q426 349 417 355Q411 359 400.0 350.0Q389 341 378 328Q373 320 370.0 316.0Q367 312 362.0 304.5Q357 297 344 280Q336 270 324.5 265.0Q313 260 303.5 259.0Q294 258 294 258Q294 258 289.0 274.0Q284 290 293 308Q297 319 305.5 332.5Q314 346 321.0 356.0Q328 366 328 366Q336 382 324 384Q315 384 308.0 377.0Q301 370 295 362Q290 357 282.5 347.5Q275 338 268.5 331.0Q262 324 262 324Q253 311 237.5 305.0Q222 299 222 299Q222 299 215.0 309.5Q208 320 211 331Q214 340 222.0 352.0Q230 364 237.5 372.5Q245 381 245 381Q253 395 244 399Q239 401 234.5 399.0Q230 397 221 387Q212 376 204.5 367.5Q197 359 188 352Q179 344 163.0 341.5Q147 339 147 339Q147 339 144.5 350.5Q142 362 148 373Q154 381 159.5 387.5Q165 394 165 394Q170 398 171.5 403.0Q173 408 168 411Q163 416 154.5 409.0Q146 402 139 398Q130 391 122.5 388.0Q115 385 102 384Q94 384 87.5 387.5Q81 391 81 391Q81 391 83.0 396.5Q85 402 102 412Q106 414 107.5 415.0Q109 416 106 420Q99 426 95 432Q88 440 87.5 446.5Q87 453 87 453Q87 453 97.5 454.0Q108 455 119 446Q125 442 133.5 434.0Q142 426 147 434Q149 437 146.0 440.5Q143 444 140 450Q134 462 138.5 468.5Q143 475 143 475Q143 475 153.5 474.5Q164 474 172 464Q179 456 183.0 450.0Q187 444 192 436Q197 428 199.5 424.0Q202 420 209 421Q222 423 214 437Q209 446 206.0 452.5Q203 459 203 459Q195 472 202.5 480.0Q210 488 210 488Q210 488 222.5 489.0Q235 490 246 475Q252 467 256.0 461.5Q260 456 267 444Q270 438 274.5 432.0Q279 426 286 424Q293 421 296.5 427.0Q300 433 295 443Q292 451 289.0 457.0Q286 463 281 475Q277 486 284.0 492.0Q291 498 291 498Q291 498 307.5 494.5Q324 491 333 473Q339 459 347.0 441.5Q355 424 357 417Q357 417 361.0 409.0Q365 401 376 401Q382 402 385.5 407.5Q389 413 385 424Q382 433 380.5 436.0Q379 439 377.0 443.5Q375 448 371 459Q363 480 368.0 493.5Q373 507 373 507Q373 507 389.5 506.0Q406 505 418 488Q424 480 433.0 465.0Q442 450 449.0 438.0Q456 426 456 426Q463 413 473.0 415.5Q483 418 480 425Q475 439 468.5 458.5Q462 478 457.5 493.5Q453 509 453 513Q453 530 462.5 537.0Q472 544 483 539Q492 534 500.0 521.0Q508 508 514.5 493.5Q521 479 525 471Q527 467 533.5 460.0Q540 453 546 454Q555 455 560.0 469.0Q565 483 567 492Q569 499 571.0 511.5Q573 524 576.5 534.0Q580 544 585 544Q590 544 595.5 534.5Q601 525 607 512Q620 483 620.0 453.5Q620 424 617.0 403.5Q614 383 620 381Q627 379 633.0 383.0Q639 387 643 392Q663 416 673 445Q677 456 681.5 467.0Q686 478 696 482Q707 486 718.0 478.5Q729 471 732 460Q735 448 731.0 436.5Q727 425 721 415Q719 411 716.5 406.5Q714 402 715 398Q715 391 721.0 386.5Q727 382 734 382Q741 381 748.0 382.5Q755 384 762 385Q790 388 813 368Z" fill="#000000" stroke="none" transform="scale(1,-1) translate(0,-256)" /><path d="M451.9798278808594 229.09840393066406V147.6329803466797H915.1453552246094V229.09840393066406Z" fill="#000000" stroke="none" transform="scale(1,-1) translate(0,-256)" /></svg>