<?xml version="1.0" encoding="utf-8" ?>
<svg baseProfile="full" height="256" version="1.1" width="256" xmlns="http://www.w3.org/2000/svg" xmlns:ev="http://www.w3.org/2001/xml-events" xmlns:xlink="http://www.w3.org/1999/xlink"><defs /><path d="M990 -163Q996 -170 999.5 -178.0Q1003 -186 997 -186Q993 -186 980.0 -186.5Q967 -187 950.5 -187.5Q934 -188 921.0 -187.5Q908 -187 906 -185Q903 -183 887.5 -159.0Q872 -135 850.0 -104.0Q828 -73 804 -51Q782 -31 762.5 -31.0Q743 -31 730.0 -44.0Q717 -57 715 -77Q714 -90 713.5 -111.5Q713 -133 712.5 -155.0Q712 -177 710.5 -192.5Q709 -208 707 -210Q705 -212 690.5 -213.0Q676 -214 664 -214Q657 -214 652.5 -213.5Q648 -213 648 -213Q648 -213 647.5 -178.0Q647 -143 646.5 -85.5Q646 -28 645.0 41.0Q644 110 643.0 179.5Q642 249 641.5 307.5Q641 366 641 401Q640 455 639.5 509.5Q639 564 638.5 609.5Q638 655 638.0 682.5Q638 710 638 710Q638 710 648.5 709.5Q659 709 670.5 709.0Q682 709 684 708Q687 708 687.0 697.0Q687 686 688.0 653.0Q689 620 693 556Q698 486 704.0 442.5Q710 399 716.5 371.5Q723 344 729 322Q740 278 750.0 244.0Q760 210 773.0 177.5Q786 145 807 104Q823 73 849.0 32.5Q875 -8 904 -49Q923 -77 942.0 -102.0Q961 -127 974.5 -143.5Q988 -160 990 -163ZM688 275Q674 270 676 255Q678 240 698 242Q710 244 712.5 251.0Q715 258 714 264Q712 271 704.5 274.0Q697 277 688 275ZM681 211Q680 209 684.5 200.0Q689 191 696.0 183.5Q703 176 707 176Q712 176 716.0 185.0Q720 194 721.5 204.0Q723 214 720 217Q718 220 709.0 220.0Q700 220 691.0 217.5Q682 215 681 211ZM793 21Q797 25 793.0 37.5Q789 50 781.0 64.5Q773 79 767 91Q761 102 752.5 117.5Q744 133 734.0 144.0Q724 155 714 153Q703 151 696.0 127.0Q689 103 687 70Q684 36 684.5 17.5Q685 -1 694 -2Q702 -4 711.5 1.0Q721 6 745 11Q768 15 777.5 14.5Q787 14 793 21Z" fill="#cd3001" stroke="none" transform="scale(1,-1) translate(0,-256)" /><path d="M755 141 774 120 713 -11H681Z" fill="#cd3001" stroke="none" transform="scale(1,-1) translate(0,-256)" /><path d="M687 135 675 107 781 7 813 12Z" fill="#cd3001" stroke="none" transform="scale(1,-1) translate(0,-256)" /></svg>