<?xml version="1.0" encoding="utf-8" ?>
<svg baseProfile="full" height="256" version="1.1" width="256" xmlns="http://www.w3.org/2000/svg" xmlns:ev="http://www.w3.org/2001/xml-events" xmlns:xlink="http://www.w3.org/1999/xlink"><defs /><path d="M663 403 662 -214Q662 -214 647.5 -213.5Q633 -213 617.0 -211.5Q601 -210 596 -207Q594 -205 592.0 -184.0Q590 -163 588.5 -135.5Q587 -108 584 -86Q580 -61 568.5 -49.0Q557 -37 541 -34Q518 -31 500.0 -43.5Q482 -56 467 -77Q462 -85 450.0 -102.0Q438 -119 424.5 -137.5Q411 -156 402.0 -169.0Q393 -182 393 -182Q393 -182 378.5 -182.0Q364 -182 345.5 -182.0Q327 -182 312.0 -181.5Q297 -181 296 -180Q290 -175 308.5 -154.0Q327 -133 362 -84Q379 -59 405.5 -21.0Q432 17 455 56Q470 81 484.5 111.5Q499 142 510.5 169.5Q522 197 529 215Q539 241 548.0 279.0Q557 317 564.0 357.5Q571 398 576.0 433.5Q581 469 583 490Q585 512 586.5 546.5Q588 581 589.5 617.0Q591 653 592.0 678.5Q593 704 594 707Q594 709 607.0 709.5Q620 710 620 710Q619 710 619.5 728.5Q620 747 621.0 775.0Q622 803 622.5 832.0Q623 861 623.5 883.0Q624 905 624 911Q625 926 630.0 932.0Q635 938 641 937Q648 936 650.5 927.5Q653 919 653 908Q653 904 653.5 882.0Q654 860 655.0 830.0Q656 800 656.5 771.5Q657 743 658.0 723.5Q659 704 659 704ZM599 3Q603 5 604.5 18.0Q606 31 605.0 46.0Q604 61 602 71Q599 98 593.5 124.0Q588 150 576 153Q568 155 557.0 142.5Q546 130 535.0 112.5Q524 95 518 82Q507 63 499.5 44.5Q492 26 500 18Q508 10 520.0 13.0Q532 16 548 14Q563 12 577.5 6.0Q592 0 599 3ZM580 175Q582 175 589.0 183.0Q596 191 602.0 200.0Q608 209 607 212Q606 214 596.5 216.0Q587 218 577.0 218.0Q567 218 564 216Q562 214 565.0 204.0Q568 194 572.5 185.0Q577 176 580 175ZM590 241Q610 240 609 256Q609 262 605.5 266.5Q602 271 593 273Q573 277 571 258Q570 252 574.5 246.5Q579 241 590 241Z" fill="#ee3e23" stroke="none" transform="scale(1,-1) translate(0,-256)" /><path d="M527 112Q531 119 535.5 132.0Q540 145 540 145L611 8L588 -7Z" fill="#ee3e23" stroke="none" transform="scale(1,-1) translate(0,-256)" /><path d="M600 127 610 99 505 4 486 19Z" fill="#ee3e23" stroke="none" transform="scale(1,-1) translate(0,-256)" /></svg>