<?xml version="1.0" encoding="utf-8" ?>
<svg baseProfile="full" height="256" version="1.1" width="256" xmlns="http://www.w3.org/2000/svg" xmlns:ev="http://www.w3.org/2001/xml-events" xmlns:xlink="http://www.w3.org/1999/xlink"><defs /><path d="M638 -10Q681 -10 716.0 4.5Q751 19 774.5 37.5Q798 56 807 71Q819 86 811 103Q805 114 792 114Q788 114 784 112Q751 102 718.0 90.0Q685 78 638 78Q590 78 557.0 90.0Q524 102 491 113Q487 114 483 114Q470 114 464 103Q456 86 468 71Q478 57 501.0 38.0Q524 19 559.0 4.5Q594 -10 638 -10Z" fill="#422b0d" stroke="none" transform="scale(1,-1) translate(0,-256)" /><path d="M544 185Q557 198 562.5 229.0Q568 260 562.5 300.0Q557 340 539.0 381.0Q521 422 487 457Q453 491 411.0 509.0Q369 527 329.0 532.5Q289 538 258.5 533.0Q228 528 216 516Q205 505 199.0 473.5Q193 442 197.5 401.5Q202 361 220.0 319.5Q238 278 274 245Q313 209 356.0 190.0Q399 171 438.0 165.5Q477 160 505.5 166.0Q534 172 544 185Z" fill="#422b0d" stroke="none" transform="scale(1,-1) translate(0,-256)" /><path d="M788 457Q754 423 736.0 381.5Q718 340 712.5 300.5Q707 261 712.5 230.5Q718 200 731 187Q744 174 774.5 169.0Q805 164 845.0 169.5Q885 175 926.0 193.5Q967 212 1001 246Q1035 280 1053.0 322.0Q1071 364 1076.0 404.0Q1081 444 1075.5 474.5Q1070 505 1059 516Q1047 528 1016.5 533.0Q986 538 946.0 532.5Q906 527 864.0 509.0Q822 491 788 457Z" fill="#422b0d" stroke="none" transform="scale(1,-1) translate(0,-256)" /></svg>