<?xml version="1.0" encoding="utf-8" ?>
<svg baseProfile="full" height="256" version="1.1" width="256" xmlns="http://www.w3.org/2000/svg" xmlns:ev="http://www.w3.org/2001/xml-events" xmlns:xlink="http://www.w3.org/1999/xlink"><defs /><path d="M397 441Q388 450 378.0 445.0Q368 440 360.0 428.5Q352 417 348 406Q337 377 344.0 340.0Q351 303 358 265Q362 240 361.5 218.5Q361 197 352 178Q343 160 350.5 158.5Q358 157 366 170Q376 189 381.0 213.5Q386 238 381 268Q374 310 376.5 343.0Q379 376 387 390Q395 404 401.0 417.0Q407 430 397 441Z" fill="#2f7889" stroke="none" transform="scale(1,-1) translate(0,-256)" /><path d="M164 -150Q169 -153 176.0 -157.5Q183 -162 181 -172Q178 -180 169.5 -180.5Q161 -181 154 -178Q126 -167 109.5 -136.0Q93 -105 98 -71Q103 -37 125.0 -11.5Q147 14 182 14Q186 14 190.0 12.0Q194 10 194 5Q194 -2 185 -4Q153 -10 140.5 -28.0Q128 -46 124 -70Q121 -95 130.0 -117.0Q139 -139 164 -150Z" fill="#2f7889" stroke="none" transform="scale(1,-1) translate(0,-256)" /></svg>