<?xml version="1.0" encoding="utf-8" ?>
<svg baseProfile="full" height="256" version="1.1" width="256" xmlns="http://www.w3.org/2000/svg" xmlns:ev="http://www.w3.org/2001/xml-events" xmlns:xlink="http://www.w3.org/1999/xlink"><defs /><path d="M906 234Q905 225 919.0 227.0Q933 229 947.5 236.0Q962 243 964 248Q964 249 968.5 263.0Q973 277 969.5 299.0Q966 321 944 346Q937 355 926.5 356.5Q916 358 895 352Q884 349 880.0 341.0Q876 333 883 325Q895 311 900.0 292.5Q905 274 906.0 257.5Q907 241 906 234Z" fill="#b391ff" stroke="none" transform="scale(1,-1) translate(0,-256)" /><path d="M767 293Q765 322 763.5 333.5Q762 345 740 354Q722 361 711.5 353.5Q701 346 701 328Q700 306 705.0 278.0Q710 250 718.5 222.5Q727 195 737.0 174.5Q747 154 757 148Q765 143 776.5 146.5Q788 150 793 157Q805 172 798.0 190.0Q791 208 785 224Q779 240 773.5 258.0Q768 276 767 293Z" fill="#b391ff" stroke="none" transform="scale(1,-1) translate(0,-256)" /></svg>