<?xml version="1.0" encoding="utf-8" ?>
<svg baseProfile="full" height="256" version="1.1" width="256" xmlns="http://www.w3.org/2000/svg" xmlns:ev="http://www.w3.org/2001/xml-events" xmlns:xlink="http://www.w3.org/1999/xlink"><defs /><path d="M757 349Q751 331 740.0 298.0Q729 265 722 243Q702 247 679.0 255.0Q656 263 629 276Q628 277 624.5 293.5Q621 310 624.0 337.0Q627 364 646 398Q676 382 704.0 370.0Q732 358 757 349Z" fill="#4b0dd4" stroke="none" transform="scale(1,-1) translate(0,-256)" /><path d="M834 164 909 239 965 250 1020 224 1078 172Q1041 166 1009.0 174.0Q977 182 957.0 192.5Q937 203 937 203Q932 176 916.0 152.5Q900 129 882.5 112.0Q865 95 852.0 85.5Q839 76 839 76Q837 89 836.0 110.0Q835 131 834.5 147.5Q834 164 834 164Z" fill="#4b0dd4" stroke="none" transform="scale(1,-1) translate(0,-256)" /><path d="M922 350 929 332Q929 332 940.5 345.5Q952 359 967.5 378.0Q983 397 996.5 415.0Q1010 433 1014 441Q1022 458 1011.5 465.0Q1001 472 989 462Q983 457 972.0 439.5Q961 422 949.5 401.5Q938 381 930.0 365.5Q922 350 922 350Z" fill="#4b0dd4" stroke="none" transform="scale(1,-1) translate(0,-256)" /><path d="M891 331 892 319Q892 319 876.5 323.5Q861 328 837.5 336.0Q814 344 789.5 352.5Q765 361 747.0 369.5Q729 378 724 383Q712 398 723.0 403.5Q734 409 748 406Q759 403 782.5 391.0Q806 379 831.0 365.5Q856 352 873.5 341.5Q891 331 891 331Z" fill="#4b0dd4" stroke="none" transform="scale(1,-1) translate(0,-256)" /></svg>