<?xml version="1.0" encoding="utf-8" ?>
<svg baseProfile="full" height="256" version="1.1" width="256" xmlns="http://www.w3.org/2000/svg" xmlns:ev="http://www.w3.org/2001/xml-events" xmlns:xlink="http://www.w3.org/1999/xlink"><defs /><path d="M952 348Q952 348 949.0 335.5Q946 323 941.0 307.0Q936 291 930 281Q918 260 894.5 248.5Q871 237 844.0 233.0Q817 229 793 232Q766 235 736.5 240.0Q707 245 671.0 258.0Q635 271 587 298Q516 339 471.0 379.5Q426 420 403 466Q387 498 386.0 531.5Q385 565 400 585Q405 592 415.5 600.0Q426 608 434.5 613.5Q443 619 443 619Q443 619 442.0 602.5Q441 586 456 558Q479 515 525.0 478.5Q571 442 642 401Q714 360 775.5 344.0Q837 328 864 327Q902 325 921.0 330.5Q940 336 946.0 342.0Q952 348 952 348Z" fill="#8954ff" stroke="none" transform="scale(1,-1) translate(0,-256)" /><path d="M834 188 952 283 1197 67Q1201 64 1199.5 58.5Q1198 53 1192 53L1143 49Q1135 48 1136 40L1146 -14Q1146 -19 1142.0 -21.5Q1138 -24 1134 -21Q1117 -12 1082.5 19.5Q1048 51 1008.5 98.5Q969 146 937 203L1000 -119Q1001 -123 997.0 -126.0Q993 -129 989 -126L934 -80Q928 -76 924 -83L893 -138Q891 -142 886.0 -142.0Q881 -142 880 -138Q872 -114 861.0 -63.0Q850 -12 841.5 54.0Q833 120 834 188Z" fill="#8954ff" stroke="none" transform="scale(1,-1) translate(0,-256)" /><path d="M826 383Q834 378 847.5 369.0Q861 360 872.0 352.0Q883 344 883 344Q883 344 892.5 348.0Q902 352 912 354Q920 368 928.5 390.0Q937 412 946.5 433.5Q956 455 968.0 470.0Q980 485 995 486Q1022 489 1043.0 472.5Q1064 456 1079.5 427.5Q1095 399 1105.0 366.5Q1115 334 1119.5 304.5Q1124 275 1123 256Q1122 224 1103.5 214.5Q1085 205 1058.5 209.5Q1032 214 1005.0 225.5Q978 237 959 246Q952 241 939.5 237.5Q927 234 916.5 232.0Q906 230 906 230Q906 230 897.0 216.0Q888 202 870.5 183.5Q853 165 828.5 149.5Q804 134 775 131Q757 130 743.5 134.0Q730 138 718 162Q690 220 680.5 275.5Q671 331 683 384Q688 407 706.0 413.5Q724 420 747.0 416.0Q770 412 791.5 402.5Q813 393 826 383Z" fill="#8954ff" stroke="none" transform="scale(1,-1) translate(0,-256)" /></svg>