<?xml version="1.0" encoding="utf-8" ?>
<svg baseProfile="full" height="256" version="1.1" width="256" xmlns="http://www.w3.org/2000/svg" xmlns:ev="http://www.w3.org/2001/xml-events" xmlns:xlink="http://www.w3.org/1999/xlink"><defs /><path d="M1077 872Q1077 869 1082.0 844.0Q1087 819 1093.5 784.0Q1100 749 1106.5 715.5Q1113 682 1117 661Q1121 635 1111 628Q1094 616 1051.0 608.5Q1008 601 954 601Q902 601 860.5 608.0Q819 615 800 626Q794 629 791.0 635.0Q788 641 790 654Q793 671 799.5 704.0Q806 737 813.5 773.0Q821 809 826.0 837.0Q831 865 831 872Q831 889 867.0 900.5Q903 912 954 912Q1005 912 1041.0 900.5Q1077 889 1077 872Z" fill="#ffd600" stroke="none" transform="scale(1,-1) translate(0,-256)" /></svg>