<?xml version="1.0" encoding="utf-8" ?>
<svg baseProfile="full" height="256" version="1.1" width="256" xmlns="http://www.w3.org/2000/svg" xmlns:ev="http://www.w3.org/2001/xml-events" xmlns:xlink="http://www.w3.org/1999/xlink"><defs /><path d="M1097 178 1043 199Q1043 199 1043.5 209.5Q1044 220 1045 220Q1045 220 1058.5 219.5Q1072 219 1092.0 218.5Q1112 218 1132.0 216.5Q1152 215 1165 212Q1187 208 1192.0 198.0Q1197 188 1198 180Q1188 203 1168 204Q1158 205 1145.0 202.5Q1132 200 1121 183Q1113 170 1097 178Z" fill="#48cded" stroke="none" transform="scale(1,-1) translate(0,-256)" /><path d="M179.125 178.0 233.125 199.0Q233.125 199.0 232.625 209.5Q232.125 220.0 231.125 220.0Q231.125 220.0 217.625 219.5Q204.125 219.0 184.125 218.5Q164.125 218.0 144.125 216.5Q124.125 215.0 111.125 212.0Q89.125 208.0 84.125 198.0Q79.125 188.0 78.125 180.0Q88.125 203.0 108.125 204.0Q118.125 205.0 131.125 202.5Q144.125 200.0 155.125 183.0Q163.125 170.0 179.125 178.0Z" fill="#48cded" stroke="none" transform="scale(1,-1) translate(0,-256)" /><path d="M1110 35 677 36 638 3 588 36 165 35Q164 35 178.0 49.5Q192 64 212.0 79.5Q232 95 249 98Q249 98 292.5 103.5Q336 109 415 109Q468 109 519.0 105.0Q570 101 603.5 96.5Q637 92 637 92L638 88V92Q638 92 671.5 96.5Q705 101 756.0 105.0Q807 109 860 109Q939 109 982.5 103.5Q1026 98 1026 98Q1043 95 1063.0 79.5Q1083 64 1097.0 49.5Q1111 35 1110 35Z" fill="#48cded" stroke="none" transform="scale(1,-1) translate(0,-256)" /></svg>