<?xml version="1.0" encoding="utf-8" ?>
<svg baseProfile="full" height="256" version="1.1" width="256" xmlns="http://www.w3.org/2000/svg" xmlns:ev="http://www.w3.org/2001/xml-events" xmlns:xlink="http://www.w3.org/1999/xlink"><defs /><path d="M164 25 205 -26 1130 -21 1177 27Q1182 34 1185.5 54.5Q1189 75 1183 119Q1180 139 1170.5 172.5Q1161 206 1140.5 245.5Q1120 285 1083.5 324.0Q1047 363 991.0 395.5Q935 428 855.0 448.0Q775 468 666 468Q556 468 475.5 447.0Q395 426 339.5 392.0Q284 358 249.0 316.5Q214 275 194.5 234.0Q175 193 167.0 157.5Q159 122 157 101Q153 45 164 25Z" fill="#ffe36c" stroke="none" transform="scale(1,-1) translate(0,-256)" /></svg>