<?xml version="1.0" encoding="utf-8" ?>
<svg baseProfile="full" height="256" version="1.1" width="256" xmlns="http://www.w3.org/2000/svg" xmlns:ev="http://www.w3.org/2001/xml-events" xmlns:xlink="http://www.w3.org/1999/xlink"><defs /><path d="M666 458Q383 458 253 307Q220 269 202.0 229.5Q184 190 176.0 156.0Q168 122 166 100Q164 73 166.0 55.0Q168 37 172 31L210 -17L1126 -12L1170 32Q1173 38 1176.5 56.5Q1180 75 1174 117Q1172 135 1162.5 168.5Q1153 202 1131.5 242.5Q1110 283 1071 322Q1010 384 920 418Q812 458 666 458ZM666 477Q794 477 883.5 450.0Q973 423 1031.5 380.0Q1090 337 1123.5 288.0Q1157 239 1172.5 194.5Q1188 150 1192 120Q1199 75 1194.5 52.5Q1190 30 1184 21L1134 -30L201 -36L156 20Q150 30 148.0 47.0Q146 64 146.5 79.5Q147 95 148 102Q150 122 157.5 157.0Q165 192 184.5 234.5Q204 277 239.0 319.5Q274 362 330.5 398.0Q387 434 469.5 455.5Q552 477 666 477Z" fill="#82aec0" stroke="none" transform="scale(1,-1) translate(0,-256)" /><path d="M164 -11H163Q143 -13 145 -32Q146 -50 165 -50Q165 -50 165.5 -50.0Q166 -50 166 -50Q175 -49 180 -43Q185 -36 183 -29Q182 -11 164 -11ZM164 17Q182 17 195.5 5.0Q209 -7 211 -25Q214 -45 201.5 -60.0Q189 -75 169 -77Q168 -77 166.5 -77.0Q165 -77 164 -77Q145 -77 131.5 -65.5Q118 -54 116 -35Q114 -16 126.0 -0.5Q138 15 158 17Q159 17 160.5 17.0Q162 17 164 17Z" fill="#82aec0" stroke="none" transform="scale(1,-1) translate(0,-256)" /><path d="M126 -198Q138 -202 149.5 -196.0Q161 -190 164 -178L176 -87Q179 -76 173.0 -65.5Q167 -55 156 -52Q145 -48 134.5 -53.0Q124 -58 119 -69L71 -144Q66 -156 71.5 -167.5Q77 -179 89 -184Z" fill="#82aec0" stroke="none" transform="scale(1,-1) translate(0,-256)" /></svg>