<?xml version="1.0" encoding="utf-8" ?>
<svg baseProfile="full" height="256" version="1.1" width="256" xmlns="http://www.w3.org/2000/svg" xmlns:ev="http://www.w3.org/2001/xml-events" xmlns:xlink="http://www.w3.org/1999/xlink"><defs /><path d="M1148 51Q1149 45 1160.0 39.0Q1171 33 1180.0 27.5Q1189 22 1185 17L1068 -175Q1059 -186 1046.0 -195.5Q1033 -205 1012 -204L737 -198Q699 -197 668.0 -197.0Q637 -197 599 -198L333 -204Q318 -204 301.5 -198.5Q285 -193 274 -175L156 16Q153 21 163.0 26.5Q173 32 183.5 38.0Q194 44 195 50Q197 71 201.5 105.0Q206 139 220.5 180.5Q235 222 265.0 263.0Q295 304 347.0 338.5Q399 373 478.0 394.0Q557 415 671 415Q785 415 864.5 394.0Q944 373 995.5 339.0Q1047 305 1077.0 263.5Q1107 222 1121.5 181.0Q1136 140 1141.0 105.5Q1146 71 1148 51Z" fill="#ffc107" stroke="none" transform="scale(1,-1) translate(0,-256)" /></svg>