<?xml version="1.0" encoding="utf-8" ?>
<svg baseProfile="full" height="256" version="1.1" width="256" xmlns="http://www.w3.org/2000/svg" xmlns:ev="http://www.w3.org/2001/xml-events" xmlns:xlink="http://www.w3.org/1999/xlink"><defs /><path d="M273 754Q381 850 501.5 884.0Q622 918 745.5 887.0Q869 856 987 757Q1023 726 1059.5 691.0Q1096 656 1111 610Q1131 552 1129.5 487.0Q1128 422 1110.5 357.0Q1093 292 1064.0 233.0Q1035 174 1000 126Q947 55 878.0 9.0Q809 -37 732.5 -61.5Q656 -86 578.5 -92.0Q501 -98 431.5 -89.0Q362 -80 307.5 -59.0Q253 -38 222 -8Q148 63 114.5 146.0Q81 229 81.0 316.0Q81 403 106.5 485.5Q132 568 175.5 637.0Q219 706 273 754Z" fill="#d5f100" stroke="none" transform="scale(1,-1) translate(0,-256)" /></svg>