<?xml version="1.0" encoding="utf-8" ?>
<svg baseProfile="full" height="256" version="1.1" width="256" xmlns="http://www.w3.org/2000/svg" xmlns:ev="http://www.w3.org/2001/xml-events" xmlns:xlink="http://www.w3.org/1999/xlink"><defs /><path d="M276 13Q268 54 242.5 79.5Q217 105 189 99Q160 94 146.0 61.0Q132 28 140 -14Q148 -55 173.5 -80.5Q199 -106 227 -100Q256 -95 270.0 -62.0Q284 -29 276 13Z" fill="#616161" stroke="none" transform="scale(1,-1) translate(0,-256)" /><path d="M210 386 154 388Q146 222 173 -8L229 -2Q202 224 210 386Z" fill="#616161" stroke="none" transform="scale(1,-1) translate(0,-256)" /><path d="M1086 99Q1058 105 1032.5 79.5Q1007 54 999 13Q991 -29 1005.0 -62.0Q1019 -95 1048 -100Q1076 -106 1101.5 -80.5Q1127 -55 1135 -14Q1143 28 1128.5 61.0Q1114 94 1086 99Z" fill="#616161" stroke="none" transform="scale(1,-1) translate(0,-256)" /><path d="M1121 388 1065 386Q1073 224 1046 -2L1102 -8Q1129 222 1121 388Z" fill="#616161" stroke="none" transform="scale(1,-1) translate(0,-256)" /><path d="M1106 326Q1130 324 1147.0 341.5Q1164 359 1163 383Q1161 423 1151.5 479.0Q1142 535 1120.5 595.0Q1099 655 1059 708Q985 807 876.0 860.0Q767 913 638 913Q508 913 399.0 860.0Q290 807 216 708Q176 655 154.5 595.0Q133 535 123.5 479.0Q114 423 112 383Q111 359 128.0 341.5Q145 324 169 326H175Q210 327 235.0 351.0Q260 375 264 409Q269 451 284.5 497.5Q300 544 335 590Q380 650 433.5 681.0Q487 712 540.5 723.5Q594 735 638 735Q831 735 940 590Q974 545 989.5 499.0Q1005 453 1011 412Q1015 376 1042.0 351.5Q1069 327 1106 326Z" fill="#616161" stroke="none" transform="scale(1,-1) translate(0,-256)" /></svg>