<?xml version="1.0" encoding="utf-8" ?>
<svg baseProfile="full" height="256" version="1.1" width="256" xmlns="http://www.w3.org/2000/svg" xmlns:ev="http://www.w3.org/2001/xml-events" xmlns:xlink="http://www.w3.org/1999/xlink"><defs /><path d="M652 98Q810 98 911.5 121.5Q1013 145 1074 177Q1113 197 1139.5 220.0Q1166 243 1184 260Q1184 260 1186.5 268.5Q1189 277 1191 288Q1193 300 1195.0 314.0Q1197 328 1197 328Q1196 327 1182.0 308.0Q1168 289 1133.5 261.0Q1099 233 1037.5 205.0Q976 177 881.5 157.0Q787 137 652 135Q650 135 648.0 135.0Q646 135 644 135Q522 135 432.5 150.5Q343 166 280.5 190.0Q218 214 177.5 240.5Q137 267 114.5 291.0Q92 315 83.5 330.0Q75 345 75 346Q75 346 76.0 332.5Q77 319 79 303Q84 270 85 269Q95 257 111.0 241.5Q127 226 148 212Q189 184 254.0 158.0Q319 132 415.0 115.0Q511 98 644 98Q646 98 648.0 98.0Q650 98 652 98Z" fill="#ff635f" stroke="none" transform="scale(1,-1) translate(0,-256)" /></svg>