<?xml version="1.0" encoding="utf-8" ?>
<svg baseProfile="full" height="256" version="1.1" width="256" xmlns="http://www.w3.org/2000/svg" xmlns:ev="http://www.w3.org/2001/xml-events" xmlns:xlink="http://www.w3.org/1999/xlink"><defs /><path d="M630 153Q633 153 636.0 153.0Q639 153 642 153Q769 154 859.5 170.0Q950 186 1009.5 210.0Q1069 234 1103.5 260.0Q1138 286 1153.0 308.0Q1168 330 1169 342Q1171 360 1151 381Q1122 412 1055.0 442.5Q988 473 881.0 493.0Q774 513 627 511Q464 509 349.0 483.5Q234 458 172.5 423.0Q111 388 109 357Q108 344 119.0 325.5Q130 307 147 289Q165 270 199.5 246.5Q234 223 290.5 202.0Q347 181 430.5 167.0Q514 153 630 153ZM147 355Q149 365 178.5 384.5Q208 404 267.5 424.5Q327 445 416.5 459.5Q506 474 627 475Q770 477 866.5 460.0Q963 443 1021.0 418.5Q1079 394 1105.0 373.0Q1131 352 1133 345Q1132 337 1117.0 319.0Q1102 301 1069.0 279.5Q1036 258 980.0 237.5Q924 217 840.5 203.5Q757 190 642 189Q531 188 452.0 199.5Q373 211 320.5 229.5Q268 248 236 265Q183 295 165.0 322.0Q147 349 147 355Z" fill="#ffffff" stroke="none" transform="scale(1,-1) translate(0,-256)" /><path d="M628 185Q628 185 649.0 184.5Q670 184 701.5 184.5Q733 185 766.5 187.5Q800 190 827.5 197.0Q855 204 866 216Q894 246 895.5 279.0Q897 312 886 325Q879 334 862.0 343.0Q845 352 813.0 353.0Q781 354 730 339Q679 324 651.5 304.0Q624 284 613.0 264.0Q602 244 602 230Q601 215 607.5 205.0Q614 195 621.0 190.0Q628 185 628 185Z" fill="#ffffff" stroke="none" transform="scale(1,-1) translate(0,-256)" /><path d="M232 146Q243 156 267.5 136.5Q292 117 323 94Q344 79 364.0 64.5Q384 50 396.0 38.0Q408 26 404 19Q396 6 365.5 9.0Q335 12 290 45Q245 77 234.5 108.0Q224 139 232 146Z" fill="#ffffff" stroke="none" transform="scale(1,-1) translate(0,-256)" /></svg>