<?xml version="1.0" encoding="utf-8" ?>
<svg baseProfile="full" height="256" version="1.1" width="256" xmlns="http://www.w3.org/2000/svg" xmlns:ev="http://www.w3.org/2001/xml-events" xmlns:xlink="http://www.w3.org/1999/xlink"><defs /><path d="M808 425Q808 433 827.0 435.5Q846 438 875 447Q904 456 917.5 470.5Q931 485 945 495Q954 501 968.5 507.0Q983 513 996.0 517.0Q1009 521 1013 521Q1019 520 1023.5 510.5Q1028 501 1039 478Q1050 454 1067.5 444.5Q1085 435 1095 426Q1106 416 1117.5 399.5Q1129 383 1136.0 368.0Q1143 353 1142 349Q1139 344 1124.0 326.5Q1109 309 1090 297Q1077 290 1062.0 286.0Q1047 282 1025.0 277.0Q1003 272 971 259Q926 242 909.0 244.5Q892 247 892 247L846 304Q846 304 842.5 326.0Q839 348 835 370Q831 392 819.5 405.0Q808 418 808 425Z" fill="#363b34" stroke="none" transform="scale(1,-1) translate(0,-256)" /></svg>