<?xml version="1.0" encoding="utf-8" ?>
<svg baseProfile="full" height="256" version="1.1" width="256" xmlns="http://www.w3.org/2000/svg" xmlns:ev="http://www.w3.org/2001/xml-events" xmlns:xlink="http://www.w3.org/1999/xlink"><defs /><path d="M879 260 848 202 891 209Q891 209 899.0 215.0Q907 221 906 238Q905 253 892.0 256.5Q879 260 879 260Z" fill="#fca72e" stroke="none" transform="scale(1,-1) translate(0,-256)" /><path d="M939 221 1019 245Q1019 245 1021.5 252.0Q1024 259 1019 263Q1014 267 1001.0 263.5Q988 260 974 256Q960 251 943.5 247.0Q927 243 926 234Q925 224 932.0 222.5Q939 221 939 221Z" fill="#fca72e" stroke="none" transform="scale(1,-1) translate(0,-256)" /><path d="M490 237Q502 239 504.5 234.0Q507 229 508.5 223.0Q510 217 521 216Q530 215 533.5 220.0Q537 225 541.0 232.0Q545 239 554 242Q569 248 581.5 244.5Q594 241 601.5 235.0Q609 229 609 229L665 196Q665 196 655.5 191.5Q646 187 633.5 182.5Q621 178 613 179Q604 179 599.5 186.0Q595 193 589.5 200.0Q584 207 572 208Q560 209 556.0 203.5Q552 198 545.5 192.5Q539 187 520 188Q501 189 493.0 201.0Q485 213 485.0 224.5Q485 236 490 237Z" fill="#fca72e" stroke="none" transform="scale(1,-1) translate(0,-256)" /><path d="M186 302Q183 313 197.0 313.0Q211 313 222 313Q229 313 244.0 316.0Q259 319 273.0 321.5Q287 324 294 324Q301 324 315.5 323.0Q330 322 342.5 321.5Q355 321 355 321Q355 321 357.0 309.5Q359 298 351 296Q342 294 329.0 296.5Q316 299 300 300Q289 301 283.5 300.5Q278 300 270.0 298.0Q262 296 244 293Q216 289 201.5 293.5Q187 298 186 302Z" fill="#fca72e" stroke="none" transform="scale(1,-1) translate(0,-256)" /><path d="M188 332Q184 339 192.0 345.5Q200 352 207 356Q214 361 224.5 363.0Q235 365 239 359Q243 353 236.5 346.0Q230 339 220 334Q211 329 201.5 327.5Q192 326 188 332Z" fill="#fca72e" stroke="none" transform="scale(1,-1) translate(0,-256)" /><path d="M250 356Q247 362 252.0 367.0Q257 372 263 374Q269 377 275.5 377.5Q282 378 284 373Q288 364 273 356Q254 346 250 356Z" fill="#fca72e" stroke="none" transform="scale(1,-1) translate(0,-256)" /><path d="M317 358 329 352 348 369Q348 369 349.5 374.5Q351 380 360 381Q365 381 375.0 381.5Q385 382 387 388Q389 394 380.0 395.0Q371 396 360 397Q338 397 323 383Q315 376 314.5 368.5Q314 361 317 358Z" fill="#fca72e" stroke="none" transform="scale(1,-1) translate(0,-256)" /><path d="M410 395Q409 406 420.0 409.0Q431 412 439 413Q447 414 456.5 413.5Q466 413 467 405Q469 390 442 386Q430 385 420.5 385.5Q411 386 410 395Z" fill="#fca72e" stroke="none" transform="scale(1,-1) translate(0,-256)" /><path d="M494 411Q496 416 501.0 416.0Q506 416 511 414Q515 413 520.0 411.5Q525 410 524 404Q523 401 520.0 397.5Q517 394 508 395Q489 397 494 411Z" fill="#fca72e" stroke="none" transform="scale(1,-1) translate(0,-256)" /><path d="M790 361Q783 376 808 392Q819 400 830.5 402.5Q842 405 842 405L866 381Q866 381 857.5 377.5Q849 374 839.0 369.5Q829 365 823 362Q815 357 803.5 357.0Q792 357 790 361Z" fill="#fca72e" stroke="none" transform="scale(1,-1) translate(0,-256)" /><path d="M731 412Q739 418 747.0 414.5Q755 411 762 406Q768 402 776.0 395.5Q784 389 777 383Q769 378 763.0 379.5Q757 381 748 386Q739 390 732.0 398.0Q725 406 731 412Z" fill="#fca72e" stroke="none" transform="scale(1,-1) translate(0,-256)" /><path d="M683 390Q687 392 689.0 388.5Q691 385 704 385Q715 386 724.5 384.0Q734 382 746 370Q755 360 755.5 350.0Q756 340 756 340L729 330Q729 330 729.5 341.0Q730 352 722 358Q714 364 707.0 362.5Q700 361 690 365Q681 369 678.5 378.5Q676 388 683 390Z" fill="#fca72e" stroke="none" transform="scale(1,-1) translate(0,-256)" /><path d="M375 331Q374 333 382.5 330.0Q391 327 399.5 323.5Q408 320 408 320Q408 320 406.0 328.0Q404 336 406 343Q408 350 418.5 352.0Q429 354 440 353Q452 351 470.5 350.5Q489 350 500 352Q512 354 515.5 366.5Q519 379 513 381Q508 384 504.5 379.5Q501 375 493 372Q488 370 474.5 371.0Q461 372 446.0 373.5Q431 375 421 375Q406 374 395.0 369.5Q384 365 379 355Q373 345 374.0 338.0Q375 331 375 331Z" fill="#fca72e" stroke="none" transform="scale(1,-1) translate(0,-256)" /><path d="M480 331 468 308Q468 308 479.5 311.0Q491 314 500 311Q509 309 520.5 294.5Q532 280 538 277Q544 274 554.0 277.5Q564 281 564 286Q565 288 563.5 306.5Q562 325 560.5 349.0Q559 373 558.0 393.5Q557 414 557 420Q558 438 562.5 453.0Q567 468 565 487Q563 505 555.5 512.0Q548 519 540.5 526.0Q533 533 531 551Q529 574 536.0 584.0Q543 594 548 615Q555 643 554.0 666.0Q553 689 552 695Q550 709 539 709Q532 709 529.0 702.5Q526 696 527 690Q527 684 527.5 670.5Q528 657 525 630Q522 609 511.0 590.0Q500 571 503 545Q506 520 520.0 509.0Q534 498 538 484Q541 474 536.0 458.0Q531 442 530 426Q529 409 530.0 382.0Q531 355 532.5 333.5Q534 312 534 312Q534 312 524.5 321.0Q515 330 505 334Q495 337 487.5 334.0Q480 331 480 331Z" fill="#fca72e" stroke="none" transform="scale(1,-1) translate(0,-256)" /><path d="M650 782Q659 785 663.5 778.0Q668 771 671 761Q677 741 680.5 715.0Q684 689 684 652Q683 614 675.0 594.5Q667 575 664 560Q662 544 668.5 530.5Q675 517 678 509Q683 494 683.5 479.5Q684 465 681 453Q680 444 676.0 426.0Q672 408 669.0 388.0Q666 368 668 356Q672 331 684.0 322.5Q696 314 696 314L673 297Q673 297 668.0 301.0Q663 305 655 313Q647 321 643.5 334.5Q640 348 639 359Q638 368 639.5 382.0Q641 396 644 407Q646 419 648.0 427.0Q650 435 650 435Q650 435 648.0 430.5Q646 426 643 420Q641 415 638.0 409.0Q635 403 631 388Q626 374 627.0 357.0Q628 340 632 328Q640 307 649.0 300.0Q658 293 658 293L635 274Q635 274 626.5 281.0Q618 288 614 293Q606 304 605.0 313.5Q604 323 604 323Q604 323 605.0 312.0Q606 301 606.5 289.5Q607 278 607 277Q607 277 599.0 277.0Q591 277 583.0 277.0Q575 277 575 277Q575 277 574.5 289.0Q574 301 573.0 315.5Q572 330 572 339Q570 359 568.0 380.0Q566 401 569 425Q571 442 575.0 459.5Q579 477 579 489Q578 502 566.5 516.0Q555 530 549 547Q542 566 545.5 580.0Q549 594 554 605Q559 616 563.0 626.5Q567 637 567 652Q567 666 564.5 686.5Q562 707 561 715Q558 724 555.0 737.0Q552 750 554 756Q558 766 565.5 764.5Q573 763 573 763Q573 763 578.0 746.5Q583 730 586 720Q589 704 591.5 682.0Q594 660 590 635Q587 613 578.5 600.0Q570 587 571 564Q572 543 585.0 530.5Q598 518 602 504Q606 489 604.0 475.5Q602 462 596 436Q590 410 594.5 385.5Q599 361 599 361Q599 361 599.5 374.0Q600 387 601 392Q604 409 610.0 421.0Q616 433 620 441Q625 450 628.5 460.5Q632 471 632 483Q633 506 619.5 522.0Q606 538 600 549Q593 564 595.5 577.5Q598 591 605 614Q609 628 611.0 647.0Q613 666 613 679Q613 691 611.5 705.0Q610 719 606 734Q604 744 601.0 757.0Q598 770 605 773Q613 775 620.0 770.5Q627 766 630 742Q633 722 634.5 710.0Q636 698 636 675Q634 631 628.0 612.0Q622 593 622 576Q622 563 629.5 552.5Q637 542 637 542Q637 542 637.0 550.5Q637 559 638 567Q640 575 644.5 589.5Q649 604 652 619Q655 635 655.5 666.0Q656 697 649 738Q647 754 644.0 767.0Q641 780 650 782Z" fill="#fca72e" stroke="none" transform="scale(1,-1) translate(0,-256)" /></svg>