<?xml version="1.0" encoding="utf-8" ?>
<svg baseProfile="full" height="256" version="1.1" width="256" xmlns="http://www.w3.org/2000/svg" xmlns:ev="http://www.w3.org/2001/xml-events" xmlns:xlink="http://www.w3.org/1999/xlink"><defs /><path d="M144 321 250 232Q250 232 269.0 227.0Q288 222 315.0 215.0Q342 208 367.5 202.0Q393 196 406 194Q419 191 440.5 187.0Q462 183 484.5 178.0Q507 173 524.0 170.0Q541 167 545 167Q547 167 573.0 168.0Q599 169 636.0 170.5Q673 172 709.5 173.0Q746 174 770.5 175.0Q795 176 795 176L1061 252L1118 310Q1118 310 1097.5 321.5Q1077 333 1044.0 350.0Q1011 367 972.5 383.0Q934 399 897 408Q836 423 746.5 431.0Q657 439 550.0 435.0Q443 431 330 409Q269 397 232.0 382.0Q195 367 176.0 353.0Q157 339 150.5 330.0Q144 321 144 321Z" fill="#fec56c" stroke="none" transform="scale(1,-1) translate(0,-256)" /><path d="M587 645Q587 645 596.0 644.5Q605 644 617 644Q617 640 614.5 625.5Q612 611 609.0 596.5Q606 582 605 576Q604 572 610.5 561.0Q617 550 625.5 538.0Q634 526 641.0 517.0Q648 508 648 508L647 464Q647 464 641.5 449.0Q636 434 629.0 413.5Q622 393 617.0 377.0Q612 361 612 360Q612 357 601.0 354.0Q590 351 590 351L576 427Q576 427 579.5 442.5Q583 458 586.5 476.0Q590 494 590 499Q589 508 579.5 526.5Q570 545 562 554Q554 562 558.5 576.5Q563 591 568 599Q571 605 575.5 616.0Q580 627 583.5 636.0Q587 645 587 645Z" fill="#fec56c" stroke="none" transform="scale(1,-1) translate(0,-256)" /><path d="M502 275Q504 276 508.5 276.0Q513 276 516 275Q520 274 520.0 271.5Q520 269 518 268Q512 263 506 265Q503 266 501.5 269.0Q500 272 502 275Z" fill="#fec56c" stroke="none" transform="scale(1,-1) translate(0,-256)" /><path d="M451 329Q454 330 461.0 325.0Q468 320 466 318Q465 316 460.5 315.5Q456 315 453 316Q451 317 450.0 322.0Q449 327 451 329Z" fill="#fec56c" stroke="none" transform="scale(1,-1) translate(0,-256)" /><path d="M582 774Q592 778 598.5 771.0Q605 764 608.0 755.0Q611 746 610 742Q610 738 611.5 727.0Q613 716 614.0 706.5Q615 697 615 697H582L572 752Q572 752 573.0 761.5Q574 771 582 774Z" fill="#fec56c" stroke="none" transform="scale(1,-1) translate(0,-256)" /></svg>