<?xml version="1.0" encoding="utf-8" ?>
<svg baseProfile="full" height="256" version="1.1" width="256" xmlns="http://www.w3.org/2000/svg" xmlns:ev="http://www.w3.org/2001/xml-events" xmlns:xlink="http://www.w3.org/1999/xlink"><defs /><path d="M1081 795Q1090 786 1082.5 746.0Q1075 706 1055.0 647.5Q1035 589 1007 523Q982 468 945.0 415.5Q908 363 866.5 320.0Q825 277 788.5 249.5Q752 222 730 217Q701 211 671.0 222.5Q641 234 615.5 252.5Q590 271 574 285Q557 299 540.0 320.0Q523 341 512.0 366.5Q501 392 503 420Q505 448 538.5 495.5Q572 543 633.5 595.5Q695 648 784 692Q916 758 993.5 781.5Q1071 805 1081 795Z" fill="#ee7fad" stroke="none" transform="scale(1,-1) translate(0,-256)" /></svg>