<?xml version="1.0" encoding="utf-8" ?>
<svg baseProfile="full" height="256" version="1.1" width="256" xmlns="http://www.w3.org/2000/svg" xmlns:ev="http://www.w3.org/2001/xml-events" xmlns:xlink="http://www.w3.org/1999/xlink"><defs /><path d="M502 685Q520 665 515.0 643.0Q510 621 490.5 598.0Q471 575 444.5 552.5Q418 530 392.0 509.5Q366 489 348.5 471.0Q331 453 329 440Q324 400 342.5 377.0Q361 354 392 337Q413 325 435.5 327.5Q458 330 474.5 338.5Q491 347 495 356Q501 373 501.5 387.0Q502 401 502 414Q503 429 515.0 438.5Q527 448 538.5 452.0Q550 456 550 456L765 670Q765 670 750.0 678.0Q735 686 724 698Q705 718 700.5 732.5Q696 747 698 758Q698 764 712.0 772.5Q726 781 743.5 788.5Q761 796 774.0 801.0Q787 806 787 806Q787 806 806.5 808.5Q826 811 856.0 813.0Q886 815 918.5 812.5Q951 810 977 801Q1006 790 1027.0 767.5Q1048 745 1062.5 721.5Q1077 698 1083 686Q1090 671 1093.0 647.0Q1096 623 1097.0 604.0Q1098 585 1098 585Q1098 585 1096.5 567.0Q1095 549 1092.0 521.5Q1089 494 1084.0 467.0Q1079 440 1071.5 421.5Q1064 403 1054 402Q1036 401 1020.0 410.5Q1004 420 992.0 433.0Q980 446 973.0 456.0Q966 466 966 466Q966 466 951.0 449.0Q936 432 912.0 405.5Q888 379 860.5 348.5Q833 318 807.5 290.0Q782 262 764.0 243.5Q746 225 741 222Q724 212 706.0 212.5Q688 213 661 202Q642 194 635.5 177.0Q629 160 629 144Q629 127 644.5 102.0Q660 77 677 65Q695 53 723.0 52.0Q751 51 770 56Q777 57 794.5 73.0Q812 89 833.5 111.5Q855 134 877.0 158.0Q899 182 917.0 201.0Q935 220 944 227Q958 239 970.5 231.5Q983 224 985.0 209.5Q987 195 969 187Q944 175 924.5 144.5Q905 114 887 86Q877 72 857.0 47.0Q837 22 808.0 0.5Q779 -21 743 -26Q701 -32 674.5 -17.5Q648 -3 628 12Q613 24 598.5 43.0Q584 62 572.0 81.5Q560 101 552.5 114.5Q545 128 545 128L400 258Q400 258 382.0 266.0Q364 274 337.5 294.0Q311 314 287 350Q271 374 269.0 405.0Q267 436 276.0 466.5Q285 497 302 518Q316 534 338.5 554.5Q361 575 385.5 594.0Q410 613 428.5 627.0Q447 641 452 645Q468 658 483.5 673.5Q499 689 502 685Z" fill="#a363af" stroke="none" transform="scale(1,-1) translate(0,-256)" /><path d="M530 809Q530 809 534.5 803.0Q539 797 535 784Q531 770 521.5 769.5Q512 769 512 769Q512 769 517.0 760.5Q522 752 518 741Q515 732 504.0 726.0Q493 720 485 726Q473 734 471.5 743.5Q470 753 475 762Q481 773 491.0 773.0Q501 773 501 773Q501 773 494.5 779.5Q488 786 493 800Q498 812 506.0 813.0Q514 814 514 814Q514 814 509.5 819.5Q505 825 504 833Q504 842 510.0 850.5Q516 859 527 860Q537 860 544.0 852.5Q551 845 551 832Q550 818 540.0 813.5Q530 809 530 809Z" fill="#a363af" stroke="none" transform="scale(1,-1) translate(0,-256)" /><path d="M1114 229Q1114 229 1106.5 235.0Q1099 241 1086 237Q1071 232 1069.5 221.5Q1068 211 1068 211Q1068 211 1060.5 217.0Q1053 223 1039 217Q1029 213 1025.0 203.5Q1021 194 1026 183Q1031 172 1041.5 169.5Q1052 167 1064 173Q1072 178 1073.0 186.5Q1074 195 1074 195Q1074 195 1081.5 190.5Q1089 186 1102 191Q1113 195 1115.5 201.0Q1118 207 1118 207Q1118 207 1125.0 203.5Q1132 200 1144 202Q1163 206 1162 228Q1161 238 1153.5 243.0Q1146 248 1136 247Q1120 246 1117.0 237.5Q1114 229 1114 229Z" fill="#a363af" stroke="none" transform="scale(1,-1) translate(0,-256)" /></svg>