<?xml version="1.0" encoding="utf-8" ?>
<svg baseProfile="full" height="256" version="1.1" width="256" xmlns="http://www.w3.org/2000/svg" xmlns:ev="http://www.w3.org/2001/xml-events" xmlns:xlink="http://www.w3.org/1999/xlink"><defs /><path d="M964.656005859375 201.0Q970.656005859375 191.0 981.156005859375 186.0Q991.656005859375 181.0 1000.656005859375 179.5Q1009.656005859375 178.0 1009.656005859375 178.0Q1009.656005859375 178.0 1003.656005859375 166.0Q997.656005859375 154.0 983.656005859375 145.0Q970.656005859375 137.0 955.656005859375 134.5Q940.656005859375 132.0 929.656005859375 132.0Q929.656005859375 132.0 918.156005859375 120.0Q906.656005859375 108.0 882.156005859375 92.0Q857.656005859375 76.0 817.656005859375 64.0Q777.656005859375 52.0 721.656005859375 52.0H637.656005859375H553.656005859375Q497.656005859375 52.0 457.656005859375 64.0Q417.656005859375 76.0 393.156005859375 92.0Q368.656005859375 108.0 357.156005859375 120.0Q345.656005859375 132.0 345.656005859375 132.0Q334.656005859375 132.0 319.656005859375 134.5Q304.656005859375 137.0 291.656005859375 145.0Q277.656005859375 154.0 271.656005859375 166.0Q265.656005859375 178.0 265.656005859375 178.0Q265.656005859375 178.0 274.156005859375 179.5Q282.656005859375 181.0 293.656005859375 186.0Q304.656005859375 191.0 310.656005859375 201.0Q318.656005859375 217.0 309.656005859375 234.0Q300.656005859375 251.0 281.656005859375 271.0Q261.656005859375 292.0 243.656005859375 330.0Q225.656005859375 368.0 221.656005859375 415.5Q217.656005859375 463.0 238.656005859375 513.0Q237.656005859375 513.0 244.156005859375 517.5Q250.656005859375 522.0 256.656005859375 527.0Q262.656005859375 532.0 262.656005859375 532.0Q264.656005859375 532.0 297.156005859375 532.0Q329.656005859375 532.0 383.156005859375 532.0Q436.656005859375 532.0 502.656005859375 532.5Q568.656005859375 533.0 637.656005859375 533.0Q706.656005859375 533.0 772.656005859375 532.5Q838.656005859375 532.0 892.156005859375 532.0Q945.656005859375 532.0 978.156005859375 532.0Q1010.656005859375 532.0 1012.656005859375 532.0L1028.656005859375 531.0Q1028.656005859375 530.0 1032.656005859375 521.5Q1036.656005859375 513.0 1036.656005859375 513.0Q1057.656005859375 463.0 1053.156005859375 415.5Q1048.656005859375 368.0 1031.156005859375 330.0Q1013.656005859375 292.0 993.656005859375 271.0Q974.656005859375 251.0 965.156005859375 234.0Q955.656005859375 217.0 964.656005859375 201.0Z" fill="#ffe13b" stroke="none" transform="scale(1,-1) translate(0,-256)" /><path d="M1013 715Q1021 702 1030.5 673.5Q1040 645 1043.0 606.5Q1046 568 1035 526Q1027 495 1013.5 476.5Q1000 458 989.0 447.5Q978 437 977 430Q974 399 963.5 371.0Q953 343 947 328Q945 325 942.5 325.5Q940 326 940 329Q935 367 930.0 416.0Q925 465 917 500Q907 546 888.5 568.5Q870 591 850.0 598.5Q830 606 816.0 605.5Q802 605 802 605Q802 605 796.0 617.5Q790 630 773.0 642.5Q756 655 726.0 657.5Q696 660 648 641Q614 627 581 604Q531 566 483.0 545.5Q435 525 404.0 516.5Q373 508 373 508Q375 499 370.5 474.0Q366 449 359.0 418.5Q352 388 345.5 360.0Q339 332 336 318Q335 316 332.5 315.5Q330 315 329 318Q323 332 316.0 367.0Q309 402 312 458Q312 458 296.0 464.5Q280 471 261.5 484.5Q243 498 235 519Q225 547 229.0 570.0Q233 593 244.5 610.0Q256 627 268 637Q263 651 261.0 678.0Q259 705 276 740Q291 769 314.5 779.5Q338 790 359 791Q349 823 355.0 845.0Q361 867 374.5 880.5Q388 894 399.5 900.0Q411 906 411 906Q411 906 412.0 895.5Q413 885 418.5 872.5Q424 860 436 852Q457 841 480.5 844.5Q504 848 522.0 856.0Q540 864 544 866Q566 878 600.5 892.5Q635 907 682.5 911.0Q730 915 792 895Q827 884 857.0 858.0Q887 832 893 799Q916 797 939.5 783.5Q963 770 982.5 751.0Q1002 732 1013 715Z" fill="#ffe13b" stroke="none" transform="scale(1,-1) translate(0,-256)" /></svg>