<?xml version="1.0" encoding="utf-8" ?>
<svg baseProfile="full" height="256" version="1.1" width="256" xmlns="http://www.w3.org/2000/svg" xmlns:ev="http://www.w3.org/2001/xml-events" xmlns:xlink="http://www.w3.org/1999/xlink"><defs /><path d="M637.656005859375 52.0H721.656005859375Q777.656005859375 52.0 817.656005859375 64.0Q857.656005859375 76.0 882.156005859375 92.0Q906.656005859375 108.0 918.156005859375 120.0Q929.656005859375 132.0 929.656005859375 132.0L905.656005859375 162.0L637.656005859375 140.0Z" fill="#000000" stroke="none" transform="scale(1,-1) translate(0,-256)" /><path d="M-887.6113128662109 -277.8118896484375Q-898.8839874267578 -296.1917724609375 -916.5835647583008 -302.01678466796875Q-934.2831420898438 -307.841796875 -948.8876495361328 -307.30413818359375Q-963.4921569824219 -306.7664794921875 -963.4921569824219 -306.7664794921875Q-963.4921569824219 -306.7664794921875 -955.8120727539062 -301.9441223144531Q-948.1319885253906 -297.12176513671875 -940.1937637329102 -289.3118896484375Q-932.2555389404297 -281.50201416015625 -929.9652862548828 -272.23968505859375Q-927.7125549316406 -260.5377197265625 -935.8759078979492 -253.70977783203125Q-944.0392608642578 -246.8818359375 -958.4043884277344 -242.1368408203125Q-958.4043884277344 -242.1368408203125 -958.4043884277344 -242.1368408203125Q-958.4043884277344 -242.1368408203125 -958.4043884277344 -242.1368408203125Q-958.4043884277344 -242.1368408203125 -945.6676559448242 -239.86270141601562Q-932.9309234619141 -237.58856201171875 -917.1062469482422 -238.37432861328125Q-901.2815704345703 -239.16009521484375 -891.2692031860352 -247.58001708984375Q-881.2568359375 -255.99993896484375 -887.6113128662109 -277.8118896484375Z" fill="#000000" stroke="none" transform="scale(1,-1) translate(0,-256)" /><path d="M352.78773498535156 1063.0186462402344Q352.78773498535156 1063.0186462402344 357.1298141479492 1060.8366012573242Q361.4718933105469 1058.654556274414 361.4718933105469 1058.654556274414Q361.4718933105469 1058.654556274414 362.43643951416016 1040.1751174926758Q363.40098571777344 1021.6956787109375 364.62137603759766 994.2102737426758Q365.8417663574219 966.7248687744141 366.23104095458984 939.1772689819336Q366.6203155517578 911.6296691894531 366.03453063964844 891.530029296875Q365.44874572753906 871.4303894042969 362.2734832763672 869.1871948242188Q356.82867431640625 863.7657928466797 348.6667175292969 861.1494293212891Q340.5047607421875 858.5330657958984 332.9501190185547 858.9705200195312Q322.9767303466797 858.2241821289062 313.57335662841797 861.0302658081055Q304.16998291015625 863.8363494873047 293.898193359375 867.0788421630859Q270.7120666503906 875.3716583251953 241.03672790527344 892.2039794921875Q211.36138916015625 909.0363006591797 184.10479736328125 927.0524139404297Q156.84820556640625 945.0685272216797 138.76593017578125 957.7544403076172Q120.68365478515625 970.4403533935547 120.68365478515625 970.4403533935547Q132.0208740234375 975.2999114990234 142.72399139404297 988.6357345581055Q153.42710876464844 1001.9715576171875 156.4531707763672 1006.2091674804688Q173.24571228027344 1027.5216064453125 203.14434814453125 1046.8064422607422Q233.04298400878906 1066.0912780761719 271.84432220458984 1072.5046615600586Q310.6456604003906 1078.9180450439453 352.78773498535156 1063.0186462402344Z" fill="#000000" stroke="none" transform="scale(1,-1) translate(0,-256)" /><path d="M-408.6075134277344 269.2413635253906Q-408.6075134277344 269.2413635253906 -412.50199127197266 273.04256439208984Q-416.39646911621094 276.84376525878906 -416.39646911621094 276.84376525878906Q-416.0980682373047 280.8325958251953 -413.7749481201172 300.7145538330078Q-411.4518280029297 320.5965118408203 -408.2282485961914 346.9292221069336Q-405.0046691894531 373.2619323730469 -402.3831481933594 397.1327209472656Q-399.7616271972656 421.0035095214844 -399.015625 430.9755859375Q-398.2696228027344 440.9476623535156 -397.6728210449219 448.9253234863281Q-397.0760192871094 456.9029846191406 -389.14837646484375 462.32647705078125Q-382.9575653076172 466.8771514892578 -374.53450775146484 467.75101470947266Q-366.1114501953125 468.6248779296875 -358.63140869140625 468.06512451171875Q-348.65802001953125 467.31878662109375 -339.77684783935547 463.14441680908203Q-330.8956756591797 458.9700469970703 -322.0518035888672 454.2970733642578Q-299.5265655517578 442.5835418701172 -272.68603515625 421.52197265625Q-245.8455047607422 400.4604034423828 -221.5729217529297 378.5882110595703Q-197.3003387451172 356.7160186767578 -181.30686950683594 341.48011779785156Q-165.3134002685547 326.2442169189453 -165.3134002685547 326.2442169189453Q-177.24742126464844 323.12611389160156 -189.81554412841797 311.53174591064453Q-202.3836669921875 299.9373779296875 -206.91224670410156 295.26231384277344Q-225.7830810546875 277.6214599609375 -258.21812438964844 263.00123596191406Q-290.6531677246094 248.38101196289062 -330.0140075683594 247.31533813476562Q-369.3748474121094 246.24966430664062 -408.6075134277344 269.2413635253906Z" fill="#000000" stroke="none" transform="scale(1,-1) translate(0,-256)" /><path d="M637.531005859375 52.0H553.531005859375Q497.531005859375 52.0 457.531005859375 64.0Q417.531005859375 76.0 393.031005859375 92.0Q368.531005859375 108.0 357.031005859375 120.0Q345.531005859375 132.0 345.531005859375 132.0L369.531005859375 162.0L637.531005859375 140.0Z" fill="#000000" stroke="none" transform="scale(1,-1) translate(0,-256)" /><path d="M2162.892318725586 -277.8118896484375Q2174.164993286133 -296.1917724609375 2191.864570617676 -302.01678466796875Q2209.5641479492188 -307.841796875 2224.168655395508 -307.30413818359375Q2238.773162841797 -306.7664794921875 2238.773162841797 -306.7664794921875Q2238.773162841797 -306.7664794921875 2231.0930786132812 -301.9441223144531Q2223.4129943847656 -297.12176513671875 2215.474769592285 -289.3118896484375Q2207.5365447998047 -281.50201416015625 2205.246292114258 -272.23968505859375Q2202.9935607910156 -260.5377197265625 2211.156913757324 -253.70977783203125Q2219.320266723633 -246.8818359375 2233.6853942871094 -242.1368408203125Q2233.6853942871094 -242.1368408203125 2233.6853942871094 -242.1368408203125Q2233.6853942871094 -242.1368408203125 2233.6853942871094 -242.1368408203125Q2233.6853942871094 -242.1368408203125 2220.948661804199 -239.86270141601562Q2208.211929321289 -237.58856201171875 2192.387252807617 -238.37432861328125Q2176.5625762939453 -239.16009521484375 2166.55020904541 -247.58001708984375Q2156.537841796875 -255.99993896484375 2162.892318725586 -277.8118896484375Z" fill="#000000" stroke="none" transform="scale(1,-1) translate(0,-256)" /><path d="M639 62Q729 62 814.0 47.5Q899 33 967.5 3.0Q1036 -27 1076.5 -71.5Q1117 -116 1117 -175V-212H1103H1089H186H172H158V-175Q158 -112 198.5 -67.0Q239 -22 308.0 6.5Q377 35 462.5 48.5Q548 62 638 62Q638 62 638.0 62.0Q638 62 639 62Z" fill="#000000" stroke="none" transform="scale(1,-1) translate(0,-256)" /><path d="M604.1109161376953 -831.4924011230469Q628.3876342773438 -817.3395690917969 653.1257553100586 -804.6139984130859Q677.8638763427734 -791.888427734375 701.2631912231445 -773.8154602050781Q724.6625061035156 -755.7424926757812 745.4296112060547 -725.9091186523438Q766.1967163085938 -696.0757446289062 782.9298095703125 -646.527587890625Q782.9298095703125 -646.527587890625 790.5040817260742 -656.6905212402344Q798.0783538818359 -666.8534545898438 811.1293029785156 -671.0423583984375Q821.447021484375 -674.0128784179688 829.7653274536133 -670.7985992431641Q838.0836334228516 -667.5843200683594 838.0836334228516 -667.5843200683594Q839.0064392089844 -670.4388427734375 840.4536437988281 -677.3276062011719Q846.3684539794922 -710.0966186523438 837.3940811157227 -745.0510711669922Q828.4197082519531 -780.0055236816406 816.3971252441406 -800.7066955566406Q810.3858337402344 -811.0572814941406 794.9972229003906 -824.9644622802734Q779.6086120605469 -838.8716430664062 756.834716796875 -850.4368286132812Q734.0608215332031 -862.0020141601562 705.0792694091797 -864.0134582519531Q695.9919586181641 -864.8489685058594 689.7286834716797 -864.7716369628906Q665.0739898681641 -863.2825927734375 647.8601989746094 -854.6591339111328Q630.6464080810547 -846.0356750488281 620.0034942626953 -838.4410552978516Q609.3605804443359 -830.846435546875 604.1109161376953 -831.4924011230469Z" fill="#000000" stroke="none" transform="scale(1,-1) translate(0,-256)" /><path d="M840.7015686035156 548.8541717529297Q838.0681762695312 545.7274780273438 828.6470336914062 538.8650970458984Q819.2258911132812 532.0027160644531 812.0000610351562 525.6651611328125Q791.7401733398438 509.29644775390625 765.2635192871094 497.39622497558594Q738.786865234375 485.4960021972656 715.2044982910156 500.41160583496094Q688.3783874511719 518.2014007568359 685.1272735595703 539.802360534668Q681.8761596679688 561.4033203125 691.6295623779297 582.2714767456055Q701.3829650878906 603.1396331787109 714.8206481933594 617.4932098388672Q728.2583312988281 631.8467864990234 733.5940246582031 634.6590728759766Q733.1214904785156 633.7777557373047 729.139404296875 624.5660095214844Q725.1573181152344 615.3542633056641 723.3385467529297 602.145637512207Q721.519775390625 588.93701171875 727.131103515625 577.9848937988281Q737.0690612792969 559.0390167236328 756.1894378662109 552.7571182250977Q775.309814453125 546.4752197265625 792.4686889648438 546.3514099121094Q809.6275634765625 546.2276000976562 814.0181884765625 547.2772521972656Q819.8953247070312 547.5297546386719 826.7519836425781 547.8243408203125Q833.608642578125 548.1189270019531 840.7015686035156 548.8541717529297Z" fill="#000000" stroke="none" transform="scale(1,-1) translate(0,-256)" /><path d="M-518.844482421875 767.8453216552734Q-462.1629943847656 753.1530456542969 -422.1081008911133 733.5642776489258Q-382.05320739746094 713.9755096435547 -354.91490173339844 695.8558959960938Q-350.73486328125 692.8786010742188 -349.05326080322266 685.160026550293Q-347.3716583251953 677.4414520263672 -362.72279357910156 671.7037200927734Q-378.0739288330078 665.9659881591797 -426.26756286621094 669.7724609375Q-502.7814025878906 675.7341156005859 -547.8331680297852 685.8403244018555Q-592.8849334716797 695.946533203125 -614.9647521972656 707.9758377075195Q-637.0445709228516 720.0051422119141 -643.828010559082 731.0886764526367Q-650.6114501953125 742.1722106933594 -648.5305633544922 749.8326721191406Q-646.4496765136719 757.4931335449219 -644.4554901123047 759.7028961181641Q-629.5743865966797 774.7835693359375 -599.2166442871094 777.5634994506836Q-568.8589019775391 780.3434295654297 -518.844482421875 767.8453216552734Z" fill="#000000" stroke="none" transform="scale(1,-1) translate(0,-256)" /><path d="M411 906Q411 906 411.0 906.0Q411 906 411 906Q411 906 405.5 895.5Q400 885 397.0 867.0Q394 849 400.5 826.5Q407 804 432 779L359 791Q349 821 354.5 842.0Q360 863 372.0 877.0Q384 891 395.5 898.0Q407 905 410 906Q410 906 410.0 906.0Q410 906 410 906Q411 906 411 906Z" fill="#000000" stroke="none" transform="scale(1,-1) translate(0,-256)" /><path d="M-192.04054260253906 812.396728515625 -164.25660705566406 684.7537231445312Q-125.87309265136719 673.4582061767578 -111.6490478515625 658.9713897705078Q-97.42500305175781 644.4845733642578 -97.42500305175781 644.4845733642578Q-97.42500305175781 644.4845733642578 -94.27769470214844 648.4833374023438Q-91.13038635253906 652.4821014404297 -88.94874572753906 656.7406616210938Q-82.40382385253906 669.5163421630859 -77.77601623535156 690.5605773925781Q-73.14820861816406 711.6048126220703 -80.10130310058594 739.6410827636719Q-85.60945129394531 765.3504180908203 -102.24766540527344 780.4867248535156Q-118.88587951660156 795.6230316162109 -136.5039825439453 803.2701721191406Q-143.0204620361328 805.9924163818359 -146.8831329345703 807.0316009521484Z" fill="#000000" stroke="none" transform="scale(1,-1) translate(0,-256)" /><path d="M274.06996154785156 603.2777862548828Q274.06996154785156 603.2777862548828 275.75254821777344 605.0651397705078Q277.4351348876953 606.8524932861328 277.4351348876953 606.8524932861328Q287.82684326171875 614.5075836181641 302.392333984375 618.5601425170898Q316.95782470703125 622.6127014160156 332.46820068359375 620.4786987304688L294.5250549316406 417.75726318359375Q290.9999694824219 418.2422637939453 286.6899108886719 420.85411834716797Q282.3798522949219 423.4659729003906 282.3798522949219 423.4659729003906Q282.3798522949219 423.4659729003906 272.2697448730469 430.91353607177734Q262.1596374511719 438.36109924316406 250.88841247558594 453.0344009399414Q239.6171875 467.70770263671875 236.83885192871094 489.2879180908203Q232.76312255859375 517.1031951904297 238.43317413330078 540.0446014404297Q244.1032257080078 562.9860076904297 254.52761840820312 578.7120132446289Q264.95201110839844 594.4380187988281 274.06996154785156 603.2777862548828Z" fill="#000000" stroke="none" transform="scale(1,-1) translate(0,-256)" /></svg>