<?xml version="1.0" encoding="utf-8" ?>
<svg baseProfile="full" height="256" version="1.1" width="256" xmlns="http://www.w3.org/2000/svg" xmlns:ev="http://www.w3.org/2001/xml-events" xmlns:xlink="http://www.w3.org/1999/xlink"><defs /><path d="M1013 254Q1009 293 985.5 318.5Q962 344 933 341Q904 338 887.0 308.0Q870 278 874 239Q878 199 901.5 173.5Q925 148 954 151Q983 154 1000.0 184.5Q1017 215 1013 254Z" fill="#176bc6" stroke="none" transform="scale(1,-1) translate(0,-256)" /><path d="M536 725Q534 764 511.0 790.5Q488 817 458 815Q428 813 409.0 784.0Q390 755 392 716Q394 677 417.0 651.0Q440 625 470 627Q499 628 518.5 657.0Q538 686 536 725Z" fill="#176bc6" stroke="none" transform="scale(1,-1) translate(0,-256)" /><path d="M639 753Q609 756 585.0 732.5Q561 709 556 672Q552 635 569.5 606.5Q587 578 617 574Q647 571 671.0 594.5Q695 618 700 655Q704 692 686.0 720.5Q668 749 639 753Z" fill="#176bc6" stroke="none" transform="scale(1,-1) translate(0,-256)" /><path d="M364 706Q354 747 326.5 770.5Q299 794 270 787Q240 780 226.0 746.5Q212 713 221 673Q231 632 258.5 608.0Q286 584 316 591Q345 598 359.5 632.0Q374 666 364 706Z" fill="#176bc6" stroke="none" transform="scale(1,-1) translate(0,-256)" /><path d="M878 65Q843 46 820.5 14.0Q798 -18 788.5 -53.0Q779 -88 785.0 -118.5Q791 -149 814 -165Q840 -184 864.5 -181.5Q889 -179 911.0 -166.0Q933 -153 951.5 -138.5Q970 -124 985 -119Q1010 -110 1037.0 -110.5Q1064 -111 1089.0 -110.5Q1114 -110 1133.0 -98.5Q1152 -87 1161 -53Q1167 -27 1153.5 -0.5Q1140 26 1111.5 48.5Q1083 71 1045.0 83.0Q1007 95 964.0 92.0Q921 89 878 65Z" fill="#176bc6" stroke="none" transform="scale(1,-1) translate(0,-256)" /><path d="M395 571Q362 562 329.5 536.5Q297 511 274.0 476.0Q251 441 245.0 405.5Q239 370 257 341Q274 315 296.0 312.0Q318 309 342.5 318.5Q367 328 392.5 341.5Q418 355 441 364Q459 371 487.0 370.5Q515 370 543.5 371.5Q572 373 594.0 385.5Q616 398 622 429Q628 463 608.0 493.0Q588 523 552.5 544.0Q517 565 475.0 573.0Q433 581 395 571Z" fill="#176bc6" stroke="none" transform="scale(1,-1) translate(0,-256)" /><path d="M221 602Q202 636 170.0 649.0Q138 662 112 647Q86 632 81.5 598.0Q77 564 96 530Q115 497 147.0 484.0Q179 471 205 486Q231 500 235.5 534.5Q240 569 221 602Z" fill="#176bc6" stroke="none" transform="scale(1,-1) translate(0,-256)" /><path d="M844 215Q824 250 791.0 263.0Q758 276 731 261Q704 245 699.0 210.0Q694 175 714 140Q734 106 767.0 93.0Q800 80 827 95Q854 111 859.0 146.0Q864 181 844 215Z" fill="#176bc6" stroke="none" transform="scale(1,-1) translate(0,-256)" /><path d="M724.6284484863281 78.30088806152344Q702.1456146240234 110.41999816894531 669.2024917602539 121.25238800048828Q636.2593688964844 132.08477783203125 612.3884124755859 115.34437561035156Q588.5174560546875 98.60397338867188 588.274658203125 64.12165832519531Q588.0318603515625 29.63934326171875 610.5146942138672 -2.479766845703125Q633.4844207763672 -35.472381591796875 666.4275436401367 -46.304771423339844Q699.3706665039062 -57.13716125488281 723.2416229248047 -40.396759033203125Q747.1125793457031 -23.656356811523438 747.111930847168 11.262710571289062Q747.1112823486328 46.18177795410156 724.6284484863281 78.30088806152344Z" fill="#176bc6" stroke="none" transform="scale(1,-1) translate(0,-256)" /><path d="M1186 220Q1183 257 1161.5 281.5Q1140 306 1111 304Q1082 302 1063.0 275.0Q1044 248 1047 211Q1049 175 1071.0 150.0Q1093 125 1122 127Q1150 129 1169.0 156.0Q1188 183 1186 220Z" fill="#176bc6" stroke="none" transform="scale(1,-1) translate(0,-256)" /></svg>