<?xml version="1.0" encoding="utf-8" ?>
<svg baseProfile="full" height="256" version="1.1" width="256" xmlns="http://www.w3.org/2000/svg" xmlns:ev="http://www.w3.org/2001/xml-events" xmlns:xlink="http://www.w3.org/1999/xlink"><defs /><path d="M680.39111328125 868.4518280029297Q680.39111328125 871.3759002685547 679.2945861816406 873.9470672607422Q678.1980590820312 876.5182342529297 676.2444763183594 878.4718170166016Q674.2908935546875 880.4253997802734 671.7197265625 881.5345306396484Q669.1485595703125 882.6436614990234 666.2244873046875 882.6436614990234Q663.2752075195312 882.6436614990234 660.7040405273438 881.5345306396484Q658.1328735351562 880.4253997802734 656.1792907714844 878.4718170166016Q654.2257080078125 876.5182342529297 653.1291809082031 873.9470672607422Q652.0326538085938 871.3759002685547 652.0326538085938 868.4518280029297Q652.0326538085938 865.5277557373047 653.1291809082031 862.9565887451172Q654.2257080078125 860.3854217529297 656.1792907714844 858.4318389892578Q658.1328735351562 856.4782562255859 660.7040405273438 855.3817291259766Q663.2752075195312 854.2852020263672 666.2244873046875 854.2852020263672Q669.1485595703125 854.2852020263672 671.7197265625 855.3817291259766Q674.2908935546875 856.4782562255859 676.2444763183594 858.4318389892578Q678.1980590820312 860.3854217529297 679.2945861816406 862.9565887451172Q680.39111328125 865.5277557373047 680.39111328125 868.4518280029297Z" fill="#ffbb23" stroke="none" transform="scale(1,-1) translate(0,-256)" /><path d="M395 767Q395 781 382 781Q369 781 369 767Q369 754 382 754Q395 754 395 767Z" fill="#ffbb23" stroke="none" transform="scale(1,-1) translate(0,-256)" /><path d="M879.9313201904297 729.5926361083984Q879.9313201904297 732.0281829833984 879.0179901123047 734.1697845458984Q878.1046600341797 736.3113861083984 876.4774627685547 737.9385833740234Q874.8502655029297 739.5657806396484 872.7086639404297 740.4896087646484Q870.5670623779297 741.4134368896484 868.1315155029297 741.4134368896484Q865.6749725341797 741.4134368896484 863.5333709716797 740.4896087646484Q861.3917694091797 739.5657806396484 859.7645721435547 737.9385833740234Q858.1373748779297 736.3113861083984 857.2240447998047 734.1697845458984Q856.3107147216797 732.0281829833984 856.3107147216797 729.5926361083984Q856.3107147216797 727.1570892333984 857.2240447998047 725.0154876708984Q858.1373748779297 722.8738861083984 859.7645721435547 721.2466888427734Q861.3917694091797 719.6194915771484 863.5333709716797 718.7061614990234Q865.6749725341797 717.7928314208984 868.1315155029297 717.7928314208984Q870.5670623779297 717.7928314208984 872.7086639404297 718.7061614990234Q874.8502655029297 719.6194915771484 876.4774627685547 721.2466888427734Q878.1046600341797 722.8738861083984 879.0179901123047 725.0154876708984Q879.9313201904297 727.1570892333984 879.9313201904297 729.5926361083984Z" fill="#ffbb23" stroke="none" transform="scale(1,-1) translate(0,-256)" /><path d="M960 617Q959 632 945 631Q932 630 933 616Q933 602 946 602Q952 603 956.0 606.5Q960 610 960 617Z" fill="#ffbb23" stroke="none" transform="scale(1,-1) translate(0,-256)" /><path d="M1155 710Q1152 725 1138 721Q1124 717 1128 703Q1132 689 1146 692Q1159 696 1155 710Z" fill="#ffbb23" stroke="none" transform="scale(1,-1) translate(0,-256)" /><path d="M157 643Q147 653 138 643Q128 634 138 624Q149 614 158 623Q167 633 157 643Z" fill="#ffbb23" stroke="none" transform="scale(1,-1) translate(0,-256)" /><path d="M322 641Q322 641 328.5 643.0Q335 645 342.5 646.5Q350 648 351 646Q352 644 345.0 633.0Q338 622 338 622Q338 622 341.5 616.0Q345 610 348.5 603.5Q352 597 351 596Q349 594 336.5 598.0Q324 602 324 602Q324 602 314.5 591.0Q305 580 303 580Q301 580 300.5 587.5Q300 595 300.0 602.5Q300 610 300 610Q300 610 293.0 612.5Q286 615 279.5 618.0Q273 621 273 623Q273 626 286.5 629.5Q300 633 300 633Q300 633 300.0 640.5Q300 648 300.5 655.5Q301 663 303 664Q306 664 314.0 652.5Q322 641 322 641Z" fill="#ffbb23" stroke="none" transform="scale(1,-1) translate(0,-256)" /><path d="M973 792Q973 792 960.0 798.5Q947 805 945 802Q942 800 949.0 788.0Q956 776 956 776Q956 776 946.5 767.5Q937 759 938 757Q938 755 950.0 755.0Q962 755 962 755Q962 755 964.0 741.5Q966 728 969 728Q972 728 978.0 739.0Q984 750 984 750Q984 750 995.5 744.5Q1007 739 1009 741Q1009 742 1004.5 753.5Q1000 765 1000 765Q1000 765 1010.0 772.0Q1020 779 1020 782Q1020 784 1007.0 784.5Q994 785 994 785Q994 785 994.5 798.0Q995 811 993 812Q992 813 987.0 808.0Q982 803 977.5 797.5Q973 792 973 792Z" fill="#ffbb23" stroke="none" transform="scale(1,-1) translate(0,-256)" /></svg>