<?xml version="1.0" encoding="utf-8" ?>
<svg baseProfile="full" height="256" version="1.1" width="256" xmlns="http://www.w3.org/2000/svg" xmlns:ev="http://www.w3.org/2001/xml-events" xmlns:xlink="http://www.w3.org/1999/xlink"><defs /><path d="M519 -99Q519 -99 519.0 -86.5Q519 -74 519.5 -57.0Q520 -40 520.0 -26.5Q520 -13 521 -10Q521 -7 538.5 -6.0Q556 -5 578.5 -4.5Q601 -4 618.5 -4.0Q636 -4 636 -4Q636 -4 655.0 -4.0Q674 -4 699.0 -4.5Q724 -5 743.5 -6.5Q763 -8 764 -11Q766 -14 766.0 -27.5Q766 -41 766.0 -57.5Q766 -74 766.0 -86.0Q766 -98 766 -98Q766 -98 783.5 -98.5Q801 -99 822.0 -100.0Q843 -101 853 -102Q869 -104 889.0 -108.0Q909 -112 910 -126Q911 -149 864 -151Q856 -151 824.5 -151.0Q793 -151 748.5 -151.5Q704 -152 654.0 -152.0Q604 -152 558.5 -151.5Q513 -151 479.5 -151.0Q446 -151 435 -151Q400 -151 386.0 -143.5Q372 -136 373 -123Q374 -113 385.5 -107.5Q397 -102 408 -101Q416 -100 434.0 -99.5Q452 -99 471.5 -99.0Q491 -99 505.0 -99.0Q519 -99 519 -99Z" fill="#4f838f" stroke="none" transform="scale(1,-1) translate(0,-256)" /></svg>