<?xml version="1.0" encoding="utf-8" ?>
<svg baseProfile="full" height="256" version="1.1" width="256" xmlns="http://www.w3.org/2000/svg" xmlns:ev="http://www.w3.org/2001/xml-events" xmlns:xlink="http://www.w3.org/1999/xlink"><defs /><path d="M466 183H480L483 636H469Z" fill="#f86e49" stroke="none" transform="scale(1,-1) translate(0,-256)" /><path d="M368.53233337402344 526.152587890625V194.62039184570312H382.5977478027344V526.152587890625Z" fill="#f86e49" stroke="none" transform="scale(1,-1) translate(0,-256)" /><path d="M274.6883239746094 439.4690704345703V199.9433135986328H288.7537384033203V439.4690704345703Z" fill="#f86e49" stroke="none" transform="scale(1,-1) translate(0,-256)" /><path d="M185.405517578125 375.7559509277344V195.96261596679688H199.4605712890625V375.7559509277344Z" fill="#f86e49" stroke="none" transform="scale(1,-1) translate(0,-256)" /><path d="M83.81332397460938 331.7503356933594V202.222900390625H97.87873840332031V331.7503356933594Z" fill="#f86e49" stroke="none" transform="scale(1,-1) translate(0,-256)" /><path d="M776.6263275146484 502.0347595214844V190.03952026367188H790.6917419433594V502.0347595214844Z" fill="#f86e49" stroke="none" transform="scale(1,-1) translate(0,-256)" /><path d="M866 421 868 190H882L880 421Z" fill="#f86e49" stroke="none" transform="scale(1,-1) translate(0,-256)" /><path d="M960.6573333740234 340.8039245605469V197.9119873046875H974.7227478027344V340.8039245605469Z" fill="#f86e49" stroke="none" transform="scale(1,-1) translate(0,-256)" /><path d="M1054.843017578125 279.54254150390625V193.29287719726562H1068.8980712890625V279.54254150390625Z" fill="#f86e49" stroke="none" transform="scale(1,-1) translate(0,-256)" /><path d="M99.81170654296875 218.2215576171875V116.14468383789062H113.86676025390625V218.2215576171875Z" fill="#f86e49" stroke="none" transform="scale(1,-1) translate(0,-256)" /><path d="M205.37420654296875 270.39320373535156V112.70149230957031H219.42926025390625V270.39320373535156Z" fill="#f86e49" stroke="none" transform="scale(1,-1) translate(0,-256)" /><path d="M296.218017578125 329.4415588378906V111.60958862304688H310.2730712890625V329.4415588378906Z" fill="#f86e49" stroke="none" transform="scale(1,-1) translate(0,-256)" /><path d="M393.9383239746094 410.069091796875V115.03045654296875H408.0037384033203V410.069091796875Z" fill="#f86e49" stroke="none" transform="scale(1,-1) translate(0,-256)" /><path d="M489.343017578125 501.91143798828125V113.94088745117188H503.3980712890625V501.91143798828125Z" fill="#f86e49" stroke="none" transform="scale(1,-1) translate(0,-256)" /><path d="M798.2492065429688 664.1539764404297V112.89179992675781H812.3042602539062V664.1539764404297Z" fill="#f86e49" stroke="none" transform="scale(1,-1) translate(0,-256)" /><path d="M886.7492065429688 563.1946258544922V116.22105407714844H900.8042602539062V563.1946258544922Z" fill="#f86e49" stroke="none" transform="scale(1,-1) translate(0,-256)" /><path d="M978.8453216552734 473.60752868652344V118.43647766113281H992.9107360839844V473.60752868652344Z" fill="#f86e49" stroke="none" transform="scale(1,-1) translate(0,-256)" /><path d="M1078.7492065429688 403.17124938964844V121.85789489746094H1092.8042602539062V403.17124938964844Z" fill="#f86e49" stroke="none" transform="scale(1,-1) translate(0,-256)" /><path d="M1169.593017578125 341.88470458984375V118.45281982421875H1183.6480712890625V341.88470458984375Z" fill="#f86e49" stroke="none" transform="scale(1,-1) translate(0,-256)" /><path d="M591 761Q589 762 587.5 772.0Q586 782 585.5 791.5Q585 801 585 801Q585 801 589.5 801.0Q594 801 597 796Q600 791 602.0 779.5Q604 768 604 768Q604 768 614.5 762.5Q625 757 648 756Q675 756 687.0 763.0Q699 770 699 770Q699 770 699.0 780.5Q699 791 702 796Q705 802 709.5 802.5Q714 803 714 803Q714 803 714.0 792.0Q714 781 713.5 769.5Q713 758 713 758Q706 753 687.5 748.0Q669 743 648 743Q633 742 616.5 747.0Q600 752 591 761Z" fill="#f86e49" stroke="none" transform="scale(1,-1) translate(0,-256)" /><path d="M609 610Q613 608 622.5 604.5Q632 601 648 601Q663 601 675.0 606.5Q687 612 687 609Q688 605 687.0 600.5Q686 596 680 591Q674 586 659.5 584.0Q645 582 631.0 584.0Q617 586 612 593Q606 599 605.5 605.0Q605 611 609 610Z" fill="#f86e49" stroke="none" transform="scale(1,-1) translate(0,-256)" /><path d="M609 430Q613 431 622.5 425.5Q632 420 650 420Q662 420 674.0 425.5Q686 431 689 429Q691 427 689.0 420.0Q687 413 679 407Q671 401 649.0 400.5Q627 400 617 409Q610 415 607.5 422.0Q605 429 609 430Z" fill="#f86e49" stroke="none" transform="scale(1,-1) translate(0,-256)" /><path d="M574.0323333740234 601.1834716796875V121.10452270507812H588.0977478027344V601.1834716796875Z" fill="#f86e49" stroke="none" transform="scale(1,-1) translate(0,-256)" /></svg>