<?xml version="1.0" encoding="utf-8" ?>
<svg baseProfile="full" height="256" version="1.1" width="256" xmlns="http://www.w3.org/2000/svg" xmlns:ev="http://www.w3.org/2001/xml-events" xmlns:xlink="http://www.w3.org/1999/xlink"><defs /><path d="M540 -2H605L606 104V146L611 706H687L691 144V108L692 -4L749 -7L753 555H741L743 764H730Q730 764 729.5 771.0Q729 778 729 786Q729 803 713 803Q707 803 704.0 794.0Q701 785 700.5 776.5Q700 768 700 768Q700 768 691.5 761.5Q683 755 656 755Q630 754 616.0 762.0Q602 770 602 770Q602 770 601.0 778.0Q600 786 596.5 793.5Q593 801 584 801Q572 800 572 784Q572 777 572.0 770.5Q572 764 572 764H559V557H544Z" fill="#fe5314" stroke="none" transform="scale(1,-1) translate(0,-256)" /><path d="M591 358 596 437Q596 437 604.0 431.0Q612 425 623.5 419.0Q635 413 647 413Q664 413 678.5 418.5Q693 424 693 424L728 358Z" fill="#fe5314" stroke="none" transform="scale(1,-1) translate(0,-256)" /><path d="M603 524V605Q603 605 611.5 600.0Q620 595 631.5 590.0Q643 585 651 586Q669 587 678.5 597.0Q688 607 691.5 616.5Q695 626 695 626L702 514Q702 514 693.5 524.5Q685 535 679 538Q669 542 649.0 542.0Q629 542 621 538Q615 534 609.0 529.0Q603 524 603 524Z" fill="#fe5314" stroke="none" transform="scale(1,-1) translate(0,-256)" /></svg>