<?xml version="1.0" encoding="utf-8" ?>
<svg baseProfile="full" height="256" version="1.1" width="256" xmlns="http://www.w3.org/2000/svg" xmlns:ev="http://www.w3.org/2001/xml-events" xmlns:xlink="http://www.w3.org/1999/xlink"><defs /><path d="M340 585Q340 585 338.0 601.5Q336 618 335 628Q334 635 328.0 645.5Q322 656 317.0 664.0Q312 672 312 672Q312 672 326.5 685.5Q341 699 358 703Q368 706 386.0 704.5Q404 703 421.5 694.5Q439 686 451.0 667.0Q463 648 461 617Q460 585 443.5 567.0Q427 549 407.0 541.5Q387 534 371.5 532.0Q356 530 356 530Q356 530 344.0 502.5Q332 475 313 441Q299 414 277.5 401.0Q256 388 235.5 387.0Q215 386 201 395Q185 406 180.5 426.5Q176 447 180.5 469.5Q185 492 197 510Q208 528 228.5 544.0Q249 560 266.5 570.5Q284 581 288 581Q291 582 304.0 583.0Q317 584 328.5 584.5Q340 585 340 585Z" fill="#ff6157" stroke="none" transform="scale(1,-1) translate(0,-256)" /></svg>