<?xml version="1.0" encoding="utf-8" ?>
<svg baseProfile="full" height="256" version="1.1" width="256" xmlns="http://www.w3.org/2000/svg" xmlns:ev="http://www.w3.org/2001/xml-events" xmlns:xlink="http://www.w3.org/1999/xlink"><defs /><path d="M430 736Q459 737 492.0 726.5Q525 716 552 688Q578 660 592.5 622.5Q607 585 615.5 551.5Q624 518 633 502Q642 487 651.5 469.5Q661 452 668.0 439.5Q675 427 675 427L500 370Q500 370 489.5 380.5Q479 391 465.5 404.5Q452 418 440.5 428.5Q429 439 427 439Q424 438 415.5 429.0Q407 420 396.5 408.5Q386 397 377.0 388.0Q368 379 366 380Q363 380 352.0 388.5Q341 397 328.0 407.5Q315 418 305.5 426.5Q296 435 296 435L288 585Q288 585 273.0 587.0Q258 589 238.5 593.5Q219 598 204.5 605.0Q190 612 192 622Q193 629 206.0 642.0Q219 655 239 662Q248 665 266.0 667.0Q284 669 299.0 670.5Q314 672 314 672Q314 672 329.5 687.5Q345 703 371.5 718.5Q398 734 430 736Z" fill="#ffb903" stroke="none" transform="scale(1,-1) translate(0,-256)" /></svg>