<?xml version="1.0" encoding="utf-8" ?>
<svg baseProfile="full" height="256" version="1.1" width="256" xmlns="http://www.w3.org/2000/svg" xmlns:ev="http://www.w3.org/2001/xml-events" xmlns:xlink="http://www.w3.org/1999/xlink"><defs /><path d="M597 478Q597 478 610.0 470.0Q623 462 644.0 451.5Q665 441 688.5 432.0Q712 423 732 421Q765 417 792.5 403.0Q820 389 822 368Q824 354 816.5 343.0Q809 332 801.5 326.0Q794 320 794 320Q794 320 802.5 317.0Q811 314 820.0 306.0Q829 298 830 283Q830 269 820.5 256.5Q811 244 801.0 236.5Q791 229 791 229Q791 229 797.5 221.5Q804 214 807 196Q810 181 795.5 161.0Q781 141 742 125Q711 112 671.0 106.0Q631 100 589.0 106.0Q547 112 510 135Q459 167 442.5 225.5Q426 284 446 343Q456 373 480.5 397.5Q505 422 531.5 440.0Q558 458 577.5 468.0Q597 478 597 478Z" fill="#d27856" stroke="none" transform="scale(1,-1) translate(0,-256)" /></svg>