<?xml version="1.0" encoding="utf-8" ?>
<svg baseProfile="full" height="256" version="1.1" width="256" xmlns="http://www.w3.org/2000/svg" xmlns:ev="http://www.w3.org/2001/xml-events" xmlns:xlink="http://www.w3.org/1999/xlink"><defs /><path d="M246 617Q246 612 246.5 570.5Q247 529 249.0 463.5Q251 398 253.5 320.0Q256 242 258.5 163.5Q261 85 263.5 18.0Q266 -49 267.5 -93.5Q269 -138 270 -146Q273 -176 287.5 -192.0Q302 -208 320 -211Q326 -211 361.5 -211.5Q397 -212 452.5 -212.5Q508 -213 573.5 -213.0Q639 -213 705.0 -213.0Q771 -213 827.5 -212.5Q884 -212 922.0 -211.5Q960 -211 968 -211Q986 -209 995.5 -199.0Q1005 -189 1008.0 -177.0Q1011 -165 1012 -156Q1012 -153 1013.0 -117.0Q1014 -81 1015.0 -23.0Q1016 35 1017.0 107.0Q1018 179 1019.5 255.5Q1021 332 1021.5 404.0Q1022 476 1023.0 534.5Q1024 593 1024.0 629.0Q1024 665 1023 669Q1021 683 1006.5 695.0Q992 707 973 707Q960 707 913.0 708.0Q866 709 796.0 709.5Q726 710 644 710Q520 710 451.5 710.0Q383 710 357 709Q329 708 306.5 707.5Q284 707 270 695Q254 681 250.5 659.5Q247 638 246 617Z" fill="#d8cdc9" stroke="none" transform="scale(1,-1) translate(0,-256)" /></svg>