<?xml version="1.0" encoding="utf-8" ?>
<svg baseProfile="full" height="256" version="1.1" width="256" xmlns="http://www.w3.org/2000/svg" xmlns:ev="http://www.w3.org/2001/xml-events" xmlns:xlink="http://www.w3.org/1999/xlink"><defs /><path d="M1003 111 1010 252H769L771 395L690 370L694 111Z" fill="#606060" stroke="none" transform="scale(1,-1) translate(0,-256)" /><path d="M347.8335266113281 84.13438415527344V-39.73823547363281H491.6846923828125V84.13438415527344Z" fill="#606060" stroke="none" transform="scale(1,-1) translate(0,-256)" /><path d="M507 22Q507 48 502.5 66.0Q498 84 492 84Q486 84 481.5 66.0Q477 48 477 22Q477 -4 481.5 -22.0Q486 -40 492 -40Q498 -40 502.5 -22.0Q507 -4 507 22Z" fill="#606060" stroke="none" transform="scale(1,-1) translate(0,-256)" /><path d="M363.093994140625 22.0Q363.093994140625 48.0 358.593994140625 66.0Q354.093994140625 84.0 348.093994140625 84.0Q342.093994140625 84.0 337.593994140625 66.0Q333.093994140625 48.0 333.093994140625 22.0Q333.093994140625 -4.0 337.593994140625 -22.0Q342.093994140625 -40.0 348.093994140625 -40.0Q354.093994140625 -40.0 358.593994140625 -22.0Q363.093994140625 -4.0 363.093994140625 22.0Z" fill="#606060" stroke="none" transform="scale(1,-1) translate(0,-256)" /></svg>