<?xml version="1.0" encoding="utf-8" ?>
<svg baseProfile="full" height="256" version="1.1" width="256" xmlns="http://www.w3.org/2000/svg" xmlns:ev="http://www.w3.org/2001/xml-events" xmlns:xlink="http://www.w3.org/1999/xlink"><defs /><path d="M548 27 786 -80 727 -79 542 -1H520Q520 -26 515.0 -40.5Q510 -55 495 -55Q489 -55 467.5 -55.0Q446 -55 420.5 -55.0Q395 -55 376.5 -55.0Q358 -55 358 -55Q352 -55 347.5 -35.5Q343 -16 343 11Q343 11 358.0 17.5Q373 24 395.5 34.0Q418 44 441.0 54.0Q464 64 480.0 70.5Q496 77 498 77Q508 77 513 67Q516 62 517.5 52.5Q519 43 520 27Z" fill="#212121" stroke="none" transform="scale(1,-1) translate(0,-256)" /><path d="M254 142Q255 152 263.0 159.0Q271 166 281 166H385Q396 166 403.0 158.5Q410 151 409 140Q408 126 407.0 118.5Q406 111 406 111H250Q250 111 251.5 119.5Q253 128 254 142Z" fill="#212121" stroke="none" transform="scale(1,-1) translate(0,-256)" /></svg>