<?xml version="1.0" encoding="utf-8" ?>
<svg baseProfile="full" height="256" version="1.1" width="256" xmlns="http://www.w3.org/2000/svg" xmlns:ev="http://www.w3.org/2001/xml-events" xmlns:xlink="http://www.w3.org/1999/xlink"><defs /><path d="M428 314Q426 329 438 329H515Q522 329 524 319Q526 311 527.5 297.5Q529 284 529 261Q529 247 519 247H441Q431 247 431 260Q431 276 430.0 290.0Q429 304 428 314Z" fill="#4ca854" stroke="none" transform="scale(1,-1) translate(0,-256)" /><path d="M572.375 314.0Q570.375 329.0 582.375 329.0H659.375Q666.375 329.0 668.375 319.0Q670.375 311.0 671.875 297.5Q673.375 284.0 673.375 261.0Q673.375 247.0 663.375 247.0H585.375Q575.375 247.0 575.375 260.0Q575.375 276.0 574.375 290.0Q573.375 304.0 572.375 314.0Z" fill="#4ca854" stroke="none" transform="scale(1,-1) translate(0,-256)" /></svg>