<?xml version="1.0" encoding="utf-8" ?>
<svg baseProfile="full" height="256" version="1.1" width="256" xmlns="http://www.w3.org/2000/svg" xmlns:ev="http://www.w3.org/2001/xml-events" xmlns:xlink="http://www.w3.org/1999/xlink"><defs /><path d="M444 742Q401 742 370.0 729.0Q339 716 322.0 702.5Q305 689 305 689Q301 698 299.5 719.5Q298 741 303.5 769.0Q309 797 324.5 825.5Q340 854 370.0 875.5Q400 897 448 905Q485 912 510.0 909.5Q535 907 553.5 902.0Q572 897 588.5 894.0Q605 891 625 896Q630 897 636.0 898.5Q642 900 648 901Q686 907 711.0 901.0Q736 895 751.0 883.5Q766 872 773.0 861.0Q780 850 782 846Q793 822 785.0 793.0Q777 764 752 753Q720 739 696.0 741.0Q672 743 654.5 749.0Q637 755 624 751Q611 747 598.0 736.5Q585 726 563.0 720.0Q541 714 503 722Q487 725 473.5 733.5Q460 742 444 742Z" fill="#bdbdbd" stroke="none" transform="scale(1,-1) translate(0,-256)" /></svg>