<?xml version="1.0" encoding="utf-8" ?>
<svg baseProfile="full" height="256" version="1.1" width="256" xmlns="http://www.w3.org/2000/svg" xmlns:ev="http://www.w3.org/2001/xml-events" xmlns:xlink="http://www.w3.org/1999/xlink"><defs /><path d="M768 585H1183V166H768ZM1141 219V539H811V219Z" fill="#c62828" stroke="none" transform="scale(1,-1) translate(0,-256)" /><path d="M1061 298V461L1059 464Q1031 502 977 502Q923 502 895 464L893 461V298Q893 280 912 280H1042Q1050 280 1055 285Q1061 290 1061 298ZM1042 298V299H912V298V455Q934 483 977 483Q1020 483 1042 455Z" fill="#c62828" stroke="none" transform="scale(1,-1) translate(0,-256)" /></svg>