<?xml version="1.0" encoding="utf-8" ?>
<svg baseProfile="full" height="256" version="1.1" width="256" xmlns="http://www.w3.org/2000/svg" xmlns:ev="http://www.w3.org/2001/xml-events" xmlns:xlink="http://www.w3.org/1999/xlink"><defs /><path d="M781 -185Q783 -176 785.5 -144.0Q788 -112 790.5 -73.0Q793 -34 797 -3Q799 16 805.0 51.0Q811 86 818.5 127.0Q826 168 833.5 205.5Q841 243 846.0 267.0Q851 291 851 291Q851 291 857.0 264.0Q863 237 870.5 198.0Q878 159 884 122Q888 101 893.5 65.5Q899 30 905.5 -10.5Q912 -51 918.0 -87.5Q924 -124 928.5 -148.0Q933 -172 935 -174Q937 -178 955.0 -181.0Q973 -184 995.0 -185.0Q1017 -186 1031 -184Q1050 -182 1072.0 -176.0Q1094 -170 1109.5 -163.5Q1125 -157 1124 -153Q1123 -151 1109.0 -139.0Q1095 -127 1076.0 -111.0Q1057 -95 1040.0 -79.5Q1023 -64 1016 -55Q1007 -42 987.5 -15.5Q968 11 949.5 40.0Q931 69 923 88Q918 103 908.5 135.0Q899 167 889.0 203.5Q879 240 871.5 267.5Q864 295 862 300Q859 309 851.5 310.5Q844 312 839 301Q836 294 830.0 269.5Q824 245 818.0 218.0Q812 191 808 177Q802 156 778.0 105.5Q754 55 712 -20Q691 -57 667.0 -89.5Q643 -122 621.5 -146.5Q600 -171 587.5 -186.0Q575 -201 578 -204Q582 -208 600.5 -209.0Q619 -210 642.0 -209.5Q665 -209 683 -209Q700 -209 723.0 -205.5Q746 -202 763.0 -197.0Q780 -192 781 -185Z" fill="#9c2d1b" stroke="none" transform="scale(1,-1) translate(0,-256)" /><path d="M77 26 84 -95Q84 -95 91.0 -98.5Q98 -102 107 -102Q116 -102 122.5 -97.5Q129 -93 129 -93L121 27Q121 27 113.5 31.0Q106 35 97 34Q87 34 82.0 30.0Q77 26 77 26Z" fill="#9c2d1b" stroke="none" transform="scale(1,-1) translate(0,-256)" /><path d="M426 -94 434 -218Q434 -218 443.0 -220.5Q452 -223 459 -223Q467 -223 474.5 -219.5Q482 -216 482 -216L481 -94Q481 -94 473.0 -90.0Q465 -86 453 -86Q441 -86 433.5 -90.0Q426 -94 426 -94Z" fill="#9c2d1b" stroke="none" transform="scale(1,-1) translate(0,-256)" /><path d="M1153 -41 1148 -164Q1148 -164 1156.0 -167.5Q1164 -171 1174 -171Q1185 -171 1189.5 -167.0Q1194 -163 1194 -163L1201 -38Q1201 -38 1195.0 -35.0Q1189 -32 1177 -32Q1166 -31 1159.5 -36.0Q1153 -41 1153 -41Z" fill="#9c2d1b" stroke="none" transform="scale(1,-1) translate(0,-256)" /></svg>