<?xml version="1.0" encoding="utf-8" ?>
<svg baseProfile="full" height="256" version="1.1" width="256" xmlns="http://www.w3.org/2000/svg" xmlns:ev="http://www.w3.org/2001/xml-events" xmlns:xlink="http://www.w3.org/1999/xlink"><defs /><path d="M902 560V512Q902 512 914.5 524.5Q927 537 944.5 549.0Q962 561 977 560Q990 559 995.0 548.5Q1000 538 1007.5 528.0Q1015 518 1036 517Q1052 517 1071.0 526.0Q1090 535 1108.0 547.0Q1126 559 1137.5 568.5Q1149 578 1149 578L1150 619Q1150 619 1137.0 609.5Q1124 600 1105.5 587.0Q1087 574 1069.5 564.0Q1052 554 1043 554Q1031 553 1026.0 564.0Q1021 575 1013.0 586.0Q1005 597 985 599Q965 601 946.0 591.0Q927 581 914.5 570.5Q902 560 902 560Z" fill="#eb2901" stroke="none" transform="scale(1,-1) translate(0,-256)" /></svg>