<?xml version="1.0" encoding="utf-8" ?>
<svg baseProfile="full" height="256" version="1.1" width="256" xmlns="http://www.w3.org/2000/svg" xmlns:ev="http://www.w3.org/2001/xml-events" xmlns:xlink="http://www.w3.org/1999/xlink"><defs /><path d="M1168 661Q1180 661 1179 649Q1178 647 1178.0 627.0Q1178 607 1178.0 579.5Q1178 552 1178.0 524.5Q1178 497 1178.0 478.5Q1178 460 1178 460H872Q872 460 872.0 478.0Q872 496 872.5 522.5Q873 549 873.0 576.5Q873 604 873.0 624.0Q873 644 873 647Q874 661 883 661Q884 661 904.5 661.0Q925 661 956.5 661.0Q988 661 1023.5 661.0Q1059 661 1091.0 661.0Q1123 661 1144.5 661.0Q1166 661 1168 661Z" fill="#e0dfde" stroke="none" transform="scale(1,-1) translate(0,-256)" /></svg>