<?xml version="1.0" encoding="utf-8" ?>
<svg baseProfile="full" height="256" version="1.1" width="256" xmlns="http://www.w3.org/2000/svg" xmlns:ev="http://www.w3.org/2001/xml-events" xmlns:xlink="http://www.w3.org/1999/xlink"><defs /><path d="M876 -209 853 -59 869 328 1033 355 1200 330Q1200 330 1200.0 303.0Q1200 276 1200.0 231.0Q1200 186 1199.5 131.5Q1199 77 1199.0 22.5Q1199 -32 1199.0 -78.0Q1199 -124 1199.0 -153.5Q1199 -183 1199 -186Q1199 -209 1182 -209Q1180 -209 1157.0 -209.0Q1134 -209 1099.0 -209.0Q1064 -209 1025.5 -209.0Q987 -209 953.0 -209.0Q919 -209 897.5 -209.0Q876 -209 876 -209Z" fill="#c4aa9d" stroke="none" transform="scale(1,-1) translate(0,-256)" /></svg>