<?xml version="1.0" encoding="utf-8" ?>
<svg baseProfile="full" height="256" version="1.1" width="256" xmlns="http://www.w3.org/2000/svg" xmlns:ev="http://www.w3.org/2001/xml-events" xmlns:xlink="http://www.w3.org/1999/xlink"><defs /><path d="M1106 82V11Q1106 0 1100.0 -7.5Q1094 -15 1085 -15H984L996 -212H849H703L715 -15H613Q605 -15 598.5 -7.5Q592 0 592 11V82L645 99Q637 139 647.5 163.5Q658 188 675.5 200.5Q693 213 705 215Q704 219 704 224Q704 242 709.5 264.5Q715 287 730.0 304.0Q745 321 775 324Q774 330 774 334Q774 364 795.5 386.0Q817 408 848 408Q848 408 848.5 408.0Q849 408 849 408Q850 408 850.0 408.0Q850 408 851 408Q881 408 903.0 386.0Q925 364 925 334Q925 330 924 324Q954 321 969.0 304.0Q984 287 989.0 264.5Q994 242 994 224Q994 219 994 215Q1006 213 1023.5 200.5Q1041 188 1051.5 163.5Q1062 139 1054 99Z" fill="#1a237e" stroke="none" transform="scale(1,-1) translate(0,-256)" /></svg>