<?xml version="1.0" encoding="utf-8" ?>
<svg baseProfile="full" height="256" version="1.1" width="256" xmlns="http://www.w3.org/2000/svg" xmlns:ev="http://www.w3.org/2001/xml-events" xmlns:xlink="http://www.w3.org/1999/xlink"><defs /><path d="M337 -10Q312 -28 290.0 -50.5Q268 -73 254 -100Q242 -124 235.0 -150.0Q228 -176 225.0 -194.0Q222 -212 222 -212H264Q271 -204 281.5 -182.0Q292 -160 303.5 -132.5Q315 -105 327.0 -78.5Q339 -52 349.5 -35.0Q360 -18 367 -17Q379 -16 393.0 -26.5Q407 -37 419.0 -50.5Q431 -64 436 -72Q447 -89 453.5 -101.0Q460 -113 470.0 -126.0Q480 -139 502 -161Q518 -176 540.5 -182.0Q563 -188 585.5 -188.0Q608 -188 623.0 -186.0Q638 -184 638 -184Q638 -184 618.5 -177.0Q599 -170 573.0 -156.5Q547 -143 528 -122Q507 -98 491.0 -69.0Q475 -40 454 -15Q446 -6 437.0 2.5Q428 11 417 15Q398 21 376.0 11.5Q354 2 337 -10Z" fill="#668424" stroke="none" transform="scale(1,-1) translate(0,-256)" /><path d="M106 406Q112 501 134.0 574.5Q156 648 185.5 700.0Q215 752 243.5 785.5Q272 819 292.5 834.0Q313 849 317 848Q320 846 300.0 820.0Q280 794 251.0 747.5Q222 701 200 640Q183 593 172.0 544.5Q161 496 155.0 454.5Q149 413 147.0 388.0Q145 363 145 363Q132 331 124.5 290.5Q117 250 113.5 212.5Q110 175 109.0 150.5Q108 126 108 126Q108 126 106.5 151.0Q105 176 103.5 217.5Q102 259 102.5 308.5Q103 358 106 406Z" fill="#668424" stroke="none" transform="scale(1,-1) translate(0,-256)" /></svg>