<?xml version="1.0" encoding="utf-8" ?>
<svg baseProfile="full" height="256" version="1.1" width="256" xmlns="http://www.w3.org/2000/svg" xmlns:ev="http://www.w3.org/2001/xml-events" xmlns:xlink="http://www.w3.org/1999/xlink"><defs /><path d="M1170.6079711914062 525.7954864501953Q1170.6079711914062 531.9675445556641 1168.2934494018555 537.3946990966797Q1165.9789276123047 542.8218536376953 1161.855354309082 546.945426940918Q1157.7317810058594 551.0690002441406 1152.3046264648438 553.4101257324219Q1146.8774719238281 555.7512512207031 1140.7054138183594 555.7512512207031Q1134.4801483154297 555.7512512207031 1129.052993774414 553.4101257324219Q1123.6258392333984 551.0690002441406 1119.5022659301758 546.945426940918Q1115.3786926269531 542.8218536376953 1113.0641708374023 537.3946990966797Q1110.7496490478516 531.9675445556641 1110.7496490478516 525.7954864501953Q1110.7496490478516 519.6234283447266 1113.0641708374023 514.1962738037109Q1115.3786926269531 508.7691192626953 1119.5022659301758 504.64554595947266Q1123.6258392333984 500.52197265625 1129.052993774414 498.2074508666992Q1134.4801483154297 495.89292907714844 1140.7054138183594 495.89292907714844Q1146.8774719238281 495.89292907714844 1152.3046264648438 498.2074508666992Q1157.7317810058594 500.52197265625 1161.855354309082 504.64554595947266Q1165.9789276123047 508.7691192626953 1168.2934494018555 514.1962738037109Q1170.6079711914062 519.6234283447266 1170.6079711914062 525.7954864501953Z" fill="#7986cb" stroke="none" transform="scale(1,-1) translate(0,-256)" /></svg>