<?xml version="1.0" encoding="utf-8" ?>
<svg baseProfile="full" height="256" version="1.1" width="256" xmlns="http://www.w3.org/2000/svg" xmlns:ev="http://www.w3.org/2001/xml-events" xmlns:xlink="http://www.w3.org/1999/xlink"><defs /><path d="M782.9705352783203 314.28619384765625Q810.5968017578125 321.9476318359375 841.7576293945312 327.469482421875Q872.91845703125 332.9913330078125 900.9519958496094 333.1475830078125Q928.9855346679688 333.3038330078125 947.7949371337891 324.29962158203125Q966.3218383789062 315.579833984375 967.4254760742188 303.116455078125Q968.5291137695312 290.653076171875 962.6293106079102 280.2742004394531Q956.7295074462891 269.89532470703125 953.1817626953125 266.3720703125Q948.9244689941406 262.1441650390625 939.3521499633789 255.46279907226562Q929.7798309326172 248.78143310546875 898.4414978027344 227.8289794921875Q885.5382537841797 219.53460693359375 855.5500411987305 200.77041625976562Q825.5618286132812 182.0062255859375 783.6657180786133 156.78359985351562Q741.7696075439453 131.56097412109375 693.2839202880859 103.74908447265625Q644.7982330322266 75.93719482421875 594.4040145874023 49.337310791015625Q544.0097961425781 22.7374267578125 498.51344299316406 1.84906005859375Q452.7345886230469 -18.7548828125 401.85423278808594 -41.3177490234375Q350.973876953125 -63.880615234375 300.30704498291016 -85.94894409179688Q249.6402130126953 -108.01727294921875 204.21942901611328 -126.85317993164062Q158.79864501953125 -145.6890869140625 123.22938537597656 -159.54376220703125Q87.66012573242188 -173.3984375 66.68911743164062 -180.665283203125Q15.680694580078125 -197.423095703125 -13.909896850585938 -197.43072509765625Q-43.50048828125 -197.4383544921875 -53.51939392089844 -183.09417724609375Q-59.87237548828125 -175.2789306640625 -64.17557525634766 -168.81790161132812Q-68.47877502441406 -162.35687255859375 -75.69903564453125 -162.1826171875Q-81.64474487304688 -161.87255859375 -88.08318328857422 -160.35690307617188Q-94.52162170410156 -158.84124755859375 -97.27106475830078 -153.94454956054688Q-100.0205078125 -149.0478515625 -92.77388000488281 -137.89642333984375Q-79.84426879882812 -118.2763671875 -63.468849182128906 -108.51119995117188Q-47.09342956542969 -98.74603271484375 -30.359939575195312 -87.21282958984375Q-18.731246948242188 -79.05426025390625 -8.446083068847656 -70.25253295898438Q1.839080810546875 -61.4508056640625 21.48303985595703 -46.462249755859375Q41.12699890136719 -31.47369384765625 79.40968322753906 -7.57965087890625Q98.40977478027344 4.50958251953125 139.5897445678711 26.196136474609375Q180.76971435546875 47.8826904296875 236.97168731689453 75.73043823242188Q293.1736602783203 103.57818603515625 356.3889617919922 133.58856201171875Q419.60426330566406 163.59893798828125 481.96546936035156 191.63116455078125Q584.1532287597656 237.7459716796875 662.09814453125 269.954833984375Q740.0430603027344 302.1636962890625 782.9705352783203 314.28619384765625Z" fill="#000000" stroke="none" transform="scale(1,-1) translate(0,-256)" /><path d="M467.8581848144531 1036.1770935058594Q481.5020446777344 1047.9854125976562 497.39258575439453 1055.9649963378906Q513.2831268310547 1063.944580078125 525.5655670166016 1061.7351150512695Q537.8480072021484 1059.525650024414 541.6566162109375 1041.1147766113281Q544.7966461181641 1026.9285430908203 537.1585388183594 1005.4463348388672Q529.5204315185547 983.9641265869141 511.0465621948242 960.2626419067383Q492.57269287109375 936.5611572265625 464.99449157714844 916.6650543212891Q449.79443359375 905.2649383544922 434.1010284423828 904.5223236083984Q418.4076232910156 903.7797088623047 410.0894775390625 914.8700103759766Q401.7713317871094 925.9603118896484 409.8751525878906 950.1548461914062Q412.8284912109375 957.8836212158203 422.50232696533203 974.9850387573242Q432.17616271972656 992.0864562988281 444.606201171875 1009.6796798706055Q457.03623962402344 1027.2729034423828 467.8581848144531 1036.1770935058594Z" fill="#000000" stroke="none" transform="scale(1,-1) translate(0,-256)" /><path d="M368.64202880859375 741.9865417480469Q392.76759338378906 764.3648223876953 420.5566864013672 778.344482421875Q448.3457794189453 792.3241424560547 474.6856994628906 793.9929122924805Q501.02561950683594 795.6616821289062 520.5710144042969 780.5856475830078Q541.4170074462891 765.4052581787109 541.3048553466797 739.4793014526367Q541.1927032470703 713.5533447265625 525.5630645751953 684.5499572753906Q509.9334259033203 655.5465698242188 483.32018280029297 629.8558654785156Q456.7069396972656 604.1651611328125 424.08544921875 588.4119873046875Q383.5174102783203 568.4336090087891 358.5733947753906 569.8947067260742Q333.62937927246094 571.3558044433594 321.4222717285156 584.7624206542969Q309.2151641845703 598.1690368652344 307.57962799072266 616.4007034301758Q305.944091796875 634.6323699951172 312.45831298828125 649.2384185791016Q316.59837341308594 657.0109100341797 325.3914489746094 675.2162933349609Q334.1845245361328 693.4216766357422 345.393798828125 712.5138168334961Q356.6030731201172 731.60595703125 368.64202880859375 741.9865417480469Z" fill="#000000" stroke="none" transform="scale(1,-1) translate(0,-256)" /><path d="M117.23368835449219 568.1519622802734Q140.10760498046875 593.1210327148438 172.28878784179688 605.1098327636719Q204.469970703125 617.0986328125 235.94064331054688 610.3653259277344Q267.41131591796875 603.6320190429688 286.4698486328125 573.2703857421875Q303.6225280761719 545.9449157714844 301.79337310791016 513.537239074707Q299.96421813964844 481.1295623779297 283.6822509765625 450.2762451171875Q267.40028381347656 419.4229278564453 239.76853942871094 396.0310516357422Q211.33413696289062 370.6858215332031 175.7425765991211 365.7460250854492Q140.15101623535156 360.8062286376953 112.07030487060547 378.5301742553711Q83.98959350585938 396.2541198730469 76.69761657714844 438.8060760498047Q68.37417602539062 487.6184387207031 81.36697387695312 515.4006652832031Q94.35977172851562 543.1828918457031 117.23368835449219 568.1519622802734Z" fill="#000000" stroke="none" transform="scale(1,-1) translate(0,-256)" /><path d="M169.21810913085938 258.63336181640625Q187.9913787841797 281.0330352783203 208.726318359375 297.6459274291992Q229.4612579345703 314.2588195800781 247.74462890625 319.55076599121094Q266.0279998779297 324.84271240234375 277.0542297363281 314.43690490722656Q288.08045959472656 304.0310974121094 287.05531311035156 272.8037109375Q285.2228240966797 245.38507080078125 272.4230270385742 212.14303588867188Q259.62322998046875 178.9010009765625 240.627685546875 146.45343017578125Q221.63214111328125 114.005859375 201.76123046875 89.84913635253906Q181.89031982421875 65.69241333007812 166.29660034179688 56.0340576171875Q136.58779907226562 38.064056396484375 116.92335510253906 49.69048309326172Q97.2589111328125 61.31690979003906 101.35023498535156 112.75578308105469Q108.12673950195312 184.8164825439453 169.21810913085938 258.63336181640625Z" fill="#000000" stroke="none" transform="scale(1,-1) translate(0,-256)" /></svg>