<?xml version="1.0" encoding="utf-8" ?>
<svg baseProfile="full" height="256" version="1.1" width="256" xmlns="http://www.w3.org/2000/svg" xmlns:ev="http://www.w3.org/2001/xml-events" xmlns:xlink="http://www.w3.org/1999/xlink"><defs /><path d="M656 594Q658 589 670.5 590.5Q683 592 694.5 595.0Q706 598 706 598L988 707Q988 707 998.0 713.0Q1008 719 1021.5 728.5Q1035 738 1044.5 747.0Q1054 756 1054 761Q1053 769 1027.0 771.5Q1001 774 963.5 771.0Q926 768 890 760Q858 752 824.5 735.5Q791 719 762.5 699.5Q734 680 716 664Q688 641 670.0 621.5Q652 602 656 594Z" fill="#ce701b" stroke="none" transform="scale(1,-1) translate(0,-256)" /><path d="M453 324 799 466Q799 466 808.5 476.5Q818 487 828 500Q834 508 818.0 512.0Q802 516 774.5 517.0Q747 518 719 516Q674 512 627.5 500.0Q581 488 534 460Q504 442 478.0 417.5Q452 393 434.5 372.5Q417 352 412 345Q403 331 397.5 320.0Q392 309 400 306Q406 304 418.5 308.5Q431 313 442.0 318.5Q453 324 453 324Z" fill="#ce701b" stroke="none" transform="scale(1,-1) translate(0,-256)" /><path d="M186 48Q187 41 196.0 43.0Q205 45 205 45L573 205Q573 205 579.0 209.0Q585 213 587 222Q588 230 573.0 233.0Q558 236 539 237Q526 237 492.0 235.5Q458 234 413.5 225.5Q369 217 327 194Q285 171 253.0 139.0Q221 107 203.0 80.5Q185 54 186 48Z" fill="#ce701b" stroke="none" transform="scale(1,-1) translate(0,-256)" /></svg>