<?xml version="1.0" encoding="utf-8" ?>
<svg baseProfile="full" height="256" version="1.1" width="256" xmlns="http://www.w3.org/2000/svg" xmlns:ev="http://www.w3.org/2001/xml-events" xmlns:xlink="http://www.w3.org/1999/xlink"><defs /><path d="M301 429 356 415Q356 415 386.0 415.5Q416 416 463.0 417.0Q510 418 563.5 419.0Q617 420 665.5 421.0Q714 422 747.0 422.5Q780 423 784 423Q790 423 810.5 425.0Q831 427 858.0 429.5Q885 432 911.5 434.5Q938 437 955.0 438.5Q972 440 972 440Q972 440 965.5 459.0Q959 478 950.0 501.5Q941 525 935 539Q926 561 911.0 569.0Q896 577 886 578Q875 578 817.5 583.5Q760 589 638 588Q557 588 505.0 585.0Q453 582 423.5 579.0Q394 576 381 574Q360 572 353.5 560.5Q347 549 344 542Q342 539 335.5 521.5Q329 504 321.0 482.5Q313 461 307.0 445.0Q301 429 301 429Z" fill="#afe3fb" stroke="none" transform="scale(1,-1) translate(0,-256)" /></svg>