<?xml version="1.0" encoding="utf-8" ?>
<svg baseProfile="full" height="256" version="1.1" width="256" xmlns="http://www.w3.org/2000/svg" xmlns:ev="http://www.w3.org/2001/xml-events" xmlns:xlink="http://www.w3.org/1999/xlink"><defs /><path d="M301 429Q301 429 299.0 424.5Q297 420 296 415Q295 410 299.5 404.5Q304 399 314 399Q318 399 343.5 400.0Q369 401 407.5 402.0Q446 403 489.5 404.0Q533 405 573.5 405.5Q614 406 643 406Q672 407 710.5 406.5Q749 406 790.0 406.0Q831 406 867.5 405.5Q904 405 929.0 405.0Q954 405 959 405Q984 405 980 417Q979 422 976.0 431.0Q973 440 973 440Q973 440 960.5 443.0Q948 446 932 450Q914 454 899.0 457.0Q884 460 884 460Q884 460 883.5 479.5Q883 499 883 511Q882 536 863 537Q856 537 840.5 537.0Q825 537 810.0 537.5Q795 538 789 537Q769 536 768 515Q768 507 768.0 494.5Q768 482 767.5 472.5Q767 463 767 463Q767 463 748.0 463.0Q729 463 700.5 463.5Q672 464 644 464Q621 463 593.5 462.5Q566 462 547.0 461.5Q528 461 528 461Q528 461 528.0 477.0Q528 493 529 506Q529 520 523.5 528.5Q518 537 509 537Q501 538 477.5 538.0Q454 538 443 538Q431 537 422.0 530.0Q413 523 413 513Q412 506 411.5 492.5Q411 479 411.0 467.5Q411 456 411 456Q411 456 393.0 453.5Q375 451 354 446Q331 441 316.0 435.0Q301 429 301 429Z" fill="#96c8eb" stroke="none" transform="scale(1,-1) translate(0,-256)" /></svg>