<?xml version="1.0" encoding="utf-8" ?>
<svg baseProfile="full" height="256" version="1.1" width="256" xmlns="http://www.w3.org/2000/svg" xmlns:ev="http://www.w3.org/2001/xml-events" xmlns:xlink="http://www.w3.org/1999/xlink"><defs /><path d="M1107 205Q1107 205 1107.5 188.5Q1108 172 1108 159Q1108 147 1106.5 129.0Q1105 111 1105 111Q1105 111 1074.5 110.0Q1044 109 1007 109Q973 109 944.5 110.0Q916 111 894 112Q879 113 874.5 118.0Q870 123 872 129Q874 135 878.5 151.0Q883 167 885 176Q887 185 894.0 194.0Q901 203 912 203Q916 204 936.5 204.0Q957 204 985.0 204.5Q1013 205 1040.5 205.5Q1068 206 1086.5 206.0Q1105 206 1107 205Z" fill="#ffeaca" stroke="none" transform="scale(1,-1) translate(0,-256)" /><path d="M170 201Q171 202 194.0 202.5Q217 203 248.0 203.5Q279 204 307.0 204.0Q335 204 346 203Q367 202 376.0 190.0Q385 178 392 163Q400 148 405.0 130.5Q410 113 410 110Q409 109 389.5 107.5Q370 106 340.0 105.5Q310 105 277 106Q228 107 201.0 109.5Q174 112 170 112Q167 112 165.0 123.5Q163 135 163 152Q162 172 166.0 186.5Q170 201 170 201Z" fill="#ffeaca" stroke="none" transform="scale(1,-1) translate(0,-256)" /></svg>