<?xml version="1.0" encoding="utf-8" ?>
<svg baseProfile="full" height="256" version="1.1" width="256" xmlns="http://www.w3.org/2000/svg" xmlns:ev="http://www.w3.org/2001/xml-events" xmlns:xlink="http://www.w3.org/1999/xlink"><defs /><path d="M572 806Q572 806 587.5 806.5Q603 807 625.0 807.0Q647 807 669.0 807.0Q691 807 706.0 807.0Q721 807 721 807Q722 807 730.0 798.5Q738 790 748.5 779.0Q759 768 766.5 759.5Q774 751 774 751Q774 751 774.0 739.0Q774 727 774.0 710.5Q774 694 774.0 681.5Q774 669 773 669Q773 669 746.5 669.0Q720 669 682.0 669.0Q644 669 605.5 669.0Q567 669 541.0 669.5Q515 670 515 670Q515 670 515.0 681.5Q515 693 515.0 707.0Q515 721 515.0 732.0Q515 743 515 743Q515 743 523.5 752.5Q532 762 543.0 774.0Q554 786 562.5 795.5Q571 805 572 806Z" fill="#e1e1e1" stroke="none" transform="scale(1,-1) translate(0,-256)" /></svg>