<?xml version="1.0" encoding="utf-8" ?>
<svg baseProfile="full" height="256" version="1.1" width="256" xmlns="http://www.w3.org/2000/svg" xmlns:ev="http://www.w3.org/2001/xml-events" xmlns:xlink="http://www.w3.org/1999/xlink"><defs /><path d="M235 409Q235 409 235.0 401.0Q235 393 235.5 385.0Q236 377 236 376Q236 375 227.0 373.0Q218 371 209.5 369.0Q201 367 201 367Q201 367 183.0 367.0Q165 367 144.0 367.5Q123 368 113 369Q97 369 85.0 382.5Q73 396 74 422Q75 442 88.5 453.0Q102 464 108 464Q116 464 131.0 464.5Q146 465 160.5 465.0Q175 465 182 464Q193 463 197.0 459.5Q201 456 202 451Q203 448 204.0 438.0Q205 428 205.5 419.0Q206 410 206 410Z" fill="#444e47" stroke="none" transform="scale(1,-1) translate(0,-256)" /><path d="M1041 406 1037 378 1067 362Q1067 362 1086.0 362.0Q1105 362 1128.5 362.5Q1152 363 1165 364Q1185 366 1194.5 380.5Q1204 395 1203 415Q1203 441 1188.0 450.5Q1173 460 1164 461Q1155 461 1134.5 462.0Q1114 463 1101 463Q1088 462 1080.0 452.5Q1072 443 1072 434Q1072 427 1072.0 416.5Q1072 406 1072 406Z" fill="#444e47" stroke="none" transform="scale(1,-1) translate(0,-256)" /><path d="M327 -35Q327 -27 336.0 -26.0Q345 -25 357 -25Q361 -25 400.5 -25.5Q440 -26 499.5 -26.5Q559 -27 624 -27Q685 -27 743.0 -27.0Q801 -27 841.5 -26.5Q882 -26 893 -26Q927 -26 937.5 -26.5Q948 -27 949 -34Q950 -42 941.0 -53.0Q932 -64 917 -67Q909 -69 875.5 -70.0Q842 -71 795.5 -71.5Q749 -72 702.0 -72.0Q655 -72 620 -72Q574 -71 526.5 -71.0Q479 -71 440.5 -70.5Q402 -70 384 -69Q326 -66 327 -35Z" fill="#444e47" stroke="none" transform="scale(1,-1) translate(0,-256)" /><path d="M450 106Q441 110 428.5 137.0Q416 164 415 195Q414 216 445.5 225.0Q477 234 528.0 237.0Q579 240 638 240Q698 240 747.0 235.5Q796 231 826.0 221.0Q856 211 856 195Q857 179 850.5 158.5Q844 138 835.0 122.0Q826 106 818 103Q807 100 759.5 100.0Q712 100 636 101Q560 101 510.5 100.5Q461 100 450 106Z" fill="#444e47" stroke="none" transform="scale(1,-1) translate(0,-256)" /><path d="M380 610Q388 610 415.0 612.0Q442 614 480.5 616.0Q519 618 561.5 619.5Q604 621 644 621Q696 621 750.5 618.5Q805 616 845.5 613.0Q886 610 897 609Q912 609 929.0 601.5Q946 594 954 576Q958 567 968.5 539.5Q979 512 991.0 479.0Q1003 446 1012.5 420.0Q1022 394 1024 388Q1027 375 1021.5 364.0Q1016 353 1001 354Q990 354 937.5 355.0Q885 356 805.0 357.0Q725 358 634 358Q543 358 464.5 355.0Q386 352 333.5 349.5Q281 347 270 346Q238 343 247 376Q249 383 259.0 409.5Q269 436 282.0 469.0Q295 502 306.5 531.0Q318 560 324 573Q335 594 351.0 601.5Q367 609 380 610Z" fill="#444e47" stroke="none" transform="scale(1,-1) translate(0,-256)" /></svg>