<?xml version="1.0" encoding="utf-8" ?>
<svg baseProfile="full" height="256" version="1.1" width="256" xmlns="http://www.w3.org/2000/svg" xmlns:ev="http://www.w3.org/2001/xml-events" xmlns:xlink="http://www.w3.org/1999/xlink"><defs /><path d="M161 63Q161 63 197.0 50.5Q233 38 298 33Q313 32 347.5 31.5Q382 31 428.0 31.0Q474 31 524.0 31.0Q574 31 621 31Q715 30 804.5 31.5Q894 33 954 35Q995 37 1029.5 42.5Q1064 48 1085.5 53.5Q1107 59 1107 59Q1107 59 1108.5 41.5Q1110 24 1102 -12Q1094 -48 1068.5 -74.0Q1043 -100 1005 -103Q999 -104 972.0 -104.5Q945 -105 905.0 -105.5Q865 -106 820.0 -106.5Q775 -107 732.0 -107.5Q689 -108 655.5 -108.5Q622 -109 607 -109Q562 -109 491.5 -108.0Q421 -107 332 -106Q273 -105 242.0 -96.0Q211 -87 196.5 -72.5Q182 -58 174 -41Q166 -25 163.0 0.0Q160 25 160.5 44.0Q161 63 161 63Z" fill="#ffa828" stroke="none" transform="scale(1,-1) translate(0,-256)" /></svg>