<?xml version="1.0" encoding="utf-8" ?>
<svg baseProfile="full" height="256" version="1.1" width="256" xmlns="http://www.w3.org/2000/svg" xmlns:ev="http://www.w3.org/2001/xml-events" xmlns:xlink="http://www.w3.org/1999/xlink"><defs /><path d="M510 714V643H487L486 714Z" fill="#abd7db" stroke="none" transform="scale(1,-1) translate(0,-256)" /><path d="M341.313720703125 714.3763275146484V643.2872161865234H363.527099609375V714.3763275146484Z" fill="#abd7db" stroke="none" transform="scale(1,-1) translate(0,-256)" /><path d="M388.6360168457031 714.3763275146484V643.2872161865234H411.78038024902344V714.3763275146484Z" fill="#abd7db" stroke="none" transform="scale(1,-1) translate(0,-256)" /><path d="M462 714V643H439V714Z" fill="#abd7db" stroke="none" transform="scale(1,-1) translate(0,-256)" /><path d="M510.0 601.5V530.5H487.0L486.0 601.5Z" fill="#abd7db" stroke="none" transform="scale(1,-1) translate(0,-256)" /><path d="M341.313720703125 601.8763275146484V530.7872161865234H363.527099609375V601.8763275146484Z" fill="#abd7db" stroke="none" transform="scale(1,-1) translate(0,-256)" /><path d="M388.6360168457031 601.8763275146484V530.7872161865234H411.78038024902344V601.8763275146484Z" fill="#abd7db" stroke="none" transform="scale(1,-1) translate(0,-256)" /><path d="M462.0 601.5V530.5H439.0V601.5Z" fill="#abd7db" stroke="none" transform="scale(1,-1) translate(0,-256)" /><path d="M341.313720703125 489.37632751464844V418.28721618652344H363.527099609375V489.37632751464844Z" fill="#abd7db" stroke="none" transform="scale(1,-1) translate(0,-256)" /><path d="M388.6360168457031 489.37632751464844V418.28721618652344H411.78038024902344V489.37632751464844Z" fill="#abd7db" stroke="none" transform="scale(1,-1) translate(0,-256)" /><path d="M538 714H562V643H538Z" fill="#abd7db" stroke="none" transform="scale(1,-1) translate(0,-256)" /><path d="M1027.00146484375 188.7330322265625V151.83163452148438H1053.997055053711V188.7330322265625Z" fill="#abd7db" stroke="none" transform="scale(1,-1) translate(0,-256)" /><path d="M1080.9077758789062 188.7330322265625V151.83163452148438H1107.9033660888672V188.7330322265625Z" fill="#abd7db" stroke="none" transform="scale(1,-1) translate(0,-256)" /><path d="M1027.00146484375 257.8268280029297V220.92543029785156H1053.997055053711V257.8268280029297Z" fill="#abd7db" stroke="none" transform="scale(1,-1) translate(0,-256)" /><path d="M1080.9077758789062 257.8268280029297V220.92543029785156H1107.9033660888672V257.8268280029297Z" fill="#abd7db" stroke="none" transform="scale(1,-1) translate(0,-256)" /><path d="M1027.00146484375 323.4518280029297V286.55043029785156H1053.997055053711V323.4518280029297Z" fill="#abd7db" stroke="none" transform="scale(1,-1) translate(0,-256)" /><path d="M1080.9077758789062 323.4518280029297V286.55043029785156H1107.9033660888672V323.4518280029297Z" fill="#abd7db" stroke="none" transform="scale(1,-1) translate(0,-256)" /><path d="M90.59562683105469 19.884246826171875V-2.11541748046875H371.4791259765625V19.884246826171875Z" fill="#abd7db" stroke="none" transform="scale(1,-1) translate(0,-256)" /><path d="M90.9891357421875 426.00233459472656V391.35972595214844H107.47895812988281V426.00233459472656Z" fill="#abd7db" stroke="none" transform="scale(1,-1) translate(0,-256)" /><path d="M147.2391357421875 426.00233459472656V391.35972595214844H163.7289581298828V426.00233459472656Z" fill="#abd7db" stroke="none" transform="scale(1,-1) translate(0,-256)" /><path d="M504.33319091796875 176.42787170410156V131.8638458251953H525.605224609375V176.42787170410156Z" fill="#abd7db" stroke="none" transform="scale(1,-1) translate(0,-256)" /><path d="M554.7706909179688 176.42787170410156V131.8638458251953H576.042724609375V176.42787170410156Z" fill="#abd7db" stroke="none" transform="scale(1,-1) translate(0,-256)" /><path d="M603.3331909179688 176.42787170410156V131.8638458251953H624.605224609375V176.42787170410156Z" fill="#abd7db" stroke="none" transform="scale(1,-1) translate(0,-256)" /><path d="M753.4268798828125 40.330780029296875V11.390045166015625H774.6989135742188V40.330780029296875Z" fill="#abd7db" stroke="none" transform="scale(1,-1) translate(0,-256)" /><path d="M826.7393798828125 40.330780029296875V11.390045166015625H848.0114135742188V40.330780029296875Z" fill="#abd7db" stroke="none" transform="scale(1,-1) translate(0,-256)" /><path d="M900.0518798828125 40.330780029296875V11.390045166015625H921.3239135742188V40.330780029296875Z" fill="#abd7db" stroke="none" transform="scale(1,-1) translate(0,-256)" /></svg>