<?xml version="1.0" encoding="utf-8" ?>
<svg baseProfile="full" height="256" version="1.1" width="256" xmlns="http://www.w3.org/2000/svg" xmlns:ev="http://www.w3.org/2001/xml-events" xmlns:xlink="http://www.w3.org/1999/xlink"><defs /><path d="M817 201Q823 191 833.5 186.0Q844 181 853.0 179.5Q862 178 862 178Q862 178 856.0 166.0Q850 154 836 145Q823 137 808.0 134.5Q793 132 782 132Q782 132 770.5 120.0Q759 108 734.5 92.0Q710 76 670.0 64.0Q630 52 574 52H490H406Q350 52 310.0 64.0Q270 76 245.5 92.0Q221 108 209.5 120.0Q198 132 198 132Q187 132 172.0 134.5Q157 137 144 145Q130 154 124.0 166.0Q118 178 118 178Q118 178 126.5 179.5Q135 181 146.0 186.0Q157 191 163 202Q171 217 162.0 234.0Q153 251 134 271Q114 293 96.0 330.5Q78 368 74.0 415.5Q70 463 91 513Q90 513 96.5 517.5Q103 522 109.0 527.0Q115 532 115 532Q117 532 149.5 532.0Q182 532 235.5 532.0Q289 532 355.0 532.5Q421 533 490 533Q559 533 625.0 532.5Q691 532 744.5 532.0Q798 532 830.5 532.0Q863 532 865 532L881 531Q881 530 885.0 521.5Q889 513 889 513Q910 463 905.5 415.5Q901 368 883.5 330.0Q866 292 846 271Q827 251 817.5 234.0Q808 217 817 201Z" fill="#543930" stroke="none" transform="scale(1,-1) translate(0,-256)" /><path d="M1010 715Q1018 702 1027.5 673.5Q1037 645 1040.0 606.5Q1043 568 1031 526Q1023 495 1009.5 476.5Q996 458 985.0 447.5Q974 437 974 430Q970 399 959.5 371.0Q949 343 943 328Q942 325 939.0 325.5Q936 326 936 329Q932 367 926.5 416.0Q921 465 913 500Q903 546 884.5 568.5Q866 591 846.0 598.5Q826 606 812.0 605.5Q798 605 798 605Q798 605 792.0 617.5Q786 630 769.5 642.5Q753 655 722.5 657.5Q692 660 644 641Q610 628 578 604Q527 566 479.0 545.5Q431 525 400.5 516.5Q370 508 370 508Q371 499 366.5 474.5Q362 450 355.5 419.0Q349 388 342.0 360.0Q335 332 332 318Q331 316 328.5 316.0Q326 316 325 318Q320 332 312.5 367.0Q305 402 308 458Q308 458 292.0 464.5Q276 471 257.5 484.5Q239 498 232 519Q221 547 225.5 570.0Q230 593 241.5 610.0Q253 627 265 637Q260 651 258.0 678.0Q256 705 273 740Q287 769 311.0 779.5Q335 790 355 791Q345 823 351.5 845.0Q358 867 371.5 880.5Q385 894 396.5 900.0Q408 906 408 906Q408 906 409.0 895.5Q410 885 415.0 872.5Q420 860 433 853Q453 841 476.5 844.5Q500 848 518.0 856.0Q536 864 541 867Q562 878 596.5 892.5Q631 907 679.0 911.0Q727 915 789 895Q823 884 853.5 858.0Q884 832 889 799Q912 797 935.5 783.5Q959 770 978.5 751.0Q998 732 1010 715Z" fill="#543930" stroke="none" transform="scale(1,-1) translate(0,-256)" /></svg>