<?xml version="1.0" encoding="utf-8" ?>
<svg baseProfile="full" height="256" version="1.1" width="256" xmlns="http://www.w3.org/2000/svg" xmlns:ev="http://www.w3.org/2001/xml-events" xmlns:xlink="http://www.w3.org/1999/xlink"><defs /><path d="M634 52H718Q774 52 814.0 64.0Q854 76 878.5 92.0Q903 108 914.5 120.0Q926 132 926 132L902 162L634 140Z" fill="#000000" stroke="none" transform="scale(1,-1) translate(0,-256)" /><path d="M-891.2673187255859 -277.8118896484375Q-902.5399932861328 -296.1917724609375 -920.2395706176758 -302.01678466796875Q-937.9391479492188 -307.841796875 -952.5436553955078 -307.30413818359375Q-967.1481628417969 -306.7664794921875 -967.1481628417969 -306.7664794921875Q-967.1481628417969 -306.7664794921875 -959.4680786132812 -301.9441223144531Q-951.7879943847656 -297.12176513671875 -943.8497695922852 -289.3118896484375Q-935.9115447998047 -281.50201416015625 -933.6212921142578 -272.23968505859375Q-931.3685607910156 -260.5377197265625 -939.5319137573242 -253.70977783203125Q-947.6952667236328 -246.8818359375 -962.0603942871094 -242.1368408203125Q-962.0603942871094 -242.1368408203125 -962.0603942871094 -242.1368408203125Q-962.0603942871094 -242.1368408203125 -962.0603942871094 -242.1368408203125Q-962.0603942871094 -242.1368408203125 -949.3236618041992 -239.86270141601562Q-936.5869293212891 -237.58856201171875 -920.7622528076172 -238.37432861328125Q-904.9375762939453 -239.16009521484375 -894.9252090454102 -247.58001708984375Q-884.912841796875 -255.99993896484375 -891.2673187255859 -277.8118896484375Z" fill="#000000" stroke="none" transform="scale(1,-1) translate(0,-256)" /><path d="M205.13174438476562 1063.0186462402344Q205.13174438476562 1063.0186462402344 209.47382354736328 1060.8366012573242Q213.81590270996094 1058.654556274414 213.81590270996094 1058.654556274414Q213.81590270996094 1058.654556274414 214.78044891357422 1040.1751174926758Q215.7449951171875 1021.6956787109375 216.96538543701172 994.2102737426758Q218.18577575683594 966.7248687744141 218.5750503540039 939.1772689819336Q218.96432495117188 911.6296691894531 218.3785400390625 891.530029296875Q217.79275512695312 871.4303894042969 214.61749267578125 869.1871948242188Q209.1726837158203 863.7657928466797 201.01072692871094 861.1494293212891Q192.84877014160156 858.5330657958984 185.29412841796875 858.9705200195312Q175.32073974609375 858.2241821289062 165.91736602783203 861.0302658081055Q156.5139923095703 863.8363494873047 146.24220275878906 867.0788421630859Q123.05607604980469 875.3716583251953 93.3807373046875 892.2039794921875Q63.70539855957031 909.0363006591797 36.44880676269531 927.0524139404297Q9.192214965820312 945.0685272216797 -8.890060424804688 957.7544403076172Q-26.972335815429688 970.4403533935547 -26.972335815429688 970.4403533935547Q-15.635116577148438 975.2999114990234 -4.931999206542969 988.6357345581055Q5.7711181640625 1001.9715576171875 8.79718017578125 1006.2091674804688Q25.5897216796875 1027.5216064453125 55.48835754394531 1046.8064422607422Q85.38699340820312 1066.0912780761719 124.1883316040039 1072.5046615600586Q162.9896697998047 1078.9180450439453 205.13174438476562 1063.0186462402344Z" fill="#000000" stroke="none" transform="scale(1,-1) translate(0,-256)" /><path d="M-408.83131408691406 266.24974060058594Q-408.83131408691406 266.24974060058594 -412.72579193115234 270.05094146728516Q-416.6202697753906 273.8521423339844 -416.6202697753906 273.8521423339844Q-416.39646911621094 276.84376525878906 -414.03604888916016 297.22432708740234Q-411.6756286621094 317.6048889160156 -408.4520492553711 343.9375991821289Q-405.2284698486328 370.2703094482422 -402.64424896240234 393.64249420166016Q-400.0600280761719 417.0146789550781 -399.31402587890625 426.98675537109375Q-398.49342346191406 437.95603942871094 -397.93392181396484 445.43509674072266Q-397.3744201660156 452.9141540527344 -389.44677734375 458.337646484375Q-383.25596618652344 462.88832092285156 -374.7956085205078 464.2607879638672Q-366.3352508544922 465.6332550048828 -358.85520935058594 465.07350158691406Q-348.9564208984375 463.3299560546875 -340.03794860839844 459.65419006347656Q-331.1194763183594 455.9784240722656 -322.2756042480469 451.3054504394531Q-299.7503662109375 439.5919189453125 -272.9098358154297 418.5303497314453Q-246.06930541992188 397.4687805175781 -221.83402252197266 375.09798431396484Q-197.59873962402344 352.72718811035156 -181.6052703857422 337.4912872314453Q-165.61180114746094 322.25538635253906 -165.61180114746094 322.25538635253906Q-177.5458221435547 319.1372833251953 -190.11394500732422 307.5429153442383Q-202.68206787109375 295.94854736328125 -207.13604736328125 292.27069091796875Q-226.08148193359375 273.63262939453125 -258.5165252685547 259.0124053955078Q-290.9515686035156 244.39218139648438 -330.27510833740234 243.82511138916016Q-369.59864807128906 243.25804138183594 -408.83131408691406 266.24974060058594Z" fill="#000000" stroke="none" transform="scale(1,-1) translate(0,-256)" /><path d="M489.968994140625 52.0H405.968994140625Q349.968994140625 52.0 309.968994140625 64.0Q269.968994140625 76.0 245.468994140625 92.0Q220.968994140625 108.0 209.468994140625 120.0Q197.968994140625 132.0 197.968994140625 132.0L221.968994140625 162.0L489.968994140625 140.0Z" fill="#000000" stroke="none" transform="scale(1,-1) translate(0,-256)" /><path d="M2015.236312866211 -277.8118896484375Q2026.5089874267578 -296.1917724609375 2044.2085647583008 -302.01678466796875Q2061.9081420898438 -307.841796875 2076.512649536133 -307.30413818359375Q2091.117156982422 -306.7664794921875 2091.117156982422 -306.7664794921875Q2091.117156982422 -306.7664794921875 2083.4370727539062 -301.9441223144531Q2075.7569885253906 -297.12176513671875 2067.81876373291 -289.3118896484375Q2059.8805389404297 -281.50201416015625 2057.590286254883 -272.23968505859375Q2055.3375549316406 -260.5377197265625 2063.500907897949 -253.70977783203125Q2071.664260864258 -246.8818359375 2086.0293884277344 -242.1368408203125Q2086.0293884277344 -242.1368408203125 2086.0293884277344 -242.1368408203125Q2086.0293884277344 -242.1368408203125 2086.0293884277344 -242.1368408203125Q2086.0293884277344 -242.1368408203125 2073.292655944824 -239.86270141601562Q2060.555923461914 -237.58856201171875 2044.7312469482422 -238.37432861328125Q2028.9065704345703 -239.16009521484375 2018.8942031860352 -247.58001708984375Q2008.8818359375 -255.99993896484375 2015.236312866211 -277.8118896484375Z" fill="#000000" stroke="none" transform="scale(1,-1) translate(0,-256)" /><path d="M940 -212H75V-84Q111 -38 177.0 -8.0Q243 22 325.5 36.0Q408 50 493 50Q578 50 658.0 35.5Q738 21 801.5 -9.0Q865 -39 902.5 -83.0Q940 -127 940 -185Z" fill="#000000" stroke="none" transform="scale(1,-1) translate(0,-256)" /><path d="M802 -13 772 -212H683L734 16Q734 16 748.0 11.5Q762 7 778.0 0.5Q794 -6 802 -13Z" fill="#000000" stroke="none" transform="scale(1,-1) translate(0,-256)" /><path d="M894 255Q875 256 866.0 268.5Q857 281 856.5 299.0Q856 317 865.5 332.5Q875 348 894 355L993 383Q1005 386 1022.5 387.0Q1040 388 1046 372Q1048 366 1046.0 358.0Q1044 350 1044 350Q1044 350 1058.0 352.5Q1072 355 1093.5 358.0Q1115 361 1137.0 362.5Q1159 364 1175 361Q1196 358 1202.5 346.5Q1209 335 1204.5 324.5Q1200 314 1190 312Q1185 310 1160.5 304.5Q1136 299 1104.5 292.0Q1073 285 1045.0 278.5Q1017 272 1005 269Q993 267 987.0 259.0Q981 251 970 249Q957 247 934.5 250.0Q912 253 894 255Z" fill="#000000" stroke="none" transform="scale(1,-1) translate(0,-256)" /><path d="M999 259 1017 -212H746L847 268Q849 283 865 282L984 275Q999 274 999 259Z" fill="#000000" stroke="none" transform="scale(1,-1) translate(0,-256)" /><path d="M558.5858306884766 -690.6692810058594Q582.862548828125 -676.5164489746094 607.6006698608398 -663.7908782958984Q632.3387908935547 -651.0653076171875 655.8919067382812 -633.4680938720703Q679.4450225830078 -615.8708801269531 700.0583267211914 -585.5617523193359Q720.671630859375 -555.2526245117188 737.4047241210938 -505.7044677734375Q737.4047241210938 -505.7044677734375 744.9789962768555 -515.8674011230469Q752.5532684326172 -526.0303344726562 765.6042175292969 -530.21923828125Q775.9219360351562 -533.1897583007812 784.2402420043945 -529.9754791259766Q792.5585479736328 -526.7611999511719 792.5585479736328 -526.7611999511719Q793.4813537597656 -529.61572265625 795.2361602783203 -537.4559936523438Q800.8433685302734 -569.2734985351562 792.0227966308594 -604.7037048339844Q783.2022247314453 -640.1339111328125 771.1796417236328 -660.8350830078125Q764.8607482910156 -670.2341613769531 749.6259384155273 -684.6170959472656Q734.3911285400391 -699.0000305175781 711.6172332763672 -710.5652160644531Q688.8433380126953 -722.1304016113281 659.8617858886719 -724.141845703125Q650.4668731689453 -724.0258483886719 644.2035980224609 -723.9485168457031Q619.8565063476562 -723.4109802246094 602.6427154541016 -714.7875213623047Q585.4289245605469 -706.1640625 574.632209777832 -698.0936889648438Q563.8354949951172 -690.0233154296875 558.5858306884766 -690.6692810058594Z" fill="#000000" stroke="none" transform="scale(1,-1) translate(0,-256)" /><path d="M838.4718017578125 550.0498962402344Q835.0951538085938 547.32177734375 826.0456390380859 540.2601089477539Q816.9961242675781 533.1984405517578 809.7702941894531 526.8608856201172Q788.7671508789062 510.8907470703125 762.2904968261719 498.9905242919922Q735.8138427734375 487.0903015136719 712.2314758300781 502.0059051513672Q685.4053649902344 519.7957000732422 682.1542510986328 541.3966598510742Q678.9031372070312 562.9976196289062 689.0281677246094 583.6664886474609Q699.1531982421875 604.3353576660156 712.2192535400391 618.8882217407227Q725.2853088378906 633.4410858154297 731.3642578125 635.8547973632812Q730.8917236328125 634.9734802246094 726.9096374511719 625.7617340087891Q722.9275512695312 616.5499877929688 720.7371520996094 603.5406494140625Q718.5467529296875 590.5313110351562 724.9013366699219 579.1806182861328Q734.0960388183594 560.6333160400391 753.2164154052734 554.3514175415039Q772.3367919921875 548.0695190429688 789.4956665039062 547.9457092285156Q806.654541015625 547.8218994140625 811.7884216308594 548.4729766845703Q817.6655578613281 548.7254791259766 824.1505889892578 549.219352722168Q830.6356201171875 549.7132263183594 838.4718017578125 550.0498962402344Z" fill="#000000" stroke="none" transform="scale(1,-1) translate(0,-256)" /><path d="M-522.50048828125 767.8453216552734Q-465.8190002441406 753.1530456542969 -425.7641067504883 733.5642776489258Q-385.70921325683594 713.9755096435547 -358.57090759277344 695.8558959960938Q-354.390869140625 692.8786010742188 -352.70926666259766 685.160026550293Q-351.0276641845703 677.4414520263672 -366.37879943847656 671.7037200927734Q-381.7299346923828 665.9659881591797 -429.92356872558594 669.7724609375Q-506.4374084472656 675.7341156005859 -551.4891738891602 685.8403244018555Q-596.5409393310547 695.946533203125 -618.6207580566406 707.9758377075195Q-640.7005767822266 720.0051422119141 -647.484016418457 731.0886764526367Q-654.2674560546875 742.1722106933594 -652.1865692138672 749.8326721191406Q-650.1056823730469 757.4931335449219 -648.1114959716797 759.7028961181641Q-633.2303924560547 774.7835693359375 -602.8726501464844 777.5634994506836Q-572.5149078369141 780.3434295654297 -522.50048828125 767.8453216552734Z" fill="#000000" stroke="none" transform="scale(1,-1) translate(0,-256)" /><path d="M263 906Q264 906 264.0 906.0Q264 906 264 906Q264 906 258.5 895.5Q253 885 250.0 867.0Q247 849 253.5 826.5Q260 804 284 779L211 791Q202 821 207.0 842.0Q212 863 224.0 876.5Q236 890 248.0 897.0Q260 904 263 906Q263 906 263.0 906.0Q263 906 263 906Q264 906 263 906Z" fill="#000000" stroke="none" transform="scale(1,-1) translate(0,-256)" /><path d="M-195.6025390625 812.396728515625 -167.818603515625 684.7537231445312Q-129.43508911132812 673.4582061767578 -115.21104431152344 658.9713897705078Q-100.98699951171875 644.4845733642578 -100.98699951171875 644.4845733642578Q-100.98699951171875 644.4845733642578 -97.83969116210938 648.4833374023438Q-94.6923828125 652.4821014404297 -92.5107421875 656.7406616210938Q-85.9658203125 669.5163421630859 -81.3380126953125 690.5605773925781Q-76.710205078125 711.6048126220703 -83.66329956054688 739.6410827636719Q-89.17144775390625 765.3504180908203 -105.80966186523438 780.4867248535156Q-122.4478759765625 795.6230316162109 -140.06597900390625 803.2701721191406Q-146.58245849609375 805.9924163818359 -150.44512939453125 807.0316009521484Z" fill="#000000" stroke="none" transform="scale(1,-1) translate(0,-256)" /><path d="M271.24989318847656 603.6657867431641Q271.24989318847656 603.6657867431641 273.2849884033203 605.4046401977539Q275.32008361816406 607.1434936523438 275.32008361816406 607.1434936523438Q285.7117919921875 614.798583984375 300.27728271484375 618.8511428833008Q314.8427734375 622.9037017822266 329.64813232421875 620.86669921875L291.7049865722656 418.145263671875Q288.1799011230469 418.63026428222656 283.8698425292969 421.2421188354492Q279.5597839355469 423.8539733886719 279.5597839355469 423.8539733886719Q279.5597839355469 423.8539733886719 269.4496765136719 431.3015365600586Q259.3395690917969 438.7490997314453 248.4208526611328 453.3739013671875Q237.50213623046875 467.9987030029297 234.01878356933594 489.67591857910156Q229.94305419921875 517.4911956787109 235.96561431884766 540.3841018676758Q241.98817443847656 563.2770080566406 252.06005859375 579.051513671875Q262.13194274902344 594.8260192871094 271.24989318847656 603.6657867431641Z" fill="#000000" stroke="none" transform="scale(1,-1) translate(0,-256)" /></svg>