<?xml version="1.0" encoding="utf-8" ?>
<svg baseProfile="full" height="256" version="1.1" width="256" xmlns="http://www.w3.org/2000/svg" xmlns:ev="http://www.w3.org/2001/xml-events" xmlns:xlink="http://www.w3.org/1999/xlink"><defs /><path d="M385 107Q385 107 403.0 103.5Q421 100 443 89Q466 77 484.5 57.5Q503 38 512 27Q521 15 541.0 -5.5Q561 -26 613 -44Q665 -63 692.0 -56.0Q719 -49 729 -43Q738 -37 747.0 -21.5Q756 -6 780 -3Q797 -1 803.5 -3.0Q810 -5 817.0 -8.5Q824 -12 843 -17Q870 -24 896.5 -25.5Q923 -27 954 -16Q975 -8 991.5 6.5Q1008 21 1017.5 34.5Q1027 48 1027 51Q1026 56 1021.5 63.5Q1017 71 1006 80Q991 90 973.5 93.5Q956 97 944.0 94.0Q932 91 931 83Q931 73 944.0 68.5Q957 64 959 50Q960 41 947.0 35.0Q934 29 915.5 26.5Q897 24 881 27Q867 29 856.5 33.5Q846 38 831.0 48.0Q816 58 788 78Q754 104 730.0 116.0Q706 128 679 127Q656 127 649.0 116.5Q642 106 646 97Q648 93 656.5 89.5Q665 86 675.0 77.5Q685 69 692 50Q698 31 685.5 18.5Q673 6 648 10Q618 15 590.5 36.0Q563 57 543 76Q522 94 495.5 114.5Q469 135 430 137Q402 139 393.0 126.5Q384 114 385 107Z" fill="#85e4ff" stroke="none" transform="scale(1,-1) translate(0,-256)" /><path d="M1032 -66Q1049 -51 1058.5 -37.5Q1068 -24 1076.0 -18.5Q1084 -13 1095 -20Q1113 -31 1107.5 -59.5Q1102 -88 1065 -113Q1040 -130 1014.0 -136.5Q988 -143 969.5 -139.5Q951 -136 948 -125Q946 -113 961.0 -105.0Q976 -97 997.0 -88.0Q1018 -79 1032 -66Z" fill="#85e4ff" stroke="none" transform="scale(1,-1) translate(0,-256)" /><path d="M192 31Q199 40 208.5 35.0Q218 30 226 26Q230 23 241.5 16.0Q253 9 279.0 -4.5Q305 -18 352 -40Q432 -78 479.5 -88.5Q527 -99 536 -101Q542 -102 567.0 -111.5Q592 -121 627.5 -132.0Q663 -143 698 -148Q733 -154 765.5 -153.5Q798 -153 821.5 -150.5Q845 -148 852 -146Q874 -141 879 -147Q881 -151 879.0 -159.0Q877 -167 870 -173Q866 -177 848.5 -188.5Q831 -200 789.5 -207.5Q748 -215 672 -208Q654 -206 629.5 -199.0Q605 -192 581.0 -183.0Q557 -174 540.0 -167.5Q523 -161 519 -160Q512 -158 478.0 -152.0Q444 -146 405 -130Q356 -110 315.0 -84.0Q274 -58 246.0 -36.5Q218 -15 209 -7Q181 16 192 31Z" fill="#85e4ff" stroke="none" transform="scale(1,-1) translate(0,-256)" /><path d="M363 3Q357 3 333.0 9.0Q309 15 275.0 30.5Q241 46 206.0 75.0Q171 104 144 150Q116 199 107.0 232.0Q98 265 101.5 282.0Q105 299 112 301Q118 302 124.0 290.5Q130 279 135.0 267.5Q140 256 142 256Q143 256 140.0 274.0Q137 292 134.5 323.5Q132 355 136.0 396.0Q140 437 157 482Q177 537 208.5 571.5Q240 606 266.0 623.0Q292 640 296 642Q309 649 317 642Q320 639 320.5 633.0Q321 627 315 623Q312 621 293.0 605.0Q274 589 249.5 559.0Q225 529 204 485Q189 452 185.5 412.5Q182 373 185.5 337.5Q189 302 194.5 279.0Q200 256 202 256Q204 256 203.0 274.5Q202 293 202 317Q202 365 226 365Q238 365 243.0 348.5Q248 332 249 311Q249 303 251.5 279.0Q254 255 261.0 225.0Q268 195 281 170Q302 131 326.5 96.0Q351 61 369 42Q381 28 380.5 15.5Q380 3 363 3Z" fill="#85e4ff" stroke="none" transform="scale(1,-1) translate(0,-256)" /></svg>