<?xml version="1.0" encoding="utf-8" ?>
<svg baseProfile="full" height="256" version="1.1" width="256" xmlns="http://www.w3.org/2000/svg" xmlns:ev="http://www.w3.org/2001/xml-events" xmlns:xlink="http://www.w3.org/1999/xlink"><defs /><path d="M729 512Q732 519 745.5 515.5Q759 512 777 512Q794 513 805.5 515.5Q817 518 820 513Q827 504 810.5 494.5Q794 485 776 485Q757 485 741.0 495.0Q725 505 729 512Z" fill="#7a5846" stroke="none" transform="scale(1,-1) translate(0,-256)" /><path d="M804 675Q809 680 820.0 680.5Q831 681 840 679Q849 677 854.0 670.0Q859 663 859 660Q858 655 846 654Q844 654 838.0 654.0Q832 654 825 654Q818 654 812.5 653.5Q807 653 805 654Q800 657 800.0 664.0Q800 671 804 675Z" fill="#7a5846" stroke="none" transform="scale(1,-1) translate(0,-256)" /><path d="M739 655Q735 654 727.5 654.5Q720 655 712 655Q705 655 693.5 654.5Q682 654 680 657Q678 659 681.5 664.5Q685 670 692 675Q701 681 716.0 682.0Q731 683 740 677Q745 673 745.0 665.5Q745 658 739 655Z" fill="#7a5846" stroke="none" transform="scale(1,-1) translate(0,-256)" /></svg>