<?xml version="1.0" encoding="utf-8" ?>
<svg baseProfile="full" height="256" version="1.1" width="256" xmlns="http://www.w3.org/2000/svg" xmlns:ev="http://www.w3.org/2001/xml-events" xmlns:xlink="http://www.w3.org/1999/xlink"><defs /><path d="M574 686Q574 686 580.5 702.0Q587 718 603.0 739.5Q619 761 648.5 777.5Q678 794 724 795Q771 796 800.0 780.0Q829 764 845.0 743.0Q861 722 867.0 705.5Q873 689 873 689L878 676Q878 676 889.0 669.0Q900 662 912 650Q923 638 926.0 624.5Q929 611 929 611Q929 611 925.0 609.5Q921 608 914 607Q907 606 899.5 606.5Q892 607 892 607L868 683L852 707L808 745L736 752L691 735L628 679Q628 679 619.0 673.5Q610 668 598 671Q585 674 579.5 680.0Q574 686 574 686Z" fill="#858585" stroke="none" transform="scale(1,-1) translate(0,-256)" /><path d="M526 599Q526 599 528.5 609.0Q531 619 541 629Q548 636 555.5 640.0Q563 644 563 644Q563 644 569.5 635.0Q576 626 580 618Q584 610 586.5 596.5Q589 583 587 574Q585 566 575.5 565.5Q566 565 562 572Q558 578 556.5 582.0Q555 586 550 591Q545 596 535.5 597.5Q526 599 526 599Z" fill="#858585" stroke="none" transform="scale(1,-1) translate(0,-256)" /></svg>