<?xml version="1.0" encoding="utf-8" ?>
<svg baseProfile="full" height="256" version="1.1" width="256" xmlns="http://www.w3.org/2000/svg" xmlns:ev="http://www.w3.org/2001/xml-events" xmlns:xlink="http://www.w3.org/1999/xlink"><defs /><path d="M489 466Q489 466 502.0 463.5Q515 461 534.5 457.0Q554 453 572 447Q599 438 611.5 430.0Q624 422 624 422L630 357Q630 357 625.0 346.5Q620 336 611.0 325.5Q602 315 590 316Q579 316 571.0 326.5Q563 337 556.5 350.5Q550 364 543 373Q533 386 522.5 391.5Q512 397 500 404Q487 411 481.0 418.5Q475 426 474 440Q473 454 481.0 460.0Q489 466 489 466Z" fill="#ff9502" stroke="none" transform="scale(1,-1) translate(0,-256)" /><path d="M803 378 819 395Q819 395 835.5 393.0Q852 391 877 383Q913 371 929.5 359.5Q946 348 946 348Q946 348 952.5 336.5Q959 325 962.5 309.0Q966 293 956 281Q941 263 909.5 263.0Q878 263 840 281Q809 295 798.5 306.5Q788 318 787.5 324.5Q787 331 787 331Z" fill="#ff9502" stroke="none" transform="scale(1,-1) translate(0,-256)" /></svg>