<?xml version="1.0" encoding="utf-8" ?>
<svg baseProfile="full" height="256" version="1.1" width="256" xmlns="http://www.w3.org/2000/svg" xmlns:ev="http://www.w3.org/2001/xml-events" xmlns:xlink="http://www.w3.org/1999/xlink"><defs /><path d="M566 740Q566 740 547.5 732.0Q529 724 500.5 718.5Q472 713 440.0 719.0Q408 725 380 754Q357 777 351.0 801.0Q345 825 347.5 846.0Q350 867 355.0 880.0Q360 893 360 893Q393 911 430 911Q469 911 500.5 893.0Q532 875 551.0 844.5Q570 814 570 775Q570 767 568.5 757.5Q567 748 566 740Z" fill="#ffa726" stroke="none" transform="scale(1,-1) translate(0,-256)" /></svg>