<?xml version="1.0" encoding="utf-8" ?>
<svg baseProfile="full" height="256" version="1.1" width="256" xmlns="http://www.w3.org/2000/svg" xmlns:ev="http://www.w3.org/2001/xml-events" xmlns:xlink="http://www.w3.org/1999/xlink"><defs /><path d="M710 629Q733 629 734 606Q734 594 728.0 587.0Q722 580 713 580Q693 580 690 601Q689 610 694.0 619.5Q699 629 710 629Z" fill="#40423e" stroke="none" transform="scale(1,-1) translate(0,-256)" /><path d="M828 628Q848 629 850 608Q850 598 846.0 590.0Q842 582 833 581Q824 581 817.0 586.5Q810 592 810 603Q809 613 814.0 620.5Q819 628 828 628Z" fill="#40423e" stroke="none" transform="scale(1,-1) translate(0,-256)" /></svg>