<?xml version="1.0" encoding="utf-8" ?>
<svg baseProfile="full" height="256" version="1.1" width="256" xmlns="http://www.w3.org/2000/svg" xmlns:ev="http://www.w3.org/2001/xml-events" xmlns:xlink="http://www.w3.org/1999/xlink"><defs /><path d="M688 411Q688 411 679.0 392.0Q670 373 660 351Q653 337 641.0 316.0Q629 295 619.5 278.5Q610 262 610 262Q610 262 606.0 264.5Q602 267 595 273Q588 278 583.5 285.0Q579 292 575 288Q571 281 574.0 270.0Q577 259 581 252Q587 244 593.0 239.5Q599 235 599 235Q599 235 593.5 224.0Q588 213 581.5 198.5Q575 184 569.5 173.0Q564 162 563 162Q560 162 542 184Q533 194 525.0 210.5Q517 227 511 224Q507 221 508.0 206.5Q509 192 520 171Q529 154 538.5 144.0Q548 134 548 134Q548 134 541.0 118.0Q534 102 525.0 81.5Q516 61 508.0 45.0Q500 29 499 29Q497 29 479.0 42.0Q461 55 442.5 84.0Q424 113 420 162Q417 195 424.0 226.0Q431 257 441.0 282.0Q451 307 459.0 322.0Q467 337 467 337L399 272Q397 275 395.0 279.5Q393 284 389 294Q384 307 380.0 318.5Q376 330 372 327Q368 325 366.5 313.0Q365 301 367 287Q369 274 372.0 263.0Q375 252 375 252Q375 252 365.5 240.0Q356 228 346.0 216.5Q336 205 335 206Q333 207 328.0 218.0Q323 229 320 244Q316 259 315.5 272.5Q315 286 310 285Q306 285 301.5 273.0Q297 261 297 238Q297 215 303.0 199.0Q309 183 307 179Q306 177 296.0 165.0Q286 153 273.0 139.0Q260 125 249.0 114.5Q238 104 237 105Q233 107 228.0 125.0Q223 143 218 181Q215 205 218.5 243.5Q222 282 240.5 324.5Q259 367 298 403Q327 429 359.5 444.0Q392 459 420.5 466.5Q449 474 467.0 476.5Q485 479 485 479L399 482Q399 482 400.0 493.5Q401 505 403 518Q405 531 407.5 544.0Q410 557 403 555Q394 553 387.0 542.0Q380 531 375.0 517.0Q370 503 367.5 492.5Q365 482 365 482H297Q297 482 300.5 496.0Q304 510 310 526Q316 541 321.0 550.5Q326 560 321 560Q311 560 299.5 550.0Q288 540 278 525Q269 511 264.5 498.0Q260 485 259 484Q257 482 236.0 482.5Q215 483 191.5 483.5Q168 484 158 484Q155 484 161.0 507.5Q167 531 185.5 563.5Q204 596 237.0 625.0Q270 654 321 666Q368 677 405.0 671.5Q442 666 467.5 653.0Q493 640 506.5 629.0Q520 618 520 618Q520 618 513.5 634.5Q507 651 501.5 678.5Q496 706 499.0 739.5Q502 773 522 807Q540 838 565.0 858.0Q590 878 613 889Q649 906 676.5 907.0Q704 908 704 908L685 797Q685 797 673.0 797.5Q661 798 644 795Q626 791 616.0 783.0Q606 775 607 769Q607 767 618.0 769.0Q629 771 647 769Q659 767 669.0 765.0Q679 763 679 763L677 644Q677 644 683.0 655.5Q689 667 697.5 682.0Q706 697 715 707Q724 717 746.5 738.0Q769 759 805.5 777.5Q842 796 895 798Q935 800 964.0 788.5Q993 777 1012.0 762.0Q1031 747 1040.5 735.0Q1050 723 1050 723L982 676Q982 676 976.0 686.5Q970 697 961 705Q951 715 937.5 719.5Q924 724 919 721Q916 720 923.5 711.5Q931 703 937 693Q944 683 946.5 670.0Q949 657 949 657L916 633Q915 633 906.5 643.5Q898 654 885 666Q870 680 855.5 681.5Q841 683 838 679Q835 676 844.0 667.5Q853 659 861 646Q869 634 874.5 622.0Q880 610 880 610L765 519Q765 519 782.0 525.5Q799 532 828.0 539.0Q857 546 893.0 548.0Q929 550 967.5 542.0Q1006 534 1043 511Q1072 492 1087.0 464.0Q1102 436 1107.0 406.0Q1112 376 1111.0 350.0Q1110 324 1107.5 307.5Q1105 291 1105 291Q1105 291 1093.0 293.0Q1081 295 1066 299Q1052 304 1038.5 308.5Q1025 313 1024 314Q1023 315 1025.0 326.0Q1027 337 1028 357Q1030 389 1022.5 399.0Q1015 409 1010 407Q1005 406 1005.0 397.0Q1005 388 1000 368Q995 348 988.5 336.5Q982 325 982 325L938 337Q938 337 940.5 355.5Q943 374 943 389Q943 407 937.5 419.0Q932 431 925 432Q920 432 919.0 418.5Q918 405 916 394Q912 378 905.0 362.0Q898 346 898 346Q898 346 876.5 351.5Q855 357 823 367Q808 372 785.0 379.5Q762 387 740.0 394.0Q718 401 703.0 406.0Q688 411 688 411Z" fill="#728137" stroke="none" transform="scale(1,-1) translate(0,-256)" /></svg>