<?xml version="1.0" encoding="utf-8" ?>
<svg baseProfile="full" height="256" version="1.1" width="256" xmlns="http://www.w3.org/2000/svg" xmlns:ev="http://www.w3.org/2001/xml-events" xmlns:xlink="http://www.w3.org/1999/xlink"><defs /><path d="M713 465Q713 465 731.0 442.5Q749 420 774.5 377.5Q800 335 823 274Q858 180 866.0 106.5Q874 33 878 -7Q881 -33 884.5 -64.5Q888 -96 892.0 -123.0Q896 -150 898 -162Q905 -192 894.5 -203.5Q884 -215 871 -216Q865 -217 844.0 -217.0Q823 -217 796.5 -215.5Q770 -214 746.0 -212.0Q722 -210 709 -206Q692 -202 688.0 -188.5Q684 -175 687.0 -159.5Q690 -144 693 -135Q697 -125 705.5 -106.0Q714 -87 722.0 -66.5Q730 -46 732 -33Q739 18 732.5 72.0Q726 126 715 186Q707 233 690.5 272.0Q674 311 657.0 339.5Q640 368 628.0 384.0Q616 400 616 400Z" fill="#dc8124" stroke="none" transform="scale(1,-1) translate(0,-256)" /></svg>