<?xml version="1.0" encoding="utf-8" ?>
<svg baseProfile="full" height="256" version="1.1" width="256" xmlns="http://www.w3.org/2000/svg" xmlns:ev="http://www.w3.org/2001/xml-events" xmlns:xlink="http://www.w3.org/1999/xlink"><defs /><path d="M710 370Q705 367 678.0 378.0Q651 389 615 403Q579 418 561.5 427.5Q544 437 549 451Q552 459 568.0 457.0Q584 455 599 450Q613 446 631.0 440.0Q649 434 649 434Q649 434 642.0 447.5Q635 461 627 476Q622 485 615.5 498.5Q609 512 607.5 523.5Q606 535 615 541Q622 545 630.0 538.5Q638 532 645.5 521.5Q653 511 657 503Q666 488 676.5 468.5Q687 449 687 449Q687 449 690.0 463.5Q693 478 696 492Q700 508 705.0 520.0Q710 532 720 530Q730 528 732.0 516.5Q734 505 731.5 489.5Q729 474 727 461Q725 446 722.0 425.0Q719 404 715.5 388.0Q712 372 710 370Z" fill="#bdcf47" stroke="none" transform="scale(1,-1) translate(0,-256)" /><path d="M526 733Q528 764 540.0 786.5Q552 809 565.0 820.0Q578 831 583 825Q590 818 582.5 808.5Q575 799 565.0 781.5Q555 764 555 732Q554 709 560.0 690.5Q566 672 568.0 660.0Q570 648 558 645Q544 642 537.0 656.0Q530 670 527.5 692.0Q525 714 526 733Z" fill="#bdcf47" stroke="none" transform="scale(1,-1) translate(0,-256)" /><path d="M368 629Q345 624 312.5 609.0Q280 594 256 556Q246 540 238.0 527.5Q230 515 217 518Q204 520 207.5 538.5Q211 557 232 582Q240 591 251.5 601.5Q263 612 278 622Q301 638 324.0 644.5Q347 651 370 652Q395 654 403.0 650.0Q411 646 410 640Q410 636 398.5 635.0Q387 634 368 629Z" fill="#bdcf47" stroke="none" transform="scale(1,-1) translate(0,-256)" /><path d="M258 158Q250 158 244.0 177.5Q238 197 239 222Q240 256 247.0 284.0Q254 312 275 344Q297 377 323.5 397.5Q350 418 372.5 428.5Q395 439 404 443Q419 449 424.5 442.5Q430 436 408 426Q396 421 377.5 410.0Q359 399 339 381Q321 365 306.0 344.0Q291 323 281 293Q274 270 273.0 248.0Q272 226 272 208Q272 181 270.5 169.5Q269 158 258 158Z" fill="#bdcf47" stroke="none" transform="scale(1,-1) translate(0,-256)" /><path d="M481 297Q487 297 486.5 290.5Q486 284 484 277Q483 269 480.0 243.0Q477 217 479 189Q482 161 492.0 143.0Q502 125 504 115Q508 98 502.0 89.0Q496 80 486 84Q474 89 462.0 115.0Q450 141 449 184Q448 212 454.0 238.0Q460 264 467.5 280.5Q475 297 481 297Z" fill="#bdcf47" stroke="none" transform="scale(1,-1) translate(0,-256)" /></svg>