<?xml version="1.0" encoding="utf-8" ?>
<svg baseProfile="full" height="256" version="1.1" width="256" xmlns="http://www.w3.org/2000/svg" xmlns:ev="http://www.w3.org/2001/xml-events" xmlns:xlink="http://www.w3.org/1999/xlink"><defs /><path d="M485 135Q482 137 476.5 141.5Q471 146 467 150Q451 167 429.5 194.5Q408 222 401 262Q396 285 401 310Q406 340 422.5 368.5Q439 397 461 425Q466 431 469.5 435.5Q473 440 475 443Q472 444 466 446Q459 449 453 453Q450 454 448 456Q409 416 391.0 379.5Q373 343 369 311Q363 266 376.5 230.0Q390 194 411.0 167.0Q432 140 449 125Q449 125 449.0 125.0Q449 125 449 125Q455 120 460.0 116.0Q465 112 468 110L471 114L473 117Z" fill="#fcb316" stroke="none" transform="scale(1,-1) translate(0,-256)" /><path d="M335 311Q337 333 334.0 351.0Q331 369 327 381Q325 390 318.0 414.5Q311 439 299 457Q299 458 299 458Q299 458 298.5 458.0Q298 458 298 458Q298 458 298.0 458.0Q298 458 298 458Q297 456 295 455Q290 451 284 448Q280 445 275 444Q277 440 279.0 436.0Q281 432 283 429Q285 424 289.5 410.0Q294 396 298 381Q299 379 299.5 377.0Q300 375 301 373Q304 362 306.0 346.0Q308 330 306 312Q305 294 299 278Q291 254 275.5 230.5Q260 207 229.5 190.0Q199 173 148 167Q138 166 131.5 166.5Q125 167 121 167Q116 159 108.5 149.0Q101 139 100 137Q102 137 108 137Q123 137 138 138Q205 143 243.0 165.0Q281 187 299.0 216.0Q317 245 326 269Q333 290 335 311Z" fill="#fcb316" stroke="none" transform="scale(1,-1) translate(0,-256)" /><path d="M207 590Q208 601 204.5 607.0Q201 613 201 613Q197 619 193.5 615.5Q190 612 193 606Q195 602 196.0 599.0Q197 596 197 590Q197 571 186 571Q175 571 174 589Q174 601 181 606L177 615Q164 608 164 589Q165 577 171.0 569.0Q177 561 186 561Q195 562 200.5 570.0Q206 578 207 590Z" fill="#fcb316" stroke="none" transform="scale(1,-1) translate(0,-256)" /><path d="M534 613Q534 613 531.0 607.0Q528 601 529 590Q530 578 535.0 570.0Q540 562 549 561Q558 561 564.5 569.0Q571 577 571 589Q571 608 558 615L554 606Q561 601 561 589Q560 571 549 571Q538 571 539 590Q539 596 539.5 599.0Q540 602 542 606Q545 612 541.5 615.5Q538 619 534 613Z" fill="#fcb316" stroke="none" transform="scale(1,-1) translate(0,-256)" /></svg>