<?xml version="1.0" encoding="utf-8" ?>
<svg baseProfile="full" height="256" version="1.1" width="256" xmlns="http://www.w3.org/2000/svg" xmlns:ev="http://www.w3.org/2001/xml-events" xmlns:xlink="http://www.w3.org/1999/xlink"><defs /><path d="M654 154Q658 154 660 156Q668 162 662 170L641 196Q635 204 627 198Q619 192 625 184L646 157Q649 154 654 154Z" fill="#999999" stroke="none" transform="scale(1,-1) translate(0,-256)" /><path d="M767 142Q771 142 774 145Q781 153 773 159L738 188Q730 194 724 187Q717 179 725 173L760 144Q763 142 767 142Z" fill="#999999" stroke="none" transform="scale(1,-1) translate(0,-256)" /><path d="M807 230Q812 230 816 234Q821 242 813 248L778 273Q770 279 764 270Q758 262 767 257L802 232Q804 230 807 230Z" fill="#999999" stroke="none" transform="scale(1,-1) translate(0,-256)" /><path d="M914 260Q919 260 922 264Q928 272 920 278L884 304Q876 310 870 302Q864 294 872 288L908 262Q911 260 914 260Z" fill="#999999" stroke="none" transform="scale(1,-1) translate(0,-256)" /><path d="M934 170Q940 170 943 175Q947 184 938 189L907 205Q898 210 893 201Q889 192 897 188L929 171Q931 170 934 170Z" fill="#999999" stroke="none" transform="scale(1,-1) translate(0,-256)" /><path d="M1022 231Q1028 231 1031 235Q1037 244 1029 249L1000 270Q992 276 986 268Q980 260 988 254L1018 233Q1020 232 1022 231Z" fill="#999999" stroke="none" transform="scale(1,-1) translate(0,-256)" /></svg>