<?xml version="1.0" encoding="utf-8" ?>
<svg baseProfile="full" height="256" version="1.1" width="256" xmlns="http://www.w3.org/2000/svg" xmlns:ev="http://www.w3.org/2001/xml-events" xmlns:xlink="http://www.w3.org/1999/xlink"><defs /><path d="M1100 120 1185 90Q1185 90 1194.5 82.0Q1204 74 1215.0 63.5Q1226 53 1231 48Q1237 41 1226.0 29.0Q1215 17 1197.5 7.5Q1180 -2 1166 -2Q1151 -2 1140.0 4.0Q1129 10 1115 23Q1099 38 1090.0 54.0Q1081 70 1081 70Z" fill="#dfdfdf" stroke="none" transform="scale(1,-1) translate(0,-256)" /><path d="M500 155Q500 160 490.0 170.5Q480 181 467.0 192.5Q454 204 447 211Q427 228 415.5 243.0Q404 258 383 263Q369 266 351.0 259.0Q333 252 316.5 241.5Q300 231 292 226Q286 222 268.5 214.0Q251 206 230.0 200.5Q209 195 191.0 197.5Q173 200 165 216Q158 232 165.5 250.5Q173 269 188.0 286.5Q203 304 220.5 318.0Q238 332 251 339Q266 348 291.0 354.0Q316 360 336.5 362.5Q357 365 357 365Q357 365 360.0 371.5Q363 378 369.5 384.0Q376 390 386 388Q396 387 399.0 379.0Q402 371 401.5 363.5Q401 356 401 356L420 353Q420 353 421.5 367.5Q423 382 417.5 398.0Q412 414 391 418Q369 421 356.5 412.0Q344 403 338.0 392.0Q332 381 332 381Q332 381 324.0 382.0Q316 383 281 378Q244 372 221.5 361.0Q199 350 176 333Q156 318 145.0 296.5Q134 275 128 262Q122 245 115.5 241.5Q109 238 106 237Q104 236 106.0 231.0Q108 226 109 216Q110 201 106.0 192.0Q102 183 96 176Q91 171 81.5 168.5Q72 166 72 161Q72 157 77.0 151.0Q82 145 90 144Q99 143 110.0 144.5Q121 146 127 150Q133 153 136.5 148.5Q140 144 135 138Q131 132 117.0 132.5Q103 133 102 130Q102 127 105.5 123.5Q109 120 126 117Q143 115 173.5 119.5Q204 124 225 126Q240 128 264.5 133.5Q289 139 314.0 143.5Q339 148 355 149Q366 149 389.5 149.5Q413 150 438.5 150.5Q464 151 482.0 152.0Q500 153 500 155Z" fill="#dfdfdf" stroke="none" transform="scale(1,-1) translate(0,-256)" /><path d="M354 -110Q353 -104 360.5 -100.0Q368 -96 375.5 -96.5Q383 -97 384 -105Q384 -114 377.0 -116.0Q370 -118 362.0 -116.0Q354 -114 354 -110Z" fill="#dfdfdf" stroke="none" transform="scale(1,-1) translate(0,-256)" /><path d="M372 -136Q369 -130 375.0 -123.0Q381 -116 389.0 -114.0Q397 -112 401 -120Q405 -128 398.5 -133.0Q392 -138 383.0 -139.0Q374 -140 372 -136Z" fill="#dfdfdf" stroke="none" transform="scale(1,-1) translate(0,-256)" /><path d="M404 -157Q401 -149 408.5 -143.0Q416 -137 425.5 -135.5Q435 -134 438 -140Q442 -146 434.0 -151.5Q426 -157 416.0 -159.0Q406 -161 404 -157Z" fill="#dfdfdf" stroke="none" transform="scale(1,-1) translate(0,-256)" /><path d="M420 -177Q417 -172 423.0 -164.5Q429 -157 438.5 -153.5Q448 -150 453 -157Q459 -163 451.5 -169.5Q444 -176 433.5 -178.5Q423 -181 420 -177Z" fill="#dfdfdf" stroke="none" transform="scale(1,-1) translate(0,-256)" /></svg>