<?xml version="1.0" encoding="utf-8" ?>
<svg baseProfile="full" height="256" version="1.1" width="256" xmlns="http://www.w3.org/2000/svg" xmlns:ev="http://www.w3.org/2001/xml-events" xmlns:xlink="http://www.w3.org/1999/xlink"><defs /><path d="M508 724Q490 736 465.5 749.5Q441 763 415.5 771.5Q390 780 367 777Q346 774 342.5 761.5Q339 749 346.0 732.5Q353 716 363.5 701.5Q374 687 383 680Q436 636 506 637Q518 637 529.5 639.5Q541 642 551 649Q556 653 557 656Q559 661 557 667Q552 686 538.0 699.5Q524 713 508 724Z" fill="#ffffff" stroke="none" transform="scale(1,-1) translate(0,-256)" /><path d="M890 759Q844 745 804.5 718.5Q765 692 729 661Q725 657 722.5 651.5Q720 646 722 641Q724 637 730 634Q748 623 769.0 620.5Q790 618 811 622Q831 626 850.0 635.0Q869 644 886 655Q897 663 907.5 672.5Q918 682 925 694Q932 706 934.0 720.0Q936 734 931 747Q927 755 922 759Q915 764 906.5 763.0Q898 762 890 759Z" fill="#ffffff" stroke="none" transform="scale(1,-1) translate(0,-256)" /></svg>