<?xml version="1.0" encoding="utf-8" ?>
<svg baseProfile="full" height="256" version="1.1" width="256" xmlns="http://www.w3.org/2000/svg" xmlns:ev="http://www.w3.org/2001/xml-events" xmlns:xlink="http://www.w3.org/1999/xlink"><defs /><path d="M652 153Q732 154 809 161V129Q721 111 649.5 110.0Q578 109 528.5 115.5Q479 122 457 127V160Q495 157 534.5 155.0Q574 153 614 153Z" fill="#ab3f2e" stroke="none" transform="scale(1,-1) translate(0,-256)" /><path d="M633 -46Q626 -46 620.5 -40.5Q615 -35 615 -27V153H652V-27Q652 -27 652.0 -27.0Q652 -27 652 -27Q652 -35 646.5 -40.5Q641 -46 633 -46Z" fill="#ab3f2e" stroke="none" transform="scale(1,-1) translate(0,-256)" /></svg>