<?xml version="1.0" encoding="utf-8" ?>
<svg baseProfile="full" height="256" version="1.1" width="256" xmlns="http://www.w3.org/2000/svg" xmlns:ev="http://www.w3.org/2001/xml-events" xmlns:xlink="http://www.w3.org/1999/xlink"><defs /><path d="M457 127Q479 122 528.5 115.5Q578 109 649.5 110.0Q721 111 810 129V-70Q810 -115 788.0 -151.5Q766 -188 729.5 -209.5Q693 -231 649 -231H618Q573 -231 536.5 -209.5Q500 -188 478.5 -151.5Q457 -115 457 -70Z" fill="#ff4081" stroke="none" transform="scale(1,-1) translate(0,-256)" /><path d="M652 153Q732 154 809 161V129Q721 111 649.5 110.0Q578 109 528.5 115.5Q479 122 457 127V160Q495 157 534.5 155.0Q574 153 614 153Z" fill="#ff4081" stroke="none" transform="scale(1,-1) translate(0,-256)" /></svg>