<?xml version="1.0" encoding="utf-8" ?>
<svg baseProfile="full" height="256" version="1.1" width="256" xmlns="http://www.w3.org/2000/svg" xmlns:ev="http://www.w3.org/2001/xml-events" xmlns:xlink="http://www.w3.org/1999/xlink"><defs /><path d="M333 384Q316 379 305.5 366.0Q295 353 297 338Q301 317 320.5 306.5Q340 296 361 302Q363 303 366 304L581 385Q586 386 588 391Q591 400 583 403L383 525Q368 534 350.5 533.5Q333 533 319 522Q313 517 309 510Q309 510 309.0 510.0Q309 510 309 510Q302 496 306.5 480.5Q311 465 326 457L330 455L447 406Z" fill="#422b0d" stroke="none" transform="scale(1,-1) translate(0,-256)" /><path d="M942 386Q959 382 969.5 369.0Q980 356 978 340Q974 320 954.5 309.5Q935 299 914 305Q912 306 909 306L694 387Q689 388 687 393Q684 402 692 405L892 527Q907 537 924.5 536.0Q942 535 956 524Q962 519 966 512Q966 512 966.0 512.0Q966 512 966 512Q973 498 968.5 482.5Q964 467 949 459L945 457L828 408Z" fill="#422b0d" stroke="none" transform="scale(1,-1) translate(0,-256)" /><path d="M626 196Q789 195 948 223Q954 224 960 223Q974 221 981.5 209.5Q989 198 987 185Q973 112 925.5 49.5Q878 -13 802.0 -51.0Q726 -89 626 -89Q535 -89 459.0 -52.0Q383 -15 332.5 47.0Q282 109 266 184Q265 191 266 197Q269 210 280.0 218.0Q291 226 305 223Q464 195 626 196Z" fill="#422b0d" stroke="none" transform="scale(1,-1) translate(0,-256)" /><path d="M626 196Q464 195 305 223Q291 226 280.0 218.0Q269 210 266 197Q265 191 266 184Q282 109 332.5 47.0Q383 -15 459.0 -52.0Q535 -89 626 -89Q726 -89 802.0 -51.0Q878 -13 925.5 49.5Q973 112 987 185Q989 198 981.5 209.5Q974 221 960 223Q954 224 948 223Q789 195 626 196Z" fill="#422b0d" stroke="none" transform="scale(1,-1) translate(0,-256)" /></svg>