<?xml version="1.0" encoding="utf-8" ?>
<svg baseProfile="full" height="256" version="1.1" width="256" xmlns="http://www.w3.org/2000/svg" xmlns:ev="http://www.w3.org/2001/xml-events" xmlns:xlink="http://www.w3.org/1999/xlink"><defs /><path d="M1190 353Q1187 344 1178 341L1046 296Q984 275 946.5 227.5Q909 180 892 116L834 -161Q830 -175 818 -176L840 114Q840 205 872.0 245.5Q904 286 964 301Z" fill="#f4b400" stroke="none" transform="scale(1,-1) translate(0,-256)" /><path d="M307 -16 294 -146Q294 -146 298.0 -143.0Q302 -140 306 -131Q308 -128 312.0 -113.5Q316 -99 320.5 -82.0Q325 -65 328.0 -52.5Q331 -40 331 -40Q339 -4 350.5 14.0Q362 32 379.5 42.0Q397 52 423 63L484 83Q491 84 495.0 88.0Q499 92 499 92L405 88Q360 88 333.5 62.5Q307 37 307 -16Z" fill="#f4b400" stroke="none" transform="scale(1,-1) translate(0,-256)" /><path d="M598 686 522 661Q500 653 493 631L465 522Q464 518 459.5 518.0Q455 518 454 522L427 631Q421 653 399 661L323 687Q319 688 319.5 692.0Q320 696 324 698L395 716Q421 723 427 748L454 865Q455 869 459.5 869.0Q464 869 465 865L494 747Q501 723 525 716L597 697Q601 696 601.5 692.0Q602 688 598 686Z" fill="#f4b400" stroke="none" transform="scale(1,-1) translate(0,-256)" /><path d="M599 682Q606 684 606 692Q606 699 599 701L526 721Q504 727 498 749L470 866Q468 874 460 874Q451 874 450 866L423 749Q417 727 394 721L322 702Q315 700 315 693Q314 685 321 682L397 656Q417 649 423 630L450 521Q452 513 460 513Q468 513 470 521L498 630Q504 650 523 656ZM596 691 520 665Q496 657 489 633L461 523Q460 523 460 523Q459 523 459 523L432 632Q424 657 400 665L325 691Q324 691 324 692Q324 693 325 693L397 712Q425 719 432 747L459 864Q459 865 460 865Q460 865 461 864L489 746Q497 719 524 712L596 692Q597 692 597 692Q597 691 596 691Z" fill="#f4b400" stroke="none" transform="scale(1,-1) translate(0,-256)" /></svg>