<?xml version="1.0" encoding="utf-8" ?>
<svg baseProfile="full" height="256" version="1.1" width="256" xmlns="http://www.w3.org/2000/svg" xmlns:ev="http://www.w3.org/2001/xml-events" xmlns:xlink="http://www.w3.org/1999/xlink"><defs /><path d="M1190 368Q1176 370 1141.5 376.0Q1107 382 1062.0 390.0Q1017 398 973 405Q922 414 897.0 438.0Q872 462 862.0 504.5Q852 547 845 612L827 893Q829 891 831.0 887.5Q833 884 834 882L891 602Q909 538 946.5 490.0Q984 442 1047 422L1177 380Q1186 377 1190 368Z" fill="#ffee58" stroke="none" transform="scale(1,-1) translate(0,-256)" /><path d="M305 242 291 360Q291 360 295.0 358.5Q299 357 303 348Q303 348 311.0 321.0Q319 294 329 249Q339 204 358.5 179.0Q378 154 429 136L495 112Q499 111 501 108L376 132Q346 140 332.5 151.5Q319 163 314.0 184.0Q309 205 305 242Z" fill="#ffee58" stroke="none" transform="scale(1,-1) translate(0,-256)" /></svg>