<?xml version="1.0" encoding="utf-8" ?>
<svg baseProfile="full" height="256" version="1.1" width="256" xmlns="http://www.w3.org/2000/svg" xmlns:ev="http://www.w3.org/2001/xml-events" xmlns:xlink="http://www.w3.org/1999/xlink"><defs /><path d="M782 360 879 284Q879 284 909.5 256.0Q940 228 997 179Q1053 130 1084.0 112.5Q1115 95 1115 95L922 8Q922 8 909.0 23.5Q896 39 877.0 60.0Q858 81 841.5 100.5Q825 120 819 129Q812 137 799.5 156.0Q787 175 773.5 195.5Q760 216 751.0 230.0Q742 244 742 244Z" fill="#234096" stroke="none" transform="scale(1,-1) translate(0,-256)" /></svg>