<?xml version="1.0" encoding="utf-8" ?>
<svg baseProfile="full" height="256" version="1.1" width="256" xmlns="http://www.w3.org/2000/svg" xmlns:ev="http://www.w3.org/2001/xml-events" xmlns:xlink="http://www.w3.org/1999/xlink"><defs /><path d="M483 340Q481 340 470.5 329.5Q460 319 447.0 305.5Q434 292 424.5 281.5Q415 271 415 271Q415 271 411.5 271.0Q408 271 406 274Q401 282 410 294Q412 296 423.5 309.0Q435 322 451.5 340.5Q468 359 484.0 376.5Q500 394 510.5 406.0Q521 418 521 418Q521 418 530.5 426.0Q540 434 552.5 444.5Q565 455 575.0 463.5Q585 472 587 473Q591 475 591.0 470.0Q591 465 590 462Q590 458 590.5 455.0Q591 452 591 452L537 403Q537 403 527.5 393.0Q518 383 510.0 372.5Q502 362 504 359Q507 356 511.5 360.0Q516 364 519 362Q522 359 517.5 346.0Q513 333 505 322Q498 312 485.5 300.5Q473 289 469 292Q465 295 467.0 301.0Q469 307 475 314Q480 322 484.0 330.5Q488 339 483 340Z" fill="#c6e4f7" stroke="none" transform="scale(1,-1) translate(0,-256)" /><path d="M570 411Q576 409 576.0 402.5Q576 396 577 394Q577 391 581.0 386.5Q585 382 585 376Q586 370 581.5 363.5Q577 357 572 350Q568 347 555.0 333.0Q542 319 529.0 307.5Q516 296 512 301Q509 305 515.0 316.5Q521 328 529.5 339.5Q538 351 541 357Q546 365 547.0 372.0Q548 379 551 389Q554 399 560.0 406.0Q566 413 570 411Z" fill="#c6e4f7" stroke="none" transform="scale(1,-1) translate(0,-256)" /><path d="M649 459Q649 459 656.0 460.0Q663 461 665 457Q668 448 662.0 443.0Q656 438 656 438Q656 438 659.5 439.0Q663 440 661 432Q661 430 657.0 422.5Q653 415 649.0 408.0Q645 401 645 401Q645 401 641.5 392.0Q638 383 634.5 372.5Q631 362 629 356Q627 348 623.5 339.0Q620 330 623 325Q626 320 635.0 321.0Q644 322 651 324Q657 325 664.5 326.0Q672 327 677 322Q681 318 680.0 302.5Q679 287 678 281Q678 278 681.5 262.0Q685 246 688.5 231.5Q692 217 692 217Q692 217 702.5 219.0Q713 221 720 223Q741 229 745.0 231.0Q749 233 749 233L708 310Q708 310 702.5 318.0Q697 326 691 333Q685 340 674.5 353.5Q664 367 662 371Q657 377 660.0 387.0Q663 397 663 397Q663 397 667.5 410.0Q672 423 674 428Q676 433 680.0 442.5Q684 452 686 459Q689 469 683 474Q682 474 679.0 473.0Q676 472 669 467Q664 463 656.5 461.0Q649 459 649 459Z" fill="#c6e4f7" stroke="none" transform="scale(1,-1) translate(0,-256)" /></svg>