<?xml version="1.0" encoding="utf-8" ?>
<svg baseProfile="full" height="256" version="1.1" width="256" xmlns="http://www.w3.org/2000/svg" xmlns:ev="http://www.w3.org/2001/xml-events" xmlns:xlink="http://www.w3.org/1999/xlink"><defs /><path d="M-405.6175994873047 -280.62567138671875Q-405.6175994873047 -280.62567138671875 -386.15579986572266 -291.83473205566406Q-366.6940002441406 -303.0437927246094 -333.89574432373047 -321.46266174316406Q-301.0974884033203 -339.88153076171875 -262.6258316040039 -361.8036804199219Q-224.1541748046875 -383.725830078125 -184.7104263305664 -405.97218322753906Q-145.2666778564453 -428.2185363769531 -112.46842193603516 -446.6374053955078Q-79.670166015625 -465.0562744140625 -58.738861083984375 -476.6403503417969Q-37.80755615234375 -488.22442626953125 -36.85820007324219 -488.7712097167969Q-34.91401672363281 -489.41961669921875 -24.16722869873047 -477.69798278808594Q-13.420440673828125 -465.9763488769531 1.5585174560546875 -447.2652587890625Q16.5374755859375 -428.5541687011719 32.784088134765625 -407.27374267578125Q49.03070068359375 -385.9933166503906 63.557716369628906 -366.7862548828125Q78.08473205566406 -347.5791931152344 87.36201477050781 -335.4825439453125Q96.63929748535156 -323.3858947753906 96.63929748535156 -323.3858947753906L5.32244873046875 -105.34823608398438L-70.62603759765625 -61.605560302734375Q-70.62603759765625 -61.605560302734375 -81.21090698242188 -66.82156372070312Q-91.7957763671875 -72.03756713867188 -106.0671615600586 -78.90110778808594Q-120.33854675292969 -85.7646484375 -129.9285888671875 -91.082275390625Q-140.46798706054688 -95.85311889648438 -156.18614196777344 -102.11906433105469Q-171.904296875 -108.385009765625 -187.0795669555664 -114.25660705566406Q-202.2548370361328 -120.12820434570312 -211.70846557617188 -124.1103515625Q-219.03602600097656 -126.96026611328125 -241.33423614501953 -133.67855834960938Q-263.6324462890625 -140.3968505859375 -288.5086669921875 -147.75140380859375Q-313.3848876953125 -155.10595703125 -331.5219039916992 -160.45010375976562Q-349.65892028808594 -165.79425048828125 -349.65892028808594 -165.79425048828125Q-349.65892028808594 -165.79425048828125 -354.00476837158203 -173.8966064453125Q-358.3506164550781 -181.99896240234375 -364.6888885498047 -194.84564208984375Q-371.02716064453125 -207.69232177734375 -378.5194091796875 -221.9954376220703Q-386.01165771484375 -236.29855346679688 -392.37266540527344 -249.36781311035156Q-398.7336730957031 -262.43707275390625 -402.62757873535156 -271.035400390625Q-406.521484375 -279.63372802734375 -405.6175994873047 -280.62567138671875Z" fill="#000000" stroke="none" transform="scale(1,-1) translate(0,-256)" /></svg>