<?xml version="1.0" encoding="utf-8" ?>
<svg baseProfile="full" height="256" version="1.1" width="256" xmlns="http://www.w3.org/2000/svg" xmlns:ev="http://www.w3.org/2001/xml-events" xmlns:xlink="http://www.w3.org/1999/xlink"><defs /><path d="M511 -5Q511 -5 522.0 -3.0Q533 -1 548.5 0.0Q564 1 575 0Q599 -2 617.5 -8.5Q636 -15 636 -15Q636 -15 648.0 0.5Q660 16 683.5 35.5Q707 55 741.5 69.5Q776 84 823 82Q856 81 876.5 70.5Q897 60 906.5 50.0Q916 40 916 40Q916 40 925.0 52.0Q934 64 952.0 79.0Q970 94 996 103Q1034 117 1082.0 109.0Q1130 101 1170 53Q1196 21 1203.0 -6.5Q1210 -34 1208.0 -51.5Q1206 -69 1206 -69Q1206 -69 1190.0 -83.5Q1174 -98 1139 -116Q1115 -128 1072.5 -134.0Q1030 -140 977.5 -142.5Q925 -145 874 -145Q849 -145 807.0 -145.5Q765 -146 716.0 -146.5Q667 -147 617.5 -147.5Q568 -148 525.5 -148.5Q483 -149 454.5 -149.0Q426 -149 421 -149Q404 -148 405.0 -135.0Q406 -122 416 -96Q423 -78 435.5 -65.0Q448 -52 457.5 -43.5Q467 -35 464 -30Q456 -14 386 -58Q363 -72 340.5 -88.5Q318 -105 284.5 -117.0Q251 -129 196 -130Q154 -131 129.0 -123.5Q104 -116 92.0 -105.5Q80 -95 76.0 -86.5Q72 -78 72 -78Q72 -78 71.5 -59.0Q71 -40 82 -6Q94 29 121.5 50.0Q149 71 190 74Q217 76 233.0 69.5Q249 63 259.5 56.0Q270 49 282 47Q295 46 311.5 53.0Q328 60 353.5 65.5Q379 71 418 64Q456 57 476.0 40.5Q496 24 503.5 9.5Q511 -5 511 -5Z" fill="#e4ebee" stroke="none" transform="scale(1,-1) translate(0,-256)" /></svg>