<?xml version="1.0" encoding="utf-8" ?>
<svg baseProfile="full" height="256" version="1.1" width="256" xmlns="http://www.w3.org/2000/svg" xmlns:ev="http://www.w3.org/2001/xml-events" xmlns:xlink="http://www.w3.org/1999/xlink"><defs /><path d="M355 801Q355 801 384.0 809.0Q413 817 459.0 829.5Q505 842 557.5 855.5Q610 869 658.0 881.0Q706 893 738.5 900.0Q771 907 777 905Q788 902 802.5 895.5Q817 889 828.0 883.0Q839 877 839 877L996 792Q996 792 1004.5 785.5Q1013 779 1023.0 770.0Q1033 761 1038 755Q1044 749 1051.0 738.5Q1058 728 1063.0 719.5Q1068 711 1068 711Q1068 711 1081.0 696.0Q1094 681 1105 668Q1119 652 1130.5 635.5Q1142 619 1152 599Q1177 546 1185.5 500.0Q1194 454 1194 429Q1194 411 1186.5 379.0Q1179 347 1167.5 310.0Q1156 273 1143.0 239.0Q1130 205 1119 183Q1105 155 1088.5 139.0Q1072 123 1060.5 117.0Q1049 111 1049 111Q1049 111 1039.5 91.5Q1030 72 1011.5 42.0Q993 12 965.5 -20.0Q938 -52 901 -76Q853 -107 816.0 -117.5Q779 -128 758.0 -127.5Q737 -127 737 -127Q737 -127 730.5 -136.0Q724 -145 698.5 -154.0Q673 -163 616 -164Q570 -164 539.0 -156.5Q508 -149 493.0 -140.5Q478 -132 478 -132Q478 -132 457.5 -137.5Q437 -143 408 -143Q373 -143 353.0 -132.5Q333 -122 333 -122Q333 -122 319.0 -116.5Q305 -111 287.0 -100.0Q269 -89 255 -75Q234 -54 219.5 -33.0Q205 -12 205 -12L147 101Q147 101 141.0 115.5Q135 130 125.5 152.0Q116 174 106.5 197.0Q97 220 89.0 237.5Q81 255 78 260Q72 272 71.5 286.5Q71 301 74 316Q75 322 77.5 341.5Q80 361 82.0 384.0Q84 407 85.5 424.0Q87 441 87 441Q87 441 87.0 453.0Q87 465 87 475Q87 485 90.0 492.5Q93 500 93 500L178 683L218 727Z" fill="#d8cdc9" stroke="none" transform="scale(1,-1) translate(0,-256)" /></svg>