<?xml version="1.0" encoding="utf-8" ?>
<svg baseProfile="full" height="256" version="1.1" width="256" xmlns="http://www.w3.org/2000/svg" xmlns:ev="http://www.w3.org/2001/xml-events" xmlns:xlink="http://www.w3.org/1999/xlink"><defs /><path d="M93 499Q93 499 95.5 516.0Q98 533 104.0 557.0Q110 581 121 604Q138 638 158.0 660.5Q178 683 178 683L192 670L422 602L688 555Q688 555 698.0 546.5Q708 538 720.5 526.0Q733 514 742 503Q751 491 755.5 470.5Q760 450 761.5 427.5Q763 405 761.5 387.5Q760 370 758 364Q752 352 735.5 345.0Q719 338 695 342Q678 345 626.0 355.0Q574 365 502.5 379.5Q431 394 355 413Q279 431 220.0 451.0Q161 471 127.0 485.0Q93 499 93 499Z" fill="#f1edec" stroke="none" transform="scale(1,-1) translate(0,-256)" /><path d="M87 441Q87 441 79.5 421.0Q72 401 70 384Q66 351 70.0 329.0Q74 307 74 307Q74 307 96.5 291.5Q119 276 162.0 252.5Q205 229 265.5 205.5Q326 182 402 166Q423 162 457.5 157.5Q492 153 531.5 149.5Q571 146 608.5 145.0Q646 144 675.0 146.5Q704 149 716 157Q732 166 742.5 184.5Q753 203 760.0 223.0Q767 243 770.0 258.0Q773 273 773 276Q773 278 747.0 283.5Q721 289 680.0 297.0Q639 305 592.5 313.5Q546 322 505.0 329.5Q464 337 438.0 341.5Q412 346 412 346Q412 346 389.0 352.5Q366 359 329.5 369.0Q293 379 252.0 391.0Q211 403 174.0 413.5Q137 424 113.0 431.5Q89 439 87 441Z" fill="#f1edec" stroke="none" transform="scale(1,-1) translate(0,-256)" /><path d="M94 235Q94 235 94.0 205.0Q94 175 112 134Q124 107 141.0 76.5Q158 46 193.0 16.5Q228 -13 294 -37Q350 -58 409.0 -65.0Q468 -72 522.0 -70.5Q576 -69 617.0 -62.0Q658 -55 678 -47Q707 -35 724.0 -15.0Q741 5 749.5 23.5Q758 42 760 51Q762 63 754.5 76.5Q747 90 747 90L472 93L218 159Z" fill="#f1edec" stroke="none" transform="scale(1,-1) translate(0,-256)" /><path d="M537 671Q537 671 548.5 657.5Q560 644 604 633Q631 627 663.5 624.5Q696 622 714 626Q723 628 730.5 636.0Q738 644 751.5 657.0Q765 670 792.0 688.5Q819 707 866 732Q914 756 947.0 763.0Q980 770 1000.0 767.5Q1020 765 1029.0 760.0Q1038 755 1038 755Q1038 755 1029.0 766.5Q1020 778 1003.5 794.0Q987 810 965 823Q932 843 910.5 851.0Q889 859 880 861Q875 863 861.5 864.0Q848 865 836.5 865.0Q825 865 825 865L656 792Z" fill="#f1edec" stroke="none" transform="scale(1,-1) translate(0,-256)" /><path d="M232 729 264 776Q264 776 284.0 793.0Q304 810 335.0 831.5Q366 853 398 867Q430 881 456.5 885.0Q483 889 498.5 889.0Q514 889 514 889L548 892Q548 892 566.0 897.5Q584 903 613.5 910.0Q643 917 678 919Q713 921 740.0 915.5Q767 910 782.5 904.0Q798 898 798 898Q798 898 775.5 893.5Q753 889 716.5 876.0Q680 863 638 838Q596 812 563.5 778.5Q531 745 511.5 718.0Q492 691 488 686Q482 678 468.5 673.0Q455 668 426 674Q397 680 386.0 689.0Q375 698 375 698Q375 698 348.5 695.0Q322 692 290 700Q258 707 245.0 718.0Q232 729 232 729Z" fill="#f1edec" stroke="none" transform="scale(1,-1) translate(0,-256)" /></svg>