<?xml version="1.0" encoding="utf-8" ?>
<svg baseProfile="full" height="256" version="1.1" width="256" xmlns="http://www.w3.org/2000/svg" xmlns:ev="http://www.w3.org/2001/xml-events" xmlns:xlink="http://www.w3.org/1999/xlink"><defs /><path d="M955 66Q956 66 970.5 95.0Q985 124 1008.5 169.0Q1032 214 1059.5 263.5Q1087 313 1113.5 357.5Q1140 402 1160.5 429.5Q1181 457 1191 456Q1193 456 1193.5 445.0Q1194 434 1194 429Q1203 369 1199.5 288.0Q1196 207 1164 119Q1144 65 1109.0 17.5Q1074 -30 1037.5 -65.5Q1001 -101 977 -118Q940 -143 913.5 -152.0Q887 -161 887 -161L872 -153Q872 -153 854.5 -165.0Q837 -177 799.5 -190.0Q762 -203 703 -208Q644 -212 610.0 -208.5Q576 -205 561.0 -200.5Q546 -196 546 -196Q546 -196 530.5 -197.0Q515 -198 489.5 -195.0Q464 -192 434 -181Q405 -170 377.5 -156.5Q350 -143 332.5 -132.5Q315 -122 315 -122L424 -106L733 -94Z" fill="#c5b3af" stroke="none" transform="scale(1,-1) translate(0,-256)" /><path d="M664 563Q664 563 675.5 556.5Q687 550 702.5 540.5Q718 531 732.5 522.0Q747 513 753 508Q761 501 775.5 488.0Q790 475 801.5 464.0Q813 453 813 453L831 443Q831 443 829.0 463.5Q827 484 825.5 511.0Q824 538 825 556Q826 574 834.5 595.5Q843 617 851.5 633.0Q860 649 860 649Q860 649 847.0 642.0Q834 635 815.5 625.5Q797 616 779.0 607.0Q761 598 752 593Q739 587 718.5 580.0Q698 573 681.0 568.0Q664 563 664 563Z" fill="#c5b3af" stroke="none" transform="scale(1,-1) translate(0,-256)" /></svg>