<?xml version="1.0" encoding="utf-8" ?>
<svg baseProfile="full" height="256" version="1.1" width="256" xmlns="http://www.w3.org/2000/svg" xmlns:ev="http://www.w3.org/2001/xml-events" xmlns:xlink="http://www.w3.org/1999/xlink"><defs /><path d="M678 798Q683 803 702.0 807.5Q721 812 735 815Q756 820 764.0 811.5Q772 803 772 797Q771 790 766.5 785.0Q762 780 750 776Q740 773 725.5 768.5Q711 764 711 764Q711 764 706.0 749.5Q701 735 697 725Q694 715 688.0 709.0Q682 703 670 705Q659 706 657.0 717.0Q655 728 657 736Q660 751 667.5 772.5Q675 794 678 798Z" fill="#ed520a" stroke="none" transform="scale(1,-1) translate(0,-256)" /><path d="M595 868Q597 869 608.0 869.5Q619 870 631 871Q650 872 665.0 871.0Q680 870 681 859Q681 847 674.5 843.5Q668 840 659 838Q651 837 634.5 836.0Q618 835 618 835Q618 835 611.5 820.0Q605 805 602 798Q599 791 591.0 785.0Q583 779 575 784Q567 789 567.0 798.0Q567 807 569 811Q571 814 576.5 827.5Q582 841 587.5 853.5Q593 866 595 868Z" fill="#ed520a" stroke="none" transform="scale(1,-1) translate(0,-256)" /><path d="M538 922Q541 923 554.0 922.5Q567 922 575 922Q583 921 591.5 917.5Q600 914 600 905Q600 896 594.0 892.0Q588 888 583 888Q577 888 563.5 888.5Q550 889 550 889Q550 889 543.0 881.0Q536 873 531 869Q527 866 518.5 863.5Q510 861 504 866Q497 871 497.5 877.5Q498 884 501 887Q503 890 510.5 897.5Q518 905 526.0 912.5Q534 920 538 922Z" fill="#ed520a" stroke="none" transform="scale(1,-1) translate(0,-256)" /><path d="M784 709Q787 712 802.5 717.5Q818 723 832.5 728.0Q847 733 847 733Q853 735 864.0 734.5Q875 734 880 724Q884 713 878.5 705.0Q873 697 867 695Q862 693 850.0 688.5Q838 684 827.5 680.0Q817 676 817 676Q817 676 814.0 666.0Q811 656 807.5 643.0Q804 630 801 621Q793 592 768 600Q755 603 756.0 617.0Q757 631 760 639Q761 645 766.0 661.0Q771 677 776.0 692.0Q781 707 784 709Z" fill="#ed520a" stroke="none" transform="scale(1,-1) translate(0,-256)" /><path d="M890 619Q893 622 909.5 633.0Q926 644 938 648Q949 652 960.0 652.0Q971 652 976 644Q981 635 978.0 625.0Q975 615 967 611Q958 607 942.0 598.0Q926 589 926 589Q926 589 920.0 571.0Q914 553 910 537Q905 516 883 521Q871 524 869.0 534.5Q867 545 869 552Q870 558 874.5 572.5Q879 587 883.5 601.5Q888 616 890 619Z" fill="#ed520a" stroke="none" transform="scale(1,-1) translate(0,-256)" /><path d="M994.718994140625 539.406005859375Q997.718994140625 543.406005859375 1014.218994140625 553.906005859375Q1030.718994140625 564.406005859375 1037.718994140625 566.406005859375Q1046.718994140625 570.406005859375 1058.218994140625 571.406005859375Q1069.718994140625 572.406005859375 1074.718994140625 562.406005859375Q1079.718994140625 552.406005859375 1074.218994140625 543.906005859375Q1068.718994140625 535.406005859375 1060.718994140625 530.406005859375Q1055.718994140625 527.406005859375 1045.218994140625 521.406005859375Q1034.718994140625 515.406005859375 1034.718994140625 515.406005859375Q1034.718994140625 515.406005859375 1034.218994140625 506.906005859375Q1033.718994140625 498.406005859375 1033.218994140625 488.406005859375Q1032.718994140625 478.406005859375 1032.718994140625 474.406005859375Q1032.718994140625 468.406005859375 1027.218994140625 458.906005859375Q1021.718994140625 449.406005859375 1010.718994140625 449.406005859375Q997.718994140625 449.406005859375 992.718994140625 459.906005859375Q987.718994140625 470.406005859375 987.718994140625 476.406005859375Q987.718994140625 479.406005859375 988.718994140625 493.406005859375Q989.718994140625 507.406005859375 991.218994140625 521.406005859375Q992.718994140625 535.406005859375 994.718994140625 539.406005859375Z" fill="#ed520a" stroke="none" transform="scale(1,-1) translate(0,-256)" /><path d="M1091 462Q1092 464 1103.5 472.0Q1115 480 1125 485Q1134 491 1143.5 489.0Q1153 487 1158 480Q1162 474 1161.5 466.0Q1161 458 1155 454Q1152 452 1142.5 445.5Q1133 439 1133 439Q1133 439 1132.5 430.5Q1132 422 1132.0 411.5Q1132 401 1132 396Q1132 389 1127.5 381.0Q1123 373 1113 373Q1103 373 1096.0 380.0Q1089 387 1088 396Q1088 402 1088.0 416.0Q1088 430 1088.5 444.0Q1089 458 1091 462Z" fill="#ed520a" stroke="none" transform="scale(1,-1) translate(0,-256)" /><path d="M1162 411Q1165 416 1174.5 420.5Q1184 425 1193.0 425.0Q1202 425 1205 416Q1209 403 1203.0 399.0Q1197 395 1197 395Q1197 395 1197.5 383.5Q1198 372 1198.0 359.5Q1198 347 1198 344Q1197 338 1193.0 333.0Q1189 328 1179 328Q1167 328 1164.5 336.0Q1162 344 1162 348Q1162 350 1160.5 363.5Q1159 377 1159.0 391.5Q1159 406 1162 411Z" fill="#ed520a" stroke="none" transform="scale(1,-1) translate(0,-256)" /><path d="M625 -188Q629 -180 640.0 -182.5Q651 -185 660.0 -189.5Q669 -194 669 -194Q669 -194 679.0 -191.0Q689 -188 700.5 -186.5Q712 -185 716 -192Q722 -203 716.5 -209.0Q711 -215 704 -219Q696 -224 685.0 -227.5Q674 -231 669 -230Q665 -230 660.0 -228.5Q655 -227 640 -220Q626 -212 623.5 -203.5Q621 -195 625 -188Z" fill="#ed520a" stroke="none" transform="scale(1,-1) translate(0,-256)" /><path d="M622 -104Q630 -96 639.5 -100.5Q649 -105 655 -109Q660 -113 671.5 -121.0Q683 -129 683 -129Q683 -129 692.0 -124.5Q701 -120 706 -118Q711 -115 720.5 -110.5Q730 -106 737 -113Q745 -121 742.5 -130.0Q740 -139 730 -144Q726 -147 715.5 -152.0Q705 -157 695.0 -161.5Q685 -166 680 -166Q674 -166 665.0 -159.5Q656 -153 641 -143Q624 -132 619.0 -121.5Q614 -111 622 -104Z" fill="#ed520a" stroke="none" transform="scale(1,-1) translate(0,-256)" /><path d="M612 0Q618 10 628.5 8.0Q639 6 649 1Q659 -3 672.0 -7.0Q685 -11 685 -11Q685 -11 692.0 -6.0Q699 -1 707 4Q717 11 727.5 16.5Q738 22 749 10Q757 0 748.5 -12.0Q740 -24 735 -29Q732 -32 722.0 -40.5Q712 -49 701.5 -56.5Q691 -64 686 -63Q680 -62 662.5 -55.0Q645 -48 629 -39Q597 -21 612 0Z" fill="#ed520a" stroke="none" transform="scale(1,-1) translate(0,-256)" /><path d="M665 110Q665 110 655.5 113.0Q646 116 634.5 119.0Q623 122 617 123Q608 125 598.0 124.0Q588 123 583 112Q577 98 584.5 90.5Q592 83 599 79Q607 75 624.0 71.0Q641 67 657.0 64.0Q673 61 677 62Q681 63 689.5 71.5Q698 80 707.0 89.5Q716 99 721 104Q729 111 734.5 123.5Q740 136 732 146Q724 156 714.0 152.5Q704 149 697 143Q693 139 685.5 131.0Q678 123 671.5 116.5Q665 110 665 110Z" fill="#ed520a" stroke="none" transform="scale(1,-1) translate(0,-256)" /><path d="M609 243Q609 243 599.0 242.0Q589 241 576.5 240.0Q564 239 558 238Q530 233 530 213Q529 204 535.5 199.0Q542 194 549 194Q559 194 578.0 194.5Q597 195 615.0 197.0Q633 199 638 201Q643 204 650.5 218.5Q658 233 665.0 250.5Q672 268 676 278Q680 291 681.5 302.5Q683 314 669 319Q655 324 647.5 316.5Q640 309 635 298Q632 291 625.5 277.5Q619 264 614.0 253.5Q609 243 609 243Z" fill="#ed520a" stroke="none" transform="scale(1,-1) translate(0,-256)" /><path d="M517 377Q517 377 519.0 388.0Q521 399 523.5 412.0Q526 425 526 429Q528 439 534.5 447.0Q541 455 555 452Q569 450 571.0 439.0Q573 428 572 417Q571 410 568.5 392.5Q566 375 562.5 359.0Q559 343 557 339Q554 335 539.0 330.0Q524 325 506.5 320.0Q489 315 481 313Q467 308 457.0 312.0Q447 316 444 324Q442 332 446.0 342.0Q450 352 462 355Q467 357 480.0 362.0Q493 367 504.5 371.5Q516 376 517 377Z" fill="#ed520a" stroke="none" transform="scale(1,-1) translate(0,-256)" /><path d="M402 470Q402 470 393.0 462.5Q384 455 374 448Q364 440 357.5 427.5Q351 415 357 406Q363 397 376.5 399.5Q390 402 401 409Q411 416 426.0 427.5Q441 439 443 440Q444 441 445.5 453.0Q447 465 448.0 479.0Q449 493 449 501Q449 513 447.5 527.5Q446 542 432 543Q417 544 412.5 535.5Q408 527 407 518Q406 513 405.0 501.0Q404 489 403.0 479.5Q402 470 402 470Z" fill="#ed520a" stroke="none" transform="scale(1,-1) translate(0,-256)" /><path d="M284 596Q300 600 306.0 588.0Q312 576 315 569Q316 564 319.5 550.5Q323 537 326.5 523.0Q330 509 330 503Q330 501 324.0 492.5Q318 484 311.0 474.5Q304 465 301 461Q297 457 290.0 449.0Q283 441 274.0 437.0Q265 433 256 441Q242 453 249.5 466.5Q257 480 261 486Q265 491 272.5 502.5Q280 514 280 514Q280 514 278.0 525.0Q276 536 271 551Q267 566 268.0 579.5Q269 593 284 596Z" fill="#ed520a" stroke="none" transform="scale(1,-1) translate(0,-256)" /><path d="M146 565Q156 571 166.5 567.0Q177 563 183 555Q187 549 193.0 538.0Q199 527 203.5 516.5Q208 506 208 503Q208 495 200.5 474.5Q193 454 190 443Q186 431 176.5 420.0Q167 409 153 414Q138 420 139.0 434.0Q140 448 143 456Q146 461 149.5 471.5Q153 482 156.5 491.0Q160 500 160 500Q160 500 155.5 508.0Q151 516 144 526Q136 537 138.0 548.5Q140 560 146 565Z" fill="#ed520a" stroke="none" transform="scale(1,-1) translate(0,-256)" /><path d="M115 447Q114 452 106.5 459.0Q99 466 91 465Q73 464 72 446Q72 439 76.5 435.0Q81 431 81 431Q81 431 78.5 420.0Q76 409 75 404Q73 396 71.5 383.5Q70 371 83 368Q97 364 101.0 372.0Q105 380 106 386Q110 403 113.5 421.0Q117 439 115 447Z" fill="#ed520a" stroke="none" transform="scale(1,-1) translate(0,-256)" /></svg>