<?xml version="1.0" encoding="utf-8" ?>
<svg baseProfile="full" height="256" version="1.1" width="256" xmlns="http://www.w3.org/2000/svg" xmlns:ev="http://www.w3.org/2001/xml-events" xmlns:xlink="http://www.w3.org/1999/xlink"><defs /><path d="M691 -213Q692 -210 696.5 -181.0Q701 -152 704.0 -105.0Q707 -58 703.0 1.5Q699 61 682.0 127.0Q665 193 630.0 259.0Q595 325 536 384Q374 547 235 532Q197 528 168.5 514.0Q140 500 121.0 484.0Q102 468 92.0 455.5Q82 443 81 442L99 407Q99 407 109.0 419.0Q119 431 137.5 447.5Q156 464 181.5 477.5Q207 491 239 494Q360 508 509 358Q564 302 597.0 239.0Q630 176 645.5 112.5Q661 49 665.0 -8.5Q669 -66 666.0 -111.5Q663 -157 658.5 -183.0Q654 -209 654 -210Z" fill="#979892" stroke="none" transform="scale(1,-1) translate(0,-256)" /><path d="M1181 380 1190 410Q1190 410 1164.0 428.5Q1138 447 1097.0 477.5Q1056 508 1007.5 544.5Q959 581 911.0 618.5Q863 656 825 688Q783 725 737.5 764.5Q692 804 652.5 838.5Q613 873 589.0 894.5Q565 916 564 916L538 900Q538 899 563.5 876.5Q589 854 629.0 818.5Q669 783 715.5 742.0Q762 701 805 665Q843 632 892.0 594.0Q941 556 991.5 518.5Q1042 481 1084.5 449.5Q1127 418 1153.5 399.0Q1180 380 1181 380Z" fill="#979892" stroke="none" transform="scale(1,-1) translate(0,-256)" /></svg>