<?xml version="1.0" encoding="utf-8" ?>
<svg baseProfile="full" height="256" version="1.1" width="256" xmlns="http://www.w3.org/2000/svg" xmlns:ev="http://www.w3.org/2001/xml-events" xmlns:xlink="http://www.w3.org/1999/xlink"><defs /><path d="M273 754Q381 850 501.5 884.0Q622 918 745.5 887.0Q869 856 987 757Q1023 726 1059.5 691.0Q1096 656 1111 610Q1131 552 1128.5 487.5Q1126 423 1106.5 359.0Q1087 295 1056.5 236.5Q1026 178 990 131Q939 64 872.0 19.0Q805 -26 730.0 -51.5Q655 -77 579.5 -84.5Q504 -92 435.0 -84.5Q366 -77 311.0 -56.0Q256 -35 223 -3Q150 69 116.5 152.0Q83 235 83.0 321.0Q83 407 108.0 488.0Q133 569 176.0 637.5Q219 706 273 754Z" fill="#f1edec" stroke="none" transform="scale(1,-1) translate(0,-256)" /></svg>