<?xml version="1.0" encoding="utf-8" ?>
<svg baseProfile="full" height="256" version="1.1" width="256" xmlns="http://www.w3.org/2000/svg" xmlns:ev="http://www.w3.org/2001/xml-events" xmlns:xlink="http://www.w3.org/1999/xlink"><defs /><path d="M759 571Q759 571 776.0 583.0Q793 595 820.5 613.5Q848 632 880.5 651.5Q913 671 945.5 686.0Q978 701 1004.5 705.5Q1031 710 1046 699Q1069 683 1093.0 649.5Q1117 616 1138.5 573.0Q1160 530 1174.0 483.5Q1188 437 1192 395Q1194 363 1189.5 314.0Q1185 265 1170.5 208.0Q1156 151 1129.0 94.0Q1102 37 1060 -11Q1014 -64 959.0 -104.0Q904 -144 832.5 -168.0Q761 -192 667 -196Q585 -200 516.0 -181.5Q447 -163 393.0 -133.5Q339 -104 301.0 -74.0Q263 -44 243.0 -23.5Q223 -3 223 -3Z" fill="#d7ccc6" stroke="none" transform="scale(1,-1) translate(0,-256)" /></svg>