<?xml version="1.0" encoding="utf-8" ?>
<svg baseProfile="full" height="256" version="1.1" width="256" xmlns="http://www.w3.org/2000/svg" xmlns:ev="http://www.w3.org/2001/xml-events" xmlns:xlink="http://www.w3.org/1999/xlink"><defs /><path d="M149 260 641 -4Q641 -4 665.5 7.5Q690 19 731.0 38.5Q772 58 822.0 81.5Q872 105 922.0 129.0Q972 153 1015.5 174.0Q1059 195 1087.5 209.0Q1116 223 1121 226Q1139 237 1159.0 220.0Q1179 203 1182 171Q1185 146 1175.5 108.5Q1166 71 1144.0 29.5Q1122 -12 1086.5 -50.0Q1051 -88 1002.0 -114.5Q953 -141 889 -147Q829 -153 783.0 -144.5Q737 -136 705.5 -121.5Q674 -107 658.0 -95.5Q642 -84 642 -84Q642 -84 625.0 -95.5Q608 -107 574.0 -121.0Q540 -135 490.0 -142.0Q440 -149 375 -139Q299 -128 248.0 -98.0Q197 -68 166.0 -29.0Q135 10 119.0 50.5Q103 91 97.0 125.0Q91 159 91 177Q90 204 104.5 222.5Q119 241 134.0 250.5Q149 260 149 260Z" fill="#f17fae" stroke="none" transform="scale(1,-1) translate(0,-256)" /></svg>