<?xml version="1.0" encoding="utf-8" ?>
<svg baseProfile="full" height="256" version="1.1" width="256" xmlns="http://www.w3.org/2000/svg" xmlns:ev="http://www.w3.org/2001/xml-events" xmlns:xlink="http://www.w3.org/1999/xlink"><defs /><path d="M391 403Q475 367 593 361Q606 360 606 347Q606 332 592 333Q509 337 441.0 356.0Q373 375 329.5 404.0Q286 433 277 468Q275 475 279.0 480.5Q283 486 290 486Q301 486 303 476Q314 436 391 403Z" fill="#56bfe6" stroke="none" transform="scale(1,-1) translate(0,-256)" /><path d="M391.0 131.031005859375Q475.0 95.031005859375 593.0 89.031005859375Q606.0 88.031005859375 606.0 75.031005859375Q606.0 60.031005859375 592.0 61.031005859375Q509.0 65.031005859375 441.0 84.031005859375Q373.0 103.031005859375 329.5 132.031005859375Q286.0 161.031005859375 277.0 196.031005859375Q275.0 203.031005859375 279.0 208.531005859375Q283.0 214.031005859375 290.0 214.031005859375Q301.0 214.031005859375 303.0 204.031005859375Q314.0 164.031005859375 391.0 131.031005859375Z" fill="#56bfe6" stroke="none" transform="scale(1,-1) translate(0,-256)" /><path d="M391.0 -140.93800354003906Q475.0 -176.93800354003906 593.0 -182.93800354003906Q606.0 -183.93800354003906 606.0 -196.93800354003906Q606.0 -211.93800354003906 592.0 -210.93800354003906Q509.0 -206.93800354003906 441.0 -187.93800354003906Q373.0 -168.93800354003906 329.5 -139.93800354003906Q286.0 -110.93800354003906 277.0 -75.93800354003906Q275.0 -68.93800354003906 279.0 -63.43800354003906Q283.0 -57.93800354003906 290.0 -57.93800354003906Q301.0 -57.93800354003906 303.0 -67.93800354003906Q314.0 -107.93800354003906 391.0 -140.93800354003906Z" fill="#56bfe6" stroke="none" transform="scale(1,-1) translate(0,-256)" /></svg>