<?xml version="1.0" encoding="utf-8" ?>
<svg baseProfile="full" height="256" version="1.1" width="256" xmlns="http://www.w3.org/2000/svg" xmlns:ev="http://www.w3.org/2001/xml-events" xmlns:xlink="http://www.w3.org/1999/xlink"><defs /><path d="M985.9505615234375 684.1940307617188 969.0880737304688 700.6957397460938 689.3309326171875 414.9427032470703 706.1934204101562 398.4409942626953Z" fill="#ff7043" stroke="none" transform="scale(1,-1) translate(0,-256)" /><path d="M706 487Q762 439 781.0 400.0Q800 361 794.5 330.5Q789 300 771.5 276.5Q754 253 736.5 237.0Q719 221 714 210Q710 201 708.5 192.0Q707 183 710 173Q713 162 703 157Q702 157 701.5 157.0Q701 157 701 156Q693 153 687 159Q671 174 640.5 170.5Q610 167 580 136Q550 103 557.0 76.5Q564 50 583 29Q590 20 597.5 15.5Q605 11 605 5Q605 -1 601.0 -3.0Q597 -5 592 -7Q579 -13 568.5 -31.0Q558 -49 550 -67Q525 -121 483.0 -151.0Q441 -181 375 -171Q320 -162 274.5 -138.0Q229 -114 193.0 -81.0Q157 -48 132.0 -12.0Q107 24 93 55Q65 116 82.5 165.5Q100 215 143 249Q164 264 186.0 274.5Q208 285 233 295Q246 300 251.0 306.5Q256 313 257 321Q258 335 263.0 338.0Q268 341 273 340Q278 338 283.0 335.0Q288 332 294 330Q312 324 332.0 330.5Q352 337 371 359Q389 379 391.0 395.5Q393 412 389.0 423.0Q385 434 384 437Q379 446 384.0 454.5Q389 463 399 460Q413 456 429.0 467.0Q445 478 464.5 494.0Q484 510 507.5 525.0Q531 540 560.5 545.0Q590 550 626.0 537.5Q662 525 706 487Z" fill="#ff7043" stroke="none" transform="scale(1,-1) translate(0,-256)" /><path d="M1012 666Q995 643 977.0 637.5Q959 632 944.5 636.0Q930 640 923 644Q906 655 897.5 660.0Q889 665 887.5 674.0Q886 683 890 704Q896 736 919.0 755.0Q942 774 971.5 784.0Q1001 794 1026.0 800.5Q1051 807 1061 816Q1054 822 1045.5 831.5Q1037 841 1038 859Q1038 882 1057.5 894.0Q1077 906 1095 905Q1120 904 1146.0 888.5Q1172 873 1187.5 847.5Q1203 822 1198 791Q1192 755 1167.5 743.5Q1143 732 1109 723Q1079 715 1057.0 705.5Q1035 696 1012 666Z" fill="#ff7043" stroke="none" transform="scale(1,-1) translate(0,-256)" /><path d="M491 767H492Q491 766 486.5 783.5Q482 801 482 826Q482 848 488.0 853.0Q494 858 499 858Q505 859 507.0 851.5Q509 844 512 839Q514 832 521.0 839.5Q528 847 538 854Q551 863 568.0 861.5Q585 860 606 828L1091 35L1040 20L557 808Z" fill="#ff7043" stroke="none" transform="scale(1,-1) translate(0,-256)" /></svg>