<?xml version="1.0" encoding="utf-8" ?>
<svg baseProfile="full" height="256" version="1.1" width="256" xmlns="http://www.w3.org/2000/svg" xmlns:ev="http://www.w3.org/2001/xml-events" xmlns:xlink="http://www.w3.org/1999/xlink"><defs /><path d="M1131 763Q1143 761 1159.5 766.0Q1176 771 1178 793Q1179 810 1171.0 817.0Q1163 824 1152.5 824.5Q1142 825 1136 821Q1127 815 1132 809Q1137 804 1143 808Q1143 808 1151.5 809.0Q1160 810 1162 798Q1162 795 1160.5 790.0Q1159 785 1152 780Q1140 772 1129.0 773.5Q1118 775 1111.0 779.5Q1104 784 1104 784Q1104 784 1108.5 775.5Q1113 767 1131 763Z" fill="#37474f" stroke="none" transform="scale(1,-1) translate(0,-256)" /><path d="M509 30Q507 26 503 24V23Q492 19 480.0 27.0Q468 35 461.0 48.0Q454 61 457 73Q458 92 470.0 108.5Q482 125 496.5 140.5Q511 156 520.5 171.0Q530 186 525 200Q518 189 509.5 193.0Q501 197 499 205Q499 208 501.0 213.0Q503 218 510 222Q514 224 520.0 221.0Q526 218 526 218Q546 205 541.5 183.0Q537 161 514 133Q509 127 498.5 115.0Q488 103 480.0 89.0Q472 75 471.0 62.5Q470 50 483 42Q487 53 499 52V51Q506 50 509.0 43.0Q512 36 509 30Z" fill="#37474f" stroke="none" transform="scale(1,-1) translate(0,-256)" /><path d="M248 273Q245 271 244 267H243Q241 257 249.0 247.0Q257 237 270.0 232.0Q283 227 293 231Q309 234 322.5 246.5Q336 259 348.5 273.5Q361 288 373.0 297.5Q385 307 398 305Q389 298 393.5 291.0Q398 284 406 283Q408 282 412.5 284.5Q417 287 419 294Q420 298 417.0 303.0Q414 308 414 308Q400 325 381.0 318.5Q362 312 340 288Q333 281 319.0 266.5Q305 252 289.5 244.5Q274 237 262 252Q271 256 269 267L268 266Q266 273 259.5 274.5Q253 276 248 273Z" fill="#37474f" stroke="none" transform="scale(1,-1) translate(0,-256)" /></svg>