<?xml version="1.0" encoding="utf-8" ?>
<svg baseProfile="full" height="256" version="1.1" width="256" xmlns="http://www.w3.org/2000/svg" xmlns:ev="http://www.w3.org/2001/xml-events" xmlns:xlink="http://www.w3.org/1999/xlink"><defs /><path d="M522 203Q522 203 504.5 192.0Q487 181 465.0 158.0Q443 135 426.0 98.0Q409 61 409 8Q409 -47 436.0 -96.5Q463 -146 512.5 -178.0Q562 -210 629 -211Q696 -212 748.0 -186.0Q800 -160 830.0 -112.5Q860 -65 862 -1Q863 52 847.5 90.5Q832 129 810.5 153.5Q789 178 773.0 190.0Q757 202 757 202Q757 202 757.0 230.5Q757 259 757.0 306.5Q757 354 757.5 411.5Q758 469 758.5 528.0Q759 587 759.0 638.0Q759 689 759.0 723.5Q759 758 759 766Q759 781 757.5 805.0Q756 829 746.0 853.5Q736 878 711.5 894.5Q687 911 642 911Q596 911 571.0 895.0Q546 879 535.5 855.0Q525 831 523.5 807.0Q522 783 522 767Q522 757 522.0 722.0Q522 687 522.0 636.0Q522 585 522.0 526.5Q522 468 522.0 411.0Q522 354 522.0 306.5Q522 259 522.0 231.0Q522 203 522 203Z" fill="#a8d0d6" stroke="none" transform="scale(1,-1) translate(0,-256)" /></svg>