<?xml version="1.0" encoding="utf-8" ?>
<svg baseProfile="full" height="256" version="1.1" width="256" xmlns="http://www.w3.org/2000/svg" xmlns:ev="http://www.w3.org/2001/xml-events" xmlns:xlink="http://www.w3.org/1999/xlink"><defs /><path d="M586 785Q607 785 620.5 783.5Q634 782 634 762Q634 744 621.0 741.5Q608 739 586 739Q563 739 549.0 741.5Q535 744 536 763Q537 781 550.0 783.0Q563 785 586 785Z" fill="#4b4a51" stroke="none" transform="scale(1,-1) translate(0,-256)" /><path d="M584 658Q610 658 622.5 655.0Q635 652 634 633Q634 615 620.0 614.0Q606 613 584 613Q562 612 548.5 614.0Q535 616 536 636Q537 653 548.5 655.5Q560 658 584 658Z" fill="#4b4a51" stroke="none" transform="scale(1,-1) translate(0,-256)" /><path d="M586 533Q607 533 620.5 531.5Q634 530 634 510Q634 491 620.5 489.0Q607 487 586 487Q563 487 549.0 489.5Q535 492 536 510Q537 529 550.0 531.0Q563 533 586 533Z" fill="#4b4a51" stroke="none" transform="scale(1,-1) translate(0,-256)" /><path d="M585 404Q610 404 622.5 401.5Q635 399 635 379Q635 364 620.5 361.0Q606 358 584 358Q562 358 549.0 360.5Q536 363 537 382Q537 400 549.0 402.0Q561 404 585 404Z" fill="#4b4a51" stroke="none" transform="scale(1,-1) translate(0,-256)" /><path d="M587 273Q609 273 622.5 271.5Q636 270 635 250Q635 231 622.0 229.0Q609 227 587 227Q564 227 550.0 229.5Q536 232 537 250Q538 269 551.0 271.0Q564 273 587 273Z" fill="#4b4a51" stroke="none" transform="scale(1,-1) translate(0,-256)" /></svg>