<?xml version="1.0" encoding="utf-8" ?>
<svg baseProfile="full" height="256" version="1.1" width="256" xmlns="http://www.w3.org/2000/svg" xmlns:ev="http://www.w3.org/2001/xml-events" xmlns:xlink="http://www.w3.org/1999/xlink"><defs /><path d="M682 506 702 543Q702 543 702.0 563.5Q702 584 702.5 614.0Q703 644 703.5 675.5Q704 707 704.0 730.5Q704 754 704 759Q703 773 699.5 789.0Q696 805 683.5 816.0Q671 827 644 827Q618 828 605.0 817.5Q592 807 587.5 792.0Q583 777 583 764Q582 756 582.0 731.5Q582 707 582.0 675.5Q582 644 581.5 614.0Q581 584 581.0 564.5Q581 545 581 545Z" fill="#ffffff" stroke="none" transform="scale(1,-1) translate(0,-256)" /></svg>