<?xml version="1.0" encoding="utf-8" ?>
<svg baseProfile="full" height="256" version="1.1" width="256" xmlns="http://www.w3.org/2000/svg" xmlns:ev="http://www.w3.org/2001/xml-events" xmlns:xlink="http://www.w3.org/1999/xlink"><defs /><path d="M641 -19Q720 -19 788.5 4.0Q857 27 913.5 64.0Q970 101 1015.0 144.0Q1060 187 1092.5 229.0Q1125 271 1145.5 303.5Q1166 336 1174 351Q1167 365 1148.0 397.5Q1129 430 1098.0 472.0Q1067 514 1023.5 557.0Q980 600 923.0 636.5Q866 673 795.5 696.0Q725 719 641 719Q556 719 485.5 696.0Q415 673 358.0 636.5Q301 600 257.5 557.0Q214 514 183.0 472.0Q152 430 133.0 397.5Q114 365 107 351Q115 336 135.5 303.5Q156 271 188.5 229.0Q221 187 266.0 144.0Q311 101 367.5 64.0Q424 27 492.5 4.0Q561 -19 641 -19Z" fill="#fafafa" stroke="none" transform="scale(1,-1) translate(0,-256)" /></svg>