<?xml version="1.0" encoding="utf-8" ?>
<svg baseProfile="full" height="256" version="1.1" width="256" xmlns="http://www.w3.org/2000/svg" xmlns:ev="http://www.w3.org/2001/xml-events" xmlns:xlink="http://www.w3.org/1999/xlink"><defs /><path d="M1126 1Q1126 -8 1133 -8Q1140 9 1141 30Q1142 51 1140.5 98.0Q1139 145 1115 211Q1121 251 1121.5 304.5Q1122 358 1116.0 417.5Q1110 477 1098.0 535.5Q1086 594 1069.0 644.5Q1052 695 1029 730Q1016 735 1010.5 724.5Q1005 714 1009 705Q1039 627 1054.0 550.0Q1069 473 1073.5 405.5Q1078 338 1075.5 286.5Q1073 235 1069 208Q1062 168 1042.0 148.0Q1022 128 997.5 121.0Q973 114 951.5 114.5Q930 115 922 117Q901 120 889.5 131.5Q878 143 876 166Q874 176 872.0 205.0Q870 234 867.0 273.0Q864 312 861.5 350.5Q859 389 857.0 418.5Q855 448 854 458Q853 476 860.0 489.0Q867 502 874 511Q878 516 879 519Q886 529 882.0 537.0Q878 545 869 546Q863 547 852.0 548.0Q841 549 834 548Q828 547 818.0 542.5Q808 538 805 522Q803 508 805.0 481.0Q807 454 812 400Q815 362 820.0 307.5Q825 253 831 177Q834 134 814.5 116.0Q795 98 766 89Q736 81 709.0 78.5Q682 76 659 82Q653 83 649.5 80.0Q646 77 647 72Q668 56 686.5 56.0Q705 56 705 56Q680 24 672.5 0.0Q665 -24 668 -41Q678 -44 680 -37Q690 -1 714.5 11.5Q739 24 772 32Q797 38 823.5 38.0Q850 38 883.0 38.5Q916 39 961 46Q983 50 997.0 58.5Q1011 67 1029 73Q1071 88 1091.5 83.0Q1112 78 1119.0 57.0Q1126 36 1126 1Z" fill="#b55e19" stroke="none" transform="scale(1,-1) translate(0,-256)" /><path d="M625 99Q622 113 618.5 130.5Q615 148 613 162Q613 164 612 169Q609 185 603.5 222.0Q598 259 593.0 306.0Q588 353 586.0 399.5Q584 446 588 480Q589 492 587.5 502.0Q586 512 570 512Q562 512 549.0 510.0Q536 508 519 497Q515 494 515.5 487.0Q516 480 519 477Q523 474 530.5 466.5Q538 459 540 438Q543 402 550.5 319.5Q558 237 580 131Q585 111 574.0 98.0Q563 85 552 79Q535 71 505.5 66.0Q476 61 443 65Q433 66 433 58Q459 42 488.5 41.0Q518 40 545.5 48.5Q573 57 594.0 70.5Q615 84 624 99Q625 98 625 97Q625 98 625 99Z" fill="#b55e19" stroke="none" transform="scale(1,-1) translate(0,-256)" /><path d="M395 95Q394 101 389.5 127.5Q385 154 378.5 192.0Q372 230 365.0 271.5Q358 313 352.0 350.0Q346 387 342.0 411.5Q338 436 338 439Q336 449 327.5 458.5Q319 468 305 463Q298 460 289.0 455.0Q280 450 272 445Q268 442 267.5 436.0Q267 430 269 424Q272 417 279.5 414.0Q287 411 295.0 406.0Q303 401 308 387Q308 387 321.0 321.5Q334 256 353 127Q355 111 349.0 103.5Q343 96 335 92Q301 75 273.0 82.0Q245 89 229 98Q223 101 219 96Q245 66 273.5 58.5Q302 51 327.0 56.5Q352 62 370.0 74.0Q388 86 394 95Q394 94 394 94Q395 94 395.0 94.5Q395 95 395 95Z" fill="#b55e19" stroke="none" transform="scale(1,-1) translate(0,-256)" /></svg>