<?xml version="1.0" encoding="utf-8" ?>
<svg baseProfile="full" height="256" version="1.1" width="256" xmlns="http://www.w3.org/2000/svg" xmlns:ev="http://www.w3.org/2001/xml-events" xmlns:xlink="http://www.w3.org/1999/xlink"><defs /><path d="M1115 211Q1122 256 1121.5 318.0Q1121 380 1112.5 448.0Q1104 516 1088.0 580.0Q1072 644 1049.5 693.0Q1027 742 998 766Q967 792 939.0 797.5Q911 803 886.0 796.5Q861 790 837 778Q826 774 805.0 774.5Q784 775 770 787Q756 798 729.0 815.5Q702 833 667 832Q637 831 619.0 821.0Q601 811 586.5 797.0Q572 783 556.0 771.5Q540 760 516 755Q495 751 481.5 753.0Q468 755 456.5 758.0Q445 761 430.0 762.0Q415 763 391 758Q364 752 348.5 738.0Q333 724 319.0 707.5Q305 691 283.5 678.0Q262 665 224 661Q195 658 174.5 641.5Q154 625 141.5 601.5Q129 578 123.0 555.5Q117 533 118 519Q122 416 138.5 329.5Q155 243 175.0 184.5Q195 126 211 105Q238 71 267.5 61.0Q297 51 323.5 56.0Q350 61 368.5 73.5Q387 86 394 95Q418 59 452.5 48.0Q487 37 522.0 43.0Q557 49 585.0 65.0Q613 81 624 99Q639 73 658.0 64.5Q677 56 691.0 56.0Q705 56 705 56Q677 22 670.0 -4.0Q663 -30 669.0 -47.5Q675 -65 686.5 -74.5Q698 -84 706 -85Q720 -86 740.5 -84.5Q761 -83 773 -81Q852 -66 909.0 -65.5Q966 -65 1003.0 -68.5Q1040 -72 1060 -68Q1100 -60 1119.5 -33.0Q1139 -6 1141 30Q1142 51 1140.5 98.0Q1139 145 1115 211Z" fill="#ffca28" stroke="none" transform="scale(1,-1) translate(0,-256)" /></svg>