<?xml version="1.0" encoding="utf-8" ?>
<svg baseProfile="full" height="256" version="1.1" width="256" xmlns="http://www.w3.org/2000/svg" xmlns:ev="http://www.w3.org/2001/xml-events" xmlns:xlink="http://www.w3.org/1999/xlink"><defs /><path d="M305 33 308 -45Q308 -45 300.0 -56.5Q292 -68 284.0 -80.5Q276 -93 276 -95Q276 -96 295.0 -87.0Q314 -78 340.0 -65.0Q366 -52 388.5 -41.5Q411 -31 418 -29Q425 -27 445.0 -20.5Q465 -14 488.5 -6.5Q512 1 528.5 6.5Q545 12 545 12L556 28Q556 28 539.5 29.0Q523 30 511 29Q502 28 487.0 26.5Q472 25 459.0 23.5Q446 22 446 22Q446 22 436.0 28.5Q426 35 412.0 43.5Q398 52 386.5 60.0Q375 68 372 70Q369 73 357.5 80.0Q346 87 332.0 95.5Q318 104 307.5 110.5Q297 117 297 117Q297 117 296.5 103.0Q296 89 296.5 73.5Q297 58 298 53Q300 47 302.5 40.0Q305 33 305 33Z" fill="#717a7c" stroke="none" transform="scale(1,-1) translate(0,-256)" /><path d="M794 -20Q794 -20 803.5 -7.5Q813 5 824.0 21.0Q835 37 841 47Q845 54 853.0 68.0Q861 82 869.0 97.5Q877 113 882.5 124.0Q888 135 888 135L869 361Q869 361 875.5 358.0Q882 355 904 332Q908 328 918.0 311.5Q928 295 941.0 274.0Q954 253 967 237Q979 221 989.5 202.0Q1000 183 1006.5 169.5Q1013 156 1013 156Q1013 156 1020.5 150.5Q1028 145 1040 133Q1052 121 1067.0 93.0Q1082 65 1092 46Q1097 36 1110.0 14.5Q1123 -7 1138.0 -30.5Q1153 -54 1163.5 -70.5Q1174 -87 1174 -87Q1174 -87 1158.0 -95.5Q1142 -104 1124.0 -113.5Q1106 -123 1100 -126Q1097 -127 1079.5 -128.5Q1062 -130 1038.0 -132.5Q1014 -135 992.0 -136.5Q970 -138 958 -140Q949 -141 920.0 -143.0Q891 -145 853.5 -147.0Q816 -149 779.0 -151.0Q742 -153 715.0 -154.5Q688 -156 682 -156Q675 -157 650.5 -156.0Q626 -155 592.5 -153.5Q559 -152 524.5 -150.0Q490 -148 464.0 -146.0Q438 -144 429 -143Q418 -141 399.0 -138.0Q380 -135 360.5 -131.0Q341 -127 327.0 -123.5Q313 -120 312 -118Q311 -115 316.5 -109.0Q322 -103 327.5 -98.0Q333 -93 333 -93Z" fill="#717a7c" stroke="none" transform="scale(1,-1) translate(0,-256)" /></svg>