<?xml version="1.0" encoding="utf-8" ?>
<svg baseProfile="full" height="256" version="1.1" width="256" xmlns="http://www.w3.org/2000/svg" xmlns:ev="http://www.w3.org/2001/xml-events" xmlns:xlink="http://www.w3.org/1999/xlink"><defs /><path d="M275 125Q274 128 264.0 121.5Q254 115 242 101Q238 96 216.5 71.5Q195 47 166.0 13.5Q137 -20 109 -49Q88 -72 83.0 -84.0Q78 -96 79.5 -100.0Q81 -104 81 -104Q81 -104 83.0 -103.5Q85 -103 90 -101Q93 -100 111.0 -93.0Q129 -86 152.0 -77.5Q175 -69 192.0 -62.5Q209 -56 209 -56L271 25Q271 25 273.0 38.5Q275 52 276 67Q277 83 276.0 103.5Q275 124 275 125Z" fill="#c0c0c0" stroke="none" transform="scale(1,-1) translate(0,-256)" /><path d="M333 -93Q330 -92 343.0 -83.0Q356 -74 375.0 -61.5Q394 -49 412.5 -37.5Q431 -26 440 -22Q452 -16 475.5 -8.5Q499 -1 518.0 5.0Q537 11 537 11Q537 11 542.5 16.5Q548 22 556 28Q561 33 571.5 44.5Q582 56 593.0 69.0Q604 82 611 90Q623 102 633.0 114.0Q643 126 651 133Q659 140 669.5 142.0Q680 144 691 149Q702 154 717.5 165.0Q733 176 739 183Q743 187 760.0 198.5Q777 210 793.5 221.5Q810 233 813 237Q819 247 834 293Q842 317 851.5 337.0Q861 357 867 360Q871 362 876.0 354.0Q881 346 885.5 334.5Q890 323 893 317Q893 316 896.0 302.0Q899 288 902.5 270.5Q906 253 909.0 239.0Q912 225 912 224Q914 218 920.0 200.5Q926 183 932.5 163.5Q939 144 942.5 129.0Q946 114 943 113Q939 112 927.0 117.5Q915 123 902.0 129.0Q889 135 882 135Q877 135 858.5 125.5Q840 116 817.5 103.5Q795 91 777.5 80.5Q760 70 757 67Q751 60 730.0 56.0Q709 52 698 46Q690 42 673.5 30.5Q657 19 643.5 8.0Q630 -3 631 -6Q632 -9 645.0 -10.0Q658 -11 676.0 -11.5Q694 -12 709 -13Q724 -13 745.0 -14.0Q766 -15 781.5 -15.5Q797 -16 797 -16L754 -84L564 -112Q564 -112 533.0 -111.5Q502 -111 440 -107Q378 -103 355.5 -98.0Q333 -93 333 -93Z" fill="#c0c0c0" stroke="none" transform="scale(1,-1) translate(0,-256)" /></svg>