<?xml version="1.0" encoding="utf-8" ?>
<svg baseProfile="full" height="256" version="1.1" width="256" xmlns="http://www.w3.org/2000/svg" xmlns:ev="http://www.w3.org/2001/xml-events" xmlns:xlink="http://www.w3.org/1999/xlink"><defs /><path d="M421 197V498H364V356Q364 331 367 273H366L235 498H154V197H211V339Q211 365 207 425H209L340 197Z" fill="#fafafa" stroke="none" transform="scale(1,-1) translate(0,-256)" /><path d="M660.5619964599609 197.0V250.0H550.5619964599609V328.0H652.5619964599609V380.0H550.5619964599609V446.0H660.5619964599609V498.0H486.56199645996094V197.0Z" fill="#fafafa" stroke="none" transform="scale(1,-1) translate(0,-256)" /><path d="M1027 197 1103 498H1041L1002 334Q998 318 994 295Q990 272 987 255Q985 273 981 295Q976 320 974 330L930 498H869L826 330Q822 317 817 291Q813 267 812 255Q807 288 797 334L758 498H696L773 197H845L886 355Q888 366 893 390Q898 415 899 426Q900 416 906 390Q911 365 913 355L954 197Z" fill="#fafafa" stroke="none" transform="scale(1,-1) translate(0,-256)" /></svg>