<?xml version="1.0" encoding="utf-8" ?>
<svg baseProfile="full" height="256" version="1.1" width="256" xmlns="http://www.w3.org/2000/svg" xmlns:ev="http://www.w3.org/2001/xml-events" xmlns:xlink="http://www.w3.org/1999/xlink"><defs /><path d="M486 661 484 654 321 -71 329 -73Q426 -101 485 -107Q522 -111 593 -97Q669 -82 707 -89Q714 -90 726 -93Q804 -107 855 -92Q900 -79 945 -57L952 -54L756 661ZM501 642H742L930 -43Q890 -62 849 -74Q803 -88 729 -74Q717 -72 710 -71Q669 -63 590 -79Q521 -92 487 -89Q432 -83 343 -58Z" fill="#611a5e" stroke="none" transform="scale(1,-1) translate(0,-256)" /></svg>