<?xml version="1.0" encoding="utf-8" ?>
<svg baseProfile="full" height="256" version="1.1" width="256" xmlns="http://www.w3.org/2000/svg" xmlns:ev="http://www.w3.org/2001/xml-events" xmlns:xlink="http://www.w3.org/1999/xlink"><defs /><path d="M637 664H643Q653 664 660.0 671.0Q667 678 667 688V718H613V688Q613 678 620.0 671.0Q627 664 637 664Z" fill="#c9c9c9" stroke="none" transform="scale(1,-1) translate(0,-256)" /><path d="M569.4586029052734 758.2781372070312 703.5559387207031 758.3329315185547Q713.2276763916016 758.3368835449219 720.2823867797852 765.7896194458008Q727.3370971679688 773.2423553466797 727.3328247070312 783.6982879638672Q727.3284454345703 794.4156188964844 720.2676467895508 801.8625869750977Q713.2068481445312 809.3095550537109 703.5351104736328 809.3056030273438L569.4377746582031 809.2508087158203Q559.7660369873047 809.2468566894531 552.7113265991211 801.7941207885742Q545.6566162109375 794.3413848876953 545.6609954833984 783.6240539550781Q545.6652679443359 773.1681213378906 552.7260665893555 765.7211532592773Q559.786865234375 758.2741851806641 569.4586029052734 758.2781372070312Z" fill="#c9c9c9" stroke="none" transform="scale(1,-1) translate(0,-256)" /></svg>