<?xml version="1.0" encoding="utf-8" ?>
<svg baseProfile="full" height="256" version="1.1" width="256" xmlns="http://www.w3.org/2000/svg" xmlns:ev="http://www.w3.org/2001/xml-events" xmlns:xlink="http://www.w3.org/1999/xlink"><defs /><path d="M369 821 325 805 480 816 572 629 651 635 492 864ZM419 824 487 848 628 646 580 642 487 829Z" fill="#0e2b52" stroke="none" transform="scale(1,-1) translate(0,-256)" /><path d="M379 754 344 740 469 751 555 605 623 621 480 795ZM418 758 476 782 602 628 561 618 475 763Z" fill="#0e2b52" stroke="none" transform="scale(1,-1) translate(0,-256)" /><path d="M380 680 357 665 451 681 552 571 614 596 455 728ZM408 685 454 714 593 600 555 584 455 693Z" fill="#0e2b52" stroke="none" transform="scale(1,-1) translate(0,-256)" /><path d="M949 805 904 821 781 864 622 635 701 629 793 816ZM854 824 786 829 693 642 645 646 786 848Z" fill="#0e2b52" stroke="none" transform="scale(1,-1) translate(0,-256)" /><path d="M930 740 894 754 794 795 650 621 718 605 804 751ZM855 758 798 763 712 618 671 628 797 782Z" fill="#0e2b52" stroke="none" transform="scale(1,-1) translate(0,-256)" /><path d="M916 665 893 680 818 728 659 596 721 571 823 681ZM865 685 818 693 718 584 680 600 819 714Z" fill="#0e2b52" stroke="none" transform="scale(1,-1) translate(0,-256)" /><path d="M733 644Q722 644 719 641L700 623Q695 618 695.0 610.0Q695 602 700 596L833 464Q838 459 846 459H848Q855 459 860 463L918 513Q924 518 924.5 525.5Q925 533 920 539L918 542Q912 548 904 548Q897 548 892 544L867 512L859 502L852 512L763 636Q754 644 733 644ZM733 654Q743 654 754.0 650.5Q765 647 770 642L859 517L885 551Q893 558 904 558Q917 558 925 548L927 545Q935 537 934.0 525.0Q933 513 924 506L866 456Q858 449 848 449H846Q834 449 826 457L694 590Q685 598 685.0 609.5Q685 621 694 630L712 648Q718 654 733 654Z" fill="#0e2b52" stroke="none" transform="scale(1,-1) translate(0,-256)" /><path d="M559 422Q553 414 538.0 391.0Q523 368 490 320Q481 305 480 305Q463 277 446.0 247.0Q429 217 415.0 191.5Q401 166 394 153Q407 148 431.5 140.0Q456 132 478 128Q488 139 511.5 163.0Q535 187 564.0 217.0Q593 247 621 275Q634 288 653 288Q672 288 685 274Q704 254 730.5 224.0Q757 194 781.5 164.5Q806 135 817 119Q831 131 844.5 149.0Q858 167 864 176Q838 211 812.0 247.0Q786 283 764.0 314.0Q742 345 728.5 365.5Q715 386 714 390Q714 387 715 387Q714 388 710.5 391.5Q707 395 704 399Q701 402 698 404Q692 397 681.5 389.0Q671 381 656 381Q644 381 632 387Q605 403 586.0 411.0Q567 419 559 422ZM555 434Q555 434 576.5 425.5Q598 417 637 395Q646 390 656 390Q669 390 678.0 397.5Q687 405 692.5 412.5Q698 420 698 420Q698 419 704.0 412.5Q710 406 716.5 399.0Q723 392 723 392Q724 389 739.5 366.0Q755 343 777.5 311.5Q800 280 822.5 249.0Q845 218 860.5 197.0Q876 176 876 176Q876 176 866.5 162.0Q857 148 843.0 131.5Q829 115 815 106Q814 110 800.0 127.5Q786 145 765.0 170.0Q744 195 721.0 221.0Q698 247 679 268Q668 279 653 279Q638 279 628 268Q598 238 567.0 206.5Q536 175 512.5 150.5Q489 126 482 117Q461 121 437.5 128.5Q414 136 397.5 142.0Q381 148 381 148Q381 148 389.5 163.5Q398 179 411.0 203.5Q424 228 440.5 256.0Q457 284 473 310Q473 310 481.0 322.5Q489 335 501.5 353.5Q514 372 526.0 390.0Q538 408 546.0 420.5Q554 433 555 434Z" fill="#0e2b52" stroke="none" transform="scale(1,-1) translate(0,-256)" /><path d="M544 714Q510 714 500 699Q489 685 499 655Q500 651 502.0 645.0Q504 639 507 631Q515 610 526.0 579.0Q537 548 547 511Q553 489 556.0 472.5Q559 456 560 446Q562 436 569 428L636 364Q645 356 657 356Q670 356 679 365Q687 373 695.0 381.0Q703 389 709 395Q715 401 717 410Q720 424 728.0 450.0Q736 476 745.0 505.0Q754 534 761.0 557.5Q768 581 771 590Q772 594 772 596Q776 623 761.5 639.5Q747 656 722.5 666.0Q698 676 671 685Q662 687 654.0 690.0Q646 693 638 696Q638 696 623.0 700.5Q608 705 586.5 709.5Q565 714 544 714ZM544 723Q566 723 588.5 718.5Q611 714 626.0 709.0Q641 704 641 704Q663 696 688.5 688.5Q714 681 736.5 670.0Q759 659 772.0 641.0Q785 623 782 595Q781 591 780 587Q777 579 770.0 555.5Q763 532 754.0 503.0Q745 474 737.0 447.5Q729 421 726 407Q723 396 715 388Q710 382 701.5 374.0Q693 366 685 358Q674 347 657 347Q641 347 630 358L563 421Q553 431 551 445Q550 455 547.0 471.0Q544 487 538 509Q525 559 510.0 598.0Q495 637 490 652Q476 694 495.0 708.5Q514 723 544 723Z" fill="#0e2b52" stroke="none" transform="scale(1,-1) translate(0,-256)" /><path d="M320 731Q317 731 314 730L288 720Q274 715 280 701L318 601Q327 579 351 579Q357 579 363 581L364 582H365L533 626Q546 630 553 642Q560 654 557 668Q550 692 524 692Q520 692 516 691L368 652L362 650L359 657L334 722Q330 731 320 731ZM320 739Q335 739 341 724L366 659L514 699Q519 700 524 700Q538 700 549.0 691.5Q560 683 564 670Q568 653 559.5 638.5Q551 624 535 619L366 574Q366 574 366 574Q359 572 351 572Q322 572 312 598L273 698Q270 707 273.5 715.5Q277 724 286 727L312 737Q316 739 320 739Z" fill="#0e2b52" stroke="none" transform="scale(1,-1) translate(0,-256)" /><path d="M421 -205Q455 -205 497 -199Q501 -199 507 -198Q521 -197 541.0 -193.5Q561 -190 568 -181Q570 -177 569 -173L479 117Q478 120 475 121L352 156Q351 156 351 156Q348 156 347 154Q345 152 347 149Q359 127 378.5 91.0Q398 55 419.5 15.5Q441 -24 461.5 -58.5Q482 -93 495 -115Q498 -119 496 -123Q495 -124 491.0 -128.0Q487 -132 471.0 -138.0Q455 -144 420.0 -153.5Q385 -163 322 -176Q319 -176 319 -179Q318 -183 321 -184Q332 -191 355.5 -198.0Q379 -205 421 -205Z" fill="#0e2b52" stroke="none" transform="scale(1,-1) translate(0,-256)" /><path d="M988 -161Q1011 -161 1029.5 -158.5Q1048 -156 1060 -154Q1062 -154 1063 -151Q1063 -149 1061 -148Q1007 -127 977.5 -114.0Q948 -101 935.0 -93.5Q922 -86 919.5 -82.5Q917 -79 916 -77Q914 -57 909.5 -22.0Q905 13 900.5 52.5Q896 92 891.5 128.0Q887 164 885 187Q884 190 881 190Q880 190 879 189L796 96Q795 95 796 93L876 -131Q880 -140 898.5 -149.0Q917 -158 966 -160Q976 -161 988 -161Z" fill="#0e2b52" stroke="none" transform="scale(1,-1) translate(0,-256)" /></svg>