<?xml version="1.0" encoding="utf-8" ?>
<svg baseProfile="full" height="256" version="1.1" width="256" xmlns="http://www.w3.org/2000/svg" xmlns:ev="http://www.w3.org/2001/xml-events" xmlns:xlink="http://www.w3.org/1999/xlink"><defs /><path d="M354 861Q364 852 373 861Q383 871 373 880L362 895Q350 909 338 906Q333 918 321 914Q318 913 315 913Q311 912 310 912L311 911Q307 915 302 916Q296 916 292 913L271 896Q267 892 257 868Q246 840 244 818Q233 721 283 618Q285 614 289 616Q291 617 292 619Q304 652 319 668Q339 689 365 689Q370 689 370 694Q370 694 370 695Q365 719 328 773Q311 799 309 816H331Q345 816 345 829Q345 835 341 839Q337 843 331 843H317Q313 845 312 848Q312 851 314 856Q318 863 329 871Q333 874 337 873ZM361 868Q360 868 360 868L342 881Q342 881 341 881Q332 884 324 879Q311 870 306 860Q302 853 303 847Q305 839 314 834Q315 833 316 833H331Q335 833 335 829Q335 825 331 825H304Q300 825 300 821Q299 800 320 767Q352 721 359 698Q332 696 312 674Q299 660 287 632Q243 727 253 817Q255 838 266 865Q274 887 277 889L297 906Q301 908 303 905Q306 902 323 905Q324 905 324 905Q328 906 330 902Q330 902 330 900Q329 899 330 897Q333 893 337 895Q345 900 354 889L366 874Q366 874 367 874Q370 871 367 868Q364 865 361 868Z" fill="#009245" stroke="none" transform="scale(1,-1) translate(0,-256)" /><path d="M1014 722 987 747Q986 747 985 747Q984 748 982 749Q974 753 967 747Q962 742 963 735Q960 737 958 738Q954 741 948 741Q943 740 940 735Q936 730 937 726Q937 723 939 721Q938 721 937 721Q931 723 927 721Q923 719 921 713Q921 713 921 713Q919 708 922 703Q924 698 929 697L945 692Q947 685 950 678Q953 670 952 665Q951 661 947 660L935 661Q924 662 919 651Q917 645 921 640Q925 636 934 634Q934 634 935 634L960 630Q954 613 923 593Q871 561 857 543Q855 541 856 539Q856 537 858 536Q858 536 859 535Q880 526 887 502Q893 484 885 443Q884 438 889 437Q891 437 893 438Q967 499 1005 605Q1015 632 1013 675Q1013 680 1013 680Q1013 681 1013 681Q1018 717 1015 722Q1014 722 1014 722ZM979 716V717Q984 715 985 717Q985 717 985 717Q986 719 986 721Q986 722 984 724Q979 727 975 731Q972 734 972 736Q972 738 973 740Q976 742 978 741Q979 740 981 739L1007 716Q1008 713 1004 682Q1004 680 1004 675Q1006 634 996 608Q962 512 896 454Q902 488 896 505Q888 530 868 541Q884 558 928 585Q967 609 971 634Q971 638 967 639L936 643Q930 644 928 646Q928 647 928 647Q930 652 934 652L947 651Q947 651 947 651Q959 652 961 663Q963 671 959 681Q956 689 953 697Q952 699 950 700L932 706Q931 706 930 707Q930 709 930 710Q930 710 930 710Q931 712 932 712Q933 713 934 713Q941 710 948 708Q954 706 957 705Q959 705 960 704Q961 704 962 704Q963 704 964 704Q965 704 966 705Q968 707 967 710Q967 712 965 712L948 725Q946 727 947 730H948Q949 731 950 731Q951 731 952 731Q953 731 953 730Q967 722 975 718Q977 717 979 716Z" fill="#009245" stroke="none" transform="scale(1,-1) translate(0,-256)" /></svg>