<?xml version="1.0" encoding="utf-8" ?>
<svg baseProfile="full" height="256" version="1.1" width="256" xmlns="http://www.w3.org/2000/svg" xmlns:ev="http://www.w3.org/2001/xml-events" xmlns:xlink="http://www.w3.org/1999/xlink"><defs /><path d="M850 430Q851 430 852 431Q854 431 858.0 435.0Q862 439 872.0 456.5Q882 474 902.0 514.0Q922 554 956 625Q960 634 951 638Q943 642 939 633Q921 595 902.0 556.5Q883 518 868.0 489.0Q853 460 847 451Q839 455 824.0 467.5Q809 480 793.0 495.0Q777 510 764.5 521.5Q752 533 750 535Q744 542 737 536Q730 530 736 523Q736 522 750.5 508.0Q765 494 785.0 476.0Q805 458 823.5 444.0Q842 430 850 430Z" fill="#2d802d" stroke="none" transform="scale(1,-1) translate(0,-256)" /></svg>