<?xml version="1.0" encoding="utf-8" ?>
<svg baseProfile="full" height="256" version="1.1" width="256" xmlns="http://www.w3.org/2000/svg" xmlns:ev="http://www.w3.org/2001/xml-events" xmlns:xlink="http://www.w3.org/1999/xlink"><defs /><path d="M441 269Q441 269 453.0 268.0Q465 267 470 250Q474 234 467.0 225.5Q460 217 460 217Q460 217 467.0 216.5Q474 216 481.0 210.5Q488 205 491 191Q493 176 487.0 169.0Q481 162 475.0 160.5Q469 159 469 159Q469 159 470.5 157.0Q472 155 474 151Q476 145 475.0 140.5Q474 136 474 136Q474 136 483.0 139.5Q492 143 504 133Q515 125 515.0 112.5Q515 100 506.5 91.5Q498 83 483 86Q464 89 461.5 100.5Q459 112 459 112Q459 112 449.0 108.5Q439 105 426 113Q410 123 412.0 138.0Q414 153 414 153Q414 153 407.5 151.0Q401 149 392.5 152.0Q384 155 379 168Q373 183 377.0 192.0Q381 201 387.0 204.5Q393 208 393 208Q393 208 381.0 210.5Q369 213 366 230Q364 245 370.0 252.0Q376 259 382.5 261.0Q389 263 389 263Q389 263 388.0 272.5Q387 282 392.0 292.0Q397 302 413 303Q429 304 435.0 295.5Q441 287 441.0 278.0Q441 269 441 269Z" fill="#a281d0" stroke="none" transform="scale(1,-1) translate(0,-256)" /></svg>