<?xml version="1.0" encoding="utf-8" ?>
<svg baseProfile="full" height="256" version="1.1" width="256" xmlns="http://www.w3.org/2000/svg" xmlns:ev="http://www.w3.org/2001/xml-events" xmlns:xlink="http://www.w3.org/1999/xlink"><defs /><path d="M978 -95Q975 -104 948.5 -119.0Q922 -134 887 -152Q877 -158 858.5 -168.0Q840 -178 819.5 -188.5Q799 -199 783.0 -205.5Q767 -212 764 -210Q761 -209 757.5 -181.0Q754 -153 750.5 -106.5Q747 -60 744.0 -2.5Q741 55 738.5 116.0Q736 177 735 234Q734 289 733.5 342.5Q733 396 733.0 439.5Q733 483 733.0 509.0Q733 535 733 535Q733 535 755.0 546.0Q777 557 809.5 573.0Q842 589 874.5 605.5Q907 622 930.0 632.5Q953 643 955 643Q957 642 957.0 616.0Q957 590 956.0 547.5Q955 505 953.5 453.0Q952 401 951.5 347.5Q951 294 952 247Q953 189 958.0 131.0Q963 73 968.0 24.0Q973 -25 976.0 -57.0Q979 -89 978 -95Z" fill="#02ab46" stroke="none" transform="scale(1,-1) translate(0,-256)" /></svg>