<?xml version="1.0" encoding="utf-8" ?>
<svg baseProfile="full" height="256" version="1.1" width="256" xmlns="http://www.w3.org/2000/svg" xmlns:ev="http://www.w3.org/2001/xml-events" xmlns:xlink="http://www.w3.org/1999/xlink"><defs /><path d="M89 510Q89 510 97.0 504.0Q105 498 108 491Q111 485 109.5 468.5Q108 452 108 446Q108 440 112.5 440.5Q117 441 118 439Q119 437 120.0 424.5Q121 412 122.0 396.5Q123 381 124 373Q125 360 129.5 345.5Q134 331 136 319Q137 307 138.0 302.0Q139 297 145 297Q151 297 154.0 303.0Q157 309 159 314Q160 318 161.5 327.5Q163 337 164 339Q165 341 167.5 352.5Q170 364 170 364Q170 364 173.0 365.5Q176 367 179 368Q182 369 192.0 377.5Q202 386 204 388Q206 390 217.5 399.5Q229 409 233 412Q238 415 247.0 414.0Q256 413 260 412Q262 411 268.0 401.0Q274 391 279.5 381.5Q285 372 285 372Q285 372 284.5 357.0Q284 342 287 337Q290 332 297.0 334.0Q304 336 306 333Q308 331 312.5 319.5Q317 308 318 305Q319 303 320.0 292.5Q321 282 323 269Q324 256 329.5 249.0Q335 242 339 238Q342 234 348.5 224.0Q355 214 355 214Q355 214 347.5 216.5Q340 219 337 222Q334 224 323.0 233.0Q312 242 308 243Q305 244 303.5 241.0Q302 238 303 235Q305 232 313.0 225.0Q321 218 323 214Q326 209 335.0 201.5Q344 194 347 191Q349 189 356.5 181.5Q364 174 371.0 166.5Q378 159 378 159Q378 159 384.0 156.5Q390 154 394 152Q397 150 406.5 145.0Q416 140 423 139Q430 139 433.0 142.5Q436 146 438 152Q440 158 435.0 161.5Q430 165 428 169Q427 173 415.5 183.5Q404 194 404 194Q404 194 398.5 201.0Q393 208 391 214Q386 228 378 240Q375 244 371.5 244.5Q368 245 363 248Q359 250 352.5 255.0Q346 260 346 263Q346 265 345.0 271.0Q344 277 343 282Q342 286 341.5 294.0Q341 302 342 304Q343 307 350.0 305.5Q357 304 361 301Q364 298 373.5 287.5Q383 277 383 277Q383 277 384.0 273.0Q385 269 390 267Q395 264 401.5 268.5Q408 273 417 278Q426 283 429.0 283.5Q432 284 437 288Q442 292 442.0 294.5Q442 297 442 303Q442 312 434 324Q431 329 422.0 337.5Q413 346 411 353Q408 361 413.5 365.5Q419 370 423 373Q428 376 432.0 378.0Q436 380 440 377Q445 374 442.5 372.0Q440 370 438 368Q435 366 434.5 361.0Q434 356 438 352Q444 344 455 353Q461 358 462.0 366.0Q463 374 471 379Q479 385 493.5 385.5Q508 386 517 389Q527 392 538.0 400.0Q549 408 555 413Q560 417 566.5 427.0Q573 437 574 437Q577 439 588 452Q597 463 597 481Q596 491 592.0 492.5Q588 494 586 498Q585 501 575.5 509.0Q566 517 566 520Q566 522 568.5 525.5Q571 529 573 531Q576 534 577.5 539.5Q579 545 578 549Q578 552 572.5 551.5Q567 551 565 553Q563 556 559.0 560.5Q555 565 558 570Q562 575 573.0 582.5Q584 590 587 589Q589 587 586.5 582.0Q584 577 586 573Q588 570 591.0 570.0Q594 570 596 570Q599 569 607.0 567.5Q615 566 615 566Q615 566 616.0 564.0Q617 562 618 560Q620 558 626.5 556.0Q633 554 633 554Q633 554 633.5 548.5Q634 543 633 533Q633 523 633.5 517.0Q634 511 647 517Q660 522 662.0 529.5Q664 537 664 548Q664 559 654.5 570.5Q645 582 645 582Q645 582 650.0 584.5Q655 587 662 592Q668 596 668.5 603.5Q669 611 675 614Q682 616 690.5 615.5Q699 615 706 619Q713 623 717.0 635.0Q721 647 726 653Q731 659 735.0 672.5Q739 686 738 696Q738 706 734.5 712.0Q731 718 729 723Q727 728 724.5 739.0Q722 750 716 751Q710 753 708.5 749.5Q707 746 696 747Q686 748 684.0 756.0Q682 764 686 776Q689 787 703.5 795.0Q718 803 723 803Q728 803 736.0 798.5Q744 794 753 797Q762 801 766.5 813.5Q771 826 779 830Q788 833 792.0 829.5Q796 826 799 818Q803 809 799.5 797.5Q796 786 801 780Q805 776 809.5 764.5Q814 753 819.0 742.5Q824 732 829 731Q837 730 837.0 742.5Q837 755 839 767Q841 779 838.0 794.0Q835 809 834 815Q833 820 833.0 831.0Q833 842 835 845Q837 848 836.5 860.0Q836 872 836 872Q795 887 749.0 896.0Q703 905 653 907Q653 907 644.0 897.0Q635 887 632 886Q629 885 621.0 885.0Q613 885 604 886Q595 886 581.5 889.5Q568 893 568 893L567 905Q469 897 389.5 861.0Q310 825 250.5 770.0Q191 715 150.5 648.0Q110 581 89 510Z" fill="#7add8a" stroke="none" transform="scale(1,-1) translate(0,-256)" /><path d="M741 744Q745 745 752.0 739.0Q759 733 764 727Q768 723 770.0 718.5Q772 714 773 710Q774 707 772.5 695.5Q771 684 770 680Q769 676 764.5 670.5Q760 665 755 665Q752 666 751 680Q750 685 749.0 694.5Q748 704 748 707Q748 710 742.0 720.0Q736 730 736 735Q736 742 741 744Z" fill="#7add8a" stroke="none" transform="scale(1,-1) translate(0,-256)" /><path d="M761 655Q765 656 766.5 650.5Q768 645 774 642Q777 641 783.0 639.5Q789 638 791 638Q794 637 793.0 631.5Q792 626 791 623Q791 620 783.5 616.0Q776 612 777 610Q777 609 775.0 589.0Q773 569 772 558Q771 546 766.5 542.5Q762 539 760 538Q758 536 751.0 527.0Q744 518 737 511Q730 505 722.5 502.0Q715 499 710 498Q705 497 697.0 492.5Q689 488 682 488Q676 487 670.5 492.0Q665 497 666 504Q666 508 669.5 511.0Q673 514 673 514Q673 514 676.5 520.5Q680 527 697 532Q702 533 709.5 532.5Q717 532 717 532Q717 532 722.5 536.5Q728 541 731 544Q734 547 740.5 553.0Q747 559 747 561Q748 563 750.5 570.5Q753 578 753 578Q753 578 753.5 581.5Q754 585 754 589Q754 594 753.5 607.5Q753 621 754 632Q756 653 761 655Z" fill="#7add8a" stroke="none" transform="scale(1,-1) translate(0,-256)" /><path d="M555 367Q564 369 567.5 363.0Q571 357 570 349Q570 336 576 329Q580 325 582.5 325.5Q585 326 588 325Q591 325 598.0 316.0Q605 307 612.0 297.5Q619 288 620 286Q621 282 618.5 278.5Q616 275 617 273Q617 272 620.0 266.5Q623 261 621 258Q620 256 612.0 255.5Q604 255 601 257Q598 258 595.0 260.5Q592 263 589 265Q586 267 579.5 266.5Q573 266 571 268Q566 275 566.5 291.5Q567 308 567 308Q567 308 562.5 312.5Q558 317 555 324Q551 334 552.0 338.5Q553 343 553 344Q553 350 553.5 358.5Q554 367 555 367Z" fill="#7add8a" stroke="none" transform="scale(1,-1) translate(0,-256)" /><path d="M515 302Q523 311 534.5 311.0Q546 311 549 309Q554 307 551 295Q550 289 548.0 284.0Q546 279 545 268Q543 257 543.5 249.5Q544 242 542 237Q540 232 536.5 229.5Q533 227 533 227Q533 227 531.5 222.5Q530 218 525 205Q521 195 517.0 184.5Q513 174 507 171Q505 170 499.5 172.0Q494 174 487 176Q481 178 473.0 175.5Q465 173 461 176Q454 180 448 187Q446 189 441.0 193.5Q436 198 433 203Q430 208 428.0 212.5Q426 217 428 220Q429 223 434.5 228.0Q440 233 444 233Q449 234 455.5 232.5Q462 231 463 234Q464 236 471.0 243.0Q478 250 482 253Q486 256 494.0 263.5Q502 271 503 273Q504 275 507.5 287.0Q511 299 515 302Z" fill="#7add8a" stroke="none" transform="scale(1,-1) translate(0,-256)" /><path d="M544 174Q544 174 547.5 172.0Q551 170 560 171Q572 171 575.5 174.0Q579 177 578 181Q578 185 573.5 188.0Q569 191 569 192Q569 194 568.0 201.0Q567 208 570 212Q573 216 581.5 218.5Q590 221 593 223Q599 225 599 233Q600 245 596 244Q591 244 593 238Q593 236 591.5 232.5Q590 229 587 229Q583 228 581 231Q579 235 570 235Q565 235 555.5 229.0Q546 223 546 222Q546 220 543.0 213.5Q540 207 539 197Q538 186 540.5 180.5Q543 175 544 174Z" fill="#7add8a" stroke="none" transform="scale(1,-1) translate(0,-256)" /><path d="M625 226Q625 226 624.5 233.5Q624 241 626 244Q628 247 631.0 252.0Q634 257 636 258Q639 260 645.5 260.0Q652 260 652 256Q652 254 650.0 250.5Q648 247 647 245Q645 242 650.0 232.5Q655 223 656 221Q657 219 655.5 214.5Q654 210 650 210Q645 210 641.0 210.5Q637 211 633 212Q629 212 622.0 211.5Q615 211 613 213Q612 214 611.5 217.0Q611 220 613 221Q614 222 619.5 224.0Q625 226 625 226Z" fill="#7add8a" stroke="none" transform="scale(1,-1) translate(0,-256)" /><path d="M449 152Q451 152 462.5 152.0Q474 152 486.0 151.5Q498 151 502 151Q506 151 528.0 155.5Q550 160 565 161Q583 162 588.5 164.5Q594 167 596 162Q597 157 593.0 154.5Q589 152 587 151Q585 150 580.5 150.0Q576 150 573 149Q571 149 563.0 147.0Q555 145 548 141Q542 137 530.0 135.5Q518 134 517 133Q515 133 508.0 132.0Q501 131 480 132Q458 132 452.5 132.5Q447 133 445 136Q442 139 445.0 145.0Q448 151 449 152Z" fill="#7add8a" stroke="none" transform="scale(1,-1) translate(0,-256)" /><path d="M618 178Q623 183 628.0 185.5Q633 188 636 185Q639 181 634.0 177.0Q629 173 625 170Q621 166 616.0 163.0Q611 160 609 162Q605 167 618 178Z" fill="#7add8a" stroke="none" transform="scale(1,-1) translate(0,-256)" /><path d="M670 251Q672 254 687.5 259.0Q703 264 710 261Q716 257 717.0 247.0Q718 237 723 237Q727 236 732.5 243.0Q738 250 743.5 257.0Q749 264 750 265Q752 265 769.0 266.0Q786 267 803.5 267.5Q821 268 825 266Q831 265 843.5 255.0Q856 245 858 244Q859 243 865.0 242.0Q871 241 872 240Q872 239 872.0 233.5Q872 228 873 226Q875 225 882.5 215.5Q890 206 891 205Q895 202 902 202Q904 202 907.0 200.0Q910 198 909 195Q909 192 903.0 190.5Q897 189 894 189Q891 189 881.5 196.0Q872 203 868 205Q857 210 854 203Q852 200 854.0 198.0Q856 196 856 193Q855 189 847.5 186.5Q840 184 836 182Q831 180 824.5 182.0Q818 184 815 184Q811 184 799.5 184.5Q788 185 783 184Q777 184 777 192Q778 196 780.5 196.5Q783 197 785 199Q786 201 785.5 204.0Q785 207 785 209Q783 214 775 216Q773 216 764.0 216.5Q755 217 747 217Q730 217 724 216Q720 215 707.0 214.5Q694 214 693 215Q692 216 691.0 220.0Q690 224 686 229Q682 233 677.0 236.0Q672 239 671 240Q671 242 670.0 246.0Q669 250 670 251Z" fill="#7add8a" stroke="none" transform="scale(1,-1) translate(0,-256)" /><path d="M796 -123Q802 -121 807.5 -124.0Q813 -127 813 -132Q814 -138 805.5 -146.5Q797 -155 790 -154Q784 -154 781.0 -149.0Q778 -144 777 -140Q776 -130 782 -124Q784 -121 789.0 -122.0Q794 -123 796 -123Z" fill="#7add8a" stroke="none" transform="scale(1,-1) translate(0,-256)" /><path d="M912 -111Q916 -109 914.5 -104.0Q913 -99 915 -93Q916 -88 919.0 -86.5Q922 -85 924 -84Q926 -83 927.5 -81.5Q929 -80 930 -75Q930 -74 930.0 -70.0Q930 -66 930 -63Q929 -50 936 -49Q939 -49 941.0 -55.0Q943 -61 943 -64Q944 -68 948.5 -77.0Q953 -86 952 -91Q951 -96 936.0 -106.0Q921 -116 916 -120Q912 -122 900.5 -128.5Q889 -135 876.5 -140.5Q864 -146 859 -146Q851 -145 848.5 -141.0Q846 -137 847 -135Q848 -129 853.5 -126.0Q859 -123 867 -117Q876 -111 884.5 -104.5Q893 -98 896 -98Q901 -98 904.5 -105.5Q908 -113 912 -111Z" fill="#7add8a" stroke="none" transform="scale(1,-1) translate(0,-256)" /><path d="M764 130Q764 130 769.0 138.5Q774 147 772 155Q770 163 762.0 164.5Q754 166 739 168Q724 170 708.0 167.5Q692 165 687 162Q681 158 680.0 148.0Q679 138 668 136Q663 135 658.0 137.5Q653 140 651 143Q647 151 636 144Q633 142 623.5 134.0Q614 126 604.5 118.0Q595 110 594 109Q591 106 590.0 99.0Q589 92 586 89Q584 85 572.5 80.5Q561 76 558 73Q554 71 551.0 71.5Q548 72 546 71Q543 70 536.0 66.5Q529 63 528 40Q527 32 531.5 22.5Q536 13 540 5Q543 -1 549.0 -13.5Q555 -26 561.0 -37.5Q567 -49 568 -52Q570 -57 567.5 -60.5Q565 -64 563 -65Q559 -69 566.5 -75.0Q574 -81 587 -82Q600 -82 608.5 -79.5Q617 -77 626 -79Q632 -80 638.0 -74.5Q644 -69 651 -67Q658 -65 679.5 -63.0Q701 -61 711 -62Q721 -64 725.0 -68.5Q729 -73 729 -76Q730 -81 728.5 -84.5Q727 -88 730 -93Q732 -96 738.0 -96.5Q744 -97 748 -100Q751 -102 758.5 -108.0Q766 -114 786 -115Q806 -115 814.5 -110.5Q823 -106 826 -105Q831 -102 845 -92Q851 -87 861.5 -73.0Q872 -59 872 -59Q872 -59 882.5 -50.0Q893 -41 902 -32Q911 -24 915.0 -12.0Q919 0 920 5Q922 10 920.5 17.5Q919 25 918 27Q917 30 912.5 32.5Q908 35 905 39Q903 42 903.5 46.5Q904 51 904 57Q904 62 892.5 76.5Q881 91 880 97Q879 103 879.5 112.5Q880 122 880 122Q880 122 876.0 129.0Q872 136 870 141Q867 145 864.5 151.5Q862 158 860 162Q855 171 850 171Q842 171 841 166Q841 162 839.0 153.0Q837 144 837 140Q837 135 830.5 122.0Q824 109 823 105Q819 96 802 97Q795 98 788.5 102.5Q782 107 777 112Q774 114 769.0 119.5Q764 125 764 130Z" fill="#7add8a" stroke="none" transform="scale(1,-1) translate(0,-256)" /></svg>