<?xml version="1.0" encoding="utf-8" ?>
<svg baseProfile="full" height="256" version="1.1" width="256" xmlns="http://www.w3.org/2000/svg" xmlns:ev="http://www.w3.org/2001/xml-events" xmlns:xlink="http://www.w3.org/1999/xlink"><defs /><path d="M738 456 588 361Q588 361 581.5 374.0Q575 387 567.0 399.5Q559 412 555 412Q552 411 550.0 394.5Q548 378 547.0 361.5Q546 345 546 345L511 324Q511 324 504.0 333.0Q497 342 488.0 353.0Q479 364 470.5 372.5Q462 381 459 380Q456 380 452.0 363.0Q448 346 444.0 327.0Q440 308 439 299Q438 293 434.5 264.5Q431 236 426.5 196.0Q422 156 417.0 116.5Q412 77 408.0 49.0Q404 21 401 17Q400 15 387.5 2.0Q375 -11 357.0 -28.5Q339 -46 321.0 -63.5Q303 -81 289.5 -93.5Q276 -106 274 -109Q268 -114 258.0 -119.5Q248 -125 241 -116Q232 -107 237.5 -99.0Q243 -91 248 -88Q249 -86 261.5 -74.5Q274 -63 291.0 -46.5Q308 -30 325.0 -13.0Q342 4 354.5 16.5Q367 29 368 31Q370 34 373.5 60.0Q377 86 381.5 124.5Q386 163 390.5 203.5Q395 244 398.5 276.5Q402 309 404 322Q411 369 420.5 401.0Q430 433 446 439Q453 442 464.0 434.0Q475 426 486.0 414.0Q497 402 504.0 392.5Q511 383 511 383Q511 383 512.0 394.0Q513 405 516.0 420.5Q519 436 524.5 448.5Q530 461 539 463Q552 466 565.5 454.5Q579 443 588.0 430.5Q597 418 597 418Q597 418 599.5 432.0Q602 446 606 462Q613 491 629 501Q644 510 661.0 501.5Q678 493 689 488Q706 480 722.0 468.0Q738 456 738 456Z" fill="#848484" stroke="none" transform="scale(1,-1) translate(0,-256)" /><path d="M379 313 373 290Q373 290 335.5 279.0Q298 268 236 265Q201 263 171.0 267.5Q141 272 116 280Q93 287 79.0 297.5Q65 308 60 314Q54 321 54.5 333.0Q55 345 67 345Q78 345 78.0 335.0Q78 325 78 325Q78 325 83.5 319.0Q89 313 106 306Q128 298 165.0 290.0Q202 282 234 284Q292 289 323.5 295.5Q355 302 367.0 307.5Q379 313 379 313Z" fill="#848484" stroke="none" transform="scale(1,-1) translate(0,-256)" /><path d="M384 281Q381 286 372.5 283.0Q364 280 349 275Q340 271 308.0 262.5Q276 254 235.5 247.5Q195 241 160 242Q125 243 104.5 250.5Q84 258 75.5 264.5Q67 271 67 271Q67 271 65.5 278.0Q64 285 60.5 290.5Q57 296 48 293Q35 287 43.5 273.0Q52 259 60 253Q69 247 93.0 235.5Q117 224 162 223Q202 222 238.5 228.0Q275 234 302.0 241.5Q329 249 341 253Q360 259 374.5 266.0Q389 273 384 281Z" fill="#848484" stroke="none" transform="scale(1,-1) translate(0,-256)" /><path d="M474 5Q475 9 479.5 34.5Q484 60 489.5 96.5Q495 133 500.5 170.0Q506 207 510.5 235.5Q515 264 516 272Q520 293 526.0 307.0Q532 321 544 325Q556 329 564.5 322.0Q573 315 580 302Q582 298 586.0 288.0Q590 278 594.0 269.0Q598 260 598 260Q598 260 601.5 277.5Q605 295 612.0 313.5Q619 332 628 336Q642 343 651.0 338.0Q660 333 660 333Q660 333 670.0 348.0Q680 363 694 380Q703 391 711.5 402.5Q720 414 730 416Q740 417 746.0 410.5Q752 404 756 400Q758 398 771.5 383.0Q785 368 803.0 348.0Q821 328 837.5 309.0Q854 290 862 279Q870 268 888.0 247.0Q906 226 925.5 203.0Q945 180 959.5 163.0Q974 146 977 145Q979 143 992.5 137.0Q1006 131 1023.5 123.0Q1041 115 1056.5 108.0Q1072 101 1078 97Q1084 94 1103.0 84.5Q1122 75 1144.5 63.5Q1167 52 1185.0 43.0Q1203 34 1208 32Q1224 24 1228.0 16.0Q1232 8 1229 3Q1226 -1 1220.0 -2.5Q1214 -4 1208 -2Q1205 0 1184.5 8.5Q1164 17 1136.5 29.5Q1109 42 1083 54Q1068 61 1047.5 70.5Q1027 80 1006.0 89.5Q985 99 970.0 105.5Q955 112 952 114Q949 115 934.0 132.0Q919 149 900.0 172.5Q881 196 864.0 217.5Q847 239 839 249Q832 259 815.5 277.5Q799 296 781.0 315.5Q763 335 749.5 349.0Q736 363 733 363Q731 363 722.5 353.0Q714 343 704.5 330.5Q695 318 688.5 308.5Q682 299 682 299Q682 299 683.5 276.5Q685 254 688.0 221.0Q691 188 694.5 154.5Q698 121 700.5 97.0Q703 73 704 71Q706 67 716.5 54.5Q727 42 741.5 25.5Q756 9 769.5 -6.0Q783 -21 791 -28Q798 -36 812.0 -52.5Q826 -69 841.5 -87.0Q857 -105 869.5 -119.5Q882 -134 885 -138Q893 -147 896.0 -156.0Q899 -165 894 -169Q890 -173 880.5 -170.0Q871 -167 866 -162Q862 -159 843.5 -140.0Q825 -121 803.0 -97.5Q781 -74 764 -57Q748 -39 727.5 -15.0Q707 9 691.5 28.0Q676 47 672 50Q670 52 667.5 69.5Q665 87 663.0 110.5Q661 134 659.0 157.5Q657 181 655 196Q653 225 651.0 251.0Q649 277 645 277Q641 277 639.0 265.0Q637 253 633 235Q631 226 627.0 220.0Q623 214 612 216Q603 218 601.0 223.5Q599 229 599 229Q599 229 598.0 221.5Q597 214 589 212Q584 210 577.5 213.0Q571 216 568 227Q566 233 562.0 247.0Q558 261 556 261Q554 262 550.0 243.0Q546 224 541.0 194.0Q536 164 530.5 129.5Q525 95 520.5 64.0Q516 33 512.5 12.5Q509 -8 508 -11Q505 -16 490.0 -32.5Q475 -49 456.5 -67.5Q438 -86 426 -97Q404 -117 382.0 -136.0Q360 -155 353 -162Q347 -167 335.5 -174.0Q324 -181 317 -173Q307 -165 312.0 -156.5Q317 -148 322 -144Q326 -141 339.0 -129.0Q352 -117 367.5 -102.5Q383 -88 393 -79Q403 -70 421.0 -52.5Q439 -35 454.5 -18.5Q470 -2 474 5Z" fill="#848484" stroke="none" transform="scale(1,-1) translate(0,-256)" /></svg>