<?xml version="1.0" encoding="utf-8" ?>
<svg baseProfile="full" height="256" version="1.1" width="256" xmlns="http://www.w3.org/2000/svg" xmlns:ev="http://www.w3.org/2001/xml-events" xmlns:xlink="http://www.w3.org/1999/xlink"><defs /><path d="M346 221Q385 205 409.5 199.5Q434 194 451.5 193.0Q469 192 484 190Q505 187 501.5 174.0Q498 161 482 161Q468 162 432.5 166.5Q397 171 342 189Q301 203 275.0 221.0Q249 239 236.0 254.5Q223 270 220 274Q207 289 216 299Q221 305 228.5 303.0Q236 301 242 293Q251 283 272.5 263.5Q294 244 346 221Z" fill="#fdffff" stroke="none" transform="scale(1,-1) translate(0,-256)" /><path d="M557 180Q570 180 574.5 173.5Q579 167 578 162Q578 157 572.0 151.5Q566 146 556 147Q533 148 533 163Q533 169 538.5 175.0Q544 181 557 180Z" fill="#fdffff" stroke="none" transform="scale(1,-1) translate(0,-256)" /></svg>