<?xml version="1.0" encoding="utf-8" ?>
<svg baseProfile="full" height="256" version="1.1" width="256" xmlns="http://www.w3.org/2000/svg" xmlns:ev="http://www.w3.org/2001/xml-events" xmlns:xlink="http://www.w3.org/1999/xlink"><defs /><path d="M-510.70265197753906 -287.2948913574219Q-511.63417053222656 -335.0594177246094 -493.82276153564453 -370.55494689941406Q-476.0113525390625 -406.05047607421875 -448.4643249511719 -429.5606384277344Q-420.91729736328125 -453.07080078125 -394.16407775878906 -465.9981384277344Q-367.4108581542969 -478.92547607421875 -350.4497985839844 -481.09434509277344Q-336.4881896972656 -483.2046661376953 -308.02027893066406 -485.1386947631836Q-279.5523681640625 -487.0727233886719 -244.57221221923828 -488.44469451904297Q-209.59205627441406 -489.81666564941406 -177.59791564941406 -490.44117736816406Q-145.60377502441406 -491.06568908691406 -124.58970642089844 -490.5569763183594Q-103.57563781738281 -490.0482635498047 -103.53981018066406 -488.21116638183594Q-102.45938110351562 -484.0972137451172 -110.91751861572266 -481.8645935058594Q-119.37565612792969 -479.63197326660156 -125.80728912353516 -476.06056213378906Q-132.23892211914062 -472.48915100097656 -127.06965637207031 -463.8605194091797Q-121.93621826171875 -457.06898498535156 -105.35862731933594 -453.25753021240234Q-88.78103637695312 -449.4460754394531 -66.2135009765625 -446.2109909057617Q-43.645965576171875 -442.9759063720703 -20.556129455566406 -438.6023941040039Q2.5337066650390625 -434.2288818359375 19.191909790039062 -426.2839584350586Q35.85011291503906 -418.3390350341797 40.109130859375 -405.09814453125Q45.36796569824219 -391.87677001953125 37.5037841796875 -384.83152770996094Q29.639602661132812 -377.7862854003906 15.213912963867188 -373.82910919189453Q0.7882232666015625 -369.87193298339844 -13.655380249023438 -366.8333053588867Q-28.098983764648438 -363.794677734375 -37.00328826904297 -358.7966537475586Q-45.9075927734375 -353.7986297607422 -42.72004699707031 -344.21241760253906Q-39.532501220703125 -334.62620544433594 -27.94055938720703 -330.02825927734375Q-16.348617553710938 -325.43031311035156 -0.7932357788085938 -322.7475280761719Q14.76214599609375 -320.0647430419922 29.8310546875 -316.68328857421875Q44.89996337890625 -313.3018341064453 55.04144287109375 -306.1486053466797Q65.18292236328125 -298.99537658691406 65.45162963867188 -285.21714782714844Q64.72052001953125 -271.4194030761719 54.861183166503906 -264.1054916381836Q45.00184631347656 -256.7915802001953 30.080726623535156 -252.59500885009766Q15.15960693359375 -248.3984375 -0.2748565673828125 -244.88101959228516Q-15.709320068359375 -241.3636016845703 -26.60430145263672 -235.86727142333984Q-37.49928283691406 -230.37094116210938 -39.29290771484375 -219.7686004638672Q-41.05070495605469 -207.32916259765625 -28.905113220214844 -199.9853286743164Q-16.759521484375 -192.64149475097656 -1.1503982543945312 -187.20306396484375Q14.458724975585938 -181.76463317871094 24.59124755859375 -175.0706787109375Q34.72377014160156 -168.37672424316406 27.940017700195312 -157.217529296875Q22.1650390625 -145.6185760498047 3.7893447875976562 -139.0573272705078Q-14.586349487304688 -132.49607849121094 -36.00627899169922 -128.1726531982422Q-57.42620849609375 -123.84922790527344 -74.85134887695312 -119.83350372314453Q-92.2764892578125 -115.81777954101562 -97.15913391113281 -109.7496337890625Q-103.03263854980469 -103.20269775390625 -100.952392578125 -99.10826110839844Q-98.87214660644531 -95.01382446289062 -96.82772827148438 -92.75648498535156Q-94.78330993652344 -90.4991455078125 -99.75552368164062 -89.02374267578125Q-104.72773742675781 -87.54833984375 -142.21639251708984 -86.58685302734375Q-179.70504760742188 -85.6253662109375 -236.23948669433594 -86.81908416748047Q-292.77392578125 -88.01280212402344 -355.89674377441406 -93.67240905761719Q-393.97039794921875 -97.06427001953125 -420.7969512939453 -113.54024505615234Q-447.6235046386719 -130.01622009277344 -465.0861511230469 -153.56671142578125Q-482.5487976074219 -177.11720275878906 -492.05321502685547 -202.89055633544922Q-501.55763244628906 -228.66390991210938 -505.4958801269531 -251.10004425048828Q-509.4341278076172 -273.5361785888672 -510.70265197753906 -287.2948913574219Z" fill="#000000" stroke="none" transform="scale(1,-1) translate(0,-256)" /><path d="M1015 706Q1015 755 980.0 798.5Q945 842 889.0 875.5Q833 909 767.5 928.5Q702 948 641 948Q580 948 515.5 929.5Q451 911 396.5 879.0Q342 847 308.0 804.5Q274 762 274 713Q274 664 308.5 618.5Q343 573 398.5 537.0Q454 501 518.5 480.5Q583 460 644 460Q705 460 770.0 479.5Q835 499 890.5 533.5Q946 568 980.5 612.5Q1015 657 1015 706Z" fill="#000000" stroke="none" transform="scale(1,-1) translate(0,-256)" /><path d="M647 809Q645 809 642.0 799.5Q639 790 635.0 778.5Q631 767 628 761Q624 752 614.0 736.5Q604 721 597.5 702.5Q591 684 596 665Q603 637 622.5 629.5Q642 622 661.5 630.5Q681 639 687 660Q692 679 687.0 699.0Q682 719 674.5 735.5Q667 752 663 761Q658 774 654.0 791.5Q650 809 647 809Z" fill="#000000" stroke="none" transform="scale(1,-1) translate(0,-256)" /><path d="M753 858Q755 857 760.0 845.5Q765 834 770.0 820.5Q775 807 779 801Q787 786 795.5 770.5Q804 755 804 729Q803 696 785.0 683.5Q767 671 746.0 676.0Q725 681 717 700Q707 722 712.5 748.0Q718 774 731 794Q737 804 742.0 819.0Q747 834 750.0 846.0Q753 858 753 858Z" fill="#000000" stroke="none" transform="scale(1,-1) translate(0,-256)" /><path d="M534 850Q534 850 537.0 840.0Q540 830 544.0 817.0Q548 804 552 795Q560 775 569.5 755.0Q579 735 573 710Q567 686 548.5 678.0Q530 670 511.5 677.0Q493 684 486 703Q477 726 487.0 751.5Q497 777 505 790Q511 798 518.0 812.5Q525 827 529.5 838.5Q534 850 534 850Z" fill="#000000" stroke="none" transform="scale(1,-1) translate(0,-256)" /></svg>