<?xml version="1.0" encoding="utf-8" ?>
<svg baseProfile="full" height="256" version="1.1" width="256" xmlns="http://www.w3.org/2000/svg" xmlns:ev="http://www.w3.org/2001/xml-events" xmlns:xlink="http://www.w3.org/1999/xlink"><defs /><path d="M606 600Q608 601 620.0 602.0Q632 603 646.5 603.0Q661 603 672.5 602.5Q684 602 685 601Q686 601 686.0 577.5Q686 554 686.5 519.5Q687 485 687.0 450.0Q687 415 686.5 391.5Q686 368 686 367Q684 366 674.5 361.0Q665 356 646 355Q627 355 617.0 361.0Q607 367 605 368Q605 369 604.5 392.5Q604 416 604.0 450.0Q604 484 604.5 518.5Q605 553 605.5 576.0Q606 599 606 600Z" fill="#ec7fae" stroke="none" transform="scale(1,-1) translate(0,-256)" /></svg>