<?xml version="1.0" encoding="utf-8" ?>
<svg baseProfile="full" height="256" version="1.1" width="256" xmlns="http://www.w3.org/2000/svg" xmlns:ev="http://www.w3.org/2001/xml-events" xmlns:xlink="http://www.w3.org/1999/xlink"><defs /><path d="M618 -50Q557 -48 497.0 -34.5Q437 -21 384.5 -2.5Q332 16 291.5 34.0Q251 52 228.0 64.5Q205 77 205 77L211 15Q211 15 238.5 -3.5Q266 -22 319.0 -47.0Q372 -72 448.0 -92.0Q524 -112 622 -115Q700 -116 767.0 -104.0Q834 -92 887.5 -72.0Q941 -52 979.5 -32.0Q1018 -12 1038.0 1.5Q1058 15 1058 15L1065 86Q1065 86 1041.0 71.5Q1017 57 974.5 36.5Q932 16 875.5 -5.0Q819 -26 753.0 -39.0Q687 -52 618 -50Z" fill="#f2a05b" stroke="none" transform="scale(1,-1) translate(0,-256)" /></svg>