<?xml version="1.0" encoding="utf-8" ?>
<svg baseProfile="full" height="256" version="1.1" width="256" xmlns="http://www.w3.org/2000/svg" xmlns:ev="http://www.w3.org/2001/xml-events" xmlns:xlink="http://www.w3.org/1999/xlink"><defs /><path d="M496 649Q497 650 514.5 650.5Q532 651 549.0 650.5Q566 650 567 649Q568 648 568.5 624.0Q569 600 569.5 565.0Q570 530 570.0 495.0Q570 460 569.5 436.0Q569 412 569 411Q563 405 532 405Q518 405 506.5 409.0Q495 413 494 414Q493 415 493.0 438.5Q493 462 493.0 497.0Q493 532 493.0 566.5Q493 601 494.0 624.5Q495 648 496 649Z" fill="#93c7ee" stroke="none" transform="scale(1,-1) translate(0,-256)" /></svg>