<?xml version="1.0" encoding="utf-8" ?>
<svg baseProfile="full" height="256" version="1.1" width="256" xmlns="http://www.w3.org/2000/svg" xmlns:ev="http://www.w3.org/2001/xml-events" xmlns:xlink="http://www.w3.org/1999/xlink"><defs /><path d="M844 580Q855 579 855.0 573.5Q855 568 856 559Q857 553 857.0 537.5Q857 522 854.5 506.0Q852 490 847 481Q838 467 822.0 461.5Q806 456 793.0 457.0Q780 458 779 463Q779 470 784.5 491.0Q790 512 799 534Q808 556 821.0 568.0Q834 580 844 580Z" fill="#ff6e45" stroke="none" transform="scale(1,-1) translate(0,-256)" /><path d="M993 489Q1005 491 1005.0 482.0Q1005 473 1003 457Q1001 441 992.0 415.5Q983 390 974 379Q965 367 948.5 367.5Q932 368 925 371Q917 374 919.5 392.5Q922 411 933 433Q949 469 967.0 478.5Q985 488 993 489Z" fill="#ff6e45" stroke="none" transform="scale(1,-1) translate(0,-256)" /><path d="M793 242Q787 247 794 275Q800 304 822 336Q836 357 847.0 362.0Q858 367 863 367Q876 368 875.5 360.0Q875 352 875 337Q875 317 866.5 292.0Q858 267 846 253Q838 244 821.0 238.0Q804 232 793 242Z" fill="#ff6e45" stroke="none" transform="scale(1,-1) translate(0,-256)" /><path d="M658 344Q669 343 679 337Q682 334 681.5 317.5Q681 301 679.0 283.5Q677 266 676 260Q675 250 664.0 230.0Q653 210 636 203Q618 196 603.0 197.5Q588 199 581 211Q576 219 580.5 236.0Q585 253 593.5 272.5Q602 292 612 308Q626 331 638.5 337.5Q651 344 658 344Z" fill="#ff6e45" stroke="none" transform="scale(1,-1) translate(0,-256)" /></svg>