<?xml version="1.0" encoding="utf-8" ?>
<svg baseProfile="full" height="256" version="1.1" width="256" xmlns="http://www.w3.org/2000/svg" xmlns:ev="http://www.w3.org/2001/xml-events" xmlns:xlink="http://www.w3.org/1999/xlink"><defs /><path d="M273 118Q279 124 286.5 121.5Q294 119 298 112Q301 107 301.5 101.0Q302 95 296 91Q292 87 284.5 88.0Q277 89 272 95Q269 99 268.0 105.5Q267 112 273 118Z" fill="#fce9ca" stroke="none" transform="scale(1,-1) translate(0,-256)" /><path d="M296 83Q305 88 310.0 83.0Q315 78 319 70Q325 56 330.5 45.5Q336 35 339 28Q343 18 347.5 16.0Q352 14 355.5 13.0Q359 12 360 3Q362 -4 351.0 -8.0Q340 -12 328 -4Q317 3 311.5 17.5Q306 32 296 51Q291 60 289.5 69.0Q288 78 296 83Z" fill="#fce9ca" stroke="none" transform="scale(1,-1) translate(0,-256)" /><path d="M560 16Q573 25 580.5 13.5Q588 2 592 -4Q601 -16 611.0 -17.5Q621 -19 629 -23Q638 -26 638.0 -36.5Q638 -47 626 -51Q609 -55 595.0 -47.5Q581 -40 570 -28Q560 -16 556.0 -3.0Q552 10 560 16Z" fill="#fce9ca" stroke="none" transform="scale(1,-1) translate(0,-256)" /><path d="M825 34Q836 42 844.0 29.5Q852 17 857 10Q864 1 872.5 -8.0Q881 -17 874 -24Q864 -34 850.5 -23.0Q837 -12 832 -3Q826 5 821.5 16.0Q817 27 825 34Z" fill="#fce9ca" stroke="none" transform="scale(1,-1) translate(0,-256)" /><path d="M806 64Q810 67 815.5 66.0Q821 65 823 61Q826 58 827.5 52.5Q829 47 824 43Q819 38 812.0 39.5Q805 41 803 46Q801 49 801.0 54.5Q801 60 806 64Z" fill="#fce9ca" stroke="none" transform="scale(1,-1) translate(0,-256)" /></svg>