<?xml version="1.0" encoding="utf-8" ?>
<svg baseProfile="full" height="256" version="1.1" width="256" xmlns="http://www.w3.org/2000/svg" xmlns:ev="http://www.w3.org/2001/xml-events" xmlns:xlink="http://www.w3.org/1999/xlink"><defs /><path d="M637 912Q752 910 853.0 870.0Q954 830 1030.5 757.0Q1107 684 1151.5 581.5Q1196 479 1199 353Q1201 226 1160.5 122.5Q1120 19 1045.0 -55.5Q970 -130 869.0 -170.0Q768 -210 650 -211Q537 -212 436.5 -178.5Q336 -145 256.5 -77.5Q177 -10 129.0 91.0Q81 192 73 326Q68 418 93.0 504.5Q118 591 168.5 665.5Q219 740 290.0 796.0Q361 852 449.0 882.5Q537 913 637 912Z" fill="#c8c8c8" stroke="none" transform="scale(1,-1) translate(0,-256)" /></svg>