<?xml version="1.0" encoding="utf-8" ?>
<svg baseProfile="full" height="256" version="1.1" width="256" xmlns="http://www.w3.org/2000/svg" xmlns:ev="http://www.w3.org/2001/xml-events" xmlns:xlink="http://www.w3.org/1999/xlink"><defs /><path d="M608 577 627 609Q625 610 600.0 624.0Q575 638 538.5 656.0Q502 674 467 687Q413 707 377.5 717.5Q342 728 341 728L331 692Q332 692 366.5 682.0Q401 672 454 652Q487 640 523.0 622.0Q559 604 583.5 590.5Q608 577 608 577Z" fill="#171717" stroke="none" transform="scale(1,-1) translate(0,-256)" /><path d="M760.8656768798828 674.5200042724609 796.9514007568359 664.3946685791016 847.9542541503906 846.4147186279297 811.8685302734375 856.5400543212891Z" fill="#171717" stroke="none" transform="scale(1,-1) translate(0,-256)" /><path d="M1140 439 1153 474Q1152 475 1119.5 486.5Q1087 498 1044 509Q1022 515 1000.0 520.5Q978 526 962.0 529.0Q946 532 945 533L938 496Q938 496 953.5 492.5Q969 489 991.0 484.0Q1013 479 1034 473Q1076 462 1108.0 450.5Q1140 439 1140 439Z" fill="#171717" stroke="none" transform="scale(1,-1) translate(0,-256)" /><path d="M845 71 882 74Q882 76 878.5 112.5Q875 149 866 194Q860 225 852.0 252.0Q844 279 838.0 295.5Q832 312 831 314L796 300Q797 300 802.5 283.5Q808 267 815.5 241.5Q823 216 829 187Q835 158 838.5 131.5Q842 105 843.5 88.0Q845 71 845 71Z" fill="#171717" stroke="none" transform="scale(1,-1) translate(0,-256)" /><path d="M1031 19Q1033 20 1057.5 44.5Q1082 69 1118 117Q1151 162 1166.5 195.5Q1182 229 1183 230L1148 244Q1148 243 1133.0 212.0Q1118 181 1088 139Q1054 94 1030.5 70.5Q1007 47 1007 47Z" fill="#171717" stroke="none" transform="scale(1,-1) translate(0,-256)" /><path d="M345.10472106933594 210.1903076171875 370.0298309326172 182.22994995117188 586.90185546875 375.81256103515625 561.9767456054688 403.7729187011719Z" fill="#171717" stroke="none" transform="scale(1,-1) translate(0,-256)" /><path d="M159 262 196 268Q196 268 192.5 293.0Q189 318 186.0 356.0Q183 394 183 432Q183 470 185.5 504.5Q188 539 190.0 560.5Q192 582 192 583L155 587Q155 586 152.5 563.5Q150 541 148.0 506.5Q146 472 146 432Q146 392 149.0 354.0Q152 316 155.0 290.0Q158 264 159 262Z" fill="#171717" stroke="none" transform="scale(1,-1) translate(0,-256)" /><path d="M706 -115 711 -78Q710 -78 670.0 -71.0Q630 -64 558 -43Q528 -34 498.0 -21.0Q468 -8 447.5 2.0Q427 12 427 12L409 -21Q411 -21 432.0 -32.0Q453 -43 484.5 -56.5Q516 -70 548 -79Q622 -101 663.0 -108.0Q704 -115 706 -115Z" fill="#171717" stroke="none" transform="scale(1,-1) translate(0,-256)" /></svg>