<?xml version="1.0" encoding="utf-8" ?>
<svg baseProfile="full" height="256" version="1.1" width="256" xmlns="http://www.w3.org/2000/svg" xmlns:ev="http://www.w3.org/2001/xml-events" xmlns:xlink="http://www.w3.org/1999/xlink"><defs /><path d="M538 643Q539 646 564.5 656.0Q590 666 627.5 678.0Q665 690 702.5 702.0Q740 714 766.5 721.5Q793 729 795 728Q798 728 812.0 712.5Q826 697 846.5 672.0Q867 647 889.5 619.5Q912 592 932.0 566.5Q952 541 964.5 524.0Q977 507 977 505Q977 503 962.5 479.0Q948 455 926.5 421.0Q905 387 883.0 353.5Q861 320 844.5 297.0Q828 274 825 273Q822 272 801.0 278.0Q780 284 748.5 294.0Q717 304 682.5 316.0Q648 328 617.0 339.0Q586 350 566.0 357.5Q546 365 545 367Q543 369 541.5 397.0Q540 425 539.0 465.0Q538 505 537.5 545.0Q537 585 537.0 613.0Q537 641 538 643Z" fill="#474c4f" stroke="none" transform="scale(1,-1) translate(0,-256)" /><path d="M1138 611Q1138 611 1149.5 587.0Q1161 563 1174.5 517.0Q1188 471 1195 405Q1202 339 1196.5 286.0Q1191 233 1183.5 201.5Q1176 170 1176 170Q1176 170 1167.5 170.0Q1159 170 1149.0 170.0Q1139 170 1135 172Q1133 174 1133.5 191.0Q1134 208 1135.5 234.0Q1137 260 1137.0 289.0Q1137 318 1133 343Q1125 393 1112.0 429.5Q1099 466 1099 473Q1099 477 1105.0 498.0Q1111 519 1118.5 545.5Q1126 572 1132.0 591.5Q1138 611 1138 611Z" fill="#474c4f" stroke="none" transform="scale(1,-1) translate(0,-256)" /><path d="M859 100Q862 100 882.0 96.5Q902 93 930.5 88.0Q959 83 986.5 78.0Q1014 73 1033.5 69.5Q1053 66 1054 65Q1056 65 1055.0 47.0Q1054 29 1052.0 5.5Q1050 -18 1048.0 -36.0Q1046 -54 1046 -54Q1046 -54 1017.0 -82.5Q988 -111 919 -148Q873 -173 828.5 -185.5Q784 -198 755.0 -202.0Q726 -206 726 -206Q726 -206 718.0 -194.0Q710 -182 698.0 -164.5Q686 -147 674.0 -129.0Q662 -111 654.0 -98.0Q646 -85 646 -83Q645 -82 660.0 -68.5Q675 -55 698.5 -34.0Q722 -13 749.0 10.0Q776 33 800.5 53.5Q825 74 841.0 87.0Q857 100 859 100Z" fill="#474c4f" stroke="none" transform="scale(1,-1) translate(0,-256)" /><path d="M170 321Q173 323 191.0 315.0Q209 307 234.0 295.0Q259 283 282 274Q306 265 331.0 256.0Q356 247 374.0 241.0Q392 235 395 233Q398 231 400.5 212.0Q403 193 407.5 165.0Q412 137 419 109Q427 80 436.0 50.5Q445 21 451.0 0.0Q457 -21 457 -25Q456 -27 437.0 -34.0Q418 -41 390.5 -50.5Q363 -60 335.5 -69.0Q308 -78 289.0 -83.5Q270 -89 270 -89Q270 -89 254.0 -75.5Q238 -62 214.5 -38.0Q191 -14 170 17Q152 43 139.0 70.5Q126 98 118.5 117.0Q111 136 111 136Q111 136 114.5 159.0Q118 182 125 210Q129 229 138.5 254.5Q148 280 157.5 299.5Q167 319 170 321Z" fill="#474c4f" stroke="none" transform="scale(1,-1) translate(0,-256)" /><path d="M111 557Q111 557 122.5 582.5Q134 608 158.5 649.0Q183 690 223 735Q252 770 285.0 794.5Q318 819 346.5 835.5Q375 852 393.0 860.0Q411 868 411 868Q411 868 408.0 851.0Q405 834 400.5 809.5Q396 785 391.5 760.0Q387 735 384.0 717.0Q381 699 380 697Q379 692 354.0 675.5Q329 659 278 619Q253 599 230.0 574.0Q207 549 191.0 531.0Q175 513 171 513Q167 513 152.5 524.0Q138 535 124.5 546.0Q111 557 111 557Z" fill="#474c4f" stroke="none" transform="scale(1,-1) translate(0,-256)" /><path d="M666 911Q666 911 691.0 909.0Q716 907 754.0 900.0Q792 893 834 878Q868 866 897.5 850.5Q927 835 945.5 823.5Q964 812 964 812Q964 812 943.0 812.0Q922 812 894.5 812.0Q867 812 844.0 812.0Q821 812 818 813Q813 813 801.5 822.5Q790 832 776.5 843.5Q763 855 751 863Q740 871 719.5 882.5Q699 894 682.5 902.5Q666 911 666 911Z" fill="#474c4f" stroke="none" transform="scale(1,-1) translate(0,-256)" /></svg>