<?xml version="1.0" encoding="utf-8" ?>
<svg baseProfile="full" height="256" version="1.1" width="256" xmlns="http://www.w3.org/2000/svg" xmlns:ev="http://www.w3.org/2001/xml-events" xmlns:xlink="http://www.w3.org/1999/xlink"><defs /><path d="M761 -30 773 17 831 -22Q831 -22 824.0 -25.0Q817 -28 806 -29Q795 -30 778.0 -30.0Q761 -30 761 -30Z" fill="#f19534" stroke="none" transform="scale(1,-1) translate(0,-256)" /><path d="M629 106Q626 114 616.0 116.5Q606 119 596 114Q585 110 579.5 101.5Q574 93 577 85Q580 77 590.0 74.5Q600 72 611 77Q621 81 626.5 89.5Q632 98 629 106Z" fill="#f19534" stroke="none" transform="scale(1,-1) translate(0,-256)" /></svg>