<?xml version="1.0" encoding="utf-8" ?>
<svg baseProfile="full" height="256" version="1.1" width="256" xmlns="http://www.w3.org/2000/svg" xmlns:ev="http://www.w3.org/2001/xml-events" xmlns:xlink="http://www.w3.org/1999/xlink"><defs /><path d="M278 523H365Q351 499 331.0 489.0Q311 479 295.5 477.5Q280 476 279 476V-203Q279 -206 276 -209Q273 -210 268.0 -212.0Q263 -214 257 -214Q251 -214 246.0 -212.0Q241 -210 239 -209Q236 -207 236 -203V488Q236 488 222.5 496.0Q209 504 195.5 522.0Q182 540 182 570Q182 607 195.0 622.5Q208 638 227 631Q233 630 238.5 622.0Q244 614 242 591Q240 575 247.5 552.5Q255 530 278 523Z" fill="#ffb74d" stroke="none" transform="scale(1,-1) translate(0,-256)" /></svg>