<?xml version="1.0" encoding="utf-8" ?>
<svg baseProfile="full" height="256" version="1.1" width="256" xmlns="http://www.w3.org/2000/svg" xmlns:ev="http://www.w3.org/2001/xml-events" xmlns:xlink="http://www.w3.org/1999/xlink"><defs /><path d="M1024 -4 654 -193Q648 -196 642 -196H312Q312 -196 297.5 -203.5Q283 -211 273 -213Q263 -214 260.0 -214.0Q257 -214 257 -214L271 -196H101Q98 -196 97.5 -193.0Q97 -190 99 -189L452 -4Z" fill="#000000" stroke="none" transform="scale(1,-1) translate(0,-256)" /><path d="M787.2781677246094 68.68215942382812Q787.2781677246094 68.68215942382812 766.6016387939453 74.88572692871094Q745.9251098632812 81.08929443359375 716.1654205322266 68.7861328125Q703.8391265869141 63.488616943359375 707.4862213134766 57.26776123046875Q711.1333160400391 51.046905517578125 718.8603210449219 46.09272003173828Q726.5873260498047 41.13853454589844 726.5873260498047 41.13853454589844Q726.5873260498047 41.13853454589844 728.5349349975586 31.51006317138672Q730.4825439453125 21.881591796875 737.9787139892578 12.934059143066406Q745.4748840332031 3.9865264892578125 760.6807708740234 7.1142425537109375Q778.9393768310547 11.067169189453125 783.7983551025391 25.811386108398438Q788.6573333740234 40.55560302734375 787.9677505493164 54.61888122558594Q787.2781677246094 68.68215942382812 787.2781677246094 68.68215942382812Z" fill="#000000" stroke="none" transform="scale(1,-1) translate(0,-256)" /></svg>