<?xml version="1.0" encoding="utf-8" ?>
<svg baseProfile="full" height="256" version="1.1" width="256" xmlns="http://www.w3.org/2000/svg" xmlns:ev="http://www.w3.org/2001/xml-events" xmlns:xlink="http://www.w3.org/1999/xlink"><defs /><path d="M856 124 859 36 529 -163Q513 -168 503.5 -161.5Q494 -155 493 -144L489 -26Q489 -19 493 -13L578 144Q586 158 601 157H657Q661 157 662 153Q663 146 668 142Q675 134 686.0 133.5Q697 133 705 141Q711 146 713 153Q715 156 719 156L815 155Q843 155 849.5 144.0Q856 133 856 124Z" fill="#ffc107" stroke="none" transform="scale(1,-1) translate(0,-256)" /><path d="M705.9890594482422 -20.3250732421875Q705.5616912841797 -7.0697021484375 697.5266723632812 2.070220947265625Q689.4916534423828 11.21014404296875 677.8932037353516 10.836196899414062Q666.8470611572266 10.480056762695312 659.1413269042969 0.8326339721679688Q651.4355926513672 -8.814788818359375 651.8629608154297 -22.070159912109375Q652.2903289794922 -35.325531005859375 660.6015014648438 -44.45655059814453Q668.9126739501953 -53.58757019042969 679.9588165283203 -53.23143005371094Q691.5572662353516 -52.85748291015625 698.9868469238281 -43.218963623046875Q706.4164276123047 -33.5804443359375 705.9890594482422 -20.3250732421875Z" fill="#ffc107" stroke="none" transform="scale(1,-1) translate(0,-256)" /></svg>