<?xml version="1.0" encoding="utf-8" ?>
<svg baseProfile="full" height="256" version="1.1" width="256" xmlns="http://www.w3.org/2000/svg" xmlns:ev="http://www.w3.org/2001/xml-events" xmlns:xlink="http://www.w3.org/1999/xlink"><defs /><path d="M157 398 319 434 1009 351 1178 507Q1178 507 1178.5 520.0Q1179 533 1178.5 550.0Q1178 567 1176.0 580.5Q1174 594 1169 595Q1163 596 1149.5 583.0Q1136 570 1121.5 553.0Q1107 536 1095 524Q1083 513 1065.0 497.5Q1047 482 1031.0 471.0Q1015 460 1009 462Q1000 465 989.0 494.0Q978 523 956 556Q934 589 915.0 610.0Q896 631 891 641Q886 651 890.5 671.5Q895 692 915 713Q928 727 944.5 731.0Q961 735 973.5 736.5Q986 738 986 745Q986 748 963.0 761.5Q940 775 897.5 789.0Q855 803 797.0 810.5Q739 818 669.5 810.5Q600 803 522 772Q436 738 374.0 690.5Q312 643 270.0 592.0Q228 541 203.0 497.0Q178 453 167.5 425.5Q157 398 157 398Z" fill="#008c9a" stroke="none" transform="scale(1,-1) translate(0,-256)" /></svg>