<?xml version="1.0" encoding="utf-8" ?>
<svg baseProfile="full" height="256" version="1.1" width="256" xmlns="http://www.w3.org/2000/svg" xmlns:ev="http://www.w3.org/2001/xml-events" xmlns:xlink="http://www.w3.org/1999/xlink"><defs /><path d="M572 18 630 -1Q630 -1 639.5 -18.5Q649 -36 659 -49Q681 -75 702.5 -92.0Q724 -109 721 -120Q719 -128 693.0 -126.5Q667 -125 631.5 -116.5Q596 -108 565 -96Q528 -82 499.0 -60.0Q470 -38 453.5 -21.0Q437 -4 437 -4Z" fill="#a1a40a" stroke="none" transform="scale(1,-1) translate(0,-256)" /><path d="M815 63 840 84Q840 84 849.5 74.0Q859 64 871.0 51.5Q883 39 891 32Q905 18 921.5 8.5Q938 -1 948.5 -9.0Q959 -17 957 -26Q956 -33 935.0 -36.5Q914 -40 882.5 -40.0Q851 -40 818 -35Q792 -31 769.0 -22.5Q746 -14 732.0 -7.0Q718 0 718 0Z" fill="#a1a40a" stroke="none" transform="scale(1,-1) translate(0,-256)" /><path d="M128 259 159 255Q159 255 152.0 246.5Q145 238 143 234Q140 231 133.0 222.5Q126 214 123 214Q120 214 111.5 218.0Q103 222 103 232Q104 237 108.5 240.0Q113 243 116 246Q119 249 123.5 254.0Q128 259 128 259Z" fill="#a1a40a" stroke="none" transform="scale(1,-1) translate(0,-256)" /></svg>