<?xml version="1.0" encoding="utf-8" ?>
<svg baseProfile="full" height="256" version="1.1" width="256" xmlns="http://www.w3.org/2000/svg" xmlns:ev="http://www.w3.org/2001/xml-events" xmlns:xlink="http://www.w3.org/1999/xlink"><defs /><path d="M673 149Q665 146 656.5 146.5Q648 147 648 147Q648 147 654.0 163.5Q660 180 667.0 205.5Q674 231 679 259Q683 286 681.5 314.0Q680 342 677.5 361.0Q675 380 675 380Q675 380 684.0 379.0Q693 378 698 375Q702 372 707.0 363.0Q712 354 715.0 332.5Q718 311 715 269Q709 207 695.0 179.5Q681 152 673 149Z" fill="#fff0ad" stroke="none" transform="scale(1,-1) translate(0,-256)" /></svg>