<?xml version="1.0" encoding="utf-8" ?>
<svg baseProfile="full" height="256" version="1.1" width="256" xmlns="http://www.w3.org/2000/svg" xmlns:ev="http://www.w3.org/2001/xml-events" xmlns:xlink="http://www.w3.org/1999/xlink"><defs /><path d="M367 80Q367 80 382.5 66.0Q398 52 428.5 36.0Q459 20 503 15Q550 9 584.5 15.5Q619 22 638.0 30.0Q657 38 657 38Q657 38 665.0 28.0Q673 18 695.0 4.0Q717 -10 757 -22Q789 -32 826.0 -32.0Q863 -32 898.0 -24.0Q933 -16 958 0Q985 17 999.5 35.5Q1014 54 1019.0 67.0Q1024 80 1024 80Q1024 80 1045.5 82.0Q1067 84 1096.5 91.0Q1126 98 1148 113Q1177 132 1187.0 155.5Q1197 179 1197.5 196.0Q1198 213 1198 213Q1198 213 1175.5 199.0Q1153 185 1110 179Q1080 174 1059.5 178.5Q1039 183 1027.5 189.5Q1016 196 1014 196Q1010 195 996.5 183.0Q983 171 960.0 155.5Q937 140 904.5 129.0Q872 118 830 119Q775 120 744.0 130.0Q713 140 700.5 149.5Q688 159 688 159Q688 159 676.5 150.5Q665 142 643.0 132.5Q621 123 588.0 119.0Q555 115 512 124Q466 134 441.0 148.5Q416 163 406.0 174.0Q396 185 396 185Q396 185 368.0 184.5Q340 184 297.5 185.5Q255 187 211 193Q168 199 139.0 212.5Q110 226 95.5 237.0Q81 248 81 248Q81 248 78.5 236.0Q76 224 77.0 205.0Q78 186 87.5 165.0Q97 144 119 126Q157 97 200.0 86.0Q243 75 281.0 74.0Q319 73 343.0 76.5Q367 80 367 80Z" fill="#bacdd2" stroke="none" transform="scale(1,-1) translate(0,-256)" /></svg>