<?xml version="1.0" encoding="utf-8" ?>
<svg baseProfile="full" height="256" version="1.1" width="256" xmlns="http://www.w3.org/2000/svg" xmlns:ev="http://www.w3.org/2001/xml-events" xmlns:xlink="http://www.w3.org/1999/xlink"><defs /><path d="M257 366Q251 360 236.0 360.0Q221 360 199.0 357.0Q177 354 149 338Q117 320 102.0 296.5Q87 273 83.0 253.0Q79 233 81 223Q82 219 110.5 208.5Q139 198 184.0 184.0Q229 170 279.5 156.0Q330 142 374.5 129.5Q419 117 447.0 109.5Q475 102 475 102H919L1196 188Q1196 188 1198.0 201.5Q1200 215 1195.0 240.5Q1190 266 1168 301Q1146 336 1118.0 350.5Q1090 365 1068.5 368.0Q1047 371 1045 374Q1043 377 1047.5 403.0Q1052 429 1051.5 475.0Q1051 521 1033 581Q1019 631 984.0 669.0Q949 707 899.5 730.5Q850 754 792.5 760.0Q735 766 677 750Q630 737 597.0 713.0Q564 689 541.5 660.0Q519 631 505.5 604.5Q492 578 485.5 561.0Q479 544 476 543Q473 542 461.5 546.0Q450 550 430.5 551.5Q411 553 385.5 545.5Q360 538 329 515Q297 492 283.0 467.0Q269 442 264.5 420.0Q260 398 260.0 383.0Q260 368 257 366Z" fill="#e4eaee" stroke="none" transform="scale(1,-1) translate(0,-256)" /></svg>