<?xml version="1.0" encoding="utf-8" ?>
<svg baseProfile="full" height="256" version="1.1" width="256" xmlns="http://www.w3.org/2000/svg" xmlns:ev="http://www.w3.org/2001/xml-events" xmlns:xlink="http://www.w3.org/1999/xlink"><defs /><path d="M212 -131Q203 -133 205 -142Q206 -146 209 -148Q212 -150 216 -149Q281 -135 298 -37Q306 11 302 56Q302 60 299 62Q297 65 292 64Q283 63 284 54Q287 12 280 -34Q265 -120 212 -131Z" fill="#757575" stroke="none" transform="scale(1,-1) translate(0,-256)" /><path d="M162 -213Q164 -213 166.0 -213.0Q168 -213 170 -214Q177 -214 183.0 -213.0Q189 -212 194 -207Q195 -206 196.0 -205.0Q197 -204 199 -203Q201 -202 207 -204Q226 -209 241 -201Q249 -197 253.5 -189.0Q258 -181 257 -172Q278 -175 292 -159Q306 -144 301 -124Q312 -117 317.5 -104.0Q323 -91 319 -78Q317 -73 318 -72Q319 -71 320 -69Q328 -61 326.0 -49.0Q324 -37 321 -28Q317 -19 308.0 -12.5Q299 -6 286 -8Q267 -11 261.5 -23.0Q256 -35 253.5 -49.0Q251 -63 240 -72Q235 -77 229.5 -82.5Q224 -88 224 -96Q224 -99 224.5 -102.0Q225 -105 225 -108Q225 -116 220 -119Q217 -120 211 -118Q201 -116 190.0 -117.5Q179 -119 174 -127Q172 -130 171.0 -132.0Q170 -134 168 -135Q162 -139 156 -132Q154 -129 152.5 -126.0Q151 -123 149 -120Q144 -109 131.5 -100.5Q119 -92 106 -92L104 -45Q104 -45 90.5 -46.5Q77 -48 68 -60Q59 -70 55.5 -86.5Q52 -103 58 -115Q59 -117 60.0 -118.5Q61 -120 61 -122Q61 -124 60.5 -126.5Q60 -129 59 -131Q56 -143 61.5 -150.0Q67 -157 73 -166Q77 -173 79.0 -181.0Q81 -189 88 -194Q103 -206 121 -201Q126 -200 128 -200Q131 -200 133.0 -202.0Q135 -204 137 -206Q142 -210 148.5 -211.5Q155 -213 162 -213Z" fill="#757575" stroke="none" transform="scale(1,-1) translate(0,-256)" /><path d="M373 591Q360 601 342.5 601.0Q325 601 306 595Q291 590 285.5 574.5Q280 559 297 551Q301 550 308 549Q338 546 366 559Q372 562 376.5 566.5Q381 571 381 578Q381 585 373 591Z" fill="#757575" stroke="none" transform="scale(1,-1) translate(0,-256)" /></svg>