<?xml version="1.0" encoding="utf-8" ?>
<svg baseProfile="full" height="256" version="1.1" width="256" xmlns="http://www.w3.org/2000/svg" xmlns:ev="http://www.w3.org/2001/xml-events" xmlns:xlink="http://www.w3.org/1999/xlink"><defs /><path d="M1133 -48Q1171 -48 1188.5 -39.0Q1206 -30 1210.5 -11.5Q1215 7 1215 35L1159 505Q1158 519 1144.0 538.0Q1130 557 1095 557H224Q190 557 171.5 543.0Q153 529 146 490L104 35Q96 -48 187 -48Z" fill="#424242" stroke="none" transform="scale(1,-1) translate(0,-256)" /><path d="M290 31Q321 31 348.0 45.5Q375 60 389 84Q403 107 406.0 137.5Q409 168 401 192Q397 202 388.5 211.5Q380 221 369.5 222.5Q359 224 349 212Q343 204 340.5 194.0Q338 184 336 175Q332 158 323.5 142.5Q315 127 301 117Q282 104 257.0 104.5Q232 105 209 112Q203 114 196.5 115.5Q190 117 185 114Q180 110 186.0 96.5Q192 83 196 77Q212 56 237.0 43.5Q262 31 290 31Z" fill="#424242" stroke="none" transform="scale(1,-1) translate(0,-256)" /><path d="M320 -69Q318 -70 318 -71Q317 -73 319 -77Q323 -90 317.5 -103.5Q312 -117 300 -123Q306 -143 292 -159Q278 -174 257 -171Q260 -190 241 -200Q226 -208 206 -203Q201 -202 198 -203Q197 -203 196.0 -204.5Q195 -206 194 -207Q189 -211 182.5 -212.0Q176 -213 170 -213Q168 -213 166.0 -213.0Q164 -213 162 -213Q155 -213 148.5 -211.5Q142 -210 137 -206Q135 -204 133.0 -202.0Q131 -200 128 -200Q127 -199 121 -201Q103 -206 88 -194Q81 -188 78.0 -182.0Q75 -176 73 -166Q73 -166 64.5 -155.5Q56 -145 57 -133Q58 -122 62.5 -115.0Q67 -108 71 -104Q82 -93 95 -95Q102 -96 101 -100Q100 -102 98 -103Q80 -113 72.5 -128.0Q65 -143 75 -163Q78 -168 82.0 -172.0Q86 -176 91 -180Q99 -186 107.0 -188.5Q115 -191 111 -175Q108 -162 114.0 -149.0Q120 -136 131 -129Q139 -124 146 -125Q155 -127 156 -136Q156 -142 146.5 -152.0Q137 -162 133 -169Q131 -174 130.5 -181.5Q130 -189 134 -192Q147 -202 161.5 -202.0Q176 -202 185 -197Q164 -178 167 -150Q168 -140 174 -139Q178 -137 181.5 -141.0Q185 -145 187 -150Q190 -160 189.5 -171.0Q189 -182 195 -188Q204 -196 218 -191Q232 -187 245 -176Q224 -175 217 -155Q211 -136 217.0 -125.5Q223 -115 224 -114Q225 -114 227.5 -130.5Q230 -147 251 -165Q254 -168 261.5 -166.5Q269 -165 273 -162Q279 -155 283.5 -146.0Q288 -137 285 -128Q283 -120 276.5 -114.0Q270 -108 263 -103Q256 -98 250.0 -91.5Q244 -85 243 -76Q260 -75 275 -89Q281 -95 286.0 -102.0Q291 -109 295 -117Q295 -117 304.0 -105.5Q313 -94 311 -78Q311 -74 308 -69Q295 -49 273 -40Q266 -38 267 -34Q268 -32 272 -32Q294 -26 308 -44Q310 -46 315.0 -51.0Q320 -56 326 -52Q326 -52 325.5 -58.0Q325 -64 320 -69Z" fill="#424242" stroke="none" transform="scale(1,-1) translate(0,-256)" /></svg>