<?xml version="1.0" encoding="utf-8" ?>
<svg baseProfile="full" height="256" version="1.1" width="256" xmlns="http://www.w3.org/2000/svg" xmlns:ev="http://www.w3.org/2001/xml-events" xmlns:xlink="http://www.w3.org/1999/xlink"><defs /><path d="M796 412Q814 412 827.0 423.0Q840 434 839 455Q839 476 826.5 486.5Q814 497 796 497H541Q523 497 510.0 486.5Q497 476 497 455Q497 434 510.0 423.0Q523 412 541 412Z" fill="#7cb342" stroke="none" transform="scale(1,-1) translate(0,-256)" /><path d="M1047.1921997070312 57.75782775878906Q1047.2006225585938 71.93586730957031 1034.8015060424805 83.16751861572266Q1022.4023895263672 94.399169921875 1004.6798400878906 94.40969848632812Q988.1387939453125 94.41952514648438 975.7263412475586 83.2026138305664Q963.3138885498047 71.98570251464844 963.3054656982422 57.80766296386719Q963.2963409423828 42.4481201171875 975.6954574584961 31.216468811035156Q988.0945739746094 19.984817504882812 1004.6356201171875 19.974990844726562Q1022.3581695556641 19.964462280273438 1034.770622253418 31.181373596191406Q1047.1830749511719 42.398284912109375 1047.1921997070312 57.75782775878906Z" fill="#7cb342" stroke="none" transform="scale(1,-1) translate(0,-256)" /></svg>