<?xml version="1.0" encoding="utf-8" ?>
<svg baseProfile="full" height="256" version="1.1" width="256" xmlns="http://www.w3.org/2000/svg" xmlns:ev="http://www.w3.org/2001/xml-events" xmlns:xlink="http://www.w3.org/1999/xlink"><defs /><path d="M1048 808Q1100 756 1126.0 690.5Q1152 625 1152.5 555.5Q1153 486 1126.5 420.5Q1100 355 1048 303Q993 248 924.0 222.0Q855 196 782.5 198.5Q710 201 643 232L587 176Q570 159 552.5 152.5Q535 146 510 145Q497 145 482.5 140.0Q468 135 460 124Q451 112 446.0 97.5Q441 83 444 65Q446 54 443.5 41.5Q441 29 429 18L425 14Q407 -5 380 4Q349 13 331 -5Q316 -20 321 -45Q324 -64 317.0 -82.5Q310 -101 297 -115L267 -145Q241 -171 204 -170L111 -162Q111 -162 110.0 -152.5Q109 -143 104.5 -132.0Q100 -121 90 -115L86 -5Q85 32 111 59L468 413Q439 478 438.0 549.0Q437 620 463.0 687.0Q489 754 543 808Q595 860 660.5 886.5Q726 913 795.5 913.0Q865 913 930.5 886.5Q996 860 1048 808ZM920 543Q949 572 949.0 612.0Q949 652 920 680Q892 709 852.0 709.0Q812 709 783 680Q755 652 755.0 612.0Q755 572 783 543Q812 515 852.0 515.0Q892 515 920 543Z" fill="#ffca28" stroke="none" transform="scale(1,-1) translate(0,-256)" /></svg>