<?xml version="1.0" encoding="utf-8" ?>
<svg baseProfile="full" height="256" version="1.1" width="256" xmlns="http://www.w3.org/2000/svg" xmlns:ev="http://www.w3.org/2001/xml-events" xmlns:xlink="http://www.w3.org/1999/xlink"><defs /><path d="M273 479Q273 479 266.0 446.5Q259 414 263 357Q266 324 278.5 292.0Q291 260 305.5 234.0Q320 208 330.5 191.5Q341 175 339 173Q337 171 318.0 181.0Q299 191 274.5 212.0Q250 233 230.0 263.5Q210 294 206 333Q203 375 212.5 403.5Q222 432 236.0 448.5Q250 465 261.5 472.0Q273 479 273 479Z" fill="#2e5128" stroke="none" transform="scale(1,-1) translate(0,-256)" /><path d="M529 565Q529 565 528.5 565.0Q528 565 528 565L418 584L304 591Q304 591 297.0 611.5Q290 632 281 656Q274 675 263.5 694.5Q253 714 247 722Q245 724 240.5 726.5Q236 729 233 726Q231 722 229.0 686.0Q227 650 234 603Q242 550 258.5 519.5Q275 489 275 489Q275 489 278.5 496.5Q282 504 285 508Q288 511 291.0 515.5Q294 520 294 520Q294 520 303.5 510.5Q313 501 325.5 479.5Q338 458 348 421Q361 371 384.5 347.0Q408 323 438 318Q459 315 472.5 320.0Q486 325 493.0 332.0Q500 339 500 339L537 372Q537 372 550.0 379.5Q563 387 568 417Q572 439 569.0 453.0Q566 467 566 467Z" fill="#2e5128" stroke="none" transform="scale(1,-1) translate(0,-256)" /><path d="M976 642Q976 642 976.0 642.0Q976 642 976 642Q959 607 944.5 590.5Q930 574 930 574L894 575L776 576L709 496Q709 496 699.5 476.5Q690 457 691 433Q691 406 698.5 394.5Q706 383 713.5 380.5Q721 378 721 378Q721 378 726.5 368.5Q732 359 754 341Q776 323 805.0 321.5Q834 320 860 338Q883 353 894.5 378.0Q906 403 912.0 428.5Q918 454 924 472Q933 495 947.5 511.5Q962 528 962 528Q962 528 967.0 522.5Q972 517 975 512Q979 506 983.0 500.0Q987 494 990 489Q993 490 1000.0 507.5Q1007 525 1014.5 547.5Q1022 570 1027 587Q1031 604 1034.0 627.5Q1037 651 1038.0 671.0Q1039 691 1039 696Q1038 703 1034.5 710.5Q1031 718 1027 718Q1022 718 1008.0 697.5Q994 677 976 642Z" fill="#2e5128" stroke="none" transform="scale(1,-1) translate(0,-256)" /><path d="M993 485Q993 485 992.5 485.0Q992 485 992 485Q992 485 1003.5 479.0Q1015 473 1029.5 459.0Q1044 445 1055.0 421.5Q1066 398 1065 363Q1064 318 1045.5 285.5Q1027 253 1002.5 232.5Q978 212 960.0 202.5Q942 193 942 193Q942 193 957.5 216.5Q973 240 987 271Q1004 309 1009 361Q1012 398 1007.5 426.0Q1003 454 998.0 469.5Q993 485 993 485Z" fill="#2e5128" stroke="none" transform="scale(1,-1) translate(0,-256)" /></svg>