<?xml version="1.0" encoding="utf-8" ?>
<svg baseProfile="full" height="256" version="1.1" width="256" xmlns="http://www.w3.org/2000/svg" xmlns:ev="http://www.w3.org/2001/xml-events" xmlns:xlink="http://www.w3.org/1999/xlink"><defs /><path d="M463 280Q463 280 463.0 280.0Q463 280 463 280L632 233L800 275Q800 275 797.0 286.0Q794 297 786.5 311.5Q779 326 764.0 338.0Q749 350 725 352Q700 354 684.5 346.0Q669 338 658.0 329.5Q647 321 636 321Q625 321 617.5 328.5Q610 336 595.0 343.5Q580 351 547 352Q523 353 506.5 342.0Q490 331 480.5 316.5Q471 302 467.0 291.0Q463 280 463 280Z" fill="#5edf70" stroke="none" transform="scale(1,-1) translate(0,-256)" /></svg>