<?xml version="1.0" encoding="utf-8" ?>
<svg baseProfile="full" height="256" version="1.1" width="256" xmlns="http://www.w3.org/2000/svg" xmlns:ev="http://www.w3.org/2001/xml-events" xmlns:xlink="http://www.w3.org/1999/xlink"><defs /><path d="M443 491Q456 504 469.5 496.0Q483 488 489 468Q496 444 492.5 413.5Q489 383 476 371Q462 359 448.5 368.5Q435 378 429 398Q421 425 424.5 451.0Q428 477 443 491Z" fill="#272c34" stroke="none" transform="scale(1,-1) translate(0,-256)" /><path d="M782.75 491.0Q795.75 504.0 809.25 496.0Q822.75 488.0 828.75 468.0Q835.75 444.0 832.25 413.5Q828.75 383.0 815.75 371.0Q801.75 359.0 788.25 368.5Q774.75 378.0 768.75 398.0Q760.75 425.0 764.25 451.0Q767.75 477.0 782.75 491.0Z" fill="#272c34" stroke="none" transform="scale(1,-1) translate(0,-256)" /></svg>