<?xml version="1.0" encoding="utf-8" ?>
<svg baseProfile="full" height="256" version="1.1" width="256" xmlns="http://www.w3.org/2000/svg" xmlns:ev="http://www.w3.org/2001/xml-events" xmlns:xlink="http://www.w3.org/1999/xlink"><defs /><path d="M475 66 476 65Q451 63 448 38Q447 25 455.0 14.5Q463 4 476 3Q502 0 529.0 -2.5Q556 -5 584 -6Q640 -8 696 -1Q725 4 755.0 12.5Q785 21 813 41Q843 61 860 93Q877 123 878 158Q878 183 855 190Q842 193 830.5 186.5Q819 180 816 168V166Q806 127 770 108Q729 88 684 83Q660 79 634.0 77.5Q608 76 582 74Q556 73 529.0 71.0Q502 69 475 66Z" fill="#35220b" stroke="none" transform="scale(1,-1) translate(0,-256)" /></svg>