<?xml version="1.0" encoding="utf-8" ?>
<svg baseProfile="full" height="256" version="1.1" width="256" xmlns="http://www.w3.org/2000/svg" xmlns:ev="http://www.w3.org/2001/xml-events" xmlns:xlink="http://www.w3.org/1999/xlink"><defs /><path d="M515 892Q515 892 508.0 866.0Q501 840 497.0 787.5Q493 735 504 656Q511 605 536.5 538.5Q562 472 605.5 398.0Q649 324 710 251Q742 213 788.0 174.0Q834 135 883.5 100.0Q933 65 976.5 37.0Q1020 9 1047.5 -8.0Q1075 -25 1075 -27Q1076 -30 1065.5 -44.5Q1055 -59 1040.0 -78.0Q1025 -97 1011 -115Q997 -132 976.0 -155.5Q955 -179 936.5 -196.5Q918 -214 912 -213Q909 -212 882.5 -194.0Q856 -176 814.0 -142.5Q772 -109 721.0 -62.5Q670 -16 616.0 42.5Q562 101 513 168Q432 280 389.5 379.0Q347 478 337.5 560.5Q328 643 346 704Q357 742 384.5 776.0Q412 810 442.0 836.0Q472 862 493.5 877.0Q515 892 515 892Z" fill="#ffd54f" stroke="none" transform="scale(1,-1) translate(0,-256)" /></svg>