<?xml version="1.0" encoding="utf-8" ?>
<svg baseProfile="full" height="256" version="1.1" width="256" xmlns="http://www.w3.org/2000/svg" xmlns:ev="http://www.w3.org/2001/xml-events" xmlns:xlink="http://www.w3.org/1999/xlink"><defs /><path d="M588 336Q588 336 604.0 357.0Q620 378 647.0 412.5Q674 447 707.5 487.0Q741 527 777.5 566.5Q814 606 849 637Q906 688 953.0 716.5Q1000 745 1037.5 759.5Q1075 774 1106 782Q1141 791 1153.0 791.5Q1165 792 1171 785Q1178 778 1175.5 762.0Q1173 746 1162 730Q1156 721 1149.0 709.5Q1142 698 1138.0 690.5Q1134 683 1137 686Q1154 696 1163.0 694.0Q1172 692 1177 688Q1180 685 1176.5 673.5Q1173 662 1168.0 652.0Q1163 642 1163 642L1126 581V525L1078 457L997 402L992 347L933 293L923 214L865 166Q865 166 877.5 160.0Q890 154 903 152Q917 150 935.0 149.0Q953 148 969 147Q983 146 1001.5 144.0Q1020 142 1033.5 138.5Q1047 135 1048 131Q1049 124 1042.5 111.5Q1036 99 1027 82Q1020 68 1017.5 47.5Q1015 27 1005.0 -0.5Q995 -28 966 -64Q940 -97 904.5 -116.5Q869 -136 848 -145Q835 -151 821.5 -163.0Q808 -175 801 -175Q797 -176 787.0 -161.0Q777 -146 765.0 -126.0Q753 -106 744.0 -90.5Q735 -75 735 -75Q735 -75 696.5 -80.0Q658 -85 564 -73Q501 -65 448.0 -37.0Q395 -9 358.0 30.5Q321 70 306 111Q288 162 284.0 197.5Q280 233 281.5 253.0Q283 273 282 277Q282 280 271.5 295.0Q261 310 250.5 323.5Q240 337 240 337L236 410Q236 410 248.5 426.0Q261 442 289.5 458.0Q318 474 365 475Q394 475 434.5 460.0Q475 445 507 396Q518 380 537.0 366.0Q556 352 572.0 344.0Q588 336 588 336Z" fill="#e0e0e0" stroke="none" transform="scale(1,-1) translate(0,-256)" /></svg>