<?xml version="1.0" encoding="utf-8" ?>
<svg baseProfile="full" height="256" version="1.1" width="256" xmlns="http://www.w3.org/2000/svg" xmlns:ev="http://www.w3.org/2001/xml-events" xmlns:xlink="http://www.w3.org/1999/xlink"><defs /><path d="M179 456Q179 456 174.5 468.5Q170 481 165.0 497.0Q160 513 157 521Q151 539 135.5 559.5Q120 580 107 600Q99 614 91.0 629.0Q83 644 81.0 656.5Q79 669 89 675Q100 681 112.5 673.5Q125 666 134 656Q144 646 154.0 629.5Q164 613 171.5 596.5Q179 580 182 573Q188 560 191.0 543.0Q194 526 195.5 512.5Q197 499 197 499Q197 499 213.0 502.5Q229 506 251.5 508.0Q274 510 294 506Q310 504 329.5 498.5Q349 493 364.5 487.0Q380 481 383 475Q388 465 383.0 461.0Q378 457 371.0 456.5Q364 456 364 456Q364 456 351.0 453.5Q338 451 323.0 450.0Q308 449 302 453Q279 466 242 467Q233 467 218.0 464.5Q203 462 191.0 459.0Q179 456 179 456Z" fill="#6b7e37" stroke="none" transform="scale(1,-1) translate(0,-256)" /><path d="M242 566 218 548Q218 548 219.5 563.0Q221 578 221 592Q221 614 218.5 636.5Q216 659 212 687Q208 716 217.0 731.0Q226 746 232 749Q242 753 249.5 746.5Q257 740 262 729Q268 712 268.0 684.5Q268 657 266 639Q264 628 258.0 610.5Q252 593 247.0 579.5Q242 566 242 566Z" fill="#6b7e37" stroke="none" transform="scale(1,-1) translate(0,-256)" /><path d="M224 529 248 558Q248 558 266.0 564.0Q284 570 309.0 576.0Q334 582 355 584Q396 588 418.5 576.0Q441 564 449 553Q457 543 450.5 532.0Q444 521 416 520Q397 520 372.0 523.0Q347 526 323.0 529.5Q299 533 283 533Q259 534 241.5 531.5Q224 529 224 529Z" fill="#6b7e37" stroke="none" transform="scale(1,-1) translate(0,-256)" /><path d="M273 257Q273 257 256.5 270.0Q240 283 230 298Q225 306 212.0 332.5Q199 359 197 388Q192 443 206 483Q213 504 230.5 524.5Q248 545 260 559Q272 572 292.0 585.5Q312 599 319 602Q332 608 355.5 622.5Q379 637 399 650Q412 659 425.0 673.0Q438 687 444.0 701.0Q450 715 442 726Q434 737 420.5 734.5Q407 732 392.0 723.0Q377 714 364 704Q358 699 345.0 686.5Q332 674 319.5 661.0Q307 648 301 641Q289 628 274.5 612.5Q260 597 250 587Q240 577 222.0 557.5Q204 538 193 520Q184 506 176.5 488.0Q169 470 168 454Q167 446 165.5 412.5Q164 379 178 338Q187 310 204.5 286.5Q222 263 236.0 249.0Q250 235 250 235Q250 235 255.5 236.5Q261 238 266 242Q271 246 272.0 251.5Q273 257 273 257Z" fill="#6b7e37" stroke="none" transform="scale(1,-1) translate(0,-256)" /></svg>