<?xml version="1.0" encoding="utf-8" ?>
<svg baseProfile="full" height="256" version="1.1" width="256" xmlns="http://www.w3.org/2000/svg" xmlns:ev="http://www.w3.org/2001/xml-events" xmlns:xlink="http://www.w3.org/1999/xlink"><defs /><path d="M913 578Q915 536 905.0 493.0Q895 450 885.5 405.0Q876 360 878 311Q880 277 890.0 238.0Q900 199 912 164Q886 195 841.5 244.0Q797 293 740 353Q693 401 671.5 456.5Q650 512 646 568Q676 570 701 584Q746 609 767.0 662.0Q788 715 789 769Q790 817 788.5 850.5Q787 884 786 901Q785 907 790.0 910.5Q795 914 800 912Q807 909 815.0 905.0Q823 901 830 897Q835 895 842.0 876.0Q849 857 861 813Q873 773 884.5 725.5Q896 678 904.5 637.0Q913 596 913 578Z" fill="#00796b" stroke="none" transform="scale(1,-1) translate(0,-256)" /></svg>