<?xml version="1.0" encoding="utf-8" ?>
<svg baseProfile="full" height="256" version="1.1" width="256" xmlns="http://www.w3.org/2000/svg" xmlns:ev="http://www.w3.org/2001/xml-events" xmlns:xlink="http://www.w3.org/1999/xlink"><defs /><path d="M907 30Q893 19 879.5 5.5Q866 -8 841 -38Q841 -38 835.5 -15.5Q830 7 810.0 43.5Q790 80 744 122Q714 150 667.0 169.5Q620 189 568.0 207.0Q516 225 468.5 248.5Q421 272 389 308Q389 309 389 311Q391 360 381.5 405.0Q372 450 362.0 493.0Q352 536 354 578Q354 592 359.0 620.5Q364 649 372.5 684.5Q381 720 390 757H405Q405 757 403.5 737.0Q402 717 405.5 682.0Q409 647 424.0 601.0Q439 555 472.0 503.0Q505 451 562.5 396.5Q620 342 709 290Q769 255 807.0 213.5Q845 172 866.0 133.0Q887 94 896.0 66.0Q905 38 907 30Z" fill="#214485" stroke="none" transform="scale(1,-1) translate(0,-256)" /></svg>