<?xml version="1.0" encoding="utf-8" ?>
<svg baseProfile="full" height="256" version="1.1" width="256" xmlns="http://www.w3.org/2000/svg" xmlns:ev="http://www.w3.org/2001/xml-events" xmlns:xlink="http://www.w3.org/1999/xlink"><defs /><path d="M646 203Q709 184 748.0 152.5Q787 121 809.5 86.5Q832 52 842.5 23.0Q853 -6 857 -20Q847 -31 835.5 -43.5Q824 -56 811 -71Q776 -111 749.5 -146.5Q723 -182 711 -200Q702 -213 686 -213H580Q564 -213 555 -200Q543 -182 516.5 -146.0Q490 -110 455 -71Q426 -39 398.0 -11.5Q370 16 351.5 32.0Q333 48 333 48Q316 60 324 79Q333 100 347.5 139.5Q362 179 374.5 224.5Q387 270 389 311Q389 323 389 336Q394 331 426.0 308.0Q458 285 514.0 256.0Q570 227 646 203Z" fill="#008deb" stroke="none" transform="scale(1,-1) translate(0,-256)" /></svg>