<?xml version="1.0" encoding="utf-8" ?>
<svg baseProfile="full" height="256" version="1.1" width="256" xmlns="http://www.w3.org/2000/svg" xmlns:ev="http://www.w3.org/2001/xml-events" xmlns:xlink="http://www.w3.org/1999/xlink"><defs /><path d="M1010 645Q1005 651 1011.0 659.0Q1017 667 1023 671Q1028 675 1036.5 677.5Q1045 680 1050 673Q1054 666 1049.0 661.0Q1044 656 1036 652Q1029 647 1022.5 643.0Q1016 639 1010 645Z" fill="#77f7ff" stroke="none" transform="scale(1,-1) translate(0,-256)" /><path d="M1076 596Q1072 603 1084.0 614.0Q1096 625 1111 631Q1126 638 1142.5 637.5Q1159 637 1160 627Q1161 618 1146.0 614.0Q1131 610 1116 604Q1101 599 1090.5 594.5Q1080 590 1076 596Z" fill="#77f7ff" stroke="none" transform="scale(1,-1) translate(0,-256)" /></svg>