<?xml version="1.0" encoding="utf-8" ?>
<svg baseProfile="full" height="256" version="1.1" width="256" xmlns="http://www.w3.org/2000/svg" xmlns:ev="http://www.w3.org/2001/xml-events" xmlns:xlink="http://www.w3.org/1999/xlink"><defs /><path d="M734 512 650 543 638 598Q638 598 646.5 610.5Q655 623 667.5 638.5Q680 654 689 665Q699 675 718.5 693.5Q738 712 759.5 727.5Q781 743 797 743Q817 744 839.5 723.5Q862 703 882 679Q893 667 911.0 642.5Q929 618 947.5 591.5Q966 565 979.0 546.5Q992 528 992 528Q992 528 1004.0 523.5Q1016 519 1030 512Q1050 501 1059.0 490.0Q1068 479 1068 479Q1068 479 1079.0 479.0Q1090 479 1103.5 476.5Q1117 474 1125 467Q1132 460 1132.0 451.0Q1132 442 1132 442L1133 437L1062 413Q1062 413 1051.5 411.0Q1041 409 1014 416Q1000 419 982.5 432.0Q965 445 948.0 461.5Q931 478 917.0 493.0Q903 508 895 515Q884 524 863.5 541.5Q843 559 824.0 573.0Q805 587 800 587Q791 587 783.0 578.0Q775 569 768 558Q754 540 744.0 526.0Q734 512 734 512Z" fill="#fec925" stroke="none" transform="scale(1,-1) translate(0,-256)" /><path d="M223 238 279 193 481 195 543 308Q543 308 536.5 334.5Q530 361 503 394Q476 427 454.5 440.0Q433 453 433 453Q433 453 427.0 466.5Q421 480 408.5 495.0Q396 510 377 515Q355 520 347.5 512.0Q340 504 340 504L244 462Z" fill="#fec925" stroke="none" transform="scale(1,-1) translate(0,-256)" /></svg>