<?xml version="1.0" encoding="utf-8" ?>
<svg baseProfile="full" height="256" version="1.1" width="256" xmlns="http://www.w3.org/2000/svg" xmlns:ev="http://www.w3.org/2001/xml-events" xmlns:xlink="http://www.w3.org/1999/xlink"><defs /><path d="M123 241Q123 241 143.0 238.5Q163 236 190.0 233.0Q217 230 237.5 227.5Q258 225 258 225Q258 225 256.5 230.5Q255 236 252 250Q249 264 248.0 274.5Q247 285 247 285Q247 285 229.0 290.5Q211 296 176 318Q157 330 139.5 346.5Q122 363 110.5 375.5Q99 388 99 388Q99 388 95.0 365.5Q91 343 94 318Q98 292 106.5 271.5Q115 251 115 251Z" fill="#7b7b7b" stroke="none" transform="scale(1,-1) translate(0,-256)" /></svg>