<?xml version="1.0" encoding="utf-8" ?>
<svg baseProfile="full" height="256" version="1.1" width="256" xmlns="http://www.w3.org/2000/svg" xmlns:ev="http://www.w3.org/2001/xml-events" xmlns:xlink="http://www.w3.org/1999/xlink"><defs /><path d="M404 492 417 437 497 374Q497 374 518.5 375.0Q540 376 575.5 377.5Q611 379 652.0 380.0Q693 381 732.0 382.5Q771 384 800.5 384.5Q830 385 841 385Q863 385 884.5 386.0Q906 387 919.5 392.0Q933 397 933 408Q932 421 919.0 427.5Q906 434 890.5 437.0Q875 440 865 443Q851 448 833.5 458.0Q816 468 801 474Q785 480 755.0 491.0Q725 502 658 514Q613 522 587.0 523.0Q561 524 541.5 521.5Q522 519 495 517Q456 512 430.0 502.0Q404 492 404 492Z" fill="#85e4ff" stroke="none" transform="scale(1,-1) translate(0,-256)" /><path d="M587 89Q620 90 651.0 82.5Q682 75 714.5 66.0Q747 57 785.5 54.5Q824 52 873 62Q922 73 951.5 89.5Q981 106 997.5 120.5Q1014 135 1024.5 143.0Q1035 151 1045 145Q1058 138 1056.5 116.5Q1055 95 1025 52Q1005 24 965.0 1.0Q925 -22 876.0 -34.0Q827 -46 780 -42Q733 -38 698.0 -23.0Q663 -8 634.0 7.0Q605 22 575 26Q531 34 506.5 31.5Q482 29 477 43Q474 52 492.0 62.5Q510 73 536.5 81.0Q563 89 587 89Z" fill="#85e4ff" stroke="none" transform="scale(1,-1) translate(0,-256)" /><path d="M281 145 402 135 598 193 750 157 889 164 1011 273 1123 265Q1123 265 1131.0 269.0Q1139 273 1144 279Q1151 288 1154.0 298.0Q1157 308 1155 312Q1152 320 1139.0 320.5Q1126 321 1108.5 322.0Q1091 323 1072 330Q1053 337 1032.5 344.0Q1012 351 989.5 351.0Q967 351 945 336Q922 321 907.5 297.5Q893 274 874.0 253.5Q855 233 819 224Q802 221 780.0 221.5Q758 222 741.0 225.5Q724 229 722 234Q721 238 728.5 243.0Q736 248 745.0 254.5Q754 261 758.0 270.5Q762 280 753 293Q744 307 727.0 307.0Q710 307 691.5 301.0Q673 295 660.0 288.5Q647 282 647 282Q647 282 653.5 290.0Q660 298 668.0 310.0Q676 322 680.5 334.0Q685 346 680 354Q671 370 643.5 365.5Q616 361 584 342Q563 329 543.5 308.5Q524 288 507.0 268.5Q490 249 475 239Q451 223 417.0 218.0Q383 213 349 215Q326 217 295.5 224.0Q265 231 232.5 238.5Q200 246 169 248Q123 250 104.5 243.5Q86 237 81 231Q76 224 77.5 213.5Q79 203 94 201Q104 199 122.0 198.0Q140 197 140 197L196 189Z" fill="#85e4ff" stroke="none" transform="scale(1,-1) translate(0,-256)" /></svg>