<?xml version="1.0" encoding="utf-8" ?>
<svg baseProfile="full" height="256" version="1.1" width="256" xmlns="http://www.w3.org/2000/svg" xmlns:ev="http://www.w3.org/2001/xml-events" xmlns:xlink="http://www.w3.org/1999/xlink"><defs /><path d="M512 363 528 299 599 329 534 370Z" fill="#f8ab16" stroke="none" transform="scale(1,-1) translate(0,-256)" /><path d="M205 298 247 220 454 177 506 262Q506 262 486.0 259.0Q466 256 435.0 254.0Q404 252 371 255Q339 259 307.0 268.5Q275 278 253.5 287.0Q232 296 232 296Z" fill="#f8ab16" stroke="none" transform="scale(1,-1) translate(0,-256)" /><path d="M364 493Q369 499 376.5 497.0Q384 495 390 491Q396 486 398.5 477.0Q401 468 398 465Q391 456 372 467Q363 472 361.5 480.0Q360 488 364 493Z" fill="#f8ab16" stroke="none" transform="scale(1,-1) translate(0,-256)" /></svg>