<?xml version="1.0" encoding="utf-8" ?>
<svg baseProfile="full" height="256" version="1.1" width="256" xmlns="http://www.w3.org/2000/svg" xmlns:ev="http://www.w3.org/2001/xml-events" xmlns:xlink="http://www.w3.org/1999/xlink"><defs /><path d="M340 504Q340 504 320.0 507.5Q300 511 269.5 511.5Q239 512 205.0 502.0Q171 492 142.5 465.5Q114 439 99 388Q88 353 93.5 321.0Q99 289 108.0 268.5Q117 248 117 248L258 225Q258 225 253.0 247.0Q248 269 247 293Q246 306 249.0 332.5Q252 359 261 390Q275 435 298.5 459.0Q322 483 334 492Q338 495 339.0 499.5Q340 504 340 504Z" fill="#909090" stroke="none" transform="scale(1,-1) translate(0,-256)" /></svg>