<?xml version="1.0" encoding="utf-8" ?>
<svg baseProfile="full" height="256" version="1.1" width="256" xmlns="http://www.w3.org/2000/svg" xmlns:ev="http://www.w3.org/2001/xml-events" xmlns:xlink="http://www.w3.org/1999/xlink"><defs /><path d="M298 271Q299 274 307.0 278.0Q315 282 326 271Q338 259 332.5 249.0Q327 239 324 239Q322 240 318.5 245.0Q315 250 311 255Q306 261 302.0 265.5Q298 270 298 271Z" fill="#ebf8ff" stroke="none" transform="scale(1,-1) translate(0,-256)" /><path d="M319 423Q320 425 325.5 429.0Q331 433 341 426Q345 422 346.5 413.0Q348 404 347.5 395.5Q347 387 346 386Q344 385 337.0 393.5Q330 402 324.0 411.5Q318 421 319 423Z" fill="#ebf8ff" stroke="none" transform="scale(1,-1) translate(0,-256)" /></svg>