<?xml version="1.0" encoding="utf-8" ?>
<svg baseProfile="full" height="256" version="1.1" width="256" xmlns="http://www.w3.org/2000/svg" xmlns:ev="http://www.w3.org/2001/xml-events" xmlns:xlink="http://www.w3.org/1999/xlink"><defs /><path d="M1047 445Q1046 452 1061.0 452.0Q1076 452 1087 453Q1110 455 1119.0 458.0Q1128 461 1130 460Q1131 460 1132.0 455.0Q1133 450 1132 449Q1131 448 1120.5 445.0Q1110 442 1090 440Q1066 437 1057.0 438.5Q1048 440 1047 445Z" fill="#e89d05" stroke="none" transform="scale(1,-1) translate(0,-256)" /><path d="M1046 414Q1047 421 1063.5 422.5Q1080 424 1092 427Q1105 431 1118.5 436.5Q1132 442 1132 442Q1136 440 1134 434Q1133 428 1099 416Q1082 410 1063.5 409.0Q1045 408 1046 414Z" fill="#e89d05" stroke="none" transform="scale(1,-1) translate(0,-256)" /><path d="M399 345Q407 344 406 317Q406 305 404.0 296.0Q402 287 397 287Q392 287 382.0 294.0Q372 301 373 318Q373 336 383.5 341.0Q394 346 399 345Z" fill="#e89d05" stroke="none" transform="scale(1,-1) translate(0,-256)" /></svg>