<?xml version="1.0" encoding="utf-8" ?>
<svg baseProfile="full" height="256" version="1.1" width="256" xmlns="http://www.w3.org/2000/svg" xmlns:ev="http://www.w3.org/2001/xml-events" xmlns:xlink="http://www.w3.org/1999/xlink"><defs /><path d="M596 464Q596 464 598.0 478.5Q600 493 603.0 511.5Q606 530 608.5 544.0Q611 558 611 558L638 598Q638 598 653.5 581.0Q669 564 696 543Q723 522 744.0 511.5Q765 501 765 501Q765 501 756.0 483.0Q747 465 746 448Q744 432 758.5 422.0Q773 412 787 407Q793 406 811.5 399.0Q830 392 855.0 382.5Q880 373 903.0 364.0Q926 355 941.5 349.0Q957 343 957 343L886 208H728L569 314Q569 314 562.5 325.5Q556 337 551 342Q547 346 537.5 353.0Q528 360 520.0 365.5Q512 371 512 371L513 398Z" fill="#c34c10" stroke="none" transform="scale(1,-1) translate(0,-256)" /></svg>