<?xml version="1.0" encoding="utf-8" ?>
<svg baseProfile="full" height="256" version="1.1" width="256" xmlns="http://www.w3.org/2000/svg" xmlns:ev="http://www.w3.org/2001/xml-events" xmlns:xlink="http://www.w3.org/1999/xlink"><defs /><path d="M252 590Q213 585 187.5 551.0Q162 517 159 474Q156 431 173.5 405.0Q191 379 220 375Q249 370 274.5 388.0Q300 406 317 440Q334 474 332.5 502.5Q331 531 327 543Q316 571 296.5 582.0Q277 593 252 590Z" fill="#422b0d" stroke="none" transform="scale(1,-1) translate(0,-256)" /><path d="M1116 474Q1113 517 1087.5 551.0Q1062 585 1023 590Q998 593 978.5 582.0Q959 571 948 543Q944 531 942.5 502.5Q941 474 958 440Q975 406 1000.5 388.0Q1026 370 1055 375Q1084 379 1101.5 405.0Q1119 431 1116 474Z" fill="#422b0d" stroke="none" transform="scale(1,-1) translate(0,-256)" /></svg>