<?xml version="1.0" encoding="utf-8" ?>
<svg baseProfile="full" height="256" version="1.1" width="256" xmlns="http://www.w3.org/2000/svg" xmlns:ev="http://www.w3.org/2001/xml-events" xmlns:xlink="http://www.w3.org/1999/xlink"><defs /><path d="M1086.75 661.6880035400391Q1181.75 530.6880035400391 1181.75 349.68800354003906Q1181.75 230.68800354003906 1139.25 132.18800354003906Q1096.75 33.68800354003906 1016.75 -38.31199645996094Q941.75 -103.31199645996094 843.75 -138.81199645996094Q745.75 -174.31199645996094 637.75 -174.31199645996094Q547.75 -174.31199645996094 458.75 -147.81199645996094Q369.75 -121.31199645996094 293.75 -67.31199645996094Q217.75 -13.311996459960938 166.75 68.68800354003906Q219.75 -4.3119964599609375 292.75 -51.81199645996094Q365.75 -99.31199645996094 449.75 -122.81199645996094Q533.75 -146.31199645996094 618.75 -146.31199645996094Q726.75 -146.31199645996094 824.75 -110.81199645996094Q922.75 -75.31199645996094 997.75 -10.311996459960938Q1078.75 61.68800354003906 1120.75 160.68800354003906Q1162.75 259.68800354003906 1162.75 377.68800354003906Q1162.75 538.6880035400391 1086.75 661.6880035400391Z" fill="#eb8f00" stroke="none" transform="scale(1,-1) translate(0,-256)" /></svg>