<?xml version="1.0" encoding="utf-8" ?>
<svg baseProfile="full" height="256" version="1.1" width="256" xmlns="http://www.w3.org/2000/svg" xmlns:ev="http://www.w3.org/2001/xml-events" xmlns:xlink="http://www.w3.org/1999/xlink"><defs /><path d="M638 -174Q746 -174 844.0 -139.0Q942 -104 1016 -38Q1097 34 1139.0 132.5Q1181 231 1181 350Q1181 469 1139.0 568.0Q1097 667 1016 739Q942 804 844.0 839.0Q746 874 638 874Q559 874 481.0 854.0Q403 834 333.5 793.0Q264 752 210.0 690.0Q156 628 125.0 543.0Q94 458 94 350Q94 242 125.0 157.0Q156 72 210.0 10.0Q264 -52 333.5 -93.0Q403 -134 481.0 -154.0Q559 -174 638 -174Z" fill="#000000" stroke="none" transform="scale(1,-1) translate(0,-256)" /><path d="M456.39910888671875 611.8179168701172Q406.35009765625 616.6328125 359.0364074707031 593.1318588256836Q311.72271728515625 569.6309051513672 273.465576171875 526.9372634887695Q235.20843505859375 484.2436218261719 213.3548583984375 430.1507568359375Q190.04278564453125 377.5100860595703 185.24038696289062 325.865234375Q180.43798828125 274.2203826904297 196.89285278320312 231.6275863647461Q213.34771728515625 189.0347900390625 254.53668212890625 162.82418823242188Q302.6973876953125 131.5220184326172 357.10382080078125 142.10238647460938Q411.51025390625 152.68275451660156 461.7622375488281 199.77548217773438Q512.0142211914062 246.8682098388672 549.5543823242188 326.6600341796875Q578.5068359375 386.0183563232422 581.6026000976562 436.58739471435547Q584.6983642578125 487.15643310546875 569.3176879882812 525.2879257202148Q553.93701171875 563.4194183349609 524.2950134277344 585.8414840698242Q494.65301513671875 608.2635498046875 456.39910888671875 611.8179168701172Z" fill="#000000" stroke="none" transform="scale(1,-1) translate(0,-256)" /><path d="M-1147.1403198242188 165.801025390625Q-1156.8780517578125 223.32382202148438 -1146.6718139648438 279.73719024658203Q-1136.465576171875 336.1505584716797 -1108.4879455566406 380.9660873413086Q-1080.5103149414062 425.7816162109375 -1035.3634033203125 447.9161834716797Q-1000.9222412109375 464.94140625 -963.9270935058594 461.3839645385742Q-926.9319458007812 457.82652282714844 -893.8492431640625 433.41475677490234Q-860.7665405273438 409.00299072265625 -836.9007568359375 364.31383514404297Q-813.0349731445312 319.6246795654297 -806.5833740234375 253.896484375Q-796.736572265625 166.2648162841797 -814.8525695800781 99.81747436523438Q-832.9685668945312 33.37013244628906 -873.758056640625 -4.159698486328125Q-914.5475463867188 -41.68952941894531 -971.9677734375 -40.276763916015625Q-1020.7822265625 -39.545654296875 -1057.1178283691406 -11.897560119628906Q-1093.4534301757812 15.750534057617188 -1116.4295959472656 62.25048828125Q-1139.40576171875 108.75044250488281 -1147.1403198242188 165.801025390625Z" fill="#000000" stroke="none" transform="scale(1,-1) translate(0,-256)" /></svg>