<?xml version="1.0" encoding="utf-8" ?>
<svg baseProfile="full" height="256" version="1.1" width="256" xmlns="http://www.w3.org/2000/svg" xmlns:ev="http://www.w3.org/2001/xml-events" xmlns:xlink="http://www.w3.org/1999/xlink"><defs /><path d="M920 170 919 169Q911 161 902 152Q911 161 918 168Q918 168 920 170Z" fill="#ab3f2e" stroke="none" transform="scale(1,-1) translate(0,-256)" /><path d="M716 13 725 4Z" fill="#ab3f2e" stroke="none" transform="scale(1,-1) translate(0,-256)" /><path d="M971 213Q967 202 952.5 177.0Q938 152 909.5 121.0Q881 90 835.5 58.5Q790 27 725 4L716 13L679 54Q716 57 751 68Q805 84 854 116Q902 147 940 191Q952 206 963 221L964 220Z" fill="#ab3f2e" stroke="none" transform="scale(1,-1) translate(0,-256)" /></svg>