<?xml version="1.0" encoding="utf-8" ?>
<svg baseProfile="full" height="256" version="1.1" width="256" xmlns="http://www.w3.org/2000/svg" xmlns:ev="http://www.w3.org/2001/xml-events" xmlns:xlink="http://www.w3.org/1999/xlink"><defs /><path d="M435 737Q403 737 370.0 728.0Q337 719 308 700Q341 728 381.5 741.5Q422 755 462 755Q526 755 573.0 730.0Q620 705 650.0 665.0Q680 625 694 581L674 536Q672 530 665.5 530.0Q659 530 656 536Q648 558 631.5 591.5Q615 625 588.0 658.5Q561 692 523.0 714.5Q485 737 435 737Z" fill="#da2e75" stroke="none" transform="scale(1,-1) translate(0,-256)" /><path d="M926 755Q978 755 1026.0 735.5Q1074 716 1108.5 675.0Q1143 634 1155.0 571.0Q1167 508 1147 422Q1134 366 1098.5 308.5Q1063 251 1015.0 195.0Q967 139 915.0 89.0Q863 39 816.5 -0.5Q770 -40 737.5 -65.0Q705 -90 697 -96Q699 -86 701 -83Q724 -57 765.0 -15.5Q806 26 854.0 78.0Q902 130 948.0 188.0Q994 246 1029.0 305.5Q1064 365 1077 422Q1096 505 1087.0 564.5Q1078 624 1049.0 662.5Q1020 701 978.5 719.0Q937 737 890 737Q871 737 853.0 735.5Q835 734 819 728Q841 740 868.0 747.5Q895 755 926 755Z" fill="#da2e75" stroke="none" transform="scale(1,-1) translate(0,-256)" /></svg>