<?xml version="1.0" encoding="utf-8" ?>
<svg baseProfile="full" height="256" version="1.1" width="256" xmlns="http://www.w3.org/2000/svg" xmlns:ev="http://www.w3.org/2001/xml-events" xmlns:xlink="http://www.w3.org/1999/xlink"><defs /><path d="M487 485V462L205 747Q204 746 203.5 743.5Q203 741 203 739Q200 728 195 719Q180 696 157.0 694.0Q134 692 118 707Q110 715 104 727Q107 725 109 722Q119 714 135.0 714.5Q151 715 164.5 723.5Q178 732 183 746Q188 761 189 778Q189 779 189.0 790.5Q189 802 188 802Q197 793 209.5 789.5Q222 786 235 785Q225 775 228 760Q229 754 231.5 747.5Q234 741 240 734Z" fill="#c67500" stroke="none" transform="scale(1,-1) translate(0,-256)" /><path d="M1082 -100Q1089 -100 1095 -97Q1093 -101 1090 -104Q1082 -112 1070 -112Q1059 -112 1050 -104L691 256Q687 260 687 265Q687 268 688.0 272.5Q689 277 690 281L1063 -92Q1071 -100 1082 -100Z" fill="#c67500" stroke="none" transform="scale(1,-1) translate(0,-256)" /></svg>