<?xml version="1.0" encoding="utf-8" ?>
<svg baseProfile="full" height="256" version="1.1" width="256" xmlns="http://www.w3.org/2000/svg" xmlns:ev="http://www.w3.org/2001/xml-events" xmlns:xlink="http://www.w3.org/1999/xlink"><defs /><path d="M487 541V462L130 823Q121 831 121.5 842.5Q122 854 130 862Q138 870 149.5 870.0Q161 870 169 862Z" fill="#ffa000" stroke="none" transform="scale(1,-1) translate(0,-256)" /><path d="M282 871Q298 855 296.0 832.0Q294 809 271 795Q251 783 229.5 785.5Q208 788 200 790Q201 788 203.5 776.5Q206 765 205.0 749.0Q204 733 195 719Q180 696 157.0 694.0Q134 692 118 707Q111 715 104 727Q107 725 109 722Q119 714 135.0 714.5Q151 715 164.5 723.5Q178 732 183 747Q190 766 189.0 784.0Q188 802 188 802Q188 802 210.0 801.0Q232 800 254 813Q273 825 275.0 846.0Q277 867 268 882Q276 877 282 871Z" fill="#ffa000" stroke="none" transform="scale(1,-1) translate(0,-256)" /><path d="M1070 -112Q1082 -112 1090 -104Q1098 -96 1098.0 -84.5Q1098 -73 1090 -65L732 293Q727 298 721 298Q715 298 708.0 296.5Q701 295 696 290Q688 282 688.0 270.5Q688 259 696 251L1051 -104Q1059 -112 1070 -112Z" fill="#ffa000" stroke="none" transform="scale(1,-1) translate(0,-256)" /></svg>