<?xml version="1.0" encoding="utf-8" ?>
<svg baseProfile="full" height="256" version="1.1" width="256" xmlns="http://www.w3.org/2000/svg" xmlns:ev="http://www.w3.org/2001/xml-events" xmlns:xlink="http://www.w3.org/1999/xlink"><defs /><path d="M744 40Q732 22 702.0 -14.5Q672 -51 633.0 -95.5Q594 -140 556 -183H106V506Q145 524 184.5 545.5Q224 567 258.5 582.5Q293 598 319 597Q344 596 362.5 581.0Q381 566 391.5 549.5Q402 533 404 528Q421 492 410.0 456.0Q399 420 373.5 390.0Q348 360 322 342Q290 320 268.0 303.5Q246 287 246 287L571 481Q593 483 618.0 470.5Q643 458 663.0 438.5Q683 419 690 399Q692 391 697.0 374.0Q702 357 694.5 330.5Q687 304 652 268Q628 243 594.0 214.0Q560 185 526.5 158.5Q493 132 471.0 115.5Q449 99 449 99Q449 99 465.0 111.5Q481 124 508.0 143.0Q535 162 566.0 182.5Q597 203 628.5 220.0Q660 237 684 244Q695 247 710.5 239.0Q726 231 738.0 221.0Q750 211 752 209Q758 203 767.5 190.0Q777 177 781.5 156.5Q786 136 779.0 107.0Q772 78 744 40Z" fill="#faa700" stroke="none" transform="scale(1,-1) translate(0,-256)" /></svg>