<?xml version="1.0" encoding="utf-8" ?>
<svg baseProfile="full" height="256" version="1.1" width="256" xmlns="http://www.w3.org/2000/svg" xmlns:ev="http://www.w3.org/2001/xml-events" xmlns:xlink="http://www.w3.org/1999/xlink"><defs /><path d="M1136 345Q1136 345 1139.5 334.5Q1143 324 1142.0 306.0Q1141 288 1127.0 267.0Q1113 246 1077.5 226.0Q1042 206 977 190Q881 168 782.0 160.0Q683 152 589.5 155.5Q496 159 416.0 168.5Q336 178 277 190Q225 201 195.0 219.5Q165 238 151.5 259.5Q138 281 134.5 300.0Q131 319 132.5 331.0Q134 343 134 343Q134 343 154.0 331.0Q174 319 208.0 304.5Q242 290 284 283Q309 278 351.5 274.0Q394 270 444.0 267.0Q494 264 544.0 262.5Q594 261 635 261Q690 261 755.0 265.0Q820 269 879.5 276.0Q939 283 977 290Q1023 298 1059.0 311.5Q1095 325 1115.5 335.0Q1136 345 1136 345Z" fill="#f3ab47" stroke="none" transform="scale(1,-1) translate(0,-256)" /><path d="M978 -208Q957 -220 946 -203Q931 -180 908.0 -146.5Q885 -113 863.0 -72.5Q841 -32 828 9Q822 28 813.5 57.5Q805 87 797.0 116.5Q789 146 784.0 166.5Q779 187 779 187L809 204Q809 204 824.5 191.0Q840 178 863.0 157.5Q886 137 908.5 114.0Q931 91 946 71Q964 44 989.0 7.0Q1014 -30 1036.0 -66.5Q1058 -103 1070 -127Q1074 -135 1074.0 -144.0Q1074 -153 1063 -160Z" fill="#f3ab47" stroke="none" transform="scale(1,-1) translate(0,-256)" /><path d="M611.0534362792969 546.5882568359375 579.5528564453125 529.5066528320312 982.3258361816406 -170.6700439453125 1013.826416015625 -153.58843994140625Z" fill="#f3ab47" stroke="none" transform="scale(1,-1) translate(0,-256)" /><path d="M1139 343Q1141 340 1139.5 333.0Q1138 326 1135 320Q1133 317 1118.5 297.0Q1104 277 1068.0 253.5Q1032 230 966 214Q939 208 888.5 202.0Q838 196 772.5 192.0Q707 188 636 187Q570 188 505.0 192.0Q440 196 387.5 201.5Q335 207 306 214Q246 229 209.0 252.5Q172 276 154.5 297.5Q137 319 134 326Q130 337 132.5 340.0Q135 343 135 343Q135 343 145.0 330.0Q155 317 175.5 298.5Q196 280 229.5 262.0Q263 244 311 232Q338 226 390.0 220.0Q442 214 506.5 210.5Q571 207 637 206Q706 207 770.5 211.0Q835 215 885.5 221.0Q936 227 962 233Q1016 244 1049.5 262.5Q1083 281 1101.0 299.5Q1119 318 1126.0 331.0Q1133 344 1133 344Q1133 344 1135.0 345.0Q1137 346 1139 343Z" fill="#f3ab47" stroke="none" transform="scale(1,-1) translate(0,-256)" /><path d="M654 204 649 246H629L624 204Z" fill="#f3ab47" stroke="none" transform="scale(1,-1) translate(0,-256)" /><path d="M420 211 461 253 366 260 323 221Z" fill="#f3ab47" stroke="none" transform="scale(1,-1) translate(0,-256)" /><path d="M862 213 819 258 913 267 952 229Z" fill="#f3ab47" stroke="none" transform="scale(1,-1) translate(0,-256)" /></svg>