<?xml version="1.0" encoding="utf-8" ?>
<svg baseProfile="full" height="256" version="1.1" width="256" xmlns="http://www.w3.org/2000/svg" xmlns:ev="http://www.w3.org/2001/xml-events" xmlns:xlink="http://www.w3.org/1999/xlink"><defs /><path d="M1199 208Q1210 153 1201.0 113.0Q1192 73 1150.0 44.0Q1108 15 1021 -7Q980 -17 920.5 -24.0Q861 -31 792.0 -34.5Q723 -38 651 -38Q579 -38 510.0 -34.5Q441 -31 381.5 -24.0Q322 -17 281 -7Q151 26 104.5 75.5Q58 125 74 208Q77 228 87.0 251.0Q97 274 108.0 295.0Q119 316 127.0 329.5Q135 343 135 343Q135 343 143.0 330.0Q151 317 171.0 297.0Q191 277 224.5 257.0Q258 237 309 223Q335 216 385.5 210.5Q436 205 501.0 201.0Q566 197 636 196Q707 197 774.0 202.5Q841 208 893.0 215.0Q945 222 972 229Q1022 243 1055.0 262.0Q1088 281 1106.0 299.5Q1124 318 1131.5 330.5Q1139 343 1139 343Q1139 343 1146.5 329.5Q1154 316 1165.0 295.0Q1176 274 1185.5 251.0Q1195 228 1199 208Z" fill="#a65f3e" stroke="none" transform="scale(1,-1) translate(0,-256)" /></svg>