<?xml version="1.0" encoding="utf-8" ?>
<svg baseProfile="full" height="256" version="1.1" width="256" xmlns="http://www.w3.org/2000/svg" xmlns:ev="http://www.w3.org/2001/xml-events" xmlns:xlink="http://www.w3.org/1999/xlink"><defs /><path d="M852 719 925 761 1129 732 1116 682Z" fill="#ff9c9c" stroke="none" transform="scale(1,-1) translate(0,-256)" /><path d="M1149 814 1141 784 1002 804 1075 845 1154 834Q1153 829 1151.0 821.5Q1149 814 1149 814Z" fill="#ff9c9c" stroke="none" transform="scale(1,-1) translate(0,-256)" /><path d="M753 664 779 678 1103 632 1090 583 765 629Q764 632 763 634Z" fill="#ff9c9c" stroke="none" transform="scale(1,-1) translate(0,-256)" /><path d="M874 512Q839 539 808 570L1078 532L1066 482L878 509Q877 510 875.5 510.5Q874 511 874 512Z" fill="#ff9c9c" stroke="none" transform="scale(1,-1) translate(0,-256)" /></svg>