<?xml version="1.0" encoding="utf-8" ?>
<svg baseProfile="full" height="256" version="1.1" width="256" xmlns="http://www.w3.org/2000/svg" xmlns:ev="http://www.w3.org/2001/xml-events" xmlns:xlink="http://www.w3.org/1999/xlink"><defs /><path d="M274 198Q261 220 245.5 231.5Q230 243 220 237Q210 231 212.0 212.0Q214 193 227 171Q239 149 255.0 137.5Q271 126 281 132Q291 137 289.0 156.5Q287 176 274 198Z" fill="#0048ff" stroke="none" transform="scale(1,-1) translate(0,-256)" /><path d="M237 -125Q224 -105 209.5 -95.0Q195 -85 187 -91Q178 -96 181.5 -113.5Q185 -131 198 -151Q211 -170 225.5 -180.0Q240 -190 248 -185Q256 -179 253.0 -161.5Q250 -144 237 -125Z" fill="#0048ff" stroke="none" transform="scale(1,-1) translate(0,-256)" /></svg>