<?xml version="1.0" encoding="utf-8" ?>
<svg baseProfile="full" height="256" version="1.1" width="256" xmlns="http://www.w3.org/2000/svg" xmlns:ev="http://www.w3.org/2001/xml-events" xmlns:xlink="http://www.w3.org/1999/xlink"><defs /><path d="M711 89Q737 67 737 32Q737 17 719.0 -3.0Q701 -23 656 -30Q628 -35 618.5 -23.5Q609 -12 611 0Q612 12 628.0 16.5Q644 21 654 24Q667 26 677.0 29.5Q687 33 687 45Q687 55 675.0 59.5Q663 64 652.0 70.0Q641 76 642 90Q644 105 655.0 109.0Q666 113 676.5 117.0Q687 121 687 135Q686 147 676.5 151.0Q667 155 653.0 156.0Q639 157 627 160Q610 163 605 181Q603 195 614.0 201.5Q625 208 638 208Q638 208 654.0 208.5Q670 209 689.5 205.0Q709 201 720 187Q739 165 735 136Q732 108 711 89Z" fill="#422b0d" stroke="none" transform="scale(1,-1) translate(0,-256)" /><path d="M505 337Q518 320 539 323Q540 323 540 323Q554 325 562.0 336.0Q570 347 569 361V363Q568 364 568.0 365.5Q568 367 567 369Q566 372 565.0 375.0Q564 378 563 381Q560 388 556 395Q545 415 526 429Q514 439 499 444Q491 447 483 448Q480 449 478.0 449.5Q476 450 474 450H469H462H457H453L447 449Q442 448 438 447Q434 446 430 444Q416 439 403 430Q385 415 374 395Q367 383 363 370Q362 365 361.5 362.5Q361 360 361 360Q357 341 374 330Q385 321 399.5 322.5Q414 324 423 335L425 337L430 343Q432 345 435.0 348.5Q438 352 441 355Q446 359 449 361Q452 364 456 366Q459 368 462 368Q462 368 463 368Q463 368 463.0 368.0Q463 368 463 368H462Q462 368 461.5 368.0Q461 368 462 368H467H465Q466 368 466.0 368.0Q466 368 466 368Q467 368 468 368Q471 368 474 366Q478 364 481 361Q485 359 489 355Q493 350 495 348L500 343L504 338Z" fill="#422b0d" stroke="none" transform="scale(1,-1) translate(0,-256)" /><path d="M853 337Q867 320 888 323Q890 324 889 324Q903 325 911.0 336.0Q919 347 917 361V363Q917 366 916 370Q914 376 912 381Q908 389 905 396Q893 416 875 430Q855 444 831 448Q829 449 827.0 449.5Q825 450 822 450H818H811H806H801L796 449Q791 448 787 447Q782 446 779 444Q764 439 752 430Q733 416 722 396Q715 383 712 370Q710 365 709.5 362.5Q709 360 709 360Q706 341 722 330Q734 321 748.0 322.5Q762 324 772 335L774 337L778 343Q780 345 783.0 348.5Q786 352 790 355Q794 359 797 361Q801 364 805 366Q807 368 810 368H811Q811 368 811.5 368.0Q812 368 811 368Q811 368 810.5 368.0Q810 368 811 368H816H814Q814 368 814.5 368.0Q815 368 815 368Q816 368 817 368Q820 368 823 366Q826 364 830 361Q833 359 837 355Q842 350 844 348L848 343L852 338Z" fill="#422b0d" stroke="none" transform="scale(1,-1) translate(0,-256)" /></svg>