<?xml version="1.0" encoding="utf-8" ?>
<svg baseProfile="full" height="256" version="1.1" width="256" xmlns="http://www.w3.org/2000/svg" xmlns:ev="http://www.w3.org/2001/xml-events" xmlns:xlink="http://www.w3.org/1999/xlink"><defs /><path d="M786 730Q747 705 713.5 679.0Q680 653 659.5 635.0Q639 617 639 617Q639 617 656.0 613.5Q673 610 707.0 612.0Q741 614 792 629Q839 643 883.0 673.5Q927 704 962.5 741.5Q998 779 1018 813Q1040 852 1041.5 864.5Q1043 877 1043 877Q1043 877 1017.5 863.5Q992 850 952.5 828.0Q913 806 868.5 780.5Q824 755 786 730Z" fill="#4c8c19" stroke="none" transform="scale(1,-1) translate(0,-256)" /></svg>