<?xml version="1.0" encoding="utf-8" ?>
<svg baseProfile="full" height="256" version="1.1" width="256" xmlns="http://www.w3.org/2000/svg" xmlns:ev="http://www.w3.org/2001/xml-events" xmlns:xlink="http://www.w3.org/1999/xlink"><defs /><path d="M391 585Q413 560 408.0 540.5Q403 521 384.0 502.0Q365 483 341.0 460.0Q317 437 300 405Q289 382 280.0 356.5Q271 331 259.5 314.0Q248 297 229 298Q212 300 203.5 324.5Q195 349 196.5 385.5Q198 422 209.0 461.0Q220 500 242 531Q269 569 298.5 585.5Q328 602 353.0 601.0Q378 600 391 585Z" fill="#e5dd9f" stroke="none" transform="scale(1,-1) translate(0,-256)" /></svg>