<?xml version="1.0" encoding="utf-8" ?>
<svg baseProfile="full" height="256" version="1.1" width="256" xmlns="http://www.w3.org/2000/svg" xmlns:ev="http://www.w3.org/2001/xml-events" xmlns:xlink="http://www.w3.org/1999/xlink"><defs /><path d="M977 628Q977 628 991.0 616.0Q1005 604 1023.5 574.0Q1042 544 1057.0 491.0Q1072 438 1073 356Q1075 279 1046.0 212.5Q1017 146 966.0 89.5Q915 33 848.5 -12.0Q782 -57 707 -89Q633 -122 568.5 -137.5Q504 -153 455.0 -157.0Q406 -161 378.5 -160.0Q351 -159 351 -159Q351 -159 332.5 -145.5Q314 -132 285.0 -104.0Q256 -76 224.0 -33.5Q192 9 163.5 66.0Q135 123 119 195Q110 234 110.0 291.0Q110 348 124.0 410.5Q138 473 171.0 531.5Q204 590 260 632Q303 664 350.0 677.5Q397 691 441.0 692.0Q485 693 521.0 688.0Q557 683 579.0 677.0Q601 671 603 671Q604 671 607.0 659.5Q610 648 613.5 632.5Q617 617 619.0 605.5Q621 594 621 594Q621 594 642.5 592.5Q664 591 697.0 589.5Q730 588 765.0 587.5Q800 587 828 590Q866 593 900.0 602.0Q934 611 955.5 619.5Q977 628 977 628Z" fill="#87c244" stroke="none" transform="scale(1,-1) translate(0,-256)" /></svg>