<?xml version="1.0" encoding="utf-8" ?>
<svg baseProfile="full" height="256" version="1.1" width="256" xmlns="http://www.w3.org/2000/svg" xmlns:ev="http://www.w3.org/2001/xml-events" xmlns:xlink="http://www.w3.org/1999/xlink"><defs /><path d="M584 555Q588 564 601.5 561.0Q615 558 620 556Q626 554 638.5 550.0Q651 546 651 546Q651 546 658.0 553.5Q665 561 674.0 568.0Q683 575 690 573Q697 571 701.0 561.5Q705 552 707.0 543.0Q709 534 709 534Q709 534 720.0 531.0Q731 528 737 526Q743 525 756.0 523.5Q769 522 767 508Q766 495 753.5 497.0Q741 499 734 499Q728 499 717.0 500.5Q706 502 706 502Q706 502 699.5 495.5Q693 489 683.5 483.0Q674 477 667 479Q659 481 653.5 491.0Q648 501 645.0 509.5Q642 518 642 518Q642 518 632.5 520.0Q623 522 608 527Q576 538 584 555Z" fill="#ff5f02" stroke="none" transform="scale(1,-1) translate(0,-256)" /></svg>