<?xml version="1.0" encoding="utf-8" ?>
<svg baseProfile="full" height="256" version="1.1" width="256" xmlns="http://www.w3.org/2000/svg" xmlns:ev="http://www.w3.org/2001/xml-events" xmlns:xlink="http://www.w3.org/1999/xlink"><defs /><path d="M707 625Q708 624 715.5 606.5Q723 589 732.0 566.5Q741 544 747.5 527.0Q754 510 754 510Q754 510 740.0 498.5Q726 487 706.5 471.5Q687 456 672.0 444.5Q657 433 655 433Q653 433 645.0 450.5Q637 468 627.0 490.5Q617 513 609.5 530.0Q602 547 602 547Q602 547 617.0 559.0Q632 571 652.0 587.0Q672 603 688.0 614.5Q704 626 707 625Z" fill="#ff8c00" stroke="none" transform="scale(1,-1) translate(0,-256)" /></svg>