<?xml version="1.0" encoding="utf-8" ?>
<svg baseProfile="full" height="256" version="1.1" width="256" xmlns="http://www.w3.org/2000/svg" xmlns:ev="http://www.w3.org/2001/xml-events" xmlns:xlink="http://www.w3.org/1999/xlink"><defs /><path d="M307 25Q283 62 273.5 84.0Q264 106 260 116Q256 127 254.5 141.5Q253 156 267 162Q280 169 290.0 158.0Q300 147 303 139Q304 134 310.0 118.5Q316 103 324.0 84.5Q332 66 341 54Q349 42 363.5 25.0Q378 8 392.5 -7.5Q407 -23 416 -32Q429 -45 437.0 -56.5Q445 -68 435 -79Q426 -89 413.5 -84.0Q401 -79 391 -71Q382 -63 359.5 -41.5Q337 -20 307 25Z" fill="#fdfdfd" stroke="none" transform="scale(1,-1) translate(0,-256)" /><path d="M504 -80Q492 -77 481.5 -81.0Q471 -85 468 -95Q466 -105 472.0 -114.0Q478 -123 490 -127Q501 -130 511.5 -126.0Q522 -122 525 -112Q528 -102 521.5 -93.0Q515 -84 504 -80Z" fill="#fdfdfd" stroke="none" transform="scale(1,-1) translate(0,-256)" /></svg>