<?xml version="1.0" encoding="utf-8" ?>
<svg baseProfile="full" height="256" version="1.1" width="256" xmlns="http://www.w3.org/2000/svg" xmlns:ev="http://www.w3.org/2001/xml-events" xmlns:xlink="http://www.w3.org/1999/xlink"><defs /><path d="M626 541Q630 533 620.0 525.5Q610 518 608 507Q604 489 614.5 473.5Q625 458 637 439Q649 419 665.0 407.0Q681 395 703 400Q717 403 722.5 415.0Q728 427 728.5 441.5Q729 456 729 468Q728 483 726.0 500.0Q724 517 736 519Q747 520 753.5 510.5Q760 501 762 492Q763 488 765.0 468.5Q767 449 765.0 425.0Q763 401 751.5 381.0Q740 361 714 355Q684 348 658.5 362.5Q633 377 615.0 398.0Q597 419 591 430Q579 453 572.5 475.0Q566 497 575 519Q579 530 590.0 538.0Q601 546 612.0 547.5Q623 549 626 541Z" fill="#e6508f" stroke="none" transform="scale(1,-1) translate(0,-256)" /><path d="M270 571Q282 566 273.0 546.5Q264 527 245 512Q233 501 213.0 494.0Q193 487 173.0 490.0Q153 493 140 512Q132 524 137.5 542.0Q143 560 155.5 579.5Q168 599 181.0 616.0Q194 633 199 644Q209 665 226.0 677.0Q243 689 257 692Q269 694 279.5 691.0Q290 688 291.0 684.0Q292 680 275 679Q257 677 244.0 656.0Q231 635 217 613Q207 595 194.5 578.5Q182 562 175.0 548.5Q168 535 173 528Q181 518 198.0 526.0Q215 534 226 543Q237 552 248.5 563.0Q260 574 270 571Z" fill="#e6508f" stroke="none" transform="scale(1,-1) translate(0,-256)" /></svg>