<?xml version="1.0" encoding="utf-8" ?>
<svg baseProfile="full" height="256" version="1.1" width="256" xmlns="http://www.w3.org/2000/svg" xmlns:ev="http://www.w3.org/2001/xml-events" xmlns:xlink="http://www.w3.org/1999/xlink"><defs /><path d="M1204.130386352539 350.897216796875Q1204.130386352539 467.156982421875 1160.532974243164 568.88427734375Q1116.935562133789 670.611572265625 1039.622817993164 747.92431640625Q962.3100738525391 825.237060546875 860.5827789306641 868.83447265625Q758.8554840087891 912.431884765625 641.4331207275391 912.431884765625Q525.1733551025391 912.431884765625 423.44606018066406 868.83447265625Q321.71876525878906 825.237060546875 244.40602111816406 747.92431640625Q167.09327697753906 670.611572265625 123.49586486816406 568.88427734375Q79.89845275878906 467.156982421875 79.89845275878906 350.897216796875Q79.89845275878906 233.474853515625 123.49586486816406 131.74755859375Q167.09327697753906 30.020263671875 244.40602111816406 -47.29248046875Q321.71876525878906 -124.605224609375 423.44606018066406 -168.20263671875Q525.1733551025391 -211.800048828125 641.4331207275391 -211.800048828125Q758.8554840087891 -211.800048828125 860.5827789306641 -168.20263671875Q962.3100738525391 -124.605224609375 1039.622817993164 -47.29248046875Q1116.935562133789 30.020263671875 1160.532974243164 131.74755859375Q1204.130386352539 233.474853515625 1204.130386352539 350.897216796875Z" fill="#f2a600" stroke="none" transform="scale(1,-1) translate(0,-256)" /></svg>