<?xml version="1.0" encoding="utf-8" ?>
<svg baseProfile="full" height="256" version="1.1" width="256" xmlns="http://www.w3.org/2000/svg" xmlns:ev="http://www.w3.org/2001/xml-events" xmlns:xlink="http://www.w3.org/1999/xlink"><defs /><path d="M199 547Q199 547 204.5 528.0Q210 509 219 446Q224 412 226.5 376.5Q229 341 238.0 299.0Q247 257 273 203Q306 136 367.5 94.5Q429 53 507.5 34.0Q586 15 669.0 17.0Q752 19 829.0 39.0Q906 59 963 94Q1023 130 1064.0 176.5Q1105 223 1131.0 270.0Q1157 317 1170.5 358.0Q1184 399 1188.5 426.5Q1193 454 1192 458Q1189 466 1159.5 483.0Q1130 500 1083.5 520.5Q1037 541 983 559Q930 576 881.0 591.0Q832 606 800.5 615.5Q769 625 769 625Q769 625 761.5 647.0Q754 669 735.0 701.0Q716 733 682.5 764.5Q649 796 598.0 816.0Q547 836 475 833Q407 830 360.0 810.5Q313 791 283.5 763.0Q254 735 238.0 706.5Q222 678 216 657Q213 646 210.0 628.0Q207 610 204.5 591.0Q202 572 200.5 559.5Q199 547 199 547Z" fill="#ffb903" stroke="none" transform="scale(1,-1) translate(0,-256)" /></svg>