<?xml version="1.0" encoding="utf-8" ?>
<svg baseProfile="full" height="256" version="1.1" width="256" xmlns="http://www.w3.org/2000/svg" xmlns:ev="http://www.w3.org/2001/xml-events" xmlns:xlink="http://www.w3.org/1999/xlink"><defs /><path d="M541 -187 540 -184Q541 -179 542.0 -156.5Q543 -134 544.5 -101.5Q546 -69 547.0 -34.0Q548 1 548.0 31.5Q548 62 547 81Q543 131 552.0 163.5Q561 196 575.0 223.0Q589 250 601 283Q619 331 588 372Q568 398 546.0 426.5Q524 455 514 467Q486 501 461.0 515.5Q436 530 411.0 534.0Q386 538 355 543Q312 550 278.0 554.0Q244 558 229 556Q221 555 203.0 552.5Q185 550 164.5 547.5Q144 545 129.0 543.0Q114 541 114 541L111 563L251 598L191 688L216 708L292 625Q301 614 321.0 606.0Q341 598 356 598L460 591Q460 591 458.5 607.5Q457 624 455.5 645.0Q454 666 454 680Q454 700 465.5 714.5Q477 729 487 737Q491 741 507.0 755.0Q523 769 543.5 787.0Q564 805 582.5 821.5Q601 838 609 847Q627 865 641.5 871.5Q656 878 666 881Q671 882 688.0 886.5Q705 891 725.0 896.0Q745 901 759.5 904.5Q774 908 774 908L782 890Q782 890 764.5 882.5Q747 875 725.5 867.0Q704 859 693 855Q676 850 662.5 838.5Q649 827 640 817Q634 810 621.0 792.0Q608 774 595.5 755.5Q583 737 577 729Q566 714 559.5 697.5Q553 681 557 663Q558 653 561.0 637.0Q564 621 566 609Q568 595 576.0 585.5Q584 576 591 569Q604 557 623.5 538.0Q643 519 663.5 498.5Q684 478 700.0 462.0Q716 446 722 439Q732 428 746.0 411.5Q760 395 771.5 373.0Q783 351 784 326Q784 298 778.5 280.0Q773 262 766.0 243.5Q759 225 753.5 196.5Q748 168 749 118Q754 123 771.5 140.5Q789 158 811.5 181.0Q834 204 855.0 225.5Q876 247 890.0 261.5Q904 276 904 276V385Q904 395 896 404L845 468L861 481Q861 481 869.0 474.0Q877 467 887.0 457.5Q897 448 903 442Q913 431 925.5 435.5Q938 440 944 448Q949 453 961.0 464.0Q973 475 986.0 486.5Q999 498 1008.0 506.0Q1017 514 1017 514L1038 499Q1038 499 1026.5 484.0Q1015 469 1000.0 449.0Q985 429 975 415Q966 401 966 382Q967 367 968.0 348.5Q969 330 969.5 317.0Q970 304 970 304Q970 304 981.5 311.0Q993 318 1008.0 327.0Q1023 336 1036 343Q1052 353 1078.0 356.0Q1104 359 1126 346Q1133 342 1149.5 332.5Q1166 323 1180.0 314.5Q1194 306 1194 306L1179 285Q1179 285 1167.5 289.0Q1156 293 1142.0 298.0Q1128 303 1123 306Q1115 310 1098.5 311.0Q1082 312 1068 303Q1059 297 1035.0 280.0Q1011 263 991 249Q978 240 966.5 229.0Q955 218 944 206L773 6Q753 -18 753 -48Q753 -48 753.5 -67.0Q754 -86 754.5 -111.5Q755 -137 756.0 -158.5Q757 -180 758 -186Q759 -197 737.0 -203.5Q715 -210 682.5 -211.5Q650 -213 617.0 -211.0Q584 -209 562.0 -203.0Q540 -197 541 -187Z" fill="#875c51" stroke="none" transform="scale(1,-1) translate(0,-256)" /></svg>