<?xml version="1.0" encoding="utf-8" ?>
<svg baseProfile="full" height="256" version="1.1" width="256" xmlns="http://www.w3.org/2000/svg" xmlns:ev="http://www.w3.org/2001/xml-events" xmlns:xlink="http://www.w3.org/1999/xlink"><defs /><path d="M724 416 723 415 640 479 766 616V695Q766 716 750 728L700 763L709 779L765 747Q772 742 780.5 744.0Q789 746 795 752L825 788L844 776L821 748Q812 735 812 718Q813 707 813.5 691.5Q814 676 814 660Q814 649 822.0 641.5Q830 634 841 635Q873 637 891.5 645.5Q910 654 924 667Q936 677 955.0 695.0Q974 713 988.5 727.0Q1003 741 1003 741L1025 722Q1025 722 1006.5 697.5Q988 673 953 633Q933 610 908.0 599.5Q883 589 864 584Q830 577 811 548Z" fill="#6c4a41" stroke="none" transform="scale(1,-1) translate(0,-256)" /><path d="M534 751 468 695 473 817Q474 851 499 876L535 912L555 899L547 889Q538 879 534.5 867.0Q531 855 531 842Q532 825 532.5 804.5Q533 784 533.5 768.5Q534 753 534 751Z" fill="#6c4a41" stroke="none" transform="scale(1,-1) translate(0,-256)" /><path d="M596 215H597Q597 215 593.0 197.0Q589 179 584.0 155.0Q579 131 575.0 112.0Q571 93 571 91Q571 90 553.0 105.0Q535 120 508.5 144.0Q482 168 453.0 193.5Q424 219 402 239Q366 273 315 271L103 262L100 283L172 292Q177 293 179.0 298.0Q181 303 177 307L82 407L100 425L213 335Q235 318 263 319L328 324Q347 325 355 343L406 452L430 435L412 326Z" fill="#6c4a41" stroke="none" transform="scale(1,-1) translate(0,-256)" /></svg>