<?xml version="1.0" encoding="utf-8" ?>
<svg baseProfile="full" height="256" version="1.1" width="256" xmlns="http://www.w3.org/2000/svg" xmlns:ev="http://www.w3.org/2001/xml-events" xmlns:xlink="http://www.w3.org/1999/xlink"><defs /><path d="M541 483 1108 446Q1108 446 1107.5 436.5Q1107 427 1104.5 416.5Q1102 406 1097 404Q1095 403 1055.5 403.5Q1016 404 950.5 404.5Q885 405 803.0 406.0Q721 407 635 407Q550 407 468.0 407.0Q386 407 319.5 407.0Q253 407 212.5 408.0Q172 409 169 411Q163 416 161.0 430.5Q159 445 159 445Z" fill="#8a1e0c" stroke="none" transform="scale(1,-1) translate(0,-256)" /><path d="M661 697 1170 732Q1170 732 1162.0 717.5Q1154 703 1142.5 687.0Q1131 671 1118 666Q1104 660 1054.5 653.0Q1005 646 905.5 641.0Q806 636 641 637Q476 638 373.0 645.0Q270 652 218.0 661.0Q166 670 155 676Q144 682 136.0 696.0Q128 710 128 710Z" fill="#8a1e0c" stroke="none" transform="scale(1,-1) translate(0,-256)" /><path d="M320 609 406 610V662L320 667Z" fill="#8a1e0c" stroke="none" transform="scale(1,-1) translate(0,-256)" /><path d="M889 660 980 665V607L889 603Z" fill="#8a1e0c" stroke="none" transform="scale(1,-1) translate(0,-256)" /></svg>