<?xml version="1.0" encoding="utf-8" ?>
<svg baseProfile="full" height="256" version="1.1" width="256" xmlns="http://www.w3.org/2000/svg" xmlns:ev="http://www.w3.org/2001/xml-events" xmlns:xlink="http://www.w3.org/1999/xlink"><defs /><path d="M145 -103Q146 -110 153.0 -120.5Q160 -131 166 -135Q173 -139 179.0 -139.5Q185 -140 183 -132Q161 -12 215 116Q236 166 273.0 224.5Q310 283 354.5 342.0Q399 401 445.5 453.0Q492 505 532 543Q616 622 702.5 685.5Q789 749 905 800Q986 837 1029.0 841.5Q1072 846 1072 846Q1080 845 1079.5 849.5Q1079 854 1078 857Q1075 864 1063.0 869.5Q1051 875 1048 875Q1047 876 1032.0 877.0Q1017 878 982.5 870.5Q948 863 889 836Q809 801 744.0 760.0Q679 719 621.0 672.5Q563 626 505 572Q464 533 416.5 479.5Q369 426 323.0 365.0Q277 304 239.0 244.0Q201 184 179 131Q160 86 149.5 49.5Q139 13 138.0 -23.5Q137 -60 145 -103Z" fill="#af5912" stroke="none" transform="scale(1,-1) translate(0,-256)" /><path d="M344 237Q387 237 430 263Q465 284 497.0 316.5Q529 349 560 383Q572 396 583.5 409.0Q595 422 606 433Q622 449 636.5 463.5Q651 478 665 492Q714 540 747.0 576.0Q780 612 791 644Q802 677 793.0 708.5Q784 740 756 763Q698 810 608.0 772.5Q518 735 395 615Q355 577 316.5 530.0Q278 483 254.0 433.5Q230 384 234 340Q235 315 242.5 295.5Q250 276 272 260Q303 237 344 237ZM678 757Q711 757 735 737Q777 704 760 654Q751 628 719.0 593.5Q687 559 642 515Q628 501 613.5 486.5Q599 472 583 456Q571 444 559.0 431.0Q547 418 535 405Q506 372 475.5 341.0Q445 310 413 291Q380 271 347.5 270.0Q315 269 291 287Q260 309 257 344Q254 389 294.5 453.5Q335 518 414 595Q582 757 678 757Z" fill="#af5912" stroke="none" transform="scale(1,-1) translate(0,-256)" /></svg>