<?xml version="1.0" encoding="utf-8" ?>
<svg baseProfile="full" height="256" version="1.1" width="256" xmlns="http://www.w3.org/2000/svg" xmlns:ev="http://www.w3.org/2001/xml-events" xmlns:xlink="http://www.w3.org/1999/xlink"><defs /><path d="M895 494Q895 494 909.0 519.0Q923 544 946.0 583.5Q969 623 995.0 667.0Q1021 711 1044.5 749.0Q1068 787 1085.0 810.0Q1102 833 1106 829Q1112 823 1124.5 810.5Q1137 798 1151.5 774.5Q1166 751 1177.5 712.5Q1189 674 1193 615Q1196 569 1190.5 509.0Q1185 449 1165.0 379.0Q1145 309 1105.5 234.0Q1066 159 1000 83Q869 -70 724.5 -139.5Q580 -209 439 -215Q361 -219 310.5 -207.5Q260 -196 231.5 -180.0Q203 -164 191.5 -151.5Q180 -139 180 -139Q180 -139 209.5 -113.0Q239 -87 290.0 -42.5Q341 2 404.0 57.0Q467 112 534.5 171.0Q602 230 665.5 286.0Q729 342 780.0 388.0Q831 434 862.0 462.5Q893 491 895 494Z" fill="#cf6f24" stroke="none" transform="scale(1,-1) translate(0,-256)" /></svg>