<?xml version="1.0" encoding="utf-8" ?>
<svg baseProfile="full" height="256" version="1.1" width="256" xmlns="http://www.w3.org/2000/svg" xmlns:ev="http://www.w3.org/2001/xml-events" xmlns:xlink="http://www.w3.org/1999/xlink"><defs /><path d="M408 548Q419 559 433.0 557.5Q447 556 456 549Q461 545 475.0 534.0Q489 523 503.5 511.0Q518 499 524 494Q534 484 534.5 468.5Q535 453 524 444Q511 433 496.0 439.0Q481 445 472 453Q462 462 448.0 474.0Q434 486 416 499Q400 511 399.5 524.0Q399 537 408 548Z" fill="#713604" stroke="none" transform="scale(1,-1) translate(0,-256)" /><path d="M479 621Q491 633 505.5 629.0Q520 625 528 619Q534 615 546.0 605.0Q558 595 570.0 585.0Q582 575 588 568Q596 560 606.0 546.5Q616 533 602 518Q589 505 576.5 507.5Q564 510 554.0 518.0Q544 526 539 531Q532 537 514.0 552.5Q496 568 485 575Q475 582 470.5 595.5Q466 609 479 621Z" fill="#713604" stroke="none" transform="scale(1,-1) translate(0,-256)" /><path d="M558 684Q569 696 582.5 692.5Q596 689 602 685Q615 677 633.0 661.0Q651 645 661 635Q671 625 679.5 611.5Q688 598 675 583Q665 573 654.0 575.5Q643 578 633.0 585.0Q623 592 618 597Q610 604 594.0 618.5Q578 633 567 640Q557 647 552.0 659.5Q547 672 558 684Z" fill="#713604" stroke="none" transform="scale(1,-1) translate(0,-256)" /><path d="M636 741Q645 750 658.5 748.0Q672 746 679 742Q686 737 703.0 723.5Q720 710 728 701Q739 687 745.0 674.5Q751 662 742 650Q734 639 720.5 641.5Q707 644 698 652Q692 658 673.5 673.5Q655 689 640 702Q628 713 629.0 723.5Q630 734 636 741Z" fill="#713604" stroke="none" transform="scale(1,-1) translate(0,-256)" /><path d="M340 470Q348 481 361.0 480.5Q374 480 383 474Q394 467 411.5 454.0Q429 441 438 433Q450 423 461.0 408.0Q472 393 458 377Q446 363 434.0 366.5Q422 370 413 375Q405 380 386.0 395.0Q367 410 352 421Q338 432 333.5 444.5Q329 457 340 470Z" fill="#713604" stroke="none" transform="scale(1,-1) translate(0,-256)" /><path d="M277 396Q286 408 298.0 406.0Q310 404 316 398Q319 395 331.5 386.0Q344 377 357.5 367.0Q371 357 379 351Q391 343 399.0 331.0Q407 319 396 304Q384 290 366.0 294.0Q348 298 341 304Q334 309 318.5 320.5Q303 332 286 347Q269 362 269.5 375.0Q270 388 277 396Z" fill="#713604" stroke="none" transform="scale(1,-1) translate(0,-256)" /></svg>