<?xml version="1.0" encoding="utf-8" ?>
<svg baseProfile="full" height="256" version="1.1" width="256" xmlns="http://www.w3.org/2000/svg" xmlns:ev="http://www.w3.org/2001/xml-events" xmlns:xlink="http://www.w3.org/1999/xlink"><defs /><path d="M721 436Q713 436 705.5 431.5Q698 427 699 408Q705 352 734.0 321.0Q763 290 803.5 281.0Q844 272 884.5 283.0Q925 294 955.5 323.0Q986 352 994 397Q995 406 992.0 416.5Q989 427 973 429Q951 431 917.5 432.5Q884 434 846.5 435.0Q809 436 775.5 436.5Q742 437 721 436ZM296 418Q319 421 354.5 425.0Q390 429 428.5 432.5Q467 436 499.0 438.0Q531 440 548 440Q562 440 567.5 431.5Q573 423 573 411Q569 359 541.5 327.5Q514 296 474.0 284.5Q434 273 393.0 280.0Q352 287 320.0 313.0Q288 339 278 383Q275 395 279.5 405.0Q284 415 296 418Z" fill="#ffffff" stroke="none" transform="scale(1,-1) translate(0,-256)" /></svg>