<?xml version="1.0" encoding="utf-8" ?>
<svg baseProfile="full" height="256" version="1.1" width="256" xmlns="http://www.w3.org/2000/svg" xmlns:ev="http://www.w3.org/2001/xml-events" xmlns:xlink="http://www.w3.org/1999/xlink"><defs /><path d="M250 302Q271 295 311.0 265.5Q351 236 399.5 194.5Q448 153 497.0 107.0Q546 61 586.0 18.0Q626 -25 647 -55Q669 -85 675.5 -104.5Q682 -124 682 -125Q703 -123 720.0 -112.0Q737 -101 728 -74Q720 -49 673.0 3.5Q626 56 545.0 125.0Q464 194 354 268Q349 271 334.0 280.0Q319 289 301.0 298.5Q283 308 269 312Q247 318 250 302Z" fill="#bdcf46" stroke="none" transform="scale(1,-1) translate(0,-256)" /><path d="M589 -213Q589 -213 595.5 -193.5Q602 -174 624 -143Q646 -113 686.0 -70.0Q726 -27 774.5 19.0Q823 65 871.5 106.5Q920 148 960.0 177.5Q1000 207 1022 214Q1024 230 1002 224Q988 220 970.0 210.5Q952 201 937.0 192.0Q922 183 918 180Q808 106 727.0 37.0Q646 -32 598.5 -84.5Q551 -137 543 -162Q535 -189 552.0 -199.5Q569 -210 589 -213Z" fill="#bdcf46" stroke="none" transform="scale(1,-1) translate(0,-256)" /></svg>