<?xml version="1.0" encoding="utf-8" ?>
<svg baseProfile="full" height="256" version="1.1" width="256" xmlns="http://www.w3.org/2000/svg" xmlns:ev="http://www.w3.org/2001/xml-events" xmlns:xlink="http://www.w3.org/1999/xlink"><defs /><path d="M650 -126Q658 -127 673.0 -126.0Q688 -125 703.0 -120.5Q718 -116 726.0 -105.0Q734 -94 728 -74Q720 -49 673.0 3.5Q626 56 545.0 125.0Q464 194 354 268Q349 271 334.0 280.0Q319 289 301.0 298.5Q283 308 269 312Q257 315 251.5 310.5Q246 306 254 289Q274 246 298.5 193.0Q323 140 354.0 86.0Q385 32 424.0 -15.0Q463 -62 511 -92Q552 -117 588.5 -120.5Q625 -124 650 -126Z" fill="#7cb342" stroke="none" transform="scale(1,-1) translate(0,-256)" /><path d="M677 -94Q693 -40 696.5 16.0Q700 72 702 127Q702 157 702.0 187.0Q702 217 702 246Q702 253 702.0 259.5Q702 266 702 272H632Q633 272 633.0 260.5Q633 249 633 249Q633 208 634.5 166.5Q636 125 633 84Q630 44 622.5 4.5Q615 -35 607 -73Q604 -86 601.0 -100.5Q598 -115 602.0 -126.5Q606 -138 624 -143Q630 -145 637.5 -145.5Q645 -146 652 -144Q657 -142 659.5 -137.0Q662 -132 664 -128Q666 -122 668.5 -116.5Q671 -111 673 -106Q676 -99 677 -94Z" fill="#7cb342" stroke="none" transform="scale(1,-1) translate(0,-256)" /><path d="M543 -162Q537 -182 545.0 -193.0Q553 -204 568.0 -208.5Q583 -213 598.0 -214.0Q613 -215 621 -214Q647 -212 683.5 -208.5Q720 -205 760 -180Q808 -150 847.0 -103.5Q886 -57 917.0 -2.5Q948 52 972.5 105.0Q997 158 1017 201Q1025 218 1019.5 222.5Q1014 227 1002 224Q988 220 970.0 210.5Q952 201 937.0 192.0Q922 183 918 180Q808 106 727.0 37.0Q646 -32 598.5 -84.5Q551 -137 543 -162Z" fill="#7cb342" stroke="none" transform="scale(1,-1) translate(0,-256)" /></svg>