<?xml version="1.0" encoding="utf-8" ?>
<svg baseProfile="full" height="256" version="1.1" width="256" xmlns="http://www.w3.org/2000/svg" xmlns:ev="http://www.w3.org/2001/xml-events" xmlns:xlink="http://www.w3.org/1999/xlink"><defs /><path d="M407 657Q411 650 408.5 642.0Q406 634 398 630L397 629Q332 591 278 538Q273 533 266 532Q256 531 249 537Q243 542 241.5 550.0Q240 558 245 565Q282 618 338 650Q359 661 382 669Q389 671 396.5 668.0Q404 665 407 657Z" fill="#422b0d" stroke="none" transform="scale(1,-1) translate(0,-256)" /><path d="M888 667Q884 659 886.5 651.5Q889 644 897 640L898 639Q963 601 1017 548Q1022 543 1029 542Q1039 541 1046 547Q1052 552 1053.5 560.0Q1055 568 1050 575Q1013 628 957 659Q936 671 913 678Q906 681 898.5 677.5Q891 674 888 667Z" fill="#422b0d" stroke="none" transform="scale(1,-1) translate(0,-256)" /><path d="M489 426Q502 409 523 416Q536 420 542.0 431.5Q548 443 544 455L543 458Q542 461 542 461Q541 463 540 466Q533 481 522 495Q507 515 485 528Q471 536 457 540Q441 544 425 544H418Q417 544 414.5 543.5Q412 543 410 543Q401 542 394 540Q353 529 328 495Q318 482 311 467Q310 464 309.5 462.0Q309 460 308 458L307 455Q300 435 316 421Q326 413 338.5 413.5Q351 414 360 424L363 427L368 433Q374 441 382 447Q392 455 403 460Q408 462 414 464Q417 464 419 465Q421 465 422 465H427Q427 465 427.5 465.0Q428 465 426 465Q438 465 449 460Q460 455 469 447Q474 443 477 439L483 434Q484 432 486 431L488 428Z" fill="#422b0d" stroke="none" transform="scale(1,-1) translate(0,-256)" /><path d="M914 426H913Q927 409 948 416Q960 420 966.0 431.5Q972 443 968 455L967 458Q966 461 966 461Q965 463 964 466Q961 473 957 479Q952 488 947 495Q931 515 909 528Q896 536 881 540Q866 544 850 544H843Q842 544 839.5 543.5Q837 543 835 543Q826 542 818 540Q778 529 753 495Q742 482 736 466Q734 464 733.5 461.5Q733 459 732 458L731 455Q724 435 740 421Q750 412 762.5 413.0Q775 414 784 424L787 427L792 433Q799 440 806 447Q816 455 827 460Q833 462 839 464Q841 464 844 465Q845 465 846 465H852Q851 465 852.0 465.0Q853 465 850 465Q862 465 873 460Q885 455 894 447Q899 443 902 439L908 434Q909 432 910 431L912 428Z" fill="#422b0d" stroke="none" transform="scale(1,-1) translate(0,-256)" /></svg>