<?xml version="1.0" encoding="utf-8" ?>
<svg baseProfile="full" height="256" version="1.1" width="256" xmlns="http://www.w3.org/2000/svg" xmlns:ev="http://www.w3.org/2001/xml-events" xmlns:xlink="http://www.w3.org/1999/xlink"><defs /><path d="M791 831Q721 831 661.5 806.5Q602 782 558.0 738.0Q514 694 489.5 634.5Q465 575 465 505Q465 435 491.0 374.0Q517 313 563.5 266.5Q610 220 671.5 193.5Q733 167 802 167Q872 167 931.5 191.5Q991 216 1035.0 260.5Q1079 305 1104.0 364.5Q1129 424 1129 494Q1129 563 1102.5 624.5Q1076 686 1029.5 732.5Q983 779 922.0 805.0Q861 831 791 831ZM532 764Q556 791 600.5 818.5Q645 846 702.5 865.5Q760 885 823.5 888.0Q887 891 950.0 869.5Q1013 848 1069 793Q1124 737 1149.0 674.5Q1174 612 1177.0 549.0Q1180 486 1167.0 429.5Q1154 373 1133.0 330.0Q1112 287 1090 265Q1040 214 971.5 177.5Q903 141 825.5 130.5Q748 120 669.5 144.0Q591 168 521 238Q456 303 432.0 374.0Q408 445 416.0 515.5Q424 586 455.0 650.0Q486 714 532 764Z" fill="#616161" stroke="none" transform="scale(1,-1) translate(0,-256)" /><path d="M408.0 229.0Q405.0 226.0 381.5 205.0Q358.0 184.0 323.0 151.0Q288.0 118.0 248.0 81.5Q208.0 45.0 172.0 11.5Q136.0 -22.0 112.0 -44.5Q88.0 -67.0 83.0 -71.0Q68.0 -87.0 79.0 -112.0Q90.0 -137.0 117.0 -164.0Q144.0 -191.0 171.0 -201.5Q198.0 -212.0 212.0 -198.0Q216.0 -194.0 238.5 -169.0Q261.0 -144.0 295.0 -106.5Q329.0 -69.0 366.5 -27.5Q404.0 14.0 437.0 50.5Q470.0 87.0 490.5 110.0Q511.0 133.0 511.0 133.0Q515.0 139.0 519.5 151.0Q524.0 163.0 520.0 179.5Q516.0 196.0 496.0 217.0Q475.0 237.0 457.0 240.0Q439.0 243.0 426.0 238.0Q413.0 233.0 408.0 229.0Z" fill="#616161" stroke="none" transform="scale(1,-1) translate(0,-256)" /></svg>