<?xml version="1.0" encoding="utf-8" ?>
<svg baseProfile="full" height="256" version="1.1" width="256" xmlns="http://www.w3.org/2000/svg" xmlns:ev="http://www.w3.org/2001/xml-events" xmlns:xlink="http://www.w3.org/1999/xlink"><defs /><path d="M578 344Q602 359 628.5 354.5Q655 350 673.5 326.0Q692 302 692 258Q692 214 678.5 153.0Q665 92 637.0 25.5Q609 -41 563.5 -100.5Q518 -160 454 -199Q454 -199 441.0 -203.0Q428 -207 409.5 -206.0Q391 -205 372 -190Q358 -179 350.0 -168.0Q342 -157 332.0 -148.0Q322 -139 303.5 -133.5Q285 -128 251 -127Q216 -127 184.0 -111.5Q152 -96 137.5 -63.5Q123 -31 142 20Q147 32 142.0 40.5Q137 49 126.0 58.5Q115 68 102.5 83.5Q90 99 81 127Q71 156 76.5 174.0Q82 192 95 195Q162 208 244.5 223.5Q327 239 413.5 266.5Q500 294 578 344Z" fill="#f5f5f5" stroke="none" transform="scale(1,-1) translate(0,-256)" /></svg>