<?xml version="1.0" encoding="utf-8" ?>
<svg baseProfile="full" height="256" version="1.1" width="256" xmlns="http://www.w3.org/2000/svg" xmlns:ev="http://www.w3.org/2001/xml-events" xmlns:xlink="http://www.w3.org/1999/xlink"><defs /><path d="M323 99Q373 111 412.0 128.5Q451 146 487 173Q552 222 588 295Q553 262 513 235Q464 203 424.0 183.0Q384 163 340.5 152.0Q297 141 237 134Q216 131 216 109Q217 99 224.5 91.5Q232 84 242 85Q283 89 323 99Z" fill="#b3b3b3" stroke="none" transform="scale(1,-1) translate(0,-256)" /><path d="M433 -24Q445 -20 473.5 1.0Q502 22 532.0 59.5Q562 97 579 148Q590 187 595 229Q595 229 587.5 216.0Q580 203 570.0 185.0Q560 167 551 154Q495 74 413 21Q404 15 402.0 5.0Q400 -5 406 -13Q416 -29 433 -24Z" fill="#b3b3b3" stroke="none" transform="scale(1,-1) translate(0,-256)" /></svg>