<?xml version="1.0" encoding="utf-8" ?>
<svg baseProfile="full" height="256" version="1.1" width="256" xmlns="http://www.w3.org/2000/svg" xmlns:ev="http://www.w3.org/2001/xml-events" xmlns:xlink="http://www.w3.org/1999/xlink"><defs /><path d="M1020 203V204Q1020 204 1021.0 203.5Q1022 203 1023 203Q1037 199 1044.5 185.5Q1052 172 1048 157Q1043 142 1029.5 134.5Q1016 127 1001 131L935 148L929 64Q928 55 924 48Q916 34 901.0 30.0Q886 26 873 34L797 77L765 -5Q757 -25 736 -28Q733 -29 730 -29Q713 -29 702 -16L642 54L639 61L573 -16Q562 -29 545 -30Q542 -30 539 -29Q518 -26 510 -6L478 76L402 33Q394 29 386 28Q370 27 358.5 37.5Q347 48 346 63L339 148L274 131Q272 130 271 130Q256 127 243.0 135.0Q230 143 226 159Q223 174 231.5 187.0Q240 200 255 203L364 231Q367 232 371 233Q386 234 398.0 223.5Q410 213 411 198L416 128L478 163Q481 165 483 166Q497 171 511.5 165.0Q526 159 532 145L557 81L606 138Q617 152 635 151H638H640Q658 152 670 138L719 81L743 145Q744 147 746 149Q753 163 768.0 167.0Q783 171 797 163L859 128L864 198Q864 201 865 205Q869 220 882.5 228.0Q896 236 911 232Z" fill="#422b0d" stroke="none" transform="scale(1,-1) translate(0,-256)" /><path d="M356 412Q339 407 329.0 394.0Q319 381 321 366Q325 346 344.5 335.5Q364 325 385 331Q388 332 389 332L604 413Q610 414 612 419Q615 428 606 431L407 553Q392 562 374.0 561.5Q356 561 342 550Q336 545 333 538Q325 524 330.0 508.5Q335 493 349 485L353 483L471 434Z" fill="#422b0d" stroke="none" transform="scale(1,-1) translate(0,-256)" /><path d="M944 414Q961 410 971.0 397.0Q981 384 979 368Q975 348 955.5 337.5Q936 327 915 333L911 334L696 415Q690 416 688 421Q685 430 694 433L893 555Q908 565 926.0 564.0Q944 563 958 552Q964 547 967 540Q975 526 970.0 510.5Q965 495 951 487L947 485L830 436Z" fill="#422b0d" stroke="none" transform="scale(1,-1) translate(0,-256)" /></svg>