<?xml version="1.0" encoding="utf-8" ?>
<svg baseProfile="full" height="256" version="1.1" width="256" xmlns="http://www.w3.org/2000/svg" xmlns:ev="http://www.w3.org/2001/xml-events" xmlns:xlink="http://www.w3.org/1999/xlink"><defs /><path d="M95 195Q84 193 78 183Q73 173 72 163Q70 141 77 121Q83 100 95 82Q107 64 122 49Q128 43 132 35Q134 29 131 24Q130 19 128.0 13.5Q126 8 124 3Q121 -8 119 -18Q116 -42 123 -65Q131 -88 148 -106Q165 -122 188 -131Q208 -140 231 -143Q238 -144 243 -144L253 -145Q258 -145 263.0 -145.5Q268 -146 273 -147Q290 -148 307 -155Q314 -157 320 -162Q327 -169 332 -175Q346 -193 365 -207Q375 -215 388 -219Q400 -223 413 -224Q425 -225 437 -223Q442 -222 449 -220Q456 -218 462 -216H463L464 -215Q523 -178 567 -123Q572 -116 578 -109L587 -95L597 -81Q599 -77 601.5 -73.5Q604 -70 606 -66Q610 -59 614.5 -51.5Q619 -44 623 -36Q626 -29 630.5 -21.5Q635 -14 638 -6Q641 2 644.5 10.0Q648 18 651 26Q654 34 657.0 42.0Q660 50 662 58Q664 66 667.0 74.0Q670 82 672 90Q674 98 676.0 106.5Q678 115 680 123Q695 189 691 257Q684 191 663 127Q643 65 612 6Q609 -1 604.5 -8.0Q600 -15 596 -22Q592 -29 587.5 -35.5Q583 -42 579 -49Q576 -52 574.0 -55.5Q572 -59 569 -63L560 -76L551 -88Q548 -92 545.5 -95.0Q543 -98 540 -101Q498 -149 443 -183L445 -182Q444 -183 442.0 -183.5Q440 -184 438 -185Q436 -185 434.0 -185.5Q432 -186 430 -186Q422 -188 414 -187Q398 -186 386 -177Q371 -166 360 -151Q352 -142 343 -134Q333 -126 321 -121Q299 -113 276 -111Q270 -111 264.5 -110.5Q259 -110 254 -110H245Q240 -110 235 -110Q217 -108 200 -101Q183 -95 170 -84Q156 -72 150 -56Q144 -39 145 -22Q146 -12 148 -3L153 16L155 23Q155 26 155 30Q155 34 154 38Q153 41 151 45Q145 55 135 62Q120 75 107 91Q95 106 87 125Q79 143 78 163Q77 172 81 181Q85 191 95 195Z" fill="#bdbdbd" stroke="none" transform="scale(1,-1) translate(0,-256)" /></svg>