<?xml version="1.0" encoding="utf-8" ?>
<svg baseProfile="full" height="256" version="1.1" width="256" xmlns="http://www.w3.org/2000/svg" xmlns:ev="http://www.w3.org/2001/xml-events" xmlns:xlink="http://www.w3.org/1999/xlink"><defs /><path d="M203 92Q209 89 216 99L355 309L331 324L205 106Q203 102 201.0 98.0Q199 94 203 92Z" fill="#6fbff0" stroke="none" transform="scale(1,-1) translate(0,-256)" /><path d="M201 88Q211 83 220 97L362 311L329 331L201 108Q201 107 200 106Q197 101 196 98Q195 91 201 88ZM205 96Q206 98 208 101Q209 103 209 103L332 318L349 308L212 102Q208 95 205 96Z" fill="#6fbff0" stroke="none" transform="scale(1,-1) translate(0,-256)" /><path d="M411 248Q419 243 427.5 244.5Q436 246 441 253L504 342L505 388L429 286Q422 275 410 282L158 456Q151 460 149 457Q144 452 151 447Z" fill="#6fbff0" stroke="none" transform="scale(1,-1) translate(0,-256)" /><path d="M409 244Q430 230 445 250L509 341V402L426 289Q420 282 413 286L161 460Q161 460 160 460Q150 466 145 460Q141 455 143 450Q145 446 149 443ZM414 251 154 451Q152 452 152 453Q152 454 152 454Q153 454 155 452Q156 452 156 452L408 278Q423 269 433 283L500 374V344L437 256Q428 242 414 251Z" fill="#6fbff0" stroke="none" transform="scale(1,-1) translate(0,-256)" /></svg>