<?xml version="1.0" encoding="utf-8" ?>
<svg baseProfile="full" height="256" version="1.1" width="256" xmlns="http://www.w3.org/2000/svg" xmlns:ev="http://www.w3.org/2001/xml-events" xmlns:xlink="http://www.w3.org/1999/xlink"><defs /><path d="M150 166 241 76Q241 76 230.5 71.5Q220 67 204.0 63.5Q188 60 171.0 64.0Q154 68 142 85Q127 104 130.5 123.0Q134 142 142.0 154.0Q150 166 150 166Z" fill="#c49166" stroke="none" transform="scale(1,-1) translate(0,-256)" /><path d="M361 84Q361 84 344.5 87.0Q328 90 305.0 94.0Q282 98 261.5 102.0Q241 106 233 107Q218 110 215.5 114.0Q213 118 214 136Q215 150 226.0 158.5Q237 167 250.5 171.5Q264 176 272 177Q278 177 293.5 176.5Q309 176 327.0 176.0Q345 176 359.5 176.0Q374 176 377 178Q383 180 386.5 188.5Q390 197 390 197L326 329L335 602Q335 602 347.5 620.5Q360 639 376.0 663.0Q392 687 401 704Q416 728 440.5 747.0Q465 766 483 763Q501 759 510.0 739.5Q519 720 521.5 692.0Q524 664 523 636Q521 608 511.5 584.0Q502 560 492.5 545.0Q483 530 483 530Q483 530 484.5 510.0Q486 490 515 444Q534 414 563.5 394.5Q593 375 627.0 357.0Q661 339 696 311Q834 203 835 32Q835 -12 825.5 -40.0Q816 -68 803.5 -84.0Q791 -100 781.5 -106.5Q772 -113 772 -113Q772 -113 778.5 -121.5Q785 -130 776 -145Q767 -160 739.5 -161.0Q712 -162 675 -163Q657 -164 628.0 -165.0Q599 -166 568.5 -168.0Q538 -170 513.5 -171.0Q489 -172 479 -173Q458 -173 434.5 -173.0Q411 -173 400 -164Q392 -158 395.5 -148.0Q399 -138 405.5 -130.5Q412 -123 412 -123Q412 -123 398.0 -124.5Q384 -126 367.0 -128.0Q350 -130 341 -131Q331 -132 311.5 -133.0Q292 -134 273.0 -132.5Q254 -131 246 -126Q237 -121 239.5 -110.5Q242 -100 250.0 -88.5Q258 -77 265 -70Q275 -60 292.5 -58.5Q310 -57 345 -55Q380 -52 404.0 -49.0Q428 -46 429 -43Q431 -41 413.5 -25.5Q396 -10 379 15Q363 39 362.0 61.5Q361 84 361 84Z" fill="#c49166" stroke="none" transform="scale(1,-1) translate(0,-256)" /></svg>