<?xml version="1.0" encoding="utf-8" ?>
<svg baseProfile="full" height="256" version="1.1" width="256" xmlns="http://www.w3.org/2000/svg" xmlns:ev="http://www.w3.org/2001/xml-events" xmlns:xlink="http://www.w3.org/1999/xlink"><defs /><path d="M399 81Q405 50 415.5 32.0Q426 14 442 -5Q458 -25 481.5 -41.0Q505 -57 528.5 -67.5Q552 -78 569 -81Q597 -85 618.5 -81.5Q640 -78 640 -78Q640 -78 631.5 -65.5Q623 -53 611.0 -36.5Q599 -20 590 -6Q576 14 568.5 45.5Q561 77 565 109Q567 126 576.5 141.5Q586 157 594.5 167.0Q603 177 603 177L554 215L482 110Z" fill="#fdc397" stroke="none" transform="scale(1,-1) translate(0,-256)" /><path d="M412 397Q380 415 354.5 420.5Q329 426 329 426L199 387L147 352L125 308L155 269Q155 269 174.0 258.5Q193 248 224 250Q242 252 263.5 258.0Q285 264 301.5 269.0Q318 274 321 273Q325 272 334.0 253.0Q343 234 349 223Q356 211 366.5 193.5Q377 176 377 176Q377 176 386.0 184.0Q395 192 402 219Q404 228 408.5 246.5Q413 265 418.5 284.5Q424 304 431 314Q441 329 448.5 342.0Q456 355 456 355Q456 355 446.0 369.0Q436 383 412 397Z" fill="#fdc397" stroke="none" transform="scale(1,-1) translate(0,-256)" /></svg>