<?xml version="1.0" encoding="utf-8" ?>
<svg baseProfile="full" height="256" version="1.1" width="256" xmlns="http://www.w3.org/2000/svg" xmlns:ev="http://www.w3.org/2001/xml-events" xmlns:xlink="http://www.w3.org/1999/xlink"><defs /><path d="M199 219Q208 219 221.0 215.0Q234 211 251 197Q271 180 276.5 160.5Q282 141 282 141Q282 141 271.5 130.0Q261 119 246.0 108.0Q231 97 220 97Q202 97 191.5 103.5Q181 110 176 116Q172 120 163.5 129.0Q155 138 149.5 152.0Q144 166 149 183Q155 203 169.5 211.0Q184 219 199 219Z" fill="#d97755" stroke="none" transform="scale(1,-1) translate(0,-256)" /></svg>