<?xml version="1.0" encoding="utf-8" ?>
<svg baseProfile="full" height="256" version="1.1" width="256" xmlns="http://www.w3.org/2000/svg" xmlns:ev="http://www.w3.org/2001/xml-events" xmlns:xlink="http://www.w3.org/1999/xlink"><defs /><path d="M116 316Q116 316 108.0 323.5Q100 331 91.0 337.0Q82 343 79 340Q74 334 80.0 326.0Q86 318 95.5 311.0Q105 304 109 300Q116 295 129.5 281.0Q143 267 163 262Q179 257 195.5 262.0Q212 267 224.5 274.5Q237 282 242 288Q250 296 249.0 302.0Q248 308 242 310Q237 313 230.5 308.5Q224 304 219 301Q215 297 201.0 288.5Q187 280 173 281Q158 282 148.0 295.0Q138 308 138 308Q138 308 143.0 317.0Q148 326 152.0 336.5Q156 347 152 351Q146 357 137.5 348.0Q129 339 122.5 327.5Q116 316 116 316Z" fill="#494949" stroke="none" transform="scale(1,-1) translate(0,-256)" /></svg>