<?xml version="1.0" encoding="utf-8" ?>
<svg baseProfile="full" height="256" version="1.1" width="256" xmlns="http://www.w3.org/2000/svg" xmlns:ev="http://www.w3.org/2001/xml-events" xmlns:xlink="http://www.w3.org/1999/xlink"><defs /><path d="M230 286Q234 278 225.5 271.5Q217 265 208 257Q199 251 176.5 230.5Q154 210 143 187Q131 164 132.5 137.5Q134 111 145 91Q157 70 177.5 59.0Q198 48 205 50Q209 51 219.0 58.5Q229 66 239.5 75.0Q250 84 255 90Q262 99 269.5 114.5Q277 130 277 130L303 122Q303 122 294.5 105.5Q286 89 281 79Q275 70 266.5 62.5Q258 55 252.5 50.5Q247 46 252 47Q258 49 271.5 56.0Q285 63 290 68Q300 77 308.5 86.0Q317 95 327 109Q335 119 341.0 126.0Q347 133 353 127Q359 120 352.0 108.0Q345 96 340 90Q336 86 323.5 71.0Q311 56 289.0 41.5Q267 27 236 25Q203 22 180.0 29.5Q157 37 133 70Q111 103 112.5 138.0Q114 173 123 194Q131 213 148.5 231.0Q166 249 183.0 263.0Q200 277 205 281Q212 288 219.0 290.5Q226 293 230 286Z" fill="#afafaf" stroke="none" transform="scale(1,-1) translate(0,-256)" /></svg>