<?xml version="1.0" encoding="utf-8" ?>
<svg baseProfile="full" height="256" version="1.1" width="256" xmlns="http://www.w3.org/2000/svg" xmlns:ev="http://www.w3.org/2001/xml-events" xmlns:xlink="http://www.w3.org/1999/xlink"><defs /><path d="M144 76Q123 114 124.5 145.0Q126 176 134.5 194.5Q143 213 143 213L222 284Q222 284 244.5 268.5Q267 253 292 222Q325 182 336.0 151.5Q347 121 347 121Q347 121 340.5 113.0Q334 105 326.0 94.0Q318 83 311.5 74.5Q305 66 305 66Q305 65 295.5 60.0Q286 55 273.0 49.0Q260 43 250.5 39.0Q241 35 241 35Q241 35 230.0 33.5Q219 32 203.0 34.5Q187 37 171.0 46.0Q155 55 144 76Z" fill="#ffffff" stroke="none" transform="scale(1,-1) translate(0,-256)" /></svg>