<?xml version="1.0" encoding="utf-8" ?>
<svg baseProfile="full" height="256" version="1.1" width="256" xmlns="http://www.w3.org/2000/svg" xmlns:ev="http://www.w3.org/2001/xml-events" xmlns:xlink="http://www.w3.org/1999/xlink"><defs /><path d="M377 771Q380 772 400.0 778.5Q420 785 436 778Q453 771 463.5 755.5Q474 740 474 740Q474 740 473.5 731.5Q473 723 469 715Q456 693 418 687Q406 685 387.5 685.5Q369 686 352.5 687.5Q336 689 332 690Q331 690 332.5 699.5Q334 709 338 720Q341 727 348.5 738.5Q356 750 364.0 759.5Q372 769 377 771Z" fill="#925949" stroke="none" transform="scale(1,-1) translate(0,-256)" /></svg>