<?xml version="1.0" encoding="utf-8" ?>
<svg baseProfile="full" height="256" version="1.1" width="256" xmlns="http://www.w3.org/2000/svg" xmlns:ev="http://www.w3.org/2001/xml-events" xmlns:xlink="http://www.w3.org/1999/xlink"><defs /><path d="M426 667 477 706Q477 706 485.0 694.0Q493 682 493 671Q493 664 482.5 653.0Q472 642 459.0 632.5Q446 623 439 620Q428 617 408.5 618.0Q389 619 372 619Q355 620 348.0 636.0Q341 652 339 658Q339 662 352.0 663.5Q365 665 382.5 665.5Q400 666 413.0 666.5Q426 667 426 667Z" fill="#cf701e" stroke="none" transform="scale(1,-1) translate(0,-256)" /><path d="M553 505 642 508Q642 508 642.5 501.5Q643 495 639 484Q636 472 625.5 458.5Q615 445 596 445Q577 445 560.5 458.0Q544 471 540 481Q538 488 542.5 494.0Q547 500 550 503Q551 504 552.0 504.5Q553 505 553 505Z" fill="#cf701e" stroke="none" transform="scale(1,-1) translate(0,-256)" /><path d="M355 433 456 452Q456 452 469.0 438.5Q482 425 483 406Q485 386 472.5 372.0Q460 358 440 352Q420 347 400.0 351.0Q380 355 365 370Q350 384 345.5 397.0Q341 410 341 417Q340 425 347.5 429.0Q355 433 355 433Z" fill="#cf701e" stroke="none" transform="scale(1,-1) translate(0,-256)" /><path d="M242 287 330 312Q330 312 341.5 301.5Q353 291 353 281Q353 275 340.0 263.5Q327 252 309.5 242.0Q292 232 277 230Q262 228 251.0 236.5Q240 245 234.0 256.0Q228 267 227 272Q226 280 234.0 283.5Q242 287 242 287Z" fill="#cf701e" stroke="none" transform="scale(1,-1) translate(0,-256)" /><path d="M444 150 573 128Q573 128 570.5 121.0Q568 114 559.5 106.5Q551 99 533.0 96.0Q515 93 486 101Q462 108 453.5 119.5Q445 131 444.5 140.5Q444 150 444 150Z" fill="#cf701e" stroke="none" transform="scale(1,-1) translate(0,-256)" /><path d="M757 133 882 99Q882 99 869.5 88.5Q857 78 838 75Q818 73 798.0 77.5Q778 82 760 95Q748 103 748.0 112.0Q748 121 752.5 127.0Q757 133 757 133Z" fill="#cf701e" stroke="none" transform="scale(1,-1) translate(0,-256)" /><path d="M956 371Q956 371 971.0 368.0Q986 365 1006.5 361.0Q1027 357 1043.0 352.5Q1059 348 1061 345Q1065 338 1061.5 327.0Q1058 316 1047 309Q1036 301 1017.0 297.5Q998 294 978.5 298.0Q959 302 947 315Q932 333 935.5 345.0Q939 357 947.5 364.0Q956 371 956 371Z" fill="#cf701e" stroke="none" transform="scale(1,-1) translate(0,-256)" /><path d="M800 603 936 615Q936 615 936.0 607.0Q936 599 930.5 588.0Q925 577 909.0 568.5Q893 560 860 559Q829 558 816.5 569.5Q804 581 802.0 592.0Q800 603 800 603Z" fill="#cf701e" stroke="none" transform="scale(1,-1) translate(0,-256)" /></svg>