<?xml version="1.0" encoding="utf-8" ?>
<svg baseProfile="full" height="256" version="1.1" width="256" xmlns="http://www.w3.org/2000/svg" xmlns:ev="http://www.w3.org/2001/xml-events" xmlns:xlink="http://www.w3.org/1999/xlink"><defs /><path d="M1194 913Q1199 913 1200.0 908.0Q1201 903 1197 900Q1152 879 1133.0 848.0Q1114 817 1111.5 770.5Q1109 724 1112 657Q1114 606 1100.0 566.5Q1086 527 1062.5 499.5Q1039 472 1013.0 455.0Q987 438 966 432Q965 432 964.5 432.0Q964 432 963 432Q956 432 953.5 439.0Q951 446 958 449Q991 465 1003.0 504.0Q1015 543 1014.0 598.5Q1013 654 1005 721Q998 783 1017.5 820.5Q1037 858 1069.5 878.0Q1102 898 1136.5 905.0Q1171 912 1194 913Z" fill="#424242" stroke="none" transform="scale(1,-1) translate(0,-256)" /></svg>