<?xml version="1.0" encoding="utf-8" ?>
<svg baseProfile="full" height="256" version="1.1" width="256" xmlns="http://www.w3.org/2000/svg" xmlns:ev="http://www.w3.org/2001/xml-events" xmlns:xlink="http://www.w3.org/1999/xlink"><defs /><path d="M638 913Q712 913 776.5 887.5Q841 862 890.5 816.5Q940 771 967.5 711.5Q995 652 995 584Q995 549 985.5 512.5Q976 476 960 442Q938 395 914.0 357.0Q890 319 883 306Q870 282 866.5 260.5Q863 239 862.5 219.5Q862 200 857 182Q849 155 830.0 138.5Q811 122 766.5 115.0Q722 108 637 108Q553 108 507.5 115.5Q462 123 442.0 140.5Q422 158 415 187Q410 211 407.5 246.0Q405 281 385 316Q378 329 357.5 362.0Q337 395 315 442Q299 476 289.5 512.5Q280 549 280 584Q280 652 307.5 711.5Q335 771 384.5 816.5Q434 862 498.5 887.5Q563 913 638 913Z" fill="#ffd600" stroke="none" transform="scale(1,-1) translate(0,-256)" /><path d="M473 88Q492 80 530.0 72.0Q568 64 633 64Q700 64 740.5 73.0Q781 82 802 92Q808 95 806.5 101.5Q805 108 798 108Q770 105 725.0 101.5Q680 98 627 98Q576 98 538.0 100.0Q500 102 477 104Q470 104 468.5 97.5Q467 91 473 88Z" fill="#ffd600" stroke="none" transform="scale(1,-1) translate(0,-256)" /></svg>