<?xml version="1.0" encoding="utf-8" ?>
<svg baseProfile="full" height="256" version="1.1" width="256" xmlns="http://www.w3.org/2000/svg" xmlns:ev="http://www.w3.org/2001/xml-events" xmlns:xlink="http://www.w3.org/1999/xlink"><defs /><path d="M843 134Q843 134 843.5 121.0Q844 108 842.5 91.5Q841 75 835 64Q831 56 825.5 49.5Q820 43 816 39Q809 33 812 25Q814 20 813.5 14.0Q813 8 809 3L805 1L799 -27L804 -37Q810 -48 801 -56L791 -67L785 -95L787 -99Q790 -109 782 -117L780 -119V-121Q780 -121 769.0 -133.0Q758 -145 727.5 -157.0Q697 -169 638 -169Q578 -169 547.5 -157.0Q517 -145 506.0 -133.0Q495 -121 495 -121L491 -100L487 -96Q475 -84 481 -68L483 -63L478 -37L473 -32Q462 -20 467 -5L469 2L464 28Q464 28 457.0 36.0Q450 44 440 64Q434 75 433.0 91.5Q432 108 432.0 121.0Q432 134 432 134Q432 134 452.0 127.5Q472 121 517.0 114.5Q562 108 638 108Q713 108 758.0 114.5Q803 121 823.0 127.5Q843 134 843 134Z" fill="#82aec0" stroke="none" transform="scale(1,-1) translate(0,-256)" /><path d="M440 151Q423 158 416 141Q412 133 414 126Q417 120 426 117Q490 89 637 89Q784 89 849 117Q867 124 859 141Q852 158 835 151Q777 126 637 126Q497 126 440 151Z" fill="#82aec0" stroke="none" transform="scale(1,-1) translate(0,-256)" /></svg>