<?xml version="1.0" encoding="utf-8" ?>
<svg baseProfile="full" height="256" version="1.1" width="256" xmlns="http://www.w3.org/2000/svg" xmlns:ev="http://www.w3.org/2001/xml-events" xmlns:xlink="http://www.w3.org/1999/xlink"><defs /><path d="M529 422 546 414Q548 419 551 425Q555 418 559 412Q585 373 608 388Q623 398 636 420Q637 418 638 416Q648 399 658 392Q673 381 686 390Q703 401 719 431Q721 426 723 420L741 426Q736 441 732 457Q742 481 753 514Q767 560 765 589Q763 629 730 629Q702 629 696 590Q693 564 700 520Q704 489 712 458Q694 417 676 406Q673 404 669 407Q662 412 654 426Q650 433 646 441Q658 471 667 516Q676 561 670 590Q663 629 633 629Q602 630 598 582Q595 547 608 496Q615 465 626 441Q613 414 598 403Q591 399 574 423Q567 434 560 448Q574 490 578 545Q581 581 575 603Q566 633 543 629Q512 623 510 576Q508 540 523 490Q531 466 540 447Q535 434 529 422ZM636 467Q630 483 626 501Q614 549 617 581Q619 611 633 611Q648 610 652 587Q657 561 648 520Q643 490 636 467ZM548 475Q545 485 541 495Q527 542 528 575Q530 607 547 610Q553 612 557 598Q562 579 559 546Q556 507 548 475ZM724 489Q721 506 718 523Q712 564 715 588Q718 610 730 610Q745 610 747 587Q748 562 735 520Q730 503 724 489Z" fill="#ffffff" stroke="none" transform="scale(1,-1) translate(0,-256)" /></svg>