<?xml version="1.0" encoding="utf-8" ?>
<svg baseProfile="full" height="256" version="1.1" width="256" xmlns="http://www.w3.org/2000/svg" xmlns:ev="http://www.w3.org/2001/xml-events" xmlns:xlink="http://www.w3.org/1999/xlink"><defs /><path d="M345 211Q360 217 365.5 209.5Q371 202 375.5 191.0Q380 180 390 179Q401 176 409.5 182.0Q418 188 425.5 193.5Q433 199 443 194Q451 190 451.0 178.5Q451 167 432 151Q422 141 405.0 139.5Q388 138 371.5 143.5Q355 149 346 162Q334 180 335.5 193.5Q337 207 345 211Z" fill="#0a0a0a" stroke="none" transform="scale(1,-1) translate(0,-256)" /></svg>