<?xml version="1.0" encoding="utf-8" ?>
<svg baseProfile="full" height="256" version="1.1" width="256" xmlns="http://www.w3.org/2000/svg" xmlns:ev="http://www.w3.org/2001/xml-events" xmlns:xlink="http://www.w3.org/1999/xlink"><defs /><path d="M338 440Q338 440 347.5 453.0Q357 466 368.0 480.0Q379 494 382 497Q381 504 377.0 531.0Q373 558 369.0 590.0Q365 622 364 644Q361 714 374 771Q379 794 389.5 815.0Q400 836 407 846Q392 862 378.0 873.0Q364 884 342 884Q316 884 300.5 829.5Q285 775 284 682Q283 638 294.0 588.5Q305 539 318.0 498.5Q331 458 338 440Z" fill="#7bb1ba" stroke="none" transform="scale(1,-1) translate(0,-256)" /><path d="M459 800Q455 803 443.0 812.5Q431 822 428 825Q422 815 414.0 798.5Q406 782 402 765Q395 731 393 694Q402 702 413.5 712.0Q425 722 438 732Q453 743 469.5 753.0Q486 763 498 769Q489 777 479.5 784.5Q470 792 459 800Z" fill="#7bb1ba" stroke="none" transform="scale(1,-1) translate(0,-256)" /><path d="M473 582Q508 612 522.0 638.0Q536 664 537.0 684.0Q538 704 534 716Q530 732 518 747Q508 742 489.5 731.5Q471 721 456 709Q435 692 418.0 677.0Q401 662 393 654Q393 653 395.0 630.0Q397 607 400.5 577.0Q404 547 407 523Q424 539 441.0 554.5Q458 570 473 582Z" fill="#7bb1ba" stroke="none" transform="scale(1,-1) translate(0,-256)" /><path d="M749 599Q729 577 723.5 542.5Q718 508 719.5 473.5Q721 439 723 417Q724 407 725.5 400.5Q727 394 730 383Q730 383 738.0 392.5Q746 402 757.0 414.0Q768 426 775 434Q792 453 812.5 469.0Q833 485 853 500Q853 504 854.0 520.0Q855 536 855.5 555.5Q856 575 856 588Q856 603 856.0 621.0Q856 639 857 651Q828 645 798.0 633.0Q768 621 749 599Z" fill="#7bb1ba" stroke="none" transform="scale(1,-1) translate(0,-256)" /><path d="M918 659Q918 659 906.5 658.0Q895 657 886 656Q885 645 885.0 625.0Q885 605 885 588Q885 575 884.5 556.0Q884 537 883 521Q898 532 911.5 544.0Q925 556 936 570Q952 588 969.0 615.5Q986 643 997 662Q994 662 979.0 661.5Q964 661 946.0 660.5Q928 660 918 659Z" fill="#7bb1ba" stroke="none" transform="scale(1,-1) translate(0,-256)" /><path d="M971 447Q1061 523 1093.0 569.0Q1125 615 1120 632Q1116 644 1090.5 651.0Q1065 658 1029 660Q1023 650 1011.5 630.0Q1000 610 986.0 588.5Q972 567 958 551Q940 529 917.5 511.5Q895 494 872 477Q851 462 831.5 447.0Q812 432 797 415Q785 401 770.5 384.5Q756 368 746.0 356.5Q736 345 736 345Q736 345 736.0 333.5Q736 322 735.5 308.0Q735 294 733 285Q754 298 786.5 319.0Q819 340 855.0 364.0Q891 388 922.0 410.0Q953 432 971 447Z" fill="#7bb1ba" stroke="none" transform="scale(1,-1) translate(0,-256)" /></svg>