<?xml version="1.0" encoding="utf-8" ?>
<svg baseProfile="full" height="256" version="1.1" width="256" xmlns="http://www.w3.org/2000/svg" xmlns:ev="http://www.w3.org/2001/xml-events" xmlns:xlink="http://www.w3.org/1999/xlink"><defs /><path d="M477 823Q503 803 529.0 781.0Q555 759 565 725Q568 715 570.5 699.5Q573 684 568.5 663.0Q564 642 546.5 616.5Q529 591 491 560Q480 551 467.5 540.5Q455 530 441 519Q439 518 433.5 514.5Q428 511 418 505Q401 493 388 478Q373 461 363.0 441.0Q353 421 353 421Q353 421 347.0 420.0Q341 419 335 418Q329 416 321.0 413.5Q313 411 313 411Q313 411 304.0 437.0Q295 463 283.0 504.5Q271 546 262.5 593.0Q254 640 255 683Q258 913 342 913Q373 913 392.5 897.5Q412 882 429 865Q433 860 443.5 851.0Q454 842 464.0 833.5Q474 825 477 823ZM459 800Q455 803 443.0 812.5Q431 822 428 825Q421 815 413.0 798.5Q405 782 402 765Q395 731 393 694Q402 702 413.5 712.0Q425 722 438 732Q452 743 469.0 753.0Q486 763 498 769Q489 777 479.5 784.5Q470 792 459 800ZM338 440Q338 440 347.5 453.0Q357 466 368.0 480.0Q379 494 382 497Q381 504 377.0 531.0Q373 558 369.0 590.0Q365 622 364 644Q361 714 373 771Q378 794 389.0 815.0Q400 836 407 846Q392 862 377.5 873.0Q363 884 341 884Q316 884 300.5 829.5Q285 775 284 682Q283 638 294.0 588.5Q305 539 318.0 498.5Q331 458 338 440ZM472 582Q508 612 522.0 638.0Q536 664 537.0 684.0Q538 704 534 716Q529 732 518 747Q508 742 489.5 731.5Q471 721 456 709Q435 692 418.0 677.0Q401 662 393 654Q393 653 395.0 630.0Q397 607 400.5 577.0Q404 547 407 523Q424 539 441.0 554.5Q458 570 472 582Z" fill="#6eadb7" stroke="none" transform="scale(1,-1) translate(0,-256)" /><path d="M1148 640Q1167 574 990 425Q971 409 937.0 385.0Q903 361 863.5 335.0Q824 309 788.5 286.0Q753 263 730.5 249.0Q708 235 708 235Q711 251 713.5 270.0Q716 289 715 308Q715 319 714.0 337.5Q713 356 712 361Q710 377 706.0 396.5Q702 416 693 434Q692 441 690.5 462.5Q689 484 691.0 513.0Q693 542 701.5 570.5Q710 599 727 619Q753 647 789.5 661.5Q826 676 860.5 681.0Q895 686 913 688Q913 688 931.5 689.0Q950 690 977.5 690.5Q1005 691 1033 689Q1135 682 1148 640ZM918 659Q918 659 906.5 658.0Q895 657 886 656Q885 645 885.0 625.0Q885 605 885 588Q885 575 884.5 556.0Q884 537 883 521Q898 532 911.5 544.0Q925 556 936 570Q952 588 969.0 615.5Q986 643 997 662Q994 662 979.0 661.5Q964 661 946.0 660.5Q928 660 918 659ZM749 599Q729 577 723.5 542.0Q718 507 719.5 472.5Q721 438 723 417Q725 407 727.0 398.5Q729 390 730 383Q730 383 738.0 392.5Q746 402 757.0 414.0Q768 426 775 434Q792 453 812.5 469.0Q833 485 853 500Q853 504 854.0 520.0Q855 536 855.5 555.5Q856 575 856 588Q856 603 856.0 621.0Q856 639 857 651Q828 645 798.0 633.0Q768 621 749 599ZM971 447Q1061 523 1093.0 569.0Q1125 615 1120 632Q1116 644 1090.5 651.0Q1065 658 1029 660Q1023 650 1011.5 630.0Q1000 610 986.0 588.5Q972 567 958 551Q940 529 917.5 511.5Q895 494 872 477Q851 462 831.5 447.0Q812 432 797 415Q785 401 770.5 384.5Q756 368 746.0 356.5Q736 345 736 345Q736 345 736.0 333.5Q736 322 735.5 308.0Q735 294 733 285Q754 298 786.5 319.0Q819 340 855.0 364.0Q891 388 922.0 410.0Q953 432 971 447Z" fill="#6eadb7" stroke="none" transform="scale(1,-1) translate(0,-256)" /></svg>