<?xml version="1.0" encoding="utf-8" ?>
<svg baseProfile="full" height="256" version="1.1" width="256" xmlns="http://www.w3.org/2000/svg" xmlns:ev="http://www.w3.org/2001/xml-events" xmlns:xlink="http://www.w3.org/1999/xlink"><defs /><path d="M483 485Q483 485 469.5 476.5Q456 468 438.0 456.5Q420 445 404.5 436.0Q389 427 384 427Q319 419 279.5 394.5Q240 370 219 328Q209 306 203.5 268.0Q198 230 205.5 187.5Q213 145 241.5 107.5Q270 70 327 50Q408 21 465.0 22.5Q522 24 559.5 43.5Q597 63 618.5 88.0Q640 113 649.0 132.0Q658 151 658 151L680 165Q680 165 701.0 177.0Q722 189 754.0 208.5Q786 228 819.0 250.5Q852 273 875 295Q906 325 933.0 357.0Q960 389 977.5 428.5Q995 468 998 519Q1000 571 979.0 618.5Q958 666 916.0 696.5Q874 727 814 727Q724 727 651.5 699.5Q579 672 544 629Q521 601 507.5 567.0Q494 533 488.5 509.0Q483 485 483 485Z" fill="#5e6366" stroke="none" transform="scale(1,-1) translate(0,-256)" /></svg>