<?xml version="1.0" encoding="utf-8" ?>
<svg baseProfile="full" height="256" version="1.1" width="256" xmlns="http://www.w3.org/2000/svg" xmlns:ev="http://www.w3.org/2001/xml-events" xmlns:xlink="http://www.w3.org/1999/xlink"><defs /><path d="M317 355Q317 355 313.5 362.5Q310 370 313.0 379.0Q316 388 333 392Q352 396 366.0 388.0Q380 380 389.0 366.5Q398 353 401 341Q405 322 398.5 297.0Q392 272 375.5 252.0Q359 232 333 227Q311 223 295.0 229.0Q279 235 271.5 244.5Q264 254 265 259Q266 264 276.0 270.0Q286 276 295.5 280.0Q305 284 305 284Z" fill="#a22918" stroke="none" transform="scale(1,-1) translate(0,-256)" /><path d="M510 253Q510 253 508.0 266.0Q506 279 506.0 296.5Q506 314 513.5 327.0Q521 340 539 340Q573 340 591.5 322.0Q610 304 616.0 280.5Q622 257 618 240Q610 201 582.0 181.5Q554 162 521 168Q488 173 479.5 187.0Q471 201 471 209Q472 215 481.5 225.5Q491 236 500.5 244.5Q510 253 510 253Z" fill="#a22918" stroke="none" transform="scale(1,-1) translate(0,-256)" /></svg>