<?xml version="1.0" encoding="utf-8" ?>
<svg baseProfile="full" height="256" version="1.1" width="256" xmlns="http://www.w3.org/2000/svg" xmlns:ev="http://www.w3.org/2001/xml-events" xmlns:xlink="http://www.w3.org/1999/xlink"><defs /><path d="M594.75 303.156005859375Q594.75 303.156005859375 603.75 305.156005859375Q612.75 307.156005859375 624.25 308.656005859375Q635.75 310.156005859375 644.25 308.156005859375Q652.75 306.156005859375 651.75 297.156005859375Q650.75 288.156005859375 640.75 264.156005859375Q630.75 240.156005859375 617.75 211.656005859375Q604.75 183.156005859375 594.75 160.656005859375Q584.75 138.156005859375 581.75 133.156005859375Q575.75 121.156005859375 561.75 117.156005859375Q547.75 113.156005859375 538.25 121.156005859375Q528.75 129.156005859375 534.75 151.156005859375Q535.75 154.156005859375 542.25 170.656005859375Q548.75 187.156005859375 557.25 209.156005859375Q565.75 231.156005859375 574.25 252.656005859375Q582.75 274.156005859375 588.75 288.656005859375Q594.75 303.156005859375 594.75 303.156005859375Z" fill="#ffe36a" stroke="none" transform="scale(1,-1) translate(0,-256)" /><path d="M609 138Q619 132 617.0 124.0Q615 116 612 111Q608 106 600.5 99.0Q593 92 584 97Q575 103 578.0 113.0Q581 123 586 130Q590 137 596.5 140.0Q603 143 609 138Z" fill="#ffe36a" stroke="none" transform="scale(1,-1) translate(0,-256)" /><path d="M705.968994140625 108.125Q722.968994140625 105.125 721.468994140625 91.125Q719.968994140625 77.125 715.968994140625 64.125Q713.968994140625 58.125 704.968994140625 36.625Q695.968994140625 15.125 686.968994140625 -7.375Q677.968994140625 -29.875 674.968994140625 -37.875Q667.968994140625 -53.875 656.468994140625 -51.875Q644.968994140625 -49.875 647.968994140625 -32.875Q649.968994140625 -23.875 654.968994140625 -2.375Q659.968994140625 19.125 665.468994140625 41.125Q670.968994140625 63.125 672.968994140625 74.125Q676.968994140625 90.125 683.468994140625 100.625Q689.968994140625 111.125 705.968994140625 108.125Z" fill="#ffe36a" stroke="none" transform="scale(1,-1) translate(0,-256)" /></svg>