<?xml version="1.0" encoding="utf-8" ?>
<svg baseProfile="full" height="256" version="1.1" width="256" xmlns="http://www.w3.org/2000/svg" xmlns:ev="http://www.w3.org/2001/xml-events" xmlns:xlink="http://www.w3.org/1999/xlink"><defs /><path d="M712.218994140625 289.18800354003906 750.218994140625 298.18800354003906Q750.218994140625 298.18800354003906 741.218994140625 280.18800354003906Q732.218994140625 262.18800354003906 720.718994140625 237.68800354003906Q709.218994140625 213.18800354003906 699.218994140625 192.68800354003906Q689.218994140625 172.18800354003906 686.218994140625 166.18800354003906Q681.218994140625 156.18800354003906 669.718994140625 160.18800354003906Q658.218994140625 164.18800354003906 662.218994140625 177.18800354003906Q663.218994140625 179.18800354003906 670.718994140625 196.68800354003906Q678.218994140625 214.18800354003906 687.718994140625 235.18800354003906Q697.218994140625 256.18800354003906 704.718994140625 272.68800354003906Q712.218994140625 289.18800354003906 712.218994140625 289.18800354003906Z" fill="#fdb900" stroke="none" transform="scale(1,-1) translate(0,-256)" /><path d="M506.125 85.718994140625Q491.125 85.718994140625 491.125 74.718994140625Q491.125 63.718994140625 503.125 63.718994140625Q505.125 64.718994140625 523.125 64.718994140625Q541.125 64.718994140625 565.125 64.718994140625Q589.125 64.718994140625 609.625 64.718994140625Q630.125 64.718994140625 638.125 64.718994140625Q653.125 64.718994140625 652.125 76.218994140625Q651.125 87.718994140625 638.125 86.718994140625Q635.125 86.718994140625 616.125 86.718994140625Q597.125 86.718994140625 573.625 86.718994140625Q550.125 86.718994140625 530.625 86.218994140625Q511.125 85.718994140625 506.125 85.718994140625Z" fill="#fdb900" stroke="none" transform="scale(1,-1) translate(0,-256)" /></svg>