<?xml version="1.0" encoding="utf-8" ?>
<svg baseProfile="full" height="256" version="1.1" width="256" xmlns="http://www.w3.org/2000/svg" xmlns:ev="http://www.w3.org/2001/xml-events" xmlns:xlink="http://www.w3.org/1999/xlink"><defs /><path d="M919 866Q982 866 1040.0 842.0Q1098 818 1139.5 769.0Q1181 720 1195.5 644.0Q1210 568 1186 463Q1172 403 1135.5 340.0Q1099 277 1049.0 215.5Q999 154 943.0 97.5Q887 41 833.0 -7.0Q779 -55 735.0 -90.5Q691 -126 664.5 -146.0Q638 -166 638 -166Q638 -166 611.5 -146.0Q585 -126 541.0 -90.5Q497 -55 443.0 -7.0Q389 41 333.0 97.5Q277 154 226.5 215.5Q176 277 139.5 340.0Q103 403 89 463Q65 568 81.0 644.0Q97 720 140.0 769.0Q183 818 240.5 842.0Q298 866 357 866Q419 866 465.5 845.0Q512 824 545.0 792.5Q578 761 598.5 729.5Q619 698 628.5 677.0Q638 656 638 656Q638 656 647.5 677.0Q657 698 677.5 729.5Q698 761 731.0 792.5Q764 824 810.5 845.0Q857 866 919 866Z" fill="#f44336" stroke="none" transform="scale(1,-1) translate(0,-256)" /></svg>