<?xml version="1.0" encoding="utf-8" ?>
<svg baseProfile="full" height="256" version="1.1" width="256" xmlns="http://www.w3.org/2000/svg" xmlns:ev="http://www.w3.org/2001/xml-events" xmlns:xlink="http://www.w3.org/1999/xlink"><defs /><path d="M291 476Q291 476 283.0 452.5Q275 429 268.5 388.0Q262 347 265.0 295.0Q268 243 288.0 185.5Q308 128 355 72Q397 22 456.0 -10.0Q515 -42 583.0 -54.0Q651 -66 719.5 -55.5Q788 -45 849.0 -10.5Q910 24 955 85Q1001 148 1018.0 208.0Q1035 268 1034.5 321.0Q1034 374 1024.0 414.0Q1014 454 1004.0 477.0Q994 500 994 500Z" fill="#d4d4d4" stroke="none" transform="scale(1,-1) translate(0,-256)" /></svg>