<?xml version="1.0" encoding="utf-8" ?>
<svg baseProfile="full" height="256" version="1.1" width="256" xmlns="http://www.w3.org/2000/svg" xmlns:ev="http://www.w3.org/2001/xml-events" xmlns:xlink="http://www.w3.org/1999/xlink"><defs /><path d="M637 726Q724 727 795.5 696.0Q867 665 919.0 613.0Q971 561 998.5 497.0Q1026 433 1025 365Q1025 290 1000.0 219.5Q975 149 928.0 93.0Q881 37 812.5 4.5Q744 -28 655 -28Q570 -28 500.0 4.5Q430 37 379.0 92.5Q328 148 301.0 219.0Q274 290 275 367Q276 469 320.0 550.0Q364 631 444.5 678.0Q525 725 637 726Z" fill="#f6f6f6" stroke="none" transform="scale(1,-1) translate(0,-256)" /></svg>