<?xml version="1.0" encoding="utf-8" ?>
<svg baseProfile="full" height="256" version="1.1" width="256" xmlns="http://www.w3.org/2000/svg" xmlns:ev="http://www.w3.org/2001/xml-events" xmlns:xlink="http://www.w3.org/1999/xlink"><defs /><path d="M1165 834Q1172 835 1172.0 826.5Q1172 818 1172 806Q1172 802 1172.5 771.0Q1173 740 1173.5 693.5Q1174 647 1174.5 596.0Q1175 545 1175.5 500.0Q1176 455 1176.0 426.5Q1176 398 1176 398L1152 366Q1152 366 1137.0 372.0Q1122 378 1107.0 384.5Q1092 391 1090 393Q1087 395 1084.5 429.5Q1082 464 1085 555Q1087 631 1090.5 677.5Q1094 724 1104 760Q1117 805 1136.0 819.5Q1155 834 1165 834Z" fill="#e0e0e0" stroke="none" transform="scale(1,-1) translate(0,-256)" /><path d="M91 490 240 491Q240 491 240.5 486.0Q241 481 241 474Q241 466 240.5 460.0Q240 454 240 454Q240 454 228.0 453.5Q216 453 200.5 452.0Q185 451 174 452Q162 452 142.5 453.5Q123 455 107.0 456.5Q91 458 91 460Q91 462 91.0 476.0Q91 490 91 490Z" fill="#e0e0e0" stroke="none" transform="scale(1,-1) translate(0,-256)" /></svg>