<?xml version="1.0" encoding="utf-8" ?>
<svg baseProfile="full" height="256" version="1.1" width="256" xmlns="http://www.w3.org/2000/svg" xmlns:ev="http://www.w3.org/2001/xml-events" xmlns:xlink="http://www.w3.org/1999/xlink"><defs /><path d="M621 851Q640 829 650.5 794.5Q661 760 655 709Q650 661 632.0 640.0Q614 619 602 613Q609 620 612 634Q635 670 636.0 705.5Q637 741 624.0 770.5Q611 800 593.0 821.5Q575 843 561 853Q515 885 486.0 895.0Q457 905 442 905Q457 911 481 907Q519 901 555.0 887.5Q591 874 621 851Z" fill="#c4c451" stroke="none" transform="scale(1,-1) translate(0,-256)" /></svg>