<?xml version="1.0" encoding="utf-8" ?>
<svg baseProfile="full" height="256" version="1.1" width="256" xmlns="http://www.w3.org/2000/svg" xmlns:ev="http://www.w3.org/2001/xml-events" xmlns:xlink="http://www.w3.org/1999/xlink"><defs /><path d="M947 617Q947 617 928.5 614.5Q910 612 895 608Q878 603 874.0 590.5Q870 578 887 562Q897 553 906.5 542.0Q916 531 920 513Q920 513 898.0 522.5Q876 532 838.0 538.0Q800 544 751 533Q700 521 667.5 503.5Q635 486 620.0 472.5Q605 459 605 459Q605 459 596.5 474.0Q588 489 566.5 508.5Q545 528 507 540Q478 549 452.0 547.0Q426 545 409.5 540.0Q393 535 393 535Q396 544 415.0 557.5Q434 571 460 573Q473 575 476.5 585.5Q480 596 464 602Q444 610 432.5 612.5Q421 615 421 615Q421 615 433.0 625.5Q445 636 474.0 645.0Q503 654 553 648Q579 645 607.0 635.0Q635 625 654.5 616.0Q674 607 674 607Q674 607 693.0 617.5Q712 628 745.5 637.5Q779 647 822 645Q868 642 896.5 634.0Q925 626 947 617Z" fill="#558b2f" stroke="none" transform="scale(1,-1) translate(0,-256)" /></svg>