<?xml version="1.0" encoding="utf-8" ?>
<svg baseProfile="full" height="256" version="1.1" width="256" xmlns="http://www.w3.org/2000/svg" xmlns:ev="http://www.w3.org/2001/xml-events" xmlns:xlink="http://www.w3.org/1999/xlink"><defs /><path d="M838 588 837 555Q837 555 846.0 553.5Q855 552 863 550Q872 549 882.0 546.5Q892 544 900 543Q912 543 915.5 547.0Q919 551 917 553Q913 557 904 560Q900 561 899.5 564.0Q899 567 903 569Q912 572 929.5 573.5Q947 575 947 578Q947 583 928 588Q922 589 910.0 589.5Q898 590 874 590Q850 589 844.0 588.5Q838 588 838 588Z" fill="#ffcb29" stroke="none" transform="scale(1,-1) translate(0,-256)" /><path d="M498 813Q492 801 489.5 785.5Q487 770 487 770Q487 770 485.5 753.0Q484 736 490 710Q492 701 498.5 685.5Q505 670 517.0 657.0Q529 644 549 643Q571 643 589.0 652.5Q607 662 619.0 675.5Q631 689 634 699Q638 709 638.0 721.5Q638 734 638 734Q638 734 637.0 731.5Q636 729 632 729Q628 729 625.5 737.5Q623 746 622 757Q621 765 618.5 779.5Q616 794 616 794Q616 794 612.5 797.5Q609 801 602 806Q596 811 589.5 817.0Q583 823 583 823Q583 823 568.5 819.0Q554 815 538 813Q523 812 510.5 812.5Q498 813 498 813Z" fill="#ffcb29" stroke="none" transform="scale(1,-1) translate(0,-256)" /><path d="M677 206Q677 206 690.5 199.0Q704 192 718 192Q729 191 738.5 194.5Q748 198 748 198Q748 198 760.5 185.0Q773 172 774 161Q776 150 771.0 145.0Q766 140 766 140L763 138L762 132Q762 132 760.5 129.5Q759 127 757 126Q755 125 750.0 125.0Q745 125 739 128Q735 130 723 141Q717 147 703.5 161.0Q690 175 684 182Q677 191 677.0 198.0Q677 205 677 206Z" fill="#ffcb29" stroke="none" transform="scale(1,-1) translate(0,-256)" /><path d="M266 448Q266 448 251.5 435.0Q237 422 227 393Q225 389 223.0 378.5Q221 368 220.0 357.0Q219 346 221 341Q225 335 233.0 333.0Q241 331 245 334Q249 337 254.5 348.0Q260 359 265 368Q272 382 279.5 387.0Q287 392 289 392Q298 393 299.5 386.5Q301 380 300 374Q299 362 302.0 356.0Q305 350 308 350Q311 351 316.0 362.5Q321 374 324 384Q327 393 327.5 405.5Q328 418 328 420Q328 423 318.5 433.0Q309 443 292 447Q284 449 275.0 448.5Q266 448 266 448Z" fill="#ffcb29" stroke="none" transform="scale(1,-1) translate(0,-256)" /><path d="M424 94Q424 94 433.0 84.5Q442 75 458 69Q472 64 483.5 66.5Q495 69 495 69Q495 69 495.0 57.0Q495 45 495 33Q495 21 496.5 3.0Q498 -15 498 -20Q498 -25 495.0 -31.0Q492 -37 485 -39Q481 -40 470.5 -40.0Q460 -40 460 -40Q460 -40 450.5 -40.0Q441 -40 429 -38Q408 -35 403 -12Q402 -7 401.5 4.0Q401 15 402 27Q403 49 406 58Q409 65 413.0 70.0Q417 75 419 82Q420 85 422.0 89.5Q424 94 424 94Z" fill="#ffcb29" stroke="none" transform="scale(1,-1) translate(0,-256)" /></svg>