<?xml version="1.0" encoding="utf-8" ?>
<svg baseProfile="full" height="256" version="1.1" width="256" xmlns="http://www.w3.org/2000/svg" xmlns:ev="http://www.w3.org/2001/xml-events" xmlns:xlink="http://www.w3.org/1999/xlink"><defs /><path d="M378 52Q378 52 378.0 48.0Q378 44 378 41Q378 38 378.0 34.0Q378 30 378 30L430 60L426 80Z" fill="#bc9671" stroke="none" transform="scale(1,-1) translate(0,-256)" /><path d="M411 -15V-14L412 32L378 12Q378 12 378.0 0.5Q378 -11 383 -18Q386 -23 389.0 -24.5Q392 -26 392 -26Z" fill="#bc9671" stroke="none" transform="scale(1,-1) translate(0,-256)" /><path d="M496 -6 494 15 537 40 520 9Z" fill="#bc9671" stroke="none" transform="scale(1,-1) translate(0,-256)" /><path d="M494 34 491 78 687 192 709 161 681 145Q681 145 673.5 150.5Q666 156 665 158Q659 162 646 161Q638 160 627.5 153.0Q617 146 608 138Q602 132 589.5 115.5Q577 99 566.5 84.5Q556 70 556 70Z" fill="#bc9671" stroke="none" transform="scale(1,-1) translate(0,-256)" /><path d="M519 110 512 129 681 226 689 210Z" fill="#bc9671" stroke="none" transform="scale(1,-1) translate(0,-256)" /><path d="M694 135V134Q694 134 697.0 132.5Q700 131 702 129Q704 128 708.0 126.0Q712 124 712 124L734 137L720 150Z" fill="#bc9671" stroke="none" transform="scale(1,-1) translate(0,-256)" /></svg>