<?xml version="1.0" encoding="utf-8" ?>
<svg baseProfile="full" height="256" version="1.1" width="256" xmlns="http://www.w3.org/2000/svg" xmlns:ev="http://www.w3.org/2001/xml-events" xmlns:xlink="http://www.w3.org/1999/xlink"><defs /><path d="M619 401 738 340 728 261 691 211 678 222Q678 222 676.5 223.5Q675 225 676 228Q676 232 677.0 234.0Q678 236 679 239Q679 243 680.5 249.5Q682 256 684 268Q686 281 691.0 300.0Q696 319 696 319Q696 319 679.5 324.5Q663 330 649 335Q635 340 620.5 345.5Q606 351 603 351Q600 351 593.5 345.5Q587 340 581.5 334.5Q576 329 576 329L548 327Z" fill="#464c4f" stroke="none" transform="scale(1,-1) translate(0,-256)" /><path d="M263 442Q263 442 272.0 434.0Q281 426 292.5 421.5Q304 417 312 429Q319 440 327.0 453.0Q335 466 344 479Q351 490 357.0 502.0Q363 514 370 522Q382 533 403.0 542.5Q424 552 443.0 557.5Q462 563 467 563Q473 563 474.5 558.5Q476 554 474 550Q473 546 465.0 542.5Q457 539 457 539Q457 539 454.5 522.0Q452 505 449.0 481.0Q446 457 443 438Q440 409 439.0 385.5Q438 362 441 342Q443 333 448.0 314.5Q453 296 458.5 276.0Q464 256 468.0 240.0Q472 224 473 220Q473 212 468.0 206.0Q463 200 457 187Q451 174 445.0 155.0Q439 136 436 128Q433 120 432.5 115.5Q432 111 432 111L435 93H446L472 158L497 198L500 230L475 314L466 371L469 441L497 512L529 539L581 558L632 556L675 540Q675 540 679.0 549.5Q683 559 687.5 568.5Q692 578 694 577Q697 577 711.0 569.5Q725 562 739.0 554.5Q753 547 756 546Q761 545 776.0 545.5Q791 546 805.5 546.5Q820 547 823 546Q828 546 830.0 543.0Q832 540 833 539Q836 539 839.0 539.0Q842 539 842 539Q842 539 848.0 547.0Q854 555 854 566Q855 578 852.5 583.5Q850 589 850 589Q850 589 834.5 590.0Q819 591 801.0 592.5Q783 594 775 595Q772 595 760.0 606.5Q748 618 732.0 632.5Q716 647 702 655Q680 668 659.0 672.0Q638 676 628 678Q623 678 604.0 677.0Q585 676 562.0 674.5Q539 673 522.5 671.5Q506 670 506 670Q506 670 485.5 666.0Q465 662 429 646Q394 630 371.0 614.0Q348 598 342 593Q337 589 325.0 577.5Q313 566 295 530Q278 494 270.5 468.0Q263 442 263 442Z" fill="#464c4f" stroke="none" transform="scale(1,-1) translate(0,-256)" /></svg>