<?xml version="1.0" encoding="utf-8" ?>
<svg baseProfile="full" height="256" version="1.1" width="256" xmlns="http://www.w3.org/2000/svg" xmlns:ev="http://www.w3.org/2001/xml-events" xmlns:xlink="http://www.w3.org/1999/xlink"><defs /><path d="M452 94Q457 94 458 99Q458 99 464.0 118.0Q470 137 480 160Q484 168 488.5 176.5Q493 185 497 192Q502 201 506.0 208.5Q510 216 512 221Q514 229 510.5 242.0Q507 255 500 273Q489 303 478.0 343.5Q467 384 475 432Q480 459 492.5 487.0Q505 515 531.0 534.0Q557 553 600 553Q620 553 633.0 549.0Q646 545 653 542Q661 538 664.5 534.5Q668 531 668 531Q672 526 677 530Q682 534 678 539Q678 540 660.0 553.0Q642 566 600 566Q574 566 545.5 555.5Q517 545 494.0 516.5Q471 488 462 434Q454 384 465.5 341.0Q477 298 488 268Q493 253 497.0 241.5Q501 230 499 224Q498 220 494.5 213.0Q491 206 486 198Q482 191 477.0 182.0Q472 173 468 165Q458 141 452.0 122.0Q446 103 446 102Q444 96 450 94Q451 94 452 94Z" fill="#d9d9d9" stroke="none" transform="scale(1,-1) translate(0,-256)" /></svg>