<?xml version="1.0" encoding="utf-8" ?>
<svg baseProfile="full" height="256" version="1.1" width="256" xmlns="http://www.w3.org/2000/svg" xmlns:ev="http://www.w3.org/2001/xml-events" xmlns:xlink="http://www.w3.org/1999/xlink"><defs /><path d="M827 332Q831 332 846.5 318.5Q862 305 880.5 287.0Q899 269 912.5 254.0Q926 239 926 234Q927 230 897.5 197.0Q868 164 811.5 113.5Q755 63 674.5 5.0Q594 -53 491 -107Q391 -159 317.0 -182.0Q243 -205 193.0 -208.0Q143 -211 116.5 -203.5Q90 -196 85 -186Q84 -183 82.5 -161.5Q81 -140 94.5 -104.0Q108 -68 148.5 -18.0Q189 32 271 94Q345 149 422.0 189.5Q499 230 570.0 257.5Q641 285 698.0 301.5Q755 318 789.5 325.5Q824 333 827 332Z" fill="#ff8e00" stroke="none" transform="scale(1,-1) translate(0,-256)" /></svg>