<?xml version="1.0" encoding="utf-8" ?>
<svg baseProfile="full" height="256" version="1.1" width="256" xmlns="http://www.w3.org/2000/svg" xmlns:ev="http://www.w3.org/2001/xml-events" xmlns:xlink="http://www.w3.org/1999/xlink"><defs /><path d="M500 685 630 674Q630 674 639.0 674.5Q648 675 661 677Q673 680 681.5 688.0Q690 696 689 701Q687 706 683.0 703.5Q679 701 677 707Q675 714 686.5 723.0Q698 732 701 745Q707 767 699.5 776.0Q692 785 692 785Q692 785 699.0 799.5Q706 814 696 835Q688 853 676.0 859.5Q664 866 655.5 867.5Q647 869 647 869Q647 869 642.5 879.0Q638 889 626.0 899.5Q614 910 592 912Q569 914 555.0 905.5Q541 897 530.0 888.5Q519 880 505 879Q494 879 492.0 887.0Q490 895 486 897Q483 898 474.5 892.5Q466 887 463 875Q459 864 462.5 855.5Q466 847 466 847Q466 847 456.0 837.0Q446 827 446 809Q446 791 454.0 783.0Q462 775 462 775Q462 775 456.0 760.5Q450 746 458 723Q468 697 484.0 691.0Q500 685 500 685Z" fill="#62453b" stroke="none" transform="scale(1,-1) translate(0,-256)" /><path d="M564 783V784Q565 783 570.5 783.0Q576 783 583 783Q589 783 595.0 782.5Q601 782 602 783Q603 785 599.5 789.5Q596 794 590 795Q586 796 576.0 796.0Q566 796 563 795Q561 793 561.0 789.0Q561 785 564 783Z" fill="#62453b" stroke="none" transform="scale(1,-1) translate(0,-256)" /><path d="M499 783Q500 781 512.5 781.5Q525 782 527 783Q533 785 528 793Q525 798 511 794Q504 793 500.5 789.5Q497 786 499 783Z" fill="#62453b" stroke="none" transform="scale(1,-1) translate(0,-256)" /><path d="M547 692Q555 692 563.5 695.5Q572 699 574 694Q576 690 569.0 684.5Q562 679 547 679Q534 679 527.5 684.5Q521 690 523 694Q525 698 532.5 695.0Q540 692 547 692Z" fill="#62453b" stroke="none" transform="scale(1,-1) translate(0,-256)" /></svg>