<?xml version="1.0" encoding="utf-8" ?>
<svg baseProfile="full" height="256" version="1.1" width="256" xmlns="http://www.w3.org/2000/svg" xmlns:ev="http://www.w3.org/2001/xml-events" xmlns:xlink="http://www.w3.org/1999/xlink"><defs /><path d="M544 660Q544 660 557.5 668.5Q571 677 588.5 687.5Q606 698 619.5 704.5Q633 711 633 707Q633 703 630.0 691.0Q627 679 627 668Q627 658 628.0 652.5Q629 647 628 645Q628 642 619.5 631.0Q611 620 584 621Q562 621 552.5 632.5Q543 644 543 644Z" fill="#ef9e01" stroke="none" transform="scale(1,-1) translate(0,-256)" /><path d="M633 713Q633 713 634.5 720.5Q636 728 638 734Q642 752 644.0 762.0Q646 772 649 772Q659 772 665.5 761.5Q672 751 666 733Q660 715 646.5 714.0Q633 713 633 713Z" fill="#ef9e01" stroke="none" transform="scale(1,-1) translate(0,-256)" /></svg>