<?xml version="1.0" encoding="utf-8" ?>
<svg baseProfile="full" height="256" version="1.1" width="256" xmlns="http://www.w3.org/2000/svg" xmlns:ev="http://www.w3.org/2001/xml-events" xmlns:xlink="http://www.w3.org/1999/xlink"><defs /><path d="M1201 843V-144Q1201 -174 1180.5 -194.5Q1160 -215 1131 -215H144Q114 -215 93.5 -194.5Q73 -174 73 -144V843Q73 872 93.5 892.5Q114 913 144 913H1131Q1160 913 1180.5 892.5Q1201 872 1201 843Z" fill="#000000" stroke="none" transform="scale(1,-1) translate(0,-256)" /><path d="M73 343 410 218Q410 217 410.0 217.0Q410 217 410 217L73 181Q73 181 73.0 227.5Q73 274 73 343Z" fill="#000000" stroke="none" transform="scale(1,-1) translate(0,-256)" /><path d="M73 559 435 279Q429 268 424.5 258.5Q420 249 417 242L73 431Q73 463 73.0 495.5Q73 528 73 559Z" fill="#000000" stroke="none" transform="scale(1,-1) translate(0,-256)" /><path d="M80 851 483 337Q475 329 466 320Q456 310 447 296L73 693Q73 708 73.0 720.0Q73 732 73 739Q73 772 73.0 804.5Q73 837 80 851Z" fill="#000000" stroke="none" transform="scale(1,-1) translate(0,-256)" /><path d="M302 913 545 378Q522 367 502 353L168 913Q198 913 233.5 913.0Q269 913 302 913Z" fill="#000000" stroke="none" transform="scale(1,-1) translate(0,-256)" /><path d="M513 913 612 397Q587 394 564 385L405 913Q427 913 454.5 913.0Q482 913 513 913Z" fill="#000000" stroke="none" transform="scale(1,-1) translate(0,-256)" /><path d="M715 913 683 399Q677 400 670.5 400.5Q664 401 657 401Q645 401 632 400L612 913Q638 913 664.0 913.0Q690 913 715 913Z" fill="#000000" stroke="none" transform="scale(1,-1) translate(0,-256)" /><path d="M915 913 751 384Q727 393 701 397L813 913Q840 913 866.0 913.0Q892 913 915 913Z" fill="#000000" stroke="none" transform="scale(1,-1) translate(0,-256)" /><path d="M1128 913 811 347Q802 355 791.5 362.0Q781 369 769 375L1014 913Q1020 913 1042.0 913.5Q1064 914 1088.5 914.0Q1113 914 1128 913Z" fill="#000000" stroke="none" transform="scale(1,-1) translate(0,-256)" /><path d="M1202 644 860 294Q850 309 837 323Q835 326 832.5 328.0Q830 330 828 332L1202 813Q1202 805 1201.5 756.5Q1201 708 1202 644Z" fill="#000000" stroke="none" transform="scale(1,-1) translate(0,-256)" /><path d="M1201 411 894 223Q891 231 886.0 244.0Q881 257 873 272L1201 531Q1201 502 1201.5 471.0Q1202 440 1201 411Z" fill="#000000" stroke="none" transform="scale(1,-1) translate(0,-256)" /><path d="M927 203 1201 316Q1201 243 1201.0 194.5Q1201 146 1201 146Z" fill="#000000" stroke="none" transform="scale(1,-1) translate(0,-256)" /><path d="M-195.65606689453125 -63.154632568359375Q-195.65606689453125 -63.154632568359375 -210.72370147705078 -69.6943588256836Q-225.7913360595703 -76.23408508300781 -247.4042205810547 -87.16925048828125Q-269.01710510253906 -98.10441589355469 -289.1619415283203 -112.17796325683594Q-301.2433776855469 -120.08670043945312 -317.3975067138672 -135.09327697753906Q-333.5516357421875 -150.099853515625 -346.1922607421875 -163.80357360839844Q-358.8328857421875 -177.50729370117188 -360.8783416748047 -181.9485321044922Q-362.91468811035156 -185.49745178222656 -365.55577087402344 -199.30294799804688Q-368.1968536376953 -213.1084442138672 -366.87911224365234 -230.97008514404297Q-365.5613708496094 -248.83172607421875 -355.7257995605469 -264.9952392578125Q-347.84458923339844 -276.6768035888672 -329.98661041259766 -290.6909408569336Q-312.1286315917969 -304.705078125 -292.25252532958984 -316.9549331665039Q-272.3764190673828 -329.2047882080078 -257.95906829833984 -337.3832321166992Q-243.54171752929688 -345.5616760253906 -243.54171752929688 -345.5616760253906Q-243.54171752929688 -345.5616760253906 -247.59619140625 -350.8748779296875Q-251.65066528320312 -356.1880798339844 -250.82379150390625 -373.1523132324219Q-249.99691772460938 -390.1165466308594 -233.70719146728516 -410.8078079223633Q-217.41746520996094 -431.4990692138672 -180.76531982421875 -465.78375244140625Q-162.93922424316406 -482.92100524902344 -136.14542388916016 -503.2729721069336Q-109.35162353515625 -523.6249389648438 -83.53955841064453 -542.1820907592773Q-57.72749328613281 -560.7392425537109 -40.346717834472656 -572.5174942016602Q-22.9659423828125 -584.2957458496094 -22.9659423828125 -584.2957458496094Q-22.9659423828125 -584.2957458496094 -34.57017517089844 -594.4403686523438Q-46.174407958984375 -604.5849914550781 -64.83753204345703 -620.4584426879883Q-83.50065612792969 -636.3318939208984 -103.67282104492188 -653.0823974609375Q-122.84503173828125 -669.8430786132812 -148.59437561035156 -694.122314453125Q-174.34371948242188 -718.4015502929688 -195.57960510253906 -741.3881072998047Q-216.81549072265625 -764.3746643066406 -223.93359375 -775.903564453125Q-235.1243896484375 -794.5303039550781 -248.26043701171875 -807.7827758789062Q-261.396484375 -821.0352478027344 -273.54168701171875 -835.1902160644531Q-285.6959991455078 -850.2375030517578 -299.9777526855469 -877.7568969726562Q-314.25950622558594 -905.2762908935547 -316.5691375732422 -935.5947723388672Q-317.7786102294922 -956.1079254150391 -308.4612350463867 -974.0509872436523Q-299.14385986328125 -991.9940490722656 -286.2810974121094 -1005.5111389160156Q-273.4183349609375 -1019.0282287597656 -264.4825134277344 -1025.3660583496094Q-255.53758239746094 -1030.8115692138672 -245.14737701416016 -1041.6262588500977Q-234.75717163085938 -1052.4409484863281 -227.34405517578125 -1060.9943084716797Q-219.93093872070312 -1069.5476684570312 -219.93093872070312 -1069.5476684570312L133.0529022216797 -1073.140365600586Q163.05152893066406 -1073.4456939697266 183.73733520507812 -1055.361801147461Q204.4231414794922 -1037.2779083251953 204.68731689453125 -1011.4006652832031L213.6783905029297 -130.6820831298828Q213.95167541503906 -103.91252136230469 193.6393585205078 -85.41134643554688Q173.32704162597656 -66.91017150878906 143.3284149169922 -66.60484313964844Z" fill="#000000" stroke="none" transform="scale(1,-1) translate(0,-256)" /><path d="M314 -215H583Q583 -215 575.5 -205.0Q568 -195 562 -189Q556 -184 553.5 -176.5Q551 -169 545 -161Q538 -153 526.0 -150.5Q514 -148 504 -143Q493 -138 471.0 -126.5Q449 -115 436 -103Q427 -96 417.5 -71.5Q408 -47 399.0 -20.5Q390 6 383 20Q377 34 364.5 47.0Q352 60 340.0 68.5Q328 77 322 77Q313 78 301.5 71.5Q290 65 286 52Q283 39 288.0 7.0Q293 -25 297 -52Q301 -78 303.0 -101.5Q305 -125 306 -137Q306 -145 308.0 -164.0Q310 -183 312.0 -199.0Q314 -215 314 -215Z" fill="#000000" stroke="none" transform="scale(1,-1) translate(0,-256)" /><path d="M419 68Q428 56 428.0 39.5Q428 23 432 9Q435 -6 444.5 -25.0Q454 -44 475 -61Q489 -73 511.5 -84.5Q534 -96 552.5 -102.5Q571 -109 573 -106Q574 -103 567.5 -88.0Q561 -73 551.0 -52.5Q541 -32 531.0 -14.0Q521 4 516 13Q505 30 495.5 38.0Q486 46 482 51Q478 55 470.0 75.0Q462 95 441 131Q420 168 397.5 185.0Q375 202 367 207Q359 211 347.5 216.0Q336 221 335 210Q333 199 337.5 187.0Q342 175 357 156Q373 137 388.0 112.5Q403 88 419 68Z" fill="#000000" stroke="none" transform="scale(1,-1) translate(0,-256)" /><path d="M174.75381469726562 -352.24363708496094Q184.11195373535156 -350.16490173339844 185.0051498413086 -361.7484436035156Q185.89834594726562 -373.3319854736328 182.8741683959961 -388.9957504272461Q179.84999084472656 -404.6595153808594 176.3068618774414 -416.7346496582031Q172.76373291015625 -428.8097839355469 172.76373291015625 -428.8097839355469Q172.76373291015625 -428.8097839355469 187.95008850097656 -423.77848052978516Q203.13644409179688 -418.74717712402344 223.24461364746094 -412.1287307739258Q243.352783203125 -405.5102844238281 259.9800491333008 -399.94725799560547Q276.60731506347656 -394.3842315673828 279.84547424316406 -393.8765869140625Q283.08363342285156 -393.3689422607422 292.78255462646484 -394.60093688964844Q302.4814758300781 -395.8329315185547 310.9822311401367 -397.0488739013672Q319.4829864501953 -398.2648162841797 319.4829864501953 -398.2648162841797Q319.4829864501953 -398.2648162841797 324.7455825805664 -399.9884033203125Q330.0081787109375 -401.7119903564453 341.01885986328125 -404.06361389160156Q352.38587951660156 -406.9710388183594 362.14937591552734 -407.37735748291016Q371.9128723144531 -407.78367614746094 390.85633850097656 -405.83335876464844Q400.0853271484375 -405.4059753417969 416.74605560302734 -404.5271301269531Q433.4067840576172 -403.6482849121094 448.9829406738281 -403.8569641113281Q464.55909729003906 -404.0656433105469 471.97528076171875 -406.3691101074219Q479.39146423339844 -408.6725769042969 470.4877014160156 -415.1656188964844Q459.05845642089844 -423.2779083251953 447.19039154052734 -424.22096252441406Q435.32232666015625 -425.1640167236328 427.7279739379883 -422.58264923095703Q420.1336212158203 -420.00128173828125 420.1336212158203 -420.00128173828125Q420.1336212158203 -420.00128173828125 400.7381286621094 -427.73133087158203Q381.34263610839844 -435.4613800048828 365.5081787109375 -438.55540466308594Q349.67372131347656 -441.64942932128906 336.08853912353516 -438.98780059814453Q322.50335693359375 -436.326171875 303.20355224609375 -437.72068786621094Q285.10191345214844 -439.1312561035156 260.2010803222656 -445.6854934692383Q235.3002471923828 -452.23973083496094 215.96932983398438 -459.14410400390625Q197.48023986816406 -465.50872802734375 175.36318969726562 -467.1410140991211Q153.2461395263672 -468.77330017089844 135.62998962402344 -469.08831787109375Q124.00466918945312 -469.4835968017578 109.62667846679688 -469.2909698486328Q95.24868774414062 -469.0983428955078 84.83708953857422 -466.75474548339844Q74.42549133300781 -464.41114807128906 74.45660400390625 -458.9012908935547Q74.13137817382812 -452.83563232421875 83.4560546875 -446.07271575927734Q92.78073120117188 -439.30979919433594 101.73351287841797 -434.74600982666016Q110.68629455566406 -430.1822204589844 110.68629455566406 -430.1822204589844Q110.68629455566406 -430.1822204589844 117.50104522705078 -422.2836227416992Q124.3157958984375 -414.38502502441406 131.92335510253906 -404.0174255371094Q139.53091430664062 -393.6498260498047 144.12750244140625 -385.9970245361328Q150.18055725097656 -375.0575714111328 157.78811645507812 -364.6899719238281Q165.3956756591797 -354.32237243652344 174.75381469726562 -352.24363708496094Z" fill="#000000" stroke="none" transform="scale(1,-1) translate(0,-256)" /></svg>