<?xml version="1.0" encoding="utf-8" ?>
<svg baseProfile="full" height="256" version="1.1" width="256" xmlns="http://www.w3.org/2000/svg" xmlns:ev="http://www.w3.org/2001/xml-events" xmlns:xlink="http://www.w3.org/1999/xlink"><defs /><path d="M802 692Q848 685 894.5 655.0Q941 625 985.5 581.5Q1030 538 1069.5 489.0Q1109 440 1140.5 395.5Q1172 351 1192 320Q1203 302 1198.5 281.0Q1194 260 1176 248Q1154 233 1124.0 211.0Q1094 189 1063 160Q1029 129 991.0 98.5Q953 68 904.5 42.5Q856 17 791.0 1.0Q726 -15 638 -15Q550 -15 484.5 1.0Q419 17 370.5 42.5Q322 68 284.0 98.5Q246 129 212 160Q181 189 151.0 211.0Q121 233 99 248Q81 260 76.5 281.0Q72 302 83 320Q103 351 134.5 395.5Q166 440 205.5 489.0Q245 538 289.5 581.5Q334 625 380.5 655.0Q427 685 473 692Q515 699 546.5 691.5Q578 684 598.0 673.0Q618 662 625 658Q633 653 638 652Q642 653 650 658Q657 662 677.0 673.0Q697 684 728.5 691.5Q760 699 802 692Z" fill="#ef4d8f" stroke="none" transform="scale(1,-1) translate(0,-256)" /></svg>