<?xml version="1.0" encoding="utf-8" ?>
<svg baseProfile="full" height="256" version="1.1" width="256" xmlns="http://www.w3.org/2000/svg" xmlns:ev="http://www.w3.org/2001/xml-events" xmlns:xlink="http://www.w3.org/1999/xlink"><defs /><path d="M476 144Q476 144 495.0 133.0Q514 122 550.0 111.5Q586 101 638 101Q686 101 722.0 110.5Q758 120 778.0 129.5Q798 139 798 139Q811 147 811.5 159.0Q812 171 803.5 179.0Q795 187 779 184Q714 174 640.0 175.0Q566 176 496 189Q481 192 472.0 184.0Q463 176 463.0 164.5Q463 153 476 144Z" fill="#ff80ab" stroke="none" transform="scale(1,-1) translate(0,-256)" /></svg>