<?xml version="1.0" encoding="utf-8" ?>
<svg baseProfile="full" height="256" version="1.1" width="256" xmlns="http://www.w3.org/2000/svg" xmlns:ev="http://www.w3.org/2001/xml-events" xmlns:xlink="http://www.w3.org/1999/xlink"><defs /><path d="M967 373Q988 374 1004.0 358.5Q1020 343 1020 321V2Q1020 -20 1004.5 -35.5Q989 -51 967 -51H524Q502 -51 486.5 -35.5Q471 -20 471 2V90L274 -47Q267 -51 259 -51Q244 -51 233.0 -41.0Q222 -31 222 -16V338Q222 346 226 354Q233 367 247.0 371.5Q261 376 274 370L471 232V320Q471 342 486.5 357.5Q502 373 524 373Z" fill="#fafafa" stroke="none" transform="scale(1,-1) translate(0,-256)" /><path d="M780.9624786376953 559.0760650634766Q780.9624786376953 598.7138824462891 766.0982971191406 633.5678253173828Q751.2341156005859 668.4217681884766 724.751953125 694.9039306640625Q698.2697906494141 721.3860931396484 663.4158477783203 736.4211273193359Q628.5619049072266 751.4561614990234 588.9240875244141 751.4561614990234Q548.9445648193359 751.4561614990234 514.0906219482422 736.4211273193359Q479.23667907714844 721.3860931396484 452.7545166015625 694.9039306640625Q426.27235412597656 668.4217681884766 411.4081726074219 633.5678253173828Q396.5439910888672 598.7138824462891 396.5439910888672 559.0760650634766Q396.5439910888672 519.4382476806641 411.4081726074219 484.5843048095703Q426.27235412597656 449.73036193847656 452.7545166015625 423.2481994628906Q479.23667907714844 396.7660369873047 514.0906219482422 381.90185546875Q548.9445648193359 367.0376739501953 588.9240875244141 367.0376739501953Q628.5619049072266 367.0376739501953 663.4158477783203 381.90185546875Q698.2697906494141 396.7660369873047 724.751953125 423.2481994628906Q751.2341156005859 449.73036193847656 766.0982971191406 484.5843048095703Q780.9624786376953 519.4382476806641 780.9624786376953 559.0760650634766Z" fill="#fafafa" stroke="none" transform="scale(1,-1) translate(0,-256)" /><path d="M1052.8035888671875 500.93992614746094Q1052.8035888671875 528.7805633544922 1042.3633499145508 553.2611236572266Q1031.923110961914 577.7416839599609 1013.3226852416992 596.3421096801758Q994.7222595214844 614.9425354003906 970.24169921875 625.5027770996094Q945.7611389160156 636.0630187988281 917.9205017089844 636.0630187988281Q889.8398590087891 636.0630187988281 865.3592987060547 625.5027770996094Q840.8787384033203 614.9425354003906 822.2783126831055 596.3421096801758Q803.6778869628906 577.7416839599609 793.2376480102539 553.2611236572266Q782.7974090576172 528.7805633544922 782.7974090576172 500.93992614746094Q782.7974090576172 473.0992889404297 793.2376480102539 448.6187286376953Q803.6778869628906 424.13816833496094 822.2783126831055 405.5377426147461Q840.8787384033203 386.93731689453125 865.3592987060547 376.49707794189453Q889.8398590087891 366.0568389892578 917.9205017089844 366.0568389892578Q945.7611389160156 366.0568389892578 970.24169921875 376.49707794189453Q994.7222595214844 386.93731689453125 1013.3226852416992 405.5377426147461Q1031.923110961914 424.13816833496094 1042.3633499145508 448.6187286376953Q1052.8035888671875 473.0992889404297 1052.8035888671875 500.93992614746094Z" fill="#fafafa" stroke="none" transform="scale(1,-1) translate(0,-256)" /></svg>