<?xml version="1.0" encoding="utf-8" ?>
<svg baseProfile="full" height="256" version="1.1" width="256" xmlns="http://www.w3.org/2000/svg" xmlns:ev="http://www.w3.org/2001/xml-events" xmlns:xlink="http://www.w3.org/1999/xlink"><defs /><path d="M131 160Q95 80 84.0 26.0Q73 -28 79.0 -65.5Q85 -103 101 -132Q112 -152 139.5 -168.0Q167 -184 202.0 -192.0Q237 -200 272 -196Q322 -190 356.0 -173.5Q390 -157 410.0 -120.5Q430 -84 436 -17Q440 27 434.5 72.5Q429 118 420.0 160.0Q411 202 404.0 236.0Q397 270 399 292Q400 309 405.5 343.0Q411 377 418.0 417.0Q425 457 431.5 494.0Q438 531 442.5 555.0Q447 579 447 579L318 628Z" fill="#90a4ae" stroke="none" transform="scale(1,-1) translate(0,-256)" /><path d="M751 197Q796 189 824.5 158.5Q853 128 868.5 85.5Q884 43 890.0 -3.0Q896 -49 896.0 -89.0Q896 -129 894.5 -154.0Q893 -179 893 -179L300 -200Q234 -200 206.5 -166.0Q179 -132 179 -82Q179 -33 208.5 -5.5Q238 22 287 30Q287 30 304.5 32.5Q322 35 347.0 40.0Q372 45 396.5 53.0Q421 61 436 73Q469 99 500.0 125.0Q531 151 565.5 171.5Q600 192 645.0 200.0Q690 208 751 197Z" fill="#90a4ae" stroke="none" transform="scale(1,-1) translate(0,-256)" /><path d="M1179 117Q1189 68 1179 19Q1166 -48 1122.5 -97.0Q1079 -146 1017.0 -168.0Q955 -190 888 -177Q820 -164 771.0 -120.0Q722 -76 700.0 -14.0Q678 48 692 115Q693 121 694 124Q694 124 694 125Q704 179 697.0 212.5Q690 246 680.0 261.0Q670 276 670 276Q670 276 684.0 290.5Q698 305 725.5 324.0Q753 343 794.0 358.5Q835 374 888 376Q946 378 998.5 360.5Q1051 343 1091.5 308.5Q1132 274 1156.0 225.5Q1180 177 1179 117Z" fill="#90a4ae" stroke="none" transform="scale(1,-1) translate(0,-256)" /><path d="M1198 80Q1198 147 1165.5 202.0Q1133 257 1078.0 289.5Q1023 322 957 322Q890 322 835.0 289.5Q780 257 747.5 202.0Q715 147 715 80Q715 14 747.5 -41.0Q780 -96 835.0 -128.5Q890 -161 957 -161Q1023 -161 1078.0 -128.5Q1133 -96 1165.5 -41.0Q1198 14 1198 80Z" fill="#90a4ae" stroke="none" transform="scale(1,-1) translate(0,-256)" /><path d="M468 738 492 710 538 665 621 769 605 876Z" fill="#90a4ae" stroke="none" transform="scale(1,-1) translate(0,-256)" /><path d="M679 843 733 671Q739 653 734.0 642.0Q729 631 722 628L663 676Q663 676 652.0 698.0Q641 720 625.5 750.0Q610 780 597 804Q585 826 588.5 846.0Q592 866 607.0 876.5Q622 887 642 881Q658 877 665.5 869.5Q673 862 679 843Z" fill="#90a4ae" stroke="none" transform="scale(1,-1) translate(0,-256)" /><path d="M471 757Q434 767 400.5 746.0Q367 725 356 686Q346 647 364.5 612.5Q383 578 420 568Q457 558 490.5 578.5Q524 599 535 639Q545 678 526.5 712.5Q508 747 471 757Z" fill="#90a4ae" stroke="none" transform="scale(1,-1) translate(0,-256)" /><path d="M674 604Q669 579 643 578Q643 578 643.0 578.0Q643 578 642 578Q642 578 641.5 578.0Q641 578 641 578Q633 578 606.5 579.5Q580 581 548.5 583.0Q517 585 492.0 587.0Q467 589 461 590Q438 595 425.5 614.5Q413 634 418 657Q423 680 442.5 692.5Q462 705 485 700Q496 697 523.0 688.0Q550 679 579.5 668.5Q609 658 630.0 650.0Q651 642 651 642Q664 638 670.5 627.0Q677 616 674 604Z" fill="#90a4ae" stroke="none" transform="scale(1,-1) translate(0,-256)" /></svg>