<?xml version="1.0" encoding="utf-8" ?>
<svg baseProfile="full" height="256" version="1.1" width="256" xmlns="http://www.w3.org/2000/svg" xmlns:ev="http://www.w3.org/2001/xml-events" xmlns:xlink="http://www.w3.org/1999/xlink"><defs /><path d="M640 824Q637 813 635.5 803.5Q634 794 633 789Q625 779 608.0 756.5Q591 734 572.5 710.0Q554 686 541.0 669.5Q528 653 528 653L396 676Q396 676 391.5 689.5Q387 703 387.5 723.0Q388 743 402 762L507 868Q520 883 537.0 888.5Q554 894 581 890Q605 888 622.0 885.0Q639 882 642 881Q642 881 641.5 862.0Q641 843 640 824Z" fill="#6d94a5" stroke="none" transform="scale(1,-1) translate(0,-256)" /></svg>