<?xml version="1.0" encoding="utf-8" ?>
<svg baseProfile="full" height="256" version="1.1" width="256" xmlns="http://www.w3.org/2000/svg" xmlns:ev="http://www.w3.org/2001/xml-events" xmlns:xlink="http://www.w3.org/1999/xlink"><defs /><path d="M365.4791259765625 -78.81387329101562Q365.4791259765625 -53.696044921875 347.6322479248047 -35.51866912841797Q329.7853698730469 -17.341293334960938 304.0065460205078 -17.341293334960938Q278.8887176513672 -17.341293334960938 260.71134185791016 -35.51866912841797Q242.53396606445312 -53.696044921875 242.53396606445312 -78.81387329101562Q242.53396606445312 -103.93170166015625 260.71134185791016 -122.10907745361328Q278.8887176513672 -140.2864532470703 304.0065460205078 -140.2864532470703Q329.7853698730469 -140.2864532470703 347.6322479248047 -122.10907745361328Q365.4791259765625 -103.93170166015625 365.4791259765625 -78.81387329101562Z" fill="#a38e7a" stroke="none" transform="scale(1,-1) translate(0,-256)" /><path d="M1118.6070404052734 79.17723083496094Q1118.6070404052734 116.26870727539062 1100.6149063110352 146.71693420410156Q1082.6227722167969 177.1651611328125 1052.174545288086 195.15729522705078Q1021.726318359375 213.14942932128906 985.1884460449219 213.14942932128906Q948.0969696044922 213.14942932128906 917.6487426757812 195.15729522705078Q887.2005157470703 177.1651611328125 869.208381652832 146.71693420410156Q851.2162475585938 116.26870727539062 851.2162475585938 79.17723083496094Q851.2162475585938 42.63935852050781 869.208381652832 12.191131591796875Q887.2005157470703 -18.257095336914062 917.6487426757812 -36.249229431152344Q948.0969696044922 -54.241363525390625 985.1884460449219 -54.241363525390625Q1021.726318359375 -54.241363525390625 1052.174545288086 -36.249229431152344Q1082.6227722167969 -18.257095336914062 1100.6149063110352 12.191131591796875Q1118.6070404052734 42.63935852050781 1118.6070404052734 79.17723083496094Z" fill="#a38e7a" stroke="none" transform="scale(1,-1) translate(0,-256)" /><path d="M686.5998229980469 835.3623809814453Q686.5998229980469 846.5314331054688 681.181999206543 855.7000579833984Q675.7641754150391 864.8686828613281 666.5955505371094 870.286506652832Q657.4269256591797 875.7043304443359 646.4245758056641 875.7043304443359Q635.2555236816406 875.7043304443359 626.0868988037109 870.286506652832Q616.9182739257812 864.8686828613281 611.5004501342773 855.7000579833984Q606.0826263427734 846.5314331054688 606.0826263427734 835.3623809814453Q606.0826263427734 824.3600311279297 611.5004501342773 815.19140625Q616.9182739257812 806.0227813720703 626.0868988037109 800.6049575805664Q635.2555236816406 795.1871337890625 646.4245758056641 795.1871337890625Q657.4269256591797 795.1871337890625 666.5955505371094 800.6049575805664Q675.7641754150391 806.0227813720703 681.181999206543 815.19140625Q686.5998229980469 824.3600311279297 686.5998229980469 835.3623809814453Z" fill="#a38e7a" stroke="none" transform="scale(1,-1) translate(0,-256)" /><path d="M734.8852691650391 658.2830963134766Q734.8852691650391 667.4483642578125 730.4394302368164 674.9720916748047Q725.9935913085938 682.4958190917969 718.4698638916016 686.9416580200195Q710.9461364746094 691.3874969482422 701.9176635742188 691.3874969482422Q692.7523956298828 691.3874969482422 685.2286682128906 686.9416580200195Q677.7049407958984 682.4958190917969 673.2591018676758 674.9720916748047Q668.8132629394531 667.4483642578125 668.8132629394531 658.2830963134766Q668.8132629394531 649.2546234130859 673.2591018676758 641.7308959960938Q677.7049407958984 634.2071685791016 685.2286682128906 629.7613296508789Q692.7523956298828 625.3154907226562 701.9176635742188 625.3154907226562Q710.9461364746094 625.3154907226562 718.4698638916016 629.7613296508789Q725.9935913085938 634.2071685791016 730.4394302368164 641.7308959960938Q734.8852691650391 649.2546234130859 734.8852691650391 658.2830963134766Z" fill="#a38e7a" stroke="none" transform="scale(1,-1) translate(0,-256)" /><path d="M524.7874145507812 644.2996826171875Q524.7874145507812 655.4687347412109 519.3695907592773 664.6373596191406Q513.9517669677734 673.8059844970703 504.78314208984375 679.2238082885742Q495.61451721191406 684.6416320800781 484.61216735839844 684.6416320800781Q473.443115234375 684.6416320800781 464.2744903564453 679.2238082885742Q455.1058654785156 673.8059844970703 449.6880416870117 664.6373596191406Q444.2702178955078 655.4687347412109 444.2702178955078 644.2996826171875Q444.2702178955078 633.2973327636719 449.6880416870117 624.1287078857422Q455.1058654785156 614.9600830078125 464.2744903564453 609.5422592163086Q473.443115234375 604.1244354248047 484.61216735839844 604.1244354248047Q495.61451721191406 604.1244354248047 504.78314208984375 609.5422592163086Q513.9517669677734 614.9600830078125 519.3695907592773 624.1287078857422Q524.7874145507812 633.2973327636719 524.7874145507812 644.2996826171875Z" fill="#a38e7a" stroke="none" transform="scale(1,-1) translate(0,-256)" /></svg>