<?xml version="1.0" encoding="utf-8" ?>
<svg baseProfile="full" height="256" version="1.1" width="256" xmlns="http://www.w3.org/2000/svg" xmlns:ev="http://www.w3.org/2001/xml-events" xmlns:xlink="http://www.w3.org/1999/xlink"><defs /><path d="M905 331Q905 331 916.0 323.0Q927 315 941.5 304.0Q956 293 966.5 285.0Q977 277 977 277V-59Q977 -89 965.0 -110.5Q953 -132 936.0 -146.0Q919 -160 905.0 -168.0Q891 -176 886 -178H454Q449 -176 434.5 -168.0Q420 -160 403.0 -146.0Q386 -132 373.5 -110.5Q361 -89 361 -59V277L434 331Z" fill="#fdd835" stroke="none" transform="scale(1,-1) translate(0,-256)" /><path d="M752 -184V-185Q765 -185 774.0 -176.0Q783 -167 783 -154V220Q783 235 772.0 246.0Q761 257 745 257H597Q584 257 574.5 248.0Q565 239 565 225V-152Q565 -166 574.5 -175.0Q584 -184 597 -184Z" fill="#fdd835" stroke="none" transform="scale(1,-1) translate(0,-256)" /></svg>