<?xml version="1.0" encoding="utf-8" ?>
<svg baseProfile="full" height="256" version="1.1" width="256" xmlns="http://www.w3.org/2000/svg" xmlns:ev="http://www.w3.org/2001/xml-events" xmlns:xlink="http://www.w3.org/1999/xlink"><defs /><path d="M978 172Q978 172 944.5 172.0Q911 172 856.0 172.0Q801 172 735.0 172.0Q669 172 603.5 172.0Q538 172 483.0 172.0Q428 172 394.5 172.0Q361 172 361 172Q361 172 361.0 185.0Q361 198 361.0 216.5Q361 235 361.0 252.0Q361 269 361 276Q361 286 378.0 299.0Q395 312 414.5 322.0Q434 332 443 332H896Q905 332 924.5 322.5Q944 313 961.0 300.5Q978 288 978 278Q978 274 978.0 257.5Q978 241 978.0 221.0Q978 201 978.0 186.5Q978 172 978 172Z" fill="#e0e0e0" stroke="none" transform="scale(1,-1) translate(0,-256)" /></svg>