<?xml version="1.0" encoding="utf-8" ?>
<svg baseProfile="full" height="256" version="1.1" width="256" xmlns="http://www.w3.org/2000/svg" xmlns:ev="http://www.w3.org/2001/xml-events" xmlns:xlink="http://www.w3.org/1999/xlink"><defs /><path d="M378 426Q369 429 365.0 442.0Q361 455 362 460Q362 463 373.5 463.0Q385 463 400.5 461.5Q416 460 429.0 457.0Q442 454 445 451Q449 447 436.5 440.0Q424 433 407.0 428.5Q390 424 378 426Z" fill="#fdfdfd" stroke="none" transform="scale(1,-1) translate(0,-256)" /><path d="M489 -193Q485 -199 478.5 -201.5Q472 -204 467 -204Q459 -204 450.0 -203.0Q441 -202 440 -194Q438 -186 448.5 -178.0Q459 -170 464 -166Q468 -162 468.0 -147.5Q468 -133 468 -122Q468 -100 474 -99Q480 -98 482.5 -107.0Q485 -116 487 -130Q489 -143 491.0 -163.5Q493 -184 489 -193Z" fill="#fdfdfd" stroke="none" transform="scale(1,-1) translate(0,-256)" /><path d="M865 -131Q872 -132 874.5 -149.0Q877 -166 877 -178Q878 -189 875.5 -198.5Q873 -208 858 -208Q842 -209 835.5 -207.5Q829 -206 829 -200Q828 -195 836.0 -189.5Q844 -184 848 -181Q857 -175 857 -156Q857 -146 858.5 -138.5Q860 -131 865 -131Z" fill="#fdfdfd" stroke="none" transform="scale(1,-1) translate(0,-256)" /><path d="M763 383Q768 385 780.5 379.5Q793 374 806.5 368.5Q820 363 828 364Q841 366 846.5 376.0Q852 386 862 383Q868 380 867.0 365.0Q866 350 860.0 335.5Q854 321 843 321Q828 320 818.5 324.5Q809 329 794 342Q780 355 769.5 368.0Q759 381 763 383Z" fill="#fdfdfd" stroke="none" transform="scale(1,-1) translate(0,-256)" /></svg>