<?xml version="1.0" encoding="utf-8" ?>
<svg baseProfile="full" height="256" version="1.1" width="256" xmlns="http://www.w3.org/2000/svg" xmlns:ev="http://www.w3.org/2001/xml-events" xmlns:xlink="http://www.w3.org/1999/xlink"><defs /><path d="M1159 816Q1129 826 1119 856L1109 885L1098 854Q1087 825 1057 815L1031 808L1059 799Q1090 789 1100 758L1109 730L1119 758Q1129 784 1155 795L1186 808Z" fill="#ffffff" stroke="none" transform="scale(1,-1) translate(0,-256)" /><path d="M207 -6Q192 -1 185.5 9.5Q179 20 174 34L164 88L153 32Q148 18 142.0 8.0Q136 -2 121 -6L96 -14L124 -23Q138 -28 144.0 -39.0Q150 -50 155 -64L164 -116L174 -64Q179 -51 184.5 -41.5Q190 -32 202 -27L234 -14Z" fill="#ffffff" stroke="none" transform="scale(1,-1) translate(0,-256)" /><path d="M1164 -107Q1150 -103 1143.5 -92.5Q1137 -82 1132 -68L1122 -14L1110 -69Q1105 -83 1099.0 -93.5Q1093 -104 1079 -108L1053 -116L1081 -125Q1096 -130 1102.0 -140.5Q1108 -151 1113 -166L1122 -218L1132 -166Q1137 -153 1142.0 -143.5Q1147 -134 1160 -129L1191 -116Z" fill="#ffffff" stroke="none" transform="scale(1,-1) translate(0,-256)" /><path d="M320 -138Q289 -129 279 -98L269 -69L258 -100Q247 -130 217 -139L192 -147L219 -156Q250 -166 260 -197L269 -224L279 -196Q289 -170 315 -160L346 -147Z" fill="#ffffff" stroke="none" transform="scale(1,-1) translate(0,-256)" /><path d="M248 796Q232 801 224.5 815.0Q217 829 214.0 843.5Q211 858 209 867Q208 875 204.5 888.5Q201 902 198.0 913.0Q195 924 195 924Q195 924 190.5 904.0Q186 884 181 859Q169 806 136 797L84 778L137 760Q154 756 166.5 733.5Q179 711 185 680Q188 659 191.5 643.5Q195 628 195 628L208 690Q214 715 219.0 731.5Q224 748 244 756L302 777Z" fill="#ffffff" stroke="none" transform="scale(1,-1) translate(0,-256)" /><path d="M558 319Q558 319 586.5 316.5Q615 314 661.5 314.5Q708 315 762 323L760 176L692 170L689 34Q585 34 519.5 41.5Q454 49 422.5 57.0Q391 65 391 65L376 200L325 212L367 647Q367 647 374.0 659.5Q381 672 391.5 691.5Q402 711 413.0 730.0Q424 749 431.5 762.5Q439 776 439 776L494 763Q498 771 505.5 786.0Q513 801 520.0 813.5Q527 826 527 826Q527 826 529.5 827.0Q532 828 536 829Q563 836 587.0 839.0Q611 842 638 843L625 751Q698 744 771 756L792 608L699 601V455Q694 454 673.0 455.0Q652 456 626.5 457.5Q601 459 582.5 460.0Q564 461 564 461Z" fill="#ffffff" stroke="none" transform="scale(1,-1) translate(0,-256)" /><path d="M481 328 617 312V167L458 181Z" fill="#ffffff" stroke="none" transform="scale(1,-1) translate(0,-256)" /><path d="M657 746Q657 746 656.0 731.0Q655 716 653.5 694.5Q652 673 650.5 651.0Q649 629 648.0 614.0Q647 599 648 598Q649 597 637.0 598.0Q625 599 609.0 600.5Q593 602 581.0 603.5Q569 605 569 605L558 468L433 490L408 343L276 381L325 514L260 539Q259 541 267.0 555.0Q275 569 286.5 588.5Q298 608 310.0 627.0Q322 646 330.0 658.5Q338 671 338 671Q338 671 362.0 659.5Q386 648 424.5 634.5Q463 621 505 616L537 753Z" fill="#ffffff" stroke="none" transform="scale(1,-1) translate(0,-256)" /><path d="M894 187Q864 196 854 226L844 254L833 224Q823 195 793 186L768 178L795 169Q826 160 835 130L844 102L854 130Q864 156 889 166L920 178Z" fill="#ffffff" stroke="none" transform="scale(1,-1) translate(0,-256)" /><path d="M876 415Q849 424 837.5 442.0Q826 460 817 486L800 582L780 483Q771 458 760.0 439.5Q749 421 723 413L678 399L727 383Q753 375 764.0 356.0Q775 337 784 311L800 218L818 311Q826 334 835.5 351.0Q845 368 867 377L924 400Z" fill="#ffffff" stroke="none" transform="scale(1,-1) translate(0,-256)" /></svg>