<?xml version="1.0" encoding="utf-8" ?>
<svg baseProfile="full" height="256" version="1.1" width="256" xmlns="http://www.w3.org/2000/svg" xmlns:ev="http://www.w3.org/2001/xml-events" xmlns:xlink="http://www.w3.org/1999/xlink"><defs /><path d="M90.9891357421875 356.34613037109375V321.7035217285156H107.47895812988281V356.34613037109375Z" fill="#fedc61" stroke="none" transform="scale(1,-1) translate(0,-256)" /><path d="M147.2391357421875 356.34613037109375V321.7035217285156H163.7289581298828V356.34613037109375Z" fill="#fedc61" stroke="none" transform="scale(1,-1) translate(0,-256)" /><path d="M90.9891357421875 426.00233459472656V391.35972595214844H107.47895812988281V426.00233459472656Z" fill="#fedc61" stroke="none" transform="scale(1,-1) translate(0,-256)" /><path d="M147.2391357421875 426.00233459472656V391.35972595214844H163.7289581298828V426.00233459472656Z" fill="#fedc61" stroke="none" transform="scale(1,-1) translate(0,-256)" /><path d="M90.9891357421875 495.65863037109375V461.0160217285156H107.47895812988281V495.65863037109375Z" fill="#fedc61" stroke="none" transform="scale(1,-1) translate(0,-256)" /><path d="M147.2391357421875 495.65863037109375V461.0160217285156H163.7289581298828V495.65863037109375Z" fill="#fedc61" stroke="none" transform="scale(1,-1) translate(0,-256)" /><path d="M90.9891357421875 565.3148345947266V530.6722259521484H107.47895812988281V565.3148345947266Z" fill="#fedc61" stroke="none" transform="scale(1,-1) translate(0,-256)" /><path d="M147.2391357421875 565.3148345947266V530.6722259521484H163.7289581298828V565.3148345947266Z" fill="#fedc61" stroke="none" transform="scale(1,-1) translate(0,-256)" /><path d="M90.9891357421875 635.0648345947266V600.4222259521484H107.47895812988281V635.0648345947266Z" fill="#fedc61" stroke="none" transform="scale(1,-1) translate(0,-256)" /><path d="M147.2391357421875 635.0648345947266V600.4222259521484H163.7289581298828V635.0648345947266Z" fill="#fedc61" stroke="none" transform="scale(1,-1) translate(0,-256)" /></svg>