<?xml version="1.0" encoding="utf-8" ?>
<svg baseProfile="full" height="256" version="1.1" width="256" xmlns="http://www.w3.org/2000/svg" xmlns:ev="http://www.w3.org/2001/xml-events" xmlns:xlink="http://www.w3.org/1999/xlink"><defs /><path d="M254.13414001464844 488.90745544433594 254.6517791748047 314.2512969970703 273.39283752441406 314.30902099609375 272.8751983642578 488.9651794433594Z" fill="#fff6b2" stroke="none" transform="scale(1,-1) translate(0,-256)" /><path d="M188.76963806152344 682.9198913574219 189.33433532714844 314.07061767578125 208.0753936767578 314.1002197265625 207.5106964111328 682.9494934082031Z" fill="#fff6b2" stroke="none" transform="scale(1,-1) translate(0,-256)" /><path d="M996.6659088134766 356.0095520019531 1107.7387237548828 355.70367431640625 1107.7964477539062 374.4447326660156 996.7236328125 374.7506103515625Z" fill="#fff6b2" stroke="none" transform="scale(1,-1) translate(0,-256)" /><path d="M967 77H1125V478L1201 477L1202 496H1106V96H967Z" fill="#fff6b2" stroke="none" transform="scale(1,-1) translate(0,-256)" /><path d="M918.8533172607422 320.90740966796875V302.1939697265625H966.7420349121094V320.90740966796875Z" fill="#fff6b2" stroke="none" transform="scale(1,-1) translate(0,-256)" /><path d="M751.0324859619141 389.71990966796875V371.0064697265625H799.6686553955078V389.71990966796875Z" fill="#fff6b2" stroke="none" transform="scale(1,-1) translate(0,-256)" /><path d="M700.8950500488281 322.50120544433594V303.7877655029297H751.1312103271484V322.50120544433594Z" fill="#fff6b2" stroke="none" transform="scale(1,-1) translate(0,-256)" /><path d="M672 -14V342H694V430H672V575H645L616 665L614 671V773H595V668L631 556H654V412H676V361H654V-14Z" fill="#fff6b2" stroke="none" transform="scale(1,-1) translate(0,-256)" /></svg>