<?xml version="1.0" encoding="utf-8" ?>
<svg baseProfile="full" height="256" version="1.1" width="256" xmlns="http://www.w3.org/2000/svg" xmlns:ev="http://www.w3.org/2001/xml-events" xmlns:xlink="http://www.w3.org/1999/xlink"><defs /><path d="M-215.0 619.4130249023438Q-215.0 635.29541015625 -194.5 646.5226135253906Q-174.0 657.7498168945312 -144.0 657.7498168945312H843.0Q872.0 657.7498168945312 892.5 646.5226135253906Q913.0 635.29541015625 913.0 619.4130249023438V78.8642578125Q913.0 62.4342041015625 892.5 51.207000732421875Q872.0 39.97979736328125 843.0 39.97979736328125H-144.0Q-174.0 39.97979736328125 -194.5 51.207000732421875Q-215.0 62.4342041015625 -215.0 78.8642578125Z" fill="#000000" stroke="none" transform="scale(1,-1) translate(0,-256)" /><path d="M1131 -215Q1160 -215 1180.5 -194.5Q1201 -174 1201 -144V843Q1201 872 1180.5 892.5Q1160 913 1131 913H144Q114 913 93.5 892.5Q73 872 73 843V-144Q73 -174 93.5 -194.5Q114 -215 144 -215Z" fill="#000000" stroke="none" transform="scale(1,-1) translate(0,-256)" /><path d="M1116 487H1201V-144Q1201 -174 1180.5 -194.5Q1160 -215 1131 -215H144Q114 -215 93.5 -194.5Q73 -174 73 -144V684Q73 684 92.0 684.0Q111 684 136.0 683.5Q161 683 180.0 683.0Q199 683 199 683V314H402V-14H469V351H446V421H469V565H495L528 670H595L629 565H654V421H676V351H654V-14H701V313H751V380H800V445H876V383H919V312H967V87H1116Q1116 87 1115.5 115.0Q1115 143 1115.0 188.0Q1115 233 1114.5 284.0Q1114 335 1114.0 380.5Q1114 426 1114.5 455.5Q1115 485 1116 487Z" fill="#000000" stroke="none" transform="scale(1,-1) translate(0,-256)" /><path d="M-392.3585968017578 1182.488296508789Q-443.92958068847656 1184.1799011230469 -489.09075927734375 1164.650146484375Q-534.2519378662109 1145.1203918457031 -568.9172744750977 1109.7381591796875Q-603.5826110839844 1074.3559265136719 -624.1447448730469 1027.0050048828125Q-644.7068786621094 979.6540832519531 -646.2334442138672 924.6750640869141Q-647.760009765625 869.696044921875 -629.8763046264648 820.5837783813477Q-611.9925994873047 771.4715118408203 -579.3534317016602 733.881591796875Q-546.7142639160156 696.2916717529297 -502.70494842529297 674.3372573852539Q-458.6956329345703 652.3828430175781 -407.12464904785156 650.6912384033203Q-356.42774963378906 649.0283050537109 -311.2804489135742 668.0582504272461Q-266.1331481933594 687.0881958007812 -231.03076934814453 722.4560928344727Q-195.9283905029297 757.8239898681641 -175.35237884521484 805.6747207641602Q-154.7763671875 853.5254516601562 -153.2498016357422 908.5044708251953Q-151.72323608398438 963.4834899902344 -169.62081909179688 1012.095947265625Q-187.51840209960938 1060.7084045410156 -220.59461212158203 1098.3126602172852Q-253.6708221435547 1135.9169158935547 -297.666259765625 1158.3711395263672Q-341.6616973876953 1180.8253631591797 -392.3585968017578 1182.488296508789Z" fill="#000000" stroke="none" transform="scale(1,-1) translate(0,-256)" /></svg>