<?xml version="1.0" encoding="utf-8" ?>
<svg baseProfile="full" height="256" version="1.1" width="256" xmlns="http://www.w3.org/2000/svg" xmlns:ev="http://www.w3.org/2001/xml-events" xmlns:xlink="http://www.w3.org/1999/xlink"><defs /><path d="M409.0 794.9380035400391Q417.0 794.9380035400391 422.0 800.4380035400391Q427.0 805.9380035400391 427.0 812.9380035400391V894.9380035400391Q427.0 901.9380035400391 422.0 907.4380035400391Q417.0 912.9380035400391 409.0 912.9380035400391H93.0Q86.0 912.9380035400391 80.5 907.4380035400391Q75.0 901.9380035400391 75.0 894.9380035400391V812.9380035400391Q75.0 805.9380035400391 80.5 800.4380035400391Q86.0 794.9380035400391 93.0 794.9380035400391Z" fill="#e04e2c" stroke="none" transform="scale(1,-1) translate(0,-256)" /><path d="M1181.968994140625 794.9380035400391Q1189.968994140625 794.9380035400391 1194.968994140625 800.4380035400391Q1199.968994140625 805.9380035400391 1199.968994140625 812.9380035400391V894.9380035400391Q1199.968994140625 901.9380035400391 1194.968994140625 907.4380035400391Q1189.968994140625 912.9380035400391 1181.968994140625 912.9380035400391H865.968994140625Q858.968994140625 912.9380035400391 853.468994140625 907.4380035400391Q847.968994140625 901.9380035400391 847.968994140625 894.9380035400391V812.9380035400391Q847.968994140625 805.9380035400391 853.468994140625 800.4380035400391Q858.968994140625 794.9380035400391 865.968994140625 794.9380035400391Z" fill="#e04e2c" stroke="none" transform="scale(1,-1) translate(0,-256)" /><path d="M409.0 463.93800354003906Q417.0 463.93800354003906 422.0 468.93800354003906Q427.0 473.93800354003906 427.0 480.93800354003906V562.9380035400391Q427.0 570.9380035400391 422.0 575.9380035400391Q417.0 580.9380035400391 409.0 580.9380035400391H93.0Q86.0 580.9380035400391 80.5 575.9380035400391Q75.0 570.9380035400391 75.0 562.9380035400391V480.93800354003906Q75.0 473.93800354003906 80.5 468.93800354003906Q86.0 463.93800354003906 93.0 463.93800354003906Z" fill="#e04e2c" stroke="none" transform="scale(1,-1) translate(0,-256)" /><path d="M795.4380035400391 463.93800354003906Q803.4380035400391 463.93800354003906 808.4380035400391 468.93800354003906Q813.4380035400391 473.93800354003906 813.4380035400391 480.93800354003906V562.9380035400391Q813.4380035400391 570.9380035400391 808.4380035400391 575.9380035400391Q803.4380035400391 580.9380035400391 795.4380035400391 580.9380035400391H479.43800354003906Q472.43800354003906 580.9380035400391 466.93800354003906 575.9380035400391Q461.43800354003906 570.9380035400391 461.43800354003906 562.9380035400391V480.93800354003906Q461.43800354003906 473.93800354003906 466.93800354003906 468.93800354003906Q472.43800354003906 463.93800354003906 479.43800354003906 463.93800354003906Z" fill="#e04e2c" stroke="none" transform="scale(1,-1) translate(0,-256)" /><path d="M409.0 132.343994140625Q417.0 132.343994140625 422.0 137.343994140625Q427.0 142.343994140625 427.0 149.343994140625V231.343994140625Q427.0 239.343994140625 422.0 244.343994140625Q417.0 249.343994140625 409.0 249.343994140625H93.0Q86.0 249.343994140625 80.5 244.343994140625Q75.0 239.343994140625 75.0 231.343994140625V149.343994140625Q75.0 142.343994140625 80.5 137.343994140625Q86.0 132.343994140625 93.0 132.343994140625Z" fill="#e04e2c" stroke="none" transform="scale(1,-1) translate(0,-256)" /><path d="M1181.968994140625 132.343994140625Q1189.968994140625 132.343994140625 1194.968994140625 137.343994140625Q1199.968994140625 142.343994140625 1199.968994140625 149.343994140625V231.343994140625Q1199.968994140625 239.343994140625 1194.968994140625 244.343994140625Q1189.968994140625 249.343994140625 1181.968994140625 249.343994140625H865.968994140625Q858.968994140625 249.343994140625 853.468994140625 244.343994140625Q847.968994140625 239.343994140625 847.968994140625 231.343994140625V149.343994140625Q847.968994140625 142.343994140625 853.468994140625 137.343994140625Q858.968994140625 132.343994140625 865.968994140625 132.343994140625Z" fill="#e04e2c" stroke="none" transform="scale(1,-1) translate(0,-256)" /><path d="M409.0 -199.156005859375Q417.0 -199.156005859375 422.0 -194.156005859375Q427.0 -189.156005859375 427.0 -182.156005859375V-100.156005859375Q427.0 -92.156005859375 422.0 -87.156005859375Q417.0 -82.156005859375 409.0 -82.156005859375H93.0Q86.0 -82.156005859375 80.5 -87.156005859375Q75.0 -92.156005859375 75.0 -100.156005859375V-182.156005859375Q75.0 -189.156005859375 80.5 -194.156005859375Q86.0 -199.156005859375 93.0 -199.156005859375Z" fill="#e04e2c" stroke="none" transform="scale(1,-1) translate(0,-256)" /><path d="M795.4380035400391 -199.156005859375Q803.4380035400391 -199.156005859375 808.4380035400391 -194.156005859375Q813.4380035400391 -189.156005859375 813.4380035400391 -182.156005859375V-100.156005859375Q813.4380035400391 -92.156005859375 808.4380035400391 -87.156005859375Q803.4380035400391 -82.156005859375 795.4380035400391 -82.156005859375H479.43800354003906Q472.43800354003906 -82.156005859375 466.93800354003906 -87.156005859375Q461.43800354003906 -92.156005859375 461.43800354003906 -100.156005859375V-182.156005859375Q461.43800354003906 -189.156005859375 466.93800354003906 -194.156005859375Q472.43800354003906 -199.156005859375 479.43800354003906 -199.156005859375Z" fill="#e04e2c" stroke="none" transform="scale(1,-1) translate(0,-256)" /><path d="M603.718994140625 629.6880035400391Q611.718994140625 629.6880035400391 616.718994140625 634.6880035400391Q621.718994140625 639.6880035400391 621.718994140625 646.6880035400391V728.6880035400391Q621.718994140625 736.6880035400391 616.718994140625 741.6880035400391Q611.718994140625 746.6880035400391 603.718994140625 746.6880035400391H287.718994140625Q280.718994140625 746.6880035400391 275.218994140625 741.6880035400391Q269.718994140625 736.6880035400391 269.718994140625 728.6880035400391V646.6880035400391Q269.718994140625 639.6880035400391 275.218994140625 634.6880035400391Q280.718994140625 629.6880035400391 287.718994140625 629.6880035400391Z" fill="#e04e2c" stroke="none" transform="scale(1,-1) translate(0,-256)" /><path d="M1055.0 746.9380035400391H1200.0V628.9380035400391H1055.0Q1047.0 628.9380035400391 1042.0 634.4380035400391Q1037.0 639.9380035400391 1037.0 646.9380035400391V728.9380035400391Q1037.0 735.9380035400391 1042.0 741.4380035400391Q1047.0 746.9380035400391 1055.0 746.9380035400391Z" fill="#e04e2c" stroke="none" transform="scale(1,-1) translate(0,-256)" /><path d="M221.0 415.343994140625Q228.0 415.343994140625 233.0 409.843994140625Q238.0 404.343994140625 238.0 397.343994140625V315.343994140625Q238.0 308.343994140625 233.0 302.843994140625Q228.0 297.343994140625 221.0 297.343994140625H75.0V415.343994140625Z" fill="#e04e2c" stroke="none" transform="scale(1,-1) translate(0,-256)" /><path d="M987.156005859375 298.18800354003906Q995.156005859375 298.18800354003906 1000.156005859375 303.18800354003906Q1005.156005859375 308.18800354003906 1005.156005859375 315.18800354003906V397.18800354003906Q1005.156005859375 405.18800354003906 1000.156005859375 410.18800354003906Q995.156005859375 415.18800354003906 987.156005859375 415.18800354003906H671.156005859375Q664.156005859375 415.18800354003906 658.656005859375 410.18800354003906Q653.156005859375 405.18800354003906 653.156005859375 397.18800354003906V315.18800354003906Q653.156005859375 308.18800354003906 658.656005859375 303.18800354003906Q664.156005859375 298.18800354003906 671.156005859375 298.18800354003906Z" fill="#e04e2c" stroke="none" transform="scale(1,-1) translate(0,-256)" /><path d="M1055.0 415.343994140625H1200.0V297.343994140625H1055.0Q1047.0 297.343994140625 1042.0 302.843994140625Q1037.0 308.343994140625 1037.0 315.343994140625V397.343994140625Q1037.0 404.343994140625 1042.0 409.843994140625Q1047.0 415.343994140625 1055.0 415.343994140625Z" fill="#e04e2c" stroke="none" transform="scale(1,-1) translate(0,-256)" /><path d="M603.718994140625 -33.406005859375Q611.718994140625 -33.406005859375 616.718994140625 -28.406005859375Q621.718994140625 -23.406005859375 621.718994140625 -16.406005859375V65.593994140625Q621.718994140625 73.593994140625 616.718994140625 78.593994140625Q611.718994140625 83.593994140625 603.718994140625 83.593994140625H287.718994140625Q280.718994140625 83.593994140625 275.218994140625 78.593994140625Q269.718994140625 73.593994140625 269.718994140625 65.593994140625V-16.406005859375Q269.718994140625 -23.406005859375 275.218994140625 -28.406005859375Q280.718994140625 -33.406005859375 287.718994140625 -33.406005859375Z" fill="#e04e2c" stroke="none" transform="scale(1,-1) translate(0,-256)" /><path d="M987.156005859375 -33.406005859375Q995.156005859375 -33.406005859375 1000.156005859375 -28.406005859375Q1005.156005859375 -23.406005859375 1005.156005859375 -16.406005859375V65.593994140625Q1005.156005859375 73.593994140625 1000.156005859375 78.593994140625Q995.156005859375 83.593994140625 987.156005859375 83.593994140625H671.156005859375Q664.156005859375 83.593994140625 658.656005859375 78.593994140625Q653.156005859375 73.593994140625 653.156005859375 65.593994140625V-16.406005859375Q653.156005859375 -23.406005859375 658.656005859375 -28.406005859375Q664.156005859375 -33.406005859375 671.156005859375 -33.406005859375Z" fill="#e04e2c" stroke="none" transform="scale(1,-1) translate(0,-256)" /></svg>