<?xml version="1.0" encoding="utf-8" ?>
<svg baseProfile="full" height="256" version="1.1" width="256" xmlns="http://www.w3.org/2000/svg" xmlns:ev="http://www.w3.org/2001/xml-events" xmlns:xlink="http://www.w3.org/1999/xlink"><defs /><path d="M1108 248Q1108 248 1117.0 269.0Q1126 290 1136 310Q1143 323 1155.5 341.0Q1168 359 1180.5 372.0Q1193 385 1198 382Q1206 377 1196.5 352.0Q1187 327 1175 304Q1166 286 1155.0 269.5Q1144 253 1135.5 242.5Q1127 232 1127 232Q1127 232 1124.5 235.0Q1122 238 1118 240Q1115 242 1111.5 245.0Q1108 248 1108 248Z" fill="#40717a" stroke="none" transform="scale(1,-1) translate(0,-256)" /><path d="M1056 233Q1056 233 1051.5 223.0Q1047 213 1048 197Q1049 185 1053.5 178.0Q1058 171 1058 171Q1058 171 1038.5 152.0Q1019 133 1002 108Q994 95 985.0 79.0Q976 63 971.5 49.5Q967 36 972 32Q978 28 989.5 35.5Q1001 43 1014.0 57.0Q1027 71 1038 86Q1055 111 1064.5 137.0Q1074 163 1074 163Q1074 163 1080.5 162.5Q1087 162 1096 162Q1105 163 1122.0 168.5Q1139 174 1143 186Q1147 197 1141.5 208.0Q1136 219 1136 219Q1136 219 1129.5 212.5Q1123 206 1112.0 201.0Q1101 196 1086 200Q1069 204 1062.5 218.5Q1056 233 1056 233Z" fill="#40717a" stroke="none" transform="scale(1,-1) translate(0,-256)" /></svg>