<?xml version="1.0" encoding="utf-8" ?>
<svg baseProfile="full" height="256" version="1.1" width="256" xmlns="http://www.w3.org/2000/svg" xmlns:ev="http://www.w3.org/2001/xml-events" xmlns:xlink="http://www.w3.org/1999/xlink"><defs /><path d="M539 580Q545 590 577.0 588.0Q609 586 655 578Q701 569 731.0 558.5Q761 548 782 535Q804 522 811.5 509.0Q819 496 812 488Q802 476 786.5 475.5Q771 475 756 479Q742 483 719.5 495.0Q697 507 678 515Q660 522 640.0 529.5Q620 537 587 548Q552 558 544.0 565.0Q536 572 539 580Z" fill="#e0e0e0" stroke="none" transform="scale(1,-1) translate(0,-256)" /></svg>