<?xml version="1.0" encoding="utf-8" ?>
<svg baseProfile="full" height="256" version="1.1" width="256" xmlns="http://www.w3.org/2000/svg" xmlns:ev="http://www.w3.org/2001/xml-events" xmlns:xlink="http://www.w3.org/1999/xlink"><defs /><path d="M577 549 809 644Q809 644 826.0 636.5Q843 629 870.0 611.0Q897 593 928.5 562.0Q960 531 988 485Q1008 453 1020.5 402.0Q1033 351 1034.5 290.5Q1036 230 1025.5 167.5Q1015 105 989.0 49.0Q963 -7 920.0 -49.0Q877 -91 814 -109Q723 -136 642.5 -122.5Q562 -109 497.5 -67.5Q433 -26 389.0 31.5Q345 89 326 151Q305 220 300.5 275.5Q296 331 300.5 371.0Q305 411 311.5 432.5Q318 454 318 454Z" fill="#fe1d1e" stroke="none" transform="scale(1,-1) translate(0,-256)" /></svg>