<?xml version="1.0" encoding="utf-8" ?>
<svg baseProfile="full" height="256" version="1.1" width="256" xmlns="http://www.w3.org/2000/svg" xmlns:ev="http://www.w3.org/2001/xml-events" xmlns:xlink="http://www.w3.org/1999/xlink"><defs /><path d="M414 520Q398 504 383.0 503.5Q368 503 358.5 510.5Q349 518 348 525Q347 535 352.0 540.5Q357 546 361 556Q365 565 367.5 573.5Q370 582 386 583Q397 583 407.0 572.0Q417 561 420.5 546.0Q424 531 414 520Z" fill="#ffebc1" stroke="none" transform="scale(1,-1) translate(0,-256)" /><path d="M667 632Q651 642 650.0 659.5Q649 677 659 692Q669 707 678.5 699.0Q688 691 695 688Q702 684 717.0 679.5Q732 675 731 662Q730 653 722.0 641.5Q714 630 699.5 625.5Q685 621 667 632Z" fill="#ffebc1" stroke="none" transform="scale(1,-1) translate(0,-256)" /></svg>