<?xml version="1.0" encoding="utf-8" ?>
<svg baseProfile="full" height="256" version="1.1" width="256" xmlns="http://www.w3.org/2000/svg" xmlns:ev="http://www.w3.org/2001/xml-events" xmlns:xlink="http://www.w3.org/1999/xlink"><defs /><path d="M599 451 641 475Q641 475 650.0 451.0Q659 427 672.5 390.0Q686 353 700.5 312.0Q715 271 727.5 235.5Q740 200 746 181Q749 172 757.5 144.0Q766 116 776.5 79.5Q787 43 797.5 7.5Q808 -28 815.0 -52.5Q822 -77 823 -80Q826 -88 828.0 -96.5Q830 -105 819 -109Q809 -112 806.0 -106.5Q803 -101 800 -92Q799 -89 790.5 -64.0Q782 -39 770.0 -3.0Q758 33 745.5 70.0Q733 107 723.5 134.5Q714 162 711 171Q708 180 696.0 210.5Q684 241 667.5 281.5Q651 322 635.5 360.5Q620 399 609.5 425.0Q599 451 599 451Z" fill="#d62f34" stroke="none" transform="scale(1,-1) translate(0,-256)" /></svg>