<?xml version="1.0" encoding="utf-8" ?>
<svg baseProfile="full" height="256" version="1.1" width="256" xmlns="http://www.w3.org/2000/svg" xmlns:ev="http://www.w3.org/2001/xml-events" xmlns:xlink="http://www.w3.org/1999/xlink"><defs /><path d="M348 795Q348 795 372.5 804.0Q397 813 439.0 825.0Q481 837 535.5 846.0Q590 855 649.5 856.0Q709 857 768 844Q788 840 823.5 826.5Q859 813 900.5 796.0Q942 779 980.0 761.5Q1018 744 1044.5 731.0Q1071 718 1077 714Q1090 702 1109.0 679.5Q1128 657 1142 631Q1155 605 1161.0 583.0Q1167 561 1168 536Q1169 519 1168.5 491.0Q1168 463 1167.0 433.5Q1166 404 1164 383Q1164 374 1145.0 340.5Q1126 307 1094.5 257.5Q1063 208 1025.5 150.5Q988 93 949.5 37.0Q911 -19 877.5 -66.5Q844 -114 821.0 -143.5Q798 -173 792 -176Q770 -186 732.5 -199.5Q695 -213 639 -214Q582 -215 536.0 -201.0Q490 -187 458 -173Q448 -168 421.0 -146.5Q394 -125 359.0 -94.0Q324 -63 287.0 -29.0Q250 5 218.0 34.0Q186 63 166.5 81.5Q147 100 147 100Q147 100 143.0 128.0Q139 156 133.5 201.5Q128 247 122.0 299.0Q116 351 110.5 400.0Q105 449 101.5 485.0Q98 521 98 533Q99 568 105.5 592.0Q112 616 126 643Q141 672 166.0 693.5Q191 715 215 732Q224 739 245.5 749.5Q267 760 290.5 770.5Q314 781 331.0 788.0Q348 795 348 795Z" fill="#cecece" stroke="none" transform="scale(1,-1) translate(0,-256)" /></svg>