<?xml version="1.0" encoding="utf-8" ?>
<svg baseProfile="full" height="256" version="1.1" width="256" xmlns="http://www.w3.org/2000/svg" xmlns:ev="http://www.w3.org/2001/xml-events" xmlns:xlink="http://www.w3.org/1999/xlink"><defs /><path d="M182 677Q182 696 196.5 713.5Q211 731 231 743Q237 747 261.5 759.0Q286 771 320.5 787.5Q355 804 393.5 821.5Q432 839 468.0 855.5Q504 872 530.5 884.0Q557 896 568 900Q595 911 624.0 911.0Q653 911 677.5 906.0Q702 901 716 896Q731 890 766.0 874.5Q801 859 845.5 838.5Q890 818 935.0 795.5Q980 773 1015.5 754.0Q1051 735 1067 722Q1097 700 1093.0 671.5Q1089 643 1058 622Q1047 615 1018.0 597.5Q989 580 949.0 556.5Q909 533 864.0 509.0Q819 485 775.5 464.0Q732 443 697.0 430.5Q662 418 642 419Q618 420 583.0 432.0Q548 444 507.5 462.5Q467 481 427.0 502.0Q387 523 352.5 541.5Q318 560 296 572Q239 601 211.0 622.0Q183 643 182 677Z" fill="#eaeaea" stroke="none" transform="scale(1,-1) translate(0,-256)" /></svg>