<?xml version="1.0" encoding="utf-8" ?>
<svg baseProfile="full" height="256" version="1.1" width="256" xmlns="http://www.w3.org/2000/svg" xmlns:ev="http://www.w3.org/2001/xml-events" xmlns:xlink="http://www.w3.org/1999/xlink"><defs /><path d="M286 429Q273 465 245.0 484.5Q217 504 190 494Q162 485 157.5 453.0Q153 421 166 386Q178 351 206.0 331.0Q234 311 262 320Q289 330 294.0 362.0Q299 394 286 429Z" fill="#2f2f2f" stroke="none" transform="scale(1,-1) translate(0,-256)" /><path d="M523 16Q508 51 478.5 68.0Q449 85 423 74Q396 62 393.0 29.5Q390 -3 405 -38Q420 -71 450.5 -91.0Q481 -111 507 -99Q533 -88 535.5 -53.0Q538 -18 523 16Z" fill="#2f2f2f" stroke="none" transform="scale(1,-1) translate(0,-256)" /><path d="M993 322Q970 335 968.0 368.0Q966 401 985 434Q1004 468 1035.0 482.0Q1066 496 1089 483Q1112 470 1115.0 437.0Q1118 404 1099 371Q1080 338 1048.0 323.5Q1016 309 993 322Z" fill="#2f2f2f" stroke="none" transform="scale(1,-1) translate(0,-256)" /><path d="M872 118Q849 132 846.0 166.5Q843 201 863 235Q883 269 916.0 282.5Q949 296 972 282Q995 268 997.5 234.5Q1000 201 980 167Q961 133 928.5 119.0Q896 105 872 118Z" fill="#2f2f2f" stroke="none" transform="scale(1,-1) translate(0,-256)" /><path d="M752 -90Q729 -76 727.0 -42.0Q725 -8 745 25Q768 61 799.0 71.5Q830 82 853 68Q875 54 877.0 21.0Q879 -12 859 -44Q839 -77 807.0 -90.5Q775 -104 752 -90Z" fill="#2f2f2f" stroke="none" transform="scale(1,-1) translate(0,-256)" /></svg>