<?xml version="1.0" encoding="utf-8" ?>
<svg baseProfile="full" height="256" version="1.1" width="256" xmlns="http://www.w3.org/2000/svg" xmlns:ev="http://www.w3.org/2001/xml-events" xmlns:xlink="http://www.w3.org/1999/xlink"><defs /><path d="M592 88Q599 94 619.0 97.5Q639 101 657.5 98.5Q676 96 678 84Q680 72 667.5 61.5Q655 51 646 47Q621 35 596 45Q591 46 587.0 49.0Q583 52 581 57Q581 59 581.5 70.0Q582 81 592 88Z" fill="#81afc1" stroke="none" transform="scale(1,-1) translate(0,-256)" /><path d="M665 -142Q665 -142 674.0 -139.0Q683 -136 689.5 -131.5Q696 -127 688 -122Q685 -120 681.5 -119.5Q678 -119 674 -120Q623 -125 574 -110Q552 -104 533.0 -97.5Q514 -91 492 -93Q468 -95 448 -111Q447 -112 445.5 -117.5Q444 -123 463 -130Q507 -145 560.0 -149.5Q613 -154 665 -142Z" fill="#81afc1" stroke="none" transform="scale(1,-1) translate(0,-256)" /><path d="M630 847Q637 850 643.0 858.5Q649 867 650.0 876.0Q651 885 641 890Q630 896 617.0 885.5Q604 875 603 864Q602 850 614 845Q621 843 630 847Z" fill="#81afc1" stroke="none" transform="scale(1,-1) translate(0,-256)" /><path d="M583 695Q577 703 581.5 730.0Q586 757 608 787Q619 802 631.5 799.0Q644 796 646 779Q647 772 647.5 754.0Q648 736 641 718Q630 691 611.5 687.0Q593 683 583 695Z" fill="#81afc1" stroke="none" transform="scale(1,-1) translate(0,-256)" /><path d="M454 83Q454 69 437.0 51.5Q420 34 392.0 18.0Q364 2 329.5 -8.0Q295 -18 261 -18Q227 -18 192.5 -8.5Q158 1 130.0 16.5Q102 32 85.0 49.5Q68 67 68 83Z" fill="#81afc1" stroke="none" transform="scale(1,-1) translate(0,-256)" /><path d="M270 761Q260 765 252.0 761.5Q244 758 240 755Q230 748 225.5 738.0Q221 728 224 714Q224 712 226.5 709.0Q229 706 234 707Q240 709 242.5 714.5Q245 720 248 723Q254 730 261.5 732.5Q269 735 274 741Q276 744 277.5 750.5Q279 757 270 761Z" fill="#81afc1" stroke="none" transform="scale(1,-1) translate(0,-256)" /><path d="M1207.1824951171875 82.26901245117188Q1207.132080078125 68.26901245117188 1190.0690612792969 50.830230712890625Q1173.0060424804688 33.391448974609375 1144.9484252929688 17.492279052734375Q1116.8908081054688 1.593109130859375 1082.3547973632812 -8.28265380859375Q1047.8187866210938 -18.158416748046875 1013.8187866210938 -18.035980224609375Q979.8187866210938 -17.913543701171875 945.3529968261719 -8.289306640625Q910.88720703125 1.334930419921875 882.9430236816406 16.935760498046875Q854.9988403320312 32.536590576171875 838.0618591308594 50.097808837890625Q821.1248779296875 67.65902709960938 821.1824951171875 83.65902709960938Z" fill="#81afc1" stroke="none" transform="scale(1,-1) translate(0,-256)" /><path d="M1020 761Q1011 766 1002.5 761.5Q994 757 990 754Q982 748 978.5 738.0Q975 728 984 723Q991 718 996.0 720.5Q1001 723 1006 727Q1011 731 1015.5 734.5Q1020 738 1024 742Q1027 744 1028.0 750.5Q1029 757 1020 761Z" fill="#81afc1" stroke="none" transform="scale(1,-1) translate(0,-256)" /></svg>