<?xml version="1.0" encoding="utf-8" ?>
<svg baseProfile="full" height="256" version="1.1" width="256" xmlns="http://www.w3.org/2000/svg" xmlns:ev="http://www.w3.org/2001/xml-events" xmlns:xlink="http://www.w3.org/1999/xlink"><defs /><path d="M670 594Q670 601 654.5 609.0Q639 617 623.0 623.0Q607 629 607 629Q607 629 606.0 620.5Q605 612 605 595Q605 573 618.0 565.0Q631 557 649 561Q669 565 669.5 578.0Q670 591 670 594Z" fill="#335e68" stroke="none" transform="scale(1,-1) translate(0,-256)" /><path d="M454 82Q454 90 428.0 97.0Q402 104 358.0 108.0Q314 112 261 112Q208 112 164.0 108.0Q120 104 94.0 97.0Q68 90 68 82Q68 74 94.0 67.5Q120 61 164.0 57.0Q208 53 261 53Q314 53 358.0 57.0Q402 61 428.0 67.5Q454 74 454 82Z" fill="#335e68" stroke="none" transform="scale(1,-1) translate(0,-256)" /><path d="M1014 112Q961 112 917.0 108.0Q873 104 847.0 97.5Q821 91 821 83Q821 75 847.0 68.0Q873 61 917.0 57.0Q961 53 1014 53Q1067 53 1111.0 56.5Q1155 60 1181.0 66.5Q1207 73 1207 81Q1207 90 1181.0 96.5Q1155 103 1111.0 107.0Q1067 111 1014 112Z" fill="#335e68" stroke="none" transform="scale(1,-1) translate(0,-256)" /></svg>