<?xml version="1.0" encoding="utf-8" ?>
<svg baseProfile="full" height="256" version="1.1" width="256" xmlns="http://www.w3.org/2000/svg" xmlns:ev="http://www.w3.org/2001/xml-events" xmlns:xlink="http://www.w3.org/1999/xlink"><defs /><path d="M662 912V541H613L614 849Q616 872 619.5 883.0Q623 894 633 903Q642 912 649.0 912.0Q656 912 662 912Z" fill="#b5b5b5" stroke="none" transform="scale(1,-1) translate(0,-256)" /><path d="M938 500Q969 482 986.5 451.5Q1004 421 1004 385V374Q1001 380 986.5 397.5Q972 415 943.5 437.5Q915 460 867.5 480.5Q820 501 750 512Q740 513 732.5 506.5Q725 500 725 490V455Q726 404 699.0 379.5Q672 355 634 355Q609 355 587.0 365.0Q565 375 550.5 401.0Q536 427 533 474V483Q533 495 524.0 502.5Q515 510 504 508Q440 496 396.5 475.5Q353 455 326.5 434.0Q300 413 287.0 396.0Q274 379 271 374V385Q271 421 289.0 451.5Q307 482 337 500Q369 518 411.5 534.0Q454 550 509 559Q520 561 527.0 569.0Q534 577 535 588V620Q537 667 551.0 692.0Q565 717 587.0 726.0Q609 735 634 735Q672 735 697.5 709.5Q723 684 725 629V586Q725 565 746 562Q809 553 856.5 536.5Q904 520 938 500Z" fill="#b5b5b5" stroke="none" transform="scale(1,-1) translate(0,-256)" /></svg>