<?xml version="1.0" encoding="utf-8" ?>
<svg baseProfile="full" height="256" version="1.1" width="256" xmlns="http://www.w3.org/2000/svg" xmlns:ev="http://www.w3.org/2001/xml-events" xmlns:xlink="http://www.w3.org/1999/xlink"><defs /><path d="M639 452 705 400Q705 400 715.0 401.0Q725 402 739.5 408.0Q754 414 766 429Q789 457 781.5 485.5Q774 514 753 528Q731 542 704.0 543.0Q677 544 656 520Q644 506 640.5 490.0Q637 474 638.0 463.0Q639 452 639 452Z" fill="#fffeff" stroke="none" transform="scale(1,-1) translate(0,-256)" /><path d="M709 379 683 314Q683 314 686.0 303.0Q689 292 700.5 279.0Q712 266 736 259Q772 248 794.5 263.0Q817 278 825 312Q833 343 813.5 367.0Q794 391 767 394Q739 398 724.0 388.5Q709 379 709 379Z" fill="#fffeff" stroke="none" transform="scale(1,-1) translate(0,-256)" /><path d="M580 290 650 309Q650 309 662.0 297.5Q674 286 686.5 267.0Q699 248 700 227Q703 196 682.0 173.0Q661 150 629 152Q598 154 579.0 169.0Q560 184 555 214Q551 238 557.5 255.0Q564 272 572.0 281.0Q580 290 580 290Z" fill="#fffeff" stroke="none" transform="scale(1,-1) translate(0,-256)" /><path d="M543 381 571 305Q571 305 564.0 293.0Q557 281 542.5 268.0Q528 255 505 251Q474 246 457.0 260.5Q440 275 431 294Q423 313 429.5 341.5Q436 370 462 385Q478 395 497.0 393.0Q516 391 529.5 386.0Q543 381 543 381Z" fill="#fffeff" stroke="none" transform="scale(1,-1) translate(0,-256)" /><path d="M620 446 569 399Q569 399 556.0 398.5Q543 398 525.0 401.5Q507 405 493 419Q469 442 473.0 471.0Q477 500 494 520Q512 540 543.5 542.5Q575 545 598 519Q614 502 618.0 485.0Q622 468 621.0 457.0Q620 446 620 446Z" fill="#fffeff" stroke="none" transform="scale(1,-1) translate(0,-256)" /></svg>