<?xml version="1.0" encoding="utf-8" ?>
<svg baseProfile="full" height="256" version="1.1" width="256" xmlns="http://www.w3.org/2000/svg" xmlns:ev="http://www.w3.org/2001/xml-events" xmlns:xlink="http://www.w3.org/1999/xlink"><defs /><path d="M587 410 561 414Q561 414 556.0 433.0Q551 452 544.5 479.0Q538 506 530.5 530.5Q523 555 518 565Q507 589 482.5 612.5Q458 636 433.0 663.5Q408 691 394 728Q380 765 390.0 803.0Q400 841 425.0 868.5Q450 896 481 900Q512 905 537.5 900.5Q563 896 586.5 889.5Q610 883 633 882Q657 881 678.0 888.5Q699 896 722.0 904.0Q745 912 774 911Q802 909 827.0 889.5Q852 870 867.5 838.0Q883 806 883 766Q883 726 865.0 696.5Q847 667 822.5 641.5Q798 616 777 588Q761 567 750.5 540.5Q740 514 734.0 489.0Q728 464 725.0 447.5Q722 431 722 431Z" fill="#fe6111" stroke="none" transform="scale(1,-1) translate(0,-256)" /><path d="M696 461 664 420 771 302Q771 302 793.0 304.5Q815 307 845.0 306.5Q875 306 899 299Q924 293 948.0 280.0Q972 267 1000.0 255.5Q1028 244 1065 242Q1101 241 1131.0 261.0Q1161 281 1179.5 310.5Q1198 340 1201 367Q1203 387 1194.0 407.5Q1185 428 1172.0 446.0Q1159 464 1148.0 478.5Q1137 493 1135 501Q1132 510 1132.5 531.0Q1133 552 1133.0 577.5Q1133 603 1129.0 627.0Q1125 651 1113 666Q1090 694 1051.0 712.5Q1012 731 963 721Q931 714 910.0 697.5Q889 681 871.5 652.0Q854 623 832 579Q815 546 792.0 523.0Q769 500 747.0 486.5Q725 473 710.5 467.0Q696 461 696 461Z" fill="#fe6111" stroke="none" transform="scale(1,-1) translate(0,-256)" /><path d="M577 454 510 318Q510 318 495.0 316.5Q480 315 458.5 314.5Q437 314 419 315Q391 318 360.5 305.5Q330 293 312 282Q299 274 282.0 262.0Q265 250 238.0 243.0Q211 236 170 242Q129 249 106.5 276.0Q84 303 77.0 335.5Q70 368 74 391Q78 413 93.0 440.5Q108 468 122.0 491.0Q136 514 138 523Q142 535 139.0 562.5Q136 590 145 630Q151 656 169.0 680.5Q187 705 217.5 718.5Q248 732 291 725Q332 719 359.0 696.0Q386 673 404.0 644.0Q422 615 436.5 588.0Q451 561 465 546Q475 536 493.5 520.5Q512 505 531.5 489.5Q551 474 564.0 464.0Q577 454 577 454Z" fill="#fe6111" stroke="none" transform="scale(1,-1) translate(0,-256)" /><path d="M486 300 667 211Q667 211 656.5 196.0Q646 181 632.5 157.5Q619 134 612 109Q605 85 608.5 53.5Q612 22 615.0 -15.0Q618 -52 610 -92Q601 -133 574.0 -155.5Q547 -178 513.5 -185.0Q480 -192 452 -187Q425 -182 401.0 -159.0Q377 -136 358.0 -110.5Q339 -85 325 -72Q312 -59 290.0 -53.5Q268 -48 243.5 -39.5Q219 -31 196 -9Q161 24 161.5 76.5Q162 129 202 180Q229 215 261.0 226.0Q293 237 323.5 239.5Q354 242 378 251Q398 258 423.5 269.5Q449 281 467.5 290.5Q486 300 486 300Z" fill="#fe6111" stroke="none" transform="scale(1,-1) translate(0,-256)" /><path d="M774 330Q774 330 785.0 319.0Q796 308 813.0 292.5Q830 277 847.5 263.5Q865 250 877 245Q901 234 930.0 231.0Q959 228 989.5 221.5Q1020 215 1047 194Q1087 163 1099.5 136.5Q1112 110 1105 68Q1102 46 1083.0 27.5Q1064 9 1039.5 -6.0Q1015 -21 994.0 -32.0Q973 -43 965 -49Q949 -62 932.0 -82.0Q915 -102 886 -142Q866 -168 836.0 -181.0Q806 -194 771.5 -188.5Q737 -183 703 -156Q679 -136 670.0 -101.0Q661 -66 661.5 -28.0Q662 10 664.5 42.5Q667 75 664 90Q661 110 650.5 133.5Q640 157 631.0 173.0Q622 189 622 189Z" fill="#fe6111" stroke="none" transform="scale(1,-1) translate(0,-256)" /></svg>