<?xml version="1.0" encoding="utf-8" ?>
<svg baseProfile="full" height="256" version="1.1" width="256" xmlns="http://www.w3.org/2000/svg" xmlns:ev="http://www.w3.org/2001/xml-events" xmlns:xlink="http://www.w3.org/1999/xlink"><defs /><path d="M345 682Q345 682 344.5 682.0Q344 682 344 682Q344 679 338.5 671.0Q333 663 328.0 654.0Q323 645 325 640Q326 637 336.5 636.0Q347 635 357.5 635.5Q368 636 370 636Q371 636 378.5 628.0Q386 620 394.5 612.5Q403 605 407 607Q411 608 414.5 618.5Q418 629 420.5 639.0Q423 649 423 650Q423 651 432.5 655.0Q442 659 451.0 663.5Q460 668 461 671Q461 675 452.5 680.5Q444 686 435.5 691.0Q427 696 427 697Q426 698 427.0 707.5Q428 717 428.0 727.5Q428 738 424 740Q420 742 411.5 736.0Q403 730 395.0 723.0Q387 716 385 716Q382 715 373.0 720.0Q364 725 354.0 729.0Q344 733 341 730Q338 728 339.5 717.5Q341 707 343.5 696.0Q346 685 345 682Z" fill="#ffd629" stroke="none" transform="scale(1,-1) translate(0,-256)" /><path d="M153 108 152 109Q155 109 165.5 114.0Q176 119 186.5 123.0Q197 127 200 125Q204 122 201.5 111.5Q199 101 196.0 90.0Q193 79 194 77Q194 75 201.5 66.5Q209 58 216.0 49.0Q223 40 221 37Q220 34 209.0 33.0Q198 32 187.0 32.0Q176 32 174 31Q172 31 166.5 20.5Q161 10 155.0 -0.5Q149 -11 145 -11Q141 -11 136.0 -1.0Q131 9 127.0 20.0Q123 31 123 32Q122 33 110.5 34.5Q99 36 87.5 38.5Q76 41 74 45Q73 50 82.5 58.5Q92 67 102.0 74.0Q112 81 113 84Q113 85 110.5 96.5Q108 108 107.0 119.0Q106 130 110 131Q114 133 124.0 127.0Q134 121 143.0 114.5Q152 108 153 108Z" fill="#ffd629" stroke="none" transform="scale(1,-1) translate(0,-256)" /></svg>