<?xml version="1.0" encoding="utf-8" ?>
<svg baseProfile="full" height="256" version="1.1" width="256" xmlns="http://www.w3.org/2000/svg" xmlns:ev="http://www.w3.org/2001/xml-events" xmlns:xlink="http://www.w3.org/1999/xlink"><defs /><path d="M548 -87Q542 -72 511.0 -72.0Q480 -72 443 -87Q406 -103 383.5 -124.5Q361 -146 368 -161Q374 -176 404.5 -175.5Q435 -175 473 -160Q510 -144 532.0 -122.5Q554 -101 548 -87Z" fill="#ec407a" stroke="none" transform="scale(1,-1) translate(0,-256)" /><path d="M632 -15Q587 -14 555.0 -24.0Q523 -34 523 -50Q522 -66 553.5 -78.5Q585 -91 629 -92Q674 -94 706.0 -83.5Q738 -73 739 -57Q739 -41 708.0 -28.5Q677 -16 632 -15Z" fill="#ec407a" stroke="none" transform="scale(1,-1) translate(0,-256)" /><path d="M836 -77Q798 -62 766.0 -65.0Q734 -68 726 -88Q718 -107 738.5 -132.0Q759 -157 797 -173Q834 -188 866.0 -185.0Q898 -182 907 -162Q915 -142 894.0 -117.0Q873 -92 836 -77Z" fill="#ec407a" stroke="none" transform="scale(1,-1) translate(0,-256)" /></svg>