<?xml version="1.0" encoding="utf-8" ?>
<svg baseProfile="full" height="256" version="1.1" width="256" xmlns="http://www.w3.org/2000/svg" xmlns:ev="http://www.w3.org/2001/xml-events" xmlns:xlink="http://www.w3.org/1999/xlink"><defs /><path d="M616 -184Q623 -196 624 -212H513Q511 -194 515.0 -176.5Q519 -159 523.5 -147.5Q528 -136 528 -136Q528 -136 545.5 -139.5Q563 -143 584.0 -153.5Q605 -164 616 -184Z" fill="#2e7d32" stroke="none" transform="scale(1,-1) translate(0,-256)" /><path d="M760 -165Q760 -165 766.0 -179.0Q772 -193 775 -212H672Q683 -192 704.0 -182.0Q725 -172 742.5 -168.5Q760 -165 760 -165Z" fill="#2e7d32" stroke="none" transform="scale(1,-1) translate(0,-256)" /></svg>