<?xml version="1.0" encoding="utf-8" ?>
<svg baseProfile="full" height="256" version="1.1" width="256" xmlns="http://www.w3.org/2000/svg" xmlns:ev="http://www.w3.org/2001/xml-events" xmlns:xlink="http://www.w3.org/1999/xlink"><defs /><path d="M374 463 994 476Q994 476 991.0 486.0Q988 496 984.5 509.5Q981 523 977 533Q968 561 956.5 596.5Q945 632 935 656Q925 679 912.0 684.0Q899 689 886 691Q879 692 855.0 694.0Q831 696 781.0 697.5Q731 699 646 698Q561 698 511.5 697.0Q462 696 436.0 694.5Q410 693 397 692Q377 691 368.5 682.5Q360 674 357 666Q351 653 344.0 634.5Q337 616 329 593Q320 571 312.0 545.5Q304 520 298.5 502.0Q293 484 293 484Z" fill="#afe3fb" stroke="none" transform="scale(1,-1) translate(0,-256)" /></svg>