<?xml version="1.0" encoding="utf-8" ?>
<svg baseProfile="full" height="256" version="1.1" width="256" xmlns="http://www.w3.org/2000/svg" xmlns:ev="http://www.w3.org/2001/xml-events" xmlns:xlink="http://www.w3.org/1999/xlink"><defs /><path d="M213 430 1057 448H1093Q1093 448 1111.5 449.0Q1130 450 1154.5 452.0Q1179 454 1198.5 455.0Q1218 456 1221 457Q1223 456 1225.0 453.0Q1227 450 1227 443Q1226 434 1223.0 425.5Q1220 417 1206 408Q1200 405 1181.0 403.0Q1162 401 1140.5 400.5Q1119 400 1103.5 400.0Q1088 400 1088 400Q1088 400 1093.0 386.5Q1098 373 1102 363Q1105 357 1114.5 333.0Q1124 309 1133.5 281.0Q1143 253 1146 234Q1150 210 1151.0 180.0Q1152 150 1151.5 122.5Q1151 95 1150.0 77.5Q1149 60 1149 60Q1149 60 1148.5 48.0Q1148 36 1146.5 18.5Q1145 1 1143.5 -15.5Q1142 -32 1139 -40Q1134 -57 1116.5 -79.5Q1099 -102 1077 -107Q1069 -110 1035.0 -113.5Q1001 -117 951.5 -120.5Q902 -124 845.0 -127.0Q788 -130 732.5 -131.0Q677 -132 632 -131Q575 -129 510.5 -127.0Q446 -125 385.0 -122.5Q324 -120 279.0 -117.0Q234 -114 217 -111Q194 -106 179.5 -91.0Q165 -76 158.0 -62.5Q151 -49 151 -49L138 37Q138 37 137.0 61.0Q136 85 136.0 120.0Q136 155 137.5 190.0Q139 225 145 248Q149 264 156.0 284.5Q163 305 170.0 325.0Q177 345 182.0 358.5Q187 372 187 372L200 379Q200 379 185.5 379.0Q171 379 150.0 379.0Q129 379 109.5 380.5Q90 382 79 385Q59 392 53.5 403.0Q48 414 48 425L172 431Z" fill="#d70617" stroke="none" transform="scale(1,-1) translate(0,-256)" /></svg>