<?xml version="1.0" encoding="utf-8" ?>
<svg baseProfile="full" height="256" version="1.1" width="256" xmlns="http://www.w3.org/2000/svg" xmlns:ev="http://www.w3.org/2001/xml-events" xmlns:xlink="http://www.w3.org/1999/xlink"><defs /><path d="M503 456Q513 458 521.5 447.5Q530 437 535.0 420.0Q540 403 539 387Q538 374 530.5 361.5Q523 349 508 344Q477 335 451.0 348.0Q425 361 406.5 383.5Q388 406 379.5 426.5Q371 447 376 454Q383 463 394.0 457.5Q405 452 419.0 441.0Q433 430 448 423Q473 410 486 415Q493 417 493.0 426.5Q493 436 493.5 445.0Q494 454 503 456Z" fill="#159df5" stroke="none" transform="scale(1,-1) translate(0,-256)" /></svg>