<?xml version="1.0" encoding="utf-8" ?>
<svg baseProfile="full" height="256" version="1.1" width="256" xmlns="http://www.w3.org/2000/svg" xmlns:ev="http://www.w3.org/2001/xml-events" xmlns:xlink="http://www.w3.org/1999/xlink"><defs /><path d="M552 106H723V12Q723 -20 700.0 -42.5Q677 -65 645 -65H630Q598 -65 575.0 -42.5Q552 -20 552 12Z" fill="#e59600" stroke="none" transform="scale(1,-1) translate(0,-256)" /><path d="M892.0 477.43800354003906Q933.0 477.43800354003906 962.5 445.93800354003906Q992.0 414.43800354003906 992.0 370.43800354003906Q992.0 326.43800354003906 962.5 294.93800354003906Q933.0 263.43800354003906 892.0 263.43800354003906H379.0Q338.0 263.43800354003906 308.5 294.93800354003906Q279.0 326.43800354003906 279.0 370.43800354003906Q279.0 414.43800354003906 308.5 445.93800354003906Q338.0 477.43800354003906 379.0 477.43800354003906Z" fill="#e59600" stroke="none" transform="scale(1,-1) translate(0,-256)" /></svg>