<?xml version="1.0" encoding="utf-8" ?>
<svg baseProfile="full" height="256" version="1.1" width="256" xmlns="http://www.w3.org/2000/svg" xmlns:ev="http://www.w3.org/2001/xml-events" xmlns:xlink="http://www.w3.org/1999/xlink"><defs /><path d="M553.156005859375 483.0Q558.156005859375 476.0 553.156005859375 468.0Q547.156005859375 461.0 535.156005859375 465.0Q529.156005859375 467.0 517.156005859375 471.5Q505.156005859375 476.0 485.156005859375 476.0Q465.156005859375 476.0 453.156005859375 471.5Q441.156005859375 467.0 435.156005859375 465.0Q429.156005859375 463.0 424.156005859375 464.5Q419.156005859375 466.0 417.156005859375 468.0Q412.156005859375 476.0 417.156005859375 483.0Q424.156005859375 492.0 440.156005859375 501.5Q456.156005859375 511.0 485.156005859375 511.0Q514.156005859375 511.0 530.156005859375 501.5Q546.156005859375 492.0 553.156005859375 483.0Z" fill="#6d4c41" stroke="none" transform="scale(1,-1) translate(0,-256)" /><path d="M857.656005859375 483.0Q863.656005859375 476.0 857.656005859375 468.0Q852.656005859375 461.0 839.656005859375 465.0Q833.656005859375 467.0 821.656005859375 471.5Q809.656005859375 476.0 789.656005859375 476.0Q769.656005859375 476.0 757.656005859375 471.5Q745.656005859375 467.0 739.656005859375 465.0Q733.656005859375 463.0 728.656005859375 464.5Q723.656005859375 466.0 721.656005859375 468.0Q716.656005859375 476.0 721.656005859375 483.0Q728.656005859375 492.0 744.656005859375 501.5Q760.656005859375 511.0 789.656005859375 511.0Q818.656005859375 511.0 834.656005859375 501.5Q850.656005859375 492.0 857.656005859375 483.0Z" fill="#6d4c41" stroke="none" transform="scale(1,-1) translate(0,-256)" /></svg>