<?xml version="1.0" encoding="utf-8" ?>
<svg baseProfile="full" height="256" version="1.1" width="256" xmlns="http://www.w3.org/2000/svg" xmlns:ev="http://www.w3.org/2001/xml-events" xmlns:xlink="http://www.w3.org/1999/xlink"><defs /><path d="M356 377Q375 365 388 368Q400 372 413 390Q434 423 405 443Q401 446 394.0 449.5Q387 453 378 458Q373 460 369.5 462.0Q366 464 363 465Q349 472 335.0 478.5Q321 485 304 492Q275 503 258 476Q233 439 274 420Q316 402 356 377ZM290 -19Q328 -45 348 -7Q399 92 445 202Q458 232 431 252Q394 278 376 238Q370 224 359.5 202.0Q349 180 335 151Q331 144 328.5 138.5Q326 133 324 130Q312 107 300.0 83.0Q288 59 274 35Q263 16 268 5Q271 -6 290 -19ZM419 595Q431 596 448 614Q471 643 446 664Q425 681 401.0 695.5Q377 710 351 723Q322 736 303 713Q275 678 313 658Q328 649 338.5 642.5Q349 636 356 631Q363 627 371.0 621.5Q379 616 389 608Q405 593 419 595ZM515 -54Q551 -54 551 -17V282Q551 302 572 302H704V143H670Q650 143 650 163V235Q650 260 624 260Q599 260 599 235V140Q599 116 615 100Q631 84 655 84H817Q841 84 857 100Q873 116 873 140V236Q873 260 848 260Q823 260 823 236V163Q823 143 803 143H765V302H905Q925 302 925 282V26Q925 12 910 12Q902 12 894.0 12.0Q886 12 878 12Q854 13 841 4Q828 -5 833 -26Q842 -53 884 -53Q945 -52 968 -43Q987 -35 994 -17Q1000 -2 1000 28V316Q1000 341 984 357Q968 373 944 373H773V436H897H987Q1024 436 1024 473Q1024 509 987 509H879V591H966Q1000 591 1000 627Q1000 661 966 661H878V704Q878 742 841 742Q803 742 803 704V661H667V706Q667 744 629 744Q592 744 592 706V661H510Q475 661 475 627Q475 591 510 591H593V510H485Q448 510 448 474Q448 437 485 437H696V373H535Q511 373 495 358Q479 342 479 317V-18Q479 -54 515 -54ZM668 510V592H736H804V510Z" fill="#fafafa" stroke="none" transform="scale(1,-1) translate(0,-256)" /></svg>