<?xml version="1.0" encoding="utf-8" ?>
<svg baseProfile="full" height="256" version="1.1" width="256" xmlns="http://www.w3.org/2000/svg" xmlns:ev="http://www.w3.org/2001/xml-events" xmlns:xlink="http://www.w3.org/1999/xlink"><defs /><path d="M638 866Q638 876 616.0 884.5Q594 893 564 891Q533 889 513.5 879.0Q494 869 496 859Q498 850 518.5 847.0Q539 844 567 845Q595 847 616.0 852.0Q637 857 638 866Z" fill="#1b2e35" stroke="none" transform="scale(1,-1) translate(0,-256)" /><path d="M1157 392Q1157 383 1159.5 373.5Q1162 364 1163 355Q1165 346 1165.5 334.5Q1166 323 1160 316Q1154 310 1145.0 312.0Q1136 314 1129 332Q1125 343 1128.5 356.0Q1132 369 1123 387Q1114 405 1095.0 418.5Q1076 432 1064 453Q1052 475 1052.5 494.5Q1053 514 1052.0 527.5Q1051 541 1034 547Q1014 554 993.0 542.5Q972 531 959.5 511.5Q947 492 951 474Q955 459 965.5 448.0Q976 437 986.5 422.5Q997 408 998 381Q999 372 997.5 362.5Q996 353 988 350Q982 347 972 350Q941 357 933.5 380.0Q926 403 926 435Q926 448 926.0 456.5Q926 465 921 473Q914 483 898.5 484.0Q883 485 871 484Q844 482 821.0 503.0Q798 524 795 551Q791 577 797.5 593.5Q804 610 812.5 620.5Q821 631 824.5 639.0Q828 647 816 658Q807 667 795.5 667.5Q784 668 770.0 667.5Q756 667 739.0 672.0Q722 677 702 695Q692 703 689.0 716.5Q686 730 687 743Q688 773 715.5 790.5Q743 808 773 804Q802 800 825.5 780.5Q849 761 864 735Q870 727 876.0 718.0Q882 709 892 705Q904 700 916.5 704.5Q929 709 942 713Q967 720 993.0 711.5Q1019 703 1037.5 683.5Q1056 664 1061 638Q1063 625 1064.0 611.5Q1065 598 1074 589Q1079 583 1085.5 580.0Q1092 577 1098 574Q1136 554 1150.0 527.5Q1164 501 1163.5 469.5Q1163 438 1157 404Q1156 399 1157 392Z" fill="#1b2e35" stroke="none" transform="scale(1,-1) translate(0,-256)" /><path d="M265 -7Q259 -14 265.0 -29.0Q271 -44 286.0 -57.5Q301 -71 324 -75Q331 -76 336.0 -70.5Q341 -65 333 -58Q324 -50 307.5 -34.5Q291 -19 284 -12Q276 -5 271.0 -5.0Q266 -5 265 -7Z" fill="#1b2e35" stroke="none" transform="scale(1,-1) translate(0,-256)" /><path d="M432 -123Q429 -132 440.0 -143.5Q451 -155 469.5 -162.5Q488 -170 511 -166Q518 -164 521.0 -157.0Q524 -150 513 -146Q503 -142 481.5 -133.5Q460 -125 451 -121Q442 -117 437.0 -119.0Q432 -121 432 -123Z" fill="#1b2e35" stroke="none" transform="scale(1,-1) translate(0,-256)" /><path d="M490 -89Q485 -85 468.0 -75.0Q451 -65 431.5 -56.0Q412 -47 396.5 -44.5Q381 -42 378 -52Q376 -61 384.0 -71.0Q392 -81 403.0 -88.5Q414 -96 421 -100Q450 -116 482 -115Q487 -115 492.0 -113.5Q497 -112 499 -107Q501 -102 498.0 -97.0Q495 -92 490 -89Z" fill="#1b2e35" stroke="none" transform="scale(1,-1) translate(0,-256)" /><path d="M954 -44Q964 -50 983.5 -41.5Q1003 -33 1019.5 -13.5Q1036 6 1039 35Q1040 44 1032.5 50.0Q1025 56 1015 45Q1009 38 998.0 25.0Q987 12 976.0 -0.5Q965 -13 959 -20Q951 -29 951.5 -36.0Q952 -43 954 -44Z" fill="#1b2e35" stroke="none" transform="scale(1,-1) translate(0,-256)" /><path d="M1059 67Q1069 65 1081.5 76.0Q1094 87 1102.0 106.5Q1110 126 1105 149Q1103 156 1096.0 159.0Q1089 162 1084 151Q1080 140 1070.5 118.0Q1061 96 1058 87Q1054 77 1056.0 72.0Q1058 67 1059 67Z" fill="#1b2e35" stroke="none" transform="scale(1,-1) translate(0,-256)" /><path d="M849 825Q851 835 840.0 847.5Q829 860 809.5 867.0Q790 874 767 869Q760 867 757.0 859.5Q754 852 765 848Q776 844 797.5 835.0Q819 826 829 823Q838 819 843.0 821.5Q848 824 849 825Z" fill="#1b2e35" stroke="none" transform="scale(1,-1) translate(0,-256)" /><path d="M567 805Q608 797 620.0 782.0Q632 767 625.0 749.5Q618 732 603.5 716.0Q589 700 578 691Q557 673 534.0 657.0Q511 641 494.5 627.5Q478 614 475 604Q472 591 480.5 579.0Q489 567 496 555Q511 532 508.5 503.0Q506 474 491 451Q480 434 463.5 424.0Q447 414 437.0 403.0Q427 392 436 372Q442 359 458.5 350.0Q475 341 496.0 331.5Q517 322 538.0 308.0Q559 294 575 270Q595 240 593.0 200.5Q591 161 569 132Q546 102 508.5 91.0Q471 80 437 94Q420 100 400.5 120.0Q381 140 373 197Q372 209 368.5 217.5Q365 226 348 219Q341 217 334.5 211.5Q328 206 321 202Q292 184 263.0 183.5Q234 183 205 219Q192 236 185.5 259.5Q179 283 186 313Q188 321 195.0 334.5Q202 348 206.5 360.5Q211 373 206 380Q202 384 197.0 386.0Q192 388 187 390Q152 399 136.0 429.0Q120 459 120 494Q120 512 130.0 543.0Q140 574 155.0 608.0Q170 642 186.0 670.0Q202 698 216 712Q228 725 243.5 729.0Q259 733 265 739Q271 745 281.5 764.0Q292 783 311 794Q328 803 348.0 809.0Q368 815 384 827Q398 838 413.5 837.0Q429 836 439 836Q450 835 435.0 822.5Q420 810 398 806Q387 804 376.0 801.0Q365 798 356 791Q347 784 341.5 774.0Q336 764 328 757Q316 747 300.5 741.5Q285 736 277 723Q272 715 271.5 705.5Q271 696 269 687Q266 679 262.0 673.5Q258 668 253 662Q245 649 247.5 640.5Q250 632 267 634Q281 635 296.5 643.5Q312 652 315 670Q317 682 315.5 693.0Q314 704 319.5 716.0Q325 728 348 743Q365 753 376.5 753.5Q388 754 398.0 753.0Q408 752 419 756Q432 762 449.5 777.0Q467 792 494.5 802.5Q522 813 567 805ZM281 492Q283 496 285.5 502.5Q288 509 288 515Q289 528 279 532Q270 536 259.5 531.0Q249 526 246 517Q239 501 250 487Q257 477 267 479Q272 479 275.5 483.0Q279 487 281 492ZM427 464Q428 473 427.0 481.0Q426 489 420 493Q415 496 404.0 495.5Q393 495 388 495Q378 494 369.0 493.5Q360 493 352 486Q341 475 340.0 459.0Q339 443 340 428Q340 425 341.0 421.5Q342 418 344 415Q349 406 359.0 405.5Q369 405 379 406Q384 407 388.5 408.0Q393 409 397 411Q407 416 412.5 425.5Q418 435 421 445Q423 449 424.5 454.0Q426 459 427 464Z" fill="#1b2e35" stroke="none" transform="scale(1,-1) translate(0,-256)" /></svg>