<?xml version="1.0" encoding="utf-8" ?>
<svg baseProfile="full" height="256" version="1.1" width="256" xmlns="http://www.w3.org/2000/svg" xmlns:ev="http://www.w3.org/2001/xml-events" xmlns:xlink="http://www.w3.org/1999/xlink"><defs /><path d="M257 -140Q257 -155 286.5 -168.5Q316 -182 368.5 -191.5Q421 -201 490.0 -206.5Q559 -212 638 -212Q716 -212 785.0 -206.5Q854 -201 906.5 -191.5Q959 -182 989.0 -168.5Q1019 -155 1019 -140V-71Q992 -71 941.0 -70.0Q890 -69 825.0 -68.0Q760 -67 688.0 -65.5Q616 -64 546.0 -63.5Q476 -63 415.5 -63.0Q355 -63 313.0 -65.0Q271 -67 257 -71Z" fill="#8b5738" stroke="none" transform="scale(1,-1) translate(0,-256)" /><path d="M257 782Q257 770 286.5 759.5Q316 749 368.5 741.5Q421 734 490.0 729.5Q559 725 638 725Q716 725 785.0 729.5Q854 734 906.5 741.5Q959 749 989.0 759.5Q1019 770 1019 782V856Q998 856 950.0 856.5Q902 857 837.0 857.5Q772 858 699.0 858.5Q626 859 554.0 859.5Q482 860 419.5 859.5Q357 859 314.0 858.5Q271 858 257 856Z" fill="#8b5738" stroke="none" transform="scale(1,-1) translate(0,-256)" /></svg>