<?xml version="1.0" encoding="utf-8" ?>
<svg baseProfile="full" height="256" version="1.1" width="256" xmlns="http://www.w3.org/2000/svg" xmlns:ev="http://www.w3.org/2001/xml-events" xmlns:xlink="http://www.w3.org/1999/xlink"><defs /><path d="M651 254Q645 266 640.0 280.0Q635 294 645 295Q654 296 673.5 279.5Q693 263 715.0 235.0Q737 207 755 172Q759 164 775.0 142.0Q791 120 811.0 92.0Q831 64 849 40Q880 -2 886.5 -24.0Q893 -46 889 -50Q885 -56 878.5 -58.5Q872 -61 866 -63Q847 -68 826.5 -72.0Q806 -76 785 -79Q772 -81 760.0 -65.0Q748 -49 738.5 -25.0Q729 -1 722.0 23.0Q715 47 712 61Q701 118 689.5 161.0Q678 204 651 254Z" fill="#e2a610" stroke="none" transform="scale(1,-1) translate(0,-256)" /></svg>