<?xml version="1.0" encoding="utf-8" ?>
<svg baseProfile="full" height="256" version="1.1" width="256" xmlns="http://www.w3.org/2000/svg" xmlns:ev="http://www.w3.org/2001/xml-events" xmlns:xlink="http://www.w3.org/1999/xlink"><defs /><path d="M693 336Q706 331 736.0 316.5Q766 302 803.0 275.5Q840 249 874.0 208.5Q908 168 930.5 111.0Q953 54 953 -21V-27Q952 -49 942.0 -65.5Q932 -82 902 -89Q872 -96 814.0 -102.0Q756 -108 658 -108Q545 -108 476.5 -100.5Q408 -93 372 -84Q346 -77 334.5 -61.0Q323 -45 322 -23Q322 55 344.5 112.5Q367 170 401.0 210.5Q435 251 472.0 277.0Q509 303 539.5 317.5Q570 332 582 337Q593 340 593 352Q593 364 582 368Q569 374 539.0 388.5Q509 403 472.0 429.5Q435 456 401.0 496.5Q367 537 344.5 593.5Q322 650 322 726L323 773L951 772L953 727Q953 650 930.5 592.0Q908 534 874.0 493.5Q840 453 803.0 427.0Q766 401 735.5 387.0Q705 373 693 368Q683 364 683 352Q683 340 693 336Z" fill="#81d4fa" stroke="none" transform="scale(1,-1) translate(0,-256)" /></svg>