<?xml version="1.0" encoding="utf-8" ?>
<svg baseProfile="full" height="256" version="1.1" width="256" xmlns="http://www.w3.org/2000/svg" xmlns:ev="http://www.w3.org/2001/xml-events" xmlns:xlink="http://www.w3.org/1999/xlink"><defs /><path d="M1104 337Q1163 293 1195.5 239.5Q1228 186 1228 126Q1228 56 1184.5 -5.5Q1141 -67 1063.5 -113.5Q986 -160 884.0 -186.0Q782 -212 666 -212Q549 -212 447.0 -186.0Q345 -160 268.0 -113.5Q191 -67 147.0 -5.5Q103 56 103 126Q103 156 115.5 192.5Q128 229 144.5 262.5Q161 296 173.5 317.5Q186 339 186 339Q186 339 197.0 339.0Q208 339 219.5 339.0Q231 339 232 339Q237 339 240.5 334.5Q244 330 241 325Q216 284 216 238Q216 184 251.0 136.0Q286 88 347.5 52.0Q409 16 490.5 -4.5Q572 -25 666 -25Q759 -25 840.5 -4.5Q922 16 984.0 52.0Q1046 88 1081.0 136.0Q1116 184 1116 238Q1116 250 1106.5 266.5Q1097 283 1084.5 299.5Q1072 316 1062.5 327.5Q1053 339 1053 339Q1053 339 1063.0 339.0Q1073 339 1084.0 339.0Q1095 339 1099 339Q1101 339 1104 337Z" fill="#cc3333" stroke="none" transform="scale(1,-1) translate(0,-256)" /><path d="M548 163Q548 163 554.5 184.5Q561 206 569.0 243.0Q577 280 582.0 326.0Q587 372 583.0 422.5Q579 473 561 521Q538 580 540.0 637.0Q542 694 557.5 744.0Q573 794 593.0 832.0Q613 870 628.0 891.5Q643 913 643 913Q643 913 654.5 913.0Q666 913 677.5 913.0Q689 913 690 913Q694 913 697.5 909.0Q701 905 699 900Q691 871 684.5 818.0Q678 765 685.5 696.5Q693 628 727 553Q755 490 756.0 436.0Q757 382 740.5 337.5Q724 293 698.0 259.0Q672 225 645.5 201.5Q619 178 600 165Q597 163 593 163Q593 163 581.5 163.0Q570 163 559.0 163.0Q548 163 548 163Z" fill="#cc3333" stroke="none" transform="scale(1,-1) translate(0,-256)" /><path d="M275 163Q275 163 281.5 182.5Q288 202 296.0 234.5Q304 267 309.0 308.5Q314 350 311.0 395.0Q308 440 292 483Q272 536 273.0 587.0Q274 638 287.5 682.5Q301 727 318.0 761.5Q335 796 348.5 815.5Q362 835 362 835Q362 835 373.5 835.0Q385 835 396.5 835.0Q408 835 409 835Q412 835 415.0 831.5Q418 828 416 823Q409 797 403.0 749.5Q397 702 403.5 641.0Q410 580 441 512Q466 456 467.0 407.5Q468 359 453.0 319.5Q438 280 415.0 250.0Q392 220 368.0 199.0Q344 178 327 166Q325 164 321 164Q317 164 306.0 164.0Q295 164 285.0 163.5Q275 163 275 163Z" fill="#cc3333" stroke="none" transform="scale(1,-1) translate(0,-256)" /><path d="M827 163Q827 163 833.5 182.5Q840 202 848.0 234.5Q856 267 861.0 308.5Q866 350 863.0 395.0Q860 440 844 483Q824 536 825.0 587.0Q826 638 839.0 683.0Q852 728 869.5 762.0Q887 796 900.0 815.5Q913 835 913 835Q913 835 924.5 835.0Q936 835 947.5 835.0Q959 835 960 835Q964 835 966.5 831.5Q969 828 968 823Q960 797 954.0 749.5Q948 702 954.5 641.0Q961 580 992 512Q1017 456 1018.5 407.5Q1020 359 1005.0 319.5Q990 280 966.5 249.5Q943 219 919.0 198.0Q895 177 878 165Q877 163 872 163Q870 164 858.5 164.0Q847 164 837.0 163.5Q827 163 827 163Z" fill="#cc3333" stroke="none" transform="scale(1,-1) translate(0,-256)" /></svg>