<?xml version="1.0" encoding="utf-8" ?>
<svg baseProfile="full" height="256" version="1.1" width="256" xmlns="http://www.w3.org/2000/svg" xmlns:ev="http://www.w3.org/2001/xml-events" xmlns:xlink="http://www.w3.org/1999/xlink"><defs /><path d="M747 301 832 257Q832 257 833.5 246.5Q835 236 832.5 220.5Q830 205 815 191Q800 177 784.0 171.5Q768 166 757.0 166.0Q746 166 746 166L692 245Q692 245 702.5 250.5Q713 256 726 269Q738 281 742.5 291.0Q747 301 747 301Z" fill="#c8c8c8" stroke="none" transform="scale(1,-1) translate(0,-256)" /><path d="M801 82Q801 82 823.5 97.5Q846 113 870 141Q893 168 905.0 191.5Q917 215 917 215L998 176Q998 176 999.0 161.0Q1000 146 993.0 121.0Q986 96 960 66Q935 35 909.0 24.0Q883 13 865.5 12.0Q848 11 848 11Z" fill="#c8c8c8" stroke="none" transform="scale(1,-1) translate(0,-256)" /></svg>