<?xml version="1.0" encoding="utf-8" ?>
<svg baseProfile="full" height="256" version="1.1" width="256" xmlns="http://www.w3.org/2000/svg" xmlns:ev="http://www.w3.org/2001/xml-events" xmlns:xlink="http://www.w3.org/1999/xlink"><defs /><path d="M857 440Q863 427 866.0 412.0Q869 397 858 390Q854 387 837.0 378.5Q820 370 802.0 362.0Q784 354 779 354Q771 354 760.5 356.5Q750 359 750 359Q750 359 736.5 353.5Q723 348 704.5 341.0Q686 334 669.0 328.0Q652 322 645 320Q634 318 628.0 331.0Q622 344 637 352Q642 355 656.5 363.0Q671 371 688.0 380.5Q705 390 717.5 397.0Q730 404 730 404Q730 404 734.5 411.5Q739 419 744 427Q748 433 761.5 441.5Q775 450 790.5 457.5Q806 465 817 467Q834 470 842.5 461.5Q851 453 857 440Z" fill="#acb1b5" stroke="none" transform="scale(1,-1) translate(0,-256)" /></svg>