<?xml version="1.0" encoding="utf-8" ?>
<svg baseProfile="full" height="256" version="1.1" width="256" xmlns="http://www.w3.org/2000/svg" xmlns:ev="http://www.w3.org/2001/xml-events" xmlns:xlink="http://www.w3.org/1999/xlink"><defs /><path d="M803 412Q793 430 803.5 443.0Q814 456 825 460Q831 463 849.0 471.0Q867 479 888.0 488.5Q909 498 924.5 505.0Q940 512 940 512L955 543L989 613Q989 613 1000.0 623.5Q1011 634 1026.0 648.5Q1041 663 1053.5 674.0Q1066 685 1069 687Q1073 688 1085.5 688.5Q1098 689 1113.5 689.5Q1129 690 1140.0 690.0Q1151 690 1151 690Q1151 690 1162.0 684.0Q1173 678 1175 676Q1176 675 1173.5 661.5Q1171 648 1168.0 635.0Q1165 622 1165 622Q1165 622 1181.5 627.5Q1198 633 1206 636Q1214 639 1222.5 637.0Q1231 635 1233 629Q1237 621 1233.0 613.5Q1229 606 1225 604Q1219 601 1208.5 595.0Q1198 589 1189.5 584.5Q1181 580 1181 580L1226 551Q1226 551 1225.0 538.5Q1224 526 1217.5 507.0Q1211 488 1195.5 469.5Q1180 451 1152 440Q1123 429 1089.0 432.0Q1055 435 1024.5 444.0Q994 453 975.0 461.5Q956 470 956 470Q956 470 942.0 460.5Q928 451 909.0 438.0Q890 425 873.0 414.0Q856 403 849 400Q835 394 823.0 395.5Q811 397 803 412Z" fill="#006ca9" stroke="none" transform="scale(1,-1) translate(0,-256)" /></svg>