<?xml version="1.0" encoding="utf-8" ?>
<svg baseProfile="full" height="256" version="1.1" width="256" xmlns="http://www.w3.org/2000/svg" xmlns:ev="http://www.w3.org/2001/xml-events" xmlns:xlink="http://www.w3.org/1999/xlink"><defs /><path d="M629 761Q714 764 787.5 735.5Q861 707 916.5 653.0Q972 599 1004.0 525.0Q1036 451 1038 363Q1040 274 1008.5 199.0Q977 124 920.0 68.0Q863 12 788.5 -19.0Q714 -50 629 -50Q576 -50 519.5 -33.5Q463 -17 411.0 16.5Q359 50 318.0 98.5Q277 147 253.5 210.0Q230 273 231 350Q233 447 267.5 522.0Q302 597 358.5 649.5Q415 702 485.5 730.0Q556 758 629 761Z" fill="#fffdfe" stroke="none" transform="scale(1,-1) translate(0,-256)" /></svg>