<?xml version="1.0" encoding="utf-8" ?>
<svg baseProfile="full" height="256" version="1.1" width="256" xmlns="http://www.w3.org/2000/svg" xmlns:ev="http://www.w3.org/2001/xml-events" xmlns:xlink="http://www.w3.org/1999/xlink"><defs /><path d="M629 879Q730 877 825.5 841.5Q921 806 996.5 739.0Q1072 672 1116.0 574.5Q1160 477 1159 350Q1158 224 1114.5 127.0Q1071 30 996.0 -36.5Q921 -103 825.0 -136.5Q729 -170 622 -168Q516 -166 424.5 -126.5Q333 -87 264.0 -17.5Q195 52 156.0 145.5Q117 239 115 348Q113 448 142.0 531.5Q171 615 222.0 680.0Q273 745 339.5 790.0Q406 835 480.0 858.0Q554 881 629 879Z" fill="#ff2a23" stroke="none" transform="scale(1,-1) translate(0,-256)" /><path d="M634 660Q710 659 768.5 630.5Q827 602 867.5 556.0Q908 510 928.0 455.5Q948 401 947 347Q946 294 926.0 239.0Q906 184 867.5 138.0Q829 92 770.0 65.5Q711 39 631 42Q551 45 493.0 73.0Q435 101 397.0 146.0Q359 191 341.0 246.0Q323 301 324 358Q324 414 347.5 468.5Q371 523 413.0 567.0Q455 611 511.0 636.5Q567 662 634 660Z" fill="#ff2a23" stroke="none" transform="scale(1,-1) translate(0,-256)" /></svg>