<?xml version="1.0" encoding="utf-8" ?>
<svg baseProfile="full" height="256" version="1.1" width="256" xmlns="http://www.w3.org/2000/svg" xmlns:ev="http://www.w3.org/2001/xml-events" xmlns:xlink="http://www.w3.org/1999/xlink"><defs /><path d="M655 288 681 333Q686 330 689.0 328.5Q692 327 692 326L660 271Q659 271 637.5 283.5Q616 296 592 309Q582 314 572.5 315.5Q563 317 557 317Q557 317 554.0 317.0Q551 317 550 316L545 323Q545 323 548.0 325.0Q551 327 555 327Q563 327 572.0 325.5Q581 324 592 320Z" fill="#757575" stroke="none" transform="scale(1,-1) translate(0,-256)" /><path d="M595 187 624 230Q634 223 634 223L598 170Q598 170 577.5 183.5Q557 197 533 213Q524 219 514.5 221.0Q505 223 499 223Q499 223 496.5 223.5Q494 224 492 223L488 230Q488 230 491.0 231.5Q494 233 498 233Q516 233 534 223Z" fill="#757575" stroke="none" transform="scale(1,-1) translate(0,-256)" /></svg>