<?xml version="1.0" encoding="utf-8" ?>
<svg baseProfile="full" height="256" version="1.1" width="256" xmlns="http://www.w3.org/2000/svg" xmlns:ev="http://www.w3.org/2001/xml-events" xmlns:xlink="http://www.w3.org/1999/xlink"><defs /><path d="M578 659Q577 658 575.5 656.5Q574 655 573 654Q524 610 488.0 584.5Q452 559 439 550Q431 545 424 551L376 598Q376 598 374.5 599.5Q373 601 373 603Q373 603 413.5 627.0Q454 651 522 713Q523 715 524 716Q535 717 546.0 713.5Q557 710 565 699Q574 687 576.5 677.0Q579 667 578 659Z" fill="#616161" stroke="none" transform="scale(1,-1) translate(0,-256)" /><path d="M836.2921752929688 501.48583984375Q836.2921752929688 507.31982421875 834.1044311523438 512.44970703125Q831.9166870117188 517.57958984375 828.0189819335938 521.477294921875Q824.1212768554688 525.375 818.9913940429688 527.587890625Q813.8615112304688 529.80078125 808.0275268554688 529.80078125Q802.1432495117188 529.80078125 797.0133666992188 527.587890625Q791.8834838867188 525.375 787.9857788085938 521.477294921875Q784.0880737304688 517.57958984375 781.9003295898438 512.44970703125Q779.7125854492188 507.31982421875 779.7125854492188 501.48583984375Q779.7125854492188 495.65185546875 781.9003295898438 490.52197265625Q784.0880737304688 485.39208984375 787.9857788085938 481.494384765625Q791.8834838867188 477.5966796875 797.0133666992188 475.408935546875Q802.1432495117188 473.22119140625 808.0275268554688 473.22119140625Q813.8615112304688 473.22119140625 818.9913940429688 475.408935546875Q824.1212768554688 477.5966796875 828.0189819335938 481.494384765625Q831.9166870117188 485.39208984375 834.1044311523438 490.52197265625Q836.2921752929688 495.65185546875 836.2921752929688 501.48583984375Z" fill="#616161" stroke="none" transform="scale(1,-1) translate(0,-256)" /><path d="M401 730Q432 738 450.5 734.0Q469 730 469 730Q469 730 467.5 724.0Q466 718 464 709Q454 709 444.5 709.0Q435 709 425 709Q414 709 402.5 708.0Q391 707 381 702Q371 698 362.5 690.5Q354 683 351 672Q349 676 349 678Q347 689 359.0 705.5Q371 722 401 730Z" fill="#616161" stroke="none" transform="scale(1,-1) translate(0,-256)" /></svg>