<?xml version="1.0" encoding="utf-8" ?>
<svg baseProfile="full" height="256" version="1.1" width="256" xmlns="http://www.w3.org/2000/svg" xmlns:ev="http://www.w3.org/2001/xml-events" xmlns:xlink="http://www.w3.org/1999/xlink"><defs /><path d="M573 601Q546 577 515.5 554.5Q485 532 453 520Q453 520 455.0 524.5Q457 529 459 529Q488 543 513.5 562.5Q539 582 569 607Q616 649 646.0 679.5Q676 710 676 710L723 666Q723 666 722.5 665.5Q722 665 722 665L681 704Q680 704 650.0 673.5Q620 643 573 601Z" fill="#e0e0e0" stroke="none" transform="scale(1,-1) translate(0,-256)" /><path d="M642.9369964599609 527.218994140625Q615.9369964599609 503.218994140625 585.4369964599609 480.718994140625Q554.9369964599609 458.218994140625 522.9369964599609 446.218994140625Q522.9369964599609 446.218994140625 524.9369964599609 450.718994140625Q526.9369964599609 455.218994140625 528.9369964599609 455.218994140625Q557.9369964599609 469.218994140625 583.4369964599609 488.718994140625Q608.9369964599609 508.218994140625 638.9369964599609 533.218994140625Q685.9369964599609 575.218994140625 715.9369964599609 605.718994140625Q745.9369964599609 636.218994140625 745.9369964599609 636.218994140625L792.9369964599609 592.218994140625Q792.9369964599609 592.218994140625 792.4369964599609 591.718994140625Q791.9369964599609 591.218994140625 791.9369964599609 591.218994140625L750.9369964599609 630.218994140625Q749.9369964599609 630.218994140625 719.9369964599609 599.718994140625Q689.9369964599609 569.218994140625 642.9369964599609 527.218994140625Z" fill="#e0e0e0" stroke="none" transform="scale(1,-1) translate(0,-256)" /></svg>