<?xml version="1.0" encoding="utf-8" ?>
<svg baseProfile="full" height="256" version="1.1" width="256" xmlns="http://www.w3.org/2000/svg" xmlns:ev="http://www.w3.org/2001/xml-events" xmlns:xlink="http://www.w3.org/1999/xlink"><defs /><path d="M714 288Q708 272 692.0 266.5Q676 261 661 268Q649 275 635.5 282.0Q622 289 604 299Q592 305 599 316Q605 327 617 320Q631 312 641.0 306.5Q651 301 652 301Q663 295 669 306Q672 312 669.5 316.0Q667 320 664 322Q663 322 651.5 328.0Q640 334 626 342Q615 348 620 358L621 361Q627 373 639 366Q656 356 669.5 349.5Q683 343 695 337Q708 330 714.0 316.0Q720 302 714 288Z" fill="#212121" stroke="none" transform="scale(1,-1) translate(0,-256)" /><path d="M650 185Q643 169 627.0 164.5Q611 160 596 169Q584 176 571.0 184.0Q558 192 541 203Q530 210 537 221Q545 232 555 225Q568 216 578.0 210.0Q588 204 589 203Q600 197 606 207Q610 213 607.5 217.0Q605 221 602 223Q602 223 590.5 229.5Q579 236 566 246Q557 252 562 261L563 264Q569 275 581 268Q598 257 610.5 249.5Q623 242 635 235Q647 227 652.0 212.5Q657 198 650 185Z" fill="#212121" stroke="none" transform="scale(1,-1) translate(0,-256)" /><path d="M957 283 1093 377 1034 571Q1032 579 1024.5 580.0Q1017 581 1013 574Q1006 564 999.0 548.0Q992 532 988 510Q981 472 981.0 453.0Q981 434 981 434Q981 434 965.5 421.5Q950 409 939 377Q932 356 937.0 334.0Q942 312 949.5 297.5Q957 283 957 283Z" fill="#212121" stroke="none" transform="scale(1,-1) translate(0,-256)" /><path d="M428 -86Q428 -86 448.5 -72.0Q469 -58 499.0 -37.0Q529 -16 559.5 5.5Q590 27 610.5 41.0Q631 55 631 55Q631 55 620.5 69.5Q610 84 599 95Q592 102 580 104Q571 105 564.0 99.0Q557 93 557 84V77Q557 64 548.5 56.5Q540 49 527 51L485 57Q463 59 448.0 42.5Q433 26 429 6Q426 -14 425.5 -35.5Q425 -57 426.5 -71.5Q428 -86 428 -86Z" fill="#212121" stroke="none" transform="scale(1,-1) translate(0,-256)" /><path d="M908 248 714 113Q718 134 739.0 159.5Q760 185 792 208Q824 230 855.5 240.5Q887 251 908 248Z" fill="#212121" stroke="none" transform="scale(1,-1) translate(0,-256)" /><path d="M709 704Q722 694 723.0 677.0Q724 660 712 648Q701 638 691.0 627.5Q681 617 665 602Q656 594 648 603Q639 612 648 621Q661 632 669.0 640.0Q677 648 678 649Q687 658 678 666Q673 671 668.5 669.5Q664 668 662 666Q661 665 652.0 656.0Q643 647 631 636Q622 628 614 636L612 638Q602 647 612 656Q626 670 636.5 680.5Q647 691 657 701Q667 711 682.5 712.5Q698 714 709 704Z" fill="#212121" stroke="none" transform="scale(1,-1) translate(0,-256)" /><path d="M779.125 630.218994140625Q792.125 620.218994140625 793.125 603.218994140625Q794.125 586.218994140625 782.125 574.218994140625Q771.125 564.218994140625 761.125 553.718994140625Q751.125 543.218994140625 735.125 528.218994140625Q726.125 520.218994140625 718.125 529.218994140625Q709.125 538.218994140625 718.125 547.218994140625Q731.125 558.218994140625 739.125 566.218994140625Q747.125 574.218994140625 748.125 575.218994140625Q757.125 584.218994140625 748.125 592.218994140625Q743.125 597.218994140625 738.625 595.718994140625Q734.125 594.218994140625 732.125 592.218994140625Q731.125 591.218994140625 722.125 582.218994140625Q713.125 573.218994140625 701.125 562.218994140625Q692.125 554.218994140625 684.125 562.218994140625L682.125 564.218994140625Q672.125 573.218994140625 682.125 582.218994140625Q696.125 596.218994140625 706.625 606.718994140625Q717.125 617.218994140625 727.125 627.218994140625Q737.125 637.218994140625 752.625 638.718994140625Q768.125 640.218994140625 779.125 630.218994140625Z" fill="#212121" stroke="none" transform="scale(1,-1) translate(0,-256)" /></svg>