<?xml version="1.0" encoding="utf-8" ?>
<svg baseProfile="full" height="256" version="1.1" width="256" xmlns="http://www.w3.org/2000/svg" xmlns:ev="http://www.w3.org/2001/xml-events" xmlns:xlink="http://www.w3.org/1999/xlink"><defs /><path d="M393 632Q393 632 407.0 636.0Q421 640 439 660Q450 673 456.5 689.5Q463 706 466.0 718.0Q469 730 469 730Q469 730 450.5 734.0Q432 738 401 731Q371 723 359.0 706.0Q347 689 349 678Q350 671 360.5 660.0Q371 649 382.0 640.5Q393 632 393 632Z" fill="#424242" stroke="none" transform="scale(1,-1) translate(0,-256)" /><path d="M376 598 424 551Q431 545 439 550Q452 558 488.0 584.0Q524 610 573 654Q626 701 657.5 738.0Q689 775 700 789Q707 797 700 804L649 857L644 861Q637 851 620.5 827.0Q604 803 579.0 773.0Q554 743 522 714Q453 651 413.0 627.0Q373 603 373 603Q373 601 374.5 599.5Q376 598 376 598Z" fill="#424242" stroke="none" transform="scale(1,-1) translate(0,-256)" /></svg>