<?xml version="1.0" encoding="utf-8" ?>
<svg baseProfile="full" height="256" version="1.1" width="256" xmlns="http://www.w3.org/2000/svg" xmlns:ev="http://www.w3.org/2001/xml-events" xmlns:xlink="http://www.w3.org/1999/xlink"><defs /><path d="M659 270 692 326Q691 327 669.0 339.5Q647 352 622 365Q604 375 584 379Q575 381 571 373L545 323L551 317Q551 317 563.0 317.5Q575 318 591 309Q616 295 637.5 283.0Q659 271 659 270Z" fill="#bdbdbd" stroke="none" transform="scale(1,-1) translate(0,-256)" /><path d="M598 170 634 223Q633 224 612.5 237.5Q592 251 568 267Q558 273 548.5 277.0Q539 281 530 283Q522 286 517 279L488 230L493 224Q493 224 505.0 223.5Q517 223 533 213Q557 198 577.5 184.0Q598 170 598 170Z" fill="#bdbdbd" stroke="none" transform="scale(1,-1) translate(0,-256)" /></svg>