<?xml version="1.0" encoding="utf-8" ?>
<svg baseProfile="full" height="256" version="1.1" width="256" xmlns="http://www.w3.org/2000/svg" xmlns:ev="http://www.w3.org/2001/xml-events" xmlns:xlink="http://www.w3.org/1999/xlink"><defs /><path d="M545 506Q562 517 578.0 530.5Q594 544 611 559Q660 602 691.0 633.5Q722 665 723 666L676 710Q676 710 645.5 679.5Q615 649 569 607Q540 582 514.0 562.5Q488 543 459 530Q457 529 455.0 524.5Q453 520 453 520L485 484Q485 484 491.0 480.5Q497 477 504 480Q525 492 545 506Z" fill="#9e9e9e" stroke="none" transform="scale(1,-1) translate(0,-256)" /><path d="M384 601Q375 596 372 605Q371 608 372.0 611.0Q373 614 374 617L379 612Q379 612 385.0 615.0Q391 618 407 629Q422 641 450.0 663.0Q478 685 519 722Q577 775 605.0 815.5Q633 856 634 857L629 861Q629 861 632.0 862.5Q635 864 638 864Q646 862 646.5 858.0Q647 854 647 854Q647 854 634.5 834.5Q622 815 595.5 783.0Q569 751 528 713Q474 664 444.0 640.5Q414 617 400.5 609.5Q387 602 384 601Z" fill="#9e9e9e" stroke="none" transform="scale(1,-1) translate(0,-256)" /><path d="M561 643Q561 643 570.0 649.5Q579 656 582 667Q585 676 583.5 684.5Q582 693 574 703Q560 721 540 723Q525 724 512.5 714.5Q500 705 499 705L508 695Q508 695 517.5 702.0Q527 709 538 708Q544 707 552.5 702.5Q561 698 567 687Q576 672 572.0 661.0Q568 650 561 643Z" fill="#9e9e9e" stroke="none" transform="scale(1,-1) translate(0,-256)" /><path d="M615 432Q632 444 648.0 457.0Q664 470 681 485Q730 529 761.0 560.0Q792 591 793 592L746 637Q746 636 716.0 605.5Q686 575 639 534Q610 508 584.0 488.5Q558 469 529 456Q527 455 525.0 450.5Q523 446 523 446L555 410Q555 410 561.0 406.5Q567 403 574 407Q595 418 615 432Z" fill="#9e9e9e" stroke="none" transform="scale(1,-1) translate(0,-256)" /></svg>