<?xml version="1.0" encoding="utf-8" ?>
<svg baseProfile="full" height="256" version="1.1" width="256" xmlns="http://www.w3.org/2000/svg" xmlns:ev="http://www.w3.org/2001/xml-events" xmlns:xlink="http://www.w3.org/1999/xlink"><defs /><path d="M1198 471Q1223 528 1223 592Q1223 720 1132 811Q1041 902 913 902Q862 902 815 886Q745 940 656 940Q547 940 473 865Q423 886 369 886Q263 885 189 811Q113 736 113 630Q113 564 144 508Q76 444 67 348Q56 242 125 159Q193 76 300 66Q333 63 365 68Q381 2 433 -46Q498 -105 586 -105Q687 -105 751 -34Q805 -67 868 -67Q956 -67 1021 -7Q1079 47 1090 123Q1149 154 1185 209Q1228 274 1228 352Q1228 415 1198 471ZM1141 482 1135 468 1143 455Q1172 407 1172 352Q1172 291 1138 240Q1106 191 1052 167L1037 160L1036 143Q1031 79 983 34Q934 -11 868 -11Q810 -11 763 26L740 44L723 21Q672 -48 586 -48Q520 -48 471 -4Q423 40 416 104L413 138L381 129Q344 118 305 122Q222 130 168 195Q115 260 123 342Q131 427 199 481L219 497L204 519Q170 568 170 630Q170 713 228 771Q287 829 369 830Q420 830 466 805L486 794L501 812Q561 883 656 883Q732 883 791 833L804 821L820 828Q864 845 913 845Q1018 845 1092 771Q1166 697 1166 592Q1166 534 1141 482Z" fill="#000000" stroke="none" transform="scale(1,-1) translate(0,-256)" /><path d="M267 59Q227 63 196 38Q164 12 160 -28Q155 -69 181 -100Q207 -131 248 -135Q287 -140 319 -114Q350 -88 355 -48Q359 -8 333 24Q308 55 267 59ZM263 17Q286 15 301 -3Q315 -21 313 -43Q310 -66 292 -81Q274 -96 251 -93Q228 -91 214 -73Q199 -56 202 -33Q204 -10 222 5Q240 19 263 17Z" fill="#000000" stroke="none" transform="scale(1,-1) translate(0,-256)" /><path d="M124 -101Q94 -98 71 -117Q48 -136 45 -165Q42 -195 61 -218Q80 -241 109 -244Q139 -247 163 -228Q186 -209 189 -179Q192 -150 173 -127Q154 -104 124 -101ZM120 -143Q132 -144 140 -154Q148 -163 147 -175Q146 -187 136 -195Q126 -203 114 -202Q101 -201 93 -191Q85 -182 87 -170Q90 -140 120 -143Z" fill="#000000" stroke="none" transform="scale(1,-1) translate(0,-256)" /></svg>