<?xml version="1.0" encoding="utf-8" ?>
<svg baseProfile="full" height="256" version="1.1" width="256" xmlns="http://www.w3.org/2000/svg" xmlns:ev="http://www.w3.org/2001/xml-events" xmlns:xlink="http://www.w3.org/1999/xlink"><defs /><path d="M1199.817886352539 350.522216796875Q1199.817886352539 466.781982421875 1156.220474243164 568.50927734375Q1112.623062133789 670.236572265625 1035.310317993164 747.54931640625Q957.9975738525391 824.862060546875 856.2702789306641 868.45947265625Q754.5429840087891 912.056884765625 637.1206207275391 912.056884765625Q520.8608551025391 912.056884765625 419.13356018066406 868.45947265625Q317.40626525878906 824.862060546875 240.09352111816406 747.54931640625Q162.78077697753906 670.236572265625 119.18336486816406 568.50927734375Q75.58595275878906 466.781982421875 75.58595275878906 350.522216796875Q75.58595275878906 233.099853515625 119.18336486816406 131.37255859375Q162.78077697753906 29.645263671875 240.09352111816406 -47.66748046875Q317.40626525878906 -124.980224609375 419.13356018066406 -168.57763671875Q520.8608551025391 -212.175048828125 637.1206207275391 -212.175048828125Q754.5429840087891 -212.175048828125 856.2702789306641 -168.57763671875Q957.9975738525391 -124.980224609375 1035.310317993164 -47.66748046875Q1112.623062133789 29.645263671875 1156.220474243164 131.37255859375Q1199.817886352539 233.099853515625 1199.817886352539 350.522216796875Z" fill="#cc3333" stroke="none" transform="scale(1,-1) translate(0,-256)" /></svg>