<?xml version="1.0" encoding="utf-8" ?>
<svg baseProfile="full" height="256" version="1.1" width="256" xmlns="http://www.w3.org/2000/svg" xmlns:ev="http://www.w3.org/2001/xml-events" xmlns:xlink="http://www.w3.org/1999/xlink"><defs /><path d="M262.656005859375 672.0Q222.656005859375 610.0 216.656005859375 563.0Q210.656005859375 516.0 237.656005859375 500.0Q250.656005859375 493.0 262.656005859375 501.0Q274.656005859375 509.0 285.156005859375 525.0Q295.656005859375 541.0 304.156005859375 558.5Q312.656005859375 576.0 319.656005859375 586.0Q399.656005859375 705.0 535.656005859375 749.0Q545.656005859375 753.0 557.156005859375 758.0Q568.656005859375 763.0 573.656005859375 773.0Q579.656005859375 785.0 573.156005859375 794.5Q566.656005859375 804.0 554.656005859375 808.0Q540.656005859375 814.0 523.156005859375 813.5Q505.656005859375 813.0 488.656005859375 810.0Q417.656005859375 798.0 355.656005859375 759.5Q293.656005859375 721.0 262.656005859375 672.0Z" fill="#ff8a80" stroke="none" transform="scale(1,-1) translate(0,-256)" /></svg>