<?xml version="1.0" encoding="utf-8" ?>
<svg baseProfile="full" height="256" version="1.1" width="256" xmlns="http://www.w3.org/2000/svg" xmlns:ev="http://www.w3.org/2001/xml-events" xmlns:xlink="http://www.w3.org/1999/xlink"><defs /><path d="M125 271Q142 245 172.5 207.5Q203 170 252.0 130.5Q301 91 372.5 57.0Q444 23 541.0 1.5Q638 -20 766 -21L928 91Q928 91 906.0 95.5Q884 100 849.0 108.0Q814 116 774.0 128.0Q734 140 696 155Q619 187 564.0 213.0Q509 239 464.5 263.0Q420 287 373 313Q329 339 298.5 351.5Q268 364 246.0 369.0Q224 374 205.5 375.5Q187 377 165 380Z" fill="#263238" stroke="none" transform="scale(1,-1) translate(0,-256)" /></svg>