<?xml version="1.0" encoding="utf-8" ?>
<svg baseProfile="full" height="256" version="1.1" width="256" xmlns="http://www.w3.org/2000/svg" xmlns:ev="http://www.w3.org/2001/xml-events" xmlns:xlink="http://www.w3.org/1999/xlink"><defs /><path d="M264 -28Q294 -57 329 -23Q413 69 445 214H848V58Q848 32 822 32Q816 31 795.5 31.0Q775 31 742 31Q707 34 690 22Q671 10 683 -19Q695 -53 751 -53Q849 -50 884 -36Q911 -26 923 -5Q934 17 934 57V659Q934 686 918 702Q900 718 876 718H658H442Q415 718 399 702Q383 684 383 659V437Q383 377 379.0 327.5Q375 278 366 238Q340 122 274 44Q232 4 264 -28ZM458 294Q462 329 464.0 362.0Q466 395 466 426H846V294H652ZM466 505V615Q466 637 488 637H824Q846 637 846 615V505H656Z" fill="#fafafa" stroke="none" transform="scale(1,-1) translate(0,-256)" /></svg>