<?xml version="1.0" encoding="utf-8" ?>
<svg baseProfile="full" height="256" version="1.1" width="256" xmlns="http://www.w3.org/2000/svg" xmlns:ev="http://www.w3.org/2001/xml-events" xmlns:xlink="http://www.w3.org/1999/xlink"><defs /><path d="M641 842Q677 842 689.0 823.0Q701 804 701 791Q701 761 700 742Q700 734 686.5 719.5Q673 705 638 706Q609 706 595.0 719.0Q581 732 581 750Q581 759 581.5 771.0Q582 783 582 792Q583 816 600.5 829.0Q618 842 641 842Z" fill="#000000" stroke="none" transform="scale(1,-1) translate(0,-256)" /><path d="M902 690Q919 705 940.0 709.5Q961 714 981 696Q1001 678 996.5 661.0Q992 644 981 632Q968 615 959.5 608.0Q951 601 943 596Q925 583 903.5 584.0Q882 585 870 594Q854 608 853.0 623.5Q852 639 860 650Q869 661 880.5 671.5Q892 682 902 690Z" fill="#000000" stroke="none" transform="scale(1,-1) translate(0,-256)" /><path d="M1017 404Q1030 405 1042.0 405.0Q1054 405 1074 404Q1093 404 1111.5 395.0Q1130 386 1131 362Q1131 342 1119.5 328.0Q1108 314 1089 313Q1077 313 1070.0 312.5Q1063 312 1053.5 312.0Q1044 312 1025 313Q995 315 982.5 326.0Q970 337 970 357Q970 377 985.0 390.0Q1000 403 1017 404Z" fill="#000000" stroke="none" transform="scale(1,-1) translate(0,-256)" /><path d="M872 111Q884 121 901.5 121.5Q919 122 933 110Q947 98 956.5 88.5Q966 79 980 60Q989 47 986.0 30.5Q983 14 974 4Q960 -10 943.5 -11.0Q927 -12 913 -1Q893 13 879 30Q853 62 856.5 81.0Q860 100 872 111Z" fill="#000000" stroke="none" transform="scale(1,-1) translate(0,-256)" /><path d="M633 13Q660 13 674.5 -4.5Q689 -22 690 -45Q690 -57 689.5 -67.5Q689 -78 689 -89Q689 -98 676.0 -114.0Q663 -130 631 -131Q610 -131 592.5 -119.0Q575 -107 575 -90Q575 -79 575.0 -71.0Q575 -63 575 -49Q576 -21 592.5 -4.0Q609 13 633 13Z" fill="#000000" stroke="none" transform="scale(1,-1) translate(0,-256)" /><path d="M390 112Q416 94 395 62Q384 45 372.0 31.5Q360 18 342 2Q323 -14 300.0 -13.5Q277 -13 264 1Q253 14 258.0 31.0Q263 48 270 59Q278 69 287.0 78.5Q296 88 307 99Q333 123 354.5 123.0Q376 123 390 112Z" fill="#000000" stroke="none" transform="scale(1,-1) translate(0,-256)" /><path d="M187 406Q206 406 221.0 406.0Q236 406 255 405Q277 403 291.0 391.5Q305 380 305 359Q306 339 293.5 325.5Q281 312 254 311Q236 310 221.5 310.0Q207 310 187 311Q168 312 152.0 323.0Q136 334 137 358Q137 381 152.0 393.0Q167 405 187 406Z" fill="#000000" stroke="none" transform="scale(1,-1) translate(0,-256)" /><path d="M297 704Q311 716 330.5 715.0Q350 714 365 703Q375 694 382.5 687.5Q390 681 399 672Q419 649 419.5 633.0Q420 617 408 602Q394 585 374.5 585.5Q355 586 337 596Q327 602 315.0 613.5Q303 625 298 632Q280 656 282.5 674.5Q285 693 297 704Z" fill="#000000" stroke="none" transform="scale(1,-1) translate(0,-256)" /></svg>