<?xml version="1.0" encoding="utf-8" ?>
<svg baseProfile="full" height="256" version="1.1" width="256" xmlns="http://www.w3.org/2000/svg" xmlns:ev="http://www.w3.org/2001/xml-events" xmlns:xlink="http://www.w3.org/1999/xlink"><defs /><path d="M773 544Q773 544 785.0 526.5Q797 509 813.5 485.0Q830 461 845.0 440.0Q860 419 865 413Q870 406 859.0 393.0Q848 380 830.5 366.5Q813 353 799.0 343.0Q785 333 785 333Q785 333 783.0 349.0Q781 365 774.0 389.0Q767 413 751.0 437.0Q735 461 707.5 477.0Q680 493 638 494Q584 495 551.5 470.5Q519 446 503 417Q488 387 486.5 361.0Q485 335 485 335L438 359L485 543Z" fill="#f17900" stroke="none" transform="scale(1,-1) translate(0,-256)" /><path d="M368 378Q368 378 382.0 360.5Q396 343 416.5 317.0Q437 291 458.5 263.5Q480 236 495.5 214.5Q511 193 514 187Q517 179 537.0 174.0Q557 169 581.5 166.5Q606 164 624.0 163.0Q642 162 642 162Q642 162 656.5 169.5Q671 177 693.0 188.0Q715 199 737.5 211.0Q760 223 775.5 232.0Q791 241 794 244Q796 246 807.5 260.0Q819 274 834.5 293.0Q850 312 865.0 330.5Q880 349 890.0 361.0Q900 373 900 373Q900 373 900.5 347.5Q901 322 893.5 283.5Q886 245 864 205Q836 154 776.0 115.5Q716 77 630 79Q570 80 526.0 99.0Q482 118 452.5 146.5Q423 175 405 206Q380 247 373.0 286.5Q366 326 367.0 352.0Q368 378 368 378Z" fill="#f17900" stroke="none" transform="scale(1,-1) translate(0,-256)" /><path d="M582 756 665 818 700 746Q700 746 700.0 735.5Q700 725 695.0 712.0Q690 699 677.5 689.0Q665 679 639 679Q613 680 600.5 691.5Q588 703 584.5 718.0Q581 733 581.5 744.5Q582 756 582 756Z" fill="#f17900" stroke="none" transform="scale(1,-1) translate(0,-256)" /><path d="M991 684 859 648Q859 648 854.0 637.5Q849 627 850.5 610.5Q852 594 869 576Q887 558 911.0 560.0Q935 562 949 573Q959 582 965.5 587.5Q972 593 979 600Q1001 621 1002.0 640.5Q1003 660 997.0 672.0Q991 684 991 684Z" fill="#f17900" stroke="none" transform="scale(1,-1) translate(0,-256)" /><path d="M970 358Q970 358 985.5 359.5Q1001 361 1024.0 364.0Q1047 367 1070.0 370.0Q1093 373 1109.0 374.5Q1125 376 1126 376Q1128 376 1132.0 365.5Q1136 355 1134 336Q1133 315 1120.5 303.0Q1108 291 1094 289Q1081 288 1064.5 287.5Q1048 287 1016 289Q994 291 984.5 303.5Q975 316 972.5 331.5Q970 347 970 358Z" fill="#f17900" stroke="none" transform="scale(1,-1) translate(0,-256)" /><path d="M873 111 980 61Q980 61 987.0 46.5Q994 32 991 10Q990 -1 980.5 -12.5Q971 -24 955.0 -29.0Q939 -34 918 -27Q905 -21 887.5 -6.5Q870 8 857.5 26.0Q845 44 846 60Q847 84 860.0 97.5Q873 111 873 111Z" fill="#f17900" stroke="none" transform="scale(1,-1) translate(0,-256)" /><path d="M575 -88Q575 -83 587.5 -77.0Q600 -71 612.5 -66.0Q625 -61 625 -61Q625 -61 641.0 -65.0Q657 -69 673.0 -75.0Q689 -81 689 -85Q688 -89 688.5 -100.5Q689 -112 684.5 -125.5Q680 -139 667.5 -148.5Q655 -158 630 -158Q607 -157 595.5 -147.5Q584 -138 579.5 -125.5Q575 -113 575.0 -102.0Q575 -91 575 -88Z" fill="#f17900" stroke="none" transform="scale(1,-1) translate(0,-256)" /><path d="M257 25 382 116Q382 116 390.5 112.5Q399 109 409 88Q420 63 408.0 45.0Q396 27 383 11Q372 -1 361.5 -11.5Q351 -22 343 -25Q323 -35 305.0 -32.0Q287 -29 276 -19Q260 -4 258.5 10.5Q257 25 257 25Z" fill="#f17900" stroke="none" transform="scale(1,-1) translate(0,-256)" /><path d="M138 364 237 378Q237 378 247.0 379.5Q257 381 270.0 381.0Q283 381 293.5 376.5Q304 372 305 361Q308 332 296.5 308.5Q285 285 256 285Q238 285 213.0 284.0Q188 283 170 290Q148 297 142.0 315.0Q136 333 137.0 348.5Q138 364 138 364Z" fill="#f17900" stroke="none" transform="scale(1,-1) translate(0,-256)" /><path d="M300 706 418 643Q418 643 420.0 632.5Q422 622 421.0 607.5Q420 593 409 580Q399 568 377.5 561.5Q356 555 335 567Q319 576 302.0 589.5Q285 603 275 625Q264 649 271.0 667.5Q278 686 289.0 696.0Q300 706 300 706Z" fill="#f17900" stroke="none" transform="scale(1,-1) translate(0,-256)" /></svg>