<?xml version="1.0" encoding="utf-8" ?>
<svg baseProfile="full" height="256" version="1.1" width="256" xmlns="http://www.w3.org/2000/svg" xmlns:ev="http://www.w3.org/2001/xml-events" xmlns:xlink="http://www.w3.org/1999/xlink"><defs /><path d="M430 512 592 485Q604 482 610.0 480.0Q616 478 619 466L657 331Q659 327 662.5 328.0Q666 329 668 331L739 447Q746 459 753.0 460.5Q760 462 771 460L872 431Q875 431 876.5 433.0Q878 435 877 437L847 525Q844 538 844.0 543.5Q844 549 851 559L1001 714Q1003 716 1001.5 719.0Q1000 722 996 721L860 683Q829 675 817.5 675.0Q806 675 806 697V853Q805 857 802.0 857.5Q799 858 797 856L709 700Q703 690 693.5 686.0Q684 682 662 700L503 834Q500 836 497.5 834.5Q495 833 496 829L568 621Q573 606 570.0 598.5Q567 591 551 582L429 520Q426 519 426.5 515.5Q427 512 430 512Z" fill="#ff8f00" stroke="none" transform="scale(1,-1) translate(0,-256)" /></svg>