<?xml version="1.0" encoding="utf-8" ?>
<svg baseProfile="full" height="256" version="1.1" width="256" xmlns="http://www.w3.org/2000/svg" xmlns:ev="http://www.w3.org/2001/xml-events" xmlns:xlink="http://www.w3.org/1999/xlink"><defs /><path d="M673 247Q687 258 700.0 278.5Q713 299 724.5 321.0Q736 343 745.5 358.0Q755 373 762 373Q771 372 769.5 355.0Q768 338 762.5 317.5Q757 297 755 289Q753 280 745.0 260.0Q737 240 725.0 219.5Q713 199 699 190Q684 181 658.5 175.5Q633 170 607.5 167.5Q582 165 567 165Q554 166 537.5 166.5Q521 167 528 169Q534 171 554.0 178.0Q574 185 586 191Q603 200 626.5 214.0Q650 228 673 247Z" fill="#cd935f" stroke="none" transform="scale(1,-1) translate(0,-256)" /></svg>