<?xml version="1.0" encoding="utf-8" ?>
<svg baseProfile="full" height="256" version="1.1" width="256" xmlns="http://www.w3.org/2000/svg" xmlns:ev="http://www.w3.org/2001/xml-events" xmlns:xlink="http://www.w3.org/1999/xlink"><defs /><path d="M339 489 381 535 578 210Q578 210 563.0 205.5Q548 201 526.5 194.5Q505 188 485.0 183.0Q465 178 456 178Q447 177 430.0 177.5Q413 178 395.0 178.5Q377 179 364.5 179.5Q352 180 352 180Q352 180 336.0 166.0Q320 152 294.5 135.0Q269 118 239 110Q197 98 170.5 118.0Q144 138 129 173Q115 207 122.5 240.5Q130 274 148 296Q160 311 177.0 321.5Q194 332 207.0 337.5Q220 343 220 343Q220 343 228.0 355.5Q236 368 246.5 382.5Q257 397 262 403Q266 407 278.0 421.0Q290 435 304.0 450.5Q318 466 328.5 477.5Q339 489 339 489Z" fill="#000000" stroke="none" transform="scale(1,-1) translate(0,-256)" /></svg>