<?xml version="1.0" encoding="utf-8" ?>
<svg baseProfile="full" height="256" version="1.1" width="256" xmlns="http://www.w3.org/2000/svg" xmlns:ev="http://www.w3.org/2001/xml-events" xmlns:xlink="http://www.w3.org/1999/xlink"><defs /><path d="M248 401 655 418 1202 330Q1202 330 1202.0 301.5Q1202 273 1202.0 226.5Q1202 180 1202.0 123.5Q1202 67 1202.0 11.0Q1202 -45 1202.0 -92.5Q1202 -140 1202.0 -170.0Q1202 -200 1202 -201Q1202 -214 1189 -214Q1187 -214 1149.0 -214.5Q1111 -215 1046.5 -215.0Q982 -215 900.0 -215.0Q818 -215 727.0 -215.0Q636 -215 545.0 -215.0Q454 -215 372.0 -215.0Q290 -215 225.5 -215.0Q161 -215 123.5 -215.0Q86 -215 84 -214Q73 -214 74 -200Q75 -198 74.5 -168.5Q74 -139 74.0 -91.5Q74 -44 73.5 13.0Q73 70 73.0 126.0Q73 182 72.5 229.0Q72 276 72.0 304.5Q72 333 72 333Z" fill="#f7b03c" stroke="none" transform="scale(1,-1) translate(0,-256)" /></svg>