<?xml version="1.0" encoding="utf-8" ?>
<svg baseProfile="full" height="256" version="1.1" width="256" xmlns="http://www.w3.org/2000/svg" xmlns:ev="http://www.w3.org/2001/xml-events" xmlns:xlink="http://www.w3.org/1999/xlink"><defs /><path d="M135 177Q137 177 154.0 176.5Q171 176 195.5 176.0Q220 176 244.0 176.5Q268 177 285.0 177.0Q302 177 304 177Q312 177 316 163Q317 158 321.0 144.0Q325 130 329.0 115.0Q333 100 335 95Q338 80 334.5 76.5Q331 73 325 73Q322 73 302.0 73.0Q282 73 254.0 73.0Q226 73 197.5 73.5Q169 74 147.5 74.0Q126 74 121 74Q109 73 104.5 74.5Q100 76 101 84Q101 89 106.0 107.0Q111 125 115.5 142.0Q120 159 121 163Q123 168 126.0 172.5Q129 177 135 177Z" fill="#024fac" stroke="none" transform="scale(1,-1) translate(0,-256)" /><path d="M983 178Q986 178 1009.0 178.0Q1032 178 1061.0 178.5Q1090 179 1113.0 179.0Q1136 179 1138 179Q1146 179 1151 165Q1152 161 1157.0 148.0Q1162 135 1167.0 122.0Q1172 109 1174 103Q1182 77 1168 77Q1165 77 1146.0 76.5Q1127 76 1099.5 76.5Q1072 77 1044.5 77.0Q1017 77 996.0 77.0Q975 77 969 77Q957 77 951.5 79.0Q946 81 947 88Q947 94 952.5 111.0Q958 128 963.0 144.5Q968 161 969 165Q971 170 974.0 174.5Q977 179 983 178Z" fill="#024fac" stroke="none" transform="scale(1,-1) translate(0,-256)" /></svg>