<?xml version="1.0" encoding="utf-8" ?>
<svg baseProfile="full" height="256" version="1.1" width="256" xmlns="http://www.w3.org/2000/svg" xmlns:ev="http://www.w3.org/2001/xml-events" xmlns:xlink="http://www.w3.org/1999/xlink"><defs /><path d="M682 -26Q682 -26 694.0 -26.0Q706 -26 718.0 -26.5Q730 -27 731 -27Q731 -27 733.5 -31.5Q736 -36 736 -45Q736 -50 734.5 -55.5Q733 -61 732 -61Q731 -61 718.5 -61.0Q706 -61 693.5 -61.0Q681 -61 681 -61Q680 -61 678.5 -55.5Q677 -50 678 -44Q678 -37 679.0 -31.5Q680 -26 682 -26Z" fill="#e0a614" stroke="none" transform="scale(1,-1) translate(0,-256)" /></svg>