<?xml version="1.0" encoding="utf-8" ?>
<svg baseProfile="full" height="256" version="1.1" width="256" xmlns="http://www.w3.org/2000/svg" xmlns:ev="http://www.w3.org/2001/xml-events" xmlns:xlink="http://www.w3.org/1999/xlink"><defs /><path d="M1044 353Q1043 378 1026.0 395.0Q1009 412 985 411Q961 410 944.5 392.0Q928 374 929 350Q930 325 947.0 308.0Q964 291 988 291Q1012 292 1028.5 310.0Q1045 328 1044 353Z" fill="#874d36" stroke="none" transform="scale(1,-1) translate(0,-256)" /><path d="M1133 422Q1132 447 1114.5 463.5Q1097 480 1074 478Q1050 477 1034.0 459.0Q1018 441 1020 416Q1021 392 1038.5 375.5Q1056 359 1080 360Q1103 361 1119.0 379.0Q1135 397 1133 422Z" fill="#874d36" stroke="none" transform="scale(1,-1) translate(0,-256)" /><path d="M1198.7208709716797 622.8495941162109Q1201.0244598388672 646.5903778076172 1184.43896484375 664.2298583984375Q1167.8534698486328 681.8693389892578 1143.0974884033203 680.3853302001953Q1120.742904663086 680.2875213623047 1104.3041229248047 664.3951263427734Q1087.8653411865234 648.5027313232422 1086.9479522705078 622.3605499267578Q1087.0457611083984 600.0059661865234 1103.6312561035156 582.3664855957031Q1120.2167510986328 564.7270050048828 1142.5713348388672 564.8248138427734Q1167.3273162841797 566.3088226318359 1183.766098022461 582.2012176513672Q1200.2048797607422 598.0936126708984 1198.7208709716797 622.8495941162109Z" fill="#874d36" stroke="none" transform="scale(1,-1) translate(0,-256)" /><path d="M1150.0782928466797 724.4891967773438Q1152.363265991211 748.0751953125 1135.8834991455078 765.596923828125Q1119.4037322998047 783.11865234375 1094.8097381591797 781.640625Q1072.6012420654297 781.5401000976562 1056.2722625732422 765.7490844726562Q1039.9432830810547 749.9580688476562 1039.0358123779297 723.986572265625Q1039.1363372802734 701.778076171875 1055.6161041259766 684.25634765625Q1072.0958709716797 666.734619140625 1094.3043670654297 666.8351440429688Q1118.8983612060547 668.3131713867188 1135.2273406982422 684.1041870117188Q1151.5563201904297 699.8952026367188 1150.0782928466797 724.4891967773438Z" fill="#874d36" stroke="none" transform="scale(1,-1) translate(0,-256)" /><path d="M1061.8747863769531 794.6497497558594Q1064.1477355957031 818.1227111816406 1047.7462310791016 835.5596466064453Q1031.3447265625 852.99658203125 1006.8687744140625 851.5245361328125Q984.7668151855469 851.4234924316406 968.5168762207031 835.7074890136719Q952.2669372558594 819.9914855957031 951.364990234375 794.14453125Q951.4660339355469 772.0425720214844 967.8675384521484 754.6056365966797Q984.26904296875 737.168701171875 1006.3710021972656 737.2697448730469Q1030.8469543457031 738.7417907714844 1047.0968933105469 754.4577941894531Q1063.3468322753906 770.1737976074219 1061.8747863769531 794.6497497558594Z" fill="#874d36" stroke="none" transform="scale(1,-1) translate(0,-256)" /><path d="M959.6918487548828 833.989013671875Q961.9495544433594 857.3428497314453 945.6288070678711 874.6884613037109Q929.3080596923828 892.0340728759766 904.9569244384766 890.5656890869141Q882.9674835205078 890.4617004394531 866.8027191162109 874.8231506347656Q850.6379547119141 859.1846008300781 849.7446441650391 833.4690704345703Q849.8486328125 811.4796295166016 866.1693801879883 794.1340179443359Q882.4901275634766 776.7884063720703 904.4795684814453 776.8923950195312Q928.8307037353516 778.3607788085938 944.9954681396484 793.9993286132812Q961.1602325439453 809.6378784179688 959.6918487548828 833.989013671875Z" fill="#874d36" stroke="none" transform="scale(1,-1) translate(0,-256)" /><path d="M850.6239929199219 848.5644378662109Q852.8740081787109 871.8424682617188 836.6059951782227 889.1315002441406Q820.3379821777344 906.4205322265625 796.0659484863281 904.95654296875Q774.1479187011719 904.8525543212891 758.035888671875 889.2645416259766Q741.9238586425781 873.6765289306641 741.0338439941406 848.0444946289062Q741.1378326416016 826.12646484375 757.4058456420898 808.8374328613281Q773.6738586425781 791.5484008789062 795.5918884277344 791.6523895263672Q819.8639221191406 793.1163787841797 835.9759521484375 808.7043914794922Q852.0879821777344 824.2924041748047 850.6239929199219 848.5644378662109Z" fill="#874d36" stroke="none" transform="scale(1,-1) translate(0,-256)" /><path d="M742.1030578613281 849.4513397216797Q741.7737121582031 873.3311614990234 725.9773254394531 889.9773406982422Q710.1809387207031 906.6235198974609 687.2553100585938 906.2691802978516Q664.3296813964844 905.9148406982422 648.1356048583984 889.1517639160156Q631.9415283203125 872.3886871337891 632.2958679199219 849.4630584716797Q632.6252136230469 825.5832366943359 648.4216003417969 808.9370574951172Q664.2179870605469 792.2908782958984 687.1186218261719 791.6910247802734Q710.0442504882812 792.0453643798828 726.2383270263672 808.8084411621094Q742.4324035644531 825.5715179443359 742.1030578613281 849.4513397216797Z" fill="#874d36" stroke="none" transform="scale(1,-1) translate(0,-256)" /><path d="M636.1667022705078 835.7845458984375Q635.8366546630859 859.6246032714844 620.0656890869141 876.2422485351562Q604.2947235107422 892.8598937988281 581.4072723388672 892.5049438476562Q558.5198211669922 892.1499938964844 542.3535766601562 875.4139709472656Q526.1873321533203 858.6779479980469 526.5422821044922 835.7904968261719Q526.8723297119141 811.950439453125 542.6432952880859 795.3327941894531Q558.4142608642578 778.7151489257812 581.2768096923828 778.1174926757812Q604.1642608642578 778.4724426269531 620.3305053710938 795.2084655761719Q636.4967498779297 811.9444885253906 636.1667022705078 835.7845458984375Z" fill="#874d36" stroke="none" transform="scale(1,-1) translate(0,-256)" /><path d="M532.1979064941406 814.4095458984375Q531.8678588867188 838.2496032714844 516.0968933105469 854.8672485351562Q500.325927734375 871.4848937988281 477.4384765625 871.1299438476562Q454.551025390625 870.7749938964844 438.38478088378906 854.0389709472656Q422.2185363769531 837.3029479980469 422.573486328125 814.4154968261719Q422.9035339355469 790.575439453125 438.67449951171875 773.9577941894531Q454.4454650878906 757.3401489257812 477.3080139160156 756.7424926757812Q500.1954650878906 757.0974426269531 516.3617095947266 773.8334655761719Q532.5279541015625 790.5694885253906 532.1979064941406 814.4095458984375Z" fill="#874d36" stroke="none" transform="scale(1,-1) translate(0,-256)" /><path d="M433.4792022705078 769.5970458984375Q433.14915466308594 793.4371032714844 417.37818908691406 810.0547485351562Q401.6072235107422 826.6723937988281 378.7197723388672 826.3174438476562Q355.8323211669922 825.9624938964844 339.66607666015625 809.2264709472656Q323.4998321533203 792.4904479980469 323.8547821044922 769.6029968261719Q324.18482971191406 745.762939453125 339.95579528808594 729.1452941894531Q355.7267608642578 712.5276489257812 378.5893096923828 711.9299926757812Q401.4767608642578 712.2849426269531 417.64300537109375 729.0209655761719Q433.8092498779297 745.7569885253906 433.4792022705078 769.5970458984375Z" fill="#874d36" stroke="none" transform="scale(1,-1) translate(0,-256)" /><path d="M345.3526611328125 702.5452423095703Q345.0233154296875 726.4250640869141 329.2269287109375 743.0712432861328Q313.4305419921875 759.7174224853516 290.5049133300781 759.3630828857422Q267.57928466796875 759.0087432861328 251.3852081298828 742.2456665039062Q235.19113159179688 725.4825897216797 235.54547119140625 702.5569610595703Q235.87481689453125 678.6771392822266 251.67120361328125 662.0309600830078Q267.46759033203125 645.3847808837891 290.36822509765625 644.7849273681641Q313.2938537597656 645.1392669677734 329.48793029785156 661.90234375Q345.6820068359375 678.6654205322266 345.3526611328125 702.5452423095703Z" fill="#874d36" stroke="none" transform="scale(1,-1) translate(0,-256)" /><path d="M270.5215759277344 631.5841979980469Q266.04859924316406 654.5372161865234 245.53160095214844 666.4757461547852Q225.0146026611328 678.4142761230469 202.1665802001953 670.0982971191406Q181.18756103515625 663.7563171386719 170.18353271484375 644.226318359375Q159.17950439453125 624.6963195800781 165.62648010253906 599.8742980957031Q171.9684600830078 578.8952789306641 192.48545837402344 566.9567489624023Q213.00245666503906 555.0182189941406 233.98147583007812 561.3601989746094Q256.8294982910156 569.6761779785156 267.8335266113281 589.2061767578125Q278.8375549316406 608.7361755371094 270.5215759277344 631.5841979980469Z" fill="#874d36" stroke="none" transform="scale(1,-1) translate(0,-256)" /><path d="M219.03103637695312 531.9896850585938Q214.72412109375 555.0523376464844 194.2344970703125 567.1909942626953Q173.744873046875 579.3296508789062 150.75732421875 571.1664428710938Q129.66036987304688 564.9689331054688 118.46701049804688 545.462158203125Q107.27365112304688 525.9553833007812 113.5462646484375 501.00213623046875Q119.7437744140625 479.9051818847656 140.2333984375 467.7665252685547Q160.7230224609375 455.62786865234375 181.81997680664062 461.82537841796875Q204.80752563476562 469.98858642578125 216.00088500976562 489.495361328125Q227.19424438476562 509.00213623046875 219.03103637695312 531.9896850585938Z" fill="#874d36" stroke="none" transform="scale(1,-1) translate(0,-256)" /><path d="M189.98519897460938 418.129638671875Q188.15753173828125 441.63824462890625 168.98583221435547 455.96814727783203Q149.8141326904297 470.2980499267578 125.96653747558594 464.60877990722656Q104.21923828125 460.6808166503906 90.93948364257812 442.3897705078125Q77.65972900390625 424.0987243652344 81.24870300292969 398.4898223876953Q85.17666625976562 376.7425231933594 104.3483657836914 362.4126205444336Q123.52006530761719 348.0827178955078 145.26736450195312 352.01068115234375Q169.11495971679688 357.699951171875 182.39471435546875 375.9909973144531Q195.67446899414062 394.28204345703125 189.98519897460938 418.129638671875Z" fill="#874d36" stroke="none" transform="scale(1,-1) translate(0,-256)" /><path d="M185.2969970703125 292.48919677734375Q187.58197021484375 316.0751953125 171.10220336914062 333.596923828125Q154.6224365234375 351.11865234375 130.0284423828125 349.640625Q107.8199462890625 349.54010009765625 91.490966796875 333.74908447265625Q75.1619873046875 317.95806884765625 74.2545166015625 291.986572265625Q74.35504150390625 269.778076171875 90.83480834960938 252.25634765625Q107.3145751953125 234.734619140625 129.5230712890625 234.83514404296875Q154.1170654296875 236.31317138671875 170.446044921875 252.10418701171875Q186.7750244140625 267.89520263671875 185.2969970703125 292.48919677734375Z" fill="#874d36" stroke="none" transform="scale(1,-1) translate(0,-256)" /><path d="M208.53347778320312 181.1931915283203Q210.83706665039062 204.93397521972656 194.25157165527344 222.57345581054688Q177.66607666015625 240.2129364013672 152.91009521484375 238.7289276123047Q130.55551147460938 238.63111877441406 114.11672973632812 222.7387237548828Q97.67794799804688 206.84632873535156 96.76055908203125 180.7041473388672Q96.85836791992188 158.3495635986328 113.44386291503906 140.7100830078125Q130.02935791015625 123.07060241699219 152.38394165039062 123.16841125488281Q177.13992309570312 124.65242004394531 193.57870483398438 140.54481506347656Q210.01748657226562 156.4372100830078 208.53347778320312 181.1931915283203Z" fill="#874d36" stroke="none" transform="scale(1,-1) translate(0,-256)" /><path d="M264.44244384765625 89.8486328125Q266.762451171875 113.74270629882812 250.0708999633789 131.49726104736328Q233.3793487548828 149.25181579589844 208.46327209472656 147.7598114013672Q185.96420288085938 147.66281127929688 169.41815185546875 131.66876220703125Q152.87210083007812 115.67471313476562 151.9470977783203 89.36363220214844Q152.04409790039062 66.86456298828125 168.73564910888672 49.110008239746094Q185.4272003173828 31.355453491210938 207.92626953125 31.45245361328125Q232.84234619140625 32.9444580078125 249.38839721679688 48.938507080078125Q265.9344482421875 64.93255615234375 264.44244384765625 89.8486328125Z" fill="#874d36" stroke="none" transform="scale(1,-1) translate(0,-256)" /><path d="M359.67823791503906 23.67193603515625Q359.3332061767578 48.450164794921875 342.94020080566406 65.720458984375Q326.5471954345703 82.99075317382812 302.7590637207031 82.61991882324219Q278.97093200683594 82.24908447265625 262.16988372802734 64.85308074951172Q245.36883544921875 47.45707702636719 245.7396697998047 23.6689453125Q246.08470153808594 -1.109283447265625 262.4777069091797 -18.37957763671875Q278.87071228027344 -35.649871826171875 302.63304138183594 -36.269134521484375Q326.4211730957031 -35.89830017089844 343.2222213745117 -18.502296447753906Q360.0232696533203 -1.106292724609375 359.67823791503906 23.67193603515625Z" fill="#874d36" stroke="none" transform="scale(1,-1) translate(0,-256)" /><path d="M466.51637268066406 2.247955322265625Q466.17433166503906 27.266632080078125 449.62672424316406 44.708648681640625Q433.07911682128906 62.150665283203125 409.0601348876953 61.782318115234375Q385.04115295410156 61.413970947265625 368.0726776123047 43.853515625Q351.1042022705078 26.293060302734375 351.47254943847656 2.274078369140625Q351.81459045410156 -22.744598388671875 368.36219787597656 -40.186614990234375Q384.90980529785156 -57.628631591796875 408.90248107910156 -58.259979248046875Q432.9214630126953 -57.891632080078125 449.8899383544922 -40.3311767578125Q466.85841369628906 -22.770721435546875 466.51637268066406 2.247955322265625Z" fill="#874d36" stroke="none" transform="scale(1,-1) translate(0,-256)" /><path d="M572.9595489501953 22.510650634765625Q575.3385314941406 47.04960632324219 558.1940536499023 65.28056335449219Q541.0495758056641 83.51152038574219 515.4616241455078 81.97550964355469Q492.3556671142578 81.87249755859375 475.36570739746094 65.44451904296875Q458.37574768066406 49.01654052734375 457.4297637939453 21.995590209960938Q457.53277587890625 -1.1103668212890625 474.67725372314453 -19.341323852539062Q491.8217315673828 -37.57228088378906 514.9276885986328 -37.469268798828125Q540.5156402587891 -35.933258056640625 557.5055999755859 -19.505279541015625Q574.4955596923828 -3.077301025390625 572.9595489501953 22.510650634765625Z" fill="#874d36" stroke="none" transform="scale(1,-1) translate(0,-256)" /><path d="M685.6608734130859 52.184814453125Q688.0702819824219 76.99287414550781 670.7406921386719 95.42707061767578Q653.4111022949219 113.86126708984375 627.5418395996094 112.3128662109375Q604.1820831298828 112.2127685546875 587.0026397705078 95.60733032226562Q569.8231964111328 79.00189208984375 568.8620910644531 51.684326171875Q568.9621887207031 28.324569702148438 586.2917785644531 9.890373229980469Q603.6213684082031 -8.5438232421875 626.9811248779297 -8.4437255859375Q652.8503875732422 -6.89532470703125 670.0298309326172 9.710113525390625Q687.2092742919922 26.3155517578125 685.6608734130859 52.184814453125Z" fill="#874d36" stroke="none" transform="scale(1,-1) translate(0,-256)" /><path d="M798.4595642089844 54.707244873046875Q798.1012878417969 80.50433349609375 781.0348815917969 98.48538208007812Q763.9684753417969 116.4664306640625 739.2021942138672 116.08125305175781Q714.4359130859375 115.69607543945312 696.9433670043945 97.58541107177734Q679.4508209228516 79.47474670410156 679.8359985351562 54.708465576171875Q680.1942749023438 28.911376953125 697.2606811523438 10.930328369140625Q714.3270874023438 -7.05072021484375 739.0664672851562 -7.69635009765625Q763.8327484130859 -7.3111724853515625 781.3252944946289 10.799491882324219Q798.8178405761719 28.91015625 798.4595642089844 54.707244873046875Z" fill="#874d36" stroke="none" transform="scale(1,-1) translate(0,-256)" /><path d="M911.0353851318359 176.9658203125Q913.4447937011719 201.7738800048828 896.1152038574219 220.20807647705078Q878.7856140136719 238.64227294921875 852.9163513183594 237.0938720703125Q829.5565948486328 236.9937744140625 812.3771514892578 220.38833618164062Q795.1977081298828 203.78289794921875 794.2366027832031 176.46533203125Q794.3367004394531 153.10557556152344 811.6662902832031 134.67137908935547Q828.9958801269531 116.2371826171875 852.3556365966797 116.3372802734375Q878.2248992919922 117.88568115234375 895.4043426513672 134.49111938476562Q912.5837860107422 151.0965576171875 911.0353851318359 176.9658203125Z" fill="#874d36" stroke="none" transform="scale(1,-1) translate(0,-256)" /><path d="M1197.3484497070312 511.06663513183594Q1199.66845703125 534.9607086181641 1182.976905822754 552.7152633666992Q1166.2853546142578 570.4698181152344 1141.3692779541016 568.9778137207031Q1118.8702087402344 568.8808135986328 1102.3241577148438 552.8867645263672Q1085.7781066894531 536.8927154541016 1084.8531036376953 510.5816345214844Q1084.9501037597656 488.0825653076172 1101.6416549682617 470.32801055908203Q1118.3332061767578 452.5734558105469 1140.832275390625 452.6704559326172Q1165.7483520507812 454.16246032714844 1182.2944030761719 470.15650939941406Q1198.8404541015625 486.1505584716797 1197.3484497070312 511.06663513183594Z" fill="#874d36" stroke="none" transform="scale(1,-1) translate(0,-256)" /><path d="M909.1789703369141 62.76934814453125Q908.8206939697266 88.56643676757812 891.7542877197266 106.5474853515625Q874.6878814697266 124.52853393554688 849.9216003417969 124.14335632324219Q825.1553192138672 123.7581787109375 807.6627731323242 105.64751434326172Q790.1702270507812 87.53684997558594 790.5554046630859 62.77056884765625Q790.9136810302734 36.973480224609375 807.9800872802734 18.992431640625Q825.0464935302734 1.011383056640625 849.7858734130859 0.365753173828125Q874.5521545410156 0.7509307861328125 892.0447006225586 18.861595153808594Q909.5372467041016 36.972259521484375 909.1789703369141 62.76934814453125Z" fill="#874d36" stroke="none" transform="scale(1,-1) translate(0,-256)" /><path d="M811 32Q811 32 817.5 23.5Q824 15 838.0 11.5Q852 8 873 20Q895 33 898.5 47.0Q902 61 898.0 70.5Q894 80 894 80Q895 76 895.0 70.5Q895 65 889 62Q882 59 877.0 58.5Q872 58 863 53Q849 44 845.5 36.5Q842 29 833 26Q829 24 821.5 26.0Q814 28 811 32Z" fill="#874d36" stroke="none" transform="scale(1,-1) translate(0,-256)" /><path d="M962.3965454101562 276.85365295410156Q964.7755279541016 301.3926086425781 947.6310501098633 319.6235656738281Q930.486572265625 337.8545227050781 904.8986206054688 336.3185119628906Q881.7926635742188 336.2154998779297 864.8027038574219 319.7875213623047Q847.812744140625 303.3595428466797 846.8667602539062 276.3385925292969Q846.9697723388672 253.23263549804688 864.1142501831055 235.00167846679688Q881.2587280273438 216.77072143554688 904.3646850585938 216.8737335205078Q929.95263671875 218.4097442626953 946.9425964355469 234.8377227783203Q963.9325561523438 251.2657012939453 962.3965454101562 276.85365295410156Z" fill="#874d36" stroke="none" transform="scale(1,-1) translate(0,-256)" /></svg>