<?xml version="1.0" encoding="utf-8" ?>
<svg baseProfile="full" height="256" version="1.1" width="256" xmlns="http://www.w3.org/2000/svg" xmlns:ev="http://www.w3.org/2001/xml-events" xmlns:xlink="http://www.w3.org/1999/xlink"><defs /><path d="M1131 -57Q1148 -47 1163.0 -66.5Q1178 -86 1173 -132Q1172 -139 1166.5 -158.5Q1161 -178 1146.0 -193.5Q1131 -209 1101 -206Q1088 -205 1085.0 -191.0Q1082 -177 1086 -166Q1091 -152 1098.5 -147.0Q1106 -142 1112.5 -136.5Q1119 -131 1120 -115Q1120 -111 1120.0 -98.5Q1120 -86 1122.0 -73.5Q1124 -61 1131 -57Z" fill="#e2a610" stroke="none" transform="scale(1,-1) translate(0,-256)" /><path d="M1121 -122Q1135 -122 1146 -121L1144 -102Q1090 -107 1036.5 -89.0Q983 -71 944 -36Q940 -33 936.5 -37.5Q933 -42 947 -56Q980 -90 1026.5 -106.0Q1073 -122 1121 -122Z" fill="#e2a610" stroke="none" transform="scale(1,-1) translate(0,-256)" /><path d="M1122 -178 1124 -162Q1086 -156 1044.0 -140.5Q1002 -125 972 -101Q972 -101 976.0 -107.0Q980 -113 993 -124Q1013 -141 1050.0 -156.5Q1087 -172 1122 -178Z" fill="#e2a610" stroke="none" transform="scale(1,-1) translate(0,-256)" /><path d="M898 -53Q898 -53 885.5 -47.0Q873 -41 863 -31Q863 -31 880.5 -29.5Q898 -28 910 -19Q930 -5 932.5 7.0Q935 19 935 19Q940 9 941.5 -0.5Q943 -10 945 -14Q945 -14 938.5 -16.0Q932 -18 918 -29Q907 -38 902.5 -45.5Q898 -53 898 -53Z" fill="#e2a610" stroke="none" transform="scale(1,-1) translate(0,-256)" /></svg>