<?xml version="1.0" encoding="utf-8" ?>
<svg baseProfile="full" height="256" version="1.1" width="256" xmlns="http://www.w3.org/2000/svg" xmlns:ev="http://www.w3.org/2001/xml-events" xmlns:xlink="http://www.w3.org/1999/xlink"><defs /><path d="M564 891Q579 892 594 890Q581 882 565.0 871.0Q549 860 532 845Q499 848 496 859Q494 869 513.5 879.0Q533 889 564 891Z" fill="#1b2e35" stroke="none" transform="scale(1,-1) translate(0,-256)" /><path d="M284 -12Q291 -19 307.5 -34.5Q324 -50 333 -58Q341 -65 336.0 -70.5Q331 -76 324 -75Q301 -71 286.0 -57.5Q271 -44 265.0 -29.0Q259 -14 265 -7Q266 -5 271.5 -5.0Q277 -5 284 -12Z" fill="#1b2e35" stroke="none" transform="scale(1,-1) translate(0,-256)" /><path d="M432 -123Q432 -121 437.0 -119.0Q442 -117 451 -121Q460 -125 481.5 -133.5Q503 -142 513 -146Q524 -150 521.0 -157.0Q518 -164 511 -166Q488 -170 469.5 -162.5Q451 -155 440.0 -143.5Q429 -132 432 -123Z" fill="#1b2e35" stroke="none" transform="scale(1,-1) translate(0,-256)" /><path d="M378 -52Q381 -43 394.0 -44.5Q407 -46 424.5 -53.5Q442 -61 457 -69Q476 -93 495 -112Q490 -115 482 -115Q450 -116 421 -100Q414 -96 403.0 -88.5Q392 -81 384.0 -71.0Q376 -61 378 -52Z" fill="#1b2e35" stroke="none" transform="scale(1,-1) translate(0,-256)" /><path d="M348 743Q365 753 376.5 753.5Q388 754 398.0 753.0Q408 752 419 756Q431 761 445.0 774.0Q459 787 481 797Q442 754 406.0 692.0Q370 630 347.0 545.0Q324 460 324 350Q324 312 327.0 277.5Q330 243 335 212Q332 209 328.0 206.5Q324 204 321 202Q292 184 263.0 183.5Q234 183 205 219Q192 236 185.5 259.5Q179 283 186 313Q188 321 195.0 334.5Q202 348 206.5 360.5Q211 373 206 380Q202 384 197.0 386.0Q192 388 187 390Q152 399 136.0 429.0Q120 459 120 494Q120 512 130.0 543.0Q140 574 155.0 608.0Q170 642 186.0 670.0Q202 698 216 712Q228 725 243.5 729.0Q259 733 265 739Q271 746 281.5 764.5Q292 783 311 794Q328 803 348.0 809.0Q368 815 384 827Q398 838 413.5 837.5Q429 837 439 836Q450 835 435.0 822.5Q420 810 398 806Q387 804 376.0 801.0Q365 798 356 791Q347 784 341.5 774.0Q336 764 328 757Q316 747 300.5 741.5Q285 736 277 723Q272 715 271.5 705.5Q271 696 269 687Q266 679 262.0 673.5Q258 668 253 662Q245 650 247.5 641.5Q250 633 267 634Q281 635 296.5 643.5Q312 652 315 670Q317 682 315.5 693.5Q314 705 319.5 717.0Q325 729 348 743ZM281 492Q283 496 285.5 502.5Q288 509 288 515Q289 528 279 532Q270 536 259.5 531.0Q249 526 246 517Q239 501 250 487Q257 477 267 479Q272 479 275.5 483.0Q279 487 281 492Z" fill="#1b2e35" stroke="none" transform="scale(1,-1) translate(0,-256)" /></svg>