<?xml version="1.0" encoding="utf-8" ?>
<svg baseProfile="full" height="256" version="1.1" width="256" xmlns="http://www.w3.org/2000/svg" xmlns:ev="http://www.w3.org/2001/xml-events" xmlns:xlink="http://www.w3.org/1999/xlink"><defs /><path d="M765 341Q765 341 747.5 346.5Q730 352 702.5 359.5Q675 367 644.0 370.5Q613 374 586 370Q576 368 546.0 358.5Q516 349 478.0 335.5Q440 322 404.0 309.0Q368 296 344.5 287.5Q321 279 321 279L301 236L335 223Q335 223 357.0 228.0Q379 233 412.5 241.0Q446 249 480.5 257.5Q515 266 540.5 272.0Q566 278 573 279Q581 280 600.5 284.0Q620 288 644.5 292.5Q669 297 691.0 301.0Q713 305 725 307Q735 309 751.5 312.5Q768 316 768 319Q768 323 766.5 332.0Q765 341 765 341Z" fill="#172b86" stroke="none" transform="scale(1,-1) translate(0,-256)" /></svg>