<?xml version="1.0" encoding="utf-8" ?>
<svg baseProfile="full" height="256" version="1.1" width="256" xmlns="http://www.w3.org/2000/svg" xmlns:ev="http://www.w3.org/2001/xml-events" xmlns:xlink="http://www.w3.org/1999/xlink"><defs /><path d="M1035 210 637 130Q637 130 635.0 116.5Q633 103 631.5 85.0Q630 67 632.0 53.0Q634 39 641 38Q649 36 675.5 41.0Q702 46 740.0 55.5Q778 65 819.0 76.0Q860 87 896 98Q968 120 1002.0 135.0Q1036 150 1038 153Q1039 156 1039.0 164.0Q1039 172 1039 181Q1038 190 1036.5 200.0Q1035 210 1035 210Z" fill="#172789" stroke="none" transform="scale(1,-1) translate(0,-256)" /></svg>