<?xml version="1.0" encoding="utf-8" ?>
<svg baseProfile="full" height="256" version="1.1" width="256" xmlns="http://www.w3.org/2000/svg" xmlns:ev="http://www.w3.org/2001/xml-events" xmlns:xlink="http://www.w3.org/1999/xlink"><defs /><path d="M411 689Q408 693 409.5 721.5Q411 750 402 802Q395 840 381.5 863.0Q368 886 358.0 896.5Q348 907 349 909Q350 910 375.5 911.0Q401 912 438.0 912.5Q475 913 512.0 913.0Q549 913 574.0 913.5Q599 914 599 914Q599 914 610.5 901.0Q622 888 636.0 863.0Q650 838 656 800Q662 763 657.0 738.5Q652 714 648 712Q647 711 623.0 708.0Q599 705 564.5 701.5Q530 698 495.0 694.5Q460 691 436.5 689.5Q413 688 411 689Z" fill="#e0e0e0" stroke="none" transform="scale(1,-1) translate(0,-256)" /></svg>