<?xml version="1.0" encoding="utf-8" ?>
<svg baseProfile="full" height="256" version="1.1" width="256" xmlns="http://www.w3.org/2000/svg" xmlns:ev="http://www.w3.org/2001/xml-events" xmlns:xlink="http://www.w3.org/1999/xlink"><defs /><path d="M635 102 577 162 320 225 450 275 759 319Q759 319 773.0 319.5Q787 320 809.0 320.0Q831 320 853.5 319.0Q876 318 891 316Q915 313 942.5 307.0Q970 301 991.5 293.5Q1013 286 1017 278Q1022 269 1026.5 249.5Q1031 230 1034.0 213.0Q1037 196 1037 196Q1037 196 1024.5 189.0Q1012 182 988 174Q975 170 942.5 160.5Q910 151 870.5 140.5Q831 130 795.5 122.0Q760 114 742 111Q718 108 693.5 106.0Q669 104 652.0 103.0Q635 102 635 102Z" fill="#024fac" stroke="none" transform="scale(1,-1) translate(0,-256)" /><path d="M539 315 275 325Q275 325 274.5 345.0Q274 365 273.0 396.0Q272 427 271.0 462.5Q270 498 269.5 530.0Q269 562 268.5 582.5Q268 603 268 605Q268 606 288.5 611.5Q309 617 340.5 624.0Q372 631 407.5 638.5Q443 646 474.5 652.5Q506 659 526.0 663.0Q546 667 546 667L688 617Q688 617 691.5 598.0Q695 579 698 561Q705 527 721.5 497.5Q738 468 747 435Q753 413 757.0 391.0Q761 369 763.0 354.5Q765 340 765 340Q765 340 745.0 338.0Q725 336 698.0 333.0Q671 330 651 328Q626 325 600.0 322.0Q574 319 556.5 317.0Q539 315 539 315Z" fill="#024fac" stroke="none" transform="scale(1,-1) translate(0,-256)" /><path d="M297 675 273 852 350 899Q350 899 361.5 891.0Q373 883 373 881Q373 879 378.0 852.0Q383 825 386 796Q388 788 388.5 770.5Q389 753 389.0 734.0Q389 715 388.5 701.5Q388 688 387 687Q386 686 372.0 684.0Q358 682 340.5 680.0Q323 678 310.0 676.5Q297 675 297 675Z" fill="#024fac" stroke="none" transform="scale(1,-1) translate(0,-256)" /><path d="M655 768 590 888 679 889Q679 889 692.5 870.0Q706 851 716 810Q726 769 722.5 740.0Q719 711 719 711Q719 711 705.5 709.5Q692 708 678.0 706.5Q664 705 662 705Q660 705 660.0 710.0Q660 715 660 718Q660 724 659.0 736.5Q658 749 656.5 758.5Q655 768 655 768Z" fill="#024fac" stroke="none" transform="scale(1,-1) translate(0,-256)" /></svg>