<?xml version="1.0" encoding="utf-8" ?>
<svg baseProfile="full" height="256" version="1.1" width="256" xmlns="http://www.w3.org/2000/svg" xmlns:ev="http://www.w3.org/2001/xml-events" xmlns:xlink="http://www.w3.org/1999/xlink"><defs /><path d="M148 -194Q148 -173 133.5 -158.5Q119 -144 98 -143Q118 -105 156.5 -50.5Q195 4 254 75L367 -37Q295 -97 240.5 -135.5Q186 -174 148 -194Z" fill="#bdbdbd" stroke="none" transform="scale(1,-1) translate(0,-256)" /><path d="M1049 877Q1070 859 1073.5 855.5Q1077 852 1077 850V848L1044 811Q1044 811 1036.0 817.5Q1028 824 1018.0 832.5Q1008 841 999.5 848.0Q991 855 990 856Q979 864 970.0 859.5Q961 855 958 851Q949 842 926.0 819.5Q903 797 873.5 769.0Q844 741 816.0 714.5Q788 688 769.0 670.5Q750 653 750 652Q743 646 741.5 640.5Q740 635 738 626Q736 613 728.5 600.5Q721 588 709 582Q697 575 682.0 576.5Q667 578 658 588Q657 589 655.5 593.5Q654 598 660 606Q663 610 684.0 631.0Q705 652 735.0 681.5Q765 711 794.5 739.5Q824 768 843 787Q871 814 899.0 841.5Q927 869 955 897Q968 911 988 912Q1008 914 1023 901Q1023 901 1032.5 892.0Q1042 883 1049 877Z" fill="#bdbdbd" stroke="none" transform="scale(1,-1) translate(0,-256)" /><path d="M1117 827Q1149 795 1171 762Q1171 762 1171.5 752.5Q1172 743 1165 733Q1157 724 1148.5 722.0Q1140 720 1140 720Q1118 756 1082 792Q1063 811 1045.5 824.5Q1028 838 1013 848Q1013 848 1015.0 855.5Q1017 863 1027 873Q1037 882 1046.0 880.5Q1055 879 1055 879Q1087 857 1117 827Z" fill="#bdbdbd" stroke="none" transform="scale(1,-1) translate(0,-256)" /></svg>