<?xml version="1.0" encoding="utf-8" ?>
<svg baseProfile="full" height="256" version="1.1" width="256" xmlns="http://www.w3.org/2000/svg" xmlns:ev="http://www.w3.org/2001/xml-events" xmlns:xlink="http://www.w3.org/1999/xlink"><defs /><path d="M726 804Q763 762 770.5 702.0Q778 642 752 576L519 -23Q493 -91 447.0 -131.0Q401 -171 343.0 -181.0Q285 -191 223 -167Q160 -142 122.0 -94.5Q84 -47 76.5 14.5Q69 76 95 142L272 597Q273 601 288.0 597.0Q303 593 317.0 585.5Q331 578 330 574L153 119Q137 78 138.5 33.5Q140 -11 165.5 -49.0Q191 -87 246 -108Q282 -122 322.5 -119.5Q363 -117 400.0 -89.5Q437 -62 461 -1L694 599Q710 640 709.0 687.0Q708 734 675 767Q696 790 726 804Z" fill="#94d1e0" stroke="none" transform="scale(1,-1) translate(0,-256)" /><path d="M664 850Q641 837 624.0 819.5Q607 802 607 802Q577 807 553.0 795.0Q529 783 511.0 762.0Q493 741 481.0 718.5Q469 696 463 680L326 329Q318 306 312.5 275.5Q307 245 316.0 217.0Q325 189 361 176Q368 173 381.0 170.5Q394 168 410.5 173.5Q427 179 445.0 200.5Q463 222 481 267L566 480Q567 484 582.0 479.5Q597 475 611.0 468.5Q625 462 624 457L539 244Q529 219 512.5 190.5Q496 162 471.5 139.0Q447 116 414.0 108.5Q381 101 338 117Q273 142 254.5 205.0Q236 268 268 351L405 703Q444 802 511.0 843.0Q578 884 654 854Q656 853 660.0 851.5Q664 850 664 850Z" fill="#94d1e0" stroke="none" transform="scale(1,-1) translate(0,-256)" /></svg>