<?xml version="1.0" encoding="utf-8" ?>
<svg baseProfile="full" height="256" version="1.1" width="256" xmlns="http://www.w3.org/2000/svg" xmlns:ev="http://www.w3.org/2001/xml-events" xmlns:xlink="http://www.w3.org/1999/xlink"><defs /><path d="M826 722Q837 720 838 732V740Q839 748 830 750L624 794L474 785Q464 784 464 774V769Q464 757 475 758L622 766Z" fill="#2167a1" stroke="none" transform="scale(1,-1) translate(0,-256)" /><path d="M93 196Q181 196 282.0 192.0Q383 188 488.5 181.0Q594 174 695.5 166.0Q797 158 885.5 149.5Q974 141 1042.0 134.0Q1110 127 1148.5 123.0Q1187 119 1187 119Q1200 118 1200 104Q1199 87 1197.0 55.5Q1195 24 1191.5 -12.0Q1188 -48 1183.5 -78.5Q1179 -109 1173 -124Q1154 -171 1137.0 -191.5Q1120 -212 1097 -212Q1097 -212 1066.5 -212.0Q1036 -212 984.5 -212.0Q933 -212 867.5 -212.0Q802 -212 731.5 -212.0Q661 -212 593.0 -212.0Q525 -212 467.0 -212.0Q409 -212 370.0 -212.0Q331 -212 319 -212Q260 -212 203.5 -178.5Q147 -145 115 -66Q101 -33 93.0 9.0Q85 51 81.0 89.5Q77 128 76.0 152.5Q75 177 75 177Q74 192 83.5 194.0Q93 196 93 196Z" fill="#2167a1" stroke="none" transform="scale(1,-1) translate(0,-256)" /></svg>