<?xml version="1.0" encoding="utf-8" ?>
<svg baseProfile="full" height="256" version="1.1" width="256" xmlns="http://www.w3.org/2000/svg" xmlns:ev="http://www.w3.org/2001/xml-events" xmlns:xlink="http://www.w3.org/1999/xlink"><defs /><path d="M622 777 621 680 576 688 550 163 203 174 346 550 396 551 406 685H485V769Z" fill="#dfecf5" stroke="none" transform="scale(1,-1) translate(0,-256)" /><path d="M243 424Q243 424 244.5 414.0Q246 404 253.5 393.5Q261 383 280 381Q280 381 304.5 380.5Q329 380 366.5 379.0Q404 378 443.5 377.0Q483 376 514.5 375.5Q546 375 558 375Q578 375 587.0 386.0Q596 397 598.0 408.5Q600 420 600 420Z" fill="#dfecf5" stroke="none" transform="scale(1,-1) translate(0,-256)" /></svg>