<?xml version="1.0" encoding="utf-8" ?>
<svg baseProfile="full" height="256" version="1.1" width="256" xmlns="http://www.w3.org/2000/svg" xmlns:ev="http://www.w3.org/2001/xml-events" xmlns:xlink="http://www.w3.org/1999/xlink"><defs /><path d="M618 660 622 777 821 734 817 625Z" fill="#94d1e0" stroke="none" transform="scale(1,-1) translate(0,-256)" /><path d="M1089 484 1164 474 1155 210 555 266 571 689 1092 598ZM629 304 632 367 590 372 587 309ZM635 423 639 492 597 498 593 428ZM641 548 645 618 603 625 600 554ZM699 297 702 358 660 363 657 302ZM705 415 708 482 667 488 663 420ZM710 539 713 606 673 613 669 544ZM769 290 772 350 730 355 727 295ZM774 407 777 472 736 478 733 412ZM779 529 782 594 741 601 738 535ZM839 283 841 342 800 347 797 288ZM843 399 846 462 805 468 802 403ZM848 519 851 582 810 589 807 525ZM909 276 911 334 869 339 867 281ZM913 390 915 452 874 458 871 395ZM917 509 920 570 879 577 876 515ZM979 269 981 326 939 330 937 274ZM983 382 984 442 943 448 941 387ZM986 499 988 558 948 565 945 505ZM1049 263 1050 317 1009 322 1007 267ZM1052 374 1054 432 1013 438 1011 379ZM1055 489 1057 546 1016 553 1014 495ZM1118 256 1120 309 1078 314 1077 260ZM1121 366 1123 422 1082 428 1080 371Z" fill="#94d1e0" stroke="none" transform="scale(1,-1) translate(0,-256)" /><path d="M105 192Q105 183 115 183Q124 183 124 192V235Q124 236 125 238Q126 239 128 238Q355 231 554 213Q563 212 564 221Q565 226 562 228Q560 231 556 231Q356 250 129 257Q119 258 112 251Q105 245 105 235Z" fill="#94d1e0" stroke="none" transform="scale(1,-1) translate(0,-256)" /><path d="M325.34259033203125 189.24044799804688H344.0560302734375V238.0705108642578H325.34259033203125Z" fill="#94d1e0" stroke="none" transform="scale(1,-1) translate(0,-256)" /><path d="M1132 357 1197 350Q1197 350 1194.0 339.0Q1191 328 1181.0 317.5Q1171 307 1151 309Q1146 309 1132 311Z" fill="#94d1e0" stroke="none" transform="scale(1,-1) translate(0,-256)" /></svg>