<?xml version="1.0" encoding="utf-8" ?>
<svg baseProfile="full" height="256" version="1.1" width="256" xmlns="http://www.w3.org/2000/svg" xmlns:ev="http://www.w3.org/2001/xml-events" xmlns:xlink="http://www.w3.org/1999/xlink"><defs /><path d="M783 -81Q773 -82 768 -90Q762 -98 764 -108Q765 -117 773 -123Q781 -129 791 -127L1045 -84Q1055 -82 1060 -74Q1066 -66 1064 -57Q1063 -47 1055 -42Q1047 -36 1037 -38Z" fill="#84b0c1" stroke="none" transform="scale(1,-1) translate(0,-256)" /><path d="M846 -38V196H764V-38Q764 -38 771.0 -45.0Q778 -52 805 -52Q832 -52 839.0 -45.0Q846 -38 846 -38Z" fill="#84b0c1" stroke="none" transform="scale(1,-1) translate(0,-256)" /></svg>