<?xml version="1.0" encoding="utf-8" ?>
<svg baseProfile="full" height="256" version="1.1" width="256" xmlns="http://www.w3.org/2000/svg" xmlns:ev="http://www.w3.org/2001/xml-events" xmlns:xlink="http://www.w3.org/1999/xlink"><defs /><path d="M482 296Q482 278 494.5 265.5Q507 253 525 253H879V79H453Q397 79 350.5 102.5Q304 126 276.0 172.0Q248 218 248 284V710Q248 764 274.5 809.0Q301 854 345.0 882.5Q389 911 443 915Q460 916 503.5 915.0Q547 914 624 898Q680 887 735.0 873.5Q790 860 843 838Q888 819 904.0 779.5Q920 740 920 703L690 706Q690 706 690.0 717.0Q690 728 693 737L525 703Q506 699 494.0 688.5Q482 678 482 660Z" fill="#82aec0" stroke="none" transform="scale(1,-1) translate(0,-256)" /><path d="M920 706Q920 717 886.5 724.5Q853 732 805 732Q758 732 724.5 724.5Q691 717 691 706Q691 695 724.5 687.5Q758 680 805 680Q853 680 886.5 687.5Q920 695 920 706Z" fill="#82aec0" stroke="none" transform="scale(1,-1) translate(0,-256)" /><path d="M882 -142Q882 -132 859.5 -124.5Q837 -117 805 -117Q773 -117 750.5 -124.5Q728 -132 728 -142Q728 -152 750.5 -159.5Q773 -167 805 -167Q837 -167 859.5 -159.5Q882 -152 882 -142Z" fill="#82aec0" stroke="none" transform="scale(1,-1) translate(0,-256)" /><path d="M882 -142Q882 -130 882.0 -117.0Q882 -104 882 -92Q882 -75 882.5 -55.0Q883 -35 865 -25Q850 -16 831.5 -13.5Q813 -11 796 -12Q786 -12 776.0 -13.0Q766 -14 757 -17Q731 -27 729.5 -43.5Q728 -60 728 -82Q728 -97 728.0 -112.0Q728 -127 728 -142Z" fill="#82aec0" stroke="none" transform="scale(1,-1) translate(0,-256)" /><path d="M920.15771484375 95.18492126464844Q920.1546630859375 110.08192443847656 886.6341171264648 121.24781036376953Q853.1135711669922 132.4136962890625 805.4431610107422 132.4039306640625Q757.7727508544922 132.3941650390625 724.2567825317383 121.21454620361328Q690.7408142089844 110.03492736816406 690.7438659667969 95.13792419433594Q690.7469177246094 80.24092102050781 724.267463684082 69.07503509521484Q757.7880096435547 57.909149169921875 805.4584197998047 57.918914794921875Q853.1288299560547 57.928680419921875 886.6447982788086 69.1082992553711Q920.1607666015625 80.28791809082031 920.15771484375 95.18492126464844Z" fill="#82aec0" stroke="none" transform="scale(1,-1) translate(0,-256)" /><path d="M690.4707794189453 277.62840270996094V97.62330627441406H919.0518951416016V277.62840270996094Z" fill="#82aec0" stroke="none" transform="scale(1,-1) translate(0,-256)" /><path d="M846.0 286.375V520.375H764.0V286.375Q764.0 286.375 771.0 279.375Q778.0 272.375 805.0 272.375Q832.0 272.375 839.0 279.375Q846.0 286.375 846.0 286.375Z" fill="#82aec0" stroke="none" transform="scale(1,-1) translate(0,-256)" /><path d="M805 615Q805 615 817.5 614.5Q830 614 846.0 614.0Q862 614 874.5 614.0Q887 614 887 614Q887 599 877.5 567.5Q868 536 854 512Q851 507 836.5 502.0Q822 497 805 497Q788 497 773.5 502.0Q759 507 756 512Q743 536 733.5 567.5Q724 599 724 614Q724 614 736.0 614.0Q748 614 764.0 614.0Q780 614 792.5 614.5Q805 615 805 615Z" fill="#82aec0" stroke="none" transform="scale(1,-1) translate(0,-256)" /><path d="M468 -135Q471 -116 481.5 -110.0Q492 -104 498 -103Q504 -103 509.0 -107.0Q514 -111 514 -116Q514 -123 510 -128Q497 -141 492.5 -153.5Q488 -166 482 -166Q476 -166 470.0 -160.0Q464 -154 468 -135Z" fill="#82aec0" stroke="none" transform="scale(1,-1) translate(0,-256)" /></svg>