<?xml version="1.0" encoding="utf-8" ?>
<svg baseProfile="full" height="256" version="1.1" width="256" xmlns="http://www.w3.org/2000/svg" xmlns:ev="http://www.w3.org/2001/xml-events" xmlns:xlink="http://www.w3.org/1999/xlink"><defs /><path d="M920.15771484375 277.90362548828125Q920.1546630859375 292.8006286621094 886.6341171264648 303.96651458740234Q853.1135711669922 315.1324005126953 805.4431610107422 315.1226348876953Q757.7727508544922 315.1128692626953 724.2567825317383 303.9332504272461Q690.7408142089844 292.7536315917969 690.7438659667969 277.85662841796875Q690.7469177246094 262.9596252441406 724.267463684082 251.79373931884766Q757.7880096435547 240.6278533935547 805.4584197998047 240.6376190185547Q853.1288299560547 240.6473846435547 886.6447982788086 251.8270034790039Q920.1607666015625 263.0066223144531 920.15771484375 277.90362548828125Z" fill="#b9e4ea" stroke="none" transform="scale(1,-1) translate(0,-256)" /><path d="M887.2692260742188 614.73095703125Q887.2661743164062 625.366943359375 863.3329162597656 633.3370666503906Q839.399658203125 641.3071899414062 805.364501953125 641.2974243164062Q771.329345703125 641.2876586914062 747.4006652832031 633.3038024902344Q723.4719848632812 625.3199462890625 723.4750366210938 614.6839599609375Q723.4780883789062 604.0479736328125 747.4113464355469 596.0778503417969Q771.3446044921875 588.1077270507812 805.3797607421875 588.1174926757812Q839.4149169921875 588.1272583007812 863.3435974121094 596.1111145019531Q887.2722778320312 604.094970703125 887.2692260742188 614.73095703125Z" fill="#b9e4ea" stroke="none" transform="scale(1,-1) translate(0,-256)" /></svg>