<?xml version="1.0" encoding="utf-8" ?>
<svg baseProfile="full" height="256" version="1.1" width="256" xmlns="http://www.w3.org/2000/svg" xmlns:ev="http://www.w3.org/2001/xml-events" xmlns:xlink="http://www.w3.org/1999/xlink"><defs /><path d="M312 87Q312 160 337.5 219.0Q363 278 407.5 320.0Q452 362 509.5 384.5Q567 407 631 407Q687 407 743.5 389.5Q800 372 848.0 335.0Q896 298 927.5 242.0Q959 186 964 111Q969 31 943.5 -31.5Q918 -94 871.5 -137.0Q825 -180 767.5 -203.0Q710 -226 651 -227Q600 -229 541.5 -211.5Q483 -194 431.0 -156.0Q379 -118 345.5 -58.0Q312 2 312 87Z" fill="#f8932a" stroke="none" transform="scale(1,-1) translate(0,-256)" /><path d="M641 323Q648 323 656.0 304.5Q664 286 672.5 261.0Q681 236 689.0 214.0Q697 192 705 184Q714 177 736.0 175.0Q758 173 784.0 172.5Q810 172 829.0 169.5Q848 167 849 158Q851 149 836.5 135.5Q822 122 801.5 107.0Q781 92 764.0 78.0Q747 64 744 55Q741 45 746.5 23.5Q752 2 759.5 -23.0Q767 -48 771.0 -67.5Q775 -87 769 -92Q764 -96 748.0 -86.0Q732 -76 711.0 -60.5Q690 -45 670.5 -32.5Q651 -20 639 -20Q627 -20 606.5 -31.5Q586 -43 563.0 -57.5Q540 -72 522.5 -81.5Q505 -91 499 -87Q494 -83 498.5 -63.5Q503 -44 512.0 -18.5Q521 7 526.5 29.0Q532 51 528 61Q525 70 509.5 86.0Q494 102 476.0 119.0Q458 136 445.0 150.0Q432 164 432 170Q432 176 450.5 177.5Q469 179 494.0 179.0Q519 179 541.0 180.0Q563 181 572 187Q580 193 589.5 214.0Q599 235 608.0 260.5Q617 286 625.5 304.5Q634 323 641 323Z" fill="#f8932a" stroke="none" transform="scale(1,-1) translate(0,-256)" /></svg>