<?xml version="1.0" encoding="utf-8" ?>
<svg baseProfile="full" height="256" version="1.1" width="256" xmlns="http://www.w3.org/2000/svg" xmlns:ev="http://www.w3.org/2001/xml-events" xmlns:xlink="http://www.w3.org/1999/xlink"><defs /><path d="M1166 328Q1183 301 1189.0 269.0Q1195 237 1195.0 208.5Q1195 180 1193 165Q1190 139 1182.5 122.5Q1175 106 1175 106L1165 82Q1165 82 1167.0 69.0Q1169 56 1169.5 36.5Q1170 17 1166 0Q1161 -20 1145.5 -43.0Q1130 -66 1107.5 -85.5Q1085 -105 1059 -115Q1032 -127 1001.5 -132.5Q971 -138 949.5 -138.5Q928 -139 927 -135Q927 -131 936.0 -116.5Q945 -102 956.5 -86.5Q968 -71 973 -64Q981 -54 992.0 -41.0Q1003 -28 1003 -28Q1003 -28 993.0 -33.0Q983 -38 970.5 -44.0Q958 -50 952 -52Q946 -54 933.0 -57.5Q920 -61 909.0 -62.0Q898 -63 896 -61Q892 -57 903.0 -34.5Q914 -12 929 4Q937 13 951.5 26.5Q966 40 982.5 52.5Q999 65 1013 71Q1031 80 1048.0 85.5Q1065 91 1065 91Q1065 91 1065.5 114.0Q1066 137 1063 161Q1060 185 1051.0 198.0Q1042 211 1033 223Q1023 234 1013.0 241.0Q1003 248 1003 248L944 199L811 190L749 189Q749 189 746.5 181.5Q744 174 735 166Q720 152 693.5 144.5Q667 137 650 134Q634 130 609.0 130.5Q584 131 565.0 132.5Q546 134 546 134Q546 134 540.5 114.5Q535 95 529.5 68.5Q524 42 523 22Q521 -8 523.0 -21.0Q525 -34 525 -52Q524 -69 523.0 -87.0Q522 -105 511 -105Q503 -105 496.5 -88.0Q490 -71 485.0 -46.0Q480 -21 478 3Q476 22 477.5 46.0Q479 70 482.0 92.5Q485 115 487.5 130.0Q490 145 490 145Q490 145 478.0 144.0Q466 143 459 143Q452 143 437.5 144.0Q423 145 423 145Q423 145 420.0 132.0Q417 119 411.5 102.0Q406 85 401 73Q396 62 387.0 47.0Q378 32 371.0 21.0Q364 10 364 10Q364 10 363.5 0.0Q363 -10 361.5 -24.0Q360 -38 357.0 -48.5Q354 -59 348 -60Q337 -61 334.5 -45.5Q332 -30 331 -18Q329 -6 329.0 9.0Q329 24 330 30Q331 34 337.5 48.0Q344 62 351.5 77.5Q359 93 360 101Q363 112 370.0 132.5Q377 153 378 162Q380 175 390.5 180.0Q401 185 401 185Q401 185 390.0 186.0Q379 187 372 188Q367 189 359.0 190.5Q351 192 351 192Q351 192 342.0 179.5Q333 167 322.0 151.0Q311 135 303 126Q296 116 282.5 99.5Q269 83 257.0 69.5Q245 56 242 54Q237 51 231.5 51.0Q226 51 222 57Q219 62 224.0 72.5Q229 83 237.0 95.5Q245 108 251 116Q256 124 265.5 140.5Q275 157 283.5 172.5Q292 188 295 196Q299 207 303.0 216.5Q307 226 314 231Q321 236 333.5 237.0Q346 238 346 238Q346 238 338.0 242.0Q330 246 322 251Q316 255 311.5 259.0Q307 263 307 263Q307 263 296.0 258.5Q285 254 269.5 248.5Q254 243 240.0 238.0Q226 233 220 232Q208 229 191.0 227.5Q174 226 171 238Q170 243 184.0 251.5Q198 260 222 270Q239 277 256.5 286.0Q274 295 288.5 301.0Q303 307 308 306Q317 304 331.0 297.0Q345 290 356 287Q363 285 381.0 285.0Q399 285 415.0 285.0Q431 285 431 285L359 354L263 407Q263 407 250.5 411.5Q238 416 222.5 422.0Q207 428 197 433Q182 440 163.5 445.5Q145 451 144 459Q142 467 150.5 469.5Q159 472 170 472Q181 472 188.0 472.5Q195 473 195 473Q195 473 183.5 482.0Q172 491 157.5 502.5Q143 514 134 520Q124 527 110.0 536.5Q96 546 86.5 555.5Q77 565 83 571Q87 576 97.5 574.0Q108 572 119.0 567.0Q130 562 135 559Q150 551 164.0 546.0Q178 541 178 541Q178 541 169.0 553.0Q160 565 151.0 578.5Q142 592 139 596Q136 601 127.5 614.0Q119 627 110.0 640.5Q101 654 100 659Q94 674 106 678Q115 681 124.5 668.5Q134 656 149 644Q164 630 181.5 611.0Q199 592 214 580Q221 574 236.0 565.0Q251 556 266.5 547.0Q282 538 293.0 531.5Q304 525 304 525Q304 525 323.0 528.0Q342 531 372.5 534.5Q403 538 439.0 540.0Q475 542 510 540Q547 538 579.5 526.5Q612 515 636.5 502.0Q661 489 673 481Q689 470 702.0 454.0Q715 438 723.0 426.5Q731 415 731 415Q731 415 745.0 424.0Q759 433 782.5 445.5Q806 458 836.0 468.5Q866 479 899 482Q953 486 996.0 478.5Q1039 471 1066 448Q1092 427 1100.0 403.5Q1108 380 1108 380Q1108 380 1128.0 369.0Q1148 358 1166 328ZM665 195Q676 200 680.0 204.0Q684 208 678 210Q672 212 666.0 209.0Q660 206 654 202Q650 199 641.0 194.5Q632 190 632 190Q632 190 643.5 190.5Q655 191 665 195Z" fill="#fe6117" stroke="none" transform="scale(1,-1) translate(0,-256)" /><path d="M284 510Q289 510 293 514Q293 514 309.0 528.0Q325 542 351.5 562.0Q378 582 409.5 601.5Q441 621 472 632Q583 674 688 671Q706 671 733.5 668.0Q761 665 792 662Q835 658 880.0 654.0Q925 650 957 650Q1013 651 1047.0 656.5Q1081 662 1082 663Q1095 666 1092 678Q1089 691 1077 688Q1076 688 1043.0 682.0Q1010 676 957 676Q926 675 881.5 679.0Q837 683 795 688Q764 691 736.0 693.5Q708 696 688 697Q579 700 463 656Q430 644 397.5 624.0Q365 604 338.0 583.5Q311 563 294.0 548.5Q277 534 275 532Q266 524 275 514Q278 510 284 510Z" fill="#fe6117" stroke="none" transform="scale(1,-1) translate(0,-256)" /><path d="M236 545Q243 545 247 551Q247 552 259.5 569.0Q272 586 294.0 609.0Q316 632 344 649Q385 674 447.0 698.5Q509 723 583 727Q722 735 827 735Q877 735 916.0 738.5Q955 742 973 746Q992 750 1007.0 757.5Q1022 765 1023 765Q1035 771 1028 782Q1022 794 1011 788Q1011 788 997.5 781.5Q984 775 968 771Q950 768 913.0 764.5Q876 761 827 761Q721 761 582 753Q504 749 439.0 723.0Q374 697 331 671Q300 653 276.5 628.5Q253 604 239.5 585.0Q226 566 225 565Q218 554 229 547Q232 545 236 545Z" fill="#fe6117" stroke="none" transform="scale(1,-1) translate(0,-256)" /></svg>