<?xml version="1.0" encoding="utf-8" ?>
<svg baseProfile="full" height="256" version="1.1" width="256" xmlns="http://www.w3.org/2000/svg" xmlns:ev="http://www.w3.org/2001/xml-events" xmlns:xlink="http://www.w3.org/1999/xlink"><defs /><path d="M963 217Q969 205 980.0 199.5Q991 194 1000.0 192.5Q1009 191 1009 191Q1009 191 1003.5 178.0Q998 165 984 155Q972 147 957.0 144.0Q942 141 931 141Q931 141 920.0 127.5Q909 114 884.5 96.5Q860 79 820.0 65.5Q780 52 723 52H638H552Q495 52 455.0 65.5Q415 79 390.5 96.5Q366 114 355.0 127.5Q344 141 344 141Q333 141 318.5 144.0Q304 147 291 155Q277 165 271.5 178.0Q266 191 266 191Q266 191 275.0 192.5Q284 194 295.0 199.5Q306 205 312 217Q321 234 313.0 252.0Q305 270 287 291Q268 313 253.0 352.0Q238 391 236.5 439.0Q235 487 257 538Q257 538 263.0 542.5Q269 547 275.0 551.5Q281 556 281 556Q283 557 314.0 557.0Q345 557 395.5 557.0Q446 557 509.0 557.0Q572 557 638 557Q703 557 766.0 557.0Q829 557 879.5 557.0Q930 557 961.0 557.0Q992 557 994 556L1010 555Q1009 555 1013.5 546.5Q1018 538 1018 538Q1040 487 1038.5 439.0Q1037 391 1022.0 352.0Q1007 313 988 291Q970 270 962.0 252.0Q954 234 963 217Z" fill="#543930" stroke="none" transform="scale(1,-1) translate(0,-256)" /><path d="M986 732Q994 720 1004.5 692.5Q1015 665 1019.5 628.5Q1024 592 1015 551Q1009 520 997.0 501.5Q985 483 975.0 472.5Q965 462 965 455Q963 424 959.5 395.0Q956 366 950 350Q949 348 946.5 348.5Q944 349 944 351Q938 391 925.5 441.0Q913 491 904 525Q893 570 874.5 592.0Q856 614 837.0 621.5Q818 629 805.0 628.5Q792 628 792 628Q792 628 786.0 639.5Q780 651 764.0 663.0Q748 675 720.0 678.0Q692 681 647 663Q615 649 584 626Q536 590 490.5 569.5Q445 549 415.5 541.0Q386 533 386 533Q386 525 379.5 499.5Q373 474 363.5 442.5Q354 411 345.0 383.0Q336 355 332 341Q331 338 328.5 338.0Q326 338 325 340Q320 355 319.5 390.5Q319 426 325 483Q325 483 310.0 489.5Q295 496 278.0 509.5Q261 523 254 544Q242 584 258.0 614.0Q274 644 291 658Q287 672 286.5 697.5Q286 723 304 755Q318 782 340.5 792.0Q363 802 382 803Q373 831 380.0 845.5Q387 860 401.0 864.0Q415 868 430.5 865.5Q446 863 454 859Q473 848 494.0 851.0Q515 854 532.0 861.5Q549 869 553 871Q573 882 604.0 894.5Q635 907 678.5 910.5Q722 914 778 897Q809 887 837.5 863.5Q866 840 872 810Q893 808 915.0 795.5Q937 783 955.5 765.5Q974 748 986 732Z" fill="#543930" stroke="none" transform="scale(1,-1) translate(0,-256)" /></svg>