<?xml version="1.0" encoding="utf-8" ?>
<svg baseProfile="full" height="256" version="1.1" width="256" xmlns="http://www.w3.org/2000/svg" xmlns:ev="http://www.w3.org/2001/xml-events" xmlns:xlink="http://www.w3.org/1999/xlink"><defs /><path d="M753 -46Q744 -44 740.5 -30.0Q737 -16 737.0 1.0Q737 18 738.0 31.0Q739 44 739 44Q803 43 857.5 29.5Q912 16 953.5 -1.5Q995 -19 1018.0 -32.0Q1041 -45 1041 -45Q1041 -45 1033.5 -54.0Q1026 -63 1008.0 -72.5Q990 -82 959.0 -84.0Q928 -86 883 -72Q850 -62 820.5 -56.5Q791 -51 772.0 -48.5Q753 -46 753 -46Z" fill="#283593" stroke="none" transform="scale(1,-1) translate(0,-256)" /><path d="M231 -44Q231 -44 254.0 -31.0Q277 -18 318.5 -0.5Q360 17 415.0 30.0Q470 43 533 44Q533 44 534.5 31.0Q536 18 536.0 1.0Q536 -16 532.5 -30.0Q529 -44 520 -46Q520 -46 501.0 -48.5Q482 -51 452.5 -56.5Q423 -62 390 -72Q344 -86 313.5 -84.0Q283 -82 264.5 -72.0Q246 -62 238.5 -53.0Q231 -44 231 -44Z" fill="#283593" stroke="none" transform="scale(1,-1) translate(0,-256)" /></svg>