<?xml version="1.0" encoding="utf-8" ?>
<svg baseProfile="full" height="256" version="1.1" width="256" xmlns="http://www.w3.org/2000/svg" xmlns:ev="http://www.w3.org/2001/xml-events" xmlns:xlink="http://www.w3.org/1999/xlink"><defs /><path d="M758 281Q769 280 775 289Q781 298 775 307Q766 321 757 333Q715 383 657.0 403.5Q599 424 538.0 414.5Q477 405 427 364Q419 357 422 346Q425 336 436 334Q440 333 444 335Q522 364 604 350Q686 337 750 285Q753 282 758 281Z" fill="#422b0d" stroke="none" transform="scale(1,-1) translate(0,-256)" /><path d="M794.718994140625 658.031005859375Q765.718994140625 658.031005859375 742.718994140625 634.531005859375Q719.718994140625 611.031005859375 719.718994140625 570.031005859375Q719.718994140625 529.031005859375 742.718994140625 505.531005859375Q765.718994140625 482.031005859375 794.718994140625 482.031005859375Q823.718994140625 482.031005859375 846.718994140625 505.531005859375Q869.718994140625 529.031005859375 869.718994140625 570.031005859375Q869.718994140625 611.031005859375 846.718994140625 634.531005859375Q823.718994140625 658.031005859375 794.718994140625 658.031005859375Z" fill="#422b0d" stroke="none" transform="scale(1,-1) translate(0,-256)" /><path d="M470.06199645996094 743.4380035400391Q499.06199645996094 743.4380035400391 522.0619964599609 719.9380035400391Q545.0619964599609 696.4380035400391 545.0619964599609 655.4380035400391Q545.0619964599609 614.4380035400391 522.0619964599609 590.9380035400391Q499.06199645996094 567.4380035400391 470.06199645996094 567.4380035400391Q441.06199645996094 567.4380035400391 418.06199645996094 590.9380035400391Q395.06199645996094 614.4380035400391 395.06199645996094 655.4380035400391Q395.06199645996094 696.4380035400391 418.06199645996094 719.9380035400391Q441.06199645996094 743.4380035400391 470.06199645996094 743.4380035400391Z" fill="#422b0d" stroke="none" transform="scale(1,-1) translate(0,-256)" /><path d="M410 850Q417 838 431 838Q514 835 577 782L582 788L578 781Q585 775 594.5 774.5Q604 774 612 781Q628 794 617 811Q616 813 615 814Q597 837 573 853Q507 899 427 887Q414 885 408 873Q403 861 410 850Z" fill="#422b0d" stroke="none" transform="scale(1,-1) translate(0,-256)" /><path d="M909 683Q896 675 884 683Q811 721 730 706L729 713V706Q707 701 699 721Q691 741 710 750L713 752Q740 763 769 765Q849 773 913 722Q923 714 922 701Q920 689 909 683Z" fill="#422b0d" stroke="none" transform="scale(1,-1) translate(0,-256)" /></svg>