<?xml version="1.0" encoding="utf-8" ?>
<svg baseProfile="full" height="256" version="1.1" width="256" xmlns="http://www.w3.org/2000/svg" xmlns:ev="http://www.w3.org/2001/xml-events" xmlns:xlink="http://www.w3.org/1999/xlink"><defs /><path d="M634 -164Q742 -164 840.0 -128.5Q938 -93 1013 -28Q1093 44 1135.5 142.5Q1178 241 1178 360Q1178 479 1135.5 578.5Q1093 678 1013 749Q938 815 840.5 849.5Q743 884 634 884Q555 884 477.0 864.0Q399 844 329.5 803.5Q260 763 206.0 700.5Q152 638 121.0 553.0Q90 468 90 360Q90 252 121.0 167.5Q152 83 206.0 20.5Q260 -42 329.5 -83.0Q399 -124 477.0 -144.0Q555 -164 634 -164Z" fill="#000000" stroke="none" transform="scale(1,-1) translate(0,-256)" /><path d="M97 246Q107 258 129.0 258.5Q151 259 165 247Q182 232 191.5 213.0Q201 194 211 155Q216 134 225.0 123.5Q234 113 248 108Q263 103 301.0 117.5Q339 132 385 161Q416 180 456.5 197.0Q497 214 536.0 221.5Q575 229 603 221Q631 213 632.5 191.5Q634 170 618 156Q607 146 569.0 135.5Q531 125 493 108Q464 96 443 74Q443 74 446.5 74.5Q450 75 460 72Q483 65 486.0 47.5Q489 30 481 14Q477 4 469 -5Q469 -5 477.0 -9.0Q485 -13 490.0 -23.5Q495 -34 487 -55Q482 -66 470 -72Q493 -83 490 -108Q487 -135 455.0 -154.0Q423 -173 369 -189Q314 -205 270.0 -195.0Q226 -185 191 -160Q153 -133 137.0 -92.5Q121 -52 122 -2Q122 28 125.5 47.5Q129 67 130.0 87.5Q131 108 123 142Q120 156 110.0 176.5Q100 197 94.5 216.5Q89 236 97 246Z" fill="#000000" stroke="none" transform="scale(1,-1) translate(0,-256)" /></svg>