<?xml version="1.0" encoding="utf-8" ?>
<svg baseProfile="full" height="256" version="1.1" width="256" xmlns="http://www.w3.org/2000/svg" xmlns:ev="http://www.w3.org/2001/xml-events" xmlns:xlink="http://www.w3.org/1999/xlink"><defs /><path d="M905 -212Q938 -212 965.0 -196.0Q992 -180 1008.0 -153.0Q1024 -126 1024 -93V793Q1024 826 1008.0 853.0Q992 880 965.0 896.5Q938 913 905 913H370Q337 913 310.0 896.5Q283 880 267.0 853.0Q251 826 251 793V-93Q251 -126 267.0 -153.0Q283 -180 310.0 -196.0Q337 -212 370 -212Z" fill="#000000" stroke="none" transform="scale(1,-1) translate(0,-256)" /><path d="M753 449Q772 449 785.5 462.5Q799 476 799 495V515Q799 534 785.5 547.5Q772 561 753 561H576Q557 561 543.5 547.5Q530 534 530 515V495Q530 476 543.5 462.5Q557 449 576 449Z" fill="#000000" stroke="none" transform="scale(1,-1) translate(0,-256)" /><path d="M724.875 477.875Q743.875 477.875 757.375 491.375Q770.875 504.875 770.875 523.875V543.875Q770.875 562.875 757.375 576.375Q743.875 589.875 724.875 589.875H547.875Q528.875 589.875 515.375 576.375Q501.875 562.875 501.875 543.875V523.875Q501.875 504.875 515.375 491.375Q528.875 477.875 547.875 477.875Z" fill="#000000" stroke="none" transform="scale(1,-1) translate(0,-256)" /></svg>