<?xml version="1.0" encoding="utf-8" ?>
<svg baseProfile="full" height="256" version="1.1" width="256" xmlns="http://www.w3.org/2000/svg" xmlns:ev="http://www.w3.org/2001/xml-events" xmlns:xlink="http://www.w3.org/1999/xlink"><defs /><path d="M894 43Q906 41 915.5 32.5Q925 24 926 13Q928 -5 914.0 -18.5Q900 -32 884 -32Q879 -32 877 -32Q831 -22 802.0 7.0Q773 36 759 66Q754 75 745 69Q715 46 684.0 28.0Q653 10 623 -2Q615 -5 608 -5Q596 -5 586.0 1.5Q576 8 573 21Q569 35 576.0 48.0Q583 61 596 67Q663 94 725 146Q728 151 728 155Q726 164 724.5 197.0Q723 230 722.5 275.5Q722 321 721.5 369.5Q721 418 721.0 460.5Q721 503 721.0 529.5Q721 556 721 556Q721 589 697.0 611.0Q673 633 640 631Q610 629 590.0 606.5Q570 584 570 553V144Q570 127 558.0 116.0Q546 105 529 106Q514 108 504.5 119.5Q495 131 495 146V556Q495 589 471.5 611.0Q448 633 415 631Q385 629 365.0 606.5Q345 584 345 553V144Q345 127 333.0 116.0Q321 105 304 106Q289 108 279.5 119.5Q270 131 270 146V553Q270 592 289.5 626.5Q309 661 342.0 683.0Q375 705 415 706Q448 708 476.5 695.5Q505 683 526 662Q533 656 539 662Q559 683 586.5 694.5Q614 706 645 706Q698 706 739.0 673.0Q780 640 791 589Q795 578 804 583Q828 593 857.5 595.5Q887 598 921 585Q1001 556 1002 465Q1003 417 979.0 358.5Q955 300 912.5 241.0Q870 182 817 130Q813 126 815 119Q825 90 847.5 70.0Q870 50 894 43ZM937 451Q941 478 927.0 499.5Q913 521 889.0 529.5Q865 538 840.0 528.5Q815 519 799 484Q793 470 791.0 434.5Q789 399 790.0 356.0Q791 313 793.0 275.0Q795 237 797 218Q825 244 854.5 282.5Q884 321 906.5 365.0Q929 409 937 451Z" fill="#fafafa" stroke="none" transform="scale(1,-1) translate(0,-256)" /></svg>