<?xml version="1.0" encoding="utf-8" ?>
<svg baseProfile="full" height="256" version="1.1" width="256" xmlns="http://www.w3.org/2000/svg" xmlns:ev="http://www.w3.org/2001/xml-events" xmlns:xlink="http://www.w3.org/1999/xlink"><defs /><path d="M416 343 200 559Q199 559 197 562Q187 573 188.0 588.0Q189 603 200 613L416 828Q426 837 439 837Q454 837 464.5 826.5Q475 816 475 802V676Q475 668 480.5 663.0Q486 658 493 658H798Q868 658 925.0 619.0Q982 580 1016.0 515.0Q1050 450 1050 370Q1050 328 1040 287L906 406Q905 453 887.0 476.0Q869 499 844.5 506.5Q820 514 799 514H493Q486 514 480.5 508.5Q475 503 475 496V370Q475 357 466 346Q456 335 441.5 334.0Q427 333 416 343Z" fill="#fafafa" stroke="none" transform="scale(1,-1) translate(0,-256)" /><path d="M822 397 1038 181Q1039 180 1041 178Q1051 167 1050.0 152.0Q1049 137 1038 127L822 -88Q812 -97 798 -97Q784 -97 773.5 -86.5Q763 -76 763 -61V65Q763 72 757.5 77.0Q752 82 745 83H439Q370 83 312.5 121.5Q255 160 221.5 225.0Q188 290 188 370Q187 412 198 454L331 334Q334 287 351.5 264.0Q369 241 393.5 233.5Q418 226 439 226H745Q752 226 757.5 231.5Q763 237 763 244V370Q763 384 772 394Q782 405 796.5 406.0Q811 407 822 397Z" fill="#fafafa" stroke="none" transform="scale(1,-1) translate(0,-256)" /></svg>