<?xml version="1.0" encoding="utf-8" ?>
<svg baseProfile="full" height="256" version="1.1" width="256" xmlns="http://www.w3.org/2000/svg" xmlns:ev="http://www.w3.org/2001/xml-events" xmlns:xlink="http://www.w3.org/1999/xlink"><defs /><path d="M389 731Q389 731 382.0 742.0Q375 753 364.5 767.5Q354 782 343 792Q327 807 304.0 810.0Q281 813 258 806Q236 799 203.5 773.5Q171 748 134 716Q97 685 84.0 668.5Q71 652 73 644Q74 640 87.5 625.5Q101 611 120.0 591.5Q139 572 158.0 553.0Q177 534 189.5 521.5Q202 509 202 509L143 427Q143 427 135.5 409.5Q128 392 119.0 360.5Q110 329 104.0 288.0Q98 247 100 201Q104 139 124.5 80.5Q145 22 190.0 -28.5Q235 -79 312 -118Q371 -147 444.5 -161.5Q518 -176 596.0 -177.0Q674 -178 748.5 -169.0Q823 -160 883 -144Q965 -122 1022.0 -73.5Q1079 -25 1113.0 37.0Q1147 99 1158 162Q1168 226 1162.5 279.5Q1157 333 1147.0 369.0Q1137 405 1134 415Q1123 451 1114.5 474.0Q1106 497 1106 497Q1106 497 1115.5 512.0Q1125 527 1138.5 549.0Q1152 571 1166.0 593.5Q1180 616 1190.0 631.5Q1200 647 1200 648Q1202 651 1199.5 659.0Q1197 667 1193 673Q1191 677 1174.5 694.5Q1158 712 1135.0 734.5Q1112 757 1089.5 776.0Q1067 795 1052 801Q1023 813 992.0 809.5Q961 806 941 796Q928 789 918.0 775.5Q908 762 902.5 750.5Q897 739 897 739Q897 739 864.0 749.0Q831 759 772.0 768.5Q713 778 635 778Q558 778 503.0 766.0Q448 754 418.5 742.5Q389 731 389 731Z" fill="#ffd3b0" stroke="none" transform="scale(1,-1) translate(0,-256)" /></svg>