<?xml version="1.0" encoding="utf-8" ?>
<svg baseProfile="full" height="256" version="1.1" width="256" xmlns="http://www.w3.org/2000/svg" xmlns:ev="http://www.w3.org/2001/xml-events" xmlns:xlink="http://www.w3.org/1999/xlink"><defs /><path d="M183 585Q170 592 154.5 600.5Q139 609 123 616Q108 624 93.5 626.0Q79 628 74 639Q70 651 86.0 652.5Q102 654 119 650Q140 646 158.5 636.0Q177 626 195 617Q207 611 220.5 602.5Q234 594 250 591Q257 589 265.0 589.5Q273 590 276 584Q278 578 272.0 571.5Q266 565 251 563Q231 560 217.5 567.0Q204 574 183 585Z" fill="#fd7c88" stroke="none" transform="scale(1,-1) translate(0,-256)" /></svg>