<?xml version="1.0" encoding="utf-8" ?>
<svg baseProfile="full" height="256" version="1.1" width="256" xmlns="http://www.w3.org/2000/svg" xmlns:ev="http://www.w3.org/2001/xml-events" xmlns:xlink="http://www.w3.org/1999/xlink"><defs /><path d="M914 716Q930 725 942.0 715.0Q954 705 962.0 689.0Q970 673 974 664Q981 648 988.5 629.0Q996 610 1003.0 594.0Q1010 578 1014 573Q1019 568 1028.5 568.5Q1038 569 1046.0 571.5Q1054 574 1054 574Q1054 574 1066.5 581.5Q1079 589 1098.0 600.0Q1117 611 1136.0 622.5Q1155 634 1168.5 642.0Q1182 650 1184 651Q1189 653 1194.5 653.5Q1200 654 1197 641Q1193 628 1180.5 606.0Q1168 584 1160 569Q1154 559 1142.5 539.5Q1131 520 1121.5 503.0Q1112 486 1111 482Q1114 477 1118.5 463.5Q1123 450 1126.5 438.5Q1130 427 1130 427Q1130 427 1111.5 428.0Q1093 429 1066.0 439.0Q1039 449 1014 478Q992 503 975.5 534.5Q959 566 947.0 595.5Q935 625 926 645Q922 656 915.5 671.0Q909 686 907.0 698.5Q905 711 914 716Z" fill="#ffa5a8" stroke="none" transform="scale(1,-1) translate(0,-256)" /><path d="M272 580 197 599Q197 599 184.0 605.5Q171 612 153.5 620.5Q136 629 121.0 635.5Q106 642 101 643Q92 645 84.5 646.0Q77 647 77 640Q77 637 84.5 623.0Q92 609 102.5 591.5Q113 574 121.5 560.0Q130 546 133 541Q144 526 156.0 508.0Q168 490 168 487Q166 482 161.5 473.5Q157 465 155 460Q149 447 144.0 434.0Q139 421 139 421Q139 421 154.5 421.5Q170 422 182 423Q202 425 219.5 435.0Q237 445 246 454Q263 469 286.0 502.0Q309 535 331 574Q346 600 358.5 630.5Q371 661 374.5 686.0Q378 711 367 720Q355 730 345.0 722.5Q335 715 327.5 701.5Q320 688 316 680Q313 674 306.5 658.5Q300 643 292.5 625.5Q285 608 279.0 594.5Q273 581 272 580Z" fill="#ffa5a8" stroke="none" transform="scale(1,-1) translate(0,-256)" /></svg>