<?xml version="1.0" encoding="utf-8" ?>
<svg baseProfile="full" height="256" version="1.1" width="256" xmlns="http://www.w3.org/2000/svg" xmlns:ev="http://www.w3.org/2001/xml-events" xmlns:xlink="http://www.w3.org/1999/xlink"><defs /><path d="M936 303Q936 332 919.0 351.0Q902 370 879 370Q857 370 839.5 349.0Q822 328 822 299Q822 269 838.0 248.5Q854 228 879 227Q906 227 921.0 250.0Q936 273 936 303Z" fill="#2c2f31" stroke="none" transform="scale(1,-1) translate(0,-256)" /><path d="M438 300Q438 329 421.5 349.0Q405 369 382 369Q360 369 342.0 348.5Q324 328 324 298Q324 268 339.5 248.0Q355 228 382 229Q409 229 423.5 249.5Q438 270 438 300Z" fill="#2c2f31" stroke="none" transform="scale(1,-1) translate(0,-256)" /><path d="M730 165Q730 195 722.5 213.0Q715 231 697 231Q679 232 671.5 212.5Q664 193 664 163Q664 134 670.0 111.5Q676 89 697 90Q714 90 722.0 113.0Q730 136 730 165Z" fill="#2c2f31" stroke="none" transform="scale(1,-1) translate(0,-256)" /><path d="M597.25 168.281005859375Q597.25 198.281005859375 589.75 216.281005859375Q582.25 234.281005859375 564.25 234.281005859375Q546.25 235.281005859375 538.75 215.781005859375Q531.25 196.281005859375 531.25 166.281005859375Q531.25 137.281005859375 537.25 114.781005859375Q543.25 92.281005859375 564.25 93.281005859375Q581.25 93.281005859375 589.25 116.281005859375Q597.25 139.281005859375 597.25 168.281005859375Z" fill="#2c2f31" stroke="none" transform="scale(1,-1) translate(0,-256)" /></svg>