<?xml version="1.0" encoding="utf-8" ?>
<svg baseProfile="full" height="256" version="1.1" width="256" xmlns="http://www.w3.org/2000/svg" xmlns:ev="http://www.w3.org/2001/xml-events" xmlns:xlink="http://www.w3.org/1999/xlink"><defs /><path d="M1014 569Q1011 576 1018.5 578.0Q1026 580 1037.5 580.5Q1049 581 1057 585Q1071 592 1088.0 605.0Q1105 618 1125 631Q1148 647 1163.5 651.0Q1179 655 1191 658Q1202 661 1201.5 650.0Q1201 639 1196 634Q1191 628 1173.0 622.0Q1155 616 1134 600Q1119 589 1102.5 575.5Q1086 562 1062 556Q1046 552 1032.0 554.5Q1018 557 1014 569Z" fill="#fd7e89" stroke="none" transform="scale(1,-1) translate(0,-256)" /></svg>