<?xml version="1.0" encoding="utf-8" ?>
<svg baseProfile="full" height="256" version="1.1" width="256" xmlns="http://www.w3.org/2000/svg" xmlns:ev="http://www.w3.org/2001/xml-events" xmlns:xlink="http://www.w3.org/1999/xlink"><defs /><path d="M1189 144Q1192 136 1187.0 128.5Q1182 121 1173 121H977Q954 121 944 101Q936 85 920.5 64.5Q905 44 881.0 29.0Q857 14 823 14H452Q419 14 394.5 29.0Q370 44 355.0 64.5Q340 85 332 101Q321 121 298 121H102Q93 121 88.0 128.5Q83 136 86 144L215 507Q220 523 237 523H1038Q1055 523 1060 507ZM1120 158Q1129 158 1134.5 165.5Q1140 173 1137 182L1033 471Q1028 486 1012 486H263Q247 486 242 471L138 182Q135 173 140.5 165.5Q146 158 155 158H298Q344 158 365 117Q371 105 382.5 89.5Q394 74 411.5 62.5Q429 51 452 51H823Q846 51 863.5 62.5Q881 74 892.5 89.5Q904 105 910 117Q931 158 977 158Z" fill="#ffcc80" stroke="none" transform="scale(1,-1) translate(0,-256)" /></svg>