<?xml version="1.0" encoding="utf-8" ?>
<svg baseProfile="full" height="256" version="1.1" width="256" xmlns="http://www.w3.org/2000/svg" xmlns:ev="http://www.w3.org/2001/xml-events" xmlns:xlink="http://www.w3.org/1999/xlink"><defs /><path d="M970 140Q970 140 992.5 140.0Q1015 140 1047.5 140.0Q1080 140 1113.0 140.0Q1146 140 1168.5 140.0Q1191 140 1191 140V-189Q1191 -199 1184.0 -205.5Q1177 -212 1167 -212H107Q98 -212 91.0 -205.5Q84 -199 84 -189V140H308Q325 140 337.5 123.5Q350 107 363.0 85.5Q376 64 395.0 48.0Q414 32 443 32H810Q844 32 865.0 43.0Q886 54 899.0 70.0Q912 86 921.5 102.0Q931 118 942.0 129.0Q953 140 970 140Z" fill="#f29657" stroke="none" transform="scale(1,-1) translate(0,-256)" /></svg>