<?xml version="1.0" encoding="utf-8" ?>
<svg baseProfile="full" height="256" version="1.1" width="256" xmlns="http://www.w3.org/2000/svg" xmlns:ev="http://www.w3.org/2001/xml-events" xmlns:xlink="http://www.w3.org/1999/xlink"><defs /><path d="M832 514Q832 507 832 504Q832 460 822 423Q821 420 820 417Q820 415 818 411Q800 356 764.0 323.0Q728 290 685 279Q684 279 684 279Q682 278 679 277Q678 277 676.5 277.0Q675 277 674 276Q656 273 638 273Q614 273 592 278Q591 279 591 279Q591 279 591 279Q588 279 587 280Q585 280 583 281Q541 294 507.5 326.0Q474 358 457 411Q455 415 455 417Q454 420 453 423Q443 460 443 504Q443 507 443 514Q443 517 443 521Q444 525 444 527Q445 542 447 557Q447 557 447 558Q448 568 451 578Q451 578 451 578Q453 591 456 601Q464 627 475 649Q482 664 491 678Q491 678 491 678Q519 720 557.5 743.5Q596 767 638 767Q679 767 717.5 743.5Q756 720 784 678Q784 678 784 678Q792 665 800 650Q812 626 819 601Q822 591 825 578Q825 578 825.0 578.0Q825 578 825 577Q827 567 828 558Q828 557 828 557Q830 542 831 527Q831 525 832 521Q832 516 832 514Z" fill="#ffca28" stroke="none" transform="scale(1,-1) translate(0,-256)" /></svg>