<?xml version="1.0" encoding="utf-8" ?>
<svg baseProfile="full" height="256" version="1.1" width="256" xmlns="http://www.w3.org/2000/svg" xmlns:ev="http://www.w3.org/2001/xml-events" xmlns:xlink="http://www.w3.org/1999/xlink"><defs /><path d="M571 490Q571 503 562.5 511.5Q554 520 542 520Q530 520 521.5 511.5Q513 503 513 490Q513 478 521.5 469.5Q530 461 542 461Q554 461 562.5 469.5Q571 478 571 490Z" fill="#404040" stroke="none" transform="scale(1,-1) translate(0,-256)" /><path d="M761.875 490.0Q761.875 503.0 753.375 511.5Q744.875 520.0 732.875 520.0Q720.875 520.0 712.375 511.5Q703.875 503.0 703.875 490.0Q703.875 478.0 712.375 469.5Q720.875 461.0 732.875 461.0Q744.875 461.0 753.375 469.5Q761.875 478.0 761.875 490.0Z" fill="#404040" stroke="none" transform="scale(1,-1) translate(0,-256)" /></svg>