<?xml version="1.0" encoding="utf-8" ?>
<svg baseProfile="full" height="256" version="1.1" width="256" xmlns="http://www.w3.org/2000/svg" xmlns:ev="http://www.w3.org/2001/xml-events" xmlns:xlink="http://www.w3.org/1999/xlink"><defs /><path d="M241 383Q236 377 233 367Q230 359 230 350Q229 340 231.0 330.5Q233 321 239 313Q241 310 244 312Q248 315 246 318Q238 330 239 349Q239 358 240.0 366.0Q241 374 241 383Z" fill="#999898" stroke="none" transform="scale(1,-1) translate(0,-256)" /><path d="M209 398Q201 391 197 379Q193 368 193 355Q193 331 204 310Q206 306 210 308Q214 310 212 314Q203 334 202 355Q202 365 204 377Q205 385 209 398Z" fill="#999898" stroke="none" transform="scale(1,-1) translate(0,-256)" /><path d="M174 392Q167 384 164 372Q161 362 161 349Q161 338 164.0 326.5Q167 315 174 305Q177 302 180 304Q184 306 181 310Q171 327 170 350Q170 360 171.5 370.5Q173 381 174 392Z" fill="#999898" stroke="none" transform="scale(1,-1) translate(0,-256)" /><path d="M1061 257Q1061 248 1062.0 239.5Q1063 231 1064 223Q1064 204 1057 192Q1055 189 1058 187Q1061 184 1064 187Q1070 195 1071.5 204.5Q1073 214 1073 223Q1072 233 1069 241Q1066 251 1061 257Z" fill="#999898" stroke="none" transform="scale(1,-1) translate(0,-256)" /><path d="M1093 272Q1097 259 1098 251Q1100 240 1100 229Q1099 208 1090 187Q1088 184 1092 182Q1096 180 1098 184Q1109 204 1109 229Q1109 242 1106 252Q1101 265 1093 272Z" fill="#999898" stroke="none" transform="scale(1,-1) translate(0,-256)" /><path d="M1128 266Q1130 255 1131.0 244.5Q1132 234 1132 223Q1131 201 1121 184Q1119 181 1122 178Q1125 176 1128 179Q1135 189 1138.0 200.5Q1141 212 1141 223Q1141 236 1138 246Q1135 258 1128 266Z" fill="#999898" stroke="none" transform="scale(1,-1) translate(0,-256)" /></svg>