<?xml version="1.0" encoding="utf-8" ?>
<svg baseProfile="full" height="256" version="1.1" width="256" xmlns="http://www.w3.org/2000/svg" xmlns:ev="http://www.w3.org/2001/xml-events" xmlns:xlink="http://www.w3.org/1999/xlink"><defs /><path d="M833 361Q838 351 848 349L861 346L854 335Q850 329 844 326Q836 321 827.5 319.5Q819 318 812 317Q811 317 808 314Q791 295 772.5 285.0Q754 275 723.0 272.0Q692 269 637 269Q581 269 550.0 272.0Q519 275 501.0 285.0Q483 295 465 314Q462 317 461 317Q455 318 446.0 319.5Q437 321 429 326Q423 329 419 335L412 347L425 349Q435 351 440 361Q447 375 423 401Q411 413 400.0 437.5Q389 462 387.0 492.5Q385 523 399 554Q400 556 401.5 558.0Q403 560 404 562L406 566L411 567Q412 567 414 567Q421 567 440.5 567.0Q460 567 496 567Q508 567 519.0 567.0Q530 567 536 567H737Q743 567 753.5 567.0Q764 567 777 567Q858 568 862 567L867 566L868 564L869 562Q876 551 879 540Q888 511 884.5 483.5Q881 456 871.0 434.0Q861 412 850 401Q826 375 833 361Z" fill="#543930" stroke="none" transform="scale(1,-1) translate(0,-256)" /><path d="M879 626Q879 626 883.0 616.5Q887 607 889.5 593.5Q892 580 889 567Q886 556 879 540Q877 536 876 533Q869 517 857.5 515.0Q846 513 845 508Q843 482 832.0 459.5Q821 437 821 435Q818 458 815.5 491.5Q813 525 808 549Q802 572 791 588Q789 591 762.5 590.0Q736 589 697.5 586.5Q659 584 620.0 580.0Q581 576 553.0 572.5Q525 569 520 567Q500 560 487.5 556.5Q475 553 475 553Q476 547 473.0 528.0Q470 509 465.5 486.5Q461 464 457.0 448.0Q453 432 453 432Q453 432 444.0 454.5Q435 477 438 523Q438 523 429.0 523.5Q420 524 410.5 530.5Q401 537 399 554Q399 554 399 556Q392 576 397 595Q397 597 422.5 601.5Q448 606 489.5 612.0Q531 618 581.0 624.0Q631 630 681.5 634.5Q732 639 775.5 640.5Q819 642 847.0 638.5Q875 635 879 626Z" fill="#543930" stroke="none" transform="scale(1,-1) translate(0,-256)" /></svg>