<?xml version="1.0" encoding="utf-8" ?>
<svg baseProfile="full" height="256" version="1.1" width="256" xmlns="http://www.w3.org/2000/svg" xmlns:ev="http://www.w3.org/2001/xml-events" xmlns:xlink="http://www.w3.org/1999/xlink"><defs /><path d="M889 657Q898 653 903.5 648.5Q909 644 909 633Q909 613 895.0 601.0Q881 589 864.5 583.0Q848 577 840 574Q819 567 785.0 562.5Q751 558 716.5 555.5Q682 553 658.5 552.0Q635 551 635 551Q635 551 611.5 552.0Q588 553 554.0 555.5Q520 558 486.0 562.5Q452 567 431 574Q422 577 405.5 583.0Q389 589 375.5 601.0Q362 613 362 633Q362 644 367.5 648.5Q373 653 382 657Q392 662 414.0 664.5Q436 667 446 666Q446 666 431.5 662.0Q417 658 403.0 652.5Q389 647 390 642Q392 634 414.5 625.0Q437 616 489.5 609.5Q542 603 635 602Q728 603 781.0 609.5Q834 616 856.0 625.0Q878 634 880 642Q882 647 868.0 652.5Q854 658 839.5 662.0Q825 666 825 666Q834 667 856.5 664.5Q879 662 889 657Z" fill="#595858" stroke="none" transform="scale(1,-1) translate(0,-256)" /></svg>