<?xml version="1.0" encoding="utf-8" ?>
<svg baseProfile="full" height="256" version="1.1" width="256" xmlns="http://www.w3.org/2000/svg" xmlns:ev="http://www.w3.org/2001/xml-events" xmlns:xlink="http://www.w3.org/1999/xlink"><defs /><path d="M705 223Q705 224 696.5 223.5Q688 223 676 220Q665 218 656.5 215.5Q648 213 649 212Q649 210 657.5 211.0Q666 212 678 214Q689 217 697.0 219.5Q705 222 705 223Z" fill="#616161" stroke="none" transform="scale(1,-1) translate(0,-256)" /><path d="M677 201Q666 203 657.5 203.0Q649 203 649 202Q648 201 656.5 199.0Q665 197 676 195Q688 193 696.5 193.0Q705 193 705 194Q706 195 697.5 197.5Q689 200 677 201Z" fill="#616161" stroke="none" transform="scale(1,-1) translate(0,-256)" /><path d="M591 220Q579 223 570.5 223.5Q562 224 562 223Q562 222 570.0 219.5Q578 217 590 214Q601 212 609.5 211.0Q618 210 618 211Q619 213 611.0 215.5Q603 218 591 220Z" fill="#616161" stroke="none" transform="scale(1,-1) translate(0,-256)" /><path d="M619 202Q618 203 610.0 203.0Q602 203 590 201Q578 199 570.0 197.0Q562 195 562 194Q562 193 570.5 193.0Q579 193 591 195Q602 197 610.5 199.0Q619 201 619 202Z" fill="#616161" stroke="none" transform="scale(1,-1) translate(0,-256)" /></svg>