<?xml version="1.0" encoding="utf-8" ?>
<svg baseProfile="full" height="256" version="1.1" width="256" xmlns="http://www.w3.org/2000/svg" xmlns:ev="http://www.w3.org/2001/xml-events" xmlns:xlink="http://www.w3.org/1999/xlink"><defs /><path d="M180 727Q234 711 272.0 688.5Q310 666 330.0 649.0Q350 632 350 632Q362 620 351.5 608.0Q341 596 333 589Q333 589 322.0 577.0Q311 565 297.5 551.0Q284 537 277 529Q258 508 248.5 514.5Q239 521 232 530Q189 591 179.0 636.5Q169 682 168 718Q168 723 172.0 726.0Q176 729 180 727Z" fill="#ffd1d1" stroke="none" transform="scale(1,-1) translate(0,-256)" /><path d="M1095.0 727.0Q1041.0 711.0 1003.0 688.5Q965.0 666.0 945.0 649.0Q925.0 632.0 925.0 632.0Q913.0 620.0 923.5 608.0Q934.0 596.0 942.0 589.0Q942.0 589.0 953.0 577.0Q964.0 565.0 977.5 551.0Q991.0 537.0 998.0 529.0Q1017.0 508.0 1026.5 514.5Q1036.0 521.0 1043.0 530.0Q1086.0 591.0 1096.0 636.5Q1106.0 682.0 1107.0 718.0Q1107.0 723.0 1103.0 726.0Q1099.0 729.0 1095.0 727.0Z" fill="#ffd1d1" stroke="none" transform="scale(1,-1) translate(0,-256)" /></svg>