<?xml version="1.0" encoding="utf-8" ?>
<svg baseProfile="full" height="256" version="1.1" width="256" xmlns="http://www.w3.org/2000/svg" xmlns:ev="http://www.w3.org/2001/xml-events" xmlns:xlink="http://www.w3.org/1999/xlink"><defs /><path d="M1145 913Q1157 913 1165.0 904.5Q1173 896 1173 885V803V647Q1173 635 1165.0 627.0Q1157 619 1145 619H1090Q1079 619 1071.0 627.0Q1063 635 1063 647V710Q1063 715 1058.5 716.5Q1054 718 1051 715L880 544Q905 509 919.5 466.5Q934 424 934 378Q934 308 903.5 248.5Q873 189 820.0 148.5Q767 108 701 96V95V7H784Q795 7 803.0 -0.5Q811 -8 811 -20V-66Q811 -77 803.0 -85.0Q795 -93 784 -93H701V-166Q701 -178 693.0 -186.0Q685 -194 674 -194H619Q607 -194 599.0 -186.0Q591 -178 591 -166V-93H509Q497 -93 489.5 -85.0Q482 -77 482 -66V-20Q482 -8 489.5 -0.5Q497 7 509 7H591V95V96Q525 108 472.5 148.5Q420 189 389.5 248.5Q359 308 359 378Q359 421 371.0 460.0Q383 499 405 533L365 573Q364 572 354.5 563.0Q345 554 332.5 541.5Q320 529 310.5 519.0Q301 509 300 508Q292 500 280.5 500.0Q269 500 261 508L223 546Q214 554 214.0 565.5Q214 577 223 585Q224 586 233.5 596.0Q243 606 255.5 618.5Q268 631 277.0 640.0Q286 649 287 650L224 712Q221 716 216.5 714.0Q212 712 212 708V665Q212 653 204.5 645.0Q197 637 185 637H130Q118 637 110.0 645.0Q102 653 102 665V802V884Q102 896 110.0 904.0Q118 912 130 912Q149 912 178.0 912.0Q207 912 239.5 912.0Q272 912 301.0 912.0Q330 912 350 912Q361 912 369.0 904.0Q377 896 377 884V829Q377 818 369.0 810.0Q361 802 350 802H307Q303 802 301.0 798.0Q299 794 302 790L365 727L418 779Q425 787 436.5 787.0Q448 787 456 779L494 741Q503 733 503.0 721.5Q503 710 494 702L442 650L479 611Q515 637 557.0 651.0Q599 665 646 665Q689 665 728.5 653.0Q768 641 802 619L973 791Q976 794 974.5 798.5Q973 803 968 803H907Q895 803 887.0 811.0Q879 819 879 830V885Q879 897 887.0 905.0Q895 913 907 913Q926 913 958.0 913.0Q990 913 1026.0 913.0Q1062 913 1094.0 913.0Q1126 913 1145 913ZM647 204Q695 204 734.0 227.5Q773 251 796.5 290.5Q820 330 820 378Q820 425 796.5 464.5Q773 504 733.5 527.5Q694 551 646 551Q598 551 558.5 527.5Q519 504 496.0 465.0Q473 426 473 378Q473 333 493.0 295.5Q513 258 548.0 234.0Q583 210 626 205Q629 205 634 205Q640 204 643 204Q644 204 645.0 204.0Q646 204 647 204Z" fill="#ffa726" stroke="none" transform="scale(1,-1) translate(0,-256)" /></svg>