<?xml version="1.0" encoding="utf-8" ?>
<svg baseProfile="full" height="256" version="1.1" width="256" xmlns="http://www.w3.org/2000/svg" xmlns:ev="http://www.w3.org/2001/xml-events" xmlns:xlink="http://www.w3.org/1999/xlink"><defs /><path d="M633 768Q679 768 711.5 761.5Q744 755 744 746V617Q744 607 711.5 600.5Q679 594 633 594Q588 594 555.5 600.5Q523 607 523 617V746Q523 755 555.5 761.5Q588 768 633 768Z" fill="#78909c" stroke="none" transform="scale(1,-1) translate(0,-256)" /><path d="M668 751V856H596V751Q596 751 605.0 748.5Q614 746 632 746Q650 746 659.0 748.5Q668 751 668 751Z" fill="#78909c" stroke="none" transform="scale(1,-1) translate(0,-256)" /><path d="M539 904Q544 915 555 912Q568 908 591.5 903.5Q615 899 636 898Q658 897 677.5 900.5Q697 904 721.5 908.0Q746 912 781 912Q811 912 837.0 904.5Q863 897 876 891Q887 886 880 876L864 851Q860 845 853 847Q844 849 826.0 854.0Q808 859 785 858Q766 857 749.0 850.5Q732 844 704.0 837.5Q676 831 625 831Q598 831 573.5 842.0Q549 853 535 864Q526 872 529 881Z" fill="#78909c" stroke="none" transform="scale(1,-1) translate(0,-256)" /></svg>