<?xml version="1.0" encoding="utf-8" ?>
<svg baseProfile="full" height="256" version="1.1" width="256" xmlns="http://www.w3.org/2000/svg" xmlns:ev="http://www.w3.org/2001/xml-events" xmlns:xlink="http://www.w3.org/1999/xlink"><defs /><path d="M673 -71Q673 -71 673.0 -71.0Q673 -71 673 -71Q682 -71 688.5 -64.5Q695 -58 694 -49V484Q694 493 687.5 499.5Q681 506 672 506H561Q552 506 545.5 499.5Q539 493 539 484V-49Q539 -58 545.5 -64.5Q552 -71 561 -71Z" fill="#ffffff" stroke="none" transform="scale(1,-1) translate(0,-256)" /><path d="M716.7532806396484 672.0205841064453Q716.7532806396484 692.7511749267578 708.9793090820312 710.8904418945312Q701.2053375244141 729.0297088623047 687.4194946289062 742.8155517578125Q673.6336517333984 756.6013946533203 655.494384765625 764.3753662109375Q637.3551177978516 772.1493377685547 616.4172210693359 772.1493377685547Q595.6866302490234 772.1493377685547 577.54736328125 764.3753662109375Q559.4080963134766 756.6013946533203 545.6222534179688 742.8155517578125Q531.8364105224609 729.0297088623047 524.0624389648438 710.8904418945312Q516.2884674072266 692.7511749267578 516.2884674072266 672.0205841064453Q516.2884674072266 651.0826873779297 524.0624389648438 632.9434204101562Q531.8364105224609 614.8041534423828 545.6222534179688 601.018310546875Q559.4080963134766 587.2324676513672 577.54736328125 579.45849609375Q595.6866302490234 571.6845245361328 616.4172210693359 571.6845245361328Q637.3551177978516 571.6845245361328 655.494384765625 579.45849609375Q673.6336517333984 587.2324676513672 687.4194946289062 601.018310546875Q701.2053375244141 614.8041534423828 708.9793090820312 632.9434204101562Q716.7532806396484 651.0826873779297 716.7532806396484 672.0205841064453Z" fill="#ffffff" stroke="none" transform="scale(1,-1) translate(0,-256)" /></svg>