<?xml version="1.0" encoding="utf-8" ?>
<svg baseProfile="full" height="256" version="1.1" width="256" xmlns="http://www.w3.org/2000/svg" xmlns:ev="http://www.w3.org/2001/xml-events" xmlns:xlink="http://www.w3.org/1999/xlink"><defs /><path d="M1064.8141784667969 349.98695373535156Q1064.8141784667969 438.12330627441406 1031.7630462646484 515.6225128173828Q998.7119140625 593.1217193603516 939.8277130126953 652.0059204101562Q880.9435119628906 710.8901214599609 803.4443054199219 744.3211517333984Q725.9450988769531 777.7521820068359 637.8087463378906 777.7521820068359Q548.91259765625 777.7521820068359 471.41339111328125 744.3211517333984Q393.9141845703125 710.8901214599609 335.0299835205078 652.0059204101562Q276.1457824707031 593.1217193603516 243.0946502685547 515.6225128173828Q210.04351806640625 438.12330627441406 210.04351806640625 349.98695373535156Q210.04351806640625 261.85060119628906 243.0946502685547 184.3513946533203Q276.1457824707031 106.85218811035156 335.0299835205078 47.967987060546875Q393.9141845703125 -10.916213989257812 471.41339111328125 -43.96734619140625Q548.91259765625 -77.01847839355469 637.8087463378906 -77.01847839355469Q725.9450988769531 -77.01847839355469 803.4443054199219 -43.96734619140625Q880.9435119628906 -10.916213989257812 939.8277130126953 47.967987060546875Q998.7119140625 106.85218811035156 1031.7630462646484 184.3513946533203Q1064.8141784667969 261.85060119628906 1064.8141784667969 349.98695373535156Z" fill="#ffffff" stroke="none" transform="scale(1,-1) translate(0,-256)" /></svg>