<?xml version="1.0" encoding="utf-8" ?>
<svg baseProfile="full" height="256" version="1.1" width="256" xmlns="http://www.w3.org/2000/svg" xmlns:ev="http://www.w3.org/2001/xml-events" xmlns:xlink="http://www.w3.org/1999/xlink"><defs /><path d="M940 698Q914 693 887.0 689.0Q860 685 833 683Q806 682 779.0 684.5Q752 687 726 693Q700 699 673.5 705.5Q647 712 620 717Q568 728 513 736Q500 738 486.0 739.5Q472 741 459 743Q429 746 402 740Q388 737 375.0 729.5Q362 722 352 710Q342 698 338.0 683.5Q334 669 333 654Q333 625 342.5 598.0Q352 571 366 547Q379 523 395.5 501.0Q412 479 429 458Q499 374 574.5 295.5Q650 217 718 134Q735 113 751.0 91.5Q767 70 780 46Q784 41 786.5 35.0Q789 29 790 24Q790 18 788 14Q787 10 781 7Q772 3 757 4Q750 4 743.5 5.0Q737 6 731 7Q704 12 679.0 21.5Q654 31 629 43Q605 54 581.5 67.5Q558 81 535 95Q546 88 557.0 80.0Q568 72 580 65Q604 51 627 38Q651 26 676.5 15.5Q702 5 729 -2Q743 -5 756 -6Q763 -7 770.5 -6.0Q778 -5 785 -2Q794 2 798 8Q802 15 801 25Q800 33 797.0 39.5Q794 46 791 52Q778 76 762.0 98.5Q746 121 730 143Q697 185 660 226Q642 247 623.5 267.0Q605 287 587 307Q550 347 514.0 387.5Q478 428 444 470Q427 491 410.5 512.0Q394 533 381 556Q368 579 359.0 604.0Q350 629 350 654Q350 681 365 700Q372 709 383.0 715.0Q394 721 406 724Q429 730 457 727Q471 726 484.5 724.5Q498 723 511 722Q566 715 618 706Q645 701 671.5 695.0Q698 689 724 684Q751 679 778.5 677.5Q806 676 833 678Q861 681 887.5 686.0Q914 691 940 698Z" fill="#fdd835" stroke="none" transform="scale(1,-1) translate(0,-256)" /></svg>