<?xml version="1.0" encoding="utf-8" ?>
<svg baseProfile="full" height="256" version="1.1" width="256" xmlns="http://www.w3.org/2000/svg" xmlns:ev="http://www.w3.org/2001/xml-events" xmlns:xlink="http://www.w3.org/1999/xlink"><defs /><path d="M663 486Q663 486 661.5 504.5Q660 523 655 538Q653 546 642.0 559.0Q631 572 617.5 586.0Q604 600 594.5 609.5Q585 619 585 619Q585 619 592.0 638.0Q599 657 618 699Q636 741 659.5 767.5Q683 794 705 809Q724 821 740.0 821.5Q756 822 758 832Q760 845 748.5 852.0Q737 859 719.5 862.5Q702 866 685 866Q660 866 638.5 855.5Q617 845 601 833Q582 819 567.0 800.5Q552 782 541 767Q534 757 527.0 743.5Q520 730 515.5 719.5Q511 709 511 709L482 716Q482 716 487.5 735.0Q493 754 499 774Q505 793 515.0 814.5Q525 836 534 852Q544 867 557.0 880.0Q570 893 570 903Q570 910 557.0 911.0Q544 912 528.5 909.5Q513 907 505 903Q494 897 476.5 885.5Q459 874 437 844Q426 828 417.0 805.5Q408 783 402.0 760.5Q396 738 392.5 723.0Q389 708 389 708L369 689L450 296Q450 296 449.5 281.0Q449 266 449.5 243.0Q450 220 452.0 196.0Q454 172 459 153Q463 139 472.5 120.0Q482 101 488 91Q494 82 497.5 67.0Q501 52 501 52L574 -8L627 50Q627 50 635.0 60.5Q643 71 653 65Q660 61 662.0 49.5Q664 38 664.0 27.5Q664 17 664 17Q664 17 673.5 9.0Q683 1 696.5 -7.5Q710 -16 723 -18Q737 -20 753.5 -16.5Q770 -13 782.0 -9.0Q794 -5 794 -5Q794 -5 796.5 16.0Q799 37 802.5 62.5Q806 88 809 103Q813 122 819.5 140.0Q826 158 845 164Q861 169 871.0 158.0Q881 147 886 141Q889 137 903.0 127.0Q917 117 936.5 109.5Q956 102 974 105Q988 107 996.0 119.0Q1004 131 1008.0 146.5Q1012 162 1013.5 173.5Q1015 185 1015 185Q1015 185 1015.5 201.0Q1016 217 1015.0 243.0Q1014 269 1012.0 297.5Q1010 326 1004 351Q997 385 978.0 414.0Q959 443 942.0 461.0Q925 479 925 479Q925 479 934.0 489.0Q943 499 953 514Q959 524 966.0 543.5Q973 563 975.5 586.5Q978 610 970 633Q964 649 949.5 658.0Q935 667 918.5 670.0Q902 673 890.0 671.5Q878 670 878 666Q877 662 876.0 644.5Q875 627 871 605Q868 590 858.0 570.5Q848 551 838.5 536.5Q829 522 829 522Q829 522 806.5 521.5Q784 521 752 515Q731 511 710.5 504.0Q690 497 676.5 491.5Q663 486 663 486Z" fill="#b68859" stroke="none" transform="scale(1,-1) translate(0,-256)" /></svg>