<?xml version="1.0" encoding="utf-8" ?>
<svg baseProfile="full" height="256" version="1.1" width="256" xmlns="http://www.w3.org/2000/svg" xmlns:ev="http://www.w3.org/2001/xml-events" xmlns:xlink="http://www.w3.org/1999/xlink"><defs /><path d="M555 504Q555 519 548.0 529.5Q541 540 524 540Q510 540 499.5 530.5Q489 521 489 503Q490 488 496.5 477.0Q503 466 519 467Q537 467 546.0 478.5Q555 490 555 504Z" fill="#2e2e2e" stroke="none" transform="scale(1,-1) translate(0,-256)" /><path d="M276 455Q276 455 266.5 464.5Q257 474 256 475Q254 477 249.5 479.5Q245 482 239 477Q232 472 235.5 465.5Q239 459 242 456Q244 454 252.0 444.0Q260 434 260 434Q260 434 260.0 421.0Q260 408 259 406Q259 404 256.0 401.5Q253 399 247 400Q242 401 235.0 406.0Q228 411 224 404Q221 397 225.5 391.5Q230 386 231 386Q231 385 237.5 382.0Q244 379 250 379Q256 379 261.5 384.5Q267 390 267 390Q267 390 271.0 385.5Q275 381 279 378Q288 373 308 369Q321 367 329.0 369.5Q337 372 344 376Q358 382 355 394Q354 399 348.5 399.5Q343 400 341 399Q338 399 332.0 396.5Q326 394 318 393Q299 392 285 403Q282 405 283.5 417.5Q285 430 285 430Q285 430 293.5 435.0Q302 440 311.5 445.5Q321 451 325 453Q330 455 335.0 460.5Q340 466 336 473Q331 480 324.5 479.0Q318 478 314 476Q312 475 302.5 470.0Q293 465 284.5 460.0Q276 455 276 455Z" fill="#2e2e2e" stroke="none" transform="scale(1,-1) translate(0,-256)" /></svg>