<?xml version="1.0" encoding="utf-8" ?>
<svg baseProfile="full" height="256" version="1.1" width="256" xmlns="http://www.w3.org/2000/svg" xmlns:ev="http://www.w3.org/2001/xml-events" xmlns:xlink="http://www.w3.org/1999/xlink"><defs /><path d="M663 32Q663 32 663.5 20.0Q664 8 663.5 -7.0Q663 -22 663 -32Q662 -47 659.0 -70.0Q656 -93 655 -99Q655 -103 664.5 -116.5Q674 -130 688.5 -142.5Q703 -155 716 -157Q729 -160 746.0 -148.0Q763 -136 776.0 -123.5Q789 -111 789 -111Q789 -111 789.5 -100.0Q790 -89 790.5 -75.0Q791 -61 791 -54Q791 -48 792.5 -33.5Q794 -19 795.5 -2.5Q797 14 798.0 26.0Q799 38 799 38Q799 38 777.5 25.5Q756 13 728 10Q700 8 681.5 20.0Q663 32 663 32Z" fill="#855b52" stroke="none" transform="scale(1,-1) translate(0,-256)" /><path d="M566 43Q537 41 519.0 49.5Q501 58 501 58Q501 58 502.0 45.5Q503 33 504.0 18.5Q505 4 505 -4Q504 -20 502.5 -37.0Q501 -54 501 -55Q501 -56 511.5 -65.5Q522 -75 532.5 -84.5Q543 -94 543 -94Q543 -94 556.0 -92.0Q569 -90 586.0 -87.0Q603 -84 616.5 -81.0Q630 -78 631 -75Q633 -69 634.5 -49.0Q636 -29 637 -10Q638 -2 637.5 15.0Q637 32 636.5 47.0Q636 62 636 62Q636 62 616.0 53.5Q596 45 566 43Z" fill="#855b52" stroke="none" transform="scale(1,-1) translate(0,-256)" /><path d="M882 146Q882 146 884.0 125.5Q886 105 887 90Q887 75 884.5 56.5Q882 38 882 38Q882 38 891.5 23.0Q901 8 916.5 -6.5Q932 -21 948 -20Q965 -18 979.5 -4.5Q994 9 1003.0 21.5Q1012 34 1012 34Q1012 34 1012.0 44.0Q1012 54 1012.0 66.5Q1012 79 1012 87Q1011 93 1011.5 108.5Q1012 124 1013.0 142.0Q1014 160 1014.5 172.5Q1015 185 1015 185Q1015 185 1010.0 179.0Q1005 173 998 168Q990 163 967.0 154.5Q944 146 929 145Q915 143 898.5 144.5Q882 146 882 146Z" fill="#855b52" stroke="none" transform="scale(1,-1) translate(0,-256)" /><path d="M410 642Q407 643 406.0 653.5Q405 664 402 673Q398 683 389.5 691.0Q381 699 381 699Q381 699 367.5 692.0Q354 685 336.0 677.5Q318 670 305 669Q285 667 266.0 669.5Q247 672 248 667Q249 662 264.0 651.5Q279 641 288 637Q300 632 314.5 632.0Q329 632 329 632Q329 632 321.5 621.5Q314 611 308 602Q302 592 295.5 574.5Q289 557 278 540Q269 527 260.5 514.0Q252 501 254 496Q255 493 274.5 482.5Q294 472 319.0 459.5Q344 447 363.5 438.0Q383 429 383 429Q383 429 400.5 440.0Q418 451 443.5 467.5Q469 484 495.0 502.0Q521 520 538.0 535.0Q555 550 555 557Q554 574 562.5 577.5Q571 581 582 580Q590 579 614.5 572.0Q639 565 669.5 561.0Q700 557 723 563Q747 570 759.5 585.5Q772 601 776.5 616.5Q781 632 781 636Q782 643 766.0 638.0Q750 633 738 632Q730 631 714.0 630.5Q698 630 683.5 630.0Q669 630 665 631Q662 631 644.0 642.5Q626 654 594.0 665.5Q562 677 515 677Q472 678 450.5 668.0Q429 658 421.0 649.0Q413 640 410 642Z" fill="#855b52" stroke="none" transform="scale(1,-1) translate(0,-256)" /></svg>