<?xml version="1.0" encoding="utf-8" ?>
<svg baseProfile="full" height="256" version="1.1" width="256" xmlns="http://www.w3.org/2000/svg" xmlns:ev="http://www.w3.org/2001/xml-events" xmlns:xlink="http://www.w3.org/1999/xlink"><defs /><path d="M417 481Q414 481 409.0 489.5Q404 498 391.0 509.0Q378 520 352 528Q317 538 291.5 530.0Q266 522 246 497Q233 481 227.5 455.0Q222 429 226.5 401.0Q231 373 249 351Q274 320 315.5 313.0Q357 306 388 323Q413 337 421.0 358.5Q429 380 429.5 397.5Q430 415 430 416Q431 417 445.0 424.5Q459 432 470 435Q492 441 506.5 441.0Q521 441 546 453Q572 465 579.5 486.0Q587 507 581 527Q575 549 559.0 561.5Q543 574 517 571Q491 568 474.0 548.5Q457 529 450 518Q443 506 431.5 493.5Q420 481 417 481Z" fill="#fff3dd" stroke="none" transform="scale(1,-1) translate(0,-256)" /></svg>