<?xml version="1.0" encoding="utf-8" ?>
<svg baseProfile="full" height="256" version="1.1" width="256" xmlns="http://www.w3.org/2000/svg" xmlns:ev="http://www.w3.org/2001/xml-events" xmlns:xlink="http://www.w3.org/1999/xlink"><defs /><path d="M243.7662353515625 -137.4840545654297Q243.7662353515625 -135.54466247558594 243.0389633178711 -133.84769439697266Q242.3116912841797 -132.15072631835938 241.0219955444336 -130.86103057861328Q239.7322998046875 -129.5713348388672 238.03533172607422 -128.84406280517578Q236.33836364746094 -128.11679077148438 234.37957763671875 -128.11679077148438Q232.440185546875 -128.11679077148438 230.74321746826172 -128.84406280517578Q229.04624938964844 -129.5713348388672 227.75655364990234 -130.86103057861328Q226.46685791015625 -132.15072631835938 225.73958587646484 -133.84769439697266Q225.01231384277344 -135.54466247558594 225.01231384277344 -137.4840545654297Q225.01231384277344 -139.44284057617188 225.73958587646484 -141.13980865478516Q226.46685791015625 -142.83677673339844 227.75655364990234 -144.12647247314453Q229.04624938964844 -145.41616821289062 230.74321746826172 -146.14344024658203Q232.440185546875 -146.87071228027344 234.37957763671875 -146.87071228027344Q236.33836364746094 -146.87071228027344 238.03533172607422 -146.14344024658203Q239.7322998046875 -145.41616821289062 241.0219955444336 -144.12647247314453Q242.3116912841797 -142.83677673339844 243.0389633178711 -141.13980865478516Q243.7662353515625 -139.44284057617188 243.7662353515625 -137.4840545654297Z" fill="#ffffff" stroke="none" transform="scale(1,-1) translate(0,-256)" /><path d="M225.0162353515625 -6.2340545654296875Q225.0162353515625 -4.2946624755859375 224.2889633178711 -2.5976943969726562Q223.5616912841797 -0.900726318359375 222.2719955444336 0.38896942138671875Q220.9822998046875 1.6786651611328125 219.28533172607422 2.4059371948242188Q217.58836364746094 3.133209228515625 215.62957763671875 3.133209228515625Q213.690185546875 3.133209228515625 211.99321746826172 2.4059371948242188Q210.29624938964844 1.6786651611328125 209.00655364990234 0.38896942138671875Q207.71685791015625 -0.900726318359375 206.98958587646484 -2.5976943969726562Q206.26231384277344 -4.2946624755859375 206.26231384277344 -6.2340545654296875Q206.26231384277344 -8.192840576171875 206.98958587646484 -9.889808654785156Q207.71685791015625 -11.586776733398438 209.00655364990234 -12.876472473144531Q210.29624938964844 -14.166168212890625 211.99321746826172 -14.893440246582031Q213.690185546875 -15.620712280273438 215.62957763671875 -15.620712280273438Q217.58836364746094 -15.620712280273438 219.28533172607422 -14.893440246582031Q220.9822998046875 -14.166168212890625 222.2719955444336 -12.876472473144531Q223.5616912841797 -11.586776733398438 224.2889633178711 -9.889808654785156Q225.0162353515625 -8.192840576171875 225.0162353515625 -6.2340545654296875Z" fill="#ffffff" stroke="none" transform="scale(1,-1) translate(0,-256)" /><path d="M225.0162353515625 85.1722412109375Q225.0162353515625 87.11163330078125 224.2889633178711 88.80860137939453Q223.5616912841797 90.50556945800781 222.2719955444336 91.7952651977539Q220.9822998046875 93.0849609375 219.28533172607422 93.8122329711914Q217.58836364746094 94.53950500488281 215.62957763671875 94.53950500488281Q213.690185546875 94.53950500488281 211.99321746826172 93.8122329711914Q210.29624938964844 93.0849609375 209.00655364990234 91.7952651977539Q207.71685791015625 90.50556945800781 206.98958587646484 88.80860137939453Q206.26231384277344 87.11163330078125 206.26231384277344 85.1722412109375Q206.26231384277344 83.21345520019531 206.98958587646484 81.51648712158203Q207.71685791015625 79.81951904296875 209.00655364990234 78.52982330322266Q210.29624938964844 77.24012756347656 211.99321746826172 76.51285552978516Q213.690185546875 75.78558349609375 215.62957763671875 75.78558349609375Q217.58836364746094 75.78558349609375 219.28533172607422 76.51285552978516Q220.9822998046875 77.24012756347656 222.2719955444336 78.52982330322266Q223.5616912841797 79.81951904296875 224.2889633178711 81.51648712158203Q225.0162353515625 83.21345520019531 225.0162353515625 85.1722412109375Z" fill="#ffffff" stroke="none" transform="scale(1,-1) translate(0,-256)" /><path d="M157.02139282226562 -137.48648071289062Q157.02139282226562 -134.09597778320312 155.7499542236328 -131.12928771972656Q154.478515625 -128.16259765625 152.2238311767578 -125.90791320800781Q149.96914672851562 -123.65322875976562 147.00245666503906 -122.38179016113281Q144.0357666015625 -121.1103515625 140.61135864257812 -121.1103515625Q137.22085571289062 -121.1103515625 134.25416564941406 -122.38179016113281Q131.2874755859375 -123.65322875976562 129.0327911376953 -125.90791320800781Q126.77810668945312 -128.16259765625 125.50666809082031 -131.12928771972656Q124.2352294921875 -134.09597778320312 124.2352294921875 -137.48648071289062Q124.2352294921875 -140.910888671875 125.50666809082031 -143.87757873535156Q126.77810668945312 -146.84426879882812 129.0327911376953 -149.0989532470703Q131.2874755859375 -151.3536376953125 134.25416564941406 -152.6250762939453Q137.22085571289062 -153.89651489257812 140.61135864257812 -153.89651489257812Q144.0357666015625 -153.89651489257812 147.00245666503906 -152.6250762939453Q149.96914672851562 -151.3536376953125 152.2238311767578 -149.0989532470703Q154.478515625 -146.84426879882812 155.7499542236328 -143.87757873535156Q157.02139282226562 -140.910888671875 157.02139282226562 -137.48648071289062Z" fill="#ffffff" stroke="none" transform="scale(1,-1) translate(0,-256)" /><path d="M278.8963928222656 -53.111480712890625Q278.8963928222656 -49.720977783203125 277.6249542236328 -46.75428771972656Q276.353515625 -43.78759765625 274.0988311767578 -41.53291320800781Q271.8441467285156 -39.278228759765625 268.87745666503906 -38.00679016113281Q265.9107666015625 -36.7353515625 262.4863586425781 -36.7353515625Q259.0958557128906 -36.7353515625 256.12916564941406 -38.00679016113281Q253.1624755859375 -39.278228759765625 250.9077911376953 -41.53291320800781Q248.65310668945312 -43.78759765625 247.3816680908203 -46.75428771972656Q246.1102294921875 -49.720977783203125 246.1102294921875 -53.111480712890625Q246.1102294921875 -56.535888671875 247.3816680908203 -59.50257873535156Q248.65310668945312 -62.469268798828125 250.9077911376953 -64.72395324707031Q253.1624755859375 -66.9786376953125 256.12916564941406 -68.25007629394531Q259.0958557128906 -69.52151489257812 262.4863586425781 -69.52151489257812Q265.9107666015625 -69.52151489257812 268.87745666503906 -68.25007629394531Q271.8441467285156 -66.9786376953125 274.0988311767578 -64.72395324707031Q276.353515625 -62.469268798828125 277.6249542236328 -59.50257873535156Q278.8963928222656 -56.535888671875 278.8963928222656 -53.111480712890625Z" fill="#ffffff" stroke="none" transform="scale(1,-1) translate(0,-256)" /><path d="M335.1463928222656 33.60731506347656Q335.1463928222656 36.99781799316406 333.8749542236328 39.964508056640625Q332.603515625 42.93119812011719 330.3488311767578 45.185882568359375Q328.0941467285156 47.44056701660156 325.12745666503906 48.712005615234375Q322.1607666015625 49.98344421386719 318.7363586425781 49.98344421386719Q315.3458557128906 49.98344421386719 312.37916564941406 48.712005615234375Q309.4124755859375 47.44056701660156 307.1577911376953 45.185882568359375Q304.9031066894531 42.93119812011719 303.6316680908203 39.964508056640625Q302.3602294921875 36.99781799316406 302.3602294921875 33.60731506347656Q302.3602294921875 30.182907104492188 303.6316680908203 27.216217041015625Q304.9031066894531 24.249526977539062 307.1577911376953 21.994842529296875Q309.4124755859375 19.740158081054688 312.37916564941406 18.468719482421875Q315.3458557128906 17.197280883789062 318.7363586425781 17.197280883789062Q322.1607666015625 17.197280883789062 325.12745666503906 18.468719482421875Q328.0941467285156 19.740158081054688 330.3488311767578 21.994842529296875Q332.603515625 24.249526977539062 333.8749542236328 27.216217041015625Q335.1463928222656 30.182907104492188 335.1463928222656 33.60731506347656Z" fill="#ffffff" stroke="none" transform="scale(1,-1) translate(0,-256)" /><path d="M173.42770385742188 -69.51768493652344Q173.42770385742188 -66.12718200683594 172.15626525878906 -63.160491943359375Q170.88482666015625 -60.19380187988281 168.63014221191406 -57.939117431640625Q166.37545776367188 -55.68443298339844 163.4087677001953 -54.412994384765625Q160.44207763671875 -53.14155578613281 157.01766967773438 -53.14155578613281Q153.62716674804688 -53.14155578613281 150.6604766845703 -54.412994384765625Q147.69378662109375 -55.68443298339844 145.43910217285156 -57.939117431640625Q143.18441772460938 -60.19380187988281 141.91297912597656 -63.160491943359375Q140.64154052734375 -66.12718200683594 140.64154052734375 -69.51768493652344Q140.64154052734375 -72.94209289550781 141.91297912597656 -75.90878295898438Q143.18441772460938 -78.87547302246094 145.43910217285156 -81.13015747070312Q147.69378662109375 -83.38484191894531 150.6604766845703 -84.65628051757812Q153.62716674804688 -85.92771911621094 157.01766967773438 -85.92771911621094Q160.44207763671875 -85.92771911621094 163.4087677001953 -84.65628051757812Q166.37545776367188 -83.38484191894531 168.63014221191406 -81.13015747070312Q170.88482666015625 -78.87547302246094 172.15626525878906 -75.90878295898438Q173.42770385742188 -72.94209289550781 173.42770385742188 -69.51768493652344Z" fill="#ffffff" stroke="none" transform="scale(1,-1) translate(0,-256)" /><path d="M423.7662353515625 -15.609054565429688Q423.7662353515625 -13.669662475585938 423.0389633178711 -11.972694396972656Q422.3116912841797 -10.275726318359375 421.0219955444336 -8.986030578613281Q419.7322998046875 -7.6963348388671875 418.0353317260742 -6.969062805175781Q416.33836364746094 -6.241790771484375 414.37957763671875 -6.241790771484375Q412.440185546875 -6.241790771484375 410.7432174682617 -6.969062805175781Q409.04624938964844 -7.6963348388671875 407.75655364990234 -8.986030578613281Q406.46685791015625 -10.275726318359375 405.73958587646484 -11.972694396972656Q405.01231384277344 -13.669662475585938 405.01231384277344 -15.609054565429688Q405.01231384277344 -17.567840576171875 405.73958587646484 -19.264808654785156Q406.46685791015625 -20.961776733398438 407.75655364990234 -22.25147247314453Q409.04624938964844 -23.541168212890625 410.7432174682617 -24.26844024658203Q412.440185546875 -24.995712280273438 414.37957763671875 -24.995712280273438Q416.33836364746094 -24.995712280273438 418.0353317260742 -24.26844024658203Q419.7322998046875 -23.541168212890625 421.0219955444336 -22.25147247314453Q422.3116912841797 -20.961776733398438 423.0389633178711 -19.264808654785156Q423.7662353515625 -17.567840576171875 423.7662353515625 -15.609054565429688Z" fill="#ffffff" stroke="none" transform="scale(1,-1) translate(0,-256)" /><path d="M541.3797912597656 101.56478881835938Q541.3797912597656 103.98483276367188 540.4722747802734 106.10237121582031Q539.5647583007812 108.21990966796875 537.9554290771484 109.82923889160156Q536.3460998535156 111.43856811523438 534.2285614013672 112.34608459472656Q532.1110229492188 113.25360107421875 529.6667785644531 113.25360107421875Q527.2467346191406 113.25360107421875 525.1291961669922 112.34608459472656Q523.0116577148438 111.43856811523438 521.4023284912109 109.82923889160156Q519.7929992675781 108.21990966796875 518.8854827880859 106.10237121582031Q517.9779663085938 103.98483276367188 517.9779663085938 101.56478881835938Q517.9779663085938 99.12054443359375 518.8854827880859 97.00300598144531Q519.7929992675781 94.88546752929688 521.4023284912109 93.27613830566406Q523.0116577148438 91.66680908203125 525.1291961669922 90.75929260253906Q527.2467346191406 89.85177612304688 529.6667785644531 89.85177612304688Q532.1110229492188 89.85177612304688 534.2285614013672 90.75929260253906Q536.3460998535156 91.66680908203125 537.9554290771484 93.27613830566406Q539.5647583007812 94.88546752929688 540.4722747802734 97.00300598144531Q541.3797912597656 99.12054443359375 541.3797912597656 101.56478881835938Z" fill="#ffffff" stroke="none" transform="scale(1,-1) translate(0,-256)" /><path d="M454.6610870361328 96.87728881835938Q454.6610870361328 99.29733276367188 453.7535705566406 101.41487121582031Q452.84605407714844 103.53240966796875 451.2367248535156 105.14173889160156Q449.6273956298828 106.75106811523438 447.5098571777344 107.65858459472656Q445.39231872558594 108.56610107421875 442.9480743408203 108.56610107421875Q440.5280303955078 108.56610107421875 438.4104919433594 107.65858459472656Q436.29295349121094 106.75106811523438 434.6836242675781 105.14173889160156Q433.0742950439453 103.53240966796875 432.1667785644531 101.41487121582031Q431.25926208496094 99.29733276367188 431.25926208496094 96.87728881835938Q431.25926208496094 94.43304443359375 432.1667785644531 92.31550598144531Q433.0742950439453 90.19796752929688 434.6836242675781 88.58863830566406Q436.29295349121094 86.97930908203125 438.4104919433594 86.07179260253906Q440.5280303955078 85.16427612304688 442.9480743408203 85.16427612304688Q445.39231872558594 85.16427612304688 447.5098571777344 86.07179260253906Q449.6273956298828 86.97930908203125 451.2367248535156 88.58863830566406Q452.84605407714844 90.19796752929688 453.7535705566406 92.31550598144531Q454.6610870361328 94.43304443359375 454.6610870361328 96.87728881835938Z" fill="#ffffff" stroke="none" transform="scale(1,-1) translate(0,-256)" /><path d="M717.1610870361328 359.3772888183594Q717.1610870361328 361.7973327636719 716.2535705566406 363.9148712158203Q715.3460540771484 366.03240966796875 713.7367248535156 367.64173889160156Q712.1273956298828 369.2510681152344 710.0098571777344 370.15858459472656Q707.8923187255859 371.06610107421875 705.4480743408203 371.06610107421875Q703.0280303955078 371.06610107421875 700.9104919433594 370.15858459472656Q698.7929534912109 369.2510681152344 697.1836242675781 367.64173889160156Q695.5742950439453 366.03240966796875 694.6667785644531 363.9148712158203Q693.7592620849609 361.7973327636719 693.7592620849609 359.3772888183594Q693.7592620849609 356.93304443359375 694.6667785644531 354.8155059814453Q695.5742950439453 352.6979675292969 697.1836242675781 351.08863830566406Q698.7929534912109 349.47930908203125 700.9104919433594 348.57179260253906Q703.0280303955078 347.6642761230469 705.4480743408203 347.6642761230469Q707.8923187255859 347.6642761230469 710.0098571777344 348.57179260253906Q712.1273956298828 349.47930908203125 713.7367248535156 351.08863830566406Q715.3460540771484 352.6979675292969 716.2535705566406 354.8155059814453Q717.1610870361328 356.93304443359375 717.1610870361328 359.3772888183594Z" fill="#ffffff" stroke="none" transform="scale(1,-1) translate(0,-256)" /><path d="M539.0360870361328 246.87728881835938Q539.0360870361328 249.29733276367188 538.1285705566406 251.4148712158203Q537.2210540771484 253.53240966796875 535.6117248535156 255.14173889160156Q534.0023956298828 256.7510681152344 531.8848571777344 257.65858459472656Q529.7673187255859 258.56610107421875 527.3230743408203 258.56610107421875Q524.9030303955078 258.56610107421875 522.7854919433594 257.65858459472656Q520.6679534912109 256.7510681152344 519.0586242675781 255.14173889160156Q517.4492950439453 253.53240966796875 516.5417785644531 251.4148712158203Q515.6342620849609 249.29733276367188 515.6342620849609 246.87728881835938Q515.6342620849609 244.43304443359375 516.5417785644531 242.3155059814453Q517.4492950439453 240.19796752929688 519.0586242675781 238.58863830566406Q520.6679534912109 236.97930908203125 522.7854919433594 236.07179260253906Q524.9030303955078 235.16427612304688 527.3230743408203 235.16427612304688Q529.7673187255859 235.16427612304688 531.8848571777344 236.07179260253906Q534.0023956298828 236.97930908203125 535.6117248535156 238.58863830566406Q537.2210540771484 240.19796752929688 538.1285705566406 242.3155059814453Q539.0360870361328 244.43304443359375 539.0360870361328 246.87728881835938Z" fill="#ffffff" stroke="none" transform="scale(1,-1) translate(0,-256)" /><path d="M433.5672912597656 246.87728881835938Q433.5672912597656 249.29733276367188 432.65977478027344 251.4148712158203Q431.75225830078125 253.53240966796875 430.14292907714844 255.14173889160156Q428.5335998535156 256.7510681152344 426.4160614013672 257.65858459472656Q424.29852294921875 258.56610107421875 421.8542785644531 258.56610107421875Q419.4342346191406 258.56610107421875 417.3166961669922 257.65858459472656Q415.19915771484375 256.7510681152344 413.58982849121094 255.14173889160156Q411.9804992675781 253.53240966796875 411.07298278808594 251.4148712158203Q410.16546630859375 249.29733276367188 410.16546630859375 246.87728881835938Q410.16546630859375 244.43304443359375 411.07298278808594 242.3155059814453Q411.9804992675781 240.19796752929688 413.58982849121094 238.58863830566406Q415.19915771484375 236.97930908203125 417.3166961669922 236.07179260253906Q419.4342346191406 235.16427612304688 421.8542785644531 235.16427612304688Q424.29852294921875 235.16427612304688 426.4160614013672 236.07179260253906Q428.5335998535156 236.97930908203125 430.14292907714844 238.58863830566406Q431.75225830078125 240.19796752929688 432.65977478027344 242.3155059814453Q433.5672912597656 244.43304443359375 433.5672912597656 246.87728881835938Z" fill="#ffffff" stroke="none" transform="scale(1,-1) translate(0,-256)" /><path d="M1052.3172912597656 610.1585845947266Q1052.3172912597656 612.5786285400391 1051.4097747802734 614.6961669921875Q1050.5022583007812 616.8137054443359 1048.8929290771484 618.4230346679688Q1047.2835998535156 620.0323638916016 1045.1660614013672 620.9398803710938Q1043.0485229492188 621.8473968505859 1040.6042785644531 621.8473968505859Q1038.1842346191406 621.8473968505859 1036.0666961669922 620.9398803710938Q1033.9491577148438 620.0323638916016 1032.339828491211 618.4230346679688Q1030.7304992675781 616.8137054443359 1029.822982788086 614.6961669921875Q1028.9154663085938 612.5786285400391 1028.9154663085938 610.1585845947266Q1028.9154663085938 607.7143402099609 1029.822982788086 605.5968017578125Q1030.7304992675781 603.4792633056641 1032.339828491211 601.8699340820312Q1033.9491577148438 600.2606048583984 1036.0666961669922 599.3530883789062Q1038.1842346191406 598.4455718994141 1040.6042785644531 598.4455718994141Q1043.0485229492188 598.4455718994141 1045.1660614013672 599.3530883789062Q1047.2835998535156 600.2606048583984 1048.8929290771484 601.8699340820312Q1050.5022583007812 603.4792633056641 1051.4097747802734 605.5968017578125Q1052.3172912597656 607.7143402099609 1052.3172912597656 610.1585845947266Z" fill="#ffffff" stroke="none" transform="scale(1,-1) translate(0,-256)" /><path d="M902.3172912597656 614.8460845947266Q902.3172912597656 617.2661285400391 901.4097747802734 619.3836669921875Q900.5022583007812 621.5012054443359 898.8929290771484 623.1105346679688Q897.2835998535156 624.7198638916016 895.1660614013672 625.6273803710938Q893.0485229492188 626.5348968505859 890.6042785644531 626.5348968505859Q888.1842346191406 626.5348968505859 886.0666961669922 625.6273803710938Q883.9491577148438 624.7198638916016 882.3398284912109 623.1105346679688Q880.7304992675781 621.5012054443359 879.8229827880859 619.3836669921875Q878.9154663085938 617.2661285400391 878.9154663085938 614.8460845947266Q878.9154663085938 612.4018402099609 879.8229827880859 610.2843017578125Q880.7304992675781 608.1667633056641 882.3398284912109 606.5574340820312Q883.9491577148438 604.9481048583984 886.0666961669922 604.0405883789062Q888.1842346191406 603.1330718994141 890.6042785644531 603.1330718994141Q893.0485229492188 603.1330718994141 895.1660614013672 604.0405883789062Q897.2835998535156 604.9481048583984 898.8929290771484 606.5574340820312Q900.5022583007812 608.1667633056641 901.4097747802734 610.2843017578125Q902.3172912597656 612.4018402099609 902.3172912597656 614.8460845947266Z" fill="#ffffff" stroke="none" transform="scale(1,-1) translate(0,-256)" /><path d="M899.9735870361328 500.0022888183594Q899.9735870361328 502.4223327636719 899.0660705566406 504.5398712158203Q898.1585540771484 506.65740966796875 896.5492248535156 508.26673889160156Q894.9398956298828 509.8760681152344 892.8223571777344 510.78358459472656Q890.7048187255859 511.69110107421875 888.2605743408203 511.69110107421875Q885.8405303955078 511.69110107421875 883.7229919433594 510.78358459472656Q881.6054534912109 509.8760681152344 879.9961242675781 508.26673889160156Q878.3867950439453 506.65740966796875 877.4792785644531 504.5398712158203Q876.5717620849609 502.4223327636719 876.5717620849609 500.0022888183594Q876.5717620849609 497.55804443359375 877.4792785644531 495.4405059814453Q878.3867950439453 493.3229675292969 879.9961242675781 491.71363830566406Q881.6054534912109 490.10430908203125 883.7229919433594 489.19679260253906Q885.8405303955078 488.2892761230469 888.2605743408203 488.2892761230469Q890.7048187255859 488.2892761230469 892.8223571777344 489.19679260253906Q894.9398956298828 490.10430908203125 896.5492248535156 491.71363830566406Q898.1585540771484 493.3229675292969 899.0660705566406 495.4405059814453Q899.9735870361328 497.55804443359375 899.9735870361328 500.0022888183594Z" fill="#ffffff" stroke="none" transform="scale(1,-1) translate(0,-256)" /><path d="M642.1610870361328 415.6272888183594Q642.1610870361328 418.0473327636719 641.2535705566406 420.1648712158203Q640.3460540771484 422.28240966796875 638.7367248535156 423.89173889160156Q637.1273956298828 425.5010681152344 635.0098571777344 426.40858459472656Q632.8923187255859 427.31610107421875 630.4480743408203 427.31610107421875Q628.0280303955078 427.31610107421875 625.9104919433594 426.40858459472656Q623.7929534912109 425.5010681152344 622.1836242675781 423.89173889160156Q620.5742950439453 422.28240966796875 619.6667785644531 420.1648712158203Q618.7592620849609 418.0473327636719 618.7592620849609 415.6272888183594Q618.7592620849609 413.18304443359375 619.6667785644531 411.0655059814453Q620.5742950439453 408.9479675292969 622.1836242675781 407.33863830566406Q623.7929534912109 405.72930908203125 625.9104919433594 404.82179260253906Q628.0280303955078 403.9142761230469 630.4480743408203 403.9142761230469Q632.8923187255859 403.9142761230469 635.0098571777344 404.82179260253906Q637.1273956298828 405.72930908203125 638.7367248535156 407.33863830566406Q640.3460540771484 408.9479675292969 641.2535705566406 411.0655059814453Q642.1610870361328 413.18304443359375 642.1610870361328 415.6272888183594Z" fill="#ffffff" stroke="none" transform="scale(1,-1) translate(0,-256)" /><path d="M675.0162353515625 162.5159454345703Q675.0162353515625 164.45533752441406 674.2889633178711 166.15230560302734Q673.5616912841797 167.84927368164062 672.2719955444336 169.13896942138672Q670.9822998046875 170.4286651611328 669.2853317260742 171.15593719482422Q667.5883636474609 171.88320922851562 665.6295776367188 171.88320922851562Q663.690185546875 171.88320922851562 661.9932174682617 171.15593719482422Q660.2962493896484 170.4286651611328 659.0065536499023 169.13896942138672Q657.7168579101562 167.84927368164062 656.9895858764648 166.15230560302734Q656.2623138427734 164.45533752441406 656.2623138427734 162.5159454345703Q656.2623138427734 160.55715942382812 656.9895858764648 158.86019134521484Q657.7168579101562 157.16322326660156 659.0065536499023 155.87352752685547Q660.2962493896484 154.58383178710938 661.9932174682617 153.85655975341797Q663.690185546875 153.12928771972656 665.6295776367188 153.12928771972656Q667.5883636474609 153.12928771972656 669.2853317260742 153.85655975341797Q670.9822998046875 154.58383178710938 672.2719955444336 155.87352752685547Q673.5616912841797 157.16322326660156 674.2889633178711 158.86019134521484Q675.0162353515625 160.55715942382812 675.0162353515625 162.5159454345703Z" fill="#ffffff" stroke="none" transform="scale(1,-1) translate(0,-256)" /><path d="M675.0162353515625 275.0159454345703Q675.0162353515625 276.95533752441406 674.2889633178711 278.65230560302734Q673.5616912841797 280.3492736816406 672.2719955444336 281.6389694213867Q670.9822998046875 282.9286651611328 669.2853317260742 283.6559371948242Q667.5883636474609 284.3832092285156 665.6295776367188 284.3832092285156Q663.690185546875 284.3832092285156 661.9932174682617 283.6559371948242Q660.2962493896484 282.9286651611328 659.0065536499023 281.6389694213867Q657.7168579101562 280.3492736816406 656.9895858764648 278.65230560302734Q656.2623138427734 276.95533752441406 656.2623138427734 275.0159454345703Q656.2623138427734 273.0571594238281 656.9895858764648 271.36019134521484Q657.7168579101562 269.66322326660156 659.0065536499023 268.37352752685547Q660.2962493896484 267.0838317871094 661.9932174682617 266.35655975341797Q663.690185546875 265.62928771972656 665.6295776367188 265.62928771972656Q667.5883636474609 265.62928771972656 669.2853317260742 266.35655975341797Q670.9822998046875 267.0838317871094 672.2719955444336 268.37352752685547Q673.5616912841797 269.66322326660156 674.2889633178711 271.36019134521484Q675.0162353515625 273.0571594238281 675.0162353515625 275.0159454345703Z" fill="#ffffff" stroke="none" transform="scale(1,-1) translate(0,-256)" /><path d="M478.1412353515625 350.0159454345703Q478.1412353515625 351.95533752441406 477.4139633178711 353.65230560302734Q476.6866912841797 355.3492736816406 475.3969955444336 356.6389694213867Q474.1072998046875 357.9286651611328 472.4103317260742 358.6559371948242Q470.71336364746094 359.3832092285156 468.75457763671875 359.3832092285156Q466.815185546875 359.3832092285156 465.1182174682617 358.6559371948242Q463.42124938964844 357.9286651611328 462.13155364990234 356.6389694213867Q460.84185791015625 355.3492736816406 460.11458587646484 353.65230560302734Q459.38731384277344 351.95533752441406 459.38731384277344 350.0159454345703Q459.38731384277344 348.0571594238281 460.11458587646484 346.36019134521484Q460.84185791015625 344.66322326660156 462.13155364990234 343.37352752685547Q463.42124938964844 342.0838317871094 465.1182174682617 341.35655975341797Q466.815185546875 340.62928771972656 468.75457763671875 340.62928771972656Q470.71336364746094 340.62928771972656 472.4103317260742 341.35655975341797Q474.1072998046875 342.0838317871094 475.3969955444336 343.37352752685547Q476.6866912841797 344.66322326660156 477.4139633178711 346.36019134521484Q478.1412353515625 348.0571594238281 478.1412353515625 350.0159454345703Z" fill="#ffffff" stroke="none" transform="scale(1,-1) translate(0,-256)" /><path d="M403.1412353515625 321.8909454345703Q403.1412353515625 323.83033752441406 402.4139633178711 325.52730560302734Q401.6866912841797 327.2242736816406 400.3969955444336 328.5139694213867Q399.1072998046875 329.8036651611328 397.4103317260742 330.5309371948242Q395.71336364746094 331.2582092285156 393.75457763671875 331.2582092285156Q391.815185546875 331.2582092285156 390.1182174682617 330.5309371948242Q388.42124938964844 329.8036651611328 387.13155364990234 328.5139694213867Q385.84185791015625 327.2242736816406 385.11458587646484 325.52730560302734Q384.38731384277344 323.83033752441406 384.38731384277344 321.8909454345703Q384.38731384277344 319.9321594238281 385.11458587646484 318.23519134521484Q385.84185791015625 316.53822326660156 387.13155364990234 315.24852752685547Q388.42124938964844 313.9588317871094 390.1182174682617 313.23155975341797Q391.815185546875 312.50428771972656 393.75457763671875 312.50428771972656Q395.71336364746094 312.50428771972656 397.4103317260742 313.23155975341797Q399.1072998046875 313.9588317871094 400.3969955444336 315.24852752685547Q401.6866912841797 316.53822326660156 402.4139633178711 318.23519134521484Q403.1412353515625 319.9321594238281 403.1412353515625 321.8909454345703Z" fill="#ffffff" stroke="none" transform="scale(1,-1) translate(0,-256)" /><path d="M721.8912353515625 556.2659454345703Q721.8912353515625 558.2053375244141 721.1639633178711 559.9023056030273Q720.4366912841797 561.5992736816406 719.1469955444336 562.8889694213867Q717.8572998046875 564.1786651611328 716.1603317260742 564.9059371948242Q714.4633636474609 565.6332092285156 712.5045776367188 565.6332092285156Q710.565185546875 565.6332092285156 708.8682174682617 564.9059371948242Q707.1712493896484 564.1786651611328 705.8815536499023 562.8889694213867Q704.5918579101562 561.5992736816406 703.8645858764648 559.9023056030273Q703.1373138427734 558.2053375244141 703.1373138427734 556.2659454345703Q703.1373138427734 554.3071594238281 703.8645858764648 552.6101913452148Q704.5918579101562 550.9132232666016 705.8815536499023 549.6235275268555Q707.1712493896484 548.3338317871094 708.8682174682617 547.606559753418Q710.565185546875 546.8792877197266 712.5045776367188 546.8792877197266Q714.4633636474609 546.8792877197266 716.1603317260742 547.606559753418Q717.8572998046875 548.3338317871094 719.1469955444336 549.6235275268555Q720.4366912841797 550.9132232666016 721.1639633178711 552.6101913452148Q721.8912353515625 554.3071594238281 721.8912353515625 556.2659454345703Z" fill="#ffffff" stroke="none" transform="scale(1,-1) translate(0,-256)" /><path d="M578.8797912597656 401.5647888183594Q578.8797912597656 403.9848327636719 577.9722747802734 406.1023712158203Q577.0647583007812 408.21990966796875 575.4554290771484 409.82923889160156Q573.8460998535156 411.4385681152344 571.7285614013672 412.34608459472656Q569.6110229492188 413.25360107421875 567.1667785644531 413.25360107421875Q564.7467346191406 413.25360107421875 562.6291961669922 412.34608459472656Q560.5116577148438 411.4385681152344 558.9023284912109 409.82923889160156Q557.2929992675781 408.21990966796875 556.3854827880859 406.1023712158203Q555.4779663085938 403.9848327636719 555.4779663085938 401.5647888183594Q555.4779663085938 399.12054443359375 556.3854827880859 397.0030059814453Q557.2929992675781 394.8854675292969 558.9023284912109 393.27613830566406Q560.5116577148438 391.66680908203125 562.6291961669922 390.75929260253906Q564.7467346191406 389.8517761230469 567.1667785644531 389.8517761230469Q569.6110229492188 389.8517761230469 571.7285614013672 390.75929260253906Q573.8460998535156 391.66680908203125 575.4554290771484 393.27613830566406Q577.0647583007812 394.8854675292969 577.9722747802734 397.0030059814453Q578.8797912597656 399.12054443359375 578.8797912597656 401.5647888183594Z" fill="#ffffff" stroke="none" transform="scale(1,-1) translate(0,-256)" /><path d="M543.7662353515625 425.0159454345703Q543.7662353515625 426.95533752441406 543.0389633178711 428.65230560302734Q542.3116912841797 430.3492736816406 541.0219955444336 431.6389694213867Q539.7322998046875 432.9286651611328 538.0353317260742 433.6559371948242Q536.3383636474609 434.3832092285156 534.3795776367188 434.3832092285156Q532.440185546875 434.3832092285156 530.7432174682617 433.6559371948242Q529.0462493896484 432.9286651611328 527.7565536499023 431.6389694213867Q526.4668579101562 430.3492736816406 525.7395858764648 428.65230560302734Q525.0123138427734 426.95533752441406 525.0123138427734 425.0159454345703Q525.0123138427734 423.0571594238281 525.7395858764648 421.36019134521484Q526.4668579101562 419.66322326660156 527.7565536499023 418.37352752685547Q529.0462493896484 417.0838317871094 530.7432174682617 416.35655975341797Q532.440185546875 415.62928771972656 534.3795776367188 415.62928771972656Q536.3383636474609 415.62928771972656 538.0353317260742 416.35655975341797Q539.7322998046875 417.0838317871094 541.0219955444336 418.37352752685547Q542.3116912841797 419.66322326660156 543.0389633178711 421.36019134521484Q543.7662353515625 423.0571594238281 543.7662353515625 425.0159454345703Z" fill="#ffffff" stroke="none" transform="scale(1,-1) translate(0,-256)" /><path d="M344.5474395751953 -95.29655456542969Q344.5474395751953 -93.35716247558594 343.8201675415039 -91.66019439697266Q343.0928955078125 -89.96322631835938 341.8031997680664 -88.67353057861328Q340.5135040283203 -87.38383483886719 338.81653594970703 -86.65656280517578Q337.11956787109375 -85.92929077148438 335.16078186035156 -85.92929077148438Q333.2213897705078 -85.92929077148438 331.52442169189453 -86.65656280517578Q329.82745361328125 -87.38383483886719 328.53775787353516 -88.67353057861328Q327.24806213378906 -89.96322631835938 326.52079010009766 -91.66019439697266Q325.79351806640625 -93.35716247558594 325.79351806640625 -95.29655456542969Q325.79351806640625 -97.25534057617188 326.52079010009766 -98.95230865478516Q327.24806213378906 -100.64927673339844 328.53775787353516 -101.93897247314453Q329.82745361328125 -103.22866821289062 331.52442169189453 -103.95594024658203Q333.2213897705078 -104.68321228027344 335.16078186035156 -104.68321228027344Q337.11956787109375 -104.68321228027344 338.81653594970703 -103.95594024658203Q340.5135040283203 -103.22866821289062 341.8031997680664 -101.93897247314453Q343.0928955078125 -100.64927673339844 343.8201675415039 -98.95230865478516Q344.5474395751953 -97.25534057617188 344.5474395751953 -95.29655456542969Z" fill="#ffffff" stroke="none" transform="scale(1,-1) translate(0,-256)" /><path d="M356.2662353515625 218.7659454345703Q356.2662353515625 220.70533752441406 355.5389633178711 222.40230560302734Q354.8116912841797 224.09927368164062 353.5219955444336 225.38896942138672Q352.2322998046875 226.6786651611328 350.5353317260742 227.40593719482422Q348.83836364746094 228.13320922851562 346.87957763671875 228.13320922851562Q344.940185546875 228.13320922851562 343.2432174682617 227.40593719482422Q341.54624938964844 226.6786651611328 340.25655364990234 225.38896942138672Q338.96685791015625 224.09927368164062 338.23958587646484 222.40230560302734Q337.51231384277344 220.70533752441406 337.51231384277344 218.7659454345703Q337.51231384277344 216.80715942382812 338.23958587646484 215.11019134521484Q338.96685791015625 213.41322326660156 340.25655364990234 212.12352752685547Q341.54624938964844 210.83383178710938 343.2432174682617 210.10655975341797Q344.940185546875 209.37928771972656 346.87957763671875 209.37928771972656Q348.83836364746094 209.37928771972656 350.5353317260742 210.10655975341797Q352.2322998046875 210.83383178710938 353.5219955444336 212.12352752685547Q354.8116912841797 213.41322326660156 355.5389633178711 215.11019134521484Q356.2662353515625 216.80715942382812 356.2662353515625 218.7659454345703Z" fill="#ffffff" stroke="none" transform="scale(1,-1) translate(0,-256)" /><path d="M328.1412353515625 133.5472412109375Q328.1412353515625 135.48663330078125 327.4139633178711 137.18360137939453Q326.6866912841797 138.8805694580078 325.3969955444336 140.1702651977539Q324.1072998046875 141.4599609375 322.4103317260742 142.1872329711914Q320.71336364746094 142.9145050048828 318.75457763671875 142.9145050048828Q316.815185546875 142.9145050048828 315.1182174682617 142.1872329711914Q313.42124938964844 141.4599609375 312.13155364990234 140.1702651977539Q310.84185791015625 138.8805694580078 310.11458587646484 137.18360137939453Q309.38731384277344 135.48663330078125 309.38731384277344 133.5472412109375Q309.38731384277344 131.5884552001953 310.11458587646484 129.89148712158203Q310.84185791015625 128.19451904296875 312.13155364990234 126.90482330322266Q313.42124938964844 125.61512756347656 315.1182174682617 124.88785552978516Q316.815185546875 124.16058349609375 318.75457763671875 124.16058349609375Q320.71336364746094 124.16058349609375 322.4103317260742 124.88785552978516Q324.1072998046875 125.61512756347656 325.3969955444336 126.90482330322266Q326.6866912841797 128.19451904296875 327.4139633178711 129.89148712158203Q328.1412353515625 131.5884552001953 328.1412353515625 133.5472412109375Z" fill="#ffffff" stroke="none" transform="scale(1,-1) translate(0,-256)" /></svg>