<?xml version="1.0" encoding="utf-8" ?>
<svg baseProfile="full" height="256" version="1.1" width="256" xmlns="http://www.w3.org/2000/svg" xmlns:ev="http://www.w3.org/2001/xml-events" xmlns:xlink="http://www.w3.org/1999/xlink"><defs /><path d="M796 263Q779 264 778 281V663Q778 670 772.5 675.0Q767 680 760 680H676Q666 680 661 672L390 247Q387 242 387 237L389 194Q390 178 407 177H651Q659 177 664.0 172.0Q669 167 669 159V49Q669 42 674.0 37.0Q679 32 687 32H760Q767 32 772.5 37.0Q778 42 778 49V158Q778 166 783.0 171.0Q788 176 796 176H842Q849 176 854.0 181.0Q859 186 859 194V245Q859 253 854.0 258.0Q849 263 842 263ZM532 263Q528 263 524 266Q517 269 515.0 276.5Q513 284 517 290L662 520L670 534V281Q670 274 665.0 268.5Q660 263 652 263Z" fill="#fafafa" stroke="none" transform="scale(1,-1) translate(0,-256)" /></svg>