<?xml version="1.0" encoding="utf-8" ?>
<svg baseProfile="full" height="256" version="1.1" width="256" xmlns="http://www.w3.org/2000/svg" xmlns:ev="http://www.w3.org/2001/xml-events" xmlns:xlink="http://www.w3.org/1999/xlink"><defs /><path d="M450 744Q396 744 348.0 720.5Q300 697 264.0 656.0Q228 615 208.0 560.5Q188 506 188 444Q188 382 208.0 327.5Q228 273 264.0 231.5Q300 190 348.0 167.0Q396 144 450 144H769Q776 144 782.0 138.5Q788 133 788 125V-6Q788 -22 798.0 -32.5Q808 -43 822.5 -44.0Q837 -45 849 -34L1074 191Q1087 202 1087.0 219.0Q1087 236 1074 247L849 472Q838 483 823.5 481.5Q809 480 798.5 470.0Q788 460 788 444V313Q788 305 782.0 299.5Q776 294 769 294H450Q420 294 394.0 314.5Q368 335 353.0 369.0Q338 403 338 444Q338 485 353.0 519.0Q368 553 394.0 573.5Q420 594 450 594H750Q765 594 776.5 605.0Q788 616 788 631V706Q788 722 776.5 733.0Q765 744 750 744Z" fill="#fafafa" stroke="none" transform="scale(1,-1) translate(0,-256)" /></svg>