<?xml version="1.0" encoding="utf-8" ?>
<svg baseProfile="full" height="256" version="1.1" width="256" xmlns="http://www.w3.org/2000/svg" xmlns:ev="http://www.w3.org/2001/xml-events" xmlns:xlink="http://www.w3.org/1999/xlink"><defs /><path d="M558 585Q576 576 582.0 557.0Q588 538 579 520L533 429L437 478L483 569Q496 596 526 596Q538 596 548 590Z" fill="#ed6d23" stroke="none" transform="scale(1,-1) translate(0,-256)" /><path d="M622 639 721 610 690 506 592 534Q572 540 562.5 557.5Q553 575 558 594L562 606Q566 622 579.5 631.5Q593 641 608 641Q615 641 622 639Z" fill="#ed6d23" stroke="none" transform="scale(1,-1) translate(0,-256)" /></svg>