<?xml version="1.0" encoding="utf-8" ?>
<svg baseProfile="full" height="256" version="1.1" width="256" xmlns="http://www.w3.org/2000/svg" xmlns:ev="http://www.w3.org/2001/xml-events" xmlns:xlink="http://www.w3.org/1999/xlink"><defs /><path d="M390 370Q391 366 388 365Q384 363 366.5 353.5Q349 344 328.0 335.0Q307 326 293 326Q290 326 288 327Q283 328 281 334Q280 336 281 339Q278 339 275.0 339.5Q272 340 269 340Q260 341 257 350Q255 358 261 363Q264 367 287.0 371.0Q310 375 337.5 379.5Q365 384 381 386Q385 387 387 383Z" fill="#eda600" stroke="none" transform="scale(1,-1) translate(0,-256)" /><path d="M843 176 1070 126 1055 44 803 75V76Q781 79 767 97L604 305L706 379Z" fill="#eda600" stroke="none" transform="scale(1,-1) translate(0,-256)" /></svg>