<?xml version="1.0" encoding="utf-8" ?>
<svg baseProfile="full" height="256" version="1.1" width="256" xmlns="http://www.w3.org/2000/svg" xmlns:ev="http://www.w3.org/2001/xml-events" xmlns:xlink="http://www.w3.org/1999/xlink"><defs /><path d="M636 836Q645 818 641.0 802.5Q637 787 635 781Q638 776 640.5 760.5Q643 745 626 728Q613 715 615 708Q617 701 623.0 701.5Q629 702 629 702Q629 702 621.5 690.5Q614 679 594 679Q569 677 556.5 687.0Q544 697 540.5 707.5Q537 718 538 718Q550 723 555.0 734.0Q560 745 557.0 755.5Q554 766 543 768Q538 769 534.0 765.0Q530 761 526 755L519 744Q519 744 517.0 743.5Q515 743 512 746Q503 757 503.0 772.0Q503 787 503.5 800.0Q504 813 496 817Q496 817 495.5 817.0Q495 817 494 817Q490 815 487.0 812.5Q484 810 480 809Q471 804 460.5 804.0Q450 804 440 804Q418 804 410.0 796.5Q402 789 401.5 781.0Q401 773 401 773Q370 785 374 818Q376 828 380.5 838.0Q385 848 396 854Q386 873 392.0 884.0Q398 895 407.5 899.0Q417 903 417 903Q417 903 417.0 894.0Q417 885 426 883Q432 881 440 885Q444 887 453 893Q461 899 470.5 905.0Q480 911 493 914Q528 921 548.0 913.5Q568 906 577.0 894.0Q586 882 589 876Q595 875 610.5 866.5Q626 858 636 836Z" fill="#543930" stroke="none" transform="scale(1,-1) translate(0,-256)" /></svg>