<?xml version="1.0" encoding="utf-8" ?>
<svg baseProfile="full" height="256" version="1.1" width="256" xmlns="http://www.w3.org/2000/svg" xmlns:ev="http://www.w3.org/2001/xml-events" xmlns:xlink="http://www.w3.org/1999/xlink"><defs /><path d="M495 549 556 516 489 394Q483 384 473 379L358 333Q355 332 353 332Q344 332 337.0 343.0Q330 354 328.5 367.0Q327 380 336 384L436 438Q436 438 436.0 438.0Q436 438 437 438Z" fill="#000000" stroke="none" transform="scale(1,-1) translate(0,-256)" /><path d="M382 383Q390 372 384.0 356.5Q378 341 370 333Q363 327 347.5 318.0Q332 309 320 309Q316 309 313 310Q302 315 302 322Q301 330 312 336Q320 340 326 347Q326 348 326 349Q325 351 324 351Q318 350 311.5 350.0Q305 350 300 350Q285 349 265.0 350.5Q245 352 239 360Q234 365 236 372Q238 380 246 382Q247 382 248 382Q248 382 265.5 381.5Q283 381 301 383Q315 385 324.0 387.0Q333 389 340 391Q345 392 349 393Q358 395 365.5 394.0Q373 393 382 383Z" fill="#000000" stroke="none" transform="scale(1,-1) translate(0,-256)" /><path d="M654.8931884765625 612.8060760498047Q655.3810119628906 607.4114990234375 652.3885345458984 592.1044235229492Q649.3960571289062 576.7973480224609 633.0357360839844 564.1202392578125Q620.52490234375 554.4259796142578 619.7504425048828 547.3317260742188Q619.7504425048828 547.3317260742188 619.9943542480469 544.6344375610352Q620.2382659912109 541.9371490478516 621.5631866455078 541.5206451416016Q624.2756652832031 538.5714569091797 625.7505416870117 538.6319351196289Q627.2254180908203 538.6924133300781 627.2254180908203 538.6924133300781Q627.2254180908203 538.6924133300781 621.8384170532227 537.765266418457Q616.451416015625 536.8381195068359 609.6455383300781 539.5017471313477Q602.8396606445312 542.1653747558594 599.8766326904297 553.5792846679688Q595.5886840820312 565.4096984863281 599.8187637329102 577.7071075439453Q604.0488433837891 590.0045166015625 611.2039947509766 597.7135391235352Q618.3591461181641 605.4225616455078 623.2962799072266 604.9187622070312Q639.5578765869141 598.7584991455078 647.37548828125 606.2592697143555Q655.1930999755859 613.7600402832031 654.8931884765625 612.8060760498047Z" fill="#000000" stroke="none" transform="scale(1,-1) translate(0,-256)" /><path d="M342.650390625 914.0396118164062Q352.17401123046875 897.5020446777344 352.5314636230469 878.2429351806641Q353.3978576660156 869.2498168945312 351.83558654785156 860.3136672973633Q350.2733154296875 851.3775177001953 344.77197265625 846.2860260009766Q338.4915466308594 841.0496673583984 333.0379638671875 840.0355987548828Q327.5843811035156 839.0215301513672 323.8717956542969 837.3140563964844Q324.74639892578125 845.61376953125 322.0237121582031 853.7531509399414Q319.301025390625 861.8925323486328 315.6839599609375 868.3399047851562Q311.70123291015625 876.7535552978516 306.9394226074219 885.0223388671875Q302.1776123046875 893.2911224365234 296.04046630859375 900.2870330810547Q300.9933166503906 908.3279418945312 301.5697937011719 916.0636520385742Q302.1462707519531 923.7993621826172 302.1462707519531 923.7993621826172Q303.0686340332031 936.1764984130859 297.941162109375 946.4115600585938Q300.2784118652344 946.8461608886719 303.6689910888672 945.9509201049805Q307.0595703125 945.0556793212891 308.021484375 944.2174072265625Q329.50970458984375 937.0245513916016 342.650390625 914.0396118164062Z" fill="#000000" stroke="none" transform="scale(1,-1) translate(0,-256)" /><path d="M446.6120147705078 746.4980163574219Q446.6120147705078 746.4980163574219 442.02972412109375 734.044189453125Q437.4474334716797 721.5903625488281 417.63671875 713.6759033203125Q408.1452941894531 710.1875610351562 395.1091003417969 709.0391235351562Q382.0729064941406 707.8906860351562 372.2782897949219 705.8746948242188Q363.463134765625 704.060302734375 359.1722106933594 700.1076049804688Q354.88128662109375 696.1549072265625 347.50038146972656 692.3335876464844Q339.4432067871094 686.8383178710938 329.1588592529297 684.7215270996094Q318.87451171875 682.604736328125 309.07989501953125 680.5887451171875Q287.53173828125 676.153564453125 280.83301544189453 669.0194549560547Q274.13429260253906 661.8853454589844 274.8573303222656 655.8951416015625Q275.5803680419922 649.9049377441406 275.5803680419922 649.9049377441406Q243.3979034423828 652.4894714355469 242.31307983398438 677.5896606445312Q242.75604248046875 685.3546142578125 245.6476593017578 693.6235656738281Q248.53927612304688 701.8925170898438 258.4037780761719 708.5271606445312Q245.7288360595703 720.4985046386719 249.93804931640625 729.8060302734375Q254.1472625732422 739.1135559082031 262.84576416015625 743.9734497070312Q271.5442657470703 748.8333435058594 271.5442657470703 748.8333435058594Q271.5442657470703 748.8333435058594 272.90863037109375 742.207763671875Q274.2729949951172 735.5821838378906 283.39134216308594 735.9242248535156Q289.57130432128906 735.6614685058594 296.8006134033203 740.2189636230469Q300.41526794433594 742.4977111816406 308.3208465576172 748.7291564941406Q315.24696350097656 754.7590026855469 323.64227294921875 761.0912475585938Q332.03758239746094 767.4234924316406 344.3157958984375 772.2528076171875Q361.49131774902344 778.0901184082031 380.252685546875 781.184326171875Q399.01405334472656 784.2785339355469 416.20140075683594 780.1423645019531Q430.29876708984375 776.1375732421875 439.69127655029297 767.7111968994141Q449.0837860107422 759.2848205566406 446.6120147705078 746.4980163574219Z" fill="#000000" stroke="none" transform="scale(1,-1) translate(0,-256)" /><path d="M663.696533203125 329.98484802246094Q675.6316528320312 318.3844757080078 690.8435668945312 317.9273376464844Q706.0554809570312 317.47019958496094 706.0554809570312 317.47019958496094Q706.0554809570312 317.47019958496094 697.7912292480469 311.92864990234375Q689.5269775390625 306.38710021972656 669.7973327636719 309.72703552246094Q644.0594787597656 313.6278839111328 633.0841369628906 322.41011810302734Q622.1087951660156 331.1923522949219 620.0181732177734 338.5031204223633Q617.9275512695312 345.8138885498047 618.9076538085938 345.6153869628906Q634.374755859375 346.41844177246094 640.4642639160156 356.33607482910156Q650.4798278808594 350.3719787597656 653.6143493652344 343.1777572631836Q656.7488708496094 335.98353576660156 663.696533203125 329.98484802246094Z" fill="#000000" stroke="none" transform="scale(1,-1) translate(0,-256)" /><path d="M605 373 711 306 570 100 561 -158H490L464 74Q458 129 486 175Z" fill="#000000" stroke="none" transform="scale(1,-1) translate(0,-256)" /><path d="M733 375Q735 367 731.0 360.5Q727 354 719 352Q682 342 642.5 332.0Q603 322 566 313Q564 312 561 312Q544 312 542 329Q538 366 533.0 396.0Q528 426 520.5 456.5Q513 487 502 525Q491 563 507.0 593.0Q523 623 558 636Q569 640 582 640Q603 640 622.0 628.5Q641 617 649 596Q674 541 696.5 485.5Q719 430 733 375Z" fill="#000000" stroke="none" transform="scale(1,-1) translate(0,-256)" /><path d="M943 388Q949 374 944 364Q942 360 938 358Q936 358 934 359Q933 359 932 360Q933 352 930 347Q929 343 925 342Q919 340 915 348Q915 337 912 332Q909 329 905 329Q897 329 895.5 335.0Q894 341 893 346Q893 352 892 355Q893 349 892.0 341.5Q891 334 888 330Q885 328 882 328Q881 328 881 328Q874 329 871.5 338.5Q869 348 867 360Q866 369 864.0 378.5Q862 388 857 391Q857 390 857.0 389.5Q857 389 857 388Q858 385 857.5 380.0Q857 375 855 370Q853 366 850.0 362.5Q847 359 842 358Q840 358 837.0 358.5Q834 359 830 364Q827 368 827.0 375.5Q827 383 827 393Q828 402 828.0 412.0Q828 422 825 430Q822 434 808.0 447.5Q794 461 777.5 476.5Q761 492 752 502L629 539Q625 541 626 545L647 612Q647 614 649 614Q651 615 652 615L786 572Q797 569 805 560Q815 547 831.0 527.0Q847 507 861.0 489.0Q875 471 879 464Q886 461 897.0 450.0Q908 439 918.0 427.5Q928 416 930 413Q934 406 937.5 400.0Q941 394 943 388Z" fill="#000000" stroke="none" transform="scale(1,-1) translate(0,-256)" /><path d="M369 191Q369 236 336.5 267.5Q304 299 258 299Q212 299 179.5 267.5Q147 236 147 191Q147 146 179.5 114.5Q212 83 258 83Q304 83 336.5 114.5Q369 146 369 191Z" fill="#000000" stroke="none" transform="scale(1,-1) translate(0,-256)" /><path d="M261 83Q252 93 239.5 110.5Q227 128 216.5 152.5Q206 177 205 207Q205 213 205 220Q205 228 207 237Q207 238 207 240Q208 245 210 249Q211 255 213 259Q215 264 219 269Q227 282 238.0 289.0Q249 296 256 299Q243 298 229 295Q224 291 217.0 284.5Q210 278 204 269Q202 265 200 260Q197 254 196 248Q196 248 196.0 247.5Q196 247 196 247Q194 241 193 236Q191 226 191 219Q190 212 190 205Q189 163 203.0 132.5Q217 102 227 88Q242 83 258 83Q260 83 261 83Z" fill="#000000" stroke="none" transform="scale(1,-1) translate(0,-256)" /><path d="M314 284Q304 290 293 293Q289 293 284 292Q277 289 256.5 280.0Q236 271 219 269Q214 268 211 268Q207 268 204 269Q194 271 194 279Q189 276 185 272Q186 269 189.0 265.0Q192 261 200 260Q203 259 207 259Q209 259 213 259Q244 261 267.0 272.5Q290 284 314 284Z" fill="#000000" stroke="none" transform="scale(1,-1) translate(0,-256)" /><path d="M345 124Q338 135 323.0 153.0Q308 171 285 188Q267 201 248.5 211.0Q230 221 205 220Q201 220 197 220Q194 219 191 219Q173 214 163.0 200.5Q153 187 148 175Q151 159 158 144Q159 160 165.0 180.0Q171 200 190 205Q193 206 197 207Q201 207 205 207Q224 206 241.0 197.5Q258 189 272 177Q295 155 308.5 137.0Q322 119 328 107Q338 115 345 124Z" fill="#000000" stroke="none" transform="scale(1,-1) translate(0,-256)" /><path d="M369 192Q357 202 334.5 216.0Q312 230 280.0 240.5Q248 251 210 249Q208 249 205.5 249.0Q203 249 201 248Q200 248 198.5 248.0Q197 248 196 248Q183 246 173.5 243.0Q164 240 158 237Q153 227 151 218Q157 223 167.0 228.5Q177 234 193 236Q198 237 201 237Q203 237 207 237Q242 239 272.5 226.5Q303 214 327.0 197.0Q351 180 366 167Q369 178 369 191Z" fill="#000000" stroke="none" transform="scale(1,-1) translate(0,-256)" /></svg>