<?xml version="1.0" encoding="utf-8" ?>
<svg baseProfile="full" height="256" version="1.1" width="256" xmlns="http://www.w3.org/2000/svg" xmlns:ev="http://www.w3.org/2001/xml-events" xmlns:xlink="http://www.w3.org/1999/xlink"><defs /><path d="M369 752Q369 752 369.0 762.0Q369 772 369.0 784.5Q369 797 369 805Q369 813 377.0 821.0Q385 829 393 829Q397 829 415.5 829.0Q434 829 459.5 829.0Q485 829 509.5 829.0Q534 829 550.5 829.0Q567 829 567 829V733Q567 733 549.0 733.0Q531 733 504.0 733.0Q477 733 449.5 733.0Q422 733 402.0 733.5Q382 734 380 734Q373 735 371.0 739.5Q369 744 369 752Z" fill="#0f64c7" stroke="none" transform="scale(1,-1) translate(0,-256)" /></svg>