<?xml version="1.0" encoding="utf-8" ?>
<svg baseProfile="full" height="256" version="1.1" width="256" xmlns="http://www.w3.org/2000/svg" xmlns:ev="http://www.w3.org/2001/xml-events" xmlns:xlink="http://www.w3.org/1999/xlink"><defs /><path d="M806 -172Q815 -173 819.0 -179.5Q823 -186 823 -191Q823 -197 818.0 -203.0Q813 -209 808 -210Q807 -210 778.5 -210.0Q750 -210 704.5 -210.0Q659 -210 605.0 -210.0Q551 -210 496.5 -210.0Q442 -210 395.5 -210.0Q349 -210 319.0 -210.0Q289 -210 285 -210Q272 -210 251.5 -207.0Q231 -204 210 -191Q197 -182 183.0 -168.0Q169 -154 181 -142Q193 -129 204.0 -138.0Q215 -147 222 -150Q228 -154 242.0 -161.5Q256 -169 270 -170Q273 -171 295.5 -171.0Q318 -171 353 -171L397 -38H444L400 -171Q454 -171 519.0 -171.0Q584 -171 642 -171L604 -36L644 -26L688 -171Q738 -171 771.0 -171.5Q804 -172 806 -172Z" fill="#feb804" stroke="none" transform="scale(1,-1) translate(0,-256)" /></svg>