<?xml version="1.0" encoding="utf-8" ?>
<svg baseProfile="full" height="256" version="1.1" width="256" xmlns="http://www.w3.org/2000/svg" xmlns:ev="http://www.w3.org/2001/xml-events" xmlns:xlink="http://www.w3.org/1999/xlink"><defs /><path d="M190 109Q189 114 197.0 129.5Q205 145 221.0 166.0Q237 187 259 205Q313 251 347.0 261.5Q381 272 383 270Q384 269 379.0 252.5Q374 236 367.0 212.0Q360 188 352.0 164.0Q344 140 338.0 123.5Q332 107 330 106Q328 105 306.5 104.0Q285 103 258.0 103.0Q231 103 210.5 104.5Q190 106 190 109Z" fill="#868686" stroke="none" transform="scale(1,-1) translate(0,-256)" /></svg>