<?xml version="1.0" encoding="utf-8" ?>
<svg baseProfile="full" height="256" version="1.1" width="256" xmlns="http://www.w3.org/2000/svg" xmlns:ev="http://www.w3.org/2001/xml-events" xmlns:xlink="http://www.w3.org/1999/xlink"><defs /><path d="M194 115 405 248 497 295 516 325 791 343Q791 343 798.5 328.5Q806 314 810 303Q813 292 814.0 281.5Q815 271 815 271L1011 255L1038 259L1049 283L1184 427Q1184 427 1191.0 427.5Q1198 428 1202 428Q1209 427 1210 419Q1211 417 1204.5 395.0Q1198 373 1188.0 341.0Q1178 309 1168.0 277.0Q1158 245 1151.0 222.5Q1144 200 1144 197Q1143 194 1143.0 179.5Q1143 165 1143.5 148.0Q1144 131 1144.5 118.5Q1145 106 1145 106L1119 33Q1119 33 1110.5 33.0Q1102 33 1093.0 33.5Q1084 34 1083 36Q1082 36 1077.0 50.5Q1072 65 1064.0 86.0Q1056 107 1048.5 127.5Q1041 148 1036.0 162.0Q1031 176 1031 176L897 179L835 119Q835 119 829.0 93.5Q823 68 795 33Q777 10 739.5 -9.0Q702 -28 638.0 -40.5Q574 -53 475 -55Q377 -57 319.5 -51.5Q262 -46 230.0 -35.0Q198 -24 176 -10Q153 4 147.0 19.5Q141 35 143.0 45.5Q145 56 145 56L173 96Z" fill="#ffa62d" stroke="none" transform="scale(1,-1) translate(0,-256)" /></svg>