<?xml version="1.0" encoding="utf-8" ?>
<svg baseProfile="full" height="256" version="1.1" width="256" xmlns="http://www.w3.org/2000/svg" xmlns:ev="http://www.w3.org/2001/xml-events" xmlns:xlink="http://www.w3.org/1999/xlink"><defs /><path d="M1126.1570739746094 358.43714904785156Q1126.1570739746094 466.89686584472656 1085.4846801757812 562.2666168212891Q1044.8122863769531 657.6363677978516 972.3499755859375 730.0986785888672Q899.8876647949219 802.5609893798828 804.5179138183594 843.7008819580078Q709.1481628417969 884.8407745361328 600.6884460449219 884.8407745361328Q491.2937316894531 884.8407745361328 395.9239807128906 843.7008819580078Q300.5542297363281 802.5609893798828 228.0919189453125 730.0986785888672Q155.62960815429688 657.6363677978516 114.95721435546875 562.2666168212891Q74.28482055664062 466.89686584472656 74.28482055664062 358.43714904785156Q74.28482055664062 249.97743225097656 114.95721435546875 154.60768127441406Q155.62960815429688 59.23793029785156 228.0919189453125 -13.224380493164062Q300.5542297363281 -85.68669128417969 395.9239807128906 -126.35908508300781Q491.2937316894531 -167.03147888183594 600.6884460449219 -167.03147888183594Q709.1481628417969 -167.03147888183594 804.5179138183594 -126.35908508300781Q899.8876647949219 -85.68669128417969 972.3499755859375 -13.224380493164062Q1044.8122863769531 59.23793029785156 1085.4846801757812 154.60768127441406Q1126.1570739746094 249.97743225097656 1126.1570739746094 358.43714904785156Z" fill="#f44336" stroke="none" transform="scale(1,-1) translate(0,-256)" /></svg>