<?xml version="1.0" encoding="utf-8" ?>
<svg baseProfile="full" height="256" version="1.1" width="256" xmlns="http://www.w3.org/2000/svg" xmlns:ev="http://www.w3.org/2001/xml-events" xmlns:xlink="http://www.w3.org/1999/xlink"><defs /><path d="M634 902Q336 904 181 758Q41 626 41 404Q41 199 218 71Q384 -49 633 -49Q681 -49 727 -44Q776 -144 908 -193Q979 -219 1042 -223Q1059 -224 1068 -210Q1074 -200 1071 -189Q1069 -177 1059 -171Q1010 -141 979 -62Q950 11 979 34Q1094 95 1159 189Q1229 289 1227 405Q1225 626 1085 756Q930 901 634 902ZM220 717Q359 848 634 846Q908 845 1046 715Q1169 601 1171 404Q1172 306 1113 221Q1055 138 951 82Q949 81 948 80Q881 33 927 -82Q942 -121 962 -151Q945 -146 928 -140Q806 -95 770 -3Q762 18 740 15Q687 7 633 7Q403 7 251 117Q97 228 97 404Q97 602 220 717Z" fill="#000000" stroke="none" transform="scale(1,-1) translate(0,-256)" /></svg>