<?xml version="1.0" encoding="utf-8" ?>
<svg baseProfile="full" height="256" version="1.1" width="256" xmlns="http://www.w3.org/2000/svg" xmlns:ev="http://www.w3.org/2001/xml-events" xmlns:xlink="http://www.w3.org/1999/xlink"><defs /><path d="M826 77Q850 61 858.5 46.0Q867 31 867 31Q867 31 857.0 39.0Q847 47 829.0 56.5Q811 66 788.5 72.0Q766 78 740 74Q706 68 684.5 54.5Q663 41 646.5 18.5Q630 -4 610 -37Q589 -71 571.5 -84.5Q554 -98 542.5 -100.5Q531 -103 531 -103H473Q503 -89 524.0 -68.0Q545 -47 562.0 -22.0Q579 3 597.5 26.0Q616 49 641 67Q674 90 704.0 96.0Q734 102 752.5 100.5Q771 99 771 99Q812 158 823.5 209.0Q835 260 823.5 302.5Q812 345 784.5 378.0Q757 411 720 436L731 455Q731 455 749.5 445.0Q768 435 793.0 412.0Q818 389 839.0 350.5Q860 312 864 255Q868 206 861.0 170.0Q854 134 843.5 110.5Q833 87 826 77Z" fill="#94d1e0" stroke="none" transform="scale(1,-1) translate(0,-256)" /><path d="M756 868Q756 868 763.5 868.5Q771 869 787 860L729 753L700 764Z" fill="#94d1e0" stroke="none" transform="scale(1,-1) translate(0,-256)" /></svg>