<?xml version="1.0" encoding="utf-8" ?>
<svg baseProfile="full" height="256" version="1.1" width="256" xmlns="http://www.w3.org/2000/svg" xmlns:ev="http://www.w3.org/2001/xml-events" xmlns:xlink="http://www.w3.org/1999/xlink"><defs /><path d="M488 437Q488 437 503.5 433.0Q519 429 543 413Q543 413 554.5 434.0Q566 455 585.0 488.0Q604 521 625.0 558.5Q646 596 665.0 630.5Q684 665 697.0 688.0Q710 711 711 714Q715 720 705.0 727.0Q695 734 681.5 736.0Q668 738 662 731Q659 728 645.5 705.5Q632 683 612.0 649.5Q592 616 570.5 579.0Q549 542 530.5 509.5Q512 477 500.0 457.0Q488 437 488 437Z" fill="#f5f5f5" stroke="none" transform="scale(1,-1) translate(0,-256)" /></svg>