<?xml version="1.0" encoding="utf-8" ?>
<svg baseProfile="full" height="256" version="1.1" width="256" xmlns="http://www.w3.org/2000/svg" xmlns:ev="http://www.w3.org/2001/xml-events" xmlns:xlink="http://www.w3.org/1999/xlink"><defs /><path d="M897 215Q905 215 910.5 209.5Q916 204 916 196V26Q916 18 910.5 12.5Q905 7 897 7H814Q806 7 800.5 12.5Q795 18 795 26V196Q795 204 800.5 209.5Q806 215 814 215Z" fill="#bae2fd" stroke="none" transform="scale(1,-1) translate(0,-256)" /><path d="M1133 215Q1141 215 1146.5 209.5Q1152 204 1152 196V92Q1152 84 1146.5 78.5Q1141 73 1133 73H1031Q1024 73 1018.5 78.5Q1013 84 1013 92V196Q1013 204 1018.5 209.5Q1024 215 1031 215Z" fill="#bae2fd" stroke="none" transform="scale(1,-1) translate(0,-256)" /><path d="M462.5 215.0Q470.5 215.0 476.0 209.5Q481.5 204.0 481.5 196.0V92.0Q481.5 84.0 476.0 78.5Q470.5 73.0 462.5 73.0H360.5Q353.5 73.0 348.0 78.5Q342.5 84.0 342.5 92.0V196.0Q342.5 204.0 348.0 209.5Q353.5 215.0 360.5 215.0Z" fill="#bae2fd" stroke="none" transform="scale(1,-1) translate(0,-256)" /></svg>