<?xml version="1.0" encoding="utf-8" ?>
<svg baseProfile="full" height="256" version="1.1" width="256" xmlns="http://www.w3.org/2000/svg" xmlns:ev="http://www.w3.org/2001/xml-events" xmlns:xlink="http://www.w3.org/1999/xlink"><defs /><path d="M886 72Q892 70 891.0 62.0Q890 54 888 47Q886 40 878.0 25.5Q870 11 868 8Q867 4 864.5 -2.5Q862 -9 861 -14Q859 -21 852.0 -34.5Q845 -48 841 -53Q837 -59 832.5 -61.0Q828 -63 822 -58Q817 -52 818.5 -48.0Q820 -44 820 -40Q820 -36 821.0 -28.5Q822 -21 822 -15Q822 -9 821.5 -3.0Q821 3 822 9Q823 16 836.5 25.0Q850 34 853 36Q860 42 870 58Q879 74 886 72Z" fill="#7add8a" stroke="none" transform="scale(1,-1) translate(0,-256)" /><path d="M422 791Q430 791 429 776Q429 766 428.5 756.0Q428 746 426 741Q425 735 418.5 730.5Q412 726 411 726Q409 725 399.0 725.0Q389 725 388 726Q386 726 386.0 728.5Q386 731 384 732Q381 733 380 730Q379 727 374 728Q367 729 364.0 732.5Q361 736 361 738Q361 741 369.5 748.5Q378 756 383 758Q388 759 393.5 759.0Q399 759 403 760Q406 762 406.0 769.0Q406 776 407 779Q408 783 412.0 787.0Q416 791 422 791Z" fill="#7add8a" stroke="none" transform="scale(1,-1) translate(0,-256)" /><path d="M686 875Q690 871 696.0 871.5Q702 872 704 872Q707 871 710.0 867.0Q713 863 710 861Q708 858 694.0 853.0Q680 848 673 846Q666 845 662.5 847.0Q659 849 656 853Q652 856 642.0 862.5Q632 869 628 872Q623 875 617.0 875.5Q611 876 606 875Q601 874 593.5 871.0Q586 868 576 863Q565 858 551.0 848.5Q537 839 535 836Q533 833 531.0 831.0Q529 829 526 826Q523 823 518.0 821.0Q513 819 507 816Q501 813 494.0 810.0Q487 807 483 799Q479 790 480.5 783.0Q482 776 489 775Q496 774 500.0 779.0Q504 784 506 784Q508 783 508.0 779.0Q508 775 508 774Q509 773 511.5 767.0Q514 761 520 761Q526 760 530.5 765.0Q535 770 540 774Q545 779 549.5 783.0Q554 787 554 791Q554 794 553.0 798.0Q552 802 552 802Q552 802 556.0 807.0Q560 812 563 816Q566 819 570.5 824.5Q575 830 580 827Q585 825 583.0 821.0Q581 817 580 814Q578 812 573.5 806.0Q569 800 571 797Q572 795 577.0 797.0Q582 799 588 800Q595 802 602.0 803.5Q609 805 611 798Q613 791 605.0 789.0Q597 787 592 786Q588 785 581.0 784.0Q574 783 574 783Q574 783 572.0 780.5Q570 778 567 774Q564 770 559.5 767.5Q555 765 549 761Q542 757 537.5 751.5Q533 746 531 745Q529 744 524.0 742.5Q519 741 514 742Q508 743 505.0 748.0Q502 753 497 757Q491 760 487.0 759.5Q483 759 480 758Q477 756 476.0 752.0Q475 748 471 746Q468 744 461.0 743.0Q454 742 450 739Q446 737 442.0 732.5Q438 728 434 724Q430 720 423.0 715.5Q416 711 412 710Q409 709 405.0 712.0Q401 715 396 713Q391 711 388.5 708.5Q386 706 386 706Q386 706 383.0 703.5Q380 701 378 700Q372 696 373 690Q373 686 379.0 681.0Q385 676 386 674Q387 672 385.0 671.5Q383 671 382 669Q381 666 380.0 664.0Q379 662 379 662Q379 662 370.5 661.5Q362 661 353 661Q344 662 340.0 664.0Q336 666 330 662Q325 657 322.5 650.5Q320 644 318 638Q316 632 309.5 621.5Q303 611 303 608Q303 604 305.5 601.0Q308 598 309 593Q311 588 318.0 583.0Q325 578 327 578Q329 578 334.0 579.0Q339 580 342 581Q345 583 352.0 585.5Q359 588 362 591Q366 594 370.0 601.5Q374 609 377 613Q382 621 396 628Q403 631 407.5 639.5Q412 648 412 648Q412 648 418.0 649.0Q424 650 432 652Q440 655 445.5 662.0Q451 669 454 669Q456 669 461.0 656.5Q466 644 470 640Q474 636 481.5 630.5Q489 625 494 619Q504 607 510 607Q513 607 515.0 612.5Q517 618 516 623Q515 627 506.0 635.5Q497 644 493 656Q488 667 489.5 673.5Q491 680 491 680Q491 680 495.0 675.0Q499 670 503 666Q508 661 514.5 659.0Q521 657 525 652Q530 647 532.0 641.0Q534 635 537 628Q539 620 544.0 611.0Q549 602 552 599Q554 596 553.5 594.0Q553 592 556 587Q561 577 572 586Q579 593 573 603Q567 612 571 625Q573 631 580.0 631.0Q587 631 590 631Q592 632 598.0 633.0Q604 634 609 637Q614 640 612.5 646.5Q611 653 612 655Q613 659 623 669Q627 673 633.5 678.5Q640 684 645 684Q649 685 653.0 681.5Q657 678 664 678Q670 678 676.5 682.5Q683 687 692 687Q701 686 710.5 676.0Q720 666 723 663Q726 660 733.5 661.5Q741 663 741 658Q741 653 731.0 647.5Q721 642 718 642Q715 641 700.5 640.5Q686 640 683 641Q680 642 678.0 645.0Q676 648 671 648Q666 648 663.0 646.5Q660 645 656 644Q652 642 644.5 641.0Q637 640 629 637Q622 634 614.5 630.5Q607 627 604 622Q602 617 604.0 610.0Q606 603 611 599Q615 594 622.0 590.5Q629 587 633 585Q638 584 641.0 587.0Q644 590 648 590Q651 591 654.5 589.5Q658 588 665 590Q673 591 680.0 597.0Q687 603 690 601Q693 600 693.5 593.0Q694 586 694 580Q695 573 693.5 558.0Q692 543 690 539Q688 535 683.0 534.5Q678 534 672 533Q667 531 666.0 528.0Q665 525 660 523Q657 522 640.5 525.0Q624 528 606.0 532.0Q588 536 581 537Q570 539 560.5 540.5Q551 542 544 540Q537 538 535.0 530.5Q533 523 529 521Q525 519 515.5 523.5Q506 528 498 531Q491 535 486.5 539.5Q482 544 480 545Q478 546 474.0 546.5Q470 547 466 548Q463 549 458.5 551.0Q454 553 452 556Q450 559 453.0 564.0Q456 569 457 571Q457 574 456.0 578.0Q455 582 447 588Q439 593 428.5 593.0Q418 593 411 591Q404 590 396.5 590.0Q389 590 380 588Q371 585 360.5 578.5Q350 572 346 571Q342 570 336.5 570.5Q331 571 327 571Q322 571 316.0 572.5Q310 574 305 573Q293 571 280 556Q274 548 271.5 538.5Q269 529 269 529Q269 529 268.5 526.0Q268 523 259 511Q250 500 243.5 500.0Q237 500 233 495Q229 490 225.5 483.0Q222 476 218 469Q214 462 207.0 455.0Q200 448 198 443Q196 439 197.0 432.5Q198 426 197 417Q196 408 190.0 387.5Q184 367 181 358Q178 348 176.5 337.5Q175 327 178 309Q181 290 189.5 286.5Q198 283 198 283Q198 283 199.5 280.0Q201 277 204 272Q207 266 213.0 260.5Q219 255 225 246Q230 237 239.0 228.5Q248 220 255 219Q262 217 266.5 222.5Q271 228 279 225Q288 223 291.5 217.0Q295 211 307 211Q319 210 331.5 219.5Q344 229 355 229Q366 228 372.5 218.5Q379 209 384 207Q389 204 395.5 205.5Q402 207 411 204Q419 201 422.0 193.5Q425 186 424 181Q423 175 422.0 162.0Q421 149 428 132Q436 115 447.5 107.0Q459 99 469 82Q478 65 482.0 47.0Q486 29 486 29Q486 29 478.5 18.0Q471 7 471 -6Q472 -19 477.5 -26.5Q483 -34 494 -46Q505 -58 514.5 -70.5Q524 -83 528 -89Q532 -94 537.5 -100.0Q543 -106 548 -109Q554 -112 557.5 -115.5Q561 -119 564 -123Q567 -127 575.0 -133.0Q583 -139 594 -143Q602 -146 615.5 -146.5Q629 -147 641.0 -146.5Q653 -146 657 -146Q664 -145 687 -125Q700 -114 702.0 -108.0Q704 -102 710 -99Q715 -96 727.5 -84.5Q740 -73 742 -63Q745 -54 744.0 -46.0Q743 -38 747 -31Q750 -27 758.0 -18.5Q766 -10 775.0 -2.5Q784 5 787 9Q792 14 792.5 20.5Q793 27 793 37Q794 43 792.5 59.5Q791 76 790.5 95.5Q790 115 793 130Q798 152 812.5 169.0Q827 186 840 197Q852 208 859.5 218.5Q867 229 871 235Q875 240 880.0 247.5Q885 255 892 273Q898 291 899.0 309.5Q900 328 894 330Q887 332 874.0 324.0Q861 316 850 312Q839 308 829.0 306.0Q819 304 814 308Q808 311 808.5 316.0Q809 321 803 330Q797 339 784.5 345.5Q772 352 767 356Q762 360 761.0 366.5Q760 373 755 379Q751 385 748.5 384.5Q746 384 741 389Q736 393 735.5 403.0Q735 413 730 424Q726 436 721.5 436.0Q717 436 713 439Q709 442 709.0 445.5Q709 449 708 455Q706 466 697 480Q692 488 688.5 494.5Q685 501 690 503Q694 506 698.0 500.5Q702 495 706 491Q709 486 715.0 480.5Q721 475 722 471Q723 462 729 457Q732 455 736.5 452.5Q741 450 744 446Q746 442 746.5 439.0Q747 436 748 433Q749 431 756.5 421.0Q764 411 769 405Q773 399 777.5 397.0Q782 395 786 390Q791 385 797.0 377.5Q803 370 806 360Q809 350 813.0 342.0Q817 334 824 332Q830 331 835.5 334.5Q841 338 849 342Q857 346 862.5 347.5Q868 349 880 356Q892 364 894.0 369.5Q896 375 896 375L916 391Q916 391 921.5 393.0Q927 395 934 402Q940 410 946.0 431.5Q952 453 950 462Q948 471 941.5 473.5Q935 476 929 481Q922 487 917.5 492.0Q913 497 908 497Q903 496 902.5 492.0Q902 488 899 484Q897 480 891.5 477.0Q886 474 883 473Q880 472 869.0 479.5Q858 487 855 491Q852 496 851.0 499.5Q850 503 845 509Q839 514 833.5 517.0Q828 520 824 528Q821 536 826.5 539.0Q832 542 835 540Q839 539 844.5 534.0Q850 529 856 523Q861 518 867.0 514.0Q873 510 881 510Q889 510 897.0 518.5Q905 527 913 521Q921 515 921.5 509.5Q922 504 938 503Q953 502 958.5 505.0Q964 508 971 510Q978 512 985.5 513.0Q993 514 997 511Q999 510 1009.0 499.0Q1019 488 1029.0 476.5Q1039 465 1043 463Q1048 460 1053.5 460.5Q1059 461 1059 461Q1059 461 1060.5 455.0Q1062 449 1064 444Q1067 438 1075.5 424.5Q1084 411 1090 398Q1095 385 1100.0 371.5Q1105 358 1116 360Q1124 362 1125.0 373.0Q1126 384 1125.0 397.5Q1124 411 1124 421Q1123 436 1125.5 450.5Q1128 465 1134 497Q1140 530 1139.5 549.0Q1139 568 1141 572Q1143 576 1141.5 584.0Q1140 592 1140 592Q1140 592 1131.0 611.5Q1122 631 1102.0 663.0Q1082 695 1048.5 732.0Q1015 769 965 804Q914 841 868.5 860.5Q823 880 787.5 888.0Q752 896 732.0 897.5Q712 899 712 899Q712 899 704.0 894.0Q696 889 691 886Q681 881 686 875Z" fill="#7add8a" stroke="none" transform="scale(1,-1) translate(0,-256)" /></svg>