<?xml version="1.0" encoding="utf-8" ?>
<svg baseProfile="full" height="256" version="1.1" width="256" xmlns="http://www.w3.org/2000/svg" xmlns:ev="http://www.w3.org/2001/xml-events" xmlns:xlink="http://www.w3.org/1999/xlink"><defs /><path d="M396 864Q396 864 409.0 869.0Q422 874 439 880Q456 885 474.0 889.5Q492 894 492 894Q492 894 499.5 892.5Q507 891 516 891Q525 891 537.5 890.5Q550 890 552 885Q553 879 548.0 876.0Q543 873 535 871Q529 869 515.0 864.5Q501 860 486.5 855.5Q472 851 466 848Q458 844 440.5 836.0Q423 828 421 827Q419 826 412.5 825.0Q406 824 395 820Q385 816 376.0 811.5Q367 807 362 806Q357 804 353.5 806.5Q350 809 350 811Q349 815 357.5 823.0Q366 831 373 837Q380 844 388.0 854.0Q396 864 396 864Z" fill="#ffffff" stroke="none" transform="scale(1,-1) translate(0,-256)" /></svg>