<?xml version="1.0" encoding="utf-8" ?>
<svg baseProfile="full" height="256" version="1.1" width="256" xmlns="http://www.w3.org/2000/svg" xmlns:ev="http://www.w3.org/2001/xml-events" xmlns:xlink="http://www.w3.org/1999/xlink"><defs /><path d="M241.9696044921875 108.22065734863281Q283.16966247558594 143.8368682861328 342.250732421875 164.31118774414062Q401.33180236816406 184.78550720214844 471.002685546875 184.9096908569336Q540.6735687255859 185.03387451171875 616.6170120239258 160.06243896484375Q692.5604553222656 135.09100341796875 768.939079284668 80.98200988769531Q845.3177032470703 26.873016357421875 916.6069946289062 -60.80549621582031Q987.2705535888672 -147.70396423339844 1025.6033172607422 -233.61672973632812Q1063.9360809326172 -319.5294952392578 1074.8147277832031 -398.6212692260742Q1085.693374633789 -477.7130432128906 1074.3958587646484 -547.0316925048828Q1063.0983428955078 -616.350341796875 1034.836311340332 -671.0738830566406Q1006.5742797851562 -725.7974243164062 966.6256866455078 -762.9737243652344Q927.2586212158203 -799.6835021972656 869.4732208251953 -822.9644775390625Q811.6878204345703 -846.2454528808594 741.814582824707 -849.0960311889648Q671.9413452148438 -851.9466094970703 594.5661849975586 -828.764762878418Q517.1910247802734 -805.5829162597656 437.16851806640625 -749.9100723266602Q357.14601135253906 -694.2372283935547 280.2251281738281 -599.5383148193359Q200.84552001953125 -502.9657897949219 162.06727600097656 -412.92330169677734Q123.28903198242188 -322.8808135986328 115.67509460449219 -243.093017578125Q108.0611572265625 -163.3052215576172 123.91905212402344 -96.09720611572266Q139.77694702148438 -28.889190673828125 171.4363021850586 22.790672302246094Q203.0956573486328 74.47053527832031 241.9696044921875 108.22065734863281Z" fill="#000000" stroke="none" transform="scale(1,-1) translate(0,-256)" /><path d="M-131.5330810546875 176.16015625Q-129.6383056640625 175.52001953125 -114.82044982910156 175.63990783691406Q-100.00259399414062 175.75979614257812 -79.41151428222656 177.34657287597656Q-58.8204345703125 178.933349609375 -40.41206359863281 183.4322052001953Q-22.003692626953125 187.93106079101562 -13.875274658203125 196.36892700195312Q-6.97686767578125 204.29034423828125 -11.067626953125 215.61370849609375Q-15.15838623046875 226.93707275390625 -23.698150634765625 237.58883666992188Q-32.2379150390625 248.2406005859375 -40.34577941894531 255.4844512939453Q-48.453643798828125 262.7283020019531 -48.453643798828125 262.7283020019531Q-68.82513427734375 271.16400146484375 -83.56471252441406 280.64833068847656Q-98.30429077148438 290.1326599121094 -107.5008544921875 297.2783203125Q-116.7916259765625 304.1451416015625 -126.03263854980469 309.59715270996094Q-135.27365112304688 315.0491638183594 -140.58114624023438 318.0849304199219Q-144.94125366210938 320.8006286621094 -151.57562255859375 324.5953369140625Q-158.20999145507812 328.3900451660156 -174.603515625 336.1031494140625Q-191.09124755859375 343.53741455078125 -208.52371215820312 349.7375183105469Q-225.9561767578125 355.9376220703125 -228.41619873046875 354.90472412109375Q-230.97042846679688 353.5929870605469 -224.61602783203125 347.40753173828125Q-218.26162719726562 341.2220764160156 -215.50836181640625 336.87457275390625Q-212.75509643554688 332.5270690917969 -211.80239868164062 329.0985412597656Q-210.84970092773438 325.6700134277344 -215.11029052734375 325.55609130859375Q-218.5177001953125 324.84326171875 -223.20753479003906 326.58302307128906Q-227.89736938476562 328.3227844238281 -236.98910522460938 329.5303649902344Q-246.08084106445312 330.7379455566406 -253.4164581298828 329.33290100097656Q-260.7520751953125 327.9278564453125 -265.0126647949219 327.8139343261719Q-269.27325439453125 327.70001220703125 -275.5254821777344 329.5016174316406Q-281.7777099609375 331.30322265625 -287.9330749511719 331.8294372558594Q-293.9942321777344 332.6344909667969 -293.7560577392578 331.77735900878906Q-293.51788330078125 330.92022705078125 -298.7258605957031 331.1263732910156Q-302.9864501953125 331.012451171875 -312.50743103027344 334.07371520996094Q-322.0284118652344 337.1349792480469 -332.92071533203125 339.26153564453125Q-344.66619873046875 341.98699951171875 -345.0901336669922 340.7322235107422Q-345.5140686035156 339.4774475097656 -348.7330627441406 339.3222961425781Q-351.9520568847656 339.1671447753906 -355.2679138183594 340.2873840332031Q-358.5837707519531 341.4076232910156 -364.3623046875 343.0491943359375Q-374.97198486328125 346.01226806640625 -389.0832824707031 347.9836730957031Q-397.1334228515625 349.1500244140625 -403.6211700439453 350.25453186035156Q-410.1089172363281 351.3590393066406 -411.53265380859375 353.39337158203125Q-413.99798583984375 355.46893310546875 -408.4105224609375 354.82391357421875Q-402.82305908203125 354.17889404296875 -398.65667724609375 354.01397705078125Q-393.6371154785156 353.2501525878906 -387.8612365722656 353.1628112792969Q-382.0853576660156 353.0754699707031 -378.20159912109375 352.07403564453125Q-369.5809020996094 349.4722595214844 -364.2787170410156 349.5449523925781Q-362.101318359375 349.7413330078125 -359.3089141845703 350.19593811035156Q-356.5165100097656 350.6505432128906 -352.4443359375 350.206787109375Q-348.46636962890625 349.48419189453125 -345.5771026611328 348.6634063720703Q-342.6878356933594 347.8426208496094 -339.75146484375 347.1612548828125Q-337.7624816894531 346.7999572753906 -327.58204650878906 345.69056701660156Q-317.401611328125 344.5811767578125 -311.2462463378906 344.0549621582031Q-305.1850891113281 343.2499084472656 -302.8663787841797 343.8645477294922Q-300.54766845703125 344.47918701171875 -295.43389892578125 343.99420166015625Q-290.2259216308594 343.7880554199219 -282.5552673339844 343.0605773925781Q-274.8846130371094 342.3330993652344 -265.12811279296875 339.96893310546875Q-255.37161254882812 337.6047668457031 -247.41567993164062 336.1595764160156Q-239.45974731445312 334.7143859863281 -236.905517578125 336.026123046875Q-235.39288330078125 337.37908935546875 -238.1905975341797 340.03294372558594Q-240.98831176757812 342.6867980957031 -244.02420043945312 346.1977844238281Q-247.06008911132812 349.7087707519531 -247.96302795410156 351.7224884033203Q-248.865966796875 353.7362060546875 -254.3671875 359.32275390625Q-260.8157958984375 365.2293701171875 -265.8380126953125 367.54742431640625Q-270.8602294921875 369.865478515625 -270.8602294921875 369.865478515625L-284.13427734375 380.5633544921875Q-284.13427734375 380.5633544921875 -285.5109100341797 382.7371063232422Q-286.8875427246094 384.9108581542969 -292.85980224609375 389.10321044921875Q-299.8736572265625 393.3367919921875 -319.67724609375 401.89129638671875Q-339.4808349609375 410.44580078125 -348.19573974609375 412.76873779296875Q-356.91064453125 415.0916748046875 -359.89146423339844 414.0793914794922Q-362.8722839355469 413.0671081542969 -368.1744689941406 412.9944152832031Q-374.51824951171875 412.96295166015625 -379.6791229248047 413.3085174560547Q-384.8399963378906 413.6540832519531 -385.31103515625 412.2598876953125Q-384.8346862792969 410.5456237792969 -381.0922393798828 409.1259307861328Q-377.34979248046875 407.70623779296875 -373.8428649902344 405.5894470214844Q-370.2417297363281 403.7514953613281 -367.91770935058594 401.25767517089844Q-365.59368896484375 398.76385498046875 -364.9289245605469 397.6072692871094Q-364.26416015625 396.45068359375 -372.4058532714844 395.7839660644531Q-380.54754638671875 395.11724853515625 -384.6197204589844 395.5610046386719Q-389.6392822265625 396.3248291015625 -393.0493469238281 397.1662292480469Q-396.45941162109375 398.00762939453125 -402.6147766113281 398.5338439941406Q-407.9169616699219 398.4611511230469 -411.2772674560547 397.8877410888672Q-414.6375732421875 397.3143310546875 -422.593505859375 398.759521484375Q-430.4552307128906 400.4835510253906 -432.7792510986328 402.9773712158203Q-435.103271484375 405.47119140625 -432.9258728027344 405.6675720214844Q-431.6016540527344 406.4628601074219 -426.34657287597656 406.39613342285156Q-421.09149169921875 406.32940673828125 -414.8419189453125 406.08203125Q-409.6339416503906 405.8758850097656 -405.2791442871094 406.2686462402344Q-400.9243469238281 406.6614074707031 -400.1706848144531 408.8921203613281Q-399.4170227050781 411.1228332519531 -406.7161560058594 416.0741271972656Q-414.0152893066406 421.0254211425781 -407.5773010253906 421.3357238769531Q-401.1393127441406 421.6460266113281 -395.88157653808594 420.0250701904297Q-390.62384033203125 418.40411376953125 -388.16912841796875 422.54547119140625Q-385.8086242675781 426.4079895019531 -388.1326446533203 428.9018096923828Q-390.4566650390625 431.3956298828125 -391.6919860839844 433.9876403808594Q-392.92730712890625 436.57965087890625 -393.1681365966797 438.9910125732422Q-393.4089660644531 441.4023742675781 -390.1899719238281 441.5575256347656Q-389.0541687011719 441.7951354980469 -377.6908264160156 441.0627746582031Q-366.3274841308594 440.3304138183594 -354.4904479980469 439.4380187988281Q-342.6534118652344 438.5456237792969 -340.3818054199219 439.0208435058594Q-337.068603515625 439.454833984375 -337.02415466308594 441.1484832763672Q-336.9797058105469 442.8421325683594 -336.9797058105469 442.8421325683594Q-336.9797058105469 442.8421325683594 -331.15406799316406 441.33998107910156Q-325.32843017578125 439.83782958984375 -320.403076171875 438.795166015625Q-314.4361267089844 437.7112731933594 -300.8456268310547 435.76048278808594Q-287.255126953125 433.8096923828125 -274.37384033203125 431.32183837890625Q-261.5867614746094 428.5551452636719 -248.32598876953125 425.62841796875Q-235.06521606445312 422.7016906738281 -235.9237060546875 426.4090576171875Q-237.0648193359375 429.2799072265625 -247.39187622070312 433.0794982910156Q-257.71893310546875 436.87908935546875 -270.6028747558594 440.9211730957031Q-283.48681640625 444.9632568359375 -292.960693359375 448.1639404296875Q-307.2657165527344 452.6861267089844 -320.76731872558594 458.0242156982422Q-334.2689208984375 463.3623046875 -364.02008056640625 475.27752685546875Q-394.7186279296875 487.5128173828125 -412.76609802246094 493.45469665527344Q-430.8135681152344 499.3965759277344 -434.4147033691406 501.2345275878906Q-438.0158386230469 503.0724792480469 -445.7362518310547 505.2147674560547Q-453.4566650390625 507.3570556640625 -453.4566650390625 507.3570556640625Q-453.4566650390625 507.3570556640625 -472.7785949707031 511.0888366699219Q-492.10052490234375 514.8206176757812 -524.3010864257812 519.4860229492188Q-556.5016479492188 524.1514282226562 -594.7109527587891 526.6528472900391Q-632.9202575683594 529.1542663574219 -670.6950073242188 526.6935424804688Q-710.6471557617188 524.0364379882812 -733.4076690673828 517.5905914306641Q-756.1681823730469 511.1447448730469 -767.0916595458984 503.80650329589844Q-778.01513671875 496.46826171875 -781.3203735351562 491.37158203125Q-784.6256103515625 486.27490234375 -784.6256103515625 486.27490234375Q-784.6256103515625 486.27490234375 -780.642333984375 482.44384765625Q-776.6590576171875 478.61279296875 -774.1937255859375 476.5372314453125Q-770.4930725097656 471.8696594238281 -764.2434997558594 471.6222839355469Q-760.1713256835938 471.17852783203125 -760.0797729492188 473.0115966796875Q-759.9882202148438 474.84466552734375 -759.7055969238281 475.6811828613281Q-758.5697937011719 475.9187927246094 -754.4976196289062 475.47503662109375Q-750.4254455566406 475.0312805175781 -748.7190856933594 473.8334655761719Q-746.1595458984375 472.0367431640625 -742.7415161132812 466.53265380859375Q-739.323486328125 461.028564453125 -738.0881652832031 458.4365539550781Q-737.3238830566406 454.4503479003906 -720.6424255371094 444.4653015136719Q-703.9609680175781 434.4802551269531 -670.7081909179688 423.55670166015625Q-636.6022338867188 412.03424072265625 -613.0223693847656 409.9706115722656Q-589.4425048828125 407.906982421875 -585.66357421875 412.8436279296875Q-583.8683166503906 415.0331115722656 -573.4994659423828 414.4813995361328Q-563.130615234375 413.9296875 -560.0058288574219 413.8059997558594Q-556.8810424804688 413.68231201171875 -558.0692596435547 416.4137420654297Q-559.2574768066406 419.1451721191406 -553.5731506347656 417.2247619628906Q-548.8362121582031 415.6244201660156 -544.5676574707031 411.0756530761719Q-540.2991027832031 406.5268859863281 -540.5817260742188 405.69036865234375Q-539.9169616699219 404.5337829589844 -541.2829742431641 400.49061584472656Q-542.6489868164062 396.44744873046875 -542.9316101074219 395.6109313964844Q-544.16162109375 395.094482421875 -547.1921997070312 395.49700927734375Q-550.2227783203125 395.8995361328125 -550.6938171386719 394.5053405761719Q-551.1648559570312 393.11114501953125 -550.0263977050781 391.7945251464844Q-548.887939453125 390.4779052734375 -548.3173828125 389.04248046875Q-546.7994384765625 387.2869873046875 -546.5586090087891 384.87562561035156Q-546.3177795410156 382.4642639160156 -544.2292785644531 379.2733459472656Q-542.0465698242188 376.36126708984375 -539.4372711181641 373.1497344970703Q-536.8279724121094 369.9382019042969 -532.3736572265625 367.5013427734375Q-527.8251342773438 365.34332275390625 -521.0050048828125 363.6605224609375Q-514.1848754882812 361.97772216796875 -509.9242858886719 362.0916442871094Q-505.7579040527344 361.9267272949219 -501.30889892578125 362.59832763671875Q-496.8598937988281 363.2699279785156 -494.5882873535156 363.7451477050781Q-493.16986083984375 364.81927490234375 -495.7294006347656 366.6159973144531Q-498.2889404296875 368.4127197265625 -498.8594970703125 369.84814453125Q-498.5768737792969 370.6846618652344 -496.82606506347656 371.1804962158203Q-495.07525634765625 371.67633056640625 -496.3105773925781 374.2683410644531Q-496.5043029785156 376.8191223144531 -501.5291748046875 380.69140625Q-506.5540466308594 384.5636901855469 -505.32403564453125 385.08013916015625Q-503.1466369628906 385.2765197753906 -496.4678192138672 383.1754608154297Q-489.78900146484375 381.07440185546875 -484.10467529296875 379.15399169921875Q-477.3787536621094 377.1923522949219 -463.78294372558594 372.1331024169922Q-450.1871337890625 367.0738525390625 -446.58599853515625 365.23590087890625Q-442.98486328125 363.39794921875 -442.5085144042969 361.6836853027344Q-442.03216552734375 359.96942138671875 -441.6500244140625 357.976318359375Q-440.2262878417969 355.9419860839844 -437.47833251953125 354.70294189453125Q-434.7303771972656 353.4638977050781 -433.306640625 351.4295654296875Q-432.6418762207031 350.2729797363281 -437.5121612548828 346.79237365722656Q-442.3824462890625 343.311767578125 -447.39404296875 339.41290283203125Q-452.4056396484375 335.5140380859375 -454.9598693847656 334.2023010253906Q-456.94354248046875 331.45513916015625 -459.73329162597656 329.44630432128906Q-462.5230407714844 327.4374694824219 -461.2877197265625 324.845458984375Q-459.1050109863281 321.9333801269531 -452.6617126464844 319.1352233886719Q-446.2184143066406 316.3370666503906 -443.7530822753906 314.2615051269531Q-442.2351379394531 312.5060119628906 -447.3933563232422 311.29734802246094Q-452.55157470703125 310.08868408203125 -457.09478759765625 309.13824462890625Q-460.5964050292969 308.1465759277344 -465.28358459472656 308.3321075439453Q-469.97076416015625 308.51763916015625 -471.1065673828125 308.280029296875Q-472.24237060546875 308.04241943359375 -473.0928955078125 307.08709716796875Q-473.94342041015625 306.13177490234375 -475.26763916015625 305.33648681640625Q-477.4450378417969 305.1401062011719 -479.7637481689453 304.5254669189453Q-482.08245849609375 303.91082763671875 -484.1656494140625 303.9932861328125Q-487.19622802734375 304.39581298828125 -491.6505432128906 306.8326721191406Q-496.1048583984375 309.26953125 -498.8528137207031 310.5085754394531Q-500.7475891113281 311.1487121582031 -504.63134765625 312.150146484375Q-508.5151062011719 313.1515808105469 -514.9530944824219 312.8412780761719Q-520.4436950683594 312.2109069824219 -521.4328765869141 309.28309631347656Q-522.4220581054688 306.35528564453125 -521.1867370605469 303.7632751464844Q-520.8988037109375 301.4913330078125 -521.6053619384766 299.40003967285156Q-522.3119201660156 297.3087463378906 -521.2650146484375 294.1590576171875Q-520.2181091308594 291.0093688964844 -514.5755767822266 285.84107971191406Q-508.93304443359375 280.67279052734375 -508.36248779296875 279.23736572265625Q-507.79193115234375 277.80194091796875 -509.25746154785156 276.58839416503906Q-510.7229919433594 275.3748474121094 -511.0998229980469 274.2594909667969Q-511.57086181640625 272.86529541015625 -513.08349609375 271.5123291015625Q-514.5961303710938 270.15936279296875 -515.0671691894531 268.7651672363281Q-514.3028869628906 264.7789611816406 -500.369384765625 256.032958984375Q-493.35552978515625 251.79937744140625 -484.5908660888672 248.06163024902344Q-475.8262023925781 244.32388305664062 -475.8262023925781 244.32388305664062Q-475.8262023925781 244.32388305664062 -473.03114318847656 243.22425842285156Q-470.236083984375 242.1246337890625 -459.7153015136719 235.77426147460938Q-450.14190673828125 229.74395751953125 -450.75425720214844 227.93150329589844Q-451.3666076660156 226.11904907226562 -447.0065002441406 223.40335083007812Q-442.6463928222656 220.68765258789062 -436.3444061279297 217.4712371826172Q-430.04241943359375 214.25482177734375 -423.78753662109375 210.89898681640625Q-417.53265380859375 207.54315185546875 -411.5603942871094 203.35079956054688Q-405.588134765625 199.158447265625 -401.98699951171875 197.32049560546875Q-397.4384765625 195.1624755859375 -391.1862487792969 193.36087036132812Q-384.93402099609375 191.55926513671875 -376.5017395019531 188.39981079101562Q-368.0694580078125 185.2403564453125 -349.68695068359375 177.16595458984375Q-331.304443359375 169.091552734375 -322.1131896972656 165.05435180664062Q-312.92193603515625 161.01715087890625 -303.1156768798828 157.23817443847656Q-293.3094177246094 153.45919799804688 -275.97381591796875 148.53448486328125Q-257.6908264160156 143.28970336914062 -254.0478973388672 144.6996307373047Q-250.40496826171875 146.10955810546875 -250.40496826171875 146.10955810546875Q-250.40496826171875 146.10955810546875 -246.9477996826172 145.40757751464844Q-243.49063110351562 144.70559692382812 -238.4710693359375 143.9417724609375Q-233.45150756835938 143.17794799804688 -227.20193481445312 142.93057250976562Q-220.95236206054688 142.68319702148438 -211.86062622070312 141.47561645507812Q-202.86309814453125 139.98919677734375 -194.43612670898438 139.93820190429688Q-186.0091552734375 139.88720703125 -183.45492553710938 141.19894409179688Q-181.84808349609375 142.83074951171875 -186.1610870361328 145.6858673095703Q-190.47409057617188 148.54098510742188 -187.82565307617188 150.13156127929688Q-184.1356201171875 151.680908203125 -178.12156677246094 150.73643493652344Q-172.10751342773438 149.79196166992188 -170.97702026367188 153.13803100585938Q-168.89913940429688 156.16403198242188 -177.19541931152344 162.85020446777344Q-185.49169921875 169.536376953125 -183.50802612304688 172.28353881835938Q-181.52435302734375 175.03070068359375 -171.9118194580078 173.80250549316406Q-162.29928588867188 172.57431030273438 -159.9334716796875 173.328369140625Q-156.62026977539062 173.76235961914062 -157.4290008544922 176.05491638183594Q-158.23773193359375 178.34747314453125 -154.54769897460938 179.89682006835938Q-150.95187377929688 181.16732788085938 -143.5638427734375 179.60333251953125Q-136.17581176757812 178.03933715820312 -131.5330810546875 176.16015625Z" fill="#000000" stroke="none" transform="scale(1,-1) translate(0,-256)" /><path d="M-67.70657348632812 295.8748016357422Q-69.00558471679688 294.3540802001953 -85.308349609375 289.86732482910156Q-101.61111450195312 285.3805694580078 -125.96786499023438 281.1975402832031Q-150.32461547851562 277.01451110839844 -175.79150390625 277.7251739501953Q-201.25839233398438 278.4358367919922 -220.23614501953125 288.0703125Q-237.2535400390625 297.345458984375 -246.3646697998047 314.9915237426758Q-255.47579956054688 332.63758850097656 -258.9302520751953 350.71248626708984Q-262.38470458984375 368.7873840332031 -262.2254333496094 381.8028259277344Q-262.066162109375 394.8182678222656 -262.066162109375 394.8182678222656Q-249.9617919921875 413.412353515625 -245.2559814453125 431.7503204345703Q-240.5501708984375 450.0882873535156 -239.08596801757812 463.3042449951172Q-237.184814453125 476.14697265625 -233.6421356201172 486.9299850463867Q-230.09945678710938 497.71299743652344 -227.95022583007812 503.76808166503906Q-226.45050048828125 509.06280517578125 -223.7639617919922 516.6316604614258Q-221.07742309570312 524.2005157470703 -212.44497680664062 540.4996185302734Q-203.37557983398438 556.4254913330078 -191.7966766357422 570.8653945922852Q-180.2177734375 585.3052978515625 -176.29705810546875 584.5866394042969Q-171.93939208984375 583.4947509765625 -171.455078125 572.5598754882812Q-170.97076416015625 561.625 -168.7623291015625 554.47802734375Q-166.55389404296875 547.3310546875 -163.4833984375 542.0780334472656Q-160.41290283203125 536.8250122070312 -155.630126953125 538.0003051757812Q-151.05990600585938 538.0420074462891 -148.03085327148438 542.0304260253906Q-145.00180053710938 546.0188446044922 -136.5345458984375 550.6227111816406Q-128.06729125976562 555.2265777587891 -118.38362121582031 555.503547668457Q-108.699951171875 555.780517578125 -103.91717529296875 556.955810546875Q-99.1343994140625 558.131103515625 -94.47566223144531 562.7002182006836Q-89.81692504882812 567.2693328857422 -83.73513793945312 569.9653472900391Q-78.09030151367188 573.0345916748047 -77.32267761230469 571.7213363647461Q-76.5550537109375 570.4080810546875 -71.12277221679688 572.3437347412109Q-66.33999633789062 573.5190277099609 -59.62646484375 580.9360198974609Q-52.912933349609375 588.3530120849609 -43.5836181640625 594.850830078125Q-34.041748046875 602.4822387695312 -32.075469970703125 600.8027038574219Q-30.10919189453125 599.1231689453125 -26.412872314453125 599.9113311767578Q-22.716552734375 600.6994934082031 -20.443283081054688 603.3607559204102Q-18.170013427734375 606.0220184326172 -13.836029052734375 610.2109527587891Q-5.81756591796875 617.8284606933594 7.20806884765625 625.1144409179688Q14.5888671875 629.3311767578125 20.339981079101562 632.9672164916992Q26.091094970703125 636.6032562255859 25.205352783203125 639.9901275634766Q25.40606689453125 643.7641296386719 20.085983276367188 641.075065612793Q14.765899658203125 638.3860015869141 10.420074462890625 636.8374786376953Q5.8616943359375 634.1553649902344 -0.3322906494140625 632.212760925293Q-6.526275634765625 630.2701568603516 -9.561248779296875 627.6019439697266Q-15.84375 621.1319274902344 -21.712982177734375 619.5695037841797Q-24.322845458984375 619.1684722900391 -27.912887573242188 618.9471054077148Q-31.5029296875 618.7257385253906 -35.41180419921875 616.8039855957031Q-38.88372802734375 614.5090026855469 -41.05072021484375 612.4145355224609Q-43.21771240234375 610.320068359375 -45.603179931640625 608.4122161865234Q-47.339141845703125 607.2647247314453 -57.111328125 602.4603424072266Q-66.88351440429688 597.6559600830078 -72.96530151367188 594.9599456787109Q-78.61013793945312 591.8907012939453 -81.87542724609375 592.0495147705078Q-85.14071655273438 592.2083282470703 -90.13604736328125 589.8994445800781Q-95.56832885742188 587.9637908935547 -103.06132507324219 584.5004653930664Q-110.5543212890625 581.0371398925781 -118.3602294921875 574.55322265625Q-126.1661376953125 568.0693054199219 -133.1099853515625 563.4793395996094Q-140.0538330078125 558.8893737792969 -144.4114990234375 559.9812622070312Q-147.68270874023438 561.4602813720703 -147.8126678466797 566.1743087768555Q-147.942626953125 570.8883361816406 -148.8402099609375 576.9156188964844Q-149.73779296875 582.9429016113281 -151.16676330566406 586.1362075805664Q-152.59573364257812 589.3295135498047 -153.2926025390625 599.1307983398438Q-153.3399658203125 609.6924438476562 -150.64158630371094 614.6208877563477Q-147.94320678710938 619.5493316650391 -147.94320678710938 619.5493316650391L-146.29013061523438 639.1797027587891Q-146.29013061523438 639.1797027587891 -147.39434814453125 642.7531890869141Q-148.49856567382812 646.3266754150391 -147.01068115234375 654.2618103027344Q-144.43634033203125 662.5840759277344 -133.0936737060547 681.1712112426758Q-121.75100708007812 699.7583465576172 -115.03155517578125 705.8551330566406Q-108.31210327148438 711.9519195556641 -103.84815979003906 711.4268264770508Q-99.38421630859375 710.9017333984375 -93.51498413085938 712.4641571044922Q-86.55929565429688 714.4137115478516 -81.34548950195312 716.5359802246094Q-76.13168334960938 718.6582489013672 -73.94692993164062 716.7920989990234Q-72.41168212890625 714.1655883789062 -74.79122924804688 710.9375305175781Q-77.1707763671875 707.70947265625 -78.45794677734375 703.54833984375Q-80.18206787109375 699.7604370117188 -79.72735595703125 695.4265899658203Q-79.27264404296875 691.0927429199219 -78.61129760742188 689.2126922607422Q-77.949951171875 687.3326416015625 -68.27220153808594 688.929817199707Q-58.594451904296875 690.5269927978516 -54.685577392578125 692.4487457275391Q-50.127197265625 695.130859375 -47.41697692871094 697.4188919067383Q-44.706756591796875 699.7069244384766 -38.624969482421875 702.4029388427734Q-32.7557373046875 703.9653625488281 -28.40399169921875 704.1936798095703Q-24.05224609375 704.4219970703125 -17.1083984375 709.011962890625Q-10.60150146484375 713.9751586914062 -11.05621337890625 718.3090057373047Q-11.51092529296875 722.6428527832031 -14.12078857421875 722.2418212890625Q-16.518096923828125 722.9743804931641 -22.168853759765625 721.225341796875Q-27.819610595703125 719.4763031005859 -34.338348388671875 717.1535186767578Q-39.7706298828125 715.2178649902344 -44.9903564453125 714.4158020019531Q-50.2100830078125 713.6137390136719 -53.7056884765625 716.5995788574219Q-57.2012939453125 719.5854187011719 -55.17610168457031 729.0343246459961Q-53.150909423828125 738.4832305908203 -60.543548583984375 736.9069061279297Q-67.93618774414062 735.3305816650391 -71.72694396972656 731.3352127075195Q-75.5177001953125 727.33984375 -83.15841674804688 732.5511627197266Q-90.3621826171875 737.3892517089844 -90.81689453125 741.7230987548828Q-91.2716064453125 746.0569458007812 -93.03125 750.1902770996094Q-94.7908935546875 754.3236083984375 -97.41851806640625 757.8831939697266Q-100.046142578125 761.4427795410156 -103.74246215820312 760.6546173095703Q-105.265869140625 760.6407165527344 -116.77993774414062 756.0090484619141Q-128.29400634765625 751.3773803710938 -140.13282775878906 746.3655319213867Q-151.97164916992188 741.3536834716797 -155.01846313476562 741.3258819580078Q-159.1517333984375 740.9109497070312 -161.23020935058594 743.3438949584961Q-163.30868530273438 745.7768402099609 -163.30868530273438 745.7768402099609Q-163.30868530273438 745.7768402099609 -167.86114501953125 741.7745208740234Q-172.41360473632812 737.7722015380859 -176.5350341796875 734.7168579101562Q-181.742919921875 731.2743835449219 -194.22532653808594 724.1819686889648Q-206.70773315429688 717.0895538330078 -217.77301025390625 709.4442443847656Q-228.40133666992188 701.4257049560547 -239.3544158935547 693.026985168457Q-250.3074951171875 684.6282653808594 -253.81494140625 690.2545166015625Q-256.01153564453125 694.7610778808594 -249.30392456054688 703.4982757568359Q-242.5963134765625 712.2354736328125 -233.3910369873047 722.1271133422852Q-224.18576049804688 732.0187530517578 -217.69070434570312 739.6223602294922Q-207.51116943359375 750.654541015625 -199.1857147216797 762.6128463745117Q-190.86026000976562 774.5711517333984 -172.69778442382812 801.1420745849609Q-153.88580322265625 828.4733581542969 -141.32672119140625 842.7335968017578Q-128.76763916015625 856.9938354492188 -127.04351806640625 860.78173828125Q-125.31939697265625 864.5696411132812 -119.46792602539062 870.0926818847656Q-113.616455078125 875.61572265625 -113.616455078125 875.61572265625Q-113.616455078125 875.61572265625 -97.01853942871094 887.0836868286133Q-80.42062377929688 898.5516510009766 -50.897430419921875 915.4185943603516Q-21.374237060546875 932.2855377197266 17.295318603515625 947.9156799316406Q55.964874267578125 963.5458221435547 100.108154296875 971.8701782226562Q146.86129760742188 980.5955657958984 179.4079132080078 978.4406356811523Q211.95452880859375 976.2857055664062 232.66232299804688 969.1189270019531Q253.3701171875 961.9521484375 263.08338928222656 955.6280899047852Q272.7966613769531 949.3040313720703 272.7966613769531 949.3040313720703Q272.7966613769531 949.3040313720703 273.04473876953125 942.5163879394531Q273.2928161621094 935.7287445068359 273.09210205078125 931.9547424316406Q274.6510314941406 924.0474090576172 268.1322937011719 921.7246246337891Q264.2234191894531 919.8028717041016 261.9264678955078 922.4224319458008Q259.6295166015625 925.0419921875 258.31866455078125 926.1616821289062Q256.7952575683594 926.1477813720703 252.88638305664062 924.2260284423828Q248.97750854492188 922.3042755126953 248.55239868164062 920.0370941162109Q247.91473388671875 916.6363220214844 250.78451538085938 907.6092987060547Q253.654296875 898.582275390625 255.4139404296875 894.4489440917969Q259.35833740234375 888.449462890625 253.13504028320312 868.7773895263672Q246.9117431640625 849.1053161621094 223.74209594726562 822.8659210205078Q200.35989379882812 795.4929351806641 177.11920166015625 785.0960083007812Q153.87850952148438 774.6990814208984 143.84048461914062 780.6429595947266Q139.2584228515625 783.2416687011719 128.61233520507812 779.1837463378906Q117.96624755859375 775.1258239746094 114.70687866210938 773.9644317626953Q111.447509765625 772.8030395507812 109.46939086914062 777.1229858398438Q107.49127197265625 781.4429321289062 103.59423828125 776.8807678222656Q100.34671020507812 773.0789642333984 101.14393615722656 765.164680480957Q101.941162109375 757.2503967285156 103.25201416015625 756.1307067871094Q103.91336059570312 754.2506561279297 110.2491455078125 748.8388214111328Q116.58493041992188 743.4269866943359 117.89578247070312 742.3072967529297Q119.85614013671875 741.9479675292969 122.67855834960938 743.4825897216797Q125.5009765625 745.0172119140625 127.68572998046875 743.1510620117188Q129.8704833984375 741.284912109375 130.2070770263672 739.0246810913086Q130.54367065429688 736.7644500732422 131.6419677734375 734.5111694335938Q132.09075927734375 731.4975280761719 134.7183837890625 727.9379425048828Q137.34600830078125 724.3783569335938 138.89309692382812 719.1114349365234Q140.00323486328125 714.2177429199219 141.00709533691406 708.7572555541992Q142.01095581054688 703.2967681884766 140.07427978515625 698.3752746582031Q137.70065307617188 693.8270111083984 132.28021240234375 689.2509460449219Q126.85977172851562 684.6748809814453 122.07699584960938 683.4995880126953Q117.73117065429688 681.9510650634766 112.07449340820312 681.5222320556641Q106.41781616210938 681.0933990478516 103.37100219726562 681.0655975341797Q100.5367431640625 682.17138671875 101.17440795898438 685.5721588134766Q101.81207275390625 688.9729309082031 100.71377563476562 691.2262115478516Q99.40292358398438 692.3459014892578 96.89933776855469 692.5116653442383Q94.395751953125 692.6774291992188 92.6361083984375 696.8107604980469Q89.79000854492188 700.5569610595703 90.62838745117188 707.7317352294922Q91.46676635742188 714.9065093994141 89.50640869140625 715.2658386230469Q86.89654541015625 714.8648071289062 82.13153076171875 709.7288970947266Q77.36651611328125 704.5929870605469 73.469482421875 700.0308227539062Q68.48599243164062 695.0815277099609 59.72358703613281 683.496452331543Q50.961181640625 671.911376953125 49.237060546875 668.1234741210938Q47.512939453125 664.3355712890625 49.048187255859375 661.7090606689453Q50.58343505859375 659.0825500488281 52.555633544921875 656.0828094482422Q53.441375732421875 652.6959381103516 51.9298095703125 650.0416259765625Q50.418243408203125 647.3873138427734 51.303985595703125 644.0004425048828Q51.96533203125 642.1203918457031 61.44828796386719 638.6233596801758Q70.93124389648438 635.1263275146484 81.06962585449219 631.069450378418Q91.2080078125 627.0125732421875 95.565673828125 625.9206848144531Q101.02163696289062 622.5755157470703 106.4716796875 620.5505523681641Q111.92172241210938 618.5255889892578 113.68136596679688 614.3922576904297Q114.79150390625 609.4985656738281 111.11886596679688 603.4295806884766Q107.44622802734375 597.360595703125 107.24551391601562 593.5865936279297Q107.69430541992188 590.5729522705078 114.76811218261719 590.4488906860352Q121.8419189453125 590.3248291015625 127.935546875 590.3804321289062Q132.94271850585938 590.0489044189453 137.83177185058594 591.7909927368164Q142.7208251953125 593.5330810546875 144.24423217773438 593.5469818115234Q145.76763916015625 593.5608825683594 147.84019470214844 592.4481430053711Q149.91275024414062 591.3354034423828 152.31005859375 590.6028442382812Q154.919921875 591.0038757324219 158.18521118164062 590.8450622558594Q161.45050048828125 590.6862487792969 163.6234130859375 591.4605102539062Q166.44583129882812 592.9951324462891 168.38250732421875 597.9166259765625Q170.31918334960938 602.8381195068359 171.83074951171875 605.492431640625Q173.1297607421875 607.0131530761719 176.16473388671875 609.6813659667969Q179.19970703125 612.3495788574219 186.59234619140625 613.9259033203125Q193.33547973632812 614.7418670654297 197.9234619140625 610.8229522705078Q202.51144409179688 606.9040374755859 204.27108764648438 602.7707061767578Q206.68023681640625 599.3977355957031 209.95736694335938 596.5985107421875Q213.2344970703125 593.7992858886719 215.8680419921875 588.9194946289062Q218.5015869140625 584.0397033691406 218.54302978515625 574.7982635498047Q218.58447265625 565.5568237304688 219.68276977539062 563.3035430908203Q220.78106689453125 561.0502624511719 223.83380126953125 559.7578582763672Q226.88653564453125 558.4654541015625 228.63433837890625 556.9725341796875Q230.819091796875 555.1063842773438 234.09030151367188 553.6273651123047Q237.36151123046875 552.1483459472656 239.5462646484375 550.2821960449219Q243.49066162109375 544.28271484375 238.7789306640625 527.2649536132812Q236.20458984375 518.9426879882812 231.1266632080078 510.7861862182617Q226.04873657226562 502.6296844482422 226.04873657226562 502.6296844482422Q226.04873657226562 502.6296844482422 224.31869506835938 500.1619873046875Q222.58865356445312 497.6942901611328 218.72714233398438 485.2108917236328Q215.51513671875 473.48785400390625 218.35531616210938 471.0618591308594Q221.19549560546875 468.6358642578125 219.69577026367188 463.3411407470703Q218.196044921875 458.0464172363281 215.1788330078125 451.41758728027344Q212.16162109375 444.78875732421875 209.36288452148438 437.9733123779297Q206.56414794921875 431.1578674316406 205.07626342773438 423.2227325439453Q203.58837890625 415.28759765625 201.8642578125 411.49969482421875Q199.49063110351562 406.95143127441406 194.83189392089844 402.38231658935547Q190.17315673828125 397.8132019042969 184.76455688476562 390.5967254638672Q179.35595703125 383.3802490234375 168.987548828125 365.93365478515625Q158.619140625 348.487060546875 153.4349365234375 339.7637634277344Q148.250732421875 331.04046630859375 142.0863494873047 322.49683380126953Q135.92196655273438 313.9532012939453 122.92001342773438 301.3863983154297Q109.2685546875 288.0592346191406 103.60595703125 288.9506072998047Q97.943359375 289.84197998046875 97.943359375 289.84197998046875Q97.943359375 289.84197998046875 95.01466369628906 287.74056243896484Q92.08596801757812 285.63914489746094 87.527587890625 282.95703125Q82.96920776367188 280.27491760253906 76.45046997070312 277.95213317871094Q69.93173217773438 275.6293487548828 61.4644775390625 271.0254821777344Q53.434173583984375 266.0483856201172 44.305572509765625 263.32456970214844Q35.176971435546875 260.6007537841797 30.819305419921875 261.69264221191406Q27.11114501953125 263.5448913574219 28.39239501953125 269.02622985839844Q29.67364501953125 274.507568359375 24.8790283203125 275.9726867675781Q18.997955322265625 277.05067443847656 13.57159423828125 273.79481506347656Q8.145233154296875 270.53895568847656 2.901824951171875 275.01771545410156Q-2.9910888671875 278.7361145019531 -1.957916259765625 291.0050964355469Q-0.92474365234375 303.2740783691406 -6.380706787109375 306.61924743652344Q-11.836669921875 309.96441650390625 -20.847152709960938 305.16698455810547Q-29.857635498046875 300.3695526123047 -33.341400146484375 300.71498107910156Q-37.47467041015625 300.300048828125 -39.34059143066406 303.86658477783203Q-41.206512451171875 307.43312072753906 -47.08758544921875 308.5111083984375Q-52.531707763671875 309.2158660888672 -58.71385192871094 304.63285064697266Q-64.89599609375 300.0498352050781 -67.70657348632812 295.8748016357422Z" fill="#000000" stroke="none" transform="scale(1,-1) translate(0,-256)" /><path d="M204.53729248046875 267.16139221191406Q207.3643798828125 270.74375915527344 209.86907958984375 277.5450134277344Q212.373779296875 284.3462677001953 213.1946258544922 290.4647750854492Q214.01547241210938 296.5832824707031 214.3428192138672 298.0863037109375Q214.23866271972656 302.3072052001953 197.0975799560547 317.5862579345703Q187.7681884765625 326.4406433105469 182.12393188476562 328.7197265625Q176.47967529296875 330.9988098144531 174.203125 334.6433868408203Q171.8174591064453 337.7869567871094 161.45642852783203 346.6036834716797Q151.09539794921875 355.42041015625 142.5198974609375 358.33802795410156Q134.0535125732422 361.75665283203125 126.18230438232422 363.2089080810547Q118.31109619140625 364.6611633300781 111.79887390136719 367.6540985107422Q108.2178955078125 370.0084991455078 100.78562927246094 375.8257369995117Q93.35336303710938 381.6429748535156 86.51875305175781 387.85479736328125Q79.68414306640625 394.0666198730469 77.08024597167969 396.2081756591797Q72.74041748046875 399.7774353027344 66.4439468383789 401.4114303588867Q60.14747619628906 403.04542541503906 50.37666320800781 405.1738739013672Q50.37666320800781 405.1738739013672 37.98955535888672 397.6391067504883Q25.602447509765625 390.1043395996094 7.129661560058594 378.12271881103516Q-11.343124389648438 366.14109802246094 -28.732192993164062 352.08668518066406Q-46.12126159667969 338.0322723388672 -55.148101806640625 324.78013610839844Q-68.08822631835938 307.657470703125 -73.75479888916016 288.6879653930664Q-79.42137145996094 269.7184600830078 -80.8473129272461 256.1225051879883Q-82.27325439453125 242.52655029296875 -82.27325439453125 242.52655029296875Q-64.78994750976562 242.91624450683594 -55.718467712402344 246.97506713867188Q-46.64698791503906 251.0338897705078 -28.945449829101562 252.42559814453125Q-11.35302734375 253.31629943847656 6.6708984375 251.48912048339844Q24.69482421875 249.6619415283203 24.69482421875 249.6619415283203Q24.69482421875 249.6619415283203 34.624351501464844 243.56309509277344Q44.55387878417969 237.46424865722656 57.25593566894531 234.697265625Q70.06710815429688 232.43128967285156 77.99535369873047 233.59049224853516Q85.92359924316406 234.74969482421875 98.84884643554688 237.70663452148438Q111.77409362792969 240.66357421875 125.02420806884766 242.76258087158203Q138.27432250976562 244.86158752441406 144.57327270507812 245.5885467529297Q149.8951416015625 246.52835083007812 155.86922454833984 248.11324310302734Q161.8433074951172 249.69813537597656 165.32012939453125 251.56463623046875Q168.90606689453125 253.93214416503906 173.19629669189453 254.83428955078125Q177.4865264892578 255.73643493652344 181.72219848632812 256.38807678222656Q184.9807891845703 257.2525634765625 192.15018463134766 259.62662506103516Q199.319580078125 262.0006866455078 204.53729248046875 267.16139221191406Z" fill="#000000" stroke="none" transform="scale(1,-1) translate(0,-256)" /></svg>