<?xml version="1.0" encoding="utf-8" ?>
<svg baseProfile="full" height="256" version="1.1" width="256" xmlns="http://www.w3.org/2000/svg" xmlns:ev="http://www.w3.org/2001/xml-events" xmlns:xlink="http://www.w3.org/1999/xlink"><defs /><path d="M197 717Q171 685 165.0 645.0Q159 605 168.0 563.5Q177 522 196 487Q201 479 209.5 480.5Q218 482 219 491Q223 513 229.0 535.0Q235 557 246 577Q263 610 286.5 628.0Q310 646 339 667Q351 677 358.5 693.5Q366 710 364.0 727.0Q362 744 348 756Q321 777 293.0 774.5Q265 772 239.5 755.5Q214 739 197 717Z" fill="#aed581" stroke="none" transform="scale(1,-1) translate(0,-256)" /><path d="M761 625Q778 625 817.0 637.0Q856 649 892 683Q909 699 910.0 727.0Q911 755 887 772Q864 788 832.5 776.0Q801 764 781 737Q756 701 738 656Q734 645 741.0 635.0Q748 625 761 625Z" fill="#aed581" stroke="none" transform="scale(1,-1) translate(0,-256)" /></svg>