<?xml version="1.0" encoding="utf-8" ?>
<svg baseProfile="full" height="256" version="1.1" width="256" xmlns="http://www.w3.org/2000/svg" xmlns:ev="http://www.w3.org/2001/xml-events" xmlns:xlink="http://www.w3.org/1999/xlink"><defs /><path d="M104 -104Q89 -107 80.0 -101.5Q71 -96 71 -96Q71 -96 73.5 -90.5Q76 -85 84 -74Q101 -53 133.0 -15.0Q165 23 206.5 71.0Q248 119 295 171Q316 194 344.0 227.5Q372 261 403.0 298.0Q434 335 465.0 369.5Q496 404 524.0 430.0Q552 456 573 466Q611 485 642.0 483.0Q673 481 696.0 466.5Q719 452 734 432Q748 412 751.0 386.5Q754 361 749.0 336.5Q744 312 735 295Q724 276 691.5 248.5Q659 221 614.0 190.0Q569 159 522.0 128.5Q475 98 435.0 74.0Q395 50 373 38Q346 22 308.5 -0.5Q271 -23 231.5 -45.5Q192 -68 158.0 -84.5Q124 -101 104 -104Z" fill="#ff8d02" stroke="none" transform="scale(1,-1) translate(0,-256)" /></svg>