<?xml version="1.0" encoding="utf-8" ?>
<svg baseProfile="full" height="256" version="1.1" width="256" xmlns="http://www.w3.org/2000/svg" xmlns:ev="http://www.w3.org/2001/xml-events" xmlns:xlink="http://www.w3.org/1999/xlink"><defs /><path d="M479 309Q470 317 472.5 327.0Q475 337 483 348Q491 359 508.5 377.5Q526 396 543 409Q564 427 583.0 440.5Q602 454 619 457Q637 460 644.5 450.5Q652 441 650.5 428.0Q649 415 641 409Q629 399 612.5 386.5Q596 374 587 368Q577 361 559.5 344.5Q542 328 533 319Q523 309 508.5 302.5Q494 296 479 309Z" fill="#ffa726" stroke="none" transform="scale(1,-1) translate(0,-256)" /><path d="M393 217Q405 205 399.0 195.0Q393 185 383 174Q373 163 361.0 153.5Q349 144 338 155Q321 171 348 200Q362 216 372.5 221.5Q383 227 393 217Z" fill="#ffa726" stroke="none" transform="scale(1,-1) translate(0,-256)" /></svg>