<?xml version="1.0" encoding="utf-8" ?>
<svg baseProfile="full" height="256" version="1.1" width="256" xmlns="http://www.w3.org/2000/svg" xmlns:ev="http://www.w3.org/2001/xml-events" xmlns:xlink="http://www.w3.org/1999/xlink"><defs /><path d="M638 93 649 123Q649 123 668.5 124.0Q688 125 719.0 126.5Q750 128 785.0 129.0Q820 130 851.0 130.0Q882 130 902.0 128.5Q922 127 922 123Q922 112 920.0 93.0Q918 74 916 60Q914 44 909.0 32.0Q904 20 895 19Q887 18 882.0 23.5Q877 29 876 37Q875 50 870.5 52.0Q866 54 862 54Q859 54 851.5 41.5Q844 29 839 13Q836 3 832.0 -18.5Q828 -40 825.0 -62.0Q822 -84 820 -94Q819 -104 817.0 -120.0Q815 -136 810.5 -149.0Q806 -162 798 -162Q786 -162 782.5 -139.5Q779 -117 775 -96Q773 -86 770.5 -59.0Q768 -32 764.5 -2.5Q761 27 757.5 48.5Q754 70 752 71Q748 71 742.0 56.0Q736 41 730.5 25.5Q725 10 724 7Q722 2 719.0 -5.0Q716 -12 709 -12Q697 -12 692 3Q689 10 683.5 26.0Q678 42 673 58Q668 73 653.0 83.0Q638 93 638 93Z" fill="#b1e3ff" stroke="none" transform="scale(1,-1) translate(0,-256)" /><path d="M319 149Q319 149 319.0 149.0Q319 149 319 149L543 102Q543 102 525.0 92.5Q507 83 498 70Q495 65 489.0 48.5Q483 32 477.5 13.5Q472 -5 470 -17Q469 -25 463.5 -50.5Q458 -76 452.5 -105.5Q447 -135 446 -157Q444 -179 432 -181Q423 -182 418.5 -174.5Q414 -167 413 -155Q413 -151 410.0 -127.0Q407 -103 403.0 -69.5Q399 -36 394.5 -4.0Q390 28 386.0 49.5Q382 71 379 71Q374 71 370.0 58.0Q366 45 364.0 31.0Q362 17 361 13Q360 6 357.5 -4.0Q355 -14 347 -14Q339 -14 337.0 -5.5Q335 3 334 12Q334 17 331.5 38.0Q329 59 326.0 85.0Q323 111 321.0 130.0Q319 149 319 149Z" fill="#b1e3ff" stroke="none" transform="scale(1,-1) translate(0,-256)" /></svg>