<?xml version="1.0" encoding="utf-8" ?>
<svg baseProfile="full" height="256" version="1.1" width="256" xmlns="http://www.w3.org/2000/svg" xmlns:ev="http://www.w3.org/2001/xml-events" xmlns:xlink="http://www.w3.org/1999/xlink"><defs /><path d="M808 614Q842 611 860.5 583.5Q879 556 878 518Q876 477 853.0 454.5Q830 432 803 432Q775 432 753.0 455.5Q731 479 728 517Q727 542 736.5 565.0Q746 588 764.5 602.0Q783 616 808 614Z" fill="#0241bc" stroke="none" transform="scale(1,-1) translate(0,-256)" /><path d="M448 614Q484 617 505.5 591.0Q527 565 530 529Q533 496 515.5 467.0Q498 438 465 436Q432 435 410.5 455.5Q389 476 384 508Q381 533 386.5 556.5Q392 580 407.5 596.5Q423 613 448 614Z" fill="#0241bc" stroke="none" transform="scale(1,-1) translate(0,-256)" /></svg>