<?xml version="1.0" encoding="utf-8" ?>
<svg baseProfile="full" height="256" version="1.1" width="256" xmlns="http://www.w3.org/2000/svg" xmlns:ev="http://www.w3.org/2001/xml-events" xmlns:xlink="http://www.w3.org/1999/xlink"><defs /><path d="M450 587Q459 582 461.0 572.5Q463 563 459 553Q456 542 446.5 534.5Q437 527 424 532Q412 536 411.5 550.0Q411 564 415 571Q418 578 427.5 585.5Q437 593 450 587Z" fill="#95d3ff" stroke="none" transform="scale(1,-1) translate(0,-256)" /><path d="M805 583Q814 577 814.0 567.0Q814 557 811 547Q806 534 795.0 529.5Q784 525 775 529Q767 533 763.5 543.5Q760 554 766 568Q771 582 783.5 586.0Q796 590 805 583Z" fill="#95d3ff" stroke="none" transform="scale(1,-1) translate(0,-256)" /></svg>