<?xml version="1.0" encoding="utf-8" ?>
<svg baseProfile="full" height="256" version="1.1" width="256" xmlns="http://www.w3.org/2000/svg" xmlns:ev="http://www.w3.org/2001/xml-events" xmlns:xlink="http://www.w3.org/1999/xlink"><defs /><path d="M404 297 897 300 949 255 940 158Q940 158 929.5 145.5Q919 133 905.5 120.0Q892 107 884 104Q875 102 850.0 100.0Q825 98 774.0 96.0Q723 94 638 93Q511 91 451.5 95.5Q392 100 392 100Q392 100 381.0 105.5Q370 111 355.0 123.0Q340 135 328.5 154.5Q317 174 317 202Q317 229 330.0 247.5Q343 266 360.0 277.0Q377 288 390.5 292.5Q404 297 404 297Z" fill="#ffffff" stroke="none" transform="scale(1,-1) translate(0,-256)" /><path d="M431 72Q431 70 432.0 52.5Q433 35 433.5 13.0Q434 -9 433 -26Q433 -36 433.0 -44.5Q433 -53 427 -53Q420 -54 419.0 -48.5Q418 -43 417 -32Q417 -27 415.5 -12.0Q414 3 412.5 20.5Q411 38 410.0 52.0Q409 66 409 69Q409 84 418 85Q430 85 431 72Z" fill="#ffffff" stroke="none" transform="scale(1,-1) translate(0,-256)" /><path d="M778 72Q778 75 779.0 81.0Q780 87 790 87Q799 87 800.5 81.5Q802 76 802 73Q802 71 802.5 49.5Q803 28 803.5 -3.5Q804 -35 802 -65Q801 -79 800.5 -89.0Q800 -99 797 -99Q791 -99 788 -71Q784 -44 782.0 -11.5Q780 21 779.0 45.5Q778 70 778 72Z" fill="#ffffff" stroke="none" transform="scale(1,-1) translate(0,-256)" /><path d="M686 85Q699 90 704.0 80.0Q709 70 710 64Q711 57 710.5 46.5Q710 36 706 34Q701 32 696.5 40.5Q692 49 688 54Q685 59 682.5 70.5Q680 82 686 85Z" fill="#ffffff" stroke="none" transform="scale(1,-1) translate(0,-256)" /></svg>