<?xml version="1.0" encoding="utf-8" ?>
<svg baseProfile="full" height="256" version="1.1" width="256" xmlns="http://www.w3.org/2000/svg" xmlns:ev="http://www.w3.org/2001/xml-events" xmlns:xlink="http://www.w3.org/1999/xlink"><defs /><path d="M1076 72 1104 110Q1104 110 1102.5 96.5Q1101 83 1098.0 65.5Q1095 48 1092.5 34.5Q1090 21 1088 21Q1086 21 1083.0 33.5Q1080 46 1078.0 59.0Q1076 72 1076 72Z" fill="#d3f1fa" stroke="none" transform="scale(1,-1) translate(0,-256)" /><path d="M933 -51 975 -21Q975 -21 973.0 -38.5Q971 -56 968.0 -78.5Q965 -101 962.5 -118.5Q960 -136 958 -136Q956 -136 952.0 -123.0Q948 -110 943.5 -93.5Q939 -77 936.0 -64.0Q933 -51 933 -51Z" fill="#d3f1fa" stroke="none" transform="scale(1,-1) translate(0,-256)" /><path d="M583 -133 610 -130Q610 -130 607.5 -138.0Q605 -146 601.5 -154.0Q598 -162 596 -162Q594 -162 591.0 -154.5Q588 -147 585.5 -140.0Q583 -133 583 -133Z" fill="#d3f1fa" stroke="none" transform="scale(1,-1) translate(0,-256)" /><path d="M195 63 239 28Q239 28 238.5 17.5Q238 7 236.0 -7.0Q234 -21 232.0 -31.5Q230 -42 227 -42Q224 -42 219.0 -26.0Q214 -10 208.0 10.5Q202 31 198.5 47.0Q195 63 195 63Z" fill="#d3f1fa" stroke="none" transform="scale(1,-1) translate(0,-256)" /><path d="M114 203 143 144Q143 144 141.0 131.0Q139 118 135.5 105.0Q132 92 129 92Q127 92 124.5 109.0Q122 126 119.5 148.0Q117 170 115.5 186.5Q114 203 114 203Z" fill="#d3f1fa" stroke="none" transform="scale(1,-1) translate(0,-256)" /></svg>