<?xml version="1.0" encoding="utf-8" ?>
<svg baseProfile="full" height="256" version="1.1" width="256" xmlns="http://www.w3.org/2000/svg" xmlns:ev="http://www.w3.org/2001/xml-events" xmlns:xlink="http://www.w3.org/1999/xlink"><defs /><path d="M72 343Q71 345 68.5 327.0Q66 309 65.0 279.5Q64 250 68 216Q71 188 80.5 162.0Q90 136 98.0 119.5Q106 103 106 103Q106 103 124.0 84.0Q142 65 180.5 37.5Q219 10 282.0 -17.5Q345 -45 434.5 -62.5Q524 -80 643 -78Q776 -76 868.5 -55.5Q961 -35 1021.5 -5.5Q1082 24 1116.0 53.0Q1150 82 1163.5 101.5Q1177 121 1177 121Q1177 121 1183.0 136.0Q1189 151 1196.0 175.0Q1203 199 1206 227Q1212 288 1207.5 319.0Q1203 350 1203 350Q1203 350 1196.0 331.0Q1189 312 1169.0 282.5Q1149 253 1110.0 220.0Q1071 187 1008.0 157.5Q945 128 851.5 109.0Q758 90 629 90Q509 90 421.0 108.0Q333 126 271.5 155.0Q210 184 170.5 216.5Q131 249 109.5 278.0Q88 307 80.0 325.0Q72 343 72 343Z" fill="#b0b0b0" stroke="none" transform="scale(1,-1) translate(0,-256)" /></svg>