<?xml version="1.0" encoding="utf-8" ?>
<svg baseProfile="full" height="256" version="1.1" width="256" xmlns="http://www.w3.org/2000/svg" xmlns:ev="http://www.w3.org/2001/xml-events" xmlns:xlink="http://www.w3.org/1999/xlink"><defs /><path d="M603 687Q658 685 719.0 678.0Q780 671 838.0 657.0Q896 643 943.0 622.0Q990 601 1019.5 571.0Q1049 541 1052 502Q1055 456 1029.0 420.0Q1003 384 958.0 358.0Q913 332 858.5 314.5Q804 297 748.5 288.5Q693 280 648 280Q595 280 535.5 286.5Q476 293 419.5 307.5Q363 322 316.5 345.5Q270 369 242.5 403.0Q215 437 216 482Q216 532 245.0 567.5Q274 603 320.5 627.0Q367 651 419.5 664.5Q472 678 521.0 683.0Q570 688 603 687Z" fill="#ff2a23" stroke="none" transform="scale(1,-1) translate(0,-256)" /><path d="M445 505Q422 523 447 553Q461 570 475.5 600.0Q490 630 521 689Q541 729 571.0 749.5Q601 770 632.5 778.5Q664 787 689 792Q702 794 732.0 798.0Q762 802 801.0 806.5Q840 811 881.0 814.5Q922 818 957.5 819.5Q993 821 1016.0 820.0Q1039 819 1042 813Q1047 801 1019.0 794.0Q991 787 938.0 782.0Q885 777 817 770Q747 763 702.0 754.0Q657 745 630.0 733.5Q603 722 588 707Q571 691 557.5 661.0Q544 631 532.5 598.5Q521 566 509 543Q493 515 477.0 504.0Q461 493 445 505Z" fill="#ff2a23" stroke="none" transform="scale(1,-1) translate(0,-256)" /></svg>