<?xml version="1.0" encoding="utf-8" ?>
<svg baseProfile="full" height="256" version="1.1" width="256" xmlns="http://www.w3.org/2000/svg" xmlns:ev="http://www.w3.org/2001/xml-events" xmlns:xlink="http://www.w3.org/1999/xlink"><defs /><path d="M915 476Q921 466 932 463Q943 460 953 465Q963 471 967 482Q970 494 964 504Q947 535 913 561Q843 615 756 599Q744 597 738 588Q731 578 733 567Q735 555 745 548Q755 542 766 544Q829 556 878 517Q903 497 915 476Z" fill="#35220b" stroke="none" transform="scale(1,-1) translate(0,-256)" /><path d="M315 504Q309 494 312 482Q315 471 325 465Q335 460 347 463Q358 466 363 476Q375 497 401 517Q450 556 512 544Q524 542 534 548Q543 555 545 567Q547 578 541 588Q534 597 523 599Q435 615 366 561Q332 535 315 504Z" fill="#35220b" stroke="none" transform="scale(1,-1) translate(0,-256)" /></svg>