<?xml version="1.0" encoding="utf-8" ?>
<svg baseProfile="full" height="256" version="1.1" width="256" xmlns="http://www.w3.org/2000/svg" xmlns:ev="http://www.w3.org/2001/xml-events" xmlns:xlink="http://www.w3.org/1999/xlink"><defs /><path d="M637.75 -164.0Q745.75 -164.0 843.75 -128.5Q941.75 -93.0 1016.75 -28.0Q1096.75 44.0 1139.25 142.5Q1181.75 241.0 1181.75 360.0Q1181.75 479.0 1139.25 578.5Q1096.75 678.0 1016.75 749.0Q941.75 815.0 844.25 849.5Q746.75 884.0 637.75 884.0Q558.75 884.0 480.75 864.0Q402.75 844.0 333.25 803.5Q263.75 763.0 209.75 700.5Q155.75 638.0 124.75 553.0Q93.75 468.0 93.75 360.0Q93.75 252.0 124.75 167.5Q155.75 83.0 209.75 20.5Q263.75 -42.0 333.25 -83.0Q402.75 -124.0 480.75 -144.0Q558.75 -164.0 637.75 -164.0Z" fill="#000000" stroke="none" transform="scale(1,-1) translate(0,-256)" /><path d="M804.875 147.156005859375Q815.875 132.156005859375 809.875 116.156005859375Q803.875 100.156005859375 790.875 83.156005859375Q763.875 51.156005859375 727.875 29.156005859375Q727.875 29.156005859375 738.875 32.656005859375Q749.875 36.156005859375 762.875 34.156005859375Q775.875 32.156005859375 781.875 16.156005859375Q788.875 -3.843994140625 775.875 -23.843994140625Q762.875 -43.843994140625 744.875 -57.843994140625Q743.875 -58.843994140625 722.375 -73.843994140625Q700.875 -88.843994140625 663.875 -111.343994140625Q626.875 -133.843994140625 580.375 -157.843994140625Q533.875 -181.843994140625 483.875 -199.843994140625Q456.875 -208.843994140625 420.375 -211.843994140625Q383.875 -214.843994140625 344.875 -207.843994140625Q305.875 -200.843994140625 271.375 -180.843994140625Q236.875 -160.843994140625 214.875 -124.843994140625Q188.875 -83.843994140625 185.375 -46.343994140625Q181.875 -8.843994140625 191.875 24.656005859375Q201.875 58.156005859375 217.875 85.156005859375Q233.875 112.156005859375 246.875 131.156005859375Q248.875 135.156005859375 265.875 157.156005859375Q282.875 179.156005859375 302.875 208.656005859375Q322.875 238.156005859375 335.875 265.156005859375Q346.875 290.156005859375 352.875 312.156005859375Q358.875 334.156005859375 365.875 344.156005859375Q374.875 357.156005859375 395.375 354.656005859375Q415.875 352.156005859375 421.875 338.156005859375Q443.875 287.156005859375 417.875 238.156005859375Q399.875 199.156005859375 398.875 191.656005859375Q397.875 184.156005859375 405.875 183.156005859375Q416.875 182.156005859375 444.375 195.656005859375Q471.875 209.156005859375 504.875 230.156005859375Q537.875 251.156005859375 568.875 271.656005859375Q599.875 292.156005859375 617.875 306.156005859375Q637.875 321.156005859375 662.875 323.156005859375Q667.875 323.156005859375 672.875 322.156005859375Q686.875 318.156005859375 693.875 306.156005859375Q700.875 294.156005859375 696.875 281.156005859375Q690.875 247.156005859375 676.875 236.156005859375Q662.875 225.156005859375 662.875 225.156005859375L731.875 267.156005859375Q744.875 275.156005859375 766.375 274.656005859375Q787.875 274.156005859375 797.875 259.156005859375Q806.875 243.156005859375 799.875 223.656005859375Q792.875 204.156005859375 781.875 193.156005859375Q763.875 176.156005859375 746.875 161.156005859375Q729.875 146.156005859375 729.875 146.156005859375Q729.875 146.156005859375 744.375 152.656005859375Q758.875 159.156005859375 776.875 160.656005859375Q794.875 162.156005859375 804.875 147.156005859375Z" fill="#000000" stroke="none" transform="scale(1,-1) translate(0,-256)" /></svg>