<?xml version="1.0" encoding="utf-8" ?>
<svg baseProfile="full" height="256" version="1.1" width="256" xmlns="http://www.w3.org/2000/svg" xmlns:ev="http://www.w3.org/2001/xml-events" xmlns:xlink="http://www.w3.org/1999/xlink"><defs /><path d="M838 867 419 773Q419 773 405.5 766.5Q392 760 373.5 749.5Q355 739 340.5 728.5Q326 718 323 710Q316 695 316.5 674.0Q317 653 317 653Q317 653 341.0 671.5Q365 690 411 705Q459 721 510.0 723.5Q561 726 633 715Q670 709 710.0 699.0Q750 689 781.0 680.5Q812 672 824 669Q838 666 850.0 676.0Q862 686 870.0 702.0Q878 718 883 732Q892 759 894.0 784.5Q896 810 881 829Q863 853 850.5 860.0Q838 867 838 867Z" fill="#91837f" stroke="none" transform="scale(1,-1) translate(0,-256)" /></svg>