<?xml version="1.0" encoding="utf-8" ?>
<svg baseProfile="full" height="256" version="1.1" width="256" xmlns="http://www.w3.org/2000/svg" xmlns:ev="http://www.w3.org/2001/xml-events" xmlns:xlink="http://www.w3.org/1999/xlink"><defs /><path d="M350 706Q350 707 368.0 712.0Q386 717 412.5 724.5Q439 732 465.5 739.0Q492 746 510.0 751.0Q528 756 528 756Q528 756 553.0 752.0Q578 748 616.0 741.5Q654 735 693.0 727.0Q732 719 760.5 710.5Q789 702 795 695Q809 678 823.0 656.0Q837 634 840 596Q842 572 833.0 559.5Q824 547 824 547L333 544Q333 544 329.5 561.0Q326 578 324 590Q321 603 318.5 618.5Q316 634 317 653Q317 666 325.0 677.5Q333 689 341.0 697.0Q349 705 350 706Z" fill="#4a4240" stroke="none" transform="scale(1,-1) translate(0,-256)" /><path d="M430 317Q442 318 464.0 309.0Q486 300 504.0 287.5Q522 275 522 266Q522 257 508.5 254.0Q495 251 479.5 250.5Q464 250 459 251Q445 254 430 277Q424 287 421.0 301.0Q418 315 430 317Z" fill="#4a4240" stroke="none" transform="scale(1,-1) translate(0,-256)" /><path d="M358 310Q363 309 367.0 298.0Q371 287 371.5 275.5Q372 264 363 262Q345 258 334.5 270.5Q324 283 326 289Q327 294 339.0 303.5Q351 313 358 310Z" fill="#4a4240" stroke="none" transform="scale(1,-1) translate(0,-256)" /></svg>