<?xml version="1.0" encoding="utf-8" ?>
<svg baseProfile="full" height="256" version="1.1" width="256" xmlns="http://www.w3.org/2000/svg" xmlns:ev="http://www.w3.org/2001/xml-events" xmlns:xlink="http://www.w3.org/1999/xlink"><defs /><path d="M652 573Q652 573 642.5 560.0Q633 547 629 538Q625 528 618.0 503.5Q611 479 623 452Q632 431 645.5 414.0Q659 397 670.5 378.0Q682 359 685 332Q690 287 670.0 263.0Q650 239 621 234Q606 232 580.0 232.5Q554 233 527.5 234.5Q501 236 482.5 238.0Q464 240 464 240L445 208L310 256L277 303L311 334Q311 334 326.0 335.5Q341 337 361.5 338.0Q382 339 398 339Q436 339 467.5 331.0Q499 323 520.5 313.0Q542 303 549 298Q570 282 597.0 282.5Q624 283 635 298Q642 308 643.0 326.5Q644 345 636.5 365.0Q629 385 611 398Q593 411 571.5 413.5Q550 416 533.5 415.0Q517 414 515 416Q513 419 512.0 422.5Q511 426 516 432Q518 435 530.0 451.5Q542 468 559.0 490.5Q576 513 592.5 535.0Q609 557 620.0 572.0Q631 587 631 587Q631 587 634.5 580.0Q638 573 641 572Q643 570 647.5 571.5Q652 573 652 573Z" fill="#615654" stroke="none" transform="scale(1,-1) translate(0,-256)" /><path d="M478 188 456 195 301 176Q301 176 294.0 170.5Q287 165 279.5 158.5Q272 152 272 148Q272 136 273.0 129.5Q274 123 285 120Q295 118 312.0 128.0Q329 138 344 142Q354 145 376.0 145.5Q398 146 424.0 145.0Q450 144 471.0 142.0Q492 140 500 138Q508 136 526.0 131.0Q544 126 561.0 121.5Q578 117 584 115Q600 111 604.5 118.0Q609 125 606 131Q603 138 590.5 143.0Q578 148 567.0 151.0Q556 154 556 154Z" fill="#615654" stroke="none" transform="scale(1,-1) translate(0,-256)" /><path d="M325 112Q327 118 353.0 117.5Q379 117 409 117Q431 116 457.0 115.5Q483 115 502.0 113.0Q521 111 521 107Q522 106 509.0 94.5Q496 83 471.0 73.0Q446 63 411 64Q395 64 373.0 71.5Q351 79 335.5 90.0Q320 101 325 112Z" fill="#615654" stroke="none" transform="scale(1,-1) translate(0,-256)" /></svg>