<?xml version="1.0" encoding="utf-8" ?>
<svg baseProfile="full" height="256" version="1.1" width="256" xmlns="http://www.w3.org/2000/svg" xmlns:ev="http://www.w3.org/2001/xml-events" xmlns:xlink="http://www.w3.org/1999/xlink"><defs /><path d="M517 172Q487 117 475.0 71.5Q463 26 460.5 -2.0Q458 -30 458 -30Q478 -40 530.0 -51.0Q582 -62 655.5 -73.5Q729 -85 812.5 -95.5Q896 -106 979.5 -115.5Q1063 -125 1136 -134Q1136 -134 1152.5 -117.5Q1169 -101 1178 -80Q1201 -24 1202.5 13.0Q1204 50 1177 78Q1168 87 1145.5 94.0Q1123 101 1095.0 106.0Q1067 111 1039.5 114.0Q1012 117 992 119Q941 123 882.5 133.0Q824 143 771.5 153.5Q719 164 687 172Q643 182 605.0 183.0Q567 184 543.0 180.5Q519 177 517 172Z" fill="#188ad6" stroke="none" transform="scale(1,-1) translate(0,-256)" /></svg>