<?xml version="1.0" encoding="utf-8" ?>
<svg baseProfile="full" height="256" version="1.1" width="256" xmlns="http://www.w3.org/2000/svg" xmlns:ev="http://www.w3.org/2001/xml-events" xmlns:xlink="http://www.w3.org/1999/xlink"><defs /><path d="M299 650 317 656 372 658Q372 658 379.0 651.0Q386 644 393.5 636.0Q401 628 401 628Q402 627 409.5 629.5Q417 632 424.5 634.5Q432 637 432 637Q432 637 428.0 647.5Q424 658 410.5 670.0Q397 682 368 687Q342 691 325.0 685.5Q308 680 299.5 672.5Q291 665 291 665Z" fill="#d2608c" stroke="none" transform="scale(1,-1) translate(0,-256)" /><path d="M784 566Q784 566 792.5 553.0Q801 540 820.5 525.0Q840 510 871 503Q901 497 932.0 513.5Q963 530 973 567Q982 597 975.0 621.5Q968 646 958.0 660.5Q948 675 948 675L927 662Q927 662 934.0 650.0Q941 638 946.5 619.0Q952 600 948.0 580.0Q944 560 923 544Q901 528 880.0 531.5Q859 535 842.0 548.0Q825 561 815.0 572.5Q805 584 805 584Z" fill="#d2608c" stroke="none" transform="scale(1,-1) translate(0,-256)" /><path d="M397 248 423 242Q423 242 426.5 255.5Q430 269 440.0 287.5Q450 306 468 322Q491 341 515.0 342.5Q539 344 555.5 339.5Q572 335 572 335L579 356Q579 356 562.0 364.0Q545 372 517.0 372.0Q489 372 455 350Q428 332 415.5 308.5Q403 285 400.0 267.5Q397 250 397 248Z" fill="#d2608c" stroke="none" transform="scale(1,-1) translate(0,-256)" /></svg>