<?xml version="1.0" encoding="utf-8" ?>
<svg baseProfile="full" height="256" version="1.1" width="256" xmlns="http://www.w3.org/2000/svg" xmlns:ev="http://www.w3.org/2001/xml-events" xmlns:xlink="http://www.w3.org/1999/xlink"><defs /><path d="M636 540Q666 547 718.0 546.5Q770 546 832.0 539.5Q894 533 956.0 522.0Q1018 511 1070.0 496.5Q1122 482 1153.5 465.5Q1185 449 1185 432Q1185 420 1184.0 389.5Q1183 359 1175.0 315.5Q1167 272 1147.0 220.5Q1127 169 1089 114Q1050 57 993.0 7.0Q936 -43 854.0 -74.0Q772 -105 658 -105Q542 -105 454.5 -77.0Q367 -49 305.0 -5.0Q243 39 203 89Q157 146 133.0 200.0Q109 254 100.5 300.5Q92 347 91.0 380.5Q90 414 90 431Q89 442 118.5 453.5Q148 465 196.5 476.0Q245 487 303.5 496.5Q362 506 420.5 514.0Q479 522 528.0 528.0Q577 534 606.5 537.0Q636 540 636 540Z" fill="#d5d5d5" stroke="none" transform="scale(1,-1) translate(0,-256)" /></svg>