<?xml version="1.0" encoding="utf-8" ?>
<svg baseProfile="full" height="256" version="1.1" width="256" xmlns="http://www.w3.org/2000/svg" xmlns:ev="http://www.w3.org/2001/xml-events" xmlns:xlink="http://www.w3.org/1999/xlink"><defs /><path d="M305 638 299 651Q299 651 306.5 657.0Q314 663 328.5 667.5Q343 672 363 668Q382 665 393.5 655.5Q405 646 410.5 637.0Q416 628 416 628L391 618Q391 618 384.5 629.5Q378 641 358 645Q338 650 321.5 644.0Q305 638 305 638Z" fill="#ffffff" stroke="none" transform="scale(1,-1) translate(0,-256)" /><path d="M800 580Q800 580 807.5 572.5Q815 565 825.5 554.5Q836 544 844.5 535.0Q853 526 854 524Q856 521 870.5 519.5Q885 518 898.0 517.5Q911 517 911 517L959 559L957 620L929 663L908 653Q908 653 914.5 643.5Q921 634 926.0 619.0Q931 604 928.5 587.5Q926 571 908 558Q892 546 876.0 550.0Q860 554 846.5 565.0Q833 576 824.5 585.5Q816 595 816 595Z" fill="#ffffff" stroke="none" transform="scale(1,-1) translate(0,-256)" /><path d="M427 255Q427 256 427.5 267.0Q428 278 428.5 289.0Q429 300 429 301Q429 302 436.5 309.5Q444 317 454.0 326.0Q464 335 471.5 342.0Q479 349 479 349L534 360L575 344L569 322Q569 322 557.5 325.0Q546 328 528.5 328.0Q511 328 492 319Q473 309 462.5 293.5Q452 278 448.0 266.0Q444 254 444 254Z" fill="#ffffff" stroke="none" transform="scale(1,-1) translate(0,-256)" /><path d="M638 196Q482 198 365.5 229.0Q249 260 171 324Q149 342 137.5 364.0Q126 386 121.5 402.0Q117 418 117 418Q117 418 137.0 400.5Q157 383 197.0 358.0Q237 333 299.0 307.5Q361 282 445.0 263.5Q529 245 636 244Q763 242 853.0 259.5Q943 277 1002.0 304.0Q1061 331 1095.0 358.5Q1129 386 1143.0 405.0Q1157 424 1157 424Q1157 424 1155.5 409.0Q1154 394 1143.5 370.5Q1133 347 1106 320Q1074 288 1019.5 264.5Q965 241 898.5 225.5Q832 210 764.0 202.5Q696 195 638 196Z" fill="#ffffff" stroke="none" transform="scale(1,-1) translate(0,-256)" /><path d="M229 211Q241 222 257.5 216.0Q274 210 291.5 195.5Q309 181 325 168Q340 154 359.0 134.0Q378 114 388.5 94.0Q399 74 387 63Q370 46 339.5 64.0Q309 82 275 111Q242 140 229.0 169.0Q216 198 229 211Z" fill="#ffffff" stroke="none" transform="scale(1,-1) translate(0,-256)" /></svg>