<?xml version="1.0" encoding="utf-8" ?>
<svg baseProfile="full" height="256" version="1.1" width="256" xmlns="http://www.w3.org/2000/svg" xmlns:ev="http://www.w3.org/2001/xml-events" xmlns:xlink="http://www.w3.org/1999/xlink"><defs /><path d="M296 600 299 512 387 438Q387 438 404.5 441.5Q422 445 449.0 452.0Q476 459 505 472Q547 491 564.5 520.0Q582 549 583.5 581.0Q585 613 577.5 641.5Q570 670 561.0 688.5Q552 707 549 707Q542 709 537.5 706.0Q533 703 528 699Q517 692 486.0 676.0Q455 660 415 640Q403 634 383.0 627.0Q363 620 343.0 614.0Q323 608 309.5 604.0Q296 600 296 600Z" fill="#fe2a19" stroke="none" transform="scale(1,-1) translate(0,-256)" /><path d="M717 521Q725 526 739.5 519.5Q754 513 781.0 500.0Q808 487 855 472Q896 459 932.0 452.5Q968 446 991.5 441.5Q1015 437 1021 432Q1030 424 1022.0 405.0Q1014 386 1008 376Q1005 370 992.0 355.5Q979 341 957.0 325.0Q935 309 903.5 298.5Q872 288 832 290Q769 295 732.0 328.0Q695 361 688 414Q684 449 689.5 472.0Q695 495 704.0 507.0Q713 519 717 521Z" fill="#fe2a19" stroke="none" transform="scale(1,-1) translate(0,-256)" /></svg>