<?xml version="1.0" encoding="utf-8" ?>
<svg baseProfile="full" height="256" version="1.1" width="256" xmlns="http://www.w3.org/2000/svg" xmlns:ev="http://www.w3.org/2001/xml-events" xmlns:xlink="http://www.w3.org/1999/xlink"><defs /><path d="M665 663 830 662 767 224 624 221 551 272 438 397 544 661Q544 661 556.0 671.5Q568 682 594 684Q611 686 627.0 680.5Q643 675 654.0 669.0Q665 663 665 663Z" fill="#307d31" stroke="none" transform="scale(1,-1) translate(0,-256)" /><path d="M209 363Q202 354 183.5 363.0Q165 372 144.0 391.5Q123 411 106 431Q81 461 66.5 491.0Q52 521 65 535Q78 548 99.5 534.5Q121 521 161 474Q184 447 196.5 425.5Q209 404 214 387Q217 377 214.0 371.0Q211 365 209 363Z" fill="#307d31" stroke="none" transform="scale(1,-1) translate(0,-256)" /></svg>