<?xml version="1.0" encoding="utf-8" ?>
<svg baseProfile="full" height="256" version="1.1" width="256" xmlns="http://www.w3.org/2000/svg" xmlns:ev="http://www.w3.org/2001/xml-events" xmlns:xlink="http://www.w3.org/1999/xlink"><defs /><path d="M632 117 788 -14 754 -80 550 28Q533 34 522 48Q515 58 512 69L432 311Q432 311 436.5 321.5Q441 332 447.5 345.5Q454 359 462.0 370.5Q470 382 478 384Q496 389 512 389Q543 389 562.0 373.5Q581 358 590.5 335.0Q600 312 601.5 290.0Q603 268 599 255L614 150Q616 130 632 117Z" fill="#616161" stroke="none" transform="scale(1,-1) translate(0,-256)" /></svg>