<?xml version="1.0" encoding="utf-8" ?>
<svg baseProfile="full" height="256" version="1.1" width="256" xmlns="http://www.w3.org/2000/svg" xmlns:ev="http://www.w3.org/2001/xml-events" xmlns:xlink="http://www.w3.org/1999/xlink"><defs /><path d="M431 365Q437 365 437 370V387Q437 392 431 392H356Q352 392 352 397V418Q352 423 356 423H431Q437 423 437 428V445Q437 451 431 451H356Q351 451 352 455Q354 494 372 515Q392 537 428 537Q448 537 467 532Q477 530 478 540L480 557Q481 565 473 567Q448 572 428 572Q374 572 343 540Q312 510 309 455Q309 450 305 450H275Q270 450 270 445V428Q270 423 275 423H305Q309 423 309 418V397Q309 392 305 392H275Q270 392 270 387V370Q270 365 275 365H305Q309 365 309 361Q312 304 342 273Q373 241 428 241Q451 241 474 246Q481 247 480 255L478 273Q477 283 468 280Q449 275 429 275Q392 275 372 299Q354 321 352 360Q352 365 356 365Z" fill="#ffffff" stroke="none" transform="scale(1,-1) translate(0,-256)" /></svg>