<?xml version="1.0" encoding="utf-8" ?>
<svg baseProfile="full" height="256" version="1.1" width="256" xmlns="http://www.w3.org/2000/svg" xmlns:ev="http://www.w3.org/2001/xml-events" xmlns:xlink="http://www.w3.org/1999/xlink"><defs /><path d="M417 227Q417 278 395 313Q373 347 315 382Q270 408 259 418Q247 429 242 439Q236 450 236 465Q236 488 250 502Q263 517 288 517Q309 517 331 510Q353 503 386 487L415 572Q382 589 353 599Q323 608 291 608Q225 608 187 569Q150 530 150 461Q150 425 161 397Q173 370 192 350Q211 329 249 307Q290 283 303 272Q316 261 323 249Q330 237 330 222Q330 194 315 181Q299 167 270 167Q246 167 216 176Q187 186 145 209V107Q196 76 263 76Q336 76 376 117Q417 157 417 227Z" fill="#fafafa" stroke="none" transform="scale(1,-1) translate(0,-256)" /><path d="M799 343Q799 472 753 540Q707 609 619 609Q532 609 485 541Q438 473 438 344Q438 214 485 145Q532 76 619 76Q706 76 752 145Q799 214 799 343ZM522 343Q522 429 547 474Q571 518 619 518Q715 518 715 343Q715 168 619 168Q571 168 547 212Q522 256 522 343Z" fill="#fafafa" stroke="none" transform="scale(1,-1) translate(0,-256)" /><path d="M1088.438003540039 227.0Q1088.438003540039 278.0 1066.438003540039 313.0Q1044.438003540039 347.0 986.4380035400391 382.0Q941.4380035400391 408.0 930.4380035400391 418.0Q918.4380035400391 429.0 913.4380035400391 439.0Q907.4380035400391 450.0 907.4380035400391 465.0Q907.4380035400391 488.0 921.4380035400391 502.0Q934.4380035400391 517.0 959.4380035400391 517.0Q980.4380035400391 517.0 1002.4380035400391 510.0Q1024.438003540039 503.0 1057.438003540039 487.0L1086.438003540039 572.0Q1053.438003540039 589.0 1024.438003540039 599.0Q994.4380035400391 608.0 962.4380035400391 608.0Q896.4380035400391 608.0 858.4380035400391 569.0Q821.4380035400391 530.0 821.4380035400391 461.0Q821.4380035400391 425.0 832.4380035400391 397.0Q844.4380035400391 370.0 863.4380035400391 350.0Q882.4380035400391 329.0 920.4380035400391 307.0Q961.4380035400391 283.0 974.4380035400391 272.0Q987.4380035400391 261.0 994.4380035400391 249.0Q1001.4380035400391 237.0 1001.4380035400391 222.0Q1001.4380035400391 194.0 986.4380035400391 181.0Q970.4380035400391 167.0 941.4380035400391 167.0Q917.4380035400391 167.0 887.4380035400391 176.0Q858.4380035400391 186.0 816.4380035400391 209.0V107.0Q867.4380035400391 76.0 934.4380035400391 76.0Q1007.4380035400391 76.0 1047.438003540039 117.0Q1088.438003540039 157.0 1088.438003540039 227.0Z" fill="#fafafa" stroke="none" transform="scale(1,-1) translate(0,-256)" /></svg>