<?xml version="1.0" encoding="utf-8" ?>
<svg baseProfile="full" height="256" version="1.1" width="256" xmlns="http://www.w3.org/2000/svg" xmlns:ev="http://www.w3.org/2001/xml-events" xmlns:xlink="http://www.w3.org/1999/xlink"><defs /><path d="M117 301Q121 280 126 263Q133 235 163 231Q173 230 197.5 226.5Q222 223 246.5 219.0Q271 215 281 214Q312 210 340.0 196.5Q368 183 386 163Q422 126 450.0 97.5Q478 69 509.0 49.0Q540 29 583.5 17.0Q627 5 693 1Q750 -3 780.0 -10.0Q810 -17 826.0 -25.5Q842 -34 854.5 -41.5Q867 -49 890 -54Q902 -57 924.0 -54.5Q946 -52 967.5 -39.5Q989 -27 1000.5 0.0Q1012 27 1002 73Q988 86 976.5 97.0Q965 108 964 109Q960 113 955.0 115.5Q950 118 944 113Q961 97 953.5 79.0Q946 61 929 36Q927 33 924.5 29.5Q922 26 920 22Q906 1 886.5 0.0Q867 -1 846.5 9.5Q826 20 811 33Q796 46 775.0 50.5Q754 55 731 58Q706 60 680.0 65.5Q654 71 631.0 87.0Q608 103 591 136Q562 190 508.0 230.0Q454 270 359.5 289.5Q265 309 117 301Z" fill="#faa700" stroke="none" transform="scale(1,-1) translate(0,-256)" /><path d="M1117 509Q1116 536 1109.5 567.5Q1103 599 1078.5 624.0Q1054 649 1000 659Q949 669 879.5 673.5Q810 678 730.5 679.5Q651 681 569.0 679.0Q487 677 409.5 673.5Q332 670 266.5 665.0Q201 660 156 655Q145 653 139.0 649.0Q133 645 128 632Q128 631 127 629Q385 647 597.0 650.0Q809 653 989 633Q1028 629 1059.0 605.5Q1090 582 1093 542Q1095 524 1102.0 516.5Q1109 509 1117 509Z" fill="#faa700" stroke="none" transform="scale(1,-1) translate(0,-256)" /><path d="M987 450Q987 450 983.0 452.5Q979 455 973 460Q969 455 954.0 443.5Q939 432 921.0 419.5Q903 407 892 398Q883 391 859.0 384.0Q835 377 806.0 370.5Q777 364 752.0 359.0Q727 354 716 351Q694 344 691.5 321.5Q689 299 704 285Q715 275 734.0 266.0Q753 257 771.5 254.0Q790 251 799 258Q811 269 833.5 270.0Q856 271 877.5 255.5Q899 240 909 202Q909 202 909.5 201.5Q910 201 910 201Q912 194 916.0 186.5Q920 179 927 189Q945 213 969.5 211.5Q994 210 1007 201Q1020 192 1035.0 192.0Q1050 192 1058.0 201.0Q1066 210 1058 226Q1056 230 1046.0 246.5Q1036 263 1022.5 284.0Q1009 305 996.5 323.5Q984 342 977 350Q964 366 965.0 392.0Q966 418 987 450Z" fill="#faa700" stroke="none" transform="scale(1,-1) translate(0,-256)" /></svg>