<?xml version="1.0" encoding="utf-8" ?>
<svg baseProfile="full" height="256" version="1.1" width="256" xmlns="http://www.w3.org/2000/svg" xmlns:ev="http://www.w3.org/2001/xml-events" xmlns:xlink="http://www.w3.org/1999/xlink"><defs /><path d="M352 783Q354 796 360.5 808.0Q367 820 381 820Q393 820 398.0 811.0Q403 802 403 792Q403 764 394.0 734.0Q385 704 372 680Q366 666 359.5 671.0Q353 676 351 687Q347 711 347.5 735.0Q348 759 352 783Z" fill="#a8e3f0" stroke="none" transform="scale(1,-1) translate(0,-256)" /><path d="M352.0 226.593994140625Q354.0 239.593994140625 360.5 251.593994140625Q367.0 263.593994140625 381.0 263.593994140625Q393.0 263.593994140625 398.0 254.593994140625Q403.0 245.593994140625 403.0 235.593994140625Q403.0 207.593994140625 394.0 177.593994140625Q385.0 147.593994140625 372.0 123.593994140625Q366.0 109.593994140625 359.5 114.593994140625Q353.0 119.593994140625 351.0 130.593994140625Q347.0 154.593994140625 347.5 178.593994140625Q348.0 202.593994140625 352.0 226.593994140625Z" fill="#a8e3f0" stroke="none" transform="scale(1,-1) translate(0,-256)" /><path d="M870.25 504.75Q872.25 517.75 878.75 529.75Q885.25 541.75 899.25 541.75Q911.25 541.75 916.25 532.75Q921.25 523.75 921.25 513.75Q921.25 485.75 912.25 455.75Q903.25 425.75 890.25 401.75Q884.25 387.75 877.75 392.75Q871.25 397.75 869.25 408.75Q865.25 432.75 865.75 456.75Q866.25 480.75 870.25 504.75Z" fill="#a8e3f0" stroke="none" transform="scale(1,-1) translate(0,-256)" /><path d="M870.25 -51.656005859375Q872.25 -38.656005859375 878.75 -26.656005859375Q885.25 -14.656005859375 899.25 -14.656005859375Q911.25 -14.656005859375 916.25 -23.656005859375Q921.25 -32.656005859375 921.25 -42.656005859375Q921.25 -70.656005859375 912.25 -100.656005859375Q903.25 -130.656005859375 890.25 -154.656005859375Q884.25 -168.656005859375 877.75 -163.656005859375Q871.25 -158.656005859375 869.25 -147.656005859375Q865.25 -123.656005859375 865.75 -99.656005859375Q866.25 -75.656005859375 870.25 -51.656005859375Z" fill="#a8e3f0" stroke="none" transform="scale(1,-1) translate(0,-256)" /></svg>