<?xml version="1.0" encoding="utf-8" ?>
<svg baseProfile="full" height="256" version="1.1" width="256" xmlns="http://www.w3.org/2000/svg" xmlns:ev="http://www.w3.org/2001/xml-events" xmlns:xlink="http://www.w3.org/1999/xlink"><defs /><path d="M116 871H1159V-171H116ZM1057 -77Q1064 -77 1064 -70V770Q1064 777 1057 777H218Q211 777 211 770V-70Q211 -77 218 -77Z" fill="#774439" stroke="none" transform="scale(1,-1) translate(0,-256)" /><path d="M184 819Q170 817 168 803L108 850Q116 871 137 879Z" fill="#774439" stroke="none" transform="scale(1,-1) translate(0,-256)" /><path d="M1167 -150Q1159 -171 1138 -179L1091 -119Q1105 -117 1107 -103Z" fill="#774439" stroke="none" transform="scale(1,-1) translate(0,-256)" /><path d="M1107 803Q1105 817 1091 819L1138 879Q1159 871 1167 850Z" fill="#774439" stroke="none" transform="scale(1,-1) translate(0,-256)" /><path d="M168 -103Q170 -117 184 -119L137 -179Q116 -171 108 -150Z" fill="#774439" stroke="none" transform="scale(1,-1) translate(0,-256)" /><path d="M184 547Q184 534 192.5 525.5Q201 517 214 517H1061Q1073 517 1082.0 526.0Q1091 535 1091 547Q1091 559 1082.0 567.5Q1073 576 1061 576H213Q201 576 192.5 567.5Q184 559 184 547Z" fill="#774439" stroke="none" transform="scale(1,-1) translate(0,-256)" /></svg>