<?xml version="1.0" encoding="utf-8" ?>
<svg baseProfile="full" height="256" version="1.1" width="256" xmlns="http://www.w3.org/2000/svg" xmlns:ev="http://www.w3.org/2001/xml-events" xmlns:xlink="http://www.w3.org/1999/xlink"><defs /><path d="M232.0 684.0619964599609H418.0Q400.0 651.0619964599609 377.5 635.5619964599609Q355.0 620.0619964599609 355.0 620.0619964599609H325.0H296.0Q296.0 620.0619964599609 273.5 635.5619964599609Q251.0 651.0619964599609 232.0 684.0619964599609Z" fill="#a42714" stroke="none" transform="scale(1,-1) translate(0,-256)" /><path d="M232.0 -13.375H419.0Q400.0 -45.375 377.5 -60.875Q355.0 -76.375 355.0 -76.375H296.0Q296.0 -76.375 273.5 -60.875Q251.0 -45.375 232.0 -13.375Z" fill="#a42714" stroke="none" transform="scale(1,-1) translate(0,-256)" /><path d="M232.0 113.468994140625H419.0Q400.0 81.468994140625 377.5 65.968994140625Q355.0 50.468994140625 355.0 50.468994140625H296.0Q296.0 50.468994140625 273.5 65.968994140625Q251.0 81.468994140625 232.0 113.468994140625Z" fill="#a42714" stroke="none" transform="scale(1,-1) translate(0,-256)" /><path d="M232.0 240.406005859375H419.0Q400.0 208.406005859375 377.5 192.906005859375Q355.0 177.406005859375 355.0 177.406005859375H296.0Q296.0 177.406005859375 273.5 192.906005859375Q251.0 208.406005859375 232.0 240.406005859375Z" fill="#a42714" stroke="none" transform="scale(1,-1) translate(0,-256)" /><path d="M440.031005859375 72.968994140625H627.031005859375Q608.031005859375 40.968994140625 585.531005859375 25.468994140625Q563.031005859375 9.968994140625 563.031005859375 9.968994140625H504.031005859375Q504.031005859375 9.968994140625 481.531005859375 25.468994140625Q459.031005859375 40.968994140625 440.031005859375 72.968994140625Z" fill="#a42714" stroke="none" transform="scale(1,-1) translate(0,-256)" /><path d="M440.031005859375 199.906005859375H627.031005859375Q608.031005859375 167.906005859375 585.531005859375 152.406005859375Q563.031005859375 136.906005859375 563.031005859375 136.906005859375H504.031005859375Q504.031005859375 136.906005859375 481.531005859375 152.406005859375Q459.031005859375 167.906005859375 440.031005859375 199.906005859375Z" fill="#a42714" stroke="none" transform="scale(1,-1) translate(0,-256)" /><path d="M440.031005859375 326.75H627.031005859375Q608.031005859375 294.75 585.531005859375 279.25Q563.031005859375 263.75 563.031005859375 263.75H504.031005859375Q504.031005859375 263.75 481.531005859375 279.25Q459.031005859375 294.75 440.031005859375 326.75Z" fill="#a42714" stroke="none" transform="scale(1,-1) translate(0,-256)" /><path d="M440.031005859375 453.68699645996094H627.031005859375Q608.031005859375 421.68699645996094 585.531005859375 406.18699645996094Q563.031005859375 390.68699645996094 563.031005859375 390.68699645996094H504.031005859375Q504.031005859375 390.68699645996094 481.531005859375 406.18699645996094Q459.031005859375 421.68699645996094 440.031005859375 453.68699645996094Z" fill="#a42714" stroke="none" transform="scale(1,-1) translate(0,-256)" /><path d="M647.968994140625 72.968994140625H834.968994140625Q815.968994140625 40.968994140625 793.468994140625 25.468994140625Q770.968994140625 9.968994140625 770.968994140625 9.968994140625H711.968994140625Q711.968994140625 9.968994140625 689.468994140625 25.468994140625Q666.968994140625 40.968994140625 647.968994140625 72.968994140625Z" fill="#a42714" stroke="none" transform="scale(1,-1) translate(0,-256)" /><path d="M647.968994140625 199.906005859375H834.968994140625Q815.968994140625 167.906005859375 793.468994140625 152.406005859375Q770.968994140625 136.906005859375 770.968994140625 136.906005859375H711.968994140625Q711.968994140625 136.906005859375 689.468994140625 152.406005859375Q666.968994140625 167.906005859375 647.968994140625 199.906005859375Z" fill="#a42714" stroke="none" transform="scale(1,-1) translate(0,-256)" /><path d="M647.968994140625 326.75H834.968994140625Q815.968994140625 294.75 793.468994140625 279.25Q770.968994140625 263.75 770.968994140625 263.75H711.968994140625Q711.968994140625 263.75 689.468994140625 279.25Q666.968994140625 294.75 647.968994140625 326.75Z" fill="#a42714" stroke="none" transform="scale(1,-1) translate(0,-256)" /><path d="M647.968994140625 453.68699645996094H834.968994140625Q815.968994140625 421.68699645996094 793.468994140625 406.18699645996094Q770.968994140625 390.68699645996094 770.968994140625 390.68699645996094H711.968994140625Q711.968994140625 390.68699645996094 689.468994140625 406.18699645996094Q666.968994140625 421.68699645996094 647.968994140625 453.68699645996094Z" fill="#a42714" stroke="none" transform="scale(1,-1) translate(0,-256)" /><path d="M440.031005859375 639.031005859375H627.031005859375Q608.031005859375 607.031005859375 585.531005859375 591.531005859375Q563.031005859375 576.031005859375 563.031005859375 576.031005859375H504.031005859375Q504.031005859375 576.031005859375 481.531005859375 591.531005859375Q459.031005859375 607.031005859375 440.031005859375 639.031005859375Z" fill="#a42714" stroke="none" transform="scale(1,-1) translate(0,-256)" /><path d="M647.968994140625 639.031005859375H834.968994140625Q815.968994140625 607.031005859375 793.468994140625 591.531005859375Q770.968994140625 576.031005859375 770.968994140625 576.031005859375H711.968994140625Q711.968994140625 576.031005859375 689.468994140625 591.531005859375Q666.968994140625 607.031005859375 647.968994140625 639.031005859375Z" fill="#a42714" stroke="none" transform="scale(1,-1) translate(0,-256)" /><path d="M856.0 639.0319976806641H1043.0Q1024.0 607.0319976806641 1001.5 591.5319976806641Q979.0 576.0319976806641 979.0 576.0319976806641H920.0Q920.0 576.0319976806641 897.5 591.5319976806641Q875.0 607.0319976806641 856.0 639.0319976806641Z" fill="#a42714" stroke="none" transform="scale(1,-1) translate(0,-256)" /><path d="M232.0 453.906005859375H418.0Q400.0 420.906005859375 377.5 405.406005859375Q355.0 389.906005859375 355.0 389.906005859375H325.0H296.0Q296.0 389.906005859375 273.5 405.406005859375Q251.0 420.906005859375 232.0 453.906005859375Z" fill="#a42714" stroke="none" transform="scale(1,-1) translate(0,-256)" /><path d="M856.0 -13.375H1043.0Q1024.0 -45.375 1001.5 -60.875Q979.0 -76.375 979.0 -76.375H920.0Q920.0 -76.375 897.5 -60.875Q875.0 -45.375 856.0 -13.375Z" fill="#a42714" stroke="none" transform="scale(1,-1) translate(0,-256)" /><path d="M856.0 199.90699768066406H1043.0Q1024.0 167.90699768066406 1001.5 152.40699768066406Q979.0 136.90699768066406 979.0 136.90699768066406H920.0Q920.0 136.90699768066406 897.5 152.40699768066406Q875.0 167.90699768066406 856.0 199.90699768066406Z" fill="#a42714" stroke="none" transform="scale(1,-1) translate(0,-256)" /><path d="M856.0010070800781 326.75H1043.0010070800781Q1024.0010070800781 294.75 1001.5010070800781 279.25Q979.0010070800781 263.75 979.0010070800781 263.75H920.0010070800781Q920.0010070800781 263.75 897.5010070800781 279.25Q875.0010070800781 294.75 856.0010070800781 326.75Z" fill="#a42714" stroke="none" transform="scale(1,-1) translate(0,-256)" /><path d="M856 454H1043Q1024 421 1001.5 405.5Q979 390 979 390H950H920Q920 390 897.5 405.5Q875 421 856 454Z" fill="#a42714" stroke="none" transform="scale(1,-1) translate(0,-256)" /></svg>