<?xml version="1.0" encoding="utf-8" ?>
<svg baseProfile="full" height="256" version="1.1" width="256" xmlns="http://www.w3.org/2000/svg" xmlns:ev="http://www.w3.org/2001/xml-events" xmlns:xlink="http://www.w3.org/1999/xlink"><defs /><path d="M992 -194Q1016 -194 1023.0 -178.5Q1030 -163 1031 -139L1036 850Q1036 874 1026.0 891.5Q1016 909 991 909L282 912Q258 912 241.0 894.5Q224 877 224 853L225 -164Q225 -175 237.5 -183.5Q250 -192 275 -194Q313 -196 369.5 -197.0Q426 -198 493.5 -198.0Q561 -198 631.0 -198.0Q701 -198 765.5 -197.5Q830 -197 881.0 -196.0Q932 -195 962.0 -194.5Q992 -194 992 -194Z" fill="#f1edec" stroke="none" transform="scale(1,-1) translate(0,-256)" /><path d="M535 376Q535 376 533.5 357.5Q532 339 534.5 311.5Q537 284 548.0 256.5Q559 229 583.5 209.5Q608 190 652 189Q693 189 717.0 207.0Q741 225 752.5 252.5Q764 280 767.5 307.5Q771 335 770.5 353.5Q770 372 770 372Q770 372 759.0 381.5Q748 391 721.0 401.0Q694 411 646 411Q601 411 577.0 402.5Q553 394 544.0 385.0Q535 376 535 376Z" fill="#f1edec" stroke="none" transform="scale(1,-1) translate(0,-256)" /></svg>