<?xml version="1.0" encoding="utf-8" ?>
<svg baseProfile="full" height="256" version="1.1" width="256" xmlns="http://www.w3.org/2000/svg" xmlns:ev="http://www.w3.org/2001/xml-events" xmlns:xlink="http://www.w3.org/1999/xlink"><defs /><path d="M667 695Q674 694 683.0 676.5Q692 659 700.0 635.0Q708 611 713 591Q722 559 726.0 530.5Q730 502 730 484Q730 471 728.5 455.5Q727 440 725.5 428.0Q724 416 724 416L571 415L572 494Q572 494 574.5 515.5Q577 537 597 583Q606 605 619.5 631.5Q633 658 646.0 677.0Q659 696 667 695Z" fill="#ffb803" stroke="none" transform="scale(1,-1) translate(0,-256)" /></svg>