<?xml version="1.0" encoding="utf-8" ?>
<svg baseProfile="full" height="256" version="1.1" width="256" xmlns="http://www.w3.org/2000/svg" xmlns:ev="http://www.w3.org/2001/xml-events" xmlns:xlink="http://www.w3.org/1999/xlink"><defs /><path d="M511 393Q511 393 508.0 378.5Q505 364 503.0 341.0Q501 318 505 294Q510 264 516.5 248.5Q523 233 528.5 225.0Q534 217 534 208Q534 197 525.5 184.5Q517 172 495 150Q472 128 455.5 122.5Q439 117 439 110Q440 102 458.0 98.5Q476 95 505 100Q533 105 543.5 118.5Q554 132 556 130Q560 126 539 77Q533 61 521.5 50.0Q510 39 502.0 31.0Q494 23 499 16Q504 6 529.5 12.0Q555 18 587 43Q616 64 629.0 83.5Q642 103 648 104Q653 104 663.0 86.0Q673 68 702 41Q721 23 744.5 17.0Q768 11 786.0 12.0Q804 13 806 17Q808 23 794.0 33.0Q780 43 766 60Q753 76 747.0 94.0Q741 112 742 115Q744 117 762.5 109.5Q781 102 810 99Q840 97 853.0 105.0Q866 113 865 119Q864 126 846.5 129.0Q829 132 806 146Q784 161 774.0 176.0Q764 191 763 202Q763 210 766.0 216.0Q769 222 775.5 235.0Q782 248 791 276Q800 304 799.0 331.0Q798 358 794.5 375.0Q791 392 791 392Q791 392 777.5 402.0Q764 412 733.5 422.5Q703 433 651 434Q600 435 569.5 425.0Q539 415 525.0 404.0Q511 393 511 393Z" fill="#7958c2" stroke="none" transform="scale(1,-1) translate(0,-256)" /></svg>