<?xml version="1.0" encoding="utf-8" ?>
<svg baseProfile="full" height="256" version="1.1" width="256" xmlns="http://www.w3.org/2000/svg" xmlns:ev="http://www.w3.org/2001/xml-events" xmlns:xlink="http://www.w3.org/1999/xlink"><defs /><path d="M576 362Q585 407 562 411Q557 412 548.0 410.5Q539 409 532.5 399.5Q526 390 528 365Q531 341 544.0 329.0Q557 317 571.0 315.5Q585 314 591 320Q596 326 591.5 332.5Q587 339 580.5 346.5Q574 354 576 362Z" fill="#a7281d" stroke="none" transform="scale(1,-1) translate(0,-256)" /><path d="M469 155Q468 164 477.5 172.0Q487 180 504.5 179.5Q522 179 546 164Q569 149 571.5 131.5Q574 114 565.0 103.0Q556 92 544 95Q533 97 532.0 102.5Q531 108 530.5 114.0Q530 120 521 125Q512 131 500.0 132.5Q488 134 479.0 138.0Q470 142 469 155Z" fill="#a7281d" stroke="none" transform="scale(1,-1) translate(0,-256)" /><path d="M655 61Q652 69 659.0 78.5Q666 88 681.0 93.5Q696 99 715 94Q735 88 746.5 75.0Q758 62 758.5 49.5Q759 37 747 31Q732 25 724.5 35.5Q717 46 705 49Q697 51 687.0 49.0Q677 47 668.5 48.5Q660 50 655 61Z" fill="#a7281d" stroke="none" transform="scale(1,-1) translate(0,-256)" /><path d="M929 119Q941 115 941.5 98.5Q942 82 942 71Q942 63 950.0 55.5Q958 48 964.0 40.5Q970 33 966 28Q959 20 937.5 25.5Q916 31 903 57Q894 74 896.5 90.0Q899 106 908.5 114.5Q918 123 929 119Z" fill="#a7281d" stroke="none" transform="scale(1,-1) translate(0,-256)" /><path d="M780 323Q780 323 780.0 323.0Q780 323 780 323Q792 317 791.5 303.0Q791 289 791 279Q791 273 799.0 268.0Q807 263 812.5 256.5Q818 250 810 237Q806 231 793.5 229.5Q781 228 767.5 234.5Q754 241 747 259Q740 277 744.5 293.5Q749 310 759.0 318.5Q769 327 780 323Z" fill="#a7281d" stroke="none" transform="scale(1,-1) translate(0,-256)" /></svg>