<?xml version="1.0" encoding="utf-8" ?>
<svg baseProfile="full" height="256" version="1.1" width="256" xmlns="http://www.w3.org/2000/svg" xmlns:ev="http://www.w3.org/2001/xml-events" xmlns:xlink="http://www.w3.org/1999/xlink"><defs /><path d="M1009.8003234863281 268.7681884765625Q1009.8003234863281 346.32861328125 980.7151641845703 414.19398498535156Q951.6300048828125 482.0593566894531 900.0523223876953 533.6370391845703Q848.4746398925781 585.2147216796875 780.6092681884766 614.2998809814453Q712.743896484375 643.3850402832031 634.4078674316406 643.3850402832031Q556.8474426269531 643.3850402832031 488.98207092285156 614.2998809814453Q421.11669921875 585.2147216796875 369.5390167236328 533.6370391845703Q317.9613342285156 482.0593566894531 288.8761749267578 414.19398498535156Q259.791015625 346.32861328125 259.791015625 268.7681884765625Q259.791015625 190.43215942382812 288.8761749267578 122.56678771972656Q317.9613342285156 54.701416015625 369.5390167236328 3.1237335205078125Q421.11669921875 -48.453948974609375 488.98207092285156 -77.53910827636719Q556.8474426269531 -106.624267578125 634.4078674316406 -106.624267578125Q712.743896484375 -106.624267578125 780.6092681884766 -77.53910827636719Q848.4746398925781 -48.453948974609375 900.0523223876953 3.1237335205078125Q951.6300048828125 54.701416015625 980.7151641845703 122.56678771972656Q1009.8003234863281 190.43215942382812 1009.8003234863281 268.7681884765625Z" fill="#fafafa" stroke="none" transform="scale(1,-1) translate(0,-256)" /></svg>