<?xml version="1.0" encoding="utf-8" ?>
<svg baseProfile="full" height="256" version="1.1" width="256" xmlns="http://www.w3.org/2000/svg" xmlns:ev="http://www.w3.org/2001/xml-events" xmlns:xlink="http://www.w3.org/1999/xlink"><defs /><path d="M1097.2601776123047 292.10667419433594Q1097.2601776123047 387.7472381591797 1061.3949661254883 471.43273162841797Q1025.5297546386719 555.1182250976562 961.9287796020508 618.7192001342773Q898.3278045654297 682.3201751708984 814.6423110961914 718.1853866577148Q730.9568176269531 754.0505981445312 634.3598480224609 754.0505981445312Q538.7192840576172 754.0505981445312 455.0337905883789 718.1853866577148Q371.3482971191406 682.3201751708984 307.74732208251953 618.7192001342773Q244.14634704589844 555.1182250976562 208.28113555908203 471.43273162841797Q172.41592407226562 387.7472381591797 172.41592407226562 292.10667419433594Q172.41592407226562 195.50970458984375 208.28113555908203 111.82421112060547Q244.14634704589844 28.138717651367188 307.74732208251953 -35.462257385253906Q371.3482971191406 -99.063232421875 455.0337905883789 -134.9284439086914Q538.7192840576172 -170.7936553955078 634.3598480224609 -170.7936553955078Q730.9568176269531 -170.7936553955078 814.6423110961914 -134.9284439086914Q898.3278045654297 -99.063232421875 961.9287796020508 -35.462257385253906Q1025.5297546386719 28.138717651367188 1061.3949661254883 111.82421112060547Q1097.2601776123047 195.50970458984375 1097.2601776123047 292.10667419433594Z" fill="#cc2929" stroke="none" transform="scale(1,-1) translate(0,-256)" /><path d="M1080 620Q1057 627 1010.5 644.5Q964 662 895 696Q830 729 795.0 753.0Q760 777 746 790Q739 796 738.0 804.5Q737 813 742 820Q773 862 815.5 885.0Q858 908 906.5 909.5Q955 911 1003 886Q1051 861 1079.0 820.5Q1107 780 1114.5 731.5Q1122 683 1107 634Q1105 626 1096.5 621.5Q1088 617 1080 620Z" fill="#cc2929" stroke="none" transform="scale(1,-1) translate(0,-256)" /><path d="M195.0 620.0Q218.0 627.0 264.5 644.5Q311.0 662.0 380.0 696.0Q445.0 729.0 480.0 753.0Q515.0 777.0 529.0 790.0Q536.0 796.0 537.0 804.5Q538.0 813.0 533.0 820.0Q502.0 862.0 459.5 885.0Q417.0 908.0 368.5 909.5Q320.0 911.0 272.0 886.0Q224.0 861.0 196.0 820.5Q168.0 780.0 160.5 731.5Q153.0 683.0 168.0 634.0Q170.0 626.0 178.5 621.5Q187.0 617.0 195.0 620.0Z" fill="#cc2929" stroke="none" transform="scale(1,-1) translate(0,-256)" /></svg>