<?xml version="1.0" encoding="utf-8" ?>
<svg baseProfile="full" height="256" version="1.1" width="256" xmlns="http://www.w3.org/2000/svg" xmlns:ev="http://www.w3.org/2001/xml-events" xmlns:xlink="http://www.w3.org/1999/xlink"><defs /><path d="M806 -142Q808 -135 811.0 -120.0Q814 -105 808 -98Q803 -93 794.5 -93.0Q786 -93 780 -98Q775 -103 774.0 -118.5Q773 -134 778.5 -147.0Q784 -160 795 -157Q800 -156 802.5 -151.5Q805 -147 806 -142Z" fill="#a8e3f0" stroke="none" transform="scale(1,-1) translate(0,-256)" /><path d="M235.906005859375 -142.0Q237.906005859375 -135.0 240.906005859375 -120.0Q243.906005859375 -105.0 237.906005859375 -98.0Q232.906005859375 -93.0 224.406005859375 -93.0Q215.906005859375 -93.0 209.906005859375 -98.0Q204.906005859375 -103.0 203.906005859375 -118.5Q202.906005859375 -134.0 208.406005859375 -147.0Q213.906005859375 -160.0 224.906005859375 -157.0Q229.906005859375 -156.0 232.406005859375 -151.5Q234.906005859375 -147.0 235.906005859375 -142.0Z" fill="#a8e3f0" stroke="none" transform="scale(1,-1) translate(0,-256)" /></svg>