<?xml version="1.0" encoding="utf-8" ?>
<svg baseProfile="full" height="256" version="1.1" width="256" xmlns="http://www.w3.org/2000/svg" xmlns:ev="http://www.w3.org/2001/xml-events" xmlns:xlink="http://www.w3.org/1999/xlink"><defs /><path d="M769 -166Q764 -159 760.5 -149.5Q757 -140 750 -138Q735 -135 734.5 -145.5Q734 -156 737 -163Q742 -177 756.0 -188.5Q770 -200 785 -201Q803 -203 818 -196Q839 -186 847 -163Q848 -157 847.0 -151.0Q846 -145 841 -143Q834 -140 827 -147Q824 -150 822.0 -154.0Q820 -158 817 -161Q808 -173 794 -175Q779 -177 769 -166Z" fill="#757575" stroke="none" transform="scale(1,-1) translate(0,-256)" /><path d="M198.81199645996094 -166.0Q193.81199645996094 -159.0 190.31199645996094 -149.5Q186.81199645996094 -140.0 179.81199645996094 -138.0Q164.81199645996094 -135.0 164.31199645996094 -145.5Q163.81199645996094 -156.0 166.81199645996094 -163.0Q171.81199645996094 -177.0 185.81199645996094 -188.5Q199.81199645996094 -200.0 214.81199645996094 -201.0Q232.81199645996094 -203.0 247.81199645996094 -196.0Q268.81199645996094 -186.0 276.81199645996094 -163.0Q277.81199645996094 -157.0 276.81199645996094 -151.0Q275.81199645996094 -145.0 270.81199645996094 -143.0Q263.81199645996094 -140.0 256.81199645996094 -147.0Q253.81199645996094 -150.0 251.81199645996094 -154.0Q249.81199645996094 -158.0 246.81199645996094 -161.0Q237.81199645996094 -173.0 223.81199645996094 -175.0Q208.81199645996094 -177.0 198.81199645996094 -166.0Z" fill="#757575" stroke="none" transform="scale(1,-1) translate(0,-256)" /></svg>