<?xml version="1.0" encoding="utf-8" ?>
<svg baseProfile="full" height="256" version="1.1" width="256" xmlns="http://www.w3.org/2000/svg" xmlns:ev="http://www.w3.org/2001/xml-events" xmlns:xlink="http://www.w3.org/1999/xlink"><defs /><path d="M495 42Q504 42 508.5 32.0Q513 22 515.0 12.0Q517 2 517 2Q517 2 529.0 0.5Q541 -1 557.5 -3.5Q574 -6 586.0 -9.5Q598 -13 599 -18Q599 -22 589.5 -26.5Q580 -31 567.0 -35.5Q554 -40 544.5 -42.5Q535 -45 535 -45Q535 -45 537.0 -58.5Q539 -72 539.5 -87.0Q540 -102 535 -106Q531 -110 519.0 -103.0Q507 -96 492.5 -84.5Q478 -73 467.0 -63.5Q456 -54 454 -53Q451 -52 437.0 -59.0Q423 -66 405.5 -74.0Q388 -82 374.5 -87.5Q361 -93 360 -89Q358 -83 367.5 -72.0Q377 -61 387.5 -50.0Q398 -39 398 -35Q398 -30 385.0 -25.5Q372 -21 359.5 -15.5Q347 -10 347 -2Q348 4 363.0 6.0Q378 8 397.0 8.5Q416 9 430.5 8.0Q445 7 445 7Q445 7 454.0 16.5Q463 26 475.0 34.5Q487 43 495 42Z" fill="#f79228" stroke="none" transform="scale(1,-1) translate(0,-256)" /></svg>