<?xml version="1.0" encoding="utf-8" ?>
<svg baseProfile="full" height="256" version="1.1" width="256" xmlns="http://www.w3.org/2000/svg" xmlns:ev="http://www.w3.org/2001/xml-events" xmlns:xlink="http://www.w3.org/1999/xlink"><defs /><path d="M237 26Q250 39 277.0 44.5Q304 50 337.5 51.0Q371 52 405.5 51.5Q440 51 469.0 52.0Q498 53 515 59Q536 66 549.0 80.5Q562 95 573.5 113.5Q585 132 602.5 149.0Q620 166 650 178Q696 197 740.5 202.5Q785 208 821.5 206.0Q858 204 880.5 199.0Q903 194 903 192Q904 190 878.5 188.5Q853 187 815.5 183.5Q778 180 739.5 170.0Q701 160 675 140Q658 127 650.5 108.5Q643 90 638.5 70.5Q634 51 627.5 33.5Q621 16 606 6Q595 -1 566.0 -17.5Q537 -34 477 -40Q436 -44 388.5 -49.5Q341 -55 301.0 -65.0Q261 -75 242 -94Q231 -104 229.0 -115.5Q227 -127 219 -125Q211 -123 197.5 -109.5Q184 -96 183 -83Q182 -65 196.5 -54.5Q211 -44 226.5 -39.0Q242 -34 242 -34Q242 -34 235.0 -24.5Q228 -15 226.0 -1.0Q224 13 237 26Z" fill="#dcecf6" stroke="none" transform="scale(1,-1) translate(0,-256)" /></svg>