<?xml version="1.0" encoding="utf-8" ?>
<svg baseProfile="full" height="256" version="1.1" width="256" xmlns="http://www.w3.org/2000/svg" xmlns:ev="http://www.w3.org/2001/xml-events" xmlns:xlink="http://www.w3.org/1999/xlink"><defs /><path d="M589 824Q589 824 608.5 822.0Q628 820 661.5 811.0Q695 802 738.5 782.5Q782 763 829 728Q870 696 903.0 657.5Q936 619 958.5 582.5Q981 546 991.5 522.0Q1002 498 999 496Q996 494 979.0 496.0Q962 498 936.5 497.5Q911 497 881 488Q849 477 827.5 461.0Q806 445 795.0 433.5Q784 422 783 425Q779 431 771.5 459.5Q764 488 752.0 530.0Q740 572 722 617Q693 688 662.5 730.0Q632 772 611.0 790.5Q590 809 590 809Q590 809 581.0 800.0Q572 791 558.5 768.5Q545 746 532.0 704.5Q519 663 510 598Q503 552 500.5 505.0Q498 458 497.0 424.0Q496 390 494 384Q493 379 478.0 388.0Q463 397 439.0 408.0Q415 419 386 422Q358 424 334.0 419.5Q310 415 294.5 410.5Q279 406 277 409Q274 411 277.0 440.5Q280 470 296.5 519.0Q313 568 352 630Q389 687 430.0 724.5Q471 762 507.0 783.5Q543 805 566.0 814.5Q589 824 589 824Z" fill="#fefefe" stroke="none" transform="scale(1,-1) translate(0,-256)" /></svg>