<?xml version="1.0" encoding="utf-8" ?>
<svg baseProfile="full" height="256" version="1.1" width="256" xmlns="http://www.w3.org/2000/svg" xmlns:ev="http://www.w3.org/2001/xml-events" xmlns:xlink="http://www.w3.org/1999/xlink"><defs /><path d="M497 417Q511 399 533 403Q533 403 533.5 403.0Q534 403 534 403Q549 405 557.5 416.5Q566 428 564 442V445Q564 448 563 452Q561 458 558 464Q555 472 551 480Q538 501 519 516Q506 526 491 531Q482 534 473 536Q471 536 468.5 536.5Q466 537 464 537H459H451H446H441L436 536Q430 535 426 534Q421 532 418 531Q403 526 390 516Q370 501 358 479Q350 467 346 452Q345 447 344.5 444.5Q344 442 344 442Q340 421 358 409Q370 400 385.0 402.0Q400 404 410 415L412 417L417 423Q421 428 429 436Q433 440 437 443Q441 445 445 448Q448 449 451 450H452Q452 450 452.5 450.0Q453 450 452 450Q451 450 451.0 450.0Q451 450 452 450H457Q453 450 454.0 450.0Q455 450 454 450H455Q455 450 455.5 450.0Q456 450 456 450Q457 450 458 450Q461 450 464 448Q468 446 472 443Q477 439 480 436Q481 434 483.0 432.5Q485 431 486 429L491 424L495 419Z" fill="#422b0d" stroke="none" transform="scale(1,-1) translate(0,-256)" /><path d="M867 417Q881 399 904 403Q904 403 904.0 403.0Q904 403 905 403Q919 405 927.5 416.5Q936 428 934 443V445Q933 448 932 452Q931 458 928 464Q925 472 920 480Q908 501 889 516Q876 526 861 531Q852 534 843 536Q840 536 838.0 536.5Q836 537 833 537H829H821H816H811L806 536Q800 535 796 534Q791 532 788 531Q772 526 759 516Q740 501 728 479Q721 467 716 452Q715 447 714.5 444.5Q714 442 714 442Q710 421 727 409Q740 400 755.0 402.0Q770 404 780 415L782 417L787 423Q791 428 799 436Q803 440 807 443Q811 446 815 448Q818 449 821 450H822Q822 450 822.5 450.0Q823 450 822 450H821Q821 450 820.5 450.0Q820 450 821 450H827Q823 450 824.0 450.0Q825 450 824 450H825Q825 450 825.5 450.0Q826 450 826 450Q827 450 828 450Q831 450 834 448Q837 446 842 443Q847 439 849 436Q851 434 853.0 432.5Q855 431 856 429L861 424L865 419Z" fill="#422b0d" stroke="none" transform="scale(1,-1) translate(0,-256)" /></svg>