<?xml version="1.0" encoding="utf-8" ?>
<svg baseProfile="full" height="256" version="1.1" width="256" xmlns="http://www.w3.org/2000/svg" xmlns:ev="http://www.w3.org/2001/xml-events" xmlns:xlink="http://www.w3.org/1999/xlink"><defs /><path d="M73 15 409 -63 1194 -58 1189 10V243L67 242L68 125Z" fill="#ee3e23" stroke="none" transform="scale(1,-1) translate(0,-256)" /><path d="M435 362Q455 371 465.0 367.0Q475 363 475 363Q475 363 475.5 351.0Q476 339 470.0 326.5Q464 314 445 313Q425 313 416.5 318.5Q408 324 406.0 330.5Q404 337 404 337Q404 337 413.5 347.0Q423 357 435 362Z" fill="#ee3e23" stroke="none" transform="scale(1,-1) translate(0,-256)" /></svg>