<?xml version="1.0" encoding="utf-8" ?>
<svg baseProfile="full" height="256" version="1.1" width="256" xmlns="http://www.w3.org/2000/svg" xmlns:ev="http://www.w3.org/2001/xml-events" xmlns:xlink="http://www.w3.org/1999/xlink"><defs /><path d="M375 337Q377 336 410.0 336.5Q443 337 486 337Q521 338 555.5 337.5Q590 337 611 338Q621 339 623.5 345.5Q626 352 626 361Q627 366 627.0 387.0Q627 408 627.0 433.5Q627 459 626.5 478.0Q626 497 625 499Q624 500 609.5 500.5Q595 501 575.0 501.0Q555 501 536.5 501.0Q518 501 510 500Q497 500 487.5 498.5Q478 497 468 491Q458 485 448.0 474.5Q438 464 429 447Q427 443 418.0 426.0Q409 409 398.5 389.0Q388 369 381.0 353.5Q374 338 375 337Z" fill="#afe3fb" stroke="none" transform="scale(1,-1) translate(0,-256)" /></svg>