<?xml version="1.0" encoding="utf-8" ?>
<svg baseProfile="full" height="256" version="1.1" width="256" xmlns="http://www.w3.org/2000/svg" xmlns:ev="http://www.w3.org/2001/xml-events" xmlns:xlink="http://www.w3.org/1999/xlink"><defs /><path d="M84 233Q83 233 80.0 215.5Q77 198 77 169Q77 162 79.5 145.0Q82 128 84.0 113.5Q86 99 87 98Q87 98 96.0 98.5Q105 99 114.5 99.0Q124 99 125 100Q126 101 126.0 113.0Q126 125 126.0 140.0Q126 155 126.0 167.5Q126 180 126 183Q126 187 119.0 204.5Q112 222 107 227Q103 231 93.5 232.0Q84 233 84 233Z" fill="#fdfefe" stroke="none" transform="scale(1,-1) translate(0,-256)" /></svg>