<?xml version="1.0" encoding="utf-8" ?>
<svg baseProfile="full" height="256" version="1.1" width="256" xmlns="http://www.w3.org/2000/svg" xmlns:ev="http://www.w3.org/2001/xml-events" xmlns:xlink="http://www.w3.org/1999/xlink"><defs /><path d="M67 9Q66 21 74.0 24.5Q82 28 89 28Q93 28 110.5 27.5Q128 27 149.0 27.0Q170 27 185.5 27.0Q201 27 201 26Q201 26 191.0 7.0Q181 -12 171 -36Q162 -56 155.5 -73.0Q149 -90 149 -90Q149 -90 137.0 -90.0Q125 -90 110.5 -90.0Q96 -90 89 -90Q69 -89 69 -73Q69 -69 68.5 -49.5Q68 -30 67.5 -11.5Q67 7 67 9Z" fill="#b0b0b1" stroke="none" transform="scale(1,-1) translate(0,-256)" /><path d="M1165 28Q1165 29 1182.0 28.5Q1199 28 1206 28Q1212 28 1217.5 24.0Q1223 20 1224 15Q1224 11 1224.0 -7.5Q1224 -26 1224.5 -44.5Q1225 -63 1225 -67Q1225 -73 1221.0 -79.5Q1217 -86 1212 -86Q1208 -86 1196.5 -86.0Q1185 -86 1174.5 -86.0Q1164 -86 1164 -86Z" fill="#b0b0b1" stroke="none" transform="scale(1,-1) translate(0,-256)" /></svg>