<?xml version="1.0" encoding="utf-8" ?>
<svg baseProfile="full" height="256" version="1.1" width="256" xmlns="http://www.w3.org/2000/svg" xmlns:ev="http://www.w3.org/2001/xml-events" xmlns:xlink="http://www.w3.org/1999/xlink"><defs /><path d="M184 -86Q183 -32 217.0 6.5Q251 45 307 46Q366 48 403.5 14.0Q441 -20 443 -74Q444 -109 429.5 -141.0Q415 -173 385.5 -193.0Q356 -213 312 -212Q268 -212 240.0 -191.0Q212 -170 198.5 -141.0Q185 -112 184 -86Z" fill="#4e433d" stroke="none" transform="scale(1,-1) translate(0,-256)" /><path d="M867 -86Q866 -32 901.0 6.5Q936 45 991 46Q1050 48 1087.5 14.0Q1125 -20 1127 -74Q1129 -109 1114.5 -141.0Q1100 -173 1070.0 -193.0Q1040 -213 996 -212Q952 -212 923.5 -191.0Q895 -170 881.0 -140.5Q867 -111 867 -86Z" fill="#4e433d" stroke="none" transform="scale(1,-1) translate(0,-256)" /></svg>