<?xml version="1.0" encoding="utf-8" ?>
<svg baseProfile="full" height="256" version="1.1" width="256" xmlns="http://www.w3.org/2000/svg" xmlns:ev="http://www.w3.org/2001/xml-events" xmlns:xlink="http://www.w3.org/1999/xlink"><defs /><path d="M132 -26 136 -85H1169L1179 -47L1141 -48Q1141 -48 1136.0 -34.0Q1131 -20 1124.5 -2.0Q1118 16 1112.0 31.0Q1106 46 1105 49Q1098 62 1086 62Q1083 62 1065.5 62.5Q1048 63 1024.0 63.0Q1000 63 976.0 63.0Q952 63 934.0 63.0Q916 63 912 63Q902 63 898.0 58.5Q894 54 891 46Q889 42 883.0 27.0Q877 12 870.0 -5.5Q863 -23 858.0 -36.0Q853 -49 853 -49L468 -48Q468 -48 460.5 -36.0Q453 -24 442.5 -6.5Q432 11 423.0 25.0Q414 39 412 43Q406 51 398.5 58.0Q391 65 382 65Q378 65 358.0 65.5Q338 66 313.0 66.0Q288 66 268.5 66.0Q249 66 245 66Q228 66 220 58Q214 52 205.5 37.0Q197 22 197 22Q197 22 188.0 15.0Q179 8 166.0 -1.5Q153 -11 143.0 -18.5Q133 -26 132 -26Z" fill="#b22519" stroke="none" transform="scale(1,-1) translate(0,-256)" /></svg>