<?xml version="1.0" encoding="utf-8" ?>
<svg baseProfile="full" height="256" version="1.1" width="256" xmlns="http://www.w3.org/2000/svg" xmlns:ev="http://www.w3.org/2001/xml-events" xmlns:xlink="http://www.w3.org/1999/xlink"><defs /><path d="M242.343994140625 -81.031005859375Q242.343994140625 -53.031005859375 261.343994140625 -32.531005859375Q280.343994140625 -12.031005859375 310.343994140625 -12.031005859375Q340.343994140625 -11.031005859375 361.343994140625 -30.031005859375Q382.343994140625 -49.031005859375 383.343994140625 -77.031005859375Q384.343994140625 -105.031005859375 366.843994140625 -126.531005859375Q349.343994140625 -148.031005859375 313.343994140625 -148.031005859375Q277.343994140625 -148.031005859375 259.843994140625 -125.031005859375Q242.343994140625 -102.031005859375 242.343994140625 -81.031005859375Z" fill="#c8c8c8" stroke="none" transform="scale(1,-1) translate(0,-256)" /><path d="M926.718994140625 -81.031005859375Q926.718994140625 -53.031005859375 945.718994140625 -32.531005859375Q964.718994140625 -12.031005859375 994.718994140625 -12.031005859375Q1024.718994140625 -11.031005859375 1045.718994140625 -30.031005859375Q1066.718994140625 -49.031005859375 1067.718994140625 -77.031005859375Q1068.718994140625 -105.031005859375 1051.218994140625 -126.531005859375Q1033.718994140625 -148.031005859375 997.718994140625 -148.031005859375Q961.718994140625 -148.031005859375 944.218994140625 -125.031005859375Q926.718994140625 -102.031005859375 926.718994140625 -81.031005859375Z" fill="#c8c8c8" stroke="none" transform="scale(1,-1) translate(0,-256)" /></svg>