<?xml version="1.0" encoding="utf-8" ?>
<svg baseProfile="full" height="256" version="1.1" width="256" xmlns="http://www.w3.org/2000/svg" xmlns:ev="http://www.w3.org/2001/xml-events" xmlns:xlink="http://www.w3.org/1999/xlink"><defs /><path d="M596 -110Q595 -110 593.5 -111.0Q592 -112 591 -112Q592 -112 593.0 -111.5Q594 -111 595 -110Z" fill="#cfcfcf" stroke="none" transform="scale(1,-1) translate(0,-256)" /><path d="M1089 296Q1166 250 1190.0 174.5Q1214 99 1181 1Q1150 -95 1085.0 -145.0Q1020 -195 934 -178Q895 -171 870.5 -140.5Q846 -110 843.0 -48.0Q840 14 866 117Q871 137 881.5 157.0Q892 177 902.5 189.5Q913 202 917 201Q924 199 940.5 179.5Q957 160 960 110Q962 84 957.0 53.0Q952 22 949.5 -5.5Q947 -33 954.5 -51.5Q962 -70 989 -72Q1017 -74 1041.5 -57.0Q1066 -40 1084.0 -11.0Q1102 18 1109.5 52.5Q1117 87 1111.0 121.0Q1105 155 1081 181Q1056 208 1022.0 220.0Q988 232 944.5 216.0Q901 200 846 146Q805 104 780.0 53.5Q755 3 742.0 -43.0Q729 -89 725.0 -119.0Q721 -149 721 -149L639 -110L707 44Q691 23 669.0 -0.5Q647 -24 625.5 -44.0Q604 -64 589.5 -77.0Q575 -90 575 -90Q560 -53 539.0 -5.0Q518 43 495.5 94.0Q473 145 453.0 191.5Q433 238 418.0 272.0Q403 306 397 320Q397 320 374.0 333.0Q351 346 314.0 366.5Q277 387 236.0 410.0Q195 433 158.5 453.5Q122 474 98.5 487.0Q75 500 75 500L98 555L77 579L141 657L427 682Q441 671 482.5 646.5Q524 622 582.0 588.0Q640 554 706.0 516.0Q772 478 837.0 440.5Q902 403 957.0 372.0Q1012 341 1047.5 320.5Q1083 300 1089 296Z" fill="#cfcfcf" stroke="none" transform="scale(1,-1) translate(0,-256)" /></svg>