<?xml version="1.0" encoding="utf-8" ?>
<svg baseProfile="full" height="256" version="1.1" width="256" xmlns="http://www.w3.org/2000/svg" xmlns:ev="http://www.w3.org/2001/xml-events" xmlns:xlink="http://www.w3.org/1999/xlink"><defs /><path d="M954 560Q961 564 968.0 559.5Q975 555 977 547V367Q977 359 970.0 355.0Q963 351 956 355L936 365Q920 372 920 390V406Q920 420 906 420H833Q823 420 820 411Q808 379 782.0 358.5Q756 338 723 338Q690 338 663.5 358.5Q637 379 625 411Q622 420 612 420H555Q531 420 514.5 403.5Q498 387 498 363V343Q498 335 492.0 329.0Q486 323 477 323H435Q427 323 420.5 329.0Q414 335 414 343V363Q414 402 433.0 434.0Q452 466 484.5 485.5Q517 505 556 505H617Q626 505 629 512Q646 549 681 567V596Q681 603 673 603H609L602 600Q595 597 588.0 601.0Q581 605 581 613V651Q581 659 588.0 663.0Q595 667 602 663L609 659H674Q681 659 681 666Q681 674 687.0 680.5Q693 687 701 687H743Q752 687 758.0 680.5Q764 674 764 666Q764 659 771 659H834L842 662Q849 666 856.0 662.0Q863 658 863 650V612Q863 604 856.0 600.0Q849 596 842 599L834 603H771Q763 603 763 596V567Q798 549 815 512Q818 505 827 505H904Q918 505 918 519V524Q918 542 934 550Z" fill="#fafafa" stroke="none" transform="scale(1,-1) translate(0,-256)" /><path d="M586 297Q599 305 609.0 297.5Q619 290 618 279L566 47Q563 32 550.0 22.0Q537 12 521 12H398Q381 12 368.5 22.0Q356 32 353 47L301 279Q299 290 308.5 297.5Q318 305 331 297Q334 295 334 292L341 260Q341 254 348 254H569Q574 254 576 260L583 292Q583 295 586 297ZM358 220Q355 220 353.0 217.5Q351 215 353 211L364 159Q364 153 370 153H547Q551 153 553 159L564 211Q566 220 558 220Z" fill="#fafafa" stroke="none" transform="scale(1,-1) translate(0,-256)" /></svg>