<?xml version="1.0" encoding="utf-8" ?>
<svg baseProfile="full" height="256" version="1.1" width="256" xmlns="http://www.w3.org/2000/svg" xmlns:ev="http://www.w3.org/2001/xml-events" xmlns:xlink="http://www.w3.org/1999/xlink"><defs /><path d="M91 596 266 571 203 521Q203 521 184.5 524.5Q166 528 147 528Q129 529 107.5 529.0Q86 529 80 536Q75 541 74.5 556.5Q74 572 74 572Z" fill="#464c4f" stroke="none" transform="scale(1,-1) translate(0,-256)" /><path d="M98 306Q98 306 112.5 288.5Q127 271 148.5 245.5Q170 220 192.0 193.0Q214 166 230.0 146.5Q246 127 248 122Q251 118 272.0 118.0Q293 118 322.0 120.0Q351 122 379.5 125.0Q408 128 427.5 130.0Q447 132 447 132Q447 132 458.0 149.5Q469 167 486.5 193.5Q504 220 524.0 247.5Q544 275 562.5 297.5Q581 320 593.5 329.0Q606 338 609 325Q613 304 609.0 266.5Q605 229 589.0 186.0Q573 143 542.5 104.5Q512 66 463.0 41.5Q414 17 344 19Q296 19 257.0 38.0Q218 57 190.0 85.5Q162 114 145 142Q120 185 110.5 219.5Q101 254 100.0 276.0Q99 298 98 306Z" fill="#464c4f" stroke="none" transform="scale(1,-1) translate(0,-256)" /><path d="M659 328Q659 328 668.0 316.5Q677 305 686.5 293.5Q696 282 696 280Q696 279 709.5 265.0Q723 251 743.5 229.0Q764 207 787.0 182.5Q810 158 831.0 136.5Q852 115 865.0 101.0Q878 87 878 87L1051 151L1162 357Q1162 357 1165.5 339.0Q1169 321 1170.0 291.0Q1171 261 1164.5 223.5Q1158 186 1136 147Q1103 85 1044.5 48.0Q986 11 908 14Q829 17 778.5 52.0Q728 87 701 131Q681 165 671.5 199.5Q662 234 659.5 263.5Q657 293 658.0 310.5Q659 328 659 328Z" fill="#464c4f" stroke="none" transform="scale(1,-1) translate(0,-256)" /><path d="M753 541Q753 541 722.5 549.5Q692 558 630.0 559.0Q568 560 475 538Q413 524 369.0 497.0Q325 470 296.5 439.0Q268 408 252.0 379.5Q236 351 230.0 333.0Q224 315 224 315Q224 315 225.5 331.5Q227 348 234.5 374.5Q242 401 261 431Q284 466 325.5 500.0Q367 534 443 561Q502 581 561.5 586.5Q621 592 671.0 588.5Q721 585 751.0 578.5Q781 572 779 568Q779 568 772.5 561.0Q766 554 759.5 547.5Q753 541 753 541Z" fill="#464c4f" stroke="none" transform="scale(1,-1) translate(0,-256)" /><path d="M795 341Q795 341 802.5 372.0Q810 403 836 444Q851 468 879.5 496.0Q908 524 954 548Q998 570 1041.5 577.5Q1085 585 1121.0 584.5Q1157 584 1178.5 581.0Q1200 578 1200 578Q1200 578 1200.0 570.5Q1200 563 1200.0 555.0Q1200 547 1199 546Q1199 545 1179.5 547.0Q1160 549 1128.5 550.5Q1097 552 1060.5 549.0Q1024 546 990 534Q936 516 898.5 484.0Q861 452 838.5 419.0Q816 386 805.5 363.5Q795 341 795 341Z" fill="#464c4f" stroke="none" transform="scale(1,-1) translate(0,-256)" /></svg>