<?xml version="1.0" encoding="utf-8" ?>
<svg baseProfile="full" height="256" version="1.1" width="256" xmlns="http://www.w3.org/2000/svg" xmlns:ev="http://www.w3.org/2001/xml-events" xmlns:xlink="http://www.w3.org/1999/xlink"><defs /><path d="M1202 690Q1203 688 1202.5 671.0Q1202 654 1201.5 632.0Q1201 610 1200.5 593.5Q1200 577 1200 577L1056 561L1060 549Q1060 549 1076.0 529.0Q1092 509 1113.0 475.5Q1134 442 1150.0 400.5Q1166 359 1166 316Q1166 268 1149.5 219.5Q1133 171 1101.0 130.5Q1069 90 1022.5 66.0Q976 42 916 42Q858 42 811.5 66.0Q765 90 732.0 129.5Q699 169 680.5 216.0Q662 263 659 310Q657 357 671.0 398.5Q685 440 704.0 472.0Q723 504 738.0 522.5Q753 541 753 541L723 571L549 568L499 547Q499 547 516.0 529.0Q533 511 555.0 479.0Q577 447 593.5 403.5Q610 360 609 310Q608 266 592.0 220.0Q576 174 544.5 135.5Q513 97 467.5 72.5Q422 48 363 47Q303 46 255.5 69.0Q208 92 173.5 129.5Q139 167 120.0 211.5Q101 256 99 298Q96 349 112.5 394.5Q129 440 151.5 475.0Q174 510 192.0 530.0Q210 550 210 550Q210 550 194.0 555.5Q178 561 154 565Q140 568 121.0 568.5Q102 569 88.0 569.0Q74 569 74 569Q74 569 74.5 587.0Q75 605 75.5 628.5Q76 652 77.0 671.0Q78 690 80 692Q80 692 98.5 692.5Q117 693 147.5 691.5Q178 690 214 683Q243 678 277.0 667.5Q311 657 335.5 648.0Q360 639 360 639Q360 639 381.0 646.5Q402 654 439.5 664.0Q477 674 525.5 681.5Q574 689 628 689Q701 688 761.0 676.0Q821 664 857.0 652.5Q893 641 893 641Q893 641 924.0 654.0Q955 667 1015 682Q1043 690 1075.0 692.5Q1107 695 1132.0 695.5Q1157 696 1163 696Q1176 695 1188.0 694.5Q1200 694 1202 690ZM357 152Q408 154 437.5 180.0Q467 206 478.0 243.5Q489 281 483 315Q476 355 455.5 388.0Q435 421 411.0 445.0Q387 469 369.5 482.5Q352 496 352 496Q352 496 335.5 484.0Q319 472 296.0 449.5Q273 427 253.0 395.0Q233 363 225 323Q217 280 232.5 240.0Q248 200 280.5 175.0Q313 150 357 152ZM914 149Q953 147 983.0 169.0Q1013 191 1029.0 226.5Q1045 262 1042 302Q1039 345 1018.0 381.0Q997 417 971.5 442.0Q946 467 927.0 481.0Q908 495 908 495Q903 495 885.0 480.0Q867 465 845.5 438.5Q824 412 807.5 376.5Q791 341 790 300Q788 233 820.0 192.5Q852 152 914 149Z" fill="#606265" stroke="none" transform="scale(1,-1) translate(0,-256)" /></svg>