<?xml version="1.0" encoding="utf-8" ?>
<svg baseProfile="full" height="256" version="1.1" width="256" xmlns="http://www.w3.org/2000/svg" xmlns:ev="http://www.w3.org/2001/xml-events" xmlns:xlink="http://www.w3.org/1999/xlink"><defs /><path d="M106 665Q118 674 141.0 673.5Q164 673 182.5 665.5Q201 658 201 650Q200 637 184.5 634.0Q169 631 159 629Q149 627 138.5 618.0Q128 609 112 612Q104 613 101.0 624.5Q98 636 99.0 648.5Q100 661 106 665Z" fill="#9a9a99" stroke="none" transform="scale(1,-1) translate(0,-256)" /><path d="M156 405Q145 412 158.5 438.5Q172 465 202.5 499.0Q233 533 272 562Q314 594 356.0 611.5Q398 629 426.5 632.0Q455 635 458 624Q460 616 439.0 606.0Q418 596 383.0 580.5Q348 565 309 539Q273 516 247.5 491.0Q222 466 205.0 444.5Q188 423 176.5 411.5Q165 400 156 405Z" fill="#9a9a99" stroke="none" transform="scale(1,-1) translate(0,-256)" /><path d="M391 118Q386 131 405.5 140.0Q425 149 442 163Q461 179 470.0 195.0Q479 211 495 206Q508 201 502.0 179.0Q496 157 474 136Q459 121 441.5 113.0Q424 105 409.5 106.0Q395 107 391 118Z" fill="#9a9a99" stroke="none" transform="scale(1,-1) translate(0,-256)" /><path d="M1067 231Q1084 229 1080.5 205.5Q1077 182 1061 158Q1049 141 1032.5 131.5Q1016 122 1002.5 121.5Q989 121 986 132Q983 144 999.5 154.5Q1016 165 1030 183Q1044 201 1047.5 217.0Q1051 233 1067 231Z" fill="#9a9a99" stroke="none" transform="scale(1,-1) translate(0,-256)" /><path d="M824 570Q848 589 876.5 605.5Q905 622 932.0 633.0Q959 644 977.5 645.5Q996 647 1001 637Q1005 627 992.5 618.5Q980 610 957.0 600.5Q934 591 905.5 576.5Q877 562 850 540Q813 511 786.0 477.0Q759 443 742.0 421.0Q725 399 717 405Q710 411 717.0 435.5Q724 460 750.0 495.5Q776 531 824 570Z" fill="#9a9a99" stroke="none" transform="scale(1,-1) translate(0,-256)" /></svg>