<?xml version="1.0" encoding="utf-8" ?>
<svg baseProfile="full" height="256" version="1.1" width="256" xmlns="http://www.w3.org/2000/svg" xmlns:ev="http://www.w3.org/2001/xml-events" xmlns:xlink="http://www.w3.org/1999/xlink"><defs /><path d="M634 -164Q742 -164 840.0 -128.5Q938 -93 1013 -28Q1093 44 1135.5 142.5Q1178 241 1178 360Q1178 479 1135.5 578.5Q1093 678 1013 749Q938 815 840.5 849.5Q743 884 634 884Q555 884 477.0 864.0Q399 844 329.5 803.5Q260 763 206.0 700.5Q152 638 121.0 553.0Q90 468 90 360Q90 252 121.0 167.5Q152 83 206.0 20.5Q260 -42 329.5 -83.0Q399 -124 477.0 -144.0Q555 -164 634 -164Z" fill="#000000" stroke="none" transform="scale(1,-1) translate(0,-256)" /><path d="M809 -82Q816 -113 813.5 -143.0Q811 -173 796.0 -193.0Q781 -213 748 -214Q715 -215 698.5 -200.5Q682 -186 678.0 -163.0Q674 -140 677.0 -114.5Q680 -89 684 -68Q686 -54 686.5 -31.5Q687 -9 674.0 10.5Q661 30 623 35Q588 39 555 49Q555 49 565.0 57.0Q575 65 606 70Q628 74 645.0 71.0Q662 68 678.0 65.0Q694 62 714 66Q737 71 745.0 75.0Q753 79 758.0 84.5Q763 90 779 97Q802 108 828 102Q828 102 819.5 95.5Q811 89 801.5 73.0Q792 57 789 30Q786 10 794.0 -20.0Q802 -50 809 -82Z" fill="#000000" stroke="none" transform="scale(1,-1) translate(0,-256)" /></svg>