<?xml version="1.0" encoding="utf-8" ?>
<svg baseProfile="full" height="256" version="1.1" width="256" xmlns="http://www.w3.org/2000/svg" xmlns:ev="http://www.w3.org/2001/xml-events" xmlns:xlink="http://www.w3.org/1999/xlink"><defs /><path d="M967 873H113V-173H967V873ZM979 911Q990 911 997.5 903.0Q1005 895 1005 884V-184Q1005 -195 997.5 -203.0Q990 -211 979 -211H101Q90 -211 82.5 -203.0Q75 -195 75 -184V884Q75 895 82.5 903.0Q90 911 101 911Z" fill="#6fbff0" stroke="none" transform="scale(1,-1) translate(0,-256)" /><path d="M1006 476 1005 202Q1005 202 985.5 186.0Q966 170 935.5 145.0Q905 120 871.0 91.5Q837 63 806.5 38.0Q776 13 756.5 -3.5Q737 -20 737 -20Q735 -21 711.5 -29.0Q688 -37 654.0 -47.5Q620 -58 586.5 -68.0Q553 -78 530.5 -85.0Q508 -92 508 -92Q494 -95 485.0 -84.5Q476 -74 481 -61Q481 -61 489.5 -44.5Q498 -28 511.0 -3.0Q524 22 538.0 47.5Q552 73 562.5 91.0Q573 109 576 112Z" fill="#6fbff0" stroke="none" transform="scale(1,-1) translate(0,-256)" /></svg>