<?xml version="1.0" encoding="utf-8" ?>
<svg baseProfile="full" height="256" version="1.1" width="256" xmlns="http://www.w3.org/2000/svg" xmlns:ev="http://www.w3.org/2001/xml-events" xmlns:xlink="http://www.w3.org/1999/xlink"><defs /><path d="M721 274Q720 275 693.5 288.0Q667 301 625.0 321.0Q583 341 537.0 363.5Q491 386 449.5 405.5Q408 425 382.0 437.5Q356 450 356 450L333 731L480 665L773 653L946 728L925 442Q925 442 910.5 429.5Q896 417 873.0 397.5Q850 378 824.5 356.5Q799 335 775.5 316.0Q752 297 737.0 285.0Q722 273 721 274Z" fill="#ffffff" stroke="none" transform="scale(1,-1) translate(0,-256)" /><path d="M432 592Q451 593 460.0 581.0Q469 569 473 548Q476 534 472.0 514.5Q468 495 444 493Q420 491 413.0 506.0Q406 521 403 539Q397 590 432 592Z" fill="#ffffff" stroke="none" transform="scale(1,-1) translate(0,-256)" /><path d="M443 479Q466 481 471.5 463.5Q477 446 479 430Q480 425 482.5 395.0Q485 365 488.5 321.5Q492 278 496.0 229.5Q500 181 503.5 137.0Q507 93 509.0 63.5Q511 34 511 29Q512 15 503.0 4.0Q494 -7 482 -7Q469 -7 460.5 1.5Q452 10 450 31Q450 38 447.5 66.0Q445 94 441.5 134.5Q438 175 434.5 220.0Q431 265 427.5 307.5Q424 350 421.5 382.0Q419 414 418 426Q416 455 421.5 466.5Q427 478 443 479Z" fill="#ffffff" stroke="none" transform="scale(1,-1) translate(0,-256)" /><path d="M398 -72Q403 -59 414.0 -64.0Q425 -69 441.0 -82.0Q457 -95 479 -105Q504 -118 523.0 -122.5Q542 -127 552.5 -131.0Q563 -135 563 -146Q562 -156 546.0 -160.0Q530 -164 506.0 -161.0Q482 -158 458 -145Q425 -128 409.0 -106.0Q393 -84 398 -72Z" fill="#ffffff" stroke="none" transform="scale(1,-1) translate(0,-256)" /><path d="M374 820Q378 815 372.5 809.5Q367 804 359.5 794.0Q352 784 352 766Q351 758 366.0 742.0Q381 726 415.5 710.0Q450 694 506.5 682.5Q563 671 647 672Q734 672 788.5 684.0Q843 696 873.0 712.5Q903 729 914.5 744.0Q926 759 926 766Q928 778 925.0 787.0Q922 796 922 801Q922 804 929.5 803.5Q937 803 943.5 794.0Q950 785 948 762Q947 739 914.0 712.5Q881 686 815.0 667.5Q749 649 649 650Q566 651 510.0 660.5Q454 670 419.0 684.0Q384 698 365.0 712.5Q346 727 338 739Q322 761 328.0 779.5Q334 798 342 807Q351 818 361.0 820.5Q371 823 374 820Z" fill="#ffffff" stroke="none" transform="scale(1,-1) translate(0,-256)" /></svg>