<?xml version="1.0" encoding="utf-8" ?>
<svg baseProfile="full" height="256" version="1.1" width="256" xmlns="http://www.w3.org/2000/svg" xmlns:ev="http://www.w3.org/2001/xml-events" xmlns:xlink="http://www.w3.org/1999/xlink"><defs /><path d="M355 451Q355 465 377.0 483.0Q399 501 434.5 517.5Q470 534 512 542Q545 549 596.0 552.0Q647 555 705.0 550.0Q763 545 816 528Q869 510 892.0 490.0Q915 470 920.0 456.0Q925 442 925 442Q925 442 923.0 416.5Q921 391 918.0 348.5Q915 306 910.5 255.0Q906 204 901.5 152.5Q897 101 893.0 56.5Q889 12 886.0 -17.0Q883 -46 881 -50Q877 -61 847.0 -82.0Q817 -103 764.0 -120.5Q711 -138 638 -140Q565 -141 515.0 -122.0Q465 -103 437.0 -80.0Q409 -57 402 -45Q399 -39 394.0 -2.5Q389 34 383.5 88.0Q378 142 373.0 202.0Q368 262 364.0 316.5Q360 371 357.5 407.5Q355 444 355 451Z" fill="#c0c0c0" stroke="none" transform="scale(1,-1) translate(0,-256)" /></svg>