<?xml version="1.0" encoding="utf-8" ?>
<svg baseProfile="full" height="256" version="1.1" width="256" xmlns="http://www.w3.org/2000/svg" xmlns:ev="http://www.w3.org/2001/xml-events" xmlns:xlink="http://www.w3.org/1999/xlink"><defs /><path d="M1090.906005859375 669.0Q1102.906005859375 669.0 1102.906005859375 682.0V741.0Q1102.906005859375 754.0 1090.906005859375 754.0H1030.906005859375Q1018.906005859375 754.0 1018.906005859375 741.0V682.0Q1018.906005859375 669.0 1030.906005859375 669.0Z" fill="#0288d1" stroke="none" transform="scale(1,-1) translate(0,-256)" /><path d="M1090.906005859375 403.5Q1102.906005859375 403.5 1102.906005859375 416.5V475.5Q1102.906005859375 488.5 1090.906005859375 488.5H1030.906005859375Q1018.906005859375 488.5 1018.906005859375 475.5V416.5Q1018.906005859375 403.5 1030.906005859375 403.5Z" fill="#0288d1" stroke="none" transform="scale(1,-1) translate(0,-256)" /><path d="M737.843994140625 270.75Q749.843994140625 270.75 749.843994140625 283.75V342.75Q749.843994140625 355.75 737.843994140625 355.75H677.843994140625Q665.843994140625 355.75 665.843994140625 342.75V283.75Q665.843994140625 270.75 677.843994140625 270.75Z" fill="#0288d1" stroke="none" transform="scale(1,-1) translate(0,-256)" /><path d="M855.593994140625 -127.5Q867.593994140625 -127.5 867.593994140625 -114.5V-55.5Q867.593994140625 -42.5 855.593994140625 -42.5H795.593994140625Q783.593994140625 -42.5 783.593994140625 -55.5V-114.5Q783.593994140625 -127.5 795.593994140625 -127.5Z" fill="#0288d1" stroke="none" transform="scale(1,-1) translate(0,-256)" /></svg>