<?xml version="1.0" encoding="utf-8" ?>
<svg baseProfile="full" height="256" version="1.1" width="256" xmlns="http://www.w3.org/2000/svg" xmlns:ev="http://www.w3.org/2001/xml-events" xmlns:xlink="http://www.w3.org/1999/xlink"><defs /><path d="M737.843994140625 536.25Q749.843994140625 536.25 749.843994140625 549.25V608.25Q749.843994140625 621.25 737.843994140625 621.25H677.843994140625Q665.843994140625 621.25 665.843994140625 608.25V549.25Q665.843994140625 536.25 677.843994140625 536.25Z" fill="#00bfa5" stroke="none" transform="scale(1,-1) translate(0,-256)" /><path d="M973.25 403.5Q985.25 403.5 985.25 416.5V475.5Q985.25 488.5 973.25 488.5H913.25Q901.25 488.5 901.25 475.5V416.5Q901.25 403.5 913.25 403.5Z" fill="#00bfa5" stroke="none" transform="scale(1,-1) translate(0,-256)" /><path d="M973.25 -127.5Q985.25 -127.5 985.25 -114.5V-55.5Q985.25 -42.5 973.25 -42.5H913.25Q901.25 -42.5 901.25 -55.5V-114.5Q901.25 -127.5 913.25 -127.5Z" fill="#00bfa5" stroke="none" transform="scale(1,-1) translate(0,-256)" /></svg>