<?xml version="1.0" encoding="utf-8" ?>
<svg baseProfile="full" height="256" version="1.1" width="256" xmlns="http://www.w3.org/2000/svg" xmlns:ev="http://www.w3.org/2001/xml-events" xmlns:xlink="http://www.w3.org/1999/xlink"><defs /><path d="M855.593994140625 669.0Q867.593994140625 669.0 867.593994140625 682.0V741.0Q867.593994140625 754.0 855.593994140625 754.0H795.593994140625Q783.593994140625 754.0 783.593994140625 741.0V682.0Q783.593994140625 669.0 795.593994140625 669.0Z" fill="#fb8c00" stroke="none" transform="scale(1,-1) translate(0,-256)" /><path d="M973.25 536.25Q985.25 536.25 985.25 549.25V608.25Q985.25 621.25 973.25 621.25H913.25Q901.25 621.25 901.25 608.25V549.25Q901.25 536.25 913.25 536.25Z" fill="#fb8c00" stroke="none" transform="scale(1,-1) translate(0,-256)" /><path d="M737.843994140625 403.5Q749.843994140625 403.5 749.843994140625 416.5V475.5Q749.843994140625 488.5 737.843994140625 488.5H677.843994140625Q665.843994140625 488.5 665.843994140625 475.5V416.5Q665.843994140625 403.5 677.843994140625 403.5Z" fill="#fb8c00" stroke="none" transform="scale(1,-1) translate(0,-256)" /></svg>