<?xml version="1.0" encoding="utf-8" ?>
<svg baseProfile="full" height="256" version="1.1" width="256" xmlns="http://www.w3.org/2000/svg" xmlns:ev="http://www.w3.org/2001/xml-events" xmlns:xlink="http://www.w3.org/1999/xlink"><defs /><path d="M493 437Q507 452 525 444Q526 443 529 443Q538 438 542.0 428.0Q546 418 542 408L541 406Q540 402 537 399Q535 395 533 393Q532 392 531.0 390.0Q530 388 529 387Q524 379 517 373Q509 364 499 358Q487 350 475 344Q461 338 447 335Q432 332 416 332H409Q408 332 405.5 332.5Q403 333 401 333L385 336Q370 339 357 345Q345 351 334 358Q324 365 316 373Q304 385 295 400Q293 404 292 407L290 410Q282 428 297 440Q307 447 319.0 446.5Q331 446 340 438L342 436L348 431Q351 429 355.0 425.5Q359 422 364 418Q367 417 369.5 415.0Q372 413 375 412Q381 409 388 406Q395 404 402 403Q406 401 409 402H417Q425 401 432 403Q440 404 446 406Q450 408 453.5 409.0Q457 410 459 412Q462 413 465.0 415.0Q468 417 471 418Q476 421 480 425Q482 427 483.5 428.0Q485 429 487 431L491 435Z" fill="#422b0d" stroke="none" transform="scale(1,-1) translate(0,-256)" /><path d="M914 437Q928 452 946 444Q947 443 950 443Q959 438 963.0 428.0Q967 418 963 408L962 406Q961 402 958 399Q956 395 954 393Q953 392 952.0 390.0Q951 388 950 387Q945 379 938 373Q930 364 920 358Q908 350 896 344Q882 338 868 335Q853 332 837 332H830Q829 332 826.5 332.5Q824 333 822 333L806 336Q791 339 778 345Q766 351 755 358Q745 365 737 373Q725 385 716 400Q714 404 713 407L711 410Q703 428 718 440Q728 447 740.0 446.5Q752 446 761 438L763 436L769 431Q772 429 776.0 425.5Q780 422 785 418Q788 417 790.5 415.0Q793 413 796 412Q802 409 809 406Q816 404 823 403Q827 401 830 402H838Q846 401 853 403Q861 404 867 406Q871 408 874.5 409.0Q878 410 880 412Q883 413 886.0 415.0Q889 417 892 418Q897 421 901 425Q903 427 904.5 428.0Q906 429 908 431L912 435Z" fill="#422b0d" stroke="none" transform="scale(1,-1) translate(0,-256)" /><path d="M560 19Q571 19 581 23Q609 32 638 32Q666 32 694 23Q704 19 715 19Q753 20 772 54Q790 87 769 119Q725 188 638 188Q550 188 506 119Q496 104 496 85Q495 58 514.0 39.0Q533 20 560 19Z" fill="#422b0d" stroke="none" transform="scale(1,-1) translate(0,-256)" /></svg>