<?xml version="1.0" encoding="utf-8" ?>
<svg baseProfile="full" height="256" version="1.1" width="256" xmlns="http://www.w3.org/2000/svg" xmlns:ev="http://www.w3.org/2001/xml-events" xmlns:xlink="http://www.w3.org/1999/xlink"><defs /><path d="M1046 151Q1053 151 1065 153Q1026 37 922.0 -29.5Q818 -96 646 -95Q456 -95 351.0 -29.0Q246 37 212 154Q219 152 224.5 151.5Q230 151 233 150Q242 149 244.0 170.5Q246 192 244.5 227.0Q243 262 239.0 301.5Q235 341 230.5 376.0Q226 411 223.0 433.5Q220 456 220 456Q220 456 218.5 456.0Q217 456 213 456Q236 549 288.5 625.0Q341 701 426.5 746.5Q512 792 634 792Q754 792 844.5 746.5Q935 701 993.5 623.0Q1052 545 1075 449Q1066 449 1061.0 449.0Q1056 449 1056 449Q1056 449 1053.5 427.5Q1051 406 1047.5 372.5Q1044 339 1040.5 301.0Q1037 263 1036.0 229.0Q1035 195 1037.0 173.0Q1039 151 1046 151ZM918 135Q936 169 936.5 195.5Q937 222 929.5 244.0Q922 266 913.5 286.5Q905 307 905 329Q904 356 912.0 383.5Q920 411 925.5 438.0Q931 465 923.5 493.0Q916 521 885 549Q857 574 831.0 579.5Q805 585 779.5 578.0Q754 571 729.5 559.0Q705 547 681.5 537.0Q658 527 635 526Q610 525 588.5 535.5Q567 546 546.0 559.0Q525 572 501.5 580.5Q478 589 450.0 584.5Q422 580 387 554Q357 532 349.5 503.5Q342 475 347.0 445.0Q352 415 360.5 386.5Q369 358 370 334Q371 311 363.5 290.0Q356 269 347.0 247.5Q338 226 335.0 201.5Q332 177 342 147Q363 85 438.5 49.5Q514 14 640 11Q706 10 762.0 25.5Q818 41 858.5 69.5Q899 98 918 135Z" fill="#b6885a" stroke="none" transform="scale(1,-1) translate(0,-256)" /><path d="M1200 313Q1199 267 1184.5 237.0Q1170 207 1148.0 189.5Q1126 172 1103.5 163.5Q1081 155 1065 153Q1075 183 1081 217Q1094 221 1110.0 231.5Q1126 242 1138.0 260.5Q1150 279 1151 308Q1152 337 1141.0 354.0Q1130 371 1114.5 379.5Q1099 388 1085 390Q1082 419 1075 449Q1090 447 1111.0 441.5Q1132 436 1152.5 421.5Q1173 407 1186.5 381.0Q1200 355 1200 313Z" fill="#b6885a" stroke="none" transform="scale(1,-1) translate(0,-256)" /><path d="M1064 216Q1068 213 1081 217Q1075 183 1065 152Q1053 151 1046 151Q1039 151 1037.0 173.0Q1035 195 1036.0 229.0Q1037 263 1040.5 301.0Q1044 339 1047.5 372.5Q1051 406 1053.5 427.5Q1056 449 1056 449Q1056 449 1061.0 449.0Q1066 449 1075 449Q1082 420 1085 390Q1067 393 1063 390Q1061 389 1063.5 359.5Q1066 330 1065 298Q1064 264 1062.0 241.0Q1060 218 1064 216Z" fill="#b6885a" stroke="none" transform="scale(1,-1) translate(0,-256)" /><path d="M122 313Q122 279 135.5 259.0Q149 239 167.5 229.5Q186 220 198 217Q203 184 212 154Q193 157 169.0 166.5Q145 176 122.5 194.0Q100 212 86.0 242.0Q72 272 74 317Q75 364 93.0 391.5Q111 419 135.0 432.5Q159 446 181.0 450.5Q203 455 213 455Q206 425 201 395Q194 397 174.5 392.0Q155 387 138.5 369.0Q122 351 122 313Z" fill="#b6885a" stroke="none" transform="scale(1,-1) translate(0,-256)" /><path d="M220 456Q220 456 223.0 433.5Q226 411 230.5 376.0Q235 341 239.0 301.5Q243 262 244.5 227.0Q246 192 244.0 170.5Q242 149 233 150Q229 151 224.0 151.5Q219 152 212 154Q203 184 198 217Q209 215 212 217Q214 217 211.0 246.0Q208 275 206 309Q205 340 205.0 366.0Q205 392 204 394Q204 394 201 395Q206 425 213 456Q216 456 218.0 456.0Q220 456 220 456Z" fill="#b6885a" stroke="none" transform="scale(1,-1) translate(0,-256)" /></svg>