<?xml version="1.0" encoding="utf-8" ?>
<svg baseProfile="full" height="256" version="1.1" width="256" xmlns="http://www.w3.org/2000/svg" xmlns:ev="http://www.w3.org/2001/xml-events" xmlns:xlink="http://www.w3.org/1999/xlink"><defs /><path d="M885 549Q916 521 923.5 493.0Q931 465 925.5 438.0Q920 411 912.0 383.5Q904 356 904 329Q905 307 913.5 286.5Q922 266 929.5 244.0Q937 222 936.5 195.5Q936 169 918 135Q899 98 858.0 69.5Q817 41 761.0 25.5Q705 10 640 11Q514 14 438.5 49.5Q363 85 342 147Q331 177 334.5 201.5Q338 226 347.0 247.5Q356 269 363.5 290.0Q371 311 370 334Q369 358 360.5 386.5Q352 415 347.0 445.0Q342 475 349.5 503.5Q357 532 387 554Q422 580 450.0 584.5Q478 589 501.5 580.5Q525 572 546.0 559.0Q567 546 588.5 535.5Q610 525 635 526Q657 527 681.0 537.0Q705 547 729.5 559.0Q754 571 779.5 578.0Q805 585 831.0 579.5Q857 574 885 549ZM716 389Q714 363 727.0 342.0Q740 321 762 320Q783 318 803.0 332.5Q823 347 824 386Q825 417 812.5 433.5Q800 450 778 452Q751 455 734.5 434.5Q718 414 716 389ZM639 322Q610 323 597.5 320.5Q585 318 586 303Q588 289 606.5 276.5Q625 264 640 264Q659 264 675.0 278.0Q691 292 692 302Q693 316 681.0 319.0Q669 322 639 322ZM491 449Q462 447 450.0 424.0Q438 401 441 373Q443 346 461.5 328.0Q480 310 503 313Q526 315 541.5 336.0Q557 357 554 391Q550 424 532.0 437.5Q514 451 491 449ZM830 178Q831 192 817.0 204.5Q803 217 760.5 225.5Q718 234 633 235Q580 235 536.5 228.0Q493 221 467.5 207.5Q442 194 443 176Q444 147 492.5 120.5Q541 94 638 93Q699 92 741.5 105.5Q784 119 806.5 138.5Q829 158 830 178Z" fill="#ffcd88" stroke="none" transform="scale(1,-1) translate(0,-256)" /><path d="M122 313Q122 351 138.5 369.0Q155 387 174.5 392.0Q194 397 201 395Q197 364 195 332Q191 271 198 217Q186 220 167.5 229.5Q149 239 135.5 259.0Q122 279 122 313Z" fill="#ffcd88" stroke="none" transform="scale(1,-1) translate(0,-256)" /><path d="M198 217Q191 271 195 332Q197 362 201 395Q204 394 204 394Q205 392 205.0 366.0Q205 340 206 309Q208 275 211.0 246.0Q214 217 212 216Q209 215 198 217Z" fill="#ffcd88" stroke="none" transform="scale(1,-1) translate(0,-256)" /><path d="M1081 217Q1092 279 1089 350Q1088 368 1085 390Q1099 388 1114.5 379.5Q1130 371 1141.0 354.0Q1152 337 1151 307Q1150 279 1138.0 260.5Q1126 242 1110.0 231.5Q1094 221 1081 217Z" fill="#ffcd88" stroke="none" transform="scale(1,-1) translate(0,-256)" /><path d="M1063 390Q1067 393 1085 390Q1088 370 1089 350Q1092 279 1081 217Q1068 213 1064 216Q1060 218 1062.0 241.0Q1064 264 1065 298Q1066 330 1063.5 359.5Q1061 389 1063 390Z" fill="#ffcd88" stroke="none" transform="scale(1,-1) translate(0,-256)" /></svg>