<?xml version="1.0" encoding="utf-8" ?>
<svg baseProfile="full" height="256" version="1.1" width="256" xmlns="http://www.w3.org/2000/svg" xmlns:ev="http://www.w3.org/2001/xml-events" xmlns:xlink="http://www.w3.org/1999/xlink"><defs /><path d="M1075 231Q1081 219 1081 204Q1079 162 1064 123Q1039 65 1022.5 46.5Q1006 28 997 35Q991 40 1000.0 51.5Q1009 63 1024.0 83.0Q1039 103 1050 133Q1054 141 1059.5 161.0Q1065 181 1070.0 201.5Q1075 222 1075 231Z" fill="#ed6c30" stroke="none" transform="scale(1,-1) translate(0,-256)" /><path d="M1136 278Q1151 276 1158.0 263.0Q1165 250 1167.5 235.0Q1170 220 1169 214Q1167 176 1157 139Q1145 98 1130.0 67.0Q1115 36 1102.0 20.0Q1089 4 1082 10Q1075 13 1086.5 31.0Q1098 49 1114.5 78.5Q1131 108 1139 144Q1153 191 1153.5 219.5Q1154 248 1148.0 261.5Q1142 275 1136 278Z" fill="#ed6c30" stroke="none" transform="scale(1,-1) translate(0,-256)" /><path d="M195 231Q189 219 189 204Q191 162 206 123Q231 65 247.5 46.5Q264 28 273 35Q279 40 270.0 51.5Q261 63 246.0 83.0Q231 103 220 133Q216 141 210.5 161.0Q205 181 200.0 201.5Q195 222 195 231Z" fill="#ed6c30" stroke="none" transform="scale(1,-1) translate(0,-256)" /><path d="M134 278Q119 276 112.0 263.0Q105 250 102.5 235.0Q100 220 101 214Q103 177 113 139Q125 99 140.0 67.5Q155 36 168.0 20.5Q181 5 189 10Q195 13 183.5 31.0Q172 49 155.5 78.5Q139 108 131 144Q117 191 116.5 219.5Q116 248 122.0 261.5Q128 275 134 278Z" fill="#ed6c30" stroke="none" transform="scale(1,-1) translate(0,-256)" /></svg>