<?xml version="1.0" encoding="utf-8" ?>
<svg baseProfile="full" height="256" version="1.1" width="256" xmlns="http://www.w3.org/2000/svg" xmlns:ev="http://www.w3.org/2001/xml-events" xmlns:xlink="http://www.w3.org/1999/xlink"><defs /><path d="M575 327Q584 319 582 308Q582 289 563 285Q552 285 541.5 284.0Q531 283 522 282Q504 279 488 275Q472 271 456 266Q438 260 423 252Q414 249 405.0 244.5Q396 240 387 235Q374 226 359 224Q345 223 332 227Q318 232 311 244Q303 258 305 274Q307 291 320 302Q333 315 350 320Q361 323 371.5 325.5Q382 328 391 329Q400 331 409.0 332.5Q418 334 426 335L459 338Q465 338 470.5 338.5Q476 339 482 339L380 384Q379 384 378.0 384.5Q377 385 377 386Q375 386 373 389Q362 400 361.5 415.5Q361 431 372 442Q382 451 396.0 452.0Q410 453 421 445Q438 433 467.5 410.0Q497 387 526.5 364.5Q556 342 573 329H574L575 327Z" fill="#422b0d" stroke="none" transform="scale(1,-1) translate(0,-256)" /><path d="M970 274Q972 258 964 244Q957 232 943 227Q930 223 916 224Q900 226 888 235Q879 240 870.0 244.5Q861 249 852 253Q837 260 819 266Q803 271 788 275Q770 279 753 282Q743 283 733.0 284.0Q723 285 711 285Q693 289 693 308Q691 319 699 328L701 329L702 330Q715 339 735.0 354.5Q755 370 777.5 387.5Q800 405 820.0 420.5Q840 436 853 445Q864 453 878.0 452.0Q892 451 902 442Q903 441 905 438Q914 426 912.0 410.5Q910 395 897 386Q896 385 895.5 384.5Q895 384 894 384L792 339Q806 339 816 338L848 335Q857 334 865.5 332.5Q874 331 884 329Q894 327 904.0 325.0Q914 323 924 320Q942 315 955 302Q968 291 970 274Z" fill="#422b0d" stroke="none" transform="scale(1,-1) translate(0,-256)" /><path d="M638.0 170.5Q587.0 170.5 548.5 150.5Q510.0 130.5 486.0 105.0Q462.0 79.5 453.0 62.5Q443.0 42.5 452.0 33.5Q462.0 26.5 472.0 33.5Q476.0 34.5 480.0 37.5Q551.0 87.5 638.0 88.5Q724.0 87.5 795.0 36.5Q799.0 33.5 803.0 32.5Q813.0 26.5 823.0 32.5Q833.0 40.5 822.0 61.5Q813.0 78.5 789.0 104.5Q765.0 130.5 726.5 150.5Q688.0 170.5 638.0 170.5Z" fill="#422b0d" stroke="none" transform="scale(1,-1) translate(0,-256)" /><path d="M294.5 548.5Q378.5 563.5 435.5 626.5V627.5Q440.5 633.5 447.5 634.5Q454.5 635.5 459.5 631.5Q465.5 627.5 467.0 620.5Q468.5 613.5 464.5 607.5Q450.5 583.5 429.5 565.5Q372.5 513.5 295.5 514.5Q284.5 514.5 280.5 522.5Q276.5 530.5 280.5 538.5Q284.5 546.5 294.5 548.5Z" fill="#422b0d" stroke="none" transform="scale(1,-1) translate(0,-256)" /><path d="M830.125 627.5Q886.125 562.5 971.125 548.5Q981.125 546.5 985.125 538.5Q989.125 530.5 985.625 522.5Q982.125 514.5 970.125 514.5Q893.125 513.5 836.125 565.5Q815.125 583.5 801.125 607.5Q797.125 613.5 798.625 620.5Q800.125 627.5 806.125 631.5Q811.125 635.5 818.125 634.5Q825.125 633.5 830.125 627.5Z" fill="#422b0d" stroke="none" transform="scale(1,-1) translate(0,-256)" /></svg>