<?xml version="1.0" encoding="utf-8" ?>
<svg baseProfile="full" height="256" version="1.1" width="256" xmlns="http://www.w3.org/2000/svg" xmlns:ev="http://www.w3.org/2001/xml-events" xmlns:xlink="http://www.w3.org/1999/xlink"><defs /><path d="M564 -14 606 30 863 -29 822 -80Q822 -80 798.5 -79.0Q775 -78 743.5 -76.5Q712 -75 688 -74Q664 -73 641.5 -69.0Q619 -65 604.5 -61.5Q590 -58 590 -58Q590 -58 578.5 -66.0Q567 -74 549.0 -85.0Q531 -96 512.0 -107.5Q493 -119 478 -125Q448 -138 434.5 -135.0Q421 -132 408 -125Q404 -123 418.0 -110.5Q432 -98 456.0 -82.0Q480 -66 504.5 -50.5Q529 -35 546.5 -24.5Q564 -14 564 -14Z" fill="#f6ba84" stroke="none" transform="scale(1,-1) translate(0,-256)" /></svg>