<?xml version="1.0" encoding="utf-8" ?>
<svg baseProfile="full" height="256" version="1.1" width="256" xmlns="http://www.w3.org/2000/svg" xmlns:ev="http://www.w3.org/2001/xml-events" xmlns:xlink="http://www.w3.org/1999/xlink"><defs /><path d="M136 180Q136 180 138.0 172.0Q140 164 146.0 155.0Q152 146 164 144Q181 141 185.0 146.0Q189 151 201 156Q215 163 218.0 153.5Q221 144 216 139Q211 134 193.5 123.5Q176 113 153 120Q138 125 129.0 137.5Q120 150 115.5 160.5Q111 171 111 171Q111 171 108.0 168.0Q105 165 102 164Q99 163 94.5 162.0Q90 161 87 169Q85 171 86.0 175.0Q87 179 90 181Q92 182 95.0 186.0Q98 190 98 190Q98 190 88.5 199.0Q79 208 81 229Q83 249 95.5 250.5Q108 252 127 247Q167 236 165 218Q164 211 157.0 202.0Q150 193 143.0 186.5Q136 180 136 180Z" fill="#4b4c4d" stroke="none" transform="scale(1,-1) translate(0,-256)" /></svg>