<?xml version="1.0" encoding="utf-8" ?>
<svg baseProfile="full" height="256" version="1.1" width="256" xmlns="http://www.w3.org/2000/svg" xmlns:ev="http://www.w3.org/2001/xml-events" xmlns:xlink="http://www.w3.org/1999/xlink"><defs /><path d="M603 552Q614 562 630.0 572.5Q646 583 660 589Q674 595 679.0 588.0Q684 581 675 571Q659 554 627 531Q616 522 608.0 525.5Q600 529 598.5 537.5Q597 546 603 552Z" fill="#6f4b3b" stroke="none" transform="scale(1,-1) translate(0,-256)" /><path d="M804 520Q815 529 832.5 540.0Q850 551 866.0 560.5Q882 570 888 575Q899 582 903.5 575.5Q908 569 902 562Q898 557 883.0 541.0Q868 525 851.5 508.5Q835 492 825 485Q814 476 803.5 481.5Q793 487 791.5 498.0Q790 509 804 520Z" fill="#6f4b3b" stroke="none" transform="scale(1,-1) translate(0,-256)" /><path d="M979 350Q992 358 1007.0 361.5Q1022 365 1032 369Q1046 373 1049.0 363.5Q1052 354 1045 349Q1038 344 1022.0 335.5Q1006 327 994 322Q983 317 975.5 321.5Q968 326 967.5 334.5Q967 343 979 350Z" fill="#6f4b3b" stroke="none" transform="scale(1,-1) translate(0,-256)" /></svg>