<?xml version="1.0" encoding="utf-8" ?>
<svg baseProfile="full" height="256" version="1.1" width="256" xmlns="http://www.w3.org/2000/svg" xmlns:ev="http://www.w3.org/2001/xml-events" xmlns:xlink="http://www.w3.org/1999/xlink"><defs /><path d="M530 322Q531 337 530.0 355.5Q529 374 528.0 387.5Q527 401 527 401Q527 401 543.5 397.0Q560 393 588.0 391.0Q616 389 649 394Q713 403 741.5 418.0Q770 433 770 433Q770 433 767.5 458.0Q765 483 758.0 524.0Q751 565 739.5 614.5Q728 664 709 712Q691 761 666.5 799.0Q642 837 618.5 863.5Q595 890 579.5 903.5Q564 917 564 917Q575 920 598.5 915.5Q622 911 646 894Q673 875 701.5 831.5Q730 788 754.5 735.5Q779 683 793 635Q804 600 815.5 558.5Q827 517 834.0 459.0Q841 401 839 317Q838 274 821.5 242.0Q805 210 784.0 187.5Q763 165 747.0 153.5Q731 142 731 142L584 118Q584 118 578.5 136.5Q573 155 565.0 183.0Q557 211 548.5 240.5Q540 270 535.0 293.0Q530 316 530 322Z" fill="#ffe265" stroke="none" transform="scale(1,-1) translate(0,-256)" /></svg>