<?xml version="1.0" encoding="utf-8" ?>
<svg baseProfile="full" height="256" version="1.1" width="256" xmlns="http://www.w3.org/2000/svg" xmlns:ev="http://www.w3.org/2001/xml-events" xmlns:xlink="http://www.w3.org/1999/xlink"><defs /><path d="M837 165Q837 165 830.0 135.5Q823 106 803.0 59.0Q783 12 744 -41Q700 -101 643.0 -135.5Q586 -170 526.0 -185.5Q466 -201 414 -202Q362 -204 331.0 -195.5Q300 -187 286.5 -178.5Q273 -170 273 -170L277 -140L536 78Q536 78 539.0 97.0Q542 116 545.0 145.5Q548 175 548.5 205.0Q549 235 544.5 258.0Q540 281 528 287Q501 299 467.0 283.5Q433 268 397 224Q384 209 365.5 177.0Q347 145 329.0 110.0Q311 75 299 49Q286 22 265.0 2.0Q244 -18 225 -26Q208 -32 195.5 -26.0Q183 -20 176.0 -12.5Q169 -5 169 -5L252 46L302 235Q302 235 317.5 253.5Q333 272 359.5 299.0Q386 326 420 353Q424 356 440.5 354.5Q457 353 477.0 350.0Q497 347 512.0 344.5Q527 342 527 342Q527 342 540.0 337.0Q553 332 571.5 321.0Q590 310 608 294Q637 267 647.0 249.0Q657 231 657 231Q657 231 664.0 245.0Q671 259 684.5 277.0Q698 295 716 309Q745 332 759.5 338.5Q774 345 778.5 343.0Q783 341 782.5 336.5Q782 332 782 332L779 288Z" fill="#ffa726" stroke="none" transform="scale(1,-1) translate(0,-256)" /></svg>