<?xml version="1.0" encoding="utf-8" ?>
<svg baseProfile="full" height="256" version="1.1" width="256" xmlns="http://www.w3.org/2000/svg" xmlns:ev="http://www.w3.org/2001/xml-events" xmlns:xlink="http://www.w3.org/1999/xlink"><defs /><path d="M766 649Q772 628 777.5 589.5Q783 551 786.5 506.5Q790 462 793.0 420.0Q796 378 797.5 348.5Q799 319 799 313Q800 306 793.0 287.0Q786 268 776.0 243.5Q766 219 755.5 196.0Q745 173 738.0 157.5Q731 142 731 142L641 191Q641 191 629.5 211.5Q618 232 601.0 262.0Q584 292 567.0 323.0Q550 354 538.5 375.5Q527 397 527 399Q522 450 515.0 498.5Q508 547 497 611Q486 675 474.5 735.5Q463 796 476 848Q482 869 494.0 882.0Q506 895 517.0 900.5Q528 906 528 906Q544 917 577.0 918.0Q610 919 646 893Q674 874 695.5 834.5Q717 795 734.5 745.5Q752 696 766 649Z" fill="#ffe4b4" stroke="none" transform="scale(1,-1) translate(0,-256)" /><path d="M979 308Q955 343 927.0 352.5Q899 362 852 362Q818 361 794.5 353.5Q771 346 759.0 338.5Q747 331 747 331Q747 331 764.0 326.5Q781 322 802 295Q818 274 832.0 243.0Q846 212 858.5 178.5Q871 145 881.5 114.5Q892 84 900 65Q917 26 932.0 -2.5Q947 -31 969 -55Q997 -86 1029.5 -92.0Q1062 -98 1075 -84Q1088 -70 1080.5 -53.5Q1073 -37 1060 -14Q1052 1 1046.0 32.5Q1040 64 1035.5 98.5Q1031 133 1028 155Q1024 192 1016.0 229.5Q1008 267 979 308Z" fill="#ffe4b4" stroke="none" transform="scale(1,-1) translate(0,-256)" /></svg>