<?xml version="1.0" encoding="utf-8" ?>
<svg baseProfile="full" height="256" version="1.1" width="256" xmlns="http://www.w3.org/2000/svg" xmlns:ev="http://www.w3.org/2001/xml-events" xmlns:xlink="http://www.w3.org/1999/xlink"><defs /><path d="M451 65Q427 65 410.0 47.5Q393 30 393 6V0Q393 -24 410.0 -41.0Q427 -58 451 -58H824Q848 -58 865.0 -41.0Q882 -24 882 0V6Q882 30 865.0 47.5Q848 65 824 65Z" fill="#000000" stroke="none" transform="scale(1,-1) translate(0,-256)" /><path d="M540.6136169433594 64.27259826660156V-58.31376647949219H562.7293090820312V64.27259826660156Z" fill="#000000" stroke="none" transform="scale(1,-1) translate(0,-256)" /><path d="M626.9574127197266 64.27259826660156V-58.31376647949219H649.0731048583984V64.27259826660156Z" fill="#000000" stroke="none" transform="scale(1,-1) translate(0,-256)" /><path d="M712.1761169433594 64.27259826660156V-58.31376647949219H734.2918090820312V64.27259826660156Z" fill="#000000" stroke="none" transform="scale(1,-1) translate(0,-256)" /><path d="M802.6447143554688 64.27259826660156V-58.31376647949219H824.7604064941406V64.27259826660156Z" fill="#000000" stroke="none" transform="scale(1,-1) translate(0,-256)" /><path d="M450.14491271972656 64.46009826660156V-58.12626647949219H472.26060485839844V64.46009826660156Z" fill="#000000" stroke="none" transform="scale(1,-1) translate(0,-256)" /><path d="M545.5772399902344 323.3660430908203Q545.5772399902344 368.9829864501953 513.3307800292969 400.4429473876953Q481.0843200683594 431.9029083251953 437.0403747558594 431.9029083251953Q392.9964294433594 431.9029083251953 361.5364685058594 400.4429473876953Q330.0765075683594 368.9829864501953 330.0765075683594 323.3660430908203Q330.0765075683594 279.3220977783203 361.5364685058594 247.8621368408203Q392.9964294433594 216.4021759033203 437.0403747558594 216.4021759033203Q481.0843200683594 216.4021759033203 513.3307800292969 247.8621368408203Q545.5772399902344 279.3220977783203 545.5772399902344 323.3660430908203Z" fill="#000000" stroke="none" transform="scale(1,-1) translate(0,-256)" /><path d="M554 324Q554 372 520 407Q486 441 437 441Q389 441 354 407Q320 372 320 324Q320 275 354 241Q389 206 437 206Q486 206 520 241Q554 275 554 324ZM536 324Q536 283 507 254Q478 225 437 225Q396 225 368 254Q339 283 339 324Q339 364 368 393Q396 422 437 422Q478 422 507 393Q536 364 536 324Z" fill="#000000" stroke="none" transform="scale(1,-1) translate(0,-256)" /><path d="M834 432Q879 432 910.5 400.5Q942 369 942 324Q942 279 910.5 247.5Q879 216 834 216Q790 216 758.5 247.5Q727 279 727 324Q727 369 758.5 400.5Q790 432 834 432Z" fill="#000000" stroke="none" transform="scale(1,-1) translate(0,-256)" /><path d="M834 441Q786 441 752 407Q717 372 717 324Q717 275 752 241Q786 207 834 207Q883 207 917 241Q952 275 952 324Q951 372 917 407Q883 441 834 441ZM834 422Q875 422 904 394Q933 365 933 324Q933 283 904 254Q875 226 834 226Q794 226 765 254Q736 283 736 324Q736 365 765 394Q794 422 834 422Z" fill="#000000" stroke="none" transform="scale(1,-1) translate(0,-256)" /></svg>