<?xml version="1.0" encoding="utf-8" ?>
<svg baseProfile="full" height="256" version="1.1" width="256" xmlns="http://www.w3.org/2000/svg" xmlns:ev="http://www.w3.org/2001/xml-events" xmlns:xlink="http://www.w3.org/1999/xlink"><defs /><path d="M924 746Q923 718 925.5 681.0Q928 644 937.0 605.5Q946 567 964.5 534.0Q983 501 1014.0 481.5Q1045 462 1092 465Q1092 465 1088.5 444.0Q1085 423 1073.0 392.5Q1061 362 1037.5 331.5Q1014 301 975.5 280.0Q937 259 879 259Q820 259 779.0 280.0Q738 301 711.5 332.0Q685 363 670.0 394.0Q655 425 649.0 446.0Q643 467 643 467Q720 478 763.5 516.5Q807 555 829.5 613.5Q852 672 865 745Q848 753 837.0 769.5Q826 786 826 807Q826 835 846.0 855.0Q866 875 894 875Q922 875 942.0 855.0Q962 835 962 807Q962 787 951.5 770.5Q941 754 924 746Z" fill="#f19534" stroke="none" transform="scale(1,-1) translate(0,-256)" /><path d="M362.81199645996094 746.0Q363.81199645996094 718.0 361.31199645996094 681.0Q358.81199645996094 644.0 349.81199645996094 605.5Q340.81199645996094 567.0 322.31199645996094 534.0Q303.81199645996094 501.0 272.81199645996094 481.5Q241.81199645996094 462.0 194.81199645996094 465.0Q194.81199645996094 465.0 198.31199645996094 444.0Q201.81199645996094 423.0 213.81199645996094 392.5Q225.81199645996094 362.0 249.31199645996094 331.5Q272.81199645996094 301.0 311.31199645996094 280.0Q349.81199645996094 259.0 407.81199645996094 259.0Q466.81199645996094 259.0 507.81199645996094 280.0Q548.8119964599609 301.0 575.3119964599609 332.0Q601.8119964599609 363.0 616.8119964599609 394.0Q631.8119964599609 425.0 637.8119964599609 446.0Q643.8119964599609 467.0 643.8119964599609 467.0Q566.8119964599609 478.0 523.3119964599609 516.5Q479.81199645996094 555.0 457.31199645996094 613.5Q434.81199645996094 672.0 421.81199645996094 745.0Q438.81199645996094 753.0 449.81199645996094 769.5Q460.81199645996094 786.0 460.81199645996094 807.0Q460.81199645996094 835.0 440.81199645996094 855.0Q420.81199645996094 875.0 392.81199645996094 875.0Q364.81199645996094 875.0 344.81199645996094 855.0Q324.81199645996094 835.0 324.81199645996094 807.0Q324.81199645996094 787.0 335.31199645996094 770.5Q345.81199645996094 754.0 362.81199645996094 746.0Z" fill="#f19534" stroke="none" transform="scale(1,-1) translate(0,-256)" /><path d="M1070 -6Q1086 3 1077 20Q1068 36 1052 27Q1015 6 944 -16Q802 -59 638 -59Q474 -59 332 -16Q261 6 224 27Q216 31 210 30Q203 28 199 20Q190 3 206 -6Q247 -29 321 -52Q468 -96 638 -96Q808 -96 955 -52Q1029 -29 1070 -6Z" fill="#f19534" stroke="none" transform="scale(1,-1) translate(0,-256)" /></svg>