<?xml version="1.0" encoding="utf-8" ?>
<svg baseProfile="full" height="256" version="1.1" width="256" xmlns="http://www.w3.org/2000/svg" xmlns:ev="http://www.w3.org/2001/xml-events" xmlns:xlink="http://www.w3.org/1999/xlink"><defs /><path d="M975 133Q980 160 967.5 182.5Q955 205 932 209Q910 213 898.0 195.0Q886 177 881 149Q876 122 881.0 101.0Q886 80 909 76Q931 72 950.5 88.5Q970 105 975 133Z" fill="#f44336" stroke="none" transform="scale(1,-1) translate(0,-256)" /><path d="M322.68800354003906 133.0Q317.68800354003906 160.0 330.18800354003906 182.5Q342.68800354003906 205.0 365.68800354003906 209.0Q387.68800354003906 213.0 399.68800354003906 195.0Q411.68800354003906 177.0 416.68800354003906 149.0Q421.68800354003906 122.0 416.68800354003906 101.0Q411.68800354003906 80.0 388.68800354003906 76.0Q366.68800354003906 72.0 347.18800354003906 88.5Q327.68800354003906 105.0 322.68800354003906 133.0Z" fill="#f44336" stroke="none" transform="scale(1,-1) translate(0,-256)" /></svg>