<?xml version="1.0" encoding="utf-8" ?>
<svg baseProfile="full" height="256" version="1.1" width="256" xmlns="http://www.w3.org/2000/svg" xmlns:ev="http://www.w3.org/2001/xml-events" xmlns:xlink="http://www.w3.org/1999/xlink"><defs /><path d="M620 886Q620 886 629.5 897.0Q639 908 651.5 918.5Q664 929 673 927Q682 925 687.0 906.0Q692 887 694.0 865.0Q696 843 698 832Q701 814 709.0 800.5Q717 787 742 779Q766 770 810.0 752.5Q854 735 906.0 703.0Q958 671 1008.0 620.0Q1058 569 1094 494Q1133 415 1136.0 337.0Q1139 259 1117.5 188.5Q1096 118 1060.0 61.0Q1024 4 985 -33Q950 -65 910.5 -86.5Q871 -108 836.0 -120.0Q801 -132 778.5 -137.0Q756 -142 756 -142Q756 -142 763.0 -148.0Q770 -154 778.5 -161.0Q787 -168 790 -172Q795 -177 811.0 -185.5Q827 -194 830 -197Q832 -200 828.5 -205.0Q825 -210 818 -212Q812 -214 797.0 -205.5Q782 -197 773 -193Q763 -189 749.0 -175.5Q735 -162 729 -161Q722 -160 711.0 -166.5Q700 -173 700 -173Q700 -173 703.5 -181.5Q707 -190 710 -194Q713 -198 723.5 -203.5Q734 -209 737 -212Q741 -215 743.5 -223.0Q746 -231 742 -237Q738 -242 728.0 -238.0Q718 -234 707 -228Q695 -222 681.5 -213.5Q668 -205 668 -205Q668 -205 668.0 -214.5Q668 -224 662 -227Q656 -230 641.5 -228.0Q627 -226 624 -223Q621 -221 622.0 -212.5Q623 -204 623 -197Q623 -190 622.5 -175.5Q622 -161 622 -161Q622 -161 618.0 -172.5Q614 -184 606.0 -196.5Q598 -209 589 -212Q574 -216 564.5 -209.0Q555 -202 561 -194Q568 -187 574.0 -172.5Q580 -158 580 -158Q580 -158 573.5 -162.5Q567 -167 559.5 -172.0Q552 -177 549 -178Q545 -180 530.0 -182.0Q515 -184 503 -185Q496 -187 484.0 -191.0Q472 -195 462.0 -196.5Q452 -198 450 -193Q448 -187 458.0 -181.5Q468 -176 480.0 -171.5Q492 -167 498 -166Q507 -165 521.0 -164.0Q535 -163 540 -162Q546 -160 555.5 -152.0Q565 -144 565 -144Q565 -144 537.5 -143.5Q510 -143 461.0 -130.0Q412 -117 346 -79Q285 -44 237.5 9.0Q190 62 161.0 129.0Q132 196 127.0 274.5Q122 353 148 439Q168 507 204.5 559.0Q241 611 283.5 648.5Q326 686 365.0 710.0Q404 734 432.0 746.0Q460 758 466 761Q482 766 500.5 777.5Q519 789 533 812Q543 826 545.0 845.0Q547 864 546.5 881.5Q546 899 549 910Q551 919 562.0 916.5Q573 914 586.5 906.5Q600 899 610.0 892.5Q620 886 620 886Z" fill="#000000" stroke="none" transform="scale(1,-1) translate(0,-256)" /><path d="M656 643 628 798 614 740Q612 732 608.5 713.5Q605 695 600.0 673.5Q595 652 590 635Q586 622 577.0 596.5Q568 571 556.5 540.0Q545 509 536.0 480.0Q527 451 524 433Q514 373 515.0 315.5Q516 258 529 180Q536 137 549.5 92.5Q563 48 578.0 10.5Q593 -27 603.5 -50.0Q614 -73 614 -73L599 -125Q599 -125 591.5 -105.0Q584 -85 574.0 -58.5Q564 -32 555 -12Q547 9 532.0 51.5Q517 94 504.0 158.5Q491 223 488 311Q486 383 500.5 446.5Q515 510 533.5 557.5Q552 605 560 628Q573 662 579.5 693.0Q586 724 591 745Q595 759 598.0 778.5Q601 798 602.5 812.5Q604 827 604 827L599 825Q599 825 594.5 814.0Q590 803 583.0 787.5Q576 772 568 759Q549 727 531.0 701.5Q513 676 489 641Q473 618 459.0 596.5Q445 575 431.0 545.0Q417 515 401 467Q371 374 370.5 301.5Q370 229 380 184Q392 132 409.0 87.0Q426 42 454 2Q465 -14 483.0 -33.0Q501 -52 518.5 -68.5Q536 -85 548.0 -95.5Q560 -106 560 -106Q560 -106 545.5 -97.5Q531 -89 509.5 -74.5Q488 -60 466.5 -42.0Q445 -24 430 -5Q406 26 388.5 66.5Q371 107 358 155Q349 187 344.0 237.5Q339 288 345.5 350.5Q352 413 378 482Q404 550 426.0 588.5Q448 627 466.0 650.0Q484 673 498 693Q502 699 514.5 716.5Q527 734 540.0 753.5Q553 773 558 786Q565 800 564.0 802.5Q563 805 559.5 802.0Q556 799 556 799Q556 799 545.5 784.5Q535 770 518.0 750.0Q501 730 481 714Q468 703 439.5 682.0Q411 661 359 613Q309 567 273.5 504.5Q238 442 227 357Q217 277 231.0 211.0Q245 145 270.0 98.0Q295 51 315 27Q352 -16 388.5 -36.5Q425 -57 456 -70Q474 -78 500.0 -87.5Q526 -97 545.5 -104.5Q565 -112 565 -112Q565 -112 545.5 -108.5Q526 -105 495.0 -96.5Q464 -88 427.0 -74.0Q390 -60 355 -38Q308 -9 276.0 36.5Q244 82 226.0 136.0Q208 190 203 242Q197 318 207.5 393.0Q218 468 266 540Q297 587 335.0 623.5Q373 660 407.0 685.0Q441 710 460 724Q486 742 509.0 769.0Q532 796 546.5 817.0Q561 838 561 838L571 834L676 843Q676 843 680.5 841.5Q685 840 688 829Q691 818 698.5 805.5Q706 793 729 779Q748 768 780.0 747.5Q812 727 846.0 703.0Q880 679 904 656Q925 637 951.0 609.0Q977 581 1001.0 541.0Q1025 501 1042.0 446.5Q1059 392 1062 320Q1066 247 1052.5 191.5Q1039 136 1020.0 98.5Q1001 61 985.5 42.0Q970 23 970 23L861 -66Q861 -66 872.5 -53.5Q884 -41 901.0 -21.0Q918 -1 936.5 21.5Q955 44 969 64Q996 103 1016.5 165.0Q1037 227 1032 318Q1027 400 1006.0 459.5Q985 519 952.0 563.0Q919 607 878 644Q868 653 848.5 668.5Q829 684 805.5 701.5Q782 719 761.0 734.5Q740 750 726.0 760.0Q712 770 712 770Q712 770 725.5 752.0Q739 734 758.0 706.5Q777 679 795.5 651.0Q814 623 824 602Q840 568 859.0 522.5Q878 477 891.5 414.0Q905 351 906 265Q908 179 893.0 120.5Q878 62 858.5 24.5Q839 -13 825 -34Q811 -55 787.0 -69.5Q763 -84 744.0 -91.5Q725 -99 725 -99L752 -75Q752 -75 767.5 -58.5Q783 -42 802.0 -19.0Q821 4 832 24Q847 55 860.0 112.5Q873 170 877 249Q880 302 871.0 360.5Q862 419 844.0 475.0Q826 531 803 578Q771 642 742.0 683.5Q713 725 700 744Q691 758 680.0 778.5Q669 799 661.0 815.0Q653 831 653 831Q653 831 654.5 818.5Q656 806 658.0 788.5Q660 771 661 757Q665 727 678.0 665.0Q691 603 710 515Q729 427 735.0 339.0Q741 251 734 177Q730 135 722.5 93.5Q715 52 707.5 18.5Q700 -15 694.5 -35.0Q689 -55 689 -55L648 -107Q648 -107 658.0 -69.0Q668 -31 680 24Q690 73 699.5 147.5Q709 222 707 329Q707 372 699.5 421.5Q692 471 682.5 516.5Q673 562 665.0 596.0Q657 630 656 643Z" fill="#000000" stroke="none" transform="scale(1,-1) translate(0,-256)" /></svg>