<?xml version="1.0" encoding="utf-8" ?>
<svg baseProfile="full" height="256" version="1.1" width="256" xmlns="http://www.w3.org/2000/svg" xmlns:ev="http://www.w3.org/2001/xml-events" xmlns:xlink="http://www.w3.org/1999/xlink"><defs /><path d="M1053 458Q1064 458 1075.0 461.0Q1086 464 1086 464Q1081 434 1070.5 420.0Q1060 406 1051.0 401.5Q1042 397 1042 397Q1042 397 1039.0 383.0Q1036 369 1034 360Q1022 317 1006.0 294.5Q990 272 977.0 262.5Q964 253 962 249Q960 248 971.0 244.0Q982 240 994.5 228.5Q1007 217 1012 195Q997 203 983 203Q967 203 959.0 197.5Q951 192 951 192Q951 175 960.0 164.0Q969 153 978.0 148.0Q987 143 987 143Q976 137 964.0 135.0Q952 133 943 133Q936 133 931.0 133.5Q926 134 926 134Q917 134 908 124Q889 102 869.0 88.5Q849 75 821.0 67.5Q793 60 748.0 57.0Q703 54 634 54Q564 54 519.5 57.0Q475 60 446.5 67.5Q418 75 398.5 88.5Q379 102 359 124Q356 128 351.5 131.0Q347 134 341 134Q341 134 340.5 134.0Q340 134 338 134Q330 134 314.0 137.5Q298 141 284 157Q284 157 298.0 163.0Q312 169 319 184Q327 201 319.0 212.5Q311 224 297.5 234.0Q284 244 276 256Q269 267 266.0 274.5Q263 282 263 282Q252 278 239.0 267.0Q226 256 226 256Q222 271 225.5 287.5Q229 304 233 317Q236 322 239.0 328.5Q242 335 241 341Q240 346 234.5 350.5Q229 355 226 359Q211 382 208 406Q205 449 233 478Q238 483 243.0 488.0Q248 493 251 498Q254 502 254.5 509.5Q255 517 258 519Q260 521 264 521Q266 521 267.5 521.0Q269 521 270 521Q275 521 280.0 521.0Q285 521 291 521Q300 521 310.0 521.0Q320 521 330 521Q364 521 397.0 520.5Q430 520 464 520Q482 520 510.0 520.0Q538 520 566.5 520.0Q595 520 614.0 520.0Q633 520 633 520H802Q835 520 868.5 527.0Q902 534 935.0 541.0Q968 548 1002 548Q1005 548 1006 549Q1014 535 1020.0 514.5Q1026 494 1029 473Q1031 464 1037.5 461.0Q1044 458 1053 458Z" fill="#000000" stroke="none" transform="scale(1,-1) translate(0,-256)" /><path d="M1125 -184V-214L178 -213H164H150V-185Q150 -123 192.0 -78.0Q234 -33 304.0 -5.0Q374 23 461.0 36.5Q548 50 638 50Q728 50 815.0 35.5Q902 21 972.0 -8.5Q1042 -38 1083.5 -82.0Q1125 -126 1125 -184Z" fill="#000000" stroke="none" transform="scale(1,-1) translate(0,-256)" /><path d="M1088 501Q1088 501 1074.5 506.0Q1061 511 1041 499Q1028 492 1022.5 480.0Q1017 468 1009.5 456.5Q1002 445 984 437Q974 432 973 420Q973 413 972.0 406.5Q971 400 969 393Q965 379 959.5 365.5Q954 352 948 339Q946 334 941.5 326.5Q937 319 938 313Q937 314 937.0 314.5Q937 315 937 316Q936 314 937 313Q934 339 931.0 372.5Q928 406 924.5 440.0Q921 474 915 499Q906 539 890.5 561.0Q875 583 857.5 592.5Q840 602 825.5 604.0Q811 606 804 606Q802 605 801.5 605.0Q801 605 801 605Q800 605 800.0 605.0Q800 605 800 605Q800 605 794.0 617.5Q788 630 772 641Q762 648 749.0 652.5Q736 657 718 657Q701 657 683 653Q636 642 602.5 617.5Q569 593 527 569Q486 545 450.5 532.0Q415 519 393.0 513.5Q371 508 371 508Q372 500 369.0 477.5Q366 455 360.5 426.0Q355 397 349.5 370.0Q344 343 340.5 325.5Q337 308 337 308Q337 308 336.5 308.0Q336 308 336 309Q336 308 336.0 307.5Q336 307 336 307Q336 307 328.0 323.5Q320 340 313.5 373.5Q307 407 309 457Q309 457 294.5 451.5Q280 446 258.5 446.0Q237 446 215.0 462.5Q193 479 178 523Q178 523 190.0 520.5Q202 518 217.0 518.0Q232 518 243.0 525.5Q254 533 252 553Q252 553 250.0 564.5Q248 576 250.0 592.0Q252 608 264 620Q272 629 286 634Q282 634 270.5 637.0Q259 640 246.0 649.0Q233 658 225 679Q225 679 225.5 679.0Q226 679 227 679Q226 679 226 680Q226 680 239.5 678.5Q253 677 265 680Q275 683 279 688Q290 702 291.5 714.0Q293 726 304 739Q316 754 330.0 758.5Q344 763 356 763Q366 763 372.5 762.0Q379 761 379 761Q379 761 370.0 770.0Q361 779 354.5 797.0Q348 815 352.0 841.5Q356 868 383 902Q383 902 387.5 889.0Q392 876 401.5 859.5Q411 843 424.0 830.0Q437 817 454 817Q458 817 461 818Q453 839 456.0 854.5Q459 870 466.0 880.0Q473 890 477 893Q478 894 478.0 894.5Q478 895 478 895Q478 895 478.0 894.5Q478 894 478 894Q479 894 479.0 894.5Q479 895 479 895Q479 895 482.5 884.5Q486 874 495.5 863.5Q505 853 523 853Q531 853 542 856Q569 867 616.5 882.5Q664 898 720 898Q740 898 761.0 894.5Q782 891 803 884Q834 873 857.0 845.0Q880 817 878 783Q896 786 913.5 781.5Q931 777 947 767Q988 742 1001 703L1033 734Q1033 734 1033.0 733.5Q1033 733 1034 733Q1046 703 1042.0 680.0Q1038 657 1029.0 643.5Q1020 630 1018 629Q1019 628 1031.5 618.5Q1044 609 1059.5 591.5Q1075 574 1084.5 550.5Q1094 527 1088 501Z" fill="#000000" stroke="none" transform="scale(1,-1) translate(0,-256)" /></svg>