<?xml version="1.0" encoding="utf-8" ?>
<svg baseProfile="full" height="256" version="1.1" width="256" xmlns="http://www.w3.org/2000/svg" xmlns:ev="http://www.w3.org/2001/xml-events" xmlns:xlink="http://www.w3.org/1999/xlink"><defs /><path d="M553 418Q553 449 531.5 471.5Q510 494 479 494Q448 494 426.5 471.5Q405 449 405 418Q405 386 426.5 363.5Q448 341 479 341Q510 341 531.5 363.5Q553 386 553 418Z" fill="#ffffff" stroke="none" transform="scale(1,-1) translate(0,-256)" /><path d="M869.875 418.0Q869.875 449.0 848.375 471.5Q826.875 494.0 795.875 494.0Q764.875 494.0 743.375 471.5Q721.875 449.0 721.875 418.0Q721.875 386.0 743.375 363.5Q764.875 341.0 795.875 341.0Q826.875 341.0 848.375 363.5Q869.875 386.0 869.875 418.0Z" fill="#ffffff" stroke="none" transform="scale(1,-1) translate(0,-256)" /></svg>