<?xml version="1.0" encoding="utf-8" ?>
<svg baseProfile="full" height="256" version="1.1" width="256" xmlns="http://www.w3.org/2000/svg" xmlns:ev="http://www.w3.org/2001/xml-events" xmlns:xlink="http://www.w3.org/1999/xlink"><defs /><path d="M723 105 724 12Q724 -20 701.0 -42.5Q678 -65 646 -65H630Q598 -65 575.0 -42.5Q552 -20 552 12V105Z" fill="#709921" stroke="none" transform="scale(1,-1) translate(0,-256)" /><path d="M893 478Q935 478 964.5 446.0Q994 414 995 371Q995 326 965.5 295.0Q936 264 894 264H382Q340 264 310.5 295.0Q281 326 281 371Q281 415 310.5 446.5Q340 478 382 478Z" fill="#709921" stroke="none" transform="scale(1,-1) translate(0,-256)" /><path d="M774 203Q793 185 814.5 186.5Q836 188 853 208Q862 217 863 230Q865 244 854 252Q850 254 844.5 254.5Q839 255 834 254Q821 253 809.0 247.5Q797 242 785 237Q778 234 773.0 229.5Q768 225 767 218Q767 210 774 203Z" fill="#709921" stroke="none" transform="scale(1,-1) translate(0,-256)" /><path d="M801 163Q796 168 788 170Q776 171 772.0 160.5Q768 150 769 140Q769 135 770 133Q775 126 782 129Q785 130 787.5 132.0Q790 134 793 136Q797 140 800.0 143.0Q803 146 803 150Q805 158 801 163Z" fill="#709921" stroke="none" transform="scale(1,-1) translate(0,-256)" /><path d="M436 221Q442 222 448 228Q456 238 448.0 246.5Q440 255 431 259Q428 261 425 261Q417 261 415 253Q415 250 415.5 246.5Q416 243 416 239Q418 235 419.0 231.0Q420 227 424 224Q429 219 436 221Z" fill="#709921" stroke="none" transform="scale(1,-1) translate(0,-256)" /><path d="M569 566Q551 557 539.5 546.5Q528 536 547 519Q558 509 569 510Q574 511 577.5 513.5Q581 516 585 519Q591 524 596.0 529.5Q601 535 603 543Q605 551 602.0 559.0Q599 567 592 569Q586 571 580.5 569.5Q575 568 569 566Z" fill="#709921" stroke="none" transform="scale(1,-1) translate(0,-256)" /><path d="M477 478Q448 478 424.0 455.0Q400 432 400 397Q400 363 421.0 335.5Q442 308 478 308Q515 308 535.0 334.0Q555 360 555 394Q555 429 531.0 453.5Q507 478 477 478ZM477 504Q517 504 545.0 472.5Q573 441 573 397Q573 353 545.0 321.5Q517 290 477 290Q437 290 409.5 321.5Q382 353 382 397Q382 441 410.0 472.5Q438 504 477 504Z" fill="#709921" stroke="none" transform="scale(1,-1) translate(0,-256)" /><path d="M479 484Q453 484 434.0 464.5Q415 445 415 418Q415 390 433.5 370.5Q452 351 479 351Q506 351 524.5 370.5Q543 390 543 418Q543 445 524.0 464.5Q505 484 479 484ZM479 505Q514 505 538.5 479.0Q563 453 563 418Q563 382 538.5 356.0Q514 330 479 330Q444 330 419.5 356.0Q395 382 395 418Q395 453 419.5 479.0Q444 505 479 505Z" fill="#709921" stroke="none" transform="scale(1,-1) translate(0,-256)" /><path d="M244 -151Q244 -151 239.5 -135.5Q235 -120 222 -107Q210 -93 196.5 -88.5Q183 -84 183 -84Q183 -84 199.5 -82.5Q216 -81 230 -97Q247 -117 245.0 -134.0Q243 -151 244 -151Z" fill="#709921" stroke="none" transform="scale(1,-1) translate(0,-256)" /><path d="M183 2Q178 6 168.5 8.0Q159 10 159 10Q159 10 169.0 11.5Q179 13 188 9Q197 5 202.5 -4.0Q208 -13 204 -26Q198 -46 187.0 -47.5Q176 -49 176 -49L175 -83Q173 -82 170.0 -73.0Q167 -64 165.0 -55.5Q163 -47 163 -47Q163 -47 155.0 -45.0Q147 -43 142 -33Q149 -36 156.5 -38.0Q164 -40 172 -39Q180 -39 186.5 -33.5Q193 -28 194 -21Q196 -8 183 2Z" fill="#709921" stroke="none" transform="scale(1,-1) translate(0,-256)" /><path d="M199 102Q193 104 181.0 103.0Q169 102 169 102Q169 102 177.0 106.0Q185 110 198 109Q207 108 216.5 102.0Q226 96 225 83Q225 76 222.0 69.0Q219 62 212 58Q208 55 203.5 53.5Q199 52 199 52Q197 35 202.0 25.0Q207 15 207 15Q207 15 202.0 16.0Q197 17 195 21Q190 28 189.5 38.5Q189 49 188 51Q187 53 180.0 54.0Q173 55 166 62Q174 61 182.0 60.5Q190 60 197 63Q204 65 209.5 71.5Q215 78 214 86Q214 92 209.5 96.0Q205 100 199 102Z" fill="#709921" stroke="none" transform="scale(1,-1) translate(0,-256)" /><path d="M151 -167Q151 -166 151.0 -166.0Q151 -166 151 -166Q152 -160 151 -155Q150 -151 148.0 -148.0Q146 -145 145 -142Q154 -153 170.0 -163.5Q186 -174 200 -178Q189 -179 175.0 -176.0Q161 -173 151 -167Z" fill="#709921" stroke="none" transform="scale(1,-1) translate(0,-256)" /><path d="M230 -192Q243 -194 262.0 -193.5Q281 -193 292 -189Q287 -192 282.0 -194.5Q277 -197 276 -201Q276 -202 276.0 -202.5Q276 -203 275 -203Q263 -204 250.0 -201.0Q237 -198 230 -192Z" fill="#709921" stroke="none" transform="scale(1,-1) translate(0,-256)" /><path d="M225 149Q225 150 227 149Q239 142 253 142Q250 135 248 127Q241 127 235 132Q226 138 225 149Q225 149 225 149Z" fill="#709921" stroke="none" transform="scale(1,-1) translate(0,-256)" /><path d="M308 156Q312 153 316.0 150.0Q320 147 324 146Q330 143 336 143Q334 139 333.0 134.5Q332 130 331 126Q325 128 319 133Q308 143 308 156Z" fill="#709921" stroke="none" transform="scale(1,-1) translate(0,-256)" /><path d="M372 -35Q371 -59 361.0 -77.0Q351 -95 336 -110Q339 -100 338.0 -87.0Q337 -74 336 -63Q339 -65 342 -65Q356 -64 361.5 -54.5Q367 -45 372 -35Z" fill="#709921" stroke="none" transform="scale(1,-1) translate(0,-256)" /><path d="M793.875 478.0Q764.875 478.0 740.875 455.0Q716.875 432.0 716.875 397.0Q716.875 363.0 737.875 335.5Q758.875 308.0 794.875 308.0Q831.875 308.0 851.875 334.0Q871.875 360.0 871.875 394.0Q871.875 429.0 847.875 453.5Q823.875 478.0 793.875 478.0ZM793.875 504.0Q833.875 504.0 861.875 472.5Q889.875 441.0 889.875 397.0Q889.875 353.0 861.875 321.5Q833.875 290.0 793.875 290.0Q753.875 290.0 726.375 321.5Q698.875 353.0 698.875 397.0Q698.875 441.0 726.875 472.5Q754.875 504.0 793.875 504.0Z" fill="#709921" stroke="none" transform="scale(1,-1) translate(0,-256)" /><path d="M795.875 484.0Q769.875 484.0 750.875 464.5Q731.875 445.0 731.875 418.0Q731.875 390.0 750.375 370.5Q768.875 351.0 795.875 351.0Q822.875 351.0 841.375 370.5Q859.875 390.0 859.875 418.0Q859.875 445.0 840.875 464.5Q821.875 484.0 795.875 484.0ZM795.875 505.0Q830.875 505.0 855.375 479.0Q879.875 453.0 879.875 418.0Q879.875 382.0 855.375 356.0Q830.875 330.0 795.875 330.0Q760.875 330.0 736.375 356.0Q711.875 382.0 711.875 418.0Q711.875 453.0 736.375 479.0Q760.875 505.0 795.875 505.0Z" fill="#709921" stroke="none" transform="scale(1,-1) translate(0,-256)" /><path d="M1034.093994140625 -151.0Q1034.093994140625 -151.0 1038.593994140625 -135.5Q1043.093994140625 -120.0 1056.093994140625 -107.0Q1068.093994140625 -93.0 1081.593994140625 -88.5Q1095.093994140625 -84.0 1095.093994140625 -84.0Q1095.093994140625 -84.0 1078.593994140625 -82.5Q1062.093994140625 -81.0 1048.093994140625 -97.0Q1031.093994140625 -117.0 1033.093994140625 -134.0Q1035.093994140625 -151.0 1034.093994140625 -151.0Z" fill="#709921" stroke="none" transform="scale(1,-1) translate(0,-256)" /><path d="M1095.093994140625 2.0Q1100.093994140625 6.0 1109.593994140625 8.0Q1119.093994140625 10.0 1119.093994140625 10.0Q1119.093994140625 10.0 1109.093994140625 11.5Q1099.093994140625 13.0 1090.093994140625 9.0Q1081.093994140625 5.0 1075.593994140625 -4.0Q1070.093994140625 -13.0 1074.093994140625 -26.0Q1080.093994140625 -46.0 1091.093994140625 -47.5Q1102.093994140625 -49.0 1102.093994140625 -49.0L1103.093994140625 -83.0Q1105.093994140625 -82.0 1108.093994140625 -73.0Q1111.093994140625 -64.0 1113.093994140625 -55.5Q1115.093994140625 -47.0 1115.093994140625 -47.0Q1115.093994140625 -47.0 1123.093994140625 -45.0Q1131.093994140625 -43.0 1136.093994140625 -33.0Q1129.093994140625 -36.0 1121.593994140625 -38.0Q1114.093994140625 -40.0 1106.093994140625 -39.0Q1098.093994140625 -39.0 1091.593994140625 -33.5Q1085.093994140625 -28.0 1084.093994140625 -21.0Q1082.093994140625 -8.0 1095.093994140625 2.0Z" fill="#709921" stroke="none" transform="scale(1,-1) translate(0,-256)" /><path d="M1079.093994140625 102.0Q1085.093994140625 104.0 1097.093994140625 103.0Q1109.093994140625 102.0 1109.093994140625 102.0Q1109.093994140625 102.0 1101.093994140625 106.0Q1093.093994140625 110.0 1080.093994140625 109.0Q1071.093994140625 108.0 1061.593994140625 102.0Q1052.093994140625 96.0 1053.093994140625 83.0Q1053.093994140625 76.0 1056.093994140625 69.0Q1059.093994140625 62.0 1066.093994140625 58.0Q1070.093994140625 55.0 1074.593994140625 53.5Q1079.093994140625 52.0 1079.093994140625 52.0Q1081.093994140625 35.0 1076.093994140625 25.0Q1071.093994140625 15.0 1071.093994140625 15.0Q1071.093994140625 15.0 1076.093994140625 16.0Q1081.093994140625 17.0 1083.093994140625 21.0Q1088.093994140625 28.0 1088.593994140625 38.5Q1089.093994140625 49.0 1090.093994140625 51.0Q1091.093994140625 53.0 1098.093994140625 54.0Q1105.093994140625 55.0 1112.093994140625 62.0Q1104.093994140625 61.0 1096.093994140625 60.5Q1088.093994140625 60.0 1081.093994140625 63.0Q1074.093994140625 65.0 1068.593994140625 71.5Q1063.093994140625 78.0 1064.093994140625 86.0Q1064.093994140625 92.0 1068.593994140625 96.0Q1073.093994140625 100.0 1079.093994140625 102.0Z" fill="#709921" stroke="none" transform="scale(1,-1) translate(0,-256)" /><path d="M1127.186996459961 -167.0Q1127.186996459961 -166.0 1127.186996459961 -166.0Q1127.186996459961 -166.0 1127.186996459961 -166.0Q1126.186996459961 -160.0 1127.186996459961 -155.0Q1128.186996459961 -151.0 1130.186996459961 -148.0Q1132.186996459961 -145.0 1133.186996459961 -142.0Q1124.186996459961 -153.0 1108.186996459961 -163.5Q1092.186996459961 -174.0 1078.186996459961 -178.0Q1089.186996459961 -179.0 1103.186996459961 -176.0Q1117.186996459961 -173.0 1127.186996459961 -167.0Z" fill="#709921" stroke="none" transform="scale(1,-1) translate(0,-256)" /><path d="M1048.093994140625 -192.0Q1035.093994140625 -194.0 1016.093994140625 -193.5Q997.093994140625 -193.0 986.093994140625 -189.0Q991.093994140625 -192.0 996.093994140625 -194.5Q1001.093994140625 -197.0 1002.093994140625 -201.0Q1002.093994140625 -202.0 1002.093994140625 -202.5Q1002.093994140625 -203.0 1003.093994140625 -203.0Q1015.093994140625 -204.0 1028.093994140625 -201.0Q1041.093994140625 -198.0 1048.093994140625 -192.0Z" fill="#709921" stroke="none" transform="scale(1,-1) translate(0,-256)" /><path d="M1053 149Q1053 150 1051 149Q1040 142 1025 142Q1028 135 1030 127Q1037 127 1043 132Q1052 138 1053 149Q1053 149 1053 149Z" fill="#709921" stroke="none" transform="scale(1,-1) translate(0,-256)" /><path d="M970 156Q966 153 962.0 150.0Q958 147 954 146Q948 143 942 143Q944 139 945.0 134.5Q946 130 947 126Q954 128 959 133Q970 143 970 156Z" fill="#709921" stroke="none" transform="scale(1,-1) translate(0,-256)" /><path d="M906 -35Q907 -59 917.0 -77.0Q927 -95 942 -110Q940 -100 940.5 -87.0Q941 -74 942 -63Q939 -65 936 -65Q922 -64 916.5 -54.5Q911 -45 906 -35Z" fill="#709921" stroke="none" transform="scale(1,-1) translate(0,-256)" /></svg>