<?xml version="1.0" encoding="utf-8" ?>
<svg baseProfile="full" height="256" version="1.1" width="256" xmlns="http://www.w3.org/2000/svg" xmlns:ev="http://www.w3.org/2001/xml-events" xmlns:xlink="http://www.w3.org/1999/xlink"><defs /><path d="M637.25 846.125Q698.25 846.125 754.75 815.125Q811.25 784.125 855.75 727.125Q900.25 670.125 925.75 592.125Q951.25 514.125 951.25 420.125Q951.25 327.125 925.25 257.125Q899.25 187.125 854.25 140.625Q809.25 94.125 753.25 70.625Q697.25 47.125 637.25 47.125Q578.25 47.125 522.25 70.625Q466.25 94.125 421.25 140.625Q376.25 187.125 349.75 257.125Q323.25 327.125 323.25 420.125Q323.25 514.125 349.25 592.125Q375.25 670.125 419.25 727.125Q463.25 784.125 519.75 815.125Q576.25 846.125 637.25 846.125Z" fill="#82cc2b" stroke="none" transform="scale(1,-1) translate(0,-256)" /><path d="M418 -27Q427 -37 424.5 -52.5Q422 -68 416 -79Q397 -114 366.0 -141.0Q335 -168 302 -185Q297 -188 287.5 -191.5Q278 -195 276 -202Q275 -205 274.0 -208.0Q273 -211 272 -214H140Q142 -206 146.0 -187.5Q150 -169 151 -166Q152 -160 150 -155Q149 -149 145.0 -143.0Q141 -137 138 -131Q128 -112 123 -95Q118 -80 117.0 -64.5Q116 -49 120 -33Q124 -18 137 -2Q140 2 147.5 6.0Q155 10 155 10Q155 10 152.0 23.0Q149 36 148 48Q147 76 155.5 87.0Q164 98 169 102Q171 103 182.5 106.0Q194 109 194 109Q194 109 194.5 122.0Q195 135 199 150Q205 176 220.0 183.5Q235 191 244 192Q254 193 264.0 186.5Q274 180 273 166Q273 155 266.5 148.5Q260 142 253 142Q242 114 246.5 91.0Q251 68 257 55Q262 42 264.5 47.0Q267 52 267 52Q269 122 280.5 151.5Q292 181 304 190Q320 201 333.5 198.5Q347 196 355.5 187.0Q364 178 363 170Q362 159 354.5 151.0Q347 143 336 143Q333 138 331.5 130.5Q330 123 329 119Q328 114 325.5 87.5Q323 61 323 7Q324 -4 325.0 -21.5Q326 -39 330.0 -52.5Q334 -66 342 -65Q359 -63 364.5 -49.5Q370 -36 377 -26Q383 -16 400 -18Q404 -19 409.0 -21.0Q414 -23 418 -27ZM203 16Q203 16 209.5 15.5Q216 15 214 28Q212 42 209.0 50.5Q206 59 206 59L196 55Z" fill="#82cc2b" stroke="none" transform="scale(1,-1) translate(0,-256)" /><path d="M862 -79Q856 -67 853.5 -52.0Q851 -37 860 -27Q864 -22 869.0 -20.5Q874 -19 879 -18Q895 -16 902 -26Q908 -35 913.5 -49.0Q919 -63 936 -65Q944 -66 948.0 -52.5Q952 -39 953.5 -21.5Q955 -4 955 7Q955 61 952.5 87.5Q950 114 949 119Q948 123 946.5 130.5Q945 138 942 143Q931 143 923.5 151.0Q916 159 915 170Q914 178 922.5 187.0Q931 196 944.5 198.5Q958 201 974 190Q986 181 998.0 151.5Q1010 122 1011 52Q1011 52 1013.5 47.0Q1016 42 1021 55Q1027 68 1031.5 91.0Q1036 114 1025 142Q1018 142 1011.5 148.5Q1005 155 1005 166Q1004 180 1014.0 186.5Q1024 193 1034 192Q1043 191 1058.0 183.5Q1073 176 1079 150Q1083 135 1083.5 122.0Q1084 109 1084 109Q1084 109 1096.0 106.0Q1108 103 1109 102Q1114 98 1123.0 87.5Q1132 77 1130 48Q1129 36 1126.0 23.5Q1123 11 1123 11Q1123 11 1130.5 6.5Q1138 2 1141 -2Q1154 -18 1158 -33Q1162 -49 1161.0 -64.5Q1160 -80 1155 -95Q1152 -104 1148.5 -113.5Q1145 -123 1140 -131Q1137 -137 1133.0 -142.5Q1129 -148 1128 -155Q1126 -160 1127 -166Q1128 -169 1132.0 -187.5Q1136 -206 1138 -214H1006Q1005 -211 1004.0 -207.5Q1003 -204 1002 -201Q1001 -195 991.0 -191.5Q981 -188 976 -185Q943 -167 912.0 -140.5Q881 -114 862 -79ZM1064 28Q1062 15 1068.5 15.5Q1075 16 1075 16L1082 55L1072 59Q1072 59 1069.5 50.5Q1067 42 1064 28Z" fill="#82cc2b" stroke="none" transform="scale(1,-1) translate(0,-256)" /></svg>