<?xml version="1.0" encoding="utf-8" ?>
<svg baseProfile="full" height="256" version="1.1" width="256" xmlns="http://www.w3.org/2000/svg" xmlns:ev="http://www.w3.org/2001/xml-events" xmlns:xlink="http://www.w3.org/1999/xlink"><defs /><path d="M425.98870849609375 267.9671630859375Q425.98870849609375 277.13055419921875 422.5524368286133 285.1880187988281Q419.1161651611328 293.2454833984375 412.9940719604492 299.3675765991211Q406.8719787597656 305.4896697998047 398.81451416015625 308.96543884277344Q390.7570495605469 312.4412078857422 381.5936584472656 312.4412078857422Q372.3512725830078 312.4412078857422 364.29380798339844 308.96543884277344Q356.23634338378906 305.4896697998047 350.11425018310547 299.3675765991211Q343.9921569824219 293.2454833984375 340.5558853149414 285.1880187988281Q337.11961364746094 277.13055419921875 337.11961364746094 267.9671630859375Q337.11961364746094 258.80377197265625 340.5558853149414 250.74630737304688Q343.9921569824219 242.6888427734375 350.11425018310547 236.5667495727539Q356.23634338378906 230.4446563720703 364.29380798339844 227.00838470458984Q372.3512725830078 223.57211303710938 381.5936584472656 223.57211303710938Q390.7570495605469 223.57211303710938 398.81451416015625 227.00838470458984Q406.8719787597656 230.4446563720703 412.9940719604492 236.5667495727539Q419.1161651611328 242.6888427734375 422.5524368286133 250.74630737304688Q425.98870849609375 258.80377197265625 425.98870849609375 267.9671630859375Z" fill="#ffff8d" stroke="none" transform="scale(1,-1) translate(0,-256)" /><path d="M938.1446990966797 267.9671630859375Q938.1446990966797 277.13055419921875 934.7084274291992 285.1880187988281Q931.2721557617188 293.2454833984375 925.1500625610352 299.3675765991211Q919.0279693603516 305.4896697998047 910.9705047607422 308.96543884277344Q902.9130401611328 312.4412078857422 893.7496490478516 312.4412078857422Q884.5072631835938 312.4412078857422 876.4497985839844 308.96543884277344Q868.392333984375 305.4896697998047 862.2702407836914 299.3675765991211Q856.1481475830078 293.2454833984375 852.7118759155273 285.1880187988281Q849.2756042480469 277.13055419921875 849.2756042480469 267.9671630859375Q849.2756042480469 258.80377197265625 852.7118759155273 250.74630737304688Q856.1481475830078 242.6888427734375 862.2702407836914 236.5667495727539Q868.392333984375 230.4446563720703 876.4497985839844 227.00838470458984Q884.5072631835938 223.57211303710938 893.7496490478516 223.57211303710938Q902.9130401611328 223.57211303710938 910.9705047607422 227.00838470458984Q919.0279693603516 230.4446563720703 925.1500625610352 236.5667495727539Q931.2721557617188 242.6888427734375 934.7084274291992 250.74630737304688Q938.1446990966797 258.80377197265625 938.1446990966797 267.9671630859375Z" fill="#ffff8d" stroke="none" transform="scale(1,-1) translate(0,-256)" /></svg>