<?xml version="1.0" encoding="utf-8" ?>
<svg baseProfile="full" height="256" version="1.1" width="256" xmlns="http://www.w3.org/2000/svg" xmlns:ev="http://www.w3.org/2001/xml-events" xmlns:xlink="http://www.w3.org/1999/xlink"><defs /><path d="M1013 -68Q1013 -68 1002.5 -79.0Q992 -90 964 -108Q936 -126 924.5 -133.5Q913 -141 913 -141L807 89L885 84Z" fill="#82aec0" stroke="none" transform="scale(1,-1) translate(0,-256)" /><path d="M262.093994140625 -68.0Q262.093994140625 -68.0 272.593994140625 -79.0Q283.093994140625 -90.0 311.093994140625 -108.0Q339.093994140625 -126.0 350.593994140625 -133.5Q362.093994140625 -141.0 362.093994140625 -141.0L468.093994140625 89.0L390.093994140625 84.0Z" fill="#82aec0" stroke="none" transform="scale(1,-1) translate(0,-256)" /><path d="M953 76Q961 76 967.0 82.0Q973 88 973 97V198H302V97Q302 88 308.0 82.0Q314 76 322 76Z" fill="#82aec0" stroke="none" transform="scale(1,-1) translate(0,-256)" /><path d="M294 562Q294 576 296.5 605.0Q299 634 313.0 667.5Q327 701 358.5 732.0Q390 763 446.5 782.5Q503 802 593 800H689Q773 801 827.5 781.0Q882 761 913.0 730.0Q944 699 959.0 665.0Q974 631 977.5 603.0Q981 575 981 562Q981 540 970.0 527.5Q959 515 948.0 509.5Q937 504 937 504H720L644 503H608H590H510H338Q338 503 327.0 507.5Q316 512 305.0 524.5Q294 537 294 562Z" fill="#82aec0" stroke="none" transform="scale(1,-1) translate(0,-256)" /><path d="M854 -139Q860 -140 863.5 -135.5Q867 -131 865 -125L850 -94Q845 -84 831 -84H445Q433 -84 428 -93L411 -120Q408 -125 411.5 -130.0Q415 -135 421 -135Z" fill="#82aec0" stroke="none" transform="scale(1,-1) translate(0,-256)" /></svg>