<?xml version="1.0" encoding="utf-8" ?>
<svg baseProfile="full" height="256" version="1.1" width="256" xmlns="http://www.w3.org/2000/svg" xmlns:ev="http://www.w3.org/2001/xml-events" xmlns:xlink="http://www.w3.org/1999/xlink"><defs /><path d="M967 176Q982 176 982 190V548Q982 614 954.0 671.5Q926 729 862.0 764.5Q798 800 689 800H593Q499 800 440.5 779.5Q382 759 350.0 723.5Q318 688 305.5 642.5Q293 597 293 548V190Q293 176 308 176Z" fill="#f44336" stroke="none" transform="scale(1,-1) translate(0,-256)" /><path d="M704 205Q717 205 726.5 214.5Q736 224 736 237V585Q736 598 726.5 607.5Q717 617 704 617H571Q558 617 548.5 607.5Q539 598 539 585V237Q539 224 548.5 214.5Q558 205 571 205Z" fill="#f44336" stroke="none" transform="scale(1,-1) translate(0,-256)" /></svg>