<?xml version="1.0" encoding="utf-8" ?>
<svg baseProfile="full" height="256" version="1.1" width="256" xmlns="http://www.w3.org/2000/svg" xmlns:ev="http://www.w3.org/2001/xml-events" xmlns:xlink="http://www.w3.org/1999/xlink"><defs /><path d="M607 84Q636 84 659 88Q717 97 739 128Q749 143 747.0 156.5Q745 170 737 181Q756 182 778.5 190.5Q801 199 810 223Q814 235 813.5 244.0Q813 253 809 261Q831 262 856.0 272.0Q881 282 884 310Q887 333 874.5 344.5Q862 356 852 358Q841 360 839 350Q836 339 847 336Q848 336 855.5 331.5Q863 327 861 312Q860 300 848.0 293.5Q836 287 820.5 285.0Q805 283 793.5 283.0Q782 283 782 283Q773 283 770 274Q768 265 777 261Q779 260 787.0 253.0Q795 246 789 231Q783 214 764.0 208.5Q745 203 728.5 203.5Q712 204 711 204Q703 205 700 197Q696 189 704 184Q704 183 711.5 176.5Q719 170 723.5 160.5Q728 151 721 141Q705 118 656 110Q620 105 579.0 107.5Q538 110 499.0 118.0Q460 126 432.0 135.0Q404 144 395 151Q386 158 379 149Q372 140 381 133Q394 123 430.5 111.5Q467 100 514.0 92.0Q561 84 607 84Z" fill="#68a4af" stroke="none" transform="scale(1,-1) translate(0,-256)" /><path d="M653 -31Q719 -31 767.0 -16.0Q815 -1 842.5 20.5Q870 42 877 61Q881 74 879 86Q893 86 913.0 89.0Q933 92 951.0 102.0Q969 112 979 133Q987 149 986.5 163.0Q986 177 982 187Q1001 187 1023.0 193.5Q1045 200 1058 224Q1071 246 1063 267Q1056 285 1040.0 293.5Q1024 302 1023 302Q1012 306 1008 295Q1005 285 1015 281Q1020 279 1029.0 273.5Q1038 268 1042 259Q1046 248 1038 235Q1028 216 1009.5 212.0Q991 208 975.5 210.0Q960 212 959 212Q950 214 946 205Q942 196 951 191Q951 191 956.5 186.0Q962 181 964.5 170.0Q967 159 959 142Q951 127 935.5 119.5Q920 112 903.5 110.0Q887 108 875.0 108.5Q863 109 863 109Q855 110 852 103Q848 96 853 91Q853 90 856.0 84.5Q859 79 855 68Q851 54 826.0 35.5Q801 17 756.0 3.5Q711 -10 646 -9Q595 -8 546.0 6.0Q497 20 454.5 40.5Q412 61 379.5 81.0Q347 101 328.5 115.0Q310 129 310 130Q301 137 294 128Q287 119 296 112Q298 110 317.5 95.5Q337 81 370.5 60.0Q404 39 447.5 18.5Q491 -2 541.5 -16.0Q592 -30 646 -31Q648 -31 653 -31Z" fill="#68a4af" stroke="none" transform="scale(1,-1) translate(0,-256)" /></svg>