<?xml version="1.0" encoding="utf-8" ?>
<svg baseProfile="full" height="256" version="1.1" width="256" xmlns="http://www.w3.org/2000/svg" xmlns:ev="http://www.w3.org/2001/xml-events" xmlns:xlink="http://www.w3.org/1999/xlink"><defs /><path d="M229 674Q229 674 240.0 680.0Q251 686 258 692Q266 699 269.0 711.5Q272 724 263 734Q257 741 245.0 740.5Q233 740 223 733Q213 726 208.5 712.5Q204 699 204 699Q204 699 196.5 703.5Q189 708 178.5 710.5Q168 713 157 705Q148 698 152.5 688.0Q157 678 167.0 668.5Q177 659 182 654Q204 632 221.5 619.0Q239 606 244 617Q252 633 244.0 648.0Q236 663 229 674Z" fill="#464b4e" stroke="none" transform="scale(1,-1) translate(0,-256)" /></svg>