<?xml version="1.0" encoding="utf-8" ?>
<svg baseProfile="full" height="256" version="1.1" width="256" xmlns="http://www.w3.org/2000/svg" xmlns:ev="http://www.w3.org/2001/xml-events" xmlns:xlink="http://www.w3.org/1999/xlink"><defs /><path d="M1090.6534118652344 190.479248046875Q1139.5007629394531 144.96051025390625 1172.8695220947266 105.85446166992188Q1206.23828125 66.7484130859375 1199.1433410644531 38.56378173828125Q1192.0521240234375 11.4853515625 1168.959976196289 -15.81591796875Q1145.8678283691406 -43.1171875 1112.79150390625 -65.68353271484375Q1079.7151794433594 -88.2498779296875 1042.6695709228516 -101.6766357421875Q1005.6239624023438 -115.1033935546875 970.6239624023438 -114.98590087890625Q963.6239624023438 -114.96240234375 925.6239624023438 -114.8348388671875Q887.6239624023438 -114.707275390625 830.1239624023438 -114.51425170898438Q772.6239624023438 -114.32122802734375 704.6239624023438 -114.09295654296875Q636.6239624023438 -113.86468505859375 569.1239624023438 -113.63809204101562Q501.62396240234375 -113.4114990234375 444.12396240234375 -113.21847534179688Q386.62396240234375 -113.02545166015625 348.62396240234375 -112.89788818359375Q310.62396240234375 -112.77032470703125 303.62396240234375 -112.746826171875Q268.62396240234375 -112.62933349609375 231.66957092285156 -98.95416259765625Q194.71517944335938 -85.27899169921875 161.79150390625 -62.4910888671875Q128.86782836914062 -39.70318603515625 105.95997619628906 -12.24749755859375Q83.0521240234375 15.20819091796875 76.14334106445312 42.3336181640625Q69.23828125 70.56524658203125 102.86952209472656 109.44638061523438Q136.50076293945312 148.3275146484375 185.65341186523438 193.51727294921875Q206.71856689453125 212.8052978515625 218.2660369873047 226.87075805664062Q229.81350708007812 240.93621826171875 235.36004638671875 254.74526977539062Q240.90658569335938 268.5543212890625 243.968017578125 286.79656982421875Q247.02572631835938 303.9326171875 258.5666809082031 316.0622253417969Q270.1076354980469 328.19183349609375 302.1076354980469 328.08441162109375L975.1076354980469 325.8251953125Q1007.1076354980469 325.7177734375 1018.5666809082031 313.5109558105469Q1030.0257263183594 301.30413818359375 1032.968017578125 284.14794921875Q1035.9065856933594 265.88555908203125 1041.3600463867188 252.03958129882812Q1046.8135070800781 238.193603515625 1058.2660369873047 224.05093383789062Q1069.7185668945312 209.90826416015625 1090.6534118652344 190.479248046875Z" fill="#000000" stroke="none" transform="scale(1,-1) translate(0,-256)" /></svg>