<?xml version="1.0" encoding="utf-8" ?>
<svg baseProfile="full" height="256" version="1.1" width="256" xmlns="http://www.w3.org/2000/svg" xmlns:ev="http://www.w3.org/2001/xml-events" xmlns:xlink="http://www.w3.org/1999/xlink"><defs /><path d="M971 350Q1007 350 1036.5 331.0Q1066 312 1083.5 280.5Q1101 249 1101 211Q1101 173 1083.5 141.0Q1066 109 1036.5 90.5Q1007 72 971 72H304Q268 72 238.5 90.5Q209 109 191.0 141.0Q173 173 173 211Q173 249 191.0 280.5Q209 312 238.5 331.0Q268 350 304 350Z" fill="#e59600" stroke="none" transform="scale(1,-1) translate(0,-256)" /><path d="M685 139Q699 133 693 119Q690 112 676.5 99.0Q663 86 638 86Q612 86 598.5 99.0Q585 112 582 119Q576 133 590 139Q592 139 594 140H681Q683 139 685 139Z" fill="#e59600" stroke="none" transform="scale(1,-1) translate(0,-256)" /></svg>