<?xml version="1.0" encoding="utf-8" ?>
<svg baseProfile="full" height="256" version="1.1" width="256" xmlns="http://www.w3.org/2000/svg" xmlns:ev="http://www.w3.org/2001/xml-events" xmlns:xlink="http://www.w3.org/1999/xlink"><defs /><path d="M327 385Q328 333 325.0 285.5Q322 238 308 189Q301 164 310.0 161.5Q319 159 335.0 169.5Q351 180 366.5 194.5Q382 209 387 217Q404 240 414.0 266.5Q424 293 432 321Q450 387 468.0 451.5Q486 516 521 575Q533 595 543.0 616.5Q553 638 552 662Q552 677 546 688Q535 707 515.0 709.5Q495 712 473.5 705.5Q452 699 437 690Q410 674 389.0 649.0Q368 624 355 594Q334 545 330.0 491.5Q326 438 327 385Z" fill="#fff59d" stroke="none" transform="scale(1,-1) translate(0,-256)" /><path d="M349 89Q411 100 473.0 98.0Q535 96 582 89Q630 83 632.5 70.0Q635 57 612 57Q602 58 543.5 56.0Q485 54 387 44Q349 40 310.5 32.0Q272 24 241.5 14.5Q211 5 197 -1Q170 -13 168.0 -4.5Q166 4 182 19Q201 37 244.0 58.0Q287 79 349 89Z" fill="#fff59d" stroke="none" transform="scale(1,-1) translate(0,-256)" /><path d="M604 -117Q592 -109 582.0 -94.0Q572 -79 579 -63Q582 -56 593 -55Q597 -55 601.0 -56.0Q605 -57 609 -59Q629 -66 645 -80Q648 -82 651.0 -84.5Q654 -87 656 -91Q660 -100 655.5 -109.5Q651 -119 642 -123Q633 -127 622.5 -125.0Q612 -123 604 -117Z" fill="#fff59d" stroke="none" transform="scale(1,-1) translate(0,-256)" /></svg>