<?xml version="1.0" encoding="utf-8" ?>
<svg baseProfile="full" height="256" version="1.1" width="256" xmlns="http://www.w3.org/2000/svg" xmlns:ev="http://www.w3.org/2001/xml-events" xmlns:xlink="http://www.w3.org/1999/xlink"><defs /><path d="M762 835Q779 807 779 774Q779 740 762.5 713.0Q746 686 718.5 669.5Q691 653 658 653Q625 653 597.5 669.5Q570 686 553.5 713.0Q537 740 537 774Q537 783 539 793Q539 793 548.5 789.5Q558 786 575.0 786.0Q592 786 613 796Q609 789 608.5 782.5Q608 776 608 774Q608 753 622.5 738.0Q637 723 658 723Q679 723 693.5 738.0Q708 753 708 774Q708 787 701 799Q701 799 712.5 796.0Q724 793 742 802Q761 811 761.5 823.0Q762 835 762 835Z" fill="#9e740b" stroke="none" transform="scale(1,-1) translate(0,-256)" /></svg>