<?xml version="1.0" encoding="utf-8" ?>
<svg baseProfile="full" height="256" version="1.1" width="256" xmlns="http://www.w3.org/2000/svg" xmlns:ev="http://www.w3.org/2001/xml-events" xmlns:xlink="http://www.w3.org/1999/xlink"><defs /><path d="M136 33Q115 13 95.0 -15.0Q75 -43 75 -64Q75 -85 86.0 -95.0Q97 -105 122 -116Q158 -131 202.0 -145.0Q246 -159 305.5 -170.0Q365 -181 446.0 -187.5Q527 -194 638 -194Q748 -194 829.0 -187.5Q910 -181 969.5 -170.0Q1029 -159 1073.0 -145.0Q1117 -131 1153 -116Q1178 -105 1189.0 -95.0Q1200 -85 1200 -64Q1200 -43 1180.0 -15.0Q1160 13 1139 33Q1108 64 1084.0 86.0Q1060 108 1044.0 135.0Q1028 162 1020 207Q1014 241 1011.5 290.5Q1009 340 1004.0 396.5Q999 453 986.0 509.5Q973 566 946 612Q914 669 865.5 705.0Q817 741 760.5 757.5Q704 774 646 774Q643 774 638 774Q635 774 633.0 774.0Q631 774 629 774Q571 774 514.5 757.5Q458 741 409.5 705.0Q361 669 329 612Q302 566 289.0 509.5Q276 453 271.0 396.5Q266 340 263.5 290.5Q261 241 255 207Q247 162 231.0 135.0Q215 108 191.0 86.0Q167 64 136 33Z" fill="#ffca28" stroke="none" transform="scale(1,-1) translate(0,-256)" /></svg>