<?xml version="1.0" encoding="utf-8" ?>
<svg baseProfile="full" height="256" version="1.1" width="256" xmlns="http://www.w3.org/2000/svg" xmlns:ev="http://www.w3.org/2001/xml-events" xmlns:xlink="http://www.w3.org/1999/xlink"><defs /><path d="M375 41 471 -45Q471 -45 461.5 -59.0Q452 -73 434.5 -93.5Q417 -114 393.5 -134.5Q370 -155 341 -169Q298 -189 259.0 -188.0Q220 -187 191.0 -175.5Q162 -164 149 -152Q135 -141 119.5 -119.5Q104 -98 93.5 -66.5Q83 -35 85 6Q87 50 99.0 76.5Q111 103 127.0 116.0Q143 129 158.5 133.0Q174 137 182 138Q194 139 210.0 135.0Q226 131 238.5 119.5Q251 108 255 86Q258 64 253.0 47.0Q248 30 245.5 15.5Q243 1 252 -13Q264 -33 278.0 -34.5Q292 -36 303.5 -29.5Q315 -23 321 -17Q326 -11 339.0 3.0Q352 17 363.5 29.0Q375 41 375 41Z" fill="#ffa828" stroke="none" transform="scale(1,-1) translate(0,-256)" /></svg>