<?xml version="1.0" encoding="utf-8" ?>
<svg baseProfile="full" height="256" version="1.1" width="256" xmlns="http://www.w3.org/2000/svg" xmlns:ev="http://www.w3.org/2001/xml-events" xmlns:xlink="http://www.w3.org/1999/xlink"><defs /><path d="M644 204Q765 202 841.5 219.5Q918 237 965 257Q1005 273 1027.0 292.5Q1049 312 1058.5 326.0Q1068 340 1068 340Q1068 340 1070.0 326.5Q1072 313 1071 291Q1068 251 1059.5 229.5Q1051 208 1051 208Q1051 208 1038.5 195.5Q1026 183 997.5 165.0Q969 147 921.0 128.5Q873 110 803.5 98.0Q734 86 638 86Q549 87 476.0 97.0Q403 107 354 124Q304 141 275.0 160.0Q246 179 233.5 192.5Q221 206 221 206Q221 206 213.5 223.5Q206 241 202 273Q199 302 202.5 317.5Q206 333 206 333Q206 333 219.0 320.5Q232 308 254.0 291.5Q276 275 304 262Q349 241 429.0 223.0Q509 205 644 204Z" fill="#e0e0e0" stroke="none" transform="scale(1,-1) translate(0,-256)" /><path d="M260 147Q260 147 277.5 135.0Q295 123 336.5 106.5Q378 90 450.0 76.5Q522 63 631 61Q719 59 788.5 69.0Q858 79 906 96Q962 116 990.5 136.5Q1019 157 1019 157Q1019 157 1017.5 135.5Q1016 114 1010.0 79.5Q1004 45 991 7Q976 -34 956.5 -70.5Q937 -107 921 -122Q909 -133 874.0 -155.5Q839 -178 777.0 -196.0Q715 -214 622 -212Q552 -210 503.0 -198.0Q454 -186 422.5 -170.5Q391 -155 374.5 -141.0Q358 -127 352 -122Q343 -113 323.5 -81.5Q304 -50 284 11Q264 75 262.0 111.0Q260 147 260 147Z" fill="#e0e0e0" stroke="none" transform="scale(1,-1) translate(0,-256)" /></svg>