<?xml version="1.0" encoding="utf-8" ?>
<svg baseProfile="full" height="256" version="1.1" width="256" xmlns="http://www.w3.org/2000/svg" xmlns:ev="http://www.w3.org/2001/xml-events" xmlns:xlink="http://www.w3.org/1999/xlink"><defs /><path d="M447.093994140625 482.0Q461.093994140625 469.0 452.093994140625 452.0Q447.093994140625 442.0 436.593994140625 438.0Q426.093994140625 434.0 416.093994140625 439.0Q402.093994140625 452.0 411.093994140625 470.0Q416.093994140625 480.0 426.593994140625 483.5Q437.093994140625 487.0 447.093994140625 482.0Z" fill="#896024" stroke="none" transform="scale(1,-1) translate(0,-256)" /><path d="M806.625 482.0Q820.625 469.0 811.625 452.0Q806.625 442.0 796.125 438.0Q785.625 434.0 775.625 439.0Q761.625 452.0 770.625 470.0Q775.625 480.0 786.125 483.5Q796.625 487.0 806.625 482.0Z" fill="#896024" stroke="none" transform="scale(1,-1) translate(0,-256)" /></svg>