<?xml version="1.0" encoding="utf-8" ?>
<svg baseProfile="full" height="256" version="1.1" width="256" xmlns="http://www.w3.org/2000/svg" xmlns:ev="http://www.w3.org/2001/xml-events" xmlns:xlink="http://www.w3.org/1999/xlink"><defs /><path d="M993 657Q1028 635 1039.5 605.0Q1051 575 1047 539Q1042 502 1017.5 482.0Q993 462 961.0 459.5Q929 457 902 472Q862 494 846.0 533.5Q830 573 847 617Q858 647 883.0 661.5Q908 676 937.5 675.0Q967 674 993 657Z" fill="#db0d27" stroke="none" transform="scale(1,-1) translate(0,-256)" /><path d="M280 678Q318 695 347.0 691.0Q376 687 396.5 669.5Q417 652 428 630Q437 612 438.5 584.5Q440 557 425.5 530.5Q411 504 371 488Q332 473 303.5 477.0Q275 481 257.0 496.5Q239 512 230 531Q222 547 219.5 575.5Q217 604 229.5 632.5Q242 661 280 678Z" fill="#db0d27" stroke="none" transform="scale(1,-1) translate(0,-256)" /></svg>