<?xml version="1.0" encoding="utf-8" ?>
<svg baseProfile="full" height="256" version="1.1" width="256" xmlns="http://www.w3.org/2000/svg" xmlns:ev="http://www.w3.org/2001/xml-events" xmlns:xlink="http://www.w3.org/1999/xlink"><defs /><path d="M803 -133Q805 -133 806 -132Q815 -129 812 -120L483 821Q480 830 471 827Q463 823 466 815L794 -126Q796 -133 803 -133Z" fill="#c8c8c8" stroke="none" transform="scale(1,-1) translate(0,-256)" /><path d="M447 -123Q454 -123 456 -117L782 817Q785 826 776 829Q767 832 764 823L438 -110Q435 -119 444 -122Q445 -123 447 -123Z" fill="#c8c8c8" stroke="none" transform="scale(1,-1) translate(0,-256)" /></svg>