<?xml version="1.0" encoding="utf-8" ?>
<svg baseProfile="full" height="256" version="1.1" width="256" xmlns="http://www.w3.org/2000/svg" xmlns:ev="http://www.w3.org/2001/xml-events" xmlns:xlink="http://www.w3.org/1999/xlink"><defs /><path d="M108 648Q109 650 134.0 659.0Q159 668 196 686Q230 703 258.5 725.0Q287 747 331 770Q361 786 387.5 788.5Q414 791 430.0 788.5Q446 786 446 786L544 505Q544 505 508.5 501.5Q473 498 425 476Q385 459 344.5 426.5Q304 394 274 371Q257 358 239.0 350.5Q221 343 208.0 340.0Q195 337 195 337Q195 337 180.5 380.5Q166 424 152 492Q149 509 141.5 535.0Q134 561 126.0 586.5Q118 612 112.5 629.5Q107 647 108 648Z" fill="#fefefe" stroke="none" transform="scale(1,-1) translate(0,-256)" /><path d="M815 783Q815 783 827.5 785.5Q840 788 865.5 783.5Q891 779 931 758Q969 738 990.0 720.5Q1011 703 1026.5 686.5Q1042 670 1063 654Q1083 639 1107.5 630.5Q1132 622 1149.5 617.5Q1167 613 1167 611Q1166 610 1155.0 586.5Q1144 563 1128.5 529.5Q1113 496 1101 465Q1094 445 1083.0 420.5Q1072 396 1062.0 373.5Q1052 351 1045.0 336.0Q1038 321 1038 321Q1038 321 1018.5 324.5Q999 328 970 341Q942 355 907.0 387.0Q872 419 832 452Q805 475 779.0 485.5Q753 496 735.5 499.5Q718 503 718 505Q717 506 724.0 526.0Q731 546 742.0 577.5Q753 609 765.5 644.0Q778 679 789.0 710.5Q800 742 807.5 762.0Q815 782 815 783Z" fill="#fefefe" stroke="none" transform="scale(1,-1) translate(0,-256)" /></svg>