<?xml version="1.0" encoding="utf-8" ?>
<svg baseProfile="full" height="256" version="1.1" width="256" xmlns="http://www.w3.org/2000/svg" xmlns:ev="http://www.w3.org/2001/xml-events" xmlns:xlink="http://www.w3.org/1999/xlink"><defs /><path d="M247 -65Q247 -65 276.5 -42.0Q306 -19 357.5 20.5Q409 60 475.0 110.5Q541 161 614.5 217.0Q688 273 761.5 329.0Q835 385 901.5 435.5Q968 486 1019.5 525.0Q1071 564 1101.5 586.0Q1132 608 1132 607Q1134 604 1148.0 578.5Q1162 553 1177.5 508.0Q1193 463 1200.0 402.0Q1207 341 1194 268Q1187 221 1166.5 164.0Q1146 107 1111.0 48.0Q1076 -11 1023.5 -63.5Q971 -116 900.0 -154.0Q829 -192 736 -206Q643 -220 566.5 -210.0Q490 -200 430.5 -177.0Q371 -154 330.0 -128.0Q289 -102 268.0 -83.5Q247 -65 247 -65Z" fill="#dc5819" stroke="none" transform="scale(1,-1) translate(0,-256)" /></svg>