<?xml version="1.0" encoding="utf-8" ?>
<svg baseProfile="full" height="256" version="1.1" width="256" xmlns="http://www.w3.org/2000/svg" xmlns:ev="http://www.w3.org/2001/xml-events" xmlns:xlink="http://www.w3.org/1999/xlink"><defs /><path d="M975 800Q975 800 966.5 806.5Q958 813 952 817Q944 822 937.0 826.0Q930 830 930 830Q895 823 838.5 800.5Q782 778 709.5 732.5Q637 687 554.0 610.5Q471 534 385 417Q309 315 271.0 230.0Q233 145 220.5 80.5Q208 16 209 -26Q209 -26 214.0 -31.5Q219 -37 226 -45Q233 -53 241.5 -60.0Q250 -67 250 -67Q247 -49 247.5 -9.0Q248 31 261.5 90.5Q275 150 311.0 227.0Q347 304 415 395Q501 510 582.5 585.0Q664 660 734.5 703.5Q805 747 859.0 767.5Q913 788 943.5 794.0Q974 800 975 800Z" fill="#2d3130" stroke="none" transform="scale(1,-1) translate(0,-256)" /><path d="M183 690Q183 690 180.0 685.0Q177 680 172 674Q167 667 163.5 661.0Q160 655 160 655Q187 613 242.5 543.0Q298 473 387 394Q629 179 884 49Q939 21 982.5 3.0Q1026 -15 1058 -26Q1058 -26 1062.0 -22.0Q1066 -18 1071 -12Q1075 -6 1079.0 -0.5Q1083 5 1083 5Q1051 16 1005.5 34.5Q960 53 901 83Q651 210 412 422Q318 506 262.0 579.5Q206 653 183 690Z" fill="#2d3130" stroke="none" transform="scale(1,-1) translate(0,-256)" /><path d="M536 905Q536 905 524.0 903.5Q512 902 504 900Q493 897 486.0 895.0Q479 893 479 893Q465 873 449 847Q432 818 421.5 789.5Q411 761 402 731Q388 684 366.0 630.5Q344 577 292 510Q247 453 204.0 418.0Q161 383 126.0 364.5Q91 346 69 338Q69 338 69.0 332.0Q69 326 69 320Q69 314 70.0 306.5Q71 299 71 299Q94 306 133.5 325.5Q173 345 221.5 383.5Q270 422 322 487Q377 558 400.0 614.5Q423 671 438 720Q447 749 456.5 775.5Q466 802 481 828Q498 856 512.0 875.0Q526 894 536 905Z" fill="#2d3130" stroke="none" transform="scale(1,-1) translate(0,-256)" /><path d="M682 -213Q682 -213 672.5 -213.5Q663 -214 653 -214Q643 -214 636.0 -214.0Q629 -214 629 -214Q602 -187 568.0 -144.5Q534 -102 505 -46Q464 32 454.0 105.5Q444 179 458.0 239.0Q472 299 501 337Q546 397 610.5 426.5Q675 456 749.0 465.0Q823 474 896 474Q896 474 896.0 474.0Q896 474 896 474Q985 474 1051.0 466.0Q1117 458 1154.5 450.0Q1192 442 1195 441Q1195 441 1196.0 435.5Q1197 430 1198 423Q1199 415 1199.5 407.5Q1200 400 1200 400Q1199 400 1159.5 409.0Q1120 418 1051.5 427.0Q983 436 896 436Q896 436 896.0 436.0Q896 436 896 436Q828 436 759.0 428.0Q690 420 630.5 394.0Q571 368 531 315Q496 268 490.0 206.5Q484 145 498.0 83.0Q512 21 538 -29Q574 -97 616.0 -144.0Q658 -191 682 -213Z" fill="#2d3130" stroke="none" transform="scale(1,-1) translate(0,-256)" /></svg>