<?xml version="1.0" encoding="utf-8" ?>
<svg baseProfile="full" height="256" version="1.1" width="256" xmlns="http://www.w3.org/2000/svg" xmlns:ev="http://www.w3.org/2001/xml-events" xmlns:xlink="http://www.w3.org/1999/xlink"><defs /><path d="M233 748Q304 824 389.0 862.5Q474 901 563.5 909.5Q653 918 738.0 901.5Q823 885 896.0 848.5Q969 812 1020 761Q1058 724 1083.0 688.0Q1108 652 1120.5 629.0Q1133 606 1133 606Q1133 606 1135.5 581.0Q1138 556 1137.5 512.0Q1137 468 1127.0 410.5Q1117 353 1092.0 288.0Q1067 223 1021.5 156.0Q976 89 903 26Q818 -48 737.5 -84.5Q657 -121 585.0 -131.5Q513 -142 453.5 -135.0Q394 -128 350.5 -113.5Q307 -99 283.5 -86.5Q260 -74 260 -74Q260 -74 247.0 -65.0Q234 -56 211.0 -29.0Q188 -2 155 49Q103 131 82.5 223.0Q62 315 72.5 408.0Q83 501 123.0 588.0Q163 675 233 748Z" fill="#ef6c32" stroke="none" transform="scale(1,-1) translate(0,-256)" /></svg>