<?xml version="1.0" encoding="utf-8" ?>
<svg baseProfile="full" height="256" version="1.1" width="256" xmlns="http://www.w3.org/2000/svg" xmlns:ev="http://www.w3.org/2001/xml-events" xmlns:xlink="http://www.w3.org/1999/xlink"><defs /><path d="M793 416 746 440 670 478Q670 478 656.5 479.5Q643 481 623.0 481.5Q603 482 583 478Q554 472 543.0 457.5Q532 443 529 412Q528 397 544.5 374.5Q561 352 585.5 327.5Q610 303 634.0 280.0Q658 257 671 240Q685 224 704.0 194.0Q723 164 741.0 132.5Q759 101 771.5 79.0Q784 57 784 57L766 15Q766 15 766.5 9.0Q767 3 774.0 -0.5Q781 -4 801 4Q817 11 823.5 27.0Q830 43 830.5 60.5Q831 78 829.5 88.5Q828 99 829 95Q830 87 838.5 74.0Q847 61 868 61Q892 61 912.0 76.0Q932 91 948.0 113.0Q964 135 974.0 157.0Q984 179 988 193Q997 225 997.0 266.0Q997 307 988 341Q982 363 965.5 386.0Q949 409 926.0 425.0Q903 441 878 444Q853 446 834.0 439.0Q815 432 804.0 424.0Q793 416 793 416Z" fill="#fe5f5f" stroke="none" transform="scale(1,-1) translate(0,-256)" /></svg>