<?xml version="1.0" encoding="utf-8" ?>
<svg baseProfile="full" height="256" version="1.1" width="256" xmlns="http://www.w3.org/2000/svg" xmlns:ev="http://www.w3.org/2001/xml-events" xmlns:xlink="http://www.w3.org/1999/xlink"><defs /><path d="M515 337 510 277 454 218 381 211 349 234Q349 234 338.0 248.5Q327 263 315.0 284.5Q303 306 300 326Q289 404 336 496Q349 522 351.0 555.5Q353 589 348.0 618.0Q343 647 337 660Q330 675 316.5 693.0Q303 711 298 716Q293 722 301.0 724.0Q309 726 309 726L328 716L357 723L388 752Q388 752 391.0 733.0Q394 714 403 680Q411 645 410.0 606.5Q409 568 407 503Q406 459 413.0 430.0Q420 401 433.0 379.5Q446 358 461 337Q476 317 488.5 318.5Q501 320 508.0 328.5Q515 337 515 337Z" fill="#ff6a65" stroke="none" transform="scale(1,-1) translate(0,-256)" /></svg>