<?xml version="1.0" encoding="utf-8" ?>
<svg baseProfile="full" height="256" version="1.1" width="256" xmlns="http://www.w3.org/2000/svg" xmlns:ev="http://www.w3.org/2001/xml-events" xmlns:xlink="http://www.w3.org/1999/xlink"><defs /><path d="M176 600Q176 600 194.5 594.5Q213 589 257 587Q279 587 307.0 600.5Q335 614 364.0 633.0Q393 652 419.0 668.0Q445 684 463 688Q494 694 523.0 696.0Q552 698 570.0 697.5Q588 697 588 697L812 565Q812 565 827.5 562.5Q843 560 869 549Q894 539 921.5 511.5Q949 484 954 448Q959 412 956.5 396.0Q954 380 954 380L770 391Q770 391 744.0 401.0Q718 411 679.0 426.0Q640 441 599.5 457.0Q559 473 528.0 485.5Q497 498 489 502Q475 508 451.5 521.0Q428 534 403.5 539.5Q379 545 360 532Q333 511 309.0 503.5Q285 496 249 498Q205 500 179.5 509.5Q154 519 154 519Q154 519 153.5 533.5Q153 548 158 565Q164 582 170.0 591.0Q176 600 176 600Z" fill="#d43330" stroke="none" transform="scale(1,-1) translate(0,-256)" /><path d="M677 695 621 646 614 566 624 497Q624 497 605.0 493.0Q586 489 555 479Q525 470 516.5 462.0Q508 454 508 454Q508 454 492.0 454.5Q476 455 451.5 454.0Q427 453 402.5 449.0Q378 445 362 436Q340 424 321.5 392.5Q303 361 293.5 319.0Q284 277 289 233Q297 166 322.5 118.5Q348 71 380 28Q402 0 443.0 -31.5Q484 -63 532.0 -91.0Q580 -119 624 -138Q668 -157 707.5 -175.0Q747 -193 777.5 -201.5Q808 -210 827 -202Q846 -194 854.5 -181.0Q863 -168 867.5 -154.0Q872 -140 879 -126Q890 -107 913.0 -55.5Q936 -4 963 76Q991 155 993.5 202.5Q996 250 996 250L728 454V510L743 574L802 639L963 679Q963 679 970.0 688.0Q977 697 981.5 712.5Q986 728 977 745Q964 772 942.0 777.0Q920 782 909 779Q898 776 882.5 763.0Q867 750 849 741Q836 735 813.0 727.5Q790 720 765.5 712.0Q741 704 723 698Q701 690 689.0 692.5Q677 695 677 695Z" fill="#d43330" stroke="none" transform="scale(1,-1) translate(0,-256)" /></svg>