<?xml version="1.0" encoding="utf-8" ?>
<svg baseProfile="full" height="256" version="1.1" width="256" xmlns="http://www.w3.org/2000/svg" xmlns:ev="http://www.w3.org/2001/xml-events" xmlns:xlink="http://www.w3.org/1999/xlink"><defs /><path d="M1007 93Q992 67 971 64L85 -145L293 222Q293 222 298.5 232.0Q304 242 315.5 253.5Q327 265 345 268L542 301Q560 303 569.0 317.5Q578 332 583.5 352.5Q589 373 595 393Q604 424 612.5 431.5Q621 439 639 443L1167 533Q1187 536 1194 521Q1200 511 1194 498Z" fill="#ffe36c" stroke="none" transform="scale(1,-1) translate(0,-256)" /></svg>