<?xml version="1.0" encoding="utf-8" ?>
<svg baseProfile="full" height="256" version="1.1" width="256" xmlns="http://www.w3.org/2000/svg" xmlns:ev="http://www.w3.org/2001/xml-events" xmlns:xlink="http://www.w3.org/1999/xlink"><defs /><path d="M419 -78H418Q417 -73 425.0 -71.5Q433 -70 438.5 -70.0Q444 -70 438.0 -66.5Q432 -63 403 -53Q365 -40 334.0 -14.5Q303 11 281.5 38.5Q260 66 249 86Q244 96 225 99Q215 100 203.0 101.5Q191 103 196 91Q210 57 242.0 17.0Q274 -23 317.0 -56.0Q360 -89 410 -103Q419 -106 419.5 -98.0Q420 -90 419 -78Z" fill="#ffff8d" stroke="none" transform="scale(1,-1) translate(0,-256)" /></svg>