<?xml version="1.0" encoding="utf-8" ?>
<svg baseProfile="full" height="256" version="1.1" width="256" xmlns="http://www.w3.org/2000/svg" xmlns:ev="http://www.w3.org/2001/xml-events" xmlns:xlink="http://www.w3.org/1999/xlink"><defs /><path d="M632.8002166748047 454.05943298339844Q632.8002166748047 460.43858337402344 630.4080352783203 466.04783630371094Q628.0158538818359 471.65708923339844 623.7539215087891 475.9190216064453Q619.4919891357422 480.1809539794922 613.8827362060547 482.6006317138672Q608.2734832763672 485.0203094482422 601.8943328857422 485.0203094482422Q595.4601898193359 485.0203094482422 589.8509368896484 482.6006317138672Q584.2416839599609 480.1809539794922 579.9797515869141 475.9190216064453Q575.7178192138672 471.65708923339844 573.3256378173828 466.04783630371094Q570.9334564208984 460.43858337402344 570.9334564208984 454.05943298339844Q570.9334564208984 447.68028259277344 573.3256378173828 442.07102966308594Q575.7178192138672 436.46177673339844 579.9797515869141 432.19984436035156Q584.2416839599609 427.9379119873047 589.8509368896484 425.5457305908203Q595.4601898193359 423.15354919433594 601.8943328857422 423.15354919433594Q608.2734832763672 423.15354919433594 613.8827362060547 425.5457305908203Q619.4919891357422 427.9379119873047 623.7539215087891 432.19984436035156Q628.0158538818359 436.46177673339844 630.4080352783203 442.07102966308594Q632.8002166748047 447.68028259277344 632.8002166748047 454.05943298339844Z" fill="#49a4ba" stroke="none" transform="scale(1,-1) translate(0,-256)" /><path d="M361 256V255Q347 255 331.5 265.0Q316 275 284 283Q273 287 263.0 289.5Q253 292 254 303Q255 311 274.5 322.0Q294 333 319.5 343.0Q345 353 366 358Q386 364 398.5 366.0Q411 368 423.5 363.5Q436 359 458 344Q465 339 466.5 330.5Q468 322 450 314Q419 300 406.5 287.0Q394 274 386.5 265.0Q379 256 361 256Z" fill="#49a4ba" stroke="none" transform="scale(1,-1) translate(0,-256)" /></svg>