<?xml version="1.0" encoding="utf-8" ?>
<svg baseProfile="full" height="256" version="1.1" width="256" xmlns="http://www.w3.org/2000/svg" xmlns:ev="http://www.w3.org/2001/xml-events" xmlns:xlink="http://www.w3.org/1999/xlink"><defs /><path d="M214 501Q228 501 228 516L233 557Q233 572 218 572H175Q160 572 160 557L156 516Q156 501 170 501Z" fill="#ffffff" stroke="none" transform="scale(1,-1) translate(0,-256)" /><path d="M323 501Q337 501 337 516V557Q337 572 323 572H281Q266 572 266 557L265 516Q265 501 279 501Z" fill="#ffffff" stroke="none" transform="scale(1,-1) translate(0,-256)" /><path d="M427 501Q433 501 438.0 505.5Q443 510 443 516V557Q443 572 427 572H384Q368 572 368 557V516Q368 501 384 501Z" fill="#ffffff" stroke="none" transform="scale(1,-1) translate(0,-256)" /><path d="M533 501Q548 501 548 516V557Q548 572 533 572H490Q474 572 474 557V516Q474 501 490 501Z" fill="#ffffff" stroke="none" transform="scale(1,-1) translate(0,-256)" /><path d="M637.281005859375 501.0Q643.281005859375 501.0 648.281005859375 505.5Q653.281005859375 510.0 653.281005859375 516.0V557.0Q653.281005859375 572.0 637.281005859375 572.0H594.281005859375Q578.281005859375 572.0 578.281005859375 557.0V516.0Q578.281005859375 501.0 594.281005859375 501.0Z" fill="#ffffff" stroke="none" transform="scale(1,-1) translate(0,-256)" /><path d="M743 501Q759 501 759 516V557Q759 572 743 572H700Q684 572 684 557V516Q684 501 700 501Z" fill="#ffffff" stroke="none" transform="scale(1,-1) translate(0,-256)" /><path d="M848 501Q863 501 864 516V557Q864 572 848 572H805Q789 572 789 557V516Q789 501 805 501Z" fill="#ffffff" stroke="none" transform="scale(1,-1) translate(0,-256)" /><path d="M954 501Q961 501 965.5 505.5Q970 510 970 516L968 557Q968 572 953 572H909Q894 572 894 557V516Q894 501 909 501Z" fill="#ffffff" stroke="none" transform="scale(1,-1) translate(0,-256)" /><path d="M1102 501Q1108 501 1112.5 505.5Q1117 510 1117 516L1115 557Q1115 572 1100 572H1020Q1004 572 1004 557V516Q1004 501 1020 501Z" fill="#ffffff" stroke="none" transform="scale(1,-1) translate(0,-256)" /><path d="M1058 390Q1052 390 1047.5 394.5Q1043 399 1043 404V446Q1043 461 1058 461H1106Q1122 461 1122 446L1125 404Q1125 390 1109 390Z" fill="#ffffff" stroke="none" transform="scale(1,-1) translate(0,-256)" /><path d="M952 390Q936 390 936 404V446Q936 461 952 461H995Q1010 461 1010 446V404Q1010 390 995 390Z" fill="#ffffff" stroke="none" transform="scale(1,-1) translate(0,-256)" /><path d="M846 390Q832 390 830 404V446Q830 461 846 461H889Q905 461 905 446V404Q905 390 889 390Z" fill="#ffffff" stroke="none" transform="scale(1,-1) translate(0,-256)" /><path d="M741.5 389.625Q735.5 389.625 730.5 394.125Q725.5 398.625 725.5 404.625V445.625Q725.5 460.625 741.5 460.625H784.5Q800.5 460.625 800.5 445.625V404.625Q800.5 389.625 784.5 389.625Z" fill="#ffffff" stroke="none" transform="scale(1,-1) translate(0,-256)" /><path d="M635.718994140625 390.0Q621.718994140625 390.0 619.718994140625 404.0V446.0Q619.718994140625 461.0 635.718994140625 461.0H678.718994140625Q694.718994140625 461.0 694.718994140625 446.0V404.0Q694.718994140625 390.0 678.718994140625 390.0Z" fill="#ffffff" stroke="none" transform="scale(1,-1) translate(0,-256)" /><path d="M531.218994140625 389.625Q525.218994140625 389.625 520.218994140625 394.125Q515.218994140625 398.625 515.218994140625 404.625V445.625Q515.218994140625 460.625 531.218994140625 460.625H574.218994140625Q590.218994140625 460.625 590.218994140625 445.625V404.625Q590.218994140625 389.625 574.218994140625 389.625Z" fill="#ffffff" stroke="none" transform="scale(1,-1) translate(0,-256)" /><path d="M426.5 389.625Q420.5 389.625 415.5 394.125Q410.5 398.625 410.5 404.625V445.625Q410.5 460.625 426.5 460.625H469.5Q485.5 460.625 485.5 445.625V404.625Q485.5 389.625 469.5 389.625Z" fill="#ffffff" stroke="none" transform="scale(1,-1) translate(0,-256)" /><path d="M321 390Q306 390 306 404V446Q306 461 321 461H364Q379 461 379 446V404Q379 390 364 390Z" fill="#ffffff" stroke="none" transform="scale(1,-1) translate(0,-256)" /><path d="M163 390Q148 390 148 404L152 446Q152 461 166 461H254Q268 461 268 446V404Q268 390 254 390Z" fill="#ffffff" stroke="none" transform="scale(1,-1) translate(0,-256)" /><path d="M799 278Q793 278 788.5 282.5Q784 287 784 292V333Q784 347 799 347H842Q857 347 857 333V292Q857 278 842 278Z" fill="#ffffff" stroke="none" transform="scale(1,-1) translate(0,-256)" /><path d="M688.843994140625 278.0Q682.843994140625 278.0 678.343994140625 282.5Q673.843994140625 287.0 673.843994140625 292.0V333.0Q673.843994140625 347.0 688.843994140625 347.0H731.843994140625Q746.843994140625 347.0 746.843994140625 333.0V292.0Q746.843994140625 278.0 731.843994140625 278.0Z" fill="#ffffff" stroke="none" transform="scale(1,-1) translate(0,-256)" /><path d="M578.593994140625 278.0Q572.593994140625 278.0 568.093994140625 282.5Q563.593994140625 287.0 563.593994140625 292.0V333.0Q563.593994140625 347.0 578.593994140625 347.0H621.593994140625Q636.593994140625 347.0 636.593994140625 333.0V292.0Q636.593994140625 278.0 621.593994140625 278.0Z" fill="#ffffff" stroke="none" transform="scale(1,-1) translate(0,-256)" /><path d="M468 278Q454 278 454 292V333Q454 347 468 347H512Q526 347 526 333V292Q526 278 512 278Z" fill="#ffffff" stroke="none" transform="scale(1,-1) translate(0,-256)" /><path d="M358 278Q352 278 347.5 282.5Q343 287 344 292V333Q344 347 358 347H401Q416 347 416 333V292Q416 278 401 278Z" fill="#ffffff" stroke="none" transform="scale(1,-1) translate(0,-256)" /><path d="M159 278Q144 278 144 293L146 334Q146 349 161 349H289Q304 349 304 334L301 293Q301 278 287 278Z" fill="#ffffff" stroke="none" transform="scale(1,-1) translate(0,-256)" /><path d="M915 277Q901 277 899 292L897 336Q897 351 912 351H1112Q1128 351 1128 336L1131 292Q1131 277 1115 277Z" fill="#ffffff" stroke="none" transform="scale(1,-1) translate(0,-256)" /><path d="M1063 167Q1057 167 1052.0 171.5Q1047 176 1047 182V223Q1047 238 1063 238H1118Q1133 238 1133 223L1136 182Q1136 167 1120 167Z" fill="#ffffff" stroke="none" transform="scale(1,-1) translate(0,-256)" /><path d="M942 167Q927 167 927 182V223Q927 238 942 238H991Q1007 238 1007 223V182Q1007 167 991 167Z" fill="#ffffff" stroke="none" transform="scale(1,-1) translate(0,-256)" /><path d="M402 167Q396 167 391.0 171.0Q386 175 387 182V223Q387 238 402 238H871Q886 238 886 223V182Q886 167 871 167Z" fill="#ffffff" stroke="none" transform="scale(1,-1) translate(0,-256)" /><path d="M284 167Q270 167 270 182V223Q270 238 285 238H333Q347 238 347 223V182Q347 167 332 167Z" fill="#ffffff" stroke="none" transform="scale(1,-1) translate(0,-256)" /><path d="M152 167Q137 167 137 182L141 223Q141 238 156 238H212Q227 238 227 223V182Q227 167 212 167Z" fill="#ffffff" stroke="none" transform="scale(1,-1) translate(0,-256)" /></svg>