<?xml version="1.0" encoding="utf-8" ?>
<svg baseProfile="full" height="256" version="1.1" width="256" xmlns="http://www.w3.org/2000/svg" xmlns:ev="http://www.w3.org/2001/xml-events" xmlns:xlink="http://www.w3.org/1999/xlink"><defs /><path d="M1190.0341796875 407.71791076660156Q1190.0341796875 440.40834045410156 1177.7752685546875 469.01246643066406Q1165.516357421875 497.61659240722656 1143.7772216796875 519.3557281494141Q1122.0380859375 541.0948638916016 1093.4339599609375 553.3537750244141Q1064.829833984375 565.6126861572266 1031.8125 565.6126861572266Q999.1220703125 565.6126861572266 970.5179443359375 553.3537750244141Q941.913818359375 541.0948638916016 920.1746826171875 519.3557281494141Q898.435546875 497.61659240722656 886.1766357421875 469.01246643066406Q873.917724609375 440.40834045410156 873.917724609375 407.71791076660156Q873.917724609375 374.70057678222656 886.1766357421875 346.09645080566406Q898.435546875 317.49232482910156 920.1746826171875 295.75318908691406Q941.913818359375 274.01405334472656 970.5179443359375 261.75514221191406Q999.1220703125 249.49623107910156 1031.8125 249.49623107910156Q1064.829833984375 249.49623107910156 1093.4339599609375 261.75514221191406Q1122.0380859375 274.01405334472656 1143.7772216796875 295.75318908691406Q1165.516357421875 317.49232482910156 1177.7752685546875 346.09645080566406Q1190.0341796875 374.70057678222656 1190.0341796875 407.71791076660156Z" fill="#4dd0e1" stroke="none" transform="scale(1,-1) translate(0,-256)" /><path d="M1077.298828125 13.903244018554688Q1077.298828125 55.85270690917969 1061.5677795410156 92.55848693847656Q1045.8367309570312 129.26426696777344 1017.9403381347656 157.16065979003906Q990.0439453125 185.0570526123047 953.3381652832031 200.78810119628906Q916.6323852539062 216.51914978027344 874.263427734375 216.51914978027344Q832.31396484375 216.51914978027344 795.6081848144531 200.78810119628906Q758.9024047851562 185.0570526123047 731.0060119628906 157.16065979003906Q703.109619140625 129.26426696777344 687.3785705566406 92.55848693847656Q671.6475219726562 55.85270690917969 671.6475219726562 13.903244018554688Q671.6475219726562 -28.465713500976562 687.3785705566406 -65.17149353027344Q703.109619140625 -101.87727355957031 731.0060119628906 -129.77366638183594Q758.9024047851562 -157.67005920410156 795.6081848144531 -173.40110778808594Q832.31396484375 -189.1321563720703 874.263427734375 -189.1321563720703Q916.6323852539062 -189.1321563720703 953.3381652832031 -173.40110778808594Q990.0439453125 -157.67005920410156 1017.9403381347656 -129.77366638183594Q1045.8367309570312 -101.87727355957031 1061.5677795410156 -65.17149353027344Q1077.298828125 -28.465713500976562 1077.298828125 13.903244018554688Z" fill="#4dd0e1" stroke="none" transform="scale(1,-1) translate(0,-256)" /><path d="M799.7791290283203 539.1540985107422Q799.7791290283203 613.5040740966797 771.8978881835938 678.560302734375Q744.0166473388672 743.6165313720703 694.5739135742188 793.0592651367188Q645.1311798095703 842.5019989013672 580.074951171875 870.3832397460938Q515.0187225341797 898.2644805908203 439.9252471923828 898.2644805908203Q365.5752716064453 898.2644805908203 300.51904296875 870.3832397460938Q235.4628143310547 842.5019989013672 186.02008056640625 793.0592651367188Q136.5773468017578 743.6165313720703 108.69610595703125 678.560302734375Q80.81486511230469 613.5040740966797 80.81486511230469 539.1540985107422Q80.81486511230469 464.0606231689453 108.69610595703125 399.00439453125Q136.5773468017578 333.9481658935547 186.02008056640625 284.50543212890625Q235.4628143310547 235.0626983642578 300.51904296875 207.18145751953125Q365.5752716064453 179.3002166748047 439.9252471923828 179.3002166748047Q515.0187225341797 179.3002166748047 580.074951171875 207.18145751953125Q645.1311798095703 235.0626983642578 694.5739135742188 284.50543212890625Q744.0166473388672 333.9481658935547 771.8978881835938 399.00439453125Q799.7791290283203 464.0606231689453 799.7791290283203 539.1540985107422Z" fill="#4dd0e1" stroke="none" transform="scale(1,-1) translate(0,-256)" /></svg>