<?xml version="1.0" encoding="utf-8" ?>
<svg baseProfile="full" height="256" version="1.1" width="256" xmlns="http://www.w3.org/2000/svg" xmlns:ev="http://www.w3.org/2001/xml-events" xmlns:xlink="http://www.w3.org/1999/xlink"><defs /><path d="M1014 517Q1010 526 988.0 525.5Q966 525 935 491Q925 480 914.5 457.5Q904 435 908 413Q911 389 922.5 383.0Q934 377 946.5 382.5Q959 388 965 398Q973 411 974.5 423.0Q976 435 978.5 448.0Q981 461 992 475Q998 483 1008.5 495.0Q1019 507 1014 517Z" fill="#ffffff" stroke="none" transform="scale(1,-1) translate(0,-256)" /><path d="M825 169Q800 167 779.0 151.5Q758 136 746.0 114.5Q734 93 736 73Q739 51 751.0 48.0Q763 45 777.0 52.5Q791 60 800 71Q813 85 827.0 89.5Q841 94 852.5 99.0Q864 104 870 119Q878 137 867.0 154.0Q856 171 825 169Z" fill="#ffffff" stroke="none" transform="scale(1,-1) translate(0,-256)" /><path d="M944 116Q925 116 916.5 122.5Q908 129 904 141Q898 160 909.0 167.5Q920 175 935.5 172.5Q951 170 959 159Q969 147 966.0 131.5Q963 116 944 116Z" fill="#ffffff" stroke="none" transform="scale(1,-1) translate(0,-256)" /><path d="M399 812Q380 819 354.5 813.0Q329 807 311 798Q258 772 221 726Q208 709 195.5 684.0Q183 659 176.0 631.5Q169 604 172 581Q176 552 193.5 545.5Q211 539 230.5 549.0Q250 559 261 579Q294 639 356 673Q376 684 403.0 696.0Q430 708 438 730Q448 753 439.0 777.0Q430 801 399 812Z" fill="#ffffff" stroke="none" transform="scale(1,-1) translate(0,-256)" /><path d="M591 791Q575 807 553.0 815.5Q531 824 508 820Q500 818 491.5 814.0Q483 810 478 803Q468 788 475.5 772.0Q483 756 504 747Q518 741 528.0 743.5Q538 746 554 745Q562 745 570.0 742.5Q578 740 586 743Q604 749 603.5 765.0Q603 781 591 791Z" fill="#ffffff" stroke="none" transform="scale(1,-1) translate(0,-256)" /><path d="M713 477Q732 471 733.0 450.0Q734 429 719.5 400.0Q705 371 678.5 340.5Q652 310 616.5 286.0Q581 262 539 251Q500 241 475.5 246.0Q451 251 453 271Q454 291 515 306Q569 319 603.0 347.5Q637 376 653 402Q668 427 675.5 445.5Q683 464 690.5 472.5Q698 481 713 477Z" fill="#ffffff" stroke="none" transform="scale(1,-1) translate(0,-256)" /><path d="M1028 -34Q1045 -40 1033.0 -67.5Q1021 -95 987 -120Q948 -149 916.5 -151.5Q885 -154 886 -138Q887 -129 896.5 -125.5Q906 -122 923.5 -116.0Q941 -110 965 -93Q988 -77 997.0 -62.0Q1006 -47 1011.0 -38.5Q1016 -30 1028 -34Z" fill="#ffffff" stroke="none" transform="scale(1,-1) translate(0,-256)" /><path d="M1157 389Q1150 351 1131.0 329.0Q1112 307 1083 297Q1072 293 1069.0 298.0Q1066 303 1072 307Q1097 325 1109.5 342.5Q1122 360 1127 389Q1130 403 1127.0 418.0Q1124 433 1122.0 444.0Q1120 455 1126 459Q1141 468 1148.5 456.0Q1156 444 1157.5 423.5Q1159 403 1157 389Z" fill="#ffffff" stroke="none" transform="scale(1,-1) translate(0,-256)" /></svg>