<?xml version="1.0" encoding="utf-8" ?>
<svg baseProfile="full" height="256" version="1.1" width="256" xmlns="http://www.w3.org/2000/svg" xmlns:ev="http://www.w3.org/2001/xml-events" xmlns:xlink="http://www.w3.org/1999/xlink"><defs /><path d="M446.66050720214844 463.69281005859375Q453.79722595214844 458.73365783691406 455.43875885009766 449.017333984375Q457.0802917480469 439.30101013183594 450.06907653808594 429.21116638183594Q443.057861328125 419.12132263183594 433.3790817260742 417.271240234375Q423.70030212402344 415.42115783691406 416.56358337402344 420.38031005859375Q409.42686462402344 425.33946228027344 407.7853317260742 435.0557861328125Q406.143798828125 444.77210998535156 413.15501403808594 454.86195373535156Q420.1662292480469 464.95179748535156 429.84500885009766 466.8018798828125Q439.52378845214844 468.65196228027344 446.66050720214844 463.69281005859375Z" fill="#896024" stroke="none" transform="scale(1,-1) translate(0,-256)" /><path d="M806.2855072021484 463.69281005859375Q813.4222259521484 458.73365783691406 815.0637588500977 449.017333984375Q816.7052917480469 439.30101013183594 809.6940765380859 429.21116638183594Q802.682861328125 419.12132263183594 793.0040817260742 417.271240234375Q783.3253021240234 415.42115783691406 776.1885833740234 420.38031005859375Q769.0518646240234 425.33946228027344 767.4103317260742 435.0557861328125Q765.768798828125 444.77210998535156 772.7800140380859 454.86195373535156Q779.7912292480469 464.95179748535156 789.4700088500977 466.8018798828125Q799.1487884521484 468.65196228027344 806.2855072021484 463.69281005859375Z" fill="#896024" stroke="none" transform="scale(1,-1) translate(0,-256)" /></svg>