<?xml version="1.0" encoding="utf-8" ?>
<svg baseProfile="full" height="256" version="1.1" width="256" xmlns="http://www.w3.org/2000/svg" xmlns:ev="http://www.w3.org/2001/xml-events" xmlns:xlink="http://www.w3.org/1999/xlink"><defs /><path d="M319 388Q319 374 328 365L499 211L539 251L374 410Q364 420 351 420Q338 420 328 410Q319 401 319 388Z" fill="#ee8cff" stroke="none" transform="scale(1,-1) translate(0,-256)" /><path d="M1053 449 895 608 850 562 1008 403Q1017 394 1030.5 394.0Q1044 394 1053 403Q1063 413 1063.0 426.5Q1063 440 1053 449Z" fill="#ee8cff" stroke="none" transform="scale(1,-1) translate(0,-256)" /><path d="M659 10Q612 -13 555.5 -22.0Q499 -31 441.5 -29.0Q384 -27 331.0 -18.0Q278 -9 237 2Q197 13 156.5 23.5Q116 34 75 40V-113Q102 -118 132.5 -126.0Q163 -134 196 -143Q255 -159 316.0 -173.0Q377 -187 438.0 -188.0Q499 -189 556.5 -169.5Q614 -150 665 -98Q715 -49 735.0 7.5Q755 64 755 123Q743 89 720.0 59.0Q697 29 659 10Z" fill="#ee8cff" stroke="none" transform="scale(1,-1) translate(0,-256)" /><path d="M671 748Q731 756 794.0 749.5Q857 743 918.5 729.0Q980 715 1038 699Q1078 688 1118.5 677.5Q1159 667 1200 661V814Q1173 820 1142.5 827.5Q1112 835 1079 844Q1020 860 959.0 874.0Q898 888 837.0 889.0Q776 890 718.5 870.5Q661 851 610 800Q582 771 562 739Q549 717 543.0 701.0Q537 685 537 685Q537 685 554.5 698.5Q572 712 602.5 727.5Q633 743 671 748Z" fill="#ee8cff" stroke="none" transform="scale(1,-1) translate(0,-256)" /></svg>