<?xml version="1.0" encoding="utf-8" ?>
<svg baseProfile="full" height="256" version="1.1" width="256" xmlns="http://www.w3.org/2000/svg" xmlns:ev="http://www.w3.org/2001/xml-events" xmlns:xlink="http://www.w3.org/1999/xlink"><defs /><path d="M160 83Q146 73 149.0 61.0Q152 49 156 45L233 -55L273 -15L196 74Q192 78 180.5 84.0Q169 90 160 83Z" fill="#40c4ff" stroke="none" transform="scale(1,-1) translate(0,-256)" /><path d="M514 -90 351 63 311 24 469 -135Q478 -145 492 -145Q505 -145 514 -135Q524 -126 524.0 -112.5Q524 -99 514 -90Z" fill="#40c4ff" stroke="none" transform="scale(1,-1) translate(0,-256)" /><path d="M176 350Q176 337 186 327L400 113L446 158L232 373Q222 382 208.5 382.0Q195 382 186 373Q176 363 176 350Z" fill="#40c4ff" stroke="none" transform="scale(1,-1) translate(0,-256)" /><path d="M673 258 618 330 579 291Q601 269 619.0 250.5Q637 232 642 227Q657 212 668.5 212.0Q680 212 685 219Q691 226 686.5 237.5Q682 249 673 258Z" fill="#40c4ff" stroke="none" transform="scale(1,-1) translate(0,-256)" /><path d="M584 537Q572 529 578.0 514.5Q584 500 588 495Q593 488 619.5 456.5Q646 425 677 389L715 428L707 436L615 528Q611 532 601.5 537.5Q592 543 584 537Z" fill="#40c4ff" stroke="none" transform="scale(1,-1) translate(0,-256)" /><path d="M963 359 805 518 765 477 918 314Q927 304 940.5 304.0Q954 304 963 314Q973 323 973.0 336.5Q973 350 963 359Z" fill="#40c4ff" stroke="none" transform="scale(1,-1) translate(0,-256)" /><path d="M1083 601 985 698 946 658Q985 622 1017.5 593.0Q1050 564 1059 556Q1082 538 1093.5 538.5Q1105 539 1111 549Q1117 559 1109.0 571.5Q1101 584 1083 601Z" fill="#40c4ff" stroke="none" transform="scale(1,-1) translate(0,-256)" /></svg>