<?xml version="1.0" encoding="utf-8" ?>
<svg baseProfile="full" height="256" version="1.1" width="256" xmlns="http://www.w3.org/2000/svg" xmlns:ev="http://www.w3.org/2001/xml-events" xmlns:xlink="http://www.w3.org/1999/xlink"><defs /><path d="M716 693Q751 728 796.5 735.5Q842 743 901.5 731.5Q961 720 1038 699Q1078 688 1118.5 677.5Q1159 667 1200 661V814Q1173 819 1142.5 827.0Q1112 835 1079 844Q1020 860 959.0 873.5Q898 887 837.0 888.5Q776 890 718.5 870.5Q661 851 610 799Q558 748 538.5 690.5Q519 633 520.5 572.5Q522 512 535.5 450.5Q549 389 565 331Q586 253 597.5 193.5Q609 134 601.5 88.5Q594 43 559 8Q554 3 540.5 -6.0Q527 -15 513.0 -22.5Q499 -30 492 -31Q518 -29 549.5 -29.5Q581 -30 612.0 -28.0Q643 -26 666 -13Q709 10 729.5 44.0Q750 78 754.0 118.5Q758 159 751.0 203.0Q744 247 732.0 290.0Q720 333 710 370Q689 448 677.5 507.5Q666 567 673.5 612.5Q681 658 716 693Z" fill="#ab47bc" stroke="none" transform="scale(1,-1) translate(0,-256)" /></svg>