<?xml version="1.0" encoding="utf-8" ?>
<svg baseProfile="full" height="256" version="1.1" width="256" xmlns="http://www.w3.org/2000/svg" xmlns:ev="http://www.w3.org/2001/xml-events" xmlns:xlink="http://www.w3.org/1999/xlink"><defs /><path d="M186 387Q135 336 115.5 277.0Q96 218 98.0 155.5Q100 93 114.0 30.5Q128 -32 144 -91Q154 -125 161.5 -155.0Q169 -185 174 -212H327Q321 -172 310.5 -131.0Q300 -90 290 -51Q278 -10 266.0 43.5Q254 97 250.0 155.5Q246 214 256.0 270.0Q266 326 298 372Q322 407 349.0 431.0Q376 455 411 467Q352 467 294.0 452.0Q236 437 186 387Z" fill="#00897b" stroke="none" transform="scale(1,-1) translate(0,-256)" /><path d="M1131 791Q1122 825 1114.5 855.0Q1107 885 1102 913H948Q955 872 965.5 831.0Q976 790 986 751Q1010 664 1024.5 572.5Q1039 481 1026 391Q1024 372 1015.5 348.0Q1007 324 997.0 301.5Q987 279 979.5 264.5Q972 250 972 250Q972 250 988.0 256.0Q1004 262 1026 275Q1059 294 1087 322Q1138 373 1158.0 430.5Q1178 488 1176.5 549.0Q1175 610 1161.5 671.5Q1148 733 1131 791Z" fill="#00897b" stroke="none" transform="scale(1,-1) translate(0,-256)" /></svg>