<?xml version="1.0" encoding="utf-8" ?>
<svg baseProfile="full" height="256" version="1.1" width="256" xmlns="http://www.w3.org/2000/svg" xmlns:ev="http://www.w3.org/2001/xml-events" xmlns:xlink="http://www.w3.org/1999/xlink"><defs /><path d="M734 229Q741 259 735.0 292.5Q729 326 710 358Q699 377 686.0 392.0Q673 407 662 425Q651 442 645.0 462.5Q639 483 645 502Q652 523 670.0 534.5Q688 546 711.0 547.5Q734 549 754 539Q780 527 797.0 499.5Q814 472 823.5 438.5Q833 405 837.0 374.0Q841 343 841.0 321.5Q841 300 838 298Q869 328 888.0 368.5Q907 409 909 452Q914 513 892.0 566.0Q870 619 829.5 659.5Q789 700 736 724Q655 761 584.0 737.0Q513 713 477 629Q457 581 462.0 538.5Q467 496 485.5 458.0Q504 420 524 386Q548 347 563.5 312.5Q579 278 565 246Q563 239 557.0 246.5Q551 254 541 267Q530 283 514.0 303.0Q498 323 478 335Q460 346 437.5 342.0Q415 338 410 309Q408 300 410.0 290.5Q412 281 415 271Q420 251 422.0 225.5Q424 200 402 164Q387 140 388.0 112.0Q389 84 398 72Q414 47 438.0 36.5Q462 26 484.0 29.0Q506 32 519 47Q543 73 559.0 88.0Q575 103 606 118Q632 131 658.0 141.0Q684 151 704.0 170.0Q724 189 734 229Z" fill="#faa700" stroke="none" transform="scale(1,-1) translate(0,-256)" /><path d="M948 671Q944 662 944.0 653.0Q944 644 946 638Q961 592 965.5 533.0Q970 474 959.5 408.0Q949 342 920.5 276.0Q892 210 842.0 149.5Q792 89 717 42Q702 32 697.5 15.0Q693 -2 693 -18Q703 -7 712 -1Q755 36 796.5 71.5Q838 107 874.5 152.0Q911 197 938.5 260.5Q966 324 983 416Q996 490 986.0 554.0Q976 618 948 671Z" fill="#faa700" stroke="none" transform="scale(1,-1) translate(0,-256)" /><path d="M540 -163Q540 -154 533.5 -148.0Q527 -142 512 -143Q455 -147 420.5 -126.0Q386 -105 368.5 -73.0Q351 -41 345.5 -9.0Q340 23 340 43Q341 63 332.0 72.0Q323 81 313 84Q311 64 310 45Q309 14 315.0 -21.0Q321 -56 338.5 -87.5Q356 -119 389.0 -141.5Q422 -164 476 -170Q509 -174 540 -163Z" fill="#faa700" stroke="none" transform="scale(1,-1) translate(0,-256)" /></svg>