<?xml version="1.0" encoding="utf-8" ?>
<svg baseProfile="full" height="256" version="1.1" width="256" xmlns="http://www.w3.org/2000/svg" xmlns:ev="http://www.w3.org/2001/xml-events" xmlns:xlink="http://www.w3.org/1999/xlink"><defs /><path d="M416 326Q413 320 410 309Q408 300 410.0 290.5Q412 281 415 271Q420 251 422.0 225.5Q424 200 402 164Q392 148 389.5 128.0Q387 108 390 92Q406 86 428.5 88.5Q451 91 478 116Q495 131 501.0 154.5Q507 178 503 200Q497 238 483.5 257.0Q470 276 452.5 289.5Q435 303 416 326Z" fill="#b55e19" stroke="none" transform="scale(1,-1) translate(0,-256)" /><path d="M769 123Q832 208 869.5 280.5Q907 353 915.0 427.0Q923 501 896 588Q885 627 856.5 661.5Q828 696 791.5 722.0Q755 748 719 759Q671 774 619.5 765.5Q568 757 528 728Q511 716 488.0 686.0Q465 656 450.0 614.0Q435 572 441 523Q448 464 470.0 431.5Q492 399 510 377Q529 355 538.5 340.0Q548 325 552 317Q557 309 558 310Q560 310 562.5 317.0Q565 324 560.0 341.0Q555 358 536 388Q521 410 501.0 443.5Q481 477 474 527Q473 537 473.5 546.5Q474 556 474 565Q488 540 526.0 503.0Q564 466 634 415Q688 374 707.0 332.5Q726 291 721.0 254.5Q716 218 698.0 192.5Q680 167 661 159Q633 148 605.5 136.5Q578 125 556 104Q535 85 531 58Q552 86 577.0 97.5Q602 109 629.5 116.0Q657 123 684 137Q720 155 736.0 177.5Q752 200 758 252Q762 293 748.5 331.5Q735 370 707 401Q697 411 674.0 431.0Q651 451 623.5 474.0Q596 497 574.0 517.5Q552 538 545 549Q529 576 525.0 614.0Q521 652 550 686Q584 710 627.0 717.5Q670 725 711 712Q741 703 773.5 679.0Q806 655 831.5 623.5Q857 592 867 559Q885 499 879.5 445.5Q874 392 853.0 340.0Q832 288 803 230Q777 179 773.0 151.0Q769 123 769 123Z" fill="#b55e19" stroke="none" transform="scale(1,-1) translate(0,-256)" /><path d="M900 188Q895 191 892 187Q851 138 810.0 108.0Q769 78 729.5 52.0Q690 26 655 -12Q647 -20 631.0 -42.0Q615 -64 588.0 -89.0Q561 -114 522.0 -132.0Q483 -150 430 -151Q423 -151 422 -158Q447 -167 476 -170Q520 -175 554.0 -157.0Q588 -139 615.0 -110.0Q642 -81 664 -53Q677 -37 688.5 -23.5Q700 -10 712 -1Q763 42 812.0 84.5Q861 127 900 188Z" fill="#b55e19" stroke="none" transform="scale(1,-1) translate(0,-256)" /></svg>