<?xml version="1.0" encoding="utf-8" ?>
<svg baseProfile="full" height="256" version="1.1" width="256" xmlns="http://www.w3.org/2000/svg" xmlns:ev="http://www.w3.org/2001/xml-events" xmlns:xlink="http://www.w3.org/1999/xlink"><defs /><path d="M602 466 1200 469V215H411Q411 215 422.0 238.5Q433 262 452.5 297.0Q472 332 498 367Q523 403 547.0 424.5Q571 446 586.5 456.0Q602 466 602 466Z" fill="#bae2fd" stroke="none" transform="scale(1,-1) translate(0,-256)" /><path d="M246 207Q227 163 197.0 139.0Q167 115 136.0 105.5Q105 96 81 94Q82 127 86.5 176.5Q91 226 102.0 284.0Q113 342 133.0 401.5Q153 461 185 515Q193 530 204 544L413 539Z" fill="#bae2fd" stroke="none" transform="scale(1,-1) translate(0,-256)" /></svg>