<?xml version="1.0" encoding="utf-8" ?>
<svg baseProfile="full" height="256" version="1.1" width="256" xmlns="http://www.w3.org/2000/svg" xmlns:ev="http://www.w3.org/2001/xml-events" xmlns:xlink="http://www.w3.org/1999/xlink"><defs /><path d="M959 232H1200V193H432Q410 193 401.5 202.5Q393 212 393.0 224.5Q393 237 398 246Q413 273 435.5 309.0Q458 345 484.5 381.5Q511 418 537 445Q563 472 584.0 478.0Q605 484 627 484H1200V445H959Q948 445 948 434V243Q948 232 959 232ZM612 243V434Q612 443 604.5 443.5Q597 444 589 438Q564 421 539.5 390.0Q515 359 494.0 326.0Q473 293 460.5 270.0Q448 247 448 247Q445 242 448.0 237.0Q451 232 457 232H602Q612 232 612 243ZM922 243V434Q922 445 912 445H649Q638 445 638 434V243Q638 232 649 232H912Q922 232 922 243Z" fill="#37474f" stroke="none" transform="scale(1,-1) translate(0,-256)" /><path d="M282 222Q265 188 247.0 149.0Q229 110 192 84Q170 68 144.0 62.5Q118 57 99.5 56.0Q81 55 81 55Q81 55 81.0 95.0Q81 135 90 205Q105 205 135.0 209.5Q165 214 194.0 226.5Q223 239 237 263Q269 321 295.5 370.5Q322 420 338.0 450.5Q354 481 354 481Q358 486 355.0 491.5Q352 497 346 497H175Q180 506 185 515Q204 548 230 572Q261 572 296.5 572.0Q332 572 361.5 572.0Q391 572 402 572Q430 572 436.5 565.5Q443 559 447 550Q452 537 443.0 517.5Q434 498 424 484Q415 469 376.5 402.5Q338 336 282 222Z" fill="#37474f" stroke="none" transform="scale(1,-1) translate(0,-256)" /></svg>