<?xml version="1.0" encoding="utf-8" ?>
<svg baseProfile="full" height="256" version="1.1" width="256" xmlns="http://www.w3.org/2000/svg" xmlns:ev="http://www.w3.org/2001/xml-events" xmlns:xlink="http://www.w3.org/1999/xlink"><defs /><path d="M393 633Q468 632 560.0 632.0Q652 632 748.5 632.0Q845 632 933.5 632.0Q1022 632 1092.0 631.5Q1162 631 1200 631V-75V-103V-213H111Q95 -213 84.5 -202.0Q74 -191 74 -176Q74 -176 74.0 -171.0Q74 -166 86 -154L162 -75L101 -19Q84 -6 81.5 9.0Q79 24 79 24Q79 24 79.0 55.0Q79 86 82.5 138.5Q86 191 97.0 255.0Q108 319 129.0 386.5Q150 454 185 514Q212 560 248.0 586.0Q284 612 322.0 622.5Q360 633 393 633Z" fill="#e0e0e0" stroke="none" transform="scale(1,-1) translate(0,-256)" /></svg>