<?xml version="1.0" encoding="utf-8" ?>
<svg baseProfile="full" height="256" version="1.1" width="256" xmlns="http://www.w3.org/2000/svg" xmlns:ev="http://www.w3.org/2001/xml-events" xmlns:xlink="http://www.w3.org/1999/xlink"><defs /><path d="M671 605Q672 608 675.0 615.5Q678 623 682 632Q684 637 689.0 656.5Q694 676 709.0 694.0Q724 712 753 715Q782 718 800.0 702.5Q818 687 833.0 667.5Q848 648 868 637Q896 621 910.5 624.5Q925 628 925 628L931 592Q931 592 918.0 587.5Q905 583 871 592Q847 599 831.5 612.5Q816 626 804.5 640.0Q793 654 782.5 663.5Q772 673 760 672Q748 670 740.5 657.0Q733 644 729.5 627.0Q726 610 724.5 596.5Q723 583 723 580Q722 574 711.5 571.0Q701 568 691 574Q668 588 671 605Z" fill="#d8a26d" stroke="none" transform="scale(1,-1) translate(0,-256)" /></svg>