<?xml version="1.0" encoding="utf-8" ?>
<svg baseProfile="full" height="256" version="1.1" width="256" xmlns="http://www.w3.org/2000/svg" xmlns:ev="http://www.w3.org/2001/xml-events" xmlns:xlink="http://www.w3.org/1999/xlink"><defs /><path d="M118 64Q118 64 118.5 50.0Q119 36 128.5 12.0Q138 -12 164 -42Q194 -75 233 -100Q251 -110 264.5 -115.5Q278 -121 278 -121L261 -144Q261 -144 246.0 -138.5Q231 -133 207 -118Q193 -110 177.5 -98.5Q162 -87 146 -71Q119 -43 108.5 -20.0Q98 3 96.5 16.5Q95 30 95 30Z" fill="#fdb900" stroke="none" transform="scale(1,-1) translate(0,-256)" /></svg>