<?xml version="1.0" encoding="utf-8" ?>
<svg baseProfile="full" height="256" version="1.1" width="256" xmlns="http://www.w3.org/2000/svg" xmlns:ev="http://www.w3.org/2001/xml-events" xmlns:xlink="http://www.w3.org/1999/xlink"><defs /><path d="M456.281005859375 519.5Q485.281005859375 519.5 508.281005859375 496.0Q531.281005859375 472.5 531.281005859375 431.5Q531.281005859375 389.5 508.281005859375 366.0Q485.281005859375 342.5 456.281005859375 342.5Q427.281005859375 342.5 404.281005859375 366.0Q381.281005859375 389.5 381.281005859375 431.5Q381.281005859375 472.5 404.281005859375 496.0Q427.281005859375 519.5 456.281005859375 519.5Z" fill="#422b0d" stroke="none" transform="scale(1,-1) translate(0,-256)" /><path d="M816 519Q845 519 868.0 495.5Q891 472 891 431Q891 390 868.0 366.5Q845 343 816 343Q786 343 763.5 366.5Q741 390 741 431Q741 472 763.5 495.5Q786 519 816 519Z" fill="#422b0d" stroke="none" transform="scale(1,-1) translate(0,-256)" /></svg>