<?xml version="1.0" encoding="utf-8" ?>
<svg baseProfile="full" height="256" version="1.1" width="256" xmlns="http://www.w3.org/2000/svg" xmlns:ev="http://www.w3.org/2001/xml-events" xmlns:xlink="http://www.w3.org/1999/xlink"><defs /><path d="M209 222Q191 227 184.5 251.5Q178 276 183.0 312.0Q188 348 203.5 389.0Q219 430 245 469Q280 521 322.5 552.0Q365 583 402.0 590.0Q439 597 457 575Q474 554 465.0 531.0Q456 508 434.0 483.5Q412 459 390 435Q379 423 363.0 403.0Q347 383 331.5 360.5Q316 338 307 320Q279 266 256.0 240.0Q233 214 209 222Z" fill="#ffe265" stroke="none" transform="scale(1,-1) translate(0,-256)" /></svg>