<?xml version="1.0" encoding="utf-8" ?>
<svg baseProfile="full" height="256" version="1.1" width="256" xmlns="http://www.w3.org/2000/svg" xmlns:ev="http://www.w3.org/2001/xml-events" xmlns:xlink="http://www.w3.org/1999/xlink"><defs /><path d="M79 212Q75 254 84.0 309.5Q93 365 120.0 425.0Q147 485 194.5 540.0Q242 595 314 635Q394 680 510.5 699.0Q627 718 777 687Q890 664 967.0 622.5Q1044 581 1091.0 527.0Q1138 473 1162.0 413.5Q1186 354 1192.0 294.5Q1198 235 1192.0 182.5Q1186 130 1173.0 89.5Q1160 49 1148 28Q1132 3 1106.5 -29.0Q1081 -61 1041.5 -94.0Q1002 -127 946.0 -154.5Q890 -182 813.5 -198.0Q737 -214 636 -213Q385 -209 243.0 -99.0Q101 11 79 212Z" fill="#ff8e00" stroke="none" transform="scale(1,-1) translate(0,-256)" /></svg>