<?xml version="1.0" encoding="utf-8" ?>
<svg baseProfile="full" height="256" version="1.1" width="256" xmlns="http://www.w3.org/2000/svg" xmlns:ev="http://www.w3.org/2001/xml-events" xmlns:xlink="http://www.w3.org/1999/xlink"><defs /><path d="M643.968994140625 851.625Q643.968994140625 851.625 643.968994140625 851.625Q643.968994140625 851.625 643.968994140625 851.625Q623.968994140625 872.625 594.968994140625 872.625Q565.968994140625 872.625 545.968994140625 851.625L89.968994140625 398.625Q89.968994140625 397.625 89.968994140625 397.625Q89.968994140625 397.625 89.968994140625 397.625Q69.968994140625 377.625 70.968994140625 349.625Q71.968994140625 321.625 91.968994140625 301.625L544.968994140625 -153.375Q544.968994140625 -153.375 544.968994140625 -153.375Q544.968994140625 -153.375 544.968994140625 -153.375Q564.968994140625 -173.375 593.968994140625 -173.375Q622.968994140625 -173.375 642.968994140625 -153.375L1096.968994140625 301.625Q1096.968994140625 301.625 1096.968994140625 301.625Q1096.968994140625 301.625 1096.968994140625 301.625Q1117.968994140625 321.625 1117.968994140625 349.625Q1117.968994140625 377.625 1098.968994140625 398.625Z" fill="#ffcc32" stroke="none" transform="scale(1,-1) translate(0,-256)" /></svg>