<?xml version="1.0" encoding="utf-8" ?>
<svg baseProfile="full" height="256" version="1.1" width="256" xmlns="http://www.w3.org/2000/svg" xmlns:ev="http://www.w3.org/2001/xml-events" xmlns:xlink="http://www.w3.org/1999/xlink"><defs /><path d="M372 153Q373 169 383.5 172.5Q394 176 404 177Q409 177 431.0 177.5Q453 178 485.0 178.0Q517 178 551.5 178.0Q586 178 616 178Q645 178 686.5 178.0Q728 178 768.0 178.0Q808 178 836.0 178.0Q864 178 868 178Q878 178 890.5 173.5Q903 169 904 153Q905 136 893.5 128.0Q882 120 866 121Q862 121 830.0 121.0Q798 121 749.0 120.5Q700 120 645.0 120.0Q590 120 540.0 120.0Q490 120 456.0 120.0Q422 120 415 120Q393 120 382.5 129.5Q372 139 372 153Z" fill="#ffffff" stroke="none" transform="scale(1,-1) translate(0,-256)" /><path d="M415 64Q415 77 426.0 83.0Q437 89 447 89Q458 89 483.0 89.5Q508 90 555 89Q573 89 604.0 89.0Q635 89 670.5 89.0Q706 89 739.0 89.0Q772 89 795.5 89.0Q819 89 827 89Q845 89 852.0 82.0Q859 75 860 64Q860 51 850.5 44.0Q841 37 831 37Q822 37 789.5 36.5Q757 36 716.0 36.0Q675 36 642 36Q610 36 571.0 36.0Q532 36 500.5 36.0Q469 36 457 36Q439 37 426.5 42.0Q414 47 415 64Z" fill="#ffffff" stroke="none" transform="scale(1,-1) translate(0,-256)" /><path d="M494 -14Q493 -2 502.0 2.5Q511 7 521 8Q525 8 549.5 8.0Q574 8 608.0 8.0Q642 8 676.5 7.5Q711 7 736.0 7.0Q761 7 766 7Q778 7 786.0 1.5Q794 -4 793 -14Q793 -24 785.5 -31.5Q778 -39 765 -39Q760 -39 736.0 -39.0Q712 -39 679.0 -39.0Q646 -39 613.0 -38.5Q580 -38 556.0 -38.0Q532 -38 527 -38Q514 -38 504.0 -32.5Q494 -27 494 -14Z" fill="#ffffff" stroke="none" transform="scale(1,-1) translate(0,-256)" /><path d="M565 -53Q564 -44 571.0 -38.0Q578 -32 578 -32L711 -31Q711 -31 719.5 -35.0Q728 -39 728 -53Q727 -61 722.0 -68.5Q717 -76 705 -76Q699 -76 677.0 -76.5Q655 -77 631.5 -77.0Q608 -77 596 -77Q577 -76 571.5 -69.5Q566 -63 565 -53Z" fill="#ffffff" stroke="none" transform="scale(1,-1) translate(0,-256)" /></svg>