<?xml version="1.0" encoding="utf-8" ?>
<svg baseProfile="full" height="256" version="1.1" width="256" xmlns="http://www.w3.org/2000/svg" xmlns:ev="http://www.w3.org/2001/xml-events" xmlns:xlink="http://www.w3.org/1999/xlink"><defs /><path d="M1131 -215Q1160 -215 1180.5 -194.5Q1201 -174 1201 -144V843Q1201 872 1180.5 892.5Q1160 913 1131 913H144Q114 913 93.5 892.5Q73 872 73 843V-144Q73 -174 93.5 -194.5Q114 -215 144 -215Z" fill="#000000" stroke="none" transform="scale(1,-1) translate(0,-256)" /><path d="M74 256 352 240Q352 208 357.0 188.0Q362 168 362 168L73 192Q73 192 73.0 209.0Q73 226 74 256Z" fill="#000000" stroke="none" transform="scale(1,-1) translate(0,-256)" /><path d="M75 423 359 315Q357 303 355 291Q353 279 352 268L74 318Q75 341 75.0 368.0Q75 395 75 423Z" fill="#000000" stroke="none" transform="scale(1,-1) translate(0,-256)" /><path d="M76 628 390 393Q375 368 367 342L76 506Q76 569 76 628Z" fill="#000000" stroke="none" transform="scale(1,-1) translate(0,-256)" /><path d="M108 880 443 461Q421 441 405 418L75 753Q75 759 74.5 764.0Q74 769 74 773Q72 813 82.0 839.0Q92 865 108 880Z" fill="#000000" stroke="none" transform="scale(1,-1) translate(0,-256)" /><path d="M318 914 509 506Q484 494 462 478L189 912Q196 912 204 913Q214 913 244.0 913.5Q274 914 318 914Z" fill="#000000" stroke="none" transform="scale(1,-1) translate(0,-256)" /><path d="M520 913 590 532Q560 527 533 517L415 913Q439 913 465.5 913.0Q492 913 520 913Z" fill="#000000" stroke="none" transform="scale(1,-1) translate(0,-256)" /><path d="M696 912 678 533Q663 535 647 535Q632 536 616 535L601 913Q628 913 648.5 913.0Q669 913 696 912Z" fill="#000000" stroke="none" transform="scale(1,-1) translate(0,-256)" /><path d="M885 911 758 511Q730 523 702 529L779 911Q807 911 834.0 911.0Q861 911 885 911Z" fill="#000000" stroke="none" transform="scale(1,-1) translate(0,-256)" /><path d="M1082 907 825 470Q804 488 781 500L967 910Q992 909 1011.5 909.0Q1031 909 1043 909Q1064 908 1082 907Z" fill="#000000" stroke="none" transform="scale(1,-1) translate(0,-256)" /><path d="M1201 732 881 410Q864 434 844 454L1188 876Q1201 863 1201 843Q1201 835 1201.0 805.5Q1201 776 1201 732Z" fill="#000000" stroke="none" transform="scale(1,-1) translate(0,-256)" /><path d="M1201 495 918 338Q908 366 894 390L1201 620Q1201 590 1201.0 558.5Q1201 527 1201 495Z" fill="#000000" stroke="none" transform="scale(1,-1) translate(0,-256)" /><path d="M932 260Q931 260 931 261Q931 287 924 314L1201 402Q1200 374 1200.0 348.5Q1200 323 1200 300Z" fill="#000000" stroke="none" transform="scale(1,-1) translate(0,-256)" /><path d="M931 231 1200 240Q1200 213 1200.0 197.5Q1200 182 1200 182L920 119Q920 119 925.0 152.0Q930 185 931 231Z" fill="#000000" stroke="none" transform="scale(1,-1) translate(0,-256)" /><path d="M212.11219787597656 -503.93255615234375 214.18609619140625 -29.386398315429688 -143.80844116210938 -31.598770141601562Q-173.8079833984375 -31.784164428710938 -194.2544937133789 -40.534576416015625Q-214.7010040283203 -49.28498840332031 -214.62318420410156 -61.90507507324219L-212.0629119873047 -477.1059265136719Q-211.98768615722656 -489.3053436279297 -191.43482208251953 -497.80238342285156Q-170.8819580078125 -506.29942321777344 -140.88241577148438 -506.11402893066406Z" fill="#000000" stroke="none" transform="scale(1,-1) translate(0,-256)" /></svg>