<?xml version="1.0" encoding="utf-8" ?>
<svg baseProfile="full" height="256" version="1.1" width="256" xmlns="http://www.w3.org/2000/svg" xmlns:ev="http://www.w3.org/2001/xml-events" xmlns:xlink="http://www.w3.org/1999/xlink"><defs /><path d="M642 504Q722 504 779.5 466.0Q837 428 868.0 367.0Q899 306 900 238Q900 171 870.0 112.5Q840 54 783.5 17.5Q727 -19 647 -19Q568 -20 509.0 13.5Q450 47 417.0 106.0Q384 165 383 240Q382 296 403.0 344.0Q424 392 460.5 428.0Q497 464 543.5 484.0Q590 504 642 504Z" fill="#fff7b3" stroke="none" transform="scale(1,-1) translate(0,-256)" /></svg>