<?xml version="1.0" encoding="utf-8" ?>
<svg baseProfile="full" height="256" version="1.1" width="256" xmlns="http://www.w3.org/2000/svg" xmlns:ev="http://www.w3.org/2001/xml-events" xmlns:xlink="http://www.w3.org/1999/xlink"><defs /><path d="M450 566Q480 566 502.5 542.5Q525 519 525 478Q525 437 502.5 413.5Q480 390 450 390Q421 390 398.0 413.5Q375 437 375 478Q375 519 398.0 542.5Q421 566 450 566Z" fill="#422b0d" stroke="none" transform="scale(1,-1) translate(0,-256)" /><path d="M810 566Q839 566 862.0 542.5Q885 519 885 478Q885 437 862.0 413.5Q839 390 810 390Q781 390 758.0 413.5Q735 437 735 478Q735 519 758.0 542.5Q781 566 810 566Z" fill="#422b0d" stroke="none" transform="scale(1,-1) translate(0,-256)" /><path d="M413 88Q404 82 396.0 88.0Q388 94 394 102Q430 157 490.0 196.0Q550 235 625 248Q701 262 771.0 246.0Q841 230 894 191Q902 186 896.5 177.5Q891 169 881 172Q761 208 638 184Q513 163 413 88Z" fill="#422b0d" stroke="none" transform="scale(1,-1) translate(0,-256)" /></svg>