<?xml version="1.0" encoding="utf-8" ?>
<svg baseProfile="full" height="256" version="1.1" width="256" xmlns="http://www.w3.org/2000/svg" xmlns:ev="http://www.w3.org/2001/xml-events" xmlns:xlink="http://www.w3.org/1999/xlink"><defs /><path d="M547 260Q547 260 557.0 283.0Q567 306 580.0 355.0Q593 404 602 482Q611 552 605.0 579.0Q599 606 599 606L293 588Q293 505 282.0 443.5Q271 382 257.0 341.0Q243 300 232.0 280.0Q221 260 221 260L218 196L543 181Z" fill="#eeeeee" stroke="none" transform="scale(1,-1) translate(0,-256)" /><path d="M1030 432 1062 428 1060 400 593 462Q593 462 593.5 467.5Q594 473 594 477Q595 481 595.0 486.0Q595 491 595 491L658 482L662 522L681 519L676 480L717 474L721 513L740 511L735 472L775 466L780 505L798 503L794 464L834 458L839 497L857 494L853 456L893 450L898 489L916 486L912 448L952 442L957 480L975 478L971 440L1011 434L1015 472L1034 469Z" fill="#eeeeee" stroke="none" transform="scale(1,-1) translate(0,-256)" /><path d="M1070 506 1072 534 599 606V578Z" fill="#eeeeee" stroke="none" transform="scale(1,-1) translate(0,-256)" /><path d="M1020 323 1157 306 1154 278 571 350Q575 365 577.0 371.0Q579 377 579 377L648 369L652 406L671 404L667 367L707 362L711 399L729 397L726 359L766 354L770 392L788 389L784 352L825 347L829 384L847 382L843 345L884 340L888 377L906 375L902 337L942 332L946 370L965 367L961 330L1001 325L1005 362L1024 360Z" fill="#eeeeee" stroke="none" transform="scale(1,-1) translate(0,-256)" /><path d="M1107 202 1147 197 1140 111 524 174 530 266 592 261 596 299 614 296 610 259 654 254 658 291 676 289 672 252 716 247 720 284 738 282 734 245 778 240 782 277 800 275 796 238 840 233 844 270 863 268 858 230 902 225 906 263 925 260 921 223 964 218 968 255 987 253 983 216 1026 211 1030 248 1049 246 1045 209 1088 204 1092 241 1111 239Z" fill="#eeeeee" stroke="none" transform="scale(1,-1) translate(0,-256)" /></svg>