<?xml version="1.0" encoding="utf-8" ?>
<svg baseProfile="full" height="256" version="1.1" width="256" xmlns="http://www.w3.org/2000/svg" xmlns:ev="http://www.w3.org/2001/xml-events" xmlns:xlink="http://www.w3.org/1999/xlink"><defs /><path d="M817 535 965 531 970 743Q970 755 961 760Q954 763 941.0 766.0Q928 769 907 771Q879 773 860.5 770.0Q842 767 832 764Q822 760 822 748Z" fill="#356477" stroke="none" transform="scale(1,-1) translate(0,-256)" /><path d="M521 589 693 584 699 834Q699 845 688 849Q680 852 665.0 855.5Q650 859 626 860Q593 862 571.5 859.0Q550 856 539 853Q527 850 526 838Z" fill="#356477" stroke="none" transform="scale(1,-1) translate(0,-256)" /><path d="M95 210Q183 210 284.0 205.5Q385 201 490.0 193.5Q595 186 696.0 177.0Q797 168 886.0 159.0Q975 150 1042.5 142.5Q1110 135 1148.5 130.5Q1187 126 1187 126Q1200 125 1199 112Q1198 95 1195.5 62.0Q1193 29 1189.5 -8.0Q1186 -45 1181.5 -77.0Q1177 -109 1172 -124Q1159 -164 1126.5 -188.0Q1094 -212 1059 -212Q1059 -212 1029.0 -212.0Q999 -212 947.5 -212.0Q896 -212 831.0 -212.0Q766 -212 696.5 -212.0Q627 -212 560.5 -212.0Q494 -212 438.5 -212.0Q383 -212 347.5 -212.0Q312 -212 305 -212Q286 -212 254.0 -198.5Q222 -185 185.5 -154.0Q149 -123 118 -71Q94 -31 84.5 14.5Q75 60 73.5 100.0Q72 140 74.5 165.5Q77 191 77 191Q76 206 85.5 208.0Q95 210 95 210Z" fill="#356477" stroke="none" transform="scale(1,-1) translate(0,-256)" /></svg>