<?xml version="1.0" encoding="utf-8" ?>
<svg baseProfile="full" height="256" version="1.1" width="256" xmlns="http://www.w3.org/2000/svg" xmlns:ev="http://www.w3.org/2001/xml-events" xmlns:xlink="http://www.w3.org/1999/xlink"><defs /><path d="M725 255Q800 327 842.5 372.5Q885 418 894 428Q900 435 912.0 447.0Q924 459 939.5 467.0Q955 475 973 471Q1001 465 1013.5 454.5Q1026 444 1028.5 435.5Q1031 427 1031 427Q1031 427 1047.0 426.5Q1063 426 1077 420Q1089 415 1099.5 405.5Q1110 396 1113 389Q1119 375 1119.5 358.0Q1120 341 1120 341Q1120 341 1132.0 328.5Q1144 316 1148 300Q1151 283 1146.5 264.5Q1142 246 1143 243Q1143 241 1125.0 227.0Q1107 213 1081.0 192.5Q1055 172 1028.5 152.5Q1002 133 984.0 119.5Q966 106 966 106L850 1L741 -173Q741 -173 730.5 -186.5Q720 -200 709 -204Q699 -209 682.5 -212.5Q666 -216 648 -209Q635 -205 614.5 -191.0Q594 -177 574.5 -161.0Q555 -145 546 -136Q532 -123 510.0 -99.0Q488 -75 480 -57Q472 -39 470.0 -20.0Q468 -1 470 19Q471 40 487.5 52.0Q504 64 518 76Q527 84 559.0 110.0Q591 136 635.5 173.5Q680 211 725 255Z" fill="#ffedc4" stroke="none" transform="scale(1,-1) translate(0,-256)" /></svg>