<?xml version="1.0" encoding="utf-8" ?>
<svg baseProfile="full" height="256" version="1.1" width="256" xmlns="http://www.w3.org/2000/svg" xmlns:ev="http://www.w3.org/2001/xml-events" xmlns:xlink="http://www.w3.org/1999/xlink"><defs /><path d="M177 661Q183 666 192.0 665.5Q201 665 206 660Q213 653 215.0 644.0Q217 635 210 627Q204 621 195.0 620.0Q186 619 177 627Q169 634 169.5 644.0Q170 654 177 661Z" fill="#5d423c" stroke="none" transform="scale(1,-1) translate(0,-256)" /><path d="M175 767Q165 767 164 757Q163 752 167.0 748.5Q171 745 175 745Q187 747 186 757Q186 761 184.0 764.0Q182 767 175 767Z" fill="#5d423c" stroke="none" transform="scale(1,-1) translate(0,-256)" /><path d="M306 666Q305 689 326 689Q335 689 340.0 682.5Q345 676 345 668Q345 662 341.0 655.0Q337 648 327 648Q318 648 312.0 653.0Q306 658 306 666Z" fill="#5d423c" stroke="none" transform="scale(1,-1) translate(0,-256)" /><path d="M351 693Q351 706 365 706Q372 705 375.0 700.5Q378 696 378 693Q378 689 375.5 683.5Q373 678 365 678Q356 678 353.5 683.0Q351 688 351 693Z" fill="#5d423c" stroke="none" transform="scale(1,-1) translate(0,-256)" /><path d="M479 801Q479 809 486.0 814.0Q493 819 499 819Q506 818 512.0 814.0Q518 810 518 801Q518 781 500 780Q492 780 485.5 784.5Q479 789 479 801Z" fill="#5d423c" stroke="none" transform="scale(1,-1) translate(0,-256)" /><path d="M554 780Q562 779 566.0 774.5Q570 770 570 764Q570 758 566.5 752.0Q563 746 555 745Q539 744 537 759Q536 768 541.0 774.0Q546 780 554 780Z" fill="#5d423c" stroke="none" transform="scale(1,-1) translate(0,-256)" /><path d="M170 493Q176 498 182.5 497.5Q189 497 193 494Q198 490 198.5 483.0Q199 476 195 471Q192 465 184.0 464.5Q176 464 172 468Q168 472 166.0 480.0Q164 488 170 493Z" fill="#5d423c" stroke="none" transform="scale(1,-1) translate(0,-256)" /></svg>