<?xml version="1.0" encoding="utf-8" ?>
<svg baseProfile="full" height="256" version="1.1" width="256" xmlns="http://www.w3.org/2000/svg" xmlns:ev="http://www.w3.org/2001/xml-events" xmlns:xlink="http://www.w3.org/1999/xlink"><defs /><path d="M585 555Q585 555 600.5 550.5Q616 546 639.5 538.5Q663 531 687.5 520.5Q712 510 730.5 497.0Q749 484 754 470Q761 452 761.0 423.5Q761 395 754.0 363.0Q747 331 733 304Q729 309 725.5 312.5Q722 316 722 316L666 264Q666 264 672.5 258.0Q679 252 685 245Q660 225 625.0 213.0Q590 201 545 205Q485 210 448.0 233.0Q411 256 391 286Q370 316 363.5 349.0Q357 382 359.0 412.5Q361 443 368 465Q375 488 399.0 503.5Q423 519 454.5 529.0Q486 539 516.0 545.0Q546 551 565.5 553.0Q585 555 585 555Z" fill="#ffa62b" stroke="none" transform="scale(1,-1) translate(0,-256)" /></svg>