<?xml version="1.0" encoding="utf-8" ?>
<svg baseProfile="full" height="256" version="1.1" width="256" xmlns="http://www.w3.org/2000/svg" xmlns:ev="http://www.w3.org/2001/xml-events" xmlns:xlink="http://www.w3.org/1999/xlink"><defs /><path d="M110 899Q126 913 185.5 915.5Q245 918 365 909Q465 901 538.0 886.5Q611 872 633 857Q643 850 646.0 836.5Q649 823 633 800Q613 770 574.0 730.0Q535 690 490.5 648.0Q446 606 407 571Q363 531 318.5 491.0Q274 451 233.5 418.5Q193 386 162.0 368.5Q131 351 113 357Q87 365 84.0 437.5Q81 510 84 655Q86 728 87.0 773.0Q88 818 90.5 843.0Q93 868 97.5 880.0Q102 892 110 899Z" fill="#937672" stroke="none" transform="scale(1,-1) translate(0,-256)" /></svg>