<?xml version="1.0" encoding="utf-8" ?>
<svg baseProfile="full" height="256" version="1.1" width="256" xmlns="http://www.w3.org/2000/svg" xmlns:ev="http://www.w3.org/2001/xml-events" xmlns:xlink="http://www.w3.org/1999/xlink"><defs /><path d="M525 441Q525 465 511.0 482.0Q497 499 476 499Q456 499 441.5 482.0Q427 465 427 441Q427 417 441.5 400.0Q456 383 476 383Q497 383 511.0 400.0Q525 417 525 441Z" fill="#5d4037" stroke="none" transform="scale(1,-1) translate(0,-256)" /><path d="M847.5 441.0Q847.5 465.0 833.5 482.0Q819.5 499.0 798.5 499.0Q778.5 499.0 764.0 482.0Q749.5 465.0 749.5 441.0Q749.5 417.0 764.0 400.0Q778.5 383.0 798.5 383.0Q819.5 383.0 833.5 400.0Q847.5 417.0 847.5 441.0Z" fill="#5d4037" stroke="none" transform="scale(1,-1) translate(0,-256)" /><path d="M748 241Q756 245 763.0 247.0Q770 249 774 245Q782 237 775 226Q762 206 727.5 182.5Q693 159 637 158Q581 159 547.0 182.5Q513 206 500 226Q492 239 503 247Q508 251 514.0 248.5Q520 246 525 242Q536 233 564.0 219.5Q592 206 637 206Q683 206 709.5 219.5Q736 233 748 241Z" fill="#5d4037" stroke="none" transform="scale(1,-1) translate(0,-256)" /></svg>