<?xml version="1.0" encoding="utf-8" ?>
<svg baseProfile="full" height="256" version="1.1" width="256" xmlns="http://www.w3.org/2000/svg" xmlns:ev="http://www.w3.org/2001/xml-events" xmlns:xlink="http://www.w3.org/1999/xlink"><defs /><path d="M590 298Q608 279 629.5 276.5Q651 274 669.5 280.5Q688 287 695 298Q713 322 710.0 350.5Q707 379 673 429Q653 459 660.5 483.0Q668 507 681 515Q687 519 689.0 526.0Q691 533 671 531Q654 530 641.0 513.0Q628 496 624.0 471.0Q620 446 632 421Q648 384 658.0 366.0Q668 348 657 327Q652 316 634.0 313.5Q616 311 603 315Q592 318 586.0 313.0Q580 308 590 298Z" fill="#de7321" stroke="none" transform="scale(1,-1) translate(0,-256)" /></svg>