<?xml version="1.0" encoding="utf-8" ?>
<svg baseProfile="full" height="256" version="1.1" width="256" xmlns="http://www.w3.org/2000/svg" xmlns:ev="http://www.w3.org/2001/xml-events" xmlns:xlink="http://www.w3.org/1999/xlink"><defs /><path d="M1228 192 995 144V143L1070 -82L844 -7H843L796 -241L638 -62H637L479 -241L432 -8L431 -7L205 -82L280 144L47 192L225 350L47 508L279 556Q280 556 280.0 556.5Q280 557 280 557L205 782L431 707Q431 707 431.0 707.0Q431 707 432 707L479 941L637 762H638L796 941L843 708L845 707L1070 782L995 557V556L1228 508L1052 352Q1051 351 1051.0 350.0Q1051 349 1051 349Z" fill="#000000" stroke="none" transform="scale(1,-1) translate(0,-256)" /><path d="M1035.5613555908203 350.0126190185547Q1035.5613555908203 432.1061248779297 1004.7762908935547 504.2917938232422Q973.9912261962891 576.4774627685547 919.1442718505859 631.3244171142578Q864.2973175048828 686.1713714599609 792.1116485595703 717.3102874755859Q719.9259796142578 748.4492034912109 637.8324737548828 748.4492034912109Q555.0312652587891 748.4492034912109 482.84559631347656 717.3102874755859Q410.65992736816406 686.1713714599609 355.81297302246094 631.3244171142578Q300.9660186767578 576.4774627685547 270.1809539794922 504.2917938232422Q239.39588928222656 432.1061248779297 239.39588928222656 350.0126190185547Q239.39588928222656 267.9191131591797 270.1809539794922 195.7334442138672Q300.9660186767578 123.54777526855469 355.81297302246094 68.70082092285156Q410.65992736816406 13.853866577148438 482.84559631347656 -16.931198120117188Q555.0312652587891 -47.71626281738281 637.8324737548828 -47.71626281738281Q719.9259796142578 -47.71626281738281 792.1116485595703 -16.931198120117188Q864.2973175048828 13.853866577148438 919.1442718505859 68.70082092285156Q973.9912261962891 123.54777526855469 1004.7762908935547 195.7334442138672Q1035.5613555908203 267.9191131591797 1035.5613555908203 350.0126190185547Z" fill="#000000" stroke="none" transform="scale(1,-1) translate(0,-256)" /><path d="M-362.5770263671875 451.6376037597656Q-361.91571044921875 481.4060516357422 -334.7493896484375 501.960205078125Q-307.58306884765625 522.5143585205078 -270.0277099609375 521.4429321289062Q-231.16851806640625 520.8859252929688 -203.84005737304688 499.51256561279297Q-176.5115966796875 478.1392059326172 -177.17291259765625 448.3707580566406Q-176.91510009765625 418.2083435058594 -204.3486328125 398.3053665161133Q-231.78216552734375 378.4023895263672 -269.72222900390625 378.5654296875Q-308.5814208984375 379.1224365234375 -335.4503173828125 400.29881286621094Q-362.3192138671875 421.4751892089844 -362.5770263671875 451.6376037597656Z" fill="#000000" stroke="none" transform="scale(1,-1) translate(0,-256)" /><path d="M1637.5770263671875 451.6376037597656Q1636.9157104492188 481.4060516357422 1609.7493896484375 501.960205078125Q1582.5830688476562 522.5143585205078 1545.0277099609375 521.4429321289062Q1506.1685180664062 520.8859252929688 1478.8400573730469 499.51256561279297Q1451.5115966796875 478.1392059326172 1452.1729125976562 448.3707580566406Q1451.9151000976562 418.2083435058594 1479.3486328125 398.3053665161133Q1506.7821655273438 378.4023895263672 1544.7222290039062 378.5654296875Q1583.5814208984375 379.1224365234375 1610.4503173828125 400.29881286621094Q1637.3192138671875 421.4751892089844 1637.5770263671875 451.6376037597656Z" fill="#000000" stroke="none" transform="scale(1,-1) translate(0,-256)" /></svg>