<?xml version="1.0" encoding="utf-8" ?>
<svg baseProfile="full" height="256" version="1.1" width="256" xmlns="http://www.w3.org/2000/svg" xmlns:ev="http://www.w3.org/2001/xml-events" xmlns:xlink="http://www.w3.org/1999/xlink"><defs /><path d="M393 246Q393 246 401.5 239.5Q410 233 419.0 226.0Q428 219 430 218Q431 217 440.5 193.0Q450 169 463.5 134.5Q477 100 490.5 65.5Q504 31 513.0 7.5Q522 -16 522 -16Q522 -16 550.5 -12.5Q579 -9 618 3Q649 13 699.0 27.5Q749 42 800 50Q861 59 928.0 66.0Q995 73 1056 97Q1105 115 1138.0 138.0Q1171 161 1187.5 180.0Q1204 199 1202 208Q1199 219 1179.0 224.0Q1159 229 1138 235Q1118 240 1110.0 252.5Q1102 265 1100 280Q1098 294 1106.0 315.5Q1114 337 1124.5 360.0Q1135 383 1140.0 402.0Q1145 421 1136 428Q1127 437 1113.5 432.5Q1100 428 1076.0 418.5Q1052 409 1011.0 399.5Q970 390 905 389Q855 388 795.0 388.0Q735 388 667.5 379.5Q600 371 528 345Q481 328 451.0 304.5Q421 281 407.0 263.5Q393 246 393 246Z" fill="#f26d31" stroke="none" transform="scale(1,-1) translate(0,-256)" /><path d="M347 94Q341 118 339.5 144.5Q338 171 344.5 191.5Q351 212 368 217Q397 223 419.0 196.0Q441 169 453 120Q466 69 459.5 37.5Q453 6 431 1Q415 -3 398.0 10.0Q381 23 367.0 45.5Q353 68 347 94Z" fill="#f26d31" stroke="none" transform="scale(1,-1) translate(0,-256)" /><path d="M494 182Q509 182 513.5 167.5Q518 153 527 140Q536 127 549.5 118.0Q563 109 563 109Q563 109 564.5 98.5Q566 88 571 69Q574 55 577.0 44.0Q580 33 576 31Q572 28 564.0 32.0Q556 36 550 43Q538 56 534.0 71.5Q530 87 530 87Q530 87 517.0 93.5Q504 100 492 120Q485 130 482.0 144.5Q479 159 481.5 170.5Q484 182 494 182Z" fill="#f26d31" stroke="none" transform="scale(1,-1) translate(0,-256)" /></svg>