<?xml version="1.0" encoding="utf-8" ?>
<svg baseProfile="full" height="256" version="1.1" width="256" xmlns="http://www.w3.org/2000/svg" xmlns:ev="http://www.w3.org/2001/xml-events" xmlns:xlink="http://www.w3.org/1999/xlink"><defs /><path d="M686 400H1068L1107 371H656V821L686 782Z" fill="#ffccbc" stroke="none" transform="scale(1,-1) translate(0,-256)" /><path d="M207 782V400H589V782H207ZM168 821H619V371H168Z" fill="#ffccbc" stroke="none" transform="scale(1,-1) translate(0,-256)" /><path d="M1068.0 -82.0V300.0H686.0V-82.0H1068.0ZM1107.0 -121.0H656.0V329.0H1107.0Z" fill="#ffccbc" stroke="none" transform="scale(1,-1) translate(0,-256)" /><path d="M589 159 619 190V-120L168 -121V329H618L589 300H207V-82H589Z" fill="#ffccbc" stroke="none" transform="scale(1,-1) translate(0,-256)" /></svg>