<?xml version="1.0" encoding="utf-8" ?>
<svg baseProfile="full" height="256" version="1.1" width="256" xmlns="http://www.w3.org/2000/svg" xmlns:ev="http://www.w3.org/2001/xml-events" xmlns:xlink="http://www.w3.org/1999/xlink"><defs /><path d="M497 417Q510 399 534 403Q549 405 558.0 416.5Q567 428 565 443Q565 443 564.5 443.5Q564 444 564 445Q564 446 563.5 447.5Q563 449 563 452Q562 454 561.0 457.5Q560 461 558 464Q555 472 551 480Q546 488 538.5 497.5Q531 507 519 516Q513 520 506.0 524.0Q499 528 491 531Q482 534 473 536Q470 536 468.0 536.5Q466 537 463 537L459 538H456H455H454H451L446 537Q446 537 441 537L436 536Q432 535 430.0 534.5Q428 534 426 534Q422 533 417 531Q409 528 402.0 524.0Q395 520 389 515Q377 506 369.5 497.0Q362 488 357 479Q352 471 349.5 464.0Q347 457 345 452Q344 447 343.5 444.5Q343 442 343 442Q339 422 357 409Q369 400 384.5 401.5Q400 403 409 415L411 417Q411 417 412.5 418.5Q414 420 416 423Q419 425 422.0 428.5Q425 432 428 436Q432 440 436 443Q439 445 444 448Q446 449 447.5 449.5Q449 450 450 450Q451 450 451 450Q452 450 452 450Q451 450 451 450Q451 450 450.5 450.0Q450 450 451 450L456 451Q453 450 454.0 450.0Q455 450 454 450L455 451Q455 451 455.0 450.5Q455 450 455 451Q457 450 457 450Q458 450 460.0 449.5Q462 449 463 448Q469 445 471 443Q474 441 479 436Q481 434 483.0 432.5Q485 431 486 429Q489 426 491 424Q494 420 495 419Q496 418 496.5 417.5Q497 417 497 417Z" fill="#422b0d" stroke="none" transform="scale(1,-1) translate(0,-256)" /><path d="M867 417Q880 399 904 403Q919 405 928.0 416.5Q937 428 935 443Q935 443 935.0 443.5Q935 444 934 445Q934 446 934.0 447.5Q934 449 933 452Q932 454 931.0 457.5Q930 461 928 464Q925 472 921 480Q916 488 908.5 497.5Q901 507 889 516Q883 520 876.0 524.0Q869 528 861 531Q853 534 843 536Q841 536 838.5 536.5Q836 537 834 537L829 538H827H825H822L816 537Q816 537 812 537L806 536Q803 535 800.5 534.5Q798 534 796 534Q792 533 788 531Q779 528 772.0 524.0Q765 520 759 515Q747 506 739.5 497.0Q732 488 727 479Q722 471 719.5 464.0Q717 457 716 452Q714 447 713.5 444.5Q713 442 713 442Q710 422 727 409Q739 400 754.5 401.5Q770 403 780 415L782 417Q782 417 783.0 418.5Q784 420 786 423Q789 425 792.0 428.5Q795 432 799 436Q803 440 807 443Q809 445 814 448Q816 449 817.5 449.5Q819 450 820 450Q821 450 822 450Q822 450 822 450Q822 450 821 450Q821 450 820.5 450.0Q820 450 821 450L827 451Q823 450 824.0 450.0Q825 450 824 450L825 451Q825 451 825.0 450.5Q825 450 826 451Q827 450 828 450Q829 450 830.5 449.5Q832 449 834 448Q839 445 842 443Q844 441 849 436Q851 434 853.0 432.5Q855 431 856 429Q859 426 861 424Q864 420 865 419Q866 418 866.5 417.5Q867 417 867 417Z" fill="#422b0d" stroke="none" transform="scale(1,-1) translate(0,-256)" /><path d="M639 69Q727 69 795.0 104.5Q863 140 901 184Q909 194 904 205Q899 217 886 217Q881 217 876 215Q836 192 773.0 169.0Q710 146 639 146H637Q566 146 503.0 169.0Q440 192 400 215Q396 217 390 217Q378 217 372 205Q367 194 375 184Q414 140 481.5 104.5Q549 69 638 69Z" fill="#422b0d" stroke="none" transform="scale(1,-1) translate(0,-256)" /></svg>