<?xml version="1.0" encoding="utf-8" ?>
<svg baseProfile="full" height="256" version="1.1" width="256" xmlns="http://www.w3.org/2000/svg" xmlns:ev="http://www.w3.org/2001/xml-events" xmlns:xlink="http://www.w3.org/1999/xlink"><defs /><path d="M634 -164Q742 -164 840.0 -128.5Q938 -93 1013 -28Q1093 44 1135.5 142.5Q1178 241 1178 360Q1178 479 1135.5 578.5Q1093 678 1013 749Q938 815 840.5 849.5Q743 884 634 884Q555 884 477.0 864.0Q399 844 329.5 803.5Q260 763 206.0 700.5Q152 638 121.0 553.0Q90 468 90 360Q90 252 121.0 167.5Q152 83 206.0 20.5Q260 -42 329.5 -83.0Q399 -124 477.0 -144.0Q555 -164 634 -164Z" fill="#000000" stroke="none" transform="scale(1,-1) translate(0,-256)" /><path d="M457.05572509765625 276.606201171875Q457.05572509765625 310.44366455078125 444.3666763305664 340.1972961425781Q431.67762756347656 369.950927734375 409.0707015991211 392.55785369873047Q386.4637756347656 415.16477966308594 356.71014404296875 427.9996795654297Q326.9565124511719 440.83457946777344 293.1190490722656 440.83457946777344Q258.98988342285156 440.83457946777344 229.2362518310547 427.9996795654297Q199.4826202392578 415.16477966308594 176.87569427490234 392.55785369873047Q154.26876831054688 369.950927734375 141.57971954345703 340.1972961425781Q128.8906707763672 310.44366455078125 128.8906707763672 276.606201171875Q128.8906707763672 242.76873779296875 141.57971954345703 213.01510620117188Q154.26876831054688 183.261474609375 176.87569427490234 160.65454864501953Q199.4826202392578 138.04762268066406 229.2362518310547 125.35857391357422Q258.98988342285156 112.66952514648438 293.1190490722656 112.66952514648438Q326.9565124511719 112.66952514648438 356.71014404296875 125.35857391357422Q386.4637756347656 138.04762268066406 409.0707015991211 160.65454864501953Q431.67762756347656 183.261474609375 444.3666763305664 213.01510620117188Q457.05572509765625 242.76873779296875 457.05572509765625 276.606201171875Z" fill="#000000" stroke="none" transform="scale(1,-1) translate(0,-256)" /><path d="M1146.1182250976562 276.606201171875Q1146.1182250976562 310.44366455078125 1133.4291763305664 340.1972961425781Q1120.7401275634766 369.950927734375 1098.133201599121 392.55785369873047Q1075.5262756347656 415.16477966308594 1045.7726440429688 427.9996795654297Q1016.0190124511719 440.83457946777344 982.1815490722656 440.83457946777344Q948.0523834228516 440.83457946777344 918.2987518310547 427.9996795654297Q888.5451202392578 415.16477966308594 865.9381942749023 392.55785369873047Q843.3312683105469 369.950927734375 830.642219543457 340.1972961425781Q817.9531707763672 310.44366455078125 817.9531707763672 276.606201171875Q817.9531707763672 242.76873779296875 830.642219543457 213.01510620117188Q843.3312683105469 183.261474609375 865.9381942749023 160.65454864501953Q888.5451202392578 138.04762268066406 918.2987518310547 125.35857391357422Q948.0523834228516 112.66952514648438 982.1815490722656 112.66952514648438Q1016.0190124511719 112.66952514648438 1045.7726440429688 125.35857391357422Q1075.5262756347656 138.04762268066406 1098.133201599121 160.65454864501953Q1120.7401275634766 183.261474609375 1133.4291763305664 213.01510620117188Q1146.1182250976562 242.76873779296875 1146.1182250976562 276.606201171875Z" fill="#000000" stroke="none" transform="scale(1,-1) translate(0,-256)" /></svg>