<?xml version="1.0" encoding="utf-8" ?>
<svg baseProfile="full" height="256" version="1.1" width="256" xmlns="http://www.w3.org/2000/svg" xmlns:ev="http://www.w3.org/2001/xml-events" xmlns:xlink="http://www.w3.org/1999/xlink"><defs /><path d="M450.375 566.0Q479.375 566.0 502.375 542.5Q525.375 519.0 525.375 478.0Q525.375 437.0 502.375 413.5Q479.375 390.0 450.375 390.0Q421.375 390.0 398.375 413.5Q375.375 437.0 375.375 478.0Q375.375 519.0 398.375 542.5Q421.375 566.0 450.375 566.0Z" fill="#422b0d" stroke="none" transform="scale(1,-1) translate(0,-256)" /><path d="M810 566Q839 566 862.0 542.5Q885 519 885 478Q885 437 862.0 413.5Q839 390 810 390Q781 390 758.0 413.5Q735 437 735 478Q735 519 758.0 542.5Q781 566 810 566Z" fill="#422b0d" stroke="none" transform="scale(1,-1) translate(0,-256)" /></svg>