<?xml version="1.0" encoding="utf-8" ?>
<svg baseProfile="full" height="256" version="1.1" width="256" xmlns="http://www.w3.org/2000/svg" xmlns:ev="http://www.w3.org/2001/xml-events" xmlns:xlink="http://www.w3.org/1999/xlink"><defs /><path d="M422 91Q421 105 418.5 118.5Q416 132 414 145Q409 180 415.5 215.0Q422 250 425 294Q429 334 432.5 373.5Q436 413 437 453Q437 476 432.5 500.0Q428 524 408 536Q394 543 379.0 545.5Q364 548 346 539Q325 528 315.5 502.0Q306 476 304.0 443.5Q302 411 304.0 380.0Q306 349 310 328Q323 234 314 140Q312 120 310.5 99.5Q309 79 315 60Q325 31 343.0 21.5Q361 12 380.0 18.0Q399 24 411.5 43.0Q424 62 422 91Z" fill="#ffffff" stroke="none" transform="scale(1,-1) translate(0,-256)" /></svg>