<?xml version="1.0" encoding="utf-8" ?>
<svg baseProfile="full" height="256" version="1.1" width="256" xmlns="http://www.w3.org/2000/svg" xmlns:ev="http://www.w3.org/2001/xml-events" xmlns:xlink="http://www.w3.org/1999/xlink"><defs /><path d="M1096 365Q1096 411 1060.5 451.5Q1025 492 962.0 523.0Q899 554 815.5 571.5Q732 589 638 589Q543 589 459.5 571.5Q376 554 313.0 523.0Q250 492 214.5 451.5Q179 411 179 365Q179 318 214.5 277.5Q250 237 313.0 206.0Q376 175 459.5 157.5Q543 140 638 140Q732 140 815.5 157.5Q899 175 962.0 206.0Q1025 237 1060.5 277.5Q1096 318 1096 365Z" fill="#000000" stroke="none" transform="scale(1,-1) translate(0,-256)" /></svg>