<?xml version="1.0" encoding="utf-8" ?>
<svg baseProfile="full" height="256" version="1.1" width="256" xmlns="http://www.w3.org/2000/svg" xmlns:ev="http://www.w3.org/2001/xml-events" xmlns:xlink="http://www.w3.org/1999/xlink"><defs /><path d="M794 274Q761 266 721.5 261.5Q682 257 638 257Q597 257 560.5 261.0Q524 265 492 272Q491 284 490.0 305.0Q489 326 488 336Q488 336 505.0 327.0Q522 318 555.5 309.0Q589 300 638 300Q686 300 722.0 311.0Q758 322 778.0 333.0Q798 344 798 344Q798 333 797.0 310.5Q796 288 794 274Z" fill="#c7c7c7" stroke="none" transform="scale(1,-1) translate(0,-256)" /></svg>