<?xml version="1.0" encoding="utf-8" ?>
<svg baseProfile="full" height="256" version="1.1" width="256" xmlns="http://www.w3.org/2000/svg" xmlns:ev="http://www.w3.org/2001/xml-events" xmlns:xlink="http://www.w3.org/1999/xlink"><defs /><path d="M633 137Q702 137 758.0 147.0Q814 157 853.5 169.5Q893 182 914.5 191.5Q936 201 936 202Q918 121 874.5 63.0Q831 5 770.0 -26.5Q709 -58 637 -58Q566 -58 505.0 -26.5Q444 5 400.5 63.0Q357 121 339 201Q339 201 359.0 191.5Q379 182 417.5 169.0Q456 156 510.5 146.5Q565 137 633 137Z" fill="#fafafa" stroke="none" transform="scale(1,-1) translate(0,-256)" /></svg>