<?xml version="1.0" encoding="utf-8" ?>
<svg baseProfile="full" height="256" version="1.1" width="256" xmlns="http://www.w3.org/2000/svg" xmlns:ev="http://www.w3.org/2001/xml-events" xmlns:xlink="http://www.w3.org/1999/xlink"><defs /><path d="M420 369 560 265Q560 265 574.5 246.0Q589 227 610.5 199.0Q632 171 652.5 142.5Q673 114 685.5 94.0Q698 74 695 73Q692 71 671.0 72.5Q650 74 632 75Q622 76 602.0 78.5Q582 81 555 72Q527 64 510.5 49.5Q494 35 494 35L364 145Q364 145 367.0 155.5Q370 166 373.5 180.5Q377 195 378 206Q380 222 373.5 239.0Q367 256 362 267Q355 283 346.0 299.0Q337 315 336 322Q335 326 347.5 333.5Q360 341 377.0 349.5Q394 358 407.0 363.5Q420 369 420 369Z" fill="#fdd083" stroke="none" transform="scale(1,-1) translate(0,-256)" /><path d="M422 178Q420 178 408.5 161.5Q397 145 379.5 119.5Q362 94 343 67Q319 35 297.0 4.5Q275 -26 260.0 -47.0Q245 -68 241 -73Q232 -84 227.5 -93.5Q223 -103 229 -113Q235 -123 250.0 -134.5Q265 -146 280 -156Q296 -166 309.5 -158.0Q323 -150 328 -142Q331 -138 347.5 -115.5Q364 -93 388.0 -59.5Q412 -26 436 9Q465 50 486.0 80.5Q507 111 506 112Q503 115 488.0 115.5Q473 116 452 129Q438 138 432.5 149.5Q427 161 425.5 169.5Q424 178 422 178Z" fill="#fdd083" stroke="none" transform="scale(1,-1) translate(0,-256)" /></svg>