<?xml version="1.0" encoding="utf-8" ?>
<svg baseProfile="full" height="256" version="1.1" width="256" xmlns="http://www.w3.org/2000/svg" xmlns:ev="http://www.w3.org/2001/xml-events" xmlns:xlink="http://www.w3.org/1999/xlink"><defs /><path d="M723 796Q723 796 745.5 793.5Q768 791 806.5 779.0Q845 767 893 739Q940 711 980.0 668.5Q1020 626 1048.0 580.5Q1076 535 1089 495Q1100 462 1103.0 424.5Q1106 387 1105.0 351.5Q1104 316 1101.5 289.5Q1099 263 1098 251Q1098 228 1103.0 200.5Q1108 173 1112 138Q1115 114 1112.0 88.5Q1109 63 1105.5 45.0Q1102 27 1102 27L887 -113L519 -75L300 20Q300 20 285.0 34.0Q270 48 249 80Q218 125 205.5 161.5Q193 198 188 220Q183 239 182.5 267.5Q182 296 183.5 324.0Q185 352 187.0 371.5Q189 391 189 391L557 799Q557 799 573.5 799.5Q590 800 614.0 800.0Q638 800 662.5 799.5Q687 799 704.0 798.5Q721 798 723 796Z" fill="#ff2a23" stroke="none" transform="scale(1,-1) translate(0,-256)" /></svg>