<?xml version="1.0" encoding="utf-8" ?>
<svg baseProfile="full" height="256" version="1.1" width="256" xmlns="http://www.w3.org/2000/svg" xmlns:ev="http://www.w3.org/2001/xml-events" xmlns:xlink="http://www.w3.org/1999/xlink"><defs /><path d="M667 -147Q637 -139 610.0 -137.0Q583 -135 550 -127Q528 -122 495.0 -111.5Q462 -101 410 -71Q364 -45 333.0 -17.0Q302 11 286.0 31.0Q270 51 270 51Q270 51 292.0 40.0Q314 29 347.5 13.5Q381 -2 417.5 -16.5Q454 -31 484 -38Q544 -53 605.5 -53.5Q667 -54 751 -51Q807 -49 861.0 -33.5Q915 -18 957.5 3.0Q1000 24 1024 44Q1047 63 1066.5 92.0Q1086 121 1097.0 143.5Q1108 166 1108 166Q1108 166 1111.5 152.5Q1115 139 1119.0 121.0Q1123 103 1124 92Q1127 74 1131.5 39.5Q1136 5 1132 -36Q1130 -66 1108.0 -100.0Q1086 -134 1040 -168Q990 -207 943.5 -212.0Q897 -217 864 -212Q842 -209 805.5 -195.5Q769 -182 731.0 -167.5Q693 -153 667 -147Z" fill="#dc0d27" stroke="none" transform="scale(1,-1) translate(0,-256)" /><path d="M374 640 661 808Q661 808 679.5 805.5Q698 803 722.5 799.5Q747 796 764 792Q789 786 808.0 779.0Q827 772 827 772Q827 772 816.0 758.5Q805 745 795 734Q788 727 777.0 717.0Q766 707 757.0 700.0Q748 693 748 693Q748 693 761.5 681.0Q775 669 787 650Q800 631 808.5 607.5Q817 584 815 579Q810 570 774 536Q762 524 744.0 513.0Q726 502 712.0 494.5Q698 487 698 487Q698 487 700.0 474.0Q702 461 702 450Q702 439 701.0 417.0Q700 395 695 376Q691 358 686.5 339.0Q682 320 678 316Q674 312 655.0 308.5Q636 305 586 303Q536 302 512.0 309.0Q488 316 488 316Q488 316 483.5 303.5Q479 291 471.5 274.5Q464 258 454 246Q443 234 426.5 220.5Q410 207 394.0 198.0Q378 189 369 189Q362 189 350.5 201.0Q339 213 326.5 228.0Q314 243 305.5 254.5Q297 266 297 266Q297 266 288.0 259.0Q279 252 266 243Q238 225 213.5 221.0Q189 217 189 217Q189 217 183.5 240.5Q178 264 180 305Q180 317 194.0 346.0Q208 375 230.5 413.0Q253 451 277.5 490.5Q302 530 324.0 564.0Q346 598 360.0 619.0Q374 640 374 640Z" fill="#dc0d27" stroke="none" transform="scale(1,-1) translate(0,-256)" /></svg>