<?xml version="1.0" encoding="utf-8" ?>
<svg baseProfile="full" height="256" version="1.1" width="256" xmlns="http://www.w3.org/2000/svg" xmlns:ev="http://www.w3.org/2001/xml-events" xmlns:xlink="http://www.w3.org/1999/xlink"><defs /><path d="M317 702Q249 640 210.5 570.0Q172 500 151 436Q137 394 133.5 360.5Q130 327 131.5 307.5Q133 288 133 288Q133 288 142.5 300.0Q152 312 163 321Q174 330 194.5 339.0Q215 348 230 362Q241 372 247.5 385.5Q254 399 259.5 409.0Q265 419 274 418Q284 417 286.5 403.0Q289 389 289.5 369.5Q290 350 291 331Q293 303 301.0 291.5Q309 280 317 267Q323 258 333.0 246.5Q343 235 351.0 226.5Q359 218 359 218Q359 218 365.0 222.0Q371 226 380.5 241.0Q390 256 401 289Q411 316 412.0 341.0Q413 366 412.0 385.0Q411 404 414.0 416.0Q417 428 430 431Q443 433 452.5 424.0Q462 415 474.5 402.0Q487 389 512 380Q528 375 552.0 373.5Q576 372 595.0 373.0Q614 374 614 374Q614 374 613.0 402.5Q612 431 605 466Q600 489 590.0 509.5Q580 530 573.0 545.5Q566 561 572 569Q578 577 587.5 575.5Q597 574 612.5 569.0Q628 564 652 564Q675 563 702.0 572.5Q729 582 747.5 593.0Q766 604 764 608Q762 613 753.5 620.0Q745 627 729 640Q714 654 694.0 667.0Q674 680 657 689Q640 698 626.5 702.0Q613 706 612 717Q612 726 622.5 733.0Q633 740 642 746Q649 749 661.5 756.0Q674 763 699 780Q725 796 746.5 807.0Q768 818 769 820Q771 822 759.5 825.5Q748 829 733.0 832.0Q718 835 710 836Q698 838 651.0 841.5Q604 845 532 826Q460 808 410.5 775.5Q361 743 317 702Z" fill="#98b715" stroke="none" transform="scale(1,-1) translate(0,-256)" /><path d="M206 884Q204 877 201.0 856.5Q198 836 200.5 805.0Q203 774 218 735Q233 696 258.0 669.5Q283 643 303.5 629.0Q324 615 324 615Q324 615 332.5 627.0Q341 639 352.5 656.5Q364 674 373.0 691.5Q382 709 383.5 720.5Q385 732 373 732Q344 731 327.5 744.5Q311 758 296 785Q285 805 284.0 831.0Q283 857 285.0 877.5Q287 898 285 902Q283 907 282.5 911.0Q282 915 267 916Q258 916 244.0 910.0Q230 904 218.5 896.0Q207 888 206 884Z" fill="#98b715" stroke="none" transform="scale(1,-1) translate(0,-256)" /></svg>