<?xml version="1.0" encoding="utf-8" ?>
<svg baseProfile="full" height="256" version="1.1" width="256" xmlns="http://www.w3.org/2000/svg" xmlns:ev="http://www.w3.org/2001/xml-events" xmlns:xlink="http://www.w3.org/1999/xlink"><defs /><path d="M401 242Q401 242 386.5 228.5Q372 215 350.5 196.0Q329 177 307.5 159.5Q286 142 271.5 134.0Q257 126 257 135Q257 158 265.5 184.0Q274 210 282.5 232.0Q291 254 292 266Q295 293 296.0 327.5Q297 362 298 388Q299 406 301.0 431.0Q303 456 304.5 475.0Q306 494 306 494Q306 494 291.5 492.0Q277 490 243 494Q230 496 213.0 501.0Q196 506 181 516Q156 533 136.5 562.0Q117 591 103.5 621.0Q90 651 83.5 673.0Q77 695 78 697Q78 700 100.5 714.0Q123 728 160.5 738.5Q198 749 245 745Q293 740 328.0 722.5Q363 705 382.0 688.5Q401 672 401 672Q401 672 409.5 677.5Q418 683 428.5 689.5Q439 696 446 700Q463 708 485.0 715.5Q507 723 526.0 726.5Q545 730 553 728Q559 726 579.5 715.0Q600 704 623.5 679.5Q647 655 663.0 614.0Q679 573 676 511Q672 449 651.5 407.0Q631 365 604.0 338.5Q577 312 554.0 298.5Q531 285 523 281Q513 276 493.5 269.5Q474 263 452.5 256.5Q431 250 416.0 246.0Q401 242 401 242Z" fill="#bc8954" stroke="none" transform="scale(1,-1) translate(0,-256)" /></svg>