<?xml version="1.0" encoding="utf-8" ?>
<svg baseProfile="full" height="256" version="1.1" width="256" xmlns="http://www.w3.org/2000/svg" xmlns:ev="http://www.w3.org/2001/xml-events" xmlns:xlink="http://www.w3.org/1999/xlink"><defs /><path d="M723 17Q730 12 744.5 10.0Q759 8 771 19Q783 30 789.5 42.0Q796 54 805 59Q814 64 827.0 65.5Q840 67 851 75Q862 84 869.5 97.0Q877 110 867 130Q863 141 846.0 147.0Q829 153 805.5 150.0Q782 147 758 130Q734 113 721.5 91.0Q709 69 709.0 48.5Q709 28 723 17Z" fill="#2e2f31" stroke="none" transform="scale(1,-1) translate(0,-256)" /><path d="M417 126Q414 113 417.5 100.5Q421 88 435 80Q449 72 462.0 68.0Q475 64 483 57Q491 50 496.5 42.5Q502 35 512 26Q522 17 538.0 13.0Q554 9 571 24Q586 37 578.0 69.5Q570 102 534 130Q511 147 485.5 153.0Q460 159 440.5 152.5Q421 146 417 126Z" fill="#2e2f31" stroke="none" transform="scale(1,-1) translate(0,-256)" /></svg>