<?xml version="1.0" encoding="utf-8" ?>
<svg baseProfile="full" height="256" version="1.1" width="256" xmlns="http://www.w3.org/2000/svg" xmlns:ev="http://www.w3.org/2001/xml-events" xmlns:xlink="http://www.w3.org/1999/xlink"><defs /><path d="M735.8772583007812 -99.90457153320312Q735.8772583007812 -76.65475463867188 727.158576965332 -56.31116485595703Q718.4398956298828 -35.96757507324219 702.9787673950195 -20.506446838378906Q687.5176391601562 -5.045318603515625 667.1740493774414 3.6733627319335938Q646.8304595947266 12.392044067382812 623.34814453125 12.392044067382812Q600.0983276367188 12.392044067382812 579.7547378540039 3.6733627319335938Q559.4111480712891 -5.045318603515625 543.9500198364258 -20.506446838378906Q528.4888916015625 -35.96757507324219 519.7702102661133 -56.31116485595703Q511.05152893066406 -76.65475463867188 511.05152893066406 -99.90457153320312Q511.05152893066406 -123.38688659667969 519.7702102661133 -143.73047637939453Q528.4888916015625 -164.07406616210938 543.9500198364258 -179.53519439697266Q559.4111480712891 -194.99632263183594 579.7547378540039 -203.71500396728516Q600.0983276367188 -212.43368530273438 623.34814453125 -212.43368530273438Q646.8304595947266 -212.43368530273438 667.1740493774414 -203.71500396728516Q687.5176391601562 -194.99632263183594 702.9787673950195 -179.53519439697266Q718.4398956298828 -164.07406616210938 727.158576965332 -143.73047637939453Q735.8772583007812 -123.38688659667969 735.8772583007812 -99.90457153320312Z" fill="#bdbdbd" stroke="none" transform="scale(1,-1) translate(0,-256)" /><path d="M470 722Q510 757 575 759Q592 759 608 756Q564 749 534 722Q504 693 497 653Q495 639 484.5 631.0Q474 623 460 623H396Q409 623 419.5 631.0Q430 639 432 653Q441 694 470 722Z" fill="#bdbdbd" stroke="none" transform="scale(1,-1) translate(0,-256)" /><path d="M877 836Q960 759 962 620Q962 496 848 377L756 287Q755 286 754.5 285.5Q754 285 753 284Q711 235 704 154Q703 140 692.0 130.0Q681 120 667 120H602Q617 120 627.5 130.0Q638 140 639 154Q648 237 688 284Q689 285 689.5 285.5Q690 286 691 287L783 377Q897 497 897 620Q897 759 812 836Q736 905 608 912Q615 912 623.0 912.5Q631 913 639 913Q791 913 877 836Z" fill="#bdbdbd" stroke="none" transform="scale(1,-1) translate(0,-256)" /></svg>