<?xml version="1.0" encoding="utf-8" ?>
<svg baseProfile="full" height="256" version="1.1" width="256" xmlns="http://www.w3.org/2000/svg" xmlns:ev="http://www.w3.org/2001/xml-events" xmlns:xlink="http://www.w3.org/1999/xlink"><defs /><path d="M720 565H738Q741 565 742.5 568.0Q744 571 740 577Q737 581 723.5 602.0Q710 623 697.5 654.0Q685 685 685 718Q685 740 691.0 770.5Q697 801 717 834Q720 838 719 841Q700 834 689 816Q674 791 668.0 766.5Q662 742 662 718Q661 676 674.5 643.0Q688 610 720 565Z" fill="#b55e19" stroke="none" transform="scale(1,-1) translate(0,-256)" /><path d="M489 390Q494 390 497.0 390.0Q500 390 500 390Q500 390 513.5 390.0Q527 390 543.0 389.5Q559 389 567 388Q576 388 576.0 396.5Q576 405 568 405Q566 405 542.5 406.5Q519 408 481.5 410.5Q444 413 401.5 416.0Q359 419 318.0 421.5Q277 424 246.5 426.0Q216 428 203 429Q166 431 148.0 446.5Q130 462 125 473Q120 482 114 482Q113 453 134.0 428.0Q155 403 198 402Q202 402 225.5 401.0Q249 400 283.5 398.5Q318 397 356.5 395.0Q395 393 430.0 391.5Q465 390 489 390Z" fill="#b55e19" stroke="none" transform="scale(1,-1) translate(0,-256)" /><path d="M461 308Q465 290 481.5 274.0Q498 258 529 250Q529 250 537.0 249.5Q545 249 554.0 249.0Q563 249 566 249Q578 249 577.5 261.5Q577 274 567 274Q525 273 501.5 282.0Q478 291 468 305Q465 309 461 308Z" fill="#b55e19" stroke="none" transform="scale(1,-1) translate(0,-256)" /><path d="M496 168Q501 149 518.0 133.0Q535 117 568 112Q568 112 575.5 111.5Q583 111 591 111Q602 111 602.5 123.0Q603 135 593 135Q549 137 530.5 143.0Q512 149 502 163Q499 167 496 168Z" fill="#b55e19" stroke="none" transform="scale(1,-1) translate(0,-256)" /><path d="M1179 67Q1167 69 1153.0 70.5Q1139 72 1134 73Q1127 74 1105.0 75.0Q1083 76 1057 59Q1039 49 1013.0 38.5Q987 28 963.5 20.0Q940 12 929 10Q890 1 842.5 -3.0Q795 -7 750.0 -6.5Q705 -6 671.0 -3.5Q637 -1 624 3Q592 13 576.0 25.0Q560 37 554 44Q551 49 547 49Q551 29 569.5 9.5Q588 -10 624 -21Q654 -31 700.5 -34.5Q747 -38 800.5 -35.0Q854 -32 907.0 -23.5Q960 -15 1002 0Q1026 9 1041.5 17.0Q1057 25 1069 31Q1088 42 1105.0 48.0Q1122 54 1159 53Q1172 53 1179 67Z" fill="#b55e19" stroke="none" transform="scale(1,-1) translate(0,-256)" /></svg>