<?xml version="1.0" encoding="utf-8" ?>
<svg baseProfile="full" height="256" version="1.1" width="256" xmlns="http://www.w3.org/2000/svg" xmlns:ev="http://www.w3.org/2001/xml-events" xmlns:xlink="http://www.w3.org/1999/xlink"><defs /><path d="M611 652Q613 649 611 647Q610 645 606 646Q604 647 600.5 648.0Q597 649 590 650Q584 649 580.5 648.0Q577 647 575 646Q571 645 569 647Q568 650 570 652Q572 654 576.5 657.0Q581 660 590 660Q599 660 604.0 657.0Q609 654 611 652Z" fill="#6d4c41" stroke="none" transform="scale(1,-1) translate(0,-256)" /><path d="M705 652Q707 649 706 647Q704 645 700 646Q698 647 694.5 648.0Q691 649 685 650Q678 649 674.5 648.0Q671 647 669 646Q665 645 664 647Q662 650 664 652Q666 654 670.5 657.0Q675 660 685 660Q694 660 698.5 657.0Q703 654 705 652Z" fill="#6d4c41" stroke="none" transform="scale(1,-1) translate(0,-256)" /></svg>