<?xml version="1.0" encoding="utf-8" ?>
<svg baseProfile="full" height="256" version="1.1" width="256" xmlns="http://www.w3.org/2000/svg" xmlns:ev="http://www.w3.org/2001/xml-events" xmlns:xlink="http://www.w3.org/1999/xlink"><defs /><path d="M644 14Q685 15 704.0 9.5Q723 4 728.5 -5.0Q734 -14 733 -25Q732 -51 715.0 -73.5Q698 -96 647 -97Q596 -97 577.5 -75.5Q559 -54 557 -25Q555 -7 570.0 1.5Q585 10 606.0 12.0Q627 14 644 14Z" fill="#2d2a25" stroke="none" transform="scale(1,-1) translate(0,-256)" /><path d="M841 259Q850 288 840.5 309.5Q831 331 809 336Q787 340 766.5 328.0Q746 316 742 286Q737 254 746.0 232.5Q755 211 777 207Q799 202 816.5 220.0Q834 238 841 259Z" fill="#2d2a25" stroke="none" transform="scale(1,-1) translate(0,-256)" /><path d="M540 282Q534 312 514.5 325.5Q495 339 473 332Q451 325 440.0 307.5Q429 290 438 256Q447 224 469.5 213.5Q492 203 513 210Q535 217 539.5 239.0Q544 261 540 282Z" fill="#2d2a25" stroke="none" transform="scale(1,-1) translate(0,-256)" /></svg>