<?xml version="1.0" encoding="utf-8" ?>
<svg baseProfile="full" height="256" version="1.1" width="256" xmlns="http://www.w3.org/2000/svg" xmlns:ev="http://www.w3.org/2001/xml-events" xmlns:xlink="http://www.w3.org/1999/xlink"><defs /><path d="M468 41Q471 52 463.5 58.5Q456 65 449 70Q444 73 429.0 79.5Q414 86 397.0 92.5Q380 99 368 103Q351 108 334.0 112.0Q317 116 315 106Q314 95 328.5 89.5Q343 84 359 76Q378 67 398.5 55.5Q419 44 432 38Q444 31 454.5 32.5Q465 34 468 41Z" fill="#ffffff" stroke="none" transform="scale(1,-1) translate(0,-256)" /><path d="M377 31Q389 27 404.5 22.0Q420 17 430.0 9.5Q440 2 436 -8Q432 -20 419.5 -19.5Q407 -19 392.0 -12.0Q377 -5 366 2Q353 9 338.0 15.0Q323 21 312.5 26.5Q302 32 303 39Q304 47 317.0 46.0Q330 45 347.0 40.0Q364 35 377 31Z" fill="#ffffff" stroke="none" transform="scale(1,-1) translate(0,-256)" /><path d="M825 39Q820 50 827.5 58.0Q835 66 847.0 72.0Q859 78 868 82Q888 92 909.5 98.0Q931 104 945 107Q955 109 965.5 108.0Q976 107 978 101Q979 96 974.0 92.5Q969 89 960 86Q952 84 927.5 73.5Q903 63 882 52Q863 42 846.5 34.5Q830 27 825 39Z" fill="#ffffff" stroke="none" transform="scale(1,-1) translate(0,-256)" /><path d="M855 -12Q851 1 861.5 10.0Q872 19 888.0 24.5Q904 30 915 33Q923 35 940.5 39.0Q958 43 974.0 43.5Q990 44 992 37Q994 31 982.5 24.5Q971 18 955.5 12.0Q940 6 929 2Q918 -3 901.5 -10.0Q885 -17 871.0 -19.5Q857 -22 855 -12Z" fill="#ffffff" stroke="none" transform="scale(1,-1) translate(0,-256)" /></svg>