<?xml version="1.0" encoding="utf-8" ?>
<svg baseProfile="full" height="256" version="1.1" width="256" xmlns="http://www.w3.org/2000/svg" xmlns:ev="http://www.w3.org/2001/xml-events" xmlns:xlink="http://www.w3.org/1999/xlink"><defs /><path d="M334 878Q347 881 375.0 863.5Q403 846 428 825Q456 800 477.0 777.0Q498 754 498 754Q498 754 478.0 750.0Q458 746 429.0 738.0Q400 730 372 720Q344 710 317.0 693.5Q290 677 272.0 664.0Q254 651 254 651Q254 651 256.5 670.0Q259 689 263.0 714.0Q267 739 273 758Q288 811 304.0 842.5Q320 874 334 878Z" fill="#575a5b" stroke="none" transform="scale(1,-1) translate(0,-256)" /><path d="M978 871Q996 866 1009.5 839.0Q1023 812 1034 770Q1041 743 1044.0 715.5Q1047 688 1048.0 670.0Q1049 652 1049 652Q1049 652 1020.5 669.5Q992 687 947 710Q916 726 887.0 733.0Q858 740 838.5 742.0Q819 744 819 744Q819 744 828.5 756.0Q838 768 853.0 785.5Q868 803 884 819Q909 842 938.5 857.5Q968 873 978 871Z" fill="#575a5b" stroke="none" transform="scale(1,-1) translate(0,-256)" /></svg>