<?xml version="1.0" encoding="utf-8" ?>
<svg baseProfile="full" height="256" version="1.1" width="256" xmlns="http://www.w3.org/2000/svg" xmlns:ev="http://www.w3.org/2001/xml-events" xmlns:xlink="http://www.w3.org/1999/xlink"><defs /><path d="M760.0577697753906 687.1149444580078Q760.0577697753906 746.6230010986328 717.9917297363281 787.6630401611328Q675.9256896972656 828.7030792236328 618.4696350097656 828.7030792236328Q561.0135803222656 828.7030792236328 519.9735412597656 787.6630401611328Q478.9335021972656 746.6230010986328 478.9335021972656 687.1149444580078Q478.9335021972656 629.6588897705078 519.9735412597656 588.6188507080078Q561.0135803222656 547.5788116455078 618.4696350097656 547.5788116455078Q675.9256896972656 547.5788116455078 717.9917297363281 588.6188507080078Q760.0577697753906 629.6588897705078 760.0577697753906 687.1149444580078Z" fill="#ffffff" stroke="none" transform="scale(1,-1) translate(0,-256)" /><path d="M1006 499Q1021 482 1018.5 460.0Q1016 438 999 424L901 352Q888 342 872 342Q860 342 838.0 348.5Q816 355 798.0 361.5Q780 368 780 368Q776 369 772.5 366.5Q769 364 769 360V311Q769 302 760 302H477Q468 302 468 311V360Q468 364 464.5 366.5Q461 369 457 368Q457 368 439.0 361.5Q421 355 399.5 348.5Q378 342 366 342Q350 342 337 352L239 425Q221 438 218.5 460.0Q216 482 232 499Q245 513 265.0 514.5Q285 516 300 504Q315 493 333.0 480.0Q351 467 362 458Q374 449 387 455Q417 468 457.0 485.5Q497 503 522 513Q524 514 526.0 514.5Q528 515 529 516Q547 521 568.5 523.5Q590 526 608 528Q613 528 619 528Q625 528 629 528Q648 526 669.5 523.5Q691 521 708 516Q710 515 712.0 514.5Q714 514 715 513Q740 503 780.0 485.5Q820 468 850 455Q864 449 875 458L937 504Q953 516 973.0 514.5Q993 513 1006 499Z" fill="#ffffff" stroke="none" transform="scale(1,-1) translate(0,-256)" /><path d="M776 219 696 108Q686 94 669 94H569Q552 94 542 108L454 230Q452 235 452 240V256Q452 270 465 272H773Q786 270 786 256V240Q786 232 781 226Z" fill="#ffffff" stroke="none" transform="scale(1,-1) translate(0,-256)" /><path d="M375 153Q375 153 382.5 160.5Q390 168 399.5 177.0Q409 186 416.0 193.5Q423 201 423 201Q431 209 438 200L498 118Q502 111 497 106L489 96L552 32Q570 15 571.0 -10.0Q572 -35 556 -53Q538 -72 512.5 -72.0Q487 -72 469 -54L375 40Q352 64 352.0 97.0Q352 130 375 153Z" fill="#ffffff" stroke="none" transform="scale(1,-1) translate(0,-256)" /><path d="M862.5 153.0Q862.5 153.0 855.0 160.5Q847.5 168.0 838.0 177.0Q828.5 186.0 821.5 193.5Q814.5 201.0 814.5 201.0Q806.5 209.0 799.5 200.0L739.5 118.0Q735.5 111.0 740.5 106.0L748.5 96.0L685.5 32.0Q667.5 15.0 666.5 -10.0Q665.5 -35.0 681.5 -53.0Q699.5 -72.0 725.0 -72.0Q750.5 -72.0 768.5 -54.0L862.5 40.0Q885.5 64.0 885.5 97.0Q885.5 130.0 862.5 153.0Z" fill="#ffffff" stroke="none" transform="scale(1,-1) translate(0,-256)" /></svg>