<?xml version="1.0" encoding="utf-8" ?>
<svg baseProfile="full" height="256" version="1.1" width="256" xmlns="http://www.w3.org/2000/svg" xmlns:ev="http://www.w3.org/2001/xml-events" xmlns:xlink="http://www.w3.org/1999/xlink"><defs /><path d="M352 104Q352 116 345.5 125.0Q339 134 326 134Q314 134 306.0 125.0Q298 116 298 104Q298 79 321 77Q335 76 343.5 84.5Q352 93 352 104Z" fill="#141414" stroke="none" transform="scale(1,-1) translate(0,-256)" /><path d="M219 161Q219 172 213.5 180.0Q208 188 194 187Q176 185 176 160Q176 137 193 135Q204 133 211.5 141.5Q219 150 219 161Z" fill="#141414" stroke="none" transform="scale(1,-1) translate(0,-256)" /><path d="M209 234Q208 235 205.5 243.0Q203 251 205.5 260.5Q208 270 220 275Q232 280 240.0 274.5Q248 269 251.5 261.5Q255 254 254 252Q254 250 247.5 248.0Q241 246 233 243Q225 240 217.5 236.5Q210 233 209 234Z" fill="#141414" stroke="none" transform="scale(1,-1) translate(0,-256)" /><path d="M403 169Q403 167 408.0 160.5Q413 154 417 147Q422 137 425.5 128.5Q429 120 431 119Q433 119 440.5 124.5Q448 130 452.5 140.5Q457 151 450 164Q444 178 432.5 179.0Q421 180 412.0 176.0Q403 172 403 169Z" fill="#141414" stroke="none" transform="scale(1,-1) translate(0,-256)" /></svg>