<?xml version="1.0" encoding="utf-8" ?>
<svg baseProfile="full" height="256" version="1.1" width="256" xmlns="http://www.w3.org/2000/svg" xmlns:ev="http://www.w3.org/2001/xml-events" xmlns:xlink="http://www.w3.org/1999/xlink"><defs /><path d="M673 331 902 -16Q908 -25 901.5 -34.5Q895 -44 883 -44H400Q387 -44 381.0 -34.5Q375 -25 381 -16L610 331H401Q395 331 389 334Q382 338 380.0 345.5Q378 353 382 360L623 734Q625 738 629 740Q637 746 646.0 744.0Q655 742 661 734L901 360Q904 355 903 348Q902 340 896.0 335.0Q890 330 882 331Z" fill="#fafafa" stroke="none" transform="scale(1,-1) translate(0,-256)" /></svg>