<?xml version="1.0" encoding="utf-8" ?>
<svg baseProfile="full" height="256" version="1.1" width="256" xmlns="http://www.w3.org/2000/svg" xmlns:ev="http://www.w3.org/2001/xml-events" xmlns:xlink="http://www.w3.org/1999/xlink"><defs /><path d="M659 287 663 309 721 304Q721 304 735.5 293.0Q750 282 768.0 269.0Q786 256 795 250Q803 245 817.5 235.5Q832 226 845.5 217.0Q859 208 866 205Q876 199 890.5 192.5Q905 186 902 174Q899 161 887.5 158.0Q876 155 868 154Q863 152 841.5 146.5Q820 141 794.5 134.5Q769 128 751 124Q734 120 711.5 114.5Q689 109 671.0 104.0Q653 99 649 96Q645 94 647.0 77.0Q649 60 649 44Q649 29 634.5 17.0Q620 5 594 18Q568 30 566.0 46.0Q564 62 568 71Q571 77 579.5 89.5Q588 102 598.0 114.0Q608 126 617 131Q629 138 656.5 142.5Q684 147 707 152Q725 156 751.5 161.5Q778 167 800.5 172.5Q823 178 830 181Q833 182 816.5 193.0Q800 204 774.0 220.0Q748 236 721.5 251.0Q695 266 677.0 276.5Q659 287 659 287Z" fill="#f2478d" stroke="none" transform="scale(1,-1) translate(0,-256)" /><path d="M425 885Q425 885 429.0 872.5Q433 860 432 838Q431 825 422.5 810.0Q414 795 414 795Q414 795 410.0 795.5Q406 796 399 797Q394 797 386.0 796.5Q378 796 359 794Q339 791 323.5 785.5Q308 780 308 780L310 809L376 883Z" fill="#f2478d" stroke="none" transform="scale(1,-1) translate(0,-256)" /></svg>