<?xml version="1.0" encoding="utf-8" ?>
<svg baseProfile="full" height="256" version="1.1" width="256" xmlns="http://www.w3.org/2000/svg" xmlns:ev="http://www.w3.org/2001/xml-events" xmlns:xlink="http://www.w3.org/1999/xlink"><defs /><path d="M413 137Q413 137 429.0 142.5Q445 148 468.0 155.5Q491 163 514.0 172.5Q537 182 553.5 190.5Q570 199 571 204Q573 213 561.0 223.0Q549 233 526 255Q506 275 497.0 287.5Q488 300 483 298Q479 297 470.5 280.0Q462 263 452.0 239.5Q442 216 433.5 192.5Q425 169 419.0 153.0Q413 137 413 137ZM1140 634Q1142 679 1124.5 729.5Q1107 780 1065 811Q1013 850 950.0 861.0Q887 872 800 841Q756 826 712.5 792.0Q669 758 631.5 712.0Q594 666 566.5 614.0Q539 562 528 510Q516 451 525.5 398.0Q535 345 583 294Q616 259 662.0 244.0Q708 229 759.0 232.0Q810 235 859 253Q918 276 968.0 316.0Q1018 356 1055.5 408.0Q1093 460 1115.0 518.0Q1137 576 1140 634ZM1141 798Q1170 763 1175.5 722.5Q1181 682 1179 614Q1176 555 1150.0 495.0Q1124 435 1080.5 380.5Q1037 326 983.0 284.0Q929 242 871 221Q804 197 753.0 186.5Q702 176 665.0 172.0Q628 168 602 163Q579 158 541.0 148.5Q503 139 464.0 123.0Q425 107 402 83Q366 47 350.0 23.0Q334 -1 334 -1L311 73Q314 79 333.0 92.5Q352 106 374 150Q379 159 390.5 187.5Q402 216 416.0 253.5Q430 291 442.5 329.5Q455 368 461 396Q469 436 476.0 475.0Q483 514 496.5 556.5Q510 599 538 647Q572 707 621.5 761.5Q671 816 732.5 853.5Q794 891 865 901Q924 910 969.5 901.5Q1015 893 1048.0 875.0Q1081 857 1104.0 836.0Q1127 815 1141 798Z" fill="#1f87ff" stroke="none" transform="scale(1,-1) translate(0,-256)" /></svg>