<?xml version="1.0" encoding="utf-8" ?>
<svg baseProfile="full" height="256" version="1.1" width="256" xmlns="http://www.w3.org/2000/svg" xmlns:ev="http://www.w3.org/2001/xml-events" xmlns:xlink="http://www.w3.org/1999/xlink"><defs /><path d="M155 862Q155 862 172.0 868.0Q189 874 216.0 882.0Q243 890 272.5 895.5Q302 901 327.5 900.0Q353 899 368 888Q389 871 406.0 835.5Q423 800 426.0 755.5Q429 711 408 667Q387 623 345.5 598.0Q304 573 254.5 571.0Q205 569 161 594Q129 612 111.5 636.0Q94 660 86.5 683.0Q79 706 77.5 721.0Q76 736 76 736Z" fill="#b6d401" stroke="none" transform="scale(1,-1) translate(0,-256)" /></svg>