<?xml version="1.0" encoding="utf-8" ?>
<svg baseProfile="full" height="256" version="1.1" width="256" xmlns="http://www.w3.org/2000/svg" xmlns:ev="http://www.w3.org/2001/xml-events" xmlns:xlink="http://www.w3.org/1999/xlink"><defs /><path d="M179 919Q209 933 236.5 934.5Q264 936 284.0 932.5Q304 929 312 926Q340 917 353.0 904.0Q366 891 366 891Q366 891 375.5 880.5Q385 870 393.5 848.5Q402 827 401 793Q399 751 378.5 714.0Q358 677 317.5 656.0Q277 635 215 639Q172 642 144.0 657.0Q116 672 100.5 691.0Q85 710 79.0 723.5Q73 737 73 737Q73 737 72.5 748.0Q72 759 73 774Q77 817 104.5 856.5Q132 896 179 919Z" fill="#d5f100" stroke="none" transform="scale(1,-1) translate(0,-256)" /></svg>