<?xml version="1.0" encoding="utf-8" ?>
<svg baseProfile="full" height="256" version="1.1" width="256" xmlns="http://www.w3.org/2000/svg" xmlns:ev="http://www.w3.org/2001/xml-events" xmlns:xlink="http://www.w3.org/1999/xlink"><defs /><path d="M433.88182067871094 452.7611846923828Q440.7663116455078 452.45098876953125 445.97505950927734 446.62615966796875Q451.1838073730469 440.80133056640625 450.74525451660156 431.0680847167969Q450.30670166015625 421.3348388671875 444.59522247314453 416.0020446777344Q438.8837432861328 410.66925048828125 431.99925231933594 410.9794464111328Q425.11476135253906 411.2896423339844 419.90601348876953 417.1144714355469Q414.697265625 422.9393005371094 415.1358184814453 432.67254638671875Q415.5743713378906 442.4057922363281 421.28585052490234 447.73858642578125Q426.99732971191406 453.0713806152344 433.88182067871094 452.7611846923828Z" fill="#896024" stroke="none" transform="scale(1,-1) translate(0,-256)" /><path d="M673.5067291259766 604.0736846923828Q680.3912200927734 603.7634887695312 685.599967956543 597.9386596679688Q690.8087158203125 592.1138305664062 690.3701629638672 582.3805847167969Q689.9316101074219 572.6473388671875 684.2201309204102 567.3145446777344Q678.5086517333984 561.9817504882812 671.6241607666016 562.2919464111328Q664.7396697998047 562.6021423339844 659.5309219360352 568.4269714355469Q654.3221740722656 574.2518005371094 654.7607269287109 583.9850463867188Q655.1992797851562 593.7182922363281 660.910758972168 599.0510864257812Q666.6222381591797 604.3838806152344 673.5067291259766 604.0736846923828Z" fill="#896024" stroke="none" transform="scale(1,-1) translate(0,-256)" /><path d="M408 337Q426 310 444.5 293.5Q463 277 480 272Q477 249 463 240Q443 228 412.5 243.5Q382 259 354 303Q327 347 325.5 381.5Q324 416 344 428Q359 437 380 430Q378 412 384.5 388.0Q391 364 408 337Z" fill="#896024" stroke="none" transform="scale(1,-1) translate(0,-256)" /><path d="M778 571Q795 543 802.0 519.5Q809 496 807 478Q828 471 843 480Q862 492 861.0 526.5Q860 561 832 605Q804 649 773.5 664.5Q743 680 724 668Q709 659 707 636Q723 631 742.0 614.5Q761 598 778 571Z" fill="#896024" stroke="none" transform="scale(1,-1) translate(0,-256)" /></svg>