<?xml version="1.0" encoding="utf-8" ?>
<svg baseProfile="full" height="256" version="1.1" width="256" xmlns="http://www.w3.org/2000/svg" xmlns:ev="http://www.w3.org/2001/xml-events" xmlns:xlink="http://www.w3.org/1999/xlink"><defs /><path d="M656 625Q638 614 640.0 580.0Q642 546 669 502Q697 458 726.5 441.5Q756 425 774 436Q792 448 790.0 481.5Q788 515 761 559Q733 604 703.0 620.0Q673 636 656 625Z" fill="#422b0d" stroke="none" transform="scale(1,-1) translate(0,-256)" /><path d="M420.7713928222656 476.9198455810547Q439.5257873535156 488.76097106933594 470.4549331665039 473.1586685180664Q501.3840789794922 457.5563659667969 529.2953033447266 413.3495788574219Q557.2065277099609 369.1427917480469 557.7832336425781 334.84500885009766Q558.3599395751953 300.54722595214844 539.6055450439453 288.7061004638672Q520.1813507080078 276.44207763671875 489.7985534667969 291.9209289550781Q459.41575622558594 307.3997802734375 431.50453186035156 351.6065673828125Q403.5933074951172 395.8133544921875 402.47025299072266 430.2345886230469Q401.3471984863281 464.65582275390625 420.7713928222656 476.9198455810547Z" fill="#422b0d" stroke="none" transform="scale(1,-1) translate(0,-256)" /><path d="M680 138Q694 117 708.5 103.5Q723 90 741 82Q773 69 802.5 75.5Q832 82 852.0 104.0Q872 126 877 159Q882 202 856.5 241.0Q831 280 789 293Q745 306 709.0 283.0Q673 260 666 215Q663 192 667.5 172.0Q672 152 680 138Z" fill="#422b0d" stroke="none" transform="scale(1,-1) translate(0,-256)" /></svg>