<?xml version="1.0" encoding="utf-8" ?>
<svg baseProfile="full" height="256" version="1.1" width="256" xmlns="http://www.w3.org/2000/svg" xmlns:ev="http://www.w3.org/2001/xml-events" xmlns:xlink="http://www.w3.org/1999/xlink"><defs /><path d="M215 815Q206 818 215.0 829.5Q224 841 241 848Q258 854 291.5 856.0Q325 858 355 841Q385 824 405.0 791.5Q425 759 426 730Q427 701 420.0 695.0Q413 689 385 688Q369 687 358.0 702.5Q347 718 337.5 739.0Q328 760 317 774Q309 785 292.5 793.0Q276 801 258.0 806.0Q240 811 227.5 813.0Q215 815 215 815Z" fill="#f7c515" stroke="none" transform="scale(1,-1) translate(0,-256)" /></svg>