<?xml version="1.0" encoding="utf-8" ?>
<svg baseProfile="full" height="256" version="1.1" width="256" xmlns="http://www.w3.org/2000/svg" xmlns:ev="http://www.w3.org/2001/xml-events" xmlns:xlink="http://www.w3.org/1999/xlink"><defs /><path d="M432 215 504 148Q504 148 502.5 128.0Q501 108 501 91Q500 73 495.0 53.0Q490 33 488 3Q486 -17 488.0 -42.5Q490 -68 492.5 -88.0Q495 -108 493 -113Q490 -121 482.5 -133.0Q475 -145 440 -146Q405 -148 390.5 -140.5Q376 -133 374 -129Q373 -126 374.5 -117.5Q376 -109 385 -97Q394 -85 399.0 -59.0Q404 -33 407 2Q409 19 405.0 50.5Q401 82 394.5 115.0Q388 148 383.0 171.0Q378 194 378 194Z" fill="#51362f" stroke="none" transform="scale(1,-1) translate(0,-256)" /><path d="M663 184 932 267 950 163Q950 163 948.0 151.5Q946 140 943.0 124.5Q940 109 938.0 94.5Q936 80 936 75Q935 67 937.0 51.0Q939 35 941.0 18.5Q943 2 944 -8Q944 -18 945.5 -34.0Q947 -50 947.5 -65.5Q948 -81 948 -87Q947 -99 939.0 -106.0Q931 -113 907 -119Q898 -122 883.5 -121.0Q869 -120 856.5 -117.5Q844 -115 841 -112Q838 -107 843.5 -93.5Q849 -80 853 -68Q858 -55 859.0 -34.5Q860 -14 859 4Q859 15 855.5 37.5Q852 60 848.5 79.0Q845 98 845 98Q845 98 839.0 92.5Q833 87 826.5 82.0Q820 77 818 77Q817 77 803.5 83.5Q790 90 771.0 98.0Q752 106 734 108Q706 111 684.0 108.0Q662 105 662 105Z" fill="#51362f" stroke="none" transform="scale(1,-1) translate(0,-256)" /><path d="M1117 200 1135 206Q1135 206 1145.5 194.0Q1156 182 1168.5 163.5Q1181 145 1187 125Q1193 105 1195.5 76.5Q1198 48 1197.0 26.0Q1196 4 1192 4Q1186 3 1178.0 21.5Q1170 40 1162 54Q1154 67 1139.0 83.5Q1124 100 1119 124Q1111 154 1114.0 177.0Q1117 200 1117 200Z" fill="#51362f" stroke="none" transform="scale(1,-1) translate(0,-256)" /><path d="M534 128Q534 128 525.0 137.5Q516 147 508.5 163.5Q501 180 504 202Q508 226 520.0 239.5Q532 253 545 250Q556 247 553.5 239.0Q551 231 543.0 219.0Q535 207 532 193Q526 169 530.0 148.5Q534 128 534 128Z" fill="#51362f" stroke="none" transform="scale(1,-1) translate(0,-256)" /><path d="M384 428Q381 432 395.0 440.0Q409 448 425.5 459.0Q442 470 449 484Q453 494 452.5 511.5Q452 529 448.5 547.5Q445 566 441.0 579.5Q437 593 436 594Q435 596 424.5 598.5Q414 601 403.5 606.0Q393 611 393 620Q392 627 405.0 629.5Q418 632 435.0 632.0Q452 632 465.5 632.0Q479 632 481 633Q483 635 475.5 642.5Q468 650 456.0 657.0Q444 664 434 665Q424 666 417.0 659.5Q410 653 400.0 646.5Q390 640 371 639Q343 638 329.5 653.5Q316 669 317 688Q317 700 333.5 700.0Q350 700 375.5 696.0Q401 692 429 691Q458 691 475.5 674.5Q493 658 501.0 641.0Q509 624 509 620Q508 616 498.5 610.0Q489 604 479.5 600.0Q470 596 470 596Q470 596 473.0 583.0Q476 570 478 559Q479 552 481.0 531.5Q483 511 481.5 489.0Q480 467 470 455Q461 443 441.5 435.5Q422 428 405.0 426.0Q388 424 384 428Z" fill="#51362f" stroke="none" transform="scale(1,-1) translate(0,-256)" /></svg>