<?xml version="1.0" encoding="utf-8" ?>
<svg baseProfile="full" height="256" version="1.1" width="256" xmlns="http://www.w3.org/2000/svg" xmlns:ev="http://www.w3.org/2001/xml-events" xmlns:xlink="http://www.w3.org/1999/xlink"><defs /><path d="M92 514Q86 506 83.5 501.0Q81 496 83 490Q86 484 96.0 487.0Q106 490 113 498Q120 505 124.0 518.0Q128 531 118 536Q108 541 102.5 531.0Q97 521 92 514Z" fill="#2c2f33" stroke="none" transform="scale(1,-1) translate(0,-256)" /><path d="M91 474Q98 482 106.5 475.0Q115 468 131 467Q143 466 153.0 466.5Q163 467 165 459Q166 449 148.0 446.0Q130 443 116 448Q101 454 94.0 462.0Q87 470 91 474Z" fill="#2c2f33" stroke="none" transform="scale(1,-1) translate(0,-256)" /></svg>