<?xml version="1.0" encoding="utf-8" ?>
<svg baseProfile="full" height="256" version="1.1" width="256" xmlns="http://www.w3.org/2000/svg" xmlns:ev="http://www.w3.org/2001/xml-events" xmlns:xlink="http://www.w3.org/1999/xlink"><defs /><path d="M181 32 1079 27Q1079 27 1087.0 2.5Q1095 -22 1115 -64Q1131 -97 1148.5 -126.0Q1166 -155 1178.5 -173.0Q1191 -191 1191 -191L1095 -220L124 -212L87 -199Q87 -199 96.0 -180.0Q105 -161 117.0 -134.5Q129 -108 137 -88Q143 -75 150.0 -55.0Q157 -35 164.0 -15.0Q171 5 176.0 18.5Q181 32 181 32Z" fill="#89837c" stroke="none" transform="scale(1,-1) translate(0,-256)" /></svg>