<?xml version="1.0" encoding="utf-8" ?>
<svg baseProfile="full" height="256" version="1.1" width="256" xmlns="http://www.w3.org/2000/svg" xmlns:ev="http://www.w3.org/2001/xml-events" xmlns:xlink="http://www.w3.org/1999/xlink"><defs /><path d="M181 32 610 15 1079 27Q1079 27 1078.5 34.0Q1078 41 1066 42Q1064 42 1027.0 42.5Q990 43 927.5 43.5Q865 44 788.0 44.5Q711 45 628.5 45.5Q546 46 468.5 46.0Q391 46 328.5 46.5Q266 47 228.5 46.5Q191 46 189 46Q181 44 181.0 38.0Q181 32 181 32Z" fill="#bcced2" stroke="none" transform="scale(1,-1) translate(0,-256)" /></svg>