<?xml version="1.0" encoding="utf-8" ?>
<svg baseProfile="full" height="256" version="1.1" width="256" xmlns="http://www.w3.org/2000/svg" xmlns:ev="http://www.w3.org/2001/xml-events" xmlns:xlink="http://www.w3.org/1999/xlink"><defs /><path d="M617 76Q634 81 651.0 83.0Q668 85 684 92Q691 94 704.0 102.0Q717 110 721 100Q725 92 717.5 82.5Q710 73 700.5 65.5Q691 58 685 55Q657 39 627 47Q615 50 608 56Q605 59 604 62Q603 67 607.5 70.5Q612 74 617 76Z" fill="#274c5e" stroke="none" transform="scale(1,-1) translate(0,-256)" /><path d="M588 273Q607 251 629.0 248.0Q651 245 669.5 253.0Q688 261 697 272Q718 299 713.5 331.5Q709 364 674 422Q654 456 661.5 483.0Q669 510 682 519Q688 524 690.5 531.5Q693 539 672 538Q655 536 641.0 517.0Q627 498 623.0 469.5Q619 441 631 412Q643 384 651.5 366.5Q660 349 662.5 335.0Q665 321 658 305Q652 292 633.5 289.5Q615 287 601 291Q590 295 584.0 289.5Q578 284 588 273Z" fill="#274c5e" stroke="none" transform="scale(1,-1) translate(0,-256)" /></svg>