<?xml version="1.0" encoding="utf-8" ?>
<svg baseProfile="full" height="256" version="1.1" width="256" xmlns="http://www.w3.org/2000/svg" xmlns:ev="http://www.w3.org/2001/xml-events" xmlns:xlink="http://www.w3.org/1999/xlink"><defs /><path d="M885 872 939 35 309 71Q309 71 305.0 50.0Q301 29 295.5 -3.0Q290 -35 284.0 -69.5Q278 -104 274.5 -131.0Q271 -158 271 -168Q272 -193 283.0 -201.0Q294 -209 300 -210Q301 -210 337.5 -210.5Q374 -211 432.5 -211.0Q491 -211 561.0 -211.5Q631 -212 701.0 -212.0Q771 -212 830.5 -212.0Q890 -212 928.0 -212.0Q966 -212 969 -212Q982 -212 987.5 -202.0Q993 -192 994 -184Q994 -182 994.5 -145.0Q995 -108 995.0 -46.0Q995 16 995.5 92.5Q996 169 996.0 250.0Q996 331 996.5 407.0Q997 483 997.0 544.0Q997 605 997.0 640.5Q997 676 997 676Q997 676 1002.0 677.0Q1007 678 1014 681Q1021 685 1024.0 691.0Q1027 697 1028 700Q1031 706 1030.5 728.5Q1030 751 1030 801Q1030 840 1020.0 863.0Q1010 886 1000.0 896.0Q990 906 987 907Q983 909 976.0 908.5Q969 908 969 908Z" fill="#ae0d1a" stroke="none" transform="scale(1,-1) translate(0,-256)" /></svg>