<?xml version="1.0" encoding="utf-8" ?>
<svg baseProfile="full" height="256" version="1.1" width="256" xmlns="http://www.w3.org/2000/svg" xmlns:ev="http://www.w3.org/2001/xml-events" xmlns:xlink="http://www.w3.org/1999/xlink"><defs /><path d="M1148 -103Q1149 -111 1140.0 -124.5Q1131 -138 1102.0 -153.0Q1073 -168 1016.5 -181.5Q960 -195 867.5 -203.5Q775 -212 638 -212Q500 -212 407.5 -203.5Q315 -195 258.5 -181.5Q202 -168 173.0 -153.0Q144 -138 135.0 -124.5Q126 -111 128 -103Q129 -93 133.0 -64.5Q137 -36 141.5 -4.0Q146 28 149.0 51.0Q152 74 152 74H1123Q1123 74 1126.0 51.0Q1129 28 1133.5 -4.0Q1138 -36 1142.0 -64.5Q1146 -93 1148 -103Z" fill="#82aec0" stroke="none" transform="scale(1,-1) translate(0,-256)" /></svg>