<?xml version="1.0" encoding="utf-8" ?>
<svg baseProfile="full" height="256" version="1.1" width="256" xmlns="http://www.w3.org/2000/svg" xmlns:ev="http://www.w3.org/2001/xml-events" xmlns:xlink="http://www.w3.org/1999/xlink"><defs /><path d="M219 86Q219 70 251.5 55.0Q284 40 341.5 27.5Q399 15 475.0 8.0Q551 1 638 1Q724 1 800.0 8.0Q876 15 933.5 27.5Q991 40 1023.5 55.0Q1056 70 1056 86Q1056 102 1023.5 116.5Q991 131 933.5 141.5Q876 152 800.0 158.0Q724 164 638 164Q551 164 475.0 158.0Q399 152 341.5 141.5Q284 131 251.5 116.5Q219 102 219 86Z" fill="#c62828" stroke="none" transform="scale(1,-1) translate(0,-256)" /></svg>