<?xml version="1.0" encoding="utf-8" ?>
<svg baseProfile="full" height="256" version="1.1" width="256" xmlns="http://www.w3.org/2000/svg" xmlns:ev="http://www.w3.org/2001/xml-events" xmlns:xlink="http://www.w3.org/1999/xlink"><defs /><path d="M954 797Q966 760 977.0 704.0Q988 648 998.0 581.5Q1008 515 1017.0 446.0Q1026 377 1033.0 313.0Q1040 249 1045.5 198.0Q1051 147 1053.5 117.0Q1056 87 1056 87Q1056 87 1048.5 80.0Q1041 73 1017.5 62.5Q994 52 948.0 41.5Q902 31 826.5 24.0Q751 17 638 17Q524 17 448.5 24.0Q373 31 327.0 41.5Q281 52 258.0 62.5Q235 73 227.0 80.0Q219 87 219 87Q219 87 222.0 117.0Q225 147 230.0 198.0Q235 249 242.0 313.0Q249 377 258.0 446.0Q267 515 277.0 581.5Q287 648 298.0 704.0Q309 760 321 797Q334 839 370.0 864.5Q406 890 471.5 901.5Q537 913 637 913Q738 913 803.5 901.5Q869 890 905.0 864.5Q941 839 954 797Z" fill="#f44336" stroke="none" transform="scale(1,-1) translate(0,-256)" /></svg>