<?xml version="1.0" encoding="utf-8" ?>
<svg baseProfile="full" height="256" version="1.1" width="256" xmlns="http://www.w3.org/2000/svg" xmlns:ev="http://www.w3.org/2001/xml-events" xmlns:xlink="http://www.w3.org/1999/xlink"><defs /><path d="M197.375 717.0Q171.375 685.0 165.375 645.0Q159.375 605.0 168.375 563.5Q177.375 522.0 196.375 487.0Q201.375 479.0 209.875 480.5Q218.375 482.0 219.375 491.0Q223.375 513.0 229.375 535.0Q235.375 557.0 246.375 577.0Q263.375 610.0 286.875 628.0Q310.375 646.0 339.375 667.0Q351.375 677.0 358.875 693.5Q366.375 710.0 364.375 727.0Q362.375 744.0 348.375 756.0Q321.375 777.0 293.375 774.5Q265.375 772.0 239.875 755.5Q214.375 739.0 197.375 717.0Z" fill="#b7b7b7" stroke="none" transform="scale(1,-1) translate(0,-256)" /><path d="M761 625Q779 625 818.0 636.5Q857 648 893 683Q909 699 910.0 727.0Q911 755 887 772Q864 788 832.5 775.5Q801 763 782 736Q756 701 739 656Q734 645 741.5 635.0Q749 625 761 625Z" fill="#b7b7b7" stroke="none" transform="scale(1,-1) translate(0,-256)" /></svg>