<?xml version="1.0" encoding="utf-8" ?>
<svg baseProfile="full" height="256" version="1.1" width="256" xmlns="http://www.w3.org/2000/svg" xmlns:ev="http://www.w3.org/2001/xml-events" xmlns:xlink="http://www.w3.org/1999/xlink"><defs /><path d="M808 60 827 46Q827 46 833.0 55.0Q839 64 847.0 75.0Q855 86 862 94Q871 105 890.0 127.0Q909 149 924 166Q934 176 950.0 192.5Q966 209 979.0 222.0Q992 235 992 235L972 251Q972 251 958.5 235.5Q945 220 926.5 198.5Q908 177 895 161Q885 149 870.5 132.0Q856 115 841.5 98.5Q827 82 817.5 71.0Q808 60 808 60Z" fill="#885c51" stroke="none" transform="scale(1,-1) translate(0,-256)" /></svg>