<?xml version="1.0" encoding="utf-8" ?>
<svg baseProfile="full" height="256" version="1.1" width="256" xmlns="http://www.w3.org/2000/svg" xmlns:ev="http://www.w3.org/2001/xml-events" xmlns:xlink="http://www.w3.org/1999/xlink"><defs /><path d="M509 -97 755 -101Q755 -101 754.5 -76.0Q754 -51 754.0 -13.0Q754 25 754.0 67.0Q754 109 753.0 144.0Q752 179 752 196Q749 239 719.0 268.5Q689 298 629 300Q598 301 571.0 286.5Q544 272 527.0 247.0Q510 222 509 193Q509 175 509.0 140.5Q509 106 509.0 65.5Q509 25 509.0 -12.5Q509 -50 509.0 -73.5Q509 -97 509 -97Z" fill="#36292b" stroke="none" transform="scale(1,-1) translate(0,-256)" /></svg>