<?xml version="1.0" encoding="utf-8" ?>
<svg baseProfile="full" height="256" version="1.1" width="256" xmlns="http://www.w3.org/2000/svg" xmlns:ev="http://www.w3.org/2001/xml-events" xmlns:xlink="http://www.w3.org/1999/xlink"><defs /><path d="M305 819Q305 819 307.0 812.5Q309 806 310 799Q311 793 313.5 784.0Q316 775 328 767Q338 760 345.0 765.0Q352 770 355.5 777.5Q359 785 359 785Q359 785 371.5 777.5Q384 770 400 751Q416 731 428.0 694.0Q440 657 450 619Q456 593 467.5 570.0Q479 547 491.5 531.5Q504 516 513 513Q519 511 539.5 512.0Q560 513 588.0 515.5Q616 518 644.5 520.0Q673 522 696 522Q741 522 792.0 518.0Q843 514 896 492Q948 471 982.5 426.0Q1017 381 1032 337Q1048 292 1047.5 265.0Q1047 238 1045 225Q1044 216 1039.5 200.5Q1035 185 1031.5 172.5Q1028 160 1028 160Q1028 160 1027.5 145.0Q1027 130 1023.0 107.0Q1019 84 1009 59Q997 29 979.5 9.5Q962 -10 948.0 -20.0Q934 -30 934 -30Q934 -30 933.5 -44.5Q933 -59 932.5 -79.5Q932 -100 931.5 -118.0Q931 -136 930 -143Q930 -156 931.0 -171.0Q932 -186 929 -194Q927 -202 915.0 -204.0Q903 -206 889 -206Q876 -206 864.5 -205.0Q853 -204 849 -198Q845 -195 852.0 -184.0Q859 -173 867.0 -162.5Q875 -152 876 -149Q877 -147 877.5 -126.5Q878 -106 878.0 -80.5Q878 -55 878.0 -35.5Q878 -16 878 -16Q878 -16 865.0 2.5Q852 21 842 38Q836 49 826.5 66.0Q817 83 809.5 96.0Q802 109 802 109Q802 109 788.0 97.5Q774 86 752.0 72.5Q730 59 706 52Q670 42 644.5 43.0Q619 44 619 44Q619 44 618.0 31.0Q617 18 609 -1Q600 -19 582.5 -29.5Q565 -40 565 -40Q565 -40 564.0 -53.5Q563 -67 562.5 -82.5Q562 -98 562 -106Q562 -111 561.5 -125.5Q561 -140 560.5 -156.5Q560 -173 558.5 -185.5Q557 -198 555 -200Q551 -204 539.5 -206.5Q528 -209 519 -209Q510 -209 496.0 -207.5Q482 -206 478 -199Q475 -194 480.5 -185.0Q486 -176 493.0 -167.0Q500 -158 502 -155Q503 -152 503.0 -133.5Q503 -115 502.5 -92.0Q502 -69 502.0 -52.0Q502 -35 502 -35Q502 -35 489.0 -19.0Q476 -3 470 29Q463 64 464.5 84.0Q466 104 466 104Q466 104 454.5 113.0Q443 122 432 146Q420 170 417.0 183.5Q414 197 414 197Q414 197 399.5 201.0Q385 205 366 227Q353 241 348.0 258.0Q343 275 343.0 287.5Q343 300 343 300Q343 300 331.5 307.0Q320 314 306.0 326.5Q292 339 283 355Q265 386 258.5 415.5Q252 445 252.0 464.5Q252 484 252 484Q252 484 238.5 507.0Q225 530 214 561Q203 593 202.0 617.0Q201 641 201 641L210 646Q210 646 220.0 640.5Q230 635 234 632Q238 630 249.5 619.5Q261 609 261 609Q261 609 265.0 619.5Q269 630 274 639Q279 652 286.0 664.0Q293 676 303 693Q314 709 325.0 724.0Q336 739 336 739Q336 739 330.5 743.5Q325 748 320 751Q316 753 308.0 756.0Q300 759 287 760Q274 761 261.0 759.5Q248 758 235 757Q223 756 214.0 757.0Q205 758 201 764Q194 777 234 804Q247 813 264.0 816.0Q281 819 293.0 819.0Q305 819 305 819Z" fill="#ae957f" stroke="none" transform="scale(1,-1) translate(0,-256)" /></svg>