<?xml version="1.0" encoding="utf-8" ?>
<svg baseProfile="full" height="256" version="1.1" width="256" xmlns="http://www.w3.org/2000/svg" xmlns:ev="http://www.w3.org/2001/xml-events" xmlns:xlink="http://www.w3.org/1999/xlink"><defs /><path d="M522 258Q522 258 516.0 264.0Q510 270 496.5 274.5Q483 279 462.5 274.5Q442 270 413 250Q398 240 378.5 224.0Q359 208 340.0 191.0Q321 174 308.5 161.0Q296 148 297 144Q297 138 310.5 123.5Q324 109 338.0 96.0Q352 83 355 83Q357 83 378.5 106.0Q400 129 427 157Q449 181 471.0 204.5Q493 228 507.5 243.0Q522 258 522 258Z" fill="#db0d2a" stroke="none" transform="scale(1,-1) translate(0,-256)" /><path d="M552 228Q552 228 559.0 218.5Q566 209 567.0 188.5Q568 168 549 135Q539 118 521.5 95.5Q504 73 484.5 51.5Q465 30 450.0 16.0Q435 2 432 2Q430 2 418.0 15.0Q406 28 395.0 41.0Q384 54 384 56Q385 58 403.0 77.0Q421 96 446 120Q469 144 493.0 169.0Q517 194 534.0 210.5Q551 227 552 228Z" fill="#db0d2a" stroke="none" transform="scale(1,-1) translate(0,-256)" /></svg>