<?xml version="1.0" encoding="utf-8" ?>
<svg baseProfile="full" height="256" version="1.1" width="256" xmlns="http://www.w3.org/2000/svg" xmlns:ev="http://www.w3.org/2001/xml-events" xmlns:xlink="http://www.w3.org/1999/xlink"><defs /><path d="M641 934Q665 934 677.5 924.0Q690 914 694.5 901.5Q699 889 699 880Q699 874 699.5 852.0Q700 830 700.0 804.5Q700 779 700.0 760.5Q700 742 700 742Q700 742 694.5 734.0Q689 726 675.5 718.5Q662 711 639 711Q610 712 596.0 726.0Q582 740 581 750Q581 756 581.0 772.5Q581 789 581.0 811.0Q581 833 581.0 852.5Q581 872 582 883Q584 905 601.0 919.5Q618 934 641 934Z" fill="#000000" stroke="none" transform="scale(1,-1) translate(0,-256)" /><path d="M968 753Q986 767 1008.5 774.5Q1031 782 1051 764Q1070 746 1066.0 729.0Q1062 712 1051 700Q1042 689 1021.5 668.5Q1001 648 979.5 628.0Q958 608 946 599Q929 585 905.5 585.0Q882 585 870 594Q854 608 854.0 625.0Q854 642 861 653Q870 665 891.5 685.5Q913 706 935.5 725.0Q958 744 968 753Z" fill="#000000" stroke="none" transform="scale(1,-1) translate(0,-256)" /><path d="M1017 404Q1027 405 1054.0 405.0Q1081 405 1109.0 405.0Q1137 405 1150 404Q1169 403 1187.0 394.5Q1205 386 1205 363Q1206 343 1195.0 328.5Q1184 314 1165 313Q1153 313 1128.0 312.5Q1103 312 1075.0 312.0Q1047 312 1027 313Q970 316 970 357Q970 377 985.0 389.5Q1000 402 1017 404Z" fill="#000000" stroke="none" transform="scale(1,-1) translate(0,-256)" /><path d="M872 111Q897 133 930 115Q943 108 965.5 89.0Q988 70 1010.5 48.0Q1033 26 1045 9Q1055 -4 1053.5 -19.0Q1052 -34 1043 -43Q1029 -58 1016.5 -60.0Q1004 -62 988 -55Q963 -45 938.0 -21.5Q913 2 883 30Q854 58 857.0 79.0Q860 100 872 111Z" fill="#000000" stroke="none" transform="scale(1,-1) translate(0,-256)" /><path d="M633 13Q660 13 675.0 -7.0Q690 -27 689 -50Q689 -56 689.0 -71.0Q689 -86 689.0 -104.5Q689 -123 689.0 -138.0Q689 -153 689 -157Q689 -166 675.5 -181.5Q662 -197 631 -196Q609 -196 592.5 -183.0Q576 -170 575 -158Q575 -151 575.0 -132.0Q575 -113 575.0 -90.0Q575 -67 575 -49Q576 -21 592.5 -4.0Q609 13 633 13Z" fill="#000000" stroke="none" transform="scale(1,-1) translate(0,-256)" /><path d="M390 112Q403 103 405.0 94.0Q407 85 397 70Q389 59 368.5 36.0Q348 13 326.0 -10.0Q304 -33 292 -43Q273 -59 249.5 -61.0Q226 -63 214 -49Q202 -37 207.0 -19.5Q212 -2 219 9Q224 16 239.0 31.5Q254 47 272.5 65.0Q291 83 307 99Q332 122 354.0 122.5Q376 123 390 112Z" fill="#000000" stroke="none" transform="scale(1,-1) translate(0,-256)" /><path d="M116 408Q125 408 145.0 408.0Q165 408 187.5 408.0Q210 408 230.0 407.0Q250 406 259 405Q278 403 292.5 391.5Q307 380 305 359Q303 338 291.0 326.0Q279 314 261 312Q252 311 231.5 311.0Q211 311 187.0 311.5Q163 312 142.5 312.5Q122 313 112 314Q93 315 77.5 325.0Q62 335 62 359Q62 383 79.0 395.0Q96 407 116 408Z" fill="#000000" stroke="none" transform="scale(1,-1) translate(0,-256)" /><path d="M239 771Q253 783 273.0 782.0Q293 781 306 769Q313 763 330.0 745.5Q347 728 366.5 707.5Q386 687 399 671Q418 647 418.5 631.5Q419 616 408 602Q394 586 374.0 585.0Q354 584 338 596Q329 603 311.5 619.5Q294 636 274.5 656.5Q255 677 239 697Q222 721 224.0 740.5Q226 760 239 771Z" fill="#000000" stroke="none" transform="scale(1,-1) translate(0,-256)" /></svg>