<?xml version="1.0" encoding="utf-8" ?>
<svg baseProfile="full" height="256" version="1.1" width="256" xmlns="http://www.w3.org/2000/svg" xmlns:ev="http://www.w3.org/2001/xml-events" xmlns:xlink="http://www.w3.org/1999/xlink"><defs /><path d="M176 437Q176 438 209.5 438.5Q243 439 300.0 439.5Q357 440 427.5 440.5Q498 441 573.5 441.0Q649 441 719.5 441.0Q790 441 847.0 440.5Q904 440 937.5 440.0Q971 440 972 439Q973 438 973.5 411.5Q974 385 974.5 343.0Q975 301 975.0 253.5Q975 206 974.5 164.0Q974 122 973.5 95.0Q973 68 972 67Q971 67 937.5 66.0Q904 65 847.5 64.5Q791 64 721.0 63.5Q651 63 576.5 62.5Q502 62 431.5 61.5Q361 61 304.5 61.0Q248 61 214.5 61.5Q181 62 180 63Q179 64 178.5 91.0Q178 118 177.0 160.0Q176 202 175.5 249.5Q175 297 175.0 339.0Q175 381 175.0 408.5Q175 436 176 437Z" fill="#3a3839" stroke="none" transform="scale(1,-1) translate(0,-256)" /></svg>