<?xml version="1.0" encoding="utf-8" ?>
<svg baseProfile="full" height="256" version="1.1" width="256" xmlns="http://www.w3.org/2000/svg" xmlns:ev="http://www.w3.org/2001/xml-events" xmlns:xlink="http://www.w3.org/1999/xlink"><defs /><path d="M1096 307Q1096 307 1107.0 308.0Q1118 309 1136.0 303.5Q1154 298 1175 277Q1191 262 1196.5 244.0Q1202 226 1202.5 213.0Q1203 200 1203 200L1143 163L623 149L417 202Q417 202 415.5 212.0Q414 222 418.0 238.0Q422 254 438 273Q455 294 481.0 302.0Q507 310 527.5 311.0Q548 312 548 312Q548 312 550.5 328.0Q553 344 563.0 366.0Q573 388 597 405Q620 423 645.5 428.5Q671 434 688.5 433.5Q706 433 706 433Q706 433 712.5 449.5Q719 466 734.0 489.0Q749 512 775.0 533.0Q801 554 839.5 564.0Q878 574 932 562Q987 551 1020.0 522.0Q1053 493 1069.5 457.5Q1086 422 1091.0 388.0Q1096 354 1096.0 331.5Q1096 309 1096 307Z" fill="#e2ebee" stroke="none" transform="scale(1,-1) translate(0,-256)" /></svg>