<?xml version="1.0" encoding="utf-8" ?>
<svg baseProfile="full" height="256" version="1.1" width="256" xmlns="http://www.w3.org/2000/svg" xmlns:ev="http://www.w3.org/2001/xml-events" xmlns:xlink="http://www.w3.org/1999/xlink"><defs /><path d="M352 525Q392 575 444.0 600.0Q496 625 552.0 626.5Q608 628 660.5 608.5Q713 589 753 550Q792 511 813.0 460.0Q834 409 834.0 354.0Q834 299 812.5 246.5Q791 194 746 153Q696 107 631.0 92.0Q566 77 498.5 93.5Q431 110 375 160Q338 193 319.0 239.5Q300 286 297.5 337.5Q295 389 309.0 438.0Q323 487 352 525Z" fill="#fcc11a" stroke="none" transform="scale(1,-1) translate(0,-256)" /></svg>