<?xml version="1.0" encoding="utf-8" ?>
<svg baseProfile="full" height="256" version="1.1" width="256" xmlns="http://www.w3.org/2000/svg" xmlns:ev="http://www.w3.org/2001/xml-events" xmlns:xlink="http://www.w3.org/1999/xlink"><defs /><path d="M855 368Q790 368 737.0 336.5Q684 305 652.5 252.0Q621 199 621 134Q621 70 652.5 17.0Q684 -36 737.0 -67.5Q790 -99 855 -99Q919 -99 972.0 -67.5Q1025 -36 1056.5 17.0Q1088 70 1088 134Q1088 199 1056.5 252.0Q1025 305 972.0 336.5Q919 368 855 368ZM855 386Q924 386 981.5 352.0Q1039 318 1073.0 261.0Q1107 204 1107 134Q1107 65 1073.0 7.5Q1039 -50 981.5 -84.0Q924 -118 855 -118Q785 -118 728.0 -84.0Q671 -50 637.0 7.5Q603 65 603 134Q603 204 637.0 261.0Q671 318 728.0 352.0Q785 386 855 386Z" fill="#546e7a" stroke="none" transform="scale(1,-1) translate(0,-256)" /></svg>