<?xml version="1.0" encoding="utf-8" ?>
<svg baseProfile="full" height="256" version="1.1" width="256" xmlns="http://www.w3.org/2000/svg" xmlns:ev="http://www.w3.org/2001/xml-events" xmlns:xlink="http://www.w3.org/1999/xlink"><defs /><path d="M826.1360473632812 235.7400665283203V134.32984924316406H883.0267486572266V235.7400665283203Z" fill="#c62828" stroke="none" transform="scale(1,-1) translate(0,-256)" /><path d="M1031 477V518Q1031 518 1043.0 514.5Q1055 511 1065 501L1064 451Q1055 463 1043.0 470.0Q1031 477 1031 477Z" fill="#c62828" stroke="none" transform="scale(1,-1) translate(0,-256)" /><path d="M488 261Q488 261 483.0 261.0Q478 261 470 262Q463 264 457.0 266.5Q451 269 451 269Q451 269 441.0 265.5Q431 262 426 258Q426 258 427.5 250.5Q429 243 447 228Q457 220 468.0 219.5Q479 219 479 219Z" fill="#c62828" stroke="none" transform="scale(1,-1) translate(0,-256)" /></svg>