<?xml version="1.0" encoding="utf-8" ?>
<svg baseProfile="full" height="256" version="1.1" width="256" xmlns="http://www.w3.org/2000/svg" xmlns:ev="http://www.w3.org/2001/xml-events" xmlns:xlink="http://www.w3.org/1999/xlink"><defs /><path d="M336 -149Q344 -152 351.5 -148.0Q359 -144 362 -136L368 -115Q371 -107 367.0 -99.5Q363 -92 355 -89L107 -8Q99 -6 91.5 -10.0Q84 -14 81 -22L75 -42Q72 -50 76.0 -58.0Q80 -66 88 -68Z" fill="#424242" stroke="none" transform="scale(1,-1) translate(0,-256)" /><path d="M415 -150Q425 -150 434.5 -143.5Q444 -137 444 -127L445 -79Q446 -73 442.0 -69.0Q438 -65 432 -65H396Q389 -65 385.0 -69.5Q381 -74 382 -79L387 -127Q391 -150 415 -150Z" fill="#424242" stroke="none" transform="scale(1,-1) translate(0,-256)" /><path d="M973 370 1028 234 476 261Q461 261 450.0 270.0Q439 279 437 296Q435 314 435.5 320.0Q436 326 436 326Q442 363 456.5 374.0Q471 385 489 385Z" fill="#424242" stroke="none" transform="scale(1,-1) translate(0,-256)" /><path d="M914 671Q919 687 926.5 697.0Q934 707 959 707H982Q1005 707 1018.5 700.0Q1032 693 1032 667L1029 235Q1029 235 1011.5 249.0Q994 263 970.0 285.0Q946 307 925.5 331.5Q905 356 899 377Q895 394 894.0 425.0Q893 456 895.0 493.5Q897 531 900.0 567.5Q903 604 907.0 632.0Q911 660 914 671Z" fill="#424242" stroke="none" transform="scale(1,-1) translate(0,-256)" /></svg>