<?xml version="1.0" encoding="utf-8" ?>
<svg baseProfile="full" height="256" version="1.1" width="256" xmlns="http://www.w3.org/2000/svg" xmlns:ev="http://www.w3.org/2001/xml-events" xmlns:xlink="http://www.w3.org/1999/xlink"><defs /><path d="M685 475Q685 475 670.5 479.5Q656 484 636 484Q615 484 600.0 478.5Q585 473 585 473L384 820Q384 820 399.5 828.0Q415 836 440.0 846.5Q465 857 494 865Q535 876 569.0 879.5Q603 883 603 883Z" fill="#000000" stroke="none" transform="scale(1,-1) translate(0,-256)" /><path d="M588 223Q588 223 602.5 218.5Q617 214 638 215Q658 215 673.0 220.5Q688 226 688 226L895 -114Q895 -114 879.5 -122.0Q864 -130 839.0 -141.0Q814 -152 786 -160Q745 -173 711.0 -177.0Q677 -181 677 -181Z" fill="#000000" stroke="none" transform="scale(1,-1) translate(0,-256)" /></svg>