<?xml version="1.0" encoding="utf-8" ?>
<svg baseProfile="full" height="256" version="1.1" width="256" xmlns="http://www.w3.org/2000/svg" xmlns:ev="http://www.w3.org/2001/xml-events" xmlns:xlink="http://www.w3.org/1999/xlink"><defs /><path d="M638 355Q580 355 529.0 332.5Q478 310 440.5 270.0Q403 230 383 180L77 346Q69 351 70.5 356.5Q72 362 72 362Q123 467 208.0 545.0Q293 623 403.0 666.0Q513 709 638 709Q758 709 864.5 666.5Q971 624 1055.5 549.0Q1140 474 1192 374L890 183Q870 233 832.5 272.0Q795 311 745.0 333.0Q695 355 638 355Z" fill="#ff0303" stroke="none" transform="scale(1,-1) translate(0,-256)" /></svg>