<?xml version="1.0" encoding="utf-8" ?>
<svg baseProfile="full" height="256" version="1.1" width="256" xmlns="http://www.w3.org/2000/svg" xmlns:ev="http://www.w3.org/2001/xml-events" xmlns:xlink="http://www.w3.org/1999/xlink"><defs /><path d="M103 418Q118 442 135 465L438 267Q419 246 404 221Z" fill="#db0000" stroke="none" transform="scale(1,-1) translate(0,-256)" /><path d="M253 583Q277 600 300 615L517 326Q492 314 469 296Z" fill="#db0000" stroke="none" transform="scale(1,-1) translate(0,-256)" /><path d="M452 682Q479 690 507 696L611 354Q582 351 555 342Z" fill="#db0000" stroke="none" transform="scale(1,-1) translate(0,-256)" /><path d="M676 707Q705 705 733 701L713 344Q685 352 657 354Z" fill="#db0000" stroke="none" transform="scale(1,-1) translate(0,-256)" /><path d="M894 654Q921 641 945 628L804 298Q781 316 755 328Z" fill="#db0000" stroke="none" transform="scale(1,-1) translate(0,-256)" /><path d="M1077 529Q1097 509 1116 487L870 224Q855 248 835 270Z" fill="#db0000" stroke="none" transform="scale(1,-1) translate(0,-256)" /></svg>