<?xml version="1.0" encoding="utf-8" ?>
<svg baseProfile="full" height="256" version="1.1" width="256" xmlns="http://www.w3.org/2000/svg" xmlns:ev="http://www.w3.org/2001/xml-events" xmlns:xlink="http://www.w3.org/1999/xlink"><defs /><path d="M159 307 177 272Q177 272 201.5 292.5Q226 313 267.5 348.0Q309 383 360.0 427.0Q411 471 466.0 517.5Q521 564 572.0 608.0Q623 652 664.0 688.0Q705 724 728.5 745.5Q752 767 752 768Q747 773 731.0 776.0Q715 779 709 777Q708 777 684.0 756.5Q660 736 620.5 702.5Q581 669 532.0 627.0Q483 585 431.5 540.5Q380 496 331.5 454.5Q283 413 244.0 379.5Q205 346 182.0 326.5Q159 307 159 307Z" fill="#f0a358" stroke="none" transform="scale(1,-1) translate(0,-256)" /><path d="M427 469Q427 469 428.5 463.5Q430 458 431 452Q434 445 438.5 438.5Q443 432 443 432Q443 432 462.5 449.0Q482 466 513.0 494.0Q544 522 581.5 555.5Q619 589 656.5 622.5Q694 656 725.5 684.0Q757 712 775.5 729.5Q794 747 794 747Q794 748 784.5 750.0Q775 752 765.5 753.5Q756 755 756 755Z" fill="#f0a358" stroke="none" transform="scale(1,-1) translate(0,-256)" /><path d="M449 424Q449 424 452.5 419.5Q456 415 465 407Q473 400 479.5 396.0Q486 392 486 392L850 733L805 743Z" fill="#f0a358" stroke="none" transform="scale(1,-1) translate(0,-256)" /><path d="M497 388Q497 388 504.5 383.5Q512 379 521 376Q531 373 543.5 371.5Q556 370 556 370L913 717L862 728Z" fill="#f0a358" stroke="none" transform="scale(1,-1) translate(0,-256)" /><path d="M569 367Q569 367 578.5 366.0Q588 365 598 364Q612 363 623.0 364.0Q634 365 634 365L975 704L927 712Z" fill="#f0a358" stroke="none" transform="scale(1,-1) translate(0,-256)" /><path d="M651 366Q651 366 663.5 368.0Q676 370 695 374Q711 377 721.0 381.5Q731 386 731 386L1044 691L989 700Z" fill="#f0a358" stroke="none" transform="scale(1,-1) translate(0,-256)" /><path d="M1058 690Q1058 690 1071.0 688.5Q1084 687 1097.5 684.0Q1111 681 1112 678Q1112 677 1088.5 654.0Q1065 631 1025.5 592.5Q986 554 936.0 506.5Q886 459 833.0 409.0Q780 359 730.0 311.5Q680 264 640.0 226.5Q600 189 576.5 166.5Q553 144 553 144L509 160Z" fill="#f0a358" stroke="none" transform="scale(1,-1) translate(0,-256)" /></svg>