<?xml version="1.0" encoding="utf-8" ?>
<svg baseProfile="full" height="256" version="1.1" width="256" xmlns="http://www.w3.org/2000/svg" xmlns:ev="http://www.w3.org/2001/xml-events" xmlns:xlink="http://www.w3.org/1999/xlink"><defs /><path d="M413 462 472 450 465 361Q465 361 459.0 353.0Q453 345 436 345Q422 345 415.0 351.0Q408 357 408 357Z" fill="#af0a1b" stroke="none" transform="scale(1,-1) translate(0,-256)" /><path d="M748 312 797 372 818 292Q818 292 816.5 277.5Q815 263 797 257Q778 250 768.5 257.5Q759 265 759 265Z" fill="#af0a1b" stroke="none" transform="scale(1,-1) translate(0,-256)" /><path d="M993 548 1035 595 1066 533Q1066 533 1064.5 524.0Q1063 515 1049 507Q1037 500 1025.5 502.5Q1014 505 1014 505Z" fill="#af0a1b" stroke="none" transform="scale(1,-1) translate(0,-256)" /></svg>