<?xml version="1.0" encoding="utf-8" ?>
<svg baseProfile="full" height="256" version="1.1" width="256" xmlns="http://www.w3.org/2000/svg" xmlns:ev="http://www.w3.org/2001/xml-events" xmlns:xlink="http://www.w3.org/1999/xlink"><defs /><path d="M422 285Q429 278 436 285L459 309Q466 316 459 323L436 346Q429 353 422 346L398 323Q391 316 398 309Z" fill="#fafafa" stroke="none" transform="scale(1,-1) translate(0,-256)" /><path d="M493 202Q501 209 492 216L469 239Q462 246 455 239L431 216Q424 209 431 202L455 178Q462 171 469 178Z" fill="#fafafa" stroke="none" transform="scale(1,-1) translate(0,-256)" /><path d="M440.0 95.125Q447.0 102.125 440.0 109.125L416.0 132.125Q409.0 139.125 402.0 132.125L379.0 109.125Q372.0 102.125 379.0 95.125L402.0 71.125Q409.0 64.125 416.0 71.125Z" fill="#fafafa" stroke="none" transform="scale(1,-1) translate(0,-256)" /><path d="M785.0756683349609 630.10595703125Q785.0756683349609 662.2380065917969 762.3616333007812 684.3980407714844Q739.6475982666016 706.5580749511719 708.6235504150391 706.5580749511719Q677.5995025634766 706.5580749511719 655.4394683837891 684.3980407714844Q633.2794342041016 662.2380065917969 633.2794342041016 630.10595703125Q633.2794342041016 599.0819091796875 655.4394683837891 576.921875Q677.5995025634766 554.7618408203125 708.6235504150391 554.7618408203125Q739.6475982666016 554.7618408203125 762.3616333007812 576.921875Q785.0756683349609 599.0819091796875 785.0756683349609 630.10595703125Z" fill="#fafafa" stroke="none" transform="scale(1,-1) translate(0,-256)" /><path d="M905 285Q908 275 904.0 264.0Q900 253 891 250Q879 245 868.5 249.5Q858 254 854 266L799 425Q798 428 795.0 427.5Q792 427 792 424V10Q792 -6 781.0 -16.0Q770 -26 755 -25Q741 -24 732.5 -13.5Q724 -3 724 11V259Q724 273 710 273Q696 273 696 259V10Q696 -6 685.0 -16.0Q674 -26 658 -25Q645 -24 636.0 -13.5Q627 -3 627 11V272V422Q627 425 625.0 425.5Q623 426 622 425L575 377Q566 369 555 369H431Q419 369 411.0 378.0Q403 387 404 401Q405 411 413.5 418.0Q422 425 432 425H528Q539 425 547 433L624 505Q638 520 664.5 529.5Q691 539 724 539Q765 539 792.5 527.5Q820 516 833 490Z" fill="#fafafa" stroke="none" transform="scale(1,-1) translate(0,-256)" /></svg>