<?xml version="1.0" encoding="utf-8" ?>
<svg baseProfile="full" height="256" version="1.1" width="256" xmlns="http://www.w3.org/2000/svg" xmlns:ev="http://www.w3.org/2001/xml-events" xmlns:xlink="http://www.w3.org/1999/xlink"><defs /><path d="M1134 435Q1141 422 1155.5 414.5Q1170 407 1182.5 397.5Q1195 388 1195 371Q1195 339 1152.0 311.0Q1109 283 1032.0 261.5Q955 240 854.0 228.0Q753 216 637 216Q522 216 421.0 228.0Q320 240 243.0 261.5Q166 283 123.0 311.0Q80 339 80 371Q80 384 92.0 395.0Q104 406 118.5 416.5Q133 427 141 438Q145 492 164.5 558.0Q184 624 223.0 688.5Q262 753 325.5 805.5Q389 858 481 884V887Q481 898 489.5 905.5Q498 913 510 913H765Q777 913 785.5 905.5Q794 898 794 887V884Q886 857 949.5 804.5Q1013 752 1052.5 686.5Q1092 621 1111.0 555.0Q1130 489 1134 435Z" fill="#f44336" stroke="none" transform="scale(1,-1) translate(0,-256)" /></svg>