<?xml version="1.0" encoding="utf-8" ?>
<svg baseProfile="full" height="256" version="1.1" width="256" xmlns="http://www.w3.org/2000/svg" xmlns:ev="http://www.w3.org/2001/xml-events" xmlns:xlink="http://www.w3.org/1999/xlink"><defs /><path d="M1089 359Q1106 352 1120 333V252Q1120 204 1111 157Q1110 157 1110 157Q1095 166 1077.0 164.5Q1059 163 1046 152Q1040 147 1035.5 140.5Q1031 134 1026 128Q1046 189 1046 252V362Q1069 367 1089 359Z" fill="#4f3320" stroke="none" transform="scale(1,-1) translate(0,-256)" /><path d="M244 142Q208 172 161 175Q155 214 155 252L157 343Q166 348 175.5 351.0Q185 354 195 352Q208 349 217.0 338.5Q226 328 231 315L229 251Q229 196 244 142Z" fill="#4f3320" stroke="none" transform="scale(1,-1) translate(0,-256)" /></svg>