<?xml version="1.0" encoding="utf-8" ?>
<svg baseProfile="full" height="256" version="1.1" width="256" xmlns="http://www.w3.org/2000/svg" xmlns:ev="http://www.w3.org/2001/xml-events" xmlns:xlink="http://www.w3.org/1999/xlink"><defs /><path d="M637 487Q586 487 525.0 479.0Q464 471 401.5 458.5Q339 446 281.5 432.0Q224 418 178.5 405.0Q133 392 106.5 384.5Q80 377 80 377Q77 355 78.5 343.5Q80 332 80 332Q80 300 123.0 271.5Q166 243 243.0 222.0Q320 201 421.0 189.0Q522 177 637 177Q753 177 854.0 189.0Q955 201 1032.0 222.0Q1109 243 1152.0 271.5Q1195 300 1195 332Q1195 332 1196.5 348.5Q1198 365 1194 379Q1194 379 1158.0 390.0Q1122 401 1062.0 417.0Q1002 433 928.5 449.0Q855 465 779.0 476.0Q703 487 637 487Z" fill="#c62828" stroke="none" transform="scale(1,-1) translate(0,-256)" /><path d="M408 586Q402 579 394.5 583.5Q387 588 391 596Q401 620 410.5 653.5Q420 687 421 727Q422 769 414.5 800.5Q407 832 400 852Q438 871 481 884Q481 873 481.0 848.5Q481 824 479.5 796.5Q478 769 475 750Q467 691 447.5 650.5Q428 610 408 586Z" fill="#c62828" stroke="none" transform="scale(1,-1) translate(0,-256)" /><path d="M866 586Q828 633 798 750Q794 769 792.5 796.5Q791 824 791.5 848.5Q792 873 792 884Q836 872 874 852Q867 832 859.5 800.5Q852 769 853 727Q854 687 863.0 653.5Q872 620 883 596Q886 588 879.0 583.5Q872 579 866 586Z" fill="#c62828" stroke="none" transform="scale(1,-1) translate(0,-256)" /></svg>