<?xml version="1.0" encoding="utf-8" ?>
<svg baseProfile="full" height="256" version="1.1" width="256" xmlns="http://www.w3.org/2000/svg" xmlns:ev="http://www.w3.org/2001/xml-events" xmlns:xlink="http://www.w3.org/1999/xlink"><defs /><path d="M353 654Q371 669 377.5 686.5Q384 704 369 725Q347 756 305 727Q272 704 252.5 668.0Q233 632 224 594Q221 579 223.0 566.0Q225 553 241 549Q257 545 266.0 558.5Q275 572 282 582Q313 622 353 654Z" fill="#ff7555" stroke="none" transform="scale(1,-1) translate(0,-256)" /><path d="M404 317Q350 323 319.5 328.5Q289 334 270.5 340.0Q252 346 235.0 353.5Q218 361 193 371Q176 378 163.5 373.0Q151 368 147.0 357.5Q143 347 151 337Q162 323 190.0 311.5Q218 300 254.5 292.0Q291 284 327.5 280.5Q364 277 392 279Q449 283 455.5 296.5Q462 310 404 317Z" fill="#ff7555" stroke="none" transform="scale(1,-1) translate(0,-256)" /></svg>