<?xml version="1.0" encoding="utf-8" ?>
<svg baseProfile="full" height="256" version="1.1" width="256" xmlns="http://www.w3.org/2000/svg" xmlns:ev="http://www.w3.org/2001/xml-events" xmlns:xlink="http://www.w3.org/1999/xlink"><defs /><path d="M229 -196Q229 -196 228 -196Q228 -196 229 -196Z" fill="#738a97" stroke="none" transform="scale(1,-1) translate(0,-256)" /><path d="M237 -197Q235 -197 233.0 -196.5Q231 -196 229 -196Q231 -196 233.0 -196.5Q235 -197 237 -197Z" fill="#738a97" stroke="none" transform="scale(1,-1) translate(0,-256)" /><path d="M225 -195Q222 -195 223 -195Q223 -195 225 -195Z" fill="#738a97" stroke="none" transform="scale(1,-1) translate(0,-256)" /><path d="M228 -196Q226 -195 225 -195Q226 -195 226.5 -195.0Q227 -195 228 -196Z" fill="#738a97" stroke="none" transform="scale(1,-1) translate(0,-256)" /><path d="M249 -199Q246 -199 246 -199Q248 -199 249 -199Z" fill="#738a97" stroke="none" transform="scale(1,-1) translate(0,-256)" /><path d="M255 -200Q251 -200 249 -199Q251 -199 252.5 -199.5Q254 -200 255 -200Z" fill="#738a97" stroke="none" transform="scale(1,-1) translate(0,-256)" /><path d="M243 -198Q242 -198 240.0 -197.5Q238 -197 237 -197Q238 -197 239.5 -197.5Q241 -198 243 -198Z" fill="#738a97" stroke="none" transform="scale(1,-1) translate(0,-256)" /><path d="M246 -199Q245 -199 243 -198Q244 -198 244.5 -198.0Q245 -198 246 -199Z" fill="#738a97" stroke="none" transform="scale(1,-1) translate(0,-256)" /><path d="M221 -194Q221 -194 221 -194Q221 -194 221 -194Z" fill="#738a97" stroke="none" transform="scale(1,-1) translate(0,-256)" /><path d="M552 -50Q549 -52 546.0 -54.5Q543 -57 540 -60Q545 -55 552 -50Z" fill="#738a97" stroke="none" transform="scale(1,-1) translate(0,-256)" /><path d="M255 -200Q255 -200 256 -200Q256 -200 255 -200Z" fill="#738a97" stroke="none" transform="scale(1,-1) translate(0,-256)" /><path d="M223 -195Q222 -195 222.0 -195.0Q222 -195 221 -194Q221 -194 223 -195Z" fill="#738a97" stroke="none" transform="scale(1,-1) translate(0,-256)" /><path d="M258 -201Q259 -201 259.0 -201.0Q259 -201 259 -201Q259 -201 259.0 -201.0Q259 -201 258 -201Z" fill="#738a97" stroke="none" transform="scale(1,-1) translate(0,-256)" /><path d="M257 -200Q257 -200 258 -201Q258 -201 257 -200Z" fill="#738a97" stroke="none" transform="scale(1,-1) translate(0,-256)" /><path d="M709 25Q741 11 764.0 5.0Q787 -1 787 -1Q749 -11 718.5 -11.0Q688 -11 662.0 -11.0Q636 -11 609.5 -18.5Q583 -26 552 -50Q549 -52 546.0 -54.5Q543 -57 540 -60Q537 -62 534.0 -64.5Q531 -67 528 -70Q519 -68 510.5 -65.0Q502 -62 493 -59Q499 -53 502.0 -49.5Q505 -46 505 -46Q514 -37 533.0 -25.5Q552 -14 586 1Q603 9 605.5 27.0Q608 45 594 57Q575 74 574.5 84.0Q574 94 570 107Q570 107 585.5 97.5Q601 88 626.0 72.5Q651 57 680 41Q694 32 709 25ZM610 -11Q601 -17 591 -22Q601 -17 610 -11ZM591 -23Q571 -35 552 -50Q571 -35 591 -23ZM678 17Q681 18 683.5 18.5Q686 19 689 20Q686 20 683.5 19.0Q681 18 678 17ZM612 -11Q621 -6 630 -2Q625 -4 620.5 -6.0Q616 -8 612 -11ZM633 -1Q637 1 641.0 3.0Q645 5 650 7Q642 4 633 -1ZM654 9Q663 12 669 14Q666 13 662.0 11.5Q658 10 654 9Z" fill="#738a97" stroke="none" transform="scale(1,-1) translate(0,-256)" /></svg>