<?xml version="1.0" encoding="utf-8" ?>
<svg baseProfile="full" height="256" version="1.1" width="256" xmlns="http://www.w3.org/2000/svg" xmlns:ev="http://www.w3.org/2001/xml-events" xmlns:xlink="http://www.w3.org/1999/xlink"><defs /><path d="M735.4833374023438 442.31993103027344Q674.0551300048828 503.7373504638672 610.8039779663086 548.1265029907227Q547.5528259277344 592.5156555175781 490.38484954833984 617.4446487426758Q433.2168731689453 642.3736419677734 388.82205963134766 643.5860366821289Q344.42724609375 644.7984313964844 319.49542236328125 619.8622283935547Q295.17169189453125 595.5342254638672 296.39188385009766 551.1396255493164Q297.61207580566406 506.7450256347656 322.24706268310547 449.27732849121094Q346.8820495605469 391.80963134765625 391.5863571166992 328.87037658691406Q436.29066467285156 265.9311218261719 497.7188720703125 204.51370239257812Q559.1470794677734 143.09628295898438 622.0941848754883 98.40303039550781Q685.0412902832031 53.70977783203125 742.2092132568359 29.388931274414062Q799.3771362304688 5.068084716796875 844.0760498046875 3.5516433715820312Q888.7749633789062 2.0352020263671875 913.0986938476562 26.363204956054688Q938.030517578125 51.299407958984375 936.5062255859375 95.99805450439453Q934.98193359375 140.6967010498047 910.3470001220703 197.5562515258789Q885.7120666503906 254.41580200195312 841.3118057250977 317.6591567993164Q796.9115447998047 380.9025115966797 735.4833374023438 442.31993103027344Z" fill="#54646d" stroke="none" transform="scale(1,-1) translate(0,-256)" /><path d="M439 -156Q432 -163 426.5 -168.5Q421 -174 416 -179Q427 -168 439 -156Z" fill="#54646d" stroke="none" transform="scale(1,-1) translate(0,-256)" /><path d="M376 -213Q373 -214 369 -216Q374 -214 376 -213Z" fill="#54646d" stroke="none" transform="scale(1,-1) translate(0,-256)" /><path d="M385 -207Q381 -210 378 -212Q382 -210 385 -207Z" fill="#54646d" stroke="none" transform="scale(1,-1) translate(0,-256)" /><path d="M323 -220Q322 -220 321 -220Q321 -220 321.5 -220.0Q322 -220 323 -220Z" fill="#54646d" stroke="none" transform="scale(1,-1) translate(0,-256)" /><path d="M340 -221Q339 -221 337 -221Q338 -221 338.5 -221.0Q339 -221 340 -221Z" fill="#54646d" stroke="none" transform="scale(1,-1) translate(0,-256)" /><path d="M365.4335632324219 -216.86724853515625Q361.81105041503906 -217.90609741210938 358.0401306152344 -218.4274444580078Q361.2935485839844 -218.05450439453125 365.4335632324219 -216.86724853515625Z" fill="#54646d" stroke="none" transform="scale(1,-1) translate(0,-256)" /></svg>