<?xml version="1.0" encoding="utf-8" ?>
<svg baseProfile="full" height="256" version="1.1" width="256" xmlns="http://www.w3.org/2000/svg" xmlns:ev="http://www.w3.org/2001/xml-events" xmlns:xlink="http://www.w3.org/1999/xlink"><defs /><path d="M931 9Q969 48 954.5 115.5Q940 183 882.5 268.0Q825 353 735 442Q646 532 561.5 589.5Q477 647 409.0 661.5Q341 676 302 637Q273 608 272.0 560.0Q271 512 295.5 451.0Q320 390 367.0 322.5Q414 255 481 188Q548 120 615.5 73.0Q683 26 744.0 2.0Q805 -22 853.5 -21.0Q902 -20 931 9ZM337 603Q361 627 420.0 615.0Q479 603 557.5 555.0Q636 507 718 425Q801 343 848.5 264.5Q896 186 908.0 126.5Q920 67 896 43Q872 19 813.0 31.5Q754 44 675.5 91.5Q597 139 515 222Q432 304 384.5 382.5Q337 461 325.0 520.0Q313 579 337 603Z" fill="#b3d0e0" stroke="none" transform="scale(1,-1) translate(0,-256)" /></svg>