<?xml version="1.0" encoding="utf-8" ?>
<svg baseProfile="full" height="256" version="1.1" width="256" xmlns="http://www.w3.org/2000/svg" xmlns:ev="http://www.w3.org/2001/xml-events" xmlns:xlink="http://www.w3.org/1999/xlink"><defs /><path d="M807 -1Q820 -2 823.5 -15.0Q827 -28 828 -41Q798 -40 783 -32Q786 -23 792.0 -11.5Q798 0 807 -1Z" fill="#9e9e9e" stroke="none" transform="scale(1,-1) translate(0,-256)" /><path d="M861 -6Q876 -3 888 -38Q877 -40 865.5 -41.0Q854 -42 846 -42Q845 -42 844.0 -42.0Q843 -42 841 -42Q843 -31 847.5 -19.5Q852 -8 861 -6Z" fill="#9e9e9e" stroke="none" transform="scale(1,-1) translate(0,-256)" /></svg>