<?xml version="1.0" encoding="utf-8" ?>
<svg baseProfile="full" height="256" version="1.1" width="256" xmlns="http://www.w3.org/2000/svg" xmlns:ev="http://www.w3.org/2001/xml-events" xmlns:xlink="http://www.w3.org/1999/xlink"><defs /><path d="M1118 320Q1120 278 1134.5 250.5Q1149 223 1169.0 207.5Q1189 192 1206 185Q1197 218 1190.5 252.0Q1184 286 1179 330Q1172 377 1164.0 414.5Q1156 452 1130 491Z" fill="#9b6a57" stroke="none" transform="scale(1,-1) translate(0,-256)" /><path d="M269 128Q263 111 259.0 89.0Q255 67 257 49Q258 34 265.5 20.5Q273 7 287 0Q295 -4 304.0 -6.0Q313 -8 320 -14Q331 -25 325.0 -42.0Q319 -59 305 -65Q290 -71 274.0 -67.0Q258 -63 245 -55Q209 -34 186.5 1.5Q164 37 154.5 79.5Q145 122 147 164Q150 256 180 346Q186 361 191.5 390.0Q197 419 200.5 447.0Q204 475 204 487Q203 505 199.0 514.0Q195 523 194 542Q193 563 202.5 574.0Q212 585 221 602Q226 614 231.5 637.5Q237 661 252.5 690.0Q268 719 304 746Q319 757 322.0 770.5Q325 784 328.5 792.5Q332 801 351 798Q380 793 406.0 781.5Q432 770 458 757Q483 746 506.5 729.0Q530 712 545 689Q569 654 570.5 616.0Q572 578 562.5 543.0Q553 508 543.5 480.5Q534 453 534 439Q535 424 518.5 409.5Q502 395 477 386Q468 382 454.5 375.0Q441 368 433 365Q424 362 398.5 337.5Q373 313 346 275Q320 239 302.5 204.5Q285 170 269 128Z" fill="#9b6a57" stroke="none" transform="scale(1,-1) translate(0,-256)" /><path d="M579 439Q578 419 572.0 410.5Q566 402 558.0 394.5Q550 387 542 373Q536 361 529.0 346.0Q522 331 517.5 319.0Q513 307 513 307Q503 316 498.0 328.0Q493 340 493 340L477 309L454 337L446 309Q446 309 431.5 323.5Q417 338 409 356Q404 367 402.0 386.0Q400 405 409 416Z" fill="#9b6a57" stroke="none" transform="scale(1,-1) translate(0,-256)" /><path d="M392 857Q424 867 453.0 869.5Q482 872 513 862Q541 853 564.5 831.5Q588 810 606 781Q613 770 623.5 755.0Q634 740 644 733Q635 721 622.0 722.0Q609 723 609 723Q624 695 625 667Q625 658 612.0 650.0Q599 642 580.0 636.5Q561 631 543.0 629.0Q525 627 514 630Q443 647 403.0 665.5Q363 684 344.5 699.5Q326 715 321.0 724.5Q316 734 316 734Q313 736 301.0 737.0Q289 738 274.5 738.0Q260 738 249.0 738.0Q238 738 238 738Q255 768 273.5 782.5Q292 797 320 801Q304 801 296.5 813.0Q289 825 287.5 836.5Q286 848 286 848Q286 848 313.0 844.5Q340 841 392 857Z" fill="#9b6a57" stroke="none" transform="scale(1,-1) translate(0,-256)" /><path d="M569 667Q548 656 539.0 644.5Q530 633 523 612Q505 558 508.0 518.0Q511 478 520.5 454.5Q530 431 533 427Q539 414 557.5 397.0Q576 380 594 373Q594 373 601.5 390.0Q609 407 620.5 430.5Q632 454 644 472Q646 468 651.0 457.0Q656 446 657 440Q657 440 667.0 453.5Q677 467 686.5 489.5Q696 512 694 540Q694 540 706.5 525.5Q719 511 728 499Q728 499 731.0 519.0Q734 539 732.5 568.0Q731 597 716.0 625.0Q701 653 666 670Q647 679 618.0 678.5Q589 678 569 667Z" fill="#9b6a57" stroke="none" transform="scale(1,-1) translate(0,-256)" /></svg>