<?xml version="1.0" encoding="utf-8" ?>
<svg baseProfile="full" height="256" version="1.1" width="256" xmlns="http://www.w3.org/2000/svg" xmlns:ev="http://www.w3.org/2001/xml-events" xmlns:xlink="http://www.w3.org/1999/xlink"><defs /><path d="M222 129 322 371 376 315Q376 315 377.0 301.0Q378 287 375.0 265.5Q372 244 359 219Q339 180 315.5 161.0Q292 142 270.5 135.5Q249 129 235.5 129.0Q222 129 222 129Z" fill="#f7cc93" stroke="none" transform="scale(1,-1) translate(0,-256)" /><path d="M231 130 225 224Q225 224 210.5 218.0Q196 212 173.5 215.0Q151 218 127 245Q115 257 111.5 283.0Q108 309 109.0 332.5Q110 356 110 363Q111 377 103.0 382.0Q95 387 88 374Q84 367 78.0 342.5Q72 318 69.0 287.0Q66 256 72 230Q81 192 103.5 171.5Q126 151 152.5 142.0Q179 133 201.0 131.0Q223 129 231 130Z" fill="#f7cc93" stroke="none" transform="scale(1,-1) translate(0,-256)" /></svg>