<?xml version="1.0" encoding="utf-8" ?>
<svg baseProfile="full" height="256" version="1.1" width="256" xmlns="http://www.w3.org/2000/svg" xmlns:ev="http://www.w3.org/2001/xml-events" xmlns:xlink="http://www.w3.org/1999/xlink"><defs /><path d="M381 392Q371 388 363 384Q347 365 342.0 341.0Q337 317 339 306Q342 291 350.0 288.5Q358 286 365.0 291.0Q372 296 372 303Q372 307 374.0 325.5Q376 344 378.0 363.5Q380 383 381 392Z" fill="#b55e19" stroke="none" transform="scale(1,-1) translate(0,-256)" /><path d="M512 566Q515 560 516.5 551.0Q518 542 518 526Q518 516 517.0 492.0Q516 468 514.0 441.0Q512 414 510.5 393.5Q509 373 509 371Q508 360 515.0 356.0Q522 352 529.0 355.0Q536 358 537 371Q538 380 539.5 403.0Q541 426 542.5 453.0Q544 480 545.0 501.5Q546 523 546 530Q546 531 545 532Q540 556 512 566Z" fill="#b55e19" stroke="none" transform="scale(1,-1) translate(0,-256)" /><path d="M701 529Q699 567 697.5 617.0Q696 667 694.0 716.0Q692 765 689.0 803.0Q686 841 680 856Q669 884 641 892Q639 886 643 884Q660 873 661 836Q661 829 661.5 793.5Q662 758 663.0 706.5Q664 655 665.0 598.5Q666 542 667.0 491.5Q668 441 668.5 408.5Q669 376 669 373Q670 363 678.0 359.5Q686 356 694.0 359.5Q702 363 702 373Q702 381 702.0 403.0Q702 425 702.0 451.5Q702 478 701.5 499.5Q701 521 701 528Q701 528 701 529Z" fill="#b55e19" stroke="none" transform="scale(1,-1) translate(0,-256)" /><path d="M796 556Q805 544 807 528Q809 517 811.0 493.0Q813 469 815.0 442.0Q817 415 819.0 393.5Q821 372 821 366Q822 354 835.0 354.0Q848 354 847 369Q846 379 844.0 402.0Q842 425 840.0 449.0Q838 473 837 485Q837 489 836.5 492.5Q836 496 836 500Q832 520 821.0 534.0Q810 548 796 556Z" fill="#b55e19" stroke="none" transform="scale(1,-1) translate(0,-256)" /><path d="M922 512Q928 500 934.0 478.0Q940 456 943 433Q945 422 948.0 390.5Q951 359 954.0 320.0Q957 281 959.5 247.5Q962 214 962 198Q962 182 960.5 168.5Q959 155 954 141Q951 132 940.0 103.5Q929 75 911.5 40.0Q894 5 871 -25Q861 -38 855.5 -50.0Q850 -62 850 -79Q851 -88 850.5 -97.5Q850 -107 850 -117Q850 -125 850.0 -132.0Q850 -139 850 -144Q851 -154 858.5 -163.0Q866 -172 873 -165Q875 -162 875 -157Q875 -149 875.5 -134.5Q876 -120 876.5 -106.5Q877 -93 877 -87Q877 -78 881.5 -63.5Q886 -49 895 -39Q912 -21 928.5 8.5Q945 38 957.5 67.0Q970 96 976 114Q977 116 977 118Q985 142 990.0 168.5Q995 195 989 241Q983 288 976.0 338.0Q969 388 960.5 429.5Q952 471 939 493Q932 505 922 512Z" fill="#b55e19" stroke="none" transform="scale(1,-1) translate(0,-256)" /></svg>