<?xml version="1.0" encoding="utf-8" ?>
<svg baseProfile="full" height="256" version="1.1" width="256" xmlns="http://www.w3.org/2000/svg" xmlns:ev="http://www.w3.org/2001/xml-events" xmlns:xlink="http://www.w3.org/1999/xlink"><defs /><path d="M1070 -91Q1070 -104 1057.0 -115.0Q1044 -126 1022 -133Q1025 -139 1025 -145Q1025 -164 1003.0 -180.0Q981 -196 943.5 -206.0Q906 -216 861 -216Q816 -216 778.5 -206.0Q741 -196 719.0 -180.0Q697 -164 697 -144Q697 -126 725.5 -110.5Q754 -95 786 -86L809 441Q810 442 826.5 445.0Q843 448 859.0 450.5Q875 453 876 453Q876 453 887.0 446.5Q898 440 913.0 431.5Q928 423 939.5 416.5Q951 410 951 409L953 -36Q1002 -38 1036.0 -53.5Q1070 -69 1070 -91Z" fill="#29b6f6" stroke="none" transform="scale(1,-1) translate(0,-256)" /><path d="M494 -86Q526 -95 554.5 -110.5Q583 -126 583 -144Q583 -164 561.0 -180.0Q539 -196 501.5 -206.0Q464 -216 419 -216Q373 -216 336.0 -206.0Q299 -196 277.0 -180.0Q255 -164 255 -145Q255 -139 257 -133Q235 -126 222.5 -114.5Q210 -103 210 -90Q210 -69 244.0 -53.5Q278 -38 327 -36L338 411Q338 412 351.0 421.5Q364 431 377.5 441.0Q391 451 393 452Q394 452 408.0 451.5Q422 451 428 448Q431 447 443.0 445.5Q455 444 466.5 442.5Q478 441 480 440Z" fill="#29b6f6" stroke="none" transform="scale(1,-1) translate(0,-256)" /></svg>