<?xml version="1.0" encoding="utf-8" ?>
<svg baseProfile="full" height="256" version="1.1" width="256" xmlns="http://www.w3.org/2000/svg" xmlns:ev="http://www.w3.org/2001/xml-events" xmlns:xlink="http://www.w3.org/1999/xlink"><defs /><path d="M731 898Q891 872 1018 745Q1189 574 1176 354Q1170 255 1125.5 160.5Q1081 66 1004 -10Q941 -74 859.5 -118.5Q778 -163 686.0 -178.5Q594 -194 500 -171Q588 -186 673.5 -167.5Q759 -149 835.0 -106.0Q911 -63 971 -4Q1048 73 1092.5 167.0Q1137 261 1143 360Q1150 468 1110.0 567.5Q1070 667 985 751Q871 865 731 898Z" fill="#eb8f00" stroke="none" transform="scale(1,-1) translate(0,-256)" /><path d="M705 295Q666 253 627.0 225.0Q588 197 540 164Q528 156 515.5 148.0Q503 140 491 133L478 126Q473 123 469 120Q461 113 457 103Q449 81 457 58Q464 43 481.0 31.0Q498 19 511.0 12.0Q524 5 519 7Q519 7 503.5 9.5Q488 12 468.5 20.0Q449 28 436 44Q410 77 427 116Q434 133 449 144Q456 149 464 153L477 160Q499 173 525 188Q614 241 689 313L690 314Q763 391 817 481Q824 493 831.0 505.0Q838 517 845 530L851 542Q855 549 861 556Q872 571 889 579Q927 597 961 571Q976 559 983.0 544.0Q990 529 996 515Q996 514 998.5 503.0Q1001 492 1001 492Q1003 488 996.0 499.5Q989 511 976.0 526.5Q963 542 948 549Q925 557 902 549Q892 545 886 537Q882 533 879 527L872 515Q857 489 841 466Q809 418 778.5 377.0Q748 336 707 296Z" fill="#eb8f00" stroke="none" transform="scale(1,-1) translate(0,-256)" /></svg>