<?xml version="1.0" encoding="utf-8" ?>
<svg baseProfile="full" height="256" version="1.1" width="256" xmlns="http://www.w3.org/2000/svg" xmlns:ev="http://www.w3.org/2001/xml-events" xmlns:xlink="http://www.w3.org/1999/xlink"><defs /><path d="M944 579Q963 573 974.0 556.5Q985 540 992 521Q1030 419 1003.0 313.0Q976 207 890 121L889 120Q803 34 696.5 7.0Q590 -20 488 18Q470 25 453.0 35.5Q436 46 431 66Q425 85 433.5 103.5Q442 122 461 130Q593 203 700 310Q807 417 880 549Q888 568 906.5 576.5Q925 585 944 579Z" fill="#422b0d" stroke="none" transform="scale(1,-1) translate(0,-256)" /><path d="M882 129 881 128Z" fill="#422b0d" stroke="none" transform="scale(1,-1) translate(0,-256)" /><path d="M709 303 707 301 708 302Z" fill="#422b0d" stroke="none" transform="scale(1,-1) translate(0,-256)" /><path d="M719 658Q733 669 749.5 669.5Q766 670 777 659Q791 644 787.5 622.0Q784 600 767 587L763 584L569 461Q565 457 559 459Q550 462 553 471Q555 489 558.0 520.0Q561 551 564.5 585.5Q568 620 571.0 651.5Q574 683 576 703Q577 721 588.5 734.5Q600 748 617 753Q625 755 632 754Q648 751 657.5 738.0Q667 725 665 709Q665 707 664 704L632 581Z" fill="#422b0d" stroke="none" transform="scale(1,-1) translate(0,-256)" /><path d="M320 212Q312 196 314.5 179.5Q317 163 330 154Q347 143 368.0 150.0Q389 157 399 176Q400 178 401 181L490 392Q493 396 491 401Q487 410 478 406L253 345Q236 340 224.0 327.0Q212 314 211 296Q210 288 213 281Q218 265 232.5 258.0Q247 251 263 256L266 258L383 310Z" fill="#422b0d" stroke="none" transform="scale(1,-1) translate(0,-256)" /></svg>