<?xml version="1.0" encoding="utf-8" ?>
<svg baseProfile="full" height="256" version="1.1" width="256" xmlns="http://www.w3.org/2000/svg" xmlns:ev="http://www.w3.org/2001/xml-events" xmlns:xlink="http://www.w3.org/1999/xlink"><defs /><path d="M936 289Q969 289 995.5 272.0Q1022 255 1038.0 226.5Q1054 198 1054 164Q1054 130 1038.0 101.5Q1022 73 995.5 56.0Q969 39 936 39H856H419H339Q306 39 279.5 56.0Q253 73 237.0 101.5Q221 130 221 164Q221 198 237.0 226.5Q253 255 279.5 272.0Q306 289 339 289H419H856Z" fill="#e59600" stroke="none" transform="scale(1,-1) translate(0,-256)" /></svg>