<?xml version="1.0" encoding="utf-8" ?>
<svg baseProfile="full" height="256" version="1.1" width="256" xmlns="http://www.w3.org/2000/svg" xmlns:ev="http://www.w3.org/2001/xml-events" xmlns:xlink="http://www.w3.org/1999/xlink"><defs /><path d="M1073 663 1128 629Q1154 656 1171.0 686.5Q1188 717 1183.5 752.0Q1179 787 1142 829Q1113 862 1082.0 873.5Q1051 885 1022.5 881.5Q994 878 970.0 866.0Q946 854 929 839L776 724Q768 714 774.5 704.5Q781 695 786 691Q800 680 824.5 672.0Q849 664 873 662Q923 657 947.5 669.0Q972 681 984.5 703.0Q997 725 1009 752Q1021 777 1038.5 780.5Q1056 784 1072.5 775.5Q1089 767 1099 756Q1113 738 1108.0 718.0Q1103 698 1091.5 682.5Q1080 667 1073 663Z" fill="#2f7889" stroke="none" transform="scale(1,-1) translate(0,-256)" /><path d="M338 -72Q339 -71 341.5 -82.0Q344 -93 343.0 -110.0Q342 -127 334.0 -144.0Q326 -161 306 -172Q266 -195 236.5 -198.5Q207 -202 207 -202Q207 -202 219.0 -200.0Q231 -198 249.0 -189.0Q267 -180 285 -160Q306 -135 310.5 -112.0Q315 -89 315 -89Q315 -89 322.5 -83.5Q330 -78 338 -72Z" fill="#2f7889" stroke="none" transform="scale(1,-1) translate(0,-256)" /><path d="M186 37Q186 37 191.0 37.5Q196 38 199 38Q220 38 240 30Q237 30 235 29Q224 25 221.5 10.0Q219 -5 226 -19Q226 -19 212.5 -15.0Q199 -11 174 -18Q151 -25 142.0 -41.0Q133 -57 131.5 -72.0Q130 -87 129 -93Q127 -88 126.5 -70.0Q126 -52 138.0 -24.5Q150 3 186 37Z" fill="#2f7889" stroke="none" transform="scale(1,-1) translate(0,-256)" /><path d="M969 533 956 518Q974 508 977.5 494.5Q981 481 978.0 470.5Q975 460 975 460L1024 520Z" fill="#2f7889" stroke="none" transform="scale(1,-1) translate(0,-256)" /><path d="M772 714Q772 714 776.0 712.5Q780 711 782 713Q785 714 793.0 711.5Q801 709 826 695Q843 685 861.5 683.5Q880 682 892.5 683.5Q905 685 905 685Q905 685 893.0 686.5Q881 688 864.0 692.5Q847 697 833 707Q819 716 805.0 723.0Q791 730 781 727Q773 725 772.5 719.5Q772 714 772 714Z" fill="#2f7889" stroke="none" transform="scale(1,-1) translate(0,-256)" /></svg>