<?xml version="1.0" encoding="utf-8" ?>
<svg baseProfile="full" height="256" version="1.1" width="256" xmlns="http://www.w3.org/2000/svg" xmlns:ev="http://www.w3.org/2001/xml-events" xmlns:xlink="http://www.w3.org/1999/xlink"><defs /><path d="M176 88Q176 88 164.0 74.0Q152 60 136.0 38.5Q120 17 106.5 -8.0Q93 -33 90 -55Q85 -100 97.0 -125.0Q109 -150 126 -155Q126 -155 120.0 -145.5Q114 -136 110.5 -114.0Q107 -92 114 -55Q120 -25 137.5 2.5Q155 30 168.5 52.0Q182 74 176 88Z" fill="#94d1e0" stroke="none" transform="scale(1,-1) translate(0,-256)" /><path d="M294 217Q286 214 296.5 230.0Q307 246 329.5 273.0Q352 300 380.0 330.5Q408 361 435 388Q473 426 509.5 460.0Q546 494 573.5 516.0Q601 538 612 541Q619 543 607.5 528.0Q596 513 573.5 489.0Q551 465 524.0 437.5Q497 410 473.5 386.5Q450 363 436 350Q419 334 398.0 312.5Q377 291 356.5 269.5Q336 248 319.5 233.5Q303 219 294 217Z" fill="#94d1e0" stroke="none" transform="scale(1,-1) translate(0,-256)" /><path d="M986 565Q975 554 977.0 547.0Q979 540 992.0 541.5Q1005 543 1025 560Q1051 581 1075.0 609.0Q1099 637 1124 674Q1140 699 1139.5 719.5Q1139 740 1130 754Q1128 758 1124.5 756.5Q1121 755 1122 751Q1124 739 1121.5 724.0Q1119 709 1108 693Q1093 672 1070.0 647.0Q1047 622 1024.0 599.5Q1001 577 986 565Z" fill="#94d1e0" stroke="none" transform="scale(1,-1) translate(0,-256)" /></svg>