<?xml version="1.0" encoding="utf-8" ?>
<svg baseProfile="full" height="256" version="1.1" width="256" xmlns="http://www.w3.org/2000/svg" xmlns:ev="http://www.w3.org/2001/xml-events" xmlns:xlink="http://www.w3.org/1999/xlink"><defs /><path d="M113 689 199 724 265 658Q265 658 264.0 646.0Q263 634 258.0 622.5Q253 611 242 610Q233 610 228.0 619.5Q223 629 221.0 641.5Q219 654 218.5 664.0Q218 674 218 674L208 683Q208 683 208.0 669.5Q208 656 204.0 644.0Q200 632 187 637Q175 642 173.0 655.5Q171 669 173.5 681.0Q176 693 176 693L165 684Q165 684 163.0 675.0Q161 666 156.0 657.0Q151 648 141 648Q132 649 125.5 659.0Q119 669 116.0 679.0Q113 689 113 689Z" fill="#ffffff" stroke="none" transform="scale(1,-1) translate(0,-256)" /><path d="M292 516 246 466 197 476Q197 476 198.0 487.0Q199 498 203.0 510.0Q207 522 217 524Q226 526 230.5 517.0Q235 508 236.5 498.5Q238 489 238 489H246Q246 489 248.0 500.5Q250 512 251 519Q253 552 270 556Q280 558 284.5 548.0Q289 538 290.5 527.0Q292 516 292 516Z" fill="#ffffff" stroke="none" transform="scale(1,-1) translate(0,-256)" /><path d="M165 472 153 470Q153 470 152.5 482.0Q152 494 152 499Q152 504 153.0 511.0Q154 518 160 517Q165 516 165.5 505.0Q166 494 165.5 483.0Q165 472 165 472Z" fill="#ffffff" stroke="none" transform="scale(1,-1) translate(0,-256)" /></svg>