<?xml version="1.0" encoding="utf-8" ?>
<svg baseProfile="full" height="256" version="1.1" width="256" xmlns="http://www.w3.org/2000/svg" xmlns:ev="http://www.w3.org/2001/xml-events" xmlns:xlink="http://www.w3.org/1999/xlink"><defs /><path d="M89 655Q89 655 89.0 646.0Q89 637 93.0 627.0Q97 617 110 613Q122 609 130.5 616.5Q139 624 139 624Q139 624 140.5 610.5Q142 597 156 592Q166 587 175.0 597.5Q184 608 184 608Q184 608 184.5 593.5Q185 579 201 574Q211 571 219.0 576.0Q227 581 231.5 587.5Q236 594 236 594L168 643Z" fill="#e8dd9e" stroke="none" transform="scale(1,-1) translate(0,-256)" /></svg>