<?xml version="1.0" encoding="utf-8" ?>
<svg baseProfile="full" height="256" version="1.1" width="256" xmlns="http://www.w3.org/2000/svg" xmlns:ev="http://www.w3.org/2001/xml-events" xmlns:xlink="http://www.w3.org/1999/xlink"><defs /><path d="M489 175 517 166Q517 166 516.5 156.5Q516 147 513.0 138.0Q510 129 501 131Q492 133 490.0 144.0Q488 155 488.5 165.0Q489 175 489 175Z" fill="#e3d9a8" stroke="none" transform="scale(1,-1) translate(0,-256)" /><path d="M539 149 564 162Q564 162 566.0 151.0Q568 140 567.5 128.0Q567 116 558 115Q550 113 545.5 122.0Q541 131 540.0 140.0Q539 149 539 149Z" fill="#e3d9a8" stroke="none" transform="scale(1,-1) translate(0,-256)" /></svg>