<?xml version="1.0" encoding="utf-8" ?>
<svg baseProfile="full" height="256" version="1.1" width="256" xmlns="http://www.w3.org/2000/svg" xmlns:ev="http://www.w3.org/2001/xml-events" xmlns:xlink="http://www.w3.org/1999/xlink"><defs /><path d="M362 659 364 553 216 464 132 482Q132 482 146.5 491.5Q161 501 177.0 512.5Q193 524 199 529Q215 545 225.5 560.5Q236 576 236 576Q236 576 222.5 585.5Q209 595 193.0 606.5Q177 618 169 622Q161 627 146.0 631.0Q131 635 116.5 638.5Q102 642 97 644Q88 646 84.5 650.5Q81 655 80 659Q79 662 84.0 671.5Q89 681 94.0 689.5Q99 698 99 698L153 705Z" fill="#ff631a" stroke="none" transform="scale(1,-1) translate(0,-256)" /></svg>