<?xml version="1.0" encoding="utf-8" ?>
<svg baseProfile="full" height="256" version="1.1" width="256" xmlns="http://www.w3.org/2000/svg" xmlns:ev="http://www.w3.org/2001/xml-events" xmlns:xlink="http://www.w3.org/1999/xlink"><defs /><path d="M470 592Q466 587 467.5 573.0Q469 559 465.5 536.5Q462 514 441 483Q422 454 396.0 444.0Q370 434 341.5 431.5Q313 429 287 425Q261 420 247.0 414.5Q233 409 223.5 405.0Q214 401 199 399Q182 397 165.0 405.0Q148 413 141 422Q136 429 133.0 441.5Q130 454 128.0 464.5Q126 475 122 475Q112 476 116 460Q117 454 119.5 439.5Q122 425 132.5 410.5Q143 396 168 388Q193 381 214.0 384.5Q235 388 253.0 395.0Q271 402 286 404Q302 406 315.5 404.5Q329 403 346.5 403.5Q364 404 391 409Q431 418 455.0 438.5Q479 459 486 484Q497 516 494.5 543.0Q492 570 484.0 584.0Q476 598 470 592Z" fill="#586214" stroke="none" transform="scale(1,-1) translate(0,-256)" /></svg>