<?xml version="1.0" encoding="utf-8" ?>
<svg baseProfile="full" height="256" version="1.1" width="256" xmlns="http://www.w3.org/2000/svg" xmlns:ev="http://www.w3.org/2001/xml-events" xmlns:xlink="http://www.w3.org/1999/xlink"><defs /><path d="M497.6946258544922 104.29367065429688Q497.6946258544922 104.29367065429688 507.27134704589844 91.16325378417969Q516.8480682373047 78.0328369140625 532.5649642944336 57.318878173828125Q548.2818603515625 36.60491943359375 567.5028228759766 15.3436279296875Q589.7904968261719 -9.95941162109375 613.8410949707031 -20.284881591796875Q637.8916931152344 -30.6103515625 642.6673126220703 -23.674163818359375Q645.0888824462891 -17.706298828125 641.3432693481445 -6.1547088623046875Q637.59765625 5.396881103515625 633.4484481811523 15.953826904296875Q629.2992401123047 26.510772705078125 630.8866119384766 28.489532470703125Q633.2541656494141 30.457763671875 654.6956634521484 29.168319702148438Q676.1371612548828 27.878875732421875 708.5349655151367 28.941802978515625Q740.9327697753906 30.004730224609375 773.082275390625 41.57196044921875Q822.4497985839844 56.907196044921875 840.6708145141602 77.16316223144531Q858.8918304443359 97.41912841796875 856.6458129882812 104.4500732421875Q854.3997955322266 111.48101806640625 831.0753631591797 117.79632568359375Q807.7509307861328 124.11163330078125 775.1723480224609 138.55255126953125Q743.3604431152344 151.9830322265625 729.0621185302734 162.17689514160156Q714.7637939453125 172.37075805664062 714.7637939453125 172.37075805664062Q714.7637939453125 172.37075805664062 726.5407943725586 177.7123260498047Q738.3177947998047 183.05389404296875 755.2064895629883 191.32675170898438Q772.0951843261719 199.599609375 788.6275482177734 210.37750244140625Q804.3797302246094 221.16592407226562 820.1724243164062 234.95407104492188Q835.9651184082031 248.74221801757812 846.6596221923828 260.59898376464844Q857.3541259765625 272.45574951171875 857.4081420898438 276.45538330078125Q857.462158203125 280.45501708984375 846.9904708862305 285.09674072265625Q836.5187835693359 289.73846435546875 825.6367492675781 292.8855895996094Q814.7547149658203 296.03271484375 814.7547149658203 296.03271484375Q814.7547149658203 296.03271484375 823.5662841796875 312.91534423828125Q832.3778533935547 329.7979736328125 843.6244964599609 353.64837646484375Q854.8711395263672 377.498779296875 862.95654296875 398.3915710449219Q870.2482604980469 418.29498291015625 879.228630065918 447.6764678955078Q888.2089996337891 477.0579528808594 892.4407577514648 501.50306701660156Q896.6725158691406 525.9481811523438 889.7589111328125 534.0422058105469Q883.6119842529297 541.1257934570312 862.8696441650391 536.4052581787109Q842.1273040771484 531.6847229003906 818.9768981933594 521.9962310791016Q795.8264923095703 512.3077392578125 780.9085083007812 505.5084228515625Q766.7707061767578 498.6985778808594 752.2023010253906 488.89427185058594Q737.6338958740234 479.0899658203125 727.7735900878906 471.22230529785156Q717.9132843017578 463.3546447753906 717.9132843017578 463.3546447753906Q717.9132843017578 463.3546447753906 717.6582336425781 473.35899353027344Q717.4031829833984 483.36334228515625 715.9373474121094 490.3837585449219Q715.2516937255859 497.3936462402344 711.4925765991211 507.94532775878906Q707.7334594726562 518.4970092773438 704.6532440185547 521.5388488769531Q702.3397064208984 523.5702514648438 692.4051284790039 510.2030944824219Q682.4705505371094 496.8359375 668.9103698730469 475.0169372558594Q655.3501892089844 453.19793701171875 643.3368682861328 430.35797119140625Q625.7002258300781 395.5928039550781 615.5900955200195 369.2268371582031Q605.4799652099609 342.8608703613281 596.9384765625 345.9764099121094Q589.1636657714844 348.0815124511719 591.8013000488281 370.04791259765625Q594.4389343261719 392.0143127441406 599.4711303710938 417.9487609863281Q602.8214263916016 434.90509033203125 612.1446228027344 460.78163146972656Q621.4678192138672 486.6581726074219 631.6387176513672 517.5237274169922Q641.8096160888672 548.3892822265625 647.7165222167969 581.3125610351562Q656.9737243652344 631.1921691894531 650.3909683227539 663.7839508056641Q643.8082122802734 696.375732421875 639.893798828125 695.428466796875Q636.7730712890625 695.4705810546875 627.6524353027344 684.5926666259766Q618.5317993164062 673.7147521972656 610.1980972290039 663.3262634277344Q601.8643951416016 652.9377746582031 601.8643951416016 652.9377746582031Q601.8643951416016 652.9377746582031 601.4015579223633 676.4461517333984Q600.938720703125 699.9545288085938 595.9770965576172 737.0248413085938Q591.0154724121094 774.0951538085938 582.6562881469727 790.7094573974609Q574.2971038818359 807.3237609863281 571.1628723144531 806.365966796875Q568.0421447753906 806.4080810546875 564.430046081543 798.9561462402344Q560.8179473876953 791.5042114257812 557.5959396362305 784.0470123291016Q554.3739318847656 776.5898132324219 554.3739318847656 776.5898132324219Q554.3739318847656 776.5898132324219 551.1196899414062 795.6354522705078Q547.8654479980469 814.6810913085938 541.97509765625 840.762939453125Q535.2910614013672 865.8554077148438 524.2620086669922 887.0061492919922Q513.2329559326172 908.1568908691406 507.7716827392578 908.2305908203125Q503.09059143066406 908.2937622070312 493.9632034301758 896.9158935546875Q484.8358154296875 885.5380249023438 473.57566833496094 860.6877136230469Q466.3379669189453 844.783935546875 461.01696014404297 826.3540649414062Q455.6959533691406 807.9241943359375 453.5699462890625 794.9517059326172Q451.4439392089844 781.9792175292969 451.4439392089844 781.9792175292969Q451.4439392089844 781.9792175292969 446.8708801269531 790.0416564941406Q442.2978210449219 798.1040954589844 436.944580078125 806.1770629882812Q431.5913391113281 814.2500305175781 430.0309753417969 814.2710876464844Q426.11656188964844 813.3238220214844 421.2599182128906 800.38818359375Q416.4032745361328 787.4525451660156 409.6891784667969 752.5399780273438Q405.47767639160156 729.5947265625 404.38690185546875 706.6073608398438Q403.29612731933594 683.6199951171875 403.8669967651367 668.1108856201172Q404.4378662109375 652.6017761230469 404.4378662109375 652.6017761230469Q404.4378662109375 652.6017761230469 396.73057556152344 659.7064208984375Q389.0232849121094 666.8110656738281 379.0092086791992 676.4470672607422Q368.99513244628906 686.0830688476562 360.49415588378906 692.1983337402344Q351.99317932128906 698.3135986328125 350.4058074951172 696.3348388671875Q346.4508819580078 692.3878479003906 344.08180236816406 661.4170074462891Q341.7127227783203 630.4461669921875 347.3870086669922 588.3657836914062Q353.06129455566406 546.285400390625 362.73101806640625 511.1517333984375Q372.40074157714844 476.01806640625 380.68565368652344 453.9042663574219Q392.7094268798828 419.7389221191406 398.93585205078125 389.6521759033203Q405.1622772216797 359.5654296875 395.7190704345703 353.69232177734375Q390.9974670410156 350.7557678222656 381.0441589355469 364.891357421875Q371.0908508300781 379.0269470214844 358.8915252685547 400.1934814453125Q346.69219970703125 421.3600158691406 336.03973388671875 441.5055847167969Q325.38726806640625 461.6511535644531 319.2943572998047 472.734375Q306.3148498535156 493.91143798828125 294.02774810791016 508.5785675048828Q281.7406463623047 523.2456970214844 276.2793731689453 523.3193969726562Q273.1586456298828 523.3615112304688 271.79931640625 509.3785858154297Q270.4399871826172 495.3956604003906 270.6410217285156 481.3916778564453Q270.84205627441406 467.3876953125 270.84205627441406 467.3876953125Q270.84205627441406 467.3876953125 261.5811538696289 475.0133514404297Q252.32025146484375 482.6390075683594 239.58229064941406 492.8118133544922Q226.84432983398438 502.984619140625 216.0163116455078 510.1313781738281Q208.29551696777344 516.2361145019531 192.0197296142578 524.4564819335938Q175.7439422607422 532.6768493652344 157.894287109375 539.9183654785156Q140.0446319580078 547.1598815917969 126.03511810302734 549.8491668701172Q112.02560424804688 552.5384521484375 108.83735656738281 547.5810241699219Q106.44279479980469 543.6129760742188 110.23414611816406 506.55845642089844Q114.02549743652344 469.5039367675781 127.3260498046875 414.3194580078125Q140.64010620117188 360.1348876953125 155.57682037353516 339.43145751953125Q170.51353454589844 318.72802734375 170.51353454589844 318.72802734375Q170.51353454589844 318.72802734375 158.7567901611328 314.8863220214844Q147.0000457763672 311.04461669921875 135.6131362915039 305.6977844238281Q124.22622680664062 300.3509521484375 124.17221069335938 296.351318359375Q124.85786437988281 289.3414306640625 139.06841278076172 272.6481628417969Q153.27896118164062 255.95489501953125 177.9882049560547 236.61972045898438Q194.19647216796875 223.39981079101562 215.09258270263672 210.61668395996094Q235.9886932373047 197.83355712890625 251.49105072021484 190.12367248535156Q266.993408203125 182.41378784179688 266.993408203125 182.41378784179688Q266.993408203125 182.41378784179688 255.58624267578125 175.5670928955078Q244.1790771484375 168.72039794921875 228.06381225585938 159.9370574951172Q211.94854736328125 151.15371704101562 196.25038146972656 144.36492919921875Q174.2432403564453 132.66082763671875 154.66442108154297 127.42454528808594Q135.08560180664062 122.18826293945312 132.63702392578125 114.2205810546875Q130.9686279296875 106.24237060546875 157.5878143310547 83.88114929199219Q184.20700073242188 61.519927978515625 232.335205078125 42.868804931640625Q265.7074737548828 29.417266845703125 294.9575424194336 28.522491455078125Q324.2076110839844 27.627716064453125 342.1923065185547 30.385284423828125Q360.177001953125 33.142852783203125 360.177001953125 33.142852783203125Q360.177001953125 33.142852783203125 356.1207962036133 21.696548461914062Q352.06459045410156 10.250244140625 348.77506256103516 -2.2064971923828125Q345.48553466796875 -14.663238525390625 349.3324279785156 -18.71551513671875Q353.1928253173828 -21.76788330078125 366.15360260009766 -15.44219970703125Q379.1143798828125 -9.11651611328125 395.64674377441406 1.661376953125Q412.1791076660156 12.43927001953125 427.15110778808594 23.23822021484375Q442.12310791015625 34.03717041015625 458.38016510009766 53.319549560546875Q474.63722229003906 72.6019287109375 486.1659240722656 88.44779968261719Q497.6946258544922 104.29367065429688 497.6946258544922 104.29367065429688Z" fill="#000000" stroke="none" transform="scale(1,-1) translate(0,-256)" /></svg>