<?xml version="1.0" encoding="utf-8" ?>
<svg baseProfile="full" height="256" version="1.1" width="256" xmlns="http://www.w3.org/2000/svg" xmlns:ev="http://www.w3.org/2001/xml-events" xmlns:xlink="http://www.w3.org/1999/xlink"><defs /><path d="M592 -195Q589 -181 597.0 -167.5Q605 -154 605 -142Q606 -133 608.0 -111.0Q610 -89 612.5 -62.0Q615 -35 616 -12Q617 5 617.0 28.0Q617 51 617.0 73.0Q617 95 617.0 109.5Q617 124 617 124L655 128Q655 128 655.5 104.5Q656 81 657.0 49.5Q658 18 659 -4Q660 -27 662.0 -59.0Q664 -91 666.5 -117.5Q669 -144 670 -151Q671 -161 677.0 -173.0Q683 -185 682 -197Q682 -208 668.5 -212.0Q655 -216 633 -215Q612 -213 603.0 -207.5Q594 -202 592 -195Z" fill="#df1324" stroke="none" transform="scale(1,-1) translate(0,-256)" /></svg>