<?xml version="1.0" encoding="utf-8" ?>
<svg baseProfile="full" height="256" version="1.1" width="256" xmlns="http://www.w3.org/2000/svg" xmlns:ev="http://www.w3.org/2001/xml-events" xmlns:xlink="http://www.w3.org/1999/xlink"><defs /><path d="M523 555Q524 554 537.5 548.5Q551 543 570.5 535.5Q590 528 610.0 522.5Q630 517 646 517Q666 517 690.0 525.0Q714 533 731.5 542.0Q749 551 750 554Q751 555 751.5 582.5Q752 610 752.0 651.5Q752 693 752.0 740.0Q752 787 751.5 828.0Q751 869 751.0 895.5Q751 922 751 922Q751 922 723.5 922.0Q696 922 642 923Q580 923 550.5 923.0Q521 923 521 923Q521 923 520.5 896.5Q520 870 520.0 828.5Q520 787 520.0 740.5Q520 694 520.0 652.0Q520 610 521.0 583.0Q522 556 523 555Z" fill="#db0d2a" stroke="none" transform="scale(1,-1) translate(0,-256)" /></svg>