<?xml version="1.0" encoding="utf-8" ?>
<svg baseProfile="full" height="256" version="1.1" width="256" xmlns="http://www.w3.org/2000/svg" xmlns:ev="http://www.w3.org/2001/xml-events" xmlns:xlink="http://www.w3.org/1999/xlink"><defs /><path d="M375 920Q376 921 401.0 921.5Q426 922 464 922Q491 922 515.5 916.5Q540 911 567.0 905.5Q594 900 629 900Q656 900 691.0 905.5Q726 911 758.5 916.5Q791 922 812 921Q849 921 873.0 920.5Q897 920 898 919Q899 919 899.5 895.5Q900 872 900.5 838.0Q901 804 901.0 770.0Q901 736 901.0 712.0Q901 688 900 686Q900 683 885.5 669.0Q871 655 850.0 636.0Q829 617 808 599Q793 587 778.0 587.0Q763 587 752.5 591.0Q742 595 741 595Q739 595 718.0 595.0Q697 595 666.5 595.5Q636 596 605.0 596.0Q574 596 552.0 596.5Q530 597 527 597Q524 597 515.0 593.5Q506 590 492.5 590.5Q479 591 463 605Q443 622 423.5 640.0Q404 658 390.5 671.0Q377 684 375 687Q375 688 374.0 712.0Q373 736 372.5 770.0Q372 804 372.0 838.5Q372 873 372.5 896.0Q373 919 375 920Z" fill="#176bc6" stroke="none" transform="scale(1,-1) translate(0,-256)" /></svg>