<?xml version="1.0" encoding="utf-8" ?>
<svg baseProfile="full" height="256" version="1.1" width="256" xmlns="http://www.w3.org/2000/svg" xmlns:ev="http://www.w3.org/2001/xml-events" xmlns:xlink="http://www.w3.org/1999/xlink"><defs /><path d="M317 46H393L392 -46L365 -131H345L317 -53Z" fill="#e4bbab" stroke="none" transform="scale(1,-1) translate(0,-256)" /><path d="M883 45 959 48V-43L931 -128H911L884 -50Z" fill="#e4bbab" stroke="none" transform="scale(1,-1) translate(0,-256)" /><path d="M636 373Q662 372 671.0 357.5Q680 343 680 328Q679 311 668.0 298.0Q657 285 635 286Q612 286 602.0 300.0Q592 314 592 330Q592 349 604.0 361.5Q616 374 636 373Z" fill="#e4bbab" stroke="none" transform="scale(1,-1) translate(0,-256)" /></svg>