<?xml version="1.0" encoding="utf-8" ?>
<svg baseProfile="full" height="256" version="1.1" width="256" xmlns="http://www.w3.org/2000/svg" xmlns:ev="http://www.w3.org/2001/xml-events" xmlns:xlink="http://www.w3.org/1999/xlink"><defs /><path d="M317 48Q317 63 327.0 74.5Q337 86 354 86Q376 86 384.5 73.0Q393 60 393 47Q393 34 384.5 21.0Q376 8 356 8Q333 9 325.0 23.0Q317 37 317 48Z" fill="#9f7cdc" stroke="none" transform="scale(1,-1) translate(0,-256)" /><path d="M921 88Q933 87 946.0 78.5Q959 70 959 48Q958 28 946.5 19.5Q935 11 922 11Q909 10 895.5 19.5Q882 29 883 48Q884 69 896.0 78.5Q908 88 921 88Z" fill="#9f7cdc" stroke="none" transform="scale(1,-1) translate(0,-256)" /><path d="M685 357Q677 371 662 379L669 396Q690 386 700 366Z" fill="#9f7cdc" stroke="none" transform="scale(1,-1) translate(0,-256)" /><path d="M684 300 699 292Q690 276 674 267L665 282Q678 289 684 300Z" fill="#9f7cdc" stroke="none" transform="scale(1,-1) translate(0,-256)" /><path d="M589 299Q597 287 611 281L602 264Q584 272 573 288Z" fill="#9f7cdc" stroke="none" transform="scale(1,-1) translate(0,-256)" /><path d="M597 393 608 376Q594 369 587 356L570 365Q580 383 597 393Z" fill="#9f7cdc" stroke="none" transform="scale(1,-1) translate(0,-256)" /></svg>