<?xml version="1.0" encoding="utf-8" ?>
<svg baseProfile="full" height="256" version="1.1" width="256" xmlns="http://www.w3.org/2000/svg" xmlns:ev="http://www.w3.org/2001/xml-events" xmlns:xlink="http://www.w3.org/1999/xlink"><defs /><path d="M1184 308Q1174 267 1152.0 224.0Q1130 181 1093 151Q1066 129 1037.0 122.5Q1008 116 987.5 124.5Q967 133 967 156Q966 181 986.0 192.5Q1006 204 1024 213Q1038 220 1053.5 225.5Q1069 231 1083 238Q1126 261 1148.0 295.5Q1170 330 1179 359Q1181 364 1186.0 363.0Q1191 362 1191 357Q1189 332 1184 308Z" fill="#61bfe8" stroke="none" transform="scale(1,-1) translate(0,-256)" /><path d="M999 -107Q990 -114 978.5 -121.5Q967 -129 954 -135Q892 -163 825 -155Q799 -152 772.0 -143.5Q745 -135 725 -117Q718 -111 712.5 -102.0Q707 -93 707 -83Q706 -69 716.5 -59.0Q727 -49 742 -50Q765 -52 785.0 -64.0Q805 -76 814 -81Q854 -104 902.0 -108.0Q950 -112 993 -97Q998 -96 1000.5 -100.0Q1003 -104 999 -107Z" fill="#61bfe8" stroke="none" transform="scale(1,-1) translate(0,-256)" /><path d="M313 4Q297 45 271.0 68.5Q245 92 216.0 102.5Q187 113 161.5 114.5Q136 116 121 115Q116 115 114.5 110.5Q113 106 117 103Q128 92 145.5 78.0Q163 64 179.0 44.0Q195 24 202 -5Q207 -26 217.0 -46.5Q227 -67 243.0 -79.5Q259 -92 281 -89Q309 -85 316.5 -67.5Q324 -50 321.0 -29.0Q318 -8 313 4Z" fill="#61bfe8" stroke="none" transform="scale(1,-1) translate(0,-256)" /></svg>