<?xml version="1.0" encoding="utf-8" ?>
<svg baseProfile="full" height="256" version="1.1" width="256" xmlns="http://www.w3.org/2000/svg" xmlns:ev="http://www.w3.org/2001/xml-events" xmlns:xlink="http://www.w3.org/1999/xlink"><defs /><path d="M484 831Q414 831 353.0 805.0Q292 779 245.5 732.5Q199 686 173.0 624.5Q147 563 147 494Q147 424 171.5 364.5Q196 305 240.0 260.5Q284 216 343.5 191.5Q403 167 473 167Q543 167 604.0 193.5Q665 220 711.5 266.5Q758 313 784.0 374.0Q810 435 810 505Q810 575 785.5 634.5Q761 694 717.0 738.0Q673 782 613.5 806.5Q554 831 484 831Z" fill="#81d4fa" stroke="none" transform="scale(1,-1) translate(0,-256)" /></svg>