<?xml version="1.0" encoding="utf-8" ?>
<svg baseProfile="full" height="256" version="1.1" width="256" xmlns="http://www.w3.org/2000/svg" xmlns:ev="http://www.w3.org/2001/xml-events" xmlns:xlink="http://www.w3.org/1999/xlink"><defs /><path d="M1173 181Q1173 239 1131.0 289.5Q1089 340 1015.5 378.5Q942 417 845.0 438.5Q748 460 638 460Q527 460 430.0 438.5Q333 417 259.5 378.5Q186 340 144.0 289.5Q102 239 102 181Q102 124 144.0 73.0Q186 22 259.5 -16.0Q333 -54 430.0 -76.0Q527 -98 638 -98Q748 -98 845.0 -76.0Q942 -54 1015.5 -16.0Q1089 22 1131.0 73.0Q1173 124 1173 181Z" fill="#000000" stroke="none" transform="scale(1,-1) translate(0,-256)" /><path d="M1143 53Q1143 53 1143.0 53.0Q1143 53 1143 53Q1143 53 1143.0 53.0Q1143 53 1143 53Q1101 4 1025.0 -32.5Q949 -69 852.5 -90.0Q756 -111 651.0 -113.5Q546 -116 444.5 -97.0Q343 -78 258 -35Q164 13 120.0 66.0Q76 119 74.0 172.5Q72 226 105.5 275.5Q139 325 201.0 365.5Q263 406 347.0 433.0Q431 460 529 469Q603 479 683.5 474.0Q764 469 842.5 451.5Q921 434 989.5 405.5Q1058 377 1108.5 339.0Q1159 301 1184.5 255.5Q1210 210 1202.0 159.0Q1194 108 1143 53ZM638 -74Q750 -74 850.0 -51.5Q950 -29 1023.5 10.0Q1097 49 1133 99Q1110 164 1051.0 211.0Q992 258 911.0 287.0Q830 316 737.0 326.5Q644 337 550.5 328.5Q457 320 374.5 292.0Q292 264 230.5 216.0Q169 168 142 99Q178 49 251.5 10.0Q325 -29 425.0 -51.5Q525 -74 638 -74Z" fill="#000000" stroke="none" transform="scale(1,-1) translate(0,-256)" /></svg>