<?xml version="1.0" encoding="utf-8" ?>
<svg baseProfile="full" height="256" version="1.1" width="256" xmlns="http://www.w3.org/2000/svg" xmlns:ev="http://www.w3.org/2001/xml-events" xmlns:xlink="http://www.w3.org/1999/xlink"><defs /><path d="M142 99Q142 99 133.0 112.0Q124 125 115.0 145.0Q106 165 106 186Q106 223 131.0 265.5Q156 308 215 341L222 208Q195 185 174.5 158.0Q154 131 142 99Z" fill="#757575" stroke="none" transform="scale(1,-1) translate(0,-256)" /><path d="M1134 99Q1134 99 1142.5 112.0Q1151 125 1160.0 145.0Q1169 165 1169 186Q1169 223 1144.0 265.5Q1119 308 1060 341L1054 208Q1082 185 1101.5 158.0Q1121 131 1134 99Z" fill="#757575" stroke="none" transform="scale(1,-1) translate(0,-256)" /></svg>