<?xml version="1.0" encoding="utf-8" ?>
<svg baseProfile="full" height="256" version="1.1" width="256" xmlns="http://www.w3.org/2000/svg" xmlns:ev="http://www.w3.org/2001/xml-events" xmlns:xlink="http://www.w3.org/1999/xlink"><defs /><path d="M859 487Q859 612 771 700Q683 788 558 788Q433 788 345 700Q256 612 256 487Q256 362 345 273Q433 185 558 185Q683 185 771 273Q859 362 859 487ZM780 487Q780 395 715 330Q650 265 558 265Q466 265 401 330Q336 395 336 487Q336 579 401 644Q466 709 558 709Q650 709 715 644Q780 579 780 487Z" fill="#e2a610" stroke="none" transform="scale(1,-1) translate(0,-256)" /><path d="M163 504 410 318 372 250 130 462 134 467 130 462 87 474Q70 478 77 503Q83 521 96.5 534.5Q110 548 114 551Q122 555 132.5 555.0Q143 555 148 543Z" fill="#e2a610" stroke="none" transform="scale(1,-1) translate(0,-256)" /><path d="M1118 501Q1152 446 1173.0 394.5Q1194 343 1199.0 305.5Q1204 268 1189 256Q1180 248 1165 252Q1165 252 1165.0 252.0Q1165 252 1165 252Q1156 254 1146 259Q1084 283 1032.0 286.0Q980 289 936.5 280.0Q893 271 857.0 257.0Q821 243 792 232Q725 205 665.5 196.0Q606 187 553 185V265Q585 268 617.5 275.5Q650 283 677.5 292.0Q705 301 721.5 307.5Q738 314 738 314Q801 339 838.5 374.0Q876 409 896.0 446.5Q916 484 922.5 518.0Q929 552 929.0 576.0Q929 600 928 607Q928 608 928.0 608.5Q928 609 928 610Q928 610 928.0 610.0Q928 610 928 610Q925 644 938 656Q953 668 982.5 651.5Q1012 635 1047.5 595.5Q1083 556 1118 501Z" fill="#e2a610" stroke="none" transform="scale(1,-1) translate(0,-256)" /></svg>