<?xml version="1.0" encoding="utf-8" ?>
<svg baseProfile="full" height="256" version="1.1" width="256" xmlns="http://www.w3.org/2000/svg" xmlns:ev="http://www.w3.org/2001/xml-events" xmlns:xlink="http://www.w3.org/1999/xlink"><defs /><path d="M340 643Q351 636 359 648Q382 685 422 704Q434 710 429 722Q427 728 421.0 730.5Q415 733 410 731Q362 708 334 664Q331 658 332.5 652.0Q334 646 340 643Z" fill="#fff59d" stroke="none" transform="scale(1,-1) translate(0,-256)" /><path d="M982 479Q1001 457 1009 464Q1014 469 1010.0 476.5Q1006 484 1004 489Q988 521 978 554Q976 559 970.5 564.5Q965 570 958 566Q950 563 949.5 553.0Q949 543 952 534Q958 514 967.0 499.5Q976 485 982 479Z" fill="#fff59d" stroke="none" transform="scale(1,-1) translate(0,-256)" /></svg>