<?xml version="1.0" encoding="utf-8" ?>
<svg baseProfile="full" height="256" version="1.1" width="256" xmlns="http://www.w3.org/2000/svg" xmlns:ev="http://www.w3.org/2001/xml-events" xmlns:xlink="http://www.w3.org/1999/xlink"><defs /><path d="M385 241Q385 241 370.0 255.0Q355 269 334.5 292.5Q314 316 297 345Q271 388 266.5 408.0Q262 428 262 428Q262 431 257 432Q252 422 251.5 409.0Q251 396 253.0 386.5Q255 377 255 377Q255 377 242.5 382.5Q230 388 216.5 394.0Q203 400 200 401Q199 401 200 400Q201 400 218.0 384.5Q235 369 260.0 346.5Q285 324 311.5 301.0Q338 278 358.5 261.0Q379 244 385 241Z" fill="#9e740b" stroke="none" transform="scale(1,-1) translate(0,-256)" /><path d="M746 606Q748 607 754.5 602.0Q761 597 771 581Q781 566 790.0 538.5Q799 511 801 479Q801 465 806.0 447.5Q811 430 826 426Q836 423 842.5 428.5Q849 434 853 441Q853 442 854.5 442.0Q856 442 856 440Q852 413 844.0 391.5Q836 370 836 370Q785 335 743.0 316.5Q701 298 675.5 291.5Q650 285 650 285Q708 311 742.5 363.5Q777 416 780 483Q781 518 772.5 546.0Q764 574 755.0 590.0Q746 606 746 606Z" fill="#9e740b" stroke="none" transform="scale(1,-1) translate(0,-256)" /></svg>