<?xml version="1.0" encoding="utf-8" ?>
<svg baseProfile="full" height="256" version="1.1" width="256" xmlns="http://www.w3.org/2000/svg" xmlns:ev="http://www.w3.org/2001/xml-events" xmlns:xlink="http://www.w3.org/1999/xlink"><defs /><path d="M638 47H721Q778 47 817.5 59.0Q857 71 882.0 87.0Q907 103 918.5 115.0Q930 127 930 127L905 157L638 136Z" fill="#000000" stroke="none" transform="scale(1,-1) translate(0,-256)" /><path d="M-887.5173187255859 -282.6868896484375Q-898.7899932861328 -301.0667724609375 -916.4895706176758 -306.89178466796875Q-934.1891479492188 -312.716796875 -948.7936553955078 -312.17913818359375Q-963.3981628417969 -311.6414794921875 -963.3981628417969 -311.6414794921875Q-963.3981628417969 -311.6414794921875 -955.7180786132812 -306.8191223144531Q-948.0379943847656 -301.99676513671875 -940.0997695922852 -294.1868896484375Q-932.1615447998047 -286.37701416015625 -929.8712921142578 -277.11468505859375Q-927.6185607910156 -265.4127197265625 -935.7819137573242 -258.58477783203125Q-943.9452667236328 -251.7568359375 -958.3103942871094 -247.0118408203125Q-958.3103942871094 -247.0118408203125 -958.3103942871094 -247.0118408203125Q-958.3103942871094 -247.0118408203125 -958.3103942871094 -247.0118408203125Q-958.3103942871094 -247.0118408203125 -945.5736618041992 -244.73770141601562Q-932.8369293212891 -242.46356201171875 -917.0122528076172 -243.24932861328125Q-901.1875762939453 -244.03509521484375 -891.1752090454102 -252.45501708984375Q-881.162841796875 -260.87493896484375 -887.5173187255859 -282.6868896484375Z" fill="#000000" stroke="none" transform="scale(1,-1) translate(0,-256)" /><path d="M352.8817443847656 1058.2376403808594Q352.8817443847656 1058.2376403808594 357.2238235473633 1056.0555953979492Q361.56590270996094 1053.873550415039 361.56590270996094 1053.873550415039Q361.56590270996094 1053.873550415039 362.5304489135742 1035.3941116333008Q363.4949951171875 1016.9146728515625 364.7153854370117 989.4292678833008Q365.93577575683594 961.9438629150391 366.3250503540039 934.3962631225586Q366.7143249511719 906.8486633300781 366.1285400390625 886.7490234375Q365.5427551269531 866.6493835449219 362.36749267578125 864.4061889648438Q356.9226837158203 858.9847869873047 348.76072692871094 856.3684234619141Q340.59877014160156 853.7520599365234 333.04412841796875 854.1895141601562Q323.07073974609375 853.4431762695312 313.66736602783203 856.2492599487305Q304.2639923095703 859.0553436279297 293.99220275878906 862.2978363037109Q270.8060760498047 870.5906524658203 241.1307373046875 887.4229736328125Q211.4553985595703 904.2552947998047 184.1988067626953 922.2714080810547Q156.9422149658203 940.2875213623047 138.8599395751953 952.9734344482422Q120.77766418457031 965.6593475341797 120.77766418457031 965.6593475341797Q132.11488342285156 970.5189056396484 142.81800079345703 983.8547286987305Q153.5211181640625 997.1905517578125 156.54718017578125 1001.4281616210938Q173.3397216796875 1022.7406005859375 203.2383575439453 1042.0254364013672Q233.13699340820312 1061.3102722167969 271.9383316040039 1067.7236557006836Q310.7396697998047 1074.1370391845703 352.8817443847656 1058.2376403808594Z" fill="#000000" stroke="none" transform="scale(1,-1) translate(0,-256)" /><path d="M-259.7762908935547 111.68098449707031Q-259.7762908935547 111.68098449707031 -263.67076873779297 115.48218536376953Q-267.56524658203125 119.28338623046875 -267.56524658203125 119.28338623046875Q-267.266845703125 123.272216796875 -264.9437255859375 143.1541748046875Q-262.62060546875 163.0361328125 -259.3970260620117 189.36884307861328Q-256.17344665527344 215.70155334472656 -253.58922576904297 239.07373809814453Q-251.0050048828125 262.4459228515625 -250.1844024658203 273.4152069091797Q-249.4384002685547 283.3872833251953 -248.8415985107422 291.3649444580078Q-248.2447967529297 299.3426055908203 -240.31715393066406 304.76609802246094Q-234.1263427734375 309.3167724609375 -225.70328521728516 310.19063568115234Q-217.2802276611328 311.0644989013672 -209.80018615722656 310.50474548339844Q-199.82679748535156 309.75840759277344 -190.94562530517578 305.5840377807617Q-182.064453125 301.40966796875 -172.38946533203125 296.67449951171875Q-150.69534301757812 285.0231628417969 -123.85481262207031 263.9615936279297Q-97.0142822265625 242.9000244140625 -72.74169921875 221.02783203125Q-48.4691162109375 199.1556396484375 -32.47564697265625 183.91973876953125Q-16.482177734375 168.683837890625 -16.482177734375 168.683837890625Q-28.41619873046875 165.56573486328125 -41.02162170410156 153.47276306152344Q-53.627044677734375 141.37979125976562 -57.249908447265625 137.63973999023438Q-76.95185852050781 120.06108093261719 -109.38690185546875 105.44085693359375Q-141.8219451904297 90.82063293457031 -181.1827850341797 89.75495910644531Q-220.5436248779297 88.68928527832031 -259.7762908935547 111.68098449707031Z" fill="#000000" stroke="none" transform="scale(1,-1) translate(0,-256)" /><path d="M637.3758951062337 22.862994178198278H554.3758850572631Q497.3758781561628 22.862994178198278 457.87584113143384 28.757343049161136Q418.3758041067049 34.651691920123994 393.3757580900565 42.51082374807447Q368.37571207340807 50.36995557602495 356.8756784386933 56.26430444698781Q345.3756448039785 62.158653317950666 345.3756448039785 62.158653317950666L370.37556722480804 76.89452549535781L637.3756559751928 66.57941497117281Z" fill="#000000" stroke="none" transform="scale(1,-1) translate(0,-256)" /><path d="M2162.986312866211 -282.6868896484375Q2174.258987426758 -301.0667724609375 2191.958564758301 -306.89178466796875Q2209.6581420898438 -312.716796875 2224.262649536133 -312.17913818359375Q2238.867156982422 -311.6414794921875 2238.867156982422 -311.6414794921875Q2238.867156982422 -311.6414794921875 2231.1870727539062 -306.8191223144531Q2223.5069885253906 -301.99676513671875 2215.56876373291 -294.1868896484375Q2207.6305389404297 -286.37701416015625 2205.340286254883 -277.11468505859375Q2203.0875549316406 -265.4127197265625 2211.250907897949 -258.58477783203125Q2219.414260864258 -251.7568359375 2233.7793884277344 -247.0118408203125Q2233.7793884277344 -247.0118408203125 2233.7793884277344 -247.0118408203125Q2233.7793884277344 -247.0118408203125 2233.7793884277344 -247.0118408203125Q2233.7793884277344 -247.0118408203125 2221.042655944824 -244.73770141601562Q2208.305923461914 -242.46356201171875 2192.481246948242 -243.24932861328125Q2176.6565704345703 -244.03509521484375 2166.644203186035 -252.45501708984375Q2156.6318359375 -260.87493896484375 2162.986312866211 -282.6868896484375Z" fill="#000000" stroke="none" transform="scale(1,-1) translate(0,-256)" /><path d="M1117 -212H158Q150 -178 141.0 -135.0Q132 -92 122.5 -49.5Q113 -7 104.5 29.0Q96 65 91.5 87.0Q87 109 87 109L313 165L325 127Q335 95 356.5 77.5Q378 60 409 50Q448 38 484.5 39.0Q521 40 558.5 45.0Q596 50 638 50Q739 50 828.0 35.5Q917 21 988 -16Q1024 -35 1052.5 -68.0Q1081 -101 1098.5 -139.5Q1116 -178 1117 -212Z" fill="#000000" stroke="none" transform="scale(1,-1) translate(0,-256)" /><path d="M591.1698455810547 -838.4250640869141Q615.8627471923828 -824.2042846679688 641.2893295288086 -812.3734130859375Q666.7159118652344 -800.5425415039062 690.3816604614258 -782.9758911132812Q714.0474090576172 -765.4092407226562 735.9789047241211 -735.797721862793Q757.910400390625 -706.1862030029297 775.9066009521484 -657.3600921630859Q775.9066009521484 -657.3600921630859 783.0030975341797 -667.6850280761719Q790.0995941162109 -678.0099639892578 803.1718597412109 -682.2178039550781Q813.8057556152344 -686.1576538085938 822.2386093139648 -682.9277801513672Q830.6714630126953 -679.6979064941406 830.6714630126953 -679.6979064941406Q831.5518798828125 -682.5657958984375 833.1846923828125 -690.4428253173828Q838.2860107421875 -722.4095916748047 828.6478042602539 -757.5289001464844Q819.0095977783203 -792.6482086181641 806.2525024414062 -812.4914398193359Q800.0206909179688 -822.8910369873047 784.4943237304688 -836.2718505859375Q768.9679565429688 -849.6526641845703 745.6862716674805 -860.7955627441406Q722.4045867919922 -871.9384613037109 692.8881072998047 -873.0050811767578Q684.4365386962891 -873.61572265625 677.1214294433594 -872.8117523193359Q651.6012725830078 -871.5464630126953 634.7700119018555 -862.768798828125Q617.9387512207031 -853.9911346435547 607.2034149169922 -845.8834457397461Q596.4680786132812 -837.7757568359375 591.1698455810547 -838.4250640869141Z" fill="#000000" stroke="none" transform="scale(1,-1) translate(0,-256)" /><path d="M849.9789733886719 535.4698791503906Q846.5739440917969 532.7626037597656 837.4525909423828 525.7548675537109Q828.3312377929688 518.7471313476562 820.3036193847656 512.8534851074219Q799.8734436035156 496.6098327636719 772.9684753417969 484.9974670410156Q746.0635070800781 473.3851013183594 722.8574523925781 488.1839294433594Q696.4733276367188 505.83453369140625 693.6046600341797 527.2684478759766Q690.7359924316406 548.7023620605469 701.2811737060547 568.5772857666016Q711.8263549804688 588.4522094726562 725.4361267089844 602.6958312988281Q739.0458984375 616.939453125 745.61865234375 620.20947265625Q744.4010925292969 619.7303771972656 740.2841491699219 610.5895080566406Q736.1672058105469 601.4486389160156 733.7682952880859 588.5396270751953Q731.369384765625 575.630615234375 737.0136108398438 563.4934692382812Q746.3312072753906 545.9645690917969 765.2447662353516 539.7324676513672Q784.1583251953125 533.5003662109375 801.224853515625 533.378662109375Q818.2913818359375 533.2569580078125 822.92431640625 533.02880859375Q829.259765625 534.154296875 835.7190399169922 534.6447906494141Q842.1783142089844 535.1352844238281 849.9789733886719 535.4698791503906Z" fill="#000000" stroke="none" transform="scale(1,-1) translate(0,-256)" /><path d="M-526.9886322021484 773.2279357910156Q-470.1898193359375 758.478515625 -429.7492141723633 738.6178436279297Q-389.30860900878906 718.7571716308594 -363.2252655029297 700.9549255371094Q-359.06903076171875 697.9658203125 -357.04817962646484 690.0217437744141Q-355.02732849121094 682.0776672363281 -370.57676696777344 676.3164367675781Q-386.12620544433594 670.5552062988281 -433.6472930908203 673.9862365722656Q-509.6360778808594 679.5802001953125 -554.8080291748047 689.7255249023438Q-599.97998046875 699.870849609375 -621.997428894043 711.9477081298828Q-644.0148773193359 724.0245666503906 -650.6525421142578 735.15234375Q-657.2902069091797 746.2801208496094 -655.5250625610352 754.1659698486328Q-653.7599182128906 762.0518188476562 -651.7148742675781 764.2705078125Q-636.4784088134766 779.4121398925781 -606.7964859008789 782.5933685302734Q-577.1145629882812 785.7745971679688 -526.9886322021484 773.2279357910156Z" fill="#000000" stroke="none" transform="scale(1,-1) translate(0,-256)" /><path d="M360.28651428222656 899.8626708984375Q360.28651428222656 899.8626708984375 360.28651428222656 899.8626708984375Q360.28651428222656 899.8626708984375 360.28651428222656 899.8626708984375Q360.28651428222656 899.8626708984375 355.6011199951172 889.3642730712891Q350.9157257080078 878.8658752441406 347.74120330810547 860.8686218261719Q344.5666809082031 842.8713684082031 349.50897216796875 820.3748016357422Q354.4512634277344 797.8782348632812 373.68959045410156 772.8820495605469L314.08148193359375 784.8802185058594Q307.21864318847656 814.8756408691406 312.08300018310547 835.8724365234375Q316.9473571777344 856.8692321777344 327.4193420410156 870.3671722412109Q337.8913269042969 883.8651123046875 347.4331741333008 890.8640441894531Q356.9750213623047 897.8629760742188 359.4671630859375 899.8626708984375Q360.28651428222656 899.8626708984375 360.28651428222656 899.8626708984375Q360.28651428222656 899.8626708984375 360.28651428222656 899.8626708984375Q360.28651428222656 899.8626708984375 360.28651428222656 899.8626708984375Z" fill="#000000" stroke="none" transform="scale(1,-1) translate(0,-256)" /><path d="M-195.77767944335938 811.7850341796875 -168.11343383789062 683.3547058105469Q-129.7524871826172 672.0347290039062 -115.22946166992188 657.38720703125Q-100.70643615722656 642.7396850585938 -100.70643615722656 642.7396850585938Q-100.70643615722656 642.7396850585938 -97.95986938476562 646.8768844604492Q-95.21330261230469 651.0140838623047 -92.94949340820312 655.2814636230469Q-85.89840698242188 668.9891510009766 -81.50435638427734 689.754524230957Q-77.11030578613281 710.5198974609375 -83.61672973632812 738.61474609375Q-88.71144104003906 764.3777770996094 -105.64825439453125 779.6762008666992Q-122.58506774902344 794.9746246337891 -140.15087890625 802.6381225585938Q-146.6498260498047 805.3661956787109 -150.5118865966797 806.4076385498047Z" fill="#000000" stroke="none" transform="scale(1,-1) translate(0,-256)" /><path d="M287.7458801269531 596.2473449707031Q287.0426483154297 596.3441162109375 289.03041076660156 597.5844955444336Q291.01817321777344 598.8248748779297 291.01817321777344 598.8248748779297Q301.5382843017578 606.460693359375 316.17003631591797 610.5028839111328Q330.8017883300781 614.5450744628906 346.27288818359375 612.4161071777344L302.22471618652344 411.5759735107422Q299.4117889404297 411.9630584716797 294.79541015625 414.6168670654297Q290.1790313720703 417.2706756591797 290.1790313720703 417.2706756591797Q290.1790313720703 417.2706756591797 280.5492858886719 424.65147399902344Q270.91954040527344 432.0322723388672 260.251953125 446.6208190917969Q249.58436584472656 461.20936584472656 247.174072265625 482.73583984375Q243.57281494140625 510.4818572998047 249.9075469970703 532.823486328125Q256.2422790527344 555.1651153564453 267.0090789794922 571.345832824707Q277.77587890625 587.5265502929688 287.7458801269531 596.2473449707031Z" fill="#000000" stroke="none" transform="scale(1,-1) translate(0,-256)" /><path d="M453 655Q469 656 471.5 669.5Q474 683 471 689Q467 697 456.5 702.0Q446 707 429 704Q413 702 402.5 692.0Q392 682 382 675Q382 675 381 675Q381 675 379 673Q377 673 376 673Q375 673 374 673Q369 676 371 681Q371 681 371 681Q372 683 372 683Q377 696 386.0 720.5Q395 745 404.5 771.0Q414 797 420.5 815.0Q427 833 427 833Q432 845 428.0 856.0Q424 867 412 870Q402 873 394.0 867.0Q386 861 382 851L338 744Q337 742 335 743Q332 743 333 746L365 876Q368 886 366.0 895.5Q364 905 354 909Q343 915 333.5 908.5Q324 902 320 889L282 762Q280 757 275 758Q275 758 275.0 758.0Q275 758 275 758Q269 759 271 765Q271 765 273.5 779.5Q276 794 280.0 814.0Q284 834 287.0 851.0Q290 868 291 873Q293 883 290.0 893.5Q287 904 275 907Q262 910 255.5 902.5Q249 895 246 884Q244 878 239.5 856.5Q235 835 230.0 812.5Q225 790 223 779Q221 774 216 775Q211 776 211 781L215 842Q215 854 212.0 862.0Q209 870 199 873Q187 876 178.5 868.5Q170 861 169 848L153 747Q153 747 150.5 729.5Q148 712 144.0 690.0Q140 668 138 655Q129 602 138.0 575.0Q147 548 152 545Q158 542 176.5 538.0Q195 534 214.0 530.0Q233 526 241 523Q274 513 295.5 519.0Q317 525 331.0 539.5Q345 554 354.5 571.5Q364 589 374 601Q383 612 397.5 624.5Q412 637 427.0 646.0Q442 655 453 655Z" fill="#000000" stroke="none" transform="scale(1,-1) translate(0,-256)" /><path d="M311 171 329 115 87 109 80 142Q74 168 77.0 189.5Q80 211 82 228Q83 234 86.5 259.0Q90 284 94.5 319.5Q99 355 104.0 393.5Q109 432 113.5 465.5Q118 499 121.0 520.0Q124 541 124 541Q128 558 145 556L294 521Q298 520 302 518Q312 512 312 500L306 227Q304 199 311 171Z" fill="#000000" stroke="none" transform="scale(1,-1) translate(0,-256)" /></svg>