<?xml version="1.0" encoding="utf-8" ?>
<svg baseProfile="full" height="256" version="1.1" width="256" xmlns="http://www.w3.org/2000/svg" xmlns:ev="http://www.w3.org/2001/xml-events" xmlns:xlink="http://www.w3.org/1999/xlink"><defs /><path d="M374 673Q369 676 371 681Q371 681 371 681Q372 683 372 683Q349 684 329 680Q305 676 285 665Q263 653 250 634Q245 626 239.5 613.0Q234 600 234 600Q235 599 236 599Q236 599 237 599Q241 607 245.5 614.5Q250 622 256 629Q271 646 290 655Q309 665 330.5 668.5Q352 672 374 673Z" fill="#eda600" stroke="none" transform="scale(1,-1) translate(0,-256)" /></svg>