<?xml version="1.0" encoding="utf-8" ?>
<svg baseProfile="full" height="256" version="1.1" width="256" xmlns="http://www.w3.org/2000/svg" xmlns:ev="http://www.w3.org/2001/xml-events" xmlns:xlink="http://www.w3.org/1999/xlink"><defs /><path d="M960 337Q966 337 966 331Q966 325 960 325L846 322Q844 315 837.5 302.5Q831 290 816.0 279.5Q801 269 775 269Q745 269 728.0 279.5Q711 290 704.0 302.5Q697 315 695 321Q692 323 677.0 330.0Q662 337 634 337Q602 337 588.5 329.0Q575 321 575 321L573 320H572Q571 313 564.0 301.5Q557 290 541.0 280.0Q525 270 495 270Q495 270 494.5 270.0Q494 270 494 270Q467 271 452.0 280.5Q437 290 430.0 302.0Q423 314 421 321H296Q289 321 289 328Q289 334 296 334L568 332Q573 336 588.0 342.5Q603 349 634 349Q665 349 681.5 341.5Q698 334 703 331L960 337ZM496 283Q531 283 544.0 297.0Q557 311 559 320H435Q438 311 450.5 297.0Q463 283 494 283Q494 283 494.5 283.0Q495 283 496 283ZM775 281Q805 281 817.0 296.5Q829 312 833 321L710 318Q714 309 728.0 295.0Q742 281 775 281Z" fill="#858585" stroke="none" transform="scale(1,-1) translate(0,-256)" /></svg>