<?xml version="1.0" encoding="utf-8" ?>
<svg baseProfile="full" height="256" version="1.1" width="256" xmlns="http://www.w3.org/2000/svg" xmlns:ev="http://www.w3.org/2001/xml-events" xmlns:xlink="http://www.w3.org/1999/xlink"><defs /><path d="M294 363Q294 363 300.5 381.5Q307 400 316.5 429.0Q326 458 337.0 490.5Q348 523 357.5 552.0Q367 581 373.0 599.5Q379 618 379 618L870 628L972 372Q972 372 968.5 348.5Q965 325 955.0 287.0Q945 249 923.5 206.5Q902 164 866.0 126.0Q830 88 775.0 63.0Q720 38 643 37Q565 35 509.0 58.0Q453 81 414.5 118.5Q376 156 352.5 198.0Q329 240 316.5 277.5Q304 315 299.0 339.0Q294 363 294 363Z" fill="#ffc927" stroke="none" transform="scale(1,-1) translate(0,-256)" /></svg>