<?xml version="1.0" encoding="utf-8" ?>
<svg baseProfile="full" height="256" version="1.1" width="256" xmlns="http://www.w3.org/2000/svg" xmlns:ev="http://www.w3.org/2001/xml-events" xmlns:xlink="http://www.w3.org/1999/xlink"><defs /><path d="M907 340 926 339 951 376Q951 376 952.5 377.5Q954 379 955 377Q957 375 952.5 360.5Q948 346 944.0 321.0Q940 296 943 262Q946 233 956.0 207.5Q966 182 976.0 164.0Q986 146 990 139Q997 124 998.5 110.5Q1000 97 1002 97Q1006 95 1007.0 109.5Q1008 124 1006 136Q1003 147 991.5 173.0Q980 199 971 229Q965 249 964.5 273.0Q964 297 966.0 314.5Q968 332 968 332Q968 332 978.5 343.0Q989 354 1002.0 367.5Q1015 381 1024 389Q1033 398 1048.5 412.5Q1064 427 1077.0 438.5Q1090 450 1090 450L1085 494Q1085 494 1073.0 490.5Q1061 487 1045.0 481.0Q1029 475 1018 468Q1001 457 986.5 442.5Q972 428 972 428Q972 428 954.0 422.0Q936 416 924 397Q912 379 909.5 359.5Q907 340 907 340Z" fill="#2f2f2f" stroke="none" transform="scale(1,-1) translate(0,-256)" /><path d="M828 296 844 288 867 311Q867 311 869.5 326.0Q872 341 878.0 363.5Q884 386 894.5 410.5Q905 435 921 454Q937 474 960.5 488.5Q984 503 1006.5 513.0Q1029 523 1044.5 527.5Q1060 532 1060 532L1049 556L1004 575Q1004 575 988.5 569.0Q973 563 950.5 551.0Q928 539 904.5 519.5Q881 500 864 472Q847 444 839.5 413.5Q832 383 829.5 356.0Q827 329 827.5 312.5Q828 296 828 296Z" fill="#2f2f2f" stroke="none" transform="scale(1,-1) translate(0,-256)" /><path d="M743 282 761 268 776 285Q776 285 775.0 300.5Q774 316 774 335Q774 354 782.5 393.0Q791 432 813 473Q832 508 856.0 535.0Q880 562 897.5 577.5Q915 593 915 593L848 589Q848 589 839.0 581.0Q830 573 819 558Q808 543 800.0 527.5Q792 512 789 512Q786 512 785.5 520.0Q785 528 787 538Q789 551 794.0 562.5Q799 574 799 574L752 562Q752 562 751.0 551.0Q750 540 749.0 525.5Q748 511 747 500Q746 485 741.0 460.0Q736 435 733 388Q731 342 737.0 312.0Q743 282 743 282Z" fill="#2f2f2f" stroke="none" transform="scale(1,-1) translate(0,-256)" /><path d="M453 398 449 392 452 365Q452 365 463.0 369.0Q474 373 485.5 375.5Q497 378 498 375Q500 371 488.5 364.0Q477 357 465.0 351.5Q453 346 453 346L457 312Q457 312 471.0 320.0Q485 328 503.5 340.0Q522 352 534 363Q568 394 586.5 417.5Q605 441 615 457Q634 492 642.5 513.0Q651 534 651 534L610 559Q610 559 599.5 537.5Q589 516 579 499Q566 476 551.0 455.5Q536 435 511 419Q496 410 474.5 404.0Q453 398 453 398Z" fill="#2f2f2f" stroke="none" transform="scale(1,-1) translate(0,-256)" /><path d="M448 471Q448 471 444.5 465.0Q441 459 437.5 453.0Q434 447 434 447L452 429Q452 429 460.5 433.5Q469 438 488 451Q510 466 522.5 482.5Q535 499 542 509Q550 519 556.5 529.5Q563 540 557 547Q552 554 542.5 548.0Q533 542 529 538Q524 533 512.0 521.0Q500 509 488 497Q475 486 461.5 478.5Q448 471 448 471Z" fill="#2f2f2f" stroke="none" transform="scale(1,-1) translate(0,-256)" /><path d="M422 552Q422 552 422.5 544.5Q423 537 423.5 530.0Q424 523 424 523L438 512Q438 512 450.0 520.0Q462 528 477.0 539.0Q492 550 503 559Q512 566 526.0 578.5Q540 591 550.5 600.5Q561 610 561 610L532 648Q532 648 523.0 640.0Q514 632 501.5 622.0Q489 612 479 604Q469 596 455.5 583.5Q442 571 432.0 561.5Q422 552 422 552Z" fill="#2f2f2f" stroke="none" transform="scale(1,-1) translate(0,-256)" /><path d="M369 613 384 597 404 589Q404 589 403.0 607.5Q402 626 399 636Q396 646 389.5 659.5Q383 673 378 696Q375 707 374.5 719.5Q374 732 365 733Q356 734 352.0 721.0Q348 708 349 689Q350 671 354.5 661.0Q359 651 362 642Q366 633 367.5 623.0Q369 613 369 613Z" fill="#2f2f2f" stroke="none" transform="scale(1,-1) translate(0,-256)" /><path d="M216 569V568L226 541Q226 541 231.0 545.0Q236 549 242 554Q249 559 254.0 562.5Q259 566 262 563Q265 559 266 554Q267 552 272.5 554.0Q278 556 278 556L292 566Q292 566 288.5 579.0Q285 592 267 594Q255 595 243.0 588.5Q231 582 223.5 575.5Q216 569 216 569Z" fill="#2f2f2f" stroke="none" transform="scale(1,-1) translate(0,-256)" /><path d="M224 630 205 577Q205 577 217.0 588.5Q229 600 246.0 611.0Q263 622 278 621Q296 619 304.0 607.5Q312 596 313.5 585.5Q315 575 315 575L334 571L342 592Q342 592 338.0 605.5Q334 619 322.5 634.0Q311 649 286 654Q272 657 257.5 650.5Q243 644 233.5 637.0Q224 630 224 630Z" fill="#2f2f2f" stroke="none" transform="scale(1,-1) translate(0,-256)" /><path d="M203 669 222 649Q222 649 228.5 654.0Q235 659 241 667Q249 676 258.0 686.0Q267 696 271 714Q276 736 273.0 756.0Q270 776 270 776Q270 776 263.5 771.0Q257 766 249 759Q243 753 238.0 747.5Q233 742 233 742Q233 742 234.0 731.5Q235 721 232 712Q230 705 223.0 695.0Q216 685 209.5 677.0Q203 669 203 669Z" fill="#2f2f2f" stroke="none" transform="scale(1,-1) translate(0,-256)" /><path d="M228 535 227 517Q227 517 242.0 513.5Q257 510 282 513Q303 516 317.0 522.5Q331 529 338 528Q343 528 350.0 515.0Q357 502 365.5 484.5Q374 467 382 452Q389 438 400.5 416.5Q412 395 421.0 378.5Q430 362 430 362Q430 362 430.0 342.5Q430 323 437.5 292.5Q445 262 468 231Q477 219 494.0 203.0Q511 187 529.0 173.0Q547 159 560.0 150.5Q573 142 574 144Q575 146 563.5 160.0Q552 174 541 187Q529 200 514.0 216.5Q499 233 482 265Q471 286 465.5 308.5Q460 331 457.5 347.5Q455 364 454 368Q453 373 440.0 397.5Q427 422 407 456Q393 479 383.0 501.0Q373 523 364.5 538.0Q356 553 347 553Q332 555 315.0 547.0Q298 539 281 537Q264 534 246.0 534.5Q228 535 228 535Z" fill="#2f2f2f" stroke="none" transform="scale(1,-1) translate(0,-256)" /><path d="M284 787Q284 787 288.0 775.0Q292 763 298.5 751.0Q305 739 312 737Q323 735 331.0 743.5Q339 752 343 756Q347 759 346.0 780.5Q345 802 355 827Q359 837 368.5 849.5Q378 862 387.0 871.0Q396 880 401 880Q407 880 414.5 866.5Q422 853 427 833Q434 808 434.5 792.0Q435 776 437 771Q438 768 452.5 748.0Q467 728 486.0 702.5Q505 677 520 656Q527 646 538.5 630.0Q550 614 562.5 598.0Q575 582 583 573Q592 564 612.0 551.0Q632 538 653.5 528.5Q675 519 687 520Q699 522 726.5 534.5Q754 547 791.0 561.0Q828 575 870.5 583.0Q913 591 955 583Q1006 574 1029.0 554.5Q1052 535 1065 505Q1077 479 1082.0 450.0Q1087 421 1087.5 395.0Q1088 369 1087.5 352.5Q1087 336 1088 336Q1089 336 1092.0 349.5Q1095 363 1097.5 383.0Q1100 403 1101 420Q1103 464 1095.0 499.5Q1087 535 1050 571Q1022 597 981.0 605.0Q940 613 898.5 609.5Q857 606 827 598Q797 590 768.0 578.0Q739 566 717.5 556.5Q696 547 689 546Q677 546 652.0 558.0Q627 570 612 583Q597 595 575.5 619.0Q554 643 530 679Q496 727 475.0 753.0Q454 779 454 779Q454 779 451.5 796.0Q449 813 444 832Q440 850 429.0 873.5Q418 897 409 899Q399 902 385.0 893.0Q371 884 356 866Q341 848 333.0 828.0Q325 808 325 808Q325 808 320.5 807.0Q316 806 308 803Q300 799 292.0 793.0Q284 787 284 787Z" fill="#2f2f2f" stroke="none" transform="scale(1,-1) translate(0,-256)" /><path d="M441 773 460 745Q460 745 447.5 735.0Q435 725 429 713Q422 702 418.0 692.5Q414 683 405 684Q399 684 396.5 696.0Q394 708 394.5 721.5Q395 735 397 739Q399 745 410.0 753.0Q421 761 431.0 767.0Q441 773 441 773Z" fill="#2f2f2f" stroke="none" transform="scale(1,-1) translate(0,-256)" /><path d="M483 716 514 682Q514 682 505.0 674.5Q496 667 481 654Q465 641 451.0 624.0Q437 607 429 609Q424 610 421.5 616.0Q419 622 419 629Q421 651 444 679Q456 693 469.5 704.5Q483 716 483 716Z" fill="#2f2f2f" stroke="none" transform="scale(1,-1) translate(0,-256)" /><path d="M676 531H675L716 540Q716 540 713.5 510.5Q711 481 693 431Q681 397 650.0 367.5Q619 338 582 321Q546 304 527.5 301.0Q509 298 507 305Q506 307 517.5 315.0Q529 323 543.5 331.5Q558 340 564 345Q580 357 598.5 370.5Q617 384 639 421Q665 466 670.5 498.5Q676 531 676 531Z" fill="#2f2f2f" stroke="none" transform="scale(1,-1) translate(0,-256)" /><path d="M470 268 485 223 523 206Q523 206 521.0 211.5Q519 217 527 221Q532 224 547.0 231.5Q562 239 579.0 247.0Q596 255 607 261Q623 269 646.0 282.5Q669 296 678 296Q684 296 690.0 289.0Q696 282 701.5 276.0Q707 270 712 271Q719 273 717.5 282.0Q716 291 714 300Q712 309 705.5 323.0Q699 337 687 339Q675 340 653.0 327.0Q631 314 611 304Q590 293 559.5 282.0Q529 271 514 267Q499 263 484.5 265.5Q470 268 470 268Z" fill="#2f2f2f" stroke="none" transform="scale(1,-1) translate(0,-256)" /><path d="M569 195H568Q568 202 574.0 203.0Q580 204 594 206Q609 209 621.5 212.5Q634 216 650 222Q667 228 675.0 228.0Q683 228 687 213Q690 198 678.0 187.5Q666 177 635 174Q604 171 586.5 179.5Q569 188 569 195Z" fill="#2f2f2f" stroke="none" transform="scale(1,-1) translate(0,-256)" /><path d="M957 300 959 261Q959 261 979.5 258.0Q1000 255 1032 268Q1054 277 1065.0 292.5Q1076 308 1079.0 321.0Q1082 334 1077 338Q1071 343 1053.0 329.0Q1035 315 1014 307Q996 299 976.5 299.5Q957 300 957 300Z" fill="#2f2f2f" stroke="none" transform="scale(1,-1) translate(0,-256)" /><path d="M967 219 976 185Q976 185 993.0 182.0Q1010 179 1032 181Q1048 183 1063.5 189.5Q1079 196 1087 205Q1095 214 1092.5 223.5Q1090 233 1084 235Q1078 237 1064.5 232.5Q1051 228 1028 224Q1006 220 986.5 219.5Q967 219 967 219Z" fill="#2f2f2f" stroke="none" transform="scale(1,-1) translate(0,-256)" /><path d="M997 146V147L1003 111Q1003 111 1012.5 106.0Q1022 101 1052 107Q1081 114 1090.5 129.5Q1100 145 1098 151Q1096 157 1077.5 155.5Q1059 154 1043 152Q1028 149 1012.5 147.5Q997 146 997 146Z" fill="#2f2f2f" stroke="none" transform="scale(1,-1) translate(0,-256)" /><path d="M1003 70Q1003 70 1003.0 64.0Q1003 58 1003 49Q1002 39 1001.5 33.5Q1001 28 1001 28Q1001 28 1007.5 26.0Q1014 24 1025 23Q1050 22 1070.0 29.5Q1090 37 1089 45Q1089 52 1069.5 57.0Q1050 62 1037 65Q1025 67 1014.0 68.5Q1003 70 1003 70Z" fill="#2f2f2f" stroke="none" transform="scale(1,-1) translate(0,-256)" /><path d="M581 138Q582 140 591.0 138.0Q600 136 611.5 133.5Q623 131 630 131Q637 130 650.0 132.0Q663 134 673.5 134.0Q684 134 686 129Q688 125 683.5 114.5Q679 104 666.0 95.5Q653 87 629 88Q612 88 602.5 97.0Q593 106 588 117Q585 124 582.5 130.5Q580 137 581 138Z" fill="#2f2f2f" stroke="none" transform="scale(1,-1) translate(0,-256)" /><path d="M598 29Q598 29 598.5 15.0Q599 1 599 -2Q599 -4 614.5 -7.5Q630 -11 650 -6Q668 -1 676.5 17.0Q685 35 680 40Q675 44 664.0 39.0Q653 34 641 32Q621 28 609.5 28.5Q598 29 598 29Z" fill="#2f2f2f" stroke="none" transform="scale(1,-1) translate(0,-256)" /><path d="M600 -56Q600 -58 600.0 -62.5Q600 -67 600 -73Q599 -83 598 -88Q598 -91 606.5 -91.5Q615 -92 624 -92Q632 -92 648.5 -90.5Q665 -89 671 -86Q678 -82 678.0 -70.5Q678 -59 674 -56Q670 -54 655.0 -55.5Q640 -57 630 -57Q619 -57 609.5 -56.5Q600 -56 600 -56Z" fill="#2f2f2f" stroke="none" transform="scale(1,-1) translate(0,-256)" /></svg>