<?xml version="1.0" encoding="utf-8" ?>
<svg baseProfile="full" height="256" version="1.1" width="256" xmlns="http://www.w3.org/2000/svg" xmlns:ev="http://www.w3.org/2001/xml-events" xmlns:xlink="http://www.w3.org/1999/xlink"><defs /><path d="M1008 588 1059 476Q1059 476 1068.5 464.5Q1078 453 1088.0 436.5Q1098 420 1101 406Q1105 392 1109.0 372.5Q1113 353 1116.5 337.5Q1120 322 1120 322L1137 289L1159 326Q1159 326 1154.5 343.0Q1150 360 1149 368Q1148 374 1143.0 395.0Q1138 416 1130.0 444.5Q1122 473 1111 499Q1100 525 1085.5 541.0Q1071 557 1060.5 564.0Q1050 571 1050 571Z" fill="#9a9a9a" stroke="none" transform="scale(1,-1) translate(0,-256)" /><path d="M486 217Q486 217 499.5 213.0Q513 209 530.5 204.0Q548 199 561.5 195.0Q575 191 575 191Q575 191 578.5 176.5Q582 162 585.5 146.0Q589 130 589 123Q590 114 589.0 83.5Q588 53 588 29Q588 12 586.5 -13.5Q585 -39 583.0 -59.0Q581 -79 581 -79L556 -103L492 -114L483 -83Q483 -83 486.0 -75.5Q489 -68 490 -65Q490 -61 492.0 -49.0Q494 -37 494 -25Q494 -16 494.0 6.0Q494 28 493.5 50.5Q493 73 493 84Q492 92 491.0 113.0Q490 134 489.0 158.0Q488 182 487.0 199.5Q486 217 486 217Z" fill="#9a9a9a" stroke="none" transform="scale(1,-1) translate(0,-256)" /><path d="M713 192 689 316 968 390 954 244 985 175Q985 175 984.0 157.5Q983 140 983 115Q983 102 981.0 82.5Q979 63 975.5 44.0Q972 25 970.0 12.0Q968 -1 968 -1L926 -39L865 -15Q865 -15 869.0 -2.5Q873 10 878.0 29.5Q883 49 887.5 68.0Q892 87 892 99Q893 112 891.5 131.5Q890 151 887.5 170.5Q885 190 881.0 203.5Q877 217 873 217Q867 217 845.5 206.5Q824 196 796 193Q763 189 738.0 190.5Q713 192 713 192Z" fill="#9a9a9a" stroke="none" transform="scale(1,-1) translate(0,-256)" /><path d="M223 555 229 524 275 520 328 544 366 519 407 435 452 365Q452 365 453.0 385.5Q454 406 452.5 437.0Q451 468 443 497Q431 541 417.5 565.0Q404 589 404 589Q404 589 396.5 595.5Q389 602 380.5 608.5Q372 615 369 613Q365 611 345.5 594.5Q326 578 305 570Q292 565 272.5 561.5Q253 558 238.0 556.5Q223 555 223 555Z" fill="#9a9a9a" stroke="none" transform="scale(1,-1) translate(0,-256)" /></svg>