<?xml version="1.0" encoding="utf-8" ?>
<svg baseProfile="full" height="256" version="1.1" width="256" xmlns="http://www.w3.org/2000/svg" xmlns:ev="http://www.w3.org/2001/xml-events" xmlns:xlink="http://www.w3.org/1999/xlink"><defs /><path d="M284 787 403 691 646 557Q646 557 644.5 576.5Q643 596 636.5 627.5Q630 659 615.5 697.0Q601 735 574.5 773.5Q548 812 506 844Q455 883 405.0 894.0Q355 905 314.0 899.5Q273 894 246.5 882.5Q220 871 215 866Q204 856 212.5 845.5Q221 835 231 829Q250 817 267.0 802.0Q284 787 284 787Z" fill="#464c4f" stroke="none" transform="scale(1,-1) translate(0,-256)" /><path d="M189 675Q194 677 204.5 673.0Q215 669 221 656Q231 638 229.0 619.0Q227 600 221.5 587.0Q216 574 216 574Q216 574 220.5 569.0Q225 564 230 551Q236 539 234.5 527.5Q233 516 233 516Q233 516 228.5 509.0Q224 502 209 491Q195 479 179.5 478.0Q164 477 164 477L135 484Q135 484 123.0 487.0Q111 490 102 510Q96 525 96.0 545.0Q96 565 108 586Q119 607 138.0 627.5Q157 648 172.0 661.5Q187 675 189 675Z" fill="#464c4f" stroke="none" transform="scale(1,-1) translate(0,-256)" /><path d="M586 -126Q586 -126 591.5 -133.5Q597 -141 619 -142Q639 -143 656.0 -135.0Q673 -127 677 -116Q682 -104 684.5 -65.5Q687 -27 691 20Q694 56 697.5 78.0Q701 100 703.0 116.0Q705 132 704 152Q704 159 703.0 176.5Q702 194 701.5 213.0Q701 232 701.5 245.0Q702 258 705 257Q708 256 712.0 236.0Q716 216 719.0 191.5Q722 167 723 151Q723 135 719.5 107.0Q716 79 711.5 49.0Q707 19 705 -4Q704 -27 702.5 -58.5Q701 -90 698.5 -117.5Q696 -145 693 -157Q687 -175 670.5 -191.0Q654 -207 620 -211Q585 -215 571.0 -206.5Q557 -198 556 -190Q555 -182 559.0 -172.5Q563 -163 568 -155Q573 -145 578.5 -136.0Q584 -127 586 -126Z" fill="#464c4f" stroke="none" transform="scale(1,-1) translate(0,-256)" /><path d="M482 -83Q483 -83 491.5 -88.5Q500 -94 517 -94Q554 -94 566.0 -86.5Q578 -79 581 -79Q582 -79 582.0 -93.0Q582 -107 577 -124Q571 -141 550.0 -151.5Q529 -162 499 -162Q469 -163 460.0 -154.5Q451 -146 450 -141Q449 -137 452.5 -130.5Q456 -124 462 -115Q467 -106 473.5 -94.0Q480 -82 482 -83Z" fill="#464c4f" stroke="none" transform="scale(1,-1) translate(0,-256)" /><path d="M866 -12Q866 -12 879.0 -15.0Q892 -18 908 -17Q936 -15 952.0 -7.5Q968 0 968 0Q968 0 967.0 -10.0Q966 -20 962 -34Q957 -54 941.5 -61.0Q926 -68 902 -71Q866 -75 856 -61Q853 -56 855.5 -44.5Q858 -33 862.0 -22.5Q866 -12 866 -12Z" fill="#464c4f" stroke="none" transform="scale(1,-1) translate(0,-256)" /><path d="M992 -34Q990 -39 984.5 -55.0Q979 -71 976 -84Q973 -99 978.5 -109.5Q984 -120 1008 -123Q1033 -126 1059.5 -117.0Q1086 -108 1094 -97Q1100 -88 1101.5 -69.5Q1103 -51 1102.5 -36.0Q1102 -21 1102 -21Q1102 -21 1084.0 -34.5Q1066 -48 1032 -48Q1011 -48 1001.5 -41.0Q992 -34 992 -34Z" fill="#464c4f" stroke="none" transform="scale(1,-1) translate(0,-256)" /><path d="M1115 218Q1113 244 1114.5 267.5Q1116 291 1118.0 306.5Q1120 322 1120 322Q1120 322 1126.0 318.0Q1132 314 1140 314Q1147 314 1152.5 320.5Q1158 327 1158 327Q1158 327 1163.0 310.0Q1168 293 1173.0 267.0Q1178 241 1178 215Q1178 196 1176.0 171.0Q1174 146 1170.5 122.5Q1167 99 1162.5 83.5Q1158 68 1151 68Q1143 68 1143.0 78.0Q1143 88 1141 95Q1140 102 1129.5 135.5Q1119 169 1115 218Z" fill="#464c4f" stroke="none" transform="scale(1,-1) translate(0,-256)" /></svg>