<?xml version="1.0" encoding="utf-8" ?>
<svg baseProfile="full" height="256" version="1.1" width="256" xmlns="http://www.w3.org/2000/svg" xmlns:ev="http://www.w3.org/2001/xml-events" xmlns:xlink="http://www.w3.org/1999/xlink"><defs /><path d="M284 61H991Q1025 61 1053.5 77.0Q1082 93 1099.0 120.0Q1116 147 1116 180Q1116 213 1099.0 240.0Q1082 267 1053.5 283.0Q1025 299 991 299H284Q250 299 221.5 283.0Q193 267 176.0 240.0Q159 213 159 180Q159 147 176.0 120.0Q193 93 221.5 77.0Q250 61 284 61Z" fill="#e59600" stroke="none" transform="scale(1,-1) translate(0,-256)" /><path d="M685 133Q700 127 694 113Q691 107 677.5 93.5Q664 80 638 80Q611 80 597.5 93.5Q584 107 581 113Q575 127 590 133Q592 134 594 134H681Q683 134 685 133Z" fill="#e59600" stroke="none" transform="scale(1,-1) translate(0,-256)" /></svg>