<?xml version="1.0" encoding="utf-8" ?>
<svg baseProfile="full" height="256" version="1.1" width="256" xmlns="http://www.w3.org/2000/svg" xmlns:ev="http://www.w3.org/2001/xml-events" xmlns:xlink="http://www.w3.org/1999/xlink"><defs /><path d="M741 32Q758 42 771.0 30.5Q784 19 777 4Q773 -6 751.0 -22.0Q729 -38 698.5 -50.5Q668 -63 638 -63Q608 -63 577.0 -50.5Q546 -38 524.0 -22.0Q502 -6 498 4Q491 19 504.0 30.5Q517 42 534 32Q549 23 577.0 18.5Q605 14 637.5 14.0Q670 14 698.0 18.5Q726 23 741 32Z" fill="#795548" stroke="none" transform="scale(1,-1) translate(0,-256)" /></svg>