<?xml version="1.0" encoding="utf-8" ?>
<svg baseProfile="full" height="256" version="1.1" width="256" xmlns="http://www.w3.org/2000/svg" xmlns:ev="http://www.w3.org/2001/xml-events" xmlns:xlink="http://www.w3.org/1999/xlink"><defs /><path d="M486 917Q486 919 499.0 919.5Q512 920 529.0 920.0Q546 920 559.0 919.0Q572 918 572 916Q572 915 571.5 876.0Q571 837 570.5 771.0Q570 705 569.0 620.5Q568 536 566.5 442.0Q565 348 564.0 254.0Q563 160 562.0 75.5Q561 -9 560.0 -75.5Q559 -142 558.5 -180.5Q558 -219 558 -220Q558 -222 545.5 -222.5Q533 -223 516.5 -223.0Q500 -223 487.5 -222.5Q475 -222 474 -219Q474 -218 474.5 -180.0Q475 -142 475.5 -76.0Q476 -10 476.5 74.5Q477 159 478.0 252.5Q479 346 480.0 439.5Q481 533 482.0 618.0Q483 703 484.0 769.5Q485 836 485.5 875.5Q486 915 486 917Z" fill="#ffd51d" stroke="none" transform="scale(1,-1) translate(0,-256)" /></svg>