<?xml version="1.0" encoding="utf-8" ?>
<svg baseProfile="full" height="256" version="1.1" width="256" xmlns="http://www.w3.org/2000/svg" xmlns:ev="http://www.w3.org/2001/xml-events" xmlns:xlink="http://www.w3.org/1999/xlink"><defs /><path d="M848 457Q849 460 862.5 459.5Q876 459 893.5 448.0Q911 437 925 409Q944 371 937.0 347.5Q930 324 919 324Q909 325 905.5 336.0Q902 347 900 365Q897 398 871 424Q859 436 852.5 443.0Q846 450 848 457Z" fill="#ffffff" stroke="none" transform="scale(1,-1) translate(0,-256)" /><path d="M172 631Q175 632 181.0 626.5Q187 621 195 614Q203 607 213.0 600.0Q223 593 223 593L210 565Q210 565 200.0 571.5Q190 578 179 592Q168 606 168.5 617.5Q169 629 172 631Z" fill="#ffffff" stroke="none" transform="scale(1,-1) translate(0,-256)" /></svg>