<?xml version="1.0" encoding="utf-8" ?>
<svg baseProfile="full" height="256" version="1.1" width="256" xmlns="http://www.w3.org/2000/svg" xmlns:ev="http://www.w3.org/2001/xml-events" xmlns:xlink="http://www.w3.org/1999/xlink"><defs /><path d="M107 567 110 618Q110 618 123.5 624.0Q137 630 160.0 633.5Q183 637 209 630Q236 623 249.0 604.5Q262 586 266.5 569.5Q271 553 271 553L255 518Q255 518 255.0 507.5Q255 497 247 479Q240 463 230.5 455.0Q221 447 213 449Q211 450 210.5 458.5Q210 467 209 472Q208 478 204.5 486.5Q201 495 201 495Q201 495 193.0 486.5Q185 478 182 471Q178 463 177.0 453.5Q176 444 174 443Q161 438 144.0 444.0Q127 450 116 460Q104 470 98.0 481.5Q92 493 92 512Q91 532 99.0 549.5Q107 567 107 567Z" fill="#000000" stroke="none" transform="scale(1,-1) translate(0,-256)" /></svg>