<?xml version="1.0" encoding="utf-8" ?>
<svg baseProfile="full" height="256" version="1.1" width="256" xmlns="http://www.w3.org/2000/svg" xmlns:ev="http://www.w3.org/2001/xml-events" xmlns:xlink="http://www.w3.org/1999/xlink"><defs /><path d="M120 18 144 20Q144 20 151.5 32.5Q159 45 171.0 63.5Q183 82 195.0 100.5Q207 119 215.0 132.0Q223 145 224 146Q224 148 238.0 151.0Q252 154 272.0 157.5Q292 161 310.5 163.5Q329 166 339 165Q348 165 354.5 175.5Q361 186 365.0 199.5Q369 213 371.0 224.0Q373 235 373 235L309 254Q309 254 300.0 245.0Q291 236 270 230Q250 224 228.0 224.5Q206 225 190 209Q171 191 167.5 171.5Q164 152 154 128Q147 111 134.5 99.5Q122 88 115 66Q109 46 114.5 32.0Q120 18 120 18Z" fill="#8a867e" stroke="none" transform="scale(1,-1) translate(0,-256)" /><path d="M713 172 797 236Q797 236 807.5 223.0Q818 210 834.5 190.0Q851 170 868.0 149.5Q885 129 898.5 114.5Q912 100 917 97Q941 83 961.0 58.0Q981 33 992 15Q997 6 1009.5 -10.5Q1022 -27 1036.0 -43.5Q1050 -60 1060.0 -71.5Q1070 -83 1070 -83Q1070 -83 1064.5 -94.0Q1059 -105 1053.0 -116.0Q1047 -127 1044 -128Q1040 -128 1024.0 -118.5Q1008 -109 997 -101Q987 -93 976.0 -82.0Q965 -71 954 -56Q943 -40 935.5 -26.0Q928 -12 913 8Q898 28 887.5 35.5Q877 43 865 52Q852 61 822.0 76.0Q792 91 767 111Q743 131 728.0 149.5Q713 168 713 172Z" fill="#8a867e" stroke="none" transform="scale(1,-1) translate(0,-256)" /></svg>