<?xml version="1.0" encoding="utf-8" ?>
<svg baseProfile="full" height="256" version="1.1" width="256" xmlns="http://www.w3.org/2000/svg" xmlns:ev="http://www.w3.org/2001/xml-events" xmlns:xlink="http://www.w3.org/1999/xlink"><defs /><path d="M486 908 485 847Q485 847 493.0 835.0Q501 823 516 805Q525 795 538.0 780.0Q551 765 560.5 754.0Q570 743 570 743L571 800Q571 800 557.5 815.5Q544 831 532 847Q523 858 512.0 872.5Q501 887 493.5 897.5Q486 908 486 908Z" fill="#fda726" stroke="none" transform="scale(1,-1) translate(0,-256)" /><path d="M483 700 480 496 567 479 568 590Q568 590 553.5 604.5Q539 619 525 637Q507 660 495.0 680.0Q483 700 483 700Z" fill="#fda726" stroke="none" transform="scale(1,-1) translate(0,-256)" /><path d="M477 154 527 172 563 154 561 13Q561 13 545.5 29.5Q530 46 516 61Q500 80 488.5 97.5Q477 115 477 115Z" fill="#fda726" stroke="none" transform="scale(1,-1) translate(0,-256)" /><path d="M476 -38 475 -100Q475 -100 484.5 -111.0Q494 -122 506 -135Q514 -144 526.5 -156.5Q539 -169 548.5 -179.0Q558 -189 558 -189L559 -135Q559 -135 546.5 -121.5Q534 -108 522 -96Q513 -85 502.0 -71.5Q491 -58 483.5 -48.0Q476 -38 476 -38Z" fill="#fda726" stroke="none" transform="scale(1,-1) translate(0,-256)" /></svg>