<?xml version="1.0" encoding="utf-8" ?>
<svg baseProfile="full" height="256" version="1.1" width="256" xmlns="http://www.w3.org/2000/svg" xmlns:ev="http://www.w3.org/2001/xml-events" xmlns:xlink="http://www.w3.org/1999/xlink"><defs /><path d="M139 669Q139 669 142.0 674.5Q145 680 152 685Q163 692 175.5 691.5Q188 691 188 691Q188 691 191.5 685.5Q195 680 197 671Q198 662 196.0 648.5Q194 635 184 636Q174 636 171.5 645.0Q169 654 169 654Q169 654 164.0 654.0Q159 654 153 656Q148 658 144.5 662.0Q141 666 139 669Z" fill="#464d50" stroke="none" transform="scale(1,-1) translate(0,-256)" /></svg>