<?xml version="1.0" encoding="utf-8" ?>
<svg baseProfile="full" height="256" version="1.1" width="256" xmlns="http://www.w3.org/2000/svg" xmlns:ev="http://www.w3.org/2001/xml-events" xmlns:xlink="http://www.w3.org/1999/xlink"><defs /><path d="M942 472Q942 472 954.5 477.0Q967 482 987.0 482.0Q1007 482 1030 467Q1053 451 1065.5 425.0Q1078 399 1085.5 372.0Q1093 345 1101 328Q1113 303 1128.5 278.5Q1144 254 1167 233Q1190 212 1189.5 202.0Q1189 192 1184 190Q1181 189 1173.0 189.0Q1165 189 1156 192Q1146 196 1132.5 203.5Q1119 211 1091 244Q1073 266 1057.5 294.5Q1042 323 1030.5 347.5Q1019 372 1013 382Q1003 398 991.0 409.5Q979 421 965 433Q952 445 947.0 458.5Q942 472 942 472Z" fill="#a47fcc" stroke="none" transform="scale(1,-1) translate(0,-256)" /><path d="M807 523Q807 523 792.5 525.5Q778 528 750 525Q725 522 708.0 516.0Q691 510 675 507Q659 503 631.5 499.5Q604 496 573 508Q561 512 545.5 521.5Q530 531 520 536Q510 540 495.5 544.5Q481 549 475 541Q468 530 476.0 522.5Q484 515 484 515Q484 515 503.0 496.5Q522 478 536 442Q545 419 554.5 394.0Q564 369 582.5 351.5Q601 334 636 334Q662 334 680.0 350.5Q698 367 711.5 392.0Q725 417 737.5 442.5Q750 468 765 487Q787 514 797.0 518.5Q807 523 807 523Z" fill="#a47fcc" stroke="none" transform="scale(1,-1) translate(0,-256)" /></svg>