<?xml version="1.0" encoding="utf-8" ?>
<svg baseProfile="full" height="256" version="1.1" width="256" xmlns="http://www.w3.org/2000/svg" xmlns:ev="http://www.w3.org/2001/xml-events" xmlns:xlink="http://www.w3.org/1999/xlink"><defs /><path d="M264 350Q264 350 285.0 357.5Q306 365 335 381Q357 392 375.5 406.0Q394 420 405.5 430.5Q417 441 417 441L468 453L476 387Q476 387 465.0 374.5Q454 362 436.5 346.0Q419 330 399 318Q362 298 345.5 291.5Q329 285 321 275Q313 266 312.0 249.5Q311 233 312.5 220.0Q314 207 312 207Q304 205 294.5 218.0Q285 231 277.0 250.0Q269 269 267 285Q263 314 263.5 332.0Q264 350 264 350Z" fill="#d853c9" stroke="none" transform="scale(1,-1) translate(0,-256)" /></svg>