<?xml version="1.0" encoding="utf-8" ?>
<svg baseProfile="full" height="256" version="1.1" width="256" xmlns="http://www.w3.org/2000/svg" xmlns:ev="http://www.w3.org/2001/xml-events" xmlns:xlink="http://www.w3.org/1999/xlink"><defs /><path d="M913 448 957 326Q957 326 957.5 313.5Q958 301 961.0 284.0Q964 267 970 254Q989 214 1023.5 187.0Q1058 160 1111 158Q1147 157 1164.0 167.0Q1181 177 1185.5 187.0Q1190 197 1190 197Q1190 197 1181.0 201.5Q1172 206 1163.0 210.5Q1154 215 1154 214Q1155 214 1146.5 223.5Q1138 233 1126.5 246.0Q1115 259 1106.5 269.0Q1098 279 1098 279Q1098 278 1089.0 295.0Q1080 312 1066.5 336.0Q1053 360 1040.0 384.5Q1027 409 1018.0 426.0Q1009 443 1009 443Q1009 443 999.0 451.0Q989 459 977.0 467.0Q965 475 959 475Q949 475 943.0 472.5Q937 470 930 465Q925 462 919.0 455.0Q913 448 913 448Z" fill="#7a57bd" stroke="none" transform="scale(1,-1) translate(0,-256)" /><path d="M114 690 146 696 241 790 330 709 413 518Q413 518 426.5 505.5Q440 493 458.0 475.0Q476 457 490.5 439.5Q505 422 507 413Q510 403 515.5 383.0Q521 363 534.0 340.5Q547 318 569.5 301.0Q592 284 629 281Q671 277 698.5 297.0Q726 317 744.5 349.0Q763 381 777.0 414.0Q791 447 806 468Q817 484 825.5 488.5Q834 493 834 493Q834 493 831.5 502.0Q829 511 820 518Q813 523 805.0 523.5Q797 524 797 524L586 420L516 529Q516 529 514.5 545.5Q513 562 508.0 588.5Q503 615 492 643Q479 677 460.0 700.5Q441 724 426.5 736.5Q412 749 412 749Q412 749 423.0 746.0Q434 743 439 753Q445 762 432.5 780.0Q420 798 402 808Q387 816 361.0 828.5Q335 841 303 842Q271 843 254.0 838.5Q237 834 237 834L178 820Q178 820 159.5 811.0Q141 802 126 778Q115 762 113.0 741.0Q111 720 112.5 705.0Q114 690 114 690Z" fill="#7a57bd" stroke="none" transform="scale(1,-1) translate(0,-256)" /></svg>