<?xml version="1.0" encoding="utf-8" ?>
<svg baseProfile="full" height="256" version="1.1" width="256" xmlns="http://www.w3.org/2000/svg" xmlns:ev="http://www.w3.org/2001/xml-events" xmlns:xlink="http://www.w3.org/1999/xlink"><defs /><path d="M537 493Q541 509 535.5 523.5Q530 538 517 544Q503 549 489.0 542.0Q475 535 469 520Q463 505 468.5 490.5Q474 476 487 470Q502 463 517.5 469.0Q533 475 537 493Z" fill="#2b2b2b" stroke="none" transform="scale(1,-1) translate(0,-256)" /><path d="M316 533Q323 563 298 573Q286 578 273.5 572.5Q261 567 255 552Q249 538 254.0 524.5Q259 511 271 505Q284 499 297.5 507.5Q311 516 316 533Z" fill="#2b2b2b" stroke="none" transform="scale(1,-1) translate(0,-256)" /><path d="M336 375Q336 375 324.0 385.0Q312 395 298.0 403.0Q284 411 277 404Q270 397 278.5 383.5Q287 370 293 364Q302 352 312.0 346.0Q322 340 322 340Q322 340 318.0 328.0Q314 316 304 315Q294 315 288.5 323.5Q283 332 277 328Q271 323 275.0 308.0Q279 293 297 288Q309 285 319.5 290.0Q330 295 330 295Q330 295 341.0 285.0Q352 275 373 275Q393 275 403.0 289.5Q413 304 404 313Q399 319 392.5 315.5Q386 312 378.5 307.0Q371 302 362 302Q354 303 349.5 311.5Q345 320 344.0 328.5Q343 337 343 337Q343 337 355.5 340.5Q368 344 375 349Q382 353 394.5 363.0Q407 373 402 386Q400 393 389.5 392.0Q379 391 366.5 387.0Q354 383 345.0 379.0Q336 375 336 375Z" fill="#2b2b2b" stroke="none" transform="scale(1,-1) translate(0,-256)" /></svg>