<?xml version="1.0" encoding="utf-8" ?>
<svg baseProfile="full" height="256" version="1.1" width="256" xmlns="http://www.w3.org/2000/svg" xmlns:ev="http://www.w3.org/2001/xml-events" xmlns:xlink="http://www.w3.org/1999/xlink"><defs /><path d="M409 109 1049 179Q1049 179 1049.0 163.0Q1049 147 1048.5 124.5Q1048 102 1047.0 81.5Q1046 61 1045 51Q1044 41 1042.5 19.0Q1041 -3 1039.5 -27.5Q1038 -52 1036.5 -72.5Q1035 -93 1034 -100Q1033 -108 1021.0 -120.5Q1009 -133 972 -133Q948 -134 933.0 -126.0Q918 -118 911.0 -108.0Q904 -98 904 -94Q903 -90 903.5 -72.0Q904 -54 904.5 -31.5Q905 -9 905.5 7.5Q906 24 906 24L859 29Q859 29 858.5 14.0Q858 -1 857.0 -22.0Q856 -43 855.5 -60.5Q855 -78 855 -82Q856 -92 842.5 -104.0Q829 -116 796 -118Q763 -120 745.0 -105.5Q727 -91 727 -79Q726 -60 726.5 -38.0Q727 -16 727 -16L625 -25Q625 -25 624.0 -44.5Q623 -64 621.5 -89.5Q620 -115 619.5 -136.0Q619 -157 619 -161Q619 -165 615.5 -177.0Q612 -189 601.0 -199.5Q590 -210 565 -211Q540 -212 527.0 -202.5Q514 -193 509.0 -181.0Q504 -169 503 -161Q503 -154 502.5 -133.0Q502 -112 502.0 -87.0Q502 -62 501.5 -44.0Q501 -26 501 -26L419 -6Q419 -6 419.5 -18.5Q420 -31 421.0 -48.0Q422 -65 423.0 -79.5Q424 -94 424 -99Q424 -105 422.5 -121.0Q421 -137 410.5 -151.0Q400 -165 374 -165Q347 -165 334.5 -155.0Q322 -145 317.5 -131.5Q313 -118 311 -109Q311 -103 308.5 -79.5Q306 -56 303.0 -25.5Q300 5 297.5 35.0Q295 65 293.0 84.5Q291 104 291 104Z" fill="#b1b1b1" stroke="none" transform="scale(1,-1) translate(0,-256)" /><path d="M1037 552 1000 478 1089 319Q1089 319 1114.5 325.0Q1140 331 1165 348Q1183 359 1190.0 381.5Q1197 404 1196.0 425.5Q1195 447 1187 453Q1182 457 1165.5 462.0Q1149 467 1136 474Q1128 479 1114.5 495.5Q1101 512 1088.0 528.5Q1075 545 1066 548Q1054 553 1045.5 552.5Q1037 552 1037 552Z" fill="#b1b1b1" stroke="none" transform="scale(1,-1) translate(0,-256)" /><path d="M304 633Q304 633 311.5 618.0Q319 603 338.5 585.0Q358 567 392 559Q423 552 447.0 559.0Q471 566 487.5 578.5Q504 591 512.5 601.5Q521 612 521 612Q521 612 526.5 599.5Q532 587 545.0 574.0Q558 561 580 558Q603 555 620.0 561.5Q637 568 646.5 575.5Q656 583 656 583Q656 583 667.5 576.0Q679 569 695.0 560.5Q711 552 724 546Q743 537 759.0 535.5Q775 534 777 532Q779 529 775.5 518.0Q772 507 764 500Q756 492 732.5 481.0Q709 470 682 472Q655 473 625.5 468.0Q596 463 571 441Q555 427 551.5 407.5Q548 388 545.5 363.5Q543 339 530 309Q519 285 491.0 262.0Q463 239 421.0 227.5Q379 216 326 227Q284 236 257.0 258.0Q230 280 216.5 306.0Q203 332 201 355Q198 385 207.5 414.0Q217 443 222 463Q227 482 222.5 494.5Q218 507 218 507Q218 507 202.5 501.5Q187 496 151 508Q126 516 107.5 532.5Q89 549 80.0 565.5Q71 582 74 592Q77 601 99.5 599.5Q122 598 152.5 594.5Q183 591 209 595Q234 599 255.5 608.0Q277 617 290.5 625.0Q304 633 304 633Z" fill="#b1b1b1" stroke="none" transform="scale(1,-1) translate(0,-256)" /></svg>