<?xml version="1.0" encoding="utf-8" ?>
<svg baseProfile="full" height="256" version="1.1" width="256" xmlns="http://www.w3.org/2000/svg" xmlns:ev="http://www.w3.org/2001/xml-events" xmlns:xlink="http://www.w3.org/1999/xlink"><defs /><path d="M620 602Q634 589 636.0 568.5Q638 548 627.0 528.0Q616 508 590 498Q559 485 543.0 491.5Q527 498 523.0 516.0Q519 534 525 557Q531 579 547.0 594.5Q563 610 583.0 613.0Q603 616 620 602Z" fill="#ffd3b0" stroke="none" transform="scale(1,-1) translate(0,-256)" /><path d="M127 393Q124 394 119.5 401.0Q115 408 114 424Q113 440 118.0 448.5Q123 457 138 452Q153 447 159.5 439.0Q166 431 166 431Z" fill="#ffd3b0" stroke="none" transform="scale(1,-1) translate(0,-256)" /></svg>