<?xml version="1.0" encoding="utf-8" ?>
<svg baseProfile="full" height="256" version="1.1" width="256" xmlns="http://www.w3.org/2000/svg" xmlns:ev="http://www.w3.org/2001/xml-events" xmlns:xlink="http://www.w3.org/1999/xlink"><defs /><path d="M542 630 489 529 333 512Q333 512 330.5 524.5Q328 537 325.5 555.0Q323 573 324 591Q324 602 330.0 626.0Q336 650 350.5 674.5Q365 699 390.5 715.5Q416 732 455 728Q490 725 506.0 709.0Q522 693 530 678Q541 659 541.5 644.5Q542 630 542 630Z" fill="#6da3af" stroke="none" transform="scale(1,-1) translate(0,-256)" /><path d="M436 221 545 145 445 19Q445 19 431.5 16.5Q418 14 405.5 16.5Q393 19 394 36Q394 47 403.0 54.5Q412 62 421.0 73.5Q430 85 431 109Q432 119 432.5 137.0Q433 155 434.0 174.5Q435 194 435.5 207.5Q436 221 436 221Z" fill="#6da3af" stroke="none" transform="scale(1,-1) translate(0,-256)" /><path d="M571 91V211L760 405L969 317L1069 119Q1069 119 1067.0 103.5Q1065 88 1055.5 67.0Q1046 46 1024.5 26.5Q1003 7 964 -2Q924 -11 892.0 -3.0Q860 5 837.0 19.5Q814 34 801.5 46.0Q789 58 789 58Q789 58 776.5 57.5Q764 57 747.0 56.5Q730 56 715 56Q700 57 683.0 60.5Q666 64 654.0 67.0Q642 70 642 70Q642 70 632.5 56.0Q623 42 612 31Q600 19 577.5 8.0Q555 -3 531.5 -11.0Q508 -19 495 -20Q478 -22 466.5 -17.5Q455 -13 447 -7Q444 -4 455.5 7.0Q467 18 485.5 32.0Q504 46 524.0 59.5Q544 73 557.5 82.0Q571 91 571 91Z" fill="#6da3af" stroke="none" transform="scale(1,-1) translate(0,-256)" /></svg>