<?xml version="1.0" encoding="utf-8" ?>
<svg baseProfile="full" height="256" version="1.1" width="256" xmlns="http://www.w3.org/2000/svg" xmlns:ev="http://www.w3.org/2001/xml-events" xmlns:xlink="http://www.w3.org/1999/xlink"><defs /><path d="M388 436Q395 449 394.5 462.5Q394 476 384 479Q361 487 345 460Q338 448 338.5 434.5Q339 421 349 418Q372 409 388 436Z" fill="#2d2b2e" stroke="none" transform="scale(1,-1) translate(0,-256)" /><path d="M173 430Q167 438 160.5 432.5Q154 427 142 416Q130 406 127.5 401.0Q125 396 128 388Q132 380 139.0 386.0Q146 392 152 397Q158 402 168.0 412.5Q178 423 173 430Z" fill="#2d2b2e" stroke="none" transform="scale(1,-1) translate(0,-256)" /></svg>