<?xml version="1.0" encoding="utf-8" ?>
<svg baseProfile="full" height="256" version="1.1" width="256" xmlns="http://www.w3.org/2000/svg" xmlns:ev="http://www.w3.org/2001/xml-events" xmlns:xlink="http://www.w3.org/1999/xlink"><defs /><path d="M603 435Q603 435 629.5 447.0Q656 459 698.5 473.0Q741 487 789 493Q872 502 927.5 472.5Q983 443 1021 390Q1040 363 1051.0 327.5Q1062 292 1067.0 255.5Q1072 219 1073.0 188.5Q1074 158 1073 142Q1071 93 1044.5 60.5Q1018 28 964 19Q926 12 889.5 26.5Q853 41 821.5 68.5Q790 96 769 130Q747 165 744.5 197.0Q742 229 749.5 254.5Q757 280 764 294Q768 302 778.5 314.0Q789 326 798.0 338.0Q807 350 808.0 356.5Q809 363 794 361Q763 357 736.0 320.0Q709 283 705 229Q703 202 712.5 175.0Q722 148 735.5 125.5Q749 103 759.5 89.0Q770 75 770 75Q770 75 749.0 74.5Q728 74 697 79Q667 84 649.5 89.0Q632 94 632 94Q632 94 624.0 79.0Q616 64 609 55Q597 39 583.0 32.5Q569 26 541 13Q523 4 502.5 -3.5Q482 -11 464.5 -11.0Q447 -11 437 2Q427 16 436.0 30.5Q445 45 459.0 57.5Q473 70 478 77Q483 85 487.0 101.0Q491 117 493.0 130.5Q495 144 495 144Q495 144 480.5 157.0Q466 170 446.5 189.0Q427 208 412 227Q389 255 380.5 274.0Q372 293 372 293Q372 293 359.0 293.5Q346 294 325 296Q304 297 285.5 304.0Q267 311 252 316Q242 319 223.0 325.5Q204 332 183.5 342.5Q163 353 149 367Q129 388 122.0 407.0Q115 426 116 439Q117 453 131.0 458.0Q145 463 171 476Q189 484 200.5 493.0Q212 502 226.5 513.0Q241 524 265 539Q303 561 343.5 574.5Q384 588 418 588Q452 589 468.0 580.5Q484 572 484 572Q484 572 486.5 583.0Q489 594 497.0 609.5Q505 625 520.5 640.0Q536 655 561 662Q588 669 619.5 660.5Q651 652 670 619Q689 588 686.0 556.0Q683 524 668 499Q656 479 640.5 465.0Q625 451 614.0 443.0Q603 435 603 435Z" fill="#b5c2c8" stroke="none" transform="scale(1,-1) translate(0,-256)" /></svg>