<?xml version="1.0" encoding="utf-8" ?>
<svg baseProfile="full" height="256" version="1.1" width="256" xmlns="http://www.w3.org/2000/svg" xmlns:ev="http://www.w3.org/2001/xml-events" xmlns:xlink="http://www.w3.org/1999/xlink"><defs /><path d="M138 419Q144 419 147 424Q152 433 144 438L89 476Q80 482 75 473Q70 464 79 459L133 421Q136 419 138 419Z" fill="#6ba3ab" stroke="none" transform="scale(1,-1) translate(0,-256)" /><path d="M54 411Q54 411 54.0 411.0Q54 411 54 411L135 401Q145 401 145 411Q144 421 134 421L54 431Q44 431 44 421Q44 411 54 411Z" fill="#6ba3ab" stroke="none" transform="scale(1,-1) translate(0,-256)" /><path d="M64 358Q67 356 71 357L143 379Q152 381 149 391Q147 401 137 398L65 377Q55 374 58 364Q60 360 64 358Z" fill="#6ba3ab" stroke="none" transform="scale(1,-1) translate(0,-256)" /><path d="M519 351Q514 359 501.5 353.5Q489 348 473 338Q458 327 429.5 317.5Q401 308 372 305Q352 302 329.0 305.5Q306 309 289.5 313.5Q273 318 273 318Q273 318 285.5 321.0Q298 324 308.0 330.5Q318 337 309 346Q304 351 293.5 348.0Q283 345 268.5 340.0Q254 335 239 336Q227 336 207.5 343.0Q188 350 167 365Q161 370 153.0 378.5Q145 387 138.5 391.5Q132 396 129 388Q127 383 134.0 373.0Q141 363 155 351Q175 334 211.5 317.0Q248 300 299 289Q354 278 390.5 280.0Q427 282 464 298Q477 304 491.5 313.5Q506 323 514.5 333.0Q523 343 519 351Z" fill="#6ba3ab" stroke="none" transform="scale(1,-1) translate(0,-256)" /></svg>