<?xml version="1.0" encoding="utf-8" ?>
<svg baseProfile="full" height="256" version="1.1" width="256" xmlns="http://www.w3.org/2000/svg" xmlns:ev="http://www.w3.org/2001/xml-events" xmlns:xlink="http://www.w3.org/1999/xlink"><defs /><path d="M720 204Q719 202 715.5 187.5Q712 173 723 143Q727 132 733.0 123.0Q739 114 738 109Q736 104 718.5 95.0Q701 86 676 87Q656 88 629.5 97.0Q603 106 577.5 129.0Q552 152 535.5 194.5Q519 237 518 305Q518 353 508.5 368.0Q499 383 479 390Q471 392 471 399Q471 405 477 407Q482 408 496.0 406.5Q510 405 521 394Q541 374 543.5 353.0Q546 332 547 307Q548 294 550.0 265.0Q552 236 564.0 202.0Q576 168 607 142Q631 121 652.5 116.5Q674 112 688.0 115.0Q702 118 702 120Q703 122 696.0 136.0Q689 150 662 166Q649 174 636.5 185.5Q624 197 615 219Q611 226 609.0 237.0Q607 248 612 249Q617 250 620.5 245.5Q624 241 629 234Q649 204 670.0 192.0Q691 180 692 185Q699 209 692.0 224.5Q685 240 673.5 252.0Q662 264 656 280Q648 299 649.0 306.0Q650 313 651 314Q655 317 659.0 312.0Q663 307 665 304Q686 270 701.5 260.5Q717 251 718 254Q725 262 725.5 273.0Q726 284 726 294Q726 306 722.5 322.0Q719 338 719 346Q719 355 725.0 353.0Q731 351 735 343Q749 309 747.5 283.0Q746 257 736.5 237.5Q727 218 720 204Z" fill="#546e7a" stroke="none" transform="scale(1,-1) translate(0,-256)" /></svg>