<?xml version="1.0" encoding="utf-8" ?>
<svg baseProfile="full" height="256" version="1.1" width="256" xmlns="http://www.w3.org/2000/svg" xmlns:ev="http://www.w3.org/2001/xml-events" xmlns:xlink="http://www.w3.org/1999/xlink"><defs /><path d="M628 14 747 0Q747 0 738.5 -14.0Q730 -28 717.5 -48.0Q705 -68 693.5 -87.0Q682 -106 678 -116Q668 -137 676.5 -144.0Q685 -151 708 -166Q734 -184 730.0 -198.0Q726 -212 713 -212Q708 -212 680.0 -212.0Q652 -212 613.0 -212.0Q574 -212 533.5 -212.5Q493 -213 462.0 -212.5Q431 -212 421 -212Q371 -210 378 -182Q380 -173 393.0 -169.0Q406 -165 423.5 -162.5Q441 -160 458 -155Q476 -151 500.5 -146.0Q525 -141 545.0 -133.0Q565 -125 573 -111Q580 -99 589.5 -78.0Q599 -57 608.0 -36.0Q617 -15 622.5 -0.5Q628 14 628 14Z" fill="#e8a631" stroke="none" transform="scale(1,-1) translate(0,-256)" /><path d="M181 899Q155 892 133.0 868.0Q111 844 95 788Q94 783 98.5 779.5Q103 776 108 779Q117 784 127.0 788.5Q137 793 150 789Q166 783 176.0 777.0Q186 771 215 772Q226 773 239.0 781.5Q252 790 261.0 805.0Q270 820 268.5 839.0Q267 858 248 879Q233 896 214.0 899.5Q195 903 181 899Z" fill="#e8a631" stroke="none" transform="scale(1,-1) translate(0,-256)" /></svg>