<?xml version="1.0" encoding="utf-8" ?>
<svg baseProfile="full" height="256" version="1.1" width="256" xmlns="http://www.w3.org/2000/svg" xmlns:ev="http://www.w3.org/2001/xml-events" xmlns:xlink="http://www.w3.org/1999/xlink"><defs /><path d="M578 691Q578 691 599.5 683.5Q621 676 656.5 657.5Q692 639 733 607Q777 571 811.5 531.5Q846 492 869.5 457.5Q893 423 905.0 401.0Q917 379 917 379Q917 379 925.0 368.5Q933 358 942.5 346.0Q952 334 957 329Q962 323 974.5 310.0Q987 297 997.5 285.5Q1008 274 1008 274Q1008 274 1020.5 289.5Q1033 305 1049.0 323.0Q1065 341 1074 350Q1080 357 1097.0 374.0Q1114 391 1134.0 409.5Q1154 428 1170.0 440.5Q1186 453 1191 451Q1198 448 1196.0 428.0Q1194 408 1186.0 381.0Q1178 354 1167 329Q1157 304 1138.0 282.5Q1119 261 1103.5 247.5Q1088 234 1088 234Q1088 234 1100.5 222.0Q1113 210 1128.0 192.5Q1143 175 1152 160Q1161 144 1170.5 117.5Q1180 91 1185.0 69.0Q1190 47 1183 44Q1178 42 1157.5 55.0Q1137 68 1113.0 86.0Q1089 104 1075 117Q1061 128 1043.0 145.5Q1025 163 1012.0 176.5Q999 190 999 190Q999 190 986.5 175.0Q974 160 959.0 141.0Q944 122 936 112Q914 86 889.0 62.5Q864 39 847.0 24.5Q830 10 830 10Q830 10 838.5 3.0Q847 -4 858.0 -13.5Q869 -23 877.5 -32.5Q886 -42 884 -46Q882 -55 859.5 -58.5Q837 -62 798 -62Q781 -61 757.0 -58.5Q733 -56 710.0 -53.0Q687 -50 672.0 -47.0Q657 -44 657 -44Q657 -44 678.0 -37.0Q699 -30 730 -13Q773 12 801.0 32.0Q829 52 848.0 69.0Q867 86 883 102Q910 129 932.5 155.5Q955 182 969.5 202.0Q984 222 983 228Q983 237 968.0 261.0Q953 285 910 336Q853 402 784.5 448.5Q716 495 651 517Q619 528 583.0 533.5Q547 539 516.0 540.5Q485 542 465.5 542.0Q446 542 446 542Q446 542 453.0 553.5Q460 565 470.5 581.0Q481 597 492 611Q504 627 523.0 644.5Q542 662 558.0 675.5Q574 689 578 691Z" fill="#1b65a6" stroke="none" transform="scale(1,-1) translate(0,-256)" /><path d="M496 221Q496 221 513.5 221.5Q531 222 562.5 215.5Q594 209 637 189Q680 168 709.5 144.0Q739 120 755.0 103.5Q771 87 771 87Q771 87 754.5 80.5Q738 74 703 72Q688 71 658.5 74.0Q629 77 596.0 87.0Q563 97 536 117Q512 135 504.5 156.0Q497 177 496.5 195.0Q496 213 496 221Z" fill="#1b65a6" stroke="none" transform="scale(1,-1) translate(0,-256)" /><path d="M87 268Q92 277 105.0 274.5Q118 272 134.0 264.0Q150 256 165 248Q183 239 201.5 226.5Q220 214 219 205Q219 200 206.0 189.5Q193 179 177.0 169.0Q161 159 150 153Q120 137 114 153Q109 164 121.5 171.5Q134 179 144 186Q154 193 168.5 199.0Q183 205 183 205Q183 205 172.0 209.5Q161 214 145.0 220.0Q129 226 116 233Q96 242 88.5 249.0Q81 256 87 268Z" fill="#1b65a6" stroke="none" transform="scale(1,-1) translate(0,-256)" /></svg>