<?xml version="1.0" encoding="utf-8" ?>
<svg baseProfile="full" height="256" version="1.1" width="256" xmlns="http://www.w3.org/2000/svg" xmlns:ev="http://www.w3.org/2001/xml-events" xmlns:xlink="http://www.w3.org/1999/xlink"><defs /><path d="M472 285Q481 287 485.0 276.5Q489 266 490 261Q491 255 494.0 235.5Q497 216 495 205Q495 200 487.0 187.5Q479 175 469.0 161.0Q459 147 450.5 135.5Q442 124 439 122Q434 116 425.5 111.0Q417 106 410 112Q403 118 407.0 127.5Q411 137 416 144Q420 149 430.5 164.0Q441 179 451.0 194.0Q461 209 463 214Q465 221 463.0 231.5Q461 242 460 256Q459 284 472 285Z" fill="#e0ecf3" stroke="none" transform="scale(1,-1) translate(0,-256)" /><path d="M517 285Q518 296 530.5 296.5Q543 297 552 298Q557 298 588.0 297.5Q619 297 660.0 295.0Q701 293 738 291Q813 286 858.5 276.5Q904 267 918 264Q935 261 949.5 257.5Q964 254 964 243Q964 232 950.5 233.0Q937 234 921 237Q902 240 871.0 245.5Q840 251 804.5 255.5Q769 260 738 262Q716 263 687.5 264.5Q659 266 631.0 267.0Q603 268 582.0 269.0Q561 270 554 270Q539 270 528.0 272.0Q517 274 517 285Z" fill="#e0ecf3" stroke="none" transform="scale(1,-1) translate(0,-256)" /></svg>