<?xml version="1.0" encoding="utf-8" ?>
<svg baseProfile="full" height="256" version="1.1" width="256" xmlns="http://www.w3.org/2000/svg" xmlns:ev="http://www.w3.org/2001/xml-events" xmlns:xlink="http://www.w3.org/1999/xlink"><defs /><path d="M648 785Q750 782 811.5 762.5Q873 743 903.5 716.5Q934 690 943.5 666.0Q953 642 952 630Q952 626 948.5 587.5Q945 549 939.5 488.0Q934 427 927.5 354.0Q921 281 915 207Q909 140 904.0 78.5Q899 17 894.5 -31.0Q890 -79 887.0 -108.0Q884 -137 882 -140Q877 -148 845.0 -166.0Q813 -184 758.0 -200.0Q703 -216 630 -216Q556 -216 504.0 -198.0Q452 -180 423.0 -160.0Q394 -140 388 -133Q384 -128 381.0 -115.5Q378 -103 375.0 -70.5Q372 -38 367.5 25.5Q363 89 355 194Q345 335 337.0 427.5Q329 520 325.0 573.0Q321 626 321 651Q322 682 349.5 707.5Q377 733 423.5 751.0Q470 769 528.0 778.0Q586 787 648 785Z" fill="#a6cfd6" stroke="none" transform="scale(1,-1) translate(0,-256)" /></svg>