<?xml version="1.0" encoding="utf-8" ?>
<svg baseProfile="full" height="256" version="1.1" width="256" xmlns="http://www.w3.org/2000/svg" xmlns:ev="http://www.w3.org/2001/xml-events" xmlns:xlink="http://www.w3.org/1999/xlink"><defs /><path d="M413 525 622 739 655 737 876 495H848Q848 495 833.5 509.5Q819 524 796.0 546.5Q773 569 747.0 594.5Q721 620 697.5 642.5Q674 665 658.5 679.5Q643 694 642 694Q641 694 625.5 679.5Q610 665 586.5 642.5Q563 620 536.5 594.5Q510 569 486.5 546.0Q463 523 448.5 508.5Q434 494 434 494L402 495Z" fill="#904625" stroke="none" transform="scale(1,-1) translate(0,-256)" /></svg>