<?xml version="1.0" encoding="utf-8" ?>
<svg baseProfile="full" height="256" version="1.1" width="256" xmlns="http://www.w3.org/2000/svg" xmlns:ev="http://www.w3.org/2001/xml-events" xmlns:xlink="http://www.w3.org/1999/xlink"><defs /><path d="M312 221H388Q388 221 388.0 231.5Q388 242 388.0 255.5Q388 269 388 278Q387 291 377.5 300.5Q368 310 350 310Q335 310 324.0 300.0Q313 290 313 277Q313 268 312.5 254.5Q312 241 312.0 231.0Q312 221 312 221Z" fill="#6ca4ae" stroke="none" transform="scale(1,-1) translate(0,-256)" /><path d="M883.5 219.031005859375H959.5Q959.5 219.031005859375 959.5 229.531005859375Q959.5 240.031005859375 959.5 253.531005859375Q959.5 267.031005859375 959.5 276.031005859375Q958.5 289.031005859375 949.0 298.531005859375Q939.5 308.031005859375 921.5 308.031005859375Q906.5 308.031005859375 895.5 298.031005859375Q884.5 288.031005859375 884.5 275.031005859375Q884.5 266.031005859375 884.0 252.531005859375Q883.5 239.031005859375 883.5 229.031005859375Q883.5 219.031005859375 883.5 219.031005859375Z" fill="#6ca4ae" stroke="none" transform="scale(1,-1) translate(0,-256)" /></svg>