<?xml version="1.0" encoding="utf-8" ?>
<svg baseProfile="full" height="256" version="1.1" width="256" xmlns="http://www.w3.org/2000/svg" xmlns:ev="http://www.w3.org/2001/xml-events" xmlns:xlink="http://www.w3.org/1999/xlink"><defs /><path d="M634 -164Q742 -164 840.0 -128.5Q938 -93 1013 -28Q1093 44 1135.5 142.5Q1178 241 1178 360Q1178 479 1135.5 578.5Q1093 678 1013 749Q938 815 840.5 849.5Q743 884 634 884Q555 884 477.0 864.0Q399 844 329.5 803.5Q260 763 206.0 700.5Q152 638 121.0 553.0Q90 468 90 360Q90 252 121.0 167.5Q152 83 206.0 20.5Q260 -42 329.5 -83.0Q399 -124 477.0 -144.0Q555 -164 634 -164Z" fill="#000000" stroke="none" transform="scale(1,-1) translate(0,-256)" /><path d="M457.9348907470703 338.67506408691406Q457.9348907470703 408.1009826660156 408.85794830322266 455.9809265136719Q359.781005859375 503.8608703613281 292.74908447265625 503.8608703613281Q225.7171630859375 503.8608703613281 177.83721923828125 455.9809265136719Q129.957275390625 408.1009826660156 129.957275390625 338.67506408691406Q129.957275390625 271.6431427001953 177.83721923828125 223.76319885253906Q225.7171630859375 175.8832550048828 292.74908447265625 175.8832550048828Q359.781005859375 175.8832550048828 408.85794830322266 223.76319885253906Q457.9348907470703 271.6431427001953 457.9348907470703 338.67506408691406Z" fill="#000000" stroke="none" transform="scale(1,-1) translate(0,-256)" /><path d="M1146.9978942871094 338.67506408691406Q1146.9978942871094 408.1009826660156 1097.9209518432617 455.9809265136719Q1048.844009399414 503.8608703613281 981.8120880126953 503.8608703613281Q914.7801666259766 503.8608703613281 866.9002227783203 455.9809265136719Q819.0202789306641 408.1009826660156 819.0202789306641 338.67506408691406Q819.0202789306641 271.6431427001953 866.9002227783203 223.76319885253906Q914.7801666259766 175.8832550048828 981.8120880126953 175.8832550048828Q1048.844009399414 175.8832550048828 1097.9209518432617 223.76319885253906Q1146.9978942871094 271.6431427001953 1146.9978942871094 338.67506408691406Z" fill="#000000" stroke="none" transform="scale(1,-1) translate(0,-256)" /><path d="M221 -53Q260 -53 291.5 -31.5Q323 -10 341.5 23.0Q360 56 360 88Q360 111 354.0 137.0Q348 163 333.5 200.5Q319 238 294 296Q280 326 269.5 352.5Q259 379 246 403Q237 420 217.5 420.0Q198 420 189 403Q175 379 164.5 351.5Q154 324 144 298Q140 289 136.5 280.5Q133 272 130 264Q108 208 94.0 166.0Q80 124 80 89Q80 56 98.5 23.0Q117 -10 149.0 -31.5Q181 -53 221 -53Z" fill="#000000" stroke="none" transform="scale(1,-1) translate(0,-256)" /><path d="M1093.6985931396484 392.1298522949219Q1128.1746978759766 392.1298522949219 1156.0207824707031 411.1359100341797Q1183.8668670654297 430.1419677734375 1200.2209167480469 459.3140563964844Q1216.574966430664 488.48614501953125 1216.574966430664 516.7742309570312Q1216.574966430664 537.1062927246094 1211.2709503173828 560.0903625488281Q1205.9669342041016 583.0744323730469 1193.1488952636719 616.2245330810547Q1180.3308563232422 649.3746337890625 1158.2307891845703 700.6467895507812Q1145.854751586914 727.1668701171875 1136.5727233886719 750.5929412841797Q1127.2906951904297 774.0190124511719 1115.7986602783203 795.2350769042969Q1107.8426361083984 810.2631225585938 1090.6045837402344 810.2631225585938Q1073.3665313720703 810.2631225585938 1065.4105072021484 795.2350769042969Q1053.0344696044922 774.0190124511719 1043.75244140625 749.7089385986328Q1034.4704132080078 725.3988647460938 1025.630386352539 702.414794921875Q1022.0943756103516 694.4587707519531 1019.0003662109375 686.9447479248047Q1015.9063568115234 679.4307250976562 1013.2543487548828 672.3587036132812Q993.8062896728516 622.8545532226562 981.4302520751953 585.7264404296875Q969.0542144775391 548.5983276367188 969.0542144775391 517.6582336425781Q969.0542144775391 488.48614501953125 985.4082641601562 459.3140563964844Q1001.7623138427734 430.1419677734375 1030.0503997802734 411.1359100341797Q1058.3384857177734 392.1298522949219 1093.6985931396484 392.1298522949219Z" fill="#000000" stroke="none" transform="scale(1,-1) translate(0,-256)" /></svg>