<?xml version="1.0" encoding="utf-8" ?>
<svg baseProfile="full" height="256" version="1.1" width="256" xmlns="http://www.w3.org/2000/svg" xmlns:ev="http://www.w3.org/2001/xml-events" xmlns:xlink="http://www.w3.org/1999/xlink"><defs /><path d="M904 95Q904 126 868.0 151.5Q832 177 771.5 192.0Q711 207 638 207Q564 207 503.5 192.0Q443 177 407.0 151.5Q371 126 371 95Q371 65 407.0 39.5Q443 14 503.5 -1.0Q564 -16 638 -16Q711 -16 771.5 -1.0Q832 14 868.0 39.5Q904 65 904 95Z" fill="#422b0d" stroke="none" transform="scale(1,-1) translate(0,-256)" /><path d="M294 577Q333 583 370.0 603.0Q407 623 435 655H436Q443 663 451.5 661.5Q460 660 465.0 653.0Q470 646 464 636Q451 612 429 594Q400 567 365.0 554.5Q330 542 295 542Q284 543 280.5 551.0Q277 559 280.5 567.0Q284 575 294 577Z" fill="#422b0d" stroke="none" transform="scale(1,-1) translate(0,-256)" /><path d="M845 655Q873 623 910.0 603.0Q947 583 986 577Q996 575 999.5 567.0Q1003 559 999.5 551.0Q996 543 985 542Q951 542 915.5 554.5Q880 567 851 594Q829 612 816 636Q810 646 815.0 653.0Q820 660 828.5 661.5Q837 663 844 655Z" fill="#422b0d" stroke="none" transform="scale(1,-1) translate(0,-256)" /><path d="M450.375 519.125Q479.375 519.125 502.375 495.625Q525.375 472.125 525.375 431.125Q525.375 390.125 502.375 366.625Q479.375 343.125 450.375 343.125Q421.375 343.125 398.375 366.625Q375.375 390.125 375.375 431.125Q375.375 472.125 398.375 495.625Q421.375 519.125 450.375 519.125Z" fill="#422b0d" stroke="none" transform="scale(1,-1) translate(0,-256)" /><path d="M810.0 519.125Q839.0 519.125 862.0 495.625Q885.0 472.125 885.0 431.125Q885.0 390.125 862.0 366.625Q839.0 343.125 810.0 343.125Q781.0 343.125 758.0 366.625Q735.0 390.125 735.0 431.125Q735.0 472.125 758.0 495.625Q781.0 519.125 810.0 519.125Z" fill="#422b0d" stroke="none" transform="scale(1,-1) translate(0,-256)" /></svg>