<?xml version="1.0" encoding="utf-8" ?>
<svg baseProfile="full" height="256" version="1.1" width="256" xmlns="http://www.w3.org/2000/svg" xmlns:ev="http://www.w3.org/2001/xml-events" xmlns:xlink="http://www.w3.org/1999/xlink"><defs /><path d="M556 595Q578 593 580.5 573.0Q583 553 578 507Q574 477 561.5 442.5Q549 408 535.0 378.5Q521 349 512 334Q493 302 481.5 276.0Q470 250 463 223Q459 210 455.0 191.0Q451 172 443.0 153.5Q435 135 421.0 123.5Q407 112 384 116Q358 120 348.5 142.5Q339 165 342.0 195.0Q345 225 357 254Q369 284 386.0 307.0Q403 330 422.5 353.0Q442 376 462 407Q479 434 493.5 467.0Q508 500 515 529Q523 557 530.0 577.0Q537 597 556 595Z" fill="#e4f57d" stroke="none" transform="scale(1,-1) translate(0,-256)" /></svg>