<?xml version="1.0" encoding="utf-8" ?>
<svg baseProfile="full" height="256" version="1.1" width="256" xmlns="http://www.w3.org/2000/svg" xmlns:ev="http://www.w3.org/2001/xml-events" xmlns:xlink="http://www.w3.org/1999/xlink"><defs /><path d="M742 66Q737 68 732.5 66.0Q728 64 728 64Q728 64 727.5 67.5Q727 71 728 75Q729 79 732.0 82.0Q735 85 737 87Q737 87 740.5 103.5Q744 120 768 139L786 154L804 168Q828 187 844.5 186.5Q861 186 861 186Q864 188 867.5 190.0Q871 192 875 193Q879 193 882.5 191.5Q886 190 886 190Q886 190 883.0 186.0Q880 182 881 178Q882 170 899 168Q911 166 927.0 155.5Q943 145 949 124Q949 124 948.0 119.5Q947 115 947 115Q946 115 921.5 95.0Q897 75 868 52Q838 28 813.5 8.5Q789 -11 788 -12L784 -15Q784 -15 781.5 -13.5Q779 -12 779 -12Q760 -1 753.0 17.0Q746 35 747 47Q749 63 742 66Z" fill="#543930" stroke="none" transform="scale(1,-1) translate(0,-256)" /><path d="M825 -55Q819 -53 805.5 -43.5Q792 -34 783 -17Q777 -5 777.5 3.5Q778 12 777 14Q771 22 768.0 30.0Q765 38 763 43Q763 44 763.5 44.0Q764 44 765 44Q773 36 783.5 26.0Q794 16 803 10Q818 -2 827.5 -2.0Q837 -2 842.0 2.0Q847 6 847 6Q847 6 853.5 4.0Q860 2 869.0 5.0Q878 8 887 25Q891 34 893 46Q898 72 908.0 88.0Q918 104 918 104Q915 106 909.0 116.0Q903 126 897.0 137.0Q891 148 888 153Q887 156 890 154Q894 152 902.0 145.5Q910 139 921 126Q921 126 930.5 128.5Q940 131 948 126Q960 119 963.0 109.5Q966 100 965 94Q969 91 974.5 85.5Q980 80 983 69Q986 60 983.0 53.5Q980 47 976 43Q987 36 989.0 23.0Q991 10 989.5 -0.5Q988 -11 988 -11Q988 -11 983.0 -2.0Q978 7 972 6Q962 5 957.5 0.0Q953 -5 952 -7Q949 -16 940.0 -31.5Q931 -47 906 -57Q897 -61 885.5 -60.5Q874 -60 866 -53Q859 -59 846.5 -58.5Q834 -58 825 -55Z" fill="#543930" stroke="none" transform="scale(1,-1) translate(0,-256)" /></svg>