<?xml version="1.0" encoding="utf-8" ?>
<svg baseProfile="full" height="256" version="1.1" width="256" xmlns="http://www.w3.org/2000/svg" xmlns:ev="http://www.w3.org/2001/xml-events" xmlns:xlink="http://www.w3.org/1999/xlink"><defs /><path d="M889.7218780517578 110.32614135742188Q886.2521057128906 114.68443298339844 880.9616546630859 115.500244140625Q875.6712036132812 116.31605529785156 871.4925079345703 112.97789001464844Q867.3138122558594 109.63972473144531 866.7194061279297 104.23548126220703Q866.125 98.83123779296875 869.4631652832031 94.65254211425781Q872.9329376220703 90.29425048828125 878.223388671875 89.47843933105469Q883.5138397216797 88.66262817382812 887.8241424560547 91.82119750976562Q892.0028381347656 95.15936279296875 892.5972442626953 100.56360626220703Q893.191650390625 105.96784973144531 889.7218780517578 110.32614135742188Z" fill="#404040" stroke="none" transform="scale(1,-1) translate(0,-256)" /><path d="M821.8961029052734 57.77162170410156Q818.4264221191406 62.12762451171875 813.1375274658203 62.94187927246094Q807.8486328125 63.756134033203125 803.6721343994141 60.418060302734375Q799.4956359863281 57.079986572265625 798.9027404785156 51.677391052246094Q798.3098449707031 46.27479553222656 801.6479187011719 42.098297119140625Q805.1175994873047 37.74229431152344 810.406494140625 36.92803955078125Q815.6953887939453 36.11378479003906 820.0034942626953 39.27235412597656Q824.1799926757812 42.61042785644531 824.7728881835938 48.013023376464844Q825.3657836914062 53.415618896484375 821.8961029052734 57.77162170410156Z" fill="#404040" stroke="none" transform="scale(1,-1) translate(0,-256)" /></svg>