<?xml version="1.0" encoding="utf-8" ?>
<svg baseProfile="full" height="256" version="1.1" width="256" xmlns="http://www.w3.org/2000/svg" xmlns:ev="http://www.w3.org/2001/xml-events" xmlns:xlink="http://www.w3.org/1999/xlink"><defs /><path d="M768.0340076712891 175.60549154598266 750.2384559018537 161.37117895949632Q738.3747547222301 151.8816372351721 730.8673377842642 143.78619693405926Q723.3599208462983 135.69075663294643 719.4804893750697 129.90001217415556Q715.6010579038411 124.1092677153647 714.1005185246468 120.91815396398306Q712.5999791454524 117.72704021260142 712.5999791454524 117.72704021260142L720.3151174979284 118.72198739740998L775.4141019238159 166.37813476566225Z" fill="#000000" stroke="none" transform="scale(1,-1) translate(0,-256)" /><path d="M276.7517547607422 693.0910034179688Q271.6604309082031 684.4521789550781 275.6542510986328 679.1355743408203Q279.6480712890625 673.8189697265625 279.6480712890625 673.8189697265625Q279.6480712890625 673.8189697265625 280.30941009521484 678.5107955932617Q280.9707489013672 683.2026214599609 284.51422119140625 687.0295715332031Q288.50030517578125 691.7532348632812 295.8175811767578 688.141845703125Q295.8175811767578 688.141845703125 293.8193817138672 692.4735260009766Q291.82118225097656 696.8052062988281 287.2760314941406 698.490852355957Q282.7308807373047 700.1764984130859 276.7517547607422 693.0910034179688Z" fill="#000000" stroke="none" transform="scale(1,-1) translate(0,-256)" /><path d="M523.3309478759766 -577.1194610595703Q523.3309478759766 -577.1194610595703 523.742546081543 -578.7853164672852Q524.1541442871094 -580.451171875 524.1541442871094 -580.451171875Q524.1541442871094 -580.451171875 535.5071182250977 -582.8645095825195Q546.8600921630859 -585.2778472900391 558.8232650756836 -587.1234817504883Q570.7864379882812 -588.9691162109375 572.0068359375 -587.8337097167969Q573.7664337158203 -584.8307952880859 574.0926361083984 -579.0638732910156Q573.879638671875 -575.1644592285156 572.1622467041016 -567.2012329101562Q569.0824584960938 -557.7738037109375 562.5966796875 -544.6858673095703Q556.1109008789062 -531.5979309082031 551.0940170288086 -521.9239044189453Q546.0771331787109 -512.2498779296875 546.0771331787109 -512.2498779296875Q544.927734375 -514.6850891113281 541.5716400146484 -517.8074569702148Q538.2155456542969 -520.9298248291016 536.9241485595703 -520.7654266357422Q528.9205627441406 -526.8457641601562 523.0459671020508 -542.5551834106445Q517.1713714599609 -558.2646026611328 523.3309478759766 -577.1194610595703Z" fill="#000000" stroke="none" transform="scale(1,-1) translate(0,-256)" /><path d="M621.0936431884766 -724.9320678710938Q621.0936431884766 -724.9320678710938 619.7178802490234 -725.8732299804688Q618.3421173095703 -726.8143920898438 618.3421173095703 -726.8143920898438Q617.0896453857422 -726.4595947265625 602.0242691040039 -719.1974182128906Q586.9588928222656 -711.9352416992188 581.9490051269531 -710.5160522460938Q579.4440612792969 -709.8064575195312 577.909294128418 -709.0389709472656Q576.3745269775391 -708.271484375 575.3686370849609 -705.3247680664062Q573.7981567382812 -701.5526733398438 574.9792022705078 -695.8982543945312Q576.0369567871094 -691.539794921875 580.4108276367188 -686.1243896484375Q585.0312805175781 -678.1170654296875 593.8763809204102 -669.6428833007812Q602.7214813232422 -661.168701171875 610.3498229980469 -655.3443298339844Q617.9781646728516 -649.5199584960938 617.9781646728516 -649.5199584960938Q617.6082916259766 -653.4078369140625 620.0873031616211 -657.77001953125Q622.5663146972656 -662.1322021484375 623.0076141357422 -664.2535400390625Q628.5302276611328 -673.8032836914062 629.9969787597656 -692.1857299804688Q631.4637298583984 -710.5681762695312 621.0936431884766 -724.9320678710938Z" fill="#000000" stroke="none" transform="scale(1,-1) translate(0,-256)" /><path d="M639.9710651948117 335.1857259264216 657.8406556886621 349.47839977405965Q681.895873661153 368.71853764588013 695.2369448711397 372.4693575964775Q708.5780160811264 376.22017754707485 708.5780160811264 376.22017754707485L706.1972158825956 369.33368206908926L647.5318224267103 325.73271467071027Z" fill="#000000" stroke="none" transform="scale(1,-1) translate(0,-256)" /><path d="M-874.7451477050781 -75.46038818359375Q-877.4592895507812 -68.48390197753906 -885.8958892822266 -69.75872039794922Q-894.3324890136719 -71.03353881835938 -894.3324890136719 -71.03353881835938Q-894.3324890136719 -71.03353881835938 -890.7195129394531 -73.21360778808594Q-887.1065368652344 -75.3936767578125 -887.2075347900391 -79.23414611816406Q-887.1343231201172 -83.79574584960938 -897.4784088134766 -87.82099914550781Q-897.4784088134766 -87.82099914550781 -897.4784088134766 -87.82099914550781Q-897.4784088134766 -87.82099914550781 -897.4784088134766 -87.82099914550781Q-897.4784088134766 -87.82099914550781 -891.2977142333984 -87.85435485839844Q-885.1170196533203 -87.88771057128906 -879.5460586547852 -85.39710998535156Q-873.97509765625 -82.90650939941406 -874.7451477050781 -75.46038818359375Z" fill="#000000" stroke="none" transform="scale(1,-1) translate(0,-256)" /><path d="M737 91 729 -181V-182Q729 -193 721.0 -201.0Q713 -209 702 -209H590Q582 -209 575.0 -205.0Q568 -201 568 -195Q568 -184 590 -179L675 -170L667 91Z" fill="#000000" stroke="none" transform="scale(1,-1) translate(0,-256)" /><path d="M1185 127Q1193 123 1190 117Q1187 110 1179 113Q1176 115 1161.5 120.0Q1147 125 1147 125Q1145 126 1144.5 124.5Q1144 123 1145 122L1182 103Q1192 99 1187 92Q1184 86 1177 90Q1177 90 1168.5 94.0Q1160 98 1151.0 102.0Q1142 106 1141 107Q1139 107 1138.5 106.0Q1138 105 1139 104Q1144 100 1155.0 92.0Q1166 84 1166 84Q1173 80 1170 73Q1167 65 1158 70Q1158 70 1149.5 76.0Q1141 82 1130.5 88.5Q1120 95 1115 98Q1115 98 1115.0 98.0Q1115 98 1115 98Q1114 98 1113.0 97.0Q1112 96 1113 94Q1116 91 1116.5 86.0Q1117 81 1118 78Q1118 68 1112 66Q1110 66 1106.5 68.0Q1103 70 1103 73Q1104 77 1099.5 86.0Q1095 95 1091 100Q1088 104 1082.5 109.5Q1077 115 1077 126L983 162L826 191Q813 194 805.0 206.5Q797 219 800 233Q803 247 815.5 255.0Q828 263 842 260L1000 222Q1003 222 1008 219L1101 171Q1106 174 1111.5 174.0Q1117 174 1120 173Q1126 171 1136.5 167.0Q1147 163 1147 163L1178 153Q1187 151 1184 143Q1181 137 1173 139L1155 143Q1153 144 1152.5 142.0Q1152 140 1154 140Q1158 138 1170.0 133.0Q1182 128 1185 127Z" fill="#000000" stroke="none" transform="scale(1,-1) translate(0,-256)" /><path d="M840 268 916 250 899 170 818 188Q818 188 805.5 179.0Q793 170 777 157Q762 144 752.5 137.5Q743 131 743 131L742 54H662L660 132Q659 139 658.5 146.5Q658 154 654 160L582 265L756 381L826 279Q832 270 840 268Z" fill="#000000" stroke="none" transform="scale(1,-1) translate(0,-256)" /><path d="M839 891Q839 880 826 881Q832 879 830 872Q829 867 823.5 867.5Q818 868 818 868Q818 868 822.0 865.5Q826 863 824 858Q822 854 817.0 854.0Q812 854 812 854Q812 854 815.0 852.0Q818 850 816 845Q815 841 811.5 841.0Q808 841 806 842Q808 841 809.5 839.0Q811 837 809 833Q806 828 798.0 829.0Q790 830 786 831L777 828L763 618L716 399L607 428L670 641L697 849L701 884Q701 895 710.0 902.5Q719 910 731 909L821 901Q830 901 834.5 899.0Q839 897 839 891Z" fill="#000000" stroke="none" transform="scale(1,-1) translate(0,-256)" /><path d="M381 477Q381 477 403.5 471.0Q426 465 459.5 456.5Q493 448 526.0 439.5Q559 431 581.5 425.0Q604 419 604 419L572 310L363 384Q362 384 358 386V385L168 478L164 470Q163 467 161.0 458.5Q159 450 153 450Q149 450 148.5 453.5Q148 457 148 458Q148 457 146.5 452.5Q145 448 141 449Q135 449 135.0 453.0Q135 457 135 457Q135 457 133.0 452.5Q131 448 126 448Q121 449 121.0 453.0Q121 457 121 457Q121 457 118.5 452.5Q116 448 111 449Q104 451 104 454Q100 444 90 450Q81 455 88 472L123 556Q133 580 155 570Q155 570 162.5 566.0Q170 562 183 554Q188 551 209.5 542.0Q231 533 260.0 522.0Q289 511 316.5 500.5Q344 490 362.5 483.5Q381 477 381 477Z" fill="#000000" stroke="none" transform="scale(1,-1) translate(0,-256)" /><path d="M-650.4922027587891 425.85191345214844Q-669.9980773925781 426.0771484375 -689.1598968505859 426.8955383300781Q-708.3217163085938 427.71392822265625 -738.3880310058594 443.58642578125Q-738.3880310058594 443.58642578125 -738.3264846801758 440.70545196533203Q-738.2649383544922 437.82447814941406 -741.6728668212891 435.93194580078125Q-743.8929138183594 434.095947265625 -746.8626174926758 433.9546127319336Q-749.8323211669922 433.8132781982422 -749.8323211669922 433.8132781982422Q-748.4887237548828 432.1468811035156 -747.9889526367188 431.01710510253906Q-742.6145629882812 424.3515167236328 -732.7385330200195 418.4769515991211Q-722.8625030517578 412.6023864746094 -715.0797271728516 410.08888244628906Q-709.6727142333984 407.4623107910156 -696.6223297119141 406.0646743774414Q-683.5719451904297 404.6670379638672 -670.8166809082031 408.7347717285156Q-668.0968627929688 409.4409942626953 -666.5649261474609 410.09068298339844Q-657.0292510986328 414.58197021484375 -654.6987228393555 419.59552001953125Q-652.3681945800781 424.60906982421875 -650.4922027587891 425.85191345214844Z" fill="#000000" stroke="none" transform="scale(1,-1) translate(0,-256)" /><path d="M-754.76025390625 -151.09713745117188Q-755.0158843994141 -150.13035583496094 -755.1112289428711 -146.6026840209961Q-755.2065734863281 -143.07501220703125 -755.1741027832031 -140.03073120117188Q-755.6204223632812 -132.00860595703125 -757.7932815551758 -123.79096221923828Q-759.9661407470703 -115.57331848144531 -767.095458984375 -110.78018188476562Q-778.7328491210938 -104.77316284179688 -782.8270721435547 -114.62568664550781Q-786.9212951660156 -124.47821044921875 -787.3230438232422 -137.210693359375Q-787.7247924804688 -149.94317626953125 -786.9579010009766 -152.84352111816406Q-786.9579010009766 -152.84352111816406 -785.2617645263672 -143.4228057861328Q-783.5656280517578 -134.00209045410156 -778.5138244628906 -134.10525512695312Q-770.2645721435547 -133.63267517089844 -765.389289855957 -137.8188705444336Q-760.5140075683594 -142.00506591796875 -759.2033843994141 -143.79469299316406Q-758.94775390625 -144.761474609375 -757.6371307373047 -146.5511016845703Q-756.3265075683594 -148.34072875976562 -754.76025390625 -151.09713745117188Z" fill="#000000" stroke="none" transform="scale(1,-1) translate(0,-256)" /><path d="M886.7859649658203 217.7271270751953Q899.9836578369141 225.1517791748047 906.3112640380859 232.46917724609375Q912.6388702392578 239.7865753173828 914.8427276611328 245.3208770751953Q915.3936920166016 246.70445251464844 909.8310852050781 248.80897521972656Q904.2684783935547 250.9134979248047 883.7196655273438 243.24517822265625Q856.6419372558594 233.1116943359375 845.9521865844727 226.09142303466797Q835.2624359130859 219.07115173339844 835.1554183959961 215.0519790649414Q835.0484008789062 211.03280639648438 838.9623565673828 209.0744171142578Q842.8763122558594 207.11602783203125 844.0439300537109 206.83348083496094Q865.2009124755859 204.24195861816406 886.7859649658203 217.7271270751953Z" fill="#000000" stroke="none" transform="scale(1,-1) translate(0,-256)" /><path d="M-556.4764404296875 -487.4073944091797Q-556.4764404296875 -487.4073944091797 -556.4764404296875 -487.4073944091797Q-556.4764404296875 -487.4073944091797 -556.4764404296875 -487.4073944091797Q-556.4764404296875 -487.4073944091797 -562.2400512695312 -478.52710723876953Q-568.003662109375 -469.6468200683594 -571.4850463867188 -458.82677459716797Q-574.9664306640625 -448.00672912597656 -568.8643798828125 -440.1957702636719L-585.1397705078125 -440.90602111816406Q-586.2421875 -451.0290222167969 -579.7774658203125 -461.2818374633789Q-573.312744140625 -471.53465270996094 -565.5521850585938 -478.7176513671875Q-557.7916259765625 -485.90065002441406 -556.4764404296875 -487.4073944091797Q-556.4764404296875 -487.4073944091797 -556.4764404296875 -487.4073944091797Q-556.4764404296875 -487.4073944091797 -556.4764404296875 -487.4073944091797Q-556.4764404296875 -487.4073944091797 -556.4764404296875 -487.4073944091797Q-556.4764404296875 -487.4073944091797 -556.4764404296875 -487.4073944091797Z" fill="#000000" stroke="none" transform="scale(1,-1) translate(0,-256)" /><path d="M861.5917358398438 425.0338134765625 833.2796325683594 453.9461975097656Q837.8125762939453 464.71681213378906 836.6615447998047 470.21681213378906Q835.5105133056641 475.71681213378906 835.5105133056641 475.71681213378906Q835.5105133056641 475.71681213378906 836.8784637451172 475.23399353027344Q838.2464141845703 474.7511749267578 839.6143646240234 474.2683563232422Q844.6286010742188 473.22625732421875 851.0131607055664 470.6089859008789Q857.3977203369141 467.99171447753906 863.3365783691406 460.8018493652344Q869.7282562255859 454.9075164794922 870.6528778076172 448.75975036621094Q871.5774993896484 442.6119842529297 869.7662200927734 437.4298553466797Q869.3134002685547 436.1343231201172 868.8605804443359 434.8387908935547Z" fill="#000000" stroke="none" transform="scale(1,-1) translate(0,-256)" /><path d="M-590.9851837158203 -255.27427673339844Q-590.9851837158203 -255.27427673339844 -589.8690338134766 -256.93385314941406Q-582.6158447265625 -264.1930694580078 -573.1339263916016 -267.7153778076172L-579.8528442382812 -214.24554443359375Q-580.9683990478516 -213.76197814941406 -582.0836563110352 -213.86641693115234Q-583.1989135742188 -213.97085571289062 -583.1989135742188 -213.97085571289062Q-583.1989135742188 -213.97085571289062 -589.8901596069336 -215.18549346923828Q-596.5814056396484 -216.40013122558594 -598.808349609375 -223.66506958007812Q-601.5921783447266 -232.45223999023438 -597.9629058837891 -241.37389373779297Q-594.3336334228516 -250.29554748535156 -590.9851837158203 -255.27427673339844Z" fill="#000000" stroke="none" transform="scale(1,-1) translate(0,-256)" /></svg>