<?xml version="1.0" encoding="utf-8" ?>
<svg baseProfile="full" height="256" version="1.1" width="256" xmlns="http://www.w3.org/2000/svg" xmlns:ev="http://www.w3.org/2001/xml-events" xmlns:xlink="http://www.w3.org/1999/xlink"><defs /><path d="M755 185Q746 177 745.5 165.5Q745 154 752 145L768 125L811 162L794 182Q787 190 775.5 191.0Q764 192 755 185Z" fill="#e59600" stroke="none" transform="scale(1,-1) translate(0,-256)" /><path d="M800 17Q791 10 779.0 12.0Q767 14 760 24Q752 34 753.5 46.0Q755 58 764 66L779 77L862 142L878 154Q887 161 898.5 159.0Q910 157 918 147Q925 137 924.0 125.0Q923 113 914 106L898 94L816 29Z" fill="#e59600" stroke="none" transform="scale(1,-1) translate(0,-256)" /><path d="M823 89Q820 88 819 91Q818 93 818.5 97.0Q819 101 824 104Q828 108 832.0 107.5Q836 107 837 106Q840 104 839 101Q839 101 838 101L824 89Q823 89 823 89Z" fill="#e59600" stroke="none" transform="scale(1,-1) translate(0,-256)" /></svg>