<?xml version="1.0" encoding="utf-8" ?>
<svg baseProfile="full" height="256" version="1.1" width="256" xmlns="http://www.w3.org/2000/svg" xmlns:ev="http://www.w3.org/2001/xml-events" xmlns:xlink="http://www.w3.org/1999/xlink"><defs /><path d="M622 311Q622 311 608.0 309.5Q594 308 574.5 306.5Q555 305 537.0 304.0Q519 303 511 305Q505 306 485.5 311.0Q466 316 441.0 323.0Q416 330 392.5 337.0Q369 344 353.5 348.5Q338 353 338 353L280 410Q280 410 279.0 428.0Q278 446 279.5 469.5Q281 493 289 512Q299 535 319.0 561.0Q339 587 373.5 608.0Q408 629 460 637Q502 643 536.0 634.5Q570 626 594.0 611.5Q618 597 631.0 585.0Q644 573 644 573Q644 573 652.5 578.0Q661 583 674.0 586.0Q687 589 700 583Q713 577 719.5 566.0Q726 555 728.0 546.5Q730 538 730 538L695 484L697 370Z" fill="#865c50" stroke="none" transform="scale(1,-1) translate(0,-256)" /></svg>