<?xml version="1.0" encoding="utf-8" ?>
<svg baseProfile="full" height="256" version="1.1" width="256" xmlns="http://www.w3.org/2000/svg" xmlns:ev="http://www.w3.org/2001/xml-events" xmlns:xlink="http://www.w3.org/1999/xlink"><defs /><path d="M364 580 926 566 1023 501Q1023 501 1029.5 492.5Q1036 484 1042.0 461.5Q1048 439 1048 397Q1048 333 1013.5 264.0Q979 195 914 144Q881 118 845.5 103.0Q810 88 778.5 80.0Q747 72 726.5 69.0Q706 66 704 64Q700 61 699.5 47.0Q699 33 699 33Q699 33 708.0 23.5Q717 14 732.0 2.5Q747 -9 766 -14Q782 -18 799.5 -16.0Q817 -14 831.0 -12.0Q845 -10 852 -13Q876 -25 885.5 -45.0Q895 -65 896 -77Q896 -86 892.5 -102.0Q889 -118 875.0 -137.5Q861 -157 830 -177Q800 -196 747.5 -206.0Q695 -216 635.0 -215.5Q575 -215 524 -201Q474 -188 445.0 -170.5Q416 -153 403.0 -135.5Q390 -118 386.0 -103.0Q382 -88 382 -79Q382 -62 397.5 -40.5Q413 -19 470 2Q470 2 489.5 2.5Q509 3 533.0 5.0Q557 7 572 12Q606 23 607.0 40.5Q608 58 567 67Q473 88 417.5 115.0Q362 142 330.5 172.0Q299 202 275 233Q262 249 253.0 280.5Q244 312 239.0 345.5Q234 379 231.5 402.5Q229 426 229 426L269 526Z" fill="#6fa3b0" stroke="none" transform="scale(1,-1) translate(0,-256)" /></svg>