<?xml version="1.0" encoding="utf-8" ?>
<svg baseProfile="full" height="256" version="1.1" width="256" xmlns="http://www.w3.org/2000/svg" xmlns:ev="http://www.w3.org/2001/xml-events" xmlns:xlink="http://www.w3.org/1999/xlink"><defs /><path d="M493 262 657 243 828 270 932 317 1005 387 1042 440Q1042 440 1040.0 412.5Q1038 385 1026.0 341.5Q1014 298 985 250Q974 231 948.0 204.5Q922 178 879.0 151.5Q836 125 773.0 107.0Q710 89 625 89Q536 89 467.0 110.5Q398 132 348.5 166.0Q299 200 268.5 239.5Q238 279 225 315Q209 363 210.0 402.5Q211 442 217.5 466.0Q224 490 224 490L237 453L312 326Z" fill="#bbced3" stroke="none" transform="scale(1,-1) translate(0,-256)" /></svg>