<?xml version="1.0" encoding="utf-8" ?>
<svg baseProfile="full" height="256" version="1.1" width="256" xmlns="http://www.w3.org/2000/svg" xmlns:ev="http://www.w3.org/2001/xml-events" xmlns:xlink="http://www.w3.org/1999/xlink"><defs /><path d="M434 611 622 561 832 653 854 766Q854 766 846.5 784.0Q839 802 821.5 827.5Q804 853 774.5 876.0Q745 899 701 909Q617 928 563.0 900.5Q509 873 474 822Q450 788 442.5 754.0Q435 720 435.0 697.5Q435 675 435 675Q435 675 420.5 673.5Q406 672 394 658Q385 649 385.0 637.0Q385 625 387.5 616.5Q390 608 390 608Z" fill="#fea9a6" stroke="none" transform="scale(1,-1) translate(0,-256)" /></svg>