<?xml version="1.0" encoding="utf-8" ?>
<svg baseProfile="full" height="256" version="1.1" width="256" xmlns="http://www.w3.org/2000/svg" xmlns:ev="http://www.w3.org/2001/xml-events" xmlns:xlink="http://www.w3.org/1999/xlink"><defs /><path d="M543 309Q543 309 562.5 311.0Q582 313 610.0 316.5Q638 320 666 324Q694 329 721.5 336.0Q749 343 767.0 348.0Q785 353 785 353L790 469Q790 469 786.5 473.0Q783 477 777 479Q772 481 764.0 481.0Q756 481 751 483Q746 485 743.0 490.0Q740 495 735 497Q729 499 723.5 498.5Q718 498 718 498Q718 498 711.0 489.5Q704 481 700 481Q695 482 693.5 486.5Q692 491 692 491Q692 491 695.5 492.0Q699 493 702 496Q705 499 703.0 504.5Q701 510 698 513Q696 515 691.5 517.0Q687 519 687 519Q687 519 675.0 517.0Q663 515 653 507Q643 500 631.5 484.0Q620 468 615 460Q611 453 611.0 447.5Q611 442 611 442Q611 442 617.0 438.0Q623 434 625 433Q627 431 630.5 434.0Q634 437 637 439Q640 441 637.5 448.0Q635 455 635 459Q635 462 639.0 468.0Q643 474 646 478Q654 486 658 483Q664 479 655 470Q652 466 649.0 462.0Q646 458 647 455Q648 452 651.0 450.0Q654 448 654 444Q654 440 647.0 432.5Q640 425 635 424Q629 422 624.0 423.5Q619 425 618 426Q617 428 612.5 427.5Q608 427 606 426Q605 426 605.0 422.0Q605 418 604 415Q603 413 597.0 404.5Q591 396 590 396Q590 395 582.5 396.5Q575 398 571 395Q567 392 568.5 385.5Q570 379 569 377Q567 375 562.5 373.5Q558 372 556 371Q551 366 558 353Q561 347 568.0 346.0Q575 345 578 347Q581 349 588.0 357.5Q595 366 598 368Q603 372 614 373Q619 373 623.0 369.0Q627 365 630 361Q632 357 637.5 353.0Q643 349 646 348Q650 347 652.0 349.0Q654 351 655 351Q657 352 664.0 353.5Q671 355 673 354Q675 354 684.0 351.5Q693 349 693 345Q693 341 685.0 337.0Q677 333 667 331Q656 330 642.0 329.5Q628 329 626 330Q624 330 622.0 332.5Q620 335 618 338Q615 341 610.0 344.5Q605 348 601 348Q598 348 589.0 343.0Q580 338 570.5 332.0Q561 326 556 324Q550 320 546.5 314.5Q543 309 543 309Z" fill="#40c252" stroke="none" transform="scale(1,-1) translate(0,-256)" /><path d="M570 447Q581 449 583.0 439.0Q585 429 589 422Q592 418 588.5 413.0Q585 408 583 407Q577 403 568 409Q564 412 561.0 413.0Q558 414 556 419Q555 424 559.5 427.5Q564 431 564 431Q564 431 564.5 434.0Q565 437 564 440Q564 445 570 447Z" fill="#40c252" stroke="none" transform="scale(1,-1) translate(0,-256)" /></svg>