<?xml version="1.0" encoding="utf-8" ?>
<svg baseProfile="full" height="256" version="1.1" width="256" xmlns="http://www.w3.org/2000/svg" xmlns:ev="http://www.w3.org/2001/xml-events" xmlns:xlink="http://www.w3.org/1999/xlink"><defs /><path d="M231 361 214 527Q214 527 224.5 518.0Q235 509 242 504Q249 497 249.5 492.5Q250 488 252 487Q254 487 262.5 489.5Q271 492 279 494Q287 496 298.5 497.5Q310 499 315 492Q319 485 313.0 478.5Q307 472 309 467Q311 462 318.5 458.0Q326 454 331 448Q334 444 336.5 439.5Q339 435 341 433Q343 431 348.0 429.0Q353 427 365 425Q377 424 387.0 426.5Q397 429 405 434Q413 438 420.5 443.0Q428 448 428 448Q428 448 434.5 440.5Q441 433 441 428Q441 423 434.5 417.5Q428 412 428 412Q428 412 428.0 407.5Q428 403 426 399Q422 391 414.5 391.0Q407 391 407 391Q407 391 407.5 388.0Q408 385 406 382Q404 379 400.0 374.5Q396 370 393 365Q390 359 379.5 346.5Q369 334 361 332Q357 331 347.5 332.5Q338 334 337 334Q335 333 327.5 328.0Q320 323 319 322Q318 321 318.0 316.5Q318 312 318 312L311 301L290 312Q290 312 288.5 314.5Q287 317 285 319Q283 321 281.0 327.0Q279 333 275 334Q271 335 270.0 325.0Q269 315 264 315Q259 315 254.0 320.0Q249 325 248 327Q247 330 244.0 334.5Q241 339 240 343Q238 347 234.5 354.0Q231 361 231 361Z" fill="#7adc8a" stroke="none" transform="scale(1,-1) translate(0,-256)" /><path d="M790 469 785 353 939 344Q939 344 939.0 351.5Q939 359 943 359Q946 359 952.0 352.0Q958 345 960 344Q963 344 968 354Q969 355 970.0 359.0Q971 363 971 363Q971 363 978.5 369.5Q986 376 989 380Q992 384 991.5 389.0Q991 394 993 395Q995 397 1001.5 397.0Q1008 397 1010 399Q1012 400 1012.5 405.0Q1013 410 1013 412Q1013 415 1009.5 418.0Q1006 421 1004 422Q1001 424 993.5 423.0Q986 422 984 425Q983 429 991.0 438.0Q999 447 1001 448Q1003 448 1006.5 447.5Q1010 447 1013 446Q1017 445 1019.5 447.5Q1022 450 1027 451Q1032 451 1034.5 450.5Q1037 450 1037 450L1041 478Q1041 478 1037.5 477.5Q1034 477 1032 477Q1029 477 1019.5 480.0Q1010 483 1002 484Q995 486 988.0 485.0Q981 484 979 484Q976 485 970.0 490.5Q964 496 963 497Q959 502 959 514Q958 523 954 524Q951 525 945.5 525.0Q940 525 937 524Q933 523 925.5 513.5Q918 504 917 503Q916 502 911.5 501.0Q907 500 900 497Q893 495 887.5 489.0Q882 483 879 479Q875 475 870.5 475.5Q866 476 862 475Q858 475 853.0 480.5Q848 486 845 488Q842 490 836.5 488.0Q831 486 830 485Q829 484 819.0 485.0Q809 486 808 484Q807 482 807.0 471.5Q807 461 805 459Q803 457 799.5 458.0Q796 459 795 461Q794 463 792.0 466.0Q790 469 790 469Z" fill="#7adc8a" stroke="none" transform="scale(1,-1) translate(0,-256)" /><path d="M1011 379Q1012 372 1009.0 365.0Q1006 358 1005 356Q1002 351 995.0 346.0Q988 341 986 342Q983 344 986.0 351.5Q989 359 991 364Q993 368 996.0 373.0Q999 378 1001 380Q1002 382 1006.5 381.5Q1011 381 1011 379Z" fill="#7adc8a" stroke="none" transform="scale(1,-1) translate(0,-256)" /></svg>