<?xml version="1.0" encoding="utf-8" ?>
<svg baseProfile="full" height="256" version="1.1" width="256" xmlns="http://www.w3.org/2000/svg" xmlns:ev="http://www.w3.org/2001/xml-events" xmlns:xlink="http://www.w3.org/1999/xlink"><defs /><path d="M773 264 667 180Q667 180 660.5 168.5Q654 157 645.0 140.5Q636 124 629.5 111.0Q623 98 624 95Q624 92 636.5 81.5Q649 71 665.5 58.0Q682 45 695.5 33.5Q709 22 712 17Q718 7 726.5 -18.5Q735 -44 755 -87Q769 -116 784.0 -144.0Q799 -172 806.0 -189.0Q813 -206 801 -203Q795 -202 782.5 -193.5Q770 -185 758.0 -174.5Q746 -164 740 -156Q729 -142 714.0 -113.5Q699 -85 689 -61Q682 -45 674.0 -31.0Q666 -17 652 -4Q645 3 629.0 15.0Q613 27 595.5 41.0Q578 55 565.0 67.0Q552 79 551 86Q550 93 556.5 116.5Q563 140 572.0 167.5Q581 195 588.0 215.5Q595 236 595 236L566 278Q566 278 557.0 263.5Q548 249 542 243Q539 239 522.5 230.0Q506 221 491.0 212.0Q476 203 476 201Q476 199 481.5 183.5Q487 168 493.5 147.5Q500 127 505.5 109.5Q511 92 511 85Q512 72 509.5 49.0Q507 26 504 6Q502 -12 498.5 -38.5Q495 -65 490.5 -86.0Q486 -107 480 -110Q470 -116 466.5 -101.5Q463 -87 463.0 -64.0Q463 -41 462 -21Q461 8 465.0 32.0Q469 56 467 67Q467 72 458.0 94.0Q449 116 438.5 143.5Q428 171 420.0 193.5Q412 216 413 221Q414 227 428.5 242.0Q443 257 461.5 274.0Q480 291 494.0 303.5Q508 316 508 316L533 352Q533 352 517.0 346.5Q501 341 481.5 334.0Q462 327 449 323Q437 319 417.0 315.0Q397 311 378.5 308.5Q360 306 352 308Q346 310 328.0 326.5Q310 343 289.0 364.0Q268 385 253.0 400.5Q238 416 238 416Q238 416 225.0 414.5Q212 413 196 411Q178 409 166.5 412.5Q155 416 153 424Q152 432 162.5 437.5Q173 443 186.5 445.5Q200 448 207 450Q220 452 239.5 454.5Q259 457 268 454Q272 452 287.0 438.0Q302 424 319.5 406.5Q337 389 351.0 375.0Q365 361 368 361Q371 360 387.5 366.0Q404 372 419.0 379.0Q434 386 434 386L500 491L508 497Z" fill="#000000" stroke="none" transform="scale(1,-1) translate(0,-256)" /><path d="M382 561Q382 561 367.5 570.5Q353 580 328.5 591.0Q304 602 272.0 607.5Q240 613 204.5 607.0Q169 601 135 575Q99 549 87.0 511.5Q75 474 79.0 430.5Q83 387 95.0 341.5Q107 296 119.5 253.5Q132 211 136 176Q143 124 136.5 94.0Q130 64 123.5 50.5Q117 37 123 34Q129 31 145.0 48.5Q161 66 168 125Q173 159 162.5 205.0Q152 251 138.5 302.0Q125 353 118.0 402.0Q111 451 120.5 491.0Q130 531 168 554Q199 574 233.5 571.5Q268 569 298.5 557.5Q329 546 348.0 534.5Q367 523 368 524Q374 534 378.0 547.5Q382 561 382 561Z" fill="#000000" stroke="none" transform="scale(1,-1) translate(0,-256)" /><path d="M727 219 811 324Q811 324 822.5 330.5Q834 337 850.5 346.0Q867 355 880.0 361.5Q893 368 896 367Q899 367 909.5 354.5Q920 342 933.0 325.5Q946 309 957.5 295.5Q969 282 974 279Q984 273 1009.5 264.5Q1035 256 1078 236Q1107 222 1135.0 206.5Q1163 191 1180.0 184.5Q1197 178 1194 190Q1193 196 1184.5 208.5Q1176 221 1165.5 233.0Q1155 245 1147 251Q1133 262 1104.5 277.0Q1076 292 1052 302Q1036 309 1022.0 317.0Q1008 325 995 339Q988 346 976.0 362.0Q964 378 950.0 395.5Q936 413 924.0 426.0Q912 439 905 440Q898 441 874.5 434.5Q851 428 823.5 419.0Q796 410 775.5 403.0Q755 396 755 396L713 425Q713 425 727.5 434.0Q742 443 748 449Q752 452 761.0 468.5Q770 485 779.0 500.0Q788 515 790 515Q792 515 807.5 509.5Q823 504 843.5 497.5Q864 491 881.5 485.5Q899 480 906 480Q919 479 942.0 481.5Q965 484 985 487Q1003 489 1029.5 492.5Q1056 496 1077.0 500.5Q1098 505 1101 511Q1107 521 1092.5 524.5Q1078 528 1055.0 528.0Q1032 528 1012 529Q983 530 959.0 526.0Q935 522 924 524Q919 524 897.0 533.0Q875 542 847.5 552.5Q820 563 797.5 571.0Q775 579 770 578Q764 577 749.0 562.5Q734 548 717.0 529.5Q700 511 687.5 497.0Q675 483 675 483L639 458Q639 458 644.5 474.0Q650 490 657.0 509.5Q664 529 668 542Q672 554 676.0 574.0Q680 594 682.5 612.5Q685 631 683 639Q681 645 664.5 663.0Q648 681 627.0 702.0Q606 723 590.5 738.0Q575 753 575 753Q575 753 576.5 766.0Q578 779 580 795Q582 813 578.5 824.5Q575 836 567 838Q559 839 553.5 828.5Q548 818 545.5 804.5Q543 791 541 784Q539 771 536.5 751.5Q534 732 537 723Q539 719 553.0 704.0Q567 689 584.5 671.5Q602 654 616.0 640.0Q630 626 630 623Q631 620 625.0 603.5Q619 587 612.0 572.0Q605 557 605 557L500 491L494 483Z" fill="#000000" stroke="none" transform="scale(1,-1) translate(0,-256)" /><path d="M430 609Q430 609 420.5 623.5Q411 638 400.0 662.5Q389 687 383.5 719.0Q378 751 384.0 786.5Q390 822 416 856Q442 892 479.5 904.0Q517 916 560.5 912.0Q604 908 649.5 896.0Q695 884 737.5 872.0Q780 860 815 855Q867 848 897.0 854.5Q927 861 940.5 867.5Q954 874 957 868Q960 862 942.5 846.0Q925 830 866 823Q832 818 786.0 828.5Q740 839 689.0 852.5Q638 866 589.0 873.0Q540 880 500.0 870.5Q460 861 437 823Q417 792 419.5 757.5Q422 723 433.5 692.5Q445 662 456.5 643.0Q468 624 467 623Q457 617 443.5 613.0Q430 609 430 609Z" fill="#000000" stroke="none" transform="scale(1,-1) translate(0,-256)" /><path d="M770 419Q785 408 806.5 387.0Q828 366 851.5 341.0Q875 316 894 293Q905 281 927.5 255.0Q950 229 978.5 194.0Q1007 159 1033.0 120.0Q1059 81 1076.5 42.5Q1094 4 1095.0 -29.0Q1096 -62 1074 -84Q1052 -106 1019.5 -104.5Q987 -103 948.5 -85.5Q910 -68 871.0 -42.0Q832 -16 797.0 12.0Q762 40 735.5 63.0Q709 86 698 96Q674 116 649.0 139.5Q624 163 603.5 184.5Q583 206 572 221Q555 244 553.0 265.5Q551 287 551 287Q551 287 568.0 297.0Q585 307 607.0 321.5Q629 336 642 349Q655 362 669.5 384.0Q684 406 694.0 423.0Q704 440 704 440Q704 440 725.5 438.0Q747 436 770 419Z" fill="#000000" stroke="none" transform="scale(1,-1) translate(0,-256)" /><path d="M946 -44Q946 -56 933 -57Q919 -58 918 -44Q918 -44 908.0 6.0Q898 56 873 130Q865 151 849.5 184.5Q834 218 813.5 253.0Q793 288 772 316Q740 358 712.5 382.0Q685 406 684 406Q673 415 681 426Q690 438 702 429Q703 428 732.0 403.0Q761 378 795 333Q818 304 839.5 266.5Q861 229 877.0 195.0Q893 161 900 139Q927 53 936.5 6.0Q946 -41 946 -42Q946 -42 946.0 -42.5Q946 -43 946 -44Z" fill="#000000" stroke="none" transform="scale(1,-1) translate(0,-256)" /><path d="M1040 50Q1053 51 1054 63Q1055 78 1041 79Q1040 79 990.0 88.5Q940 98 867 124Q845 131 811.5 146.5Q778 162 743.0 182.5Q708 203 680 224Q638 257 614.5 284.5Q591 312 590 312Q582 324 570 315Q559 306 567 295Q569 293 593.5 264.5Q618 236 663 201Q693 178 730.0 157.0Q767 136 801.5 120.0Q836 104 857 97Q943 69 990.0 59.5Q1037 50 1038 50Q1039 50 1039.5 50.0Q1040 50 1040 50Z" fill="#000000" stroke="none" transform="scale(1,-1) translate(0,-256)" /></svg>