<?xml version="1.0" encoding="utf-8" ?>
<svg baseProfile="full" height="256" version="1.1" width="256" xmlns="http://www.w3.org/2000/svg" xmlns:ev="http://www.w3.org/2001/xml-events" xmlns:xlink="http://www.w3.org/1999/xlink"><defs /><path d="M683 464Q683 464 687.0 464.5Q691 465 699 459Q710 453 707.5 434.5Q705 416 693.5 393.0Q682 370 664 348Q646 326 622.0 310.0Q598 294 578.0 285.0Q558 276 553 277Q543 278 537 289Q534 294 533.5 299.0Q533 304 533 304Q533 304 551.0 311.5Q569 319 592.5 332.5Q616 346 631 363Q648 381 659.5 404.5Q671 428 677.0 446.0Q683 464 683 464Z" fill="#51362d" stroke="none" transform="scale(1,-1) translate(0,-256)" /></svg>