<?xml version="1.0" encoding="utf-8" ?>
<svg baseProfile="full" height="256" version="1.1" width="256" xmlns="http://www.w3.org/2000/svg" xmlns:ev="http://www.w3.org/2001/xml-events" xmlns:xlink="http://www.w3.org/1999/xlink"><defs /><path d="M822 593Q828 603 834.0 610.0Q840 617 845 621Q850 626 857.5 628.5Q865 631 870 626Q874 622 872.5 616.5Q871 611 869 607Q867 604 858.5 593.0Q850 582 845 567Q841 553 835.0 527.5Q829 502 817.5 474.0Q806 446 786 425Q761 399 735.5 388.0Q710 377 687.0 374.5Q664 372 646 373Q622 373 608.5 378.0Q595 383 595 387Q595 392 603.0 395.0Q611 398 632 398Q660 399 695.0 408.5Q730 418 758 456Q777 482 787.0 506.0Q797 530 804.0 552.0Q811 574 822 593Z" fill="#589622" stroke="none" transform="scale(1,-1) translate(0,-256)" /><path d="M460 -68Q454 -57 462.0 -50.0Q470 -43 479 -35Q485 -30 504.5 -16.0Q524 -2 548.0 13.0Q572 28 591 37Q620 50 668.0 61.0Q716 72 761 88Q808 106 831.0 123.0Q854 140 863.5 149.0Q873 158 880 151Q888 142 874.5 123.0Q861 104 834.0 83.5Q807 63 777 47Q748 32 712.5 23.0Q677 14 642.0 6.0Q607 -2 582 -14Q558 -25 531.5 -41.0Q505 -57 485.0 -66.5Q465 -76 460 -68Z" fill="#589622" stroke="none" transform="scale(1,-1) translate(0,-256)" /></svg>