<?xml version="1.0" encoding="utf-8" ?>
<svg baseProfile="full" height="256" version="1.1" width="256" xmlns="http://www.w3.org/2000/svg" xmlns:ev="http://www.w3.org/2001/xml-events" xmlns:xlink="http://www.w3.org/1999/xlink"><defs /><path d="M881 660Q881 660 867.5 665.0Q854 670 831.5 674.0Q809 678 781.0 674.5Q753 671 724.0 655.5Q695 640 668 605Q649 580 637.0 549.0Q625 518 612.5 488.0Q600 458 578 437Q556 415 532.5 411.5Q509 408 499 402Q488 396 495.0 386.0Q502 376 514 369Q526 362 563.0 335.5Q600 309 658 289Q672 284 702.0 279.5Q732 275 770.0 276.0Q808 277 847.5 289.5Q887 302 921.0 330.0Q955 358 978 408Q1000 458 1000.0 496.0Q1000 534 987.5 562.0Q975 590 958.0 607.5Q941 625 928.0 634.0Q915 643 915 643Q915 643 923.5 651.5Q932 660 949.0 668.0Q966 676 992 676Q1008 676 1017.0 671.5Q1026 667 1033.0 665.5Q1040 664 1049 670Q1058 677 1054.0 687.0Q1050 697 1041.5 706.0Q1033 715 1029 717Q1022 721 1001.0 723.0Q980 725 955 715Q933 706 916.5 693.0Q900 680 890.5 670.0Q881 660 881 660Z" fill="#8bc12d" stroke="none" transform="scale(1,-1) translate(0,-256)" /><path d="M414 -46Q383 -51 362.5 -44.5Q342 -38 329 -29Q315 -20 301.5 -23.5Q288 -27 281 -50Q277 -65 282.5 -76.5Q288 -88 296.0 -93.5Q304 -99 308 -97Q312 -96 329.0 -91.5Q346 -87 368.0 -86.0Q390 -85 409 -95Q421 -101 434.5 -117.0Q448 -133 467.5 -152.0Q487 -171 515.5 -186.5Q544 -202 585.0 -208.5Q626 -215 683 -204Q737 -195 778.0 -169.0Q819 -143 848.5 -108.0Q878 -73 898.5 -35.5Q919 2 931.5 35.0Q944 68 951 90Q962 127 966.5 159.5Q971 192 971.5 214.5Q972 237 971 242Q971 250 963.5 253.5Q956 257 948 253Q939 247 927.0 234.0Q915 221 878 214Q840 207 791.5 216.5Q743 226 679 231Q616 237 554.0 216.0Q492 195 456 146Q437 121 428.0 88.5Q419 56 416.5 25.0Q414 -6 414.0 -26.0Q414 -46 414 -46Z" fill="#8bc12d" stroke="none" transform="scale(1,-1) translate(0,-256)" /></svg>