<?xml version="1.0" encoding="utf-8" ?>
<svg baseProfile="full" height="256" version="1.1" width="256" xmlns="http://www.w3.org/2000/svg" xmlns:ev="http://www.w3.org/2001/xml-events" xmlns:xlink="http://www.w3.org/1999/xlink"><defs /><path d="M170 628Q170 628 190.5 637.5Q211 647 261 644Q311 642 347.0 629.5Q383 617 410 620Q424 622 444.0 635.5Q464 649 483.5 665.0Q503 681 516.5 693.5Q530 706 530 706Q530 706 522.0 714.5Q514 723 501.0 733.5Q488 744 472 750Q456 757 424.5 761.5Q393 766 354.5 763.0Q316 760 279 742Q241 725 217.0 698.0Q193 671 181.5 649.5Q170 628 170 628Z" fill="#f84ab2" stroke="none" transform="scale(1,-1) translate(0,-256)" /></svg>