<?xml version="1.0" encoding="utf-8" ?>
<svg baseProfile="full" height="256" version="1.1" width="256" xmlns="http://www.w3.org/2000/svg" xmlns:ev="http://www.w3.org/2001/xml-events" xmlns:xlink="http://www.w3.org/1999/xlink"><defs /><path d="M160 600Q160 600 184.5 608.0Q209 616 255 612Q308 608 329.5 597.5Q351 587 351 587Q351 587 348.5 562.5Q346 538 314 492Q284 450 255.0 434.5Q226 419 172 421Q119 422 97.5 430.5Q76 439 76 439Q76 439 71.0 446.0Q66 453 66.5 471.0Q67 489 82 521Q97 554 115.5 570.5Q134 587 147.0 593.5Q160 600 160 600Z" fill="#ff8984" stroke="none" transform="scale(1,-1) translate(0,-256)" /></svg>