<?xml version="1.0" encoding="utf-8" ?>
<svg baseProfile="full" height="256" version="1.1" width="256" xmlns="http://www.w3.org/2000/svg" xmlns:ev="http://www.w3.org/2001/xml-events" xmlns:xlink="http://www.w3.org/1999/xlink"><defs /><path d="M678 24 670 2Q670 2 663.0 -3.5Q656 -9 660 -36Q663 -54 670.5 -61.0Q678 -68 684.0 -68.5Q690 -69 690 -69Q690 -69 706.0 -69.0Q722 -69 729 -74Q735 -78 741.5 -74.5Q748 -71 748 -71Q748 -71 752.0 -64.0Q756 -57 759.5 -48.0Q763 -39 761 -35Q758 -29 756.5 -23.5Q755 -18 755 -18L744 35Q744 35 746.5 51.5Q749 68 752.0 89.5Q755 111 756.5 127.5Q758 144 755 145Q752 146 749.0 131.0Q746 116 744.0 100.5Q742 85 742 85Q742 85 741.5 95.5Q741 106 739.5 119.5Q738 133 736.5 143.5Q735 154 733 154Q731 154 730.5 138.5Q730 123 730.5 102.5Q731 82 731.5 66.5Q732 51 732 51Q732 51 727.0 62.5Q722 74 706 72Q696 71 691.5 65.0Q687 59 686 53Q684 44 685.0 38.5Q686 33 686 33Q686 33 676.5 47.5Q667 62 654.5 80.0Q642 98 632.0 110.5Q622 123 620 119Q617 115 625.5 100.0Q634 85 646.5 67.5Q659 50 668.5 37.0Q678 24 678 24Z" fill="#5e6367" stroke="none" transform="scale(1,-1) translate(0,-256)" /><path d="M762 41Q762 41 765.0 47.5Q768 54 771.0 60.5Q774 67 774 67Q774 67 773.5 71.0Q773 75 773 78Q771 82 769.0 86.0Q767 90 763 89Q754 88 756 75Q757 69 757.0 66.5Q757 64 757 64Z" fill="#5e6367" stroke="none" transform="scale(1,-1) translate(0,-256)" /><path d="M649 20V21L633 31Q633 31 632.0 33.5Q631 36 631 42Q629 60 637 61Q643 62 648 53Q650 49 652.0 43.0Q654 37 654 37Z" fill="#5e6367" stroke="none" transform="scale(1,-1) translate(0,-256)" /><path d="M718 -112 724 -168Q724 -168 728.0 -169.5Q732 -171 741 -169Q748 -168 751.0 -166.0Q754 -164 754 -164L748 -107Q748 -107 745.0 -108.5Q742 -110 735 -111Q726 -112 722.0 -112.0Q718 -112 718 -112Z" fill="#5e6367" stroke="none" transform="scale(1,-1) translate(0,-256)" /><path d="M768 -100 778 -155Q778 -155 785.0 -155.0Q792 -155 795 -154Q799 -153 802.0 -150.5Q805 -148 805 -148L798 -95Q798 -95 795.0 -96.0Q792 -97 786 -98Q781 -99 774.5 -99.5Q768 -100 768 -100Z" fill="#5e6367" stroke="none" transform="scale(1,-1) translate(0,-256)" /></svg>