<?xml version="1.0" encoding="utf-8" ?>
<svg baseProfile="full" height="256" version="1.1" width="256" xmlns="http://www.w3.org/2000/svg" xmlns:ev="http://www.w3.org/2001/xml-events" xmlns:xlink="http://www.w3.org/1999/xlink"><defs /><path d="M611 794Q625 796 631.5 805.5Q638 815 653 819Q667 823 677.5 818.0Q688 813 693 785Q698 756 691.0 742.0Q684 728 669 721Q654 715 647.0 719.0Q640 723 625 721Q615 719 610.0 712.0Q605 705 599.0 697.5Q593 690 582 687Q548 679 538 722Q533 744 533.0 763.0Q533 782 551 791Q569 800 583.5 796.0Q598 792 611 794Z" fill="#164aca" stroke="none" transform="scale(1,-1) translate(0,-256)" /></svg>