<?xml version="1.0" encoding="utf-8" ?>
<svg baseProfile="full" height="256" version="1.1" width="256" xmlns="http://www.w3.org/2000/svg" xmlns:ev="http://www.w3.org/2001/xml-events" xmlns:xlink="http://www.w3.org/1999/xlink"><defs /><path d="M207 667 368 719 530 706Q530 706 534.5 697.0Q539 688 540 678Q542 667 540.0 652.5Q538 638 520 627Q502 615 491.5 605.5Q481 596 458 573Q435 551 419.0 548.0Q403 545 403 545Q403 545 378.0 547.5Q353 550 316.0 554.0Q279 558 242.0 563.5Q205 569 180.5 574.5Q156 580 157 586Q159 600 164.5 614.0Q170 628 170 628Z" fill="#cc26a1" stroke="none" transform="scale(1,-1) translate(0,-256)" /></svg>