<?xml version="1.0" encoding="utf-8" ?>
<svg baseProfile="full" height="256" version="1.1" width="256" xmlns="http://www.w3.org/2000/svg" xmlns:ev="http://www.w3.org/2001/xml-events" xmlns:xlink="http://www.w3.org/1999/xlink"><defs /><path d="M812 814H811Q819 811 826.0 815.5Q833 820 841 819Q858 817 870.0 805.0Q882 793 874 766Q868 744 854.0 735.5Q840 727 826 729Q815 731 807.5 736.5Q800 742 792 745Q784 749 771.0 747.0Q758 745 748 748Q737 751 729.5 764.5Q722 778 728 803Q735 829 751.0 834.5Q767 840 781 835Q792 831 799.0 823.5Q806 816 812 814Z" fill="#0aac81" stroke="none" transform="scale(1,-1) translate(0,-256)" /></svg>