<?xml version="1.0" encoding="utf-8" ?>
<svg baseProfile="full" height="256" version="1.1" width="256" xmlns="http://www.w3.org/2000/svg" xmlns:ev="http://www.w3.org/2001/xml-events" xmlns:xlink="http://www.w3.org/1999/xlink"><defs /><path d="M423 673Q435 685 435.5 692.0Q436 699 450 710Q465 721 484.0 717.5Q503 714 512 703Q521 691 523.0 672.0Q525 653 512 643Q499 632 489.5 632.0Q480 632 469 624Q457 616 455.5 604.0Q454 592 436 577Q424 567 407.5 567.0Q391 567 378.5 577.5Q366 588 364 609Q361 633 372.5 644.0Q384 655 399.5 660.5Q415 666 423 673Z" fill="#a5146a" stroke="none" transform="scale(1,-1) translate(0,-256)" /></svg>