<?xml version="1.0" encoding="utf-8" ?>
<svg baseProfile="full" height="256" version="1.1" width="256" xmlns="http://www.w3.org/2000/svg" xmlns:ev="http://www.w3.org/2001/xml-events" xmlns:xlink="http://www.w3.org/1999/xlink"><defs /><path d="M628 868 699 774Q699 774 703.0 763.5Q707 753 723.5 739.5Q740 726 776 716Q812 706 834.0 710.0Q856 714 867.5 725.5Q879 737 883 750Q888 763 890.0 782.5Q892 802 878.0 824.5Q864 847 818 868Q784 884 750.0 886.5Q716 889 688.5 884.0Q661 879 644.5 873.5Q628 868 628 868Z" fill="#8beaa9" stroke="none" transform="scale(1,-1) translate(0,-256)" /></svg>