<?xml version="1.0" encoding="utf-8" ?>
<svg baseProfile="full" height="256" version="1.1" width="256" xmlns="http://www.w3.org/2000/svg" xmlns:ev="http://www.w3.org/2001/xml-events" xmlns:xlink="http://www.w3.org/1999/xlink"><defs /><path d="M356 788Q356 788 365.0 798.5Q374 809 395.0 824.5Q416 840 452.0 854.0Q488 868 541 874Q595 880 628.0 871.5Q661 863 678.0 849.0Q695 835 701.0 824.0Q707 813 707 813Q707 813 705.5 811.5Q704 810 701 808Q697 806 686.0 802.0Q675 798 675 798L547 736Q547 736 534.0 747.0Q521 758 499.0 771.0Q477 784 452 790Q426 797 404.5 795.5Q383 794 369.5 791.0Q356 788 356 788Z" fill="#349efe" stroke="none" transform="scale(1,-1) translate(0,-256)" /></svg>