<?xml version="1.0" encoding="utf-8" ?>
<svg baseProfile="full" height="256" version="1.1" width="256" xmlns="http://www.w3.org/2000/svg" xmlns:ev="http://www.w3.org/2001/xml-events" xmlns:xlink="http://www.w3.org/1999/xlink"><defs /><path d="M622 870Q622 879 599.5 886.5Q577 894 547 891Q516 888 497.5 877.0Q479 866 481 856Q483 847 504.0 845.0Q525 843 553 845Q581 848 601.5 854.0Q622 860 622 870Z" fill="#f1c688" stroke="none" transform="scale(1,-1) translate(0,-256)" /><path d="M773 804Q782 803 791 800Q830 758 866.5 696.5Q903 635 926.5 551.0Q950 467 951 358Q934 370 930.0 390.0Q926 410 926 435Q926 448 926.0 456.5Q926 465 921 473Q914 483 898.5 484.0Q883 485 871 484Q844 482 821.0 503.0Q798 524 795 551Q791 578 797.5 594.0Q804 610 812.5 620.5Q821 631 824.5 639.5Q828 648 816 658Q807 667 795.5 668.0Q784 669 770.0 668.0Q756 667 739.0 672.0Q722 677 702 695Q692 703 689.0 717.0Q686 731 687 743Q688 773 715.5 790.5Q743 808 773 804Z" fill="#f1c688" stroke="none" transform="scale(1,-1) translate(0,-256)" /><path d="M567 805Q608 797 620.0 782.0Q632 767 625.0 749.5Q618 732 603.5 716.0Q589 700 578 691Q557 673 534.0 657.0Q511 641 494.5 627.5Q478 614 475 604Q472 591 480.5 579.0Q489 567 496 555Q511 532 508.5 503.0Q506 474 491 451Q480 434 463.5 424.0Q447 414 437.0 403.0Q427 392 436 372Q442 359 458.5 350.0Q475 341 496.0 331.5Q517 322 538.0 308.0Q559 294 575 270Q595 240 593.0 200.5Q591 161 569 132Q546 102 508.5 91.0Q471 80 437 94Q420 100 400.5 120.0Q381 140 373 197Q372 209 368.5 217.5Q365 226 348 219Q341 217 334.5 211.5Q328 206 321 202Q292 184 263.0 183.5Q234 183 205 219Q192 236 185.5 259.5Q179 283 186 313Q188 321 195.0 334.5Q202 348 206.5 360.5Q211 373 206 380Q202 384 197.0 386.0Q192 388 187 390Q152 399 136.0 429.0Q120 459 120 494Q120 512 130.0 543.0Q140 574 155.0 608.0Q170 642 186.0 670.0Q202 698 216 712Q228 725 243.5 729.0Q259 733 265 739Q271 745 281.5 764.0Q292 783 311 794Q328 803 348.0 809.0Q368 815 384 827Q398 838 413.5 837.0Q429 836 439 836Q450 835 435.0 822.5Q420 810 398 806Q387 804 376.0 801.0Q365 798 356 791Q347 784 341.5 774.0Q336 764 328 757Q316 747 300.5 741.5Q285 736 277 723Q272 715 271.5 705.5Q271 696 269 687Q266 679 262.0 673.5Q258 668 253 662Q245 649 247.5 640.5Q250 632 267 634Q281 635 296.5 643.5Q312 652 315 670Q317 682 315.5 693.0Q314 704 319.5 716.0Q325 728 348 743Q365 753 376.5 753.5Q388 754 398.0 753.0Q408 752 419 756Q432 762 449.5 777.0Q467 792 494.5 802.5Q522 813 567 805ZM281 492Q283 496 285.5 502.5Q288 509 288 515Q289 528 279 532Q270 536 259.5 531.0Q249 526 246 517Q239 501 250 487Q257 477 267 479Q272 479 275.5 483.0Q279 487 281 492ZM427 464Q428 473 427.0 481.0Q426 489 420 493Q415 496 404.0 495.5Q393 495 388 495Q378 494 369.0 493.5Q360 493 352 486Q341 475 340.0 459.0Q339 443 340 428Q340 425 341.0 421.5Q342 418 344 415Q349 406 359.0 405.5Q369 405 379 406Q384 407 388.5 408.0Q393 409 397 411Q407 416 412.5 425.5Q418 435 421 445Q423 449 424.5 454.0Q426 459 427 464Z" fill="#f1c688" stroke="none" transform="scale(1,-1) translate(0,-256)" /></svg>