<?xml version="1.0" encoding="utf-8" ?>
<svg baseProfile="full" height="256" version="1.1" width="256" xmlns="http://www.w3.org/2000/svg" xmlns:ev="http://www.w3.org/2001/xml-events" xmlns:xlink="http://www.w3.org/1999/xlink"><defs /><path d="M988 350Q982 347 972 350Q960 352 951 358Q950 467 926.5 551.0Q903 635 866.5 696.5Q830 758 791 800Q814 792 832.5 774.5Q851 757 864 736Q869 727 875.5 718.0Q882 709 892 705Q904 701 916.5 705.0Q929 709 942 713Q967 720 992.5 711.5Q1018 703 1037.0 683.5Q1056 664 1060 638Q1063 625 1064.0 611.5Q1065 598 1074 589Q1079 583 1085.5 580.0Q1092 577 1098 574Q1136 555 1150.0 528.0Q1164 501 1163.5 469.5Q1163 438 1157 404Q1156 399 1157 393Q1157 383 1159.5 373.5Q1162 364 1164 355Q1165 346 1165.5 334.5Q1166 323 1160 316Q1154 310 1145.0 312.0Q1136 314 1130 332Q1125 343 1128.5 356.0Q1132 369 1123 387Q1114 405 1095.0 418.5Q1076 432 1065 453Q1053 475 1053.0 494.5Q1053 514 1052.0 527.5Q1051 541 1034 547Q1014 554 993.0 542.5Q972 531 959.5 511.5Q947 492 951 474Q955 459 965.5 448.0Q976 437 986.5 422.5Q997 408 998 381Q999 372 998.0 362.5Q997 353 988 350Z" fill="#1b2e35" stroke="none" transform="scale(1,-1) translate(0,-256)" /><path d="M1015 45Q1025 56 1032.5 50.0Q1040 44 1039 35Q1036 6 1019.5 -13.5Q1003 -33 983.5 -41.5Q964 -50 954 -44Q952 -43 951.5 -36.0Q951 -29 959 -20Q964 -13 975.0 -0.5Q986 12 997.5 25.0Q1009 38 1015 45Z" fill="#1b2e35" stroke="none" transform="scale(1,-1) translate(0,-256)" /><path d="M1105 149Q1110 126 1102.0 106.5Q1094 87 1081.5 76.0Q1069 65 1059 67Q1058 67 1055.5 72.5Q1053 78 1057 87Q1061 96 1070.5 118.0Q1080 140 1084 151Q1088 162 1095.5 159.0Q1103 156 1105 149Z" fill="#1b2e35" stroke="none" transform="scale(1,-1) translate(0,-256)" /><path d="M767 869Q790 874 809.5 867.0Q829 860 840.0 847.5Q851 835 849 825Q848 824 843.0 821.5Q838 819 829 823Q819 826 797.5 835.0Q776 844 765 848Q754 852 757.0 859.5Q760 867 767 869Z" fill="#1b2e35" stroke="none" transform="scale(1,-1) translate(0,-256)" /></svg>