<?xml version="1.0" encoding="utf-8" ?>
<svg baseProfile="full" height="256" version="1.1" width="256" xmlns="http://www.w3.org/2000/svg" xmlns:ev="http://www.w3.org/2001/xml-events" xmlns:xlink="http://www.w3.org/1999/xlink"><defs /><path d="M75 350Q75 467 118.5 568.5Q162 670 239.5 747.5Q317 825 419.0 869.0Q521 913 638 913Q638 913 666.5 897.0Q695 881 741.0 849.5Q787 818 838.5 771.0Q890 724 935.5 661.5Q981 599 1010.0 521.0Q1039 443 1039 350Q1039 257 1010.0 179.0Q981 101 935.5 38.5Q890 -24 838.5 -71.0Q787 -118 741.0 -149.5Q695 -181 666.5 -196.5Q638 -212 638 -212Q521 -212 419.0 -168.5Q317 -125 239.5 -47.5Q162 30 118.5 131.5Q75 233 75 350Z" fill="#fce5ac" stroke="none" transform="scale(1,-1) translate(0,-256)" /></svg>