<?xml version="1.0" encoding="utf-8" ?>
<svg baseProfile="full" height="256" version="1.1" width="256" xmlns="http://www.w3.org/2000/svg" xmlns:ev="http://www.w3.org/2001/xml-events" xmlns:xlink="http://www.w3.org/1999/xlink"><defs /><path d="M1057 435 534 349 299 785 255 808Q255 808 239.0 789.0Q223 770 201.0 733.0Q179 696 158.0 642.0Q137 588 126.5 517.0Q116 446 123 359Q133 256 177.0 178.0Q221 100 294.0 52.5Q367 5 463.0 -8.0Q559 -21 672 5Q752 23 819.0 60.0Q886 97 939.0 143.0Q992 189 1032.0 236.0Q1072 283 1098.5 323.0Q1125 363 1138.5 387.5Q1152 412 1152 412L1091 434Z" fill="#fff6a0" stroke="none" transform="scale(1,-1) translate(0,-256)" /></svg>