<?xml version="1.0" encoding="utf-8" ?>
<svg baseProfile="full" height="256" version="1.1" width="256" xmlns="http://www.w3.org/2000/svg" xmlns:ev="http://www.w3.org/2001/xml-events" xmlns:xlink="http://www.w3.org/1999/xlink"><defs /><path d="M437 554Q436 559 416.5 563.0Q397 567 377 559Q361 552 354.0 538.5Q347 525 352 513Q357 502 368.0 497.0Q379 492 394 499Q424 513 431.0 530.5Q438 548 437 554Z" fill="#2f2f2f" stroke="none" transform="scale(1,-1) translate(0,-256)" /><path d="M507 438Q499 447 480.5 439.5Q462 432 455 426Q451 422 443.5 413.0Q436 404 433.0 392.0Q430 380 441 368Q451 357 462.0 359.0Q473 361 482.0 368.0Q491 375 495 381Q500 386 505.0 397.5Q510 409 512.0 421.0Q514 433 507 438Z" fill="#2f2f2f" stroke="none" transform="scale(1,-1) translate(0,-256)" /><path d="M633 391Q640 391 651.5 377.0Q663 363 661 338Q659 316 649.0 306.0Q639 296 630 297Q621 297 611.0 304.0Q601 311 599 333Q595 357 609.5 374.5Q624 392 633 391Z" fill="#2f2f2f" stroke="none" transform="scale(1,-1) translate(0,-256)" /><path d="M762 419Q768 423 782.5 418.5Q797 414 810 399Q824 383 826.0 366.5Q828 350 815 340Q802 330 788.0 335.5Q774 341 764 356Q753 375 754.0 395.0Q755 415 762 419Z" fill="#2f2f2f" stroke="none" transform="scale(1,-1) translate(0,-256)" /></svg>