<?xml version="1.0" encoding="utf-8" ?>
<svg baseProfile="full" height="256" version="1.1" width="256" xmlns="http://www.w3.org/2000/svg" xmlns:ev="http://www.w3.org/2001/xml-events" xmlns:xlink="http://www.w3.org/1999/xlink"><defs /><path d="M1158 289Q1157 290 1143.0 281.0Q1129 272 1114.5 255.0Q1100 238 1097 217Q1095 201 1098.0 192.5Q1101 184 1104.5 176.5Q1108 169 1107 156Q1105 143 1094.0 136.0Q1083 129 1069.5 121.0Q1056 113 1046 96Q1035 76 1035.0 61.5Q1035 47 1035.5 36.5Q1036 26 1028 17Q1019 7 1005.5 8.5Q992 10 975.0 8.5Q958 7 936 -10Q920 -23 913.5 -42.0Q907 -61 903 -75Q898 -89 886.0 -100.0Q874 -111 874 -111Q874 -111 890.0 -108.0Q906 -105 935 -96Q959 -88 972.0 -82.5Q985 -77 985 -77Q985 -77 985.5 -66.0Q986 -55 999 -41Q1011 -29 1022.5 -27.0Q1034 -25 1045.5 -22.5Q1057 -20 1070 -8Q1081 2 1085.0 18.0Q1089 34 1091 52Q1092 70 1099.5 80.5Q1107 91 1120 102Q1133 112 1145.5 127.0Q1158 142 1158 162Q1158 181 1155.0 188.5Q1152 196 1148.0 200.5Q1144 205 1142 214Q1140 228 1145.5 235.5Q1151 243 1157 254Q1164 266 1162.0 275.0Q1160 284 1158 289Z" fill="#c1ca32" stroke="none" transform="scale(1,-1) translate(0,-256)" /><path d="M573 -116Q573 -116 602.0 -119.5Q631 -123 663 -125Q676 -126 695.5 -126.0Q715 -126 730.0 -125.5Q745 -125 745 -125Q745 -125 750.5 -108.0Q756 -91 780 -72Q794 -63 806.0 -62.5Q818 -62 833.5 -60.0Q849 -58 873 -43Q897 -29 905.0 -7.5Q913 14 922 26Q934 42 945.5 43.0Q957 44 975 50Q991 55 1006.5 68.5Q1022 82 1028 105Q1034 129 1030.0 145.0Q1026 161 1016 161Q1004 161 999.0 149.5Q994 138 988.0 122.5Q982 107 966 95Q953 85 939.0 85.5Q925 86 909.0 84.0Q893 82 876 65Q862 51 858.5 34.5Q855 18 850.5 5.0Q846 -8 830 -14Q814 -19 800.0 -16.0Q786 -13 771.5 -11.0Q757 -9 741 -17Q724 -26 715.5 -37.0Q707 -48 700.0 -57.5Q693 -67 682 -71Q665 -77 649.0 -72.0Q633 -67 616 -74Q588 -83 580.5 -99.5Q573 -116 573 -116Z" fill="#c1ca32" stroke="none" transform="scale(1,-1) translate(0,-256)" /><path d="M381 -59Q381 -59 402.5 -68.5Q424 -78 445 -85Q459 -90 475.5 -94.5Q492 -99 504.0 -101.5Q516 -104 516 -104Q516 -104 522.0 -101.5Q528 -99 534.0 -92.0Q540 -85 539 -73Q537 -62 522.5 -59.0Q508 -56 490.0 -57.5Q472 -59 459 -60Q445 -61 427.0 -60.5Q409 -60 395.0 -59.5Q381 -59 381 -59Z" fill="#c1ca32" stroke="none" transform="scale(1,-1) translate(0,-256)" /></svg>