<?xml version="1.0" encoding="utf-8" ?>
<svg baseProfile="full" height="256" version="1.1" width="256" xmlns="http://www.w3.org/2000/svg" xmlns:ev="http://www.w3.org/2001/xml-events" xmlns:xlink="http://www.w3.org/1999/xlink"><defs /><path d="M379 108Q379 108 376.5 98.0Q374 88 373.5 79.0Q373 70 379 74Q415 105 428 150Q435 173 433.5 188.5Q432 204 431 217Q431 226 436.5 229.5Q442 233 447.0 234.5Q452 236 448 238Q439 243 429.0 241.0Q419 239 413 230Q406 219 409.0 200.5Q412 182 407 163Q396 134 379 108Z" fill="#6b4433" stroke="none" transform="scale(1,-1) translate(0,-256)" /></svg>