<?xml version="1.0" encoding="utf-8" ?>
<svg baseProfile="full" height="256" version="1.1" width="256" xmlns="http://www.w3.org/2000/svg" xmlns:ev="http://www.w3.org/2001/xml-events" xmlns:xlink="http://www.w3.org/1999/xlink"><defs /><path d="M274 -141H307Q303 -160 288.0 -172.0Q273 -184 253 -184Q233 -184 218.0 -172.0Q203 -160 199 -141H233Q241 -151 253 -151Q266 -151 274 -141Z" fill="#607d8b" stroke="none" transform="scale(1,-1) translate(0,-256)" /><path d="M496.56199645996094 -141.0H529.5619964599609Q525.5619964599609 -160.0 510.56199645996094 -172.0Q495.56199645996094 -184.0 475.56199645996094 -184.0Q455.56199645996094 -184.0 440.56199645996094 -172.0Q425.56199645996094 -160.0 421.56199645996094 -141.0H455.56199645996094Q463.56199645996094 -151.0 475.56199645996094 -151.0Q488.56199645996094 -151.0 496.56199645996094 -141.0Z" fill="#607d8b" stroke="none" transform="scale(1,-1) translate(0,-256)" /><path d="M828.4369964599609 -141.0H861.4369964599609Q857.4369964599609 -160.0 842.4369964599609 -172.0Q827.4369964599609 -184.0 807.4369964599609 -184.0Q787.4369964599609 -184.0 772.4369964599609 -172.0Q757.4369964599609 -160.0 753.4369964599609 -141.0H787.4369964599609Q795.4369964599609 -151.0 807.4369964599609 -151.0Q820.4369964599609 -151.0 828.4369964599609 -141.0Z" fill="#607d8b" stroke="none" transform="scale(1,-1) translate(0,-256)" /><path d="M1050.906005859375 -141.0H1083.906005859375Q1079.906005859375 -160.0 1064.906005859375 -172.0Q1049.906005859375 -184.0 1029.906005859375 -184.0Q1009.906005859375 -184.0 994.906005859375 -172.0Q979.906005859375 -160.0 975.906005859375 -141.0H1009.906005859375Q1017.906005859375 -151.0 1029.906005859375 -151.0Q1042.906005859375 -151.0 1050.906005859375 -141.0Z" fill="#607d8b" stroke="none" transform="scale(1,-1) translate(0,-256)" /></svg>