<?xml version="1.0" encoding="utf-8" ?>
<svg baseProfile="full" height="256" version="1.1" width="256" xmlns="http://www.w3.org/2000/svg" xmlns:ev="http://www.w3.org/2001/xml-events" xmlns:xlink="http://www.w3.org/1999/xlink"><defs /><path d="M337.21612548828125 -128.40432739257812Q337.21612548828125 -111.06167602539062 330.71263122558594 -95.81210327148438Q324.2091369628906 -80.56253051757812 312.62245178222656 -68.97584533691406Q301.0357666015625 -57.38916015625 285.78619384765625 -50.8109130859375Q270.53662109375 -44.232666015625 253.1939697265625 -44.232666015625Q235.70181274414062 -44.232666015625 220.45223999023438 -50.8109130859375Q205.20266723632812 -57.38916015625 193.61598205566406 -68.97584533691406Q182.029296875 -80.56253051757812 175.5258026123047 -95.81210327148438Q169.02230834960938 -111.06167602539062 169.02230834960938 -128.40432739257812Q169.02230834960938 -145.74697875976562 175.5258026123047 -160.99655151367188Q182.029296875 -176.24612426757812 193.61598205566406 -187.8328094482422Q205.20266723632812 -199.41949462890625 220.45223999023438 -205.92298889160156Q235.70181274414062 -212.42648315429688 253.1939697265625 -212.42648315429688Q270.53662109375 -212.42648315429688 285.78619384765625 -205.92298889160156Q301.0357666015625 -199.41949462890625 312.62245178222656 -187.8328094482422Q324.2091369628906 -176.24612426757812 330.71263122558594 -160.99655151367188Q337.21612548828125 -145.74697875976562 337.21612548828125 -128.40432739257812Z" fill="#455a64" stroke="none" transform="scale(1,-1) translate(0,-256)" /><path d="M559.7786254882812 -128.40432739257812Q559.7786254882812 -111.06167602539062 553.2751312255859 -95.81210327148438Q546.7716369628906 -80.56253051757812 535.1849517822266 -68.97584533691406Q523.5982666015625 -57.38916015625 508.34869384765625 -50.8109130859375Q493.09912109375 -44.232666015625 475.7564697265625 -44.232666015625Q458.2643127441406 -44.232666015625 443.0147399902344 -50.8109130859375Q427.7651672363281 -57.38916015625 416.17848205566406 -68.97584533691406Q404.591796875 -80.56253051757812 398.0883026123047 -95.81210327148438Q391.5848083496094 -111.06167602539062 391.5848083496094 -128.40432739257812Q391.5848083496094 -145.74697875976562 398.0883026123047 -160.99655151367188Q404.591796875 -176.24612426757812 416.17848205566406 -187.8328094482422Q427.7651672363281 -199.41949462890625 443.0147399902344 -205.92298889160156Q458.2643127441406 -212.42648315429688 475.7564697265625 -212.42648315429688Q493.09912109375 -212.42648315429688 508.34869384765625 -205.92298889160156Q523.5982666015625 -199.41949462890625 535.1849517822266 -187.8328094482422Q546.7716369628906 -176.24612426757812 553.2751312255859 -160.99655151367188Q559.7786254882812 -145.74697875976562 559.7786254882812 -128.40432739257812Z" fill="#455a64" stroke="none" transform="scale(1,-1) translate(0,-256)" /><path d="M474 -151 499 -79H230L258 -151Z" fill="#455a64" stroke="none" transform="scale(1,-1) translate(0,-256)" /><path d="M891.6536254882812 -128.40432739257812Q891.6536254882812 -111.06167602539062 885.1501312255859 -95.81210327148438Q878.6466369628906 -80.56253051757812 867.0599517822266 -68.97584533691406Q855.4732666015625 -57.38916015625 840.2236938476562 -50.8109130859375Q824.97412109375 -44.232666015625 807.6314697265625 -44.232666015625Q790.1393127441406 -44.232666015625 774.8897399902344 -50.8109130859375Q759.6401672363281 -57.38916015625 748.0534820556641 -68.97584533691406Q736.466796875 -80.56253051757812 729.9633026123047 -95.81210327148438Q723.4598083496094 -111.06167602539062 723.4598083496094 -128.40432739257812Q723.4598083496094 -145.74697875976562 729.9633026123047 -160.99655151367188Q736.466796875 -176.24612426757812 748.0534820556641 -187.8328094482422Q759.6401672363281 -199.41949462890625 774.8897399902344 -205.92298889160156Q790.1393127441406 -212.42648315429688 807.6314697265625 -212.42648315429688Q824.97412109375 -212.42648315429688 840.2236938476562 -205.92298889160156Q855.4732666015625 -199.41949462890625 867.0599517822266 -187.8328094482422Q878.6466369628906 -176.24612426757812 885.1501312255859 -160.99655151367188Q891.6536254882812 -145.74697875976562 891.6536254882812 -128.40432739257812Z" fill="#455a64" stroke="none" transform="scale(1,-1) translate(0,-256)" /><path d="M1114.2161254882812 -128.40432739257812Q1114.2161254882812 -111.06167602539062 1107.712631225586 -95.81210327148438Q1101.2091369628906 -80.56253051757812 1089.6224517822266 -68.97584533691406Q1078.0357666015625 -57.38916015625 1062.7861938476562 -50.8109130859375Q1047.53662109375 -44.232666015625 1030.1939697265625 -44.232666015625Q1012.7018127441406 -44.232666015625 997.4522399902344 -50.8109130859375Q982.2026672363281 -57.38916015625 970.6159820556641 -68.97584533691406Q959.029296875 -80.56253051757812 952.5258026123047 -95.81210327148438Q946.0223083496094 -111.06167602539062 946.0223083496094 -128.40432739257812Q946.0223083496094 -145.74697875976562 952.5258026123047 -160.99655151367188Q959.029296875 -176.24612426757812 970.6159820556641 -187.8328094482422Q982.2026672363281 -199.41949462890625 997.4522399902344 -205.92298889160156Q1012.7018127441406 -212.42648315429688 1030.1939697265625 -212.42648315429688Q1047.53662109375 -212.42648315429688 1062.7861938476562 -205.92298889160156Q1078.0357666015625 -199.41949462890625 1089.6224517822266 -187.8328094482422Q1101.2091369628906 -176.24612426757812 1107.712631225586 -160.99655151367188Q1114.2161254882812 -145.74697875976562 1114.2161254882812 -128.40432739257812Z" fill="#455a64" stroke="none" transform="scale(1,-1) translate(0,-256)" /><path d="M1028.343994140625 -151.0 1053.343994140625 -79.0H784.343994140625L812.343994140625 -151.0Z" fill="#455a64" stroke="none" transform="scale(1,-1) translate(0,-256)" /></svg>