<?xml version="1.0" encoding="utf-8" ?>
<svg baseProfile="full" height="256" version="1.1" width="256" xmlns="http://www.w3.org/2000/svg" xmlns:ev="http://www.w3.org/2001/xml-events" xmlns:xlink="http://www.w3.org/1999/xlink"><defs /><path d="M275 191Q284 191 284 200V341Q284 351 275 351H158Q148 351 148 341V200Q148 191 158 191Z" fill="#bae2fd" stroke="none" transform="scale(1,-1) translate(0,-256)" /><path d="M485.656005859375 191.0Q494.656005859375 191.0 494.656005859375 200.0V341.0Q494.656005859375 351.0 485.656005859375 351.0H368.656005859375Q358.656005859375 351.0 358.656005859375 341.0V200.0Q358.656005859375 191.0 368.656005859375 191.0Z" fill="#bae2fd" stroke="none" transform="scale(1,-1) translate(0,-256)" /><path d="M696.3119964599609 191.0Q705.3119964599609 191.0 705.3119964599609 200.0V341.0Q705.3119964599609 351.0 696.3119964599609 351.0H579.3119964599609Q569.3119964599609 351.0 569.3119964599609 341.0V200.0Q569.3119964599609 191.0 579.3119964599609 191.0Z" fill="#bae2fd" stroke="none" transform="scale(1,-1) translate(0,-256)" /><path d="M906.968994140625 191.0Q915.968994140625 191.0 915.968994140625 200.0V341.0Q915.968994140625 351.0 906.968994140625 351.0H789.968994140625Q779.968994140625 351.0 779.968994140625 341.0V200.0Q779.968994140625 191.0 789.968994140625 191.0Z" fill="#bae2fd" stroke="none" transform="scale(1,-1) translate(0,-256)" /><path d="M1117.531005859375 191.0Q1126.531005859375 191.0 1126.531005859375 200.0V341.0Q1126.531005859375 351.0 1117.531005859375 351.0H1000.531005859375Q990.531005859375 351.0 990.531005859375 341.0V200.0Q990.531005859375 191.0 1000.531005859375 191.0Z" fill="#bae2fd" stroke="none" transform="scale(1,-1) translate(0,-256)" /></svg>