<?xml version="1.0" encoding="utf-8" ?>
<svg baseProfile="full" height="256" version="1.1" width="256" xmlns="http://www.w3.org/2000/svg" xmlns:ev="http://www.w3.org/2001/xml-events" xmlns:xlink="http://www.w3.org/1999/xlink"><defs /><path d="M551 149 578 176Q578 176 579 177Q568 169 552.0 169.5Q536 170 523 180Q519 184 513 180Q501 169 477.5 147.5Q454 126 426.0 100.0Q398 74 371.5 50.0Q345 26 328.0 10.0Q311 -6 309 -7Q305 -11 307.5 -14.5Q310 -18 315 -15Q384 37 433.0 49.0Q482 61 491 50Q501 40 518.0 20.5Q535 1 551.5 -18.0Q568 -37 577 -47Q582 -52 577 -57Q547 -86 502.0 -119.5Q457 -153 396.5 -181.0Q336 -209 260 -222Q259 -222 259 -222Q305 -222 364.0 -206.0Q423 -190 493.0 -148.0Q563 -106 643 -25Q644 -24 644 -24Q647 -21 651.0 -16.0Q655 -11 656 -5L630 -15Q620 -19 612 -11Q603 -1 586.0 17.5Q569 36 550.0 56.5Q531 77 515.0 94.5Q499 112 491 120Q487 125 491 130Q496 135 507.0 137.5Q518 140 548 142Q548 146 551 149ZM296 361Q288 360 280 353Q261 335 244 317Q242 303 252 293L383 164Q389 158 396 164L418 186Q425 191 418 198L289 324Q281 332 286 342Z" fill="#2f7889" stroke="none" transform="scale(1,-1) translate(0,-256)" /><path d="M994 908Q980 906 960.5 891.0Q941 876 922.0 855.5Q903 835 888.5 816.5Q874 798 869 790Q860 774 860.0 751.5Q860 729 872 706Q882 687 902.0 661.0Q922 635 947.0 611.5Q972 588 996 573Q1017 560 1039.5 560.0Q1062 560 1080 569Q1090 575 1108.5 588.5Q1127 602 1146.0 619.0Q1165 636 1179.0 652.5Q1193 669 1195 681Q1193 682 1189.5 682.0Q1186 682 1181 678Q1181 678 1168.5 666.5Q1156 655 1138.5 639.5Q1121 624 1106.0 611.0Q1091 598 1086 594Q1070 583 1049.5 581.5Q1029 580 1010 594Q998 602 976.0 624.0Q954 646 933.5 670.0Q913 694 903 708Q891 726 886.0 743.5Q881 761 894 780Q900 787 914.5 803.0Q929 819 946.5 836.5Q964 854 977.5 867.5Q991 881 993 883Q1005 897 995 908Q995 908 994.5 908.0Q994 908 994 908ZM963 554 933 579Q925 587 917 579L869 533Q885 521 901.0 515.5Q917 510 925 518Q932 525 944.0 536.5Q956 548 963 554Z" fill="#2f7889" stroke="none" transform="scale(1,-1) translate(0,-256)" /></svg>