<?xml version="1.0" encoding="utf-8" ?>
<svg baseProfile="full" height="256" version="1.1" width="256" xmlns="http://www.w3.org/2000/svg" xmlns:ev="http://www.w3.org/2001/xml-events" xmlns:xlink="http://www.w3.org/1999/xlink"><defs /><path d="M690 496Q690 496 704.5 480.5Q719 465 738.5 437.5Q758 410 775.0 372.5Q792 335 798 292Q802 262 798.5 236.0Q795 210 792 194Q785 161 775.5 150.0Q766 139 766 139Q766 139 779.0 141.0Q792 143 810.5 149.0Q829 155 846 167Q870 184 893.5 209.5Q917 235 929 264Q946 309 949.5 345.0Q953 381 950.5 411.5Q948 442 947.0 469.5Q946 497 954 525Q967 567 983.0 587.5Q999 608 1017 632Q1033 656 1039.5 677.5Q1046 699 1043 705Q1037 715 1029.5 712.5Q1022 710 1014 704Q1006 699 985.0 684.5Q964 670 915 647Q881 632 855.5 624.5Q830 617 807.0 608.5Q784 600 758 583Q732 566 717.0 546.0Q702 526 696.0 511.0Q690 496 690 496Z" fill="#cd0e1f" stroke="none" transform="scale(1,-1) translate(0,-256)" /></svg>