<?xml version="1.0" encoding="utf-8" ?>
<svg baseProfile="full" height="256" version="1.1" width="256" xmlns="http://www.w3.org/2000/svg" xmlns:ev="http://www.w3.org/2001/xml-events" xmlns:xlink="http://www.w3.org/1999/xlink"><defs /><path d="M335 512Q334 527 318.5 547.5Q303 568 284.0 593.0Q265 618 253.0 644.5Q241 671 249 697Q255 720 270.0 726.0Q285 732 298.5 730.5Q312 729 312 729Q312 729 319.0 714.0Q326 699 345.0 674.0Q364 649 400.0 619.5Q436 590 493 562Q557 530 612.5 491.5Q668 453 705.5 407.0Q743 361 755 305Q765 254 759.0 215.5Q753 177 743.5 155.0Q734 133 734 133Q734 133 716.0 129.5Q698 126 667.0 122.5Q636 119 598.5 120.5Q561 122 522 133Q467 148 428.5 182.0Q390 216 368.0 255.0Q346 294 340 322Q332 359 331.5 398.5Q331 438 333.5 469.0Q336 500 335 512Z" fill="#e2122d" stroke="none" transform="scale(1,-1) translate(0,-256)" /></svg>