<?xml version="1.0" encoding="utf-8" ?>
<svg baseProfile="full" height="256" version="1.1" width="256" xmlns="http://www.w3.org/2000/svg" xmlns:ev="http://www.w3.org/2001/xml-events" xmlns:xlink="http://www.w3.org/1999/xlink"><defs /><path d="M886 696Q890 691 888.0 686.0Q886 681 886 681Q886 681 875.0 681.0Q864 681 852.0 681.0Q840 681 835 681Q822 681 813.5 692.0Q805 703 800.0 714.5Q795 726 794 729Q787 747 774.5 767.0Q762 787 740 787Q740 787 713.0 787.0Q686 787 653 787Q652 787 651.5 787.0Q651 787 651 787Q618 787 590.5 787.0Q563 787 563 787Q541 787 528.5 767.0Q516 747 510 729Q509 726 504.0 714.5Q499 703 490.0 692.0Q481 681 469 681Q464 681 451.5 681.0Q439 681 428.0 681.0Q417 681 417 681Q417 681 415.0 686.0Q413 691 417 696Q421 701 429.0 705.0Q437 709 440 711Q455 719 460.5 735.5Q466 752 470.5 770.5Q475 789 485 804Q497 824 518.5 838.5Q540 853 563 853Q563 853 590.5 853.0Q618 853 651 853Q651 853 651.5 853.0Q652 853 653 853Q686 853 713.0 853.0Q740 853 740 853Q764 853 785.0 838.5Q806 824 819 804Q828 789 832.5 770.5Q837 752 843.0 735.5Q849 719 863 711Q866 709 874.5 705.0Q883 701 886 696Z" fill="#424242" stroke="none" transform="scale(1,-1) translate(0,-256)" /></svg>