<?xml version="1.0" encoding="utf-8" ?>
<svg baseProfile="full" height="256" version="1.1" width="256" xmlns="http://www.w3.org/2000/svg" xmlns:ev="http://www.w3.org/2001/xml-events" xmlns:xlink="http://www.w3.org/1999/xlink"><defs /><path d="M518 824Q512 818 506.5 812.0Q501 806 496 798Q492 790 489.0 782.0Q486 774 483 766Q479 758 482 755Q484 753 488 753Q492 754 495.5 757.5Q499 761 502 765Q507 773 511.5 781.5Q516 790 523 796Q533 805 547.0 808.5Q561 812 574 817Q584 821 585 827Q587 834 580 839Q575 842 566 842Q539 842 518 824Z" fill="#616161" stroke="none" transform="scale(1,-1) translate(0,-256)" /></svg>