<?xml version="1.0" encoding="utf-8" ?>
<svg baseProfile="full" height="256" version="1.1" width="256" xmlns="http://www.w3.org/2000/svg" xmlns:ev="http://www.w3.org/2001/xml-events" xmlns:xlink="http://www.w3.org/1999/xlink"><defs /><path d="M390 307V356Q390 368 382.0 375.5Q374 383 363 383H327Q316 383 308.0 375.5Q300 368 300 356V307Z" fill="#82aec0" stroke="none" transform="scale(1,-1) translate(0,-256)" /><path d="M300 282V183Q300 171 308.0 163.5Q316 156 327 156H363Q374 156 382.0 163.5Q390 171 390 183V282Z" fill="#82aec0" stroke="none" transform="scale(1,-1) translate(0,-256)" /><path d="M975.281005859375 307.0V356.0Q975.281005859375 368.0 967.281005859375 375.5Q959.281005859375 383.0 948.281005859375 383.0H912.281005859375Q901.281005859375 383.0 893.281005859375 375.5Q885.281005859375 368.0 885.281005859375 356.0V307.0Z" fill="#82aec0" stroke="none" transform="scale(1,-1) translate(0,-256)" /><path d="M885.281005859375 282.0V183.0Q885.281005859375 171.0 893.281005859375 163.5Q901.281005859375 156.0 912.281005859375 156.0H948.281005859375Q959.281005859375 156.0 967.281005859375 163.5Q975.281005859375 171.0 975.281005859375 183.0V282.0Z" fill="#82aec0" stroke="none" transform="scale(1,-1) translate(0,-256)" /></svg>