<?xml version="1.0" encoding="utf-8" ?>
<svg baseProfile="full" height="256" version="1.1" width="256" xmlns="http://www.w3.org/2000/svg" xmlns:ev="http://www.w3.org/2001/xml-events" xmlns:xlink="http://www.w3.org/1999/xlink"><defs /><path d="M75.51335144042969 302.3495178222656V282.5176696777344H1200.1377563476562V302.3495178222656Z" fill="#a80707" stroke="none" transform="scale(1,-1) translate(0,-256)" /><path d="M422 338Q438 338 438 324V233Q438 219 422 219H399V172Q399 157 386.5 146.0Q374 135 357 135H333Q315 135 302.5 146.0Q290 157 290 172V219H267Q251 219 251 233V324Q251 338 267 338Z" fill="#a80707" stroke="none" transform="scale(1,-1) translate(0,-256)" /><path d="M1007.1880035400391 338.0Q1023.1880035400391 338.0 1023.1880035400391 324.0V233.0Q1023.1880035400391 219.0 1007.1880035400391 219.0H984.1880035400391V172.0Q984.1880035400391 157.0 971.6880035400391 146.0Q959.1880035400391 135.0 942.1880035400391 135.0H918.1880035400391Q900.1880035400391 135.0 887.6880035400391 146.0Q875.1880035400391 157.0 875.1880035400391 172.0V219.0H852.1880035400391Q836.1880035400391 219.0 836.1880035400391 233.0V324.0Q836.1880035400391 338.0 852.1880035400391 338.0Z" fill="#a80707" stroke="none" transform="scale(1,-1) translate(0,-256)" /></svg>