<?xml version="1.0" encoding="utf-8" ?>
<svg baseProfile="full" height="256" version="1.1" width="256" xmlns="http://www.w3.org/2000/svg" xmlns:ev="http://www.w3.org/2001/xml-events" xmlns:xlink="http://www.w3.org/1999/xlink"><defs /><path d="M872 564Q880 562 881.0 555.5Q882 549 867 544Q840 536 782.5 526.5Q725 517 638 517Q638 517 638.0 517.0Q638 517 638 517Q638 517 638.0 517.0Q638 517 638 517Q550 517 492.5 526.5Q435 536 408 544Q393 549 394.0 555.5Q395 562 403 564Q417 568 429.5 572.5Q442 577 455 583Q460 585 468.0 589.5Q476 594 491 589Q534 576 573.0 574.5Q612 573 638 572Q663 573 702.0 574.5Q741 576 784 589Q799 594 807.0 589.5Q815 585 820 583Q833 577 845.5 572.5Q858 568 872 564Z" fill="#ffa364" stroke="none" transform="scale(1,-1) translate(0,-256)" /></svg>