<?xml version="1.0" encoding="utf-8" ?>
<svg baseProfile="full" height="256" version="1.1" width="256" xmlns="http://www.w3.org/2000/svg" xmlns:ev="http://www.w3.org/2001/xml-events" xmlns:xlink="http://www.w3.org/1999/xlink"><defs /><path d="M157 419Q157 419 144.5 431.0Q132 443 115.5 465.0Q99 487 86.5 518.5Q74 550 73 588Q72 624 85.0 650.0Q98 676 114.0 691.0Q130 706 139 712Q144 714 171.5 722.0Q199 730 239.5 740.0Q280 750 324.5 761.0Q369 772 408.0 781.5Q447 791 471.5 796.5Q496 802 496 802L1159 686Q1159 686 1170.0 674.5Q1181 663 1190 641Q1195 626 1197.0 607.5Q1199 589 1199 589L1115 434Q1115 434 1115.5 412.5Q1116 391 1116.5 360.5Q1117 330 1118.0 301.5Q1119 273 1121 259Q1122 240 1122.5 208.0Q1123 176 1123.5 144.0Q1124 112 1126 93Q1128 63 1115.5 45.0Q1103 27 1087 14Q1065 -3 1025.5 -25.5Q986 -48 909 -86Q833 -125 781.0 -151.0Q729 -177 705 -185Q680 -195 657.0 -198.5Q634 -202 614 -193Q604 -189 577.0 -176.0Q550 -163 513.0 -144.0Q476 -125 436.0 -104.0Q396 -83 360 -62Q286 -21 235.5 15.0Q185 51 173 60Q154 75 152.0 99.0Q150 123 150 147Q150 157 150.5 187.5Q151 218 152.0 257.0Q153 296 154.0 333.0Q155 370 156.0 394.5Q157 419 157 419Z" fill="#e07f14" stroke="none" transform="scale(1,-1) translate(0,-256)" /></svg>