<?xml version="1.0" encoding="utf-8" ?>
<svg baseProfile="full" height="256" version="1.1" width="256" xmlns="http://www.w3.org/2000/svg" xmlns:ev="http://www.w3.org/2001/xml-events" xmlns:xlink="http://www.w3.org/1999/xlink"><defs /><path d="M759 493Q742 511 704.0 545.5Q666 580 595.0 620.5Q524 661 409 698Q323 726 265.5 728.0Q208 730 174.0 719.5Q140 709 126.5 698.5Q113 688 114 692Q115 695 140.0 717.0Q165 739 212.5 769.0Q260 799 328.5 828.0Q397 857 486.0 875.5Q575 894 684 892Q790 890 871.0 867.0Q952 844 1010.0 810.5Q1068 777 1105.0 743.5Q1142 710 1159.5 687.5Q1177 665 1177 665Q1177 665 1154.5 655.5Q1132 646 1095.5 630.0Q1059 614 1014.5 595.5Q970 577 926.0 558.0Q882 539 844.5 524.0Q807 509 783.5 500.0Q760 491 759 493Z" fill="#f5b03e" stroke="none" transform="scale(1,-1) translate(0,-256)" /></svg>