<?xml version="1.0" encoding="utf-8" ?>
<svg baseProfile="full" height="256" version="1.1" width="256" xmlns="http://www.w3.org/2000/svg" xmlns:ev="http://www.w3.org/2001/xml-events" xmlns:xlink="http://www.w3.org/1999/xlink"><defs /><path d="M76 189Q76 189 74.0 176.0Q72 163 70 142Q69 128 68.5 111.0Q68 94 68.0 81.0Q68 68 68 68Q68 68 85.5 74.0Q103 80 122.5 87.5Q142 95 149 100Q151 101 155.5 114.5Q160 128 165.0 144.0Q170 160 173.0 173.0Q176 186 175 188Q173 190 157.5 191.0Q142 192 123.0 191.0Q104 190 90.0 189.5Q76 189 76 189Z" fill="#fda431" stroke="none" transform="scale(1,-1) translate(0,-256)" /></svg>