<?xml version="1.0" encoding="utf-8" ?>
<svg baseProfile="full" height="256" version="1.1" width="256" xmlns="http://www.w3.org/2000/svg" xmlns:ev="http://www.w3.org/2001/xml-events" xmlns:xlink="http://www.w3.org/1999/xlink"><defs /><path d="M120 170 1163 179 1215 126Q1215 126 1214.0 105.0Q1213 84 1211.5 54.5Q1210 25 1208.5 -2.0Q1207 -29 1206 -43Q1203 -69 1189.0 -80.0Q1175 -91 1158 -92Q1154 -92 1112.5 -92.0Q1071 -92 1003.5 -92.0Q936 -92 852.5 -91.5Q769 -91 680.0 -90.5Q591 -90 506.5 -89.5Q422 -89 352.5 -89.0Q283 -89 238.0 -89.0Q193 -89 183 -89Q113 -91 89 -68Q70 -51 68.5 -28.0Q67 -5 67 39Q68 68 69.5 99.0Q71 130 73.0 151.0Q75 172 75 172Z" fill="#474c4f" stroke="none" transform="scale(1,-1) translate(0,-256)" /></svg>