<?xml version="1.0" encoding="utf-8" ?>
<svg baseProfile="full" height="256" version="1.1" width="256" xmlns="http://www.w3.org/2000/svg" xmlns:ev="http://www.w3.org/2001/xml-events" xmlns:xlink="http://www.w3.org/1999/xlink"><defs /><path d="M599 127Q606 129 614.5 117.0Q623 105 635 105Q654 106 662.0 118.5Q670 131 678 131Q685 132 695.5 119.0Q706 106 720 105Q731 105 737.5 111.0Q744 117 748.5 123.5Q753 130 758 128Q759 128 760.5 112.5Q762 97 760.5 75.0Q759 53 751.0 31.0Q743 9 726.0 -6.5Q709 -22 680 -23Q649 -23 631.5 -8.5Q614 6 605.5 28.5Q597 51 595.0 73.5Q593 96 594.5 111.5Q596 127 599 127Z" fill="#e3e4de" stroke="none" transform="scale(1,-1) translate(0,-256)" /></svg>