<?xml version="1.0" encoding="utf-8" ?>
<svg baseProfile="full" height="256" version="1.1" width="256" xmlns="http://www.w3.org/2000/svg" xmlns:ev="http://www.w3.org/2001/xml-events" xmlns:xlink="http://www.w3.org/1999/xlink"><defs /><path d="M1163 217Q1165 220 1176.0 220.0Q1187 220 1197.5 219.0Q1208 218 1208 218Q1208 218 1211.0 202.0Q1214 186 1215 164Q1216 140 1215.5 121.0Q1215 102 1215 102Q1215 102 1206.0 102.0Q1197 102 1186.5 102.5Q1176 103 1172 104Q1166 105 1165.0 122.5Q1164 140 1163 157Q1162 181 1160.5 197.5Q1159 214 1163 217Z" fill="#ff2a23" stroke="none" transform="scale(1,-1) translate(0,-256)" /></svg>