<?xml version="1.0" encoding="utf-8" ?>
<svg baseProfile="full" height="256" version="1.1" width="256" xmlns="http://www.w3.org/2000/svg" xmlns:ev="http://www.w3.org/2001/xml-events" xmlns:xlink="http://www.w3.org/1999/xlink"><defs /><path d="M476 546Q506 546 528.5 522.5Q551 499 551 458Q551 416 528.5 393.0Q506 370 476 370Q447 370 424.0 393.0Q401 416 401 458Q401 499 424.0 522.5Q447 546 476 546Z" fill="#3f2c13" stroke="none" transform="scale(1,-1) translate(0,-256)" /><path d="M807.875 546.0Q837.875 546.0 860.375 522.5Q882.875 499.0 882.875 458.0Q882.875 416.0 860.375 393.0Q837.875 370.0 807.875 370.0Q778.875 370.0 755.875 393.0Q732.875 416.0 732.875 458.0Q732.875 499.0 755.875 522.5Q778.875 546.0 807.875 546.0Z" fill="#3f2c13" stroke="none" transform="scale(1,-1) translate(0,-256)" /></svg>