<?xml version="1.0" encoding="utf-8" ?>
<svg baseProfile="full" height="256" version="1.1" width="256" xmlns="http://www.w3.org/2000/svg" xmlns:ev="http://www.w3.org/2001/xml-events" xmlns:xlink="http://www.w3.org/1999/xlink"><defs /><path d="M473 509Q480 504 481.5 494.5Q483 485 476 475Q469 464 459.5 462.0Q450 460 443 465Q435 470 433.5 479.5Q432 489 439 500Q446 511 455.5 512.5Q465 514 473 509Z" fill="#83622f" stroke="none" transform="scale(1,-1) translate(0,-256)" /><path d="M804 509Q812 504 813.5 494.5Q815 485 808 475Q801 464 791.0 462.0Q781 460 774 465Q767 470 765.5 479.5Q764 489 771 500Q778 511 787.5 512.5Q797 514 804 509Z" fill="#83622f" stroke="none" transform="scale(1,-1) translate(0,-256)" /></svg>