<?xml version="1.0" encoding="utf-8" ?>
<svg baseProfile="full" height="256" version="1.1" width="256" xmlns="http://www.w3.org/2000/svg" xmlns:ev="http://www.w3.org/2001/xml-events" xmlns:xlink="http://www.w3.org/1999/xlink"><defs /><path d="M307 545 308 546Q385 581 426 657Q428 663 435.0 666.0Q442 669 448 666Q454 663 457.0 656.5Q460 650 458 643Q451 618 434 594Q392 529 316 511Q299 508 296.0 523.5Q293 539 307 545Z" fill="#422b0d" stroke="none" transform="scale(1,-1) translate(0,-256)" /><path d="M848 652Q867 615 897.5 586.5Q928 558 967 542Q976 538 977.5 529.0Q979 520 974.0 513.0Q969 506 957 508Q881 526 839 590Q822 614 816 640Q809 655 825 662Q841 668 848 653Z" fill="#422b0d" stroke="none" transform="scale(1,-1) translate(0,-256)" /></svg>