<?xml version="1.0" encoding="utf-8" ?>
<svg baseProfile="full" height="256" version="1.1" width="256" xmlns="http://www.w3.org/2000/svg" xmlns:ev="http://www.w3.org/2001/xml-events" xmlns:xlink="http://www.w3.org/1999/xlink"><defs /><path d="M835 -41Q851 -71 845.0 -104.5Q839 -138 812 -159Q788 -178 748.5 -192.0Q709 -206 649 -206Q647 -206 645.5 -206.0Q644 -206 642 -206Q641 -206 639.0 -206.0Q637 -206 636 -206Q575 -206 535.5 -192.5Q496 -179 473 -159Q446 -138 439.5 -104.5Q433 -71 448 -41Q468 -3 489.0 62.5Q510 128 510 211Q510 252 523.5 276.5Q537 301 556.5 313.0Q576 325 595.5 329.0Q615 333 628.0 333.0Q641 333 641 333Q641 333 654.5 333.0Q668 333 687.5 329.0Q707 325 726.5 313.0Q746 301 759.5 276.5Q773 252 773 211Q773 128 794.5 62.5Q816 -3 835 -41Z" fill="#ef8720" stroke="none" transform="scale(1,-1) translate(0,-256)" /><path d="M979 690 978 691 863 309Q857 294 842.5 273.5Q828 253 802.0 233.5Q776 214 735.0 201.5Q694 189 636 189Q577 189 538.0 201.5Q499 214 475.0 233.5Q451 253 439.0 273.0Q427 293 421 308L304 690H641Z" fill="#ef8720" stroke="none" transform="scale(1,-1) translate(0,-256)" /></svg>