<?xml version="1.0" encoding="utf-8" ?>
<svg baseProfile="full" height="256" version="1.1" width="256" xmlns="http://www.w3.org/2000/svg" xmlns:ev="http://www.w3.org/2001/xml-events" xmlns:xlink="http://www.w3.org/1999/xlink"><defs /><path d="M529 241Q529 294 491 297Q471 299 461.5 281.5Q452 264 452 238Q452 211 461.0 194.0Q470 177 488 177Q514 177 521.5 195.5Q529 214 529 241Z" fill="#2f2f2d" stroke="none" transform="scale(1,-1) translate(0,-256)" /><path d="M825 233Q825 260 814.0 276.0Q803 292 784 292Q764 292 757.0 277.5Q750 263 750 237Q750 210 759.0 191.0Q768 172 786 172Q811 172 818.0 189.5Q825 207 825 233Z" fill="#2f2f2d" stroke="none" transform="scale(1,-1) translate(0,-256)" /></svg>