<?xml version="1.0" encoding="utf-8" ?>
<svg baseProfile="full" height="256" version="1.1" width="256" xmlns="http://www.w3.org/2000/svg" xmlns:ev="http://www.w3.org/2001/xml-events" xmlns:xlink="http://www.w3.org/1999/xlink"><defs /><path d="M775 439Q754 453 756.0 470.5Q758 488 769.5 510.5Q781 533 788 563Q796 593 802.5 632.5Q809 672 808 702Q807 712 807.5 729.5Q808 747 812.0 765.0Q816 783 825.5 795.5Q835 808 854 809Q878 810 889.0 793.0Q900 776 902.5 748.0Q905 720 905 687Q903 625 884.5 576.5Q866 528 854 499Q849 487 838.5 467.0Q828 447 812.0 436.5Q796 426 775 439Z" fill="#feaca9" stroke="none" transform="scale(1,-1) translate(0,-256)" /><path d="M459 818Q481 815 488.0 797.0Q495 779 495.0 753.5Q495 728 495 702Q495 682 498.0 654.0Q501 626 505.5 597.5Q510 569 514.0 547.0Q518 525 519 519Q521 510 525.0 493.0Q529 476 528.5 460.5Q528 445 513 441Q491 435 478.5 445.0Q466 455 448 489Q436 511 425.5 547.5Q415 584 407.5 624.0Q400 664 398 696Q395 728 402.0 757.0Q409 786 423.5 803.0Q438 820 459 818Z" fill="#feaca9" stroke="none" transform="scale(1,-1) translate(0,-256)" /></svg>