<?xml version="1.0" encoding="utf-8" ?>
<svg baseProfile="full" height="256" version="1.1" width="256" xmlns="http://www.w3.org/2000/svg" xmlns:ev="http://www.w3.org/2001/xml-events" xmlns:xlink="http://www.w3.org/1999/xlink"><defs /><path d="M378 54Q388 54 391 63Q397 76 384 82Q382 82 356.0 90.0Q330 98 295 97Q258 96 239.5 92.0Q221 88 220 88Q206 84 210 71Q214 57 228 61Q228 61 245.0 64.5Q262 68 296 69Q326 70 349.5 63.0Q373 56 373 55Q376 54 378 54Z" fill="#838584" stroke="none" transform="scale(1,-1) translate(0,-256)" /><path d="M227 -41Q231 -41 235 -38Q235 -38 253.5 -26.0Q272 -14 298 -7Q325 0 351.0 -0.5Q377 -1 377 -1Q391 -2 392 12Q393 26 379 27Q377 27 349.0 27.5Q321 28 291 20Q261 12 240.0 -1.5Q219 -15 218 -16Q207 -25 216 -36Q220 -41 227 -41Z" fill="#838584" stroke="none" transform="scale(1,-1) translate(0,-256)" /><path d="M269 -116Q275 -116 279 -112Q279 -112 292.5 -99.0Q306 -86 320 -75Q330 -67 349.5 -58.5Q369 -50 377 -47Q390 -42 385 -29Q380 -16 367 -21Q366 -21 354.5 -26.0Q343 -31 328.0 -38.0Q313 -45 302 -53Q288 -64 274.0 -78.0Q260 -92 259 -92Q249 -102 259 -112Q263 -116 269 -116Z" fill="#838584" stroke="none" transform="scale(1,-1) translate(0,-256)" /><path d="M887 50Q889 50 891 51Q891 51 914.5 56.5Q938 62 964 62Q991 63 1011.5 58.5Q1032 54 1032 54Q1045 50 1049 63Q1054 76 1040 81Q1039 81 1016.5 86.5Q994 92 963 91Q934 90 909.5 84.0Q885 78 884 78Q870 74 874 61Q877 50 887 50Z" fill="#838584" stroke="none" transform="scale(1,-1) translate(0,-256)" /><path d="M1032 -27Q1038 -27 1043 -22Q1051 -11 1041 -2Q1040 -2 1023.5 8.5Q1007 19 974 26Q944 33 919.0 32.5Q894 32 893 32Q879 31 880 17Q882 3 896 4Q896 4 918.0 4.5Q940 5 967 -1Q995 -8 1009.0 -16.0Q1023 -24 1023 -24Q1027 -27 1032 -27Z" fill="#838584" stroke="none" transform="scale(1,-1) translate(0,-256)" /><path d="M1007 -96Q1013 -96 1017 -91Q1026 -81 1016 -72Q1015 -71 997.5 -57.5Q980 -44 960 -34Q939 -24 916.0 -22.0Q893 -20 892 -20Q892 -20 892.0 -20.0Q892 -20 892 -20Q878 -20 878 -34Q878 -48 892 -48Q892 -48 911.5 -49.5Q931 -51 948 -59Q966 -68 981.5 -80.5Q997 -93 997 -93Q1001 -96 1007 -96Z" fill="#838584" stroke="none" transform="scale(1,-1) translate(0,-256)" /></svg>