<?xml version="1.0" encoding="utf-8" ?>
<svg baseProfile="full" height="256" version="1.1" width="256" xmlns="http://www.w3.org/2000/svg" xmlns:ev="http://www.w3.org/2001/xml-events" xmlns:xlink="http://www.w3.org/1999/xlink"><defs /><path d="M517 326 1130 650Q1130 650 1142.5 648.5Q1155 647 1162 640Q1169 632 1165.5 619.5Q1162 607 1151 595Q1146 588 1121.0 563.5Q1096 539 1044.0 501.0Q992 463 905 415Q774 341 688.0 306.5Q602 272 574 265Q550 260 513.0 259.0Q476 258 439.5 259.5Q403 261 378.0 263.0Q353 265 353 265Z" fill="#b0b0b0" stroke="none" transform="scale(1,-1) translate(0,-256)" /></svg>