<?xml version="1.0" encoding="utf-8" ?>
<svg baseProfile="full" height="256" version="1.1" width="256" xmlns="http://www.w3.org/2000/svg" xmlns:ev="http://www.w3.org/2001/xml-events" xmlns:xlink="http://www.w3.org/1999/xlink"><defs /><path d="M582 -154 636 -167 982 -31 929 -19Z" fill="#c8c8c8" stroke="none" transform="scale(1,-1) translate(0,-256)" /><path d="M942 -39 898 -50 1062 -87 1095 -72Z" fill="#c8c8c8" stroke="none" transform="scale(1,-1) translate(0,-256)" /><path d="M879 -63 839 -79 998 -117 1033 -100Z" fill="#c8c8c8" stroke="none" transform="scale(1,-1) translate(0,-256)" /><path d="M792 -95 755 -111 917 -154 955 -136Z" fill="#c8c8c8" stroke="none" transform="scale(1,-1) translate(0,-256)" /><path d="M666 -147 713 -130 881 -170 834 -192Z" fill="#c8c8c8" stroke="none" transform="scale(1,-1) translate(0,-256)" /><path d="M563 -5Q550 -9 534.5 -13.5Q519 -18 505 -23L452 -10L519 5Q519 5 531.0 2.0Q543 -1 563 -5Z" fill="#c8c8c8" stroke="none" transform="scale(1,-1) translate(0,-256)" /><path d="M670 -30 615 -50 559 -36 614 -17Q628 -20 642.0 -23.5Q656 -27 670 -30Z" fill="#c8c8c8" stroke="none" transform="scale(1,-1) translate(0,-256)" /><path d="M718 -41Q738 -45 752.0 -48.0Q766 -51 770 -52L711 -74L663 -62Z" fill="#c8c8c8" stroke="none" transform="scale(1,-1) translate(0,-256)" /><path d="M315 306 320 269Q320 269 346.0 266.5Q372 264 411.5 262.5Q451 261 492 265Q524 268 573.0 287.5Q622 307 678.5 335.5Q735 364 791.0 395.5Q847 427 891 453Q935 479 982.5 511.0Q1030 543 1070.5 572.5Q1111 602 1136.5 621.0Q1162 640 1162 640Q1162 640 1158.0 643.0Q1154 646 1144 649Q1128 653 1116.0 653.0Q1104 653 1104 653L1087 672Q1087 672 1077.5 679.0Q1068 686 1048 688Q1026 691 1007.0 685.0Q988 679 969 671Q963 668 936.5 655.0Q910 642 869.5 621.5Q829 601 782.5 577.5Q736 554 690.5 531.0Q645 508 607.0 488.5Q569 469 546.5 457.5Q524 446 524 446L421 379Q421 379 399.5 368.0Q378 357 347 333Q334 323 324.5 314.5Q315 306 315 306Z" fill="#c8c8c8" stroke="none" transform="scale(1,-1) translate(0,-256)" /></svg>