<?xml version="1.0" encoding="utf-8" ?>
<svg baseProfile="full" height="256" version="1.1" width="256" xmlns="http://www.w3.org/2000/svg" xmlns:ev="http://www.w3.org/2001/xml-events" xmlns:xlink="http://www.w3.org/1999/xlink"><defs /><path d="M694 482Q701 484 704.5 479.5Q708 475 709 471Q712 463 709.0 456.0Q706 449 706 449Q706 449 696.0 450.0Q686 451 684 461Q683 464 684.5 471.5Q686 479 694 482Z" fill="#3b5361" stroke="none" transform="scale(1,-1) translate(0,-256)" /><path d="M1088 672 1104 654Q1104 654 1091.0 648.5Q1078 643 1062 635Q1042 625 1029.0 614.5Q1016 604 1009 609Q1003 613 1010.5 626.5Q1018 640 1040 654Q1063 668 1075.5 670.0Q1088 672 1088 672Z" fill="#3b5361" stroke="none" transform="scale(1,-1) translate(0,-256)" /><path d="M753 512Q768 516 769 498Q770 484 759 480Q746 476 744 491Q743 498 745.0 504.0Q747 510 753 512Z" fill="#3b5361" stroke="none" transform="scale(1,-1) translate(0,-256)" /><path d="M813 544Q819 546 822.5 542.0Q826 538 827 531Q828 525 826.0 519.0Q824 513 818 512Q805 508 803 525Q802 530 803.5 535.5Q805 541 813 544Z" fill="#3b5361" stroke="none" transform="scale(1,-1) translate(0,-256)" /><path d="M872 575Q884 578 887 562Q889 545 877 540Q871 537 866.5 542.5Q862 548 862 554Q860 571 872 575Z" fill="#3b5361" stroke="none" transform="scale(1,-1) translate(0,-256)" /><path d="M930 602Q936 605 940.0 600.0Q944 595 945 589Q946 584 943.5 577.0Q941 570 934 568Q928 566 923.0 571.0Q918 576 918 584Q918 598 930 602Z" fill="#3b5361" stroke="none" transform="scale(1,-1) translate(0,-256)" /><path d="M457 352Q463 354 467.5 350.5Q472 347 472 341Q473 332 469.5 326.5Q466 321 462 321Q458 321 453.5 323.0Q449 325 448 332Q446 348 457 352Z" fill="#3b5361" stroke="none" transform="scale(1,-1) translate(0,-256)" /></svg>