<?xml version="1.0" encoding="utf-8" ?>
<svg baseProfile="full" height="256" version="1.1" width="256" xmlns="http://www.w3.org/2000/svg" xmlns:ev="http://www.w3.org/2001/xml-events" xmlns:xlink="http://www.w3.org/1999/xlink"><defs /><path d="M579 574Q579 574 564.5 577.0Q550 580 530.5 584.0Q511 588 495 590Q458 593 434.0 584.0Q410 575 410 575Q415 606 436.0 623.0Q457 640 471 646Q479 650 495.0 649.0Q511 648 524.0 646.5Q537 645 537 645Q537 645 527.0 661.5Q517 678 500 715Q492 734 485.0 758.5Q478 783 473.0 806.5Q468 830 465.0 846.0Q462 862 462 864Q462 867 470.5 868.5Q479 870 489.0 871.5Q499 873 504 874Q510 877 523.5 884.0Q537 891 538 892Q538 893 541.5 876.0Q545 859 551.0 834.5Q557 810 563.0 785.5Q569 761 575 748Q581 729 593.0 705.0Q605 681 615.0 663.0Q625 645 625 645Q625 645 620.0 641.0Q615 637 611 635Q608 632 601.5 626.5Q595 621 595 621Q595 621 590.5 632.0Q586 643 579.5 658.0Q573 673 567.0 686.5Q561 700 559 705Q555 713 549.0 728.0Q543 743 537.0 758.5Q531 774 526.5 784.5Q522 795 520 794Q518 792 522.5 776.5Q527 761 533.0 742.0Q539 723 543 713Q545 707 551.5 691.0Q558 675 565.5 657.0Q573 639 578.5 626.0Q584 613 584 613Q584 613 580.5 608.5Q577 604 576 598Q575 591 577.0 582.5Q579 574 579 574Z" fill="#fff9af" stroke="none" transform="scale(1,-1) translate(0,-256)" /><path d="M662 537Q662 537 660.0 546.5Q658 556 660 568Q662 575 669.0 585.5Q676 596 682.5 603.5Q689 611 689 611Q689 611 683.5 619.0Q678 627 663 633Q649 638 642.0 637.5Q635 637 635 637Q635 637 626.5 630.5Q618 624 608.0 614.5Q598 605 594 595Q588 581 595.5 569.5Q603 558 611 552Q625 543 642.5 539.5Q660 536 662 537Z" fill="#fff9af" stroke="none" transform="scale(1,-1) translate(0,-256)" /><path d="M685 576Q685 576 701.0 580.0Q717 584 735.5 590.0Q754 596 762 600Q801 617 832.5 630.5Q864 644 867 639Q868 636 856.5 628.0Q845 620 827.0 610.0Q809 600 791 591Q738 566 713.0 560.5Q688 555 688 550Q688 545 693.5 537.0Q699 529 699 529Q699 529 716.0 535.0Q733 541 757.5 549.5Q782 558 806.5 567.0Q831 576 846 582Q861 587 884.5 599.0Q908 611 931.0 623.0Q954 635 969.5 643.5Q985 652 985 652Q985 652 980.0 669.0Q975 686 967 701Q960 717 945.5 729.5Q931 742 931 742Q931 742 918.5 730.5Q906 719 897 711Q887 704 852.0 682.0Q817 660 774 636Q732 612 714.5 607.0Q697 602 697 602Q697 602 694.5 600.5Q692 599 688 593Q682 583 685 576Z" fill="#fff9af" stroke="none" transform="scale(1,-1) translate(0,-256)" /><path d="M777 542Q777 542 797.5 531.5Q818 521 846.5 502.5Q875 484 901.5 460.0Q928 436 939 410Q957 369 959.5 334.5Q962 300 961 294Q960 288 956.5 279.0Q953 270 941 251Q927 229 918.0 221.5Q909 214 909 214Q909 214 909.5 228.5Q910 243 908 265Q903 311 892.0 339.0Q881 367 875 380Q868 393 849.5 415.0Q831 437 807 456Q782 476 758.5 490.5Q735 505 735 505Q735 505 741.5 510.0Q748 515 754 521Q761 527 769.0 534.5Q777 542 777 542Z" fill="#fff9af" stroke="none" transform="scale(1,-1) translate(0,-256)" /></svg>