<?xml version="1.0" encoding="utf-8" ?>
<svg baseProfile="full" height="256" version="1.1" width="256" xmlns="http://www.w3.org/2000/svg" xmlns:ev="http://www.w3.org/2001/xml-events" xmlns:xlink="http://www.w3.org/1999/xlink"><defs /><path d="M174 93Q174 93 163.5 91.0Q153 89 142 97Q135 102 130.5 112.0Q126 122 127.5 132.0Q129 142 140 147Q155 153 167.0 143.0Q179 133 184 129Q187 128 203.0 118.0Q219 108 243.0 94.0Q267 80 291.5 65.5Q316 51 335.5 40.0Q355 29 363 26Q401 9 439.5 -4.0Q478 -17 503.5 -24.5Q529 -32 529 -32Q529 -32 541.0 -32.0Q553 -32 577 -37Q600 -41 605.5 -55.5Q611 -70 608 -77Q601 -92 572 -85Q559 -82 549.5 -74.0Q540 -66 540 -66Q540 -66 512.0 -59.0Q484 -52 443.5 -40.0Q403 -28 366 -14Q339 -3 311.0 14.5Q283 32 262 44Q248 51 227.5 63.0Q207 75 190.5 84.0Q174 93 174 93Z" fill="#fef58a" stroke="none" transform="scale(1,-1) translate(0,-256)" /></svg>