<?xml version="1.0" encoding="utf-8" ?>
<svg baseProfile="full" height="256" version="1.1" width="256" xmlns="http://www.w3.org/2000/svg" xmlns:ev="http://www.w3.org/2001/xml-events" xmlns:xlink="http://www.w3.org/1999/xlink"><defs /><path d="M506 -187Q543 -187 572.0 -179.0Q601 -171 619 -161Q674 -129 682 -75Q685 -56 682.0 -24.0Q679 8 656.5 47.5Q634 87 580.0 128.5Q526 170 427 209Q382 227 342.5 233.5Q303 240 278.0 241.0Q253 242 250 242Q246 242 239.5 239.0Q233 236 234 227Q235 216 241.0 214.5Q247 213 253 212Q256 212 282.0 210.0Q308 208 345.5 201.5Q383 195 421 180Q511 145 559.0 108.0Q607 71 626.5 37.0Q646 3 648.0 -24.5Q650 -52 647 -69Q644 -89 632.0 -105.5Q620 -122 599 -132Q580 -142 548.5 -149.0Q517 -156 469.5 -152.0Q422 -148 355 -123Q277 -93 228.0 -58.5Q179 -24 153.0 11.0Q127 46 118.0 76.0Q109 106 111 126Q113 150 123.0 179.0Q133 208 174 235Q212 259 265.5 263.5Q319 268 389 245Q479 217 538.0 177.0Q597 137 625 105Q642 85 651.5 70.0Q661 55 666 46Q670 37 675.0 26.5Q680 16 688 20Q697 26 689.5 40.0Q682 54 678 63Q676 68 661.5 91.5Q647 115 616.0 148.0Q585 181 533.5 215.0Q482 249 405 275Q327 301 262.5 298.5Q198 296 152 267Q112 242 94.0 203.5Q76 165 72 134Q68 109 77.5 73.0Q87 37 115.5 -3.5Q144 -44 198.0 -83.5Q252 -123 339 -155Q391 -175 432.0 -181.0Q473 -187 506 -187Z" fill="#fff6ad" stroke="none" transform="scale(1,-1) translate(0,-256)" /></svg>