<?xml version="1.0" encoding="utf-8" ?>
<svg baseProfile="full" height="256" version="1.1" width="256" xmlns="http://www.w3.org/2000/svg" xmlns:ev="http://www.w3.org/2001/xml-events" xmlns:xlink="http://www.w3.org/1999/xlink"><defs /><path d="M147 109 154 124 333 19Q333 19 353.0 11.5Q373 4 404.5 -7.0Q436 -18 470.0 -29.5Q504 -41 531.5 -50.0Q559 -59 571 -60Q601 -65 610.5 -68.5Q620 -72 620 -72Q620 -72 619.0 -76.5Q618 -81 616 -86Q613 -93 604.5 -103.0Q596 -113 577.0 -120.5Q558 -128 524 -127Q488 -127 446.0 -116.5Q404 -106 363.0 -90.0Q322 -74 290 -56Q241 -29 220.0 -8.5Q199 12 182 36Q165 59 156.0 84.0Q147 109 147 109Z" fill="#ffd61c" stroke="none" transform="scale(1,-1) translate(0,-256)" /></svg>