<?xml version="1.0" encoding="utf-8" ?>
<svg baseProfile="full" height="256" version="1.1" width="256" xmlns="http://www.w3.org/2000/svg" xmlns:ev="http://www.w3.org/2001/xml-events" xmlns:xlink="http://www.w3.org/1999/xlink"><defs /><path d="M288 103Q293 108 301.0 107.5Q309 107 315 101Q321 95 317.5 84.5Q314 74 301 78Q287 82 286.0 91.0Q285 100 288 103Z" fill="#f6af41" stroke="none" transform="scale(1,-1) translate(0,-256)" /><path d="M370 135Q376 140 382.0 137.5Q388 135 392 132Q397 129 399.5 122.0Q402 115 399 110Q391 100 375 109Q368 114 366.5 122.0Q365 130 370 135Z" fill="#f6af41" stroke="none" transform="scale(1,-1) translate(0,-256)" /><path d="M227 167Q233 174 241.0 171.5Q249 169 251 166Q253 163 251.5 157.5Q250 152 242 151Q234 150 228.5 156.0Q223 162 227 167Z" fill="#f6af41" stroke="none" transform="scale(1,-1) translate(0,-256)" /><path d="M196 154Q206 162 213.5 156.0Q221 150 223 145Q225 135 218.5 131.5Q212 128 204 131Q197 134 194.0 142.0Q191 150 196 154Z" fill="#f6af41" stroke="none" transform="scale(1,-1) translate(0,-256)" /><path d="M456 -78Q456 -71 462.0 -69.0Q468 -67 473 -67Q478 -67 483.5 -70.0Q489 -73 489 -81Q490 -89 485.0 -91.5Q480 -94 474 -94Q467 -93 461.5 -90.0Q456 -87 456 -78Z" fill="#f6af41" stroke="none" transform="scale(1,-1) translate(0,-256)" /></svg>