<?xml version="1.0" encoding="utf-8" ?>
<svg baseProfile="full" height="256" version="1.1" width="256" xmlns="http://www.w3.org/2000/svg" xmlns:ev="http://www.w3.org/2001/xml-events" xmlns:xlink="http://www.w3.org/1999/xlink"><defs /><path d="M596 805Q604 838 620.0 848.0Q636 858 636 858L695 799Q721 773 715 737L695 592Q693 581 688 570L598 672Q598 672 595.0 694.0Q592 716 591.0 747.0Q590 778 596 805Z" fill="#94d1e0" stroke="none" transform="scale(1,-1) translate(0,-256)" /><path d="M1022 419 1085 357Q1103 338 1099 312L1077 174Q1076 167 1072 160L988 245Q988 245 986.5 266.0Q985 287 985.5 314.0Q986 341 991 360Q997 384 1006.5 397.5Q1016 411 1022 419Z" fill="#94d1e0" stroke="none" transform="scale(1,-1) translate(0,-256)" /></svg>