<?xml version="1.0" encoding="utf-8" ?>
<svg baseProfile="full" height="256" version="1.1" width="256" xmlns="http://www.w3.org/2000/svg" xmlns:ev="http://www.w3.org/2001/xml-events" xmlns:xlink="http://www.w3.org/1999/xlink"><defs /><path d="M562 228Q562 215 575.0 201.0Q588 187 606.0 177.5Q624 168 638 168Q653 168 670.5 178.0Q688 188 700.5 202.5Q713 217 713 231Q712 251 688.0 260.0Q664 269 637 269Q609 268 585.5 258.0Q562 248 562 228Z" fill="#000000" stroke="none" transform="scale(1,-1) translate(0,-256)" /><path d="M661 122Q657 126 646.5 124.5Q636 123 631 113Q626 102 610.0 94.5Q594 87 574 81Q553 75 529.0 72.5Q505 70 487 69Q479 69 477.5 60.5Q476 52 484 49Q502 43 538.0 42.0Q574 41 637 50Q671 55 708 51Q773 44 805.5 64.0Q838 84 852 111Q857 121 860.5 136.0Q864 151 866 165Q867 173 859.5 176.0Q852 179 847 173Q834 155 815.0 137.0Q796 119 772 111Q732 98 705.0 101.5Q678 105 661 122Z" fill="#000000" stroke="none" transform="scale(1,-1) translate(0,-256)" /><path d="M633 105Q639 87 657 94Q674 100 668 118Q658 144 657 172Q657 191 638 191Q620 190 620 172Q621 137 633 105Z" fill="#000000" stroke="none" transform="scale(1,-1) translate(0,-256)" /><path d="M355 352Q355 317 375.0 292.5Q395 268 423 268Q437 268 451.5 279.0Q466 290 476.5 306.0Q487 322 488.0 337.5Q489 353 477 362Q474 365 450.5 379.5Q427 394 390 423Q385 428 378 426Q367 423 361.0 398.0Q355 373 355 352Z" fill="#000000" stroke="none" transform="scale(1,-1) translate(0,-256)" /><path d="M920 352Q920 317 900.0 292.5Q880 268 852 268Q838 268 823.0 279.0Q808 290 798.0 306.0Q788 322 787.0 337.5Q786 353 798 362Q801 365 826.5 376.0Q852 387 889 417Q894 421 901 419Q912 416 916.0 395.5Q920 375 920 352Z" fill="#000000" stroke="none" transform="scale(1,-1) translate(0,-256)" /></svg>