<?xml version="1.0" encoding="utf-8" ?>
<svg baseProfile="full" height="256" version="1.1" width="256" xmlns="http://www.w3.org/2000/svg" xmlns:ev="http://www.w3.org/2001/xml-events" xmlns:xlink="http://www.w3.org/1999/xlink"><defs /><path d="M593 551Q597 538 596 520Q595 503 592.5 488.5Q590 474 587 461Q582 433 579.5 405.5Q577 378 585 343Q600 277 587.0 219.0Q574 161 533.5 124.5Q493 88 427 88Q396 87 366.0 98.5Q336 110 293 145Q285 150 278 146Q287 138 298.0 129.0Q309 120 323 109Q371 75 413.5 69.5Q456 64 491.5 78.5Q527 93 553.0 118.0Q579 143 594 170Q608 194 612.0 223.0Q616 252 614.0 279.5Q612 307 608.0 328.5Q604 350 602 359Q601 363 601 364Q596 392 598.5 421.5Q601 451 605 476Q607 494 608.5 509.0Q610 524 608 533Q605 545 593 551Z" fill="#b55e19" stroke="none" transform="scale(1,-1) translate(0,-256)" /><path d="M507 409Q487 425 463.5 458.0Q440 491 416.5 530.0Q393 569 372.5 603.0Q352 637 338 656Q329 668 317.0 669.5Q305 671 296 665Q303 664 312.5 659.0Q322 654 330 642Q335 634 348.5 611.5Q362 589 377.5 561.5Q393 534 405.5 512.5Q418 491 422 486Q426 479 437.5 461.0Q449 443 463.0 424.5Q477 406 489 397Q495 393 501.0 396.0Q507 399 507 403Z" fill="#b55e19" stroke="none" transform="scale(1,-1) translate(0,-256)" /><path d="M373 420V421Q370 419 368 423Q366 425 352.5 443.0Q339 461 318.5 487.0Q298 513 277.0 540.5Q256 568 238.5 589.5Q221 611 215 618Q205 630 192.5 630.0Q180 630 170 623Q177 627 186.5 622.5Q196 618 201 613Q241 562 273.0 520.0Q305 478 324.5 451.5Q344 425 347 421Q354 411 361.0 413.0Q368 415 373 420Z" fill="#b55e19" stroke="none" transform="scale(1,-1) translate(0,-256)" /><path d="M299 366 298 367Q296 364 292 368Q290 370 275.5 383.5Q261 397 239.5 416.5Q218 436 196.0 456.0Q174 476 157.0 491.5Q140 507 135 512Q124 523 112.0 522.0Q100 521 92 513Q100 516 109.0 512.5Q118 509 123 504Q125 501 140.0 487.0Q155 473 175.0 453.5Q195 434 216.0 414.5Q237 395 252.0 380.5Q267 366 271 362Q280 354 286.5 357.0Q293 360 299 366Z" fill="#b55e19" stroke="none" transform="scale(1,-1) translate(0,-256)" /><path d="M243 296H242Q240 295 237 297Q235 298 217.5 309.5Q200 321 177.0 336.0Q154 351 135.0 363.0Q116 375 111 378Q101 384 91.0 380.5Q81 377 75 369Q84 373 92.5 371.0Q101 369 105 366Q108 364 123.5 353.0Q139 342 158.5 328.0Q178 314 194.0 303.0Q210 292 215 289Q223 284 231.0 286.5Q239 289 243 296Z" fill="#b55e19" stroke="none" transform="scale(1,-1) translate(0,-256)" /><path d="M736 107Q727 112 722 107Q748 85 782.5 73.0Q817 61 857.5 67.5Q898 74 943 106Q967 123 982.0 137.0Q997 151 1010.5 165.5Q1024 180 1042.0 197.5Q1060 215 1090 239Q1098 246 1118.5 263.5Q1139 281 1160.0 299.5Q1181 318 1190 327Q1198 335 1198.0 346.0Q1198 357 1192 365Q1190 349 1169.0 330.5Q1148 312 1118 288Q1102 276 1084.5 262.0Q1067 248 1050 233Q1026 211 1012.0 197.0Q998 183 987.0 171.5Q976 160 960 145Q927 114 893.0 99.0Q859 84 836 82Q817 80 803.5 81.0Q790 82 775.0 88.5Q760 95 736 107Z" fill="#b55e19" stroke="none" transform="scale(1,-1) translate(0,-256)" /><path d="M1023 294Q1023 294 1023.0 294.0Q1023 294 1024 294Q1023 296 1025 298Q1080 356 1121.5 401.5Q1163 447 1180 467Q1189 478 1186.5 491.0Q1184 504 1174 512Q1177 499 1173.0 489.5Q1169 480 1164 475Q1162 472 1148.0 456.5Q1134 441 1114.0 419.5Q1094 398 1073.5 376.5Q1053 355 1038.0 339.0Q1023 323 1020 320Q1012 312 1015.0 305.0Q1018 298 1023 294Z" fill="#b55e19" stroke="none" transform="scale(1,-1) translate(0,-256)" /><path d="M968 364Q968 364 968.0 364.5Q968 365 968 365Q967 368 969 371Q971 373 983.5 391.0Q996 409 1014.5 435.0Q1033 461 1052.5 489.0Q1072 517 1088.0 540.5Q1104 564 1110 575Q1117 588 1112.5 600.5Q1108 613 1097 621Q1101 598 1093 583Q1091 580 1078.0 560.5Q1065 541 1046.5 515.0Q1028 489 1009.5 462.5Q991 436 977.5 416.5Q964 397 961 392Q954 381 957.5 375.0Q961 369 966 365Q967 364 968 364Z" fill="#b55e19" stroke="none" transform="scale(1,-1) translate(0,-256)" /><path d="M893 418 894 419Q892 421 893 424Q894 426 903.0 444.5Q912 463 925.0 490.0Q938 517 951.0 544.5Q964 572 974.0 593.5Q984 615 987 622Q992 633 987.0 644.0Q982 655 973 661Q976 654 976.0 645.0Q976 636 973 631Q971 628 962.5 609.5Q954 591 941.5 565.0Q929 539 916.5 512.5Q904 486 894.5 467.0Q885 448 883 444Q878 434 882.0 428.5Q886 423 893 418Z" fill="#b55e19" stroke="none" transform="scale(1,-1) translate(0,-256)" /><path d="M759 407Q759 409 759 416Q759 434 755.5 466.5Q752 499 735 524Q737 509 738.5 481.0Q740 453 740.5 427.0Q741 401 741 391Q741 382 750.0 381.5Q759 381 759 393Z" fill="#b55e19" stroke="none" transform="scale(1,-1) translate(0,-256)" /></svg>