<?xml version="1.0" encoding="utf-8" ?>
<svg baseProfile="full" height="256" version="1.1" width="256" xmlns="http://www.w3.org/2000/svg" xmlns:ev="http://www.w3.org/2001/xml-events" xmlns:xlink="http://www.w3.org/1999/xlink"><defs /><path d="M495 408Q452 365 452.0 305.5Q452 246 493 191Q497 186 502.0 190.0Q507 194 503 200Q484 234 482.0 287.0Q480 340 504 393Q512 390 518.0 396.0Q524 402 524 410Q524 450 529.5 480.0Q535 510 563 532Q573 540 584.5 539.5Q596 539 599 522H609Q609 528 608 533Q605 545 591.5 552.0Q578 559 564 553Q537 541 525.0 515.0Q513 489 510.5 461.5Q508 434 507 417Q507 411 507 409Q502 414 496 420Z" fill="#faa700" stroke="none" transform="scale(1,-1) translate(0,-256)" /><path d="M383 414Q390 419 391.5 427.0Q393 435 389 441Q388 443 379.0 461.0Q370 479 357.0 504.0Q344 529 331.5 554.5Q319 580 310.0 598.5Q301 617 299 621Q291 638 303.5 648.5Q316 659 327 651Q332 647 333.0 651.5Q334 656 333 661Q320 673 305.5 669.0Q291 665 283.0 652.0Q275 639 280 625Q283 618 293.0 596.5Q303 575 316.5 547.5Q330 520 342.5 493.0Q355 466 364.0 447.5Q373 429 374 427Q375 423 372.5 421.0Q370 419 368 423Q366 425 352.0 443.5Q338 462 318 487Q324 467 331.5 448.5Q339 430 347 418Q357 406 368.0 408.0Q379 410 383 414Z" fill="#faa700" stroke="none" transform="scale(1,-1) translate(0,-256)" /><path d="M308 362Q314 367 314.0 376.5Q314 386 307 395Q305 398 292.0 415.5Q279 433 261.0 458.5Q243 484 224.5 510.0Q206 536 192.5 555.0Q179 574 175 579Q167 590 171.0 600.0Q175 610 185.0 614.5Q195 619 203 613Q210 608 215 618Q215 618 215 618Q201 634 184.0 629.5Q167 625 157.5 609.5Q148 594 158 578Q164 567 179.5 543.5Q195 520 214.5 492.0Q234 464 252.5 437.5Q271 411 284.0 393.5Q297 376 298 373Q301 369 298.5 366.5Q296 364 292 368Q290 370 270.0 388.0Q250 406 225 429Q238 407 250.5 388.5Q263 370 274 360Q284 350 294.0 354.0Q304 358 308 362Z" fill="#faa700" stroke="none" transform="scale(1,-1) translate(0,-256)" /><path d="M253 292Q257 297 258.0 305.0Q259 313 252 322Q249 326 233.5 341.5Q218 357 197.5 379.0Q177 401 156.5 422.0Q136 443 121.5 458.0Q107 473 105 476Q92 490 101.5 502.0Q111 514 120 510Q129 507 131 516Q115 527 101.0 520.0Q87 513 81.5 498.0Q76 483 87 470Q104 449 145.0 404.0Q186 359 242 301Q245 298 242.5 296.0Q240 294 237 297Q235 298 212.0 313.0Q189 328 164 344Q179 325 193.0 310.0Q207 295 218 288Q230 280 239.5 283.0Q249 286 253 292Z" fill="#faa700" stroke="none" transform="scale(1,-1) translate(0,-256)" /><path d="M536 119Q493 93 456.5 88.0Q420 83 390.0 93.5Q360 104 336 123Q294 155 268.0 184.0Q242 213 215 234Q210 237 192.5 252.0Q175 267 153.0 286.0Q131 305 113.5 321.0Q96 337 91 343Q83 352 92.0 362.0Q101 372 115 364Q124 360 124 370Q114 376 111 378Q97 386 85.0 378.0Q73 370 69.0 355.5Q65 341 77 329Q86 320 106.5 302.0Q127 284 147.5 266.5Q168 249 176 242Q206 218 224.5 200.0Q243 182 256.5 168.0Q270 154 285.0 140.0Q300 126 323 109Q367 77 407.0 70.5Q447 64 481.0 75.0Q515 86 541 107Z" fill="#faa700" stroke="none" transform="scale(1,-1) translate(0,-256)" /><path d="M768 388Q774 389 792.0 412.0Q810 435 844.5 488.5Q879 542 936 635Q945 650 954.5 650.5Q964 651 969.5 643.5Q975 636 970 627Q968 623 972.5 618.5Q977 614 984 614Q986 619 987 622Q993 637 983.5 650.5Q974 664 958.0 667.0Q942 670 929 653Q915 635 894.5 600.5Q874 566 850.0 527.5Q826 489 802.5 456.0Q779 423 759 407Q759 409 759 416Q759 432 756.5 459.5Q754 487 742.0 513.5Q730 540 702 552Q688 557 675.0 550.5Q662 544 659 531Q657 522 658.5 507.5Q660 493 662 474Q665 449 667.5 420.0Q670 391 666 362Q665 361 664 357Q662 348 658.0 326.5Q654 305 652.5 277.5Q651 250 654.5 221.0Q658 192 672 168Q692 133 729.0 101.5Q766 70 817 66Q820 70 824 75Q765 81 727.0 119.5Q689 158 675.5 216.0Q662 274 677 341Q686 380 682.5 425.0Q679 470 674 504Q674 508 673.5 511.5Q673 515 672 519Q670 534 683.5 538.5Q697 543 708 531Q726 511 736.0 480.5Q746 450 742 410Q740 399 743.5 389.5Q747 380 752 370Q759 354 764.5 333.5Q770 313 767.0 281.0Q764 249 744 199Q742 193 746.5 190.5Q751 188 756 193Q786 231 795.0 282.0Q804 333 768 388Z" fill="#faa700" stroke="none" transform="scale(1,-1) translate(0,-256)" /><path d="M881 440Q875 420 888.5 411.0Q902 402 912 415Q917 420 932.0 439.5Q947 459 967.0 484.5Q987 510 1007.0 535.0Q1027 560 1042.0 579.0Q1057 598 1060 603Q1072 618 1087.0 612.0Q1102 606 1094 584Q1090 574 1094.5 570.0Q1099 566 1105 566Q1108 572 1110 575Q1119 591 1110.0 606.5Q1101 622 1084.0 626.5Q1067 631 1053 615Q1046 608 1029.0 586.5Q1012 565 990.5 537.5Q969 510 949.0 484.0Q929 458 915.0 440.0Q901 422 900 420Q897 416 894.5 418.0Q892 420 893 424Q894 426 904.0 447.0Q914 468 928 496Q908 473 894.5 456.5Q881 440 881 440Z" fill="#faa700" stroke="none" transform="scale(1,-1) translate(0,-256)" /><path d="M960 390Q952 377 956.0 366.5Q960 356 971.0 353.5Q982 351 993 361Q999 367 1015.0 381.5Q1031 396 1051.0 415.0Q1071 434 1090.5 452.0Q1110 470 1124.0 482.5Q1138 495 1140 497Q1152 508 1163.5 501.5Q1175 495 1171 481Q1169 474 1172.5 470.5Q1176 467 1181 467Q1192 481 1185.5 496.5Q1179 512 1163.5 518.0Q1148 524 1133 509Q1127 505 1110.0 489.5Q1093 474 1071.0 453.5Q1049 433 1028.0 413.5Q1007 394 992.5 380.5Q978 367 976 365Q972 361 969.5 363.5Q967 366 969 371Q971 373 985.0 392.5Q999 412 1018 439Q994 419 977.0 404.5Q960 390 960 390Z" fill="#faa700" stroke="none" transform="scale(1,-1) translate(0,-256)" /><path d="M1019 319Q1008 309 1009.5 298.5Q1011 288 1020.0 284.0Q1029 280 1042 288Q1046 291 1063.5 302.0Q1081 313 1102.0 326.5Q1123 340 1139.0 350.0Q1155 360 1157 362Q1169 370 1178.0 360.0Q1187 350 1180 338Q1180 338 1182.5 333.5Q1185 329 1188 325Q1189 326 1190 327Q1201 338 1197.5 352.5Q1194 367 1182.0 375.0Q1170 383 1156 375Q1151 373 1132.0 360.5Q1113 348 1089.5 333.0Q1066 318 1048.5 306.5Q1031 295 1029 294Q1027 292 1024.5 294.0Q1022 296 1025 298Q1050 325 1075 351Q1053 338 1036.0 328.5Q1019 319 1019 319Z" fill="#faa700" stroke="none" transform="scale(1,-1) translate(0,-256)" /></svg>