<?xml version="1.0" encoding="utf-8" ?>
<svg baseProfile="full" height="256" version="1.1" width="256" xmlns="http://www.w3.org/2000/svg" xmlns:ev="http://www.w3.org/2001/xml-events" xmlns:xlink="http://www.w3.org/1999/xlink"><defs /><path d="M507 409Q487 425 463.5 458.0Q440 491 416.5 530.0Q393 569 372.5 603.0Q352 637 338 656Q325 673 309.0 670.0Q293 667 283.5 653.5Q274 640 280 625Q283 618 293.0 596.5Q303 575 316.5 547.5Q330 520 342.5 493.0Q355 466 364.0 447.5Q373 429 374 427Q375 423 372.5 421.0Q370 419 368 423Q366 425 352.5 443.0Q339 461 318.5 487.0Q298 513 277.0 540.5Q256 568 238.5 589.5Q221 611 215 618Q201 634 184.0 629.5Q167 625 157.5 609.5Q148 594 158 578Q164 567 179.5 543.5Q195 520 214.5 492.0Q234 464 252.5 437.5Q271 411 284.0 393.5Q297 376 298 373Q301 369 298.5 366.5Q296 364 292 368Q290 370 275.5 383.5Q261 397 239.5 416.5Q218 436 196.0 456.0Q174 476 157.0 491.5Q140 507 135 512Q119 527 103.5 521.0Q88 515 82.0 499.5Q76 484 87 470Q104 449 145.0 404.0Q186 359 242 301Q245 298 242.5 296.0Q240 294 237 297Q235 298 217.5 309.5Q200 321 177.0 336.0Q154 351 135.0 363.0Q116 375 111 378Q97 386 85.0 378.0Q73 370 69.0 355.5Q65 341 77 329Q86 320 106.5 302.0Q127 284 147.5 266.5Q168 249 176 242Q206 218 224.5 200.0Q243 182 256.5 168.0Q270 154 285.0 140.0Q300 126 323 109Q371 75 413.5 69.5Q456 64 491.5 78.5Q527 93 553.0 118.0Q579 143 594 170Q609 197 612.5 228.5Q616 260 613.5 289.5Q611 319 606.5 339.5Q602 360 601 364Q596 397 599.5 430.5Q603 464 607.0 491.5Q611 519 608 533Q605 545 591.5 552.0Q578 559 564 553Q542 544 530.0 524.0Q518 504 513.5 481.0Q509 458 508.5 438.5Q508 419 507 409Z" fill="#ffca28" stroke="none" transform="scale(1,-1) translate(0,-256)" /><path d="M759 407Q779 423 802.5 456.0Q826 489 850.0 527.5Q874 566 894.5 600.5Q915 635 929 653Q942 670 958.0 667.0Q974 664 983.5 650.5Q993 637 987 622Q984 615 974.0 593.5Q964 572 951.0 544.5Q938 517 925.0 490.0Q912 463 903.0 444.5Q894 426 893 424Q892 420 894.5 418.0Q897 416 900 420Q901 422 915.0 440.0Q929 458 949.0 484.0Q969 510 990.5 537.5Q1012 565 1029.0 586.5Q1046 608 1053 615Q1067 631 1084.0 626.5Q1101 622 1110.0 606.5Q1119 591 1110 575Q1104 564 1088.0 540.5Q1072 517 1052.5 489.0Q1033 461 1014.5 435.0Q996 409 983.5 391.0Q971 373 969 371Q967 366 969.5 363.5Q972 361 976 365Q978 367 992.5 380.5Q1007 394 1028.0 413.5Q1049 433 1071.0 453.5Q1093 474 1110.0 489.5Q1127 505 1133 509Q1148 524 1163.5 518.0Q1179 512 1185.5 496.5Q1192 481 1180 467Q1163 447 1121.5 401.5Q1080 356 1025 298Q1022 296 1024.5 294.0Q1027 292 1029 294Q1031 295 1048.5 306.5Q1066 318 1089.5 333.0Q1113 348 1132.0 360.5Q1151 373 1156 375Q1170 383 1182.0 375.0Q1194 367 1197.5 352.5Q1201 338 1190 327Q1181 318 1160.0 299.5Q1139 281 1118.5 263.5Q1098 246 1090 239Q1060 215 1042.0 197.5Q1024 180 1010.5 165.5Q997 151 982.0 137.0Q967 123 943 106Q895 72 852.5 66.5Q810 61 775.0 75.5Q740 90 713.5 115.5Q687 141 672 168Q657 195 653.5 227.0Q650 259 653.0 288.0Q656 317 660.5 337.5Q665 358 666 362Q671 395 667.5 428.5Q664 462 660.0 489.5Q656 517 659 531Q662 544 675.0 550.5Q688 557 702 552Q725 542 737.0 522.0Q749 502 753.5 479.0Q758 456 758.5 436.5Q759 417 759 407Z" fill="#ffca28" stroke="none" transform="scale(1,-1) translate(0,-256)" /></svg>