<?xml version="1.0" encoding="utf-8" ?>
<svg baseProfile="full" height="256" version="1.1" width="256" xmlns="http://www.w3.org/2000/svg" xmlns:ev="http://www.w3.org/2001/xml-events" xmlns:xlink="http://www.w3.org/1999/xlink"><defs /><path d="M899 240Q901 276 890.0 311.5Q879 347 857 377Q847 390 834.0 402.5Q821 415 823 433Q824 440 830.0 454.5Q836 469 844.0 482.0Q852 495 860 496Q865 497 869.5 494.0Q874 491 877 487Q943 419 956 326Q958 311 957.5 296.0Q957 281 952 267Q947 253 935.5 242.0Q924 231 909 230Q904 229 902 231Q899 233 899 240Z" fill="#808080" stroke="none" transform="scale(1,-1) translate(0,-256)" /><path d="M712 649Q716 662 724.0 676.0Q732 690 745 703Q752 709 765.0 713.5Q778 718 789 705Q796 699 810.5 683.5Q825 668 842 645Q849 635 850.5 625.5Q852 616 846 609Q844 607 828.5 590.5Q813 574 794 563Q787 559 777.0 558.5Q767 558 755 568Q744 576 733.5 592.0Q723 608 716.5 624.0Q710 640 712 649Z" fill="#808080" stroke="none" transform="scale(1,-1) translate(0,-256)" /><path d="M993 75Q984 77 982.0 89.5Q980 102 984.0 118.5Q988 135 993.5 149.5Q999 164 1005 170Q1013 179 1024.0 183.0Q1035 187 1049 176Q1058 169 1059.5 156.0Q1061 143 1059 133Q1056 122 1045.0 107.0Q1034 92 1020.0 81.5Q1006 71 993 75Z" fill="#808080" stroke="none" transform="scale(1,-1) translate(0,-256)" /></svg>