<?xml version="1.0" encoding="utf-8" ?>
<svg baseProfile="full" height="256" version="1.1" width="256" xmlns="http://www.w3.org/2000/svg" xmlns:ev="http://www.w3.org/2001/xml-events" xmlns:xlink="http://www.w3.org/1999/xlink"><defs /><path d="M866 607Q875 616 875.0 628.0Q875 640 866 649L788 727Q779 736 767.0 736.0Q755 736 746 727L261 242Q252 233 252.0 220.5Q252 208 261 199L338 122Q347 113 359.5 113.0Q372 113 381 122Z" fill="#616161" stroke="none" transform="scale(1,-1) translate(0,-256)" /><path d="M599 394 822 605Q822 605 838.5 587.0Q855 569 878.0 542.0Q901 515 922.0 488.0Q943 461 953 443Q970 409 980.0 373.5Q990 338 995 301Q997 286 996.5 267.5Q996 249 1003 236Q1010 221 1021.0 219.0Q1032 217 1046 208Q1075 189 1080.5 162.0Q1086 135 1073 101Q1067 86 1044.0 58.5Q1021 31 991.5 1.5Q962 -28 935.0 -50.5Q908 -73 892 -79Q858 -93 830.0 -86.5Q802 -80 786 -52Q777 -38 775.0 -27.5Q773 -17 757 -9Q744 -3 725.5 -3.0Q707 -3 693 -2Q655 3 619.5 13.0Q584 23 551 41Q533 51 505.5 72.0Q478 93 451.5 116.0Q425 139 407.0 155.0Q389 171 389 171Z" fill="#616161" stroke="none" transform="scale(1,-1) translate(0,-256)" /><path d="M1189 -132Q1209 -112 1191 -78L1062 119Q1051 131 1034.0 131.5Q1017 132 1006 120L868 -18Q856 -30 856.5 -46.5Q857 -63 869 -74L1066 -203Q1097 -224 1119 -202Z" fill="#616161" stroke="none" transform="scale(1,-1) translate(0,-256)" /></svg>