<?xml version="1.0" encoding="utf-8" ?>
<svg baseProfile="full" height="256" version="1.1" width="256" xmlns="http://www.w3.org/2000/svg" xmlns:ev="http://www.w3.org/2001/xml-events" xmlns:xlink="http://www.w3.org/1999/xlink"><defs /><path d="M296 218Q340 218 374.0 235.0Q408 252 432.0 274.0Q456 296 468 312Q460 311 450.5 311.0Q441 311 429 311Q410 311 395 311Q363 313 326.5 326.5Q290 340 261 353Q242 362 231 366Q216 371 195 371Q171 371 151.5 364.5Q132 358 127 348Q112 321 127 292Q142 264 180.0 245.0Q218 226 273 220Q284 218 296 218Z" fill="#263238" stroke="none" transform="scale(1,-1) translate(0,-256)" /><path d="M273 -62Q273 -62 273.5 -51.0Q274 -40 274.5 -28.5Q275 -17 275 -16Q274 -15 284.0 -17.0Q294 -19 307.0 -22.5Q320 -26 330.0 -28.5Q340 -31 340 -31Q340 -31 327.5 -37.5Q315 -44 301 -51Q293 -55 285.0 -58.5Q277 -62 273 -62Z" fill="#263238" stroke="none" transform="scale(1,-1) translate(0,-256)" /><path d="M532 278Q525 271 533 264Q540 257 547 264Q597 319 648 325Q659 326 658 336Q656 347 646 345Q587 339 532 278Z" fill="#263238" stroke="none" transform="scale(1,-1) translate(0,-256)" /><path d="M562 238Q559 234 559 231Q559 227 563 224Q570 217 577 224Q630 279 682 286Q692 288 690 298Q689 308 679 307Q620 298 562 238Z" fill="#263238" stroke="none" transform="scale(1,-1) translate(0,-256)" /><path d="M597 199Q594 195 594 191Q594 188 598 184Q605 177 612 185Q632 206 660 225Q696 248 721 248Q731 248 731 259Q731 269 721 269Q690 269 649 242Q618 222 597 199Z" fill="#263238" stroke="none" transform="scale(1,-1) translate(0,-256)" /><path d="M631 156Q623 149 630 142Q637 134 645 141Q704 194 761 208Q771 210 769 220Q766 230 756 228Q694 213 631 156Z" fill="#263238" stroke="none" transform="scale(1,-1) translate(0,-256)" /></svg>