<?xml version="1.0" encoding="utf-8" ?>
<svg baseProfile="full" height="256" version="1.1" width="256" xmlns="http://www.w3.org/2000/svg" xmlns:ev="http://www.w3.org/2001/xml-events" xmlns:xlink="http://www.w3.org/1999/xlink"><defs /><path d="M212 249Q194 256 180.0 264.5Q166 273 145 297Q141 301 135.5 309.5Q130 318 123 313Q117 309 122 295Q133 268 155 251Q181 232 213 233Q216 233 221.0 234.0Q226 235 226 238Q226 244 221.5 246.0Q217 248 212 249Z" fill="#f29657" stroke="none" transform="scale(1,-1) translate(0,-256)" /><path d="M369 105Q332 98 305 76Q299 71 291.5 60.0Q284 49 287 38Q290 43 294.5 48.5Q299 54 303 57Q309 62 314.0 66.0Q319 70 327 72Q344 78 357.0 80.0Q370 82 388 85Q390 85 397.0 87.0Q404 89 402 97Q400 106 387.5 106.0Q375 106 369 105Z" fill="#f29657" stroke="none" transform="scale(1,-1) translate(0,-256)" /><path d="M949 -98Q897 -110 851.0 -107.5Q805 -105 779.5 -96.5Q754 -88 761 -82Q766 -79 797.0 -80.0Q828 -81 872 -75Q905 -71 935.0 -63.0Q965 -55 985.0 -51.0Q1005 -47 1009 -57Q1010 -61 1009.5 -67.5Q1009 -74 996.0 -82.0Q983 -90 949 -98Z" fill="#f29657" stroke="none" transform="scale(1,-1) translate(0,-256)" /></svg>