<?xml version="1.0" encoding="utf-8" ?>
<svg baseProfile="full" height="256" version="1.1" width="256" xmlns="http://www.w3.org/2000/svg" xmlns:ev="http://www.w3.org/2001/xml-events" xmlns:xlink="http://www.w3.org/1999/xlink"><defs /><path d="M858 645Q860 637 854.0 630.0Q848 623 848 623H421Q421 623 415.0 630.0Q409 637 408.5 647.0Q408 657 425 666Q440 674 468.5 676.5Q497 679 530.5 676.5Q564 674 595.5 667.0Q627 660 649 649Q649 649 673.0 659.5Q697 670 735.5 678.0Q774 686 819 679Q833 676 844.0 669.0Q855 662 858 645Z" fill="#82aec0" stroke="none" transform="scale(1,-1) translate(0,-256)" /><path d="M843 414Q856 414 856 427V612Q856 625 843 625Q843 625 813.0 627.5Q783 630 733.0 632.0Q683 634 625 634Q537 634 483.0 629.5Q429 625 429 625Q416 625 416 612V427Q416 414 429 414Q429 414 455.5 416.0Q482 418 526.0 420.5Q570 423 622 423Q674 423 725.0 420.5Q776 418 809.5 416.0Q843 414 843 414Z" fill="#82aec0" stroke="none" transform="scale(1,-1) translate(0,-256)" /></svg>