<?xml version="1.0" encoding="utf-8" ?>
<svg baseProfile="full" height="256" version="1.1" width="256" xmlns="http://www.w3.org/2000/svg" xmlns:ev="http://www.w3.org/2001/xml-events" xmlns:xlink="http://www.w3.org/1999/xlink"><defs /><path d="M1073 751 995 365Q995 365 995.0 365.0Q995 365 995 365Q994 360 990 361Q985 362 986 367L1072 751Z" fill="#6d4c41" stroke="none" transform="scale(1,-1) translate(0,-256)" /><path d="M1078 754 1075 755 1069 757 982 368Q980 359 989 357Q998 355 1000 364Z" fill="#6d4c41" stroke="none" transform="scale(1,-1) translate(0,-256)" /><path d="M1018 474Q1014 474 1011.5 475.5Q1009 477 1007 479L998 440Q1002 440 1006.5 440.0Q1011 440 1016 440L1023 477Q1021 475 1018 474Z" fill="#6d4c41" stroke="none" transform="scale(1,-1) translate(0,-256)" /><path d="M673 751Q671 748 673 745Q674 743 679 744Q681 745 685.0 746.0Q689 747 696 747Q703 747 707.0 745.5Q711 744 713 743Q718 742 720 744Q722 747 720 749Q718 752 712.5 755.5Q707 759 697 760Q686 760 680.5 757.0Q675 754 673 751Z" fill="#6d4c41" stroke="none" transform="scale(1,-1) translate(0,-256)" /><path d="M558 754Q557 751 558 748Q560 746 564 747Q566 748 570.5 749.5Q575 751 582 750Q589 750 593.0 748.5Q597 747 599 746Q603 745 605 747Q607 750 605 752Q603 755 597.5 759.0Q592 763 582 763Q572 763 566.5 760.0Q561 757 558 754Z" fill="#6d4c41" stroke="none" transform="scale(1,-1) translate(0,-256)" /></svg>