<?xml version="1.0" encoding="utf-8" ?>
<svg baseProfile="full" height="256" version="1.1" width="256" xmlns="http://www.w3.org/2000/svg" xmlns:ev="http://www.w3.org/2001/xml-events" xmlns:xlink="http://www.w3.org/1999/xlink"><defs /><path d="M1047 463Q1041 462 1032 463Q1024 464 1018 468Q1025 470 1033 469Q1042 467 1047 463Z" fill="#eda600" stroke="none" transform="scale(1,-1) translate(0,-256)" /><path d="M1049 486Q1043 483 1035 483Q1027 483 1021 486Q1027 489 1035 489Q1043 489 1049 486Z" fill="#eda600" stroke="none" transform="scale(1,-1) translate(0,-256)" /><path d="M1020 502Q1025 506 1034 509Q1042 511 1049 510Q1044 505 1035 503Q1026 501 1020 502Z" fill="#eda600" stroke="none" transform="scale(1,-1) translate(0,-256)" /><path d="M979 482Q981 483 983.5 484.0Q986 485 988 486Q992 488 995 491Q1002 497 1004 506L1005 507Q1004 507 1005 508Q1006 511 1009 511Q1011 511 1012 508L1014 504Q1017 500 1019 496Q1023 490 1024 489Q1027 486 1031 486Q1034 485 1037.0 488.0Q1040 491 1040 494Q1038 503 1034 511Q1030 519 1025.0 524.5Q1020 530 1010 532Q1021 533 1026.5 527.0Q1032 521 1037 513Q1042 506 1045 495Q1046 488 1041.0 483.5Q1036 479 1030 480Q1024 480 1020.0 484.5Q1016 489 1014 493Q1011 497 1009 501L1007 506Q1007 504 1009 505Q1010 505 1010 506Q1010 506 1010 506V505V504Q1007 494 998.0 487.0Q989 480 979 482Z" fill="#eda600" stroke="none" transform="scale(1,-1) translate(0,-256)" /></svg>