<?xml version="1.0" encoding="utf-8" ?>
<svg baseProfile="full" height="256" version="1.1" width="256" xmlns="http://www.w3.org/2000/svg" xmlns:ev="http://www.w3.org/2001/xml-events" xmlns:xlink="http://www.w3.org/1999/xlink"><defs /><path d="M996 177Q999 173 1003 176Q1006 178 1004 182Q949 259 878 309Q817 352 720 390Q720 390 721 391Q722 395 719 397Q718 399 715 399Q708 399 707 393Q707 386 716 382Q813 344 873 302Q943 253 996 177Z" fill="#87cdde" stroke="none" transform="scale(1,-1) translate(0,-256)" /><path d="M906 152Q910 150 912 155Q914 159 909 160Q894 167 800 255Q714 337 662 392Q662 392 662 393Q662 394 660 396L658 397L656 399Q653 401 650 398Q648 397 648 395Q648 394 650 392Q702 335 794 249Q889 159 906 152Z" fill="#87cdde" stroke="none" transform="scale(1,-1) translate(0,-256)" /><path d="M927 190Q928 186 932 187Q937 189 935 193Q922 239 888 290Q879 304 875 311Q872 315 868 313Q865 310 867 306Q871 299 881 285Q914 235 927 190Z" fill="#87cdde" stroke="none" transform="scale(1,-1) translate(0,-256)" /><path d="M1075 650Q1077 651 1077 652Q1078 654 1077 656Q1076 660 1071 658Q840 570 636 365Q633 362 636 359Q637 357 639 357Q641 357 642 359Q845 562 1075 650Z" fill="#87cdde" stroke="none" transform="scale(1,-1) translate(0,-256)" /><path d="M1126 595Q1129 598 1126 602Q1125 603 1123 603Q1122 604 1120 602Q907 430 645 356Q643 355 643 354Q642 353 642 350Q644 346 648 347Q911 421 1126 595Z" fill="#87cdde" stroke="none" transform="scale(1,-1) translate(0,-256)" /><path d="M954 656Q956 657 956 659Q956 661 954 662Q951 666 948 663Q892 612 852 545Q851 543 851 542Q852 540 854 539Q858 537 860 540Q899 607 954 656Z" fill="#87cdde" stroke="none" transform="scale(1,-1) translate(0,-256)" /><path d="M1107 635Q1110 638 1107 641Q1106 643 1104 643Q1103 643 1101 642Q1025 578 1003 514Q1003 512 1003 511Q1004 510 1006 509Q1010 507 1012 512Q1033 573 1107 635Z" fill="#87cdde" stroke="none" transform="scale(1,-1) translate(0,-256)" /><path d="M895 445Q900 446 899 451Q898 455 894 454Q811 437 750 460Q748 460 746 460Q745 459 744 457Q742 453 747 451Q810 428 895 445Z" fill="#87cdde" stroke="none" transform="scale(1,-1) translate(0,-256)" /><path d="M272 199Q271 197 271 196Q271 194 273 193Q276 190 279 193Q335 257 407 303Q454 332 560 382Q568 386 568 393Q567 399 560 399Q557 399 556 397Q553 395 554 391Q555 390 555 390Q449 340 403 310Q330 264 272 199Z" fill="#87cdde" stroke="none" transform="scale(1,-1) translate(0,-256)" /><path d="M406 195Q402 193 404 189Q406 187 407 187Q409 187 411 188Q481 235 625 392Q627 394 627 395Q627 397 625 398Q622 401 619 399L617 397L615 396Q612 394 613 392Q474 241 406 195Z" fill="#87cdde" stroke="none" transform="scale(1,-1) translate(0,-256)" /><path d="M329 187Q328 185 329 183Q329 182 332 181Q336 180 337 184Q343 204 408 276Q447 318 454 331Q457 335 453 337Q449 339 447 336Q440 324 401 282Q335 209 329 187Z" fill="#87cdde" stroke="none" transform="scale(1,-1) translate(0,-256)" /><path d="M201 679Q197 681 195 676Q194 672 198 671Q432 582 633 380Q634 378 636 378Q638 378 639 380Q642 383 639 386Q437 589 201 679Z" fill="#87cdde" stroke="none" transform="scale(1,-1) translate(0,-256)" /><path d="M163 587Q161 588 160 588Q158 588 157 586Q154 583 158 580Q256 500 379 449Q461 415 627 368Q629 368 631 368Q632 369 633 371Q634 376 629 377Q464 423 382 457Q261 508 163 587Z" fill="#87cdde" stroke="none" transform="scale(1,-1) translate(0,-256)" /><path d="M315 677Q312 680 309 676Q307 672 310 670Q362 635 382 582Q384 578 388 579Q392 581 390 585Q370 641 315 677Z" fill="#87cdde" stroke="none" transform="scale(1,-1) translate(0,-256)" /><path d="M198 637Q196 638 194 638Q193 638 191 636Q188 633 192 630Q250 582 277 501Q279 497 283 498Q285 499 286 500Q287 502 286 504Q258 587 198 637Z" fill="#87cdde" stroke="none" transform="scale(1,-1) translate(0,-256)" /><path d="M329 554Q325 555 323 551Q322 547 326 545Q348 535 397 508Q494 454 527 453Q531 453 531 457Q532 462 527 462Q496 463 401 516Q353 543 329 554Z" fill="#87cdde" stroke="none" transform="scale(1,-1) translate(0,-256)" /></svg>