<?xml version="1.0" encoding="utf-8" ?>
<svg baseProfile="full" height="256" version="1.1" width="256" xmlns="http://www.w3.org/2000/svg" xmlns:ev="http://www.w3.org/2001/xml-events" xmlns:xlink="http://www.w3.org/1999/xlink"><defs /><path d="M1052 394Q1070 376 1061.5 358.5Q1053 341 1035 342H995Q987 342 986 334Q975 220 902 132Q897 125 903 120L932 92Q944 79 937.5 60.5Q931 42 905 42Q901 42 899 45L864 79Q858 86 852 80Q764 8 650 -3Q642 -4 642 -12V-52Q642 -69 624.5 -77.5Q607 -86 588 -68Q585 -65 586 -61V-12Q585 -4 577 -3Q464 8 376 80Q369 86 363 79L335 51Q323 39 304.5 45.5Q286 52 286 78Q285 81 288 84L323 119Q330 124 324 131Q252 219 241 333Q239 341 231 341H192Q174 341 166.0 358.5Q158 376 176 394Q179 397 182 397H232Q240 398 242 406Q253 519 325 607Q330 614 324 619L296 648Q283 660 289.5 678.5Q296 697 322 697Q326 697 329 694L363 660Q369 653 376 659Q464 731 577 742Q585 744 586 752V791Q586 809 603.5 817.0Q621 825 639 807Q642 804 642 800V751Q642 743 650 741Q764 730 852 658Q858 653 864 659L892 687Q905 700 923.5 693.5Q942 687 942 661Q942 657 939 654L904 619Q898 614 903 607Q976 519 987 406Q988 398 996 397H1045Q1049 397 1052 394ZM642 686Q642 686 642.0 669.5Q642 653 642.0 629.0Q642 605 642.0 581.0Q642 557 642.0 540.5Q642 524 643 525Q643 517 650 515Q672 509 692 498Q698 493 704 499L818 613Q818 613 818.5 613.5Q819 614 819 614Q824 621 817 627Q744 684 652 695Q652 695 651 695Q642 695 642 686ZM410 627Q410 627 409 626Q403 619 410 613L524 499Q529 494 535 498Q555 510 577 515Q585 517 585 525V686Q585 686 585.0 686.5Q585 687 585 687Q584 696 574 695Q483 684 410 627ZM356 573Q299 500 288 409Q288 408 288 407Q288 398 298 398H458Q466 398 467 406Q473 428 485 448Q490 454 484 459L370 574Q370 574 369.5 574.0Q369 574 369 574Q362 580 356 573ZM370 166Q370 166 381.5 177.5Q393 189 410.0 206.0Q427 223 444.0 240.0Q461 257 472.5 269.0Q484 281 484 281Q489 286 485 292Q473 312 467 334Q466 342 458 342H297Q297 342 296.5 342.0Q296 342 296 342Q286 341 287 332Q298 240 356 167Q356 166 357 166Q363 159 370 166ZM586 52V214Q586 221 578 223Q556 229 536 241Q530 245 525 240L410 125Q410 125 410.0 125.0Q410 125 409 124Q404 117 411 111Q484 54 575 43Q576 43 576 43Q586 43 586 52ZM614 266Q656 266 686.5 296.0Q717 326 717 369Q717 412 686.5 442.0Q656 472 614 472Q571 472 541.0 442.0Q511 412 511 369Q511 326 541.0 296.0Q571 266 614 266ZM817 111Q824 118 817 125L703 241Q698 245 692 242Q672 229 649 224Q642 222 642 214V52Q642 52 642.0 51.5Q642 51 642 51Q643 42 652 43Q744 54 817 111ZM872 166Q928 238 940 330Q940 330 940 331Q940 340 931 340H769Q762 340 760 333Q754 310 742 290Q738 284 743 279L857 165Q858 165 858.0 164.5Q858 164 858 164Q866 158 872 166ZM931 397Q940 398 940 408Q928 499 872 572Q871 572 871 573Q864 579 857 573L742 458Q737 453 741 447Q754 427 759 405Q761 397 768 397Z" fill="#fafafa" stroke="none" transform="scale(1,-1) translate(0,-256)" /></svg>