<?xml version="1.0" encoding="utf-8" ?>
<svg baseProfile="full" height="256" version="1.1" width="256" xmlns="http://www.w3.org/2000/svg" xmlns:ev="http://www.w3.org/2001/xml-events" xmlns:xlink="http://www.w3.org/1999/xlink"><defs /><path d="M622 6 673 -44Q673 -44 675.0 -56.5Q677 -69 678.0 -87.5Q679 -106 675.0 -123.0Q671 -140 658 -149Q632 -166 589.0 -177.0Q546 -188 463 -183Q430 -181 404.0 -164.0Q378 -147 361.0 -122.0Q344 -97 339.0 -71.5Q334 -46 343 -26L409 2L507 15L604 -2Z" fill="#000000" stroke="none" transform="scale(1,-1) translate(0,-256)" /><path d="M562 141 427 229 263 250Q263 250 258.5 268.0Q254 286 250.5 316.0Q247 346 249.0 382.0Q251 418 265 453Q280 493 302.5 519.5Q325 546 343.0 559.0Q361 572 361 572L485 501L621 304Z" fill="#000000" stroke="none" transform="scale(1,-1) translate(0,-256)" /><path d="M473.15745544433594 30.924026489257812 446.3678283691406 4.772369384765625 450.2746276855469 -16.181442260742188 554.1652069091797 -51.51930236816406 664.8160858154297 36.1546630859375 769.9327239990234 143.61993408203125 834.1738586425781 242.9334716796875Q834.1738586425781 242.9334716796875 823.619499206543 236.20380401611328Q813.0651397705078 229.47413635253906 794.8764724731445 220.529052734375Q776.6878051757812 211.58396911621094 754.5986022949219 205.51897430419922Q732.5093994140625 199.4539794921875 710.2534332275391 201.3645782470703Q691.9700317382812 202.8749542236328 672.8893508911133 208.94247436523438Q653.8086700439453 215.00999450683594 636.3794403076172 223.06664276123047Q618.9502105712891 231.123291015625 604.9590682983398 238.66775512695312Q590.9679260253906 246.21221923828125 582.4807510375977 251.2124786376953Q573.9935760498047 256.2127380371094 573.9935760498047 256.2127380371094L550.0517120361328 145.21200561523438Z" fill="#000000" stroke="none" transform="scale(1,-1) translate(0,-256)" /><path d="M908.6852416992188 -271.2869110107422 829.9567413330078 -354.7786102294922 745.6646118164062 -426.3719787597656 612.4869537353516 -480.43775939941406 600.7776794433594 -579.3361358642578 670.5643005371094 -589.9553833007812 792.8963470458984 -562.9299774169922 916.2424926757812 -496.62281799316406Q916.2424926757812 -496.62281799316406 923.7384414672852 -477.7226257324219Q931.2343902587891 -458.8224334716797 938.5015640258789 -428.45272064208984Q945.7687377929688 -398.0830078125 944.0154418945312 -363.58868408203125Q942.8028411865234 -334.5055389404297 934.1870498657227 -313.95245361328125Q925.5712585449219 -293.3993682861328 917.1282501220703 -282.3431396484375Q908.6852416992188 -271.2869110107422 908.6852416992188 -271.2869110107422Z" fill="#000000" stroke="none" transform="scale(1,-1) translate(0,-256)" /><path d="M270 111Q262 161 274.0 189.0Q286 217 305.5 229.5Q325 242 341.0 245.0Q357 248 357 248L512 198L558 2L473 13L357 -21Q357 -21 346.5 -16.0Q336 -11 320.5 2.5Q305 16 291.0 42.0Q277 68 270 111Z" fill="#000000" stroke="none" transform="scale(1,-1) translate(0,-256)" /><path d="M948 393 976 468 999 603 938 767Q947 768 973.5 766.5Q1000 765 1037 745Q1068 729 1086.0 706.0Q1104 683 1113.0 662.5Q1122 642 1124 633Q1128 619 1131.5 600.5Q1135 582 1135 582L1128 504L1088 393L1033 338Z" fill="#000000" stroke="none" transform="scale(1,-1) translate(0,-256)" /><path d="M1180 521Q1198 481 1201.5 435.5Q1205 390 1195 343Q1185 297 1177.0 279.5Q1169 262 1169 262L1133 272L1036 336L1093 380L1128 504L1135 581Q1140 577 1154.0 562.5Q1168 548 1180 521Z" fill="#000000" stroke="none" transform="scale(1,-1) translate(0,-256)" /><path d="M599 87Q603 97 593.5 125.0Q584 153 542 196Q500 239 438.5 257.5Q377 276 295 274Q237 272 200.5 258.0Q164 244 146.5 230.5Q129 217 129 217Q129 217 129.5 210.5Q130 204 130 198Q130 192 127.5 183.0Q125 174 125 174Q125 174 146.5 185.0Q168 196 218.5 207.0Q269 218 354 217Q405 217 444.0 201.5Q483 186 511.0 164.5Q539 143 557.5 123.0Q576 103 586.0 92.0Q596 81 599 87Z" fill="#000000" stroke="none" transform="scale(1,-1) translate(0,-256)" /><path d="M604 -2Q604 7 579.0 17.0Q554 27 511.0 30.5Q468 34 414 24Q359 15 324.0 -6.0Q289 -27 272.0 -44.5Q255 -62 255 -62Q255 -62 262.5 -67.5Q270 -73 274 -79Q279 -85 283.0 -91.5Q287 -98 287 -98Q287 -98 300.0 -84.0Q313 -70 343.0 -51.5Q373 -33 425 -19Q476 -6 516.0 -7.0Q556 -8 579.5 -10.0Q603 -12 604 -2Z" fill="#000000" stroke="none" transform="scale(1,-1) translate(0,-256)" /><path d="M194 631Q194 631 219.5 630.0Q245 629 288.5 620.5Q332 612 385 590Q439 568 480.5 530.0Q522 492 553.0 449.0Q584 406 605 368Q625 330 634.0 294.0Q643 258 643.0 233.5Q643 209 635 206Q627 202 623.5 215.5Q620 229 613.0 254.0Q606 279 590 312Q565 361 515.5 418.5Q466 476 402 520Q370 543 332.5 556.0Q295 569 262.0 575.0Q229 581 208.0 582.5Q187 584 187 584Q187 584 189.5 589.5Q192 595 193 605Q195 615 194.5 623.0Q194 631 194 631Z" fill="#000000" stroke="none" transform="scale(1,-1) translate(0,-256)" /><path d="M598 844Q600 850 612.0 847.5Q624 845 638 839Q660 829 687.5 807.0Q715 785 741.5 755.5Q768 726 787 691Q806 658 821.0 616.5Q836 575 844.5 532.0Q853 489 851 451Q848 400 844.5 374.5Q841 349 830 347Q820 344 819.5 366.5Q819 389 814 425Q811 449 805.5 487.0Q800 525 786.5 571.0Q773 617 749 665Q730 701 704.5 732.0Q679 763 654.0 787.5Q629 812 613.0 826.5Q597 841 598 844Z" fill="#000000" stroke="none" transform="scale(1,-1) translate(0,-256)" /><path d="M923 770Q927 773 937.0 768.5Q947 764 953 760Q970 747 988.0 712.5Q1006 678 1014 635Q1024 578 1012.0 523.5Q1000 469 983 431Q965 393 952.5 377.5Q940 362 933 365Q930 366 936.0 383.5Q942 401 951.0 430.5Q960 460 968.0 498.0Q976 536 977 577Q979 637 964.5 679.0Q950 721 936.0 744.5Q922 768 923 770Z" fill="#000000" stroke="none" transform="scale(1,-1) translate(0,-256)" /><path d="M1022 326Q1020 329 1042.0 350.0Q1064 371 1084 411Q1104 451 1112.5 485.5Q1121 520 1125.0 541.0Q1129 562 1133 563Q1141 563 1143.5 537.5Q1146 512 1140.5 475.0Q1135 438 1120 406Q1105 373 1083.0 353.0Q1061 333 1043.0 326.5Q1025 320 1022 326Z" fill="#000000" stroke="none" transform="scale(1,-1) translate(0,-256)" /></svg>