<?xml version="1.0" encoding="utf-8" ?>
<svg baseProfile="full" height="256" version="1.1" width="256" xmlns="http://www.w3.org/2000/svg" xmlns:ev="http://www.w3.org/2001/xml-events" xmlns:xlink="http://www.w3.org/1999/xlink"><defs /><path d="M510 299Q532 298 542.5 286.0Q553 274 553 257Q553 240 542.5 228.5Q532 217 512 217Q492 216 481.0 227.5Q470 239 469 253Q468 267 477.5 283.0Q487 299 510 299Z" fill="#3f4040" stroke="none" transform="scale(1,-1) translate(0,-256)" /><path d="M765 299Q804 295 803 255Q803 238 791.5 227.5Q780 217 764 217Q753 217 737.5 226.0Q722 235 721 258Q720 279 733.5 290.0Q747 301 765 299Z" fill="#3f4040" stroke="none" transform="scale(1,-1) translate(0,-256)" /></svg>