<?xml version="1.0" encoding="utf-8" ?>
<svg baseProfile="full" height="256" version="1.1" width="256" xmlns="http://www.w3.org/2000/svg" xmlns:ev="http://www.w3.org/2001/xml-events" xmlns:xlink="http://www.w3.org/1999/xlink"><defs /><path d="M533 -38V-1L738 -8V-36L648 -169H627Z" fill="#e59502" stroke="none" transform="scale(1,-1) translate(0,-256)" /><path d="M378 276Q382 274 381.5 263.0Q381 252 384 233Q387 214 391.5 197.0Q396 180 396 180L437 130Q437 130 421.0 128.5Q405 127 385 134Q369 140 355.5 154.5Q342 169 337 191Q330 227 340.0 245.5Q350 264 363.0 270.5Q376 277 378 276Z" fill="#e59502" stroke="none" transform="scale(1,-1) translate(0,-256)" /><path d="M899 278Q899 278 898.5 265.5Q898 253 896.5 236.5Q895 220 892.5 206.0Q890 192 886 187Q881 182 866.0 173.0Q851 164 838.0 157.0Q825 150 825 150Q825 150 834.0 143.0Q843 136 854.0 129.0Q865 122 872 122Q879 122 894.5 126.5Q910 131 925.0 146.0Q940 161 945 193Q950 224 940.5 243.5Q931 263 917.5 271.0Q904 279 899 278Z" fill="#e59502" stroke="none" transform="scale(1,-1) translate(0,-256)" /></svg>