<?xml version="1.0" encoding="utf-8" ?>
<svg baseProfile="full" height="256" version="1.1" width="256" xmlns="http://www.w3.org/2000/svg" xmlns:ev="http://www.w3.org/2001/xml-events" xmlns:xlink="http://www.w3.org/1999/xlink"><defs /><path d="M433 817Q446 828 462.0 831.0Q478 834 487 823Q495 812 489.5 798.5Q484 785 477 779Q472 774 462.0 766.5Q452 759 441.0 756.0Q430 753 421 763Q407 778 414.0 792.5Q421 807 433 817Z" fill="#50565c" stroke="none" transform="scale(1,-1) translate(0,-256)" /><path d="M326 677Q330 705 370 703Q408 701 408 671Q407 659 395.5 652.5Q384 646 365 647Q346 647 335.0 656.0Q324 665 326 677Z" fill="#50565c" stroke="none" transform="scale(1,-1) translate(0,-256)" /><path d="M429 554Q439 542 431.0 525.5Q423 509 411 499Q399 490 385.0 481.0Q371 472 357 486Q343 500 351.5 515.5Q360 531 370 542Q381 553 399.5 560.0Q418 567 429 554Z" fill="#50565c" stroke="none" transform="scale(1,-1) translate(0,-256)" /><path d="M507 586Q525 605 540.0 605.5Q555 606 564 596Q573 587 564.5 570.5Q556 554 548 546Q542 541 533.5 534.0Q525 527 514.5 524.0Q504 521 494 530Q480 543 487.5 557.5Q495 572 507 586Z" fill="#50565c" stroke="none" transform="scale(1,-1) translate(0,-256)" /></svg>