<?xml version="1.0" encoding="utf-8" ?>
<svg baseProfile="full" height="256" version="1.1" width="256" xmlns="http://www.w3.org/2000/svg" xmlns:ev="http://www.w3.org/2001/xml-events" xmlns:xlink="http://www.w3.org/1999/xlink"><defs /><path d="M509 -43H508Q510 -35 530.0 -33.5Q550 -32 569 -37Q607 -47 623 -83Q631 -101 632.5 -119.5Q634 -138 634 -146Q634 -153 639.5 -153.5Q645 -154 646 -146Q647 -132 649.5 -115.5Q652 -99 659 -84Q667 -67 681.5 -56.0Q696 -45 707 -40Q723 -34 740.0 -35.5Q757 -37 757 -45Q756 -53 748.5 -54.5Q741 -56 731 -57Q721 -57 708.0 -63.0Q695 -69 684 -87Q680 -93 676.5 -107.0Q673 -121 670 -138Q667 -165 666.5 -188.0Q666 -211 666 -211Q666 -211 658.0 -211.5Q650 -212 638 -213Q624 -213 616.5 -211.5Q609 -210 609 -210Q609 -210 609.0 -195.0Q609 -180 608.5 -158.5Q608 -137 605.5 -117.5Q603 -98 597 -89Q586 -70 571.5 -63.5Q557 -57 541 -57Q506 -55 509 -43Z" fill="#fefefe" stroke="none" transform="scale(1,-1) translate(0,-256)" /></svg>