<?xml version="1.0" encoding="utf-8" ?>
<svg baseProfile="full" height="256" version="1.1" width="256" xmlns="http://www.w3.org/2000/svg" xmlns:ev="http://www.w3.org/2001/xml-events" xmlns:xlink="http://www.w3.org/1999/xlink"><defs /><path d="M285 320H286L649 366L999 324Q999 324 1002.5 353.5Q1006 383 1009.5 430.5Q1013 478 1012.5 532.5Q1012 587 1004.0 639.5Q996 692 975 730Q931 814 852.5 862.5Q774 911 638 913Q512 914 429.0 869.0Q346 824 295 717Q275 672 267.5 619.0Q260 566 261.5 513.5Q263 461 269.0 417.0Q275 373 280.0 346.5Q285 320 285 320Z" fill="#464c4f" stroke="none" transform="scale(1,-1) translate(0,-256)" /></svg>