<?xml version="1.0" encoding="utf-8" ?>
<svg baseProfile="full" height="256" version="1.1" width="256" xmlns="http://www.w3.org/2000/svg" xmlns:ev="http://www.w3.org/2001/xml-events" xmlns:xlink="http://www.w3.org/1999/xlink"><defs /><path d="M285 320Q285 320 287.5 305.0Q290 290 293 278Q297 257 301.0 239.5Q305 222 314 218Q319 216 338.0 230.5Q357 245 395.5 265.5Q434 286 495.5 302.5Q557 319 646 321Q723 322 778.0 310.5Q833 299 869.5 281.5Q906 264 927.5 246.5Q949 229 959.0 217.5Q969 206 971 208Q976 211 979.0 225.0Q982 239 986 255Q989 266 992.0 282.5Q995 299 997.0 311.5Q999 324 999 324Q999 324 982.5 337.5Q966 351 935.0 370.5Q904 390 861.0 409.5Q818 429 764.0 441.5Q710 454 648 453Q566 452 499.5 431.5Q433 411 385.0 385.0Q337 359 311.0 339.5Q285 320 285 320Z" fill="#3e4346" stroke="none" transform="scale(1,-1) translate(0,-256)" /><path d="M852 556Q857 570 870.0 572.5Q883 575 903 572Q948 564 944 535Q940 502 893 515Q870 521 858.5 530.5Q847 540 852 556Z" fill="#3e4346" stroke="none" transform="scale(1,-1) translate(0,-256)" /><path d="M799 522Q807 532 818.0 530.0Q829 528 838.5 520.5Q848 513 854 506Q862 497 873.0 481.5Q884 466 871 451Q861 439 845.0 445.0Q829 451 818 464Q807 477 796.5 492.5Q786 508 799 522Z" fill="#3e4346" stroke="none" transform="scale(1,-1) translate(0,-256)" /><path d="M792 719Q805 728 818.5 719.5Q832 711 842 698Q855 682 856.5 667.5Q858 653 849 647Q841 640 828.0 640.5Q815 641 799 658Q783 676 780.5 693.0Q778 710 792 719Z" fill="#3e4346" stroke="none" transform="scale(1,-1) translate(0,-256)" /><path d="M825 780Q833 791 844.0 788.5Q855 786 866.0 778.0Q877 770 885 764Q902 753 914.5 741.0Q927 729 920 713Q913 696 895.5 700.0Q878 704 854 720Q829 736 822.5 752.0Q816 768 825 780Z" fill="#3e4346" stroke="none" transform="scale(1,-1) translate(0,-256)" /></svg>