<?xml version="1.0" encoding="utf-8" ?>
<svg baseProfile="full" height="256" version="1.1" width="256" xmlns="http://www.w3.org/2000/svg" xmlns:ev="http://www.w3.org/2001/xml-events" xmlns:xlink="http://www.w3.org/1999/xlink"><defs /><path d="M452 373Q452 373 470.0 384.0Q488 395 517.0 409.5Q546 424 579.0 435.5Q612 447 642 449Q672 450 705.0 449.0Q738 448 767.0 439.5Q796 431 815 410Q833 389 842.5 354.0Q852 319 856.0 282.5Q860 246 861.5 219.0Q863 192 864 187Q867 173 877.0 175.5Q887 178 887 178Q887 178 883.0 157.0Q879 136 866.5 104.5Q854 73 828 42Q801 11 757.5 -11.0Q714 -33 644 -33Q568 -33 518.5 -3.0Q469 27 442 64Q423 91 414.0 116.0Q405 141 402.0 157.0Q399 173 399 173Q399 173 402.0 172.0Q405 171 411 175Q415 177 416.5 190.5Q418 204 419.0 221.0Q420 238 421 250Q426 294 436.0 330.0Q446 366 452 373Z" fill="#ffca26" stroke="none" transform="scale(1,-1) translate(0,-256)" /><path d="M560 -75Q572 -75 578.5 -81.5Q585 -88 586 -98Q587 -112 579.5 -118.0Q572 -124 562 -124Q552 -125 545.0 -118.5Q538 -112 537 -103Q536 -76 560 -75Z" fill="#ffca26" stroke="none" transform="scale(1,-1) translate(0,-256)" /><path d="M710 -80Q720 -79 727.0 -85.5Q734 -92 735 -101Q737 -113 730.5 -122.0Q724 -131 712 -131Q701 -132 693.5 -125.0Q686 -118 686 -107Q687 -83 710 -80Z" fill="#ffca26" stroke="none" transform="scale(1,-1) translate(0,-256)" /></svg>