<?xml version="1.0" encoding="utf-8" ?>
<svg baseProfile="full" height="256" version="1.1" width="256" xmlns="http://www.w3.org/2000/svg" xmlns:ev="http://www.w3.org/2001/xml-events" xmlns:xlink="http://www.w3.org/1999/xlink"><defs /><path d="M479 813Q445 826 405.0 809.0Q365 792 322.5 750.0Q280 708 241.0 646.0Q202 584 172 507Q142 430 128.0 358.0Q114 286 115.5 226.5Q117 167 135.0 127.0Q153 87 186 74L1000 18Q1015 13 1037.0 25.5Q1059 38 1081.0 65.5Q1103 93 1118 132Q1141 191 1136.0 237.5Q1131 284 1112 297Z" fill="#f44336" stroke="none" transform="scale(1,-1) translate(0,-256)" /></svg>