<?xml version="1.0" encoding="utf-8" ?>
<svg baseProfile="full" height="256" version="1.1" width="256" xmlns="http://www.w3.org/2000/svg" xmlns:ev="http://www.w3.org/2001/xml-events" xmlns:xlink="http://www.w3.org/1999/xlink"><defs /><path d="M847 28 785 32 768 -13Q768 -13 775.5 -7.5Q783 -2 802 -4Q818 -5 824.0 -10.0Q830 -15 830 -15Z" fill="#2f7889" stroke="none" transform="scale(1,-1) translate(0,-256)" /><path d="M634 41 617 -2Q617 -2 609.5 6.5Q602 15 585 16Q560 17 547.5 10.5Q535 4 535 4Q535 4 539.0 16.5Q543 29 551 47Z" fill="#2f7889" stroke="none" transform="scale(1,-1) translate(0,-256)" /><path d="M404 790Q375 801 334.5 766.5Q294 732 250.5 664.0Q207 596 172 507Q137 418 121.5 338.5Q106 259 112.5 206.0Q119 153 147 142Q176 131 216.5 165.5Q257 200 300.0 268.0Q343 336 379 425Q414 514 429.5 593.5Q445 673 438.5 726.0Q432 779 404 790Z" fill="#2f7889" stroke="none" transform="scale(1,-1) translate(0,-256)" /></svg>