<?xml version="1.0" encoding="utf-8" ?>
<svg baseProfile="full" height="256" version="1.1" width="256" xmlns="http://www.w3.org/2000/svg" xmlns:ev="http://www.w3.org/2001/xml-events" xmlns:xlink="http://www.w3.org/1999/xlink"><defs /><path d="M597 898Q599 900 608.0 894.0Q617 888 625.0 881.5Q633 875 633 875Q633 875 641.5 880.5Q650 886 659.0 891.0Q668 896 670 895Q671 893 667.0 885.5Q663 878 659 873Q655 868 645.0 856.5Q635 845 634 845Q632 845 626.0 852.5Q620 860 611 871Q603 881 599.5 889.0Q596 897 597 898Z" fill="#fee56b" stroke="none" transform="scale(1,-1) translate(0,-256)" /><path d="M542 804Q540 805 545.0 811.5Q550 818 557 826Q565 834 573.0 840.5Q581 847 585 845Q590 844 601.0 838.5Q612 833 612 830Q611 829 601.0 824.5Q591 820 577.5 815.0Q564 810 553.5 806.5Q543 803 542 804Z" fill="#fee56b" stroke="none" transform="scale(1,-1) translate(0,-256)" /></svg>