<?xml version="1.0" encoding="utf-8" ?>
<svg baseProfile="full" height="256" version="1.1" width="256" xmlns="http://www.w3.org/2000/svg" xmlns:ev="http://www.w3.org/2001/xml-events" xmlns:xlink="http://www.w3.org/1999/xlink"><defs /><path d="M780 521Q802 521 816.5 507.5Q831 494 832 474Q833 452 820.5 436.0Q808 420 782 419Q757 419 742.5 433.0Q728 447 727 468Q727 489 741.0 504.5Q755 520 780 521Z" fill="#fcd81e" stroke="none" transform="scale(1,-1) translate(0,-256)" /><path d="M660 280Q686 280 700.5 266.0Q715 252 716 230Q717 205 703.5 189.0Q690 173 664 173Q638 172 623.0 186.5Q608 201 607 224Q607 247 620.0 263.5Q633 280 660 280Z" fill="#fcd81e" stroke="none" transform="scale(1,-1) translate(0,-256)" /></svg>