<?xml version="1.0" encoding="utf-8" ?>
<svg baseProfile="full" height="256" version="1.1" width="256" xmlns="http://www.w3.org/2000/svg" xmlns:ev="http://www.w3.org/2001/xml-events" xmlns:xlink="http://www.w3.org/1999/xlink"><defs /><path d="M669 786Q669 786 683.0 789.5Q697 793 711.5 798.0Q726 803 728 808Q729 813 719.0 824.0Q709 835 698.5 844.0Q688 853 688 853Q688 853 691.5 866.0Q695 879 697.5 893.5Q700 908 695 911Q691 914 675.5 908.0Q660 902 646.0 894.5Q632 887 632 887Q632 887 618.5 895.5Q605 904 590.0 911.5Q575 919 572 916Q568 913 568.5 897.0Q569 881 570.5 866.0Q572 851 572 851Q572 851 562.0 839.5Q552 828 542.5 815.5Q533 803 535 797Q536 794 551.0 791.5Q566 789 580.0 788.5Q594 788 594 788Q594 788 601.5 773.5Q609 759 619.0 744.5Q629 730 637 730Q646 730 653.0 743.5Q660 757 664.5 771.0Q669 785 669 786Z" fill="#fcc11a" stroke="none" transform="scale(1,-1) translate(0,-256)" /></svg>