<?xml version="1.0" encoding="utf-8" ?>
<svg baseProfile="full" height="256" version="1.1" width="256" xmlns="http://www.w3.org/2000/svg" xmlns:ev="http://www.w3.org/2001/xml-events" xmlns:xlink="http://www.w3.org/1999/xlink"><defs /><path d="M412 356 776 703Q776 703 788.5 689.5Q801 676 817.0 647.5Q833 619 844.0 576.0Q855 533 851 474Q848 413 825.0 364.5Q802 316 770.5 283.0Q739 250 710 233Q680 216 639.0 215.0Q598 214 559 228Q542 234 523.0 233.5Q504 233 485 233Q445 234 421.0 246.5Q397 259 387.0 271.5Q377 284 377 284Z" fill="#54585b" stroke="none" transform="scale(1,-1) translate(0,-256)" /></svg>