<?xml version="1.0" encoding="utf-8" ?>
<svg baseProfile="full" height="256" version="1.1" width="256" xmlns="http://www.w3.org/2000/svg" xmlns:ev="http://www.w3.org/2001/xml-events" xmlns:xlink="http://www.w3.org/1999/xlink"><defs /><path d="M762 856Q785 862 781 844Q775 826 758.0 806.5Q741 787 712.0 773.0Q683 759 638 759Q592 759 563.0 773.0Q534 787 517.0 806.5Q500 826 494 844Q489 862 513 856Q525 853 559.5 845.5Q594 838 635 838Q636 838 636.5 838.0Q637 838 637 838Q638 838 638.5 838.0Q639 838 639 838Q680 838 715.0 845.5Q750 853 762 856Z" fill="#000000" stroke="none" transform="scale(1,-1) translate(0,-256)" /></svg>