<?xml version="1.0" encoding="utf-8" ?>
<svg baseProfile="full" height="256" version="1.1" width="256" xmlns="http://www.w3.org/2000/svg" xmlns:ev="http://www.w3.org/2001/xml-events" xmlns:xlink="http://www.w3.org/1999/xlink"><defs /><path d="M996 341 1042 433Q1042 433 1056.0 442.0Q1070 451 1089.0 462.5Q1108 474 1123.5 482.5Q1139 491 1142 488Q1148 484 1146.5 474.0Q1145 464 1145 464H1165Q1165 464 1166.5 459.5Q1168 455 1165 445Q1162 436 1153.5 427.5Q1145 419 1145 419Q1145 419 1146.5 418.0Q1148 417 1149 409Q1150 402 1148.0 393.0Q1146 384 1138 372Q1130 360 1111.5 344.0Q1093 328 1086 320Q1079 313 1072.5 294.5Q1066 276 1035 247Q1008 222 985.5 218.5Q963 215 963 215L928 232Z" fill="#b95f1a" stroke="none" transform="scale(1,-1) translate(0,-256)" /></svg>