<?xml version="1.0" encoding="utf-8" ?>
<svg baseProfile="full" height="256" version="1.1" width="256" xmlns="http://www.w3.org/2000/svg" xmlns:ev="http://www.w3.org/2001/xml-events" xmlns:xlink="http://www.w3.org/1999/xlink"><defs /><path d="M496 526Q520 524 531.0 510.5Q542 497 541 479Q541 460 529.0 448.0Q517 436 496 436Q474 436 462.5 449.0Q451 462 450 478Q449 493 460.0 510.0Q471 527 496 526Z" fill="#3f4040" stroke="none" transform="scale(1,-1) translate(0,-256)" /><path d="M761.0057373046875 528.3597106933594Q804.1325531005859 522.3625335693359 801.818359375 479.11712646484375Q800.3046569824219 460.7318572998047 787.9643630981445 449.6079559326172Q775.6240692138672 438.4840545654297 758.1298980712891 439.04736328125Q745.2394561767578 439.4624328613281 728.9773330688477 449.66392517089844Q712.7152099609375 459.86541748046875 712.5949554443359 484.7552032470703Q712.4154052734375 507.8034973144531 727.5475845336914 519.7592010498047Q742.6797637939453 531.7149047851562 761.0057373046875 528.3597106933594Z" fill="#3f4040" stroke="none" transform="scale(1,-1) translate(0,-256)" /></svg>