<?xml version="1.0" encoding="utf-8" ?>
<svg baseProfile="full" height="256" version="1.1" width="256" xmlns="http://www.w3.org/2000/svg" xmlns:ev="http://www.w3.org/2001/xml-events" xmlns:xlink="http://www.w3.org/1999/xlink"><defs /><path d="M435.9989929199219 389.0Q457.9989929199219 407.0 459.4989929199219 425.0Q460.9989929199219 443.0 454.9989929199219 454.5Q448.9989929199219 466.0 448.9989929199219 466.0Q448.9989929199219 466.0 455.9989929199219 466.0Q462.9989929199219 466.0 478.9989929199219 459.0Q494.9989929199219 452.0 520.9989929199219 431.0Q533.9989929199219 421.0 537.4989929199219 424.5Q540.9989929199219 428.0 538.9989929199219 432.0Q538.9989929199219 433.0 531.9989929199219 445.5Q524.9989929199219 458.0 510.9989929199219 473.0Q496.9989929199219 488.0 473.9989929199219 499.0Q450.9989929199219 510.0 417.9989929199219 508.0Q378.9989929199219 505.0 358.9989929199219 483.5Q338.9989929199219 462.0 338.9989929199219 438.0Q339.9989929199219 401.0 375.9989929199219 385.0Q391.9989929199219 378.0 408.4989929199219 379.0Q424.9989929199219 380.0 435.9989929199219 389.0Z" fill="#5d4037" stroke="none" transform="scale(1,-1) translate(0,-256)" /><path d="M831.9049987792969 389.0Q853.9049987792969 407.0 855.4049987792969 425.0Q856.9049987792969 443.0 850.9049987792969 454.5Q844.9049987792969 466.0 844.9049987792969 466.0Q844.9049987792969 466.0 851.9049987792969 466.0Q858.9049987792969 466.0 874.9049987792969 459.0Q890.9049987792969 452.0 916.9049987792969 431.0Q929.9049987792969 421.0 933.4049987792969 424.5Q936.9049987792969 428.0 934.9049987792969 432.0Q934.9049987792969 433.0 927.9049987792969 445.5Q920.9049987792969 458.0 906.9049987792969 473.0Q892.9049987792969 488.0 869.9049987792969 499.0Q846.9049987792969 510.0 813.9049987792969 508.0Q774.9049987792969 505.0 754.9049987792969 483.5Q734.9049987792969 462.0 734.9049987792969 438.0Q735.9049987792969 401.0 771.9049987792969 385.0Q787.9049987792969 378.0 804.4049987792969 379.0Q820.9049987792969 380.0 831.9049987792969 389.0Z" fill="#5d4037" stroke="none" transform="scale(1,-1) translate(0,-256)" /><path d="M788 219Q801 212 791 200Q777 182 738.5 160.5Q700 139 637 138Q575 139 536.5 160.5Q498 182 483 200Q474 212 487 219L488 220Q498 226 506 218Q513 212 534.0 203.5Q555 195 582.5 188.5Q610 182 637 182Q665 182 692.5 188.5Q720 195 740.5 203.5Q761 212 769 218Q777 226 787 220Z" fill="#5d4037" stroke="none" transform="scale(1,-1) translate(0,-256)" /></svg>