<?xml version="1.0" encoding="utf-8" ?>
<svg baseProfile="full" height="256" version="1.1" width="256" xmlns="http://www.w3.org/2000/svg" xmlns:ev="http://www.w3.org/2001/xml-events" xmlns:xlink="http://www.w3.org/1999/xlink"><defs /><path d="M577 544Q555 546 542.0 542.0Q529 538 517.5 531.0Q506 524 490.5 516.5Q475 509 448 504Q412 498 386.0 501.0Q360 504 346.5 510.0Q333 516 336 519Q340 524 362.5 523.0Q385 522 403 528Q420 534 434.0 547.0Q448 560 462 571Q477 582 491.0 589.0Q505 596 514 605Q520 611 510.0 618.0Q500 625 482.0 635.0Q464 645 445 659Q416 681 396.5 702.5Q377 724 379 728Q381 730 391.5 724.5Q402 719 415.5 711.0Q429 703 439 698Q454 690 474.5 691.0Q495 692 522 677Q548 663 566.0 649.5Q584 636 584 636Q584 636 590.0 633.5Q596 631 611 631Q633 631 645.0 639.0Q657 647 664.5 660.0Q672 673 681.0 687.5Q690 702 708 716Q731 734 757.0 740.0Q783 746 801.5 744.0Q820 742 820 737Q820 734 795.0 725.0Q770 716 741 690Q734 683 725.5 670.5Q717 658 712.5 645.5Q708 633 711 627Q716 617 731.5 620.0Q747 623 766 623Q793 623 810.5 614.0Q828 605 846 601Q858 599 875.0 601.0Q892 603 905.5 605.5Q919 608 920 607Q922 606 916.5 598.5Q911 591 892.5 582.5Q874 574 836 567Q807 563 780.0 565.5Q753 568 734.0 570.5Q715 573 711 567Q706 557 718.5 546.5Q731 536 745 516Q760 496 767.0 475.5Q774 455 776 447Q779 440 787.5 426.5Q796 413 811 405Q826 397 825.5 393.5Q825 390 825 390Q825 390 814.5 392.0Q804 394 790.0 396.5Q776 399 768 401Q719 412 659 472Q638 493 619.0 517.5Q600 542 577 544Z" fill="#94a61d" stroke="none" transform="scale(1,-1) translate(0,-256)" /></svg>