<?xml version="1.0" encoding="utf-8" ?>
<svg baseProfile="full" height="256" version="1.1" width="256" xmlns="http://www.w3.org/2000/svg" xmlns:ev="http://www.w3.org/2001/xml-events" xmlns:xlink="http://www.w3.org/1999/xlink"><defs /><path d="M271 455Q301 448 307.0 428.5Q313 409 305.5 383.0Q298 357 286.0 328.0Q274 299 268 272Q262 245 264.5 217.0Q267 189 270.5 164.5Q274 140 270.5 123.0Q267 106 250 101Q229 95 209.0 113.0Q189 131 174.0 163.5Q159 196 151.0 236.5Q143 277 146 316Q151 373 171.0 406.0Q191 439 218.0 450.5Q245 462 271 455Z" fill="#fed3b0" stroke="none" transform="scale(1,-1) translate(0,-256)" /></svg>