<?xml version="1.0" encoding="utf-8" ?>
<svg baseProfile="full" height="256" version="1.1" width="256" xmlns="http://www.w3.org/2000/svg" xmlns:ev="http://www.w3.org/2001/xml-events" xmlns:xlink="http://www.w3.org/1999/xlink"><defs /><path d="M638 858Q533 858 441.0 818.5Q349 779 279.0 709.0Q209 639 169.5 547.0Q130 455 130 350Q130 245 169.5 153.0Q209 61 279.0 -9.0Q349 -79 441.0 -118.5Q533 -158 638 -158Q742 -158 834.0 -118.0Q926 -78 996.0 -8.5Q1066 61 1105.5 153.0Q1145 245 1145 350Q1145 455 1105.5 547.0Q1066 639 996.0 708.5Q926 778 834.0 818.0Q742 858 638 858ZM638 190Q593 190 557.0 211.5Q521 233 499.0 269.5Q477 306 477 350Q477 394 499.0 430.5Q521 467 557.0 488.5Q593 510 638 510Q682 510 718.0 488.5Q754 467 776.0 430.5Q798 394 798 350Q798 306 776.0 269.5Q754 233 718.0 211.5Q682 190 638 190ZM638 884Q748 884 845.0 842.5Q942 801 1015.5 727.5Q1089 654 1130.5 557.5Q1172 461 1172 350Q1172 239 1130.5 142.5Q1089 46 1015.5 -27.5Q942 -101 845.0 -142.5Q748 -184 638 -184Q527 -184 430.0 -142.5Q333 -101 259.5 -27.5Q186 46 144.5 142.5Q103 239 103 350Q103 461 144.5 557.5Q186 654 259.5 727.5Q333 801 430.0 842.5Q527 884 638 884ZM638 216Q675 216 705.5 234.0Q736 252 754.0 282.5Q772 313 771 350Q771 387 753.0 417.5Q735 448 704.5 466.0Q674 484 638 484Q601 484 570.5 466.0Q540 448 522.0 417.5Q504 387 504 350Q504 313 522.0 282.5Q540 252 570.5 234.0Q601 216 638 216Z" fill="#82aec0" stroke="none" transform="scale(1,-1) translate(0,-256)" /></svg>