<?xml version="1.0" encoding="utf-8" ?>
<svg baseProfile="full" height="256" version="1.1" width="256" xmlns="http://www.w3.org/2000/svg" xmlns:ev="http://www.w3.org/2001/xml-events" xmlns:xlink="http://www.w3.org/1999/xlink"><defs /><path d="M551 877Q660 895 762.5 869.5Q865 844 949.5 783.5Q1034 723 1090.5 634.0Q1147 545 1165 436Q1183 327 1157.5 225.0Q1132 123 1071.5 38.5Q1011 -46 922.0 -102.5Q833 -159 724 -177Q615 -195 512.5 -169.5Q410 -144 325.5 -83.5Q241 -23 184.5 66.0Q128 155 110 264Q92 373 117.5 475.0Q143 577 203.5 661.5Q264 746 353.0 802.5Q442 859 551 877ZM659 218Q696 224 723.0 247.0Q750 270 763.0 302.5Q776 335 769 372Q763 408 740.5 435.0Q718 462 685.0 475.0Q652 488 616 482Q579 476 552.0 453.5Q525 431 512.5 398.0Q500 365 506 328Q512 292 534.5 265.0Q557 238 590.0 225.0Q623 212 659 218Z" fill="#b9e4ea" stroke="none" transform="scale(1,-1) translate(0,-256)" /></svg>