<?xml version="1.0" encoding="utf-8" ?>
<svg baseProfile="full" height="256" version="1.1" width="256" xmlns="http://www.w3.org/2000/svg" xmlns:ev="http://www.w3.org/2001/xml-events" xmlns:xlink="http://www.w3.org/1999/xlink"><defs /><path d="M1112 -88Q1112 -88 1106.5 -83.0Q1101 -78 1094.5 -59.5Q1088 -41 1085 2Q1084 14 1084.0 59.5Q1084 105 1084.0 171.0Q1084 237 1084.0 312.5Q1084 388 1084.0 462.0Q1084 536 1084.5 596.5Q1085 657 1085.0 693.5Q1085 730 1085 730Q1085 742 1077.0 750.0Q1069 758 1057 758H121Q110 758 101.5 750.0Q93 742 93 730V2Q93 -19 102.5 -39.5Q112 -60 130.5 -74.0Q149 -88 176 -88Q186 -88 230.5 -88.0Q275 -88 344.0 -88.0Q413 -88 495.0 -88.0Q577 -88 663.5 -88.0Q750 -88 830.0 -88.0Q910 -88 973.5 -88.0Q1037 -88 1074.5 -88.0Q1112 -88 1112 -88Z" fill="#eeeeee" stroke="none" transform="scale(1,-1) translate(0,-256)" /><path d="M719.8925628662109 587.9378662109375Q719.8925628662109 612.1818237304688 710.8010787963867 633.4997863769531Q701.7095947265625 654.8177490234375 685.5121231079102 671.0152206420898Q669.3146514892578 687.2126922607422 647.9966888427734 696.4086761474609Q626.6787261962891 705.6046600341797 602.4347686767578 705.6046600341797Q577.9818115234375 705.6046600341797 556.6638488769531 696.4086761474609Q535.3458862304688 687.2126922607422 519.1484146118164 671.0152206420898Q502.95094299316406 654.8177490234375 493.85945892333984 633.4997863769531Q484.7679748535156 612.1818237304688 484.7679748535156 587.9378662109375Q484.7679748535156 563.6939086914062 493.85945892333984 542.3759460449219Q502.95094299316406 521.0579833984375 519.1484146118164 504.86051177978516Q535.3458862304688 488.6630401611328 556.6638488769531 479.5715560913086Q577.9818115234375 470.4800720214844 602.4347686767578 470.4800720214844Q626.6787261962891 470.4800720214844 647.9966888427734 479.5715560913086Q669.3146514892578 488.6630401611328 685.5121231079102 504.86051177978516Q701.7095947265625 521.0579833984375 710.8010787963867 542.3759460449219Q719.8925628662109 563.6939086914062 719.8925628662109 587.9378662109375Z" fill="#eeeeee" stroke="none" transform="scale(1,-1) translate(0,-256)" /></svg>