<?xml version="1.0" encoding="utf-8" ?>
<svg baseProfile="full" height="256" version="1.1" width="256" xmlns="http://www.w3.org/2000/svg" xmlns:ev="http://www.w3.org/2001/xml-events" xmlns:xlink="http://www.w3.org/1999/xlink"><defs /><path d="M169.97866821289062 674.5496978759766V660.5958404541016H1015.7803649902344V674.5496978759766Z" fill="#757575" stroke="none" transform="scale(1,-1) translate(0,-256)" /><path d="M169.97866821289062 511.23719787597656V497.28334045410156H1015.7803649902344V511.23719787597656Z" fill="#757575" stroke="none" transform="scale(1,-1) translate(0,-256)" /><path d="M704 589Q704 631 674 661Q644 690 602 690Q560 690 530 661Q500 631 500 589Q500 547 530 517Q560 487 602 487Q644 487 674 517Q704 547 704 589ZM685 589Q685 554 661 530Q636 506 602 506Q568 506 543 530Q519 554 519 589Q519 623 543 647Q568 672 602 672Q636 672 661 647Q685 623 685 589Z" fill="#757575" stroke="none" transform="scale(1,-1) translate(0,-256)" /><path d="M538 527 544 520Q569 542 602 542Q635 542 660 520L666 527Q639 551 602 551Q565 551 538 527Z" fill="#757575" stroke="none" transform="scale(1,-1) translate(0,-256)" /><path d="M666 652 660 659Q635 637 602 637Q572 637 548 656L542 649Q568 628 602 628Q639 628 666 652Z" fill="#757575" stroke="none" transform="scale(1,-1) translate(0,-256)" /><path d="M509.51214599609375 593.4537506103516V584.0970306396484H693.7641906738281V593.4537506103516Z" fill="#757575" stroke="none" transform="scale(1,-1) translate(0,-256)" /><path d="M606.1457977294922 681.4605712890625 597.1907806396484 681.6653747558594 597.3429412841797 492.28704833984375 606.2979583740234 492.0822448730469Z" fill="#757575" stroke="none" transform="scale(1,-1) translate(0,-256)" /><path d="M604 669 600 678Q586 672 572 658Q545 631 545 592Q545 554 570 523Q583 507 595 500L601 508Q589 515 578 529Q555 557 555 592Q555 627 579 651Q592 664 604 669Z" fill="#757575" stroke="none" transform="scale(1,-1) translate(0,-256)" /><path d="M604 678 600 669Q611 664 623 651Q646 627 646 592Q646 536 603 508L608 500Q620 508 632 523Q656 554 656 592Q656 631 630 658Q617 672 604 678Z" fill="#757575" stroke="none" transform="scale(1,-1) translate(0,-256)" /></svg>