<?xml version="1.0" encoding="utf-8" ?>
<svg baseProfile="full" height="256" version="1.1" width="256" xmlns="http://www.w3.org/2000/svg" xmlns:ev="http://www.w3.org/2001/xml-events" xmlns:xlink="http://www.w3.org/1999/xlink"><defs /><path d="M972 337Q972 337 967.5 313.5Q963 290 958.5 255.5Q954 221 954.5 187.5Q955 154 965 135Q985 96 1011.5 72.0Q1038 48 1091 46Q1129 45 1153.0 60.0Q1177 75 1189.5 93.0Q1202 111 1206 119Q1209 127 1212.5 136.0Q1216 145 1212.0 154.5Q1208 164 1189 175Q1169 186 1159.0 185.5Q1149 185 1145.0 179.5Q1141 174 1139 170Q1135 164 1133.0 153.5Q1131 143 1123.0 134.0Q1115 125 1095 125Q1064 124 1045.5 157.0Q1027 190 1016 231Q1005 271 993.5 298.0Q982 325 972 337Z" fill="#fe6a1f" stroke="none" transform="scale(1,-1) translate(0,-256)" /><path d="M237 573 329 565 361 605Q361 605 357.0 614.0Q353 623 344.5 634.0Q336 645 321.5 651.5Q307 658 286 654Q267 649 257.0 636.5Q247 624 243.0 609.0Q239 594 238.0 583.5Q237 573 237 573Z" fill="#fe6a1f" stroke="none" transform="scale(1,-1) translate(0,-256)" /><path d="M698 94 695 134 867 155 847 -92Q847 -92 825.5 -105.5Q804 -119 761 -119Q727 -119 711.0 -113.0Q695 -107 693 -90Q690 -73 699.5 -61.5Q709 -50 718.5 -36.0Q728 -22 726 3Q725 15 718.0 37.0Q711 59 704.5 76.5Q698 94 698 94Z" fill="#fe6a1f" stroke="none" transform="scale(1,-1) translate(0,-256)" /><path d="M304 164 431 92Q431 92 422.0 84.0Q413 76 401.5 65.0Q390 54 381 45Q374 38 362.0 25.0Q350 12 337.0 -1.5Q324 -15 315.5 -25.0Q307 -35 307 -35Q307 -35 305.5 -50.0Q304 -65 294 -88Q284 -111 265.5 -117.5Q247 -124 228 -121Q210 -117 196.5 -104.5Q183 -92 182 -66Q180 -37 192.0 -13.5Q204 10 221.0 29.0Q238 48 251 65Q264 81 276.0 104.5Q288 128 296.0 146.0Q304 164 304 164Z" fill="#fe6a1f" stroke="none" transform="scale(1,-1) translate(0,-256)" /><path d="M445 -122Q458 -123 454.5 -133.5Q451 -144 450 -155Q450 -161 452.0 -172.0Q454 -183 443 -181Q437 -180 432.0 -173.0Q427 -166 428 -150Q428 -133 432.5 -127.0Q437 -121 445 -122Z" fill="#fe6a1f" stroke="none" transform="scale(1,-1) translate(0,-256)" /><path d="M399 -116Q409 -122 403.0 -129.5Q397 -137 400 -146Q401 -152 404.5 -162.5Q408 -173 404 -174Q397 -176 388.5 -168.0Q380 -160 381 -144Q381 -124 388.0 -118.5Q395 -113 399 -116Z" fill="#fe6a1f" stroke="none" transform="scale(1,-1) translate(0,-256)" /><path d="M832 -144Q831 -132 837.5 -122.5Q844 -113 855 -115Q861 -117 856.5 -127.0Q852 -137 853 -146Q854 -151 858.5 -161.5Q863 -172 852 -173Q832 -174 832 -144Z" fill="#fe6a1f" stroke="none" transform="scale(1,-1) translate(0,-256)" /></svg>