<?xml version="1.0" encoding="utf-8" ?>
<svg baseProfile="full" height="256" version="1.1" width="256" xmlns="http://www.w3.org/2000/svg" xmlns:ev="http://www.w3.org/2001/xml-events" xmlns:xlink="http://www.w3.org/1999/xlink"><defs /><path d="M141 455Q141 455 148.5 442.5Q156 430 162 416Q168 402 172.0 378.5Q176 355 180 348Q184 341 192.5 332.0Q201 323 212 310Q219 301 228.5 287.5Q238 274 245.0 263.5Q252 253 252 253Q252 253 227.0 248.0Q202 243 155 258Q115 272 91.5 310.5Q68 349 69 392Q70 404 72.5 415.0Q75 426 84 431Q93 438 107.0 443.0Q121 448 131.0 451.5Q141 455 141 455Z" fill="#ffffff" stroke="none" transform="scale(1,-1) translate(0,-256)" /></svg>