<?xml version="1.0" encoding="utf-8" ?>
<svg baseProfile="full" height="256" version="1.1" width="256" xmlns="http://www.w3.org/2000/svg" xmlns:ev="http://www.w3.org/2001/xml-events" xmlns:xlink="http://www.w3.org/1999/xlink"><defs /><path d="M252 508Q242 506 238.0 519.5Q234 533 231 541Q220 567 201 561Q196 560 186.5 555.5Q177 551 177 551Q177 551 185.0 559.5Q193 568 211 576Q220 581 235.0 585.5Q250 590 268 592Q293 593 306.5 593.0Q320 593 320 593Q320 593 326.0 608.5Q332 624 352 639Q368 651 387.0 651.5Q406 652 421.0 647.0Q436 642 441 638Q443 637 433.5 638.5Q424 640 414 640Q399 641 386.5 633.5Q374 626 366 617Q358 607 353.0 593.0Q348 579 345 572Q345 570 338.5 570.5Q332 571 330 568Q328 565 329.0 558.5Q330 552 331 540Q332 528 329.5 513.5Q327 499 315 501Q307 502 304.5 511.5Q302 521 299.5 533.5Q297 546 289 555Q283 561 280 563Q274 565 265.5 564.5Q257 564 257 564Q257 564 259.5 558.0Q262 552 264 542Q266 532 266.0 520.5Q266 509 252 508Z" fill="#33312f" stroke="none" transform="scale(1,-1) translate(0,-256)" /><path d="M314 459Q323 459 327.5 445.5Q332 432 332.0 414.0Q332 396 330 381Q327 366 311.5 351.0Q296 336 280.0 328.5Q264 321 260 328Q257 333 264.0 341.0Q271 349 274 352Q280 359 289.0 371.0Q298 383 300 386Q302 388 302.5 402.5Q303 417 305 434Q305 444 306.5 452.0Q308 460 314 459Z" fill="#33312f" stroke="none" transform="scale(1,-1) translate(0,-256)" /><path d="M349 355Q350 358 351.5 374.5Q353 391 352 409Q351 427 349.0 439.5Q347 452 351 455Q357 462 364.5 447.5Q372 433 377 416Q382 399 383.5 374.0Q385 349 382 340Q377 329 362.0 316.5Q347 304 336 298Q322 292 302.0 287.0Q282 282 276 291Q272 298 283.5 304.0Q295 310 311 320Q326 330 337.0 341.0Q348 352 349 355Z" fill="#33312f" stroke="none" transform="scale(1,-1) translate(0,-256)" /><path d="M433 439Q440 443 448.0 430.5Q456 418 462.5 399.0Q469 380 473.0 362.0Q477 344 475 335Q472 324 461.0 310.0Q450 296 438.0 287.5Q426 279 420 283Q414 286 416.0 296.0Q418 306 423.0 317.5Q428 329 430 335Q435 349 432.5 372.0Q430 395 428.0 415.5Q426 436 433 439Z" fill="#33312f" stroke="none" transform="scale(1,-1) translate(0,-256)" /><path d="M424 176Q424 181 429.0 186.5Q434 192 448 195Q459 198 476.0 201.5Q493 205 503 201Q515 196 523.0 186.5Q531 177 541 160Q548 150 549.5 141.5Q551 133 543 127Q538 124 525.5 132.0Q513 140 502.0 149.0Q491 158 491 158Q491 158 481.0 158.0Q471 158 457.5 159.5Q444 161 434.0 165.0Q424 169 424 176Z" fill="#33312f" stroke="none" transform="scale(1,-1) translate(0,-256)" /><path d="M514 317Q522 326 556 302Q580 285 588.5 270.0Q597 255 598 246Q599 236 598.5 221.5Q598 207 593 195Q588 182 580.0 171.0Q572 160 565 165Q560 168 559.5 185.5Q559 203 559.0 220.0Q559 237 559 237Q559 237 547.0 253.5Q535 270 528 281Q520 294 514.0 301.5Q508 309 514 317Z" fill="#33312f" stroke="none" transform="scale(1,-1) translate(0,-256)" /><path d="M558 431Q558 431 568.5 432.5Q579 434 592 435Q608 436 619.0 436.0Q630 436 630 436Q630 436 633.5 426.0Q637 416 641 401Q645 387 647.0 359.0Q649 331 647 308Q645 286 640.5 269.5Q636 253 629 254Q622 255 617.5 269.5Q613 284 611 293Q609 310 602.0 331.5Q595 353 587 374Q580 394 569.0 412.5Q558 431 558 431Z" fill="#33312f" stroke="none" transform="scale(1,-1) translate(0,-256)" /><path d="M688 437Q688 437 698.0 437.0Q708 437 722 437Q733 436 743.0 435.0Q753 434 753 434Q753 434 753.0 410.5Q753 387 749 347Q745 307 736.5 276.5Q728 246 717 246Q712 246 708.5 263.0Q705 280 703.0 303.0Q701 326 701 344Q699 385 693.5 411.0Q688 437 688 437Z" fill="#33312f" stroke="none" transform="scale(1,-1) translate(0,-256)" /><path d="M812 245Q806 246 805.5 265.0Q805 284 807.0 307.0Q809 330 809 344Q810 383 808.5 405.5Q807 428 807 428Q807 428 817.0 426.5Q827 425 840 422Q851 419 860.5 416.5Q870 414 870 414Q870 414 868.5 401.0Q867 388 863.5 368.5Q860 349 856 332Q852 315 845.0 294.5Q838 274 829.5 259.0Q821 244 812 245Z" fill="#33312f" stroke="none" transform="scale(1,-1) translate(0,-256)" /><path d="M921 392Q921 392 928.0 388.0Q935 384 944 376Q956 367 960.5 360.0Q965 353 965 353Q965 353 962.0 334.0Q959 315 949 292Q942 277 927.0 261.5Q912 246 897.5 237.5Q883 229 878 234Q875 238 882.5 253.5Q890 269 899.5 285.0Q909 301 911 308Q913 315 915.5 335.5Q918 356 919.5 374.0Q921 392 921 392Z" fill="#33312f" stroke="none" transform="scale(1,-1) translate(0,-256)" /><path d="M573 61Q573 61 581.0 63.5Q589 66 612 69Q623 71 633.5 72.5Q644 74 644 74Q644 74 648.5 87.0Q653 100 659.5 117.5Q666 135 671 151Q676 168 678.5 185.5Q681 203 679.5 214.0Q678 225 669 223Q662 221 653.5 208.0Q645 195 638.0 178.5Q631 162 625 148Q620 135 607.5 114.0Q595 93 584.0 77.0Q573 61 573 61Z" fill="#33312f" stroke="none" transform="scale(1,-1) translate(0,-256)" /><path d="M688 79Q688 79 700.5 80.0Q713 81 722 82Q732 83 740.0 84.0Q748 85 748 85Q748 85 752.5 100.5Q757 116 761.5 135.0Q766 154 769 164Q772 181 771.0 201.5Q770 222 759 222Q752 223 746.0 211.5Q740 200 735.5 186.0Q731 172 728 165Q724 152 714.5 132.0Q705 112 696.5 95.5Q688 79 688 79Z" fill="#33312f" stroke="none" transform="scale(1,-1) translate(0,-256)" /><path d="M794 113Q792 121 804.5 130.5Q817 140 833.0 148.5Q849 157 857 162Q864 167 878.5 181.0Q893 195 907.0 207.0Q921 219 928 220Q935 220 931.0 201.5Q927 183 914.0 159.5Q901 136 881 123Q871 116 850.5 112.5Q830 109 812.5 109.0Q795 109 794 113Z" fill="#33312f" stroke="none" transform="scale(1,-1) translate(0,-256)" /><path d="M759 53Q759 53 763.5 47.0Q768 41 776 31Q782 25 790.0 18.5Q798 12 798 12Q798 12 820.5 10.5Q843 9 875 20Q897 28 909.0 43.0Q921 58 924.0 71.5Q927 85 922 88Q917 91 907.0 83.0Q897 75 883.5 65.0Q870 55 854 52Q836 47 814.0 48.0Q792 49 775.5 51.0Q759 53 759 53Z" fill="#33312f" stroke="none" transform="scale(1,-1) translate(0,-256)" /></svg>