<?xml version="1.0" encoding="utf-8" ?>
<svg baseProfile="full" height="256" version="1.1" width="256" xmlns="http://www.w3.org/2000/svg" xmlns:ev="http://www.w3.org/2001/xml-events" xmlns:xlink="http://www.w3.org/1999/xlink"><defs /><path d="M128 -108Q127 -64 156.5 -32.5Q186 -1 232 0Q281 2 312.5 -26.5Q344 -55 346 -98Q347 -127 334.5 -153.0Q322 -179 297.5 -195.5Q273 -212 236 -212Q199 -212 175.5 -194.5Q152 -177 140.0 -153.0Q128 -129 128 -108Z" fill="#4e433d" stroke="none" transform="scale(1,-1) translate(0,-256)" /><path d="M841 -109Q840 -65 868.5 -34.0Q897 -3 942 -1Q991 0 1021.5 -27.5Q1052 -55 1054 -99Q1055 -128 1043.0 -153.5Q1031 -179 1006.5 -195.5Q982 -212 946 -212Q910 -212 887.0 -195.0Q864 -178 852.5 -154.0Q841 -130 841 -109Z" fill="#4e433d" stroke="none" transform="scale(1,-1) translate(0,-256)" /></svg>