<?xml version="1.0" encoding="utf-8" ?>
<svg baseProfile="full" height="256" version="1.1" width="256" xmlns="http://www.w3.org/2000/svg" xmlns:ev="http://www.w3.org/2001/xml-events" xmlns:xlink="http://www.w3.org/1999/xlink"><defs /><path d="M436 491Q436 491 467.5 491.0Q499 491 551.0 490.5Q603 490 666.0 489.5Q729 489 793.0 488.5Q857 488 913.0 487.5Q969 487 1007.0 486.5Q1045 486 1054 486Q1086 485 1102.0 484.5Q1118 484 1137 468Q1149 457 1154.5 429.0Q1160 401 1161.5 368.0Q1163 335 1164 309Q1164 294 1164.5 264.0Q1165 234 1166.0 199.5Q1167 165 1167.5 133.5Q1168 102 1168.5 81.5Q1169 61 1169 61L731 36L98 64Q98 64 98.5 92.5Q99 121 103 169Q105 193 108.5 229.5Q112 266 119.5 307.0Q127 348 139.5 387.5Q152 427 171 456Q186 480 215.0 493.5Q244 507 277.5 513.5Q311 520 342.0 521.0Q373 522 394.0 520.5Q415 519 418 517Q423 514 429.5 502.5Q436 491 436 491Z" fill="#f4daad" stroke="none" transform="scale(1,-1) translate(0,-256)" /></svg>