<?xml version="1.0" encoding="utf-8" ?>
<svg baseProfile="full" height="256" version="1.1" width="256" xmlns="http://www.w3.org/2000/svg" xmlns:ev="http://www.w3.org/2001/xml-events" xmlns:xlink="http://www.w3.org/1999/xlink"><defs /><path d="M179 -104Q179 -81 194.5 -64.5Q210 -48 235 -47Q260 -47 277.0 -62.5Q294 -78 295 -101Q296 -124 281.5 -141.5Q267 -159 237 -159Q208 -159 194.0 -140.0Q180 -121 179 -104Z" fill="#b2b1b2" stroke="none" transform="scale(1,-1) translate(0,-256)" /><path d="M891 -108Q891 -85 906.5 -68.0Q922 -51 947 -51Q972 -50 989.0 -65.5Q1006 -81 1007 -104Q1008 -127 993.5 -145.0Q979 -163 949 -163Q920 -162 906.0 -143.5Q892 -125 891 -108Z" fill="#b2b1b2" stroke="none" transform="scale(1,-1) translate(0,-256)" /></svg>