<?xml version="1.0" encoding="utf-8" ?>
<svg baseProfile="full" height="256" version="1.1" width="256" xmlns="http://www.w3.org/2000/svg" xmlns:ev="http://www.w3.org/2001/xml-events" xmlns:xlink="http://www.w3.org/1999/xlink"><defs /><path d="M98 68 82 22Q82 22 80.5 7.0Q79 -8 77.0 -28.5Q75 -49 74.5 -67.0Q74 -85 76 -92Q79 -106 91.0 -112.0Q103 -118 103 -118L292 -127Q292 -127 327.5 -127.0Q363 -127 423.0 -126.5Q483 -126 558.5 -125.5Q634 -125 714.5 -124.5Q795 -124 871.0 -123.0Q947 -122 1009.0 -121.5Q1071 -121 1109.5 -120.5Q1148 -120 1151 -120Q1165 -119 1169.5 -110.0Q1174 -101 1174 -91Q1174 -86 1173.0 -62.0Q1172 -38 1171.5 -8.5Q1171 21 1170.5 42.5Q1170 64 1170 64Z" fill="#ffb803" stroke="none" transform="scale(1,-1) translate(0,-256)" /></svg>