<?xml version="1.0" encoding="utf-8" ?>
<svg baseProfile="full" height="256" version="1.1" width="256" xmlns="http://www.w3.org/2000/svg" xmlns:ev="http://www.w3.org/2001/xml-events" xmlns:xlink="http://www.w3.org/1999/xlink"><defs /><path d="M1137 55Q1149 55 1149 66Q1149 78 1137 78H1074Q1062 78 1062 67Q1062 55 1074 55H1137Z" fill="#8e7f66" stroke="none" transform="scale(1,-1) translate(0,-256)" /><path d="M1136.25 13.188003540039062Q1148.25 13.188003540039062 1148.25 24.188003540039062Q1148.25 36.18800354003906 1136.25 36.18800354003906H1073.25Q1061.25 36.18800354003906 1061.25 25.188003540039062Q1061.25 13.188003540039062 1073.25 13.188003540039062H1136.25Z" fill="#8e7f66" stroke="none" transform="scale(1,-1) translate(0,-256)" /><path d="M1135.781005859375 -28.906005859375Q1147.781005859375 -28.906005859375 1147.781005859375 -17.906005859375Q1147.781005859375 -5.906005859375 1135.781005859375 -5.906005859375H1072.781005859375Q1060.781005859375 -5.906005859375 1060.781005859375 -16.906005859375Q1060.781005859375 -28.906005859375 1072.781005859375 -28.906005859375H1135.781005859375Z" fill="#8e7f66" stroke="none" transform="scale(1,-1) translate(0,-256)" /></svg>