<?xml version="1.0" encoding="utf-8" ?>
<svg baseProfile="full" height="256" version="1.1" width="256" xmlns="http://www.w3.org/2000/svg" xmlns:ev="http://www.w3.org/2001/xml-events" xmlns:xlink="http://www.w3.org/1999/xlink"><defs /><path d="M551 118V-126L385 -127L382 94H190Q159 94 151.0 106.0Q143 118 140 132Q137 145 137.0 170.5Q137 196 141 246Q146 296 160.5 338.0Q175 380 185 404Q195 428 214.0 438.0Q233 448 248 448Q252 448 286.5 447.5Q321 447 378.0 447.0Q435 447 504.5 446.5Q574 446 649.0 445.5Q724 445 794.5 444.5Q865 444 923.5 444.0Q982 444 1019.5 443.5Q1057 443 1064 443Q1089 443 1101.5 433.5Q1114 424 1119.0 411.5Q1124 399 1125 390Q1126 383 1127.0 355.5Q1128 328 1129.0 292.5Q1130 257 1130.5 226.0Q1131 195 1131 181Q1130 154 1117.5 136.5Q1105 119 1093 118Q1090 118 1059.0 118.0Q1028 118 979.0 118.0Q930 118 873.0 118.0Q816 118 759.5 118.0Q703 118 655.5 118.0Q608 118 579.5 118.0Q551 118 551 118Z" fill="#454c52" stroke="none" transform="scale(1,-1) translate(0,-256)" /></svg>