<?xml version="1.0" encoding="utf-8" ?>
<svg baseProfile="full" height="256" version="1.1" width="256" xmlns="http://www.w3.org/2000/svg" xmlns:ev="http://www.w3.org/2001/xml-events" xmlns:xlink="http://www.w3.org/1999/xlink"><defs /><path d="M638 913Q754 913 856.0 869.0Q958 825 1035.5 747.5Q1113 670 1156.5 568.0Q1200 466 1200 350Q1200 234 1156.5 132.0Q1113 30 1035.5 -47.5Q958 -125 856.0 -168.5Q754 -212 638 -212Q521 -212 419.0 -168.5Q317 -125 239.5 -47.5Q162 30 118.5 132.0Q75 234 75 350Q75 466 118.5 568.0Q162 670 239.5 747.5Q317 825 419.0 869.0Q521 913 638 913ZM1106 350Q1106 447 1069.5 532.0Q1033 617 968.5 681.5Q904 746 819.5 782.5Q735 819 638 819Q553 819 477.5 791.0Q402 763 341 713L1000 54Q1050 114 1078.0 190.0Q1106 266 1106 350ZM169 350Q169 253 205.5 168.0Q242 83 306.5 18.5Q371 -46 455.5 -82.5Q540 -119 638 -119Q722 -119 797.5 -91.0Q873 -63 934 -13L275 646Q225 586 197.0 510.0Q169 434 169 350Z" fill="#cc3333" stroke="none" transform="scale(1,-1) translate(0,-256)" /><path d="M341 713 1006 48 989 28 323 694Z" fill="#cc3333" stroke="none" transform="scale(1,-1) translate(0,-256)" /></svg>