<?xml version="1.0" encoding="utf-8" ?>
<svg baseProfile="full" height="256" version="1.1" width="256" xmlns="http://www.w3.org/2000/svg" xmlns:ev="http://www.w3.org/2001/xml-events" xmlns:xlink="http://www.w3.org/1999/xlink"><defs /><path d="M601 884Q710 884 805.5 843.5Q901 803 973.0 730.5Q1045 658 1086.0 562.5Q1127 467 1127 358Q1127 249 1086.0 154.0Q1045 59 973.0 -13.5Q901 -86 805.5 -126.5Q710 -167 601 -167Q492 -167 396.5 -126.5Q301 -86 229.0 -13.5Q157 59 116.0 154.0Q75 249 75 358Q75 480 126.5 585.0Q178 690 264 763L275 773L276 772Q343 825 426.0 854.5Q509 884 601 884ZM341 713 338 710 1000 54Q1050 114 1078.0 190.0Q1106 266 1106 350Q1106 447 1069.5 532.0Q1033 617 968.5 681.5Q904 746 819.5 782.5Q735 819 638 819Q553 819 477.5 791.0Q402 763 341 713ZM169 350Q169 253 205.5 168.0Q242 83 306.5 18.5Q371 -46 455.5 -82.5Q540 -119 638 -119Q722 -119 797.5 -91.0Q873 -63 934 -13L272 643Q223 583 196.0 508.0Q169 433 169 350Z" fill="#f44336" stroke="none" transform="scale(1,-1) translate(0,-256)" /></svg>