<?xml version="1.0" encoding="utf-8" ?>
<svg baseProfile="full" height="256" version="1.1" width="256" xmlns="http://www.w3.org/2000/svg" xmlns:ev="http://www.w3.org/2001/xml-events" xmlns:xlink="http://www.w3.org/1999/xlink"><defs /><path d="M397 262Q390 262 384.0 275.5Q378 289 377.0 310.0Q376 331 384 350Q393 374 408.5 383.0Q424 392 436.5 391.5Q449 391 452 386Q455 378 448.0 369.0Q441 360 425 340Q415 326 412.5 308.5Q410 291 408.0 277.0Q406 263 397 262Z" fill="#ffffff" stroke="none" transform="scale(1,-1) translate(0,-256)" /><path d="M546 565Q545 577 525.0 577.5Q505 578 480.0 566.5Q455 555 439 530Q427 513 424.5 491.0Q422 469 426.5 452.5Q431 436 440 437Q448 438 452.0 448.5Q456 459 461.5 475.5Q467 492 481 509Q498 531 513.0 539.5Q528 548 537.0 552.5Q546 557 546 565Z" fill="#ffffff" stroke="none" transform="scale(1,-1) translate(0,-256)" /><path d="M618 739Q613 742 605.5 737.5Q598 733 584 726Q573 721 555.0 714.0Q537 707 526 694Q512 678 515.5 665.0Q519 652 526 650Q535 647 547.5 660.5Q560 674 587 694Q609 711 616.0 723.5Q623 736 618 739Z" fill="#ffffff" stroke="none" transform="scale(1,-1) translate(0,-256)" /></svg>