<?xml version="1.0" encoding="utf-8" ?>
<svg baseProfile="full" height="256" version="1.1" width="256" xmlns="http://www.w3.org/2000/svg" xmlns:ev="http://www.w3.org/2001/xml-events" xmlns:xlink="http://www.w3.org/1999/xlink"><defs /><path d="M326 89Q312 79 297.5 69.0Q283 59 255 47Q237 39 216.5 28.5Q196 18 181.0 -0.5Q166 -19 166 -52Q166 -79 179.0 -99.0Q192 -119 210.0 -131.5Q228 -144 242 -147Q256 -151 279.5 -148.0Q303 -145 325.5 -139.0Q348 -133 358 -128Q374 -121 399.5 -97.5Q425 -74 450 -53Q467 -39 490.5 -26.0Q514 -13 536.5 -4.0Q559 5 571 8Q584 10 608.0 11.5Q632 13 659.5 12.0Q687 11 707 8Q738 2 772.0 -16.0Q806 -34 830 -60Q842 -73 862.5 -87.0Q883 -101 905.0 -114.0Q927 -127 943.5 -135.0Q960 -143 964 -145Q968 -146 984.5 -146.5Q1001 -147 1023.0 -144.0Q1045 -141 1065.0 -131.5Q1085 -122 1096 -103Q1120 -60 1104.5 -27.5Q1089 5 1060 23Q1048 30 1026.5 41.5Q1005 53 981.0 65.5Q957 78 938.5 88.0Q920 98 914 103Q901 111 881.0 137.5Q861 164 832 201Q803 237 780.0 252.5Q757 268 728 274Q699 280 683.5 269.5Q668 259 668 259L595 244L597 269Q597 269 593.5 279.5Q590 290 571 291Q559 292 537.5 286.5Q516 281 492.0 265.0Q468 249 448 218Q428 187 410.5 166.0Q393 145 373.5 127.5Q354 110 326 89Z" fill="#b6885b" stroke="none" transform="scale(1,-1) translate(0,-256)" /></svg>