<?xml version="1.0" encoding="utf-8" ?>
<svg baseProfile="full" height="256" version="1.1" width="256" xmlns="http://www.w3.org/2000/svg" xmlns:ev="http://www.w3.org/2001/xml-events" xmlns:xlink="http://www.w3.org/1999/xlink"><defs /><path d="M1064 715Q1085 708 1099.5 688.5Q1114 669 1120 627Q1126 583 1121.0 527.5Q1116 472 1093 401Q1074 342 1040.0 283.0Q1006 224 959 181Q927 151 901.5 144.5Q876 138 861.5 140.5Q847 143 847 143L863 180Q863 180 872.5 179.0Q882 178 898.5 183.0Q915 188 935 207Q975 243 1008.0 298.5Q1041 354 1062 412Q1080 465 1087.0 518.5Q1094 572 1089 619Q1084 654 1072.5 669.0Q1061 684 1050.5 687.0Q1040 690 1040 690Z" fill="#c8c8c8" stroke="none" transform="scale(1,-1) translate(0,-256)" /><path d="M819 483Q845 546 879.0 600.0Q913 654 957 688Q989 712 1013.0 716.5Q1037 721 1051.0 718.0Q1065 715 1065 715L1058 681Q1058 681 1042.5 683.5Q1027 686 1003 673Q988 665 963.0 643.0Q938 621 908.5 580.5Q879 540 852 478Q838 444 830.0 404.5Q822 365 819.5 327.0Q817 289 819.5 259.5Q822 230 827 215Q837 187 850.0 183.5Q863 180 863 180L847 143Q847 143 836.0 147.5Q825 152 811.0 167.0Q797 182 789 214Q775 263 782.5 337.5Q790 412 819 483Z" fill="#c8c8c8" stroke="none" transform="scale(1,-1) translate(0,-256)" /></svg>