<?xml version="1.0" encoding="utf-8" ?>
<svg baseProfile="full" height="256" version="1.1" width="256" xmlns="http://www.w3.org/2000/svg" xmlns:ev="http://www.w3.org/2001/xml-events" xmlns:xlink="http://www.w3.org/1999/xlink"><defs /><path d="M135 645Q144 630 144.5 633.5Q145 637 143.0 654.5Q141 672 141.5 698.0Q142 724 150 755Q164 800 202 831Q229 853 267.5 860.0Q306 867 333 861Q333 861 342.0 860.5Q351 860 361.0 861.5Q371 863 372 871Q375 882 364.0 886.5Q353 891 353 891Q308 903 262.0 891.0Q216 879 183 853Q158 832 143.0 804.5Q128 777 122 745Q118 724 119.5 695.5Q121 667 135 645Z" fill="#b9e4ea" stroke="none" transform="scale(1,-1) translate(0,-256)" /><path d="M1103 -95Q1107 -91 1119.5 -77.0Q1132 -63 1145.0 -37.5Q1158 -12 1165.0 25.0Q1172 62 1164 111Q1162 121 1158.0 139.0Q1154 157 1146 167Q1141 173 1136.0 171.0Q1131 169 1135 155Q1143 120 1144.5 90.5Q1146 61 1136.5 30.0Q1127 -1 1102 -40Q1099 -45 1085.5 -61.5Q1072 -78 1054 -95Q1046 -103 1044.5 -110.5Q1043 -118 1048 -121Q1058 -126 1073.0 -118.0Q1088 -110 1103 -95Z" fill="#b9e4ea" stroke="none" transform="scale(1,-1) translate(0,-256)" /><path d="M835 178Q852 192 864.5 215.5Q877 239 875.5 271.5Q874 304 852 345Q842 363 837.5 357.0Q833 351 837 340Q852 295 846.0 268.0Q840 241 825.0 224.5Q810 208 799 195Q790 186 792.5 176.5Q795 167 806.5 165.0Q818 163 835 178Z" fill="#b9e4ea" stroke="none" transform="scale(1,-1) translate(0,-256)" /></svg>