<?xml version="1.0" encoding="utf-8" ?>
<svg baseProfile="full" height="256" version="1.1" width="256" xmlns="http://www.w3.org/2000/svg" xmlns:ev="http://www.w3.org/2001/xml-events" xmlns:xlink="http://www.w3.org/1999/xlink"><defs /><path d="M997 308Q964 314 944 287Q929 268 905 269H903Q887 269 873 261Q851 247 828 261Q815 269 799 269Q795 269 792 269Q766 265 750 286Q733 309 704 309Q694 309 685 305Q697 250 741.5 213.5Q786 177 845 178Q903 178 947.5 215.0Q992 252 1003 307Q1001 308 997 308Z" fill="#29b6f6" stroke="none" transform="scale(1,-1) translate(0,-256)" /><path d="M599 308Q566 314 546 287Q531 268 507 269H505Q489 269 475 261Q453 247 430 261Q417 269 401 269Q397 269 394 269Q368 265 352 286Q335 309 306 309Q294 309 283 304Q295 249 339.0 213.0Q383 177 442 178Q501 178 545.0 215.0Q589 252 601 308Q600 308 599 308Z" fill="#29b6f6" stroke="none" transform="scale(1,-1) translate(0,-256)" /></svg>