<?xml version="1.0" encoding="utf-8" ?>
<svg baseProfile="full" height="256" version="1.1" width="256" xmlns="http://www.w3.org/2000/svg" xmlns:ev="http://www.w3.org/2001/xml-events" xmlns:xlink="http://www.w3.org/1999/xlink"><defs /><path d="M873 573Q881 575 895.0 571.0Q909 567 921.0 560.0Q933 553 935 547Q937 539 915.0 510.0Q893 481 871 434Q859 407 848.5 378.0Q838 349 831.5 329.0Q825 309 825 309L806 248Q806 248 795.0 247.0Q784 246 772.5 250.0Q761 254 761 268Q761 290 770.0 331.5Q779 373 794 415Q818 486 841.5 528.5Q865 571 873 573Z" fill="#fbde93" stroke="none" transform="scale(1,-1) translate(0,-256)" /><path d="M985 733Q999 741 1015.0 739.5Q1031 738 1031 738Q1031 738 1023.0 725.0Q1015 712 1002.5 692.0Q990 672 978 652Q966 632 956.5 612.0Q947 592 939.0 580.0Q931 568 924 571Q918 574 916.0 586.5Q914 599 916.0 614.5Q918 630 923 642Q929 653 940.5 673.0Q952 693 964.5 710.5Q977 728 985 733Z" fill="#fbde93" stroke="none" transform="scale(1,-1) translate(0,-256)" /><path d="M1045 615Q1059 622 1075.5 619.0Q1092 616 1092 616Q1092 616 1065.0 587.0Q1038 558 1005 511Q976 470 953.0 431.5Q930 393 913 383Q901 377 898.0 382.0Q895 387 897.0 397.5Q899 408 903 418Q909 434 924.0 467.0Q939 500 960 533Q968 545 983.5 562.5Q999 580 1016.0 595.0Q1033 610 1045 615Z" fill="#fbde93" stroke="none" transform="scale(1,-1) translate(0,-256)" /><path d="M944 884Q957 882 969.5 872.5Q982 863 982 863Q982 863 967.5 835.5Q953 808 936 773Q927 755 917.5 729.5Q908 704 898.5 679.5Q889 655 880.5 638.5Q872 622 866 623Q860 623 858.5 636.5Q857 650 857.5 667.0Q858 684 859.5 697.0Q861 710 861 710Q861 710 866.5 722.0Q872 734 879.5 751.5Q887 769 895 785Q902 801 911.5 825.0Q921 849 930.0 867.0Q939 885 944 884Z" fill="#fbde93" stroke="none" transform="scale(1,-1) translate(0,-256)" /><path d="M777 715Q787 726 802.5 727.5Q818 729 818 729Q818 729 818.0 716.5Q818 704 817.0 687.5Q816 671 815.0 657.5Q814 644 812 642Q809 639 799.5 644.0Q790 649 781.5 655.0Q773 661 773 661Q773 661 772.0 672.5Q771 684 772.0 697.0Q773 710 777 715Z" fill="#fbde93" stroke="none" transform="scale(1,-1) translate(0,-256)" /><path d="M710 653Q720 662 740.5 666.5Q761 671 768 667Q772 664 770.5 636.5Q769 609 764.0 571.5Q759 534 754 501Q751 481 747.0 451.0Q743 421 739.0 388.0Q735 355 731.0 326.5Q727 298 725.0 280.0Q723 262 723 262L664 252Q664 252 667.5 277.0Q671 302 675 330Q677 344 681.0 372.0Q685 400 689.5 433.5Q694 467 697.5 500.0Q701 533 703 556Q705 587 703.0 616.5Q701 646 710 653Z" fill="#fbde93" stroke="none" transform="scale(1,-1) translate(0,-256)" /><path d="M703 874Q718 876 733.5 872.0Q749 868 749 868Q749 868 741.0 847.0Q733 826 722.5 797.5Q712 769 703 747Q694 724 685.5 701.5Q677 679 670.0 664.0Q663 649 658 649Q652 649 653.5 668.5Q655 688 655 709Q655 722 655.5 742.0Q656 762 656.5 777.5Q657 793 657 793Q657 793 662.0 804.5Q667 816 674.5 832.0Q682 848 689.5 860.0Q697 872 703 874Z" fill="#fbde93" stroke="none" transform="scale(1,-1) translate(0,-256)" /><path d="M532 902Q540 910 552.5 913.5Q565 917 574.5 917.5Q584 918 584 918Q584 918 586.5 904.0Q589 890 592.5 871.0Q596 852 597 837Q599 816 600.5 766.0Q602 716 595 648Q588 580 580.0 541.5Q572 503 565 501Q562 500 559.0 511.5Q556 523 553.5 540.0Q551 557 549.0 571.5Q547 586 545 591Q541 603 536.5 604.5Q532 606 532 606Q532 606 533.5 623.5Q535 641 536.5 668.5Q538 696 539.0 727.5Q540 759 540 787Q539 845 532.0 869.5Q525 894 532 902Z" fill="#fbde93" stroke="none" transform="scale(1,-1) translate(0,-256)" /><path d="M411 821Q411 821 414.0 803.0Q417 785 420.5 758.0Q424 731 426.5 703.5Q429 676 428.0 656.0Q427 636 421 632Q410 626 395.5 636.0Q381 646 370.0 658.0Q359 670 359 670Q359 670 357.0 682.0Q355 694 353.0 710.0Q351 726 349 737Q348 754 347.0 765.5Q346 777 355 795Q361 806 374.5 812.0Q388 818 399.5 819.5Q411 821 411 821Z" fill="#fbde93" stroke="none" transform="scale(1,-1) translate(0,-256)" /><path d="M236 766Q236 766 247.0 749.5Q258 733 269.5 711.5Q281 690 282 674Q282 661 270.5 665.0Q259 669 250 672Q241 675 234.5 676.0Q228 677 228 677Q228 677 220.0 691.5Q212 706 203.0 722.0Q194 738 191 742Q185 749 185.5 757.5Q186 766 197 768Q208 770 222.0 768.0Q236 766 236 766Z" fill="#fbde93" stroke="none" transform="scale(1,-1) translate(0,-256)" /><path d="M304 410Q306 410 315.0 409.0Q324 408 334.0 408.0Q344 408 346 412Q349 415 343.5 433.5Q338 452 328.5 478.0Q319 504 307 530Q299 549 286.0 574.0Q273 599 260.0 622.0Q247 645 238.0 660.5Q229 676 229 676Q229 676 215.5 675.0Q202 674 192 671Q182 668 168.5 662.5Q155 657 155 651Q155 645 177.0 618.0Q199 591 224 553Q237 534 251.0 509.5Q265 485 277.0 462.5Q289 440 296.5 425.0Q304 410 304 410Z" fill="#fbde93" stroke="none" transform="scale(1,-1) translate(0,-256)" /><path d="M335 575Q336 579 345.0 583.5Q354 588 365.0 589.0Q376 590 381 584Q387 578 393.0 554.0Q399 530 404.5 498.5Q410 467 415.5 438.0Q421 409 425 393Q434 362 446.0 336.0Q458 310 458 310L418 296L382 370Q382 370 374.5 398.0Q367 426 359 458Q353 480 347.0 504.5Q341 529 337.0 548.5Q333 568 335 575Z" fill="#fbde93" stroke="none" transform="scale(1,-1) translate(0,-256)" /><path d="M460 590Q471 597 489.0 597.0Q507 597 513 593Q517 592 520.0 571.0Q523 550 525.5 520.5Q528 491 530.5 462.5Q533 434 535 418Q537 403 543.5 379.5Q550 356 557.0 332.5Q564 309 569.0 293.5Q574 278 574 278Q574 278 571.5 268.5Q569 259 566.0 249.0Q563 239 563 238Q562 236 555.5 243.0Q549 250 543.0 257.0Q537 264 537 264Q537 264 530.5 278.0Q524 292 516.5 309.0Q509 326 504 336Q498 351 488.0 381.0Q478 411 473 442Q470 457 466.5 481.0Q463 505 460.0 529.0Q457 553 456.5 570.0Q456 587 460 590Z" fill="#fbde93" stroke="none" transform="scale(1,-1) translate(0,-256)" /><path d="M628 587Q636 594 653.0 593.0Q670 592 675 575Q678 565 676.0 545.5Q674 526 670.5 506.0Q667 486 665 474Q664 467 661.5 443.5Q659 420 656.0 390.0Q653 360 650.0 331.0Q647 302 645.0 283.0Q643 264 643 264L593 260Q593 260 594.0 281.0Q595 302 597.0 331.5Q599 361 601 387Q603 406 605.5 437.5Q608 469 612.0 502.0Q616 535 620.0 559.5Q624 584 628 587Z" fill="#fbde93" stroke="none" transform="scale(1,-1) translate(0,-256)" /></svg>