<?xml version="1.0" encoding="utf-8" ?>
<svg baseProfile="full" height="256" version="1.1" width="256" xmlns="http://www.w3.org/2000/svg" xmlns:ev="http://www.w3.org/2001/xml-events" xmlns:xlink="http://www.w3.org/1999/xlink"><defs /><path d="M363 358Q371 356 384.0 342.5Q397 329 421.0 310.5Q445 292 487 274Q532 255 590.0 249.0Q648 243 704.5 248.5Q761 254 802 269Q837 283 862.5 305.0Q888 327 903.5 345.5Q919 364 926 369Q939 378 948.5 372.0Q958 366 958 366L897 45L825 -198Q825 -198 796.5 -202.5Q768 -207 726.0 -211.0Q684 -215 643 -214Q611 -213 578.0 -210.5Q545 -208 516.5 -205.0Q488 -202 470.5 -199.5Q453 -197 453 -197Z" fill="#ff2a23" stroke="none" transform="scale(1,-1) translate(0,-256)" /></svg>