<?xml version="1.0" encoding="utf-8" ?>
<svg baseProfile="full" height="256" version="1.1" width="256" xmlns="http://www.w3.org/2000/svg" xmlns:ev="http://www.w3.org/2001/xml-events" xmlns:xlink="http://www.w3.org/1999/xlink"><defs /><path d="M289 393Q289 393 300.0 398.5Q311 404 339 397Q360 391 374.5 381.0Q389 371 404.5 356.5Q420 342 444 324Q485 294 538.0 283.0Q591 272 639 271Q691 271 741.0 279.0Q791 287 830 313Q866 337 882.0 357.5Q898 378 911 386Q924 395 934.5 397.5Q945 400 948 394Q949 391 941.0 374.5Q933 358 922.0 338.0Q911 318 902.5 303.0Q894 288 894 288Q894 288 876.5 263.0Q859 238 831.0 196.5Q803 155 769.0 105.5Q735 56 701.5 6.0Q668 -44 639.5 -86.5Q611 -129 594.0 -156.0Q577 -183 576 -186Q576 -191 559.5 -193.5Q543 -196 520.5 -197.0Q498 -198 479.0 -198.0Q460 -198 454 -197Q443 -196 427.0 -193.0Q411 -190 400 -184Q388 -179 387.5 -173.5Q387 -168 386 -162Q386 -160 380.0 -129.5Q374 -99 365.5 -50.0Q357 -1 346.5 57.5Q336 116 325.5 174.5Q315 233 306.5 282.0Q298 331 293.0 361.0Q288 391 289 393Z" fill="#fd703f" stroke="none" transform="scale(1,-1) translate(0,-256)" /></svg>