<?xml version="1.0" encoding="utf-8" ?>
<svg baseProfile="full" height="256" version="1.1" width="256" xmlns="http://www.w3.org/2000/svg" xmlns:ev="http://www.w3.org/2001/xml-events" xmlns:xlink="http://www.w3.org/1999/xlink"><defs /><path d="M860 6Q860 10 877.0 8.0Q894 6 906 5Q911 5 931.0 3.5Q951 2 978.0 0.0Q1005 -2 1031.0 -4.0Q1057 -6 1074.5 -7.5Q1092 -9 1092 -10Q1093 -10 1093.5 -23.0Q1094 -36 1094.0 -48.5Q1094 -61 1094 -61L1054 -63Q1054 -63 1054.5 -50.0Q1055 -37 1052 -34Q1051 -32 1033.0 -32.5Q1015 -33 996.5 -34.5Q978 -36 976 -37Q974 -38 973.5 -51.5Q973 -65 973 -65L856 -67Z" fill="#c67c5d" stroke="none" transform="scale(1,-1) translate(0,-256)" /></svg>