<?xml version="1.0" encoding="utf-8" ?>
<svg baseProfile="full" height="256" version="1.1" width="256" xmlns="http://www.w3.org/2000/svg" xmlns:ev="http://www.w3.org/2001/xml-events" xmlns:xlink="http://www.w3.org/1999/xlink"><defs /><path d="M641 200Q676 199 730.5 195.0Q785 191 848.5 182.5Q912 174 974.5 160.5Q1037 147 1088.0 127.0Q1139 107 1168.5 79.5Q1198 52 1196 16Q1192 -39 1146.0 -82.0Q1100 -125 1025.0 -155.0Q950 -185 856.5 -200.0Q763 -215 665 -215Q587 -214 506.5 -203.5Q426 -193 352.5 -173.0Q279 -153 221.5 -124.5Q164 -96 130.5 -59.5Q97 -23 97 20Q97 57 127.0 84.5Q157 112 206.5 132.5Q256 153 316.0 166.5Q376 180 437.5 188.0Q499 196 552.5 198.5Q606 201 641 200Z" fill="#89af50" stroke="none" transform="scale(1,-1) translate(0,-256)" /></svg>