<?xml version="1.0" encoding="utf-8" ?>
<svg baseProfile="full" height="256" version="1.1" width="256" xmlns="http://www.w3.org/2000/svg" xmlns:ev="http://www.w3.org/2001/xml-events" xmlns:xlink="http://www.w3.org/1999/xlink"><defs /><path d="M636 806Q647 798 646.5 786.5Q646 775 641 768Q635 761 626.5 758.5Q618 756 608 761Q598 766 595.5 777.5Q593 789 599 799Q605 809 616.0 810.5Q627 812 636 806Z" fill="#ffffff" stroke="none" transform="scale(1,-1) translate(0,-256)" /><path d="M694 817Q700 824 707.0 823.0Q714 822 719 818Q724 814 724.0 805.5Q724 797 719 792Q715 788 707.5 787.0Q700 786 695 791Q689 796 688.5 803.5Q688 811 694 817Z" fill="#ffffff" stroke="none" transform="scale(1,-1) translate(0,-256)" /><path d="M448 910Q463 909 467.0 902.0Q471 895 472 892Q474 886 470.0 874.0Q466 862 450 862Q437 862 431.0 870.0Q425 878 425 886Q425 894 431.0 902.5Q437 911 448 910Z" fill="#ffffff" stroke="none" transform="scale(1,-1) translate(0,-256)" /><path d="M103 537Q100 546 104.0 554.5Q108 563 114 567Q121 570 131.0 569.0Q141 568 146 559Q151 550 149.5 540.0Q148 530 137 524Q126 518 116.5 523.0Q107 528 103 537Z" fill="#ffffff" stroke="none" transform="scale(1,-1) translate(0,-256)" /><path d="M1081 720Q1087 728 1099.0 730.0Q1111 732 1117 725Q1124 718 1125.5 708.5Q1127 699 1120 689Q1113 680 1101.5 679.0Q1090 678 1082 684Q1075 691 1075.0 701.0Q1075 711 1081 720Z" fill="#ffffff" stroke="none" transform="scale(1,-1) translate(0,-256)" /><path d="M956 901Q962 908 970.5 907.0Q979 906 984 902Q988 897 989.0 888.0Q990 879 985 873Q980 866 971.0 865.0Q962 864 956 869Q948 876 949.0 885.5Q950 895 956 901Z" fill="#ffffff" stroke="none" transform="scale(1,-1) translate(0,-256)" /><path d="M316 714Q316 714 307.0 714.0Q298 714 289.0 712.5Q280 711 280 706Q280 700 292.5 690.5Q305 681 305 681Q305 681 302.0 672.5Q299 664 297.5 654.5Q296 645 300 643Q303 641 311.0 646.5Q319 652 325.5 658.0Q332 664 332 664Q332 664 340.0 659.0Q348 654 356.5 650.0Q365 646 367 647Q369 649 367.5 657.5Q366 666 364.0 674.0Q362 682 362 682Q362 682 367.5 687.0Q373 692 378.5 697.5Q384 703 383 707Q382 711 367.0 712.5Q352 714 352 714Q352 714 348.5 723.0Q345 732 340.5 741.0Q336 750 333 749Q330 749 326.0 740.0Q322 731 319.0 722.5Q316 714 316 714Z" fill="#ffffff" stroke="none" transform="scale(1,-1) translate(0,-256)" /></svg>