<?xml version="1.0" encoding="utf-8" ?>
<svg baseProfile="full" height="256" version="1.1" width="256" xmlns="http://www.w3.org/2000/svg" xmlns:ev="http://www.w3.org/2001/xml-events" xmlns:xlink="http://www.w3.org/1999/xlink"><defs /><path d="M865 -43 1051 -15 1093 -46Q1093 -46 1093.5 -54.0Q1094 -62 1094.5 -70.5Q1095 -79 1093 -79Q1091 -80 1081.0 -80.0Q1071 -80 1061.5 -79.5Q1052 -79 1052 -79Q1052 -79 1051.0 -90.5Q1050 -102 1048 -104Q1047 -106 1030.5 -106.5Q1014 -107 997.5 -106.5Q981 -106 978 -104Q974 -100 974.0 -90.5Q974 -81 974 -81Q974 -81 956.5 -81.5Q939 -82 916.0 -82.5Q893 -83 875.5 -83.0Q858 -83 857 -82Q855 -80 855.5 -73.5Q856 -67 856 -67Z" fill="#a05c3c" stroke="none" transform="scale(1,-1) translate(0,-256)" /></svg>