<?xml version="1.0" encoding="utf-8" ?>
<svg baseProfile="full" height="256" version="1.1" width="256" xmlns="http://www.w3.org/2000/svg" xmlns:ev="http://www.w3.org/2001/xml-events" xmlns:xlink="http://www.w3.org/1999/xlink"><defs /><path d="M182 60 323 42 602 16 749 422Q749 422 750.5 432.5Q752 443 753.5 457.0Q755 471 755.5 482.5Q756 494 754 494Q752 495 725.5 496.0Q699 497 660.0 498.0Q621 499 579.0 499.0Q537 499 504 498Q460 497 421.5 495.0Q383 493 358.5 490.5Q334 488 331 485Q326 482 316.5 456.0Q307 430 296 406Q288 391 273.5 355.5Q259 320 242.0 276.0Q225 232 208 190Q184 126 176.5 99.0Q169 72 169 72Z" fill="#f19f40" stroke="none" transform="scale(1,-1) translate(0,-256)" /></svg>