<?xml version="1.0" encoding="utf-8" ?>
<svg baseProfile="full" height="256" version="1.1" width="256" xmlns="http://www.w3.org/2000/svg" xmlns:ev="http://www.w3.org/2001/xml-events" xmlns:xlink="http://www.w3.org/1999/xlink"><defs /><path d="M350.0 583.593994140625Q332.0 583.593994140625 332.0 565.593994140625Q332.0 546.593994140625 350.0 546.593994140625H923.0Q942.0 546.593994140625 942.0 565.593994140625Q942.0 583.593994140625 923.0 583.593994140625Z" fill="#b0bec5" stroke="none" transform="scale(1,-1) translate(0,-256)" /><path d="M350.0 446.43800354003906Q332.0 446.43800354003906 332.0 428.43800354003906Q332.0 409.43800354003906 350.0 409.43800354003906H923.0Q942.0 409.43800354003906 942.0 428.43800354003906Q942.0 446.43800354003906 923.0 446.43800354003906Z" fill="#b0bec5" stroke="none" transform="scale(1,-1) translate(0,-256)" /><path d="M350.0 309.375Q332.0 309.375 332.0 291.375Q332.0 272.375 350.0 272.375H923.0Q942.0 272.375 942.0 291.375Q942.0 309.375 923.0 309.375Z" fill="#b0bec5" stroke="none" transform="scale(1,-1) translate(0,-256)" /><path d="M350.0 172.218994140625Q332.0 172.218994140625 332.0 154.218994140625Q332.0 135.218994140625 350.0 135.218994140625H923.0Q942.0 135.218994140625 942.0 154.218994140625Q942.0 172.218994140625 923.0 172.218994140625Z" fill="#b0bec5" stroke="none" transform="scale(1,-1) translate(0,-256)" /><path d="M350.0 34.593994140625Q332.0 34.593994140625 332.0 16.593994140625Q332.0 -1.406005859375 350.0 -1.406005859375H595.0Q613.0 -1.406005859375 613.0 16.593994140625Q613.0 34.593994140625 595.0 34.593994140625Z" fill="#b0bec5" stroke="none" transform="scale(1,-1) translate(0,-256)" /></svg>