<?xml version="1.0" encoding="utf-8" ?>
<svg baseProfile="full" height="256" version="1.1" width="256" xmlns="http://www.w3.org/2000/svg" xmlns:ev="http://www.w3.org/2001/xml-events" xmlns:xlink="http://www.w3.org/1999/xlink"><defs /><path d="M466 730Q469 734 480.5 729.5Q492 725 502.5 716.5Q513 708 513 701Q512 694 500.5 687.5Q489 681 477.0 678.0Q465 675 462 679Q459 682 464.5 688.0Q470 694 476.0 698.5Q482 703 482 703Q482 703 472.0 713.0Q462 723 466 730Z" fill="#ffe068" stroke="none" transform="scale(1,-1) translate(0,-256)" /><path d="M693 731Q696 730 695.5 717.0Q695 704 695 704Q695 704 708.5 702.5Q722 701 722 696Q722 693 711.0 687.0Q700 681 687.0 678.5Q674 676 669 681Q664 687 669.5 699.5Q675 712 683.0 722.0Q691 732 693 731Z" fill="#ffe068" stroke="none" transform="scale(1,-1) translate(0,-256)" /><path d="M526 520Q525 528 514.5 536.5Q504 545 493.0 550.0Q482 555 480 551Q477 546 485.5 534.0Q494 522 494 522Q494 522 488.0 516.5Q482 511 477.0 504.0Q472 497 475 493Q478 488 490.5 492.5Q503 497 515.0 505.5Q527 514 526 520Z" fill="#ffe068" stroke="none" transform="scale(1,-1) translate(0,-256)" /><path d="M769 552Q772 551 769.0 544.0Q766 537 762.5 530.0Q759 523 759 523Q759 523 771.5 517.5Q784 512 784 508Q784 505 771.5 502.0Q759 499 746.0 500.0Q733 501 732 510Q730 519 738.0 529.5Q746 540 756.0 547.0Q766 554 769 552Z" fill="#ffe068" stroke="none" transform="scale(1,-1) translate(0,-256)" /><path d="M565 418Q568 421 580.0 417.0Q592 413 602.0 405.0Q612 397 612 387Q612 376 599.5 370.0Q587 364 574.0 363.0Q561 362 560 365Q559 368 564.5 374.0Q570 380 575.5 385.5Q581 391 581 391Q581 391 576.5 397.0Q572 403 567.5 409.5Q563 416 565 418Z" fill="#ffe068" stroke="none" transform="scale(1,-1) translate(0,-256)" /><path d="M483 304Q485 309 498.5 304.5Q512 300 524.0 291.5Q536 283 535 274Q534 265 522.5 257.5Q511 250 498.5 246.0Q486 242 484 245Q481 248 486.0 255.5Q491 263 496.5 270.0Q502 277 502 277Q502 277 497.0 283.0Q492 289 487.0 295.5Q482 302 483 304Z" fill="#ffe068" stroke="none" transform="scale(1,-1) translate(0,-256)" /><path d="M722 311Q722 320 731.5 328.0Q741 336 752.0 340.5Q763 345 766 342Q767 340 763.0 333.0Q759 326 755.0 320.0Q751 314 751 314Q751 314 756.5 309.5Q762 305 767.5 300.0Q773 295 772 292Q770 289 758.0 289.0Q746 289 734.5 294.5Q723 300 722 311Z" fill="#ffe068" stroke="none" transform="scale(1,-1) translate(0,-256)" /><path d="M516 158Q518 160 530.5 157.5Q543 155 554.5 146.5Q566 138 562 123Q560 114 546.5 109.5Q533 105 520.0 105.5Q507 106 506 109Q505 113 512.0 118.5Q519 124 526.5 128.0Q534 132 534 132Q534 132 528.5 137.5Q523 143 518.5 149.5Q514 156 516 158Z" fill="#ffe068" stroke="none" transform="scale(1,-1) translate(0,-256)" /><path d="M655 16Q655 28 665.5 37.5Q676 47 687.0 52.0Q698 57 700 54Q701 51 696.5 43.5Q692 36 687.5 29.0Q683 22 683 22Q683 22 690.0 16.5Q697 11 703.5 4.5Q710 -2 708 -5Q706 -8 693.0 -6.0Q680 -4 667.5 1.5Q655 7 655 16Z" fill="#ffe068" stroke="none" transform="scale(1,-1) translate(0,-256)" /><path d="M747 111Q746 118 756.0 126.0Q766 134 777.0 138.5Q788 143 790 139Q793 134 785.0 124.5Q777 115 777 115Q777 115 783.0 110.5Q789 106 795.5 101.0Q802 96 801 92Q801 88 787.5 89.0Q774 90 761.0 95.5Q748 101 747 111Z" fill="#ffe068" stroke="none" transform="scale(1,-1) translate(0,-256)" /><path d="M561 -71Q560 -61 550.5 -52.5Q541 -44 531.5 -40.0Q522 -36 520 -39Q518 -42 522.5 -49.0Q527 -56 532.0 -63.0Q537 -70 537 -70Q537 -70 532.5 -77.0Q528 -84 524.5 -92.0Q521 -100 523 -104Q524 -106 534.0 -101.5Q544 -97 553.0 -88.5Q562 -80 561 -71Z" fill="#ffe068" stroke="none" transform="scale(1,-1) translate(0,-256)" /><path d="M1014 447Q1015 457 1024.5 466.0Q1034 475 1044.5 479.5Q1055 484 1058 482Q1060 480 1057.0 473.5Q1054 467 1049.5 461.5Q1045 456 1045 456Q1045 456 1050.5 451.0Q1056 446 1061.5 440.0Q1067 434 1065 431Q1064 428 1051.5 429.5Q1039 431 1026.5 435.5Q1014 440 1014 447Z" fill="#ffe068" stroke="none" transform="scale(1,-1) translate(0,-256)" /><path d="M264 433Q263 441 253.5 447.0Q244 453 233.5 455.0Q223 457 220 453Q216 448 226.5 440.0Q237 432 237 432Q237 432 229.0 421.0Q221 410 224 406Q226 403 236.0 407.5Q246 412 255.0 419.0Q264 426 264 433Z" fill="#ffe068" stroke="none" transform="scale(1,-1) translate(0,-256)" /><path d="M275 368Q276 371 285.5 370.0Q295 369 303.5 363.5Q312 358 313 347Q313 337 305.0 329.0Q297 321 288.5 317.5Q280 314 277 317Q275 319 278.0 326.0Q281 333 285.5 339.0Q290 345 290 345Q290 345 281.0 355.0Q272 365 275 368Z" fill="#ffe068" stroke="none" transform="scale(1,-1) translate(0,-256)" /></svg>