<?xml version="1.0" encoding="utf-8" ?>
<svg baseProfile="full" height="256" version="1.1" width="256" xmlns="http://www.w3.org/2000/svg" xmlns:ev="http://www.w3.org/2001/xml-events" xmlns:xlink="http://www.w3.org/1999/xlink"><defs /><path d="M583 -214Q583 -214 583.0 -193.0Q583 -172 583.0 -141.5Q583 -111 583.0 -80.0Q583 -49 583.0 -28.0Q583 -7 583 -7Q583 -7 585.5 -4.5Q588 -2 591 1Q595 3 599.5 6.0Q604 9 604 9V-214Z" fill="#8f6d61" stroke="none" transform="scale(1,-1) translate(0,-256)" /><path d="M640 -214H660L658 18Q658 18 655.0 18.5Q652 19 649 19Q647 19 643.5 19.0Q640 19 640 19Z" fill="#8f6d61" stroke="none" transform="scale(1,-1) translate(0,-256)" /><path d="M698 3 697 -214H717L716 -13Q716 -13 714.0 -10.5Q712 -8 709 -5Q705 -2 701.5 0.5Q698 3 698 3Z" fill="#8f6d61" stroke="none" transform="scale(1,-1) translate(0,-256)" /></svg>