<?xml version="1.0" encoding="utf-8" ?>
<svg baseProfile="full" height="256" version="1.1" width="256" xmlns="http://www.w3.org/2000/svg" xmlns:ev="http://www.w3.org/2001/xml-events" xmlns:xlink="http://www.w3.org/1999/xlink"><defs /><path d="M1041 591 1070 594Q1070 594 1069.5 603.5Q1069 613 1069.5 623.0Q1070 633 1073 634Q1084 640 1098.0 643.0Q1112 646 1139 654Q1171 663 1187.5 675.5Q1204 688 1213 693Q1222 698 1219.0 703.0Q1216 708 1211 708Q1207 708 1182.0 705.5Q1157 703 1132 707Q1107 711 1088.5 719.0Q1070 727 1055 731Q1049 733 1044.5 729.5Q1040 726 1040 722Q1040 720 1040.5 700.0Q1041 680 1041.0 654.5Q1041 629 1041.0 610.0Q1041 591 1041 591Z" fill="#fe2a22" stroke="none" transform="scale(1,-1) translate(0,-256)" /></svg>