<?xml version="1.0" encoding="utf-8" ?>
<svg baseProfile="full" height="256" version="1.1" width="256" xmlns="http://www.w3.org/2000/svg" xmlns:ev="http://www.w3.org/2001/xml-events" xmlns:xlink="http://www.w3.org/1999/xlink"><defs /><path d="M454 381 455 406Q455 406 466.5 407.0Q478 408 494.0 407.0Q510 406 525 400Q543 393 556.0 380.0Q569 367 570 367Q572 367 579.5 376.0Q587 385 602.0 394.5Q617 404 641 404Q667 405 684.0 395.0Q701 385 710.0 375.0Q719 365 720 365Q724 365 733.0 379.5Q742 394 762 403Q781 412 799.0 412.0Q817 412 817 412V391Q817 391 802.0 389.5Q787 388 770 379Q759 373 749.5 359.5Q740 346 732.5 334.5Q725 323 721 323Q716 323 707.0 338.5Q698 354 682.5 368.5Q667 383 643 381Q619 379 604.5 366.0Q590 353 582.0 340.5Q574 328 570 328Q568 328 560.0 338.0Q552 348 540.5 359.5Q529 371 516 377Q505 381 490.5 381.5Q476 382 465.0 381.5Q454 381 454 381Z" fill="#6f6b67" stroke="none" transform="scale(1,-1) translate(0,-256)" /></svg>