<?xml version="1.0" encoding="utf-8" ?>
<svg baseProfile="full" height="256" version="1.1" width="256" xmlns="http://www.w3.org/2000/svg" xmlns:ev="http://www.w3.org/2001/xml-events" xmlns:xlink="http://www.w3.org/1999/xlink"><defs /><path d="M544.7210083007812 366.7927551269531Q544.7210083007812 377.8359069824219 540.5798263549805 387.5462646484375Q536.4386444091797 397.2566223144531 529.060676574707 404.6345901489258Q521.6827087402344 412.01255798339844 511.97235107421875 416.2013397216797Q502.2619934082031 420.39012145996094 491.2188415527344 420.39012145996094Q480.0804901123047 420.39012145996094 470.37013244628906 416.2013397216797Q460.65977478027344 412.01255798339844 453.2818069458008 404.6345901489258Q445.9038391113281 397.2566223144531 441.76265716552734 387.5462646484375Q437.62147521972656 377.8359069824219 437.62147521972656 366.7927551269531Q437.62147521972656 355.7496032714844 441.76265716552734 346.03924560546875Q445.9038391113281 336.3288879394531 453.2818069458008 328.95092010498047Q460.65977478027344 321.5729522705078 470.37013244628906 317.43177032470703Q480.0804901123047 313.29058837890625 491.2188415527344 313.29058837890625Q502.2619934082031 313.29058837890625 511.97235107421875 317.43177032470703Q521.6827087402344 321.5729522705078 529.060676574707 328.95092010498047Q536.4386444091797 336.3288879394531 540.5798263549805 346.03924560546875Q544.7210083007812 355.7496032714844 544.7210083007812 366.7927551269531Z" fill="#c8c8c8" stroke="none" transform="scale(1,-1) translate(0,-256)" /><path d="M819.9710083007812 365.0115509033203Q819.9710083007812 376.05470275878906 815.8298263549805 385.7650604248047Q811.6886444091797 395.4754180908203 804.310676574707 402.85338592529297Q796.9327087402344 410.2313537597656 787.2223510742188 414.4201354980469Q777.5119934082031 418.6089172363281 766.4688415527344 418.6089172363281Q755.3304901123047 418.6089172363281 745.6201324462891 414.4201354980469Q735.9097747802734 410.2313537597656 728.5318069458008 402.85338592529297Q721.1538391113281 395.4754180908203 717.0126571655273 385.7650604248047Q712.8714752197266 376.05470275878906 712.8714752197266 365.0115509033203Q712.8714752197266 353.96839904785156 717.0126571655273 344.25804138183594Q721.1538391113281 334.5476837158203 728.5318069458008 327.16971588134766Q735.9097747802734 319.791748046875 745.6201324462891 315.6505661010742Q755.3304901123047 311.50938415527344 766.4688415527344 311.50938415527344Q777.5119934082031 311.50938415527344 787.2223510742188 315.6505661010742Q796.9327087402344 319.791748046875 804.310676574707 327.16971588134766Q811.6886444091797 334.5476837158203 815.8298263549805 344.25804138183594Q819.9710083007812 353.96839904785156 819.9710083007812 365.0115509033203Z" fill="#c8c8c8" stroke="none" transform="scale(1,-1) translate(0,-256)" /></svg>