<?xml version="1.0" encoding="utf-8" ?>
<svg baseProfile="full" height="256" version="1.1" width="256" xmlns="http://www.w3.org/2000/svg" xmlns:ev="http://www.w3.org/2001/xml-events" xmlns:xlink="http://www.w3.org/1999/xlink"><defs /><path d="M912 227Q919 235 934.5 217.5Q950 200 969.0 170.0Q988 140 1006 111Q1032 68 1050.5 47.0Q1069 26 1065 19Q1062 11 1043.5 11.0Q1025 11 999 34Q985 47 971.5 76.0Q958 105 947.5 134.5Q937 164 932 178Q923 199 915.0 209.5Q907 220 912 227Z" fill="#9e9e9e" stroke="none" transform="scale(1,-1) translate(0,-256)" /><path d="M136 250Q144 251 143.5 237.5Q143 224 147 187Q149 160 152.0 134.0Q155 108 163.5 88.0Q172 68 192 59Q211 50 228.5 55.5Q246 61 259.5 68.5Q273 76 279 73Q284 71 280.5 57.5Q277 44 263.5 29.0Q250 14 226 7Q213 3 191.0 4.5Q169 6 148.0 16.5Q127 27 119 51Q111 73 111.0 106.0Q111 139 115.5 171.5Q120 204 126.0 226.5Q132 249 136 250Z" fill="#9e9e9e" stroke="none" transform="scale(1,-1) translate(0,-256)" /><path d="M394 557Q396 557 404.0 555.5Q412 554 419.0 548.0Q426 542 426 526Q426 502 413.0 496.5Q400 491 394 491Q391 491 382.0 491.0Q373 491 364.5 491.0Q356 491 356 491V452Q356 452 355.0 444.0Q354 436 347.0 428.5Q340 421 323 421Q299 421 295.0 434.5Q291 448 290 452Q290 455 290.0 464.5Q290 474 290.5 483.0Q291 492 291 492Q291 492 281.5 492.0Q272 492 261.5 492.0Q251 492 248 492Q244 492 230.5 497.0Q217 502 217 525Q217 549 230.0 553.0Q243 557 248 557Q252 557 262.0 557.0Q272 557 281.5 557.0Q291 557 291 557Q291 557 291.0 566.0Q291 575 291.0 585.0Q291 595 291 598Q291 600 292.0 608.0Q293 616 299.5 623.0Q306 630 322 630Q340 630 347.0 622.0Q354 614 355.0 606.0Q356 598 356 598V557Q356 557 364.5 557.0Q373 557 382.5 557.0Q392 557 394 557Z" fill="#9e9e9e" stroke="none" transform="scale(1,-1) translate(0,-256)" /></svg>