<?xml version="1.0" encoding="utf-8" ?>
<svg baseProfile="full" height="256" version="1.1" width="256" xmlns="http://www.w3.org/2000/svg" xmlns:ev="http://www.w3.org/2001/xml-events" xmlns:xlink="http://www.w3.org/1999/xlink"><defs /><path d="M970.7298126220703 439.26377868652344Q970.7298126220703 448.1616668701172 967.3931045532227 455.9856719970703Q964.056396484375 463.80967712402344 958.111686706543 469.75438690185547Q952.1669769287109 475.6990966796875 944.3429718017578 479.07415771484375Q936.5189666748047 482.44921875 927.6210784912109 482.44921875Q918.646484375 482.44921875 910.8224792480469 479.07415771484375Q902.9984741210938 475.6990966796875 897.0537643432617 469.75438690185547Q891.1090545654297 463.80967712402344 887.772346496582 455.9856719970703Q884.4356384277344 448.1616668701172 884.4356384277344 439.26377868652344Q884.4356384277344 430.3658905029297 887.772346496582 422.54188537597656Q891.1090545654297 414.71788024902344 897.0537643432617 408.7731704711914Q902.9984741210938 402.8284606933594 910.8224792480469 399.4917526245117Q918.646484375 396.15504455566406 927.6210784912109 396.15504455566406Q936.5189666748047 396.15504455566406 944.3429718017578 399.4917526245117Q952.1669769287109 402.8284606933594 958.111686706543 408.7731704711914Q964.056396484375 414.71788024902344 967.3931045532227 422.54188537597656Q970.7298126220703 430.3658905029297 970.7298126220703 439.26377868652344Z" fill="#06ac48" stroke="none" transform="scale(1,-1) translate(0,-256)" /></svg>