<?xml version="1.0" encoding="utf-8" ?>
<svg baseProfile="full" height="256" version="1.1" width="256" xmlns="http://www.w3.org/2000/svg" xmlns:ev="http://www.w3.org/2001/xml-events" xmlns:xlink="http://www.w3.org/1999/xlink"><defs /><path d="M885.2298126220703 521.8574829101562Q885.2298126220703 530.75537109375 881.8931045532227 538.5793762207031Q878.556396484375 546.4033813476562 872.611686706543 552.3480911254883Q866.6669769287109 558.2928009033203 858.8429718017578 561.6678619384766Q851.0189666748047 565.0429229736328 842.1210784912109 565.0429229736328Q833.146484375 565.0429229736328 825.3224792480469 561.6678619384766Q817.4984741210938 558.2928009033203 811.5537643432617 552.3480911254883Q805.6090545654297 546.4033813476562 802.272346496582 538.5793762207031Q798.9356384277344 530.75537109375 798.9356384277344 521.8574829101562Q798.9356384277344 512.9595947265625 802.272346496582 505.1355895996094Q805.6090545654297 497.31158447265625 811.5537643432617 491.3668746948242Q817.4984741210938 485.4221649169922 825.3224792480469 482.08545684814453Q833.146484375 478.7487487792969 842.1210784912109 478.7487487792969Q851.0189666748047 478.7487487792969 858.8429718017578 482.08545684814453Q866.6669769287109 485.4221649169922 872.611686706543 491.3668746948242Q878.556396484375 497.31158447265625 881.8931045532227 505.1355895996094Q885.2298126220703 512.9595947265625 885.2298126220703 521.8574829101562Z" fill="#2086fa" stroke="none" transform="scale(1,-1) translate(0,-256)" /></svg>