<?xml version="1.0" encoding="utf-8" ?>
<svg baseProfile="full" height="256" version="1.1" width="256" xmlns="http://www.w3.org/2000/svg" xmlns:ev="http://www.w3.org/2001/xml-events" xmlns:xlink="http://www.w3.org/1999/xlink"><defs /><path d="M828 182 940 219 981 115Q981 115 976.0 104.5Q971 94 962.5 80.5Q954 67 945.5 56.0Q937 45 930 45Q922 45 916.5 52.5Q911 60 907.5 67.5Q904 75 903 75Q901 75 900.0 64.5Q899 54 895.0 44.0Q891 34 880 36Q869 38 865.5 48.0Q862 58 862.5 67.5Q863 77 863 77Q863 77 849.5 80.0Q836 83 819 95Q805 105 791.0 120.0Q777 135 777 135Z" fill="#fea8a7" stroke="none" transform="scale(1,-1) translate(0,-256)" /></svg>