<?xml version="1.0" encoding="utf-8" ?>
<svg baseProfile="full" height="256" version="1.1" width="256" xmlns="http://www.w3.org/2000/svg" xmlns:ev="http://www.w3.org/2001/xml-events" xmlns:xlink="http://www.w3.org/1999/xlink"><defs /><path d="M452 677 477 627 521 587Q521 587 530.5 583.0Q540 579 551.0 575.0Q562 571 566 571Q572 571 585.5 571.0Q599 571 599 571L854 466L994 570Q994 570 1009.5 574.0Q1025 578 1044 574Q1052 572 1067.0 562.0Q1082 552 1095.5 542.0Q1109 532 1111 530Q1113 527 1113.0 513.0Q1113 499 1113 499Q1113 499 1126.0 490.0Q1139 481 1152.5 471.0Q1166 461 1166 457Q1167 452 1169.0 424.5Q1171 397 1167 369Q1167 365 1162.0 341.5Q1157 318 1152 299Q1146 281 1145.5 260.0Q1145 239 1144 224Q1144 208 1144.0 189.0Q1144 170 1136 169Q1131 169 1127.5 179.0Q1124 189 1121.5 202.0Q1119 215 1118 224Q1117 233 1116.5 248.0Q1116 263 1115.5 274.5Q1115 286 1115 286Q1115 286 1110.0 269.5Q1105 253 1097.0 229.5Q1089 206 1082.0 184.0Q1075 162 1072 152Q1067 137 1060.5 109.5Q1054 82 1048.5 56.0Q1043 30 1040 19Q1038 11 1036.0 -6.0Q1034 -23 1032.5 -42.0Q1031 -61 1029.0 -75.5Q1027 -90 1026 -93Q1023 -100 1013.0 -112.0Q1003 -124 973 -128Q946 -132 937.0 -123.5Q928 -115 925 -108Q922 -101 927.5 -72.5Q933 -44 934 -17Q934 11 932.0 42.0Q930 73 929 91Q928 103 925.5 117.5Q923 132 920.5 143.0Q918 154 918 154Q918 154 900.0 150.5Q882 147 860 144Q838 141 816.5 140.5Q795 140 795 140Q795 140 792.5 129.0Q790 118 789 109Q787 100 780.0 78.0Q773 56 764 36Q761 28 762.0 11.0Q763 -6 765.5 -23.5Q768 -41 769 -52Q770 -63 774.0 -81.5Q778 -100 779.5 -118.0Q781 -136 774 -145Q764 -160 742.5 -166.5Q721 -173 701 -170Q689 -168 681.0 -158.5Q673 -149 673 -139Q672 -131 674.5 -105.5Q677 -80 678 -60Q679 -47 678.0 -27.5Q677 -8 675.5 10.5Q674 29 673 38Q671 45 667.5 60.0Q664 75 660.5 91.5Q657 108 654.0 119.0Q651 130 651 130L457 224Q457 224 446.5 241.0Q436 258 429 274Q425 285 419.5 298.5Q414 312 410.0 322.5Q406 333 406 333Q406 333 386.0 339.5Q366 346 340.0 354.5Q314 363 298 369Q281 375 256.5 386.0Q232 397 213.0 405.5Q194 414 194 414L140 410L118 426Q118 426 111.5 436.5Q105 447 96.5 461.5Q88 476 82.0 488.0Q76 500 77 504Q79 510 85.0 514.0Q91 518 99 523Q108 529 122.0 538.5Q136 548 146 555Q152 559 162.5 566.5Q173 574 181.5 579.5Q190 585 190 585L263 656L384 715Q384 715 399.0 712.0Q414 709 425 702Q435 696 444.0 688.0Q453 680 452 677Z" fill="#dfdfdf" stroke="none" transform="scale(1,-1) translate(0,-256)" /></svg>