<?xml version="1.0" encoding="utf-8" ?>
<svg baseProfile="full" height="256" version="1.1" width="256" xmlns="http://www.w3.org/2000/svg" xmlns:ev="http://www.w3.org/2001/xml-events" xmlns:xlink="http://www.w3.org/1999/xlink"><defs /><path d="M733 322 773 315V258Q773 258 779.5 250.5Q786 243 786 227Q786 211 774.0 202.0Q762 193 748 195Q734 196 724.5 206.0Q715 216 714 230Q713 246 723.0 254.5Q733 263 733 263Z" fill="#5d6268" stroke="none" transform="scale(1,-1) translate(0,-256)" /><path d="M869 301 898 291Q898 291 908.5 283.5Q919 276 919 261Q920 245 911.0 236.5Q902 228 889 228Q860 228 857 257Q856 271 862.5 278.0Q869 285 869 285Z" fill="#5d6268" stroke="none" transform="scale(1,-1) translate(0,-256)" /><path d="M1001 261 1057 263Q1057 263 1057.0 253.0Q1057 243 1057.5 232.5Q1058 222 1058 221Q1058 219 1053.0 218.5Q1048 218 1048 218Q1048 218 1060.0 212.0Q1072 206 1073 187Q1073 153 1037 153Q1003 153 1001 185Q1000 201 1009.5 208.5Q1019 216 1019 216Q1019 216 1012.0 216.0Q1005 216 1003 217Q1002 219 1001.5 229.5Q1001 240 1001.0 250.5Q1001 261 1001 261Z" fill="#5d6268" stroke="none" transform="scale(1,-1) translate(0,-256)" /><path d="M628 277Q640 277 644.0 263.5Q648 250 648 233Q648 216 642.5 199.0Q637 182 625 182Q613 182 608.0 198.0Q603 214 604 235Q605 254 612.0 265.5Q619 277 628 277Z" fill="#5d6268" stroke="none" transform="scale(1,-1) translate(0,-256)" /></svg>