<?xml version="1.0" encoding="utf-8" ?>
<svg baseProfile="full" height="256" version="1.1" width="256" xmlns="http://www.w3.org/2000/svg" xmlns:ev="http://www.w3.org/2001/xml-events" xmlns:xlink="http://www.w3.org/1999/xlink"><defs /><path d="M1053 356Q1059 356 1071.0 355.5Q1083 355 1098 357Q1112 359 1120.0 364.5Q1128 370 1128 370Q1128 370 1131.0 366.0Q1134 362 1137 359Q1139 355 1141.5 352.0Q1144 349 1144 349Q1144 349 1140.5 342.5Q1137 336 1119 331Q1101 326 1081.0 327.0Q1061 328 1052 330Q1037 333 1037 345Q1037 357 1053 356Z" fill="#385662" stroke="none" transform="scale(1,-1) translate(0,-256)" /><path d="M408 491Q416 491 418.0 485.0Q420 479 420 474Q420 468 417.0 463.0Q414 458 407 459Q400 459 398.0 465.0Q396 471 396 476Q396 481 398.5 486.0Q401 491 408 491Z" fill="#385662" stroke="none" transform="scale(1,-1) translate(0,-256)" /><path d="M475 470Q486 469 486 454Q486 435 474 437Q461 438 462 455Q463 470 475 470Z" fill="#385662" stroke="none" transform="scale(1,-1) translate(0,-256)" /><path d="M538 454Q550 454 551 438Q551 421 538 422Q531 422 529.0 428.0Q527 434 527 439Q527 444 530.0 449.0Q533 454 538 454Z" fill="#385662" stroke="none" transform="scale(1,-1) translate(0,-256)" /><path d="M751 407Q759 407 760.5 401.0Q762 395 762 390Q762 384 759.0 379.5Q756 375 749 375Q742 375 740.5 381.0Q739 387 739 392Q739 398 741.5 403.0Q744 408 751 407Z" fill="#385662" stroke="none" transform="scale(1,-1) translate(0,-256)" /><path d="M822.0630035400391 391.81199645996094Q833.0630035400391 390.81199645996094 833.0630035400391 375.81199645996094Q833.0630035400391 356.81199645996094 821.0630035400391 358.81199645996094Q808.0630035400391 359.81199645996094 809.0630035400391 376.81199645996094Q810.0630035400391 391.81199645996094 822.0630035400391 391.81199645996094Z" fill="#385662" stroke="none" transform="scale(1,-1) translate(0,-256)" /><path d="M893.218994140625 372.531005859375Q905.218994140625 372.531005859375 906.218994140625 356.531005859375Q906.218994140625 339.531005859375 893.218994140625 340.531005859375Q886.218994140625 340.531005859375 884.218994140625 346.531005859375Q882.218994140625 352.531005859375 882.218994140625 357.531005859375Q882.218994140625 362.531005859375 885.218994140625 367.531005859375Q888.218994140625 372.531005859375 893.218994140625 372.531005859375Z" fill="#385662" stroke="none" transform="scale(1,-1) translate(0,-256)" /><path d="M606 438Q614 438 615.5 432.0Q617 426 617 421Q617 415 614.5 410.0Q612 405 605 406Q598 406 596.0 412.0Q594 418 594 423Q594 428 596.5 433.0Q599 438 606 438Z" fill="#385662" stroke="none" transform="scale(1,-1) translate(0,-256)" /><path d="M675.8119964599609 423.718994140625Q687.8119964599609 423.718994140625 688.8119964599609 407.718994140625Q688.8119964599609 390.718994140625 675.8119964599609 391.718994140625Q668.8119964599609 391.718994140625 666.8119964599609 397.718994140625Q664.8119964599609 403.718994140625 664.8119964599609 408.718994140625Q664.8119964599609 413.718994140625 667.8119964599609 418.718994140625Q670.8119964599609 423.718994140625 675.8119964599609 423.718994140625Z" fill="#385662" stroke="none" transform="scale(1,-1) translate(0,-256)" /></svg>