<?xml version="1.0" encoding="utf-8" ?>
<svg baseProfile="full" height="256" version="1.1" width="256" xmlns="http://www.w3.org/2000/svg" xmlns:ev="http://www.w3.org/2001/xml-events" xmlns:xlink="http://www.w3.org/1999/xlink"><defs /><path d="M1026 858Q1024 880 1040.0 896.0Q1056 912 1077 910Q1097 908 1118.5 897.5Q1140 887 1158 868Q1177 850 1187.5 828.5Q1198 807 1200 787Q1202 766 1186.0 750.0Q1170 734 1148 736L1124 738Q1125 747 1119.5 762.5Q1114 778 1091 801Q1068 824 1052.5 829.5Q1037 835 1028 834Z" fill="#9e740b" stroke="none" transform="scale(1,-1) translate(0,-256)" /><path d="M595 757Q589 763 590.0 772.0Q591 781 599 787Q612 796 625 784Q641 770 667.5 746.5Q694 723 721.0 699.0Q748 675 767.0 658.5Q786 642 786 642Q786 642 796.5 634.0Q807 626 821 625Q838 624 853.0 622.0Q868 620 886 602Q905 583 907.5 567.0Q910 551 910 538Q910 526 918.0 513.5Q926 501 926 501Q926 501 942.5 482.5Q959 464 983.5 436.5Q1008 409 1031.5 382.5Q1055 356 1069 341Q1081 327 1071 314Q1066 307 1057.0 306.0Q1048 305 1041 310L872 449Q872 449 860.5 457.0Q849 465 838 464Q827 464 808.0 467.5Q789 471 773 487Q757 503 753.5 517.5Q750 532 749 551Q749 564 741.0 575.5Q733 587 733 587Z" fill="#9e740b" stroke="none" transform="scale(1,-1) translate(0,-256)" /></svg>