<?xml version="1.0" encoding="utf-8" ?>
<svg baseProfile="full" height="256" version="1.1" width="256" xmlns="http://www.w3.org/2000/svg" xmlns:ev="http://www.w3.org/2001/xml-events" xmlns:xlink="http://www.w3.org/1999/xlink"><defs /><path d="M621 480Q622 477 630.0 474.0Q638 471 645.5 470.0Q653 469 652 473Q652 473 651 474Q640 507 639 541Q639 547 642.0 566.0Q645 585 646 600Q648 620 642.5 630.5Q637 641 631 643Q631 643 630.5 632.5Q630 622 626 607Q623 594 618.5 580.5Q614 567 613 550Q610 519 615.5 499.5Q621 480 621 480Z" fill="#546e7a" stroke="none" transform="scale(1,-1) translate(0,-256)" /></svg>