<?xml version="1.0" encoding="utf-8" ?>
<svg baseProfile="full" height="256" version="1.1" width="256" xmlns="http://www.w3.org/2000/svg" xmlns:ev="http://www.w3.org/2001/xml-events" xmlns:xlink="http://www.w3.org/1999/xlink"><defs /><path d="M827 331Q832 318 840.0 296.0Q848 274 848 260Q848 233 833.0 221.5Q818 210 813 222Q807 235 807.5 257.5Q808 280 805 296Q802 312 796.5 317.0Q791 322 789 323Q777 333 768.5 325.0Q760 317 759 295Q758 270 764.5 244.0Q771 218 777.0 195.5Q783 173 779 159Q776 146 769.0 143.0Q762 140 755.5 141.0Q749 142 749 142Q748 137 751.0 121.5Q754 106 756.0 87.5Q758 69 755.0 52.5Q752 36 740 29Q735 25 723.5 26.0Q712 27 705 44Q699 60 703.0 99.5Q707 139 709 184Q709 210 707.0 240.0Q705 270 702.5 291.5Q700 313 700 313Q699 316 691.0 319.0Q683 322 672.0 331.0Q661 340 650 361Q646 369 636.0 366.5Q626 364 619 360Q612 357 605.0 353.0Q598 349 590 347Q576 343 562.0 350.0Q548 357 542 370Q538 378 537.0 387.5Q536 397 531 405Q520 424 498 423Q494 423 492 421Q491 419 490 415Q488 352 496.5 292.5Q505 233 504 171Q504 163 500.5 152.0Q497 141 487 136Q480 132 470 135Q454 139 444.5 154.0Q435 169 434 186Q433 203 438.0 219.0Q443 235 450 251Q438 256 431.5 269.0Q425 282 429 296Q431 302 434.5 307.5Q438 313 441 319Q453 341 453.0 366.5Q453 392 451 417Q448 442 449.5 469.5Q451 497 466 505Q466 505 466.0 505.0Q466 505 466 505Q473 509 489.5 509.5Q506 510 536 503Q597 487 657.5 480.5Q718 474 758 465Q758 465 758.0 465.0Q758 465 758 465Q765 464 772.0 462.0Q779 460 786 457Q790 455 793 453Q793 453 793.0 453.0Q793 453 793 453Q814 442 817.5 429.5Q821 417 822 409Q825 385 821.0 369.0Q817 353 827 331Z" fill="#eeeeee" stroke="none" transform="scale(1,-1) translate(0,-256)" /></svg>