<?xml version="1.0" encoding="utf-8" ?>
<svg baseProfile="full" height="256" version="1.1" width="256" xmlns="http://www.w3.org/2000/svg" xmlns:ev="http://www.w3.org/2001/xml-events" xmlns:xlink="http://www.w3.org/1999/xlink"><defs /><path d="M498 494Q488 499 472.5 498.5Q457 498 455 483Q453 468 467.0 463.0Q481 458 492 457Q497 457 502.5 456.5Q508 456 513 453Q522 449 528.0 440.5Q534 432 543 428Q553 423 564.5 425.0Q576 427 587 426Q594 425 601.5 423.0Q609 421 616 423Q621 424 622 426Q625 430 622.5 434.0Q620 438 617 440Q611 444 604.0 445.0Q597 446 590 447Q568 450 549 461Q536 469 524.0 478.5Q512 488 498 494Z" fill="#fffde7" stroke="none" transform="scale(1,-1) translate(0,-256)" /><path d="M713 392Q705 395 692.5 402.5Q680 410 677.0 417.5Q674 425 694 427Q714 430 732.5 427.5Q751 425 769 436Q773 439 777.0 442.0Q781 445 786 445Q794 446 799.0 439.5Q804 433 804 425Q803 417 798.5 411.0Q794 405 788 400Q772 389 751.5 387.5Q731 386 713 392Z" fill="#fffde7" stroke="none" transform="scale(1,-1) translate(0,-256)" /></svg>