<?xml version="1.0" encoding="utf-8" ?>
<svg baseProfile="full" height="256" version="1.1" width="256" xmlns="http://www.w3.org/2000/svg" xmlns:ev="http://www.w3.org/2001/xml-events" xmlns:xlink="http://www.w3.org/1999/xlink"><defs /><path d="M419 233 417 232Q423 239 439 251Q446 256 453.0 258.5Q460 261 464 263Q468 264 470.5 257.0Q473 250 476 245Q480 240 491.5 230.5Q503 221 512 211Q521 202 529.0 188.0Q537 174 537 170Q537 166 534.0 164.0Q531 162 522 151Q514 141 510.0 135.5Q506 130 499 134Q491 139 485.5 146.0Q480 153 477 159Q474 164 477.0 175.0Q480 186 471 196Q461 206 450.0 205.0Q439 204 433 208Q428 213 422.0 221.0Q416 229 419 233Z" fill="#fefeff" stroke="none" transform="scale(1,-1) translate(0,-256)" /><path d="M336 615 335 616Q340 623 353 629Q360 633 365.0 634.5Q370 636 373 637Q377 638 378.0 632.0Q379 626 382 622Q384 618 392.5 609.5Q401 601 407 594Q413 586 418.5 574.5Q424 563 424 560Q423 559 411 546Q403 538 400.0 534.0Q397 530 391 534Q385 538 381.5 544.0Q378 550 376 554Q374 559 376.5 566.5Q379 574 373 583Q367 593 358.0 592.5Q349 592 345 596Q341 599 337.5 606.0Q334 613 336 615Z" fill="#fefeff" stroke="none" transform="scale(1,-1) translate(0,-256)" /></svg>