<?xml version="1.0" encoding="utf-8" ?>
<svg baseProfile="full" height="256" version="1.1" width="256" xmlns="http://www.w3.org/2000/svg" xmlns:ev="http://www.w3.org/2001/xml-events" xmlns:xlink="http://www.w3.org/1999/xlink"><defs /><path d="M983 530V532Q997 529 1014.0 521.0Q1031 513 1043.5 506.0Q1056 499 1056 499Q1056 499 1051.0 483.0Q1046 467 1035.5 443.0Q1025 419 1008 396Q990 373 966.0 371.0Q942 369 913.5 374.5Q885 380 857 378Q828 377 810.0 359.5Q792 342 780.5 319.0Q769 296 760 279Q747 252 729.0 239.5Q711 227 689 223Q675 220 652.5 219.0Q630 218 604.0 210.5Q578 203 552 181Q530 162 508.0 133.0Q486 104 463.0 72.0Q440 40 414.0 10.5Q388 -19 356 -38Q315 -64 283.5 -74.0Q252 -84 234.0 -86.0Q216 -88 216 -88Q216 -88 210.5 -81.0Q205 -74 202 -68Q197 -61 192.0 -53.5Q187 -46 187 -46Q187 -46 194.5 -45.5Q202 -45 223 -42Q244 -38 276.5 -28.0Q309 -18 348 17Q371 38 391.0 64.5Q411 91 425.5 116.5Q440 142 447.5 160.0Q455 178 453 181Q448 188 435.0 175.5Q422 163 413 152Q408 145 390.5 124.5Q373 104 349.5 81.5Q326 59 304 46Q270 27 244.5 21.5Q219 16 219 16Q219 16 219.5 19.0Q220 22 217 24Q215 24 211.0 26.0Q207 28 200 28Q183 28 163.0 28.0Q143 28 143 28L121 72Q121 72 138.5 66.5Q156 61 187.5 60.5Q219 60 262 73Q293 82 318.0 106.5Q343 131 364.0 161.0Q385 191 404.5 216.5Q424 242 444 253Q471 269 494.5 269.0Q518 269 540.5 264.5Q563 260 587.0 259.5Q611 259 639 273Q663 284 672.5 302.5Q682 321 692.0 345.5Q702 370 726 401Q743 422 769.0 427.5Q795 433 821.0 430.5Q847 428 864.5 423.0Q882 418 882 418Q882 418 894.0 422.5Q906 427 919 441Q931 455 937.0 470.5Q943 486 947 496Q951 507 960.0 520.5Q969 534 983 530Z" fill="#feb896" stroke="none" transform="scale(1,-1) translate(0,-256)" /><path d="M792 809H794Q804 806 816.5 799.0Q829 792 838.5 785.5Q848 779 848 779Q848 779 837.5 753.5Q827 728 804 703Q789 686 770.5 686.0Q752 686 730.5 692.0Q709 698 686 699Q664 700 648.5 687.5Q633 675 623.0 658.0Q613 641 605 628Q593 609 578.0 600.5Q563 592 546 590Q534 589 516.5 589.5Q499 590 478.5 586.0Q458 582 437 567Q412 549 386.5 518.0Q361 487 333.0 456.5Q305 426 271 409Q220 383 189.0 381.5Q158 380 158 380Q158 380 155.5 385.0Q153 390 149 396Q146 402 142.5 408.5Q139 415 139 415Q139 415 145.5 414.0Q152 413 168 415Q184 416 207.0 419.5Q230 423 268 452Q293 471 315.0 498.0Q337 525 349.5 546.5Q362 568 360 572Q357 579 346.0 569.5Q335 560 328 553Q323 547 308.0 532.5Q293 518 273.5 502.0Q254 486 236 478Q209 465 189.0 462.5Q169 460 169 460Q169 460 169.5 461.5Q170 463 167 465Q165 467 165.5 467.5Q166 468 154 470Q141 472 125.5 473.5Q110 475 110 475L96 509Q96 509 109.0 504.5Q122 500 146.5 497.5Q171 495 204 502Q229 507 250.0 524.5Q271 542 289.0 563.5Q307 585 324.0 604.0Q341 623 357 630Q379 641 397.5 639.5Q416 638 433.0 633.0Q450 628 468.5 626.0Q487 624 510 633Q529 640 537.5 653.5Q546 667 555.0 685.5Q564 704 585 726Q599 741 619.5 744.0Q640 747 660.0 743.0Q680 739 693.5 734.0Q707 729 707 729Q707 729 716.5 731.5Q726 734 737 745Q747 755 753.0 766.5Q759 778 762 786Q766 794 773.5 803.5Q781 813 792 809Z" fill="#feb896" stroke="none" transform="scale(1,-1) translate(0,-256)" /></svg>