<?xml version="1.0" encoding="utf-8" ?>
<svg baseProfile="full" height="256" version="1.1" width="256" xmlns="http://www.w3.org/2000/svg" xmlns:ev="http://www.w3.org/2001/xml-events" xmlns:xlink="http://www.w3.org/1999/xlink"><defs /><path d="M816 352Q809 350 799.5 335.5Q790 321 782.5 306.0Q775 291 774 289Q774 287 773.0 278.0Q772 269 777.5 257.5Q783 246 802 235Q820 223 838.5 225.0Q857 227 869.0 234.0Q881 241 882 246Q884 253 874.0 260.5Q864 268 859 276Q854 284 853.5 292.0Q853 300 853 313Q852 325 838.0 339.0Q824 353 816 352Z" fill="#fc6b4a" stroke="none" transform="scale(1,-1) translate(0,-256)" /><path d="M727 418Q727 413 722.0 408.0Q717 403 713 397Q702 382 700.0 376.0Q698 370 695 369Q691 367 688.5 367.0Q686 367 681 375Q672 390 691 419Q697 428 705.5 428.0Q714 428 720.5 424.0Q727 420 727 418Z" fill="#fc6b4a" stroke="none" transform="scale(1,-1) translate(0,-256)" /><path d="M651 682H652Q646 681 637.5 670.5Q629 660 622.0 649.0Q615 638 615 636Q614 633 613.0 620.0Q612 607 633 592Q646 582 660.5 582.0Q675 582 685.0 587.0Q695 592 696 596Q697 601 690.0 608.0Q683 615 680 621Q676 627 677.0 633.0Q678 639 678 649Q678 659 667.5 670.5Q657 682 651 682Z" fill="#fc6b4a" stroke="none" transform="scale(1,-1) translate(0,-256)" /><path d="M586 739Q586 736 584.5 735.5Q583 735 574 724Q565 714 562.5 709.5Q560 705 558 703Q556 702 553.0 702.0Q550 702 548 709Q542 722 559 743Q566 753 576.0 747.5Q586 742 586 739Z" fill="#fc6b4a" stroke="none" transform="scale(1,-1) translate(0,-256)" /></svg>