<?xml version="1.0" encoding="utf-8" ?>
<svg baseProfile="full" height="256" version="1.1" width="256" xmlns="http://www.w3.org/2000/svg" xmlns:ev="http://www.w3.org/2001/xml-events" xmlns:xlink="http://www.w3.org/1999/xlink"><defs /><path d="M696 354V355Q696 355 701.5 366.5Q707 378 716 390Q725 403 731.5 408.5Q738 414 738 414Q738 414 739.5 414.0Q741 414 747 405Q754 397 752.5 392.0Q751 387 760 379Q769 371 776.0 373.0Q783 375 793 371Q804 366 806.5 361.0Q809 356 809 356Q809 356 802.0 348.5Q795 341 790 334Q782 321 777.0 311.0Q772 301 772 301Q772 301 768.0 300.5Q764 300 759 301Q751 304 751 319Q751 326 749.5 334.5Q748 343 741 349Q733 354 725.5 349.5Q718 345 708 348Q701 350 698.5 352.0Q696 354 696 354Z" fill="#faffff" stroke="none" transform="scale(1,-1) translate(0,-256)" /><path d="M1001 478Q1010 480 1013.5 475.0Q1017 470 1021 466Q1024 462 1032.0 456.0Q1040 450 1040 450Q1040 450 1036.0 443.0Q1032 436 1028 428Q1025 420 1019.5 411.5Q1014 403 1014 403Q1014 403 1005.5 405.5Q997 408 987.5 414.0Q978 420 975 431Q970 445 981.0 461.0Q992 477 1001 478Z" fill="#faffff" stroke="none" transform="scale(1,-1) translate(0,-256)" /><path d="M558 691 559 692Q559 692 564.5 701.0Q570 710 578 718Q585 728 590.0 731.5Q595 735 595 735Q595 735 596.5 735.0Q598 735 602 729Q606 722 605.0 718.0Q604 714 610 708Q617 702 622.0 702.5Q627 703 635 700Q642 696 644.0 692.0Q646 688 646 688Q646 688 642.0 684.5Q638 681 630 672Q622 662 617.5 654.5Q613 647 613 647Q613 647 610.0 647.0Q607 647 604 648Q597 652 598 662Q599 667 598.5 674.0Q598 681 593 686Q587 690 581.0 687.0Q575 684 567 687Q562 688 560.0 689.5Q558 691 558 691Z" fill="#faffff" stroke="none" transform="scale(1,-1) translate(0,-256)" /><path d="M803 769Q810 770 812.5 766.0Q815 762 818 759Q820 755 825.5 750.0Q831 745 831 745Q831 745 827.0 739.0Q823 733 820 728Q818 722 813.0 716.0Q808 710 808 710Q808 710 795.0 715.5Q782 721 779 733Q776 745 785.5 757.0Q795 769 803 769Z" fill="#faffff" stroke="none" transform="scale(1,-1) translate(0,-256)" /></svg>