<?xml version="1.0" encoding="utf-8" ?>
<svg baseProfile="full" height="256" version="1.1" width="256" xmlns="http://www.w3.org/2000/svg" xmlns:ev="http://www.w3.org/2001/xml-events" xmlns:xlink="http://www.w3.org/1999/xlink"><defs /><path d="M1041 450Q1041 450 1037.5 442.0Q1034 434 1029 427Q1025 420 1020.0 411.5Q1015 403 1015 403Q1015 403 1026.0 399.0Q1037 395 1047 390Q1052 388 1063.0 380.5Q1074 373 1086 367Q1098 361 1106.5 363.5Q1115 366 1122 382Q1127 394 1129.5 403.5Q1132 413 1128 420Q1124 427 1114.0 430.0Q1104 433 1086 435Q1062 438 1051.5 444.0Q1041 450 1041 450Z" fill="#fc6b48" stroke="none" transform="scale(1,-1) translate(0,-256)" /><path d="M831 745Q831 745 827.5 738.5Q824 732 820 727Q817 722 812.5 716.0Q808 710 808 710Q808 710 816.5 706.5Q825 703 832 698Q835 695 843.0 689.5Q851 684 860 677Q868 672 876.0 675.0Q884 678 889 687Q899 705 895 716Q893 721 887.5 723.0Q882 725 864 730Q847 734 839.0 739.5Q831 745 831 745Z" fill="#fc6b48" stroke="none" transform="scale(1,-1) translate(0,-256)" /></svg>