<?xml version="1.0" encoding="utf-8" ?>
<svg baseProfile="full" height="256" version="1.1" width="256" xmlns="http://www.w3.org/2000/svg" xmlns:ev="http://www.w3.org/2001/xml-events" xmlns:xlink="http://www.w3.org/1999/xlink"><defs /><path d="M450 107V108L1170 418Q1170 418 1174.0 415.0Q1178 412 1189 403Q1210 384 1206 362Q1203 347 1191.5 327.5Q1180 308 1163 287Q1156 277 1137.5 258.0Q1119 239 1093.5 220.5Q1068 202 1041 193Q1013 183 990.0 182.5Q967 182 945.5 181.0Q924 180 902 170Q879 160 868.0 144.5Q857 129 847.5 112.0Q838 95 822 79Q798 54 774.0 48.5Q750 43 735 43Q725 43 705.0 46.5Q685 50 658.0 51.0Q631 52 600 43Q579 36 560.5 22.0Q542 8 528.5 -6.5Q515 -21 510 -28Q503 -38 476.5 -68.5Q450 -99 393 -128Q355 -147 323.0 -148.0Q291 -149 271.5 -143.5Q252 -138 252 -138L220 -97Z" fill="#fc873d" stroke="none" transform="scale(1,-1) translate(0,-256)" /><path d="M353 516 352 517 928 711Q928 711 931.0 708.5Q934 706 942 698Q950 690 953.0 684.0Q956 678 953 666Q949 654 938.5 639.5Q928 625 915 611Q909 604 893.0 590.5Q877 577 856.0 564.0Q835 551 814 545Q792 539 774.0 540.5Q756 542 739.5 542.5Q723 543 705 537Q687 530 677.5 519.0Q668 508 659.5 495.0Q651 482 638 471Q618 454 598.5 451.0Q579 448 568 448Q558 449 529.5 457.0Q501 465 464 457Q448 454 432.5 444.0Q417 434 405.5 423.5Q394 413 390 408Q384 401 361.5 379.0Q339 357 293 338Q263 325 238.0 326.5Q213 328 198.5 333.5Q184 339 184 339L162 373Z" fill="#fc873d" stroke="none" transform="scale(1,-1) translate(0,-256)" /></svg>