<?xml version="1.0" encoding="utf-8" ?>
<svg baseProfile="full" height="256" version="1.1" width="256" xmlns="http://www.w3.org/2000/svg" xmlns:ev="http://www.w3.org/2001/xml-events" xmlns:xlink="http://www.w3.org/1999/xlink"><defs /><path d="M506 0Q507 20 518.5 38.5Q530 57 546.0 70.0Q562 83 575 87Q631 98 685 80Q699 74 712.0 59.0Q725 44 733.5 30.5Q742 17 742 16Q742 16 731.5 7.5Q721 -1 721 -1Q721 -1 713.5 6.5Q706 14 697.5 23.0Q689 32 683 36Q678 40 665.5 46.0Q653 52 641.5 54.5Q630 57 628 50Q626 44 643.5 40.0Q661 36 674 25Q687 13 698.5 1.0Q710 -11 710 -11L693 -28Q693 -28 684.0 -21.5Q675 -15 664.5 -7.0Q654 1 648 4Q639 9 625.5 15.5Q612 22 608 17Q605 12 619.0 5.5Q633 -1 641 -6Q650 -11 665.5 -21.0Q681 -31 681 -31L658 -58L652 -54Q652 -54 639.0 -44.0Q626 -34 622 -32Q617 -29 604.5 -24.0Q592 -19 589 -25Q585 -31 596.0 -33.0Q607 -35 618 -41Q633 -49 647 -59Q640 -67 631 -75Q626 -78 609.0 -80.5Q592 -83 564 -79Q537 -76 521.5 -52.5Q506 -29 506 0Z" fill="#6b4c42" stroke="none" transform="scale(1,-1) translate(0,-256)" /><path d="M785 -169Q797 -157 799.0 -129.0Q801 -101 795 -83Q791 -64 772.5 -45.5Q754 -27 735 -19Q708 -8 685 -26L644 -61Q649 -67 655 -72Q660 -75 666.5 -73.5Q673 -72 680 -72Q687 -72 690.0 -78.5Q693 -85 692 -92Q691 -98 681.0 -104.0Q671 -110 661.0 -114.5Q651 -119 651 -119Q651 -119 640.0 -109.5Q629 -100 620 -98Q611 -97 610.5 -111.0Q610 -125 613 -131Q616 -137 632.0 -147.5Q648 -158 655 -162Q662 -166 678.5 -159.0Q695 -152 710 -145Q724 -138 722.0 -144.0Q720 -150 718 -152Q696 -170 668 -175Q657 -177 644.0 -170.5Q631 -164 622.0 -158.0Q613 -152 612 -155Q612 -158 622.5 -169.5Q633 -181 646.5 -192.5Q660 -204 669 -207Q676 -209 692.0 -206.0Q708 -203 727.0 -197.0Q746 -191 762.0 -183.5Q778 -176 785 -169Z" fill="#6b4c42" stroke="none" transform="scale(1,-1) translate(0,-256)" /></svg>