<?xml version="1.0" encoding="utf-8" ?>
<svg baseProfile="full" height="256" version="1.1" width="256" xmlns="http://www.w3.org/2000/svg" xmlns:ev="http://www.w3.org/2001/xml-events" xmlns:xlink="http://www.w3.org/1999/xlink"><defs /><path d="M742.663818359375 643.6589508056641Q736.3334655761719 642.9731597900391 731.3674774169922 636.5228424072266Q726.4014892578125 630.0725250244141 726.1878509521484 620.6881866455078Q725.2966156005859 610.7377471923828 729.9978485107422 603.7334594726562Q734.6990814208984 596.7291717529297 740.9180297851562 596.1711578369141Q747.8145751953125 596.1792449951172 752.4974670410156 602.9684143066406Q757.1803588867188 609.7575836181641 758.0715942382812 619.7080230712891Q758.2852325439453 629.0923614501953 753.9227981567383 636.3796997070312Q749.5603637695312 643.6670379638672 742.663818359375 643.6589508056641Z" fill="#010103" stroke="none" transform="scale(1,-1) translate(0,-256)" /><path d="M687 621Q686 631 680.5 637.5Q675 644 668 643Q661 643 657.0 635.5Q653 628 654 619Q654 609 659.5 602.5Q665 596 672 597Q679 597 683.5 604.5Q688 612 687 621Z" fill="#010103" stroke="none" transform="scale(1,-1) translate(0,-256)" /></svg>