<?xml version="1.0" encoding="utf-8" ?>
<svg baseProfile="full" height="256" version="1.1" width="256" xmlns="http://www.w3.org/2000/svg" xmlns:ev="http://www.w3.org/2001/xml-events" xmlns:xlink="http://www.w3.org/1999/xlink"><defs /><path d="M491 675Q492 679 502.0 695.5Q512 712 524.5 733.0Q537 754 548.0 772.0Q559 790 563 795Q571 806 578.5 801.0Q586 796 588 788Q588 784 591.5 763.5Q595 743 599.0 718.0Q603 693 606.0 673.0Q609 653 610 650Q612 634 598 635Q595 635 581.5 637.0Q568 639 550.5 642.0Q533 645 518.5 647.5Q504 650 499 651Q480 656 491 675Z" fill="#ffa722" stroke="none" transform="scale(1,-1) translate(0,-256)" /><path d="M696 593Q699 594 720.0 598.5Q741 603 768.0 609.5Q795 616 816.5 621.0Q838 626 842 627Q853 629 856.0 622.5Q859 616 852 608Q850 606 837.5 588.0Q825 570 809.0 548.0Q793 526 780.0 508.5Q767 491 765 488Q756 477 748 487Q746 489 738.0 500.5Q730 512 720.0 527.5Q710 543 701.5 555.5Q693 568 691 572Q680 588 696 593Z" fill="#ffa722" stroke="none" transform="scale(1,-1) translate(0,-256)" /><path d="M224 270Q222 267 210.5 251.0Q199 235 184.5 214.5Q170 194 158.0 178.0Q146 162 144 158Q136 147 141.5 139.0Q147 131 160 134Q166 135 186.0 140.0Q206 145 230.5 151.0Q255 157 274.5 162.0Q294 167 299 168Q309 170 309.0 177.5Q309 185 306 190Q304 193 296.5 203.5Q289 214 279.0 228.0Q269 242 261.0 253.0Q253 264 251 267Q245 277 237.5 279.0Q230 281 224 270Z" fill="#ffa722" stroke="none" transform="scale(1,-1) translate(0,-256)" /><path d="M200 376Q196 378 179.5 387.5Q163 397 142.5 409.5Q122 422 105.0 432.0Q88 442 83 444Q75 449 75.0 459.0Q75 469 87 473Q92 475 112.0 478.5Q132 482 156.0 485.5Q180 489 200.0 492.0Q220 495 225 496Q237 498 240.5 492.0Q244 486 244 479Q244 471 240.5 450.5Q237 430 233.0 410.0Q229 390 227 383Q222 366 200 376Z" fill="#ffa722" stroke="none" transform="scale(1,-1) translate(0,-256)" /><path d="M389 630Q385 628 373.0 619.5Q361 611 346.0 600.5Q331 590 318.5 582.0Q306 574 303 572Q296 567 291.0 570.0Q286 573 285 580Q284 583 279.0 603.5Q274 624 267.0 650.0Q260 676 255.0 697.5Q250 719 249 724Q246 739 253.5 741.5Q261 744 270 738Q274 735 291.5 722.0Q309 709 330.0 694.0Q351 679 367.5 667.0Q384 655 387 653Q393 649 394.0 642.5Q395 636 389 630Z" fill="#ffa722" stroke="none" transform="scale(1,-1) translate(0,-256)" /></svg>