<?xml version="1.0" encoding="utf-8" ?>
<svg baseProfile="full" height="256" version="1.1" width="256" xmlns="http://www.w3.org/2000/svg" xmlns:ev="http://www.w3.org/2001/xml-events" xmlns:xlink="http://www.w3.org/1999/xlink"><defs /><path d="M314.08702087402344 526.1526336669922Q348.58973693847656 569.2919769287109 393.4475402832031 590.8650665283203Q438.3053436279297 612.4381561279297 486.61646270751953 613.7381896972656Q534.9275817871094 615.0382232666016 580.2214889526367 598.2211532592773Q625.5153961181641 581.4040832519531 660.0276184082031 547.7630004882812Q693.6771392822266 514.1218109130859 711.79931640625 470.12628173828125Q729.9214935302734 426.13075256347656 729.9273681640625 378.6821746826172Q729.9332427978516 331.2335968017578 711.3907699584961 285.9394760131836Q692.8482971191406 240.64535522460938 654.0311126708984 205.26979064941406Q610.9009552001953 165.58018493652344 554.8269653320312 152.63272094726562Q498.7529754638672 139.6852569580078 440.5188674926758 153.9126205444336Q382.2847595214844 168.13998413085938 333.9681396484375 211.26907348632812Q302.04466247558594 239.73426818847656 285.6483688354492 279.8478546142578Q269.2520751953125 319.96144104003906 267.0898208618164 364.39029693603516Q264.9275665283203 408.81915283203125 277.0001525878906 451.093017578125Q289.07273864746094 493.36688232421875 314.08702087402344 526.1526336669922Z" fill="#fcc11a" stroke="none" transform="scale(1,-1) translate(0,-256)" /></svg>