<?xml version="1.0" encoding="utf-8" ?>
<svg baseProfile="full" height="256" version="1.1" width="256" xmlns="http://www.w3.org/2000/svg" xmlns:ev="http://www.w3.org/2001/xml-events" xmlns:xlink="http://www.w3.org/1999/xlink"><defs /><path d="M1061 189Q1061 189 1073.5 189.0Q1086 189 1107.0 182.5Q1128 176 1153 156Q1178 136 1186.5 114.5Q1195 93 1195.0 78.0Q1195 63 1195 63L1151 15L301 -8L217 65Q217 65 218.0 80.0Q219 95 226.5 116.0Q234 137 255 157Q283 185 312.5 194.0Q342 203 361.5 203.0Q381 203 381 203Q381 203 385.0 221.0Q389 239 402.0 264.5Q415 290 441 312Q474 339 506.0 346.5Q538 354 558.5 352.0Q579 350 579 350Q579 350 587.5 371.0Q596 392 615.5 420.5Q635 449 667.0 475.0Q699 501 746.5 512.0Q794 523 858 508Q912 495 948.5 466.5Q985 438 1007.0 402.0Q1029 366 1040.5 329.0Q1052 292 1056.0 260.0Q1060 228 1060.5 208.5Q1061 189 1061 189Z" fill="#e2ebee" stroke="none" transform="scale(1,-1) translate(0,-256)" /></svg>