<?xml version="1.0" encoding="utf-8" ?>
<svg baseProfile="full" height="256" version="1.1" width="256" xmlns="http://www.w3.org/2000/svg" xmlns:ev="http://www.w3.org/2001/xml-events" xmlns:xlink="http://www.w3.org/1999/xlink"><defs /><path d="M318 481Q306 450 285.0 422.5Q264 395 241.0 372.5Q218 350 201 333Q187 320 167.0 306.0Q147 292 127.0 277.0Q107 262 93.5 246.0Q80 230 79 213Q78 192 88.0 181.0Q98 170 111.5 166.0Q125 162 135 162Q143 162 167.0 168.0Q191 174 219.0 182.0Q247 190 267.0 196.5Q287 203 287 203Q287 203 292.0 184.0Q297 165 311.0 135.5Q325 106 350.5 72.5Q376 39 416.5 10.0Q457 -19 514.5 -36.5Q572 -54 651 -53Q730 -51 786.0 -31.5Q842 -12 879.0 17.0Q916 46 938.0 78.5Q960 111 971.0 139.5Q982 168 985.5 186.0Q989 204 989 204Q989 204 1004.5 196.5Q1020 189 1043.0 179.5Q1066 170 1088.0 162.0Q1110 154 1123 153Q1139 153 1152.0 152.0Q1165 151 1175.0 157.0Q1185 163 1195 183Q1202 199 1192.0 217.5Q1182 236 1162.5 256.0Q1143 276 1120.5 294.5Q1098 313 1080 328Q1045 357 1019.0 390.5Q993 424 978.5 448.0Q964 472 964 472Q964 472 965.5 491.0Q967 510 965.0 542.0Q963 574 954.5 614.0Q946 654 926.5 695.5Q907 737 873 775Q830 821 770.0 847.5Q710 874 644.0 877.0Q578 880 515.5 856.0Q453 832 407 778Q360 724 339.5 671.0Q319 618 315.5 575.0Q312 532 315.0 506.5Q318 481 318 481Z" fill="#ffb903" stroke="none" transform="scale(1,-1) translate(0,-256)" /></svg>