<?xml version="1.0" encoding="utf-8" ?>
<svg baseProfile="full" height="256" version="1.1" width="256" xmlns="http://www.w3.org/2000/svg" xmlns:ev="http://www.w3.org/2001/xml-events" xmlns:xlink="http://www.w3.org/1999/xlink"><defs /><path d="M808.6031951904297 653.0618286132812Q790.840576171875 652.8285675048828 778.1025848388672 640.0912322998047Q765.3645935058594 627.3538970947266 763.9617462158203 606.552978515625Q762.5588989257812 585.7520599365234 773.3095779418945 571.1443710327148Q784.0602569580078 556.5366821289062 802.5239715576172 554.4327392578125Q820.9876861572266 552.3287963867188 834.5437316894531 566.5852813720703Q848.0997772216797 580.8417663574219 849.5026245117188 601.6426849365234Q850.9054718017578 622.443603515625 838.9861907958984 636.7007446289062Q827.0669097900391 650.9578857421875 808.6031951904297 653.0618286132812Z" fill="#2e302d" stroke="none" transform="scale(1,-1) translate(0,-256)" /><path d="M515 608Q512 629 497.5 641.5Q483 654 466 652Q448 649 437.5 633.0Q427 617 429 597Q432 577 446.5 564.0Q461 551 479 554Q496 556 506.5 572.0Q517 588 515 608Z" fill="#2e302d" stroke="none" transform="scale(1,-1) translate(0,-256)" /></svg>