<?xml version="1.0" encoding="utf-8" ?>
<svg baseProfile="full" height="256" version="1.1" width="256" xmlns="http://www.w3.org/2000/svg" xmlns:ev="http://www.w3.org/2001/xml-events" xmlns:xlink="http://www.w3.org/1999/xlink"><defs /><path d="M636 921Q643 920 672.0 896.0Q701 872 745.0 831.5Q789 791 839.5 739.5Q890 688 938 633Q969 598 1002.5 554.0Q1036 510 1065.5 462.0Q1095 414 1115.0 364.0Q1135 314 1139 268Q1145 212 1121.0 164.0Q1097 116 1045 83Q999 54 954.0 52.5Q909 51 871.0 64.0Q833 77 806.0 94.0Q779 111 769 119Q737 147 723.0 167.5Q709 188 699 183Q695 182 694.5 167.0Q694 152 694.5 131.0Q695 110 696.5 89.0Q698 68 698 55Q698 39 704.0 17.0Q710 -5 722.0 -25.5Q734 -46 754 -58Q786 -76 814.5 -86.5Q843 -97 872 -112Q909 -130 920.0 -148.0Q931 -166 931 -166L909 -181L348 -183L319 -161Q319 -161 323.5 -150.0Q328 -139 347 -121Q360 -110 376.0 -103.5Q392 -97 415.0 -90.0Q438 -83 474 -68Q527 -46 547.0 -10.5Q567 25 571 58Q573 81 575.5 108.5Q578 136 578.0 156.0Q578 176 574 178Q567 182 555.5 172.0Q544 162 531.0 147.0Q518 132 505 121Q499 116 482.5 102.5Q466 89 439.5 74.0Q413 59 379.0 50.0Q345 41 304.0 44.0Q263 47 218 70Q111 124 140 275Q149 325 172.5 377.5Q196 430 227.5 480.0Q259 530 291 572Q324 617 367.5 665.5Q411 714 456.0 759.5Q501 805 540.0 841.5Q579 878 605.0 899.5Q631 921 636 921Z" fill="#464c4f" stroke="none" transform="scale(1,-1) translate(0,-256)" /></svg>