<?xml version="1.0" encoding="utf-8" ?>
<svg baseProfile="full" height="256" version="1.1" width="256" xmlns="http://www.w3.org/2000/svg" xmlns:ev="http://www.w3.org/2001/xml-events" xmlns:xlink="http://www.w3.org/1999/xlink"><defs /><path d="M314 297 631 190Q631 190 622.5 177.0Q614 164 600.0 145.0Q586 126 570.0 106.5Q554 87 540 74Q515 50 473.0 27.0Q431 4 378.5 -4.0Q326 -12 269 9Q218 28 190.0 59.0Q162 90 150.5 122.0Q139 154 136.5 176.0Q134 198 134 198Z" fill="#606265" stroke="none" transform="scale(1,-1) translate(0,-256)" /><path d="M672 193 1139 276Q1139 276 1141.5 258.0Q1144 240 1143.5 211.0Q1143 182 1133 151Q1124 120 1097.5 84.5Q1071 49 1026.0 25.0Q981 1 914 3Q856 4 812.5 25.0Q769 46 739.5 73.0Q710 100 695.5 120.5Q681 141 681 141Z" fill="#606265" stroke="none" transform="scale(1,-1) translate(0,-256)" /><path d="M319 -161 929 -163Q929 -163 931.5 -168.5Q934 -174 934 -186Q934 -195 929.5 -202.0Q925 -209 918 -209Q916 -209 884.0 -209.0Q852 -209 800.5 -209.0Q749 -209 688.0 -209.0Q627 -209 565.5 -209.0Q504 -209 452.5 -209.0Q401 -209 368.0 -209.0Q335 -209 331 -209Q320 -208 317.5 -200.5Q315 -193 316 -184Q316 -175 317.5 -168.0Q319 -161 319 -161Z" fill="#606265" stroke="none" transform="scale(1,-1) translate(0,-256)" /></svg>