<?xml version="1.0" encoding="utf-8" ?>
<svg baseProfile="full" height="256" version="1.1" width="256" xmlns="http://www.w3.org/2000/svg" xmlns:ev="http://www.w3.org/2001/xml-events" xmlns:xlink="http://www.w3.org/1999/xlink"><defs /><path d="M638 13Q583 14 532 -4Q505 -14 481.0 -5.5Q457 3 442.0 22.5Q427 42 425.0 67.0Q423 92 439 116Q472 165 522.0 182.5Q572 200 638 200Q703 200 753.0 182.5Q803 165 836 115Q852 91 850.0 66.5Q848 42 833.0 22.0Q818 2 794.5 -6.0Q771 -14 743 -5Q692 13 638 13Z" fill="#422b0d" stroke="none" transform="scale(1,-1) translate(0,-256)" /><path d="M450 482Q480 482 502.5 458.5Q525 435 525 394Q525 352 502.5 328.5Q480 305 450 305Q421 305 398.0 328.5Q375 352 375 394Q375 435 398.0 458.5Q421 482 450 482Z" fill="#422b0d" stroke="none" transform="scale(1,-1) translate(0,-256)" /><path d="M810 482Q839 482 862.0 458.5Q885 435 885 394Q885 352 862.0 328.5Q839 305 810 305Q781 305 758.0 328.5Q735 352 735 394Q735 435 758.0 458.5Q781 482 810 482Z" fill="#422b0d" stroke="none" transform="scale(1,-1) translate(0,-256)" /></svg>