<?xml version="1.0" encoding="utf-8" ?>
<svg baseProfile="full" height="256" version="1.1" width="256" xmlns="http://www.w3.org/2000/svg" xmlns:ev="http://www.w3.org/2001/xml-events" xmlns:xlink="http://www.w3.org/1999/xlink"><defs /><path d="M1205 -106Q1204 -108 1195.5 -108.5Q1187 -109 1179.0 -109.0Q1171 -109 1171 -109Q1171 -109 1176.5 -116.0Q1182 -123 1187.5 -131.5Q1193 -140 1193 -142Q1192 -144 1181.0 -144.0Q1170 -144 1159.5 -143.5Q1149 -143 1149 -143Q1149 -143 1153.0 -149.5Q1157 -156 1160.5 -163.0Q1164 -170 1163 -172Q1161 -176 1132.5 -179.5Q1104 -183 1038.5 -184.5Q973 -186 861 -186Q803 -185 734.5 -183.0Q666 -181 595.5 -178.0Q525 -175 458.5 -171.5Q392 -168 337.0 -164.5Q282 -161 246 -159Q155 -154 102.5 -147.0Q50 -140 50 -140Q50 -140 52.5 -127.5Q55 -115 63.5 -100.0Q72 -85 90 -79Q115 -71 140.0 -72.0Q165 -73 184 -72Q189 -70 197.5 -64.5Q206 -59 216 -48Q224 -39 227.0 -22.0Q230 -5 231.0 8.5Q232 22 232 22L320 20Q320 20 318.5 1.5Q317 -17 319 -38Q321 -50 329.0 -60.5Q337 -71 345 -78Q400 -82 459.0 -85.5Q518 -89 567.0 -92.0Q616 -95 641 -96Q664 -97 705.5 -99.0Q747 -101 797 -103Q805 -100 814.5 -94.5Q824 -89 831 -81Q842 -68 841.5 -51.0Q841 -34 841 -32L916 -28Q916 -28 914.5 -43.0Q913 -58 916 -74Q919 -87 929.0 -95.5Q939 -104 946 -108Q1001 -110 1040.5 -109.0Q1080 -108 1088 -108Q1110 -106 1120.5 -94.5Q1131 -83 1131 -70Q1130 -52 1116.5 -41.5Q1103 -31 1103 -31L1154 -16Q1154 -16 1165.5 -26.5Q1177 -37 1186 -50Q1195 -64 1201.0 -83.5Q1207 -103 1205 -106Z" fill="#b0b0b0" stroke="none" transform="scale(1,-1) translate(0,-256)" /></svg>