<?xml version="1.0" encoding="utf-8" ?>
<svg baseProfile="full" height="256" version="1.1" width="256" xmlns="http://www.w3.org/2000/svg" xmlns:ev="http://www.w3.org/2001/xml-events" xmlns:xlink="http://www.w3.org/1999/xlink"><defs /><path d="M611 549Q624 550 631.5 543.5Q639 537 644 524Q649 510 650.0 496.0Q651 482 639 477Q626 471 613.0 475.0Q600 479 591 498Q584 514 591.0 530.5Q598 547 611 549Z" fill="#464c4e" stroke="none" transform="scale(1,-1) translate(0,-256)" /><path d="M651 443Q658 449 673.0 449.5Q688 450 700 432Q712 414 710.0 402.5Q708 391 701 385Q694 379 681.5 379.0Q669 379 658 390Q642 406 643.0 422.0Q644 438 651 443Z" fill="#464c4e" stroke="none" transform="scale(1,-1) translate(0,-256)" /><path d="M744 366Q751 372 764.5 373.5Q778 375 791 360Q805 345 803.5 330.5Q802 316 792 308Q785 303 771.0 301.5Q757 300 744 313Q732 326 733.5 342.0Q735 358 744 366Z" fill="#464c4e" stroke="none" transform="scale(1,-1) translate(0,-256)" /><path d="M836 288Q846 298 860.0 298.0Q874 298 888 284Q902 271 900.5 257.0Q899 243 892 236Q884 229 870.0 227.0Q856 225 843 236Q830 246 828.5 262.0Q827 278 836 288Z" fill="#464c4e" stroke="none" transform="scale(1,-1) translate(0,-256)" /><path d="M925 223Q931 231 943.5 232.0Q956 233 971 226Q986 219 988.0 206.0Q990 193 986 187Q982 179 969.0 174.5Q956 170 941 177Q923 185 920.5 199.0Q918 213 925 223Z" fill="#464c4e" stroke="none" transform="scale(1,-1) translate(0,-256)" /></svg>