<?xml version="1.0" encoding="utf-8" ?>
<svg baseProfile="full" height="256" version="1.1" width="256" xmlns="http://www.w3.org/2000/svg" xmlns:ev="http://www.w3.org/2001/xml-events" xmlns:xlink="http://www.w3.org/1999/xlink"><defs /><path d="M902 610 1000 528Q1010 519 1021.5 524.0Q1033 529 1038 542Q1046 567 1049.0 603.0Q1052 639 1050.0 677.0Q1048 715 1040 749Q1034 775 1018.5 773.0Q1003 771 982 755Q973 748 956.5 733.0Q940 718 923.0 698.5Q906 679 896 659Q890 646 890.5 632.5Q891 619 902 610Z" fill="#ffd1d1" stroke="none" transform="scale(1,-1) translate(0,-256)" /><path d="M373.0 610.0010070800781 275.0 528.0010070800781Q265.0 519.0010070800781 253.5 524.0010070800781Q242.0 529.0010070800781 237.0 542.0010070800781Q229.0 567.0010070800781 226.0 603.0010070800781Q223.0 639.0010070800781 225.0 677.0010070800781Q227.0 715.0010070800781 235.0 749.0010070800781Q241.0 775.0010070800781 256.5 773.0010070800781Q272.0 771.0010070800781 293.0 755.0010070800781Q302.0 748.0010070800781 318.5 733.0010070800781Q335.0 718.0010070800781 352.0 698.5010070800781Q369.0 679.0010070800781 379.0 659.0010070800781Q385.0 646.0010070800781 384.5 632.5010070800781Q384.0 619.0010070800781 373.0 610.0010070800781Z" fill="#ffd1d1" stroke="none" transform="scale(1,-1) translate(0,-256)" /></svg>