<?xml version="1.0" encoding="utf-8" ?>
<svg baseProfile="full" height="256" version="1.1" width="256" xmlns="http://www.w3.org/2000/svg" xmlns:ev="http://www.w3.org/2001/xml-events" xmlns:xlink="http://www.w3.org/1999/xlink"><defs /><path d="M637.8660888671875 846.0147857666016Q698.5855255126953 846.0147857666016 755.0776596069336 814.8864669799805Q811.5697937011719 783.7581481933594 855.7643203735352 727.2660140991211Q899.9588470458984 670.7738800048828 925.7069625854492 592.7609329223633Q951.455078125 514.7479858398438 951.455078125 420.2101287841797Q951.455078125 326.4408721923828 925.3226623535156 256.49822998046875Q899.1902465820312 186.5555877685547 854.2271194458008 140.05525970458984Q809.2639923095703 93.554931640625 753.1561584472656 70.49691772460938Q697.0483245849609 47.43890380859375 637.8660888671875 47.43890380859375Q577.9152526855469 47.43890380859375 521.8074188232422 70.49691772460938Q465.6995849609375 93.554931640625 420.73645782470703 140.05525970458984Q375.77333068847656 186.5555877685547 349.6409149169922 256.49822998046875Q323.5084991455078 326.4408721923828 323.5084991455078 420.2101287841797Q323.5084991455078 514.7479858398438 349.2566146850586 592.7609329223633Q375.0047302246094 670.7738800048828 419.19925689697266 727.2660140991211Q463.39378356933594 783.7581481933594 519.8859176635742 814.8864669799805Q576.3780517578125 846.0147857666016 637.8660888671875 846.0147857666016Z" fill="#ffca28" stroke="none" transform="scale(1,-1) translate(0,-256)" /></svg>