<?xml version="1.0" encoding="utf-8" ?>
<svg baseProfile="full" height="256" version="1.1" width="256" xmlns="http://www.w3.org/2000/svg" xmlns:ev="http://www.w3.org/2001/xml-events" xmlns:xlink="http://www.w3.org/1999/xlink"><defs /><path d="M961 205Q967 194 978.0 189.0Q989 184 998.0 182.5Q1007 181 1007 181Q1007 181 1001.0 168.5Q995 156 981 148Q968 140 953.5 137.0Q939 134 928 134Q928 134 917.0 121.5Q906 109 881.5 93.0Q857 77 817.5 64.5Q778 52 721 52H637H554Q497 52 457.5 64.5Q418 77 393.5 93.0Q369 109 358.0 121.5Q347 134 347 134Q336 134 321.5 137.0Q307 140 294 148Q280 156 274.0 168.5Q268 181 268 181Q268 181 277.0 182.5Q286 184 297.0 189.0Q308 194 314 205Q323 221 314.0 238.0Q305 255 287 275Q268 296 251.5 333.5Q235 371 232.0 417.5Q229 464 251 513Q250 514 256.5 518.5Q263 523 269.0 527.5Q275 532 275 532Q277 532 308.0 532.0Q339 532 391.0 532.5Q443 533 506.5 533.0Q570 533 637 533Q704 533 768.0 533.0Q832 533 883.5 532.5Q935 532 966.5 532.0Q998 532 1000 532L1016 531Q1016 530 1020.0 522.0Q1024 514 1024 513Q1046 464 1043.0 417.5Q1040 371 1023.5 333.5Q1007 296 988 275Q970 255 961.0 238.0Q952 221 961 205Z" fill="#543930" stroke="none" transform="scale(1,-1) translate(0,-256)" /><path d="M638 846Q717 846 775.0 817.0Q833 788 873.0 740.0Q913 692 936.5 636.0Q960 580 969.5 526.0Q979 472 977 430Q976 399 964.5 371.0Q953 343 946 328Q945 325 942.5 325.5Q940 326 940 329Q935 367 930.0 416.0Q925 465 917 500Q907 546 888.0 568.5Q869 591 849.5 598.5Q830 606 816.0 605.5Q802 605 802 605Q802 605 795.5 617.5Q789 630 772.5 642.5Q756 655 726.0 657.5Q696 660 648 641Q614 628 581 604Q531 566 483.0 545.5Q435 525 404.0 516.5Q373 508 373 508Q375 499 370.5 474.5Q366 450 359.0 419.0Q352 388 345.5 360.0Q339 332 336 318Q335 316 332.5 316.0Q330 316 329 318Q323 332 316.0 367.0Q309 402 312 458Q312 458 312.0 479.0Q312 500 315.5 534.5Q319 569 330.0 610.5Q341 652 362.5 693.5Q384 735 420.0 769.5Q456 804 509.5 825.0Q563 846 638 846Z" fill="#543930" stroke="none" transform="scale(1,-1) translate(0,-256)" /></svg>