<?xml version="1.0" encoding="utf-8" ?>
<svg baseProfile="full" height="256" version="1.1" width="256" xmlns="http://www.w3.org/2000/svg" xmlns:ev="http://www.w3.org/2001/xml-events" xmlns:xlink="http://www.w3.org/1999/xlink"><defs /><path d="M267 75Q266 77 258.5 75.0Q251 73 246 68Q242 64 233.0 54.5Q224 45 223 29Q223 20 229.5 7.0Q236 -6 258 -16Q280 -26 290.0 -36.0Q300 -46 309 -57Q319 -68 333.0 -86.0Q347 -104 382 -115Q413 -125 434.5 -124.0Q456 -123 474.0 -120.0Q492 -117 511 -121Q530 -125 544.0 -132.0Q558 -139 572.0 -146.0Q586 -153 606 -156Q626 -159 647.5 -154.5Q669 -150 687 -141Q706 -132 728.0 -126.5Q750 -121 777 -122Q809 -124 837.5 -123.0Q866 -122 891 -115Q913 -108 924.5 -95.0Q936 -82 952 -62Q968 -41 982.0 -32.0Q996 -23 1003 -20Q1013 -15 1027.5 -5.5Q1042 4 1044 26Q1046 45 1033.5 58.0Q1021 71 1006.5 78.0Q992 85 986 85Q979 86 978.0 81.0Q977 76 980 72Q982 69 990.0 64.0Q998 59 1004.0 51.0Q1010 43 1007 31Q1003 17 983.5 10.5Q964 4 945 -13Q927 -30 916.0 -45.0Q905 -60 880 -70Q849 -82 815.5 -78.0Q782 -74 755 -75Q727 -75 707.0 -83.5Q687 -92 673 -100Q657 -110 641.0 -114.0Q625 -118 609 -115Q585 -109 573.5 -102.0Q562 -95 550.5 -88.5Q539 -82 516 -79Q496 -77 482.5 -78.0Q469 -79 440 -81Q411 -83 391.5 -75.5Q372 -68 357 -56Q346 -47 341.0 -39.0Q336 -31 329.5 -22.5Q323 -14 308 -2Q292 10 282.0 14.5Q272 19 266.0 23.5Q260 28 256 40Q254 49 263.0 59.0Q272 69 267 75Z" fill="#76f8ff" stroke="none" transform="scale(1,-1) translate(0,-256)" /></svg>