<?xml version="1.0" encoding="utf-8" ?>
<svg baseProfile="full" height="256" version="1.1" width="256" xmlns="http://www.w3.org/2000/svg" xmlns:ev="http://www.w3.org/2001/xml-events" xmlns:xlink="http://www.w3.org/1999/xlink"><defs /><path d="M692.5314178466797 468.5837707519531 652.1634674072266 547.2316741943359 736.3793640136719 577.8556365966797 771.8753204345703 500.5997314453125Q771.8753204345703 500.5997314453125 763.5233306884766 492.94374084472656Q755.1713409423828 485.2877502441406 736.3793640136719 478.3277587890625Q714.8033905029297 469.97576904296875 703.6674041748047 469.27976989746094Q692.5314178466797 468.5837707519531 692.5314178466797 468.5837707519531Z" fill="#a2672b" stroke="none" transform="scale(1,-1) translate(0,-256)" /><path d="M611 232Q622 233 636.5 228.5Q651 224 658 207Q669 182 657.0 165.5Q645 149 629 147Q616 144 597.5 150.0Q579 156 575 179Q572 202 583.0 215.5Q594 229 611 232Z" fill="#a2672b" stroke="none" transform="scale(1,-1) translate(0,-256)" /></svg>