<?xml version="1.0" encoding="utf-8" ?>
<svg baseProfile="full" height="256" version="1.1" width="256" xmlns="http://www.w3.org/2000/svg" xmlns:ev="http://www.w3.org/2001/xml-events" xmlns:xlink="http://www.w3.org/1999/xlink"><defs /><path d="M415 66Q415 66 431.5 79.0Q448 92 477.0 111.0Q506 130 543.0 148.5Q580 167 620 179Q653 189 678.5 194.0Q704 199 735.5 196.5Q767 194 819 180Q843 174 865.0 158.5Q887 143 901.0 130.0Q915 117 915 117Q915 117 898.5 117.5Q882 118 853 110Q823 103 801.0 91.0Q779 79 765 70Q751 62 723.0 49.5Q695 37 656 33Q617 29 599.0 37.0Q581 45 581 45Q581 45 593.5 55.0Q606 65 617.5 76.5Q629 88 626 93Q622 102 590.0 92.5Q558 83 518 74Q478 66 446.5 66.0Q415 66 415 66Z" fill="#eda052" stroke="none" transform="scale(1,-1) translate(0,-256)" /></svg>