<?xml version="1.0" encoding="utf-8" ?>
<svg baseProfile="full" height="256" version="1.1" width="256" xmlns="http://www.w3.org/2000/svg" xmlns:ev="http://www.w3.org/2001/xml-events" xmlns:xlink="http://www.w3.org/1999/xlink"><defs /><path d="M167 -6Q171 18 192.0 47.0Q213 76 262.0 102.5Q311 129 396.0 148.0Q481 167 613 171Q744 176 837.5 158.5Q931 141 990.0 111.0Q1049 81 1078.0 47.0Q1107 13 1109 -16Q1112 -45 1088.5 -79.5Q1065 -114 1011.5 -145.0Q958 -176 870.0 -196.5Q782 -217 657 -217Q489 -217 377.0 -188.5Q265 -160 211.5 -112.0Q158 -64 167 -6Z" fill="#179cf5" stroke="none" transform="scale(1,-1) translate(0,-256)" /></svg>