<?xml version="1.0" encoding="utf-8" ?>
<svg baseProfile="full" height="256" version="1.1" width="256" xmlns="http://www.w3.org/2000/svg" xmlns:ev="http://www.w3.org/2001/xml-events" xmlns:xlink="http://www.w3.org/1999/xlink"><defs /><path d="M709 530Q705 528 686.0 535.5Q667 543 641 554Q616 564 603.5 571.0Q591 578 594 588Q596 593 608.0 591.5Q620 590 630 587Q640 584 652.5 579.5Q665 575 665 575Q665 575 660.0 585.0Q655 595 650 605Q644 615 638.0 630.0Q632 645 641 651Q649 656 657.5 644.5Q666 633 671 625Q677 614 684.5 600.0Q692 586 692 586Q692 586 694.5 596.5Q697 607 699 617Q701 628 705.0 636.5Q709 645 716 643Q726 641 724.5 624.5Q723 608 721 594Q719 584 717.0 569.0Q715 554 712.5 542.5Q710 531 709 530Z" fill="#bdcf47" stroke="none" transform="scale(1,-1) translate(0,-256)" /></svg>