<?xml version="1.0" encoding="utf-8" ?>
<svg baseProfile="full" height="256" version="1.1" width="256" xmlns="http://www.w3.org/2000/svg" xmlns:ev="http://www.w3.org/2001/xml-events" xmlns:xlink="http://www.w3.org/1999/xlink"><defs /><path d="M878 246Q873 283 875.0 337.0Q877 391 884.5 452.0Q892 513 901.0 573.0Q910 633 917.0 683.5Q924 734 925 766Q926 795 912.0 810.5Q898 826 877.5 828.5Q857 831 839.0 821.0Q821 811 815 790Q812 781 805.0 751.5Q798 722 788.5 680.5Q779 639 768.5 593.5Q758 548 749.0 508.0Q740 468 734.5 441.5Q729 415 728 412Q726 397 715.0 398.0Q704 399 705 413Q705 416 706.0 445.0Q707 474 708.0 519.0Q709 564 710.5 615.5Q712 667 713.0 715.5Q714 764 714.5 801.0Q715 838 714 853Q714 882 697.5 896.0Q681 910 658.5 911.0Q636 912 618.0 900.0Q600 888 596 864Q593 845 590.0 807.0Q587 769 584.0 720.5Q581 672 578.0 622.0Q575 572 572.5 528.5Q570 485 568.5 457.0Q567 429 566 425Q565 414 553.0 413.0Q541 412 540 422Q540 426 536.0 452.0Q532 478 526.5 518.0Q521 558 514.0 603.0Q507 648 501.0 690.0Q495 732 490.5 762.5Q486 793 484 804Q479 827 463.0 837.0Q447 847 428.0 845.0Q409 843 394.5 830.5Q380 818 379 796Q377 767 382.0 703.5Q387 640 395.5 555.0Q404 470 412 377Q412 365 400.5 362.5Q389 360 384 373Q384 376 376.0 401.5Q368 427 356.5 463.5Q345 500 333.0 537.0Q321 574 312.0 602.5Q303 631 300 638Q292 657 275.5 663.0Q259 669 241.0 664.5Q223 660 211.5 645.5Q200 631 203 609Q204 592 209.0 559.5Q214 527 220.5 490.0Q227 453 232.5 422.0Q238 391 241 377Q255 310 260.0 265.5Q265 221 267.5 186.5Q270 152 275.0 116.0Q280 80 293 29Q314 -50 352.0 -100.0Q390 -150 438.5 -176.0Q487 -202 539.5 -209.5Q592 -217 642.0 -210.0Q692 -203 733 -186Q774 -170 808.0 -140.5Q842 -111 868.5 -77.0Q895 -43 914.5 -11.0Q934 21 945.0 43.5Q956 66 959 71Q982 109 1012.0 142.0Q1042 175 1072.5 203.5Q1103 232 1126.0 255.0Q1149 278 1157 296Q1167 317 1156.5 341.0Q1146 365 1120 373Q1080 384 1043.5 372.0Q1007 360 976.0 336.0Q945 312 922.0 286.0Q899 260 886 244Q880 238 878 246Z" fill="#ffca28" stroke="none" transform="scale(1,-1) translate(0,-256)" /></svg>