<?xml version="1.0" encoding="utf-8" ?>
<svg baseProfile="full" height="256" version="1.1" width="256" xmlns="http://www.w3.org/2000/svg" xmlns:ev="http://www.w3.org/2001/xml-events" xmlns:xlink="http://www.w3.org/1999/xlink"><defs /><path d="M524 304 615 347 748 310Q748 310 749.0 288.0Q750 266 750.5 232.5Q751 199 752.0 163.0Q753 127 753 98Q753 69 752.0 37.0Q751 5 750.0 -23.0Q749 -51 748.0 -69.0Q747 -87 747 -89Q747 -91 734.5 -94.0Q722 -97 705 -97Q688 -98 674.5 -93.0Q661 -88 661 -86Q661 -84 659.5 -68.0Q658 -52 655.5 -30.5Q653 -9 651.5 10.5Q650 30 650 39Q650 47 649.0 66.0Q648 85 647 105Q646 128 644.5 147.0Q643 166 639 166Q633 166 630.5 148.0Q628 130 628 101Q627 87 627.0 70.5Q627 54 627 36Q626 6 623.5 -22.0Q621 -50 618.0 -68.5Q615 -87 615 -90Q614 -93 601.5 -96.0Q589 -99 570 -100Q555 -100 543.5 -97.0Q532 -94 531 -91Q530 -90 528.5 -62.5Q527 -35 525.0 8.0Q523 51 522 98Q520 207 522.0 255.5Q524 304 524 304Z" fill="#7c7c7c" stroke="none" transform="scale(1,-1) translate(0,-256)" /></svg>