<?xml version="1.0" encoding="utf-8" ?>
<svg baseProfile="full" height="256" version="1.1" width="256" xmlns="http://www.w3.org/2000/svg" xmlns:ev="http://www.w3.org/2001/xml-events" xmlns:xlink="http://www.w3.org/1999/xlink"><defs /><path d="M451 416 506 395Q506 395 505.5 377.5Q505 360 504 348Q504 340 502.5 320.5Q501 301 499.5 284.5Q498 268 498 268Q498 268 500.5 260.0Q503 252 505.0 246.0Q507 240 505 243Q504 249 498.0 254.5Q492 260 491 264Q490 267 491.0 283.0Q492 299 493.0 315.5Q494 332 495 337Q495 343 492.5 353.5Q490 364 481 369Q468 376 459.0 385.5Q450 395 450 395Z" fill="#f09e00" stroke="none" transform="scale(1,-1) translate(0,-256)" /><path d="M762 330Q760 336 758.0 352.0Q756 368 756 371Q755 374 752.5 384.0Q750 394 750 394L802 429L808 402Q808 402 802.0 399.0Q796 396 790 393Q785 390 777.0 385.0Q769 380 765 372Q762 364 762.0 347.0Q762 330 762 330Z" fill="#f09e00" stroke="none" transform="scale(1,-1) translate(0,-256)" /><path d="M552 592Q552 592 552.0 592.0Q552 592 552 592L625 561L704 600L668 608Q668 611 668.0 615.0Q668 619 668 622Q667 634 667.5 640.5Q668 647 668 647H589Q589 647 589.0 638.5Q589 630 589 619Q589 614 589.0 610.5Q589 607 589 607Z" fill="#f09e00" stroke="none" transform="scale(1,-1) translate(0,-256)" /></svg>