<?xml version="1.0" encoding="utf-8" ?>
<svg baseProfile="full" height="256" version="1.1" width="256" xmlns="http://www.w3.org/2000/svg" xmlns:ev="http://www.w3.org/2001/xml-events" xmlns:xlink="http://www.w3.org/1999/xlink"><defs /><path d="M511 746Q510 746 513 728Q514 720 516.0 713.5Q518 707 518 707L534 687Q534 687 525.5 686.0Q517 685 507.0 690.0Q497 695 494 713Q490 735 500.5 740.5Q511 746 511 746Z" fill="#e59502" stroke="none" transform="scale(1,-1) translate(0,-256)" /><path d="M739 743Q739 743 738.0 729.5Q737 716 736 712Q734 707 722.5 702.5Q711 698 711 698Q711 698 718.0 691.0Q725 684 729 684Q733 684 744.5 688.0Q756 692 758 716Q759 736 750.5 740.5Q742 745 739 743Z" fill="#e59502" stroke="none" transform="scale(1,-1) translate(0,-256)" /></svg>