<?xml version="1.0" encoding="utf-8" ?>
<svg baseProfile="full" height="256" version="1.1" width="256" xmlns="http://www.w3.org/2000/svg" xmlns:ev="http://www.w3.org/2001/xml-events" xmlns:xlink="http://www.w3.org/1999/xlink"><defs /><path d="M736 590Q752 581 758.5 565.0Q765 549 777 530Q786 517 797.0 497.0Q808 477 817.0 460.0Q826 443 826 440Q826 434 802 416Q790 407 782.0 402.5Q774 398 774 398L756 413L746 385Q746 385 746.5 377.0Q747 369 747 355Q748 351 748.5 339.0Q749 327 749.0 316.0Q749 305 748 302Q746 296 715.0 285.0Q684 274 638 272Q607 271 582.5 276.5Q558 282 542.5 289.0Q527 296 525 297Q522 299 522.0 310.5Q522 322 522.5 334.0Q523 346 524 350Q524 356 524.0 365.5Q524 375 524 375L513 395L495 385Q495 385 485.5 389.5Q476 394 464 403Q453 411 446.5 416.5Q440 422 438 426Q436 428 442.5 444.5Q449 461 458.0 482.5Q467 504 473 521Q482 547 491.0 562.5Q500 578 518 587Q540 598 564.0 603.0Q588 608 588 608Q588 608 591.5 600.5Q595 593 604.0 586.0Q613 579 630 579Q649 580 657.0 587.5Q665 595 666.5 602.0Q668 609 668 609Q668 609 681.0 607.0Q694 605 710.0 601.0Q726 597 736 590Z" fill="#f06e00" stroke="none" transform="scale(1,-1) translate(0,-256)" /></svg>