<?xml version="1.0" encoding="utf-8" ?>
<svg baseProfile="full" height="256" version="1.1" width="256" xmlns="http://www.w3.org/2000/svg" xmlns:ev="http://www.w3.org/2001/xml-events" xmlns:xlink="http://www.w3.org/1999/xlink"><defs /><path d="M540 -81 610 -77Q610 -77 610.0 -90.0Q610 -103 610.0 -116.5Q610 -130 610 -134Q610 -140 606.5 -146.5Q603 -153 600 -158Q597 -164 595.0 -171.0Q593 -178 589 -188Q583 -205 563.0 -211.0Q543 -217 524 -206Q521 -204 513.5 -198.0Q506 -192 507 -184Q509 -166 519.5 -151.5Q530 -137 535 -125Q541 -111 540.5 -96.0Q540 -81 540 -81Z" fill="#335599" stroke="none" transform="scale(1,-1) translate(0,-256)" /><path d="M738.6549987792969 -78.56300354003906 668.6549987792969 -74.56300354003906Q668.6549987792969 -74.56300354003906 668.6549987792969 -87.56300354003906Q668.6549987792969 -100.56300354003906 668.6549987792969 -114.06300354003906Q668.6549987792969 -127.56300354003906 668.6549987792969 -131.56300354003906Q668.6549987792969 -137.56300354003906 672.1549987792969 -144.06300354003906Q675.6549987792969 -150.56300354003906 678.6549987792969 -155.56300354003906Q681.6549987792969 -161.56300354003906 683.6549987792969 -168.56300354003906Q685.6549987792969 -175.56300354003906 689.6549987792969 -185.56300354003906Q695.6549987792969 -202.56300354003906 715.6549987792969 -208.56300354003906Q735.6549987792969 -214.56300354003906 754.6549987792969 -203.56300354003906Q757.6549987792969 -201.56300354003906 765.1549987792969 -195.56300354003906Q772.6549987792969 -189.56300354003906 771.6549987792969 -181.56300354003906Q769.6549987792969 -163.56300354003906 759.1549987792969 -149.06300354003906Q748.6549987792969 -134.56300354003906 743.6549987792969 -122.56300354003906Q737.6549987792969 -108.56300354003906 738.1549987792969 -93.56300354003906Q738.6549987792969 -78.56300354003906 738.6549987792969 -78.56300354003906Z" fill="#335599" stroke="none" transform="scale(1,-1) translate(0,-256)" /></svg>