<?xml version="1.0" encoding="utf-8" ?>
<svg baseProfile="full" height="256" version="1.1" width="256" xmlns="http://www.w3.org/2000/svg" xmlns:ev="http://www.w3.org/2001/xml-events" xmlns:xlink="http://www.w3.org/1999/xlink"><defs /><path d="M989 563Q989 476 951.0 407.0Q913 338 847.5 292.5Q782 247 700 232V103H848Q862 103 872.0 93.0Q882 83 882 69V10Q882 -4 872.5 -11.5Q863 -19 849 -19H701L700 -144Q700 -158 690.0 -168.0Q680 -178 666 -178H598Q584 -178 574.0 -168.0Q564 -158 564 -144L565 -19H417Q403 -19 392.5 -11.5Q382 -4 382 10V69Q382 83 392.0 93.0Q402 103 416 103H564V231Q479 247 412.0 295.5Q345 344 308.0 416.5Q271 489 275 580Q278 649 306.0 709.5Q334 770 380.5 816.5Q427 863 488.0 890.5Q549 918 618 921Q695 923 762.0 896.5Q829 870 880.0 820.5Q931 771 960.0 705.0Q989 639 989 563ZM415 567Q415 501 444.5 452.0Q474 403 523.5 376.0Q573 349 632 349Q691 349 739.5 376.5Q788 404 817.0 451.0Q846 498 847 557Q848 620 823.0 673.5Q798 727 749.0 759.0Q700 791 631 791Q570 791 521.0 764.0Q472 737 443.5 687.0Q415 637 415 567Z" fill="#c71fff" stroke="none" transform="scale(1,-1) translate(0,-256)" /></svg>