<?xml version="1.0" encoding="utf-8" ?>
<svg baseProfile="full" height="256" version="1.1" width="256" xmlns="http://www.w3.org/2000/svg" xmlns:ev="http://www.w3.org/2001/xml-events" xmlns:xlink="http://www.w3.org/1999/xlink"><defs /><path d="M833 395Q864 396 874.5 377.5Q885 359 885 337Q884 315 875.0 292.5Q866 270 839 270Q813 269 805.0 289.0Q797 309 795 330Q793 349 800.0 371.5Q807 394 833 395Z" fill="#2f2f2f" stroke="none" transform="scale(1,-1) translate(0,-256)" /><path d="M448 397Q478 399 488.5 377.0Q499 355 498 333Q498 311 489.5 291.0Q481 271 454 272Q436 272 421.5 292.5Q407 313 406 342Q405 362 413.5 379.0Q422 396 448 397Z" fill="#2f2f2f" stroke="none" transform="scale(1,-1) translate(0,-256)" /><path d="M646 79Q663 80 679.0 81.0Q695 82 709 86Q722 90 732.5 94.5Q743 99 749 84Q755 71 741.5 63.0Q728 55 720 52Q712 50 691.0 46.5Q670 43 645 42Q625 42 609.0 45.0Q593 48 574 54Q555 60 545.5 71.0Q536 82 545 92Q553 102 564.0 97.0Q575 92 584 89Q592 86 611.0 82.5Q630 79 646 79Z" fill="#2f2f2f" stroke="none" transform="scale(1,-1) translate(0,-256)" /></svg>