<?xml version="1.0" encoding="utf-8" ?>
<svg baseProfile="full" height="256" version="1.1" width="256" xmlns="http://www.w3.org/2000/svg" xmlns:ev="http://www.w3.org/2001/xml-events" xmlns:xlink="http://www.w3.org/1999/xlink"><defs /><path d="M162 461Q169 461 186.5 460.5Q204 460 210 460Q224 460 224 448Q224 446 224.0 428.0Q224 410 224.0 391.5Q224 373 224 370Q223 357 214 356Q212 356 200.5 356.0Q189 356 176.5 356.0Q164 356 159 356Q153 357 151.5 361.0Q150 365 150 370Q150 373 150.0 389.5Q150 406 150.5 423.5Q151 441 151 446Q151 459 162 461Z" fill="#b0b0b0" stroke="none" transform="scale(1,-1) translate(0,-256)" /></svg>