<?xml version="1.0" encoding="utf-8" ?>
<svg baseProfile="full" height="256" version="1.1" width="256" xmlns="http://www.w3.org/2000/svg" xmlns:ev="http://www.w3.org/2001/xml-events" xmlns:xlink="http://www.w3.org/1999/xlink"><defs /><path d="M532 493Q532 493 507.0 493.0Q482 493 445.0 493.0Q408 493 371.0 493.0Q334 493 309.0 493.0Q284 493 283 493Q282 493 282.0 478.0Q282 463 282.5 447.5Q283 432 285 432Q287 431 312.0 430.5Q337 430 373.0 430.0Q409 430 445.5 429.5Q482 429 506.5 429.0Q531 429 531 430Q532 430 532.0 446.0Q532 462 532.0 477.5Q532 493 532 493Z" fill="#d15116" stroke="none" transform="scale(1,-1) translate(0,-256)" /></svg>