<?xml version="1.0" encoding="utf-8" ?>
<svg baseProfile="full" height="256" version="1.1" width="256" xmlns="http://www.w3.org/2000/svg" xmlns:ev="http://www.w3.org/2001/xml-events" xmlns:xlink="http://www.w3.org/1999/xlink"><defs /><path d="M1113 658Q1125 655 1150.0 651.0Q1175 647 1200 643V545Q1184 536 1152.5 520.5Q1121 505 1079 488Q1040 472 1007.0 469.5Q974 467 938.0 475.0Q902 483 854 499Q826 508 794.5 528.5Q763 549 733.0 573.0Q703 597 678.5 619.0Q654 641 640.0 655.5Q626 670 626 670Q639 674 652 681Q674 690 696.0 698.0Q718 706 741 714Q746 716 752.5 717.5Q759 719 764 716Q768 714 771.0 710.5Q774 707 779 707Q783 707 789 712Q796 717 802.5 722.5Q809 728 816 734Q838 748 857.0 767.0Q876 786 896 803Q909 817 922 807Q932 801 943.5 794.0Q955 787 961 777Q979 750 991.0 738.5Q1003 727 1014.5 721.0Q1026 715 1044 705Q1053 700 1062.5 687.0Q1072 674 1082 668Q1089 664 1097.0 662.0Q1105 660 1113 658Z" fill="#a0c7e8" stroke="none" transform="scale(1,-1) translate(0,-256)" /></svg>