<?xml version="1.0" encoding="utf-8" ?>
<svg baseProfile="full" height="256" version="1.1" width="256" xmlns="http://www.w3.org/2000/svg" xmlns:ev="http://www.w3.org/2001/xml-events" xmlns:xlink="http://www.w3.org/1999/xlink"><defs /><path d="M340 236Q350 236 350 245V356Q350 366 340 366H248Q239 366 239 356V245Q239 236 248 236Z" fill="#bae2fd" stroke="none" transform="scale(1,-1) translate(0,-256)" /><path d="M511.75 236.0Q521.75 236.0 521.75 245.0V356.0Q521.75 366.0 511.75 366.0H419.75Q410.75 366.0 410.75 356.0V245.0Q410.75 236.0 419.75 236.0Z" fill="#bae2fd" stroke="none" transform="scale(1,-1) translate(0,-256)" /><path d="M683.5 236.0Q693.5 236.0 693.5 245.0V356.0Q693.5 366.0 683.5 366.0H591.5Q582.5 366.0 582.5 356.0V245.0Q582.5 236.0 591.5 236.0Z" fill="#bae2fd" stroke="none" transform="scale(1,-1) translate(0,-256)" /><path d="M855.25 236.0Q865.25 236.0 865.25 245.0V356.0Q865.25 366.0 855.25 366.0H763.25Q754.25 366.0 754.25 356.0V245.0Q754.25 236.0 763.25 236.0Z" fill="#bae2fd" stroke="none" transform="scale(1,-1) translate(0,-256)" /><path d="M1027 236Q1037 236 1037 245V356Q1037 366 1027 366H935Q925 366 925 356V245Q925 236 935 236Z" fill="#bae2fd" stroke="none" transform="scale(1,-1) translate(0,-256)" /></svg>