<?xml version="1.0" encoding="utf-8" ?>
<svg baseProfile="full" height="256" version="1.1" width="256" xmlns="http://www.w3.org/2000/svg" xmlns:ev="http://www.w3.org/2001/xml-events" xmlns:xlink="http://www.w3.org/1999/xlink"><defs /><path d="M596 823Q597 813 590.0 808.0Q583 803 576 803Q561 802 558 818Q556 826 561.5 832.5Q567 839 575 840Q583 841 589.5 835.5Q596 830 596 823Z" fill="#ffffff" stroke="none" transform="scale(1,-1) translate(0,-256)" /><path d="M648 787Q655 786 657.5 781.5Q660 777 660 773Q660 768 655.0 764.0Q650 760 645 761Q641 761 637.0 765.0Q633 769 633 774Q634 788 648 787Z" fill="#ffffff" stroke="none" transform="scale(1,-1) translate(0,-256)" /><path d="M1034.25 874.375Q1041.25 873.375 1043.75 868.875Q1046.25 864.375 1046.25 860.375Q1046.25 855.375 1041.25 851.375Q1036.25 847.375 1031.25 848.375Q1027.25 848.375 1023.25 852.375Q1019.25 856.375 1019.25 861.375Q1020.25 875.375 1034.25 874.375Z" fill="#ffffff" stroke="none" transform="scale(1,-1) translate(0,-256)" /><path d="M172 874Q178 874 181.5 870.0Q185 866 185 862Q185 857 181.0 852.5Q177 848 171 848Q168 848 163.5 851.5Q159 855 158 860Q158 874 172 874Z" fill="#ffffff" stroke="none" transform="scale(1,-1) translate(0,-256)" /><path d="M1091 788Q1097 780 1096.0 774.0Q1095 768 1093 766Q1091 762 1083.0 757.5Q1075 753 1067 762Q1060 769 1061.0 776.0Q1062 783 1066 787Q1070 792 1077.5 793.0Q1085 794 1091 788Z" fill="#ffffff" stroke="none" transform="scale(1,-1) translate(0,-256)" /><path d="M786 855Q786 855 774.5 855.5Q763 856 763 852Q763 848 770.5 841.5Q778 835 778 835Q778 835 774.0 824.0Q770 813 773 811Q777 809 786.0 816.0Q795 823 795 823Q795 823 804.5 816.5Q814 810 816 811Q818 813 816.0 823.5Q814 834 814 834Q814 834 821.5 839.5Q829 845 828 848Q827 851 818.0 852.5Q809 854 809 854Q809 854 805.0 865.5Q801 877 798 877Q795 877 790.5 866.0Q786 855 786 855Z" fill="#ffffff" stroke="none" transform="scale(1,-1) translate(0,-256)" /></svg>