<?xml version="1.0" encoding="utf-8" ?>
<svg baseProfile="full" height="256" version="1.1" width="256" xmlns="http://www.w3.org/2000/svg" xmlns:ev="http://www.w3.org/2001/xml-events" xmlns:xlink="http://www.w3.org/1999/xlink"><defs /><path d="M137 592Q134 589 115.5 573.5Q97 558 75 541V591Q87 595 88 596Q91 600 94.0 603.0Q97 606 100 609Q104 613 111 618Q117 623 123.0 627.0Q129 631 134 637Q139 643 142.0 649.5Q145 656 148 664Q154 678 159.5 693.0Q165 708 171 723Q158 710 129.5 691.0Q101 672 75 657V698Q101 717 132.0 740.5Q163 764 191.0 785.5Q219 807 234 820Q239 824 253.5 831.5Q268 839 275 840Q293 844 306.5 843.5Q320 843 320 843Q320 843 312.5 836.5Q305 830 296.5 821.5Q288 813 286 807Q286 807 282.5 791.5Q279 776 274.0 758.0Q269 740 265 731Q258 715 248.0 701.0Q238 687 227 674Q234 703 237 732Q220 716 203 699Q187 683 171 666Q168 662 164.5 658.5Q161 655 158 651Q154 645 150 636Q147 628 144.0 613.5Q141 599 137 592Z" fill="#b9e4ea" stroke="none" transform="scale(1,-1) translate(0,-256)" /><path d="M132 461 102 416 75 370V499L113 537L125 583L173 633L141 530Z" fill="#b9e4ea" stroke="none" transform="scale(1,-1) translate(0,-256)" /></svg>