<?xml version="1.0" encoding="utf-8" ?>
<svg baseProfile="full" height="256" version="1.1" width="256" xmlns="http://www.w3.org/2000/svg" xmlns:ev="http://www.w3.org/2001/xml-events" xmlns:xlink="http://www.w3.org/1999/xlink"><defs /><path d="M103 61 95 39 75 58V675Q85 684 93.5 690.5Q102 697 105 699Q165 735 216 782Q236 801 254.5 815.0Q273 829 301 840Q314 845 324.0 843.0Q334 841 341 839Q354 835 362.0 828.0Q370 821 380 812Q394 799 406.0 782.5Q418 766 435 757Q453 743 471.0 741.0Q489 739 500 739Q544 740 580.5 721.0Q617 702 642.5 677.5Q668 653 680 640Q700 617 724.0 601.0Q748 585 771 568Q815 536 866.5 515.5Q918 495 972 495Q1021 495 1052.5 506.0Q1084 517 1102.5 529.0Q1121 541 1130 545Q1135 545 1139.0 542.0Q1143 539 1147 538Q1152 537 1156.0 539.0Q1160 541 1164 543Q1168 546 1178.5 552.0Q1189 558 1200 565V147H1196Q1196 143 1196.0 139.5Q1196 136 1196 132Q1196 125 1196.0 118.0Q1196 111 1196 104Q1196 98 1196.0 86.0Q1196 74 1196 74L1180 51L1162 73L1145 49Q1145 49 1144.5 59.5Q1144 70 1141.5 82.5Q1139 95 1134 102L1122 62L1109 84L1090 57Q1090 57 1078.5 60.5Q1067 64 1053.5 68.0Q1040 72 1034 73Q1027 74 984.5 72.5Q942 71 876.5 68.0Q811 65 733.0 62.5Q655 60 576.0 58.5Q497 57 427.5 58.5Q358 60 311 66Q288 69 265.5 72.5Q243 76 220 80Q217 81 207.5 73.0Q198 65 189.0 56.5Q180 48 180 48L157 60L148 46L130 68L118 35Z" fill="#9bc4d1" stroke="none" transform="scale(1,-1) translate(0,-256)" /></svg>