<?xml version="1.0" encoding="utf-8" ?>
<svg baseProfile="full" height="256" version="1.1" width="256" xmlns="http://www.w3.org/2000/svg" xmlns:ev="http://www.w3.org/2001/xml-events" xmlns:xlink="http://www.w3.org/1999/xlink"><defs /><path d="M1200 15V-142Q1200 -150 1198 -158L78 -161Q76 -146 75.5 -121.0Q75 -96 75.0 -76.0Q75 -56 75 -56L84 -32L100 -50L109 -23L125 -50L139 -29L153 -50L161 -27L172 -48L191 -32L206 -51L216 -39L233 -53Q233 -53 243.0 -54.0Q253 -55 258 -53Q264 -51 268.5 -48.0Q273 -45 279 -45Q287 -44 294.5 -47.0Q302 -50 309 -51Q322 -52 333.5 -45.5Q345 -39 357 -35Q361 -34 383.0 -33.0Q405 -32 432.0 -32.0Q459 -32 480.0 -32.5Q501 -33 503 -35Q506 -38 508.5 -42.0Q511 -46 515 -47Q520 -49 532.0 -49.5Q544 -50 549 -50L574 -24L590 -50Q594 -47 599.5 -38.5Q605 -30 605 -30L615 -56L639 -35L664 -58L676 -37L691 -58L709 -32Q709 -32 733.5 -31.5Q758 -31 795.5 -31.0Q833 -31 870.5 -31.5Q908 -32 934.5 -33.0Q961 -34 964 -37Q969 -42 974.0 -48.0Q979 -54 986 -56Q987 -57 1000.0 -51.5Q1013 -46 1025.0 -40.5Q1037 -35 1037 -35L1055 -46L1071 -29L1082 -50L1105 -32L1113 -48L1126 -28L1140 -40L1153 0L1171 -41Z" fill="#9ccc65" stroke="none" transform="scale(1,-1) translate(0,-256)" /></svg>