<?xml version="1.0" encoding="utf-8" ?>
<svg baseProfile="full" height="256" version="1.1" width="256" xmlns="http://www.w3.org/2000/svg" xmlns:ev="http://www.w3.org/2001/xml-events" xmlns:xlink="http://www.w3.org/1999/xlink"><defs /><path d="M1037 566Q1040 563 1042 560Q1052 549 1050.5 534.0Q1049 519 1037 509L812 284Q802 276 788 275Q772 275 761.0 286.0Q750 297 750 313V444Q750 451 744.5 457.0Q739 463 731 463H544Q536 463 530.5 457.0Q525 451 525 444V313Q525 299 516 289Q506 277 490.5 275.5Q475 274 463 284L238 509Q236 511 235 513Q225 524 225.5 539.5Q226 555 238 566L463 791Q473 799 487 800Q503 800 514.0 789.0Q525 778 525 763V631Q525 624 530.5 618.5Q536 613 544 613H731Q739 613 744.5 618.5Q750 624 750 631V763Q750 776 759 787Q769 798 784.5 799.5Q800 801 812 791Z" fill="#fafafa" stroke="none" transform="scale(1,-1) translate(0,-256)" /><path d="M567 34Q567 99 535 134Q503 168 443 168Q383 168 351 134Q319 99 319 34Q319 -31 351 -66Q383 -100 443 -100Q503 -100 535 -66Q567 -31 567 34ZM377 34Q377 78 394 100Q410 122 443 122Q509 122 509 34Q509 -54 443 -54Q410 -54 393 -32Q377 -10 377 34Z" fill="#fafafa" stroke="none" transform="scale(1,-1) translate(0,-256)" /><path d="M840.593994140625 -97.0V164.0H790.593994140625V41.0Q790.593994140625 20.0 793.593994140625 -31.0H791.593994140625L678.593994140625 164.0H608.593994140625V-97.0H658.593994140625V26.0Q658.593994140625 48.0 654.593994140625 101.0H656.593994140625L769.593994140625 -97.0Z" fill="#fafafa" stroke="none" transform="scale(1,-1) translate(0,-256)" /><path d="M883 -71Q883 -79 885 -85Q888 -91 892 -95Q896 -98 902 -100Q908 -102 914 -102Q921 -102 926 -100Q932 -98 936 -95Q941 -91 943 -85Q946 -79 946 -71Q946 -63 943 -57Q940 -51 936 -48Q932 -44 926 -43Q921 -41 914 -41Q908 -41 902 -43Q896 -44 892 -48Q888 -51 885 -57Q883 -63 883 -71ZM936 -10 945 164H884L893 -10Z" fill="#fafafa" stroke="none" transform="scale(1,-1) translate(0,-256)" /></svg>