<?xml version="1.0" encoding="utf-8" ?>
<svg baseProfile="full" height="256" version="1.1" width="256" xmlns="http://www.w3.org/2000/svg" xmlns:ev="http://www.w3.org/2001/xml-events" xmlns:xlink="http://www.w3.org/1999/xlink"><defs /><path d="M285 182Q279 195 278 225Q277 240 284.5 263.0Q292 286 311 299Q330 312 347.5 308.0Q365 304 365 304Q365 304 369.0 312.5Q373 321 381.5 330.0Q390 339 405 342Q420 345 430.5 339.5Q441 334 446.5 327.5Q452 321 452 321Q452 321 451.0 334.5Q450 348 462 363Q473 375 485.5 377.0Q498 379 507.0 376.5Q516 374 516 374Q516 374 514.5 383.0Q513 392 521 404Q529 416 543.5 419.0Q558 422 563 418Q568 414 558.5 410.0Q549 406 544 400Q532 386 533 371Q533 367 540.5 362.0Q548 357 556 347Q564 336 566.0 323.0Q568 310 566 306Q564 302 558.0 314.5Q552 327 545 337Q537 349 521.0 354.5Q505 360 495 357Q481 353 479.0 334.0Q477 315 502 297Q523 283 540.0 287.5Q557 292 560 292Q564 293 575.0 288.0Q586 283 610 286Q633 290 647.5 301.5Q662 313 668 323Q672 330 675.0 339.5Q678 349 682 334Q684 329 679.5 310.0Q675 291 648 273Q630 261 609.5 260.0Q589 259 575.0 262.0Q561 265 561 265Q561 265 543.0 262.0Q525 259 507 265Q488 270 476.5 281.5Q465 293 465 293Q465 293 467.0 282.5Q469 272 464 250Q461 234 451.0 223.5Q441 213 441 212Q442 208 446.5 190.0Q451 172 453 163Q454 158 455.5 138.5Q457 119 450.5 97.5Q444 76 421 64Q399 52 376.5 55.5Q354 59 339.0 68.0Q324 77 323 81Q321 86 331.5 84.5Q342 83 357.0 81.0Q372 79 386 81Q407 84 411.5 104.5Q416 125 415 145Q414 157 409.5 175.0Q405 193 401.0 207.0Q397 221 397 223Q397 225 408.5 226.0Q420 227 429 239Q438 251 442.0 269.5Q446 288 440.0 304.0Q434 320 413 323Q392 326 383.0 310.5Q374 295 372.0 275.5Q370 256 371 248Q373 235 368.5 237.5Q364 240 360 252Q357 263 358.5 270.5Q360 278 360 278Q360 278 347.5 282.5Q335 287 321 276Q307 264 302.0 245.5Q297 227 297 208Q298 188 293.0 181.5Q288 175 285 182Z" fill="#6a493b" stroke="none" transform="scale(1,-1) translate(0,-256)" /></svg>