<?xml version="1.0" encoding="utf-8" ?>
<svg baseProfile="full" height="256" version="1.1" width="256" xmlns="http://www.w3.org/2000/svg" xmlns:ev="http://www.w3.org/2001/xml-events" xmlns:xlink="http://www.w3.org/1999/xlink"><defs /><path d="M788 236 789 167 930 218 1030 260 1053 341 1021 379 989 394 984 423 964 437 938 435Q938 435 936.0 443.0Q934 451 914 465Q901 474 880.5 461.0Q860 448 842.5 422.5Q825 397 820 369Q813 326 820.5 303.5Q828 281 827 275Q826 271 816.5 261.5Q807 252 797.5 244.0Q788 236 788 236Z" fill="#6e4d44" stroke="none" transform="scale(1,-1) translate(0,-256)" /></svg>