<?xml version="1.0" encoding="utf-8" ?>
<svg baseProfile="full" height="256" version="1.1" width="256" xmlns="http://www.w3.org/2000/svg" xmlns:ev="http://www.w3.org/2001/xml-events" xmlns:xlink="http://www.w3.org/1999/xlink"><defs /><path d="M-613.4514770507812 -235.98681640625 -642.3514404296875 -261.4502258300781Q-642.3514404296875 -261.4502258300781 -621.6053009033203 -278.66416931152344Q-600.8591613769531 -295.87811279296875 -582.4179382324219 -320.5845947265625Q-563.0416259765625 -345.6455078125 -538.5001373291016 -392.3493347167969Q-513.9586486816406 -439.05316162109375 -497.2998046875 -499.5015563964844Q-480.9671325683594 -560.8105773925781 -501.34178161621094 -624.4464874267578Q-521.7164306640625 -688.0823974609375 -573.2100524902344 -736.4782409667969Q-598.3262329101562 -760.4230651855469 -626.4546661376953 -765.509521484375Q-654.5830993652344 -770.5959777832031 -681.4396514892578 -763.8613128662109Q-708.2962036132812 -757.1266479492188 -730.8362884521484 -744.6461486816406Q-753.3763732910156 -732.1656494140625 -769.18603515625 -720.2677001953125Q-798.9351806640625 -697.1806640625 -820.0731048583984 -664.0701141357422Q-841.2110290527344 -630.9595642089844 -865.1325073242188 -595.3175659179688Q-889.6629028320312 -558.4605102539062 -906.4399871826172 -558.9912109375Q-923.2170715332031 -559.5219116210938 -929.7829895019531 -621.994140625Q-935.1966857910156 -670.1392517089844 -912.9384002685547 -722.8674621582031Q-890.6801147460938 -775.5956726074219 -846.3931884765625 -822.4017791748047Q-802.1062622070312 -869.2078857421875 -742.0646667480469 -899.8397827148438Q-696.0059814453125 -922.2189025878906 -654.3076629638672 -932.1184692382812Q-612.6093444824219 -942.0180358886719 -579.2616882324219 -944.3232574462891Q-545.9140319824219 -946.6284790039062 -526.7775115966797 -945.5157012939453Q-507.6409912109375 -944.4029235839844 -507.6409912109375 -944.4029235839844Q-507.6409912109375 -944.4029235839844 -489.11338806152344 -942.0750885009766Q-470.5857849121094 -939.7472534179688 -442.6204376220703 -935.0911102294922Q-414.65509033203125 -930.4349670410156 -384.77613830566406 -923.5513763427734Q-354.8971862792969 -916.6677856445312 -331.8683166503906 -906.6956481933594Q-299.6844482421875 -892.3195190429688 -272.5456237792969 -879.9681701660156Q-245.40679931640625 -867.6168212890625 -219.279296875 -849.4687347412109Q-193.15179443359375 -831.3206481933594 -165.42623901367188 -800.4908142089844Q-109.64895629882812 -737.9705200195312 -86.81739807128906 -656.5649871826172Q-63.98583984375 -575.1594543457031 -65.48831176757812 -486.0068664550781Q-67.49066162109375 -409.46014404296875 -91.30404663085938 -345.315673828125Q-115.117431640625 -281.17120361328125 -152.44570922851562 -230.1128692626953Q-189.77398681640625 -179.05453491210938 -232.48410034179688 -142.196533203125Q-253.81744384765625 -122.29937744140625 -280.1958312988281 -104.427001953125Q-306.57421875 -86.55462646484375 -330.82139587402344 -72.93495178222656Q-355.0685729980469 -59.315277099609375 -370.78028869628906 -51.3914794921875Q-386.49200439453125 -43.467681884765625 -386.49200439453125 -43.467681884765625Z" fill="#000000" stroke="none" transform="scale(1,-1) translate(0,-256)" /><path d="M-248.48931884765625 160.8046417236328Q-240.87750244140625 180.93470764160156 -243.15310668945312 195.1481170654297Q-245.4287109375 209.3615264892578 -245.4287109375 209.3615264892578Q-245.4287109375 209.3615264892578 -236.087646484375 217.42579650878906Q-226.74658203125 225.4900665283203 -220.93560791015625 238.21055603027344Q-215.1246337890625 250.93104553222656 -225.1566162109375 265.99798583984375Q-234.42608642578125 277.4090881347656 -246.11767578125 278.25496673583984Q-257.80926513671875 279.10084533691406 -266.30096435546875 275.92989349365234Q-274.79266357421875 272.7589416503906 -274.79266357421875 272.7589416503906Q-274.79266357421875 272.7589416503906 -282.4111328125 280.9730987548828Q-290.02960205078125 289.187255859375 -308.0069274902344 298.93563079833984Q-325.9842529296875 308.6840057373047 -357.3399658203125 312.7375183105469Q-388.6956787109375 316.79103088378906 -435.28167724609375 308.9286346435547Q-483.974853515625 300.787841796875 -517.6233825683594 284.21875Q-551.2719116210938 267.649658203125 -568.67236328125 253.39798736572266Q-586.0728149414062 239.1463165283203 -586.0728149414062 239.1463165283203Q-586.0728149414062 239.1463165283203 -593.8802490234375 241.1883773803711Q-601.6876831054688 243.23043823242188 -613.0610046386719 240.19103240966797Q-624.434326171875 237.15162658691406 -636.2366333007812 222.95655822753906Q-646.92236328125 210.9580535888672 -644.5718383789062 202.04790496826172Q-642.2213134765625 193.13775634765625 -636.4189453125 188.44023895263672Q-630.6165771484375 183.7427215576172 -630.6165771484375 183.7427215576172Q-630.6165771484375 183.7427215576172 -637.2530517578125 172.6207046508789Q-643.8895263671875 161.49868774414062 -647.6171875 142.56480407714844Q-648.9857177734375 132.13877868652344 -646.7220458984375 114.67947387695312Q-644.4583740234375 97.22016906738281 -630.5541687011719 80.103515625Q-616.6499633789062 62.98686218261719 -582.7666931152344 52.94940185546875Q-548.8834228515625 42.91194152832031 -486.124267578125 47.78849792480469Q-417.60186767578125 52.40196228027344 -373.3783264160156 65.9286117553711Q-329.15478515625 79.45526123046875 -303.7068786621094 96.6484375Q-278.25897216796875 113.84161376953125 -265.6702880859375 130.8726348876953Q-253.08160400390625 147.90365600585938 -248.48931884765625 160.8046417236328Z" fill="#000000" stroke="none" transform="scale(1,-1) translate(0,-256)" /><path d="M815 -50Q816 -84 840.5 -99.5Q865 -115 909 -104Q943 -95 963.5 -78.5Q984 -62 994.5 -44.5Q1005 -27 1008.5 -14.5Q1012 -2 1012 -2Q1012 -2 1028.5 -1.5Q1045 -1 1069.0 2.5Q1093 6 1115 13Q1149 24 1158.5 38.5Q1168 53 1166 68Q1165 82 1150.5 91.0Q1136 100 1136 100Q1136 100 1142.5 114.0Q1149 128 1144 144Q1141 155 1131.0 159.5Q1121 164 1111.5 165.5Q1102 167 1102 167Q1102 167 1101.0 177.5Q1100 188 1095.5 200.0Q1091 212 1080 216Q1067 221 1053.0 212.5Q1039 204 1024.5 189.5Q1010 175 998.0 161.0Q986 147 977 141Q967 134 951.0 130.5Q935 127 913.5 120.5Q892 114 864 97Q848 88 839.5 70.0Q831 52 823 23Q820 12 817.0 -8.0Q814 -28 815 -50Z" fill="#000000" stroke="none" transform="scale(1,-1) translate(0,-256)" /></svg>