<?xml version="1.0" encoding="utf-8" ?>
<svg baseProfile="full" height="256" version="1.1" width="256" xmlns="http://www.w3.org/2000/svg" xmlns:ev="http://www.w3.org/2001/xml-events" xmlns:xlink="http://www.w3.org/1999/xlink"><defs /><path d="M404 395Q411 398 416.0 389.5Q421 381 424 376Q428 369 430.0 361.0Q432 353 429 351Q425 348 418.5 351.0Q412 354 407 365Q394 390 404 395Z" fill="#fefcfe" stroke="none" transform="scale(1,-1) translate(0,-256)" /><path d="M443 381Q443 388 444.5 394.5Q446 401 453 401Q459 400 460.0 392.5Q461 385 461 382Q461 378 460.5 368.0Q460 358 453 359Q446 359 444.5 367.5Q443 376 443 381Z" fill="#fefcfe" stroke="none" transform="scale(1,-1) translate(0,-256)" /><path d="M369 345Q365 350 363.0 356.0Q361 362 365 365Q370 368 375.5 363.5Q381 359 384 355Q386 351 392.0 343.0Q398 335 392 332Q387 328 381.0 333.5Q375 339 369 345Z" fill="#fefcfe" stroke="none" transform="scale(1,-1) translate(0,-256)" /></svg>