<?xml version="1.0" encoding="utf-8" ?>
<svg baseProfile="full" height="256" version="1.1" width="256" xmlns="http://www.w3.org/2000/svg" xmlns:ev="http://www.w3.org/2001/xml-events" xmlns:xlink="http://www.w3.org/1999/xlink"><defs /><path d="M396.24497985839844 677.1253814697266Q425.3144989013672 713.4779205322266 463.11097717285156 731.6590728759766Q500.90745544433594 749.8402252197266 541.615234375 750.9391632080078Q582.3230133056641 752.0381011962891 620.48974609375 737.8710021972656Q658.6564788818359 723.7039031982422 687.7395782470703 695.3597869873047Q716.0957489013672 667.0155181884766 731.3690338134766 629.9453582763672Q746.6423187255859 592.8751983642578 746.6507110595703 552.8941192626953Q746.6591033935547 512.9130401611328 731.0381469726562 474.7460021972656Q715.4171905517578 436.57896423339844 682.7116546630859 406.7680206298828Q646.3722381591797 373.32167053222656 599.1241607666016 362.40782165527344Q551.8760833740234 351.4939727783203 502.8058776855469 363.4779968261719Q453.7356719970703 375.46202087402344 413.02003479003906 411.79991149902344Q386.11863708496094 435.7829132080078 372.2998962402344 469.5821990966797Q358.4811553955078 503.38148498535156 356.6559753417969 540.8179321289062Q354.83079528808594 578.2543792724609 365.0003204345703 613.8760223388672Q375.1698455810547 649.4976654052734 396.24497985839844 677.1253814697266Z" fill="#fcc11a" stroke="none" transform="scale(1,-1) translate(0,-256)" /></svg>