<?xml version="1.0" encoding="utf-8" ?>
<svg baseProfile="full" height="256" version="1.1" width="256" xmlns="http://www.w3.org/2000/svg" xmlns:ev="http://www.w3.org/2001/xml-events" xmlns:xlink="http://www.w3.org/1999/xlink"><defs /><path d="M481 98Q489 95 492.5 72.5Q496 50 495.0 24.0Q494 -2 490 -16Q482 -43 462.5 -53.0Q443 -63 423.5 -57.5Q404 -52 394.0 -34.0Q384 -16 395 12Q405 38 423.0 58.0Q441 78 457.5 89.0Q474 100 481 98Z" fill="#4fc2f7" stroke="none" transform="scale(1,-1) translate(0,-256)" /><path d="M882 42Q889 39 892.5 13.0Q896 -13 894 -39Q893 -59 884.5 -80.0Q876 -101 860.0 -111.0Q844 -121 818 -108Q795 -97 790.5 -80.0Q786 -63 792.0 -45.0Q798 -27 808 -14Q817 0 832.5 14.0Q848 28 862.0 36.5Q876 45 882 42Z" fill="#4fc2f7" stroke="none" transform="scale(1,-1) translate(0,-256)" /><path d="M661 -47Q667 -49 670.0 -66.5Q673 -84 673.0 -109.0Q673 -134 669 -159Q663 -188 643.0 -198.0Q623 -208 602.0 -202.0Q581 -196 571.0 -176.5Q561 -157 576 -127Q585 -107 602.5 -88.0Q620 -69 637.0 -57.5Q654 -46 661 -47Z" fill="#4fc2f7" stroke="none" transform="scale(1,-1) translate(0,-256)" /></svg>