<?xml version="1.0" encoding="utf-8" ?>
<svg baseProfile="full" height="256" version="1.1" width="256" xmlns="http://www.w3.org/2000/svg" xmlns:ev="http://www.w3.org/2001/xml-events" xmlns:xlink="http://www.w3.org/1999/xlink"><defs /><path d="M1093 91Q1078 65 1057 62L221 -136Q195 -143 189.0 -143.0Q183 -143 183 -143L207 366Q207 382 217.5 394.5Q228 407 244 409L456 445Q477 449 491.5 464.5Q506 480 507 502L509 537Q510 556 522.5 569.5Q535 583 554 587L1081 677Q1093 679 1102.5 671.0Q1112 663 1112 650Z" fill="#ffe36c" stroke="none" transform="scale(1,-1) translate(0,-256)" /></svg>