<?xml version="1.0" encoding="utf-8" ?>
<svg baseProfile="full" height="256" version="1.1" width="256" xmlns="http://www.w3.org/2000/svg" xmlns:ev="http://www.w3.org/2001/xml-events" xmlns:xlink="http://www.w3.org/1999/xlink"><defs /><path d="M126 -129Q126 -129 165.5 -151.0Q205 -173 279 -192Q352 -210 394.5 -209.5Q437 -209 437 -209L465 -139L378 -36L350 -47L301 -64Q301 -64 311.0 -72.0Q321 -80 335.0 -91.5Q349 -103 360 -112Q377 -125 380.5 -139.5Q384 -154 384 -154Q384 -154 366.0 -153.0Q348 -152 321.5 -148.0Q295 -144 268 -136Q242 -129 212.5 -116.5Q183 -104 162.5 -94.5Q142 -85 142 -85Z" fill="#c9c9c9" stroke="none" transform="scale(1,-1) translate(0,-256)" /><path d="M1134 -83Q1134 -83 1108.0 -98.5Q1082 -114 1040 -132Q1013 -143 983.5 -149.5Q954 -156 933.5 -159.0Q913 -162 913 -162Q913 -162 912.0 -147.5Q911 -133 928 -108Q935 -99 948.5 -86.0Q962 -73 974.0 -63.0Q986 -53 986 -53L935 -31L842 -59L870 -213Q870 -213 896.0 -210.5Q922 -208 959.5 -202.0Q997 -196 1031 -187Q1065 -177 1092.0 -163.0Q1119 -149 1135.0 -138.0Q1151 -127 1151 -127Z" fill="#c9c9c9" stroke="none" transform="scale(1,-1) translate(0,-256)" /></svg>