<?xml version="1.0" encoding="utf-8" ?>
<svg baseProfile="full" height="256" version="1.1" width="256" xmlns="http://www.w3.org/2000/svg" xmlns:ev="http://www.w3.org/2001/xml-events" xmlns:xlink="http://www.w3.org/1999/xlink"><defs /><path d="M342 372Q342 372 352.5 363.5Q363 355 361 351Q359 347 355.5 330.5Q352 314 351 303Q351 298 351.0 281.5Q351 265 351.0 246.5Q351 228 351.0 214.5Q351 201 351 201Q351 201 339.0 212.0Q327 223 310 225Q293 227 279.0 224.0Q265 221 265 221L269 355Z" fill="#e1e1e1" stroke="none" transform="scale(1,-1) translate(0,-256)" /><path d="M535 343 574 313 575 181Q575 181 559.5 186.0Q544 191 526 192Q507 194 489.0 189.0Q471 184 471 184Q471 184 470.0 199.0Q469 214 468 232Q467 245 467.0 265.5Q467 286 467.5 302.5Q468 319 468 319Z" fill="#e1e1e1" stroke="none" transform="scale(1,-1) translate(0,-256)" /><path d="M719 316 754 365 827 326Q827 326 831.5 311.0Q836 296 837 276Q839 256 840.0 235.0Q841 214 842.0 199.5Q843 185 843 185Q843 185 825.0 192.5Q807 200 786 198Q771 197 756.0 192.0Q741 187 731.0 182.5Q721 178 721 178Q721 178 721.5 199.5Q722 221 722 240Q721 253 720.5 270.5Q720 288 719.5 302.0Q719 316 719 316Z" fill="#e1e1e1" stroke="none" transform="scale(1,-1) translate(0,-256)" /><path d="M941 206Q941 206 941.5 229.0Q942 252 940 283Q938 313 932.0 330.0Q926 347 926 347L924 418L1013 379Q1013 379 1015.0 367.5Q1017 356 1019 334Q1021 320 1022.0 298.0Q1023 276 1023.0 259.5Q1023 243 1023 243Q1023 243 1011.0 243.0Q999 243 984 239Q975 236 965.0 228.0Q955 220 948.0 213.0Q941 206 941 206Z" fill="#e1e1e1" stroke="none" transform="scale(1,-1) translate(0,-256)" /></svg>