<?xml version="1.0" encoding="utf-8" ?>
<svg baseProfile="full" height="256" version="1.1" width="256" xmlns="http://www.w3.org/2000/svg" xmlns:ev="http://www.w3.org/2001/xml-events" xmlns:xlink="http://www.w3.org/1999/xlink"><defs /><path d="M271 203 552 153 529 64Q529 64 519.0 41.0Q509 18 494.0 -16.5Q479 -51 464.0 -86.0Q449 -121 438.5 -145.0Q428 -169 427 -171Q426 -173 405.0 -172.0Q384 -171 357.5 -169.0Q331 -167 310.5 -165.5Q290 -164 290 -164L141 -90Q141 -90 147.5 -66.5Q154 -43 163.0 -9.5Q172 24 179 55Q184 78 189.5 105.5Q195 133 199.0 158.0Q203 183 205.5 199.5Q208 216 208 216Z" fill="#ff6110" stroke="none" transform="scale(1,-1) translate(0,-256)" /><path d="M737 154 852 -174 996 -179 1136 -92Q1136 -92 1129.5 -72.5Q1123 -53 1113.5 -20.5Q1104 12 1095 49Q1089 72 1081.5 103.5Q1074 135 1068.5 158.0Q1063 181 1063 181L1049 219Z" fill="#ff6110" stroke="none" transform="scale(1,-1) translate(0,-256)" /><path d="M641 670 720 649Q720 649 741.0 628.0Q762 607 827 565Q891 523 934.0 499.0Q977 475 1021 456Q1066 437 1077.5 426.5Q1089 416 1089 416Q1089 416 1071.0 406.0Q1053 396 1022.5 382.0Q992 368 954.0 354.5Q916 341 876 333Q837 326 781.0 320.5Q725 315 661.0 313.5Q597 312 532.0 315.0Q467 318 410 326Q334 337 280.5 351.5Q227 366 198.5 377.0Q170 388 169 388Q167 389 165.0 393.5Q163 398 176 407Q184 412 199.0 417.5Q214 423 225 427Q232 430 265.5 446.0Q299 462 357 499Q386 518 417.0 539.0Q448 560 474.5 579.0Q501 598 517.0 610.0Q533 622 533 622Z" fill="#ff6110" stroke="none" transform="scale(1,-1) translate(0,-256)" /><path d="M644 783 633 892Q633 892 644.0 900.0Q655 908 685 904Q709 902 724.0 891.5Q739 881 752.0 869.5Q765 858 782 852Q810 841 832.5 842.5Q855 844 861 840Q867 836 859.0 825.0Q851 814 842 806Q833 797 810.0 786.0Q787 775 756 775Q736 774 721.0 778.5Q706 783 687 786Q668 788 656.0 785.5Q644 783 644 783Z" fill="#ff6110" stroke="none" transform="scale(1,-1) translate(0,-256)" /></svg>