<?xml version="1.0" encoding="utf-8" ?>
<svg baseProfile="full" height="256" version="1.1" width="256" xmlns="http://www.w3.org/2000/svg" xmlns:ev="http://www.w3.org/2001/xml-events" xmlns:xlink="http://www.w3.org/1999/xlink"><defs /><path d="M358 730Q311 730 268.0 702.5Q225 675 190 624Q154 570 134.0 499.0Q114 428 114 350Q114 272 133.5 201.0Q153 130 190 76Q225 25 268.0 -2.5Q311 -30 358 -30Q404 -30 447.5 -2.5Q491 25 525 76Q562 130 581.5 201.0Q601 272 601 350Q601 428 581.5 499.0Q562 570 525 624Q491 675 447.5 702.5Q404 730 358 730ZM358 767Q416 767 467.0 734.5Q518 702 556.5 645.0Q595 588 617.0 512.0Q639 436 639 350Q639 264 617.0 188.0Q595 112 556.5 55.0Q518 -2 467.0 -34.5Q416 -67 358 -67Q300 -67 249.0 -34.5Q198 -2 159.0 55.0Q120 112 98.5 188.0Q77 264 77 350Q77 436 98.5 512.0Q120 588 159.0 645.0Q198 702 249.0 734.5Q300 767 358 767Z" fill="#b0bec5" stroke="none" transform="scale(1,-1) translate(0,-256)" /><path d="M917 730Q871 730 827.5 702.5Q784 675 750 624Q713 570 693.5 499.0Q674 428 674 350Q674 272 693.5 201.0Q713 130 750 76Q784 25 827.5 -2.5Q871 -30 917 -30Q964 -30 1007.0 -2.5Q1050 25 1085 76Q1121 130 1141.0 201.0Q1161 272 1161 350Q1161 428 1141.0 499.0Q1121 570 1085 624Q1050 675 1007.0 702.5Q964 730 917 730ZM917 767Q975 767 1026.0 734.5Q1077 702 1116.0 645.0Q1155 588 1176.5 512.0Q1198 436 1198 350Q1198 264 1176.5 188.0Q1155 112 1116.0 55.0Q1077 -2 1026.0 -34.5Q975 -67 917 -67Q859 -67 808.0 -34.5Q757 -2 718.5 55.0Q680 112 658.0 188.0Q636 264 636 350Q636 436 658.0 512.0Q680 588 718.5 645.0Q757 702 808.0 734.5Q859 767 917 767Z" fill="#b0bec5" stroke="none" transform="scale(1,-1) translate(0,-256)" /></svg>