<?xml version="1.0" encoding="utf-8" ?>
<svg baseProfile="full" height="256" version="1.1" width="256" xmlns="http://www.w3.org/2000/svg" xmlns:ev="http://www.w3.org/2001/xml-events" xmlns:xlink="http://www.w3.org/1999/xlink"><defs /><path d="M358 -49Q412 -49 459.5 -18.0Q507 13 543.0 68.0Q579 123 599.5 195.5Q620 268 620 350Q620 432 599.5 504.5Q579 577 543.0 632.0Q507 687 459.5 718.0Q412 749 358 749Q304 749 256.5 718.0Q209 687 172.5 632.0Q136 577 116.0 504.5Q96 432 96 350Q96 268 116.0 195.5Q136 123 172.0 68.0Q208 13 256.0 -18.0Q304 -49 358 -49Z" fill="#fafafa" stroke="none" transform="scale(1,-1) translate(0,-256)" /><path d="M917.5 -49.0Q971.5 -49.0 1019.0 -18.0Q1066.5 13.0 1102.5 68.0Q1138.5 123.0 1159.0 195.5Q1179.5 268.0 1179.5 350.0Q1179.5 432.0 1159.0 504.5Q1138.5 577.0 1102.5 632.0Q1066.5 687.0 1019.0 718.0Q971.5 749.0 917.5 749.0Q863.5 749.0 816.0 718.0Q768.5 687.0 732.0 632.0Q695.5 577.0 675.5 504.5Q655.5 432.0 655.5 350.0Q655.5 268.0 675.5 195.5Q695.5 123.0 731.5 68.0Q767.5 13.0 815.5 -18.0Q863.5 -49.0 917.5 -49.0Z" fill="#fafafa" stroke="none" transform="scale(1,-1) translate(0,-256)" /></svg>