<?xml version="1.0" encoding="utf-8" ?>
<svg baseProfile="full" height="256" version="1.1" width="256" xmlns="http://www.w3.org/2000/svg" xmlns:ev="http://www.w3.org/2001/xml-events" xmlns:xlink="http://www.w3.org/1999/xlink"><defs /><path d="M278 389Q294 374 318.5 375.5Q343 377 366 394Q371 371 371 346Q371 301 354.5 263.0Q338 225 310.0 203.0Q282 181 249 181Q215 181 187.5 203.0Q160 225 143.5 263.0Q127 301 127 346Q127 392 143.5 430.0Q160 468 187.5 490.0Q215 512 249 512Q273 512 296 500Q293 498 291 495Q266 469 262.5 438.0Q259 407 278 389Z" fill="#000000" stroke="none" transform="scale(1,-1) translate(0,-256)" /><path d="M837.5 389.0Q853.5 374.0 878.0 375.5Q902.5 377.0 925.5 394.0Q930.5 371.0 930.5 346.0Q930.5 301.0 914.0 263.0Q897.5 225.0 869.5 203.0Q841.5 181.0 808.5 181.0Q774.5 181.0 747.0 203.0Q719.5 225.0 703.0 263.0Q686.5 301.0 686.5 346.0Q686.5 392.0 703.0 430.0Q719.5 468.0 747.0 490.0Q774.5 512.0 808.5 512.0Q832.5 512.0 855.5 500.0Q852.5 498.0 850.5 495.0Q825.5 469.0 822.0 438.0Q818.5 407.0 837.5 389.0Z" fill="#000000" stroke="none" transform="scale(1,-1) translate(0,-256)" /></svg>