<?xml version="1.0" encoding="utf-8" ?>
<svg baseProfile="full" height="256" version="1.1" width="256" xmlns="http://www.w3.org/2000/svg" xmlns:ev="http://www.w3.org/2001/xml-events" xmlns:xlink="http://www.w3.org/1999/xlink"><defs /><path d="M164 350H1200V177Q1200 177 1170.5 177.0Q1141 177 1090.5 177.0Q1040 177 976.5 177.0Q913 177 845.0 177.0Q777 177 712.5 177.0Q648 177 595.0 177.0Q542 177 508.0 177.0Q474 177 469 177Q417 177 388.5 188.0Q360 199 342.5 219.0Q325 239 305 265Q287 290 263.0 306.5Q239 323 216.5 332.5Q194 342 179.0 346.0Q164 350 164 350Z" fill="#455a64" stroke="none" transform="scale(1,-1) translate(0,-256)" /></svg>