<?xml version="1.0" encoding="utf-8" ?>
<svg baseProfile="full" height="256" version="1.1" width="256" xmlns="http://www.w3.org/2000/svg" xmlns:ev="http://www.w3.org/2001/xml-events" xmlns:xlink="http://www.w3.org/1999/xlink"><defs /><path d="M309 364 1200 367V913Q1200 913 1167.5 913.0Q1135 913 1079.5 913.0Q1024 913 955.0 913.0Q886 913 812.0 913.0Q738 913 668.0 913.0Q598 913 541 913Q474 913 421.0 891.0Q368 869 328.5 832.5Q289 796 260.0 752.0Q231 708 211.5 662.5Q192 617 180 577Q171 550 164.0 527.5Q157 505 156 486Q155 466 165.0 450.5Q175 435 199 419Z" fill="#e0e0e0" stroke="none" transform="scale(1,-1) translate(0,-256)" /><path d="M1200 208V366H305Q305 366 310.0 356.5Q315 347 321.0 334.5Q327 322 330 314Q352 263 386.0 235.5Q420 208 492 208Z" fill="#e0e0e0" stroke="none" transform="scale(1,-1) translate(0,-256)" /></svg>