<?xml version="1.0" encoding="utf-8" ?>
<svg baseProfile="full" height="256" version="1.1" width="256" xmlns="http://www.w3.org/2000/svg" xmlns:ev="http://www.w3.org/2001/xml-events" xmlns:xlink="http://www.w3.org/1999/xlink"><defs /><path d="M394 -211 531 -212Q531 -212 531.0 -192.5Q531 -173 531.0 -144.0Q531 -115 531.0 -84.5Q531 -54 531.0 -31.0Q531 -8 531 -2Q531 12 526.0 27.5Q521 43 507.0 54.5Q493 66 465 66Q436 66 421.0 54.0Q406 42 400.5 26.5Q395 11 395 0Q395 -7 394.5 -30.5Q394 -54 394.0 -84.5Q394 -115 394.0 -144.0Q394 -173 394.0 -192.0Q394 -211 394 -211Z" fill="#865c50" stroke="none" transform="scale(1,-1) translate(0,-256)" /><path d="M576 -211Q576 -211 590.0 -211.0Q604 -211 625.0 -211.0Q646 -211 666.5 -211.0Q687 -211 701.0 -211.0Q715 -211 715 -211Q715 -211 715.0 -192.5Q715 -174 715.0 -145.5Q715 -117 715.0 -86.5Q715 -56 714.5 -31.5Q714 -7 714 3Q713 28 696.0 49.5Q679 71 642 70Q607 69 591.0 47.5Q575 26 575 -2Q574 -9 574.0 -32.5Q574 -56 574.5 -86.0Q575 -116 575.0 -144.5Q575 -173 575.5 -192.0Q576 -211 576 -211Z" fill="#865c50" stroke="none" transform="scale(1,-1) translate(0,-256)" /><path d="M757 -211H891Q891 -211 891.0 -192.5Q891 -174 891.0 -146.0Q891 -118 891.0 -88.0Q891 -58 891.0 -34.0Q891 -10 891 -1Q891 23 875.0 45.5Q859 68 822 68Q799 68 784.5 56.5Q770 45 763.5 29.0Q757 13 757 0Q757 -6 757.0 -29.5Q757 -53 757.0 -83.5Q757 -114 757.0 -143.0Q757 -172 757.0 -191.5Q757 -211 757 -211Z" fill="#865c50" stroke="none" transform="scale(1,-1) translate(0,-256)" /></svg>