<?xml version="1.0" encoding="utf-8" ?>
<svg baseProfile="full" height="256" version="1.1" width="256" xmlns="http://www.w3.org/2000/svg" xmlns:ev="http://www.w3.org/2001/xml-events" xmlns:xlink="http://www.w3.org/1999/xlink"><defs /><path d="M191 -212 1076 -211 1081 690 887 688Q887 688 887.0 657.5Q887 627 887.0 576.5Q887 526 886.5 465.5Q886 405 886.0 344.5Q886 284 885.5 233.5Q885 183 884.0 151.5Q883 120 883 120Q882 119 855.0 118.5Q828 118 784.0 117.5Q740 117 687.5 117.0Q635 117 583.0 117.5Q531 118 487.0 118.0Q443 118 416.0 118.5Q389 119 388 120Q387 120 386.5 151.0Q386 182 385.0 233.0Q384 284 383.5 344.5Q383 405 382.5 465.5Q382 526 382.0 576.5Q382 627 382.0 657.5Q382 688 382 688L190 687Z" fill="#b79277" stroke="none" transform="scale(1,-1) translate(0,-256)" /></svg>