<?xml version="1.0" encoding="utf-8" ?>
<svg baseProfile="full" height="256" version="1.1" width="256" xmlns="http://www.w3.org/2000/svg" xmlns:ev="http://www.w3.org/2001/xml-events" xmlns:xlink="http://www.w3.org/1999/xlink"><defs /><path d="M1005 46Q1054 106 1080.0 179.5Q1106 253 1106 330Q1106 423 1071.0 504.5Q1036 586 974.5 648.0Q913 710 831.5 744.5Q750 779 657 779Q579 780 506.0 754.0Q433 728 373 678L309 614Q259 552 233.5 479.5Q208 407 208.0 330.5Q208 254 233.5 181.0Q259 108 309 46Q368 -26 446.5 -67.0Q525 -108 612.0 -116.5Q699 -125 784.0 -100.5Q869 -76 941 -17Z" fill="#414042" stroke="none" transform="scale(1,-1) translate(0,-256)" /></svg>