<?xml version="1.0" encoding="utf-8" ?>
<svg baseProfile="full" height="256" version="1.1" width="256" xmlns="http://www.w3.org/2000/svg" xmlns:ev="http://www.w3.org/2001/xml-events" xmlns:xlink="http://www.w3.org/1999/xlink"><defs /><path d="M459 848Q419 837 363.0 805.5Q307 774 259 730Q223 695 197 655Q180 632 166 607Q159 594 157 580Q154 564 168 558Q170 557 173 557Q177 558 180 561Q197 577 209.0 596.0Q221 615 234 634Q302 728 404 782Q456 807 510 821Q523 823 529 835Q531 842 526.5 849.0Q522 856 515 858Q503 862 487.0 856.5Q471 851 459 848Z" fill="#ff8a80" stroke="none" transform="scale(1,-1) translate(0,-256)" /></svg>