<?xml version="1.0" encoding="utf-8" ?>
<svg baseProfile="full" height="256" version="1.1" width="256" xmlns="http://www.w3.org/2000/svg" xmlns:ev="http://www.w3.org/2001/xml-events" xmlns:xlink="http://www.w3.org/1999/xlink"><defs /><path d="M707 339Q728 320 748.0 300.0Q768 280 780.5 262.5Q793 245 792 234Q791 223 774.5 209.5Q758 196 735.0 183.5Q712 171 690.0 165.5Q668 160 656 165Q648 169 642.5 196.0Q637 223 634.5 257.5Q632 292 632 318Q624 305 609.5 286.5Q595 268 578.5 250.0Q562 232 547.0 220.5Q532 209 522 210Q508 213 493.0 233.5Q478 254 467.5 279.5Q457 305 456 323Q456 335 468 340Q477 344 498.5 351.0Q520 358 552 363Q527 379 512.0 401.5Q497 424 499 449L808 430Q806 397 777.5 373.0Q749 349 707 339Z" fill="#ffca28" stroke="none" transform="scale(1,-1) translate(0,-256)" /></svg>