<?xml version="1.0" encoding="utf-8" ?>
<svg baseProfile="full" height="256" version="1.1" width="256" xmlns="http://www.w3.org/2000/svg" xmlns:ev="http://www.w3.org/2001/xml-events" xmlns:xlink="http://www.w3.org/1999/xlink"><defs /><path d="M770 760Q770 779 775.5 790.0Q781 801 791 797Q802 793 798.5 785.0Q795 777 798 750Q801 722 821.5 682.5Q842 643 887 592Q933 540 968.0 517.0Q1003 494 1017 489Q1047 478 1057.0 477.5Q1067 477 1068 469Q1068 460 1057.0 456.0Q1046 452 1032 455Q1004 462 965.5 486.0Q927 510 867 574Q819 627 794.0 677.0Q769 727 770 760Z" fill="#1e88fe" stroke="none" transform="scale(1,-1) translate(0,-256)" /><path d="M754 754Q748 765 731.0 750.5Q714 736 697 719Q690 711 679.5 701.5Q669 692 662.5 683.0Q656 674 661 667Q667 658 680.5 668.5Q694 679 714 698Q730 714 744.5 729.0Q759 744 754 754Z" fill="#1e88fe" stroke="none" transform="scale(1,-1) translate(0,-256)" /><path d="M728 628Q738 637 748.5 647.0Q759 657 768.0 661.5Q777 666 783 658Q788 652 780.0 641.5Q772 631 760.0 620.5Q748 610 742 604Q736 599 726.0 589.5Q716 580 706.5 575.0Q697 570 691 576Q682 585 692.5 595.0Q703 605 728 628Z" fill="#1e88fe" stroke="none" transform="scale(1,-1) translate(0,-256)" /><path d="M793 541Q809 556 822.5 569.0Q836 582 846 571Q854 562 839.5 547.0Q825 532 812 520Q803 511 791.5 499.5Q780 488 770.0 481.5Q760 475 754 480Q743 490 757.5 505.0Q772 520 793 541Z" fill="#1e88fe" stroke="none" transform="scale(1,-1) translate(0,-256)" /><path d="M834 408Q825 417 837.5 431.5Q850 446 867 462Q881 476 897.0 489.5Q913 503 922 494Q932 484 917.5 470.5Q903 457 887 441Q871 423 857.0 411.0Q843 399 834 408Z" fill="#1e88fe" stroke="none" transform="scale(1,-1) translate(0,-256)" /><path d="M954 410Q969 425 982.5 435.5Q996 446 1005 439Q1013 431 1002.0 419.0Q991 407 978 395Q970 388 959.5 377.0Q949 366 939.0 359.5Q929 353 923 358Q913 366 922.0 376.5Q931 387 954 410Z" fill="#1e88fe" stroke="none" transform="scale(1,-1) translate(0,-256)" /></svg>