<?xml version="1.0" encoding="utf-8" ?>
<svg baseProfile="full" height="256" version="1.1" width="256" xmlns="http://www.w3.org/2000/svg" xmlns:ev="http://www.w3.org/2001/xml-events" xmlns:xlink="http://www.w3.org/1999/xlink"><defs /><path d="M421 400Q413 411 419.0 420.5Q425 430 437.5 440.0Q450 450 461 462Q478 483 495.5 508.0Q513 533 528 548Q538 558 554.5 570.0Q571 582 590.0 583.5Q609 585 626 564Q643 543 637.0 526.5Q631 510 615.5 497.5Q600 485 588 479Q570 469 545.0 450.5Q520 432 495 410Q469 388 449.5 387.5Q430 387 421 400Z" fill="#ffffff" stroke="none" transform="scale(1,-1) translate(0,-256)" /></svg>