<?xml version="1.0" encoding="utf-8" ?>
<svg baseProfile="full" height="256" version="1.1" width="256" xmlns="http://www.w3.org/2000/svg" xmlns:ev="http://www.w3.org/2001/xml-events" xmlns:xlink="http://www.w3.org/1999/xlink"><defs /><path d="M697 759Q719 778 741.5 791.0Q764 804 790 803Q800 802 827.0 793.0Q854 784 894.0 757.0Q934 730 982 675Q1022 629 1042.5 588.0Q1063 547 1070.0 518.0Q1077 489 1076 478Q1075 468 1064.5 452.0Q1054 436 1041.0 421.0Q1028 406 1021 400Q997 375 977.5 357.0Q958 339 931 335Q905 331 847.5 365.5Q790 400 726 470Q663 541 642.0 594.0Q621 647 623 665Q625 683 640.0 703.5Q655 724 697 759Z" fill="#37b4e5" stroke="none" transform="scale(1,-1) translate(0,-256)" /></svg>