<?xml version="1.0" encoding="utf-8" ?>
<svg baseProfile="full" height="256" version="1.1" width="256" xmlns="http://www.w3.org/2000/svg" xmlns:ev="http://www.w3.org/2001/xml-events" xmlns:xlink="http://www.w3.org/1999/xlink"><defs /><path d="M741 521 876 388Q876 388 879.0 373.0Q882 358 877.5 330.0Q873 302 853 262Q839 234 813.0 205.0Q787 176 760.5 152.5Q734 129 719 117Q703 105 681.5 78.5Q660 52 640.5 24.5Q621 -3 611 -16Q604 -27 588.5 -49.5Q573 -72 547.0 -92.0Q521 -112 480 -115Q452 -117 412.0 -109.0Q372 -101 326.5 -76.5Q281 -52 234 -2Q167 70 146.5 125.5Q126 181 128 221Q130 254 142.0 276.5Q154 299 169.0 313.0Q184 327 193 334Q206 344 234.5 361.0Q263 378 295.0 397.0Q327 416 350 433Q384 457 419.5 493.5Q455 530 489 564Q518 592 548.0 605.5Q578 619 604.5 622.0Q631 625 647 621Q663 618 681.0 597.5Q699 577 715.0 554.0Q731 531 741 521Z" fill="#f5f3e7" stroke="none" transform="scale(1,-1) translate(0,-256)" /></svg>