<?xml version="1.0" encoding="utf-8" ?>
<svg baseProfile="full" height="256" version="1.1" width="256" xmlns="http://www.w3.org/2000/svg" xmlns:ev="http://www.w3.org/2001/xml-events" xmlns:xlink="http://www.w3.org/1999/xlink"><defs /><path d="M257 -17 284 -34 295 -75Q295 -75 289.0 -78.5Q283 -82 272 -87Q265 -91 256.0 -94.5Q247 -98 237 -103Q227 -108 219.0 -116.5Q211 -125 203 -125Q189 -125 191 -94Q191 -77 201.5 -65.0Q212 -53 221 -45Q231 -37 244.0 -27.0Q257 -17 257 -17Z" fill="#5c6269" stroke="none" transform="scale(1,-1) translate(0,-256)" /><path d="M720 113Q720 113 723.0 132.5Q726 152 731.0 181.0Q736 210 740.5 239.0Q745 268 748.0 287.5Q751 307 751 307L832 290L838 104L873 48Q873 48 868.5 47.0Q864 46 861 40Q858 35 857.5 21.5Q857 8 857 8Q857 8 840.5 -3.5Q824 -15 807 -18Q790 -22 778.5 -19.0Q767 -16 767 -16Q767 -16 765.0 -10.0Q763 -4 761 -1Q760 3 752.0 14.5Q744 26 736 40Q727 54 717.0 69.0Q707 84 707 84Z" fill="#5c6269" stroke="none" transform="scale(1,-1) translate(0,-256)" /><path d="M448 84V83L662 77Q662 77 651.0 71.5Q640 66 627.5 57.5Q615 49 611 40Q606 29 602.0 12.0Q598 -5 595.5 -18.5Q593 -32 593 -32Q593 -32 580.5 -36.0Q568 -40 555 -41Q541 -43 526.5 -40.0Q512 -37 512 -37Q512 -37 512.0 -33.0Q512 -29 511 -26Q510 -20 504.0 -12.0Q498 -4 491 2Q480 11 467.0 18.0Q454 25 446 29Q438 32 428.5 34.5Q419 37 419 37Z" fill="#5c6269" stroke="none" transform="scale(1,-1) translate(0,-256)" /></svg>