<?xml version="1.0" encoding="utf-8" ?>
<svg baseProfile="full" height="256" version="1.1" width="256" xmlns="http://www.w3.org/2000/svg" xmlns:ev="http://www.w3.org/2001/xml-events" xmlns:xlink="http://www.w3.org/1999/xlink"><defs /><path d="M197 247Q209 247 215.0 238.0Q221 229 221 218Q221 208 215.5 198.5Q210 189 197 190Q187 190 179.5 196.5Q172 203 172 218Q171 233 179.5 240.5Q188 248 197 247Z" fill="#202121" stroke="none" transform="scale(1,-1) translate(0,-256)" /><path d="M109 126Q109 122 114.5 119.0Q120 116 126 115Q131 114 139.5 113.5Q148 113 158 116Q177 120 178 137Q179 146 173.5 149.0Q168 152 161 148Q153 144 149.5 137.0Q146 130 128 130Q109 129 109 126Z" fill="#202121" stroke="none" transform="scale(1,-1) translate(0,-256)" /></svg>