<?xml version="1.0" encoding="utf-8" ?>
<svg baseProfile="full" height="256" version="1.1" width="256" xmlns="http://www.w3.org/2000/svg" xmlns:ev="http://www.w3.org/2001/xml-events" xmlns:xlink="http://www.w3.org/1999/xlink"><defs /><path d="M1072 40Q1072 40 1071.0 53.5Q1070 67 1069.0 87.0Q1068 107 1067.0 126.0Q1066 145 1066 155Q1066 164 1065.0 183.5Q1064 203 1064.0 223.0Q1064 243 1063.5 257.5Q1063 272 1063 272Q1047 282 1034.5 290.0Q1022 298 1016 302Q1003 312 987.0 326.0Q971 340 971 340L957 206L982 111Q982 111 1001.5 102.5Q1021 94 1034 84Q1047 74 1059.5 57.0Q1072 40 1072 40Z" fill="#858585" stroke="none" transform="scale(1,-1) translate(0,-256)" /></svg>