<?xml version="1.0" encoding="utf-8" ?>
<svg baseProfile="full" height="256" version="1.1" width="256" xmlns="http://www.w3.org/2000/svg" xmlns:ev="http://www.w3.org/2001/xml-events" xmlns:xlink="http://www.w3.org/1999/xlink"><defs /><path d="M919 752Q919 751 919 748V-78Q919 -115 881.0 -145.5Q843 -176 779.0 -194.0Q715 -212 638 -212Q560 -212 496.0 -194.0Q432 -176 394.0 -145.5Q356 -115 356 -78V752H357Q352 800 390.5 836.0Q429 872 494.5 892.5Q560 913 638 913Q715 913 779.0 891.0Q843 869 881.0 832.5Q919 796 919 752Z" fill="#98adb8" stroke="none" transform="scale(1,-1) translate(0,-256)" /></svg>