<?xml version="1.0" encoding="utf-8" ?>
<svg baseProfile="full" height="256" version="1.1" width="256" xmlns="http://www.w3.org/2000/svg" xmlns:ev="http://www.w3.org/2001/xml-events" xmlns:xlink="http://www.w3.org/1999/xlink"><defs /><path d="M759.0 460.06199645996094 760.0 412.06199645996094Q755.0 400.06199645996094 751.0 398.06199645996094Q745.0 394.06199645996094 730.5 390.06199645996094Q716.0 386.06199645996094 693.0 385.06199645996094Q688.0 384.06199645996094 683.5 384.56199645996094Q679.0 385.06199645996094 678.0 380.06199645996094Q678.0 378.06199645996094 678.0 366.56199645996094Q678.0 355.06199645996094 678.0 341.56199645996094Q678.0 328.06199645996094 678.0 320.06199645996094Q678.0 308.06199645996094 666.0 305.56199645996094Q654.0 303.06199645996094 645.0 302.06199645996094Q638.0 302.06199645996094 630.0 302.06199645996094Q621.0 303.06199645996094 609.0 305.56199645996094Q597.0 308.06199645996094 597.0 320.06199645996094Q597.0 328.06199645996094 597.0 341.56199645996094Q597.0 355.06199645996094 597.0 366.56199645996094Q597.0 378.06199645996094 597.0 380.06199645996094Q596.0 385.06199645996094 591.5 384.56199645996094Q587.0 384.06199645996094 582.0 385.06199645996094Q559.0 386.06199645996094 544.5 390.06199645996094Q530.0 394.06199645996094 524.0 398.06199645996094Q520.0 400.06199645996094 515.0 412.06199645996094L516.0 460.06199645996094Q516.0 469.06199645996094 524.0 472.06199645996094Q528.0 474.06199645996094 533.5 472.56199645996094Q539.0 471.06199645996094 545.0 470.06199645996094Q570.0 464.06199645996094 591.0 464.06199645996094Q596.0 464.06199645996094 596.5 467.56199645996094Q597.0 471.06199645996094 597.0 475.06199645996094Q597.0 478.06199645996094 597.0 496.56199645996094Q597.0 515.0619964599609 597.0 526.0619964599609Q597.0 530.0619964599609 598.5 534.5619964599609Q600.0 539.0619964599609 608.0 539.0619964599609Q612.0 539.0619964599609 619.0 538.0619964599609Q626.0 537.0619964599609 637.0 537.0619964599609Q649.0 537.0619964599609 655.5 538.0619964599609Q662.0 539.0619964599609 667.0 539.0619964599609Q675.0 539.0619964599609 676.5 534.5619964599609Q678.0 530.0619964599609 678.0 526.0619964599609Q678.0 515.0619964599609 678.0 496.56199645996094Q678.0 478.06199645996094 678.0 475.06199645996094Q678.0 471.06199645996094 678.5 467.56199645996094Q679.0 464.06199645996094 684.0 464.06199645996094Q705.0 464.06199645996094 730.0 470.06199645996094Q736.0 471.06199645996094 741.5 472.56199645996094Q747.0 474.06199645996094 751.0 472.06199645996094Q759.0 469.06199645996094 759.0 460.06199645996094Z" fill="#ffffff" stroke="none" transform="scale(1,-1) translate(0,-256)" /><path d="M741.0 -17.938003540039062Q751.0 -16.938003540039062 755.5 -22.938003540039062Q760.0 -28.938003540039062 760.0 -36.93800354003906V-75.93800354003906Q760.0 -90.93800354003906 743.0 -99.93800354003906Q726.0 -107.93800354003906 699.5 -112.93800354003906Q673.0 -117.93800354003906 641.0 -117.93800354003906Q640.0 -117.93800354003906 639.0 -117.93800354003906Q638.0 -117.93800354003906 638.0 -117.93800354003906Q637.0 -117.93800354003906 636.0 -117.93800354003906Q635.0 -117.93800354003906 634.0 -117.93800354003906Q602.0 -117.93800354003906 575.5 -112.93800354003906Q549.0 -107.93800354003906 532.0 -99.93800354003906Q515.0 -90.93800354003906 515.0 -75.93800354003906V-36.93800354003906Q515.0 -28.938003540039062 519.5 -22.938003540039062Q524.0 -16.938003540039062 534.0 -17.938003540039062Q534.0 -17.938003540039062 560.5 -23.438003540039062Q587.0 -28.938003540039062 638.0 -28.938003540039062Q688.0 -28.938003540039062 714.5 -23.438003540039062Q741.0 -17.938003540039062 741.0 -17.938003540039062Z" fill="#ffffff" stroke="none" transform="scale(1,-1) translate(0,-256)" /></svg>