<?xml version="1.0" encoding="utf-8" ?>
<svg baseProfile="full" height="256" version="1.1" width="256" xmlns="http://www.w3.org/2000/svg" xmlns:ev="http://www.w3.org/2001/xml-events" xmlns:xlink="http://www.w3.org/1999/xlink"><defs /><path d="M279 -178 347 -100Q347 -100 346.5 -82.5Q346 -65 338 -41Q335 -30 324.5 -16.0Q314 -2 303 6Q292 15 281.0 15.0Q270 15 270 22Q270 29 279.5 30.0Q289 31 300 27Q310 22 316.5 15.0Q323 8 330 7Q336 7 343.0 11.0Q350 15 364.0 29.5Q378 44 404 74Q435 109 449.5 135.0Q464 161 475 163Q486 164 492.0 148.5Q498 133 504 120Q509 108 517.0 96.0Q525 84 525 84L1084 -96Q1084 -96 1087.0 -80.5Q1090 -65 1089 -36Q1088 -5 1081.5 26.5Q1075 58 1069.5 79.5Q1064 101 1064 101Q1064 101 1057.0 122.0Q1050 143 1034.5 177.0Q1019 211 991 248Q964 286 935.5 308.5Q907 331 888.0 340.5Q869 350 869 350Q869 350 867.5 341.5Q866 333 860 322Q854 311 846.5 301.0Q839 291 839 291L767 190L622 246Q622 246 597.5 258.0Q573 270 535 278Q496 286 468.5 285.5Q441 285 441 285Q441 285 424.5 274.0Q408 263 381 239Q349 212 308.0 173.0Q267 134 236 87Q205 39 194.0 -2.5Q183 -44 187 -82Q189 -106 203.5 -124.0Q218 -142 235.5 -154.0Q253 -166 266.0 -172.0Q279 -178 279 -178Z" fill="#583ee2" stroke="none" transform="scale(1,-1) translate(0,-256)" /><path d="M1085 -91Q1083 -102 1073.5 -115.5Q1064 -129 1055.5 -138.5Q1047 -148 1047 -148L872 -172L719 -100Q719 -100 721.0 -91.5Q723 -83 725 -68Q726 -51 725.5 -41.0Q725 -31 725 -31Q725 -31 756.5 -34.5Q788 -38 825 -38Q850 -37 871.0 -30.5Q892 -24 919.5 -18.5Q947 -13 992 -16Q1033 -19 1053.5 -30.5Q1074 -42 1080.0 -56.0Q1086 -70 1085.5 -80.5Q1085 -91 1085 -91Z" fill="#583ee2" stroke="none" transform="scale(1,-1) translate(0,-256)" /></svg>