<?xml version="1.0" encoding="utf-8" ?>
<svg baseProfile="full" height="256" version="1.1" width="256" xmlns="http://www.w3.org/2000/svg" xmlns:ev="http://www.w3.org/2001/xml-events" xmlns:xlink="http://www.w3.org/1999/xlink"><defs /><path d="M653 109 817 71 900 187Q900 187 893.0 204.0Q886 221 874 241Q862 262 850.5 276.5Q839 291 839 291L615 250Q615 250 616.5 239.5Q618 229 620.5 215.5Q623 202 625 193Q629 176 635.5 156.5Q642 137 647.5 123.0Q653 109 653 109Z" fill="#ffca26" stroke="none" transform="scale(1,-1) translate(0,-256)" /><path d="M463 524Q463 524 475.0 542.0Q487 560 508 585Q522 602 551.5 633.5Q581 665 608 695Q634 724 638.5 745.0Q643 766 643 766Q643 766 659.5 744.0Q676 722 717 690Q743 668 769.0 653.0Q795 638 811.5 629.5Q828 621 828 621Q828 621 835.0 594.0Q842 567 840 502Q838 437 801.5 388.5Q765 340 711 325Q657 310 610.5 326.0Q564 342 522 386Q494 416 481.5 447.5Q469 479 466.0 501.5Q463 524 463 524Z" fill="#ffca26" stroke="none" transform="scale(1,-1) translate(0,-256)" /><path d="M309 -98Q319 -92 329.5 -89.5Q340 -87 362 -83Q377 -80 398.5 -79.5Q420 -79 436.0 -79.0Q452 -79 452 -79Q452 -79 452.5 -82.0Q453 -85 447 -92Q442 -100 429.0 -103.5Q416 -107 408 -108Q399 -109 387.0 -113.0Q375 -117 374 -127Q374 -135 384.0 -142.0Q394 -149 409 -154Q424 -159 447.5 -162.5Q471 -166 490 -171Q510 -176 515.5 -187.0Q521 -198 521 -198Q521 -198 505.5 -198.0Q490 -198 466.0 -197.5Q442 -197 416.0 -195.5Q390 -194 368 -191Q324 -185 296.5 -171.5Q269 -158 269 -158Q269 -158 270.0 -148.0Q271 -138 279.5 -124.5Q288 -111 309 -98Z" fill="#ffca26" stroke="none" transform="scale(1,-1) translate(0,-256)" /><path d="M725 -31 750 -68 728 -130Q728 -130 706.5 -133.0Q685 -136 650.0 -137.5Q615 -139 575 -133Q559 -131 540.0 -126.5Q521 -122 507.5 -118.5Q494 -115 494 -115Q494 -115 494.0 -113.0Q494 -111 496 -110Q499 -107 502.5 -107.0Q506 -107 506 -107Q506 -107 516.5 -109.0Q527 -111 533 -113Q537 -114 547.5 -115.0Q558 -116 566.5 -116.0Q575 -116 575 -112Q574 -110 561.5 -106.5Q549 -103 533.0 -99.5Q517 -96 509 -93Q496 -88 480.5 -82.5Q465 -77 463 -70Q462 -64 466.5 -62.0Q471 -60 471 -60Q471 -60 483.0 -65.5Q495 -71 504 -73Q510 -75 528.0 -80.0Q546 -85 562.0 -87.5Q578 -90 578 -85Q578 -82 566.5 -79.0Q555 -76 541.5 -73.0Q528 -70 522 -68Q516 -66 501.5 -62.5Q487 -59 476.0 -54.0Q465 -49 468 -44Q471 -39 478.5 -38.0Q486 -37 495 -38Q507 -39 518.5 -42.5Q530 -46 535 -47Q547 -50 564.5 -53.5Q582 -57 582 -54Q583 -50 571.5 -46.0Q560 -42 549 -38Q540 -34 520.5 -27.0Q501 -20 495 -17Q489 -15 482.5 -11.0Q476 -7 480 -1Q484 5 505.0 0.0Q526 -5 546 -8Q566 -11 589.5 -15.0Q613 -19 615 -14Q617 -9 608.5 0.0Q600 9 592 17Q583 24 579.0 34.5Q575 45 578 48Q580 52 583.0 49.5Q586 47 596 42Q605 37 624.0 27.0Q643 17 669 4Q695 -8 710.0 -19.5Q725 -31 725 -31Z" fill="#ffca26" stroke="none" transform="scale(1,-1) translate(0,-256)" /></svg>