<?xml version="1.0" encoding="utf-8" ?>
<svg baseProfile="full" height="256" version="1.1" width="256" xmlns="http://www.w3.org/2000/svg" xmlns:ev="http://www.w3.org/2001/xml-events" xmlns:xlink="http://www.w3.org/1999/xlink"><defs /><path d="M887 -37Q887 -44 878.0 -58.5Q869 -73 860.0 -84.5Q851 -96 851 -96L515 -206L435 -148Q435 -148 453.5 -122.5Q472 -97 502.5 -61.0Q533 -25 569 7Q610 44 650.5 71.0Q691 98 718.5 112.5Q746 127 748 127Q755 126 771.5 120.5Q788 115 805 101Q817 89 831.5 68.5Q846 48 859.0 25.5Q872 3 880.0 -14.5Q888 -32 887 -37Z" fill="#9a9a9a" stroke="none" transform="scale(1,-1) translate(0,-256)" /></svg>