<?xml version="1.0" encoding="utf-8" ?>
<svg baseProfile="full" height="256" version="1.1" width="256" xmlns="http://www.w3.org/2000/svg" xmlns:ev="http://www.w3.org/2001/xml-events" xmlns:xlink="http://www.w3.org/1999/xlink"><defs /><path d="M513 511Q514 519 527.5 517.0Q541 515 558 519Q579 523 590.0 530.5Q601 538 607 529Q613 521 600.0 507.0Q587 493 563 490Q538 486 524.5 495.0Q511 504 513 511Z" fill="#3f4040" stroke="none" transform="scale(1,-1) translate(0,-256)" /><path d="M701 553Q705 562 718.0 560.0Q731 558 747 562Q765 567 774.5 574.0Q784 581 790 577Q801 569 786.5 553.0Q772 537 750 533Q728 529 712.0 535.5Q696 542 701 553Z" fill="#3f4040" stroke="none" transform="scale(1,-1) translate(0,-256)" /></svg>