<?xml version="1.0" encoding="utf-8" ?>
<svg baseProfile="full" height="256" version="1.1" width="256" xmlns="http://www.w3.org/2000/svg" xmlns:ev="http://www.w3.org/2001/xml-events" xmlns:xlink="http://www.w3.org/1999/xlink"><defs /><path d="M1024 791Q1026 797 1019.5 807.5Q1013 818 980 826Q933 838 873.5 834.5Q814 831 737 784Q661 738 583.5 640.5Q506 543 444 391Q402 290 380.5 197.5Q359 105 351.0 28.5Q343 -48 342 -100Q342 -145 343.5 -172.5Q345 -200 359 -209Q373 -217 393.0 -217.5Q413 -218 425 -203Q433 -192 433.5 -174.5Q434 -157 433.0 -118.5Q432 -80 435 -6Q437 49 441.5 88.0Q446 127 453.5 162.0Q461 197 473.0 238.0Q485 279 502 339Q519 399 547.5 459.0Q576 519 612.0 574.0Q648 629 686.0 673.0Q724 717 759 745Q794 772 828.5 783.5Q863 795 892.5 796.5Q922 798 942.5 795.0Q963 792 970 791Q989 789 1005.0 785.0Q1021 781 1024 791Z" fill="#7cb23f" stroke="none" transform="scale(1,-1) translate(0,-256)" /></svg>