<?xml version="1.0" encoding="utf-8" ?>
<svg baseProfile="full" height="256" version="1.1" width="256" xmlns="http://www.w3.org/2000/svg" xmlns:ev="http://www.w3.org/2001/xml-events" xmlns:xlink="http://www.w3.org/1999/xlink"><defs /><path d="M405 714Q405 714 420.0 707.0Q435 700 451.0 692.0Q467 684 469 681Q475 670 446 578Q435 544 421.5 517.5Q408 491 397.5 475.0Q387 459 387 459L307 510Q307 510 317.0 519.5Q327 529 334 537Q341 545 352.0 563.5Q363 582 371 608Q377 626 384.5 651.0Q392 676 398.0 695.0Q404 714 405 714Z" fill="#ff2622" stroke="none" transform="scale(1,-1) translate(0,-256)" /></svg>