<?xml version="1.0" encoding="utf-8" ?>
<svg baseProfile="full" height="256" version="1.1" width="256" xmlns="http://www.w3.org/2000/svg" xmlns:ev="http://www.w3.org/2001/xml-events" xmlns:xlink="http://www.w3.org/1999/xlink"><defs /><path d="M965 337Q965 337 979.5 343.5Q994 350 1009.0 355.5Q1024 361 1025 360Q1027 358 1033.0 337.5Q1039 317 1046 283Q1055 233 1059.5 195.0Q1064 157 1064 157Q1064 157 1053.5 151.0Q1043 145 1030 140Q1015 134 1000.0 132.5Q985 131 985 133Q985 134 983.0 150.5Q981 167 979.0 189.5Q977 212 975 231Q973 255 971.0 279.5Q969 304 967.0 320.5Q965 337 965 337Z" fill="#52c2f3" stroke="none" transform="scale(1,-1) translate(0,-256)" /></svg>