<?xml version="1.0" encoding="utf-8" ?>
<svg baseProfile="full" height="256" version="1.1" width="256" xmlns="http://www.w3.org/2000/svg" xmlns:ev="http://www.w3.org/2001/xml-events" xmlns:xlink="http://www.w3.org/1999/xlink"><defs /><path d="M359 707 387 660V618Q387 618 382.5 611.5Q378 605 369 598Q359 591 346.5 584.5Q334 578 318 578Q302 578 294.0 589.5Q286 601 282 607Q279 612 275.5 620.0Q272 628 269 630Q266 632 261.5 633.5Q257 635 252 637Q243 641 243 648Q244 653 246.5 656.0Q249 659 252 664Q255 668 257.5 672.5Q260 677 260 677Q260 677 269.5 679.0Q279 681 290.5 683.5Q302 686 307 688Q324 693 341.5 700.0Q359 707 359 707Z" fill="#ffca26" stroke="none" transform="scale(1,-1) translate(0,-256)" /><path d="M779 298Q779 298 775.0 287.5Q771 277 767.0 266.5Q763 256 763 256Q763 256 757.5 247.0Q752 238 749 227Q744 216 747 166Q748 149 749.0 127.5Q750 106 750.0 90.0Q750 74 750 74L719 53L675 66Q675 66 672.5 79.5Q670 93 667.0 111.5Q664 130 662 143Q659 159 655.5 185.0Q652 211 654 236Q654 253 655.0 260.5Q656 268 656 268Z" fill="#ffca26" stroke="none" transform="scale(1,-1) translate(0,-256)" /><path d="M458 496H459L503 466Q503 466 501.5 457.0Q500 448 498.5 438.0Q497 428 496 425Q492 411 476 400Q466 394 449.5 388.0Q433 382 405 373Q377 364 347.5 356.5Q318 349 298.0 344.5Q278 340 277 339Q275 338 267.5 330.0Q260 322 258 321Q256 319 245.0 316.5Q234 314 231 315Q225 318 220.0 327.0Q215 336 213 345Q211 351 212.0 363.5Q213 376 214 379Q215 381 226.0 385.5Q237 390 249.0 394.0Q261 398 264 397Q269 397 273.0 393.0Q277 389 280 389Q284 390 298.0 396.5Q312 403 328.5 411.0Q345 419 356 424Q372 430 386.0 435.5Q400 441 400 441V455Q400 458 400.0 468.0Q400 478 400 478Z" fill="#ffca26" stroke="none" transform="scale(1,-1) translate(0,-256)" /></svg>