<?xml version="1.0" encoding="utf-8" ?>
<svg baseProfile="full" height="256" version="1.1" width="256" xmlns="http://www.w3.org/2000/svg" xmlns:ev="http://www.w3.org/2001/xml-events" xmlns:xlink="http://www.w3.org/1999/xlink"><defs /><path d="M681 0Q681 0 691.5 -6.0Q702 -12 720 -14Q746 -17 758.0 -12.5Q770 -8 771 -10Q772 -11 772.0 -21.0Q772 -31 772 -31Q772 -31 757.5 -38.5Q743 -46 687 -62Q643 -76 626.0 -77.5Q609 -79 609 -79Q609 -79 608.0 -73.0Q607 -67 611 -60Q614 -55 620.5 -49.5Q627 -44 634 -38Q638 -35 649.0 -25.5Q660 -16 669.5 -8.0Q679 0 681 0Z" fill="#e0e0e0" stroke="none" transform="scale(1,-1) translate(0,-256)" /><path d="M1063 -132Q1065 -132 1067 -131Q1073 -127 1069 -120L1029 -53Q1025 -47 1019 -50Q1012 -54 1016 -61L1056 -128Q1059 -132 1063 -132Z" fill="#e0e0e0" stroke="none" transform="scale(1,-1) translate(0,-256)" /><path d="M1115 -88Q1119 -88 1121 -85Q1126 -80 1120 -75L1054 -24Q1048 -19 1043 -25Q1039 -31 1045 -36L1111 -87Q1112 -88 1115 -88Z" fill="#e0e0e0" stroke="none" transform="scale(1,-1) translate(0,-256)" /><path d="M1141 -23Q1146 -23 1148 -18Q1150 -10 1143 -8L1065 14Q1057 16 1055 8Q1053 1 1061 -1L1139 -23Q1139 -23 1141 -23Z" fill="#e0e0e0" stroke="none" transform="scale(1,-1) translate(0,-256)" /><path d="M924 24Q930 24 931 29Q933 36 926 38L826 68Q819 70 817 63Q814 56 822 54L922 24Q923 24 924 24Z" fill="#e0e0e0" stroke="none" transform="scale(1,-1) translate(0,-256)" /><path d="M938 50Q941 50 943 52Q949 57 943 63L873 137Q867 142 862 137Q857 131 862 126L933 52Q935 50 938 50Z" fill="#e0e0e0" stroke="none" transform="scale(1,-1) translate(0,-256)" /><path d="M240 14Q244 14 246 18Q250 25 243 28L147 78Q140 81 137 74Q133 68 140 64L236 15Q238 14 240 14Z" fill="#e0e0e0" stroke="none" transform="scale(1,-1) translate(0,-256)" /><path d="M257 37Q261 37 263 40Q268 45 262 50L180 121Q174 126 170 120Q165 115 170 110L253 39Q255 37 257 37Z" fill="#e0e0e0" stroke="none" transform="scale(1,-1) translate(0,-256)" /><path d="M277 54Q279 54 281 55Q287 59 283 65L231 154Q227 161 220 157Q214 153 218 147L270 57Q272 54 277 54Z" fill="#e0e0e0" stroke="none" transform="scale(1,-1) translate(0,-256)" /><path d="M186 -128Q189 -128 192 -125L261 -44Q266 -38 260 -33Q254 -28 250 -34L180 -116Q175 -121 181 -126Q183 -128 186 -128Z" fill="#e0e0e0" stroke="none" transform="scale(1,-1) translate(0,-256)" /><path d="M392 -137Q395 -137 397 -135Q403 -131 398 -125L331 -44Q327 -38 321 -43Q315 -48 320 -54L386 -134Q389 -137 392 -137Z" fill="#e0e0e0" stroke="none" transform="scale(1,-1) translate(0,-256)" /><path d="M431 -99Q435 -99 437 -96Q442 -90 436 -85L351 -20Q345 -16 340 -22Q335 -27 341 -32L427 -97Q429 -99 431 -99Z" fill="#e0e0e0" stroke="none" transform="scale(1,-1) translate(0,-256)" /><path d="M457 -49Q462 -49 464 -45Q467 -38 460 -35L362 5Q355 8 352 1Q349 -6 356 -9L455 -49Q456 -49 457 -49Z" fill="#e0e0e0" stroke="none" transform="scale(1,-1) translate(0,-256)" /></svg>