<?xml version="1.0" encoding="utf-8" ?>
<svg baseProfile="full" height="256" version="1.1" width="256" xmlns="http://www.w3.org/2000/svg" xmlns:ev="http://www.w3.org/2001/xml-events" xmlns:xlink="http://www.w3.org/1999/xlink"><defs /><path d="M346 721 360 732Q360 732 365.5 721.0Q371 710 376 700Q381 689 386.5 679.0Q392 669 392 669Q392 669 401.0 678.0Q410 687 416 698Q423 709 429.5 725.0Q436 741 436 741L451 746Q451 746 447.5 732.5Q444 719 429 695Q417 675 407.0 664.0Q397 653 397 653Q397 653 396.0 640.0Q395 627 394.0 613.5Q393 600 392 598Q392 593 385.0 593.5Q378 594 378 598Q378 600 379.0 614.0Q380 628 381.0 641.5Q382 655 382 655Q382 655 374.0 669.0Q366 683 361 693Q356 703 351.0 712.0Q346 721 346 721Z" fill="#2f2f2f" stroke="none" transform="scale(1,-1) translate(0,-256)" /><path d="M231 737Q231 737 232.5 732.0Q234 727 236 722Q239 716 241.5 713.0Q244 710 244 710Q244 710 262.5 710.0Q281 710 311.0 713.0Q341 716 375 724Q425 735 458.5 745.0Q492 755 494 761Q495 768 491.5 778.5Q488 789 488 795Q487 798 494.5 807.0Q502 816 509.0 825.5Q516 835 516 839Q515 842 505.0 850.0Q495 858 495 858Q495 858 503.5 868.0Q512 878 512 881Q513 884 509.0 887.0Q505 890 502 890Q500 890 492.0 881.5Q484 873 477.0 864.0Q470 855 470 853Q470 851 476.5 847.0Q483 843 490.0 840.0Q497 837 497 836Q497 835 479.5 825.0Q462 815 435.0 801.5Q408 788 377 775Q346 761 312.0 753.0Q278 745 254.5 741.0Q231 737 231 737Z" fill="#2f2f2f" stroke="none" transform="scale(1,-1) translate(0,-256)" /></svg>