<?xml version="1.0" encoding="utf-8" ?>
<svg baseProfile="full" height="256" version="1.1" width="256" xmlns="http://www.w3.org/2000/svg" xmlns:ev="http://www.w3.org/2001/xml-events" xmlns:xlink="http://www.w3.org/1999/xlink"><defs /><path d="M396 747Q396 747 406.5 750.0Q417 753 431.0 757.0Q445 761 458.0 762.5Q471 764 475 762Q484 756 490.5 741.5Q497 727 509 720Q514 717 520.0 717.0Q526 717 530 715Q534 712 532.5 708.0Q531 704 531 704L435 649Q435 649 429.5 647.0Q424 645 416 647Q408 649 406.0 655.0Q404 661 404 661L406 683Q406 683 410.5 689.0Q415 695 415 708Q415 713 412.0 718.5Q409 724 402 725Q388 727 380 716Q376 710 375.0 703.0Q374 696 374 696L354 725Z" fill="#62453b" stroke="none" transform="scale(1,-1) translate(0,-256)" /></svg>