<?xml version="1.0" encoding="utf-8" ?>
<svg baseProfile="full" height="256" version="1.1" width="256" xmlns="http://www.w3.org/2000/svg" xmlns:ev="http://www.w3.org/2001/xml-events" xmlns:xlink="http://www.w3.org/1999/xlink"><defs /><path d="M359 420Q359 420 347.0 404.0Q335 388 319.0 367.0Q303 346 291.0 330.0Q279 314 279 314Q279 314 281.5 309.0Q284 304 297 299Q314 293 328.0 293.5Q342 294 345 292Q349 290 349.0 283.0Q349 276 348 268Q347 261 341.0 253.0Q335 245 330 245Q327 244 306.0 245.5Q285 247 260.5 256.0Q236 265 222 287Q209 310 209.0 332.5Q209 355 214.0 371.5Q219 388 219 390Q219 393 210.5 403.0Q202 413 200 419Q198 427 206.0 435.0Q214 443 221 441Q228 439 238.5 433.0Q249 427 256 424Q259 422 272.0 425.5Q285 429 305 429Q329 429 344.0 424.5Q359 420 359 420Z" fill="#5f6366" stroke="none" transform="scale(1,-1) translate(0,-256)" /></svg>