<?xml version="1.0" encoding="utf-8" ?>
<svg baseProfile="full" height="256" version="1.1" width="256" xmlns="http://www.w3.org/2000/svg" xmlns:ev="http://www.w3.org/2001/xml-events" xmlns:xlink="http://www.w3.org/1999/xlink"><defs /><path d="M538 604Q556 604 561 623Q578 686 573.5 744.5Q569 803 548 859Q545 869 537.5 879.0Q530 889 522 893Q513 896 498.5 892.0Q484 888 489 875Q514 809 521.0 753.5Q528 698 512 640Q510 631 514.5 618.0Q519 605 534 604Q535 604 536.0 604.0Q537 604 538 604Z" fill="#ec407a" stroke="none" transform="scale(1,-1) translate(0,-256)" /><path d="M598 532Q614 532 621 549Q637 591 645.0 643.0Q653 695 651.0 748.0Q649 801 636 847Q633 856 626.5 871.0Q620 886 609.0 898.5Q598 911 584 912Q574 913 565.0 908.5Q556 904 561 895Q591 842 598.0 781.0Q605 720 597.5 662.5Q590 605 576 562Q574 553 578.5 544.5Q583 536 592 533Q595 532 598 532Z" fill="#ec407a" stroke="none" transform="scale(1,-1) translate(0,-256)" /><path d="M661 464Q673 460 681.5 467.0Q690 474 693 482Q720 566 725.5 637.0Q731 708 724.5 760.5Q718 813 709.0 843.0Q700 873 699 876Q689 900 675.0 905.5Q661 911 651.5 906.5Q642 902 644 896Q644 896 654.0 868.5Q664 841 672.0 789.5Q680 738 676.0 665.5Q672 593 645 502Q643 493 646.0 480.5Q649 468 661 464Z" fill="#ec407a" stroke="none" transform="scale(1,-1) translate(0,-256)" /><path d="M248 102Q253 96 263.5 95.5Q274 95 277 96Q278 97 299.0 106.5Q320 116 350.5 139.0Q381 162 411 204Q416 211 413.0 221.0Q410 231 402 235Q394 240 385.0 237.0Q376 234 370 227Q346 194 320.0 174.5Q294 155 273.0 145.0Q252 135 243 129Q235 124 239.0 116.0Q243 108 248 102Z" fill="#ec407a" stroke="none" transform="scale(1,-1) translate(0,-256)" /><path d="M287 67Q290 58 306.0 50.0Q322 42 339 46Q369 53 407.5 81.0Q446 109 469 148Q473 157 470.5 166.0Q468 175 460 180Q452 185 443.0 182.0Q434 179 428 171Q406 136 382.0 118.5Q358 101 339.0 94.0Q320 87 313 85Q313 85 305.5 83.0Q298 81 291.0 77.0Q284 73 287 67Z" fill="#ec407a" stroke="none" transform="scale(1,-1) translate(0,-256)" /><path d="M363 -2Q373 -8 387.0 -5.5Q401 -3 409 0Q451 18 479.0 40.5Q507 63 532 100Q538 108 536.0 117.5Q534 127 526 133Q518 138 508.5 136.0Q499 134 494 126Q473 95 433.0 65.0Q393 35 353 22Q346 20 349.0 11.5Q352 3 363 -2Z" fill="#ec407a" stroke="none" transform="scale(1,-1) translate(0,-256)" /><path d="M431 -23Q425 -26 431.0 -33.0Q437 -40 449.0 -44.0Q461 -48 475 -43Q519 -28 548.5 -1.5Q578 25 599 59Q604 68 601.5 77.0Q599 86 591 91Q582 96 573.0 93.5Q564 91 559 83Q533 41 495.5 15.0Q458 -11 431 -23Z" fill="#ec407a" stroke="none" transform="scale(1,-1) translate(0,-256)" /><path d="M215 169Q222 160 233.0 154.0Q244 148 255 153Q266 158 270.0 167.5Q274 177 271 181Q221 242 199.0 318.5Q177 395 189 476Q191 488 188.5 504.0Q186 520 180.0 532.0Q174 544 168 544Q161 544 154.0 532.0Q147 520 143 500Q128 411 142.5 324.5Q157 238 215 169Z" fill="#ec407a" stroke="none" transform="scale(1,-1) translate(0,-256)" /><path d="M275 220Q287 209 299.0 211.5Q311 214 317.5 222.0Q324 230 320 235Q303 257 289.5 290.0Q276 323 268.0 355.5Q260 388 257 407Q254 420 246.0 427.0Q238 434 230.5 436.0Q223 438 223 438Q213 438 211.5 427.0Q210 416 210 407Q210 382 219.0 344.5Q228 307 242.5 272.0Q257 237 275 220Z" fill="#ec407a" stroke="none" transform="scale(1,-1) translate(0,-256)" /><path d="M848 532Q849 532 849.5 532.0Q850 532 851 533Q901 543 949.0 572.0Q997 601 1034 658Q1043 671 1038.0 683.0Q1033 695 1024.0 700.0Q1015 705 1010 697Q978 647 930.0 617.0Q882 587 841 578Q831 576 826.0 568.0Q821 560 823 550Q825 541 832.0 536.0Q839 531 848 532Z" fill="#ec407a" stroke="none" transform="scale(1,-1) translate(0,-256)" /><path d="M832 448Q833 448 833 448Q877 455 921.5 474.5Q966 494 1004.0 523.0Q1042 552 1066 586Q1080 604 1076.0 620.0Q1072 636 1062.0 644.0Q1052 652 1050 646Q1033 611 997.5 579.0Q962 547 917.0 524.0Q872 501 826 494Q817 493 811.0 485.5Q805 478 807 468Q808 459 815.5 453.0Q823 447 832 448Z" fill="#ec407a" stroke="none" transform="scale(1,-1) translate(0,-256)" /><path d="M841 375Q915 383 990 421Q1024 438 1052.0 457.5Q1080 477 1099 501Q1115 522 1112.0 538.0Q1109 554 1099.5 561.5Q1090 569 1087 563Q1071 534 1040.5 508.5Q1010 483 971.0 463.5Q932 444 892.0 432.5Q852 421 817 419Q807 419 800.5 412.0Q794 405 795 395Q795 385 802.0 378.5Q809 372 819 373Q828 373 841 375Z" fill="#ec407a" stroke="none" transform="scale(1,-1) translate(0,-256)" /><path d="M914 311Q956 316 1010.5 341.0Q1065 366 1110 417Q1123 433 1122.5 449.0Q1122 465 1115.0 474.0Q1108 483 1105 478Q1086 449 1058.0 426.5Q1030 404 998.5 388.0Q967 372 940.0 364.0Q913 356 897 357Q887 357 880.0 350.5Q873 344 873 334Q873 324 879.5 317.0Q886 310 896 310Q903 310 914 311Z" fill="#ec407a" stroke="none" transform="scale(1,-1) translate(0,-256)" /><path d="M735 403Q751 403 757 418Q784 492 797.0 563.5Q810 635 805.0 710.5Q800 786 771 870Q765 888 751.5 894.5Q738 901 727.0 899.5Q716 898 718 892Q748 816 754.5 737.0Q761 658 749.0 581.5Q737 505 714 435Q710 426 714.0 417.0Q718 408 727 405Q731 403 735 403Z" fill="#ec407a" stroke="none" transform="scale(1,-1) translate(0,-256)" /><path d="M910 30Q920 28 908.5 16.0Q897 4 882 2Q878 1 857.0 1.5Q836 2 790 16Q763 24 726.5 38.5Q690 53 646 77Q679 88 709 105Q718 100 727.0 95.0Q736 90 746 86Q786 67 827.5 52.0Q869 37 910 30Z" fill="#ec407a" stroke="none" transform="scale(1,-1) translate(0,-256)" /><path d="M972 81Q974 59 959.0 53.0Q944 47 918.5 51.0Q893 55 865.0 64.5Q837 74 813.5 84.5Q790 95 778 101Q757 112 739 122Q761 139 780 158Q826 135 874.0 116.0Q922 97 972 81Z" fill="#ec407a" stroke="none" transform="scale(1,-1) translate(0,-256)" /><path d="M1019 142Q1025 140 1021.5 130.5Q1018 121 1000.5 115.0Q983 109 950 119Q910 130 872.0 145.5Q834 161 798 179Q813 199 825 221Q870 197 918.5 176.5Q967 156 1019 142Z" fill="#ec407a" stroke="none" transform="scale(1,-1) translate(0,-256)" /><path d="M1065 200Q1071 198 1069.5 188.0Q1068 178 1056.0 171.0Q1044 164 1018 171Q922 201 839 244Q847 264 851 285Q852 289 853 295Q901 269 953.5 245.5Q1006 222 1065 200Z" fill="#ec407a" stroke="none" transform="scale(1,-1) translate(0,-256)" /></svg>