<?xml version="1.0" encoding="utf-8" ?>
<svg baseProfile="full" height="256" version="1.1" width="256" xmlns="http://www.w3.org/2000/svg" xmlns:ev="http://www.w3.org/2001/xml-events" xmlns:xlink="http://www.w3.org/1999/xlink"><defs /><path d="M660 -82Q715 -80 756.0 -62.5Q797 -45 807 -30Q815 -20 803.0 -14.5Q791 -9 776 -16Q729 -40 693.0 -45.5Q657 -51 624.5 -46.0Q592 -41 555 -31Q545 -28 538.0 -34.0Q531 -40 536 -48Q547 -62 568.5 -69.5Q590 -77 615.0 -80.0Q640 -83 660 -82Z" fill="#d81b60" stroke="none" transform="scale(1,-1) translate(0,-256)" /><path d="M584 2Q592 -11 612.5 -16.5Q633 -22 657.5 -22.0Q682 -22 702.5 -15.5Q723 -9 732 3Q736 8 729.5 13.0Q723 18 713.0 22.0Q703 26 697 26Q692 26 681.0 23.0Q670 20 659 21Q648 21 637.0 23.5Q626 26 611 28Q601 30 589.5 20.0Q578 10 584 2Z" fill="#d81b60" stroke="none" transform="scale(1,-1) translate(0,-256)" /><path d="M910 671Q922 655 933.5 655.5Q945 656 950.0 666.5Q955 677 949 692Q940 712 920.5 730.5Q901 749 877.0 761.5Q853 774 832 774Q825 774 824.0 763.0Q823 752 826.0 741.0Q829 730 835 728Q844 725 859.5 714.0Q875 703 889.5 690.5Q904 678 910 671Z" fill="#d81b60" stroke="none" transform="scale(1,-1) translate(0,-256)" /><path d="M969 708Q972 703 982.0 698.0Q992 693 1002 703Q1006 708 1001.5 722.0Q997 736 988.5 751.5Q980 767 971 777Q947 805 919.5 822.5Q892 840 861 854Q856 857 843.5 861.5Q831 866 817.0 867.0Q803 868 794 862Q785 857 794.5 844.5Q804 832 817 827Q875 807 906.5 778.5Q938 750 969 708Z" fill="#d81b60" stroke="none" transform="scale(1,-1) translate(0,-256)" /><path d="M981 247Q984 242 995.0 238.5Q1006 235 1022 247Q1036 257 1047.0 274.0Q1058 291 1056 329Q1055 335 1045.0 333.5Q1035 332 1025.0 326.0Q1015 320 1015 314Q1013 294 1003.5 281.0Q994 268 985.5 260.5Q977 253 981 247Z" fill="#d81b60" stroke="none" transform="scale(1,-1) translate(0,-256)" /><path d="M1058 213Q1061 213 1072.5 216.5Q1084 220 1097.5 236.5Q1111 253 1119 290Q1125 314 1120.5 338.5Q1116 363 1109 373Q1103 381 1094.0 370.5Q1085 360 1086 345Q1088 314 1083.5 294.0Q1079 274 1056 246Q1049 238 1047.0 227.0Q1045 216 1058 213Z" fill="#d81b60" stroke="none" transform="scale(1,-1) translate(0,-256)" /><path d="M882 649Q879 652 868.5 662.5Q858 673 846.5 679.5Q835 686 831 678Q830 676 830 670Q831 651 835 635Q837 629 839.0 624.0Q841 619 845 615Q852 611 862 612Q867 613 871.0 615.0Q875 617 879 619Q884 621 886 624Q891 629 889 637Q887 642 882 649Z" fill="#d81b60" stroke="none" transform="scale(1,-1) translate(0,-256)" /></svg>