<?xml version="1.0" encoding="utf-8" ?>
<svg baseProfile="full" height="256" version="1.1" width="256" xmlns="http://www.w3.org/2000/svg" xmlns:ev="http://www.w3.org/2001/xml-events" xmlns:xlink="http://www.w3.org/1999/xlink"><defs /><path d="M218 610Q310 441 427.5 316.0Q545 191 709 105Q709 105 712.0 96.5Q715 88 696 78Q674 67 659.5 72.0Q645 77 645 77Q622 90 597.5 106.0Q573 122 546 142Q444 217 374.5 294.0Q305 371 262.5 436.5Q220 502 200.5 544.5Q181 587 179 595Q175 621 183.0 635.5Q191 650 203 649Q203 649 208.0 633.5Q213 618 218 610Z" fill="#f06292" stroke="none" transform="scale(1,-1) translate(0,-256)" /><path d="M780 158Q780 158 788.5 150.0Q797 142 788 131Q778 118 766.5 117.0Q755 116 747.0 119.0Q739 122 739 122Q668 162 595.0 212.5Q522 263 453.0 328.5Q384 394 326.0 478.0Q268 562 228 669Q226 675 225.5 687.0Q225 699 230.5 710.0Q236 721 252 724Q312 581 393.0 474.0Q474 367 572.0 289.5Q670 212 780 158Z" fill="#f06292" stroke="none" transform="scale(1,-1) translate(0,-256)" /><path d="M310 783Q326 738 360.5 671.0Q395 604 454.5 526.0Q514 448 605.0 368.5Q696 289 825 221Q825 221 833.0 213.5Q841 206 834 189Q829 178 820.5 176.5Q812 175 805.0 177.0Q798 179 798 179Q700 226 621.5 285.5Q543 345 483.0 410.0Q423 475 380.5 538.5Q338 602 312.0 656.5Q286 711 275 749Q272 762 279.5 772.5Q287 783 296.5 787.0Q306 791 310 783Z" fill="#f06292" stroke="none" transform="scale(1,-1) translate(0,-256)" /><path d="M853 295Q875 284 867 260Q861 242 850.0 243.0Q839 244 839 244Q738 300 663.0 359.0Q588 418 530.0 483.5Q472 549 425.5 625.5Q379 702 336 795Q329 808 336.0 818.5Q343 829 355.5 830.5Q368 832 375 820Q424 725 472.5 649.0Q521 573 576.0 511.0Q631 449 698.5 396.0Q766 343 853 295Z" fill="#f06292" stroke="none" transform="scale(1,-1) translate(0,-256)" /></svg>