<?xml version="1.0" encoding="utf-8" ?>
<svg baseProfile="full" height="256" version="1.1" width="256" xmlns="http://www.w3.org/2000/svg" xmlns:ev="http://www.w3.org/2001/xml-events" xmlns:xlink="http://www.w3.org/1999/xlink"><defs /><path d="M203 564V127H284V352L279 436H284L470 127H556V564H474V355L479 271H474L299 564Z" fill="#fafafa" stroke="none" transform="scale(1,-1) translate(0,-256)" /><path d="M735 147Q788 118 851 117Q902 117 944 134Q985 151 1014 182Q1041 211 1054 248Q1067 285 1067 328Q1067 349 1063 367H849V296H986Q982 277 973 259Q963 242 951 231Q912 195 852 195Q811 195 777 214Q744 233 724 267Q704 301 704 345Q704 389 723 424Q743 458 777 477Q810 495 850 495Q886 495 912 484Q939 472 961 449L1017 504Q987 537 945 555Q902 573 851 573Q788 573 735 544Q683 514 652 462Q621 410 621 345Q621 281 652 229Q683 177 735 147Z" fill="#fafafa" stroke="none" transform="scale(1,-1) translate(0,-256)" /></svg>