<?xml version="1.0" encoding="utf-8" ?>
<svg baseProfile="full" height="256" version="1.1" width="256" xmlns="http://www.w3.org/2000/svg" xmlns:ev="http://www.w3.org/2001/xml-events" xmlns:xlink="http://www.w3.org/1999/xlink"><defs /><path d="M403 238Q409 269 414.5 321.0Q420 373 424.5 435.0Q429 497 434.0 560.5Q439 624 443.5 678.5Q448 733 453 768Q457 794 474.5 809.0Q492 824 514.0 823.5Q536 823 553.0 802.5Q570 782 573 738Q573 761 575.0 784.5Q577 808 582 831Q587 857 604.0 869.5Q621 882 641.0 881.5Q661 881 677.0 867.5Q693 854 698 828Q698 821 700.0 802.5Q702 784 705 759Q709 790 727.0 807.0Q745 824 767 823Q784 822 799.5 808.0Q815 794 823 761Q829 739 831.5 703.0Q834 667 837 626Q840 645 853.5 658.0Q867 671 885.0 672.0Q903 673 918.5 657.5Q934 642 939 605Q958 480 966.5 388.5Q975 297 974.5 229.5Q974 162 966.0 110.0Q958 58 945 13Q928 -44 896.5 -82.5Q865 -121 825.5 -143.5Q786 -166 744.5 -175.5Q703 -185 667 -185Q608 -185 561.5 -167.5Q515 -150 479.5 -122.0Q444 -94 418.0 -63.0Q392 -32 375.5 -5.0Q359 22 351 38Q317 102 284.5 143.0Q252 184 224.5 209.0Q197 234 177.5 251.5Q158 269 149 287Q137 313 142.0 329.0Q147 345 161.5 354.0Q176 363 192.0 366.0Q208 369 217 369Q251 367 282.0 350.0Q313 333 337.5 310.5Q362 288 379.0 267.5Q396 247 403 238Z" fill="#ffca28" stroke="none" transform="scale(1,-1) translate(0,-256)" /></svg>