<?xml version="1.0" encoding="utf-8" ?>
<svg baseProfile="full" height="256" version="1.1" width="256" xmlns="http://www.w3.org/2000/svg" xmlns:ev="http://www.w3.org/2001/xml-events" xmlns:xlink="http://www.w3.org/1999/xlink"><defs /><path d="M403 238Q396 247 379.0 267.5Q362 288 337.5 310.5Q313 333 282.0 350.0Q251 367 217 369Q204 369 189 365Q190 362 195 361Q232 353 263.0 333.0Q294 313 317.0 290.0Q340 267 355.0 249.0Q370 231 376 225Q387 215 395.0 223.5Q403 232 403 238Z" fill="#b55e19" stroke="none" transform="scale(1,-1) translate(0,-256)" /><path d="M573 741Q572 743 572.0 745.5Q572 748 572 751Q567 783 554.0 800.0Q541 817 525 822Q524 819 528 816Q543 805 546.5 787.5Q550 770 550 760Q550 756 549.5 729.5Q549 703 548 665Q548 627 547.0 583.0Q546 539 545.0 499.5Q544 460 544.0 433.5Q544 407 544 403Q544 398 543.0 395.0Q542 392 540 389Q537 383 537 378Q537 370 543.5 369.0Q550 368 557 369Q558 369 558.5 369.0Q559 369 560 369Q568 369 574.5 371.0Q581 373 581 382Q581 387 578.5 393.5Q576 400 576 405Q576 407 575.5 430.0Q575 453 575.0 488.5Q575 524 574.5 564.5Q574 605 574.0 642.0Q574 679 573.5 705.5Q573 732 573 739Q573 739 573.0 738.5Q573 738 573 738Q573 740 573 741Z" fill="#b55e19" stroke="none" transform="scale(1,-1) translate(0,-256)" /><path d="M706 760Q706 760 706.0 762.0Q706 764 706 767Q705 763 705 759Q702 784 700.0 802.5Q698 821 698 828Q694 851 680.5 864.0Q667 877 651 881Q650 878 653 875Q657 874 666.5 861.5Q676 849 680 813Q681 806 681.5 775.0Q682 744 682.5 699.0Q683 654 683.0 604.5Q683 555 683.0 511.5Q683 468 683.0 439.0Q683 410 683 406Q683 391 680.0 389.5Q677 388 677 378Q677 370 683.0 369.0Q689 368 696 368Q697 368 697.5 368.0Q698 368 698 368Q700 368 702 368Q710 368 715.0 369.0Q720 370 720 378Q720 387 716.5 391.0Q713 395 713 405Q713 407 712.5 431.5Q712 456 711.0 494.0Q710 532 709.0 575.0Q708 618 707.5 657.5Q707 697 706.5 725.0Q706 753 706 760Z" fill="#b55e19" stroke="none" transform="scale(1,-1) translate(0,-256)" /><path d="M838 627Q838 627 838.0 628.0Q838 629 838 631Q838 628 837 626Q834 667 831.5 703.0Q829 739 823 761Q816 793 801.0 807.0Q786 821 770 822Q771 820 773 820Q789 811 796.5 791.0Q804 771 806 757Q808 748 809.5 718.5Q811 689 812.0 647.5Q813 606 814.5 561.5Q816 517 816.5 477.5Q817 438 817.5 412.0Q818 386 818 383Q819 378 817.5 375.5Q816 373 815 372Q814 370 813.0 368.0Q812 366 812 361Q813 354 818.5 352.0Q824 350 831 348Q838 347 843.5 347.0Q849 347 849 357Q849 365 846.5 369.5Q844 374 844 380Q843 383 842.5 406.5Q842 430 841.5 464.0Q841 498 840.5 533.0Q840 568 839.0 594.0Q838 620 838 627Z" fill="#b55e19" stroke="none" transform="scale(1,-1) translate(0,-256)" /><path d="M658 -181Q653 -182 653 -185Q660 -185 667 -185Q703 -185 744.5 -175.5Q786 -166 825.5 -143.5Q865 -121 896.5 -82.5Q928 -44 945 13Q958 58 966.0 110.0Q974 162 974.5 229.5Q975 297 966.5 388.5Q958 480 939 605Q934 637 921.5 653.0Q909 669 894 672Q891 668 895 666Q904 661 909.0 649.5Q914 638 916 628Q918 618 923.0 579.0Q928 540 933.5 483.0Q939 426 943.5 362.5Q948 299 949 239Q950 132 932.0 60.5Q914 -11 884.0 -55.5Q854 -100 817.5 -124.0Q781 -148 745.0 -159.0Q709 -170 679 -176Q674 -177 668.5 -178.0Q663 -179 658 -181Z" fill="#b55e19" stroke="none" transform="scale(1,-1) translate(0,-256)" /></svg>