<?xml version="1.0" encoding="utf-8" ?>
<svg baseProfile="full" height="256" version="1.1" width="256" xmlns="http://www.w3.org/2000/svg" xmlns:ev="http://www.w3.org/2001/xml-events" xmlns:xlink="http://www.w3.org/1999/xlink"><defs /><path d="M924 241Q924 243 923.5 245.0Q923 247 923 249Q919 275 916.5 301.5Q914 328 919 358Q934 468 956.0 578.0Q978 688 991 784Q994 812 981.5 831.5Q969 851 950 859Q962 846 968.0 825.0Q974 804 970 781Q968 769 962.5 736.0Q957 703 949.5 657.0Q942 611 932.5 559.5Q923 508 913 458Q904 412 899.0 380.0Q894 348 893.5 322.0Q893 296 895 267Q878 281 852.0 301.0Q826 321 795 347Q770 369 741.5 371.5Q713 374 684.0 365.5Q655 357 627 343Q617 396 604.5 425.5Q592 455 580 477Q564 505 545.0 514.5Q526 524 506 522Q532 508 552.5 476.0Q573 444 585.5 405.0Q598 366 602 333Q590 328 574.0 323.0Q558 318 539 311Q526 306 516.5 298.0Q507 290 502 281Q491 318 470.0 357.5Q449 397 428 416Q399 442 368 442Q389 431 415.0 400.0Q441 369 461.5 325.5Q482 282 487 234Q488 217 478.5 202.0Q469 187 451.0 183.5Q433 180 410 198Q393 211 375.5 241.0Q358 271 341 311Q338 317 335.0 317.5Q332 318 332 311Q332 303 335.0 291.0Q338 279 341 268Q330 272 319 281Q313 286 311.0 283.0Q309 280 312 275Q328 253 340.0 249.0Q352 245 353 244Q375 195 404.0 175.5Q433 156 460.0 162.5Q487 169 502 200Q521 168 555.0 158.5Q589 149 632 151Q627 144 616.5 121.0Q606 98 597.0 68.5Q588 39 585.5 10.5Q583 -18 593 -35Q595 -40 597.0 -38.0Q599 -36 599 -34Q601 24 619.0 66.0Q637 108 655.5 131.5Q674 155 677 158Q680 161 684.5 160.5Q689 160 690 157Q694 148 709.0 135.0Q724 122 743.5 110.5Q763 99 783.0 96.5Q803 94 818 106Q822 110 820.0 113.5Q818 117 813 116Q809 115 794.5 115.5Q780 116 759 130Q748 137 736.0 148.5Q724 160 712 174Q712 174 724.0 183.5Q736 193 740 209Q741 214 737.0 215.5Q733 217 731 215Q709 190 660.5 183.5Q612 177 563 185Q540 189 530.0 210.0Q520 231 522.5 253.5Q525 276 544 284Q551 288 571.5 295.5Q592 303 616.5 312.0Q641 321 662.0 329.0Q683 337 692 340Q711 347 732.0 346.5Q753 346 766 335Q778 325 800.5 307.5Q823 290 847.5 268.5Q872 247 893.0 225.5Q914 204 923 188Q942 155 937.5 101.5Q933 48 898 -13Q878 -47 848.5 -83.0Q819 -119 770 -149Q697 -186 606.5 -183.5Q516 -181 405 -129Q459 -180 525.5 -197.0Q592 -214 657.5 -206.5Q723 -199 773 -176Q821 -154 855.5 -116.0Q890 -78 913.0 -36.0Q936 6 948.0 39.0Q960 72 963 84Q975 140 960.0 178.5Q945 217 924 241Z" fill="#b55e19" stroke="none" transform="scale(1,-1) translate(0,-256)" /><path d="M753 427Q745 428 743 439Q739 455 732.5 495.5Q726 536 717.5 588.5Q709 641 699.5 696.0Q690 751 682.0 797.5Q674 844 668 870Q663 895 642.0 905.0Q621 915 599 910Q627 902 638.0 884.0Q649 866 651 855Q651 852 656.0 823.0Q661 794 668.0 750.5Q675 707 683.5 658.5Q692 610 699.0 566.0Q706 522 711.0 492.5Q716 463 717 458Q723 430 753 427ZM755 427Q754 427 753 427Q754 427 755 427Z" fill="#b55e19" stroke="none" transform="scale(1,-1) translate(0,-256)" /></svg>