<?xml version="1.0" encoding="utf-8" ?>
<svg baseProfile="full" height="256" version="1.1" width="256" xmlns="http://www.w3.org/2000/svg" xmlns:ev="http://www.w3.org/2001/xml-events" xmlns:xlink="http://www.w3.org/1999/xlink"><defs /><path d="M485 427Q487 401 493.5 395.0Q500 389 500 403Q500 410 502.5 434.5Q505 459 509.5 490.5Q514 522 522.5 551.5Q531 581 543 598L541 619Q521 610 509.0 587.0Q497 564 491.5 535.5Q486 507 485.0 478.0Q484 449 485 427Z" fill="#2f7889" stroke="none" transform="scale(1,-1) translate(0,-256)" /><path d="M308 47Q308 47 304.5 63.5Q301 80 295.5 103.0Q290 126 285.0 148.0Q280 170 277 182Q274 195 271.0 200.0Q268 205 265 205Q263 205 260.5 203.0Q258 201 260 188Q260 186 263.0 170.0Q266 154 270.5 133.5Q275 113 279.0 95.0Q283 77 286 69Q292 54 300.0 50.5Q308 47 308 47Z" fill="#2f7889" stroke="none" transform="scale(1,-1) translate(0,-256)" /><path d="M381 59Q381 59 377.0 75.0Q373 91 368.0 114.5Q363 138 357.5 160.0Q352 182 350 193Q346 208 342.5 212.5Q339 217 336 216Q334 215 332.5 212.5Q331 210 333 198Q333 195 336.0 179.5Q339 164 343.0 144.0Q347 124 351.5 106.0Q356 88 359 81Q364 65 372.5 62.0Q381 59 381 59Z" fill="#2f7889" stroke="none" transform="scale(1,-1) translate(0,-256)" /><path d="M447 72Q447 72 443.0 88.0Q439 104 433.5 127.5Q428 151 423.0 173.0Q418 195 416 206Q411 225 408.5 226.5Q406 228 404 228Q400 228 398.5 221.5Q397 215 399 206Q401 190 406.0 166.5Q411 143 416.5 122.5Q422 102 425 94Q430 79 438.5 75.5Q447 72 447 72Z" fill="#2f7889" stroke="none" transform="scale(1,-1) translate(0,-256)" /><path d="M566 104Q566 104 562.5 120.0Q559 136 554.0 159.5Q549 183 544.0 205.0Q539 227 537 239Q533 259 540 261Q545 262 548.0 255.5Q551 249 552 246Q557 230 562.5 206.5Q568 183 572.0 162.0Q576 141 577 133Q578 117 572.0 110.5Q566 104 566 104Z" fill="#2f7889" stroke="none" transform="scale(1,-1) translate(0,-256)" /><path d="M497 84Q497 84 493.0 103.0Q489 122 483.5 147.0Q478 172 473.5 193.0Q469 214 468 219Q466 229 466.5 236.0Q467 243 472 243Q478 243 480.0 237.0Q482 231 485 222Q489 206 494.0 183.5Q499 161 503.0 141.5Q507 122 508 114Q509 98 503.0 91.0Q497 84 497 84Z" fill="#2f7889" stroke="none" transform="scale(1,-1) translate(0,-256)" /><path d="M703 204Q706 185 709.5 180.5Q713 176 715.5 177.5Q718 179 718 179L732 372Q732 372 723.5 381.0Q715 390 705 392Q705 392 703.5 371.5Q702 351 701.0 320.5Q700 290 700.0 258.0Q700 226 703 204Z" fill="#2f7889" stroke="none" transform="scale(1,-1) translate(0,-256)" /><path d="M711 -124Q711 -124 714.0 -107.5Q717 -91 721.5 -67.5Q726 -44 730.0 -21.5Q734 1 736 12Q738 27 736.5 32.5Q735 38 732 39Q731 39 727.5 37.0Q724 35 721 22Q717 7 712.5 -17.0Q708 -41 704.0 -63.5Q700 -86 700 -95Q699 -111 705.0 -117.5Q711 -124 711 -124Z" fill="#2f7889" stroke="none" transform="scale(1,-1) translate(0,-256)" /><path d="M783 -146Q783 -146 786.0 -129.5Q789 -113 793.5 -89.5Q798 -66 802.0 -44.0Q806 -22 808 -10Q810 6 809.0 11.0Q808 16 805 16Q803 16 799.5 14.0Q796 12 793 -1Q789 -15 784.0 -39.5Q779 -64 775.5 -86.5Q772 -109 772 -117Q771 -133 777.0 -139.5Q783 -146 783 -146Z" fill="#2f7889" stroke="none" transform="scale(1,-1) translate(0,-256)" /><path d="M848 -161Q848 -161 851.0 -144.5Q854 -128 858.5 -104.5Q863 -81 867.0 -58.5Q871 -36 873 -25Q876 -7 874.0 -2.0Q872 3 869 3Q862 4 858 -15Q857 -20 853.5 -36.0Q850 -52 846.0 -72.0Q842 -92 839.5 -108.5Q837 -125 836 -132Q836 -148 842.0 -154.5Q848 -161 848 -161Z" fill="#2f7889" stroke="none" transform="scale(1,-1) translate(0,-256)" /><path d="M970 -176Q970 -176 973.5 -160.0Q977 -144 981.5 -120.5Q986 -97 990.0 -74.5Q994 -52 997 -41Q1000 -22 1003.5 -18.5Q1007 -15 1010 -16Q1013 -16 1014.0 -23.5Q1015 -31 1014 -36Q1012 -51 1008.0 -76.0Q1004 -101 999.0 -123.0Q994 -145 991 -154Q986 -169 978.0 -172.5Q970 -176 970 -176Z" fill="#2f7889" stroke="none" transform="scale(1,-1) translate(0,-256)" /><path d="M901 -169Q901 -169 904.0 -153.0Q907 -137 911.5 -113.5Q916 -90 920.5 -67.5Q925 -45 927 -34Q929 -24 931.5 -17.0Q934 -10 937 -9Q945 -7 944 -22Q944 -25 941.5 -41.5Q939 -58 935.5 -79.5Q932 -101 928.0 -120.0Q924 -139 922 -147Q917 -162 909.0 -165.5Q901 -169 901 -169Z" fill="#2f7889" stroke="none" transform="scale(1,-1) translate(0,-256)" /></svg>