<?xml version="1.0" encoding="utf-8" ?>
<svg baseProfile="full" height="256" version="1.1" width="256" xmlns="http://www.w3.org/2000/svg" xmlns:ev="http://www.w3.org/2001/xml-events" xmlns:xlink="http://www.w3.org/1999/xlink"><defs /><path d="M781 30Q785 25 788 20Q715 -7 632 -8Q632 -8 631.5 -8.0Q631 -8 631 -8Q544 -7 469 23Q472 27 476 32Q479 34 481.5 36.5Q484 39 487 41Q549 90 632 90Q675 90 708.5 76.5Q742 63 771 39Q773 37 776.0 34.5Q779 32 781 30Z" fill="#ed7770" stroke="none" transform="scale(1,-1) translate(0,-256)" /></svg>