<?xml version="1.0" encoding="utf-8" ?>
<svg baseProfile="full" height="256" version="1.1" width="256" xmlns="http://www.w3.org/2000/svg" xmlns:ev="http://www.w3.org/2001/xml-events" xmlns:xlink="http://www.w3.org/1999/xlink"><defs /><path d="M518 244Q523 242 524 247L534 565Q534 572 528 574L94 734Q86 737 86 729L75 413Q75 413 99.0 403.0Q123 393 162.5 378.0Q202 363 249.0 345.0Q296 327 343.5 309.5Q391 292 430.5 277.0Q470 262 494.0 253.0Q518 244 518 244Z" fill="#2f7889" stroke="none" transform="scale(1,-1) translate(0,-256)" /><path d="M1183.906005859375 -34.25Q1188.906005859375 -36.25 1189.906005859375 -31.25L1199.906005859375 286.75Q1199.906005859375 293.75 1193.906005859375 295.75L759.906005859375 455.75Q751.906005859375 458.75 751.906005859375 450.75L740.906005859375 134.75Q740.906005859375 134.75 764.906005859375 124.75Q788.906005859375 114.75 828.406005859375 99.75Q867.906005859375 84.75 914.906005859375 66.75Q961.906005859375 48.75 1009.406005859375 31.25Q1056.906005859375 13.75 1096.406005859375 -1.25Q1135.906005859375 -16.25 1159.906005859375 -25.25Q1183.906005859375 -34.25 1183.906005859375 -34.25Z" fill="#2f7889" stroke="none" transform="scale(1,-1) translate(0,-256)" /><path d="M522 139Q561 171 584.5 214.0Q608 257 616.0 302.5Q624 348 615 390Q622 376 628 361Q645 317 644.0 272.0Q643 227 629.0 188.0Q615 149 592.5 121.0Q570 93 543 83Z" fill="#2f7889" stroke="none" transform="scale(1,-1) translate(0,-256)" /></svg>