<?xml version="1.0" encoding="utf-8" ?>
<svg baseProfile="full" height="256" version="1.1" width="256" xmlns="http://www.w3.org/2000/svg" xmlns:ev="http://www.w3.org/2001/xml-events" xmlns:xlink="http://www.w3.org/1999/xlink"><defs /><path d="M640 55Q700 55 747.0 72.0Q794 89 825.5 113.0Q857 137 870 156Q886 177 875 200Q867 215 850 215Q844 214 839 213Q741 183 640 184Q538 183 441 213Q435 215 429 215Q413 215 404 200Q394 177 410 156Q422 137 454.0 113.0Q486 89 533.0 72.0Q580 55 640 55Z" fill="#422b0d" stroke="none" transform="scale(1,-1) translate(0,-256)" /><path d="M952 369Q963 353 952 338Q945 329 934.5 327.5Q924 326 916 333L913 335Q913 335 912.0 336.0Q911 337 908 338Q900 343 891 347Q879 353 865 357Q861 358 857.0 359.0Q853 360 849 361Q847 361 845.0 361.5Q843 362 841 362Q839 362 836.0 362.5Q833 363 832 363Q816 366 798 366Q785 366 770 364Q764 363 760 362Q758 361 755.5 360.5Q753 360 752 360L750 359H748L746 358Q746 358 746.0 358.0Q746 358 746 358Q736 354 726.0 358.5Q716 363 712 373Q708 386 713 399Q713 399 713.5 399.5Q714 400 714 401Q716 405 719 408Q728 420 738 430Q751 444 767 455Q775 461 785 468Q789 471 794.0 474.0Q799 477 803 480Q808 482 813.0 484.5Q818 487 823 490Q827 492 832.0 494.0Q837 496 842 498Q860 506 879 511Q893 514 907 515Q913 516 919 515Q935 514 941 500Q945 490 941.0 480.0Q937 470 927 466L925 465L917 462Q914 461 909.0 459.0Q904 457 897 454Q891 451 883.5 447.5Q876 444 868 440L852 431L846 428L852 427Q860 426 864 425Q875 422 885 418Q905 411 922 399Q934 390 944 378Q947 375 950 371Z" fill="#422b0d" stroke="none" transform="scale(1,-1) translate(0,-256)" /><path d="M456.281005859375 509.75Q485.281005859375 509.75 508.281005859375 486.25Q531.281005859375 462.75 531.281005859375 421.75Q531.281005859375 380.75 508.281005859375 357.25Q485.281005859375 333.75 456.281005859375 333.75Q427.281005859375 333.75 404.281005859375 357.25Q381.281005859375 380.75 381.281005859375 421.75Q381.281005859375 462.75 404.281005859375 486.25Q427.281005859375 509.75 456.281005859375 509.75Z" fill="#422b0d" stroke="none" transform="scale(1,-1) translate(0,-256)" /><path d="M317 530H318Q332 530 339 542Q383 612 461 639L459 646L462 640Q483 646 480 668Q477 688 456 688Q454 688 453 688Q424 684 398 671Q324 638 295 563Q289 551 297 540Q304 530 317 530Z" fill="#422b0d" stroke="none" transform="scale(1,-1) translate(0,-256)" /></svg>