<?xml version="1.0" encoding="utf-8" ?>
<svg baseProfile="full" height="256" version="1.1" width="256" xmlns="http://www.w3.org/2000/svg" xmlns:ev="http://www.w3.org/2001/xml-events" xmlns:xlink="http://www.w3.org/1999/xlink"><defs /><path d="M974 830Q970 836 962.5 836.5Q955 837 950 832L940 822Q935 816 936.0 808.5Q937 801 944 798L963 786Q968 784 975.0 786.0Q982 788 985 791Q988 794 989.0 800.5Q990 807 987 812Z" fill="#b0bec5" stroke="none" transform="scale(1,-1) translate(0,-256)" /><path d="M1064 903Q1059 909 1052.0 909.5Q1045 910 1040 905L1030 895Q1025 889 1026.0 881.5Q1027 874 1033 870L1053 859Q1058 856 1065.0 857.5Q1072 859 1075 864Q1078 868 1079.0 874.0Q1080 880 1076 884Z" fill="#b0bec5" stroke="none" transform="scale(1,-1) translate(0,-256)" /><path d="M1070 672Q1074 666 1081.5 665.5Q1089 665 1094 670L1104 680Q1109 686 1108.0 693.5Q1107 701 1101 705L1081 716Q1070 722 1062 713L1059 710Q1050 701 1058 691Z" fill="#b0bec5" stroke="none" transform="scale(1,-1) translate(0,-256)" /><path d="M1163.656005859375 740.718994140625Q1167.656005859375 734.718994140625 1175.156005859375 734.218994140625Q1182.656005859375 733.718994140625 1187.656005859375 738.718994140625L1197.656005859375 748.718994140625Q1202.656005859375 754.718994140625 1201.656005859375 762.218994140625Q1200.656005859375 769.718994140625 1194.656005859375 773.718994140625L1174.656005859375 784.718994140625Q1163.656005859375 790.718994140625 1155.656005859375 781.718994140625L1152.656005859375 778.718994140625Q1143.656005859375 769.718994140625 1151.656005859375 759.718994140625Z" fill="#b0bec5" stroke="none" transform="scale(1,-1) translate(0,-256)" /><path d="M552 -125 515 -84 550 -49 588 -91Z" fill="#b0bec5" stroke="none" transform="scale(1,-1) translate(0,-256)" /><path d="M663.4934844970703 89.61483764648438 657.2860260009766 40.958770751953125 606.1345367431641 45.78874206542969 619.7818145751953 93.6480712890625Z" fill="#b0bec5" stroke="none" transform="scale(1,-1) translate(0,-256)" /><path d="M369 -189V-133L418 -128V-184Z" fill="#b0bec5" stroke="none" transform="scale(1,-1) translate(0,-256)" /><path d="M208 -141 225 -104Q234 -109 246.5 -115.5Q259 -122 268 -126L251 -166Z" fill="#b0bec5" stroke="none" transform="scale(1,-1) translate(0,-256)" /><path d="M648 202 603 188 589 235 629 248Z" fill="#b0bec5" stroke="none" transform="scale(1,-1) translate(0,-256)" /><path d="M352 408V392Q279 392 217 354Q124 298 97 193Q71 87 127 -6Q163 -66 222.5 -100.0Q282 -134 353 -134Q425 -134 488 -97Q581 -41 607 65Q634 171 578 264Q542 324 482.0 358.0Q422 392 352 392V408ZM352 408Q423 408 487.5 373.0Q552 338 592 273Q621 223 628.5 168.5Q636 114 623.0 61.5Q610 9 578.0 -36.0Q546 -81 496 -110Q462 -131 425.5 -140.5Q389 -150 353 -150Q281 -150 216.5 -115.0Q152 -80 113 -15Q83 35 75.5 89.5Q68 144 81.5 196.5Q95 249 127.0 294.0Q159 339 209 368Q242 389 278.5 398.5Q315 408 352 408Z" fill="#b0bec5" stroke="none" transform="scale(1,-1) translate(0,-256)" /><path d="M123 117Q125 98 121.5 82.0Q118 66 99 61L84 57Q72 101 75.0 151.0Q78 201 100.0 249.0Q122 297 165 337L174 331Q191 319 188.5 303.0Q186 287 173 270Q143 228 132.5 188.0Q122 148 123 117Z" fill="#b0bec5" stroke="none" transform="scale(1,-1) translate(0,-256)" /><path d="M180 -74 188 -43 250 12Q257 19 250 26L205 70Q198 77 192 70L139 13L127 -25Z" fill="#b0bec5" stroke="none" transform="scale(1,-1) translate(0,-256)" /><path d="M1005.4148864746094 790.9009552001953Q1005.4148864746094 793.8611602783203 1004.3048095703125 796.4513397216797Q1003.1947326660156 799.0415191650391 1001.2261962890625 801.0100555419922Q999.2576599121094 802.9785919189453 996.66748046875 804.0886688232422Q994.0773010253906 805.1987457275391 991.0874938964844 805.1987457275391Q988.1272888183594 805.1987457275391 985.537109375 804.0886688232422Q982.9469299316406 802.9785919189453 980.9783935546875 801.0100555419922Q979.0098571777344 799.0415191650391 977.8997802734375 796.4513397216797Q976.7897033691406 793.8611602783203 976.7897033691406 790.9009552001953Q976.7897033691406 787.9111480712891 977.8997802734375 785.3209686279297Q979.0098571777344 782.7307891845703 980.9783935546875 780.7622528076172Q982.9469299316406 778.7937164306641 985.537109375 777.6836395263672Q988.1272888183594 776.5735626220703 991.0874938964844 776.5735626220703Q994.0773010253906 776.5735626220703 996.66748046875 777.6836395263672Q999.2576599121094 778.7937164306641 1001.2261962890625 780.7622528076172Q1003.1947326660156 782.7307891845703 1004.3048095703125 785.3209686279297Q1005.4148864746094 787.9111480712891 1005.4148864746094 790.9009552001953Z" fill="#b0bec5" stroke="none" transform="scale(1,-1) translate(0,-256)" /><path d="M1056.5086822509766 748.7134552001953Q1056.5086822509766 751.6736602783203 1055.3986053466797 754.2638397216797Q1054.2885284423828 756.8540191650391 1052.3199920654297 758.8225555419922Q1050.3514556884766 760.7910919189453 1047.7612762451172 761.9011688232422Q1045.1710968017578 763.0112457275391 1042.1812896728516 763.0112457275391Q1039.2210845947266 763.0112457275391 1036.6309051513672 761.9011688232422Q1034.0407257080078 760.7910919189453 1032.0721893310547 758.8225555419922Q1030.1036529541016 756.8540191650391 1028.9935760498047 754.2638397216797Q1027.8834991455078 751.6736602783203 1027.8834991455078 748.7134552001953Q1027.8834991455078 745.7236480712891 1028.9935760498047 743.1334686279297Q1030.1036529541016 740.5432891845703 1032.0721893310547 738.5747528076172Q1034.0407257080078 736.6062164306641 1036.6309051513672 735.4961395263672Q1039.2210845947266 734.3860626220703 1042.1812896728516 734.3860626220703Q1045.1710968017578 734.3860626220703 1047.7612762451172 735.4961395263672Q1050.3514556884766 736.6062164306641 1052.3199920654297 738.5747528076172Q1054.2885284423828 740.5432891845703 1055.3986053466797 743.1334686279297Q1056.5086822509766 745.7236480712891 1056.5086822509766 748.7134552001953Z" fill="#b0bec5" stroke="none" transform="scale(1,-1) translate(0,-256)" /><path d="M1104.7898864746094 865.4322662353516Q1104.7898864746094 868.3924713134766 1103.6798095703125 870.9826507568359Q1102.5697326660156 873.5728302001953 1100.6011962890625 875.5413665771484Q1098.6326599121094 877.5099029541016 1096.04248046875 878.6199798583984Q1093.4523010253906 879.7300567626953 1090.4624938964844 879.7300567626953Q1087.5022888183594 879.7300567626953 1084.912109375 878.6199798583984Q1082.3219299316406 877.5099029541016 1080.3533935546875 875.5413665771484Q1078.3848571777344 873.5728302001953 1077.2747802734375 870.9826507568359Q1076.1647033691406 868.3924713134766 1076.1647033691406 865.4322662353516Q1076.1647033691406 862.4424591064453 1077.2747802734375 859.8522796630859Q1078.3848571777344 857.2621002197266 1080.3533935546875 855.2935638427734Q1082.3219299316406 853.3250274658203 1084.912109375 852.2149505615234Q1087.5022888183594 851.1048736572266 1090.4624938964844 851.1048736572266Q1093.4523010253906 851.1048736572266 1096.04248046875 852.2149505615234Q1098.6326599121094 853.3250274658203 1100.6011962890625 855.2935638427734Q1102.5697326660156 857.2621002197266 1103.6798095703125 859.8522796630859Q1104.7898864746094 862.4424591064453 1104.7898864746094 865.4322662353516Z" fill="#b0bec5" stroke="none" transform="scale(1,-1) translate(0,-256)" /><path d="M1150.7273864746094 824.4634552001953Q1150.7273864746094 827.4236602783203 1149.6173095703125 830.0138397216797Q1148.5072326660156 832.6040191650391 1146.5386962890625 834.5725555419922Q1144.5701599121094 836.5410919189453 1141.97998046875 837.6511688232422Q1139.3898010253906 838.7612457275391 1136.3999938964844 838.7612457275391Q1133.4397888183594 838.7612457275391 1130.849609375 837.6511688232422Q1128.2594299316406 836.5410919189453 1126.2908935546875 834.5725555419922Q1124.3223571777344 832.6040191650391 1123.2122802734375 830.0138397216797Q1122.1022033691406 827.4236602783203 1122.1022033691406 824.4634552001953Q1122.1022033691406 821.4736480712891 1123.2122802734375 818.8834686279297Q1124.3223571777344 816.2932891845703 1126.2908935546875 814.3247528076172Q1128.2594299316406 812.3562164306641 1130.849609375 811.2461395263672Q1133.4397888183594 810.1360626220703 1136.3999938964844 810.1360626220703Q1139.3898010253906 810.1360626220703 1141.97998046875 811.2461395263672Q1144.5701599121094 812.3562164306641 1146.5386962890625 814.3247528076172Q1148.5072326660156 816.2932891845703 1149.6173095703125 818.8834686279297Q1150.7273864746094 821.4736480712891 1150.7273864746094 824.4634552001953Z" fill="#b0bec5" stroke="none" transform="scale(1,-1) translate(0,-256)" /></svg>