<?xml version="1.0" encoding="utf-8" ?>
<svg baseProfile="full" height="256" version="1.1" width="256" xmlns="http://www.w3.org/2000/svg" xmlns:ev="http://www.w3.org/2001/xml-events" xmlns:xlink="http://www.w3.org/1999/xlink"><defs /><path d="M262.46702575683594 127.60740661621094 258.76512145996094 130.4857940673828 203.09698486328125 58.23014831542969 206.79888916015625 55.35176086425781Z" fill="#cfd8dc" stroke="none" transform="scale(1,-1) translate(0,-256)" /><path d="M236.6349639892578 29.487747192382812 239.7721710205078 26.044662475585938 304.5296173095703 84.80769348144531 301.3924102783203 88.25077819824219Z" fill="#cfd8dc" stroke="none" transform="scale(1,-1) translate(0,-256)" /><path d="M226.64259338378906 42.58790588378906 229.92881774902344 39.24678039550781 290.37916564941406 98.94967651367188 287.0929412841797 102.29080200195312Z" fill="#cfd8dc" stroke="none" transform="scale(1,-1) translate(0,-256)" /><path d="M214.09039306640625 49.82525634765625 217.69033813476562 46.742950439453125 276.3749237060547 113.18771362304688 272.7749786376953 116.27001953125Z" fill="#cfd8dc" stroke="none" transform="scale(1,-1) translate(0,-256)" /><path d="M259 131 262 127 988 767 993 790 989 791 984 770Z" fill="#cfd8dc" stroke="none" transform="scale(1,-1) translate(0,-256)" /><path d="M273 117 276 113 1003 762 1092 864 1089 867 1000 766Z" fill="#cfd8dc" stroke="none" transform="scale(1,-1) translate(0,-256)" /><path d="M287 102 290 99 1010 753 1138 822 1135 827 1008 757Z" fill="#cfd8dc" stroke="none" transform="scale(1,-1) translate(0,-256)" /><path d="M302 88 305 85 1020 741 1043 746 1042 751 1017 746Z" fill="#cfd8dc" stroke="none" transform="scale(1,-1) translate(0,-256)" /></svg>