<?xml version="1.0" encoding="utf-8" ?>
<svg baseProfile="full" height="256" version="1.1" width="256" xmlns="http://www.w3.org/2000/svg" xmlns:ev="http://www.w3.org/2001/xml-events" xmlns:xlink="http://www.w3.org/1999/xlink"><defs /><path d="M982.0367889404297 914.3991241455078H920.1475372314453V-210.237548828125H982.0367889404297Z" fill="#e6a467" stroke="none" transform="scale(1,-1) translate(0,-256)" /><path d="M896 725Q906 725 906 734V773Q906 783 896 783H377Q367 783 367 773V734Q367 725 377 725Z" fill="#e6a467" stroke="none" transform="scale(1,-1) translate(0,-256)" /><path d="M896.0 -118.18800354003906Q906.0 -118.18800354003906 906.0 -109.18800354003906V-70.18800354003906Q906.0 -60.18800354003906 896.0 -60.18800354003906H377.0Q367.0 -60.18800354003906 367.0 -70.18800354003906V-109.18800354003906Q367.0 -118.18800354003906 377.0 -118.18800354003906Z" fill="#e6a467" stroke="none" transform="scale(1,-1) translate(0,-256)" /><path d="M896.0 162.875Q906.0 162.875 906.0 171.875V210.875Q906.0 220.875 896.0 220.875H377.0Q367.0 220.875 367.0 210.875V171.875Q367.0 162.875 377.0 162.875Z" fill="#e6a467" stroke="none" transform="scale(1,-1) translate(0,-256)" /><path d="M896.0 443.93800354003906Q906.0 443.93800354003906 906.0 452.93800354003906V491.93800354003906Q906.0 501.93800354003906 896.0 501.93800354003906H377.0Q367.0 501.93800354003906 367.0 491.93800354003906V452.93800354003906Q367.0 443.93800354003906 377.0 443.93800354003906Z" fill="#e6a467" stroke="none" transform="scale(1,-1) translate(0,-256)" /><path d="M438.2866973876953 914.3991241455078H376.39744567871094V-210.237548828125H438.2866973876953Z" fill="#e6a467" stroke="none" transform="scale(1,-1) translate(0,-256)" /></svg>