<?xml version="1.0" encoding="utf-8" ?>
<svg baseProfile="full" height="256" version="1.1" width="256" xmlns="http://www.w3.org/2000/svg" xmlns:ev="http://www.w3.org/2001/xml-events" xmlns:xlink="http://www.w3.org/1999/xlink"><defs /><path d="M750.8772583007812 -99.90457153320312Q750.8772583007812 -76.65475463867188 742.158576965332 -56.31116485595703Q733.4398956298828 -35.96757507324219 717.9787673950195 -20.506446838378906Q702.5176391601562 -5.045318603515625 682.1740493774414 3.6733627319335938Q661.8304595947266 12.392044067382812 638.34814453125 12.392044067382812Q615.0983276367188 12.392044067382812 594.7547378540039 3.6733627319335938Q574.4111480712891 -5.045318603515625 558.9500198364258 -20.506446838378906Q543.4888916015625 -35.96757507324219 534.7702102661133 -56.31116485595703Q526.0515289306641 -76.65475463867188 526.0515289306641 -99.90457153320312Q526.0515289306641 -123.38688659667969 534.7702102661133 -143.73047637939453Q543.4888916015625 -164.07406616210938 558.9500198364258 -179.53519439697266Q574.4111480712891 -194.99632263183594 594.7547378540039 -203.71500396728516Q615.0983276367188 -212.43368530273438 638.34814453125 -212.43368530273438Q661.8304595947266 -212.43368530273438 682.1740493774414 -203.71500396728516Q702.5176391601562 -194.99632263183594 717.9787673950195 -179.53519439697266Q733.4398956298828 -164.07406616210938 742.158576965332 -143.73047637939453Q750.8772583007812 -123.38688659667969 750.8772583007812 -99.90457153320312Z" fill="#cc3333" stroke="none" transform="scale(1,-1) translate(0,-256)" /><path d="M712 913Q727 913 738.5 901.5Q750 890 748 874L731 124Q731 109 720.0 98.5Q709 88 694 88H654Q670 88 680.5 98.5Q691 109 692 124L709 874Q709 890 698.0 901.5Q687 913 671 913Z" fill="#cc3333" stroke="none" transform="scale(1,-1) translate(0,-256)" /></svg>