<?xml version="1.0" encoding="utf-8" ?>
<svg baseProfile="full" height="256" version="1.1" width="256" xmlns="http://www.w3.org/2000/svg" xmlns:ev="http://www.w3.org/2001/xml-events" xmlns:xlink="http://www.w3.org/1999/xlink"><defs /><path d="M691.5 124.0Q691.5 109.0 680.0 98.5Q668.5 88.0 653.5 88.0H578.5Q562.5 88.0 552.0 98.5Q541.5 109.0 540.5 124.0L524.5 874.0Q523.5 890.0 534.5 901.5Q545.5 913.0 561.5 913.0H671.5Q686.5 913.0 698.0 901.5Q709.5 890.0 708.5 874.0Z" fill="#f44336" stroke="none" transform="scale(1,-1) translate(0,-256)" /><path d="M719.0545501708984 -99.901611328125Q719.0545501708984 -79.94158935546875 711.5695419311523 -62.47657012939453Q704.0845336914062 -45.01155090332031 690.8111190795898 -31.738136291503906Q677.5377044677734 -18.4647216796875 660.0726852416992 -10.979713439941406Q642.607666015625 -3.4947052001953125 622.4480438232422 -3.4947052001953125Q602.4880218505859 -3.4947052001953125 585.0230026245117 -10.979713439941406Q567.5579833984375 -18.4647216796875 554.2845687866211 -31.738136291503906Q541.0111541748047 -45.01155090332031 533.5261459350586 -62.47657012939453Q526.0411376953125 -79.94158935546875 526.0411376953125 -99.901611328125Q526.0411376953125 -120.06123352050781 533.5261459350586 -137.52625274658203Q541.0111541748047 -154.99127197265625 554.2845687866211 -168.26468658447266Q567.5579833984375 -181.53810119628906 585.0230026245117 -189.02310943603516Q602.4880218505859 -196.50811767578125 622.4480438232422 -196.50811767578125Q642.607666015625 -196.50811767578125 660.0726852416992 -189.02310943603516Q677.5377044677734 -181.53810119628906 690.8111190795898 -168.26468658447266Q704.0845336914062 -154.99127197265625 711.5695419311523 -137.52625274658203Q719.0545501708984 -120.06123352050781 719.0545501708984 -99.901611328125Z" fill="#f44336" stroke="none" transform="scale(1,-1) translate(0,-256)" /></svg>