<?xml version="1.0" encoding="utf-8" ?>
<svg baseProfile="full" height="256" version="1.1" width="256" xmlns="http://www.w3.org/2000/svg" xmlns:ev="http://www.w3.org/2001/xml-events" xmlns:xlink="http://www.w3.org/1999/xlink"><defs /><path d="M1133 -113Q1116 -104 1098.0 -99.5Q1080 -95 1071 -101Q1061 -106 1062.0 -127.5Q1063 -149 1067 -164L1017 -150Q1017 -150 1026.0 -140.5Q1035 -131 1042.5 -117.5Q1050 -104 1048 -89Q1046 -79 1033.0 -70.0Q1020 -61 1007.5 -55.5Q995 -50 995 -50L1041 -17Q1041 -17 1042.5 -29.5Q1044 -42 1049.0 -56.0Q1054 -70 1063 -76Q1072 -82 1084.0 -78.0Q1096 -74 1107.5 -66.0Q1119 -58 1127 -53Z" fill="#546e7a" stroke="none" transform="scale(1,-1) translate(0,-256)" /><path d="M336 -132Q336 -132 321.5 -124.0Q307 -116 291.0 -108.5Q275 -101 270 -105Q263 -111 257.5 -131.0Q252 -151 254 -178L195 -153Q195 -153 207.5 -144.0Q220 -135 232.0 -121.0Q244 -107 241 -91Q239 -81 225.5 -72.0Q212 -63 199.0 -57.5Q186 -52 186 -51L230 -6Q230 -6 233.5 -21.0Q237 -36 245.0 -53.5Q253 -71 265 -78Q275 -83 290.5 -81.0Q306 -79 320.5 -73.5Q335 -68 342 -63Z" fill="#546e7a" stroke="none" transform="scale(1,-1) translate(0,-256)" /></svg>