<?xml version="1.0" encoding="utf-8" ?>
<svg baseProfile="full" height="256" version="1.1" width="256" xmlns="http://www.w3.org/2000/svg" xmlns:ev="http://www.w3.org/2001/xml-events" xmlns:xlink="http://www.w3.org/1999/xlink"><defs /><path d="M1044 -211Q1077 -211 1104.5 -194.5Q1132 -178 1148.0 -151.0Q1164 -124 1164 -90Q1164 -57 1148.0 -29.5Q1132 -2 1104.5 14.0Q1077 30 1044 30Q1010 30 982.5 14.0Q955 -2 939.0 -29.5Q923 -57 923 -90Q923 -124 939.0 -151.0Q955 -178 982.5 -194.5Q1010 -211 1044 -211ZM1053 -28Q1078 -28 1096.0 -46.0Q1114 -64 1114 -89Q1114 -114 1096.0 -132.0Q1078 -150 1053 -150Q1028 -150 1010.5 -132.0Q993 -114 993 -89Q993 -64 1010.5 -46.0Q1028 -28 1053 -28Z" fill="#78909c" stroke="none" transform="scale(1,-1) translate(0,-256)" /><path d="M244 -212Q281 -212 311.0 -194.5Q341 -177 359.0 -146.5Q377 -116 377 -79Q377 -43 359.0 -12.5Q341 18 311.0 36.0Q281 54 244 54Q207 54 177.0 36.0Q147 18 129.0 -12.5Q111 -43 111 -79Q111 -116 129.0 -146.5Q147 -177 177.0 -194.5Q207 -212 244 -212ZM256 -12Q284 -12 303.5 -32.0Q323 -52 323 -79Q323 -107 303.5 -126.5Q284 -146 256 -146Q229 -146 209.0 -126.5Q189 -107 189 -79Q189 -52 209.0 -32.0Q229 -12 256 -12Z" fill="#78909c" stroke="none" transform="scale(1,-1) translate(0,-256)" /></svg>