<?xml version="1.0" encoding="utf-8" ?>
<svg baseProfile="full" height="256" version="1.1" width="256" xmlns="http://www.w3.org/2000/svg" xmlns:ev="http://www.w3.org/2001/xml-events" xmlns:xlink="http://www.w3.org/1999/xlink"><defs /><path d="M509 -23 533 -86 1075 -81Q1075 -81 1067.5 -74.5Q1060 -68 1050.0 -61.0Q1040 -54 1031 -53Q1018 -52 1000.0 -51.0Q982 -50 968.5 -50.0Q955 -50 955 -50L910 -29Z" fill="#42a5f5" stroke="none" transform="scale(1,-1) translate(0,-256)" /><path d="M282 91Q267 96 255.5 96.5Q244 97 242 97Q235 96 239 89Q242 84 246.5 79.0Q251 74 255 70Q257 67 261.0 66.0Q265 65 268 65Q281 63 286.5 61.5Q292 60 295 59Q300 58 301.5 58.5Q303 59 302 64Q301 73 295.5 80.5Q290 88 282 91Z" fill="#42a5f5" stroke="none" transform="scale(1,-1) translate(0,-256)" /></svg>