<?xml version="1.0" encoding="utf-8" ?>
<svg baseProfile="full" height="256" version="1.1" width="256" xmlns="http://www.w3.org/2000/svg" xmlns:ev="http://www.w3.org/2001/xml-events" xmlns:xlink="http://www.w3.org/1999/xlink"><defs /><path d="M152 -43V37Q192 23 242.5 14.0Q293 5 347.0 -0.5Q401 -6 450.5 -8.5Q500 -11 537.0 -12.0Q574 -13 591 -13L592 -89Q576 -92 538.5 -91.5Q501 -91 451.5 -88.0Q402 -85 347.5 -79.0Q293 -73 242.0 -64.0Q191 -55 152 -43Z" fill="#ffff00" stroke="none" transform="scale(1,-1) translate(0,-256)" /><path d="M591 159 592 78Q576 75 538.5 76.0Q501 77 451.5 81.0Q402 85 347.5 92.0Q293 99 242.0 108.5Q191 118 152 130V210Q191 196 243.5 187.0Q296 178 348 172L358 797Q358 797 371.0 803.5Q384 810 402.5 819.5Q421 829 436 836L424 166Q498 158 544.5 158.5Q591 159 591 159Z" fill="#ffff00" stroke="none" transform="scale(1,-1) translate(0,-256)" /><path d="M1122 -43 1123 37Q1083 23 1032.0 14.0Q981 5 927.5 -0.5Q874 -6 824.5 -8.5Q775 -11 738.0 -12.0Q701 -13 685 -13L683 -89Q699 -92 736.5 -91.5Q774 -91 823.5 -88.0Q873 -85 927.5 -79.0Q982 -73 1032.5 -64.0Q1083 -55 1122 -43Z" fill="#ffff00" stroke="none" transform="scale(1,-1) translate(0,-256)" /><path d="M927 172Q979 178 1031.0 187.0Q1083 196 1123 210V130Q1084 118 1032.5 108.5Q981 99 926.5 92.5Q872 86 822.0 82.5Q772 79 735.0 77.5Q698 76 683 78L685 154Q685 154 710.0 155.0Q735 156 773.5 158.5Q812 161 852 166L839 836Q854 829 872.5 819.5Q891 810 904.0 803.5Q917 797 917 797Z" fill="#ffff00" stroke="none" transform="scale(1,-1) translate(0,-256)" /></svg>