<?xml version="1.0" encoding="utf-8" ?>
<svg baseProfile="full" height="256" version="1.1" width="256" xmlns="http://www.w3.org/2000/svg" xmlns:ev="http://www.w3.org/2001/xml-events" xmlns:xlink="http://www.w3.org/1999/xlink"><defs /><path d="M581 421Q580 399 581.5 354.0Q583 309 585.5 249.0Q588 189 589.5 122.5Q591 56 592.5 -9.0Q594 -74 593 -128Q593 -143 586.0 -158.5Q579 -174 567 -184Q556 -193 531.0 -198.0Q506 -203 492 -201Q452 -197 403.5 -191.5Q355 -186 306.0 -179.0Q257 -172 216.0 -164.5Q175 -157 152 -149V304Q152 304 172.0 324.0Q192 344 217.5 385.5Q243 427 261 493Q269 525 272.5 568.5Q276 612 276.5 655.0Q277 698 276.5 726.0Q276 754 276 754Q277 755 298.0 766.0Q319 777 352.0 794.0Q385 811 422.5 829.5Q460 848 495.0 864.5Q530 881 553 891Q539 870 527.5 840.5Q516 811 509.5 780.0Q503 749 504 724Q506 684 513.0 645.5Q520 607 536 570Q546 547 563.5 511.0Q581 475 581 421Z" fill="#ff9100" stroke="none" transform="scale(1,-1) translate(0,-256)" /><path d="M695 421Q695 399 693.5 353.5Q692 308 690.0 247.5Q688 187 686.0 120.0Q684 53 683.0 -12.5Q682 -78 683 -132Q683 -148 686.5 -157.5Q690 -167 708 -184Q723 -198 746.5 -199.5Q770 -201 785 -201Q860 -199 946.0 -184.5Q1032 -170 1123 -146V304Q1123 304 1103.0 324.0Q1083 344 1057.5 385.5Q1032 427 1014 493Q1006 525 1002.5 568.5Q999 612 998.5 655.0Q998 698 998.5 726.0Q999 754 999 754Q998 755 977.0 766.0Q956 777 923.0 794.0Q890 811 852.5 829.5Q815 848 780.0 864.5Q745 881 722 891Q736 870 747.5 840.5Q759 811 765.5 780.0Q772 749 771 724Q769 684 762.0 645.5Q755 607 739 570Q729 547 712.0 511.0Q695 475 695 421Z" fill="#ff9100" stroke="none" transform="scale(1,-1) translate(0,-256)" /></svg>