<?xml version="1.0" encoding="utf-8" ?>
<svg baseProfile="full" height="256" version="1.1" width="256" xmlns="http://www.w3.org/2000/svg" xmlns:ev="http://www.w3.org/2001/xml-events" xmlns:xlink="http://www.w3.org/1999/xlink"><defs /><path d="M997 716Q999 723 1009.5 729.0Q1020 735 1027 738Q1033 741 1037.0 750.5Q1041 760 1057 763Q1091 770 1119 751Q1135 741 1127.5 726.5Q1120 712 1113 700Q1108 691 1109.5 680.0Q1111 669 1111.5 659.5Q1112 650 1105 645Q1095 638 1071.0 641.0Q1047 644 1034 655Q1021 665 1006.5 680.0Q992 695 997 716Z" fill="#6d4c41" stroke="none" transform="scale(1,-1) translate(0,-256)" /></svg>