<?xml version="1.0" encoding="utf-8" ?>
<svg baseProfile="full" height="256" version="1.1" width="256" xmlns="http://www.w3.org/2000/svg" xmlns:ev="http://www.w3.org/2001/xml-events" xmlns:xlink="http://www.w3.org/1999/xlink"><defs /><path d="M282 232Q275 243 284.0 257.0Q293 271 309.5 287.5Q326 304 341 323Q363 350 388.0 387.5Q413 425 432 459Q445 482 456.5 506.5Q468 531 483.0 546.5Q498 562 523 556Q548 551 551.0 530.5Q554 510 546.5 486.5Q539 463 530 448Q517 424 491.0 381.5Q465 339 415 289Q392 265 365.5 245.5Q339 226 316.0 219.5Q293 213 282 232Z" fill="#ffebc9" stroke="none" transform="scale(1,-1) translate(0,-256)" /></svg>