<?xml version="1.0" encoding="utf-8" ?>
<svg baseProfile="full" height="256" version="1.1" width="256" xmlns="http://www.w3.org/2000/svg" xmlns:ev="http://www.w3.org/2001/xml-events" xmlns:xlink="http://www.w3.org/1999/xlink"><defs /><path d="M430 609Q430 609 444.0 624.0Q458 639 486.0 661.5Q514 684 554.5 707.5Q595 731 648.5 748.5Q702 766 767 771Q854 776 921.5 760.5Q989 745 1033.0 721.5Q1077 698 1094 680Q1111 662 1109.5 653.5Q1108 645 1094 641Q1071 635 1043.5 637.0Q1016 639 996.5 643.5Q977 648 977 648Q977 648 964.5 636.0Q952 624 925.5 607.5Q899 591 857.0 577.0Q815 563 755 558Q681 553 621.0 560.0Q561 567 518.5 578.5Q476 590 453.0 599.5Q430 609 430 609Z" fill="#dc0d27" stroke="none" transform="scale(1,-1) translate(0,-256)" /></svg>