<?xml version="1.0" encoding="utf-8" ?>
<svg baseProfile="full" height="256" version="1.1" width="256" xmlns="http://www.w3.org/2000/svg" xmlns:ev="http://www.w3.org/2001/xml-events" xmlns:xlink="http://www.w3.org/1999/xlink"><defs /><path d="M953.093994140625 418.531005859375Q952.093994140625 434.531005859375 941.093994140625 444.031005859375Q930.093994140625 453.531005859375 915.593994140625 453.531005859375Q901.093994140625 453.531005859375 890.093994140625 442.531005859375L797.093994140625 349.531005859375Q791.093994140625 344.531005859375 783.593994140625 344.531005859375Q776.093994140625 344.531005859375 770.093994140625 349.531005859375L465.093994140625 654.531005859375Q454.093994140625 665.531005859375 438.593994140625 665.531005859375Q423.093994140625 665.531005859375 412.093994140625 654.531005859375L359.093994140625 601.531005859375Q348.093994140625 590.531005859375 348.093994140625 575.031005859375Q348.093994140625 559.531005859375 359.093994140625 548.531005859375L664.093994140625 243.531005859375Q670.093994140625 238.531005859375 670.093994140625 230.531005859375Q670.093994140625 222.531005859375 664.093994140625 217.531005859375L571.093994140625 124.531005859375Q560.093994140625 113.531005859375 560.593994140625 98.531005859375Q561.093994140625 83.531005859375 570.093994140625 72.531005859375Q579.093994140625 61.531005859375 595.093994140625 60.531005859375H914.093994140625Q931.093994140625 59.531005859375 942.593994140625 71.531005859375Q954.093994140625 83.531005859375 953.093994140625 100.531005859375Z" fill="#fafafa" stroke="none" transform="scale(1,-1) translate(0,-256)" /></svg>