<?xml version="1.0" encoding="utf-8" ?>
<svg baseProfile="full" height="256" version="1.1" width="256" xmlns="http://www.w3.org/2000/svg" xmlns:ev="http://www.w3.org/2001/xml-events" xmlns:xlink="http://www.w3.org/1999/xlink"><defs /><path d="M618 133Q616 140 622.0 134.5Q628 129 636.0 120.0Q644 111 649 105Q655 97 670.0 84.5Q685 72 714 54Q742 35 780.5 19.5Q819 4 845 -11Q866 -24 886.0 -41.5Q906 -59 918.5 -72.0Q931 -85 931 -85L913 -95Q913 -95 901.5 -83.5Q890 -72 874.0 -57.5Q858 -43 843 -33Q828 -24 799.5 -13.0Q771 -2 738.5 14.0Q706 30 677 54Q635 90 626.5 111.5Q618 133 618 133Z" fill="#dbecf7" stroke="none" transform="scale(1,-1) translate(0,-256)" /><path d="M655 -10Q617 12 592.0 45.5Q567 79 553 102Q540 124 524.0 146.0Q508 168 506 173Q504 178 517.0 170.5Q530 163 557 131Q583 99 605.0 68.5Q627 38 650 18Q673 -2 713.0 -13.5Q753 -25 789 -38Q814 -47 833.0 -64.0Q852 -81 863.0 -95.0Q874 -109 874 -109L849 -117Q849 -117 842.0 -107.0Q835 -97 820.5 -83.5Q806 -70 784 -61Q763 -52 746.5 -48.0Q730 -44 709.0 -37.0Q688 -30 655 -10Z" fill="#dbecf7" stroke="none" transform="scale(1,-1) translate(0,-256)" /><path d="M251 165Q236 185 225.5 205.0Q215 225 197 249Q184 266 171.0 279.5Q158 293 147 297Q140 299 149.0 289.0Q158 279 173.0 260.5Q188 242 199 217Q208 196 226.0 165.5Q244 135 278 108Q295 94 311.5 80.0Q328 66 348 40Q366 16 378.5 -9.0Q391 -34 405.5 -57.0Q420 -80 444 -97Q469 -113 494.5 -120.5Q520 -128 537.0 -129.5Q554 -131 554 -131Q554 -131 540.0 -126.5Q526 -122 505 -114Q485 -106 470.0 -93.5Q455 -81 443 -67Q432 -54 414.0 -19.5Q396 15 365 56Q345 83 327.0 95.5Q309 108 291.0 121.5Q273 135 251 165Z" fill="#dbecf7" stroke="none" transform="scale(1,-1) translate(0,-256)" /><path d="M248 270Q251 277 257.5 264.5Q264 252 276.5 229.0Q289 206 310 182Q324 166 346.5 157.5Q369 149 391.5 139.5Q414 130 429 109Q444 89 457.0 58.5Q470 28 484.5 -2.0Q499 -32 518 -50Q537 -68 554.5 -74.0Q572 -80 591.0 -83.0Q610 -86 634 -94Q658 -102 671.5 -113.5Q685 -125 690.5 -134.5Q696 -144 696 -144L666 -145Q666 -145 661.0 -134.5Q656 -124 619 -110Q595 -102 579.5 -101.0Q564 -100 547.5 -95.0Q531 -90 504 -69Q477 -48 461.5 -14.5Q446 19 434.5 50.5Q423 82 410 99Q397 116 379.0 122.0Q361 128 340.5 135.5Q320 143 297 166Q275 188 264.5 212.0Q254 236 251.0 253.0Q248 270 248 270Z" fill="#dbecf7" stroke="none" transform="scale(1,-1) translate(0,-256)" /><path d="M477 118Q462 137 444.0 146.0Q426 155 408.0 161.5Q390 168 376 178Q355 193 344.0 214.5Q333 236 330 246Q328 254 332.5 250.0Q337 246 345.5 235.0Q354 224 364.5 213.0Q375 202 384 197Q398 190 417.0 183.5Q436 177 456.5 165.5Q477 154 495 131Q514 107 523.0 82.0Q532 57 542.5 33.0Q553 9 574 -10Q594 -29 613.5 -34.0Q633 -39 654.5 -42.5Q676 -46 704 -61Q752 -88 773.5 -109.5Q795 -131 795 -131L764 -137Q764 -137 753.5 -125.5Q743 -114 726.0 -99.5Q709 -85 690 -77Q672 -69 649.5 -65.0Q627 -61 602.5 -52.0Q578 -43 554 -22Q531 0 519.5 25.5Q508 51 499.5 75.5Q491 100 477 118Z" fill="#dbecf7" stroke="none" transform="scale(1,-1) translate(0,-256)" /></svg>