<?xml version="1.0" encoding="utf-8" ?>
<svg baseProfile="full" height="256" version="1.1" width="256" xmlns="http://www.w3.org/2000/svg" xmlns:ev="http://www.w3.org/2001/xml-events" xmlns:xlink="http://www.w3.org/1999/xlink"><defs /><path d="M152 469Q132 461 119.5 448.0Q107 435 99 412Q91 386 90.5 364.0Q90 342 93.0 329.0Q96 316 96 316L174 244L346 21L266 -31L177 -51Q177 -51 169.0 -56.0Q161 -61 153.5 -68.0Q146 -75 148 -82Q150 -91 180.5 -99.5Q211 -108 273 -106Q315 -104 341.5 -91.5Q368 -79 380.5 -67.0Q393 -55 393 -55Q393 -55 420.5 -55.0Q448 -55 493.5 -55.5Q539 -56 595.5 -56.5Q652 -57 711.0 -58.5Q770 -60 824.0 -62.0Q878 -64 918.5 -67.0Q959 -70 978 -75Q1022 -86 1054.0 -83.0Q1086 -80 1109.0 -71.0Q1132 -62 1147 -54Q1169 -42 1179.0 -23.5Q1189 -5 1189 -5L1145 16L1020 21Q1020 21 1037.0 29.0Q1054 37 1078.5 59.0Q1103 81 1127.5 123.5Q1152 166 1167 236Q1181 306 1175.5 360.5Q1170 415 1154.0 456.0Q1138 497 1119.5 524.0Q1101 551 1090 565Q1079 579 1060.5 596.0Q1042 613 1023.5 628.5Q1005 644 992.0 654.0Q979 664 979 664L924 690V625Q924 625 933.5 612.5Q943 600 954.0 583.0Q965 566 971 553Q977 540 984.0 512.0Q991 484 991.0 451.5Q991 419 974 392Q950 352 924.5 346.5Q899 341 872 345Q845 349 816.5 371.5Q788 394 763 415Q737 436 707.5 451.5Q678 467 652 466Q630 464 619.0 457.5Q608 451 608 451Q608 451 596.0 459.5Q584 468 563.0 476.5Q542 485 516 485Q489 485 476.0 479.0Q463 473 453.0 466.5Q443 460 428 457Q416 456 385.0 462.5Q354 469 313.5 476.0Q273 483 230.0 483.5Q187 484 152 469Z" fill="#6ba4ae" stroke="none" transform="scale(1,-1) translate(0,-256)" /><path d="M960 633Q960 633 942.5 625.0Q925 617 898.5 609.0Q872 601 844 601Q817 601 793.5 608.5Q770 616 756.0 624.5Q742 633 742 638Q742 646 756.0 648.5Q770 651 782 656Q795 661 811.5 676.0Q828 691 846 697Q858 701 872.5 700.0Q887 699 897.5 696.5Q908 694 908 694Q908 694 906.5 712.0Q905 730 913 741Q920 752 941.0 769.0Q962 786 973 796Q984 806 990.0 818.5Q996 831 1002 833Q1008 836 1018.0 821.5Q1028 807 1025 762Q1023 737 1013.0 714.0Q1003 691 990.5 673.0Q978 655 969.0 644.0Q960 633 960 633Z" fill="#6ba4ae" stroke="none" transform="scale(1,-1) translate(0,-256)" /><path d="M1005 430 957 355Q957 355 952.5 363.5Q948 372 946.5 385.0Q945 398 953 412Q961 426 973.5 429.0Q986 432 995.5 431.0Q1005 430 1005 430Z" fill="#6ba4ae" stroke="none" transform="scale(1,-1) translate(0,-256)" /></svg>