<?xml version="1.0" encoding="utf-8" ?>
<svg baseProfile="full" height="256" version="1.1" width="256" xmlns="http://www.w3.org/2000/svg" xmlns:ev="http://www.w3.org/2001/xml-events" xmlns:xlink="http://www.w3.org/1999/xlink"><defs /><path d="M659 558Q659 558 680.5 529.0Q702 500 733.5 450.5Q765 401 795 339Q814 301 832.0 253.0Q850 205 865.0 156.0Q880 107 889.0 66.0Q898 25 898.5 -1.0Q899 -27 889 -28Q872 -30 842.5 -26.0Q813 -22 780.0 -13.5Q747 -5 719 8Q690 21 649.0 48.0Q608 75 568.0 114.0Q528 153 502 202Q481 241 473.5 287.0Q466 333 471.5 376.0Q477 419 498 450Q516 478 543.5 498.5Q571 519 597.5 532.0Q624 545 641.5 551.5Q659 558 659 558Z" fill="#b7d019" stroke="none" transform="scale(1,-1) translate(0,-256)" /></svg>