<?xml version="1.0" encoding="utf-8" ?>
<svg baseProfile="full" height="256" version="1.1" width="256" xmlns="http://www.w3.org/2000/svg" xmlns:ev="http://www.w3.org/2001/xml-events" xmlns:xlink="http://www.w3.org/1999/xlink"><defs /><path d="M236 791 319 828 309 639Q310 619 302.0 596.5Q294 574 282.5 558.0Q271 542 261 541Q254 540 248.5 543.0Q243 546 234 551Q228 554 220.0 562.0Q212 570 206.0 577.0Q200 584 200 584Q200 584 195.5 575.5Q191 567 186.0 559.5Q181 552 178 552Q171 555 161.5 576.0Q152 597 147.5 629.0Q143 661 152 698Q161 735 181.5 755.0Q202 775 219.0 783.0Q236 791 236 791Z" fill="#ffd51d" stroke="none" transform="scale(1,-1) translate(0,-256)" /></svg>