<?xml version="1.0" encoding="utf-8" ?>
<svg baseProfile="full" height="256" version="1.1" width="256" xmlns="http://www.w3.org/2000/svg" xmlns:ev="http://www.w3.org/2001/xml-events" xmlns:xlink="http://www.w3.org/1999/xlink"><defs /><path d="M413 55 492 42Q492 42 491.0 27.0Q490 12 489.5 -7.5Q489 -27 488.5 -43.0Q488 -59 490 -61Q493 -66 499.5 -70.0Q506 -74 512 -76Q531 -84 549.5 -89.5Q568 -95 573 -113Q576 -125 567.5 -128.0Q559 -131 530.5 -131.0Q502 -131 446 -134Q391 -137 358.0 -146.0Q325 -155 308.5 -160.5Q292 -166 285 -160Q273 -148 279.0 -135.5Q285 -123 299.0 -112.5Q313 -102 325 -96Q344 -86 368.5 -78.5Q393 -71 411.5 -65.0Q430 -59 432 -52Q433 -48 430.5 -31.0Q428 -14 423.5 6.0Q419 26 416.0 40.5Q413 55 413 55Z" fill="#feba02" stroke="none" transform="scale(1,-1) translate(0,-256)" /><path d="M620 -11 691 -13Q691 -13 690.5 -26.5Q690 -40 689.5 -57.5Q689 -75 689.0 -90.0Q689 -105 689 -108Q690 -127 719 -133Q733 -137 754.5 -145.5Q776 -154 778 -172Q780 -194 749.0 -193.0Q718 -192 665 -191Q639 -191 605.5 -195.5Q572 -200 541.5 -204.5Q511 -209 491.0 -209.0Q471 -209 472 -199Q472 -179 489.5 -167.0Q507 -155 530.0 -149.0Q553 -143 569 -139Q593 -134 608.0 -126.5Q623 -119 623 -112Q623 -110 622.5 -94.5Q622 -79 621.5 -59.5Q621 -40 620.5 -25.5Q620 -11 620 -11Z" fill="#feba02" stroke="none" transform="scale(1,-1) translate(0,-256)" /></svg>