<?xml version="1.0" encoding="utf-8" ?>
<svg baseProfile="full" height="256" version="1.1" width="256" xmlns="http://www.w3.org/2000/svg" xmlns:ev="http://www.w3.org/2001/xml-events" xmlns:xlink="http://www.w3.org/1999/xlink"><defs /><path d="M317 687 230 766Q230 766 228.0 778.0Q226 790 230.0 809.0Q234 828 251.5 849.5Q269 871 306 891Q344 911 381.5 912.0Q419 913 449.5 905.0Q480 897 498.5 888.0Q517 879 517 879Q517 879 516.0 865.0Q515 851 509 828Q500 791 476.0 769.5Q452 748 428 727Q413 714 386.5 705.0Q360 696 338.5 691.5Q317 687 317 687Z" fill="#ff2b23" stroke="none" transform="scale(1,-1) translate(0,-256)" /></svg>