<?xml version="1.0" encoding="utf-8" ?>
<svg baseProfile="full" height="256" version="1.1" width="256" xmlns="http://www.w3.org/2000/svg" xmlns:ev="http://www.w3.org/2001/xml-events" xmlns:xlink="http://www.w3.org/1999/xlink"><defs /><path d="M80 403Q80 403 91.0 380.0Q102 357 120.0 318.5Q138 280 160.0 234.0Q182 188 204.0 142.0Q226 96 244.5 57.5Q263 19 274.0 -5.0Q285 -29 286 -31Q286 -32 305.5 -41.5Q325 -51 355.5 -65.0Q386 -79 420.5 -94.5Q455 -110 485.0 -123.5Q515 -137 534.5 -145.5Q554 -154 554 -154L888 -93L1115 203Q1115 203 1121.0 220.0Q1127 237 1136.0 263.5Q1145 290 1155.5 318.0Q1166 346 1175.0 368.5Q1184 391 1190.0 401.0Q1196 411 1196 400Q1196 391 1197.0 352.0Q1198 313 1189.0 254.5Q1180 196 1153.0 127.5Q1126 59 1070 -9Q987 -111 876.0 -161.5Q765 -212 618 -209Q462 -205 350.0 -139.0Q238 -73 167 33Q124 98 104.5 163.5Q85 229 80.5 283.0Q76 337 78.0 370.0Q80 403 80 403Z" fill="#464c4f" stroke="none" transform="scale(1,-1) translate(0,-256)" /><path d="M445 105 493 151 565 107Q565 107 565.0 97.5Q565 88 564.5 76.5Q564 65 564 60Q563 55 543.0 54.5Q523 54 503 54Q485 54 466.0 55.0Q447 56 446 59Q445 61 445.0 72.5Q445 84 445.0 94.5Q445 105 445 105Z" fill="#464c4f" stroke="none" transform="scale(1,-1) translate(0,-256)" /><path d="M541 302 583 319 756 383 852 539Q852 539 858.5 516.5Q865 494 867.0 459.5Q869 425 855 388Q839 347 806.5 319.0Q774 291 723 272Q698 263 669.0 260.0Q640 257 614.0 257.5Q588 258 571.5 260.0Q555 262 555 262Z" fill="#464c4f" stroke="none" transform="scale(1,-1) translate(0,-256)" /><path d="M639 620 751 606Q751 606 759.0 594.5Q767 583 778.5 566.5Q790 550 799.5 535.5Q809 521 813 515Q816 509 806.5 501.0Q797 493 782.5 485.5Q768 478 756.5 473.0Q745 468 745 468Q745 468 742.5 480.5Q740 493 729.0 511.0Q718 529 694 544Q677 554 649.5 556.5Q622 559 598.0 557.5Q574 556 567 556Q557 555 549.0 553.5Q541 552 541 552L528 614Q528 614 543.5 615.0Q559 616 580.0 616.5Q601 617 618.5 618.0Q636 619 639 620Z" fill="#464c4f" stroke="none" transform="scale(1,-1) translate(0,-256)" /><path d="M744 111 858 153Q858 153 868.0 140.0Q878 127 890 106Q900 87 896.0 76.0Q892 65 862 65Q852 65 832.5 65.5Q813 66 795.5 66.0Q778 66 776 67Q773 68 765.5 79.0Q758 90 751.0 100.5Q744 111 744 111Z" fill="#464c4f" stroke="none" transform="scale(1,-1) translate(0,-256)" /></svg>