<?xml version="1.0" encoding="utf-8" ?>
<svg baseProfile="full" height="256" version="1.1" width="256" xmlns="http://www.w3.org/2000/svg" xmlns:ev="http://www.w3.org/2001/xml-events" xmlns:xlink="http://www.w3.org/1999/xlink"><defs /><path d="M1046 667H870Q862 667 857.0 662.0Q852 657 852 650V471Q852 463 857.0 458.0Q862 453 870 453H1046Q1053 453 1058.5 458.0Q1064 463 1064 471V650Q1064 657 1058.5 662.0Q1053 667 1046 667ZM1046 686Q1061 686 1072.0 675.5Q1083 665 1083 650V471Q1083 455 1072.0 444.5Q1061 434 1046 434H870Q854 434 843.5 444.5Q833 455 833 471V650Q833 665 843.5 675.5Q854 686 870 686Z" fill="#9e9e9e" stroke="none" transform="scale(1,-1) translate(0,-256)" /><path d="M1154 33V672Q1131 679 1119.0 675.5Q1107 672 1107 672V33Q1120 21 1131.0 22.0Q1142 23 1148.0 28.0Q1154 33 1154 33Z" fill="#9e9e9e" stroke="none" transform="scale(1,-1) translate(0,-256)" /><path d="M74 658Q80 682 104.0 707.0Q128 732 171.5 749.0Q215 766 280 766Q328 766 360.0 766.0Q392 766 421.0 766.0Q450 766 487.5 766.0Q525 766 585 766Q666 766 713.5 752.0Q761 738 784.0 714.0Q807 690 814 661L790 636Q790 636 749.0 645.5Q708 655 630.5 665.0Q553 675 443 675Q333 675 256.0 664.5Q179 654 138.5 643.5Q98 633 98 633Z" fill="#9e9e9e" stroke="none" transform="scale(1,-1) translate(0,-256)" /></svg>