<?xml version="1.0" encoding="utf-8" ?>
<svg baseProfile="full" height="256" version="1.1" width="256" xmlns="http://www.w3.org/2000/svg" xmlns:ev="http://www.w3.org/2001/xml-events" xmlns:xlink="http://www.w3.org/1999/xlink"><defs /><path d="M771 824Q807 802 827.5 766.0Q848 730 848 688Q849 662 839.0 649.5Q829 637 812 640Q794 642 782.5 657.5Q771 673 760 688Q751 700 737.5 714.5Q724 729 681 742Q664 747 653.5 761.0Q643 775 641.0 791.0Q639 807 648 819Q663 841 684.5 845.0Q706 849 729.0 842.5Q752 836 771 824Z" fill="#ff847a" stroke="none" transform="scale(1,-1) translate(0,-256)" /></svg>