<?xml version="1.0" encoding="utf-8" ?>
<svg baseProfile="full" height="256" version="1.1" width="256" xmlns="http://www.w3.org/2000/svg" xmlns:ev="http://www.w3.org/2001/xml-events" xmlns:xlink="http://www.w3.org/1999/xlink"><defs /><path d="M851 305Q860 305 868 307Q908 314 932 349Q956 384 948 426Q942 464 913.5 488.0Q885 512 849 512Q841 512 832 511Q792 504 768 469Q745 434 752 392Q759 354 787.0 329.5Q815 305 851 305Z" fill="#fffde7" stroke="none" transform="scale(1,-1) translate(0,-256)" /><path d="M418 305Q455 305 483.0 329.5Q511 354 518 392Q525 434 501.5 469.0Q478 504 437 511Q429 512 421 512Q384 512 356.0 488.0Q328 464 322 426Q314 384 338 349Q361 314 402 307Q410 305 418 305Z" fill="#fffde7" stroke="none" transform="scale(1,-1) translate(0,-256)" /></svg>