<?xml version="1.0" encoding="utf-8" ?>
<svg baseProfile="full" height="256" version="1.1" width="256" xmlns="http://www.w3.org/2000/svg" xmlns:ev="http://www.w3.org/2001/xml-events" xmlns:xlink="http://www.w3.org/1999/xlink"><defs /><path d="M275 533Q285 544 297.0 557.0Q309 570 321 581Q339 596 359.5 610.5Q380 625 393 634Q399 638 400.5 645.0Q402 652 398 659Q379 688 368.0 721.0Q357 754 352 779Q350 792 337.0 795.0Q324 798 316 787Q293 757 271.5 695.5Q250 634 253 547Q254 535 260.5 529.0Q267 523 275 533Z" fill="#ffd1d1" stroke="none" transform="scale(1,-1) translate(0,-256)" /><path d="M1000.0 533.0Q990.0 544.0 978.0 557.0Q966.0 570.0 954.0 581.0Q936.0 596.0 915.5 610.5Q895.0 625.0 882.0 634.0Q876.0 638.0 874.5 645.0Q873.0 652.0 877.0 659.0Q896.0 688.0 907.0 721.0Q918.0 754.0 923.0 779.0Q925.0 792.0 938.0 795.0Q951.0 798.0 959.0 787.0Q982.0 757.0 1003.5 695.5Q1025.0 634.0 1022.0 547.0Q1021.0 535.0 1014.5 529.0Q1008.0 523.0 1000.0 533.0Z" fill="#ffd1d1" stroke="none" transform="scale(1,-1) translate(0,-256)" /></svg>