<?xml version="1.0" encoding="utf-8" ?>
<svg baseProfile="full" height="256" version="1.1" width="256" xmlns="http://www.w3.org/2000/svg" xmlns:ev="http://www.w3.org/2001/xml-events" xmlns:xlink="http://www.w3.org/1999/xlink"><defs /><path d="M1058 184Q1044 185 1043 171Q1041 157 1055 156L1191 140Q1205 139 1206 153Q1208 167 1194 168Z" fill="#9e9e9e" stroke="none" transform="scale(1,-1) translate(0,-256)" /><path d="M1017 310Q1007 300 1017 291Q1027 281 1037 291L1169 427Q1179 437 1169 447Q1164 452 1159 452Q1154 452 1149 447Z" fill="#9e9e9e" stroke="none" transform="scale(1,-1) translate(0,-256)" /><path d="M1045.7915496826172 256.73439025878906Q1032.7113494873047 251.70095825195312 1036.8407745361328 238.1966552734375Q1041.8742065429688 225.116455078125 1054.9544067382812 230.14988708496094L1210.052993774414 287.4707489013672Q1223.1331939697266 292.5041809082031 1218.0997619628906 305.5843811035156Q1213.0663299560547 318.6645812988281 1199.9861297607422 313.6311492919922Z" fill="#9e9e9e" stroke="none" transform="scale(1,-1) translate(0,-256)" /><path d="M220 156Q234 157 232 171Q231 178 228 181Q224 185 217 184L81 168Q67 167 69 153Q69 146 73 142Q77 139 84 140Z" fill="#9e9e9e" stroke="none" transform="scale(1,-1) translate(0,-256)" /><path d="M238 291Q248 281 258 291Q263 295 263 300Q263 305 258 310L126 447Q121 452 116 452Q111 452 106 447Q96 437 106 427Z" fill="#9e9e9e" stroke="none" transform="scale(1,-1) translate(0,-256)" /><path d="M220 230Q227 228 231 230Q236 232 238 239Q243 252 230 257L75 314Q69 316 64 314Q60 312 57 306Q52 292 65 288Z" fill="#9e9e9e" stroke="none" transform="scale(1,-1) translate(0,-256)" /></svg>