<?xml version="1.0" encoding="utf-8" ?>
<svg baseProfile="full" height="256" version="1.1" width="256" xmlns="http://www.w3.org/2000/svg" xmlns:ev="http://www.w3.org/2001/xml-events" xmlns:xlink="http://www.w3.org/1999/xlink"><defs /><path d="M485 684Q456 723 441.5 758.0Q427 793 420.5 821.5Q414 850 408.5 870.5Q403 891 392 901Q367 922 335 906Q311 894 279.5 860.0Q248 826 221.0 764.0Q194 702 183.5 608.5Q173 515 191 386Z" fill="#ffc022" stroke="none" transform="scale(1,-1) translate(0,-256)" /><path d="M790.0 684.0Q819.0 723.0 833.5 758.0Q848.0 793.0 854.5 821.5Q861.0 850.0 866.5 870.5Q872.0 891.0 883.0 901.0Q908.0 922.0 940.0 906.0Q964.0 894.0 995.5 860.0Q1027.0 826.0 1054.0 764.0Q1081.0 702.0 1091.5 608.5Q1102.0 515.0 1084.0 386.0Z" fill="#ffc022" stroke="none" transform="scale(1,-1) translate(0,-256)" /></svg>