<?xml version="1.0" encoding="utf-8" ?>
<svg baseProfile="full" height="256" version="1.1" width="256" xmlns="http://www.w3.org/2000/svg" xmlns:ev="http://www.w3.org/2001/xml-events" xmlns:xlink="http://www.w3.org/1999/xlink"><defs /><path d="M738 267Q730 207 687 165Q636 121 542 120H540Q528 120 527 108V45Q528 33 540 33Q694 34 772 124Q850 215 850 387V417Q850 537 794 609Q738 680 641 680Q582 682 532 652Q484 623 460 573Q434 519 435 458Q435 361 484 304Q535 244 618 244Q675 244 719 279Q723 283 729 281Q741 279 738 267ZM643 328Q597 326 570 363Q542 399 542 459Q540 511 569 554Q594 593 641 591Q690 591 715 549Q743 506 743 437V427Q744 375 701 346H700Q674 328 643 328Z" fill="#fafafa" stroke="none" transform="scale(1,-1) translate(0,-256)" /></svg>