<?xml version="1.0" encoding="utf-8" ?>
<svg baseProfile="full" height="256" version="1.1" width="256" xmlns="http://www.w3.org/2000/svg" xmlns:ev="http://www.w3.org/2001/xml-events" xmlns:xlink="http://www.w3.org/1999/xlink"><defs /><path d="M884 636Q883 630 877.0 613.0Q871 596 865.0 578.5Q859 561 857 554Q844 514 845.0 479.0Q846 444 853.5 417.5Q861 391 868.0 376.0Q875 361 875 361L877 328L863 331L676 309Q676 309 682.5 320.5Q689 332 695.5 345.0Q702 358 702 362Q701 366 699.0 380.0Q697 394 694 399Q690 404 674.5 399.0Q659 394 640 391Q603 386 583.0 393.0Q563 400 552.5 415.5Q542 431 533 453Q531 457 528.5 462.0Q526 467 523 469Q521 471 510.0 473.0Q499 475 489.0 479.5Q479 484 479 494Q478 506 486.5 519.5Q495 533 502.5 546.0Q510 559 507 570Q494 596 486.0 618.0Q478 640 476 673Q470 737 499.5 791.0Q529 845 595 868Q638 884 685.5 886.0Q733 888 776 870Q815 854 843.5 816.5Q872 779 884.0 731.0Q896 683 884 636Z" fill="#ffca28" stroke="none" transform="scale(1,-1) translate(0,-256)" /></svg>