<?xml version="1.0" encoding="utf-8" ?>
<svg baseProfile="full" height="256" version="1.1" width="256" xmlns="http://www.w3.org/2000/svg" xmlns:ev="http://www.w3.org/2001/xml-events" xmlns:xlink="http://www.w3.org/1999/xlink"><defs /><path d="M909 702Q913 695 919.0 677.5Q925 660 922.5 637.0Q920 614 901 591Q891 578 886.0 568.0Q881 558 885 551Q887 547 890 545Q892 544 893 543Q899 541 904.0 541.5Q909 542 912 543Q912 543 907.0 532.0Q902 521 889.0 508.5Q876 496 851 493Q815 488 791.0 497.0Q767 506 752.5 520.5Q738 535 732.5 547.0Q727 559 729 560Q751 571 757.5 593.0Q764 615 757.0 634.0Q750 653 730 655Q719 656 712.5 647.5Q706 639 700 627L689 604Q689 604 685.0 603.0Q681 602 675 608Q660 622 656.0 641.0Q652 660 652.5 679.0Q653 698 650.5 712.0Q648 726 635 731Q635 731 634.5 730.5Q634 730 633 730Q617 717 596.0 707.0Q575 697 553 696Q512 694 497.0 680.5Q482 667 481.5 653.0Q481 639 482 634Q455 642 437.5 664.0Q420 686 421 713Q422 733 431.5 751.5Q441 770 459 782Q443 808 445.0 827.0Q447 846 458.0 857.5Q469 869 479.5 874.5Q490 880 490 880Q489 859 502.0 847.5Q515 836 541 844Q542 844 543 844Q544 845 544.0 845.0Q544 845 545 845Q552 848 561 855Q576 868 594.0 881.5Q612 895 632 901Q665 913 699.5 912.5Q734 912 763.5 898.5Q793 885 808 856Q812 856 827.0 854.5Q842 853 861.5 845.5Q881 838 901 818Q921 797 923.5 761.0Q926 725 909 702Q909 702 909.0 702.0Q909 702 909 702Z" fill="#543930" stroke="none" transform="scale(1,-1) translate(0,-256)" /></svg>