<?xml version="1.0" encoding="utf-8" ?>
<svg baseProfile="full" height="256" version="1.1" width="256" xmlns="http://www.w3.org/2000/svg" xmlns:ev="http://www.w3.org/2001/xml-events" xmlns:xlink="http://www.w3.org/1999/xlink"><defs /><path d="M1031 718Q1045 718 1054.5 708.0Q1064 698 1064 685V145Q1064 132 1054.5 122.0Q1045 112 1031 112H245Q232 112 222.5 122.0Q213 132 213 145V685Q213 698 222.5 708.0Q232 718 245 718Z" fill="#b7d5e5" stroke="none" transform="scale(1,-1) translate(0,-256)" /><path d="M847 -133 822 -58H456L429 -133Z" fill="#b7d5e5" stroke="none" transform="scale(1,-1) translate(0,-256)" /><path d="M1207 -155Q1211 -161 1208.0 -168.0Q1205 -175 1197 -175H78Q71 -175 67.5 -168.0Q64 -161 68 -155L194 82Q205 100 225 100H229Q229 100 221.5 93.0Q214 86 212 82L99 -136Q96 -143 100.0 -150.0Q104 -157 112 -157H1162Q1170 -157 1174.5 -150.0Q1179 -143 1175 -135L1057 86Q1054 89 1048.0 95.0Q1042 101 1042 101Q1061 101 1072 84Z" fill="#b7d5e5" stroke="none" transform="scale(1,-1) translate(0,-256)" /></svg>