<?xml version="1.0" encoding="utf-8" ?>
<svg baseProfile="full" height="256" version="1.1" width="256" xmlns="http://www.w3.org/2000/svg" xmlns:ev="http://www.w3.org/2001/xml-events" xmlns:xlink="http://www.w3.org/1999/xlink"><defs /><path d="M1070 307Q1064 316 1069.5 326.0Q1075 336 1085.0 344.0Q1095 352 1103 358Q1110 363 1121.0 369.5Q1132 376 1142.5 377.5Q1153 379 1158 370Q1166 355 1156.5 341.0Q1147 327 1129 316Q1112 305 1095.5 299.5Q1079 294 1070 307Z" fill="#ffb502" stroke="none" transform="scale(1,-1) translate(0,-256)" /><path d="M683 205Q704 202 721.0 194.5Q738 187 735 171Q732 155 715.5 153.0Q699 151 667 157Q635 162 622.0 170.5Q609 179 613 195Q618 210 635.5 210.0Q653 210 683 205Z" fill="#ffb502" stroke="none" transform="scale(1,-1) translate(0,-256)" /></svg>