<?xml version="1.0" encoding="utf-8" ?>
<svg baseProfile="full" height="256" version="1.1" width="256" xmlns="http://www.w3.org/2000/svg" xmlns:ev="http://www.w3.org/2001/xml-events" xmlns:xlink="http://www.w3.org/1999/xlink"><defs /><path d="M581 741Q570 750 573.5 764.0Q577 778 585 787Q598 802 610.0 804.5Q622 807 630 801Q638 795 638.0 781.5Q638 768 629 756Q619 743 606.0 736.5Q593 730 581 741Z" fill="#fea8a6" stroke="none" transform="scale(1,-1) translate(0,-256)" /><path d="M942 605Q949 615 964.5 611.0Q980 607 993 597Q1006 587 1015.5 575.0Q1025 563 1017 551Q1009 540 996.5 541.0Q984 542 963 556Q941 571 938.0 583.0Q935 595 942 605Z" fill="#fea8a6" stroke="none" transform="scale(1,-1) translate(0,-256)" /><path d="M208 505Q218 497 215.5 487.0Q213 477 205.0 466.5Q197 456 190 447Q184 441 175.0 431.0Q166 421 156.5 416.0Q147 411 139 418Q115 438 152 478Q170 498 183.0 506.5Q196 515 208 505Z" fill="#fea8a6" stroke="none" transform="scale(1,-1) translate(0,-256)" /><path d="M266 333Q271 350 287.0 348.0Q303 346 324 343Q346 340 359.5 332.0Q373 324 370 308Q367 292 347.0 292.5Q327 293 308 298Q289 302 275.0 308.5Q261 315 266 333Z" fill="#fea8a6" stroke="none" transform="scale(1,-1) translate(0,-256)" /><path d="M808 233Q808 246 817.5 250.0Q827 254 840.5 253.5Q854 253 865 253Q886 252 903.0 249.0Q920 246 920 229Q921 209 903.0 206.5Q885 204 861 206Q837 208 822.5 210.5Q808 213 808 233Z" fill="#fea8a6" stroke="none" transform="scale(1,-1) translate(0,-256)" /></svg>