<?xml version="1.0" encoding="utf-8" ?>
<svg baseProfile="full" height="256" version="1.1" width="256" xmlns="http://www.w3.org/2000/svg" xmlns:ev="http://www.w3.org/2001/xml-events" xmlns:xlink="http://www.w3.org/1999/xlink"><defs /><path d="M1116 591Q1143 559 1160.0 520.0Q1177 481 1186.5 443.5Q1196 406 1198.5 376.5Q1201 347 1199 334Q1194 309 1175.5 291.0Q1157 273 1133 246Q1117 228 1106.5 205.5Q1096 183 1080.0 160.5Q1064 138 1033 122Q1002 106 966.0 98.0Q930 90 894.5 85.0Q859 80 829 72Q799 65 767.5 51.5Q736 38 696.5 28.0Q657 18 603 19Q550 20 508.5 33.0Q467 46 437.0 60.5Q407 75 387 83Q359 94 317.5 102.0Q276 110 237 134Q198 157 180.0 190.5Q162 224 146 253Q136 273 125.0 280.5Q114 288 103.0 297.5Q92 307 80 331Q67 357 73.0 396.0Q79 435 98.0 478.5Q117 522 145.0 563.0Q173 604 206 633Q248 673 304.0 707.0Q360 741 435.0 762.5Q510 784 611 784Q728 784 812.0 766.0Q896 748 954.5 718.5Q1013 689 1052.0 655.5Q1091 622 1116 591ZM631 387Q675 388 716.0 395.5Q757 403 783.0 420.5Q809 438 808 468Q806 491 787.5 505.0Q769 519 741.5 526.5Q714 534 686.5 536.0Q659 538 639 538Q624 538 597.0 534.5Q570 531 542.0 523.0Q514 515 494.0 499.0Q474 483 473 458Q472 432 493.5 416.5Q515 401 551.0 394.0Q587 387 631 387Z" fill="#875b4f" stroke="none" transform="scale(1,-1) translate(0,-256)" /></svg>