<?xml version="1.0" encoding="utf-8" ?>
<svg baseProfile="full" height="256" version="1.1" width="256" xmlns="http://www.w3.org/2000/svg" xmlns:ev="http://www.w3.org/2001/xml-events" xmlns:xlink="http://www.w3.org/1999/xlink"><defs /><path d="M384 178Q392 178 397.5 183.5Q403 189 403 196V323Q403 331 397.5 336.5Q392 342 384 342H266Q258 342 252.5 336.5Q247 331 247 323V196Q247 189 252.5 183.5Q258 178 266 178ZM261 316Q261 323 269 323H381Q389 323 389 316V204Q389 196 381 196H269Q261 196 261 204Z" fill="#37474f" stroke="none" transform="scale(1,-1) translate(0,-256)" /><path d="M251.86354064941406 290.9224548339844V281.56573486328125H394.5987091064453V290.9224548339844Z" fill="#37474f" stroke="none" transform="scale(1,-1) translate(0,-256)" /><path d="M1009 178Q1017 178 1022.5 183.5Q1028 189 1028 196V323Q1028 331 1022.5 336.5Q1017 342 1009 342H891Q883 342 877.5 336.5Q872 331 872 323V196Q872 189 877.5 183.5Q883 178 891 178ZM886 316Q886 323 894 323H1006Q1014 323 1014 316V204Q1014 196 1006 196H894Q886 196 886 204Z" fill="#37474f" stroke="none" transform="scale(1,-1) translate(0,-256)" /><path d="M876.4385375976562 290.9224548339844V281.56573486328125H1019.2713928222656V290.9224548339844Z" fill="#37474f" stroke="none" transform="scale(1,-1) translate(0,-256)" /><path d="M761 342Q771 342 778.0 335.0Q785 328 785 317V152Q785 142 778.0 134.5Q771 127 761 127H690Q680 127 672.5 134.5Q665 142 665 152V317Q665 328 672.5 335.0Q680 342 690 342Z" fill="#37474f" stroke="none" transform="scale(1,-1) translate(0,-256)" /><path d="M174 149H97V131H182Q190 131 195.5 136.5Q201 142 201 149V323Q201 331 195.5 336.5Q190 342 182 342H97V323H174Q186 323 186 311V162Q186 149 174 149Z" fill="#37474f" stroke="none" transform="scale(1,-1) translate(0,-256)" /><path d="M1101 149H1178V131H1093Q1085 131 1079.5 136.5Q1074 142 1074 149V323Q1074 331 1079.5 336.5Q1085 342 1093 342H1178V323H1101Q1089 323 1089 311V162Q1089 149 1101 149Z" fill="#37474f" stroke="none" transform="scale(1,-1) translate(0,-256)" /></svg>