<?xml version="1.0" encoding="utf-8" ?>
<svg baseProfile="full" height="256" version="1.1" width="256" xmlns="http://www.w3.org/2000/svg" xmlns:ev="http://www.w3.org/2001/xml-events" xmlns:xlink="http://www.w3.org/1999/xlink"><defs /><path d="M256.5516052246094 332.6627960205078V186.94737243652344H393.3796844482422V332.6627960205078Z" fill="#bae2fd" stroke="none" transform="scale(1,-1) translate(0,-256)" /><path d="M881.1142120361328 332.6627960205078V186.94737243652344H1017.9422912597656V332.6627960205078Z" fill="#bae2fd" stroke="none" transform="scale(1,-1) translate(0,-256)" /><path d="M755 320Q763 320 768.5 314.5Q774 309 774 302V168Q774 161 768.5 155.5Q763 150 755 150H698Q690 150 684.5 155.5Q679 161 679 168V302Q679 309 684.5 314.5Q690 320 698 320Z" fill="#bae2fd" stroke="none" transform="scale(1,-1) translate(0,-256)" /><path d="M578 320Q586 320 591.5 314.5Q597 309 597 302V168Q597 161 591.5 155.5Q586 150 578 150H521Q513 150 507.5 155.5Q502 161 502 168V302Q502 309 507.5 314.5Q513 320 521 320Z" fill="#bae2fd" stroke="none" transform="scale(1,-1) translate(0,-256)" /><path d="M96.58197021484375 332.6429748535156V140.09689331054688H192.640625V332.6429748535156Z" fill="#bae2fd" stroke="none" transform="scale(1,-1) translate(0,-256)" /><path d="M1083.3145599365234 332.6429748535156V140.09689331054688H1178.0648040771484V332.6429748535156Z" fill="#bae2fd" stroke="none" transform="scale(1,-1) translate(0,-256)" /></svg>