<?xml version="1.0" encoding="utf-8" ?>
<svg baseProfile="full" height="256" version="1.1" width="256" xmlns="http://www.w3.org/2000/svg" xmlns:ev="http://www.w3.org/2001/xml-events" xmlns:xlink="http://www.w3.org/1999/xlink"><defs /><path d="M792 361H491Q481 361 474.5 353.5Q468 346 468 336V-32Q468 -40 473.5 -46.0Q479 -52 486 -52H792Q807 -52 807 -35V344Q807 361 792 361ZM792 380Q806 380 815.5 369.5Q825 359 825 344V-35Q825 -50 815.5 -60.5Q806 -71 792 -71H486Q471 -71 460.0 -59.5Q449 -48 449 -32V336Q449 354 461.5 367.0Q474 380 491 380Z" fill="#9e740b" stroke="none" transform="scale(1,-1) translate(0,-256)" /><path d="M647.0328826904297 370.8004913330078 628.0328826904297 370.768310546875 628.0123443603516 -56.71232604980469 647.0123443603516 -56.680145263671875Z" fill="#9e740b" stroke="none" transform="scale(1,-1) translate(0,-256)" /></svg>