<?xml version="1.0" encoding="utf-8" ?>
<svg baseProfile="full" height="256" version="1.1" width="256" xmlns="http://www.w3.org/2000/svg" xmlns:ev="http://www.w3.org/2001/xml-events" xmlns:xlink="http://www.w3.org/1999/xlink"><defs /><path d="M664 233Q510 180 350 156Q336 154 328.0 143.5Q320 133 321 119Q322 113 325 107Q364 41 432.0 -2.0Q500 -45 584.0 -55.5Q668 -66 755 -37Q849 -5 909.5 55.0Q970 115 995.0 189.5Q1020 264 1010 339Q1008 352 997.0 360.0Q986 368 973 366Q967 366 961 362Q819 285 664 233Z" fill="#000000" stroke="none" transform="scale(1,-1) translate(0,-256)" /></svg>