<?xml version="1.0" encoding="utf-8" ?>
<svg baseProfile="full" height="256" version="1.1" width="256" xmlns="http://www.w3.org/2000/svg" xmlns:ev="http://www.w3.org/2001/xml-events" xmlns:xlink="http://www.w3.org/1999/xlink"><defs /><path d="M502 566Q538 545 558.0 510.5Q578 476 580.0 436.0Q582 396 564 359Q544 319 509.0 296.5Q474 274 432.5 271.0Q391 268 351 287Q312 307 289.5 342.0Q267 377 264.0 418.5Q261 460 280 499Q300 539 335.0 561.5Q370 584 411.5 587.0Q453 590 492 571Q495 570 497.0 568.5Q499 567 502 566Z" fill="#ffffff" stroke="none" transform="scale(1,-1) translate(0,-256)" /><path d="M920 566Q956 545 976.0 510.5Q996 476 998.0 436.0Q1000 396 982 359Q962 320 927.0 297.5Q892 275 850.5 272.0Q809 269 770 288Q731 308 708.5 343.0Q686 378 683.0 419.5Q680 461 699 500Q719 539 754.0 561.5Q789 584 830.5 587.0Q872 590 911 571Q914 569 920 566Z" fill="#ffffff" stroke="none" transform="scale(1,-1) translate(0,-256)" /></svg>