<?xml version="1.0" encoding="utf-8" ?>
<svg baseProfile="full" height="256" version="1.1" width="256" xmlns="http://www.w3.org/2000/svg" xmlns:ev="http://www.w3.org/2001/xml-events" xmlns:xlink="http://www.w3.org/1999/xlink"><defs /><path d="M691 427H689Q689 427 689.0 427.0Q689 427 689 427Q689 384 710.0 348.5Q731 313 766.5 292.0Q802 271 845 271Q888 271 923.5 292.0Q959 313 980.0 348.5Q1001 384 1001 427H999Q991 367 946 327Q903 289 845 289Q818 288 792 298Q766 308 745 326Q700 367 691 427Z" fill="#f4a223" stroke="none" transform="scale(1,-1) translate(0,-256)" /><path d="M273.06199645996094 427.0H271.06199645996094Q271.06199645996094 427.0 271.06199645996094 427.0Q271.06199645996094 427.0 271.06199645996094 427.0Q271.06199645996094 384.0 292.06199645996094 348.5Q313.06199645996094 313.0 348.56199645996094 292.0Q384.06199645996094 271.0 427.06199645996094 271.0Q470.06199645996094 271.0 505.56199645996094 292.0Q541.0619964599609 313.0 562.0619964599609 348.5Q583.0619964599609 384.0 583.0619964599609 427.0H581.0619964599609Q573.0619964599609 367.0 528.0619964599609 327.0Q485.06199645996094 289.0 427.06199645996094 289.0Q400.06199645996094 288.0 374.06199645996094 298.0Q348.06199645996094 308.0 327.06199645996094 326.0Q282.06199645996094 367.0 273.06199645996094 427.0Z" fill="#f4a223" stroke="none" transform="scale(1,-1) translate(0,-256)" /></svg>