<?xml version="1.0" encoding="utf-8" ?>
<svg baseProfile="full" height="256" version="1.1" width="256" xmlns="http://www.w3.org/2000/svg" xmlns:ev="http://www.w3.org/2001/xml-events" xmlns:xlink="http://www.w3.org/1999/xlink"><defs /><path d="M497 542Q497 558 491 571Q462 586 431.0 587.5Q400 589 371 579Q360 562 360 542Q360 514 380.5 493.5Q401 473 429 473Q457 473 477.0 493.5Q497 514 497 542Z" fill="#422b0d" stroke="none" transform="scale(1,-1) translate(0,-256)" /><path d="M916 542Q916 558 909 572Q880 586 849.0 587.0Q818 588 789 579Q779 562 779 542Q779 514 799.0 493.5Q819 473 847 473Q876 473 896.0 493.5Q916 514 916 542Z" fill="#422b0d" stroke="none" transform="scale(1,-1) translate(0,-256)" /><path d="M741 31Q756 31 767.0 42.0Q778 53 778 69Q778 84 767.0 95.0Q756 106 741 106H534Q519 106 508.0 95.0Q497 84 497 69Q497 53 508.0 42.0Q519 31 534 31Z" fill="#422b0d" stroke="none" transform="scale(1,-1) translate(0,-256)" /></svg>