<?xml version="1.0" encoding="utf-8" ?>
<svg baseProfile="full" height="256" version="1.1" width="256" xmlns="http://www.w3.org/2000/svg" xmlns:ev="http://www.w3.org/2001/xml-events" xmlns:xlink="http://www.w3.org/1999/xlink"><defs /><path d="M933 275Q933 275 934.5 263.0Q936 251 934.0 233.0Q932 215 921.5 196.0Q911 177 887 164Q854 145 825.5 144.5Q797 144 780.0 149.5Q763 155 763 155Q763 155 775.0 168.0Q787 181 802.5 199.0Q818 217 830.5 231.0Q843 245 844 247Q844 249 857.5 253.5Q871 258 888.5 263.0Q906 268 919.5 271.5Q933 275 933 275Z" fill="#dc0d2a" stroke="none" transform="scale(1,-1) translate(0,-256)" /><path d="M1146 532Q1146 532 1129.5 525.0Q1113 518 1091.5 508.5Q1070 499 1053.0 491.0Q1036 483 1034 482Q1032 480 1036.0 466.5Q1040 453 1045.5 436.5Q1051 420 1055.5 407.5Q1060 395 1060 395Q1060 395 1077.5 395.5Q1095 396 1119.0 401.5Q1143 407 1162.5 420.5Q1182 434 1185 460Q1189 490 1179.0 505.0Q1169 520 1157.5 526.0Q1146 532 1146 532Z" fill="#dc0d2a" stroke="none" transform="scale(1,-1) translate(0,-256)" /><path d="M457 268 696 220Q696 220 684.0 205.0Q672 190 649.0 171.5Q626 153 592.5 142.0Q559 131 515 139Q471 146 445.5 161.0Q420 176 407.5 192.5Q395 209 391.0 220.5Q387 232 387 232Z" fill="#dc0d2a" stroke="none" transform="scale(1,-1) translate(0,-256)" /><path d="M248 343 330 242Q330 242 310.0 239.5Q290 237 261.5 240.0Q233 243 208 261Q188 275 180.5 293.5Q173 312 172.0 325.5Q171 339 171 339Z" fill="#dc0d2a" stroke="none" transform="scale(1,-1) translate(0,-256)" /></svg>