<?xml version="1.0" encoding="utf-8" ?>
<svg baseProfile="full" height="256" version="1.1" width="256" xmlns="http://www.w3.org/2000/svg" xmlns:ev="http://www.w3.org/2001/xml-events" xmlns:xlink="http://www.w3.org/1999/xlink"><defs /><path d="M216 200 318 207 464 120Q464 120 479.0 110.0Q494 100 502 92Q519 75 479 78Q456 80 427.5 87.5Q399 95 371 104Q348 112 330.0 124.0Q312 136 312 136Q312 136 297.0 137.0Q282 138 259.5 143.0Q237 148 216 157Q186 171 171.0 184.5Q156 198 154 205Q152 212 164.0 208.5Q176 205 185 203Q194 201 205.0 200.5Q216 200 216 200Z" fill="#d45e51" stroke="none" transform="scale(1,-1) translate(0,-256)" /><path d="M539 72Q540 78 567.0 75.5Q594 73 626 70Q655 66 678.0 60.5Q701 55 703 34Q705 14 690.0 10.0Q675 6 653.5 12.0Q632 18 616 25Q600 32 582.0 41.0Q564 50 551.5 58.5Q539 67 539 72Z" fill="#d45e51" stroke="none" transform="scale(1,-1) translate(0,-256)" /></svg>