<?xml version="1.0" encoding="utf-8" ?>
<svg baseProfile="full" height="256" version="1.1" width="256" xmlns="http://www.w3.org/2000/svg" xmlns:ev="http://www.w3.org/2001/xml-events" xmlns:xlink="http://www.w3.org/1999/xlink"><defs /><path d="M176 250 651 548 1168 360Q1168 360 1156.0 347.0Q1144 334 1125.5 314.5Q1107 295 1088.5 275.5Q1070 256 1056 243Q1046 232 1023.0 213.0Q1000 194 971.5 170.5Q943 147 914.5 124.5Q886 102 864.0 84.0Q842 66 832 57Q817 43 794.0 22.5Q771 2 742.0 -12.5Q713 -27 678 -24Q652 -21 618.0 -9.5Q584 2 547.5 17.5Q511 33 476.0 47.0Q441 61 411 68Q373 77 330.5 88.0Q288 99 251.0 110.5Q214 122 191 133Q157 148 142.5 168.5Q128 189 128 214Q128 230 140.0 238.0Q152 246 164.0 248.0Q176 250 176 250Z" fill="#ec8b7a" stroke="none" transform="scale(1,-1) translate(0,-256)" /></svg>