<?xml version="1.0" encoding="utf-8" ?>
<svg baseProfile="full" height="256" version="1.1" width="256" xmlns="http://www.w3.org/2000/svg" xmlns:ev="http://www.w3.org/2001/xml-events" xmlns:xlink="http://www.w3.org/1999/xlink"><defs /><path d="M208 83Q179 94 164.0 111.5Q149 129 145.5 144.0Q142 159 148 163Q151 165 185.5 181.0Q220 197 275.5 222.5Q331 248 399.0 279.5Q467 311 539.0 344.0Q611 377 678.5 407.5Q746 438 800.0 463.0Q854 488 886.0 502.5Q918 517 918 517Q918 517 935.0 503.0Q952 489 979.5 467.5Q1007 446 1037.5 421.0Q1068 396 1095.0 373.5Q1122 351 1139.0 335.0Q1156 319 1156 316Q1155 309 1138.0 291.0Q1121 273 1097.5 251.5Q1074 230 1052 212Q1036 199 1007.0 173.0Q978 147 943.5 116.5Q909 86 874.0 57.0Q839 28 812 9Q775 -16 728.0 -29.5Q681 -43 630.5 -42.5Q580 -42 534 -27Q488 -12 462.0 9.0Q436 30 426.0 45.5Q416 61 416 61Q416 61 396.5 60.0Q377 59 346.5 59.5Q316 60 279.5 65.0Q243 70 208 83Z" fill="#fadfb1" stroke="none" transform="scale(1,-1) translate(0,-256)" /><path d="M526 826Q535 827 563.0 822.5Q591 818 629.5 810.0Q668 802 709.5 793.0Q751 784 787 776Q819 768 864.5 757.5Q910 747 959.0 735.0Q1008 723 1050.5 710.5Q1093 698 1120.0 686.0Q1147 674 1149 664Q1149 660 1135.0 645.0Q1121 630 1100.0 610.0Q1079 590 1058.0 570.5Q1037 551 1024 539Q1013 529 990.0 509.5Q967 490 938.0 465.0Q909 440 879.5 415.0Q850 390 825.0 369.0Q800 348 786 337Q751 309 695.5 303.5Q640 298 560 307Q520 311 491.0 326.5Q462 342 444.0 360.0Q426 378 417.0 391.5Q408 405 408 405Q408 405 387.5 403.5Q367 402 334.5 401.5Q302 401 265.0 406.0Q228 411 194 424Q161 436 146.0 452.5Q131 469 128.5 485.5Q126 502 131.5 515.0Q137 528 144 534Q150 540 171.0 557.0Q192 574 218.5 596.0Q245 618 270.0 638.5Q295 659 311 671Q324 681 347.0 699.0Q370 717 397.5 738.5Q425 760 451.5 779.0Q478 798 498.0 811.0Q518 824 526 826Z" fill="#fadfb1" stroke="none" transform="scale(1,-1) translate(0,-256)" /></svg>