<?xml version="1.0" encoding="utf-8" ?>
<svg baseProfile="full" height="256" version="1.1" width="256" xmlns="http://www.w3.org/2000/svg" xmlns:ev="http://www.w3.org/2001/xml-events" xmlns:xlink="http://www.w3.org/1999/xlink"><defs /><path d="M807.3005065917969 27.66339111328125V-126.17739868164062H1199.7038116455078V27.66339111328125Z" fill="#455a64" stroke="none" transform="scale(1,-1) translate(0,-256)" /><path d="M937.4525451660156 -87.25984191894531Q937.4525451660156 -61.47242736816406 927.7822647094727 -38.79728698730469Q918.1119842529297 -16.122146606445312 900.8833236694336 1.1065139770507812Q883.6546630859375 18.335174560546875 860.9795227050781 28.116607666015625Q838.3043823242188 37.898040771484375 812.5169677734375 37.898040771484375Q786.5072479248047 37.898040771484375 763.8321075439453 28.116607666015625Q741.1569671630859 18.335174560546875 723.9283065795898 1.1065139770507812Q706.6996459960938 -16.122146606445312 697.0293655395508 -38.79728698730469Q687.3590850830078 -61.47242736816406 687.3590850830078 -87.25984191894531Q687.3590850830078 -113.04725646972656 697.0293655395508 -135.72239685058594Q706.6996459960938 -158.3975372314453 723.9283065795898 -175.6261978149414Q741.1569671630859 -192.8548583984375 763.8321075439453 -202.52513885498047Q786.5072479248047 -212.19541931152344 812.5169677734375 -212.19541931152344Q838.3043823242188 -212.19541931152344 860.9795227050781 -202.52513885498047Q883.6546630859375 -192.8548583984375 900.8833236694336 -175.6261978149414Q918.1119842529297 -158.3975372314453 927.7822647094727 -135.72239685058594Q937.4525451660156 -113.04725646972656 937.4525451660156 -87.25984191894531Z" fill="#455a64" stroke="none" transform="scale(1,-1) translate(0,-256)" /><path d="M706 -31H914V-87H842Q842 -100 833.5 -108.5Q825 -117 812 -117Q800 -117 791.5 -108.5Q783 -100 783 -87H706Z" fill="#455a64" stroke="none" transform="scale(1,-1) translate(0,-256)" /></svg>