<?xml version="1.0" encoding="utf-8" ?>
<svg baseProfile="full" height="256" version="1.1" width="256" xmlns="http://www.w3.org/2000/svg" xmlns:ev="http://www.w3.org/2001/xml-events" xmlns:xlink="http://www.w3.org/1999/xlink"><defs /><path d="M635 605Q622 605 591.5 600.0Q561 595 523.5 586.0Q486 577 453.0 563.5Q420 550 401.5 532.5Q383 515 391 495Q405 483 441.5 478.5Q478 474 524.5 476.5Q571 479 616.0 488.0Q661 497 693.0 512.5Q725 528 731 548Q731 574 714.5 587.0Q698 600 675.5 603.5Q653 607 635 605Z" fill="#f5f5f5" stroke="none" transform="scale(1,-1) translate(0,-256)" /></svg>