<?xml version="1.0" encoding="utf-8" ?>
<svg baseProfile="full" height="256" version="1.1" width="256" xmlns="http://www.w3.org/2000/svg" xmlns:ev="http://www.w3.org/2001/xml-events" xmlns:xlink="http://www.w3.org/1999/xlink"><defs /><path d="M895.8260040283203 -87.26164245605469Q895.8260040283203 -70.05882263183594 889.3749465942383 -54.93220520019531Q882.9238891601562 -39.80558776855469 871.4306259155273 -28.31232452392578Q859.9373626708984 -16.819061279296875 844.8107452392578 -10.293853759765625Q829.6841278076172 -3.768646240234375 812.4813079833984 -3.768646240234375Q795.1301879882812 -3.768646240234375 780.0035705566406 -10.293853759765625Q764.876953125 -16.819061279296875 753.3836898803711 -28.31232452392578Q741.8904266357422 -39.80558776855469 735.4393692016602 -54.93220520019531Q728.9883117675781 -70.05882263183594 728.9883117675781 -87.26164245605469Q728.9883117675781 -104.46446228027344 735.4393692016602 -119.59107971191406Q741.8904266357422 -134.7176971435547 753.3836898803711 -146.2109603881836Q764.876953125 -157.7042236328125 780.0035705566406 -164.15528106689453Q795.1301879882812 -170.60633850097656 812.4813079833984 -170.60633850097656Q829.6841278076172 -170.60633850097656 844.8107452392578 -164.15528106689453Q859.9373626708984 -157.7042236328125 871.4306259155273 -146.2109603881836Q882.9238891601562 -134.7176971435547 889.3749465942383 -119.59107971191406Q895.8260040283203 -104.46446228027344 895.8260040283203 -87.26164245605469Z" fill="#607d8b" stroke="none" transform="scale(1,-1) translate(0,-256)" /></svg>