<?xml version="1.0" encoding="utf-8" ?>
<svg baseProfile="full" height="256" version="1.1" width="256" xmlns="http://www.w3.org/2000/svg" xmlns:ev="http://www.w3.org/2001/xml-events" xmlns:xlink="http://www.w3.org/1999/xlink"><defs /><path d="M687 513Q614 509 573.0 532.5Q532 556 517.5 596.5Q503 637 509 685Q513 722 529.0 761.5Q545 801 568.5 836.0Q592 871 621.5 893.5Q651 916 682 917Q716 918 746.5 893.5Q777 869 800.5 831.0Q824 793 838.0 751.5Q852 710 853 677Q854 631 841.0 595.5Q828 560 791.5 538.5Q755 517 687 513Z" fill="#ff5117" stroke="none" transform="scale(1,-1) translate(0,-256)" /></svg>