<?xml version="1.0" encoding="utf-8" ?>
<svg baseProfile="full" height="256" version="1.1" width="256" xmlns="http://www.w3.org/2000/svg" xmlns:ev="http://www.w3.org/2001/xml-events" xmlns:xlink="http://www.w3.org/1999/xlink"><defs /><path d="M955 -35Q955 -35 925.5 -33.5Q896 -32 849.0 -29.0Q802 -26 749.5 -22.5Q697 -19 650.0 -15.5Q603 -12 573.0 -8.0Q543 -4 542 -1Q542 2 518.0 10.0Q494 18 456.5 29.0Q419 40 377.0 52.0Q335 64 297.5 77.0Q260 90 236.5 101.5Q213 113 212 123Q212 136 201.0 159.0Q190 182 175.5 205.0Q161 228 150.5 244.0Q140 260 140 260Q140 260 139.5 275.5Q139 291 144 306Q148 319 166.0 348.0Q184 377 210.5 416.5Q237 456 269.0 499.0Q301 542 332 581Q375 634 414.5 676.0Q454 718 479.0 743.0Q504 768 504 768Q504 768 507.5 786.5Q511 805 531 821Q547 834 562.5 831.5Q578 829 588.0 822.5Q598 816 598 816L773 761Q773 761 780.5 771.0Q788 781 803.0 788.0Q818 795 842 787Q863 780 874.0 765.5Q885 751 888.5 735.0Q892 719 892.0 708.0Q892 697 892 697Q892 697 899.0 705.5Q906 714 920.0 720.5Q934 727 953 721Q977 713 989.5 698.5Q1002 684 1006.5 668.5Q1011 653 1011.5 642.0Q1012 631 1012 631Q1012 631 1028.5 642.5Q1045 654 1070 654Q1082 654 1098.0 648.0Q1114 642 1127.0 627.5Q1140 613 1142 587Q1144 561 1136.0 543.0Q1128 525 1119.0 516.0Q1110 507 1110 507Q1110 507 1114.5 465.5Q1119 424 1123 336Q1125 291 1125.0 247.5Q1125 204 1124.0 168.0Q1123 132 1122.0 110.5Q1121 89 1121 89Q1121 89 1130.0 80.5Q1139 72 1143 60Q1147 47 1147.5 21.5Q1148 -4 1134 -22Q1125 -34 1107.5 -41.0Q1090 -48 1075.5 -51.5Q1061 -55 1061 -55Q1061 -55 1045.5 -51.0Q1030 -47 1009.5 -42.5Q989 -38 973.0 -35.5Q957 -33 955 -35Z" fill="#ffccc1" stroke="none" transform="scale(1,-1) translate(0,-256)" /><path d="M403 119Q290 103 220.0 97.0Q150 91 150 91L158 -21Q158 -21 214.0 -16.5Q270 -12 372.0 0.5Q474 13 612 38Q751 63 848.0 92.0Q945 121 995.5 141.5Q1046 162 1046 162Q1046 162 1046.0 175.0Q1046 188 1045.0 205.5Q1044 223 1044 235Q1042 253 1041.0 267.5Q1040 282 1040 282Q1040 282 1021.0 274.5Q1002 267 971.5 256.0Q941 245 906.5 233.0Q872 221 842 212Q730 179 616.5 156.0Q503 133 403 119Z" fill="#ffccc1" stroke="none" transform="scale(1,-1) translate(0,-256)" /></svg>