<?xml version="1.0" encoding="utf-8" ?>
<svg baseProfile="full" height="256" version="1.1" width="256" xmlns="http://www.w3.org/2000/svg" xmlns:ev="http://www.w3.org/2001/xml-events" xmlns:xlink="http://www.w3.org/1999/xlink"><defs /><path d="M589 291Q501 273 420.5 262.0Q340 251 277.0 246.0Q214 241 177.5 239.0Q141 237 141 237L167 -164Q167 -164 226.0 -160.0Q285 -156 391.5 -145.0Q498 -134 640 -112Q782 -90 870.5 -66.5Q959 -43 1000.0 -27.0Q1041 -11 1041 -11Q1041 -11 1042.0 5.0Q1043 21 1044.0 42.5Q1045 64 1045 78Q1046 88 1046.0 120.0Q1046 152 1045.0 192.5Q1044 233 1041.0 270.5Q1038 308 1033 329Q1027 358 1013.5 370.5Q1000 383 984.0 385.0Q968 387 953 385Q942 384 904.5 373.0Q867 362 814.0 347.0Q761 332 702.0 317.0Q643 302 589 291Z" fill="#fea32e" stroke="none" transform="scale(1,-1) translate(0,-256)" /></svg>