<?xml version="1.0" encoding="utf-8" ?>
<svg baseProfile="full" height="256" version="1.1" width="256" xmlns="http://www.w3.org/2000/svg" xmlns:ev="http://www.w3.org/2001/xml-events" xmlns:xlink="http://www.w3.org/1999/xlink"><defs /><path d="M172 -107Q172 -107 170.0 -85.5Q168 -64 165.0 -32.5Q162 -1 158.5 32.0Q155 65 153.0 88.5Q151 112 150 117Q150 121 148.0 141.5Q146 162 144.0 188.5Q142 215 141 237Q139 261 139.5 269.5Q140 278 140 278Q140 278 161.0 278.0Q182 278 244 282Q371 288 486.5 307.5Q602 327 697.0 351.5Q792 376 858 397Q877 403 905.0 411.5Q933 420 961.5 423.0Q990 426 1011 417Q1031 407 1043.0 393.0Q1055 379 1062.5 348.5Q1070 318 1075 260Q1077 228 1078.0 187.0Q1079 146 1078.5 104.5Q1078 63 1077.0 27.5Q1076 -8 1075.0 -30.0Q1074 -52 1074 -52Q1074 -52 1039.5 -62.0Q1005 -72 948.0 -87.5Q891 -103 822.5 -119.0Q754 -135 686 -146Q632 -156 566.5 -165.5Q501 -175 435.5 -183.5Q370 -192 314.5 -198.5Q259 -205 223.5 -207.5Q188 -210 183 -208Q171 -203 169.5 -193.0Q168 -183 167 -164Q166 -145 169.0 -126.0Q172 -107 172 -107Z" fill="#df7c1a" stroke="none" transform="scale(1,-1) translate(0,-256)" /></svg>