<?xml version="1.0" encoding="utf-8" ?>
<svg baseProfile="full" height="256" version="1.1" width="256" xmlns="http://www.w3.org/2000/svg" xmlns:ev="http://www.w3.org/2001/xml-events" xmlns:xlink="http://www.w3.org/1999/xlink"><defs /><path d="M983.0358734130859 122.0946044921875Q983.0358734130859 177.13690185546875 962.3950119018555 225.53616333007812Q941.754150390625 273.9354248046875 904.9802017211914 310.7093734741211Q868.2062530517578 347.4833221435547 819.8069915771484 368.36143493652344Q771.4077301025391 389.2395477294922 716.3654327392578 389.2395477294922Q660.8486328125 389.2395477294922 612.4493713378906 368.36143493652344Q564.0501098632812 347.4833221435547 527.2761611938477 310.7093734741211Q490.50221252441406 273.9354248046875 469.8613510131836 225.53616333007812Q449.2204895019531 177.13690185546875 449.2204895019531 122.0946044921875Q449.2204895019531 67.05230712890625 469.8613510131836 18.653045654296875Q490.50221252441406 -29.7462158203125 527.2761611938477 -66.5201644897461Q564.0501098632812 -103.29411315917969 612.4493713378906 -123.93497467041016Q660.8486328125 -144.57583618164062 716.3654327392578 -144.57583618164062Q771.4077301025391 -144.57583618164062 819.8069915771484 -123.93497467041016Q868.2062530517578 -103.29411315917969 904.9802017211914 -66.5201644897461Q941.754150390625 -29.7462158203125 962.3950119018555 18.653045654296875Q983.0358734130859 67.05230712890625 983.0358734130859 122.0946044921875Z" fill="#e0e0e0" stroke="none" transform="scale(1,-1) translate(0,-256)" /></svg>