<?xml version="1.0" encoding="utf-8" ?>
<svg baseProfile="full" height="256" version="1.1" width="256" xmlns="http://www.w3.org/2000/svg" xmlns:ev="http://www.w3.org/2001/xml-events" xmlns:xlink="http://www.w3.org/1999/xlink"><defs /><path d="M190 570V668Q190 675 184.5 680.5Q179 686 171 686Q164 686 158.5 680.5Q153 675 153 668V570Z" fill="#94d1e0" stroke="none" transform="scale(1,-1) translate(0,-256)" /><path d="M672 279Q687 282 703.0 278.0Q719 274 721 255Q722 241 711.0 233.0Q700 225 688 222Q659 214 640.5 195.0Q622 176 608 152Q602 143 589.5 141.5Q577 140 577 166Q577 187 588.5 210.5Q600 234 621.0 253.0Q642 272 672 279Z" fill="#94d1e0" stroke="none" transform="scale(1,-1) translate(0,-256)" /></svg>