<?xml version="1.0" encoding="utf-8" ?>
<svg baseProfile="full" height="256" version="1.1" width="256" xmlns="http://www.w3.org/2000/svg" xmlns:ev="http://www.w3.org/2001/xml-events" xmlns:xlink="http://www.w3.org/1999/xlink"><defs /><path d="M428 746Q431 752 436.0 762.5Q441 773 443.5 783.5Q446 794 441 800Q431 810 423.5 801.0Q416 792 412 785Q397 760 380 737Q346 692 305 652Q297 645 289.0 637.0Q281 629 275 620Q272 614 274 611Q277 607 286 611Q380 654 428 746Z" fill="#b9e4ea" stroke="none" transform="scale(1,-1) translate(0,-256)" /><path d="M393 636Q408 652 422.5 669.0Q437 686 450 704Q452 708 460.0 721.5Q468 735 477.0 743.5Q486 752 492 741Q494 736 494 728Q492 702 476.5 679.0Q461 656 440 639Q431 631 420.0 625.0Q409 619 397 617Q391 616 389 618Q384 622 386 628Q388 631 393 636Z" fill="#b9e4ea" stroke="none" transform="scale(1,-1) translate(0,-256)" /></svg>