<?xml version="1.0" encoding="utf-8" ?>
<svg baseProfile="full" height="256" version="1.1" width="256" xmlns="http://www.w3.org/2000/svg" xmlns:ev="http://www.w3.org/2001/xml-events" xmlns:xlink="http://www.w3.org/1999/xlink"><defs /><path d="M258 463 176 546Q170 551 171 559Q171 560 171.0 560.0Q171 560 171 560Q172 570 183 573Q183 573 204.0 584.0Q225 595 256.0 616.5Q287 638 317 668Q348 699 369.5 729.0Q391 759 403.0 779.5Q415 800 415 800Q418 810 428 812Q430 812 433 813Q440 813 446 808L526 728Q534 719 532 707Q532 707 522.5 685.5Q513 664 491.0 629.5Q469 595 431 557Q393 519 357.5 497.0Q322 475 300.0 466.0Q278 457 278 457Q266 455 258 463Z" fill="#94d1e0" stroke="none" transform="scale(1,-1) translate(0,-256)" /></svg>