<?xml version="1.0" encoding="utf-8" ?>
<svg baseProfile="full" height="256" version="1.1" width="256" xmlns="http://www.w3.org/2000/svg" xmlns:ev="http://www.w3.org/2001/xml-events" xmlns:xlink="http://www.w3.org/1999/xlink"><defs /><path d="M407 64 240 57Q240 57 240.0 47.5Q240 38 240.0 25.5Q240 13 240 6Q240 -6 244.0 -15.0Q248 -24 259 -24Q261 -24 293.0 -24.0Q325 -24 377.5 -24.0Q430 -24 494.5 -24.0Q559 -24 628.0 -24.0Q697 -24 761.5 -24.0Q826 -24 879.0 -24.0Q932 -24 964.0 -24.0Q996 -24 999 -24Q1020 -24 1020 -3Q1020 9 1020.0 27.0Q1020 45 1020 45L862 64Q862 64 862.0 98.0Q862 132 861.5 189.5Q861 247 861.0 319.0Q861 391 860.5 467.5Q860 544 860.0 617.0Q860 690 860.0 749.5Q860 809 860.0 845.5Q860 882 860 885Q860 913 835 915Q831 916 801.0 916.0Q771 916 726.5 916.0Q682 916 632.0 916.0Q582 916 537.5 916.0Q493 916 462.5 916.0Q432 916 428 915Q415 914 409.5 905.0Q404 896 404 883Q404 880 404.0 843.5Q404 807 404.5 748.0Q405 689 405.0 616.5Q405 544 405.5 467.0Q406 390 406.5 318.5Q407 247 407.0 189.5Q407 132 407.0 98.0Q407 64 407 64Z" fill="#f1edec" stroke="none" transform="scale(1,-1) translate(0,-256)" /></svg>