<?xml version="1.0" encoding="utf-8" ?>
<svg baseProfile="full" height="256" version="1.1" width="256" xmlns="http://www.w3.org/2000/svg" xmlns:ev="http://www.w3.org/2001/xml-events" xmlns:xlink="http://www.w3.org/1999/xlink"><defs /><path d="M78 67 612 55 1199 66Q1199 66 1199.0 98.0Q1199 130 1199.0 183.5Q1199 237 1199.0 300.5Q1199 364 1199.0 428.5Q1199 493 1199.0 547.5Q1199 602 1199.0 637.0Q1199 672 1199 675Q1198 688 1194.0 697.0Q1190 706 1174 706Q1172 707 1134.5 707.0Q1097 707 1034.5 707.0Q972 707 893.0 707.0Q814 707 726.0 707.0Q638 707 550.5 706.5Q463 706 384.0 706.0Q305 706 242.5 706.0Q180 706 143.0 706.0Q106 706 103 706Q92 706 85.0 702.0Q78 698 78 683Q78 680 78.0 644.5Q78 609 78.0 554.0Q78 499 78.0 433.5Q78 368 78.0 303.5Q78 239 78.0 185.5Q78 132 78.0 99.5Q78 67 78 67Z" fill="#bacfd4" stroke="none" transform="scale(1,-1) translate(0,-256)" /></svg>