<?xml version="1.0" encoding="utf-8" ?>
<svg baseProfile="full" height="256" version="1.1" width="256" xmlns="http://www.w3.org/2000/svg" xmlns:ev="http://www.w3.org/2001/xml-events" xmlns:xlink="http://www.w3.org/1999/xlink"><defs /><path d="M666 -190Q691 -190 715.0 -190.0Q739 -190 761 -190H789Q807 -190 848.0 -188.5Q889 -187 938.5 -181.5Q988 -176 1030 -164Q1076 -151 1100.5 -123.5Q1125 -96 1136.0 -60.0Q1147 -24 1151 12Q1154 38 1157.0 79.0Q1160 120 1162.0 168.0Q1164 216 1165.0 264.0Q1166 312 1165 352Q1165 369 1164.5 390.5Q1164 412 1163 436Q1162 477 1160.5 525.5Q1159 574 1159 620Q1158 756 1096 820Q1068 849 1020.0 866.5Q972 884 918 886Q873 888 828.5 886.5Q784 885 743 883Q720 882 699.5 881.5Q679 881 663 881Q648 881 632.5 881.0Q617 881 601 881Q532 881 456.5 880.5Q381 880 306 874Q251 869 216.0 850.5Q181 832 161.5 806.0Q142 780 133.0 753.0Q124 726 122 704Q119 677 117.0 639.0Q115 601 113.5 560.5Q112 520 111.0 484.5Q110 449 109.5 426.0Q109 403 109 400Q109 272 112.0 182.0Q115 92 122 13Q127 -45 152.0 -81.5Q177 -118 210.5 -138.0Q244 -158 276.0 -166.5Q308 -175 325 -179Q350 -183 404.0 -185.5Q458 -188 527.0 -189.0Q596 -190 666 -190ZM147 400Q147 402 147.5 424.5Q148 447 149.0 482.5Q150 518 151.5 558.5Q153 599 155.0 636.5Q157 674 160 700Q163 728 176.5 757.5Q190 787 221.5 808.5Q253 830 309 835Q383 842 458.0 842.5Q533 843 600 843Q633 842 663 842Q680 842 700.5 843.0Q721 844 745 845Q785 847 829.0 848.0Q873 849 916 848Q963 846 1004.5 831.0Q1046 816 1068 793Q1119 741 1120 620Q1121 573 1122.0 524.5Q1123 476 1125 435Q1125 411 1126.0 389.5Q1127 368 1127 352Q1127 312 1126.5 265.0Q1126 218 1123.5 170.5Q1121 123 1118.5 82.5Q1116 42 1113 17Q1106 -38 1087.5 -75.5Q1069 -113 1020 -127Q988 -136 947.5 -141.5Q907 -147 865.5 -149.0Q824 -151 789 -151H761Q734 -151 688.5 -151.5Q643 -152 590.0 -151.5Q537 -151 485.0 -150.0Q433 -149 392.5 -147.0Q352 -145 333 -141Q295 -134 257.0 -118.5Q219 -103 192.0 -71.5Q165 -40 160 16Q153 94 150.0 183.5Q147 273 147 400Z" fill="#858585" stroke="none" transform="scale(1,-1) translate(0,-256)" /></svg>