<?xml version="1.0" encoding="utf-8" ?>
<svg baseProfile="full" height="256" version="1.1" width="256" xmlns="http://www.w3.org/2000/svg" xmlns:ev="http://www.w3.org/2001/xml-events" xmlns:xlink="http://www.w3.org/1999/xlink"><defs /><path d="M649 839Q668 839 705.0 836.5Q742 834 790.5 821.5Q839 809 892.5 781.0Q946 753 997 701Q1047 652 1075.0 602.0Q1103 552 1116.5 510.5Q1130 469 1133.5 444.0Q1137 419 1137 419L898 407Q898 407 888.5 438.5Q879 470 848 510Q829 535 807.5 550.0Q786 565 771.5 573.0Q757 581 757 584Q757 587 757.0 608.5Q757 630 756.5 656.5Q756 683 755.5 703.0Q755 723 755 723Q755 723 734.5 725.5Q714 728 684.0 731.0Q654 734 623.5 734.5Q593 735 571.5 731.0Q550 727 548 715Q544 696 545.0 666.5Q546 637 547.0 613.0Q548 589 546 587Q543 584 528.5 578.5Q514 573 494.0 561.5Q474 550 455 527Q435 505 423.0 482.0Q411 459 405.5 443.5Q400 428 400 428Q400 428 382.5 415.0Q365 402 337.0 383.5Q309 365 277.5 348.0Q246 331 218.0 321.5Q190 312 172.0 317.5Q154 323 153 351Q150 435 180.0 519.5Q210 604 294 693Q336 738 384.5 767.0Q433 796 482.0 811.5Q531 827 574.0 833.5Q617 840 649 839Z" fill="#ff3d00" stroke="none" transform="scale(1,-1) translate(0,-256)" /><path d="M193 244Q193 244 198.5 215.0Q204 186 223.0 139.5Q242 93 282 41Q317 -3 359.0 -30.5Q401 -58 439.0 -73.0Q477 -88 501.5 -93.5Q526 -99 526 -99Q526 -99 525.0 -77.0Q524 -55 530 -3Q536 49 547.0 75.0Q558 101 558 101Q558 101 530.0 113.0Q502 125 469 158Q437 190 423.0 215.0Q409 240 409 240Q409 240 384.5 242.5Q360 245 310 248Q260 251 226.5 247.5Q193 244 193 244Z" fill="#ff3d00" stroke="none" transform="scale(1,-1) translate(0,-256)" /><path d="M882 243Q882 242 909.0 250.0Q936 258 994 255Q1053 252 1080.0 241.0Q1107 230 1107 230Q1107 230 1101.0 201.5Q1095 173 1072.0 126.0Q1049 79 996 23Q963 -11 923.0 -35.5Q883 -60 846.5 -74.5Q810 -89 786.5 -96.0Q763 -103 763 -103Q763 -103 762.0 -75.5Q761 -48 758 -18Q757 2 751.0 29.0Q745 56 740.0 76.5Q735 97 735 97Q735 97 748.5 102.0Q762 107 782.0 118.0Q802 129 821 147Q840 165 853.5 187.5Q867 210 874.5 226.5Q882 243 882 243Z" fill="#ff3d00" stroke="none" transform="scale(1,-1) translate(0,-256)" /></svg>