<?xml version="1.0" encoding="utf-8" ?>
<svg baseProfile="full" height="256" version="1.1" width="256" xmlns="http://www.w3.org/2000/svg" xmlns:ev="http://www.w3.org/2001/xml-events" xmlns:xlink="http://www.w3.org/1999/xlink"><defs /><path d="M1139 445Q1154 398 1153.5 346.5Q1153 295 1145 248Q1131 163 1093.5 95.0Q1056 27 1007.5 -23.5Q959 -74 912.0 -105.5Q865 -137 831 -149Q825 -151 821.0 -145.0Q817 -139 822 -134Q837 -120 853.5 -101.0Q870 -82 877.5 -65.5Q885 -49 874 -43Q865 -38 850.0 -40.5Q835 -43 819.5 -49.0Q804 -55 794 -58Q756 -70 724.0 -79.0Q692 -88 654.0 -89.5Q616 -91 559 -81Q540 -77 516.0 -67.5Q492 -58 469.0 -50.0Q446 -42 429.0 -41.0Q412 -40 406 -53Q404 -58 411.0 -71.0Q418 -84 427 -97Q432 -105 426.5 -112.0Q421 -119 412 -116Q384 -107 335.0 -78.5Q286 -50 224 11Q195 40 181.5 81.5Q168 123 177 159Q183 187 206.5 205.5Q230 224 260.5 235.5Q291 247 319.0 253.0Q347 259 361 261Q633 308 861 463Q899 489 937.0 516.0Q975 543 1022 547Q1051 548 1074.5 533.0Q1098 518 1115.0 494.5Q1132 471 1139 445Z" fill="#002691" stroke="none" transform="scale(1,-1) translate(0,-256)" /></svg>