<?xml version="1.0" encoding="utf-8" ?>
<svg baseProfile="full" height="256" version="1.1" width="256" xmlns="http://www.w3.org/2000/svg" xmlns:ev="http://www.w3.org/2001/xml-events" xmlns:xlink="http://www.w3.org/1999/xlink"><defs /><path d="M329 341Q329 253 357.0 182.5Q385 112 446.0 67.5Q507 23 605 12Q677 4 741.5 29.5Q806 55 854.5 103.0Q903 151 927.5 213.0Q952 275 944 341Q935 418 906.5 481.5Q878 545 835.0 591.5Q792 638 739.5 664.0Q687 690 630 690Q573 690 519.0 660.5Q465 631 422.5 581.5Q380 532 354.5 469.5Q329 407 329 341Z" fill="#f5f5f5" stroke="none" transform="scale(1,-1) translate(0,-256)" /></svg>