<?xml version="1.0" encoding="utf-8" ?>
<svg baseProfile="full" height="256" version="1.1" width="256" xmlns="http://www.w3.org/2000/svg" xmlns:ev="http://www.w3.org/2001/xml-events" xmlns:xlink="http://www.w3.org/1999/xlink"><defs /><path d="M455 127Q476 122 525.5 115.5Q575 109 647.0 110.0Q719 111 809 128V-71Q809 -116 787.0 -152.5Q765 -189 728.5 -211.0Q692 -233 647 -233H616Q572 -233 535.5 -211.0Q499 -189 477.0 -152.5Q455 -116 455 -71Z" fill="#05e005" stroke="none" transform="scale(1,-1) translate(0,-256)" /><path d="M625 153Q672 153 718.0 155.0Q764 157 809 161V128Q719 111 647.0 110.0Q575 109 525.5 115.5Q476 122 455 127V160Q538 153 625 153Z" fill="#05e005" stroke="none" transform="scale(1,-1) translate(0,-256)" /></svg>