<?xml version="1.0" encoding="utf-8" ?>
<svg baseProfile="full" height="256" version="1.1" width="256" xmlns="http://www.w3.org/2000/svg" xmlns:ev="http://www.w3.org/2001/xml-events" xmlns:xlink="http://www.w3.org/1999/xlink"><defs /><path d="M164 79Q164 80 166 77Q167 76 167.5 75.0Q168 74 169 73Q168 74 166.5 76.0Q165 78 164 79Z" fill="#eb8f00" stroke="none" transform="scale(1,-1) translate(0,-256)" /><path d="M1157 333H1178Q1178 328 1177.5 322.5Q1177 317 1177 312Q1177 310 1176.5 308.5Q1176 307 1176 305Q1176 301 1175.5 296.0Q1175 291 1174 287Q1174 284 1173 278Q1173 273 1172.0 269.0Q1171 265 1171 261Q1170 258 1169.5 255.5Q1169 253 1169 251Q1168 247 1167.0 243.0Q1166 239 1166 235Q1164 229 1163 224Q1162 221 1161.0 217.0Q1160 213 1159 210Q1159 207 1158.0 204.0Q1157 201 1156 199Q1155 195 1154.0 191.5Q1153 188 1152 185Q1150 177 1148 174Q1147 169 1143 160Q1141 153 1139 149Q1136 142 1134 137Q1132 133 1129 126Q1127 122 1125.5 119.0Q1124 116 1123 113Q1121 111 1119.5 108.0Q1118 105 1117 102Q1115 100 1113.5 97.0Q1112 94 1111 91Q1109 88 1107.5 85.5Q1106 83 1104 80Q1102 77 1100.5 74.5Q1099 72 1097 69Q1096 67 1094.0 64.0Q1092 61 1090 58Q1086 53 1083 48Q1079 43 1074 37Q1073 35 1071.0 32.5Q1069 30 1067 28Q1065 25 1062.5 22.0Q1060 19 1058 17Q1056 15 1054.0 13.0Q1052 11 1050 9Q1048 5 1045.0 2.0Q1042 -1 1039 -4Q1035 -8 1032 -10Q1023 -20 1013 -28Q939 -93 841.0 -128.5Q743 -164 635 -164Q627 -164 619.5 -163.5Q612 -163 605 -163Q602 -163 596 -163Q584 -162 572 -161Q570 -160 568.5 -160.0Q567 -160 565 -160Q549 -158 536 -156Q534 -156 528 -155Q522 -154 516.5 -152.5Q511 -151 505 -150Q503 -150 500.5 -149.5Q498 -149 496 -148Q489 -146 481.5 -144.5Q474 -143 467 -141Q466 -140 463 -140Q452 -136 438 -132Q436 -131 433.5 -130.0Q431 -129 429 -129Q417 -124 407 -120Q405 -120 403.5 -119.0Q402 -118 400 -118Q386 -112 373 -106Q371 -105 368.5 -103.5Q366 -102 364 -101Q359 -99 354.5 -96.5Q350 -94 346 -91Q343 -90 341.0 -89.0Q339 -88 336 -86Q325 -80 312 -71Q310 -70 308.0 -68.5Q306 -67 304 -66Q300 -63 295.5 -60.0Q291 -57 287 -54Q281 -49 277 -47Q270 -41 261 -33Q259 -31 256.5 -29.0Q254 -27 252 -25Q243 -18 234 -8Q229 -3 225 1Q218 9 212 15Q210 17 208.0 19.5Q206 22 204 25Q195 35 187 47Q185 49 183.0 52.0Q181 55 179 58Q174 64 169 73Q168 74 166 77Q218 5 291.0 -42.0Q364 -89 448.0 -112.5Q532 -136 616 -136Q724 -136 822.0 -100.5Q920 -65 995 0Q1139 128 1157 333Z" fill="#eb8f00" stroke="none" transform="scale(1,-1) translate(0,-256)" /><path d="M1177 312Q1177 317 1177.5 322.5Q1178 328 1178 333Q1178 324 1177 312Z" fill="#eb8f00" stroke="none" transform="scale(1,-1) translate(0,-256)" /></svg>