<?xml version="1.0" encoding="utf-8" ?>
<svg baseProfile="full" height="256" version="1.1" width="256" xmlns="http://www.w3.org/2000/svg" xmlns:ev="http://www.w3.org/2001/xml-events" xmlns:xlink="http://www.w3.org/1999/xlink"><defs /><path d="M768 -34Q768 -8 750.5 17.5Q733 43 703.5 59.5Q674 76 639 76Q603 76 573.5 59.5Q544 43 526.5 17.5Q509 -8 509 -34Q509 -73 547.0 -95.0Q585 -117 639 -117Q692 -117 730.0 -95.0Q768 -73 768 -34Z" fill="#422b0d" stroke="none" transform="scale(1,-1) translate(0,-256)" /><path d="M490 246Q490 272 471.5 290.5Q453 309 428 309Q402 309 383.5 290.5Q365 272 365 246Q365 219 383.5 200.5Q402 182 428 182Q453 182 471.5 200.5Q490 219 490 246Z" fill="#422b0d" stroke="none" transform="scale(1,-1) translate(0,-256)" /><path d="M912.0619964599609 245.25Q912.0619964599609 271.25 893.5619964599609 289.75Q875.0619964599609 308.25 850.0619964599609 308.25Q824.0619964599609 308.25 805.5619964599609 289.75Q787.0619964599609 271.25 787.0619964599609 245.25Q787.0619964599609 218.25 805.5619964599609 199.75Q824.0619964599609 181.25 850.0619964599609 181.25Q875.0619964599609 181.25 893.5619964599609 199.75Q912.0619964599609 218.25 912.0619964599609 245.25Z" fill="#422b0d" stroke="none" transform="scale(1,-1) translate(0,-256)" /></svg>