<?xml version="1.0" encoding="utf-8" ?>
<svg baseProfile="full" height="256" version="1.1" width="256" xmlns="http://www.w3.org/2000/svg" xmlns:ev="http://www.w3.org/2001/xml-events" xmlns:xlink="http://www.w3.org/1999/xlink"><defs /><path d="M1004 383Q1017 371 1032.0 358.5Q1047 346 1063 333H207Q232 353 258.5 374.5Q285 396 297 406Q273 417 235.0 428.5Q197 440 159.5 450.0Q122 460 96.5 466.5Q71 473 71 473L297 517Q297 517 280.5 529.0Q264 541 238.5 559.5Q213 578 185.0 598.5Q157 619 133.5 636.0Q110 653 99 662Q117 661 147.5 659.0Q178 657 212.0 655.5Q246 654 275.0 652.5Q304 651 319 651Q311 673 297.5 701.5Q284 730 270.5 757.0Q257 784 248.0 801.5Q239 819 239 819Q239 819 260.5 809.5Q282 800 315.0 786.5Q348 773 383.5 760.0Q419 747 447 741Q447 754 445.0 781.0Q443 808 439.5 837.0Q436 866 433.5 886.5Q431 907 431 907Q431 907 443.0 890.5Q455 874 472.5 850.5Q490 827 507.5 805.5Q525 784 536 776Q549 796 565.5 818.5Q582 841 597.5 861.0Q613 881 623.0 893.5Q633 906 633 906Q633 906 644.5 892.0Q656 878 673.0 857.0Q690 836 708.5 812.0Q727 788 740 767Q752 776 768.5 791.5Q785 807 800.5 823.0Q816 839 826.0 850.0Q836 861 836 861Q836 861 836.0 847.5Q836 834 835.5 814.5Q835 795 835.0 775.5Q835 756 835 744Q856 749 887.5 766.0Q919 783 953.5 805.5Q988 828 1018.0 849.0Q1048 870 1066.5 884.0Q1085 898 1085 898L971 621L1179 638Q1179 638 1157.5 628.0Q1136 618 1106.5 602.5Q1077 587 1051.0 572.5Q1025 558 1014 549Q1039 539 1071.0 525.0Q1103 511 1133.5 498.5Q1164 486 1184.0 478.0Q1204 470 1204 470Q1204 470 1182.5 460.5Q1161 451 1129.0 437.5Q1097 424 1063.0 409.0Q1029 394 1004 383Z" fill="#f15a24" stroke="none" transform="scale(1,-1) translate(0,-256)" /></svg>