<?xml version="1.0" encoding="utf-8" ?>
<svg baseProfile="full" height="256" version="1.1" width="256" xmlns="http://www.w3.org/2000/svg" xmlns:ev="http://www.w3.org/2001/xml-events" xmlns:xlink="http://www.w3.org/1999/xlink"><defs /><path d="M1200 -70Q1200 -21 1174.0 13.5Q1148 48 1112 48Q1075 48 1049.5 13.5Q1024 -21 1024 -70Q1024 -119 1049.5 -154.0Q1075 -189 1112 -189Q1148 -189 1174.0 -154.0Q1200 -119 1200 -70Z" fill="#f2bd72" stroke="none" transform="scale(1,-1) translate(0,-256)" /><path d="M340 5 1063 8V223Q1028 182 972.0 155.0Q916 128 848.5 112.5Q781 97 710.0 90.0Q639 83 573.0 82.0Q507 81 454.5 83.5Q402 86 371.5 88.5Q341 91 341 91Z" fill="#f2bd72" stroke="none" transform="scale(1,-1) translate(0,-256)" /><path d="M488.81199645996094 -70.0Q488.81199645996094 -21.0 462.81199645996094 13.5Q436.81199645996094 48.0 400.81199645996094 48.0Q363.81199645996094 48.0 338.31199645996094 13.5Q312.81199645996094 -21.0 312.81199645996094 -70.0Q312.81199645996094 -119.0 338.31199645996094 -154.0Q363.81199645996094 -189.0 400.81199645996094 -189.0Q436.81199645996094 -189.0 462.81199645996094 -154.0Q488.81199645996094 -119.0 488.81199645996094 -70.0Z" fill="#f2bd72" stroke="none" transform="scale(1,-1) translate(0,-256)" /><path d="M341.5765686035156 761.9267425537109Q341.5668487548828 814.4842071533203 313.67237091064453 851.4837951660156Q285.77789306640625 888.4833831787109 247.16424560546875 888.4762420654297Q207.47799682617188 888.4689025878906 180.13350677490234 851.459098815918Q152.7890167236328 814.4492950439453 152.79873657226562 761.8918304443359Q152.80845642089844 709.3343658447266 180.16673278808594 671.7983779907227Q207.52500915527344 634.2623901367188 247.2112579345703 634.2697296142578Q285.8249053955078 634.2768707275391 313.7055969238281 671.8230743408203Q341.58628845214844 709.3692779541016 341.5765686035156 761.9267425537109Z" fill="#f2bd72" stroke="none" transform="scale(1,-1) translate(0,-256)" /></svg>