<?xml version="1.0" encoding="utf-8" ?>
<svg baseProfile="full" height="256" version="1.1" width="256" xmlns="http://www.w3.org/2000/svg" xmlns:ev="http://www.w3.org/2001/xml-events" xmlns:xlink="http://www.w3.org/1999/xlink"><defs /><path d="M799 129Q793 129 788 128Q714 105 638 106Q560 105 487 128Q482 129 476 129Q457 130 449 113Q438 91 453 70Q463 55 488.5 35.5Q514 16 552.0 2.5Q590 -11 638 -11Q685 -11 723.0 2.5Q761 16 786.5 35.5Q812 55 822 70Q837 91 827 113Q818 130 799 129Z" fill="#422b0d" stroke="none" transform="scale(1,-1) translate(0,-256)" /></svg>