<?xml version="1.0" encoding="utf-8" ?>
<svg baseProfile="full" height="256" version="1.1" width="256" xmlns="http://www.w3.org/2000/svg" xmlns:ev="http://www.w3.org/2001/xml-events" xmlns:xlink="http://www.w3.org/1999/xlink"><defs /><path d="M290 411Q292 418 301.5 424.0Q311 430 321 435Q328 438 340.0 440.0Q352 442 361.5 443.0Q371 444 371 444Q371 444 373.0 423.5Q375 403 377.5 375.0Q380 347 382.5 322.0Q385 297 387 287Q390 266 400.0 259.5Q410 253 437 261Q455 266 473.0 284.0Q491 302 506.5 322.5Q522 343 533 357Q540 367 554.5 386.5Q569 406 584.5 426.5Q600 447 611.0 461.5Q622 476 622 476Q622 476 630.5 478.0Q639 480 660 475Q681 470 696.0 461.5Q711 453 711 453Q711 453 700.5 438.0Q690 423 676.0 403.5Q662 384 651 370Q643 360 627.5 340.0Q612 320 596.0 298.5Q580 277 569.5 260.5Q559 244 561 239Q562 235 579.0 235.0Q596 235 618.0 236.5Q640 238 659.5 241.0Q679 244 686 246Q693 248 712.0 253.5Q731 259 753.5 265.0Q776 271 792.0 275.0Q808 279 808 279Q808 279 815.0 269.5Q822 260 826 250Q830 239 835.0 222.0Q840 205 840 205Q840 205 818.5 200.0Q797 195 763.5 187.5Q730 180 693.0 171.0Q656 162 624.5 154.0Q593 146 575 140Q532 126 491.0 92.0Q450 58 387 -8Q345 -52 312.5 -94.5Q280 -137 261.5 -165.0Q243 -193 243 -193Q243 -193 237.5 -190.0Q232 -187 223 -181Q214 -175 209.0 -170.5Q204 -166 204 -166Q204 -166 216.0 -148.5Q228 -131 247.0 -104.0Q266 -77 287.0 -47.0Q308 -17 327.5 9.0Q347 35 359 49Q372 64 386.5 82.0Q401 100 409.0 114.5Q417 129 412 134Q403 143 382.0 121.0Q361 99 324 61Q309 46 287.5 23.0Q266 0 243.5 -25.0Q221 -50 201.0 -72.0Q181 -94 169.0 -108.0Q157 -122 157 -122Q157 -122 140.5 -103.5Q124 -85 112 -61Q107 -52 103.0 -38.0Q99 -24 96.5 -12.0Q94 0 95 2Q95 6 104.0 12.0Q113 18 127 31Q160 60 198.5 99.5Q237 139 263 171Q282 195 287.0 230.5Q292 266 292 307Q292 348 289.5 376.0Q287 404 290 411Z" fill="#b7d118" stroke="none" transform="scale(1,-1) translate(0,-256)" /></svg>