<?xml version="1.0" encoding="utf-8" ?>
<svg baseProfile="full" height="256" version="1.1" width="256" xmlns="http://www.w3.org/2000/svg" xmlns:ev="http://www.w3.org/2001/xml-events" xmlns:xlink="http://www.w3.org/1999/xlink"><defs /><path d="M300 871Q300 871 281.0 872.5Q262 874 232.5 869.0Q203 864 170.5 844.0Q138 824 111 780Q81 731 77.5 691.5Q74 652 84.0 624.0Q94 596 106.0 580.5Q118 565 118 565Q118 565 109.0 557.5Q100 550 92 520Q84 491 91.0 469.5Q98 448 98 448Q98 448 108.5 450.5Q119 453 132.5 456.0Q146 459 156 460Q165 461 178.0 455.0Q191 449 206.5 442.5Q222 436 241 437Q259 437 276.0 447.0Q293 457 311.0 469.0Q329 481 351 487Q373 493 392.5 494.0Q412 495 431.0 500.0Q450 505 472 520Q494 536 504.0 553.5Q514 571 519.0 590.5Q524 610 531 631Q541 663 567.5 676.5Q594 690 623 683Q642 678 645.0 661.5Q648 645 639.5 626.0Q631 607 614 593Q563 550 647 523Q676 514 701.5 521.0Q727 528 742.5 538.5Q758 549 758 549Q758 549 772.0 547.5Q786 546 807.5 549.0Q829 552 852 567Q876 583 888.0 604.0Q900 625 904.0 644.0Q908 663 907.5 675.5Q907 688 907 688Q907 688 918.0 689.5Q929 691 943.5 696.5Q958 702 968 713Q979 724 986.5 743.0Q994 762 995.5 780.0Q997 798 990 806Q979 817 977.0 827.5Q975 838 973 847Q971 854 959.5 873.0Q948 892 912 904Q885 913 868.0 912.0Q851 911 841.0 907.0Q831 903 823 902Q816 902 800.0 909.5Q784 917 759.0 920.5Q734 924 698 913Q672 905 657.0 890.5Q642 876 634.0 861.0Q626 846 621.5 835.5Q617 825 612 824Q604 823 600.0 830.0Q596 837 586.5 848.5Q577 860 551 871Q539 876 524.0 877.0Q509 878 498.0 876.5Q487 875 487 875Q487 875 481.5 885.0Q476 895 460.0 905.5Q444 916 412 919Q380 921 354.5 909.0Q329 897 314.5 884.0Q300 871 300 871Z" fill="#709921" stroke="none" transform="scale(1,-1) translate(0,-256)" /><path d="M785 263Q785 263 781.5 248.5Q778 234 774.5 218.0Q771 202 771 199Q771 196 779.5 180.0Q788 164 804.5 147.0Q821 130 845 124Q870 118 900.0 128.0Q930 138 957.0 153.0Q984 168 1001 177Q1026 191 1046.0 199.0Q1066 207 1066 207Q1066 207 1070.5 221.0Q1075 235 1083.5 254.5Q1092 274 1104 292Q1116 310 1131.5 318.5Q1147 327 1159.5 329.5Q1172 332 1172 332Q1172 332 1155.0 349.5Q1138 367 1119 386Q1110 396 1095.0 406.0Q1080 416 1041 418Q1002 420 970.5 418.5Q939 417 912 403Q885 389 871.5 367.5Q858 346 842 317Q825 288 805.0 275.5Q785 263 785 263Z" fill="#709921" stroke="none" transform="scale(1,-1) translate(0,-256)" /></svg>