<?xml version="1.0" encoding="utf-8" ?>
<svg baseProfile="full" height="256" version="1.1" width="256" xmlns="http://www.w3.org/2000/svg" xmlns:ev="http://www.w3.org/2001/xml-events" xmlns:xlink="http://www.w3.org/1999/xlink"><defs /><path d="M541 307Q559 318 571.5 308.0Q584 298 580 284L512 -24Q508 -45 491.0 -58.5Q474 -72 453 -72H288Q266 -72 249.5 -58.5Q233 -45 228 -24L159 284Q157 298 169.5 308.0Q182 318 200 307Q201 306 203 301L213 259Q214 251 222 252H518Q526 251 528 259L537 301Q538 305 541 307ZM237 205Q237 205 236 205Q226 203 228 193L244 123Q245 115 253 116H488Q495 116 497 123L513 193Q513 194 513 194Q513 204 503 205Z" fill="#fafafa" stroke="none" transform="scale(1,-1) translate(0,-256)" /></svg>