<?xml version="1.0" encoding="utf-8" ?>
<svg baseProfile="full" height="256" version="1.1" width="256" xmlns="http://www.w3.org/2000/svg" xmlns:ev="http://www.w3.org/2001/xml-events" xmlns:xlink="http://www.w3.org/1999/xlink"><defs /><path d="M482.0 96.5Q494.0 86.5 508.5 87.5Q523.0 88.5 533.5 99.0Q544.0 109.5 544.0 125.5V256.5Q544.0 263.5 549.5 269.5Q555.0 275.5 563.0 275.5H994.0Q1009.0 275.5 1020.0 286.5Q1031.0 297.5 1031.0 312.5V387.5Q1031.0 402.5 1020.0 414.0Q1009.0 425.5 994.0 425.5H563.0Q555.0 425.5 549.5 431.0Q544.0 436.5 544.0 443.5V575.5Q544.0 590.5 533.5 601.0Q523.0 611.5 508.5 612.5Q494.0 613.5 482.0 603.5L257.0 378.5Q244.0 366.5 244.0 350.0Q244.0 333.5 257.0 321.5Z" fill="#fafafa" stroke="none" transform="scale(1,-1) translate(0,-256)" /></svg>