<?xml version="1.0" encoding="utf-8" ?>
<svg baseProfile="full" height="256" version="1.1" width="256" xmlns="http://www.w3.org/2000/svg" xmlns:ev="http://www.w3.org/2001/xml-events" xmlns:xlink="http://www.w3.org/1999/xlink"><defs /><path d="M664 544 645 519Q645 519 631.5 532.5Q618 546 600.0 564.5Q582 583 567.0 598.0Q552 613 550 615Q548 616 522.5 627.0Q497 638 456.0 655.5Q415 673 366.0 693.5Q317 714 268.5 735.0Q220 756 180.0 773.0Q140 790 115.5 800.0Q91 810 91 810L109 831Q109 831 133.0 821.0Q157 811 197.0 794.5Q237 778 285.0 758.0Q333 738 381.0 718.0Q429 698 469.5 681.0Q510 664 535.0 653.5Q560 643 562 642Q564 640 580.0 625.0Q596 610 615.5 591.0Q635 572 649.5 558.0Q664 544 664 544Z" fill="#014eac" stroke="none" transform="scale(1,-1) translate(0,-256)" /><path d="M810 383 817 426Q817 426 829.5 410.5Q842 395 860.5 372.5Q879 350 897.5 327.0Q916 304 928.5 287.5Q941 271 942 269Q943 268 953.5 244.0Q964 220 981.0 181.0Q998 142 1017.5 96.0Q1037 50 1056.5 4.0Q1076 -42 1092.5 -80.0Q1109 -118 1119.0 -141.5Q1129 -165 1129 -165L1111 -182Q1111 -182 1101.0 -159.0Q1091 -136 1074.5 -98.5Q1058 -61 1038.0 -16.0Q1018 29 998.0 74.5Q978 120 961.0 158.0Q944 196 933.0 220.5Q922 245 921 246Q919 249 907.5 263.5Q896 278 879.5 298.0Q863 318 847.0 337.5Q831 357 820.5 370.0Q810 383 810 383Z" fill="#014eac" stroke="none" transform="scale(1,-1) translate(0,-256)" /></svg>