<?xml version="1.0" encoding="utf-8" ?>
<svg baseProfile="full" height="256" version="1.1" width="256" xmlns="http://www.w3.org/2000/svg" xmlns:ev="http://www.w3.org/2001/xml-events" xmlns:xlink="http://www.w3.org/1999/xlink"><defs /><path d="M334 35Q313 57 293.5 79.0Q274 101 257 125Q243 143 232.0 167.0Q221 191 202 205Q195 210 185.0 212.0Q175 214 167 210Q157 205 152.5 195.0Q148 185 147 175Q146 156 151.0 137.0Q156 118 165 101Q200 29 266.5 -19.0Q333 -67 410 -90Q431 -96 452.5 -99.0Q474 -102 494 -95Q457 -60 414.5 -32.0Q372 -4 336 33Q335 34 334 35Z" fill="#f5f5f5" stroke="none" transform="scale(1,-1) translate(0,-256)" /></svg>