<?xml version="1.0" encoding="utf-8" ?>
<svg baseProfile="full" height="256" version="1.1" width="256" xmlns="http://www.w3.org/2000/svg" xmlns:ev="http://www.w3.org/2001/xml-events" xmlns:xlink="http://www.w3.org/1999/xlink"><defs /><path d="M238 -102Q237 -77 253.0 -59.5Q269 -42 295 -42Q320 -42 337.5 -58.0Q355 -74 356 -98Q357 -122 342.0 -140.5Q327 -159 297 -159Q267 -159 252.5 -139.0Q238 -119 238 -102Z" fill="#c8c8c8" stroke="none" transform="scale(1,-1) translate(0,-256)" /><path d="M973.5619964599609 -96.75Q972.5619964599609 -71.75 988.5619964599609 -54.25Q1004.5619964599609 -36.75 1030.561996459961 -36.75Q1055.561996459961 -36.75 1073.061996459961 -52.75Q1090.561996459961 -68.75 1091.561996459961 -92.75Q1092.561996459961 -116.75 1077.561996459961 -135.25Q1062.561996459961 -153.75 1032.561996459961 -153.75Q1002.5619964599609 -153.75 988.0619964599609 -133.75Q973.5619964599609 -113.75 973.5619964599609 -96.75Z" fill="#c8c8c8" stroke="none" transform="scale(1,-1) translate(0,-256)" /></svg>