<?xml version="1.0" encoding="utf-8" ?>
<svg baseProfile="full" height="256" version="1.1" width="256" xmlns="http://www.w3.org/2000/svg" xmlns:ev="http://www.w3.org/2001/xml-events" xmlns:xlink="http://www.w3.org/1999/xlink"><defs /><path d="M1212 56Q1212 56 1212.0 42.5Q1212 29 1211.5 9.5Q1211 -10 1210.5 -28.0Q1210 -46 1210 -55Q1209 -73 1200.0 -85.0Q1191 -97 1182 -96Q1179 -96 1153.0 -96.0Q1127 -96 1088.0 -96.0Q1049 -96 1006.0 -96.0Q963 -96 925.0 -96.0Q887 -96 863.0 -96.0Q839 -96 839 -96Q839 -96 846.5 -74.0Q854 -52 872 -23Q890 6 912.0 24.5Q934 43 966 49Q979 52 1007.5 53.5Q1036 55 1070.5 55.5Q1105 56 1137.5 56.0Q1170 56 1191.0 56.0Q1212 56 1212 56Z" fill="#516c73" stroke="none" transform="scale(1,-1) translate(0,-256)" /><path d="M487 -95Q487 -95 460.5 -95.0Q434 -95 391.5 -94.5Q349 -94 300.0 -94.0Q251 -94 205.5 -93.5Q160 -93 128.0 -92.0Q96 -91 88 -91Q63 -89 58.0 -64.0Q53 -39 55 -8Q56 12 65.5 27.5Q75 43 83.5 52.0Q92 61 92 61Q92 61 116.5 61.0Q141 61 177.0 60.5Q213 60 247.0 59.5Q281 59 301 58Q341 57 373.5 42.5Q406 28 428 5Q443 -11 456.5 -34.5Q470 -58 478.5 -76.5Q487 -95 487 -95Z" fill="#516c73" stroke="none" transform="scale(1,-1) translate(0,-256)" /></svg>