<?xml version="1.0" encoding="utf-8" ?>
<svg baseProfile="full" height="256" version="1.1" width="256" xmlns="http://www.w3.org/2000/svg" xmlns:ev="http://www.w3.org/2001/xml-events" xmlns:xlink="http://www.w3.org/1999/xlink"><defs /><path d="M557 733 573 757H542Q542 757 536.0 752.0Q530 747 523.5 741.0Q517 735 517 733Q517 730 522.5 723.5Q528 717 534.0 711.5Q540 706 540 706H569Z" fill="#ff5b5e" stroke="none" transform="scale(1,-1) translate(0,-256)" /><path d="M610 732 596 757H624Q624 757 630.5 751.5Q637 746 643.5 740.0Q650 734 649 731Q649 729 642.5 722.5Q636 716 630.0 710.5Q624 705 624 705H599Z" fill="#ff5b5e" stroke="none" transform="scale(1,-1) translate(0,-256)" /></svg>