<?xml version="1.0" encoding="utf-8" ?>
<svg baseProfile="full" height="256" version="1.1" width="256" xmlns="http://www.w3.org/2000/svg" xmlns:ev="http://www.w3.org/2001/xml-events" xmlns:xlink="http://www.w3.org/1999/xlink"><defs /><path d="M183 -104Q182 -58 212.5 -25.0Q243 8 291 9Q343 10 376.0 -19.0Q409 -48 410 -94Q412 -124 399.0 -151.5Q386 -179 360.0 -196.0Q334 -213 296 -213Q257 -213 232.0 -195.0Q207 -177 195.0 -151.5Q183 -126 183 -104Z" fill="#4e433d" stroke="none" transform="scale(1,-1) translate(0,-256)" /><path d="M918.468994140625 -98.75Q917.468994140625 -52.75 947.968994140625 -19.75Q978.468994140625 13.25 1026.468994140625 14.25Q1078.468994140625 15.25 1111.468994140625 -13.75Q1144.468994140625 -42.75 1145.468994140625 -88.75Q1147.468994140625 -118.75 1134.468994140625 -146.25Q1121.468994140625 -173.75 1095.468994140625 -190.75Q1069.468994140625 -207.75 1031.468994140625 -207.75Q992.468994140625 -207.75 967.468994140625 -189.75Q942.468994140625 -171.75 930.468994140625 -146.25Q918.468994140625 -120.75 918.468994140625 -98.75Z" fill="#4e433d" stroke="none" transform="scale(1,-1) translate(0,-256)" /></svg>