<?xml version="1.0" encoding="utf-8" ?>
<svg baseProfile="full" height="256" version="1.1" width="256" xmlns="http://www.w3.org/2000/svg" xmlns:ev="http://www.w3.org/2001/xml-events" xmlns:xlink="http://www.w3.org/1999/xlink"><defs /><path d="M475 687Q475 687 475.0 704.5Q475 722 476 738Q477 754 489.0 764.0Q501 774 514 774Q520 775 540.0 775.0Q560 775 584.0 775.0Q608 775 628.0 774.5Q648 774 655 774Q675 773 686.0 763.5Q697 754 697 740Q697 734 697.0 721.5Q697 709 697.5 699.0Q698 689 698 689Q697 689 675.0 689.0Q653 689 620.5 689.0Q588 689 554.5 688.5Q521 688 498.5 688.0Q476 688 475 687Z" fill="#dd0f26" stroke="none" transform="scale(1,-1) translate(0,-256)" /></svg>