<?xml version="1.0" encoding="utf-8" ?>
<svg baseProfile="full" height="256" version="1.1" width="256" xmlns="http://www.w3.org/2000/svg" xmlns:ev="http://www.w3.org/2001/xml-events" xmlns:xlink="http://www.w3.org/1999/xlink"><defs /><path d="M132 604V584H1167V604Z" fill="#ffffff" stroke="none" transform="scale(1,-1) translate(0,-256)" /><path d="M108.67953491210938 759.314208984375 111.63150024414062 739.5342407226562 1135.244857788086 892.2984466552734 1132.2928924560547 912.0784149169922Z" fill="#ffffff" stroke="none" transform="scale(1,-1) translate(0,-256)" /><path d="M262 308Q252 308 252 298Q252 288 262 288H1076Q1086 288 1086 298Q1086 308 1076 308Z" fill="#ffffff" stroke="none" transform="scale(1,-1) translate(0,-256)" /><path d="M262.0 166.343994140625Q252.0 166.343994140625 252.0 156.343994140625Q252.0 146.343994140625 262.0 146.343994140625H1076.0Q1086.0 146.343994140625 1086.0 156.343994140625Q1086.0 166.343994140625 1076.0 166.343994140625Z" fill="#ffffff" stroke="none" transform="scale(1,-1) translate(0,-256)" /><path d="M262.0 24.688003540039062Q252.0 24.688003540039062 252.0 14.688003540039062Q252.0 4.6880035400390625 262.0 4.6880035400390625H1076.0Q1086.0 4.6880035400390625 1086.0 14.688003540039062Q1086.0 24.688003540039062 1076.0 24.688003540039062Z" fill="#ffffff" stroke="none" transform="scale(1,-1) translate(0,-256)" /><path d="M514 -133Q514 -143 524 -143Q533 -143 533 -133V15Q533 25 524 25Q514 25 514 15Z" fill="#ffffff" stroke="none" transform="scale(1,-1) translate(0,-256)" /></svg>