<?xml version="1.0" encoding="utf-8" ?>
<svg baseProfile="full" height="256" version="1.1" width="256" xmlns="http://www.w3.org/2000/svg" xmlns:ev="http://www.w3.org/2001/xml-events" xmlns:xlink="http://www.w3.org/1999/xlink"><defs /><path d="M151 448H186V-195Q186 -202 181.0 -207.0Q176 -212 169 -212H168Q161 -212 156.0 -207.0Q151 -202 151 -195Z" fill="#616161" stroke="none" transform="scale(1,-1) translate(0,-256)" /><path d="M368 448Q381 448 391.5 461.5Q402 475 405.0 491.5Q408 508 399 517L238 696Q220 711 199.0 711.0Q178 711 163.5 700.5Q149 690 149 674V476Q149 464 157.0 456.0Q165 448 177 448Z" fill="#616161" stroke="none" transform="scale(1,-1) translate(0,-256)" /><path d="M242.80458068847656 502.43641662597656Q242.80458068847656 506.6118927001953 241.23877716064453 510.28343200683594Q239.6729736328125 513.9549713134766 236.8833236694336 516.7446212768555Q234.0936737060547 519.5342712402344 230.42213439941406 521.1180725097656Q226.75059509277344 522.7018737792969 222.5751190185547 522.7018737792969Q218.3636474609375 522.7018737792969 214.69210815429688 521.1180725097656Q211.02056884765625 519.5342712402344 208.23091888427734 516.7446212768555Q205.44126892089844 513.9549713134766 203.8754653930664 510.28343200683594Q202.30966186523438 506.6118927001953 202.30966186523438 502.43641662597656Q202.30966186523438 498.2609405517578 203.8754653930664 494.5894012451172Q205.44126892089844 490.91786193847656 208.23091888427734 488.12821197509766Q211.02056884765625 485.33856201171875 214.69210815429688 483.7727584838867Q218.3636474609375 482.2069549560547 222.5751190185547 482.2069549560547Q226.75059509277344 482.2069549560547 230.42213439941406 483.7727584838867Q234.0936737060547 485.33856201171875 236.8833236694336 488.12821197509766Q239.6729736328125 490.91786193847656 241.23877716064453 494.5894012451172Q242.80458068847656 498.2609405517578 242.80458068847656 502.43641662597656Z" fill="#616161" stroke="none" transform="scale(1,-1) translate(0,-256)" /><path d="M242.80458068847656 628.9044189453125Q242.80458068847656 633.0798950195312 241.23877716064453 636.7514343261719Q239.6729736328125 640.4229736328125 236.8833236694336 643.2126235961914Q234.0936737060547 646.0022735595703 230.42213439941406 647.5860748291016Q226.75059509277344 649.1698760986328 222.5751190185547 649.1698760986328Q218.3636474609375 649.1698760986328 214.69210815429688 647.5860748291016Q211.02056884765625 646.0022735595703 208.23091888427734 643.2126235961914Q205.44126892089844 640.4229736328125 203.8754653930664 636.7514343261719Q202.30966186523438 633.0798950195312 202.30966186523438 628.9044189453125Q202.30966186523438 624.7289428710938 203.8754653930664 621.0574035644531Q205.44126892089844 617.3858642578125 208.23091888427734 614.5962142944336Q211.02056884765625 611.8065643310547 214.69210815429688 610.2407608032227Q218.3636474609375 608.6749572753906 222.5751190185547 608.6749572753906Q226.75059509277344 608.6749572753906 230.42213439941406 610.2407608032227Q234.0936737060547 611.8065643310547 236.8833236694336 614.5962142944336Q239.6729736328125 617.3858642578125 241.23877716064453 621.0574035644531Q242.80458068847656 624.7289428710938 242.80458068847656 628.9044189453125Z" fill="#616161" stroke="none" transform="scale(1,-1) translate(0,-256)" /><path d="M383.5235900878906 502.43641662597656Q383.5235900878906 506.6118927001953 381.9577865600586 510.28343200683594Q380.39198303222656 513.9549713134766 377.60233306884766 516.7446212768555Q374.81268310546875 519.5342712402344 371.1411437988281 521.1180725097656Q367.4696044921875 522.7018737792969 363.29412841796875 522.7018737792969Q359.08265686035156 522.7018737792969 355.41111755371094 521.1180725097656Q351.7395782470703 519.5342712402344 348.9499282836914 516.7446212768555Q346.1602783203125 513.9549713134766 344.59447479248047 510.28343200683594Q343.02867126464844 506.6118927001953 343.02867126464844 502.43641662597656Q343.02867126464844 498.2609405517578 344.59447479248047 494.5894012451172Q346.1602783203125 490.91786193847656 348.9499282836914 488.12821197509766Q351.7395782470703 485.33856201171875 355.41111755371094 483.7727584838867Q359.08265686035156 482.2069549560547 363.29412841796875 482.2069549560547Q367.4696044921875 482.2069549560547 371.1411437988281 483.7727584838867Q374.81268310546875 485.33856201171875 377.60233306884766 488.12821197509766Q380.39198303222656 490.91786193847656 381.9577865600586 494.5894012451172Q383.5235900878906 498.2609405517578 383.5235900878906 502.43641662597656Z" fill="#616161" stroke="none" transform="scale(1,-1) translate(0,-256)" /></svg>