<?xml version="1.0" encoding="utf-8" ?>
<svg baseProfile="full" height="256" version="1.1" width="256" xmlns="http://www.w3.org/2000/svg" xmlns:ev="http://www.w3.org/2001/xml-events" xmlns:xlink="http://www.w3.org/1999/xlink"><defs /><path d="M1125 -212Q1135 -212 1141.5 -205.5Q1148 -199 1148 -190V448H150V-190Q150 -199 157.0 -205.5Q164 -212 173 -212Z" fill="#424242" stroke="none" transform="scale(1,-1) translate(0,-256)" /><path d="M670 604H819L662 448H513Z" fill="#424242" stroke="none" transform="scale(1,-1) translate(0,-256)" /><path d="M932.875 604.0H1081.875L924.875 448.0H775.875Z" fill="#424242" stroke="none" transform="scale(1,-1) translate(0,-256)" /><path d="M409 604H554V600L402 448H252Z" fill="#424242" stroke="none" transform="scale(1,-1) translate(0,-256)" /><path d="M1167 571V448H1043Z" fill="#424242" stroke="none" transform="scale(1,-1) translate(0,-256)" /><path d="M663.6518707275391 684.11669921875 811.1013031005859 706.0633697509766 632.7574005126953 837.31494140625 485.30796813964844 815.3682708740234Z" fill="#424242" stroke="none" transform="scale(1,-1) translate(0,-256)" /><path d="M923.1634521484375 723.1187744140625 1070.5696868896484 745.1109161376953 892.2236938476562 876.2693481445312 744.8174591064453 854.2772064208984Z" fill="#424242" stroke="none" transform="scale(1,-1) translate(0,-256)" /><path d="M405.9538879394531 645.7529754638672 549.4029083251953 667.0817108154297 548.8148956298828 671.0389251708984 376.0962677001953 799.0546722412109 227.7007293701172 776.9904632568359Z" fill="#424242" stroke="none" transform="scale(1,-1) translate(0,-256)" /><path d="M1150.5865478515625 790.4009094238281 1132.469497680664 912.0608520507812 1009.8204498291016 893.7832641601562Z" fill="#424242" stroke="none" transform="scale(1,-1) translate(0,-256)" /><path d="M129 740 148 607 281 627Z" fill="#424242" stroke="none" transform="scale(1,-1) translate(0,-256)" /><path d="M383 448Q402 448 414.0 460.5Q426 473 427.0 490.5Q428 508 414 522L246 690Q232 704 214.5 703.0Q197 702 184.0 690.5Q171 679 171 659V490Q171 472 183.5 460.0Q196 448 213 448Z" fill="#424242" stroke="none" transform="scale(1,-1) translate(0,-256)" /></svg>