<?xml version="1.0" encoding="utf-8" ?>
<svg baseProfile="full" height="256" version="1.1" width="256" xmlns="http://www.w3.org/2000/svg" xmlns:ev="http://www.w3.org/2001/xml-events" xmlns:xlink="http://www.w3.org/1999/xlink"><defs /><path d="M453 146Q453 154 465.0 159.0Q477 164 493.5 168.0Q510 172 523 175Q537 179 554.0 185.0Q571 191 584.0 193.5Q597 196 599 188Q602 177 574.5 158.5Q547 140 509 133Q483 128 468.0 133.0Q453 138 453 146Z" fill="#768040" stroke="none" transform="scale(1,-1) translate(0,-256)" /><path d="M485 90Q488 98 513.0 99.0Q538 100 578 108Q619 115 638.0 124.0Q657 133 661 133Q672 131 677.0 121.5Q682 112 682 107Q681 103 664.0 94.5Q647 86 627.5 78.0Q608 70 600 68Q588 66 577.0 64.5Q566 63 549 62Q532 62 512.5 62.5Q493 63 487 66Q481 69 481.5 77.0Q482 85 485 90Z" fill="#768040" stroke="none" transform="scale(1,-1) translate(0,-256)" /><path d="M528 -1Q530 9 538.5 9.0Q547 9 554 9Q582 10 604.5 11.5Q627 13 649 15Q692 19 716.5 25.0Q741 31 750 27Q759 24 759.0 16.5Q759 9 753 4Q746 -2 721.0 -13.0Q696 -24 665 -26Q632 -29 600.0 -27.0Q568 -25 552 -24Q537 -22 531.5 -15.5Q526 -9 528 -1Z" fill="#768040" stroke="none" transform="scale(1,-1) translate(0,-256)" /><path d="M739 164Q736 170 737.5 173.5Q739 177 742 179Q745 182 754.0 188.5Q763 195 769 195Q777 196 794.0 192.5Q811 189 834 177Q857 166 878.5 149.5Q900 133 910 120Q921 107 923.5 93.0Q926 79 919 73Q913 68 903.5 70.5Q894 73 888 81Q872 106 845.0 125.5Q818 145 803 154Q791 161 777.5 160.5Q764 160 753.0 159.5Q742 159 739 164Z" fill="#768040" stroke="none" transform="scale(1,-1) translate(0,-256)" /><path d="M950 472Q962 476 972.0 465.0Q982 454 989.5 434.5Q997 415 999 395Q1002 374 1002.5 348.0Q1003 322 1002.0 301.0Q1001 280 999 273Q997 262 990.5 257.5Q984 253 979 254Q968 258 970 276Q971 283 970.5 299.0Q970 315 968.5 334.5Q967 354 964 369Q961 391 955.0 413.0Q949 435 947 442Q946 449 943.5 459.5Q941 470 950 472Z" fill="#768040" stroke="none" transform="scale(1,-1) translate(0,-256)" /><path d="M622 414Q625 428 653 429Q666 429 687.0 411.5Q708 394 737 363Q767 332 779.0 308.0Q791 284 794 274Q797 265 797.5 252.0Q798 239 792 237Q786 235 781.0 241.0Q776 247 770 257Q764 267 757.5 277.0Q751 287 751 287Q751 287 742.5 294.0Q734 301 731 304Q723 313 697 341Q684 356 670.5 366.0Q657 376 647 386Q636 397 628.0 400.5Q620 404 622 414Z" fill="#768040" stroke="none" transform="scale(1,-1) translate(0,-256)" /><path d="M423 504Q428 503 437.5 491.5Q447 480 457.5 464.5Q468 449 476 437Q489 419 502.0 403.0Q515 387 518 383Q522 379 528.0 373.5Q534 368 532 363Q529 354 519.5 355.0Q510 356 504 359Q498 362 481.0 373.0Q464 384 443 405Q396 453 393 465Q392 471 395.5 482.0Q399 493 401 495Q404 498 409.5 502.0Q415 506 423 504Z" fill="#768040" stroke="none" transform="scale(1,-1) translate(0,-256)" /><path d="M266 535Q279 532 277.5 520.0Q276 508 275 501Q275 494 274.5 470.0Q274 446 278 411Q281 376 289.0 345.0Q297 314 301 301Q305 288 303.0 281.5Q301 275 296 273Q292 270 285.5 276.0Q279 282 273 292Q265 306 257.0 329.5Q249 353 245 379Q241 412 239.5 445.5Q238 479 241 500Q243 515 250.5 525.5Q258 536 266 535Z" fill="#768040" stroke="none" transform="scale(1,-1) translate(0,-256)" /><path d="M219 314Q224 316 231.0 305.5Q238 295 246.5 279.0Q255 263 266 251Q282 232 301.5 220.5Q321 209 325 206Q328 203 328.5 197.0Q329 191 329 185Q329 179 322.5 175.5Q316 172 309 172Q303 171 284.0 187.0Q265 203 246 225Q227 246 214.5 265.0Q202 284 201 289Q200 293 207.5 302.5Q215 312 219 314Z" fill="#768040" stroke="none" transform="scale(1,-1) translate(0,-256)" /><path d="M721 710Q729 715 741 709Q747 705 760.5 686.5Q774 668 782 655Q787 646 794.5 631.0Q802 616 808.0 601.0Q814 586 815 579Q818 566 816.0 556.5Q814 547 810 542Q806 537 800.0 539.0Q794 541 792 545Q789 550 779.0 574.0Q769 598 755 620Q741 641 731.5 655.0Q722 669 715 679Q708 689 711.5 697.5Q715 706 721 710Z" fill="#768040" stroke="none" transform="scale(1,-1) translate(0,-256)" /><path d="M799 697Q803 701 808.0 698.5Q813 696 816 692Q820 689 834.0 671.5Q848 654 855 634Q860 619 863.5 602.5Q867 586 867 580Q868 571 865.5 568.0Q863 565 858 564Q849 562 845 577Q844 581 840.0 594.5Q836 608 830 624Q823 641 815.5 653.5Q808 666 803 672Q798 679 795.5 686.0Q793 693 799 697Z" fill="#768040" stroke="none" transform="scale(1,-1) translate(0,-256)" /></svg>