<?xml version="1.0" encoding="utf-8" ?>
<svg baseProfile="full" height="256" version="1.1" width="256" xmlns="http://www.w3.org/2000/svg" xmlns:ev="http://www.w3.org/2001/xml-events" xmlns:xlink="http://www.w3.org/1999/xlink"><defs /><path d="M422 693Q460 718 517.0 736.5Q574 755 646.5 753.5Q719 752 803 718Q867 692 914.0 647.5Q961 603 992.0 547.5Q1023 492 1037.0 431.0Q1051 370 1048 312Q1046 265 1028.5 212.5Q1011 160 979.0 110.5Q947 61 900.0 20.5Q853 -20 792.0 -43.0Q731 -66 656 -65Q530 -63 445.0 -15.5Q360 32 309.5 110.0Q259 188 237 282Q220 355 234.0 420.5Q248 486 280.5 539.5Q313 593 351.5 632.5Q390 672 422 693Z" fill="#f2ab47" stroke="none" transform="scale(1,-1) translate(0,-256)" /></svg>