<?xml version="1.0" encoding="utf-8" ?>
<svg baseProfile="full" height="256" version="1.1" width="256" xmlns="http://www.w3.org/2000/svg" xmlns:ev="http://www.w3.org/2001/xml-events" xmlns:xlink="http://www.w3.org/1999/xlink"><defs /><path d="M567 524Q567 524 583.0 535.0Q599 546 621.5 560.0Q644 574 663.0 584.0Q682 594 687 591Q698 587 701.5 581.5Q705 576 706 569Q706 561 692.0 551.5Q678 542 668 532Q661 526 644.0 510.0Q627 494 609.5 479.5Q592 465 586 461Q577 454 562.5 447.0Q548 440 535 446Q526 450 527.5 466.0Q529 482 533.5 497.0Q538 512 538 512Z" fill="#a05c3c" stroke="none" transform="scale(1,-1) translate(0,-256)" /><path d="M378 618 342 566Q342 566 344.0 552.5Q346 539 348.0 525.0Q350 511 350 508Q350 504 354.0 497.5Q358 491 360 490Q362 488 372.0 488.0Q382 488 387 490Q391 492 395.5 495.5Q400 499 405 509Q408 515 408.5 532.0Q409 549 408.0 565.5Q407 582 406 589Q405 600 404.0 608.5Q403 617 393 619Q382 621 380.0 619.5Q378 618 378 618Z" fill="#a05c3c" stroke="none" transform="scale(1,-1) translate(0,-256)" /><path d="M503 272 617 314Q617 314 627.5 308.0Q638 302 650.0 295.0Q662 288 667 285Q673 280 681.0 270.5Q689 261 689 249Q690 222 668 213Q657 209 630.5 209.0Q604 209 577 213Q551 217 533.0 224.0Q515 231 505 238Q496 245 499.5 258.5Q503 272 503 272Z" fill="#a05c3c" stroke="none" transform="scale(1,-1) translate(0,-256)" /><path d="M844 500Q844 500 859.5 506.0Q875 512 895.5 520.0Q916 528 932.0 532.5Q948 537 950 534Q953 528 949 515Q948 507 937.5 500.0Q927 493 915 486Q905 480 889.5 471.0Q874 462 865 460Q847 457 834 466Q827 470 826.0 479.5Q825 489 827 493Q831 499 837.5 499.5Q844 500 844 500Z" fill="#a05c3c" stroke="none" transform="scale(1,-1) translate(0,-256)" /><path d="M866 292 870 186Q870 186 882.0 179.0Q894 172 914 175Q930 178 935.5 186.5Q941 195 944 206Q945 213 940.0 226.5Q935 240 928.0 252.5Q921 265 916 269Q903 281 884.5 286.5Q866 292 866 292Z" fill="#a05c3c" stroke="none" transform="scale(1,-1) translate(0,-256)" /><path d="M387 131Q387 131 389.5 142.0Q392 153 395.0 167.5Q398 182 402.0 192.0Q406 202 408 198Q413 194 419.5 179.5Q426 165 432.0 147.5Q438 130 442.0 115.5Q446 101 444 96Q442 85 431.5 74.5Q421 64 407 64Q397 64 391.0 71.0Q385 78 382.0 85.5Q379 93 379 93Z" fill="#a05c3c" stroke="none" transform="scale(1,-1) translate(0,-256)" /></svg>