<?xml version="1.0" encoding="utf-8" ?>
<svg baseProfile="full" height="256" version="1.1" width="256" xmlns="http://www.w3.org/2000/svg" xmlns:ev="http://www.w3.org/2001/xml-events" xmlns:xlink="http://www.w3.org/1999/xlink"><defs /><path d="M530 249Q530 264 516.5 275.0Q503 286 483 286Q464 286 450.5 275.0Q437 264 437 249Q437 233 450.5 222.0Q464 211 483 211Q503 211 516.5 222.0Q530 233 530 249Z" fill="#404040" stroke="none" transform="scale(1,-1) translate(0,-256)" /><path d="M838.25 249.0Q838.25 264.0 824.75 275.0Q811.25 286.0 791.25 286.0Q772.25 286.0 758.75 275.0Q745.25 264.0 745.25 249.0Q745.25 233.0 758.75 222.0Q772.25 211.0 791.25 211.0Q811.25 211.0 824.75 222.0Q838.25 233.0 838.25 249.0Z" fill="#404040" stroke="none" transform="scale(1,-1) translate(0,-256)" /></svg>