<?xml version="1.0" encoding="utf-8" ?>
<svg baseProfile="full" height="256" version="1.1" width="256" xmlns="http://www.w3.org/2000/svg" xmlns:ev="http://www.w3.org/2001/xml-events" xmlns:xlink="http://www.w3.org/1999/xlink"><defs /><path d="M638 713Q696 713 750.0 686.0Q804 659 846.5 609.5Q889 560 913.5 492.0Q938 424 938 342Q938 261 913.0 200.0Q888 139 845.0 98.5Q802 58 748.0 37.5Q694 17 638 17Q581 17 527.0 37.5Q473 58 430.0 98.5Q387 139 362.0 200.0Q337 261 337 342Q337 424 361.5 492.0Q386 560 428.5 609.5Q471 659 525.0 686.0Q579 713 638 713Z" fill="#ffca28" stroke="none" transform="scale(1,-1) translate(0,-256)" /></svg>