<?xml version="1.0" encoding="utf-8" ?>
<svg baseProfile="full" height="256" version="1.1" width="256" xmlns="http://www.w3.org/2000/svg" xmlns:ev="http://www.w3.org/2001/xml-events" xmlns:xlink="http://www.w3.org/1999/xlink"><defs /><path d="M508.0 395.875Q521.0 378.875 542.0 384.875Q555.0 388.875 561.0 400.875Q567.0 412.875 563.0 424.875L562.0 427.875Q561.0 430.875 561.0 430.875Q560.0 432.875 559.0 434.875Q556.0 441.875 552.0 448.875Q548.0 456.875 541.0 464.875Q526.0 484.875 504.0 497.875Q491.0 505.875 476.0 509.875Q460.0 513.875 444.0 513.875H437.0Q436.0 513.875 433.5 513.375Q431.0 512.875 429.0 512.875Q420.0 511.875 413.0 509.875Q372.0 497.875 347.0 464.875Q337.0 451.875 330.0 436.875Q328.0 431.875 326.0 427.875L325.0 424.875Q318.0 404.875 335.0 389.875Q344.0 381.875 357.0 382.875Q370.0 383.875 378.0 393.875L381.0 396.875L387.0 402.875Q393.0 410.875 401.0 416.875Q410.0 424.875 421.0 429.875Q427.0 431.875 433.0 433.875Q435.0 433.875 438.0 434.875Q439.0 434.875 441.0 434.875H444.0Q456.0 434.875 467.0 429.875Q479.0 423.875 488.0 416.875Q493.0 411.875 496.0 408.875L502.0 402.875Q503.0 401.875 504.0 400.875L506.0 397.875Z" fill="#422b0d" stroke="none" transform="scale(1,-1) translate(0,-256)" /><path d="M914.0 395.875Q927.0 378.875 948.0 385.875Q960.0 389.875 966.0 401.375Q972.0 412.875 968.0 424.875L967.0 427.875L966.0 430.875Q966.0 432.875 964.0 435.875Q961.0 442.875 958.0 448.875Q953.0 456.875 947.0 464.875Q931.0 485.875 910.0 497.875Q896.0 505.875 881.0 509.875Q866.0 513.875 850.0 513.875H843.0Q842.0 513.875 839.5 513.875Q837.0 513.875 835.0 513.875Q826.0 511.875 818.0 509.875Q778.0 498.875 753.0 465.875Q742.0 451.875 736.0 436.875Q733.0 431.875 732.0 427.875L731.0 424.875Q722.0 402.875 741.0 387.875Q751.0 379.875 764.0 381.875Q777.0 383.875 785.0 393.875L788.0 396.875L792.0 402.875Q799.0 409.875 806.0 416.875Q816.0 424.875 827.0 429.875Q833.0 431.875 839.0 433.875Q841.0 433.875 844.0 434.875Q845.0 434.875 846.0 434.875H850.0Q862.0 434.875 873.0 429.875Q885.0 423.875 894.0 416.875Q899.0 411.875 902.0 408.875L908.0 402.875Q909.0 401.875 910.0 400.875L912.0 397.875Z" fill="#422b0d" stroke="none" transform="scale(1,-1) translate(0,-256)" /><path d="M721 154Q752 127 751 86Q751 68 730.0 44.0Q709 20 656 12Q622 7 611.0 20.5Q600 34 602 48Q604 63 622.5 68.5Q641 74 653 76Q668 79 680.0 83.5Q692 88 692 102Q692 110 683.5 115.0Q675 120 664.0 124.0Q653 128 645.5 135.0Q638 142 639 155Q640 168 648.5 173.5Q657 179 667.0 182.5Q677 186 684.5 191.0Q692 196 692 209Q691 223 679.5 227.5Q668 232 651.5 233.0Q635 234 621 238Q600 242 594 263Q592 279 605.5 286.5Q619 294 633 295Q633 295 652.0 295.5Q671 296 694.5 291.0Q718 286 731 269Q739 258 744.5 246.0Q750 234 749 209Q745 176 721 154Z" fill="#422b0d" stroke="none" transform="scale(1,-1) translate(0,-256)" /><path d="M480 644Q395 643 329 589Q321 582 312.0 585.0Q303 588 299.5 596.0Q296 604 304 613Q353 671 430 680Q457 684 485 679Q496 676 498.5 667.5Q501 659 496.0 651.5Q491 644 480 644Z" fill="#422b0d" stroke="none" transform="scale(1,-1) translate(0,-256)" /><path d="M788 638Q872 645 944 597Q952 592 960.5 595.5Q969 599 972.0 607.0Q975 615 966 623Q911 677 834 678Q806 679 779 671Q768 668 766.5 659.5Q765 651 771.0 644.0Q777 637 788 638Z" fill="#422b0d" stroke="none" transform="scale(1,-1) translate(0,-256)" /></svg>