<?xml version="1.0" encoding="utf-8" ?>
<svg baseProfile="full" height="256" version="1.1" width="256" xmlns="http://www.w3.org/2000/svg" xmlns:ev="http://www.w3.org/2001/xml-events" xmlns:xlink="http://www.w3.org/1999/xlink"><defs /><path d="M634 -164Q742 -164 840.0 -128.5Q938 -93 1013 -28Q1093 44 1135.5 142.5Q1178 241 1178 360Q1178 479 1135.5 578.5Q1093 678 1013 749Q938 815 840.5 849.5Q743 884 634 884Q555 884 477.0 864.0Q399 844 329.5 803.5Q260 763 206.0 700.5Q152 638 121.0 553.0Q90 468 90 360Q90 252 121.0 167.5Q152 83 206.0 20.5Q260 -42 329.5 -83.0Q399 -124 477.0 -144.0Q555 -164 634 -164Z" fill="#000000" stroke="none" transform="scale(1,-1) translate(0,-256)" /><path d="M457.05572509765625 254.76239013671875Q457.05572509765625 288.599853515625 444.3666763305664 318.3534851074219Q431.67762756347656 348.10711669921875 409.0707015991211 370.7140426635742Q386.4637756347656 393.3209686279297 356.71014404296875 406.15586853027344Q326.9565124511719 418.9907684326172 293.1190490722656 418.9907684326172Q258.98988342285156 418.9907684326172 229.2362518310547 406.15586853027344Q199.4826202392578 393.3209686279297 176.87569427490234 370.7140426635742Q154.26876831054688 348.10711669921875 141.57971954345703 318.3534851074219Q128.8906707763672 288.599853515625 128.8906707763672 254.76239013671875Q128.8906707763672 220.9249267578125 141.57971954345703 191.17129516601562Q154.26876831054688 161.41766357421875 176.87569427490234 138.81073760986328Q199.4826202392578 116.20381164550781 229.2362518310547 103.51476287841797Q258.98988342285156 90.82571411132812 293.1190490722656 90.82571411132812Q326.9565124511719 90.82571411132812 356.71014404296875 103.51476287841797Q386.4637756347656 116.20381164550781 409.0707015991211 138.81073760986328Q431.67762756347656 161.41766357421875 444.3666763305664 191.17129516601562Q457.05572509765625 220.9249267578125 457.05572509765625 254.76239013671875Z" fill="#000000" stroke="none" transform="scale(1,-1) translate(0,-256)" /><path d="M1144.9932250976562 254.76239013671875Q1144.9932250976562 288.599853515625 1132.3041763305664 318.3534851074219Q1119.6151275634766 348.10711669921875 1097.008201599121 370.7140426635742Q1074.4012756347656 393.3209686279297 1044.6476440429688 406.15586853027344Q1014.8940124511719 418.9907684326172 981.0565490722656 418.9907684326172Q946.9273834228516 418.9907684326172 917.1737518310547 406.15586853027344Q887.4201202392578 393.3209686279297 864.8131942749023 370.7140426635742Q842.2062683105469 348.10711669921875 829.517219543457 318.3534851074219Q816.8281707763672 288.599853515625 816.8281707763672 254.76239013671875Q816.8281707763672 220.9249267578125 829.517219543457 191.17129516601562Q842.2062683105469 161.41766357421875 864.8131942749023 138.81073760986328Q887.4201202392578 116.20381164550781 917.1737518310547 103.51476287841797Q946.9273834228516 90.82571411132812 981.0565490722656 90.82571411132812Q1014.8940124511719 90.82571411132812 1044.6476440429688 103.51476287841797Q1074.4012756347656 116.20381164550781 1097.008201599121 138.81073760986328Q1119.6151275634766 161.41766357421875 1132.3041763305664 191.17129516601562Q1144.9932250976562 220.9249267578125 1144.9932250976562 254.76239013671875Z" fill="#000000" stroke="none" transform="scale(1,-1) translate(0,-256)" /></svg>