<?xml version="1.0" encoding="utf-8" ?>
<svg baseProfile="full" height="256" version="1.1" width="256" xmlns="http://www.w3.org/2000/svg" xmlns:ev="http://www.w3.org/2001/xml-events" xmlns:xlink="http://www.w3.org/1999/xlink"><defs /><path d="M338 719Q338 719 322.0 717.0Q306 715 281.0 707.0Q256 699 227.5 681.0Q199 663 174.5 632.5Q150 602 135 554Q119 504 125.0 462.5Q131 421 146.5 390.0Q162 359 175.5 342.5Q189 326 189 326Q189 326 189.0 307.5Q189 289 198.0 260.5Q207 232 233.5 200.0Q260 168 313 140Q368 111 419.0 105.0Q470 99 512.5 108.0Q555 117 586.5 131.5Q618 146 635.5 158.0Q653 170 653 170Q653 170 671.0 165.0Q689 160 711.5 154.5Q734 149 748 146Q766 142 801.0 138.5Q836 135 880.0 140.5Q924 146 969.5 166.0Q1015 186 1055.0 228.0Q1095 270 1121 340Q1149 414 1139.5 474.0Q1130 534 1104 576Q1078 617 1046.0 642.0Q1014 667 990.0 678.0Q966 689 966 689Q966 689 938.5 699.0Q911 709 866.0 724.5Q821 740 765.5 758.0Q710 776 653.5 792.5Q597 809 546.5 821.0Q496 833 461.0 836.0Q426 839 414 830Q387 809 370.0 783.0Q353 757 345.5 738.0Q338 719 338 719Z" fill="#5b9821" stroke="none" transform="scale(1,-1) translate(0,-256)" /></svg>