<?xml version="1.0" encoding="utf-8" ?>
<svg baseProfile="full" height="256" version="1.1" width="256" xmlns="http://www.w3.org/2000/svg" xmlns:ev="http://www.w3.org/2001/xml-events" xmlns:xlink="http://www.w3.org/1999/xlink"><defs /><path d="M723 678Q723 678 727.5 674.5Q732 671 732 656Q732 639 725.0 633.0Q718 627 718 627Q718 627 699.5 627.0Q681 627 656.0 626.5Q631 626 610.0 626.0Q589 626 584 626Q563 626 560 649Q558 660 565.0 668.5Q572 677 582 677Q587 677 609.0 677.5Q631 678 657.5 678.0Q684 678 703.5 678.0Q723 678 723 678Z" fill="#464c4f" stroke="none" transform="scale(1,-1) translate(0,-256)" /><path d="M570 759Q570 759 582.0 752.5Q594 746 606 750Q614 753 617.0 774.0Q620 795 620 816Q620 837 617.5 856.0Q615 875 605 880Q595 884 584.5 876.5Q574 869 562 855Q549 841 541.5 824.5Q534 808 534 798Q534 796 534.0 781.0Q534 766 534.0 747.5Q534 729 534.0 715.0Q534 701 534 701Q534 701 536.5 691.0Q539 681 553 681Q563 681 566.0 690.5Q569 700 569 700Z" fill="#464c4f" stroke="none" transform="scale(1,-1) translate(0,-256)" /><path d="M669 315Q669 322 668.0 340.0Q667 358 667 374Q667 387 676.0 391.5Q685 396 690 396Q695 395 714.0 394.0Q733 393 756 393Q819 393 838 397Q841 397 854.0 404.5Q867 412 883.0 421.0Q899 430 913.5 437.0Q928 444 936 444Q941 444 959.5 444.0Q978 444 999.0 444.0Q1020 444 1030 443Q1047 442 1055.5 438.0Q1064 434 1067 423Q1070 412 1071.5 386.0Q1073 360 1071 346Q1070 331 1064.0 324.0Q1058 317 1045 313Q1032 308 1000.5 305.5Q969 303 895 301Q821 299 764.0 297.0Q707 295 692 295Q676 295 673.0 301.0Q670 307 669 315Z" fill="#464c4f" stroke="none" transform="scale(1,-1) translate(0,-256)" /></svg>