<?xml version="1.0" encoding="utf-8" ?>
<svg baseProfile="full" height="256" version="1.1" width="256" xmlns="http://www.w3.org/2000/svg" xmlns:ev="http://www.w3.org/2001/xml-events" xmlns:xlink="http://www.w3.org/1999/xlink"><defs /><path d="M492 728Q490 735 473.0 736.5Q456 738 436.5 736.5Q417 735 409 733Q398 730 402.0 715.0Q406 700 412 689Q417 678 432.5 682.5Q448 687 462 695Q475 703 484.5 712.0Q494 721 492 728Z" fill="#fed519" stroke="none" transform="scale(1,-1) translate(0,-256)" /><path d="M428 565Q428 565 435.5 562.0Q443 559 451.0 555.0Q459 551 462 549Q464 547 456.0 536.5Q448 526 436.0 511.0Q424 496 415 481Q386 435 369.0 401.0Q352 367 352 367Q352 367 347.5 354.0Q343 341 337.0 323.0Q331 305 325.0 289.0Q319 273 316 266Q309 251 295.0 240.5Q281 230 281 230Q281 230 281.5 260.0Q282 290 290.5 335.5Q299 381 323 430Q341 466 364.5 497.5Q388 529 406.5 547.5Q425 566 428 565Z" fill="#fed519" stroke="none" transform="scale(1,-1) translate(0,-256)" /><path d="M813 57Q809 55 798.0 65.0Q787 75 774.0 93.5Q761 112 754 134Q749 149 748.5 172.5Q748 196 758.0 220.5Q768 245 792.5 264.5Q817 284 862 293Q922 304 969.5 297.5Q1017 291 1051.0 277.0Q1085 263 1103.0 251.0Q1121 239 1121 239Q1121 239 1100.5 243.0Q1080 247 1050.0 251.0Q1020 255 994 256Q945 258 901.0 249.0Q857 240 827 203Q810 181 807.0 156.5Q804 132 807.0 110.0Q810 88 813.0 73.5Q816 59 813 57Z" fill="#fed519" stroke="none" transform="scale(1,-1) translate(0,-256)" /></svg>