<?xml version="1.0" encoding="utf-8" ?>
<svg baseProfile="full" height="256" version="1.1" width="256" xmlns="http://www.w3.org/2000/svg" xmlns:ev="http://www.w3.org/2001/xml-events" xmlns:xlink="http://www.w3.org/1999/xlink"><defs /><path d="M973 792Q972 798 967 801Q961 806 953.5 805.0Q946 804 942 798L865 689Q855 676 839 677L708 692Q702 693 697 689Q691 685 689.5 677.5Q688 670 692 664L772 564Q783 550 776 535L721 410Q719 404 720 398Q722 391 729.0 387.5Q736 384 743 386L867 428Q883 434 895 422L994 334Q998 330 1005 330Q1012 330 1017.5 335.0Q1023 340 1023 348L1022 484Q1022 502 1037 509L1150 571Q1155 574 1157 580Q1160 587 1156.5 593.5Q1153 600 1146 603L1021 640Q1005 645 1001 661Z" fill="#f44336" stroke="none" transform="scale(1,-1) translate(0,-256)" /><path d="M342 814Q338 819 333 821Q326 823 319.5 819.0Q313 815 311 808L281 678Q277 662 261 658L135 622Q129 620 125 614Q121 608 123.0 600.5Q125 593 131 590L243 527Q258 518 257 502L254 365Q254 359 258 354Q263 348 270.0 347.0Q277 346 283 351L382 438Q395 449 410 443L535 399Q541 397 546 399Q553 402 556.5 408.5Q560 415 557 422L504 548Q497 564 508 577L589 677Q592 681 592 687Q592 695 586.5 700.0Q581 705 574 705L443 692Q427 690 417 704Z" fill="#f44336" stroke="none" transform="scale(1,-1) translate(0,-256)" /></svg>