<?xml version="1.0" encoding="utf-8" ?>
<svg baseProfile="full" height="256" version="1.1" width="256" xmlns="http://www.w3.org/2000/svg" xmlns:ev="http://www.w3.org/2001/xml-events" xmlns:xlink="http://www.w3.org/1999/xlink"><defs /><path d="M440 807Q453 817 456.0 831.5Q459 846 453 854Q446 863 430.0 865.0Q414 867 399 856Q383 843 381.5 830.0Q380 817 384 809Q390 798 405.5 796.5Q421 795 440 807Z" fill="#323234" stroke="none" transform="scale(1,-1) translate(0,-256)" /><path d="M552 698Q569 708 572.0 725.5Q575 743 569 753Q561 766 543.5 769.0Q526 772 507 761Q490 751 487.0 733.0Q484 715 490 705Q498 694 514.5 689.5Q531 685 552 698Z" fill="#323234" stroke="none" transform="scale(1,-1) translate(0,-256)" /></svg>