<?xml version="1.0" encoding="utf-8" ?>
<svg baseProfile="full" height="256" version="1.1" width="256" xmlns="http://www.w3.org/2000/svg" xmlns:ev="http://www.w3.org/2001/xml-events" xmlns:xlink="http://www.w3.org/1999/xlink"><defs /><path d="M494 233V23L736 -91Q736 -91 754.0 -95.5Q772 -100 798.0 -106.0Q824 -112 850.5 -116.5Q877 -121 894 -121Q916 -120 930.5 -115.0Q945 -110 959.0 -103.0Q973 -96 995 -90Q1011 -86 1036.0 -75.0Q1061 -64 1087.0 -50.0Q1113 -36 1133.5 -22.0Q1154 -8 1163 3Q1172 14 1179.0 33.0Q1186 52 1189.0 72.0Q1192 92 1190.0 106.0Q1188 120 1178 121Q1168 121 1164.5 112.0Q1161 103 1154.5 89.0Q1148 75 1127 61Q1096 39 1071.5 40.0Q1047 41 1034 43Q1025 43 1007.5 48.0Q990 53 975.0 57.0Q960 61 960 61L930 202Q930 202 920.5 215.5Q911 229 887.0 247.0Q863 265 818.5 279.0Q774 293 704 294Q657 295 618.0 286.0Q579 277 551.5 264.5Q524 252 509.0 242.5Q494 233 494 233Z" fill="#96a820" stroke="none" transform="scale(1,-1) translate(0,-256)" /></svg>