<?xml version="1.0" encoding="utf-8" ?>
<svg baseProfile="full" height="256" version="1.1" width="256" xmlns="http://www.w3.org/2000/svg" xmlns:ev="http://www.w3.org/2001/xml-events" xmlns:xlink="http://www.w3.org/1999/xlink"><defs /><path d="M411 739Q400 742 391.0 737.5Q382 733 379 723Q376 714 381.5 705.0Q387 696 397 693Q407 690 416.5 694.5Q426 699 428 709Q431 718 426.0 727.0Q421 736 411 739Z" fill="#2f2f2f" stroke="none" transform="scale(1,-1) translate(0,-256)" /><path d="M343.07749938964844 673.4416198730469Q332.7744598388672 676.9876098632812 322.5649871826172 672.4349746704102Q312.3555145263672 667.8823394775391 308.8095245361328 657.5792999267578Q305.26353454589844 647.2762603759766 310.5086212158203 637.4046401977539Q315.7537078857422 627.5330200195312 326.05674743652344 623.9870300292969Q336.3597869873047 620.4410400390625 346.5692596435547 624.9936752319336Q356.7787322998047 629.5463104248047 360.32472229003906 639.8493499755859Q363.87071228027344 650.1523895263672 358.62562561035156 660.0240097045898Q353.3805389404297 669.8956298828125 343.07749938964844 673.4416198730469Z" fill="#2f2f2f" stroke="none" transform="scale(1,-1) translate(0,-256)" /></svg>