<?xml version="1.0" encoding="utf-8" ?>
<svg baseProfile="full" height="256" version="1.1" width="256" xmlns="http://www.w3.org/2000/svg" xmlns:ev="http://www.w3.org/2001/xml-events" xmlns:xlink="http://www.w3.org/1999/xlink"><defs /><path d="M568 577Q525 586 532 653Q534 674 540.5 685.0Q547 696 553 701Q561 708 572 705L749 662Q762 659 770.5 648.5Q779 638 779 625V546Z" fill="#82aec0" stroke="none" transform="scale(1,-1) translate(0,-256)" /><path d="M1064 437 1085 458 595 531 576 504Z" fill="#82aec0" stroke="none" transform="scale(1,-1) translate(0,-256)" /><path d="M1129 299 1148 323 589 381 566 348Z" fill="#82aec0" stroke="none" transform="scale(1,-1) translate(0,-256)" /><path d="M95 243V210Q95 210 124.5 209.0Q154 208 201.0 206.0Q248 204 302.5 201.5Q357 199 407.5 196.0Q458 193 494.5 190.0Q531 187 542 185Q557 181 565.0 167.0Q573 153 578.0 135.5Q583 118 591.5 104.0Q600 90 618 85Q632 81 663.0 77.5Q694 74 733.5 71.5Q773 69 812.0 66.5Q851 64 881.5 63.0Q912 62 925 62Q941 62 953.0 75.5Q965 89 976.0 106.0Q987 123 998.0 136.5Q1009 150 1023 150Q1041 150 1068.5 148.5Q1096 147 1117.5 145.5Q1139 144 1139 144L1140 190Q1013 205 886.0 215.0Q759 225 642.5 231.0Q526 237 426.5 239.5Q327 242 252.5 243.0Q178 244 136.5 243.5Q95 243 95 243Z" fill="#82aec0" stroke="none" transform="scale(1,-1) translate(0,-256)" /><path d="M1199.5504760742188 153.47659301757812 1200.4509582519531 162.9403533935547 984.014892578125 183.96975708007812 983.1144104003906 174.50599670410156Z" fill="#82aec0" stroke="none" transform="scale(1,-1) translate(0,-256)" /></svg>