<?xml version="1.0" encoding="utf-8" ?>
<svg baseProfile="full" height="256" version="1.1" width="256" xmlns="http://www.w3.org/2000/svg" xmlns:ev="http://www.w3.org/2001/xml-events" xmlns:xlink="http://www.w3.org/1999/xlink"><defs /><path d="M824 733V737L827 742Q827 742 806.0 748.0Q785 754 760 771Q736 788 727.0 805.0Q718 822 718 823L715 819L710 818Q710 818 719.0 800.0Q728 782 755 764Q786 742 805.0 737.5Q824 733 824 733Z" fill="#212121" stroke="none" transform="scale(1,-1) translate(0,-256)" /><path d="M580 -102V-96L584 -90Q584 -90 562.0 -83.5Q540 -77 514 -61Q489 -45 478.5 -31.5Q468 -18 468 -18L465 -23L459 -25Q459 -25 469.5 -41.5Q480 -58 508 -74Q541 -93 560.5 -97.5Q580 -102 580 -102Z" fill="#212121" stroke="none" transform="scale(1,-1) translate(0,-256)" /></svg>