<?xml version="1.0" encoding="utf-8" ?>
<svg baseProfile="full" height="256" version="1.1" width="256" xmlns="http://www.w3.org/2000/svg" xmlns:ev="http://www.w3.org/2001/xml-events" xmlns:xlink="http://www.w3.org/1999/xlink"><defs /><path d="M636 91H770Q769 74 769 59Q769 28 777.5 -9.0Q786 -46 799.0 -81.5Q812 -117 824.5 -147.0Q837 -177 845.5 -194.5Q854 -212 854 -212H717Q717 -212 705.0 -194.5Q693 -177 676.5 -140.0Q660 -103 648.0 -46.0Q636 11 636 90Q636 90 636.0 90.5Q636 91 636 91Z" fill="#ef5350" stroke="none" transform="scale(1,-1) translate(0,-256)" /><path d="M437 -61Q451 -47 472.5 -8.0Q494 31 498 91H636Q636 91 636.0 90.5Q636 90 636 90Q636 80 633.5 55.0Q631 30 621.0 -5.5Q611 -41 589.5 -81.5Q568 -122 529 -164Q529 -164 525.0 -165.0Q521 -166 517 -164Q512 -161 510.0 -156.0Q508 -151 508 -151Q505 -149 501 -149L486 -151Q480 -152 477 -146L472 -131Q470 -126 465 -126L448 -124Q442 -123 441 -118L437 -100Q436 -94 427 -91Q424 -91 417 -88Q414 -87 414.0 -83.5Q414 -80 416 -78Z" fill="#ef5350" stroke="none" transform="scale(1,-1) translate(0,-256)" /><path d="M796 205Q812 234 832.0 265.5Q852 297 869.5 324.0Q887 351 893 366Q898 377 905.5 404.5Q913 432 916.5 468.5Q920 505 911.5 544.0Q903 583 875.5 618.0Q848 653 795 678Q795 678 786.0 655.5Q777 633 776 580Q775 558 780.0 542.5Q785 527 785 527Q794 486 783.5 450.0Q773 414 751.5 379.5Q730 345 705.5 308.0Q681 271 662.0 229.0Q643 187 638 136Q690 139 725.0 156.0Q760 173 778.0 189.0Q796 205 796 205Z" fill="#ef5350" stroke="none" transform="scale(1,-1) translate(0,-256)" /><path d="M479 205Q464 234 443.5 265.5Q423 297 405.5 324.5Q388 352 382 366Q377 378 369.0 408.0Q361 438 358.5 478.5Q356 519 366.0 562.0Q376 605 406.5 642.5Q437 680 497 704Q497 704 503.0 675.0Q509 646 506 598Q504 572 497.0 549.5Q490 527 490 527Q479 487 489.5 451.0Q500 415 521.5 380.0Q543 345 568.5 308.0Q594 271 613.5 229.0Q633 187 637 136Q586 139 551.0 156.0Q516 173 498.0 189.0Q480 205 479 205Z" fill="#ef5350" stroke="none" transform="scale(1,-1) translate(0,-256)" /></svg>