<?xml version="1.0" encoding="utf-8" ?>
<svg baseProfile="full" height="256" version="1.1" width="256" xmlns="http://www.w3.org/2000/svg" xmlns:ev="http://www.w3.org/2001/xml-events" xmlns:xlink="http://www.w3.org/1999/xlink"><defs /><path d="M441 437Q442 438 442 438Q476 483 491.0 529.5Q506 576 506 634Q506 665 497.5 702.0Q489 739 476.5 776.0Q464 813 451.0 843.5Q438 874 429.5 892.5Q421 911 421 911H558Q558 911 570.0 892.5Q582 874 598.5 836.0Q615 798 627.0 739.5Q639 681 639 602Q639 544 624.0 498.5Q609 453 585.0 417.5Q561 382 535 352Q531 348 516.5 360.5Q502 373 484.5 390.5Q467 408 454.0 422.5Q441 437 441 437Z" fill="#81d4fa" stroke="none" transform="scale(1,-1) translate(0,-256)" /><path d="M811 770Q813 764 819 765L854 774Q854 774 842.0 761.0Q830 748 814.5 723.0Q799 698 787.5 662.0Q776 626 776 580Q776 541 793.5 506.5Q811 472 837 438Q837 437 838 437Q838 437 825.0 422.5Q812 408 794.5 390.5Q777 373 762.0 360.5Q747 348 744 352Q717 382 693.5 417.5Q670 453 654.5 498.5Q639 544 639 602Q639 612 641.5 637.0Q644 662 654.0 697.5Q664 733 685.5 774.0Q707 815 746 856L744 827Q743 821 749 820L766 817Q770 817 771 812L776 793Q777 787 783 788L800 789Q805 789 806 784Z" fill="#81d4fa" stroke="none" transform="scale(1,-1) translate(0,-256)" /><path d="M871 401Q871 401 881.0 384.5Q891 368 903.0 339.0Q915 310 920.5 274.0Q926 238 917.0 199.0Q908 160 876 122Q835 75 777.5 46.5Q720 18 635 18Q466 18 395 122Q365 165 357.5 205.0Q350 245 355.0 278.5Q360 312 371.5 337.5Q383 363 393.0 377.0Q403 391 403 391L500 330Q490 291 504.0 256.0Q518 221 543.5 194.0Q569 167 595.0 151.5Q621 136 635 136Q650 136 675.0 154.5Q700 173 725.0 202.5Q750 232 764.0 266.0Q778 300 770 330Z" fill="#81d4fa" stroke="none" transform="scale(1,-1) translate(0,-256)" /><path d="M564 -121Q572 -124 578 -112Q581 -105 580.5 -100.5Q580 -96 580 -96Q576 -96 558.0 -90.5Q540 -85 513 -68Q486 -51 475.5 -37.0Q465 -23 465 -23Q465 -23 461.0 -24.0Q457 -25 452 -31Q448 -36 448.0 -42.0Q448 -48 448 -48Q453 -55 464.5 -66.5Q476 -78 498 -92Q521 -106 538.5 -112.5Q556 -119 564 -121Z" fill="#81d4fa" stroke="none" transform="scale(1,-1) translate(0,-256)" /></svg>