<?xml version="1.0" encoding="utf-8" ?>
<svg baseProfile="full" height="256" version="1.1" width="256" xmlns="http://www.w3.org/2000/svg" xmlns:ev="http://www.w3.org/2001/xml-events" xmlns:xlink="http://www.w3.org/1999/xlink"><defs /><path d="M527 707Q543 713 573.0 719.5Q603 726 645.5 725.0Q688 724 742 709V547Q730 556 704.0 566.5Q678 577 635 577Q599 577 571.5 569.0Q544 561 527 551Z" fill="#b71c1c" stroke="none" transform="scale(1,-1) translate(0,-256)" /><path d="M619 -6 620 -8Q615 -25 608 -41Q564 -58 518 -58Q489 -58 461 -51Q455 -50 449 -48Q457 -37 465 -23Q466 -23 466.5 -23.5Q467 -24 467 -24Q546 -42 619 -6Z" fill="#b71c1c" stroke="none" transform="scale(1,-1) translate(0,-256)" /><path d="M769 66Q687 5 659 -89Q653 -67 647 -40Q684 39 755 91H770Q770 85 769.5 79.0Q769 73 769 66Z" fill="#b71c1c" stroke="none" transform="scale(1,-1) translate(0,-256)" /></svg>