<?xml version="1.0" encoding="utf-8" ?>
<svg baseProfile="full" height="256" version="1.1" width="256" xmlns="http://www.w3.org/2000/svg" xmlns:ev="http://www.w3.org/2001/xml-events" xmlns:xlink="http://www.w3.org/1999/xlink"><defs /><path d="M856 283Q858 287 870.5 288.0Q883 289 907 277Q931 265 935.5 248.5Q940 232 936 224Q933 216 925.5 206.0Q918 196 918 196Q918 196 896.0 195.5Q874 195 842 210Q826 218 821.0 222.0Q816 226 816 226Q816 226 825.5 237.0Q835 248 842 258Q847 265 851.5 274.0Q856 283 856 283Z" fill="#ff7512" stroke="none" transform="scale(1,-1) translate(0,-256)" /></svg>