<?xml version="1.0" encoding="utf-8" ?>
<svg baseProfile="full" height="256" version="1.1" width="256" xmlns="http://www.w3.org/2000/svg" xmlns:ev="http://www.w3.org/2001/xml-events" xmlns:xlink="http://www.w3.org/1999/xlink"><defs /><path d="M83 194Q84 217 114 217Q140 217 141 195Q142 174 114 172Q99 172 91.0 178.0Q83 184 83 194Z" fill="#ffa821" stroke="none" transform="scale(1,-1) translate(0,-256)" /><path d="M186 92Q202 90 208.0 82.5Q214 75 213 65Q213 53 204.5 48.0Q196 43 188 42Q180 41 169.0 45.5Q158 50 157 65Q156 79 166.5 85.5Q177 92 186 92Z" fill="#ffa821" stroke="none" transform="scale(1,-1) translate(0,-256)" /><path d="M357 19Q376 19 382.5 11.0Q389 3 389 -5Q390 -16 382.0 -23.5Q374 -31 360 -31Q346 -30 336.5 -23.5Q327 -17 327 -6Q327 7 337.0 13.0Q347 19 357 19Z" fill="#ffa821" stroke="none" transform="scale(1,-1) translate(0,-256)" /><path d="M556 13Q573 15 581.0 6.5Q589 -2 589 -11Q589 -20 583.5 -27.0Q578 -34 559 -36Q544 -37 535.5 -30.5Q527 -24 526 -14Q526 -5 533.0 3.0Q540 11 556 13Z" fill="#ffa821" stroke="none" transform="scale(1,-1) translate(0,-256)" /><path d="M721 64Q731 68 741.0 67.5Q751 67 755 59Q760 50 756.0 42.0Q752 34 743 28Q735 23 723.0 22.5Q711 22 707 30Q702 40 706.0 49.5Q710 59 721 64Z" fill="#ffa821" stroke="none" transform="scale(1,-1) translate(0,-256)" /><path d="M844 110Q838 117 841.5 125.5Q845 134 854 141Q864 147 873.5 147.0Q883 147 887 140Q897 124 879 110Q870 104 860.5 102.0Q851 100 844 110Z" fill="#ffa821" stroke="none" transform="scale(1,-1) translate(0,-256)" /><path d="M945 185Q939 192 944.5 200.0Q950 208 955 211Q973 220 987 211Q993 207 991.5 199.0Q990 191 980 184Q971 178 961.0 178.0Q951 178 945 185Z" fill="#ffa821" stroke="none" transform="scale(1,-1) translate(0,-256)" /><path d="M658 338Q663 353 688 348Q699 346 704.5 338.5Q710 331 709 322Q707 315 700.0 310.0Q693 305 677 308Q661 312 657.5 321.0Q654 330 658 338Z" fill="#ffa821" stroke="none" transform="scale(1,-1) translate(0,-256)" /><path d="M483 366Q484 376 493.0 380.5Q502 385 513 384Q523 383 533.0 378.5Q543 374 542 362Q541 340 510 343Q494 344 488.0 351.0Q482 358 483 366Z" fill="#ffa821" stroke="none" transform="scale(1,-1) translate(0,-256)" /><path d="M321 355Q320 365 327.5 371.5Q335 378 346 379Q357 380 365.0 375.5Q373 371 375 362Q378 342 351 338Q337 336 329.0 341.0Q321 346 321 355Z" fill="#ffa821" stroke="none" transform="scale(1,-1) translate(0,-256)" /><path d="M186 325Q205 334 221 325Q229 321 229.0 311.5Q229 302 219 294Q200 279 180 292Q171 297 173.0 309.0Q175 321 186 325Z" fill="#ffa821" stroke="none" transform="scale(1,-1) translate(0,-256)" /></svg>