<?xml version="1.0" encoding="utf-8" ?>
<svg baseProfile="full" height="256" version="1.1" width="256" xmlns="http://www.w3.org/2000/svg" xmlns:ev="http://www.w3.org/2001/xml-events" xmlns:xlink="http://www.w3.org/1999/xlink"><defs /><path d="M563 188 1011 219Q1011 219 1018.5 217.0Q1026 215 1032.5 206.5Q1039 198 1037 179Q1034 149 1005.5 125.0Q977 101 945 70Q924 50 899.0 19.0Q874 -12 849.0 -42.5Q824 -73 804 -93Q788 -107 765.0 -128.5Q742 -150 707.0 -170.5Q672 -191 621.0 -204.5Q570 -218 499 -218Q411 -217 355.5 -200.5Q300 -184 269.0 -163.5Q238 -143 222 -130Q182 -97 151.5 -47.5Q121 2 102 42Q83 82 77.5 114.5Q72 147 73.0 165.5Q74 184 74 184Q74 184 100.5 184.0Q127 184 170.0 184.0Q213 184 265.0 184.5Q317 185 369.0 185.5Q421 186 464.5 186.0Q508 186 535.0 186.5Q562 187 563 188Z" fill="#891e0d" stroke="none" transform="scale(1,-1) translate(0,-256)" /></svg>