<?xml version="1.0" encoding="utf-8" ?>
<svg baseProfile="full" height="256" version="1.1" width="256" xmlns="http://www.w3.org/2000/svg" xmlns:ev="http://www.w3.org/2001/xml-events" xmlns:xlink="http://www.w3.org/1999/xlink"><defs /><path d="M455 763 576 779 583 688 544 634Q544 634 537.5 638.0Q531 642 526 644Q521 646 515.0 646.0Q509 646 509 646Q509 646 494.5 654.5Q480 663 461.5 675.5Q443 688 429.5 698.5Q416 709 417 712Q418 719 416.5 724.5Q415 730 414 734Q412 740 412.0 744.0Q412 748 412 748Z" fill="#f09e00" stroke="none" transform="scale(1,-1) translate(0,-256)" /></svg>