<?xml version="1.0" encoding="utf-8" ?>
<svg baseProfile="full" height="256" version="1.1" width="256" xmlns="http://www.w3.org/2000/svg" xmlns:ev="http://www.w3.org/2001/xml-events" xmlns:xlink="http://www.w3.org/1999/xlink"><defs /><path d="M1200 741Q1200 741 1188.0 753.0Q1176 765 1146 785Q1129 797 1110.5 806.5Q1092 816 1079.0 821.5Q1066 827 1066 827Q1066 827 1055.5 833.0Q1045 839 1030.0 846.0Q1015 853 1001 855Q980 859 969.0 855.5Q958 852 958 852L842 564L612 472Q612 472 594.5 474.5Q577 477 551.5 480.5Q526 484 499.5 487.5Q473 491 454.0 494.0Q435 497 433 498Q428 500 405.5 509.5Q383 519 355.5 530.0Q328 541 309 546Q281 554 261.5 554.5Q242 555 242 555L189 472L75 428V-132Q75 -154 87 -173Q97 -191 115.5 -201.5Q134 -212 156 -212H1119Q1159 -212 1184 -180Q1200 -158 1200 -132Z" fill="#c0c0c0" stroke="none" transform="scale(1,-1) translate(0,-256)" /></svg>