<?xml version="1.0" encoding="utf-8" ?>
<svg baseProfile="full" height="256" version="1.1" width="256" xmlns="http://www.w3.org/2000/svg" xmlns:ev="http://www.w3.org/2001/xml-events" xmlns:xlink="http://www.w3.org/1999/xlink"><defs /><path d="M677 75V76L683 128L781 136L761 14L709 5Q709 5 692.5 2.0Q676 -1 668 -2Q663 -3 650.5 -4.5Q638 -6 626.5 -5.0Q615 -4 612 2Q606 15 612.0 20.0Q618 25 618 25L655 49Q655 49 662.0 53.5Q669 58 675 61Q680 65 678.5 70.0Q677 75 677 75Z" fill="#5f6467" stroke="none" transform="scale(1,-1) translate(0,-256)" /><path d="M684 353H685L708 323L715 213L631 217Q631 217 623.0 235.0Q615 253 615 279Q615 296 622.5 312.0Q630 328 637.0 338.0Q644 348 644 348Z" fill="#5f6467" stroke="none" transform="scale(1,-1) translate(0,-256)" /><path d="M496 858 515 871Q515 871 520.5 861.5Q526 852 532.5 842.5Q539 833 541 833Q542 833 548.5 836.0Q555 839 563 842Q571 846 577.5 849.5Q584 853 585 854Q585 856 580.0 864.5Q575 873 569.5 881.5Q564 890 564 890L566 895L582 892Q582 892 591.0 884.5Q600 877 613 859Q621 847 626.0 831.0Q631 815 633.0 803.0Q635 791 635 791Q635 791 628.5 796.0Q622 801 615 809Q607 818 600.5 825.5Q594 833 594 833Q594 833 582.5 826.5Q571 820 555.5 812.0Q540 804 528.0 798.0Q516 792 515 792Q513 792 507.5 801.5Q502 811 502 811L521 821Z" fill="#5f6467" stroke="none" transform="scale(1,-1) translate(0,-256)" /><path d="M399 829Q399 829 412.0 831.5Q425 834 438.5 836.5Q452 839 452 839Q452 839 458.5 830.5Q465 822 473.5 810.5Q482 799 488.5 789.5Q495 780 495 778Q495 776 490.5 775.5Q486 775 468.5 775.0Q451 775 412 774Q383 773 364.0 773.0Q345 773 332 773Q328 774 326.0 776.0Q324 778 324 778Z" fill="#5f6467" stroke="none" transform="scale(1,-1) translate(0,-256)" /></svg>