<?xml version="1.0" encoding="utf-8" ?>
<svg baseProfile="full" height="256" version="1.1" width="256" xmlns="http://www.w3.org/2000/svg" xmlns:ev="http://www.w3.org/2001/xml-events" xmlns:xlink="http://www.w3.org/1999/xlink"><defs /><path d="M958 852Q958 852 939.5 846.0Q921 840 903 828Q894 822 878.0 808.5Q862 795 844.0 778.5Q826 762 811.0 747.5Q796 733 790 726Q785 720 775.0 699.5Q765 679 752.5 652.0Q740 625 727.0 598.0Q714 571 703.0 551.0Q692 531 685 525Q673 516 656.0 503.5Q639 491 625.5 481.5Q612 472 612 472L626 323L763 188L866 204Q866 204 875.5 217.5Q885 231 896.0 246.0Q907 261 911 266Q914 270 926.5 289.0Q939 308 954.5 332.0Q970 356 983.5 375.0Q997 394 1003 397Q1009 401 1024.5 404.5Q1040 408 1057.5 412.0Q1075 416 1088.5 419.5Q1102 423 1104 427Q1106 430 1100.5 452.0Q1095 474 1087.0 502.5Q1079 531 1071.5 553.5Q1064 576 1063 580Q1060 589 1056.5 605.5Q1053 622 1049 640Q1047 648 1037.5 671.5Q1028 695 1015.0 725.5Q1002 756 989.0 785.0Q976 814 967.0 833.0Q958 852 958 852Z" fill="#dcdcdc" stroke="none" transform="scale(1,-1) translate(0,-256)" /><path d="M75 -132V-131Q82 -117 103.0 -107.0Q124 -97 147.0 -91.5Q170 -86 181 -85Q190 -85 212.0 -75.0Q234 -65 260.0 -51.5Q286 -38 307.5 -26.5Q329 -15 336 -11Q343 -8 365.0 5.0Q387 18 412.0 33.0Q437 48 455.5 59.0Q474 70 474 70Q474 70 462.5 87.0Q451 104 433.0 131.0Q415 158 394.0 188.0Q373 218 354.5 245.5Q336 273 324.0 291.0Q312 309 310 311Q306 316 305.5 325.0Q305 334 305 334Q305 334 295.5 355.0Q286 376 278 405Q274 420 268.0 444.5Q262 469 256.0 494.5Q250 520 246.0 537.5Q242 555 242 555Q242 555 234.5 555.0Q227 555 218 555Q210 555 191.0 538.0Q172 521 157 506Q149 499 135.5 486.0Q122 473 108.5 460.0Q95 447 85.0 438.0Q75 429 75 429Z" fill="#dcdcdc" stroke="none" transform="scale(1,-1) translate(0,-256)" /></svg>