<?xml version="1.0" encoding="utf-8" ?>
<svg baseProfile="full" height="256" version="1.1" width="256" xmlns="http://www.w3.org/2000/svg" xmlns:ev="http://www.w3.org/2001/xml-events" xmlns:xlink="http://www.w3.org/1999/xlink"><defs /><path d="M832.0118408203125 546.3388671875Q883.3841094970703 587.9095153808594 924.6331024169922 622.9788208007812Q965.8820953369141 658.0481262207031 994.3216857910156 683.185546875L994.9824523925781 681.97265625L995.6432189941406 680.759765625L1044.0443725585938 591.91552734375L463.2272491455078 222.02572631835938L81.28800964355469 13.83160400390625Q81.28800964355469 13.83160400390625 80.8489990234375 13.592300415039062Q80.40998840332031 13.352996826171875 79.53196716308594 12.8743896484375L66.15144348144531 37.4354248046875L65.65586853027344 38.3450927734375L65.24288940429688 39.1031494140625Q66.91633605957031 40.21197509765625 68.5484848022461 41.3966064453125Q70.18063354492188 42.58123779296875 71.771484375 43.8416748046875Q86.66731262207031 54.12432861328125 114.50093841552734 70.96775817871094Q142.33456420898438 87.81118774414062 179.26351928710938 109.90740966796875Q229.11500549316406 139.6375732421875 289.04846954345703 175.94488525390625Q348.98193359375 212.252197265625 409.3912048339844 251.86669921875Q494.02415466308594 307.6349792480469 552.5534896850586 346.5196838378906Q611.0828247070312 385.4043884277344 650.9564590454102 412.5468444824219Q690.8300933837891 439.6893005371094 720.2913665771484 460.8610534667969Q749.7526397705078 482.0328063964844 775.3714447021484 501.8965759277344Q800.9902496337891 521.7603454589844 832.0118408203125 546.3388671875Q832.0118408203125 546.3388671875 832.0118408203125 546.3388671875Q832.0118408203125 546.3388671875 832.0118408203125 546.3388671875Z" fill="#000000" stroke="none" transform="scale(1,-1) translate(0,-256)" /><path d="M941.015625 790.5968017578125 1111.48681640625 463.8719482421875 114.04838562011719 -56.45085144042969 91.39366149902344 -13.030838012695312Q119.26361083984375 13.539825439453125 166.9277572631836 59.460350036621094Q214.59190368652344 105.38087463378906 269.66949462890625 157.62979125976562Q309.7064971923828 195.46971130371094 359.2931365966797 234.46290588378906Q408.87977600097656 273.4561004638672 465.11070251464844 317.00917053222656Q521.3416290283203 360.56224060058594 581.3114929199219 412.081787109375Q641.2813568115234 463.60133361816406 701.8658065795898 525.8328018188477Q762.4502563476562 588.0642700195312 819.8573303222656 663.9517517089844Q843.9247131347656 695.6486206054688 876.3186645507812 728.6811065673828Q908.7126159667969 761.7135925292969 941.015625 790.5968017578125Z" fill="#000000" stroke="none" transform="scale(1,-1) translate(0,-256)" /><path d="M1124 318Q1128 310 1125.5 301.5Q1123 293 1115 289L405 -105Q400 -108 391 -108Q376 -108 357.0 -102.5Q338 -97 332 -94Q318 -92 311 -82Q303 -71 305 -58Q308 -45 318.5 -38.0Q329 -31 342 -33Q347 -33 353.0 -36.0Q359 -39 367 -43Q377 -48 388.0 -52.5Q399 -57 404 -54L1094 327Q1102 331 1111.0 328.5Q1120 326 1124 318Z" fill="#000000" stroke="none" transform="scale(1,-1) translate(0,-256)" /><path d="M209 577 226 550Q236 557 249.5 555.5Q263 554 272.5 550.0Q282 546 282 546Q293 542 302 547L320 558Q327 562 329.0 570.5Q331 579 327 586L308 618Q304 625 295.0 627.0Q286 629 279 624Q266 616 250.0 605.0Q234 594 222.0 586.0Q210 578 209 577Z" fill="#000000" stroke="none" transform="scale(1,-1) translate(0,-256)" /><path d="M849 590Q870 561 872.0 528.5Q874 496 859.5 469.0Q845 442 816 430L684 376L759 219L644 156L533 358L542 363Q539 366 538 367Q521 388 523.5 414.0Q526 440 547 457Q557 466 571 470H570L840 603Z" fill="#000000" stroke="none" transform="scale(1,-1) translate(0,-256)" /><path d="M392 292Q395 292 398 293L1063 611Q1076 617 1070 629Q1064 642 1051 636L386 319Q374 312 380 300Q383 292 392 292Z" fill="#000000" stroke="none" transform="scale(1,-1) translate(0,-256)" /><path d="M453 290Q455 287 453 284Q452 284 442.0 273.5Q432 263 418.5 251.5Q405 240 395 236Q385 231 376 231Q369 231 361 235Q354 238 345.0 249.5Q336 261 328.0 274.0Q320 287 316 294Q313 300 319 313Q322 319 338 330Q338 337 340 343L349 358Q351 363 356 365Q356 365 357 366Q358 366 358.0 366.0Q358 366 358 366Q364 368 369 367L409 353L412 354Q416 355 417 352Z" fill="#000000" stroke="none" transform="scale(1,-1) translate(0,-256)" /><path d="M537 649Q545 648 540.5 638.5Q536 629 524.5 615.0Q513 601 500.5 586.0Q488 571 482 560Q471 541 465.5 523.5Q460 506 456 485Q440 487 422 487Q377 487 346.0 476.5Q315 466 307 466Q305 466 305 467Q299 487 307.0 510.5Q315 534 330.5 556.0Q346 578 363.5 596.5Q381 615 395 625Q406 634 428.5 650.5Q451 667 470.5 680.5Q490 694 495 694H496Q506 694 505.0 682.0Q504 670 512 665Q521 659 528.0 654.0Q535 649 537 649Z" fill="#000000" stroke="none" transform="scale(1,-1) translate(0,-256)" /><path d="M805 626Q822 620 836.5 605.5Q851 591 857 579L574 451Q574 451 556.0 459.5Q538 468 512.0 482.0Q486 496 461.0 512.5Q436 529 422 545Q404 566 407.5 585.0Q411 604 424.0 616.5Q437 629 446 632Q486 643 526.5 648.0Q567 653 604 653V648Q604 648 604.0 648.0Q604 648 604 648V653Q660 653 705.5 646.0Q751 639 778.0 632.5Q805 626 805 626Z" fill="#000000" stroke="none" transform="scale(1,-1) translate(0,-256)" /><path d="M628 446Q636 430 633.5 412.0Q631 394 619 381Q616 376 611 372L481 288Q474 283 463 283Q449 283 434.5 290.5Q420 298 413 309Q403 324 406.0 345.5Q409 367 424 377L499 416Q480 431 454.5 454.5Q429 478 409.0 505.5Q389 533 386.0 560.5Q383 588 410 611Q428 627 450 627Q475 627 500.0 609.0Q525 591 547.5 564.5Q570 538 588.0 511.5Q606 485 616.5 466.5Q627 448 628 446Z" fill="#000000" stroke="none" transform="scale(1,-1) translate(0,-256)" /></svg>