<?xml version="1.0" encoding="utf-8" ?>
<svg baseProfile="full" height="256" version="1.1" width="256" xmlns="http://www.w3.org/2000/svg" xmlns:ev="http://www.w3.org/2001/xml-events" xmlns:xlink="http://www.w3.org/1999/xlink"><defs /><path d="M445 782Q475 758 486.0 722.0Q497 686 493.5 647.0Q490 608 476 575Q464 584 452.5 593.5Q441 603 439 620Q437 640 424.0 645.0Q411 650 402 650Q398 650 395.5 650.0Q393 650 393 650L410 600Q408 599 406 599Q395 599 382.0 609.0Q369 619 355.0 632.0Q341 645 326.5 655.0Q312 665 300 665Q296 665 292 664L198 596Q196 594 194 594Q184 594 186 612Q189 626 196.5 640.5Q204 655 204 655Q204 655 203.5 668.5Q203 682 207.5 702.5Q212 723 227.0 745.5Q242 768 271 787Q313 812 359 812Q382 812 404.0 805.0Q426 798 445 782Z" fill="#039be5" stroke="none" transform="scale(1,-1) translate(0,-256)" /></svg>