<?xml version="1.0" encoding="utf-8" ?>
<svg baseProfile="full" height="256" version="1.1" width="256" xmlns="http://www.w3.org/2000/svg" xmlns:ev="http://www.w3.org/2001/xml-events" xmlns:xlink="http://www.w3.org/1999/xlink"><defs /><path d="M241.9696044921875 108.22065734863281Q283.16966247558594 143.8368682861328 342.250732421875 164.31118774414062Q401.33180236816406 184.78550720214844 471.002685546875 184.9096908569336Q540.6735687255859 185.03387451171875 616.6170120239258 160.06243896484375Q692.5604553222656 135.09100341796875 768.939079284668 80.98200988769531Q845.3177032470703 26.873016357421875 916.6069946289062 -60.80549621582031Q987.2705535888672 -147.70396423339844 1025.6033172607422 -233.61672973632812Q1063.9360809326172 -319.5294952392578 1074.8147277832031 -398.6212692260742Q1085.693374633789 -477.7130432128906 1074.3958587646484 -547.0316925048828Q1063.0983428955078 -616.350341796875 1034.836311340332 -671.0738830566406Q1006.5742797851562 -725.7974243164062 966.6256866455078 -762.9737243652344Q927.2586212158203 -799.6835021972656 869.4732208251953 -822.9644775390625Q811.6878204345703 -846.2454528808594 741.814582824707 -849.0960311889648Q671.9413452148438 -851.9466094970703 594.5661849975586 -828.764762878418Q517.1910247802734 -805.5829162597656 437.16851806640625 -749.9100723266602Q357.14601135253906 -694.2372283935547 280.2251281738281 -599.5383148193359Q200.84552001953125 -502.9657897949219 162.06727600097656 -412.92330169677734Q123.28903198242188 -322.8808135986328 115.67509460449219 -243.093017578125Q108.0611572265625 -163.3052215576172 123.91905212402344 -96.09720611572266Q139.77694702148438 -28.889190673828125 171.4363021850586 22.790672302246094Q203.0956573486328 74.47053527832031 241.9696044921875 108.22065734863281Z" fill="#000000" stroke="none" transform="scale(1,-1) translate(0,-256)" /><path d="M370.1693420410156 331.5956115722656Q370.72528076171875 323.7152862548828 360.66546630859375 320.4741439819336Q350.60565185546875 317.2330017089844 343.8597106933594 315.26927185058594Q340.0555419921875 313.89381408691406 332.6004333496094 315.4766540527344Q325.14532470703125 317.0594940185547 323.18414306640625 316.6673126220703Q321.1047668457031 316.86622619628906 319.43907165527344 314.9963073730469Q317.77337646484375 313.1263885498047 315.81219482421875 312.7342071533203Q313.85101318359375 312.34202575683594 304.04510498046875 310.38111877441406Q294.23919677734375 308.4202117919922 292.1598205566406 308.61912536621094Q290.0804443359375 308.8180389404297 276.5054016113281 310.4065246582031Q262.93035888671875 311.99501037597656 253.15948486328125 314.9589538574219Q244.36920166015625 318.1189880371094 234.34442138671875 319.80269622802734Q224.31964111328125 321.4864044189453 218.58932495117188 324.64361572265625Q212.97720336914062 327.20973205566406 215.1507110595703 331.64012145996094Q217.32421875 336.0705108642578 216.96963500976562 337.8437957763672Q217.47744750976562 340.4042663574219 215.80520629882812 346.21717071533203Q214.13296508789062 352.0300750732422 212.67959594726562 354.1983642578125Q212.088623046875 357.1538391113281 205.74981689453125 360.8041000366211Q199.4110107421875 364.45436096191406 197.36666870117188 369.578125Q195.32232666015625 374.70188903808594 191.86619567871094 379.23596954345703Q188.41006469726562 383.7700500488281 186.95669555664062 385.93833923339844Q185.50332641601562 388.10662841796875 184.20318603515625 394.6086730957031Q182.90304565429688 401.1107177734375 181.80426025390625 401.50572204589844Q180.70547485351562 401.9007263183594 176.78311157226562 401.1163635253906Q172.86074829101562 400.3320007324219 172.94390869140625 394.81605529785156Q173.145263671875 388.7090148925781 175.56170654296875 384.2743911743164Q177.9781494140625 379.8397674560547 180.25888061523438 373.5338134765625Q182.53961181640625 367.2278594970703 183.36697387695312 363.09019470214844Q184.1943359375 358.95252990722656 186.51010131835938 357.57142639160156Q187.84527587890625 355.9942321777344 191.9274139404297 353.42952728271484Q196.00955200195312 350.8648223876953 191.34298706054688 348.7021789550781Q187.65701293945312 346.7356262207031 182.83067321777344 347.9220504760742Q178.00433349609375 349.1084747314453 174.3533935546875 352.0667724609375Q170.70245361328125 355.0250701904297 170.01080322265625 361.03406524658203Q169.31915283203125 367.0430603027344 165.78640747070312 369.41026306152344Q163.11605834960938 372.5646514892578 160.5814208984375 377.59037017822266Q158.04678344726562 382.6160888671875 157.33761596679688 386.16265869140625Q155.76605224609375 388.9220428466797 152.8768310546875 395.7210464477539Q149.98760986328125 402.5200500488281 149.54986572265625 409.8092803955078Q148.13153076171875 416.9024200439453 150.22842407226562 419.16593170166016Q152.3253173828125 421.429443359375 152.3253173828125 421.429443359375Q152.3253173828125 421.429443359375 151.2024688720703 427.0448455810547Q150.07962036132812 432.6602478027344 150.70562744140625 434.62962341308594Q150.35104370117188 436.4029083251953 158.7145538330078 450.67735290527344Q167.07806396484375 464.95179748535156 177.1904296875 475.58021545410156Q186.20401000976562 486.6036376953125 192.37649536132812 493.98526763916016Q198.54898071289062 501.3668975830078 198.54898071289062 501.3668975830078Q201.9154052734375 510.0315856933594 207.75082397460938 521.64892578125Q213.58624267578125 533.2662658691406 223.93499755859375 542.7124938964844Q233.18496704101562 552.5537261962891 246.29820251464844 563.4748687744141Q259.41143798828125 574.3960113525391 259.41143798828125 574.3960113525391Q259.41143798828125 574.3960113525391 288.64532470703125 588.8481979370117Q317.87921142578125 603.3003845214844 367.2152099609375 621.7724304199219Q400.4721374511719 633.9554595947266 430.515869140625 641.8075561523438Q460.5596008300781 649.6596527099609 479.6220245361328 653.7789688110352Q498.6844482421875 657.8982849121094 498.6844482421875 657.8982849121094Q498.6844482421875 657.8982849121094 496.0972595214844 655.5367279052734Q493.51007080078125 653.1751708984375 494.8452453613281 651.5979766845703Q495.0816345214844 650.4157867431641 490.6339416503906 644.608528137207Q486.1862487792969 638.80126953125 482.5002746582031 636.834716796875Q479.67669677734375 635.6553497314453 476.95379638671875 631.4224624633789Q474.23089599609375 627.1895751953125 473.6048889160156 625.2201995849609Q471.490478515625 620.4942626953125 469.76568603515625 618.9198913574219Q467.9226989746094 617.9366149902344 461.0585632324219 616.5639801025391Q454.1944274902344 615.1913452148438 451.2526550292969 614.6030731201172Q449.2914733886719 614.2108917236328 441.37013244628906 610.4752883911133Q433.44879150390625 606.7396850585938 427.9198303222656 603.7898559570312Q422.390869140625 600.8400268554688 412.9395446777344 597.1058349609375Q403.48822021484375 593.3716430664062 400.7828369140625 591.6011810302734Q398.1956481933594 589.2396240234375 397.13844299316406 586.8766555786133Q396.08123779296875 584.5136871337891 401.3387756347656 583.7208557128906Q406.5963134765625 582.9280242919922 415.7762145996094 582.9195556640625Q424.95611572265625 582.9110870361328 431.0760498046875 582.9054412841797Q438.17657470703125 583.0958862304688 446.6297912597656 584.1715621948242Q455.0830078125 585.2472381591797 457.28057861328125 584.4572296142578Q458.49755859375 583.4711303710938 458.77552795410156 579.5309677124023Q459.0534973144531 575.5908050537109 460.15228271484375 575.19580078125Q461.2510681152344 574.8007965087891 465.1559143066406 573.1227340698242Q469.0607604980469 571.4446716308594 472.0025329589844 572.0329437255859Q472.86492919921875 572.8201293945312 487.2607879638672 574.7768020629883Q501.6566467285156 576.7334747314453 520.0339660644531 579.1789627075195Q538.4112854003906 581.6244506835938 552.4350433349609 582.8919830322266Q566.4588012695312 584.1595153808594 564.6158142089844 583.1762390136719Q563.1274108886719 580.419677734375 565.0119781494141 578.6449813842773Q566.8965454101562 576.8702850341797 569.8383178710938 577.4585571289062Q572.7800903320312 578.0468292236328 579.6617431640625 581.8818893432617Q586.5433959960938 585.7169494628906 590.5839538574219 585.9102172851562Q594.62451171875 586.1034851074219 594.1582794189453 580.785041809082Q593.6920471191406 575.4665985107422 596.8702087402344 574.8726806640625Q600.0483703613281 574.2787628173828 606.8534088134766 575.9469451904297Q613.658447265625 577.6151275634766 617.6990051269531 577.8083953857422Q622.6019592285156 578.7888488769531 626.5243225097656 579.5732116699219Q630.4466857910156 580.3575744628906 633.8612365722656 578.5814666748047Q636.2951965332031 576.6092681884766 631.746826171875 573.8555297851562Q627.1984558105469 571.1017913818359 621.6694946289062 568.1519622802734Q616.1405334472656 565.2021331787109 609.3179779052734 561.0715255737305Q602.4954223632812 556.94091796875 600.7706298828125 555.3665466308594Q598.0652465820312 553.5960845947266 594.7513732910156 552.3186721801758Q591.4375 551.041259765625 589.1217346191406 552.42236328125Q586.6877746582031 554.3945617675781 587.0182952880859 557.8416748046875Q587.3488159179688 561.2887878417969 587.3488159179688 561.2887878417969Q587.3488159179688 561.2887878417969 578.0747833251953 556.6679534912109Q568.8007507324219 552.047119140625 566.2135620117188 549.6855621337891Q564.6069641113281 547.5200958251953 566.4149169921875 543.5785217285156Q568.2228698730469 539.6369476318359 564.8914794921875 535.8971099853516Q560.4613037109375 532.5522766113281 552.9886779785156 531.6726913452148Q545.5160522460938 530.7931060791016 541.830078125 528.8265533447266Q538.1441040039062 526.8600006103516 531.9891357421875 521.9407958984375Q525.8341674804688 517.0215911865234 521.640380859375 512.4945678710938Q513.3710021972656 502.84942626953125 513.9619750976562 499.8939514160156Q514.5529479980469 496.9384765625 517.0460052490234 494.6707305908203Q519.5390625 492.4029846191406 512.5216979980469 486.69659423828125Q505.3861389160156 481.581298828125 500.60137939453125 480.00975036621094Q495.8166198730469 478.4382019042969 489.30706787109375 475.2922821044922Q482.7975158691406 472.1463623046875 474.6813659667969 466.83497619628906Q466.5652160644531 461.5235900878906 463.8247985839844 454.8282775878906Q460.9661865234375 448.72406005859375 465.6217803955078 440.741455078125Q470.2773742675781 432.75885009765625 472.0853271484375 428.81727600097656Q473.77508544921875 425.466796875 475.99671936035156 419.4563903808594Q478.2183532714844 413.44598388671875 471.3542175292969 412.07334899902344Q463.5094909667969 410.50462341308594 460.467041015625 412.9698715209961Q457.4245910644531 415.43511962890625 450.74871826171875 423.3210906982422Q437.7515563964844 437.3197479248047 432.6122131347656 437.521484375Q428.4534606933594 437.9193115234375 423.17840576171875 436.24971771240234Q417.9033508300781 434.5801239013672 409.19622802734375 432.2242126464844Q404.29327392578125 431.24375915527344 390.1929016113281 427.8093490600586Q376.092529296875 424.37493896484375 361.9330596923828 421.23607635498047Q347.7735900878906 418.0972137451172 343.8512268066406 417.31285095214844Q336.0065002441406 415.74412536621094 327.73057556152344 413.7818069458008Q319.45465087890625 411.8194885253906 312.7918701171875 404.3398132324219Q306.2472839355469 396.26904296875 306.09405517578125 391.93528747558594Q305.9408264160156 387.6015319824219 306.7681884765625 383.4638671875Q307.7137451171875 378.735107421875 305.73504638671875 375.88050079345703Q303.75634765625 373.02589416503906 300.6613464355469 368.10386657714844Q297.56634521484375 363.1818389892578 298.240478515625 354.7104187011719Q298.91461181640625 346.23899841308594 300.2497863769531 344.66180419921875Q302.5655517578125 343.28070068359375 311.4740295410156 339.5295715332031Q320.38250732421875 335.7784423828125 322.34368896484375 336.1706237792969Q324.30487060546875 336.56280517578125 336.562255859375 339.0139389038086Q348.81964111328125 341.46507263183594 351.6432189941406 342.6444396972656Q354.466796875 343.8238067626953 361.74461364746094 343.1276092529297Q369.0224304199219 342.43141174316406 370.1693420410156 331.5956115722656Z" fill="#000000" stroke="none" transform="scale(1,-1) translate(0,-256)" /><path d="M580 282Q578 295 597.5 299.5Q617 304 648.5 301.0Q680 298 715.5 287.5Q751 277 782.0 259.0Q813 241 830 215Q849 188 858.5 148.0Q868 108 871.5 67.5Q875 27 874.5 -1.5Q874 -30 872 -34Q869 -41 869.5 -49.5Q870 -58 868 -61Q866 -63 857.0 -72.0Q848 -81 838.0 -90.0Q828 -99 825 -100Q821 -101 804.5 -99.5Q788 -98 784 -101Q780 -104 785.0 -110.5Q790 -117 789 -120Q788 -123 782.0 -129.5Q776 -136 770 -140Q764 -145 758.5 -150.5Q753 -156 748 -157Q744 -158 739.0 -157.0Q734 -156 730 -161Q725 -166 727.0 -172.5Q729 -179 728 -183Q726 -186 722.0 -189.5Q718 -193 715 -198Q713 -203 711.0 -204.5Q709 -206 709 -206Q709 -206 694.0 -207.5Q679 -209 667 -210Q655 -210 637.5 -210.0Q620 -210 620 -210Q620 -210 623.5 -201.5Q627 -193 628 -182Q628 -172 626.5 -165.5Q625 -159 627 -153Q629 -146 634.0 -140.5Q639 -135 639 -135Q639 -135 642.5 -116.0Q646 -97 646 -81Q645 -65 643.5 -55.5Q642 -46 642 -43Q642 -41 642.5 -29.0Q643 -17 643.0 -2.0Q643 13 643.0 24.5Q643 36 643 38Q642 41 633.5 46.5Q625 52 619 57Q613 62 601.0 68.5Q589 75 585 81Q581 87 579.5 90.5Q578 94 576 96Q575 98 566.5 113.5Q558 129 555 135Q552 140 546.5 145.5Q541 151 538 158Q532 175 537 180Q539 183 541.5 185.0Q544 187 544 190Q543 193 539.0 195.0Q535 197 537 206Q539 215 545.0 222.5Q551 230 553 232Q555 234 556.5 233.0Q558 232 560 234Q562 236 571.0 243.5Q580 251 581 253Q583 255 582.0 265.5Q581 276 580 282Z" fill="#000000" stroke="none" transform="scale(1,-1) translate(0,-256)" /><path d="M580 281Q578 294 597.5 299.0Q617 304 648.5 301.0Q680 298 715.5 287.0Q751 276 782.0 258.0Q813 240 830 215Q849 188 858.5 147.5Q868 107 871.5 67.0Q875 27 874.5 -1.5Q874 -30 872 -34Q869 -42 869.5 -50.0Q870 -58 868 -61Q867 -63 857.5 -72.5Q848 -82 838.5 -90.5Q829 -99 825 -100Q821 -102 804.5 -100.0Q788 -98 784 -101Q781 -104 785.5 -111.0Q790 -118 789 -121Q788 -123 782.0 -129.5Q776 -136 770 -141Q764 -146 758.5 -151.5Q753 -157 749 -157Q744 -158 739.0 -157.0Q734 -156 730 -161Q725 -166 727.5 -172.5Q730 -179 728 -183Q726 -186 722.0 -189.5Q718 -193 716 -198Q713 -203 711.5 -205.0Q710 -207 710 -207Q710 -207 694.5 -208.0Q679 -209 667 -210Q656 -211 638.0 -211.0Q620 -211 620 -211Q620 -211 623.5 -202.0Q627 -193 628 -183Q629 -172 627.0 -165.5Q625 -159 627 -153Q630 -147 635.0 -141.0Q640 -135 640 -135Q640 -135 643.0 -116.5Q646 -98 646 -82Q645 -65 643.5 -55.5Q642 -46 642 -43Q642 -41 642.5 -29.5Q643 -18 643.0 -3.0Q643 12 643.5 24.0Q644 36 643 38Q642 41 633.5 46.5Q625 52 619 57Q613 62 601.5 68.0Q590 74 585 81Q581 87 579.5 90.0Q578 93 576 96Q575 98 566.5 113.5Q558 129 555 134Q552 140 546.5 145.0Q541 150 538 158Q532 174 537 180Q539 182 541.5 184.0Q544 186 544 189Q543 192 539.0 194.5Q535 197 537 206Q540 215 545.5 222.5Q551 230 553 232Q555 233 556.5 232.5Q558 232 560 234Q562 235 571.0 242.5Q580 250 581 252Q583 254 582.0 264.5Q581 275 580 281Z" fill="#000000" stroke="none" transform="scale(1,-1) translate(0,-256)" /></svg>