<?xml version="1.0" encoding="utf-8" ?>
<svg baseProfile="full" height="256" version="1.1" width="256" xmlns="http://www.w3.org/2000/svg" xmlns:ev="http://www.w3.org/2001/xml-events" xmlns:xlink="http://www.w3.org/1999/xlink"><defs /><path d="M587 689Q579 682 553.5 686.5Q528 691 503 700Q484 706 464.5 717.5Q445 729 432 745Q412 769 416.0 787.5Q420 806 423 809Q425 812 433.0 813.0Q441 814 446 793Q454 765 476.0 749.0Q498 733 522 725Q535 721 553.0 715.0Q571 709 582.5 703.0Q594 697 587 689Z" fill="#f5f5f5" stroke="none" transform="scale(1,-1) translate(0,-256)" /><path d="M563 826Q560 818 571.5 805.5Q583 793 607 791Q643 788 661.5 793.5Q680 799 671 815Q668 820 649.0 832.0Q630 844 609 844Q597 843 581.0 838.5Q565 834 563 826Z" fill="#f5f5f5" stroke="none" transform="scale(1,-1) translate(0,-256)" /></svg>