<?xml version="1.0" encoding="utf-8" ?>
<svg baseProfile="full" height="256" version="1.1" width="256" xmlns="http://www.w3.org/2000/svg" xmlns:ev="http://www.w3.org/2001/xml-events" xmlns:xlink="http://www.w3.org/1999/xlink"><defs /><path d="M919 759Q919 803 881.0 839.5Q843 876 779.0 897.5Q715 919 638 919Q560 919 494.0 899.0Q428 879 390.0 843.0Q352 807 357 759Q360 726 385.5 699.5Q411 673 451.5 654.0Q492 635 540.5 625.0Q589 615 638 615Q688 615 737.5 625.0Q787 635 828.0 654.0Q869 673 894.0 699.5Q919 726 919 759Z" fill="#9ee350" stroke="none" transform="scale(1,-1) translate(0,-256)" /></svg>