<?xml version="1.0" encoding="utf-8" ?>
<svg baseProfile="full" height="256" version="1.1" width="256" xmlns="http://www.w3.org/2000/svg" xmlns:ev="http://www.w3.org/2001/xml-events" xmlns:xlink="http://www.w3.org/1999/xlink"><defs /><path d="M511 315Q514 340 505.0 360.0Q496 380 461 381Q439 381 429.0 365.5Q419 350 416 326Q413 302 424.5 282.5Q436 263 455 261Q482 258 495.0 274.5Q508 291 511 315Z" fill="#2f2f2f" stroke="none" transform="scale(1,-1) translate(0,-256)" /><path d="M879 324Q878 349 866.5 367.5Q855 386 825 382Q802 379 790.5 361.5Q779 344 780 320Q781 296 793.5 278.0Q806 260 830 262Q858 264 869.0 282.0Q880 300 879 324Z" fill="#2f2f2f" stroke="none" transform="scale(1,-1) translate(0,-256)" /><path d="M742 162Q741 178 734.0 192.0Q727 206 708.0 214.5Q689 223 652 223Q612 222 586.5 203.0Q561 184 562 160Q563 136 583.5 118.5Q604 101 654 100Q705 100 724.0 119.0Q743 138 742 162Z" fill="#2f2f2f" stroke="none" transform="scale(1,-1) translate(0,-256)" /></svg>