<?xml version="1.0" encoding="utf-8" ?>
<svg baseProfile="full" height="256" version="1.1" width="256" xmlns="http://www.w3.org/2000/svg" xmlns:ev="http://www.w3.org/2001/xml-events" xmlns:xlink="http://www.w3.org/1999/xlink"><defs /><path d="M1195 487Q1195 510 1151.5 530.5Q1108 551 1030.5 566.0Q953 581 851.0 590.0Q749 599 632 599Q516 599 414.0 590.0Q312 581 234.5 566.0Q157 551 113.5 530.5Q70 510 70 487Q70 464 113.5 443.5Q157 423 234.5 408.0Q312 393 414.0 384.0Q516 375 632 375Q749 375 851.0 384.0Q953 393 1030.5 408.0Q1108 423 1151.5 443.5Q1195 464 1195 487Z" fill="#ffcc80" stroke="none" transform="scale(1,-1) translate(0,-256)" /><path d="M582 268Q578 271 567.5 273.0Q557 275 555 280Q554 281 545.0 313.5Q536 346 520.5 397.5Q505 449 485.5 508.0Q466 567 444.5 622.5Q423 678 402.0 719.0Q381 760 362 774Q335 794 306.5 800.0Q278 806 251.0 804.5Q224 803 202 800Q193 799 172.0 792.0Q151 785 142 777Q142 777 157.5 775.5Q173 774 196.5 764.5Q220 755 244.5 733.0Q269 711 287 669Q299 640 318.5 579.5Q338 519 362.5 442.0Q387 365 416 284Q423 263 438.5 254.0Q454 245 481 245Q534 244 555.0 250.0Q576 256 579.0 262.0Q582 268 582 268Z" fill="#ffcc80" stroke="none" transform="scale(1,-1) translate(0,-256)" /><path d="M792 582H821Q821 583 831 610Q845 648 863 680Q919 778 988 782Q1038 785 1062 752Q1083 724 1086 670Q1088 631 1081 583Q1076 551 1073 544Q1073 543 1073 542L1101 535Q1100 535 1100 534Q1104 544 1109 578Q1117 630 1114 672Q1111 734 1085 769Q1052 814 986 810Q902 805 839 694Q819 660 804 620Q792 588 792 582Z" fill="#ffcc80" stroke="none" transform="scale(1,-1) translate(0,-256)" /></svg>