<?xml version="1.0" encoding="utf-8" ?>
<svg baseProfile="full" height="256" version="1.1" width="256" xmlns="http://www.w3.org/2000/svg" xmlns:ev="http://www.w3.org/2001/xml-events" xmlns:xlink="http://www.w3.org/1999/xlink"><defs /><path d="M186 469 1156 476 1071 -43Q1071 -78 1037.0 -109.0Q1003 -140 942.5 -163.0Q882 -186 802.5 -199.0Q723 -212 632 -212Q542 -212 462.5 -199.0Q383 -186 322.5 -163.0Q262 -140 228.0 -109.0Q194 -78 194 -43L100 480Z" fill="#894f36" stroke="none" transform="scale(1,-1) translate(0,-256)" /><path d="M632 268Q789 268 903.0 287.5Q1017 307 1084.0 330.5Q1151 354 1166 367Q1166 367 1162.5 359.5Q1159 352 1154 346Q1149 339 1143.5 335.0Q1138 331 1138 331Q1075 298 943.5 273.0Q812 248 633 248Q605 248 574 249Q569 241 553.5 233.5Q538 226 505 226Q469 226 456.5 237.5Q444 249 442 257Q329 267 250.0 287.5Q171 308 127 334Q107 345 101.0 359.5Q95 374 95 374Q129 349 187.0 329.5Q245 310 318.5 296.5Q392 283 472.5 275.5Q553 268 632 268Z" fill="#894f36" stroke="none" transform="scale(1,-1) translate(0,-256)" /></svg>