<?xml version="1.0" encoding="utf-8" ?>
<svg baseProfile="full" height="256" version="1.1" width="256" xmlns="http://www.w3.org/2000/svg" xmlns:ev="http://www.w3.org/2001/xml-events" xmlns:xlink="http://www.w3.org/1999/xlink"><defs /><path d="M1013 809 987 796Q987 796 1005.0 794.5Q1023 793 1046.0 780.0Q1069 767 1086 732Q1095 713 1096.0 682.5Q1097 652 1093.0 618.0Q1089 584 1083.0 553.5Q1077 523 1072.5 504.0Q1068 485 1068 485L1156 436Q1156 436 1154.5 428.0Q1153 420 1152.5 411.5Q1152 403 1153.0 402.0Q1154 401 1159.0 413.5Q1164 426 1174 461Q1200 550 1193.0 621.5Q1186 693 1166 727Q1150 754 1125.0 770.0Q1100 786 1074.0 794.5Q1048 803 1030.5 806.0Q1013 809 1013 809Z" fill="#f7a54b" stroke="none" transform="scale(1,-1) translate(0,-256)" /><path d="M93 386Q93 360 135.0 336.5Q177 313 251.0 295.5Q325 278 423.0 268.5Q521 259 632 259Q744 259 842.0 268.5Q940 278 1014.0 295.5Q1088 313 1130.0 336.5Q1172 360 1172 386L1195 487Q1163 487 1098.5 487.0Q1034 487 948.0 487.0Q862 487 764.5 487.0Q667 487 568.5 487.0Q470 487 381.0 487.0Q292 487 221.5 487.0Q151 487 110.5 487.0Q70 487 70 487Z" fill="#f7a54b" stroke="none" transform="scale(1,-1) translate(0,-256)" /><path d="M146 543Q139 579 136.0 621.0Q133 663 137.0 698.5Q141 734 155 749Q159 753 171.0 757.0Q183 761 198 756Q226 747 246.0 726.0Q266 705 276.5 687.0Q287 669 287 669Q287 669 281.5 682.5Q276 696 268.0 713.0Q260 730 252 741Q240 759 219.0 772.5Q198 786 175.0 787.5Q152 789 134 770Q116 751 110.0 719.0Q104 687 104.5 650.5Q105 614 109.5 581.5Q114 549 117 531Z" fill="#f7a54b" stroke="none" transform="scale(1,-1) translate(0,-256)" /></svg>