<?xml version="1.0" encoding="utf-8" ?>
<svg baseProfile="full" height="256" version="1.1" width="256" xmlns="http://www.w3.org/2000/svg" xmlns:ev="http://www.w3.org/2001/xml-events" xmlns:xlink="http://www.w3.org/1999/xlink"><defs /><path d="M1096 503Q1096 518 1060.0 531.0Q1024 544 960.5 554.0Q897 564 812.5 569.5Q728 575 632 575Q536 575 452.0 569.5Q368 564 304.5 554.0Q241 544 205.0 531.0Q169 518 169 503Q169 488 205.0 475.0Q241 462 304.5 452.0Q368 442 452.0 436.5Q536 431 632 431Q728 431 812.5 436.5Q897 442 960.5 452.0Q1024 462 1060.0 475.0Q1096 488 1096 503Z" fill="#784d30" stroke="none" transform="scale(1,-1) translate(0,-256)" /></svg>