<?xml version="1.0" encoding="utf-8" ?>
<svg baseProfile="full" height="256" version="1.1" width="256" xmlns="http://www.w3.org/2000/svg" xmlns:ev="http://www.w3.org/2001/xml-events" xmlns:xlink="http://www.w3.org/1999/xlink"><defs /><path d="M308 253Q308 253 307.0 271.0Q306 289 306 302L121 371Q121 361 122.5 343.0Q124 325 124 320Q124 316 126.5 308.0Q129 300 137 292Q145 284 159.5 276.0Q174 268 196 261Q234 248 258.0 246.0Q282 244 298 244Q309 244 308 253Z" fill="#ffba5f" stroke="none" transform="scale(1,-1) translate(0,-256)" /><path d="M593 215Q593 228 593.0 234.5Q593 241 593 253L366 277Q367 265 367.5 256.5Q368 248 368 236Q369 226 378 221Q390 213 411.0 205.0Q432 197 469 193Q509 188 539.0 192.5Q569 197 581 202Q585 203 589.0 207.0Q593 211 593 215Z" fill="#ffba5f" stroke="none" transform="scale(1,-1) translate(0,-256)" /><path d="M887 238Q887 250 888.0 265.0Q889 280 888 280L660 254Q659 242 659.0 234.0Q659 226 659 213Q659 209 663.0 204.5Q667 200 670 199Q683 195 719.0 191.5Q755 188 792 194Q829 199 847.0 207.0Q865 215 878 223Q886 229 887 238Z" fill="#ffba5f" stroke="none" transform="scale(1,-1) translate(0,-256)" /><path d="M1139 348 955 287Q954 278 954.0 270.5Q954 263 953 253Q953 244 963 243Q975 242 999.5 247.0Q1024 252 1061 265Q1090 275 1109.5 290.0Q1129 305 1132 308Q1136 311 1137 320Q1138 333 1139 348Z" fill="#ffba5f" stroke="none" transform="scale(1,-1) translate(0,-256)" /><path d="M885 42V85Q885 91 880.0 94.0Q875 97 868 94Q853 88 834.5 81.0Q816 74 782 69Q748 65 720.0 65.5Q692 66 677 69Q670 70 664.5 65.5Q659 61 659 55Q659 42 659.0 34.0Q659 26 659 13Q659 4 668 1Q681 -4 711.5 -8.5Q742 -13 780 -8Q819 -2 838.5 5.0Q858 12 871 20Q879 25 882.0 31.5Q885 38 885 42Z" fill="#ffba5f" stroke="none" transform="scale(1,-1) translate(0,-256)" /><path d="M1106 140Q1107 147 1107.5 156.5Q1108 166 1106 172Q1104 178 1097 174Q1097 174 1080.5 163.5Q1064 153 1042 143Q1036 139 1019.5 134.0Q1003 129 986.0 124.5Q969 120 960 119Q955 119 950.0 113.0Q945 107 945 101Q944 88 943.5 80.0Q943 72 943 59Q942 52 950 49Q955 48 972.0 51.0Q989 54 1009.0 59.0Q1029 64 1042 70Q1069 79 1081.5 90.0Q1094 101 1094 101Q1103 109 1106 140Z" fill="#ffba5f" stroke="none" transform="scale(1,-1) translate(0,-256)" /><path d="M883 -149V-104Q884 -97 878.5 -94.5Q873 -92 866 -95Q852 -101 833.0 -107.5Q814 -114 781 -119Q749 -123 721.0 -123.5Q693 -124 679 -122Q673 -121 667.5 -125.0Q662 -129 662 -136Q662 -148 662.0 -156.5Q662 -165 662 -177Q662 -187 671 -190Q683 -194 712.5 -197.5Q742 -201 779 -196Q816 -190 838.5 -181.0Q861 -172 873 -164Q882 -158 883 -149Z" fill="#ffba5f" stroke="none" transform="scale(1,-1) translate(0,-256)" /><path d="M1069 -15Q1053 -23 1042.0 -31.5Q1031 -40 1020 -46Q995 -58 976.5 -63.5Q958 -69 951 -70Q935 -73 934 -89L932 -124Q932 -124 933.0 -130.0Q934 -136 939 -136Q972 -134 997.5 -120.5Q1023 -107 1039.5 -93.0Q1056 -79 1060 -75Q1072 -62 1075.0 -47.5Q1078 -33 1078 -22Q1078 -17 1075.5 -15.0Q1073 -13 1069 -15Z" fill="#ffba5f" stroke="none" transform="scale(1,-1) translate(0,-256)" /><path d="M1021 178 1027 228Q1027 234 1022.5 237.0Q1018 240 1012 236Q998 228 979.5 219.5Q961 211 933 201Q902 191 875.0 187.5Q848 184 834 184Q828 184 822.5 179.5Q817 175 816 169Q816 169 815.5 154.0Q815 139 815 126Q815 118 824 115Q836 112 864.5 113.5Q893 115 929 125Q961 133 980.0 142.0Q999 151 1011 160Q1018 166 1019.5 172.0Q1021 178 1021 178Z" fill="#ffba5f" stroke="none" transform="scale(1,-1) translate(0,-256)" /><path d="M1125 271Q1125 272 1123.5 275.5Q1122 279 1111 273Q1107 271 1103.0 269.5Q1099 268 1095 266Q1086 263 1081.5 259.0Q1077 255 1076 245L1070 201Q1069 189 1081.5 193.0Q1094 197 1098 199Q1104 202 1108.5 204.5Q1113 207 1116 212Q1120 221 1122.5 240.5Q1125 260 1125 271Z" fill="#ffba5f" stroke="none" transform="scale(1,-1) translate(0,-256)" /><path d="M1001 -11 1005 36Q1006 43 1001.5 45.5Q997 48 991 44Q978 35 963.5 25.5Q949 16 920 7Q859 -12 830 -11Q824 -11 819.0 -15.5Q814 -20 814 -27Q814 -39 814.0 -47.5Q814 -56 813 -69Q813 -78 820 -80Q831 -83 857.5 -81.0Q884 -79 917 -70Q954 -60 974.0 -44.0Q994 -28 994 -28Q997 -25 998.5 -20.0Q1000 -15 1001 -11Z" fill="#ffba5f" stroke="none" transform="scale(1,-1) translate(0,-256)" /><path d="M1087 74Q1085 73 1074.5 68.0Q1064 63 1058 61Q1046 57 1045 44L1038 -1Q1037 -10 1045 -10Q1052 -10 1067.5 0.0Q1083 10 1086 17Q1095 40 1095 68Q1095 75 1087 74Z" fill="#ffba5f" stroke="none" transform="scale(1,-1) translate(0,-256)" /><path d="M157 123Q157 123 155.5 132.5Q154 142 152.5 153.5Q151 165 151 172Q151 177 152.0 178.5Q153 180 155 180Q157 181 162.0 176.5Q167 172 170 169Q177 164 186 158Q202 149 220 141Q240 132 260.5 125.0Q281 118 304 115Q309 115 314.0 109.0Q319 103 319 97Q320 84 320.5 75.5Q321 67 321 55Q322 51 313.5 48.5Q305 46 305 46Q274 50 249.0 57.5Q224 65 197 80Q180 90 166 103Q160 109 158.5 116.0Q157 123 157 123Z" fill="#ffba5f" stroke="none" transform="scale(1,-1) translate(0,-256)" /><path d="M190 -16Q239 -42 269.5 -55.0Q300 -68 310 -70Q318 -72 324.0 -77.0Q330 -82 330 -88Q330 -98 330.5 -108.0Q331 -118 332 -127Q333 -133 329.5 -137.0Q326 -141 322 -141Q310 -142 284.0 -131.5Q258 -121 234.0 -105.5Q210 -90 201 -78Q193 -65 190.5 -51.5Q188 -38 185 -27Q184 -23 185.5 -19.0Q187 -15 190 -16Z" fill="#ffba5f" stroke="none" transform="scale(1,-1) translate(0,-256)" /><path d="M135 259Q135 272 144 269Q147 267 154.0 262.0Q161 257 171 254Q179 252 181.0 247.5Q183 243 184 235Q185 226 187.5 210.5Q190 195 190 195Q190 191 186.5 188.5Q183 186 179 186Q170 187 159.0 194.0Q148 201 144 207Q139 215 137.0 231.0Q135 247 135 259Z" fill="#ffba5f" stroke="none" transform="scale(1,-1) translate(0,-256)" /><path d="M173 76Q180 71 186.0 67.0Q192 63 199 61Q208 59 210.0 50.5Q212 42 212 42L218 1Q220 -8 211 -8Q204 -9 193 -4Q187 -1 182.0 4.0Q177 9 175 16Q172 30 169.5 44.5Q167 59 169 73Q169 79 173 76Z" fill="#ffba5f" stroke="none" transform="scale(1,-1) translate(0,-256)" /></svg>