<?xml version="1.0" encoding="utf-8" ?>
<svg baseProfile="full" height="256" version="1.1" width="256" xmlns="http://www.w3.org/2000/svg" xmlns:ev="http://www.w3.org/2001/xml-events" xmlns:xlink="http://www.w3.org/1999/xlink"><defs /><path d="M692 -107 815 -91Q815 -91 816.0 -101.5Q817 -112 810 -125Q805 -135 789.5 -153.5Q774 -172 756.0 -186.5Q738 -201 725 -199Q710 -197 710.0 -190.5Q710 -184 710 -184Q710 -184 694.5 -190.5Q679 -197 668 -195Q652 -191 654.0 -183.5Q656 -176 656 -176Q656 -176 645.5 -178.0Q635 -180 626 -178Q617 -175 618.0 -169.5Q619 -164 623 -158Q625 -155 636.0 -147.0Q647 -139 659.5 -129.5Q672 -120 682.0 -113.5Q692 -107 692 -107Z" fill="#adadb7" stroke="none" transform="scale(1,-1) translate(0,-256)" /><path d="M527 -68 620 -98Q620 -98 610.5 -110.5Q601 -123 586.5 -139.5Q572 -156 557.5 -167.5Q543 -179 532 -178Q516 -176 515.5 -168.0Q515 -160 515 -160Q515 -160 506.0 -164.0Q497 -168 485.5 -171.0Q474 -174 466 -170Q455 -165 456.0 -157.5Q457 -150 457 -150Q457 -150 449.5 -152.0Q442 -154 434.0 -153.5Q426 -153 422 -148Q416 -136 427.5 -127.5Q439 -119 443 -117Q446 -116 459.0 -108.5Q472 -101 487.5 -91.5Q503 -82 515.0 -75.0Q527 -68 527 -68Z" fill="#adadb7" stroke="none" transform="scale(1,-1) translate(0,-256)" /><path d="M479 780Q482 770 482.5 758.5Q483 747 481 739Q480 731 470.0 719.0Q460 707 450 707Q438 706 414.0 712.5Q390 719 370 722Q350 725 330.0 724.0Q310 723 295.5 723.0Q281 723 276 729Q270 739 285.5 756.0Q301 773 316 782Q328 790 350.5 800.0Q373 810 399.0 816.0Q425 822 447 818Q458 816 465.5 806.5Q473 797 476.0 788.5Q479 780 479 780Z" fill="#adadb7" stroke="none" transform="scale(1,-1) translate(0,-256)" /></svg>