<?xml version="1.0" encoding="utf-8" ?>
<svg baseProfile="full" height="256" version="1.1" width="256" xmlns="http://www.w3.org/2000/svg" xmlns:ev="http://www.w3.org/2001/xml-events" xmlns:xlink="http://www.w3.org/1999/xlink"><defs /><path d="M410 590Q410 590 438.0 574.5Q466 559 523 553Q560 549 589.5 558.0Q619 567 635.5 578.0Q652 589 652 589Q652 589 649.5 604.0Q647 619 648.5 639.5Q650 660 661.5 678.0Q673 696 701 703Q734 710 753.0 697.5Q772 685 782.0 662.5Q792 640 796 615Q802 585 791.5 553.0Q781 521 747 512Q723 506 706.0 512.5Q689 519 679.5 528.0Q670 537 670 537Q670 537 663.5 530.0Q657 523 653 512Q647 493 642.0 451.5Q637 410 642 344Q646 295 655.0 243.5Q664 192 675.0 149.5Q686 107 696 85Q711 52 729.0 38.0Q747 24 761 25Q773 27 778.0 37.0Q783 47 783.5 56.5Q784 66 784 66Q784 66 789.5 53.0Q795 40 803.0 23.0Q811 6 818 -5Q832 -27 848.0 -45.5Q864 -64 861 -65Q859 -65 836.5 -71.5Q814 -78 777.0 -84.0Q740 -90 696.0 -91.5Q652 -93 607 -84Q525 -68 469.0 -4.5Q413 59 383 143Q363 199 355.0 256.5Q347 314 346.5 364.5Q346 415 348 449Q351 490 366.0 522.0Q381 554 395.5 572.0Q410 590 410 590Z" fill="#000000" stroke="none" transform="scale(1,-1) translate(0,-256)" /></svg>