<?xml version="1.0" encoding="utf-8" ?>
<svg baseProfile="full" height="256" version="1.1" width="256" xmlns="http://www.w3.org/2000/svg" xmlns:ev="http://www.w3.org/2001/xml-events" xmlns:xlink="http://www.w3.org/1999/xlink"><defs /><path d="M1106 48Q1120 42 1136.0 22.5Q1152 3 1166.0 -21.0Q1180 -45 1187.0 -62.5Q1194 -80 1190 -81Q1186 -82 1168.0 -78.0Q1150 -74 1128.0 -68.0Q1106 -62 1090.0 -57.0Q1074 -52 1074 -52Q1074 -52 1064.0 -68.5Q1054 -85 1040.0 -106.0Q1026 -127 1014.5 -143.5Q1003 -160 1000 -161Q998 -161 981.5 -150.5Q965 -140 945.0 -126.0Q925 -112 910.0 -101.5Q895 -91 895 -91Q895 -91 883.0 -108.0Q871 -125 854.5 -147.5Q838 -170 824.5 -187.0Q811 -204 808 -204Q805 -204 790.5 -193.5Q776 -183 755.5 -167.0Q735 -151 715.5 -135.0Q696 -119 683.0 -108.0Q670 -97 670 -97Q670 -97 657.0 -110.5Q644 -124 626.5 -141.0Q609 -158 594.5 -171.5Q580 -185 577 -186Q574 -186 561.5 -172.5Q549 -159 531.5 -138.5Q514 -118 496.5 -97.0Q479 -76 468.0 -62.5Q457 -49 457 -49Q457 -49 443.0 -62.0Q429 -75 411.0 -91.5Q393 -108 379.0 -119.5Q365 -131 364 -128Q362 -120 364.5 -96.0Q367 -72 372.0 -44.5Q377 -17 381.0 3.0Q385 23 385 23Z" fill="#b1b1b1" stroke="none" transform="scale(1,-1) translate(0,-256)" /></svg>