<?xml version="1.0" encoding="utf-8" ?>
<svg baseProfile="full" height="256" version="1.1" width="256" xmlns="http://www.w3.org/2000/svg" xmlns:ev="http://www.w3.org/2001/xml-events" xmlns:xlink="http://www.w3.org/1999/xlink"><defs /><path d="M426 340Q415 334 378.5 337.5Q342 341 275 339Q233 337 190.5 336.5Q148 336 118.5 338.0Q89 340 87 349Q84 358 96.5 374.5Q109 391 129.0 408.0Q149 425 168 436Q194 450 224.5 462.0Q255 474 283.0 482.0Q311 490 328.5 494.5Q346 499 346 499Q346 499 361.0 485.0Q376 471 399 440Q413 420 421.5 398.0Q430 376 431.0 359.5Q432 343 426 340Z" fill="#fbbb02" stroke="none" transform="scale(1,-1) translate(0,-256)" /></svg>