<?xml version="1.0" encoding="utf-8" ?>
<svg baseProfile="full" height="256" version="1.1" width="256" xmlns="http://www.w3.org/2000/svg" xmlns:ev="http://www.w3.org/2001/xml-events" xmlns:xlink="http://www.w3.org/1999/xlink"><defs /><path d="M429 683Q430 685 436.5 696.0Q443 707 451.5 721.5Q460 736 467.5 747.5Q475 759 478 763Q483 770 488.0 767.0Q493 764 494 758Q494 755 496.5 741.5Q499 728 501.5 711.0Q504 694 506.5 681.0Q509 668 509 665Q510 655 501 655Q499 655 484.0 657.5Q469 660 454.0 662.5Q439 665 435 666Q422 669 429 683Z" fill="#ffa722" stroke="none" transform="scale(1,-1) translate(0,-256)" /><path d="M567 627Q569 628 583.0 631.0Q597 634 615.0 638.5Q633 643 647.5 646.0Q662 649 665 650Q672 652 674.0 647.5Q676 643 672 638Q670 636 661.5 624.0Q653 612 642.5 597.0Q632 582 623.5 570.5Q615 559 613 557Q607 550 601 556Q600 558 591.5 570.5Q583 583 574.0 596.5Q565 610 563 613Q556 624 567 627Z" fill="#ffa722" stroke="none" transform="scale(1,-1) translate(0,-256)" /><path d="M250 411Q248 409 240.5 398.0Q233 387 223.5 373.5Q214 360 206.0 349.0Q198 338 196 336Q191 328 194.5 323.0Q198 318 207 319Q213 320 233.5 325.5Q254 331 275.0 336.0Q296 341 300 342Q307 344 307.0 349.0Q307 354 305 357Q303 359 295.0 370.5Q287 382 278.5 394.0Q270 406 268 409Q258 425 250 411Z" fill="#ffa722" stroke="none" transform="scale(1,-1) translate(0,-256)" /><path d="M234 482Q230 483 212.5 493.5Q195 504 177.5 514.5Q160 525 155 528Q150 531 150.0 537.5Q150 544 158 547Q163 549 183.5 552.0Q204 555 225.0 558.0Q246 561 251 562Q258 564 261.0 560.0Q264 556 263 551Q263 546 260.5 532.0Q258 518 255.5 504.5Q253 491 252 486Q248 475 234 482Z" fill="#ffa722" stroke="none" transform="scale(1,-1) translate(0,-256)" /><path d="M361 652Q358 650 345.0 641.0Q332 632 319.0 623.5Q306 615 303 613Q294 606 291 619Q290 621 286.5 634.5Q283 648 278.5 665.5Q274 683 270.5 697.5Q267 712 267 715Q265 725 270.0 727.0Q275 729 281 725Q284 722 295.5 713.5Q307 705 321.0 695.0Q335 685 346.0 677.0Q357 669 359 667Q363 665 364.0 660.5Q365 656 361 652Z" fill="#ffa722" stroke="none" transform="scale(1,-1) translate(0,-256)" /></svg>