<?xml version="1.0" encoding="utf-8" ?>
<svg baseProfile="full" height="256" version="1.1" width="256" xmlns="http://www.w3.org/2000/svg" xmlns:ev="http://www.w3.org/2001/xml-events" xmlns:xlink="http://www.w3.org/1999/xlink"><defs /><path d="M394 661V409H458V745H410L311 674L343 625Z" fill="#fafafa" stroke="none" transform="scale(1,-1) translate(0,-256)" /><path d="M731 468V409H954V466H818L817 469Q846 498 866.0 518.0Q886 538 897 548Q950 600 950 655Q950 682 936 705Q923 727 897 740Q873 753 839 753Q809 753 786 742Q763 731 748 713Q734 695 729 676L786 652Q792 669 805 681Q817 693 838 693Q859 693 872 681Q885 669 885 652Q885 636 878 623Q871 610 854 591Q833 569 731 468Z" fill="#fafafa" stroke="none" transform="scale(1,-1) translate(0,-256)" /><path d="M353 -24Q386 -47 429 -47Q463 -47 490 -34Q517 -20 532 3Q546 26 546 55Q546 85 531 106Q516 127 491 137V141Q509 150 522 169Q534 188 534 215Q534 240 520 261Q507 281 482 293Q457 305 426 305Q383 305 355 283Q327 261 317 232L375 208Q380 224 393 235Q405 246 425 246Q444 246 456 235Q469 224 469 208Q469 187 454 176Q439 165 417 165H391V107H420Q448 107 464 94Q480 82 480 61Q480 41 465 28Q450 16 428 16Q405 16 390 29Q375 42 369 66L308 42Q320 -1 353 -24Z" fill="#fafafa" stroke="none" transform="scale(1,-1) translate(0,-256)" /><path d="M883 23V-39H948V23H989V83H948V297H878L729 75V23ZM883 83H800L879 201H883Z" fill="#fafafa" stroke="none" transform="scale(1,-1) translate(0,-256)" /></svg>