<?xml version="1.0" encoding="utf-8" ?>
<svg baseProfile="full" height="256" version="1.1" width="256" xmlns="http://www.w3.org/2000/svg" xmlns:ev="http://www.w3.org/2001/xml-events" xmlns:xlink="http://www.w3.org/1999/xlink"><defs /><path d="M582 449Q582 449 583.5 459.5Q585 470 571 481Q559 490 547.0 497.0Q535 504 524 526Q514 545 511.0 559.5Q508 574 504.5 588.5Q501 603 490.5 621.5Q480 640 455 667Q448 675 450.5 685.5Q453 696 463 700Q463 700 463.0 700.0Q463 700 463 700Q478 708 507.0 680.5Q536 653 558 599Q567 576 576.5 546.0Q586 516 589.0 489.0Q592 462 582 449Z" fill="#fff685" stroke="none" transform="scale(1,-1) translate(0,-256)" /><path d="M323 416Q334 411 346.0 415.5Q358 420 367.0 428.5Q376 437 376 443Q376 448 368.5 463.5Q361 479 351.0 497.0Q341 515 331.5 529.5Q322 544 319 546Q314 549 301.5 544.5Q289 540 279.0 530.0Q269 520 270 506Q271 493 277.5 474.5Q284 456 295.5 439.5Q307 423 323 416Z" fill="#fff685" stroke="none" transform="scale(1,-1) translate(0,-256)" /><path d="M182 373Q184 355 178.5 337.5Q173 320 166.5 308.0Q160 296 160 296Q160 296 150.5 310.0Q141 324 128.0 345.5Q115 367 105 391Q87 432 82.0 469.0Q77 506 87 521Q98 536 125 536Q141 536 142.0 525.5Q143 515 144 503Q148 464 162 426Q164 419 172.5 404.5Q181 390 182 373Z" fill="#fff685" stroke="none" transform="scale(1,-1) translate(0,-256)" /></svg>