<?xml version="1.0" encoding="utf-8" ?>
<svg baseProfile="full" height="256" version="1.1" width="256" xmlns="http://www.w3.org/2000/svg" xmlns:ev="http://www.w3.org/2001/xml-events" xmlns:xlink="http://www.w3.org/1999/xlink"><defs /><path d="M333 845Q294 845 254.0 834.0Q214 823 179 800Q219 833 268.0 849.5Q317 866 365 866Q443 866 500.0 835.5Q557 805 593.0 757.0Q629 709 646 656L623 601Q619 594 611.0 594.0Q603 594 601 602Q591 628 570.5 668.5Q550 709 517.5 749.5Q485 790 439.5 817.5Q394 845 333 845Z" fill="#da2e75" stroke="none" transform="scale(1,-1) translate(0,-256)" /><path d="M927 866Q990 866 1048.5 842.5Q1107 819 1148.5 769.5Q1190 720 1204.5 644.0Q1219 568 1194 463Q1179 396 1136.0 326.0Q1093 256 1035.0 188.5Q977 121 914.0 60.5Q851 0 795.0 -48.0Q739 -96 699.5 -126.0Q660 -156 650 -164Q652 -151 655 -148Q679 -122 717.5 -82.5Q756 -43 803.0 6.5Q850 56 898.0 111.5Q946 167 989.5 226.5Q1033 286 1065.0 346.0Q1097 406 1110 464Q1133 563 1122.0 635.5Q1111 708 1076.0 754.5Q1041 801 990.5 823.0Q940 845 883 845Q860 845 838.5 843.0Q817 841 798 834Q825 848 857.0 857.0Q889 866 927 866Z" fill="#da2e75" stroke="none" transform="scale(1,-1) translate(0,-256)" /><path d="M651 309Q656 306 655.0 300.0Q654 294 648 293L575 261L573 167Q570 152 557 159Q530 175 494.0 211.0Q458 247 425 292Q431 248 431.0 207.0Q431 166 425 139Q422 126 409 137L328 190L284 159L254 193Q254 193 257.0 220.5Q260 248 263.0 289.5Q266 331 267.0 372.5Q268 414 264 442L449 493Q472 463 505.0 429.0Q538 395 575.5 363.0Q613 331 651 309Z" fill="#da2e75" stroke="none" transform="scale(1,-1) translate(0,-256)" /></svg>