<?xml version="1.0" encoding="utf-8" ?>
<svg baseProfile="full" height="256" version="1.1" width="256" xmlns="http://www.w3.org/2000/svg" xmlns:ev="http://www.w3.org/2001/xml-events" xmlns:xlink="http://www.w3.org/1999/xlink"><defs /><path d="M761 625Q778 625 817.0 637.0Q856 649 892 683Q909 699 910.0 727.0Q911 755 887 772Q864 788 832.5 776.0Q801 764 781 737Q756 701 738 656Q734 645 741.0 635.0Q748 625 761 625Z" fill="#f386ab" stroke="none" transform="scale(1,-1) translate(0,-256)" /><path d="M180 498Q179 515 188.0 544.0Q197 573 218.0 606.5Q239 640 273 669Q282 677 291.5 684.0Q301 691 310 700Q317 707 323.5 716.0Q330 725 331 735Q332 746 325.5 755.5Q319 765 309 770Q289 779 268.5 773.0Q248 767 230.5 752.0Q213 737 201 720Q183 694 170.5 657.0Q158 620 161 582Q163 549 171.5 524.5Q180 500 180 498Z" fill="#f386ab" stroke="none" transform="scale(1,-1) translate(0,-256)" /></svg>