<?xml version="1.0" encoding="utf-8" ?>
<svg baseProfile="full" height="256" version="1.1" width="256" xmlns="http://www.w3.org/2000/svg" xmlns:ev="http://www.w3.org/2001/xml-events" xmlns:xlink="http://www.w3.org/1999/xlink"><defs /><path d="M306 484Q306 484 318.5 458.5Q331 433 353.5 398.0Q376 363 407 333Q452 287 500.0 245.0Q548 203 582 183Q587 180 592.0 183.0Q597 186 595 192L596 283L661 315Q666 316 667.0 322.0Q668 328 663 331Q607 365 551.0 412.0Q495 459 459 504Z" fill="#ffe02e" stroke="none" transform="scale(1,-1) translate(0,-256)" /><path d="M368 539Q368 539 377.5 512.5Q387 486 396.5 445.0Q406 404 407 361Q408 297 405.0 233.5Q402 170 393 131Q392 125 386.0 124.0Q380 123 377 128L311 190L243 166Q238 163 233.5 166.5Q229 170 230 176Q245 240 249.5 313.0Q254 386 247 442Z" fill="#ffe02e" stroke="none" transform="scale(1,-1) translate(0,-256)" /><path d="M193 265Q228 274 259.0 309.0Q290 344 330 415Q330 415 329.0 429.0Q328 443 324.0 462.0Q320 481 313.0 497.0Q306 513 294 517Q272 524 248.0 530.5Q224 537 201 541Q164 543 135.0 540.0Q106 537 82 525Q66 521 65.5 481.0Q65 441 88 387Q103 351 121.0 321.5Q139 292 157.5 276.0Q176 260 193 265Z" fill="#ffe02e" stroke="none" transform="scale(1,-1) translate(0,-256)" /><path d="M570 437Q539 419 492.5 421.5Q446 424 367 445Q367 445 358.0 455.5Q349 466 338.0 481.5Q327 497 321.0 513.5Q315 530 321 542Q330 563 342.5 584.5Q355 606 369 626Q393 653 415.5 672.0Q438 691 463 700Q477 708 506.0 680.5Q535 653 557 599Q571 563 579.5 529.0Q588 495 586.5 470.5Q585 446 570 437Z" fill="#ffe02e" stroke="none" transform="scale(1,-1) translate(0,-256)" /><path d="M1149 350H667L588 424Q588 424 597.5 432.0Q607 440 615.5 461.0Q624 482 621 521H1205Q1201 491 1194 463Q1188 435 1176.5 407.0Q1165 379 1149 350Z" fill="#ffe02e" stroke="none" transform="scale(1,-1) translate(0,-256)" /></svg>