<?xml version="1.0" encoding="utf-8" ?>
<svg baseProfile="full" height="256" version="1.1" width="256" xmlns="http://www.w3.org/2000/svg" xmlns:ev="http://www.w3.org/2001/xml-events" xmlns:xlink="http://www.w3.org/1999/xlink"><defs /><path d="M1012 547Q1038 539 1061.5 514.0Q1085 489 1091.5 452.0Q1098 415 1073 372Q1055 341 1026.0 316.0Q997 291 964.0 272.5Q931 254 900.5 241.5Q870 229 849.0 222.0Q828 215 824 214Q828 216 854.0 227.5Q880 239 915.5 259.5Q951 280 984.0 308.5Q1017 337 1035 373Q1052 407 1052.0 434.5Q1052 462 1043 483Q1034 505 1020.5 520.0Q1007 535 996.5 542.5Q986 550 986 550Q993 551 1002.5 549.0Q1012 547 1012 547Z" fill="#ad236b" stroke="none" transform="scale(1,-1) translate(0,-256)" /><path d="M892 499Q892 488 889.5 478.5Q887 469 879 467Q873 465 868.0 468.5Q863 472 860 477Q858 482 857.5 487.5Q857 493 856 499Q854 532 841 558Q827 585 812.0 593.0Q797 601 797 601Q797 601 813.5 598.0Q830 595 846 585Q863 574 873.0 560.5Q883 547 888 525Q889 521 890.5 514.0Q892 507 892 499Z" fill="#ad236b" stroke="none" transform="scale(1,-1) translate(0,-256)" /><path d="M448 596Q474 604 507.5 596.0Q541 588 567.0 561.0Q593 534 596 484Q598 448 587.5 411.5Q577 375 559.5 341.0Q542 307 524.0 279.5Q506 252 492.5 235.0Q479 218 476 214Q479 218 494.0 242.0Q509 266 527.0 302.5Q545 339 556.5 381.5Q568 424 563 464Q559 501 543.5 524.0Q528 547 509 560Q489 573 469.5 578.0Q450 583 437.5 583.5Q425 584 425 584Q430 588 439.0 592.0Q448 596 448 596Z" fill="#ad236b" stroke="none" transform="scale(1,-1) translate(0,-256)" /><path d="M375 489Q381 481 384.0 471.5Q387 462 381 455Q373 446 361 454Q356 456 352.5 460.5Q349 465 345 469Q325 496 299 510Q273 525 256.0 523.5Q239 522 239 522Q239 522 254.5 528.5Q270 535 289 535Q308 536 324.0 530.0Q340 524 357 509Q360 506 365.0 500.5Q370 495 375 489Z" fill="#ad236b" stroke="none" transform="scale(1,-1) translate(0,-256)" /></svg>