<?xml version="1.0" encoding="utf-8" ?>
<svg baseProfile="full" height="256" version="1.1" width="256" xmlns="http://www.w3.org/2000/svg" xmlns:ev="http://www.w3.org/2001/xml-events" xmlns:xlink="http://www.w3.org/1999/xlink"><defs /><path d="M1069.041259765625 -140.97694396972656Q1069.041259765625 -110.62863159179688 1047.5881423950195 -89.69876098632812Q1026.135025024414 -68.76889038085938 996.8332061767578 -68.76889038085938Q967.5313873291016 -68.76889038085938 946.6015167236328 -89.69876098632812Q925.6716461181641 -110.62863159179688 925.6716461181641 -140.97694396972656Q925.6716461181641 -170.2787628173828 946.6015167236328 -191.20863342285156Q967.5313873291016 -212.1385040283203 996.8332061767578 -212.1385040283203Q1026.135025024414 -212.1385040283203 1047.5881423950195 -191.20863342285156Q1069.041259765625 -170.2787628173828 1069.041259765625 -140.97694396972656Z" fill="#78909c" stroke="none" transform="scale(1,-1) translate(0,-256)" /><path d="M700 -212Q737 -212 767.5 -194.0Q798 -176 816.0 -145.5Q834 -115 834 -78Q834 -41 816.0 -10.0Q798 21 767.5 39.0Q737 57 700 57Q662 57 631.5 39.0Q601 21 583.0 -10.0Q565 -41 565 -78Q565 -115 583.0 -145.5Q601 -176 631.5 -194.0Q662 -212 700 -212Z" fill="#78909c" stroke="none" transform="scale(1,-1) translate(0,-256)" /></svg>