<?xml version="1.0" encoding="utf-8" ?>
<svg baseProfile="full" height="256" version="1.1" width="256" xmlns="http://www.w3.org/2000/svg" xmlns:ev="http://www.w3.org/2001/xml-events" xmlns:xlink="http://www.w3.org/1999/xlink"><defs /><path d="M915.5812530517578 682.6309051513672 946.9740753173828 678.1405487060547 959.3173980712891 735.3195953369141 927.9249725341797 742.0523529052734Z" fill="#757575" stroke="none" transform="scale(1,-1) translate(0,-256)" /><path d="M913 691Q913 691 907.0 692.5Q901 694 892.0 687.5Q883 681 873 658Q859 625 846.5 587.0Q834 549 825.0 515.0Q816 481 810.5 459.0Q805 437 805 437Q805 437 810.0 440.5Q815 444 823 447Q829 449 835.5 450.5Q842 452 847 455Q856 461 860.0 471.5Q864 482 866 493Q875 532 891.0 570.0Q907 608 919 646Q921 652 923.0 667.5Q925 683 913 691Z" fill="#757575" stroke="none" transform="scale(1,-1) translate(0,-256)" /><path d="M835 217Q848 217 861.5 212.5Q875 208 878.0 202.5Q881 197 863 192Q849 188 811.5 186.5Q774 185 728.5 184.5Q683 184 645 184Q575 184 542.5 188.0Q510 192 500.5 196.0Q491 200 491 200Q491 207 495.5 211.0Q500 215 507 215Q507 215 528.5 215.5Q550 216 585.0 216.0Q620 216 660.5 216.5Q701 217 738.0 217.0Q775 217 801.5 217.0Q828 217 835 217Z" fill="#757575" stroke="none" transform="scale(1,-1) translate(0,-256)" /><path d="M810 431Q823 431 839.5 426.5Q856 422 857 410Q859 398 838.5 397.5Q818 397 797 397L607 406Q576 407 570 418Q575 425 584.5 427.5Q594 430 607 432H612Q630 434 672 434Q702 434 734.0 433.5Q766 433 787.5 432.0Q809 431 810 431Z" fill="#757575" stroke="none" transform="scale(1,-1) translate(0,-256)" /><path d="M517 453Q507 456 502 445Q500 441 501.0 436.5Q502 432 506 431Q510 430 515.0 431.5Q520 433 523 439Q529 450 517 453Z" fill="#757575" stroke="none" transform="scale(1,-1) translate(0,-256)" /><path d="M485.1481018066406 383.3586883544922 413.46435546875 427.07579040527344 411.225341796875 431.5577850341797 480.6712646484375 395.68357849121094 553.4907836914062 395.6577911376953 546.7638244628906 381.0962677001953Z" fill="#757575" stroke="none" transform="scale(1,-1) translate(0,-256)" /><path d="M943 913Q945 913 947 912Q947 912 954.0 908.5Q961 905 966.0 891.5Q971 878 965 847Q957 805 949.0 785.0Q941 765 929 754Q921 746 907.5 747.5Q894 749 895 762L915 888Q916 899 924.0 906.0Q932 913 943 913Z" fill="#757575" stroke="none" transform="scale(1,-1) translate(0,-256)" /></svg>