<?xml version="1.0" encoding="utf-8" ?>
<svg baseProfile="full" height="256" version="1.1" width="256" xmlns="http://www.w3.org/2000/svg" xmlns:ev="http://www.w3.org/2001/xml-events" xmlns:xlink="http://www.w3.org/1999/xlink"><defs /><path d="M1064 416Q1106 416 1127.0 405.0Q1148 394 1155.5 378.5Q1163 363 1163 351Q1163 339 1156.0 323.5Q1149 308 1129.0 296.5Q1109 285 1067 285Q1057 285 1024.5 287.0Q992 289 944.5 293.0Q897 297 841.0 302.5Q785 308 729 315Q726 315 728 313Q773 277 816.0 241.5Q859 206 895.5 175.5Q932 145 956.5 123.5Q981 102 988 95Q1017 66 1023.5 43.5Q1030 21 1023.5 5.5Q1017 -10 1008 -19Q990 -37 967 -37Q933 -37 894 2Q888 9 866.5 33.0Q845 57 814.0 93.5Q783 130 747.5 173.5Q712 217 677 262Q675 264 675 261Q681 204 686.5 148.0Q692 92 696.0 44.5Q700 -3 702.5 -35.0Q705 -67 705 -77Q705 -119 693.5 -139.5Q682 -160 666.5 -166.5Q651 -173 639 -173Q626 -173 610.5 -166.5Q595 -160 584.0 -139.5Q573 -119 573 -77Q573 -67 575.0 -35.0Q577 -3 581.0 44.5Q585 92 590.5 148.0Q596 204 602 261Q602 264 601 262Q565 217 529.5 173.5Q494 130 463.0 93.5Q432 57 411.0 33.0Q390 9 383 2Q344 -37 310 -37Q287 -37 269 -19Q241 9 256 46Q259 58 268.0 70.0Q277 82 289 95Q297 102 321.0 123.0Q345 144 381.5 175.0Q418 206 462.0 241.5Q506 277 551 312Q553 314 550 314Q493 307 437.0 301.5Q381 296 334.0 292.0Q287 288 254.5 286.0Q222 284 212 284Q170 284 149.5 295.5Q129 307 122.5 322.5Q116 338 116 350Q116 362 122.5 377.5Q129 393 149.0 404.5Q169 416 210 415Q220 415 252.5 413.0Q285 411 332.5 407.0Q380 403 436.0 397.5Q492 392 549 386Q551 386 549 387Q504 423 461.0 458.5Q418 494 381.5 525.0Q345 556 320.5 577.0Q296 598 289 605Q264 630 256 654Q242 692 269 719Q290 741 320.0 736.0Q350 731 383 698Q390 691 411.0 666.5Q432 642 462.5 606.0Q493 570 528.0 526.5Q563 483 598 439Q600 437 600 440Q593 497 587.5 553.0Q582 609 578.0 656.5Q574 704 572.0 736.0Q570 768 570 778Q570 820 581.5 840.5Q593 861 608.5 867.5Q624 874 636 874Q648 874 663.5 867.5Q679 861 690.5 840.5Q702 820 702 778Q702 769 700.0 736.5Q698 704 694.0 656.5Q690 609 684.5 553.0Q679 497 672 440Q672 438 674 439Q710 484 745.5 527.5Q781 571 811.5 607.5Q842 644 863.5 668.0Q885 692 892 699Q924 731 954.0 736.5Q984 742 1006 720Q1014 711 1020.5 695.5Q1027 680 1020.5 657.5Q1014 635 985 606Q978 599 954.0 578.0Q930 557 893.5 526.0Q857 495 813.5 459.5Q770 424 725 388Q723 386 726 386Q783 393 839.0 398.5Q895 404 942.5 408.0Q990 412 1022.0 414.0Q1054 416 1064 416Z" fill="#7cb342" stroke="none" transform="scale(1,-1) translate(0,-256)" /></svg>