<?xml version="1.0" encoding="utf-8" ?>
<svg baseProfile="full" height="256" version="1.1" width="256" xmlns="http://www.w3.org/2000/svg" xmlns:ev="http://www.w3.org/2001/xml-events" xmlns:xlink="http://www.w3.org/1999/xlink"><defs /><path d="M1099 526Q1117 471 1132.0 398.5Q1147 326 1158.0 246.5Q1169 167 1175.0 91.0Q1181 15 1181.0 -47.5Q1181 -110 1174 -148Q1174 -148 1170.5 -159.0Q1167 -170 1157.0 -182.0Q1147 -194 1130 -197Q1130 -197 1070.0 -201.0Q1010 -205 899.5 -208.5Q789 -212 638 -212Q486 -212 375.5 -208.5Q265 -205 205.0 -201.0Q145 -197 145 -197Q126 -194 116.5 -181.5Q107 -169 104.0 -158.5Q101 -148 101 -148Q94 -110 94.0 -47.5Q94 15 100.0 91.0Q106 167 117.0 246.5Q128 326 143.0 398.5Q158 471 176 526Q179 537 196.5 551.5Q214 566 235.0 577.5Q256 589 270 589Q270 589 295.5 590.5Q321 592 362.5 594.0Q404 596 453.5 598.0Q503 600 551.0 601.5Q599 603 638 603Q676 603 724.0 601.5Q772 600 821.5 598.0Q871 596 912.5 594.0Q954 592 979.5 590.5Q1005 589 1005 589Q1019 589 1040.0 577.5Q1061 566 1078.5 551.5Q1096 537 1099 526Z" fill="#e6a467" stroke="none" transform="scale(1,-1) translate(0,-256)" /><path d="M951 379Q951 379 953.5 355.0Q956 331 959.0 291.5Q962 252 963 204Q963 204 963.5 197.0Q964 190 959.5 182.5Q955 175 940 175H852Q838 175 838 189Q836 189 834.5 206.0Q833 223 831.0 250.5Q829 278 827.5 309.5Q826 341 826 369Q826 369 825.0 382.0Q824 395 837 404Q842 407 845.0 409.5Q848 412 849.5 421.5Q851 431 850 455Q850 462 845.5 493.5Q841 525 832.0 570.0Q823 615 807.0 664.0Q791 713 767.5 756.0Q744 799 711.5 826.0Q679 853 636 853Q593 853 560.5 827.5Q528 802 505.0 761.5Q482 721 467.5 675.5Q453 630 444.5 588.5Q436 547 432.0 520.0Q428 493 428 490Q423 459 423.5 443.0Q424 427 427.5 419.0Q431 411 435 403Q437 400 441.5 390.5Q446 381 445 364L442 208Q442 202 438.0 190.5Q434 179 417 179L339 182Q323 184 316.5 189.5Q310 195 310 209L316 370Q318 397 336 410Q344 415 349.0 418.5Q354 422 358.0 435.0Q362 448 367 481Q368 485 371.0 518.0Q374 551 383.5 600.0Q393 649 410.5 703.0Q428 757 457.5 804.5Q487 852 531.0 882.5Q575 913 637 913Q690 913 729.5 888.5Q769 864 798.0 824.5Q827 785 846.5 737.0Q866 689 878.0 641.0Q890 593 896.0 551.5Q902 510 904.5 484.0Q907 458 908 455Q913 425 923.0 418.0Q933 411 940 404Q943 401 947.0 392.0Q951 383 951 379Z" fill="#e6a467" stroke="none" transform="scale(1,-1) translate(0,-256)" /></svg>