<?xml version="1.0" encoding="utf-8" ?>
<svg baseProfile="full" height="256" version="1.1" width="256" xmlns="http://www.w3.org/2000/svg" xmlns:ev="http://www.w3.org/2001/xml-events" xmlns:xlink="http://www.w3.org/1999/xlink"><defs /><path d="M1047 471Q1060 434 1069.5 382.0Q1079 330 1085.5 275.0Q1092 220 1096.0 172.0Q1100 124 1101.5 94.5Q1103 65 1103 65Q1085 66 1055.5 57.5Q1026 49 995.5 26.0Q965 3 943.0 -39.0Q921 -81 918 -147Q918 -147 879.5 -150.5Q841 -154 777.0 -157.0Q713 -160 637 -160Q562 -160 498.0 -157.0Q434 -154 395.5 -150.5Q357 -147 357 -147Q354 -81 332.0 -39.0Q310 3 279.5 25.5Q249 48 219.5 57.0Q190 66 172 65Q172 65 173.5 94.5Q175 124 179.0 171.5Q183 219 189.5 274.5Q196 330 205.5 382.0Q215 434 228 471Q228 471 277.5 474.5Q327 478 419.0 481.5Q511 485 637 485Q764 485 855.5 481.5Q947 478 997.0 474.5Q1047 471 1047 471Z" fill="#a15d38" stroke="none" transform="scale(1,-1) translate(0,-256)" /><path d="M914 539Q919 521 921.5 505.5Q924 490 926 479Q921 479 916.0 479.5Q911 480 906 480Q904 492 902.5 507.5Q901 523 898 540Z" fill="#a15d38" stroke="none" transform="scale(1,-1) translate(0,-256)" /><path d="M453 544Q449 526 446.0 511.0Q443 496 441 483Q437 482 432.0 482.0Q427 482 423 482Q424 496 427.5 511.5Q431 527 436 545Z" fill="#a15d38" stroke="none" transform="scale(1,-1) translate(0,-256)" /></svg>