<?xml version="1.0" encoding="utf-8" ?>
<svg baseProfile="full" height="256" version="1.1" width="256" xmlns="http://www.w3.org/2000/svg" xmlns:ev="http://www.w3.org/2001/xml-events" xmlns:xlink="http://www.w3.org/1999/xlink"><defs /><path d="M638 546Q490 546 381.5 542.5Q273 539 220 534Q195 532 185.5 529.0Q176 526 176 526Q179 537 195.0 552.0Q211 567 232.5 579.5Q254 592 273 596Q273 596 308.0 599.5Q343 603 423.5 606.5Q504 610 641 610Q778 610 858.5 606.5Q939 603 973.5 599.5Q1008 596 1008 596Q1023 595 1042.0 582.5Q1061 570 1077.0 554.5Q1093 539 1098 529Q1098 529 1093.0 532.0Q1088 535 1068 535Q1040 536 992.0 537.5Q944 539 889.0 540.5Q834 542 782.0 543.0Q730 544 691.0 545.0Q652 546 638 546Z" fill="#784d30" stroke="none" transform="scale(1,-1) translate(0,-256)" /></svg>