<?xml version="1.0" encoding="utf-8" ?>
<svg baseProfile="full" height="256" version="1.1" width="256" xmlns="http://www.w3.org/2000/svg" xmlns:ev="http://www.w3.org/2001/xml-events" xmlns:xlink="http://www.w3.org/1999/xlink"><defs /><path d="M1070 561Q923 568 789.0 570.0Q655 572 541.0 570.5Q427 569 341.0 566.0Q255 563 205 560Q211 564 216.5 568.5Q222 573 228 577Q282 580 366.5 582.5Q451 585 559.0 586.0Q667 587 791.0 585.5Q915 584 1048 578Q1058 572 1070 561Z" fill="#3e2723" stroke="none" transform="scale(1,-1) translate(0,-256)" /><path d="M931 402Q921 412 915.5 423.0Q910 434 908 455Q907 459 906.5 465.5Q906 472 906 480Q911 480 916.0 479.5Q921 479 926 479Q926 479 927.0 467.5Q928 456 931.5 441.5Q935 427 943 417Q960 397 961 375Q961 371 964.5 345.0Q968 319 971.0 279.0Q974 239 975 192Q975 192 974.0 185.5Q973 179 967.5 172.0Q962 165 949 165H853Q844 165 837 171Q843 179 848 188Q849 185 852 185H938Q951 185 954.0 193.0Q957 201 957 207Q957 209 955.0 229.5Q953 250 951.0 276.5Q949 303 947.5 325.0Q946 347 945 354Q944 367 942.0 379.5Q940 392 931 402Z" fill="#3e2723" stroke="none" transform="scale(1,-1) translate(0,-256)" /><path d="M464 795Q464 796 464 796V795Q464 795 464.0 795.0Q464 795 464 795Z" fill="#3e2723" stroke="none" transform="scale(1,-1) translate(0,-256)" /><path d="M427 401Q417 421 417.5 434.5Q418 448 423 482Q427 482 432.0 482.0Q437 482 441 483Q434 456 435.0 441.0Q436 426 440.0 418.0Q444 410 448 403Q451 398 453.5 389.0Q456 380 456 374L451 196Q451 187 444.0 180.0Q437 173 427 173L356 172Q330 172 321.0 175.5Q312 179 312 179L324 192L417 189Q424 189 429.0 195.5Q434 202 434 211L439 368Q440 381 434.5 390.0Q429 399 427 401Z" fill="#3e2723" stroke="none" transform="scale(1,-1) translate(0,-256)" /></svg>