<?xml version="1.0" encoding="utf-8" ?>
<svg baseProfile="full" height="256" version="1.1" width="256" xmlns="http://www.w3.org/2000/svg" xmlns:ev="http://www.w3.org/2001/xml-events" xmlns:xlink="http://www.w3.org/1999/xlink"><defs /><path d="M-223.63633728027344 568.9706878662109Q-224.193603515625 580.97314453125 -218.0773468017578 585.9466705322266Q-211.96109008789062 590.9201965332031 -206.5108184814453 582.8965606689453Q-172.59898376464844 532.7494964599609 -153.65567016601562 474.167236328125Q-134.7123565673828 415.58497619628906 -126.73916625976562 357.05023193359375Q-118.76597595214844 298.51548767089844 -118.68303680419922 247.51494598388672Q-118.60009765625 196.514404296875 -123.63661193847656 159.5360870361328Q-138.17149353027344 40.59861755371094 -178.7562255859375 -42.22589111328125Q-219.34095764160156 -125.05039978027344 -278.0352783203125 -167.79632568359375Q-336.72959899902344 -210.54225158691406 -407.4259490966797 -210.2360382080078Q-449.47808837890625 -210.05389404296875 -490.2091293334961 -186.37738800048828Q-530.9401702880859 -162.7008819580078 -564.8846206665039 -120.05370330810547Q-598.8290710449219 -77.40652465820312 -622.0407180786133 -19.30577850341797Q-645.2523651123047 38.79496765136719 -652.2657165527344 107.82559204101562Q-656.9325866699219 155.84597778320312 -655.7944488525391 207.3412322998047Q-654.6563110351562 258.83648681640625 -643.4644012451172 309.78819274902344Q-632.2724914550781 360.7398986816406 -606.4711456298828 407.62831115722656Q-602.7839965820312 414.61236572265625 -597.3076324462891 412.58863830566406Q-591.8312683105469 410.5649108886719 -589.4282531738281 402.5544738769531Q-586.4418792724609 388.54148864746094 -580.4147720336914 373.0153274536133Q-574.3876647949219 357.4891662597656 -564.3686828613281 348.94573974609375Q-554.3497009277344 340.4023132324219 -539.0960235595703 344.3362579345703Q-523.8379974365234 349.2701873779297 -517.9634094238281 368.74481201171875Q-512.0888214111328 388.2194366455078 -512.2804794311523 414.2203598022461Q-512.4721374511719 440.2212829589844 -515.4085006713867 465.73409271240234Q-518.3448638916016 491.2469024658203 -520.0949401855469 509.2545471191406Q-525.9502716064453 564.2801055908203 -524.1918106079102 618.2726821899414Q-522.433349609375 672.2652587890625 -509.4043884277344 725.2090148925781Q-494.5166320800781 785.1447448730469 -471.50347900390625 821.5451965332031Q-448.4903259277344 857.9456481933594 -421.89221954345703 877.8305130004883Q-395.2941131591797 897.7153778076172 -369.3598175048828 905.1030731201172Q-343.42552185058594 912.4907684326172 -322.0860290527344 914.3983459472656Q-314.7726135253906 914.3666687011719 -312.07574462890625 903.8549499511719Q-309.3788757324219 893.3432312011719 -314.2892761230469 885.3644714355469Q-322.8824768066406 871.4016418457031 -331.49959564208984 851.9388961791992Q-340.11671447753906 832.4761505126953 -345.1010437011719 807.4976501464844Q-354.4254608154297 765.5378875732422 -347.9498062133789 713.009651184082Q-341.4741516113281 660.4814147949219 -315.4503936767578 618.3685455322266Q-282.7661590576172 566.2267913818359 -266.8135681152344 520.6575317382812Q-250.86097717285156 475.08827209472656 -245.21904754638672 441.06371307373047Q-239.57711791992188 407.0391540527344 -239.35719299316406 387.5381317138672Q-239.13726806640625 368.037109375 -239.13726806640625 368.037109375Q-229.29037475585938 389.9945373535156 -225.47493743896484 426.47814178466797Q-221.6595001220703 462.9617462158203 -221.79462432861328 501.9624710083008Q-221.92974853515625 540.9631958007812 -223.63633728027344 568.9706878662109Z" fill="#000000" stroke="none" transform="scale(1,-1) translate(0,-256)" /><path d="M-176.15347290039062 -749.2634735107422Q-153.809814453125 -772.4903869628906 -135.5747833251953 -792.6756439208984Q-117.33975219726562 -812.8609008789062 -93.46072387695312 -833.1031494140625Q-51.67242431640625 -868.5270843505859 -8.757843017578125 -866.9603118896484Q34.15673828125 -865.3935394287109 70.94752502441406 -836.7634124755859Q107.73831176757812 -808.1332855224609 130.05673217773438 -759.3558959960938Q152.37515258789062 -710.5785064697266 152.98123168945312 -650.5812530517578Q153.61761474609375 -587.5841369628906 130.824462890625 -534.3509979248047Q108.03131103515625 -481.11785888671875 69.21273803710938 -449.72413635253906Q30.3941650390625 -418.3304138183594 -17.778045654296875 -418.8440399169922Q-41.1065673828125 -418.6084747314453 -70.18515014648438 -428.81543731689453Q-99.26373291015625 -439.02239990234375 -120.52658081054688 -457.8087615966797Q-122.81448364257812 -460.78582763671875 -122.10740661621094 -465.29322052001953Q-121.40032958984375 -469.8006134033203 -118.40029907226562 -470.8309631347656Q-86.905029296875 -482.1496124267578 -65.39471435546875 -513.3685607910156Q-61.68255615234375 -518.4063262939453 -58.73808288574219 -524.9364242553711Q-55.793609619140625 -531.4665222167969 -56.616851806640625 -538.4586029052734Q-57.440093994140625 -545.45068359375 -64.68006896972656 -554.3780822753906Q-71.9200439453125 -563.3054809570312 -94.37481689453125 -551.0780639648438Q-119.81951904296875 -536.8203430175781 -143.85006713867188 -531.5774078369141Q-167.880615234375 -526.33447265625 -198.062744140625 -534.0301513671875Q-228.244873046875 -541.725830078125 -269.8766174316406 -565.3067932128906Q-301.65472412109375 -581.9868621826172 -326.76609802246094 -609.2348403930664Q-351.8774719238281 -636.4828186035156 -369.46856689453125 -664.3067626953125Q-387.0596618652344 -692.1307067871094 -397.0244140625 -710.0310974121094Q-399.33251953125 -715.0080718994141 -396.7390594482422 -719.0344848632812Q-394.1455993652344 -723.0608978271484 -390.36273193359375 -721.0989837646484Q-375.9837951660156 -713.2437286376953 -352.5694122314453 -704.9796829223633Q-329.155029296875 -696.7156372070312 -299.7860412597656 -695.0120849609375Q-270.41705322265625 -693.3085327148438 -238.55056762695312 -705.1309585571289Q-206.68408203125 -716.9533843994141 -176.15347290039062 -749.2634735107422Z" fill="#000000" stroke="none" transform="scale(1,-1) translate(0,-256)" /></svg>